v -0.0232630928 -0.00535934423 0.0130077797
v -0.0232557019 -0.00536596034 0.0130069453
v -0.0232689341 -0.00536518548 0.0130020577
v -0.0232615431 -0.00537174199 0.0130012232
v -0.0247992237 -0.00702410196 0.0171849925
v -0.0248149594 -0.00700902198 0.0172131259
v -0.0248215159 -0.00701557849 0.0172094304
v -0.0248208006 -0.007006757 0.0172195632
v -0.0248273571 -0.00701331352 0.0172158677
v -0.0247741898 -0.00703727458 0.01716425
v -0.0247676333 -0.00703071807 0.0171679455
v -0.0247961243 -0.00702523444 0.0171816546
v -0.0247895678 -0.00701867793 0.0171854693
v -0.0247926672 -0.00701754545 0.0171886879
v -0.0246603449 -0.00718652461 0.0172268349
v -0.0246553381 -0.00716208671 0.0172015625
v -0.0246618946 -0.00716864322 0.0171978671
v -0.0246554573 -0.00716011976 0.0171983439
v -0.0246620138 -0.00716667627 0.0171946484
v -0.0246776303 -0.0072286651 0.0173331696
v -0.0246710737 -0.00722204898 0.0173368651
v -0.0246702393 -0.00721960519 0.0173034865
v -0.0246636828 -0.00721304868 0.017307182
v -0.0246649941 -0.00720464443 0.0172673661
v -0.0246584376 -0.00719808791 0.0172710616
v -0.0246599873 -0.00719069694 0.0172336298
v -0.0246534308 -0.00718414043 0.0172373253
v -0.0246537884 -0.0071799681 0.0172305304
v -0.0238665303 -0.00641750549 0.0149042803
v -0.0238727291 -0.00642370437 0.014899512
v -0.0236022433 -0.00664191697 0.0148531395
v -0.0236084421 -0.00664811586 0.014848252
v -0.0232297142 -0.00582849239 0.0134633976
v -0.0232356747 -0.00583439325 0.013457914
v -0.0232861002 -0.00578992818 0.0134643513
v -0.0233336647 -0.00575261567 0.0134753186
v -0.0233277043 -0.00574671481 0.0134808022
v -0.0233066042 -0.00577192758 0.0134669739
v -0.0233006438 -0.00576596711 0.0134724576
v -0.023280259 -0.00578402732 0.0134698349
v -0.0198013743 -0.00209110235 0.00809850278
v -0.0197970827 -0.00208693002 0.0081064898
v -0.0198134144 -0.00210421537 0.0081116158
v -0.0198107918 -0.00210189079 0.00812151017
v -0.0198247393 -0.00212150071 0.00812663617
v -0.019820567 -0.00211726878 0.0081346232
v -0.019836541 -0.00213950132 0.00814225259
v -0.0198327263 -0.00213634227 0.00815107408
v -0.0198370178 -0.00214081262 0.00814320626
v -0.0198328455 -0.00213658069 0.00815119329
v -0.019838806 -0.00214510415 0.00814642492
v -0.0198348721 -0.0021418855 0.00815512719
v -0.0198407133 -0.00215458129 0.00815238538
v -0.019836541 -0.00215034936 0.00816049161
v -0.0198426207 -0.00216387962 0.00815834584
v -0.0198384484 -0.00216030334 0.00816669049
v -0.0198426207 -0.00216590617 0.00815941873
v -0.0198384484 -0.00216167424 0.00816740575
v -0.0198427399 -0.00216858838 0.00816084924
v -0.0198384484 -0.00216519092 0.0081693131
v -0.019841667 -0.00217615817 0.00816430631
v -0.0198373755 -0.00217192624 0.00817229333
v -0.0198407133 -0.00218223785 0.00816704812
v -0.0198363026 -0.00217878078 0.00817527356
v -0.0198395212 -0.00218617175 0.00816847863
v -0.0198353489 -0.00218193982 0.00817646566
v -0.0198389252 -0.00218795989 0.00816907468
v -0.0198346337 -0.00218408559 0.00817718091
v -0.0198349913 -0.00219594692 0.00817122045
v -0.019830819 -0.00219171499 0.00817920747
v -0.0198327263 -0.00220053647 0.00817241254
v -0.0198283156 -0.00219666217 0.00818051877
v -0.0198316534 -0.00220238422 0.00817277017
v -0.0198247393 -0.00220125173 0.00818111482
v -0.0198290308 -0.00220554326 0.0081731278
v -0.0198159178 -0.0022123978 0.00818230691
v -0.0198200901 -0.00221662973 0.00817431989
v -0.0192422827 -0.00142394756 0.0075032908
v -0.0192462166 -0.00142788146 0.00749506536
v -0.0192412098 -0.00140606616 0.00749446931
v -0.0192451437 -0.00140958284 0.00748600545
v -0.019241329 -0.00140445684 0.00749375406
v -0.0192452629 -0.00140833114 0.0074854094
v -0.0192489584 -0.00136648868 0.00746764722
v -0.0192450245 -0.00136261438 0.00747599187
v -0.0192460974 -0.00135128949 0.00747110429
v -0.0192500313 -0.00135492538 0.00746264043
v -0.019250985 -0.00133156036 0.00746419015
v -0.0192553957 -0.00133358691 0.00745524945
v -0.0192552765 -0.00132142757 0.00746144834
v -0.019258972 -0.00132530187 0.00745310369
v -0.0192750653 -0.00128798936 0.00744320932
v -0.0192708929 -0.00128399585 0.00745143476
v -0.0192725619 -0.00128024076 0.00745036187
v -0.0192775686 -0.00128190969 0.00744154039
v -0.0192848404 -0.00125991557 0.00744666639
v -0.0192908009 -0.00126069043 0.0074378449
v -0.0192965229 -0.00124567006 0.00744547429
v -0.0193000992 -0.00124936555 0.00743689122
v -0.0193393191 -0.00120221828 0.00743319574
v -0.0193353852 -0.00119834398 0.00744154039
v -0.0197771748 -0.00142102693 0.00774671617
v -0.0197575052 -0.00140558933 0.00772955003
v -0.0197731217 -0.00141697381 0.00775494161
v -0.0197534521 -0.00140159581 0.00773777547
v -0.0197265108 -0.00138055538 0.00771429124
v -0.0197305639 -0.00138454889 0.0077060658
v -0.0197221001 -0.00137864803 0.0077111918
v -0.0197261532 -0.00138264154 0.00770296636
v -0.0197038611 -0.00137328361 0.00768758836
v -0.0196869333 -0.00137012456 0.0076778132
v -0.0196829994 -0.00136613105 0.00768603864
v -0.019703265 -0.00137304519 0.00768723073
v -0.0196993311 -0.00136905168 0.00769545617
v -0.019699808 -0.00136923049 0.0076958138
v -0.0162664612 0.00161225344 0.00532211843
v -0.0162639578 0.00161475684 0.00533141675
v -0.017023917 0.000854797618 0.00575687471
v -0.017021056 0.000857599036 0.00576605382
v -0.0157532652 0.00120712067 0.00529374662
v -0.015750881 0.00120956446 0.00530304494
v -0.0164908131 0.000469513194 0.00571133676
v -0.0164880713 0.000472314612 0.00572051587
v -0.0156229695 0.0013627484 0.0052306849
v -0.0156253536 0.00136036421 0.00522126737
v -0.0155787428 0.00144935395 0.00518741193
v -0.0155398806 0.00153709199 0.00515582147
v -0.0155374964 0.00153941657 0.005165239
v -0.0155510863 0.00150240208 0.00516714635
v -0.0155487021 0.00150466706 0.00517668309
v -0.0155764778 0.00145173814 0.00519682946
v -0.021214362 -0.00425391649 0.0103119809
v -0.0212193688 -0.00425898288 0.0103050667
v -0.0214859207 -0.00393610452 0.0102787215
v -0.0214909275 -0.00394117091 0.0102716881
v -0.0151075085 -0.0141422674 0.0136720139
v -0.0151928623 -0.0142277405 0.013862868
v -0.0151988228 -0.014233701 0.0138576228
v -0.0137959679 -0.0128307865 0.0111987788
v -0.0131944378 -0.012229316 0.0102657277
v -0.013103958 -0.0121387169 0.0101508099
v -0.0125955303 -0.0116303489 0.00945152822
v -0.0123628338 -0.011397712 0.00917198243
v -0.0119652708 -0.011000149 0.00868596616
v -0.0119608601 -0.0109956786 0.00869371476
v -0.0150206049 -0.0140554235 0.0134824711
v -0.0148094853 -0.0138443634 0.0130223233
v -0.0144358834 -0.0134707019 0.0123110014
v -0.0143924912 -0.0134273693 0.0122142035
v -0.0138146837 -0.0128495023 0.0112139184
v -0.0132152994 -0.00907026981 0.00831987443
v -0.0132176836 -0.0090625212 0.00831701341
v -0.0132234057 -0.00906651471 0.00830974164
v -0.0134695729 -0.00860845302 0.00820865216
v -0.0134738644 -0.00861268495 0.00820066514
v -0.0134025772 -0.0086826012 0.00821246686
v -0.0134093722 -0.0086903498 0.00820769849
v -0.013401862 -0.00868367408 0.00821258607
v -0.0133569201 -0.00875353072 0.00821342054
v -0.0133215149 -0.00880389665 0.00823380532
v -0.0133262833 -0.00880800937 0.00822605672
v -0.0133006533 -0.00883501027 0.00823928895
v -0.0132784804 -0.00889288638 0.00824584546
v -0.0132681092 -0.00890236352 0.00825800481
v -0.0132594069 -0.00893007968 0.0082681376
v -0.0132639368 -0.00893449043 0.008260389
v -0.0132274588 -0.00903921579 0.00829710546
v -0.013204809 -0.00913839792 0.00835110727
v -0.0132095774 -0.0091599748 0.0083528954
v -0.0132049282 -0.00915538524 0.0083605248
v -0.0132057627 -0.00918602203 0.00836493554
v -0.0132061203 -0.00928371404 0.00843145433
v -0.013211604 -0.00928764795 0.00842394414
v -0.0132062395 -0.00930123781 0.00844111028
v -0.0132138689 -0.00932698701 0.00844683233
v -0.0132189949 -0.00936686252 0.00848450246
v -0.0132393797 -0.00940459226 0.0085042912
v -0.0132328232 -0.00940119479 0.00851144376
v -0.0132549961 -0.009452574 0.00853981557
v -0.013265725 -0.00948535655 0.00856413427
v -0.0132749041 -0.00950568174 0.00859345975
v -0.013286229 -0.00951360915 0.00859191003
v -0.0132793148 -0.00951140378 0.00859930101
v -0.0133559664 -0.00960957263 0.00868596616
v -0.0133514364 -0.00960510228 0.00869371476
f 1 2 3
f 3 2 4
f 5 6 7
f 7 6 8
f 7 8 9
f 10 11 12
f 12 11 13
f 12 13 5
f 5 13 14
f 5 14 6
f 15 16 17
f 17 16 18
f 17 18 19
f 20 21 22
f 22 21 23
f 22 23 24
f 24 23 25
f 24 25 26
f 26 25 27
f 26 27 15
f 15 27 28
f 15 28 16
f 29 30 31
f 31 30 32
f 33 34 35
f 36 37 38
f 38 37 39
f 38 39 35
f 35 39 40
f 35 40 33
f 41 42 43
f 43 42 44
f 43 44 45
f 45 44 46
f 45 46 47
f 47 46 48
f 47 48 49
f 49 48 50
f 49 50 51
f 51 50 52
f 51 52 53
f 53 52 54
f 53 54 55
f 55 54 56
f 55 56 57
f 57 56 58
f 57 58 59
f 59 58 60
f 59 60 61
f 61 60 62
f 61 62 63
f 63 62 64
f 63 64 65
f 65 64 66
f 65 66 67
f 67 66 68
f 67 68 69
f 69 68 70
f 69 70 71
f 71 70 72
f 71 72 73
f 73 72 74
f 73 74 75
f 75 74 76
f 75 76 77
f 78 79 80
f 80 79 81
f 80 81 82
f 81 83 82
f 82 83 84
f 82 84 85
f 85 84 86
f 86 84 87
f 86 87 88
f 88 87 89
f 88 89 90
f 89 91 90
f 90 91 92
f 90 92 93
f 93 92 94
f 94 92 95
f 94 95 96
f 96 95 97
f 96 97 98
f 97 99 98
f 98 99 100
f 98 100 101
f 102 103 104
f 104 103 105
f 105 103 106
f 106 103 107
f 106 107 108
f 108 107 109
f 108 109 110
f 111 112 113
f 113 112 114
f 113 114 110
f 110 114 115
f 110 115 108
f 116 117 118
f 118 117 119
f 120 121 122
f 122 121 123
f 124 125 126
f 127 128 129
f 129 128 130
f 129 130 126
f 126 130 131
f 126 131 124
f 132 133 134
f 134 133 135
f 136 137 138
f 139 140 141
f 141 140 142
f 141 142 143
f 143 142 144
f 143 144 145
f 136 138 146
f 146 138 147
f 146 147 148
f 148 147 149
f 148 149 139
f 139 149 150
f 139 150 140
f 151 152 153
f 154 155 156
f 156 155 157
f 156 157 158
f 158 157 159
f 158 159 160
f 160 159 161
f 160 161 162
f 162 161 163
f 162 163 164
f 164 163 165
f 165 163 166
f 165 166 152
f 152 166 167
f 152 167 153
f 151 153 168
f 168 153 169
f 168 169 170
f 170 169 171
f 170 171 172
f 172 171 173
f 172 173 174
f 174 173 175
f 174 175 176
f 176 175 177
f 176 177 178
f 177 179 178
f 178 179 180
f 178 180 181
f 181 180 182
f 181 182 183
f 183 182 184
f 183 184 185
