v 0.022273886 -0.00671756012 0.028000011
v 0.0258093951 -0.0031819318 0.028000011
v 0.0228228447 -0.0072665189 0.0278977295
v 0.0263584731 -0.00373100979 0.0278977295
v 0.023334491 -0.00777816517 0.0275980373
v 0.0268700001 -0.00424265606 0.0275980373
v 0.0237738964 -0.00821757061 0.0271213194
v 0.0273094056 -0.00468194229 0.0271213194
v 0.0241110203 -0.00855457527 0.0265000005
v 0.0276465294 -0.00501906616 0.0265000005
v 0.0243228552 -0.00876652939 0.0257764001
v 0.0278584835 -0.00523102028 0.0257764001
v 0.0243952153 -0.00883888942 0.02499999
v 0.0279307244 -0.00530326111 0.02499999
v 0.0243228552 -0.00876652939 0.0242235799
v 0.0278584835 -0.00523102028 0.0242235799
v 0.0241110203 -0.00855457527 0.0234999796
v 0.0276465294 -0.00501906616 0.0234999796
v 0.0237738964 -0.00821757061 0.0228786607
v 0.0273094056 -0.00468194229 0.0228786607
v 0.023334491 -0.00777816517 0.0224019428
v 0.0268700001 -0.00424265606 0.0224019428
v 0.0228228447 -0.0072665189 0.0221022506
v 0.0263584731 -0.00373100979 0.0221022506
v 0.022273886 -0.00671756012 0.0219999691
v 0.0258093951 -0.0031819318 0.0219999691
v 0.021724808 -0.00616848213 0.0221022506
v 0.0252603171 -0.00263297302 0.0221022506
v 0.0212131617 -0.00565683586 0.0224019428
v 0.02474879 -0.00212132675 0.0224019428
v 0.0207738755 -0.00521754963 0.0228786607
v 0.0243093846 -0.00168192131 0.0228786607
v 0.0204367516 -0.00488042576 0.0234999796
v 0.0239722607 -0.00134491665 0.0234999796
v 0.0202247975 -0.00466847164 0.0242235799
v 0.0237603066 -0.00113296253 0.0242235799
v 0.0201525566 -0.00459623081 0.02499999
v 0.0236880658 -0.00106060249 0.02499999
v 0.0202247975 -0.00466847164 0.0257764001
v 0.0237603066 -0.00113296253 0.0257764001
v 0.0204367516 -0.00488042576 0.0265000005
v 0.0239722607 -0.00134491665 0.0265000005
v 0.0207738755 -0.00521754963 0.0271213194
v 0.0243093846 -0.00168192131 0.0271213194
v 0.0212131617 -0.00565683586 0.0275980373
v 0.02474879 -0.00212132675 0.0275980373
v 0.021724808 -0.00616848213 0.0278977295
v 0.0252603171 -0.00263297302 0.0278977295
v 0.0095791695 0.00597715634 0.00919033486
v 0.00935040687 0.00620591896 0.0103978057
v 0.00989948486 0.00565684098 0.00925005871
v 0.00989948486 0.00565684098 0.0104999681
v 0.0102198002 0.00533652561 0.00919033486
v 0.0104485628 0.00510776299 0.0103978057
v 0.0105181811 0.00503814476 0.00901557404
v 0.0109602091 0.00459623593 0.0100981136
v 0.010774481 0.00478184479 0.00873745877
v 0.0113994954 0.00415683049 0.00962127644
v 0.0109711764 0.00458514946 0.00837494332
v 0.0117366192 0.00381970661 0.00899995762
v 0.0110947964 0.00446152943 0.00795294243
v 0.0119485733 0.00360787171 0.00827647644
v 0.0111368773 0.00441944855 0.00749994713
v 0.0120208142 0.00353551167 0.00749994713
v 0.0110947964 0.00446152943 0.00704707104
v 0.0119485733 0.00360787171 0.00672353703
v 0.0109711764 0.00458514946 0.00662495094
v 0.0117366192 0.00381970661 0.00600005585
v 0.010774481 0.00478184479 0.0062625547
v 0.0113994954 0.00415683049 0.00537873703
v 0.0105181811 0.00503814476 0.00598443943
v 0.0109602091 0.00459623593 0.00490189987
v 0.0102198002 0.00533652561 0.00580967861
v 0.0104485628 0.00510776299 0.00460220772
v 0.00989948486 0.00565684098 0.00574995476
v 0.00989948486 0.00565684098 0.00450004536
v 0.0095791695 0.00597715634 0.00580967861
v 0.00935040687 0.00620591896 0.00460220772
v 0.00928078865 0.00627553719 0.00598443943
v 0.00883887981 0.00671756523 0.00490189987
v 0.00902448868 0.00653183716 0.0062625547
v 0.00839947437 0.00715685147 0.00537873703
v 0.00882779335 0.00672853249 0.00662495094
v 0.0080623505 0.00749397534 0.00600005585
v 0.00870417332 0.00685215252 0.00704707104
v 0.00785051559 0.00770592945 0.00672353703
v 0.00866209244 0.0068942334 0.00749994713
v 0.00777815555 0.00777817028 0.00749994713
v 0.00870417332 0.00685215252 0.00795294243
v 0.00785051559 0.00770592945 0.00827647644
v 0.00882779335 0.00672853249 0.00837494332
v 0.0080623505 0.00749397534 0.00899995762
v 0.00902448868 0.00653183716 0.00873745877
v 0.00839947437 0.00715685147 0.00962127644
v 0.00928078865 0.00627553719 0.00901557404
v 0.00883887981 0.00671756523 0.0100981136
v 0.0139927742 -0.00550758583 0.0385934253
v 0.0211303112 0.00149715203 0.038687243
v 0.0142009137 -0.00571560604 0.038887157
v 0.0213252184 0.00130224484 0.0389622589
v 0.014254081 -0.00576889259 0.0389622589
v 0.0145740387 -0.00608873111 0.0392228504
v 0.021645057 0.000982287104 0.0392228504
v 0.0149307129 -0.00644540531 0.0393575569
v 0.0220018504 0.00062561291 0.0393575569
v 0.0152999041 -0.00681459648 0.0393569608
v 0.0223709223 0.00025642174 0.0393569608
v 0.0156564591 -0.00717115146 0.0392214199
v 0.0227274773 -0.000100133245 0.0392214199
v 0.01597594 -0.00749063236 0.0389598747
v 0.0230470774 -0.000419614141 0.0389598747
v 0.0160273192 -0.00754201156 0.038887157
v 0.0231133578 -0.000485894506 0.0388659378
v 0.0161837218 -0.00769841415 0.038665547
v 0.0232394812 -0.000612137143 0.038687243
v 0.0162367699 -0.00775146229 0.0385903259
v 0.0233077881 -0.000680444066 0.0385903259
v 0.0164210675 -0.00793575985 0.0381379266
v 0.0234920857 -0.000864741628 0.0381379266
v 0.0165161965 -0.00803100807 0.0376335521
v 0.0235873339 -0.000959870641 0.0376335521
v 0.0165158389 -0.00803065044 0.0371114154
v 0.0235869763 -0.000959513013 0.0371114154
v 0.0164199946 -0.00793468696 0.0366071602
v 0.0234910128 -0.000863668744 0.0366071602
v 0.016235101 -0.00774979336 0.0361553569
v 0.0233061192 -0.000678775136 0.0361553569
v 0.0161837218 -0.00769841415 0.0360827585
v 0.0231133578 -0.000485894506 0.0358830829
v 0.0159737942 -0.00748848659 0.0357865234
v 0.0230448124 -0.000417468374 0.0357865234
v 0.0156538365 -0.00716864807 0.0355258127
v 0.0227249739 -9.75106404e-05 0.0355258127
v 0.0152971623 -0.00681185467 0.0353912254
v 0.0223682997 0.000259163554 0.0353912254
v 0.0149279711 -0.0064427827 0.0353917022
v 0.0219991085 0.000628354724 0.0353917022
v 0.0145715353 -0.00608622772 0.0355273624
v 0.0216425536 0.000984909709 0.0355273624
v 0.0142519352 -0.00576662761 0.0357887884
v 0.0213230727 0.0013043906 0.0357887884
v 0.0139911053 -0.0055059169 0.0361583372
v 0.0210622427 0.00156522053 0.0361583372
v 0.013806927 -0.00532161934 0.0366107364
v 0.0208779452 0.00174951809 0.0366107364
v 0.0137116787 -0.00522637111 0.0371152301
v 0.020782697 0.0018446471 0.0371152301
v 0.0137120364 -0.00522672874 0.0376373668
v 0.0207830546 0.00184428948 0.0376373668
v 0.0138078806 -0.00532269222 0.0381415029
v 0.0208790181 0.00174844521 0.0381415029
v 0.0210639117 0.0015635516 0.0385934253
v -0.00126494194 0.00975013035 0.0114065548
v 0.00573979591 0.0168876674 0.0113128563
v -0.00147308136 0.00995826977 0.0111128231
v 0.00554488872 0.0170825745 0.0110377212
v -0.0015262487 0.0100114371 0.0110377212
v -0.00184608723 0.0103313948 0.0107771297
v 0.00522493099 0.0174024131 0.0107771297
v -0.00220276142 0.010688069 0.0106425424
v 0.0048682568 0.0177592065 0.0106425424
v -0.00257195259 0.0110572602 0.0106430193
v 0.00449906563 0.0181283976 0.0106430193
v -0.00292850758 0.0114138152 0.0107785602
v 0.00414251064 0.0184848334 0.0107785602
v -0.00324798847 0.0117332961 0.0110401054
v 0.00382302975 0.0188044335 0.0110401054
v -0.00329936768 0.0117846753 0.0111128231
v 0.00375674938 0.0188707139 0.0111340423
v -0.00345577027 0.0119410779 0.0113344331
v 0.00363050674 0.0189968373 0.0113128563
v -0.0035088184 0.011994126 0.0114096542
v 0.00356219982 0.0190651442 0.0114096542
v -0.00369311596 0.0121784236 0.0118620535
v 0.00337790226 0.0192494418 0.0118620535
v -0.00378836418 0.0122736718 0.0123665472
v 0.00328277324 0.01934469 0.0123665472
v -0.00378800656 0.0122733142 0.0128885646
v 0.00328313087 0.0193443324 0.0128885646
v -0.00369204308 0.0121773507 0.0133928199
v 0.00337897514 0.0192483689 0.0133928199
v -0.00350714947 0.0119924571 0.0138447424
v 0.00356386875 0.0190634753 0.0138447424
v -0.00345577027 0.0119410779 0.0139172216
v 0.00375674938 0.0188707139 0.0141168972
v -0.00324584271 0.0117311503 0.0142135759
v 0.00382517551 0.0188021685 0.0142135759
v -0.00292600418 0.0114111926 0.0144741674
v 0.00414513325 0.01848233 0.0144741674
v -0.00256932999 0.0110545184 0.0146087547
v 0.00450180744 0.0181256558 0.0146087547
v -0.00220013882 0.0106853272 0.0146082779
v 0.00487099861 0.0177564647 0.0146082779
v -0.00184358383 0.0103288915 0.0144726177
v 0.00522743439 0.0173999097 0.0144726177
v -0.00152398373 0.0100092913 0.0142111917
v 0.00554703449 0.0170804288 0.0142111917
v -0.00126327301 0.00974846142 0.0138416429
v 0.00580786442 0.0168195988 0.0138416429
v -0.00107897545 0.00956428307 0.0133892437
v 0.00599216198 0.0166353013 0.0133892437
v -0.000983727228 0.00946903485 0.0128847499
v 0.00608729099 0.0165400531 0.0128847499
v -0.000984084856 0.00946939247 0.0123626133
v 0.00608693336 0.0165404107 0.0123626133
v -0.00108004833 0.00956523674 0.0118584772
v 0.00599108909 0.0166363742 0.0118584772
v 0.00580619549 0.0168212678 0.0114065548
v 0.00557373737 -0.0239229177 0.0139494081
v 0.00597881054 -0.0240764592 0.0146147152
v 0.00558851932 -0.0239446138 0.0139911314
v 0.00586067413 -0.0242167686 0.0146423717
v 0.00557051872 -0.0239182685 0.013940229
v 0.00556753849 -0.0239070628 0.0139241357
v 0.0055663464 -0.0239027713 0.0139178177
v 0.00556658481 -0.0238933538 0.0139074464
v 0.00556670402 -0.0238835786 0.0138964792
v 0.00557099556 -0.0238691543 0.0138850351
v 0.00557123398 -0.0238683198 0.0138843198
v 0.0055767176 -0.0238571141 0.0138777633
v 0.00557898258 -0.0238522266 0.0138749023
v 0.00558327411 -0.0238454316 0.0138720413
v 0.00558387016 -0.0238445972 0.0138718029
v 0.00559364532 -0.0238321994 0.0138688226
v 0.005599725 -0.0238244508 0.0138669153
v 0.00560950016 -0.0238139604 0.0138662
v 0.00562118267 -0.0238039468 0.0138679882
v 0.00565158104 -0.023790953 0.0138876577
v 0.00563083862 -0.0237967942 0.0138708492
v 0.00563691829 -0.0237928603 0.0138732334
v 0.00564001774 -0.0237911914 0.0138749023
v 0.00564144825 -0.0237904761 0.0138757368
v 0.00564895843 -0.0237877343 0.013880982
v 0.00565289234 -0.0237861846 0.013883843
v 0.0056575415 -0.0237852309 0.0138878961
v 0.00565789913 -0.0237851117 0.013888373
v 0.00566612457 -0.0237849925 0.0138975521
v 0.0056716082 -0.0237848733 0.0139036317
v 0.00567220424 -0.0237849925 0.0139044662
v 0.00567566131 -0.0237857078 0.0139091154
v 0.0056844828 -0.0237899993 0.0139240165
v 0.00569747661 -0.0237963174 0.0139460703
v 0.00570415233 -0.0238021587 0.0139603754
v 0.00562499737 -0.0238006089 0.0138685842
v 0.00570594047 -0.0238035892 0.0139640709
v 0.00557731365 -0.0238751147 0.0138800283
v 0.00557552551 -0.0238792871 0.0138826509
v 0.0055727837 -0.0238895391 0.013891234
v 0.00558243965 -0.0238630746 0.0138722797
v 0.0055830357 -0.0238616441 0.013871326
v 0.00558887695 -0.0238519881 0.0138669153
v 0.00558994983 -0.0238505576 0.0138665577
v 0.00559936737 -0.0238381599 0.0138632198
v 0.00561557983 -0.0238200401 0.0138609548
v 0.00560198997 -0.0238347028 0.0138622661
v 0.00679718231 -0.0242515777 0.0159369846
v 0.00679074501 -0.0242451404 0.0159412761
v 0.00671993469 -0.0241743301 0.0157121559
v 0.0067136166 -0.024168012 0.0157165666
v 0.0064184544 -0.0242794727 0.0154575248
v 0.00640450691 -0.0242942546 0.0154587169
v 0.006410825 -0.0243005727 0.015454187
v 0.00644348835 -0.0242562268 0.015459909
v 0.00644992565 -0.0242624257 0.0154553791
v 0.00646744942 -0.0242339347 0.0154622932
v 0.00646482681 -0.024247763 0.0154558559
v 0.00647913193 -0.0242245172 0.0154653926
v 0.00648556923 -0.0242311929 0.015461578
v 0.00647925113 -0.024224398 0.0154653926
v 0.00649868225 -0.0242207025 0.0154652734
v 0.00651966308 -0.0241962646 0.0154824396
v 0.00651930546 -0.0242062781 0.0154737373
v 0.00652586197 -0.0242024635 0.0154776712
v 0.00660144066 -0.0241651509 0.015531077
v 0.00659536098 -0.0241579984 0.0155347725
v 0.00659166549 -0.0241591905 0.0155311962
v 0.00656818126 -0.0241781448 0.0155027052
v 0.00655792927 -0.0241746877 0.0155058046
v 0.00656448578 -0.0241801713 0.0155005594
v 0.00654338573 -0.0241813634 0.0154948373
v 0.00652860378 -0.0241900657 0.0154862543
v 0.00661014293 -0.02415323 0.0155489584
v 0.00661324238 -0.0241605018 0.0155410905
v 0.00662909721 -0.024150369 0.0155714889
v 0.00663553451 -0.0241565679 0.015566959
v 0.00665305828 -0.0241466735 0.0155999799
v 0.00665532326 -0.0241531108 0.0155899664
v 0.00666116451 -0.0241470311 0.0156119009
v 0.00666724418 -0.0241537069 0.0156076093
v 0.00666688656 -0.0241472696 0.0156203647
v 0.0066777346 -0.0241541837 0.0156232257
v 0.00668619846 -0.0241535876 0.0156567236
v 0.00669227814 -0.0241600249 0.0156523128
v 0.00670133804 -0.0241584752 0.0156852146
v 0.00671325897 -0.024168608 0.0156941553
v 0.00671063637 -0.0241656278 0.0157089372
v 0.00671707367 -0.0241719459 0.0157045265
v 0.00639783119 -0.0243015264 0.0154595514
v 0.00640414928 -0.0243078445 0.0154550214
v 0.00636802887 -0.0247070764 0.0159993311
v 0.00637434696 -0.0247133945 0.0159950395
v 0.00629125809 -0.0246303056 0.0157742639
v 0.00629769539 -0.0246367429 0.0157698532
v 0.00665782665 -0.0245902513 0.0162619491
v 0.00667177414 -0.0245754693 0.0162608762
v 0.00667821144 -0.0245819066 0.0162567039
v 0.00663291191 -0.0246136163 0.0162595649
v 0.00663923 -0.0246201728 0.0162553926
v 0.00660895084 -0.0246359084 0.0162571807
v 0.00662432884 -0.0246347163 0.0162549158
v 0.00659738754 -0.0246454452 0.0162539621
v 0.00660370563 -0.0246515248 0.0162490745
v 0.00659726833 -0.0246456836 0.0162539621
v 0.00659071182 -0.0246621345 0.016245379
v 0.00655733322 -0.0246742938 0.0162365575
v 0.00657032703 -0.0246769164 0.0162365575
v 0.00656388973 -0.0246807311 0.0162326236
v 0.00648974155 -0.0247194741 0.0161782642
v 0.00648306583 -0.0247138713 0.016183271
v 0.00648664211 -0.02471256 0.0161868473
v 0.00652228569 -0.0247057651 0.0162071128
v 0.00651966308 -0.0246963475 0.0162127157
v 0.00652586197 -0.0247036193 0.0162092586
v 0.0065339682 -0.0246894334 0.0162239214
v 0.00654863094 -0.0246806119 0.0162327428
v 0.0064685223 -0.0247188781 0.0161689659
v 0.00647817825 -0.0247243617 0.0161681314
v 0.00645004486 -0.0247223352 0.0161460777
v 0.00645648216 -0.0247287725 0.0161417862
v 0.00642679905 -0.0247266267 0.0161171098
v 0.00643705105 -0.0247328256 0.0161184211
v 0.00641893123 -0.0247265075 0.0161050697
v 0.00642560695 -0.0247325872 0.016100659
v 0.0064133284 -0.0247263883 0.0160964866
v 0.00641535496 -0.0247323487 0.0160848041
v 0.00639461254 -0.0247206662 0.016059651
v 0.00640116905 -0.0247268651 0.0160554786
v 0.00637983059 -0.0247162555 0.0160309215
v 0.00638090347 -0.0247189973 0.0160131593
v 0.00637088989 -0.0247092221 0.0160069605
v 0.00637708877 -0.0247157787 0.0160026689
v 8.57089804e-06 -0.0183646653 0.00651802021
v -3.11257954e-05 -0.0188080047 0.00667513806
v -0.00047339226 -0.0178827022 0.00616551834
v -0.000996124994 -0.0178430055 0.00597406822
v -0.000964057695 -0.0173920367 0.00583816963
v 0.00672279571 -0.0250424121 0.0170831819
v 0.00662134861 -0.025095341 0.016999497
v 0.0067162392 -0.0250358556 0.0170869966
v 0.0066147921 -0.0250887845 0.0170033117
v 0.00155042385 -0.0192878221 0.00757254559
v 0.00163637375 -0.0193539832 0.00765789944
v 0.00164030765 -0.0193580363 0.00764955479
v 0.00167058681 -0.0193808053 0.00768722492
v 0.00167463993 -0.0193848584 0.00767899948
v 0.0014278767 -0.019246218 0.00749505955
v 0.00142394279 -0.0192422841 0.00750328499
v 0.00146602367 -0.0192531322 0.00751615959
v 0.00146208977 -0.0192491983 0.00752450424
v 0.00148116325 -0.0192593311 0.00752629238
v 0.00147722935 -0.0192553971 0.00753463703
v 0.00155006622 -0.0192875837 0.00757230717
v 0.00154613231 -0.0192836497 0.00758065182
v 0.00154648994 -0.019283769 0.00758089024
v 0.0013701794 -0.0196869348 0.00767780739
v 0.0013713715 -0.0196690534 0.00766970116
v 0.00136612629 -0.0196830009 0.00768603283
v 0.00136731838 -0.0196650003 0.00767804581
v 0.00136731838 -0.0196646426 0.00767780739
v 0.00137149071 -0.0196683381 0.00766946274
v 0.00137160991 -0.0196497415 0.00767268139
v 0.00137566303 -0.0196536754 0.00766433674
v 0.00137280201 -0.0196456884 0.00767125088
v 0.00137685512 -0.0196493838 0.00766290623
v 0.00137625908 -0.0196379398 0.00766922432
v 0.0013804314 -0.0196417545 0.00766087967
v 0.00137768959 -0.0196359132 0.00766886669
v 0.0013816235 -0.0196399663 0.00766064125
v 0.00139116024 -0.0196257804 0.00765837628
v 0.00140856479 -0.0196045612 0.00765646893
v 0.00140451168 -0.019600508 0.00766481358
v 0.00139652466 -0.0196177934 0.00765718418
v 0.00139223312 -0.0196142171 0.00766540962
v 0.00138722633 -0.0196217273 0.00766660172
v 0.00219856476 -0.0201586459 0.00835873085
v 0.00220285629 -0.0201629375 0.00835086304
v 0.00221632694 -0.020157573 0.00836779076
v 0.0022209761 -0.0201618646 0.00836016136
v 0.00224469875 -0.0201519702 0.00838030773
v 0.00224899029 -0.0201562617 0.00837232071
v 0.00227771972 -0.0201454137 0.00839473206
v 0.00228224968 -0.0201497052 0.00838686424
v 0.00228904461 -0.020141599 0.00839890438
v 0.00229464744 -0.0201454137 0.0083913942
v 0.0022902367 -0.020141003 0.0083991428
v 0.00229524349 -0.0201452945 0.00839163262
v 0.0023312447 -0.020121095 0.0084107061
v 0.00233553623 -0.0201253865 0.00840271908
v 0.00234531139 -0.0201143001 0.00841475922
v 0.00235162948 -0.0201173995 0.00840724903
v 0.00235902046 -0.0201053594 0.00841738182
v 0.00236641144 -0.0201076244 0.00840999085
v 0.00237308716 -0.0200936769 0.00841869312
v 0.00237761711 -0.020098326 0.00841094452
v 0.00242601608 -0.0200575565 0.00841523606
v 0.00242160534 -0.0200532649 0.00842310387
v 0.00253449653 -0.0195454333 0.00820971924
v 0.00253878807 -0.0195497249 0.00820173222
v 0.00247572635 -0.0194569801 0.00811983544
v 0.00239466404 -0.0193550561 0.00802434879
v 0.00239049171 -0.0193508838 0.00803245503
v 0.00243734096 -0.0194005941 0.00807000595
v 0.00243328785 -0.0193964217 0.00807811218
v 0.00247155403 -0.0194526885 0.00812782246
v 0.00223981117 -0.0196989749 0.00812269646
v 0.0022067902 -0.0196579669 0.00809647042
v 0.00221096252 -0.0196621392 0.00808836418
v 0.00219939922 -0.0196484302 0.00808764893
v 0.00220357155 -0.0196526025 0.0080795427
v 0.00225495075 -0.0197390292 0.00815166432
v 0.00225065922 -0.0197348569 0.00815977055
v 0.00225292419 -0.019728658 0.00814522701
v 0.00224875187 -0.0197244857 0.00815321404
v 0.00225054001 -0.0197228168 0.00814081627
v 0.00224636768 -0.0197185252 0.0081489225
v 0.00224207615 -0.0197019551 0.00812543827
v 0.00223790382 -0.0196976636 0.00813342529
v 0.00223551964 -0.0196946834 0.00813068348
v 0.00480388378 -0.022715566 0.0119418045
v 0.00479840015 -0.0227099631 0.0119480034
v 0.00481783127 -0.0226997111 0.0119401355
v 0.00481234764 -0.0226941083 0.0119463344
v 0.00393615936 -0.0214859222 0.0102787157
v 0.00394116615 -0.021490929 0.0102716823
v 0.00324057316 -0.0220797036 0.0102058788
v 0.00324557995 -0.0220847104 0.0101988454
v 0.00344227527 -0.022281525 0.0104990144
v 0.00344740127 -0.0222865318 0.0104921003
v 0.00379179691 -0.0219765876 0.0105320354
v 0.00379692291 -0.0219817136 0.0105251213
v 0.00387572025 -0.0219111417 0.0105313202
v 0.00387059425 -0.0219060157 0.0105381151
v 0.00394510006 -0.0218490337 0.0105366846
v 0.00393997406 -0.0218439077 0.0105435987
v 0.00400732731 -0.0217915748 0.0105402609
v 0.00400172447 -0.0217859719 0.0105464597
v 0.00406693195 -0.0217349504 0.0105424066
v 0.00406168674 -0.0217298244 0.0105493208
v 0.00419961189 -0.0220530008 0.0109009882
v 0.0042048571 -0.022058246 0.0108943124
v 0.00424729561 -0.0219098304 0.01082684
v 0.00425254082 -0.0219149564 0.0108201643
v 0.0043716309 -0.0215326522 0.0106338401
v 0.0043767569 -0.0215377782 0.010626926
v 0.00451170181 -0.0214720939 0.0106939216
v 0.00451682781 -0.0214772199 0.0106871267
v 0.00279914116 -0.0208884452 0.00912715393
v 0.00280379032 -0.0208930944 0.00911964375
v 0.00293170189 -0.0208287213 0.00917221504
v 0.00314651703 -0.0207387183 0.00923599201
v 0.00314174866 -0.0207340692 0.0092435022
v 0.00825010513 -0.021553633 0.0143081089
v 0.0082561848 -0.0215597127 0.0143029829
v 0.00823365425 -0.0212351058 0.01391746
v 0.00823961471 -0.0212410663 0.0139120956
v 0.0112109063 -0.0171960567 0.0127746006
v 0.0112131712 -0.0171929572 0.0127737661
v 0.0112074492 -0.0171872352 0.0127796074
v 0.0112058995 -0.0171893809 0.0127800842
v 0.00935505604 -0.0197085117 0.0134883066
v 0.00907026504 -0.0132153009 0.00831986862
v 0.00906251644 -0.013217685 0.0083170076
v 0.00906656956 -0.0132234071 0.00830973583
v 0.00860844826 -0.0134695743 0.00820864636
v 0.00861262058 -0.0134738658 0.00820065933
v 0.00868259643 -0.0134025787 0.00821246105
v 0.00869034504 -0.0134093736 0.00820769268
v 0.00868366932 -0.0134018634 0.00821258026
v 0.00875352596 -0.0133569215 0.00821341473
v 0.00880395149 -0.0133215163 0.00823379952
v 0.00880800461 -0.0133262847 0.00822605091
v 0.00883506511 -0.0133006547 0.00823928314
v 0.00889288162 -0.0132784818 0.00824583965
v 0.00890229915 -0.0132681106 0.008257999
v 0.00893007492 -0.0132594083 0.00826813179
v 0.00893448566 -0.0132639383 0.00826038319
v 0.00903927063 -0.0132274602 0.00829709965
v 0.00913833355 -0.0132048104 0.00835110146
v 0.00915991043 -0.0132095788 0.0083528896
v 0.00915538048 -0.0132049297 0.00836051899
v 0.00918601726 -0.0132057641 0.00836492974
v 0.00928376888 -0.0132061217 0.00843144852
v 0.00928758358 -0.0132116054 0.00842393833
v 0.00930117344 -0.013206241 0.00844110447
v 0.00932692264 -0.0132138704 0.00844682652
v 0.00936685776 -0.0132189964 0.00848449665
v 0.0094046471 -0.0132392619 0.00850428539
v 0.00940119003 -0.0132327054 0.00851143795
v 0.00945256923 -0.0132549976 0.00853980976
v 0.00948535179 -0.0132657264 0.00856412846
v 0.00950573658 -0.0132749055 0.00859345394
v 0.00951360439 -0.0132862304 0.00859190422
v 0.00951145862 -0.0132793163 0.0085992952
v 0.00960956787 -0.0133559678 0.00868596035
v 0.00960503792 -0.0133514379 0.00869370896
v 0.0123299239 -0.0160763238 0.0127737661
v 0.0123242018 -0.0160704826 0.0127796074
v 0.0114928362 -0.0163171266 0.0122194429
v 0.0108511326 -0.0164947484 0.0118045946
v 0.0108566162 -0.016500232 0.0117982765
v 0.01356827 -0.0154969667 0.0134875913
v 0.0142336962 -0.0151988242 0.013857617
v 0.0142277357 -0.0151928638 0.0138628622
v 0.00711892818 -0.0187793945 0.0106146474
v 0.00711368297 -0.0187742685 0.0106215616
v 0.00654243206 -0.0186809276 0.0101230283
v 0.00534199451 -0.018431661 0.00922371346
v 0.00549148296 -0.0184779142 0.00929166275
v 0.00348936294 -0.0180088256 0.00796390969
v 0.00375269626 -0.0180889342 0.00807584721
v 0.00475846504 -0.018318889 0.00876344639
v 0.00482677196 -0.0183374856 0.00880099732
v 0.00530563568 -0.0184246276 0.00919510323
v 0.00536214088 -0.0184516881 0.00919283825
v 0.00542186474 -0.0184644435 0.00923658806
v 0.00269376015 -0.0178145145 0.00746263462
v 0.00351070141 -0.0180301641 0.00792206722
v 0.0036505339 -0.0180653308 0.00800694424
v 0.00221871113 -0.0177012656 0.00715257126
v 0.00223575805 -0.0177057956 0.007162108
v 0.00221489643 -0.0176975701 0.00716103512
v 0.00230406498 -0.0177237962 0.00720025498
v 0.00257633899 -0.0177952026 0.00735486942
v 0.0278419135 0.00609922665 0.0394243141
v 0.022185075 0.000442388232 0.0394243141
v 0.0274667618 0.00647437828 0.0393544574
v 0.0218098042 0.000817539866 0.0393544574
v 0.027117121 0.00682401913 0.0391497751
v 0.0214602826 0.00116718071 0.0391497751
v 0.0268168328 0.00712418812 0.0388239761
v 0.0211599944 0.0014673497 0.0388239761
v 0.0265865204 0.00735461968 0.0383993526
v 0.020929682 0.00169778126 0.0383993526
v 0.0264416811 0.00749945896 0.0379049917
v 0.0207848427 0.00184262055 0.0379049917
v 0.0263923285 0.00754881161 0.0373743911
v 0.0207354901 0.00189197319 0.0373743911
v 0.0264416811 0.00749945896 0.0368437906
v 0.0207848427 0.00184262055 0.0368437906
v 0.0265865204 0.00735461968 0.0363493105
v 0.020929682 0.00169778126 0.0363493105
v 0.0268168328 0.00712418812 0.0359248062
v 0.0211599944 0.0014673497 0.0359248062
v 0.027117121 0.00682401913 0.0355990072
v 0.0214602826 0.00116718071 0.0355990072
v 0.0274667618 0.00647437828 0.0353942056
v 0.0218098042 0.000817539866 0.0353942056
v 0.0278419135 0.00609922665 0.035324349
v 0.022185075 0.000442388232 0.035324349
v 0.0282170651 0.00572407501 0.0353942056
v 0.0225602267 6.72365977e-05 0.0353942056
v 0.0285667059 0.00537443417 0.0355990072
v 0.0229098675 -0.000282404249 0.0355990072
v 0.0288668749 0.00507426518 0.0359248062
v 0.0232100365 -0.00058257324 0.0359248062
v 0.0290971873 0.00484383362 0.0363493105
v 0.0234403489 -0.000813004796 0.0363493105
v 0.0292420266 0.00469911354 0.0368437906
v 0.0235851881 -0.000957844083 0.0368437906
v 0.0292914984 0.00464964169 0.0373743911
v 0.0236345408 -0.00100719673 0.0373743911
v 0.0292420266 0.00469911354 0.0379049917
v 0.0235851881 -0.000957844083 0.0379049917
v 0.0290971873 0.00484383362 0.0383993526
v 0.0234403489 -0.000813004796 0.0383993526
v 0.0288668749 0.00507426518 0.0388239761
v 0.0232100365 -0.00058257324 0.0388239761
v 0.0285667059 0.00537443417 0.0391497751
v 0.0229098675 -0.000282404249 0.0391497751
v 0.0282170651 0.00572407501 0.0393544574
v 0.0225602267 6.72365977e-05 0.0393544574
v 0.0278419135 0.00609922665 0.0146756311
v 0.022185075 0.000442388232 0.0146756311
v 0.0274667618 0.00647437828 0.0146057745
v 0.0218098042 0.000817539866 0.0146057745
v 0.027117121 0.00682401913 0.0144009729
v 0.0214602826 0.00116718071 0.0144009729
v 0.0268168328 0.00712418812 0.0140751739
v 0.0211599944 0.0014673497 0.0140751739
v 0.0265865204 0.00735461968 0.0136506696
v 0.020929682 0.00169778126 0.0136506696
v 0.0264416811 0.00749945896 0.0131561895
v 0.0207848427 0.00184262055 0.0131561895
v 0.0263923285 0.00754881161 0.012625589
v 0.0207354901 0.00189197319 0.012625589
v 0.0264416811 0.00749945896 0.0120951076
v 0.0207848427 0.00184262055 0.0120951076
v 0.0265865204 0.00735461968 0.0116006275
v 0.020929682 0.00169778126 0.0116006275
v 0.0268168328 0.00712418812 0.011176004
v 0.0211599944 0.0014673497 0.011176004
v 0.027117121 0.00682401913 0.0108503242
v 0.0214602826 0.00116718071 0.0108503242
v 0.0274667618 0.00647437828 0.0106455227
v 0.0218098042 0.000817539866 0.0106455227
v 0.0278419135 0.00609922665 0.010575666
v 0.022185075 0.000442388232 0.010575666
v 0.0282170651 0.00572407501 0.0106455227
v 0.0225602267 6.72365977e-05 0.0106455227
v 0.0285667059 0.00537443417 0.0108503242
v 0.0229098675 -0.000282404249 0.0108503242
v 0.0288668749 0.00507426518 0.011176004
v 0.0232100365 -0.00058257324 0.011176004
v 0.0290971873 0.00484383362 0.0116006275
v 0.0234403489 -0.000813004796 0.0116006275
v 0.0292420266 0.00469911354 0.0120951076
v 0.0235851881 -0.000957844083 0.0120951076
v 0.0292914984 0.00464964169 0.012625589
v 0.0236345408 -0.00100719673 0.012625589
v 0.0292420266 0.00469911354 0.0131561895
v 0.0235851881 -0.000957844083 0.0131561895
v 0.0290971873 0.00484383362 0.0136506696
v 0.0234403489 -0.000813004796 0.0136506696
v 0.0288668749 0.00507426518 0.0140751739
v 0.0232100365 -0.00058257324 0.0140751739
v 0.0285667059 0.00537443417 0.0144009729
v 0.0229098675 -0.000282404249 0.0144009729
v 0.0282170651 0.00572407501 0.0146057745
v 0.0225602267 6.72365977e-05 0.0146057745
v -0.00287081028 0.0255194928 0.0114848753
v 0.00207875942 0.0205487038 0.0114697357
v -0.00310672547 0.0252835776 0.0110499998
v 0.00211023067 0.0200665023 0.0110499998
v -0.00325514103 0.0251351621 0.0105434795
v 0.00247489189 0.0201525714 0.0114697357
v 0.00248550152 0.020163181 0.0114848753
v 0.00279306148 0.020470741 0.0118186613
v -0.00256325031 0.0258270528 0.0118186613
v 0.00315116619 0.0208288457 0.0120284696
v -0.00220514561 0.0261851575 0.0120284696
v 0.00353549694 0.0212131764 0.0120999952
v -0.00182081486 0.0265694882 0.0120999952
v 0.00391982769 0.0215975072 0.0120284696
v -0.00143648411 0.026953819 0.0120284696
v 0.0042780516 0.0219556119 0.0118186613
v -0.0010783794 0.0273120429 0.0118186613
v 0.00458549236 0.0222631718 0.0114848753
v -0.000770819437 0.0276194836 0.0114848753
v 0.00482152675 0.0224992062 0.0110499998
v -0.000534785044 0.027855518 0.0110499998
v 0.00496982311 0.0226475026 0.0105434795
v -0.000386488688 0.0280038144 0.0105434795
v 0.00502048706 0.0226981665 0.0100000044
v -0.000335824739 0.0280544783 0.0100000044
v 0.00496982311 0.0226475026 0.0094565292
v -0.000386488688 0.0280038144 0.0094565292
v 0.00482152675 0.0224992062 0.00895000893
v -0.000534785044 0.027855518 0.00895000893
v 0.00458549236 0.0222631718 0.00851513344
v -0.000770819437 0.0276194836 0.00851513344
v 0.0042780516 0.0219556119 0.00818134743
v -0.0010783794 0.0273120429 0.00818134743
v 0.00391982769 0.0215975072 0.00797153908
v -0.00143648411 0.026953819 0.00797153908
v 0.00353549694 0.0212131764 0.00790001351
v -0.00182081486 0.0265694882 0.00790001351
v 0.00315116619 0.0208288457 0.00797153908
v -0.00220514561 0.0261851575 0.00797153908
v 0.00279306148 0.020470741 0.00818134743
v -0.00256325031 0.0258270528 0.00818134743
v 0.00248550152 0.020163181 0.00851513344
v -0.00287081028 0.0255194928 0.00851513344
v 0.00224958633 0.0199272658 0.00895000893
v -0.00310672547 0.0252835776 0.00895000893
v 0.00210117077 0.0197788503 0.0094565292
v -0.00325514103 0.0251351621 0.0094565292
v 0.00205062603 0.0197283055 0.0100000044
v -0.00330568577 0.0250846173 0.0100000044
v 0.00210117077 0.0197788503 0.0105434795
v 0.00217198108 0.0198496606 0.0108313699
f 1 2 3
f 3 2 4
f 3 4 5
f 5 4 6
f 5 6 7
f 7 6 8
f 7 8 9
f 9 8 10
f 9 10 11
f 11 10 12
f 11 12 13
f 13 12 14
f 13 14 15
f 15 14 16
f 15 16 17
f 17 16 18
f 17 18 19
f 19 18 20
f 19 20 21
f 21 20 22
f 21 22 23
f 23 22 24
f 23 24 25
f 25 24 26
f 25 26 27
f 27 26 28
f 27 28 29
f 29 28 30
f 29 30 31
f 31 30 32
f 31 32 33
f 33 32 34
f 33 34 35
f 35 34 36
f 35 36 37
f 37 36 38
f 37 38 39
f 39 38 40
f 39 40 41
f 41 40 42
f 41 42 43
f 43 42 44
f 43 44 45
f 45 44 46
f 45 46 47
f 47 46 48
f 47 48 1
f 1 48 2
f 49 50 51
f 51 50 52
f 51 52 53
f 53 52 54
f 53 54 55
f 55 54 56
f 55 56 57
f 57 56 58
f 57 58 59
f 59 58 60
f 59 60 61
f 61 60 62
f 61 62 63
f 63 62 64
f 63 64 65
f 65 64 66
f 65 66 67
f 67 66 68
f 67 68 69
f 69 68 70
f 69 70 71
f 71 70 72
f 71 72 73
f 73 72 74
f 73 74 75
f 75 74 76
f 75 76 77
f 77 76 78
f 77 78 79
f 79 78 80
f 79 80 81
f 81 80 82
f 81 82 83
f 83 82 84
f 83 84 85
f 85 84 86
f 85 86 87
f 87 86 88
f 87 88 89
f 89 88 90
f 89 90 91
f 91 90 92
f 91 92 93
f 93 92 94
f 93 94 95
f 95 94 96
f 95 96 49
f 49 96 50
f 97 98 99
f 99 98 100
f 99 100 101
f 101 100 102
f 102 100 103
f 102 103 104
f 104 103 105
f 104 105 106
f 106 105 107
f 106 107 108
f 108 107 109
f 108 109 110
f 110 109 111
f 110 111 112
f 112 111 113
f 112 113 114
f 114 113 115
f 114 115 116
f 116 115 117
f 116 117 118
f 118 117 119
f 118 119 120
f 120 119 121
f 120 121 122
f 122 121 123
f 122 123 124
f 124 123 125
f 124 125 126
f 126 125 127
f 126 127 128
f 128 127 129
f 128 129 130
f 130 129 131
f 130 131 132
f 132 131 133
f 132 133 134
f 134 133 135
f 134 135 136
f 136 135 137
f 136 137 138
f 138 137 139
f 138 139 140
f 140 139 141
f 140 141 142
f 142 141 143
f 142 143 144
f 144 143 145
f 144 145 146
f 146 145 147
f 146 147 148
f 148 147 149
f 148 149 150
f 150 149 151
f 150 151 97
f 97 151 152
f 97 152 98
f 153 154 155
f 155 154 156
f 155 156 157
f 157 156 158
f 158 156 159
f 158 159 160
f 160 159 161
f 160 161 162
f 162 161 163
f 162 163 164
f 164 163 165
f 164 165 166
f 166 165 167
f 166 167 168
f 168 167 169
f 168 169 170
f 170 169 171
f 170 171 172
f 172 171 173
f 172 173 174
f 174 173 175
f 174 175 176
f 176 175 177
f 176 177 178
f 178 177 179
f 178 179 180
f 180 179 181
f 180 181 182
f 182 181 183
f 182 183 184
f 184 183 185
f 184 185 186
f 186 185 187
f 186 187 188
f 188 187 189
f 188 189 190
f 190 189 191
f 190 191 192
f 192 191 193
f 192 193 194
f 194 193 195
f 194 195 196
f 196 195 197
f 196 197 198
f 198 197 199
f 198 199 200
f 200 199 201
f 200 201 202
f 202 201 203
f 202 203 204
f 204 203 205
f 204 205 206
f 206 205 207
f 206 207 153
f 153 207 208
f 153 208 154
f 209 210 211
f 211 210 212
f 209 213 210
f 210 213 214
f 210 214 215
f 215 216 210
f 210 216 217
f 210 217 218
f 218 219 210
f 210 219 220
f 210 220 221
f 221 222 210
f 210 222 223
f 210 223 224
f 224 225 210
f 210 225 226
f 210 226 227
f 228 229 230
f 230 231 228
f 228 231 232
f 228 232 233
f 233 234 228
f 228 234 235
f 228 235 236
f 236 237 228
f 228 237 238
f 228 238 239
f 239 240 228
f 228 240 241
f 228 241 229
f 229 241 242
f 229 242 243
f 227 244 210
f 210 244 229
f 210 229 245
f 245 229 243
f 219 218 246
f 246 218 247
f 247 218 217
f 247 217 248
f 219 246 220
f 220 246 249
f 220 249 221
f 221 249 250
f 221 250 222
f 222 250 251
f 222 251 223
f 223 251 252
f 223 252 253
f 254 226 255
f 255 226 225
f 255 225 253
f 253 225 224
f 253 224 223
f 256 257 258
f 258 257 259
f 260 261 262
f 260 262 263
f 263 262 264
f 263 264 265
f 265 264 266
f 265 266 267
f 267 266 268
f 267 268 269
f 269 268 270
f 269 270 271
f 271 270 272
f 271 272 273
f 274 275 276
f 274 276 277
f 277 276 278
f 277 278 279
f 279 278 280
f 279 280 273
f 273 280 281
f 273 281 271
f 275 274 282
f 282 274 283
f 282 283 284
f 284 283 285
f 284 285 286
f 286 285 287
f 286 287 288
f 288 287 289
f 288 289 290
f 290 289 291
f 290 291 292
f 292 291 293
f 292 293 294
f 294 293 295
f 294 295 296
f 295 297 296
f 296 297 258
f 296 258 259
f 261 298 262
f 262 298 299
f 300 301 302
f 302 301 303
f 304 305 306
f 304 306 307
f 307 306 308
f 307 308 309
f 309 308 310
f 309 310 311
f 311 310 312
f 311 312 313
f 313 312 314
f 313 314 315
f 315 314 316
f 315 316 317
f 318 319 320
f 318 320 321
f 321 320 322
f 321 322 323
f 323 322 324
f 323 324 317
f 317 324 325
f 317 325 315
f 319 318 326
f 326 318 327
f 326 327 328
f 328 327 329
f 328 329 330
f 330 329 331
f 330 331 332
f 332 331 333
f 332 333 334
f 334 333 335
f 334 335 336
f 336 335 337
f 336 337 338
f 338 337 339
f 338 339 340
f 339 341 340
f 340 341 301
f 340 301 300
f 342 343 344
f 344 343 345
f 344 345 346
f 347 348 349
f 349 348 350
f 351 352 353
f 353 352 354
f 353 354 355
f 356 357 358
f 358 357 359
f 358 359 360
f 360 359 361
f 360 361 362
f 362 361 363
f 362 363 351
f 351 363 364
f 351 364 352
f 365 366 367
f 367 366 368
f 368 366 369
f 369 366 370
f 369 370 371
f 371 370 372
f 371 372 373
f 373 372 374
f 373 374 375
f 375 374 376
f 375 376 377
f 377 376 378
f 377 378 379
f 380 381 382
f 382 381 383
f 382 383 379
f 379 383 384
f 379 384 377
f 385 386 387
f 387 386 388
f 387 388 389
f 389 388 390
f 389 390 391
f 391 390 392
f 391 392 393
f 393 392 394
f 393 394 395
f 395 394 396
f 395 396 397
f 397 396 398
f 397 398 399
f 399 398 400
f 399 400 401
f 401 400 402
f 401 402 403
f 402 404 403
f 403 404 405
f 403 405 406
f 407 408 409
f 410 411 412
f 412 411 413
f 412 413 409
f 409 413 414
f 409 414 407
f 415 416 417
f 417 416 418
f 417 418 419
f 420 421 422
f 422 421 423
f 422 423 424
f 424 423 425
f 424 425 426
f 426 425 427
f 426 427 415
f 415 427 428
f 415 428 416
f 429 430 431
f 431 430 432
f 433 434 435
f 435 434 436
f 437 438 439
f 439 438 440
f 439 440 441
f 439 441 442
f 442 441 443
f 442 443 444
f 444 443 445
f 444 445 446
f 446 445 447
f 446 447 448
f 449 450 451
f 451 450 452
f 451 452 453
f 453 452 454
f 453 454 455
f 455 454 456
f 457 458 459
f 459 458 460
f 459 460 461
f 462 463 464
f 464 463 465
f 466 467 468
f 468 469 466
f 466 469 470
f 466 470 465
f 465 470 464
f 471 472 473
f 474 475 476
f 476 475 477
f 476 477 478
f 478 477 479
f 478 479 480
f 480 479 481
f 480 481 482
f 482 481 483
f 482 483 484
f 484 483 485
f 485 483 486
f 485 486 472
f 472 486 487
f 472 487 473
f 471 473 488
f 488 473 489
f 488 489 490
f 490 489 491
f 490 491 492
f 492 491 493
f 492 493 494
f 494 493 495
f 494 495 496
f 496 495 497
f 496 497 498
f 497 499 498
f 498 499 500
f 498 500 501
f 501 500 502
f 501 502 503
f 503 502 504
f 503 504 505
f 506 507 508
f 508 507 509
f 508 509 510
f 507 506 511
f 511 506 512
f 511 512 513
f 514 515 516
f 516 515 517
f 516 517 518
f 519 520 521
f 521 520 522
f 521 522 523
f 523 522 524
f 523 524 517
f 517 524 525
f 517 525 518
f 526 527 519
f 519 527 528
f 519 528 520
f 529 530 531
f 531 530 532
f 531 532 526
f 526 532 533
f 526 533 527
f 534 535 536
f 536 535 537
f 536 537 538
f 538 537 539
f 538 539 540
f 540 539 541
f 540 541 542
f 542 541 543
f 542 543 544
f 544 543 545
f 544 545 546
f 546 545 547
f 546 547 548
f 548 547 549
f 548 549 550
f 550 549 551
f 550 551 552
f 552 551 553
f 552 553 554
f 554 553 555
f 554 555 556
f 556 555 557
f 556 557 558
f 558 557 559
f 558 559 560
f 560 559 561
f 560 561 562
f 562 561 563
f 562 563 564
f 564 563 565
f 564 565 566
f 566 565 567
f 566 567 568
f 568 567 569
f 568 569 570
f 570 569 571
f 570 571 572
f 572 571 573
f 572 573 574
f 574 573 575
f 574 575 576
f 576 575 577
f 576 577 578
f 578 577 579
f 578 579 580
f 580 579 581
f 580 581 534
f 534 581 535
f 582 583 584
f 584 583 585
f 584 585 586
f 586 585 587
f 586 587 588
f 588 587 589
f 588 589 590
f 590 589 591
f 590 591 592
f 592 591 593
f 592 593 594
f 594 593 595
f 594 595 596
f 596 595 597
f 596 597 598
f 598 597 599
f 598 599 600
f 600 599 601
f 600 601 602
f 602 601 603
f 602 603 604
f 604 603 605
f 604 605 606
f 606 605 607
f 606 607 608
f 608 607 609
f 608 609 610
f 610 609 611
f 610 611 612
f 612 611 613
f 612 613 614
f 614 613 615
f 614 615 616
f 616 615 617
f 616 617 618
f 618 617 619
f 618 619 620
f 620 619 621
f 620 621 622
f 622 621 623
f 622 623 624
f 624 623 625
f 624 625 626
f 626 625 627
f 626 627 628
f 628 627 629
f 628 629 582
f 582 629 583
f 630 631 632
f 632 631 633
f 632 633 634
f 635 631 636
f 636 631 630
f 636 630 637
f 637 630 638
f 637 638 639
f 639 638 640
f 639 640 641
f 641 640 642
f 641 642 643
f 643 642 644
f 643 644 645
f 645 644 646
f 645 646 647
f 647 646 648
f 647 648 649
f 649 648 650
f 649 650 651
f 651 650 652
f 651 652 653
f 653 652 654
f 653 654 655
f 655 654 656
f 655 656 657
f 657 656 658
f 657 658 659
f 659 658 660
f 659 660 661
f 661 660 662
f 661 662 663
f 663 662 664
f 663 664 665
f 665 664 666
f 665 666 667
f 667 666 668
f 667 668 669
f 669 668 670
f 669 670 671
f 671 670 672
f 671 672 673
f 673 672 674
f 673 674 675
f 675 674 676
f 675 676 677
f 677 676 678
f 677 678 679
f 679 678 634
f 679 634 680
f 680 634 633
