v 0.019867769 0.00108049763 0.00763739544
v 0.0198717029 0.00108455075 0.00762905079
v 0.0199679048 0.00114963902 0.00770760971
v 0.020072809 0.00123368157 0.00780011612
v 0.0200687558 0.00122950924 0.00780834156
v 0.0200226219 0.00118671311 0.00775219399
v 0.0200184495 0.00118265999 0.00776030022
v 0.0199638517 0.0011455859 0.00771583515
v 0.015971771 -0.00166262733 0.00524319607
v 0.0159741552 -0.00166024314 0.00523377854
v 0.015958658 -0.00164748775 0.00524367291
v 0.0159608037 -0.00164486515 0.00523425537
v 0.0159584195 -0.00164736854 0.00524367291
v 0.0159608037 -0.00164474594 0.00523425537
v 0.0159481675 -0.00163067924 0.00524522263
v 0.0159505517 -0.00162829505 0.0052359243
v 0.0159450681 -0.00162567245 0.00524581868
v 0.0159473331 -0.00162293064 0.00523640114
v 0.0159406574 -0.00161458599 0.00524748761
v 0.0159431608 -0.0016122018 0.00523807007
v 0.0159397037 -0.00161196338 0.00524784523
v 0.0159420879 -0.00160945999 0.00523854691
v 0.0159373195 -0.00159837352 0.00525082547
v 0.0159397037 -0.00159587013 0.00524140793
v 0.0159355314 -0.00158824073 0.00525285202
v 0.0159379155 -0.00158573734 0.0052435537
v 0.0159361274 -0.00158037292 0.005255117
v 0.0159385116 -0.00157798873 0.00524569947
v 0.0159402997 -0.00155510055 0.00525201756
v 0.0159379155 -0.00155748474 0.00526143509
v 0.0225006254 0.0055484618 0.0124284168
v 0.022491327 0.00553654088 0.0124082704
v 0.0224950225 0.00554273976 0.0124343773
v 0.022485605 0.00553093804 0.0124143501
v 0.02245771 0.00549541367 0.012354507
v 0.0224627168 0.00550006283 0.0123469968
v 0.0224463851 0.00546680344 0.0123174329
v 0.022451988 0.00547240628 0.0123113533
v 0.0224223049 0.00540517224 0.0122375627
v 0.0224276693 0.00540958298 0.0122301717
v 0.0224215896 0.00540004624 0.0122321983
v 0.0224270732 0.00540564908 0.0122259994
v 0.0224158676 0.00536034955 0.012190475
v 0.0224213512 0.00536476029 0.0121832033
v 0.0224168212 0.00532089127 0.0121551891
v 0.0224236162 0.00532601727 0.0121498247
v 0.0224275501 0.00525878323 0.012091889
v 0.0224178941 0.00528083695 0.0121194263
v 0.0224313648 0.0052429284 0.0120810409
v 0.0224281461 0.00523672951 0.0120887895
v 0.0224424512 0.00519667519 0.012049212
v 0.0224437625 0.00516949547 0.0120420595
v 0.0224596174 0.00515423668 0.0120264431
v 0.0224517495 0.00514875306 0.0120306154
v 0.0224630744 0.00511942757 0.0120144029
v 0.0224877508 0.00508461846 0.0119892498
v 0.0224956186 0.00505958451 0.0119898458
v 0.0224995525 0.00506494893 0.0119820972
v 0.0225238712 0.00500725163 0.0119685074
v 0.0225423486 0.00499366177 0.0119565864
v 0.0225509317 0.00496874703 0.0119581361
v 0.0225574882 0.0049748267 0.0119533678
v 0.0225580842 0.00495849503 0.0119553943
v 0.0226224572 0.00489471806 0.0119397779
v 0.0226182849 0.00489018811 0.0119482418
v 0.0226305635 0.00488470448 0.011938109
v 0.0226548822 0.00484870328 0.011943831
v 0.0226997049 0.00481782807 0.0119401355
v 0.022694102 0.00481234444 0.0119463344
f 1 2 3
f 4 5 6
f 6 5 7
f 6 7 3
f 3 7 8
f 3 8 1
f 9 10 11
f 11 10 12
f 11 12 13
f 13 12 14
f 13 14 15
f 15 14 16
f 15 16 17
f 17 16 18
f 17 18 19
f 19 18 20
f 19 20 21
f 21 20 22
f 21 22 23
f 23 22 24
f 23 24 25
f 25 24 26
f 25 26 27
f 26 28 27
f 27 28 29
f 27 29 30
f 31 32 33
f 33 32 34
f 34 32 35
f 35 32 36
f 35 36 37
f 37 36 38
f 37 38 39
f 39 38 40
f 39 40 41
f 41 40 42
f 41 42 43
f 43 42 44
f 43 44 45
f 44 46 45
f 45 46 47
f 45 47 48
f 48 47 49
f 48 49 50
f 50 49 51
f 50 51 52
f 52 51 53
f 52 53 54
f 54 53 55
f 55 53 56
f 55 56 57
f 57 56 58
f 57 58 59
f 59 58 60
f 59 60 61
f 61 60 62
f 61 62 63
f 63 62 64
f 63 64 65
f 65 64 66
f 65 66 67
f 67 66 68
f 67 68 69
