v -0.0104688315 0.0149464487 0.0102715631
v -0.0098900704 0.0155336737 0.0102657218
v -0.00951110407 0.0151547669 0.00974000888
v -0.00948535486 0.0132657169 0.00856412844
v -0.00945257231 0.0132549881 0.00853980975
v -0.0108488707 0.0118566035 0.00854183631
v -0.00823961779 0.0212410568 0.0139120956
v -0.00825618788 0.0215597032 0.0143029829
v -0.00777935072 0.0210828661 0.013237371
v -0.00725816771 0.0205616831 0.0122141977
v -0.010921946 0.0168978452 0.0122141977
v -0.0112131743 0.0171930074 0.0127737661
v -0.0112152009 0.0171910404 0.0127737661
v -0.0112109093 0.0171961068 0.0127746005
v -0.00708579107 0.0203893064 0.0119024654
v -0.00895809218 0.0177152037 0.0112211843
v -0.0103441386 0.0163200377 0.0112139125
v -0.00833331629 0.0170904278 0.0102657218
v -0.00844334646 0.0144098281 0.00862182574
v -0.00844334646 0.0144100069 0.00862194495
v -0.00698231741 0.0157254218 0.00853969054
v -0.0069988875 0.0157459258 0.00856055216
v -0.00849484488 0.0144706844 0.00868596034
v -0.0071041493 0.0158613204 0.00868596034
v -0.00773440882 0.0164915203 0.00945152239
v -0.00912498518 0.0151008843 0.00945152239
v -0.00972389265 0.0156997918 0.0102657218
v -0.0108181147 0.0118344902 0.00851251082
v -0.00877820536 0.0115322946 0.00732709365
v -0.00916456267 0.0114642857 0.00747527079
v -0.00903915449 0.0132274507 0.00829709963
v -0.00906657263 0.0132233976 0.00830973582
v -0.00918602034 0.013205695 0.00836492972
v -0.00941573664 0.0114200591 0.00757147269
v -0.00962924048 0.0114329933 0.00768221812
v -0.00928758665 0.0132116555 0.00842393832
v -0.00999318644 0.0114549278 0.00787092642
v -0.00932692572 0.0132139205 0.0084468265
v -0.0100752024 0.0114820479 0.00792755084
v -0.00940465017 0.0132393121 0.00850428538
v -0.0104814677 0.0116163968 0.00820793109
v -0.0105427413 0.0116366624 0.00825013117
v -0.0091599135 0.0132095693 0.00835288958
v -0.00869618937 0.0115671038 0.0073059936
v -0.00893448874 0.0132639884 0.00826038317
v -0.00824069067 0.0117602824 0.00718857245
v -0.00889288469 0.0132784723 0.00824583964
v -0.00815831705 0.0117952107 0.0071673532
v -0.00880800768 0.0133262752 0.0082260509
v -0.00781475588 0.0120376228 0.00712312655
v -0.00875352904 0.013356912 0.00821341471
v -0.00762902781 0.0121686934 0.00709916548
v -0.00869034811 0.0134093045 0.00820769267
v -0.00746273085 0.0123239039 0.00709439711
v -0.00861262365 0.0134737967 0.00820065932
v -0.00744842573 0.0123383879 0.00709439711
v -0.00715612456 0.0126777767 0.00711490111
v -0.00720559641 0.0126132249 0.0071083446
v -0.00852655455 0.0135719656 0.00820697741
v -0.0072568564 0.0125499247 0.00710309939
v -0.00726591631 0.0125390171 0.00710226493
v -0.00728296324 0.0125186919 0.00710095362
v -0.00733660742 0.0124572991 0.00709749655
v -0.00739180132 0.012397158 0.00709535079
v -0.00713204428 0.0127104997 0.00711871581
v -0.00851522967 0.0135891317 0.00821007685
v -0.00708507582 0.01277678 0.00712717967
v -0.00845479056 0.0136803864 0.00822652773
v -0.00691615626 0.0130519151 0.00717367129
v -0.00693558737 0.0130167483 0.00716675715
v -0.00697599932 0.0129470109 0.00715388255
v -0.00701819941 0.0128781675 0.00714220004
v -0.00704001471 0.0128441333 0.00713683562
v -0.00697289988 0.0129522561 0.00715483622
v -0.00687860533 0.0131229042 0.00718845324
v -0.00843881651 0.0137138246 0.00823582606
v -0.00684308096 0.0131946086 0.0072045465
v -0.00675200506 0.0134039997 0.00725735621
v -0.00677787348 0.0133398651 0.00724019007
v -0.00839971586 0.013795483 0.00825871424
v -0.00679337069 0.0133033275 0.00723077254
v -0.00682603403 0.0132306694 0.00721301036
v -0.00670777842 0.0135244011 0.00729168849
v -0.00672077223 0.013487327 0.00728072123
v -0.00674830958 0.0134133576 0.00725985961
v -0.00668345972 0.0135989665 0.00731433825
v -0.00838517233 0.0138426303 0.0082761188
v -0.00666116759 0.0136737107 0.00733818011
v -0.00836288019 0.0139142751 0.00830282168
v -0.00663172289 0.0137863039 0.00737620787
v -0.00665079638 0.013711202 0.00735057788
v -0.00660692736 0.0138990759 0.00741673903
v -0.00661169573 0.0138756513 0.00740815596
v -0.00661467596 0.0138614653 0.00740291075
v -0.00659309908 0.0139743565 0.00744523005
v -0.00835191294 0.013974893 0.00832964377
v -0.00658141657 0.0140494584 0.00747479396
v -0.00657640978 0.0140870093 0.00749005274
v -0.00835048243 0.0139826416 0.00833310084
v -0.00656782671 0.0141619324 0.00752128558
v -0.00655590578 0.0143479585 0.00760401682
v -0.00834893271 0.0140653728 0.0083774467
v -0.00655912443 0.0142738103 0.00757016139
v -0.00656150862 0.014236617 0.0075535913
v -0.00834738299 0.0141482233 0.00842179255
v -0.00655519053 0.0144584059 0.00765682654
v -0.00655495211 0.014421749 0.00763894515
v -0.00696646258 0.0157058715 0.0085199018
v -0.00839411303 0.0143134474 0.00853980975
v -0.00840937182 0.0143552898 0.00857175784
v -0.00693511053 0.0156646251 0.00847948985
v -0.00690483137 0.0156223654 0.00843931632
v -0.00687943979 0.0155843972 0.00840438799
v -0.00839137121 0.0143058776 0.0085340877
v -0.00668787047 0.0152005433 0.00809635119
v -0.00835775419 0.0142136096 0.00846375422
v -0.00658737703 0.0148172854 0.00784911112
v -0.00835441633 0.0141926288 0.00845028357
v -0.00658535048 0.0147986888 0.00783897833
v -0.00655733629 0.0145314216 0.00769330458
v -0.00687574431 0.0155789732 0.0083993812
v -0.00684784933 0.0155345677 0.00835980372
v -0.00669383093 0.0152128815 0.00810612635
v -0.0108386187 0.0145850657 0.0102657218
v -0.0102397112 0.0139860987 0.00945152239
v -0.0116304068 0.0125955223 0.00945152239
v -0.0110001473 0.0119653224 0.00868596034
v -0.00960957094 0.0133559584 0.00868596034
v -0.00951360747 0.0132862805 0.00859190421
v -0.0114928393 0.0163171767 0.0122194429
v -0.0108566193 0.0165002822 0.0117982765
v -0.0103865771 0.0160302399 0.0110153099
v -0.0134273677 0.0143924831 0.0122141977
v -0.0110694079 0.0148157953 0.0106048723
v -0.0128495602 0.0138146757 0.0112139125
v -0.0122293143 0.0131944298 0.0102657218
v -0.0123299269 0.0160763143 0.0127737661
v -0.0138443617 0.0148095368 0.0130223175
v -0.0142336993 0.0151988744 0.0138576169
v -0.0064175038 0.0238665222 0.0149042745
v -0.00642370268 0.0238727211 0.0148995061
v -0.00664185568 0.0236022948 0.0148531337
v -0.00664805456 0.0236084937 0.0148482461
v -0.00193046614 0.0207696437 0.00854827361
v -0.00193487688 0.0207740544 0.00854040579
v -0.0019916205 0.0203477024 0.00834907488
v -0.00199591204 0.0203520535 0.00834108786
v -0.0068128018 0.0246946691 0.0166492601
v -0.0068063645 0.0246881722 0.0166533132
v -0.00679849669 0.0247101663 0.0166512866
v -0.00679205938 0.0247036694 0.0166553398
v -0.00441979452 0.0224332689 0.0113843818
v -0.00442515894 0.0224386333 0.0113779445
v -0.0045028834 0.0223801612 0.0114092966
v -0.00450824782 0.0223855852 0.0114028593
v -0.0046337752 0.0223018407 0.0114377876
v -0.00462841078 0.0222964167 0.0114442249
v -0.00457512423 0.0223414778 0.0114218135
v -0.0045696406 0.0223360537 0.0114282508
v -0.00438415095 0.0232233285 0.0120369335
v -0.00438975378 0.0232289313 0.0120307346
v -0.00495671316 0.0221729754 0.011617436
v -0.00496219679 0.0221784591 0.0116111179
v -0.00445019289 0.0221098541 0.0111447711
v -0.00445555731 0.0221151589 0.0111382146
v -0.00424431845 0.022233951 0.0110793252
v -0.00424968287 0.0222392558 0.0110726495
v -0.00416683241 0.0221677302 0.0109503408
v -0.00420486017 0.0220582365 0.0108943124
v -0.0041615872 0.022162485 0.0109570165
v -0.00419961497 0.0220529913 0.0109009881
f 1 2 3
f 4 5 6
f 7 8 9
f 10 11 12
f 12 11 13
f 10 12 9
f 9 12 14
f 9 14 7
f 10 15 11
f 11 15 16
f 11 16 17
f 17 16 18
f 19 20 21
f 21 20 22
f 22 20 23
f 22 23 24
f 24 23 25
f 25 23 26
f 25 26 18
f 18 26 27
f 18 27 17
f 6 5 28
f 29 30 31
f 31 30 32
f 33 34 35
f 33 35 36
f 36 35 37
f 36 37 38
f 38 37 39
f 38 39 40
f 40 39 41
f 40 41 5
f 5 41 42
f 5 42 28
f 34 33 30
f 30 33 43
f 30 43 32
f 29 31 44
f 44 31 45
f 44 45 46
f 46 45 47
f 46 47 48
f 48 47 49
f 48 49 50
f 50 49 51
f 50 51 52
f 52 51 53
f 52 53 54
f 54 53 55
f 54 55 56
f 57 58 59
f 59 58 60
f 59 60 61
f 61 62 59
f 59 62 63
f 59 63 55
f 55 63 64
f 55 64 56
f 57 59 65
f 65 59 66
f 65 66 67
f 68 69 70
f 71 72 66
f 66 72 73
f 66 73 67
f 68 70 66
f 66 70 74
f 66 74 71
f 69 68 75
f 75 68 76
f 75 76 77
f 78 79 80
f 80 79 81
f 80 81 76
f 76 81 82
f 76 82 77
f 83 84 80
f 80 84 85
f 80 85 78
f 83 80 86
f 86 80 87
f 86 87 88
f 89 90 87
f 87 90 91
f 87 91 88
f 92 93 89
f 89 93 94
f 89 94 90
f 92 89 95
f 95 89 96
f 95 96 97
f 97 96 98
f 98 96 99
f 98 99 100
f 102 101 103
f 102 103 99
f 99 103 104
f 99 104 100
f 105 106 102
f 102 106 107
f 102 107 101
f 108 109 21
f 21 109 110
f 21 110 19
f 108 111 109
f 109 111 112
f 109 112 113
f 114 115 116
f 116 115 117
f 116 117 118
f 118 117 119
f 118 119 105
f 105 119 120
f 105 120 106
f 113 121 109
f 109 121 122
f 109 122 114
f 114 122 123
f 114 123 115
f 124 125 126
f 126 125 127
f 127 125 128
f 127 128 6
f 6 128 129
f 6 129 4
f 130 131 132
f 133 134 135
f 135 134 124
f 135 124 136
f 136 124 126
f 2 1 132
f 132 1 134
f 132 134 130
f 130 134 133
f 130 133 137
f 137 133 138
f 137 138 139
f 140 141 142
f 142 141 143
f 144 145 146
f 146 145 147
f 148 149 150
f 150 149 151
f 152 153 154
f 154 153 155
f 156 157 158
f 158 157 159
f 160 161 162
f 162 161 163
f 164 165 166
f 166 165 167
f 168 169 170
f 170 169 171
