v 0.0122129795 0.0040504958 0.0143549581
v 0.0109126446 0.00535083073 0.0140396495
v 0.0102530596 0.00601041573 0.0149999996
v 0.00959335541 0.00667000073 0.0140396495
v 0.00902520393 0.00723827141 0.0151518722
v 0.00829313968 0.00797033566 0.0143549581
v 0.00783454155 0.00842881459 0.0156030794
v 0.00704919075 0.00921428459 0.0149765154
v 0.0067175505 0.00954592484 0.0163397928
v 0.0058975098 0.0103659655 0.0158864399
v 0.00570784782 0.0105556275 0.0173396011
v 0.00487099861 0.0113924767 0.0170585056
v 0.00483630871 0.0114271666 0.0185721059
v 0.00399945949 0.0122640158 0.0184589763
v 0.00412927841 0.0121340777 0.0199999948
v 0.00330768799 0.0129557874 0.0200477977
v 0.00360845302 0.0126550223 0.0215797563
v 0.00281583046 0.0134476449 0.021778955
v 0.00328944897 0.0129740264 0.0232634683
v 0.00253783439 0.0137256409 0.0236028572
v 0.00318192219 0.0130814339 0.02499999
v 0.00248192524 0.0137815501 0.0254668136
v 0.00328944897 0.0129740264 0.0267365118
v 0.00264941429 0.0136140611 0.0273174186
v 0.00360845302 0.0126550223 0.0284202238
v 0.0030357716 0.0132277037 0.0291013857
v 0.00412927841 0.0121340777 0.0299999853
v 0.00362967228 0.0126338031 0.0307673355
v 0.00483630871 0.0114271666 0.0314278741
v 0.00441418861 0.0118492867 0.0322674652
v 0.00570784782 0.0105556275 0.0326604982
v 0.00536667084 0.0108968045 0.0335583826
v 0.0067175505 0.00954592484 0.0336603065
v 0.00645970081 0.00980377453 0.0346031328
v 0.00783454155 0.00842881459 0.0343969007
v 0.00766180729 0.00860166806 0.0353716751
v 0.00902520393 0.00723827141 0.0348481079
v 0.00893853878 0.00732493656 0.0358417173
v 0.0102530596 0.00601041573 0.0349999805
v 0.0102530596 0.00601041573 0.0360000272
v 0.0114809153 0.00478256005 0.0348481079
v 0.0115675805 0.00469589489 0.0358417173
v 0.0126714585 0.00359201687 0.0343969007
v 0.0128443119 0.0034191634 0.0353716751
v 0.0137885687 0.00247490662 0.0336603065
v 0.0140464184 0.00221705693 0.0346031328
v 0.0147982714 0.00146520394 0.0326604982
v 0.0151394484 0.00112402695 0.0335583826
v 0.0156698105 0.00059366482 0.0314278741
v 0.0160919306 0.000171544726 0.0322674652
v 0.0163767216 -0.000113365476 0.0299999853
v 0.016876447 -0.000612971608 0.0307673355
v 0.0168976662 -0.000634190862 0.0284202238
v 0.0174703476 -0.00120687229 0.0291013857
v 0.0172166703 -0.000953194921 0.0267365118
v 0.0178565857 -0.0015932296 0.0273174186
v 0.0173240778 -0.00106060249 0.02499999
v 0.018024194 -0.00176071865 0.0254668136
v 0.0172166703 -0.000953194921 0.0232634683
v 0.0179681656 -0.00170480949 0.0236028572
v 0.0168976662 -0.000634190862 0.0215797563
v 0.0176902888 -0.00142681343 0.021778955
v 0.0163767216 -0.000113365476 0.0199999948
v 0.0171984312 -0.0009349559 0.0200477977
v 0.0156698105 0.00059366482 0.0185721059
v 0.0165066597 -0.000243184392 0.0184589763
v 0.0147982714 0.00146520394 0.0173396011
v 0.0156351206 0.000628354724 0.0170585056
v 0.0137885687 0.00247490662 0.0163397928
v 0.0146086094 0.00165486592 0.0158864399
v 0.0126714585 0.00359201687 0.0156030794
v 0.0134569285 0.00280654686 0.0149765154
v 0.0114809153 0.00478256005 0.0151518722
v 0.00919233536 0.00494969147 0.0349999805
v 0.0104203102 0.00372183579 0.0348481079
v 0.0116108534 0.00253129261 0.0343969007
v 0.0127279637 0.00141418236 0.0336603065
v 0.0137375471 0.000404598887 0.0326604982
v 0.0146090863 -0.000467059438 0.0314278741
v 0.0153161166 -0.00117397053 0.0299999853
v 0.0158370612 -0.00169491512 0.0284202238
v 0.0161560652 -0.00201391918 0.0267365118
v 0.0162634728 -0.00212132675 0.02499999
v 0.0161560652 -0.00201391918 0.0232634683
v 0.0158370612 -0.00169491512 0.0215797563
v 0.0153161166 -0.00117397053 0.0199999948
v 0.0146090863 -0.000467059438 0.0185721059
v 0.0137375471 0.000404598887 0.0173396011
v 0.0127279637 0.00141418236 0.0163397928
v 0.0116108534 0.00253129261 0.0156030794
v 0.0104203102 0.00372183579 0.0151518722
v 0.00919233536 0.00494969147 0.0149999996
v 0.00796447967 0.00617766636 0.0151518722
v 0.0067739365 0.00736820954 0.0156030794
v 0.00565682625 0.00848531979 0.0163397928
v 0.00464724277 0.00949490326 0.0173396011
v 0.00377558445 0.0103664424 0.0185721059
v 0.00306867336 0.0110734727 0.0199999948
v 0.00254772877 0.0115944173 0.0215797563
v 0.00222872471 0.0119134213 0.0232634683
v 0.00212131714 0.0120208289 0.02499999
v 0.00222872471 0.0119134213 0.0267365118
v 0.00254772877 0.0115944173 0.0284202238
v 0.00306867336 0.0110734727 0.0299999853
v 0.00377558445 0.0103664424 0.0314278741
v 0.00464724277 0.00949490326 0.0326604982
v 0.00565682625 0.00848531979 0.0336603065
v 0.0067739365 0.00736820954 0.0343969007
v 0.00796447967 0.00617766636 0.0348481079
v 0.00723241543 0.00690973061 0.0143549581
v 0.00853275036 0.00560939568 0.0140396495
v 0.00985203956 0.00429010647 0.0140396495
v 0.0111523745 0.00298977154 0.0143549581
v 0.0123962042 0.00174594181 0.0149765154
v 0.0135480044 0.000594141658 0.0158864399
v 0.0145743964 -0.000432250325 0.0170585056
v 0.0154460547 -0.00130390865 0.0184589763
v 0.016137707 -0.00199556095 0.0200477977
v 0.0166295645 -0.00248753769 0.021778955
v 0.0169075606 -0.00276541454 0.0236028572
v 0.0169635889 -0.00282144291 0.0254668136
v 0.0167959807 -0.00265383465 0.0273174186
v 0.0164096234 -0.00226747734 0.0291013857
v 0.0158157227 -0.00167357666 0.0307673355
v 0.0150312064 -0.000889060323 0.0322674652
v 0.0140788433 6.33026912e-05 0.0335583826
v 0.0129858134 0.00115633267 0.0346031328
v 0.0117835877 0.00235855835 0.0353716751
v 0.0105068562 0.00363517063 0.0358417173
v 0.00919233536 0.00494969147 0.0360000272
v 0.00787781452 0.00626421231 0.0358417173
v 0.00660120224 0.0075409438 0.0353716751
v 0.00539897655 0.00874316948 0.0346031328
v 0.00430594658 0.00983619946 0.0335583826
v 0.00335358356 0.0107885625 0.0322674652
v 0.00256906723 0.0115730788 0.0307673355
v 0.00197504734 0.0121669795 0.0291013857
v 0.00158880924 0.0125533368 0.0273174186
v 0.00142120098 0.0127209451 0.0254668136
v 0.00147722935 0.0126649167 0.0236028572
v 0.0017551062 0.0123869206 0.021778955
v 0.00224708294 0.0118950631 0.0200477977
v 0.00293873524 0.0112034108 0.0184589763
v 0.00381039356 0.0103317525 0.0170585056
v 0.00483678554 0.00930536049 0.0158864399
v 0.0059885857 0.00815356034 0.0149765154
v 0.00494979595 0.000707152064 0.0360000272
v 0.00626431679 -0.000607368772 0.0358417173
v 0.00754092907 -0.00188410026 0.0353716751
v 0.00874315475 -0.00308632595 0.0346031328
v 0.00983618473 -0.00417935592 0.0335583826
v 0.010788667 -0.00513171894 0.0322674652
v 0.0115730641 -0.00591623527 0.0307673355
v 0.012167084 -0.00651013595 0.0291013857
v 0.0125533221 -0.00689649326 0.0273174186
v 0.0127209303 -0.00706410152 0.0254668136
v 0.012664902 -0.00700807316 0.0236028572
v 0.0123870251 -0.00673007709 0.021778955
v 0.0118950484 -0.00623821956 0.0200477977
v 0.0112033961 -0.00554656727 0.0184589763
v 0.0103317377 -0.00467490894 0.0170585056
v 0.00930534576 -0.00364851696 0.0158864399
v 0.00815354561 -0.0024967168 0.0149765154
v 0.00690971588 -0.00125276787 0.0143549581
v 0.00560938095 4.74478557e-05 0.0140396495
v 0.00429009174 0.00136673706 0.0140396495
v 0.00298987602 0.00266707199 0.0143549581
v 0.00174592708 0.00391090172 0.0149765154
v 0.000594126928 0.00506270188 0.0158864399
v -0.000432265055 0.00608909386 0.0170585056
v -0.00130392338 0.00696075218 0.0184589763
v -0.00199557568 0.00765240448 0.0200477977
v -0.00248743321 0.00814438122 0.021778955
v -0.00276542927 0.00842225807 0.0236028572
v -0.00282145764 0.00847828644 0.0254668136
v -0.00265384937 0.00831067818 0.0273174186
v -0.00226749207 0.00792444008 0.0291013857
v -0.00167359139 0.00733042019 0.0307673355
v -0.000889075052 0.00654602307 0.0322674652
v 6.32879619e-05 0.00559354084 0.0335583826
v 0.00115631794 0.00450051087 0.0346031328
v 0.00235854362 0.00329828518 0.0353716751
v 0.00363527511 0.0020216729 0.0358417173
v 0.00511370872 -0.022790191 0.0123084922
v 0.00529609894 -0.0233230565 0.0130044361
v 0.00507127022 -0.0228162978 0.0122933527
v 0.0050710318 -0.022816417 0.0122933527
v 0.00512300705 -0.022784469 0.0123119493
v 0.00513886188 -0.0227769588 0.0123195787
v 0.00515471672 -0.0227714751 0.0123294731
v 0.00519143318 -0.0227590774 0.0123521228
v 0.0051956055 -0.0227582429 0.0123553415
v 0.0052121756 -0.0227552627 0.0123679777
v 0.00523375248 -0.0227550243 0.012388124
v 0.00526117061 -0.0227547858 0.0124136348
v 0.00527070736 -0.022756574 0.0124243637
v 0.00530110573 -0.0227684949 0.0124645372
v 0.00545703148 -0.0231076453 0.0129492422
v 0.00527738308 -0.0227577661 0.0124318739
v 0.00545977329 -0.0229258512 0.0127707859
v 0.00547085975 -0.0229467128 0.0128022571
v 0.00547324394 -0.0229645942 0.0128224035
v 0.00543986534 -0.0228942607 0.0127200027
v 0.00544785236 -0.0229032014 0.0127364536
v 0.00533567642 -0.0227900718 0.0125181814
v 0.00533186172 -0.0227868531 0.0125113865
v 0.00547860836 -0.0230034564 0.0128662725
v 0.00547825073 -0.0230082248 0.0128708025
v 0.00547682022 -0.0230300401 0.0128911873
v 0.00547133659 -0.0230531667 0.0129089494
v 0.00531970238 -0.0227767203 0.012490048
v 0.00546096538 -0.0230973933 0.0129429241
v 0.00544975971 -0.023126242 0.0129608055
v 0.00543068622 -0.0231618856 0.0129774948
v 0.00541554664 -0.0231902574 0.0129908462
v 0.00539861893 -0.0232124303 0.0129963298
v 0.00536595558 -0.0232557033 0.0130069395
v 0.00535939907 -0.0232630943 0.0130077739
v 0.00534545158 -0.0232779954 0.0130088468
v 0.00532029842 -0.0233010028 0.0130065818
v 0.00505899166 -0.0228254769 0.0122904916
v 0.00528417801 -0.0233322356 0.0130015751
v 0.00528393959 -0.0233323548 0.0130015751
v 0.00524197792 -0.0233589385 0.0129859586
v 0.0052327988 -0.0233647798 0.0129825016
v 0.00521706318 -0.0233725284 0.0129745145
v 0.00520144676 -0.0233781312 0.0129643818
v 0.00516532635 -0.0233912442 0.0129411359
v 0.00516127323 -0.0233920787 0.0129377981
v 0.00514506077 -0.0233954166 0.0129249235
v 0.00512384151 -0.0233960126 0.0129043003
v 0.00509701942 -0.0233968471 0.0128781934
v 0.0050877211 -0.0233952974 0.0128673454
v 0.00508116459 -0.0233941053 0.0128595968
v 0.00505791878 -0.0233840917 0.0128264566
v 0.00503979896 -0.0233761047 0.012800469
v 0.00502787803 -0.0233662103 0.0127790113
v 0.00503479217 -0.0228475307 0.0122884651
v 0.00502406334 -0.0233631108 0.0127720972
v 0.00492035126 -0.0232593988 0.012569799
v 0.00491224502 -0.0232503389 0.0125534673
v 0.00488578056 -0.0231879924 0.0124685903
v 0.00492666935 -0.0230846379 0.0124093433
v 0.00488852238 -0.0232061122 0.0124883791
v 0.00489984726 -0.0232273315 0.0125194927
v 0.0048798201 -0.0231484149 0.0124253173
v 0.00488005852 -0.0231435273 0.0124209066
v 0.0048811314 -0.0231213544 0.0124008794
v 0.00488613819 -0.023097751 0.0123834749
v 0.00489579414 -0.0230528091 0.0123503347
v 0.00489960884 -0.0230424379 0.0123441358
v 0.00490652298 -0.0230234836 0.0123330494
v 0.00492237781 -0.022992966 0.0123192211
v 0.00494002079 -0.0229587529 0.0123038431
v 0.00495277618 -0.0229415868 0.0122996708
v 0.00498913502 -0.0228928302 0.0122881075
v 0.00499569153 -0.0228854392 0.012287273
v 0.0050095198 -0.0228704189 0.0122863193
v 0.00565789913 -0.0237851117 0.013888373
v 0.0056575415 -0.0237852309 0.0138878961
v 0.00566350197 -0.0237913106 0.0138827701
v 0.00562499737 -0.0238006089 0.0138685842
v 0.00562118267 -0.0238039468 0.0138679882
v 0.00562714313 -0.0238097881 0.0138625045
v 0.00560950016 -0.0238139604 0.0138662
v 0.00561557983 -0.0238200401 0.0138609548
v 0.0056549189 -0.0237935756 0.0138756176
v 0.0056292889 -0.0238079999 0.0138628622
v 0.00563358043 -0.0238047813 0.0138640543
v 0.00563083862 -0.0237967942 0.0138708492
v 0.00563679909 -0.0238027547 0.0138654848
v 0.00563691829 -0.0237928603 0.0138732334
v 0.00564585899 -0.0237972711 0.0138695379
v 0.00564001774 -0.0237911914 0.0138749023
v 0.00564609741 -0.0237971519 0.0138696571
v 0.00564144825 -0.0237904761 0.0138757368
v 0.00565336918 -0.0237939332 0.0138743063
v 0.00564895843 -0.0237877343 0.013880982
v 0.00565289234 -0.0237861846 0.013883843
v 0.00566445564 -0.0237910722 0.0138834854
v 0.00566719745 -0.0237907146 0.0138862272
v 0.00566612457 -0.0237849925 0.0138975521
v 0.00567220424 -0.023790953 0.0138921877
v 0.0056716082 -0.0237848733 0.0139036317
v 0.00567816471 -0.0237911914 0.0138993402
v 0.00567220424 -0.0237849925 0.0139044662
v 0.00567566131 -0.0237857078 0.0139091154
v 0.00568007206 -0.0237913106 0.0139016052
v 0.00568400596 -0.0237922643 0.0139070888
v 0.0056844828 -0.0237899993 0.0139240165
v 0.00569068168 -0.0237957214 0.0139187713
v 0.00569747661 -0.0237963174 0.0139460703
v 0.00570391392 -0.0238027547 0.0139417787
v 0.00570415233 -0.0238021587 0.0139603754
v 0.00571023201 -0.0238081191 0.0139551302
v 0.00571190094 -0.0238096688 0.0139588256
v 0.00570594047 -0.0238035892 0.0139640709
v 0.00492595409 -0.0232651208 0.0125639578
v 0.00490580772 -0.0230480407 0.0123386522
v 0.004904258 -0.0232340072 0.0125132938
v 0.00490151619 -0.0232300733 0.0125068565
v 0.00489484047 -0.0232135032 0.0124845644
v 0.00489150261 -0.0231935952 0.0124626299
v 0.00488554214 -0.0231568788 0.0124219795
v 0.00488601898 -0.023149011 0.0124150653
v 0.00488828396 -0.0231149171 0.0123849054
v 0.00489066814 -0.0231037114 0.01237668
v 0.0048978207 -0.023070452 0.0123521228
v 0.00491415237 -0.0230245565 0.0123244663
v 0.00492714618 -0.0229985688 0.0123123069
v 0.00493739818 -0.022978184 0.0123028894
v 0.00495873665 -0.0229471896 0.0122939487
v 0.00498186325 -0.0229136918 0.0122842928
v 0.00499473785 -0.022898433 0.0122820278
v -0.00195909764 -0.0162677739 0.00523234802
v -0.00173093106 -0.0166110967 0.00538255173
v -0.00204707409 -0.0162724231 0.00521124798
v -0.00213469292 -0.0167045568 0.00529993969
v -0.00218464161 -0.01628947 0.00518108803
v -0.00250126148 -0.016337869 0.00511540371
v -0.00167609478 -0.0159946654 0.00523497063
v -0.00168181683 -0.0160020564 0.00523532826
v -0.00168968464 -0.0160174344 0.00523723561
v -0.00169111515 -0.0160201762 0.00523759323
v -0.00169755245 -0.0160392497 0.00524081188
v -0.00170208241 -0.0160688136 0.00524724919
v -0.00170184399 -0.0160732244 0.00524844128
v -0.00169981743 -0.0161061261 0.00525738198
v -0.00169922138 -0.0161148284 0.00525976616
v -0.0016955259 -0.0161302064 0.00526477295
v -0.00125790859 -0.0175812219 0.00580502945
v -0.00152469898 -0.0173144315 0.00564147431
v -0.000854742777 -0.0170239185 0.0057568689
v -0.00131632115 -0.0170257066 0.00561763245
v -0.00161231781 -0.0162664626 0.00532211262
v -0.00166906143 -0.0161927913 0.00528789955
v -0.00168598915 -0.0161528562 0.0052731176
v -0.000469577562 -0.0164908145 0.00571133095
v -0.00067473675 -0.0167742942 0.00573541123
v -0.00120712544 -0.0157532666 0.00529374081
v -0.00143302704 -0.0160160039 0.00530339676
v -0.00145484234 -0.0159957383 0.0052923103
v -0.00148547913 -0.0159747575 0.00527883965
v -0.00136030937 -0.0156253551 0.00522126156
v -0.00151420857 -0.0159552072 0.00526632267
v -0.00152124191 -0.0159525846 0.00526381928
v -0.00144935871 -0.0155787442 0.00518740612
v -0.00155175949 -0.0159414981 0.00525320965
v -0.00155509735 -0.015940306 0.00525201756
v -0.00150240685 -0.0155510877 0.00516714054
v -0.00157798554 -0.0159385179 0.00524569946
v -0.00177885319 -0.015549538 0.00509954888
v -0.0017430904 -0.0155382131 0.00510539013
v -0.00162292744 -0.0159473394 0.00523640114
v -0.0016121986 -0.015943167 0.00523807007
v -0.00172115589 -0.0155312989 0.00510896641
v -0.00160945679 -0.0159420942 0.00523854691
v -0.00165094162 -0.0155264114 0.00512482125
v -0.00159586693 -0.01593971 0.00524140793
v -0.00162912632 -0.0155248616 0.00512970883
v -0.00158573414 -0.0159379218 0.0052435537
v -0.00157738949 -0.0155333255 0.00514437157
v -0.00153709675 -0.0155397628 0.00515581566
v -0.00189746643 -0.0156329845 0.00509120423
v -0.00183905388 -0.0155853007 0.00509370762
v -0.00162829186 -0.015950558 0.0052359243
v -0.00182760979 -0.0155758832 0.00509418446
v -0.00178970123 -0.01555526 0.00509835678
v -0.00166023995 -0.0159741615 0.00523377854
v -0.00195289875 -0.0157008145 0.00509406525
v -0.00164498116 -0.01596081 0.00523425537
v -0.00164486195 -0.01596081 0.00523425537
v -0.00198389317 -0.0162266467 0.00521565872
v -0.00199903275 -0.0161877845 0.00520218807
v -0.00203074242 -0.0161063646 0.00517381626
v -0.00204194809 -0.0160431836 0.00515545803
v -0.0020420673 -0.0160211299 0.00515009361
v -0.00204302098 -0.0159368489 0.00512923199
v -0.00203288819 -0.0158762906 0.00511707264
v -0.002025378 -0.0158547137 0.00511361557
v -0.00199760224 -0.0157743667 0.00510097939
v -0.00196219708 -0.0157120202 0.00509454209
v 0.00671707367 -0.0241719459 0.0157045265
v 0.00671325897 -0.024168608 0.0156941553
v 0.0069382069 -0.0238904927 0.0156185766
v 0.00692902778 -0.023883817 0.0155961652
v 0.00669227814 -0.0241600249 0.0156523128
v 0.00690077518 -0.0238634322 0.0155276199
v 0.0066777346 -0.0241541837 0.0156232257
v 0.00666724418 -0.0241537069 0.0156076093
v 0.006877887 -0.0238574718 0.0154876848
v 0.00665532326 -0.0241531108 0.0155899664
v 0.00682591175 -0.0238440011 0.0153969665
v 0.00663553451 -0.0241565679 0.015566959
v 0.00682257389 -0.0238440011 0.0153923174
v 0.00661324238 -0.0241605018 0.0155410905
v 0.00678740715 -0.0238441203 0.015344276
v 0.00659786438 -0.0239033673 0.0151683231
v 0.00663732265 -0.0238831018 0.0151939531
v 0.00656818126 -0.0241781448 0.0155027052
v 0.00667928432 -0.0238677238 0.0152297159
v 0.00660144066 -0.0241651509 0.015531077
v 0.00669370865 -0.0238624786 0.0152419944
v 0.00675307487 -0.023850796 0.0153068443
v 0.00656448578 -0.0241801713 0.0155005594
v 0.00652586197 -0.0242024635 0.0154776712
v 0.00653337215 -0.0239365075 0.0151264806
v 0.00651930546 -0.0242062781 0.0154737373
v 0.00651465629 -0.0239492629 0.0151186128
v 0.00649868225 -0.0242207025 0.0154652734
v 0.00634394859 -0.0243848537 0.0154783865
v 0.0061066029 -0.0243750785 0.0151420971
v 0.00611292099 -0.0243657802 0.0151382824
v 0.00636659836 -0.0243550513 0.0154683729
v 0.00617836689 -0.024270532 0.0150988241
v 0.00639103626 -0.0243227456 0.0154575248
v 0.00619410251 -0.024247763 0.0150894065
v 0.00640414928 -0.0243078445 0.0154550214
v 0.00625895237 -0.0241706346 0.0150731941
v 0.006410825 -0.0243005727 0.015454187
v 0.00627313827 -0.0241550182 0.0150712867
v 0.00644992565 -0.0242624257 0.0154553791
v 0.0063402531 -0.0240862344 0.0150690218
v 0.00646482681 -0.024247763 0.0154558559
v 0.00635002826 -0.0240778897 0.0150709291
v 0.00648556923 -0.0242311929 0.015461578
v 0.00642846798 -0.0240110133 0.0150863071
v 0.00644682621 -0.0239953969 0.0150898834
v 0.00605593895 -0.0244697307 0.0152008672
v 0.0063325045 -0.0244038079 0.0154888769
v 0.00605355476 -0.024476168 0.0152064701
v 0.00631784176 -0.0244282458 0.0155024667
v 0.00630758976 -0.0244498227 0.0155183216
v 0.00601445411 -0.024583814 0.0152992149
v 0.0062978146 -0.0244704459 0.0155334612
v 0.00600181793 -0.0246186231 0.0153291364
v 0.00628732418 -0.0245004867 0.0155608793
v 0.00599311565 -0.0246694062 0.0153868337
v 0.00628386711 -0.0245105003 0.0155700584
v 0.00627754902 -0.0245406602 0.0156037946
v 0.00598810886 -0.0246989701 0.0154204507
v 0.00627611851 -0.0245475743 0.015611424
v 0.00599073147 -0.0247526143 0.0154988905
v 0.00627671455 -0.0245788072 0.0156568428
v 0.00599263881 -0.0247915958 0.0155558725
v 0.00627707218 -0.0245957349 0.0156812807
v 0.00600634788 -0.0248217557 0.0156180997
v 0.00628076767 -0.0246093248 0.0157061954
v 0.00602697109 -0.0248670552 0.0157117983
v 0.00628267502 -0.0246124242 0.015713348
v 0.00603674625 -0.0248780225 0.0157416006
v 0.00629769539 -0.0246367429 0.0157698532
v 0.00615476345 -0.0249960397 0.0160894533
v 0.00637434696 -0.0247133945 0.0159950395
v 0.00637708877 -0.0247157787 0.0160026689
v 0.00638090347 -0.0247189973 0.0160131593
v 0.00640116905 -0.0247268651 0.0160554786
v 0.00616358494 -0.0250022386 0.0161122223
v 0.00641535496 -0.0247323487 0.0160848041
v 0.00619040703 -0.0250211929 0.0161818405
v 0.00642560695 -0.0247325872 0.016100659
v 0.00621198391 -0.025025842 0.0162223716
v 0.00643705105 -0.0247328256 0.0161184211
v 0.00626121734 -0.0250366901 0.0163151165
v 0.00645648216 -0.0247287725 0.0161417862
v 0.006264436 -0.0250364516 0.0163198848
v 0.00647817825 -0.0247243617 0.0161681314
v 0.0062978146 -0.0250346635 0.0163691183
v 0.00647925113 -0.0249673103 0.0165505548
v 0.00644122337 -0.0249888871 0.0165240903
v 0.00652228569 -0.0247057651 0.0162071128
v 0.00640093063 -0.0250059341 0.0164871355
v 0.00648974155 -0.0247194741 0.0161782642
v 0.00638722156 -0.0250118945 0.0164743801
v 0.00633047794 -0.0250263189 0.0164076229
v 0.00652586197 -0.0247036193 0.0162092586
v 0.00656388973 -0.0246807311 0.0162326236
v 0.00654147838 -0.0249319051 0.016593947
v 0.00657032703 -0.0246769164 0.0162365575
v 0.00655983661 -0.0249186729 0.0166021724
v 0.00659071182 -0.0246621345 0.016245379
v 0.00662599777 -0.0248708699 0.0166319748
v 0.00664423679 -0.0248550151 0.0166357895
v 0.00660370563 -0.0246515248 0.0162490745
v 0.00672160362 -0.0247873042 0.0166516443
v 0.00662432884 -0.0246347163 0.0162549158
v 0.00673125957 -0.0247788404 0.0166536708
v 0.00663923 -0.0246201728 0.0162553926
v 0.00679849361 -0.0247101758 0.0166512867
v 0.00667821144 -0.0245819066 0.0162567039
v 0.00681279873 -0.0246946786 0.0166492601
v 0.00668488716 -0.0245746349 0.0162557502
v 0.00687872146 -0.0246185039 0.0166325708
v 0.00669811939 -0.0245598529 0.0162532468
v 0.00689493393 -0.0245962117 0.0166226764
v 0.00672291492 -0.0245279048 0.0162421604
v 0.0069626448 -0.0245032285 0.0165816684
v 0.00674580311 -0.0244983409 0.0162319084
v 0.00696920131 -0.0244941686 0.0165777345
v 0.0070229647 -0.0244026158 0.0165168186
v 0.00675748562 -0.0244796251 0.0162211795
v 0.00702558731 -0.024396417 0.0165110965
v 0.00677250599 -0.024455664 0.0162073513
v 0.00678323482 -0.0244344447 0.016191258
v 0.00706886028 -0.0242929433 0.0164154907
v 0.00679348682 -0.0244141792 0.01617588
v 0.00708280777 -0.0242595647 0.0163846155
v 0.00680445408 -0.0243848537 0.016147985
v 0.0070935366 -0.0242109273 0.0163254877
v 0.00680814956 -0.0243749593 0.0161386867
v 0.0070998547 -0.0241825555 0.0162910362
v 0.00681518291 -0.0243455146 0.0161045929
v 0.00681673263 -0.0243388389 0.016096725
v 0.00709937786 -0.0241310571 0.016211166
v 0.00681685184 -0.0243082021 0.0160509487
v 0.00709913944 -0.0240936254 0.016153111
v 0.00681685184 -0.024291632 0.0160261531
v 0.00708638405 -0.0240644191 0.0160900493
v 0.00681339477 -0.0242783998 0.0160011192
v 0.00706731056 -0.0240206693 0.0159953972
v 0.00681160663 -0.0242753003 0.0159938474
v 0.00705777382 -0.0240100597 0.0159653564
v 0.00679718231 -0.0242515777 0.0159369846
v 0.00671993469 -0.0241743301 0.0157121559
v 0.00359736656 -0.0205577586 0.00940622288
v 0.00348161434 -0.0206037734 0.00936175781
v 0.00350986694 -0.020470259 0.00929535824
v 0.00349639629 -0.0204567884 0.00927843052
v 0.00317620014 -0.0220154498 0.0101007362
v 0.00292943691 -0.0217685674 0.00976146656
v 0.0034785149 -0.0206186746 0.00936938721
v 0.00314651703 -0.0207387183 0.00923599201
v 0.00347911094 -0.0206150983 0.00936736065
v 0.00291250919 -0.0204619144 0.00892497498
v 0.00332175468 -0.0202821468 0.00906290013
v 0.00280379032 -0.0208930944 0.00911964375
v 0.00270389293 -0.0209377978 0.00908590752
v 0.00201152538 -0.0208506559 0.00862695175
v 0.00261329387 -0.0209751104 0.00905348259
v 0.00243102287 -0.0212701533 0.00912226635
v 0.00267575954 -0.021031854 0.00912620026
v 0.00283728813 -0.0216764186 0.00963903862
v 0.00291751598 -0.0212736104 0.00942923027
v 0.000597107161 -0.0175574992 0.00643528897
v 0.000556695211 -0.0180057262 0.0065909763
v 0.000112521399 -0.0170729135 0.0060880323
v -0.000413549196 -0.0170354818 0.00590039688
v -0.000380647432 -0.0165797446 0.00576604801
v 0.0053777573 -0.0110346053 0.035206451
v 0.0130149004 -0.00452959282 0.0344058414
v 0.00650988792 -0.012166736 0.033605351
v 0.0135810254 -0.00509571773 0.033605351
v 0.00743447517 -0.0130913232 0.0317566534
v 0.0145054934 -0.00602030498 0.0317566534
v 0.00812481617 -0.0137816642 0.0297136446
v 0.0151958344 -0.00671052677 0.0297136446
v 0.00856100296 -0.014217851 0.0275349756
v 0.0156321404 -0.00714683277 0.0275349756
v 0.00873063778 -0.0143874858 0.0252833505
v 0.015801656 -0.00731646759 0.0252833505
v 0.00862871383 -0.0142855619 0.0230236192
v 0.0156998513 -0.00721454365 0.0230236192
v 0.00825833057 -0.0139151786 0.0208207508
v 0.0153293488 -0.00684404117 0.0208207508
v 0.0076298592 -0.0132867072 0.0187381645
v 0.0147009966 -0.00621568901 0.0187381645
v 0.00676165794 -0.012418506 0.0168355842
v -0.00765932823 0.0020024802 0.0340306898
v -0.000293028605 0.00877821701 0.0344143053
v -0.00648022915 0.000823381121 0.0355624099
v 0.000590908277 0.00789439934 0.0355624099
v -0.00513495232 -0.000521895711 0.0367902656
v 0.00193618511 0.00654912251 0.0367902656
v -0.00366224076 -0.00199460727 0.0376789709
v 0.00340877746 0.00507653015 0.0376789709
v -0.00210465218 -0.00355219585 0.0382028957
v 0.00496648525 0.00351882237 0.0382028957
v -0.000506770861 -0.00515007717 0.0383470197
v 0.00656436657 0.00192094105 0.0383470197
v 0.00108538841 -0.00674223644 0.0381071706
v 0.00815640663 0.000328900988 0.0381071706
v 0.00262593006 -0.00828277809 0.0374901434
v 0.00969694828 -0.00121164066 0.0374901434
v 0.00407050823 -0.00972735626 0.0365139385
v 0.0111416457 -0.00265633804 0.0365139385
v 0.0124487755 -0.00396358711 0.035206451
v 0.0138327954 -0.00534748775 0.0168355842
v 0.0130208609 -0.00453567249 0.0155856748
v 0.00567864155 -0.0113354896 0.0151679655
v 0.0127496598 -0.00426435215 0.0151679655
v 0.00441180443 -0.0100686525 0.0137832304
v 0.0114828226 -0.00299763424 0.0137832304
v 0.00299774383 -0.00865459186 0.0127210756
v 0.0100687621 -0.00158357364 0.0127210756
v 0.00147711014 -0.00713395817 0.0120122572
v 0.00854812836 -6.29399465e-05 0.0120122572
v -0.000106346857 -0.00555050117 0.0116770406
v 0.00696467136 0.00152063626 0.0116770406
v -0.0017070892 -0.00394975883 0.011725082
v 0.00536392902 0.0031213786 0.011725082
v -0.0032791021 -0.00237774593 0.0121550699
v 0.00379191612 0.00469327229 0.0121550699
v -0.00477708603 -0.000879761998 0.0129546066
v 0.00229393219 0.00619137543 0.0129546066
v -0.00615800644 0.000501158412 0.0141005655
v 0.000913011778 0.00757217663 0.0141005655
v -0.00738204743 0.0017251994 0.015560164
v -0.000311029207 0.00879633683 0.015560164
v -0.00841416146 0.00275731343 0.0172912021
v -0.00134314324 0.00982833164 0.0172912021
v -0.00922454621 0.00356769818 0.0192442079
v -0.00215340878 0.0106387164 0.0192442079
v -0.00978983666 0.00413298863 0.0213626762
v -0.00271881844 0.0112040068 0.0213626762
v -0.0100938203 0.00443697232 0.0235858102
v -0.00302280213 0.0115081097 0.0235858102
v -0.010127795 0.00447094696 0.0258495947
v -0.00305677677 0.0115420844 0.0258495947
v -0.00989080692 0.0042339589 0.0280889412
v -0.00281978871 0.0113049771 0.0280889412
v -0.00938953186 0.00373268383 0.0302394767
v -0.00231851364 0.0108038213 0.0302394767
v -0.00863851334 0.00298166531 0.0322392126
v -0.00156749512 0.0100528027 0.0322392126
v -0.000588310015 0.00907361763 0.0340306898
v 0.00678573822 -0.0250126098 0.0171411176
v 0.00672279571 -0.0250424121 0.0170831819
v 0.00677918171 -0.0250060533 0.0171449323
v 0.0067162392 -0.0250358556 0.0170869966
v 0.00683926319 -0.0251812909 0.0175426145
v 0.00699149345 -0.0253336404 0.0181365152
v 0.00683270668 -0.0251747344 0.0175461908
v 0.00698481773 -0.0253269647 0.0181398531
v 0.00675712799 -0.0255962585 0.0181948085
v 0.00684868072 -0.0256878112 0.0185850998
v 0.00675045227 -0.0255895827 0.0181980272
v 0.00684188579 -0.0256810163 0.0185881992
v 0.00722860073 -0.0246776317 0.0173331638
v 0.00750588154 -0.0249549125 0.0184207101
v 0.00722204422 -0.0246710752 0.0173368593
v 0.00749920582 -0.0249482368 0.0184239288
v 0.00746582722 -0.0244262193 0.0173072954
v 0.00745915149 -0.0244195436 0.0173109909
v 0.00773714756 -0.0246975396 0.018364801
v 0.00773047184 -0.0246908639 0.0183680196
v 0.00729917263 -0.0243761514 0.0169288059
v 0.00727294658 -0.0243834232 0.0168967386
v 0.00729261612 -0.0243695949 0.0169326206
v 0.00726639007 -0.0243768666 0.0169005533
v 0.00723229622 -0.0243864034 0.0168589492
v 0.00723885273 -0.0243928407 0.0168550153
v 0.00721656059 -0.0243937944 0.0168450018
v 0.0072231171 -0.0244003509 0.0168411871
v 0.00717197632 -0.0244244311 0.0167960067
v 0.00716553901 -0.0244179938 0.0167999406
v 0.00544892525 -0.0236647103 0.0135232349
v 0.00545488571 -0.0236705516 0.0135177513
v 0.00540100311 -0.0237306331 0.013524427
v 0.00535141205 -0.023793218 0.0135384937
v 0.00534545158 -0.0237872575 0.0135439773
v 0.00538705562 -0.0237461303 0.0135260959
v 0.00538216804 -0.0237388585 0.0135313411
v 0.00539504265 -0.0237246726 0.0135297914
v 0.00528763508 -0.0239287589 0.0136169334
v 0.00528513168 -0.0239477132 0.013634934
v 0.00528167461 -0.0239227985 0.0136222978
v 0.00527929043 -0.0239417527 0.0136404176
v 0.00527285312 -0.0239905093 0.0136871477
v 0.00527881359 -0.0239964698 0.0136817833
v 0.00527344917 -0.0239951585 0.0136928697
v 0.00527940964 -0.024001119 0.0136875053
v 0.00528739666 -0.0240718101 0.0137751241
v 0.00528143619 -0.0240658496 0.0137804886
v 0.00532149051 -0.0241415475 0.0138923069
v 0.00537573074 -0.0242148612 0.0140383382
v 0.00536977028 -0.0242089008 0.0140435835
v 0.00533329223 -0.0241656278 0.013932838
v 0.00532721256 -0.0241595481 0.0139380832
v 0.00531553005 -0.0241354678 0.0138975521
v 0.00578688358 -0.0246261333 0.0150513788
v 0.0057806847 -0.0246198152 0.0150560279
v 0.00589119171 -0.0235873435 0.0139098306
v 0.00588523125 -0.0235813831 0.0139150758
v 0.00631021236 -0.0240063642 0.014925613
v 0.00630401348 -0.0240001653 0.0149303814
v 0.00600372528 -0.0234527562 0.0138845583
v 0.00642369961 -0.0238727306 0.0148995062
v 0.00599764561 -0.0234466766 0.0138898035
v 0.00641750072 -0.0238665317 0.0149042745
v 0.00623081898 -0.023191211 0.0138458152
v 0.00622485851 -0.0231852506 0.0138510604
v 0.00664805149 -0.0236084436 0.0148482462
v 0.00664185261 -0.0236022447 0.0148531337
v 0.00604068016 -0.0231119369 0.0135656734
v 0.00604664062 -0.0231178973 0.0135601898
v 0.00602625583 -0.023113725 0.0135518451
v 0.00603185867 -0.0231196855 0.0135461231
v 0.00601695751 -0.0231162284 0.0135443349
v 0.00602291797 -0.0231220697 0.0135388513
v 0.0059872744 -0.023131368 0.0135103603
v 0.0059218285 -0.0231636737 0.0134745975
v 0.00592123245 -0.023154733 0.0134824653
v 0.00595091556 -0.0231479381 0.0134889026
v 0.0059449551 -0.0231420968 0.0134945055
v 0.0059680817 -0.0231386398 0.0134974857
v 0.00596379017 -0.0231320832 0.013503923
v 0.00598393654 -0.0231323217 0.0135076185
v 0.00597809528 -0.0231263612 0.0135132213
v 0.00598131393 -0.0231255267 0.0135158439
v 0.00583432888 -0.0232356761 0.0134579082
v 0.00582848762 -0.0232297156 0.0134633918
v 0.0058423159 -0.0232278083 0.0134580274
v 0.00583957409 -0.0232188676 0.0134637495
v 0.00588010525 -0.023195741 0.0134642263
v 0.00587426399 -0.0231898997 0.0134698291
v 0.0059013245 -0.0231777404 0.0134676834
v 0.00589834427 -0.0231697534 0.0134740015
v 0.00591694092 -0.0231671308 0.0134729286
v 0.00591098045 -0.0231611703 0.0134784122
v 0.00591777538 -0.0231566404 0.0134807964
v 0.00167058681 -0.0193808053 0.00768722492
v 0.00208686565 -0.0197970842 0.008106484
v 0.00167463993 -0.0193848584 0.00767899948
v 0.00209115719 -0.0198012565 0.00809849697
v 0.00107907032 -0.0194969152 0.00746120411
v 0.00108300422 -0.0195008491 0.00745285946
v 0.00106536125 -0.0195478175 0.00746656853
v 0.00103865837 -0.0196797822 0.00751592117
v 0.00103472446 -0.0196758483 0.00752426583
v 0.00103865837 -0.019679663 0.00751580197
v 0.00103472446 -0.0196758483 0.00752414662
v 0.00104759907 -0.01961076 0.00748766857
v 0.00104378437 -0.0196068261 0.00749601322
v 0.00105069851 -0.0195870374 0.00747801262
v 0.0010467646 -0.0195832227 0.00748635727
v 0.00106154655 -0.0195438836 0.00747491318
v 0.00142096256 -0.0197771762 0.00774671036
v 0.00141702865 -0.0197731231 0.0077549358
v 0.00199590896 -0.0203520034 0.00834108788
v 0.00199161743 -0.0203477119 0.0083490749
v 0.00153754925 -0.0196212505 0.00772751766
v 0.0019540665 -0.0200376485 0.00815047222
v 0.00153361534 -0.0196173165 0.0077357431
v 0.00194977497 -0.0200334762 0.00815857845
v 0.00239049171 -0.0193508838 0.00803245503
v 0.00239466404 -0.0193550561 0.00802434879
v 0.00178526615 -0.0187456582 0.00744022328
v 0.00172232364 -0.0186827157 0.00737024742
v 0.00171850895 -0.018678901 0.00737859207
v 0.00167034839 -0.0191193793 0.00754953819
v 0.00220357155 -0.0196526025 0.0080795427
v 0.00166641449 -0.0191154454 0.00755788284
v 0.00219939922 -0.0196484302 0.00808764893
v 0.000361191977 -0.0192003225 0.00699759918
v 0.00060890888 -0.0194480394 0.00721301037
v 0.000357496489 -0.019196627 0.00700618225
v 0.000605094183 -0.0194442247 0.00722147423
v -0.00250352646 -0.016335604 0.00512482125
v -0.0021370771 -0.0167020534 0.00530923802
v -0.00173355366 -0.0166085933 0.00539196926
v -0.00131906296 -0.0170229648 0.00562681156
v -0.0015274408 -0.0173116897 0.00565065342
v -0.00126076962 -0.0175783609 0.00581408936
v -0.00143541123 -0.0160136197 0.00531269509
v -0.000677478563 -0.0167715524 0.00574459034
v 0.00693188881 -0.0238841746 0.0156231065
v 0.00705145572 -0.0240036224 0.0159696479
v 0.00603042816 -0.0248717044 0.0157460113
v 0.00611065601 -0.0249519323 0.0159808536
v 0.00614832615 -0.0249896024 0.0160937448
v 0.00554274296 -0.0224950288 0.0124343773
v 0.00570391392 -0.0226561998 0.0127453943
v 0.005548465 -0.0225006316 0.0124284168
v 0.00570963596 -0.0226619218 0.012739553
v 0.00479840015 -0.0227099631 0.0119480034
v 0.00480388378 -0.022715566 0.0119418045
v 0.00473653053 -0.0227874492 0.0119619508
v 0.00474094127 -0.0227946017 0.0119561096
v 0.00472091411 -0.02281296 0.0119708915
v 0.00472639774 -0.0228185628 0.0119645734
v 0.004665601 -0.0229184602 0.011999621
v 0.00466023659 -0.0229129766 0.0120060583
v 0.00461434101 -0.0230370734 0.0120604177
v 0.0046282885 -0.0229786609 0.0120363374
v 0.00461600994 -0.0230299209 0.0120554109
v 0.00465332245 -0.0229241822 0.0120099922
v 0.00465975975 -0.0229281161 0.012003078
v 0.00457392906 -0.0231716607 0.0121623417
v 0.00457738613 -0.0231510375 0.0121467252
v 0.00458644604 -0.0231558059 0.0121430297
v 0.00458143925 -0.0231277917 0.0121290823
v 0.00461183761 -0.0230309938 0.0120688816
v 0.00457738613 -0.0231940721 0.0121696134
v 0.00457559799 -0.0232517694 0.012221231
v 0.00457261776 -0.0232448552 0.012228622
v 0.00457452511 -0.0232853864 0.0122511526
v 0.00457154487 -0.0233083938 0.0122862001
v 0.00458656524 -0.0233484481 0.0123212476
v 0.00457988952 -0.0233434413 0.0123268505
v 0.00466178631 -0.0235030626 0.0125385662
v 0.00465606426 -0.0234973405 0.0125445266
v 0.00464843487 -0.0234883998 0.0125118633
v 0.00461100315 -0.0234260533 0.0124339004
v 0.00459288334 -0.0233974431 0.0123895546
v 0.00459526752 -0.0233943437 0.0123722692
v 0.00461648678 -0.0234318946 0.0124280592
v 0.00482152675 -0.023662803 0.0128512521
v 0.00481580471 -0.0236569617 0.0128570934
v 0.00483309006 -0.0236717437 0.0128718753
v 0.0048272488 -0.0236660216 0.0128775974
v 0.00486146187 -0.0236927245 0.0129386325
v 0.0048682568 -0.0236990426 0.0129345794
v 0.00488899921 -0.0237028573 0.0129768987
v 0.00489472126 -0.0237086986 0.0129711767
v 0.00494824623 -0.0237245534 0.0130591531
v 0.00495516037 -0.0237306331 0.0130548616
v 0.00495325302 -0.0237251495 0.0130648752
v 0.00495897507 -0.0237309907 0.0130591531
v 0.00499128078 -0.0237292026 0.0131081482
v 0.00499831413 -0.0237350438 0.0131037374
v 0.00502930855 -0.0237268184 0.0131448646
v 0.00503562664 -0.0237313483 0.0131385465
v 0.00510035728 -0.0237250302 0.0131989856
v 0.00506793236 -0.023724315 0.0131821771
v 0.00511561607 -0.0237207387 0.0132104297
v 0.00511049007 -0.0237125133 0.0132143636
v 0.00516031956 -0.0237079833 0.0132439275
v 0.00517545914 -0.0236946319 0.0132634779
v 0.00520156597 -0.0236896251 0.0132678886
v 0.0051954863 -0.0236859296 0.013275518
v 0.00522397732 -0.0236737703 0.0132925649
v 0.00526915764 -0.0236594651 0.0133072277
v 0.00528250908 -0.0236399148 0.0133185526
v 0.00528835033 -0.0236473058 0.0133146186
v 0.00533353065 -0.0236103509 0.0133413215
v 0.00535820698 -0.0236030791 0.0133417984
v 0.00537155842 -0.0235826944 0.0133522888
v 0.00537680363 -0.0235877011 0.0133451362
v 0.005381572 -0.0235754226 0.0133551498
v 0.00545619701 -0.0235218976 0.0133595605
v 0.00544940208 -0.0235147451 0.0133627792
v 0.00546609138 -0.0235136722 0.0133613487
v 0.0054906485 -0.0234777902 0.0133674284
v 0.005533087 -0.02344465 0.0133592029
v 0.00552712654 -0.0234388087 0.0133648058
v 0.0055471537 -0.0234289144 0.0133574148
v 0.00554119324 -0.0234230731 0.0133630176
v 0.00425397133 -0.0212143634 0.0103119751
v 0.00425897812 -0.0212193702 0.0103050609
v 0.00393615936 -0.0214859222 0.0102787157
v 0.00394116615 -0.021490929 0.0102716823
v 0.00324557995 -0.0220847104 0.0101988454
v 0.00344740127 -0.0222865318 0.0104921003
v 0.00324057316 -0.0220797036 0.0102058788
v 0.00344227527 -0.022281525 0.0104990144
v 0.00375341152 -0.022592542 0.0109743019
v 0.00375877594 -0.0225979064 0.0109676262
v 0.00389384006 -0.0227329705 0.011198773
v 0.00391732429 -0.022756574 0.0112217804
v 0.00391207908 -0.0227512096 0.0112283369
v 0.00513731216 -0.0220977042 0.0116922994
v 0.00489233707 -0.0218527291 0.0112799545
v 0.00513182854 -0.0220922206 0.0116986175
v 0.00488697265 -0.0218473647 0.011286511
v 0.00442408298 -0.0213844751 0.0105474134
v 0.00451170181 -0.0214720939 0.0106939216
v 0.00442610954 -0.0213863824 0.0105503936
v 0.00451682781 -0.0214772199 0.0106871267
v 0.00291274761 -0.021268842 0.00943662125
v 0.002702224 -0.0210583184 0.00917197663
v 0.00267111038 -0.0210272048 0.00913371044
v 0.00260876392 -0.0209704612 0.00906111199
v 0.00292454933 -0.0217636798 0.00976873833
v 0.00317131256 -0.022010443 0.0101077695
v 0.0035927174 -0.0205529903 0.00941361386
v 0.00340007519 -0.0203604673 0.00917197663
v 0.00331710552 -0.0202774976 0.00907052952
v 0.00290786003 -0.0204573844 0.00893260437
v 0.00200711464 -0.0208462451 0.00863481957
v 0.00223575805 -0.0210750077 0.00890017945
v 0.00246070598 -0.0212998365 0.00917197663
v 0.00283251976 -0.0216716502 0.00964631039
v -0.000416529428 -0.0170325015 0.00590945679
v -0.000225675356 -0.0172233556 0.00603546101
v 0.000553357351 -0.0180023883 0.00659979778
v 0.00738941406 -0.0123920415 0.00710381466
v 0.00733660435 -0.012457249 0.00709749657
v 0.00726519798 -0.0125375961 0.00711311299
v 0.00728296017 -0.012518761 0.00710095364
v 0.00726591324 -0.0125390266 0.00710226494
v 0.00745903229 -0.0123201583 0.00710286099
v 0.00746272777 -0.0123238538 0.00709439713
v 0.00744496559 -0.0123344634 0.0071029802
v 0.00744842266 -0.0123383973 0.00709439713
v 0.00739179825 -0.0123971675 0.0070953508
v 0.00708507274 -0.0127767299 0.00712717968
v 0.00704001163 -0.0128440831 0.00713683563
v 0.00697373127 -0.0129510139 0.00716651875
v 0.00701819633 -0.012878177 0.00714220005
v 0.00697599624 -0.0129469608 0.00715388256
v 0.00725685333 -0.0125498746 0.00710309941
v 0.00720559334 -0.012613294 0.00710834461
v 0.00718163227 -0.0126355861 0.00711931187
v 0.00715612148 -0.0126777862 0.00711490112
v 0.0071320412 -0.0127104495 0.00711871582
v 0.00687860225 -0.0131229137 0.00718845326
v 0.00684307789 -0.0131945584 0.00720454651
v 0.00677787041 -0.0133398746 0.00724019009
v 0.00682603096 -0.0132306789 0.00721301037
v 0.00679336761 -0.0133032773 0.00723077255
v 0.00674973701 -0.0134006713 0.00726665455
v 0.00691615318 -0.0130518649 0.0071736713
v 0.00692604755 -0.0130233739 0.00717724758
v 0.0069355843 -0.0130166982 0.00716675717
v 0.0069728968 -0.012952206 0.00715483624
v 0.00670777534 -0.0135244106 0.0072916885
v 0.00668345665 -0.0135989164 0.00731433827
v 0.00663171982 -0.0137863134 0.00737620789
v 0.00666116451 -0.0136737798 0.00733818012
v 0.0066507933 -0.0137112115 0.00735057789
v 0.00673948501 -0.0134224866 0.00727189976
v 0.00672076916 -0.0134873365 0.00728072125
v 0.00661157345 -0.0138540242 0.00740994412
v 0.00675200199 -0.0134040092 0.00725735623
v 0.0067483065 -0.0134133075 0.00725985962
v 0.00660918926 -0.0138716672 0.00741709667
v 0.00660692428 -0.0138990853 0.00741673905
v 0.00660132145 -0.0139292453 0.00744046169
v 0.00659309601 -0.0139743064 0.00744523007
v 0.0065814135 -0.0140495275 0.00747479397
v 0.00657640671 -0.0140869592 0.00749005276
v 0.00656782364 -0.0141619418 0.00752128559
v 0.00655530666 -0.0142674421 0.00757731396
v 0.00661467289 -0.0138615344 0.00740291077
v 0.00661169266 -0.0138756011 0.00740815598
v 0.00655590271 -0.0143480275 0.00760401684
v 0.00655494903 -0.0144216989 0.00763894516
v 0.00655721401 -0.0143426631 0.00761462647
v 0.00656150554 -0.0142365668 0.00755359131
v 0.00655912136 -0.0142737601 0.0075701614
v 0.00655590271 -0.0143479083 0.00760401684
v 0.00655518745 -0.0144584153 0.00765682656
v 0.00655733322 -0.0145313714 0.0076933046
v 0.00656579708 -0.0146876548 0.00778616863
v 0.0065853474 -0.0147986386 0.00783897835
v 0.00658677791 -0.0147919629 0.00784934956
v 0.00658737396 -0.0148173545 0.00784911114
v 0.00664399837 -0.0150765155 0.00802172619
v 0.00668786739 -0.0152006124 0.00809635121
v 0.00669585441 -0.0152045463 0.00811637837
v 0.00669382786 -0.0152128909 0.00810612637
v 0.00678883766 -0.0154337857 0.00828589398
v 0.00684784626 -0.0155346368 0.00835980374
v 0.00688205932 -0.0155737374 0.00841416317
v 0.00710414623 -0.0158612703 0.00868596035
v 0.00709973549 -0.0158568595 0.00869370896
v 0.00699053978 -0.0157368158 0.00856353241
v 0.00699888443 -0.0157459949 0.00856055218
v 0.00687574123 -0.0155789827 0.00839938122
v 0.00687943672 -0.0155844663 0.00840438801
v 0.0069048283 -0.0156223748 0.00843931633
v 0.00693510746 -0.0156646941 0.00847948986
v 0.0069664595 -0.0157058213 0.00851990181
v 0.00698231434 -0.0157253717 0.00853969055
v 0.0112151978 -0.0171910499 0.0127737661
v 0.0112093565 -0.0171853278 0.0127796074
v 0.0112131712 -0.0171929572 0.0127737661
v 0.0112074492 -0.0171872352 0.0127796074
v 0.009511101 -0.0151547168 0.00974000889
v 0.00950621342 -0.0151499484 0.00974728066
v 0.0104688284 -0.0149464582 0.0102715631
v 0.0110642788 -0.0148106788 0.0106117864
v 0.0110694048 -0.0148158048 0.0106048723
v 0.0108566162 -0.016500232 0.0117982765
v 0.0108511326 -0.0164947484 0.0118045946
v 0.0104915974 -0.0161352132 0.011198773
v 0.010386574 -0.0160301898 0.0110153099
v 0.010011184 -0.0156547998 0.0104563375
v 0.00989006733 -0.0155336831 0.0102657219
v 0.00472663616 -0.0173639033 0.0082028051
v 0.00472234463 -0.017359731 0.00821079212
v 0.00460349296 -0.0172408794 0.00807334381
v 0.00394676899 -0.0165840362 0.00744022328
v 0.00405322288 -0.0166906093 0.0075278421
v 0.0037159798 -0.016353247 0.00723041493
v 0.00348614429 -0.0161234115 0.00701810318
v 0.0034824488 -0.016119716 0.00702668625
v -0.0112707737 -0.017013428 0.043560638
v 0.00711392139 0.00137126702 0.043560638
v -0.0111022117 -0.01718199 0.0432499786
v 0.00728248333 0.00120270508 0.0432499786
v -0.0109963539 -0.017287967 0.0428881784
v 0.00738846039 0.00109684723 0.0428881784
v -0.0109601143 -0.0173240874 0.042500033
v 0.0074245808 0.00106060761 0.042500033
v -0.0109963539 -0.017287967 0.0421117683
v 0.00738846039 0.00109684723 0.0421117683
v -0.0111022117 -0.01718199 0.0417499681
v 0.00728248333 0.00120270508 0.0417499681
v -0.0112707737 -0.017013428 0.0414393087
v 0.00711392139 0.00137126702 0.0414393087
v -0.0114904764 -0.0167938445 0.0412010093
v 0.00689433788 0.00159096974 0.0412010093
v -0.0117462995 -0.0165380214 0.0410511633
v 0.00663851475 0.00184679287 0.0410511633
v -0.0120208385 -0.0162634824 0.0410000225
v 0.00636397575 0.00212133187 0.0410000225
v -0.0122953775 -0.0159889434 0.0410511633
v 0.00608943676 0.00239587086 0.0410511633
v -0.0125512006 -0.0157331203 0.0412010093
v 0.00583361362 0.002651694 0.0412010093
v -0.0127707842 -0.0155134175 0.0414393087
v 0.0056139109 0.00287127751 0.0414393087
v -0.0129393461 -0.0153448556 0.0417499681
v 0.00544534897 0.00303983944 0.0417499681
v -0.0130453231 -0.0152388786 0.0421117683
v 0.00533949112 0.0031458165 0.0421117683
v -0.0130814436 -0.0152027581 0.042500033
v 0.00530325149 0.00318193692 0.042500033
v -0.0130453231 -0.0152388786 0.0428881784
v 0.00533949112 0.0031458165 0.0428881784
v -0.0129393461 -0.0153448556 0.0432499786
v 0.00544534897 0.00303983944 0.0432499786
v -0.0127707842 -0.0155134175 0.043560638
v 0.0056139109 0.00287127751 0.043560638
v -0.0125512006 -0.0157331203 0.0437990566
v 0.00583361362 0.002651694 0.0437990566
v -0.0122953775 -0.0159889434 0.0439489027
v 0.00608943676 0.00239587086 0.0439489027
v -0.0120208385 -0.0162634824 0.0440000435
v 0.00636397575 0.00212133187 0.0440000435
v -0.0117462995 -0.0165380214 0.0439489027
v 0.00663851475 0.00184679287 0.0439489027
v -0.0114904764 -0.0167938445 0.0437990566
v 0.00689433788 0.00159096974 0.0437990566
v 0.00207875942 0.0205487038 0.0385303636
v 0.00247489189 0.0201525714 0.0385303636
v 0.00248550152 0.020163181 0.0385151048
v -0.00325514103 0.0251351621 0.0394565006
v 0.00217198108 0.0198496606 0.0391686102
v -0.00310672547 0.0252835776 0.0389499803
v 0.00211023067 0.0200665023 0.0389499803
v -0.00287081028 0.0255194928 0.0385151048
v -0.00256325031 0.0258270528 0.0381813188
v 0.00279306148 0.020470741 0.0381813188
v -0.00220514561 0.0261851575 0.0379715105
v 0.00315116619 0.0208288457 0.0379715105
v -0.00182081486 0.0265694882 0.0378999849
v 0.00353549694 0.0212131764 0.0378999849
v -0.00143648411 0.026953819 0.0379715105
v 0.00391982769 0.0215975072 0.0379715105
v -0.0010783794 0.0273120429 0.0381813188
v 0.0042780516 0.0219556119 0.0381813188
v -0.000770819437 0.0276194836 0.0385151048
v 0.00458549236 0.0222631718 0.0385151048
v -0.000534785044 0.027855518 0.0389499803
v 0.00482152675 0.0224992062 0.0389499803
v -0.000386488688 0.0280038144 0.0394565006
v 0.00496982311 0.0226475026 0.0394565006
v -0.000335824739 0.0280544783 0.0399999757
v 0.00502048706 0.0226981665 0.0399999757
v -0.000386488688 0.0280038144 0.0405435701
v 0.00496982311 0.0226475026 0.0405435701
v -0.000534785044 0.027855518 0.0410499712
v 0.00482152675 0.0224992062 0.0410499712
v -0.000770819437 0.0276194836 0.0414849659
v 0.00458549236 0.0222631718 0.0414849659
v -0.0010783794 0.0273120429 0.0418186327
v 0.0042780516 0.0219556119 0.0418186327
v -0.00143648411 0.026953819 0.042028441
v 0.00391982769 0.0215975072 0.042028441
v -0.00182081486 0.0265694882 0.0420999666
v 0.00353549694 0.0212131764 0.0420999666
v -0.00220514561 0.0261851575 0.042028441
v 0.00315116619 0.0208288457 0.042028441
v -0.00256325031 0.0258270528 0.0418186327
v 0.00279306148 0.020470741 0.0418186327
v -0.00287081028 0.0255194928 0.0414849659
v 0.00248550152 0.020163181 0.0414849659
v -0.00310672547 0.0252835776 0.0410499712
v 0.00224958633 0.0199272658 0.0410499712
v -0.00325514103 0.0251351621 0.0405435701
v 0.00210117077 0.0197788503 0.0405435701
v -0.00330568577 0.0250846173 0.0399999757
v 0.00205062603 0.0197283055 0.0399999757
v 0.00210117077 0.0197788503 0.0394565006
v 0.024563658 0.000185134585 0.0399999757
v 0.0244058249 -0.00175714237 0.0385151048
v 0.0247133849 -0.0014495824 0.0381813188
v 0.0254558203 -0.000707146947 0.0378999849
v 0.0258401511 -0.000322816198 0.0379715105
v 0.0250714896 -0.0010914777 0.0379715105
v 0.0265058157 0.000342848475 0.0385151048
v 0.0267418501 0.000578882868 0.0389499803
v 0.0261982558 3.54077174e-05 0.0381813188
v 0.0269408104 0.000777843173 0.0399999757
v 0.0268901465 0.000727179225 0.0405435701
v 0.0268901465 0.000727179225 0.0394565006
v 0.0265058157 0.000342848475 0.0414849659
v 0.0261982558 3.54077174e-05 0.0418186327
v 0.0267418501 0.000578882868 0.0410499712
v 0.0254558203 -0.000707146947 0.0420999666
v 0.0250714896 -0.0010914777 0.042028441
v 0.0258401511 -0.000322816198 0.042028441
v 0.0244058249 -0.00175714237 0.0414849659
v 0.0241699097 -0.00199305755 0.0410499712
v 0.0247133849 -0.0014495824 0.0418186327
v 0.0240214941 -0.00214147312 0.0405435701
v 0.0239709494 -0.00219201786 0.0399999757
v 0.0240214941 -0.00214147312 0.0394565006
v 0.0241743204 -0.00154697639 0.039502873
v 0.0242388127 -0.00161146862 0.0391339203
v 0.0243952153 -0.001767752 0.0385303636
v 0.0240921852 -0.0020706628 0.0391686102
v 0.0241325972 -0.00181352836 0.0393327613
v 0.0293778059 -0.00749778492 0.0394565006
v 0.0293880579 -0.00808858616 0.0393464704
v 0.0295262215 -0.00734936935 0.0389499803
v 0.0295665142 -0.00791024906 0.0387375494
v 0.0297621367 -0.00711345417 0.0385151048
v 0.0298502324 -0.00762641174 0.0382145782
v 0.0300696967 -0.0068058942 0.0381813188
v 0.0302200196 -0.00725662452 0.0378133197
v 0.0304278014 -0.00644778949 0.0379715105
v 0.0306506035 -0.00682604057 0.0375610729
v 0.0308121321 -0.00606345875 0.0378999849
v 0.0311126587 -0.00636398536 0.0374750038
v 0.0311964629 -0.005679128 0.0379715105
v 0.0315748331 -0.00590181095 0.0375610729
v 0.0315546868 -0.00532102329 0.0381813188
v 0.0320054171 -0.00547122699 0.0378133197
v 0.0318621275 -0.00501346332 0.0385151048
v 0.0323752043 -0.00510143978 0.0382145782
v 0.0320981619 -0.00477742893 0.0389499803
v 0.0326589224 -0.00481772167 0.0387375494
v 0.0322464583 -0.00462913257 0.0394565006
v 0.0328372595 -0.00463938457 0.0393464704
v 0.0322971222 -0.00457846863 0.0399999757
v 0.0328981755 -0.00457846863 0.0399999757
v 0.0322464583 -0.00462913257 0.0405435701
v 0.0328372595 -0.00463938457 0.0406534811
v 0.0320981619 -0.00477742893 0.0410499712
v 0.0326589224 -0.00481772167 0.0412625213
v 0.0318621275 -0.00501346332 0.0414849659
v 0.0323752043 -0.00510143978 0.0417854925
v 0.0315546868 -0.00532102329 0.0418186327
v 0.0320054171 -0.00547122699 0.0421867509
v 0.0311964629 -0.005679128 0.042028441
v 0.0315748331 -0.00590181095 0.0424389978
v 0.0308121321 -0.00606345875 0.0420999666
v 0.0311126587 -0.00636398536 0.0425249477
v 0.0304278014 -0.00644778949 0.042028441
v 0.0306506035 -0.00682604057 0.0424389978
v 0.0300696967 -0.0068058942 0.0418186327
v 0.0302200196 -0.00725662452 0.0421867509
v 0.0297621367 -0.00711345417 0.0414849659
v 0.0298502324 -0.00762641174 0.0417854925
v 0.0295262215 -0.00734936935 0.0410499712
v 0.0295665142 -0.00791024906 0.0412625213
v 0.0293778059 -0.00749778492 0.0405435701
v 0.0293880579 -0.00808858616 0.0406534811
v 0.0293272612 -0.00754832966 0.0399999757
v 0.0293272612 -0.00814938289 0.0399999757
v 0.0248194811 0.00289917248 0.0455999513
v 0.0248194811 0.00289917248 0.0575750013
v 0.0243844864 0.00323283928 0.0455999513
v 0.0243844864 0.00323283928 0.0575750013
v 0.0238780854 0.00344264763 0.0455999513
v 0.0238780854 0.00344264763 0.0575750013
v 0.023334491 0.00351417321 0.0455999513
v 0.023334491 0.00351417321 0.0575750013
v 0.0227910159 0.00344264763 0.0455999513
v 0.0227910159 0.00344264763 0.0575750013
v 0.0222844956 0.00323283928 0.0455999513
v 0.0222844956 0.00323283928 0.0575750013
v 0.0218496201 0.00289917248 0.0455999513
v 0.0218496201 0.00289917248 0.0575750013
v 0.0215158341 0.00246417778 0.0455999513
v 0.0215158341 0.00246417778 0.0575750013
v 0.0213060257 0.00195777672 0.0455999513
v 0.0213060257 0.00195777672 0.0575750013
v 0.0212345002 0.00141418236 0.0455999513
v 0.0212345002 0.00141418236 0.0575750013
v 0.0213060257 0.000870707209 0.0455999513
v 0.0213060257 0.000870707209 0.0575750013
v 0.0215158341 0.000364186938 0.0455999513
v 0.0215158341 0.000364186938 0.0575750013
v 0.0218496201 -7.06885503e-05 0.0455999513
v 0.0218496201 -7.06885503e-05 0.0575750013
v 0.0222844956 -0.000404474561 0.0455999513
v 0.0222844956 -0.000404474561 0.0575750013
v 0.0227910159 -0.000614282911 0.0455999513
v 0.0227910159 -0.000614282911 0.0575750013
v 0.023334491 -0.000685808484 0.0455999513
v 0.023334491 -0.000685808484 0.0575750013
v 0.0238780854 -0.000614282911 0.0455999513
v 0.0238780854 -0.000614282911 0.0575750013
v 0.0243844864 -0.000404474561 0.0455999513
v 0.0243844864 -0.000404474561 0.0575750013
v 0.0248194811 -7.06885503e-05 0.0455999513
v 0.0248194811 -7.06885503e-05 0.0575750013
v 0.0251531479 0.000364186938 0.0455999513
v 0.0251531479 0.000364186938 0.0575750013
v 0.0253629563 0.000870707209 0.0455999513
v 0.0253629563 0.000870707209 0.0575750013
v 0.0254344818 0.00141418236 0.0455999513
v 0.0254344818 0.00141418236 0.0575750013
v 0.0253629563 0.00195777672 0.0455999513
v 0.0253629563 0.00195777672 0.0575750013
v 0.0251531479 0.00246417778 0.0455999513
v 0.0251531479 0.00246417778 0.0575750013
v 0.0245970366 0.00360095757 0.0579999824
v 0.0239879963 0.00385320442 0.0579999824
v 0.023334491 0.00393915432 0.0579999824
v 0.0226809857 0.00385320442 0.0579999824
v 0.0220720646 0.00360095757 0.0579999824
v 0.0215490935 0.0031996991 0.0579999824
v 0.021147835 0.00267672795 0.0579999824
v 0.0208955881 0.00206768769 0.0579999824
v 0.020809519 0.00141418236 0.0579999824
v 0.0208955881 0.000760677035 0.0579999824
v 0.021147835 0.000151755984 0.0579999824
v 0.0215490935 -0.000371215169 0.0579999824
v 0.0220720646 -0.000772473638 0.0579999824
v 0.0226809857 -0.00102472049 0.0579999824
v 0.023334491 -0.0011107896 0.0579999824
v 0.0239879963 -0.00102472049 0.0579999824
v 0.0245970366 -0.000772473638 0.0579999824
v 0.0251200077 -0.000371215169 0.0579999824
v 0.0255212662 0.000151755984 0.0579999824
v 0.0257735131 0.000760677035 0.0579999824
v 0.0258595822 0.00141418236 0.0579999824
v 0.0257735131 0.00206768769 0.0579999824
v 0.0255212662 0.00267672795 0.0579999824
v 0.0251200077 0.0031996991 0.0579999824
v 0.0218496201 -7.06885503e-05 0.00440002876
v 0.0218496201 -7.06885503e-05 -0.00757502121
v 0.0215158341 0.000364186938 0.00440002876
v 0.0215158341 0.000364186938 -0.00757502121
v 0.0213060257 0.000870707209 0.00440002876
v 0.0213060257 0.000870707209 -0.00757502121
v 0.0212345002 0.00141418236 0.00440002876
v 0.0212345002 0.00141418236 -0.00757502121
v 0.0213060257 0.00195777672 0.00440002876
v 0.0213060257 0.00195777672 -0.00757502121
v 0.0215158341 0.00246417778 0.00440002876
v 0.0215158341 0.00246417778 -0.00757502121
v 0.0218496201 0.00289917248 0.00440002876
v 0.0218496201 0.00289917248 -0.00757502121
v 0.0222844956 0.00323283928 0.00440002876
v 0.0222844956 0.00323283928 -0.00757502121
v 0.0227910159 0.00344264763 0.00440002876
v 0.0227910159 0.00344264763 -0.00757502121
v 0.023334491 0.00351417321 0.00440002876
v 0.023334491 0.00351417321 -0.00757502121
v 0.0238780854 0.00344264763 0.00440002876
v 0.0238780854 0.00344264763 -0.00757502121
v 0.0243844864 0.00323283928 0.00440002876
v 0.0243844864 0.00323283928 -0.00757502121
v 0.0248194811 0.00289917248 0.00440002876
v 0.0248194811 0.00289917248 -0.00757502121
v 0.0251531479 0.00246417778 0.00440002876
v 0.0251531479 0.00246417778 -0.00757502121
v 0.0253629563 0.00195777672 0.00440002876
v 0.0253629563 0.00195777672 -0.00757502121
v 0.0254344818 0.00141418236 0.00440002876
v 0.0254344818 0.00141418236 -0.00757502121
v 0.0253629563 0.000870707209 0.00440002876
v 0.0253629563 0.000870707209 -0.00757502121
v 0.0251531479 0.000364186938 0.00440002876
v 0.0251531479 0.000364186938 -0.00757502121
v 0.0248194811 -7.06885503e-05 0.00440002876
v 0.0248194811 -7.06885503e-05 -0.00757502121
v 0.0243844864 -0.000404474561 0.00440002876
v 0.0243844864 -0.000404474561 -0.00757502121
v 0.0238780854 -0.000614282911 0.00440002876
v 0.0238780854 -0.000614282911 -0.00757502121
v 0.023334491 -0.000685808484 0.00440002876
v 0.023334491 -0.000685808484 -0.00757502121
v 0.0227910159 -0.000614282911 0.00440002876
v 0.0227910159 -0.000614282911 -0.00757502121
v 0.0222844956 -0.000404474561 0.00440002876
v 0.0222844956 -0.000404474561 -0.00757502121
v 0.00565682625 0.0190918471 0.00566185909
v 0.00383816932 0.0180418517 0.00440002876
v 0.00362836098 0.018548372 0.00440002876
v 0.00417195534 0.0176069762 0.00440002876
v 0.00362836098 0.0196354415 0.00440002876
v 0.00383816932 0.0201418425 0.00440002876
v 0.0035568354 0.0190918471 0.00440002876
v 0.00460683082 0.020910504 0.00440002876
v 0.0051133511 0.0211203124 0.00440002876
v 0.00417195534 0.0205768372 0.00440002876
v 0.00620042061 0.0211203124 0.00440002876
v 0.00670682167 0.020910504 0.00440002876
v 0.00565682625 0.021191838 0.00440002876
v 0.00747548317 0.0201418425 0.00440002876
v 0.00768529152 0.0196354415 0.00440002876
v 0.00714181637 0.0205768372 0.00440002876
v 0.00768529152 0.018548372 0.00440002876
v 0.00747548317 0.0180418517 0.00440002876
v 0.00775681709 0.0190918471 0.00440002876
v 0.00670682167 0.0172731902 0.00440002876
v 0.00620042061 0.0170633818 0.00440002876
v 0.00714181637 0.0176069762 0.00440002876
v 0.0051133511 0.0170633818 0.00440002876
v 0.00460683082 0.0172731902 0.00440002876
v 0.00565682625 0.0169918563 0.00440002876
v 0.00417195534 0.0176069762 -0.00757502121
v 0.00383816932 0.0180418517 -0.00757502121
v 0.00362836098 0.018548372 -0.00757502121
v 0.0035568354 0.0190918471 -0.00757502121
v 0.00362836098 0.0196354415 -0.00757502121
v 0.00383816932 0.0201418425 -0.00757502121
v 0.00417195534 0.0205768372 -0.00757502121
v 0.00460683082 0.020910504 -0.00757502121
v 0.0051133511 0.0211203124 -0.00757502121
v 0.00565682625 0.021191838 -0.00757502121
v 0.00620042061 0.0211203124 -0.00757502121
v 0.00670682167 0.020910504 -0.00757502121
v 0.00714181637 0.0205768372 -0.00757502121
v 0.00747548317 0.0201418425 -0.00757502121
v 0.00768529152 0.0196354415 -0.00757502121
v 0.00775681709 0.0190918471 -0.00757502121
v 0.00768529152 0.018548372 -0.00757502121
v 0.00747548317 0.0180418517 -0.00757502121
v 0.00714181637 0.0176069762 -0.00757502121
v 0.00670682167 0.0172731902 -0.00757502121
v 0.00620042061 0.0170633818 -0.00757502121
v 0.00565682625 0.0169918563 -0.00757502121
v 0.0051133511 0.0170633818 -0.00757502121
v 0.00460683082 0.0172731902 -0.00757502121
v 0.00347017025 0.0178294207 -0.00800000233
v 0.00321792339 0.0184383418 -0.00800000233
v 0.00313185428 0.0190918471 -0.00800000233
v 0.00321792339 0.0197453524 -0.00800000233
v 0.00347017025 0.0203543927 -0.00800000233
v 0.00387142872 0.0208773639 -0.00800000233
v 0.00439439987 0.0212786223 -0.00800000233
v 0.00500332092 0.0215308692 -0.00800000233
v 0.00565682625 0.0216169383 -0.00800000233
v 0.00631033157 0.0215308692 -0.00800000233
v 0.00691937183 0.0212786223 -0.00800000233
v 0.00744234299 0.0208773639 -0.00800000233
v 0.00784360145 0.0203543927 -0.00800000233
v 0.00809584831 0.0197453524 -0.00800000233
v 0.00818179821 0.0190918471 -0.00800000233
v 0.00809584831 0.0184383418 -0.00800000233
v 0.00784360145 0.0178294207 -0.00800000233
v 0.00744234299 0.0173064496 -0.00800000233
v 0.00691937183 0.0169051911 -0.00800000233
v 0.00631033157 0.0166529443 -0.00800000233
v 0.00565682625 0.0165668752 -0.00800000233
v 0.00500332092 0.0166529443 -0.00800000233
v 0.00439439987 0.0169051911 -0.00800000233
v 0.00387142872 0.0173064496 -0.00800000233
v 0.0243952153 -0.001767752 0.0114697357
v 0.0247913477 -0.00216388447 0.0114697357
v 0.0255664465 -0.00293898327 0.0128897567
v 0.00263117527 0.0199961688 0.0108660598
v 0.00269566749 0.0199316766 0.0104971071
v 0.00406383251 0.0185635115 0.00871004063
v 0.00207875942 0.0205487038 0.0114697357
v 0.00247489189 0.0201525714 0.0114697357
v 0.00130366062 0.0213238026 0.0128897567
v 0.00426744198 0.0183599021 0.02499999
v 0.00430988048 0.0183175828 0.0106455227
v 0.00396023964 0.0186672236 0.0108503242
v 0.00468503212 0.0179424311 0.010575666
v 0.00571964954 0.0169078137 0.00705720383
v 0.00506018375 0.0175671603 0.0106455227
v 0.00366007065 0.0189673926 0.0140751739
v 0.00396023964 0.0186672236 0.0144009729
v 0.00430988048 0.0183175828 0.0146057745
v 0.00431715225 0.018310311 0.0233488222
v -0.00110365177 0.0237309958 0.0207274099
v -0.000556838762 0.023184302 0.0179674764
v 0.000250565756 0.0223767783 0.0153386732
v 0.00594042515 0.0166870381 0.0116006275
v 0.00570999359 0.0169173505 0.011176004
v 0.0114130852 0.0112143781 0.00419558483
v 0.00464557384 0.0179818894 0.0211932798
v 0.00468503212 0.0179424311 0.0146756311
v 0.00522695755 0.0174005057 0.01914741
v 0.00506018375 0.0175671603 0.0146057745
v 0.00604437565 0.0165830876 0.0172697445
v 0.0054098246 0.0172176387 0.0144009729
v 0.00707446312 0.0155530001 0.0156145235
v 0.00570999359 0.0169173505 0.0140751739
v 0.00828753685 0.0143399264 0.0142294307
v 0.00594042515 0.0166870381 0.0136506696
v 0.00608526443 0.0165421988 0.0131561895
v 0.00964866852 0.0129787947 0.0131540437
v 0.00613461708 0.0164928462 0.012625589
v 0.0111187575 0.0115087058 0.0124194761
v 0.00608526443 0.0165421988 0.0120951076
v 0.0126554844 0.00997197884 0.0120468279
v 0.013434994 0.00919235008 0.00399996239
v 0.0054098246 0.0172176387 0.0108503242
v 0.00751911377 0.0151083495 0.00573851067
v 0.00942872738 0.0131986167 0.00477875668
v 0.00366007065 0.0189673926 0.011176004
v 0.00342963909 0.019197705 0.0116006275
v 0.0032847998 0.0193425443 0.0120951076
v 0.00323544716 0.0193920161 0.012625589
v 0.0032847998 0.0193425443 0.0131561895
v 0.00342963909 0.019197705 0.0136506696
v 0.00570999359 0.0169173505 0.0388239761
v 0.00594042515 0.0166870381 0.0383993526
v 0.013434994 0.00919235008 0.0460000177
v 0.00571964954 0.0169078137 0.0429427763
v 0.00406383251 0.0185635115 0.0412899395
v 0.00430988048 0.0183175828 0.0393544574
v 0.00425087189 0.0183764722 0.0255516906
v -0.00137962128 0.0240069653 0.02499999
v -0.00137962128 0.0240069653 0.023566856
v 0.013434994 0.00919235008 0.0380000015
v 0.00608526443 0.0165421988 0.0379049917
v 0.0118814585 0.0107458855 0.0378129621
v 0.0032847998 0.0193425443 0.0368437906
v 0.00323544716 0.0193920161 0.0373743911
v 0.0032847998 0.0193425443 0.0379049917
v 0.00263117527 0.0199961688 0.0391339203
v 0.00342963909 0.019197705 0.0383993526
v 0.00269566749 0.0199316766 0.039502873
v 0.00366007065 0.0189673926 0.0388239761
v 0.00396023964 0.0186672236 0.0391497751
v 0.00468503212 0.0179424311 0.0394243141
v 0.00506018375 0.0175671603 0.0393544574
v 0.00751911377 0.0151083495 0.0442614694
v 0.0054098246 0.0172176387 0.0391497751
v 0.00942872738 0.0131986167 0.0452212234
v 0.0114130852 0.0112143781 0.0458043953
v 0.0103726265 0.0122547175 0.0372574468
v 0.00613461708 0.0164928462 0.0373743911
v 0.00895189022 0.0136754538 0.0363491912
v 0.00608526443 0.0165421988 0.0368437906
v 0.00766013836 0.0149672057 0.0351144214
v 0.00594042515 0.0166870381 0.0363493105
v 0.00653456425 0.016092899 0.0335887809
v 0.00570999359 0.0169173505 0.0359248062
v 0.0054098246 0.0172176387 0.0355990072
v 0.0056074736 0.0170199897 0.0318160196
v 0.00506018375 0.0175671603 0.0353942056
v 0.0049055693 0.017721894 0.029847159
v 0.00468503212 0.0179424311 0.035324349
v 0.00444899772 0.0181784655 0.0277388235
v 0.00430988048 0.0183175828 0.0353942056
v 0.00396023964 0.0186672236 0.0355990072
v 0.00342963909 0.019197705 0.0363493105
v 0.00130366062 0.0213238026 0.0371103426
v 0.000250565756 0.0223767783 0.0346613069
v -0.000556838762 0.023184302 0.0320325037
v 0.00366007065 0.0189673926 0.0359248062
v -0.00110365177 0.0237309958 0.0292725702
v -0.00137962128 0.0240069653 0.0264331241
v 0.0232100365 -0.00058257324 0.0388239761
v 0.0234403489 -0.000813004796 0.0383993526
v 0.0235851881 -0.000957844083 0.0379049917
v 0.0236345408 -0.00100719673 0.0373743911
v 0.0247913477 -0.00216388447 0.0385303636
v 0.0225602267 6.72365977e-05 0.0393544574
v 0.0228061554 -0.000178811376 0.0412899395
v 0.022185075 0.000442388232 0.0394243141
v 0.0211504576 0.00147700566 0.0429427763
v 0.0218098042 0.000817539866 0.0393544574
v 0.022185075 0.000442388232 0.035324349
v 0.0218098042 0.000817539866 0.0353942056
v 0.0212626336 0.00136482971 0.0318160196
v 0.0203355429 0.00229192036 0.0335887809
v 0.0229098675 -0.000282404249 0.0391497751
v 0.0225602267 6.72365977e-05 0.0353942056
v 0.0282496092 -0.00562226516 0.02499999
v 0.0229098675 -0.000282404249 0.0355990072
v 0.0282496092 -0.00562226516 0.0264331241
v 0.0232100365 -0.00058257324 0.0359248062
v 0.0279736397 -0.00534629566 0.0292725702
v 0.0234403489 -0.000813004796 0.0363493105
v 0.0274269459 -0.00479948265 0.0320325037
v 0.0235851881 -0.000957844083 0.0368437906
v 0.0266194222 -0.00399207813 0.0346613069
v 0.0255664465 -0.00293898327 0.0371103426
v 0.0214602826 0.00116718071 0.0355990072
v 0.0211599944 0.0014673497 0.0359248062
v 0.0192098496 0.00341749447 0.0351144214
v 0.020929682 0.00169778126 0.0363493105
v 0.0179180977 0.00470936554 0.0363491912
v 0.0207848427 0.00184262055 0.0368437906
v 0.0164973614 0.00612998265 0.0372574468
v 0.0207354901 0.00189197319 0.0373743911
v 0.0207848427 0.00184262055 0.0379049917
v 0.0149885294 0.00763881462 0.0378129621
v 0.0214602826 0.00116718071 0.0391497751
v 0.0193509934 0.00327646988 0.0442614694
v 0.0211599944 0.0014673497 0.0388239761
v 0.0174412606 0.00518608349 0.0452212234
v 0.0154570219 0.00717044132 0.0458043953
v 0.020929682 0.00169778126 0.0383993526
v 0.0228061554 -0.000178811376 0.00871004063
v 0.0229098675 -0.000282404249 0.0108503242
v 0.0225602267 6.72365977e-05 0.0106455227
v 0.0225602267 6.72365977e-05 0.0146057745
v 0.0229098675 -0.000282404249 0.0144009729
v 0.0211504576 0.00147700566 0.00705720383
v 0.0219645378 0.000662925418 0.029847159
v 0.0224211094 0.000206353839 0.0277388235
v 0.0226191161 8.2279994e-06 0.0255516906
v 0.022602546 2.47980906e-05 0.02499999
v 0.0225529549 7.45083644e-05 0.0233488222
v 0.0222245333 0.000402929957 0.0211932798
v 0.0232100365 -0.00058257324 0.011176004
v 0.0241743204 -0.00154697639 0.0104971071
v 0.0234403489 -0.000813004796 0.0116006275
v 0.0242388127 -0.00161146862 0.0108660598
v 0.0235851881 -0.000957844083 0.0120951076
v 0.0236345408 -0.00100719673 0.012625589
v 0.0235851881 -0.000957844083 0.0131561895
v 0.0266194222 -0.00399207813 0.0153386732
v 0.0234403489 -0.000813004796 0.0136506696
v 0.0274269459 -0.00479948265 0.0179674764
v 0.0232100365 -0.00058257324 0.0140751739
v 0.0279736397 -0.00534629566 0.0207274099
v 0.0282496092 -0.00562226516 0.023566856
v 0.022185075 0.000442388232 0.010575666
v 0.0218098042 0.000817539866 0.0106455227
v 0.0193509934 0.00327646988 0.00573851067
v 0.0214602826 0.00116718071 0.0108503242
v 0.0174412606 0.00518608349 0.00477875668
v 0.0211599944 0.0014673497 0.011176004
v 0.0154570219 0.00717044132 0.00419558483
v 0.020929682 0.00169778126 0.0116006275
v 0.0207848427 0.00184262055 0.0120951076
v 0.0207354901 0.00189197319 0.012625589
v 0.0207848427 0.00184262055 0.0131561895
v 0.0185825703 0.00404489296 0.0142294307
v 0.020929682 0.00169778126 0.0136506696
v 0.019795644 0.00283181923 0.0156145235
v 0.0211599944 0.0014673497 0.0140751739
v 0.0208257315 0.00180173176 0.0172697445
v 0.0214602826 0.00116718071 0.0144009729
v 0.0216431496 0.000984313662 0.01914741
v 0.0218098042 0.000817539866 0.0146057745
v 0.022185075 0.000442388232 0.0146756311
v 0.0172214386 0.00540602463 0.0131540437
v 0.0157513497 0.00687611359 0.0124194761
v 0.0142146227 0.00841284054 0.0120468279
v 0.013434994 0.00919235008 0.0120468279
f 1 2 3
f 3 2 4
f 3 4 5
f 5 4 6
f 5 6 7
f 7 6 8
f 7 8 9
f 9 8 10
f 9 10 11
f 11 10 12
f 11 12 13
f 13 12 14
f 13 14 15
f 15 14 16
f 15 16 17
f 17 16 18
f 17 18 19
f 19 18 20
f 19 20 21
f 21 20 22
f 21 22 23
f 23 22 24
f 23 24 25
f 25 24 26
f 25 26 27
f 27 26 28
f 27 28 29
f 29 28 30
f 29 30 31
f 31 30 32
f 31 32 33
f 33 32 34
f 33 34 35
f 35 34 36
f 35 36 37
f 37 36 38
f 37 38 39
f 39 38 40
f 39 40 41
f 41 40 42
f 41 42 43
f 43 42 44
f 43 44 45
f 45 44 46
f 45 46 47
f 47 46 48
f 47 48 49
f 49 48 50
f 49 50 51
f 51 50 52
f 51 52 53
f 53 52 54
f 53 54 55
f 55 54 56
f 55 56 57
f 57 56 58
f 57 58 59
f 59 58 60
f 59 60 61
f 61 60 62
f 61 62 63
f 63 62 64
f 63 64 65
f 65 64 66
f 65 66 67
f 67 66 68
f 67 68 69
f 69 68 70
f 69 70 71
f 71 70 72
f 71 72 73
f 73 72 1
f 73 1 3
f 74 39 75
f 75 39 41
f 75 41 76
f 76 41 43
f 76 43 77
f 77 43 45
f 77 45 78
f 78 45 47
f 78 47 79
f 79 47 49
f 79 49 80
f 80 49 51
f 80 51 81
f 81 51 53
f 81 53 82
f 82 53 55
f 82 55 83
f 83 55 57
f 83 57 84
f 84 57 59
f 84 59 85
f 85 59 61
f 85 61 86
f 86 61 63
f 86 63 87
f 87 63 65
f 87 65 88
f 88 65 67
f 88 67 89
f 89 67 69
f 89 69 90
f 90 69 71
f 90 71 91
f 91 71 73
f 91 73 92
f 92 73 3
f 92 3 93
f 93 3 5
f 93 5 94
f 94 5 7
f 94 7 95
f 95 7 9
f 95 9 96
f 96 9 11
f 96 11 97
f 97 11 13
f 97 13 98
f 98 13 15
f 98 15 99
f 99 15 17
f 99 17 100
f 100 17 19
f 100 19 101
f 101 19 21
f 101 21 102
f 102 21 23
f 102 23 103
f 103 23 25
f 103 25 104
f 104 25 27
f 104 27 105
f 105 27 29
f 105 29 106
f 106 29 31
f 106 31 107
f 107 31 33
f 107 33 108
f 108 33 35
f 108 35 109
f 109 35 37
f 109 37 74
f 74 37 39
f 110 111 92
f 92 111 112
f 92 112 91
f 91 112 113
f 91 113 90
f 90 113 114
f 90 114 89
f 89 114 115
f 89 115 88
f 88 115 116
f 88 116 87
f 87 116 117
f 87 117 86
f 86 117 118
f 86 118 85
f 85 118 119
f 85 119 84
f 84 119 120
f 84 120 83
f 83 120 121
f 83 121 82
f 82 121 122
f 82 122 81
f 81 122 123
f 81 123 80
f 80 123 124
f 80 124 79
f 79 124 125
f 79 125 78
f 78 125 126
f 78 126 77
f 77 126 127
f 77 127 76
f 76 127 128
f 76 128 75
f 75 128 129
f 75 129 74
f 74 129 130
f 74 130 109
f 109 130 131
f 109 131 108
f 108 131 132
f 108 132 107
f 107 132 133
f 107 133 106
f 106 133 134
f 106 134 105
f 105 134 135
f 105 135 104
f 104 135 136
f 104 136 103
f 103 136 137
f 103 137 102
f 102 137 138
f 102 138 101
f 101 138 139
f 101 139 100
f 100 139 140
f 100 140 99
f 99 140 141
f 99 141 98
f 98 141 142
f 98 142 97
f 97 142 143
f 97 143 96
f 96 143 144
f 96 144 95
f 95 144 145
f 95 145 94
f 94 145 146
f 94 146 93
f 93 146 110
f 93 110 92
f 147 130 148
f 148 130 129
f 148 129 149
f 149 129 128
f 149 128 150
f 150 128 127
f 150 127 151
f 151 127 126
f 151 126 152
f 152 126 125
f 152 125 153
f 153 125 124
f 153 124 154
f 154 124 123
f 154 123 155
f 155 123 122
f 155 122 156
f 156 122 121
f 156 121 157
f 157 121 120
f 157 120 158
f 158 120 119
f 158 119 159
f 159 119 118
f 159 118 160
f 160 118 117
f 160 117 161
f 161 117 116
f 161 116 162
f 162 116 115
f 162 115 163
f 163 115 114
f 163 114 164
f 164 114 113
f 164 113 165
f 165 113 112
f 165 112 166
f 166 112 111
f 166 111 167
f 167 111 110
f 167 110 168
f 168 110 146
f 168 146 169
f 169 146 145
f 169 145 170
f 170 145 144
f 170 144 171
f 171 144 143
f 171 143 172
f 172 143 142
f 172 142 173
f 173 142 141
f 173 141 174
f 174 141 140
f 174 140 175
f 175 140 139
f 175 139 176
f 176 139 138
f 176 138 177
f 177 138 137
f 177 137 178
f 178 137 136
f 178 136 179
f 179 136 135
f 179 135 180
f 180 135 134
f 180 134 181
f 181 134 133
f 181 133 182
f 182 133 132
f 182 132 183
f 183 132 131
f 183 131 147
f 147 131 130
f 184 185 186
f 186 185 187
f 184 188 185
f 185 188 189
f 185 189 190
f 190 191 185
f 185 191 192
f 185 192 193
f 193 194 185
f 185 194 195
f 185 195 196
f 197 198 199
f 199 198 196
f 200 201 202
f 203 204 200
f 203 200 205
f 205 200 206
f 206 200 202
f 206 202 207
f 207 208 206
f 206 208 209
f 206 209 210
f 197 211 198
f 198 211 206
f 198 206 212
f 212 206 210
f 198 213 196
f 196 213 214
f 196 214 215
f 215 216 196
f 196 216 217
f 196 217 218
f 218 219 196
f 196 219 220
f 196 220 185
f 187 185 221
f 221 185 222
f 221 222 223
f 223 224 221
f 221 224 225
f 221 225 226
f 226 227 221
f 221 227 228
f 221 228 229
f 229 230 221
f 221 230 231
f 221 231 232
f 232 233 221
f 221 233 234
f 221 234 235
f 235 236 221
f 221 236 237
f 221 237 238
f 237 239 238
f 238 239 240
f 238 240 241
f 242 243 244
f 244 243 245
f 242 246 243
f 243 246 247
f 243 247 248
f 248 249 243
f 243 249 250
f 243 250 251
f 251 252 243
f 243 252 253
f 243 253 254
f 254 255 243
f 243 255 256
f 243 256 257
f 241 245 238
f 238 245 243
f 238 243 258
f 258 243 257
f 259 260 261
f 262 263 264
f 264 263 265
f 264 265 266
f 261 260 267
f 264 268 262
f 262 268 269
f 262 269 270
f 270 269 271
f 270 271 272
f 272 271 273
f 272 273 274
f 274 273 275
f 274 275 276
f 276 275 277
f 276 277 278
f 278 277 267
f 278 267 279
f 279 267 260
f 261 280 259
f 259 280 281
f 259 281 282
f 282 281 283
f 282 283 284
f 284 283 285
f 284 285 286
f 286 285 287
f 285 288 287
f 287 288 289
f 287 289 290
f 290 289 291
f 290 291 292
f 292 291 293
f 292 293 294
f 293 295 294
f 294 295 296
f 294 296 297
f 241 240 298
f 241 298 245
f 299 251 250
f 298 300 245
f 245 300 301
f 245 301 244
f 244 301 302
f 244 302 242
f 242 302 303
f 242 303 246
f 246 303 304
f 246 304 247
f 247 304 305
f 247 305 248
f 248 305 306
f 248 306 249
f 249 306 307
f 249 307 250
f 250 307 308
f 250 308 299
f 251 299 252
f 252 299 309
f 252 309 253
f 253 309 310
f 253 310 254
f 254 310 311
f 254 311 255
f 255 311 312
f 255 312 256
f 256 312 313
f 256 313 314
f 315 316 317
f 317 316 318
f 317 318 319
f 319 318 320
f 321 322 315
f 315 322 323
f 315 323 324
f 324 325 315
f 315 325 326
f 315 326 327
f 327 328 315
f 315 328 329
f 315 329 330
f 331 332 333
f 333 332 334
f 333 334 335
f 335 334 316
f 335 316 336
f 336 316 315
f 336 315 337
f 337 315 330
f 338 339 340
f 340 339 341
f 341 342 340
f 340 342 343
f 340 343 344
f 343 345 344
f 344 345 346
f 344 346 347
f 346 348 347
f 347 348 349
f 347 349 350
f 350 349 351
f 352 353 354
f 354 353 355
f 355 353 356
f 355 356 357
f 357 356 358
f 357 358 359
f 359 358 360
f 359 360 361
f 361 360 362
f 361 362 351
f 351 362 363
f 351 363 350
f 364 365 366
f 366 365 367
f 366 367 354
f 354 367 368
f 354 368 352
f 369 370 371
f 371 370 364
f 371 364 372
f 372 364 366
f 321 315 369
f 369 315 373
f 369 373 374
f 374 375 369
f 369 375 376
f 369 376 377
f 377 378 369
f 369 378 379
f 369 379 380
f 380 381 369
f 369 381 382
f 369 382 370
f 383 384 385
f 385 384 386
f 386 384 387
f 386 387 388
f 387 389 388
f 388 389 390
f 388 390 391
f 391 390 392
f 391 392 393
f 393 392 394
f 393 394 395
f 395 394 396
f 395 396 397
f 398 399 400
f 400 399 401
f 400 401 402
f 402 401 403
f 402 403 396
f 396 403 404
f 396 404 397
f 400 405 398
f 398 405 406
f 398 406 407
f 407 406 408
f 407 408 409
f 409 408 410
f 411 412 413
f 411 413 414
f 414 413 415
f 414 415 416
f 416 415 417
f 416 417 418
f 418 417 419
f 418 419 420
f 420 419 421
f 420 421 422
f 422 421 423
f 422 423 424
f 424 423 425
f 424 425 426
f 426 425 427
f 426 427 410
f 410 427 428
f 410 428 409
f 412 411 429
f 429 411 430
f 429 430 431
f 430 432 431
f 431 432 433
f 431 433 434
f 434 433 435
f 434 435 436
f 436 435 437
f 436 437 438
f 437 439 438
f 438 439 440
f 438 440 441
f 441 440 442
f 441 442 443
f 443 442 444
f 443 444 445
f 445 444 446
f 445 446 447
f 447 446 448
f 447 448 449
f 449 448 450
f 449 450 451
f 451 450 452
f 451 452 453
f 453 452 454
f 453 454 455
f 455 456 453
f 453 456 457
f 453 457 458
f 458 457 459
f 458 459 460
f 460 459 461
f 460 461 462
f 462 461 463
f 462 463 464
f 464 463 465
f 464 465 466
f 466 465 467
f 466 467 468
f 469 470 471
f 471 470 472
f 471 472 473
f 473 472 474
f 473 474 467
f 467 474 475
f 467 475 468
f 471 476 469
f 469 476 477
f 469 477 478
f 478 477 479
f 478 479 480
f 480 479 481
f 480 481 482
f 482 481 483
f 483 481 484
f 483 484 485
f 485 484 486
f 485 486 487
f 487 486 488
f 487 488 489
f 489 488 490
f 489 490 491
f 491 490 492
f 491 492 493
f 493 492 494
f 493 494 495
f 495 494 496
f 495 496 497
f 497 496 498
f 497 498 499
f 499 498 500
f 500 498 501
f 500 501 502
f 501 503 502
f 502 503 504
f 502 504 505
f 505 504 506
f 505 506 507
f 507 506 508
f 507 508 509
f 509 508 510
f 509 510 511
f 510 512 511
f 511 512 513
f 511 513 514
f 514 513 515
f 514 515 516
f 516 515 517
f 516 517 518
f 518 517 519
f 518 519 520
f 520 519 521
f 520 521 522
f 522 521 523
f 522 523 385
f 385 523 524
f 385 524 383
f 525 526 527
f 527 526 528
f 529 530 531
f 531 530 532
f 531 532 533
f 533 532 526
f 526 532 528
f 528 532 534
f 528 534 535
f 532 536 534
f 534 536 537
f 534 537 538
f 538 537 539
f 538 539 540
f 540 539 541
f 540 541 542
f 542 541 543
f 544 545 546
f 546 545 547
f 546 547 548
f 549 550 551
f 551 550 552
f 551 552 553
f 553 552 554
f 553 554 555
f 555 554 556
f 555 556 557
f 557 556 558
f 557 558 559
f 559 558 560
f 559 560 561
f 561 560 562
f 561 562 563
f 563 562 564
f 563 564 565
f 565 564 566
f 565 566 567
f 568 569 570
f 570 569 571
f 570 571 572
f 572 571 573
f 572 573 574
f 574 573 575
f 574 575 576
f 576 575 577
f 576 577 578
f 578 577 579
f 578 579 580
f 580 579 581
f 580 581 582
f 582 581 583
f 582 583 584
f 584 583 585
f 584 585 549
f 549 585 586
f 549 586 550
f 566 587 567
f 567 587 588
f 567 588 589
f 589 588 590
f 589 590 591
f 591 590 592
f 591 592 593
f 593 592 594
f 593 594 595
f 595 594 596
f 595 596 597
f 597 596 598
f 597 598 599
f 599 598 600
f 599 600 601
f 601 600 602
f 601 602 603
f 603 602 604
f 603 604 605
f 605 604 606
f 605 606 607
f 607 606 608
f 607 608 609
f 609 608 610
f 609 610 611
f 611 610 612
f 611 612 613
f 613 612 614
f 613 614 615
f 615 614 616
f 615 616 617
f 617 616 618
f 617 618 619
f 619 618 620
f 619 620 621
f 621 620 622
f 621 622 623
f 623 622 624
f 623 624 568
f 568 624 625
f 568 625 569
f 626 627 628
f 628 627 629
f 630 631 632
f 632 631 633
f 634 635 636
f 636 635 637
f 638 639 640
f 640 639 641
f 642 643 644
f 644 643 645
f 646 647 648
f 648 647 649
f 649 647 650
f 650 647 651
f 650 651 652
f 651 653 652
f 652 653 654
f 652 654 655
f 656 657 658
f 659 660 661
f 661 660 662
f 661 662 658
f 658 662 663
f 658 663 656
f 664 665 666
f 666 665 667
f 667 665 668
f 668 665 669
f 668 669 670
f 669 671 670
f 670 671 672
f 670 672 673
f 673 672 674
f 675 676 677
f 677 676 678
f 677 678 674
f 674 678 679
f 674 679 673
f 675 680 676
f 676 680 681
f 682 683 684
f 684 683 685
f 686 687 688
f 688 687 689
f 690 691 692
f 692 691 693
f 694 695 696
f 696 695 697
f 696 697 698
f 698 697 699
f 698 699 700
f 701 702 703
f 703 702 704
f 703 704 705
f 705 704 706
f 705 706 707
f 707 706 708
f 707 708 700
f 700 708 709
f 700 709 698
f 710 711 712
f 712 711 713
f 712 713 714
f 714 713 715
f 714 715 716
f 716 715 717
f 716 717 718
f 718 717 719
f 718 719 701
f 701 719 720
f 701 720 702
f 721 722 723
f 723 722 724
f 725 726 727
f 728 729 730
f 730 729 731
f 730 731 732
f 732 731 733
f 732 733 734
f 734 733 735
f 734 735 727
f 727 735 736
f 727 736 725
f 737 738 739
f 739 738 740
f 741 742 743
f 743 742 744
f 745 746 747
f 747 746 748
f 747 748 749
f 750 751 752
f 752 751 753
f 754 755 756
f 756 755 757
f 320 318 758
f 758 318 759
f 316 334 760
f 760 334 761
f 761 334 762
f 762 334 332
f 332 331 762
f 762 331 763
f 341 339 764
f 764 339 765
f 766 767 385
f 385 767 522
f 768 451 769
f 769 451 453
f 769 453 770
f 771 772 773
f 773 772 774
f 775 776 777
f 777 776 778
f 777 778 779
f 778 780 779
f 779 780 781
f 779 781 782
f 783 784 785
f 785 784 786
f 782 781 786
f 786 781 787
f 786 787 785
f 788 789 790
f 790 789 791
f 790 791 783
f 783 791 792
f 783 792 784
f 790 793 788
f 788 793 794
f 788 794 795
f 795 794 796
f 795 796 797
f 797 796 798
f 797 798 799
f 800 801 802
f 802 801 803
f 799 798 804
f 804 798 805
f 804 805 803
f 803 805 806
f 803 806 802
f 800 807 801
f 801 807 808
f 807 809 808
f 808 809 810
f 810 809 811
f 811 809 812
f 811 812 813
f 813 812 814
f 813 814 815
f 815 814 816
f 815 816 817
f 817 816 818
f 817 818 819
f 819 818 820
f 819 820 821
f 820 822 821
f 821 822 823
f 821 823 824
f 824 823 825
f 824 825 826
f 826 825 827
f 826 827 828
f 828 827 829
f 828 829 830
f 830 829 831
f 831 829 832
f 831 832 833
f 833 832 834
f 833 834 835
f 835 834 836
f 835 836 837
f 837 836 838
f 837 838 839
f 839 838 840
f 839 840 841
f 841 840 842
f 841 842 843
f 843 842 844
f 843 844 845
f 846 847 844
f 844 847 845
f 848 849 850
f 850 849 851
f 852 853 854
f 854 853 855
f 856 857 858
f 858 857 859
f 858 859 860
f 861 862 863
f 863 862 864
f 849 848 865
f 865 848 866
f 865 866 867
f 867 866 868
f 869 543 870
f 870 543 541
f 870 541 871
f 541 539 871
f 871 539 872
f 530 529 873
f 873 529 874
f 525 527 875
f 875 527 528
f 875 528 876
f 876 528 535
f 876 535 877
f 877 535 878
f 878 535 534
f 879 538 880
f 880 538 540
f 880 540 881
f 881 540 542
f 881 542 882
f 883 547 884
f 884 547 545
f 884 545 885
f 886 887 888
f 888 887 889
f 888 889 890
f 891 892 893
f 893 892 894
f 893 894 886
f 886 894 895
f 886 895 887
f 896 897 898
f 898 897 899
f 898 899 900
f 890 901 888
f 888 901 902
f 888 902 903
f 903 902 904
f 903 904 898
f 898 904 905
f 898 905 896
f 906 907 908
f 908 907 909
f 908 909 910
f 906 911 912
f 912 911 913
f 912 913 914
f 914 913 898
f 914 898 915
f 915 898 900
f 916 917 918
f 918 917 919
f 918 919 920
f 921 922 923
f 923 922 916
f 906 908 911
f 911 908 924
f 911 924 921
f 921 924 925
f 921 925 922
f 926 927 928
f 928 927 929
f 928 929 930
f 930 931 928
f 928 931 932
f 928 932 933
f 916 918 923
f 923 918 934
f 923 934 926
f 926 934 935
f 926 935 927
f 936 937 938
f 932 939 933
f 933 939 940
f 933 940 938
f 938 940 941
f 938 941 936
f 937 942 938
f 938 942 943
f 938 943 944
f 944 943 945
f 944 945 946
f 946 945 947
f 946 947 948
f 948 947 949
f 948 949 950
f 950 949 951
f 950 951 952
f 952 951 953
f 952 953 954
f 955 956 957
f 955 957 958
f 953 959 954
f 954 959 960
f 954 960 957
f 957 960 961
f 957 961 962
f 962 963 957
f 957 963 964
f 957 964 958
f 965 966 967
f 967 966 968
f 969 970 971
f 971 970 972
f 971 972 973
f 974 975 976
f 974 976 977
f 977 976 978
f 977 978 979
f 979 978 970
f 979 970 969
f 980 981 982
f 982 981 983
f 982 983 984
f 984 983 985
f 984 985 986
f 986 985 987
f 988 989 990
f 990 989 991
f 990 991 992
f 992 991 993
f 992 993 994
f 994 993 995
f 994 995 996
f 996 995 997
f 996 997 998
f 998 997 999
f 998 999 1000
f 1000 999 1001
f 1000 1001 1002
f 1002 1001 1003
f 1002 1003 1004
f 1004 1003 1005
f 1004 1005 1006
f 1006 1005 1007
f 1006 1007 1008
f 1008 1007 1009
f 1008 1009 1010
f 1010 1009 1011
f 1010 1011 1012
f 1012 1011 1013
f 1012 1013 1014
f 1014 1013 1015
f 1014 1015 1016
f 1016 1015 1017
f 1016 1017 1018
f 1018 1017 1019
f 1018 1019 1020
f 1020 1019 1021
f 1020 1021 1022
f 1022 1021 1023
f 1022 1023 1024
f 1024 1023 1025
f 1024 1025 1026
f 1026 1025 1027
f 1026 1027 1028
f 1028 1027 1029
f 1028 1029 1030
f 1030 1029 1031
f 1030 1031 1032
f 1032 1031 1033
f 1032 1033 1034
f 1034 1033 1035
f 1034 1035 988
f 988 1035 989
f 1036 1037 1038
f 1039 1040 1041
f 1041 1040 1042
f 1041 1042 1043
f 1042 1036 1043
f 1043 1036 1038
f 1043 1038 1044
f 1044 1038 1045
f 1044 1045 1046
f 1046 1045 1047
f 1046 1047 1048
f 1048 1047 1049
f 1048 1049 1050
f 1050 1049 1051
f 1050 1051 1052
f 1052 1051 1053
f 1052 1053 1054
f 1054 1053 1055
f 1054 1055 1056
f 1056 1055 1057
f 1056 1057 1058
f 1058 1057 1059
f 1058 1059 1060
f 1060 1059 1061
f 1060 1061 1062
f 1062 1061 1063
f 1062 1063 1064
f 1064 1063 1065
f 1064 1065 1066
f 1066 1065 1067
f 1066 1067 1068
f 1068 1067 1069
f 1068 1069 1070
f 1070 1069 1071
f 1070 1071 1072
f 1072 1071 1073
f 1072 1073 1074
f 1074 1073 1075
f 1074 1075 1076
f 1076 1075 1077
f 1076 1077 1078
f 1078 1077 1079
f 1078 1079 1080
f 1080 1079 1081
f 1080 1081 1082
f 1082 1081 1083
f 1082 1083 1084
f 1084 1083 1085
f 1084 1085 1039
f 1039 1085 1086
f 1039 1086 1040
f 1087 1088 1089
f 1087 1090 1091
f 1092 1090 1087
f 1089 1092 1087
f 1087 1093 1094
f 1095 1093 1087
f 1091 1095 1087
f 1087 1096 1097
f 1098 1096 1087
f 1094 1098 1087
f 1087 1099 1100
f 1101 1099 1087
f 1097 1101 1087
f 1087 1102 1103
f 1104 1102 1087
f 1100 1104 1087
f 1087 1105 1106
f 1107 1105 1087
f 1103 1107 1087
f 1087 1108 1109
f 1110 1087 1109
f 1106 1108 1087
f 1111 1112 1087
f 1113 1088 1087
f 1112 1113 1087
f 1114 1115 1110
f 1110 1115 1111
f 1110 1111 1087
f 1116 1117 1118
f 1118 1117 1119
f 1118 1119 1120
f 1120 1119 1121
f 1120 1121 1122
f 1122 1121 1123
f 1122 1123 1124
f 1124 1123 1125
f 1124 1125 1126
f 1126 1125 1127
f 1126 1127 1128
f 1128 1127 1129
f 1128 1129 1130
f 1130 1129 1131
f 1130 1131 1132
f 1132 1131 1133
f 1132 1133 1134
f 1134 1133 1135
f 1134 1135 1136
f 1136 1135 1137
f 1136 1137 1138
f 1138 1137 1139
f 1138 1139 1140
f 1140 1139 1141
f 1140 1141 1142
f 1142 1141 1143
f 1142 1143 1144
f 1144 1143 1145
f 1144 1145 1146
f 1146 1145 1147
f 1146 1147 1148
f 1148 1147 1149
f 1148 1149 1150
f 1150 1149 1151
f 1150 1151 1152
f 1152 1151 1153
f 1152 1153 1154
f 1154 1153 1155
f 1154 1155 1156
f 1156 1155 1157
f 1156 1157 1158
f 1158 1157 1159
f 1158 1159 1160
f 1160 1159 1161
f 1160 1161 1162
f 1162 1161 1163
f 1162 1163 1116
f 1116 1163 1117
f 1164 1165 1166
f 1166 1165 1167
f 1166 1167 1168
f 1168 1167 1169
f 1168 1169 1170
f 1170 1169 1171
f 1170 1171 1172
f 1172 1171 1173
f 1172 1173 1174
f 1174 1173 1175
f 1174 1175 1176
f 1176 1175 1177
f 1176 1177 1178
f 1178 1177 1179
f 1178 1179 1180
f 1180 1179 1181
f 1180 1181 1182
f 1182 1181 1183
f 1182 1183 1184
f 1184 1183 1185
f 1184 1185 1186
f 1186 1185 1187
f 1186 1187 1188
f 1188 1187 1189
f 1188 1189 1190
f 1190 1189 1191
f 1190 1191 1192
f 1192 1191 1193
f 1192 1193 1194
f 1194 1193 1195
f 1194 1195 1196
f 1196 1195 1197
f 1196 1197 1198
f 1198 1197 1199
f 1198 1199 1200
f 1200 1199 1201
f 1200 1201 1202
f 1202 1201 1203
f 1202 1203 1204
f 1204 1203 1205
f 1204 1205 1206
f 1206 1205 1207
f 1206 1207 1208
f 1208 1207 1209
f 1208 1209 1210
f 1210 1209 1211
f 1210 1211 1164
f 1164 1211 1165
f 1167 1212 1169
f 1169 1212 1213
f 1169 1213 1171
f 1171 1213 1214
f 1171 1214 1173
f 1173 1214 1215
f 1173 1215 1175
f 1175 1215 1216
f 1175 1216 1177
f 1177 1216 1217
f 1177 1217 1179
f 1179 1217 1218
f 1179 1218 1181
f 1181 1218 1219
f 1181 1219 1183
f 1183 1219 1220
f 1183 1220 1185
f 1185 1220 1221
f 1185 1221 1187
f 1187 1221 1222
f 1187 1222 1189
f 1189 1222 1223
f 1189 1223 1191
f 1191 1223 1224
f 1191 1224 1193
f 1193 1224 1225
f 1193 1225 1195
f 1195 1225 1226
f 1195 1226 1197
f 1197 1226 1227
f 1197 1227 1199
f 1199 1227 1228
f 1199 1228 1201
f 1201 1228 1229
f 1201 1229 1203
f 1203 1229 1230
f 1203 1230 1205
f 1205 1230 1231
f 1205 1231 1207
f 1207 1231 1232
f 1207 1232 1209
f 1209 1232 1233
f 1209 1233 1211
f 1211 1233 1234
f 1211 1234 1165
f 1165 1234 1235
f 1165 1235 1167
f 1167 1235 1212
f 1236 1237 1238
f 1238 1237 1239
f 1238 1239 1240
f 1240 1239 1241
f 1240 1241 1242
f 1242 1241 1243
f 1242 1243 1244
f 1244 1243 1245
f 1244 1245 1246
f 1246 1245 1247
f 1246 1247 1248
f 1248 1247 1249
f 1248 1249 1250
f 1250 1249 1251
f 1250 1251 1252
f 1252 1251 1253
f 1252 1253 1254
f 1254 1253 1255
f 1254 1255 1256
f 1256 1255 1257
f 1256 1257 1258
f 1258 1257 1259
f 1258 1259 1260
f 1260 1259 1261
f 1260 1261 1262
f 1262 1261 1263
f 1262 1263 1264
f 1264 1263 1265
f 1264 1265 1266
f 1266 1265 1267
f 1266 1267 1268
f 1268 1267 1269
f 1268 1269 1270
f 1270 1269 1271
f 1270 1271 1272
f 1272 1271 1273
f 1272 1273 1274
f 1274 1273 1275
f 1274 1275 1276
f 1276 1275 1277
f 1276 1277 1278
f 1278 1277 1279
f 1278 1279 1280
f 1280 1279 1281
f 1280 1281 1282
f 1282 1281 1283
f 1282 1283 1236
f 1236 1283 1237
f 1284 1285 1286
f 1287 1285 1284
f 1284 1288 1289
f 1290 1288 1284
f 1286 1290 1284
f 1284 1291 1292
f 1293 1291 1284
f 1289 1293 1284
f 1284 1294 1295
f 1296 1294 1284
f 1292 1296 1284
f 1284 1297 1298
f 1299 1297 1284
f 1295 1299 1284
f 1284 1300 1301
f 1302 1300 1284
f 1298 1302 1284
f 1284 1303 1304
f 1305 1303 1284
f 1301 1305 1284
f 1284 1306 1307
f 1308 1306 1284
f 1304 1308 1284
f 1307 1287 1284
f 1287 1309 1285
f 1285 1309 1310
f 1285 1310 1286
f 1286 1310 1311
f 1286 1311 1290
f 1290 1311 1312
f 1290 1312 1288
f 1288 1312 1313
f 1288 1313 1289
f 1289 1313 1314
f 1289 1314 1293
f 1293 1314 1315
f 1293 1315 1291
f 1291 1315 1316
f 1291 1316 1292
f 1292 1316 1317
f 1292 1317 1296
f 1296 1317 1318
f 1296 1318 1294
f 1294 1318 1319
f 1294 1319 1295
f 1295 1319 1320
f 1295 1320 1299
f 1299 1320 1321
f 1299 1321 1297
f 1297 1321 1322
f 1297 1322 1298
f 1298 1322 1323
f 1298 1323 1302
f 1302 1323 1324
f 1302 1324 1300
f 1300 1324 1325
f 1300 1325 1301
f 1301 1325 1326
f 1301 1326 1305
f 1305 1326 1327
f 1305 1327 1303
f 1303 1327 1328
f 1303 1328 1304
f 1304 1328 1329
f 1304 1329 1308
f 1308 1329 1330
f 1308 1330 1306
f 1306 1330 1331
f 1306 1331 1307
f 1307 1331 1332
f 1307 1332 1287
f 1287 1332 1309
f 1310 1333 1311
f 1311 1333 1334
f 1311 1334 1312
f 1312 1334 1335
f 1312 1335 1313
f 1313 1335 1336
f 1313 1336 1314
f 1314 1336 1337
f 1314 1337 1315
f 1315 1337 1338
f 1315 1338 1316
f 1316 1338 1339
f 1316 1339 1317
f 1317 1339 1340
f 1317 1340 1318
f 1318 1340 1341
f 1318 1341 1319
f 1319 1341 1342
f 1319 1342 1320
f 1320 1342 1343
f 1320 1343 1321
f 1321 1343 1344
f 1321 1344 1322
f 1322 1344 1345
f 1322 1345 1323
f 1323 1345 1346
f 1323 1346 1324
f 1324 1346 1347
f 1324 1347 1325
f 1325 1347 1348
f 1325 1348 1326
f 1326 1348 1349
f 1326 1349 1327
f 1327 1349 1350
f 1327 1350 1328
f 1328 1350 1351
f 1328 1351 1329
f 1329 1351 1352
f 1329 1352 1330
f 1330 1352 1353
f 1330 1353 1331
f 1331 1353 1354
f 1331 1354 1332
f 1332 1354 1355
f 1332 1355 1309
f 1309 1355 1356
f 1309 1356 1310
f 1310 1356 1333
f 1357 1358 1359
f 1360 1361 1362
f 1363 1364 1365
f 1365 1364 1366
f 1364 1367 1368
f 1364 1360 1367
f 1367 1360 1362
f 1367 1362 1369
f 1369 1362 1370
f 1369 1370 1371
f 1372 1373 1366
f 1366 1373 1374
f 1366 1374 1375
f 1376 1377 1366
f 1366 1377 1378
f 1366 1378 1365
f 1379 1380 1381
f 1375 1374 1382
f 1382 1374 1383
f 1382 1383 1384
f 1384 1383 1385
f 1384 1385 1386
f 1386 1385 1387
f 1386 1387 1388
f 1388 1387 1389
f 1388 1389 1390
f 1389 1391 1390
f 1390 1391 1392
f 1390 1392 1393
f 1393 1392 1394
f 1393 1394 1395
f 1395 1394 1396
f 1395 1396 1397
f 1397 1396 1379
f 1397 1379 1398
f 1398 1379 1381
f 1371 1370 1399
f 1399 1370 1400
f 1399 1400 1380
f 1380 1400 1401
f 1380 1401 1381
f 1368 1402 1364
f 1364 1402 1403
f 1364 1403 1404
f 1404 1405 1364
f 1364 1405 1406
f 1364 1406 1366
f 1366 1406 1407
f 1366 1407 1372
f 1408 1409 1410
f 1411 1412 1413
f 1414 1415 1366
f 1366 1415 1416
f 1366 1416 1376
f 1410 1409 1417
f 1417 1409 1418
f 1417 1418 1419
f 1420 1421 1037
f 1037 1421 1422
f 1037 1422 1423
f 1423 1422 1424
f 1423 1424 1425
f 1425 1424 1426
f 1425 1426 1412
f 1412 1426 1427
f 1412 1427 1413
f 1413 1428 1411
f 1411 1428 1429
f 1411 1429 1430
f 1430 1429 1431
f 1430 1431 1432
f 1432 1431 1408
f 1432 1408 1433
f 1433 1408 1410
f 1419 1418 1434
f 1434 1418 1435
f 1434 1435 1436
f 1436 1435 1437
f 1436 1437 1438
f 1438 1437 1439
f 1438 1439 1440
f 1439 1441 1440
f 1440 1441 1442
f 1440 1442 1443
f 1443 1442 1444
f 1443 1444 1445
f 1445 1444 1446
f 1445 1446 1447
f 1447 1446 1448
f 1447 1448 1414
f 1414 1448 1449
f 1414 1449 1415
f 1420 1037 1450
f 1450 1037 1036
f 1450 1036 1451
f 1451 1452 1450
f 1450 1452 1453
f 1450 1453 1454
f 1454 1453 1455
f 1454 1455 1449
f 1449 1455 1456
f 1449 1456 1415
f 1457 1458 1113
f 1458 1459 1113
f 1113 1459 1460
f 1113 1460 1461
f 1462 1463 1464
f 1464 1463 1465
f 1464 1465 1466
f 1467 1468 1469
f 1469 1468 1470
f 1111 1463 1112
f 1112 1463 1462
f 1112 1462 1113
f 1113 1462 1471
f 1113 1471 1457
f 1472 1473 1474
f 1474 1473 1475
f 1474 1475 1476
f 1476 1475 1477
f 1476 1477 1478
f 1478 1477 1479
f 1478 1479 1480
f 1480 1479 1481
f 1480 1481 1460
f 1460 1481 1482
f 1460 1482 1461
f 1468 1483 1470
f 1470 1483 1484
f 1470 1484 1485
f 1485 1484 1486
f 1485 1486 1487
f 1487 1486 1488
f 1487 1488 1489
f 1488 1490 1489
f 1489 1490 1491
f 1489 1491 1492
f 1466 1465 1493
f 1493 1465 1494
f 1493 1494 1495
f 1494 1496 1495
f 1495 1496 1497
f 1495 1497 1498
f 1498 1497 1410
f 1498 1410 1491
f 1491 1410 1417
f 1491 1417 1492
f 1499 1500 1501
f 1502 1503 1473
f 1499 1501 1504
f 1469 1505 1467
f 1467 1505 1506
f 1467 1506 1472
f 1472 1506 1507
f 1472 1507 1473
f 1473 1507 1508
f 1473 1508 1502
f 1502 1508 1509
f 1502 1509 1510
f 1500 1499 1511
f 1511 1499 1512
f 1511 1512 1513
f 1513 1512 1514
f 1513 1514 1515
f 1515 1514 1357
f 1515 1357 1516
f 1516 1357 1359
f 1516 1359 1517
f 1517 1359 1518
f 1517 1518 1519
f 1519 1518 1520
f 1519 1520 1521
f 1521 1520 1522
f 1521 1522 1503
f 1503 1522 1523
f 1503 1523 1473
f 1501 1524 1504
f 1504 1524 1525
f 1504 1525 1526
f 1526 1525 1527
f 1526 1527 1528
f 1528 1527 1529
f 1528 1529 1530
f 1530 1529 1398
f 1398 1529 1531
f 1398 1531 1532
f 1533 1534 1535
f 1535 1534 1536
f 1535 1536 1537
f 1537 1536 1538
f 1537 1538 1539
f 1539 1538 1540
f 1539 1540 1541
f 1541 1540 1542
f 1541 1542 1510
f 1510 1542 1543
f 1510 1543 1502
f 1535 1544 1533
f 1533 1544 1545
f 1533 1545 1532
f 1532 1545 1546
f 1532 1546 1398
f 1398 1546 1547
f 1398 1547 1397
