v 0.0110641809 0.0143917083 0.0225851675
v 0.0116065832 0.0138492464 0.011725082
v 0.0106066556 0.0148492335 0.022500052
v 0.0100058408 0.0154499887 0.0116770406
v 0.0101490112 0.0153067588 0.0225851675
v 0.011856565 0.0135992645 0.0232322355
v 0.0160575004 0.00939832915 0.0141005655
v 0.0114904733 0.0139653562 0.0228349109
v 0.01467658 0.0107792496 0.0129546066
v 0.0131785961 0.0122772335 0.0121550699
v 0.00889910177 0.0165567874 0.024352922
v 0.00127078012 0.024185109 0.0230236192
v 0.00883878187 0.0166169881 0.02499999
v 0.00116885618 0.0242869734 0.0252833505
v 0.00889910177 0.0165567874 0.0256470581
v 0.00935662702 0.0160992621 0.0232322355
v 0.00313783602 0.0223179935 0.0168355842
v 0.00907565073 0.0163801788 0.0237499614
v 0.00226963476 0.0231862544 0.0187381645
v 0.00164116339 0.0238146066 0.0208207508
v 0.00842238382 0.0170334457 0.0120122571
v 0.00690175012 0.0185540794 0.0127210756
v 0.00972271875 0.0157331108 0.0228349109
v 0.00548768953 0.01996814 0.0137832303
v 0.00422085241 0.0212349175 0.0151679655
v 0.0106066556 0.0148492335 0.0275000473
v 0.0120041461 0.013451743 0.0382028957
v 0.0110641809 0.0143917083 0.0274148126
v 0.0135617347 0.0118940948 0.0376789709
v 0.0114904733 0.0139653562 0.0271650691
v 0.001338491 0.0241173982 0.0275349756
v 0.00177467779 0.0236811518 0.0297136445
v 0.00907565073 0.0163801788 0.0262500186
v 0.00246501879 0.0229908108 0.0317566534
v 0.00935662702 0.0160992621 0.0267677446
v 0.0123744102 0.013081479 0.02499999
v 0.0199933143 0.00546245564 0.0235858102
v 0.0123140903 0.0131417393 0.024352922
v 0.0196893306 0.00576649893 0.0213626762
v 0.0121375413 0.0133182882 0.0237499614
v 0.0121375413 0.0133182882 0.0262500186
v 0.0192890258 0.00616674412 0.0302394767
v 0.0123140903 0.0131417393 0.0256470581
v 0.0197903009 0.00566552867 0.0280889411
v 0.020027289 0.00542848099 0.0258495946
v 0.0150344463 0.0104214429 0.0367902656
v 0.0163797231 0.00907616604 0.0355624099
v 0.011856565 0.0135992645 0.0267677446
v 0.0175589414 0.00789694775 0.0340306898
v 0.0185381265 0.00691776265 0.0322392126
v 0.0191240402 0.00633184899 0.0192442079
v 0.0183136554 0.00714217413 0.0172912021
v 0.0172816606 0.00817422856 0.015560164
v 0.00972271875 0.0157331108 0.0271650691
v 0.0072735639 0.0181822656 0.0374901433
v 0.0101490112 0.0153067588 0.0274148126
v 0.00881410555 0.016641724 0.0381071706
v 0.0104062648 0.0150496243 0.0383470197
v 0.00338960604 0.0220662831 0.033605351
v 0.00452173666 0.0209340929 0.035206451
v 0.00582898573 0.0196269034 0.0365139385
v -0.00155042692 0.019287753 0.00757254557
v -0.00163637682 0.0193540334 0.00765789942
v -0.00164031073 0.0193580269 0.00764955477
v -0.00167058989 0.0193807958 0.00768722491
v -0.001674643 0.0193847894 0.00767899947
v -0.00142787977 0.019246149 0.00749505953
v -0.00142394587 0.0192422747 0.00750328498
v -0.00146602675 0.0192531227 0.00751615958
v -0.00146209284 0.0192491888 0.00752450423
v -0.00148116633 0.0192593216 0.00752629237
v -0.00147723242 0.0192553877 0.00753463702
v -0.0015500693 0.0192875146 0.00757230715
v -0.00154613539 0.0192835807 0.0075806518
v -0.00154649302 0.0192838191 0.00758089022
v -0.00137018248 0.0196869253 0.00767780738
v -0.00137137457 0.0196690439 0.00766970114
v -0.00136612936 0.0196829318 0.00768603282
v -0.00136732145 0.0196650504 0.00767804579
v -0.00136732145 0.0196646928 0.00767780738
v -0.00137137457 0.0196683287 0.00766946272
v -0.00137161299 0.0196496724 0.00767268138
v -0.0013756661 0.0196536659 0.00766433673
v -0.00137280508 0.0196457385 0.00767125086
v -0.0013768582 0.0196493744 0.00766290621
v -0.00137626215 0.0196379899 0.00766922431
v -0.00138043448 0.0196416854 0.00766087966
v -0.00137769266 0.0196359633 0.00766886668
v -0.00138162657 0.0196398972 0.00766064124
v -0.00139116331 0.0196257709 0.00765837626
v -0.00140856787 0.0196045517 0.00765646891
v -0.00140451475 0.0196005582 0.00766481356
v -0.00139652773 0.0196177839 0.00765718417
v -0.0013922362 0.0196142076 0.00766540961
v -0.00138722941 0.0196217774 0.0076666017
v -0.00554274603 0.0224950193 0.0124343772
v -0.00570391699 0.0226561307 0.0127453943
v -0.00554846808 0.0225006818 0.0124284168
v -0.00570963904 0.0226619123 0.012739553
v -0.00466178938 0.0235029935 0.0125385662
v -0.00482152983 0.0236627935 0.0128512521
v -0.00465606733 0.023497331 0.0125445266
v -0.00481580778 0.0236570119 0.0128570934
v -0.00375341459 0.0225925921 0.0109743019
v -0.0037586598 0.0225978373 0.0109676261
v -0.00389384314 0.0227329611 0.011198773
v -0.00391732737 0.0227565049 0.0112217803
v -0.00391208216 0.0227512001 0.0112283369
v -0.00359736963 0.0205578088 0.00940622286
v -0.00350987002 0.0204702495 0.00929535823
v -0.00359260126 0.0205530404 0.00941361384
v -0.00349639937 0.0204567193 0.00927843051
v -0.00340007826 0.0203605174 0.00917197661
v -0.00332175776 0.0202821373 0.00906290011
v -0.00331710859 0.0202775477 0.0090705295
v -0.00200711771 0.0208462356 0.00863481955
v -0.00201152846 0.020850706 0.00862695174
v -0.00223576113 0.0210749387 0.00890017943
v -0.00243102595 0.0212701439 0.00912226634
v -0.00246070906 0.0212998866 0.00917197661
v -0.0028372912 0.0216764687 0.00963903861
v -0.00283252283 0.0216716408 0.00964631037
v 0.000416526354 0.0170325517 0.00590945677
v 0.000413546122 0.0170354723 0.00590039687
v 0.000225672282 0.0172233461 0.00603546099
v -0.000556698286 0.0180057763 0.00659097628
v -0.000553360426 0.0180023788 0.00659979777
v -5.11690294e-06 0.0183612584 0.00652684168
v -8.57397234e-06 0.0183646559 0.0065180202
v 0.000334748782 0.0180213331 0.00627483325
v 0.000473389185 0.0178827523 0.00616551833
v 0.000679263628 0.0176768779 0.00603546099
v 0.000964054621 0.0173920869 0.00583816962
v 0.000966915644 0.0173891662 0.00584722952
v 0.000999102152 0.0178400158 0.00598312811
v 0.00099612192 0.017842996 0.00597406821
v -0.000313630544 0.0179872989 0.00650180773
v -0.000316968404 0.0179906367 0.00649298625
v 1.01418861e-05 0.0176635264 0.00626291232
v 0.000179419077 0.0174942492 0.00613261656
v 0.000337967432 0.0173356413 0.00603546099
v 0.000684985674 0.016988623 0.00579883055
v 0.000687965907 0.016985762 0.00580789046
v 0.000717172182 0.0173834442 0.00592578845
v 0.00071419195 0.0173863648 0.00591672854
v -0.00907026812 0.0132152318 0.00831986861
v -0.00906251951 0.0132176756 0.00831700759
v -0.00906657263 0.0132233976 0.00830973582
v -0.00860845133 0.0134695648 0.00820864634
v -0.00861262365 0.0134737967 0.00820065932
v -0.00868259951 0.0134025096 0.00821246104
v -0.00869034811 0.0134093045 0.00820769267
v -0.00868367239 0.0134018539 0.00821258025
v -0.00875352904 0.013356912 0.00821341471
v -0.00880383536 0.0133214473 0.0082337995
v -0.00880800768 0.0133262752 0.0082260509
v -0.00883494898 0.0133006452 0.00823928313
v -0.00889288469 0.0132784723 0.00824583964
v -0.00890230223 0.0132681011 0.00825799899
v -0.00893007799 0.0132593988 0.00826813178
v -0.00893448874 0.0132639884 0.00826038317
v -0.00903915449 0.0132274507 0.00829709963
v -0.00913833662 0.013204801 0.00835110144
v -0.0091599135 0.0132095693 0.00835288958
v -0.00915538355 0.0132049798 0.00836051898
v -0.00918602034 0.013205695 0.00836492972
v -0.00928377196 0.0132061123 0.0084314485
v -0.00928758665 0.0132116555 0.00842393832
v -0.00930117651 0.0132062911 0.00844110446
v -0.00932692572 0.0132139205 0.0084468265
v -0.00936686083 0.0132189273 0.00848449664
v -0.00940465017 0.0132393121 0.00850428538
v -0.00940119311 0.0132327556 0.00851143794
v -0.00945257231 0.0132549881 0.00853980975
v -0.00948535486 0.0132657169 0.00856412844
v -0.00950573965 0.0132748364 0.00859345393
v -0.00951360747 0.0132862805 0.00859190421
v -0.0095114617 0.0132792472 0.00859929518
v -0.00960957094 0.0133559584 0.00868596034
v -0.00960504099 0.013351488 0.00869370894
v -0.00288902804 0.0176182865 0.00741733508
v -0.0022187142 0.0177012562 0.00715257125
v -0.0022148995 0.0176975011 0.0071610351
v -0.00288461729 0.0176144718 0.00742544131
v -0.0029206185 0.017609465 0.00744081931
v -0.00443517252 0.0174043058 0.00807823138
v -0.0047223477 0.0173597216 0.00821079211
v -0.00472663923 0.0173639535 0.00820280509
v 0.00536383108 0.0229204177 0.0155856748
v 0.00455201582 0.0237322329 0.0168355842
v 0.00368381456 0.0246004342 0.0187381645
v 0.0030554624 0.025228846 0.0208207508
v 0.00268495993 0.0255992888 0.0230236192
v 0.00258303598 0.0257012128 0.0252833505
v 0.0027526708 0.025531578 0.0275349756
v 0.0031889768 0.0250953316 0.0297136445
v 0.00387919859 0.0244050502 0.0317566534
v 0.00480378584 0.0234804629 0.033605351
v 0.00536991075 0.0229143976 0.0344058414
v 0.00593591646 0.0223483323 0.035206451
v 0.00724316553 0.0210411428 0.0365139385
v 0.00868786291 0.0195964455 0.0374901433
v 0.0102284046 0.0180559038 0.0381071706
v 0.0118204446 0.0164638041 0.0383470197
v 0.0134183259 0.0148659228 0.0382028957
v 0.0149760337 0.0133082746 0.0376789709
v 0.0164486261 0.0118356227 0.0367902656
v 0.0177939029 0.0104903458 0.0355624099
v 0.0186777206 0.00960652817 0.0344143053
v 0.0189731212 0.00931118716 0.0340306898
v 0.0199523063 0.00833200205 0.0322392126
v 0.0207033248 0.00758098353 0.0302394767
v 0.0212044807 0.00707976807 0.0280889411
v 0.021441588 0.0068427204 0.0258495946
v 0.0214076133 0.00687669505 0.0235858102
v 0.0211035104 0.00718073834 0.0213626762
v 0.02053822 0.00774602879 0.0192442079
v 0.0197278352 0.00855641354 0.0172912021
v 0.0186958404 0.00958846797 0.015560164
v 0.0174716802 0.0108125686 0.0141005655
v 0.0160907598 0.0121934294 0.0129546066
v 0.0145927759 0.0136914729 0.0121550699
v 0.0130208822 0.0152634262 0.011725082
v 0.0114201398 0.0168641685 0.0116770406
v 0.00983656362 0.0184476851 0.0120122571
v 0.00831592993 0.0199683188 0.0127210756
v 0.00690186933 0.0213823794 0.0137832303
v 0.00563515142 0.0226491569 0.0151679655
f 1 2 3
f 3 2 4
f 3 4 5
f 6 7 8
f 8 7 9
f 8 9 1
f 1 9 10
f 1 10 2
f 11 12 13
f 13 12 14
f 13 14 15
f 16 17 18
f 18 17 19
f 18 19 11
f 11 19 20
f 11 20 12
f 4 21 5
f 5 21 22
f 5 22 23
f 23 22 24
f 23 24 16
f 16 24 25
f 16 25 17
f 26 27 28
f 28 27 29
f 28 29 30
f 14 31 15
f 15 31 32
f 15 32 33
f 33 32 34
f 33 34 35
f 36 37 38
f 38 37 39
f 38 39 40
f 41 42 43
f 43 42 44
f 43 44 36
f 36 44 45
f 36 45 37
f 29 46 30
f 30 46 47
f 30 47 48
f 48 47 49
f 48 49 41
f 41 49 50
f 41 50 42
f 39 51 40
f 40 51 52
f 40 52 6
f 6 52 53
f 6 53 7
f 54 55 56
f 56 55 57
f 56 57 26
f 26 57 58
f 26 58 27
f 34 59 35
f 35 59 60
f 35 60 54
f 54 60 61
f 54 61 55
f 62 63 64
f 64 63 65
f 64 65 66
f 67 68 69
f 69 68 70
f 69 70 71
f 71 70 72
f 71 72 73
f 73 72 74
f 73 74 62
f 62 74 75
f 62 75 63
f 76 77 78
f 78 77 79
f 79 77 80
f 80 77 81
f 80 81 82
f 82 81 83
f 82 83 84
f 84 83 85
f 84 85 86
f 86 85 87
f 86 87 88
f 88 87 89
f 88 89 90
f 91 92 93
f 93 92 94
f 93 94 90
f 90 94 95
f 90 95 88
f 96 97 98
f 98 97 99
f 100 101 102
f 102 101 103
f 104 105 106
f 106 105 107
f 106 107 108
f 109 110 111
f 111 110 112
f 111 112 113
f 113 112 114
f 113 114 115
f 116 117 118
f 118 117 119
f 118 119 120
f 120 119 121
f 120 121 122
f 123 124 125
f 125 124 126
f 125 126 127
f 128 129 130
f 130 129 131
f 130 131 132
f 132 131 133
f 132 133 134
f 134 133 135
f 135 133 136
f 137 138 139
f 139 138 140
f 139 140 141
f 141 140 142
f 141 142 143
f 143 142 144
f 144 142 145
f 146 147 148
f 149 150 151
f 151 150 152
f 151 152 153
f 153 152 154
f 153 154 155
f 155 154 156
f 155 156 157
f 157 156 158
f 157 158 159
f 159 158 160
f 160 158 161
f 160 161 147
f 147 161 162
f 147 162 148
f 146 148 163
f 163 148 164
f 163 164 165
f 165 164 166
f 165 166 167
f 167 166 168
f 167 168 169
f 169 168 170
f 169 170 171
f 171 170 172
f 171 172 173
f 172 174 173
f 173 174 175
f 173 175 176
f 176 175 177
f 176 177 178
f 178 177 179
f 178 179 180
f 181 182 183
f 183 184 181
f 181 184 185
f 181 185 186
f 186 185 187
f 186 187 188
f 25 189 17
f 17 189 190
f 17 190 19
f 19 190 191
f 19 191 20
f 20 191 192
f 20 192 12
f 12 192 193
f 12 193 14
f 14 193 194
f 14 194 31
f 31 194 195
f 31 195 32
f 32 195 196
f 32 196 34
f 34 196 197
f 34 197 59
f 197 198 59
f 59 198 199
f 59 199 60
f 60 199 200
f 60 200 61
f 61 200 201
f 61 201 55
f 55 201 202
f 55 202 57
f 57 202 203
f 57 203 58
f 58 203 204
f 58 204 27
f 27 204 205
f 27 205 29
f 29 205 206
f 29 206 46
f 46 206 207
f 46 207 47
f 207 208 47
f 47 208 209
f 47 209 49
f 49 209 210
f 49 210 50
f 50 210 211
f 50 211 42
f 42 211 212
f 42 212 44
f 44 212 213
f 44 213 45
f 45 213 214
f 45 214 37
f 37 214 215
f 37 215 39
f 39 215 216
f 39 216 51
f 51 216 217
f 51 217 52
f 52 217 218
f 52 218 53
f 53 218 219
f 53 219 7
f 7 219 220
f 7 220 9
f 9 220 221
f 9 221 10
f 10 221 222
f 10 222 2
f 2 222 223
f 2 223 4
f 4 223 224
f 4 224 21
f 21 224 225
f 21 225 22
f 22 225 226
f 22 226 24
f 24 226 227
f 24 227 25
f 25 227 228
f 25 228 189
