v -0.00989948794 -0.00565685045 0.0455000539
v -0.013434997 -0.00919235956 0.0455000539
v -0.0104485659 -0.00510783206 0.0453977724
v -0.013984075 -0.00864334117 0.0453977724
v -0.0109602122 -0.00459618579 0.0450980802
v -0.0144957213 -0.00813175451 0.0450980802
v -0.0113994984 -0.00415683996 0.0446213623
v -0.0149350075 -0.00769240867 0.0446213623
v -0.0117366223 -0.00381971609 0.0440000434
v -0.0152721314 -0.0073552848 0.0440000434
v -0.0119485764 -0.00360782157 0.043276443
v -0.0154840855 -0.00714333068 0.043276443
v -0.0120208172 -0.00353552114 0.0425000329
v -0.0155563264 -0.00707108985 0.0425000329
v -0.0119485764 -0.00360782157 0.0417235036
v -0.0154840855 -0.00714333068 0.0417235036
v -0.0117366223 -0.00381971609 0.0410000225
v -0.0152721314 -0.0073552848 0.0410000225
v -0.0113994984 -0.00415683996 0.0403787036
v -0.0149350075 -0.00769240867 0.0403787036
v -0.0109602122 -0.00459618579 0.0399018665
v -0.0144957213 -0.00813175451 0.0399018665
v -0.0104485659 -0.00510783206 0.0396021743
v -0.013984075 -0.00864334117 0.0396021743
v -0.00989948794 -0.00565685045 0.039500012
v -0.013434997 -0.00919235956 0.039500012
v -0.00935040995 -0.00620586883 0.0396021743
v -0.0128860383 -0.00974143754 0.0396021743
v -0.00883888289 -0.0067175151 0.0399018665
v -0.012374392 -0.0102530242 0.0399018665
v -0.00839947745 -0.00715686094 0.0403787036
v -0.0119349866 -0.01069237 0.0403787036
v -0.00806235357 -0.00749398481 0.0410000225
v -0.0115978627 -0.0110294939 0.0410000225
v -0.00785039946 -0.00770587932 0.0417235036
v -0.0113860278 -0.011241448 0.0417235036
v -0.00777815863 -0.00777817975 0.0425000329
v -0.0113136677 -0.0113136889 0.0425000329
v -0.00785039946 -0.00770587932 0.043276443
v -0.0113860278 -0.011241448 0.043276443
v -0.00806235357 -0.00749398481 0.0440000434
v -0.0115978627 -0.0110294939 0.0440000434
v -0.00839947745 -0.00715686094 0.0446213623
v -0.0119349866 -0.01069237 0.0446213623
v -0.00883888289 -0.0067175151 0.0450980802
v -0.012374392 -0.0102530242 0.0450980802
v -0.00935040995 -0.00620586883 0.0453977724
v -0.0128860383 -0.00974143754 0.0453977724
v -0.00709783121 0.02446388 0.0167639394
v -0.00710999056 0.0244554161 0.0167698999
v -0.00711654707 0.0244615554 0.0167654891
v -0.00716542288 0.0244179248 0.0167999406
v -0.00717197939 0.0244244217 0.0167960067
v -0.00715064093 0.0244268059 0.016789927
v -0.00715445563 0.0244358062 0.0167857547
v -0.00714813753 0.0244285344 0.0167886157
v -0.0071258454 0.024454224 0.0167689462
v -0.00708924814 0.0244707345 0.0167610784
v -0.00708376452 0.0244871854 0.0167535682
v -0.00706659838 0.0244912981 0.0167575021
v -0.00707279726 0.0244971989 0.0167521377
v -0.00701760336 0.0245480417 0.0167448659
v -0.00701104685 0.0245415448 0.0167487998
v -0.00695847555 0.0246121763 0.0167533298
v -0.00690530821 0.0246773242 0.0167732377
v -0.00689887091 0.0246708273 0.0167770524
v -0.00694870039 0.0246229051 0.0167546411
v -0.00694345518 0.0246148585 0.0167582174
v -0.00695191904 0.0246056198 0.0167570253
v -0.00557934328 0.0235703467 0.0135623355
v -0.00558518454 0.0235762476 0.0135568519
v -0.00556325003 0.0235777973 0.013552918
v -0.00556885286 0.023583877 0.0135473152
v -0.00556074663 0.023579347 0.0135518451
v -0.0055667071 0.0235852479 0.0135463615
v -0.00553499743 0.0236046194 0.01353301
v -0.00552903696 0.0235987185 0.0135384937
v -0.00551830813 0.023605275 0.0135339637
v -0.00552379175 0.0236114739 0.0135283609
v -0.00550328776 0.0236164211 0.0135297914
v -0.00550877138 0.0236226796 0.0135243078
v -0.00549327418 0.0236253022 0.0135285993
v -0.00549923464 0.0236312031 0.0135231157
v -0.00545488878 0.0236706017 0.0135177513
v -0.00544892832 0.0236646413 0.0135232349
v -0.00596665426 0.0234367727 0.0138247152
v -0.00597309157 0.0234382628 0.0138337751
v -0.0059606938 0.0234308122 0.0138300796
v -0.0059671311 0.0234323024 0.0138390203
v -0.00598095938 0.023435521 0.013858213
v -0.00598691984 0.0234414815 0.0138529678
v -0.00598274752 0.0234367131 0.0138616701
v -0.00598870798 0.0234427332 0.0138563056
v -0.00600372835 0.0234526872 0.0138845582
v -0.00599764868 0.0234466671 0.0138898035
v -0.00069688841 0.0176572679 0.00652207331
v -0.00070022627 0.0176606058 0.00651325183
v -0.000656834089 0.0181057929 0.0066809793
v -0.000660291158 0.01810925 0.00667227702
v 0.00152469591 0.017314422 0.00564147429
v 0.00125790552 0.017581272 0.00580502944
v 0.00152743772 0.0173116802 0.00565065341
v 0.00126076654 0.0175783514 0.00581408934
v 0.000677475489 0.0167714833 0.00574459033
v 0.000674733675 0.0167743443 0.00573541121
v 0.000472316302 0.0164880632 0.00572051005
v 0.000469574488 0.0164908646 0.00571133093
v -0.00482152983 0.0236627935 0.0128512521
v -0.00483309313 0.0236717342 0.0128718753
v -0.00481580778 0.0236570119 0.0128570934
v -0.00482725187 0.0236659526 0.0128775974
v -0.00486146494 0.0236926555 0.0129386325
v -0.00486825987 0.0236990332 0.0129345794
v -0.00488900229 0.0237027882 0.0129768987
v -0.00489472433 0.0237086891 0.0129711767
v -0.0049482493 0.0237246035 0.0130591531
v -0.00495516344 0.0237306236 0.0130548616
v -0.00495325609 0.02372514 0.0130648752
v -0.00495897814 0.0237309812 0.0130591531
v -0.00499128386 0.0237291931 0.0131081481
v -0.00499831721 0.023735094 0.0131037374
v -0.00502931162 0.0237267493 0.0131448646
v -0.00503562971 0.0237313985 0.0131385465
v -0.00510036036 0.0237250208 0.0131989856
v -0.00506793543 0.0237243055 0.0131821771
v -0.00511561915 0.0237206696 0.0132104297
v -0.00511049315 0.0237125038 0.0132143636
v -0.00516032263 0.0237080335 0.0132439275
v -0.00517546221 0.0236945628 0.0132634778
v -0.00520156904 0.0236896156 0.0132678886
v -0.00519548937 0.0236859201 0.013275518
v -0.00522398039 0.0236737608 0.0132925649
v -0.00526916071 0.0236594557 0.0133072277
v -0.00528251215 0.0236398457 0.0133185525
v -0.00528835341 0.0236472963 0.0133146186
v -0.00533353373 0.0236103414 0.0133413215
v -0.00535821005 0.0236030697 0.0133417983
v -0.00537144228 0.0235826849 0.0133522888
v -0.0053768067 0.0235876321 0.0133451362
v -0.00538157507 0.0235753535 0.0133551498
v -0.00545620009 0.0235218881 0.0133595605
v -0.00544940516 0.0235147356 0.0133627792
v -0.00546609446 0.0235136627 0.0133613487
v -0.00549065157 0.0234778403 0.0133674283
v -0.00553309008 0.0234447001 0.0133592029
v -0.00552712961 0.0234387993 0.0133648057
v -0.00396703764 0.0219889759 0.0106729408
v -0.00397228285 0.0219941615 0.0106661458
v -0.00392388388 0.022111523 0.0107333799
v -0.00392912909 0.0221167086 0.010726585
f 1 2 3
f 3 2 4
f 3 4 5
f 5 4 6
f 5 6 7
f 7 6 8
f 7 8 9
f 9 8 10
f 9 10 11
f 11 10 12
f 11 12 13
f 13 12 14
f 13 14 15
f 15 14 16
f 15 16 17
f 17 16 18
f 17 18 19
f 19 18 20
f 19 20 21
f 21 20 22
f 21 22 23
f 23 22 24
f 23 24 25
f 25 24 26
f 25 26 27
f 27 26 28
f 27 28 29
f 29 28 30
f 29 30 31
f 31 30 32
f 31 32 33
f 33 32 34
f 33 34 35
f 35 34 36
f 35 36 37
f 37 36 38
f 37 38 39
f 39 38 40
f 39 40 41
f 41 40 42
f 41 42 43
f 43 42 44
f 43 44 45
f 45 44 46
f 45 46 47
f 47 46 48
f 47 48 1
f 1 48 2
f 49 50 51
f 52 53 54
f 54 53 55
f 54 55 56
f 56 55 50
f 50 55 57
f 50 57 51
f 49 51 58
f 58 51 59
f 58 59 60
f 59 61 60
f 60 61 62
f 60 62 63
f 63 62 64
f 65 66 67
f 67 66 68
f 67 68 64
f 64 68 69
f 64 69 63
f 70 71 72
f 72 71 73
f 72 73 74
f 73 75 74
f 74 75 76
f 74 76 77
f 77 76 78
f 78 76 79
f 78 79 80
f 80 79 81
f 80 81 82
f 81 83 82
f 82 83 84
f 82 84 85
f 86 87 88
f 88 87 89
f 89 87 90
f 90 87 91
f 90 91 92
f 91 93 92
f 92 93 94
f 92 94 95
f 96 97 98
f 98 97 99
f 100 101 102
f 102 101 103
f 104 105 106
f 106 105 107
f 108 109 110
f 110 109 111
f 111 109 112
f 112 109 113
f 112 113 114
f 114 113 115
f 114 115 116
f 116 115 117
f 116 117 118
f 118 117 119
f 118 119 120
f 120 119 121
f 120 121 122
f 121 123 122
f 122 123 124
f 122 124 125
f 125 124 126
f 125 126 127
f 127 126 128
f 127 128 129
f 129 128 130
f 129 130 131
f 131 130 132
f 132 130 133
f 132 133 134
f 134 133 135
f 134 135 136
f 136 135 137
f 136 137 138
f 138 137 139
f 138 139 140
f 140 139 141
f 140 141 142
f 142 141 143
f 142 143 144
f 144 143 145
f 144 145 146
f 147 148 149
f 149 148 150
