v 0.0187383768 -0.0102530692 0.0267499824
v 0.022273886 -0.00671756012 0.0267499824
v 0.019058573 -0.0105732654 0.0266903778
v 0.0225940821 -0.00703775627 0.0266903778
v 0.0193570731 -0.0108717654 0.0265154977
v 0.0228925822 -0.00733625633 0.0265154977
v 0.019613373 -0.0111280654 0.0262373825
v 0.0231488821 -0.0075925563 0.0262373825
v 0.0198099491 -0.0113246415 0.0258749862
v 0.0233454583 -0.00778913242 0.0258749862
v 0.0199335692 -0.0114482616 0.0254529853
v 0.0234690783 -0.00791275245 0.0254529853
v 0.0199757693 -0.0114904617 0.02499999
v 0.0235112784 -0.00795495254 0.02499999
v 0.0199335692 -0.0114482616 0.024547114
v 0.0234690783 -0.00791275245 0.024547114
v 0.0198099491 -0.0113246415 0.0241249939
v 0.0233454583 -0.00778913242 0.0241249939
v 0.019613373 -0.0111280654 0.0237625976
v 0.0231488821 -0.0075925563 0.0237625976
v 0.0193570731 -0.0108717654 0.0234844823
v 0.0228925822 -0.00733625633 0.0234844823
v 0.019058573 -0.0105732654 0.0233096023
v 0.0225940821 -0.00703775627 0.0233096023
v 0.0187383768 -0.0102530692 0.0232499977
v 0.022273886 -0.00671756012 0.0232499977
v 0.0184180615 -0.00993275387 0.0233096023
v 0.0219535706 -0.00639724476 0.0233096023
v 0.0181195614 -0.00963437301 0.0234844823
v 0.0216551897 -0.0060987447 0.0234844823
v 0.0178633807 -0.00937807304 0.0237625976
v 0.0213988898 -0.00584256393 0.0237625976
v 0.0176666853 -0.00918137771 0.0241249939
v 0.0212021944 -0.0056458686 0.0241249939
v 0.0175430653 -0.00905775768 0.024547114
v 0.0210785744 -0.00552224857 0.024547114
v 0.0175008652 -0.00901555759 0.02499999
v 0.0210363743 -0.00548004848 0.02499999
v 0.0175430653 -0.00905775768 0.0254529853
v 0.0210785744 -0.00552224857 0.0254529853
v 0.0176666853 -0.00918137771 0.0258749862
v 0.0212021944 -0.0056458686 0.0258749862
v 0.0178633807 -0.00937807304 0.0262373825
v 0.0213988898 -0.00584256393 0.0262373825
v 0.0181195614 -0.00963437301 0.0265154977
v 0.0216551897 -0.0060987447 0.0265154977
v 0.0184180615 -0.00993275387 0.0266903778
v 0.0219535706 -0.00639724476 0.0266903778
v 0.00119649147 -0.0186455224 0.00713015991
v 0.00120018696 -0.0186492179 0.00712169605
v 0.00154088711 -0.0189899181 0.00744022328
v 0.00157200073 -0.0190210317 0.007457151
v 0.00156818603 -0.019017217 0.00746549565
v 0.000700223196 -0.0176606153 0.00651325184
v 0.000696885336 -0.0176572774 0.00652207333
v 0.00162063812 -0.0185810302 0.00727786022
v 0.00161682342 -0.0185772155 0.00728632408
v 0.000660288084 -0.018109319 0.00667227703
v 0.000950085867 -0.0183991168 0.00690807301
v 0.000656831015 -0.018105862 0.00668097931
v 0.000946509588 -0.0183954213 0.00691665608
f 1 2 3
f 3 2 4
f 3 4 5
f 5 4 6
f 5 6 7
f 7 6 8
f 7 8 9
f 9 8 10
f 9 10 11
f 11 10 12
f 11 12 13
f 13 12 14
f 13 14 15
f 15 14 16
f 15 16 17
f 17 16 18
f 17 18 19
f 19 18 20
f 19 20 21
f 21 20 22
f 21 22 23
f 23 22 24
f 23 24 25
f 25 24 26
f 25 26 27
f 27 26 28
f 27 28 29
f 29 28 30
f 29 30 31
f 31 30 32
f 31 32 33
f 33 32 34
f 33 34 35
f 35 34 36
f 35 36 37
f 37 36 38
f 37 38 39
f 39 38 40
f 39 40 41
f 41 40 42
f 41 42 43
f 43 42 44
f 43 44 45
f 45 44 46
f 45 46 47
f 47 46 48
f 47 48 1
f 1 48 2
f 49 50 51
f 51 50 52
f 51 52 53
f 54 55 56
f 56 55 57
f 58 59 60
f 60 59 61
