v 0.0028991739 -0.0248194263 0.0455999571
v 0.0028991739 -0.0248194263 0.0575750071
v 0.00323284071 -0.0243845508 0.0455999571
v 0.00323284071 -0.0243845508 0.0575750071
v 0.00344264906 -0.0238780305 0.0455999571
v 0.00344264906 -0.0238780305 0.0575750071
v 0.00351417463 -0.0233344958 0.0455999571
v 0.00351417463 -0.0233344958 0.0575750071
v 0.00344264906 -0.0227910206 0.0455999571
v 0.00344264906 -0.0227910206 0.0575750071
v 0.00323284071 -0.0222845003 0.0455999571
v 0.00323284071 -0.0222845003 0.0575750071
v 0.0028991739 -0.0218496249 0.0455999571
v 0.0028991739 -0.0218496249 0.0575750071
v 0.00246417921 -0.0215158984 0.0455999571
v 0.00246417921 -0.0215158984 0.0575750071
v 0.00195777814 -0.0213060901 0.0455999571
v 0.00195777814 -0.0213060901 0.0575750071
v 0.00141418378 -0.0212345049 0.0455999571
v 0.00141418378 -0.0212345049 0.0575750071
v 0.000870708634 -0.0213060901 0.0455999571
v 0.000870708634 -0.0213060901 0.0575750071
v 0.000364188362 -0.0215158984 0.0455999571
v 0.000364188362 -0.0215158984 0.0575750071
v -7.0687126e-05 -0.0218496249 0.0455999571
v -7.0687126e-05 -0.0218496249 0.0575750071
v -0.000404473137 -0.0222845003 0.0455999571
v -0.000404473137 -0.0222845003 0.0575750071
v -0.000614281486 -0.0227910206 0.0455999571
v -0.000614281486 -0.0227910206 0.0575750071
v -0.00068580706 -0.0233344958 0.0455999571
v -0.00068580706 -0.0233344958 0.0575750071
v -0.000614281486 -0.0238780305 0.0455999571
v -0.000614281486 -0.0238780305 0.0575750071
v -0.000404473137 -0.0243845508 0.0455999571
v -0.000404473137 -0.0243845508 0.0575750071
v -7.0687126e-05 -0.0248194263 0.0455999571
v -7.0687126e-05 -0.0248194263 0.0575750071
v 0.000364188362 -0.0251531527 0.0455999571
v 0.000364188362 -0.0251531527 0.0575750071
v 0.000870708634 -0.025362961 0.0455999571
v 0.000870708634 -0.025362961 0.0575750071
v 0.00141418378 -0.0254345462 0.0455999571
v 0.00141418378 -0.0254345462 0.0575750071
v 0.00195777814 -0.025362961 0.0455999571
v 0.00195777814 -0.025362961 0.0575750071
v 0.00246417921 -0.0251531527 0.0455999571
v 0.00246417921 -0.0251531527 0.0575750071
v 0.0180418531 -0.00383817409 -0.0075750154
v 0.0178294222 -0.00347011541 -0.00799999652
v 0.0185483734 -0.00362842534 -0.0075750154
v 0.0184383432 -0.00321786855 -0.00799999652
v 0.0190918485 -0.00355684017 -0.0075750154
v 0.0190918485 -0.00313185905 -0.00799999652
v 0.0196354429 -0.00362842534 -0.0075750154
v 0.0197453539 -0.00321786855 -0.00799999652
v 0.020141844 -0.00383817409 -0.0075750154
v 0.0203543941 -0.00347011541 -0.00799999652
v 0.0205768387 -0.00417190049 -0.0075750154
v 0.0208773653 -0.00387143348 -0.00799999652
v 0.0209105055 -0.00460683559 -0.0075750154
v 0.0212786237 -0.00439434503 -0.00799999652
v 0.0211203138 -0.00511335586 -0.0075750154
v 0.0215308706 -0.00500332568 -0.00799999652
v 0.0211918394 -0.00565683101 -0.0075750154
v 0.0216169397 -0.00565683101 -0.00799999652
v 0.0211203138 -0.00620036577 -0.0075750154
v 0.0215308706 -0.00631039594 -0.00799999652
v 0.0209105055 -0.00670682643 -0.0075750154
v 0.0212786237 -0.0069193766 -0.00799999652
v 0.0205768387 -0.00714176153 -0.0075750154
v 0.0208773653 -0.00744228814 -0.00799999652
v 0.020141844 -0.00747548793 -0.0075750154
v 0.0203543941 -0.00784354661 -0.00799999652
v 0.0196354429 -0.00768529628 -0.0075750154
v 0.0197453539 -0.00809579347 -0.00799999652
v 0.0190918485 -0.00775688146 -0.0075750154
v 0.0190918485 -0.00818186258 -0.00799999652
v 0.0185483734 -0.00768529628 -0.0075750154
v 0.0184383432 -0.00809579347 -0.00799999652
v 0.0180418531 -0.00747548793 -0.0075750154
v 0.0178294222 -0.00784354661 -0.00799999652
v 0.0176069776 -0.00714176153 -0.0075750154
v 0.017306451 -0.00744228814 -0.00799999652
v 0.0172731916 -0.00670682643 -0.0075750154
v 0.0169051925 -0.0069193766 -0.00799999652
v 0.0170633833 -0.00620036577 -0.0075750154
v 0.0166529457 -0.00631039594 -0.00799999652
v 0.0169918577 -0.00565683101 -0.0075750154
v 0.0165668766 -0.00565683101 -0.00799999652
v 0.0170633833 -0.00511335586 -0.0075750154
v 0.0166529457 -0.00500332568 -0.00799999652
v 0.0172731916 -0.00460683559 -0.0075750154
v 0.0169051925 -0.00439434503 -0.00799999652
v 0.0176069776 -0.00417190049 -0.0075750154
v 0.017306451 -0.00387143348 -0.00799999652
f 1 2 3
f 3 2 4
f 3 4 5
f 5 4 6
f 5 6 7
f 7 6 8
f 7 8 9
f 9 8 10
f 9 10 11
f 11 10 12
f 11 12 13
f 13 12 14
f 13 14 15
f 15 14 16
f 15 16 17
f 17 16 18
f 17 18 19
f 19 18 20
f 19 20 21
f 21 20 22
f 21 22 23
f 23 22 24
f 23 24 25
f 25 24 26
f 25 26 27
f 27 26 28
f 27 28 29
f 29 28 30
f 29 30 31
f 31 30 32
f 31 32 33
f 33 32 34
f 33 34 35
f 35 34 36
f 35 36 37
f 37 36 38
f 37 38 39
f 39 38 40
f 39 40 41
f 41 40 42
f 41 42 43
f 43 42 44
f 43 44 45
f 45 44 46
f 45 46 47
f 47 46 48
f 47 48 1
f 1 48 2
f 49 50 51
f 51 50 52
f 51 52 53
f 53 52 54
f 53 54 55
f 55 54 56
f 55 56 57
f 57 56 58
f 57 58 59
f 59 58 60
f 59 60 61
f 61 60 62
f 61 62 63
f 63 62 64
f 63 64 65
f 65 64 66
f 65 66 67
f 67 66 68
f 67 68 69
f 69 68 70
f 69 70 71
f 71 70 72
f 71 72 73
f 73 72 74
f 73 74 75
f 75 74 76
f 75 76 77
f 77 76 78
f 77 78 79
f 79 78 80
f 79 80 81
f 81 80 82
f 81 82 83
f 83 82 84
f 83 84 85
f 85 84 86
f 85 86 87
f 87 86 88
f 87 88 89
f 89 88 90
f 89 90 91
f 91 90 92
f 91 92 93
f 93 92 94
f 93 94 95
f 95 94 96
f 95 96 49
f 49 96 50
