v 0.0102530596 0.00601041573 0.0360000272
v 0.014849293 0.0106066491 0.0360000272
v 0.0115675805 0.00469589489 0.0358417173
v 0.0161638138 0.00929212826 0.0358417173
v 0.0128443119 0.0034191634 0.0353716751
v 0.0174404261 0.00801539677 0.0353716751
v 0.0140464184 0.00221705693 0.0346031328
v 0.0186426518 0.00681317108 0.0346031328
v 0.0151394484 0.00112402695 0.0335583826
v 0.0197356818 0.00572014111 0.0335583826
v 0.0160919306 0.000171544726 0.0322674652
v 0.0206880448 0.00476777809 0.0322674652
v 0.016876447 -0.000612971608 0.0307673355
v 0.0214725611 0.00398326176 0.0307673355
v 0.0174703476 -0.00120687229 0.0291013857
v 0.022066581 0.00338936108 0.0291013857
v 0.0178565857 -0.0015932296 0.0273174186
v 0.0224528191 0.00300300377 0.0273174186
v 0.018024194 -0.00176071865 0.0254668136
v 0.0226204274 0.00283539551 0.0254668136
v 0.0179681656 -0.00170480949 0.0236028572
v 0.022564399 0.00289142388 0.0236028572
v 0.0176902888 -0.00142681343 0.021778955
v 0.0222865221 0.00316941994 0.021778955
v 0.0171984312 -0.0009349559 0.0200477977
v 0.0217945454 0.00366127747 0.0200477977
v 0.0165066597 -0.000243184392 0.0184589763
v 0.0211028931 0.00435292977 0.0184589763
v 0.0156351206 0.000628354724 0.0170585056
v 0.0202312348 0.00522458809 0.0170585056
v 0.0146086094 0.00165486592 0.0158864399
v 0.0192048428 0.00625098007 0.0158864399
v 0.0134569285 0.00280654686 0.0149765154
v 0.0180530426 0.00740278023 0.0149765154
v 0.0122129795 0.0040504958 0.0143549581
v 0.0168092129 0.00864672917 0.0143549581
v 0.0109126446 0.00535083073 0.0140396495
v 0.015508878 0.00994694489 0.0140396495
v 0.00959335541 0.00667000073 0.0140396495
v 0.0141895888 0.0112662341 0.0140396495
v 0.00829313968 0.00797033566 0.0143549581
v 0.0128892538 0.012566569 0.0143549581
v 0.00704919075 0.00921428459 0.0149765154
v 0.0116454241 0.0138103988 0.0149765154
v 0.0058975098 0.0103659655 0.0158864399
v 0.010493624 0.0149621989 0.0158864399
v 0.00487099861 0.0113924767 0.0170585056
v 0.00946723198 0.0159885909 0.0170585056
v 0.00399945949 0.0122640158 0.0184589763
v 0.00859557365 0.0168602492 0.0184589763
v 0.00330768799 0.0129557874 0.0200477977
v 0.00790392135 0.0175519015 0.0200477977
v 0.00281583046 0.0134476449 0.021778955
v 0.00741206383 0.0180438783 0.021778955
v 0.00253783439 0.0137256409 0.0236028572
v 0.00713406776 0.0183217551 0.0236028572
v 0.00248192524 0.0137815501 0.0254668136
v 0.0070780394 0.0183777835 0.0254668136
v 0.00264941429 0.0136140611 0.0273174186
v 0.00724564766 0.0182101752 0.0273174186
v 0.0030357716 0.0132277037 0.0291013857
v 0.00763200496 0.0178239371 0.0291013857
v 0.00362967228 0.0126338031 0.0307673355
v 0.00822590565 0.0172299172 0.0307673355
v 0.00441418861 0.0118492867 0.0322674652
v 0.00901042198 0.0164455201 0.0322674652
v 0.00536667084 0.0108968045 0.0335583826
v 0.00996278499 0.0154930379 0.0335583826
v 0.00645970081 0.00980377453 0.0346031328
v 0.011055815 0.0144000079 0.0346031328
v 0.00766180729 0.00860166806 0.0353716751
v 0.0122580407 0.0131977822 0.0353716751
v 0.00893853878 0.00732493656 0.0358417173
v 0.0135347721 0.0119211699 0.0358417173
v 0.0190918324 0.0148491885 0.0380000015
v 0.013434994 0.00919235008 0.0380000015
v 0.0175384161 0.016402724 0.0378129621
v 0.0118814585 0.0107458855 0.0378129621
v 0.0160295842 0.0179115559 0.0372574468
v 0.0103726265 0.0122547175 0.0372574468
v 0.0146088478 0.0193322923 0.0363491912
v 0.00895189022 0.0136754538 0.0363491912
v 0.013317096 0.0206240441 0.0351144214
v 0.00766013836 0.0149672057 0.0351144214
v 0.0121914027 0.0217497374 0.0335887809
v 0.00653456425 0.016092899 0.0335887809
v 0.011264312 0.0226768281 0.0318160196
v 0.0056074736 0.0170199897 0.0318160196
v 0.0105624077 0.0233787324 0.029847159
v 0.0049055693 0.017721894 0.029847159
v 0.0101058361 0.023835304 0.0277388235
v 0.00444899772 0.0181784655 0.0277388235
v 0.00990782951 0.0240333106 0.0255516906
v 0.00425087189 0.0183764722 0.0255516906
v 0.0099243996 0.0240167405 0.02499999
v 0.00426744198 0.0183599021 0.02499999
v 0.00997399067 0.0239671494 0.0233488222
v 0.00431715225 0.018310311 0.0233488222
v 0.0103024123 0.0236387278 0.0211932798
v 0.00464557384 0.0179818894 0.0211932798
v 0.010883796 0.0230573441 0.01914741
v 0.00522695755 0.0174005057 0.01914741
v 0.0117012141 0.022239926 0.0172697445
v 0.00604437565 0.0165830876 0.0172697445
v 0.0127313015 0.0212098386 0.0156145235
v 0.00707446312 0.0155530001 0.0156145235
v 0.0139443753 0.0199967648 0.0142294307
v 0.00828753685 0.0143399264 0.0142294307
v 0.0153055069 0.0186356332 0.0131540437
v 0.00964866852 0.0129787947 0.0131540437
v 0.0167755959 0.0171655442 0.0124194761
v 0.0111187575 0.0115087058 0.0124194761
v 0.0183123228 0.0156288173 0.0120468279
v 0.0126554844 0.00997197884 0.0120468279
v 0.0190918324 0.0148491885 0.0119999786
v 0.013434994 0.00919235008 0.0120468279
v 0.0198714611 0.014069679 0.0120468279
v 0.0142146227 0.00841284054 0.0120468279
v 0.0214081881 0.012532952 0.0124194761
v 0.0157513497 0.00687611359 0.0124194761
v 0.0228782771 0.011062863 0.0131540437
v 0.0172214386 0.00540602463 0.0131540437
v 0.0242394087 0.00970173138 0.0142294307
v 0.0185825703 0.00404489296 0.0142294307
v 0.0254524825 0.00848865765 0.0156145235
v 0.019795644 0.00283181923 0.0156145235
v 0.0264825699 0.00745857018 0.0172697445
v 0.0208257315 0.00180173176 0.0172697445
v 0.027299988 0.00664115208 0.01914741
v 0.0216431496 0.000984313662 0.01914741
v 0.0278813717 0.00605976837 0.0211932798
v 0.0222245333 0.000402929957 0.0211932798
v 0.0282097933 0.00573134678 0.0233488222
v 0.0225529549 7.45083644e-05 0.0233488222
v 0.0282593844 0.00568175572 0.02499999
v 0.022602546 2.47980906e-05 0.02499999
v 0.0282759545 0.00566518563 0.0255516906
v 0.0226191161 8.2279994e-06 0.0255516906
v 0.0280779478 0.00586319226 0.0277388235
v 0.0224211094 0.000206353839 0.0277388235
v 0.0276213763 0.00631976383 0.029847159
v 0.0219645378 0.000662925418 0.029847159
v 0.026919472 0.00702166813 0.0318160196
v 0.0212626336 0.00136482971 0.0318160196
v 0.0259923813 0.00794875878 0.0335887809
v 0.0203355429 0.00229192036 0.0335887809
v 0.024866688 0.0090744521 0.0351144214
v 0.0192098496 0.00341749447 0.0351144214
v 0.0235749361 0.010366204 0.0363491912
v 0.0179180977 0.00470936554 0.0363491912
v 0.0221541998 0.0117869403 0.0372574468
v 0.0164973614 0.00612998265 0.0372574468
v 0.0206453678 0.0132957722 0.0378129621
v 0.0149885294 0.00763881462 0.0378129621
v -0.000386488688 0.0280038144 0.0394565006
v -0.000396740686 0.0285946156 0.0393464704
v -0.000534785044 0.027855518 0.0389499803
v -0.000575077784 0.0284162785 0.0387375494
v -0.000770819437 0.0276194836 0.0385151048
v -0.000858795893 0.0281325604 0.0382145782
v -0.0010783794 0.0273120429 0.0381813188
v -0.00122858311 0.0277627732 0.0378133197
v -0.00143648411 0.026953819 0.0379715105
v -0.00165916706 0.0273321893 0.0375610729
v -0.00182081486 0.0265694882 0.0378999849
v -0.00212134148 0.0268700148 0.0374750038
v -0.00220514561 0.0261851575 0.0379715105
v -0.00258339668 0.0264079596 0.0375610729
v -0.00256325031 0.0258270528 0.0381813188
v -0.00301409985 0.0259773757 0.0378133197
v -0.00287081028 0.0255194928 0.0385151048
v -0.00338376785 0.0256075885 0.0382145782
v -0.00310672547 0.0252835776 0.0389499803
v -0.00366760517 0.0253238704 0.0387375494
v -0.00325514103 0.0251351621 0.0394565006
v -0.00384594227 0.025145414 0.0393464704
v -0.00330568577 0.0250846173 0.0399999757
v -0.00390673901 0.0250846173 0.0399999757
v -0.00325514103 0.0251351621 0.0405435701
v -0.00384594227 0.025145414 0.0406534811
v -0.00310672547 0.0252835776 0.0410499712
v -0.00366760517 0.0253238704 0.0412625213
v -0.00287081028 0.0255194928 0.0414849659
v -0.00338376785 0.0256075885 0.0417854925
v -0.00256325031 0.0258270528 0.0418186327
v -0.00301409985 0.0259773757 0.0421867509
v -0.00220514561 0.0261851575 0.042028441
v -0.00258339668 0.0264079596 0.0424389978
v -0.00182081486 0.0265694882 0.0420999666
v -0.00212134148 0.0268700148 0.0425249477
v -0.00143648411 0.026953819 0.042028441
v -0.00165916706 0.0273321893 0.0424389978
v -0.0010783794 0.0273120429 0.0418186327
v -0.00122858311 0.0277627732 0.0421867509
v -0.000770819437 0.0276194836 0.0414849659
v -0.000858795893 0.0281325604 0.0417854925
v -0.000534785044 0.027855518 0.0410499712
v -0.000575077784 0.0284162785 0.0412625213
v -0.000386488688 0.0280038144 0.0405435701
v -0.000396740686 0.0285946156 0.0406534811
v -0.000335824739 0.0280544783 0.0399999757
v -0.000335824739 0.0286555316 0.0399999757
v 0.024563658 0.000185134585 0.0100000044
v 0.0239709494 -0.00219201786 0.0100000044
v 0.0240214941 -0.00214147312 0.0094565292
v 0.0244058249 -0.00175714237 0.00851513344
v 0.0247133849 -0.0014495824 0.00818134743
v 0.0241699097 -0.00199305755 0.00895000893
v 0.0254558203 -0.000707146947 0.00790001351
v 0.0258401511 -0.000322816198 0.00797153908
v 0.0250714896 -0.0010914777 0.00797153908
v 0.0265058157 0.000342848475 0.00851513344
v 0.0267418501 0.000578882868 0.00895000893
v 0.0261982558 3.54077174e-05 0.00818134743
v 0.0269408104 0.000777843173 0.0100000044
v 0.0268901465 0.000727179225 0.0105434795
v 0.0268901465 0.000727179225 0.0094565292
v 0.0265058157 0.000342848475 0.0114848753
v 0.0261982558 3.54077174e-05 0.0118186613
v 0.0267418501 0.000578882868 0.0110499998
v 0.0254558203 -0.000707146947 0.0120999952
v 0.0250714896 -0.0010914777 0.0120284696
v 0.0258401511 -0.000322816198 0.0120284696
v 0.0247133849 -0.0014495824 0.0118186613
v 0.0244058249 -0.00175714237 0.0114848753
v 0.0240214941 -0.00214147312 0.0105434795
v 0.0241325972 -0.00181352836 0.0106672187
v 0.0240921852 -0.0020706628 0.0108313699
v 0.0242388127 -0.00161146862 0.0108660598
v 0.0241743204 -0.00154697639 0.0104971071
v 0.0243952153 -0.001767752 0.0114697357
v 0.00484977936 0.0107066657 -0.00800000233
v 0.0140421269 0.0198990132 -0.00800000233
v 0.00579880451 0.00975764054 -0.00685332817
v 0.014991152 0.0189499881 -0.00685332817
v 0.00687562202 0.00868082302 -0.0059605698
v 0.0160679695 0.0178731706 -0.0059605698
v 0.00804661487 0.00750971096 -0.00534938377
v 0.0172389624 0.0167021777 -0.00534938377
v 0.00927542423 0.00628102082 -0.00503908199
v 0.0184677718 0.0154733683 -0.00503908199
v 0.0190918324 0.0148491885 -0.00503908199
v 0.0105236647 0.00503278034 -0.00503908199
v 0.0197160122 0.0142251279 -0.00503908199
v 0.0117523548 0.00380397099 -0.00534938377
v 0.0209448216 0.0129963185 -0.00534938377
v 0.0129234669 0.00263297814 -0.0059605698
v 0.0221158144 0.0118253257 -0.0059605698
v 0.0140001652 0.00155616062 -0.00685332817
v 0.0231926319 0.0107485082 -0.00685332817
v 0.0149491904 0.00060713547 -0.00800000233
v 0.0241416571 0.009799483 -0.00800000233
v 0.0215158341 0.000364186938 -0.00757502121
v 0.021147835 0.000151755984 -0.00800000233
v 0.0213060257 0.000870707209 -0.00757502121
v 0.0208955881 0.000760677035 -0.00800000233
v 0.0212345002 0.00141418236 -0.00757502121
v 0.020809519 0.00141418236 -0.00800000233
v 0.0213060257 0.00195777672 -0.00757502121
v 0.0208955881 0.00206768769 -0.00800000233
v 0.0215158341 0.00246417778 -0.00757502121
v 0.021147835 0.00267672795 -0.00800000233
v 0.0218496201 0.00289917248 -0.00757502121
v 0.0215490935 0.0031996991 -0.00800000233
v 0.0222844956 0.00323283928 -0.00757502121
v 0.0220720646 0.00360095757 -0.00800000233
v 0.0227910159 0.00344264763 -0.00757502121
v 0.0226809857 0.00385320442 -0.00800000233
v 0.023334491 0.00351417321 -0.00757502121
v 0.023334491 0.00393915432 -0.00800000233
v 0.0238780854 0.00344264763 -0.00757502121
v 0.0239879963 0.00385320442 -0.00800000233
v 0.0243844864 0.00323283928 -0.00757502121
v 0.0245970366 0.00360095757 -0.00800000233
v 0.0248194811 0.00289917248 -0.00757502121
v 0.0251200077 0.0031996991 -0.00800000233
v 0.0251531479 0.00246417778 -0.00757502121
v 0.0255212662 0.00267672795 -0.00800000233
v 0.0253629563 0.00195777672 -0.00757502121
v 0.0257735131 0.00206768769 -0.00800000233
v 0.0254344818 0.00141418236 -0.00757502121
v 0.0258595822 0.00141418236 -0.00800000233
v 0.0253629563 0.000870707209 -0.00757502121
v 0.0257735131 0.000760677035 -0.00800000233
v 0.0251531479 0.000364186938 -0.00757502121
v 0.0255212662 0.000151755984 -0.00800000233
v 0.0248194811 -7.06885503e-05 -0.00757502121
v 0.0251200077 -0.000371215169 -0.00800000233
v 0.0243844864 -0.000404474561 -0.00757502121
v 0.0245970366 -0.000772473638 -0.00800000233
v 0.0238780854 -0.000614282911 -0.00757502121
v 0.0239879963 -0.00102472049 -0.00800000233
v 0.023334491 -0.000685808484 -0.00757502121
v 0.023334491 -0.0011107896 -0.00800000233
v 0.0227910159 -0.000614282911 -0.00757502121
v 0.0226809857 -0.00102472049 -0.00800000233
v 0.0222844956 -0.000404474561 -0.00757502121
v 0.0220720646 -0.000772473638 -0.00800000233
v 0.0218496201 -7.06885503e-05 -0.00757502121
v 0.0215490935 -0.000371215169 -0.00800000233
f 1 2 3
f 3 2 4
f 3 4 5
f 5 4 6
f 5 6 7
f 7 6 8
f 7 8 9
f 9 8 10
f 9 10 11
f 11 10 12
f 11 12 13
f 13 12 14
f 13 14 15
f 15 14 16
f 15 16 17
f 17 16 18
f 17 18 19
f 19 18 20
f 19 20 21
f 21 20 22
f 21 22 23
f 23 22 24
f 23 24 25
f 25 24 26
f 25 26 27
f 27 26 28
f 27 28 29
f 29 28 30
f 29 30 31
f 31 30 32
f 31 32 33
f 33 32 34
f 33 34 35
f 35 34 36
f 35 36 37
f 37 36 38
f 37 38 39
f 39 38 40
f 39 40 41
f 41 40 42
f 41 42 43
f 43 42 44
f 43 44 45
f 45 44 46
f 45 46 47
f 47 46 48
f 47 48 49
f 49 48 50
f 49 50 51
f 51 50 52
f 51 52 53
f 53 52 54
f 53 54 55
f 55 54 56
f 55 56 57
f 57 56 58
f 57 58 59
f 59 58 60
f 59 60 61
f 61 60 62
f 61 62 63
f 63 62 64
f 63 64 65
f 65 64 66
f 65 66 67
f 67 66 68
f 67 68 69
f 69 68 70
f 69 70 71
f 71 70 72
f 71 72 73
f 73 72 74
f 73 74 1
f 1 74 2
f 75 76 77
f 77 76 78
f 77 78 79
f 79 78 80
f 79 80 81
f 81 80 82
f 81 82 83
f 83 82 84
f 83 84 85
f 85 84 86
f 85 86 87
f 87 86 88
f 87 88 89
f 89 88 90
f 89 90 91
f 91 90 92
f 91 92 93
f 93 92 94
f 93 94 95
f 95 94 96
f 95 96 97
f 97 96 98
f 97 98 99
f 99 98 100
f 99 100 101
f 101 100 102
f 101 102 103
f 103 102 104
f 103 104 105
f 105 104 106
f 105 106 107
f 107 106 108
f 107 108 109
f 109 108 110
f 109 110 111
f 111 110 112
f 111 112 113
f 113 112 114
f 113 114 115
f 115 114 116
f 115 116 117
f 117 116 118
f 117 118 119
f 119 118 120
f 119 120 121
f 121 120 122
f 121 122 123
f 123 122 124
f 123 124 125
f 125 124 126
f 125 126 127
f 127 126 128
f 127 128 129
f 129 128 130
f 129 130 131
f 131 130 132
f 131 132 133
f 133 132 134
f 133 134 135
f 135 134 136
f 135 136 137
f 137 136 138
f 137 138 139
f 139 138 140
f 139 140 141
f 141 140 142
f 141 142 143
f 143 142 144
f 143 144 145
f 145 144 146
f 145 146 147
f 147 146 148
f 147 148 149
f 149 148 150
f 149 150 151
f 151 150 152
f 151 152 153
f 153 152 154
f 153 154 75
f 75 154 76
f 155 156 157
f 157 156 158
f 157 158 159
f 159 158 160
f 159 160 161
f 161 160 162
f 161 162 163
f 163 162 164
f 163 164 165
f 165 164 166
f 165 166 167
f 167 166 168
f 167 168 169
f 169 168 170
f 169 170 171
f 171 170 172
f 171 172 173
f 173 172 174
f 173 174 175
f 175 174 176
f 175 176 177
f 177 176 178
f 177 178 179
f 179 178 180
f 179 180 181
f 181 180 182
f 181 182 183
f 183 182 184
f 183 184 185
f 185 184 186
f 185 186 187
f 187 186 188
f 187 188 189
f 189 188 190
f 189 190 191
f 191 190 192
f 191 192 193
f 193 192 194
f 193 194 195
f 195 194 196
f 195 196 197
f 197 196 198
f 197 198 199
f 199 198 200
f 199 200 201
f 201 200 202
f 201 202 155
f 155 202 156
f 203 204 205
f 203 206 207
f 208 206 203
f 205 208 203
f 203 209 210
f 211 209 203
f 207 211 203
f 203 212 213
f 214 212 203
f 210 214 203
f 203 215 216
f 217 215 203
f 213 217 203
f 203 218 219
f 220 218 203
f 216 220 203
f 203 221 222
f 223 221 203
f 219 223 203
f 203 224 225
f 226 204 203
f 227 228 226
f 203 229 230
f 231 229 225
f 225 229 203
f 222 224 203
f 227 226 230
f 230 226 203
f 232 233 234
f 234 233 235
f 234 235 236
f 236 235 237
f 236 237 238
f 238 237 239
f 238 239 240
f 239 241 240
f 240 241 242
f 240 242 243
f 243 242 244
f 243 244 245
f 245 244 246
f 245 246 247
f 247 246 248
f 247 248 249
f 249 248 250
f 249 250 251
f 251 250 252
f 253 254 255
f 255 254 256
f 255 256 257
f 257 256 258
f 257 258 259
f 259 258 260
f 259 260 261
f 261 260 262
f 261 262 263
f 263 262 264
f 263 264 265
f 265 264 266
f 265 266 267
f 267 266 268
f 267 268 269
f 269 268 270
f 269 270 271
f 271 270 272
f 271 272 273
f 273 272 274
f 273 274 275
f 275 274 276
f 275 276 277
f 277 276 278
f 277 278 279
f 279 278 280
f 279 280 281
f 281 280 282
f 281 282 283
f 283 282 284
f 283 284 285
f 285 284 286
f 285 286 287
f 287 286 288
f 287 288 289
f 289 288 290
f 289 290 291
f 291 290 292
f 291 292 293
f 293 292 294
f 293 294 295
f 295 294 296
f 295 296 297
f 297 296 298
f 297 298 299
f 299 298 300
f 299 300 253
f 253 300 254
