v -0.023037072 -0.00461440538 0.0120604235
v -0.023024555 -0.00491415714 0.0123244721
v -0.0230480393 -0.00490575288 0.012338658
v -0.0231558045 -0.00458639119 0.0121430356
v -0.0230704506 -0.00489776586 0.0123521287
v -0.0231940706 -0.00457739089 0.0121696192
v -0.02310371 -0.0048906133 0.0123766858
v -0.0232517679 -0.00457560275 0.0122212369
v -0.0231149157 -0.00488822912 0.0123849112
v -0.0231490095 -0.00488602374 0.0124150712
v -0.023285385 -0.00457452987 0.0122511584
v -0.0231568773 -0.0048854873 0.0124219853
v -0.0233484467 -0.00458657001 0.0123212534
v -0.0231935938 -0.00489150737 0.0124626357
v -0.0233943423 -0.00459533189 0.012372275
v -0.0232135018 -0.00489478563 0.0124845702
v -0.0234318932 -0.00461655114 0.012428065
v -0.0232300719 -0.00490152095 0.0125068623
v -0.0234883984 -0.00464838002 0.0125118691
v -0.0232340058 -0.00490426276 0.0125132996
v -0.0235030611 -0.00466179107 0.012538572
v -0.0232651194 -0.00492601846 0.0125639636
v -0.0236628016 -0.00482153152 0.0128512579
v -0.0233688315 -0.00502979015 0.0127662617
v -0.0233721693 -0.00503348563 0.0127731759
v -0.0233765801 -0.00503849242 0.0127825934
v -0.0233895739 -0.00506394361 0.0128207404
v -0.0236717423 -0.00483303521 0.0128718812
v -0.0233986338 -0.00508152698 0.0128470856
v -0.0236990412 -0.00486826156 0.0129345852
v -0.0234006603 -0.00509368633 0.0128613907
v -0.0237086972 -0.00489478563 0.0129711825
v -0.0234030445 -0.00510739539 0.012877484
v -0.0237306317 -0.00495516513 0.0130548674
v -0.0237309893 -0.00495897983 0.0130591589
v -0.0234018524 -0.00512956832 0.0128984648
v -0.0237350424 -0.00499825929 0.0131037432
v -0.0234005411 -0.00515448306 0.0129221875
v -0.0237314661 -0.0050356314 0.0131385523
v -0.0237250288 -0.00510036205 0.0131989914
v -0.0233969649 -0.00516723846 0.0129313666
v -0.0237207373 -0.00511568044 0.0132104355
v -0.0233867129 -0.00520323966 0.0129573542
v -0.0237079819 -0.00516038392 0.0132439333
v -0.0236896237 -0.00520163034 0.0132678944
v -0.0233848055 -0.00520705436 0.0129593808
v -0.0236594637 -0.0052691624 0.0133072335
v -0.0233647784 -0.00524794315 0.0129804808
v -0.0233614405 -0.00525485729 0.0129840571
v -0.0236473044 -0.0052884147 0.0133146245
v -0.0233477314 -0.00527619575 0.0129919249
v -0.0236030777 -0.00535827134 0.0133418042
v -0.0235876997 -0.00537680839 0.013345142
v -0.0233374794 -0.005289726 0.0129952628
v -0.0235218962 -0.00545620178 0.0133595664
v -0.0233215054 -0.00531100486 0.013000508
v -0.0235136708 -0.00546615575 0.0133613545
v -0.0233068426 -0.00532596563 0.0130009848
v -0.0234446486 -0.00553309177 0.0133592087
v -0.0232689341 -0.00536518548 0.0130020577
v -0.0234289129 -0.00554709886 0.0133574206
v -0.0232615431 -0.00537174199 0.0130012232
v -0.0233507117 -0.00561099504 0.0133421618
v -0.0232464035 -0.0053846166 0.0129989583
v -0.0233272274 -0.00562601541 0.0133333403
v -0.0232183893 -0.00540434573 0.0129906136
v -0.0232293566 -0.00568871949 0.013296147
v -0.0231823881 -0.00542973731 0.0129797656
v -0.0232198199 -0.00569485877 0.0132925707
v -0.0231677254 -0.0054373071 0.0129727322
v -0.0231208761 -0.00574129079 0.0132373768
v -0.0231366118 -0.00545351957 0.0129575926
v -0.023113962 -0.00574319814 0.0132321316
v -0.0231134852 -0.00546228145 0.0129430491
v -0.022998925 -0.00577490781 0.0131457049
v -0.0230914314 -0.0054706261 0.0129292208
v -0.022961851 -0.00578515981 0.0131178099
v -0.0230586489 -0.0054783151 0.0129040677
v -0.022906061 -0.00578879569 0.0130642849
v -0.0230476816 -0.0054809377 0.0128956038
v -0.0230141838 -0.00548373912 0.0128648478
v -0.0228735169 -0.00579094146 0.0130331713
v -0.0230064352 -0.00548439477 0.0128578145
v -0.0228124817 -0.00578086828 0.0129610497
v -0.022970434 -0.00547897075 0.012816568
v -0.0227680166 -0.0057735369 0.0129087168
v -0.0229508837 -0.00547605012 0.0127942759
v -0.0227313002 -0.00575327133 0.0128519732
v -0.022934552 -0.00546961282 0.0127716261
v -0.0226762255 -0.00572281335 0.0127666194
v -0.0229306181 -0.00546693061 0.0127651888
v -0.0226619204 -0.00570970033 0.0127395588
v -0.0228999813 -0.00544559215 0.0127141673
v -0.0225006302 -0.00554846977 0.0124284226
v -0.0227957924 -0.00534140323 0.0125122267
v -0.0227924546 -0.00533764814 0.0125054318
v -0.0227599104 -0.00526212905 0.0124027926
v -0.0224519928 -0.00547247384 0.0123113591
v -0.022762533 -0.00527613614 0.0124185282
v -0.0224627217 -0.00550001119 0.0123470027
v -0.0227649172 -0.00528853391 0.0124324757
v -0.0224913319 -0.00553648923 0.0124082762
v -0.0227743347 -0.00530653451 0.0124585825
v -0.0227878054 -0.00533252214 0.0124961335
v -0.0227614601 -0.00521408771 0.0123590428
v -0.022421356 -0.00536476825 0.0121832091
v -0.0227606257 -0.00523953889 0.0123821694
v -0.0224270781 -0.00540565704 0.0122260052
v -0.0224276741 -0.00540959094 0.0122301775
v -0.0224596222 -0.00515418504 0.0120264489
v -0.0224424561 -0.00519662355 0.0120492178
v -0.0227744539 -0.00516443704 0.0123247105
v -0.0224313696 -0.00524293636 0.0120810467
v -0.022764798 -0.0052010939 0.0123499829
v -0.0224275549 -0.00525873159 0.0120918948
v -0.022423621 -0.00532596563 0.0121498305
v -0.0227762421 -0.00516056274 0.0123228032
v -0.0227957924 -0.00511913751 0.0123022992
v -0.0224877556 -0.00508462642 0.0119892556
v -0.0227990111 -0.00511216377 0.0122988421
v -0.0224995573 -0.00506501649 0.011982103
v -0.0228124817 -0.00509052728 0.0122912127
v -0.0229781826 -0.00493734334 0.0123028952
v -0.0229184588 -0.00466560577 0.0119996268
v -0.0229471882 -0.00495874141 0.0122939545
v -0.0228185614 -0.0047263429 0.0119645793
v -0.0229136904 -0.00498192762 0.0122842986
v -0.0227946003 -0.00474088643 0.0119561154
v -0.0228984316 -0.00499474262 0.0122820336
v -0.0227155646 -0.00480388854 0.0119418103
v -0.0228910406 -0.00500129913 0.0122813183
v -0.0226997097 -0.00481783603 0.0119401413
v -0.0228530129 -0.00504051898 0.0122823912
v -0.0226305683 -0.00488465284 0.0119381148
v -0.0228384693 -0.00505553935 0.0122828681
v -0.0226224621 -0.00489466642 0.0119397837
v -0.0228226145 -0.00507693742 0.0122879941
v -0.022557493 -0.00497489427 0.0119533736
v -0.0225423535 -0.00499366973 0.0119565922
v -0.0229985674 -0.00492721055 0.0123123127
v -0.0230299195 -0.00461607431 0.0120554167
v -0.0229281147 -0.00465970491 0.0120030839
v -0.02437615 -0.00729917739 0.0169288117
v -0.0243834217 -0.00727289174 0.0168967444
v -0.0243695935 -0.00729268049 0.0169326264
v -0.0243768652 -0.00726639484 0.0169005591
v -0.024386402 -0.00723230098 0.0168589551
v -0.0243928393 -0.00723879789 0.0168550211
v -0.0243937929 -0.00721656535 0.0168450076
v -0.0244003494 -0.00722306226 0.0168411929
v -0.0244244297 -0.00717198108 0.0167960125
v -0.0244179924 -0.00716548417 0.0167999465
v -0.0246198138 -0.00578068946 0.0150560338
v -0.0246261318 -0.00578694795 0.0150513846
v -0.0240001639 -0.00630401824 0.0149303872
v -0.0240063627 -0.00631021713 0.0149256188
v -0.0192878206 -0.00155036901 0.0075725514
v -0.0193539818 -0.00163631891 0.00765790525
v -0.0193580349 -0.00164031242 0.0076495606
v -0.0193808039 -0.00167059158 0.00768723073
v -0.019384857 -0.00167464469 0.00767900529
v -0.0192462166 -0.00142788146 0.00749506536
v -0.0192422827 -0.00142394756 0.0075032908
v -0.0192531307 -0.00146596883 0.0075161654
v -0.0192491968 -0.00146209453 0.00752451005
v -0.0192593296 -0.00148116802 0.00752629819
v -0.0192553957 -0.00147723411 0.00753464284
v -0.0192875822 -0.00155007098 0.00757231298
v -0.0192836483 -0.00154619668 0.00758065763
v -0.0192837675 -0.0015464351 0.00758089605
v -0.0200532635 -0.00242166971 0.00842310968
v -0.020057555 -0.00242602084 0.00841524186
v -0.0199834069 -0.0024895594 0.00840940061
v -0.0199048479 -0.00253873323 0.00839330735
v -0.0199005564 -0.00253438209 0.00840117517
v -0.019980069 -0.00249236081 0.00840916219
v -0.0199773272 -0.00248681758 0.00841726842
v -0.0199791153 -0.00248532747 0.00841738763
v -0.0198626478 -0.00255452846 0.00837888303
v -0.0198583563 -0.00255017732 0.00838675084
v -0.0198179444 -0.00256525729 0.00837292257
v -0.0198222359 -0.00256960843 0.00836505475
v -0.0197981556 -0.0025679395 0.00836362424
v -0.0198024472 -0.00257229064 0.00835563722
v -0.0197342594 -0.00258146976 0.00832356992
v -0.0197298487 -0.00257717822 0.00833155694
v -0.0186788996 -0.00171845411 0.00737859788
v -0.0186827143 -0.00172232841 0.00737025323
v -0.0188299378 -0.0017004535 0.00744070592
v -0.0191193779 -0.00167035316 0.007549544
v -0.019115444 -0.00166641925 0.00755788865
v -0.0190172156 -0.00156813119 0.00746550145
v -0.0190210303 -0.0015720651 0.0074571568
v -0.0189555844 -0.00157498573 0.0074404675
v -0.0185810288 -0.00162064288 0.00727786603
v -0.0185772141 -0.00161682819 0.00728632989
v -0.017657276 -0.000696890099 0.00652207914
v -0.0176606138 -0.00070022796 0.00651325765
v -0.0181058605 -0.000656776174 0.00668098512
v -0.0181093176 -0.000660233243 0.00667228284
v -0.0194442232 -0.000605098947 0.00722148004
v -0.0194480379 -0.000608854039 0.00721301618
v -0.018645521 -0.00119643663 0.00713016572
v -0.0186492165 -0.00120019172 0.00712170186
v -0.0162724217 0.00204712893 0.00521125379
v -0.0162894686 0.00218463685 0.00518109384
v -0.0162700375 0.00204951312 0.00522067132
v -0.0162870844 0.00218696143 0.00519051137
v -0.0220977028 -0.00513731693 0.0116923052
v -0.0218527277 -0.00489234184 0.0112799603
v -0.0220922192 -0.0051318333 0.0116986233
v -0.0218473633 -0.00488697742 0.0112865168
v -0.0221676787 -0.0041668937 0.0109503466
v -0.0220582445 -0.00420480226 0.0108943182
v -0.0221624335 -0.00416158889 0.0109570223
v -0.0220529993 -0.00419955705 0.010900994
v 0.0148491899 -0.0190918968 0.0380000073
v 0.00919235151 -0.0134349987 0.0380000073
v 0.0164027254 -0.0175383613 0.0378129679
v 0.010745887 -0.0118815229 0.0378129679
v 0.0179115574 -0.0160295293 0.0372574526
v 0.0122547189 -0.0103726909 0.0372574526
v 0.0193322937 -0.014608793 0.0363491971
v 0.0136754553 -0.00895195459 0.0363491971
v 0.0206240455 -0.0133170411 0.0351144272
v 0.0149672071 -0.00766020273 0.0351144272
v 0.0217497389 -0.0121914074 0.0335887867
v 0.0160929004 -0.00653456901 0.0335887867
v 0.0226768295 -0.0112643168 0.0318160254
v 0.0170199911 -0.00560741876 0.0318160254
v 0.0233787338 -0.0105623529 0.0298471648
v 0.0177218954 -0.00490551446 0.0298471648
v 0.0238353054 -0.0101058409 0.0277388293
v 0.018178467 -0.00444894288 0.0277388293
v 0.024033312 -0.00990777467 0.0255516964
v 0.0183764736 -0.00425093625 0.0255516964
v 0.0240167419 -0.00992434476 0.0249999959
v 0.0183599035 -0.00426750634 0.0249999959
v 0.0239671509 -0.00997393583 0.023348828
v 0.0183103124 -0.00431709741 0.023348828
v 0.0236387293 -0.010302417 0.0211932856
v 0.0179818908 -0.00464557861 0.0211932856
v 0.0230573456 -0.0108837411 0.0191474158
v 0.0174005071 -0.00522690271 0.0191474158
v 0.0222399275 -0.0117012188 0.0172697503
v 0.016583089 -0.00604438041 0.0172697503
v 0.02120984 -0.0127313063 0.0156145293
v 0.0155530016 -0.00707446788 0.0156145293
v 0.0199967663 -0.01394438 0.0142294365
v 0.0143399278 -0.00828754161 0.0142294365
v 0.0186356346 -0.0153055117 0.0131540495
v 0.0129787962 -0.00964867328 0.0131540495
v 0.0171655456 -0.0167756007 0.0124194819
v 0.0115087072 -0.0111187622 0.0124194819
v 0.0156288187 -0.0183123276 0.0120468337
v 0.00997198026 -0.0126554296 0.0120468337
v 0.0148491899 -0.0190918968 0.0119999844
v 0.00919235151 -0.0134349987 0.0120468337
v 0.0140696804 -0.0198714659 0.0120468337
v 0.00841284196 -0.0142145679 0.0120468337
v 0.0125329534 -0.0214081333 0.0124194819
v 0.00687611501 -0.0157512948 0.0124194819
v 0.0110628645 -0.0228782222 0.0131540495
v 0.00540602605 -0.0172213838 0.0131540495
v 0.0097017328 -0.0242394135 0.0142294365
v 0.00404489439 -0.0185825155 0.0142294365
v 0.00848865907 -0.0254524276 0.0156145293
v 0.00283182066 -0.0197955892 0.0156145293
v 0.0074585716 -0.0264825151 0.0172697503
v 0.00180173318 -0.0208256767 0.0172697503
v 0.0066411535 -0.0272999928 0.0191474158
v 0.000984315086 -0.0216431544 0.0191474158
v 0.0060597698 -0.0278813169 0.0211932856
v 0.000402931381 -0.0222244785 0.0211932856
v 0.00573134821 -0.0282097981 0.023348828
v 7.45097886e-05 -0.0225529597 0.023348828
v 0.00568175714 -0.0282593891 0.0249999959
v 2.47995149e-05 -0.0226025507 0.0249999959
v 0.00566518705 -0.0282759592 0.0255516964
v 8.22942364e-06 -0.0226191208 0.0255516964
v 0.00586319368 -0.0280779526 0.0277388293
v 0.000206355263 -0.0224211142 0.0277388293
v 0.00631976526 -0.027621381 0.0298471648
v 0.000662926842 -0.0219645426 0.0298471648
v 0.00702166956 -0.0269194767 0.0318160254
v 0.00136483114 -0.0212626383 0.0318160254
v 0.0079487602 -0.0259923265 0.0335887867
v 0.00229192178 -0.0203354881 0.0335887867
v 0.00907445352 -0.0248667524 0.0351144272
v 0.0034174959 -0.0192098543 0.0351144272
v 0.0103662054 -0.0235749409 0.0363491971
v 0.00470924776 -0.0179181025 0.0363491971
v 0.0117869417 -0.0221542046 0.0372574526
v 0.00612998407 -0.0164973662 0.0372574526
v 0.0132957737 -0.0206454322 0.0378129679
v 0.00763881605 -0.0149885342 0.0378129679
v 0.0280038158 0.000386483924 0.00945653501
v 0.0285946171 0.000396735923 0.00934650483
v 0.0278555195 0.000534839885 0.00895001474
v 0.02841628 0.00057507302 0.00873746457
v 0.0276194851 0.000770814673 0.00851513925
v 0.0281325619 0.000858850734 0.00821461263
v 0.0273120443 0.00107831504 0.00818135324
v 0.0277627746 0.00122857835 0.00781323495
v 0.0269538204 0.00143647935 0.00797154489
v 0.0273321907 0.0016592219 0.00756098809
v 0.0265694896 0.0018208101 0.00790001931
v 0.0268700163 0.00212133671 0.0074750382
v 0.0261851589 0.00220514085 0.00797154489
v 0.0264079611 0.00258345153 0.00756098809
v 0.0258270542 0.00256324555 0.00818135324
v 0.0259773771 0.00301403548 0.00781323495
v 0.0255194942 0.00287080552 0.00851513925
v 0.0256075899 0.0033838227 0.00821461263
v 0.025283579 0.00310678031 0.00895001474
v 0.0253238718 0.0036675408 0.00873746457
v 0.0251351635 0.00325513627 0.00945653501
v 0.0251454155 0.00384593751 0.00934650483
v 0.0250846187 0.00330574061 0.0100000102
v 0.0250846187 0.00390679385 0.0100000102
v 0.0251351635 0.00325513627 0.0105434853
v 0.0251454155 0.00384593751 0.0106535155
v 0.025283579 0.00310678031 0.0110500056
v 0.0253238718 0.0036675408 0.0112625557
v 0.0255194942 0.00287080552 0.0114848811
v 0.0256075899 0.0033838227 0.0117854077
v 0.0258270542 0.00256324555 0.0118186671
v 0.0259773771 0.00301403548 0.0121866662
v 0.0261851589 0.00220514085 0.0120284754
v 0.0264079611 0.00258345153 0.012438913
v 0.0265694896 0.0018208101 0.012100001
v 0.0268700163 0.00212133671 0.0125249821
v 0.0269538204 0.00143647935 0.0120284754
v 0.0273321907 0.0016592219 0.012438913
v 0.0273120443 0.00107831504 0.0118186671
v 0.0277627746 0.00122857835 0.0121866662
v 0.0276194851 0.000770814673 0.0114848811
v 0.0281325619 0.000858850734 0.0117854077
v 0.0278555195 0.000534839885 0.0110500056
v 0.02841628 0.00057507302 0.0112625557
v 0.0280038158 0.000386483924 0.0105434853
v 0.0285946171 0.000396735923 0.0106535155
v 0.0280544798 0.000335879581 0.0100000102
v 0.028655533 0.000335879581 0.0100000102
v 0.000607136894 -0.0149492547 0.0579999882
v 0.00979948442 -0.0241416619 0.0579999882
v 0.00155616205 -0.0140002296 0.0568533141
v 0.0107485096 -0.0231926367 0.0568533141
v 0.00263297956 -0.0129234121 0.0559605557
v 0.0118253271 -0.0221158192 0.0559605557
v 0.00380397241 -0.0117523596 0.0553493697
v 0.0129963199 -0.0209447667 0.0553493697
v 0.00503278177 -0.0105236099 0.0550390679
v 0.0142251293 -0.019716017 0.0550390679
v 0.0148491899 -0.0190918968 0.0550390679
v 0.00628102224 -0.00927536939 0.0550390679
v 0.0154733698 -0.0184677765 0.0550390679
v 0.00750971239 -0.00804661964 0.0553493697
v 0.0167021791 -0.0172389672 0.0553493697
v 0.00868082445 -0.00687556718 0.0559605557
v 0.017873172 -0.0160679743 0.0559605557
v 0.00975752275 -0.00579874967 0.0568533141
v 0.0189499895 -0.0149911568 0.0568533141
v 0.0107065479 -0.00484972451 0.0579999882
v 0.0198990146 -0.0140421316 0.0579999882
v 0.0205768387 -0.00714176153 0.0455999571
v 0.0205768387 -0.00714176153 0.0575750071
v 0.0209105055 -0.00670682643 0.0455999571
v 0.0209105055 -0.00670682643 0.0575750071
v 0.0211203138 -0.00620036577 0.0455999571
v 0.0211203138 -0.00620036577 0.0575750071
v 0.0211918394 -0.00565683101 0.0455999571
v 0.0211918394 -0.00565683101 0.0575750071
v 0.0211203138 -0.00511335586 0.0455999571
v 0.0211203138 -0.00511335586 0.0575750071
v 0.0209105055 -0.00460683559 0.0455999571
v 0.0209105055 -0.00460683559 0.0575750071
v 0.0205768387 -0.00417190049 0.0455999571
v 0.0205768387 -0.00417190049 0.0575750071
v 0.020141844 -0.00383817409 0.0455999571
v 0.020141844 -0.00383817409 0.0575750071
v 0.0196354429 -0.00362842534 0.0455999571
v 0.0196354429 -0.00362842534 0.0575750071
v 0.0190918485 -0.00355684017 0.0455999571
v 0.0190918485 -0.00355684017 0.0575750071
v 0.0185483734 -0.00362842534 0.0455999571
v 0.0185483734 -0.00362842534 0.0575750071
v 0.0180418531 -0.00383817409 0.0455999571
v 0.0180418531 -0.00383817409 0.0575750071
v 0.0176069776 -0.00417190049 0.0455999571
v 0.0176069776 -0.00417190049 0.0575750071
v 0.0172731916 -0.00460683559 0.0455999571
v 0.0172731916 -0.00460683559 0.0575750071
v 0.0170633833 -0.00511335586 0.0455999571
v 0.0170633833 -0.00511335586 0.0575750071
v 0.0169918577 -0.00565683101 0.0455999571
v 0.0169918577 -0.00565683101 0.0575750071
v 0.0170633833 -0.00620036577 0.0455999571
v 0.0170633833 -0.00620036577 0.0575750071
v 0.0172731916 -0.00670682643 0.0455999571
v 0.0172731916 -0.00670682643 0.0575750071
v 0.0176069776 -0.00714176153 0.0455999571
v 0.0176069776 -0.00714176153 0.0575750071
v 0.0180418531 -0.00747548793 0.0455999571
v 0.0180418531 -0.00747548793 0.0575750071
v 0.0185483734 -0.00768529628 0.0455999571
v 0.0185483734 -0.00768529628 0.0575750071
v 0.0190918485 -0.00775688146 0.0455999571
v 0.0190918485 -0.00775688146 0.0575750071
v 0.0196354429 -0.00768529628 0.0455999571
v 0.0196354429 -0.00768529628 0.0575750071
v 0.020141844 -0.00747548793 0.0455999571
v 0.020141844 -0.00747548793 0.0575750071
v 0.000364188362 -0.0215158984 -0.0075750154
v 0.000151757408 -0.0211477802 -0.00799999652
v 0.000870708634 -0.0213060901 -0.0075750154
v 0.000760678459 -0.0208955333 -0.00799999652
v 0.00141418378 -0.0212345049 -0.0075750154
v 0.00141418378 -0.0208095238 -0.00799999652
v 0.00195777814 -0.0213060901 -0.0075750154
v 0.00206768911 -0.0208955333 -0.00799999652
v 0.00246417921 -0.0215158984 -0.0075750154
v 0.00267672937 -0.0211477802 -0.00799999652
v 0.0028991739 -0.0218496249 -0.0075750154
v 0.00319970052 -0.0215490982 -0.00799999652
v 0.00323284071 -0.0222845003 -0.0075750154
v 0.00360095899 -0.0220720098 -0.00799999652
v 0.00344264906 -0.0227910206 -0.0075750154
v 0.00385320585 -0.0226809904 -0.00799999652
v 0.00351417463 -0.0233344958 -0.0075750154
v 0.00393915575 -0.0233344958 -0.00799999652
v 0.00344264906 -0.0238780305 -0.0075750154
v 0.00385320585 -0.0239880607 -0.00799999652
v 0.00323284071 -0.0243845508 -0.0075750154
v 0.00360095899 -0.0245970414 -0.00799999652
v 0.0028991739 -0.0248194263 -0.0075750154
v 0.00319970052 -0.0251199529 -0.00799999652
v 0.00246417921 -0.0251531527 -0.0075750154
v 0.00267672937 -0.0255212114 -0.00799999652
v 0.00195777814 -0.025362961 -0.0075750154
v 0.00206768911 -0.0257734582 -0.00799999652
v 0.00141418378 -0.0254345462 -0.0075750154
v 0.00141418378 -0.0258595273 -0.00799999652
v 0.000870708634 -0.025362961 -0.0075750154
v 0.000760678459 -0.0257734582 -0.00799999652
v 0.000364188362 -0.0251531527 -0.0075750154
v 0.000151757408 -0.0255212114 -0.00799999652
v -7.0687126e-05 -0.0248194263 -0.0075750154
v -0.000371213745 -0.0251199529 -0.00799999652
v -0.000404473137 -0.0243845508 -0.0075750154
v -0.000772472214 -0.0245970414 -0.00799999652
v -0.000614281486 -0.0238780305 -0.0075750154
v -0.00102471907 -0.0239880607 -0.00799999652
v -0.00068580706 -0.0233344958 -0.0075750154
v -0.00111078818 -0.0233344958 -0.00799999652
v -0.000614281486 -0.0227910206 -0.0075750154
v -0.00102471907 -0.0226809904 -0.00799999652
v -0.000404473137 -0.0222845003 -0.0075750154
v -0.000772472214 -0.0220720098 -0.00799999652
v -7.0687126e-05 -0.0218496249 -0.0075750154
v -0.000371213745 -0.0215490982 -0.00799999652
v -0.0055075844 -0.0139928386 0.0385934311
v 0.00149715345 -0.021130316 0.0386872489
v -0.00571572382 -0.0142009184 0.0388871628
v 0.00130224626 -0.0213252232 0.0389622647
v -0.00576889117 -0.0142541454 0.0389622647
v -0.00608872969 -0.0145740435 0.0392228562
v 0.000982288529 -0.0216451213 0.0392228562
v -0.00644540388 -0.0149307177 0.0393575627
v 0.000625614334 -0.0220017955 0.0393575627
v -0.00681459505 -0.0152999089 0.0393569666
v 0.000256423164 -0.0223709867 0.0393569666
v -0.00717115004 -0.0156564042 0.0392214257
v -0.000100131821 -0.0227274821 0.0392214257
v -0.00749063094 -0.0159759447 0.0389598805
v -0.000419612717 -0.0230470226 0.0389598805
v -0.00754201014 -0.0160272643 0.0388871628
v -0.000485893082 -0.0231133029 0.0388659436
v -0.00769841273 -0.0161836669 0.0386655528
v -0.000612135719 -0.023239486 0.0386872489
v -0.00775146086 -0.0162367747 0.0385903317
v -0.000680442642 -0.0233078525 0.0385903317
v -0.00793575842 -0.0164210722 0.0381379324
v -0.000864740204 -0.0234920904 0.0381379324
v -0.00803100665 -0.0165162608 0.0376335579
v -0.000959869217 -0.0235873387 0.0376335579
v -0.00803064902 -0.0165159032 0.0371114213
v -0.000959511589 -0.023586981 0.0371114213
v -0.00793468554 -0.0164199993 0.036607166
v -0.00086366732 -0.0234910772 0.036607166
v -0.00774979193 -0.0162351057 0.0361553628
v -0.000678773712 -0.0233061836 0.0361553628
v -0.00769841273 -0.0161836669 0.0360827643
v -0.000485893082 -0.0231133029 0.0358830887
v -0.00748848517 -0.015973799 0.0357865292
v -0.000417466949 -0.0230448768 0.0357865292
v -0.00716864664 -0.0156539008 0.0355258185
v -9.75092162e-05 -0.0227249787 0.0355258185
v -0.00681197245 -0.015297167 0.0353912312
v 0.000259164978 -0.0223682449 0.0353912312
v -0.00644278128 -0.0149280355 0.035391708
v 0.000628356148 -0.0219990537 0.035391708
v -0.0060862263 -0.0145714805 0.0355273682
v 0.000984791924 -0.0216425583 0.0355273682
v -0.00576662619 -0.01425194 0.0357887942
v 0.00130439203 -0.0213230178 0.0357887942
v -0.00550591547 -0.0139911697 0.036158343
v 0.00156522195 -0.0210622475 0.036158343
v -0.00532161791 -0.0138068721 0.0366107422
v 0.00174951952 -0.0208779499 0.0366107422
v -0.00522636969 -0.0137116835 0.037115236
v 0.00184464853 -0.0207827613 0.037115236
v -0.00522672732 -0.0137120411 0.0376373726
v 0.0018442909 -0.0207831189 0.0376373726
v -0.0053226908 -0.013807945 0.0381415087
v 0.00174844663 -0.0208789632 0.0381415087
v 0.00156355302 -0.0210639164 0.0385934311
v 0.0117332975 0.00324804331 0.0357887942
v 0.0188707153 -0.00375675414 0.0358827311
v 0.0119410793 0.0034557655 0.0360831219
v 0.0190651457 -0.00356220458 0.036158343
v 0.0119941274 0.00350887324 0.036158343
v 0.012178425 0.0036931112 0.0366107422
v 0.0192494432 -0.00337796663 0.0366107422
v 0.012273554 0.00378835942 0.037115236
v 0.0193446914 -0.0032827184 0.037115236
v 0.0122731964 0.00378800179 0.0376373726
v 0.0193443338 -0.00328307603 0.0376373726
v 0.0121773521 0.00369209792 0.0381415087
v 0.0192483703 -0.00337897991 0.0381415087
v 0.0119924585 0.00350720431 0.0385934311
v 0.0190634767 -0.00356387351 0.0385934311
v 0.0119410793 0.0034557655 0.0386660296
v 0.0189970772 -0.00363033269 0.0386872489
v 0.0117843191 0.00329906489 0.0388871628
v 0.0188707153 -0.00375675414 0.0388655859
v 0.0117311517 0.00324589755 0.0389622647
v 0.01880217 -0.00382518028 0.0389622647
v 0.011411194 0.00292599942 0.0392228562
v 0.0184823314 -0.0041450784 0.0392228562
v 0.0110545198 0.00256926562 0.0393575627
v 0.0181256572 -0.0045018122 0.0393575627
v 0.0106853287 0.00220007445 0.0393569666
v 0.0177564661 -0.00487100337 0.0393569666
v 0.0103288929 0.00184357907 0.0392214257
v 0.0173999111 -0.00522749875 0.0392214257
v 0.0100092928 0.00152403857 0.0389598805
v 0.0170804302 -0.00554703925 0.0389598805
v 0.00995803278 0.00147271897 0.0388871628
v 0.0168879072 -0.00573950265 0.0386872489
v 0.00974846284 0.00126320864 0.0385903317
v 0.0168196003 -0.00580780958 0.0385903317
v 0.00956428449 0.00107897069 0.0381379324
v 0.0166353027 -0.00599210714 0.0381379324
v 0.00946903627 0.000983722465 0.0376335579
v 0.0165400545 -0.00608729575 0.0376335579
v 0.0094693939 0.000984080092 0.0371114213
v 0.0165404121 -0.00608693813 0.0371114213
v 0.00956523817 0.00107998397 0.036607166
v 0.0166363756 -0.00599109386 0.036607166
v 0.00975013178 0.00126487757 0.0361553628
v 0.0168212692 -0.00580614064 0.0361553628
v 0.0100114385 0.00152618434 0.0357865292
v 0.017082576 -0.00554483388 0.0357865292
v 0.0103313963 0.00184608247 0.0355258185
v 0.0174024145 -0.00522493575 0.0355258185
v 0.0106880705 0.00220281626 0.0353912312
v 0.0177592079 -0.00486826156 0.0353912312
v 0.0110572616 0.00257200743 0.035391708
v 0.0181282799 -0.00449907039 0.035391708
v 0.0114138166 0.00292850281 0.0355273682
v 0.0184848348 -0.00414257501 0.0355273682
v 0.0188044349 -0.00382303451 0.0357887942
f 1 2 3
f 1 3 4
f 4 3 5
f 4 5 6
f 6 5 7
f 6 7 8
f 7 9 8
f 8 9 10
f 8 10 11
f 11 10 12
f 11 12 13
f 13 12 14
f 13 14 15
f 15 14 16
f 15 16 17
f 17 16 18
f 17 18 19
f 19 18 20
f 19 20 21
f 21 20 22
f 21 22 23
f 23 22 24
f 23 24 25
f 25 26 23
f 23 26 27
f 23 27 28
f 28 27 29
f 28 29 30
f 30 29 31
f 30 31 32
f 32 31 33
f 32 33 34
f 34 33 35
f 35 33 36
f 35 36 37
f 37 36 38
f 37 38 39
f 39 38 40
f 40 38 41
f 40 41 42
f 42 41 43
f 42 43 44
f 44 43 45
f 45 43 46
f 45 46 47
f 46 48 47
f 47 48 49
f 47 49 50
f 50 49 51
f 50 51 52
f 52 51 53
f 53 51 54
f 53 54 55
f 55 54 56
f 55 56 57
f 57 56 58
f 57 58 59
f 59 58 60
f 59 60 61
f 61 60 62
f 61 62 63
f 63 62 64
f 63 64 65
f 65 64 66
f 65 66 67
f 67 66 68
f 67 68 69
f 69 68 70
f 69 70 71
f 71 70 72
f 71 72 73
f 73 72 74
f 73 74 75
f 75 74 76
f 75 76 77
f 77 76 78
f 77 78 79
f 78 80 79
f 79 80 81
f 79 81 82
f 82 81 83
f 82 83 84
f 84 83 85
f 84 85 86
f 86 85 87
f 86 87 88
f 88 87 89
f 88 89 90
f 90 89 91
f 90 91 92
f 92 91 93
f 92 93 94
f 94 93 95
f 94 95 96
f 97 98 99
f 99 98 100
f 99 100 101
f 101 100 102
f 101 102 103
f 103 102 94
f 103 94 104
f 104 94 96
f 105 106 107
f 107 106 108
f 107 108 97
f 97 108 109
f 97 109 98
f 110 111 112
f 112 111 113
f 112 113 114
f 114 113 115
f 114 115 105
f 105 115 116
f 105 116 106
f 112 117 110
f 110 117 118
f 110 118 119
f 119 118 120
f 119 120 121
f 121 120 122
f 123 124 125
f 125 124 126
f 125 126 127
f 127 126 128
f 127 128 129
f 129 128 130
f 129 130 131
f 131 130 132
f 131 132 133
f 133 132 134
f 133 134 135
f 135 134 136
f 135 136 137
f 137 136 138
f 137 138 122
f 122 138 139
f 122 139 121
f 2 1 140
f 140 1 141
f 140 141 123
f 123 141 142
f 123 142 124
f 143 144 145
f 145 144 146
f 146 144 147
f 147 144 148
f 147 148 149
f 148 150 149
f 149 150 151
f 149 151 152
f 153 154 155
f 155 154 156
f 157 158 159
f 159 158 160
f 159 160 161
f 162 163 164
f 164 163 165
f 164 165 166
f 166 165 167
f 166 167 168
f 168 167 169
f 168 169 157
f 157 169 170
f 157 170 158
f 171 172 173
f 174 175 176
f 176 175 177
f 176 177 173
f 173 177 178
f 173 178 171
f 174 179 175
f 175 179 180
f 180 179 181
f 181 179 182
f 181 182 183
f 182 184 183
f 183 184 185
f 183 185 186
f 187 188 189
f 189 188 190
f 189 190 191
f 192 193 194
f 194 193 195
f 194 195 196
f 197 198 199
f 199 198 200
f 201 202 203
f 203 202 204
f 205 206 207
f 207 206 208
f 209 210 211
f 211 210 212
f 213 214 215
f 215 214 216
f 217 218 219
f 219 218 220
f 219 220 221
f 221 220 222
f 221 222 223
f 223 222 224
f 223 224 225
f 225 224 226
f 225 226 227
f 227 226 228
f 227 228 229
f 229 228 230
f 229 230 231
f 231 230 232
f 231 232 233
f 233 232 234
f 233 234 235
f 235 234 236
f 235 236 237
f 237 236 238
f 237 238 239
f 239 238 240
f 239 240 241
f 241 240 242
f 241 242 243
f 243 242 244
f 243 244 245
f 245 244 246
f 245 246 247
f 247 246 248
f 247 248 249
f 249 248 250
f 249 250 251
f 251 250 252
f 251 252 253
f 253 252 254
f 253 254 255
f 255 254 256
f 255 256 257
f 257 256 258
f 257 258 259
f 259 258 260
f 259 260 261
f 261 260 262
f 261 262 263
f 263 262 264
f 263 264 265
f 265 264 266
f 265 266 267
f 267 266 268
f 267 268 269
f 269 268 270
f 269 270 271
f 271 270 272
f 271 272 273
f 273 272 274
f 273 274 275
f 275 274 276
f 275 276 277
f 277 276 278
f 277 278 279
f 279 278 280
f 279 280 281
f 281 280 282
f 281 282 283
f 283 282 284
f 283 284 285
f 285 284 286
f 285 286 287
f 287 286 288
f 287 288 289
f 289 288 290
f 289 290 291
f 291 290 292
f 291 292 293
f 293 292 294
f 293 294 295
f 295 294 296
f 295 296 217
f 217 296 218
f 297 298 299
f 299 298 300
f 299 300 301
f 301 300 302
f 301 302 303
f 303 302 304
f 303 304 305
f 305 304 306
f 305 306 307
f 307 306 308
f 307 308 309
f 309 308 310
f 309 310 311
f 311 310 312
f 311 312 313
f 313 312 314
f 313 314 315
f 315 314 316
f 315 316 317
f 317 316 318
f 317 318 319
f 319 318 320
f 319 320 321
f 321 320 322
f 321 322 323
f 323 322 324
f 323 324 325
f 325 324 326
f 325 326 327
f 327 326 328
f 327 328 329
f 329 328 330
f 329 330 331
f 331 330 332
f 331 332 333
f 333 332 334
f 333 334 335
f 335 334 336
f 335 336 337
f 337 336 338
f 337 338 339
f 339 338 340
f 339 340 341
f 341 340 342
f 341 342 343
f 343 342 344
f 343 344 297
f 297 344 298
f 345 346 347
f 347 346 348
f 347 348 349
f 349 348 350
f 349 350 351
f 351 350 352
f 351 352 353
f 352 354 353
f 353 354 355
f 353 355 356
f 356 355 357
f 356 357 358
f 358 357 359
f 358 359 360
f 360 359 361
f 360 361 362
f 362 361 363
f 362 363 364
f 364 363 365
f 366 367 368
f 368 367 369
f 368 369 370
f 370 369 371
f 370 371 372
f 372 371 373
f 372 373 374
f 374 373 375
f 374 375 376
f 376 375 377
f 376 377 378
f 378 377 379
f 378 379 380
f 380 379 381
f 380 381 382
f 382 381 383
f 382 383 384
f 384 383 385
f 384 385 386
f 386 385 387
f 386 387 388
f 388 387 389
f 388 389 390
f 390 389 391
f 390 391 392
f 392 391 393
f 392 393 394
f 394 393 395
f 394 395 396
f 396 395 397
f 396 397 398
f 398 397 399
f 398 399 400
f 400 399 401
f 400 401 402
f 402 401 403
f 402 403 404
f 404 403 405
f 404 405 406
f 406 405 407
f 406 407 408
f 408 407 409
f 408 409 410
f 410 409 411
f 410 411 412
f 412 411 413
f 412 413 366
f 366 413 367
f 414 415 416
f 416 415 417
f 416 417 418
f 418 417 419
f 418 419 420
f 420 419 421
f 420 421 422
f 422 421 423
f 422 423 424
f 424 423 425
f 424 425 426
f 426 425 427
f 426 427 428
f 428 427 429
f 428 429 430
f 430 429 431
f 430 431 432
f 432 431 433
f 432 433 434
f 434 433 435
f 434 435 436
f 436 435 437
f 436 437 438
f 438 437 439
f 438 439 440
f 440 439 441
f 440 441 442
f 442 441 443
f 442 443 444
f 444 443 445
f 444 445 446
f 446 445 447
f 446 447 448
f 448 447 449
f 448 449 450
f 450 449 451
f 450 451 452
f 452 451 453
f 452 453 454
f 454 453 455
f 454 455 456
f 456 455 457
f 456 457 458
f 458 457 459
f 458 459 460
f 460 459 461
f 460 461 414
f 414 461 415
f 462 463 464
f 464 463 465
f 464 465 466
f 466 465 467
f 467 465 468
f 467 468 469
f 469 468 470
f 469 470 471
f 471 470 472
f 471 472 473
f 473 472 474
f 473 474 475
f 475 474 476
f 475 476 477
f 477 476 478
f 477 478 479
f 479 478 480
f 479 480 481
f 481 480 482
f 481 482 483
f 483 482 484
f 483 484 485
f 485 484 486
f 485 486 487
f 487 486 488
f 487 488 489
f 489 488 490
f 489 490 491
f 491 490 492
f 491 492 493
f 493 492 494
f 493 494 495
f 495 494 496
f 495 496 497
f 497 496 498
f 497 498 499
f 499 498 500
f 499 500 501
f 501 500 502
f 501 502 503
f 503 502 504
f 503 504 505
f 505 504 506
f 505 506 507
f 507 506 508
f 507 508 509
f 509 508 510
f 509 510 511
f 511 510 512
f 511 512 513
f 513 512 514
f 513 514 515
f 515 514 516
f 515 516 462
f 462 516 517
f 462 517 463
f 518 519 520
f 520 519 521
f 520 521 522
f 522 521 523
f 523 521 524
f 523 524 525
f 525 524 526
f 525 526 527
f 527 526 528
f 527 528 529
f 529 528 530
f 529 530 531
f 531 530 532
f 531 532 533
f 533 532 534
f 533 534 535
f 535 534 536
f 535 536 537
f 537 536 538
f 537 538 539
f 539 538 540
f 539 540 541
f 541 540 542
f 541 542 543
f 543 542 544
f 543 544 545
f 545 544 546
f 545 546 547
f 547 546 548
f 547 548 549
f 549 548 550
f 549 550 551
f 551 550 552
f 551 552 553
f 553 552 554
f 553 554 555
f 555 554 556
f 555 556 557
f 557 556 558
f 557 558 559
f 559 558 560
f 559 560 561
f 561 560 562
f 561 562 563
f 563 562 564
f 563 564 565
f 565 564 566
f 565 566 567
f 567 566 568
f 567 568 569
f 569 568 570
f 569 570 571
f 571 570 572
f 571 572 518
f 518 572 573
f 518 573 519
