v -0.00161231781 -0.0162664626 0.00532211262
v -0.001614702 -0.0162639592 0.00533141094
v -0.000854742777 -0.0170239185 0.0057568689
v -0.0008576038 -0.0170210574 0.00576604801
v -0.00120712544 -0.0157532666 0.00529374081
v -0.00120950962 -0.0157508825 0.00530303913
v -0.000469577562 -0.0164908145 0.00571133095
v -0.000472319376 -0.0164880727 0.00572051007
v 0.00554119324 -0.0234230731 0.0133630176
v 0.0055471537 -0.0234289144 0.0133574148
v 0.00560389732 -0.0233464215 0.0133482357
v 0.00561093067 -0.0233507131 0.013342156
v 0.00561999058 -0.0233213876 0.0133386989
v 0.00562595104 -0.0233272288 0.0133333345
v 0.00568877434 -0.023229358 0.0132961412
v 0.00568269466 -0.0232235168 0.0133015056
v 0.00574313377 -0.0231139634 0.0132321258
v 0.00571631168 -0.0231593822 0.0132694383
v 0.00574122642 -0.0231208776 0.013237371
v 0.00568984722 -0.0232124303 0.0132973333
v 0.00569485401 -0.0232198213 0.0132925649
v 0.00577663158 -0.0229723428 0.0131374736
v 0.00577245926 -0.0229922507 0.0131536861
v 0.00577496265 -0.0229989265 0.0131456991
v 0.00576769089 -0.0230147813 0.0131721635
v 0.00573431228 -0.023108599 0.0132353445
v 0.00578509544 -0.0229618524 0.0131178041
v 0.00578879093 -0.0229060624 0.0130642791
v 0.00578032707 -0.0229015325 0.0130686899
v 0.0057909367 -0.0228735183 0.0130331655
v 0.00578354572 -0.0228400205 0.0130088468
v 0.00578092312 -0.0228124831 0.0129610439
v 0.00577615475 -0.022806165 0.0129672428
v 0.00570963596 -0.0226619218 0.012739553
v 0.00570391392 -0.0226561998 0.0127453943
v 0.00572274898 -0.0226762269 0.0127666135
v 0.00574742531 -0.022725818 0.0128578086
v 0.00576482986 -0.022753713 0.0129028698
v 0.00577353214 -0.0227680181 0.012908711
v 0.00575326656 -0.0227313016 0.0128519674
v 0.00396703457 -0.0219889854 0.0106729408
v 0.00397227978 -0.0219941114 0.0106661459
v 0.0039238808 -0.0221115325 0.0107333799
v 0.00392912601 -0.0221166585 0.010726585
v 0.00380526756 -0.0224678491 0.0109021803
v 0.00380002235 -0.0224626039 0.010908856
v 0.00380610203 -0.0224654649 0.0109009882
v 0.00380085682 -0.0224602197 0.0109076639
v 0.00375341152 -0.022592542 0.0109743019
v 0.00375877594 -0.0225979064 0.0109676262
v 0.00421153282 -0.0230507825 0.0117159029
v 0.00438975071 -0.0232288812 0.0120307346
v 0.00420604919 -0.0230452989 0.011722221
v 0.00438414787 -0.0232233976 0.0120369335
v -0.000999105227 -0.0178400253 0.00598312813
v -0.000996124994 -0.0178430055 0.00597406822
v -0.000920784723 -0.0179183458 0.00603546101
v -3.11257954e-05 -0.0188080047 0.00667513806
v -3.45828648e-05 -0.0188045476 0.00668395954
v 0.0141422627 -0.0151075099 0.0136720081
v 0.0142277357 -0.0151928638 0.0138628622
v 0.0142336962 -0.0151988242 0.013857617
v 0.0128308413 -0.0137959693 0.011198773
v 0.0122293112 -0.0131944392 0.0102657219
v 0.0121387122 -0.0131038402 0.0101508041
v 0.0116304037 -0.0125955318 0.00945152241
v 0.0113977072 -0.0123628352 0.00917197663
v 0.0110001442 -0.0119652723 0.00868596035
v 0.0109957335 -0.0119608615 0.00869370896
v 0.0140553591 -0.0150206063 0.0134824653
v 0.0138443587 -0.0148094867 0.0130223175
v 0.0134706375 -0.0144358848 0.0123109956
v 0.0134273646 -0.0143924926 0.0122141977
v 0.0128495571 -0.0138146852 0.0112139125
v 0.00895272468 -0.0177098487 0.0112277408
v 0.0089580891 -0.0177152131 0.0112211843
v 0.00708030437 -0.0203838323 0.0119086643
v 0.007085788 -0.0203893159 0.0119024654
v -0.0112707737 -0.017013428 0.00856067139
v 0.00711392139 0.00137126702 0.00856067139
v -0.0111022117 -0.01718199 0.00825001198
v 0.00728248333 0.00120270508 0.00825001198
v -0.0109963539 -0.017287967 0.00788821179
v 0.00738846039 0.00109684723 0.00788821179
v -0.0109601143 -0.0173240874 0.00749994713
v 0.0074245808 0.00106060761 0.00749994713
v -0.0109963539 -0.017287967 0.00711180168
v 0.00738846039 0.00109684723 0.00711180168
v -0.0111022117 -0.01718199 0.00675000149
v 0.00728248333 0.00120270508 0.00675000149
v -0.0112707737 -0.017013428 0.00643934208
v 0.00711392139 0.00137126702 0.00643934208
v -0.0114904764 -0.0167938445 0.0062009235
v 0.00689433788 0.00159096974 0.0062009235
v -0.0117462995 -0.0165380214 0.00605107742
v 0.00663851475 0.00184679287 0.00605107742
v -0.0120208385 -0.0162634824 0.00600005585
v 0.00636397575 0.00212133187 0.00600005585
v -0.0122953775 -0.0159889434 0.00605107742
v 0.00608943676 0.00239587086 0.00605107742
v -0.0125512006 -0.0157331203 0.0062009235
v 0.00583361362 0.002651694 0.0062009235
v -0.0127707842 -0.0155134175 0.00643934208
v 0.0056139109 0.00287127751 0.00643934208
v -0.0129393461 -0.0153448556 0.00675000149
v 0.00544534897 0.00303983944 0.00675000149
v -0.0130453231 -0.0152388786 0.00711180168
v 0.00533949112 0.0031458165 0.00711180168
v -0.0130814436 -0.0152027581 0.00749994713
v 0.00530325149 0.00318193692 0.00749994713
v -0.0130453231 -0.0152388786 0.00788821179
v 0.00533949112 0.0031458165 0.00788821179
v -0.0129393461 -0.0153448556 0.00825001198
v 0.00544534897 0.00303983944 0.00825001198
v -0.0127707842 -0.0155134175 0.00856067139
v 0.0056139109 0.00287127751 0.00856067139
v -0.0125512006 -0.0157331203 0.00879908997
v 0.00583361362 0.002651694 0.00879908997
v -0.0122953775 -0.0159889434 0.00894893604
v 0.00608943676 0.00239587086 0.00894893604
v -0.0120208385 -0.0162634824 0.00899995762
v 0.00636397575 0.00212133187 0.00899995762
v -0.0117462995 -0.0165380214 0.00894893604
v 0.00663851475 0.00184679287 0.00894893604
v -0.0114904764 -0.0167938445 0.00879908997
v 0.00689433788 0.00159096974 0.00879908997
v 0.0293778059 -0.00749778492 0.0094565292
v 0.0293880579 -0.00808858616 0.00934649903
v 0.0295262215 -0.00734936935 0.00895000893
v 0.0295665142 -0.00791024906 0.00873745877
v 0.0297621367 -0.00711345417 0.00851513344
v 0.0298502324 -0.00762641174 0.00821460682
v 0.0300696967 -0.0068058942 0.00818134743
v 0.0302200196 -0.00725662452 0.00781322914
v 0.0304278014 -0.00644778949 0.00797153908
v 0.0306506035 -0.00682604057 0.00756098229
v 0.0308121321 -0.00606345875 0.00790001351
v 0.0311126587 -0.00636398536 0.00747503239
v 0.0311964629 -0.005679128 0.00797153908
v 0.0315748331 -0.00590181095 0.00756098229
v 0.0315546868 -0.00532102329 0.00818134743
v 0.0320054171 -0.00547122699 0.00781322914
v 0.0318621275 -0.00501346332 0.00851513344
v 0.0323752043 -0.00510143978 0.00821460682
v 0.0320981619 -0.00477742893 0.00895000893
v 0.0326589224 -0.00481772167 0.00873745877
v 0.0322464583 -0.00462913257 0.0094565292
v 0.0328372595 -0.00463938457 0.00934649903
v 0.0322971222 -0.00457846863 0.0100000044
v 0.0328981755 -0.00457846863 0.0100000044
v 0.0322464583 -0.00462913257 0.0105434795
v 0.0328372595 -0.00463938457 0.0106535097
v 0.0320981619 -0.00477742893 0.0110499998
v 0.0326589224 -0.00481772167 0.0112625499
v 0.0318621275 -0.00501346332 0.0114848753
v 0.0323752043 -0.00510143978 0.0117854019
v 0.0315546868 -0.00532102329 0.0118186613
v 0.0320054171 -0.00547122699 0.0121866603
v 0.0311964629 -0.005679128 0.0120284696
v 0.0315748331 -0.00590181095 0.0124389072
v 0.0308121321 -0.00606345875 0.0120999952
v 0.0311126587 -0.00636398536 0.0125249763
v 0.0304278014 -0.00644778949 0.0120284696
v 0.0306506035 -0.00682604057 0.0124389072
v 0.0300696967 -0.0068058942 0.0118186613
v 0.0302200196 -0.00725662452 0.0121866603
v 0.0297621367 -0.00711345417 0.0114848753
v 0.0298502324 -0.00762641174 0.0117854019
v 0.0295262215 -0.00734936935 0.0110499998
v 0.0295665142 -0.00791024906 0.0112625499
v 0.0293778059 -0.00749778492 0.0105434795
v 0.0293880579 -0.00808858616 0.0106535097
v 0.0293272612 -0.00754832966 0.0100000044
v 0.0293272612 -0.00814938289 0.0100000044
f 1 2 3
f 3 2 4
f 5 6 7
f 7 6 8
f 9 10 11
f 11 10 12
f 11 12 13
f 12 14 13
f 13 14 15
f 13 15 16
f 17 18 19
f 19 18 20
f 16 15 20
f 20 15 21
f 20 21 19
f 22 23 24
f 24 23 25
f 24 25 17
f 17 25 26
f 17 26 18
f 24 27 22
f 22 27 28
f 22 28 29
f 29 28 30
f 29 30 31
f 31 30 32
f 31 32 33
f 34 35 36
f 36 35 37
f 33 32 38
f 38 32 39
f 38 39 37
f 37 39 40
f 37 40 36
f 41 42 43
f 43 42 44
f 45 46 47
f 47 46 48
f 46 45 49
f 49 45 50
f 51 52 53
f 53 52 54
f 55 56 57
f 57 56 58
f 57 58 59
f 60 61 62
f 63 64 65
f 65 64 66
f 65 66 67
f 67 66 68
f 67 68 69
f 60 62 70
f 70 62 71
f 70 71 72
f 72 71 73
f 72 73 63
f 63 73 74
f 63 74 64
f 75 76 77
f 77 76 78
f 79 80 81
f 81 80 82
f 81 82 83
f 83 82 84
f 83 84 85
f 85 84 86
f 85 86 87
f 87 86 88
f 87 88 89
f 89 88 90
f 89 90 91
f 91 90 92
f 91 92 93
f 93 92 94
f 93 94 95
f 95 94 96
f 95 96 97
f 97 96 98
f 97 98 99
f 99 98 100
f 99 100 101
f 101 100 102
f 101 102 103
f 103 102 104
f 103 104 105
f 105 104 106
f 105 106 107
f 107 106 108
f 107 108 109
f 109 108 110
f 109 110 111
f 111 110 112
f 111 112 113
f 113 112 114
f 113 114 115
f 115 114 116
f 115 116 117
f 117 116 118
f 117 118 119
f 119 118 120
f 119 120 121
f 121 120 122
f 121 122 123
f 123 122 124
f 123 124 125
f 125 124 126
f 125 126 79
f 79 126 80
f 127 128 129
f 129 128 130
f 129 130 131
f 131 130 132
f 131 132 133
f 133 132 134
f 133 134 135
f 135 134 136
f 135 136 137
f 137 136 138
f 137 138 139
f 139 138 140
f 139 140 141
f 141 140 142
f 141 142 143
f 143 142 144
f 143 144 145
f 145 144 146
f 145 146 147
f 147 146 148
f 147 148 149
f 149 148 150
f 149 150 151
f 151 150 152
f 151 152 153
f 153 152 154
f 153 154 155
f 155 154 156
f 155 156 157
f 157 156 158
f 157 158 159
f 159 158 160
f 159 160 161
f 161 160 162
f 161 162 163
f 163 162 164
f 163 164 165
f 165 164 166
f 165 166 167
f 167 166 168
f 167 168 169
f 169 168 170
f 169 170 171
f 171 170 172
f 171 172 173
f 173 172 174
f 173 174 127
f 127 174 128
