v 0.0104688284 -0.0149464582 0.0102715631
v 0.00989006733 -0.0155336831 0.0102657219
v 0.009511101 -0.0151547168 0.00974000889
v 0.00948535179 -0.0132657264 0.00856412846
v 0.00945256923 -0.0132549976 0.00853980976
v 0.0108488676 -0.0118565534 0.00854183632
v 0.00823961471 -0.0212410663 0.0139120956
v 0.0082561848 -0.0215597127 0.0143029829
v 0.00777934765 -0.0210828756 0.013237371
v 0.00725816463 -0.0205616925 0.0122141977
v 0.0109219429 -0.0168979142 0.0122141977
v 0.0112131712 -0.0171929572 0.0127737661
v 0.0112151978 -0.0171910499 0.0127737661
v 0.0112109063 -0.0171960567 0.0127746006
v 0.007085788 -0.0203893159 0.0119024654
v 0.0089580891 -0.0177152131 0.0112211843
v 0.0103441355 -0.0163199876 0.0112139125
v 0.00833331322 -0.0170904372 0.0102657219
v 0.00844334339 -0.0144098972 0.00862182575
v 0.00844334339 -0.0144100164 0.00862194496
v 0.00698231434 -0.0157253717 0.00853969055
v 0.00699888443 -0.0157459949 0.00856055218
v 0.0084948418 -0.0144706939 0.00868596035
v 0.00710414623 -0.0158612703 0.00868596035
v 0.00773440574 -0.0164915298 0.00945152241
v 0.00912498211 -0.0151008342 0.00945152241
v 0.00972388958 -0.0156998609 0.0102657219
v 0.0094046471 -0.0132392619 0.00850428539
v 0.0105427382 -0.0116366122 0.00825013119
v 0.0108181116 -0.0118344997 0.00851251084
v 0.00877820228 -0.0115323041 0.00732709366
v 0.00916455959 -0.0114642356 0.00747527081
v 0.00903927063 -0.0132274602 0.00829709965
v 0.00906656956 -0.0132234071 0.00830973583
v 0.00915991043 -0.0132095788 0.0083528896
v 0.00941573356 -0.0114201282 0.0075714727
v 0.00918601726 -0.0132057641 0.00836492974
v 0.0096292374 -0.0114330028 0.00768221813
v 0.00928758358 -0.0132116054 0.00842393833
v 0.00999318336 -0.0114549373 0.00787092644
v 0.00932692264 -0.0132138704 0.00844682652
v 0.0100751994 -0.011482117 0.00792755085
v 0.0104814646 -0.0116163467 0.0082079311
v 0.00869618629 -0.0115671132 0.00730599362
v 0.00893448566 -0.0132639383 0.00826038319
v 0.0082406876 -0.0117602323 0.00718857247
v 0.00889288162 -0.0132784818 0.00824583965
v 0.00815831398 -0.0117951606 0.00716735321
v 0.00880800461 -0.0133262847 0.00822605091
v 0.00781475281 -0.0120376323 0.00712312657
v 0.00875352596 -0.0133569215 0.00821341473
v 0.00762902473 -0.0121687625 0.0070991655
v 0.00869034504 -0.0134093736 0.00820769268
v 0.00746272777 -0.0123238538 0.00709439713
v 0.00861262058 -0.0134738658 0.00820065933
v 0.00744842266 -0.0123383973 0.00709439713
v 0.00725685333 -0.0125498746 0.00710309941
v 0.00726591324 -0.0125390266 0.00710226494
v 0.00852655147 -0.0135719751 0.00820697743
v 0.00720559334 -0.012613294 0.00710834461
v 0.00728296017 -0.012518761 0.00710095364
v 0.00733660435 -0.012457249 0.00709749657
v 0.00739179825 -0.0123971675 0.0070953508
v 0.0069728968 -0.012952206 0.00715483624
v 0.00851522659 -0.0135891412 0.00821007687
v 0.0069355843 -0.0130166982 0.00716675717
v 0.00845478748 -0.0136804555 0.00822652775
v 0.00691615318 -0.0130518649 0.0071736713
v 0.00697599624 -0.0129469608 0.00715388256
v 0.00701819633 -0.012878177 0.00714220005
v 0.00704001163 -0.0128440831 0.00713683563
v 0.00708507274 -0.0127767299 0.00712717968
v 0.0071320412 -0.0127104495 0.00711871582
v 0.00715612148 -0.0126777862 0.00711490112
v 0.00687860225 -0.0131229137 0.00718845326
v 0.00843881344 -0.0137138341 0.00823582607
v 0.00684307789 -0.0131945584 0.00720454651
v 0.00675200199 -0.0134040092 0.00725735623
v 0.00677787041 -0.0133398746 0.00724019009
v 0.00839971279 -0.0137954925 0.00825871426
v 0.00679336761 -0.0133032773 0.00723077255
v 0.00682603096 -0.0132306789 0.00721301037
v 0.00670777534 -0.0135244106 0.0072916885
v 0.00672076916 -0.0134873365 0.00728072125
v 0.0067483065 -0.0134133075 0.00725985962
v 0.00668345665 -0.0135989164 0.00731433827
v 0.00838516926 -0.0138425801 0.00827611881
v 0.00666116451 -0.0136737798 0.00733818012
v 0.00836287712 -0.0139143441 0.0083028217
v 0.00663171982 -0.0137863134 0.00737620789
v 0.0066507933 -0.0137112115 0.00735057789
v 0.00660692428 -0.0138990853 0.00741673905
v 0.00661169266 -0.0138756011 0.00740815598
v 0.00661467289 -0.0138615344 0.00740291077
v 0.00659309601 -0.0139743064 0.00744523007
v 0.00835190986 -0.0139749025 0.00832964379
v 0.0065814135 -0.0140495275 0.00747479397
v 0.00657640671 -0.0140869592 0.00749005276
v 0.00835047935 -0.0139826511 0.00833310085
v 0.00656782364 -0.0141619418 0.00752128559
v 0.00655590271 -0.0143480275 0.00760401684
v 0.00655590271 -0.0143479083 0.00760401684
v 0.00834892963 -0.0140653823 0.00837744671
v 0.00655912136 -0.0142737601 0.0075701614
v 0.00656150554 -0.0142365668 0.00755359131
v 0.00835775112 -0.0142136787 0.00846375424
v 0.0065853474 -0.0147986386 0.00783897835
v 0.00835441326 -0.0141926978 0.00845028359
v 0.00655733322 -0.0145313714 0.0076933046
v 0.00834737991 -0.0141482328 0.00842179257
v 0.00655518745 -0.0144584153 0.00765682656
v 0.00655494903 -0.0144216989 0.00763894516
v 0.00839136814 -0.0143058274 0.00853408772
v 0.00668786739 -0.0152006124 0.00809635121
v 0.00658737396 -0.0148173545 0.00784911114
v 0.0069664595 -0.0157058213 0.00851990181
v 0.00839410995 -0.0143134568 0.00853980976
v 0.00840936874 -0.0143552993 0.00857175785
v 0.00693510746 -0.0156646941 0.00847948986
v 0.0069048283 -0.0156223748 0.00843931633
v 0.00687943672 -0.0155844663 0.00840438801
v 0.00687574123 -0.0155789827 0.00839938122
v 0.00684784626 -0.0155346368 0.00835980374
v 0.00669382786 -0.0152128909 0.00810612637
v 0.0108386156 -0.0145850156 0.0102657219
v 0.0102397082 -0.0139861081 0.00945152241
v 0.0116304037 -0.0125955318 0.00945152241
v 0.0110001442 -0.0119652723 0.00868596035
v 0.00960956787 -0.0133559678 0.00868596035
v 0.00951360439 -0.0132862304 0.00859190422
v 0.0114928362 -0.0163171266 0.0122194429
v 0.0108566162 -0.016500232 0.0117982765
v 0.010386574 -0.0160301898 0.0110153099
v 0.0134273646 -0.0143924926 0.0122141977
v 0.0110694048 -0.0148158048 0.0106048723
v 0.0128495571 -0.0138146852 0.0112139125
v 0.0122293112 -0.0131944392 0.0102657219
v 0.0123299239 -0.0160763238 0.0127737661
v 0.0138443587 -0.0148094867 0.0130223175
v 0.0142336962 -0.0151988242 0.013857617
v 0.00689886783 -0.0246708368 0.0167770525
v 0.00690530514 -0.0246773933 0.0167732378
v 0.00685559486 -0.0247356866 0.0168131729
v 0.00686215137 -0.0247422431 0.016809239
v 0.00684403156 -0.0247530912 0.0168228288
v 0.00685046886 -0.0247596477 0.0168188949
v 0.00681899761 -0.0247988675 0.0168575187
v 0.00682555412 -0.0248053048 0.016853704
v 0.00119839882 -0.0193353866 0.00744153458
v 0.00120221351 -0.0193393205 0.00743318993
v 0.00113283371 -0.0194109653 0.00744618374
v 0.00113557552 -0.0194164489 0.00743807751
v 0.00113104557 -0.0194139455 0.00744677979
v 0.00113474106 -0.0194177602 0.00743831593
v 0.00108300422 -0.0195008491 0.00745285946
v 0.00107907032 -0.0194969152 0.00746120411
v 0.00108050083 -0.0198676561 0.00763739544
v 0.00108455395 -0.0198717092 0.00762905079
v 0.00114964222 -0.0199679111 0.00770760971
v 0.00123356556 -0.0200728152 0.00780011612
v 0.00122951244 -0.0200687621 0.00780834156
v 0.00118671631 -0.0200225089 0.00775219399
v 0.00118266319 -0.0200184558 0.00776030022
v 0.0011455891 -0.019963858 0.00771583515
v 0.00140451168 -0.019600508 0.00766481358
v 0.00140856479 -0.0196045612 0.00765646893
v 0.00141011452 -0.0196032499 0.00765670735
v 0.0014060614 -0.0195993159 0.00766493279
v 0.00142251228 -0.0195933555 0.00765789944
v 0.00141845917 -0.0195893024 0.00766612488
v 0.0014201281 -0.0195879911 0.00766624409
v 0.00142453884 -0.0195918058 0.00765801865
v 0.00142894958 -0.0195833419 0.00766827065
v 0.0014330027 -0.019587395 0.00766004521
v 0.00143395637 -0.0195808385 0.00766946274
v 0.00143824791 -0.0195846532 0.0076612373
v 0.00143789028 -0.019579408 0.00767065483
v 0.00144265865 -0.0195831035 0.00766266781
v 0.00143944 -0.0195790504 0.00767125088
v 0.00144337391 -0.0195829843 0.00766290623
v 0.00145302986 -0.0195810769 0.00766672093
v 0.00144909595 -0.0195770238 0.00767494637
v 0.00145195698 -0.0195764278 0.00767601925
v 0.00145672535 -0.0195803617 0.00766815144
v 0.0014586327 -0.0195763086 0.0076792379
v 0.00146328186 -0.0195802425 0.00767125088
v 0.00145982479 -0.0195764278 0.00767983395
v 0.0014637587 -0.0195803617 0.00767160851
v 0.00147556042 -0.0195825074 0.00767828423
v 0.0014715073 -0.0195784543 0.00768650967
v 0.00147675251 -0.0195792888 0.0076894899
v 0.00148164009 -0.0195835803 0.0076817413
v 0.00148295139 -0.0195814346 0.00769354302
v 0.00148783897 -0.0195858453 0.00768591362
v 0.00148497795 -0.0195826266 0.00769509274
v 0.00148903106 -0.0195865606 0.0076868673
v 0.00150798534 -0.0195982431 0.00770176846
v 0.00153754925 -0.0196212505 0.00772751766
v 0.00153361534 -0.0196173165 0.0077357431
v 0.00152109836 -0.0196063493 0.00771213967
v 0.00151525711 -0.0196009849 0.00771881539
v 0.00150405144 -0.0195941899 0.0077099939
v -0.00153709675 -0.0155397628 0.00515581566
v -0.00157738949 -0.0155333255 0.00514437157
v -0.00153948094 -0.0155374978 0.00516523319
v -0.00157977368 -0.0155309413 0.0051537891
v -0.00163151051 -0.0155225967 0.00513912636
v -0.00162912632 -0.0155248616 0.00512970883
v -0.0016532066 -0.0155241464 0.00513423878
v -0.00165094162 -0.0155264114 0.00512482125
v -0.00172115589 -0.0155312989 0.00510896641
v -0.00172342087 -0.015529034 0.00511850315
v 0.000277626265 -0.018378136 0.00663889843
v 0.000281083334 -0.0183815931 0.00663019615
v 0.00031362747 -0.0179872487 0.00650180775
v 0.00031696533 -0.0179905866 0.00649298626
v 0.0104089854 -0.0115734313 0.00815810162
v 0.0104774115 -0.0116100286 0.00821472603
v 0.0107414601 -0.0117510532 0.00843287903
v 0.0108256218 -0.0118174527 0.00851716
v 0.0109394667 -0.0119070981 0.00863088566
v 0.010984647 -0.0119498943 0.00868119198
v 0.0109957335 -0.0119608615 0.00869370896
v 0.0090633509 -0.0114670966 0.0074405809
v 0.00916122173 -0.0114471887 0.00747670132
v 0.00923882698 -0.0114314531 0.00750519234
v 0.00962971424 -0.0114141677 0.00768364865
v 0.00964246963 -0.0114135717 0.0076894899
v 0.0100511191 -0.0114631627 0.00791646439
v 0.0100754378 -0.0114706729 0.00793291527
v 0.00880514358 -0.0115195487 0.00734545189
v 0.00745903229 -0.0123201583 0.00710286099
v 0.00761972641 -0.0121699546 0.00710739094
v 0.00780771946 -0.0120277379 0.0071274181
v 0.00798474525 -0.0118938659 0.00714625317
v 0.00823782657 -0.0117554639 0.00719679791
v 0.00839005684 -0.0116722558 0.00722731548
v 0.00869141792 -0.0115613912 0.00731302696
v 0.00592898105 -0.0175894473 0.00902427632
v 0.00593351101 -0.0175940965 0.00901664692
v 0.00622223591 -0.0175325845 0.00917662579
v 0.00647317146 -0.0174894307 0.00929702717
v 0.00770245765 -0.0172452901 0.00994516808
v 0.00770698761 -0.0172502969 0.0099377771
v 0.00807665561 -0.0171660159 0.0101508041
v 0.0080816624 -0.0171710227 0.0101436515
f 1 2 3
f 4 5 6
f 7 8 9
f 10 11 12
f 12 11 13
f 10 12 9
f 9 12 14
f 9 14 7
f 10 15 11
f 11 15 16
f 11 16 17
f 17 16 18
f 19 20 21
f 21 20 22
f 22 20 23
f 22 23 24
f 24 23 25
f 25 23 26
f 25 26 18
f 18 26 27
f 18 27 17
f 28 29 5
f 5 29 30
f 5 30 6
f 31 32 33
f 33 32 34
f 34 32 35
f 35 32 36
f 35 36 37
f 37 36 38
f 37 38 39
f 39 38 40
f 39 40 41
f 41 40 42
f 41 42 28
f 28 42 43
f 28 43 29
f 31 33 44
f 44 33 45
f 44 45 46
f 46 45 47
f 46 47 48
f 48 47 49
f 48 49 50
f 50 49 51
f 50 51 52
f 52 51 53
f 52 53 54
f 54 53 55
f 54 55 56
f 57 58 59
f 57 59 60
f 58 61 59
f 59 61 62
f 59 62 55
f 55 62 63
f 55 63 56
f 64 65 66
f 66 65 67
f 66 67 68
f 64 69 65
f 65 69 70
f 65 70 71
f 71 72 65
f 65 72 73
f 65 73 59
f 59 73 74
f 59 74 60
f 68 67 75
f 75 67 76
f 75 76 77
f 78 79 80
f 80 79 81
f 80 81 76
f 76 81 82
f 76 82 77
f 83 84 80
f 80 84 85
f 80 85 78
f 83 80 86
f 86 80 87
f 86 87 88
f 89 90 87
f 87 90 91
f 87 91 88
f 92 93 89
f 89 93 94
f 89 94 90
f 92 89 95
f 95 89 96
f 95 96 97
f 97 96 98
f 98 96 99
f 98 99 100
f 101 102 103
f 103 102 104
f 103 104 99
f 99 104 105
f 99 105 100
f 106 107 108
f 108 107 109
f 108 109 110
f 110 109 111
f 110 111 103
f 103 111 112
f 103 112 101
f 113 114 106
f 106 114 115
f 106 115 107
f 116 117 21
f 21 117 118
f 21 118 19
f 116 119 117
f 117 119 120
f 117 120 121
f 121 122 117
f 117 122 123
f 117 123 113
f 113 123 124
f 113 124 114
f 125 126 127
f 127 126 128
f 128 126 129
f 128 129 6
f 6 129 130
f 6 130 4
f 131 132 133
f 134 135 136
f 136 135 125
f 136 125 137
f 137 125 127
f 2 1 133
f 133 1 135
f 133 135 131
f 131 135 134
f 131 134 138
f 138 134 139
f 138 139 140
f 141 142 143
f 143 142 144
f 143 144 145
f 145 144 146
f 145 146 147
f 147 146 148
f 149 150 151
f 151 150 152
f 151 152 153
f 152 154 153
f 153 154 155
f 153 155 156
f 157 158 159
f 160 161 162
f 162 161 163
f 162 163 159
f 159 163 164
f 159 164 157
f 165 166 167
f 165 167 168
f 168 167 169
f 168 169 170
f 170 169 171
f 171 169 172
f 171 172 173
f 173 172 174
f 173 174 175
f 175 174 176
f 175 176 177
f 177 176 178
f 177 178 179
f 178 180 179
f 179 180 181
f 179 181 182
f 182 181 183
f 183 181 184
f 183 184 185
f 185 184 186
f 185 186 187
f 186 188 187
f 187 188 189
f 187 189 190
f 190 189 191
f 191 189 192
f 191 192 193
f 193 192 194
f 193 194 195
f 195 194 196
f 195 196 197
f 198 199 200
f 200 199 201
f 200 201 197
f 197 201 202
f 197 202 195
f 203 204 205
f 205 204 206
f 206 204 207
f 207 204 208
f 207 208 209
f 208 210 209
f 209 210 211
f 209 211 212
f 213 214 215
f 215 214 216
f 42 217 43
f 43 217 218
f 43 218 29
f 29 218 219
f 29 219 30
f 30 219 220
f 30 220 6
f 6 220 221
f 6 221 128
f 128 221 222
f 128 222 223
f 224 225 32
f 32 225 226
f 32 226 36
f 36 226 227
f 36 227 38
f 38 227 228
f 38 228 40
f 40 228 229
f 40 229 42
f 42 229 230
f 42 230 217
f 224 32 231
f 231 32 31
f 231 31 44
f 52 54 232
f 232 233 52
f 52 233 234
f 52 234 50
f 50 234 235
f 50 235 48
f 48 235 236
f 48 236 46
f 46 236 237
f 46 237 44
f 44 237 238
f 44 238 231
f 239 240 241
f 241 240 242
f 241 242 243
f 243 242 244
f 243 244 245
f 245 244 246
