v 0.0228254707 0.00505898846 0.0122904916
v 0.0228164108 0.0050710286 0.0122933527
v 0.0233322294 0.00528417481 0.0130015751
v 0.0228162916 0.00507126702 0.0122933527
v 0.0227901847 0.00511370553 0.0123084922
v 0.0227844627 0.00512300385 0.0123119493
v 0.0227769525 0.00513885869 0.0123195787
v 0.0227714689 0.00515471352 0.0123294731
v 0.0227590711 0.00519142998 0.0123521228
v 0.0227583558 0.00519560231 0.0123553415
v 0.0227552564 0.0052121724 0.0123679777
v 0.022755018 0.00523374928 0.012388124
v 0.0227547796 0.00526116742 0.0124136348
v 0.0227565677 0.00527070416 0.0124243637
v 0.0227577598 0.00527737988 0.0124318739
v 0.0227684886 0.00530110253 0.0124645372
v 0.0227767141 0.00531969918 0.012490048
v 0.0227868469 0.00533185853 0.0125113865
v 0.0227900655 0.00533567322 0.0125181814
v 0.0228942544 0.00543986214 0.0127200027
v 0.0229031951 0.00544784916 0.0127364536
v 0.0229259641 0.00545977009 0.0127707859
v 0.0229467065 0.00547085656 0.0128022571
v 0.0229645879 0.00547324074 0.0128224035
v 0.0230034501 0.00547860516 0.0128662725
v 0.0230082185 0.00547824753 0.0128708025
v 0.0230300338 0.00547681702 0.0128911873
v 0.0230531604 0.00547133339 0.0129089494
v 0.0233009965 0.00532029522 0.0130065818
v 0.0231076391 0.00545702828 0.0129492422
v 0.0231262357 0.00544975651 0.0129608055
v 0.0231871517 0.00541470898 0.0129869123
v 0.0231618793 0.00543068303 0.0129774948
v 0.0231902511 0.00541554345 0.0129908462
v 0.023212424 0.00539861573 0.0129963298
v 0.023255697 0.00536595238 0.0130069395
v 0.023263088 0.00535939587 0.0130077739
v 0.0232779891 0.00534544838 0.0130088468
v 0.0230973871 0.00546096219 0.0129429241
v 0.0233230502 0.00529609574 0.0130044361
v 0.0233323486 0.00528393639 0.0130015751
v 0.0233589322 0.00524197472 0.0129859586
v 0.0233647735 0.00523279561 0.0129825016
v 0.0233725221 0.00521705998 0.0129745145
v 0.0233781249 0.00520144356 0.0129643818
v 0.023391238 0.00516532315 0.0129411359
v 0.0233920724 0.00516127003 0.0129377981
v 0.0233954103 0.00514505757 0.0129249235
v 0.0233960063 0.00512383832 0.0129043003
v 0.0233968408 0.00509701623 0.0128781934
v 0.0233952911 0.0050877179 0.0128673454
v 0.0233942182 0.00508116139 0.0128595968
v 0.0233840854 0.00505791558 0.0128264566
v 0.0233760984 0.00503979577 0.012800469
v 0.023366204 0.00502787484 0.0127790113
v 0.0233631046 0.00502406014 0.0127720972
v 0.0232593925 0.00492034806 0.012569799
v 0.0232503326 0.00491224183 0.0125534673
v 0.0232273252 0.00489984406 0.0125194927
v 0.0232061059 0.00488851918 0.0124883791
v 0.0231879861 0.00488577736 0.0124685903
v 0.0231484086 0.0048798169 0.0124253173
v 0.0231435211 0.00488005532 0.0124209066
v 0.0228475244 0.00503478898 0.0122884651
v 0.0231213481 0.0048811282 0.0124008794
v 0.0230977447 0.00488613499 0.0123834749
v 0.0230528028 0.00489579094 0.0123503347
v 0.0230424316 0.00489960564 0.0123441358
v 0.0230234773 0.00490651978 0.0123330494
v 0.0229672105 0.00493763341 0.0123094459
v 0.0229929597 0.00492237462 0.0123192211
v 0.0229587467 0.00494001759 0.0123038431
v 0.0229415805 0.00495277298 0.0122996708
v 0.0228928239 0.00498913182 0.0122881075
v 0.0228854329 0.00499568833 0.012287273
v 0.0228704126 0.00500951661 0.0122863193
v 0.0237851055 0.00565789593 0.013888373
v 0.0237852247 0.0056575383 0.0138878961
v 0.0237913043 0.00566349877 0.0138827701
v 0.0238007219 0.00562499417 0.0138685842
v 0.0238039405 0.00562117947 0.0138679882
v 0.0238097818 0.00562713994 0.0138625045
v 0.0238139541 0.00560949696 0.0138662
v 0.0238200338 0.00561557663 0.0138609548
v 0.0237935693 0.0056549157 0.0138756176
v 0.0238079936 0.0056292857 0.0138628622
v 0.023804775 0.00563357724 0.0138640543
v 0.023796788 0.00563083542 0.0138708492
v 0.0238027484 0.00563679589 0.0138654848
v 0.0237928541 0.0056369151 0.0138732334
v 0.0237972648 0.00564585579 0.0138695379
v 0.0237911851 0.00564001454 0.0138749023
v 0.0237971456 0.00564609421 0.0138696571
v 0.0237904699 0.00564144505 0.0138757368
v 0.0237939269 0.00565336598 0.0138743063
v 0.0237877281 0.00564895524 0.013880982
v 0.0237861783 0.00565288914 0.013883843
v 0.0237910659 0.00566445244 0.0138834854
v 0.0237907083 0.00566719426 0.0138862272
v 0.0237849862 0.00566612137 0.0138975521
v 0.0237909467 0.00567220105 0.0138921877
v 0.023784867 0.005671605 0.0139036317
v 0.0237911851 0.00567816151 0.0138993402
v 0.0237849862 0.00567232026 0.0139044662
v 0.0237857015 0.00567565812 0.0139091154
v 0.0237913043 0.00568006886 0.0139016052
v 0.023792258 0.00568400277 0.0139070888
v 0.023789993 0.0056844796 0.0139240165
v 0.0237957151 0.00569067849 0.0139187713
v 0.0237963111 0.00569747342 0.0139460703
v 0.0238027484 0.00570391072 0.0139417787
v 0.0238021524 0.00570414914 0.0139603754
v 0.0238081128 0.00571022881 0.0139551302
v 0.0238096626 0.00571189774 0.0139588256
v 0.0238035829 0.00570593728 0.0139640709
v 0.0236647041 0.00544892205 0.0135232349
v 0.0236705453 0.00545488251 0.0135177513
v 0.0237306268 0.00540099991 0.013524427
v 0.0237932117 0.00535140885 0.0135384937
v 0.0237872512 0.00534556759 0.0135439773
v 0.023746124 0.00538705243 0.0135260959
v 0.0237388522 0.00538216485 0.0135313411
v 0.0237246663 0.00539503945 0.0135297914
v 0.0232297094 0.00582848443 0.0134633918
v 0.0232356698 0.00583432568 0.0134579082
v 0.0232860954 0.00578997983 0.0134643455
v 0.0233336599 0.00575266732 0.0134753128
v 0.0233276994 0.00574670685 0.0134807964
v 0.0233065994 0.00577186001 0.0134669681
v 0.0233006389 0.00576601876 0.0134724517
v 0.0232802541 0.00578401936 0.0134698291
v 0.0214859159 0.00393615616 0.0102787157
v 0.0214909227 0.00394116295 0.0102716823
v 0.0220796974 0.00324056996 0.0102058788
v 0.0220847041 0.00324557675 0.0101988454
f 1 2 3
f 3 2 4
f 4 5 3
f 3 5 6
f 3 6 7
f 7 8 3
f 3 8 9
f 3 9 10
f 10 11 3
f 3 11 12
f 3 12 13
f 13 14 3
f 3 14 15
f 3 15 16
f 16 17 3
f 3 17 18
f 3 18 19
f 19 20 3
f 3 20 21
f 3 21 22
f 22 23 3
f 3 23 24
f 3 24 25
f 25 26 3
f 3 26 27
f 3 27 28
f 29 30 31
f 32 33 34
f 34 35 32
f 32 35 36
f 32 36 37
f 31 33 29
f 29 33 32
f 29 32 38
f 38 32 37
f 28 39 3
f 3 39 30
f 3 30 40
f 40 30 29
f 3 41 1
f 1 41 42
f 1 42 43
f 43 44 1
f 1 44 45
f 1 45 46
f 46 47 1
f 1 47 48
f 1 48 49
f 49 50 1
f 1 50 51
f 1 51 52
f 52 53 1
f 1 53 54
f 1 54 55
f 55 56 1
f 1 56 57
f 1 57 58
f 58 59 1
f 1 59 60
f 1 60 61
f 61 62 1
f 1 62 63
f 1 63 64
f 64 63 65
f 64 65 66
f 66 67 64
f 64 67 68
f 64 68 69
f 70 71 72
f 72 73 70
f 70 73 74
f 70 74 75
f 69 71 64
f 64 71 70
f 64 70 76
f 76 70 75
f 77 78 79
f 80 81 82
f 82 81 83
f 82 83 84
f 79 78 85
f 82 86 80
f 80 86 87
f 80 87 88
f 88 87 89
f 88 89 90
f 90 89 91
f 90 91 92
f 92 91 93
f 92 93 94
f 94 93 95
f 94 95 96
f 96 95 85
f 96 85 97
f 97 85 78
f 79 98 77
f 77 98 99
f 77 99 100
f 100 99 101
f 100 101 102
f 102 101 103
f 102 103 104
f 104 103 105
f 103 106 105
f 105 106 107
f 105 107 108
f 108 107 109
f 108 109 110
f 110 109 111
f 110 111 112
f 111 113 112
f 112 113 114
f 112 114 115
f 116 117 118
f 119 120 121
f 121 120 122
f 121 122 118
f 118 122 123
f 118 123 116
f 124 125 126
f 127 128 129
f 129 128 130
f 129 130 126
f 126 130 131
f 126 131 124
f 132 133 134
f 134 133 135
