v 0.00609922807 -0.0278418586 0.0394243199
v 0.000442389656 -0.0221850202 0.0394243199
v 0.00647437971 -0.027466707 0.0393544632
v 0.00081754129 -0.0218098686 0.0393544632
v 0.00682402055 -0.0271171257 0.0391497809
v 0.00116718214 -0.0214602277 0.0391497809
v 0.00712418954 -0.0268168971 0.0388239819
v 0.00146735113 -0.0211599991 0.0388239819
v 0.0073546211 -0.0265865252 0.0383993584
v 0.00169778268 -0.0209296868 0.0383993584
v 0.00749946039 -0.0264416859 0.0379049975
v 0.00184262197 -0.0207848475 0.0379049975
v 0.00754881303 -0.0263923333 0.0373743969
v 0.00189197462 -0.0207354352 0.0373743969
v 0.00749946039 -0.0264416859 0.0368437964
v 0.00184262197 -0.0207848475 0.0368437964
v 0.0073546211 -0.0265865252 0.0363493163
v 0.00169778268 -0.0209296868 0.0363493163
v 0.00712418954 -0.0268168971 0.035924812
v 0.00146735113 -0.0211599991 0.035924812
v 0.00682402055 -0.0271171257 0.035599013
v 0.00116718214 -0.0214602277 0.035599013
v 0.00647437971 -0.027466707 0.0353942114
v 0.00081754129 -0.0218098686 0.0353942114
v 0.00609922807 -0.0278418586 0.0353243548
v 0.000442389656 -0.0221850202 0.0353243548
v 0.00572407644 -0.0282170698 0.0353942114
v 6.7238022e-05 -0.0225602314 0.0353942114
v 0.00537443559 -0.0285666511 0.035599013
v -0.000282402824 -0.0229098127 0.035599013
v 0.0050742666 -0.0288668797 0.035924812
v -0.000582571815 -0.0232100413 0.035924812
v 0.00484383504 -0.0290972516 0.0363493163
v -0.000813003372 -0.0234404132 0.0363493163
v 0.00469911497 -0.0292420313 0.0368437964
v -0.000957842659 -0.0235851929 0.0368437964
v 0.00464964311 -0.0292914436 0.0373743969
v -0.0010071953 -0.0236346052 0.0373743969
v 0.00469911497 -0.0292420313 0.0379049975
v -0.000957842659 -0.0235851929 0.0379049975
v 0.00484383504 -0.0290972516 0.0383993584
v -0.000813003372 -0.0234404132 0.0383993584
v 0.0050742666 -0.0288668797 0.0388239819
v -0.000582571815 -0.0232100413 0.0388239819
v 0.00537443559 -0.0285666511 0.0391497809
v -0.000282402824 -0.0229098127 0.0391497809
v 0.00572407644 -0.0282170698 0.0393544632
v 6.7238022e-05 -0.0225602314 0.0393544632
v 0.023599271 -0.0103418753 0.0394243199
v 0.0179424326 -0.00468503688 0.0394243199
v 0.0239744226 -0.00996672366 0.0393544632
v 0.0183175842 -0.00430982564 0.0393544632
v 0.0243240635 -0.00961708282 0.0391497809
v 0.0186672251 -0.0039602444 0.0391497809
v 0.0246242325 -0.00931685422 0.0388239819
v 0.018967394 -0.00366001581 0.0388239819
v 0.0248545448 -0.00908654187 0.0383993584
v 0.0191977064 -0.00342964385 0.0383993584
v 0.0249993841 -0.00894170259 0.0379049975
v 0.0193425457 -0.00328486417 0.0379049975
v 0.0250488559 -0.00889229034 0.0373743969
v 0.0193918983 -0.00323545192 0.0373743969
v 0.0249993841 -0.00894170259 0.0368437964
v 0.0193425457 -0.00328486417 0.0368437964
v 0.0248545448 -0.00908654187 0.0363493163
v 0.0191977064 -0.00342964385 0.0363493163
v 0.0246242325 -0.00931685422 0.035924812
v 0.018967394 -0.00366001581 0.035924812
v 0.0243240635 -0.00961708282 0.035599013
v 0.0186672251 -0.0039602444 0.035599013
v 0.0239744226 -0.00996672366 0.0353942114
v 0.0183175842 -0.00430982564 0.0353942114
v 0.023599271 -0.0103418753 0.0353243548
v 0.0179424326 -0.00468503688 0.0353243548
v 0.0232241194 -0.0107170865 0.0353942114
v 0.0175671617 -0.00506018852 0.0353942114
v 0.0228744785 -0.0110666678 0.035599013
v 0.0172176401 -0.00540982936 0.035599013
v 0.0225741903 -0.0113668964 0.035924812
v 0.0169173519 -0.00570999835 0.035924812
v 0.022343878 -0.0115972683 0.0363493163
v 0.0166870395 -0.00594037031 0.0363493163
v 0.0221990387 -0.011742048 0.0368437964
v 0.0165422003 -0.00608520959 0.0368437964
v 0.022149686 -0.0117914603 0.0373743969
v 0.0164928476 -0.00613462184 0.0373743969
v 0.0221990387 -0.011742048 0.0379049975
v 0.0165422003 -0.00608520959 0.0379049975
v 0.022343878 -0.0115972683 0.0383993584
v 0.0166870395 -0.00594037031 0.0383993584
v 0.0225741903 -0.0113668964 0.0388239819
v 0.0169173519 -0.00570999835 0.0388239819
v 0.0228744785 -0.0110666678 0.0391497809
v 0.0172176401 -0.00540982936 0.0391497809
v 0.0232241194 -0.0107170865 0.0393544632
v 0.0175671617 -0.00506018852 0.0393544632
v -0.00176775057 -0.0357088969 -0.00799999652
v 0.000760678459 -0.0257734582 -0.00799999652
v 0.00141418378 -0.0258595273 -0.00799999652
v -0.00102471907 -0.0226809904 -0.00799999652
v -0.00111078818 -0.0233344958 -0.00799999652
v -0.0109600981 -0.0265164897 -0.00799999652
v -0.00102471907 -0.0239880607 -0.00799999652
v -0.000772472214 -0.0245970414 -0.00799999652
v -0.000371213745 -0.0251199529 -0.00799999652
v 0.000151757408 -0.0255212114 -0.00799999652
v 0.00360095899 -0.0245970414 -0.00799999652
v 0.00385320585 -0.0239880607 -0.00799999652
v 0.00979948442 -0.0241416619 -0.00799999652
v 0.00393915575 -0.0233344958 -0.00799999652
v 0.00385320585 -0.0226809904 -0.00799999652
v 0.00267672937 -0.0211477802 -0.00799999652
v 0.000607136894 -0.0149492547 -0.00799999652
v 0.00319970052 -0.0215490982 -0.00799999652
v 0.00360095899 -0.0220720098 -0.00799999652
v 0.00206768911 -0.0208955333 -0.00799999652
v 0.00141418378 -0.0208095238 -0.00799999652
v 0.000760678459 -0.0208955333 -0.00799999652
v 0.00206768911 -0.0257734582 -0.00799999652
v 0.00267672937 -0.0255212114 -0.00799999652
v 0.00319970052 -0.0251199529 -0.00799999652
v 0.000151757408 -0.0211477802 -0.00799999652
v -0.000371213745 -0.0215490982 -0.00799999652
v -0.000772472214 -0.0220720098 -0.00799999652
v 0.0203210155 -0.00442778323 0.0100000102
v 0.022698168 -0.00502043222 0.0100000102
v 0.022647504 -0.00496988748 0.00945653501
v 0.0222631733 -0.00458555673 0.00851513925
v 0.0219556133 -0.00427799676 0.00818135324
v 0.0224992077 -0.00482153152 0.00895001474
v 0.0212131778 -0.00353556131 0.00790001931
v 0.0208288471 -0.00315123056 0.00797154489
v 0.0215975086 -0.00391983245 0.00797154489
v 0.0201631824 -0.00248550628 0.00851513925
v 0.0199272672 -0.00224953149 0.00895001474
v 0.0204707424 -0.00279306625 0.00818135324
v 0.0197283069 -0.00205063079 0.0100000102
v 0.0197788517 -0.00210123514 0.0105434853
v 0.0197788517 -0.00210123514 0.00945653501
v 0.0204707424 -0.00279306625 0.0118186671
v 0.0208288471 -0.00315123056 0.0120284754
v 0.0201631824 -0.00248550628 0.0114848811
v 0.0215975086 -0.00391983245 0.0120284754
v 0.0219556133 -0.00427799676 0.0118186671
v 0.0212131778 -0.00353556131 0.012100001
v 0.0224992077 -0.00482153152 0.0110500056
v 0.022647504 -0.00496988748 0.0105434853
v 0.0222631733 -0.00458555673 0.0114848811
v 0.019931678 -0.00269573186 0.0104971129
v 0.0199961702 -0.00263118003 0.0108660656
v 0.0201525728 -0.00247489665 0.0114697415
v 0.0198495428 -0.00217192624 0.0108313757
v 0.0198899547 -0.00242912029 0.0106672246
f 1 2 3
f 3 2 4
f 3 4 5
f 5 4 6
f 5 6 7
f 7 6 8
f 7 8 9
f 9 8 10
f 9 10 11
f 11 10 12
f 11 12 13
f 13 12 14
f 13 14 15
f 15 14 16
f 15 16 17
f 17 16 18
f 17 18 19
f 19 18 20
f 19 20 21
f 21 20 22
f 21 22 23
f 23 22 24
f 23 24 25
f 25 24 26
f 25 26 27
f 27 26 28
f 27 28 29
f 29 28 30
f 29 30 31
f 31 30 32
f 31 32 33
f 33 32 34
f 33 34 35
f 35 34 36
f 35 36 37
f 37 36 38
f 37 38 39
f 39 38 40
f 39 40 41
f 41 40 42
f 41 42 43
f 43 42 44
f 43 44 45
f 45 44 46
f 45 46 47
f 47 46 48
f 47 48 1
f 1 48 2
f 49 50 51
f 51 50 52
f 51 52 53
f 53 52 54
f 53 54 55
f 55 54 56
f 55 56 57
f 57 56 58
f 57 58 59
f 59 58 60
f 59 60 61
f 61 60 62
f 61 62 63
f 63 62 64
f 63 64 65
f 65 64 66
f 65 66 67
f 67 66 68
f 67 68 69
f 69 68 70
f 69 70 71
f 71 70 72
f 71 72 73
f 73 72 74
f 73 74 75
f 75 74 76
f 75 76 77
f 77 76 78
f 77 78 79
f 79 78 80
f 79 80 81
f 81 80 82
f 81 82 83
f 83 82 84
f 83 84 85
f 85 84 86
f 85 86 87
f 87 86 88
f 87 88 89
f 89 88 90
f 89 90 91
f 91 90 92
f 91 92 93
f 93 92 94
f 93 94 95
f 95 94 96
f 95 96 49
f 49 96 50
f 97 98 99
f 100 101 102
f 102 101 103
f 103 104 102
f 102 104 105
f 102 105 97
f 97 105 106
f 97 106 98
f 107 108 109
f 109 108 110
f 109 110 111
f 112 113 114
f 114 113 109
f 114 109 115
f 115 109 111
f 112 116 113
f 113 116 117
f 113 117 118
f 99 119 97
f 97 119 120
f 97 120 109
f 109 120 121
f 109 121 107
f 118 122 113
f 113 122 123
f 113 123 102
f 102 123 124
f 102 124 100
f 125 126 127
f 125 128 129
f 130 128 125
f 127 130 125
f 125 131 132
f 133 131 125
f 129 133 125
f 125 134 135
f 136 134 125
f 132 136 125
f 125 137 138
f 139 137 125
f 135 139 125
f 125 140 141
f 142 140 125
f 125 143 144
f 145 143 125
f 141 145 125
f 125 146 147
f 148 146 125
f 144 148 125
f 147 126 125
f 149 150 125
f 151 142 125
f 150 151 125
f 152 153 138
f 138 153 149
f 138 149 125
