v -0.0239081343 -0.00557016586 0.0139284331
v -0.0242167671 -0.00586067889 0.0146423775
v -0.0239446123 -0.00558852409 0.0139911372
v -0.0239229162 -0.00557368253 0.0139494139
v -0.0239182671 -0.00557046388 0.0139402348
v -0.0239070614 -0.00556748365 0.0139241416
v -0.0239027699 -0.00556635116 0.0139178235
v -0.0238933523 -0.00556652997 0.0139074523
v -0.0238835772 -0.00556676839 0.013896485
v -0.0238691529 -0.00557100032 0.0138850409
v -0.0238683184 -0.00557129834 0.0138843256
v -0.0238571127 -0.00557666276 0.0138777691
v -0.0238522251 -0.00557898734 0.0138749081
v -0.0238454302 -0.00558327888 0.0138720471
v -0.0238445957 -0.00558393453 0.0138718087
v -0.023832198 -0.00559359048 0.0138688284
v -0.0238244494 -0.00559967016 0.0138669211
v -0.023813959 -0.00560956453 0.0138662058
v -0.0238039454 -0.00562118743 0.013867994
v -0.0238006075 -0.00562494252 0.01386859
v -0.0237967928 -0.00563078378 0.013870855
v -0.0237928589 -0.00563692306 0.0138732392
v -0.02379119 -0.0056400225 0.0138749081
v -0.0237904747 -0.00564145301 0.0138757426
v -0.0237877329 -0.00564890359 0.0138809878
v -0.0237861832 -0.0056528971 0.0138838488
v -0.0237852295 -0.00565748666 0.0138879019
v -0.0237851103 -0.00565790389 0.0138883788
v -0.0237849911 -0.00566618894 0.0138975579
v -0.0237848719 -0.00567161296 0.0139036376
v -0.0237849911 -0.00567226861 0.013904472
v -0.0237857064 -0.00567572568 0.0139091212
v -0.0237899979 -0.00568448756 0.0139240223
v -0.023796316 -0.00569742177 0.0139460761
v -0.0238021572 -0.0057041571 0.0139603812
v -0.0238035877 -0.00570588563 0.0139640767
v -0.0240764578 -0.0059787557 0.014614721
v -0.0234367808 -0.00596671556 0.013824721
v -0.0234383305 -0.00597315286 0.0138337809
v -0.0234308203 -0.00596069549 0.0138300854
v -0.0234322508 -0.00596713279 0.0138390261
v -0.0234354695 -0.00598096107 0.0138582188
v -0.0234415491 -0.00598692153 0.0138529736
v -0.0234367808 -0.00598274921 0.0138616759
v -0.0234427412 -0.00598876928 0.0138563115
v -0.0234527548 -0.00600367044 0.0138845641
v -0.0234466751 -0.00599765037 0.0138898093
v -0.0226730068 -0.00403618072 0.0112658936
v -0.0226783713 -0.00404154514 0.0112593371
v -0.0224993189 -0.00431453441 0.0113519627
v -0.0225046833 -0.00431989883 0.0113454062
v -0.0222490986 -0.00413029645 0.0110006529
v -0.0222543438 -0.00413554166 0.0109939772
v -0.0221624335 -0.00416158889 0.0109570223
v -0.0221676787 -0.0041668937 0.0109503466
f 1 2 3
f 3 4 1
f 1 4 5
f 1 5 6
f 6 7 1
f 1 7 8
f 1 8 2
f 2 8 9
f 2 9 10
f 10 11 2
f 2 11 12
f 2 12 13
f 13 14 2
f 2 14 15
f 2 15 16
f 16 17 2
f 2 17 18
f 2 18 19
f 19 20 2
f 2 20 21
f 2 21 22
f 22 23 2
f 2 23 24
f 2 24 25
f 25 26 2
f 2 26 27
f 2 27 28
f 28 29 2
f 2 29 30
f 2 30 31
f 31 32 2
f 2 32 33
f 2 33 34
f 34 35 2
f 2 35 36
f 2 36 37
f 38 39 40
f 40 39 41
f 41 39 42
f 42 39 43
f 42 43 44
f 43 45 44
f 44 45 46
f 44 46 47
f 48 49 50
f 50 49 51
f 52 53 54
f 54 53 55
