v -0.00242160841 0.0200532554 0.00842310385
v -0.00242601916 0.020057547 0.00841523604
v -0.00248955771 0.0199833392 0.00840939479
v -0.00253867193 0.0199048995 0.00839330153
v -0.0025343804 0.0199005483 0.00840116934
v -0.00249229952 0.0199801205 0.00840915637
v -0.00248681589 0.0199773787 0.0084172626
v -0.00248538538 0.0199791073 0.00841738181
v -0.00258146807 0.0197341918 0.0083235641
v -0.00257920309 0.019713211 0.00831104712
v -0.00257717653 0.0197299003 0.00833155112
v -0.00257491156 0.0197089194 0.00831891493
v -0.00256763979 0.0196415662 0.0082787414
v -0.00257193133 0.0196458577 0.00827075438
v -0.00256549402 0.0196350693 0.00827409224
v -0.00256966635 0.0196393608 0.00826610522
v -0.00253879114 0.0195497154 0.0082017322
v -0.00253449961 0.0195454239 0.00820971923
v -0.00379179999 0.0219765781 0.0105320354
v -0.00379692598 0.0219817041 0.0105251213
v -0.00387572333 0.0219111322 0.0105313201
v -0.00387059733 0.0219060062 0.0105381151
v -0.00394510313 0.0218490242 0.0105366846
v -0.00393997713 0.0218438982 0.0105435987
f 1 2 3
f 4 5 6
f 6 5 7
f 6 7 3
f 3 7 8
f 3 8 1
f 9 10 11
f 11 10 12
f 12 10 13
f 13 10 14
f 13 14 15
f 14 16 15
f 15 16 17
f 15 17 18
f 19 20 21
f 19 21 22
f 22 21 23
f 22 23 24
