v -0.00283540179 0.0226204242 0.0254668136
v -0.00176776339 0.0236880626 0.02499999
v -0.00289143016 0.0225643958 0.0236028572
v -0.00182605674 0.0236297692 0.0235664983
v -0.00316942622 0.0222865189 0.021778955
v -0.00208366801 0.0233721579 0.0216877599
v -0.00366128375 0.0217945422 0.0200477977
v -0.00254107405 0.0229147519 0.0198866268
v -0.00435293605 0.0211028899 0.0184589763
v -0.00318754603 0.0222682799 0.0182054182
v -0.00522459437 0.0202312316 0.0170585056
v -0.00476778437 0.0206881608 0.0322674652
v -0.00357712199 0.021878704 0.032577767
v -0.00398326804 0.0214725579 0.0307673355
v -0.00284160067 0.0226142253 0.030971541
v -0.00338936736 0.0220665778 0.0291013857
v -0.00228799273 0.0231678332 0.0292252441
v -0.00300301005 0.0224528159 0.0273174186
v -0.00192941119 0.0235264148 0.0273798843
v -0.00177420069 0.0236816253 0.0254787346
v -0.0159885972 0.00946722878 0.0170585056
v -0.0172052472 0.00825057877 0.0166834732
v -0.0168602555 0.00859557046 0.0184589763
v -0.0180256455 0.00743018044 0.0182054182
v -0.0175519078 0.00790391816 0.0200477977
v -0.0186721175 0.00678382767 0.0198866268
v -0.0180438845 0.00741206063 0.021778955
v -0.0191295235 0.00632642163 0.0216877599
v -0.0183217614 0.00713406457 0.0236028572
v -0.0193871348 0.00606869114 0.0235664983
v -0.0183777898 0.0070780362 0.0254668136
v -0.0194389908 0.0060168351 0.0254787346
v -0.0182101815 0.00724564446 0.0273174186
v -0.0192837804 0.0061720456 0.0273798843
v -0.0178239434 0.00763200177 0.0291013857
v -0.0189251988 0.00653062714 0.0292252441
v -0.0172299235 0.00822590245 0.0307673355
v -0.0183715909 0.00708423508 0.030971541
v -0.0164454072 0.00901041878 0.0322674652
v -0.00400794436 0.0214478816 0.0166834732
v -0.00498295714 0.0204728688 0.0153564354
v -0.00625098635 0.0192048396 0.0158864399
v -0.00608981539 0.0193660106 0.0142554184
v -0.00740278651 0.0180530394 0.0149765154
v -0.0073025315 0.0181532945 0.0134061714
v -0.00864661624 0.0168092097 0.0143549581
v -0.00859261443 0.0168632115 0.0128288408
v -0.00994695117 0.0155088748 0.0140396495
v -0.00993002345 0.0155258025 0.0125366588
v -0.0112662404 0.0141895856 0.0140396495
v -0.0112831681 0.0141726579 0.0125366588
v -0.0125665753 0.0128893699 0.0143549581
v -0.0126205771 0.0128352488 0.0128288408
v -0.013810405 0.0116454209 0.0149765154
v -0.01391066 0.0115451659 0.0134061714
v -0.0149622052 0.0104936208 0.0158864399
v -0.0151233761 0.0103324498 0.0142554184
v -0.0162302344 0.00922559155 0.0153564354
v -0.0176360696 0.0078197564 0.032577767
v -0.0167356818 0.00872014416 0.0340064903
v -0.0154930442 0.0099627818 0.0335583826
v -0.015691766 0.00976405991 0.035224094
v -0.0144000142 0.0110558118 0.0346031328
v -0.0145285218 0.0109273042 0.036202087
v -0.0131977885 0.0122580375 0.0353716751
v -0.0132734864 0.0121823396 0.0369174619
v -0.0119211762 0.0135347689 0.0358417173
v -0.0119558661 0.0134999598 0.0373535295
v -0.0106066554 0.0148492898 0.0360000272
v -0.0106066554 0.0148492898 0.0375000377
v -0.00929213454 0.0161638106 0.0358417173
v -0.00925732543 0.0161985005 0.0373535295
v -0.00801540305 0.0174404229 0.0353716751
v -0.00793970515 0.0175161208 0.0369174619
v -0.00681317736 0.0186426486 0.0346031328
v -0.00668466975 0.0187711562 0.036202087
v -0.00572014739 0.0197356786 0.0335583826
v -0.0055214255 0.0199344004 0.035224094
v -0.00447750975 0.0209784354 0.0340064903
v 0.00671755384 0.0222738828 0.028000011
v 0.00318192552 0.0258093919 0.028000011
v 0.00726651262 0.0228229607 0.0278977295
v 0.00373100351 0.0263584699 0.0278977295
v 0.00777815889 0.0233344878 0.0275980373
v 0.00424264978 0.0268701161 0.0275980373
v 0.00821756433 0.0237738932 0.0271213194
v 0.00468193601 0.0273094024 0.0271213194
v 0.0085546882 0.0241110171 0.0265000005
v 0.00501905988 0.0276465262 0.0265000005
v 0.00876652311 0.024322852 0.0257764001
v 0.005231014 0.0278584803 0.0257764001
v 0.00883888315 0.0243952121 0.02499999
v 0.00530325483 0.0279307212 0.02499999
v 0.00876652311 0.024322852 0.0242235799
v 0.005231014 0.0278584803 0.0242235799
v 0.0085546882 0.0241110171 0.0234999796
v 0.00501905988 0.0276465262 0.0234999796
v 0.00821756433 0.0237738932 0.0228786607
v 0.00468193601 0.0273094024 0.0228786607
v 0.00777815889 0.0233344878 0.0224019428
v 0.00424264978 0.0268701161 0.0224019428
v 0.00726651262 0.0228229607 0.0221022506
v 0.00373100351 0.0263584699 0.0221022506
v 0.00671755384 0.0222738828 0.0219999691
v 0.00318192552 0.0258093919 0.0219999691
v 0.00616847585 0.0217248048 0.0221022506
v 0.00263296674 0.0252603139 0.0221022506
v 0.00565682958 0.0212131585 0.0224019428
v 0.00212132047 0.0247487868 0.0224019428
v 0.00521754335 0.0207738723 0.0228786607
v 0.00168203424 0.0243093814 0.0228786607
v 0.00488041948 0.0204367484 0.0234999796
v 0.00134491037 0.0239722575 0.0234999796
v 0.00466846536 0.0202247943 0.0242235799
v 0.00113295625 0.0237603034 0.0242235799
v 0.00459622453 0.0201525534 0.02499999
v 0.00106071542 0.0236880626 0.02499999
v 0.00466846536 0.0202247943 0.0257764001
v 0.00113295625 0.0237603034 0.0257764001
v 0.00488041948 0.0204367484 0.0265000005
v 0.00134491037 0.0239722575 0.0265000005
v 0.00521754335 0.0207738723 0.0271213194
v 0.00168203424 0.0243093814 0.0271213194
v 0.00565682958 0.0212131585 0.0275980373
v 0.00212132047 0.0247487868 0.0275980373
v 0.00616847585 0.0217248048 0.0278977295
v 0.00263296674 0.0252603139 0.0278977295
v 0.00586902211 0.0280721034 0.02499999
v 0.00580560277 0.0280088033 0.0269376178
v 0.0124524743 0.0213619317 0.0269376178
v 0.00552522252 0.0277283038 0.0294926305
v 0.0121719749 0.0210815514 0.0294926305
v 0.00502490114 0.0272279824 0.0319794555
v 0.0116716535 0.0205812301 0.0319794555
v 0.004312268 0.0265153493 0.0343605419
v 0.0109590204 0.0198685969 0.0343605419
v 0.00339805196 0.0256012524 0.03659965
v 0.0100449235 0.0189545001 0.03659965
v 0.00229631971 0.0244995202 0.0386630436
v 0.00894319127 0.0178526486 0.0386630436
v 0.00102364133 0.0232267226 0.0405191322
v 0.00767039369 0.0165799703 0.0405191322
v -0.000400790469 0.02180241 0.0421401401
v 0.0062460811 0.0151555384 0.0421401401
v -0.0019551604 0.0202479209 0.0435012718
v 0.00469159196 0.0136011685 0.0435012718
v -0.00361610343 0.0185870971 0.044581904
v 0.00303076814 0.0119402255 0.044581904
v -0.00535834719 0.0168448533 0.0453657051
v 0.00128852437 0.0101979817 0.0453657051
v -0.00715542723 0.015047654 0.0458408733
v -0.000508674876 0.00840090169 0.0458408733
v -0.00898028304 0.0132229174 0.0460000177
v -0.00233341147 0.00657604588 0.0460000177
v -0.0108050196 0.0113980616 0.0458408733
v -0.00415826728 0.00475130929 0.0458408733
v -0.0126022189 0.0096009816 0.0453657051
v -0.00595534732 0.00295411004 0.0453657051
v -0.0143444626 0.00785873784 0.044581904
v -0.00769759108 0.00121198548 0.044581904
v -0.0160052865 0.0061977948 0.0435012718
v -0.00935853411 -0.000448957552 0.0435012718
v -0.0175597756 0.00464342488 0.0421401401
v -0.010912904 -0.00200344669 0.0421401401
v -0.0189840882 0.00321899308 0.0405191322
v -0.0123373358 -0.00342775928 0.0405191322
v -0.0202568858 0.0019463147 0.0386630436
v -0.0136100142 -0.00470043766 0.0386630436
v -0.021358618 0.000844582448 0.03659965
v -0.0147118657 -0.00580228912 0.03659965
v -0.0222727149 -6.96335931e-05 0.0343605419
v -0.0156259625 -0.00671638595 0.0343605419
v -0.022985348 -0.000782266726 0.0319794555
v -0.0163385956 -0.00742901908 0.0319794555
v -0.0234856694 -0.00128258811 0.0294926305
v -0.016838917 -0.00792934047 0.0294926305
v -0.0237661688 -0.00156296836 0.0269376178
v -0.0171192973 -0.00820983993 0.0269376178
v -0.0238224356 -0.00161935436 0.0243532797
v -0.0171756833 -0.00826610671 0.0243532797
v -0.0236537545 -0.001450554 0.0217787166
v -0.0170070021 -0.00809742557 0.0217787166
v -0.0232626288 -0.00105942832 0.0192530294
v -0.0166158765 -0.00770629989 0.0192530294
v -0.0226550191 -0.000451818575 0.0168144842
v -0.0160081475 -0.00709869014 0.0168144842
v -0.0218401044 0.000363096128 0.0145000358
v -0.0151932328 -0.00628377544 0.0145000358
v -0.0208301633 0.00137291802 0.0123447319
v -0.0141834109 -0.00527383434 0.0123447319
v -0.019640693 0.00256250752 0.0103812357
v -0.0129939406 -0.00408436405 0.0103812357
v -0.0182895749 0.0039135064 0.00863934952
v -0.0116428225 -0.00273324596 0.00863934952
v -0.0167974322 0.00540576829 0.0071454187
v -0.0101505606 -0.00124098407 0.0071454187
v -0.0151866763 0.00701652421 0.00592221218
v -0.00853980471 0.000369652639 0.00592221218
v -0.0134818642 0.00872133626 0.0049882074
v -0.00683499266 0.00207446469 0.0049882074
v -0.0117087453 0.010494336 0.00435759026
v -0.0050619929 0.00384758366 0.00435759026
v -0.00989437987 0.0123088206 0.00403977829
v -0.00324762751 0.00566194905 0.00403977829
v -0.008066067 0.0141370143 0.00403977829
v -0.00141931464 0.00749026192 0.00403977829
v -0.00625170161 0.0159513797 0.00435759026
v 0.000395050748 0.00930462731 0.00435759026
v -0.00447870185 0.0177244986 0.0049882074
v 0.00216816972 0.0110776271 0.0049882074
v -0.0027738898 0.0194293107 0.00592221218
v 0.00387298177 0.0127824391 0.00592221218
v -0.00116313388 0.0210400666 0.0071454187
v 0.00548361848 0.014393195 0.0071454187
v 0.000329128011 0.0225322093 0.00863934952
v 0.00697588037 0.0158854569 0.00863934952
v 0.0016802461 0.0238833274 0.0103812357
v 0.00832699846 0.017236575 0.0103812357
v 0.00286971639 0.0250727977 0.0123447319
v 0.00951646875 0.0184260453 0.0123447319
v 0.00387953828 0.0260827388 0.0145000358
v 0.0105264098 0.0194358672 0.0145000358
v 0.00469445298 0.0268976535 0.0168144842
v 0.0113413246 0.0202509011 0.0168144842
v 0.00530218194 0.0275052632 0.0192530294
v 0.0119489343 0.0208585109 0.0192530294
v 0.00569330762 0.0278963889 0.0217787166
v 0.01234006 0.0212496365 0.0217787166
v 0.00586198877 0.02806507 0.0243532797
v 0.0125087411 0.0214183177 0.0243532797
v -0.017580518 0.00504694832 0.0196820636
v -0.0170539706 0.00557349576 0.0183128257
v -0.0188707202 0.00375674618 0.0183128257
v 0.000485888226 0.0231133546 0.00952018696
v 0.000485888226 0.0231133546 0.0105627914
v 0.00129460405 0.0239220704 0.0105627914
v -0.0188021748 0.00382517232 0.0389622589
v -0.0188707202 0.00375674618 0.0388655801
v -0.0188707202 0.00375674618 0.0405053039
v 0.000485888226 0.0231133546 0.0316871544
v 0.000485888226 0.0231133546 0.0183128257
v 0.00527154516 0.0278988923 0.0218248506
v 0.00543772291 0.0280651893 0.024362578
v 0.00544475625 0.0280721034 0.02499999
v 0.00538229059 0.0280097569 0.0269099613
v 0.00465141843 0.0272788848 0.0316871544
v 0.00510584424 0.0277333106 0.0294283767
v 0.00463127206 0.0272586192 0.0183128257
v 0.0048859031 0.0275133695 0.0193351646
v 0.000417462094 0.0230448092 0.0357865234
v 0.000485888226 0.0231133546 0.0358830829
v 0.000678768857 0.023306116 0.0361553569
v 0.000864735349 0.0234920825 0.0381379266
v 0.0017726333 0.0244000996 0.038687243
v 0.000959864362 0.0235873307 0.0376335521
v 0.00192307542 0.0245505418 0.0384677787
v 0.000959506734 0.0235869731 0.0371114154
v 0.00300919126 0.0256365384 0.0364339491
v 0.000863662465 0.0234910096 0.0366071602
v 0.00391017507 0.0265376414 0.0342267891
v 0.00461267541 0.0272401418 0.0318797966
v 0.000680437787 0.0233077849 0.0385903259
v 0.000612130864 0.023239478 0.038687243
v 0.000668516858 0.0232959832 0.0402975221
v 0.000485888226 0.0231133546 0.0388659378
v 0.000485888226 0.0231133546 0.0405053039
v 0.000419607861 0.0230470742 0.0389598747
v 0.000100126965 0.0227274741 0.0392214199
v -0.000735410945 0.0218919362 0.0418952842
v -0.00025642802 0.0223710383 0.0393569608
v -0.000625619189 0.0220018472 0.0393575569
v -0.00226760794 0.0203597392 0.0432369848
v -0.000982293384 0.0216450538 0.0392228504
v -0.00390482833 0.0187225188 0.0443021198
v -0.00130225112 0.0213252152 0.0389622589
v -0.00446380069 0.0181635465 0.0445536514
v -0.00813175132 0.014495715 0.0399018665
v -0.00769234587 0.0149350013 0.0403787037
v -0.00446380069 0.0181635465 0.038687243
v -0.0106923669 0.0119349803 0.0403787037
v -0.0102530806 0.0123743857 0.0399018665
v -0.013920912 0.00870643509 0.038687243
v -0.007355222 0.0152721251 0.0410000225
v -0.0071433871 0.0154840793 0.0417235036
v -0.0110294907 0.0115978564 0.0410000225
v -0.00769234587 0.0149350013 0.0446213623
v -0.00739360739 0.0152337397 0.0455430885
v -0.007355222 0.0152721251 0.0440000435
v -0.00562215735 0.0170051898 0.0450748344
v -0.0071433871 0.0154840793 0.0432764431
v -0.00707102706 0.0155563201 0.042500033
v -0.0109911053 0.0116362418 0.0455430885
v -0.0106923669 0.0119349803 0.0446213623
v -0.0127625554 0.00986479176 0.0450748344
v -0.0110294907 0.0115978564 0.0440000435
v -0.013920912 0.00870643509 0.0445536514
v -0.0112414448 0.0113860215 0.0432764431
v -0.0113136857 0.0113136615 0.042500033
v -0.0112414448 0.0113860215 0.0417235036
v -0.00813175132 0.014495715 0.0450980802
v -0.00864339759 0.0139840688 0.0453977724
v -0.00919235636 0.0134349908 0.0456999679
v -0.00919235636 0.0134349908 0.0455000539
v -0.00974143435 0.012886032 0.0453977724
v -0.0102530806 0.0123743857 0.0450980802
v -0.00974143435 0.012886032 0.0396021743
v -0.00919235636 0.0134349908 0.039500012
v -0.00864339759 0.0139840688 0.0396021743
v -0.0170804351 0.00554703129 0.0389598747
v -0.0173999159 0.0052275504 0.0392214199
v -0.0161171048 0.00651036156 0.0432369848
v -0.0176493018 0.00497804535 0.0418952842
v -0.0177564709 0.00487099541 0.0393569608
v -0.0181256621 0.00450180424 0.0393575569
v -0.0184823363 0.00414513005 0.0392228504
v -0.0194009631 0.00322638405 0.038687243
v -0.0194009631 0.00322638405 0.0397904058
v -0.0190533488 0.00357411755 0.0402975221
v -0.0229973881 -0.000370041003 0.0318797966
v -0.022295007 0.000332459341 0.0342267891
v -0.0194009631 0.00322638405 0.0316871544
v -0.021393904 0.00123344315 0.0364339491
v -0.0203079074 0.00231955899 0.0384677787
v -0.0201574652 0.00247000111 0.038687243
v -0.0197296231 0.00289772404 0.0234999796
v -0.019517669 0.00310967816 0.0242235799
v -0.0194009631 0.00322638405 0.0183128257
v -0.0236562579 -0.00102891075 0.0218248506
v -0.0238225548 -0.0011950885 0.024362578
v -0.0236158459 -0.000988379588 0.0242235799
v -0.0215667575 0.00106070889 0.0219999691
v -0.0210176795 0.00160966767 0.0221022506
v -0.0236880868 -0.00106062042 0.02499999
v -0.0237670033 -0.00113965618 0.0269099613
v -0.0236158459 -0.000988379588 0.0257764001
v -0.0205061524 0.00212131394 0.0224019428
v -0.020066747 0.00256071938 0.0228786607
v -0.0215667575 0.00106070889 0.028000011
v -0.0221158354 0.000511630903 0.0278977295
v -0.0230361312 -0.000408784022 0.0316871544
v -0.0221158354 0.000511630903 0.0221022506
v -0.0230159848 -0.000388518443 0.0183128257
v -0.0226273625 -1.53680353e-08 0.0224019428
v -0.023270735 -0.000643268694 0.0193351646
v -0.0230667679 -0.0004393016 0.0228786607
v -0.0234038918 -0.000776425471 0.0234999796
v -0.0234906762 -0.000863209834 0.0294283767
v -0.0194454281 0.0031820382 0.02499999
v -0.019517669 0.00310967816 0.0257764001
v -0.0197296231 0.00289772404 0.0265000005
v -0.0210176795 0.00160966767 0.0278977295
v -0.020066747 0.00256071938 0.0271213194
v -0.0205061524 0.00212131394 0.0275980373
v -0.0226273625 -1.53680353e-08 0.0275980373
v -0.0230667679 -0.0004393016 0.0271213194
v -0.0234038918 -0.000776425471 0.0265000005
v -0.0194009631 0.00322638405 0.0113128563
v -0.0201383917 0.00248895539 0.0113128563
v -0.0208730786 0.00175438775 0.0125254532
v -0.0218684762 0.000758870969 0.0146500011
v -0.0226718276 -4.43612237e-05 0.0169314285
v -0.0183687298 0.00425861729 0.00887299973
v -0.0188707202 0.00375674618 0.00952018696
v -0.0188707202 0.00375674618 0.0105627914
v -0.0194009631 0.00322638405 0.0102038522
v -0.0194009631 0.00322638405 0.0105627914
v -0.019679436 0.00294803036 0.0105627914
v -0.019700536 0.00292693032 0.0105899711
v -0.013920912 0.00870643509 0.00543369252
v -0.0153101771 0.00731728924 0.00619472462
v -0.013920912 0.00870643509 0.0105627914
v -0.0168978064 0.00572954072 0.00740052658
v -0.0102530806 0.0123743857 0.0100981136
v -0.0106923669 0.0119349803 0.00962127644
v -0.0110294907 0.0115978564 0.00899995762
v -0.0112414448 0.0113860215 0.00827647644
v -0.00707102706 0.0155563201 0.00749994713
v -0.0071433871 0.0154840793 0.00827647644
v -0.00446380069 0.0181635465 0.0105627914
v -0.00650287558 0.0161245908 0.00465251404
v -0.00829137255 0.0143360938 0.00433923203
v -0.00813175132 0.014495715 0.00490189987
v -0.0102530806 0.0123743857 0.00490189987
v -0.0100934594 0.012534007 0.00433923203
v -0.0106923669 0.0119349803 0.00537873703
v -0.0118819564 0.01074551 0.00465251404
v -0.0110294907 0.0115978564 0.00600005585
v -0.0136296837 0.0089977826 0.00527407128
v -0.0112414448 0.0113860215 0.00672353703
v -0.0113136857 0.0113136615 0.00749994713
v -0.007355222 0.0152721251 0.00899995762
v -0.00769234587 0.0149350013 0.00962127644
v -0.00813175132 0.014495715 0.0100981136
v -0.00769234587 0.0149350013 0.00537873703
v -0.007355222 0.0152721251 0.00600005585
v -0.00475514819 0.0178723182 0.00527407128
v -0.0071433871 0.0154840793 0.00672353703
v -0.00446380069 0.0181635465 0.00543369252
v -0.00864339759 0.0139840688 0.0103978058
v -0.00919235636 0.0134349908 0.0104999681
v -0.00974143435 0.012886032 0.0103978058
v -0.00974143435 0.012886032 0.00460220772
v -0.00919235636 0.0134349908 0.00450004536
v -0.00864339759 0.0139840688 0.00460220772
v -0.00307465483 0.0195528115 0.00619472462
v -0.00148690631 0.0211404408 0.00740052658
v -1.59828826e-05 0.0226113643 0.00887299973
v 0.000612369283 0.0232397164 0.0113128563
v 0.000678768857 0.023306116 0.0114065548
v 0.00175367902 0.0243810262 0.0113128563
v 0.000863662465 0.0234910096 0.0118584772
v 0.00248824666 0.025115713 0.0125254532
v 0.000959506734 0.0235869731 0.0123626133
v 0.000959864362 0.0235873307 0.0128847499
v 0.00348376344 0.0261111106 0.0146500011
v 0.000864735349 0.0234920825 0.0133892437
v 0.00428699563 0.026914462 0.0169314285
v 0.000680437787 0.0233077849 0.0138416429
v -0.00446380069 0.0181635465 0.0361038585
v -0.00511349131 0.0175138558 0.0366501947
v -0.00641883303 0.0162085141 0.0373941799
v -0.013920912 0.00870643509 0.0361038585
v -0.0132712214 0.00935612572 0.0366501947
v -0.0119658797 0.0106614674 0.0373941799
v -0.00778914382 0.0148382033 0.037847652
v -0.00919235636 0.0134349908 0.0380000015
v -0.0105955689 0.0120317782 0.037847652
v -0.00149715831 0.021130308 0.038687243
v -0.00156355788 0.0210639085 0.0385934253
v -0.000628361003 0.0219991053 0.0353917022
v -0.000259169833 0.0223682965 0.0353912254
v 9.75043611e-05 0.0227249707 0.0355258127
v -0.00281811644 0.0198093499 0.0343667408
v -0.00130439688 0.0213230695 0.0357887884
v -0.00188172747 0.0207456197 0.0328809162
v -0.000984796779 0.0216425504 0.0355273624
v -0.00133515288 0.0212923135 0.0316871544
v -0.00174845149 0.0208790149 0.0381415029
v -0.00184429576 0.0207830514 0.0376373668
v -0.00184465338 0.0207826938 0.0371152301
v -0.00390387465 0.0187235917 0.035633101
v -0.00174952437 0.020877942 0.0366107364
v -0.00156522681 0.0210622395 0.0361583372
v -0.00133086135 0.021296605 0.0183128257
v -0.000804313914 0.0218231524 0.0196820636
v -0.00032854964 0.0222987975 0.0215551992
v -6.06863662e-05 0.02256678 0.0235091587
v -6.80376729e-06 0.0226206626 0.0254979272
v -0.000168093936 0.0224592532 0.0274751325
v -0.000541099803 0.0220863665 0.0293941637
v -0.00111676146 0.0215107049 0.0312103172
v 0.000485888226 0.0231133546 0.0141172548
v 0.000419607861 0.0230470742 0.0142111917
v 0.000100126965 0.0227274741 0.0144726177
v -0.00025642802 0.0223710383 0.0146082779
v -0.000625619189 0.0220018472 0.0146087547
v -0.00147665431 0.021150812 0.017933621
v -0.000982293384 0.0216450538 0.0144741674
v -0.00232983519 0.0202976312 0.01635076
v -0.00130225112 0.0213252152 0.0142135759
v -0.00334382941 0.0192836369 0.0149706741
v -0.00184429576 0.0207830514 0.0128885646
v -0.00184465338 0.0207826938 0.0123665472
v -0.00446380069 0.0181635465 0.0113128563
v -0.00174952437 0.020877942 0.0118620535
v -0.00156522681 0.0210622395 0.0114096542
v -0.00156355788 0.0210639085 0.0138447424
v -0.00174845149 0.0208790149 0.0133928199
v -0.00446380069 0.0181635465 0.0138565441
v -0.013920912 0.00870643509 0.0138565441
v -0.0138899176 0.00873754872 0.0138255497
v -0.013920912 0.00870643509 0.0113128563
v -0.0126286833 0.009998783 0.0129424472
v -0.0112868636 0.0113404836 0.0123419901
v -0.00449491431 0.018132552 0.0138255497
v -0.00575614859 0.0168713178 0.0129424472
v -0.0098960488 0.0127314175 0.0120381256
v -0.00848866393 0.0141386832 0.0120381256
v -0.00709784915 0.015529498 0.0123419901
v -0.0170825808 0.00554488553 0.0110377212
v -0.0168876736 0.00573979271 0.0113128563
v -0.0168212741 0.00580619229 0.0114065548
v -0.0166363805 0.0059910859 0.0118584772
v -0.016540417 0.00608693017 0.0123626133
v -0.0165400593 0.00608728779 0.0128847499
v -0.0150410025 0.00758646382 0.0149706741
v -0.0166353076 0.00599215878 0.0133892437
v -0.0168196051 0.00580786122 0.0138416429
v -0.0160549967 0.0065724696 0.01635076
v -0.0170804351 0.00554703129 0.0142111917
v -0.0169081776 0.00571928872 0.017933621
v -0.0173999159 0.0052275504 0.0144726177
v -0.0177564709 0.00487099541 0.0146082779
v -0.0181256621 0.00450180424 0.0146087547
v -0.0184823363 0.00414513005 0.0144741674
v -0.0170496791 0.00557778729 0.0316871544
v -0.0172680705 0.00535939587 0.0312103172
v -0.0188707202 0.00375674618 0.0316871544
v -0.0178437321 0.00478373421 0.0293941637
v -0.0182166188 0.00441072835 0.0274751325
v -0.0183780282 0.00424943818 0.0254979272
v -0.0183241456 0.00430332078 0.0235091587
v -0.0180561631 0.00457118405 0.0215551992
v -0.0144798844 0.00814746274 0.0443021198
v -0.0168879121 0.0057395543 0.038687243
v -0.0168196051 0.00580786122 0.0385903259
v -0.0166353076 0.00599215878 0.0381379266
v -0.0188044398 0.00382302655 0.0357887884
v -0.0184848397 0.00414250744 0.0355273624
v -0.0181282847 0.00449906243 0.0353917022
v -0.0177592127 0.0048682536 0.0353912254
v -0.0165029853 0.00612436188 0.0328809162
v -0.0174024193 0.00522492779 0.0355258127
v -0.0155667155 0.00706075085 0.0343667408
v -0.0170825808 0.00554488553 0.0357865234
v -0.0168212741 0.00580619229 0.0361553569
v -0.0144809573 0.00814650906 0.035633101
v -0.0166363805 0.0059910859 0.0366071602
v -0.016540417 0.00608693017 0.0371114154
v -0.0165400593 0.00608728779 0.0376335521
v 0.0013158233 0.0239431704 0.0105899711
v 0.000485888226 0.0231133546 0.0111344
v 0.000417462094 0.0230448092 0.0110377212
v 9.75043611e-05 0.0227249707 0.0107771297
v -0.00149680068 0.0211305465 0.0113128563
v -0.00130439688 0.0213230695 0.0110401054
v -0.000984796779 0.0216425504 0.0107785602
v -0.000628361003 0.0219991053 0.0106430193
v -0.000259169833 0.0223682965 0.0106425424
v -0.0190651505 0.00356219662 0.0361583372
v -0.0188707202 0.00375674618 0.0358827253
v -0.018997082 0.00363026513 0.038687243
v -0.0190634816 0.00356386555 0.0385934253
v -0.0192483752 0.00337897194 0.0381415029
v -0.0193443387 0.00328312768 0.0376373668
v -0.0193446963 0.00328277005 0.0371152301
v -0.0192494481 0.00337789906 0.0366107364
v -0.0184848397 0.00414250744 0.0107785602
v -0.0181282847 0.00449906243 0.0106430193
v -0.0177592127 0.0048682536 0.0106425424
v -0.0174024193 0.00522492779 0.0107771297
v -0.0188021748 0.00382517232 0.0142135759
v -0.0188707202 0.00375674618 0.0141168972
v -0.0190634816 0.00356386555 0.0138447424
v -0.0192494481 0.00337789906 0.0118620535
v -0.0190651505 0.00356219662 0.0114096542
v -0.0189968436 0.00363050355 0.0113128563
v -0.0188707202 0.00375674618 0.0111340423
v -0.0188044398 0.00382302655 0.0110401054
v -0.0192483752 0.00337897194 0.0133928199
v -0.0193443387 0.00328312768 0.0128885646
v -0.0193446963 0.00328277005 0.0123665472
v -0.00740886618 0.00107644452 0.0443021198
v -0.00640798499 0.00207732571 0.0447524925
v -0.00904608657 -0.000560775866 0.0432369848
v -0.0105782836 -0.00209297286 0.0418952842
v -0.0119410842 -0.00345577346 0.0403443714
v -0.0119823306 -0.00349701988 0.0402975221
v -0.0127718537 -0.00428666221 0.0391458412
v -0.0121436207 -0.00365831005 0.040062203
v -0.0152238696 -0.00673867809 0.0342267891
v -0.0143228858 -0.00583757507 0.0364339491
v -0.0132367699 -0.00475157844 0.0384677787
v -0.0129492371 -0.00446392642 0.038887157
v -0.0164195388 -0.00793422805 0.0294283767
v -0.0160908787 -0.00760556804 0.03106214
v -0.0159263699 -0.00744105922 0.0318797966
v -0.0165852397 -0.00809992897 0.0218248506
v -0.0167515366 -0.00826622592 0.024362578
v -0.0166959851 -0.0082106744 0.0269099613
v -0.0156006901 -0.00711537944 0.0169314285
v -0.0161006539 -0.0076153432 0.01893784
v -0.0161997168 -0.00771440612 0.0193351646
v -0.0147974579 -0.00631214725 0.0146500011
v -0.0126295178 -0.00414420711 0.0105899711
v -0.0127718537 -0.00428666221 0.0108250518
v -0.0129461377 -0.00446094619 0.0111128231
v -0.0138019412 -0.00531674968 0.0125254532
v -0.0119410842 -0.00345577346 0.00970245796
v -0.0112977116 -0.00281240093 0.00887299973
v -0.0098267882 -0.0013414775 0.00740052658
v -0.00823903968 0.000246271024 0.00619472462
v -0.00655854632 0.00192664517 0.00527407128
v -0.00640798499 0.00207732571 0.00522054631
v -0.00481093814 0.00367437256 0.00465251404
v -0.00302244117 0.00546286953 0.00433923203
v -0.00122023513 0.00726507557 0.00433923203
v 0.000568261846 0.00905357255 0.00465251404
v 0.0021653087 0.0106506194 0.00522054631
v 0.00231598924 0.0108011807 0.00527407128
v 0.00399636339 0.0124816741 0.00619472462
v 0.00558411191 0.0140694226 0.00740052658
v 0.00705503534 0.015540346 0.00887299973
v 0.00955938409 0.0180445756 0.0125254532
v 0.0087035806 0.0171887721 0.0111128231
v 0.00838684152 0.0168721522 0.0105899711
v 0.00769840787 0.0161837186 0.00970245796
v 0.0105547817 0.0190400924 0.0146500011
v 0.0113581331 0.0198433246 0.0169314285
v 0.0118579776 0.0203432883 0.01893784
v 0.0119570405 0.0204423512 0.0193351646
v 0.0123425634 0.0208278741 0.0218248506
v 0.0125088603 0.020994171 0.024362578
v 0.0124533088 0.0209386195 0.0269099613
v 0.0121768625 0.0206621732 0.0294283767
v 0.0118482025 0.0203335132 0.03106214
v 0.0116836936 0.0201690043 0.0318797966
v 0.0109813125 0.0194666232 0.0342267891
v 0.0100802095 0.0185655202 0.0364339491
v 0.00899421285 0.0174794043 0.0384677787
v 0.00790094446 0.0163862552 0.040062203
v 0.00870656083 0.0171918715 0.038887157
v 0.00480341028 0.013288721 0.0432369848
v 0.00633560727 0.014820918 0.0418952842
v 0.00769840787 0.0161837186 0.0403443714
v 0.00773965429 0.016224965 0.0402975221
v -0.00569153716 0.00279377354 0.0450748344
v -0.00392008712 0.00456522358 0.0455430885
v -0.00212133815 0.00636397255 0.0456999679
v -0.000322589175 0.00816272152 0.0455430885
v 0.00144886087 0.00993417157 0.0450748344
v 0.0021653087 0.0106506194 0.0447524925
v 0.00316618989 0.0116515006 0.0443021198
v -0.0144957392 -0.00601042854 0.0267499824
v -0.0180312483 -0.00247491943 0.0267499824
v -0.0141754239 -0.00569011318 0.0266903778
v -0.017710933 -0.00215460407 0.0266903778
v -0.0138769238 -0.00539173233 0.0265154977
v -0.0174125521 -0.00185610401 0.0265154977
v -0.0136207431 -0.00513543235 0.0262373825
v -0.0171562522 -0.00159992324 0.0262373825
v -0.0134240477 -0.00493873702 0.0258749862
v -0.0169595568 -0.00140322792 0.0258749862
v -0.0133004277 -0.00481511699 0.0254529853
v -0.0168359368 -0.00127960788 0.0254529853
v -0.0132582276 -0.0047729169 0.02499999
v -0.0167937367 -0.00123740779 0.02499999
v -0.0133004277 -0.00481511699 0.024547114
v -0.0168359368 -0.00127960788 0.024547114
v -0.0134240477 -0.00493873702 0.0241249939
v -0.0169595568 -0.00140322792 0.0241249939
v -0.0136207431 -0.00513543235 0.0237625976
v -0.0171562522 -0.00159992324 0.0237625976
v -0.0138769238 -0.00539173233 0.0234844823
v -0.0174125521 -0.00185610401 0.0234844823
v -0.0141754239 -0.00569011318 0.0233096023
v -0.017710933 -0.00215460407 0.0233096023
v -0.0144957392 -0.00601042854 0.0232499977
v -0.0180312483 -0.00247491943 0.0232499977
v -0.0148159354 -0.00633062469 0.0233096023
v -0.0183514445 -0.00279511558 0.0233096023
v -0.0151144355 -0.00662912475 0.0234844823
v -0.0186499446 -0.00309361564 0.0234844823
v -0.0153707354 -0.00688542472 0.0237625976
v -0.0189062445 -0.00334991561 0.0237625976
v -0.0155673115 -0.00708200084 0.0241249939
v -0.0191028207 -0.00354649173 0.0241249939
v -0.0156909316 -0.00720562087 0.024547114
v -0.0192264407 -0.00367011177 0.024547114
v -0.0157331317 -0.00724782096 0.02499999
v -0.0192686408 -0.00371231185 0.02499999
v -0.0156909316 -0.00720562087 0.0254529853
v -0.0192264407 -0.00367011177 0.0254529853
v -0.0155673115 -0.00708200084 0.0258749862
v -0.0191028207 -0.00354649173 0.0258749862
v -0.0153707354 -0.00688542472 0.0262373825
v -0.0189062445 -0.00334991561 0.0262373825
v -0.0151144355 -0.00662912475 0.0265154977
v -0.0186499446 -0.00309361564 0.0265154977
v -0.0148159354 -0.00633062469 0.0266903778
v -0.0183514445 -0.00279511558 0.0266903778
v -0.0117333024 -0.00324799167 0.0357887884
v -0.0119410842 -0.00345577346 0.0360831161
v -0.0119941323 -0.0035088216 0.0361583372
v -0.0121784299 -0.00369311916 0.0366107364
v -0.0122735589 -0.00378836738 0.0371152301
v -0.0122732012 -0.00378800975 0.0376373668
v -0.012177357 -0.00369204627 0.0381415029
v -0.0119924634 -0.00350715267 0.0385934253
v -0.0119410842 -0.00345577346 0.0386660238
v -0.0117843239 -0.00329901325 0.038887157
v -0.0117311566 -0.0032458459 0.0389622589
v -0.0114111989 -0.00292600738 0.0392228504
v -0.0110545247 -0.00256921398 0.0393575569
v -0.0106853335 -0.00220014202 0.0393569608
v -0.0103288977 -0.00184358703 0.0392214199
v -0.0100092976 -0.00152398693 0.0389598747
v -0.00995803763 -0.00147272693 0.038887157
v -0.0097484677 -0.00126327621 0.0385903259
v -0.00956428935 -0.00107897865 0.0381379266
v -0.00946904113 -0.000983730425 0.0376335521
v -0.00946939875 -0.000984088053 0.0371114154
v -0.00956524302 -0.00108005153 0.0366071602
v -0.00975013663 -0.00126494514 0.0361553569
v -0.0100114434 -0.0015262519 0.0357865234
v -0.0103314011 -0.00184609043 0.0355258127
v -0.0106880753 -0.00220276462 0.0353912254
v -0.0110572665 -0.00257195579 0.0353917022
v -0.0114138215 -0.00292851078 0.0355273624
f 1 2 3
f 3 2 4
f 3 4 5
f 5 4 6
f 5 6 7
f 7 6 8
f 7 8 9
f 9 8 10
f 9 10 11
f 12 13 14
f 14 13 15
f 14 15 16
f 16 15 17
f 16 17 18
f 18 17 19
f 18 19 1
f 1 19 20
f 1 20 2
f 21 22 23
f 23 22 24
f 23 24 25
f 25 24 26
f 25 26 27
f 27 26 28
f 27 28 29
f 29 28 30
f 29 30 31
f 31 30 32
f 31 32 33
f 33 32 34
f 33 34 35
f 35 34 36
f 35 36 37
f 37 36 38
f 37 38 39
f 10 40 11
f 11 40 41
f 11 41 42
f 42 41 43
f 42 43 44
f 44 43 45
f 44 45 46
f 46 45 47
f 46 47 48
f 48 47 49
f 48 49 50
f 50 49 51
f 50 51 52
f 52 51 53
f 52 53 54
f 54 53 55
f 54 55 56
f 56 55 57
f 56 57 21
f 21 57 58
f 21 58 22
f 38 59 39
f 39 59 60
f 39 60 61
f 61 60 62
f 61 62 63
f 63 62 64
f 63 64 65
f 65 64 66
f 65 66 67
f 67 66 68
f 67 68 69
f 69 68 70
f 69 70 71
f 71 70 72
f 71 72 73
f 73 72 74
f 73 74 75
f 75 74 76
f 75 76 77
f 77 76 78
f 77 78 12
f 12 78 79
f 12 79 13
f 80 81 82
f 82 81 83
f 82 83 84
f 84 83 85
f 84 85 86
f 86 85 87
f 86 87 88
f 88 87 89
f 88 89 90
f 90 89 91
f 90 91 92
f 92 91 93
f 92 93 94
f 94 93 95
f 94 95 96
f 96 95 97
f 96 97 98
f 98 97 99
f 98 99 100
f 100 99 101
f 100 101 102
f 102 101 103
f 102 103 104
f 104 103 105
f 104 105 106
f 106 105 107
f 106 107 108
f 108 107 109
f 108 109 110
f 110 109 111
f 110 111 112
f 112 111 113
f 112 113 114
f 114 113 115
f 114 115 116
f 116 115 117
f 116 117 118
f 118 117 119
f 118 119 120
f 120 119 121
f 120 121 122
f 122 121 123
f 122 123 124
f 124 123 125
f 124 125 126
f 126 125 127
f 126 127 80
f 80 127 81
f 128 129 130
f 130 129 131
f 130 131 132
f 132 131 133
f 132 133 134
f 134 133 135
f 134 135 136
f 136 135 137
f 136 137 138
f 138 137 139
f 138 139 140
f 140 139 141
f 140 141 142
f 142 141 143
f 142 143 144
f 144 143 145
f 144 145 146
f 146 145 147
f 146 147 148
f 148 147 149
f 148 149 150
f 150 149 151
f 150 151 152
f 152 151 153
f 152 153 154
f 154 153 155
f 154 155 156
f 156 155 157
f 156 157 158
f 158 157 159
f 158 159 160
f 160 159 161
f 160 161 162
f 162 161 163
f 162 163 164
f 164 163 165
f 164 165 166
f 166 165 167
f 166 167 168
f 168 167 169
f 168 169 170
f 170 169 171
f 170 171 172
f 172 171 173
f 172 173 174
f 174 173 175
f 174 175 176
f 176 175 177
f 176 177 178
f 178 177 179
f 178 179 180
f 180 179 181
f 180 181 182
f 182 181 183
f 182 183 184
f 184 183 185
f 184 185 186
f 186 185 187
f 186 187 188
f 188 187 189
f 188 189 190
f 190 189 191
f 190 191 192
f 192 191 193
f 192 193 194
f 194 193 195
f 194 195 196
f 196 195 197
f 196 197 198
f 198 197 199
f 198 199 200
f 200 199 201
f 200 201 202
f 202 201 203
f 202 203 204
f 204 203 205
f 204 205 206
f 206 205 207
f 206 207 208
f 208 207 209
f 208 209 210
f 210 209 211
f 210 211 212
f 212 211 213
f 212 213 214
f 214 213 215
f 214 215 216
f 216 215 217
f 216 217 218
f 218 217 219
f 218 219 220
f 220 219 221
f 220 221 222
f 222 221 223
f 222 223 224
f 224 223 225
f 224 225 226
f 226 225 227
f 226 227 228
f 228 227 229
f 228 229 230
f 230 229 128
f 230 128 130
f 231 232 233
f 234 235 236
f 237 238 239
f 127 125 240
f 127 240 81
f 241 240 117
f 117 240 119
f 117 115 241
f 241 115 113
f 241 113 111
f 242 97 243
f 243 97 95
f 243 95 244
f 244 95 93
f 244 93 245
f 125 123 240
f 240 123 121
f 240 121 119
f 83 246 85
f 85 246 247
f 111 109 241
f 241 109 107
f 241 107 248
f 93 91 245
f 245 91 89
f 245 89 247
f 247 89 87
f 247 87 85
f 107 105 248
f 248 105 103
f 248 103 249
f 249 103 101
f 249 101 242
f 242 101 99
f 242 99 97
f 250 251 240
f 240 251 252
f 253 254 255
f 255 254 256
f 255 256 257
f 257 256 258
f 257 258 259
f 259 258 260
f 259 260 252
f 252 260 261
f 252 261 240
f 240 261 246
f 240 246 81
f 81 246 83
f 253 262 254
f 254 262 263
f 254 263 264
f 264 263 265
f 264 265 266
f 265 267 266
f 266 267 268
f 266 268 269
f 268 270 269
f 269 270 271
f 269 271 272
f 272 271 273
f 272 273 274
f 274 273 275
f 274 275 276
f 277 278 279
f 280 281 282
f 278 283 279
f 279 283 284
f 279 284 276
f 280 282 285
f 286 287 288
f 288 287 289
f 288 289 290
f 290 289 276
f 290 276 291
f 291 276 284
f 292 293 294
f 294 293 295
f 294 295 296
f 295 297 296
f 296 297 298
f 296 298 282
f 282 298 299
f 282 299 285
f 286 300 287
f 287 300 301
f 287 301 302
f 301 303 302
f 302 303 304
f 302 304 292
f 292 304 305
f 292 305 293
f 281 306 282
f 282 306 307
f 282 307 279
f 279 307 308
f 279 308 277
f 309 310 311
f 311 310 312
f 310 313 312
f 312 313 314
f 312 314 239
f 239 314 315
f 239 315 237
f 316 317 238
f 238 317 318
f 238 318 239
f 319 320 321
f 320 322 321
f 321 322 323
f 321 323 316
f 316 323 324
f 316 324 317
f 325 326 327
f 328 329 330
f 331 332 327
f 330 329 333
f 333 329 334
f 333 334 335
f 332 336 327
f 327 336 337
f 327 337 325
f 338 339 340
f 341 342 343
f 343 342 344
f 343 344 345
f 345 344 328
f 345 328 346
f 346 328 330
f 340 339 347
f 348 349 321
f 321 349 350
f 319 321 340
f 340 321 351
f 340 351 338
f 350 352 321
f 321 352 353
f 321 353 351
f 339 354 347
f 347 354 355
f 347 355 334
f 334 355 356
f 334 356 335
f 357 358 327
f 327 358 359
f 327 359 360
f 341 331 342
f 342 331 327
f 342 327 361
f 361 327 360
f 362 363 364
f 364 363 365
f 364 365 366
f 366 365 367
f 366 367 357
f 357 367 368
f 357 368 358
f 369 370 371
f 371 370 372
f 371 373 374
f 374 375 371
f 371 375 376
f 371 376 369
f 377 378 379
f 380 381 382
f 383 384 385
f 385 384 386
f 385 386 387
f 387 386 388
f 387 388 389
f 389 388 369
f 389 369 390
f 390 369 376
f 378 391 379
f 379 391 392
f 379 392 393
f 382 394 380
f 380 394 395
f 380 395 396
f 396 395 397
f 396 397 398
f 393 399 379
f 379 399 400
f 379 400 371
f 371 400 401
f 371 401 373
f 383 402 384
f 384 402 403
f 384 403 381
f 381 403 404
f 381 404 382
f 397 377 398
f 398 377 379
f 398 379 405
f 405 379 406
f 235 234 379
f 379 234 407
f 379 407 406
f 408 409 410
f 410 409 411
f 410 411 412
f 411 413 412
f 412 413 414
f 412 414 415
f 415 414 416
f 415 416 417
f 417 416 418
f 417 418 248
f 419 420 279
f 279 420 421
f 422 282 423
f 423 282 424
f 421 425 279
f 279 425 426
f 279 426 282
f 282 426 427
f 282 427 424
f 276 275 279
f 279 275 428
f 279 428 429
f 430 431 240
f 240 431 432
f 240 432 250
f 433 434 435
f 435 434 436
f 435 436 437
f 429 438 279
f 279 438 439
f 279 439 419
f 419 439 440
f 419 440 441
f 441 440 442
f 441 442 433
f 433 442 443
f 433 443 434
f 444 445 241
f 241 445 446
f 446 447 241
f 241 447 448
f 241 448 240
f 240 448 449
f 240 449 450
f 436 430 437
f 437 430 240
f 437 240 451
f 451 240 450
f 248 418 241
f 241 418 452
f 241 452 453
f 453 454 241
f 241 454 455
f 241 455 444
f 444 455 456
f 444 456 457
f 457 456 458
f 457 458 459
f 459 458 460
f 459 460 461
f 462 463 464
f 464 463 465
f 464 465 466
f 460 467 461
f 461 467 468
f 461 468 469
f 470 471 472
f 472 471 473
f 472 473 474
f 468 462 469
f 469 462 464
f 469 464 475
f 475 464 476
f 474 477 472
f 472 477 478
f 472 478 464
f 464 478 479
f 464 479 476
f 480 481 472
f 472 481 482
f 482 483 472
f 472 483 484
f 472 484 470
f 470 484 485
f 470 485 486
f 485 487 486
f 486 487 488
f 486 488 489
f 489 488 490
f 489 490 491
f 491 490 492
f 491 492 232
f 232 492 493
f 232 493 233
f 233 493 494
f 233 494 495
f 496 497 498
f 498 497 499
f 498 499 500
f 501 502 233
f 233 502 503
f 233 503 231
f 311 504 309
f 309 504 296
f 309 296 505
f 505 296 282
f 505 282 506
f 506 282 507
f 508 509 498
f 498 509 510
f 498 510 496
f 496 510 511
f 496 511 512
f 512 511 513
f 512 513 514
f 513 515 514
f 514 515 516
f 514 516 517
f 517 516 518
f 517 518 422
f 422 518 519
f 422 519 282
f 282 519 520
f 282 520 507
f 410 521 408
f 408 521 236
f 408 236 522
f 522 236 235
f 522 235 523
f 523 235 524
f 525 526 379
f 526 527 379
f 379 527 528
f 379 528 235
f 235 528 529
f 235 529 524
f 321 530 498
f 498 530 531
f 498 531 508
f 238 532 316
f 316 532 533
f 316 533 534
f 534 535 316
f 316 535 536
f 316 536 321
f 321 536 537
f 321 537 530
f 538 539 364
f 540 541 371
f 372 362 371
f 371 362 364
f 371 364 540
f 540 364 539
f 495 542 233
f 233 542 543
f 233 543 327
f 327 543 544
f 545 546 357
f 357 546 547
f 357 547 366
f 366 547 548
f 366 548 364
f 364 548 549
f 364 549 538
f 544 550 327
f 327 550 551
f 327 551 357
f 357 551 552
f 357 552 545
f 466 525 464
f 464 525 379
f 464 379 472
f 472 379 371
f 472 371 480
f 480 371 541
f 500 501 498
f 498 501 233
f 498 233 321
f 321 233 327
f 321 327 348
f 348 327 326
f 553 554 158
f 158 160 553
f 553 160 162
f 553 162 555
f 555 162 164
f 555 164 556
f 556 164 557
f 557 164 166
f 557 166 558
f 168 559 166
f 166 559 560
f 166 560 558
f 174 561 172
f 172 561 562
f 172 562 170
f 170 562 563
f 170 563 168
f 168 563 564
f 168 564 559
f 565 566 174
f 174 566 567
f 174 567 561
f 184 568 182
f 182 568 569
f 182 569 180
f 180 569 570
f 180 570 178
f 178 570 565
f 178 565 176
f 176 565 174
f 571 572 184
f 184 572 573
f 184 573 568
f 190 574 188
f 188 574 571
f 188 571 186
f 186 571 184
f 575 576 192
f 192 576 577
f 192 577 190
f 190 577 578
f 190 578 574
f 575 192 579
f 579 192 194
f 579 194 580
f 580 194 196
f 580 196 581
f 581 196 198
f 581 198 582
f 582 198 200
f 582 200 583
f 583 200 584
f 584 200 202
f 584 202 585
f 585 202 204
f 585 204 586
f 586 204 206
f 586 206 587
f 587 206 208
f 587 208 588
f 588 208 589
f 589 208 210
f 589 210 590
f 590 210 212
f 590 212 591
f 591 212 214
f 591 214 592
f 592 214 216
f 592 216 593
f 594 595 218
f 218 595 596
f 218 596 216
f 216 596 597
f 216 597 593
f 218 220 594
f 594 220 222
f 594 222 598
f 598 222 224
f 598 224 599
f 599 224 600
f 600 224 226
f 600 226 601
f 601 226 228
f 601 228 602
f 602 228 230
f 602 230 603
f 603 230 130
f 603 130 604
f 604 130 132
f 604 132 605
f 605 132 606
f 606 132 134
f 606 134 607
f 607 134 136
f 607 136 608
f 608 136 138
f 608 138 609
f 609 138 140
f 609 140 610
f 142 611 140
f 140 611 612
f 140 612 610
f 148 613 146
f 146 613 614
f 146 614 144
f 144 614 615
f 144 615 142
f 142 615 616
f 142 616 611
f 554 617 158
f 158 617 618
f 158 618 156
f 156 618 619
f 156 619 154
f 154 619 620
f 154 620 152
f 152 620 621
f 152 621 150
f 150 621 622
f 150 622 148
f 148 622 623
f 148 623 613
f 624 625 626
f 626 625 627
f 626 627 628
f 628 627 629
f 628 629 630
f 630 629 631
f 630 631 632
f 632 631 633
f 632 633 634
f 634 633 635
f 634 635 636
f 636 635 637
f 636 637 638
f 638 637 639
f 638 639 640
f 640 639 641
f 640 641 642
f 642 641 643
f 642 643 644
f 644 643 645
f 644 645 646
f 646 645 647
f 646 647 648
f 648 647 649
f 648 649 650
f 650 649 651
f 650 651 652
f 652 651 653
f 652 653 654
f 654 653 655
f 654 655 656
f 656 655 657
f 656 657 658
f 658 657 659
f 658 659 660
f 660 659 661
f 660 661 662
f 662 661 663
f 662 663 664
f 664 663 665
f 664 665 666
f 666 665 667
f 666 667 668
f 668 667 669
f 668 669 670
f 670 669 671
f 670 671 624
f 624 671 625
f 672 531 673
f 673 531 530
f 673 530 674
f 674 530 675
f 675 530 537
f 675 537 676
f 676 537 536
f 676 536 677
f 677 536 535
f 677 535 678
f 678 535 534
f 678 534 679
f 679 534 533
f 679 533 680
f 680 533 532
f 680 532 681
f 681 532 238
f 681 238 682
f 682 238 237
f 682 237 683
f 683 237 315
f 683 315 684
f 684 315 314
f 684 314 685
f 685 314 313
f 685 313 686
f 686 313 310
f 686 310 687
f 687 310 309
f 687 309 688
f 688 309 505
f 688 505 689
f 689 505 506
f 689 506 690
f 690 506 507
f 690 507 691
f 691 507 520
f 691 520 692
f 692 520 519
f 692 519 693
f 693 519 518
f 693 518 694
f 694 518 516
f 694 516 695
f 695 516 515
f 695 515 696
f 696 515 513
f 696 513 697
f 697 513 511
f 697 511 698
f 698 511 510
f 698 510 699
f 699 510 509
f 699 509 672
f 672 509 508
f 672 508 531
