v -0.0228854378 -0.00499563669 0.0122872788
v -0.0228928288 -0.00498913978 0.0122881133
v -0.0228910406 -0.00500129913 0.0122813183
v -0.0228984316 -0.00499474262 0.0122820336
v -0.023277994 -0.00534551595 0.0130088526
v -0.0232630928 -0.00535934423 0.0130077797
v -0.0232689341 -0.00536518548 0.0130020577
v -0.0233010014 -0.00532024358 0.0130065877
v -0.0233068426 -0.00532596563 0.0130009848
v -0.0233230551 -0.0052961037 0.0130044419
v -0.0233215054 -0.00531100486 0.013000508
v -0.0233322342 -0.00528412317 0.0130015809
v -0.0233374794 -0.005289726 0.0129952628
v -0.0233323534 -0.00528394435 0.0130015809
v -0.0233477314 -0.00527619575 0.0129919249
v -0.0233589371 -0.00524198268 0.0129859644
v -0.0233614405 -0.00525485729 0.0129840571
v -0.0233647784 -0.00524794315 0.0129804808
v -0.0233969649 -0.00516723846 0.0129313666
v -0.0233920773 -0.00516121839 0.0129378039
v -0.0233912428 -0.00516533111 0.0129411418
v -0.0233867129 -0.00520323966 0.0129573542
v -0.0233781298 -0.00520151113 0.0129643876
v -0.0233848055 -0.00520705436 0.0129593808
v -0.023372527 -0.00521712755 0.0129745204
v -0.0233647784 -0.00523274396 0.0129825074
v -0.0233954151 -0.00514500593 0.0129249293
v -0.0234005411 -0.00515448306 0.0129221875
v -0.0233960112 -0.00512384628 0.0129043061
v -0.0234018524 -0.00512956832 0.0128984648
v -0.0233968456 -0.00509702419 0.0128781992
v -0.0234030445 -0.00510739539 0.012877484
v -0.0233952959 -0.00508772586 0.0128673512
v -0.0234006603 -0.00509368633 0.0128613907
v -0.023394223 -0.00508110975 0.0128596026
v -0.0233986338 -0.00508152698 0.0128470856
v -0.0233840903 -0.00505792354 0.0128264624
v -0.0233895739 -0.00506394361 0.0128207404
v -0.0233761032 -0.00503974412 0.0128004748
v -0.0233765801 -0.00503849242 0.0127825934
v -0.0233662089 -0.00502782319 0.0127790171
v -0.0233721693 -0.00503348563 0.0127731759
v -0.0233688315 -0.00502979015 0.0127662617
v -0.0233631094 -0.0050240681 0.012772103
v -0.0193353852 -0.00119834398 0.00744154039
v -0.0193393191 -0.00120221828 0.00743319574
v -0.0194109638 -0.00113283847 0.00744618955
v -0.0194164475 -0.00113552068 0.00743808332
v -0.0194139441 -0.00113105033 0.0074467856
v -0.0194177588 -0.00113480542 0.00743832174
v -0.0195008476 -0.00108294938 0.00745286527
v -0.0194969137 -0.00107907508 0.00746120992
v -0.0200334748 -0.00194977973 0.00815858426
v -0.0200377663 -0.00195401166 0.00815047803
v -0.0200866421 -0.00200980161 0.00821842733
v -0.0200917681 -0.00201528524 0.0082116324
v -0.0201035698 -0.00203841184 0.00824286523
v -0.0201079806 -0.00204258416 0.00823487821
v -0.0201382597 -0.00209664558 0.0082925755
v -0.0201425513 -0.00210093711 0.00828458848
v -0.0201406439 -0.00210344051 0.00829746309
v -0.0201449354 -0.00210773204 0.00828947606
v -0.0201482733 -0.00212495778 0.00831319871
v -0.0201537569 -0.00213348125 0.00830819192
v -0.020152684 -0.00215189908 0.00833024564
v -0.0201570948 -0.00215613101 0.00832225862
v -0.0201585253 -0.00218730424 0.00835253778
v -0.020162936 -0.00219552968 0.00834681573
v -0.0201586445 -0.00219850992 0.00835873666
v -0.020162936 -0.00220280145 0.00835086885
v -0.0157532652 0.00120712067 0.00529374662
v -0.0156253536 0.00136036421 0.00522126737
v -0.015750881 0.00120956446 0.00530304494
v -0.0156229695 0.0013627484 0.0052306849
v -0.00671755869 -0.0222738907 0.0280000168
v -0.00318193037 -0.0258093998 0.0280000168
v -0.00726651747 -0.0228229091 0.0278977353
v -0.00373100836 -0.0263584182 0.0278977353
v -0.00777816374 -0.0233344958 0.0275980431
v -0.00424265463 -0.0268700645 0.0275980431
v -0.00821756918 -0.0237738416 0.0271213252
v -0.00468194086 -0.0273094103 0.0271213252
v -0.00855469305 -0.0241109655 0.0265000063
v -0.00501906474 -0.0276465342 0.0265000063
v -0.00876652796 -0.0243229196 0.025776406
v -0.00523101885 -0.0278584287 0.025776406
v -0.008838888 -0.0243951604 0.0249999959
v -0.00530325968 -0.0279307291 0.0249999959
v -0.00876652796 -0.0243229196 0.0242235858
v -0.00523101885 -0.0278584287 0.0242235858
v -0.00855469305 -0.0241109655 0.0234999854
v -0.00501906474 -0.0276465342 0.0234999854
v -0.00821756918 -0.0237738416 0.0228786665
v -0.00468194086 -0.0273094103 0.0228786665
v -0.00777816374 -0.0233344958 0.0224019486
v -0.00424265463 -0.0268700645 0.0224019486
v -0.00726651747 -0.0228229091 0.0221022564
v -0.00373100836 -0.0263584182 0.0221022564
v -0.00671755869 -0.0222738907 0.0219999749
v -0.00318193037 -0.0258093998 0.0219999749
v -0.00616848071 -0.0217248127 0.0221022564
v -0.0026329716 -0.0252603814 0.0221022564
v -0.00565683443 -0.0212132261 0.0224019486
v -0.00212132532 -0.0247487352 0.0224019486
v -0.0052175482 -0.0207738802 0.0228786665
v -0.00168203909 -0.0243093893 0.0228786665
v -0.00488042433 -0.0204367564 0.0234999854
v -0.00134491522 -0.0239722655 0.0234999854
v -0.00466847021 -0.0202248022 0.0242235858
v -0.00113296111 -0.023760371 0.0242235858
v -0.00459622939 -0.0201525614 0.0249999959
v -0.00106072028 -0.0236880705 0.0249999959
v -0.00466847021 -0.0202248022 0.025776406
v -0.00113296111 -0.023760371 0.025776406
v -0.00488042433 -0.0204367564 0.0265000063
v -0.00134491522 -0.0239722655 0.0265000063
v -0.0052175482 -0.0207738802 0.0271213252
v -0.00168203909 -0.0243093893 0.0271213252
v -0.00565683443 -0.0212132261 0.0275980431
v -0.00212132532 -0.0247487352 0.0275980431
v -0.00616848071 -0.0217248127 0.0278977353
v -0.0026329716 -0.0252603814 0.0278977353
v 0.00212133329 -0.00636398052 0.00925006452
v 0.0056568424 -0.00989948962 0.00925006452
v 0.00180101793 -0.00668423627 0.00919034066
v 0.00533652704 -0.0102197454 0.00919034066
v 0.00150263708 -0.00698267673 0.00901557985
v 0.00503814619 -0.0105181858 0.00901557985
v 0.0012463371 -0.0072389767 0.00873746457
v 0.00478184621 -0.0107744858 0.00873746457
v 0.00104964178 -0.00743561242 0.00837494912
v 0.00458515089 -0.0109711215 0.00837494912
v 0.000926021744 -0.00755923246 0.00795294824
v 0.00446153085 -0.0110947416 0.00795294824
v 0.000883940865 -0.00760137294 0.00749995294
v 0.00441944997 -0.0111369417 0.00749995294
v 0.000926021744 -0.00755923246 0.00704707685
v 0.00446153085 -0.0110947416 0.00704707685
v 0.00104964178 -0.00743561242 0.00662495675
v 0.00458515089 -0.0109711215 0.00662495675
v 0.0012463371 -0.0072389767 0.00626256051
v 0.00478184621 -0.0107744858 0.00626256051
v 0.00150263708 -0.00698267673 0.00598444524
v 0.00503814619 -0.0105181858 0.00598444524
v 0.00180101793 -0.00668423627 0.00580968442
v 0.00533652704 -0.0102197454 0.00580968442
v 0.00212133329 -0.00636398052 0.00574996057
v 0.0056568424 -0.00989948962 0.00574996057
v 0.00244164865 -0.00604366515 0.00580968442
v 0.00597715776 -0.00957923387 0.00580968442
v 0.0027400295 -0.0057452247 0.00598444524
v 0.00627553861 -0.00928079341 0.00598444524
v 0.00299632948 -0.00548898433 0.00626256051
v 0.00653183859 -0.00902449344 0.00626256051
v 0.0031930248 -0.005292289 0.00662495675
v 0.00672853391 -0.00882785772 0.00662495675
v 0.00331664484 -0.00516866897 0.00704707685
v 0.00685215395 -0.00870423768 0.00704707685
v 0.00335872572 -0.00512652849 0.00749995294
v 0.00689423483 -0.00866203759 0.00749995294
v 0.00331664484 -0.00516866897 0.00795294824
v 0.00685215395 -0.00870423768 0.00795294824
v 0.0031930248 -0.005292289 0.00837494912
v 0.00672853391 -0.00882785772 0.00837494912
v 0.00299632948 -0.00548898433 0.00873746457
v 0.00653183859 -0.00902449344 0.00873746457
v 0.0027400295 -0.0057452247 0.00901557985
v 0.00627553861 -0.00928079341 0.00901557985
v 0.00244164865 -0.00604366515 0.00919034066
v 0.00597715776 -0.00957923387 0.00919034066
f 1 2 3
f 3 2 4
f 5 6 7
f 5 7 8
f 8 7 9
f 8 9 10
f 10 9 11
f 10 11 12
f 12 11 13
f 12 13 14
f 14 13 15
f 14 15 16
f 16 15 17
f 16 17 18
f 19 20 21
f 19 21 22
f 22 21 23
f 22 23 24
f 24 23 25
f 24 25 18
f 18 25 26
f 18 26 16
f 20 19 27
f 27 19 28
f 27 28 29
f 29 28 30
f 29 30 31
f 31 30 32
f 31 32 33
f 33 32 34
f 33 34 35
f 35 34 36
f 35 36 37
f 37 36 38
f 37 38 39
f 39 38 40
f 39 40 41
f 40 42 41
f 41 42 43
f 41 43 44
f 45 46 47
f 47 46 48
f 47 48 49
f 48 50 49
f 49 50 51
f 49 51 52
f 53 54 55
f 55 54 56
f 55 56 57
f 57 56 58
f 57 58 59
f 59 58 60
f 59 60 61
f 61 60 62
f 61 62 63
f 63 62 64
f 63 64 65
f 65 64 66
f 65 66 67
f 67 66 68
f 67 68 69
f 69 68 70
f 71 72 73
f 73 72 74
f 75 76 77
f 77 76 78
f 77 78 79
f 79 78 80
f 79 80 81
f 81 80 82
f 81 82 83
f 83 82 84
f 83 84 85
f 85 84 86
f 85 86 87
f 87 86 88
f 87 88 89
f 89 88 90
f 89 90 91
f 91 90 92
f 91 92 93
f 93 92 94
f 93 94 95
f 95 94 96
f 95 96 97
f 97 96 98
f 97 98 99
f 99 98 100
f 99 100 101
f 101 100 102
f 101 102 103
f 103 102 104
f 103 104 105
f 105 104 106
f 105 106 107
f 107 106 108
f 107 108 109
f 109 108 110
f 109 110 111
f 111 110 112
f 111 112 113
f 113 112 114
f 113 114 115
f 115 114 116
f 115 116 117
f 117 116 118
f 117 118 119
f 119 118 120
f 119 120 121
f 121 120 122
f 121 122 75
f 75 122 76
f 123 124 125
f 125 124 126
f 125 126 127
f 127 126 128
f 127 128 129
f 129 128 130
f 129 130 131
f 131 130 132
f 131 132 133
f 133 132 134
f 133 134 135
f 135 134 136
f 135 136 137
f 137 136 138
f 137 138 139
f 139 138 140
f 139 140 141
f 141 140 142
f 141 142 143
f 143 142 144
f 143 144 145
f 145 144 146
f 145 146 147
f 147 146 148
f 147 148 149
f 149 148 150
f 149 150 151
f 151 150 152
f 151 152 153
f 153 152 154
f 153 154 155
f 155 154 156
f 155 156 157
f 157 156 158
f 157 158 159
f 159 158 160
f 159 160 161
f 161 160 162
f 161 162 163
f 163 162 164
f 163 164 165
f 165 164 166
f 165 166 167
f 167 166 168
f 167 168 169
f 169 168 170
f 169 170 123
f 123 170 124
