v -0.0234527548 -0.00600367044 0.0138845641
v -0.0238727291 -0.00642370437 0.014899512
v -0.0234466751 -0.00599765037 0.0138898093
v -0.0238665303 -0.00641750549 0.0149042803
v -0.0236628016 -0.00482153152 0.0128512579
v -0.0236717423 -0.00483303521 0.0128718812
v -0.0236569603 -0.00481574987 0.0128570992
v -0.0236660202 -0.00482725356 0.0128776032
v -0.0236927231 -0.00486146663 0.0129386384
v -0.0236990412 -0.00486826156 0.0129345852
v -0.0237028559 -0.00488900398 0.0129769045
v -0.0237086972 -0.00489478563 0.0129711825
v -0.023724552 -0.00494825099 0.0130591589
v -0.0237306317 -0.00495516513 0.0130548674
v -0.023725148 -0.00495319818 0.013064881
v -0.0237309893 -0.00495897983 0.0130591589
v -0.0237292011 -0.00499128555 0.013108154
v -0.0237350424 -0.00499825929 0.0131037432
v -0.023726817 -0.00502931331 0.0131448704
v -0.0237314661 -0.0050356314 0.0131385523
v -0.0237250288 -0.00510036205 0.0131989914
v -0.0237243136 -0.00506787751 0.0131821829
v -0.0237207373 -0.00511568044 0.0132104355
v -0.0237125118 -0.00511043523 0.0132143694
v -0.0237079819 -0.00516038392 0.0132439333
v -0.0236946305 -0.00517540429 0.0132634837
v -0.0236896237 -0.00520163034 0.0132678944
v -0.0236859282 -0.00519555066 0.0132755238
v -0.0236737688 -0.00522398208 0.0132925707
v -0.0236594637 -0.0052691624 0.0133072335
v -0.0236399134 -0.00528251384 0.0133185584
v -0.0236473044 -0.0052884147 0.0133146245
v -0.0236103495 -0.00533347581 0.0133413273
v -0.0236030777 -0.00535827134 0.0133418042
v -0.0235826929 -0.00537150358 0.0133522946
v -0.0235876997 -0.00537680839 0.013345142
v -0.0235754212 -0.00538157676 0.0133551556
v -0.0235218962 -0.00545620178 0.0133595664
v -0.0235147436 -0.00544934724 0.013362785
v -0.0235136708 -0.00546615575 0.0133613545
v -0.0234777888 -0.00549065326 0.0133674342
v -0.0234446486 -0.00553309177 0.0133592087
v -0.0234388073 -0.00552719091 0.0133648116
f 1 2 3
f 3 2 4
f 5 6 7
f 7 6 8
f 8 6 9
f 9 6 10
f 9 10 11
f 11 10 12
f 11 12 13
f 13 12 14
f 13 14 15
f 15 14 16
f 15 16 17
f 17 16 18
f 17 18 19
f 18 20 19
f 19 20 21
f 19 21 22
f 22 21 23
f 22 23 24
f 24 23 25
f 24 25 26
f 26 25 27
f 26 27 28
f 28 27 29
f 29 27 30
f 29 30 31
f 31 30 32
f 31 32 33
f 33 32 34
f 33 34 35
f 35 34 36
f 35 36 37
f 37 36 38
f 37 38 39
f 39 38 40
f 39 40 41
f 41 40 42
f 41 42 43
