v -0.00454818293 0.0224507927 0.0114909549
v -0.0046337752 0.0223018407 0.0114377876
v -0.00496219679 0.0221784591 0.0116111179
v -0.00438975378 0.0232289313 0.0120307346
v -0.00421153589 0.0230507134 0.0117159028
v -0.00444578215 0.0226306199 0.01155652
v -0.00451683088 0.02147727 0.0106871267
v -0.00437675997 0.0215377687 0.010626926
v -0.00442599341 0.0213864325 0.0105503936
v -0.00442408606 0.021384406 0.0105474134
v -0.0037586598 0.0225978373 0.0109676261
v -0.00380527064 0.0224678992 0.0109021802
v -0.00410675093 0.0223280667 0.0110294958
v -0.0038061051 0.0224654554 0.0109009881
v -0.00413559958 0.0222543954 0.0109939714
v -0.00392912909 0.0221167086 0.010726585
v -0.00416683241 0.0221677302 0.0109503408
v -0.00420486017 0.0220582365 0.0108943124
v -0.00397228285 0.0219941615 0.0106661458
v -0.00425254389 0.0219150065 0.0108201642
v -0.00513731524 0.0220976948 0.0116922994
v -0.00489234015 0.0218527197 0.0112799545
v -0.00452446028 0.0220742105 0.0111607452
v -0.00457512423 0.0223414778 0.0114218135
v -0.00445555731 0.0221151589 0.0111382146
v -0.00391732737 0.0227565049 0.0112217803
v -0.00404154345 0.0226783632 0.0112593313
v -0.00431989714 0.0225046753 0.0113454004
v -0.00424968287 0.0222392558 0.0110726495
v -0.00442515894 0.0224386333 0.0113779445
v -0.00450824782 0.0223855852 0.0114028593
v -0.00394510313 0.0218490242 0.0105366846
v -0.00394116923 0.0214909195 0.0102716823
v -0.00400733038 0.0217915653 0.0105402608
v -0.00406681582 0.0217349409 0.0105424066
v -0.00344740435 0.0222865819 0.0104921003
v -0.00324558302 0.022084701 0.0101988454
v -0.00379692598 0.0219817041 0.0105251213
v -0.00387572333 0.0219111322 0.0105313201
v -0.00400768801 0.0218934296 0.0106167932
v -0.0040383248 0.0218089103 0.0105763813
v -0.00425898119 0.0212193607 0.0103050609
v -0.00380002543 0.022462654 0.010908856
v -0.00380085989 0.0224602102 0.0109076639
v 0.0112707706 0.0170134782 0.00856067137
v -0.00711392447 -0.00137133609 0.00856067137
v 0.0111022087 0.0171820401 0.00825001196
v -0.0072824864 -0.00120277416 0.00825001196
v 0.0109963508 0.0172879576 0.00788821177
v -0.00738846346 -0.0010967971 0.00788821177
v 0.0109601112 0.0173241376 0.00749994712
v -0.00742458388 -0.00106067668 0.00749994712
v 0.0109963508 0.0172879576 0.00711180167
v -0.00738846346 -0.0010967971 0.00711180167
v 0.0111022087 0.0171820401 0.00675000147
v -0.0072824864 -0.00120277416 0.00675000147
v 0.0112707706 0.0170134782 0.00643934207
v -0.00711392447 -0.00137133609 0.00643934207
v 0.0114904733 0.0167937754 0.00620092349
v -0.00689434096 -0.00159097921 0.00620092349
v 0.0117462964 0.0165379523 0.00605107741
v -0.00663851782 -0.00184680234 0.00605107741
v 0.0120208354 0.0162634729 0.00600005583
v -0.00636397883 -0.00212134134 0.00600005583
v 0.0122953744 0.0159889339 0.00605107741
v -0.00608943983 -0.00239582073 0.00605107741
v 0.0125511976 0.0157331108 0.00620092349
v -0.0058336167 -0.00265164386 0.00620092349
v 0.0127707811 0.0155134677 0.00643934207
v -0.00561391398 -0.00287134658 0.00643934207
v 0.012939343 0.0153449057 0.00675000147
v -0.00544535204 -0.00303990852 0.00675000147
v 0.0130453201 0.0152389287 0.00711180167
v -0.00533949419 -0.00314582597 0.00711180167
v 0.0130814405 0.0152028083 0.00749994712
v -0.00530325457 -0.00318200599 0.00749994712
v 0.0130453201 0.0152389287 0.00788821177
v -0.00533949419 -0.00314582597 0.00788821177
v 0.012939343 0.0153449057 0.00825001196
v -0.00544535204 -0.00303990852 0.00825001196
v 0.0127707811 0.0155134677 0.00856067137
v -0.00561391398 -0.00287134658 0.00856067137
v 0.0125511976 0.0157331108 0.00879908995
v -0.0058336167 -0.00265164386 0.00879908995
v 0.0122953744 0.0159889339 0.00894893603
v -0.00608943983 -0.00239582073 0.00894893603
v 0.0120208354 0.0162634729 0.00899995761
v -0.00636397883 -0.00212134134 0.00899995761
v 0.0117462964 0.0165379523 0.00894893603
v -0.00663851782 -0.00184680234 0.00894893603
v 0.0114904733 0.0167937754 0.00879908995
v -0.00689434096 -0.00159097921 0.00879908995
f 1 2 3
f 4 5 3
f 3 5 6
f 3 6 1
f 7 8 9
f 9 8 10
f 11 12 13
f 13 12 14
f 13 14 15
f 15 14 16
f 15 16 17
f 17 16 18
f 18 16 19
f 18 19 20
f 21 3 22
f 22 3 2
f 22 2 23
f 23 2 24
f 23 24 25
f 26 11 27
f 27 11 13
f 27 13 28
f 28 13 29
f 28 29 30
f 30 29 25
f 30 25 31
f 31 25 24
f 32 33 34
f 34 33 35
f 36 37 38
f 38 37 33
f 38 33 39
f 39 33 32
f 19 40 20
f 20 40 41
f 20 41 8
f 8 41 35
f 8 35 10
f 10 35 33
f 10 33 42
f 12 43 14
f 14 43 44
f 45 46 47
f 47 46 48
f 47 48 49
f 49 48 50
f 49 50 51
f 51 50 52
f 51 52 53
f 53 52 54
f 53 54 55
f 55 54 56
f 55 56 57
f 57 56 58
f 57 58 59
f 59 58 60
f 59 60 61
f 61 60 62
f 61 62 63
f 63 62 64
f 63 64 65
f 65 64 66
f 65 66 67
f 67 66 68
f 67 68 69
f 69 68 70
f 69 70 71
f 71 70 72
f 71 72 73
f 73 72 74
f 73 74 75
f 75 74 76
f 75 76 77
f 77 76 78
f 77 78 79
f 79 78 80
f 79 80 81
f 81 80 82
f 81 82 83
f 83 82 84
f 83 84 85
f 85 84 86
f 85 86 87
f 87 86 88
f 87 88 89
f 89 88 90
f 89 90 91
f 91 90 92
f 91 92 45
f 45 92 46
