v 0.00530325149 0.00106060761 0.0383999487
v 0.00634216045 -0.000685331647 0.0377488275
v 0.00674973701 -0.000385758703 0.03824295
v 0.00770198082 -0.0020450328 0.0372988124
v 0.00816212868 -0.00179826957 0.0377755304
v 0.00899718975 -0.00334036094 0.0365605493
v 0.00950764393 -0.00314366562 0.037008657
v 0.0101976273 -0.00454079849 0.0355513235
v 0.0107545731 -0.00439059479 0.0359602113
v 0.0112750409 -0.00561821205 0.0342947384
v 0.0118737099 -0.0055097316 0.0346549888
v 0.0122041581 -0.00654732925 0.0328203579
v 0.0128388283 -0.00647496921 0.0331233879
v 0.0129632828 -0.00730645401 0.0311626335
v 0.0136273978 -0.00726341945 0.0314014097
v 0.0135345337 -0.00787770492 0.0293604274
v 0.0142208216 -0.0078568433 0.0295294662
v 0.0139045594 -0.00824773056 0.027456059
v 0.0146052716 -0.00824129326 0.0275511881
v 0.0140647766 -0.00840782863 0.0254941126
v 0.0147715685 -0.00840759022 0.0255133052
v 0.0140112517 -0.00835442287 0.0235206028
v 0.014716017 -0.00835203869 0.0234632631
v 0.013745415 -0.00808846695 0.0215817829
v 0.0144398091 -0.00807583076 0.0214492221
v 0.0132733462 -0.00761639816 0.0197230716
v 0.0139495013 -0.00758552295 0.0195185085
v 0.0126061318 -0.00694930298 0.0179879804
v 0.0132565377 -0.00689255935 0.0177161832
v 0.0117595074 -0.0061026786 0.0164172788
v 0.0123770115 -0.00601315243 0.0160846849
v 0.010753381 -0.00509643299 0.0150478025
v 0.0113319037 -0.00496792537 0.0146620412
v 0.00961111759 -0.00395428879 0.0139114996
v 0.0101452944 -0.00378131611 0.0134817501
v 0.00835953926 -0.00270271045 0.0130351921
v 0.00884531711 -0.0024813388 0.0125714679
v 0.00702820991 -0.0013712619 0.012439384
v 0.00746225094 -0.00109827263 0.0119525333
v 0.00564800476 8.82404584e-06 0.0121379037
v 0.00602864002 0.00033533829 0.0116393705
v 0.00425146793 0.00140536087 0.0121379037
v 0.00457798218 0.00178599613 0.0116393705
v 0.00287138199 0.00278556603 0.012439384
v 0.00314437126 0.00321960705 0.0119525333
v 0.00153993343 0.00411689537 0.0130351921
v 0.00176130508 0.00460267323 0.0125714679
v 0.000288355101 0.0053684737 0.0139114996
v 0.00046132778 0.00590265053 0.0134817501
v -0.000853908312 0.00651073712 0.0150478025
v -0.000725281488 0.0070892598 0.0146620412
v -0.00186003472 0.00751698273 0.0164172788
v -0.00177050854 0.00813436764 0.0160846849
v -0.00270665909 0.00836348789 0.0179879804
v -0.00264991547 0.00901389378 0.0177161832
v -0.00337387348 0.00903070229 0.0197230716
v -0.00334287907 0.00970685738 0.0195185085
v -0.00384582306 0.00950277107 0.0215817829
v -0.00383318688 0.0101971652 0.0214492221
v -0.00411177899 0.00976860779 0.0235206028
v -0.0041093948 0.0104733731 0.0234632631
v -0.00416518475 0.00982213276 0.0254941126
v -0.00416494633 0.0105289246 0.0255133052
v -0.00400508667 0.00966191548 0.027456059
v -0.00399864937 0.0103626277 0.0275511881
v -0.00363506104 0.00929188984 0.0293604274
v -0.00361419941 0.00997817772 0.0295294662
v -0.00306381012 0.00872063893 0.0311626335
v -0.00302077557 0.00938475388 0.0314014097
v -0.00230468537 0.00796151417 0.0328203579
v -0.00223232533 0.00859618443 0.0331233879
v -0.00137556816 0.00703239697 0.0342947384
v -0.00126708771 0.00763106602 0.0346549888
v -0.000298154604 0.00595498341 0.0355513235
v -0.000147950899 0.00651192921 0.0359602113
v 0.000902282942 0.00475454586 0.0365605493
v 0.00109897827 0.00526500004 0.037008657
v 0.00219749187 0.00345933693 0.0372988124
v 0.00244437431 0.00391948479 0.0377755304
v 0.00355731224 0.00209951657 0.0377488275
v 0.00385688518 0.00250709313 0.03824295
v 0.00494979595 0.000707152064 0.0378999849
f 1 2 3
f 3 2 4
f 3 4 5
f 5 4 6
f 5 6 7
f 7 6 8
f 7 8 9
f 9 8 10
f 9 10 11
f 11 10 12
f 11 12 13
f 13 12 14
f 13 14 15
f 15 14 16
f 15 16 17
f 17 16 18
f 17 18 19
f 19 18 20
f 19 20 21
f 21 20 22
f 21 22 23
f 23 22 24
f 23 24 25
f 25 24 26
f 25 26 27
f 27 26 28
f 27 28 29
f 29 28 30
f 29 30 31
f 31 30 32
f 31 32 33
f 33 32 34
f 33 34 35
f 35 34 36
f 35 36 37
f 37 36 38
f 37 38 39
f 39 38 40
f 39 40 41
f 41 40 42
f 41 42 43
f 43 42 44
f 43 44 45
f 45 44 46
f 45 46 47
f 47 46 48
f 47 48 49
f 49 48 50
f 49 50 51
f 51 50 52
f 51 52 53
f 53 52 54
f 53 54 55
f 55 54 56
f 55 56 57
f 57 56 58
f 57 58 59
f 59 58 60
f 59 60 61
f 61 60 62
f 61 62 63
f 63 62 64
f 63 64 65
f 65 64 66
f 65 66 67
f 67 66 68
f 67 68 69
f 69 68 70
f 69 70 71
f 71 70 72
f 71 72 73
f 73 72 74
f 73 74 75
f 75 74 76
f 75 76 77
f 77 76 78
f 77 78 79
f 79 78 80
f 79 80 81
f 81 80 82
f 81 82 1
f 1 82 2
