v 0.024426213 0.00746582402 0.0173072954
v 0.0244195373 0.0074591483 0.0173109909
v 0.0246975334 0.00773714436 0.018364801
v 0.0246908576 0.00773046864 0.0183680196
v 0.0231912048 0.00623081578 0.0138458152
v 0.0231852443 0.00622485531 0.0138510605
v 0.0236084373 0.00664804829 0.0148482462
v 0.0236022384 0.00664184941 0.0148531337
v 0.0196212442 0.00153754605 0.00772751767
v 0.0200377614 0.00195406331 0.00815047222
v 0.0196173103 0.00153361214 0.00773574311
v 0.0200334699 0.00194977177 0.00815857846
v 0.0188045413 -3.4586062e-05 0.00668395954
v 0.0188079984 -3.11289926e-05 0.00667513806
v 0.0183613212 5.11063142e-06 0.0065268417
v 0.0183646591 8.56770081e-06 0.00651802021
v 0.0175940902 0.00593350781 0.00901664692
v 0.017589441 0.00592897786 0.00902427632
v 0.0177105577 0.0060500945 0.00917197663
v 0.0178160579 0.00615559472 0.00928999382
v 0.0187742622 0.00711367978 0.0106215616
v 0.0187793882 0.00711892499 0.0106146474
f 1 2 3
f 3 2 4
f 5 6 7
f 7 6 8
f 9 10 11
f 11 10 12
f 13 14 15
f 15 14 16
f 17 18 19
f 17 19 20
f 20 19 21
f 20 21 22
