v -0.00119840189 0.0193354367 0.00744153456
v -0.00120221659 0.019339311 0.00743318991
v -0.00113283678 0.0194110154 0.00744618373
v -0.0011355786 0.019416499 0.00743807749
v -0.00113104864 0.0194138764 0.00744677977
v -0.00113474413 0.0194176911 0.00743831591
v -0.0010830073 0.0195008396 0.00745285945
v -0.00107907339 0.0194969653 0.0074612041
v -0.00103866144 0.0196798323 0.00751592116
v -0.00104152247 0.0197047471 0.00752903418
v -0.00103472754 0.0196758984 0.00752426581
v -0.00103758856 0.0197008132 0.00753737883
v -0.00104497954 0.0197661995 0.00757183032
v -0.00104891344 0.0197701334 0.00756348567
v -0.00104843661 0.019775915 0.0075780292
v -0.00105237051 0.0197798489 0.00756980376
v -0.00108455702 0.0198716997 0.00762905078
v -0.0010805039 0.0198677062 0.00763739543
v -0.00114964529 0.0199679016 0.0077076097
v -0.00123356863 0.0200727462 0.00780011611
v -0.00122951552 0.0200686931 0.00780834155
v -0.00118671938 0.0200225591 0.00775219397
v -0.00118266627 0.0200184463 0.0077603002
v -0.00114559218 0.0199638485 0.00771583514
v 0.00218702272 0.0162870764 0.00519050555
v 0.00218463854 0.0162894009 0.00518108801
v 0.00250352339 0.0163356541 0.00512482123
v 0.00250125841 0.0163379191 0.0051154037
v 0.00213468984 0.0167044877 0.00529993968
v 0.00213707403 0.0167020439 0.005309238
f 1 2 3
f 3 2 4
f 3 4 5
f 4 6 5
f 5 6 7
f 5 7 8
f 9 10 11
f 11 10 12
f 12 10 13
f 13 10 14
f 13 14 15
f 14 16 15
f 15 16 17
f 15 17 18
f 18 17 19
f 20 21 22
f 22 21 23
f 22 23 19
f 19 23 24
f 19 24 18
f 25 26 27
f 27 26 28
f 28 29 27
f 27 29 30
