v 0.00588523125 -0.0235813831 0.0139150758
v 0.00589119171 -0.0235873435 0.0139098306
v 0.00588320469 -0.0235744689 0.0138858696
v 0.00587319111 -0.0235370372 0.0138322254
v 0.00586711143 -0.0235310767 0.0138375898
v 0.00587319111 -0.0235402558 0.0138359209
v 0.00586711143 -0.0235342954 0.0138412853
v 0.00587605213 -0.023557422 0.0138585706
v 0.00587009167 -0.0235514615 0.0138639351
v 0.00587736343 -0.0235650514 0.0138687034
v 0.00587128376 -0.0235590909 0.0138739486
v 0.00587712501 -0.0235683892 0.013891234
v 0.00596665119 -0.0234367822 0.0138247152
v 0.0059732077 -0.0234383319 0.0138337751
v 0.00596069073 -0.0234308217 0.0138300796
v 0.00596712803 -0.0234322522 0.0138390203
v 0.0059809563 -0.0234354709 0.013858213
v 0.00598691677 -0.0234415506 0.0138529678
v 0.00598274444 -0.0234367822 0.0138616701
v 0.00598870491 -0.0234427427 0.0138563057
v 0.00600372528 -0.0234527562 0.0138845583
v 0.00599764561 -0.0234466766 0.0138898035
f 1 2 3
f 4 5 6
f 6 5 7
f 6 7 8
f 8 7 9
f 8 9 10
f 10 9 11
f 10 11 3
f 3 11 12
f 3 12 1
f 13 14 15
f 15 14 16
f 16 14 17
f 17 14 18
f 17 18 19
f 18 20 19
f 19 20 21
f 19 21 22
