v -0.0148491948 0.0190918292 0.0380000015
v -0.00919235636 0.0134349908 0.0380000015
v -0.0164027302 0.0175384129 0.0378129621
v -0.0107458918 0.0118814553 0.0378129621
v -0.0179115622 0.016029581 0.0372574468
v -0.0122547238 0.0103726233 0.0372574468
v -0.0193322985 0.0146088446 0.0363491912
v -0.0136754601 0.00895200623 0.0363491912
v -0.0206240504 0.0133170928 0.0351144214
v -0.014967212 0.00766013516 0.0351144214
v -0.0217497437 0.0121913995 0.0335887809
v -0.0160929053 0.00653456105 0.0335887809
v -0.0226768344 0.0112643088 0.0318160196
v -0.0170199959 0.0056074704 0.0318160196
v -0.0233787387 0.0105624045 0.029847159
v -0.0177219002 0.00490556611 0.029847159
v -0.0238353102 0.0101058329 0.0277388235
v -0.0181784718 0.00444899453 0.0277388235
v -0.0240333169 0.00990782631 0.0255516906
v -0.0183764784 0.00425086869 0.0255516906
v -0.0240167468 0.00992439641 0.02499999
v -0.0183599084 0.00426743878 0.02499999
v -0.0239671557 0.00997398747 0.0233488222
v -0.0183103173 0.00431714905 0.0233488222
v -0.0236387341 0.0103024091 0.0211932798
v -0.0179818957 0.00464557065 0.0211932798
v -0.0230573504 0.0108837928 0.01914741
v -0.017400512 0.00522695435 0.01914741
v -0.0222399323 0.0117012109 0.0172697445
v -0.0165830939 0.00604437245 0.0172697445
v -0.0212098448 0.0127312983 0.0156145235
v -0.0155530064 0.00707445992 0.0156145235
v -0.0199967711 0.0139443721 0.0142294307
v -0.0143399327 0.00828753365 0.0142294307
v -0.0186356394 0.0153055037 0.0131540437
v -0.012978801 0.00964866532 0.0131540437
v -0.0171655505 0.0167755927 0.0124194761
v -0.0115087121 0.0111187543 0.0124194761
v -0.0156288235 0.0183123196 0.0120468279
v -0.00997198512 0.0126554812 0.0120468279
v -0.0148491948 0.0190918292 0.0119999786
v -0.00919235636 0.0134349908 0.0120468279
v -0.0140696852 0.0198714579 0.0120468279
v -0.00841284682 0.0142146195 0.0120468279
v -0.0125329583 0.0214081849 0.0124194761
v -0.00687611987 0.0157513465 0.0124194761
v -0.0110628693 0.0228782739 0.0131540437
v -0.00540603091 0.0172214354 0.0131540437
v -0.00970173766 0.0242394055 0.0142294307
v -0.00404489924 0.0185825671 0.0142294307
v -0.00848866393 0.0254524793 0.0156145235
v -0.00283182551 0.0197956408 0.0156145235
v -0.00745857646 0.0264825667 0.0172697445
v -0.00180173804 0.0208257283 0.0172697445
v -0.00664115836 0.0272999848 0.01914741
v -0.000984319942 0.0216431464 0.01914741
v -0.00605977465 0.0278813685 0.0211932798
v -0.000402936236 0.0222245301 0.0211932798
v -0.00573135306 0.0282097901 0.0233488222
v -7.43954345e-05 0.0225529517 0.0233488222
v -0.005681762 0.0282593812 0.02499999
v -2.480437e-05 0.0226025428 0.02499999
v -0.00566519191 0.0282759513 0.0255516906
v -8.23427876e-06 0.0226191129 0.0255516906
v -0.00586319854 0.0280779446 0.0277388235
v -0.000206360118 0.0224211062 0.0277388235
v -0.00631977011 0.0276213731 0.029847159
v -0.000662812488 0.0219645347 0.029847159
v -0.00702167441 0.0269194688 0.0318160196
v -0.00136483599 0.0212626304 0.0318160196
v -0.00794876506 0.0259923781 0.0335887809
v -0.00229192664 0.0203355397 0.0335887809
v -0.00907445838 0.0248666848 0.0351144214
v -0.00341750075 0.0192098464 0.0351144214
v -0.0103662102 0.0235749329 0.0363491912
v -0.00470925261 0.0179180945 0.0363491912
v -0.0117869466 0.0221541966 0.0372574468
v -0.00612998893 0.0164973582 0.0372574468
v -0.0132957785 0.0206453647 0.0378129621
v -0.0076388209 0.0149885262 0.0378129621
v -0.0235992758 0.0103418673 0.0146756311
v -0.0179424374 0.00468502892 0.0146756311
v -0.0239744275 0.0099667157 0.0146057745
v -0.0183175891 0.00430987729 0.0146057745
v -0.0243240683 0.00961707486 0.0144009729
v -0.0186672299 0.00396023644 0.0144009729
v -0.0246242373 0.00931690587 0.0140751739
v -0.0189673989 0.00366006745 0.0140751739
v -0.0248545497 0.00908647431 0.0136506696
v -0.0191977112 0.00342963589 0.0136506696
v -0.0249993889 0.00894175423 0.0131561895
v -0.0193425505 0.00328479661 0.0131561895
v -0.0250488608 0.00889228238 0.012625589
v -0.0193919032 0.00323544396 0.012625589
v -0.0249993889 0.00894175423 0.0120951076
v -0.0193425505 0.00328479661 0.0120951076
v -0.0248545497 0.00908647431 0.0116006275
v -0.0191977112 0.00342963589 0.0116006275
v -0.0246242373 0.00931690587 0.011176004
v -0.0189673989 0.00366006745 0.011176004
v -0.0243240683 0.00961707486 0.0108503242
v -0.0186672299 0.00396023644 0.0108503242
v -0.0239744275 0.0099667157 0.0106455227
v -0.0183175891 0.00430987729 0.0106455227
v -0.0235992758 0.0103418673 0.010575666
v -0.0179424374 0.00468502892 0.010575666
v -0.0232241242 0.010717019 0.0106455227
v -0.0175671666 0.00506018055 0.0106455227
v -0.0228744834 0.0110666598 0.0108503242
v -0.0172176449 0.0054098214 0.0108503242
v -0.0225741952 0.0113668288 0.011176004
v -0.0169173567 0.00570999039 0.011176004
v -0.0223438828 0.0115972604 0.0116006275
v -0.0166870444 0.00594042195 0.0116006275
v -0.0221990435 0.0117420997 0.0120951076
v -0.0165422051 0.00608526124 0.0120951076
v -0.0221496909 0.0117914523 0.012625589
v -0.0164928525 0.00613461388 0.012625589
v -0.0221990435 0.0117420997 0.0131561895
v -0.0165422051 0.00608526124 0.0131561895
v -0.0223438828 0.0115972604 0.0136506696
v -0.0166870444 0.00594042195 0.0136506696
v -0.0225741952 0.0113668288 0.0140751739
v -0.0169173567 0.00570999039 0.0140751739
v -0.0228744834 0.0110666598 0.0144009729
v -0.0172176449 0.0054098214 0.0144009729
v -0.0232241242 0.010717019 0.0146057745
v -0.0175671666 0.00506018055 0.0146057745
v -0.0314662545 0.00247488869 -0.00800000232
v -0.0198990195 0.0140421237 -0.00800000232
v -0.0314662545 0.00247488869 0.02499999
v -0.0189499943 0.0149911488 -0.00685332817
v -0.0178731768 0.0160679664 -0.0059605698
v -0.016702184 0.0172389592 -0.00534938377
v -0.0154733746 0.0184677686 -0.00503908199
v -0.0148491948 0.0190918292 -0.00503908199
v -0.0232241242 0.010717019 0.0393544574
v -0.0235992758 0.0103418673 0.0394243141
v -0.0198990195 0.0140421237 0.0579999824
v -0.0314662545 0.00247488869 0.0579999824
v -0.0239744275 0.0099667157 0.0393544574
v -0.0243240683 0.00961707486 0.0391497751
v -0.0249993889 0.00894175423 0.0379049917
v -0.0250488608 0.00889228238 0.0373743911
v -0.0249993889 0.00894175423 0.0368437906
v -0.0248545497 0.00908647431 0.0363493105
v -0.0246242373 0.00931690587 0.0359248062
v -0.0243240683 0.00961707486 0.0355990072
v -0.0239744275 0.0099667157 0.0353942056
v -0.0235992758 0.0103418673 0.035324349
v -0.0232241242 0.010717019 0.0353942056
v -0.0246242373 0.00931690587 0.0388239761
v -0.0248545497 0.00908647431 0.0383993526
v -0.0189499943 0.0149911488 0.0568533083
v -0.0178731768 0.0160679664 0.0559605499
v -0.0228744834 0.0110666598 0.0391497751
v -0.016702184 0.0172389592 0.0553493639
v -0.0225741952 0.0113668288 0.0388239761
v -0.0154733746 0.0184677686 0.0550390621
v -0.0148491948 0.0190918292 0.0550390621
v -0.0228744834 0.0110666598 0.0355990072
v -0.0225741952 0.0113668288 0.0359248062
v -0.0223438828 0.0115972604 0.0363493105
v -0.0221990435 0.0117420997 0.0368437906
v -0.0221990435 0.0117420997 0.0379049917
v -0.0223438828 0.0115972604 0.0383993526
v -0.0221496909 0.0117914523 0.0373743911
v -0.0107485144 0.0231926288 0.0568533083
v -0.00979948928 0.0241416539 0.0579999824
v -0.00647438456 0.0274667586 0.0393544574
v -0.00735462596 0.0265865172 0.0363493105
v 0.00176774572 0.0357088889 0.02499999
v -0.00749946524 0.0264416779 0.0368437906
v -0.00754881789 0.0263923253 0.0373743911
v -0.00749946524 0.0264416779 0.0379049917
v 0.00176774572 0.0357088889 0.0579999824
v -0.0048438399 0.0290973033 0.0383993526
v -0.00507427146 0.0288668717 0.0388239761
v -0.00537444045 0.0285667027 0.0391497751
v -0.00572408129 0.0282170619 0.0393544574
v -0.00609923293 0.0278419103 0.0394243141
v -0.00735462596 0.0265865172 0.0383993526
v -0.0071241944 0.0268168296 0.0388239761
v -0.0142251342 0.019716009 0.0550390621
v -0.00682402541 0.0271171178 0.0391497751
v -0.0129963248 0.0209448184 0.0553493639
v -0.0118253319 0.0221158112 0.0559605499
v -0.0071241944 0.0268168296 0.0359248062
v -0.00682402541 0.0271171178 0.0355990072
v -0.00647438456 0.0274667586 0.0353942056
v -0.00609923293 0.0278419103 0.035324349
v -0.00572408129 0.0282170619 0.0353942056
v -0.00537444045 0.0285667027 0.0355990072
v -0.00507427146 0.0288668717 0.0359248062
v -0.0048438399 0.0290973033 0.0363493105
v -0.00469911982 0.0292420234 0.0368437906
v -0.00464964797 0.0292914952 0.0373743911
v -0.00469911982 0.0292420234 0.0379049917
v -0.00647438456 0.0274667586 0.0106455227
v -0.00609923293 0.0278419103 0.010575666
v -0.00979948928 0.0241416539 -0.00800000232
v 0.00176774572 0.0357088889 -0.00800000232
v -0.00749946524 0.0264416779 0.0120951076
v -0.00735462596 0.0265865172 0.0116006275
v -0.0071241944 0.0268168296 0.011176004
v -0.00469911982 0.0292420234 0.0131561895
v -0.0048438399 0.0290973033 0.0136506696
v -0.00749946524 0.0264416779 0.0131561895
v -0.00754881789 0.0263923253 0.012625589
v -0.00507427146 0.0288668717 0.0140751739
v -0.00537444045 0.0285667027 0.0144009729
v -0.00572408129 0.0282170619 0.0146057745
v -0.0107485144 0.0231926288 -0.00685332817
v -0.0118253319 0.0221158112 -0.0059605698
v -0.00682402541 0.0271171178 0.0108503242
v -0.0129963248 0.0209448184 -0.00534938377
v -0.0142251342 0.019716009 -0.00503908199
v -0.00609923293 0.0278419103 0.0146756311
v -0.00647438456 0.0274667586 0.0146057745
v -0.00682402541 0.0271171178 0.0144009729
v -0.0071241944 0.0268168296 0.0140751739
v -0.00735462596 0.0265865172 0.0136506696
v -0.00572408129 0.0282170619 0.0106455227
v -0.00537444045 0.0285667027 0.0108503242
v -0.00507427146 0.0288668717 0.011176004
v -0.0048438399 0.0290973033 0.0116006275
v -0.00469911982 0.0292420234 0.0120951076
v -0.00464964797 0.0292914952 0.012625589
v 0.0109602125 0.0265165414 0.0579999824
v -0.000607141749 0.0149493064 0.0579999824
v -0.0015561669 0.0140002812 0.0568533083
v -0.00503278662 0.0105236615 0.0550390621
v -0.00363493849 0.0119215096 0.0458043953
v -0.00380397727 0.0117523517 0.0553493639
v -0.00165058066 0.0139057483 0.0452212234
v -0.00263298442 0.0129234637 0.0559605499
v -0.00966311385 0.00589321507 0.00477875668
v -0.00750971724 0.00804661168 -0.00534938377
v -0.00767887522 0.0078775729 0.00419558483
v -0.00628090789 0.00927542103 -0.00503908199
v 0.00888179849 0.0244381274 0.0292725702
v 0.00915776799 0.0247140969 0.0264331241
v 0.00915776799 0.0247140969 0.023566856
v 0.0109602125 0.0265165414 -0.00800000232
v 0.00888179849 0.0244381274 0.0207274099
v 0.00519548963 0.0207518185 0.0393335958
v 0.0064744861 0.0220309342 0.0371103426
v 0.00752758096 0.0230839099 0.0346613069
v 0.00833498548 0.0238913144 0.0320325037
v -0.00263298442 0.0129234637 -0.0059605698
v -0.0015561669 0.0140002812 -0.00685332817
v 0.00371431421 0.0192706431 0.00871004063
v 0.000259152158 0.0158154811 0.0442614694
v 0.00205861638 0.0176149453 0.0429427763
v 0.00371431421 0.0192706431 0.0412899395
v 0.00205861638 0.0176149453 0.00705720383
v 0.000259152158 0.0158154811 0.00573851067
v -0.00380397727 0.0117523517 -0.00534938377
v -0.00165058066 0.0139057483 0.00477875668
v -0.00503278662 0.0105236615 -0.00503908199
v -0.00363493849 0.0119215096 0.00419558483
v -0.00565684725 0.00989948166 0.00399996239
v 0.00752758096 0.0230839099 0.0153386732
v 0.0064744861 0.0220309342 0.0128897567
v 0.00519548963 0.0207518185 0.0106663843
v -0.0177881806 -0.00223185169 0.0371103426
v -0.0165091841 -0.000952855219 0.0393335958
v -0.00750971724 0.00804661168 0.0553493639
v -0.0150280087 0.000528320203 0.0412899395
v -0.0133723109 0.00218401803 0.0429427763
v -0.0115728467 0.00398348225 0.00573851067
v -0.00975752761 0.00579880131 -0.00685332817
v -0.0086808293 0.00687561883 -0.0059605698
v -0.0133723109 0.00218401803 0.00705720383
v -0.0150280087 0.000528320203 0.00871004063
v -0.0165091841 -0.000952855219 0.0106663843
v -0.000607141749 0.0149493064 -0.00800000232
v 0.00833498548 0.0238913144 0.0179674764
v -0.0115728467 0.00398348225 0.0442614694
v -0.00966311385 0.00589321507 0.0452212234
v -0.00628090789 0.00927542103 0.0550390621
v -0.00767887522 0.0078775729 0.0458043953
v -0.00565684725 0.00989948166 0.0460000177
v -0.022273907 -0.00671745883 -0.00800000232
v -0.0107065528 0.00484977616 -0.00800000232
v -0.020195493 -0.00463916408 0.0207274099
v -0.0204714625 -0.00491513359 0.023566856
v -0.0204714625 -0.00491513359 0.0264331241
v -0.022273907 -0.00671745883 0.0579999824
v -0.020195493 -0.00463916408 0.0292725702
v -0.01964868 -0.00409235107 0.0320325037
v -0.0188412755 -0.00328494655 0.0346613069
v -0.0177881806 -0.00223185169 0.0128897567
v -0.0188412755 -0.00328494655 0.0153386732
v -0.01964868 -0.00409235107 0.0179674764
v -0.0086808293 0.00687561883 0.0559605499
v -0.00975752761 0.00579880131 0.0568533083
v -0.0107065528 0.00484977616 0.0579999824
v -0.025977382 -0.00301398384 0.00781322914
v -0.0256075947 -0.00338377105 0.00821460682
v -0.0253238766 -0.00366760837 0.00873745877
v -0.0264079659 -0.00258339988 0.0124389072
v -0.025977382 -0.00301398384 0.0121866603
v -0.0256075947 -0.00338377105 0.0117854019
v -0.0253238766 -0.00366760837 0.0112625499
v -0.0284162848 -0.000575080981 0.0412625213
v -0.0281325667 -0.00085879909 0.0417854925
v -0.0253238766 -0.00366760837 0.0412625213
v -0.0251454203 -0.00384594547 0.0406534811
v -0.0277627795 -0.00122858631 0.0378133197
v -0.0281325667 -0.00085879909 0.0382145782
v -0.0284162848 -0.000575080981 0.0387375494
v -0.0285946219 -0.000396743884 0.0393464704
v -0.0286555379 -0.000335827937 0.0399999757
v -0.0285946219 -0.000396743884 0.0406534811
v -0.0251454203 -0.00384594547 0.0106535097
v -0.0250846236 -0.00390674221 0.0100000044
v -0.0251454203 -0.00384594547 0.00934649903
v -0.0277627795 -0.00122858631 0.0421867509
v -0.0273321955 -0.00165917026 0.0424389978
v -0.0268700211 -0.00212134468 0.0425249477
v -0.0264079659 -0.00258339988 0.0424389978
v -0.025977382 -0.00301398384 0.0421867509
v -0.0256075947 -0.00338377105 0.0417854925
v -0.0284162848 -0.000575080981 0.00873745877
v -0.0281325667 -0.00085879909 0.00821460682
v -0.0277627795 -0.00122858631 0.00781322914
v -0.0284162848 -0.000575080981 0.0112625499
v -0.0281325667 -0.00085879909 0.0117854019
v -0.0264079659 -0.00258339988 0.00756098229
v -0.0268700211 -0.00212134468 0.00747503239
v -0.0273321955 -0.00165917026 0.00756098229
v -0.0285946219 -0.000396743884 0.00934649903
v -0.0286555379 -0.000335827937 0.0100000044
v -0.0285946219 -0.000396743884 0.0106535097
v -0.0250846236 -0.00390674221 0.0399999757
v -0.0251454203 -0.00384594547 0.0393464704
v -0.0253238766 -0.00366760837 0.0387375494
v -0.0256075947 -0.00338377105 0.0382145782
v -0.0277627795 -0.00122858631 0.0121866603
v -0.0273321955 -0.00165917026 0.0124389072
v -0.0268700211 -0.00212134468 0.0125249763
v -0.025977382 -0.00301398384 0.0378133197
v -0.0264079659 -0.00258339988 0.0375610729
v -0.0268700211 -0.00212134468 0.0374750038
v -0.0273321955 -0.00165917026 0.0375610729
v -0.00206769397 0.0257735099 0.0579999824
v -0.00141418864 0.025859579 0.0579999824
v 0.00102471422 0.0226809825 0.0579999824
v 0.000772467359 0.0220720614 0.0579999824
v -0.000760683314 0.0257735099 0.0579999824
v -0.000151762263 0.025521263 0.0579999824
v 0.00037120889 0.0251200045 0.0579999824
v 0.000772467359 0.0245970334 0.0579999824
v 0.00037120889 0.0215490903 0.0579999824
v -0.000151762263 0.0211478318 0.0579999824
v -0.0038532107 0.0226809825 0.0579999824
v -0.0039391606 0.0233344878 0.0579999824
v -0.0038532107 0.0239879931 0.0579999824
v 0.00102471422 0.0239879931 0.0579999824
v 0.00111078332 0.0233344878 0.0579999824
v -0.000760683314 0.020895585 0.0579999824
v -0.00141418864 0.0208095158 0.0579999824
v -0.00206769397 0.020895585 0.0579999824
v -0.00267673423 0.0211478318 0.0579999824
v -0.00319970538 0.0215490903 0.0579999824
v -0.00360096385 0.0220720614 0.0579999824
v -0.00360096385 0.0245970334 0.0579999824
v -0.00319970538 0.0251200045 0.0579999824
v -0.00267673423 0.025521263 0.0579999824
v 0.00457846235 0.0328981723 0.0399999757
v 0.00457846235 0.0328981723 0.0100000044
v 0.00463937829 0.0328372563 0.00934649903
v 0.00481771539 0.0326589192 0.00873745877
v 0.0051014335 0.0323752011 0.00821460682
v 0.00547122072 0.0320054139 0.00781322914
v 0.00590180467 0.0315748299 0.00756098229
v 0.00636397908 0.0311126555 0.00747503239
v 0.00682603429 0.0306506003 0.00756098229
v 0.00725673745 0.0302200164 0.00781322914
v 0.00762640546 0.0298502292 0.00821460682
v 0.00791024278 0.029566511 0.00873745877
v 0.00791024278 0.029566511 0.0112625499
v 0.00762640546 0.0298502292 0.0117854019
v 0.00725673745 0.0302200164 0.0121866603
v 0.00463937829 0.0328372563 0.0393464704
v 0.00481771539 0.0326589192 0.0387375494
v 0.0051014335 0.0323752011 0.0382145782
v 0.00547122072 0.0320054139 0.0421867509
v 0.0051014335 0.0323752011 0.0417854925
v 0.00481771539 0.0326589192 0.0412625213
v 0.00463937829 0.0328372563 0.0406534811
v 0.00762640546 0.0298502292 0.0417854925
v 0.00725673745 0.0302200164 0.0421867509
v 0.00682603429 0.0306506003 0.0424389978
v 0.00636397908 0.0311126555 0.0425249477
v 0.00590180467 0.0315748299 0.0424389978
v 0.00808857988 0.0293880547 0.00934649903
v 0.00814937661 0.029327258 0.0100000044
v 0.00808857988 0.0293880547 0.0106535097
v 0.00682603429 0.0306506003 0.0124389072
v 0.00808857988 0.0293880547 0.0393464704
v 0.00814937661 0.029327258 0.0399999757
v 0.00808857988 0.0293880547 0.0406534811
v 0.00791024278 0.029566511 0.0412625213
v 0.00636397908 0.0311126555 0.0374750038
v 0.00682603429 0.0306506003 0.0375610729
v 0.00725673745 0.0302200164 0.0378133197
v 0.00762640546 0.0298502292 0.0382145782
v 0.00791024278 0.029566511 0.0387375494
v 0.0051014335 0.0323752011 0.0117854019
v 0.00481771539 0.0326589192 0.0112625499
v 0.00463937829 0.0328372563 0.0106535097
v 0.00547122072 0.0320054139 0.0378133197
v 0.00590180467 0.0315748299 0.0375610729
v 0.00636397908 0.0311126555 0.0125249763
v 0.00590180467 0.0315748299 0.0124389072
v 0.00547122072 0.0320054139 0.0121866603
v -0.0203210204 0.00442777527 0.0399999757
v -0.0226981728 0.00502048386 0.0399999757
v -0.0226475089 0.00496981991 0.0394565006
v -0.0222631781 0.00458548916 0.0385151048
v -0.0219556182 0.00427804841 0.0381813188
v -0.0224992125 0.00482152356 0.0389499803
v -0.0212131827 0.00353549374 0.0378999849
v -0.020828852 0.00315116299 0.0379715105
v -0.0215975135 0.00391982449 0.0379715105
v -0.0204707472 0.00279305829 0.0381813188
v -0.0201631873 0.00248549832 0.0385151048
v -0.0197788565 0.00210116757 0.0405435701
v -0.0199272721 0.00224958314 0.0410499712
v -0.0197283118 0.00205062283 0.0399999757
v -0.0197788565 0.00210116757 0.0394565006
v -0.0204707472 0.00279305829 0.0418186327
v -0.020828852 0.00315116299 0.042028441
v -0.0201631873 0.00248549832 0.0414849659
v -0.0215975135 0.00391982449 0.042028441
v -0.0219556182 0.00427804841 0.0418186327
v -0.0212131827 0.00353549374 0.0420999666
v -0.0224992125 0.00482152356 0.0410499712
v -0.0226475089 0.00496981991 0.0405435701
v -0.0222631781 0.00458548916 0.0414849659
v -0.0198899596 0.00242911233 0.0393327613
v -0.0198495476 0.00217197789 0.0391686102
v -0.0199961751 0.00263117207 0.0391339203
v -0.0199316828 0.0026956643 0.039502873
v -0.0201525777 0.00247488869 0.0385303636
v -0.0205487101 0.00207875622 0.0385303636
v -0.0251351683 -0.00325514423 0.0394565006
v -0.0252835839 -0.00310672866 0.0389499803
v -0.0200665085 0.00211022748 0.0389499803
v -0.0255194991 -0.00287081348 0.0385151048
v -0.025827059 -0.00256325351 0.0381813188
v -0.0261851638 -0.00220514881 0.0379715105
v -0.0265694945 -0.00182081806 0.0378999849
v -0.0269538253 -0.00143648731 0.0379715105
v -0.0273120492 -0.0010783826 0.0381813188
v -0.0276194899 -0.000770822634 0.0385151048
v -0.0278555243 -0.000534788241 0.0389499803
v -0.0280038207 -0.000386491885 0.0394565006
v -0.0280544846 -0.000335827937 0.0399999757
v -0.0280038207 -0.000386491885 0.0405435701
v -0.0278555243 -0.000534788241 0.0410499712
v -0.0276194899 -0.000770822634 0.0414849659
v -0.0273120492 -0.0010783826 0.0418186327
v -0.0269538253 -0.00143648731 0.042028441
v -0.0265694945 -0.00182081806 0.0420999666
v -0.0261851638 -0.00220514881 0.042028441
v -0.025827059 -0.00256325351 0.0418186327
v -0.0255194991 -0.00287081348 0.0414849659
v -0.0252835839 -0.00310672866 0.0410499712
v -0.0251351683 -0.00325514423 0.0405435701
v -0.0250846236 -0.00330568897 0.0399999757
v -0.000185140864 0.0245636548 0.0100000044
v 0.00219201158 0.0239709462 0.0100000044
v 0.00214146684 0.0240214909 0.0094565292
v 0.00175713609 0.0244058217 0.00851513344
v 0.00144957612 0.0247133817 0.00818134743
v 0.00199305127 0.0241699065 0.00895000893
v 0.000707140668 0.0254558171 0.00790001351
v 0.000322809918 0.0258401479 0.00797153908
v 0.00109147142 0.0250714864 0.00797153908
v -0.000342854755 0.0265058125 0.00851513344
v -0.000578889148 0.0267418469 0.00895000893
v -3.54139968e-05 0.0261982526 0.00818134743
v -0.000777849452 0.0269408072 0.0100000044
v -0.000727185504 0.0268901433 0.0105434795
v -0.000727185504 0.0268901433 0.0094565292
v -0.000342854755 0.0265058125 0.0114848753
v -3.54139968e-05 0.0261982526 0.0118186613
v -0.000578889148 0.0267418469 0.0110499998
v 0.000707140668 0.0254558171 0.0120999952
v 0.00109147142 0.0250714864 0.0120284696
v 0.000322809918 0.0258401479 0.0120284696
v 0.00144957612 0.0247133817 0.0118186613
v 0.00175713609 0.0244058217 0.0114848753
v 0.00214146684 0.0240214909 0.0105434795
v 0.00181352208 0.024132594 0.0106672187
v 0.00207065652 0.0240923013 0.0108313699
v 0.00161146234 0.0242388095 0.0108660598
v 0.00154697011 0.0241743173 0.0104971071
v 0.00176774572 0.0243952121 0.0114697357
v 0.00216387819 0.0247913445 0.0114697357
v 0.00749777864 0.0293778027 0.0105434795
v 0.00734948228 0.0295262183 0.0110499998
v 0.00213240693 0.024309143 0.0110499998
v 0.00711344789 0.0297621335 0.0114848753
v 0.00680588792 0.0300696935 0.0118186613
v 0.00644778322 0.0304277982 0.0120284696
v 0.00606345247 0.0308121289 0.0120999952
v 0.00567912172 0.0311964597 0.0120284696
v 0.00532101701 0.0315546836 0.0118186613
v 0.00501345704 0.0318621243 0.0114848753
v 0.00477742265 0.0320981587 0.0110499998
v 0.00462912629 0.0322464551 0.0105434795
v 0.00457846235 0.032297119 0.0100000044
v 0.00462912629 0.0322464551 0.0094565292
v 0.00477742265 0.0320981587 0.00895000893
v 0.00501345704 0.0318621243 0.00851513344
v 0.00532101701 0.0315546836 0.00818134743
v 0.00567912172 0.0311964597 0.00797153908
v 0.00606345247 0.0308121289 0.00790001351
v 0.00644778322 0.0304277982 0.00797153908
v 0.00680588792 0.0300696935 0.00818134743
v 0.00711344789 0.0297621335 0.00851513344
v 0.00734948228 0.0295262183 0.00895000893
v 0.00749777864 0.0293778027 0.0094565292
v 0.00754832338 0.029327258 0.0100000044
v 0.00749777864 0.0293778027 0.0394565006
v 0.00734948228 0.0295262183 0.0389499803
v 0.00711344789 0.0297621335 0.0385151048
v 0.00680588792 0.0300696935 0.0381813188
v 0.00644778322 0.0304277982 0.0379715105
v 0.00606345247 0.0308121289 0.0378999849
v 0.00567912172 0.0311964597 0.0379715105
v 0.00532101701 0.0315546836 0.0381813188
v 0.00501345704 0.0318621243 0.0385151048
v 0.00477742265 0.0320981587 0.0389499803
v 0.00462912629 0.0322464551 0.0394565006
v 0.00457846235 0.032297119 0.0399999757
v 0.00462912629 0.0322464551 0.0405435701
v 0.00477742265 0.0320981587 0.0410499712
v 0.00501345704 0.0318621243 0.0414849659
v 0.00532101701 0.0315546836 0.0418186327
v 0.00567912172 0.0311964597 0.042028441
v 0.00606345247 0.0308121289 0.0420999666
v 0.00644778322 0.0304277982 0.042028441
v 0.00680588792 0.0300696935 0.0418186327
v 0.00711344789 0.0297621335 0.0414849659
v 0.00734948228 0.0295262183 0.0410499712
v 0.00749777864 0.0293778027 0.0405435701
v 0.00754832338 0.029327258 0.0399999757
v -0.00141418864 0.0233344878 0.0443382402
v -0.00323284556 0.0243844832 0.0455999513
v -0.00344265391 0.0238780822 0.0455999513
v -0.00289917876 0.0248194779 0.0455999513
v -0.00344265391 0.0227910127 0.0455999513
v -0.00323284556 0.0222844924 0.0455999513
v -0.00351417948 0.0233344878 0.0455999513
v -0.00246418406 0.0215158309 0.0455999513
v -0.001957783 0.0213060225 0.0455999513
v -0.00289917876 0.0218496169 0.0455999513
v -0.000870713489 0.0213060225 0.0455999513
v -0.000364193217 0.0215158309 0.0455999513
v -0.00141418864 0.021234497 0.0455999513
v 0.000404468282 0.0222844924 0.0455999513
v 0.000614276631 0.0227910127 0.0455999513
v 7.06822709e-05 0.0218496169 0.0455999513
v 0.000614276631 0.0238780822 0.0455999513
v 0.000404468282 0.0243844832 0.0455999513
v 0.000685802205 0.0233344878 0.0455999513
v -0.000364193217 0.0251531447 0.0455999513
v -0.000870713489 0.0253629531 0.0455999513
v 7.06822709e-05 0.0248194779 0.0455999513
v -0.001957783 0.0253629531 0.0455999513
v -0.00246418406 0.0251531447 0.0455999513
v -0.00141418864 0.0254344787 0.0455999513
v -0.00323284556 0.0243844832 0.0575750013
v -0.00344265391 0.0238780822 0.0575750013
v -0.00351417948 0.0233344878 0.0575750013
v -0.00344265391 0.0227910127 0.0575750013
v -0.00323284556 0.0222844924 0.0575750013
v -0.00289917876 0.0218496169 0.0575750013
v -0.00246418406 0.0215158309 0.0575750013
v -0.001957783 0.0213060225 0.0575750013
v -0.00141418864 0.021234497 0.0575750013
v -0.000870713489 0.0213060225 0.0575750013
v -0.000364193217 0.0215158309 0.0575750013
v 7.06822709e-05 0.0218496169 0.0575750013
v 0.000404468282 0.0222844924 0.0575750013
v 0.000614276631 0.0227910127 0.0575750013
v 0.000685802205 0.0233344878 0.0575750013
v 0.000614276631 0.0238780822 0.0575750013
v 0.000404468282 0.0243844832 0.0575750013
v 7.06822709e-05 0.0248194779 0.0575750013
v -0.000364193217 0.0251531447 0.0575750013
v -0.000870713489 0.0253629531 0.0575750013
v -0.00141418864 0.0254344787 0.0575750013
v -0.001957783 0.0253629531 0.0575750013
v -0.00246418406 0.0251531447 0.0575750013
v -0.00289917876 0.0248194779 0.0575750013
v -0.0190918534 0.00565682305 0.0443382402
v -0.0209105103 0.00670681847 0.0455999513
v -0.0211203187 0.00620041741 0.0455999513
v -0.0205768435 0.00714181317 0.0455999513
v -0.0211203187 0.0051133479 0.0455999513
v -0.0209105103 0.00460682763 0.0455999513
v -0.0211918442 0.00565682305 0.0455999513
v -0.0201418488 0.00383816613 0.0455999513
v -0.0196354478 0.00362835778 0.0455999513
v -0.0205768435 0.00417195214 0.0455999513
v -0.0185483782 0.00362835778 0.0455999513
v -0.018041858 0.00383816613 0.0455999513
v -0.0190918534 0.0035568322 0.0455999513
v -0.0172731965 0.00460682763 0.0455999513
v -0.0170633881 0.0051133479 0.0455999513
v -0.0176069825 0.00417195214 0.0455999513
v -0.0170633881 0.00620041741 0.0455999513
v -0.0172731965 0.00670681847 0.0455999513
v -0.0169918626 0.00565682305 0.0455999513
v -0.018041858 0.00747547997 0.0455999513
v -0.0185483782 0.00768528832 0.0455999513
v -0.0176069825 0.00714181317 0.0455999513
v -0.0196354478 0.00768528832 0.0455999513
v -0.0201418488 0.00747547997 0.0455999513
v -0.0190918534 0.00775681389 0.0455999513
v -0.00597716262 0.0095791663 0.0441904207
v -0.00620592524 0.00935040368 0.0453977724
v -0.00565684725 0.00989948166 0.0442500253
v -0.00565684725 0.00989948166 0.0455000539
v -0.00533653189 0.010219797 0.0441904207
v -0.00510776927 0.0104485597 0.0453977724
v -0.00503815104 0.0105181779 0.0440155407
v -0.00459624221 0.0109602059 0.0450980802
v -0.00478185107 0.0107744778 0.0437374254
v -0.00415683676 0.0113994922 0.0446213623
v -0.00458515574 0.0109711732 0.0433750291
v -0.00381971289 0.011736616 0.0440000435
v -0.00446153571 0.0110947932 0.0429529091
v -0.00360775878 0.0119485701 0.0432764431
v -0.00441945483 0.0111368741 0.042500033
v -0.00353551795 0.012020811 0.042500033
v -0.00446153571 0.0110947932 0.0420470377
v -0.00360775878 0.0119485701 0.0417235036
v -0.00458515574 0.0109711732 0.0416250368
v -0.00381971289 0.011736616 0.0410000225
v -0.00478185107 0.0107744778 0.0412625213
v -0.00415683676 0.0113994922 0.0403787037
v -0.00503815104 0.0105181779 0.0409844061
v -0.00459624221 0.0109602059 0.0399018665
v -0.00533653189 0.010219797 0.0408096452
v -0.00510776927 0.0104485597 0.0396021743
v -0.00565684725 0.00989948166 0.0407500406
v -0.00565684725 0.00989948166 0.039500012
v -0.00597716262 0.0095791663 0.0408096452
v -0.00620592524 0.00935040368 0.0396021743
v -0.00627554347 0.00928078545 0.0409844061
v -0.00671757151 0.00883887661 0.0399018665
v -0.00653184344 0.00902448548 0.0412625213
v -0.00715685775 0.00839947117 0.0403787037
v -0.00672853877 0.00882779015 0.0416250368
v -0.00749398162 0.0080623473 0.0410000225
v -0.0068521588 0.00870417012 0.0420470377
v -0.00770593573 0.0078505124 0.0417235036
v -0.00689423968 0.00866208924 0.042500033
v -0.00777817656 0.00777815236 0.042500033
v -0.0068521588 0.00870417012 0.0429529091
v -0.00770593573 0.0078505124 0.0432764431
v -0.00672853877 0.00882779015 0.0433750291
v -0.00749398162 0.0080623473 0.0440000435
v -0.00653184344 0.00902448548 0.0437374254
v -0.00715685775 0.00839947117 0.0446213623
v -0.00627554347 0.00928078545 0.0440155407
v -0.00671757151 0.00883887661 0.0450980802
v -0.00597716262 0.0095791663 0.00919033486
v -0.00620592524 0.00935040368 0.0103978058
v -0.00565684725 0.00989948166 0.00925005871
v -0.00565684725 0.00989948166 0.0104999681
v -0.00533653189 0.010219797 0.00919033486
v -0.00510776927 0.0104485597 0.0103978058
v -0.00503815104 0.0105181779 0.00901557404
v -0.00459624221 0.0109602059 0.0100981136
v -0.00478185107 0.0107744778 0.00873745877
v -0.00415683676 0.0113994922 0.00962127644
v -0.00458515574 0.0109711732 0.00837494332
v -0.00381971289 0.011736616 0.00899995762
v -0.00446153571 0.0110947932 0.00795294243
v -0.00360775878 0.0119485701 0.00827647644
v -0.00441945483 0.0111368741 0.00749994713
v -0.00353551795 0.012020811 0.00749994713
v -0.00446153571 0.0110947932 0.00704707104
v -0.00360775878 0.0119485701 0.00672353703
v -0.00458515574 0.0109711732 0.00662495095
v -0.00381971289 0.011736616 0.00600005585
v -0.00478185107 0.0107744778 0.00626255471
v -0.00415683676 0.0113994922 0.00537873703
v -0.00503815104 0.0105181779 0.00598443943
v -0.00459624221 0.0109602059 0.00490189987
v -0.00533653189 0.010219797 0.00580967861
v -0.00510776927 0.0104485597 0.00460220772
v -0.00565684725 0.00989948166 0.00574995476
v -0.00565684725 0.00989948166 0.00450004536
v -0.00597716262 0.0095791663 0.00580967861
v -0.00620592524 0.00935040368 0.00460220772
v -0.00627554347 0.00928078545 0.00598443943
v -0.00671757151 0.00883887661 0.00490189987
v -0.00653184344 0.00902448548 0.00626255471
v -0.00715685775 0.00839947117 0.00537873703
v -0.00672853877 0.00882779015 0.00662495095
v -0.00749398162 0.0080623473 0.00600005585
v -0.0068521588 0.00870417012 0.00704707104
v -0.00770593573 0.0078505124 0.00672353703
v -0.00689423968 0.00866208924 0.00749994713
v -0.00777817656 0.00777815236 0.00749994713
v -0.0068521588 0.00870417012 0.00795294243
v -0.00770593573 0.0078505124 0.00827647644
v -0.00672853877 0.00882779015 0.00837494332
v -0.00749398162 0.0080623473 0.00899995762
v -0.00653184344 0.00902448548 0.00873745877
v -0.00715685775 0.00839947117 0.00962127644
v -0.00627554347 0.00928078545 0.00901557404
v -0.00671757151 0.00883887661 0.0100981136
v 0.0242229612 0.00586686982 0.0146374841
v 0.0242167623 0.00586067093 0.0146423717
v 0.0240826518 0.00598488701 0.0146098276
v 0.0240765722 0.00597880734 0.0146147152
v 0.0238035829 0.00570593728 0.0139640709
v 0.0238096626 0.00571189774 0.0139588256
v 0.0242518098 0.00679646386 0.0159597536
v 0.0242451341 0.00679074181 0.0159412761
v 0.0242515714 0.00679717911 0.0159369846
v 0.0242700488 0.00680397404 0.0159977813
v 0.0244344385 0.00678323163 0.016191258
v 0.0244278819 0.00677727116 0.0161960264
v 0.0244184644 0.00678215874 0.016188993
v 0.024275294 0.00681160344 0.0159938474
v 0.0242783935 0.00681351079 0.0160011192
v 0.0242866189 0.00681076897 0.0160328289
v 0.0242917449 0.00681684865 0.0160261531
v 0.0243017585 0.00681053055 0.016055121
v 0.0243081958 0.00681684865 0.0160509487
v 0.0243347795 0.00680993451 0.0161038776
v 0.0243388326 0.00681672944 0.016096725
v 0.0243389518 0.00680898083 0.0161090036
v 0.0243455083 0.00681517972 0.0161045929
v 0.0243580253 0.00680480851 0.0161315342
v 0.024374953 0.00680826558 0.0161386867
v 0.0243788869 0.0067970599 0.0161513229
v 0.0243848474 0.00680445088 0.016147985
v 0.0244141729 0.00679348362 0.01617588
v 0.0244449289 0.00676844967 0.0162086626
v 0.0244556577 0.00677250279 0.0162073513
v 0.0244733007 0.00675044907 0.0162243982
v 0.0244796188 0.00675748242 0.0162211795
v 0.0245048911 0.00673018349 0.0162420412
v 0.0244983346 0.00674579991 0.0162319084
v 0.0245214612 0.00671671284 0.0162466903
v 0.0245278985 0.00672291173 0.0162421604
v 0.0245681913 0.00667844666 0.0162599226
v 0.0245598466 0.00669811619 0.0162532468
v 0.0245746286 0.00668488396 0.0162557502
v 0.0247070701 0.00636802567 0.0159993311
v 0.0247133882 0.00637434376 0.0159950395
v 0.0246302993 0.00629125489 0.0157742639
v 0.0246367366 0.00629769219 0.0157698532
v 0.024590245 0.00665782345 0.0162619491
v 0.024575463 0.00667177094 0.0162608762
v 0.0245819003 0.00667820824 0.0162567039
v 0.02461361 0.00663290871 0.0162595649
v 0.0246201665 0.0066392268 0.0162553926
v 0.0246359022 0.00660894764 0.0162571808
v 0.0246347101 0.00662432564 0.0162549158
v 0.0246454389 0.00659738434 0.0162539621
v 0.0246515186 0.00660370244 0.0162490745
v 0.0246456773 0.00659726513 0.0162539621
v 0.0246622474 0.00659070862 0.016245379
v 0.0246742875 0.00655733002 0.0162365575
v 0.0246769101 0.00657032383 0.0162365575
v 0.0246807248 0.00656388653 0.0162326236
v 0.0247194679 0.00648973836 0.0161782642
v 0.024713865 0.00648306263 0.016183271
v 0.0247125537 0.00648663891 0.0161868473
v 0.0247057588 0.00652228249 0.0162071128
v 0.0246963413 0.0065197791 0.0162127157
v 0.024703613 0.00652585877 0.0162092586
v 0.0246894271 0.006533965 0.0162239214
v 0.0246806056 0.00654862774 0.0162327428
v 0.0247188718 0.0064685191 0.0161689659
v 0.0247243554 0.00647817505 0.0161681314
v 0.0247223289 0.00645004166 0.0161460777
v 0.0247287662 0.00645647896 0.0161417862
v 0.0247266204 0.00642679585 0.0161171098
v 0.0247328193 0.00643704785 0.0161184211
v 0.0247265012 0.00641892804 0.0161050697
v 0.0247325809 0.00642560376 0.016100659
v 0.024726382 0.0064133252 0.0160964866
v 0.0247323425 0.00641535176 0.0160848041
v 0.02472066 0.00639460934 0.016059651
v 0.0247268588 0.00640116585 0.0160554786
v 0.0247162492 0.00637982739 0.0160309215
v 0.024718991 0.00638090027 0.0160131593
v 0.0247092159 0.00637088669 0.0160069605
v 0.0247157724 0.00637708558 0.0160026689
v 0.0250126035 0.00678573502 0.0171411176
v 0.0251812846 0.00683925999 0.0175426145
v 0.0250424058 0.00672279252 0.0170831819
v 0.0253702314 0.00653098477 0.0173239847
v 0.0250953348 0.00662134541 0.016999497
v 0.0252232463 0.00638411892 0.016814365
v 0.0247365148 0.00706575764 0.0171480318
v 0.0247434289 0.00705955876 0.0171492239
v 0.024756542 0.00704942597 0.0171544691
v 0.0247588069 0.00704763783 0.0171554227
v 0.0247741849 0.00703726662 0.0171642442
v 0.0247961194 0.00702522648 0.0171816488
v 0.0247992189 0.00702403439 0.0171849867
v 0.024821511 0.00701557053 0.0172094246
v 0.0248274715 0.00701330555 0.0172158619
v 0.0248370082 0.007011279 0.0172292133
v 0.0256878049 0.00684867753 0.0185850998
v 0.0255962522 0.00675712479 0.0181948085
v 0.0251816423 0.00730286492 0.0184717317
v 0.0253336341 0.00699149025 0.0181365152
v 0.0249062688 0.00702761067 0.0173831125
v 0.0248725326 0.00701068295 0.0172915598
v 0.0248497636 0.00701104058 0.0172517439
v 0.0246975334 0.00773714436 0.018364801
v 0.0249549062 0.00750587834 0.0184207101
v 0.024426213 0.00746582402 0.0173072954
v 0.0246776254 0.00722859753 0.0173331638
v 0.0246702344 0.00721965684 0.0173034807
v 0.0246649892 0.00720463646 0.0172673603
v 0.0243832977 0.0073976363 0.0171107193
v 0.0246599824 0.00719068898 0.017233624
v 0.0246603401 0.00718651665 0.0172268291
v 0.0243773372 0.00734911812 0.0170166631
v 0.0246618898 0.00716863526 0.0171978613
v 0.024662009 0.00716672791 0.0171946426
v 0.0243737609 0.00732026948 0.0169606348
v 0.024667731 0.0071512307 0.0171773573
v 0.0243761451 0.00729916943 0.0169288059
v 0.0243834169 0.00727294339 0.0168967386
v 0.0246696384 0.00714598549 0.017171516
v 0.0243928344 0.00723884953 0.0168550153
v 0.0246739299 0.0071383561 0.0171656747
v 0.0244003446 0.0072231139 0.0168411871
v 0.0246797712 0.0071281041 0.0171579261
v 0.0244244249 0.00717197312 0.0167960067
v 0.0244357498 0.00715444935 0.0167857547
v 0.0246812017 0.00712595833 0.017156734
v 0.0244542272 0.00712583912 0.0167689462
v 0.0246874006 0.00711713685 0.0171520849
v 0.024461499 0.0071165408 0.0167654892
v 0.024487129 0.00708375824 0.0167535682
v 0.0246913345 0.00711248768 0.0171506544
v 0.0244971425 0.00707279099 0.0167521377
v 0.0245480449 0.00701759709 0.016744866
v 0.0247033746 0.00709782494 0.0171462436
v 0.0246121795 0.00695858849 0.0167533298
v 0.0247034938 0.00709770573 0.0171462436
v 0.0247174413 0.00708304299 0.0171448131
v 0.0249913843 0.00678084744 0.0170954605
v 0.0249686153 0.00678180111 0.0170579095
v 0.0249209316 0.00678394688 0.0169793506
v 0.0248799236 0.00679479493 0.0169278522
v 0.0248644264 0.00680123223 0.0169124742
v 0.0248052986 0.00682555092 0.016853704
v 0.0247596414 0.00685046567 0.0168188949
v 0.0247422368 0.00686214818 0.016809239
v 0.024677387 0.00690530194 0.0167732378
v 0.0246229083 0.00694869412 0.0167546411
v 0.0205577524 0.00359736336 0.00940622288
v 0.0206037671 0.00348161114 0.00936175782
v 0.0204702527 0.00350986374 0.00929535824
v 0.0204567821 0.00349639309 0.00927843052
v 0.0220154435 0.00317619694 0.0101007362
v 0.0217685611 0.00292943371 0.00976146656
v 0.0206186683 0.0034785117 0.00936938721
v 0.0207387121 0.00314651383 0.00923599201
v 0.020615092 0.00347910775 0.00936736065
v 0.0204619081 0.00291250599 0.00892497498
v 0.0202821405 0.00332175149 0.00906290013
v 0.0208930881 0.00280378712 0.00911964375
v 0.0209377916 0.00270388974 0.00908590752
v 0.0208506496 0.00201152218 0.00862695175
v 0.0209751041 0.00261329068 0.00905348259
v 0.0212701471 0.00243101967 0.00912226635
v 0.0210318477 0.00267575635 0.00912620026
v 0.0216764123 0.00283728493 0.00963903862
v 0.0212736041 0.00291751278 0.00942923027
v 0.017557493 0.000597103963 0.00643528897
v 0.0180057199 0.000556811223 0.0065909763
v 0.0170729072 0.000112518201 0.00608803231
v 0.0170354755 -0.000413552393 0.00590039688
v 0.0165797384 -0.00038065063 0.00576604801
v 0.0250888975 0.0066147889 0.0170033117
v 0.025216809 0.00637756241 0.0168181797
v 0.0248659761 0.00700412644 0.0172952552
v 0.0248207958 0.00700674904 0.0172195573
v 0.0248304517 0.00700472249 0.0172329088
v 0.0248432071 0.00700448407 0.0172554393
v 0.0248149545 0.00700901402 0.01721312
v 0.0247676284 0.00703071011 0.0171679397
v 0.0247895629 0.00701866997 0.0171854635
v 0.0247926624 0.00701747788 0.0171886821
v 0.0235813768 0.00588522805 0.0139150758
v 0.0235873372 0.00589118851 0.0139098306
v 0.0235744626 0.00588320149 0.0138858696
v 0.0235370309 0.00587318791 0.0138322254
v 0.0235310705 0.00586710824 0.0138375898
v 0.0235402496 0.00587318791 0.0138359209
v 0.0235342891 0.00586710824 0.0138412853
v 0.0235574157 0.00587604893 0.0138585706
v 0.0235514552 0.00587008847 0.0138639351
v 0.0235650451 0.00587736023 0.0138687034
v 0.0235590846 0.00587128056 0.0138739486
v 0.023568383 0.00587712182 0.013891234
v 0.0234514386 0.00593052758 0.0138006349
v 0.0234558494 0.00591276539 0.0138043304
v 0.0234618099 0.00591872586 0.013798966
v 0.0234577567 0.00591050042 0.0138039728
v 0.0234638364 0.00591646088 0.0137987276
v 0.0234367759 0.00596664799 0.0138247152
v 0.0234308154 0.00596068753 0.0138300796
v 0.0234374912 0.00595842255 0.0138162513
v 0.0234315307 0.00595234288 0.0138214965
v 0.0234374912 0.00595830334 0.0138161321
v 0.0234315307 0.00595234288 0.0138213773
v 0.0234383256 0.00595448865 0.0138127943
v 0.0234323652 0.00594828976 0.0138179203
v 0.0234395177 0.00595126999 0.0138105293
v 0.0234335573 0.00594530953 0.0138158937
v 0.0234417827 0.00594530953 0.013806357
v 0.0234359414 0.00593911065 0.0138116022
v 0.0234420211 0.0059449519 0.0138061185
v 0.0234360607 0.00593887223 0.013811483
v 0.0234438093 0.00594149483 0.0138043304
v 0.023437968 0.00593529595 0.0138095756
v 0.0234461934 0.00593791855 0.0138030191
v 0.023440233 0.00593195809 0.0138083835
v 0.0234503658 0.00593183888 0.0138007541
v 0.0234446437 0.00592552079 0.0138059993
v 0.023445359 0.00592456711 0.0138058801
v 0.0234383256 0.0059732045 0.0138337751
v 0.023432246 0.00596712483 0.0138390203
v 0.0234354646 0.00598095311 0.013858213
v 0.0234415443 0.00598691357 0.0138529678
v 0.0234367759 0.00598274125 0.0138616701
v 0.0234427364 0.00598870171 0.0138563057
v 0.02345275 0.00600372208 0.0138845583
v 0.0234466703 0.00599764241 0.0138898035
v 0.0194969089 0.00107906712 0.00746120411
v 0.0195008428 0.00108300103 0.00745285946
v 0.0195478113 0.00106535805 0.00746656853
v 0.0196797759 0.00103865517 0.00751592118
v 0.019675842 0.00103472127 0.00752426583
v 0.0196796567 0.00103865517 0.00751580197
v 0.019675842 0.00103472127 0.00752414662
v 0.0196107538 0.00104759587 0.00748766857
v 0.0196068199 0.00104378117 0.00749601322
v 0.0195870311 0.00105069531 0.00747801262
v 0.0195832164 0.00104688061 0.00748635727
v 0.0195438773 0.00106154336 0.00747491318
v 0.0207695873 0.00193045987 0.00854827362
v 0.020773998 0.00193487061 0.00854040581
v 0.0203477056 0.00199161423 0.0083490749
v 0.0203519971 0.00199590577 0.00834108788
v 0.0197771699 0.00142095936 0.00774671036
v 0.0197575004 0.00140558137 0.00772954422
v 0.0197731168 0.00141702546 0.0077549358
v 0.0197534473 0.00140164746 0.00773776966
v 0.019726506 0.00138054741 0.00771428543
v 0.0197305591 0.00138460053 0.00770605999
v 0.0197220952 0.00137864007 0.00771118599
v 0.0197261484 0.00138269318 0.00770296055
v 0.0197038562 0.00137327565 0.00768758255
v 0.0196869285 0.00137017621 0.00767780739
v 0.0196829946 0.00136612309 0.00768603283
v 0.0197032602 0.00137303723 0.00768722493
v 0.0196993263 0.00136910332 0.00769545037
v 0.0196998031 0.00136922253 0.00769580799
v 0.0201586397 0.00219856156 0.00835873085
v 0.0201629312 0.00220285309 0.00835086304
v 0.0201575668 0.00221632374 0.00836779076
v 0.0201618583 0.00222097291 0.00836016136
v 0.0201519639 0.00224469555 0.00838030773
v 0.0201563747 0.00224898709 0.00837232071
v 0.0201454074 0.00227771653 0.00839473206
v 0.020149699 0.00228224648 0.00838686425
v 0.0201415927 0.00228904141 0.00839890438
v 0.0201455266 0.00229464425 0.0083913942
v 0.0201409967 0.0022902335 0.0083991428
v 0.0201452882 0.00229524029 0.00839163262
v 0.0201210887 0.0023312415 0.0084107061
v 0.0201253803 0.00233553303 0.00840271908
v 0.0201142938 0.00234530819 0.00841475922
v 0.0201173932 0.00235162629 0.00840724903
v 0.0201053531 0.00235901726 0.00841738182
v 0.0201076181 0.00236640824 0.00840999085
v 0.0200937898 0.00237308396 0.00841869313
v 0.0200983198 0.00237761391 0.00841094452
v 0.0200575502 0.00242601288 0.00841523606
v 0.0200532586 0.00242160214 0.00842310387
v 0.0162870796 -0.00218702899 0.00519050556
v 0.0162894637 -0.00218464481 0.00518108803
v 0.0163355977 -0.00250352966 0.00512482125
v 0.0163378627 -0.00250126468 0.00511540371
v 0.0167045505 -0.00213457691 0.00529993969
v 0.0167020471 -0.0021370803 0.00530923802
v 0.0166110904 -0.00173093425 0.00538255173
v 0.0170257003 -0.00131632434 0.00561763245
v 0.016608587 -0.00173355686 0.00539196926
v 0.0170229585 -0.00131906616 0.00562681156
v 0.0173116834 -0.001527444 0.00565065342
v 0.0173144252 -0.00152470218 0.00564147431
v 0.0175812156 -0.00125791179 0.00580502945
v 0.0175783546 -0.00126077281 0.00581408936
v 0.0160159976 -0.00143303024 0.00530339676
v 0.0167742879 -0.000674739947 0.00573541123
v 0.0160136134 -0.00143541442 0.00531269509
v 0.0167715461 -0.000677481761 0.00574459034
v 0.0157532604 -0.00120712863 0.00529374081
v 0.0156253488 -0.00136031257 0.00522126156
v 0.0157508762 -0.00120951282 0.00530303913
v 0.0156229646 -0.00136269676 0.0052306791
v 0.0155595453 -0.00180639373 0.00510586697
v 0.0155535848 -0.0017918502 0.00510801274
v 0.0155553729 -0.00178970443 0.00509835678
v 0.0155290277 -0.00172342407 0.00511850315
v 0.0155312927 -0.00172115909 0.00510896641
v 0.0155335576 -0.00174261676 0.00511492688
v 0.0155382068 -0.0017430936 0.00510539013
v 0.0155347497 -0.0017457162 0.00511456925
v 0.0155495317 -0.00177885639 0.00509954888
v 0.0155652673 -0.0018162881 0.00510491329
v 0.0155758769 -0.00182761299 0.00509418446
v 0.0155842216 -0.00184048759 0.00510360199
v 0.0155852945 -0.00183905708 0.00509370762
v 0.0156329782 -0.00189746963 0.00509120423
v 0.0156307132 -0.00189973461 0.00510062176
v 0.0159345777 -0.00204528915 0.00513864952
v 0.0159368427 -0.00204302417 0.00512923199
v 0.0160211236 -0.0020420705 0.00515009362
v 0.0161063583 -0.00203074562 0.00517381626
v 0.0161039741 -0.00203301059 0.0051832338
v 0.0160431773 -0.00204195129 0.00515545803
v 0.0160409124 -0.00204421627 0.00516487557
v 0.0160187394 -0.00204445468 0.00515951115
v 0.0246881158 0.00680635823 0.0166533132
v 0.0246946723 0.00681279553 0.0166492601
v 0.0246134908 0.00687096966 0.0166369815
v 0.0246184976 0.00687871827 0.0166325708
v 0.0245897682 0.00688837422 0.0166264911
v 0.0245962055 0.00689493073 0.0166226764
v 0.0245032222 0.00696264161 0.0165816684
v 0.0244967849 0.00695596589 0.0165854831
v 0.0243964107 0.00702558411 0.0165110965
v 0.0244369418 0.00699387444 0.0165501972
v 0.0244026096 0.00702296151 0.0165168186
v 0.0244862945 0.00696371449 0.016580834
v 0.0244941623 0.00696919812 0.0165777345
v 0.0242674262 0.00707183732 0.016404285
v 0.0242853076 0.00706540001 0.0164222856
v 0.024292937 0.00706885708 0.0164154907
v 0.0243053348 0.00705824746 0.0164425512
v 0.0243906886 0.00701652421 0.0165124078
v 0.0242595584 0.00708280457 0.0163846155
v 0.024210921 0.00709353341 0.0163254877
v 0.024205795 0.00708459271 0.0163281103
v 0.0241825492 0.0070998515 0.0162910362
v 0.0241522701 0.00709579838 0.0162620683
v 0.0241310508 0.00709937466 0.016211166
v 0.0241240175 0.00709401024 0.0162158151
v 0.0240100534 0.00705777062 0.0159653564
v 0.0240036161 0.00705145253 0.0159696479
v 0.0240085037 0.00705395592 0.0159808536
v 0.0240801484 0.00709126843 0.016144528
v 0.0240936191 0.00709913624 0.016153111
v 0.0240582139 0.00707982434 0.0160944601
v 0.0240644128 0.00708638085 0.0160900493
v 0.024020663 0.00706730736 0.0159953972
v 0.0238841684 0.00693188561 0.0156231065
v 0.0238904865 0.0069382037 0.0156185766
v 0.0238838107 0.00692902459 0.0155961652
v 0.0238773734 0.00692270649 0.015600576
v 0.0238574655 0.00689528836 0.0155338188
v 0.023863426 0.00690077199 0.0155276199
v 0.0238512666 0.00687156571 0.0154923339
v 0.0238574655 0.0068778838 0.0154876848
v 0.023837796 0.00682066334 0.0154030462
v 0.0238439948 0.00682590855 0.0153969665
v 0.023837796 0.0068162526 0.0153968473
v 0.0238439948 0.00682257069 0.0153923174
v 0.0238376767 0.00678227795 0.0153502365
v 0.023844114 0.00678740395 0.015344276
v 0.0238433988 0.00674734963 0.015310659
v 0.0238507898 0.00675307168 0.0153068443
v 0.0238624723 0.00669370545 0.0152419944
v 0.02384924 0.00671218289 0.0152706047
v 0.0238677175 0.00667928113 0.0152297159
v 0.0238635452 0.00667224778 0.0152361532
v 0.0238830955 0.00663731946 0.0151939531
v 0.0238855989 0.00661121262 0.0151837011
v 0.0239033611 0.00659786118 0.0151683231
v 0.0238951356 0.00659201993 0.0151708265
v 0.0239086063 0.00656495942 0.0151527067
v 0.0239365012 0.00653336896 0.0151264806
v 0.0239443691 0.006508335 0.0151250501
v 0.0239492566 0.0065146531 0.0151186128
v 0.0239756019 0.00645898236 0.0151009699
v 0.0239953906 0.00644682301 0.0150898834
v 0.0240039737 0.00642178906 0.0150892873
v 0.0240111263 0.00642846478 0.0150863071
v 0.0240114839 0.00641189469 0.0150861879
v 0.0240778835 0.00635002507 0.0150709291
v 0.0240726383 0.00634466065 0.0150782009
v 0.0240862281 0.00634024991 0.0150690218
v 0.0241099508 0.00630365265 0.0150731941
v 0.0241550119 0.00627313508 0.0150712867
v 0.024148813 0.00626693619 0.0150760551
v 0.0248716981 0.00603042496 0.0157460113
v 0.0248780162 0.00603674305 0.0157416006
v 0.024951926 0.00611065281 0.0159808536
v 0.0249960334 0.00615476025 0.0160894533
v 0.0249895961 0.00614832295 0.0160937448
v 0.0250022323 0.00616358174 0.0161122223
v 0.024995795 0.00615714444 0.0161165138
v 0.0250143916 0.00618313206 0.0161842247
v 0.0250211866 0.00619040383 0.0161818405
v 0.0250193984 0.00620554341 0.016226544
v 0.0250258357 0.00621198071 0.0162223716
v 0.0250301273 0.00625382317 0.0163177391
v 0.0250366838 0.00626121415 0.0163151165
v 0.0250300081 0.0062579955 0.016323938
v 0.0250364454 0.0062644328 0.0163198848
v 0.0250283391 0.00629030121 0.0163718601
v 0.0250346572 0.0062978114 0.0163691183
v 0.0250209482 0.0063234414 0.0164125105
v 0.0250263126 0.00633047474 0.0164076229
v 0.0250118882 0.00638721837 0.0164743801
v 0.025013438 0.00635705842 0.0164537569
v 0.025006047 0.00640092743 0.0164871355
v 0.0249974639 0.0063953246 0.0164892812
v 0.0249888809 0.00644122017 0.0165240904
v 0.0249729068 0.00645373715 0.0165435215
v 0.024967304 0.00647924794 0.0165505548
v 0.0249626548 0.0064723338 0.0165568729
v 0.0249482305 0.00649844063 0.016575708
v 0.0249318988 0.0065415944 0.016593947
v 0.024910918 0.00655351533 0.0166043182
v 0.0249186666 0.00655983342 0.0166021724
v 0.0248783738 0.00660155667 0.0166293522
v 0.0248708637 0.00662599457 0.0166319748
v 0.0248492868 0.00663803471 0.0166415115
v 0.0248550088 0.00664423359 0.0166357895
v 0.0248415382 0.00664769066 0.0166447302
v 0.0247872979 0.00672160042 0.0166516443
v 0.024779907 0.00671444787 0.0166530748
v 0.0247788341 0.00673125638 0.0166536708
v 0.024742356 0.00675521744 0.0166582008
v 0.0247101695 0.00679849042 0.0166512867
v 0.0247037322 0.00679205311 0.0166553398
v 0.0235030563 0.00466178311 0.0125385662
v 0.0236627967 0.00482152356 0.0128512521
v 0.0234973342 0.00465606106 0.0125445266
v 0.0236569555 0.00481580151 0.0128570934
v 0.0218473584 0.00488696946 0.011286511
v 0.0218527229 0.00489233388 0.0112799545
v 0.0220104368 0.00461624516 0.011198773
v 0.0220742137 0.00452445401 0.0111607452
v 0.0220688493 0.00451908959 0.0111674209
v 0.0221098573 0.00445018662 0.0111447712
v 0.0221151025 0.00445555104 0.0111382146
v 0.0222339542 0.00424431218 0.0110793253
v 0.0222393186 0.0042496766 0.0110726495
v 0.021671644 0.00283251656 0.00964631039
v 0.0212688358 0.00291274441 0.00943662125
v 0.0210271985 0.00267110718 0.00913371044
v 0.0209704549 0.00260876072 0.00906111199
v 0.0209331424 0.00269924058 0.0090934177
v 0.0208884389 0.00279913796 0.00912715393
v 0.0206103237 0.00347445859 0.00937487084
v 0.0206138999 0.00347386254 0.00937677819
v 0.0205989988 0.00347684277 0.009369268
v 0.0205531032 0.0035927142 0.00941361386
v 0.0177098424 0.00895272149 0.0112277408
v 0.0177152068 0.0089580859 0.0112211843
v 0.020383826 0.00708030118 0.0119086643
v 0.0203893096 0.0070857848 0.0119024654
f 1 2 3
f 3 2 4
f 3 4 5
f 5 4 6
f 5 6 7
f 7 6 8
f 7 8 9
f 9 8 10
f 9 10 11
f 11 10 12
f 11 12 13
f 13 12 14
f 13 14 15
f 15 14 16
f 15 16 17
f 17 16 18
f 17 18 19
f 19 18 20
f 19 20 21
f 21 20 22
f 21 22 23
f 23 22 24
f 23 24 25
f 25 24 26
f 25 26 27
f 27 26 28
f 27 28 29
f 29 28 30
f 29 30 31
f 31 30 32
f 31 32 33
f 33 32 34
f 33 34 35
f 35 34 36
f 35 36 37
f 37 36 38
f 37 38 39
f 39 38 40
f 39 40 41
f 41 40 42
f 41 42 43
f 43 42 44
f 43 44 45
f 45 44 46
f 45 46 47
f 47 46 48
f 47 48 49
f 49 48 50
f 49 50 51
f 51 50 52
f 51 52 53
f 53 52 54
f 53 54 55
f 55 54 56
f 55 56 57
f 57 56 58
f 57 58 59
f 59 58 60
f 59 60 61
f 61 60 62
f 61 62 63
f 63 62 64
f 63 64 65
f 65 64 66
f 65 66 67
f 67 66 68
f 67 68 69
f 69 68 70
f 69 70 71
f 71 70 72
f 71 72 73
f 73 72 74
f 73 74 75
f 75 74 76
f 75 76 77
f 77 76 78
f 77 78 79
f 79 78 80
f 79 80 1
f 1 80 2
f 81 82 83
f 83 82 84
f 83 84 85
f 85 84 86
f 85 86 87
f 87 86 88
f 87 88 89
f 89 88 90
f 89 90 91
f 91 90 92
f 91 92 93
f 93 92 94
f 93 94 95
f 95 94 96
f 95 96 97
f 97 96 98
f 97 98 99
f 99 98 100
f 99 100 101
f 101 100 102
f 101 102 103
f 103 102 104
f 103 104 105
f 105 104 106
f 105 106 107
f 107 106 108
f 107 108 109
f 109 108 110
f 109 110 111
f 111 110 112
f 111 112 113
f 113 112 114
f 113 114 115
f 115 114 116
f 115 116 117
f 117 116 118
f 117 118 119
f 119 118 120
f 119 120 121
f 121 120 122
f 121 122 123
f 123 122 124
f 123 124 125
f 125 124 126
f 125 126 127
f 127 126 128
f 127 128 81
f 81 128 82
f 129 97 99
f 99 101 129
f 129 101 103
f 129 103 130
f 83 85 131
f 131 85 87
f 131 87 89
f 89 91 131
f 131 91 93
f 131 93 129
f 129 93 95
f 129 95 97
f 103 105 130
f 130 105 107
f 130 107 132
f 132 107 133
f 113 115 41
f 117 119 33
f 33 119 121
f 33 121 31
f 31 121 123
f 31 123 29
f 29 123 125
f 29 125 27
f 27 125 127
f 27 127 25
f 25 127 81
f 25 81 83
f 133 107 134
f 134 107 109
f 134 109 135
f 135 109 111
f 135 111 136
f 33 35 117
f 117 35 37
f 117 37 115
f 115 37 39
f 115 39 41
f 137 138 139
f 139 138 140
f 140 138 141
f 140 141 142
f 131 140 143
f 143 144 131
f 131 144 145
f 131 145 146
f 146 147 131
f 131 147 148
f 131 148 149
f 150 151 13
f 13 151 11
f 142 152 140
f 140 152 153
f 140 153 143
f 13 15 150
f 150 15 17
f 150 17 149
f 149 17 19
f 149 19 131
f 131 19 21
f 131 21 83
f 83 21 23
f 83 23 25
f 139 154 137
f 137 154 155
f 137 155 156
f 156 155 157
f 156 157 158
f 158 157 159
f 158 159 160
f 151 161 11
f 11 161 162
f 11 162 9
f 9 162 163
f 9 163 7
f 7 163 164
f 7 164 5
f 1 165 160
f 160 165 166
f 160 166 158
f 1 3 165
f 165 3 5
f 165 5 167
f 167 5 164
f 168 169 170
f 71 73 171
f 172 61 63
f 171 73 173
f 173 73 75
f 173 75 174
f 174 75 77
f 174 77 175
f 176 177 178
f 178 179 176
f 176 179 180
f 176 180 169
f 169 180 181
f 169 181 170
f 77 79 175
f 175 79 1
f 175 1 182
f 182 1 160
f 182 160 183
f 183 160 184
f 183 184 185
f 185 184 186
f 185 186 170
f 170 186 187
f 170 187 168
f 171 188 71
f 71 188 189
f 71 189 69
f 69 189 190
f 69 190 67
f 67 190 191
f 67 191 65
f 65 191 192
f 65 192 63
f 63 192 193
f 63 193 172
f 172 193 194
f 172 194 195
f 195 196 172
f 172 196 197
f 172 197 176
f 176 197 198
f 176 198 177
f 199 200 201
f 201 200 202
f 203 204 136
f 136 204 205
f 206 207 172
f 49 208 47
f 47 208 209
f 207 210 172
f 172 210 211
f 172 211 61
f 61 211 212
f 61 212 59
f 111 113 136
f 136 113 41
f 136 41 203
f 203 41 43
f 203 43 209
f 209 43 45
f 209 45 47
f 201 213 199
f 199 213 214
f 199 214 215
f 215 214 216
f 215 216 205
f 205 216 217
f 205 217 136
f 59 212 57
f 57 212 218
f 57 218 55
f 55 218 219
f 55 219 53
f 53 219 220
f 53 220 51
f 51 220 221
f 51 221 49
f 49 221 222
f 49 222 208
f 200 223 202
f 202 223 224
f 202 224 225
f 225 226 202
f 202 226 227
f 202 227 172
f 172 227 228
f 172 228 206
f 229 230 231
f 232 233 234
f 234 233 235
f 234 235 236
f 237 238 239
f 239 238 240
f 241 242 229
f 229 242 243
f 229 243 244
f 244 243 245
f 246 247 231
f 231 247 248
f 231 248 229
f 229 248 249
f 229 249 241
f 250 251 252
f 235 253 236
f 236 253 254
f 236 254 231
f 231 254 255
f 231 255 246
f 252 256 250
f 250 256 257
f 250 257 258
f 258 257 259
f 258 259 260
f 260 259 261
f 260 261 240
f 240 261 262
f 240 262 239
f 263 264 251
f 251 264 265
f 251 265 252
f 266 267 268
f 268 267 269
f 268 269 270
f 271 272 237
f 237 272 273
f 237 273 238
f 271 274 272
f 272 274 275
f 272 275 276
f 251 277 263
f 263 277 244
f 263 244 278
f 278 244 245
f 270 279 268
f 268 279 280
f 268 280 281
f 281 280 282
f 281 282 232
f 232 282 283
f 232 283 233
f 284 285 272
f 286 287 284
f 284 287 288
f 284 288 289
f 288 290 289
f 289 290 291
f 289 291 292
f 276 293 272
f 272 293 294
f 272 294 284
f 284 294 295
f 284 295 286
f 268 296 266
f 266 296 297
f 266 297 292
f 292 297 298
f 292 298 289
f 299 284 300
f 300 284 301
f 302 303 289
f 289 303 304
f 289 304 305
f 306 307 140
f 289 308 309
f 310 311 131
f 131 311 312
f 312 313 131
f 131 313 314
f 131 314 140
f 140 314 315
f 140 315 306
f 305 316 289
f 289 316 317
f 289 317 284
f 284 317 318
f 284 318 301
f 307 319 140
f 140 319 320
f 140 320 289
f 289 320 321
f 289 321 322
f 322 323 289
f 289 323 324
f 289 324 308
f 325 129 326
f 326 129 327
f 328 329 131
f 299 330 284
f 284 330 331
f 284 331 129
f 129 331 332
f 129 332 327
f 325 333 129
f 129 333 334
f 129 334 131
f 131 334 335
f 131 335 328
f 309 336 289
f 289 336 337
f 289 337 302
f 302 337 338
f 302 338 339
f 329 340 131
f 131 340 341
f 131 341 342
f 339 343 302
f 302 343 344
f 302 344 342
f 342 344 345
f 342 345 131
f 131 345 346
f 131 346 310
f 347 348 176
f 349 350 229
f 348 351 176
f 176 351 352
f 176 352 229
f 229 352 353
f 229 353 354
f 229 350 230
f 230 350 355
f 230 355 356
f 357 358 169
f 169 358 359
f 354 360 229
f 229 360 361
f 229 361 349
f 356 362 230
f 230 362 363
f 230 363 364
f 364 365 230
f 230 365 366
f 230 366 169
f 169 366 367
f 169 367 357
f 359 368 169
f 169 368 369
f 169 369 176
f 176 369 370
f 176 370 347
f 371 172 176
f 202 172 372
f 372 373 202
f 202 373 374
f 202 374 375
f 375 376 202
f 202 376 377
f 202 377 244
f 244 377 378
f 244 378 379
f 379 380 244
f 244 380 381
f 244 381 382
f 383 384 229
f 229 384 385
f 371 386 172
f 172 386 387
f 172 387 388
f 176 389 390
f 390 391 176
f 176 391 392
f 176 392 371
f 229 393 394
f 394 395 229
f 229 395 396
f 229 396 176
f 176 396 397
f 176 397 389
f 382 398 244
f 244 398 399
f 244 399 229
f 229 399 400
f 229 400 383
f 385 401 229
f 229 401 402
f 229 402 403
f 403 404 229
f 229 404 405
f 229 405 393
f 406 407 401
f 401 407 408
f 408 409 401
f 401 409 410
f 401 410 402
f 411 412 172
f 172 412 413
f 172 413 372
f 388 414 172
f 172 414 415
f 172 415 406
f 401 416 406
f 406 416 417
f 406 417 172
f 172 417 418
f 172 418 411
f 419 420 421
f 419 422 423
f 424 422 419
f 421 424 419
f 419 425 426
f 427 425 419
f 423 427 419
f 419 428 429
f 419 430 431
f 432 430 419
f 433 432 419
f 419 434 435
f 436 434 419
f 431 436 419
f 419 437 438
f 439 437 419
f 435 439 419
f 419 440 441
f 442 440 419
f 438 442 419
f 441 420 419
f 443 444 433
f 419 445 446
f 447 445 429
f 429 445 419
f 426 428 419
f 443 433 446
f 446 433 419
f 448 447 429
f 449 444 450
f 450 444 451
f 450 451 452
f 451 448 452
f 452 448 429
f 452 429 453
f 453 429 428
f 453 428 454
f 454 428 426
f 454 426 455
f 455 426 425
f 455 425 456
f 456 425 427
f 456 427 457
f 457 427 423
f 457 423 458
f 458 423 422
f 458 422 459
f 459 422 424
f 459 424 460
f 460 424 421
f 460 421 461
f 461 421 420
f 461 420 462
f 462 420 441
f 462 441 463
f 463 441 440
f 463 440 464
f 464 440 442
f 464 442 465
f 465 442 438
f 465 438 466
f 466 438 437
f 466 437 467
f 467 437 439
f 467 439 468
f 468 439 435
f 468 435 469
f 469 435 434
f 469 434 470
f 470 434 436
f 470 436 471
f 471 436 431
f 471 431 472
f 472 431 430
f 472 430 473
f 473 430 432
f 473 432 449
f 449 432 433
f 449 433 444
f 460 313 459
f 459 313 312
f 459 312 458
f 458 312 311
f 458 311 457
f 457 311 310
f 457 310 456
f 456 310 346
f 456 346 455
f 455 346 345
f 455 345 454
f 454 345 344
f 454 344 453
f 453 344 343
f 453 343 452
f 452 343 339
f 452 339 450
f 450 339 338
f 450 338 449
f 449 338 337
f 449 337 473
f 473 337 336
f 473 336 472
f 472 336 309
f 472 309 471
f 471 309 308
f 471 308 470
f 470 308 324
f 470 324 469
f 469 324 323
f 469 323 468
f 468 323 322
f 468 322 467
f 467 322 321
f 467 321 466
f 466 321 320
f 466 320 465
f 465 320 319
f 465 319 464
f 464 319 307
f 464 307 463
f 463 307 306
f 463 306 462
f 462 306 315
f 462 315 461
f 461 315 314
f 461 314 460
f 460 314 313
f 474 475 476
f 474 477 478
f 479 477 474
f 476 479 474
f 474 480 481
f 482 480 474
f 478 482 474
f 474 483 484
f 485 483 474
f 481 485 474
f 474 486 487
f 488 486 474
f 484 488 474
f 474 489 490
f 491 489 474
f 487 491 474
f 474 492 493
f 494 492 474
f 490 494 474
f 474 495 496
f 497 475 474
f 498 499 497
f 474 500 501
f 502 500 496
f 496 500 474
f 493 495 474
f 498 497 501
f 501 497 474
f 503 502 496
f 504 499 505
f 505 499 506
f 505 506 507
f 506 503 507
f 507 503 496
f 507 496 508
f 508 496 495
f 508 495 509
f 509 495 493
f 509 493 510
f 510 493 492
f 510 492 511
f 511 492 494
f 511 494 512
f 512 494 490
f 512 490 513
f 513 490 489
f 513 489 514
f 514 489 491
f 514 491 515
f 515 491 487
f 515 487 516
f 516 487 486
f 516 486 517
f 517 486 488
f 517 488 518
f 518 488 484
f 518 484 519
f 519 484 483
f 519 483 520
f 520 483 485
f 520 485 521
f 521 485 481
f 521 481 522
f 522 481 480
f 522 480 523
f 523 480 482
f 523 482 524
f 524 482 478
f 524 478 525
f 525 478 477
f 525 477 526
f 526 477 479
f 526 479 527
f 527 479 476
f 527 476 528
f 528 476 475
f 528 475 504
f 504 475 497
f 504 497 499
f 529 402 530
f 530 402 410
f 530 410 531
f 531 410 409
f 531 409 532
f 532 409 408
f 532 408 533
f 533 408 407
f 533 407 534
f 534 407 406
f 534 406 535
f 535 406 415
f 535 415 536
f 536 415 414
f 536 414 537
f 537 414 388
f 537 388 538
f 538 388 387
f 538 387 539
f 539 387 386
f 539 386 540
f 540 386 371
f 540 371 541
f 541 371 392
f 541 392 542
f 542 392 391
f 542 391 543
f 543 391 390
f 543 390 544
f 544 390 389
f 544 389 545
f 545 389 397
f 545 397 546
f 546 397 396
f 546 396 547
f 547 396 395
f 547 395 548
f 548 395 394
f 548 394 549
f 549 394 393
f 549 393 550
f 550 393 405
f 550 405 551
f 551 405 404
f 551 404 552
f 552 404 403
f 552 403 529
f 529 403 402
f 230 169 231
f 231 169 168
f 231 168 236
f 236 168 187
f 236 187 234
f 234 187 186
f 234 186 232
f 186 184 232
f 232 184 160
f 232 160 281
f 281 160 159
f 281 159 268
f 268 159 157
f 268 157 296
f 296 157 155
f 296 155 297
f 297 155 154
f 297 154 298
f 298 154 139
f 285 130 272
f 272 130 132
f 272 132 273
f 273 132 133
f 273 133 238
f 238 133 134
f 238 134 240
f 134 135 240
f 240 135 136
f 240 136 260
f 260 136 217
f 260 217 258
f 258 217 216
f 258 216 250
f 250 216 214
f 250 214 251
f 251 214 213
f 251 213 277
f 277 213 201
f 553 554 555
f 556 554 553
f 553 557 558
f 559 557 553
f 555 559 553
f 553 560 561
f 562 560 553
f 558 562 553
f 553 563 564
f 565 563 553
f 561 565 553
f 553 566 567
f 568 566 553
f 564 568 553
f 553 569 570
f 571 569 553
f 567 571 553
f 553 572 573
f 574 572 553
f 570 574 553
f 553 575 576
f 577 575 553
f 573 577 553
f 576 556 553
f 578 368 579
f 579 368 359
f 579 359 580
f 580 359 358
f 580 358 581
f 581 358 357
f 581 357 582
f 582 357 367
f 582 367 583
f 583 367 366
f 583 366 584
f 584 366 365
f 584 365 585
f 585 365 364
f 585 364 586
f 586 364 363
f 586 363 587
f 587 363 362
f 587 362 588
f 588 362 356
f 588 356 589
f 589 356 355
f 589 355 590
f 590 355 350
f 590 350 591
f 591 350 349
f 591 349 592
f 592 349 361
f 592 361 593
f 593 361 360
f 593 360 594
f 594 360 354
f 594 354 595
f 595 354 353
f 595 353 596
f 596 353 352
f 596 352 597
f 597 352 351
f 597 351 598
f 598 351 348
f 598 348 599
f 599 348 347
f 599 347 600
f 600 347 370
f 600 370 601
f 601 370 369
f 601 369 578
f 578 369 368
f 602 603 604
f 605 603 602
f 602 606 607
f 608 606 602
f 604 608 602
f 602 609 610
f 611 609 602
f 607 611 602
f 602 612 613
f 614 612 602
f 610 614 602
f 602 615 616
f 617 615 602
f 613 617 602
f 602 618 619
f 620 618 602
f 616 620 602
f 602 621 622
f 623 621 602
f 619 623 602
f 602 624 625
f 626 624 602
f 622 626 602
f 625 605 602
f 627 628 629
f 629 628 630
f 629 630 631
f 631 630 632
f 631 632 633
f 633 632 634
f 633 634 635
f 635 634 636
f 635 636 637
f 637 636 638
f 637 638 639
f 639 638 640
f 639 640 641
f 641 640 642
f 641 642 643
f 643 642 644
f 643 644 645
f 645 644 646
f 645 646 647
f 647 646 648
f 647 648 649
f 649 648 650
f 649 650 651
f 651 650 652
f 651 652 653
f 653 652 654
f 653 654 655
f 655 654 656
f 655 656 657
f 657 656 658
f 657 658 659
f 659 658 660
f 659 660 661
f 661 660 662
f 661 662 663
f 663 662 664
f 663 664 665
f 665 664 666
f 665 666 667
f 667 666 668
f 667 668 669
f 669 668 670
f 669 670 671
f 671 670 672
f 671 672 673
f 673 672 674
f 673 674 627
f 627 674 628
f 675 676 677
f 677 676 678
f 677 678 679
f 679 678 680
f 679 680 681
f 681 680 682
f 681 682 683
f 683 682 684
f 683 684 685
f 685 684 686
f 685 686 687
f 687 686 688
f 687 688 689
f 689 688 690
f 689 690 691
f 691 690 692
f 691 692 693
f 693 692 694
f 693 694 695
f 695 694 696
f 695 696 697
f 697 696 698
f 697 698 699
f 699 698 700
f 699 700 701
f 701 700 702
f 701 702 703
f 703 702 704
f 703 704 705
f 705 704 706
f 705 706 707
f 707 706 708
f 707 708 709
f 709 708 710
f 709 710 711
f 711 710 712
f 711 712 713
f 713 712 714
f 713 714 715
f 715 714 716
f 715 716 717
f 717 716 718
f 717 718 719
f 719 718 720
f 719 720 721
f 721 720 722
f 721 722 675
f 675 722 676
f 723 724 725
f 725 724 726
f 726 727 725
f 725 727 728
f 729 730 731
f 729 731 732
f 733 734 735
f 731 736 732
f 732 736 737
f 732 737 738
f 738 737 739
f 738 739 740
f 740 739 741
f 740 741 742
f 742 741 743
f 742 743 744
f 744 743 745
f 744 745 746
f 746 745 747
f 746 747 748
f 748 747 749
f 748 749 735
f 735 749 750
f 735 750 733
f 734 733 751
f 751 733 752
f 751 752 753
f 753 752 754
f 753 754 755
f 755 754 756
f 755 756 757
f 757 756 758
f 757 758 759
f 759 758 760
f 759 760 761
f 762 763 764
f 764 763 765
f 766 767 768
f 766 768 769
f 769 768 770
f 769 770 771
f 771 770 772
f 771 772 773
f 773 772 774
f 773 774 775
f 775 774 776
f 775 776 777
f 777 776 778
f 777 778 779
f 780 781 782
f 780 782 783
f 783 782 784
f 783 784 785
f 785 784 786
f 785 786 779
f 779 786 787
f 779 787 777
f 781 780 788
f 788 780 789
f 788 789 790
f 790 789 791
f 790 791 792
f 792 791 793
f 792 793 794
f 794 793 795
f 794 795 796
f 796 795 797
f 796 797 798
f 798 797 799
f 798 799 800
f 800 799 801
f 800 801 802
f 801 803 802
f 802 803 763
f 802 763 762
f 804 805 806
f 806 805 807
f 806 807 808
f 808 807 809
f 810 811 804
f 804 811 812
f 804 812 813
f 813 814 804
f 804 814 815
f 804 815 816
f 816 817 804
f 804 817 818
f 804 818 819
f 820 821 822
f 822 821 823
f 822 823 824
f 824 823 805
f 824 805 825
f 825 805 804
f 825 804 826
f 826 804 819
f 827 828 829
f 829 828 830
f 830 831 829
f 829 831 832
f 829 832 833
f 832 834 833
f 833 834 835
f 833 835 836
f 835 837 836
f 836 837 838
f 836 838 839
f 839 838 840
f 839 840 841
f 841 840 842
f 842 840 843
f 842 843 844
f 844 843 845
f 844 845 846
f 846 845 847
f 846 847 848
f 848 847 849
f 849 847 850
f 849 850 851
f 851 850 852
f 851 852 853
f 853 852 854
f 854 852 855
f 854 855 856
f 856 855 857
f 857 855 858
f 857 858 859
f 859 858 860
f 859 860 861
f 810 804 861
f 861 804 862
f 861 862 863
f 863 864 861
f 861 864 865
f 861 865 866
f 866 867 861
f 861 867 868
f 861 868 869
f 869 870 861
f 861 870 871
f 861 871 859
f 872 873 874
f 874 873 875
f 876 877 878
f 878 877 879
f 878 879 880
f 880 879 873
f 873 879 875
f 875 879 881
f 875 881 882
f 879 883 881
f 881 883 884
f 881 884 885
f 885 884 886
f 885 886 887
f 887 886 888
f 887 888 889
f 889 888 890
f 891 892 893
f 893 892 894
f 893 894 895
f 896 808 897
f 897 808 809
f 898 825 826
f 818 899 819
f 819 899 900
f 819 900 826
f 826 900 901
f 826 901 898
f 816 902 817
f 817 902 899
f 817 899 818
f 814 903 815
f 815 903 904
f 815 904 816
f 816 904 905
f 816 905 902
f 906 907 908
f 909 910 911
f 911 910 912
f 911 912 913
f 913 912 914
f 913 914 915
f 915 914 916
f 915 916 908
f 908 916 917
f 908 917 906
f 918 919 920
f 920 919 921
f 920 921 922
f 923 924 925
f 925 924 926
f 925 926 927
f 927 926 928
f 927 928 929
f 929 928 930
f 929 930 931
f 931 930 932
f 931 932 933
f 933 932 934
f 933 934 935
f 935 934 936
f 935 936 937
f 937 936 938
f 937 938 939
f 939 938 940
f 939 940 941
f 941 940 942
f 941 942 918
f 918 942 943
f 918 943 919
f 923 944 924
f 924 944 945
f 945 944 946
f 946 944 947
f 946 947 948
f 947 949 948
f 948 949 950
f 948 950 951
f 952 953 954
f 955 956 957
f 957 956 958
f 957 958 959
f 959 958 960
f 959 960 961
f 961 960 962
f 961 962 954
f 954 962 963
f 954 963 952
f 964 965 966
f 966 965 967
f 968 969 970
f 970 969 971
f 971 969 972
f 972 969 973
f 972 973 974
f 974 973 975
f 974 975 976
f 977 978 979
f 979 978 980
f 979 980 976
f 976 980 981
f 976 981 974
f 982 983 984
f 984 983 985
f 984 985 986
f 986 985 987
f 986 987 988
f 988 987 989
f 988 989 990
f 990 989 991
f 990 991 992
f 992 991 993
f 992 993 994
f 994 993 995
f 994 995 996
f 996 995 997
f 996 997 998
f 998 997 999
f 998 999 1000
f 999 1001 1000
f 1000 1001 1002
f 1000 1002 1003
f 1004 1005 1006
f 1006 1005 1007
f 1007 1008 1006
f 1006 1008 1009
f 1010 1011 1012
f 1012 1011 1013
f 1013 1011 1014
f 1014 1011 1015
f 1015 1016 1014
f 1014 1016 1017
f 1018 1019 1020
f 1020 1019 1021
f 1022 1023 1024
f 1024 1023 1025
f 1026 1027 1028
f 1029 1030 1031
f 1031 1030 1032
f 1031 1032 1033
f 1033 1032 1027
f 1027 1032 1034
f 1027 1034 1028
f 1026 1028 1035
f 1035 1028 1036
f 1035 1036 1037
f 1036 1038 1037
f 1037 1038 1039
f 1037 1039 1040
f 1041 1042 1043
f 1044 1045 1046
f 1046 1045 1047
f 1046 1047 1043
f 1043 1047 1048
f 1043 1048 1041
f 1049 1050 1051
f 1051 1050 1052
f 1051 1052 1053
f 1052 1054 1053
f 1053 1054 1055
f 1053 1055 1056
f 1057 1058 1059
f 1059 1058 1060
f 1056 1055 1060
f 1060 1055 1061
f 1060 1061 1059
f 1062 1063 1064
f 1064 1063 1065
f 1064 1065 1057
f 1057 1065 1066
f 1057 1066 1058
f 1064 1067 1062
f 1062 1067 1068
f 1062 1068 1069
f 1069 1068 1070
f 1069 1070 1071
f 1071 1070 1072
f 1071 1072 1073
f 1074 1075 1076
f 1073 1072 1077
f 1077 1072 1078
f 1077 1078 1079
f 1079 1078 1080
f 1079 1080 1076
f 1076 1080 1081
f 1076 1081 1074
f 1082 1075 1083
f 1083 1075 1074
f 1083 1084 1082
f 1082 1084 1085
f 1085 1084 1086
f 1086 1084 1087
f 1086 1087 1088
f 1088 1087 1089
f 1088 1089 1090
f 1090 1089 1091
f 1090 1091 1092
f 1092 1091 1093
f 1092 1093 1094
f 1094 1093 1095
f 1094 1095 1096
f 1095 1097 1096
f 1096 1097 1098
f 1096 1098 1099
f 1099 1098 1100
f 1099 1100 1101
f 1101 1100 1102
f 1101 1102 1103
f 1103 1102 1104
f 1103 1104 1105
f 1105 1104 1106
f 1106 1104 1107
f 1106 1107 1108
f 1108 1107 1109
f 1108 1109 1110
f 1110 1109 1111
f 1110 1111 1112
f 1112 1111 1113
f 1112 1113 1114
f 1114 1113 1115
f 1114 1115 1116
f 1116 1115 1117
f 1116 1117 1118
f 1118 1117 1119
f 1118 1119 1120
f 1121 1122 1123
f 1123 1122 1124
f 1123 1124 1125
f 1124 1126 1125
f 1125 1126 1127
f 1127 1126 1128
f 1128 1126 1129
f 1128 1129 1130
f 1130 1129 1131
f 1130 1131 1132
f 1132 1131 1133
f 1132 1133 1134
f 1134 1133 1135
f 1134 1135 1136
f 1136 1135 1137
f 1136 1137 1138
f 1137 1139 1138
f 1138 1139 1140
f 1138 1140 1141
f 1141 1140 1142
f 1141 1142 1143
f 1143 1142 1144
f 1143 1144 1145
f 1145 1144 1146
f 1145 1146 1147
f 1147 1146 1148
f 1148 1146 1149
f 1148 1149 1150
f 1150 1149 1151
f 1150 1151 1152
f 1152 1151 1153
f 1152 1153 1154
f 1154 1153 1155
f 1154 1155 1156
f 1156 1155 1157
f 1156 1157 1158
f 1158 1157 1159
f 1158 1159 1160
f 1160 1159 1161
f 1160 1161 1162
f 1163 1164 1165
f 1165 1164 1166
f 1167 1168 1169
f 1169 1168 1170
f 1169 1170 1171
f 1172 1173 1174
f 1174 1173 1175
f 1176 889 1177
f 1177 889 890
f 888 886 1178
f 1178 886 1179
f 1180 884 1181
f 1181 884 883
f 880 1182 878
f 878 1182 1183
f 1184 873 1185
f 1185 873 872
f 1186 1187 1188
f 1188 1187 1189
