v 0.0095791695 0.00597715634 0.0441904207
v 0.00935040687 0.00620591896 0.0453977724
v 0.00989948486 0.00565684098 0.0442500253
v 0.00989948486 0.00565684098 0.0455000539
v 0.0102198002 0.00533652561 0.0441904207
v 0.0104485628 0.00510776299 0.0453977724
v 0.0105181811 0.00503814476 0.0440155407
v 0.0109602091 0.00459623593 0.0450980802
v 0.010774481 0.00478184479 0.0437374254
v 0.0113994954 0.00415683049 0.0446213623
v 0.0109711764 0.00458514946 0.0433750291
v 0.0117366192 0.00381970661 0.0440000435
v 0.0110947964 0.00446152943 0.0429529091
v 0.0119485733 0.00360787171 0.0432764431
v 0.0111368773 0.00441944855 0.042500033
v 0.0120208142 0.00353551167 0.042500033
v 0.0110947964 0.00446152943 0.0420470377
v 0.0119485733 0.00360787171 0.0417235036
v 0.0109711764 0.00458514946 0.0416250368
v 0.0117366192 0.00381970661 0.0410000225
v 0.010774481 0.00478184479 0.0412625213
v 0.0113994954 0.00415683049 0.0403787037
v 0.0105181811 0.00503814476 0.0409844061
v 0.0109602091 0.00459623593 0.0399018665
v 0.0102198002 0.00533652561 0.0408096452
v 0.0104485628 0.00510776299 0.0396021743
v 0.00989948486 0.00565684098 0.0407500406
v 0.00989948486 0.00565684098 0.039500012
v 0.0095791695 0.00597715634 0.0408096452
v 0.00935040687 0.00620591896 0.0396021743
v 0.00928078865 0.00627553719 0.0409844061
v 0.00883887981 0.00671756523 0.0399018665
v 0.00902448868 0.00653183716 0.0412625213
v 0.00839947437 0.00715685147 0.0403787037
v 0.00882779335 0.00672853249 0.0416250368
v 0.0080623505 0.00749397534 0.0410000225
v 0.00870417332 0.00685215252 0.0420470377
v 0.00785051559 0.00770592945 0.0417235036
v 0.00866209244 0.0068942334 0.042500033
v 0.00777815555 0.00777817028 0.042500033
v 0.00870417332 0.00685215252 0.0429529091
v 0.00785051559 0.00770592945 0.0432764431
v 0.00882779335 0.00672853249 0.0433750291
v 0.0080623505 0.00749397534 0.0440000435
v 0.00902448868 0.00653183716 0.0437374254
v 0.00839947437 0.00715685147 0.0446213623
v 0.00928078865 0.00627553719 0.0440155407
v 0.00883887981 0.00671756523 0.0450980802
v -0.00279511238 0.0183514382 0.0266903778
v -0.00302387501 0.0185803201 0.0278977295
v -0.00247491623 0.0180312421 0.0267499824
v -0.00247491623 0.0180312421 0.028000011
v -0.00215460087 0.0177109267 0.0266903778
v -0.00192583824 0.0174821641 0.0278977295
v -0.00185610081 0.0174125459 0.0265154977
v -0.00141419197 0.0169705178 0.0275980373
v -0.00159992005 0.0171562459 0.0262373825
v -0.000974905741 0.0165312316 0.0271213194
v -0.00140322472 0.0169595506 0.0258749862
v -0.00063778187 0.0161941077 0.0265000005
v -0.00127960468 0.0168359305 0.0254529853
v -0.000425827753 0.0159821536 0.0257764001
v -0.0012374046 0.0167937304 0.02499999
v -0.000353586924 0.0159099128 0.02499999
v -0.00127960468 0.0168359305 0.024547114
v -0.000425827753 0.0159821536 0.0242235799
v -0.00140322472 0.0169595506 0.0241249939
v -0.00063778187 0.0161941077 0.0234999796
v -0.00159992005 0.0171562459 0.0237625976
v -0.000974905741 0.0165312316 0.0228786607
v -0.00185610081 0.0174125459 0.0234844823
v -0.00141419197 0.0169705178 0.0224019428
v -0.00215460087 0.0177109267 0.0233096023
v -0.00192583824 0.0174821641 0.0221022506
v -0.00247491623 0.0180312421 0.0232499977
v -0.00247491623 0.0180312421 0.0219999691
v -0.00279511238 0.0183514382 0.0233096023
v -0.00302387501 0.0185803201 0.0221022506
v -0.00309361244 0.0186499383 0.0234844823
v -0.00353552128 0.0190918471 0.0224019428
v -0.00334991242 0.0189062383 0.0237625976
v -0.00397492672 0.0195312526 0.0228786607
v -0.00354648853 0.0191029336 0.0241249939
v -0.00431205059 0.0198683764 0.0234999796
v -0.00367010857 0.0192265536 0.024547114
v -0.0045238855 0.0200802113 0.0242235799
v -0.00371230866 0.0192686345 0.02499999
v -0.00459624554 0.0201525714 0.02499999
v -0.00367010857 0.0192265536 0.0254529853
v -0.0045238855 0.0200802113 0.0257764001
v -0.00354648853 0.0191029336 0.0258749862
v -0.00431205059 0.0198683764 0.0265000005
v -0.00334991242 0.0189062383 0.0262373825
v -0.00397492672 0.0195312526 0.0271213194
v -0.00309361244 0.0186499383 0.0265154977
v -0.00353552128 0.0190918471 0.0275980373
v -0.00126076962 -0.0175783609 0.00581408936
v -0.00125790859 -0.0175812219 0.00580502945
v -0.0008576038 -0.0170210574 0.00576604801
v -0.000854742777 -0.0170239185 0.0057568689
f 1 2 3
f 3 2 4
f 3 4 5
f 5 4 6
f 5 6 7
f 7 6 8
f 7 8 9
f 9 8 10
f 9 10 11
f 11 10 12
f 11 12 13
f 13 12 14
f 13 14 15
f 15 14 16
f 15 16 17
f 17 16 18
f 17 18 19
f 19 18 20
f 19 20 21
f 21 20 22
f 21 22 23
f 23 22 24
f 23 24 25
f 25 24 26
f 25 26 27
f 27 26 28
f 27 28 29
f 29 28 30
f 29 30 31
f 31 30 32
f 31 32 33
f 33 32 34
f 33 34 35
f 35 34 36
f 35 36 37
f 37 36 38
f 37 38 39
f 39 38 40
f 39 40 41
f 41 40 42
f 41 42 43
f 43 42 44
f 43 44 45
f 45 44 46
f 45 46 47
f 47 46 48
f 47 48 1
f 1 48 2
f 49 50 51
f 51 50 52
f 51 52 53
f 53 52 54
f 53 54 55
f 55 54 56
f 55 56 57
f 57 56 58
f 57 58 59
f 59 58 60
f 59 60 61
f 61 60 62
f 61 62 63
f 63 62 64
f 63 64 65
f 65 64 66
f 65 66 67
f 67 66 68
f 67 68 69
f 69 68 70
f 69 70 71
f 71 70 72
f 71 72 73
f 73 72 74
f 73 74 75
f 75 74 76
f 75 76 77
f 77 76 78
f 77 78 79
f 79 78 80
f 79 80 81
f 81 80 82
f 81 82 83
f 83 82 84
f 83 84 85
f 85 84 86
f 85 86 87
f 87 86 88
f 87 88 89
f 89 88 90
f 89 90 91
f 91 90 92
f 91 92 93
f 93 92 94
f 93 94 95
f 95 94 96
f 95 96 49
f 49 96 50
f 97 98 99
f 99 98 100
