v -0.0280038207 -0.000386491885 0.0094565292
v -0.0285946219 -0.000396743884 0.00934649903
v -0.0278555243 -0.000534788241 0.00895000893
v -0.0284162848 -0.000575080981 0.00873745877
v -0.0276194899 -0.000770822634 0.00851513344
v -0.0281325667 -0.00085879909 0.00821460682
v -0.0273120492 -0.0010783826 0.00818134743
v -0.0277627795 -0.00122858631 0.00781322914
v -0.0269538253 -0.00143648731 0.00797153908
v -0.0273321955 -0.00165917026 0.00756098229
v -0.0265694945 -0.00182081806 0.00790001351
v -0.0268700211 -0.00212134468 0.00747503239
v -0.0261851638 -0.00220514881 0.00797153908
v -0.0264079659 -0.00258339988 0.00756098229
v -0.025827059 -0.00256325351 0.00818134743
v -0.025977382 -0.00301398384 0.00781322914
v -0.0255194991 -0.00287081348 0.00851513344
v -0.0256075947 -0.00338377105 0.00821460682
v -0.0252835839 -0.00310672866 0.00895000893
v -0.0253238766 -0.00366760837 0.00873745877
v -0.0251351683 -0.00325514423 0.0094565292
v -0.0251454203 -0.00384594547 0.00934649903
v -0.0250846236 -0.00330568897 0.0100000044
v -0.0250846236 -0.00390674221 0.0100000044
v -0.0251351683 -0.00325514423 0.0105434795
v -0.0251454203 -0.00384594547 0.0106535097
v -0.0252835839 -0.00310672866 0.0110499998
v -0.0253238766 -0.00366760837 0.0112625499
v -0.0255194991 -0.00287081348 0.0114848753
v -0.0256075947 -0.00338377105 0.0117854019
v -0.025827059 -0.00256325351 0.0118186613
v -0.025977382 -0.00301398384 0.0121866603
v -0.0261851638 -0.00220514881 0.0120284696
v -0.0264079659 -0.00258339988 0.0124389072
v -0.0265694945 -0.00182081806 0.0120999952
v -0.0268700211 -0.00212134468 0.0125249763
v -0.0269538253 -0.00143648731 0.0120284696
v -0.0273321955 -0.00165917026 0.0124389072
v -0.0273120492 -0.0010783826 0.0118186613
v -0.0277627795 -0.00122858631 0.0121866603
v -0.0276194899 -0.000770822634 0.0114848753
v -0.0281325667 -0.00085879909 0.0117854019
v -0.0278555243 -0.000534788241 0.0110499998
v -0.0284162848 -0.000575080981 0.0112625499
v -0.0280038207 -0.000386491885 0.0105434795
v -0.0285946219 -0.000396743884 0.0106535097
v -0.0280544846 -0.000335827937 0.0100000044
v -0.0286555379 -0.000335827937 0.0100000044
f 1 2 3
f 3 2 4
f 3 4 5
f 5 4 6
f 5 6 7
f 7 6 8
f 7 8 9
f 9 8 10
f 9 10 11
f 11 10 12
f 11 12 13
f 13 12 14
f 13 14 15
f 15 14 16
f 15 16 17
f 17 16 18
f 17 18 19
f 19 18 20
f 19 20 21
f 21 20 22
f 21 22 23
f 23 22 24
f 23 24 25
f 25 24 26
f 25 26 27
f 27 26 28
f 27 28 29
f 29 28 30
f 29 30 31
f 31 30 32
f 31 32 33
f 33 32 34
f 33 34 35
f 35 34 36
f 35 36 37
f 37 36 38
f 37 38 39
f 39 38 40
f 39 40 41
f 41 40 42
f 41 42 43
f 43 42 44
f 43 44 45
f 45 44 46
f 45 46 47
f 47 46 48
f 47 48 1
f 1 48 2
