v 0.0252232463 0.00638411892 0.016814365
v 0.0253702314 0.00653098477 0.0173239847
v 0.025216809 0.00637756241 0.0168181797
v 0.0253635557 0.00652442826 0.017327561
v 0.0242149741 0.00537572754 0.0140383382
v 0.024626127 0.00578688038 0.0150513788
v 0.0242088945 0.00536976708 0.0140435835
v 0.0246198089 0.0057806815 0.0150560279
v 0.0218882472 0.00400255574 0.0106237074
v 0.0218933732 0.00400768174 0.0106167932
v 0.0219889791 0.00396703137 0.0106729408
v 0.0219941051 0.00397227658 0.0106661459
v 0.0221115262 0.00392387761 0.0107333799
v 0.0221166522 0.00392912282 0.010726585
v 0.0224602134 0.00380085362 0.0109076639
v 0.0224654586 0.00380609883 0.0109009882
v 0.0183613212 5.11063142e-06 0.0065268417
v 0.0183646591 8.56770081e-06 0.00651802021
v 0.0180213363 -0.000334755053 0.00627483326
v 0.0178828151 -0.000473395457 0.00616551834
v 0.0176769407 -0.0006792699 0.00603546101
v 0.0173921497 -0.000964060893 0.00583816963
v 0.0173891694 -0.000966921916 0.00584722954
v 0.017840019 -0.000999108424 0.00598312813
v 0.0178429992 -0.000996128192 0.00597406823
v 0.0179183395 -0.000920787921 0.00603546101
v 0.0188079984 -3.11289926e-05 0.00667513806
v 0.0188045413 -3.4586062e-05 0.00668395954
v 0.0114821107 0.0100751962 0.00792755085
v 0.011573425 0.0104089822 0.00815810162
v 0.0116163404 0.0104814614 0.0082079311
v 0.0116100223 0.0104774083 0.00821472603
v 0.011636606 0.010542735 0.00825013119
v 0.0117510469 0.0107414569 0.00843287903
v 0.0118344934 0.0108181084 0.00851251084
v 0.0118174465 0.0108256186 0.00851716
v 0.0118565471 0.0108488644 0.00854183632
v 0.0119070918 0.0109394635 0.00863088566
v 0.011965266 0.011000141 0.00868596035
v 0.011949888 0.0109846438 0.00868119198
v 0.0119608552 0.0109957303 0.00869370896
v 0.0114670904 0.00906334771 0.00744058091
v 0.0114473016 0.00916121853 0.00747670132
v 0.0114643485 0.00916455639 0.00747527081
v 0.0114314468 0.00923882378 0.00750519234
v 0.0114201219 0.00941573037 0.0075714727
v 0.0114141614 0.00962971104 0.00768364865
v 0.0114329965 0.0096292342 0.00768221813
v 0.0114135654 0.00964246644 0.0076894899
v 0.011454931 0.00999318017 0.00787092644
v 0.0114631564 0.0100511159 0.00791646439
v 0.0114706666 0.0100754346 0.00793291527
v 0.0115195424 0.00880514039 0.00734545189
v 0.0115322978 0.00877819909 0.00732709366
v 0.0115671069 0.0086961831 0.00730599362
v 0.0121687562 0.00762902154 0.0070991655
v 0.0123239667 0.00746272458 0.00709439713
v 0.012320152 0.00745902909 0.00710286099
v 0.0121699483 0.00761972321 0.00710739094
v 0.0120277316 0.00780771626 0.0071274181
v 0.012037626 0.00781474961 0.00712312657
v 0.0118938596 0.00798474206 0.00714625317
v 0.0117951543 0.00815831078 0.00716735321
v 0.0117554576 0.00823782338 0.00719679791
v 0.011760226 0.0082406844 0.00718857247
v 0.0116722495 0.00839005364 0.00722731549
v 0.0115613849 0.00869141472 0.00731302697
v 0.0160593898 0.00730226887 0.0089303394
v 0.0158568532 0.00709973229 0.00869370896
v 0.015861264 0.00710414303 0.00868596035
v 0.016258827 0.00750170601 0.00917197663
v 0.0164915235 0.00773440255 0.00945152241
v 0.017090431 0.00833331002 0.0102657219
v 0.017691961 0.00893484009 0.011198773
v 0.0177152068 0.0089580859 0.0112211843
v 0.0177098424 0.00895272149 0.0112277408
f 1 2 3
f 3 2 4
f 5 6 7
f 7 6 8
f 9 10 11
f 11 10 12
f 13 14 15
f 15 14 16
f 17 18 19
f 19 18 20
f 19 20 21
f 21 20 22
f 21 22 23
f 24 25 26
f 26 25 27
f 26 27 28
f 29 30 31
f 31 30 32
f 31 32 33
f 33 32 34
f 33 34 35
f 35 34 36
f 35 36 37
f 37 36 38
f 37 38 39
f 39 38 40
f 39 40 41
f 42 43 44
f 44 43 45
f 44 45 46
f 46 45 47
f 46 47 48
f 48 47 49
f 48 49 50
f 50 49 51
f 50 51 29
f 29 51 52
f 29 52 30
f 42 44 53
f 53 44 54
f 53 54 55
f 56 57 58
f 58 59 56
f 56 59 60
f 56 60 61
f 61 60 62
f 61 62 63
f 63 62 64
f 63 64 65
f 65 64 66
f 65 66 55
f 55 66 67
f 55 67 53
f 68 69 70
f 68 70 71
f 70 72 71
f 71 72 73
f 71 73 74
f 74 73 75
f 74 75 76
