v -0.00597881361 0.0240765094 0.0146147151
v -0.00570594355 0.0238036393 0.0139640708
v -0.00598489329 0.0240826486 0.0146098276
v -0.00571190401 0.0238096594 0.0139588256
v -0.00679647013 0.0242518662 0.0159597536
v -0.00679074808 0.0242451905 0.0159412761
v -0.00679718538 0.0242515682 0.0159369846
v -0.00680398031 0.024269986 0.0159977813
v -0.0067832379 0.0244344353 0.016191258
v -0.00677727743 0.0244278787 0.0161960264
v -0.00678216501 0.0244184612 0.016188993
v -0.00681160971 0.0242753505 0.0159938474
v -0.00681339785 0.0242783903 0.0160011192
v -0.00681077524 0.0242866753 0.0160328289
v -0.00681685492 0.0242916821 0.0160261531
v -0.00681053682 0.0243017553 0.016055121
v -0.00681685492 0.0243082522 0.0160509487
v -0.00680994078 0.0243347167 0.0161038776
v -0.00681673571 0.0243388294 0.016096725
v -0.0068089871 0.0243390082 0.0161090036
v -0.00681518599 0.0243455647 0.0161045928
v -0.00680481478 0.0243580817 0.0161315341
v -0.00680815264 0.0243750094 0.0161386867
v -0.00679706618 0.0243788241 0.0161513229
v -0.00680445715 0.0243847846 0.016147985
v -0.00679337069 0.0244142293 0.01617588
v -0.00676845595 0.0244449853 0.0162086626
v -0.00677250906 0.0244556545 0.0162073513
v -0.00675045534 0.0244732975 0.0162243982
v -0.00675748869 0.0244796156 0.0162211795
v -0.00673018976 0.0245048879 0.0162420412
v -0.00674580618 0.024498391 0.0162319084
v -0.00671671911 0.0245213984 0.0162466903
v -0.006722918 0.0245278953 0.0162421604
v -0.00667845293 0.0245682477 0.0162599225
v -0.00669812246 0.0245598434 0.0162532468
v -0.00668489023 0.024574685 0.0162557502
v -0.00703071638 0.0247676252 0.0171679397
v -0.00703727289 0.0247741817 0.0171642442
v -0.00704108759 0.0247523068 0.0171591182
v -0.0070476441 0.0247588633 0.0171554227
v -0.00704287573 0.0247500419 0.0171582838
v -0.00704943224 0.0247565984 0.0171544691
v -0.00705300852 0.0247368692 0.0171529193
v -0.00705956503 0.0247434257 0.0171492238
v -0.0070592074 0.0247299551 0.0171518465
v -0.00706576391 0.0247365116 0.0171480318
v -0.00708304926 0.0247174381 0.0171448131
v -0.00707649275 0.0247108816 0.0171486278
v -0.00689887091 0.0246708273 0.0167770524
v -0.00690530821 0.0246773242 0.0167732377
v -0.00685559794 0.0247356771 0.0168131729
v -0.00686215445 0.024742174 0.016809239
v -0.00684403464 0.0247531413 0.0168228288
v -0.00685047194 0.0247596382 0.0168188949
v -0.00681900068 0.0247987985 0.0168575187
v -0.0068255572 0.024805355 0.016853704
v -0.0068012385 0.0248644232 0.0169124742
v -0.00678395315 0.024920988 0.0169793506
v -0.00677739664 0.0249144315 0.0169831653
v -0.0067948012 0.0248799204 0.0169278522
v -0.0067883639 0.0248733639 0.0169316669
v -0.00679468199 0.0248579263 0.0169162889
v -0.00570498987 0.0234236001 0.0135210891
v -0.00569902941 0.0234176396 0.0135264535
v -0.00571369215 0.0234030365 0.0135083337
v -0.0057078509 0.0233971356 0.0135136981
v -0.00572680517 0.0233797311 0.0134972473
v -0.00574671312 0.0233276962 0.0134807964
v -0.00575255438 0.0233335971 0.0134753128
v -0.00574468657 0.0233312725 0.0134824653
v -0.00572084471 0.0233738302 0.0135027309
v -0.00568782374 0.0234576343 0.0135578056
v -0.00569366499 0.0234635948 0.013552322
v -0.00568174406 0.0234789132 0.0135743757
v -0.00568770453 0.0234848737 0.013568892
v -0.0056797175 0.0234951853 0.0135897537
v -0.00568555876 0.0235010861 0.0135843893
v -0.00568949267 0.0235625981 0.0136561532
v -0.0056835322 0.0235566377 0.0136615177
v -0.00567864462 0.0235615848 0.0136430402
v -0.00567268416 0.0235556244 0.0136485239
v -0.00564812704 0.0235532998 0.0136188407
v -0.0056539683 0.0235592603 0.0136133571
v -0.00564455076 0.0235538958 0.0136156221
v -0.00565051123 0.0235598563 0.0136102577
v -0.00562023207 0.0235651015 0.0135828395
v -0.00558518454 0.0235762476 0.0135568519
v -0.00557934328 0.0235703467 0.0135623355
v -0.00561474844 0.0235660552 0.0135778327
v -0.00560878798 0.0235600947 0.0135833164
v -0.0056142716 0.023559141 0.0135883232
v -0.00253867193 0.0199048995 0.00839330153
v -0.00255452677 0.0198626398 0.00837887721
v -0.0025343804 0.0199005483 0.00840116934
v -0.00255011603 0.0198583483 0.00838674502
v -0.00256525561 0.0198179363 0.00837291674
v -0.00256954714 0.0198222875 0.00836504893
v -0.00256799742 0.019798088 0.00836361842
v -0.00257228895 0.0198024391 0.0083556314
v -0.00258146807 0.0197341918 0.0083235641
v -0.00257717653 0.0197299003 0.00833155112
v -0.00171851202 0.0186788319 0.00737859206
v -0.00172232672 0.0186827062 0.00737024741
v -0.00170051142 0.0188299297 0.0074407001
v -0.00167035147 0.0191193699 0.00754953818
v -0.00166641756 0.019115436 0.00755788283
v -0.00156818911 0.0190172075 0.00746549563
v -0.0015720038 0.0190210818 0.00745715098
v -0.00157498404 0.0189556359 0.00744046168
v -0.00162064119 0.0185810207 0.00727786021
v -0.0016168265 0.0185772656 0.00728632407
v -0.00070022627 0.0176606058 0.00651325183
v -0.00069688841 0.0176572679 0.00652207331
v -0.000605097257 0.0194442152 0.00722147421
v -0.000608911955 0.0194480299 0.00721301036
v -0.00119649454 0.0186455129 0.0071301599
v -0.00120019003 0.0186492084 0.00712169604
v 0.00167144255 0.0161903976 0.00529719786
v 0.00166905836 0.0161928414 0.00528789954
v 0.00168598608 0.0161528467 0.00527311759
v 0.00169921831 0.0161148785 0.00525976615
v 0.0017017217 0.0161124348 0.00526918368
v 0.00169552282 0.0161302565 0.00526477294
v 0.00169790701 0.0161278128 0.00527419047
v 0.00168837026 0.0161504029 0.00528241591
v 0.00166262106 0.0159717678 0.00524319605
v 0.00166023687 0.015974152 0.00523377852
v 0.00164748148 0.0159585952 0.00524367289
v 0.00164497808 0.0159608601 0.00523425536
v 0.00164736227 0.015958476 0.00524367289
v 0.00164485887 0.0159607409 0.00523425536
v 0.00163067297 0.0159481644 0.00524522261
v 0.00162828878 0.0159506081 0.00523592429
v 0.00162566618 0.0159450053 0.00524581866
v 0.00162292436 0.0159472703 0.00523640113
v 0.00161457971 0.0159407138 0.00524748759
v 0.00161219553 0.015943098 0.00523807006
v 0.00161195711 0.0159397005 0.00524784522
v 0.00160945371 0.0159420847 0.00523854689
v 0.00159836725 0.0159373163 0.00525082545
v 0.00159586386 0.0159397005 0.00524140792
v 0.00158823446 0.0159355282 0.00525285201
v 0.00158573107 0.0159379124 0.00524355368
v 0.00158036665 0.0159361242 0.00525511698
v 0.00157798246 0.0159385084 0.00524569945
v 0.00155509428 0.0159402965 0.00525201754
v 0.00155747846 0.0159379124 0.00526143508
v 0.00120712236 0.0157532572 0.00529374079
v 0.0013603063 0.0156253456 0.00522126155
v 0.00120950655 0.0157508134 0.00530303912
v 0.00136269049 0.0156229614 0.00523067908
v 0.00180638746 0.0155596017 0.00510586695
v 0.00179184393 0.0155536412 0.00510801272
v 0.00178969816 0.0155553101 0.00509835677
v 0.0017234178 0.0155289649 0.00511850314
v 0.00172115282 0.0155312895 0.00510896639
v 0.00174261049 0.0155335544 0.00511492686
v 0.00174308733 0.0155382036 0.00510539012
v 0.00174570993 0.0155348061 0.00511456923
v 0.00177885012 0.0155494689 0.00509954886
v 0.00181628183 0.0155652045 0.00510491328
v 0.00182760671 0.0155758737 0.00509418444
v 0.00184048132 0.0155842184 0.00510360198
v 0.00183905081 0.0155852913 0.00509370761
v 0.00189746336 0.0156330346 0.00509120421
v 0.00189972833 0.0156307696 0.00510062174
v -0.00554119631 0.0234230636 0.0133630176
v -0.00554715677 0.0234289645 0.0133574148
v -0.0056039004 0.0233464121 0.0133482357
v -0.00561093374 0.0233507632 0.013342156
v -0.00561999365 0.0233213781 0.0133386989
v -0.00562595411 0.023327279 0.0133333345
v -0.00568877741 0.0232293486 0.0132961412
v -0.00568269774 0.0232234477 0.0133015056
v -0.00574313685 0.023113954 0.0132321258
v -0.00571631476 0.0231593727 0.0132694383
v -0.0057412295 0.0231208681 0.013237371
v -0.00568985029 0.0232124208 0.0132973333
v -0.00569485708 0.0232198714 0.0132925649
v -0.00577663466 0.0229722737 0.0131374736
v -0.00577246233 0.0229923009 0.0131536861
v -0.00577484652 0.0229989766 0.0131456991
v -0.00576769396 0.0230147718 0.0131721635
v -0.00573431536 0.0231085895 0.0132353445
v -0.00578509852 0.0229619025 0.0131178041
v -0.005788794 0.0229061126 0.0130642791
v -0.00578033014 0.022901523 0.0130686899
v -0.00579093977 0.0228735684 0.0130331655
v -0.00578342959 0.022840011 0.0130088468
v -0.00578092619 0.0228124737 0.0129610439
v -0.00577615782 0.022806096 0.0129672428
v -0.00570963904 0.0226619123 0.012739553
v -0.00570391699 0.0226561307 0.0127453943
v -0.00572275206 0.0226762174 0.0127666135
v -0.00574742838 0.0227258085 0.0128578086
v -0.00576483294 0.0227537035 0.0129028697
v -0.00577353522 0.0227680682 0.012908711
v -0.00575326964 0.0227313517 0.0128519674
v -0.00480388685 0.0227154969 0.0119418045
v -0.00479828402 0.0227099537 0.0119480033
v -0.00481783434 0.0226996421 0.0119401355
v -0.00481235071 0.0226940988 0.0119463344
v -0.0042539744 0.0212142943 0.010311975
v -0.00425898119 0.0212193607 0.0103050609
v -0.00393616244 0.0214858531 0.0102787157
v -0.00394116923 0.0214909195 0.0102716823
v -0.00344227835 0.0222814559 0.0104990144
v -0.00344740435 0.0222865819 0.0104921003
v -0.00379179999 0.0219765781 0.0105320354
v -0.00379692598 0.0219817041 0.0105251213
v -0.00413035437 0.0222490906 0.0110006471
v -0.00413559958 0.0222543954 0.0109939714
v -0.0041615872 0.022162485 0.0109570165
v -0.00416683241 0.0221677302 0.0109503408
v -0.00267576262 0.0210318445 0.00912620024
v -0.00261329695 0.0209750413 0.00905348258
v -0.00267111345 0.0210271953 0.00913371043
v -0.002608767 0.0209704517 0.00906111197
v -0.00825010821 0.0215536236 0.0143081089
v -0.00825618788 0.0215597032 0.0143029829
v -0.00823365732 0.0212350963 0.01391746
v -0.00823961779 0.0212410568 0.0139120956
f 1 2 3
f 3 2 4
f 5 6 7
f 5 7 8
f 9 10 11
f 7 12 8
f 8 12 13
f 8 13 14
f 14 13 15
f 14 15 16
f 16 15 17
f 16 17 18
f 18 17 19
f 18 19 20
f 20 19 21
f 20 21 22
f 22 21 23
f 22 23 24
f 24 23 25
f 24 25 11
f 11 25 26
f 11 26 9
f 10 9 27
f 27 9 28
f 27 28 29
f 29 28 30
f 29 30 31
f 31 30 32
f 31 32 33
f 33 32 34
f 33 34 35
f 35 34 36
f 35 36 37
f 38 39 40
f 40 39 41
f 40 41 42
f 42 41 43
f 42 43 44
f 44 43 45
f 44 45 46
f 45 47 46
f 46 47 48
f 46 48 49
f 50 51 52
f 52 51 53
f 52 53 54
f 54 53 55
f 54 55 56
f 56 55 57
f 56 57 58
f 59 60 61
f 61 60 62
f 61 62 58
f 58 62 63
f 58 63 56
f 64 65 66
f 66 65 67
f 66 67 68
f 69 70 71
f 71 70 68
f 71 68 72
f 72 68 67
f 65 64 73
f 73 64 74
f 73 74 75
f 75 74 76
f 75 76 77
f 77 76 78
f 78 79 77
f 77 79 80
f 79 81 80
f 80 81 82
f 82 81 83
f 83 81 84
f 83 84 85
f 85 84 86
f 85 86 87
f 88 89 90
f 90 89 91
f 90 91 87
f 87 91 92
f 87 92 85
f 93 94 95
f 95 94 96
f 96 94 97
f 97 94 98
f 97 98 99
f 98 100 99
f 99 100 101
f 99 101 102
f 103 104 105
f 105 104 106
f 105 106 107
f 108 109 110
f 110 109 111
f 110 111 112
f 113 114 111
f 111 114 112
f 115 116 117
f 117 116 118
f 119 120 121
f 122 123 124
f 124 123 125
f 124 125 121
f 121 125 126
f 121 126 119
f 127 128 129
f 129 128 130
f 129 130 131
f 131 130 132
f 131 132 133
f 133 132 134
f 133 134 135
f 135 134 136
f 135 136 137
f 137 136 138
f 137 138 139
f 139 138 140
f 139 140 141
f 141 140 142
f 141 142 143
f 143 142 144
f 143 144 145
f 144 146 145
f 145 146 147
f 145 147 148
f 149 150 151
f 151 150 152
f 153 154 155
f 156 157 158
f 158 157 159
f 158 159 160
f 160 159 154
f 154 159 161
f 154 161 155
f 153 155 162
f 162 155 163
f 162 163 164
f 163 165 164
f 164 165 166
f 164 166 167
f 168 169 170
f 170 169 171
f 170 171 172
f 171 173 172
f 172 173 174
f 172 174 175
f 176 177 178
f 178 177 179
f 175 174 179
f 179 174 180
f 179 180 178
f 181 182 183
f 183 182 184
f 183 184 176
f 176 184 185
f 176 185 177
f 183 186 181
f 181 186 187
f 181 187 188
f 188 187 189
f 188 189 190
f 190 189 191
f 190 191 192
f 193 194 195
f 195 194 196
f 192 191 197
f 197 191 198
f 197 198 196
f 196 198 199
f 196 199 195
f 200 201 202
f 202 201 203
f 204 205 206
f 206 205 207
f 208 209 210
f 210 209 211
f 212 213 214
f 214 213 215
f 216 217 218
f 218 217 219
f 220 221 222
f 222 221 223
