v 0.0159525783 -0.00152124511 0.00526381928
v 0.0159391076 -0.00155414688 0.00526250798
v 0.0159414918 -0.00155176269 0.00525320965
v 0.0159379155 -0.00155748474 0.00526143509
v 0.0159402997 -0.00155510055 0.00525201756
v 0.0160159976 -0.00143303024 0.00530339676
v 0.0160136134 -0.00143541442 0.00531269509
v 0.0159957321 -0.00145484554 0.0052923103
v 0.0159932287 -0.00145734893 0.00530160862
v 0.0159747512 -0.00148548233 0.00527883965
v 0.015972367 -0.00148798572 0.00528825718
v 0.0159552009 -0.00151409255 0.00526632267
v 0.0159528167 -0.00151659595 0.00527574021
v 0.0159501941 -0.0015236293 0.00527323681
v 0.0161039741 -0.00203301059 0.0051832338
v 0.0161063583 -0.00203074562 0.00517381626
v 0.0161877782 -0.00199903594 0.00520218808
v 0.0162677677 -0.00195910083 0.00523234803
v 0.0162653835 -0.00196160423 0.00524176556
v 0.0162266404 -0.00198389636 0.00521565872
v 0.0162242563 -0.00198628055 0.00522507626
v 0.0161855132 -0.00200142013 0.00521160561
v 0.0241706283 0.00625894917 0.0150731941
v 0.0241644294 0.00625275029 0.0150779625
v 0.0241550119 0.00627313508 0.0150712867
v 0.024148813 0.00626693619 0.0150760551
v 0.0246946723 0.00681279553 0.0166492601
v 0.0246881158 0.00680635823 0.0166533132
v 0.0247101695 0.00679849042 0.0166512867
v 0.0247037322 0.00679205311 0.0166553398
f 1 2 3
f 3 2 4
f 3 4 5
f 6 7 8
f 8 7 9
f 8 9 10
f 10 9 11
f 10 11 12
f 12 11 13
f 12 13 1
f 1 13 14
f 1 14 2
f 15 16 17
f 18 19 20
f 20 19 21
f 20 21 17
f 17 21 22
f 17 22 15
f 23 24 25
f 25 24 26
f 27 28 29
f 29 28 30
