v -0.0056579022 0.0237851619 0.0138883729
v -0.00565754458 0.0237852215 0.0138878961
v -0.00566350504 0.0237913011 0.0138827701
v -0.00562500044 0.0238006591 0.0138685842
v -0.00562118574 0.0238039373 0.0138679882
v -0.00562714621 0.0238098382 0.0138625045
v -0.00560950323 0.0238140105 0.0138662
v -0.00561558291 0.0238200306 0.0138609548
v -0.00565492197 0.0237935661 0.0138756175
v -0.00562929197 0.0238079308 0.0138628622
v -0.00563358351 0.0238047718 0.0138640542
v -0.0056308417 0.0237968444 0.0138708492
v -0.00563680216 0.0238028048 0.0138654848
v -0.00563692137 0.0237928509 0.0138732334
v -0.00564586207 0.0237972616 0.0138695379
v -0.00564002081 0.0237912415 0.0138749023
v -0.00564610048 0.023797202 0.0138696571
v -0.00564145132 0.0237904667 0.0138757368
v -0.00565337225 0.0237939834 0.0138743062
v -0.00564896151 0.0237877249 0.013880982
v -0.00565289541 0.0237862347 0.013883843
v -0.00566445872 0.0237910627 0.0138834854
v -0.00566720053 0.0237907051 0.0138862272
v -0.00566612765 0.023784983 0.0138975521
v -0.00567220732 0.0237909435 0.0138921876
v -0.00567161127 0.0237849234 0.0139036317
v -0.00567816778 0.0237912415 0.0138993402
v -0.00567220732 0.0237850427 0.0139044662
v -0.00567566439 0.0237856387 0.0139091154
v -0.00568007513 0.0237913011 0.0139016052
v -0.00568400904 0.0237922548 0.0139070888
v -0.00568448588 0.0237899898 0.0139240165
v -0.00569068476 0.0237957715 0.0139187713
v -0.00569747969 0.0237963079 0.0139460702
v -0.00570391699 0.0238027452 0.0139417787
v -0.00570415541 0.0238021492 0.0139603754
v -0.00571023508 0.0238081693 0.0139551301
v -0.00571190401 0.0238096594 0.0139588256
v -0.00570594355 0.0238036393 0.0139640708
f 1 2 3
f 4 5 6
f 6 5 7
f 6 7 8
f 3 2 9
f 6 10 4
f 4 10 11
f 4 11 12
f 12 11 13
f 12 13 14
f 14 13 15
f 14 15 16
f 16 15 17
f 16 17 18
f 18 17 19
f 18 19 20
f 20 19 9
f 20 9 21
f 21 9 2
f 3 22 1
f 1 22 23
f 1 23 24
f 24 23 25
f 24 25 26
f 26 25 27
f 26 27 28
f 28 27 29
f 27 30 29
f 29 30 31
f 29 31 32
f 32 31 33
f 32 33 34
f 34 33 35
f 34 35 36
f 35 37 36
f 36 37 38
f 36 38 39
