v -0.00557052179 0.0239181994 0.013940229
v -0.00557374045 0.0239229678 0.0139494081
v -0.00557898565 0.0239296435 0.0139440437
v -0.00557898565 0.0239297031 0.0139441629
v -0.0055885224 0.0239446043 0.0139911313
v -0.00559448286 0.0239506244 0.0139858861
v -0.00556754156 0.0239070534 0.0139241357
v -0.00557385966 0.0239127754 0.0139190097
v -0.00556634947 0.0239027022 0.0139178176
v -0.00557219072 0.023907113 0.0139104267
v -0.00556658789 0.0238933443 0.0139074464
v -0.00557242914 0.023899424 0.013902082
v -0.00557278677 0.0238895296 0.013891234
v -0.0055667071 0.0238835691 0.0138964792
v -0.00711893126 0.018779385 0.0106146474
v -0.00654243513 0.0186809181 0.0101230283
v -0.00615548178 0.0178160547 0.00928999381
v -0.00549148604 0.0184778451 0.00929166274
v -0.00542186781 0.018464434 0.00923658805
v -0.00375269934 0.0180889248 0.00807584719
v -0.00443517252 0.0174043058 0.00807823138
v -0.00482677504 0.0183374761 0.0088009973
v -0.00472663923 0.0173639535 0.00820280509
v -0.00536214396 0.0184516786 0.00919283824
v -0.00593351408 0.0175940274 0.00901664691
v -0.00460349604 0.0172408103 0.0080733438
v -0.00607596918 0.0157604097 0.00808121161
v -0.00666080996 0.0156729101 0.00833333926
v -0.00668489023 0.0157114147 0.00836743312
v -0.00693809076 0.0160274385 0.00868596034
v -0.00647317454 0.0174894213 0.00929702716
v -0.00744115397 0.0165305017 0.00928999381
v -0.00770699068 0.017250347 0.00993777709
v -0.00808166548 0.0171710132 0.0101436515
v -0.00481246992 0.0159494161 0.00753642516
v -0.00405322596 0.0166905402 0.00752784209
v -0.00348614737 0.016123402 0.00701810317
v -0.00257634207 0.0177951931 0.00735486941
v -0.00288902804 0.0176182865 0.00741733508
v -0.00351070448 0.018030095 0.00792206721
v -0.00365053698 0.0180652617 0.00800694422
v -0.00230406805 0.0177238463 0.00720025496
v -0.00223576113 0.0177057861 0.00716210799
v -0.0022187142 0.0177012562 0.00715257125
v -0.0045028834 0.0223801612 0.0114092966
v -0.00450824782 0.0223855852 0.0114028593
v -0.0045696406 0.0223360537 0.0114282508
v -0.00457512423 0.0223414778 0.0114218135
v -0.00495671316 0.0221729754 0.011617436
v -0.00496219679 0.0221784591 0.0116111179
v -0.00513183161 0.0220922111 0.0116986175
v -0.00513731524 0.0220976948 0.0116922994
v -0.00331710859 0.0202775477 0.0090705295
v -0.00332175776 0.0202821373 0.00906290011
v -0.0029078631 0.0204573749 0.00893260436
v -0.00291239306 0.0204619645 0.00892497496
v -0.0100752024 0.0114820479 0.00792755084
v -0.0104089884 0.0115734815 0.0081581016
v -0.0104814677 0.0116163968 0.00820793109
v -0.0104774146 0.0116100787 0.00821472602
v -0.0105427413 0.0116366624 0.00825013117
v -0.0107414631 0.0117511033 0.00843287902
v -0.0108181147 0.0118344902 0.00851251082
v -0.0108256249 0.0118175029 0.00851715998
v -0.0108488707 0.0118566035 0.00854183631
v -0.0109394698 0.0119071483 0.00863088565
v -0.0110001473 0.0119653224 0.00868596034
v -0.0109846501 0.0119499444 0.00868119197
v -0.0109957366 0.011960852 0.00869370894
v -0.00906335398 0.0114670872 0.00744058089
v -0.00916122481 0.0114472388 0.0074767013
v -0.00916456267 0.0114642857 0.00747527079
v -0.00923883005 0.0114315032 0.00750519232
v -0.00941573664 0.0114200591 0.00757147269
v -0.00962971731 0.0114141582 0.00768364863
v -0.00962924048 0.0114329933 0.00768221812
v -0.00964247271 0.0114135622 0.00768948989
v -0.00999318644 0.0114549278 0.00787092642
v -0.0100511222 0.0114631533 0.00791646437
v -0.0100754408 0.0114706634 0.00793291525
v -0.00880514666 0.0115195392 0.00734545188
v -0.00877820536 0.0115322946 0.00732709365
v -0.00869618937 0.0115671038 0.0073059936
v -0.00762902781 0.0121686934 0.00709916548
v -0.00746273085 0.0123239039 0.00709439711
v -0.00745903536 0.0123202084 0.00710286097
v -0.00761972948 0.0121699451 0.00710739092
v -0.00780772253 0.0120277881 0.00712741809
v -0.00781475588 0.0120376228 0.00712312655
v -0.00798474833 0.011893916 0.00714625315
v -0.00815831705 0.0117952107 0.0071673532
v -0.00823782965 0.011755514 0.00719679789
v -0.00824069067 0.0117602824 0.00718857245
v -0.00839005991 0.0116722463 0.00722731547
v -0.008691421 0.0115613817 0.00731302695
f 1 2 3
f 3 2 4
f 4 2 5
f 4 5 6
f 1 3 7
f 7 3 8
f 7 8 9
f 9 8 10
f 9 10 11
f 10 12 11
f 11 12 13
f 11 13 14
f 15 16 17
f 17 16 18
f 17 18 19
f 20 21 22
f 22 21 23
f 22 23 24
f 19 24 17
f 17 24 23
f 17 23 25
f 25 23 26
f 27 28 26
f 26 28 29
f 26 29 25
f 25 29 30
f 25 30 31
f 31 30 32
f 31 32 33
f 33 32 34
f 27 26 35
f 35 26 36
f 35 36 37
f 38 39 40
f 40 39 21
f 40 21 41
f 41 21 20
f 38 42 39
f 39 42 43
f 39 43 44
f 45 46 47
f 47 46 48
f 49 50 51
f 51 50 52
f 53 54 55
f 55 54 56
f 57 58 59
f 59 58 60
f 59 60 61
f 61 60 62
f 61 62 63
f 63 62 64
f 63 64 65
f 65 64 66
f 65 66 67
f 67 66 68
f 67 68 69
f 70 71 72
f 72 71 73
f 72 73 74
f 74 73 75
f 74 75 76
f 76 75 77
f 76 77 78
f 78 77 79
f 78 79 57
f 57 79 80
f 57 80 58
f 70 72 81
f 81 72 82
f 81 82 83
f 84 85 86
f 86 87 84
f 84 87 88
f 84 88 89
f 89 88 90
f 89 90 91
f 91 90 92
f 91 92 93
f 93 92 94
f 93 94 83
f 83 94 95
f 83 95 81
