v 0.0174130782 -0.219005053 0.0710131441
v 0.0174130782 -0.218995039 0.0710131441
v 0.0174701794 -0.218995039 0.0710201774
v 0.0174701794 -0.219005053 0.0710201774
v 0.0175237044 -0.218995039 0.071041039
v 0.0175237044 -0.219005053 0.071041039
v 0.0175697192 -0.218995039 0.071073464
v 0.0175697192 -0.219005053 0.071073464
v 0.0175793752 -0.218995039 0.0710825239
v 0.0175793752 -0.219005053 0.0710825239
v 0.0170105084 -0.219005053 0.0709279094
v 0.0169460162 -0.219005053 0.0709711824
v 0.0169791564 -0.218995039 0.0709488903
v 0.0169460162 -0.218995039 0.0709711824
v 0.0170105084 -0.218995039 0.0709279094
v 0.0170829877 -0.218995039 0.0709022794
v 0.0170829877 -0.219005053 0.0709022794
v 0.0171425923 -0.218995039 0.0708959613
v 0.0171425923 -0.219005053 0.0708959613
v 0.0160953387 -0.219005053 0.0714405094
v 0.0160922393 -0.219005053 0.0714524303
v 0.0160953387 -0.218995039 0.0714405094
v 0.0160922393 -0.218995039 0.0714524303
v 0.0165318831 -0.219005053 0.0709505592
v 0.0165318831 -0.219005053 0.0711308036
v 0.0165318831 -0.218995039 0.0709505592
v 0.0165318831 -0.218995039 0.0711308036
v -0.00622993862 -0.237742071 0.0618452345
v -0.00621992504 -0.237742071 0.0618452345
v -0.00622993862 -0.237759953 0.0618389164
v -0.00621992504 -0.237753813 0.0618411813
v -0.00621992504 -0.23778147 0.0618367706
v -0.00622993862 -0.23778147 0.0618367706
v -0.00621992504 -0.237764959 0.0618384395
v -0.00621992504 -0.237759953 0.0618389164
v -0.00622993862 -0.237682049 0.0618402277
v -0.00622993862 -0.237682049 0.061862639
v -0.00621992504 -0.237682049 0.0618402277
v -0.00621992504 -0.237682049 0.061862639
v -0.00622993862 -0.237639015 0.061926416
v -0.00622993862 -0.237682049 0.0619324957
v -0.00621992504 -0.237639015 0.061926416
v -0.00621992504 -0.237682049 0.0619324957
v -0.00337869083 -0.237551336 0.0612599168
v -0.00337869083 -0.237500076 0.0612599168
v -0.00337869083 -0.237551336 0.0611599002
v -0.00337869083 -0.237500076 0.0611599002
v -0.00526994621 -0.238450055 0.0689498697
v -0.00462991153 -0.238450055 0.0689498697
v -0.00526994621 -0.238450055 0.0631999288
v -0.00462991153 -0.238450055 0.0631999288
v -0.0020899192 -0.236160104 0.0691998516
v -0.0020899192 -0.235910063 0.0689498697
v -0.00272995388 -0.236160104 0.0691998516
v -0.00272995388 -0.235910063 0.0689498697
f 1 2 3
f 1 3 4
f 4 3 5
f 4 5 6
f 6 5 7
f 6 7 8
f 8 7 9
f 8 9 10
f 11 12 13
f 13 12 14
f 13 15 11
f 11 15 16
f 11 16 17
f 17 16 18
f 17 18 19
f 20 21 22
f 22 21 23
f 24 25 26
f 26 25 27
f 28 29 30
f 30 29 31
f 32 33 34
f 34 33 30
f 34 30 35
f 35 30 31
f 36 37 38
f 38 37 39
f 40 41 42
f 42 41 43
f 44 45 46
f 46 45 47
f 48 49 50
f 50 49 51
f 52 53 54
f 54 53 55
