v -0.0265371219 -0.179913824 0.142499975
v -0.0266371385 -0.179813867 0.142499975
v -0.0263370887 -0.179913824 0.142499975
v -0.0266371385 -0.177613859 0.142499975
v -0.0262370721 -0.179813867 0.142499975
v -0.0262370721 -0.177613859 0.142499975
v -0.0283370629 -0.179913824 0.142499975
v -0.0284370795 -0.179813867 0.142499975
v -0.028137149 -0.179913824 0.142499975
v -0.0284370795 -0.177613859 0.142499975
v -0.0280371324 -0.179813867 0.142499975
v -0.0280371324 -0.177613859 0.142499975
v -0.0280132905 -0.177613859 0.142318777
v -0.0283996478 -0.177613859 0.142215184
v -0.0279433147 -0.177613859 0.142149976
v -0.0282897369 -0.177613859 0.141949943
v -0.0278320924 -0.177613859 0.142004899
v -0.028114976 -0.177613859 0.141722134
v -0.0276871339 -0.177613859 0.141893676
v -0.0278871671 -0.177613859 0.141547254
v -0.0275183335 -0.177613859 0.14182382
v -0.0276218072 -0.177613859 0.141437343
v -0.0273371354 -0.177613859 0.141799978
v -0.0273371354 -0.177613859 0.141399911
v -0.0271559373 -0.177613859 0.14182382
v -0.0270524636 -0.177613859 0.141437343
v -0.026987137 -0.177613859 0.141893676
v -0.0267871038 -0.177613859 0.141547254
v -0.0268421785 -0.177613859 0.142004899
v -0.0265592948 -0.177613859 0.141722134
v -0.026730837 -0.177613859 0.142149976
v -0.026384534 -0.177613859 0.141949943
v -0.0266609803 -0.177613859 0.142318777
v -0.026274623 -0.177613859 0.142215184
v -0.0265577451 -0.173913841 0.142949871
v -0.0264677421 -0.173913841 0.14273291
v -0.0264371053 -0.173913841 0.142499975
v -0.0265577451 -0.173913841 0.14204996
v -0.026700677 -0.173913841 0.141863516
v -0.026700677 -0.173913841 0.143136314
v -0.0268871204 -0.173913841 0.141720465
v -0.0271042005 -0.173913841 0.143369249
v -0.0273371354 -0.173913841 0.141599945
v -0.0273371354 -0.173913841 0.143399886
v -0.0275700704 -0.173913841 0.141630581
v -0.0281165258 -0.173913841 0.14204996
v -0.0282064096 -0.173913841 0.14226704
v -0.0282371656 -0.173913841 0.142499975
v -0.0281165258 -0.173913841 0.142949871
v -0.0279734746 -0.173913841 0.143136314
v -0.0279734746 -0.173913841 0.141863516
v -0.0277871505 -0.173913841 0.143279365
v -0.0268871204 -0.173913841 0.143279365
v -0.0271042005 -0.173913841 0.141630581
v -0.0277871505 -0.173913841 0.141720465
v -0.0275700704 -0.173913841 0.143369249
v -0.0264677421 -0.173913841 0.14226704
v -0.0282064096 -0.173913841 0.14273291
v -0.0273371354 -0.168013816 0.141599945
v -0.0275700704 -0.168013816 0.141630581
v -0.0277871505 -0.168013816 0.141720465
v -0.0279734746 -0.168013816 0.141863516
v -0.0281165258 -0.168013816 0.14204996
v -0.0282064096 -0.168013816 0.14226704
v -0.0282371656 -0.168013816 0.142499975
v -0.0282064096 -0.168013816 0.14273291
v -0.0281165258 -0.168013816 0.142949871
v -0.0279734746 -0.168013816 0.143136314
v -0.0277871505 -0.168013816 0.143279365
v -0.0275700704 -0.168013816 0.143369249
v -0.0273371354 -0.168013816 0.143399886
v -0.026700677 -0.168013816 0.143136314
v -0.0265592948 -0.168013816 0.143277696
v -0.0265577451 -0.168013816 0.142949871
v -0.026384534 -0.168013816 0.143049887
v -0.0264677421 -0.168013816 0.14273291
v -0.026274623 -0.168013816 0.142784647
v -0.0264371053 -0.168013816 0.142499975
v -0.0262370721 -0.168013816 0.142499975
v -0.0264677421 -0.168013816 0.14226704
v -0.026274623 -0.168013816 0.142215184
v -0.0265577451 -0.168013816 0.14204996
v -0.026384534 -0.168013816 0.141949943
v -0.026700677 -0.168013816 0.141863516
v -0.0265592948 -0.168013816 0.141722134
v -0.0268871204 -0.168013816 0.141720465
v -0.0267871038 -0.168013816 0.141547254
v -0.0271042005 -0.168013816 0.141630581
v -0.0270524636 -0.168013816 0.141437343
v -0.0273371354 -0.168013816 0.141399911
v -0.0276218072 -0.168013816 0.141437343
v -0.0278871671 -0.168013816 0.141547254
v -0.028114976 -0.168013816 0.141722134
v -0.0282897369 -0.168013816 0.141949943
v -0.0283996478 -0.168013816 0.142215184
v -0.0284370795 -0.168013816 0.142499975
v -0.0283996478 -0.168013816 0.142784647
v -0.0282897369 -0.168013816 0.143049887
v -0.028114976 -0.168013816 0.143277696
v -0.0278871671 -0.168013816 0.143452576
v -0.0276218072 -0.168013816 0.143562487
v -0.0273371354 -0.168013816 0.143599919
v -0.0271042005 -0.168013816 0.143369249
v -0.0270524636 -0.168013816 0.143562487
v -0.0268871204 -0.168013816 0.143279365
v -0.0267871038 -0.168013816 0.143452576
v -0.028137149 -0.179913824 0.14749997
v -0.0280371324 -0.179813867 0.14749997
v -0.0283370629 -0.179913824 0.14749997
v -0.0280371324 -0.177613859 0.14749997
v -0.0284370795 -0.179813867 0.14749997
v -0.0284370795 -0.177613859 0.14749997
v -0.0280320064 -0.175913815 0.14741557
v -0.0280320064 -0.177613859 0.147584251
v -0.0280320064 -0.175913815 0.147584251
v -0.0279915944 -0.177613859 0.147748164
v -0.0279915944 -0.175913815 0.147748164
v -0.0279131547 -0.177613859 0.147897533
v -0.0279131547 -0.175913815 0.147897533
v -0.0278013364 -0.177613859 0.148023895
v -0.0278013364 -0.175913815 0.148023895
v -0.0276624576 -0.177613859 0.148119739
v -0.0276624576 -0.175913815 0.148119739
v -0.0275046245 -0.177613859 0.148179582
v -0.0275046245 -0.175913815 0.148179582
v -0.0273371354 -0.177613859 0.148199967
v -0.0273371354 -0.175913815 0.148199967
v -0.0273371354 -0.179813867 0.146799973
v -0.0273371354 -0.175913815 0.146799973
v -0.0275043861 -0.179813867 0.146821908
v -0.0275046245 -0.175913815 0.146820239
v -0.0275183335 -0.179813867 0.146823815
v -0.0276624576 -0.175913815 0.146880082
v -0.0276612655 -0.179813867 0.146882943
v -0.0276871339 -0.179813867 0.146893672
v -0.0278013364 -0.175913815 0.146975926
v -0.0277987138 -0.179813867 0.146979383
v -0.0278320924 -0.179813867 0.147004894
v -0.0279131547 -0.175913815 0.147102288
v -0.0279091016 -0.179813867 0.147105387
v -0.0279433147 -0.179813867 0.147149972
v -0.0279915944 -0.175913815 0.147251657
v -0.0279863492 -0.179813867 0.147253922
v -0.0280132905 -0.179813867 0.147318772
v -0.0280260459 -0.179813867 0.147416285
v -0.0273371354 -0.173913841 0.14659994
v -0.0273371354 -0.168013816 0.14659994
v -0.0275700704 -0.173913841 0.146630577
v -0.0275700704 -0.168013816 0.146630577
v -0.0277871505 -0.173913841 0.14672046
v -0.0277871505 -0.168013816 0.14672046
v -0.0279734746 -0.173913841 0.146863512
v -0.0279734746 -0.168013816 0.146863512
v -0.0281165258 -0.173913841 0.147049955
v -0.0281165258 -0.168013816 0.147049955
v -0.0282064096 -0.173913841 0.147267035
v -0.0282064096 -0.168013816 0.147267035
v -0.0282371656 -0.173913841 0.14749997
v -0.0282371656 -0.168013816 0.14749997
v -0.0282064096 -0.173913841 0.147732905
v -0.0282064096 -0.168013816 0.147732905
v -0.0281165258 -0.173913841 0.147949866
v -0.0281165258 -0.168013816 0.147949866
v -0.0279734746 -0.173913841 0.148136309
v -0.0279734746 -0.168013816 0.148136309
v -0.0277871505 -0.173913841 0.14827936
v -0.0277871505 -0.168013816 0.14827936
v -0.0275700704 -0.173913841 0.148369244
v -0.0275700704 -0.168013816 0.148369244
v -0.0273371354 -0.173913841 0.148399881
v -0.0273371354 -0.168013816 0.148399881
v -0.026700677 -0.168013816 0.148136309
v -0.0265592948 -0.168013816 0.148277691
v -0.0265577451 -0.168013816 0.147949866
v -0.026384534 -0.168013816 0.148049882
v -0.0264677421 -0.168013816 0.147732905
v -0.026274623 -0.168013816 0.147784642
v -0.0264371053 -0.168013816 0.14749997
v -0.0262370721 -0.168013816 0.14749997
v -0.0264677421 -0.168013816 0.147267035
v -0.026274623 -0.168013816 0.147215179
v -0.0265577451 -0.168013816 0.147049955
v -0.026384534 -0.168013816 0.146949938
v -0.026700677 -0.168013816 0.146863512
v -0.0265592948 -0.168013816 0.146722129
v -0.0268871204 -0.168013816 0.14672046
v -0.0267871038 -0.168013816 0.146547249
v -0.0271042005 -0.168013816 0.146630577
v -0.0270524636 -0.168013816 0.146437458
v -0.0273371354 -0.168013816 0.146399907
v -0.0276218072 -0.168013816 0.146437458
v -0.0278871671 -0.168013816 0.146547249
v -0.028114976 -0.168013816 0.146722129
v -0.0282897369 -0.168013816 0.146949938
v -0.0283996478 -0.168013816 0.147215179
v -0.0284370795 -0.168013816 0.14749997
v -0.0283996478 -0.168013816 0.147784642
v -0.0282897369 -0.168013816 0.148049882
v -0.028114976 -0.168013816 0.148277691
v -0.0278871671 -0.168013816 0.148452571
v -0.0276218072 -0.168013816 0.148562482
v -0.0273371354 -0.168013816 0.148599914
v -0.0271042005 -0.168013816 0.148369244
v -0.0270524636 -0.168013816 0.148562482
v -0.0268871204 -0.168013816 0.14827936
v -0.0267871038 -0.168013816 0.148452571
v -0.026274623 -0.179813867 0.142784647
v -0.0263711826 -0.179913824 0.142758778
v -0.026384534 -0.179813867 0.143049887
v -0.0264710799 -0.179913824 0.142999939
v -0.0265592948 -0.179813867 0.143277696
v -0.0266299859 -0.179913824 0.143207005
v -0.0267871038 -0.179813867 0.143452576
v -0.0268370525 -0.179913824 0.143365911
v -0.0270524636 -0.179813867 0.143562487
v -0.0270783321 -0.179913824 0.143465808
v -0.0273371354 -0.179813867 0.143599919
v -0.0273371354 -0.179913824 0.143499902
v -0.0276218072 -0.179813867 0.143562487
v -0.0275959388 -0.179913824 0.143465808
v -0.0278871671 -0.179813867 0.143452576
v -0.0278370992 -0.179913824 0.143365911
v -0.028114976 -0.179813867 0.143277696
v -0.0280441657 -0.179913824 0.143207005
v -0.0282897369 -0.179813867 0.143049887
v -0.0282031909 -0.179913824 0.142999939
v -0.0283996478 -0.179813867 0.142784647
v -0.0283030883 -0.179913824 0.142758778
v -0.0273371354 -0.176913862 0.143599919
v -0.0276218072 -0.176913862 0.143562487
v -0.0283996478 -0.176913862 0.142784647
v -0.0284370795 -0.176913862 0.142499975
v -0.0283996478 -0.176913862 0.142215184
v -0.0282897369 -0.176913862 0.141949943
v -0.028114976 -0.176913862 0.141722134
v -0.0278871671 -0.176913862 0.141547254
v -0.0276218072 -0.176913862 0.141437343
v -0.0273371354 -0.176913862 0.141399911
v -0.0278871671 -0.176913862 0.143452576
v -0.028114976 -0.176913862 0.143277696
v -0.0282897369 -0.176913862 0.143049887
v -0.0271042005 -0.173913841 0.148369244
v -0.0268871204 -0.173913841 0.14827936
v -0.026700677 -0.173913841 0.148136309
v -0.0265577451 -0.173913841 0.147949866
v -0.0264677421 -0.173913841 0.147732905
v -0.0264371053 -0.173913841 0.14749997
v -0.0264677421 -0.173913841 0.147267035
v -0.0265577451 -0.173913841 0.147049955
v -0.026700677 -0.173913841 0.146863512
v -0.0268871204 -0.173913841 0.14672046
v -0.0271042005 -0.173913841 0.146630577
f 1 2 3
f 3 2 4
f 3 4 5
f 5 4 6
f 7 8 9
f 9 8 10
f 9 10 11
f 11 10 12
f 12 10 13
f 13 10 14
f 13 14 15
f 15 14 16
f 15 16 17
f 17 16 18
f 17 18 19
f 19 18 20
f 19 20 21
f 21 20 22
f 21 22 23
f 23 22 24
f 23 24 25
f 25 24 26
f 25 26 27
f 27 26 28
f 27 28 29
f 29 28 30
f 29 30 31
f 31 30 32
f 31 32 33
f 33 32 34
f 33 34 4
f 4 34 6
f 35 36 37
f 38 39 40
f 40 39 41
f 42 43 44
f 44 43 45
f 46 47 48
f 49 50 51
f 51 50 52
f 42 53 43
f 43 53 40
f 43 40 54
f 54 40 41
f 45 55 44
f 44 55 51
f 44 51 56
f 56 51 52
f 35 37 40
f 40 37 57
f 40 57 38
f 46 48 51
f 51 48 58
f 51 58 49
f 43 59 45
f 45 59 60
f 45 60 55
f 55 60 61
f 55 61 51
f 51 61 62
f 51 62 46
f 46 62 63
f 46 63 47
f 47 63 64
f 47 64 48
f 48 64 65
f 48 65 58
f 58 65 66
f 58 66 49
f 49 66 67
f 49 67 50
f 50 67 68
f 50 68 52
f 52 68 69
f 52 69 56
f 56 69 70
f 56 70 44
f 44 70 71
f 72 73 74
f 74 73 75
f 74 75 76
f 76 75 77
f 76 77 78
f 78 77 79
f 78 79 80
f 80 79 81
f 80 81 82
f 82 81 83
f 82 83 84
f 84 83 85
f 84 85 86
f 86 85 87
f 86 87 88
f 88 87 89
f 88 89 59
f 59 89 90
f 59 90 60
f 60 90 91
f 60 91 61
f 61 91 92
f 61 92 62
f 62 92 93
f 62 93 63
f 63 93 94
f 63 94 64
f 64 94 95
f 64 95 65
f 65 95 96
f 65 96 66
f 66 96 97
f 66 97 67
f 67 97 98
f 67 98 68
f 68 98 99
f 68 99 69
f 69 99 100
f 69 100 70
f 70 100 101
f 70 101 71
f 71 101 102
f 71 102 103
f 103 102 104
f 103 104 105
f 105 104 106
f 105 106 72
f 72 106 73
f 107 108 109
f 109 108 110
f 109 110 111
f 111 110 112
f 110 113 114
f 114 113 115
f 114 115 116
f 116 115 117
f 116 117 118
f 118 117 119
f 118 119 120
f 120 119 121
f 120 121 122
f 122 121 123
f 122 123 124
f 124 123 125
f 124 125 126
f 126 125 127
f 128 129 130
f 130 129 131
f 130 131 132
f 132 131 133
f 132 133 134
f 134 133 135
f 135 133 136
f 135 136 137
f 137 136 138
f 138 136 139
f 138 139 140
f 140 139 141
f 141 139 142
f 141 142 143
f 143 142 144
f 144 142 113
f 144 113 145
f 145 113 110
f 145 110 108
f 146 147 148
f 148 147 149
f 148 149 150
f 150 149 151
f 150 151 152
f 152 151 153
f 152 153 154
f 154 153 155
f 154 155 156
f 156 155 157
f 156 157 158
f 158 157 159
f 158 159 160
f 160 159 161
f 160 161 162
f 162 161 163
f 162 163 164
f 164 163 165
f 164 165 166
f 166 165 167
f 166 167 168
f 168 167 169
f 168 169 170
f 170 169 171
f 172 173 174
f 174 173 175
f 174 175 176
f 176 175 177
f 176 177 178
f 178 177 179
f 178 179 180
f 180 179 181
f 180 181 182
f 182 181 183
f 182 183 184
f 184 183 185
f 184 185 186
f 186 185 187
f 186 187 188
f 188 187 189
f 188 189 147
f 147 189 190
f 147 190 149
f 149 190 191
f 149 191 151
f 151 191 192
f 151 192 153
f 153 192 193
f 153 193 155
f 155 193 194
f 155 194 157
f 157 194 195
f 157 195 159
f 159 195 196
f 159 196 161
f 161 196 197
f 161 197 163
f 163 197 198
f 163 198 165
f 165 198 199
f 165 199 167
f 167 199 200
f 167 200 169
f 169 200 201
f 169 201 171
f 171 201 202
f 171 202 203
f 203 202 204
f 203 204 205
f 205 204 206
f 205 206 172
f 172 206 173
f 3 5 207
f 3 207 208
f 208 207 209
f 208 209 210
f 210 209 211
f 210 211 212
f 212 211 213
f 212 213 214
f 214 213 215
f 214 215 216
f 216 215 217
f 216 217 218
f 218 217 219
f 218 219 220
f 220 219 221
f 220 221 222
f 222 221 223
f 222 223 224
f 224 223 225
f 224 225 226
f 226 225 227
f 226 227 228
f 228 227 8
f 228 8 7
f 217 229 230
f 231 232 10
f 10 232 233
f 10 233 14
f 14 233 234
f 14 234 16
f 16 234 235
f 16 235 18
f 18 235 236
f 18 236 20
f 20 236 237
f 20 237 22
f 22 237 238
f 22 238 24
f 217 230 219
f 219 230 239
f 219 239 221
f 221 239 240
f 221 240 223
f 223 240 241
f 223 241 225
f 225 241 231
f 225 231 227
f 227 231 10
f 227 10 8
f 170 171 242
f 242 171 203
f 242 203 243
f 243 203 205
f 243 205 244
f 244 205 172
f 244 172 245
f 245 172 174
f 245 174 246
f 246 174 176
f 246 176 247
f 247 176 178
f 247 178 248
f 248 178 180
f 248 180 249
f 249 180 182
f 249 182 250
f 250 182 184
f 250 184 251
f 251 184 186
f 251 186 252
f 252 186 188
f 252 188 146
f 146 188 147
f 44 71 42
f 42 71 103
f 42 103 53
f 53 103 105
f 53 105 40
f 40 105 72
f 40 72 35
f 35 72 74
f 35 74 36
f 36 74 76
f 36 76 37
f 37 76 78
f 37 78 57
f 57 78 80
f 57 80 38
f 38 80 82
f 38 82 39
f 39 82 84
f 39 84 41
f 41 84 86
f 41 86 54
f 54 86 88
f 54 88 43
f 43 88 59
