v -0.0245602742 -0.182728653 0.11336582
v -0.0245602742 -0.182690566 0.11336582
v -0.0245690957 -0.182690566 0.113357357
v -0.0245690957 -0.182728653 0.113357357
v -0.0245781556 -0.182690566 0.113352111
v -0.0245781556 -0.182728653 0.113352111
v -0.0245887653 -0.182690566 0.113349012
v -0.0245887653 -0.182728653 0.113349012
v -0.0245971099 -0.182690566 0.113348297
v -0.0245971099 -0.182728653 0.113348297
v -0.0244130508 -0.182728653 0.113539747
v -0.0244130508 -0.182690566 0.113539747
v -0.0244395152 -0.182690566 0.113536886
v -0.0244395152 -0.182728653 0.113536886
v -0.0244602576 -0.182690566 0.113529376
v -0.0244602576 -0.182728653 0.113529376
v -0.0244743243 -0.182690566 0.113520554
v -0.0244743243 -0.182728653 0.113520554
v -0.0245264188 -0.182728653 0.113301328
v -0.0245264188 -0.182690566 0.113301328
v -0.0245119945 -0.182690566 0.113317541
v -0.0245119945 -0.182728653 0.113317541
v -0.0244869605 -0.182690566 0.113362602
v -0.0244869605 -0.182728653 0.113362602
v -0.0244762317 -0.182690566 0.113388947
v -0.0244762317 -0.182728653 0.113388947
v -0.0246958152 -0.182690566 0.114008478
v -0.0246958152 -0.182728653 0.114008478
v -0.0246958152 -0.182690566 0.114011339
v -0.0246958152 -0.182728653 0.114300183
v -0.0246958152 -0.182690566 0.114300183
v -0.0238354818 -0.182728653 0.11212354
v -0.0238354818 -0.182728653 0.112200907
v -0.0238354818 -0.182690566 0.11212354
v -0.0238354818 -0.182690566 0.112200907
v 0.0112701043 -0.224893455 0.0618957792
v 0.0112701043 -0.224873965 0.0618402277
v 0.0112801179 -0.224893455 0.0618957792
v 0.0112801179 -0.224873965 0.0618402277
v 0.0112701043 -0.224546497 0.0620201145
v 0.0112701043 -0.224546497 0.0619550262
v 0.0112801179 -0.224546497 0.0620201145
v 0.0112801179 -0.224546497 0.0619550262
v 0.0112701043 -0.224273984 0.061934999
v 0.0112801179 -0.224273984 0.061934999
v 0.0112801179 -0.224271481 0.0619377409
v 0.0112701043 -0.224271481 0.0619377409
v 0.0112801179 -0.224269693 0.0619411979
v 0.0112701043 -0.224269693 0.0619411979
v 0.0112801179 -0.22426868 0.0619451318
v 0.0112701043 -0.22426868 0.0619451318
v 0.0112801179 -0.224268441 0.0619484697
v 0.0112701043 -0.224268441 0.0619484697
v 0.0112701043 -0.224681501 0.0623401914
v 0.0112701043 -0.224680846 0.0623401914
v 0.0112801179 -0.224681501 0.0623401914
v 0.0112801179 -0.224680846 0.0623401914
v 0.0112701043 -0.224715357 0.0622413669
v 0.0112701043 -0.22468466 0.0623260055
v 0.0112801179 -0.224715357 0.0622413669
v 0.0112801179 -0.22468466 0.0623260055
v 0.0112701043 -0.224176948 0.0623459135
v 0.0112801179 -0.224176948 0.0623459135
v 0.0112801179 -0.224201982 0.0623429332
v 0.0112701043 -0.224201982 0.0623429332
v 0.0112801179 -0.224222605 0.0623350654
v 0.0112701043 -0.224222605 0.0623350654
v 0.0112801179 -0.22422487 0.0623338733
v 0.0112701043 -0.22422487 0.0623338733
v 0.0148137196 -0.224294906 0.0612599168
v 0.0150508269 -0.224294906 0.0612599168
v 0.0148137196 -0.224294906 0.0611599002
v 0.0150508269 -0.224294906 0.0611599002
v 0.00929564083 -0.231205051 0.071477345
v 0.00938087548 -0.231205051 0.071477345
v 0.00929564083 -0.231195037 0.071477345
v 0.00938087548 -0.231195037 0.071477345
v -0.029307665 -0.166413848 0.114499739
v -0.029307665 -0.174213831 0.114499739
v -0.0253075973 -0.166413848 0.114499739
v -0.0253075973 -0.174213831 0.114499739
v -0.027457656 -0.174213831 0.115258745
v -0.0283642427 -0.174213831 0.115831784
v -0.0281915084 -0.174213831 0.115615777
v -0.0284852401 -0.174213831 0.116080454
v -0.0279755012 -0.174213831 0.115443162
v -0.0277268306 -0.174213831 0.115322164
v -0.0271576062 -0.174213831 0.117740682
v -0.0271576062 -0.174213831 0.116649679
v -0.027457656 -0.174213831 0.117740682
v -0.027457656 -0.174213831 0.116649679
v -0.026066722 -0.174213831 0.116649679
v -0.026066722 -0.174213831 0.116349748
v -0.0271576062 -0.174213831 0.116349748
v -0.0266397611 -0.174213831 0.115443162
v -0.0264237538 -0.174213831 0.115615777
v -0.0285486594 -0.174213831 0.116649679
v -0.027457656 -0.174213831 0.116349748
v -0.0271576062 -0.174213831 0.115258745
v -0.0268884317 -0.174213831 0.115322164
v -0.0285486594 -0.174213831 0.116349748
v -0.029307665 -0.174213831 0.116499713
v -0.0292692796 -0.174213831 0.116889885
v -0.0284852401 -0.174213831 0.116918973
v -0.0291554347 -0.174213831 0.117265037
v -0.0283642427 -0.174213831 0.117167643
v -0.0289705411 -0.174213831 0.117610863
v -0.0281915084 -0.174213831 0.11738365
v -0.0287218705 -0.174213831 0.117913893
v -0.0279755012 -0.174213831 0.117556385
v -0.0284188405 -0.174213831 0.118162683
v -0.0277268306 -0.174213831 0.117677382
v -0.0280730144 -0.174213831 0.118347457
v -0.0276978627 -0.174213831 0.118461302
v -0.0262510196 -0.174213831 0.115831784
v -0.0261300222 -0.174213831 0.116080454
v -0.0253075973 -0.174213831 0.116499713
v -0.0253461019 -0.174213831 0.116889885
v -0.0254599467 -0.174213831 0.117265037
v -0.0261300222 -0.174213831 0.116918973
v -0.0256447211 -0.174213831 0.117610863
v -0.0262510196 -0.174213831 0.117167643
v -0.0258933917 -0.174213831 0.117913893
v -0.0264237538 -0.174213831 0.11738365
v -0.0261965409 -0.174213831 0.118162683
v -0.0266397611 -0.174213831 0.117556385
v -0.0265422479 -0.174213831 0.118347457
v -0.0268884317 -0.174213831 0.117677382
v -0.0269175187 -0.174213831 0.118461302
v -0.0273076907 -0.174213831 0.118499688
f 1 2 3
f 1 3 4
f 4 3 5
f 4 5 6
f 6 5 7
f 6 7 8
f 8 7 9
f 8 9 10
f 11 12 13
f 11 13 14
f 14 13 15
f 14 15 16
f 16 15 17
f 16 17 18
f 19 20 21
f 19 21 22
f 22 21 23
f 22 23 24
f 24 23 25
f 24 25 26
f 27 28 29
f 29 28 30
f 29 30 31
f 32 33 34
f 34 33 35
f 36 37 38
f 38 37 39
f 40 41 42
f 42 41 43
f 44 45 46
f 44 46 47
f 47 46 48
f 47 48 49
f 49 48 50
f 49 50 51
f 51 50 52
f 51 52 53
f 54 55 56
f 56 55 57
f 58 59 60
f 60 59 61
f 62 63 64
f 62 64 65
f 65 64 66
f 65 66 67
f 67 66 68
f 67 68 69
f 70 71 72
f 72 71 73
f 74 75 76
f 76 75 77
f 78 79 80
f 80 79 81
f 82 81 79
f 83 84 79
f 83 79 85
f 84 86 79
f 79 86 87
f 79 87 82
f 88 89 90
f 90 89 91
f 92 93 89
f 89 93 94
f 89 94 91
f 95 96 81
f 97 91 98
f 98 91 94
f 98 94 82
f 82 94 99
f 82 99 81
f 81 99 100
f 81 100 95
f 85 79 101
f 101 79 102
f 101 102 103
f 98 101 97
f 97 101 103
f 97 103 104
f 104 103 105
f 104 105 106
f 106 105 107
f 106 107 108
f 108 107 109
f 108 109 110
f 110 109 111
f 110 111 112
f 112 111 113
f 112 113 90
f 90 113 114
f 90 114 88
f 96 115 81
f 81 115 116
f 81 116 117
f 117 116 93
f 117 93 118
f 118 93 92
f 118 92 119
f 119 92 120
f 119 120 121
f 121 120 122
f 121 122 123
f 123 122 124
f 123 124 125
f 125 124 126
f 125 126 127
f 127 126 128
f 127 128 129
f 129 128 88
f 129 88 130
f 130 88 114
