v -0.0247370616 -0.175792699 0.144325307
v -0.0247370616 -0.176009541 0.144325307
v -0.0247370616 -0.175792699 0.14428275
v -0.0247370616 -0.176009541 0.144284419
v -0.0247370616 -0.175792758 0.144278935
v -0.0247370616 -0.176004891 0.144245437
v -0.0247370616 -0.175995831 0.144222191
v -0.0247370616 -0.175983255 0.144204072
v -0.0247370616 -0.175980215 0.144200853
v -0.0247370616 -0.175964301 0.14418774
v -0.0247370616 -0.175898378 0.144170812
v -0.0247370616 -0.175819163 0.144201687
v -0.0247370616 -0.175918465 0.144172004
v -0.0247370616 -0.175806944 0.14421945
v -0.0247370616 -0.175943737 0.144177726
v -0.0247370616 -0.175797586 0.144243291
v -0.0247370616 -0.175863152 0.144174985
v -0.0247370616 -0.175842648 0.144182852
v -0.0247370616 -0.175826912 0.14419382
v -0.0247370616 -0.176238899 0.143973044
v -0.0247370616 -0.176455681 0.143973044
v -0.0247370616 -0.176238899 0.143930605
v -0.0247370616 -0.176455681 0.143932274
v -0.0247370616 -0.176238899 0.143926791
v -0.0247370616 -0.176451032 0.143893293
v -0.0247370616 -0.176442032 0.143870047
v -0.0247370616 -0.176429396 0.143851927
v -0.0247370616 -0.176426356 0.143848709
v -0.0247370616 -0.176410441 0.143835596
v -0.0247370616 -0.176344578 0.143818668
v -0.0247370616 -0.176265304 0.143849424
v -0.0247370616 -0.176364605 0.14381986
v -0.0247370616 -0.176253085 0.143867305
v -0.0247370616 -0.176389878 0.143825582
v -0.0247370616 -0.176243727 0.143891147
v -0.0247370616 -0.176309292 0.14382284
v -0.0247370616 -0.176288788 0.143830708
v -0.0247370616 -0.176273053 0.143841675
v -0.0264992133 -0.167513852 0.140749863
v -0.0264371053 -0.167663817 0.140599898
v -0.0281749383 -0.167513852 0.140749863
v -0.0282371656 -0.167663817 0.140599898
v -0.0254370586 -0.167663817 0.141599945
v -0.0255871431 -0.167513852 0.141662053
v -0.0254370586 -0.167663817 0.142499975
v -0.0255871431 -0.167513852 0.142499975
v -0.0290871278 -0.167513852 0.141662053
v -0.0292370931 -0.167663817 0.141599945
v -0.0267537252 -0.167513852 0.144149831
v -0.0267037765 -0.167663817 0.144291214
v -0.0264001504 -0.167663817 0.144152812
v -0.0264741794 -0.167513852 0.144022397
v -0.0261254922 -0.167663817 0.143963388
v -0.0262210981 -0.167513852 0.143847874
v -0.0258881465 -0.167663817 0.143728903
v -0.0260024682 -0.167513852 0.143631867
v -0.0256953851 -0.167663817 0.143456391
v -0.0258250848 -0.167513852 0.143380931
v -0.0255534068 -0.167663817 0.143154434
v -0.025694193 -0.167513852 0.143102816
v -0.025466384 -0.167663817 0.14283233
v -0.0256140844 -0.167513852 0.142806104
v -0.0290871278 -0.167513852 0.142499975
v -0.0292370931 -0.167663817 0.142499975
v -0.0268136874 -0.167663817 0.14434605
v -0.0268966571 -0.167513852 0.144221119
v -0.0269067899 -0.167663817 0.144426039
v -0.0270177737 -0.167513852 0.144325069
v -0.0269777194 -0.167663817 0.144526294
v -0.0271099225 -0.167513852 0.144455365
v -0.0270220653 -0.167663817 0.144640854
v -0.0271675006 -0.167513852 0.144604257
v -0.0270370856 -0.167663817 0.144762686
v -0.0271871701 -0.167513852 0.144762686
v -0.0292077676 -0.167663817 0.14283233
v -0.0290600673 -0.167513852 0.142806104
v -0.029120864 -0.167663817 0.143154434
v -0.0289799586 -0.167513852 0.143102816
v -0.0289787666 -0.167663817 0.143456391
v -0.0288491861 -0.167513852 0.143380931
v -0.0287861243 -0.167663817 0.143728903
v -0.0286716834 -0.167513852 0.143631867
v -0.0285487786 -0.167663817 0.143963388
v -0.0284531728 -0.167513852 0.143847874
v -0.0282741204 -0.167663817 0.144152812
v -0.0282000915 -0.167513852 0.144022397
v -0.0279704944 -0.167663817 0.144291214
v -0.0279204265 -0.167513852 0.144149831
v -0.0270370856 -0.167663817 0.145237139
v -0.0271871701 -0.167513852 0.145237139
v -0.0270220653 -0.167663817 0.14535909
v -0.0271675006 -0.167513852 0.145395568
v -0.0269777194 -0.167663817 0.145473531
v -0.0271099225 -0.167513852 0.145544461
v -0.0269067899 -0.167663817 0.145573786
v -0.0270177737 -0.167513852 0.145674757
v -0.0268136874 -0.167663817 0.145653776
v -0.0268966571 -0.167513852 0.145778707
v -0.0267037765 -0.167663817 0.145708612
v -0.0267537252 -0.167513852 0.145849994
v -0.0274871007 -0.167513852 0.144762686
v -0.027637066 -0.167663817 0.144762686
v -0.0274871007 -0.167513852 0.145237139
v -0.027637066 -0.167663817 0.145237139
v -0.0279204265 -0.167513852 0.145849994
v -0.0279704944 -0.167663817 0.145708612
v -0.0282741204 -0.167663817 0.145847014
v -0.0282000915 -0.167513852 0.145977548
v -0.0285487786 -0.167663817 0.146036438
v -0.0284531728 -0.167513852 0.146151951
v -0.0287861243 -0.167663817 0.146270922
v -0.0286716834 -0.167513852 0.146367959
v -0.0289787666 -0.167663817 0.146543435
v -0.0288491861 -0.167513852 0.146618894
v -0.029120864 -0.167663817 0.146845392
v -0.0289799586 -0.167513852 0.146897009
v -0.0292077676 -0.167663817 0.147167495
v -0.0290600673 -0.167513852 0.147193721
v -0.0292370931 -0.167663817 0.14749997
v -0.0290871278 -0.167513852 0.14749997
v -0.0257371083 -0.167513852 0.149249962
v -0.0257371083 -0.167663817 0.149399928
v -0.0256595031 -0.167663817 0.149389676
v -0.0256982461 -0.167513852 0.149244836
v -0.0255871431 -0.167663817 0.149359754
v -0.0256621257 -0.167513852 0.149229816
v -0.025525035 -0.167663817 0.14931207
v -0.0256310121 -0.167513852 0.149205974
v -0.0254773513 -0.167663817 0.149249962
v -0.0256071702 -0.167513852 0.14917498
v -0.0254473106 -0.167663817 0.149177602
v -0.0255922691 -0.167513852 0.14913874
v -0.0254370586 -0.167663817 0.149099878
v -0.0255871431 -0.167513852 0.149099878
v -0.0290871278 -0.167513852 0.149099878
v -0.0292370931 -0.167663817 0.149099878
v -0.0292268411 -0.167663817 0.149177602
v -0.0290820018 -0.167513852 0.14913874
v -0.0291969196 -0.167663817 0.149249962
v -0.0290669814 -0.167513852 0.14917498
v -0.0291492358 -0.167663817 0.14931207
v -0.0290431396 -0.167513852 0.149205974
v -0.0290871278 -0.167663817 0.149359754
v -0.0290121452 -0.167513852 0.149229816
v -0.0290147678 -0.167663817 0.149389676
v -0.0289759055 -0.167513852 0.149244836
v -0.0289371625 -0.167663817 0.149399928
v -0.0289371625 -0.167513852 0.149249962
v -0.025798978 -0.176913862 0.146384409
v -0.025798978 -0.173513834 0.146384409
v -0.0257647649 -0.176913862 0.146421007
v -0.0257647649 -0.173513834 0.146421007
v -0.0257224456 -0.176913862 0.146447948
v -0.0257224456 -0.173513834 0.146447948
v -0.0256747619 -0.176913862 0.146463445
v -0.0256747619 -0.173513834 0.146463445
v -0.025624694 -0.176913862 0.146466664
v -0.025624694 -0.173513834 0.146466664
v -0.0255753413 -0.176913862 0.146457246
v -0.0255753413 -0.173513834 0.146457246
v -0.0255300418 -0.176913862 0.146435908
v -0.0255300418 -0.173513834 0.146435908
v -0.0254912988 -0.176913862 0.14640396
v -0.0254912988 -0.173513834 0.14640396
v -0.0254618541 -0.176913862 0.146363429
v -0.0254618541 -0.173513834 0.146363429
v -0.0254433767 -0.176913862 0.146316818
v -0.0254433767 -0.173513834 0.146316818
v -0.0254370586 -0.176913862 0.146266988
v -0.0254370586 -0.173513834 0.146266988
v -0.0254370586 -0.176913862 0.143732837
v -0.0254370586 -0.173513834 0.143732837
v -0.0254439727 -0.176913862 0.143680981
v -0.0254439727 -0.173513834 0.143680981
v -0.0254638807 -0.176913862 0.143632821
v -0.0254638807 -0.173513834 0.143632821
v -0.0254957095 -0.176913862 0.143591336
v -0.0254957095 -0.173513834 0.143591336
v -0.0255370752 -0.176913862 0.143559626
v -0.0255370752 -0.173513834 0.143559626
v -0.0255853549 -0.176913862 0.143539599
v -0.0255853549 -0.173513834 0.143539599
v -0.0256370917 -0.176913862 0.143532804
v -0.0256370917 -0.173513834 0.143532804
v -0.0292370931 -0.176913862 0.146266988
v -0.0292370931 -0.173513834 0.146266988
v -0.029230775 -0.176913862 0.146316818
v -0.029230775 -0.173513834 0.146316818
v -0.0292122976 -0.176913862 0.146363429
v -0.0292122976 -0.173513834 0.146363429
v -0.0291828529 -0.176913862 0.14640396
v -0.0291828529 -0.173513834 0.14640396
v -0.029144229 -0.176913862 0.146435908
v -0.029144229 -0.173513834 0.146435908
v -0.0290988103 -0.176913862 0.146457246
v -0.0290988103 -0.173513834 0.146457246
v -0.0290495769 -0.176913862 0.146466664
v -0.0290495769 -0.173513834 0.146466664
v -0.028999509 -0.176913862 0.146463445
v -0.028999509 -0.173513834 0.146463445
v -0.0289518253 -0.176913862 0.146447948
v -0.0289518253 -0.173513834 0.146447948
v -0.028909506 -0.176913862 0.146421007
v -0.028909506 -0.173513834 0.146421007
v -0.0288751737 -0.176913862 0.146384409
v -0.0288751737 -0.173513834 0.146384409
v -0.0279704944 -0.176913862 0.145708612
v -0.0278605834 -0.176913862 0.145653776
v -0.0278605834 -0.167663817 0.145653776
v -0.0277673618 -0.176913862 0.145573786
v -0.0277673618 -0.167663817 0.145573786
v -0.0276965514 -0.176913862 0.145473531
v -0.0276965514 -0.167663817 0.145473531
v -0.0276522056 -0.176913862 0.14535909
v -0.0276522056 -0.167663817 0.14535909
v -0.027637066 -0.176913862 0.145237139
v -0.0270370856 -0.176913862 0.145237139
v -0.0270220653 -0.176913862 0.14535909
v -0.0269777194 -0.176913862 0.145473531
v -0.0269067899 -0.176913862 0.145573786
v -0.0268136874 -0.176913862 0.145653776
v -0.0267037765 -0.176913862 0.145708612
v -0.0267037765 -0.176913862 0.144291214
v -0.0268136874 -0.176913862 0.14434605
v -0.0269067899 -0.176913862 0.144426039
v -0.0269777194 -0.176913862 0.144526294
v -0.0270220653 -0.176913862 0.144640854
v -0.0270370856 -0.176913862 0.144762686
v -0.027637066 -0.176913862 0.144762686
v -0.0288751737 -0.173513834 0.143615416
v -0.0288751737 -0.176913862 0.143615416
v -0.0287861243 -0.176913862 0.143728903
v -0.0289787666 -0.173513834 0.143456391
v -0.029120864 -0.173513834 0.143154434
v -0.0292077676 -0.173513834 0.14283233
v -0.0292370931 -0.173513834 0.142499975
v -0.0285487786 -0.176913862 0.143963388
v -0.0282741204 -0.176913862 0.144152812
v -0.0279704944 -0.176913862 0.144291214
v -0.0292370931 -0.173513834 0.141599945
v -0.0282371656 -0.173513834 0.140599898
v -0.0264371053 -0.173513834 0.140599898
v -0.0254370586 -0.173513834 0.141599945
v -0.0254370586 -0.173513834 0.149099878
v -0.0254370586 -0.167663817 0.14749997
v -0.0254370586 -0.173513834 0.14749997
v -0.0292302982 -0.173513834 0.143680981
v -0.029210271 -0.173513834 0.143632821
v -0.02993709 -0.173513834 0.141599945
v -0.0257865802 -0.173513834 0.140029362
v -0.026105465 -0.173513834 0.139932564
v -0.0291785613 -0.173513834 0.143591336
v -0.0291370765 -0.173513834 0.143559626
v -0.0299044267 -0.173513834 0.141268304
v -0.0290889159 -0.173513834 0.143539599
v -0.0264371053 -0.173513834 0.139899901
v -0.0282371656 -0.173513834 0.139899901
v -0.0285688058 -0.173513834 0.139932564
v -0.0288876907 -0.173513834 0.140029362
v -0.0289787666 -0.173513834 0.146543435
v -0.0247370616 -0.173513834 0.141599945
v -0.02993709 -0.173513834 0.149399928
v -0.0296506301 -0.173513834 0.140655449
v -0.0294391528 -0.173513834 0.140397838
v -0.0291815416 -0.173513834 0.14018648
v -0.0256953851 -0.173513834 0.146543435
v -0.0292077676 -0.173513834 0.147167495
v -0.0292370931 -0.173513834 0.14749997
v -0.0292370931 -0.173513834 0.149099878
v -0.029120864 -0.173513834 0.146845392
v -0.029807748 -0.173513834 0.1409493
v -0.0247370616 -0.173513834 0.144035986
v -0.0299132482 -0.173513834 0.149581126
v -0.0298432723 -0.173513834 0.149749926
v -0.0291969196 -0.173513834 0.149249962
v -0.0291492358 -0.173513834 0.14931207
v -0.0290370599 -0.173513834 0.143532804
v -0.0289903299 -0.173513834 0.143538288
v -0.0289462224 -0.173513834 0.143554619
v -0.0289071218 -0.173513834 0.143580845
v -0.0248665229 -0.173513834 0.1409493
v -0.0250236407 -0.173513834 0.140655449
v -0.0252349988 -0.173513834 0.140397838
v -0.0254926101 -0.173513834 0.14018648
v -0.0256953851 -0.173513834 0.143456391
v -0.025798978 -0.173513834 0.143615416
v -0.0257671491 -0.173513834 0.143580845
v -0.024769725 -0.173513834 0.141268304
v -0.0254370586 -0.173513834 0.142499975
v -0.025466384 -0.173513834 0.14283233
v -0.0254370586 -0.173513834 0.150099925
v -0.0252559796 -0.173513834 0.150076083
v -0.0255871431 -0.173513834 0.149359754
v -0.0250870601 -0.173513834 0.150006107
v -0.025525035 -0.173513834 0.14931207
v -0.0292268411 -0.173513834 0.149177602
v -0.0292370931 -0.173513834 0.143732837
v -0.0257279292 -0.173513834 0.143554619
v -0.0256838218 -0.173513834 0.143538288
v -0.0255534068 -0.173513834 0.143154434
v -0.0247370616 -0.173513834 0.14794927
v -0.0247370616 -0.173513834 0.149399928
v -0.0297320501 -0.173513834 0.149894885
v -0.0295870916 -0.173513834 0.150006107
v -0.0290871278 -0.173513834 0.149359754
v -0.0294182912 -0.173513834 0.150076083
v -0.0290147678 -0.173513834 0.149389676
v -0.0292370931 -0.173513834 0.150099925
v -0.0247370616 -0.173513834 0.145107797
v -0.0255534068 -0.173513834 0.146845392
v -0.0249421016 -0.173513834 0.149894885
v -0.0248308793 -0.173513834 0.149749926
v -0.0254773513 -0.173513834 0.149249962
v -0.0247609035 -0.173513834 0.149581126
v -0.0254473106 -0.173513834 0.149177602
v -0.0256595031 -0.173513834 0.149389676
v -0.0257371083 -0.173513834 0.149399928
v -0.0289371625 -0.173513834 0.149399928
v -0.0247370616 -0.173513834 0.144837073
v -0.0247370616 -0.173513834 0.144820264
v -0.0247370616 -0.173513834 0.144582203
v -0.025466384 -0.173513834 0.147167495
v -0.0247370616 -0.173513834 0.144453696
v -0.0247370616 -0.173513834 0.144388131
v -0.0247370616 -0.173513834 0.144232801
v -0.0247370616 -0.173513834 0.144124797
v -0.02993709 -0.176913862 0.149399928
v -0.02993709 -0.176913862 0.141599945
v -0.0247370616 -0.176913862 0.141599945
v -0.0247370616 -0.176913862 0.144035986
v -0.026274623 -0.176913862 0.147215179
v -0.026384534 -0.176913862 0.146949938
v -0.0270524636 -0.176913862 0.146437458
v -0.0273371354 -0.176913862 0.146399907
v -0.0276218072 -0.176913862 0.146437458
v -0.0248308793 -0.176913862 0.149749926
v -0.0249421016 -0.176913862 0.149894885
v -0.0265592948 -0.176913862 0.148277691
v -0.0247370616 -0.176913862 0.144124797
v -0.0247370616 -0.176913862 0.144232801
v -0.026384534 -0.176913862 0.143049887
v -0.026274623 -0.176913862 0.142784647
v -0.0267871038 -0.176913862 0.146547249
v -0.0262370721 -0.176913862 0.142499975
v -0.026274623 -0.176913862 0.142215184
v -0.024769725 -0.176913862 0.141268304
v -0.026384534 -0.176913862 0.141949943
v -0.0254926101 -0.176913862 0.14018648
v -0.0265592948 -0.176913862 0.141722134
v -0.0267871038 -0.176913862 0.141547254
v -0.0270524636 -0.176913862 0.143562487
v -0.0273371354 -0.176913862 0.143599919
v -0.0265592948 -0.176913862 0.143277696
v -0.0261254922 -0.176913862 0.143963388
v -0.0267871038 -0.176913862 0.143452576
v -0.0264001504 -0.176913862 0.144152812
v -0.0247370616 -0.176913862 0.14794927
v -0.0262370721 -0.176913862 0.14749997
v -0.026274623 -0.176913862 0.147784642
v -0.0252349988 -0.176913862 0.140397838
v -0.0250236407 -0.176913862 0.140655449
v -0.0248665229 -0.176913862 0.1409493
v -0.0295870916 -0.176913862 0.150006107
v -0.0297320501 -0.176913862 0.149894885
v -0.028114976 -0.176913862 0.148277691
v -0.0282371656 -0.176913862 0.139899901
v -0.0264371053 -0.176913862 0.139899901
v -0.0270524636 -0.176913862 0.141437343
v -0.026105465 -0.176913862 0.139932564
v -0.0257865802 -0.176913862 0.140029362
v -0.0296506301 -0.176913862 0.140655449
v -0.028114976 -0.176913862 0.141722134
v -0.0282897369 -0.176913862 0.141949943
v -0.0278871671 -0.176913862 0.148452571
v -0.0276218072 -0.176913862 0.148562482
v -0.0292370931 -0.176913862 0.150099925
v -0.0273371354 -0.176913862 0.148599914
v -0.0254370586 -0.176913862 0.150099925
v -0.0247370616 -0.176913862 0.144388131
v -0.0247370616 -0.176913862 0.144453696
v -0.0247370616 -0.176913862 0.144582203
v -0.0256838218 -0.176913862 0.143538288
v -0.0257279292 -0.176913862 0.143554619
v -0.0264001504 -0.176913862 0.145847014
v -0.0261254922 -0.176913862 0.146036438
v -0.0265592948 -0.176913862 0.146722129
v -0.0258881465 -0.176913862 0.146270922
v -0.0273371354 -0.176913862 0.141399911
v -0.0276218072 -0.176913862 0.141437343
v -0.0285688058 -0.176913862 0.139932564
v -0.0278871671 -0.176913862 0.141547254
v -0.0294391528 -0.176913862 0.140397838
v -0.0291815416 -0.176913862 0.14018648
v -0.0288876907 -0.176913862 0.140029362
v -0.0270524636 -0.176913862 0.148562482
v -0.0267871038 -0.176913862 0.148452571
v -0.0252559796 -0.176913862 0.150076083
v -0.0250870601 -0.176913862 0.150006107
v -0.026384534 -0.176913862 0.148049882
v -0.0247370616 -0.176913862 0.149399928
v -0.0247609035 -0.176913862 0.149581126
v -0.0284370795 -0.176913862 0.142499975
v -0.0283996478 -0.176913862 0.142215184
v -0.0299044267 -0.176913862 0.141268304
v -0.029807748 -0.176913862 0.1409493
v -0.0283996478 -0.176913862 0.142784647
v -0.0291785613 -0.176913862 0.143591336
v -0.0291370765 -0.176913862 0.143559626
v -0.0282897369 -0.176913862 0.143049887
v -0.0290889159 -0.176913862 0.143539599
v -0.029210271 -0.176913862 0.143632821
v -0.0292302982 -0.176913862 0.143680981
v -0.0257671491 -0.176913862 0.143580845
v -0.025798978 -0.176913862 0.143615416
v -0.0258881465 -0.176913862 0.143728903
v -0.0278871671 -0.176913862 0.143452576
v -0.0276218072 -0.176913862 0.143562487
v -0.0276522056 -0.176913862 0.144640854
v -0.0282897369 -0.176913862 0.148049882
v -0.0299132482 -0.176913862 0.149581126
v -0.0298432723 -0.176913862 0.149749926
v -0.0294182912 -0.176913862 0.150076083
v -0.0247370616 -0.176913862 0.145107797
v -0.0247370616 -0.176913862 0.144837073
v -0.0247370616 -0.176913862 0.144820264
v -0.0289071218 -0.176913862 0.143580845
v -0.0289462224 -0.176913862 0.143554619
v -0.0287861243 -0.176913862 0.146270922
v -0.0285487786 -0.176913862 0.146036438
v -0.0289903299 -0.176913862 0.143538288
v -0.0290370599 -0.176913862 0.143532804
v -0.0276965514 -0.176913862 0.144526294
v -0.0277673618 -0.176913862 0.144426039
v -0.0278605834 -0.176913862 0.14434605
v -0.0278871671 -0.176913862 0.146547249
v -0.028114976 -0.176913862 0.146722129
v -0.0282897369 -0.176913862 0.146949938
v -0.0283996478 -0.176913862 0.147215179
v -0.0284370795 -0.176913862 0.14749997
v -0.0283996478 -0.176913862 0.147784642
v -0.0282741204 -0.176913862 0.145847014
v -0.028114976 -0.176913862 0.143277696
v -0.0292370931 -0.176913862 0.143732837
v -0.0273371354 -0.167663817 0.141399911
v -0.0274806634 -0.167663817 0.141409329
v -0.0273371354 -0.168013816 0.141399911
v -0.0276218072 -0.168013816 0.141437343
v -0.0276218072 -0.167663817 0.141437343
v -0.0277580634 -0.167663817 0.141483596
v -0.0278871671 -0.168013816 0.141547254
v -0.0278871671 -0.167663817 0.141547254
v -0.028006734 -0.167663817 0.141627244
v -0.028114976 -0.168013816 0.141722134
v -0.028114976 -0.167663817 0.141722134
v -0.0282097474 -0.167663817 0.141830257
v -0.0282897369 -0.168013816 0.141949943
v -0.0282897369 -0.167663817 0.141949943
v -0.0283533946 -0.167663817 0.142078928
v -0.0283996478 -0.168013816 0.142215184
v -0.0283996478 -0.167663817 0.142215184
v -0.028427662 -0.167663817 0.142356328
v -0.0284370795 -0.168013816 0.142499975
v -0.0284370795 -0.167663817 0.142499975
v -0.028427662 -0.167663817 0.142643503
v -0.0283996478 -0.168013816 0.142784647
v -0.0283996478 -0.167663817 0.142784647
v -0.0283533946 -0.167663817 0.142920903
v -0.0282897369 -0.168013816 0.143049887
v -0.0282897369 -0.167663817 0.143049887
v -0.0282097474 -0.167663817 0.143169573
v -0.028114976 -0.168013816 0.143277696
v -0.028114976 -0.167663817 0.143277696
v -0.028006734 -0.167663817 0.143372587
v -0.0278871671 -0.168013816 0.143452576
v -0.0278871671 -0.167663817 0.143452576
v -0.0277580634 -0.167663817 0.143516234
v -0.0276218072 -0.168013816 0.143562487
v -0.0273371354 -0.167663817 0.143599919
v -0.0273371354 -0.168013816 0.143599919
v -0.0274806634 -0.167663817 0.143590501
v -0.0276218072 -0.167663817 0.143562487
v -0.0273371354 -0.167663817 0.148599914
v -0.0273371354 -0.167513852 0.148749879
v -0.0271934882 -0.167663817 0.148590497
v -0.0271739379 -0.167513852 0.14873927
v -0.0270524636 -0.167663817 0.148562482
v -0.0270136014 -0.167513852 0.148707322
v -0.0269162074 -0.167663817 0.148516229
v -0.0268587485 -0.167513852 0.14865475
v -0.0267871038 -0.167663817 0.148452571
v -0.0267121211 -0.167513852 0.14858251
v -0.0266674176 -0.167663817 0.148372582
v -0.0265761033 -0.167513852 0.148491672
v -0.0265592948 -0.167663817 0.148277691
v -0.0264531985 -0.167513852 0.148383788
v -0.0264644042 -0.167663817 0.148169569
v -0.0263454333 -0.167513852 0.148260883
v -0.026384534 -0.167663817 0.148049882
v -0.0262545959 -0.167513852 0.148124865
v -0.0263208762 -0.167663817 0.147920898
v -0.0261822358 -0.167513852 0.147978238
v -0.026274623 -0.167663817 0.147784642
v -0.0261296645 -0.167513852 0.147823504
v -0.0262464896 -0.167663817 0.147643498
v -0.0260978357 -0.167513852 0.147663048
v -0.0262370721 -0.167663817 0.14749997
v -0.0260871068 -0.167513852 0.14749997
v -0.0262464896 -0.167663817 0.147356323
v -0.0260978357 -0.167513852 0.147336773
v -0.026274623 -0.167663817 0.147215179
v -0.0261296645 -0.167513852 0.147176436
v -0.0263208762 -0.167663817 0.147078923
v -0.0261822358 -0.167513852 0.147021583
v -0.026384534 -0.167663817 0.146949938
v -0.0262545959 -0.167513852 0.146874956
v -0.0264644042 -0.167663817 0.146830252
v -0.0263454333 -0.167513852 0.146738938
v -0.0265592948 -0.167663817 0.146722129
v -0.0264531985 -0.167513852 0.146616033
v -0.0266674176 -0.167663817 0.146627239
v -0.0265761033 -0.167513852 0.146508268
v -0.0267871038 -0.167663817 0.146547249
v -0.0267121211 -0.167513852 0.14641743
v -0.0269162074 -0.167663817 0.146483711
v -0.0268587485 -0.167513852 0.14634507
v -0.0270524636 -0.167663817 0.146437458
v -0.0270136014 -0.167513852 0.146292499
v -0.0271934882 -0.167663817 0.146409324
v -0.0271739379 -0.167513852 0.14626067
v -0.0273371354 -0.167663817 0.146399907
v -0.0273371354 -0.167513852 0.146249941
f 1 2 3
f 3 2 4
f 3 4 5
f 5 4 6
f 5 6 7
f 7 8 5
f 5 8 9
f 5 9 10
f 11 12 13
f 13 12 14
f 10 15 5
f 5 15 13
f 5 13 16
f 16 13 14
f 17 18 11
f 11 18 19
f 11 19 12
f 20 21 22
f 22 21 23
f 22 23 24
f 24 23 25
f 24 25 26
f 26 27 24
f 24 27 28
f 24 28 29
f 30 31 32
f 32 31 33
f 29 34 24
f 24 34 32
f 24 32 35
f 35 32 33
f 36 37 30
f 30 37 38
f 30 38 31
f 39 40 41
f 41 40 42
f 43 44 45
f 45 44 46
f 41 42 47
f 47 42 48
f 49 50 51
f 49 51 52
f 52 51 53
f 52 53 54
f 54 53 55
f 54 55 56
f 56 55 57
f 56 57 58
f 58 57 59
f 58 59 60
f 60 59 61
f 60 61 62
f 62 61 45
f 62 45 46
f 47 48 63
f 63 48 64
f 50 49 65
f 65 49 66
f 65 66 67
f 67 66 68
f 67 68 69
f 69 68 70
f 69 70 71
f 71 70 72
f 71 72 73
f 73 72 74
f 63 64 75
f 63 75 76
f 76 75 77
f 76 77 78
f 78 77 79
f 78 79 80
f 80 79 81
f 80 81 82
f 82 81 83
f 82 83 84
f 84 83 85
f 84 85 86
f 86 85 87
f 86 87 88
f 89 90 91
f 91 90 92
f 91 92 93
f 93 92 94
f 93 94 95
f 95 94 96
f 95 96 97
f 97 96 98
f 97 98 99
f 99 98 100
f 101 102 103
f 103 102 104
f 105 106 107
f 105 107 108
f 108 107 109
f 108 109 110
f 110 109 111
f 110 111 112
f 112 111 113
f 112 113 114
f 114 113 115
f 114 115 116
f 116 115 117
f 116 117 118
f 118 117 119
f 118 119 120
f 121 122 123
f 121 123 124
f 124 123 125
f 124 125 126
f 126 125 127
f 126 127 128
f 128 127 129
f 128 129 130
f 130 129 131
f 130 131 132
f 132 131 133
f 132 133 134
f 135 136 137
f 135 137 138
f 138 137 139
f 138 139 140
f 140 139 141
f 140 141 142
f 142 141 143
f 142 143 144
f 144 143 145
f 144 145 146
f 146 145 147
f 146 147 148
f 149 150 151
f 151 150 152
f 151 152 153
f 153 152 154
f 153 154 155
f 155 154 156
f 155 156 157
f 157 156 158
f 157 158 159
f 159 158 160
f 159 160 161
f 161 160 162
f 161 162 163
f 163 162 164
f 163 164 165
f 165 164 166
f 165 166 167
f 167 166 168
f 167 168 169
f 169 168 170
f 171 172 173
f 173 172 174
f 173 174 175
f 175 174 176
f 175 176 177
f 177 176 178
f 177 178 179
f 179 178 180
f 179 180 181
f 181 180 182
f 181 182 183
f 183 182 184
f 185 186 187
f 187 186 188
f 187 188 189
f 189 188 190
f 189 190 191
f 191 190 192
f 191 192 193
f 193 192 194
f 193 194 195
f 195 194 196
f 195 196 197
f 197 196 198
f 197 198 199
f 199 198 200
f 199 200 201
f 201 200 202
f 201 202 203
f 203 202 204
f 203 204 205
f 205 204 206
f 207 106 208
f 208 106 209
f 208 209 210
f 210 209 211
f 210 211 212
f 212 211 213
f 212 213 214
f 214 213 215
f 214 215 216
f 216 215 104
f 217 89 218
f 218 89 91
f 218 91 219
f 219 91 93
f 219 93 220
f 220 93 95
f 220 95 221
f 221 95 97
f 221 97 222
f 222 97 99
f 223 50 224
f 224 50 65
f 224 65 225
f 225 65 67
f 225 67 226
f 226 67 69
f 226 69 227
f 227 69 71
f 227 71 228
f 228 71 73
f 102 229 104
f 104 229 216
f 230 231 232
f 233 230 81
f 81 79 233
f 233 79 77
f 233 77 234
f 234 77 75
f 234 75 235
f 235 75 64
f 235 64 236
f 230 232 81
f 81 232 237
f 81 237 83
f 83 237 238
f 83 238 85
f 85 238 239
f 85 239 87
f 89 217 73
f 73 217 228
f 171 169 172
f 172 169 170
f 48 240 64
f 64 240 236
f 42 241 48
f 48 241 240
f 40 242 42
f 42 242 241
f 43 243 40
f 40 243 242
f 133 244 245
f 245 244 246
f 247 248 249
f 250 251 242
f 248 252 249
f 249 252 253
f 249 253 254
f 254 253 255
f 251 256 242
f 242 256 257
f 242 257 241
f 241 257 258
f 241 258 259
f 260 206 204
f 182 180 261
f 262 192 190
f 234 235 254
f 263 240 264
f 264 240 241
f 264 241 265
f 265 241 259
f 152 150 266
f 267 262 268
f 268 262 269
f 204 202 260
f 260 202 200
f 260 200 270
f 270 200 198
f 270 198 267
f 267 198 196
f 267 196 262
f 262 196 194
f 262 194 192
f 263 271 240
f 240 271 254
f 240 254 236
f 236 254 235
f 180 178 261
f 261 178 176
f 261 176 272
f 273 274 275
f 275 274 276
f 255 277 254
f 254 277 278
f 254 278 234
f 234 278 279
f 234 279 233
f 233 279 280
f 233 280 230
f 281 282 243
f 243 282 283
f 243 283 242
f 242 283 284
f 242 284 250
f 285 286 287
f 281 243 288
f 288 243 289
f 288 289 290
f 291 292 293
f 293 292 294
f 293 294 295
f 273 275 262
f 262 275 296
f 262 296 269
f 190 188 262
f 262 188 186
f 262 186 249
f 249 186 297
f 249 297 247
f 287 298 285
f 285 298 299
f 285 299 300
f 300 299 184
f 300 184 290
f 290 184 182
f 290 182 288
f 288 182 261
f 301 168 166
f 302 158 156
f 274 303 276
f 276 303 304
f 276 304 305
f 305 304 306
f 305 306 307
f 307 306 308
f 168 301 170
f 170 301 309
f 170 309 172
f 166 164 301
f 301 164 162
f 301 162 302
f 302 162 160
f 302 160 158
f 152 266 154
f 154 266 310
f 154 310 156
f 294 311 295
f 295 311 312
f 295 312 313
f 313 312 314
f 313 314 315
f 315 314 302
f 315 302 244
f 244 302 246
f 293 316 291
f 291 316 317
f 291 317 308
f 308 317 318
f 308 318 307
f 309 319 172
f 172 319 320
f 172 320 321
f 156 310 302
f 302 310 322
f 302 322 246
f 321 323 172
f 172 323 324
f 172 324 325
f 176 174 272
f 272 174 172
f 272 172 326
f 326 172 325
f 262 249 327
f 327 249 328
f 119 268 136
f 136 268 269
f 329 330 173
f 331 332 161
f 161 332 159
f 226 227 216
f 333 221 222
f 197 334 335
f 336 337 338
f 173 330 171
f 171 330 339
f 171 339 340
f 181 341 179
f 179 341 342
f 179 342 177
f 177 342 329
f 177 329 175
f 175 329 173
f 151 153 332
f 333 222 343
f 197 199 334
f 334 199 201
f 334 201 203
f 342 344 329
f 329 344 345
f 329 345 346
f 346 345 347
f 348 349 350
f 351 224 352
f 352 224 225
f 352 225 226
f 353 354 355
f 355 354 356
f 355 356 351
f 351 356 223
f 351 223 224
f 161 163 331
f 331 163 357
f 331 357 358
f 358 357 359
f 348 360 349
f 349 360 361
f 349 361 347
f 347 361 362
f 347 362 346
f 363 364 365
f 153 155 332
f 332 155 157
f 332 157 159
f 366 367 368
f 368 367 369
f 368 369 350
f 350 369 370
f 350 370 348
f 371 372 373
f 374 375 376
f 376 375 377
f 376 377 378
f 340 379 171
f 171 379 380
f 171 380 381
f 181 183 341
f 341 183 382
f 341 382 383
f 222 384 343
f 343 384 385
f 343 385 386
f 386 385 387
f 386 387 332
f 332 387 149
f 332 149 151
f 368 388 366
f 366 388 389
f 366 389 390
f 390 389 391
f 371 392 372
f 372 392 393
f 372 393 391
f 391 393 394
f 391 394 390
f 377 395 378
f 378 395 396
f 378 396 397
f 397 396 338
f 397 338 398
f 398 338 337
f 359 357 399
f 399 357 400
f 399 400 338
f 338 400 401
f 338 401 336
f 334 208 333
f 333 208 210
f 333 210 221
f 221 210 212
f 221 212 220
f 402 328 403
f 403 328 404
f 403 404 373
f 373 404 405
f 373 405 371
f 402 406 407
f 407 406 408
f 408 406 409
f 408 409 410
f 402 407 328
f 328 407 411
f 328 411 412
f 383 413 341
f 341 413 414
f 341 414 353
f 353 414 415
f 353 415 354
f 227 228 216
f 216 228 217
f 216 217 214
f 214 217 218
f 214 218 212
f 212 218 219
f 212 219 220
f 416 417 239
f 226 216 352
f 352 216 229
f 352 229 418
f 327 419 420
f 420 419 365
f 420 365 421
f 421 365 364
f 374 376 365
f 365 376 422
f 365 422 363
f 163 165 357
f 357 165 167
f 357 167 423
f 423 167 169
f 423 169 424
f 424 169 171
f 424 171 425
f 425 171 381
f 426 427 409
f 327 189 191
f 203 205 334
f 334 205 428
f 334 428 429
f 427 430 409
f 409 430 431
f 409 431 410
f 418 432 352
f 352 432 433
f 352 433 417
f 417 433 434
f 417 434 239
f 335 435 197
f 197 435 436
f 197 436 195
f 195 436 437
f 195 437 193
f 193 437 438
f 193 438 191
f 191 438 439
f 191 439 327
f 327 439 440
f 327 440 419
f 429 441 334
f 334 441 207
f 334 207 208
f 239 238 416
f 416 238 237
f 416 237 442
f 442 237 232
f 442 232 409
f 409 232 231
f 409 231 426
f 412 443 328
f 328 443 185
f 328 185 327
f 327 185 187
f 327 187 189
f 444 445 446
f 446 445 447
f 445 448 447
f 447 448 449
f 447 449 450
f 449 451 450
f 450 451 452
f 450 452 453
f 452 454 453
f 453 454 455
f 453 455 456
f 455 457 456
f 456 457 458
f 456 458 459
f 458 460 459
f 459 460 461
f 459 461 462
f 461 463 462
f 462 463 464
f 462 464 465
f 464 466 465
f 465 466 467
f 465 467 468
f 467 469 468
f 468 469 470
f 468 470 471
f 470 472 471
f 471 472 473
f 471 473 474
f 473 475 474
f 474 475 476
f 474 476 477
f 478 479 480
f 480 479 477
f 480 477 481
f 481 477 476
f 183 184 382
f 382 184 299
f 382 299 383
f 383 299 298
f 383 298 413
f 413 298 287
f 413 287 414
f 414 287 286
f 482 483 484
f 484 483 485
f 484 485 486
f 486 485 487
f 486 487 488
f 488 487 489
f 488 489 490
f 490 489 491
f 490 491 492
f 492 491 493
f 492 493 494
f 494 493 495
f 494 495 496
f 496 495 497
f 496 497 498
f 498 497 499
f 498 499 500
f 500 499 501
f 500 501 502
f 502 501 503
f 502 503 504
f 504 503 505
f 504 505 506
f 506 505 507
f 506 507 508
f 508 507 509
f 508 509 510
f 510 509 511
f 510 511 512
f 512 511 513
f 512 513 514
f 514 513 515
f 514 515 516
f 516 515 517
f 516 517 518
f 518 517 519
f 518 519 520
f 520 519 521
f 520 521 522
f 522 521 523
f 522 523 524
f 524 523 525
f 524 525 526
f 526 525 527
f 526 527 528
f 528 527 529
f 528 529 530
f 530 529 531
