v -0.00349825775 -0.194750016 0.0666634355
v -0.00349825775 -0.194760029 0.0666634355
v -0.00348848259 -0.194760029 0.0666645084
v -0.00348848259 -0.194750016 0.0666645084
v -0.00348133003 -0.194760029 0.066667131
v -0.00348133003 -0.194750016 0.066667131
v -0.00347477352 -0.194760029 0.0666715417
v -0.00347477352 -0.194750016 0.0666715417
v -0.00346952831 -0.194760029 0.0666775022
v -0.00346952831 -0.194750016 0.0666775022
v -0.0034667865 -0.194760029 0.0666820322
v -0.0034667865 -0.194750016 0.0666820322
v -0.00346189892 -0.194760029 0.066695026
v -0.00346189892 -0.194750016 0.066695026
v -0.00345903789 -0.194760029 0.0667210136
v -0.00345903789 -0.194750016 0.0667210136
v -0.00345891868 -0.194760029 0.0667236362
v -0.00345891868 -0.194750016 0.0667236362
v -0.0035259143 -0.194750016 0.0666765485
v -0.0035259143 -0.194760029 0.0666765485
v -0.00351935779 -0.194760029 0.0666702304
v -0.00351935779 -0.194750016 0.0666702304
v -0.00351256286 -0.194760029 0.0666662965
v -0.00351256286 -0.194750016 0.0666662965
v -0.00350457584 -0.194760029 0.0666640316
v -0.00350457584 -0.194750016 0.0666640316
f 1 2 3
f 1 3 4
f 4 3 5
f 4 5 6
f 6 5 7
f 6 7 8
f 8 7 9
f 8 9 10
f 10 9 11
f 10 11 12
f 12 11 13
f 12 13 14
f 14 13 15
f 14 15 16
f 16 15 17
f 16 17 18
f 19 20 21
f 19 21 22
f 22 21 23
f 22 23 24
f 24 23 25
f 24 25 26
f 26 25 2
f 26 2 1
