v 0.0733913764 0.170367177 0.0389999662
v 0.0733500108 0.170000012 0.0389999662
v 0.0715358838 0.170000012 0.0389999662
v 0.0732679948 0.173000033 0.0389999662
v 0.0746328219 0.171608622 0.0389999662
v 0.0742841348 0.171486552 0.0389999662
v 0.0733913764 0.169632847 0.0389999662
v 0.0735134467 0.169284041 0.0389999662
v 0.0732679948 0.166999991 0.0389999662
v 0.0737100228 0.168971236 0.0389999662
v 0.0739712104 0.168709929 0.0389999662
v 0.0742841348 0.168513353 0.0389999662
v 0.0746328219 0.168391402 0.0389999662
v 0.0767320975 0.166999991 0.0389999662
v 0.0739712104 0.171289976 0.0389999662
v 0.0737100228 0.171028788 0.0389999662
v 0.0735134467 0.170715864 0.0389999662
v 0.0749999865 0.168350036 0.0389999662
v 0.0753671511 0.168391402 0.0389999662
v 0.0757159575 0.168513353 0.0389999662
v 0.0784640893 0.170000012 0.0389999662
v 0.0766085967 0.169632847 0.0389999662
v 0.0766499623 0.170000012 0.0389999662
v 0.0760287627 0.168709929 0.0389999662
v 0.0762900695 0.168971236 0.0389999662
v 0.0764866456 0.169284041 0.0389999662
v 0.0766085967 0.170367177 0.0389999662
v 0.0764866456 0.170715864 0.0389999662
v 0.0767320975 0.173000033 0.0389999662
v 0.0762900695 0.171028788 0.0389999662
v 0.0760287627 0.171289976 0.0389999662
v 0.0757159575 0.171486552 0.0389999662
v 0.0753671511 0.171608622 0.0389999662
v 0.0749999865 0.171649988 0.0389999662
v 0.0732679948 0.166999991 0.0739999328
v 0.0715358838 0.170000012 0.0739999328
v 0.0767320975 0.166999991 0.0739999328
v 0.0784640893 0.170000012 0.0739999328
v 0.0732679948 0.173000033 0.0739999328
v 0.0767320975 0.173000033 0.0739999328
v -0.0236299649 -0.237894778 0.0618395124
v -0.0236399785 -0.237894778 0.0618395124
v -0.0236399785 -0.237846677 0.0618496452
v -0.0236299649 -0.237846677 0.0618496452
v -0.0236399785 -0.23780257 0.0618712221
v -0.0236299649 -0.23780257 0.0618712221
v -0.0236399785 -0.237763171 0.0619044815
v -0.0236299649 -0.237763171 0.0619044815
v -0.0236299649 -0.237075334 0.0618693147
v -0.0236299649 -0.237076526 0.0618643079
v -0.0236299649 -0.237073247 0.0618181739
v -0.0236299649 -0.237007325 0.0619854246
v -0.0236299649 -0.23703373 0.0619854246
v -0.0236299649 -0.237073426 0.0618759904
v -0.0236299649 -0.237118249 0.0619854246
v -0.0236299649 -0.23714674 0.0619854246
v -0.0236299649 -0.23708034 0.0618762289
v -0.0236299649 -0.237089758 0.0618404661
v -0.0236299649 -0.237077181 0.0618643079
v -0.0236299649 -0.237141495 0.0617964779
v -0.0236299649 -0.237141495 0.0617738281
v -0.0236299649 -0.237136309 0.0617948089
v -0.0236299649 -0.237130706 0.0617719207
v -0.0236299649 -0.23712707 0.0617936168
v -0.0236299649 -0.237125103 0.0617718015
v -0.0236299649 -0.237120335 0.0617944513
v -0.0236299649 -0.237114792 0.0617729936
v -0.0236299649 -0.237114851 0.0617967163
v -0.0236299649 -0.237104719 0.0617768083
v -0.0236299649 -0.237110858 0.0617994581
v -0.0236299649 -0.237084811 0.0617957626
v -0.0236299649 -0.237100964 0.0618141208
v -0.0236299649 -0.23710609 0.0618047033
v -0.0236299649 -0.237094109 0.0617845569
v -0.0236299649 -0.237095838 0.0617830072
v -0.025229992 -0.23909009 0.0579098974
v -0.025229992 -0.238840108 0.0576599155
v -0.0245899573 -0.23909009 0.0579098974
v -0.0245899573 -0.238840108 0.0576599155
v -0.0260085479 -0.239540105 0.0606599365
v -0.0255799905 -0.240040069 0.0606599365
v -0.0260085479 -0.239540105 0.0611599002
v -0.0255799905 -0.240040069 0.0631999288
v -0.0261799709 -0.239340072 0.0611599002
v -0.0261799709 -0.239340072 0.0631999288
v 0.173000036 -0.0732679414 0.0739999328
v 0.171649991 -0.0749999928 0.0739999328
v 0.173000036 -0.0767320442 0.0739999328
v 0.171608625 -0.0753671574 0.0739999328
v 0.171486555 -0.0757159042 0.0739999328
v 0.17036718 -0.076608603 0.0739999328
v 0.170000015 -0.0766500282 0.0739999328
v 0.170000015 -0.0784640956 0.0739999328
v 0.166999994 -0.0767320442 0.0739999328
v 0.168709932 -0.076028769 0.0739999328
v 0.168513356 -0.0757159042 0.0739999328
v 0.169632851 -0.0733913827 0.0739999328
v 0.170000015 -0.073350017 0.0739999328
v 0.170000015 -0.0715358901 0.0739999328
v 0.171289979 -0.0739712167 0.0739999328
v 0.171486555 -0.0742840814 0.0739999328
v 0.171608625 -0.0746328282 0.0739999328
v 0.171289979 -0.076028769 0.0739999328
v 0.171028791 -0.0762900161 0.0739999328
v 0.170715867 -0.0764865923 0.0739999328
v 0.169632851 -0.076608603 0.0739999328
v 0.169284044 -0.0764865923 0.0739999328
v 0.168971239 -0.0762900161 0.0739999328
v 0.168391405 -0.0753671574 0.0739999328
v 0.168350039 -0.0749999928 0.0739999328
v 0.166999994 -0.0732679414 0.0739999328
v 0.168391405 -0.0746328282 0.0739999328
v 0.168513356 -0.0742840814 0.0739999328
v 0.168709932 -0.0739712167 0.0739999328
v 0.168971239 -0.0737099695 0.0739999328
v 0.169284044 -0.0735133934 0.0739999328
v 0.17036718 -0.0733913827 0.0739999328
v 0.170715867 -0.0735133934 0.0739999328
v 0.171028791 -0.0737099695 0.0739999328
v 0.166999994 -0.0732679414 0.0389999662
v 0.170000015 -0.0715358901 0.0389999662
v 0.166999994 -0.0767320442 0.0389999662
v 0.170000015 -0.0784640956 0.0389999662
v 0.173000036 -0.0767320442 0.0389999662
v 0.173000036 -0.0732679414 0.0389999662
v 0.168350039 -0.0749999928 0.0389999662
v 0.168391405 -0.0746328282 0.0389999662
v 0.168513356 -0.0742840814 0.0389999662
v 0.168709932 -0.0739712167 0.0389999662
v 0.168971239 -0.0737099695 0.0389999662
v 0.169284044 -0.0735133934 0.0389999662
v 0.169632851 -0.0733913827 0.0389999662
v 0.170000015 -0.073350017 0.0389999662
v 0.17036718 -0.0733913827 0.0389999662
v 0.170715867 -0.0735133934 0.0389999662
v 0.171028791 -0.0737099695 0.0389999662
v 0.171289979 -0.0739712167 0.0389999662
v 0.171486555 -0.0742840814 0.0389999662
v 0.171608625 -0.0746328282 0.0389999662
v 0.171649991 -0.0749999928 0.0389999662
v 0.171608625 -0.0753671574 0.0389999662
v 0.171486555 -0.0757159042 0.0389999662
v 0.171289979 -0.076028769 0.0389999662
v 0.171028791 -0.0762900161 0.0389999662
v 0.170715867 -0.0764865923 0.0389999662
v 0.17036718 -0.076608603 0.0389999662
v 0.170000015 -0.0766500282 0.0389999662
v 0.169632851 -0.076608603 0.0389999662
v 0.169284044 -0.0764865923 0.0389999662
v 0.168971239 -0.0762900161 0.0389999662
v 0.168709932 -0.076028769 0.0389999662
v 0.168513356 -0.0757159042 0.0389999662
v 0.168391405 -0.0753671574 0.0389999662
v 0.227999984 0.0767320943 0.0739999328
v 0.226650058 0.0749999833 0.0739999328
v 0.227999984 0.0732679916 0.0739999328
v 0.226608573 0.0746328187 0.0739999328
v 0.226486622 0.0742841316 0.0739999328
v 0.224999963 0.0715358806 0.0739999328
v 0.225367127 0.0733913732 0.0739999328
v 0.224999963 0.0733500076 0.0739999328
v 0.226290046 0.0739712072 0.0739999328
v 0.226028739 0.0737100196 0.0739999328
v 0.225715934 0.0735134435 0.0739999328
v 0.224632798 0.0733913732 0.0739999328
v 0.224284111 0.0735134435 0.0739999328
v 0.221999942 0.0732679916 0.0739999328
v 0.223971187 0.0737100196 0.0739999328
v 0.223709999 0.0739712072 0.0739999328
v 0.223513423 0.0742841316 0.0739999328
v 0.223391353 0.0746328187 0.0739999328
v 0.223349987 0.0749999833 0.0739999328
v 0.221999942 0.0767320943 0.0739999328
v 0.223391353 0.075367148 0.0739999328
v 0.223513423 0.0757159543 0.0739999328
v 0.224999963 0.0784640861 0.0739999328
v 0.224632798 0.0766085935 0.0739999328
v 0.224999963 0.0766499591 0.0739999328
v 0.223709999 0.0760287595 0.0739999328
v 0.223971187 0.0762900663 0.0739999328
v 0.224284111 0.0764866424 0.0739999328
v 0.225367127 0.0766085935 0.0739999328
v 0.225715934 0.0764866424 0.0739999328
v 0.226028739 0.0762900663 0.0739999328
v 0.226290046 0.0760287595 0.0739999328
v 0.226486622 0.0757159543 0.0739999328
v 0.226608573 0.075367148 0.0739999328
v 0.224999963 0.0784640861 0.0389999662
v 0.225367127 0.0766085935 0.0389999662
v 0.224999963 0.0766499591 0.0389999662
v 0.221999942 0.0767320943 0.0389999662
v 0.223349987 0.0749999833 0.0389999662
v 0.221999942 0.0732679916 0.0389999662
v 0.223391353 0.0746328187 0.0389999662
v 0.223513423 0.0742841316 0.0389999662
v 0.224999963 0.0715358806 0.0389999662
v 0.224632798 0.0733913732 0.0389999662
v 0.224999963 0.0733500076 0.0389999662
v 0.226486622 0.0757159543 0.0389999662
v 0.226290046 0.0760287595 0.0389999662
v 0.227999984 0.0767320943 0.0389999662
v 0.226028739 0.0762900663 0.0389999662
v 0.225715934 0.0764866424 0.0389999662
v 0.223709999 0.0739712072 0.0389999662
v 0.223971187 0.0737100196 0.0389999662
v 0.224284111 0.0735134435 0.0389999662
v 0.227999984 0.0732679916 0.0389999662
v 0.226650058 0.0749999833 0.0389999662
v 0.226608573 0.075367148 0.0389999662
v 0.224632798 0.0766085935 0.0389999662
v 0.224284111 0.0764866424 0.0389999662
v 0.223971187 0.0762900663 0.0389999662
v 0.223709999 0.0760287595 0.0389999662
v 0.223513423 0.0757159543 0.0389999662
v 0.223391353 0.075367148 0.0389999662
v 0.225367127 0.0733913732 0.0389999662
v 0.225715934 0.0735134435 0.0389999662
v 0.226028739 0.0737100196 0.0389999662
v 0.226290046 0.0739712072 0.0389999662
v 0.226486622 0.0742841316 0.0389999662
v 0.226608573 0.0746328187 0.0389999662
v -0.0643749849 0.255027587 0.0774606977
v -0.0643749849 0.249232109 0.0759077583
v -0.0644099132 0.254958923 0.0777168785
v -0.0644099132 0.249163444 0.0761640583
v -0.064512314 0.254895027 0.0779556547
v -0.064512314 0.249099429 0.0764028345
v -0.0646752731 0.254840071 0.0781608139
v -0.0646752731 0.249044473 0.0766078745
v -0.0648874656 0.254797871 0.0783180509
v -0.0648874656 0.249002392 0.0767652307
v -0.0651347057 0.254771407 0.0784169946
v -0.0651347057 0.248975809 0.0768640552
v -0.0653999463 0.254762347 0.0784507309
v -0.0653999463 0.248966749 0.0768977914
v -0.0656653062 0.254771407 0.0784169946
v -0.0656653062 0.248975809 0.0768640552
v -0.0659125463 0.254797871 0.0783180509
v -0.0659125463 0.249002392 0.0767652307
v -0.0661247388 0.254840071 0.0781608139
v -0.0661247388 0.249044473 0.0766078745
v -0.0662876979 0.254895027 0.0779556547
v -0.0662876979 0.249099429 0.0764028345
v -0.0663900987 0.254958923 0.0777168785
v -0.0663900987 0.249163444 0.0761640583
v -0.066425027 0.255027587 0.0774606977
v -0.066425027 0.249232109 0.0759077583
v -0.0663900987 0.255096252 0.0772043977
v -0.0663900987 0.249300773 0.0756514583
v -0.0662876979 0.255160267 0.0769656215
v -0.0662876979 0.249364669 0.0754126821
v -0.0661247388 0.255215223 0.0767605816
v -0.0661247388 0.249419625 0.0752076421
v -0.0659125463 0.255257423 0.0766032253
v -0.0659125463 0.249461825 0.0750502859
v -0.0656653062 0.255283887 0.0765042816
v -0.0656653062 0.249488289 0.0749514614
v -0.0653999463 0.255292947 0.0764705454
v -0.0653999463 0.249497349 0.0749177251
v -0.0651347057 0.255283887 0.0765042816
v -0.0651347057 0.249488289 0.0749514614
v -0.0648874656 0.255257423 0.0766032253
v -0.0648874656 0.249461825 0.0750502859
v -0.0646752731 0.255215223 0.0767605816
v -0.0646752731 0.249419625 0.0752076421
v -0.064512314 0.255160267 0.0769656215
v -0.064512314 0.249364669 0.0754126821
v -0.0644099132 0.255096252 0.0772043977
v -0.0644099132 0.249300773 0.0756514583
v -0.0669544355 0.249952371 0.073219708
v -0.0683434621 0.249592836 0.0745615278
v -0.0669544355 0.257679756 0.0752902542
v -0.0683434621 0.26021796 0.077408484
v -0.0668061391 0.257718141 0.0751469646
v -0.0670488492 0.259100969 0.0757688795
v -0.0671864167 0.259795005 0.0760973011
v -0.0673448459 0.260476525 0.0764438425
v 0.173000036 0.0767320943 0.0739999328
v 0.171649991 0.0749999833 0.0739999328
v 0.173000036 0.0732679916 0.0739999328
v 0.171608625 0.0746328187 0.0739999328
v 0.171486555 0.0742841316 0.0739999328
v 0.170000015 0.0715358806 0.0739999328
v 0.17036718 0.0733913732 0.0739999328
v 0.170000015 0.0733500076 0.0739999328
v 0.171289979 0.0739712072 0.0739999328
v 0.171028791 0.0737100196 0.0739999328
v 0.170715867 0.0735134435 0.0739999328
v 0.169632851 0.0733913732 0.0739999328
v 0.169284044 0.0735134435 0.0739999328
v 0.166999994 0.0732679916 0.0739999328
v 0.168971239 0.0737100196 0.0739999328
v 0.168709932 0.0739712072 0.0739999328
v 0.168513356 0.0742841316 0.0739999328
v 0.168391405 0.0746328187 0.0739999328
v 0.168350039 0.0749999833 0.0739999328
v 0.166999994 0.0767320943 0.0739999328
v 0.168391405 0.075367148 0.0739999328
v 0.168513356 0.0757159543 0.0739999328
v 0.170000015 0.0784640861 0.0739999328
v 0.169632851 0.0766085935 0.0739999328
v 0.170000015 0.0766499591 0.0739999328
v 0.168709932 0.0760287595 0.0739999328
v 0.168971239 0.0762900663 0.0739999328
v 0.169284044 0.0764866424 0.0739999328
v 0.17036718 0.0766085935 0.0739999328
v 0.170715867 0.0764866424 0.0739999328
v 0.171028791 0.0762900663 0.0739999328
v 0.171289979 0.0760287595 0.0739999328
v 0.171486555 0.0757159543 0.0739999328
v 0.171608625 0.075367148 0.0739999328
v 0.170000015 0.0784640861 0.0389999662
v 0.17036718 0.0766085935 0.0389999662
v 0.170000015 0.0766499591 0.0389999662
v 0.166999994 0.0767320943 0.0389999662
v 0.168350039 0.0749999833 0.0389999662
v 0.166999994 0.0732679916 0.0389999662
v 0.168391405 0.0746328187 0.0389999662
v 0.168513356 0.0742841316 0.0389999662
v 0.170000015 0.0715358806 0.0389999662
v 0.169632851 0.0733913732 0.0389999662
v 0.170000015 0.0733500076 0.0389999662
v 0.171486555 0.0757159543 0.0389999662
v 0.171289979 0.0760287595 0.0389999662
v 0.173000036 0.0767320943 0.0389999662
v 0.171028791 0.0762900663 0.0389999662
v 0.170715867 0.0764866424 0.0389999662
v 0.168709932 0.0739712072 0.0389999662
v 0.168971239 0.0737100196 0.0389999662
v 0.169284044 0.0735134435 0.0389999662
v 0.173000036 0.0732679916 0.0389999662
v 0.171649991 0.0749999833 0.0389999662
v 0.171608625 0.075367148 0.0389999662
v 0.169632851 0.0766085935 0.0389999662
v 0.169284044 0.0764866424 0.0389999662
v 0.168971239 0.0762900663 0.0389999662
v 0.168709932 0.0760287595 0.0389999662
v 0.168513356 0.0757159543 0.0389999662
v 0.168391405 0.075367148 0.0389999662
v 0.17036718 0.0733913732 0.0389999662
v 0.170715867 0.0735134435 0.0389999662
v 0.171028791 0.0737100196 0.0389999662
v 0.171289979 0.0739712072 0.0389999662
v 0.171486555 0.0742841316 0.0389999662
v 0.171608625 0.0746328187 0.0389999662
v 0.0766085967 -0.224632864 0.0739999328
v 0.0766499623 -0.225000029 0.0739999328
v 0.0784640893 -0.225000029 0.0739999328
v 0.0760287627 -0.226289992 0.0739999328
v 0.0757159575 -0.226486628 0.0739999328
v 0.0767320975 -0.22799999 0.0739999328
v 0.0753671511 -0.226608639 0.0739999328
v 0.0749999865 -0.226650004 0.0739999328
v 0.0732679948 -0.22799999 0.0739999328
v 0.0746328219 -0.226608639 0.0739999328
v 0.0742841348 -0.226486628 0.0739999328
v 0.0715358838 -0.225000029 0.0739999328
v 0.0733913764 -0.225367134 0.0739999328
v 0.0733500108 -0.225000029 0.0739999328
v 0.0766085967 -0.225367134 0.0739999328
v 0.0764866456 -0.22571588 0.0739999328
v 0.0762900695 -0.226028745 0.0739999328
v 0.0739712104 -0.226289992 0.0739999328
v 0.0737100228 -0.226028745 0.0739999328
v 0.0735134467 -0.22571588 0.0739999328
v 0.0739712104 -0.223710005 0.0739999328
v 0.0742841348 -0.223513429 0.0739999328
v 0.0732679948 -0.222000008 0.0739999328
v 0.0746328219 -0.223391359 0.0739999328
v 0.0749999865 -0.223349993 0.0739999328
v 0.0767320975 -0.222000008 0.0739999328
v 0.0753671511 -0.223391359 0.0739999328
v 0.0757159575 -0.223513429 0.0739999328
v 0.0733913764 -0.224632864 0.0739999328
v 0.0735134467 -0.224284117 0.0739999328
v 0.0737100228 -0.223971252 0.0739999328
v 0.0760287627 -0.223710005 0.0739999328
v 0.0762900695 -0.223971252 0.0739999328
v 0.0764866456 -0.224284117 0.0739999328
v 0.0733913764 -0.224632864 0.0389999662
v 0.0733500108 -0.225000029 0.0389999662
v 0.0715358838 -0.225000029 0.0389999662
v 0.0739712104 -0.226289992 0.0389999662
v 0.0742841348 -0.226486628 0.0389999662
v 0.0732679948 -0.22799999 0.0389999662
v 0.0746328219 -0.226608639 0.0389999662
v 0.0749999865 -0.226650004 0.0389999662
v 0.0767320975 -0.22799999 0.0389999662
v 0.0753671511 -0.226608639 0.0389999662
v 0.0757159575 -0.226486628 0.0389999662
v 0.0784640893 -0.225000029 0.0389999662
v 0.0766085967 -0.225367134 0.0389999662
v 0.0766499623 -0.225000029 0.0389999662
v 0.0733913764 -0.225367134 0.0389999662
v 0.0735134467 -0.22571588 0.0389999662
v 0.0737100228 -0.226028745 0.0389999662
v 0.0760287627 -0.226289992 0.0389999662
v 0.0762900695 -0.226028745 0.0389999662
v 0.0764866456 -0.22571588 0.0389999662
v 0.0760287627 -0.223710005 0.0389999662
v 0.0757159575 -0.223513429 0.0389999662
v 0.0767320975 -0.222000008 0.0389999662
v 0.0753671511 -0.223391359 0.0389999662
v 0.0749999865 -0.223349993 0.0389999662
v 0.0732679948 -0.222000008 0.0389999662
v 0.0746328219 -0.223391359 0.0389999662
v 0.0742841348 -0.223513429 0.0389999662
v 0.0766085967 -0.224632864 0.0389999662
v 0.0764866456 -0.224284117 0.0389999662
v 0.0762900695 -0.223971252 0.0389999662
v 0.0739712104 -0.223710005 0.0389999662
v 0.0737100228 -0.223971252 0.0389999662
v 0.0735134467 -0.224284117 0.0389999662
v -0.22536713 -0.0733913827 0.0739999328
v -0.224999966 -0.073350017 0.0739999328
v -0.224999966 -0.0715358901 0.0739999328
v -0.221999945 -0.0732679414 0.0739999328
v -0.22334999 -0.0749999928 0.0739999328
v -0.221999945 -0.0767320442 0.0739999328
v -0.223391356 -0.0753671574 0.0739999328
v -0.223513426 -0.0757159042 0.0739999328
v -0.224632801 -0.076608603 0.0739999328
v -0.224999966 -0.0766500282 0.0739999328
v -0.224999966 -0.0784640956 0.0739999328
v -0.223710002 -0.0739712167 0.0739999328
v -0.223513426 -0.0742840814 0.0739999328
v -0.223391356 -0.0746328282 0.0739999328
v -0.227999987 -0.0767320442 0.0739999328
v -0.226290049 -0.076028769 0.0739999328
v -0.226486625 -0.0757159042 0.0739999328
v -0.226608576 -0.0753671574 0.0739999328
v -0.226649942 -0.0749999928 0.0739999328
v -0.227999987 -0.0732679414 0.0739999328
v -0.226608576 -0.0746328282 0.0739999328
v -0.226486625 -0.0742840814 0.0739999328
v -0.226290049 -0.0739712167 0.0739999328
v -0.226028742 -0.0737099695 0.0739999328
v -0.225715937 -0.0735133934 0.0739999328
v -0.224632801 -0.0733913827 0.0739999328
v -0.224284114 -0.0735133934 0.0739999328
v -0.22397119 -0.0737099695 0.0739999328
v -0.223710002 -0.076028769 0.0739999328
v -0.22397119 -0.0762900161 0.0739999328
v -0.224284114 -0.0764865923 0.0739999328
v -0.22536713 -0.076608603 0.0739999328
v -0.225715937 -0.0764865923 0.0739999328
v -0.226028742 -0.0762900161 0.0739999328
v -0.221999945 -0.0767320442 0.0389999662
v -0.224999966 -0.0784640956 0.0389999662
v -0.221999945 -0.0732679414 0.0389999662
v -0.224999966 -0.0715358901 0.0389999662
v -0.227999987 -0.0732679414 0.0389999662
v -0.227999987 -0.0767320442 0.0389999662
v -0.22334999 -0.0749999928 0.0389999662
v -0.223391356 -0.0753671574 0.0389999662
v -0.223513426 -0.0757159042 0.0389999662
v -0.223710002 -0.076028769 0.0389999662
v -0.22397119 -0.0762900161 0.0389999662
v -0.224284114 -0.0764865923 0.0389999662
v -0.224632801 -0.076608603 0.0389999662
v -0.224999966 -0.0766500282 0.0389999662
v -0.22536713 -0.076608603 0.0389999662
v -0.225715937 -0.0764865923 0.0389999662
v -0.226028742 -0.0762900161 0.0389999662
v -0.226290049 -0.076028769 0.0389999662
v -0.226486625 -0.0757159042 0.0389999662
v -0.226608576 -0.0753671574 0.0389999662
v -0.226649942 -0.0749999928 0.0389999662
v -0.226608576 -0.0746328282 0.0389999662
v -0.226486625 -0.0742840814 0.0389999662
v -0.226290049 -0.0739712167 0.0389999662
v -0.226028742 -0.0737099695 0.0389999662
v -0.225715937 -0.0735133934 0.0389999662
v -0.22536713 -0.0733913827 0.0389999662
v -0.224999966 -0.073350017 0.0389999662
v -0.224632801 -0.0733913827 0.0389999662
v -0.224284114 -0.0735133934 0.0389999662
v -0.22397119 -0.0737099695 0.0389999662
v -0.223710002 -0.0739712167 0.0389999662
v -0.223513426 -0.0742840814 0.0389999662
v -0.223391356 -0.0746328282 0.0389999662
v -0.0767321006 0.222000058 0.0739999328
v -0.0784640924 0.224999959 0.0739999328
v -0.0767321006 0.222000058 0.0389999662
v -0.0784640924 0.224999959 0.0389999662
v -0.0732679979 0.222000058 0.0739999328
v -0.0732679979 0.222000058 0.0389999662
v -0.0715358869 0.224999959 0.0739999328
v -0.0715358869 0.224999959 0.0389999662
v -0.0767321006 0.22799998 0.0739999328
v -0.0732679979 0.22799998 0.0739999328
v -0.0767321006 0.22799998 0.0389999662
v -0.0732679979 0.22799998 0.0389999662
v 0.0079786166 -0.206804996 0.0712732587
v 0.00795048321 -0.206804996 0.0712732587
v 0.0079786166 -0.206795042 0.0712732587
v 0.00795048321 -0.206795042 0.0712732587
v 0.0767320975 -0.167 0.0739999328
v 0.0784640893 -0.170000021 0.0739999328
v 0.0767320975 -0.167 0.0389999662
v 0.0784640893 -0.170000021 0.0389999662
v 0.0732679948 -0.167 0.0739999328
v 0.0732679948 -0.167 0.0389999662
v 0.0715358838 -0.170000021 0.0739999328
v 0.0715358838 -0.170000021 0.0389999662
v 0.0767320975 -0.172999983 0.0739999328
v 0.0732679948 -0.172999983 0.0739999328
v 0.0767320975 -0.172999983 0.0389999662
v 0.0732679948 -0.172999983 0.0389999662
v -0.181999983 0.0584049773 0.0431615625
v -0.181999983 0.0559049797 0.0388315235
v -0.181999983 0.0571059537 0.0439116274
v -0.181999983 0.0546059561 0.0395814691
v -0.137999953 0.0584049773 0.0431615625
v -0.137999953 0.0571059537 0.0439116274
v -0.137999953 0.0559049797 0.0388315235
v -0.137999953 0.0546059561 0.0395814691
v -0.170367183 -0.0733913827 0.0739999328
v -0.170000018 -0.073350017 0.0739999328
v -0.170000018 -0.0715358901 0.0739999328
v -0.166999997 -0.0732679414 0.0739999328
v -0.168350042 -0.0749999928 0.0739999328
v -0.166999997 -0.0767320442 0.0739999328
v -0.168391408 -0.0753671574 0.0739999328
v -0.168513359 -0.0757159042 0.0739999328
v -0.169632854 -0.076608603 0.0739999328
v -0.170000018 -0.0766500282 0.0739999328
v -0.170000018 -0.0784640956 0.0739999328
v -0.168709935 -0.0739712167 0.0739999328
v -0.168513359 -0.0742840814 0.0739999328
v -0.168391408 -0.0746328282 0.0739999328
v -0.173000039 -0.0767320442 0.0739999328
v -0.171289982 -0.076028769 0.0739999328
v -0.171486558 -0.0757159042 0.0739999328
v -0.171608628 -0.0753671574 0.0739999328
v -0.171649994 -0.0749999928 0.0739999328
v -0.173000039 -0.0732679414 0.0739999328
v -0.171608628 -0.0746328282 0.0739999328
v -0.171486558 -0.0742840814 0.0739999328
v -0.171289982 -0.0739712167 0.0739999328
v -0.171028794 -0.0737099695 0.0739999328
v -0.17071587 -0.0735133934 0.0739999328
v -0.169632854 -0.0733913827 0.0739999328
v -0.169284047 -0.0735133934 0.0739999328
v -0.168971242 -0.0737099695 0.0739999328
v -0.168709935 -0.076028769 0.0739999328
v -0.168971242 -0.0762900161 0.0739999328
v -0.169284047 -0.0764865923 0.0739999328
v -0.170367183 -0.076608603 0.0739999328
v -0.17071587 -0.0764865923 0.0739999328
v -0.171028794 -0.0762900161 0.0739999328
v -0.173000039 -0.0732679414 0.0389999662
v -0.170000018 -0.0715358901 0.0389999662
v -0.168350042 -0.0749999928 0.0389999662
v -0.168391408 -0.0753671574 0.0389999662
v -0.168513359 -0.0757159042 0.0389999662
v -0.168709935 -0.076028769 0.0389999662
v -0.168971242 -0.0762900161 0.0389999662
v -0.169284047 -0.0764865923 0.0389999662
v -0.169632854 -0.076608603 0.0389999662
v -0.170000018 -0.0766500282 0.0389999662
v -0.170367183 -0.076608603 0.0389999662
v -0.17071587 -0.0764865923 0.0389999662
v -0.171028794 -0.0762900161 0.0389999662
v -0.171289982 -0.076028769 0.0389999662
v -0.171486558 -0.0757159042 0.0389999662
v -0.171608628 -0.0753671574 0.0389999662
v -0.171649994 -0.0749999928 0.0389999662
v -0.171608628 -0.0746328282 0.0389999662
v -0.171486558 -0.0742840814 0.0389999662
v -0.171289982 -0.0739712167 0.0389999662
v -0.171028794 -0.0737099695 0.0389999662
v -0.17071587 -0.0735133934 0.0389999662
v -0.170367183 -0.0733913827 0.0389999662
v -0.170000018 -0.073350017 0.0389999662
v -0.169632854 -0.0733913827 0.0389999662
v -0.169284047 -0.0735133934 0.0389999662
v -0.168971242 -0.0737099695 0.0389999662
v -0.168709935 -0.0739712167 0.0389999662
v -0.168513359 -0.0742840814 0.0389999662
v -0.168391408 -0.0746328282 0.0389999662
v -0.109595002 0.02200001 0.0431615625
v -0.11209506 0.02200001 0.0388315235
v -0.110894026 0.02200001 0.0439116274
v -0.113394083 0.02200001 0.0395814691
v -0.109595002 -0.0220000195 0.0431615625
v -0.11209506 -0.0220000195 0.0388315235
v -0.113394083 -0.0220000195 0.0395814691
v -0.110894026 -0.0220000195 0.0439116274
v -0.20910591 -0.0220000195 0.0439116274
v -0.20910591 0.02200001 0.0439116274
v -0.210404934 -0.0220000195 0.0431615625
v -0.210404934 0.02200001 0.0431615625
v 0.0159323796 -0.235714321 0.0685726915
v 0.0159224852 -0.235716288 0.0685726915
v 0.0159282073 -0.235694056 0.0685664926
v 0.0159193858 -0.235700374 0.0685680423
v 0.0159280881 -0.235693221 0.068566135
v 0.0159183129 -0.235695367 0.0685657774
v 0.0159255847 -0.235681419 0.0685602937
v 0.0159158095 -0.235683327 0.0685604129
v 0.0159252271 -0.235679512 0.0685593401
v 0.0159245118 -0.235676353 0.0685565982
v 0.0159147366 -0.23567838 0.0685565982
v 0.0159242734 -0.235675101 0.0685555254
v 0.0159144982 -0.235677068 0.0685555254
v 0.0159239158 -0.235673075 0.0685537372
v 0.0159142598 -0.235675995 0.0685546909
v 0.0159230813 -0.23566926 0.0685487304
v 0.0159133061 -0.235671346 0.0685487304
v 0.015922366 -0.235666041 0.0685444389
v 0.0159127101 -0.235668664 0.0685452734
v 0.0159221276 -0.23566473 0.0685413395
v 0.0159123525 -0.235666876 0.0685413395
v 0.0159214124 -0.23566169 0.0685341869
v 0.0159117564 -0.235663836 0.0685344253
v 0.0159214124 -0.235661571 0.0685335909
v 0.0159116372 -0.235663717 0.0685335909
v 0.0159210547 -0.235659962 0.0685241733
v 0.0159113988 -0.235662167 0.0685241733
v 0.0159209355 -0.235659485 0.0685215507
v 0.0159111604 -0.235661511 0.0685201202
v 0.0159210547 -0.235660021 0.0685111795
v 0.0159112796 -0.235662167 0.0685111795
v 0.0159211739 -0.235660379 0.0685047422
v 0.015911518 -0.235662703 0.0685035501
v 0.0159214124 -0.235661452 0.0685011659
v 0.0159116372 -0.235663478 0.0685010467
v 0.0159218892 -0.235663896 0.0684929405
v 0.0159122332 -0.23566628 0.0684924636
v 0.0159220084 -0.235664194 0.0684924636
v 0.0159122332 -0.235666459 0.0684919868
v 0.0159229621 -0.235668485 0.0684850727
v 0.0159131869 -0.235670571 0.0684850727
v 0.0159232005 -0.235669796 0.0684828077
v 0.0159135445 -0.235672479 0.0684819732
v 0.015924035 -0.23567373 0.0684787546
v 0.0159142598 -0.235675757 0.0684787546
v 0.015924631 -0.235676591 0.0684757743
v 0.0159148558 -0.235678678 0.0684757743
v 0.0159247502 -0.235677426 0.0684748207
v 0.0159150943 -0.235679929 0.0684745823
v 0.0159257039 -0.235682015 0.0684720789
v 0.0159159287 -0.235684042 0.0684720789
v 0.0159267768 -0.235686665 0.068469337
v 0.0159171208 -0.235689585 0.0684688602
v 0.0159276112 -0.235690956 0.0684679065
v 0.0159178361 -0.235692923 0.0684677873
v 0.0159324988 -0.235715156 0.0684600387
v 0.0159227237 -0.235717123 0.0684600387
v 0.0159581288 -0.237077599 0.0683932815
v 0.0159680232 -0.237079029 0.0683932815
v 0.0159681424 -0.237078791 0.0684258257
v 0.015958248 -0.23707736 0.0684258257
v 0.0159681424 -0.237078552 0.0684583698
v 0.015958248 -0.237077122 0.0684583698
v 0.0159471616 -0.237148945 0.0684822116
v 0.0159569367 -0.237150555 0.0684822116
v 0.0159528836 -0.237113004 0.0684819732
v 0.015962778 -0.237114494 0.0684819732
v 0.015958248 -0.237077002 0.0684817348
v 0.0159681424 -0.237078433 0.0684817348
v 0.015988408 -0.236806219 0.0684764896
v 0.0159983023 -0.236806993 0.0684764896
v 0.0159874543 -0.236817365 0.0684831653
v 0.0159974679 -0.236818199 0.0684831653
v 0.0159863814 -0.236830776 0.068489245
v 0.015996395 -0.23683161 0.068489245
v 0.0159334525 -0.237227445 0.0680482898
v 0.0159432277 -0.237229292 0.0680482898
v 0.0159262999 -0.237264817 0.068150333
v 0.0159360751 -0.237266724 0.068150333
v 0.015918909 -0.237302129 0.0682522569
v 0.0159286841 -0.237304156 0.0682522569
v 0.01592177 -0.237287884 0.0682521377
v 0.0159315451 -0.237289851 0.0682521377
v 0.0159245118 -0.237273698 0.0682520185
v 0.0159344062 -0.237275605 0.0682520185
v 0.0127820357 -0.235741084 0.0638988529
v 0.0127820357 -0.235741084 0.0638999258
v 0.0127803668 -0.235715275 0.0638999258
v 0.0127803668 -0.235715275 0.0638988529
v 0.0127690419 -0.235661392 0.0638999258
v 0.0127690419 -0.235661392 0.0638988529
v 0.0127531871 -0.23562855 0.0638999258
v 0.0127531871 -0.23562855 0.0638988529
v 0.0127360209 -0.23560739 0.0638999258
v 0.0127360209 -0.23560739 0.0638988529
v 0.0127153977 -0.235591834 0.0638999258
v 0.0127153977 -0.235591834 0.0638988529
v 0.0126885756 -0.235580151 0.0638999258
v 0.0126885756 -0.235580151 0.0638988529
v 0.0126542434 -0.235573833 0.0638999258
v 0.0126542434 -0.235573833 0.0638988529
v 0.012649475 -0.23557431 0.0638999258
v 0.012649475 -0.23557431 0.0638988529
v 0.0126073941 -0.235582833 0.0638999258
v 0.0126073941 -0.235582833 0.0638988529
v 0.0125804528 -0.235595052 0.0638999258
v 0.0125804528 -0.235595052 0.0638988529
v 0.0125574454 -0.235612576 0.0638999258
v 0.0125574454 -0.235612576 0.0638988529
v 0.0125468358 -0.235624318 0.0638999258
v 0.0125468358 -0.235624318 0.0638988529
v 0.0125308617 -0.235650306 0.0638999258
v 0.0125308617 -0.235650306 0.0638988529
v 0.012518464 -0.235685174 0.0638999258
v 0.012518464 -0.235685174 0.0638988529
v 0.0125115498 -0.235731249 0.0638999258
v 0.0125115498 -0.235731249 0.0638988529
v 0.0126591309 -0.235465651 0.0638988529
v 0.0126591309 -0.235465651 0.0638999258
v 0.0126950129 -0.235470717 0.0638999258
v 0.0126950129 -0.235470717 0.0638988529
v 0.012754856 -0.235490088 0.0638999258
v 0.012754856 -0.235490088 0.0638988529
v 0.0127975329 -0.235516911 0.0638999258
v 0.0127975329 -0.235516911 0.0638988529
v 0.0128299579 -0.235550587 0.0638999258
v 0.0128299579 -0.235550587 0.0638988529
v 0.0128557071 -0.235594218 0.0638999258
v 0.0128557071 -0.235594218 0.0638988529
v 0.0128754958 -0.235655074 0.0638999258
v 0.0128754958 -0.235655074 0.0638988529
v 0.0128853902 -0.235736136 0.0638999258
v 0.0128853902 -0.235736136 0.0638988529
v 0.0124673232 -0.237112646 0.0638988529
v 0.0124673232 -0.237112646 0.0638999258
v 0.0124974831 -0.237069492 0.0638999258
v 0.0124974831 -0.237069492 0.0638988529
v 0.0125290736 -0.237041419 0.0638999258
v 0.0125290736 -0.237041419 0.0638988529
v 0.0125532731 -0.237026935 0.0638999258
v 0.0125532731 -0.237026935 0.0638988529
v 0.0125997647 -0.237010603 0.0638999258
v 0.0125997647 -0.237010603 0.0638988529
v 0.0126591309 -0.237004464 0.0638999258
v 0.0126591309 -0.237004464 0.0638988529
v 0.012000142 -0.240300064 0.0638988529
v 0.012000142 -0.240300064 0.0638999258
v 0.0116388186 -0.240282898 0.0638999258
v 0.0109667167 -0.240155165 0.0638999258
v 0.010966359 -0.240156774 0.0638988529
v 0.0114782437 -0.240264063 0.0638988529
v 0.0112809523 -0.2402314 0.0638999258
v 0.0114788398 -0.240259891 0.0638999258
v 0.0109295234 -0.240146165 0.0638999258
v 0.0105877503 -0.24002785 0.0638999258
v 0.0104740247 -0.239980166 0.0638988529
v 0.0100120887 -0.239735191 0.0638999258
v 0.0100106582 -0.239737694 0.0638988529
v 0.0102588519 -0.239877646 0.0638999258
v 0.0104756936 -0.239976649 0.0638999258
v 0.00994568909 -0.239696865 0.0638999258
v 0.00965112294 -0.239487057 0.0638999258
v 0.00958484257 -0.23943383 0.0638988529
v 0.00920766438 -0.239071791 0.0638999258
v 0.00920492256 -0.239074414 0.0638988529
v 0.00937777603 -0.239250247 0.0638999258
v 0.00958686913 -0.239431505 0.0638999258
v 0.00887793148 -0.238666182 0.0638999258
v 0.00887793148 -0.238666182 0.0638988529
v 0.00890475357 -0.238704269 0.0638999258
v 0.00912827099 -0.238988523 0.0638999258
v 0.228311716 -0.0739837932 0.0739999328
v 0.226430117 -0.0741770911 0.0739999328
v 0.226577459 -0.0745159435 0.0739999328
v 0.226645528 -0.0748791146 0.0739999328
v 0.226631223 -0.0752483058 0.0739999328
v 0.227535902 -0.0773599195 0.0739999328
v 0.222464143 -0.0726400661 0.0739999328
v 0.223638116 -0.0740684914 0.0739999328
v 0.223879515 -0.0737888264 0.0739999328
v 0.226535021 -0.0756050992 0.0739999328
v 0.226361929 -0.0759314942 0.0739999328
v 0.22612053 -0.0762111592 0.0739999328
v 0.221688329 -0.0760161924 0.0739999328
v 0.223569809 -0.0758228945 0.0739999328
v 0.223422585 -0.0754840421 0.0739999328
v 0.223354398 -0.075120871 0.0739999328
v 0.223368822 -0.0747516799 0.0739999328
v 0.223464905 -0.0743949461 0.0739999328
v 0.224177061 -0.073569839 0.0739999328
v 0.224515973 -0.0734226155 0.0739999328
v 0.225775777 -0.0716238665 0.0739999328
v 0.224879084 -0.0733544278 0.0739999328
v 0.225248276 -0.0733687925 0.0739999328
v 0.225822864 -0.0764301467 0.0739999328
v 0.225484072 -0.0765774297 0.0739999328
v 0.224224149 -0.0783761191 0.0739999328
v 0.225120841 -0.0766455579 0.0739999328
v 0.22475165 -0.0766311931 0.0739999328
v 0.225605069 -0.0734649348 0.0739999328
v 0.225931464 -0.0736380863 0.0739999328
v 0.226211129 -0.0738794851 0.0739999328
v 0.224394976 -0.0765350508 0.0739999328
v 0.224068461 -0.0763618993 0.0739999328
v 0.223788796 -0.0761205005 0.0739999328
v 0.221688329 -0.0760161924 0.0389999662
v 0.223354398 -0.075120871 0.0389999662
v 0.223422585 -0.0754840421 0.0389999662
v 0.227535902 -0.0773599195 0.0389999662
v 0.225822864 -0.0764301467 0.0389999662
v 0.22612053 -0.0762111592 0.0389999662
v 0.222464143 -0.0726400661 0.0389999662
v 0.224177061 -0.073569839 0.0389999662
v 0.223879515 -0.0737888264 0.0389999662
v 0.223638116 -0.0740684914 0.0389999662
v 0.223464905 -0.0743949461 0.0389999662
v 0.223368822 -0.0747516799 0.0389999662
v 0.226361929 -0.0759314942 0.0389999662
v 0.226535021 -0.0756050992 0.0389999662
v 0.228311716 -0.0739837932 0.0389999662
v 0.226631223 -0.0752483058 0.0389999662
v 0.226645528 -0.0748791146 0.0389999662
v 0.226577459 -0.0745159435 0.0389999662
v 0.224394976 -0.0765350508 0.0389999662
v 0.22475165 -0.0766311931 0.0389999662
v 0.224224149 -0.0783761191 0.0389999662
v 0.225120841 -0.0766455579 0.0389999662
v 0.225484072 -0.0765774297 0.0389999662
v 0.223569809 -0.0758228945 0.0389999662
v 0.223788796 -0.0761205005 0.0389999662
v 0.224068461 -0.0763618993 0.0389999662
v 0.225605069 -0.0734649348 0.0389999662
v 0.225248276 -0.0733687925 0.0389999662
v 0.225775777 -0.0716238665 0.0389999662
v 0.224879084 -0.0733544278 0.0389999662
v 0.224515973 -0.0734226155 0.0389999662
v 0.226430117 -0.0741770911 0.0389999662
v 0.226211129 -0.0738794851 0.0389999662
v 0.225931464 -0.0736380863 0.0389999662
v -0.0766085998 0.170367177 0.0389999662
v -0.0766499654 0.170000012 0.0389999662
v -0.0784640924 0.170000012 0.0389999662
v -0.0767321006 0.173000033 0.0389999662
v -0.0753671542 0.171608622 0.0389999662
v -0.0757159606 0.171486552 0.0389999662
v -0.0766085998 0.169632847 0.0389999662
v -0.0764866487 0.169284041 0.0389999662
v -0.0767321006 0.166999991 0.0389999662
v -0.0762900726 0.168971236 0.0389999662
v -0.0760287658 0.168709929 0.0389999662
v -0.0757159606 0.168513353 0.0389999662
v -0.0753671542 0.168391402 0.0389999662
v -0.0732679979 0.166999991 0.0389999662
v -0.0760287658 0.171289976 0.0389999662
v -0.0762900726 0.171028788 0.0389999662
v -0.0764866487 0.170715864 0.0389999662
v -0.0749999896 0.168350036 0.0389999662
v -0.074632825 0.168391402 0.0389999662
v -0.0742841378 0.168513353 0.0389999662
v -0.0715358869 0.170000012 0.0389999662
v -0.0733913795 0.169632847 0.0389999662
v -0.0733500138 0.170000012 0.0389999662
v -0.0739712135 0.168709929 0.0389999662
v -0.0737100259 0.168971236 0.0389999662
v -0.0735134498 0.169284041 0.0389999662
v -0.0733913795 0.170367177 0.0389999662
v -0.0735134498 0.170715864 0.0389999662
v -0.0732679979 0.173000033 0.0389999662
v -0.0737100259 0.171028788 0.0389999662
v -0.0739712135 0.171289976 0.0389999662
v -0.0742841378 0.171486552 0.0389999662
v -0.074632825 0.171608622 0.0389999662
v -0.0749999896 0.171649988 0.0389999662
v -0.0767321006 0.166999991 0.0739999328
v -0.0784640924 0.170000012 0.0739999328
v -0.0732679979 0.166999991 0.0739999328
v -0.0715358869 0.170000012 0.0739999328
v -0.0767321006 0.173000033 0.0739999328
v -0.0732679979 0.173000033 0.0739999328
v -0.0758228913 -0.223569875 0.0739999328
v -0.0754839793 -0.223422592 0.0739999328
v -0.0760162488 -0.221688275 0.0739999328
v -0.0741770879 -0.226430182 0.0739999328
v -0.0745159999 -0.226577406 0.0739999328
v -0.0739838496 -0.228311722 0.0739999328
v -0.0716238633 -0.225775783 0.0739999328
v -0.0733544246 -0.224879091 0.0739999328
v -0.0733688489 -0.225248342 0.0739999328
v -0.0740684882 -0.223638062 0.0739999328
v -0.0737888232 -0.223879521 0.0739999328
v -0.0726401225 -0.222464089 0.0739999328
v -0.0735698358 -0.224177127 0.0739999328
v -0.0734226123 -0.224515979 0.0739999328
v -0.0734649316 -0.225605075 0.0739999328
v -0.0736380235 -0.22593147 0.0739999328
v -0.0738795415 -0.226211195 0.0739999328
v -0.0766455547 -0.225120907 0.0739999328
v -0.0766312495 -0.224751656 0.0739999328
v -0.0783761159 -0.224224215 0.0739999328
v -0.0765350476 -0.224394922 0.0739999328
v -0.0763619558 -0.224068527 0.0739999328
v -0.0761205569 -0.223788803 0.0739999328
v -0.0751208678 -0.223354464 0.0739999328
v -0.0747516767 -0.223368769 0.0739999328
v -0.0743948833 -0.223464971 0.0739999328
v -0.0748791114 -0.226645594 0.0739999328
v -0.0752483026 -0.226631229 0.0739999328
v -0.0773599759 -0.227535908 0.0739999328
v -0.075605096 -0.226535027 0.0739999328
v -0.075931491 -0.226361935 0.0739999328
v -0.076211156 -0.226120477 0.0739999328
v -0.0764301435 -0.225822871 0.0739999328
v -0.0765773669 -0.225484018 0.0739999328
v -0.0716238633 -0.225775783 0.0389999662
v -0.0739838496 -0.228311722 0.0389999662
v -0.0726401225 -0.222464089 0.0389999662
v -0.0760162488 -0.221688275 0.0389999662
v -0.0783761159 -0.224224215 0.0389999662
v -0.0773599759 -0.227535908 0.0389999662
v -0.0734226123 -0.224515979 0.0389999662
v -0.0733544246 -0.224879091 0.0389999662
v -0.0733688489 -0.225248342 0.0389999662
v -0.0734649316 -0.225605075 0.0389999662
v -0.0736380235 -0.22593147 0.0389999662
v -0.0738795415 -0.226211195 0.0389999662
v -0.0741770879 -0.226430182 0.0389999662
v -0.0745159999 -0.226577406 0.0389999662
v -0.0748791114 -0.226645594 0.0389999662
v -0.0752483026 -0.226631229 0.0389999662
v -0.075605096 -0.226535027 0.0389999662
v -0.075931491 -0.226361935 0.0389999662
v -0.076211156 -0.226120477 0.0389999662
v -0.0764301435 -0.225822871 0.0389999662
v -0.0765773669 -0.225484018 0.0389999662
v -0.0766455547 -0.225120907 0.0389999662
v -0.0766312495 -0.224751656 0.0389999662
v -0.0765350476 -0.224394922 0.0389999662
v -0.0763619558 -0.224068527 0.0389999662
v -0.0761205569 -0.223788803 0.0389999662
v -0.0758228913 -0.223569875 0.0389999662
v -0.0754839793 -0.223422592 0.0389999662
v -0.0751208678 -0.223354464 0.0389999662
v -0.0747516767 -0.223368769 0.0389999662
v -0.0743948833 -0.223464971 0.0389999662
v -0.0740684882 -0.223638062 0.0389999662
v -0.0737888232 -0.223879521 0.0389999662
v -0.0735698358 -0.224177127 0.0389999662
v -0.228311719 0.0739838434 0.0389999662
v -0.226645531 0.0748791051 0.0389999662
v -0.226577462 0.0745159936 0.0389999662
v -0.225605072 0.0734649253 0.0389999662
v -0.225248279 0.0733688426 0.0389999662
v -0.22577578 0.071623857 0.0389999662
v -0.226120533 0.0762111497 0.0389999662
v -0.226361932 0.0759314847 0.0389999662
v -0.227535905 0.0773599696 0.0389999662
v -0.226535024 0.0756050897 0.0389999662
v -0.226631226 0.0752482963 0.0389999662
v -0.22643012 0.0741770816 0.0389999662
v -0.226211132 0.0738795352 0.0389999662
v -0.225931467 0.0736380172 0.0389999662
v -0.224224152 0.0783761096 0.0389999662
v -0.221688332 0.0760162425 0.0389999662
v -0.223788799 0.0761205507 0.0389999662
v -0.224068464 0.0763619495 0.0389999662
v -0.224394979 0.0765350414 0.0389999662
v -0.224751653 0.0766312433 0.0389999662
v -0.224879088 0.0733544183 0.0389999662
v -0.224515976 0.073422606 0.0389999662
v -0.222464146 0.0726401162 0.0389999662
v -0.224177064 0.0735698295 0.0389999662
v -0.223879518 0.073788817 0.0389999662
v -0.223638119 0.0740684819 0.0389999662
v -0.223464908 0.074394877 0.0389999662
v -0.223368825 0.0747516704 0.0389999662
v -0.223354401 0.0751208616 0.0389999662
v -0.223422588 0.0754839731 0.0389999662
v -0.223569812 0.0758228851 0.0389999662
v -0.225120844 0.0766455484 0.0389999662
v -0.225484075 0.0765773607 0.0389999662
v -0.225822868 0.0764301372 0.0389999662
v -0.22577578 0.071623857 0.0739999328
v -0.228311719 0.0739838434 0.0739999328
v -0.222464146 0.0726401162 0.0739999328
v -0.221688332 0.0760162425 0.0739999328
v -0.227535905 0.0773599696 0.0739999328
v -0.224224152 0.0783761096 0.0739999328
v -0.0259498969 -0.240250056 0.0686388527
v -0.0259787456 -0.240250056 0.0686388527
v -0.0259498969 -0.240240102 0.0686388527
v -0.0259787456 -0.240240102 0.0686388527
v -0.0262083427 -0.240250056 0.0665741478
v -0.0261630431 -0.240250056 0.0665741478
v -0.0262083427 -0.240240102 0.0665741478
v -0.0261630431 -0.240240102 0.0665741478
v -0.0261688844 -0.240250056 0.0665452991
v -0.0261688844 -0.240240102 0.0665452991
v -0.0261672155 -0.240240102 0.0665604387
v -0.0261672155 -0.240250056 0.0665604387
v -0.0259030477 -0.240250056 0.067013434
v -0.0259030477 -0.240240102 0.067013434
v -0.0259125844 -0.240240102 0.0670519386
v -0.0259125844 -0.240250056 0.0670519386
v -0.0259236709 -0.240240102 0.0670736347
v -0.0259236709 -0.240250056 0.0670736347
v -0.0259371415 -0.240240102 0.0670892511
v -0.0259371415 -0.240250056 0.0670892511
v -0.0259518043 -0.240240102 0.0670995031
v -0.0259518043 -0.240250056 0.0670995031
v -0.0259696857 -0.240240102 0.0671064172
v -0.0259696857 -0.240250056 0.0671064172
v -0.0259917394 -0.240240102 0.0671097551
v -0.0259917394 -0.240250056 0.0671097551
v -0.0259979383 -0.240240102 0.0671098743
v -0.0259979383 -0.240250056 0.0671098743
v -0.0253415719 -0.240250056 0.0662321363
v -0.0253415719 -0.240240102 0.0662321363
v -0.0253462211 -0.240240102 0.0662371431
v -0.0253462211 -0.240250056 0.0662371431
v -0.0253643409 -0.240240102 0.0662633691
v -0.0253643409 -0.240250056 0.0662633691
v -0.0253773347 -0.240240102 0.0662969862
v -0.0253773347 -0.240250056 0.0662969862
v -0.0253840104 -0.240240102 0.0663531337
v -0.0253840104 -0.240250056 0.0663531337
v -0.0253840104 -0.240250056 0.0664121423
v -0.0253840104 -0.240240102 0.0664121423
v -0.0246300117 -0.236550097 0.0748998438
v -0.0245299951 -0.236550097 0.0747999464
v -0.0246300117 -0.235910063 0.0748998438
v -0.0245299951 -0.235910063 0.0747999464
v -0.0277699844 -0.238270109 0.0651999031
v -0.0267699376 -0.238270109 0.0651999031
v -0.0277699844 -0.239270096 0.0651999031
v -0.0267699376 -0.239270096 0.0651999031
v 0.0783761128 0.224224145 0.0739999328
v 0.0766455516 0.225120838 0.0739999328
v 0.0766312465 0.224751647 0.0739999328
v 0.0765350446 0.224394972 0.0739999328
v 0.0763619527 0.224068577 0.0739999328
v 0.0760162457 0.221688325 0.0739999328
v 0.0733544215 0.224879081 0.0739999328
v 0.0733688458 0.225248272 0.0739999328
v 0.0716238602 0.225775774 0.0739999328
v 0.0761205539 0.223788793 0.0739999328
v 0.0758228883 0.223569806 0.0739999328
v 0.0754839763 0.223422582 0.0739999328
v 0.0751208648 0.223354394 0.0739999328
v 0.0747516736 0.223368819 0.0739999328
v 0.0726401194 0.222464139 0.0739999328
v 0.0743948802 0.223464901 0.0739999328
v 0.0740684851 0.223638113 0.0739999328
v 0.0734649285 0.225605066 0.0739999328
v 0.0736380204 0.225931461 0.0739999328
v 0.0739838466 0.228311713 0.0739999328
v 0.0759314879 0.226361926 0.0739999328
v 0.0762111529 0.226120527 0.0739999328
v 0.0773599728 0.227535899 0.0739999328
v 0.0764301404 0.225822861 0.0739999328
v 0.0765773639 0.225484068 0.0739999328
v 0.0737888202 0.223879511 0.0739999328
v 0.0735698327 0.224177058 0.0739999328
v 0.0734226092 0.22451597 0.0739999328
v 0.0738795384 0.226211126 0.0739999328
v 0.0741770848 0.226430113 0.0739999328
v 0.0745159968 0.226577456 0.0739999328
v 0.0748791083 0.226645525 0.0739999328
v 0.0752482995 0.226631219 0.0739999328
v 0.0756050929 0.226535018 0.0739999328
v 0.0716238602 0.225775774 0.0389999662
v 0.0739838466 0.228311713 0.0389999662
v 0.0760162457 0.221688325 0.0389999662
v 0.0726401194 0.222464139 0.0389999662
v 0.0783761128 0.224224145 0.0389999662
v 0.0734226092 0.22451597 0.0389999662
v 0.0733544215 0.224879081 0.0389999662
v 0.0733688458 0.225248272 0.0389999662
v 0.0734649285 0.225605066 0.0389999662
v 0.0736380204 0.225931461 0.0389999662
v 0.0738795384 0.226211126 0.0389999662
v 0.0741770848 0.226430113 0.0389999662
v 0.0745159968 0.226577456 0.0389999662
v 0.0748791083 0.226645525 0.0389999662
v 0.0752482995 0.226631219 0.0389999662
v 0.0756050929 0.226535018 0.0389999662
v 0.0759314879 0.226361926 0.0389999662
v 0.0762111529 0.226120527 0.0389999662
v 0.0764301404 0.225822861 0.0389999662
v 0.0765773639 0.225484068 0.0389999662
v 0.0766455516 0.225120838 0.0389999662
v 0.0766312465 0.224751647 0.0389999662
v 0.0765350446 0.224394972 0.0389999662
v 0.0763619527 0.224068577 0.0389999662
v 0.0761205539 0.223788793 0.0389999662
v 0.0758228883 0.223569806 0.0389999662
v 0.0754839763 0.223422582 0.0389999662
v 0.0751208648 0.223354394 0.0389999662
v 0.0747516736 0.223368819 0.0389999662
v 0.0743948802 0.223464901 0.0389999662
v 0.0740684851 0.223638113 0.0389999662
v 0.0737888202 0.223879511 0.0389999662
v 0.0735698327 0.224177058 0.0389999662
v -0.0259324924 -0.200249975 0.0694340978
v -0.0259324924 -0.200240021 0.0694340978
v -0.0260092632 -0.200240021 0.0693440948
v -0.0260092632 -0.200249975 0.0693440948
v -0.0260602847 -0.200240021 0.0692396675
v -0.0260602847 -0.200249975 0.0692396675
v -0.026071252 -0.200240021 0.0692027126
v -0.026071252 -0.200249975 0.0692027126
v -0.0258589402 -0.200249975 0.0667545114
v -0.0258589402 -0.200240021 0.0667545114
v -0.025850834 -0.200240021 0.066753677
v -0.025850834 -0.200249975 0.066753677
v -0.0258440391 -0.200240021 0.0667511736
v -0.0258440391 -0.200249975 0.0667511736
v -0.0258374826 -0.200240021 0.0667467628
v -0.0258374826 -0.200249975 0.0667467628
v -0.0258306876 -0.200240021 0.0667390142
v -0.0258306876 -0.200249975 0.0667390142
v -0.0253300086 -0.195630019 0.0631999288
v -0.025229992 -0.195729976 0.0632999454
v -0.0253300086 -0.196829979 0.0631999288
v -0.025229992 -0.196730022 0.0632999454
v -0.025614442 -0.198764091 0.0708998953
v -0.025614442 -0.198764091 0.0709999118
v -0.0256024018 -0.198701267 0.0709999118
v -0.0256024018 -0.198701267 0.0708998953
v -0.0256000177 -0.198637192 0.0709999118
v -0.0256000177 -0.198637192 0.0708998953
v -0.0259999648 -0.198556428 0.0708998953
v -0.0256000177 -0.198556428 0.0708998953
v -0.0259999648 -0.198556428 0.0709999118
v -0.0256000177 -0.198556428 0.0709999118
v -0.0732679979 -0.167 0.0739999328
v -0.0715358869 -0.170000021 0.0739999328
v -0.0732679979 -0.167 0.0389999662
v -0.0715358869 -0.170000021 0.0389999662
v -0.0767321006 -0.167 0.0739999328
v -0.0767321006 -0.167 0.0389999662
v -0.0784640924 -0.170000021 0.0739999328
v -0.0784640924 -0.170000021 0.0389999662
v -0.0732679979 -0.172999983 0.0739999328
v -0.0767321006 -0.172999983 0.0739999328
v -0.0732679979 -0.172999983 0.0389999662
v -0.0767321006 -0.172999983 0.0389999662
v -0.170000018 0.0784640861 0.0739999328
v -0.170367183 0.0766085935 0.0739999328
v -0.170000018 0.0766499591 0.0739999328
v -0.166999997 0.0767320943 0.0739999328
v -0.168350042 0.0749999833 0.0739999328
v -0.166999997 0.0732679916 0.0739999328
v -0.168391408 0.0746328187 0.0739999328
v -0.168513359 0.0742841316 0.0739999328
v -0.170000018 0.0715358806 0.0739999328
v -0.169632854 0.0733913732 0.0739999328
v -0.170000018 0.0733500076 0.0739999328
v -0.171486558 0.0757159543 0.0739999328
v -0.171289982 0.0760287595 0.0739999328
v -0.173000039 0.0767320943 0.0739999328
v -0.171028794 0.0762900663 0.0739999328
v -0.17071587 0.0764866424 0.0739999328
v -0.168709935 0.0739712072 0.0739999328
v -0.168971242 0.0737100196 0.0739999328
v -0.169284047 0.0735134435 0.0739999328
v -0.173000039 0.0732679916 0.0739999328
v -0.171649994 0.0749999833 0.0739999328
v -0.171608628 0.075367148 0.0739999328
v -0.169632854 0.0766085935 0.0739999328
v -0.169284047 0.0764866424 0.0739999328
v -0.168971242 0.0762900663 0.0739999328
v -0.168709935 0.0760287595 0.0739999328
v -0.168513359 0.0757159543 0.0739999328
v -0.168391408 0.075367148 0.0739999328
v -0.170367183 0.0733913732 0.0739999328
v -0.17071587 0.0735134435 0.0739999328
v -0.171028794 0.0737100196 0.0739999328
v -0.171289982 0.0739712072 0.0739999328
v -0.171486558 0.0742841316 0.0739999328
v -0.171608628 0.0746328187 0.0739999328
v -0.166999997 0.0732679916 0.0389999662
v -0.170000018 0.0715358806 0.0389999662
v -0.166999997 0.0767320943 0.0389999662
v -0.170000018 0.0784640861 0.0389999662
v -0.173000039 0.0767320943 0.0389999662
v -0.173000039 0.0732679916 0.0389999662
v -0.168350042 0.0749999833 0.0389999662
v -0.168391408 0.0746328187 0.0389999662
v -0.168513359 0.0742841316 0.0389999662
v -0.168709935 0.0739712072 0.0389999662
v -0.168971242 0.0737100196 0.0389999662
v -0.169284047 0.0735134435 0.0389999662
v -0.169632854 0.0733913732 0.0389999662
v -0.170000018 0.0733500076 0.0389999662
v -0.170367183 0.0733913732 0.0389999662
v -0.17071587 0.0735134435 0.0389999662
v -0.171028794 0.0737100196 0.0389999662
v -0.171289982 0.0739712072 0.0389999662
v -0.171486558 0.0742841316 0.0389999662
v -0.171608628 0.0746328187 0.0389999662
v -0.171649994 0.0749999833 0.0389999662
v -0.171608628 0.075367148 0.0389999662
v -0.171486558 0.0757159543 0.0389999662
v -0.171289982 0.0760287595 0.0389999662
v -0.171028794 0.0762900663 0.0389999662
v -0.17071587 0.0764866424 0.0389999662
v -0.170367183 0.0766085935 0.0389999662
v -0.170000018 0.0766499591 0.0389999662
v -0.169632854 0.0766085935 0.0389999662
v -0.169284047 0.0764866424 0.0389999662
v -0.168971242 0.0762900663 0.0389999662
v -0.168709935 0.0760287595 0.0389999662
v -0.168513359 0.0757159543 0.0389999662
v -0.168391408 0.075367148 0.0389999662
f 1 2 3
f 4 5 6
f 2 7 3
f 3 7 8
f 3 8 9
f 9 8 10
f 9 10 11
f 11 12 9
f 9 12 13
f 9 13 14
f 6 15 4
f 4 15 16
f 4 16 3
f 3 16 17
f 3 17 1
f 13 18 14
f 14 18 19
f 14 19 20
f 21 22 23
f 20 24 14
f 14 24 25
f 14 25 21
f 21 25 26
f 21 26 22
f 23 27 21
f 21 27 28
f 21 28 29
f 29 28 30
f 29 30 31
f 31 32 29
f 29 32 33
f 29 33 4
f 4 33 34
f 4 34 5
f 35 36 9
f 9 36 3
f 37 35 14
f 14 35 9
f 38 37 21
f 21 37 14
f 39 40 4
f 4 40 29
f 36 39 3
f 3 39 4
f 41 42 43
f 41 43 44
f 44 43 45
f 44 45 46
f 46 45 47
f 46 47 48
f 49 50 51
f 52 53 51
f 51 53 54
f 51 54 49
f 55 56 57
f 57 56 58
f 57 58 59
f 60 61 62
f 62 61 63
f 62 63 64
f 64 63 65
f 64 65 66
f 66 65 67
f 66 67 68
f 68 67 69
f 68 69 70
f 50 59 51
f 51 59 58
f 51 58 71
f 58 72 71
f 71 72 73
f 71 73 74
f 74 73 70
f 74 70 75
f 75 70 69
f 76 77 78
f 78 77 79
f 80 81 82
f 82 81 83
f 82 83 84
f 84 83 85
f 86 87 88
f 88 87 89
f 88 89 90
f 91 92 93
f 94 95 96
f 97 98 99
f 100 101 86
f 86 101 102
f 86 102 87
f 90 103 88
f 88 103 104
f 88 104 93
f 93 104 105
f 93 105 91
f 92 106 93
f 93 106 107
f 93 107 94
f 94 107 108
f 94 108 95
f 96 109 94
f 94 109 110
f 94 110 111
f 111 110 112
f 111 112 113
f 113 114 111
f 111 114 115
f 111 115 99
f 99 115 116
f 99 116 97
f 98 117 99
f 99 117 118
f 99 118 86
f 86 118 119
f 86 119 100
f 111 99 120
f 120 99 121
f 94 111 122
f 122 111 120
f 93 94 123
f 123 94 122
f 88 93 124
f 124 93 123
f 86 88 125
f 125 88 124
f 99 86 121
f 121 86 125
f 110 126 112
f 112 126 127
f 112 127 113
f 113 127 128
f 113 128 114
f 114 128 129
f 114 129 115
f 115 129 130
f 115 130 116
f 116 130 131
f 116 131 97
f 97 131 132
f 97 132 98
f 98 132 133
f 98 133 117
f 117 133 134
f 117 134 118
f 118 134 135
f 118 135 119
f 119 135 136
f 119 136 100
f 100 136 137
f 100 137 101
f 101 137 138
f 101 138 102
f 102 138 139
f 102 139 87
f 87 139 140
f 87 140 89
f 89 140 141
f 89 141 90
f 90 141 142
f 90 142 103
f 103 142 143
f 103 143 104
f 104 143 144
f 104 144 105
f 105 144 145
f 105 145 91
f 91 145 146
f 91 146 92
f 92 146 147
f 92 147 106
f 106 147 148
f 106 148 107
f 107 148 149
f 107 149 108
f 108 149 150
f 108 150 95
f 95 150 151
f 95 151 96
f 96 151 152
f 96 152 109
f 109 152 153
f 109 153 110
f 110 153 126
f 154 155 156
f 156 155 157
f 156 157 158
f 159 160 161
f 158 162 156
f 156 162 163
f 156 163 159
f 159 163 164
f 159 164 160
f 161 165 159
f 159 165 166
f 159 166 167
f 166 168 167
f 167 168 169
f 167 169 170
f 170 171 167
f 167 171 172
f 167 172 173
f 173 172 174
f 173 174 175
f 176 177 178
f 175 179 173
f 173 179 180
f 173 180 176
f 176 180 181
f 176 181 177
f 178 182 176
f 176 182 183
f 176 183 154
f 154 183 184
f 154 184 185
f 185 186 154
f 154 186 187
f 154 187 155
f 188 189 190
f 191 192 193
f 193 192 194
f 193 194 195
f 196 197 198
f 199 200 201
f 201 200 202
f 201 202 188
f 188 202 203
f 188 203 189
f 195 204 193
f 193 204 205
f 193 205 196
f 196 205 206
f 196 206 197
f 207 208 201
f 201 208 209
f 201 209 199
f 190 210 188
f 188 210 211
f 188 211 191
f 191 211 212
f 191 212 213
f 213 214 191
f 191 214 215
f 191 215 192
f 198 216 196
f 196 216 217
f 196 217 207
f 207 217 218
f 207 218 219
f 219 220 207
f 207 220 221
f 207 221 208
f 173 176 191
f 191 176 188
f 167 173 193
f 193 173 191
f 159 167 196
f 196 167 193
f 156 159 207
f 207 159 196
f 176 154 188
f 188 154 201
f 172 192 174
f 174 192 215
f 174 215 175
f 175 215 214
f 175 214 179
f 179 214 213
f 179 213 180
f 180 213 212
f 180 212 181
f 181 212 211
f 181 211 177
f 177 211 210
f 177 210 178
f 178 210 190
f 178 190 182
f 182 190 189
f 182 189 183
f 183 189 203
f 183 203 184
f 184 203 202
f 184 202 185
f 185 202 200
f 185 200 186
f 186 200 199
f 186 199 187
f 187 199 209
f 187 209 155
f 155 209 208
f 155 208 157
f 157 208 221
f 157 221 158
f 158 221 220
f 158 220 162
f 162 220 219
f 162 219 163
f 163 219 218
f 163 218 164
f 164 218 217
f 164 217 160
f 160 217 216
f 160 216 161
f 161 216 198
f 161 198 165
f 165 198 197
f 165 197 166
f 166 197 206
f 166 206 168
f 168 206 205
f 168 205 169
f 169 205 204
f 169 204 170
f 170 204 195
f 170 195 171
f 171 195 194
f 171 194 172
f 172 194 192
f 222 223 224
f 224 223 225
f 224 225 226
f 226 225 227
f 226 227 228
f 228 227 229
f 228 229 230
f 230 229 231
f 230 231 232
f 232 231 233
f 232 233 234
f 234 233 235
f 234 235 236
f 236 235 237
f 236 237 238
f 238 237 239
f 238 239 240
f 240 239 241
f 240 241 242
f 242 241 243
f 242 243 244
f 244 243 245
f 244 245 246
f 246 245 247
f 246 247 248
f 248 247 249
f 248 249 250
f 250 249 251
f 250 251 252
f 252 251 253
f 252 253 254
f 254 253 255
f 254 255 256
f 256 255 257
f 256 257 258
f 258 257 259
f 258 259 260
f 260 259 261
f 260 261 262
f 262 261 263
f 262 263 264
f 264 263 265
f 264 265 266
f 266 265 267
f 266 267 268
f 268 267 269
f 268 269 222
f 222 269 223
f 270 271 272
f 272 271 273
f 274 272 275
f 275 272 273
f 275 273 276
f 276 273 277
f 278 279 280
f 280 279 281
f 280 281 282
f 283 284 285
f 282 286 280
f 280 286 287
f 280 287 283
f 283 287 288
f 283 288 284
f 285 289 283
f 283 289 290
f 283 290 291
f 290 292 291
f 291 292 293
f 291 293 294
f 294 295 291
f 291 295 296
f 291 296 297
f 297 296 298
f 297 298 299
f 300 301 302
f 299 303 297
f 297 303 304
f 297 304 300
f 300 304 305
f 300 305 301
f 302 306 300
f 300 306 307
f 300 307 278
f 278 307 308
f 278 308 309
f 309 310 278
f 278 310 311
f 278 311 279
f 312 313 314
f 315 316 317
f 317 316 318
f 317 318 319
f 320 321 322
f 323 324 325
f 325 324 326
f 325 326 312
f 312 326 327
f 312 327 313
f 319 328 317
f 317 328 329
f 317 329 320
f 320 329 330
f 320 330 321
f 331 332 325
f 325 332 333
f 325 333 323
f 314 334 312
f 312 334 335
f 312 335 315
f 315 335 336
f 315 336 337
f 337 338 315
f 315 338 339
f 315 339 316
f 322 340 320
f 320 340 341
f 320 341 331
f 331 341 342
f 331 342 343
f 343 344 331
f 331 344 345
f 331 345 332
f 297 300 315
f 315 300 312
f 291 297 317
f 317 297 315
f 283 291 320
f 320 291 317
f 280 283 331
f 331 283 320
f 278 280 325
f 325 280 331
f 300 278 312
f 312 278 325
f 296 316 298
f 298 316 339
f 298 339 299
f 299 339 338
f 299 338 303
f 303 338 337
f 303 337 304
f 304 337 336
f 304 336 305
f 305 336 335
f 305 335 301
f 301 335 334
f 301 334 302
f 302 334 314
f 302 314 306
f 306 314 313
f 306 313 307
f 307 313 327
f 307 327 308
f 308 327 326
f 308 326 309
f 309 326 324
f 309 324 310
f 310 324 323
f 310 323 311
f 311 323 333
f 311 333 279
f 279 333 332
f 279 332 281
f 281 332 345
f 281 345 282
f 282 345 344
f 282 344 286
f 286 344 343
f 286 343 287
f 287 343 342
f 287 342 288
f 288 342 341
f 288 341 284
f 284 341 340
f 284 340 285
f 285 340 322
f 285 322 289
f 289 322 321
f 289 321 290
f 290 321 330
f 290 330 292
f 292 330 329
f 292 329 293
f 293 329 328
f 293 328 294
f 294 328 319
f 294 319 295
f 295 319 318
f 295 318 296
f 296 318 316
f 346 347 348
f 349 350 351
f 350 352 351
f 351 352 353
f 351 353 354
f 354 353 355
f 354 355 356
f 357 358 359
f 347 360 348
f 348 360 361
f 348 361 351
f 351 361 362
f 351 362 349
f 356 363 354
f 354 363 364
f 354 364 357
f 357 364 365
f 357 365 358
f 366 367 368
f 367 369 368
f 368 369 370
f 368 370 371
f 371 370 372
f 371 372 373
f 359 374 357
f 357 374 375
f 357 375 368
f 368 375 376
f 368 376 366
f 373 377 371
f 371 377 378
f 371 378 348
f 348 378 379
f 348 379 346
f 380 381 382
f 383 384 385
f 384 386 385
f 385 386 387
f 385 387 388
f 388 387 389
f 388 389 390
f 391 392 393
f 381 394 382
f 382 394 395
f 382 395 385
f 385 395 396
f 385 396 383
f 390 397 388
f 388 397 398
f 388 398 391
f 391 398 399
f 391 399 392
f 400 401 402
f 401 403 402
f 402 403 404
f 402 404 405
f 405 404 406
f 405 406 407
f 393 408 391
f 391 408 409
f 391 409 402
f 402 409 410
f 402 410 400
f 407 411 405
f 405 411 412
f 405 412 382
f 382 412 413
f 382 413 380
f 371 348 402
f 402 348 391
f 368 371 405
f 405 371 402
f 357 368 382
f 382 368 405
f 354 357 385
f 385 357 382
f 348 351 391
f 391 351 388
f 370 404 372
f 372 404 403
f 372 403 373
f 373 403 401
f 373 401 377
f 377 401 400
f 377 400 378
f 378 400 410
f 378 410 379
f 379 410 409
f 379 409 346
f 346 409 408
f 346 408 347
f 347 408 393
f 347 393 360
f 360 393 392
f 360 392 361
f 361 392 399
f 361 399 362
f 362 399 398
f 362 398 349
f 349 398 397
f 349 397 350
f 350 397 390
f 350 390 352
f 352 390 389
f 352 389 353
f 353 389 387
f 353 387 355
f 355 387 386
f 355 386 356
f 356 386 384
f 356 384 363
f 363 384 383
f 363 383 364
f 364 383 396
f 364 396 365
f 365 396 395
f 365 395 358
f 358 395 394
f 358 394 359
f 359 394 381
f 359 381 374
f 374 381 380
f 374 380 375
f 375 380 413
f 375 413 376
f 376 413 412
f 376 412 366
f 366 412 411
f 366 411 367
f 367 411 407
f 367 407 369
f 369 407 406
f 369 406 370
f 370 406 404
f 414 415 416
f 417 418 419
f 419 418 420
f 419 420 421
f 422 423 424
f 425 426 417
f 417 426 427
f 417 427 418
f 428 429 430
f 430 431 428
f 428 431 432
f 428 432 433
f 433 432 434
f 433 434 435
f 435 436 433
f 433 436 437
f 433 437 416
f 416 437 438
f 416 438 414
f 415 439 416
f 416 439 440
f 416 440 417
f 417 440 441
f 417 441 425
f 421 442 419
f 419 442 443
f 419 443 424
f 424 443 444
f 424 444 422
f 423 445 424
f 424 445 446
f 424 446 428
f 428 446 447
f 428 447 429
f 419 424 448
f 448 424 449
f 417 419 450
f 450 419 448
f 416 417 451
f 451 417 450
f 433 416 452
f 452 416 451
f 428 433 453
f 453 433 452
f 418 454 420
f 420 454 455
f 420 455 421
f 421 455 456
f 421 456 442
f 442 456 457
f 442 457 443
f 443 457 458
f 443 458 444
f 444 458 459
f 444 459 422
f 422 459 460
f 422 460 423
f 423 460 461
f 423 461 445
f 445 461 462
f 445 462 446
f 446 462 463
f 446 463 447
f 447 463 464
f 447 464 429
f 429 464 465
f 429 465 430
f 430 465 466
f 430 466 431
f 431 466 467
f 431 467 432
f 432 467 468
f 432 468 434
f 434 468 469
f 434 469 435
f 435 469 470
f 435 470 436
f 436 470 471
f 436 471 437
f 437 471 472
f 437 472 438
f 438 472 473
f 438 473 414
f 414 473 474
f 414 474 415
f 415 474 475
f 415 475 439
f 439 475 476
f 439 476 440
f 440 476 477
f 440 477 441
f 441 477 478
f 441 478 425
f 425 478 479
f 425 479 426
f 426 479 480
f 426 480 427
f 427 480 481
f 427 481 418
f 418 481 454
f 482 483 484
f 484 483 485
f 486 482 487
f 487 482 484
f 488 486 489
f 489 486 487
f 490 491 492
f 492 491 493
f 494 495 496
f 496 495 497
f 498 499 500
f 500 499 501
f 502 498 503
f 503 498 500
f 504 502 505
f 505 502 503
f 506 507 508
f 508 507 509
f 510 511 512
f 512 511 513
f 514 510 515
f 515 510 512
f 516 514 517
f 517 514 515
f 514 516 510
f 510 516 511
f 517 515 513
f 513 515 512
f 518 519 520
f 521 522 523
f 523 522 524
f 523 524 525
f 526 527 528
f 529 530 521
f 521 530 531
f 521 531 522
f 532 533 534
f 534 535 532
f 532 535 536
f 532 536 537
f 537 536 538
f 537 538 539
f 539 540 537
f 537 540 541
f 537 541 520
f 520 541 542
f 520 542 518
f 519 543 520
f 520 543 544
f 520 544 521
f 521 544 545
f 521 545 529
f 525 546 523
f 523 546 547
f 523 547 528
f 528 547 548
f 528 548 526
f 527 549 528
f 528 549 550
f 528 550 532
f 532 550 551
f 532 551 533
f 537 520 552
f 552 520 553
f 522 554 524
f 524 554 555
f 524 555 525
f 525 555 556
f 525 556 546
f 546 556 557
f 546 557 547
f 547 557 558
f 547 558 548
f 548 558 559
f 548 559 526
f 526 559 560
f 526 560 527
f 527 560 561
f 527 561 549
f 549 561 562
f 549 562 550
f 550 562 563
f 550 563 551
f 551 563 564
f 551 564 533
f 533 564 565
f 533 565 534
f 534 565 566
f 534 566 535
f 535 566 567
f 535 567 536
f 536 567 568
f 536 568 538
f 538 568 569
f 538 569 539
f 539 569 570
f 539 570 540
f 540 570 571
f 540 571 541
f 541 571 572
f 541 572 542
f 542 572 573
f 542 573 518
f 518 573 574
f 518 574 519
f 519 574 575
f 519 575 543
f 543 575 576
f 543 576 544
f 544 576 577
f 544 577 545
f 545 577 578
f 545 578 529
f 529 578 579
f 529 579 530
f 530 579 580
f 530 580 531
f 531 580 581
f 531 581 522
f 522 581 554
f 582 583 584
f 584 583 585
f 586 587 582
f 582 587 583
f 588 589 585
f 585 589 584
f 590 591 592
f 592 591 593
f 594 595 596
f 596 595 597
f 596 597 598
f 598 597 599
f 598 599 600
f 600 599 601
f 600 601 602
f 602 601 603
f 603 601 604
f 603 604 605
f 605 604 606
f 605 606 607
f 607 606 608
f 607 608 609
f 609 608 610
f 609 610 611
f 611 610 612
f 611 612 613
f 613 612 614
f 613 614 615
f 615 614 616
f 615 616 617
f 617 616 618
f 617 618 619
f 619 618 620
f 619 620 621
f 621 620 622
f 621 622 623
f 623 622 624
f 623 624 625
f 625 624 626
f 625 626 627
f 627 626 628
f 627 628 629
f 629 628 630
f 629 630 631
f 631 630 632
f 631 632 633
f 633 632 634
f 633 634 635
f 635 634 636
f 635 636 637
f 637 636 638
f 637 638 639
f 639 638 640
f 639 640 641
f 641 640 642
f 641 642 643
f 643 642 644
f 643 644 645
f 645 644 646
f 645 646 647
f 647 646 648
f 647 648 649
f 649 648 650
f 651 652 653
f 651 653 654
f 654 653 655
f 654 655 656
f 657 658 659
f 659 658 660
f 659 660 661
f 661 660 662
f 663 664 665
f 665 664 666
f 665 666 667
f 667 666 668
f 669 670 671
f 671 670 672
f 671 672 673
f 673 672 674
f 673 674 675
f 675 674 676
f 675 676 677
f 677 676 678
f 679 680 681
f 679 681 682
f 682 681 683
f 682 683 684
f 684 683 685
f 684 685 686
f 686 685 687
f 686 687 688
f 688 687 689
f 688 689 690
f 690 689 691
f 690 691 692
f 692 691 693
f 692 693 694
f 694 693 695
f 694 695 696
f 696 695 697
f 696 697 698
f 698 697 699
f 698 699 700
f 700 699 701
f 700 701 702
f 702 701 703
f 702 703 704
f 704 703 705
f 704 705 706
f 706 705 707
f 706 707 708
f 708 707 709
f 708 709 710
f 711 712 713
f 711 713 714
f 714 713 715
f 714 715 716
f 716 715 717
f 716 717 718
f 718 717 719
f 718 719 720
f 720 719 721
f 720 721 722
f 722 721 723
f 722 723 724
f 724 723 725
f 724 725 726
f 727 728 729
f 727 729 730
f 730 729 731
f 730 731 732
f 732 731 733
f 732 733 734
f 734 733 735
f 734 735 736
f 736 735 737
f 736 737 738
f 739 740 741
f 742 743 744
f 742 744 745
f 739 741 744
f 744 741 746
f 744 746 745
f 742 747 743
f 743 747 748
f 743 748 749
f 750 751 752
f 752 751 749
f 752 749 753
f 753 749 748
f 750 754 751
f 751 754 755
f 751 755 756
f 757 758 759
f 759 758 756
f 759 756 760
f 760 756 755
f 761 762 763
f 763 762 758
f 763 758 764
f 764 758 757
f 765 766 767
f 767 768 765
f 765 768 769
f 765 769 770
f 771 772 773
f 769 774 770
f 770 774 775
f 770 775 776
f 777 778 779
f 779 780 777
f 777 780 781
f 777 781 771
f 771 781 782
f 771 782 772
f 773 783 771
f 771 783 784
f 771 784 785
f 785 784 786
f 785 786 787
f 776 788 770
f 770 788 789
f 770 789 790
f 790 789 791
f 790 791 792
f 787 793 785
f 785 793 794
f 785 794 765
f 765 794 795
f 765 795 766
f 792 796 790
f 790 796 797
f 790 797 777
f 777 797 798
f 777 798 778
f 799 800 801
f 802 803 804
f 805 806 807
f 807 808 805
f 805 808 809
f 805 809 799
f 799 809 810
f 799 810 800
f 804 811 802
f 802 811 812
f 802 812 813
f 812 814 813
f 813 814 815
f 813 815 816
f 817 818 819
f 819 818 820
f 819 820 802
f 802 820 821
f 802 821 803
f 801 822 799
f 799 822 823
f 799 823 819
f 819 823 824
f 819 824 817
f 825 826 827
f 827 826 828
f 827 828 805
f 805 828 829
f 805 829 806
f 816 830 813
f 813 830 831
f 813 831 827
f 827 831 832
f 827 832 825
f 785 765 827
f 827 765 813
f 771 785 805
f 805 785 827
f 777 771 799
f 799 771 805
f 765 770 813
f 813 770 802
f 784 829 786
f 786 829 828
f 786 828 787
f 787 828 826
f 787 826 793
f 793 826 825
f 793 825 794
f 794 825 832
f 794 832 795
f 795 832 831
f 795 831 766
f 766 831 830
f 766 830 767
f 767 830 816
f 767 816 768
f 768 816 815
f 768 815 769
f 769 815 814
f 769 814 774
f 774 814 812
f 774 812 775
f 775 812 811
f 775 811 776
f 776 811 804
f 776 804 788
f 788 804 803
f 788 803 789
f 789 803 821
f 789 821 791
f 791 821 820
f 791 820 792
f 792 820 818
f 792 818 796
f 796 818 817
f 796 817 797
f 797 817 824
f 797 824 798
f 798 824 823
f 798 823 778
f 778 823 822
f 778 822 779
f 779 822 801
f 779 801 780
f 780 801 800
f 780 800 781
f 781 800 810
f 781 810 782
f 782 810 809
f 782 809 772
f 772 809 808
f 772 808 773
f 773 808 807
f 773 807 783
f 783 807 806
f 783 806 784
f 784 806 829
f 833 834 835
f 836 837 838
f 834 839 835
f 835 839 840
f 835 840 841
f 841 840 842
f 841 842 843
f 843 844 841
f 841 844 845
f 841 845 846
f 838 847 836
f 836 847 848
f 836 848 835
f 835 848 849
f 835 849 833
f 845 850 846
f 846 850 851
f 846 851 852
f 853 854 855
f 852 856 846
f 846 856 857
f 846 857 853
f 853 857 858
f 853 858 854
f 855 859 853
f 853 859 860
f 853 860 861
f 861 860 862
f 861 862 863
f 863 864 861
f 861 864 865
f 861 865 836
f 836 865 866
f 836 866 837
f 867 868 841
f 841 868 835
f 869 867 846
f 846 867 841
f 870 869 853
f 853 869 846
f 871 872 836
f 836 872 861
f 868 871 835
f 835 871 836
f 873 874 875
f 876 877 878
f 879 880 881
f 882 883 884
f 884 883 885
f 884 885 879
f 879 885 886
f 879 886 880
f 881 887 879
f 879 887 888
f 879 888 878
f 878 888 889
f 878 889 876
f 890 891 892
f 891 893 892
f 892 893 894
f 892 894 875
f 875 894 895
f 875 895 873
f 874 896 875
f 875 896 897
f 875 897 884
f 884 897 898
f 884 898 882
f 877 899 878
f 878 899 900
f 878 900 901
f 901 900 902
f 901 902 903
f 903 904 901
f 901 904 905
f 901 905 892
f 892 905 906
f 892 906 890
f 879 878 907
f 907 878 908
f 884 879 909
f 909 879 907
f 875 884 910
f 910 884 909
f 892 875 911
f 911 875 910
f 901 892 912
f 912 892 911
f 886 913 880
f 880 913 914
f 880 914 881
f 881 914 915
f 881 915 887
f 887 915 916
f 887 916 888
f 888 916 917
f 888 917 889
f 889 917 918
f 889 918 876
f 876 918 919
f 876 919 877
f 877 919 920
f 877 920 899
f 899 920 921
f 899 921 900
f 900 921 922
f 900 922 902
f 902 922 923
f 902 923 903
f 903 923 924
f 903 924 904
f 904 924 925
f 904 925 905
f 905 925 926
f 905 926 906
f 906 926 927
f 906 927 890
f 890 927 928
f 890 928 891
f 891 928 929
f 891 929 893
f 893 929 930
f 893 930 894
f 894 930 931
f 894 931 895
f 895 931 932
f 895 932 873
f 873 932 933
f 873 933 874
f 874 933 934
f 874 934 896
f 896 934 935
f 896 935 897
f 897 935 936
f 897 936 898
f 898 936 937
f 898 937 882
f 882 937 938
f 882 938 883
f 883 938 939
f 883 939 885
f 885 939 940
f 885 940 886
f 886 940 913
f 941 942 943
f 944 945 946
f 947 948 949
f 949 948 950
f 949 950 941
f 941 950 951
f 941 951 942
f 943 952 941
f 941 952 953
f 941 953 946
f 946 953 954
f 946 954 944
f 955 956 957
f 957 958 955
f 955 958 959
f 955 959 960
f 945 961 946
f 946 961 962
f 946 962 963
f 963 962 964
f 963 964 965
f 965 966 963
f 963 966 967
f 963 967 956
f 956 967 968
f 956 968 969
f 969 970 956
f 956 970 971
f 956 971 957
f 960 972 955
f 955 972 973
f 955 973 949
f 949 973 974
f 949 974 947
f 975 976 946
f 946 976 941
f 977 975 963
f 963 975 946
f 978 977 956
f 956 977 963
f 979 980 949
f 949 980 955
f 981 982 983
f 983 982 984
f 985 986 987
f 987 986 988
f 989 990 991
f 989 991 992
f 992 991 988
f 992 988 986
f 993 994 995
f 993 995 996
f 996 995 997
f 996 997 998
f 998 997 999
f 998 999 1000
f 1000 999 1001
f 1000 1001 1002
f 1002 1001 1003
f 1002 1003 1004
f 1004 1003 1005
f 1004 1005 1006
f 1006 1005 1007
f 1006 1007 1008
f 1009 1010 1011
f 1009 1011 1012
f 1012 1011 1013
f 1012 1013 1014
f 1014 1013 1015
f 1014 1015 1016
f 1016 1015 1017
f 1016 1017 1018
f 1019 1018 1020
f 1020 1018 1017
f 1021 1022 1023
f 1023 1022 1024
f 1025 1026 1027
f 1027 1026 1028
f 1029 1030 1031
f 1031 1032 1029
f 1029 1032 1033
f 1029 1033 1034
f 1035 1036 1037
f 1033 1038 1034
f 1034 1038 1039
f 1034 1039 1040
f 1040 1041 1034
f 1034 1041 1042
f 1034 1042 1043
f 1043 1042 1044
f 1043 1044 1045
f 1036 1046 1037
f 1037 1046 1047
f 1037 1047 1048
f 1049 1050 1051
f 1051 1050 1052
f 1051 1052 1029
f 1029 1052 1053
f 1029 1053 1030
f 1045 1054 1043
f 1043 1054 1055
f 1043 1055 1037
f 1037 1055 1056
f 1037 1056 1035
f 1047 1057 1048
f 1048 1057 1058
f 1048 1058 1059
f 1059 1060 1048
f 1048 1060 1061
f 1048 1061 1051
f 1051 1061 1062
f 1051 1062 1049
f 1037 1048 1063
f 1063 1048 1064
f 1034 1043 1065
f 1065 1043 1066
f 1029 1034 1067
f 1067 1034 1065
f 1056 1068 1035
f 1035 1068 1069
f 1035 1069 1036
f 1036 1069 1070
f 1036 1070 1046
f 1046 1070 1071
f 1046 1071 1047
f 1047 1071 1072
f 1047 1072 1057
f 1057 1072 1073
f 1057 1073 1058
f 1058 1073 1074
f 1058 1074 1059
f 1059 1074 1075
f 1059 1075 1060
f 1060 1075 1076
f 1060 1076 1061
f 1061 1076 1077
f 1061 1077 1062
f 1062 1077 1078
f 1062 1078 1049
f 1049 1078 1079
f 1049 1079 1050
f 1050 1079 1080
f 1050 1080 1052
f 1052 1080 1081
f 1052 1081 1053
f 1053 1081 1082
f 1053 1082 1030
f 1030 1082 1083
f 1030 1083 1031
f 1031 1083 1084
f 1031 1084 1032
f 1032 1084 1085
f 1032 1085 1033
f 1033 1085 1086
f 1033 1086 1038
f 1038 1086 1087
f 1038 1087 1039
f 1039 1087 1088
f 1039 1088 1040
f 1040 1088 1089
f 1040 1089 1041
f 1041 1089 1090
f 1041 1090 1042
f 1042 1090 1091
f 1042 1091 1044
f 1044 1091 1092
f 1044 1092 1045
f 1045 1092 1093
f 1045 1093 1054
f 1054 1093 1094
f 1054 1094 1055
f 1055 1094 1095
f 1055 1095 1056
f 1056 1095 1068
f 1096 1097 1098
f 1096 1098 1099
f 1099 1098 1100
f 1099 1100 1101
f 1101 1100 1102
f 1101 1102 1103
f 1104 1105 1106
f 1104 1106 1107
f 1107 1106 1108
f 1107 1108 1109
f 1109 1108 1110
f 1109 1110 1111
f 1111 1110 1112
f 1111 1112 1113
f 1114 1115 1116
f 1116 1115 1117
f 1118 1119 1120
f 1118 1120 1121
f 1121 1120 1122
f 1121 1122 1123
f 1124 1125 1126
f 1126 1125 1127
f 1128 1129 1130
f 1130 1129 1131
f 1132 1128 1133
f 1133 1128 1130
f 1134 1132 1135
f 1135 1132 1133
f 1136 1137 1138
f 1138 1137 1139
f 1140 1141 1142
f 1143 1144 1145
f 1145 1144 1146
f 1145 1146 1147
f 1148 1149 1150
f 1151 1152 1153
f 1153 1152 1154
f 1153 1154 1140
f 1140 1154 1155
f 1140 1155 1141
f 1147 1156 1145
f 1145 1156 1157
f 1145 1157 1148
f 1148 1157 1158
f 1148 1158 1149
f 1159 1160 1153
f 1153 1160 1161
f 1153 1161 1151
f 1142 1162 1140
f 1140 1162 1163
f 1140 1163 1143
f 1143 1163 1164
f 1143 1164 1165
f 1165 1166 1143
f 1143 1166 1167
f 1143 1167 1144
f 1150 1168 1148
f 1148 1168 1169
f 1148 1169 1159
f 1159 1169 1170
f 1159 1170 1171
f 1171 1172 1159
f 1159 1172 1173
f 1159 1173 1160
f 1145 1148 1174
f 1174 1148 1175
f 1143 1145 1176
f 1176 1145 1174
f 1140 1143 1177
f 1177 1143 1176
f 1153 1140 1178
f 1178 1140 1177
f 1159 1153 1179
f 1179 1153 1178
f 1144 1180 1146
f 1146 1180 1181
f 1146 1181 1147
f 1147 1181 1182
f 1147 1182 1156
f 1156 1182 1183
f 1156 1183 1157
f 1157 1183 1184
f 1157 1184 1158
f 1158 1184 1185
f 1158 1185 1149
f 1149 1185 1186
f 1149 1186 1150
f 1150 1186 1187
f 1150 1187 1168
f 1168 1187 1188
f 1168 1188 1169
f 1169 1188 1189
f 1169 1189 1170
f 1170 1189 1190
f 1170 1190 1171
f 1171 1190 1191
f 1171 1191 1172
f 1172 1191 1192
f 1172 1192 1173
f 1173 1192 1193
f 1173 1193 1160
f 1160 1193 1194
f 1160 1194 1161
f 1161 1194 1195
f 1161 1195 1151
f 1151 1195 1196
f 1151 1196 1152
f 1152 1196 1197
f 1152 1197 1154
f 1154 1197 1198
f 1154 1198 1155
f 1155 1198 1199
f 1155 1199 1141
f 1141 1199 1200
f 1141 1200 1142
f 1142 1200 1201
f 1142 1201 1162
f 1162 1201 1202
f 1162 1202 1163
f 1163 1202 1203
f 1163 1203 1164
f 1164 1203 1204
f 1164 1204 1165
f 1165 1204 1205
f 1165 1205 1166
f 1166 1205 1206
f 1166 1206 1167
f 1167 1206 1207
f 1167 1207 1144
f 1144 1207 1180
