v 0.0277280196 -0.176913862 0.118771843
v 0.0277280196 -0.178500001 0.118771843
v 0.0277093037 -0.176913862 0.118914178
v 0.0277093037 -0.178500001 0.118914178
v 0.0276543483 -0.176913862 0.119046858
v 0.0276543483 -0.178500001 0.119046858
v 0.0275669679 -0.176913862 0.119160703
v 0.0275669679 -0.178500001 0.119160703
v 0.0274530038 -0.176913862 0.119248203
v 0.0274530038 -0.178500001 0.119248203
v 0.0273203238 -0.176913862 0.119303158
v 0.0273203238 -0.178500001 0.119303158
v 0.0271779879 -0.176913862 0.119321874
v 0.0271779879 -0.178500001 0.119321874
v 0.027035652 -0.176913862 0.119303158
v 0.027035652 -0.178500001 0.119303158
v 0.0269029721 -0.176913862 0.119248203
v 0.0269029721 -0.178500001 0.119248203
v 0.0267891272 -0.176913862 0.119160703
v 0.0267891272 -0.178500001 0.119160703
v 0.0267016276 -0.176913862 0.119046858
v 0.0267016276 -0.178500001 0.119046858
v 0.0266466721 -0.176913862 0.118914178
v 0.0266466721 -0.178500001 0.118914178
v 0.0266279563 -0.176913862 0.118771843
v 0.0266279563 -0.178500001 0.118771843
v -0.000505508534 -0.176913862 0.138890556
v -0.000505508534 -0.178500001 0.138890556
v -0.00055664932 -0.176913862 0.139278821
v -0.00055664932 -0.178500001 0.139278821
v -0.000706495397 -0.176913862 0.139640621
v -0.000706495397 -0.178500001 0.139640621
v -0.000944913976 -0.176913862 0.13995128
v -0.000944913976 -0.178500001 0.13995128
v -0.00125557338 -0.176913862 0.14018958
v -0.00125557338 -0.178500001 0.14018958
v -0.00161737358 -0.176913862 0.140339426
v -0.00161737358 -0.178500001 0.140339426
v -0.00192910587 -0.176913862 0.140380553
v -0.00192910587 -0.178500001 0.140380553
v -0.00200551902 -0.176913862 0.140390566
v -0.00200551902 -0.178500001 0.140390566
v -0.00239378368 -0.176913862 0.140339426
v -0.00239378368 -0.178500001 0.140339426
v -0.00275558387 -0.176913862 0.14018958
v -0.00275558387 -0.178500001 0.14018958
v -0.00306624328 -0.176913862 0.13995128
v -0.00306624328 -0.178500001 0.13995128
v -0.00330454265 -0.176913862 0.139640621
v -0.00330454265 -0.178500001 0.139640621
v -0.00345450794 -0.176913862 0.139278821
v -0.00345450794 -0.178500001 0.139278821
v -0.00350552952 -0.176913862 0.138890556
v -0.00350552952 -0.178500001 0.138890556
v -0.00345450794 -0.176913862 0.13850241
v -0.00345450794 -0.178500001 0.13850241
v -0.00330454265 -0.176913862 0.13814061
v -0.00330454265 -0.178500001 0.13814061
v -0.00306624328 -0.176913862 0.137829951
v -0.00306624328 -0.178500001 0.137829951
v -0.00275558387 -0.176913862 0.137591532
v -0.00275558387 -0.178500001 0.137591532
v -0.00239378368 -0.176913862 0.137441686
v -0.00239378368 -0.178500001 0.137441686
v -0.00200551902 -0.176913862 0.137390545
v -0.00200551902 -0.178500001 0.137390545
v -0.00192910587 -0.176913862 0.137400678
v -0.00192910587 -0.178500001 0.137400678
v -0.00161737358 -0.176913862 0.137441686
v -0.00161737358 -0.178500001 0.137441686
v -0.00125557338 -0.176913862 0.137591532
v -0.00125557338 -0.178500001 0.137591532
v -0.000944913976 -0.176913862 0.137829951
v -0.000944913976 -0.178500001 0.137829951
v -0.000706495397 -0.176913862 0.13814061
v -0.000706495397 -0.178500001 0.13814061
v -0.00055664932 -0.176913862 0.13850241
v -0.00055664932 -0.178500001 0.13850241
v -0.0116989032 -0.176913862 0.12780886
v -0.0116989032 -0.178500001 0.12780886
v -0.0116818563 -0.176913862 0.127679399
v -0.0116818563 -0.178500001 0.127679399
v -0.0116319076 -0.176913862 0.127558878
v -0.0116319076 -0.178500001 0.127558878
v -0.0115525142 -0.176913862 0.127455286
v -0.0115525142 -0.178500001 0.127455286
v -0.0114489213 -0.176913862 0.127375892
v -0.0114489213 -0.178500001 0.127375892
v -0.0113284007 -0.176913862 0.127325944
v -0.0113284007 -0.178500001 0.127325944
v -0.0111989394 -0.176913862 0.127308897
v -0.0111989394 -0.178500001 0.127308897
v -0.0110694781 -0.176913862 0.127325944
v -0.0110694781 -0.178500001 0.127325944
v -0.0109489576 -0.176913862 0.127375892
v -0.0109489576 -0.178500001 0.127375892
v -0.0108453647 -0.176913862 0.127455286
v -0.0108453647 -0.178500001 0.127455286
v -0.0107659713 -0.176913862 0.127558878
v -0.0107659713 -0.178500001 0.127558878
v -0.0107160226 -0.176913862 0.127679399
v -0.0107160226 -0.178500001 0.127679399
v -0.0106989757 -0.176913862 0.12780886
v -0.0106989757 -0.178500001 0.12780886
v -0.0173364297 -0.176913862 0.114445857
v -0.0173364297 -0.178500001 0.114445857
v -0.0173534766 -0.176913862 0.114575318
v -0.0173534766 -0.178500001 0.114575318
v -0.0174034253 -0.176913862 0.114695839
v -0.0174034253 -0.178500001 0.114695839
v -0.0174829379 -0.176913862 0.114799431
v -0.0174829379 -0.178500001 0.114799431
v -0.0175865308 -0.176913862 0.114878944
v -0.0175865308 -0.178500001 0.114878944
v -0.0177070514 -0.176913862 0.114928893
v -0.0177070514 -0.178500001 0.114928893
v -0.0178365127 -0.176913862 0.11494594
v -0.0178365127 -0.178500001 0.11494594
v -0.0179658548 -0.176913862 0.114928893
v -0.0179658548 -0.178500001 0.114928893
v -0.0180864946 -0.176913862 0.114878944
v -0.0180864946 -0.178500001 0.114878944
v -0.0181899682 -0.176913862 0.114799431
v -0.0181899682 -0.178500001 0.114799431
v -0.0182694808 -0.176913862 0.114695839
v -0.0182694808 -0.178500001 0.114695839
v -0.0183194295 -0.176913862 0.114575318
v -0.0183194295 -0.178500001 0.114575318
v -0.0183364764 -0.176913862 0.114445857
v -0.0183364764 -0.178500001 0.114445857
v -0.0173364297 -0.176913862 0.110945753
v -0.0173364297 -0.178500001 0.110945753
v -0.0173534766 -0.176913862 0.111075214
v -0.0173534766 -0.178500001 0.111075214
v -0.0174034253 -0.176913862 0.111195735
v -0.0174034253 -0.178500001 0.111195735
v -0.0174829379 -0.176913862 0.111299327
v -0.0174829379 -0.178500001 0.111299327
v -0.0175865308 -0.176913862 0.11137884
v -0.0175865308 -0.178500001 0.11137884
v -0.0177070514 -0.176913862 0.111428789
v -0.0177070514 -0.178500001 0.111428789
v -0.0178365127 -0.176913862 0.111445716
v -0.0178365127 -0.178500001 0.111445716
v -0.0179658548 -0.176913862 0.111428789
v -0.0179658548 -0.178500001 0.111428789
v -0.0180864946 -0.176913862 0.11137884
v -0.0180864946 -0.178500001 0.11137884
v -0.0181899682 -0.176913862 0.111299327
v -0.0181899682 -0.178500001 0.111299327
v -0.0182694808 -0.176913862 0.111195735
v -0.0182694808 -0.178500001 0.111195735
v -0.0183194295 -0.176913862 0.111075214
v -0.0183194295 -0.178500001 0.111075214
v -0.0183364764 -0.176913862 0.110945753
v -0.0183364764 -0.178500001 0.110945753
v -0.0191317216 -0.176913862 0.12780886
v -0.0191317216 -0.178500001 0.12780886
v -0.0191487685 -0.176913862 0.127938322
v -0.0191487685 -0.178500001 0.127938322
v -0.0191987172 -0.176913862 0.128058842
v -0.0191987172 -0.178500001 0.128058842
v -0.0192782298 -0.176913862 0.128162435
v -0.0192782298 -0.178500001 0.128162435
v -0.0193817035 -0.176913862 0.128241829
v -0.0193817035 -0.178500001 0.128241829
v -0.0195023433 -0.176913862 0.128291777
v -0.0195023433 -0.178500001 0.128291777
v -0.0196318046 -0.176913862 0.128308824
v -0.0196318046 -0.178500001 0.128308824
v -0.0197611467 -0.176913862 0.128291777
v -0.0197611467 -0.178500001 0.128291777
v -0.0198817865 -0.176913862 0.128241829
v -0.0198817865 -0.178500001 0.128241829
v -0.0199852601 -0.176913862 0.128162435
v -0.0199852601 -0.178500001 0.128162435
v -0.0200647727 -0.176913862 0.128058842
v -0.0200647727 -0.178500001 0.128058842
v -0.0201147214 -0.176913862 0.127938322
v -0.0201147214 -0.178500001 0.127938322
v -0.0201317683 -0.176913862 0.12780886
v -0.0201317683 -0.178500001 0.12780886
v -0.026037635 -0.176913862 0.116499713
v -0.026037635 -0.178500001 0.116499713
v -0.0260809079 -0.176913862 0.116828373
v -0.0260809079 -0.178500001 0.116828373
v -0.0262077466 -0.176913862 0.117134741
v -0.0262077466 -0.178500001 0.117134741
v -0.0264095679 -0.176913862 0.117397717
v -0.0264095679 -0.178500001 0.117397717
v -0.0266726628 -0.176913862 0.117599538
v -0.0266726628 -0.178500001 0.117599538
v -0.0269789115 -0.176913862 0.117726496
v -0.0269789115 -0.178500001 0.117726496
v -0.0273076907 -0.176913862 0.117769769
v -0.0273076907 -0.178500001 0.117769769
v -0.0276363507 -0.176913862 0.117726496
v -0.0276363507 -0.178500001 0.117726496
v -0.0279425994 -0.176913862 0.117599538
v -0.0279425994 -0.178500001 0.117599538
v -0.0282056943 -0.176913862 0.117397717
v -0.0282056943 -0.178500001 0.117397717
v -0.0284075156 -0.176913862 0.117134741
v -0.0284075156 -0.178500001 0.117134741
v -0.0285343543 -0.176913862 0.116828373
v -0.0285343543 -0.178500001 0.116828373
v -0.0285776273 -0.176913862 0.116499713
v -0.0285776273 -0.178500001 0.116499713
v -0.026037635 -0.176913862 0.121499709
v -0.026037635 -0.178500001 0.121499709
v -0.0260809079 -0.176913862 0.121828369
v -0.0260809079 -0.178500001 0.121828369
v -0.0262077466 -0.176913862 0.122134737
v -0.0262077466 -0.178500001 0.122134737
v -0.0264095679 -0.176913862 0.122397712
v -0.0264095679 -0.178500001 0.122397712
v -0.0266726628 -0.176913862 0.122599534
v -0.0266726628 -0.178500001 0.122599534
v -0.0269789115 -0.176913862 0.122726492
v -0.0269789115 -0.178500001 0.122726492
v -0.0273076907 -0.176913862 0.122769764
v -0.0273076907 -0.178500001 0.122769764
v -0.0276363507 -0.176913862 0.122726492
v -0.0276363507 -0.178500001 0.122726492
v -0.0279425994 -0.176913862 0.122599534
v -0.0279425994 -0.178500001 0.122599534
v -0.0282056943 -0.176913862 0.122397712
v -0.0282056943 -0.178500001 0.122397712
v -0.0284075156 -0.176913862 0.122134737
v -0.0284075156 -0.178500001 0.122134737
v -0.0285343543 -0.176913862 0.121828369
v -0.0285343543 -0.178500001 0.121828369
v -0.0285776273 -0.176913862 0.121499709
v -0.0285776273 -0.178500001 0.121499709
v -0.0291001216 -0.176913862 0.153499893
v -0.0291001216 -0.178500001 0.153499893
v -0.029045643 -0.176913862 0.15308576
v -0.029045643 -0.178500001 0.15308576
v -0.0288857833 -0.176913862 0.152699879
v -0.0288857833 -0.178500001 0.152699879
v -0.0286315099 -0.176913862 0.152368597
v -0.0286315099 -0.178500001 0.152368597
v -0.0283001081 -0.176913862 0.152114323
v -0.0283001081 -0.178500001 0.152114323
v -0.0279142276 -0.176913862 0.151954464
v -0.0279142276 -0.178500001 0.151954464
v -0.0275000945 -0.176913862 0.151899866
v -0.0275000945 -0.178500001 0.151899866
v -0.0270859615 -0.176913862 0.151954464
v -0.0270859615 -0.178500001 0.151954464
v -0.026700081 -0.176913862 0.152114323
v -0.026700081 -0.178500001 0.152114323
v -0.0263686792 -0.176913862 0.152368597
v -0.0263686792 -0.178500001 0.152368597
v -0.026114525 -0.176913862 0.152699879
v -0.026114525 -0.178500001 0.152699879
v -0.0259688512 -0.176913862 0.153051427
v -0.0259688512 -0.178500001 0.153051427
v -0.0259546653 -0.176913862 0.15308576
v -0.0259546653 -0.178500001 0.15308576
v -0.0259000674 -0.176913862 0.153499893
v -0.0259000674 -0.178500001 0.153499893
v -0.0275000945 -0.176913862 0.108012489
v -0.0275000945 -0.178500001 0.108012489
v -0.0281438247 -0.178500001 0.108097247
v -0.0281438247 -0.176913862 0.108097247
v -0.028743805 -0.178500001 0.108345798
v -0.028743805 -0.176913862 0.108345798
v -0.0292589084 -0.178500001 0.108741096
v -0.0292589084 -0.176913862 0.108741096
v -0.0296542064 -0.178500001 0.109256199
v -0.0296542064 -0.176913862 0.109256199
v -0.0298267022 -0.176913862 0.109672836
v -0.0298267022 -0.178500001 0.109672836
v -0.0299026385 -0.176913862 0.109856061
v -0.0299026385 -0.178500001 0.109856061
v -0.0299873964 -0.178500001 0.110499791
v -0.0299873964 -0.176913862 0.110499791
v -0.0299873964 -0.176913862 0.153499893
v -0.0299873964 -0.178500001 0.153499893
v -0.0299026385 -0.178500001 0.154143623
v -0.0299026385 -0.176913862 0.154143623
v -0.0296542064 -0.178500001 0.154743603
v -0.0296542064 -0.176913862 0.154743603
v -0.0292589084 -0.178500001 0.155258707
v -0.0292589084 -0.176913862 0.155258707
v -0.028743805 -0.178500001 0.155654005
v -0.028743805 -0.176913862 0.155654005
v -0.0281438247 -0.178500001 0.155902437
v -0.0281438247 -0.176913862 0.155902437
v -0.0275000945 -0.178500001 0.155987195
v -0.0275000945 -0.176913862 0.155987195
v -0.0272700206 -0.238270109 0.071899942
v -0.0272700206 -0.238270109 0.0734999691
v -0.0273993627 -0.238287096 0.071899942
v -0.0273993627 -0.238287096 0.0734999691
v -0.0275200025 -0.238337045 0.071899942
v -0.0275200025 -0.238337045 0.0734999691
v -0.0276235953 -0.238416557 0.071899942
v -0.0276235953 -0.238416557 0.0734999691
v -0.0277029887 -0.238520091 0.071899942
v -0.0277029887 -0.238520091 0.0734999691
v -0.0277529374 -0.238640671 0.071899942
v -0.0277529374 -0.238640671 0.0734999691
v -0.0277699844 -0.238770072 0.071899942
v -0.0277699844 -0.238770072 0.0734999691
v -0.0277529374 -0.238899474 0.071899942
v -0.0277529374 -0.238899474 0.0734999691
v -0.0277029887 -0.239020054 0.071899942
v -0.0277029887 -0.239020054 0.0734999691
v -0.0276235953 -0.239123647 0.071899942
v -0.0276235953 -0.239123647 0.0734999691
v -0.0275200025 -0.2392031 0.071899942
v -0.0275200025 -0.2392031 0.0734999691
v -0.0273993627 -0.239253049 0.071899942
v -0.0273993627 -0.239253049 0.0734999691
v -0.0272700206 -0.239270096 0.071899942
v -0.0272700206 -0.239270096 0.0734999691
v 0.0035000428 -0.237750058 0.071899942
v 0.0035000428 -0.237750058 0.0734999691
v 0.00337070072 -0.237767105 0.071899942
v 0.00337070072 -0.237767105 0.0734999691
v 0.00325006092 -0.237817054 0.071899942
v 0.00325006092 -0.237817054 0.0734999691
v 0.00314646805 -0.237896507 0.071899942
v 0.00314646805 -0.237896507 0.0734999691
v 0.00306707466 -0.2380001 0.071899942
v 0.00306707466 -0.2380001 0.0734999691
v 0.00301712597 -0.23812068 0.071899942
v 0.00301712597 -0.23812068 0.0734999691
v 0.00300007904 -0.238250082 0.071899942
v 0.00300007904 -0.238250082 0.0734999691
v 0.00301712597 -0.238379483 0.071899942
v 0.00301712597 -0.238379483 0.0734999691
v 0.00306707466 -0.238500063 0.071899942
v 0.00306707466 -0.238500063 0.0734999691
v 0.00314646805 -0.238603656 0.071899942
v 0.00314646805 -0.238603656 0.0734999691
v 0.00325006092 -0.238683109 0.071899942
v 0.00325006092 -0.238683109 0.0734999691
v 0.00337070072 -0.238733058 0.071899942
v 0.00337070072 -0.238733058 0.0734999691
v 0.0035000428 -0.238750105 0.071899942
v 0.0035000428 -0.238750105 0.0734999691
v -0.0330000535 -0.239100103 0.071899942
v -0.0330000535 -0.239100103 0.0734999691
v -0.0325859204 -0.239045565 0.071899942
v -0.0325859204 -0.239045565 0.0734999691
v -0.03220004 -0.238885705 0.071899942
v -0.03220004 -0.238885705 0.0734999691
v -0.0318686382 -0.238631432 0.071899942
v -0.0318686382 -0.238631432 0.0734999691
v -0.0316143647 -0.23830009 0.071899942
v -0.0316143647 -0.23830009 0.0734999691
v -0.0314545051 -0.237914209 0.071899942
v -0.0314545051 -0.237914209 0.0734999691
v -0.0314000264 -0.237500076 0.071899942
v -0.0314000264 -0.237500076 0.0734999691
v -0.0314342395 -0.237240081 0.071899942
v -0.0314342395 -0.237240081 0.0734999691
v -0.0314545051 -0.237085943 0.071899942
v -0.0314545051 -0.237085943 0.0734999691
v -0.0316143647 -0.236700063 0.071899942
v -0.0316143647 -0.236700063 0.0734999691
v -0.0318686382 -0.236368721 0.071899942
v -0.0318686382 -0.236368721 0.0734999691
v -0.03220004 -0.236114447 0.071899942
v -0.03220004 -0.236114447 0.0734999691
v -0.0325859204 -0.235954587 0.071899942
v -0.0325859204 -0.235954587 0.0734999691
v -0.0330000535 -0.235900049 0.071899942
v -0.0330000535 -0.235900049 0.0734999691
v -0.0279670373 -0.226373081 0.071899942
v -0.0279670373 -0.226373081 0.0734999691
v -0.0277728454 -0.226347511 0.071899942
v -0.0277728454 -0.226347511 0.0734999691
v -0.0275920049 -0.226272588 0.071899942
v -0.0275920049 -0.226272588 0.0734999691
v -0.0274366752 -0.226153378 0.071899942
v -0.0274366752 -0.226153378 0.0734999691
v -0.0273738519 -0.226071541 0.071899942
v -0.0273738519 -0.226071541 0.0734999691
v -0.0273174659 -0.225998049 0.071899942
v -0.0273174659 -0.225998049 0.0734999691
v -0.0272426025 -0.225817149 0.071899942
v -0.0272426025 -0.225817149 0.0734999691
v -0.0272169725 -0.225623076 0.071899942
v -0.0272169725 -0.225623076 0.0734999691
v -0.0272426025 -0.225428944 0.071899942
v -0.0272426025 -0.225428944 0.0734999691
v -0.0273174659 -0.225248044 0.071899942
v -0.0273174659 -0.225248044 0.0734999691
v -0.0274366752 -0.225092714 0.071899942
v -0.0274366752 -0.225092714 0.0734999691
v -0.0275920049 -0.224973564 0.071899942
v -0.0275920049 -0.224973564 0.0734999691
v -0.0277728454 -0.224898581 0.071899942
v -0.0277728454 -0.224898581 0.0734999691
v -0.0279670373 -0.224873071 0.071899942
v -0.0279670373 -0.224873071 0.0734999691
v 0.0127300605 -0.224770074 0.071899942
v 0.0127300605 -0.224770074 0.0734999691
v 0.0126007184 -0.224787121 0.071899942
v 0.0126007184 -0.224787121 0.0734999691
v 0.0124800786 -0.224837069 0.071899942
v 0.0124800786 -0.224837069 0.0734999691
v 0.0123764857 -0.224916522 0.071899942
v 0.0123764857 -0.224916522 0.0734999691
v 0.0122970923 -0.225020056 0.071899942
v 0.0122970923 -0.225020056 0.0734999691
v 0.0122471436 -0.225140636 0.071899942
v 0.0122471436 -0.225140636 0.0734999691
v 0.0122300967 -0.225270038 0.071899942
v 0.0122300967 -0.225270038 0.0734999691
v 0.0122471436 -0.225399439 0.071899942
v 0.0122471436 -0.225399439 0.0734999691
v 0.0122970923 -0.225520079 0.071899942
v 0.0122970923 -0.225520079 0.0734999691
v 0.0123764857 -0.225623612 0.071899942
v 0.0123764857 -0.225623612 0.0734999691
v 0.0124800786 -0.225703065 0.071899942
v 0.0124800786 -0.225703065 0.0734999691
v 0.0126007184 -0.225753014 0.071899942
v 0.0126007184 -0.225753014 0.0734999691
v 0.0127300605 -0.225770061 0.071899942
v 0.0127300605 -0.225770061 0.0734999691
v -0.0198169366 -0.226973002 0.071899942
v -0.0198169366 -0.226973002 0.0734999691
v -0.0197914258 -0.227167134 0.071899942
v -0.0197914258 -0.227167134 0.0734999691
v -0.0197165624 -0.227348034 0.071899942
v -0.0197165624 -0.227348034 0.0734999691
v -0.0195973531 -0.227503364 0.071899942
v -0.0195973531 -0.227503364 0.0734999691
v -0.0194420234 -0.227622573 0.071899942
v -0.0194420234 -0.227622573 0.0734999691
v -0.0192610637 -0.227697496 0.071899942
v -0.0192610637 -0.227697496 0.0734999691
v -0.019066991 -0.227723007 0.071899942
v -0.019066991 -0.227723007 0.0734999691
v -0.0188729182 -0.227697496 0.071899942
v -0.0188729182 -0.227697496 0.0734999691
v -0.0186919585 -0.227622573 0.071899942
v -0.0186919585 -0.227622573 0.0734999691
v -0.0185366288 -0.227503364 0.071899942
v -0.0185366288 -0.227503364 0.0734999691
v -0.0184174195 -0.227348034 0.071899942
v -0.0184174195 -0.227348034 0.0734999691
v -0.0183425561 -0.227167134 0.071899942
v -0.0183425561 -0.227167134 0.0734999691
v -0.0183170453 -0.226973002 0.071899942
v -0.0183170453 -0.226973002 0.0734999691
v 0.012000142 -0.199750011 0.071899942
v 0.012000142 -0.199750011 0.0734999691
v 0.0118706807 -0.199767058 0.071899942
v 0.0118706807 -0.199767058 0.0734999691
v 0.0117500409 -0.199817007 0.071899942
v 0.0117500409 -0.199817007 0.0734999691
v 0.0116465672 -0.19989646 0.071899942
v 0.0116465672 -0.19989646 0.0734999691
v 0.0115670546 -0.199999993 0.071899942
v 0.0115670546 -0.199999993 0.0734999691
v 0.0115171059 -0.200120573 0.071899942
v 0.0115171059 -0.200120573 0.0734999691
v 0.011500059 -0.200250034 0.071899942
v 0.011500059 -0.200250034 0.0734999691
v 0.0115171059 -0.200379436 0.071899942
v 0.0115171059 -0.200379436 0.0734999691
v 0.0115670546 -0.200500016 0.071899942
v 0.0115670546 -0.200500016 0.0734999691
v 0.0116465672 -0.200603549 0.071899942
v 0.0116465672 -0.200603549 0.0734999691
v 0.0117500409 -0.200683002 0.071899942
v 0.0117500409 -0.200683002 0.0734999691
v 0.0118706807 -0.200732951 0.071899942
v 0.0118706807 -0.200732951 0.0734999691
v 0.012000142 -0.200749998 0.071899942
v 0.012000142 -0.200749998 0.0734999691
v -0.0247300283 -0.199270015 0.071899942
v -0.0247300283 -0.199270015 0.0734999691
v -0.024600567 -0.199252968 0.071899942
v -0.024600567 -0.199252968 0.0734999691
v -0.0244799272 -0.199203019 0.071899942
v -0.0244799272 -0.199203019 0.0734999691
v -0.0244565622 -0.199185019 0.071899942
v -0.0244565622 -0.199185019 0.0734999691
v -0.0243764535 -0.199123566 0.071899942
v -0.0243764535 -0.199123566 0.0734999691
v -0.0242969409 -0.199019973 0.071899942
v -0.0242969409 -0.199019973 0.0734999691
v -0.0242469922 -0.198899393 0.071899942
v -0.0242469922 -0.198899393 0.0734999691
v -0.0242299453 -0.198769991 0.071899942
v -0.0242299453 -0.198769991 0.0734999691
v -0.0242469922 -0.19864059 0.071899942
v -0.0242469922 -0.19864059 0.0734999691
v -0.0242969409 -0.198520009 0.071899942
v -0.0242969409 -0.198520009 0.0734999691
v -0.0243764535 -0.198416476 0.071899942
v -0.0243764535 -0.198416476 0.0734999691
v -0.0244799272 -0.198336964 0.071899942
v -0.0244799272 -0.198336964 0.0734999691
v -0.024600567 -0.198287015 0.071899942
v -0.024600567 -0.198287015 0.0734999691
v -0.0247300283 -0.198270028 0.071899942
v -0.0247300283 -0.198270028 0.0734999691
v -0.00476998245 -0.198270028 0.071899942
v -0.00476998245 -0.198270028 0.0734999691
v -0.00489932453 -0.198287015 0.071899942
v -0.00489932453 -0.198287015 0.0734999691
v -0.00501996433 -0.198336964 0.071899942
v -0.00501996433 -0.198336964 0.0734999691
v -0.00512343799 -0.198416476 0.071899942
v -0.00512343799 -0.198416476 0.0734999691
v -0.00520295059 -0.198520009 0.071899942
v -0.00520295059 -0.198520009 0.0734999691
v -0.00525289928 -0.19864059 0.071899942
v -0.00525289928 -0.19864059 0.0734999691
v -0.00526994621 -0.198769991 0.071899942
v -0.00526994621 -0.198769991 0.0734999691
v -0.00525289928 -0.198899393 0.071899942
v -0.00525289928 -0.198899393 0.0734999691
v -0.00520295059 -0.199019973 0.071899942
v -0.00520295059 -0.199019973 0.0734999691
v -0.00512343799 -0.199123566 0.071899942
v -0.00512343799 -0.199123566 0.0734999691
v -0.00504344856 -0.199185019 0.071899942
v -0.00504344856 -0.199185019 0.0734999691
v -0.00501996433 -0.199203019 0.071899942
v -0.00501996433 -0.199203019 0.0734999691
v -0.00489932453 -0.199252968 0.071899942
v -0.00489932453 -0.199252968 0.0734999691
v -0.00476998245 -0.199270015 0.071899942
v -0.00476998245 -0.199270015 0.0734999691
v -0.0344999448 -0.19451267 0.071899942
v -0.0344999448 -0.19451267 0.0734999691
v -0.0300584451 -0.19451267 0.071899942
v -0.0300584451 -0.19451267 0.0734999691
v -0.0282434837 -0.19451267 0.071899942
v -0.0282434837 -0.19451267 0.0734999691
v -0.0259999648 -0.19451267 0.071899942
v -0.0259999648 -0.19451267 0.0734999691
v -0.0172669307 -0.19451267 0.071899942
v -0.0172669307 -0.19451267 0.0734999691
v -0.0099934951 -0.19451267 0.071899942
v -0.0099934951 -0.19451267 0.0734999691
v -0.00349992668 -0.19451267 0.071899942
v -0.00349992668 -0.19451267 0.0734999691
v 0.00775009239 -0.19451267 0.071899942
v 0.00775009239 -0.19451267 0.0734999691
v 0.0128651246 -0.19451267 0.071899942
v 0.0128651246 -0.19451267 0.0734999691
v 0.0140001162 -0.19451267 0.071899942
v 0.0140001162 -0.19451267 0.0734999691
v 0.0207300767 -0.19451267 0.071899942
v 0.0207300767 -0.19451267 0.0734999691
v 0.0235101565 -0.19451267 0.071899942
v 0.0235101565 -0.19451267 0.0734999691
v 0.0257300719 -0.19451267 0.071899942
v 0.0257300719 -0.19451267 0.0734999691
v 0.0282700642 -0.19451267 0.071899942
v 0.0282700642 -0.19451267 0.0734999691
v 0.0345001801 -0.19451267 0.071899942
v 0.0345001801 -0.19451267 0.0734999691
v -0.031500043 -0.234512751 0.071899942
v -0.031500043 -0.234512751 0.0734999691
v -0.0311084405 -0.234461253 0.071899942
v -0.0311084405 -0.234461253 0.0734999691
v -0.0307436601 -0.234310095 0.071899942
v -0.0307436601 -0.234310095 0.0734999691
v -0.0304303781 -0.23406971 0.071899942
v -0.0304303781 -0.23406971 0.0734999691
v -0.0301899329 -0.233756428 0.071899942
v -0.0301899329 -0.233756428 0.0734999691
v -0.0300878898 -0.233510082 0.071899942
v -0.0300878898 -0.233510082 0.0734999691
v -0.0300584451 -0.233439033 0.071899942
v -0.0300584451 -0.233439033 0.0734999691
v -0.0300388948 -0.233391588 0.071899942
v -0.0300388948 -0.233391588 0.0734999691
v -0.0299872771 -0.233000045 0.071899942
v -0.0299872771 -0.233000045 0.0734999691
v -0.0299872771 -0.202000027 0.071899942
v -0.0299872771 -0.202000027 0.0734999691
v -0.0300388948 -0.201608484 0.071899942
v -0.0300388948 -0.201608484 0.0734999691
v -0.0300584451 -0.201561038 0.071899942
v -0.0300584451 -0.201561038 0.0734999691
v -0.0300878898 -0.20148999 0.071899942
v -0.0300878898 -0.20148999 0.0734999691
v -0.0301899329 -0.201243644 0.071899942
v -0.0301899329 -0.201243644 0.0734999691
v -0.0304303781 -0.200930362 0.071899942
v -0.0304303781 -0.200930362 0.0734999691
v -0.0307436601 -0.200689976 0.071899942
v -0.0307436601 -0.200689976 0.0734999691
v -0.0311084405 -0.200538878 0.071899942
v -0.0311084405 -0.200538878 0.0734999691
v -0.031500043 -0.20048732 0.071899942
v -0.031500043 -0.20048732 0.0734999691
v 0.0263115748 -0.199899976 0.0704573904
v 0.0260677918 -0.199899976 0.0697105442
v 0.0261761531 -0.199899976 0.0695999179
v 0.0259594306 -0.199899976 0.0695999179
v 0.0258240088 -0.199899976 0.0704573904
v 0.0255261048 -0.199899976 0.0708998953
v 0.0266094788 -0.199899976 0.0708998953
v 0.0264469966 -0.199899976 0.0708998953
v 0.0263386353 -0.199899976 0.0705680166
v 0.0256885871 -0.199899976 0.0708998953
v 0.0257969483 -0.199899976 0.0705680166
v 0.0249500855 -0.197099988 0.0684998546
v 0.0249500855 -0.197099988 0.0625998293
v 0.0240488633 -0.197099988 0.0684998546
v 0.0240488633 -0.197099988 0.0625998293
v 0.0240488633 -0.197900002 0.0684998546
v 0.0240488633 -0.197900002 0.0625998293
v 0.0249500855 -0.197900002 0.0684998546
v 0.0249500855 -0.197900002 0.0625998293
v 0.0262761697 -0.195100014 0.0701162134
v 0.0262761697 -0.195199971 0.0701162134
v 0.026292859 -0.195100014 0.0700651918
v 0.026292859 -0.195199971 0.0700651918
v -0.00494998848 -0.236780112 0.0590737377
v -0.00494998848 -0.236780112 0.0606599365
v -0.00480753338 -0.236761336 0.0590737377
v -0.00480753338 -0.236761336 0.0606599365
v -0.00467497265 -0.236706381 0.0590737377
v -0.00467497265 -0.236706381 0.0606599365
v -0.00456100856 -0.236619 0.0590737377
v -0.00456100856 -0.236619 0.0606599365
v -0.00447362816 -0.236505096 0.0590737377
v -0.00447362816 -0.236505096 0.0606599365
v -0.00441867267 -0.236372416 0.0590737377
v -0.00441867267 -0.236372416 0.0606599365
v -0.00439995681 -0.23623008 0.0590737377
v -0.00439995681 -0.23623008 0.0606599365
v -0.00441867267 -0.236087744 0.0590737377
v -0.00441867267 -0.236087744 0.0606599365
v -0.00447362816 -0.235955064 0.0590737377
v -0.00447362816 -0.235955064 0.0606599365
v -0.00456100856 -0.23584116 0.0590737377
v -0.00456100856 -0.23584116 0.0606599365
v -0.00467497265 -0.235753779 0.0590737377
v -0.00467497265 -0.235753779 0.0606599365
v -0.00480753338 -0.235698824 0.0590737377
v -0.00480753338 -0.235698824 0.0606599365
v -0.00494998848 -0.235680048 0.0590737377
v -0.00494998848 -0.235680048 0.0606599365
v -0.0274500266 -0.235680048 0.0590737377
v -0.0274500266 -0.235680048 0.0606599365
v -0.0275923625 -0.235698824 0.0590737377
v -0.0275923625 -0.235698824 0.0606599365
v -0.0277250425 -0.235753779 0.0590737377
v -0.0277250425 -0.235753779 0.0606599365
v -0.0278388873 -0.23584116 0.0590737377
v -0.0278388873 -0.23584116 0.0606599365
v -0.0279262677 -0.235955064 0.0590737377
v -0.0279262677 -0.235955064 0.0606599365
v -0.0279812232 -0.236087744 0.0590737377
v -0.0279812232 -0.236087744 0.0606599365
v -0.0279999391 -0.23623008 0.0590737377
v -0.0279999391 -0.23623008 0.0606599365
v -0.0279812232 -0.236372416 0.0590737377
v -0.0279812232 -0.236372416 0.0606599365
v -0.0279262677 -0.236505096 0.0590737377
v -0.0279262677 -0.236505096 0.0606599365
v -0.0278388873 -0.236619 0.0590737377
v -0.0278388873 -0.236619 0.0606599365
v -0.0277250425 -0.236706381 0.0590737377
v -0.0277250425 -0.236706381 0.0606599365
v -0.0275923625 -0.236761336 0.0590737377
v -0.0275923625 -0.236761336 0.0606599365
v -0.0274500266 -0.236780112 0.0590737377
v -0.0274500266 -0.236780112 0.0606599365
v 0.0150900468 -0.212820058 0.0590737377
v 0.0150900468 -0.212820058 0.0606599365
v 0.0152325019 -0.212801282 0.0590737377
v 0.0152325019 -0.212801282 0.0606599365
v 0.0153650626 -0.212746327 0.0590737377
v 0.0153650626 -0.212746327 0.0606599365
v 0.0154790267 -0.212658946 0.0590737377
v 0.0154790267 -0.212658946 0.0606599365
v 0.0155664071 -0.212545042 0.0590737377
v 0.0155664071 -0.212545042 0.0606599365
v 0.0156213626 -0.212412362 0.0590737377
v 0.0156213626 -0.212412362 0.0606599365
v 0.0156400784 -0.212270026 0.0590737377
v 0.0156400784 -0.212270026 0.0606599365
v 0.0156213626 -0.21212769 0.0590737377
v 0.0156213626 -0.21212769 0.0606599365
v 0.0155664071 -0.21199501 0.0590737377
v 0.0155664071 -0.21199501 0.0606599365
v 0.0154790267 -0.211881106 0.0590737377
v 0.0154790267 -0.211881106 0.0606599365
v 0.0153650626 -0.211793725 0.0590737377
v 0.0153650626 -0.211793725 0.0606599365
v 0.0152325019 -0.21173877 0.0590737377
v 0.0152325019 -0.21173877 0.0606599365
v 0.0150900468 -0.211719995 0.0590737377
v 0.0150900468 -0.211719995 0.0606599365
v 0.0149477109 -0.21173877 0.0590737377
v 0.0149477109 -0.21173877 0.0606599365
v 0.0148151501 -0.211793725 0.0590737377
v 0.0148151501 -0.211793725 0.0606599365
v 0.0147011861 -0.211881106 0.0590737377
v 0.0147011861 -0.211881106 0.0606599365
v 0.0146138057 -0.21199501 0.0590737377
v 0.0146138057 -0.21199501 0.0606599365
v 0.0145588502 -0.21212769 0.0590737377
v 0.0145588502 -0.21212769 0.0606599365
v 0.0145401343 -0.212270026 0.0590737377
v 0.0145401343 -0.212270026 0.0606599365
v 0.0145588502 -0.212412362 0.0590737377
v 0.0145588502 -0.212412362 0.0606599365
v 0.0146138057 -0.212545042 0.0590737377
v 0.0146138057 -0.212545042 0.0606599365
v 0.0147011861 -0.212658946 0.0590737377
v 0.0147011861 -0.212658946 0.0606599365
v 0.0148151501 -0.212746327 0.0590737377
v 0.0148151501 -0.212746327 0.0606599365
v 0.0149477109 -0.212801282 0.0590737377
v 0.0149477109 -0.212801282 0.0606599365
v -0.00494998848 -0.199320023 0.0590737377
v -0.00494998848 -0.199320023 0.0606599365
v -0.00480753338 -0.199301248 0.0590737377
v -0.00480753338 -0.199301248 0.0606599365
v -0.00467497265 -0.199246352 0.0590737377
v -0.00467497265 -0.199246352 0.0606599365
v -0.00456100856 -0.199158912 0.0590737377
v -0.00456100856 -0.199158912 0.0606599365
v -0.00447362816 -0.199045007 0.0590737377
v -0.00447362816 -0.199045007 0.0606599365
v -0.00441867267 -0.198912327 0.0590737377
v -0.00441867267 -0.198912327 0.0606599365
v -0.00439995681 -0.198769991 0.0590737377
v -0.00439995681 -0.198769991 0.0606599365
v -0.00441867267 -0.198627655 0.0590737377
v -0.00441867267 -0.198627655 0.0606599365
v -0.00447362816 -0.198494976 0.0590737377
v -0.00447362816 -0.198494976 0.0606599365
v -0.00456100856 -0.198381071 0.0590737377
v -0.00456100856 -0.198381071 0.0606599365
v -0.00467497265 -0.198293691 0.0590737377
v -0.00467497265 -0.198293691 0.0606599365
v -0.00480753338 -0.198238735 0.0590737377
v -0.00480753338 -0.198238735 0.0606599365
v -0.00494998848 -0.198220019 0.0590737377
v -0.00494998848 -0.198220019 0.0606599365
v -0.0274500266 -0.196780031 0.0590737377
v -0.0274500266 -0.196780031 0.0606599365
v -0.0273075715 -0.196761255 0.0590737377
v -0.0273075715 -0.196761255 0.0606599365
v -0.0271750108 -0.1967063 0.0590737377
v -0.0271750108 -0.1967063 0.0606599365
v -0.0270610467 -0.196618919 0.0590737377
v -0.0270610467 -0.196618919 0.0606599365
v -0.0269736663 -0.196505015 0.0590737377
v -0.0269736663 -0.196505015 0.0606599365
v -0.0269187108 -0.196372335 0.0590737377
v -0.0269187108 -0.196372335 0.0606599365
v -0.026899995 -0.196229999 0.0590737377
v -0.026899995 -0.196229999 0.0606599365
v -0.0269187108 -0.196087663 0.0590737377
v -0.0269187108 -0.196087663 0.0606599365
v -0.0269736663 -0.195954983 0.0590737377
v -0.0269736663 -0.195954983 0.0606599365
v -0.0270610467 -0.195841079 0.0590737377
v -0.0270610467 -0.195841079 0.0606599365
v -0.0271750108 -0.195753698 0.0590737377
v -0.0271750108 -0.195753698 0.0606599365
v -0.0273075715 -0.195698743 0.0590737377
v -0.0273075715 -0.195698743 0.0606599365
v -0.0274500266 -0.195679967 0.0590737377
v -0.0274500266 -0.195679967 0.0606599365
v -0.0286800281 -0.19451267 0.0590737377
v -0.0286800281 -0.19451267 0.0606599365
v -0.0261799709 -0.19451267 0.0590737377
v -0.0261799709 -0.19451267 0.0606599365
v -0.0149299518 -0.19451267 0.0590737377
v -0.0149299518 -0.19451267 0.0606599365
v -0.00367993271 -0.19451267 0.0590737377
v -0.00367993271 -0.19451267 0.0606599365
v 0.00507002915 -0.19451267 0.0590737377
v 0.00507002915 -0.19451267 0.0606599365
v 0.0138201102 -0.19451267 0.0590737377
v 0.0138201102 -0.19451267 0.0606599365
v 0.0163200482 -0.19451267 0.0590737377
v 0.0163200482 -0.19451267 0.0606599365
v 0.0167050942 -0.194563394 0.0606599365
v 0.0167050942 -0.194563394 0.0590737377
v 0.017063795 -0.194711928 0.0606599365
v 0.017063795 -0.194711928 0.0590737377
v 0.0173718318 -0.19494832 0.0606599365
v 0.0173718318 -0.19494832 0.0590737377
v 0.0176081046 -0.195256357 0.0606599365
v 0.0176081046 -0.195256357 0.0590737377
v 0.0177567586 -0.195615058 0.0606599365
v 0.0177567586 -0.195615058 0.0590737377
v 0.0178074225 -0.195999985 0.0606599365
v 0.0178074225 -0.195999985 0.0590737377
v -0.0136799232 -0.232012753 0.0606599365
v -0.0136799232 -0.232012753 0.0590737377
v -0.0149299518 -0.232012753 0.0606599365
v -0.0149299518 -0.232012753 0.0590737377
v -0.0261799709 -0.232012753 0.0606599365
v -0.0261799709 -0.232012753 0.0590737377
v -0.0286800281 -0.232012753 0.0606599365
v -0.0286800281 -0.232012753 0.0590737377
v -0.0134775058 -0.220650201 0.0656353746
v -0.0134775058 -0.220367913 0.0656353746
v -0.0134875194 -0.220650201 0.0656353746
v -0.0134875194 -0.220367913 0.0656353746
v -0.0247164384 -0.207213049 0.0748998438
v -0.0247164384 -0.211023037 0.0748998438
v -0.0239544526 -0.207213049 0.0748998438
v -0.0239544526 -0.211023037 0.0748998438
v -0.000499905698 -0.198484545 0.0684776817
v -0.000509919278 -0.198484545 0.0684776817
v -0.000509919278 -0.198484783 0.0685118948
v -0.000499905698 -0.198484783 0.0685118948
v -0.000509919278 -0.198485022 0.0685461078
v -0.000499905698 -0.198485022 0.0685461078
v -0.00049954807 -0.198443477 0.0685464655
v -0.00050956165 -0.198443358 0.0685464655
v -0.000498713605 -0.198401933 0.0685467039
v -0.000508727185 -0.198401694 0.0685467039
v -0.000435651891 -0.19778568 0.0680813108
v -0.000436009519 -0.197787468 0.0680742775
v -0.000436247937 -0.197789197 0.0680813108
v -0.000435294263 -0.197783833 0.0680884634
v -0.000436009519 -0.197787766 0.0681729828
v -0.000429810635 -0.197754209 0.0681732212
v -0.000432552449 -0.197768991 0.0681309019
v -0.000436605565 -0.197790866 0.0680884634
v -0.000439228169 -0.197806125 0.0681306635
v -0.000441969983 -0.197821443 0.0681727443
v -0.00044578468 -0.19778568 0.0680742775
v -0.000446142308 -0.197787409 0.0680813108
v -0.000436247937 -0.197789137 0.0680813108
v -0.000446380727 -0.197789078 0.0680884634
f 1 2 3
f 3 2 4
f 3 4 5
f 5 4 6
f 5 6 7
f 7 6 8
f 7 8 9
f 9 8 10
f 9 10 11
f 11 10 12
f 11 12 13
f 13 12 14
f 13 14 15
f 15 14 16
f 15 16 17
f 17 16 18
f 17 18 19
f 19 18 20
f 19 20 21
f 21 20 22
f 21 22 23
f 23 22 24
f 23 24 25
f 25 24 26
f 27 28 29
f 29 28 30
f 29 30 31
f 31 30 32
f 31 32 33
f 33 32 34
f 33 34 35
f 35 34 36
f 35 36 37
f 37 36 38
f 37 38 39
f 39 38 40
f 39 40 41
f 41 40 42
f 41 42 43
f 43 42 44
f 43 44 45
f 45 44 46
f 45 46 47
f 47 46 48
f 47 48 49
f 49 48 50
f 49 50 51
f 51 50 52
f 51 52 53
f 53 52 54
f 53 54 55
f 55 54 56
f 55 56 57
f 57 56 58
f 57 58 59
f 59 58 60
f 59 60 61
f 61 60 62
f 61 62 63
f 63 62 64
f 63 64 65
f 65 64 66
f 65 66 67
f 67 66 68
f 67 68 69
f 69 68 70
f 69 70 71
f 71 70 72
f 71 72 73
f 73 72 74
f 73 74 75
f 75 74 76
f 75 76 77
f 77 76 78
f 77 78 27
f 27 78 28
f 79 80 81
f 81 80 82
f 81 82 83
f 83 82 84
f 83 84 85
f 85 84 86
f 85 86 87
f 87 86 88
f 87 88 89
f 89 88 90
f 89 90 91
f 91 90 92
f 91 92 93
f 93 92 94
f 93 94 95
f 95 94 96
f 95 96 97
f 97 96 98
f 97 98 99
f 99 98 100
f 99 100 101
f 101 100 102
f 101 102 103
f 103 102 104
f 105 106 107
f 107 106 108
f 107 108 109
f 109 108 110
f 109 110 111
f 111 110 112
f 111 112 113
f 113 112 114
f 113 114 115
f 115 114 116
f 115 116 117
f 117 116 118
f 117 118 119
f 119 118 120
f 119 120 121
f 121 120 122
f 121 122 123
f 123 122 124
f 123 124 125
f 125 124 126
f 125 126 127
f 127 126 128
f 127 128 129
f 129 128 130
f 131 132 133
f 133 132 134
f 133 134 135
f 135 134 136
f 135 136 137
f 137 136 138
f 137 138 139
f 139 138 140
f 139 140 141
f 141 140 142
f 141 142 143
f 143 142 144
f 143 144 145
f 145 144 146
f 145 146 147
f 147 146 148
f 147 148 149
f 149 148 150
f 149 150 151
f 151 150 152
f 151 152 153
f 153 152 154
f 153 154 155
f 155 154 156
f 157 158 159
f 159 158 160
f 159 160 161
f 161 160 162
f 161 162 163
f 163 162 164
f 163 164 165
f 165 164 166
f 165 166 167
f 167 166 168
f 167 168 169
f 169 168 170
f 169 170 171
f 171 170 172
f 171 172 173
f 173 172 174
f 173 174 175
f 175 174 176
f 175 176 177
f 177 176 178
f 177 178 179
f 179 178 180
f 179 180 181
f 181 180 182
f 183 184 185
f 185 184 186
f 185 186 187
f 187 186 188
f 187 188 189
f 189 188 190
f 189 190 191
f 191 190 192
f 191 192 193
f 193 192 194
f 193 194 195
f 195 194 196
f 195 196 197
f 197 196 198
f 197 198 199
f 199 198 200
f 199 200 201
f 201 200 202
f 201 202 203
f 203 202 204
f 203 204 205
f 205 204 206
f 205 206 207
f 207 206 208
f 209 210 211
f 211 210 212
f 211 212 213
f 213 212 214
f 213 214 215
f 215 214 216
f 215 216 217
f 217 216 218
f 217 218 219
f 219 218 220
f 219 220 221
f 221 220 222
f 221 222 223
f 223 222 224
f 223 224 225
f 225 224 226
f 225 226 227
f 227 226 228
f 227 228 229
f 229 228 230
f 229 230 231
f 231 230 232
f 231 232 233
f 233 232 234
f 235 236 237
f 237 236 238
f 237 238 239
f 239 238 240
f 239 240 241
f 241 240 242
f 241 242 243
f 243 242 244
f 243 244 245
f 245 244 246
f 245 246 247
f 247 246 248
f 247 248 249
f 249 248 250
f 249 250 251
f 251 250 252
f 251 252 253
f 253 252 254
f 253 254 255
f 255 254 256
f 255 256 257
f 257 256 258
f 257 258 259
f 259 258 260
f 259 260 261
f 261 260 262
f 263 264 265
f 263 265 266
f 266 265 267
f 266 267 268
f 268 267 269
f 268 269 270
f 270 269 271
f 270 271 272
f 272 271 273
f 273 271 274
f 273 274 275
f 274 276 275
f 275 276 277
f 275 277 278
f 279 280 281
f 279 281 282
f 282 281 283
f 282 283 284
f 284 283 285
f 284 285 286
f 286 285 287
f 286 287 288
f 288 287 289
f 288 289 290
f 290 289 291
f 290 291 292
f 293 294 295
f 295 294 296
f 295 296 297
f 297 296 298
f 297 298 299
f 299 298 300
f 299 300 301
f 301 300 302
f 301 302 303
f 303 302 304
f 303 304 305
f 305 304 306
f 305 306 307
f 307 306 308
f 307 308 309
f 309 308 310
f 309 310 311
f 311 310 312
f 311 312 313
f 313 312 314
f 313 314 315
f 315 314 316
f 315 316 317
f 317 316 318
f 319 320 321
f 321 320 322
f 321 322 323
f 323 322 324
f 323 324 325
f 325 324 326
f 325 326 327
f 327 326 328
f 327 328 329
f 329 328 330
f 329 330 331
f 331 330 332
f 331 332 333
f 333 332 334
f 333 334 335
f 335 334 336
f 335 336 337
f 337 336 338
f 337 338 339
f 339 338 340
f 339 340 341
f 341 340 342
f 341 342 343
f 343 342 344
f 345 346 347
f 347 346 348
f 347 348 349
f 349 348 350
f 349 350 351
f 351 350 352
f 351 352 353
f 353 352 354
f 353 354 355
f 355 354 356
f 355 356 357
f 357 356 358
f 357 358 359
f 359 358 360
f 359 360 361
f 361 360 362
f 361 362 363
f 363 362 364
f 363 364 365
f 365 364 366
f 365 366 367
f 367 366 368
f 367 368 369
f 369 368 370
f 369 370 371
f 371 370 372
f 373 374 375
f 375 374 376
f 375 376 377
f 377 376 378
f 377 378 379
f 379 378 380
f 379 380 381
f 381 380 382
f 381 382 383
f 383 382 384
f 383 384 385
f 385 384 386
f 385 386 387
f 387 386 388
f 387 388 389
f 389 388 390
f 389 390 391
f 391 390 392
f 391 392 393
f 393 392 394
f 393 394 395
f 395 394 396
f 395 396 397
f 397 396 398
f 397 398 399
f 399 398 400
f 401 402 403
f 403 402 404
f 403 404 405
f 405 404 406
f 405 406 407
f 407 406 408
f 407 408 409
f 409 408 410
f 409 410 411
f 411 410 412
f 411 412 413
f 413 412 414
f 413 414 415
f 415 414 416
f 415 416 417
f 417 416 418
f 417 418 419
f 419 418 420
f 419 420 421
f 421 420 422
f 421 422 423
f 423 422 424
f 423 424 425
f 425 424 426
f 427 428 429
f 429 428 430
f 429 430 431
f 431 430 432
f 431 432 433
f 433 432 434
f 433 434 435
f 435 434 436
f 435 436 437
f 437 436 438
f 437 438 439
f 439 438 440
f 439 440 441
f 441 440 442
f 441 442 443
f 443 442 444
f 443 444 445
f 445 444 446
f 445 446 447
f 447 446 448
f 447 448 449
f 449 448 450
f 449 450 451
f 451 450 452
f 453 454 455
f 455 454 456
f 455 456 457
f 457 456 458
f 457 458 459
f 459 458 460
f 459 460 461
f 461 460 462
f 461 462 463
f 463 462 464
f 463 464 465
f 465 464 466
f 465 466 467
f 467 466 468
f 467 468 469
f 469 468 470
f 469 470 471
f 471 470 472
f 471 472 473
f 473 472 474
f 473 474 475
f 475 474 476
f 475 476 477
f 477 476 478
f 479 480 481
f 481 480 482
f 481 482 483
f 483 482 484
f 483 484 485
f 485 484 486
f 485 486 487
f 487 486 488
f 487 488 489
f 489 488 490
f 489 490 491
f 491 490 492
f 491 492 493
f 493 492 494
f 493 494 495
f 495 494 496
f 495 496 497
f 497 496 498
f 497 498 499
f 499 498 500
f 499 500 501
f 501 500 502
f 501 502 503
f 503 502 504
f 503 504 505
f 505 504 506
f 507 508 509
f 509 508 510
f 509 510 511
f 511 510 512
f 511 512 513
f 513 512 514
f 513 514 515
f 515 514 516
f 515 516 517
f 517 516 518
f 517 518 519
f 519 518 520
f 519 520 521
f 521 520 522
f 521 522 523
f 523 522 524
f 523 524 525
f 525 524 526
f 525 526 527
f 527 526 528
f 527 528 529
f 529 528 530
f 529 530 531
f 531 530 532
f 531 532 533
f 533 532 534
f 535 536 537
f 537 536 538
f 537 538 539
f 539 538 540
f 539 540 541
f 541 540 542
f 541 542 543
f 543 542 544
f 543 544 545
f 545 544 546
f 545 546 547
f 547 546 548
f 547 548 549
f 549 548 550
f 549 550 551
f 551 550 552
f 551 552 553
f 553 552 554
f 553 554 555
f 555 554 556
f 555 556 557
f 557 556 558
f 557 558 559
f 559 558 560
f 559 560 561
f 561 560 562
f 561 562 563
f 563 562 564
f 565 566 567
f 567 566 568
f 567 568 569
f 569 568 570
f 569 570 571
f 571 570 572
f 571 572 573
f 573 572 574
f 573 574 575
f 575 574 576
f 575 576 577
f 577 576 578
f 577 578 579
f 579 578 580
f 579 580 581
f 581 580 582
f 583 584 585
f 585 584 586
f 585 586 587
f 587 586 588
f 587 588 589
f 589 588 590
f 589 590 591
f 591 590 592
f 591 592 593
f 593 592 594
f 593 594 595
f 595 594 596
f 595 596 597
f 597 596 598
f 597 598 599
f 599 598 600
f 601 602 603
f 603 602 604
f 604 602 605
f 604 605 606
f 607 608 609
f 610 606 611
f 611 606 605
f 611 605 609
f 609 605 601
f 609 601 607
f 607 601 603
f 612 613 614
f 614 613 615
f 616 617 618
f 618 617 619
f 620 621 622
f 622 621 623
f 624 625 626
f 626 625 627
f 626 627 628
f 628 627 629
f 628 629 630
f 630 629 631
f 630 631 632
f 632 631 633
f 632 633 634
f 634 633 635
f 634 635 636
f 636 635 637
f 636 637 638
f 638 637 639
f 638 639 640
f 640 639 641
f 640 641 642
f 642 641 643
f 642 643 644
f 644 643 645
f 644 645 646
f 646 645 647
f 646 647 648
f 648 647 649
f 650 651 652
f 652 651 653
f 652 653 654
f 654 653 655
f 654 655 656
f 656 655 657
f 656 657 658
f 658 657 659
f 658 659 660
f 660 659 661
f 660 661 662
f 662 661 663
f 662 663 664
f 664 663 665
f 664 665 666
f 666 665 667
f 666 667 668
f 668 667 669
f 668 669 670
f 670 669 671
f 670 671 672
f 672 671 673
f 672 673 674
f 674 673 675
f 676 677 678
f 678 677 679
f 678 679 680
f 680 679 681
f 680 681 682
f 682 681 683
f 682 683 684
f 684 683 685
f 684 685 686
f 686 685 687
f 686 687 688
f 688 687 689
f 688 689 690
f 690 689 691
f 690 691 692
f 692 691 693
f 692 693 694
f 694 693 695
f 694 695 696
f 696 695 697
f 696 697 698
f 698 697 699
f 698 699 700
f 700 699 701
f 700 701 702
f 702 701 703
f 702 703 704
f 704 703 705
f 704 705 706
f 706 705 707
f 706 707 708
f 708 707 709
f 708 709 710
f 710 709 711
f 710 711 712
f 712 711 713
f 712 713 714
f 714 713 715
f 714 715 716
f 716 715 717
f 716 717 718
f 718 717 719
f 718 719 720
f 720 719 721
f 720 721 722
f 722 721 723
f 722 723 676
f 676 723 677
f 724 725 726
f 726 725 727
f 726 727 728
f 728 727 729
f 728 729 730
f 730 729 731
f 730 731 732
f 732 731 733
f 732 733 734
f 734 733 735
f 734 735 736
f 736 735 737
f 736 737 738
f 738 737 739
f 738 739 740
f 740 739 741
f 740 741 742
f 742 741 743
f 742 743 744
f 744 743 745
f 744 745 746
f 746 745 747
f 746 747 748
f 748 747 749
f 750 751 752
f 752 751 753
f 752 753 754
f 754 753 755
f 754 755 756
f 756 755 757
f 756 757 758
f 758 757 759
f 758 759 760
f 760 759 761
f 760 761 762
f 762 761 763
f 762 763 764
f 764 763 765
f 764 765 766
f 766 765 767
f 766 767 768
f 768 767 769
f 768 769 770
f 770 769 771
f 770 771 772
f 772 771 773
f 772 773 774
f 774 773 775
f 776 777 778
f 778 777 779
f 778 779 780
f 780 779 781
f 780 781 782
f 782 781 783
f 782 783 784
f 784 783 785
f 784 785 786
f 786 785 787
f 786 787 788
f 788 787 789
f 788 789 790
f 788 790 791
f 791 790 792
f 791 792 793
f 793 792 794
f 793 794 795
f 795 794 796
f 795 796 797
f 797 796 798
f 797 798 799
f 799 798 800
f 799 800 801
f 802 803 804
f 804 803 805
f 804 805 806
f 806 805 807
f 806 807 808
f 808 807 809
f 810 811 812
f 812 811 813
f 814 815 816
f 816 815 817
f 818 819 820
f 818 820 821
f 821 820 822
f 821 822 823
f 823 822 824
f 824 822 825
f 824 825 826
f 826 825 827
f 828 829 830
f 828 830 831
f 832 833 834
f 830 835 831
f 831 835 836
f 831 836 834
f 834 836 837
f 834 837 832
f 829 838 839
f 829 839 840
f 840 839 841
f 840 841 835
