v -0.0653999463 0.242422755 0.126882247
v -0.0644099132 0.241759236 0.126979164
v -0.064512314 0.24169522 0.12721794
v -0.0643749849 0.2418279 0.126722864
v -0.0648874656 0.241598065 0.127580336
v -0.0651347057 0.2415716 0.12767928
v -0.0646752731 0.241640265 0.12742298
v -0.0656653062 0.2415716 0.12767928
v -0.0659125463 0.241598065 0.127580336
v -0.0653999463 0.241562541 0.127713016
v -0.0662876979 0.24169522 0.12721794
v -0.0663900987 0.241759236 0.126979164
v -0.0661247388 0.241640265 0.12742298
v -0.0663900987 0.241896565 0.126466683
v -0.0662876979 0.241960461 0.126227907
v -0.066425027 0.2418279 0.126722864
v -0.0659125463 0.242057617 0.125865511
v -0.0656653062 0.242084081 0.125766567
v -0.0661247388 0.242015417 0.126022748
v -0.0651347057 0.242084081 0.125766567
v -0.0648874656 0.242057617 0.125865511
v -0.0653999463 0.242093141 0.125732831
v -0.064512314 0.241960461 0.126227907
v -0.0644099132 0.241896565 0.126466683
v -0.0646752731 0.242015417 0.126022748
v -0.0236299649 -0.197516804 0.0621860538
v -0.0236299649 -0.197435801 0.0621860538
v -0.0236399785 -0.197516804 0.0621860538
v -0.0236399785 -0.197435801 0.0621860538
v 0.0160000905 -0.236515706 0.0684544359
v 0.0160101041 -0.236515706 0.0684544359
v 0.0159997329 -0.236552005 0.0684546743
v 0.0160097464 -0.236552184 0.0684546743
v 0.0159991368 -0.236588364 0.0684549127
v 0.0160091504 -0.236588602 0.0684549127
v 0.260836182 -0.0679000067 0.0789649997
v 0.247610389 -0.0679000067 0.128324321
v 0.25987023 -0.0688999939 0.0787061964
v 0.246644436 -0.0688999939 0.128065518
v 0.258583604 -0.0669544387 0.0755324875
v 0.257718383 -0.0668132353 0.0751458917
v 0.257707177 -0.0666138577 0.0751878534
v 0.259029804 -0.0670398521 0.0757405077
v 0.260901628 -0.0667793202 0.0766525779
v 0.260677276 -0.0670544553 0.0765038047
v 0.260572492 -0.0671995926 0.0764619623
v 0.259795247 -0.0671864795 0.0760974203
v 0.260476528 -0.0673447895 0.0764438425
v 0.260835229 -0.0665202188 0.0767456804
v 0.260986625 -0.0666858601 0.076727203
v 0.257663189 -0.0662139106 0.0753521238
v 0.257594405 -0.0658698725 0.0756087814
v 0.260557471 -0.0662655878 0.0768123184
v 0.260562716 -0.0662697005 0.0768106495
v 0.260790883 -0.0664717602 0.0767510448
v 0.260803996 -0.0664860654 0.0767494951
v 0.0672071561 0.264536912 0.0755858932
v 0.0672071561 0.261639173 0.0748093639
v 0.0673660621 0.261692698 0.0746093307
v 0.0673660621 0.264590557 0.07538586
v 0.0674659594 0.261755164 0.0743763958
v 0.0674659594 0.264652903 0.0751528059
v 0.0675000533 0.261822159 0.0741264139
v 0.0675000533 0.264719899 0.074902824
v -0.00622993862 -0.238284354 0.0618845735
v -0.00621992504 -0.238284354 0.0618845735
v -0.00621992504 -0.238282089 0.0618824278
v -0.00622993862 -0.238282089 0.0618824278
v -0.00621992504 -0.238268976 0.0618732486
v -0.00622993862 -0.238268976 0.0618732486
v -0.00621992504 -0.238252227 0.0618668113
v -0.00622993862 -0.238252227 0.0618668113
v -0.00621992504 -0.238223855 0.0618633543
v -0.00622993862 -0.238223855 0.0618633543
v -0.00622993862 -0.23762012 0.0622041736
v -0.00621992504 -0.23762012 0.0622041736
v -0.00621992504 -0.237611418 0.0622158561
v -0.00622993862 -0.237611418 0.0622158561
v -0.00621992504 -0.237604384 0.0622318302
v -0.00622993862 -0.237604384 0.0622318302
v -0.00621992504 -0.237600629 0.0622514997
v -0.00622993862 -0.237600629 0.0622514997
v -0.00621992504 -0.237600152 0.0622622285
v -0.00622993862 -0.237600152 0.0622622285
v -0.00604850208 -0.239540105 0.0606599365
v -0.00385135566 -0.239540105 0.0606599365
v -0.00561994468 -0.240040069 0.0606599365
v -0.00427991306 -0.240040069 0.0606599365
f 1 2 3
f 4 2 1
f 1 5 6
f 7 5 1
f 3 7 1
f 1 8 9
f 10 8 1
f 6 10 1
f 1 11 12
f 13 11 1
f 9 13 1
f 1 14 15
f 16 14 1
f 12 16 1
f 1 17 18
f 19 17 1
f 15 19 1
f 1 20 21
f 22 20 1
f 18 22 1
f 1 23 24
f 25 23 1
f 21 25 1
f 24 4 1
f 26 27 28
f 28 27 29
f 30 31 32
f 32 31 33
f 32 33 34
f 34 33 35
f 36 37 38
f 38 37 39
f 40 41 42
f 43 40 44
f 44 45 43
f 43 45 46
f 43 46 47
f 47 46 48
f 49 50 44
f 40 42 44
f 44 42 51
f 44 51 49
f 52 53 51
f 51 53 54
f 54 55 51
f 51 55 56
f 51 56 49
f 57 58 59
f 57 59 60
f 60 59 61
f 60 61 62
f 62 61 63
f 62 63 64
f 65 66 67
f 65 67 68
f 68 67 69
f 68 69 70
f 70 69 71
f 70 71 72
f 72 71 73
f 72 73 74
f 75 76 77
f 75 77 78
f 78 77 79
f 78 79 80
f 80 79 81
f 80 81 82
f 82 81 83
f 82 83 84
f 85 86 87
f 87 86 88
