v -0.110987724 0.0500000072 0.0469493185
v -0.111000003 0.0500000072 0.047299913
v -0.111010374 0.0496407104 0.0469102178
v -0.111016096 0.0496414256 0.047299913
v -0.111021222 0.0494676185 0.0468913828
v -0.111128868 0.0489131165 0.0467048202
v -0.111224474 0.0486788702 0.047299913
v -0.111210884 0.0486739826 0.046562842
v -0.111328067 0.0483325672 0.0463599477
v -0.111661734 0.0477964235 0.047299913
v -0.111478628 0.0480158282 0.0460991178
v -0.113104524 0.0464776111 0.047299913
v -0.112265529 0.0470082712 0.0447360788
v -0.112301292 0.0470475507 0.047299913
v -0.112047376 0.047189529 0.0451139722
v -0.111639799 0.0477817011 0.0458200489
v -0.114022674 0.0461212349 0.047299913
v -0.113071384 0.0463386727 0.0433404956
v -0.113043489 0.0463617993 0.0433886562
v -0.114999951 0.0459999991 0.047299913
v -0.11430961 0.0458437753 0.0411956821
v -0.113991322 0.0459709716 0.0417470251
v -0.115977348 0.0461212349 0.047299913
v -0.115643443 0.0457546664 0.0388855253
v -0.115005793 0.0457972837 0.0399898801
v -0.116702975 0.0460171056 0.0374113832
v -0.116628589 0.0459727001 0.0374452386
v -0.116895498 0.0464776111 0.047299913
v -0.116363825 0.0458871079 0.0377135788
v -0.116315068 0.0458713126 0.0377629314
v -0.116154732 0.045832212 0.0379999195
v -0.116054715 0.0458170724 0.0381731306
v -0.117885532 0.0467231822 0.0368749414
v -0.117539229 0.0465164137 0.0370320593
v -0.117698731 0.0470475507 0.047299913
v -0.117121758 0.0462671471 0.0372213636
v -0.117034377 0.046214993 0.0372610603
v -0.119373621 0.0498245907 0.036499909
v -0.118983926 0.0496414256 0.047299913
v -0.119376244 0.0499126864 0.0365018163
v -0.119000019 0.0500000072 0.047299913
v -0.11937684 0.0500000072 0.0365076576
v -0.119359554 0.0496076298 0.036499909
v -0.119131507 0.0485542965 0.036499909
v -0.118775548 0.0486788702 0.047299913
v -0.118530931 0.0476716709 0.0366806303
v -0.118338288 0.0477964235 0.047299913
v -0.118461551 0.0475696278 0.0367016111
v -0.117929997 0.0467885089 0.03686159
v -0.208790244 0.0513261509 0.0465647493
v -0.208847107 0.0511738611 0.0466633354
v -0.208775581 0.0513211441 0.047299913
v -0.208966436 0.0506223989 0.0468700443
v -0.20898384 0.0503585291 0.047299913
v -0.208989205 0.0503590656 0.0469095026
v -0.209000053 0.0500000072 0.047299913
v -0.209010781 0.0501096201 0.0469469343
v -0.209012212 0.0500000072 0.0469493185
v -0.20861453 0.0517964316 0.046260408
v -0.208338322 0.0522035909 0.047299913
v -0.208363594 0.0522218299 0.0458258901
v -0.208194913 0.0525078726 0.0455337082
v -0.207698645 0.0529524637 0.047299913
v -0.207725586 0.0529873324 0.04472082
v -0.207333507 0.0533879352 0.0440416847
v -0.206895532 0.0535224033 0.047299913
v -0.206933202 0.0535972071 0.0433483635
v -0.205977382 0.0538787794 0.047299913
v -0.206055822 0.0540558648 0.0418286834
v -0.205318512 0.0541719151 0.0420296703
v -0.205848874 0.0541013432 0.0419074808
v -0.206023754 0.0540628982 0.041840962
v -0.204999866 0.0541751337 0.0420352731
v -0.204999985 0.0540000153 0.047299913
v -0.204771818 0.0541774583 0.0420393263
v -0.204022588 0.0538787794 0.047299913
v -0.204505505 0.0541557026 0.0420016561
v -0.203012766 0.0536917997 0.0411980663
v -0.203323306 0.0538543415 0.0414797578
v -0.203104557 0.0535224033 0.047299913
v -0.203945459 0.0540561629 0.0418292795
v -0.203976454 0.0540617061 0.0418388162
v -0.20257801 0.0534641099 0.040803722
v -0.202301325 0.0529524637 0.047299913
v -0.20215589 0.0531083894 0.0401876484
v -0.201743545 0.0527610135 0.0395859991
v -0.201661648 0.0522035909 0.047299913
v -0.201460423 0.0523332906 0.0388452325
v -0.200946392 0.0515566421 0.0374999557
v -0.201224507 0.0513211441 0.047299913
v -0.200944246 0.0515517545 0.0374916111
v -0.20101613 0.0503585291 0.047299913
v -0.200645508 0.0503919673 0.0365869318
v -0.200648131 0.0504369688 0.0365959917
v -0.200677456 0.0506134582 0.0366763387
v -0.200718226 0.0508590293 0.036788157
v -0.200759591 0.0510081601 0.0369055782
v -0.200825276 0.0512450886 0.0370919023
v -0.200862588 0.0513413501 0.0372173105
v -0.200898828 0.0514348698 0.0373391424
v -0.200633229 0.0501763773 0.0365433012
v -0.201000036 0.0500000072 0.047299913
v -0.200623097 0.0500000072 0.0365076576
v -0.209568323 -0.0360000181 0.0419126068
v -0.206970276 -0.0360000181 0.0434126173
v -0.209555568 -0.0361940908 0.0418904338
v -0.206957521 -0.0361940908 0.0433904443
v -0.209518136 -0.0363749909 0.041825584
v -0.206920089 -0.0363749909 0.0433255945
v -0.209458531 -0.0365303206 0.0417223487
v -0.206860484 -0.0365303206 0.0432223592
v -0.209380926 -0.0366495299 0.0415877615
v -0.20678276 -0.0366495299 0.043087772
v -0.209290446 -0.0367244529 0.0414311205
v -0.206692399 -0.0367244529 0.0429311309
v -0.20919341 -0.0367500233 0.0412630354
v -0.206595244 -0.0367500233 0.0427630458
v -0.209096374 -0.0367244529 0.0410949503
v -0.206498207 -0.0367244529 0.0425949607
v -0.209005894 -0.0366495299 0.0409383093
v -0.206407847 -0.0366495299 0.0424383197
v -0.208928169 -0.0365303206 0.040803722
v -0.206330122 -0.0365303206 0.0423037325
v -0.208868565 -0.0363749909 0.0407006059
v -0.206270517 -0.0363749909 0.0422004972
v -0.208831133 -0.0361940908 0.0406356369
v -0.206233086 -0.0361940908 0.0421356474
v -0.208818378 -0.0360000181 0.0406135831
v -0.20622033 -0.0360000181 0.0421135936
v -0.208320321 0.0221999836 0.0457507883
v -0.209214629 0.0572146726 0.047299913
v -0.208320321 -0.0221999931 0.0457507883
v -0.209214629 -0.0572146821 0.047299913
v -0.206233086 -0.0358058858 0.0421356474
v -0.203845324 -0.0458322215 0.0379999195
v -0.20622033 0.0360000086 0.0421135936
v -0.206233086 0.0358058763 0.0421356474
v -0.204254331 0.0221999836 0.0387082611
v -0.206270517 0.0356249762 0.0422004972
v -0.206330122 0.0354696465 0.0423037325
v -0.203945221 -0.0458286452 0.0381730114
v -0.206407847 0.0366495204 0.0424383197
v -0.206330122 0.0365303111 0.0423037325
v -0.203845324 0.045832212 0.0379999195
v -0.206270517 0.0363749814 0.0422004972
v -0.206233086 0.0361941409 0.0421356474
v -0.206270517 -0.0356249857 0.0422004972
v -0.204254331 -0.0221999931 0.0387082611
v -0.206860484 -0.035469656 0.0432223592
v -0.20678276 -0.0353505063 0.043087772
v -0.206692399 -0.0352755832 0.0429311309
v -0.206595244 -0.0352500128 0.0427630458
v -0.206498207 -0.0352755832 0.0425949607
v -0.206407847 -0.0353505063 0.0424383197
v -0.206330122 -0.035469656 0.0423037325
v -0.206006111 -0.0459855246 0.0417424951
v -0.20533389 -0.0457784581 0.0405782972
v -0.204998435 -0.0457905578 0.0399972711
v -0.208874287 -0.0510745096 0.0467104231
v -0.208979072 -0.0505304384 0.0468918596
v -0.206692399 0.0352755738 0.0429311309
v -0.20678276 0.0353504968 0.043087772
v -0.206860484 0.0354696465 0.0432223592
v -0.206920089 0.0356249762 0.0433255945
v -0.206407847 0.0353504968 0.0424383197
v -0.206498207 0.0352755738 0.0425949607
v -0.206595244 0.0352500034 0.0427630458
v -0.206920089 0.0363749814 0.0433255945
v -0.206860484 0.0365303111 0.0432223592
v -0.208978833 0.0494676185 0.0468913828
v -0.20678276 0.0366495204 0.043087772
v -0.206956567 0.0463617993 0.0433886562
v -0.207734408 0.0470082712 0.0447360788
v -0.206595244 0.0367500139 0.0427630458
v -0.207952561 0.047189529 0.0451139722
v -0.206692399 0.0367244435 0.0429311309
v -0.208793105 -0.0486722636 0.0465697561
v -0.208925785 -0.0491467166 0.0467995916
v -0.208789291 -0.0513261008 0.0465631996
v -0.206498207 0.0367244435 0.0425949607
v -0.205690445 0.0458437753 0.0411956821
v -0.206008734 0.0459709716 0.0417470251
v -0.206928672 0.0463386727 0.0433404956
v -0.20394534 0.0458170724 0.0381731306
v -0.204356612 0.0457546664 0.0388855253
v -0.204994144 0.0457972837 0.0399898801
v -0.207772078 -0.046996479 0.0448012863
v -0.207756104 -0.0469849753 0.0447736297
v -0.206933202 -0.0463933992 0.0433483635
v -0.206635656 -0.0461794185 0.0428330217
v -0.208763422 -0.0485662865 0.0465183769
v -0.208395304 -0.0477930951 0.0458808456
v -0.20837778 -0.0477705645 0.045850328
v -0.206055822 -0.0540558743 0.0418286834
v -0.206914009 -0.0536700535 0.0433149849
v -0.207945646 -0.0528184223 0.0451018129
v -0.208271565 -0.052399342 0.0456663881
v -0.208995165 -0.049640541 0.0469197546
v -0.206957521 -0.0358058858 0.0433904443
v -0.206920089 -0.0356249857 0.0433255945
v -0.206957521 0.0358058763 0.0433904443
v -0.206970276 0.0360000086 0.0434126173
v -0.206957521 0.0361941409 0.0433904443
v -0.208366694 -0.0522241044 0.0458312545
v -0.208682121 -0.0516434359 0.0463774715
v -0.208989801 -0.0503593135 0.046910337
v -0.209012212 -0.0500000167 0.0469493185
v -0.208999576 -0.0496724295 0.0469275032
v -0.206954898 -0.0536362576 0.0433859144
v -0.207735004 -0.0529922294 0.0447371517
v -0.208989681 0.0496407104 0.0469102178
v -0.208521427 0.0480158282 0.0460991178
v -0.208671989 0.0483325672 0.0463599477
v -0.208360256 0.0477817011 0.0458200489
v -0.208789052 0.0486739826 0.046562842
v -0.208871068 0.0489131165 0.0467048202
v -0.207718433 0.0221999836 0.0387082611
v -0.206443371 0.050113256 0.036499909
v -0.207718433 -0.0221999931 0.0387082611
v -0.206443371 -0.0501132655 0.036499909
v -0.208928169 -0.035469656 0.040803722
v -0.209005894 -0.0353505063 0.0409383093
v -0.210418405 -0.0221999931 0.0433848415
v -0.209096374 -0.0352755832 0.0410949503
v -0.20919341 -0.0352500128 0.0412630354
v -0.209458531 -0.035469656 0.0417223487
v -0.209518136 -0.0356249857 0.041825584
v -0.209555568 -0.0358058858 0.0418904338
v -0.209290446 -0.0352755832 0.0414311205
v -0.209380926 -0.0353505063 0.0415877615
v -0.212678732 -0.0563486266 0.047299913
v -0.208831133 -0.0358058858 0.0406356369
v -0.208868565 -0.0356249857 0.0407006059
v -0.212678732 0.0563486171 0.047299913
v -0.210418405 0.0221999836 0.0433848415
v -0.209568323 0.0360000086 0.0419126068
v -0.209555568 0.0358058763 0.0418904338
v -0.208868565 0.0363749814 0.0407006059
v -0.208928169 0.0365303111 0.040803722
v -0.209518136 0.0356249762 0.041825584
v -0.209458531 0.0354696465 0.0417223487
v -0.209380926 0.0353504968 0.0415877615
v -0.209005894 0.0353504968 0.0409383093
v -0.208928169 0.0354696465 0.040803722
v -0.208868565 0.0356249762 0.0407006059
v -0.208831133 0.0358058763 0.0406356369
v -0.208818378 0.0360000086 0.0406135831
v -0.208831133 0.0361941409 0.0406356369
v -0.209380926 0.0366495204 0.0415877615
v -0.209458531 0.0365303111 0.0417223487
v -0.209290446 0.0352755738 0.0414311205
v -0.20919341 0.0352500034 0.0412630354
v -0.209096374 0.0352755738 0.0410949503
v -0.209290446 0.0367244435 0.0414311205
v -0.209518136 0.0363749814 0.041825584
v -0.209555568 0.0361941409 0.0418904338
v -0.209005894 0.0366495204 0.0409383093
v -0.209096374 0.0367244435 0.0410949503
v -0.20919341 0.0367500139 0.0412630354
v -0.195805849 0.0575556112 0.0418904338
v -0.196000041 0.0575683666 0.0419126068
v -0.208348574 0.0606787753 0.047299913
v -0.182200016 0.0557183576 0.0387082611
v -0.195805849 0.0568311763 0.0406356369
v -0.182200016 0.0584183884 0.0433848415
v -0.195625009 0.056868608 0.0407006059
v -0.195469679 0.0569282127 0.040803722
v -0.19535047 0.0570058775 0.0409383093
v -0.195275606 0.0570962978 0.0410949503
v -0.195249976 0.0571933937 0.0412630354
v -0.195275606 0.0572904301 0.0414311205
v -0.19535047 0.0573808503 0.0415877615
v -0.195469679 0.0574585152 0.0417223487
v -0.195625009 0.0575181198 0.041825584
v -0.196530284 0.0574585152 0.0417223487
v -0.196649493 0.0573808503 0.0415877615
v -0.196649493 0.0570058775 0.0409383093
v -0.196530284 0.0569282127 0.040803722
v -0.202113213 0.0544433546 0.036499909
v -0.196194114 0.0575556112 0.0418904338
v -0.196374954 0.0575181198 0.041825584
v -0.196374954 0.056868608 0.0407006059
v -0.196194114 0.0568311763 0.0406356369
v -0.196000041 0.0568183613 0.0406135831
v -0.124375047 0.0575181198 0.041825584
v -0.124530377 0.0574585152 0.0417223487
v -0.137800039 0.0584183884 0.0433848415
v -0.124649467 0.0573808503 0.0415877615
v -0.124530377 0.0569282127 0.040803722
v -0.124375047 0.056868608 0.0407006059
v -0.137800039 0.0557183576 0.0387082611
v -0.111651363 0.0606787753 0.047299913
v -0.124194087 0.0575556112 0.0418904338
v -0.124649467 0.0570058775 0.0409383093
v -0.123624982 0.056868608 0.0407006059
v -0.123469652 0.0569282127 0.040803722
v -0.117886724 0.0544433546 0.036499909
v -0.12327558 0.0572904301 0.0414311205
v -0.123350443 0.0573808503 0.0415877615
v -0.123469652 0.0574585152 0.0417223487
v -0.123624982 0.0575181198 0.041825584
v -0.196724476 0.0572904301 0.0414311205
v -0.196749987 0.0571933937 0.0412630354
v -0.196724476 0.0570962978 0.0410949503
v -0.123805942 0.0575556112 0.0418904338
v -0.124000014 0.0575683666 0.0419126068
v -0.124724449 0.0572904301 0.0414311205
v -0.12474996 0.0571933937 0.0412630354
v -0.124724449 0.0570962978 0.0410949503
v -0.123350443 0.0570058775 0.0409383093
v -0.12327558 0.0570962978 0.0410949503
v -0.12324995 0.0571933937 0.0412630354
v -0.124194087 0.0568311763 0.0406356369
v -0.124000014 0.0568183613 0.0406135831
v -0.123805942 0.0568311763 0.0406356369
v -0.117886724 -0.0501132655 0.033999971
v -0.117886724 -0.0418519425 0.033999971
v -0.116847219 -0.0501132655 0.0341098819
v -0.117886724 -0.027372961 0.033999971
v -0.117886724 -0.0188768553 0.033999971
v -0.117886724 -0.0158014941 0.033999971
v -0.117886724 -0.0130841779 0.033999971
v -0.116847219 0.050113256 0.0341098819
v -0.117886724 -0.00215518949 0.033999971
v -0.117886724 0.00449954989 0.033999971
v -0.117886724 0.0129945827 0.033999971
v -0.117886724 0.0184671831 0.033999971
v -0.117886724 0.0209488821 0.033999971
v -0.117886724 0.0242593241 0.033999971
v -0.117886724 0.050113256 0.033999971
v -0.11684102 -0.0501132655 0.034110478
v -0.11684102 0.050113256 0.034110478
v -0.11585349 -0.0501132655 0.0344334159
v -0.11585349 0.050113256 0.0344334159
v -0.115841569 -0.0501132655 0.0344373499
v -0.115841569 0.050113256 0.0344373499
v -0.114948811 -0.0501132655 0.0349565063
v -0.114948811 0.050113256 0.0349565063
v -0.114932598 -0.0501132655 0.0349659238
v -0.114932598 0.050113256 0.0349659238
v -0.114172758 -0.0501132655 0.0356561456
v -0.114172758 0.050113256 0.0356561456
v -0.114154281 -0.0501132655 0.0356729541
v -0.114154281 0.050113256 0.0356729541
v -0.113556565 -0.0501132655 0.036499909
v -0.113556565 0.050113256 0.036499909
v -0.202113213 -0.0511527109 0.0341098819
v -0.202113213 -0.0501132655 0.033999971
v -0.179187478 -0.0501132655 0.033999971
v -0.177729072 -0.0501132655 0.033999971
v -0.176406087 -0.0501132655 0.033999971
v -0.117886724 -0.0511527109 0.0341098819
v -0.174790324 -0.0501132655 0.033999971
v -0.202113213 -0.0511589694 0.034110478
v -0.117886724 -0.0511589694 0.034110478
v -0.202113213 -0.0521464991 0.0344334159
v -0.117886724 -0.0521464991 0.0344334159
v -0.202113213 -0.0521584201 0.0344373499
v -0.117886724 -0.0521584201 0.0344373499
v -0.202113213 -0.0530511784 0.0349565063
v -0.117886724 -0.0530511784 0.0349565063
v -0.202113213 -0.0530673909 0.0349659238
v -0.117886724 -0.0530673909 0.0349659238
v -0.202113213 -0.0538272309 0.0356561456
v -0.117886724 -0.0538272309 0.0356561456
v -0.202113213 -0.0538457679 0.0356729541
v -0.117886724 -0.0538457679 0.0356729541
v -0.202113213 -0.0544433641 0.036499909
v -0.117886724 -0.0544433641 0.036499909
v -0.202113213 0.051152761 0.0341098819
v -0.202113213 0.050113256 0.033999971
v -0.202383937 0.0511233163 0.034110478
v -0.204146566 0.050113256 0.0344334159
v -0.204158367 0.050113256 0.0344373499
v -0.204088749 0.0506425453 0.0344373499
v -0.204966725 0.0508778644 0.0349659238
v -0.205718578 0.0510792685 0.0356729541
v -0.205345692 0.0519794774 0.0356729541
v -0.20618123 0.0508952093 0.0361998592
v -0.206038417 0.0511566353 0.0361313139
v -0.202895226 0.0541812134 0.0361998592
v -0.202113213 0.0538457585 0.0356729541
v -0.203926148 0.0536183667 0.0359294925
v -0.203156652 0.0540384603 0.0361313139
v -0.203079285 0.0537185622 0.0356729541
v -0.205502929 0.0520656657 0.0359156643
v -0.204851808 0.052851851 0.0358375822
v -0.205618323 0.0519261909 0.0359294925
v -0.205845775 0.050113256 0.0356729541
v -0.205827297 0.050113256 0.0356561456
v -0.205067457 0.050113256 0.0349659238
v -0.205051245 0.050113256 0.0349565063
v -0.202113213 0.0538272214 0.0356561456
v -0.202877821 0.0529667688 0.0349659238
v -0.204671563 0.0515903187 0.0349659238
v -0.204752506 0.0527525497 0.0356729541
v -0.202113213 0.0530673814 0.0349659238
v -0.202113213 0.0530511689 0.0349565063
v -0.202642621 0.0520887327 0.0344373499
v -0.204202117 0.0522021604 0.0349659238
v -0.203884424 0.0511358333 0.0344373499
v -0.203123273 0.0503839207 0.034110478
v -0.204065622 0.0535029125 0.0359156643
v -0.203979553 0.0533456755 0.0356729541
v -0.203590335 0.0526716066 0.0349659238
v -0.20313579 0.051884408 0.0344373499
v -0.202636065 0.0510188294 0.034110478
v -0.203152718 0.050113256 0.0341098819
v -0.203158917 0.050113256 0.034110478
v -0.203559341 0.0515593839 0.0344373499
v -0.203018846 0.0506361079 0.034110478
v -0.202852668 0.0508526516 0.034110478
v -0.202113213 0.0521584106 0.0344373499
v -0.202113213 0.0521465493 0.0344334159
v -0.202113213 0.0511589599 0.034110478
v -0.212612094 0.0570446801 0.047299913
v -0.209199251 0.060574646 0.047299913
v -0.20996827 0.0603792024 0.047299913
v -0.209578814 0.060528214 0.047299913
v -0.209294023 0.0605630231 0.047299913
v -0.210517468 0.0601690364 0.047299913
v -0.210489096 0.0601799441 0.047299913
v -0.211463274 0.0594634962 0.047299913
v -0.211360993 0.0595740629 0.047299913
v -0.211256923 0.0596474958 0.047299913
v -0.210635604 0.0600857687 0.047299913
v -0.212167682 0.0584794236 0.047299913
v -0.212140383 0.0585242462 0.047299913
v -0.211770119 0.0591316772 0.047299913
v -0.211760701 0.0591417504 0.047299913
v -0.212587299 0.0573029471 0.047299913
v -0.212584914 0.0573279214 0.047299913
v -0.212425293 0.0578275872 0.047299913
v -0.212271394 0.0583093119 0.047299913
v -0.137800039 -0.0584183979 0.0433848415
v -0.182200016 -0.0584183979 0.0433848415
v -0.137800039 -0.0563203144 0.0445961271
v -0.182200016 -0.0563203144 0.0445961271
v -0.137800039 -0.0557183671 0.0387082611
v -0.137800039 -0.0522542643 0.0387082611
v -0.137800039 -0.0563203144 0.0457507883
v -0.182200016 -0.0557183671 0.0387082611
v -0.182200016 -0.0522542643 0.0387082611
v -0.182200016 -0.0563203144 0.0457507883
v -0.111651363 0.0607485724 0.0492998872
v -0.110955299 0.0606120777 0.047299913
v -0.110945882 0.0606809807 0.0492998872
v -0.110697092 0.0605873418 0.047299913
v -0.110658588 0.060653503 0.0492998872
v -0.10944301 0.0602016402 0.0492998872
v -0.109520616 0.0601676655 0.047299913
v -0.109661521 0.0603348565 0.0492998872
v -0.109690727 0.0602713776 0.047299913
v -0.110151233 0.0604913187 0.0492998872
v -0.110172452 0.0604252768 0.047299913
v -0.110672058 0.0605849576 0.047299913
v -0.108374657 0.0594083619 0.0492998872
v -0.108536543 0.0594631982 0.047299913
v -0.108814777 0.0598153425 0.0492998872
v -0.10885817 0.0597607446 0.047299913
v -0.108825149 0.0598249388 0.0492998872
v -0.108868302 0.0597701025 0.047299913
v -0.109475674 0.0601403666 0.047299913
v -0.10755557 0.0579917383 0.0492998872
v -0.107820095 0.0584890795 0.047299913
v -0.107769193 0.0585501147 0.0492998872
v -0.107830943 0.0585174513 0.047299913
v -0.107853951 0.0586701584 0.0492998872
v -0.107914271 0.0586355877 0.047299913
v -0.108299913 0.0593024445 0.0492998872
v -0.108352484 0.0592569065 0.047299913
v -0.108425917 0.0593609762 0.047299913
v -0.107356967 0.0572109771 0.0492998872
v -0.107436957 0.057294066 0.047299913
v -0.107404174 0.0575963211 0.0492998872
v -0.107471766 0.0575787974 0.047299913
v -0.107620777 0.0579683137 0.047299913
v -0.107251348 0.0563486171 0.0492998872
v -0.107321204 0.0563486171 0.047299913
v -0.107425393 0.0571992946 0.047299913
v -0.205781879 -0.0514529991 0.047299913
v -0.206895532 -0.0535223531 0.047299913
v -0.205403151 -0.0515999841 0.047299913
v -0.205977382 -0.0538787293 0.047299913
v -0.204999985 -0.0516499924 0.047299913
v -0.204999985 -0.0540000248 0.047299913
v -0.204596819 -0.0515999841 0.047299913
v -0.204022588 -0.0538787293 0.047299913
v -0.204218091 -0.0514529991 0.047299913
v -0.203104557 -0.0535223531 0.047299913
v -0.203886809 -0.0512179184 0.047299913
v -0.202301325 -0.0529524731 0.047299913
v -0.203622998 -0.0509089875 0.047299913
v -0.201661648 -0.0522036004 0.047299913
v -0.203442635 -0.0505449819 0.047299913
v -0.201224507 -0.051321094 0.047299913
v -0.203356685 -0.0501478958 0.047299913
v -0.20101613 -0.0503585386 0.047299913
v -0.203350009 -0.0500000167 0.047299913
v -0.201000036 -0.0500000167 0.047299913
v -0.203356685 -0.0498520779 0.047299913
v -0.20101613 -0.0496414351 0.047299913
v -0.203442635 -0.0494550514 0.047299913
v -0.201224507 -0.0486788797 0.047299913
v -0.203622998 -0.0490910458 0.047299913
v -0.201661648 -0.0477964329 0.047299913
v -0.203886809 -0.048782115 0.047299913
v -0.202301325 -0.0470475006 0.047299913
v -0.204218091 -0.0485470342 0.047299913
v -0.203104557 -0.0464776206 0.047299913
v -0.204596819 -0.0483999896 0.047299913
v -0.204022588 -0.0461212444 0.047299913
v -0.204999985 -0.0483499813 0.047299913
v -0.204999985 -0.0460000086 0.047299913
v -0.205403151 -0.0483999896 0.047299913
v -0.205977382 -0.0461212444 0.047299913
v -0.205781879 -0.0485470342 0.047299913
v -0.206895532 -0.0464776206 0.047299913
v -0.206113161 -0.048782115 0.047299913
v -0.207698645 -0.0470475006 0.047299913
v -0.206377091 -0.0490910458 0.047299913
v -0.208338322 -0.0477964329 0.047299913
v -0.206557454 -0.0494550514 0.047299913
v -0.208775581 -0.0486788797 0.047299913
v -0.206643404 -0.0498520779 0.047299913
v -0.20898384 -0.0496414351 0.047299913
v -0.206649961 -0.0500000167 0.047299913
v -0.209000053 -0.0500000167 0.047299913
v -0.206643404 -0.0501478958 0.047299913
v -0.20898384 -0.0503585386 0.047299913
v -0.206557454 -0.0505449819 0.047299913
v -0.208775581 -0.051321094 0.047299913
v -0.206377091 -0.0509089875 0.047299913
v -0.208338322 -0.0522036004 0.047299913
v -0.206113161 -0.0512179184 0.047299913
v -0.207698645 -0.0529524731 0.047299913
v -0.204218091 0.0514529896 0.047299913
v -0.204596819 0.0515999747 0.047299913
v -0.204999985 0.051649983 0.047299913
v -0.205403151 0.0515999747 0.047299913
v -0.205781879 0.0514529896 0.047299913
v -0.206113161 0.0512179089 0.047299913
v -0.206377091 0.050908978 0.047299913
v -0.206557454 0.0505449724 0.047299913
v -0.206643404 0.0501478863 0.047299913
v -0.206649961 0.0500000072 0.047299913
v -0.206643404 0.0498520685 0.047299913
v -0.20898384 0.0496414256 0.047299913
v -0.206557454 0.0494550419 0.047299913
v -0.208775581 0.0486788702 0.047299913
v -0.206377091 0.0490910363 0.047299913
v -0.208338322 0.0477964235 0.047299913
v -0.206113161 0.0487821055 0.047299913
v -0.207698645 0.0470475507 0.047299913
v -0.205781879 0.0485470248 0.047299913
v -0.206895532 0.0464776111 0.047299913
v -0.205403151 0.0484000397 0.047299913
v -0.205977382 0.0461212349 0.047299913
v -0.204999985 0.0483499718 0.047299913
v -0.204999985 0.0459999991 0.047299913
v -0.204596819 0.0484000397 0.047299913
v -0.204022588 0.0461212349 0.047299913
v -0.204218091 0.0485470248 0.047299913
v -0.203104557 0.0464776111 0.047299913
v -0.203886809 0.0487821055 0.047299913
v -0.202301325 0.0470475507 0.047299913
v -0.203622998 0.0490910363 0.047299913
v -0.201661648 0.0477964235 0.047299913
v -0.203442635 0.0494550419 0.047299913
v -0.201224507 0.0486788702 0.047299913
v -0.203356685 0.0498520685 0.047299913
v -0.20101613 0.0496414256 0.047299913
v -0.203350009 0.0500000072 0.047299913
v -0.203356685 0.0501478863 0.047299913
v -0.203442635 0.0505449724 0.047299913
v -0.203622998 0.050908978 0.047299913
v -0.203886809 0.0512179089 0.047299913
v -0.116243066 0.0504351211 0.0378613983
v -0.116228046 0.0503840399 0.0378824983
v -0.116227092 0.0504899574 0.0378839288
v -0.116154732 0.0506502939 0.0379999195
v -0.11628765 0.050282414 0.0377986942
v -0.116309346 0.0501177264 0.0377704416
v -0.116314592 0.0500780297 0.0377636467
v -0.116316856 0.0500000072 0.0377607856
v -0.116309108 0.0498821092 0.03777068
v -0.116304936 0.0498185706 0.0377760444
v -0.116270484 0.0496453595 0.03782194
v -0.116243066 0.0495650125 0.0378617559
v -0.116208495 0.049463625 0.037911943
v -0.116154732 0.0493496609 0.0379999195
v -0.120999993 -0.0400000262 0.0389999662
v -0.120999993 -0.0400000262 0.036499909
v -0.1209659 -0.0402588296 0.036499909
v -0.1209659 -0.0402588296 0.0389999662
v -0.120866002 -0.04049999 0.036499909
v -0.120866002 -0.04049999 0.0389999662
v -0.120707096 -0.0407071161 0.036499909
v -0.120707096 -0.0407071161 0.0389999662
v -0.12050003 -0.0408660221 0.036499909
v -0.12050003 -0.0408660221 0.0389999662
v -0.120258869 -0.0409659195 0.036499909
v -0.120258869 -0.0409659195 0.0389999662
v -0.119999947 -0.0410000133 0.036499909
v -0.119999947 -0.0410000133 0.0389999662
v -0.119741143 -0.0409659195 0.036499909
v -0.119741143 -0.0409659195 0.0389999662
v -0.119499983 -0.0408660221 0.036499909
v -0.119499983 -0.0408660221 0.0389999662
v -0.119292916 -0.0407071161 0.036499909
v -0.119292916 -0.0407071161 0.0389999662
v -0.11913401 -0.04049999 0.036499909
v -0.11913401 -0.04049999 0.0389999662
v -0.119034113 -0.0402588296 0.036499909
v -0.119034113 -0.0402588296 0.0389999662
v -0.119000019 -0.0400000262 0.036499909
v -0.119000019 -0.0400000262 0.0389999662
v -0.119034113 -0.0397411632 0.0389999662
v -0.1209659 -0.0397411632 0.0389999662
v -0.11913401 -0.0395000028 0.0389999662
v -0.119292916 -0.0392928767 0.0389999662
v -0.119499983 -0.0391339707 0.0389999662
v -0.119741143 -0.0390340733 0.0389999662
v -0.119999947 -0.0389999795 0.0389999662
v -0.120258869 -0.0390340733 0.0389999662
v -0.12050003 -0.0391339707 0.0389999662
v -0.120707096 -0.0392928767 0.0389999662
v -0.120866002 -0.0395000028 0.0389999662
v -0.199034037 0.000258798627 0.0389999662
v -0.199133934 0.000500018624 0.0389999662
v -0.201000036 -4.74063244e-09 0.0389999662
v -0.19929284 0.00070708516 0.0389999662
v -0.200499953 0.000866050748 0.0389999662
v -0.200707139 0.00070708516 0.0389999662
v -0.200866045 0.000500018624 0.0389999662
v -0.200965942 -0.000258808108 0.0389999662
v -0.199034037 -0.000258808108 0.0389999662
v -0.198999943 -4.74063244e-09 0.0389999662
v -0.200866045 -0.000500028106 0.0389999662
v -0.200707139 -0.000707094642 0.0389999662
v -0.200499953 -0.000866000625 0.0389999662
v -0.199500026 0.000866050748 0.0389999662
v -0.199741186 0.000965948133 0.0389999662
v -0.19999999 0.000999982385 0.0389999662
v -0.200258793 0.000965948133 0.0389999662
v -0.200965942 0.000258798627 0.0389999662
v -0.200258793 -0.000965898009 0.0389999662
v -0.19999999 -0.000999991866 0.0389999662
v -0.199741186 -0.000965898009 0.0389999662
v -0.199500026 -0.000866000625 0.0389999662
v -0.19929284 -0.000707094642 0.0389999662
v -0.199133934 -0.000500028106 0.0389999662
v -0.1209659 -0.000258808108 0.0389999662
v -0.120866002 -0.000500028106 0.0389999662
v -0.119000019 -4.74063244e-09 0.0389999662
v -0.120707096 -0.000707094642 0.0389999662
v -0.119499983 -0.000866000625 0.0389999662
v -0.119292916 -0.000707094642 0.0389999662
v -0.11913401 -0.000500028106 0.0389999662
v -0.119034113 0.000258798627 0.0389999662
v -0.1209659 0.000258798627 0.0389999662
v -0.120999993 -4.74063244e-09 0.0389999662
v -0.11913401 0.000500018624 0.0389999662
v -0.119292916 0.00070708516 0.0389999662
v -0.119499983 0.000866050748 0.0389999662
v -0.12050003 -0.000866000625 0.0389999662
v -0.120258869 -0.000965898009 0.0389999662
v -0.119999947 -0.000999991866 0.0389999662
v -0.119741143 -0.000965898009 0.0389999662
v -0.119034113 -0.000258808108 0.0389999662
v -0.119741143 0.000965948133 0.0389999662
v -0.119999947 0.000999982385 0.0389999662
v -0.120258869 0.000965948133 0.0389999662
v -0.12050003 0.000866050748 0.0389999662
v -0.120707096 0.00070708516 0.0389999662
v -0.120866002 0.000500018624 0.0389999662
v -0.179113211 0.0111715746 0.0354998623
v -0.180113258 0.0121715617 0.036499909
v -0.180113258 0.00800001147 0.036499909
v -0.179113211 -0.0111715841 0.0354998623
v -0.180113258 -0.00800002095 0.036499909
v -0.180113258 -0.0121715712 0.036499909
v -0.211947621 -0.0563486266 0.0487989698
v -0.210550012 -0.0563486266 0.047299913
v -0.211947621 0.0563486171 0.0487989698
v -0.210550012 0.0563486171 0.047299913
v -0.137800039 0.0563203049 0.0445961271
v -0.137800039 0.0563203049 0.0457507883
v -0.182200016 0.0563203049 0.0445961271
v -0.182200016 0.0563203049 0.0457507883
v -0.178386034 -0.0293444442 0.034199885
v -0.178386034 -0.0293444442 0.033999971
v -0.178413691 -0.0294926214 0.033999971
v -0.178413691 -0.0294926214 0.034199885
v -0.17842287 -0.0296483683 0.033999971
v -0.17842287 -0.0296483683 0.034199885
v -0.178281726 -0.0290926742 0.034199885
v -0.178281726 -0.0290926742 0.033999971
v -0.178361239 -0.0292612362 0.033999971
v -0.178361239 -0.0292612362 0.034199885
v -0.177483381 -0.0294826078 0.034199885
v -0.177483381 -0.0294826078 0.033999971
v -0.177508773 -0.029220109 0.033999971
v -0.177508773 -0.029220109 0.034199885
v -0.177557887 -0.0290721702 0.033999971
v -0.177557887 -0.0290721702 0.034199885
v -0.177584709 -0.0290221023 0.033999971
v -0.177584709 -0.0290221023 0.034199885
v -0.177053632 -0.0276895213 0.034199885
v -0.177053632 -0.0276895213 0.033999971
v -0.176837982 -0.0278868723 0.033999971
v -0.176837982 -0.0278868723 0.034199885
v -0.176669778 -0.028134768 0.033999971
v -0.176669778 -0.028134768 0.034199885
v -0.179724754 -0.0283711004 0.034199885
v -0.179724754 -0.0283711004 0.033999971
v -0.179532827 -0.0285270261 0.033999971
v -0.179532827 -0.0285270261 0.034199885
v -0.179387035 -0.0286505866 0.033999971
v -0.179387035 -0.0286505866 0.034199885
v -0.18052298 -0.0277509141 0.034199885
v -0.18052298 -0.0294519114 0.034199885
v -0.18052298 -0.0277509141 0.033999971
v -0.18052298 -0.0294519114 0.033999971
v -0.178987803 0.0331584168 0.034199885
v -0.178987803 0.0331584168 0.033999971
v -0.178764643 0.0331352306 0.033999971
v -0.178764643 0.0331352306 0.034199885
v -0.178589167 0.033074553 0.033999971
v -0.178589167 0.033074553 0.034199885
v -0.178444685 0.0329817486 0.033999971
v -0.178444685 0.0329817486 0.034199885
v -0.178314032 0.0328439427 0.033999971
v -0.178314032 0.0328439427 0.034199885
v -0.178290905 0.0328115177 0.033999971
v -0.178290905 0.0328115177 0.034199885
v -0.180409373 0.0320685458 0.034199885
v -0.180409373 0.0320685458 0.033999971
v -0.18027276 0.0324169946 0.033999971
v -0.18027276 0.0324169946 0.034199885
v -0.180090012 0.0326948715 0.033999971
v -0.180090012 0.0326948715 0.034199885
v -0.179380836 0.0318013382 0.034199885
v -0.179380836 0.0318013382 0.033999971
v -0.179417791 0.0317357731 0.033999971
v -0.179417791 0.0317357731 0.034199885
v -0.179452957 0.031611557 0.033999971
v -0.179452957 0.031611557 0.034199885
v -0.179466786 0.0314268422 0.033999971
v -0.179466786 0.0314268422 0.034199885
v -0.178871216 0.03153121 0.034199885
v -0.178871216 0.03153121 0.033999971
v -0.178888263 0.0317084742 0.033999971
v -0.178888263 0.0317084742 0.034199885
v -0.178916158 0.0317915035 0.033999971
v -0.178916158 0.0317915035 0.034199885
v -0.178951563 0.0318472338 0.033999971
v -0.178951563 0.0318472338 0.034199885
v -0.178985657 0.0318790627 0.033999971
v -0.178985657 0.0318790627 0.034199885
v -0.179028095 0.0319024873 0.033999971
v -0.179028095 0.0319024873 0.034199885
v -0.179075898 0.0319151235 0.033999971
v -0.179075898 0.0319151235 0.034199885
v -0.179116787 0.0319180441 0.033999971
v -0.179116787 0.0319180441 0.034199885
v -0.178600968 0.0282644582 0.034199885
v -0.178600968 0.0282644582 0.033999971
v -0.178708972 0.0284299803 0.033999971
v -0.178708972 0.0284299803 0.034199885
v -0.178813638 0.0287234736 0.033999971
v -0.178813638 0.0287234736 0.034199885
v -0.178871216 0.0292841149 0.033999971
v -0.178871216 0.0292841149 0.034199885
v -0.178871216 0.0292899561 0.033999971
v -0.178871216 0.0292899561 0.034199885
v -0.176415028 0.0335146141 0.034199885
v -0.177483381 0.0325075341 0.034199885
v -0.176415028 0.0335146141 0.033999971
v -0.177483381 0.0325075341 0.033999971
v -0.177483381 0.0296583724 0.034199885
v -0.177483381 0.0296583724 0.033999971
v -0.177821101 0.0291671706 0.033999971
v -0.177729072 0.0291765881 0.033999971
v -0.177821101 0.0291671706 0.034199885
v -0.177721562 0.0291773629 0.034199885
v -0.177721562 0.0291773629 0.033999971
v -0.177656235 0.0291998339 0.033999971
v -0.177656235 0.0291998339 0.034199885
v -0.177607955 0.0292305303 0.033999971
v -0.177607955 0.0292305303 0.034199885
v -0.177569331 0.0292709422 0.033999971
v -0.177569331 0.0292709422 0.034199885
v -0.177560152 0.0292838764 0.033999971
v -0.177560152 0.0292838764 0.034199885
v -0.176835598 0.0284026218 0.034199885
v -0.179214658 0.0319077325 0.034199885
v -0.179282726 0.0318838311 0.034199885
v -0.179865183 0.0329043818 0.034199885
v -0.178054513 0.0317952585 0.034199885
v -0.17807454 0.032158072 0.034199885
v -0.178169788 0.0325726223 0.034199885
v -0.179335655 0.0318495584 0.034199885
v -0.180494608 0.0316440416 0.034199885
v -0.176658334 0.0286796642 0.034199885
v -0.177903713 0.0291822505 0.034199885
v -0.178483786 0.0281455469 0.034199885
v -0.177941383 0.0292034102 0.034199885
v -0.177973808 0.0292338085 0.034199885
v -0.178007783 0.0292872143 0.034199885
v -0.178036393 0.0293717337 0.034199885
v -0.178054513 0.0295600844 0.034199885
v -0.176525535 0.0290258479 0.034199885
v -0.177526058 0.0293523622 0.034199885
v -0.176442565 0.0294464779 0.034199885
v -0.17960185 0.0330479098 0.034199885
v -0.179307164 0.0331308198 0.034199885
v -0.179466786 0.0283135724 0.034199885
v -0.18052298 0.0273127508 0.034199885
v -0.177052082 0.0281930518 0.034199885
v -0.177302302 0.0280495239 0.034199885
v -0.177580895 0.0279666138 0.034199885
v -0.177882613 0.0279390168 0.034199885
v -0.177859844 0.0291700912 0.034199885
v -0.178109349 0.0279622031 0.034199885
v -0.178303899 0.028028543 0.034199885
v -0.177492799 0.0294954729 0.034199885
v -0.176415028 0.0299469185 0.034199885
v -0.18052298 0.0311382366 0.034199885
v -0.178429784 -0.0217768597 0.034199885
v -0.178429784 -0.0217768597 0.033999971
v -0.177953543 -0.0217862773 0.033999971
v -0.177729072 -0.0218486833 0.033999971
v -0.177517237 -0.0219075727 0.034199885
v -0.177953543 -0.0217862773 0.034199885
v -0.176397146 -0.0236815262 0.033999971
v -0.176397146 -0.0236815262 0.034199885
v -0.176406087 -0.0236004042 0.033999971
v -0.176449002 -0.0232102322 0.034199885
v -0.176449002 -0.0232102322 0.033999971
v -0.176609339 -0.0227621245 0.034199885
v -0.176609339 -0.0227621245 0.033999971
v -0.176858963 -0.0223874497 0.034199885
v -0.176858963 -0.0223874497 0.033999971
v -0.177139582 -0.0221245932 0.034199885
v -0.177139582 -0.0221245932 0.033999971
v -0.177517237 -0.0219075727 0.033999971
v -0.179477991 -0.0221476602 0.033999971
v -0.179923953 -0.0225407529 0.034199885
v -0.179923953 -0.0225407529 0.033999971
v -0.17993504 -0.0225533294 0.034199885
v -0.17993504 -0.0225533294 0.033999971
v -0.180263342 -0.0230359482 0.034199885
v -0.180263342 -0.0230359482 0.033999971
v -0.180459799 -0.0235557008 0.034199885
v -0.180459799 -0.0235557008 0.033999971
v -0.180527629 -0.0241057324 0.034199885
v -0.180527629 -0.0241057324 0.033999971
v -0.179187478 -0.021996324 0.033999971
v -0.17901677 -0.0219073939 0.034199885
v -0.179477991 -0.0221476602 0.034199885
v -0.17901677 -0.0219073939 0.033999971
v -0.178494991 -0.0217835355 0.033999971
v -0.178494991 -0.0217835355 0.034199885
v -0.178477587 -0.023115282 0.034199885
v -0.178477587 -0.023115282 0.033999971
v -0.178503694 -0.0231183219 0.033999971
v -0.178503694 -0.0231183219 0.034199885
v -0.178725065 -0.0231744694 0.033999971
v -0.178725065 -0.0231744694 0.034199885
v -0.178940953 -0.0232877779 0.033999971
v -0.178940953 -0.0232877779 0.034199885
v -0.179150762 -0.0234742808 0.033999971
v -0.179150762 -0.0234742808 0.034199885
v -0.179304422 -0.0236990499 0.033999971
v -0.179304422 -0.0236990499 0.034199885
v -0.179397167 -0.0239423561 0.033999971
v -0.179397167 -0.0239423561 0.034199885
v -0.179429592 -0.0242028284 0.033999971
v -0.179429592 -0.0242028284 0.034199885
v -0.178447069 -0.023112123 0.034199885
v -0.178447069 -0.023112123 0.033999971
v -0.18052298 -0.00424290177 0.033999971
v -0.18052298 -0.00424290177 0.034199885
v -0.179187478 -0.00437474725 0.033999971
v -0.17909223 -0.00438416478 0.034199885
v -0.17909223 -0.00438416478 0.033999971
v -0.178478183 -0.00443327901 0.034199885
v -0.178478183 -0.00443327901 0.033999971
v -0.178763689 -0.00441182134 0.033999971
v -0.178763689 -0.00441182134 0.034199885
v -0.179098429 -0.00523764369 0.033999971
v -0.179098429 -0.00523764369 0.034199885
v -0.179187478 -0.00530070541 0.033999971
v -0.180129947 -0.00596839664 0.034199885
v -0.180129947 -0.00596839664 0.033999971
v -0.18013698 -0.00597358224 0.034199885
v -0.18052298 -0.00624597547 0.034199885
v -0.18013698 -0.00597358224 0.033999971
v -0.18052298 -0.00624597547 0.033999971
v -0.176415028 -0.00919604776 0.034199885
v -0.176415028 -0.00753152845 0.034199885
v -0.176415028 -0.00919604776 0.033999971
v -0.176415028 -0.00753152845 0.033999971
v -0.178429784 -0.0101799416 0.034199885
v -0.178494991 -0.010186677 0.034199885
v -0.178429784 -0.0101799416 0.033999971
v -0.178494991 -0.010186677 0.033999971
v -0.17947811 -0.0105509209 0.033999971
v -0.179923953 -0.010943954 0.034199885
v -0.179923953 -0.010943954 0.033999971
v -0.17993492 -0.0109564709 0.034199885
v -0.17993492 -0.0109564709 0.033999971
v -0.180263342 -0.0114390301 0.034199885
v -0.180263342 -0.0114390301 0.033999971
v -0.180459799 -0.0119588422 0.034199885
v -0.180459799 -0.0119588422 0.033999971
v -0.180527629 -0.0125088739 0.034199885
v -0.180527629 -0.0125088739 0.033999971
v -0.179187478 -0.0103994655 0.033999971
v -0.17901689 -0.010310595 0.034199885
v -0.17947811 -0.0105509209 0.034199885
v -0.17901689 -0.010310595 0.033999971
v -0.178477587 -0.0115183639 0.034199885
v -0.178477587 -0.0115183639 0.033999971
v -0.178503694 -0.0115214038 0.033999971
v -0.178503694 -0.0115214038 0.034199885
v -0.178725065 -0.0115775513 0.033999971
v -0.178725065 -0.0115775513 0.034199885
v -0.178940953 -0.0116909194 0.033999971
v -0.178940953 -0.0116909194 0.034199885
v -0.179150762 -0.0118774223 0.033999971
v -0.179150762 -0.0118774223 0.034199885
v -0.179304422 -0.0121021914 0.033999971
v -0.179304422 -0.0121021914 0.034199885
v -0.179397167 -0.0123454976 0.033999971
v -0.179397167 -0.0123454976 0.034199885
v -0.179429592 -0.0126059699 0.033999971
v -0.179429592 -0.0126059699 0.034199885
v -0.177495183 -0.0124073076 0.034199885
v -0.177495183 -0.0124073076 0.033999971
v -0.17751819 -0.0121923732 0.033999971
v -0.17751819 -0.0121923732 0.034199885
v -0.177591981 -0.0119816708 0.033999971
v -0.177591981 -0.0119816708 0.034199885
v -0.17770821 -0.0118050623 0.033999971
v -0.17770821 -0.0118050623 0.034199885
v -0.177859367 -0.0116660046 0.033999971
v -0.177859367 -0.0116660046 0.034199885
v -0.178039016 -0.0115686702 0.033999971
v -0.178039016 -0.0115686702 0.034199885
v -0.178245367 -0.0115168142 0.033999971
v -0.178245367 -0.0115168142 0.034199885
v -0.178447069 -0.0115152645 0.033999971
v -0.178447069 -0.0115152645 0.034199885
v -0.177483381 0.0251821828 0.033999971
v -0.177483381 0.0251821828 0.034199885
v -0.177483381 0.0242593241 0.033999971
v -0.177483381 0.0216084671 0.034199885
v -0.177483381 0.0216084671 0.033999971
v -0.176415028 0.0217949701 0.034199885
v -0.176415028 0.0217949701 0.033999971
v -0.179184379 0.0258208466 0.033999971
v -0.179184379 0.0258208466 0.034199885
v -0.179187478 0.025823946 0.033999971
v -0.179274978 0.0259121609 0.034199885
v -0.179274978 0.0259121609 0.033999971
v -0.179387035 0.0260142637 0.034199885
v -0.179387035 0.0260142637 0.033999971
v -0.18052298 0.0269138766 0.034199885
v -0.18052298 0.0252129984 0.034199885
v -0.18052298 0.0269138766 0.033999971
v -0.18052298 0.0252129984 0.033999971
v -0.179436149 0.0244883848 0.034199885
v -0.179436149 0.0244883848 0.033999971
v -0.179436149 0.022535677 0.034199885
v -0.18052298 0.0223453594 0.034199885
v -0.179436149 0.022535677 0.033999971
v -0.18052298 0.0223453594 0.033999971
v -0.18052298 0.0210742307 0.034199885
v -0.18052298 0.0210742307 0.033999971
v -0.180090012 0.010096128 0.034199885
v -0.180090012 0.010096128 0.033999971
v -0.179865183 0.0103056383 0.033999971
v -0.179865183 0.0103056383 0.034199885
v -0.17960185 0.0104491663 0.033999971
v -0.17960185 0.0104491663 0.034199885
v -0.177882613 0.00534027341 0.034199885
v -0.177882613 0.00534027341 0.033999971
v -0.178109349 0.00536345961 0.033999971
v -0.178109349 0.00536345961 0.034199885
v -0.178303899 0.00542979958 0.033999971
v -0.178303899 0.00542979958 0.034199885
v -0.178483786 0.0055467439 0.033999971
v -0.178483786 0.0055467439 0.034199885
v -0.178600968 0.00566571477 0.033999971
v -0.178600968 0.00566571477 0.034199885
v -0.176415028 0.00734817508 0.034199885
v -0.176415028 0.0109158707 0.034199885
v -0.176415028 0.00734817508 0.033999971
v -0.176415028 0.0109158707 0.033999971
v -0.177821101 0.00656836751 0.033999971
v -0.177729072 0.00657784465 0.033999971
v -0.177821101 0.00656836751 0.034199885
v -0.177721562 0.0065785599 0.034199885
v -0.177721562 0.0065785599 0.033999971
v -0.177656235 0.00660109046 0.033999971
v -0.177656235 0.00660109046 0.034199885
v -0.177607955 0.00663178685 0.033999971
v -0.177607955 0.00663178685 0.034199885
v -0.177569331 0.0066721392 0.033999971
v -0.177569331 0.0066721392 0.034199885
v -0.177560152 0.0066850734 0.033999971
v -0.177560152 0.0066850734 0.034199885
v -0.178054513 0.00696134093 0.034199885
v -0.178054513 0.00696134093 0.033999971
v -0.178036393 0.00677299025 0.033999971
v -0.178036393 0.00677299025 0.034199885
v -0.178007783 0.00668841126 0.033999971
v -0.178007783 0.00668841126 0.034199885
v -0.177973808 0.00663506511 0.033999971
v -0.177973808 0.00663506511 0.034199885
v -0.177941383 0.00660460713 0.033999971
v -0.177941383 0.00660460713 0.034199885
v -0.177903833 0.00658350709 0.033999971
v -0.177903833 0.00658350709 0.034199885
v -0.177859844 0.00657134774 0.033999971
v -0.177859844 0.00657134774 0.034199885
v -0.17866856 -0.016336863 0.034199885
v -0.17866856 -0.016336863 0.033999971
v -0.178533019 -0.0164682913 0.033999971
v -0.178533019 -0.0164682913 0.034199885
v -0.17844695 -0.0166072297 0.033999971
v -0.17844695 -0.0166072297 0.034199885
v -0.178410591 -0.0167022395 0.033999971
v -0.178410591 -0.0167022395 0.034199885
v -0.179159822 -0.0161926198 0.033999971
v -0.179159822 -0.0161926198 0.034199885
v -0.179187478 -0.0161947059 0.033999971
v -0.179409327 -0.0162118125 0.034199885
v -0.179409327 -0.0162118125 0.033999971
v -0.179654063 -0.0162693906 0.034199885
v -0.179654063 -0.0162693906 0.033999971
v -0.180090012 -0.0165579962 0.034199885
v -0.180090012 -0.0165579962 0.033999971
v -0.179884376 -0.0163798976 0.033999971
v -0.179884376 -0.0163798976 0.034199885
v -0.179690422 -0.0162817287 0.033999971
v -0.179690422 -0.0162817287 0.034199885
v -0.18052298 -0.0180961537 0.033999971
v -0.18052298 -0.0180961537 0.034199885
v -0.18052298 -0.0188768553 0.033999971
v -0.18052298 -0.0217067647 0.034199885
v -0.18052298 -0.0217067647 0.033999971
v -0.177953185 -0.0173469829 0.034199885
v -0.177953185 -0.0173469829 0.033999971
v -0.178003253 -0.0174678611 0.033999971
v -0.178003253 -0.0174678611 0.034199885
v -0.178023519 -0.0176099586 0.033999971
v -0.178023519 -0.0176099586 0.034199885
v -0.178023757 -0.0176294493 0.033999971
v -0.178023757 -0.0176294493 0.034199885
v -0.177483381 -0.0175373602 0.034199885
v -0.177483381 -0.0175373602 0.033999971
v -0.177497329 -0.0174109387 0.033999971
v -0.177497329 -0.0174109387 0.034199885
v -0.177529515 -0.017319386 0.033999971
v -0.177529515 -0.017319386 0.034199885
v -0.176657499 -0.0163492012 0.034199885
v -0.176657499 -0.0163492012 0.033999971
v -0.176523627 -0.0166307139 0.033999971
v -0.176523627 -0.0166307139 0.034199885
v -0.176427783 -0.0171036172 0.033999971
v -0.176427783 -0.0171036172 0.034199885
v -0.176415028 -0.0173961568 0.033999971
v -0.176415028 -0.0173961568 0.034199885
v -0.177379073 -0.0159716058 0.033999971
v -0.177379073 -0.0159716058 0.034199885
v -0.177571715 -0.015985136 0.034199885
v -0.177771987 -0.0160360384 0.034199885
v -0.177771987 -0.0160360384 0.033999971
v -0.177729072 -0.0160251307 0.033999971
v -0.177571715 -0.015985136 0.033999971
v -0.178284706 -0.0164382505 0.034199885
v -0.178284706 -0.0164382505 0.033999971
v -0.178154768 -0.0162781524 0.033999971
v -0.178154768 -0.0162781524 0.034199885
v -0.178072871 -0.0162048983 0.033999971
v -0.178072871 -0.0162048983 0.034199885
v -0.178901853 -0.0201470899 0.034199885
v -0.179466786 -0.0202453184 0.034199885
v -0.178901853 -0.0201470899 0.033999971
v -0.179466786 -0.0202453184 0.033999971
v -0.178901853 -0.0178076076 0.034199885
v -0.178901853 -0.0178076076 0.033999971
v -0.179135265 -0.0174514699 0.034199885
v -0.179135265 -0.0174514699 0.033999971
v -0.179208697 -0.0174580264 0.033999971
v -0.179208697 -0.0174580264 0.034199885
v -0.179275097 -0.0174784112 0.033999971
v -0.179275097 -0.0174784112 0.034199885
v -0.179334225 -0.0175142932 0.033999971
v -0.179334225 -0.0175142932 0.034199885
v -0.179380836 -0.0175618577 0.033999971
v -0.179380836 -0.0175618577 0.034199885
v -0.176415028 0.0213714195 0.033999971
v -0.176415028 0.0209488821 0.033999971
v -0.176415028 0.0213714195 0.034199885
v -0.176415028 0.0184671831 0.033999971
v -0.176415028 0.016622181 0.034199885
v -0.176415028 0.016622181 0.033999971
v -0.177483381 0.0203582001 0.034199885
v -0.177483381 0.0203582001 0.033999971
v -0.176860513 0.0209488821 0.033999971
v -0.176415028 0.0161108923 0.034199885
v -0.177483381 0.0150915337 0.034199885
v -0.176415028 0.0161108923 0.033999971
v -0.177483381 0.0150915337 0.033999971
v -0.176415028 0.0114440871 0.034199885
v -0.177483381 0.0123528791 0.034199885
v -0.177483381 0.010424788 0.034199885
v -0.177483381 0.0136300278 0.034199885
v -0.18052298 0.0130897713 0.034199885
v -0.18052298 0.0118186426 0.034199885
v -0.178908052 0.0153589797 0.034199885
v -0.177974643 0.0162432146 0.034199885
v -0.178908052 0.0153589797 0.033999971
v -0.177974643 0.0162432146 0.033999971
v -0.158477964 0.00699883225 0.034199885
v -0.158477964 0.00699883225 0.033999971
v -0.158224644 0.00906902078 0.033999971
v -0.158224644 0.00906902078 0.034199885
v -0.157502951 0.0109599781 0.033999971
v -0.157502951 0.0109599781 0.034199885
v -0.156333269 0.0126506043 0.033999971
v -0.156333269 0.0126506043 0.034199885
v -0.155945601 0.0129945827 0.033999971
v -0.154806675 0.0140048814 0.034199885
v -0.154806675 0.0140048814 0.033999971
v -0.152918162 0.0149896694 0.033999971
v -0.152918162 0.0149896694 0.034199885
v -0.150826158 0.0154740763 0.033999971
v -0.150826158 0.0154740763 0.034199885
v -0.149959149 0.0155176473 0.033999971
v -0.149959149 0.0155176473 0.034199885
v -0.158477964 -0.00428778407 0.033999971
v -0.158477964 -0.00215518949 0.033999971
v -0.158477964 -0.00428778407 0.034199885
v -0.158477964 0.00449954989 0.033999971
v -0.149959149 0.0094363046 0.034199885
v -0.149959149 0.0094363046 0.033999971
v -0.150554122 0.0093631697 0.033999971
v -0.150554122 0.0093631697 0.034199885
v -0.151101174 0.00915282491 0.033999971
v -0.151101174 0.00915282491 0.034199885
v -0.151585521 0.00881444934 0.033999971
v -0.151585521 0.00881444934 0.034199885
v -0.151942553 0.00841593268 0.033999971
v -0.151942553 0.00841593268 0.034199885
v -0.152233066 0.00787865642 0.033999971
v -0.152233066 0.00787865642 0.034199885
v -0.152380766 0.00727903369 0.033999971
v -0.152380766 0.00727903369 0.034199885
v -0.152396621 0.00699883225 0.033999971
v -0.152396621 0.00699883225 0.034199885
v -0.147521676 -0.00171953914 0.034199885
v -0.151670159 0.00205546143 0.034199885
v -0.147521676 -0.00171953914 0.033999971
v -0.151670159 0.00205546143 0.033999971
v -0.141440333 0.00699883225 0.033999971
v -0.141440333 0.00449954989 0.033999971
v -0.141440333 0.00699883225 0.034199885
v -0.141440333 -0.00215518949 0.033999971
v -0.141440333 -0.0144354748 0.034199885
v -0.141440333 -0.0130841779 0.033999971
v -0.141440333 -0.0144354748 0.033999971
v -0.176768841 0.000777061013 0.034199885
v -0.176415028 0.000571663407 0.034199885
v -0.176768841 0.000777061013 0.033999971
v -0.176415028 0.000571663407 0.033999971
v -0.177729072 0.00284897807 0.033999971
v -0.177703084 0.00283562663 0.033999971
v -0.177703084 0.00283562663 0.034199885
v -0.179187478 0.00359862569 0.033999971
v -0.18052298 0.00428521159 0.034199885
v -0.18052298 0.00428521159 0.033999971
v -0.18052298 -0.000492160293 0.034199885
v -0.179466786 0.000465745954 0.034199885
v -0.18052298 -0.000492160293 0.033999971
v -0.179466786 0.000465745954 0.033999971
v -0.179466786 0.00187807801 0.034199885
v -0.179466786 0.00187807801 0.033999971
v -0.179466786 0.00149124387 0.034199885
v -0.179466786 0.00149124387 0.033999971
f 1 2 3
f 3 2 4
f 3 4 5
f 5 4 6
f 6 4 7
f 6 7 8
f 8 7 9
f 9 7 10
f 9 10 11
f 12 13 14
f 14 13 15
f 14 15 10
f 10 15 16
f 10 16 11
f 17 18 12
f 12 18 19
f 12 19 13
f 20 21 17
f 17 21 22
f 17 22 18
f 23 24 20
f 20 24 25
f 20 25 21
f 26 27 28
f 28 27 29
f 29 30 28
f 28 30 31
f 28 31 23
f 23 31 32
f 23 32 24
f 33 34 35
f 35 34 36
f 35 36 28
f 28 36 37
f 28 37 26
f 38 39 40
f 40 39 41
f 40 41 42
f 38 43 39
f 39 43 44
f 39 44 45
f 45 44 46
f 45 46 47
f 47 46 48
f 47 48 35
f 35 48 49
f 35 49 33
f 50 51 52
f 52 51 53
f 52 53 54
f 54 53 55
f 54 55 56
f 56 55 57
f 56 57 58
f 50 52 59
f 59 52 60
f 59 60 61
f 61 60 62
f 62 60 63
f 62 63 64
f 64 63 65
f 65 63 66
f 65 66 67
f 67 66 68
f 67 68 69
f 70 71 68
f 68 71 72
f 68 72 69
f 70 68 73
f 73 68 74
f 73 74 75
f 75 74 76
f 75 76 77
f 78 79 80
f 80 79 81
f 80 81 76
f 76 81 82
f 76 82 77
f 78 80 83
f 83 80 84
f 83 84 85
f 85 84 86
f 86 84 87
f 86 87 88
f 88 87 89
f 89 87 90
f 89 90 91
f 92 93 94
f 94 95 92
f 92 95 96
f 92 96 97
f 97 98 92
f 92 98 99
f 92 99 90
f 90 99 100
f 90 100 91
f 93 92 101
f 101 92 102
f 101 102 103
f 104 105 106
f 106 105 107
f 106 107 108
f 108 107 109
f 108 109 110
f 110 109 111
f 110 111 112
f 112 111 113
f 112 113 114
f 114 113 115
f 114 115 116
f 116 115 117
f 116 117 118
f 118 117 119
f 118 119 120
f 120 119 121
f 120 121 122
f 122 121 123
f 122 123 124
f 124 123 125
f 124 125 126
f 126 125 127
f 126 127 128
f 128 127 129
f 130 131 132
f 132 131 133
f 134 129 135
f 135 129 127
f 135 127 125
f 136 137 138
f 138 137 139
f 138 139 140
f 125 123 135
f 135 123 121
f 135 121 141
f 142 143 144
f 144 143 145
f 144 145 146
f 147 134 148
f 148 134 135
f 148 135 138
f 138 135 144
f 138 144 136
f 136 144 146
f 149 150 148
f 150 151 148
f 148 151 152
f 148 152 153
f 153 154 148
f 148 154 155
f 148 155 147
f 117 156 119
f 119 156 157
f 119 157 121
f 121 157 158
f 121 158 141
f 159 160 133
f 161 162 130
f 130 162 163
f 130 163 164
f 140 165 138
f 138 165 166
f 138 166 130
f 130 166 167
f 130 167 161
f 168 169 170
f 170 169 171
f 172 173 174
f 174 173 175
f 174 175 176
f 177 113 178
f 178 113 111
f 178 111 109
f 159 133 179
f 180 181 182
f 180 182 174
f 174 182 183
f 174 183 172
f 144 184 142
f 142 184 185
f 142 185 180
f 180 185 186
f 180 186 181
f 187 188 115
f 115 188 189
f 115 189 117
f 117 189 190
f 117 190 156
f 177 191 113
f 113 191 192
f 113 192 115
f 115 192 193
f 115 193 187
f 133 194 195
f 133 196 197
f 198 178 132
f 109 107 178
f 178 107 105
f 178 105 132
f 132 105 199
f 132 199 148
f 148 199 200
f 148 200 149
f 164 201 130
f 130 201 202
f 130 202 170
f 170 202 203
f 170 203 168
f 197 204 133
f 133 204 205
f 133 205 179
f 160 206 133
f 133 206 207
f 133 207 132
f 132 207 208
f 132 208 198
f 55 53 131
f 195 209 133
f 133 209 210
f 133 210 196
f 170 211 130
f 130 211 58
f 130 58 131
f 131 58 57
f 131 57 55
f 53 51 131
f 131 51 50
f 131 50 59
f 59 61 131
f 131 61 62
f 131 62 64
f 64 65 131
f 131 65 67
f 131 67 69
f 171 212 213
f 176 175 171
f 171 175 214
f 171 214 212
f 213 215 171
f 171 215 216
f 171 216 170
f 217 218 219
f 219 218 220
f 221 222 223
f 223 222 224
f 223 224 225
f 226 227 223
f 223 227 228
f 223 228 104
f 225 229 223
f 223 229 230
f 223 230 226
f 231 104 106
f 120 122 220
f 220 122 124
f 124 126 220
f 220 126 128
f 220 128 219
f 219 128 232
f 219 232 223
f 223 232 233
f 223 233 221
f 104 231 223
f 223 231 234
f 223 234 235
f 235 234 236
f 235 236 237
f 106 108 231
f 231 108 110
f 231 110 112
f 238 239 218
f 112 114 231
f 231 114 116
f 231 116 220
f 220 116 118
f 220 118 120
f 237 240 235
f 235 240 241
f 235 241 242
f 243 244 217
f 217 244 245
f 245 246 217
f 217 246 247
f 217 247 218
f 218 247 248
f 218 248 238
f 249 250 234
f 242 251 235
f 235 251 252
f 235 252 217
f 217 252 253
f 217 253 243
f 249 234 254
f 250 255 234
f 234 255 256
f 234 256 236
f 239 257 218
f 218 257 258
f 218 258 234
f 234 258 259
f 234 259 254
f 260 261 262
f 263 264 265
f 265 264 266
f 266 267 265
f 265 267 268
f 265 268 269
f 269 270 265
f 265 270 271
f 265 271 272
f 272 273 265
f 265 273 274
f 265 274 260
f 262 275 276
f 277 278 279
f 261 280 262
f 262 280 281
f 262 281 275
f 278 282 279
f 279 282 283
f 279 283 284
f 285 286 287
f 287 286 288
f 289 290 291
f 260 262 265
f 265 262 292
f 265 292 287
f 287 292 293
f 287 293 285
f 289 291 294
f 295 296 297
f 298 299 292
f 292 299 300
f 292 300 301
f 276 302 262
f 262 302 303
f 262 303 279
f 279 303 304
f 279 304 277
f 301 305 292
f 292 305 306
f 292 306 293
f 288 307 287
f 287 307 308
f 287 308 291
f 291 308 309
f 291 309 294
f 296 310 297
f 297 310 311
f 297 311 292
f 292 311 312
f 292 312 298
f 313 314 297
f 297 314 315
f 297 315 295
f 290 313 291
f 291 313 297
f 291 297 263
f 263 297 279
f 263 279 264
f 264 279 284
f 316 317 318
f 318 317 319
f 318 319 320
f 321 322 323
f 323 322 324
f 324 325 323
f 323 325 326
f 323 326 327
f 327 328 323
f 323 328 329
f 323 329 330
f 320 321 318
f 318 321 323
f 318 323 331
f 331 323 332
f 331 332 333
f 333 332 334
f 333 334 335
f 335 334 336
f 335 336 337
f 337 336 338
f 337 338 339
f 339 338 340
f 339 340 341
f 341 340 342
f 341 342 343
f 343 342 344
f 343 344 345
f 345 344 346
f 347 348 349
f 350 351 352
f 352 351 353
f 352 353 316
f 349 350 347
f 347 350 352
f 347 352 354
f 354 352 355
f 354 355 356
f 356 355 357
f 356 357 358
f 358 357 359
f 358 359 360
f 360 359 361
f 360 361 362
f 362 361 363
f 362 363 364
f 364 363 365
f 364 365 366
f 366 365 367
f 366 367 368
f 368 367 369
f 370 371 372
f 373 374 375
f 376 377 378
f 379 380 377
f 381 279 382
f 383 384 385
f 385 384 381
f 378 386 387
f 377 380 378
f 378 380 388
f 378 388 386
f 218 379 389
f 389 379 377
f 389 377 390
f 390 377 376
f 390 376 391
f 391 376 392
f 381 382 385
f 385 382 393
f 385 393 394
f 374 392 375
f 375 392 376
f 375 376 395
f 395 376 378
f 395 378 396
f 396 378 387
f 393 397 394
f 394 397 398
f 394 398 399
f 396 400 395
f 395 400 401
f 395 401 375
f 375 401 402
f 375 402 373
f 403 383 404
f 404 383 385
f 404 385 405
f 405 385 394
f 405 394 406
f 406 394 399
f 406 399 407
f 407 399 372
f 407 372 371
f 371 408 402
f 402 408 409
f 402 409 373
f 400 410 401
f 401 410 411
f 401 411 402
f 402 411 371
f 410 412 411
f 411 412 371
f 398 413 399
f 399 413 414
f 399 414 372
f 372 414 415
f 372 415 370
f 387 403 396
f 396 403 404
f 396 404 400
f 400 404 405
f 400 405 410
f 410 405 406
f 410 406 412
f 412 406 407
f 412 407 371
f 234 416 218
f 218 416 379
f 262 279 417
f 417 279 381
f 383 418 384
f 384 418 419
f 384 419 381
f 381 419 420
f 381 420 417
f 403 421 383
f 383 421 422
f 383 422 418
f 423 424 387
f 387 424 425
f 387 425 403
f 403 425 426
f 403 426 421
f 386 388 427
f 427 428 386
f 386 428 429
f 386 429 387
f 387 429 430
f 387 430 423
f 416 431 379
f 379 431 432
f 379 432 380
f 380 432 433
f 380 433 388
f 388 433 434
f 388 434 427
f 435 436 437
f 437 436 438
f 439 435 440
f 440 435 437
f 440 437 441
f 436 442 438
f 438 442 443
f 438 443 444
f 292 445 446
f 446 445 447
f 446 447 448
f 448 447 449
f 450 451 452
f 452 451 453
f 452 453 454
f 454 453 455
f 454 455 449
f 449 455 456
f 449 456 448
f 457 458 459
f 459 458 460
f 459 460 461
f 461 460 462
f 461 462 450
f 450 462 463
f 450 463 451
f 464 465 466
f 466 465 467
f 466 467 468
f 468 467 469
f 468 469 470
f 470 469 471
f 470 471 457
f 457 471 472
f 457 472 458
f 473 474 475
f 475 474 476
f 475 476 464
f 464 476 477
f 464 477 465
f 478 479 473
f 473 479 480
f 473 480 474
f 128 129 232
f 232 129 134
f 232 134 233
f 233 134 147
f 233 147 221
f 221 147 155
f 221 155 222
f 222 155 154
f 222 154 224
f 224 154 153
f 224 153 225
f 225 153 152
f 225 152 229
f 229 152 151
f 229 151 230
f 230 151 150
f 230 150 226
f 226 150 149
f 226 149 227
f 227 149 200
f 227 200 228
f 228 200 199
f 228 199 104
f 104 199 105
f 481 482 483
f 483 482 484
f 483 484 485
f 485 484 486
f 485 486 487
f 487 486 488
f 487 488 489
f 489 488 490
f 489 490 491
f 491 490 492
f 491 492 493
f 493 492 494
f 493 494 495
f 495 494 496
f 495 496 497
f 497 496 498
f 497 498 499
f 499 498 500
f 499 500 501
f 501 500 502
f 501 502 503
f 503 502 504
f 503 504 505
f 505 504 506
f 505 506 507
f 507 506 508
f 507 508 509
f 509 508 510
f 509 510 511
f 511 510 512
f 511 512 513
f 513 512 514
f 513 514 515
f 515 514 516
f 515 516 517
f 517 516 518
f 517 518 519
f 519 518 520
f 519 520 521
f 521 520 522
f 521 522 523
f 523 522 524
f 523 524 525
f 525 524 526
f 525 526 527
f 527 526 528
f 527 528 529
f 529 528 530
f 529 530 531
f 531 530 532
f 531 532 533
f 533 532 534
f 533 534 535
f 535 534 536
f 535 536 481
f 481 536 482
f 537 80 538
f 538 80 76
f 538 76 539
f 539 76 74
f 539 74 540
f 540 74 68
f 540 68 541
f 541 68 66
f 541 66 542
f 542 66 63
f 542 63 543
f 543 63 60
f 543 60 544
f 544 60 52
f 544 52 545
f 545 52 54
f 545 54 546
f 546 54 56
f 546 56 547
f 547 56 548
f 547 548 549
f 549 548 550
f 549 550 551
f 551 550 552
f 551 552 553
f 553 552 554
f 553 554 555
f 555 554 556
f 555 556 557
f 557 556 558
f 557 558 559
f 559 558 560
f 559 560 561
f 561 560 562
f 561 562 563
f 563 562 564
f 563 564 565
f 565 564 566
f 565 566 567
f 567 566 568
f 567 568 569
f 569 568 570
f 569 570 571
f 571 570 572
f 571 572 573
f 573 572 102
f 573 102 574
f 574 102 92
f 574 92 575
f 575 92 90
f 575 90 576
f 576 90 87
f 576 87 577
f 577 87 84
f 577 84 537
f 537 84 80
f 578 579 580
f 580 579 581
f 578 582 579
f 579 582 583
f 579 583 584
f 584 585 579
f 579 585 586
f 579 586 581
f 581 586 587
f 581 587 588
f 588 589 581
f 581 589 590
f 581 590 591
f 592 593 594
f 592 594 595
f 595 594 596
f 595 596 597
f 597 596 598
f 597 598 599
f 599 598 600
f 599 600 601
f 601 600 602
f 601 602 603
f 603 602 604
f 603 604 605
f 605 604 606
f 605 606 607
f 607 606 608
f 607 608 609
f 609 608 610
f 609 610 611
f 611 610 612
f 611 612 613
f 613 612 614
f 613 614 615
f 615 614 616
f 615 616 617
f 595 597 617
f 617 597 599
f 609 611 613
f 618 619 617
f 617 619 592
f 617 592 595
f 618 620 619
f 619 620 621
f 619 621 622
f 599 601 617
f 617 601 603
f 617 603 605
f 605 607 617
f 617 607 609
f 617 609 615
f 615 609 613
f 623 624 622
f 622 624 625
f 622 625 626
f 626 627 622
f 622 627 628
f 622 628 619
f 629 630 631
f 631 630 632
f 633 634 635
f 636 637 631
f 631 637 638
f 631 638 629
f 636 639 637
f 637 639 640
f 637 640 641
f 632 642 631
f 631 642 643
f 631 643 644
f 644 645 631
f 631 645 633
f 631 633 646
f 646 633 635
f 647 648 641
f 641 648 649
f 641 649 650
f 650 651 641
f 641 651 652
f 641 652 637
f 653 654 655
f 655 654 656
f 657 658 659
f 660 661 655
f 655 661 662
f 655 662 653
f 660 663 661
f 661 663 664
f 661 664 665
f 656 666 655
f 655 666 667
f 655 667 668
f 668 669 655
f 655 669 657
f 655 657 670
f 670 657 659
f 671 672 665
f 665 672 673
f 665 673 674
f 674 675 665
f 665 675 676
f 665 676 661
f 677 678 679
f 677 679 680
f 680 679 681
f 680 681 682
f 683 684 685
f 685 684 686
f 687 688 689
f 689 688 690
f 219 148 217
f 217 148 138
f 691 692 693
f 691 693 694
f 694 693 695
f 694 695 696
f 697 698 699
f 697 699 700
f 700 699 692
f 700 692 691
f 701 702 703
f 701 703 704
f 704 703 705
f 704 705 706
f 706 705 707
f 706 707 708
f 709 710 711
f 709 711 712
f 712 711 713
f 712 713 714
f 715 716 717
f 715 717 718
f 718 717 719
f 718 719 720
f 721 722 723
f 723 722 724
f 725 726 727
f 725 727 728
f 728 727 729
f 728 729 730
f 730 729 731
f 730 731 732
f 732 731 733
f 732 733 734
f 734 733 735
f 734 735 736
f 737 738 739
f 737 739 740
f 740 739 741
f 740 741 742
f 743 744 745
f 743 745 746
f 746 745 747
f 746 747 748
f 748 747 749
f 748 749 750
f 751 752 753
f 751 753 754
f 754 753 755
f 754 755 756
f 756 755 757
f 756 757 758
f 758 757 759
f 758 759 760
f 760 759 761
f 760 761 762
f 762 761 763
f 762 763 764
f 764 763 765
f 764 765 766
f 767 768 769
f 767 769 770
f 770 769 771
f 770 771 772
f 772 771 773
f 772 773 774
f 774 773 775
f 774 775 776
f 777 778 779
f 779 778 780
f 778 781 780
f 780 781 782
f 783 784 785
f 785 784 786
f 784 787 786
f 786 787 788
f 786 788 789
f 789 788 790
f 789 790 791
f 791 790 792
f 791 792 793
f 793 792 794
f 793 794 795
f 789 791 796
f 797 798 799
f 800 754 801
f 801 754 756
f 801 756 802
f 802 756 758
f 802 758 736
f 736 758 760
f 736 760 734
f 734 760 762
f 734 762 732
f 799 798 742
f 742 798 803
f 742 803 740
f 740 803 743
f 740 743 737
f 737 743 746
f 737 746 804
f 796 791 805
f 806 807 808
f 808 807 767
f 808 767 809
f 809 767 770
f 809 770 810
f 810 770 772
f 810 772 811
f 811 772 774
f 811 774 812
f 812 774 776
f 812 776 800
f 800 776 751
f 800 751 754
f 791 793 805
f 805 793 795
f 805 795 813
f 813 795 814
f 813 814 815
f 781 778 777
f 799 816 797
f 797 816 817
f 797 817 766
f 766 817 725
f 766 725 764
f 764 725 728
f 764 728 762
f 762 728 730
f 762 730 732
f 750 818 819
f 796 820 789
f 789 820 821
f 789 821 786
f 786 821 822
f 786 822 785
f 785 822 823
f 785 823 824
f 824 823 825
f 824 825 806
f 806 825 826
f 806 826 807
f 814 827 815
f 815 827 781
f 815 781 828
f 828 781 777
f 746 748 804
f 804 748 750
f 804 750 829
f 829 750 819
f 830 831 832
f 833 834 832
f 832 834 835
f 832 835 830
f 836 837 838
f 838 837 839
f 838 839 840
f 840 839 841
f 840 841 842
f 842 841 843
f 842 843 844
f 844 843 845
f 844 845 846
f 846 845 834
f 846 834 847
f 847 834 833
f 848 849 850
f 850 849 851
f 850 851 852
f 852 851 853
f 852 853 854
f 854 853 855
f 854 855 856
f 856 855 857
f 856 857 858
f 859 860 848
f 848 860 861
f 848 861 849
f 859 862 860
f 860 862 863
f 860 863 864
f 865 866 867
f 865 867 868
f 868 867 869
f 868 869 870
f 870 869 871
f 870 871 872
f 872 871 873
f 872 873 874
f 874 873 875
f 874 875 876
f 876 875 877
f 876 877 878
f 878 877 879
f 878 879 880
f 865 881 866
f 866 881 882
f 883 884 885
f 885 884 886
f 885 886 887
f 888 889 890
f 888 890 891
f 891 890 887
f 891 887 886
f 892 893 894
f 894 893 895
f 894 895 896
f 897 898 899
f 899 898 900
f 901 902 903
f 903 902 904
f 905 906 907
f 907 906 908
f 909 910 911
f 911 910 912
f 911 912 913
f 913 912 914
f 913 914 915
f 915 914 916
f 915 916 917
f 917 916 918
f 917 918 919
f 920 921 909
f 909 921 922
f 909 922 910
f 920 923 921
f 921 923 908
f 921 908 906
f 924 925 926
f 924 926 927
f 927 926 928
f 927 928 929
f 929 928 930
f 929 930 931
f 931 930 932
f 931 932 933
f 933 932 934
f 933 934 935
f 935 934 936
f 935 936 937
f 937 936 938
f 937 938 939
f 940 941 942
f 940 942 943
f 943 942 944
f 943 944 945
f 945 944 946
f 945 946 947
f 947 946 948
f 947 948 949
f 949 948 950
f 949 950 951
f 951 950 952
f 951 952 953
f 953 952 954
f 953 954 955
f 956 957 958
f 958 957 959
f 958 959 960
f 959 961 960
f 960 961 962
f 963 964 965
f 965 964 966
f 965 966 967
f 967 966 968
f 967 968 969
f 970 971 972
f 972 971 973
f 971 974 973
f 973 974 975
f 976 977 978
f 978 977 979
f 977 980 979
f 979 980 981
f 982 983 984
f 982 984 985
f 985 984 986
f 985 986 987
f 988 989 990
f 988 990 991
f 991 990 992
f 991 992 993
f 993 992 994
f 993 994 995
f 995 994 996
f 995 996 997
f 998 999 1000
f 1000 999 1001
f 1002 1003 1004
f 1004 1003 1005
f 1003 1006 1005
f 1005 1006 1007
f 1005 1007 1008
f 1008 1007 1009
f 1008 1009 1010
f 1010 1009 1011
f 1010 1011 1012
f 1012 1011 1013
f 1012 1013 1014
f 1015 1016 1017
f 1015 1017 1018
f 1018 1017 1019
f 1018 1019 1020
f 1020 1019 1021
f 1020 1021 1022
f 1022 1021 1023
f 1022 1023 1024
f 1024 1023 1025
f 1024 1025 1026
f 1026 1025 1027
f 1026 1027 1028
f 1028 1027 1002
f 1028 1002 1004
f 1029 1030 1031
f 1029 1031 1032
f 1032 1031 1033
f 1032 1033 1034
f 1034 1033 1035
f 1034 1035 1036
f 1037 1038 1039
f 1039 1038 1040
f 1039 1040 1041
f 1041 1040 1042
f 1041 1042 1043
f 1044 1045 1046
f 1044 1046 1047
f 1047 1046 1048
f 1047 1048 1049
f 1049 1048 1043
f 1049 1043 1042
f 1050 1051 1052
f 1052 1051 1053
f 1052 1053 1054
f 1055 1056 1057
f 1055 1057 1058
f 1058 1057 1059
f 1058 1059 1060
f 1060 1059 1061
f 1060 1061 1062
f 1063 1064 1065
f 1063 1065 1066
f 1066 1065 1067
f 1066 1067 1068
f 1069 1070 1071
f 1069 1071 1072
f 1072 1071 1073
f 1072 1073 1074
f 1074 1073 1075
f 1074 1075 1076
f 1077 1078 1079
f 1080 1081 1082
f 1080 1082 1079
f 1079 1082 1083
f 1079 1083 1077
f 1084 1085 1086
f 1084 1086 1087
f 1087 1086 1088
f 1087 1088 1089
f 1090 1091 1092
f 1092 1091 1093
f 1094 1090 1095
f 1095 1090 1092
f 1096 1097 1098
f 1096 1098 1099
f 1099 1098 1100
f 1099 1100 1101
f 1101 1100 1102
f 1101 1102 1103
f 1103 1102 1104
f 1103 1104 1105
f 1106 1107 1108
f 1108 1107 1109
f 1108 1109 1110
f 1110 1109 1111
f 1112 1113 1108
f 1108 1113 1114
f 1108 1114 1106
f 1115 1116 1117
f 1117 1116 1118
f 1115 1119 1120
f 1120 1119 1121
f 1116 1115 1122
f 1122 1115 1120
f 1122 1120 1123
f 1123 1120 1124
f 1125 1126 1127
f 1127 1126 1128
f 1129 1130 1131
f 1129 1131 1132
f 1132 1131 1133
f 1132 1133 1134
f 1134 1133 1135
f 1134 1135 1136
f 1136 1135 1137
f 1136 1137 1138
f 1137 1139 1138
f 1138 1139 1140
f 1138 1140 1141
f 1141 1140 1142
f 1141 1142 1143
f 1143 1142 1144
f 1143 1144 1145
f 1146 1147 1148
f 1148 1147 1149
f 1148 1149 1129
f 1129 1149 1130
f 1150 1151 1152
f 1150 1152 1153
f 1153 1152 1154
f 1153 1154 1155
f 1155 1154 1156
f 1155 1156 1157
f 1157 1156 1158
f 1157 1158 1159
f 1159 1158 1160
f 1159 1160 1161
f 1161 1160 1162
f 1161 1162 1163
f 1163 1162 1164
f 1163 1164 1165
f 1166 1167 1168
f 1168 1167 1169
f 1170 1171 1172
f 1172 1171 1173
f 1172 1173 1174
f 1174 1173 1175
f 1174 1175 1176
f 1177 1178 1179
f 1179 1178 1180
f 1181 1182 1183
f 1181 1183 1184
f 1184 1183 1185
f 1184 1185 1186
f 1187 1188 1189
f 1189 1188 1190
f 1191 1192 1193
f 1193 1192 1194
f 1193 1194 1188
f 1188 1194 1190
