v -0.0236299649 -0.237168555 0.061903647
v -0.0236399785 -0.237168555 0.061903647
v -0.0236399785 -0.237174635 0.0619091306
v -0.0236299649 -0.237174635 0.0619091306
v -0.0236399785 -0.237191503 0.0619185482
v -0.0236299649 -0.237191503 0.0619185482
v -0.0236399785 -0.237201397 0.0619224821
v -0.0236299649 -0.237201397 0.0619224821
v 0.0220000132 -0.204450016 0.0708998953
v 0.0220000132 -0.204450016 0.0748998438
v 0.0222458228 -0.204417651 0.0708998953
v 0.0222458228 -0.204417651 0.0748998438
v 0.022474943 -0.20432276 0.0708998953
v 0.022474943 -0.20432276 0.0748998438
v 0.0226717576 -0.204171782 0.0708998953
v 0.0226717576 -0.204171782 0.0748998438
v 0.0228226765 -0.203975027 0.0708998953
v 0.0228226765 -0.203975027 0.0748998438
v 0.0229175671 -0.203745906 0.0708998953
v 0.0229175671 -0.203745906 0.0748998438
v 0.0229499921 -0.203500037 0.0708998953
v 0.0229499921 -0.203500037 0.0748998438
v 0.0220000132 -0.202250009 0.0708998953
v 0.0220000132 -0.202549999 0.0708998953
v 0.0220000132 -0.202250009 0.0748998438
v 0.0220000132 -0.202549999 0.0748998438
v 0.019499956 -0.206000035 0.068399838
v 0.0275999888 -0.206000035 0.068399838
v 0.019499956 -0.206000035 0.0708998953
v 0.0275999888 -0.206000035 0.0708998953
v -0.00417763149 -0.234750097 0.0690842186
v -0.00417763149 -0.23476011 0.0690842186
v -0.00416892921 -0.23476011 0.069014958
v -0.00416892921 -0.234750097 0.069014958
v -0.00414484894 -0.23476011 0.0689502273
v -0.00414484894 -0.234750097 0.0689502273
v -0.00413423931 -0.23476011 0.0689309154
v -0.00413423931 -0.234750097 0.0689309154
v -0.00356739914 -0.234750097 0.0694340978
v -0.00356739914 -0.23476011 0.0694340978
v -0.00349062835 -0.23476011 0.0693440948
v -0.00349062835 -0.234750097 0.0693440948
v -0.00343960678 -0.23476011 0.0692396675
v -0.00343960678 -0.234750097 0.0692396675
v -0.00342863952 -0.23476011 0.0692027126
v -0.00342863952 -0.234750097 0.0692027126
v -0.00382775222 -0.234750097 0.0677104507
v -0.00382775222 -0.23476011 0.0677104507
v -0.00392264282 -0.23476011 0.0677239214
v -0.00406605159 -0.23476011 0.0677990232
v -0.0040931121 -0.234750097 0.0678184543
v -0.0040109769 -0.234750097 0.0677593265
v -0.00392264282 -0.234750097 0.0677239214
v -0.00394684231 -0.23476011 0.0677335773
v -0.0040109769 -0.23476011 0.0677593265
v -0.0040931121 -0.23476011 0.0678184543
v -0.00415939247 -0.23476011 0.0678970132
v -0.00415939247 -0.234750097 0.0678970132
v -0.00420195018 -0.23476011 0.0679830824
v -0.00420195018 -0.234750097 0.0679830824
v -0.00420659935 -0.23476011 0.0679967914
v -0.00420659935 -0.234750097 0.0679967914
v -0.00353545105 -0.234750097 0.0655044828
v -0.00342422878 -0.234750097 0.0655435835
v -0.00353545105 -0.23476011 0.0655044828
v -0.00342422878 -0.23476011 0.0655435835
v -0.00370854294 -0.234750097 0.0666251693
v -0.00365907108 -0.234750097 0.0666251693
v -0.00370854294 -0.23476011 0.0666251693
v -0.00365907108 -0.23476011 0.0666251693
v -0.00407284652 -0.23476011 0.0670227323
v -0.00409084713 -0.234750097 0.0670611177
v -0.00409084713 -0.23476011 0.0670611177
v -0.00411814605 -0.234750097 0.0670940195
v -0.00411814605 -0.23476011 0.0670940195
v -0.00406605159 -0.23476011 0.0669898306
v -0.00406378662 -0.234750097 0.0669786249
v -0.00407284652 -0.234750097 0.0670227323
v -0.00406378662 -0.23476011 0.0669786249
v -0.00406271373 -0.23476011 0.0669543062
v -0.00406271373 -0.234750097 0.0669543062
v 0.00809293831 -0.199356859 0.0680994306
v 0.00810748185 -0.199420338 0.0681102787
v 0.00808316315 -0.199359004 0.0680994306
v 0.00809770668 -0.199422722 0.0681100402
v 0.00809937561 -0.199429755 0.0681112323
v 0.00810938919 -0.199428503 0.0681117092
v 0.00810474003 -0.199452047 0.0681204115
v 0.00811451519 -0.199449782 0.0681202922
v 0.00810855473 -0.199467664 0.0681268488
v 0.00811725701 -0.199460869 0.068124703
v 0.00811153496 -0.199479346 0.0681356702
v 0.00812119091 -0.199476545 0.0681362663
v 0.00813215817 -0.199519341 0.0681676183
v 0.00812250222 -0.199521904 0.0681676183
v 0.00805467213 -0.197841351 0.0685506378
v 0.00804477776 -0.197839682 0.0685506378
v 0.00804477776 -0.197839801 0.0685623203
v 0.00805467213 -0.197841411 0.0685623203
v 0.00804477776 -0.197839861 0.0685738836
v 0.00805467213 -0.19784153 0.0685738836
v 0.00802820767 -0.198026245 0.0680698667
v 0.0080183133 -0.198025053 0.0680698667
v 0.00801819409 -0.198025589 0.0681483064
v 0.00802820767 -0.198026781 0.0681483064
v 0.00801819409 -0.198026125 0.0682267461
v 0.00802808846 -0.198027317 0.0682267461
v -0.177495183 -0.0240041661 0.034199885
v -0.177495183 -0.0247768807 0.034199885
v -0.177495183 -0.0240041661 0.033999971
v -0.177495183 -0.0247768807 0.033999971
v -0.176415028 -0.00507158515 0.034199885
v -0.176415028 -0.00343883512 0.034199885
v -0.176415028 -0.00507158515 0.033999971
v -0.176415028 -0.00343883512 0.033999971
v 0.0096430167 -0.181296949 0.135249189
v 0.0096430167 -0.180823271 0.135249189
v 0.00967806423 -0.181296949 0.135249189
v 0.00967806423 -0.180823271 0.135249189
v 0.0096430167 -0.180823271 0.135036281
v 0.00967806423 -0.180823271 0.135036281
v 0.0173504933 -0.178570096 0.132179907
v 0.0173504933 -0.178535049 0.132179907
v 0.0173190221 -0.178535049 0.132197312
v 0.0173190221 -0.178570096 0.132197312
v 0.017133294 -0.178535049 0.132266215
v 0.017133294 -0.178570096 0.132266215
v 0.0169005975 -0.178535049 0.132292083
v 0.0169005975 -0.178570096 0.132292083
v 0.0137087687 -0.179200952 0.139830044
v 0.0137087687 -0.179200952 0.140355757
v 0.0137087687 -0.182705884 0.139830044
v 0.0137087687 -0.182705884 0.140355757
v 0.010904847 -0.182705884 0.139830044
v 0.010904847 -0.182705884 0.140355757
v 0.010904847 -0.179200952 0.139830044
v 0.010904847 -0.179200952 0.140355757
v 0.0142084941 -0.221250062 0.0665741478
v 0.0141630753 -0.221250062 0.0665741478
v 0.0142084941 -0.221260076 0.0665741478
v 0.0141630753 -0.221260076 0.0665741478
v 0.0140040501 -0.221250062 0.0664380108
v 0.0137853011 -0.221250062 0.0663586174
v 0.0140040501 -0.221260076 0.0664380108
v 0.0137853011 -0.221260076 0.0663586174
v 0.013669072 -0.221250062 0.06737738
v 0.013669072 -0.221250062 0.06716781
v 0.013669072 -0.221260076 0.06737738
v 0.013669072 -0.221260076 0.06716781
v 0.0133633002 -0.221250062 0.0668416534
v 0.0133633002 -0.221260076 0.0668416534
v 0.0133811816 -0.221260076 0.0668813501
v 0.0133811816 -0.221250062 0.0668813501
v 0.0133898839 -0.221260076 0.0669273649
v 0.0133898839 -0.221250062 0.0669273649
v 0.0133905991 -0.221260076 0.0669466768
v 0.0133905991 -0.221250062 0.0669466768
v -0.0359500066 -0.199330931 0.0734999691
v -0.0358399764 -0.199645345 0.071899942
v -0.0358399764 -0.199645345 0.0734999691
v -0.0356628314 -0.199927335 0.071899942
v -0.0356628314 -0.199927335 0.0734999691
v -0.0354272739 -0.200162833 0.071899942
v -0.0354272739 -0.200162833 0.0734999691
v -0.0351453439 -0.200340037 0.071899942
v -0.0351453439 -0.200340037 0.0734999691
v -0.034830989 -0.200450008 0.071899942
v -0.034830989 -0.200450008 0.0734999691
v -0.0344999448 -0.20048732 0.071899942
v -0.0344999448 -0.20048732 0.0734999691
v -0.0359873191 -0.199000006 0.0734999691
v -0.0359873191 -0.199000006 0.071899942
v -0.0359664575 -0.199185019 0.0734999691
v -0.0359664575 -0.199185019 0.071899942
v -0.0359500066 -0.199330931 0.071899942
v -0.0159716026 -0.179467623 0.117731741
v -0.0159716026 -0.179467623 0.116969875
v -0.0159334556 -0.179467623 0.117731741
v -0.0159334556 -0.179467623 0.116969875
v -0.0144477502 -0.178500001 0.117731741
v -0.0144477502 -0.178461914 0.117731741
v -0.0159334556 -0.178500001 0.117731741
v -0.0159716026 -0.178461914 0.117731741
v -0.00418073093 -0.194750016 0.0660138641
v -0.00406950866 -0.194750016 0.0660529647
v -0.00418073093 -0.194760029 0.0660138641
v -0.00406950866 -0.194760029 0.0660529647
v -0.00415378963 -0.194760029 0.0662371431
v -0.00415831958 -0.194760029 0.0662321363
v -0.00442952072 -0.194760029 0.0663507496
v -0.00442952072 -0.194760029 0.0664121423
v -0.00411588108 -0.194760029 0.0664121423
v -0.00411588108 -0.194760029 0.0663531337
v -0.0041225568 -0.194760029 0.0662969862
v -0.00413555061 -0.194760029 0.0662633691
v -0.00418335354 -0.194760029 0.0662119899
v -0.0042136327 -0.194760029 0.0661979232
v -0.00425082599 -0.194760029 0.0661900554
v -0.00427669441 -0.194760029 0.0661887441
v -0.00432342445 -0.194760029 0.0661937509
v -0.00435418045 -0.194760029 0.0662047182
v -0.00437766468 -0.194760029 0.0662198578
v -0.00439125454 -0.194760029 0.0662333284
v -0.00442367946 -0.194760029 0.0662981783
v -0.00441092407 -0.194760029 0.0662628923
v -0.0044664756 -0.194750016 0.0668416534
v -0.00441163933 -0.194750016 0.0668416534
v -0.0044664756 -0.194760029 0.0668416534
v -0.00441163933 -0.194760029 0.0668416534
v 0.00847428883 -0.231205051 0.0714407478
v 0.00847428883 -0.231195037 0.0714407478
v 0.00847619618 -0.231195037 0.0714475427
v 0.00847619618 -0.231205051 0.0714475427
v 0.00847738827 -0.231195037 0.0714524303
v 0.00847738827 -0.231205051 0.0714524303
v 0.00861960495 -0.231195037 0.0714800869
v 0.0086035117 -0.231195037 0.0714782987
v 0.00861960495 -0.231205051 0.0714800869
v 0.0085983857 -0.231205051 0.0714777027
v 0.0085983857 -0.231195037 0.0714777027
v 0.00858455742 -0.231195037 0.0714728151
v 0.00858455742 -0.231205051 0.0714728151
v 0.00857728566 -0.231195037 0.0714685236
v 0.00857728566 -0.231205051 0.0714685236
v 0.0103000983 -0.228195076 0.0717999254
v 0.0104001149 -0.228295093 0.0717999254
v 0.0103000983 -0.228195076 0.0689999376
v 0.0104001149 -0.228295093 0.0689999376
v -0.0218200103 -0.173581188 0.112332872
v -0.0218299047 -0.173581188 0.112332038
v -0.021815838 -0.17358089 0.112290433
v -0.0218258516 -0.17358089 0.11228948
v -0.021811308 -0.173580592 0.112247995
v -0.0218213216 -0.173580592 0.112246922
v -0.0218274013 -0.17326725 0.112305335
v -0.0218175069 -0.17326725 0.112306288
v -0.0218284742 -0.17326731 0.112316898
v -0.0218185798 -0.17326731 0.112317852
v -0.0218229905 -0.17316324 0.1122623
v -0.0218222753 -0.173156207 0.112255863
v -0.0218123809 -0.17315573 0.112257412
v -0.0218125001 -0.173108225 0.112176827
v -0.0218037978 -0.173086767 0.112111977
v -0.021793069 -0.173085396 0.112108043
v -0.0218027249 -0.173085039 0.112105301
v -0.0217928306 -0.173085039 0.112106732
v -0.0218009368 -0.173103158 0.112165741
v -0.0218027249 -0.173107033 0.112178496
v -0.0218165532 -0.173118358 0.112207345
v -0.0218049899 -0.173112099 0.112194947
v -0.0218177453 -0.173124616 0.11221712
v -0.0218078509 -0.173125033 0.112218193
v -0.0218206063 -0.173139875 0.112240842
v -0.0218098775 -0.173134451 0.11223512
v -0.0218105928 -0.173140471 0.112241558
v -0.0218122617 -0.173154955 0.112256936
v -0.021823825 -0.173178141 0.112270645
v -0.0218139306 -0.17317832 0.112271479
v -0.0218250171 -0.173197334 0.112281374
v -0.0218147651 -0.173192327 0.112280181
v -0.0218252555 -0.173204188 0.112283758
v -0.0218152419 -0.173204308 0.112284354
v -0.0217757837 -0.173167472 0.111946395
v -0.0217660085 -0.17316771 0.111948541
v -0.0217708961 -0.173135941 0.111974529
v -0.0217654124 -0.173171823 0.111945203
v -0.0217693463 -0.173222427 0.111912898
v -0.021759452 -0.173222427 0.111914805
v -0.0217638627 -0.173185472 0.111936978
v -0.0217756644 -0.173168366 0.11194568
v -0.0217741147 -0.173180466 0.111937812
v -0.0217736379 -0.173185353 0.111934832
v -0.0217838899 -0.173096125 0.112049869
v -0.0217954532 -0.173093681 0.11205881
v -0.0217937843 -0.173095648 0.1120482
v -0.0217818633 -0.173098569 0.112037352
v -0.0217927114 -0.1730969 0.112041405
v -0.0217780486 -0.173108106 0.112014583
v -0.0217878238 -0.173108284 0.112012914
v -0.0217760221 -0.173112874 0.112003258
v -0.0217859164 -0.173112636 0.112001947
v -0.0217743531 -0.173119788 0.111994079
v -0.0217842475 -0.173119729 0.111992172
v -0.0217714921 -0.173132126 0.111977628
v -0.0217817441 -0.173130159 0.111977986
v -0.0217807904 -0.17313612 0.11197286
v -0.0217438356 -0.173200195 0.111839703
v -0.0217483655 -0.173203473 0.111861042
v -0.0217536107 -0.173200195 0.111837677
v -0.0217581407 -0.173203533 0.111859015
v -0.0217619554 -0.173206274 0.111876777
v -0.021752061 -0.173206155 0.111878327
v -0.0217630283 -0.173208659 0.111882022
v -0.0217531339 -0.173208718 0.11188393
v -0.0217402593 -0.173477297 0.111779026
v -0.0217304841 -0.173477297 0.111781291
v -0.0217298881 -0.173475449 0.111778787
v -0.021733822 -0.173456137 0.111752561
v -0.021724166 -0.173456078 0.111755065
v -0.0217288152 -0.173439209 0.111731342
v -0.0217185632 -0.173436944 0.1117317
v -0.0217283384 -0.173436825 0.111729435
v -0.021718444 -0.173436825 0.11173158
v -0.0217253581 -0.173421864 0.111717752
v -0.0217157022 -0.173421566 0.111720613
v -0.0217248813 -0.173419421 0.111715845
v -0.0217145101 -0.173414772 0.111715725
v -0.0217234508 -0.173406367 0.111710242
v -0.0217136756 -0.173406486 0.111712507
v -0.0217220203 -0.173393195 0.11170452
v -0.0217121259 -0.173389678 0.11170607
v -0.0217215434 -0.173384373 0.11170297
v -0.0217118875 -0.173384433 0.111705116
v -0.0217099801 -0.173343663 0.111697844
v -0.0217196361 -0.173343663 0.111695341
v -0.0217693463 -0.173382883 0.111913017
v -0.0217595712 -0.173382883 0.111915043
v -0.0217652932 -0.173386996 0.11189287
v -0.021752061 -0.17339087 0.111878327
v -0.0217614785 -0.173392599 0.111874751
v -0.0217517034 -0.173391526 0.111876539
v -0.0217456237 -0.173401778 0.111848286
v -0.0217553989 -0.17340136 0.111846021
v -0.0217551604 -0.173401718 0.111844948
v -0.0217445508 -0.173403685 0.11184316
v -0.0217517034 -0.173411136 0.111829451
v -0.0217420474 -0.173411255 0.111831716
v -0.0217506305 -0.173414295 0.111824325
v -0.0217402593 -0.173416619 0.11182361
v -0.0217489616 -0.173422282 0.111816696
v -0.0217390672 -0.173422043 0.111818722
v -0.0217461005 -0.173435276 0.111804417
v -0.0217362062 -0.173436229 0.111805848
v -0.0217452661 -0.173441832 0.111800364
v -0.0217354909 -0.173441772 0.11180251
v -0.0218172685 -0.173333054 0.112212709
v -0.0218073741 -0.173333054 0.112213901
v -0.0218009368 -0.173357968 0.112165741
v -0.0218042747 -0.173382943 0.11211603
v -0.0217943803 -0.173382943 0.112117461
v -0.0217952148 -0.173412566 0.11205881
v -0.0217792407 -0.173432832 0.112021378
v -0.0217890159 -0.173432832 0.112019709
v -0.0218098775 -0.173371558 0.112235836
v -0.0218198911 -0.173371558 0.112234644
v -0.0218123809 -0.173410003 0.112257889
v -0.0218223945 -0.173410003 0.112256697
v -0.021801056 -0.173458164 0.112165741
v -0.0218098775 -0.173462753 0.112155608
v -0.0217999831 -0.173462753 0.112157038
v -0.0217954532 -0.173513477 0.11205881
v -0.021785082 -0.173515503 0.112056545
v -0.0217949763 -0.173515503 0.112054876
v -0.0217948571 -0.173522716 0.112054876
v -0.021785082 -0.173522716 0.112056426
v -0.0217948571 -0.173529987 0.112054757
v -0.021785082 -0.173529987 0.112056426
v -0.0217688695 -0.173673456 0.111910871
v -0.0217590943 -0.173673456 0.111912778
v -0.0217638627 -0.173665588 0.111937693
v -0.0217916385 -0.173597758 0.112034849
v -0.0217906848 -0.17360944 0.112029604
v -0.0217801944 -0.173614686 0.1120271
v -0.0217900888 -0.173614686 0.11202567
v -0.0217794791 -0.17362154 0.112022928
v -0.021788539 -0.173626726 0.11201661
v -0.0217785255 -0.173626666 0.112017563
v -0.0217884198 -0.173627024 0.112016252
v -0.0217768565 -0.173636143 0.112007669
v -0.0217862741 -0.173637395 0.112003854
v -0.0217764989 -0.173637335 0.112005523
v -0.0217857972 -0.173639719 0.112000993
v -0.0217726842 -0.173649375 0.111984423
v -0.0217824594 -0.173648958 0.111982516
v -0.0217717305 -0.173652654 0.11197882
v -0.0217797176 -0.173656707 0.111967019
v -0.0217737571 -0.173666005 0.111935905
v -0.0217817441 -0.173599486 0.112036518
v -0.0217818633 -0.173597996 0.112036875
v -0.0217927114 -0.173584168 0.112041048
v -0.021782817 -0.173578148 0.112042597
v -0.0217928306 -0.173578625 0.112042478
v -0.0216959134 -0.173345869 0.111607245
v -0.0216862575 -0.173345869 0.111609868
v -0.0216986552 -0.173412089 0.11161702
v -0.0216885225 -0.173403387 0.111617855
v -0.0216991321 -0.173417037 0.111618689
v -0.0216895953 -0.173416798 0.111622027
v -0.0217013971 -0.17344219 0.111627153
v -0.0216918603 -0.17344213 0.111629895
v -0.0217018739 -0.173446362 0.111628464
v -0.0216922179 -0.173446362 0.111631206
v -0.0217037812 -0.173457985 0.111635855
v -0.0217019931 -0.17350388 0.111667446
v -0.0217116491 -0.17350388 0.111664942
v -0.0216959134 -0.173468297 0.111645034
v -0.0216941253 -0.173457985 0.111638478
v -0.0217044965 -0.173233454 0.111638478
v -0.0217140332 -0.173181598 0.111673883
v -0.0217043773 -0.173181598 0.111676506
v -0.0216959134 -0.173227255 0.111645034
v -0.0216948405 -0.173233275 0.111640862
v -0.0217024699 -0.173244839 0.111630729
v -0.0216932908 -0.173241382 0.111635259
v -0.0217006818 -0.173260515 0.111624411
v -0.0216911451 -0.173260574 0.111627272
v -0.0216986552 -0.173278694 0.111617259
v -0.0216891185 -0.173277323 0.111620358
v -0.0216981784 -0.173292224 0.111615232
v -0.0216885225 -0.173292224 0.111618093
v -0.0217435971 -0.17311341 0.111838988
v -0.0217290536 -0.173124258 0.111775449
v -0.0217533723 -0.17311341 0.111836842
v -0.0217388288 -0.17312396 0.111773065
v -0.0217371598 -0.173125153 0.111766032
v -0.0217272655 -0.173125689 0.111767343
v -0.0217317954 -0.173134391 0.11174374
v -0.0217220203 -0.173134212 0.111746124
v -0.0217279807 -0.173140829 0.111728123
v -0.0217193977 -0.173138683 0.111734918
v -0.0217250005 -0.17314959 0.111716441
v -0.0217153445 -0.173150187 0.111719302
v -0.0217470542 -0.173114543 0.111854962
v -0.0217568294 -0.173114543 0.111852816
v -0.0217506305 -0.173116569 0.111871532
v -0.0217604057 -0.173116569 0.111869505
v -0.021756591 -0.173082595 0.111900619
v -0.0217664853 -0.173082595 0.111898593
v -0.0217633859 -0.173053448 0.111934475
v -0.021773161 -0.173053448 0.111932567
v -0.0218268052 -0.173074846 0.112299493
v -0.0218169109 -0.173074846 0.112300447
v -0.0218202487 -0.173033481 0.112237981
v -0.0218102351 -0.173033302 0.112238577
v -0.0218201295 -0.173033242 0.112237385
v -0.0218101159 -0.173032467 0.112237266
v -0.0218157188 -0.173016911 0.11220043
v -0.0218057052 -0.173017626 0.112201384
v -0.0218144075 -0.173012083 0.112189344
v -0.0218034402 -0.173009818 0.112182549
v -0.0218115464 -0.173008685 0.112168602
v -0.0217927114 -0.172998314 0.112106017
v -0.0218026057 -0.172998314 0.112104467
v -0.021801056 -0.173007255 0.112165741
v -0.0218016521 -0.17300791 0.112170151
v -0.0218337194 -0.173189645 0.112376741
v -0.021823825 -0.173189645 0.112377575
v -0.0218310968 -0.173127596 0.112344793
v -0.0218212024 -0.173129265 0.112346819
v -0.0218210832 -0.173127775 0.112345508
v -0.0218325273 -0.173380141 0.112519315
v -0.0218320504 -0.173334603 0.112508229
v -0.0218425409 -0.173380141 0.112518838
v -0.021842064 -0.173334603 0.11250799
v -0.021842064 -0.173329656 0.112506798
v -0.0218319312 -0.173324828 0.112505845
v -0.0218418256 -0.173319523 0.112503818
v -0.021831812 -0.173318629 0.11250346
v -0.0218418256 -0.17331845 0.11250346
v -0.0218310968 -0.173279827 0.112488202
v -0.0218409911 -0.173279946 0.112487367
v -0.0218408719 -0.173272495 0.112484268
v -0.0218309776 -0.173275773 0.112486652
v -0.0218402759 -0.173257832 0.112473658
v -0.0218302623 -0.173257892 0.112474135
v -0.0218399182 -0.173248653 0.112467102
v -0.0218299047 -0.173248773 0.112467698
v -0.0218393222 -0.173240368 0.112457088
v -0.0218293086 -0.17324019 0.112457803
v -0.0218378917 -0.173220699 0.112433604
v -0.0218282357 -0.173224394 0.112439683
v -0.0218374149 -0.173217361 0.112427524
v -0.0218274013 -0.173217838 0.112427882
v -0.0218297855 -0.173517113 0.112464717
v -0.0218305007 -0.173498099 0.11247783
v -0.021839799 -0.173517113 0.112464121
v -0.0218405143 -0.17349798 0.112476996
v -0.0218415872 -0.173467045 0.112497738
v -0.0218313352 -0.173476164 0.11249297
v -0.0218417064 -0.173458819 0.112501195
v -0.0218316928 -0.173458581 0.112501195
v -0.0218421832 -0.173438137 0.112509779
v -0.0218321696 -0.173440938 0.112509421
v -0.0218421832 -0.173437421 0.112509898
v -0.0218321696 -0.173437362 0.112510017
v -0.0218321696 -0.173429494 0.112511328
v -0.0218421832 -0.173429553 0.112511209
v -0.0217192784 -0.173419719 0.11365693
v -0.0217197553 -0.173412626 0.113655141
v -0.0217201129 -0.173419719 0.113653472
v -0.0217188016 -0.173426871 0.113658718
v -0.0217197553 -0.173511391 0.113654784
v -0.0217115298 -0.173511629 0.113687924
v -0.0217152253 -0.17346925 0.113673261
v -0.0217205897 -0.173426812 0.113651804
v -0.0217242852 -0.173469012 0.113636664
v -0.0217278615 -0.173511152 0.113621644
v -0.0217294112 -0.173412626 0.113657526
v -0.0217298881 -0.173419719 0.113655857
v -0.0217302457 -0.173426812 0.113654188
v -0.0217285768 -0.173426871 0.113661102
v -0.0217290536 -0.173419719 0.113659314
v -0.0217211858 -0.173511629 0.113690427
v -0.0217248813 -0.17346925 0.113675765
v -0.0217376367 -0.173511152 0.113623909
v -0.0217295304 -0.173511391 0.113657168
v -0.0217065231 -0.173590665 0.113745979
v -0.0217162982 -0.173488681 0.113709143
v -0.0217103378 -0.173590546 0.113732031
v -0.021739544 -0.17353404 0.113615683
v -0.0217295304 -0.173534338 0.11365693
v -0.0217191592 -0.173534636 0.113698176
v -0.0217166558 -0.173562531 0.11370807
v -0.0217140332 -0.173590426 0.113717845
v -0.021744074 -0.173589532 0.113596252
v -0.021741809 -0.173561816 0.113605908
v -0.0217472926 -0.173589473 0.113582066
v -0.0217505113 -0.173589354 0.11356788
v -0.0217416898 -0.173487906 0.113606385
v -0.0217339412 -0.173469012 0.113639048
v -0.0217325107 -0.173386519 0.113644889
v -0.0217291728 -0.173386638 0.113658598
v -0.021725835 -0.173386698 0.113672188
v -0.0217043773 -0.173590426 0.113715342
v -0.0217069999 -0.173562531 0.113705448
v -0.0217095033 -0.173534636 0.113695673
v -0.0217198745 -0.173534338 0.113654545
v -0.0217297689 -0.17353404 0.113613418
v -0.0217342988 -0.173589532 0.113593987
v -0.0217375175 -0.173589473 0.113579801
v -0.0217407361 -0.173589354 0.113565734
v -0.0217706577 -0.173565094 0.113418273
v -0.021768035 -0.173565214 0.113432816
v -0.0217705384 -0.173486714 0.113418869
v -0.0217652932 -0.173565333 0.11344736
v -0.0217618362 -0.173563485 0.113465122
v -0.0217605249 -0.17356277 0.113471798
v -0.0217590943 -0.173560624 0.113478831
v -0.0217705384 -0.173408334 0.113419345
v -0.0217579023 -0.173558836 0.113484553
v -0.0217574254 -0.173557346 0.113486937
v -0.0217533723 -0.173544531 0.113506845
v -0.021751465 -0.173530464 0.113516263
v -0.0217507497 -0.173525636 0.113519481
v -0.0217500344 -0.173518424 0.113522581
v -0.0217496768 -0.173513536 0.113524726
v -0.0217495576 -0.173510735 0.113525203
v -0.0217676774 -0.173408394 0.113434485
v -0.0217488424 -0.173485522 0.113528422
v -0.0217494384 -0.173461323 0.113525442
v -0.0217598096 -0.173411911 0.113474897
v -0.0217495576 -0.173457091 0.113524846
v -0.0217499152 -0.173453455 0.113523415
v -0.0217503921 -0.173447673 0.11352115
v -0.0217507497 -0.173445587 0.1135196
v -0.0217593328 -0.173412268 0.113477639
v -0.0217581407 -0.17341501 0.11348348
v -0.0217557565 -0.173420494 0.113495163
v -0.0217533723 -0.173428063 0.113507083
v -0.0217648164 -0.173408513 0.113449625
v -0.0247271672 -0.175760393 0.144992641
v -0.0247271672 -0.175760393 0.144956282
v -0.0247370616 -0.175760393 0.144992641
v -0.0247370616 -0.175760393 0.144956282
v -0.00895852005 -0.173535411 0.123828939
v -0.00895983135 -0.173535411 0.123838833
v -0.0089617387 -0.173545485 0.123828581
v -0.00896293079 -0.173545485 0.123838476
v -0.00896483814 -0.173555438 0.123828224
v -0.00896638786 -0.173556392 0.123838118
v -0.0089668647 -0.173559432 0.123827985
v -0.00896805679 -0.173559432 0.12383788
v -0.00896960651 -0.173564558 0.123827628
v -0.00897091781 -0.173564796 0.123837522
v -0.00896996414 -0.173565035 0.123827509
v -0.00897115623 -0.173565035 0.123837522
v -0.00897222912 -0.173567657 0.12382727
v -0.00897354042 -0.173567598 0.123837164
v -0.00897282516 -0.173568253 0.12382727
v -0.0089746133 -0.17356879 0.123837045
v -0.00897568618 -0.17357034 0.123826912
v -0.00897687828 -0.17357028 0.123836807
v -0.008978428 -0.173572187 0.123826555
v -0.00898128902 -0.173573141 0.12383633
v -0.00898260032 -0.173573856 0.123826078
v -0.00898367321 -0.173574035 0.123835972
v -0.00900000488 -0.173580592 0.123824051
v -0.00900107776 -0.173580592 0.123834065
v -0.00915306961 -0.17330498 0.123809746
v -0.00914341366 -0.173296814 0.123810581
v -0.0091440097 -0.173297112 0.123820475
v -0.00914031421 -0.173294191 0.1238107
v -0.00913399612 -0.1732899 0.12382131
v -0.00912708198 -0.173287575 0.123811773
v -0.00912791645 -0.173287456 0.123821786
v -0.0091131345 -0.173280601 0.123812965
v -0.00909346496 -0.173273807 0.123824647
v -0.00909227287 -0.173274164 0.123814753
v -0.00909322654 -0.173273747 0.123824647
v -0.00906998073 -0.17326731 0.12381678
v -0.00907093441 -0.17326731 0.123826793
v -0.00915104305 -0.173302178 0.123819998
v -0.00915354644 -0.173305159 0.12381976
v -0.00915330803 -0.173305099 0.123809746
v -0.009160699 -0.173313682 0.123819283
v -0.00916034137 -0.173314815 0.123809269
v -0.00916117584 -0.173314636 0.123819164
v -0.0091632024 -0.173318808 0.123809031
v -0.00916797077 -0.173328345 0.123818687
v -0.00916737472 -0.173328285 0.123808793
v -0.00917190468 -0.173338656 0.123808435
v -0.00917166626 -0.173336034 0.123818449
v -0.00917297756 -0.173343306 0.123808316
v -0.0091734544 -0.173343365 0.123818329
v -0.00918263351 -0.173380916 0.123817733
v -0.00918203746 -0.173380916 0.12380772
v -0.0102598087 -0.173544531 0.123891882
v -0.0102618352 -0.173544531 0.123882106
v -0.0102693454 -0.173530464 0.123893908
v -0.010271372 -0.173530464 0.123884133
v -0.010272564 -0.173525636 0.123894623
v -0.0102745906 -0.173525636 0.123884848
v -0.0102756635 -0.173518424 0.123895219
v -0.01027769 -0.173518424 0.123885444
v -0.0102778093 -0.173513536 0.123895696
v -0.010279955 -0.173513477 0.123885921
v -0.0102781669 -0.173510735 0.123895815
v -0.0102803126 -0.173510735 0.12388604
v -0.0102815047 -0.173485522 0.123896531
v -0.0102835313 -0.173485522 0.123886756
v -0.0102022306 -0.173565333 0.123870305
v -0.0102199927 -0.173563485 0.123873762
v -0.0102003232 -0.173565333 0.12388008
v -0.0102180854 -0.173563485 0.123883537
v -0.0102247611 -0.17356277 0.123884848
v -0.0102261916 -0.173562889 0.123874954
v -0.0102317945 -0.173560624 0.123886279
v -0.010233821 -0.173560564 0.123876384
v -0.0102376357 -0.173558896 0.123887352
v -0.0102396623 -0.173558776 0.123877576
v -0.0102399007 -0.173557346 0.123887828
v -0.0102419273 -0.173557346 0.123878053
v -0.0101452485 -0.173588102 0.123869947
v -0.0101470367 -0.173588102 0.123860053
v -0.0101477519 -0.173486416 0.123860291
v -0.0101459638 -0.173486416 0.123870066
v -0.0101484672 -0.173384731 0.12386041
v -0.010146679 -0.173384731 0.123870185
v 0.0112701043 -0.210522954 0.0619291578
v 0.0112801179 -0.210522954 0.0619291578
v 0.0112801179 -0.210511749 0.0619277273
v 0.0112701043 -0.210511749 0.0619277273
v 0.0112801179 -0.210501795 0.0619237934
v 0.0112701043 -0.210501795 0.0619237934
v 0.0112801179 -0.210492914 0.0619174753
v 0.0112701043 -0.210492914 0.0619174753
v 0.0112801179 -0.210486953 0.0619109188
v 0.0112701043 -0.210486953 0.0619109188
v 0.0112801179 -0.21048135 0.0619010244
v 0.0112701043 -0.21048135 0.0619010244
v 0.0112801179 -0.210478489 0.0618900571
v 0.0112701043 -0.210478489 0.0618900571
v 0.0112801179 -0.210478132 0.0618843351
v 0.0112701043 -0.210478132 0.0618843351
v 0.0112701043 -0.210374002 0.0623339925
v 0.0112801179 -0.210374002 0.0623339925
v 0.0112801179 -0.210422997 0.0623280321
v 0.0112701043 -0.210422997 0.0623280321
v 0.0112801179 -0.210468297 0.0623106275
v 0.0112701043 -0.210468297 0.0623106275
v 0.0112801179 -0.210508947 0.0622824941
v 0.0112701043 -0.210508947 0.0622824941
v 0.0112801179 -0.210512762 0.0622789178
v 0.0112701043 -0.210512762 0.0622789178
v 0.0112801179 -0.210545366 0.0622399364
v 0.0112701043 -0.210545366 0.0622399364
v 0.0112801179 -0.210567598 0.0621933256
v 0.0112701043 -0.210567598 0.0621933256
v 0.0112701043 -0.21057642 0.0621532713
v 0.0112801179 -0.210574691 0.0621611391
v 0.0112801179 -0.21057642 0.0621532713
v 0.0112701043 -0.210181658 0.062034658
v 0.0112801179 -0.210181658 0.062034658
v 0.0112801179 -0.210147207 0.0620304857
v 0.0112701043 -0.210147207 0.0620304857
v 0.0112801179 -0.210115259 0.0620182071
v 0.0112701043 -0.210115259 0.0620182071
v 0.0112801179 -0.210085695 0.0619977031
v 0.0112701043 -0.210085695 0.0619977031
v 0.0112801179 -0.210061793 0.0619704042
v 0.0112701043 -0.210061793 0.0619704042
v 0.0112801179 -0.21004576 0.0619392906
v 0.0112701043 -0.21004576 0.0619392906
v 0.0112701043 -0.211844926 0.0618402277
v 0.0112701043 -0.211922352 0.0620435987
v 0.0112801179 -0.211844926 0.0618402277
v 0.0112801179 -0.211922352 0.0620435987
v 0.0112801179 -0.211781983 0.0618824278
v 0.0112801179 -0.211784308 0.0618845735
v 0.0112801179 -0.211725001 0.0620201145
v 0.0112801179 -0.211694305 0.0620201145
v 0.0112801179 -0.211694305 0.0618633543
v 0.0112801179 -0.211723809 0.0618633543
v 0.0112801179 -0.211752181 0.0618668113
v 0.0112801179 -0.21176893 0.0618732486
v 0.0112801179 -0.211793368 0.0618955408
v 0.0112801179 -0.211800699 0.0619103227
v 0.0112801179 -0.21180505 0.0619283233
v 0.0112801179 -0.211806004 0.0619437013
v 0.0112801179 -0.211802964 0.0619693313
v 0.0112801179 -0.211797183 0.0619841133
v 0.0112801179 -0.211789315 0.0619955574
v 0.0112801179 -0.211783712 0.062001041
v 0.0112801179 -0.211751168 0.0620172535
v 0.0112801179 -0.211768811 0.0620109354
v 0.0112701043 -0.211723988 0.0618402277
v 0.0112701043 -0.211668019 0.0618402277
v 0.0112801179 -0.211723988 0.0618402277
v 0.0112801179 -0.211668019 0.0618402277
v 0.0112701043 -0.211546485 0.0620201145
v 0.0112701043 -0.211546485 0.0619550262
v 0.0112801179 -0.211546485 0.0620201145
v 0.0112801179 -0.211546485 0.0619550262
v 0.0112701043 -0.211358612 0.0617738281
v 0.0112701043 -0.211358612 0.0617964779
v 0.0112801179 -0.211358612 0.0617738281
v 0.0112801179 -0.211358612 0.0617964779
v 0.0112801179 -0.211182003 0.0618974481
v 0.0112801179 -0.211182003 0.0618991171
v 0.0112801179 -0.211123352 0.0618995939
v 0.0112801179 -0.211182003 0.0619130645
v 0.0112801179 -0.211148028 0.0619085346
v 0.0112801179 -0.211131756 0.0619046007
v 0.0112801179 -0.211126094 0.0619017397
v 0.0112801179 -0.211180334 0.0618861232
v 0.0112801179 -0.211120312 0.0618957792
v 0.0112801179 -0.211176579 0.0618769441
v 0.0112801179 -0.211121802 0.0618663345
v 0.0112801179 -0.211124008 0.0618641887
v 0.0112801179 -0.211167877 0.0618663345
v 0.0112801179 -0.211118941 0.061870626
v 0.0112801179 -0.211160724 0.0618615661
v 0.0112801179 -0.211152976 0.0618587051
v 0.0112801179 -0.211143439 0.0618576322
v 0.0112801179 -0.211118047 0.0618910108
v 0.0112801179 -0.211116796 0.0618851696
v 0.0112801179 -0.211171095 0.0618694339
v 0.0112801179 -0.211116617 0.0618811164
v 0.0112801179 -0.211117272 0.0618752752
v 0.0112801179 -0.211129074 0.0618607317
v 0.0112801179 -0.211134796 0.0618585859
v 0.0112701043 -0.211104934 0.0619504963
v 0.0112801179 -0.211104934 0.0619504963
v 0.0112801179 -0.211122518 0.0619615827
v 0.0112701043 -0.211122518 0.0619615827
v 0.0112801179 -0.211138492 0.0619667087
v 0.0112701043 -0.211138492 0.0619667087
v 0.0112801179 -0.211152558 0.06196802
v 0.0112701043 -0.211152558 0.06196802
v 0.0112701043 -0.21106637 0.0618402277
v 0.0112701043 -0.210956995 0.0618402277
v 0.0112801179 -0.21106637 0.0618402277
v 0.0112801179 -0.210956995 0.0618402277
v 0.0112701043 -0.211715345 0.0622413669
v 0.0112701043 -0.211684649 0.0623260055
v 0.0112801179 -0.211715345 0.0622413669
v 0.0112801179 -0.211684649 0.0623260055
v 0.0112701043 -0.211370294 0.062366179
v 0.0112701043 -0.211370294 0.062342814
v 0.0112801179 -0.211370294 0.062366179
v 0.0112801179 -0.211370294 0.062342814
v 0.0112801179 -0.211291795 0.0622777258
v 0.0112701043 -0.211291795 0.0622777258
v 0.0112801179 -0.21134675 0.0622777258
v 0.0112701043 -0.211364512 0.0622777258
v 0.0112801179 -0.211364512 0.0622777258
v 0.0112701043 -0.211291795 0.0622543607
v 0.0112701043 -0.211291795 0.0621860538
v 0.0112801179 -0.211291795 0.0622543607
v 0.0112801179 -0.211291795 0.0621860538
v 0.0112801179 -0.21134675 0.0621860538
v 0.0112701043 -0.211374943 0.0621860538
v 0.0112801179 -0.211374943 0.0621860538
v 0.0112701043 -0.211374943 0.062162808
v 0.0112801179 -0.211374943 0.062162808
v 0.0112701043 -0.211176937 0.0623459135
v 0.0112801179 -0.211176937 0.0623459135
v 0.0112801179 -0.211201971 0.0623429332
v 0.0112701043 -0.211201971 0.0623429332
v 0.0112801179 -0.211222594 0.0623350654
v 0.0112701043 -0.211222594 0.0623350654
v 0.0112801179 -0.211224859 0.0623338733
v 0.0112701043 -0.211224859 0.0623338733
v 0.0112701043 -0.210956995 0.062162808
v 0.0112701043 -0.210956995 0.062366179
v 0.0112801179 -0.210956995 0.062162808
v 0.0112801179 -0.210956995 0.062366179
v 0.0139290675 -0.21105129 0.0612599168
v 0.0141213521 -0.21105129 0.0612599168
v 0.0139290675 -0.21105129 0.0611599002
v 0.0141213521 -0.21105129 0.0611599002
v 0.0148137196 -0.211294894 0.0612599168
v 0.0150508269 -0.211294894 0.0612599168
v 0.0148137196 -0.211294894 0.0611599002
v 0.0150508269 -0.211294894 0.0611599002
v 0.0122300967 -0.212340002 0.0691998516
v 0.0122300967 -0.21220005 0.0691998516
v 0.0122300967 -0.212590044 0.0689498697
v 0.0122300967 -0.211950009 0.0689498697
v 0.0122300967 -0.212590044 0.0631999288
v 0.0122300967 -0.211950009 0.0631999288
v 0.0128701314 -0.209410017 0.0611599002
v 0.0128701314 -0.209410017 0.0579098974
v 0.0122300967 -0.209410017 0.0611599002
v 0.0122300967 -0.209410017 0.0579098974
v 0.0128701314 -0.20980001 0.0576599155
v 0.0128701314 -0.210050051 0.0579098974
v 0.0122300967 -0.20980001 0.0576599155
v 0.0122300967 -0.210050051 0.0579098974
v 0.0114515408 -0.213040059 0.0606599365
v 0.0118800982 -0.213540022 0.0606599365
v 0.0114515408 -0.213040059 0.0611599002
v 0.0118800982 -0.213540022 0.0631999288
v 0.0112801179 -0.212840025 0.0631999288
v 0.0112801179 -0.212840025 0.062367848
v 0.0112801179 -0.212840025 0.0621611391
v 0.0112801179 -0.212840025 0.0621014152
v 0.0112801179 -0.212840025 0.0611599002
v 0.0112801179 -0.212840025 0.061757854
v 0.0112801179 -0.212840025 0.0618384395
v 0.0154101237 -0.21220005 0.0691998516
v 0.0154101237 -0.212340002 0.0691998516
v 0.0154101237 -0.211950009 0.0689498697
v 0.0154101237 -0.212590044 0.0689498697
v 0.0154101237 -0.211950009 0.0631999288
v 0.0154101237 -0.212590044 0.0631999288
v 0.014770089 -0.21220005 0.0576599155
v 0.014770089 -0.212340002 0.0576599155
v 0.014770089 -0.211950009 0.0579098974
v 0.014770089 -0.212590044 0.0579098974
v 0.014770089 -0.211950009 0.0611599002
v 0.014770089 -0.212590044 0.0611599002
v 0.0154101237 -0.209410017 0.0611599002
v 0.0154101237 -0.209410017 0.0579098974
v 0.0150957688 -0.209410017 0.0611599002
v 0.014770089 -0.209410017 0.0579098974
v 0.014770089 -0.209410017 0.0611599002
v 0.0157601222 -0.208460038 0.0606599365
v 0.0144200906 -0.208460038 0.0606599365
v 0.0157601222 -0.208460038 0.0631999288
v 0.0144200906 -0.208460038 0.0631999288
v -0.000268758885 -0.215995018 0.0712966238
v -0.000268758885 -0.216005032 0.0712966238
v -0.000242532842 -0.216005032 0.0712994848
v -0.000242532842 -0.215995018 0.0712994848
v -0.000224889867 -0.216005032 0.0713059221
v -0.000224889867 -0.215995018 0.0713059221
v -0.000209988706 -0.216005032 0.0713156973
v -0.000209988706 -0.215995018 0.0713156973
v -0.000203312985 -0.216005032 0.0713224922
v -0.000203312985 -0.215995018 0.0713224922
v -0.000195683591 -0.216005032 0.0713342939
v -0.000195683591 -0.215995018 0.0713342939
v -0.000190199963 -0.216005032 0.0713496719
v -0.000190199963 -0.215995018 0.0713496719
v -0.000187696568 -0.216005032 0.0713730369
v -0.000187696568 -0.215995018 0.0713730369
v -0.000725330464 -0.215995018 0.0713682685
v -0.000725330464 -0.216005032 0.0713682685
v -0.000724853627 -0.216005032 0.0713642154
v -0.000724853627 -0.215995018 0.0713642154
v -0.000723661534 -0.216005032 0.0713607584
v -0.000723661534 -0.215995018 0.0713607584
v -0.000721396558 -0.216005032 0.0713575397
v -0.000721396558 -0.215995018 0.0713575397
v -0.00071758186 -0.216005032 0.0713540826
v -0.00071758186 -0.215995018 0.0713540826
v -0.000719727628 -0.215995018 0.0713817392
v -0.000719727628 -0.216005032 0.0713817392
v -0.000722231023 -0.216005032 0.0713789974
v -0.000722231023 -0.215995018 0.0713789974
v -0.000724138371 -0.216005032 0.0713756595
v -0.000724138371 -0.215995018 0.0713756595
v -0.000725092046 -0.216005032 0.0713716064
v -0.000725092046 -0.215995018 0.0713716064
v -0.000751675717 -0.215995018 0.0714715038
v -0.000751675717 -0.215995018 0.0714451585
v -0.000751675717 -0.216005032 0.0714715038
v -0.000751675717 -0.216005032 0.0714451585
v -0.000873984448 -0.215995018 0.0713950906
v -0.000884832494 -0.215995018 0.0714005743
v -0.00087040817 -0.215995018 0.0714172636
v -0.000812353246 -0.215995018 0.0714540992
v -0.000811757199 -0.215995018 0.0714540992
v -0.000813426129 -0.215995018 0.0714309726
v -0.000873388402 -0.215995018 0.0714209591
v -0.000892700307 -0.215995018 0.0714073692
v -0.000875653378 -0.215995018 0.0714257274
v -0.000897826306 -0.215995018 0.071414641
v -0.000876964681 -0.215995018 0.0714315687
v -0.000811757199 -0.215995018 0.0714206014
v -0.000786246411 -0.215995018 0.0713831697
v -0.000811757199 -0.215995018 0.0714176212
v -0.000811757199 -0.215995018 0.0714036737
v -0.000811757199 -0.215995018 0.0714766298
v -0.000786246411 -0.215995018 0.0714766298
v -0.0008669511 -0.215995018 0.071414641
v -0.000860871426 -0.215995018 0.0714117799
v -0.000854791753 -0.215995018 0.0713903223
v -0.000845731847 -0.215995018 0.0714083229
v -0.000811757199 -0.215995018 0.0713842426
v -0.000901283376 -0.215995018 0.0714237009
v -0.000902952306 -0.215995018 0.0714346681
v -0.00087708389 -0.215995018 0.0714356218
v -0.000902952306 -0.215995018 0.0714377676
v -0.000876487843 -0.215995018 0.0714414631
v -0.000901521794 -0.215995018 0.0714501653
v -0.000874818913 -0.215995018 0.0714461122
v -0.000898183934 -0.215995018 0.0714586292
v -0.00087195789 -0.215995018 0.0714504037
v -0.0008887664 -0.215995018 0.0713415657
v -0.0008887664 -0.215995018 0.071366242
v -0.00088375961 -0.215995018 0.0713385854
v -0.000871004216 -0.215995018 0.0713551555
v -0.000864924542 -0.215995018 0.0713311945
v -0.000855030171 -0.215995018 0.0713500295
v -0.000838817708 -0.215995018 0.0713279758
v -0.000841201894 -0.215995018 0.0713487182
v -0.000823678128 -0.215995018 0.0713294063
v -0.000832022778 -0.215995018 0.0713497911
v -0.000812830083 -0.215995018 0.071332625
v -0.000826300733 -0.215995018 0.0713518177
v -0.000804366223 -0.215995018 0.0713373933
v -0.00082177078 -0.215995018 0.0713547979
v -0.000797571294 -0.215995018 0.0713438306
v -0.000817956082 -0.215995018 0.0713589702
v -0.000792326085 -0.215995018 0.0713520561
v -0.000815095059 -0.215995018 0.0713643346
v -0.000788272969 -0.215995018 0.0713635002
v -0.000812472455 -0.215995018 0.0713737522
v -0.000892819516 -0.215995018 0.0714662586
v -0.00089043533 -0.215995018 0.0714686428
v -0.000869692914 -0.215995018 0.0714525495
v -0.000883163564 -0.215995018 0.071473888
v -0.000864686124 -0.215995018 0.0714560066
v -0.00087362682 -0.215995018 0.0714778219
v -0.000858964078 -0.215995018 0.0714581524
v -0.00086194431 -0.215995018 0.0714798484
v -0.0008502618 -0.215995018 0.071459106
v -0.000817240827 -0.215995018 0.0714400325
v -0.000822605245 -0.215995018 0.0714473043
v -0.000818432919 -0.215995018 0.0714628015
v -0.000825943105 -0.215995018 0.071450523
v -0.00082665836 -0.215995018 0.0714706693
v -0.000833214871 -0.215995018 0.0714552913
v -0.000832618825 -0.215995018 0.0714743648
v -0.000840963475 -0.215995018 0.0714581524
v -0.000842751614 -0.215995018 0.0714782987
v -0.00085693752 -0.215995018 0.0714800869
v -0.000728191487 -0.216005032 0.0709505592
v -0.000728191487 -0.215995018 0.0709505592
v -0.000647009961 -0.216005032 0.0709505592
v -0.000623406522 -0.215995018 0.0709505592
v -0.000623406522 -0.216005032 0.0709505592
v -0.00103670513 -0.215995018 0.0711539302
v -0.00103670513 -0.215995018 0.0709505592
v -0.00103670513 -0.216005032 0.0711539302
v -0.00103670513 -0.216005032 0.0709505592
v -0.00321740066 -0.17606384 0.141708067
v -0.00319272434 -0.17606384 0.141647032
v -0.00321740066 -0.176163857 0.141708067
v -0.00319272434 -0.176163857 0.141647032
v -0.00286048805 -0.17606384 0.141849569
v -0.0028610841 -0.17606384 0.14184933
v -0.00286048805 -0.176163857 0.141849569
v -0.0028610841 -0.176163857 0.14184933
v -0.0171301976 -0.173588519 0.131737641
v -0.0171074287 -0.173585837 0.13173323
v -0.0171282903 -0.173588519 0.131747416
v -0.0171055213 -0.173585777 0.131743005
v -0.0170957462 -0.173584585 0.131741098
v -0.0170988456 -0.173584824 0.131731561
v -0.0170871631 -0.173581784 0.13173931
v -0.0170891896 -0.173581665 0.131729535
v -0.0170786992 -0.173578982 0.131737641
v -0.0170807258 -0.173578982 0.131727866
v -0.0170760766 -0.173577194 0.131737045
v -0.017077984 -0.173577194 0.13172727
v -0.0170525924 -0.173560564 0.131722024
v -0.0170505658 -0.173560564 0.1317318
v -0.0172311679 -0.173484509 0.131765774
v -0.0172310487 -0.173472886 0.131765774
v -0.0172670499 -0.173472588 0.131771496
v -0.017221512 -0.173576241 0.131764105
v -0.0172213927 -0.173564618 0.131764105
v -0.0172625199 -0.173564379 0.131770781
v -0.017221512 -0.173587804 0.131764105
v -0.0172757522 -0.173587446 0.131772808
v -0.0173301116 -0.173587029 0.131780795
v -0.0173038856 -0.173564081 0.13177698
v -0.0173293964 -0.173485343 0.131780675
v -0.0173036472 -0.173529868 0.13177698
v -0.0173034087 -0.173495655 0.13177698
v -0.0172247306 -0.173396115 0.131764701
v -0.0172247306 -0.173384433 0.131764701
v -0.0172765866 -0.173384075 0.131772927
v -0.0172311679 -0.173496132 0.131765774
v -0.0172672883 -0.173495893 0.131771496
v -0.0173031703 -0.17347235 0.131776861
v -0.0173029319 -0.173439805 0.131776861
v -0.0173286811 -0.173383658 0.131780556
v -0.0173026935 -0.173407261 0.131776861
v -0.017263712 -0.173407559 0.13177102
v -0.0172248498 -0.173407798 0.131764701
v -0.0172230617 -0.173564618 0.131754211
v -0.0172230617 -0.173576241 0.13175433
v -0.0172231809 -0.173587804 0.13175433
v -0.0172773019 -0.173587446 0.131762913
v -0.0173314229 -0.173587029 0.131770781
v -0.0173307077 -0.173485343 0.131770781
v -0.0173299924 -0.173383658 0.131770662
v -0.0172263995 -0.173384433 0.131754807
v -0.0172263995 -0.173396115 0.131754807
v -0.0172265187 -0.173407798 0.131754807
v -0.017304124 -0.173407261 0.131766966
v -0.0173043624 -0.173439805 0.131766966
v -0.0173046008 -0.17347235 0.131766966
v -0.0172327176 -0.173472886 0.13175588
v -0.0172327176 -0.173484509 0.13175588
v -0.0172328368 -0.173496132 0.13175588
v -0.017268838 -0.173495893 0.131761602
v -0.0173048392 -0.173495655 0.131767086
v -0.0173053161 -0.173564081 0.131767086
v -0.0172640697 -0.173564379 0.131760887
v -0.0173825637 -0.173441415 0.131787709
v -0.0174027101 -0.173495953 0.131790212
v -0.0173694507 -0.173441534 0.13178604
v -0.0173897163 -0.173524981 0.131788543
v -0.0173563377 -0.173441594 0.131784252
v -0.0174809114 -0.1734407 0.131798795
v -0.0174950973 -0.17344064 0.131800226
v -0.0174672023 -0.173513298 0.131797365
v -0.0174667255 -0.173440819 0.131797365
v -0.017448248 -0.173495536 0.131795338
v -0.0174297706 -0.173550253 0.131793312
v -0.0174394265 -0.173585956 0.131794385
v -0.0174282209 -0.173556273 0.131793192
v -0.0174266711 -0.173562233 0.131792954
v -0.0174228564 -0.173550551 0.131792477
v -0.0174247638 -0.173556392 0.131792716
v -0.0174230949 -0.173608308 0.131792596
v -0.0174347774 -0.173630481 0.131793908
v -0.0174507514 -0.173612301 0.131795577
v -0.0174545661 -0.173619275 0.131796053
v -0.0174362079 -0.173633044 0.131794027
v -0.017455639 -0.173620825 0.131796173
v -0.0174404994 -0.173638051 0.131794504
v -0.0174586192 -0.173625116 0.13179653
v -0.0174419299 -0.173639719 0.131794623
v -0.0174588576 -0.173625355 0.13179653
v -0.0174446717 -0.173641508 0.131794981
v -0.0174610034 -0.173627262 0.131796769
v -0.0174501554 -0.173645143 0.131795577
v -0.0174619571 -0.173628097 0.131796888
v -0.0174526588 -0.173646097 0.131795815
v -0.017463626 -0.173628871 0.131797007
v -0.0174768583 -0.173632567 0.131798318
v -0.0174745933 -0.173654263 0.13179808
v -0.0174673215 -0.173630362 0.131797365
v -0.0174661294 -0.173630123 0.131797246
v -0.0174842492 -0.173631554 0.131799153
v -0.0174831763 -0.173653786 0.131799034
v -0.0174750701 -0.173654442 0.131798199
v -0.0174912826 -0.173629587 0.131799749
v -0.0174912826 -0.173640912 0.131799868
v -0.0174914018 -0.173652236 0.131799868
v -0.017383875 -0.173441415 0.131777814
v -0.017370762 -0.173441534 0.131776146
v -0.017357649 -0.173441594 0.131774357
v -0.0173909084 -0.173524981 0.131778649
v -0.017424287 -0.173608308 0.131782583
v -0.0174760238 -0.173654442 0.131788186
v -0.0174755469 -0.173654263 0.131788186
v -0.017466487 -0.173651462 0.131787232
v -0.0174538509 -0.173645918 0.131785921
v -0.017448248 -0.173643475 0.131785325
v -0.0174457446 -0.173641567 0.131785086
v -0.0174421683 -0.173638945 0.131784609
v -0.0174415723 -0.17363811 0.131784609
v -0.017435731 -0.173630838 0.131783894
v -0.017435731 -0.17363066 0.131783894
v -0.0174842492 -0.173653786 0.13178902
v -0.0174923555 -0.173652236 0.131789855
v -0.0174923555 -0.173640912 0.131789855
v -0.0174922362 -0.173629587 0.131789855
v -0.0174240485 -0.173550551 0.131782583
v -0.0174039022 -0.173495953 0.131780199
v -0.0175352708 -0.173548584 0.131803921
v -0.0175361053 -0.173548584 0.131793908
v -0.0175381318 -0.173555379 0.13180416
v -0.017538251 -0.173553412 0.131794027
v -0.0175402776 -0.173559015 0.131804279
v -0.0175413505 -0.173558896 0.131794385
v -0.0175418273 -0.173561637 0.131804398
v -0.0175430194 -0.173561757 0.131794504
v -0.0175425426 -0.173562353 0.131804517
v -0.0175434962 -0.173562293 0.131794504
v -0.0175443307 -0.173564141 0.131804637
v -0.0175452844 -0.173564141 0.131794742
v -0.0175443307 -0.1735642 0.131804637
v -0.0175455228 -0.173564379 0.131794742
v -0.0175461188 -0.173565452 0.131804756
v -0.0175473109 -0.173565512 0.131794861
v -0.0175464765 -0.173565512 0.131804875
v -0.0175474301 -0.173565631 0.131794861
v -0.0175488607 -0.173566525 0.131804994
v -0.0175496951 -0.173566346 0.1317951
v -0.0175494567 -0.173566763 0.131805113
v -0.0175520793 -0.173567061 0.131795219
v -0.0175520793 -0.17356724 0.131805352
v -0.0175529138 -0.173567121 0.131795338
v -0.0175547019 -0.173567717 0.131805471
v -0.0175578014 -0.173567479 0.131795696
v -0.0175662652 -0.173568015 0.131796411
v -0.0175654308 -0.173568015 0.131806425
v -0.0175569669 -0.173567777 0.131805709
v 0.0246363267 -0.220506613 0.0685672079
v 0.0246371611 -0.220516567 0.0685672079
v 0.0246590957 -0.220504706 0.068561605
v 0.0246600493 -0.2205146 0.0685619627
v 0.0246936663 -0.220501785 0.0685532604
v 0.0246850833 -0.220512514 0.0685561214
v 0.0247024878 -0.22050113 0.0685490881
v 0.0247030839 -0.220511143 0.0685486112
v 0.0247222766 -0.220499699 0.0685400282
v 0.0247208461 -0.220509832 0.0685413395
v 0.0247233495 -0.220499639 0.0685391937
v 0.0247238263 -0.220509653 0.0685389553
v 0.0247294291 -0.220499222 0.0685343061
v 0.0247300252 -0.220509236 0.0685340677
v 0.0247684106 -0.220496778 0.0685030733
v 0.0247690066 -0.220506732 0.0685030733
v 0.024217306 -0.220567231 0.0683689628
v 0.0242193326 -0.220577006 0.0683689628
v 0.0241971597 -0.220571284 0.0683730159
v 0.0241826161 -0.220584457 0.0683769498
v 0.0241790398 -0.220575099 0.0683786188
v 0.024180828 -0.220584874 0.0683775459
v 0.0241525754 -0.220590894 0.0683877979
v 0.0241503104 -0.220581119 0.0683874403
v 0.0241492375 -0.220581357 0.0683877979
v 0.0241474494 -0.220592027 0.0683897052
v 0.0241337403 -0.220584755 0.0683972154
v 0.0241360053 -0.22059453 0.0683973346
v 0.0241284951 -0.220585947 0.0684003149
v 0.0241278991 -0.220596318 0.0684026991
v 0.0241209849 -0.220587616 0.0684083019
v 0.0241230115 -0.220597391 0.0684080635
v 0.0241087064 -0.220590417 0.0684212957
v 0.0241101369 -0.220600312 0.0684222494
v 0.0241046532 -0.220591311 0.0684278522
v 0.024106799 -0.220601087 0.0684278522
v 0.0240855798 -0.220605974 0.0684633766
v 0.0240833148 -0.220596259 0.0684633766
v 0.0245181903 -0.220529203 0.0683191333
v 0.0245169982 -0.220519249 0.0683191333
v 0.0245401248 -0.220526581 0.0683576379
v 0.0245389327 -0.220516686 0.0683576379
v 0.0245621785 -0.220524137 0.0683960233
v 0.0245609864 -0.220514183 0.0683960233
v 0.0242151603 -0.220567648 0.0686594759
v 0.0242170676 -0.220577424 0.0686594759
v 0.0242419823 -0.220572715 0.068651608
v 0.0243391379 -0.220544879 0.068583778
v 0.0243338927 -0.220545773 0.0685954605
v 0.0243313893 -0.220556324 0.0686007057
v 0.0243299588 -0.220546489 0.0686007057
v 0.024327217 -0.220557098 0.0686076198
v 0.0243208989 -0.220547979 0.0686127458
v 0.0243218526 -0.220557992 0.0686127458
v 0.0243205413 -0.220548038 0.0686131034
v 0.0243119582 -0.220559661 0.0686221634
v 0.0243081435 -0.220550244 0.0686234747
v 0.0243098124 -0.220560079 0.0686233554
v 0.0243052825 -0.220550721 0.0686257396
v 0.0242887124 -0.220563834 0.0686353956
v 0.024286805 -0.220554059 0.068635038
v 0.0242831096 -0.220564847 0.0686387334
v 0.0242713078 -0.22055686 0.0686427866
v 0.0242401942 -0.22056282 0.0686520849
v 0.0243408068 -0.220554774 0.0685855661
v 0.0243411645 -0.220554714 0.0685840164
v 0.0243453368 -0.220543866 0.0685701881
v 0.0243468865 -0.220553761 0.0685642276
v 0.0243467673 -0.220543628 0.0685645853
v 0.0243607148 -0.220551496 0.0685160671
v 0.0243590459 -0.220541601 0.0685160671
v 0.0241758212 -0.220585887 0.0681026493
v 0.0241737946 -0.220576112 0.0681026493
v 0.0242049083 -0.220579867 0.0680686746
v 0.0242028817 -0.220570092 0.0680686746
v 0.0242387637 -0.220573192 0.0680394683
v 0.0242368563 -0.220563357 0.0680394683
v 0.0243567809 -0.220552151 0.0679904733
v 0.0243533238 -0.220542555 0.067990831
v 0.024363099 -0.220541005 0.0679895197
v 0.0244101867 -0.220543807 0.0679843937
v 0.0243853911 -0.220537488 0.0679866586
v 0.0244087561 -0.220533912 0.0679843937
v 0.0243256673 -0.220547204 0.0679967914
v 0.0243275746 -0.220557098 0.0679979835
v 0.0243181571 -0.220548456 0.0679984604
v 0.0243043288 -0.220561032 0.0680038248
v 0.0242938384 -0.220552926 0.0680107389
v 0.0242947921 -0.22056282 0.06800907
v 0.0259594306 -0.220616763 0.0683986459
v 0.0259618148 -0.220607107 0.0683986459
v 0.0259601458 -0.220606689 0.0684057985
v 0.0259577617 -0.220616405 0.0684057985
v 0.0259584769 -0.220606272 0.0684128318
v 0.0259560927 -0.220615988 0.0684128318
v 0.0259630069 -0.220617657 0.0684129511
v 0.025965391 -0.220607941 0.0684129511
v 0.0259636029 -0.220607524 0.0684057985
v 0.0259612187 -0.220617239 0.0684057985
v 0.0259922131 -0.220625048 0.0684977089
v 0.0259947165 -0.220615332 0.0684977089
v 0.0259775504 -0.220621352 0.0684552703
v 0.0259800538 -0.220611637 0.0684552703
v 0.0254728183 -0.220528071 0.0682267461
v 0.0254740104 -0.220518177 0.0682267461
v 0.025487481 -0.220529859 0.0682268654
v 0.0254886731 -0.220519905 0.0682268654
v 0.0255021437 -0.220531707 0.0682268654
v 0.0255033358 -0.220521753 0.0682268654
v 0.025299488 -0.220511262 0.0682486807
v 0.0253002032 -0.220501308 0.0682486807
v 0.0253009185 -0.220501368 0.0681469951
v 0.0253002032 -0.220511322 0.0681469951
v 0.0253016337 -0.220501428 0.0680453096
v 0.0253009185 -0.220511382 0.0680453096
v 0.0250983819 -0.220501249 0.0682240043
v 0.0250986203 -0.220491295 0.0682240043
v 0.0250985011 -0.220491235 0.0682356868
v 0.0250982627 -0.220501249 0.0682356868
v 0.0250983819 -0.220491235 0.0682472501
v 0.0250981435 -0.220501249 0.0682472501
v 0.0249909743 -0.220500057 0.0682464157
v 0.0249908551 -0.220490043 0.0682464157
v 0.0249915704 -0.220490043 0.0681447302
v 0.0249916896 -0.220500057 0.0681447302
v 0.0249922856 -0.220490043 0.0680430446
v 0.0249924048 -0.220500057 0.0680430446
v 0.0253677949 -0.225237792 0.0638988529
v 0.0254786595 -0.225237792 0.0638988529
v 0.0256317242 -0.225654726 0.0638988529
v 0.0256814345 -0.225574379 0.0638988529
v 0.0256317242 -0.225937788 0.0638988529
v 0.0257273301 -0.225937788 0.0638988529
v 0.0258802756 -0.225237792 0.0638988529
v 0.0259912595 -0.225237792 0.0638988529
v 0.0257273301 -0.225654726 0.0638988529
v 0.0259912595 -0.225237792 0.0638999258
v 0.0258802756 -0.225237792 0.0638999258
v 0.0242312535 -0.223988597 0.0638988529
v 0.0242312535 -0.223988597 0.0638999258
v 0.0242379292 -0.223988061 0.0638999258
v 0.0242379292 -0.223988061 0.0638988529
v 0.0242938384 -0.223977094 0.0638999258
v 0.0242938384 -0.223977094 0.0638988529
v 0.0243286475 -0.223960941 0.0638999258
v 0.0243286475 -0.223960941 0.0638988529
v 0.0243522509 -0.223941629 0.0638999258
v 0.0243522509 -0.223941629 0.0638988529
v 0.0243695363 -0.223918145 0.0638999258
v 0.0243695363 -0.223918145 0.0638988529
v 0.0243820533 -0.223888462 0.0638999258
v 0.0243820533 -0.223888462 0.0638988529
v 0.0243886098 -0.223850851 0.0638999258
v 0.0243886098 -0.223850851 0.0638988529
v 0.0247558936 -0.224500065 0.0638988529
v 0.0250017032 -0.224131231 0.0638988529
v 0.0247558936 -0.224500065 0.0638999258
v 0.0250017032 -0.224131231 0.0638999258
v -0.00047439491 -0.198049192 0.0685363327
v -0.00048440849 -0.19804806 0.0685363327
v -0.000484170071 -0.19804651 0.0685422931
v -0.0004742757 -0.198047643 0.0685422931
v -0.000484050862 -0.19804502 0.0685482536
v -0.000474037282 -0.198046153 0.0685482536
v 0.0648999795 -0.244531934 0.122426561
v 0.0648999795 -0.243083065 0.122038415
v 0.0649501666 -0.244416778 0.122856549
v 0.0649501666 -0.242967908 0.122468284
v 0.0650981053 -0.244307344 0.123264841
v 0.0650981053 -0.242858474 0.122876576
v 0.0653362855 -0.244209235 0.123631052
v 0.0653362855 -0.242760305 0.123242906
v 0.0656530246 -0.244127278 0.123937062
v 0.0656530246 -0.242678349 0.123548797
v 0.0660322293 -0.244065587 0.124167136
v 0.0660322293 -0.242616718 0.123778871
v 0.0664549455 -0.244027321 0.124310068
v 0.0664549455 -0.242578392 0.123921803
v 0.0668999537 -0.244014327 0.124358467
v 0.0668999537 -0.242565458 0.123970202
v 0.0654857739 -0.254138474 0.0807791267
v 0.0659000262 -0.254220729 0.0804721628
v 0.0618252143 -0.254290049 0.0802133594
v 0.066382347 -0.254272406 0.0802791629
v 0.0668999537 -0.254290049 0.0802133594
v 0.0614197835 -0.25427932 0.0802534137
v 0.0649681672 -0.253906434 0.0816451822
v 0.065167962 -0.254031246 0.0811791931
v 0.0618252143 -0.242565458 0.123970202
v 0.0610311612 -0.254247551 0.0803721462
v 0.0606755599 -0.254195993 0.0805644308
v 0.0648999795 -0.253772442 0.082145146
v 0.0614197835 -0.242576187 0.123930148
v 0.0610311612 -0.242607956 0.123811415
v 0.0606755599 -0.242659514 0.123619131
v 0.0603676423 -0.254126911 0.0808222805
v 0.059442459 -0.253872042 0.0817734514
v 0.0591475352 -0.253767078 0.0821652923
v 0.05896288 -0.243209128 0.121567896
v 0.0591475352 -0.243088429 0.122018269
v 0.059442459 -0.242983465 0.12241011
v 0.0603676423 -0.242728596 0.123361281
v 0.05896288 -0.253646378 0.082615665
v 0.0589000567 -0.253517573 0.0830961977
v 0.0589000567 -0.243337934 0.121087245
v 0.0624000415 -0.234548275 0.121822051
v 0.0624000415 -0.233395641 0.126123479
v 0.0624000415 -0.23676986 0.122417382
v 0.0624000415 -0.235617285 0.126718811
v 0.0662656411 -0.260557477 0.0768123184
v 0.0626427516 -0.259619837 0.0803118263
v 0.0658698663 -0.257594411 0.0756087814
v 0.0620831832 -0.256614332 0.07926648
v 0.0626427516 -0.247230415 0.126549891
v 0.0662656411 -0.246292715 0.13004928
v 0.0620831832 -0.244104867 0.125952295
v 0.0658698663 -0.243124788 0.129610113
v 0.057147561 -0.234866207 0.120635322
v 0.0574424847 -0.234761243 0.121027163
v 0.0591475352 -0.235071247 0.119870118
v 0.059442459 -0.234966283 0.120261959
v 0.0589000567 -0.238469427 0.107188037
v 0.0568999633 -0.238469427 0.107188037
v 0.0589000567 -0.235320752 0.118939093
v 0.0568999633 -0.235115712 0.119704298
v 0.05896288 -0.235191946 0.119419745
v 0.0614197835 -0.234559004 0.121781877
v 0.0618252143 -0.234548275 0.121822051
v 0.0569629058 -0.234986906 0.120184949
v 0.0610311612 -0.234590774 0.121663264
v 0.0606755599 -0.234642332 0.121470979
v 0.0603676423 -0.234711413 0.12121301
v 0.0662139043 -0.257663195 0.0753521238
v 0.0662675484 -0.257928436 0.0743620906
v 0.0666138514 -0.257707183 0.0751878534
v 0.0665712937 -0.257796769 0.0748535905
v 0.066806136 -0.257718151 0.0751469646
v 0.0669544324 -0.257679765 0.0752902542
v 0.0574424847 -0.256008928 0.0815258537
v 0.0619265422 -0.256561522 0.079463533
v 0.0618695601 -0.256531661 0.0795751129
v 0.0661361798 -0.24273849 0.13105183
v 0.0659604653 -0.242695873 0.131210855
v 0.0657504186 -0.242665355 0.1313247
v 0.0646408185 -0.257991736 0.0741258178
v 0.0668132886 -0.24300081 0.130072883
v 0.0665712937 -0.24292243 0.130365184
v 0.0666138514 -0.243012016 0.130030922
v 0.0662675484 -0.242790763 0.130856684
v 0.0652775153 -0.242646937 0.131393364
v 0.0655183181 -0.242648725 0.131386689
v 0.0652775153 -0.258072262 0.0738254104
v 0.0655183181 -0.258070474 0.0738320861
v 0.0661361798 -0.257980709 0.0741670642
v 0.0657504186 -0.258053844 0.0738941942
v 0.0659604653 -0.258023326 0.0740080391
v 0.065042077 -0.258059089 0.0738746439
v 0.0648257121 -0.258031731 0.073976687
v 0.065042077 -0.24266011 0.13134425
v 0.0662139043 -0.243056064 0.129866651
v 0.0618695601 -0.244187539 0.125643781
v 0.0619265422 -0.244157677 0.125755242
v 0.0574424847 -0.244710271 0.12369304
v 0.0646408185 -0.242727463 0.131092957
v 0.0648257121 -0.242687469 0.131242088
v 0.057147561 -0.244815295 0.123301199
v 0.0617946967 -0.244285111 0.125279716
v 0.0618281945 -0.244219129 0.125526002
v 0.0569629058 -0.244935935 0.122850708
v 0.0568999633 -0.24506474 0.122370175
v 0.0617946967 -0.256434088 0.079939178
v 0.0568999633 -0.255654459 0.0828487192
v 0.0569629058 -0.255783265 0.0823680673
v 0.0618281945 -0.25650007 0.0796927724
v 0.057147561 -0.255903964 0.0819176946
v 0.0568999633 -0.244071786 0.108689121
v 0.0589000567 -0.244071786 0.108689121
v 0.0568999633 -0.247954075 0.0942003046
v 0.0589000567 -0.247954075 0.0942003046
v -0.0249299422 -0.196550016 0.0747999464
v -0.0248299256 -0.196550016 0.0748998438
v -0.0249299422 -0.195909982 0.0747999464
v -0.0248299256 -0.195909982 0.0748998438
v -0.0253300086 -0.199369972 0.0631999288
v -0.025229992 -0.199270015 0.0632999454
v -0.0241299287 -0.199369972 0.0631999288
v -0.0242299453 -0.199270015 0.0632999454
f 1 2 3
f 1 3 4
f 4 3 5
f 4 5 6
f 6 5 7
f 6 7 8
f 9 10 11
f 11 10 12
f 11 12 13
f 13 12 14
f 13 14 15
f 15 14 16
f 15 16 17
f 17 16 18
f 17 18 19
f 19 18 20
f 19 20 21
f 21 20 22
f 23 24 25
f 25 24 26
f 27 28 29
f 29 28 30
f 31 32 33
f 31 33 34
f 34 33 35
f 34 35 36
f 36 35 37
f 36 37 38
f 39 40 41
f 39 41 42
f 42 41 43
f 42 43 44
f 44 43 45
f 44 45 46
f 47 48 49
f 50 51 52
f 47 49 53
f 53 49 54
f 53 54 52
f 52 54 55
f 52 55 50
f 50 56 51
f 51 56 57
f 51 57 58
f 58 57 59
f 58 59 60
f 60 59 61
f 60 61 62
f 63 64 65
f 65 64 66
f 67 68 69
f 69 68 70
f 71 72 73
f 73 72 74
f 73 74 75
f 76 77 71
f 71 77 78
f 71 78 72
f 76 79 77
f 77 79 80
f 77 80 81
f 82 83 84
f 84 83 85
f 85 83 86
f 86 83 87
f 86 87 88
f 88 87 89
f 88 89 90
f 90 89 91
f 90 91 92
f 91 93 92
f 92 93 94
f 92 94 95
f 96 97 98
f 96 98 99
f 99 98 100
f 99 100 101
f 102 103 104
f 102 104 105
f 105 104 106
f 105 106 107
f 108 109 110
f 110 109 111
f 112 113 114
f 114 113 115
f 116 117 118
f 118 117 119
f 117 120 119
f 119 120 121
f 122 123 124
f 122 124 125
f 125 124 126
f 125 126 127
f 127 126 128
f 127 128 129
f 130 131 132
f 132 131 133
f 134 135 136
f 136 135 137
f 138 139 140
f 140 139 141
f 142 143 144
f 144 143 145
f 146 147 148
f 148 147 149
f 150 151 152
f 150 152 153
f 153 152 154
f 153 154 155
f 155 154 156
f 155 156 157
f 158 159 160
f 160 159 161
f 160 161 162
f 162 161 163
f 162 163 164
f 164 163 165
f 164 165 166
f 166 165 167
f 166 167 168
f 168 167 169
f 168 169 170
f 171 172 173
f 173 172 174
f 173 174 158
f 158 174 175
f 158 175 159
f 176 177 178
f 178 177 179
f 180 181 182
f 182 181 183
f 182 183 178
f 178 183 176
f 184 185 186
f 186 185 187
f 188 189 190
f 191 192 190
f 190 192 193
f 193 194 190
f 190 194 195
f 190 195 188
f 189 196 190
f 190 196 197
f 190 197 198
f 198 199 190
f 190 199 200
f 190 200 201
f 201 202 190
f 190 202 203
f 190 203 204
f 204 203 205
f 206 207 208
f 208 207 209
f 210 211 212
f 210 212 213
f 213 212 214
f 213 214 215
f 216 217 218
f 218 217 219
f 217 220 219
f 219 220 221
f 219 221 222
f 222 221 223
f 222 223 224
f 225 226 227
f 227 226 228
f 229 230 231
f 231 230 232
f 231 232 233
f 233 232 234
f 235 236 237
f 237 236 238
f 239 240 241
f 242 243 244
f 244 243 245
f 244 245 246
f 244 247 242
f 242 247 248
f 242 248 249
f 249 248 250
f 249 250 251
f 251 250 252
f 251 252 253
f 252 254 253
f 253 254 255
f 253 255 240
f 240 255 256
f 240 256 241
f 239 241 257
f 257 241 258
f 257 258 259
f 259 258 260
f 259 260 261
f 260 262 261
f 261 262 236
f 261 236 235
f 263 264 265
f 264 263 266
f 267 268 269
f 263 270 266
f 266 270 271
f 266 271 269
f 269 271 272
f 269 272 267
f 273 246 245
f 245 274 273
f 273 274 275
f 273 275 276
f 276 275 277
f 276 277 278
f 278 277 279
f 278 279 280
f 280 279 281
f 280 281 282
f 282 281 283
f 282 283 284
f 284 283 285
f 284 285 265
f 265 285 286
f 265 286 263
f 287 288 289
f 289 288 290
f 290 288 291
f 291 288 292
f 291 292 293
f 292 294 293
f 293 294 268
f 293 268 267
f 295 296 297
f 295 297 298
f 298 297 299
f 298 299 300
f 300 299 301
f 300 301 302
f 302 301 303
f 302 303 304
f 304 303 305
f 304 305 306
f 306 305 307
f 306 307 308
f 308 307 309
f 308 309 310
f 310 309 311
f 310 311 312
f 311 313 312
f 312 313 314
f 312 314 315
f 316 317 318
f 318 317 319
f 318 319 320
f 319 321 320
f 320 321 322
f 320 322 323
f 323 322 324
f 324 322 325
f 324 325 326
f 326 325 327
f 326 327 328
f 328 327 329
f 328 329 330
f 330 329 331
f 330 331 332
f 332 331 333
f 332 333 334
f 333 335 334
f 334 335 296
f 334 296 295
f 336 337 338
f 336 338 339
f 339 338 340
f 339 340 341
f 341 340 342
f 341 342 343
f 337 336 344
f 344 336 345
f 344 345 346
f 346 345 347
f 346 347 348
f 348 347 349
f 348 349 350
f 350 349 351
f 350 351 352
f 352 351 353
f 352 353 354
f 352 354 355
f 355 354 356
f 355 356 357
f 358 359 360
f 361 362 363
f 363 362 364
f 363 364 365
f 365 364 366
f 365 366 367
f 367 366 368
f 367 368 369
f 369 368 370
f 369 370 371
f 371 370 372
f 371 372 373
f 373 372 374
f 373 374 375
f 375 374 376
f 375 376 360
f 360 376 377
f 360 377 358
f 363 378 361
f 361 378 379
f 361 379 380
f 380 379 381
f 380 381 382
f 382 381 357
f 382 357 356
f 383 384 385
f 385 384 386
f 385 386 387
f 387 386 388
f 387 388 389
f 389 388 390
f 389 390 391
f 391 390 392
f 391 392 393
f 394 395 396
f 396 395 393
f 396 393 397
f 397 393 392
f 398 399 400
f 400 401 398
f 398 401 402
f 398 402 403
f 403 402 404
f 403 404 405
f 405 404 406
f 405 406 407
f 407 406 408
f 407 408 409
f 408 410 409
f 409 410 384
f 409 384 383
f 411 412 413
f 413 412 414
f 414 412 415
f 415 412 416
f 415 416 417
f 417 416 418
f 417 418 419
f 419 418 420
f 419 420 421
f 420 422 421
f 421 422 400
f 421 400 399
f 411 413 423
f 423 413 424
f 423 424 425
f 425 424 426
f 425 426 427
f 427 426 428
f 427 428 429
f 429 428 430
f 431 432 433
f 433 432 434
f 433 434 435
f 435 434 436
f 435 436 437
f 437 436 438
f 437 438 439
f 439 438 440
f 439 440 441
f 442 443 444
f 444 443 441
f 444 441 445
f 445 441 440
f 446 447 448
f 448 447 449
f 449 450 448
f 448 450 432
f 448 432 431
f 451 452 453
f 453 452 454
f 454 452 455
f 455 452 456
f 455 456 457
f 457 456 458
f 457 458 459
f 459 458 460
f 459 460 461
f 461 460 462
f 462 460 463
f 462 463 464
f 464 463 465
f 464 465 466
f 466 465 467
f 466 467 468
f 468 467 469
f 468 469 470
f 470 469 471
f 470 471 472
f 471 473 472
f 472 473 447
f 472 447 446
f 474 475 476
f 476 475 477
f 477 475 478
f 478 475 479
f 478 479 480
f 480 479 481
f 480 481 482
f 482 481 483
f 482 483 484
f 483 485 484
f 484 485 486
f 484 486 487
f 487 486 451
f 487 451 453
f 488 489 490
f 488 490 491
f 492 493 494
f 490 495 491
f 491 495 496
f 491 496 494
f 494 496 497
f 494 497 492
f 489 498 499
f 489 499 490
f 490 499 500
f 490 500 495
f 491 501 502
f 491 502 488
f 488 502 498
f 488 498 489
f 493 503 494
f 494 503 504
f 494 504 491
f 491 504 501
f 497 505 492
f 492 505 506
f 492 506 493
f 493 506 503
f 503 507 508
f 507 503 509
f 505 510 506
f 506 510 511
f 506 511 503
f 503 511 512
f 503 512 509
f 509 512 513
f 509 513 514
f 515 516 517
f 517 516 510
f 517 510 518
f 518 510 505
f 518 505 519
f 519 505 520
f 519 520 521
f 521 520 500
f 500 499 521
f 521 499 498
f 521 498 522
f 522 498 523
f 498 502 523
f 523 502 501
f 523 501 508
f 508 501 504
f 508 504 503
f 524 514 525
f 525 514 513
f 525 513 526
f 526 513 512
f 526 512 527
f 527 512 511
f 527 511 528
f 528 511 510
f 529 515 530
f 530 515 517
f 530 517 531
f 531 517 518
f 532 533 534
f 534 533 535
f 534 535 536
f 536 537 534
f 534 537 538
f 534 538 539
f 538 540 539
f 539 540 541
f 539 541 542
f 542 543 539
f 539 543 544
f 539 544 545
f 545 546 539
f 539 546 547
f 539 547 548
f 549 550 551
f 551 550 552
f 552 553 551
f 551 553 554
f 551 554 555
f 556 551 557
f 557 551 555
f 557 555 558
f 558 555 559
f 549 551 547
f 547 551 560
f 547 560 548
f 561 562 563
f 563 562 564
f 565 566 567
f 567 566 568
f 567 568 569
f 569 568 570
f 569 570 571
f 571 570 572
f 571 572 573
f 573 572 574
f 573 574 575
f 575 574 576
f 575 576 577
f 577 576 578
f 577 578 579
f 579 578 580
f 579 580 581
f 581 580 582
f 581 582 583
f 583 582 584
f 583 584 585
f 585 584 586
f 585 586 587
f 587 586 588
f 589 590 591
f 591 590 592
f 591 592 593
f 593 592 594
f 593 594 595
f 595 594 596
f 595 596 597
f 597 596 598
f 597 598 599
f 599 598 600
f 599 600 601
f 591 602 589
f 589 602 603
f 589 603 604
f 604 603 605
f 604 605 606
f 606 605 607
f 606 607 608
f 608 607 609
f 608 609 610
f 610 609 611
f 611 609 612
f 611 612 613
f 612 614 613
f 613 614 615
f 613 615 616
f 617 618 619
f 619 618 620
f 619 620 621
f 621 620 622
f 621 622 623
f 623 622 624
f 623 624 625
f 625 624 626
f 625 626 627
f 627 626 628
f 627 628 629
f 629 628 630
f 631 632 633
f 633 632 634
f 634 632 635
f 635 632 636
f 635 636 637
f 637 636 638
f 637 638 639
f 639 638 640
f 639 640 641
f 640 642 641
f 641 642 618
f 641 618 617
f 643 644 645
f 643 645 646
f 646 645 647
f 646 647 648
f 649 650 651
f 649 651 652
f 652 651 653
f 652 653 654
f 654 653 655
f 654 655 656
f 656 655 657
f 656 657 658
f 658 657 659
f 658 659 660
f 660 659 661
f 660 661 662
f 662 661 663
f 662 663 664
f 665 666 667
f 665 667 668
f 668 667 669
f 668 669 670
f 670 669 671
f 670 671 672
f 672 671 673
f 672 673 674
f 674 673 675
f 674 675 676
f 676 675 677
f 676 677 678
f 678 677 679
f 679 677 680
f 679 680 681
f 682 683 684
f 682 684 685
f 685 684 686
f 685 686 687
f 687 686 688
f 687 688 689
f 689 688 690
f 689 690 691
f 691 690 692
f 691 692 693
f 694 695 696
f 696 695 697
f 698 699 700
f 701 702 700
f 700 702 703
f 703 704 700
f 700 704 705
f 700 705 698
f 699 706 700
f 700 706 707
f 700 707 708
f 708 709 700
f 700 709 710
f 700 710 711
f 711 712 700
f 700 712 713
f 700 713 714
f 714 713 715
f 716 717 718
f 718 717 719
f 720 721 722
f 722 721 723
f 724 725 726
f 726 725 727
f 728 729 730
f 729 731 732
f 732 733 729
f 729 733 734
f 729 734 730
f 728 730 735
f 735 730 736
f 735 736 737
f 738 739 740
f 738 740 741
f 742 740 743
f 743 740 744
f 736 745 737
f 737 745 746
f 737 746 747
f 747 746 748
f 747 748 740
f 740 748 749
f 740 749 741
f 739 750 740
f 740 750 751
f 740 751 744
f 752 753 754
f 752 754 755
f 755 754 756
f 755 756 757
f 757 756 758
f 757 758 759
f 760 761 762
f 762 761 763
f 764 765 766
f 766 765 767
f 768 769 770
f 770 769 771
f 772 773 774
f 774 773 775
f 774 775 776
f 777 778 779
f 779 778 780
f 780 778 781
f 781 778 782
f 781 782 783
f 782 784 783
f 783 784 785
f 786 787 788
f 786 788 789
f 789 788 790
f 789 790 791
f 791 790 792
f 791 792 793
f 794 795 796
f 796 795 797
f 798 799 800
f 800 799 801
f 802 803 804
f 804 803 805
f 806 807 808
f 808 807 809
f 808 809 810
f 810 809 811
f 812 813 814
f 814 813 815
f 816 817 818
f 818 817 819
f 820 821 822
f 822 821 823
f 824 825 823
f 823 825 826
f 823 826 827
f 828 822 829
f 829 822 823
f 829 823 830
f 830 823 827
f 831 832 833
f 833 832 834
f 833 834 835
f 835 834 836
f 837 838 839
f 839 838 840
f 839 840 841
f 841 840 842
f 843 844 845
f 845 844 846
f 845 846 847
f 848 849 850
f 850 849 851
f 852 853 854
f 852 854 855
f 855 854 856
f 855 856 857
f 857 856 858
f 857 858 859
f 859 858 860
f 859 860 861
f 861 860 862
f 861 862 863
f 863 862 864
f 863 864 865
f 865 864 866
f 865 866 867
f 868 869 870
f 868 870 871
f 871 870 872
f 871 872 873
f 873 872 874
f 873 874 875
f 875 874 876
f 875 876 877
f 878 879 880
f 878 880 881
f 881 880 882
f 881 882 883
f 883 882 884
f 883 884 885
f 885 884 869
f 885 869 868
f 886 887 888
f 888 887 889
f 890 891 892
f 893 894 895
f 892 891 896
f 896 891 897
f 896 897 898
f 898 897 899
f 898 899 900
f 901 902 903
f 903 902 904
f 905 906 894
f 894 906 902
f 894 902 895
f 895 902 901
f 892 907 890
f 890 907 908
f 890 908 909
f 909 908 910
f 909 910 911
f 899 912 900
f 900 912 913
f 900 913 914
f 914 913 915
f 914 915 916
f 916 915 917
f 916 917 918
f 918 917 919
f 918 919 920
f 921 922 923
f 923 922 924
f 923 924 925
f 925 924 926
f 925 926 927
f 927 926 928
f 927 928 929
f 929 928 930
f 929 930 931
f 931 930 932
f 931 932 933
f 933 932 934
f 933 934 935
f 935 934 936
f 935 936 937
f 937 936 938
f 937 938 939
f 939 938 940
f 939 940 902
f 902 940 911
f 902 911 904
f 904 911 910
f 919 941 920
f 920 941 942
f 920 942 943
f 943 942 944
f 943 944 945
f 945 944 946
f 945 946 947
f 947 946 948
f 947 948 949
f 895 950 893
f 893 950 951
f 893 951 952
f 952 951 953
f 952 953 954
f 954 953 955
f 954 955 956
f 956 955 957
f 956 957 958
f 958 957 949
f 958 949 959
f 959 949 948
f 960 961 962
f 962 961 963
f 962 963 964
f 965 966 967
f 967 966 968
f 969 970 971
f 971 970 972
f 973 974 975
f 975 974 976
f 977 978 979
f 979 978 980
f 980 978 981
f 981 978 982
f 981 982 983
f 983 982 984
f 983 984 985
f 985 984 986
f 985 986 987
f 986 988 987
f 987 988 989
f 987 989 990
f 991 992 993
f 994 995 996
f 997 994 998
f 998 994 996
f 998 996 999
f 999 996 1000
f 999 1000 1001
f 1001 1000 1002
f 1001 1002 1003
f 1004 1005 1006
f 1007 991 1008
f 1008 991 993
f 1008 993 1003
f 1003 993 1009
f 1003 1009 1001
f 1001 1009 1010
f 1001 1010 1011
f 1011 1010 1012
f 1011 1012 1006
f 1006 1012 1013
f 1006 1013 1004
f 1004 1013 1014
f 1015 995 994
f 1015 994 1016
f 1016 994 997
f 1016 997 1017
f 1017 997 1018
f 1018 997 998
f 1018 998 1019
f 1019 998 999
f 1019 999 1001
f 1019 1001 1020
f 1020 1001 1011
f 1020 1011 1021
f 1022 1005 1004
f 1022 1004 1023
f 1023 1004 1014
f 1023 1014 1024
f 1025 1012 1010
f 1025 1010 1026
f 1026 1010 1009
f 1026 1009 1027
f 1028 992 991
f 1028 991 1029
f 1029 991 1007
f 1029 1007 1030
f 1030 1007 1031
f 1031 1007 1008
f 1031 1008 1032
f 1032 1008 1003
f 1033 1000 1034
f 1034 1000 996
f 1034 996 1015
f 1015 996 995
f 1035 1036 1037
f 1037 1036 1038
f 1037 1038 1039
f 1040 1041 1042
f 1043 1040 1044
f 1044 1040 1042
f 1044 1042 1045
f 1045 1042 1046
f 1045 1046 1047
f 1047 1046 1048
f 1036 1049 1038
f 1038 1049 1050
f 1038 1050 1051
f 1051 1050 1048
f 1051 1048 1052
f 1052 1048 1046
f 1046 1053 1052
f 1052 1053 1054
f 1052 1054 1055
f 1055 1054 1056
f 1055 1056 1057
f 1057 1056 1058
f 1057 1058 1059
f 1059 1058 1060
f 1059 1060 1061
f 1061 1060 1062
f 1061 1062 1063
f 1063 1062 1064
f 1063 1064 1065
f 1065 1064 1066
f 1067 1068 1069
f 1069 1068 1065
f 1069 1065 1070
f 1070 1065 1066
f 1071 1072 1067
f 1067 1072 1073
f 1067 1073 1068
f 1074 1075 1071
f 1071 1075 1076
f 1071 1076 1072
f 1077 1035 1078
f 1078 1035 1037
f 1078 1037 1079
f 1079 1037 1039
f 1079 1039 1080
f 1080 1039 1038
f 1080 1038 1081
f 1081 1038 1051
f 1073 1082 1083
f 1073 1083 1068
f 1068 1083 1084
f 1068 1084 1065
f 1065 1084 1085
f 1065 1085 1063
f 1063 1085 1086
f 1063 1086 1061
f 1061 1086 1087
f 1061 1087 1059
f 1059 1087 1088
f 1059 1088 1057
f 1057 1088 1089
f 1057 1089 1055
f 1055 1089 1090
f 1055 1090 1052
f 1090 1091 1052
f 1052 1091 1081
f 1052 1081 1051
f 1082 1073 1092
f 1092 1073 1072
f 1092 1072 1093
f 1093 1072 1076
f 1093 1076 1075
f 1093 1075 1094
f 1094 1075 1074
f 1094 1074 1095
f 1096 1049 1097
f 1097 1049 1036
f 1097 1036 1077
f 1077 1036 1035
f 1098 1099 1100
f 1100 1099 1101
f 1100 1101 1102
f 1102 1101 1103
f 1102 1103 1104
f 1104 1103 1105
f 1104 1105 1106
f 1106 1105 1107
f 1106 1107 1108
f 1108 1107 1109
f 1108 1109 1110
f 1110 1109 1111
f 1110 1111 1112
f 1112 1111 1113
f 1112 1113 1114
f 1114 1113 1115
f 1114 1115 1116
f 1116 1115 1117
f 1116 1117 1118
f 1118 1117 1119
f 1118 1119 1120
f 1120 1119 1121
f 1120 1121 1122
f 1122 1121 1123
f 1124 1125 1123
f 1123 1125 1126
f 1123 1126 1122
f 1127 1128 1129
f 1129 1128 1130
f 1129 1130 1131
f 1131 1130 1132
f 1131 1132 1133
f 1133 1132 1134
f 1133 1134 1135
f 1135 1134 1136
f 1135 1136 1137
f 1137 1136 1138
f 1137 1138 1139
f 1139 1138 1140
f 1139 1140 1141
f 1141 1140 1142
f 1143 1144 1145
f 1145 1144 1146
f 1145 1146 1147
f 1146 1148 1147
f 1147 1148 1149
f 1147 1149 1150
f 1150 1149 1151
f 1151 1149 1152
f 1151 1152 1153
f 1153 1152 1154
f 1153 1154 1155
f 1155 1154 1156
f 1155 1156 1157
f 1157 1156 1158
f 1157 1158 1159
f 1159 1158 1160
f 1159 1160 1161
f 1160 1162 1161
f 1161 1162 1163
f 1161 1163 1164
f 1165 1166 1167
f 1167 1166 1168
f 1167 1168 1169
f 1169 1168 1170
f 1171 1172 1173
f 1174 1175 1176
f 1176 1175 1177
f 1176 1177 1178
f 1178 1177 1179
f 1178 1179 1180
f 1180 1179 1181
f 1180 1181 1182
f 1182 1181 1183
f 1182 1183 1184
f 1184 1183 1185
f 1184 1185 1186
f 1186 1185 1187
f 1186 1187 1188
f 1188 1187 1189
f 1188 1189 1173
f 1173 1189 1190
f 1173 1190 1171
f 1176 1191 1174
f 1174 1191 1192
f 1174 1192 1193
f 1193 1192 1194
f 1193 1194 1195
f 1195 1194 1196
f 1195 1196 1197
f 1198 1199 1200
f 1200 1199 1201
f 1200 1201 1202
f 1202 1201 1203
f 1204 1205 1206
f 1204 1206 1207
f 1207 1206 1208
f 1207 1208 1209
f 1205 1204 1210
f 1210 1204 1211
f 1210 1211 1212
f 1212 1211 1213
f 1212 1213 1214
f 1213 1215 1214
f 1214 1215 1202
f 1214 1202 1203
f 1216 1217 1218
f 1216 1218 1219
f 1219 1218 1220
f 1219 1220 1221
f 1222 1223 1224
f 1222 1224 1225
f 1225 1224 1217
f 1225 1217 1216
f 1226 1227 1228
f 1228 1227 1229
f 1228 1229 1222
f 1222 1229 1223
f 1230 1231 1232
f 1232 1231 1233
f 1232 1233 1234
f 1234 1233 1235
f 1236 1237 1238
f 1236 1238 1239
f 1239 1238 1240
f 1239 1240 1241
f 1242 1243 1244
f 1242 1244 1245
f 1245 1244 1246
f 1245 1246 1247
f 1248 1249 1250
f 1248 1250 1251
f 1251 1250 1252
f 1251 1252 1253
f 1254 1255 1256
f 1256 1255 1257
f 1256 1257 1258
f 1258 1257 1259
f 1260 1261 1257
f 1257 1261 1262
f 1257 1262 1259
f 1261 1260 1263
f 1263 1260 1264
f 1265 1266 1267
f 1265 1267 1268
f 1268 1267 1269
f 1268 1269 1270
f 1270 1269 1271
f 1270 1271 1272
f 1272 1271 1273
f 1272 1273 1274
f 1274 1273 1275
f 1274 1275 1276
f 1276 1275 1277
f 1276 1277 1278
f 1278 1277 1279
f 1278 1279 1280
f 1281 1282 1283
f 1283 1282 1284
f 1285 1286 1287
f 1285 1287 1288
f 1288 1287 1289
f 1288 1289 1290
f 1291 1292 1293
f 1293 1292 1294
f 1293 1294 1295
f 1295 1294 1296
f 1295 1296 1297
f 1297 1296 1298
f 1297 1298 1299
f 1299 1298 1300
f 1299 1300 1301
f 1301 1300 1302
f 1301 1302 1303
f 1303 1302 1304
f 1303 1304 1305
f 1305 1304 1306
f 1307 1308 1309
f 1309 1308 1310
f 1309 1310 1311
f 1312 1313 1309
f 1309 1313 1314
f 1309 1314 1307
f 1306 1304 1315
f 1315 1304 1302
f 1315 1302 1300
f 1312 1316 1313
f 1313 1316 1317
f 1313 1317 1318
f 1300 1298 1315
f 1315 1298 1296
f 1315 1296 1319
f 1319 1296 1294
f 1319 1294 1320
f 1320 1294 1321
f 1317 1322 1318
f 1318 1322 1323
f 1318 1323 1324
f 1325 1326 1292
f 1292 1326 1327
f 1292 1327 1294
f 1294 1327 1328
f 1294 1328 1321
f 1324 1329 1318
f 1318 1329 1330
f 1318 1330 1292
f 1292 1330 1331
f 1292 1331 1325
f 1332 1333 1334
f 1334 1333 1335
f 1336 1337 1338
f 1338 1337 1339
f 1340 1341 1342
f 1342 1341 1343
f 1344 1345 1346
f 1346 1345 1347
f 1348 1349 1350
f 1350 1349 1351
f 1350 1351 1352
f 1353 1333 1354
f 1354 1333 1332
f 1352 1351 1346
f 1346 1351 1355
f 1346 1355 1344
f 1353 1356 1333
f 1333 1356 1357
f 1333 1357 1345
f 1345 1357 1358
f 1345 1358 1347
f 1359 1360 1361
f 1361 1360 1362
f 1361 1362 1363
f 1363 1362 1364
f 1365 1366 1367
f 1368 1369 1370
f 1371 1338 1365
f 1365 1338 1339
f 1365 1339 1366
f 1372 1373 1374
f 1374 1373 1375
f 1374 1375 1376
f 1376 1375 1368
f 1376 1368 1377
f 1377 1368 1370
f 1378 1379 1380
f 1380 1379 1381
f 1380 1381 1382
f 1380 1360 1378
f 1378 1360 1359
f 1378 1359 1383
f 1383 1359 1338
f 1383 1338 1384
f 1384 1338 1371
f 1385 1343 1376
f 1376 1343 1386
f 1376 1386 1374
f 1387 1388 1389
f 1389 1388 1342
f 1389 1342 1390
f 1390 1342 1343
f 1390 1343 1391
f 1391 1343 1385
f 1392 1393 1389
f 1389 1393 1394
f 1389 1394 1387
f 1392 1395 1393
f 1393 1395 1396
f 1393 1396 1397
f 1397 1396 1398
f 1397 1398 1399
f 1367 1400 1365
f 1365 1400 1397
f 1365 1397 1401
f 1401 1397 1399
f 1402 1403 1404
f 1404 1403 1405
f 1406 1407 1408
f 1408 1407 1409
f 1410 1411 1412
f 1412 1411 1413
