v -0.00690883552 -0.16892386 0.115072778
v -0.00690883552 -0.168913846 0.115072778
v -0.00691968357 -0.168913846 0.114949039
v -0.00691968357 -0.16892386 0.114949039
v -0.00695401584 -0.168913846 0.114833764
v -0.00695401584 -0.16892386 0.114833764
v -0.00701469337 -0.168913846 0.114729336
v -0.00701469337 -0.16892386 0.114729336
v -0.00709349071 -0.168913846 0.114647082
v -0.00709349071 -0.16892386 0.114647082
v -0.00718289768 -0.168913846 0.114589742
v -0.00718289768 -0.16892386 0.114589742
v -0.00728756344 -0.168913846 0.11455386
v -0.00728756344 -0.16892386 0.11455386
v -0.00742143547 -0.168913846 0.114539794
v -0.00742143547 -0.16892386 0.114539794
v 0.025749503 -0.197499995 0.0708998953
v 0.025749503 -0.197499995 0.071899942
v 0.0257857426 -0.197200839 0.071899942
v 0.0257857426 -0.197200839 0.0708998953
v 0.0258926734 -0.196919088 0.071899942
v 0.0258926734 -0.196919088 0.0708998953
v 0.0260638579 -0.196671073 0.071899942
v 0.0260638579 -0.196671073 0.0708998953
v 0.0262894019 -0.196471279 0.071899942
v 0.0262894019 -0.196471279 0.0708998953
v 0.0265561923 -0.196331208 0.071899942
v 0.0265561923 -0.196331208 0.0708998953
v 0.0268488511 -0.196259086 0.071899942
v 0.0268488511 -0.196259086 0.0708998953
v 0.027150093 -0.196259086 0.071899942
v 0.027150093 -0.196259086 0.0708998953
v 0.0274427518 -0.196331208 0.071899942
v 0.0274427518 -0.196331208 0.0708998953
v 0.0277095422 -0.196471279 0.071899942
v 0.0277095422 -0.196471279 0.0708998953
v 0.0279350861 -0.196671073 0.071899942
v 0.0279350861 -0.196671073 0.0708998953
v 0.0281062707 -0.196919088 0.071899942
v 0.0281062707 -0.196919088 0.0708998953
v 0.0282132014 -0.197200839 0.071899942
v 0.0282132014 -0.197200839 0.0708998953
v 0.028249441 -0.197499995 0.071899942
v 0.028249441 -0.197499995 0.0708998953
v 0.0232494458 -0.197499995 0.0708998953
v 0.0232494458 -0.197499995 0.071899942
v 0.0232132062 -0.197799151 0.071899942
v 0.0232132062 -0.197799151 0.0708998953
v 0.0231062754 -0.198080902 0.071899942
v 0.0231062754 -0.198080902 0.0708998953
v 0.0229350909 -0.198328917 0.071899942
v 0.0229350909 -0.198328917 0.0708998953
v 0.0227095469 -0.198528712 0.071899942
v 0.0227095469 -0.198528712 0.0708998953
v 0.0224427565 -0.198668783 0.071899942
v 0.0224427565 -0.198668783 0.0708998953
v 0.0221500977 -0.198740904 0.071899942
v 0.0221500977 -0.198740904 0.0708998953
v 0.0218488559 -0.198740904 0.071899942
v 0.0218488559 -0.198740904 0.0708998953
v 0.0215561971 -0.198668783 0.071899942
v 0.0215561971 -0.198668783 0.0708998953
v 0.0212894067 -0.198528712 0.071899942
v 0.0212894067 -0.198528712 0.0708998953
v 0.0210638627 -0.198328917 0.071899942
v 0.0210638627 -0.198328917 0.0708998953
v 0.0208926781 -0.198080902 0.071899942
v 0.0208926781 -0.198080902 0.0708998953
v 0.0207857474 -0.197799151 0.071899942
v 0.0207857474 -0.197799151 0.0708998953
v 0.0207495078 -0.197499995 0.071899942
v 0.0207495078 -0.197499995 0.0708998953
v 0.0207857474 -0.197200839 0.071899942
v 0.0207857474 -0.197200839 0.0708998953
v 0.0208926781 -0.196919088 0.071899942
v 0.0208926781 -0.196919088 0.0708998953
v 0.0210638627 -0.196671073 0.071899942
v 0.0210638627 -0.196671073 0.0708998953
v 0.0212894067 -0.196471279 0.071899942
v 0.0212894067 -0.196471279 0.0708998953
v 0.0215561971 -0.196331208 0.071899942
v 0.0215561971 -0.196331208 0.0708998953
v 0.0218488559 -0.196259086 0.071899942
v 0.0218488559 -0.196259086 0.0708998953
v 0.0221500977 -0.196259086 0.071899942
v 0.0221500977 -0.196259086 0.0708998953
v 0.0224427565 -0.196331208 0.071899942
v 0.0224427565 -0.196331208 0.0708998953
v 0.0227095469 -0.196471279 0.071899942
v 0.0227095469 -0.196471279 0.0708998953
v 0.0229350909 -0.196671073 0.071899942
v 0.0229350909 -0.196671073 0.0708998953
v 0.0231062754 -0.196919088 0.071899942
v 0.0231062754 -0.196919088 0.0708998953
v 0.0232132062 -0.197200839 0.071899942
v 0.0232132062 -0.197200839 0.0708998953
f 1 2 3
f 1 3 4
f 4 3 5
f 4 5 6
f 6 5 7
f 6 7 8
f 8 7 9
f 8 9 10
f 10 9 11
f 10 11 12
f 12 11 13
f 12 13 14
f 14 13 15
f 14 15 16
f 17 18 19
f 17 19 20
f 20 19 21
f 20 21 22
f 22 21 23
f 22 23 24
f 24 23 25
f 24 25 26
f 26 25 27
f 26 27 28
f 28 27 29
f 28 29 30
f 30 29 31
f 30 31 32
f 32 31 33
f 32 33 34
f 34 33 35
f 34 35 36
f 36 35 37
f 36 37 38
f 38 37 39
f 38 39 40
f 40 39 41
f 40 41 42
f 42 41 43
f 42 43 44
f 45 46 47
f 45 47 48
f 48 47 49
f 48 49 50
f 50 49 51
f 50 51 52
f 52 51 53
f 52 53 54
f 54 53 55
f 54 55 56
f 56 55 57
f 56 57 58
f 58 57 59
f 58 59 60
f 60 59 61
f 60 61 62
f 62 61 63
f 62 63 64
f 64 63 65
f 64 65 66
f 66 65 67
f 66 67 68
f 68 67 69
f 68 69 70
f 70 69 71
f 70 71 72
f 72 71 73
f 72 73 74
f 74 73 75
f 74 75 76
f 76 75 77
f 76 77 78
f 78 77 79
f 78 79 80
f 80 79 81
f 80 81 82
f 82 81 83
f 82 83 84
f 84 83 85
f 84 85 86
f 86 85 87
f 86 87 88
f 88 87 89
f 88 89 90
f 90 89 91
f 90 91 92
f 92 91 93
f 92 93 94
f 94 93 95
f 94 95 96
f 96 95 46
f 96 46 45
