v 0.0232409819 -0.203350012 0.0691998516
v 0.0221499785 -0.203350012 0.0691998516
v 0.0232409819 -0.203350012 0.0636998926
v 0.0221499785 -0.203350012 0.0631999288
v 0.02279502 -0.203350012 0.0632033859
v 0.0228196963 -0.203350012 0.0632085119
v 0.0231965169 -0.20335031 0.0634990249
v 0.0230440482 -0.20335031 0.0633035217
v 0.0231141433 -0.20335037 0.0633681331
v 0.0231328591 -0.20335037 0.0633937631
v 0.0232099875 -0.203350251 0.0635273967
v 0.023231922 -0.203350131 0.0636058365
v 0.0232329949 -0.203350072 0.0636162077
v 0.0228832349 -0.203350072 0.0632216249
v 0.0229390248 -0.203350131 0.0632440363
v 0.02317041 -0.20335037 0.0634446655
v 0.0227348193 -0.203350012 0.0631999288
v 0.0229672774 -0.203350191 0.0632553611
v 0.00805741394 -0.199174468 0.0684189115
v 0.00806337441 -0.199208741 0.0683916126
v 0.00804751957 -0.199176137 0.0684189115
v 0.00805359925 -0.19921047 0.0683916126
v 0.00805502976 -0.199218636 0.0683851753
v 0.00806492413 -0.199217205 0.0683849369
v 0.00805622185 -0.199225132 0.0683824335
v 0.00806599701 -0.199223285 0.0683823143
v 0.00805860604 -0.199237947 0.0683769498
v 0.0080683812 -0.199235921 0.0683769498
v 0.0080594405 -0.19924212 0.0683761154
v 0.00806921566 -0.199240272 0.0683761154
v 0.00807708348 -0.199280863 0.0683689628
v 0.00806718911 -0.19928277 0.0683689628
v -0.0236399785 -0.197118168 0.0619854246
v -0.0236299649 -0.197118168 0.0619854246
v -0.0236399785 -0.197105889 0.0619500194
v -0.0236299649 -0.197080259 0.0618762289
v -0.0236399785 -0.197080259 0.0618762289
v -0.0236299649 -0.197166924 0.0619823251
v -0.0236299649 -0.197166924 0.0619575296
v -0.0236399785 -0.197166924 0.0619823251
v -0.0236399785 -0.197166924 0.0619575296
v -0.0236399785 -0.197363203 0.0618367706
v -0.0236299649 -0.197363203 0.0618367706
v -0.0236399785 -0.197377984 0.0618384395
v -0.0236299649 -0.197378461 0.0618385587
v -0.0236399785 -0.197378461 0.0618385587
v -0.0236299649 -0.197388236 0.061842135
v -0.0236399785 -0.197388236 0.061842135
v -0.0236299649 -0.19739676 0.0618482147
v -0.0236399785 -0.19739676 0.0618482147
v -0.0236299649 -0.197327678 0.062182716
v -0.0236399785 -0.197327678 0.062182716
v -0.0236399785 -0.197348123 0.0621852193
v -0.0236299649 -0.197348123 0.0621852193
v -0.0236399785 -0.197362606 0.0621908222
v -0.0236299649 -0.197362606 0.0621908222
v -0.0236399785 -0.197375898 0.0622002397
v -0.0236299649 -0.197375898 0.0622002397
v -0.0236399785 -0.197379951 0.0622041736
v -0.0236299649 -0.197379951 0.0622041736
v -0.0245899573 -0.198449974 0.0611599002
v -0.0245899573 -0.198449974 0.0579098974
v -0.025229992 -0.198449974 0.0611599002
v -0.025229992 -0.198449974 0.0579098974
v -0.0271299497 -0.198449974 0.0611599002
v -0.0271299497 -0.198449974 0.0579098974
v -0.0274556295 -0.198449974 0.0611599002
v -0.0277699844 -0.198449974 0.0579098974
v -0.0277699844 -0.198449974 0.0611599002
v 0.00931292618 -0.206804996 0.071163467
v 0.00931292618 -0.206795042 0.071163467
v 0.00928562725 -0.206795042 0.0711669241
v 0.00928562725 -0.206804996 0.0711669241
v 0.00926035488 -0.206795042 0.07117658
v 0.00926035488 -0.206804996 0.07117658
v 0.00923794354 -0.206795042 0.0711921964
v 0.00923794354 -0.206804996 0.0711921964
v 0.00922089661 -0.206795042 0.0712111507
v 0.00922089661 -0.206804996 0.0712111507
v 0.00921875084 -0.206795042 0.071215323
v 0.00920754517 -0.206804996 0.0712361847
v 0.00920754517 -0.206795042 0.0712361847
v 0.00920086945 -0.206795042 0.0712639604
v 0.00920086945 -0.206804996 0.0712639604
v 0.00920015419 -0.206795042 0.0712763582
v 0.00920015419 -0.206804996 0.0712763582
v 0.00796884144 -0.206804996 0.0713134323
v 0.00796884144 -0.206795042 0.0713134323
v 0.0079670533 -0.206795042 0.0713073526
v 0.0079670533 -0.206804996 0.0713073526
v 0.00796550358 -0.206795042 0.0712992464
v 0.00796550358 -0.206804996 0.0712992464
v 0.00847810353 -0.206804996 0.0714524303
v 0.00847738827 -0.206804996 0.0714524303
v 0.00847810353 -0.206795042 0.0714524303
v 0.00847738827 -0.206795042 0.0714524303
v 0.00846141423 -0.206795042 0.0709739242
v 0.00846141423 -0.206795042 0.0711308036
v 0.00843065823 -0.206795042 0.0709739242
v 0.00843185032 -0.206795042 0.0711308036
v 0.00840598191 -0.206795042 0.0711279426
v 0.00838857735 -0.206795042 0.0711217437
v 0.0083751067 -0.206795042 0.0711129223
v 0.00837141121 -0.206795042 0.0711095844
v 0.00836127842 -0.206795042 0.0710970674
v 0.00835424507 -0.206795042 0.0710819278
v 0.00835031117 -0.206795042 0.0710633312
v 0.00834959591 -0.206795042 0.0710504566
v 0.00835209931 -0.206795042 0.0710269724
v 0.00835758293 -0.206795042 0.0710115944
v 0.00836521233 -0.206795042 0.0709999118
v 0.00837200726 -0.206795042 0.0709931169
v 0.00840443219 -0.206795042 0.0709769045
v 0.00838678921 -0.206795042 0.0709832225
v 0.00853067482 -0.206804996 0.0709505592
v 0.00853067482 -0.206804996 0.0709739242
v 0.00853067482 -0.206795042 0.0709505592
v 0.00853067482 -0.206795042 0.0709739242
v 0.0103000983 -0.206695025 0.071899942
v 0.0103000983 -0.203895037 0.071899942
v 0.000500021823 -0.206695025 0.071899942
v 0.000500021823 -0.203895037 0.071899942
v 0.0238414391 -0.18431813 0.131593517
v 0.0238414391 -0.185544853 0.131593517
v 0.0237937554 -0.18431813 0.131956271
v 0.0237937554 -0.185544853 0.131956271
v 0.0236536845 -0.18431813 0.132294468
v 0.0236536845 -0.185544853 0.132294468
v 0.0234308823 -0.18431813 0.132584861
v 0.0234308823 -0.185544853 0.132584861
v 0.0231404885 -0.18431813 0.132807544
v 0.0231404885 -0.185544853 0.132807544
v 0.022802411 -0.18431813 0.132947615
v 0.022802411 -0.185544853 0.132947615
v 0.0224395379 -0.18431813 0.132995418
v 0.0224395379 -0.185544853 0.132995418
v 0.0220766648 -0.18431813 0.132947615
v 0.0220766648 -0.185544853 0.132947615
v 0.0217385873 -0.18431813 0.132807544
v 0.0217385873 -0.185544853 0.132807544
v 0.0214481934 -0.18431813 0.132584861
v 0.0214481934 -0.185544853 0.132584861
v 0.0212253913 -0.18431813 0.132294468
v 0.0212253913 -0.185544853 0.132294468
v 0.0210853204 -0.18431813 0.131956271
v 0.0210853204 -0.185544853 0.131956271
v 0.0210375174 -0.18431813 0.131593517
v 0.0210375174 -0.185544853 0.131593517
v 0.27180606 0.0672070933 0.0484570776
v 0.272948562 0.0627928925 0.0441933189
v 0.268908201 0.0672070933 0.0476806675
v 0.270050703 0.0627928925 0.0434167896
v 0.0136752709 -0.221250062 0.0678898607
v 0.0136752709 -0.221260076 0.0678898607
v 0.0137293919 -0.221260076 0.0678961788
v 0.0137293919 -0.221250062 0.0678961788
v 0.0137811288 -0.221260076 0.0679156099
v 0.0137811288 -0.221250062 0.0679156099
v 0.0138265475 -0.221260076 0.0679469619
v 0.0138265475 -0.221250062 0.0679469619
v 0.0138370379 -0.221260076 0.0679570947
v 0.0138370379 -0.221250062 0.0679570947
v 0.0138707742 -0.221260076 0.0680009637
v 0.0138707742 -0.221250062 0.0680009637
v 0.0138928279 -0.221260076 0.0680527006
v 0.0138928279 -0.221250062 0.0680527006
v 0.0139008149 -0.221260076 0.0680980001
v 0.0139008149 -0.221250062 0.0680980001
v 0.0142084941 -0.221250062 0.0665741478
v 0.0142084941 -0.221260076 0.0665741478
v 0.0142115935 -0.221260076 0.0665591274
v 0.0142115935 -0.221250062 0.0665591274
v 0.0142126664 -0.221260076 0.0665413652
v 0.0142126664 -0.221250062 0.0665413652
v 0.0137915 -0.221250062 0.0666251693
v 0.0138409718 -0.221250062 0.0666251693
v 0.0137915 -0.221260076 0.0666251693
v 0.0138409718 -0.221260076 0.0666251693
v 0.0140277728 -0.221250062 0.0670433555
v 0.0140277728 -0.221260076 0.0670433555
v 0.0140241965 -0.221260076 0.067047051
v 0.0140241965 -0.221250062 0.067047051
v 0.0140158519 -0.221260076 0.0670530115
v 0.0140158519 -0.221250062 0.0670530115
v 0.014006792 -0.221260076 0.0670565878
v 0.014006792 -0.221250062 0.0670565878
v 0.0139937981 -0.221260076 0.0670581375
v 0.0139937981 -0.221250062 0.0670581375
v 0.013819991 -0.221250062 0.0669862543
v 0.013819991 -0.221260076 0.0669862543
v 0.0138216599 -0.221260076 0.0669698034
v 0.0138216599 -0.221250062 0.0669698034
v 0.013825713 -0.221260076 0.0669577633
v 0.013825713 -0.221250062 0.0669577633
v 0.0138314351 -0.221260076 0.0669485841
v 0.0138314351 -0.221250062 0.0669485841
v 0.0138394221 -0.221260076 0.0669407163
v 0.0138394221 -0.221250062 0.0669407163
v 0.0138497933 -0.221260076 0.0669347559
v 0.0138497933 -0.221250062 0.0669347559
v 0.0138675555 -0.221260076 0.0669293914
v 0.0138675555 -0.221250062 0.0669293914
v 0.0138911589 -0.221260076 0.0669273649
v 0.0138911589 -0.221250062 0.0669273649
v 0.0131087884 -0.221250062 0.0662333284
v 0.0131087884 -0.221260076 0.0662333284
v 0.0131223782 -0.221260076 0.0662198578
v 0.0131223782 -0.221250062 0.0662198578
v 0.0131458625 -0.221260076 0.0662047182
v 0.0131458625 -0.221250062 0.0662047182
v 0.0131766185 -0.221260076 0.0661937509
v 0.0131766185 -0.221250062 0.0661937509
v 0.0132233485 -0.221260076 0.0661887441
v 0.0132233485 -0.221250062 0.0661887441
v 0.0132473096 -0.221250062 0.0667077814
v 0.0133841618 -0.221250062 0.0667077814
v 0.0132473096 -0.221260076 0.0667077814
v 0.0133841618 -0.221260076 0.0667077814
v 0.014770089 -0.223230069 0.0632999454
v 0.014770089 -0.223230069 0.0651999031
v 0.0157701358 -0.223230069 0.0632999454
v 0.0157701358 -0.223230069 0.0651999031
v 0.0260754212 -0.219005053 0.0714766298
v 0.0259979352 -0.219005053 0.0712732587
v 0.0260754212 -0.218995039 0.0714766298
v 0.0259979352 -0.218995039 0.0712732587
v 0.0159910306 -0.236109619 0.0682533298
v 0.0159811362 -0.236110573 0.0682533298
v 0.0159921035 -0.236121182 0.0682533298
v 0.0159822091 -0.236122136 0.0682533298
v 0.0158832654 -0.235499625 0.068329743
v 0.0158736094 -0.235502129 0.068329743
v 0.0158757552 -0.235510473 0.0683033977
v 0.0159019812 -0.235575323 0.0682051693
v 0.0158993586 -0.235564237 0.0682100568
v 0.0158882722 -0.235561018 0.0682144676
v 0.0158980473 -0.235558634 0.0682142292
v 0.0158866032 -0.235554163 0.0682186399
v 0.0158951863 -0.235547011 0.0682229314
v 0.0158854112 -0.235549216 0.0682238851
v 0.0158950671 -0.235546474 0.0682235275
v 0.0158831462 -0.235539799 0.0682337795
v 0.0158925637 -0.235536282 0.0682359253
v 0.0158827885 -0.235538607 0.068235806
v 0.0158918485 -0.235533302 0.0682396207
v 0.0158798083 -0.235526686 0.0682570253
v 0.0158895835 -0.235524659 0.0682571445
v 0.0158789738 -0.235523348 0.0682627473
v 0.0158875569 -0.235516255 0.0682743106
v 0.0158852919 -0.235507553 0.0683032785
v 0.0158918485 -0.23557586 0.0682052885
v 0.0158922061 -0.235577409 0.0682048116
v 0.0159053191 -0.235589211 0.0681989704
v 0.0158966168 -0.23559696 0.068199328
v 0.015906392 -0.235594218 0.0681977783
v 0.0159074649 -0.235643988 0.068186215
v 0.0159171208 -0.235641842 0.068186215
v 0.0159043654 -0.237369959 0.0685754333
v 0.0159141406 -0.237372105 0.0685754333
v 0.0158955439 -0.237408404 0.0684739862
v 0.0159053191 -0.237410669 0.0684739862
v 0.015886484 -0.23744673 0.0683725391
v 0.01589614 -0.237449114 0.0683725391
v 0.0159973487 -0.236648505 0.0685292993
v 0.0160073623 -0.236648862 0.0685292993
v 0.0159973487 -0.236648862 0.0685329948
v 0.0160073623 -0.236649101 0.0685312067
v 0.0159973487 -0.236648982 0.0685334716
v 0.016007243 -0.236649518 0.0685334716
v 0.0159972295 -0.236649816 0.0685374056
v 0.016007243 -0.236650233 0.0685374056
v 0.0159972295 -0.236649935 0.0685380016
v 0.016007243 -0.236650412 0.0685383592
v 0.0159972295 -0.23665071 0.0685396705
v 0.016007243 -0.236651068 0.0685396705
v 0.0159972295 -0.236651366 0.0685409818
v 0.016007243 -0.236651664 0.0685407434
v 0.0159972295 -0.23665226 0.0685420547
v 0.0160071238 -0.236652677 0.0685420547
v 0.0159971103 -0.236655776 0.068546227
v 0.0160070046 -0.236656134 0.068546227
v 0.0267928227 -0.195199971 0.070609859
v 0.0267928227 -0.195100014 0.070609859
v 0.0267928227 -0.195199971 0.0700226341
v 0.0267928227 -0.195100014 0.0698098455
v 0.0267928227 -0.195199971 0.0698098455
v 0.0243927821 -0.195100014 0.070490769
v 0.0243927821 -0.195199971 0.070490769
v 0.0243428334 -0.195100014 0.0704566751
v 0.0243428334 -0.195199971 0.0704566751
v 0.0231928214 -0.195100014 0.070490769
v 0.0231928214 -0.195199971 0.070490769
v 0.0231594428 -0.195100014 0.0705078159
v 0.0231594428 -0.195199971 0.0705078159
v 0.0220436438 -0.199899976 0.0707421814
v 0.0220436438 -0.199800019 0.0707421814
v 0.0220853671 -0.199899976 0.0707635198
v 0.0220853671 -0.199800019 0.0707635198
v 0.022877036 -0.199899976 0.0705507312
v 0.022877036 -0.199800019 0.0705507312
v 0.0232310876 -0.199899976 0.0704443966
v 0.0232310876 -0.199800019 0.0704443966
v -0.0218231097 -0.173171227 0.113022021
v -0.0218331233 -0.173171227 0.113022855
v -0.0218331233 -0.17320544 0.113022617
v -0.0218231097 -0.17320544 0.113021782
v -0.0218331233 -0.173239593 0.113022379
v -0.0218232289 -0.173239593 0.113021544
v -0.0218195335 -0.173239892 0.11306291
v -0.021829547 -0.173239892 0.113063863
v -0.0218155996 -0.17324019 0.113104275
v -0.0218254939 -0.17324019 0.113105348
v -0.0218380109 -0.173228745 0.112955383
v -0.0218393222 -0.173236732 0.112936071
v -0.0218380109 -0.173241322 0.112955383
v -0.0218381301 -0.173253899 0.112955264
v -0.0218394414 -0.173261528 0.112932375
v -0.0218396798 -0.173239236 0.112929991
v -0.0218399182 -0.173263555 0.112926296
v -0.0218399182 -0.173239713 0.112925104
v -0.0218403951 -0.173264151 0.112916759
v -0.0218413488 -0.173265343 0.112898758
v -0.0218411103 -0.173241978 0.112902692
v -0.0218426601 -0.173261349 0.112870625
v -0.0218419448 -0.173239415 0.112885645
v -0.0218421832 -0.173238699 0.112880877
v -0.0218427793 -0.173260992 0.112867645
v -0.0218424216 -0.173236554 0.112874797
v -0.0218430177 -0.17325819 0.112860969
v -0.0218426601 -0.173235004 0.112870387
v -0.0218433753 -0.173255568 0.112854651
v -0.0218427793 -0.173233454 0.11286836
v -0.0218434945 -0.173251574 0.112849048
v -0.0218442098 -0.17323709 0.112828783
v -0.0218434945 -0.173220222 0.112850479
v -0.0218437329 -0.173211222 0.112844757
v -0.0218446866 -0.173212891 0.112813405
v -0.0218438522 -0.17320544 0.112841061
v -0.0218448058 -0.173210149 0.112811736
v -0.0218439714 -0.173195426 0.112836531
v -0.021844925 -0.17320246 0.112809232
v -0.021844925 -0.173194115 0.11280661
v -0.0218440906 -0.173190122 0.112834147
v -0.021844925 -0.173185353 0.112805656
v -0.0218440906 -0.17318738 0.112833909
v -0.0218450442 -0.173163419 0.112803153
v -0.0218442098 -0.173162048 0.112830809
v -0.021844925 -0.173131828 0.112807444
v -0.0218440906 -0.173145478 0.112832717
v -0.0218440906 -0.173138027 0.11283367
v -0.021844925 -0.17312861 0.112807802
v -0.0218439714 -0.173130219 0.112836054
v -0.0218448058 -0.173120563 0.11281102
v -0.0218426601 -0.173087721 0.112871221
v -0.0218431369 -0.173065667 0.112859896
v -0.0218432561 -0.173067574 0.112857154
v -0.0218446866 -0.173112695 0.112814239
v -0.0218439714 -0.173124139 0.112837843
v -0.0218445674 -0.173105125 0.112819365
v -0.0218438522 -0.173121695 0.112839392
v -0.0218440906 -0.173084621 0.112833193
v -0.0218433753 -0.173101072 0.112852744
v -0.0218427793 -0.173090761 0.11286693
v -0.0218427793 -0.173062806 0.112867287
v -0.0218423024 -0.1730848 0.112877539
v -0.0218425409 -0.173060064 0.11287444
v -0.0218421832 -0.173082714 0.112882069
v -0.0218421832 -0.173058991 0.112881831
v -0.021842064 -0.173082297 0.112884692
v -0.0218408719 -0.173055177 0.112908295
v -0.0218408719 -0.173078899 0.112908414
v -0.0218399182 -0.173080986 0.112926057
v -0.0218394414 -0.173056965 0.112932972
v -0.0218394414 -0.17308182 0.112933329
v -0.0218380109 -0.173063819 0.112956575
v -0.021839203 -0.173083489 0.112937382
v -0.0218380109 -0.173077588 0.112956456
v -0.0218380109 -0.173091297 0.112956337
v -0.0247271672 -0.175796335 0.143990806
v -0.0247271672 -0.175796335 0.14399176
v -0.0247370616 -0.175796335 0.143990806
v -0.0247370616 -0.175796335 0.14399176
v -0.0247370616 -0.176498477 0.14604812
v -0.0247370616 -0.176346068 0.146052769
v -0.0247370616 -0.176500742 0.146066717
v -0.0247370616 -0.176344757 0.146066717
v -0.0247370616 -0.176347022 0.146085194
v -0.0247370616 -0.176353638 0.146102718
v -0.0247370616 -0.176364486 0.146118573
v -0.0247370616 -0.176376407 0.146129421
v -0.0247370616 -0.176481311 0.146015338
v -0.0247370616 -0.176376348 0.146004132
v -0.0247370616 -0.1763624 0.146017483
v -0.0247370616 -0.176450436 0.146139673
v -0.0247370616 -0.176466887 0.146130971
v -0.0247370616 -0.176481311 0.146118215
v -0.0247370616 -0.176491921 0.146030716
v -0.0247370616 -0.176352029 0.146033934
v -0.0247370616 -0.176492219 0.146102122
v -0.0247370616 -0.176498895 0.146083525
v -0.0247370616 -0.176393454 0.146139077
v -0.0247370616 -0.176412528 0.146144084
v -0.0247370616 -0.176432078 0.146144203
v -0.0247370616 -0.176449363 0.145993522
v -0.0247370616 -0.176430111 0.145989111
v -0.0247370616 -0.176466827 0.146002463
v -0.0247370616 -0.17641068 0.145989708
v -0.0247370616 -0.176392441 0.145994834
v -0.0247271672 -0.176386957 0.144681505
v -0.0247271672 -0.176393275 0.144728473
v -0.0247370616 -0.176386957 0.144681505
v -0.0247370616 -0.176393275 0.144728473
v -0.0247271672 -0.176487749 0.144646219
v -0.0247271672 -0.176487749 0.144681505
v -0.0247370616 -0.176487749 0.144646219
v -0.0247370616 -0.176487749 0.144681505
v -0.0247271672 -0.176480715 0.144598535
v -0.0247271672 -0.176444356 0.144598535
v -0.0247370616 -0.176480715 0.144598535
v -0.0247370616 -0.176444356 0.144598535
v -0.0247271672 -0.176436548 0.144498995
v -0.0247370616 -0.176436548 0.144498995
v -0.0247370616 -0.176443284 0.144499711
v -0.0247271672 -0.176443284 0.144499711
v -0.0247370616 -0.17644829 0.144501618
v -0.0247271672 -0.17644829 0.144501618
v -0.0247370616 -0.17645282 0.144504598
v -0.0247271672 -0.17645282 0.144504598
v -0.0247370616 -0.176456456 0.144508651
v -0.0247271672 -0.176456456 0.144508651
v -0.0247370616 -0.176458364 0.14451187
v -0.0247271672 -0.176458364 0.14451187
v -0.0247370616 -0.176461701 0.14452093
v -0.0247271672 -0.176461701 0.14452093
v -0.0247370616 -0.176463728 0.14453905
v -0.0247271672 -0.176463728 0.14453905
v -0.0247370616 -0.176463728 0.144540599
v -0.0247271672 -0.176463728 0.144540599
v -0.0247271672 -0.176282291 0.144520095
v -0.0247370616 -0.176282291 0.144520095
v -0.0247370616 -0.176284676 0.144544056
v -0.0247271672 -0.176284676 0.144544056
v -0.0247370616 -0.176291292 0.144563845
v -0.0247271672 -0.176291292 0.144563845
v -0.0247370616 -0.176298265 0.144575766
v -0.0247271672 -0.176298265 0.144575766
v -0.0247370616 -0.176286881 0.144405178
v -0.0247271672 -0.176286881 0.144405178
v -0.0247370616 -0.176335816 0.144388131
v -0.0247271672 -0.17643786 0.144352726
v -0.0247370616 -0.17643786 0.144352726
v -0.0247271672 -0.17645437 0.144348315
v -0.0247271672 -0.17645437 0.14434748
v -0.0247370616 -0.17645437 0.144348315
v -0.0247370616 -0.17645437 0.14434748
v -0.028137149 -0.179913824 0.14749997
v -0.0283370629 -0.179913824 0.14749997
v -0.02810985 -0.179913824 0.147292903
v -0.0283030883 -0.179913824 0.147241047
v -0.0280299798 -0.179913824 0.147099904
v -0.0282031909 -0.179913824 0.146999887
v -0.0279027835 -0.179913824 0.146934203
v -0.0280441657 -0.179913824 0.146792821
v -0.0277370826 -0.179913824 0.146807126
v -0.0278370992 -0.179913824 0.146633915
v -0.027544202 -0.179913824 0.146727136
v -0.0275959388 -0.179913824 0.146534017
v -0.0273371354 -0.179913824 0.146699956
v -0.0273371354 -0.179913824 0.146499923
v -0.0271300689 -0.179913824 0.146727136
v -0.0270783321 -0.179913824 0.146534017
v -0.0269370691 -0.179913824 0.146807126
v -0.0268370525 -0.179913824 0.146633915
v -0.0267713681 -0.179913824 0.146934203
v -0.0266299859 -0.179913824 0.146792821
v -0.026644291 -0.179913824 0.147099904
v -0.0264710799 -0.179913824 0.146999887
v -0.0265644208 -0.179913824 0.147292903
v -0.0263711826 -0.179913824 0.147241047
v -0.0265371219 -0.179913824 0.14749997
v -0.0263370887 -0.179913824 0.14749997
v -0.0273371354 -0.167663817 0.146399907
v -0.0273371354 -0.167513852 0.146249941
v -0.0274806634 -0.167663817 0.146409324
v -0.0275002137 -0.167513852 0.14626067
v -0.0276218072 -0.167663817 0.146437458
v -0.0276606694 -0.167513852 0.146292499
v -0.0277580634 -0.167663817 0.146483711
v -0.0278155223 -0.167513852 0.14634507
v -0.0278871671 -0.167663817 0.146547249
v -0.0279621497 -0.167513852 0.14641743
v -0.028006734 -0.167663817 0.146627239
v -0.0280980483 -0.167513852 0.146508268
v -0.028114976 -0.167663817 0.146722129
v -0.0282209531 -0.167513852 0.146616033
v -0.0282097474 -0.167663817 0.146830252
v -0.0283288375 -0.167513852 0.146738938
v -0.0282897369 -0.167663817 0.146949938
v -0.028419675 -0.167513852 0.146874956
v -0.0283533946 -0.167663817 0.147078923
v -0.0284919158 -0.167513852 0.147021583
v -0.0283996478 -0.167663817 0.147215179
v -0.0285444871 -0.167513852 0.147176436
v -0.028427662 -0.167663817 0.147356323
v -0.0285764352 -0.167513852 0.147336773
v -0.0284370795 -0.167663817 0.14749997
v -0.028587164 -0.167513852 0.14749997
v -0.028427662 -0.167663817 0.147643498
v -0.0285764352 -0.167513852 0.147663048
v -0.0283996478 -0.167663817 0.147784642
v -0.0285444871 -0.167513852 0.147823504
v -0.0283533946 -0.167663817 0.147920898
v -0.0284919158 -0.167513852 0.147978238
v -0.0282897369 -0.167663817 0.148049882
v -0.028419675 -0.167513852 0.148124865
v -0.0282097474 -0.167663817 0.148169569
v -0.0283288375 -0.167513852 0.148260883
v -0.028114976 -0.167663817 0.148277691
v -0.0282209531 -0.167513852 0.148383788
v -0.028006734 -0.167663817 0.148372582
v -0.0280980483 -0.167513852 0.148491672
v -0.0278871671 -0.167663817 0.148452571
v -0.0279621497 -0.167513852 0.14858251
v -0.0277580634 -0.167663817 0.148516229
v -0.0278155223 -0.167513852 0.14865475
v -0.0276218072 -0.167663817 0.148562482
v -0.0276606694 -0.167513852 0.148707322
v -0.0274806634 -0.167663817 0.148590497
v -0.0275002137 -0.167513852 0.14873927
v -0.0273371354 -0.167663817 0.148599914
v -0.0273371354 -0.167513852 0.148749879
v -0.0134775058 -0.217996423 0.0655777965
v -0.0134775058 -0.217883055 0.0655930553
v -0.0134875194 -0.217996423 0.0655777965
v -0.0134875194 -0.217883055 0.0655930553
v -0.0603676454 -0.234711413 0.12121301
v -0.0594424621 -0.234966283 0.120261959
v -0.0603676454 -0.242728596 0.123361281
v -0.0594424621 -0.242983465 0.12241011
v -0.00285881912 -0.17606384 0.141835145
v -0.00285881912 -0.176163857 0.141835145
v -0.00285965358 -0.176163857 0.141842297
v -0.00285965358 -0.17606384 0.141842297
v -0.0028610841 -0.176163857 0.14184933
v -0.0028610841 -0.17606384 0.14184933
v 0.0156702384 -0.219005053 0.0714766298
v 0.0155928716 -0.219005053 0.0712732587
v 0.0156702384 -0.218995039 0.0714766298
v 0.0155928716 -0.218995039 0.0712732587
v 0.0156815633 -0.219005053 0.0713723217
v 0.0156815633 -0.218995039 0.0713723217
v 0.0156850203 -0.218995039 0.0713438306
v 0.0156850203 -0.219005053 0.0713438306
v 0.0156926497 -0.218995039 0.0713245187
v 0.0156926497 -0.219005053 0.0713245187
v 0.0157052859 -0.218995039 0.0713068758
v 0.0157052859 -0.219005053 0.0713068758
v 0.0157122001 -0.218995039 0.0713002
v 0.0157122001 -0.219005053 0.0713002
v 0.0163077697 -0.219005053 0.0714766298
v 0.0163331612 -0.219005053 0.0714766298
v 0.0163077697 -0.218995039 0.0714766298
v 0.0163331612 -0.218995039 0.0714766298
v -0.00622993862 -0.238119249 0.0619550262
v -0.00622993862 -0.238119249 0.0619317804
v -0.00621992504 -0.238119249 0.0619550262
v -0.00621992504 -0.238119249 0.0619317804
v -0.00622993862 -0.237833207 0.0619823251
v -0.00622993862 -0.237833207 0.0619575296
v -0.00621992504 -0.237833207 0.0619823251
v -0.00621992504 -0.237833207 0.0619575296
v -0.00622993862 -0.237791841 0.0622543607
v -0.00622993862 -0.237791841 0.0621860538
v -0.00621992504 -0.237791841 0.0622543607
v -0.00621992504 -0.237791841 0.0621860538
v -0.00287300502 -0.237621849 0.0612599168
v -0.00287300502 -0.237621849 0.0611599002
v -0.00290066158 -0.237593954 0.0611599002
v -0.00290066158 -0.237593954 0.0612599168
v -0.00294488823 -0.237563674 0.0611599002
v -0.00294488823 -0.237563674 0.0612599168
v -0.00299304878 -0.237545435 0.0611599002
v -0.00299304878 -0.237545435 0.0612599168
v -0.00305158054 -0.237538521 0.0611599002
v -0.00305158054 -0.237538521 0.0612599168
v -0.00273126518 -0.237500076 0.0612599168
v -0.00273126518 -0.2380001 0.0612599168
v -0.00273126518 -0.237500076 0.0611599002
v -0.00273126518 -0.2380001 0.0611599002
v -0.00220209514 -0.237946455 0.0612599168
v -0.0021258012 -0.237934773 0.0612599168
v -0.00209981357 -0.237982039 0.0612599168
v -0.00210327064 -0.237926607 0.0612599168
v -0.00204926883 -0.237956469 0.0612599168
v -0.00206595813 -0.237904792 0.0612599168
v -0.00201267158 -0.237924759 0.0612599168
v -0.00203710949 -0.237876539 0.0612599168
v -0.0019808427 -0.237879639 0.0612599168
v -0.00201410209 -0.237839942 0.0612599168
v -0.00195986187 -0.237827485 0.0612599168
v -0.00199943935 -0.237796907 0.0612599168
v -0.00194984829 -0.237766926 0.0612599168
v -0.00199407493 -0.237743859 0.0612599168
v -0.00194913303 -0.2377438 0.0612599168
v -0.00199443256 -0.237729971 0.0612599168
v -0.00195616638 -0.237676923 0.0612599168
v -0.00200325405 -0.237677102 0.0612599168
v -0.0019757167 -0.237621193 0.0612599168
v -0.00201982414 -0.237639253 0.0612599168
v -0.00200981056 -0.237569754 0.0612599168
v -0.00204461967 -0.23760653 0.0612599168
v -0.00204724228 -0.237536733 0.0612599168
v -0.00207442199 -0.23758245 0.0612599168
v -0.00208491241 -0.237517362 0.0612599168
v -0.0021142379 -0.237564092 0.0612599168
v -0.00214594757 -0.237503355 0.0612599168
v -0.00218528663 -0.237553363 0.0612599168
v -0.00220447933 -0.237500076 0.0612599168
v -0.00225716983 -0.237551336 0.0612599168
v -0.00235945141 -0.237500076 0.0612599168
v -0.0023145095 -0.237551336 0.0612599168
v -0.00235945141 -0.2380001 0.0612599168
v -0.0023145095 -0.23794878 0.0612599168
v -0.00225848114 -0.2380001 0.0612599168
v -0.00227934276 -0.23794878 0.0612599168
v -0.00217837249 -0.237997 0.0612599168
v -0.0017357484 -0.237711613 0.0612599168
v -0.00155705368 -0.237711613 0.0612599168
v -0.0017357484 -0.237711613 0.0611599002
v -0.00155705368 -0.237711613 0.0611599002
v 0.0236969575 -0.229535584 0.0718988691
v 0.0236969575 -0.229535584 0.071899942
v 0.0237007722 -0.229473298 0.071899942
v 0.0237007722 -0.229473298 0.0718988691
v 0.0237221106 -0.229387705 0.071899942
v 0.0237221106 -0.229387705 0.0718988691
v 0.0237551316 -0.229325895 0.071899942
v 0.0237551316 -0.229325895 0.0718988691
v 0.0238034114 -0.229272549 0.071899942
v 0.0238034114 -0.229272549 0.0718988691
v 0.0238588437 -0.229235535 0.071899942
v 0.0238588437 -0.229235535 0.0718988691
v 0.0239186868 -0.229213898 0.071899942
v 0.0239186868 -0.229213898 0.0718988691
v 0.0239974841 -0.229205077 0.071899942
v 0.0239974841 -0.229205077 0.0718988691
v 0.0232189282 -0.229127054 0.0718988691
v 0.0232189282 -0.22983921 0.0718988691
v 0.0232189282 -0.229127054 0.071899942
v 0.0232189282 -0.22983921 0.071899942
v 0.020000039 -0.22950006 0.0613998685
v 0.020000039 -0.22950006 0.0691998516
v 0.020000039 -0.233500068 0.0613998685
v 0.020000039 -0.233500068 0.0691998516
v -0.00622993862 -0.197087948 0.0621532713
v -0.00622993862 -0.197076385 0.0621532713
v -0.00621992504 -0.197087948 0.0621532713
v -0.00621992504 -0.197076385 0.0621532713
v -0.00622993862 -0.197772269 0.0619591985
v -0.00622993862 -0.197776144 0.0619626556
v -0.00622993862 -0.197764699 0.0619810138
v -0.00622993862 -0.197778349 0.0619863783
v -0.00622993862 -0.197797422 0.0618969713
v -0.00622993862 -0.197798674 0.0619224821
v -0.00622993862 -0.197780673 0.0619040046
v -0.00622993862 -0.197782938 0.0619293962
v -0.00622993862 -0.197817748 0.0618446384
v -0.00622993862 -0.197823708 0.0618483339
v -0.00622993862 -0.19780988 0.0618653808
v -0.00622993862 -0.19783098 0.061854652
v -0.00622993862 -0.197812085 0.0618687187
v -0.00622993862 -0.197835748 0.0618614469
v -0.00622993862 -0.197813396 0.061872295
v -0.00622993862 -0.197838848 0.0618694339
v -0.00622993862 -0.197813933 0.0618771825
v -0.00622993862 -0.197840099 0.0618796859
v -0.00622993862 -0.197813694 0.0618804012
v -0.00622993862 -0.197839026 0.0618892227
v -0.00622993862 -0.197812502 0.0618843351
v -0.00622993862 -0.197836285 0.0618967329
v -0.00622993862 -0.197810535 0.061887673
v -0.00622993862 -0.197831516 0.061903647
v -0.00622993862 -0.197807376 0.0618910108
v -0.00622993862 -0.197825496 0.0619091306
v -0.00622993862 -0.197808568 0.0619185482
v -0.00622993862 -0.197781389 0.0618367706
v -0.00622993862 -0.197783892 0.061857513
v -0.00622993862 -0.197759871 0.0618389164
v -0.00622993862 -0.197769289 0.0618590627
v -0.00622993862 -0.19774199 0.0618452345
v -0.00622993862 -0.197753255 0.0618647848
v -0.00622993862 -0.19774199 0.0618715797
v -0.00622993862 -0.197781866 0.0619656358
v -0.00622993862 -0.19778866 0.0619675432
v -0.00622993862 -0.197798674 0.0619887624
v -0.00622993862 -0.197796171 0.06196802
v -0.00622993862 -0.197816555 0.0619872127
v -0.00622993862 -0.19781137 0.0619664703
v -0.00622993862 -0.197833126 0.0619823251
v -0.00622993862 -0.197825913 0.0619615827
v -0.00622993862 -0.197833126 0.0619575296
v -0.00622993862 -0.197806959 0.0618628774
v -0.00622993862 -0.197804635 0.0618614469
v -0.00622993862 -0.197804396 0.0618395124
v -0.00622993862 -0.197798078 0.0618590627
v -0.00622993862 -0.197785025 0.061857513
v -0.00622993862 -0.197758441 0.0619771991
v -0.00622993862 -0.197750871 0.0619704042
v -0.00622993862 -0.197770123 0.0619559799
v -0.00622993862 -0.197746162 0.0619634901
v -0.00622993862 -0.197768812 0.0619525228
v -0.00622993862 -0.197743123 0.0619552646
v -0.00622993862 -0.197768395 0.0619484697
v -0.00622993862 -0.197742109 0.0619462047
v -0.00622993862 -0.197768633 0.0619451318
v -0.00622993862 -0.197743242 0.0619363104
v -0.00622993862 -0.197769647 0.0619411979
v -0.00622993862 -0.197746043 0.0619285617
v -0.00622993862 -0.197771435 0.0619377409
v -0.00622993862 -0.197749321 0.0619231973
v -0.00622993862 -0.197773938 0.061934999
v -0.00622993862 -0.197753494 0.0619189058
v -0.00622993862 -0.197765534 0.0619109188
v -0.000505508534 -0.19831193 0.0684218917
v -0.000495494954 -0.198312407 0.0684218917
v -0.000506462209 -0.198333387 0.0684243951
v -0.000496448628 -0.198333864 0.0684242759
v -0.000506700627 -0.198339229 0.0684249912
v -0.000496687047 -0.198338513 0.0684247528
v -0.000506939046 -0.198344235 0.0684272562
v -0.000496925465 -0.198344593 0.0684273754
v -0.000507535092 -0.198362236 0.068435124
v -0.000497521512 -0.198362534 0.068435124
f 1 2 3
f 3 2 4
f 5 6 7
f 8 9 10
f 11 12 4
f 4 12 13
f 4 13 3
f 6 14 7
f 7 14 15
f 7 15 16
f 11 4 7
f 7 4 17
f 7 17 5
f 16 15 10
f 10 15 18
f 10 18 8
f 19 20 21
f 21 20 22
f 22 20 23
f 23 20 24
f 23 24 25
f 25 24 26
f 25 26 27
f 27 26 28
f 27 28 29
f 28 30 29
f 29 30 31
f 29 31 32
f 33 34 35
f 35 34 36
f 35 36 37
f 38 39 40
f 40 39 41
f 42 43 44
f 44 43 45
f 44 45 46
f 46 45 47
f 46 47 48
f 48 47 49
f 48 49 50
f 51 52 53
f 51 53 54
f 54 53 55
f 54 55 56
f 56 55 57
f 56 57 58
f 58 57 59
f 58 59 60
f 61 62 63
f 63 62 64
f 65 66 67
f 67 66 68
f 67 68 69
f 70 71 72
f 70 72 73
f 73 72 74
f 73 74 75
f 75 74 76
f 75 76 77
f 77 76 78
f 77 78 79
f 79 78 80
f 79 80 81
f 80 82 81
f 81 82 83
f 81 83 84
f 84 83 85
f 84 85 86
f 87 88 89
f 87 89 90
f 90 89 91
f 90 91 92
f 93 94 95
f 95 94 96
f 97 98 99
f 99 98 100
f 99 100 101
f 101 102 99
f 99 102 103
f 99 103 104
f 104 105 99
f 99 105 106
f 99 106 107
f 107 108 99
f 99 108 109
f 99 109 110
f 110 111 99
f 99 111 112
f 99 112 113
f 113 112 114
f 115 116 117
f 117 116 118
f 119 120 121
f 121 120 122
f 123 124 125
f 125 124 126
f 125 126 127
f 127 126 128
f 127 128 129
f 129 128 130
f 129 130 131
f 131 130 132
f 131 132 133
f 133 132 134
f 133 134 135
f 135 134 136
f 135 136 137
f 137 136 138
f 137 138 139
f 139 138 140
f 139 140 141
f 141 140 142
f 141 142 143
f 143 142 144
f 143 144 145
f 145 144 146
f 145 146 147
f 147 146 148
f 149 150 151
f 151 150 152
f 153 154 155
f 153 155 156
f 156 155 157
f 156 157 158
f 158 157 159
f 158 159 160
f 160 159 161
f 160 161 162
f 162 161 163
f 162 163 164
f 164 163 165
f 164 165 166
f 166 165 167
f 166 167 168
f 169 170 171
f 169 171 172
f 172 171 173
f 172 173 174
f 175 176 177
f 177 176 178
f 179 180 181
f 179 181 182
f 182 181 183
f 182 183 184
f 184 183 185
f 184 185 186
f 186 185 187
f 186 187 188
f 189 190 191
f 189 191 192
f 192 191 193
f 192 193 194
f 194 193 195
f 194 195 196
f 196 195 197
f 196 197 198
f 198 197 199
f 198 199 200
f 200 199 201
f 200 201 202
f 202 201 203
f 202 203 204
f 205 206 207
f 205 207 208
f 208 207 209
f 208 209 210
f 210 209 211
f 210 211 212
f 212 211 213
f 212 213 214
f 215 216 217
f 217 216 218
f 219 220 221
f 221 220 222
f 223 224 225
f 225 224 226
f 227 228 229
f 229 228 230
f 231 232 233
f 234 235 236
f 236 235 237
f 236 237 238
f 238 237 239
f 238 239 240
f 240 239 241
f 240 241 242
f 242 241 243
f 242 243 244
f 244 243 245
f 244 245 246
f 246 245 247
f 246 247 248
f 248 247 249
f 248 249 233
f 233 249 250
f 233 250 231
f 236 251 234
f 234 251 252
f 234 252 253
f 253 252 254
f 253 254 255
f 255 254 256
f 255 256 257
f 258 259 260
f 260 259 261
f 260 261 262
f 262 261 263
f 264 265 266
f 266 265 267
f 266 267 268
f 268 267 269
f 268 269 270
f 270 269 271
f 270 271 272
f 272 271 273
f 272 273 274
f 274 273 275
f 274 275 276
f 276 275 277
f 276 277 278
f 278 277 279
f 278 279 280
f 280 279 281
f 282 283 284
f 284 283 285
f 284 285 286
f 287 288 289
f 289 288 290
f 291 292 293
f 293 292 294
f 295 296 297
f 297 296 298
f 299 300 301
f 301 300 302
f 303 304 305
f 303 305 306
f 306 305 307
f 306 307 308
f 308 307 309
f 309 307 310
f 309 310 311
f 311 310 312
f 313 314 315
f 315 314 316
f 316 314 317
f 317 314 318
f 317 318 319
f 319 318 320
f 319 320 321
f 321 320 322
f 322 320 323
f 322 323 324
f 323 325 324
f 324 325 326
f 324 326 327
f 327 326 328
f 327 328 329
f 329 328 330
f 329 330 331
f 331 330 332
f 331 332 333
f 333 332 334
f 332 335 334
f 334 335 336
f 334 336 337
f 337 336 338
f 337 338 339
f 339 338 340
f 339 340 341
f 341 340 342
f 342 340 343
f 342 343 344
f 344 343 345
f 344 345 346
f 346 345 347
f 346 347 348
f 347 349 348
f 348 349 350
f 348 350 351
f 351 350 352
f 351 352 353
f 354 355 356
f 353 352 357
f 357 352 358
f 357 358 359
f 359 358 360
f 359 360 361
f 361 360 362
f 361 362 356
f 356 362 363
f 356 363 354
f 355 354 364
f 364 354 365
f 364 365 366
f 366 365 367
f 366 367 368
f 368 367 369
f 368 369 370
f 369 371 370
f 370 371 372
f 370 372 373
f 373 372 374
f 373 374 375
f 375 374 376
f 375 376 377
f 377 376 378
f 379 380 381
f 381 380 382
f 383 384 385
f 385 384 386
f 385 386 387
f 387 388 385
f 385 388 389
f 385 389 390
f 391 392 393
f 394 395 390
f 390 395 396
f 383 397 384
f 384 397 391
f 384 391 398
f 398 391 393
f 396 399 390
f 390 399 400
f 390 400 385
f 401 402 390
f 390 402 403
f 390 403 394
f 404 405 406
f 406 405 407
f 406 407 391
f 391 407 408
f 391 408 392
f 409 410 411
f 411 410 412
f 413 414 415
f 415 414 416
f 417 418 419
f 419 418 420
f 421 422 423
f 421 423 424
f 424 423 425
f 424 425 426
f 426 425 427
f 426 427 428
f 428 427 429
f 428 429 430
f 430 429 431
f 430 431 432
f 432 431 433
f 432 433 434
f 434 433 435
f 434 435 436
f 436 435 437
f 436 437 438
f 439 440 441
f 439 441 442
f 442 441 443
f 442 443 444
f 444 443 445
f 444 445 446
f 447 448 449
f 449 448 450
f 449 450 451
f 452 453 454
f 454 453 455
f 456 457 458
f 458 457 459
f 458 459 460
f 460 459 461
f 460 461 462
f 462 461 463
f 462 463 464
f 464 463 465
f 464 465 466
f 466 465 467
f 466 467 468
f 468 467 469
f 468 469 470
f 470 469 471
f 470 471 472
f 472 471 473
f 472 473 474
f 474 473 475
f 474 475 476
f 476 475 477
f 476 477 478
f 478 477 479
f 478 479 480
f 480 479 481
f 482 483 484
f 484 483 485
f 484 485 486
f 486 485 487
f 486 487 488
f 488 487 489
f 488 489 490
f 490 489 491
f 490 491 492
f 492 491 493
f 492 493 494
f 494 493 495
f 494 495 496
f 496 495 497
f 496 497 498
f 498 497 499
f 498 499 500
f 500 499 501
f 500 501 502
f 502 501 503
f 502 503 504
f 504 503 505
f 504 505 506
f 506 505 507
f 506 507 508
f 508 507 509
f 508 509 510
f 510 509 511
f 510 511 512
f 512 511 513
f 512 513 514
f 514 513 515
f 514 515 516
f 516 515 517
f 516 517 518
f 518 517 519
f 518 519 520
f 520 519 521
f 520 521 522
f 522 521 523
f 522 523 524
f 524 523 525
f 524 525 526
f 526 525 527
f 526 527 528
f 528 527 529
f 528 529 530
f 530 529 531
f 532 533 534
f 534 533 535
f 536 537 538
f 538 537 539
f 540 541 542
f 540 542 543
f 543 542 544
f 543 544 545
f 546 547 548
f 548 547 549
f 550 551 552
f 550 552 553
f 553 552 554
f 553 554 555
f 555 554 556
f 555 556 557
f 557 556 558
f 557 558 559
f 560 561 562
f 562 561 563
f 564 565 566
f 566 565 567
f 568 569 570
f 570 569 571
f 572 573 574
f 574 573 575
f 576 577 578
f 576 578 579
f 579 578 580
f 579 580 581
f 581 580 582
f 581 582 583
f 583 582 584
f 583 584 585
f 586 587 588
f 588 587 589
f 590 591 592
f 592 591 593
f 592 593 594
f 594 593 595
f 594 595 596
f 596 595 597
f 596 597 598
f 598 597 599
f 598 599 600
f 600 599 601
f 600 601 602
f 602 601 603
f 602 603 604
f 604 603 605
f 604 605 606
f 606 605 607
f 606 607 608
f 608 607 609
f 608 609 610
f 610 609 611
f 610 611 612
f 612 611 613
f 612 613 614
f 614 613 615
f 614 615 616
f 616 615 617
f 616 617 618
f 618 617 619
f 618 619 620
f 620 619 621
f 620 621 622
f 622 621 623
f 622 623 624
f 624 623 625
f 624 625 626
f 626 625 590
f 626 590 592
f 627 628 629
f 629 628 630
f 631 632 633
f 631 633 634
f 634 633 635
f 634 635 636
f 636 635 637
f 636 637 638
f 638 637 639
f 638 639 640
f 640 639 641
f 640 641 642
f 642 641 643
f 642 643 644
f 644 643 645
f 644 645 646
f 647 648 649
f 649 648 650
f 651 652 653
f 653 652 654
f 655 656 657
f 657 656 658
f 659 660 661
f 661 660 662
f 663 664 665
f 665 664 666
f 667 668 669
f 669 668 670
f 669 670 671
f 671 670 672
f 671 672 673
f 673 672 674
f 673 674 675
f 675 674 676
f 675 676 677
f 677 676 678
f 677 678 679
f 679 678 680
f 679 680 681
f 681 680 682
f 681 682 683
f 683 682 684
f 683 684 663
f 663 684 685
f 663 685 664
f 686 687 688
f 688 687 689
f 688 689 690
f 690 689 691
f 690 691 692
f 660 693 662
f 662 693 694
f 662 694 695
f 695 694 696
f 695 696 697
f 697 696 698
f 697 698 699
f 699 698 700
f 699 700 701
f 669 702 667
f 667 702 703
f 667 703 704
f 704 703 705
f 704 705 686
f 686 705 706
f 686 706 687
f 661 707 659
f 659 707 708
f 659 708 709
f 709 708 710
f 709 710 711
f 711 710 712
f 711 712 713
f 713 712 714
f 713 714 715
f 715 714 716
f 715 716 717
f 717 716 718
f 717 718 719
f 719 718 720
f 719 720 721
f 721 720 722
f 721 722 666
f 666 722 723
f 666 723 665
f 724 725 726
f 726 725 727
f 726 727 728
f 728 727 729
f 728 729 730
f 730 729 731
f 730 731 732
f 732 731 733
