v 0.249083577 0.0382500243 0.133258513
v 0.264612733 0.0382500243 0.0753028904
v 0.248793779 0.0385500145 0.133180908
v 0.264322935 0.0385500145 0.0752252851
v 0.247336565 -0.0349999714 0.139778546
v 0.247124372 -0.0349999714 0.139411024
v 0.247336565 0.0350000215 0.139778546
v 0.247124372 0.0350000215 0.139411024
v 0.264612733 -0.0417500186 0.0753028904
v 0.264322935 -0.0414500284 0.0752252851
v 0.249083577 -0.0417500186 0.133258513
v 0.248793779 -0.0414500284 0.133180908
v 0.24189025 -0.0672071027 0.160104326
v 0.238992391 -0.0672071027 0.159327916
v 0.239046036 -0.0673660087 0.159127883
v 0.241943775 -0.0673660087 0.159904293
v 0.239108501 -0.0674659061 0.158894948
v 0.242006241 -0.0674659061 0.159671358
v 0.239175497 -0.0675 0.158644846
v 0.242073236 -0.0675 0.159421376
v 0.246078549 0.0674999905 0.132882169
v 0.248976408 0.0674999905 0.133658579
v 0.249043284 0.0674659562 0.133408598
v 0.246145545 0.0674659562 0.132632187
v 0.24910575 0.0673659992 0.133175663
v 0.246208011 0.0673659992 0.132399133
v 0.249159394 0.0672070933 0.132975629
v 0.246261536 0.0672070933 0.1321991
v 0.267473637 0.0497500253 0.0530345951
v 0.26839131 0.0497500253 0.0532805238
v 0.267322956 0.0496733141 0.0535971437
v 0.26824051 0.0496733141 0.0538430725
v 0.267182527 0.049448545 0.054121307
v 0.268100081 0.049448545 0.0543672357
v 0.267061888 0.0490909767 0.0545714412
v 0.267979442 0.0490909767 0.0548172508
v 0.266969381 0.0486249876 0.0549167905
v 0.267886935 0.0486249876 0.0551627193
v 0.266911088 0.0480823469 0.0551338707
v 0.267828761 0.0480823469 0.0553797994
v 0.266891299 0.0475000096 0.0552080188
v 0.267808972 0.0475000096 0.0554538284
v 0.266911088 0.0469176722 0.0551338707
v 0.267828761 0.0469176722 0.0553797994
v 0.266969381 0.0463749719 0.0549167905
v 0.267886935 0.0463749719 0.0551627193
v 0.267061888 0.0459089828 0.0545714412
v 0.267979442 0.0459089828 0.0548172508
v 0.267182527 0.0455514145 0.054121307
v 0.268100081 0.0455514145 0.0543672357
v 0.267322956 0.0453266454 0.0535971437
v 0.26824051 0.0453266454 0.0538430725
v 0.267473637 0.0452499938 0.0530345951
v 0.26839131 0.0452499938 0.0532805238
v 0.267624317 0.0453266454 0.0524721656
v 0.26854199 0.0453266454 0.0527179752
v 0.267764865 0.0455514145 0.0519480024
v 0.268682419 0.0455514145 0.052193812
v 0.267885385 0.0459089828 0.0514978681
v 0.268803059 0.0459089828 0.0517437969
v 0.267978011 0.0463749719 0.0511525188
v 0.268895565 0.0463749719 0.0513983284
v 0.268036185 0.0469176722 0.0509353195
v 0.268953739 0.0469176722 0.0511812482
v 0.268055974 0.0475000096 0.0508612905
v 0.268973647 0.0475000096 0.0511072193
v 0.268036185 0.0480823469 0.0509353195
v 0.268953739 0.0480823469 0.0511812482
v 0.267978011 0.0486249876 0.0511525188
v 0.268895565 0.0486249876 0.0513983284
v 0.267885385 0.0490909767 0.0514978681
v 0.268803059 0.0490909767 0.0517437969
v 0.267764865 0.049448545 0.0519480024
v 0.268682419 0.049448545 0.052193812
v 0.267624317 0.0496733141 0.0524721656
v 0.26854199 0.0496733141 0.0527179752
v 0.263287245 -0.0623786497 0.0802497182
v 0.260389386 -0.0623786497 0.0794733081
v 0.264536916 -0.0672071027 0.0755858932
v 0.261639176 -0.0672071027 0.0748093639
v 0.248060285 0.0615000081 0.125486187
v 0.250958143 0.0615000081 0.126262597
v 0.259840427 0.0615000081 0.0815223966
v 0.262738167 0.0615000081 0.0822988067
v 0.0350000247 -0.265992289 0.06899505
v 0.0350000247 -0.266359751 0.0687829767
v 0.0364353045 -0.265950446 0.0691513334
v 0.0365020617 -0.266315942 0.0689464126
v 0.037798582 -0.265827005 0.0696120773
v 0.0379287585 -0.266186719 0.0694286142
v 0.0390215501 -0.265628104 0.0703542743
v 0.0392085894 -0.265978579 0.0702053819
v 0.0400428161 -0.265363758 0.0713408504
v 0.0402774199 -0.265701954 0.0712377344
v 0.0408112391 -0.265047257 0.0725220953
v 0.0410814866 -0.265370731 0.0724740539
v 0.0412883147 -0.264694397 0.0738390003
v 0.0415807351 -0.265001481 0.0738521133
v 0.0414499625 -0.264322941 0.0752252851
v 0.0417500123 -0.264612679 0.0753028904
v 0.0496733769 -0.268240576 0.0538430725
v 0.0516534432 -0.270083373 0.0548861538
v 0.0494485482 -0.268100088 0.0543672357
v 0.0512239322 -0.269814973 0.0558878694
v 0.0490910395 -0.267979507 0.0548172508
v 0.0505405053 -0.269584482 0.0567480837
v 0.0486250504 -0.267886941 0.0551627193
v 0.0496500119 -0.269407635 0.0574081455
v 0.0480822905 -0.267828767 0.0553797994
v 0.0486128911 -0.269296412 0.0578229938
v 0.0474999532 -0.267808919 0.0554538284
v 0.0474999532 -0.269258504 0.0579646145
v 0.0469176158 -0.267828767 0.0553797994
v 0.0463871344 -0.269296412 0.0578229938
v 0.0463749751 -0.267886941 0.0551627193
v 0.0453500136 -0.269407635 0.0574081455
v 0.045908986 -0.267979507 0.0548172508
v 0.044459401 -0.269584482 0.0567480837
v 0.0455514773 -0.268100088 0.0543672357
v 0.0437760934 -0.269814973 0.0558878694
v 0.0453266486 -0.268240576 0.0538430725
v 0.0433464631 -0.270083373 0.0548861538
v 0.045249997 -0.268391256 0.0532805238
v 0.0431999549 -0.270371442 0.0538111244
v 0.0453266486 -0.268541996 0.0527179752
v 0.0433464631 -0.270659451 0.052736095
v 0.0455514773 -0.268682425 0.052193812
v 0.0437760934 -0.270927911 0.0517343794
v 0.045908986 -0.268803065 0.0517437969
v 0.044459401 -0.271158402 0.0508741651
v 0.0463749751 -0.268895571 0.0513983284
v 0.0453500136 -0.271335249 0.0502141033
v 0.0469176158 -0.268953805 0.0511812482
v 0.0463871344 -0.271446412 0.0497991357
v 0.0474999532 -0.268973594 0.0511072193
v 0.0474999532 -0.27148432 0.0496576343
v 0.0480822905 -0.268953805 0.0511812482
v 0.0486128911 -0.271446412 0.0497991357
v 0.0486250504 -0.268895571 0.0513983284
v 0.0496500119 -0.271335249 0.0502141033
v 0.0490910395 -0.268803065 0.0517437969
v 0.0505405053 -0.271158402 0.0508741651
v 0.0494485482 -0.268682425 0.052193812
v 0.0512239322 -0.270927911 0.0517343794
v 0.0496733769 -0.268541996 0.0527179752
v 0.0516534432 -0.270659451 0.052736095
v 0.0497500285 -0.268391256 0.0532805238
v 0.0517999514 -0.270371442 0.0538111244
v 0.0496733769 -0.241193955 0.154782227
v 0.0516534432 -0.243036811 0.155825308
v 0.0494485482 -0.241053526 0.15530639
v 0.0512239322 -0.242768352 0.156827143
v 0.0490910395 -0.240932887 0.155756525
v 0.0505405053 -0.242537861 0.157687357
v 0.0486250504 -0.24084038 0.156101874
v 0.0496500119 -0.242361014 0.158347419
v 0.0480822905 -0.240782206 0.156319073
v 0.0486128911 -0.242249851 0.158762268
v 0.0474999532 -0.240762358 0.156393102
v 0.0474999532 -0.242211883 0.158903769
v 0.0469176158 -0.240782206 0.156319073
v 0.0463871344 -0.242249851 0.158762268
v 0.0463749751 -0.24084038 0.156101874
v 0.0453500136 -0.242361014 0.158347419
v 0.045908986 -0.240932887 0.155756525
v 0.044459401 -0.242537861 0.157687357
v 0.0455514773 -0.241053526 0.15530639
v 0.0437760934 -0.242768352 0.156827143
v 0.0453266486 -0.241193955 0.154782227
v 0.0433464631 -0.243036811 0.155825308
v 0.045249997 -0.241344695 0.154219798
v 0.0431999549 -0.243324821 0.154750398
v 0.0453266486 -0.241495435 0.153657249
v 0.0433464631 -0.24361289 0.153675369
v 0.0455514773 -0.241635864 0.153133086
v 0.0437760934 -0.24388129 0.152673653
v 0.045908986 -0.241756444 0.152682952
v 0.044459401 -0.244111781 0.151813439
v 0.0463749751 -0.24184901 0.152337602
v 0.0453500136 -0.244288628 0.151153377
v 0.0469176158 -0.241907184 0.152120522
v 0.0463871344 -0.24439985 0.15073841
v 0.0474999532 -0.241927032 0.152046374
v 0.0474999532 -0.244437759 0.150596908
v 0.0480822905 -0.241907184 0.152120522
v 0.0486128911 -0.24439985 0.15073841
v 0.0486250504 -0.24184901 0.152337602
v 0.0496500119 -0.244288628 0.151153377
v 0.0490910395 -0.241756444 0.152682952
v 0.0505405053 -0.244111781 0.151813439
v 0.0494485482 -0.241635864 0.153133086
v 0.0512239322 -0.24388129 0.152673653
v 0.0496733769 -0.241495435 0.153657249
v 0.0516534432 -0.24361289 0.153675369
v 0.0497500285 -0.241344695 0.154219798
v 0.0517999514 -0.243324821 0.154750398
v -0.0627928392 -0.237849956 0.163591674
v -0.0627928392 -0.240747755 0.164368204
v -0.0625857726 -0.240706627 0.164521626
v -0.0625857726 -0.237808828 0.163745216
v -0.0623446122 -0.240680759 0.164618186
v -0.0623446122 -0.23778296 0.163841656
v -0.0620858089 -0.240671937 0.164651087
v -0.0620858089 -0.237774138 0.163874677
v 0.0627928361 -0.240747755 0.164368204
v 0.0627928361 -0.237849956 0.163591674
v 0.0625857695 -0.237808828 0.163745216
v 0.0625857695 -0.240706627 0.164521626
v 0.0623446091 -0.23778296 0.163841656
v 0.0623446091 -0.240680759 0.164618186
v 0.0620858058 -0.237774138 0.163874677
v 0.0620858058 -0.240671937 0.164651087
v 0.0675000533 -0.246078556 0.132882169
v 0.0675000533 -0.248976355 0.133658579
v 0.0674659594 -0.24904335 0.133408598
v 0.0674659594 -0.246145551 0.132632187
v 0.0673660621 -0.249105756 0.133175663
v 0.0673660621 -0.246207957 0.132399133
v 0.0672071561 -0.249159341 0.132975629
v 0.0672071561 -0.246261601 0.1321991
v 0.0672071561 -0.261639123 0.0748093639
v 0.0672071561 -0.264536922 0.0755858932
v 0.0673660621 -0.264590507 0.07538586
v 0.0673660621 -0.261692708 0.0746093307
v 0.0674659594 -0.264652913 0.0751528059
v 0.0674659594 -0.261755114 0.0743763958
v 0.0675000533 -0.264719908 0.074902824
v 0.0675000533 -0.261822109 0.0741264139
v 0.0672071561 -0.271806006 0.0484570776
v 0.0672071561 -0.268908267 0.0476806675
v 0.0673660621 -0.268854623 0.0478807006
v 0.0673660621 -0.271752422 0.0486571108
v 0.0674659594 -0.268792217 0.0481136356
v 0.0674659594 -0.271690016 0.0488900457
v 0.0675000533 -0.268725221 0.0483636175
v 0.0675000533 -0.27162302 0.0491400276
v 0.0627928361 -0.270050709 0.0434167896
v 0.0627928361 -0.272948508 0.0441933189
v 0.0625857695 -0.272989635 0.0440397773
v 0.0625857695 -0.270091896 0.0432633672
v 0.0623446091 -0.273015504 0.0439432178
v 0.0623446091 -0.270117705 0.0431668077
v 0.0620858058 -0.273024325 0.043910316
v 0.0620858058 -0.270126526 0.0431339059
v -0.0627928392 -0.272948508 0.0441933189
v -0.0627928392 -0.270050709 0.0434167896
v -0.0625857726 -0.270091896 0.0432633672
v -0.0625857726 -0.272989635 0.0440397773
v -0.0623446122 -0.270117705 0.0431668077
v -0.0623446122 -0.273015504 0.0439432178
v -0.0620858089 -0.270126526 0.0431339059
v -0.0620858089 -0.273024325 0.043910316
v -0.0392085925 -0.265978579 0.0702053819
v -0.0402773038 -0.265701954 0.0712377344
v -0.0675000564 -0.267809098 0.063373736
v -0.049650015 -0.242361014 0.158347419
v -0.0486128942 -0.242249851 0.158762268
v -0.0505405084 -0.244111781 0.151813439
v -0.0512239352 -0.24388129 0.152673653
v -0.0675000564 -0.248976355 0.133658579
v -0.0410814897 -0.265370731 0.0724740539
v -0.0415807382 -0.265001481 0.0738521133
v -0.0675000564 -0.264719908 0.074902824
v -0.0444594041 -0.242537861 0.157687357
v -0.0437760965 -0.242768352 0.156827143
v 0.0424750432 -0.240671937 0.164651087
v -0.0350000278 -0.266359751 0.0687829767
v -0.0365020648 -0.266315942 0.0689464126
v -0.0379287616 -0.266186719 0.0694286142
v -0.0617284194 -0.250660961 0.127371601
v -0.0615575925 -0.250806634 0.126828006
v -0.0486128942 -0.24439985 0.15073841
v -0.0505405084 -0.242537861 0.157687357
v -0.0615000144 -0.25095809 0.126262597
v -0.0615000144 -0.262738173 0.0822988067
v -0.0474999562 -0.244437759 0.150596908
v -0.0675000564 -0.242073243 0.159421376
v -0.0512239352 -0.242768352 0.156827143
v -0.0672071592 -0.241890256 0.160104326
v -0.0516534463 -0.243036811 0.155825308
v -0.0474999562 -0.242211883 0.158903769
v -0.0463870183 -0.242249851 0.158762268
v -0.0453500167 -0.242361014 0.158347419
v -0.0617284194 -0.263035302 0.0811899219
v -0.0615575925 -0.262889628 0.0817335163
v -0.0417500154 -0.264612679 0.0753028904
v -0.0673660651 -0.249105756 0.133175663
v -0.0672071592 -0.249159341 0.132975629
v -0.049650015 -0.244288628 0.151153377
v -0.0623787061 -0.250409071 0.128311685
v -0.062005581 -0.250526731 0.127872518
v -0.0674659625 -0.24904335 0.133408598
v 0.0350000247 -0.247336512 0.139778546
v -0.0437760965 -0.24388129 0.152673653
v -0.0350000278 -0.247336512 0.139778546
v -0.0444594041 -0.244111781 0.151813439
v -0.062005581 -0.263169532 0.0806888853
v -0.0623787061 -0.263287191 0.0802497182
v -0.0672071592 -0.264536922 0.0755858932
v -0.0516534463 -0.24361289 0.153675369
v -0.0517999545 -0.243324821 0.154750398
v -0.0674659625 -0.242006247 0.159671358
v -0.0673660651 -0.241943841 0.159904293
v -0.0410814897 -0.248325531 0.136087469
v -0.0402773038 -0.247994308 0.137323669
v -0.0463870183 -0.24439985 0.15073841
v -0.0392085925 -0.247717683 0.138356021
v -0.0453500167 -0.244288628 0.151153377
v -0.0379287616 -0.247509544 0.139132789
v -0.0365020648 -0.247380321 0.139614991
v 0.0424750432 -0.267809098 0.063373736
v -0.0417500154 -0.249083583 0.133258513
v -0.0415807382 -0.248694782 0.13470929
v 0.0365020617 -0.247380321 0.139614991
v 0.0379287585 -0.247509544 0.139132789
v -0.0673660651 -0.264590507 0.07538586
v -0.0674659625 -0.264652913 0.0751528059
v 0.0392085894 -0.247717683 0.138356021
v 0.0402774199 -0.247994308 0.137323669
v 0.0410814866 -0.248325531 0.136087469
v -0.0433464662 -0.243036811 0.155825308
v -0.043199958 -0.243324821 0.154750398
v -0.0433464662 -0.24361289 0.153675369
v 0.0415807351 -0.248694782 0.13470929
v 0.0417500123 -0.249083583 0.133258513
v 0.062378703 -0.263287191 0.0802497182
v 0.0619018658 -0.263126378 0.080849937
v 0.0616021737 -0.2629391 0.0815487419
v 0.0675000533 -0.267809098 0.063373736
v 0.0674659594 -0.242006247 0.159671358
v 0.0675000533 -0.242073243 0.159421376
v 0.0673660621 -0.241943841 0.159904293
v 0.0672071561 -0.241890256 0.160104326
v 0.0615000113 -0.25095809 0.126262597
v 0.0615575894 -0.250806634 0.126828006
v 0.0617284163 -0.250660961 0.127371601
v 0.0620055779 -0.250526731 0.127872518
v 0.062378703 -0.250409071 0.128311685
v 0.0615000113 -0.262738173 0.0822988067
v 0.0424750432 -0.273024325 0.043910316
v -0.0516534463 -0.270083373 0.0548861538
v -0.0512239352 -0.269814973 0.0558878694
v -0.0486128942 -0.269296412 0.0578229938
v -0.0474999562 -0.269258504 0.0579646145
v -0.0517999545 -0.270371442 0.0538111244
v -0.0463870183 -0.269296412 0.0578229938
v -0.0505405084 -0.269584482 0.0567480837
v -0.049650015 -0.269407635 0.0574081455
v -0.0453500167 -0.269407635 0.0574081455
v -0.0444594041 -0.269584482 0.0567480837
v -0.0437760965 -0.269814973 0.0558878694
v -0.0463870183 -0.271446412 0.0497991357
v -0.0474999562 -0.27148432 0.0496576343
v -0.0486128942 -0.271446412 0.0497991357
v -0.049650015 -0.271335249 0.0502141033
v -0.0505405084 -0.271158402 0.0508741651
v -0.0512239352 -0.270927911 0.0517343794
v -0.0516534463 -0.270659451 0.052736095
v -0.0672071592 -0.271806006 0.0484570776
v -0.0675000564 -0.27162302 0.0491400276
v -0.0674659625 -0.271690016 0.0488900457
v -0.0673660651 -0.271752422 0.0486571108
v -0.0437760965 -0.270927911 0.0517343794
v -0.0444594041 -0.271158402 0.0508741651
v -0.0453500167 -0.271335249 0.0502141033
v -0.0433464662 -0.270083373 0.0548861538
v -0.043199958 -0.270371442 0.0538111244
v -0.0433464662 -0.270659451 0.052736095
v -0.0672071592 -0.268908267 0.0476806675
v -0.0673660651 -0.268854623 0.0478807006
v -0.0674659625 -0.268792217 0.0481136356
v -0.0675000564 -0.268725221 0.0483636175
v 0.0453266486 0.268240507 0.0538430725
v 0.0433464631 0.270083363 0.0548861538
v 0.0455514773 0.268100078 0.0543672357
v 0.0437760934 0.269815023 0.0558878694
v 0.045908986 0.267979558 0.0548172508
v 0.044459401 0.269584472 0.0567480837
v 0.0463749751 0.267886932 0.0551627193
v 0.0453500136 0.269407566 0.0574081455
v 0.0469176158 0.267828758 0.0553797994
v 0.0463871344 0.269296463 0.0578229938
v 0.0474999532 0.267808969 0.0554538284
v 0.0474999532 0.269258554 0.0579646145
v 0.0480822905 0.267828758 0.0553797994
v 0.0486128911 0.269296463 0.0578229938
v 0.0486250504 0.267886932 0.0551627193
v 0.0496500119 0.269407566 0.0574081455
v 0.0490910395 0.267979558 0.0548172508
v 0.0505405053 0.269584472 0.0567480837
v 0.0494485482 0.268100078 0.0543672357
v 0.0512239322 0.269815023 0.0558878694
v 0.0496733769 0.268240507 0.0538430725
v 0.0516534432 0.270083363 0.0548861538
v 0.0497500285 0.268391306 0.0532805238
v 0.0517999514 0.270371373 0.0538111244
v 0.0496733769 0.268541987 0.0527179752
v 0.0516534432 0.270659502 0.052736095
v 0.0494485482 0.268682416 0.052193812
v 0.0512239322 0.270927842 0.0517343794
v 0.0490910395 0.268803055 0.0517437969
v 0.0505405053 0.271158392 0.0508741651
v 0.0486250504 0.268895562 0.0513983284
v 0.0496500119 0.271335299 0.0502141033
v 0.0480822905 0.268953736 0.0511812482
v 0.0486128911 0.271446402 0.0497991357
v 0.0474999532 0.268973644 0.0511072193
v 0.0474999532 0.271484311 0.0496576343
v 0.0469176158 0.268953736 0.0511812482
v 0.0463871344 0.271446402 0.0497991357
v 0.0463749751 0.268895562 0.0513983284
v 0.0453500136 0.271335299 0.0502141033
v 0.045908986 0.268803055 0.0517437969
v 0.044459401 0.271158392 0.0508741651
v 0.0455514773 0.268682416 0.052193812
v 0.0437760934 0.270927842 0.0517343794
v 0.0453266486 0.268541987 0.0527179752
v 0.0433464631 0.270659502 0.052736095
v 0.045249997 0.268391306 0.0532805238
v 0.0431999549 0.270371373 0.0538111244
v 0.0672071561 0.241890247 0.160104326
v 0.0672071561 0.238992507 0.159327916
v 0.0673660621 0.239046032 0.159127883
v 0.0673660621 0.241943891 0.159904293
v 0.0674659594 0.239108498 0.158894948
v 0.0674659594 0.242006238 0.159671358
v 0.0675000533 0.239175494 0.158644846
v 0.0675000533 0.242073233 0.159421376
v 0.0627928361 0.237850006 0.163591674
v 0.0627928361 0.240747745 0.164368204
v 0.0625857695 0.240706618 0.164521626
v 0.0625857695 0.237808878 0.163745216
v 0.0623446091 0.240680749 0.164618186
v 0.0623446091 0.23778301 0.163841656
v 0.0620858058 0.240671928 0.164651087
v 0.0620858058 0.237774189 0.163874677
v -0.0672071592 0.238992507 0.159327916
v -0.0672071592 0.241890247 0.160104326
v -0.0673660651 0.241943891 0.159904293
v -0.0673660651 0.239046032 0.159127883
v -0.0674659625 0.242006238 0.159671358
v -0.0674659625 0.239108498 0.158894948
v -0.0675000564 0.242073233 0.159421376
v -0.0675000564 0.239175494 0.158644846
v -0.0675000564 0.246078546 0.132882169
v -0.0675000564 0.248976405 0.133658579
v -0.0674659625 0.249043281 0.133408598
v -0.0674659625 0.246145542 0.132632187
v -0.0673660651 0.249105747 0.133175663
v -0.0673660651 0.246208007 0.132399133
v -0.0672071592 0.249159391 0.132975629
v -0.0672071592 0.246261532 0.1321991
v -0.0672071592 0.261639173 0.0748093639
v -0.0672071592 0.264536912 0.0755858932
v -0.0673660651 0.264590557 0.07538586
v -0.0673660651 0.261692698 0.0746093307
v -0.0674659625 0.264652903 0.0751528059
v -0.0674659625 0.261755164 0.0743763958
v -0.0675000564 0.264719899 0.074902824
v -0.0675000564 0.261822159 0.0741264139
v -0.0672071592 0.271806057 0.0484570776
v -0.0672071592 0.268908198 0.0476806675
v -0.0673660651 0.268854673 0.0478807006
v -0.0673660651 0.271752412 0.0486571108
v -0.0674659625 0.268792207 0.0481136356
v -0.0674659625 0.271689947 0.0488900457
v -0.0675000564 0.268725212 0.0483636175
v -0.0675000564 0.27162307 0.0491400276
v -0.0627928392 0.2700507 0.0434167896
v -0.0627928392 0.272948558 0.0441933189
v -0.0625857726 0.272989686 0.0440397773
v -0.0625857726 0.270091827 0.0432633672
v -0.0623446122 0.273015554 0.0439432178
v -0.0623446122 0.270117695 0.0431668077
v -0.0620858089 0.273024375 0.043910316
v -0.0620858089 0.270126517 0.0431339059
v 0.0627928361 0.272948558 0.0441933189
v 0.0627928361 0.2700507 0.0434167896
v 0.0625857695 0.270091827 0.0432633672
v 0.0625857695 0.272989686 0.0440397773
v 0.0623446091 0.270117695 0.0431668077
v 0.0623446091 0.273015554 0.0439432178
v 0.0620858058 0.270126517 0.0431339059
v 0.0620858058 0.273024375 0.043910316
v 0.0486128911 0.242249782 0.158762268
v 0.0496500119 0.242361004 0.158347419
v 0.0505405053 0.242537911 0.157687357
v 0.044459401 0.244111831 0.151813439
v 0.0417500123 0.26461273 0.0753028904
v 0.0437760934 0.24388128 0.152673653
v 0.0433464631 0.243612821 0.153675369
v 0.0474999532 0.242211874 0.158903769
v 0.0463871344 0.242249782 0.158762268
v -0.0424750463 0.240671928 0.164651087
v 0.0505405053 0.244111831 0.151813439
v 0.0512239322 0.24388128 0.152673653
v 0.0675000533 0.248976405 0.133658579
v 0.0512239322 0.242768343 0.156827143
v 0.0516534432 0.243036802 0.155825308
v 0.0415807351 0.248694832 0.13470929
v 0.0410814866 0.248325522 0.136087469
v 0.0431999549 0.243324811 0.154750398
v 0.0402774199 0.247994359 0.137323669
v 0.0433464631 0.243036802 0.155825308
v 0.0392085894 0.247717674 0.138356021
v 0.0379287585 0.247509534 0.139132789
v 0.0675000533 0.264719899 0.074902824
v 0.0675000533 0.267809088 0.063373736
v 0.0379287585 0.266186769 0.0694286142
v 0.0365020617 0.247380312 0.139614991
v 0.0350000247 0.247336562 0.139778546
v 0.0437760934 0.242768343 0.156827143
v 0.0417500123 0.249083574 0.133258513
v 0.0516534432 0.243612821 0.153675369
v 0.0517999514 0.243324811 0.154750398
v 0.0453500136 0.244288619 0.151153377
v 0.0463871344 0.244399841 0.15073841
v 0.0474999532 0.244437749 0.150596908
v 0.0673660621 0.249105747 0.133175663
v 0.0672071561 0.249159391 0.132975629
v 0.0496500119 0.244288619 0.151153377
v 0.062378703 0.250409062 0.128311685
v 0.0486128911 0.244399841 0.15073841
v 0.0620055779 0.250526722 0.127872518
v 0.0617284163 0.250660951 0.127371601
v 0.0615575894 0.250806625 0.126828006
v 0.0615000113 0.25095814 0.126262597
v 0.0615000113 0.262738163 0.0822988067
v 0.0392085894 0.26597863 0.0702053819
v 0.0402774199 0.265701945 0.0712377344
v 0.0619018658 0.263126428 0.080849937
v 0.0674659594 0.249043281 0.133408598
v -0.0365020648 0.247380312 0.139614991
v -0.0379287616 0.247509534 0.139132789
v 0.0410814866 0.265370662 0.0724740539
v 0.0415807351 0.265001471 0.0738521133
v 0.0616021737 0.26293915 0.0815487419
v -0.0392085925 0.247717674 0.138356021
v -0.0402773038 0.247994359 0.137323669
v -0.0410814897 0.248325522 0.136087469
v -0.0415807382 0.265001471 0.0738521133
v -0.0410814897 0.265370662 0.0724740539
v -0.0424750463 0.267809088 0.063373736
v -0.0402773038 0.265701945 0.0712377344
v -0.0392085925 0.26597863 0.0702053819
v -0.0379287616 0.266186769 0.0694286142
v -0.0365020648 0.266315873 0.0689464126
v 0.0453500136 0.242361004 0.158347419
v 0.044459401 0.242537911 0.157687357
v -0.0350000278 0.247336562 0.139778546
v -0.0415807382 0.248694832 0.13470929
v -0.0417500154 0.249083574 0.133258513
v -0.0417500154 0.26461273 0.0753028904
v -0.0350000278 0.266359742 0.0687829767
v 0.0350000247 0.266359742 0.0687829767
v 0.0365020617 0.266315873 0.0689464126
v 0.062378703 0.263287241 0.0802497182
v 0.0672071561 0.264536912 0.0755858932
v 0.0673660621 0.264590557 0.07538586
v 0.0674659594 0.264652903 0.0751528059
v -0.0437760965 0.242768343 0.156827143
v -0.0444594041 0.242537911 0.157687357
v -0.0453500167 0.242361004 0.158347419
v -0.0623787061 0.263287241 0.0802497182
v -0.0619018689 0.263126428 0.080849937
v -0.0486128942 0.242249782 0.158762268
v -0.0620858089 0.240671928 0.164651087
v -0.0474999562 0.242211874 0.158903769
v -0.0463871375 0.242249782 0.158762268
v -0.0516534463 0.243612821 0.153675369
v -0.0444594041 0.244111831 0.151813439
v -0.0437760965 0.24388128 0.152673653
v -0.0517999545 0.243324811 0.154750398
v -0.0516534463 0.243036802 0.155825308
v -0.0474999562 0.244437749 0.150596908
v -0.0463871375 0.244399841 0.15073841
v -0.0453500167 0.244288619 0.151153377
v -0.0675000564 0.267809088 0.063373736
v -0.0433464662 0.243612821 0.153675369
v -0.043199958 0.243324811 0.154750398
v -0.0433464662 0.243036802 0.155825308
v -0.049650015 0.242361004 0.158347419
v -0.0505405084 0.242537911 0.157687357
v -0.0623446122 0.240680749 0.164618186
v -0.0512239352 0.242768343 0.156827143
v -0.0625857726 0.240706618 0.164521626
v -0.0627928392 0.240747745 0.164368204
v -0.0512239352 0.24388128 0.152673653
v -0.0505405084 0.244111831 0.151813439
v -0.049650015 0.244288619 0.151153377
v -0.0616021768 0.26293915 0.0815487419
v -0.0615000144 0.262738163 0.0822988067
v -0.0615000144 0.25095814 0.126262597
v -0.0616021768 0.250757153 0.127012662
v -0.0486128942 0.244399841 0.15073841
v -0.0619018689 0.250569875 0.127711586
v -0.0623787061 0.250409062 0.128311685
v -0.049650015 0.269407566 0.0574081455
v -0.0505405084 0.269584472 0.0567480837
v -0.0437760965 0.269815023 0.0558878694
v -0.0444594041 0.269584472 0.0567480837
v -0.0453500167 0.269407566 0.0574081455
v -0.0463871375 0.269296463 0.0578229938
v -0.0474999562 0.269258554 0.0579646145
v -0.0486128942 0.269296463 0.0578229938
v -0.0512239352 0.270927842 0.0517343794
v -0.0516534463 0.270659502 0.052736095
v -0.0505405084 0.271158392 0.0508741651
v -0.049650015 0.271335299 0.0502141033
v -0.0486128942 0.271446402 0.0497991357
v -0.0424750463 0.273024375 0.043910316
v -0.0474999562 0.271484311 0.0496576343
v -0.0463871375 0.271446402 0.0497991357
v -0.0512239352 0.269815023 0.0558878694
v -0.0516534463 0.270083363 0.0548861538
v -0.0517999545 0.270371373 0.0538111244
v -0.0453500167 0.271335299 0.0502141033
v -0.0444594041 0.271158392 0.0508741651
v -0.0437760965 0.270927842 0.0517343794
v -0.0433464662 0.270659502 0.052736095
v -0.043199958 0.270371373 0.0538111244
v -0.0433464662 0.270083363 0.0548861538
v 0.0672071561 0.271806057 0.0484570776
v 0.0675000533 0.27162307 0.0491400276
v 0.0674659594 0.271689947 0.0488900457
v 0.0673660621 0.271752412 0.0486571108
v 0.0672071561 0.268908198 0.0476806675
v 0.0673660621 0.268854673 0.0478807006
v 0.0674659594 0.268792207 0.0481136356
v 0.0675000533 0.268725212 0.0483636175
v -0.0497500316 0.267473633 0.0530345951
v -0.0497500316 0.268391306 0.0532805238
v -0.04967338 0.267322953 0.0535971437
v -0.04967338 0.268240507 0.0538430725
v -0.0494485513 0.267182524 0.054121307
v -0.0494485513 0.268100078 0.0543672357
v -0.0490910426 0.267061884 0.0545714412
v -0.0490910426 0.267979558 0.0548172508
v -0.0486250535 0.266969378 0.0549167905
v -0.0486250535 0.267886932 0.0551627193
v -0.0480822936 0.266911204 0.0551338707
v -0.0480822936 0.267828758 0.0553797994
v -0.0474999562 0.266891296 0.0552080188
v -0.0474999562 0.267808969 0.0554538284
v -0.0469176189 0.266911204 0.0551338707
v -0.0469176189 0.267828758 0.0553797994
v -0.0463749782 0.266969378 0.0549167905
v -0.0463749782 0.267886932 0.0551627193
v -0.0459089891 0.267061884 0.0545714412
v -0.0459089891 0.267979558 0.0548172508
v -0.0455514804 0.267182524 0.054121307
v -0.0455514804 0.268100078 0.0543672357
v -0.0453266517 0.267322953 0.0535971437
v -0.0453266517 0.268240507 0.0538430725
v -0.0452500001 0.267473633 0.0530345951
v -0.0452500001 0.268391306 0.0532805238
v -0.0453266517 0.267624314 0.0524721656
v -0.0453266517 0.268541987 0.0527179752
v -0.0455514804 0.267764862 0.0519480024
v -0.0455514804 0.268682416 0.052193812
v -0.0459089891 0.267885382 0.0514978681
v -0.0459089891 0.268803055 0.0517437969
v -0.0463749782 0.267978008 0.0511525188
v -0.0463749782 0.268895562 0.0513983284
v -0.0469176189 0.268036182 0.0509353195
v -0.0469176189 0.268953736 0.0511812482
v -0.0474999562 0.268055971 0.0508612905
v -0.0474999562 0.268973644 0.0511072193
v -0.0480822936 0.268036182 0.0509353195
v -0.0480822936 0.268953736 0.0511812482
v -0.0486250535 0.267978008 0.0511525188
v -0.0486250535 0.268895562 0.0513983284
v -0.0490910426 0.267885382 0.0514978681
v -0.0490910426 0.268803055 0.0517437969
v -0.0494485513 0.267764862 0.0519480024
v -0.0494485513 0.268682416 0.052193812
v -0.04967338 0.267624314 0.0524721656
v -0.04967338 0.268541987 0.0527179752
v 0.045249997 0.267473633 0.0530345951
v 0.0453266486 0.267322953 0.0535971437
v 0.0455514773 0.267182524 0.054121307
v 0.045908986 0.267061884 0.0545714412
v 0.0463749751 0.266969378 0.0549167905
v 0.0469176158 0.266911204 0.0551338707
v 0.0474999532 0.266891296 0.0552080188
v 0.0480822905 0.266911204 0.0551338707
v 0.0486250504 0.266969378 0.0549167905
v 0.0490910395 0.267061884 0.0545714412
v 0.0494485482 0.267182524 0.054121307
v 0.0496733769 0.267322953 0.0535971437
v 0.0497500285 0.267473633 0.0530345951
v 0.0496733769 0.267624314 0.0524721656
v 0.0494485482 0.267764862 0.0519480024
v 0.0490910395 0.267885382 0.0514978681
v 0.0486250504 0.267978008 0.0511525188
v 0.0480822905 0.268036182 0.0509353195
v 0.0474999532 0.268055971 0.0508612905
v 0.0469176158 0.268036182 0.0509353195
v 0.0463749751 0.267978008 0.0511525188
v 0.045908986 0.267885382 0.0514978681
v 0.0455514773 0.267764862 0.0519480024
v 0.0453266486 0.267624314 0.0524721656
v -0.0497500316 0.240427072 0.153973869
v -0.0497500316 0.241344745 0.154219798
v -0.04967338 0.240276392 0.154536418
v -0.04967338 0.241193945 0.154782227
v -0.0494485513 0.240135844 0.155060581
v -0.0494485513 0.241053517 0.15530639
v -0.0490910426 0.240015323 0.155510715
v -0.0490910426 0.240932877 0.155756525
v -0.0486250535 0.239922698 0.155856064
v -0.0486250535 0.240840371 0.156101874
v -0.0480822936 0.239864523 0.156073144
v -0.0480822936 0.240782197 0.156319073
v -0.0474999562 0.239844735 0.156147173
v -0.0474999562 0.240762289 0.156393102
v -0.0469176189 0.239864523 0.156073144
v -0.0469176189 0.240782197 0.156319073
v -0.0463749782 0.239922698 0.155856064
v -0.0463749782 0.240840371 0.156101874
v -0.0459089891 0.240015323 0.155510715
v -0.0459089891 0.240932877 0.155756525
v -0.0455514804 0.240135844 0.155060581
v -0.0455514804 0.241053517 0.15530639
v -0.0453266517 0.240276392 0.154536418
v -0.0453266517 0.241193945 0.154782227
v -0.0452500001 0.240427072 0.153973869
v -0.0452500001 0.241344745 0.154219798
v -0.0453266517 0.240577753 0.153411439
v -0.0453266517 0.241495426 0.153657249
v -0.0455514804 0.240718181 0.152887276
v -0.0455514804 0.241635854 0.153133086
v -0.0459089891 0.240838821 0.152437142
v -0.0459089891 0.241756494 0.152682952
v -0.0463749782 0.240931327 0.152091673
v -0.0463749782 0.241849 0.152337602
v -0.0469176189 0.240989502 0.151874593
v -0.0469176189 0.241907175 0.152120522
v -0.0474999562 0.241009409 0.151800564
v -0.0474999562 0.241927083 0.152046374
v -0.0480822936 0.240989502 0.151874593
v -0.0480822936 0.241907175 0.152120522
v -0.0486250535 0.240931327 0.152091673
v -0.0486250535 0.241849 0.152337602
v -0.0490910426 0.240838821 0.152437142
v -0.0490910426 0.241756494 0.152682952
v -0.0494485513 0.240718181 0.152887276
v -0.0494485513 0.241635854 0.153133086
v -0.04967338 0.240577753 0.153411439
v -0.04967338 0.241495426 0.153657249
v 0.045249997 0.240427072 0.153973869
v 0.045249997 0.241344745 0.154219798
v 0.0453266486 0.240276392 0.154536418
v 0.0453266486 0.241193945 0.154782227
v 0.0455514773 0.240135844 0.155060581
v 0.0455514773 0.241053517 0.15530639
v 0.045908986 0.240015323 0.155510715
v 0.045908986 0.240932877 0.155756525
v 0.0463749751 0.239922698 0.155856064
v 0.0463749751 0.240840371 0.156101874
v 0.0469176158 0.239864523 0.156073144
v 0.0469176158 0.240782197 0.156319073
v 0.0474999532 0.239844735 0.156147173
v 0.0474999532 0.240762289 0.156393102
v 0.0480822905 0.239864523 0.156073144
v 0.0480822905 0.240782197 0.156319073
v 0.0486250504 0.239922698 0.155856064
v 0.0486250504 0.240840371 0.156101874
v 0.0490910395 0.240015323 0.155510715
v 0.0490910395 0.240932877 0.155756525
v 0.0494485482 0.240135844 0.155060581
v 0.0494485482 0.241053517 0.15530639
v 0.0496733769 0.240276392 0.154536418
v 0.0496733769 0.241193945 0.154782227
v 0.0497500285 0.240427072 0.153973869
v 0.0497500285 0.241344745 0.154219798
v 0.0496733769 0.240577753 0.153411439
v 0.0496733769 0.241495426 0.153657249
v 0.0494485482 0.240718181 0.152887276
v 0.0494485482 0.241635854 0.153133086
v 0.0490910395 0.240838821 0.152437142
v 0.0490910395 0.241756494 0.152682952
v 0.0486250504 0.240931327 0.152091673
v 0.0486250504 0.241849 0.152337602
v 0.0480822905 0.240989502 0.151874593
v 0.0480822905 0.241907175 0.152120522
v 0.0474999532 0.241009409 0.151800564
v 0.0474999532 0.241927083 0.152046374
v 0.0469176158 0.240989502 0.151874593
v 0.0469176158 0.241907175 0.152120522
v 0.0463749751 0.240931327 0.152091673
v 0.0463749751 0.241849 0.152337602
v 0.045908986 0.240838821 0.152437142
v 0.045908986 0.241756494 0.152682952
v 0.0455514773 0.240718181 0.152887276
v 0.0455514773 0.241635854 0.153133086
v 0.0453266486 0.240577753 0.153411439
v 0.0453266486 0.241495426 0.153657249
v 0.062378703 0.260389383 0.0794733081
v 0.0672071561 0.261639173 0.0748093639
v 0.0615000113 0.259840424 0.0815223966
v 0.0615000113 0.248060281 0.125486187
v 0.062378703 0.247511323 0.127535275
v 0.0620055779 0.247628982 0.127096108
v 0.0617284163 0.247763212 0.126595071
v 0.0615575894 0.247908886 0.126051477
v 0.0672071561 0.246261532 0.1321991
v 0.0675000533 0.246078546 0.132882169
v -0.0627928392 0.237850006 0.163591674
v -0.0615000144 0.248060281 0.125486187
v -0.0616021768 0.247859294 0.126236132
v -0.0619018689 0.247672136 0.126935056
v -0.0623787061 0.247511323 0.127535275
v -0.0615000144 0.259840424 0.0815223966
v -0.0623787061 0.260389383 0.0794733081
v -0.0619018689 0.26022857 0.0800734077
v -0.0616021768 0.260041411 0.0807723318
v 0.0271661862 -0.221377854 0.0638999258
v 0.0272043332 -0.221404676 0.0638999258
v 0.0271661862 -0.221377854 0.0638988529
v 0.0274885281 -0.221628194 0.0638999258
v 0.027574478 -0.221704905 0.0638988529
v 0.0279315099 -0.222086911 0.0638999258
v 0.027933894 -0.222084885 0.0638988529
v 0.0277503117 -0.221877758 0.0638999258
v 0.0275718554 -0.221707587 0.0638999258
v 0.0279870614 -0.222151046 0.0638999258
v 0.0281968697 -0.222445612 0.0638999258
v 0.0282377585 -0.222510581 0.0638988529
v 0.0284766539 -0.222975616 0.0638999258
v 0.0284802302 -0.222974007 0.0638988529
v 0.0283777102 -0.222758775 0.0638999258
v 0.0282352551 -0.222512012 0.0638999258
v 0.0285279139 -0.223087733 0.0638999258
v 0.0286461696 -0.223429446 0.0638999258
v 0.0286567792 -0.223466341 0.0638988529
v 0.0288000687 -0.224500065 0.0638999258
v 0.0288000687 -0.224500065 0.0638988529
v 0.0287640675 -0.223978286 0.0638988529
v 0.0287829026 -0.224138861 0.0638999258
v 0.0286552295 -0.223466699 0.0638999258
v 0.0287314042 -0.223780875 0.0638999258
v 0.0287598952 -0.223978882 0.0638999258
v 0.028300105 -0.224500065 0.0715998922
v 0.028300105 -0.224500065 0.0716999088
v 0.028266488 -0.22403044 0.0715998922
v 0.0282831773 -0.224166219 0.0716999088
v 0.0282624348 -0.224031036 0.0716999088
v 0.0282325133 -0.223835771 0.0716999088
v 0.0281664714 -0.223570352 0.0715998922
v 0.028163968 -0.223570948 0.0716999088
v 0.0281488284 -0.223512177 0.0716999088
v 0.0280018433 -0.223129158 0.0715998922
v 0.0280327185 -0.223198657 0.0716999088
v 0.0279992207 -0.223130469 0.0716999088
v 0.0277762994 -0.222715919 0.0715998922
v 0.0278854951 -0.222898548 0.0716999088
v 0.0277729615 -0.222718005 0.0716999088
v 0.0277085885 -0.222614889 0.0716999088
v 0.027494131 -0.222339039 0.0715998922
v 0.0275040253 -0.222350543 0.0716999088
v 0.0274935349 -0.222339516 0.0716999088
v 0.0271611794 -0.222006087 0.0715998922
v 0.027273713 -0.22210825 0.0716999088
v 0.0271584376 -0.222009246 0.0716999088
v 0.0270200356 -0.221890514 0.0716999088
v 0.0267842397 -0.221723919 0.0715998922
v 0.0267830476 -0.221725528 0.0716999088
v 0.0267457351 -0.221699541 0.0716999088
v 0.0263709411 -0.221498256 0.0715998922
v 0.0264534339 -0.221537297 0.0716999088
v 0.0263696297 -0.221501355 0.0716999088
v 0.0259298667 -0.221333747 0.0715998922
v 0.0261462315 -0.221405451 0.0716999088
v 0.0259286746 -0.221337264 0.0716999088
v 0.0258272275 -0.221305375 0.0716999088
v 0.0254697188 -0.221233671 0.0715998922
v 0.0254998788 -0.221238141 0.0716999088
v 0.0254695996 -0.221235042 0.0716999088
v 0.0250001534 -0.221200054 0.0715998922
v 0.0251672849 -0.221204286 0.0716999088
v 0.0250001534 -0.221204286 0.0716999088
v 0.024833022 -0.221204286 0.0716999088
v 0.0245304688 -0.221233671 0.0715998922
v 0.024530588 -0.221235042 0.0716999088
v 0.0245004281 -0.221238141 0.0716999088
v 0.0240704402 -0.221333747 0.0715998922
v 0.0241729602 -0.221305375 0.0716999088
v 0.0240715131 -0.221337264 0.0716999088
v 0.0238539561 -0.221405451 0.0716999088
v 0.0236292466 -0.221498256 0.0715998922
v 0.0236305579 -0.221501355 0.0716999088
v 0.023546873 -0.221537297 0.0716999088
v 0.023215948 -0.221723919 0.0715998922
v 0.0232545718 -0.221699541 0.0716999088
v 0.0232171401 -0.221725528 0.0716999088
v 0.0228391274 -0.222006087 0.0715998922
v 0.022980152 -0.221890514 0.0716999088
v 0.0228418692 -0.222009246 0.0716999088
v 0.0227264747 -0.22210825 0.0716999088
v 0.0225061759 -0.222339039 0.0715998922
v 0.0225066527 -0.222339516 0.0716999088
v 0.0224961623 -0.222350543 0.0716999088
v 0.0222240075 -0.222715919 0.0715998922
v 0.0222915992 -0.222614889 0.0716999088
v 0.0222273454 -0.222718005 0.0716999088
v 0.0221148118 -0.222898548 0.0716999088
v 0.0219983443 -0.223129158 0.0715998922
v 0.0220009669 -0.223130469 0.0716999088
v 0.0219675883 -0.223198657 0.0716999088
v 0.0218338355 -0.223570352 0.0715998922
v 0.0218514785 -0.223512177 0.0716999088
v 0.0218362197 -0.223570948 0.0716999088
v 0.0217336997 -0.22403044 0.0715998922
v 0.0217676743 -0.223835771 0.0716999088
v 0.0217000827 -0.224500065 0.0716999088
v 0.0217000827 -0.224500065 0.0715998922
v 0.0217170104 -0.224166219 0.0716999088
v 0.0217377528 -0.224031036 0.0716999088
v 0.0290001019 -0.224500065 0.070824555
v 0.0290001019 -0.224500065 0.0716999088
v 0.0289819821 -0.224880283 0.070824555
v 0.0289819821 -0.224880283 0.0716999088
v 0.0289617165 -0.225021546 0.070824555
v 0.0289617165 -0.225021546 0.0716999088
v 0.0289278611 -0.225257044 0.070824555
v 0.0289278611 -0.225257044 0.0716999088
v 0.0288605079 -0.225534503 0.070824555
v 0.0288605079 -0.225534503 0.0716999088
v 0.0288380965 -0.22562701 0.070824555
v 0.0288380965 -0.22562701 0.0716999088
v 0.028713642 -0.225986724 0.070824555
v 0.028713642 -0.225986724 0.0716999088
v 0.0286938533 -0.226029937 0.070824555
v 0.0286938533 -0.226029937 0.0716999088
v 0.0285554513 -0.226332967 0.070824555
v 0.0285554513 -0.226332967 0.0716999088
v 0.0284603223 -0.226497774 0.070824555
v 0.0284603223 -0.226497774 0.0716999088
v 0.028365074 -0.226662641 0.070824555
v 0.028365074 -0.226662641 0.0716999088
v 0.028171955 -0.226933961 0.070824555
v 0.028171955 -0.226933961 0.0716999088
v 0.0281442984 -0.226972704 0.070824555
v 0.0281442984 -0.226972704 0.0716999088
v 0.0278950318 -0.227260356 0.070824555
v 0.0278950318 -0.227260356 0.0716999088
v 0.0278262481 -0.22732604 0.070824555
v 0.0278262481 -0.22732604 0.0716999088
v 0.0276195391 -0.227523034 0.070824555
v 0.0276195391 -0.227523034 0.0716999088
v 0.0274324998 -0.227670138 0.070824555
v 0.0274324998 -0.227670138 0.0716999088
v 0.0273203238 -0.227758353 0.070824555
v 0.0273203238 -0.227758353 0.0716999088
v 0.0270001277 -0.227964168 0.070824555
v 0.0270001277 -0.227964168 0.0716999088
v 0.0266618117 -0.228138571 0.070824555
v 0.0266618117 -0.228138571 0.0716999088
v 0.026529251 -0.228191619 0.070824555
v 0.026529251 -0.228191619 0.0716999088
v 0.0263083562 -0.228280072 0.070824555
v 0.0263083562 -0.228280072 0.0716999088
v 0.0260344132 -0.228360479 0.070824555
v 0.0260344132 -0.228360479 0.0716999088
v 0.0259430989 -0.228387301 0.070824555
v 0.0259430989 -0.228387301 0.0716999088
v 0.0255693778 -0.228459363 0.070824555
v 0.0255693778 -0.228459363 0.0716999088
v 0.0255220517 -0.228463833 0.070824555
v 0.0255220517 -0.228463833 0.0716999088
v 0.0251904115 -0.228495543 0.070824555
v 0.0251904115 -0.228495543 0.0716999088
v 0.0250001534 -0.228495543 0.070824555
v 0.0250001534 -0.228495543 0.0716999088
v 0.0248097762 -0.228495543 0.070824555
v 0.0248097762 -0.228495543 0.0716999088
v 0.0244782552 -0.228463833 0.070824555
v 0.0244782552 -0.228463833 0.0716999088
v 0.0244308099 -0.228459363 0.070824555
v 0.0244308099 -0.228459363 0.0716999088
v 0.0240570887 -0.228387301 0.070824555
v 0.0240570887 -0.228387301 0.0716999088
v 0.0239657744 -0.228360479 0.070824555
v 0.0239657744 -0.228360479 0.0716999088
v 0.0236918315 -0.228280072 0.070824555
v 0.0236918315 -0.228280072 0.0716999088
v 0.0234709367 -0.228191619 0.070824555
v 0.0234709367 -0.228191619 0.0716999088
v 0.0233384951 -0.228138571 0.070824555
v 0.0233384951 -0.228138571 0.0716999088
v 0.02300006 -0.227964168 0.070824555
v 0.02300006 -0.227964168 0.0716999088
v 0.0226798638 -0.227758353 0.070824555
v 0.0226798638 -0.227758353 0.0716999088
v 0.0225676879 -0.227670138 0.070824555
v 0.0225676879 -0.227670138 0.0716999088
v 0.0223806485 -0.227523034 0.070824555
v 0.0223806485 -0.227523034 0.0716999088
v 0.0221740588 -0.22732604 0.070824555
v 0.0221740588 -0.22732604 0.0716999088
v 0.0221051558 -0.227260356 0.070824555
v 0.0221051558 -0.227260356 0.0716999088
v 0.0218558892 -0.226972704 0.070824555
v 0.0218558892 -0.226972704 0.0716999088
v 0.0218283519 -0.226933961 0.070824555
v 0.0218283519 -0.226933961 0.0716999088
v 0.0216351136 -0.226662641 0.070824555
v 0.0216351136 -0.226662641 0.0716999088
v 0.0215399846 -0.226497774 0.070824555
v 0.0215399846 -0.226497774 0.0716999088
v 0.0214447364 -0.226332967 0.070824555
v 0.0214447364 -0.226332967 0.0716999088
v 0.0213064536 -0.226029937 0.070824555
v 0.0213064536 -0.226029937 0.0716999088
v 0.0212866649 -0.225986724 0.070824555
v 0.0212866649 -0.225986724 0.0716999088
v 0.0211620911 -0.22562701 0.070824555
v 0.0211620911 -0.22562701 0.0716999088
v 0.0211396798 -0.225534503 0.070824555
v 0.0211396798 -0.225534503 0.0716999088
v 0.0210724458 -0.225257044 0.070824555
v 0.0210724458 -0.225257044 0.0716999088
v 0.0210385903 -0.225021546 0.070824555
v 0.0210385903 -0.225021546 0.0716999088
v 0.0210182055 -0.224880283 0.070824555
v 0.0210182055 -0.224880283 0.0716999088
v 0.0210000857 -0.224500065 0.070824555
v 0.0210000857 -0.224500065 0.0716999088
v 0.0210385903 -0.223978584 0.070824555
v 0.0210724458 -0.223743026 0.070824555
v 0.0210768565 -0.22374392 0.0707823549
v 0.0213064536 -0.222970133 0.070824555
v 0.0214447364 -0.222667162 0.070824555
v 0.0214487895 -0.222669189 0.0707823549
v 0.0215399846 -0.222502296 0.070824555
v 0.0216351136 -0.222337489 0.070824555
v 0.0216389283 -0.222339933 0.0707823549
v 0.0221740588 -0.221674089 0.070824555
v 0.0223806485 -0.221477036 0.070824555
v 0.0223836287 -0.221480494 0.0707823549
v 0.0244782552 -0.220536237 0.070824555
v 0.0248097762 -0.220504587 0.070824555
v 0.0248100146 -0.220509117 0.0707823549
v 0.0250001534 -0.220504587 0.070824555
v 0.0251904115 -0.220504587 0.070824555
v 0.025190173 -0.220509117 0.0707823549
v 0.0260344132 -0.220639591 0.070824555
v 0.0263083562 -0.220720057 0.070824555
v 0.0263069257 -0.220724289 0.0707823549
v 0.028171955 -0.222066169 0.070824555
v 0.028365074 -0.222337489 0.070824555
v 0.0283613786 -0.222339933 0.0707823549
v 0.0284603223 -0.222502296 0.070824555
v 0.0285554513 -0.222667162 0.070824555
v 0.0285513982 -0.222669189 0.0707823549
v 0.0288605079 -0.223465567 0.070824555
v 0.0289278611 -0.223743026 0.070824555
v 0.0289234504 -0.22374392 0.0707823549
v 0.0289617165 -0.223978584 0.070824555
v 0.0289819821 -0.224119847 0.070824555
v 0.0289775714 -0.224120264 0.0707823549
v 0.0286181554 -0.223051612 0.070649675
v 0.0284640178 -0.22271431 0.070649675
v 0.0286503419 -0.223038738 0.0706742321
v 0.028494893 -0.222698395 0.0706742321
v 0.0286770448 -0.223028009 0.0707054649
v 0.028520523 -0.222685163 0.0707054649
v 0.0286970719 -0.223020022 0.0707420622
v 0.0285395964 -0.222675328 0.0707420622
v 0.0287093505 -0.223015075 0.0707823549
v 0.0278206452 -0.221810703 0.070649675
v 0.0275521859 -0.221554761 0.070649675
v 0.0278457984 -0.221786742 0.0706742321
v 0.0275749549 -0.221528535 0.0706742321
v 0.0278665408 -0.221766894 0.0707054649
v 0.0275937899 -0.221506779 0.0707054649
v 0.0278821572 -0.221752052 0.0707420622
v 0.0276078566 -0.221490507 0.0707420622
v 0.0278918132 -0.221742873 0.0707823549
v 0.0276165589 -0.221480494 0.0707823549
v 0.0272607192 -0.221325521 0.070649675
v 0.0272808656 -0.221297269 0.0706742321
v 0.0272975549 -0.221273844 0.0707054649
v 0.0273099526 -0.221256261 0.0707420622
v 0.0273177012 -0.221245413 0.0707823549
v 0.0269487485 -0.221125011 0.070649675
v 0.0269660338 -0.221094971 0.0706742321
v 0.0269804581 -0.221070056 0.0707054649
v 0.026991187 -0.2210514 0.0707420622
v 0.0269978627 -0.221039836 0.0707823549
v 0.0266190156 -0.220955079 0.070649675
v 0.0266334399 -0.220923488 0.0706742321
v 0.02664548 -0.220897322 0.0707054649
v 0.0266544207 -0.220877771 0.0707420622
v 0.0266599044 -0.220865612 0.0707823549
v 0.025554715 -0.220642571 0.070649675
v 0.0251855239 -0.220607345 0.070649675
v 0.0255597218 -0.220608239 0.0706742321
v 0.0251871928 -0.220572655 0.0706742321
v 0.025563775 -0.220579748 0.0707054649
v 0.0251886233 -0.220543926 0.0707054649
v 0.0255668744 -0.22055841 0.0707420622
v 0.025189577 -0.220522408 0.0707420622
v 0.0255687817 -0.220545237 0.0707823549
v 0.0240812882 -0.220712786 0.070649675
v 0.0237254485 -0.220817273 0.070649675
v 0.024073182 -0.220679049 0.0706742321
v 0.0237141236 -0.22078443 0.0706742321
v 0.0240663871 -0.220651035 0.0707054649
v 0.0237047061 -0.220757251 0.0707054649
v 0.0240612611 -0.220630114 0.0707420622
v 0.0236976727 -0.220736926 0.0707420622
v 0.0240581616 -0.22061718 0.0707823549
v 0.023693262 -0.220724289 0.0707823549
v 0.0233811721 -0.220955079 0.070649675
v 0.0233667477 -0.220923488 0.0706742321
v 0.0233548268 -0.220897322 0.0707054649
v 0.0233458861 -0.220877771 0.0707420622
v 0.0233402833 -0.220865612 0.0707823549
v 0.0230515584 -0.221125011 0.070649675
v 0.0230341538 -0.221094971 0.0706742321
v 0.0230198487 -0.221070056 0.0707054649
v 0.0230090007 -0.2210514 0.0707420622
v 0.0230023249 -0.221039836 0.0707823549
v 0.0227395877 -0.221325521 0.070649675
v 0.0227194413 -0.221297269 0.0706742321
v 0.022702752 -0.221273844 0.0707054649
v 0.022690235 -0.221256261 0.0707420622
v 0.0226824864 -0.221245413 0.0707823549
v 0.0219367131 -0.222091024 0.070649675
v 0.0217216595 -0.2223931 0.070649675
v 0.0219094142 -0.222069566 0.0706742321
v 0.0216924533 -0.222374325 0.0706742321
v 0.0218868836 -0.222051744 0.0707054649
v 0.0216682538 -0.222358768 0.0707054649
v 0.0218699559 -0.222038453 0.0707420622
v 0.021650134 -0.222347145 0.0707420622
v 0.0218594655 -0.222030227 0.0707823549
v 0.0212607964 -0.223402088 0.070649675
v 0.021173416 -0.223762517 0.070649675
v 0.021227537 -0.223392312 0.0706742321
v 0.0211393222 -0.22375596 0.0706742321
v 0.0211998805 -0.223384206 0.0707054649
v 0.0211110696 -0.223750477 0.0707054649
v 0.0211792573 -0.223378127 0.0707420622
v 0.0210898503 -0.223746424 0.0707420622
v 0.0211665019 -0.223374372 0.0707823549
v 0.0288972243 -0.224500065 0.070649675
v 0.0288795813 -0.224129622 0.070649675
v 0.0289320334 -0.224500065 0.0706742321
v 0.028914152 -0.224126284 0.0706742321
v 0.0289607629 -0.224500065 0.0707054649
v 0.0289427623 -0.224123602 0.0707054649
v 0.0289823397 -0.224500065 0.0707420622
v 0.0289642199 -0.224121516 0.0707420622
v 0.028995572 -0.224500065 0.0707823549
v 0.0288268908 -0.223762517 0.070649675
v 0.0288609847 -0.22375596 0.0706742321
v 0.0288892373 -0.223750477 0.0707054649
v 0.0289103373 -0.223746424 0.0707420622
v 0.0288380965 -0.22337312 0.070824555
v 0.028833805 -0.223374372 0.0707823549
v 0.0288209304 -0.223378127 0.0707420622
v 0.0288003072 -0.223384206 0.0707054649
v 0.0287727698 -0.223392312 0.0706742321
v 0.0287393912 -0.223402088 0.070649675
v 0.028713642 -0.223013406 0.070824555
v 0.0286938533 -0.222970133 0.070824555
v 0.0282786473 -0.2223931 0.070649675
v 0.0283078536 -0.222374325 0.0706742321
v 0.0283320531 -0.222358768 0.0707054649
v 0.0283501729 -0.222347145 0.0707420622
v 0.0281442984 -0.222027426 0.070824555
v 0.0281408414 -0.222030227 0.0707823549
v 0.028130351 -0.222038453 0.0707420622
v 0.0281134232 -0.222051744 0.0707054649
v 0.0280907735 -0.222069566 0.0706742321
v 0.0280634745 -0.222091024 0.070649675
v 0.0278950318 -0.221739714 0.070824555
v 0.026529251 -0.220808511 0.070824555
v 0.0266618117 -0.220861559 0.070824555
v 0.0270001277 -0.221035962 0.070824555
v 0.0273203238 -0.221241777 0.070824555
v 0.0274324998 -0.221329992 0.070824555
v 0.0276195391 -0.221477036 0.070824555
v 0.0278262481 -0.221674089 0.070824555
v 0.0262747392 -0.220817273 0.070649675
v 0.026286064 -0.22078443 0.0706742321
v 0.0262954816 -0.220757251 0.0707054649
v 0.0263025149 -0.220736926 0.0707420622
v 0.0259430989 -0.220612829 0.070824555
v 0.0259421452 -0.22061718 0.0707823549
v 0.0259389266 -0.220630114 0.0707420622
v 0.0259339198 -0.220651035 0.0707054649
v 0.0259271249 -0.220679049 0.0706742321
v 0.0259188994 -0.220712786 0.070649675
v 0.0255693778 -0.220540767 0.070824555
v 0.0255220517 -0.220536237 0.070824555
v 0.0248106107 -0.220522408 0.0707420622
v 0.0248116835 -0.220543926 0.0707054649
v 0.0248129948 -0.220572655 0.0706742321
v 0.0248146638 -0.220607345 0.070649675
v 0.0244308099 -0.220540767 0.070824555
v 0.0244315251 -0.220545237 0.0707823549
v 0.0244334325 -0.22055841 0.0707420622
v 0.0244364127 -0.220579748 0.0707054649
v 0.024440585 -0.220608239 0.0706742321
v 0.0244454726 -0.220642571 0.070649675
v 0.0240570887 -0.220612829 0.070824555
v 0.0225676879 -0.221329992 0.070824555
v 0.0226798638 -0.221241777 0.070824555
v 0.02300006 -0.221035962 0.070824555
v 0.0233384951 -0.220861559 0.070824555
v 0.0234709367 -0.220808511 0.070824555
v 0.0236918315 -0.220720057 0.070824555
v 0.0239657744 -0.220639591 0.070824555
v 0.0224480018 -0.221554761 0.070649675
v 0.022425352 -0.221528535 0.0706742321
v 0.0224063977 -0.221506779 0.0707054649
v 0.022392331 -0.221490507 0.0707420622
v 0.0221051558 -0.221739714 0.070824555
v 0.0221084937 -0.221742873 0.0707823549
v 0.0221180304 -0.221752052 0.0707420622
v 0.0221336469 -0.221766894 0.0707054649
v 0.0221545085 -0.221786742 0.0706742321
v 0.0221796616 -0.221810703 0.070649675
v 0.0218558892 -0.222027426 0.070824555
v 0.0218283519 -0.222066169 0.070824555
v 0.0214605912 -0.222675328 0.0707420622
v 0.0214797839 -0.222685163 0.0707054649
v 0.0215052947 -0.222698395 0.0706742321
v 0.0215361699 -0.22271431 0.070649675
v 0.0212866649 -0.223013406 0.070824555
v 0.0212908372 -0.223015075 0.0707823549
v 0.0213032349 -0.223020022 0.0707420622
v 0.0213231429 -0.223028009 0.0707054649
v 0.0213498458 -0.223038738 0.0706742321
v 0.0213821515 -0.223051612 0.070649675
v 0.0211620911 -0.22337312 0.070824555
v 0.0211396798 -0.223465567 0.070824555
v 0.0210182055 -0.224119847 0.070824555
v 0.0210227355 -0.224120264 0.0707823549
v 0.0210359677 -0.224121516 0.0707420622
v 0.0210574254 -0.224123602 0.0707054649
v 0.0210860356 -0.224126284 0.0706742321
v 0.0211206063 -0.224129622 0.070649675
v 0.0211029633 -0.224500065 0.070649675
v 0.0210682734 -0.224500065 0.0706742321
v 0.0210394248 -0.224500065 0.0707054649
v 0.0210179671 -0.224500065 0.0707420622
v 0.0210046157 -0.224500065 0.0707823549
v -0.0259298698 -0.240250056 0.0669273649
v -0.0259390489 -0.240250056 0.0669953142
v -0.0259298698 -0.240240102 0.0669273649
v -0.0259390489 -0.240240102 0.0669953142
v -0.0266700402 -0.2356301 0.0631999288
v -0.027870001 -0.2356301 0.0631999288
v -0.028500022 -0.23476011 0.0631999288
v -0.027870001 -0.23683006 0.0631999288
v -0.028500022 -0.240240102 0.0631999288
v -0.0266700402 -0.238170092 0.0631999288
v -0.0253300086 -0.2356301 0.0631999288
v -0.0253300086 -0.23683006 0.0631999288
v -0.0235000268 -0.23476011 0.0631999288
v -0.0266700402 -0.23683006 0.0631999288
v -0.027870001 -0.238170092 0.0631999288
v -0.027870001 -0.239370053 0.0631999288
v -0.0262402908 -0.240240102 0.0631999288
v -0.0266700402 -0.239370053 0.0631999288
v -0.0241299287 -0.23683006 0.0631999288
v -0.0241299287 -0.238170092 0.0631999288
v -0.0253300086 -0.238170092 0.0631999288
v -0.0253300086 -0.239370053 0.0631999288
v -0.0241299287 -0.239370053 0.0631999288
v -0.0235000268 -0.240240102 0.0631999288
v -0.0250201837 -0.240240102 0.0631999288
v -0.0254338399 -0.240240102 0.0631999288
v -0.0255530492 -0.240240102 0.0631999288
v -0.0260791198 -0.240240102 0.0631999288
v -0.0241299287 -0.2356301 0.0631999288
f 1 2 3
f 3 2 4
f 5 6 7
f 7 6 8
f 9 10 11
f 11 10 12
f 13 14 15
f 13 15 16
f 16 15 17
f 16 17 18
f 18 17 19
f 18 19 20
f 21 22 23
f 21 23 24
f 24 23 25
f 24 25 26
f 26 25 27
f 26 27 28
f 29 30 31
f 31 30 32
f 31 32 33
f 33 32 34
f 33 34 35
f 35 34 36
f 35 36 37
f 37 36 38
f 37 38 39
f 39 38 40
f 39 40 41
f 41 40 42
f 41 42 43
f 43 42 44
f 43 44 45
f 45 44 46
f 45 46 47
f 47 46 48
f 47 48 49
f 49 48 50
f 49 50 51
f 51 50 52
f 51 52 53
f 53 52 54
f 53 54 55
f 55 54 56
f 55 56 57
f 57 56 58
f 57 58 59
f 59 58 60
f 59 60 61
f 61 60 62
f 61 62 63
f 63 62 64
f 63 64 65
f 65 64 66
f 65 66 67
f 67 66 68
f 67 68 69
f 69 68 70
f 69 70 71
f 71 70 72
f 71 72 73
f 73 72 74
f 73 74 75
f 75 74 76
f 75 76 29
f 29 76 30
f 77 78 79
f 79 78 80
f 81 82 83
f 83 82 84
f 85 86 87
f 87 86 88
f 87 88 89
f 89 88 90
f 89 90 91
f 91 90 92
f 91 92 93
f 93 92 94
f 93 94 95
f 95 94 96
f 95 96 97
f 97 96 98
f 97 98 99
f 99 98 100
f 101 102 103
f 103 102 104
f 103 104 105
f 105 104 106
f 105 106 107
f 107 106 108
f 107 108 109
f 109 108 110
f 109 110 111
f 111 110 112
f 111 112 113
f 113 112 114
f 113 114 115
f 115 114 116
f 115 116 117
f 117 116 118
f 117 118 119
f 119 118 120
f 119 120 121
f 121 120 122
f 121 122 123
f 123 122 124
f 123 124 125
f 125 124 126
f 125 126 127
f 127 126 128
f 127 128 129
f 129 128 130
f 129 130 131
f 131 130 132
f 131 132 133
f 133 132 134
f 133 134 135
f 135 134 136
f 135 136 137
f 137 136 138
f 137 138 139
f 139 138 140
f 139 140 141
f 141 140 142
f 141 142 143
f 143 142 144
f 143 144 145
f 145 144 146
f 145 146 147
f 147 146 148
f 147 148 101
f 101 148 102
f 149 150 151
f 151 150 152
f 151 152 153
f 153 152 154
f 153 154 155
f 155 154 156
f 155 156 157
f 157 156 158
f 157 158 159
f 159 158 160
f 159 160 161
f 161 160 162
f 161 162 163
f 163 162 164
f 163 164 165
f 165 164 166
f 165 166 167
f 167 166 168
f 167 168 169
f 169 168 170
f 169 170 171
f 171 170 172
f 171 172 173
f 173 172 174
f 173 174 175
f 175 174 176
f 175 176 177
f 177 176 178
f 177 178 179
f 179 178 180
f 179 180 181
f 181 180 182
f 181 182 183
f 183 182 184
f 183 184 185
f 185 184 186
f 185 186 187
f 187 186 188
f 187 188 189
f 189 188 190
f 189 190 191
f 191 190 192
f 191 192 193
f 193 192 194
f 193 194 195
f 195 194 196
f 195 196 149
f 149 196 150
f 197 198 199
f 197 199 200
f 200 199 201
f 200 201 202
f 202 201 203
f 202 203 204
f 205 206 207
f 205 207 208
f 208 207 209
f 208 209 210
f 210 209 211
f 210 211 212
f 213 214 215
f 213 215 216
f 216 215 217
f 216 217 218
f 218 217 219
f 218 219 220
f 221 222 223
f 221 223 224
f 224 223 225
f 224 225 226
f 226 225 227
f 226 227 228
f 229 230 231
f 229 231 232
f 232 231 233
f 232 233 234
f 234 233 235
f 234 235 236
f 237 238 239
f 237 239 240
f 240 239 241
f 240 241 242
f 242 241 243
f 242 243 244
f 245 246 247
f 245 247 248
f 248 247 249
f 248 249 250
f 250 249 251
f 250 251 252
f 253 254 255
f 256 257 203
f 258 259 260
f 254 261 255
f 255 261 262
f 255 262 263
f 264 265 266
f 267 268 255
f 255 268 269
f 255 269 253
f 270 271 272
f 256 203 273
f 271 274 272
f 272 274 275
f 272 275 276
f 260 259 277
f 199 198 278
f 278 198 279
f 278 279 280
f 257 281 203
f 203 281 282
f 203 282 266
f 266 282 283
f 266 283 264
f 284 262 285
f 285 262 286
f 285 286 275
f 287 288 289
f 289 288 290
f 289 290 272
f 272 290 291
f 272 291 270
f 258 260 289
f 289 260 292
f 289 292 287
f 273 203 278
f 278 203 201
f 278 201 199
f 293 294 295
f 295 294 296
f 284 297 262
f 262 297 298
f 262 298 299
f 259 300 277
f 277 300 301
f 277 301 302
f 302 301 280
f 302 280 303
f 303 280 279
f 304 305 306
f 306 305 307
f 306 307 308
f 308 307 309
f 308 309 296
f 296 309 310
f 296 310 295
f 311 98 96
f 275 286 276
f 276 286 312
f 276 312 306
f 306 312 313
f 306 313 304
f 314 315 266
f 299 316 262
f 262 316 317
f 262 317 263
f 314 266 293
f 315 318 266
f 266 318 319
f 266 319 320
f 96 94 311
f 311 94 92
f 311 92 90
f 265 321 266
f 266 321 322
f 266 322 293
f 293 322 323
f 293 323 294
f 90 88 311
f 311 88 86
f 311 86 267
f 320 324 266
f 266 324 325
f 266 325 311
f 311 325 100
f 311 100 98
f 326 327 311
f 311 327 328
f 158 212 160
f 160 212 266
f 160 266 162
f 329 227 311
f 311 227 225
f 182 180 311
f 311 180 178
f 311 178 176
f 225 223 311
f 311 223 222
f 311 222 326
f 168 166 266
f 266 166 164
f 266 164 162
f 158 156 212
f 212 156 154
f 212 154 210
f 210 154 152
f 210 152 208
f 330 150 196
f 330 196 331
f 331 196 194
f 331 194 214
f 176 174 311
f 311 174 172
f 311 172 266
f 266 172 170
f 266 170 168
f 330 332 150
f 150 332 333
f 150 333 152
f 152 333 205
f 152 205 208
f 194 192 214
f 214 192 190
f 214 190 215
f 215 190 188
f 215 188 217
f 217 188 219
f 334 335 186
f 335 336 186
f 186 336 337
f 186 337 188
f 188 337 338
f 188 338 219
f 182 311 184
f 184 311 328
f 184 328 186
f 186 328 339
f 186 339 334
f 311 114 112
f 108 106 329
f 134 132 340
f 340 132 130
f 340 130 128
f 311 112 329
f 329 112 110
f 329 110 108
f 142 140 243
f 243 140 138
f 243 138 340
f 340 138 136
f 340 136 134
f 120 118 311
f 311 118 116
f 311 116 114
f 128 126 340
f 340 126 124
f 340 124 311
f 311 124 122
f 311 122 120
f 239 238 144
f 144 238 229
f 144 229 146
f 106 104 329
f 329 104 102
f 329 102 236
f 236 102 148
f 236 148 234
f 234 148 146
f 234 146 232
f 232 146 229
f 142 243 144
f 144 243 241
f 144 241 239
f 341 342 255
f 255 343 344
f 341 255 345
f 267 255 311
f 311 255 344
f 311 344 346
f 342 347 255
f 255 347 348
f 255 348 343
f 346 349 311
f 311 349 350
f 311 350 351
f 340 352 252
f 252 352 353
f 252 353 354
f 354 355 252
f 252 355 356
f 252 356 250
f 250 356 357
f 250 357 248
f 358 359 357
f 357 359 245
f 357 245 248
f 255 360 345
f 345 360 361
f 345 361 358
f 358 361 362
f 358 362 359
f 363 364 340
f 340 364 365
f 340 365 352
f 351 366 311
f 311 366 367
f 311 367 340
f 340 367 368
f 340 368 363
f 369 359 362
f 369 362 370
f 370 362 361
f 370 361 371
f 371 361 360
f 371 360 372
f 373 374 375
f 375 374 376
f 375 376 377
f 377 376 378
f 377 378 379
f 379 378 380
f 379 380 381
f 381 380 382
f 381 382 383
f 383 382 384
f 383 384 385
f 385 384 386
f 385 386 387
f 387 386 388
f 387 388 389
f 389 388 390
f 389 390 391
f 391 390 392
f 391 392 393
f 393 392 394
f 393 394 395
f 395 394 396
f 395 396 397
f 397 396 398
f 397 398 399
f 399 398 400
f 399 400 401
f 401 400 402
f 401 402 403
f 403 402 404
f 403 404 405
f 405 404 406
f 405 406 407
f 407 406 408
f 407 408 409
f 409 408 410
f 409 410 411
f 411 410 412
f 411 412 413
f 413 412 414
f 413 414 415
f 415 414 416
f 415 416 417
f 417 416 418
f 417 418 419
f 419 418 420
f 419 420 373
f 373 420 374
f 421 422 423
f 421 423 424
f 424 423 425
f 424 425 426
f 426 425 427
f 426 427 428
f 429 430 431
f 429 431 432
f 432 431 433
f 432 433 434
f 434 433 435
f 434 435 436
f 437 438 439
f 437 439 440
f 440 439 441
f 440 441 442
f 442 441 443
f 442 443 444
f 445 446 447
f 445 447 448
f 448 447 449
f 448 449 450
f 450 449 451
f 450 451 452
f 453 454 455
f 453 455 456
f 456 455 457
f 456 457 458
f 458 457 459
f 458 459 460
f 461 462 463
f 461 463 464
f 464 463 465
f 464 465 466
f 466 465 467
f 466 467 468
f 469 470 471
f 469 471 472
f 472 471 473
f 472 473 474
f 474 473 475
f 474 475 476
f 477 478 479
f 477 479 480
f 480 479 481
f 480 481 482
f 482 481 483
f 482 483 484
f 485 435 486
f 486 435 487
f 488 489 490
f 490 489 491
f 485 492 435
f 435 492 493
f 435 493 494
f 495 496 497
f 431 430 498
f 498 430 421
f 498 421 499
f 500 501 502
f 502 501 503
f 502 503 504
f 504 503 505
f 504 505 506
f 507 508 509
f 497 496 428
f 487 435 498
f 498 435 433
f 498 433 431
f 506 510 504
f 504 510 511
f 504 511 512
f 491 489 502
f 502 489 513
f 502 513 500
f 496 514 428
f 428 514 515
f 428 515 426
f 426 515 499
f 426 499 424
f 424 499 421
f 488 516 489
f 489 516 517
f 489 517 518
f 519 520 521
f 521 520 522
f 521 522 523
f 523 522 524
f 523 524 525
f 525 526 523
f 523 526 527
f 523 527 528
f 529 530 531
f 495 497 521
f 521 497 532
f 521 532 519
f 533 534 494
f 530 535 531
f 531 535 536
f 531 536 537
f 537 536 489
f 537 489 528
f 528 489 518
f 528 518 523
f 534 538 494
f 494 538 539
f 494 539 540
f 541 542 543
f 543 542 544
f 544 545 543
f 543 545 546
f 543 546 547
f 493 548 494
f 494 548 549
f 494 549 512
f 512 511 494
f 494 511 550
f 494 550 533
f 540 551 494
f 494 551 552
f 494 552 543
f 543 552 553
f 543 553 541
f 547 554 543
f 543 554 555
f 543 555 508
f 508 555 556
f 508 556 509
f 529 531 509
f 509 531 557
f 509 557 558
f 558 559 509
f 509 559 560
f 509 560 507
f 561 562 494
f 494 562 563
f 564 565 543
f 566 567 568
f 568 567 494
f 568 494 569
f 569 494 563
f 446 443 570
f 543 571 572
f 570 443 573
f 573 443 441
f 573 441 574
f 575 576 543
f 543 576 577
f 543 577 571
f 578 459 543
f 543 459 457
f 572 579 543
f 543 579 580
f 543 580 494
f 494 580 581
f 494 581 561
f 566 582 567
f 567 582 583
f 567 583 584
f 584 583 585
f 584 585 586
f 441 439 574
f 574 439 438
f 574 438 585
f 585 438 587
f 585 587 586
f 457 455 543
f 543 455 454
f 543 454 564
f 570 588 446
f 446 588 589
f 446 589 447
f 447 589 590
f 447 590 449
f 449 590 451
f 565 591 543
f 543 591 592
f 543 592 575
f 592 593 575
f 575 593 594
f 575 594 595
f 595 594 596
f 595 596 590
f 590 596 597
f 590 597 451
f 598 599 578
f 600 601 543
f 543 601 602
f 602 603 543
f 543 603 604
f 543 604 578
f 578 604 605
f 578 605 598
f 471 470 606
f 606 470 461
f 606 461 607
f 608 609 475
f 475 609 610
f 475 610 611
f 611 610 612
f 611 612 613
f 599 614 578
f 578 614 615
f 578 615 468
f 468 615 616
f 468 616 466
f 466 616 607
f 466 607 464
f 464 607 461
f 608 475 606
f 606 475 473
f 606 473 471
f 613 617 611
f 611 617 618
f 611 618 619
f 619 620 611
f 611 620 621
f 611 621 543
f 543 621 622
f 543 622 600
f 396 394 508
f 414 611 416
f 416 611 418
f 418 611 420
f 420 611 543
f 420 543 374
f 414 412 611
f 611 412 410
f 611 410 484
f 484 410 408
f 484 408 406
f 394 392 508
f 508 392 390
f 508 390 388
f 388 386 508
f 508 386 384
f 508 384 543
f 543 384 382
f 543 382 380
f 380 378 543
f 543 378 376
f 543 376 374
f 477 400 623
f 623 400 398
f 508 624 396
f 396 624 625
f 396 625 398
f 398 625 626
f 398 626 623
f 406 404 484
f 484 404 402
f 484 402 482
f 482 402 400
f 482 400 480
f 480 400 477
f 627 623 626
f 627 626 628
f 628 626 625
f 628 625 629
f 629 625 624
f 629 624 630
f 631 632 633
f 633 632 634
f 633 634 635
f 635 634 636
f 635 636 637
f 637 636 638
f 637 638 639
f 639 638 640
f 639 640 641
f 641 640 642
f 641 642 643
f 643 642 644
f 643 644 645
f 645 644 646
f 645 646 647
f 647 646 648
f 647 648 649
f 649 648 650
f 649 650 651
f 651 650 652
f 651 652 653
f 653 652 654
f 653 654 655
f 655 654 656
f 655 656 657
f 657 656 658
f 657 658 659
f 659 658 660
f 659 660 661
f 661 660 662
f 661 662 663
f 663 662 664
f 663 664 665
f 665 664 666
f 665 666 667
f 667 666 668
f 667 668 669
f 669 668 670
f 669 670 671
f 671 670 672
f 671 672 673
f 673 672 674
f 673 674 675
f 675 674 676
f 675 676 677
f 677 676 678
f 677 678 631
f 631 678 632
f 679 419 680
f 680 419 373
f 680 373 681
f 681 373 375
f 681 375 682
f 682 375 377
f 682 377 683
f 683 377 379
f 683 379 684
f 684 379 381
f 684 381 685
f 685 381 383
f 685 383 686
f 686 383 385
f 686 385 687
f 687 385 387
f 687 387 688
f 688 387 389
f 688 389 689
f 689 389 391
f 689 391 690
f 690 391 393
f 690 393 691
f 691 393 395
f 691 395 692
f 692 395 397
f 692 397 693
f 693 397 399
f 693 399 694
f 694 399 401
f 694 401 695
f 695 401 403
f 695 403 696
f 696 403 405
f 696 405 697
f 697 405 407
f 697 407 698
f 698 407 409
f 698 409 699
f 699 409 411
f 699 411 700
f 700 411 413
f 700 413 701
f 701 413 415
f 701 415 702
f 702 415 417
f 702 417 679
f 679 417 419
f 703 704 705
f 705 704 706
f 705 706 707
f 707 706 708
f 707 708 709
f 709 708 710
f 709 710 711
f 711 710 712
f 711 712 713
f 713 712 714
f 713 714 715
f 715 714 716
f 715 716 717
f 717 716 718
f 717 718 719
f 719 718 720
f 719 720 721
f 721 720 722
f 721 722 723
f 723 722 724
f 723 724 725
f 725 724 726
f 725 726 727
f 727 726 728
f 727 728 729
f 729 728 730
f 729 730 731
f 731 730 732
f 731 732 733
f 733 732 734
f 733 734 735
f 735 734 736
f 735 736 737
f 737 736 738
f 737 738 739
f 739 738 740
f 739 740 741
f 741 740 742
f 741 742 743
f 743 742 744
f 743 744 745
f 745 744 746
f 745 746 747
f 747 746 748
f 747 748 749
f 749 748 750
f 749 750 703
f 703 750 704
f 751 752 753
f 753 752 754
f 753 754 755
f 755 754 756
f 755 756 757
f 757 756 758
f 757 758 759
f 759 758 760
f 759 760 761
f 761 760 762
f 761 762 763
f 763 762 764
f 763 764 765
f 765 764 766
f 765 766 767
f 767 766 768
f 767 768 769
f 769 768 770
f 769 770 771
f 771 770 772
f 771 772 773
f 773 772 774
f 773 774 775
f 775 774 776
f 775 776 777
f 777 776 778
f 777 778 779
f 779 778 780
f 779 780 781
f 781 780 782
f 781 782 783
f 783 782 784
f 783 784 785
f 785 784 786
f 785 786 787
f 787 786 788
f 787 788 789
f 789 788 790
f 789 790 791
f 791 790 792
f 791 792 793
f 793 792 794
f 793 794 795
f 795 794 796
f 795 796 797
f 797 796 798
f 797 798 751
f 751 798 752
f 557 799 558
f 558 799 800
f 801 528 802
f 802 528 527
f 522 803 524
f 524 803 804
f 524 804 525
f 525 804 805
f 525 805 526
f 526 805 806
f 526 806 527
f 527 806 802
f 803 522 807
f 807 522 520
f 497 428 808
f 808 428 427
f 421 430 422
f 422 430 429
f 587 438 809
f 809 438 437
f 443 446 444
f 444 446 445
f 593 810 594
f 594 810 811
f 594 811 596
f 596 811 812
f 596 812 597
f 597 812 813
f 810 593 814
f 814 593 592
f 564 815 565
f 565 815 816
f 565 816 591
f 591 816 817
f 591 817 592
f 592 817 814
f 454 453 564
f 564 453 815
f 468 467 578
f 578 467 460
f 578 460 459
f 461 470 462
f 462 470 469
f 484 483 611
f 611 483 476
f 611 476 475
f 818 819 820
f 820 819 821
f 820 821 822
f 823 824 825
f 825 824 822
f 825 822 826
f 826 822 821
f 823 827 824
f 824 827 828
f 824 828 829
f 830 831 832
f 832 831 829
f 832 829 833
f 833 829 828
f 830 834 831
f 831 834 835
f 831 835 836
f 837 838 839
f 837 839 840
f 835 841 836
f 836 841 842
f 836 842 839
f 839 842 843
f 839 843 840
f 844 845 846
f 846 845 847
f 847 848 846
f 846 848 849
f 846 849 850
f 849 851 850
f 850 851 852
f 850 852 853
f 852 854 853
f 853 854 855
f 853 855 856
f 856 855 857
f 857 858 856
f 856 858 859
f 856 859 860
f 859 861 860
f 860 861 862
f 860 862 863
f 863 862 864
f 864 865 863
f 863 865 866
f 863 866 867
f 866 868 867
f 867 868 869
f 867 869 870
f 869 871 870
f 870 871 872
f 870 872 873
f 873 872 874
f 874 875 873
f 873 875 876
f 873 876 877
f 876 878 877
f 877 878 879
f 877 879 880
f 880 879 881
f 881 882 880
f 880 882 883
f 880 883 884
f 883 885 884
f 884 885 886
f 884 886 887
f 887 886 888
f 888 889 887
f 887 889 890
f 887 890 891
f 890 892 891
f 891 892 893
f 891 893 894
f 893 895 894
f 894 895 896
f 894 896 897
f 897 896 898
f 898 899 897
f 897 899 900
f 897 900 901
f 900 902 901
f 901 902 903
f 901 903 904
f 904 903 905
f 905 906 904
f 904 906 907
f 904 907 908
f 907 909 908
f 908 909 910
f 908 910 911
f 910 912 911
f 911 912 913
f 911 913 914
f 914 913 915
f 916 917 918
f 918 917 914
f 918 914 919
f 919 914 915
f 920 921 922
f 922 921 923
f 922 923 924
f 924 923 925
f 924 925 926
f 926 925 927
f 926 927 928
f 928 927 929
f 928 929 930
f 930 929 931
f 930 931 932
f 932 931 933
f 932 933 934
f 934 933 935
f 934 935 936
f 936 935 937
f 936 937 938
f 938 937 939
f 938 939 940
f 940 939 941
f 940 941 942
f 942 941 943
f 942 943 944
f 944 943 945
f 944 945 946
f 946 945 947
f 946 947 948
f 948 947 949
f 948 949 950
f 950 949 951
f 950 951 952
f 952 951 953
f 952 953 954
f 954 953 955
f 954 955 956
f 956 955 957
f 956 957 958
f 958 957 959
f 958 959 960
f 960 959 961
f 960 961 962
f 962 961 963
f 962 963 964
f 964 963 965
f 964 965 966
f 966 965 967
f 966 967 968
f 968 967 969
f 968 969 970
f 970 969 971
f 970 971 972
f 972 971 973
f 972 973 974
f 974 973 975
f 974 975 976
f 976 975 977
f 976 977 978
f 978 977 979
f 978 979 980
f 980 979 981
f 980 981 982
f 982 981 983
f 982 983 984
f 984 983 985
f 984 985 986
f 986 985 987
f 986 987 988
f 988 987 989
f 988 989 990
f 990 989 991
f 990 991 992
f 992 991 993
f 992 993 994
f 994 993 995
f 994 995 996
f 996 995 997
f 996 997 998
f 998 997 999
f 998 999 1000
f 1000 999 1001
f 1000 1001 1002
f 1002 1001 1003
f 1002 1003 1004
f 1004 1003 1005
f 1004 1005 1006
f 1006 1005 1007
f 1006 1007 1008
f 1008 1007 1009
f 1008 1009 1010
f 1010 1009 1011
f 1010 1011 1012
f 1012 1011 1013
f 1012 1013 1014
f 1014 1013 1015
f 1014 1015 1016
f 1016 1015 1017
f 1016 1017 1018
f 1018 1017 1019
f 1018 1019 1020
f 1020 1019 1021
f 1020 1021 1022
f 1022 1021 1023
f 1022 1023 1024
f 1024 1023 1025
f 1024 1025 1026
f 1026 1025 1027
f 1026 1027 1028
f 1028 1027 1029
f 1030 1031 1032
f 1033 1034 1035
f 1036 1037 1038
f 1039 1040 1041
f 1042 1043 1044
f 1045 1046 1047
f 1048 1049 1050
f 1051 1052 1053
f 1054 1055 1056
f 1057 1058 1059
f 1060 1061 1062
f 1063 1064 1065
f 1065 1064 1066
f 1065 1066 1067
f 1067 1066 1068
f 1067 1068 1069
f 1069 1068 1070
f 1069 1070 1071
f 1071 1070 1056
f 1072 1073 1074
f 1074 1073 1075
f 1074 1075 1076
f 1076 1075 1077
f 1076 1077 1078
f 1078 1077 1079
f 1078 1079 1080
f 1080 1079 1081
f 1073 1082 1075
f 1075 1082 1083
f 1075 1083 1077
f 1077 1083 1084
f 1077 1084 1079
f 1079 1084 1085
f 1079 1085 1081
f 1081 1085 1086
f 1082 1087 1083
f 1083 1087 1088
f 1083 1088 1084
f 1084 1088 1089
f 1084 1089 1085
f 1085 1089 1090
f 1085 1090 1086
f 1086 1090 1091
f 1087 1092 1088
f 1088 1092 1093
f 1088 1093 1089
f 1089 1093 1094
f 1089 1094 1090
f 1090 1094 1095
f 1090 1095 1091
f 1091 1095 1096
f 1097 1098 1099
f 1099 1098 1100
f 1099 1100 1101
f 1101 1100 1102
f 1101 1102 1103
f 1103 1102 1104
f 1103 1104 1105
f 1105 1104 1047
f 1106 1107 1108
f 1108 1107 1109
f 1108 1109 1110
f 1110 1109 1111
f 1110 1111 1112
f 1112 1111 1113
f 1112 1113 1114
f 1114 1113 1115
f 1107 1116 1109
f 1109 1116 1117
f 1109 1117 1111
f 1111 1117 1118
f 1111 1118 1113
f 1113 1118 1119
f 1113 1119 1115
f 1115 1119 1120
f 1116 1121 1117
f 1117 1121 1122
f 1117 1122 1118
f 1118 1122 1123
f 1118 1123 1119
f 1119 1123 1124
f 1119 1124 1120
f 1120 1124 1125
f 1121 1126 1122
f 1122 1126 1127
f 1122 1127 1123
f 1123 1127 1128
f 1123 1128 1124
f 1124 1128 1129
f 1124 1129 1125
f 1125 1129 1130
f 1131 1132 1133
f 1133 1132 1134
f 1133 1134 1135
f 1135 1134 1136
f 1135 1136 1137
f 1137 1136 1138
f 1137 1138 1139
f 1139 1138 1038
f 1140 1141 1142
f 1142 1141 1143
f 1142 1143 1144
f 1144 1143 1145
f 1144 1145 1146
f 1146 1145 1147
f 1146 1147 1148
f 1148 1147 1032
f 1149 1150 1151
f 1151 1150 1152
f 1151 1152 1153
f 1153 1152 1154
f 1153 1154 1155
f 1155 1154 1156
f 1155 1156 1157
f 1157 1156 1062
f 1157 1062 920
f 920 1062 1061
f 1150 1158 1152
f 1152 1158 1159
f 1152 1159 1154
f 1154 1159 1160
f 1154 1160 1156
f 1156 1160 1161
f 1156 1161 1062
f 1062 1161 1059
f 1062 1059 1060
f 1060 1059 1058
f 1162 1057 1163
f 1163 1057 1059
f 1163 1059 1164
f 1164 1059 1161
f 1164 1161 1165
f 1165 1161 1160
f 1165 1160 1166
f 1166 1160 1159
f 1166 1159 1167
f 1167 1159 1158
f 1167 1063 1166
f 1166 1063 1065
f 1166 1065 1165
f 1165 1065 1067
f 1165 1067 1164
f 1164 1067 1069
f 1164 1069 1163
f 1163 1069 1071
f 1163 1071 1162
f 1162 1071 1168
f 1056 1055 1071
f 1071 1055 1169
f 1071 1169 1168
f 1064 1170 1066
f 1066 1170 1171
f 1066 1171 1068
f 1068 1171 1172
f 1068 1172 1070
f 1070 1172 1173
f 1070 1173 1056
f 1056 1173 1053
f 1056 1053 1054
f 1054 1053 1052
f 1174 1051 1175
f 1175 1051 1053
f 1175 1053 1176
f 1176 1053 1173
f 1176 1173 1177
f 1177 1173 1172
f 1177 1172 1178
f 1178 1172 1171
f 1178 1171 1179
f 1179 1171 1170
f 1179 1072 1178
f 1178 1072 1074
f 1178 1074 1177
f 1177 1074 1076
f 1177 1076 1176
f 1176 1076 1078
f 1176 1078 1175
f 1175 1078 1080
f 1175 1080 1174
f 1174 1080 1180
f 1181 1182 1096
f 1096 1182 1183
f 1096 1183 1091
f 1091 1183 1184
f 1091 1184 1086
f 1086 1184 1185
f 1086 1185 1081
f 1081 1185 1186
f 1081 1186 1080
f 1080 1186 1187
f 1080 1187 1180
f 1092 1188 1093
f 1093 1188 1189
f 1093 1189 1094
f 1094 1189 1190
f 1094 1190 1095
f 1095 1190 1191
f 1095 1191 1096
f 1096 1191 1050
f 1096 1050 1181
f 1181 1050 1049
f 1192 1048 1193
f 1193 1048 1050
f 1193 1050 1194
f 1194 1050 1191
f 1194 1191 1195
f 1195 1191 1190
f 1195 1190 1196
f 1196 1190 1189
f 1196 1189 1197
f 1197 1189 1188
f 1197 1097 1196
f 1196 1097 1099
f 1196 1099 1195
f 1195 1099 1101
f 1195 1101 1194
f 1194 1101 1103
f 1194 1103 1193
f 1193 1103 1105
f 1193 1105 1192
f 1192 1105 1198
f 1047 1046 1105
f 1105 1046 1199
f 1105 1199 1198
f 1043 1045 1044
f 1044 1045 1047
f 1044 1047 1200
f 1200 1047 1104
f 1200 1104 1201
f 1201 1104 1102
f 1201 1102 1202
f 1202 1102 1100
f 1202 1100 1203
f 1203 1100 1098
f 1204 1042 1205
f 1205 1042 1044
f 1205 1044 1206
f 1206 1044 1200
f 1206 1200 1207
f 1207 1200 1201
f 1207 1201 1208
f 1208 1201 1202
f 1208 1202 1209
f 1209 1202 1203
f 1209 1106 1208
f 1208 1106 1108
f 1208 1108 1207
f 1207 1108 1110
f 1207 1110 1206
f 1206 1110 1112
f 1206 1112 1205
f 1205 1112 1114
f 1205 1114 1204
f 1204 1114 1210
f 1211 1212 1130
f 1130 1212 1213
f 1130 1213 1125
f 1125 1213 1214
f 1125 1214 1120
f 1120 1214 1215
f 1120 1215 1115
f 1115 1215 1216
f 1115 1216 1114
f 1114 1216 1217
f 1114 1217 1210
f 1126 1218 1127
f 1127 1218 1219
f 1127 1219 1128
f 1128 1219 1220
f 1128 1220 1129
f 1129 1220 1221
f 1129 1221 1130
f 1130 1221 1041
f 1130 1041 1211
f 1211 1041 1040
f 1222 1039 1223
f 1223 1039 1041
f 1223 1041 1224
f 1224 1041 1221
f 1224 1221 1225
f 1225 1221 1220
f 1225 1220 1226
f 1226 1220 1219
f 1226 1219 1227
f 1227 1219 1218
f 1227 1131 1226
f 1226 1131 1133
f 1226 1133 1225
f 1225 1133 1135
f 1225 1135 1224
f 1224 1135 1137
f 1224 1137 1223
f 1223 1137 1139
f 1223 1139 1222
f 1222 1139 1228
f 1038 1037 1139
f 1139 1037 1229
f 1139 1229 1228
f 1034 1036 1035
f 1035 1036 1038
f 1035 1038 1230
f 1230 1038 1138
f 1230 1138 1231
f 1231 1138 1136
f 1231 1136 1232
f 1232 1136 1134
f 1232 1134 1233
f 1233 1134 1132
f 1234 1033 1235
f 1235 1033 1035
f 1235 1035 1236
f 1236 1035 1230
f 1236 1230 1237
f 1237 1230 1231
f 1237 1231 1238
f 1238 1231 1232
f 1238 1232 1239
f 1239 1232 1233
f 1239 1140 1238
f 1238 1140 1142
f 1238 1142 1237
f 1237 1142 1144
f 1237 1144 1236
f 1236 1144 1146
f 1236 1146 1235
f 1235 1146 1148
f 1235 1148 1234
f 1234 1148 1240
f 1032 1031 1148
f 1148 1031 1241
f 1148 1241 1240
f 1242 1030 1243
f 1243 1030 1032
f 1243 1032 1244
f 1244 1032 1147
f 1244 1147 1245
f 1245 1147 1145
f 1245 1145 1246
f 1246 1145 1143
f 1246 1143 1247
f 1247 1143 1141
f 1247 1248 1246
f 1246 1248 1249
f 1246 1249 1245
f 1245 1249 1250
f 1245 1250 1244
f 1244 1250 1251
f 1244 1251 1243
f 1243 1251 1252
f 1243 1252 1242
f 1242 1252 1028
f 1253 1254 1255
f 1255 1254 1256
f 1257 1258 1259
f 1259 1258 1260
f 1259 1260 1261
f 1262 1263 1264
f 1259 1265 1257
f 1257 1265 1263
f 1257 1263 1266
f 1266 1263 1262
f 1266 1262 1260
f 1260 1262 1267
f 1260 1267 1261
f 1261 1267 1268
f 1261 1268 1269
f 1269 1268 1270
f 1271 1272 1264
f 1264 1272 1273
f 1264 1273 1262
f 1262 1273 1274
f 1262 1274 1270
f 1275 1276 1274
f 1274 1276 1277
f 1277 1278 1274
f 1274 1278 1279
f 1274 1279 1270
f 1270 1279 1280
f 1270 1280 1269
f 1275 1272 1276
f 1276 1272 1271
f 1276 1271 1265
f 1265 1271 1281
f 1265 1281 1263
