v 0.115243731 0.117497618 0.12899988
v 0.115505873 0.117839391 0.12899988
v 0.113672672 0.118404682 0.12899988
v 0.118101536 0.117497618 0.12899988
v 0.118266402 0.117099698 0.12899988
v 0.119672595 0.118404682 0.12899988
v 0.118322669 0.116672571 0.12899988
v 0.119672595 0.114940579 0.12899988
v 0.118266402 0.116245563 0.12899988
v 0.116672574 0.120136673 0.12899988
v 0.118101536 0.115847642 0.12899988
v 0.117839394 0.115505869 0.12899988
v 0.116672574 0.113208468 0.12899988
v 0.115847646 0.118101532 0.12899988
v 0.116245566 0.118266399 0.12899988
v 0.116672574 0.118322666 0.12899988
v 0.117497621 0.115243728 0.12899988
v 0.117099701 0.115078862 0.12899988
v 0.116672574 0.115022595 0.12899988
v 0.117099701 0.118266399 0.12899988
v 0.117497621 0.118101532 0.12899988
v 0.117839394 0.117839391 0.12899988
v 0.116245566 0.115078862 0.12899988
v 0.115847646 0.115243728 0.12899988
v 0.113672672 0.114940579 0.12899988
v 0.115505873 0.115505869 0.12899988
v 0.115243731 0.115847642 0.12899988
v 0.115078865 0.116245563 0.12899988
v 0.115022598 0.116672571 0.12899988
v 0.115078865 0.117099698 0.12899988
v 0.113672672 0.114940579 0.0389999662
v 0.115022598 0.116672571 0.0389999662
v 0.115078865 0.116245563 0.0389999662
v 0.115243731 0.115847642 0.0389999662
v 0.115505873 0.115505869 0.0389999662
v 0.116672574 0.113208468 0.0389999662
v 0.115847646 0.115243728 0.0389999662
v 0.116245566 0.115078862 0.0389999662
v 0.116672574 0.115022595 0.0389999662
v 0.117839394 0.115505869 0.0389999662
v 0.119672595 0.114940579 0.0389999662
v 0.117497621 0.115243728 0.0389999662
v 0.117099701 0.115078862 0.0389999662
v 0.118266402 0.117099698 0.0389999662
v 0.118101536 0.117497618 0.0389999662
v 0.119672595 0.118404682 0.0389999662
v 0.117839394 0.117839391 0.0389999662
v 0.116672574 0.120136673 0.0389999662
v 0.115078865 0.117099698 0.0389999662
v 0.113672672 0.118404682 0.0389999662
v 0.115243731 0.117497618 0.0389999662
v 0.118101536 0.115847642 0.0389999662
v 0.118266402 0.116245563 0.0389999662
v 0.118322669 0.116672571 0.0389999662
v 0.117497621 0.118101532 0.0389999662
v 0.117099701 0.118266399 0.0389999662
v 0.116672574 0.118322666 0.0389999662
v 0.116245566 0.118266399 0.0389999662
v 0.115847646 0.118101532 0.0389999662
v 0.115505873 0.117839391 0.0389999662
v 0.118266402 -0.116245573 0.12899988
v 0.118322669 -0.11667264 0.12899988
v 0.120136677 -0.11667264 0.12899988
v 0.117839394 -0.117839341 0.12899988
v 0.118404685 -0.119672601 0.12899988
v 0.118101536 -0.117497628 0.12899988
v 0.118266402 -0.117099647 0.12899988
v 0.116245566 -0.118266408 0.12899988
v 0.115847646 -0.118101542 0.12899988
v 0.114940582 -0.119672601 0.12899988
v 0.115505873 -0.117839341 0.12899988
v 0.113208471 -0.11667264 0.12899988
v 0.117099701 -0.115078812 0.12899988
v 0.117497621 -0.115243678 0.12899988
v 0.118404685 -0.113672619 0.12899988
v 0.117839394 -0.115505879 0.12899988
v 0.118101536 -0.115847592 0.12899988
v 0.117497621 -0.118101542 0.12899988
v 0.117099701 -0.118266408 0.12899988
v 0.116672574 -0.118322616 0.12899988
v 0.115243731 -0.117497628 0.12899988
v 0.115078865 -0.117099647 0.12899988
v 0.115022598 -0.11667264 0.12899988
v 0.115505873 -0.115505879 0.12899988
v 0.114940582 -0.113672619 0.12899988
v 0.115243731 -0.115847592 0.12899988
v 0.115078865 -0.116245573 0.12899988
v 0.115847646 -0.115243678 0.12899988
v 0.116245566 -0.115078812 0.12899988
v 0.116672574 -0.115022604 0.12899988
v 0.115078865 -0.116245573 0.0389999662
v 0.115022598 -0.11667264 0.0389999662
v 0.113208471 -0.11667264 0.0389999662
v 0.115505873 -0.117839341 0.0389999662
v 0.114940582 -0.119672601 0.0389999662
v 0.115243731 -0.117497628 0.0389999662
v 0.115078865 -0.117099647 0.0389999662
v 0.117099701 -0.118266408 0.0389999662
v 0.117497621 -0.118101542 0.0389999662
v 0.118404685 -0.119672601 0.0389999662
v 0.117839394 -0.117839341 0.0389999662
v 0.120136677 -0.11667264 0.0389999662
v 0.116245566 -0.115078812 0.0389999662
v 0.115847646 -0.115243678 0.0389999662
v 0.114940582 -0.113672619 0.0389999662
v 0.115505873 -0.115505879 0.0389999662
v 0.115243731 -0.115847592 0.0389999662
v 0.115847646 -0.118101542 0.0389999662
v 0.116245566 -0.118266408 0.0389999662
v 0.116672574 -0.118322616 0.0389999662
v 0.118101536 -0.117497628 0.0389999662
v 0.118266402 -0.117099647 0.0389999662
v 0.118322669 -0.11667264 0.0389999662
v 0.117839394 -0.115505879 0.0389999662
v 0.118404685 -0.113672619 0.0389999662
v 0.118101536 -0.115847592 0.0389999662
v 0.118266402 -0.116245573 0.0389999662
v 0.117497621 -0.115243678 0.0389999662
v 0.117099701 -0.115078812 0.0389999662
v 0.116672574 -0.115022604 0.0389999662
v -0.207189502 -0.103392367 0.12899988
v -0.207460465 -0.103727167 0.12899988
v -0.206211509 -0.10504288 0.12899988
v -0.207808913 -0.103980427 0.12899988
v -0.209579767 -0.105852072 0.12899988
v -0.208211006 -0.104134803 0.12899988
v -0.208639444 -0.104179924 0.12899988
v -0.208553614 -0.100881045 0.12899988
v -0.208128156 -0.100948338 0.12899988
v -0.207613172 -0.0992088961 0.12899988
v -0.207734646 -0.101123457 0.12899988
v -0.205228271 -0.101721232 0.12899988
v -0.207399787 -0.101394479 0.12899988
v -0.207146587 -0.101742928 0.12899988
v -0.20699221 -0.102145021 0.12899988
v -0.20694703 -0.1025734 0.12899988
v -0.207014383 -0.102998857 0.12899988
v -0.210003556 -0.101668601 0.12899988
v -0.209732474 -0.101333802 0.12899988
v -0.21098143 -0.100018089 0.12899988
v -0.209384026 -0.101080542 0.12899988
v -0.208981933 -0.100926166 0.12899988
v -0.209064902 -0.10411263 0.12899988
v -0.209458412 -0.103937511 0.12899988
v -0.211964788 -0.103339736 0.12899988
v -0.209793152 -0.103666489 0.12899988
v -0.210046472 -0.10331804 0.12899988
v -0.210200848 -0.102915947 0.12899988
v -0.210245909 -0.102487569 0.12899988
v -0.210178675 -0.102062111 0.12899988
v -0.207613172 -0.0992088961 0.0389999662
v -0.205228271 -0.101721232 0.0389999662
v -0.21098143 -0.100018089 0.0389999662
v -0.211964788 -0.103339736 0.0389999662
v -0.209579767 -0.105852072 0.0389999662
v -0.206211509 -0.10504288 0.0389999662
v -0.208981933 -0.100926166 0.0389999662
v -0.208553614 -0.100881045 0.0389999662
v -0.208128156 -0.100948338 0.0389999662
v -0.207734646 -0.101123457 0.0389999662
v -0.207399787 -0.101394479 0.0389999662
v -0.207146587 -0.101742928 0.0389999662
v -0.20699221 -0.102145021 0.0389999662
v -0.20694703 -0.1025734 0.0389999662
v -0.207014383 -0.102998857 0.0389999662
v -0.207189502 -0.103392367 0.0389999662
v -0.207460465 -0.103727167 0.0389999662
v -0.207808913 -0.103980427 0.0389999662
v -0.208211006 -0.104134803 0.0389999662
v -0.208639444 -0.104179924 0.0389999662
v -0.209064902 -0.10411263 0.0389999662
v -0.209458412 -0.103937511 0.0389999662
v -0.209793152 -0.103666489 0.0389999662
v -0.210046472 -0.10331804 0.0389999662
v -0.210200848 -0.102915947 0.0389999662
v -0.210245909 -0.102487569 0.0389999662
v -0.210178675 -0.102062111 0.0389999662
v -0.210003556 -0.101668601 0.0389999662
v -0.209732474 -0.101333802 0.0389999662
v -0.209384026 -0.101080542 0.0389999662
v -0.101101579 -0.20942152 0.12899988
v -0.10136372 -0.209763234 0.12899988
v -0.0995305196 -0.210328524 0.12899988
v -0.102103414 -0.210190301 0.12899988
v -0.102530541 -0.210246508 0.12899988
v -0.102530541 -0.212060575 0.12899988
v -0.101705493 -0.210025434 0.12899988
v -0.102957548 -0.210190301 0.12899988
v -0.103355469 -0.210025434 0.12899988
v -0.105530442 -0.210328524 0.12899988
v -0.103697242 -0.209763234 0.12899988
v -0.103959383 -0.20942152 0.12899988
v -0.102957548 -0.207002704 0.12899988
v -0.102530541 -0.206946497 0.12899988
v -0.102530541 -0.20513237 0.12899988
v -0.101101579 -0.207771485 0.12899988
v -0.100936712 -0.208169465 0.12899988
v -0.0995305196 -0.206864421 0.12899988
v -0.100880446 -0.208596473 0.12899988
v -0.100936712 -0.20902354 0.12899988
v -0.10412425 -0.208169465 0.12899988
v -0.105530442 -0.206864421 0.12899988
v -0.104180516 -0.208596473 0.12899988
v -0.10412425 -0.20902354 0.12899988
v -0.103959383 -0.207771485 0.12899988
v -0.103697242 -0.207429771 0.12899988
v -0.103355469 -0.207167571 0.12899988
v -0.102103414 -0.207002704 0.12899988
v -0.101705493 -0.207167571 0.12899988
v -0.10136372 -0.207429771 0.12899988
v -0.101101579 -0.207771485 0.0389999662
v -0.10136372 -0.207429771 0.0389999662
v -0.0995305196 -0.206864421 0.0389999662
v -0.102103414 -0.207002704 0.0389999662
v -0.102530541 -0.206946497 0.0389999662
v -0.102530541 -0.20513237 0.0389999662
v -0.103959383 -0.207771485 0.0389999662
v -0.10412425 -0.208169465 0.0389999662
v -0.105530442 -0.206864421 0.0389999662
v -0.104180516 -0.208596473 0.0389999662
v -0.105530442 -0.210328524 0.0389999662
v -0.10412425 -0.20902354 0.0389999662
v -0.102957548 -0.210190301 0.0389999662
v -0.102530541 -0.210246508 0.0389999662
v -0.102530541 -0.212060575 0.0389999662
v -0.101705493 -0.207167571 0.0389999662
v -0.102957548 -0.207002704 0.0389999662
v -0.103355469 -0.207167571 0.0389999662
v -0.103697242 -0.207429771 0.0389999662
v -0.103959383 -0.20942152 0.0389999662
v -0.103697242 -0.209763234 0.0389999662
v -0.103355469 -0.210025434 0.0389999662
v -0.102103414 -0.210190301 0.0389999662
v -0.101705493 -0.210025434 0.0389999662
v -0.0995305196 -0.210328524 0.0389999662
v -0.10136372 -0.209763234 0.0389999662
v -0.101101579 -0.20942152 0.0389999662
v -0.100936712 -0.20902354 0.0389999662
v -0.100880446 -0.208596473 0.0389999662
v -0.100936712 -0.208169465 0.0389999662
v -0.20976323 0.103697236 0.12899988
v -0.209421457 0.103959377 0.12899988
v -0.210328521 0.105530436 0.12899988
v -0.207429828 0.101363714 0.12899988
v -0.207771482 0.101101573 0.12899988
v -0.206864418 0.0995305133 0.12899988
v -0.208169402 0.100936706 0.12899988
v -0.208596529 0.100880439 0.12899988
v -0.210328521 0.0995305133 0.12899988
v -0.209023537 0.100936706 0.12899988
v -0.209421457 0.101101573 0.12899988
v -0.20976323 0.101363714 0.12899988
v -0.210025491 0.101705487 0.12899988
v -0.212060632 0.102530534 0.12899988
v -0.210190238 0.102103407 0.12899988
v -0.210246505 0.102530534 0.12899988
v -0.210190238 0.102957542 0.12899988
v -0.210025491 0.103355463 0.12899988
v -0.209023537 0.104124243 0.12899988
v -0.208596529 0.10418051 0.12899988
v -0.206864418 0.105530436 0.12899988
v -0.208169402 0.104124243 0.12899988
v -0.207771482 0.103959377 0.12899988
v -0.207429828 0.103697236 0.12899988
v -0.207167567 0.103355463 0.12899988
v -0.205132426 0.102530534 0.12899988
v -0.207002701 0.102957542 0.12899988
v -0.206946553 0.102530534 0.12899988
v -0.207002701 0.102103407 0.12899988
v -0.207167567 0.101705487 0.12899988
v -0.208169402 0.100936706 0.0389999662
v -0.207771482 0.101101573 0.0389999662
v -0.206864418 0.0995305133 0.0389999662
v -0.209023537 0.104124243 0.0389999662
v -0.209421457 0.103959377 0.0389999662
v -0.210328521 0.105530436 0.0389999662
v -0.207429828 0.101363714 0.0389999662
v -0.207167567 0.101705487 0.0389999662
v -0.205132426 0.102530534 0.0389999662
v -0.207002701 0.102103407 0.0389999662
v -0.207429828 0.103697236 0.0389999662
v -0.207771482 0.103959377 0.0389999662
v -0.206864418 0.105530436 0.0389999662
v -0.208169402 0.104124243 0.0389999662
v -0.208596529 0.10418051 0.0389999662
v -0.20976323 0.103697236 0.0389999662
v -0.210025491 0.103355463 0.0389999662
v -0.212060632 0.102530534 0.0389999662
v -0.210190238 0.102957542 0.0389999662
v -0.206946553 0.102530534 0.0389999662
v -0.207002701 0.102957542 0.0389999662
v -0.207167567 0.103355463 0.0389999662
v -0.210246505 0.102530534 0.0389999662
v -0.210190238 0.102103407 0.0389999662
v -0.210328521 0.0995305133 0.0389999662
v -0.210025491 0.101705487 0.0389999662
v -0.20976323 0.101363714 0.0389999662
v -0.209421457 0.101101573 0.0389999662
v -0.209023537 0.100936706 0.0389999662
v -0.208596529 0.100880439 0.0389999662
v 0.103697239 0.209763224 0.12899988
v 0.10395938 0.209421451 0.12899988
v 0.105530439 0.210328515 0.12899988
v 0.101363717 0.207429822 0.12899988
v 0.101101576 0.207771475 0.12899988
v 0.0995305165 0.206864412 0.12899988
v 0.104124246 0.209023531 0.12899988
v 0.104180513 0.208596523 0.12899988
v 0.105530439 0.206864412 0.12899988
v 0.104124246 0.208169396 0.12899988
v 0.10395938 0.207771475 0.12899988
v 0.101101576 0.209421451 0.12899988
v 0.101363717 0.209763224 0.12899988
v 0.0995305165 0.210328515 0.12899988
v 0.10170549 0.210025485 0.12899988
v 0.102530537 0.212060626 0.12899988
v 0.102103411 0.210190232 0.12899988
v 0.102530537 0.210246499 0.12899988
v 0.102957545 0.210190232 0.12899988
v 0.103355466 0.210025485 0.12899988
v 0.103697239 0.207429822 0.12899988
v 0.103355466 0.207167561 0.12899988
v 0.102530537 0.20513242 0.12899988
v 0.102957545 0.207002695 0.12899988
v 0.102530537 0.206946547 0.12899988
v 0.102103411 0.207002695 0.12899988
v 0.10170549 0.207167561 0.12899988
v 0.100936709 0.208169396 0.12899988
v 0.100880443 0.208596523 0.12899988
v 0.100936709 0.209023531 0.12899988
v 0.100936709 0.208169396 0.0389999662
v 0.101101576 0.207771475 0.0389999662
v 0.0995305165 0.206864412 0.0389999662
v 0.104124246 0.209023531 0.0389999662
v 0.10395938 0.209421451 0.0389999662
v 0.105530439 0.210328515 0.0389999662
v 0.101363717 0.207429822 0.0389999662
v 0.10170549 0.207167561 0.0389999662
v 0.102530537 0.20513242 0.0389999662
v 0.102103411 0.207002695 0.0389999662
v 0.102530537 0.206946547 0.0389999662
v 0.102957545 0.207002695 0.0389999662
v 0.105530439 0.206864412 0.0389999662
v 0.103355466 0.207167561 0.0389999662
v 0.103697239 0.207429822 0.0389999662
v 0.103697239 0.209763224 0.0389999662
v 0.103355466 0.210025485 0.0389999662
v 0.102530537 0.212060626 0.0389999662
v 0.102957545 0.210190232 0.0389999662
v 0.101363717 0.209763224 0.0389999662
v 0.101101576 0.209421451 0.0389999662
v 0.0995305165 0.210328515 0.0389999662
v 0.100936709 0.209023531 0.0389999662
v 0.100880443 0.208596523 0.0389999662
v 0.10395938 0.207771475 0.0389999662
v 0.104124246 0.208169396 0.0389999662
v 0.104180513 0.208596523 0.0389999662
v 0.102530537 0.210246499 0.0389999662
v 0.102103411 0.210190232 0.0389999662
v 0.10170549 0.210025485 0.0389999662
v 0.209763227 -0.103697185 0.12899988
v 0.209421454 -0.103959446 0.12899988
v 0.210328518 -0.105530505 0.12899988
v 0.209023534 -0.104124253 0.12899988
v 0.206864415 -0.105530505 0.12899988
v 0.208596526 -0.10418046 0.12899988
v 0.208169399 -0.104124253 0.12899988
v 0.210190235 -0.102103417 0.12899988
v 0.210246502 -0.102530484 0.12899988
v 0.212060629 -0.102530484 0.12899988
v 0.210190235 -0.102957551 0.12899988
v 0.210025488 -0.103355472 0.12899988
v 0.207771479 -0.103959446 0.12899988
v 0.207429825 -0.103697185 0.12899988
v 0.205132423 -0.102530484 0.12899988
v 0.207167564 -0.103355472 0.12899988
v 0.207002698 -0.102957551 0.12899988
v 0.20694655 -0.102530484 0.12899988
v 0.207002698 -0.102103417 0.12899988
v 0.206864415 -0.0995304632 0.12899988
v 0.207167564 -0.101705496 0.12899988
v 0.207429825 -0.101363783 0.12899988
v 0.207771479 -0.101101522 0.12899988
v 0.208169399 -0.100936716 0.12899988
v 0.210328518 -0.0995304632 0.12899988
v 0.208596526 -0.100880508 0.12899988
v 0.209023534 -0.100936716 0.12899988
v 0.209421454 -0.101101522 0.12899988
v 0.209763227 -0.101363783 0.12899988
v 0.210025488 -0.101705496 0.12899988
v 0.207771479 -0.101101522 0.0389999662
v 0.207429825 -0.101363783 0.0389999662
v 0.206864415 -0.0995304632 0.0389999662
v 0.207167564 -0.101705496 0.0389999662
v 0.205132423 -0.102530484 0.0389999662
v 0.207002698 -0.102103417 0.0389999662
v 0.20694655 -0.102530484 0.0389999662
v 0.209421454 -0.101101522 0.0389999662
v 0.209023534 -0.100936716 0.0389999662
v 0.210328518 -0.0995304632 0.0389999662
v 0.208596526 -0.100880508 0.0389999662
v 0.208169399 -0.100936716 0.0389999662
v 0.207771479 -0.103959446 0.0389999662
v 0.208169399 -0.104124253 0.0389999662
v 0.206864415 -0.105530505 0.0389999662
v 0.208596526 -0.10418046 0.0389999662
v 0.210328518 -0.105530505 0.0389999662
v 0.209023534 -0.104124253 0.0389999662
v 0.209421454 -0.103959446 0.0389999662
v 0.209763227 -0.103697185 0.0389999662
v 0.210025488 -0.103355472 0.0389999662
v 0.212060629 -0.102530484 0.0389999662
v 0.210190235 -0.102957551 0.0389999662
v 0.210246502 -0.102530484 0.0389999662
v 0.210190235 -0.102103417 0.0389999662
v 0.210025488 -0.101705496 0.0389999662
v 0.209763227 -0.101363783 0.0389999662
v 0.207002698 -0.102957551 0.0389999662
v 0.207167564 -0.103355472 0.0389999662
v 0.207429825 -0.103697185 0.0389999662
v 0.0084906205 -0.206795042 0.0714762722
v 0.0084906205 -0.206804996 0.0714762722
v 0.00850683297 -0.206795042 0.071435145
v 0.00854760254 -0.206804996 0.0713313137
v 0.00854760254 -0.206795042 0.0713313137
v -0.0141239778 -0.178461914 0.130303434
v -0.0141239778 -0.178461914 0.118112734
v -0.0141239778 -0.178500001 0.130303434
v -0.0141239778 -0.178500001 0.118112734
v -0.0140476838 -0.178461914 0.130303434
v -0.0140476838 -0.178500001 0.130303434
v 0.00239068116 -0.178461914 0.117731741
v 0.00239068116 -0.178461914 0.118112734
v 0.00239068116 -0.178500001 0.117731741
v 0.00239068116 -0.178500001 0.118112734
v -0.0217205897 -0.173426812 0.113651804
v -0.0217302457 -0.173426812 0.113654188
v -0.0217242852 -0.173469012 0.113636664
v -0.0217339412 -0.173469012 0.113639048
v -0.0217278615 -0.173511152 0.113621644
v -0.0217376367 -0.173511152 0.113623909
v -0.0217160598 -0.173386698 0.113669804
v -0.021725835 -0.173386698 0.113672188
v -0.0217066423 -0.173488681 0.11370664
v -0.0217162982 -0.173488681 0.113709143
v -0.0216968671 -0.173590665 0.113743356
v -0.0217065231 -0.173590665 0.113745979
v -0.0218327657 -0.173498039 0.11286693
v -0.0218427793 -0.173498039 0.112867406
v -0.021831812 -0.173495178 0.112888506
v -0.0218418256 -0.173495178 0.112888983
v -0.0218307391 -0.173492317 0.112910083
v -0.0218407527 -0.173492317 0.11291056
v -0.0163987294 -0.168912833 0.112269572
v -0.0170987264 -0.168912833 0.112269572
v -0.0163987294 -0.168913846 0.112269572
v -0.0170987264 -0.168913846 0.112269572
v -0.0170987264 -0.168912833 0.111699632
v -0.0168157235 -0.168912833 0.111994079
v -0.0170987264 -0.168913846 0.111699632
v -0.0168157235 -0.168913846 0.111994079
v -0.017314972 -0.174989169 0.108734301
v -0.0170794145 -0.174989169 0.108768157
v -0.0170803682 -0.175031428 0.108772567
v -0.0163065807 -0.174989169 0.109002164
v -0.0160035506 -0.174989169 0.109140447
v -0.0160055772 -0.175031428 0.1091445
v -0.0158386842 -0.174989169 0.109235695
v -0.015673937 -0.174989169 0.109330824
v -0.0156763211 -0.175031428 0.109334639
v -0.0150105373 -0.174989169 0.10986977
v -0.0148134843 -0.174989169 0.110076359
v -0.0148168222 -0.175031428 0.11007934
v -0.0138726846 -0.174989169 0.112173966
v -0.0138409749 -0.174989169 0.112505487
v -0.0138455049 -0.175031428 0.112505725
v -0.0138409749 -0.174989169 0.112695864
v -0.0138409749 -0.174989169 0.112886122
v -0.0138455049 -0.175031428 0.112886003
v -0.013976039 -0.174989169 0.113730124
v -0.0140565053 -0.174989169 0.114004067
v -0.0140606776 -0.175031428 0.114002636
v -0.0154026166 -0.174989169 0.115867666
v -0.015673937 -0.174989169 0.116060904
v -0.0156763211 -0.175031428 0.116057089
v -0.0158386842 -0.174989169 0.116156033
v -0.0160035506 -0.174989169 0.116251162
v -0.0160055772 -0.175031428 0.116247109
v -0.0168020145 -0.174989169 0.116556219
v -0.0170794145 -0.174989169 0.116623572
v -0.0170803682 -0.175031428 0.116619161
v -0.017314972 -0.174989169 0.116657427
v -0.017456235 -0.174989169 0.116677693
v -0.0174567119 -0.175031428 0.116673282
v -0.0163880006 -0.175163989 0.116313866
v -0.0160506383 -0.175163989 0.116159729
v -0.016375126 -0.175139551 0.116346053
v -0.0160347835 -0.175139551 0.116190604
v -0.0163643972 -0.175108318 0.116372756
v -0.0160215512 -0.175108318 0.116216234
v -0.0163564101 -0.175071721 0.116392783
v -0.0160117761 -0.175071721 0.116235307
v -0.0163515226 -0.175031428 0.116405061
v -0.0151471511 -0.175163989 0.115516356
v -0.0148912088 -0.175163989 0.115247897
v -0.01512319 -0.175139551 0.115541509
v -0.0148649827 -0.175139551 0.115270666
v -0.0151032821 -0.175108318 0.115562252
v -0.0148431674 -0.175108318 0.115289501
v -0.0150885001 -0.175071721 0.115577868
v -0.014826955 -0.175071721 0.115303567
v -0.015079321 -0.175031428 0.115587524
v -0.0148168222 -0.175031428 0.11531227
v -0.0146619693 -0.175163989 0.11495643
v -0.0146337167 -0.175139551 0.114976576
v -0.0146102325 -0.175108318 0.114993266
v -0.0145927087 -0.175071721 0.115005663
v -0.0145818607 -0.175031428 0.115013412
v -0.0144614593 -0.175163989 0.114644459
v -0.0144314185 -0.175139551 0.114661745
v -0.0144065038 -0.175108318 0.114676169
v -0.0143877879 -0.175071721 0.114686898
v -0.0143762246 -0.175031428 0.114693574
v -0.0142914668 -0.175163989 0.114314726
v -0.0142598764 -0.175139551 0.114329151
v -0.0142337695 -0.175108318 0.114341191
v -0.0142142192 -0.175071721 0.114350132
v -0.0142020599 -0.175031428 0.114355615
v -0.0139790193 -0.175163989 0.113250426
v -0.0139437333 -0.175163989 0.112881235
v -0.013944687 -0.175139551 0.113255433
v -0.0139090434 -0.175139551 0.112882904
v -0.013916196 -0.175108318 0.113259486
v -0.013880314 -0.175108318 0.112884334
v -0.0138948575 -0.175071721 0.113262585
v -0.0138588563 -0.175071721 0.112885288
v -0.0138816253 -0.175031428 0.113264493
v -0.0140492335 -0.175163989 0.111776999
v -0.0141536609 -0.175163989 0.111421159
v -0.0140154973 -0.175139551 0.111768893
v -0.0141208783 -0.175139551 0.111409834
v -0.0139874831 -0.175108318 0.111762098
v -0.0140936986 -0.175108318 0.111400417
v -0.0139665023 -0.175071721 0.111756972
v -0.0140733138 -0.175071721 0.111393384
v -0.0139536277 -0.175031428 0.111753872
v -0.0140606776 -0.175031428 0.111389092
v -0.0142914668 -0.175163989 0.111076883
v -0.0142598764 -0.175139551 0.111062459
v -0.0142337695 -0.175108318 0.111050538
v -0.0142142192 -0.175071721 0.111041597
v -0.0142020599 -0.175031428 0.111035994
v -0.0144614593 -0.175163989 0.110747269
v -0.0144314185 -0.175139551 0.110729865
v -0.0144065038 -0.175108318 0.11071556
v -0.0143877879 -0.175071721 0.110704711
v -0.0143762246 -0.175031428 0.110698036
v -0.0146619693 -0.175163989 0.110435299
v -0.0146337167 -0.175139551 0.110415152
v -0.0146102325 -0.175108318 0.110398463
v -0.0145927087 -0.175071721 0.110385946
v -0.0145818607 -0.175031428 0.110378197
v -0.0154274121 -0.175163989 0.109632424
v -0.0157294885 -0.175163989 0.10941737
v -0.0154059545 -0.175139551 0.109605125
v -0.0157107726 -0.175139551 0.109388164
v -0.0153881923 -0.175108318 0.109582594
v -0.0156951562 -0.175108318 0.109363965
v -0.0153748408 -0.175071721 0.109565667
v -0.0156835929 -0.175071721 0.109345845
v -0.0153666154 -0.175031428 0.109555176
v -0.0167384759 -0.175163989 0.108956507
v -0.0170989648 -0.175163989 0.108869127
v -0.0167287007 -0.175139551 0.108923248
v -0.0170924083 -0.175139551 0.108835033
v -0.0167205945 -0.175108318 0.108895591
v -0.0170869247 -0.175108318 0.10880678
v -0.0167145148 -0.175071721 0.108874968
v -0.0170828715 -0.175071721 0.10878568
v -0.0167108194 -0.175031428 0.108862213
v -0.0178365127 -0.175163989 0.116592935
v -0.0174660102 -0.175163989 0.116575292
v -0.0178365127 -0.175139551 0.116627744
v -0.0174626723 -0.175139551 0.116609863
v -0.0178365127 -0.175108318 0.116656474
v -0.0174599305 -0.175108318 0.116638592
v -0.0178365127 -0.175071721 0.116678051
v -0.017457904 -0.175071721 0.116659931
v -0.0178365127 -0.175031428 0.116691283
v -0.0178365127 -0.174989169 0.116695813
v -0.0170989648 -0.175163989 0.116522602
v -0.0170924083 -0.175139551 0.116556696
v -0.0170869247 -0.175108318 0.116584948
v -0.0170828715 -0.175071721 0.116606048
v -0.0167095081 -0.174989169 0.116533807
v -0.0167108194 -0.175031428 0.116529516
v -0.0167145148 -0.175071721 0.116516641
v -0.0167205945 -0.175108318 0.116496018
v -0.0167287007 -0.175139551 0.116468481
v -0.0167384759 -0.175163989 0.116435102
v -0.0163498536 -0.174989169 0.116409353
v -0.0163065807 -0.174989169 0.116389564
v -0.0157294885 -0.175163989 0.115974358
v -0.0157107726 -0.175139551 0.116003564
v -0.0156951562 -0.175108318 0.116027764
v -0.0156835929 -0.175071721 0.116045884
v -0.0153638736 -0.174989169 0.115840009
v -0.0153666154 -0.175031428 0.115836552
v -0.0153748408 -0.175071721 0.115826062
v -0.0153881923 -0.175108318 0.115809134
v -0.0154059545 -0.175139551 0.115786484
v -0.0154274121 -0.175163989 0.115759185
v -0.0150761024 -0.174989169 0.115590743
v -0.0141448394 -0.174989169 0.114224962
v -0.0141978875 -0.174989169 0.114357523
v -0.0143724099 -0.174989169 0.114695839
v -0.0145781652 -0.174989169 0.115016035
v -0.01466638 -0.174989169 0.115128211
v -0.0148134843 -0.174989169 0.11531525
v -0.0150105373 -0.174989169 0.115521959
v -0.0141536609 -0.175163989 0.11397045
v -0.0141208783 -0.175139551 0.113981775
v -0.0140936986 -0.175108318 0.113991192
v -0.0140733138 -0.175071721 0.113998226
v -0.013949217 -0.174989169 0.11363881
v -0.0139536277 -0.175031428 0.113637856
v -0.0139665023 -0.175071721 0.113634637
v -0.0139874831 -0.175108318 0.113629631
v -0.0140154973 -0.175139551 0.113622836
v -0.0140492335 -0.175163989 0.11361461
v -0.0138772145 -0.174989169 0.113265089
v -0.0138726846 -0.174989169 0.113217763
v -0.0138588563 -0.175071721 0.112506321
v -0.013880314 -0.175108318 0.112507394
v -0.0139090434 -0.175139551 0.112508706
v -0.0139437333 -0.175163989 0.112510375
v -0.0138772145 -0.174989169 0.112126521
v -0.0138816253 -0.175031428 0.112127236
v -0.0138948575 -0.175071721 0.112129143
v -0.013916196 -0.175108318 0.112132124
v -0.013944687 -0.175139551 0.112136296
v -0.0139790193 -0.175163989 0.112141183
v -0.013949217 -0.174989169 0.1117528
v -0.01466638 -0.174989169 0.110263399
v -0.0145781652 -0.174989169 0.110375575
v -0.0143724099 -0.174989169 0.11069589
v -0.0141978875 -0.174989169 0.111034206
v -0.0141448394 -0.174989169 0.111166647
v -0.0140565053 -0.174989169 0.111387542
v -0.013976039 -0.174989169 0.111661485
v -0.0148912088 -0.175163989 0.110143713
v -0.0148649827 -0.175139551 0.110121063
v -0.0148431674 -0.175108318 0.110102109
v -0.014826955 -0.175071721 0.110088042
v -0.0150761024 -0.174989169 0.109800867
v -0.015079321 -0.175031428 0.109804205
v -0.0150885001 -0.175071721 0.109813741
v -0.0151032821 -0.175108318 0.109829358
v -0.01512319 -0.175139551 0.109850219
v -0.0151471511 -0.175163989 0.109875372
v -0.0153638736 -0.174989169 0.1095516
v -0.0154026166 -0.174989169 0.109524063
v -0.0160117761 -0.175071721 0.109156302
v -0.0160215512 -0.175108318 0.109175495
v -0.0160347835 -0.175139551 0.109201006
v -0.0160506383 -0.175163989 0.109231881
v -0.0163498536 -0.174989169 0.108982376
v -0.0163515226 -0.175031428 0.108986548
v -0.0163564101 -0.175071721 0.108998946
v -0.0163643972 -0.175108318 0.109018854
v -0.016375126 -0.175139551 0.109045557
v -0.0163880006 -0.175163989 0.109077862
v -0.0167095081 -0.174989169 0.108857802
v -0.0168020145 -0.174989169 0.108835391
v -0.017456235 -0.174989169 0.108713916
v -0.0174567119 -0.175031428 0.108718446
v -0.017457904 -0.175071721 0.108731679
v -0.0174599305 -0.175108318 0.108753136
v -0.0174626723 -0.175139551 0.108781746
v -0.0174660102 -0.175163989 0.108816317
v -0.0178365127 -0.175163989 0.108798674
v -0.0178365127 -0.175139551 0.108763984
v -0.0178365127 -0.175108318 0.108735136
v -0.0178365127 -0.175071721 0.108713678
v -0.0178365127 -0.175031428 0.108700327
v -0.0178365127 -0.174989169 0.108695797
v 0.021822153 -0.237967615 0.0738999162
v 0.0219392165 -0.237996464 0.0738999162
v 0.0219392165 -0.237003748 0.0738999162
v 0.0219995364 -0.2380001 0.0738999162
v 0.0219995364 -0.237000053 0.0738999162
v 0.0220597371 -0.237996464 0.0738999162
v 0.0220597371 -0.237003748 0.0738999162
v 0.0221768006 -0.237032597 0.0738999162
v 0.021822153 -0.237032597 0.0738999162
v 0.0217154607 -0.237088566 0.0738999162
v 0.0216252192 -0.237168496 0.0738999162
v 0.0215567931 -0.237267737 0.0738999162
v 0.021513997 -0.23738045 0.0738999162
v 0.0214994534 -0.237500076 0.0738999162
v 0.021513997 -0.237619762 0.0738999162
v 0.0215567931 -0.237732415 0.0738999162
v 0.0216252192 -0.237831657 0.0738999162
v 0.0217154607 -0.237911587 0.0738999162
v 0.0221768006 -0.237967615 0.0738999162
v 0.0222834929 -0.237911587 0.0738999162
v 0.0223737344 -0.237831657 0.0738999162
v 0.0224421605 -0.237732415 0.0738999162
v 0.0224849566 -0.237619762 0.0738999162
v 0.0224995002 -0.237500076 0.0738999162
v 0.0224849566 -0.23738045 0.0738999162
v 0.0224421605 -0.237267737 0.0738999162
v 0.0223737344 -0.237168496 0.0738999162
v 0.0222834929 -0.237088566 0.0738999162
v 0.0233095273 -0.235100095 0.0702864442
v 0.0233095273 -0.235200052 0.0702864442
v 0.0232761487 -0.235100095 0.0702354227
v 0.0232761487 -0.235200052 0.0702354227
v 0.023292838 -0.235100095 0.0700992857
v 0.023292838 -0.235200052 0.0700992857
v 0.0233095273 -0.235100095 0.0700312172
v 0.0233095273 -0.235200052 0.0700312172
v 0.0220853671 -0.239900057 0.0702102695
v 0.0220853671 -0.2398001 0.0702102695
v 0.0222102984 -0.239900057 0.0701890503
v 0.0222102984 -0.2398001 0.0701890503
v 0.022335349 -0.239900057 0.0701890503
v 0.022335349 -0.2398001 0.0701890503
v 0.0224602803 -0.239900057 0.0702102695
v 0.0224602803 -0.2398001 0.0702102695
v 0.0241686686 -0.239900057 0.0708272968
v 0.0241686686 -0.2398001 0.0708272968
v 0.0241269454 -0.239900057 0.0708486353
v 0.0241269454 -0.2398001 0.0708486353
v 0.0231347665 -0.235809033 0.0708998953
v 0.0231747016 -0.235763555 0.0708998953
v 0.0204995259 -0.235700076 0.0708998953
v 0.0218488559 -0.236259167 0.0708998953
v 0.0231369122 -0.236094241 0.0708998953
v 0.0231081828 -0.236040895 0.0708998953
v 0.0215561971 -0.238668864 0.0708998953
v 0.0232244119 -0.239271169 0.0708998953
v 0.0218488559 -0.238740985 0.0708998953
v 0.0221500977 -0.238740985 0.0708998953
v 0.0232244119 -0.235728984 0.0708998953
v 0.0232810363 -0.235707407 0.0708998953
v 0.0233411177 -0.235700076 0.0708998953
v 0.0231747016 -0.239236658 0.0708998953
v 0.0231347665 -0.23919112 0.0708998953
v 0.0231068715 -0.239137356 0.0708998953
v 0.0229350909 -0.238328998 0.0708998953
v 0.0227095469 -0.238528793 0.0708998953
v 0.0231775626 -0.238861029 0.0708998953
v 0.0230926856 -0.239078526 0.0708998953
v 0.0230931624 -0.239017968 0.0708998953
v 0.0224427565 -0.238668864 0.0708998953
v 0.0231081828 -0.238959258 0.0708998953
v 0.0231369122 -0.238905911 0.0708998953
v 0.0221500977 -0.236259167 0.0708998953
v 0.0224427565 -0.236331289 0.0708998953
v 0.0227095469 -0.23647136 0.0708998953
v 0.0232722148 -0.238772874 0.0708998953
v 0.0234960898 -0.238500123 0.0708998953
v 0.0231062754 -0.238080983 0.0708998953
v 0.023662506 -0.238188927 0.0708998953
v 0.0232132062 -0.237799232 0.0708998953
v 0.0237649068 -0.237851267 0.0708998953
v 0.0232494458 -0.237500076 0.0708998953
v 0.0237994775 -0.237500076 0.0708998953
v 0.0232132062 -0.237200921 0.0708998953
v 0.0237649068 -0.237148945 0.0708998953
v 0.0231062754 -0.236919169 0.0708998953
v 0.023662506 -0.236811225 0.0708998953
v 0.0234960898 -0.23650003 0.0708998953
v 0.0229350909 -0.236671154 0.0708998953
v 0.0232722148 -0.236227279 0.0708998953
v 0.0231775626 -0.236139123 0.0708998953
v 0.0204995259 -0.239300077 0.0708998953
v 0.0233411177 -0.239300077 0.0708998953
v 0.0232810363 -0.239292746 0.0708998953
v 0.0210638627 -0.238328998 0.0708998953
v 0.0202396497 -0.239150052 0.0708998953
v 0.0202873334 -0.23921222 0.0708998953
v 0.0208926781 -0.238080983 0.0708998953
v 0.0201994761 -0.239000087 0.0708998953
v 0.0202097281 -0.239077752 0.0708998953
v 0.0212894067 -0.23647136 0.0708998953
v 0.0215561971 -0.236331289 0.0708998953
v 0.0203494414 -0.239259903 0.0708998953
v 0.0204218015 -0.239289885 0.0708998953
v 0.0212894067 -0.238528793 0.0708998953
v 0.0207857474 -0.237799232 0.0708998953
v 0.0207495078 -0.237500076 0.0708998953
v 0.0201994761 -0.236000066 0.0708998953
v 0.0210638627 -0.236671154 0.0708998953
v 0.0202097281 -0.235922461 0.0708998953
v 0.0208926781 -0.236919169 0.0708998953
v 0.0207857474 -0.237200921 0.0708998953
v 0.0203494414 -0.235740249 0.0708998953
v 0.0202873334 -0.235787933 0.0708998953
v 0.0202396497 -0.2358501 0.0708998953
v 0.0230931624 -0.235982244 0.0708998953
v 0.0230926856 -0.235921686 0.0708998953
v 0.0231068715 -0.235862796 0.0708998953
v 0.0204218015 -0.235710328 0.0708998953
v 0.0193994626 -0.235700076 0.071899942
v 0.0193994626 -0.235700076 0.0712998424
v 0.0193994626 -0.239300077 0.071899942
v 0.0193994626 -0.239300077 0.0712998424
v -0.115243734 -0.117497628 0.12899988
v -0.115505876 -0.117839341 0.12899988
v -0.113672675 -0.118404691 0.12899988
v -0.116245569 -0.118266408 0.12899988
v -0.116672577 -0.118322616 0.12899988
v -0.116672577 -0.120136743 0.12899988
v -0.115847649 -0.118101542 0.12899988
v -0.117099704 -0.118266408 0.12899988
v -0.117497625 -0.118101542 0.12899988
v -0.119672598 -0.118404691 0.12899988
v -0.117839398 -0.117839341 0.12899988
v -0.118101539 -0.117497628 0.12899988
v -0.117099704 -0.115078812 0.12899988
v -0.116672577 -0.115022604 0.12899988
v -0.116672577 -0.113208537 0.12899988
v -0.115243734 -0.115847592 0.12899988
v -0.115078868 -0.116245573 0.12899988
v -0.113672675 -0.114940588 0.12899988
v -0.115022601 -0.11667264 0.12899988
v -0.115078868 -0.117099647 0.12899988
v -0.118266405 -0.116245573 0.12899988
v -0.119672598 -0.114940588 0.12899988
v -0.118322672 -0.11667264 0.12899988
v -0.118266405 -0.117099647 0.12899988
v -0.118101539 -0.115847592 0.12899988
v -0.117839398 -0.115505879 0.12899988
v -0.117497625 -0.115243678 0.12899988
v -0.116245569 -0.115078812 0.12899988
v -0.115847649 -0.115243678 0.12899988
v -0.115505876 -0.115505879 0.12899988
v -0.115243734 -0.115847592 0.0389999662
v -0.115505876 -0.115505879 0.0389999662
v -0.113672675 -0.114940588 0.0389999662
v -0.116245569 -0.115078812 0.0389999662
v -0.116672577 -0.115022604 0.0389999662
v -0.116672577 -0.113208537 0.0389999662
v -0.118101539 -0.115847592 0.0389999662
v -0.118266405 -0.116245573 0.0389999662
v -0.119672598 -0.114940588 0.0389999662
v -0.118322672 -0.11667264 0.0389999662
v -0.119672598 -0.118404691 0.0389999662
v -0.118266405 -0.117099647 0.0389999662
v -0.117099704 -0.118266408 0.0389999662
v -0.116672577 -0.118322616 0.0389999662
v -0.116672577 -0.120136743 0.0389999662
v -0.115847649 -0.115243678 0.0389999662
v -0.117099704 -0.115078812 0.0389999662
v -0.117497625 -0.115243678 0.0389999662
v -0.117839398 -0.115505879 0.0389999662
v -0.118101539 -0.117497628 0.0389999662
v -0.117839398 -0.117839341 0.0389999662
v -0.117497625 -0.118101542 0.0389999662
v -0.116245569 -0.118266408 0.0389999662
v -0.115847649 -0.118101542 0.0389999662
v -0.113672675 -0.118404691 0.0389999662
v -0.115505876 -0.117839341 0.0389999662
v -0.115243734 -0.117497628 0.0389999662
v -0.115078868 -0.117099647 0.0389999662
v -0.115022601 -0.11667264 0.0389999662
v -0.115078868 -0.116245573 0.0389999662
v -0.104112567 0.209064896 0.0389999662
v -0.10417992 0.208639438 0.0389999662
v -0.105852069 0.209579761 0.0389999662
v -0.104134859 0.208211 0.0389999662
v -0.105042876 0.206211503 0.0389999662
v -0.103980364 0.207808907 0.0389999662
v -0.103727163 0.207460458 0.0389999662
v -0.102915944 0.210200841 0.0389999662
v -0.103318037 0.210046465 0.0389999662
v -0.103339733 0.211964781 0.0389999662
v -0.103666486 0.209793146 0.0389999662
v -0.103937449 0.209458406 0.0389999662
v -0.103392424 0.207189496 0.0389999662
v -0.102998795 0.207014377 0.0389999662
v -0.101721229 0.205228264 0.0389999662
v -0.102573456 0.206947024 0.0389999662
v -0.102145018 0.206992204 0.0389999662
v -0.101742925 0.20714658 0.0389999662
v -0.101394476 0.207399781 0.0389999662
v -0.0992088929 0.207613165 0.0389999662
v -0.101123513 0.20773464 0.0389999662
v -0.100948395 0.20812815 0.0389999662
v -0.100881042 0.208553607 0.0389999662
v -0.100926103 0.208981926 0.0389999662
v -0.100018086 0.210981424 0.0389999662
v -0.101080598 0.209384019 0.0389999662
v -0.101333799 0.209732468 0.0389999662
v -0.101668538 0.21000355 0.0389999662
v -0.102062167 0.210178669 0.0389999662
v -0.102487625 0.210245903 0.0389999662
v -0.100018086 0.210981424 0.12899988
v -0.0992088929 0.207613165 0.12899988
v -0.103339733 0.211964781 0.12899988
v -0.105852069 0.209579761 0.12899988
v -0.105042876 0.206211503 0.12899988
v -0.101721229 0.205228264 0.12899988
v -0.100926103 0.208981926 0.12899988
v -0.100881042 0.208553607 0.12899988
v -0.100948395 0.20812815 0.12899988
v -0.101123513 0.20773464 0.12899988
v -0.101394476 0.207399781 0.12899988
v -0.101742925 0.20714658 0.12899988
v -0.102145018 0.206992204 0.12899988
v -0.102573456 0.206947024 0.12899988
v -0.102998795 0.207014377 0.12899988
v -0.103392424 0.207189496 0.12899988
v -0.103727163 0.207460458 0.12899988
v -0.103980364 0.207808907 0.12899988
v -0.104134859 0.208211 0.12899988
v -0.10417992 0.208639438 0.12899988
v -0.104112567 0.209064896 0.12899988
v -0.103937449 0.209458406 0.12899988
v -0.103666486 0.209793146 0.12899988
v -0.103318037 0.210046465 0.12899988
v -0.102915944 0.210200841 0.12899988
v -0.102487625 0.210245903 0.12899988
v -0.102062167 0.210178669 0.12899988
v -0.101668538 0.21000355 0.12899988
v -0.101333799 0.209732468 0.12899988
v -0.101080598 0.209384019 0.12899988
v 0.208639441 0.104179914 0.12899988
v 0.209064899 0.104112561 0.12899988
v 0.209579764 0.105852063 0.12899988
v 0.209458409 0.103937442 0.12899988
v 0.211964785 0.103339727 0.12899988
v 0.209793149 0.10366648 0.12899988
v 0.210046469 0.103318031 0.12899988
v 0.210200845 0.102915938 0.12899988
v 0.210245906 0.102487619 0.12899988
v 0.210981427 0.100018079 0.12899988
v 0.210178672 0.102062161 0.12899988
v 0.210003553 0.101668651 0.12899988
v 0.209732471 0.101333792 0.12899988
v 0.209384023 0.101080592 0.12899988
v 0.207613169 0.0992088867 0.12899988
v 0.20898193 0.100926096 0.12899988
v 0.208553611 0.100881035 0.12899988
v 0.207189499 0.103392417 0.12899988
v 0.207460462 0.103727157 0.12899988
v 0.206211506 0.10504287 0.12899988
v 0.20780891 0.103980358 0.12899988
v 0.208211003 0.104134853 0.12899988
v 0.208128153 0.100948389 0.12899988
v 0.207734643 0.101123507 0.12899988
v 0.205228268 0.101721222 0.12899988
v 0.207399784 0.10139447 0.12899988
v 0.207146583 0.101742919 0.12899988
v 0.206992207 0.102145011 0.12899988
v 0.206947027 0.10257345 0.12899988
v 0.20701438 0.102998788 0.12899988
v 0.206992207 0.102145011 0.0389999662
v 0.207146583 0.101742919 0.0389999662
v 0.205228268 0.101721222 0.0389999662
v 0.207399784 0.10139447 0.0389999662
v 0.207613169 0.0992088867 0.0389999662
v 0.207734643 0.101123507 0.0389999662
v 0.208128153 0.100948389 0.0389999662
v 0.208553611 0.100881035 0.0389999662
v 0.20898193 0.100926096 0.0389999662
v 0.210981427 0.100018079 0.0389999662
v 0.209384023 0.101080592 0.0389999662
v 0.209732471 0.101333792 0.0389999662
v 0.209064899 0.104112561 0.0389999662
v 0.208639441 0.104179914 0.0389999662
v 0.209579764 0.105852063 0.0389999662
v 0.208211003 0.104134853 0.0389999662
v 0.206211506 0.10504287 0.0389999662
v 0.20780891 0.103980358 0.0389999662
v 0.207460462 0.103727157 0.0389999662
v 0.207189499 0.103392417 0.0389999662
v 0.20701438 0.102998788 0.0389999662
v 0.206947027 0.10257345 0.0389999662
v 0.210003553 0.101668651 0.0389999662
v 0.210178672 0.102062161 0.0389999662
v 0.211964785 0.103339727 0.0389999662
v 0.210245906 0.102487619 0.0389999662
v 0.210200845 0.102915938 0.0389999662
v 0.210046469 0.103318031 0.0389999662
v 0.209793149 0.10366648 0.0389999662
v 0.209458409 0.103937442 0.0389999662
v 0.101333795 -0.209732478 0.12899988
v 0.101080595 -0.209384029 0.12899988
v 0.100018083 -0.210981433 0.12899988
v 0.10333973 -0.211964731 0.12899988
v 0.103318034 -0.210046415 0.12899988
v 0.102915941 -0.210200851 0.12899988
v 0.10372716 -0.207460527 0.12899988
v 0.103980361 -0.207808917 0.12899988
v 0.105042873 -0.206211572 0.12899988
v 0.0992088898 -0.207613175 0.12899988
v 0.1009261 -0.208981936 0.12899988
v 0.100881039 -0.208553557 0.12899988
v 0.101721226 -0.205228274 0.12899988
v 0.101742922 -0.20714659 0.12899988
v 0.102145015 -0.206992154 0.12899988
v 0.102487622 -0.210245972 0.12899988
v 0.102062164 -0.210178618 0.12899988
v 0.101668654 -0.2100035 0.12899988
v 0.100948392 -0.208128159 0.12899988
v 0.10112351 -0.20773459 0.12899988
v 0.101394473 -0.20739985 0.12899988
v 0.105852066 -0.209579771 0.12899988
v 0.104134856 -0.208211069 0.12899988
v 0.104179917 -0.208639388 0.12899988
v 0.102573453 -0.206947033 0.12899988
v 0.102998792 -0.207014387 0.12899988
v 0.103392421 -0.207189505 0.12899988
v 0.104112564 -0.209064846 0.12899988
v 0.103937446 -0.209458415 0.12899988
v 0.103666483 -0.209793155 0.12899988
v 0.101721226 -0.205228274 0.0389999662
v 0.102573453 -0.206947033 0.0389999662
v 0.102145015 -0.206992154 0.0389999662
v 0.10333973 -0.211964731 0.0389999662
v 0.102487622 -0.210245972 0.0389999662
v 0.102915941 -0.210200851 0.0389999662
v 0.103980361 -0.207808917 0.0389999662
v 0.105042873 -0.206211572 0.0389999662
v 0.104134856 -0.208211069 0.0389999662
v 0.105852066 -0.209579771 0.0389999662
v 0.104179917 -0.208639388 0.0389999662
v 0.104112564 -0.209064846 0.0389999662
v 0.101080595 -0.209384029 0.0389999662
v 0.100018083 -0.210981433 0.0389999662
v 0.1009261 -0.208981936 0.0389999662
v 0.0992088898 -0.207613175 0.0389999662
v 0.100881039 -0.208553557 0.0389999662
v 0.100948392 -0.208128159 0.0389999662
v 0.103318034 -0.210046415 0.0389999662
v 0.103666483 -0.209793155 0.0389999662
v 0.103937446 -0.209458415 0.0389999662
v 0.10372716 -0.207460527 0.0389999662
v 0.103392421 -0.207189505 0.0389999662
v 0.102998792 -0.207014387 0.0389999662
v 0.101742922 -0.20714659 0.0389999662
v 0.101394473 -0.20739985 0.0389999662
v 0.10112351 -0.20773459 0.0389999662
v 0.101333795 -0.209732478 0.0389999662
v 0.101668654 -0.2100035 0.0389999662
v 0.102062164 -0.210178618 0.0389999662
v -0.115078868 0.117099698 0.12899988
v -0.115022601 0.116672571 0.12899988
v -0.113208474 0.116672571 0.12899988
v -0.117497625 0.115243728 0.12899988
v -0.117839398 0.115505869 0.12899988
v -0.118404688 0.113672669 0.12899988
v -0.115847649 0.118101532 0.12899988
v -0.115505876 0.117839391 0.12899988
v -0.114940585 0.119672592 0.12899988
v -0.12013668 0.116672571 0.12899988
v -0.115078868 0.116245563 0.12899988
v -0.115243734 0.115847642 0.12899988
v -0.114940585 0.113672669 0.12899988
v -0.115505876 0.115505869 0.12899988
v -0.115847649 0.115243728 0.12899988
v -0.118101539 0.115847642 0.12899988
v -0.118266405 0.116245563 0.12899988
v -0.118322672 0.116672571 0.12899988
v -0.116245569 0.115078862 0.12899988
v -0.116672577 0.115022595 0.12899988
v -0.117099704 0.115078862 0.12899988
v -0.118266405 0.117099698 0.12899988
v -0.118101539 0.117497618 0.12899988
v -0.118404688 0.119672592 0.12899988
v -0.117839398 0.117839391 0.12899988
v -0.117497625 0.118101532 0.12899988
v -0.115243734 0.117497618 0.12899988
v -0.117099704 0.118266399 0.12899988
v -0.116672577 0.118322666 0.12899988
v -0.116245569 0.118266399 0.12899988
v -0.118266405 0.117099698 0.0389999662
v -0.118322672 0.116672571 0.0389999662
v -0.12013668 0.116672571 0.0389999662
v -0.117839398 0.115505869 0.0389999662
v -0.118404688 0.113672669 0.0389999662
v -0.118101539 0.115847642 0.0389999662
v -0.118266405 0.116245563 0.0389999662
v -0.116245569 0.115078862 0.0389999662
v -0.115847649 0.115243728 0.0389999662
v -0.114940585 0.113672669 0.0389999662
v -0.115505876 0.115505869 0.0389999662
v -0.113208474 0.116672571 0.0389999662
v -0.115243734 0.115847642 0.0389999662
v -0.115078868 0.116245563 0.0389999662
v -0.115022601 0.116672571 0.0389999662
v -0.117497625 0.115243728 0.0389999662
v -0.117099704 0.115078862 0.0389999662
v -0.116672577 0.115022595 0.0389999662
v -0.115505876 0.117839391 0.0389999662
v -0.114940585 0.119672592 0.0389999662
v -0.115243734 0.117497618 0.0389999662
v -0.115078868 0.117099698 0.0389999662
v -0.117099704 0.118266399 0.0389999662
v -0.117497625 0.118101532 0.0389999662
v -0.118404688 0.119672592 0.0389999662
v -0.117839398 0.117839391 0.0389999662
v -0.118101539 0.117497618 0.0389999662
v -0.115847649 0.118101532 0.0389999662
v -0.116245569 0.118266399 0.0389999662
v -0.116672577 0.118322666 0.0389999662
f 1 2 3
f 4 5 6
f 6 5 7
f 6 7 8
f 8 7 9
f 3 2 10
f 9 11 8
f 8 11 12
f 8 12 13
f 2 14 10
f 10 14 15
f 10 15 16
f 12 17 13
f 13 17 18
f 13 18 19
f 16 20 10
f 10 20 21
f 10 21 6
f 6 21 22
f 6 22 4
f 19 23 13
f 13 23 24
f 13 24 25
f 25 24 26
f 25 26 27
f 27 28 25
f 25 28 29
f 25 29 3
f 3 29 30
f 3 30 1
f 31 32 33
f 33 34 31
f 31 34 35
f 31 35 36
f 35 37 36
f 36 37 38
f 36 38 39
f 40 41 42
f 42 41 36
f 42 36 43
f 43 36 39
f 44 45 46
f 46 45 47
f 46 47 48
f 32 31 49
f 49 31 50
f 49 50 51
f 40 52 41
f 41 52 53
f 41 53 46
f 46 53 54
f 46 54 44
f 47 55 48
f 48 55 56
f 48 56 57
f 57 58 48
f 48 58 59
f 48 59 50
f 50 59 60
f 50 60 51
f 8 13 41
f 41 13 36
f 6 8 46
f 46 8 41
f 10 6 48
f 48 6 46
f 3 10 50
f 50 10 48
f 25 3 31
f 31 3 50
f 13 25 36
f 36 25 31
f 7 54 9
f 9 54 53
f 9 53 11
f 11 53 52
f 11 52 12
f 12 52 40
f 12 40 17
f 17 40 42
f 17 42 18
f 18 42 43
f 18 43 19
f 19 43 39
f 19 39 23
f 23 39 38
f 23 38 24
f 24 38 37
f 24 37 26
f 26 37 35
f 26 35 27
f 27 35 34
f 27 34 28
f 28 34 33
f 28 33 29
f 29 33 32
f 29 32 30
f 30 32 49
f 30 49 1
f 1 49 51
f 1 51 2
f 2 51 60
f 2 60 14
f 14 60 59
f 14 59 15
f 15 59 58
f 15 58 16
f 16 58 57
f 16 57 20
f 20 57 56
f 20 56 21
f 21 56 55
f 21 55 22
f 22 55 47
f 22 47 4
f 4 47 45
f 4 45 5
f 5 45 44
f 5 44 7
f 7 44 54
f 61 62 63
f 64 65 66
f 66 65 63
f 66 63 67
f 67 63 62
f 68 69 70
f 70 69 71
f 70 71 72
f 73 74 75
f 75 74 76
f 75 76 63
f 63 76 77
f 63 77 61
f 64 78 65
f 65 78 79
f 65 79 70
f 70 79 80
f 70 80 68
f 71 81 72
f 72 81 82
f 72 82 83
f 84 85 86
f 86 85 72
f 86 72 87
f 87 72 83
f 84 88 85
f 85 88 89
f 85 89 75
f 75 89 90
f 75 90 73
f 91 92 93
f 94 95 96
f 96 95 93
f 96 93 97
f 97 93 92
f 98 99 100
f 100 99 101
f 100 101 102
f 103 104 105
f 105 104 106
f 105 106 93
f 93 106 107
f 93 107 91
f 94 108 95
f 95 108 109
f 95 109 100
f 100 109 110
f 100 110 98
f 101 111 102
f 102 111 112
f 102 112 113
f 114 115 116
f 116 115 102
f 116 102 117
f 117 102 113
f 114 118 115
f 115 118 119
f 115 119 105
f 105 119 120
f 105 120 103
f 70 72 95
f 95 72 93
f 65 70 100
f 100 70 95
f 63 65 102
f 102 65 100
f 75 63 115
f 115 63 102
f 85 75 105
f 105 75 115
f 72 85 93
f 93 85 105
f 121 122 123
f 123 122 124
f 123 124 125
f 125 124 126
f 125 126 127
f 128 129 130
f 130 129 131
f 130 131 132
f 132 131 133
f 132 133 134
f 134 135 132
f 132 135 136
f 132 136 123
f 123 136 137
f 123 137 121
f 138 139 140
f 140 139 141
f 140 141 130
f 130 141 142
f 130 142 128
f 127 143 125
f 125 143 144
f 125 144 145
f 145 144 146
f 145 146 147
f 147 148 145
f 145 148 149
f 145 149 140
f 140 149 150
f 140 150 138
f 130 132 151
f 151 132 152
f 140 130 153
f 153 130 151
f 145 140 154
f 154 140 153
f 125 145 155
f 155 145 154
f 123 125 156
f 156 125 155
f 132 123 152
f 152 123 156
f 142 157 128
f 128 157 158
f 128 158 129
f 129 158 159
f 129 159 131
f 131 159 160
f 131 160 133
f 133 160 161
f 133 161 134
f 134 161 162
f 134 162 135
f 135 162 163
f 135 163 136
f 136 163 164
f 136 164 137
f 137 164 165
f 137 165 121
f 121 165 166
f 121 166 122
f 122 166 167
f 122 167 124
f 124 167 168
f 124 168 126
f 126 168 169
f 126 169 127
f 127 169 170
f 127 170 143
f 143 170 171
f 143 171 144
f 144 171 172
f 144 172 146
f 146 172 173
f 146 173 147
f 147 173 174
f 147 174 148
f 148 174 175
f 148 175 149
f 149 175 176
f 149 176 150
f 150 176 177
f 150 177 138
f 138 177 178
f 138 178 139
f 139 178 179
f 139 179 141
f 141 179 180
f 141 180 142
f 142 180 157
f 181 182 183
f 184 185 186
f 183 182 186
f 186 182 187
f 186 187 184
f 185 188 186
f 186 188 189
f 186 189 190
f 190 189 191
f 190 191 192
f 193 194 195
f 196 197 198
f 198 197 199
f 198 199 183
f 183 199 200
f 183 200 181
f 201 202 203
f 203 202 190
f 203 190 204
f 204 190 192
f 201 205 202
f 202 205 206
f 202 206 195
f 195 206 207
f 195 207 193
f 194 208 195
f 195 208 209
f 195 209 198
f 198 209 210
f 198 210 196
f 211 212 213
f 214 215 216
f 217 218 219
f 219 218 220
f 219 220 221
f 221 220 222
f 223 224 225
f 213 212 216
f 216 212 226
f 216 226 214
f 215 227 216
f 216 227 228
f 216 228 219
f 219 228 229
f 219 229 217
f 222 230 221
f 221 230 231
f 221 231 225
f 225 231 232
f 225 232 223
f 224 233 225
f 225 233 234
f 225 234 235
f 235 234 236
f 235 236 237
f 237 238 235
f 235 238 239
f 235 239 213
f 213 239 240
f 213 240 211
f 202 195 219
f 219 195 216
f 190 202 221
f 221 202 219
f 186 190 225
f 225 190 221
f 183 186 235
f 235 186 225
f 198 183 213
f 213 183 235
f 195 198 216
f 216 198 213
f 203 220 201
f 201 220 218
f 201 218 205
f 205 218 217
f 205 217 206
f 206 217 229
f 206 229 207
f 207 229 228
f 207 228 193
f 193 228 227
f 193 227 194
f 194 227 215
f 194 215 208
f 208 215 214
f 208 214 209
f 209 214 226
f 209 226 210
f 210 226 212
f 210 212 196
f 196 212 211
f 196 211 197
f 197 211 240
f 197 240 199
f 199 240 239
f 199 239 200
f 200 239 238
f 200 238 181
f 181 238 237
f 181 237 182
f 182 237 236
f 182 236 187
f 187 236 234
f 187 234 184
f 184 234 233
f 184 233 185
f 185 233 224
f 185 224 188
f 188 224 223
f 188 223 189
f 189 223 232
f 189 232 191
f 191 232 231
f 191 231 192
f 192 231 230
f 192 230 204
f 204 230 222
f 204 222 203
f 203 222 220
f 241 242 243
f 244 245 246
f 245 247 246
f 246 247 248
f 246 248 249
f 249 248 250
f 249 250 251
f 251 252 249
f 249 252 253
f 249 253 254
f 254 253 255
f 255 256 254
f 254 256 257
f 254 257 243
f 243 257 258
f 243 258 241
f 242 259 243
f 243 259 260
f 243 260 261
f 261 260 262
f 261 262 263
f 263 264 261
f 261 264 265
f 261 265 266
f 266 265 267
f 267 268 266
f 266 268 269
f 266 269 246
f 246 269 270
f 246 270 244
f 271 272 273
f 274 275 276
f 272 277 273
f 273 277 278
f 273 278 279
f 279 278 280
f 281 282 283
f 283 282 284
f 283 284 276
f 276 284 285
f 276 285 274
f 275 286 276
f 276 286 287
f 276 287 288
f 288 287 289
f 280 290 279
f 279 290 291
f 279 291 283
f 283 291 292
f 283 292 281
f 289 293 288
f 288 293 294
f 288 294 295
f 295 294 296
f 295 296 297
f 297 298 295
f 295 298 299
f 295 299 273
f 273 299 300
f 273 300 271
f 243 261 276
f 276 261 283
f 254 243 288
f 288 243 276
f 249 254 295
f 295 254 288
f 246 249 273
f 273 249 295
f 266 246 279
f 279 246 273
f 260 285 262
f 262 285 284
f 262 284 263
f 263 284 282
f 263 282 264
f 264 282 281
f 264 281 265
f 265 281 292
f 265 292 267
f 267 292 291
f 267 291 268
f 268 291 290
f 268 290 269
f 269 290 280
f 269 280 270
f 270 280 278
f 270 278 244
f 244 278 277
f 244 277 245
f 245 277 272
f 245 272 247
f 247 272 271
f 247 271 248
f 248 271 300
f 248 300 250
f 250 300 299
f 250 299 251
f 251 299 298
f 251 298 252
f 252 298 297
f 252 297 253
f 253 297 296
f 253 296 255
f 255 296 294
f 255 294 256
f 256 294 293
f 256 293 257
f 257 293 289
f 257 289 258
f 258 289 287
f 258 287 241
f 241 287 286
f 241 286 242
f 242 286 275
f 242 275 259
f 259 275 274
f 259 274 260
f 260 274 285
f 301 302 303
f 304 305 306
f 302 307 303
f 303 307 308
f 303 308 309
f 309 308 310
f 309 310 311
f 312 313 314
f 314 313 315
f 314 315 316
f 316 315 317
f 317 318 316
f 316 318 319
f 316 319 303
f 303 319 320
f 303 320 301
f 311 321 309
f 309 321 322
f 309 322 323
f 323 322 324
f 324 325 323
f 323 325 326
f 323 326 306
f 306 326 327
f 306 327 304
f 305 328 306
f 306 328 329
f 306 329 314
f 314 329 330
f 314 330 312
f 331 332 333
f 334 335 336
f 332 337 333
f 333 337 338
f 333 338 339
f 339 338 340
f 340 341 339
f 339 341 342
f 339 342 343
f 343 342 344
f 343 344 345
f 335 346 336
f 336 346 347
f 336 347 348
f 348 347 349
f 350 351 352
f 352 351 353
f 352 353 333
f 333 353 354
f 333 354 331
f 345 355 343
f 343 355 356
f 343 356 336
f 336 356 357
f 336 357 334
f 349 358 348
f 348 358 359
f 348 359 352
f 352 359 360
f 352 360 350
f 309 323 343
f 343 323 339
f 303 309 336
f 336 309 343
f 316 303 348
f 348 303 336
f 314 316 352
f 352 316 348
f 306 314 333
f 333 314 352
f 323 306 339
f 339 306 333
f 308 357 310
f 310 357 356
f 310 356 311
f 311 356 355
f 311 355 321
f 321 355 345
f 321 345 322
f 322 345 344
f 322 344 324
f 324 344 342
f 324 342 325
f 325 342 341
f 325 341 326
f 326 341 340
f 326 340 327
f 327 340 338
f 327 338 304
f 304 338 337
f 304 337 305
f 305 337 332
f 305 332 328
f 328 332 331
f 328 331 329
f 329 331 354
f 329 354 330
f 330 354 353
f 330 353 312
f 312 353 351
f 312 351 313
f 313 351 350
f 313 350 315
f 315 350 360
f 315 360 317
f 317 360 359
f 317 359 318
f 318 359 358
f 318 358 319
f 319 358 349
f 319 349 320
f 320 349 347
f 320 347 301
f 301 347 346
f 301 346 302
f 302 346 335
f 302 335 307
f 307 335 334
f 307 334 308
f 308 334 357
f 361 362 363
f 363 362 364
f 363 364 365
f 365 364 366
f 365 366 367
f 368 369 370
f 370 369 371
f 370 371 363
f 363 371 372
f 363 372 361
f 367 373 365
f 365 373 374
f 365 374 375
f 375 374 376
f 375 376 377
f 377 378 375
f 375 378 379
f 375 379 380
f 380 379 381
f 380 381 382
f 382 383 380
f 380 383 384
f 380 384 385
f 385 384 386
f 385 386 387
f 387 388 385
f 385 388 389
f 385 389 370
f 370 389 390
f 370 390 368
f 391 392 393
f 393 392 394
f 393 394 395
f 395 394 396
f 395 396 397
f 398 399 400
f 400 399 401
f 400 401 393
f 393 401 402
f 393 402 391
f 403 404 405
f 405 404 406
f 405 406 407
f 407 406 408
f 407 408 409
f 409 410 407
f 407 410 411
f 407 411 412
f 412 411 413
f 412 413 414
f 414 415 412
f 412 415 416
f 412 416 400
f 400 416 417
f 400 417 398
f 397 418 395
f 395 418 419
f 395 419 405
f 405 419 420
f 405 420 403
f 365 375 405
f 405 375 395
f 363 365 407
f 407 365 405
f 370 363 412
f 412 363 407
f 385 370 400
f 400 370 412
f 380 385 393
f 393 385 400
f 375 380 395
f 395 380 393
f 366 406 367
f 367 406 404
f 367 404 373
f 373 404 403
f 373 403 374
f 374 403 420
f 374 420 376
f 376 420 419
f 376 419 377
f 377 419 418
f 377 418 378
f 378 418 397
f 378 397 379
f 379 397 396
f 379 396 381
f 381 396 394
f 381 394 382
f 382 394 392
f 382 392 383
f 383 392 391
f 383 391 384
f 384 391 402
f 384 402 386
f 386 402 401
f 386 401 387
f 387 401 399
f 387 399 388
f 388 399 398
f 388 398 389
f 389 398 417
f 389 417 390
f 390 417 416
f 390 416 368
f 368 416 415
f 368 415 369
f 369 415 414
f 369 414 371
f 371 414 413
f 371 413 372
f 372 413 411
f 372 411 361
f 361 411 410
f 361 410 362
f 362 410 409
f 362 409 364
f 364 409 408
f 364 408 366
f 366 408 406
f 421 422 423
f 423 422 424
f 423 424 425
f 426 427 428
f 428 427 429
f 430 426 431
f 431 426 428
f 432 433 434
f 434 433 435
f 436 437 438
f 438 437 439
f 438 439 440
f 440 439 441
f 442 443 444
f 444 443 445
f 444 445 446
f 446 445 447
f 448 449 450
f 450 449 451
f 450 451 452
f 452 451 453
f 454 455 456
f 456 455 457
f 458 459 460
f 460 459 461
f 462 463 464
f 465 466 467
f 468 469 470
f 471 472 473
f 474 475 476
f 477 478 479
f 480 481 482
f 483 484 485
f 486 487 488
f 489 490 491
f 492 493 494
f 495 496 497
f 497 496 498
f 497 498 499
f 499 498 500
f 499 500 501
f 501 500 502
f 501 502 503
f 503 502 488
f 504 505 506
f 506 505 507
f 506 507 508
f 508 507 509
f 508 509 510
f 510 509 511
f 510 511 512
f 512 511 513
f 505 514 507
f 507 514 515
f 507 515 509
f 509 515 516
f 509 516 511
f 511 516 517
f 511 517 513
f 513 517 518
f 514 519 515
f 515 519 520
f 515 520 516
f 516 520 521
f 516 521 517
f 517 521 522
f 517 522 518
f 518 522 523
f 519 524 520
f 520 524 525
f 520 525 521
f 521 525 526
f 521 526 522
f 522 526 527
f 522 527 523
f 523 527 528
f 529 530 531
f 531 530 532
f 531 532 533
f 533 532 534
f 533 534 535
f 535 534 536
f 535 536 537
f 537 536 479
f 538 539 540
f 540 539 541
f 540 541 542
f 542 541 543
f 542 543 544
f 544 543 545
f 544 545 546
f 546 545 547
f 539 548 541
f 541 548 549
f 541 549 543
f 543 549 550
f 543 550 545
f 545 550 551
f 545 551 547
f 547 551 552
f 548 553 549
f 549 553 554
f 549 554 550
f 550 554 555
f 550 555 551
f 551 555 556
f 551 556 552
f 552 556 557
f 553 558 554
f 554 558 559
f 554 559 555
f 555 559 560
f 555 560 556
f 556 560 561
f 556 561 557
f 557 561 562
f 563 564 565
f 565 564 566
f 565 566 567
f 567 566 568
f 567 568 569
f 569 568 570
f 569 570 571
f 571 570 470
f 572 573 574
f 574 573 575
f 574 575 576
f 576 575 577
f 576 577 578
f 578 577 579
f 578 579 580
f 580 579 464
f 581 582 583
f 583 582 584
f 583 584 585
f 585 584 586
f 585 586 587
f 587 586 588
f 587 588 589
f 589 588 494
f 589 494 590
f 590 494 493
f 582 591 584
f 584 591 592
f 584 592 586
f 586 592 593
f 586 593 588
f 588 593 594
f 588 594 494
f 494 594 491
f 494 491 492
f 492 491 490
f 595 489 596
f 596 489 491
f 596 491 597
f 597 491 594
f 597 594 598
f 598 594 593
f 598 593 599
f 599 593 592
f 599 592 600
f 600 592 591
f 600 495 599
f 599 495 497
f 599 497 598
f 598 497 499
f 598 499 597
f 597 499 501
f 597 501 596
f 596 501 503
f 596 503 595
f 595 503 601
f 488 487 503
f 503 487 602
f 503 602 601
f 496 603 498
f 498 603 604
f 498 604 500
f 500 604 605
f 500 605 502
f 502 605 606
f 502 606 488
f 488 606 485
f 488 485 486
f 486 485 484
f 607 483 608
f 608 483 485
f 608 485 609
f 609 485 606
f 609 606 610
f 610 606 605
f 610 605 611
f 611 605 604
f 611 604 612
f 612 604 603
f 612 504 611
f 611 504 506
f 611 506 610
f 610 506 508
f 610 508 609
f 609 508 510
f 609 510 608
f 608 510 512
f 608 512 607
f 607 512 613
f 614 615 528
f 528 615 616
f 528 616 523
f 523 616 617
f 523 617 518
f 518 617 618
f 518 618 513
f 513 618 619
f 513 619 512
f 512 619 620
f 512 620 613
f 524 621 525
f 525 621 622
f 525 622 526
f 526 622 623
f 526 623 527
f 527 623 624
f 527 624 528
f 528 624 482
f 528 482 614
f 614 482 481
f 625 480 626
f 626 480 482
f 626 482 627
f 627 482 624
f 627 624 628
f 628 624 623
f 628 623 629
f 629 623 622
f 629 622 630
f 630 622 621
f 630 529 629
f 629 529 531
f 629 531 628
f 628 531 533
f 628 533 627
f 627 533 535
f 627 535 626
f 626 535 537
f 626 537 625
f 625 537 631
f 479 478 537
f 537 478 632
f 537 632 631
f 475 477 476
f 476 477 479
f 476 479 633
f 633 479 536
f 633 536 634
f 634 536 534
f 634 534 635
f 635 534 532
f 635 532 636
f 636 532 530
f 637 474 638
f 638 474 476
f 638 476 639
f 639 476 633
f 639 633 640
f 640 633 634
f 640 634 641
f 641 634 635
f 641 635 642
f 642 635 636
f 642 538 641
f 641 538 540
f 641 540 640
f 640 540 542
f 640 542 639
f 639 542 544
f 639 544 638
f 638 544 546
f 638 546 637
f 637 546 643
f 644 645 562
f 562 645 646
f 562 646 557
f 557 646 647
f 557 647 552
f 552 647 648
f 552 648 547
f 547 648 649
f 547 649 546
f 546 649 650
f 546 650 643
f 558 651 559
f 559 651 652
f 559 652 560
f 560 652 653
f 560 653 561
f 561 653 654
f 561 654 562
f 562 654 473
f 562 473 644
f 644 473 472
f 655 471 656
f 656 471 473
f 656 473 657
f 657 473 654
f 657 654 658
f 658 654 653
f 658 653 659
f 659 653 652
f 659 652 660
f 660 652 651
f 660 563 659
f 659 563 565
f 659 565 658
f 658 565 567
f 658 567 657
f 657 567 569
f 657 569 656
f 656 569 571
f 656 571 655
f 655 571 661
f 470 469 571
f 571 469 662
f 571 662 661
f 466 468 467
f 467 468 470
f 467 470 663
f 663 470 570
f 663 570 664
f 664 570 568
f 664 568 665
f 665 568 566
f 665 566 666
f 666 566 564
f 667 465 668
f 668 465 467
f 668 467 669
f 669 467 663
f 669 663 670
f 670 663 664
f 670 664 671
f 671 664 665
f 671 665 672
f 672 665 666
f 672 572 671
f 671 572 574
f 671 574 670
f 670 574 576
f 670 576 669
f 669 576 578
f 669 578 668
f 668 578 580
f 668 580 667
f 667 580 673
f 464 463 580
f 580 463 674
f 580 674 673
f 675 462 676
f 676 462 464
f 676 464 677
f 677 464 579
f 677 579 678
f 678 579 577
f 678 577 679
f 679 577 575
f 679 575 680
f 680 575 573
f 680 681 679
f 679 681 682
f 679 682 678
f 678 682 683
f 678 683 677
f 677 683 684
f 677 684 676
f 676 684 685
f 676 685 675
f 675 685 686
f 687 688 689
f 689 688 690
f 689 690 691
f 691 690 692
f 691 692 693
f 693 692 694
f 689 695 696
f 696 697 689
f 689 697 698
f 689 698 699
f 699 700 689
f 689 700 701
f 689 701 702
f 702 703 689
f 689 703 704
f 689 704 687
f 692 705 706
f 706 707 692
f 692 707 708
f 692 708 709
f 709 710 692
f 692 710 711
f 692 711 712
f 712 713 692
f 692 713 714
f 692 714 694
f 715 716 717
f 717 716 718
f 719 720 721
f 721 720 722
f 723 724 725
f 725 724 726
f 727 728 729
f 729 728 730
f 731 732 733
f 733 732 734
f 735 736 737
f 738 739 740
f 741 742 743
f 743 742 744
f 736 745 737
f 737 745 746
f 737 746 747
f 742 748 744
f 744 748 749
f 744 749 750
f 751 752 753
f 750 754 744
f 744 754 755
f 744 755 756
f 756 755 757
f 756 757 752
f 752 757 758
f 752 758 753
f 738 759 739
f 739 759 760
f 739 760 761
f 753 762 751
f 751 762 763
f 751 763 764
f 764 763 765
f 764 765 766
f 766 765 767
f 766 767 768
f 768 767 769
f 768 769 770
f 770 769 771
f 770 771 772
f 771 773 772
f 772 773 774
f 772 774 775
f 775 774 776
f 775 776 761
f 761 776 777
f 761 777 739
f 778 779 780
f 781 782 783
f 784 785 781
f 781 785 786
f 781 786 782
f 787 788 737
f 737 788 738
f 783 789 781
f 781 789 790
f 781 790 791
f 791 790 778
f 791 778 741
f 741 778 780
f 741 780 742
f 784 792 785
f 785 792 793
f 785 793 794
f 795 796 797
f 797 796 794
f 797 794 798
f 798 794 793
f 799 800 795
f 795 800 801
f 795 801 796
f 740 802 738
f 738 802 803
f 738 803 737
f 737 803 804
f 737 804 735
f 787 737 795
f 795 737 805
f 795 805 799
f 806 807 808
f 808 807 809
f 810 811 812
f 813 814 815
f 812 811 815
f 815 811 816
f 815 816 813
f 814 817 815
f 815 817 818
f 815 818 819
f 819 818 820
f 819 820 821
f 822 823 824
f 825 826 827
f 827 826 828
f 827 828 812
f 812 828 829
f 812 829 810
f 830 831 832
f 832 831 819
f 832 819 833
f 833 819 821
f 830 834 831
f 831 834 835
f 831 835 824
f 824 835 836
f 824 836 822
f 823 837 824
f 824 837 838
f 824 838 827
f 827 838 839
f 827 839 825
f 840 841 842
f 843 844 845
f 846 847 848
f 848 847 849
f 848 849 850
f 850 849 851
f 852 853 854
f 842 841 845
f 845 841 855
f 845 855 843
f 844 856 845
f 845 856 857
f 845 857 848
f 848 857 858
f 848 858 846
f 851 859 850
f 850 859 860
f 850 860 854
f 854 860 861
f 854 861 852
f 853 862 854
f 854 862 863
f 854 863 864
f 864 863 865
f 864 865 866
f 866 867 864
f 864 867 868
f 864 868 842
f 842 868 869
f 842 869 840
f 831 824 848
f 848 824 845
f 819 831 850
f 850 831 848
f 815 819 854
f 854 819 850
f 812 815 864
f 864 815 854
f 827 812 842
f 842 812 864
f 824 827 845
f 845 827 842
f 832 849 830
f 830 849 847
f 830 847 834
f 834 847 846
f 834 846 835
f 835 846 858
f 835 858 836
f 836 858 857
f 836 857 822
f 822 857 856
f 822 856 823
f 823 856 844
f 823 844 837
f 837 844 843
f 837 843 838
f 838 843 855
f 838 855 839
f 839 855 841
f 839 841 825
f 825 841 840
f 825 840 826
f 826 840 869
f 826 869 828
f 828 869 868
f 828 868 829
f 829 868 867
f 829 867 810
f 810 867 866
f 810 866 811
f 811 866 865
f 811 865 816
f 816 865 863
f 816 863 813
f 813 863 862
f 813 862 814
f 814 862 853
f 814 853 817
f 817 853 852
f 817 852 818
f 818 852 861
f 818 861 820
f 820 861 860
f 820 860 821
f 821 860 859
f 821 859 833
f 833 859 851
f 833 851 832
f 832 851 849
f 870 871 872
f 872 871 873
f 872 873 874
f 874 873 875
f 874 875 876
f 877 878 879
f 879 878 880
f 879 880 872
f 872 880 881
f 872 881 870
f 876 882 874
f 874 882 883
f 874 883 884
f 884 883 885
f 884 885 886
f 886 887 884
f 884 887 888
f 884 888 889
f 889 888 890
f 889 890 891
f 891 892 889
f 889 892 893
f 889 893 894
f 894 893 895
f 894 895 896
f 896 897 894
f 894 897 898
f 894 898 879
f 879 898 899
f 879 899 877
f 900 901 894
f 894 901 889
f 902 900 879
f 879 900 894
f 903 902 872
f 872 902 879
f 904 903 874
f 874 903 872
f 905 904 884
f 884 904 874
f 906 893 907
f 907 893 892
f 907 892 908
f 908 892 891
f 908 891 909
f 909 891 890
f 909 890 910
f 910 890 888
f 910 888 911
f 911 888 887
f 911 887 912
f 912 887 886
f 912 886 913
f 913 886 885
f 913 885 914
f 914 885 883
f 914 883 915
f 915 883 882
f 915 882 916
f 916 882 876
f 916 876 917
f 917 876 875
f 917 875 918
f 918 875 873
f 918 873 919
f 919 873 871
f 919 871 920
f 920 871 870
f 920 870 921
f 921 870 881
f 921 881 922
f 922 881 880
f 922 880 923
f 923 880 878
f 923 878 924
f 924 878 877
f 924 877 925
f 925 877 899
f 925 899 926
f 926 899 898
f 926 898 927
f 927 898 897
f 927 897 928
f 928 897 896
f 928 896 929
f 929 896 895
f 929 895 906
f 906 895 893
f 930 931 932
f 932 931 933
f 932 933 934
f 934 933 935
f 934 935 936
f 936 937 934
f 934 937 938
f 934 938 939
f 939 938 940
f 939 940 941
f 941 942 939
f 939 942 943
f 939 943 944
f 944 943 945
f 944 945 946
f 947 948 949
f 949 948 950
f 949 950 932
f 932 950 951
f 932 951 930
f 946 952 944
f 944 952 953
f 944 953 954
f 954 953 955
f 954 955 956
f 956 957 954
f 954 957 958
f 954 958 949
f 949 958 959
f 949 959 947
f 960 961 962
f 962 961 963
f 962 963 964
f 964 963 965
f 964 965 966
f 966 967 964
f 964 967 968
f 964 968 969
f 969 968 970
f 969 970 971
f 972 973 974
f 974 973 975
f 974 975 976
f 976 975 977
f 976 977 978
f 978 979 976
f 976 979 980
f 976 980 962
f 962 980 981
f 962 981 960
f 971 982 969
f 969 982 983
f 969 983 984
f 984 983 985
f 984 985 986
f 986 987 984
f 984 987 988
f 984 988 974
f 974 988 989
f 974 989 972
f 944 954 964
f 964 954 962
f 939 944 969
f 969 944 964
f 934 939 984
f 984 939 969
f 932 934 974
f 974 934 984
f 949 932 976
f 976 932 974
f 954 949 962
f 962 949 976
f 945 968 946
f 946 968 967
f 946 967 952
f 952 967 966
f 952 966 953
f 953 966 965
f 953 965 955
f 955 965 963
f 955 963 956
f 956 963 961
f 956 961 957
f 957 961 960
f 957 960 958
f 958 960 981
f 958 981 959
f 959 981 980
f 959 980 947
f 947 980 979
f 947 979 948
f 948 979 978
f 948 978 950
f 950 978 977
f 950 977 951
f 951 977 975
f 951 975 930
f 930 975 973
f 930 973 931
f 931 973 972
f 931 972 933
f 933 972 989
f 933 989 935
f 935 989 988
f 935 988 936
f 936 988 987
f 936 987 937
f 937 987 986
f 937 986 938
f 938 986 985
f 938 985 940
f 940 985 983
f 940 983 941
f 941 983 982
f 941 982 942
f 942 982 971
f 942 971 943
f 943 971 970
f 943 970 945
f 945 970 968
f 990 991 992
f 993 994 995
f 996 997 998
f 992 991 999
f 999 991 1000
f 999 1000 1001
f 1002 1003 1004
f 995 1005 993
f 993 1005 1006
f 993 1006 992
f 992 1006 1007
f 992 1007 990
f 1001 1008 999
f 999 1008 1009
f 999 1009 1002
f 1002 1009 1010
f 1002 1010 1003
f 998 997 1011
f 1011 997 1012
f 1011 1012 1013
f 1004 1014 1002
f 1002 1014 1015
f 1002 1015 998
f 998 1015 1016
f 998 1016 996
f 1013 1017 1011
f 1011 1017 1018
f 1011 1018 993
f 993 1018 1019
f 993 1019 994
f 1020 1021 1022
f 1023 1024 1025
f 1026 1027 1028
f 1028 1027 1029
f 1028 1029 1030
f 1030 1029 1031
f 1032 1033 1034
f 1034 1033 1035
f 1034 1035 1036
f 1036 1035 1037
f 1025 1038 1023
f 1023 1038 1039
f 1023 1039 1029
f 1029 1039 1040
f 1029 1040 1031
f 1026 1041 1027
f 1027 1041 1042
f 1027 1042 1020
f 1020 1042 1043
f 1020 1043 1021
f 1022 1044 1020
f 1020 1044 1045
f 1020 1045 1035
f 1035 1045 1046
f 1035 1046 1037
f 1032 1047 1033
f 1033 1047 1048
f 1033 1048 1023
f 1023 1048 1049
f 1023 1049 1024
f 999 1002 1035
f 1035 1002 1020
f 992 999 1033
f 1033 999 1035
f 993 992 1023
f 1023 992 1033
f 1011 993 1029
f 1029 993 1023
f 998 1011 1027
f 1027 1011 1029
f 1002 998 1020
f 1020 998 1027
f 1000 1034 1001
f 1001 1034 1036
f 1001 1036 1008
f 1008 1036 1037
f 1008 1037 1009
f 1009 1037 1046
f 1009 1046 1010
f 1010 1046 1045
f 1010 1045 1003
f 1003 1045 1044
f 1003 1044 1004
f 1004 1044 1022
f 1004 1022 1014
f 1014 1022 1021
f 1014 1021 1015
f 1015 1021 1043
f 1015 1043 1016
f 1016 1043 1042
f 1016 1042 996
f 996 1042 1041
f 996 1041 997
f 997 1041 1026
f 997 1026 1012
f 1012 1026 1028
f 1012 1028 1013
f 1013 1028 1030
f 1013 1030 1017
f 1017 1030 1031
f 1017 1031 1018
f 1018 1031 1040
f 1018 1040 1019
f 1019 1040 1039
f 1019 1039 994
f 994 1039 1038
f 994 1038 995
f 995 1038 1025
f 995 1025 1005
f 1005 1025 1024
f 1005 1024 1006
f 1006 1024 1049
f 1006 1049 1007
f 1007 1049 1048
f 1007 1048 990
f 990 1048 1047
f 990 1047 991
f 991 1047 1032
f 991 1032 1000
f 1000 1032 1034
f 1050 1051 1052
f 1053 1054 1055
f 1056 1057 1058
f 1055 1054 1059
f 1051 1060 1052
f 1052 1060 1061
f 1052 1061 1062
f 1062 1061 1063
f 1062 1063 1064
f 1054 1065 1059
f 1059 1065 1066
f 1059 1066 1067
f 1064 1068 1062
f 1062 1068 1069
f 1062 1069 1055
f 1055 1069 1070
f 1055 1070 1053
f 1067 1071 1059
f 1059 1071 1072
f 1059 1072 1073
f 1073 1072 1074
f 1073 1074 1075
f 1058 1057 1052
f 1052 1057 1076
f 1052 1076 1050
f 1075 1077 1073
f 1073 1077 1078
f 1073 1078 1058
f 1058 1078 1079
f 1058 1079 1056
f 1080 1081 1082
f 1083 1084 1085
f 1085 1084 1082
f 1085 1082 1086
f 1086 1082 1081
f 1087 1088 1089
f 1089 1088 1090
f 1089 1090 1091
f 1090 1092 1091
f 1091 1092 1093
f 1091 1093 1094
f 1083 1095 1084
f 1084 1095 1096
f 1084 1096 1089
f 1089 1096 1097
f 1089 1097 1087
f 1098 1099 1100
f 1100 1099 1091
f 1100 1091 1101
f 1101 1091 1094
f 1102 1103 1104
f 1104 1103 1105
f 1104 1105 1082
f 1082 1105 1106
f 1082 1106 1080
f 1098 1107 1099
f 1099 1107 1108
f 1099 1108 1104
f 1104 1108 1109
f 1104 1109 1102
f 1058 1052 1099
f 1099 1052 1091
f 1073 1058 1104
f 1104 1058 1099
f 1059 1073 1082
f 1082 1073 1104
f 1055 1059 1084
f 1084 1059 1082
f 1062 1055 1089
f 1089 1055 1084
f 1052 1062 1091
f 1091 1062 1089
f 1078 1109 1079
f 1079 1109 1108
f 1079 1108 1056
f 1056 1108 1107
f 1056 1107 1057
f 1057 1107 1098
f 1057 1098 1076
f 1076 1098 1100
f 1076 1100 1050
f 1050 1100 1101
f 1050 1101 1051
f 1051 1101 1094
f 1051 1094 1060
f 1060 1094 1093
f 1060 1093 1061
f 1061 1093 1092
f 1061 1092 1063
f 1063 1092 1090
f 1063 1090 1064
f 1064 1090 1088
f 1064 1088 1068
f 1068 1088 1087
f 1068 1087 1069
f 1069 1087 1097
f 1069 1097 1070
f 1070 1097 1096
f 1070 1096 1053
f 1053 1096 1095
f 1053 1095 1054
f 1054 1095 1083
f 1054 1083 1065
f 1065 1083 1085
f 1065 1085 1066
f 1066 1085 1086
f 1066 1086 1067
f 1067 1086 1081
f 1067 1081 1071
f 1071 1081 1080
f 1071 1080 1072
f 1072 1080 1106
f 1072 1106 1074
f 1074 1106 1105
f 1074 1105 1075
f 1075 1105 1103
f 1075 1103 1077
f 1077 1103 1102
f 1077 1102 1078
f 1078 1102 1109
