v -0.0683434621 0.26021796 0.077408484
v -0.0683434621 0.249592836 0.0745615278
v -0.0685797349 0.24951833 0.0748396431
v -0.0685797349 0.260143454 0.0776865993
v -0.0687553302 0.249433334 0.075156859
v -0.0687553302 0.260058458 0.0780039344
v -0.068863453 0.249341066 0.0755011354
v -0.068863453 0.25996619 0.0783482109
v -0.0689000503 0.249245102 0.0758592401
v -0.0689000503 0.259870226 0.0787061964
v -0.0618252174 0.234548266 0.121822051
v -0.0618252174 0.242565448 0.123970202
v -0.0614197866 0.234558995 0.121781877
v -0.0614197866 0.242576177 0.123930148
v -0.0610311643 0.234590824 0.121663264
v -0.0610311643 0.242608006 0.123811415
v -0.060675563 0.234642322 0.121470979
v -0.060675563 0.242659504 0.123619131
v -0.0603676454 0.234711463 0.12121301
v -0.0603676454 0.242728646 0.123361281
v -0.0676364318 0.261000927 0.0783503566
v -0.0669619456 0.261175449 0.0776988779
v -0.0667627469 0.261190827 0.077408484
v -0.0667198316 0.261174376 0.0772921358
v -0.0666858569 0.260986621 0.076727203
v -0.066779317 0.260901625 0.0766525779
v -0.0670544521 0.260677273 0.0765038047
v -0.0671995298 0.260572608 0.0764619623
v -0.0673448459 0.260476525 0.0764438425
v -0.066884698 0.261191423 0.0776131664
v -0.0668179408 0.261196549 0.0775160108
v -0.0666728631 0.261109884 0.0770395313
v -0.0666840688 0.261004026 0.076771072
v 0.0159866198 -0.236066525 0.0681492601
v 0.0159859046 -0.236060028 0.0681422268
v 0.0159760102 -0.236061637 0.0681417499
v 0.0159761294 -0.235981052 0.0680943046
v 0.0159673079 -0.235916262 0.0680728469
v 0.0159566983 -0.235912268 0.0680714164
v 0.0159663543 -0.235909526 0.0680710588
v 0.0159564599 -0.235911016 0.0680710588
v 0.0159645661 -0.235970025 0.0680891786
v 0.0159663543 -0.23598278 0.0680931125
v 0.0159801825 -0.236011629 0.0681044374
v 0.0159686192 -0.235999172 0.0680981193
v 0.0159813746 -0.236021345 0.0681106363
v 0.015971361 -0.236022418 0.0681111131
v 0.0159842357 -0.236045127 0.0681258951
v 0.0159735068 -0.236039405 0.0681205307
v 0.0159742221 -0.236045783 0.0681264911
v 0.015975891 -0.236061161 0.0681410347
v 0.0159874543 -0.23607481 0.0681641613
v 0.0159774407 -0.236075644 0.0681643997
v 0.0159886464 -0.236085658 0.068183354
v 0.0159783944 -0.236084406 0.0681783472
v 0.0159888848 -0.236087983 0.0681901489
v 0.0159788712 -0.236088579 0.0681903873
v 0.0159811362 -0.236110573 0.0682533298
v 0.0159910306 -0.236109619 0.0682533298
v 0.015939413 -0.23575068 0.0681535516
v 0.0159296378 -0.235752826 0.0681537901
v 0.0159345254 -0.235778754 0.0681219612
v 0.0159290418 -0.235749428 0.0681578432
v 0.0159328564 -0.235717123 0.0682085071
v 0.0159230813 -0.23571903 0.0682085071
v 0.0159273728 -0.235741262 0.0681715522
v 0.0159392937 -0.235749905 0.0681543861
v 0.015937744 -0.235741978 0.0681664262
v 0.0159372672 -0.235739117 0.068171433
v 0.0159475192 -0.235854094 0.0680821453
v 0.0159590825 -0.235863035 0.0680797611
v 0.0159574136 -0.235852425 0.0680816684
v 0.0159454926 -0.235841577 0.0680846487
v 0.0159563407 -0.23584563 0.0680829797
v 0.0159415587 -0.235818808 0.0680941854
v 0.0159514531 -0.235817139 0.0680943046
v 0.0159396514 -0.235807483 0.0680989538
v 0.0159495457 -0.235806172 0.0680987154
v 0.0159379824 -0.235798304 0.0681058679
v 0.0159478768 -0.235796456 0.0681057487
v 0.0159351214 -0.235781853 0.0681181465
v 0.0159452542 -0.235782211 0.0681162391
v 0.0159444197 -0.235777144 0.0681221996
v 0.0159074649 -0.235643988 0.068186215
v 0.0159119948 -0.235665326 0.0681895528
v 0.0159171208 -0.235641842 0.068186215
v 0.01592177 -0.23566324 0.0681895528
v 0.0159255847 -0.235680943 0.0681922947
v 0.0159156903 -0.235682492 0.0681921754
v 0.0159266576 -0.235686247 0.0681946788
v 0.0159167632 -0.235688214 0.0681947981
v 0.0158731326 -0.237499897 0.0685207162
v 0.0158827885 -0.237502401 0.0685207162
v 0.0158835038 -0.23745883 0.0685203586
v 0.0158931598 -0.237461214 0.0685203586
v 0.0158933982 -0.237417643 0.0685201202
v 0.0159031733 -0.237419908 0.0685201202
v 0.0158956631 -0.237407927 0.068547896
v 0.0159054383 -0.237410192 0.068547896
v 0.0158979281 -0.237398212 0.0685755525
v 0.0159077033 -0.237400477 0.0685755525
v 0.0159011468 -0.237384086 0.0685755525
v 0.0159109219 -0.237386291 0.0685755525
v 0.0159043654 -0.237369959 0.0685754333
v 0.0159141406 -0.237372105 0.0685754333
v 0.0240260943 -0.195100014 0.0699971233
v 0.0240260943 -0.195199971 0.0699971233
v 0.0239928349 -0.195100014 0.0699290548
v 0.0239928349 -0.195199971 0.0699290548
v 0.0235761985 -0.195100014 0.069877914
v 0.0235761985 -0.195199971 0.069877914
v 0.0235261306 -0.195100014 0.0699290548
v 0.0235261306 -0.195199971 0.0699290548
v 0.0232262 -0.195100014 0.0700312172
v 0.0232262 -0.195199971 0.0700312172
v 0.0231928214 -0.195100014 0.0700992857
v 0.0231928214 -0.195199971 0.0700992857
v 0.0230594262 -0.195100014 0.0701673542
v 0.0230594262 -0.195199971 0.0701673542
v 0.0229927882 -0.195100014 0.0701673542
v 0.0229927882 -0.195199971 0.0701673542
v 0.0231594428 -0.195100014 0.0705078159
v 0.0231594428 -0.195199971 0.0705078159
v 0.0230761155 -0.195100014 0.0705247436
v 0.0230761155 -0.195199971 0.0705247436
v 0.0228927716 -0.195100014 0.0705078159
v 0.0228927716 -0.195199971 0.0705078159
v 0.0228595122 -0.195100014 0.070490769
v 0.0228595122 -0.195199971 0.070490769
v 0.0232262 -0.195100014 0.0705588375
v 0.0232262 -0.195199971 0.0705588375
v 0.0232761487 -0.195100014 0.0705247436
v 0.0232761487 -0.195199971 0.0705247436
v 0.022592841 -0.195100014 0.0698098455
v 0.022592841 -0.195199971 0.0698098455
v 0.0219594821 -0.195100014 0.0698098455
v 0.0219594821 -0.195199971 0.0698098455
v 0.0222936257 -0.199899976 0.0707847391
v 0.0222936257 -0.199800019 0.0707847391
v 0.0224186763 -0.199899976 0.0707635198
v 0.0224186763 -0.199800019 0.0707635198
v -0.0218353883 -0.173403804 0.112790397
v -0.0218454019 -0.173403804 0.112790636
v -0.0218361036 -0.173403566 0.112751177
v -0.0218461171 -0.173403566 0.112751297
v -0.0218364612 -0.173403268 0.112711838
v -0.0218464748 -0.173403268 0.112711958
v -0.0218464748 -0.173435812 0.112711719
v -0.0218364612 -0.173435812 0.1127116
v -0.0218464748 -0.173468356 0.112711481
v -0.0218364612 -0.173468356 0.112711481
v -0.0217878238 -0.173264925 0.11331766
v -0.0217977182 -0.173264925 0.11331921
v -0.0217815057 -0.173163478 0.113356641
v -0.0217914001 -0.173163478 0.11335831
v -0.02177483 -0.173062091 0.113395623
v -0.0217846051 -0.173062091 0.113397292
v -0.0217723266 -0.17306221 0.113409451
v -0.0217821017 -0.17306221 0.113411239
v -0.0217698232 -0.17306227 0.113423279
v -0.0217795983 -0.17306227 0.113425067
v 0.248494564 -0.0688999939 0.07866042
v 0.249245106 -0.0688999939 0.0758592401
v 0.255738912 -0.0688999939 0.0806015049
v 0.25987023 -0.0688999939 0.0787061964
v 0.244014321 -0.0688999939 0.124358467
v 0.246644436 -0.0688999939 0.128065518
v 0.236769853 -0.0688999939 0.122417382
v 0.236019312 -0.0688999939 0.125218562
v -0.0134775058 -0.22051019 0.065229467
v -0.0134775058 -0.220508103 0.065229467
v -0.0134875194 -0.22051019 0.065229467
v -0.0134875194 -0.220508103 0.065229467
v -0.0134775058 -0.217964177 0.0646788393
v -0.0134875194 -0.217964177 0.0646788393
v -0.0134875194 -0.217905586 0.0646728788
v -0.0134775058 -0.217905586 0.0646728788
v -0.0134875194 -0.217855577 0.0646559511
v -0.0134775058 -0.217855577 0.0646559511
v -0.0134875194 -0.217809563 0.0646260296
v -0.0134775058 -0.217809563 0.0646260296
v -0.0134875194 -0.217790012 0.0646074329
v -0.0134775058 -0.217790012 0.0646074329
v -0.000500978581 -0.216005032 0.0713313137
v -0.000500978581 -0.215995018 0.0713313137
v -0.000558914296 -0.216005032 0.0714782987
v -0.000566901318 -0.215995018 0.0714985643
v -0.000566901318 -0.216005032 0.0714985643
v -0.000811757199 -0.215995018 0.0714176212
v -0.000811757199 -0.216005032 0.0714176212
v -0.000811757199 -0.216005032 0.0714206014
v -0.000811757199 -0.215995018 0.0714206014
v -0.000813426129 -0.216005032 0.0714309726
v -0.000813426129 -0.215995018 0.0714309726
v -0.000817240827 -0.216005032 0.0714400325
v -0.000817240827 -0.215995018 0.0714400325
v -0.000822605245 -0.216005032 0.0714473043
v -0.000822605245 -0.215995018 0.0714473043
v -0.000854791753 -0.215995018 0.0713903223
v -0.000854791753 -0.216005032 0.0713903223
v -0.000873984448 -0.216005032 0.0713950906
v -0.000873984448 -0.215995018 0.0713950906
v -0.000884832494 -0.216005032 0.0714005743
v -0.000884832494 -0.215995018 0.0714005743
v -0.000892700307 -0.216005032 0.0714073692
v -0.000892700307 -0.215995018 0.0714073692
v -0.000897826306 -0.216005032 0.071414641
v -0.000897826306 -0.215995018 0.071414641
v -0.000901283376 -0.216005032 0.0714237009
v -0.000901283376 -0.215995018 0.0714237009
v -0.000902952306 -0.216005032 0.0714346681
v -0.000902952306 -0.215995018 0.0714346681
v -0.000902952306 -0.216005032 0.0714377676
v -0.000902952306 -0.215995018 0.0714377676
v -0.00101047908 -0.215995018 0.0713849578
v -0.00101047908 -0.215995018 0.071453384
v -0.00101047908 -0.216005032 0.0713849578
v -0.00101047908 -0.216005032 0.071453384
v 0.0253543242 -0.235025113 0.0719498907
v 0.0253543242 -0.235025113 0.071899942
v 0.0252938851 -0.235012774 0.0719498907
v 0.0252938851 -0.235012774 0.071899942
v -0.0258635894 -0.240250056 0.0668070827
v -0.0258635894 -0.240240102 0.0668070827
v -0.0258849279 -0.240240102 0.0668044601
v -0.0258849279 -0.240250056 0.0668044601
v -0.0259001867 -0.240240102 0.0667986189
v -0.0259001867 -0.240250056 0.0667986189
v -0.025909485 -0.240240102 0.0667926584
v -0.025909485 -0.240250056 0.0667926584
v -0.025229992 -0.238270109 0.0632999454
v -0.025229992 -0.238270109 0.0651999031
v -0.025229992 -0.239270096 0.0632999454
v -0.025229992 -0.239270096 0.0651999031
f 1 2 3
f 1 3 4
f 4 3 5
f 4 5 6
f 6 5 7
f 6 7 8
f 8 7 9
f 8 9 10
f 11 12 13
f 13 12 14
f 13 14 15
f 15 14 16
f 15 16 17
f 17 16 18
f 17 18 19
f 19 18 20
f 1 21 22
f 1 23 24
f 25 26 1
f 26 27 1
f 1 27 28
f 1 28 29
f 22 30 1
f 1 30 31
f 1 31 23
f 24 32 1
f 1 32 33
f 1 33 25
f 34 35 36
f 37 38 39
f 39 38 40
f 39 40 41
f 39 42 37
f 37 42 43
f 37 43 44
f 44 43 45
f 44 45 46
f 46 45 47
f 46 47 48
f 47 49 48
f 48 49 50
f 48 50 35
f 35 50 51
f 35 51 36
f 34 36 52
f 52 36 53
f 52 53 54
f 54 53 55
f 54 55 56
f 55 57 56
f 56 57 58
f 56 58 59
f 60 61 62
f 61 60 63
f 64 65 66
f 60 67 63
f 63 67 68
f 63 68 66
f 66 68 69
f 66 69 64
f 70 41 40
f 40 71 70
f 70 71 72
f 70 72 73
f 73 72 74
f 73 74 75
f 75 74 76
f 75 76 77
f 77 76 78
f 77 78 79
f 79 78 80
f 79 80 81
f 81 80 82
f 81 82 62
f 62 82 83
f 62 83 60
f 84 85 86
f 86 85 87
f 87 85 88
f 88 85 89
f 88 89 90
f 89 91 90
f 90 91 65
f 90 65 64
f 92 93 94
f 94 93 95
f 94 95 96
f 96 95 97
f 96 97 98
f 98 97 99
f 98 99 100
f 100 99 101
f 100 101 102
f 102 101 103
f 102 103 104
f 104 103 105
f 106 107 108
f 108 107 109
f 110 111 112
f 112 111 113
f 114 115 116
f 116 115 117
f 118 119 120
f 120 119 121
f 122 123 124
f 124 123 125
f 126 127 128
f 128 127 129
f 130 131 132
f 132 131 133
f 134 135 136
f 136 135 137
f 138 139 140
f 140 139 141
f 142 143 144
f 144 143 145
f 144 145 146
f 146 145 147
f 146 147 148
f 146 148 149
f 149 148 150
f 149 150 151
f 152 153 154
f 154 153 155
f 154 155 156
f 156 155 157
f 156 157 158
f 158 157 159
f 158 159 160
f 160 159 161
f 162 163 164
f 164 163 165
f 164 165 166
f 166 165 167
f 166 167 168
f 168 167 169
f 170 171 172
f 172 171 173
f 174 175 176
f 174 176 177
f 177 176 178
f 177 178 179
f 179 178 180
f 179 180 181
f 181 180 182
f 181 182 183
f 184 185 186
f 186 185 187
f 186 187 188
f 189 190 191
f 189 191 192
f 192 191 193
f 192 193 194
f 194 193 195
f 194 195 196
f 196 195 197
f 196 197 198
f 199 200 201
f 199 201 202
f 202 201 203
f 202 203 204
f 204 203 205
f 204 205 206
f 206 205 207
f 206 207 208
f 208 207 209
f 208 209 210
f 210 209 211
f 210 211 212
f 212 211 213
f 212 213 214
f 215 216 217
f 217 216 218
f 219 220 221
f 221 220 222
f 223 224 225
f 223 225 226
f 226 225 227
f 226 227 228
f 228 227 229
f 228 229 230
f 231 232 233
f 233 232 234
