v -0.00690883552 -0.16892386 0.115072778
v -0.00690883552 -0.16892386 0.115344695
v -0.00690883552 -0.168913846 0.115072778
v -0.00690883552 -0.168913846 0.115344695
v -0.178644003 -0.027882998 0.034199885
v -0.178644003 -0.027882998 0.033999971
v -0.178429069 -0.0277279663 0.033999971
v -0.178429069 -0.0277279663 0.034199885
v -0.178189577 -0.0276127505 0.033999971
v -0.178189577 -0.0276127505 0.034199885
v -0.0134775058 -0.214657192 0.065476111
v -0.0134875194 -0.214657192 0.065476111
v -0.0134875194 -0.214690213 0.0654790912
v -0.0134775058 -0.214690213 0.0654790912
v -0.0134875194 -0.214735632 0.0654933963
v -0.0134775058 -0.214735632 0.0654933963
v -0.0134875194 -0.214775448 0.0655181919
v -0.0134775058 -0.214775448 0.0655181919
v -0.0134875194 -0.214807754 0.0655515705
v -0.0134775058 -0.214807754 0.0655515705
v -0.0134875194 -0.214830165 0.0655904327
v -0.0134775058 -0.214830165 0.0655904327
v -0.0134875194 -0.214842801 0.0656343017
v -0.0134775058 -0.214842801 0.0656343017
v -0.0134875194 -0.214844351 0.0656810318
v -0.0134775058 -0.214844351 0.0656810318
v -0.0134875194 -0.214834039 0.0657276426
v -0.0134775058 -0.214834039 0.0657276426
v -0.0134875194 -0.214812522 0.0657697235
v -0.0134775058 -0.214812522 0.0657697235
v -0.0134875194 -0.214781766 0.065804771
v -0.0134775058 -0.214781766 0.065804771
v -0.0134875194 -0.214744811 0.065830401
v -0.0134775058 -0.214744811 0.065830401
v -0.0134875194 -0.214702849 0.0658464943
v -0.0134775058 -0.214702849 0.0658464943
v -0.0134875194 -0.214657192 0.0658520971
v -0.0134775058 -0.214657192 0.0658520971
v -0.0134775058 -0.216016417 0.0647771869
v -0.0134875194 -0.216016417 0.0647771869
v -0.0134875194 -0.216108029 0.0647885118
v -0.0134775058 -0.216108029 0.0647885118
v -0.0134875194 -0.216192191 0.0648209367
v -0.0134775058 -0.216192191 0.0648209367
v -0.0134875194 -0.216266935 0.0648731504
v -0.0134775058 -0.216266935 0.0648731504
v -0.0134875194 -0.216322546 0.0649352584
v -0.0134775058 -0.216322546 0.0649352584
v -0.0134875194 -0.216330414 0.064949802
v -0.0134775058 -0.216367369 0.0650184665
v -0.0134875194 -0.216367369 0.0650184665
v -0.0134875194 -0.216390018 0.0651109729
v -0.0134775058 -0.216390018 0.0651109729
v -0.0134875194 -0.216392343 0.065153173
v -0.0134775058 -0.216392343 0.065153173
v -0.0134775058 -0.214661961 0.0651724849
v -0.0134875194 -0.214661961 0.0651724849
v -0.0134875194 -0.214546924 0.0651866708
v -0.0134775058 -0.214546924 0.0651866708
v -0.0134875194 -0.21444047 0.0652273212
v -0.0134775058 -0.21444047 0.0652273212
v -0.0134875194 -0.214341943 0.0652957473
v -0.0134775058 -0.214341943 0.0652957473
v -0.0134875194 -0.214262192 0.0653869424
v -0.0134775058 -0.214262192 0.0653869424
v -0.0134875194 -0.214208906 0.0654905353
v -0.0134775058 -0.214208906 0.0654905353
v -0.0134775058 -0.217246418 0.065142921
v -0.0134775058 -0.217595582 0.065142921
v -0.0134875194 -0.217246418 0.065142921
v -0.0134875194 -0.217595582 0.065142921
v -0.0187215224 -0.227533047 0.0697649036
v -0.0194835082 -0.227533047 0.0697649036
v -0.0187215224 -0.227533047 0.0674149309
v -0.0194835082 -0.227533047 0.0674149309
v -0.0175496951 -0.173436885 0.131805113
v -0.0175505296 -0.173436885 0.1317951
v -0.0175685302 -0.173439269 0.131806663
v -0.0175693647 -0.173439031 0.13179665
v -0.0175729409 -0.173439805 0.131807021
v -0.0175721065 -0.173439329 0.131796888
v -0.017575802 -0.173441236 0.13180714
v -0.0175765172 -0.173441415 0.131797246
v -0.0175899879 -0.17344815 0.131808213
v -0.0175907031 -0.17344815 0.131798318
v -0.0178838388 -0.168913846 0.126359633
v -0.0178838388 -0.168912833 0.126359633
v -0.0178393737 -0.168913846 0.126365355
v -0.0177999154 -0.168912833 0.126370481
v -0.0177999154 -0.168913846 0.126370481
v -0.0177345887 -0.168912833 0.126393369
v -0.0177345887 -0.168913846 0.126393369
v -0.0176841632 -0.168912833 0.126425317
v -0.0176841632 -0.168913846 0.126425317
v -0.0176439897 -0.168912833 0.126466564
v -0.0176439897 -0.168913846 0.126466564
v -0.0176106111 -0.168912833 0.1265214
v -0.0176106111 -0.168913846 0.1265214
v -0.0175821201 -0.168912833 0.126609257
v -0.0175821201 -0.168913846 0.126609257
v -0.0175701991 -0.168912833 0.126722983
v -0.0175701991 -0.168913846 0.126722983
v 0.0217000827 -0.224500065 0.0715998922
v 0.0217000827 -0.224500065 0.0716999088
v 0.0217336997 -0.22496969 0.0715998922
v 0.0217170104 -0.22483391 0.0716999088
v 0.0217377528 -0.224969094 0.0716999088
v 0.0217676743 -0.225164359 0.0716999088
v 0.0218338355 -0.225429778 0.0715998922
v 0.0218362197 -0.225429122 0.0716999088
v 0.0218514785 -0.225487952 0.0716999088
v 0.0219983443 -0.225870912 0.0715998922
v 0.0219675883 -0.225801413 0.0716999088
v 0.0220009669 -0.225869601 0.0716999088
v 0.0222240075 -0.226284151 0.0715998922
v 0.0221148118 -0.226101522 0.0716999088
v 0.0222273454 -0.226282124 0.0716999088
v 0.0222915992 -0.226385241 0.0716999088
v 0.0225061759 -0.226661091 0.0715998922
v 0.0224961623 -0.226649587 0.0716999088
v 0.0225066527 -0.226660614 0.0716999088
v 0.0228391274 -0.226994042 0.0715998922
v 0.0227264747 -0.22689188 0.0716999088
v 0.0228418692 -0.226990824 0.0716999088
v 0.022980152 -0.227109616 0.0716999088
v 0.023215948 -0.227276211 0.0715998922
v 0.0232171401 -0.227274542 0.0716999088
v 0.0232545718 -0.227300589 0.0716999088
v 0.0236292466 -0.227501814 0.0715998922
v 0.023546873 -0.227462833 0.0716999088
v 0.0236305579 -0.227498775 0.0716999088
v 0.0240704402 -0.227666383 0.0715998922
v 0.0238539561 -0.227594619 0.0716999088
v 0.0240715131 -0.227662866 0.0716999088
v 0.0241729602 -0.227694695 0.0716999088
v 0.0245304688 -0.227766459 0.0715998922
v 0.0245004281 -0.227761989 0.0716999088
v 0.024530588 -0.227765088 0.0716999088
v 0.0250001534 -0.227800076 0.0715998922
v 0.024833022 -0.227795844 0.0716999088
v 0.0250001534 -0.227795844 0.0716999088
v 0.0251672849 -0.227795844 0.0716999088
v 0.0254697188 -0.227766459 0.0715998922
v 0.0254695996 -0.227765088 0.0716999088
v 0.0254998788 -0.227761989 0.0716999088
v 0.0259298667 -0.227666383 0.0715998922
v 0.0258272275 -0.227694695 0.0716999088
v 0.0259286746 -0.227662866 0.0716999088
v 0.0261462315 -0.227594619 0.0716999088
v 0.0263709411 -0.227501814 0.0715998922
v 0.0263696297 -0.227498775 0.0716999088
v 0.0264534339 -0.227462833 0.0716999088
v 0.0267842397 -0.227276211 0.0715998922
v 0.0267457351 -0.227300589 0.0716999088
v 0.0267830476 -0.227274542 0.0716999088
v 0.0271611794 -0.226994042 0.0715998922
v 0.0270200356 -0.227109616 0.0716999088
v 0.0271584376 -0.226990824 0.0716999088
v 0.027273713 -0.22689188 0.0716999088
v 0.027494131 -0.226661091 0.0715998922
v 0.0274935349 -0.226660614 0.0716999088
v 0.0275040253 -0.226649587 0.0716999088
v 0.0277762994 -0.226284151 0.0715998922
v 0.0277085885 -0.226385241 0.0716999088
v 0.0277729615 -0.226282124 0.0716999088
v 0.0278854951 -0.226101522 0.0716999088
v 0.0280018433 -0.225870912 0.0715998922
v 0.0279992207 -0.225869601 0.0716999088
v 0.0280327185 -0.225801413 0.0716999088
v 0.0281664714 -0.225429778 0.0715998922
v 0.0281488284 -0.225487952 0.0716999088
v 0.028163968 -0.225429122 0.0716999088
v 0.028266488 -0.22496969 0.0715998922
v 0.0282325133 -0.225164359 0.0716999088
v 0.028300105 -0.224500065 0.0716999088
v 0.028300105 -0.224500065 0.0715998922
v 0.0282831773 -0.22483391 0.0716999088
v 0.0282624348 -0.224969094 0.0716999088
f 1 2 3
f 3 2 4
f 5 6 7
f 5 7 8
f 8 7 9
f 8 9 10
f 11 12 13
f 11 13 14
f 14 13 15
f 14 15 16
f 16 15 17
f 16 17 18
f 18 17 19
f 18 19 20
f 20 19 21
f 20 21 22
f 22 21 23
f 22 23 24
f 24 23 25
f 24 25 26
f 26 25 27
f 26 27 28
f 28 27 29
f 28 29 30
f 30 29 31
f 30 31 32
f 32 31 33
f 32 33 34
f 34 33 35
f 34 35 36
f 36 35 37
f 36 37 38
f 39 40 41
f 39 41 42
f 42 41 43
f 42 43 44
f 44 43 45
f 44 45 46
f 46 45 47
f 46 47 48
f 48 47 49
f 48 49 50
f 49 51 50
f 50 51 52
f 50 52 53
f 53 52 54
f 53 54 55
f 56 57 58
f 56 58 59
f 59 58 60
f 59 60 61
f 61 60 62
f 61 62 63
f 63 62 64
f 63 64 65
f 65 64 66
f 65 66 67
f 68 69 70
f 70 69 71
f 72 73 74
f 74 73 75
f 76 77 78
f 78 77 79
f 78 79 80
f 80 79 81
f 80 81 82
f 82 81 83
f 82 83 84
f 84 83 85
f 86 87 88
f 88 87 89
f 88 89 90
f 90 89 91
f 90 91 92
f 92 91 93
f 92 93 94
f 94 93 95
f 94 95 96
f 96 95 97
f 96 97 98
f 98 97 99
f 98 99 100
f 100 99 101
f 100 101 102
f 103 104 105
f 105 104 106
f 106 107 105
f 105 107 108
f 105 108 109
f 108 110 109
f 109 110 111
f 109 111 112
f 111 113 112
f 112 113 114
f 112 114 115
f 115 114 116
f 116 117 115
f 115 117 118
f 115 118 119
f 118 120 119
f 119 120 121
f 119 121 122
f 122 121 123
f 123 124 122
f 122 124 125
f 122 125 126
f 125 127 126
f 126 127 128
f 126 128 129
f 128 130 129
f 129 130 131
f 129 131 132
f 132 131 133
f 133 134 132
f 132 134 135
f 132 135 136
f 135 137 136
f 136 137 138
f 136 138 139
f 139 138 140
f 140 141 139
f 139 141 142
f 139 142 143
f 142 144 143
f 143 144 145
f 143 145 146
f 146 145 147
f 147 148 146
f 146 148 149
f 146 149 150
f 149 151 150
f 150 151 152
f 150 152 153
f 152 154 153
f 153 154 155
f 153 155 156
f 156 155 157
f 157 158 156
f 156 158 159
f 156 159 160
f 159 161 160
f 160 161 162
f 160 162 163
f 163 162 164
f 164 165 163
f 163 165 166
f 163 166 167
f 166 168 167
f 167 168 169
f 167 169 170
f 169 171 170
f 170 171 172
f 170 172 173
f 173 172 174
f 175 176 177
f 177 176 173
f 177 173 178
f 178 173 174
