v -0.03800005 -0.23619998 0.08649986
v -0.03800005 -0.23619998 0.08649986
v -0.03800005 -0.23619998 0.08649986
v -0.03800005 -0.23619998 0.12349992
v -0.03800005 -0.23619998 0.12349992
v -0.03800005 -0.22619999 0.14149993
v -0.03800005 -0.22619999 0.14149993
v -0.03800005 -0.22619999 0.14149993
v -0.03800005 -0.20020003 0.14149993
v -0.03800005 -0.20020003 0.14149993
v -0.03800005 -0.20020003 0.14149993
v -0.03800005 -0.19019998 0.08649986
v -0.03800005 -0.19019998 0.08649986
v -0.03800005 -0.19019998 0.08649986
v -0.03800005 -0.19019998 0.12349992
v -0.03800005 -0.19019998 0.12349992
v 0.03800005 -0.23619998 0.08649986
v 0.03800005 -0.23619998 0.08649986
v 0.03800005 -0.23619998 0.08649986
v 0.03800005 -0.23619998 0.12349992
v 0.03800005 -0.23619998 0.12349992
v 0.03800005 -0.22619999 0.14149993
v 0.03800005 -0.22619999 0.14149993
v 0.03800005 -0.22619999 0.14149993
v 0.03800005 -0.20020003 0.14149993
v 0.03800005 -0.20020003 0.14149993
v 0.03800005 -0.20020003 0.14149993
v 0.03800005 -0.19019998 0.08649986
v 0.03800005 -0.19019998 0.08649986
v 0.03800005 -0.19019998 0.08649986
v 0.03800005 -0.19019998 0.12349992
v 0.03800005 -0.19019998 0.12349992
vt -3.85812576 -0.62069847
vt -3.85812576 1.41290166
vt 1.41290166 -0.62069847
vt -3.85812576 2.01726617
vt 2.01726617 -0.62069847
vt -3.69478442 -0.62069847
vt -3.69478442 2.31128096
vt 2.31128096 -0.62069847
vt -3.27009713 -0.62069847
vt -3.27009713 2.31128096
vt 2.31128096 -0.62069847
vt -3.10675482 -0.62069847
vt -3.10675482 1.41290166
vt 1.41290166 -0.62069847
vt -3.10675482 2.01726617
vt 2.01726617 -0.62069847
vt -3.85812576 0.62069842
vt -3.85812576 1.41290166
vt 1.41290166 0.62069842
vt -3.85812576 2.01726617
vt 2.01726617 0.62069842
vt -3.69478442 0.62069842
vt -3.69478442 2.31128096
vt 2.31128096 0.62069842
vt -3.27009713 0.62069842
vt -3.27009713 2.31128096
vt 2.31128096 0.62069842
vt -3.10675482 0.62069842
vt -3.10675482 1.41290166
vt 1.41290166 0.62069842
vt -3.10675482 2.01726617
vt 2.01726617 0.62069842
f 5/5 3/3 21/21
f 21/21 3/3 19/19
f 26/26 23/23 31/31
f 31/31 23/23 20/20
f 31/31 20/20 29/29
f 29/29 20/20 18/18
f 32/32 30/30 16/16
f 16/16 30/30 14/14
f 7/7 10/10 4/4
f 4/4 10/10 15/15
f 4/4 15/15 2/2
f 2/2 15/15 13/13
f 6/6 22/22 9/9
f 9/9 22/22 25/25
f 12/12 28/28 1/1
f 1/1 28/28 17/17
f 21/21 24/24 5/5
f 5/5 24/24 8/8
f 27/27 32/32 11/11
f 11/11 32/32 16/16
