v -0.00378424083 -0.194760029 0.0660414014
v -0.00378424083 -0.194750016 0.0660414014
v -0.00378424083 -0.194760029 0.0661222253
v -0.00378424083 -0.194750016 0.0661984001
v -0.00378424083 -0.194760029 0.0661984001
v -0.0247214452 -0.211023037 0.0675511871
v -0.0247214452 -0.211023037 0.0697649036
v -0.0247214452 -0.210850005 0.0674149309
v -0.0247214452 -0.207213049 0.0697649036
v -0.0247214452 -0.207213049 0.0674149309
v -0.0257214919 -0.214821463 0.0497493063
v -0.0257214919 -0.221788053 0.0512148653
v -0.0257214919 -0.213599925 0.050162128
v -0.0257214919 -0.212958043 0.0512148653
v -0.0257214919 -0.212442343 0.0507301603
v -0.0257214919 -0.216086333 0.0494988475
v -0.0257214919 -0.217373018 0.0494149242
v -0.0257214919 -0.218659704 0.0494988475
v -0.0257214919 -0.219924574 0.0497493063
v -0.0257214919 -0.221146171 0.050162128
v -0.0257214919 -0.222303753 0.0507301603
v -0.0239594594 -0.211023037 0.0675511871
v -0.0239594594 -0.211023037 0.0697649036
f 1 2 3
f 3 2 4
f 3 4 5
f 6 7 8
f 8 7 9
f 8 9 10
f 11 12 13
f 13 12 14
f 13 14 15
f 11 16 12
f 12 16 17
f 12 17 18
f 18 19 12
f 12 19 20
f 12 20 21
f 6 22 7
f 7 22 23
