v 0.0112701043 -0.223522966 0.0619291578
v 0.0112801179 -0.223522966 0.0619291578
v 0.0112801179 -0.22351176 0.0619277273
v 0.0112701043 -0.22351176 0.0619277273
v 0.0112801179 -0.223501806 0.0619237934
v 0.0112701043 -0.223501806 0.0619237934
v 0.0112801179 -0.223492925 0.0619174753
v 0.0112701043 -0.223492925 0.0619174753
v 0.0112801179 -0.223486965 0.0619109188
v 0.0112701043 -0.223486965 0.0619109188
v 0.0112801179 -0.223481421 0.0619010244
v 0.0112701043 -0.223481421 0.0619010244
v 0.0112801179 -0.223478501 0.0618900571
v 0.0112701043 -0.223478501 0.0618900571
v 0.0112801179 -0.223478143 0.0618843351
v 0.0112701043 -0.223478143 0.0618843351
v 0.0112701043 -0.22466809 0.0620435987
v 0.0112701043 -0.224726086 0.0620435987
v 0.0112801179 -0.22466809 0.0620435987
v 0.0112801179 -0.224726086 0.0620435987
v 0.0112701043 -0.224629645 0.0618633543
v 0.0112701043 -0.224629645 0.0618402277
v 0.0112801179 -0.224629645 0.0618633543
v 0.0112801179 -0.224629645 0.0618402277
v 0.0112801179 -0.224291806 0.0621860538
v 0.0112701043 -0.224291806 0.0621860538
v 0.0112801179 -0.224346762 0.0621860538
v 0.0112701043 -0.224374955 0.0621860538
v 0.0112801179 -0.224374955 0.0621860538
v 0.0151855334 -0.224448745 0.0612599168
v 0.0151855334 -0.224051361 0.0612599168
v 0.0151855334 -0.224448745 0.0611599002
v 0.0151855334 -0.224051361 0.0611599002
v 0.0122300967 -0.225340073 0.0691998516
v 0.0122300967 -0.225200062 0.0691998516
v 0.0122300967 -0.225590055 0.0689498697
v 0.0122300967 -0.22495008 0.0689498697
v 0.0122300967 -0.225590055 0.0631999288
v 0.0122300967 -0.22495008 0.0631999288
v 0.0251515492 -0.229214852 0.0718988691
v 0.0250336512 -0.229214852 0.0718988691
v 0.0251515492 -0.229214852 0.071899942
v 0.0250336512 -0.229214852 0.071899942
v 0.0275828227 -0.229300086 0.0611998354
v 0.0274999722 -0.22950006 0.0613998685
v 0.0198000058 -0.229300086 0.0611998354
v 0.020000039 -0.22950006 0.0613998685
f 1 2 3
f 1 3 4
f 4 3 5
f 4 5 6
f 6 5 7
f 6 7 8
f 8 7 9
f 8 9 10
f 10 9 11
f 10 11 12
f 12 11 13
f 12 13 14
f 14 13 15
f 14 15 16
f 17 18 19
f 19 18 20
f 21 22 23
f 23 22 24
f 25 26 27
f 27 26 28
f 27 28 29
f 30 31 32
f 32 31 33
f 34 35 36
f 36 35 37
f 36 37 38
f 38 37 39
f 40 41 42
f 42 41 43
f 44 45 46
f 46 45 47
