v 0.00800543869 -0.198293691 0.0682280574
v 0.00800460423 -0.198310618 0.068225554
v 0.00799542511 -0.198293154 0.0682280574
v 0.00799459065 -0.198310142 0.0682254348
v 0.00799435223 -0.19831491 0.0682247196
v 0.00800436581 -0.19831497 0.0682248388
v 0.00799411381 -0.198321109 0.0682225738
v 0.00800412739 -0.198321526 0.0682225738
v 0.00799387539 -0.1983254 0.0682210241
v 0.00800388897 -0.198325937 0.0682210241
v 0.00799375618 -0.198327427 0.0682194744
v 0.00800376976 -0.198327904 0.0682194744
v 0.00800305451 -0.198345785 0.0682062421
v 0.00799304093 -0.198345427 0.0682062421
f 1 2 3
f 3 2 4
f 4 2 5
f 5 2 6
f 5 6 7
f 7 6 8
f 7 8 9
f 9 8 10
f 9 10 11
f 10 12 11
f 11 12 13
f 11 13 14
