v -0.0236299649 -0.197852735 0.0622313533
v -0.0236399785 -0.197852735 0.0622313533
v -0.0236399785 -0.197878246 0.062282971
v -0.0236299649 -0.197878246 0.062282971
v -0.0236399785 -0.197923963 0.0623391185
v -0.0236299649 -0.197923963 0.0623391185
v -0.0236399785 -0.197930818 0.0623455558
v -0.0236299649 -0.197930818 0.0623455558
v -0.0236299649 -0.197073345 0.0618759904
v -0.0236299649 -0.197033648 0.0619854246
v -0.0236399785 -0.197073345 0.0618759904
v -0.0236399785 -0.197033648 0.0619854246
v -0.0236299649 -0.196755831 0.062162808
v -0.0236299649 -0.196776574 0.0622184787
v -0.0236399785 -0.196755831 0.062162808
v -0.0236399785 -0.196776574 0.0622184787
v -0.0236299649 -0.196861272 0.0622184787
v -0.0236299649 -0.196880822 0.062162808
v -0.0236399785 -0.196861272 0.0622184787
v -0.0236399785 -0.196880822 0.062162808
v -0.0236299649 -0.19690979 0.062162808
v -0.0236399785 -0.19690979 0.062162808
v -0.0236399785 -0.19720823 0.0621860538
v -0.0236299649 -0.19720823 0.0621860538
v -0.0236399785 -0.197153275 0.0621860538
v -0.0236299649 -0.197125082 0.0621860538
v -0.0236399785 -0.197125082 0.0621860538
v -0.0274108068 -0.197205131 0.0612599168
v -0.0274108068 -0.197256391 0.0612599168
v -0.0274108068 -0.197205131 0.0611599002
v -0.0274108068 -0.197256391 0.0611599002
v -0.0271735803 -0.197051291 0.0612599168
v -0.0271735803 -0.197205131 0.0612599168
v -0.0271735803 -0.197051291 0.0611599002
v -0.0271735803 -0.197205131 0.0611599002
v -0.0275453941 -0.197448735 0.0612599168
v -0.0276027337 -0.197448735 0.0612599168
v -0.0275453941 -0.197448735 0.0611599002
v -0.0276027337 -0.197448735 0.0611599002
v -0.025229992 -0.196550016 0.0611599002
v -0.025229992 -0.196550016 0.0579098974
v -0.0245899573 -0.196550016 0.0611599002
v -0.0245899573 -0.196550016 0.0579098974
v -0.025229992 -0.198840027 0.0691998516
v -0.025229992 -0.199090009 0.0689498697
v -0.0245899573 -0.198840027 0.0691998516
v -0.0245899573 -0.199090009 0.0689498697
v -0.0277699844 -0.198449974 0.0689498697
v -0.0271299497 -0.198449974 0.0689498697
v -0.0277699844 -0.198449974 0.0631999288
v -0.0271299497 -0.198449974 0.0631999288
v 0.158765016 -0.0660941648 0.12899988
v 0.158538996 -0.0657668161 0.12899988
v 0.157000004 -0.0667320537 0.12899988
v 0.161235033 -0.0639058399 0.12899988
v 0.161461054 -0.0642331886 0.12899988
v 0.163000046 -0.063267951 0.12899988
v 0.161602078 -0.0646051216 0.12899988
v 0.16165 -0.0650000024 0.12899988
v 0.163000046 -0.0667320537 0.12899988
v 0.161602078 -0.0653948831 0.12899988
v 0.161461054 -0.0657668161 0.12899988
v 0.158397971 -0.0653948831 0.12899988
v 0.158350049 -0.0650000024 0.12899988
v 0.157000004 -0.063267951 0.12899988
v 0.158397971 -0.0646051216 0.12899988
v 0.158538996 -0.0642331886 0.12899988
v 0.161235033 -0.0660941648 0.12899988
v 0.160937248 -0.0663579154 0.12899988
v 0.160000025 -0.0684641051 0.12899988
v 0.160585104 -0.0665427494 0.12899988
v 0.160198866 -0.0666379976 0.12899988
v 0.159801064 -0.0666379976 0.12899988
v 0.159414945 -0.0665427494 0.12899988
v 0.159062682 -0.0663579154 0.12899988
v 0.158765016 -0.0639058399 0.12899988
v 0.159062682 -0.0636420893 0.12899988
v 0.160000025 -0.0615358996 0.12899988
v 0.159414945 -0.0634571957 0.12899988
v 0.159801064 -0.0633620071 0.12899988
v 0.160198866 -0.0633620071 0.12899988
v 0.160585104 -0.0634571957 0.12899988
v 0.160937248 -0.0636420893 0.12899988
v 0.158765016 -0.0639058399 0.0789999281
v 0.158538996 -0.0642331886 0.0789999281
v 0.157000004 -0.063267951 0.0789999281
v 0.161235033 -0.0660941648 0.0789999281
v 0.161461054 -0.0657668161 0.0789999281
v 0.163000046 -0.0667320537 0.0789999281
v 0.158397971 -0.0646051216 0.0789999281
v 0.158350049 -0.0650000024 0.0789999281
v 0.157000004 -0.0667320537 0.0789999281
v 0.158397971 -0.0653948831 0.0789999281
v 0.158538996 -0.0657668161 0.0789999281
v 0.161602078 -0.0653948831 0.0789999281
v 0.16165 -0.0650000024 0.0789999281
v 0.163000046 -0.063267951 0.0789999281
v 0.161602078 -0.0646051216 0.0789999281
v 0.161461054 -0.0642331886 0.0789999281
v 0.161235033 -0.0639058399 0.0789999281
v 0.160937248 -0.0636420893 0.0789999281
v 0.160000025 -0.0615358996 0.0789999281
v 0.160585104 -0.0634571957 0.0789999281
v 0.160198866 -0.0633620071 0.0789999281
v 0.158765016 -0.0660941648 0.0789999281
v 0.159062682 -0.0663579154 0.0789999281
v 0.160000025 -0.0684641051 0.0789999281
v 0.159414945 -0.0665427494 0.0789999281
v 0.159801064 -0.0666379976 0.0789999281
v 0.159801064 -0.0633620071 0.0789999281
v 0.159414945 -0.0634571957 0.0789999281
v 0.159062682 -0.0636420893 0.0789999281
v 0.160198866 -0.0666379976 0.0789999281
v 0.160585104 -0.0665427494 0.0789999281
v 0.160937248 -0.0663579154 0.0789999281
v -0.1587649 -0.0639058399 0.12899988
v -0.158538999 -0.0642331886 0.12899988
v -0.157000007 -0.063267951 0.12899988
v -0.161235036 -0.0660941648 0.12899988
v -0.161461057 -0.0657668161 0.12899988
v -0.163000049 -0.0667320537 0.12899988
v -0.158397974 -0.0646051216 0.12899988
v -0.158350052 -0.0650000024 0.12899988
v -0.157000007 -0.0667320537 0.12899988
v -0.158397974 -0.0653948831 0.12899988
v -0.158538999 -0.0657668161 0.12899988
v -0.161602081 -0.0653948831 0.12899988
v -0.161650004 -0.0650000024 0.12899988
v -0.163000049 -0.063267951 0.12899988
v -0.161602081 -0.0646051216 0.12899988
v -0.161461057 -0.0642331886 0.12899988
v -0.161235036 -0.0639058399 0.12899988
v -0.160937251 -0.0636420893 0.12899988
v -0.160000028 -0.0615358996 0.12899988
v -0.160585107 -0.0634571957 0.12899988
v -0.160198869 -0.0633620071 0.12899988
v -0.1587649 -0.0660941648 0.12899988
v -0.159062685 -0.0663579154 0.12899988
v -0.160000028 -0.0684641051 0.12899988
v -0.159414949 -0.0665427494 0.12899988
v -0.159801067 -0.0666379976 0.12899988
v -0.159801067 -0.0633620071 0.12899988
v -0.159414949 -0.0634571957 0.12899988
v -0.159062685 -0.0636420893 0.12899988
v -0.160198869 -0.0666379976 0.12899988
v -0.160585107 -0.0665427494 0.12899988
v -0.160937251 -0.0663579154 0.12899988
v -0.157000007 -0.0667320537 0.0789999281
v -0.160000028 -0.0684641051 0.0789999281
v -0.157000007 -0.063267951 0.0789999281
v -0.160000028 -0.0615358996 0.0789999281
v -0.163000049 -0.063267951 0.0789999281
v -0.163000049 -0.0667320537 0.0789999281
v -0.158350052 -0.0650000024 0.0789999281
v -0.158397974 -0.0653948831 0.0789999281
v -0.158538999 -0.0657668161 0.0789999281
v -0.1587649 -0.0660941648 0.0789999281
v -0.159062685 -0.0663579154 0.0789999281
v -0.159414949 -0.0665427494 0.0789999281
v -0.159801067 -0.0666379976 0.0789999281
v -0.160198869 -0.0666379976 0.0789999281
v -0.160585107 -0.0665427494 0.0789999281
v -0.160937251 -0.0663579154 0.0789999281
v -0.161235036 -0.0660941648 0.0789999281
v -0.161461057 -0.0657668161 0.0789999281
v -0.161602081 -0.0653948831 0.0789999281
v -0.161650004 -0.0650000024 0.0789999281
v -0.161602081 -0.0646051216 0.0789999281
v -0.161461057 -0.0642331886 0.0789999281
v -0.161235036 -0.0639058399 0.0789999281
v -0.160937251 -0.0636420893 0.0789999281
v -0.160585107 -0.0634571957 0.0789999281
v -0.160198869 -0.0633620071 0.0789999281
v -0.159801067 -0.0633620071 0.0789999281
v -0.159414949 -0.0634571957 0.0789999281
v -0.159062685 -0.0636420893 0.0789999281
v -0.1587649 -0.0639058399 0.0789999281
v -0.158538999 -0.0642331886 0.0789999281
v -0.158397974 -0.0646051216 0.0789999281
v -0.0684641019 0.160000021 0.0789999281
v -0.0666379348 0.160198863 0.0789999281
v -0.0666379348 0.159801061 0.0789999281
v -0.0663579122 0.159062679 0.0789999281
v -0.066094102 0.158765013 0.0789999281
v -0.0667321101 0.157000001 0.0789999281
v -0.064605178 0.158397968 0.0789999281
v -0.064233245 0.158538992 0.0789999281
v -0.0632680074 0.157000001 0.0789999281
v -0.0665428058 0.159414942 0.0789999281
v -0.0653948203 0.161602075 0.0789999281
v -0.0657667533 0.161461051 0.0789999281
v -0.0667321101 0.163000042 0.0789999281
v -0.0657667533 0.158538992 0.0789999281
v -0.0653948203 0.158397968 0.0789999281
v -0.0649999992 0.158350046 0.0789999281
v -0.0639058963 0.158765013 0.0789999281
v -0.0636420861 0.159062679 0.0789999281
v -0.0615358964 0.160000021 0.0789999281
v -0.0634571925 0.159414942 0.0789999281
v -0.0633620635 0.159801061 0.0789999281
v -0.0633620635 0.160198863 0.0789999281
v -0.0634571925 0.160585101 0.0789999281
v -0.0632680074 0.163000042 0.0789999281
v -0.0636420861 0.160937364 0.0789999281
v -0.0639058963 0.16123503 0.0789999281
v -0.064233245 0.161461051 0.0789999281
v -0.064605178 0.161602075 0.0789999281
v -0.0649999992 0.161649997 0.0789999281
v -0.066094102 0.16123503 0.0789999281
v -0.0663579122 0.160937364 0.0789999281
v -0.0665428058 0.160585101 0.0789999281
v -0.0667321101 0.157000001 0.12899988
v -0.0684641019 0.160000021 0.12899988
v -0.0615358964 0.160000021 0.12899988
v -0.0632680074 0.157000001 0.12899988
v -0.0667321101 0.163000042 0.12899988
v -0.0632680074 0.163000042 0.12899988
v -0.0646699086 -0.208383327 0.0789999281
v -0.0650663987 -0.208351319 0.0789999281
v -0.0649999992 -0.206535881 0.0789999281
v -0.0654590741 -0.208415155 0.0789999281
v -0.0658250467 -0.208571081 0.0789999281
v -0.0680000201 -0.208267932 0.0789999281
v -0.0661429778 -0.208810036 0.0789999281
v -0.0663945094 -0.209118133 0.0789999281
v -0.0636054889 -0.210881894 0.0789999281
v -0.0634349004 -0.210522478 0.0789999281
v -0.0619999782 -0.211732035 0.0789999281
v -0.0633553878 -0.210132782 0.0789999281
v -0.0619999782 -0.208267932 0.0789999281
v -0.0633713618 -0.209735339 0.0789999281
v -0.0634819881 -0.209353273 0.0789999281
v -0.0665650979 -0.209477489 0.0789999281
v -0.0666446105 -0.209867244 0.0789999281
v -0.0680000201 -0.211732035 0.0789999281
v -0.0666286365 -0.210264688 0.0789999281
v -0.0665180103 -0.210646753 0.0789999281
v -0.0649999992 -0.213464086 0.0789999281
v -0.0653300897 -0.21161664 0.0789999281
v -0.0649335996 -0.211648648 0.0789999281
v -0.0636809484 -0.209008758 0.0789999281
v -0.063956441 -0.208721881 0.0789999281
v -0.0642926112 -0.208509331 0.0789999281
v -0.0663190499 -0.210991209 0.0789999281
v -0.0660435573 -0.211278086 0.0789999281
v -0.0657073871 -0.211490695 0.0789999281
v -0.0645409242 -0.211584871 0.0789999281
v -0.0641749517 -0.211428945 0.0789999281
v -0.0638570205 -0.21118999 0.0789999281
v -0.0680000201 -0.208267932 0.12899988
v -0.0680000201 -0.211732035 0.12899988
v -0.0649999992 -0.206535881 0.12899988
v -0.0619999782 -0.208267932 0.12899988
v -0.0619999782 -0.211732035 0.12899988
v -0.0649999992 -0.213464086 0.12899988
v 0.00228482331 -0.182728653 0.1258158
v 0.00235563362 -0.182728653 0.12587314
v 0.00194388474 -0.182728653 0.12578111
v 0.0012735709 -0.182728653 0.125714234
v 0.00122803295 -0.182728653 0.125800303
v 0.000989852794 -0.182728653 0.125783733
v 0.00229984368 -0.182728653 0.126459054
v 0.00221389378 -0.182728653 0.126504592
v 0.00211864556 -0.182728653 0.126527122
v 0.000979839213 -0.182728653 0.126020125
v 0.00126129235 -0.182728653 0.126139692
v 0.00113946045 -0.182728653 0.126198581
v 0.00219517792 -0.182728653 0.126040033
v 0.00221627796 -0.182728653 0.126070908
v 0.00241249646 -0.182728653 0.125948599
v 0.00222939099 -0.182728653 0.126106671
v 0.00189214791 -0.182728653 0.125697068
v 0.00218552197 -0.182728653 0.125722459
v 0.00220221127 -0.182728653 0.125777176
v 0.00097209061 -0.182728653 0.125931433
v 0.00175493801 -0.182728653 0.127069048
v 0.00155049408 -0.182728653 0.126949481
v 0.00204020584 -0.182728653 0.126529149
v 0.00182050312 -0.182728653 0.126432708
v 0.00207882965 -0.182728653 0.126529149
v 0.00241988743 -0.182728653 0.126322797
v 0.00236648167 -0.182728653 0.126399687
v 0.00202482785 -0.182728653 0.126278571
v 0.0020601138 -0.182728653 0.126288465
v 0.00209754551 -0.182728653 0.1262893
v 0.00213473881 -0.182728653 0.126280716
v 0.00216823662 -0.182728653 0.126263312
v 0.00137311066 -0.182728653 0.127196244
v 0.00137311066 -0.182728653 0.127227119
v 0.00116497124 -0.182728653 0.127385191
v 0.00138217057 -0.182728653 0.127300314
v 0.00117140854 -0.182728653 0.127404264
v 0.00140803898 -0.182728653 0.127367667
v 0.00122839058 -0.182728653 0.127519063
v 0.00131684388 -0.182728653 0.127623609
v 0.000887809642 -0.182728653 0.126099161
v 0.001036106 -0.182728653 0.126285008
v 0.000810204394 -0.182728653 0.12618976
v 0.000960408099 -0.182728653 0.126388601
v 0.000739990123 -0.182728653 0.1263073
v 0.0012055024 -0.182728653 0.125895432
v 0.00120347584 -0.182728653 0.125935367
v 0.000974594005 -0.182728653 0.125975779
v 0.0012145623 -0.182728653 0.12602537
v 0.00124615277 -0.182728653 0.126111797
v 0.00216728295 -0.182728653 0.126015357
v 0.00213557328 -0.182728653 0.125998787
v 0.00210004891 -0.182728653 0.125990323
v 0.00244992817 -0.182728653 0.12603753
v 0.00246411408 -0.182728653 0.126128605
v 0.00223308647 -0.182728653 0.126139692
v 0.0024643525 -0.182728653 0.126143507
v 0.00222891415 -0.182728653 0.126174978
v 0.0024529084 -0.182728653 0.126236847
v 0.00221639717 -0.182728653 0.126208714
v 0.00219601239 -0.182728653 0.126238397
v 0.00203639115 -0.182728653 0.127624205
v 0.00188344563 -0.182728653 0.127444318
v 0.00212520207 -0.182728653 0.127519301
v 0.00193005646 -0.182728653 0.127387336
v 0.00218278015 -0.182728653 0.127401641
v 0.00196152771 -0.182728653 0.127319268
v 0.00220995987 -0.182728653 0.127273372
v 0.00197464073 -0.182728653 0.127250246
v 0.00220995987 -0.182728653 0.127045802
v 0.00197464073 -0.182728653 0.127076677
v 0.00220638359 -0.182728653 0.127024106
v 0.00144988144 -0.182728653 0.12742751
v 0.00149971093 -0.182728653 0.127472094
v 0.00142651642 -0.182728653 0.127702287
v 0.00156622971 -0.182728653 0.127507976
v 0.0015442952 -0.182728653 0.127749375
v 0.00164037789 -0.182728653 0.127525977
v 0.001670061 -0.182728653 0.127766899
v 0.0016738757 -0.182728653 0.127527884
v 0.00180786694 -0.182728653 0.127749256
v 0.00174897755 -0.182728653 0.127518586
v 0.00192993725 -0.182728653 0.127700738
v 0.0018176421 -0.182728653 0.127492002
v 0.00187784279 -0.182728653 0.127449683
v 0.000860272296 -0.182728653 0.127176932
v 0.00103777493 -0.182728653 0.127026371
v 0.00102346981 -0.182728653 0.127314738
v 0.00114172543 -0.182728653 0.127113274
v 0.00126606072 -0.182728653 0.12717276
v 0.00149577702 -0.182728653 0.125561169
v 0.00155633534 -0.182728653 0.125308088
v 0.00158911789 -0.182728653 0.125549725
v 0.00159674729 -0.182728653 0.125306777
v 0.0016482457 -0.182728653 0.125554255
v 0.00174373234 -0.182728653 0.12532442
v 0.00174265946 -0.182728653 0.125581912
v 0.00188749874 -0.182728653 0.12537866
v 0.00182109917 -0.182728653 0.125627926
v 0.00201707924 -0.182728653 0.125468782
v 0.00211626137 -0.182728653 0.125583819
v 0.002065359 -0.182728653 0.125990323
v 0.00202828492 -0.182728653 0.125999383
v 0.00186079586 -0.182728653 0.125823787
v 0.00199502552 -0.182728653 0.126017502
v 0.00178795899 -0.182728653 0.125887564
v 0.00196987236 -0.182728653 0.126040391
v 0.00173324192 -0.182728653 0.125966362
v 0.00194901074 -0.182728653 0.126070908
v 0.00170069779 -0.182728653 0.126051596
v 0.00193637455 -0.182728653 0.126104764
v 0.0016893729 -0.182728653 0.126143507
v 0.00193232144 -0.182728653 0.126139692
v 0.00169211472 -0.182728653 0.126190475
v 0.00193482483 -0.182728653 0.126167348
v 0.00171524132 -0.182728653 0.126283578
v 0.00194662655 -0.182728653 0.126203588
v 0.00175911034 -0.182728653 0.126365474
v 0.00196665371 -0.182728653 0.126235298
v 0.00199371422 -0.182728653 0.126260928
v 0.000677405246 -0.182728653 0.12648671
v 0.000909386523 -0.182728653 0.126514486
v 0.000659762271 -0.182728653 0.12665253
v 0.000891147502 -0.182728653 0.126656345
v 0.000676451572 -0.182728653 0.126811436
v 0.000907240756 -0.182728653 0.126786998
v 0.000744639285 -0.182728653 0.127004913
v 0.00095349396 -0.182728653 0.126907996
v 0.00102871502 -0.182728653 0.127016357
v 0.00104421223 -0.182728653 0.125640682
v 0.00112956608 -0.182728653 0.125517419
v 0.00133305634 -0.182728653 0.125647596
v 0.00115722264 -0.182728653 0.125487975
v 0.00140982712 -0.182728653 0.12559419
v 0.00127309407 -0.182728653 0.125397137
v 0.00141149605 -0.182728653 0.125334791
v 0.00197106446 -0.182728653 0.127057365
v 0.00216942871 -0.182728653 0.12696462
v 0.00217860783 -0.182728653 0.126973561
v 0.00197368706 -0.182728653 0.127068928
v 0.00219637001 -0.182728653 0.126998595
v 0.00209039295 -0.182728653 0.126933983
v 0.00211912239 -0.182728653 0.126937679
v 0.00214522923 -0.182728653 0.126947812
v 0.00197464073 -0.182728653 0.127023629
v 0.00198513115 -0.182728653 0.126997284
v 0.00207513417 -0.182728653 0.126935056
v 0.00200193966 -0.182728653 0.126973561
v 0.00201946343 -0.182728653 0.126957587
v 0.00204580868 -0.182728653 0.126942805
v 0.00197082604 -0.182728653 0.12705355
v 0.000912605174 -0.182728653 0.130132488
v 0.000912605174 -0.182690566 0.130132488
v 0.000896392711 -0.182690566 0.130137137
v 0.000896392711 -0.182728653 0.130137137
v 0.000874577411 -0.182690566 0.130141309
v 0.000874577411 -0.182728653 0.130141309
v 0.00119930352 -0.182728653 0.130029133
v 0.00134759987 -0.182728653 0.129977039
v 0.00119930352 -0.182690566 0.130029133
v 0.00134759987 -0.182690566 0.129977039
v 0.00134759987 -0.182728653 0.129899672
v 0.00134759987 -0.182690566 0.129899672
v 0.000805316814 -0.182728653 0.130106262
v 0.000805316814 -0.182690566 0.130106262
v -0.211616696 0.0653300238 0.0789999281
v -0.211648645 0.0649335337 0.0789999281
v -0.213464083 0.0649999929 0.0789999281
v -0.208383383 0.064669962 0.0789999281
v -0.208351316 0.0650664521 0.0789999281
v -0.206535877 0.0649999929 0.0789999281
v -0.209118189 0.0663945627 0.0789999281
v -0.209477486 0.0665650916 0.0789999281
v -0.208267988 0.0680000139 0.0789999281
v -0.209867181 0.0666446638 0.0789999281
v -0.211732091 0.0680000139 0.0789999281
v -0.210264625 0.0666286302 0.0789999281
v -0.21064669 0.0665179444 0.0789999281
v -0.211584868 0.0645409179 0.0789999281
v -0.211428942 0.064175005 0.0789999281
v -0.211732091 0.0619999719 0.0789999281
v -0.211189927 0.0638570142 0.0789999281
v -0.21088189 0.063605423 0.0789999281
v -0.210522474 0.0634348941 0.0789999281
v -0.210132779 0.0633553219 0.0789999281
v -0.208267988 0.0619999719 0.0789999281
v -0.209735335 0.0633713556 0.0789999281
v -0.20935327 0.0634820414 0.0789999281
v -0.208415093 0.0654590678 0.0789999281
v -0.208571018 0.0658249808 0.0789999281
v -0.208810033 0.0661429715 0.0789999281
v -0.210991205 0.0663191033 0.0789999281
v -0.211278142 0.066043551 0.0789999281
v -0.211490692 0.0657073212 0.0789999281
v -0.209008755 0.0636809421 0.0789999281
v -0.208721937 0.0639564944 0.0789999281
v -0.208509268 0.0642926646 0.0789999281
v -0.208415093 0.0654590678 0.12899988
v -0.208351316 0.0650664521 0.12899988
v -0.206535877 0.0649999929 0.12899988
v -0.211584868 0.0645409179 0.12899988
v -0.211648645 0.0649335337 0.12899988
v -0.213464083 0.0649999929 0.12899988
v -0.209008755 0.0636809421 0.12899988
v -0.20935327 0.0634820414 0.12899988
v -0.208267988 0.0619999719 0.12899988
v -0.209735335 0.0633713556 0.12899988
v -0.211732091 0.0619999719 0.12899988
v -0.210132779 0.0633553219 0.12899988
v -0.210522474 0.0634348941 0.12899988
v -0.21088189 0.063605423 0.12899988
v -0.211189927 0.0638570142 0.12899988
v -0.211428942 0.064175005 0.12899988
v -0.210991205 0.0663191033 0.12899988
v -0.21064669 0.0665179444 0.12899988
v -0.211732091 0.0680000139 0.12899988
v -0.210264625 0.0666286302 0.12899988
v -0.208267988 0.0680000139 0.12899988
v -0.209867181 0.0666446638 0.12899988
v -0.209477486 0.0665650916 0.12899988
v -0.209118189 0.0663945627 0.12899988
v -0.208810033 0.0661429715 0.12899988
v -0.208571018 0.0658249808 0.12899988
v -0.208383383 0.064669962 0.12899988
v -0.208509268 0.0642926646 0.12899988
v -0.208721937 0.0639564944 0.12899988
v -0.211616696 0.0653300238 0.12899988
v -0.211490692 0.0657073212 0.12899988
v -0.211278142 0.066043551 0.12899988
v 0.0653300866 0.21161669 0.0789999281
v 0.0649335965 0.211648638 0.0789999281
v 0.0649999961 0.213464077 0.0789999281
v 0.0646699056 0.208383377 0.0789999281
v 0.0650663956 0.208351309 0.0789999281
v 0.0649999961 0.206535871 0.0789999281
v 0.0665180072 0.210646803 0.0789999281
v 0.0663190469 0.210991199 0.0789999281
v 0.0680000171 0.211732085 0.0789999281
v 0.0660435542 0.211278136 0.0789999281
v 0.065707384 0.211490686 0.0789999281
v 0.063481985 0.209353263 0.0789999281
v 0.0636809453 0.209008749 0.0789999281
v 0.0619999751 0.208267982 0.0789999281
v 0.063956438 0.208721931 0.0789999281
v 0.0642926081 0.208509262 0.0789999281
v 0.0663945063 0.209118183 0.0789999281
v 0.0665650948 0.209477479 0.0789999281
v 0.0680000171 0.208267982 0.0789999281
v 0.0666446074 0.209867175 0.0789999281
v 0.0666286334 0.210264738 0.0789999281
v 0.0636054858 0.210881884 0.0789999281
v 0.0634348973 0.210522468 0.0789999281
v 0.0619999751 0.211732085 0.0789999281
v 0.0633553847 0.210132773 0.0789999281
v 0.0633713588 0.209735329 0.0789999281
v 0.065459071 0.208415086 0.0789999281
v 0.0658250436 0.208571012 0.0789999281
v 0.0661429747 0.208810027 0.0789999281
v 0.0645409211 0.211584861 0.0789999281
v 0.0641749486 0.211428936 0.0789999281
v 0.0638570174 0.21119004 0.0789999281
v 0.065459071 0.208415086 0.12899988
v 0.0650663956 0.208351309 0.12899988
v 0.0649999961 0.206535871 0.12899988
v 0.0645409211 0.211584861 0.12899988
v 0.0649335965 0.211648638 0.12899988
v 0.0649999961 0.213464077 0.12899988
v 0.0646699056 0.208383377 0.12899988
v 0.0642926081 0.208509262 0.12899988
v 0.0619999751 0.208267982 0.12899988
v 0.063956438 0.208721931 0.12899988
v 0.0636809453 0.209008749 0.12899988
v 0.0653300866 0.21161669 0.12899988
v 0.065707384 0.211490686 0.12899988
v 0.0680000171 0.211732085 0.12899988
v 0.0660435542 0.211278136 0.12899988
v 0.0663190469 0.210991199 0.12899988
v 0.063481985 0.209353263 0.12899988
v 0.0633713588 0.209735329 0.12899988
v 0.0619999751 0.211732085 0.12899988
v 0.0633553847 0.210132773 0.12899988
v 0.0634348973 0.210522468 0.12899988
v 0.0665180072 0.210646803 0.12899988
v 0.0666286334 0.210264738 0.12899988
v 0.0680000171 0.208267982 0.12899988
v 0.0666446074 0.209867175 0.12899988
v 0.0665650948 0.209477479 0.12899988
v 0.0636054858 0.210881884 0.12899988
v 0.0638570174 0.21119004 0.12899988
v 0.0641749486 0.211428936 0.12899988
v 0.0663945063 0.209118183 0.12899988
v 0.0661429747 0.208810027 0.12899988
v 0.0658250436 0.208571012 0.12899988
v -0.0639058963 -0.161235039 0.12899988
v -0.064233245 -0.161461 0.12899988
v -0.0632680074 -0.162999992 0.12899988
v -0.066094102 -0.158764963 0.12899988
v -0.0657667533 -0.158539002 0.12899988
v -0.0667321101 -0.15700001 0.12899988
v -0.064605178 -0.161602025 0.12899988
v -0.0649999992 -0.161650007 0.12899988
v -0.0667321101 -0.162999992 0.12899988
v -0.0653948203 -0.161602025 0.12899988
v -0.0657667533 -0.161461 0.12899988
v -0.0633620635 -0.15980113 0.12899988
v -0.0633620635 -0.160198872 0.12899988
v -0.0615358964 -0.159999971 0.12899988
v -0.0634571925 -0.16058511 0.12899988
v -0.0636420861 -0.160937314 0.12899988
v -0.066094102 -0.161235039 0.12899988
v -0.0663579122 -0.160937314 0.12899988
v -0.0684641019 -0.159999971 0.12899988
v -0.0665428058 -0.16058511 0.12899988
v -0.0666379348 -0.160198872 0.12899988
v -0.0653948203 -0.158397918 0.12899988
v -0.0649999992 -0.158349996 0.12899988
v -0.0632680074 -0.15700001 0.12899988
v -0.064605178 -0.158397918 0.12899988
v -0.064233245 -0.158539002 0.12899988
v -0.0666379348 -0.15980113 0.12899988
v -0.0665428058 -0.159414892 0.12899988
v -0.0663579122 -0.159062688 0.12899988
v -0.0639058963 -0.158764963 0.12899988
v -0.0636420861 -0.159062688 0.12899988
v -0.0634571925 -0.159414892 0.12899988
v -0.066094102 -0.161235039 0.0789999281
v -0.0657667533 -0.161461 0.0789999281
v -0.0667321101 -0.162999992 0.0789999281
v -0.0639058963 -0.158764963 0.0789999281
v -0.064233245 -0.158539002 0.0789999281
v -0.0632680074 -0.15700001 0.0789999281
v -0.0653948203 -0.161602025 0.0789999281
v -0.0649999992 -0.161650007 0.0789999281
v -0.0632680074 -0.162999992 0.0789999281
v -0.064605178 -0.161602025 0.0789999281
v -0.064233245 -0.161461 0.0789999281
v -0.0666379348 -0.15980113 0.0789999281
v -0.0666379348 -0.160198872 0.0789999281
v -0.0684641019 -0.159999971 0.0789999281
v -0.0665428058 -0.16058511 0.0789999281
v -0.0663579122 -0.160937314 0.0789999281
v -0.0639058963 -0.161235039 0.0789999281
v -0.0636420861 -0.160937314 0.0789999281
v -0.0615358964 -0.159999971 0.0789999281
v -0.0634571925 -0.16058511 0.0789999281
v -0.0633620635 -0.160198872 0.0789999281
v -0.064605178 -0.158397918 0.0789999281
v -0.0649999992 -0.158349996 0.0789999281
v -0.0667321101 -0.15700001 0.0789999281
v -0.0653948203 -0.158397918 0.0789999281
v -0.0657667533 -0.158539002 0.0789999281
v -0.0633620635 -0.15980113 0.0789999281
v -0.0634571925 -0.159414892 0.0789999281
v -0.0636420861 -0.159062688 0.0789999281
v -0.066094102 -0.158764963 0.0789999281
v -0.0663579122 -0.159062688 0.0789999281
v -0.0665428058 -0.159414892 0.0789999281
v -0.1587649 0.0660941553 0.12899988
v -0.158538999 0.0657668066 0.12899988
v -0.157000007 0.0667320442 0.12899988
v -0.161235036 0.0639058304 0.12899988
v -0.161461057 0.0642331791 0.12899988
v -0.163000049 0.0632679415 0.12899988
v -0.158397974 0.0653948736 0.12899988
v -0.158350052 0.0649999929 0.12899988
v -0.157000007 0.0632679415 0.12899988
v -0.158397974 0.0646051121 0.12899988
v -0.158538999 0.0642331791 0.12899988
v -0.161602081 0.0646051121 0.12899988
v -0.161650004 0.0649999929 0.12899988
v -0.163000049 0.0667320442 0.12899988
v -0.161602081 0.0653948736 0.12899988
v -0.161461057 0.0657668066 0.12899988
v -0.161235036 0.0660941553 0.12899988
v -0.160937251 0.0663579059 0.12899988
v -0.160000028 0.0684640956 0.12899988
v -0.160585107 0.0665427995 0.12899988
v -0.160198869 0.0666379881 0.12899988
v -0.1587649 0.0639058304 0.12899988
v -0.159062685 0.0636420799 0.12899988
v -0.160000028 0.0615358901 0.12899988
v -0.159414949 0.0634572459 0.12899988
v -0.159801067 0.0633620572 0.12899988
v -0.159801067 0.0666379881 0.12899988
v -0.159414949 0.0665427995 0.12899988
v -0.159062685 0.0663579059 0.12899988
v -0.160198869 0.0633620572 0.12899988
v -0.160585107 0.0634572459 0.12899988
v -0.160937251 0.0636420799 0.12899988
v -0.157000007 0.0667320442 0.0789999281
v -0.157000007 0.0632679415 0.0789999281
v -0.160000028 0.0684640956 0.0789999281
v -0.163000049 0.0667320442 0.0789999281
v -0.163000049 0.0632679415 0.0789999281
v -0.160000028 0.0615358901 0.0789999281
v -0.158350052 0.0649999929 0.0789999281
v -0.158397974 0.0646051121 0.0789999281
v -0.158538999 0.0642331791 0.0789999281
v -0.1587649 0.0639058304 0.0789999281
v -0.159062685 0.0636420799 0.0789999281
v -0.159414949 0.0634572459 0.0789999281
v -0.159801067 0.0633620572 0.0789999281
v -0.160198869 0.0633620572 0.0789999281
v -0.160585107 0.0634572459 0.0789999281
v -0.160937251 0.0636420799 0.0789999281
v -0.161235036 0.0639058304 0.0789999281
v -0.161461057 0.0642331791 0.0789999281
v -0.161602081 0.0646051121 0.0789999281
v -0.161650004 0.0649999929 0.0789999281
v -0.161602081 0.0653948736 0.0789999281
v -0.161461057 0.0657668066 0.0789999281
v -0.161235036 0.0660941553 0.0789999281
v -0.160937251 0.0663579059 0.0789999281
v -0.160585107 0.0665427995 0.0789999281
v -0.160198869 0.0666379881 0.0789999281
v -0.159801067 0.0666379881 0.0789999281
v -0.159414949 0.0665427995 0.0789999281
v -0.159062685 0.0663579059 0.0789999281
v -0.1587649 0.0660941553 0.0789999281
v -0.158538999 0.0657668066 0.0789999281
v -0.158397974 0.0653948736 0.0789999281
v 0.0684640988 0.160000021 0.12899988
v 0.0666379317 0.160198863 0.12899988
v 0.0666379317 0.159801061 0.12899988
v 0.0660940989 0.158765013 0.12899988
v 0.0657667502 0.158538992 0.12899988
v 0.0667321071 0.157000001 0.12899988
v 0.0663579091 0.159062679 0.12899988
v 0.0639058932 0.16123503 0.12899988
v 0.0642332419 0.161461051 0.12899988
v 0.0632680043 0.163000042 0.12899988
v 0.0665428027 0.159414942 0.12899988
v 0.0653948172 0.158397968 0.12899988
v 0.0649999961 0.158350046 0.12899988
v 0.0632680043 0.157000001 0.12899988
v 0.0646051749 0.158397968 0.12899988
v 0.0642332419 0.158538992 0.12899988
v 0.0639058932 0.158765013 0.12899988
v 0.0636420831 0.159062679 0.12899988
v 0.0615358933 0.160000021 0.12899988
v 0.0634571894 0.159414942 0.12899988
v 0.0633620604 0.159801061 0.12899988
v 0.0633620604 0.160198863 0.12899988
v 0.0634571894 0.160585101 0.12899988
v 0.0636420831 0.160937364 0.12899988
v 0.0646051749 0.161602075 0.12899988
v 0.0649999961 0.161649997 0.12899988
v 0.0667321071 0.163000042 0.12899988
v 0.0653948172 0.161602075 0.12899988
v 0.0657667502 0.161461051 0.12899988
v 0.0660940989 0.16123503 0.12899988
v 0.0663579091 0.160937364 0.12899988
v 0.0665428027 0.160585101 0.12899988
v 0.0615358933 0.160000021 0.0789999281
v 0.0633620604 0.160198863 0.0789999281
v 0.0633620604 0.159801061 0.0789999281
v 0.0636420831 0.159062679 0.0789999281
v 0.0639058932 0.158765013 0.0789999281
v 0.0632680043 0.157000001 0.0789999281
v 0.0653948172 0.158397968 0.0789999281
v 0.0657667502 0.158538992 0.0789999281
v 0.0667321071 0.157000001 0.0789999281
v 0.0634571894 0.159414942 0.0789999281
v 0.0646051749 0.161602075 0.0789999281
v 0.0642332419 0.161461051 0.0789999281
v 0.0632680043 0.163000042 0.0789999281
v 0.0642332419 0.158538992 0.0789999281
v 0.0646051749 0.158397968 0.0789999281
v 0.0649999961 0.158350046 0.0789999281
v 0.0660940989 0.158765013 0.0789999281
v 0.0663579091 0.159062679 0.0789999281
v 0.0684640988 0.160000021 0.0789999281
v 0.0665428027 0.159414942 0.0789999281
v 0.0666379317 0.159801061 0.0789999281
v 0.0666379317 0.160198863 0.0789999281
v 0.0665428027 0.160585101 0.0789999281
v 0.0667321071 0.163000042 0.0789999281
v 0.0663579091 0.160937364 0.0789999281
v 0.0660940989 0.16123503 0.0789999281
v 0.0657667502 0.161461051 0.0789999281
v 0.0653948172 0.161602075 0.0789999281
v 0.0649999961 0.161649997 0.0789999281
v 0.0639058932 0.16123503 0.0789999281
v 0.0636420831 0.160937364 0.0789999281
v 0.0634571894 0.160585101 0.0789999281
v 0.20838338 -0.0646699714 0.0789999281
v 0.208351313 -0.0650664615 0.0789999281
v 0.206535874 -0.0650000024 0.0789999281
v 0.211616693 -0.0653300333 0.0789999281
v 0.211648641 -0.0649335432 0.0789999281
v 0.21346408 -0.0650000024 0.0789999281
v 0.208415089 -0.0654590773 0.0789999281
v 0.208571015 -0.0658249902 0.0789999281
v 0.208267985 -0.0680000233 0.0789999281
v 0.20881003 -0.066142981 0.0789999281
v 0.209118186 -0.0663945722 0.0789999281
v 0.209477483 -0.0665651011 0.0789999281
v 0.209867178 -0.0666446733 0.0789999281
v 0.211732088 -0.0680000233 0.0789999281
v 0.210264622 -0.0666286397 0.0789999281
v 0.210646687 -0.0665179538 0.0789999281
v 0.211584865 -0.0645409274 0.0789999281
v 0.211428939 -0.0641750145 0.0789999281
v 0.211732088 -0.0619999814 0.0789999281
v 0.211190043 -0.0638570237 0.0789999281
v 0.210881887 -0.0636054325 0.0789999281
v 0.210522471 -0.0634349036 0.0789999281
v 0.210132776 -0.0633553314 0.0789999281
v 0.208267985 -0.0619999814 0.0789999281
v 0.209735332 -0.063371365 0.0789999281
v 0.209353267 -0.0634820509 0.0789999281
v 0.209008752 -0.063680892 0.0789999281
v 0.208721934 -0.0639564442 0.0789999281
v 0.208509265 -0.064292674 0.0789999281
v 0.210991202 -0.0663190531 0.0789999281
v 0.211278139 -0.0660435605 0.0789999281
v 0.211490689 -0.0657073307 0.0789999281
v 0.211584865 -0.0645409274 0.12899988
v 0.211648641 -0.0649335432 0.12899988
v 0.21346408 -0.0650000024 0.12899988
v 0.210991202 -0.0663190531 0.12899988
v 0.210646687 -0.0665179538 0.12899988
v 0.211732088 -0.0680000233 0.12899988
v 0.210264622 -0.0666286397 0.12899988
v 0.208267985 -0.0680000233 0.12899988
v 0.209867178 -0.0666446733 0.12899988
v 0.209477483 -0.0665651011 0.12899988
v 0.208415089 -0.0654590773 0.12899988
v 0.208351313 -0.0650664615 0.12899988
v 0.206535874 -0.0650000024 0.12899988
v 0.211616693 -0.0653300333 0.12899988
v 0.211490689 -0.0657073307 0.12899988
v 0.211278139 -0.0660435605 0.12899988
v 0.209118186 -0.0663945722 0.12899988
v 0.20881003 -0.066142981 0.12899988
v 0.208571015 -0.0658249902 0.12899988
v 0.209008752 -0.063680892 0.12899988
v 0.209353267 -0.0634820509 0.12899988
v 0.208267985 -0.0619999814 0.12899988
v 0.209735332 -0.063371365 0.12899988
v 0.211732088 -0.0619999814 0.12899988
v 0.210132776 -0.0633553314 0.12899988
v 0.210522471 -0.0634349036 0.12899988
v 0.210881887 -0.0636054325 0.12899988
v 0.211190043 -0.0638570237 0.12899988
v 0.211428939 -0.0641750145 0.12899988
v 0.20838338 -0.0646699714 0.12899988
v 0.208509265 -0.064292674 0.12899988
v 0.208721934 -0.0639564442 0.12899988
v 0.158765016 0.0639058304 0.12899988
v 0.158538996 0.0642331791 0.12899988
v 0.157000004 0.0632679415 0.12899988
v 0.161235033 0.0660941553 0.12899988
v 0.161461054 0.0657668066 0.12899988
v 0.163000046 0.0667320442 0.12899988
v 0.161602078 0.0653948736 0.12899988
v 0.16165 0.0649999929 0.12899988
v 0.163000046 0.0632679415 0.12899988
v 0.161602078 0.0646051121 0.12899988
v 0.161461054 0.0642331791 0.12899988
v 0.158397971 0.0646051121 0.12899988
v 0.158350049 0.0649999929 0.12899988
v 0.157000004 0.0667320442 0.12899988
v 0.158397971 0.0653948736 0.12899988
v 0.158538996 0.0657668066 0.12899988
v 0.161235033 0.0639058304 0.12899988
v 0.160937248 0.0636420799 0.12899988
v 0.160000025 0.0615358901 0.12899988
v 0.160585104 0.0634572459 0.12899988
v 0.160198866 0.0633620572 0.12899988
v 0.159801064 0.0633620572 0.12899988
v 0.159414945 0.0634572459 0.12899988
v 0.159062682 0.0636420799 0.12899988
v 0.158765016 0.0660941553 0.12899988
v 0.159062682 0.0663579059 0.12899988
v 0.160000025 0.0684640956 0.12899988
v 0.159414945 0.0665427995 0.12899988
v 0.159801064 0.0666379881 0.12899988
v 0.160198866 0.0666379881 0.12899988
v 0.160585104 0.0665427995 0.12899988
v 0.160937248 0.0663579059 0.12899988
v 0.158765016 0.0660941553 0.0789999281
v 0.158538996 0.0657668066 0.0789999281
v 0.157000004 0.0667320442 0.0789999281
v 0.161235033 0.0639058304 0.0789999281
v 0.161461054 0.0642331791 0.0789999281
v 0.163000046 0.0632679415 0.0789999281
v 0.158397971 0.0653948736 0.0789999281
v 0.158350049 0.0649999929 0.0789999281
v 0.157000004 0.0632679415 0.0789999281
v 0.158397971 0.0646051121 0.0789999281
v 0.158538996 0.0642331791 0.0789999281
v 0.161602078 0.0646051121 0.0789999281
v 0.16165 0.0649999929 0.0789999281
v 0.163000046 0.0667320442 0.0789999281
v 0.161602078 0.0653948736 0.0789999281
v 0.161461054 0.0657668066 0.0789999281
v 0.161235033 0.0660941553 0.0789999281
v 0.160937248 0.0663579059 0.0789999281
v 0.160000025 0.0684640956 0.0789999281
v 0.160585104 0.0665427995 0.0789999281
v 0.160198866 0.0666379881 0.0789999281
v 0.158765016 0.0639058304 0.0789999281
v 0.159062682 0.0636420799 0.0789999281
v 0.160000025 0.0615358901 0.0789999281
v 0.159414945 0.0634572459 0.0789999281
v 0.159801064 0.0633620572 0.0789999281
v 0.159801064 0.0666379881 0.0789999281
v 0.159414945 0.0665427995 0.0789999281
v 0.159062682 0.0663579059 0.0789999281
v 0.160198866 0.0633620572 0.0789999281
v 0.160585104 0.0634572459 0.0789999281
v 0.160937248 0.0636420799 0.0789999281
v -0.066779317 -0.260901575 0.0766525779
v -0.0666858569 -0.260986631 0.076727203
v -0.0666840688 -0.261003976 0.076771072
v -0.0673448459 -0.260476475 0.0764438425
v -0.0671995298 -0.260572557 0.0764619623
v -0.0683434621 -0.260217969 0.077408484
v -0.0670544521 -0.260677342 0.0765038047
v -0.0667198316 -0.261174326 0.0772921358
v -0.0667627469 -0.261190836 0.077408484
v -0.0668179408 -0.261196558 0.0775160108
v -0.0666728631 -0.261109953 0.0770395313
v -0.066884698 -0.261191432 0.0776131664
v -0.0669619456 -0.261175458 0.0776988779
v -0.0676364318 -0.261000936 0.0783503566
v -0.0689000503 -0.248494511 0.07866042
v -0.0689000503 -0.249245112 0.0758592401
v -0.0689000503 -0.255738978 0.0806015049
v -0.0689000503 -0.259870295 0.0787061964
v -0.0689000503 -0.244014327 0.124358467
v -0.0689000503 -0.246644502 0.128065518
v -0.0689000503 -0.23676986 0.122417382
v -0.0689000503 -0.236019318 0.125218562
v -0.0618252174 -0.242565458 0.123970202
v -0.0618252174 -0.234548275 0.121822051
v -0.0614197866 -0.242576187 0.123930148
v -0.0614197866 -0.234559004 0.121781877
v -0.0610311643 -0.242607956 0.123811415
v -0.0610311643 -0.234590774 0.121663264
v -0.060675563 -0.242659514 0.123619131
v -0.060675563 -0.234642332 0.121470979
v -0.0603676454 -0.242728596 0.123361281
v -0.0603676454 -0.234711413 0.12121301
v 0.211616693 0.0653300238 0.12899988
v 0.211648641 0.0649335337 0.12899988
v 0.21346408 0.0649999929 0.12899988
v 0.211584865 0.0645409179 0.12899988
v 0.211428939 0.064175005 0.12899988
v 0.211732088 0.0619999719 0.12899988
v 0.211190043 0.0638570142 0.12899988
v 0.210881887 0.063605423 0.12899988
v 0.20838338 0.064669962 0.12899988
v 0.208351313 0.0650664521 0.12899988
v 0.206535874 0.0649999929 0.12899988
v 0.210522471 0.0634348941 0.12899988
v 0.210132776 0.0633553219 0.12899988
v 0.208267985 0.0619999719 0.12899988
v 0.209735332 0.0633713556 0.12899988
v 0.209353267 0.0634820414 0.12899988
v 0.209008752 0.0636809421 0.12899988
v 0.208721934 0.0639564944 0.12899988
v 0.208509265 0.0642926646 0.12899988
v 0.208415089 0.0654590678 0.12899988
v 0.208571015 0.0658249808 0.12899988
v 0.208267985 0.0680000139 0.12899988
v 0.20881003 0.0661429715 0.12899988
v 0.209118186 0.0663945627 0.12899988
v 0.210646687 0.0665179444 0.12899988
v 0.210991202 0.0663191033 0.12899988
v 0.211732088 0.0680000139 0.12899988
v 0.211278139 0.066043551 0.12899988
v 0.211490689 0.0657073212 0.12899988
v 0.209477483 0.0665650916 0.12899988
v 0.209867178 0.0666446638 0.12899988
v 0.210264622 0.0666286302 0.12899988
v 0.208415089 0.0654590678 0.0789999281
v 0.208351313 0.0650664521 0.0789999281
v 0.206535874 0.0649999929 0.0789999281
v 0.211584865 0.0645409179 0.0789999281
v 0.211648641 0.0649335337 0.0789999281
v 0.21346408 0.0649999929 0.0789999281
v 0.209477483 0.0665650916 0.0789999281
v 0.209118186 0.0663945627 0.0789999281
v 0.208267985 0.0680000139 0.0789999281
v 0.20881003 0.0661429715 0.0789999281
v 0.208571015 0.0658249808 0.0789999281
v 0.20838338 0.064669962 0.0789999281
v 0.208509265 0.0642926646 0.0789999281
v 0.208267985 0.0619999719 0.0789999281
v 0.208721934 0.0639564944 0.0789999281
v 0.209008752 0.0636809421 0.0789999281
v 0.210522471 0.0634348941 0.0789999281
v 0.210881887 0.063605423 0.0789999281
v 0.211732088 0.0619999719 0.0789999281
v 0.211190043 0.0638570142 0.0789999281
v 0.211428939 0.064175005 0.0789999281
v 0.211616693 0.0653300238 0.0789999281
v 0.211490689 0.0657073212 0.0789999281
v 0.211732088 0.0680000139 0.0789999281
v 0.211278139 0.066043551 0.0789999281
v 0.210991202 0.0663191033 0.0789999281
v 0.210646687 0.0665179444 0.0789999281
v 0.210264622 0.0666286302 0.0789999281
v 0.209867178 0.0666446638 0.0789999281
v 0.209353267 0.0634820414 0.0789999281
v 0.209735332 0.0633713556 0.0789999281
v 0.210132776 0.0633553219 0.0789999281
v 0.0680000171 -0.208267932 0.12899988
v 0.0666446074 -0.209867244 0.12899988
v 0.0680000171 -0.211732035 0.12899988
v 0.0666286334 -0.210264688 0.12899988
v 0.0665180072 -0.210646753 0.12899988
v 0.0661429747 -0.208810036 0.12899988
v 0.0663945063 -0.209118133 0.12899988
v 0.0665650948 -0.209477489 0.12899988
v 0.0663190469 -0.210991209 0.12899988
v 0.0660435542 -0.211278086 0.12899988
v 0.0649999961 -0.213464086 0.12899988
v 0.065707384 -0.211490695 0.12899988
v 0.0653300866 -0.21161664 0.12899988
v 0.0619999751 -0.211732035 0.12899988
v 0.0638570174 -0.21118999 0.12899988
v 0.0636054858 -0.210881894 0.12899988
v 0.0646699056 -0.208383327 0.12899988
v 0.0650663956 -0.208351319 0.12899988
v 0.0649999961 -0.206535881 0.12899988
v 0.065459071 -0.208415155 0.12899988
v 0.0658250436 -0.208571081 0.12899988
v 0.0649335965 -0.211648648 0.12899988
v 0.0645409211 -0.211584871 0.12899988
v 0.0641749486 -0.211428945 0.12899988
v 0.0634348973 -0.210522478 0.12899988
v 0.0633553847 -0.210132782 0.12899988
v 0.0619999751 -0.208267932 0.12899988
v 0.0633713588 -0.209735339 0.12899988
v 0.063481985 -0.209353273 0.12899988
v 0.0636809453 -0.209008758 0.12899988
v 0.063956438 -0.208721881 0.12899988
v 0.0642926081 -0.208509331 0.12899988
v 0.0636809453 -0.209008758 0.0789999281
v 0.063481985 -0.209353273 0.0789999281
v 0.0619999751 -0.208267932 0.0789999281
v 0.0633713588 -0.209735339 0.0789999281
v 0.0619999751 -0.211732035 0.0789999281
v 0.0633553847 -0.210132782 0.0789999281
v 0.0634348973 -0.210522478 0.0789999281
v 0.0636054858 -0.210881894 0.0789999281
v 0.0638570174 -0.21118999 0.0789999281
v 0.0641749486 -0.211428945 0.0789999281
v 0.0649999961 -0.213464086 0.0789999281
v 0.0645409211 -0.211584871 0.0789999281
v 0.0649335965 -0.211648648 0.0789999281
v 0.0680000171 -0.208267932 0.0789999281
v 0.0665650948 -0.209477489 0.0789999281
v 0.0663945063 -0.209118133 0.0789999281
v 0.0650663956 -0.208351319 0.0789999281
v 0.0646699056 -0.208383327 0.0789999281
v 0.0649999961 -0.206535881 0.0789999281
v 0.0642926081 -0.208509331 0.0789999281
v 0.063956438 -0.208721881 0.0789999281
v 0.0653300866 -0.21161664 0.0789999281
v 0.065707384 -0.211490695 0.0789999281
v 0.0680000171 -0.211732035 0.0789999281
v 0.0660435542 -0.211278086 0.0789999281
v 0.0663190469 -0.210991209 0.0789999281
v 0.0665180072 -0.210646753 0.0789999281
v 0.0666286334 -0.210264688 0.0789999281
v 0.0666446074 -0.209867244 0.0789999281
v 0.0661429747 -0.208810036 0.0789999281
v 0.0658250436 -0.208571081 0.0789999281
v 0.065459071 -0.208415155 0.0789999281
v -0.208383383 -0.0646699714 0.12899988
v -0.208351316 -0.0650664615 0.12899988
v -0.206535877 -0.0650000024 0.12899988
v -0.211616696 -0.0653300333 0.12899988
v -0.211648645 -0.0649335432 0.12899988
v -0.213464083 -0.0650000024 0.12899988
v -0.208415093 -0.0654590773 0.12899988
v -0.208571018 -0.0658249902 0.12899988
v -0.208267988 -0.0680000233 0.12899988
v -0.208810033 -0.066142981 0.12899988
v -0.209118189 -0.0663945722 0.12899988
v -0.21064669 -0.0665179538 0.12899988
v -0.210991205 -0.0663190531 0.12899988
v -0.211732091 -0.0680000233 0.12899988
v -0.211278142 -0.0660435605 0.12899988
v -0.211490692 -0.0657073307 0.12899988
v -0.211584868 -0.0645409274 0.12899988
v -0.211428942 -0.0641750145 0.12899988
v -0.211732091 -0.0619999814 0.12899988
v -0.211189927 -0.0638570237 0.12899988
v -0.21088189 -0.0636054325 0.12899988
v -0.20935327 -0.0634820509 0.12899988
v -0.209008755 -0.063680892 0.12899988
v -0.208267988 -0.0619999814 0.12899988
v -0.208721937 -0.0639564442 0.12899988
v -0.208509268 -0.064292674 0.12899988
v -0.209477486 -0.0665651011 0.12899988
v -0.209867181 -0.0666446733 0.12899988
v -0.210264625 -0.0666286397 0.12899988
v -0.210522474 -0.0634349036 0.12899988
v -0.210132779 -0.0633553314 0.12899988
v -0.209735335 -0.063371365 0.12899988
v -0.211584868 -0.0645409274 0.0789999281
v -0.211648645 -0.0649335432 0.0789999281
v -0.213464083 -0.0650000024 0.0789999281
v -0.208415093 -0.0654590773 0.0789999281
v -0.208351316 -0.0650664615 0.0789999281
v -0.206535877 -0.0650000024 0.0789999281
v -0.211616696 -0.0653300333 0.0789999281
v -0.211490692 -0.0657073307 0.0789999281
v -0.211732091 -0.0680000233 0.0789999281
v -0.211278142 -0.0660435605 0.0789999281
v -0.210991205 -0.0663190531 0.0789999281
v -0.209477486 -0.0665651011 0.0789999281
v -0.209118189 -0.0663945722 0.0789999281
v -0.208267988 -0.0680000233 0.0789999281
v -0.208810033 -0.066142981 0.0789999281
v -0.208571018 -0.0658249902 0.0789999281
v -0.208383383 -0.0646699714 0.0789999281
v -0.208509268 -0.064292674 0.0789999281
v -0.208267988 -0.0619999814 0.0789999281
v -0.208721937 -0.0639564442 0.0789999281
v -0.209008755 -0.063680892 0.0789999281
v -0.210522474 -0.0634349036 0.0789999281
v -0.21088189 -0.0636054325 0.0789999281
v -0.211732091 -0.0619999814 0.0789999281
v -0.211189927 -0.0638570237 0.0789999281
v -0.211428942 -0.0641750145 0.0789999281
v -0.21064669 -0.0665179538 0.0789999281
v -0.210264625 -0.0666286397 0.0789999281
v -0.209867181 -0.0666446733 0.0789999281
v -0.20935327 -0.0634820509 0.0789999281
v -0.209735335 -0.063371365 0.0789999281
v -0.210132779 -0.0633553314 0.0789999281
v 0.022415696 -0.239900057 0.0698198591
v 0.022415696 -0.2398001 0.0698198591
v 0.022415696 -0.239900057 0.0696634565
v 0.022415696 -0.2398001 0.0696634565
v 0.0262761697 -0.235100095 0.0699461017
v 0.0262761697 -0.235200052 0.0699461017
v 0.0262261018 -0.235100095 0.069877914
v 0.0262261018 -0.235200052 0.069877914
v 0.0246928319 -0.235200052 0.070337585
v 0.0246928319 -0.235100095 0.070337585
v 0.0246928319 -0.235200052 0.0700226341
v 0.0246928319 -0.235100095 0.0698098455
v 0.0246928319 -0.235200052 0.0698098455
v 0.0246061667 -0.239900057 0.0702741657
v 0.0246061667 -0.2398001 0.0702741657
v 0.0245644435 -0.239900057 0.0702953849
v 0.0245644435 -0.2398001 0.0702953849
v 0.0203995093 -0.239300077 0.0684998546
v 0.0203995093 -0.239300077 0.0625998293
v 0.0219995364 -0.239300077 0.0684998546
v 0.0219995364 -0.239300077 0.0625998293
v 0.0239406213 -0.235099201 0.0719498907
v 0.0239406213 -0.235099201 0.071899942
v 0.0239164218 -0.235148554 0.0719498907
v 0.0239164218 -0.235148554 0.071899942
v -0.0653300897 0.21161669 0.12899988
v -0.0649335996 0.211648638 0.12899988
v -0.0649999992 0.213464077 0.12899988
v -0.0646699086 0.208383377 0.12899988
v -0.0650663987 0.208351309 0.12899988
v -0.0649999992 0.206535871 0.12899988
v -0.0636054889 0.210881884 0.12899988
v -0.0634349004 0.210522468 0.12899988
v -0.0619999782 0.211732085 0.12899988
v -0.0633553878 0.210132773 0.12899988
v -0.0619999782 0.208267982 0.12899988
v -0.0633713618 0.209735329 0.12899988
v -0.0634819881 0.209353263 0.12899988
v -0.0665180103 0.210646803 0.12899988
v -0.0663190499 0.210991199 0.12899988
v -0.0680000201 0.211732085 0.12899988
v -0.0660435573 0.211278136 0.12899988
v -0.0657073871 0.211490686 0.12899988
v -0.0645409242 0.211584861 0.12899988
v -0.0641749517 0.211428936 0.12899988
v -0.0638570205 0.21119004 0.12899988
v -0.0636809484 0.209008749 0.12899988
v -0.063956441 0.208721931 0.12899988
v -0.0642926112 0.208509262 0.12899988
v -0.0654590741 0.208415086 0.12899988
v -0.0658250467 0.208571012 0.12899988
v -0.0680000201 0.208267982 0.12899988
v -0.0661429778 0.208810027 0.12899988
v -0.0663945094 0.209118183 0.12899988
v -0.0665650979 0.209477479 0.12899988
v -0.0666446105 0.209867175 0.12899988
v -0.0666286365 0.210264738 0.12899988
v -0.0654590741 0.208415086 0.0789999281
v -0.0650663987 0.208351309 0.0789999281
v -0.0649999992 0.206535871 0.0789999281
v -0.0663190499 0.210991199 0.0789999281
v -0.0665180103 0.210646803 0.0789999281
v -0.0680000201 0.211732085 0.0789999281
v -0.0666286365 0.210264738 0.0789999281
v -0.0680000201 0.208267982 0.0789999281
v -0.0666446105 0.209867175 0.0789999281
v -0.0665650979 0.209477479 0.0789999281
v -0.0645409242 0.211584861 0.0789999281
v -0.0649335996 0.211648638 0.0789999281
v -0.0649999992 0.213464077 0.0789999281
v -0.0663945094 0.209118183 0.0789999281
v -0.0661429778 0.208810027 0.0789999281
v -0.0658250467 0.208571012 0.0789999281
v -0.0646699086 0.208383377 0.0789999281
v -0.0642926112 0.208509262 0.0789999281
v -0.0619999782 0.208267982 0.0789999281
v -0.063956441 0.208721931 0.0789999281
v -0.0636809484 0.209008749 0.0789999281
v -0.0634349004 0.210522468 0.0789999281
v -0.0636054889 0.210881884 0.0789999281
v -0.0619999782 0.211732085 0.0789999281
v -0.0638570205 0.21119004 0.0789999281
v -0.0641749517 0.211428936 0.0789999281
v -0.0653300897 0.21161669 0.0789999281
v -0.0657073871 0.211490686 0.0789999281
v -0.0660435573 0.211278136 0.0789999281
v -0.0634819881 0.209353263 0.0789999281
v -0.0633713618 0.209735329 0.0789999281
v -0.0633553878 0.210132773 0.0789999281
v 0.0639058932 -0.161235039 0.0789999281
v 0.0642332419 -0.161461 0.0789999281
v 0.0632680043 -0.162999992 0.0789999281
v 0.0660940989 -0.158764963 0.0789999281
v 0.0657667502 -0.158539002 0.0789999281
v 0.0667321071 -0.15700001 0.0789999281
v 0.0646051749 -0.161602025 0.0789999281
v 0.0649999961 -0.161650007 0.0789999281
v 0.0667321071 -0.162999992 0.0789999281
v 0.0653948172 -0.161602025 0.0789999281
v 0.0657667502 -0.161461 0.0789999281
v 0.0633620604 -0.15980113 0.0789999281
v 0.0633620604 -0.160198872 0.0789999281
v 0.0615358933 -0.159999971 0.0789999281
v 0.0634571894 -0.16058511 0.0789999281
v 0.0636420831 -0.160937314 0.0789999281
v 0.0660940989 -0.161235039 0.0789999281
v 0.0663579091 -0.160937314 0.0789999281
v 0.0684640988 -0.159999971 0.0789999281
v 0.0665428027 -0.16058511 0.0789999281
v 0.0666379317 -0.160198872 0.0789999281
v 0.0653948172 -0.158397918 0.0789999281
v 0.0649999961 -0.158349996 0.0789999281
v 0.0632680043 -0.15700001 0.0789999281
v 0.0646051749 -0.158397918 0.0789999281
v 0.0642332419 -0.158539002 0.0789999281
v 0.0666379317 -0.15980113 0.0789999281
v 0.0665428027 -0.159414892 0.0789999281
v 0.0663579091 -0.159062688 0.0789999281
v 0.0639058932 -0.158764963 0.0789999281
v 0.0636420831 -0.159062688 0.0789999281
v 0.0634571894 -0.159414892 0.0789999281
v 0.0667321071 -0.15700001 0.12899988
v 0.0684640988 -0.159999971 0.12899988
v 0.0632680043 -0.15700001 0.12899988
v 0.0615358933 -0.159999971 0.12899988
v 0.0667321071 -0.162999992 0.12899988
v 0.0632680043 -0.162999992 0.12899988
f 1 2 3
f 1 3 4
f 4 3 5
f 4 5 6
f 6 5 7
f 6 7 8
f 9 10 11
f 11 10 12
f 13 14 15
f 15 14 16
f 17 18 19
f 19 18 20
f 18 21 20
f 20 21 22
f 23 24 25
f 25 24 26
f 25 26 27
f 28 29 30
f 30 29 31
f 32 33 34
f 34 33 35
f 36 37 38
f 38 37 39
f 40 41 42
f 42 41 43
f 44 45 46
f 46 45 47
f 48 49 50
f 50 49 51
f 52 53 54
f 55 56 57
f 56 58 57
f 57 58 59
f 57 59 60
f 60 59 61
f 60 61 62
f 53 63 54
f 54 63 64
f 54 64 65
f 65 64 66
f 65 66 67
f 62 68 60
f 60 68 69
f 60 69 70
f 70 69 71
f 70 71 72
f 72 73 70
f 70 73 74
f 70 74 54
f 54 74 75
f 54 75 52
f 67 76 65
f 65 76 77
f 65 77 78
f 78 77 79
f 78 79 80
f 80 81 78
f 78 81 82
f 78 82 57
f 57 82 83
f 57 83 55
f 84 85 86
f 87 88 89
f 85 90 86
f 86 90 91
f 86 91 92
f 92 91 93
f 92 93 94
f 88 95 89
f 89 95 96
f 89 96 97
f 97 96 98
f 97 98 99
f 99 100 97
f 97 100 101
f 97 101 102
f 102 101 103
f 102 103 104
f 94 105 92
f 92 105 106
f 92 106 107
f 107 106 108
f 107 108 109
f 104 110 102
f 102 110 111
f 102 111 86
f 86 111 112
f 86 112 84
f 109 113 107
f 107 113 114
f 107 114 89
f 89 114 115
f 89 115 87
f 65 78 86
f 86 78 102
f 54 65 92
f 92 65 86
f 70 54 107
f 107 54 92
f 60 70 89
f 89 70 107
f 57 60 97
f 97 60 89
f 78 57 102
f 102 57 97
f 64 91 66
f 66 91 90
f 66 90 67
f 67 90 85
f 67 85 76
f 76 85 84
f 76 84 77
f 77 84 112
f 77 112 79
f 79 112 111
f 79 111 80
f 80 111 110
f 80 110 81
f 81 110 104
f 81 104 82
f 82 104 103
f 82 103 83
f 83 103 101
f 83 101 55
f 55 101 100
f 55 100 56
f 56 100 99
f 56 99 58
f 58 99 98
f 58 98 59
f 59 98 96
f 59 96 61
f 61 96 95
f 61 95 62
f 62 95 88
f 62 88 68
f 68 88 87
f 68 87 69
f 69 87 115
f 69 115 71
f 71 115 114
f 71 114 72
f 72 114 113
f 72 113 73
f 73 113 109
f 73 109 74
f 74 109 108
f 74 108 75
f 75 108 106
f 75 106 52
f 52 106 105
f 52 105 53
f 53 105 94
f 53 94 63
f 63 94 93
f 63 93 64
f 64 93 91
f 116 117 118
f 119 120 121
f 117 122 118
f 118 122 123
f 118 123 124
f 124 123 125
f 124 125 126
f 120 127 121
f 121 127 128
f 121 128 129
f 129 128 130
f 129 130 131
f 131 132 129
f 129 132 133
f 129 133 134
f 134 133 135
f 134 135 136
f 126 137 124
f 124 137 138
f 124 138 139
f 139 138 140
f 139 140 141
f 136 142 134
f 134 142 143
f 134 143 118
f 118 143 144
f 118 144 116
f 141 145 139
f 139 145 146
f 139 146 121
f 121 146 147
f 121 147 119
f 124 139 148
f 148 139 149
f 118 124 150
f 150 124 148
f 134 118 151
f 151 118 150
f 129 134 152
f 152 134 151
f 121 129 153
f 153 129 152
f 123 154 125
f 125 154 155
f 125 155 126
f 126 155 156
f 126 156 137
f 137 156 157
f 137 157 138
f 138 157 158
f 138 158 140
f 140 158 159
f 140 159 141
f 141 159 160
f 141 160 145
f 145 160 161
f 145 161 146
f 146 161 162
f 146 162 147
f 147 162 163
f 147 163 119
f 119 163 164
f 119 164 120
f 120 164 165
f 120 165 127
f 127 165 166
f 127 166 128
f 128 166 167
f 128 167 130
f 130 167 168
f 130 168 131
f 131 168 169
f 131 169 132
f 132 169 170
f 132 170 133
f 133 170 171
f 133 171 135
f 135 171 172
f 135 172 136
f 136 172 173
f 136 173 142
f 142 173 174
f 142 174 143
f 143 174 175
f 143 175 144
f 144 175 176
f 144 176 116
f 116 176 177
f 116 177 117
f 117 177 178
f 117 178 122
f 122 178 179
f 122 179 123
f 123 179 154
f 180 181 182
f 183 184 185
f 186 187 188
f 180 182 185
f 185 182 189
f 185 189 183
f 190 191 192
f 184 193 185
f 185 193 194
f 185 194 188
f 188 194 195
f 188 195 186
f 187 196 188
f 188 196 197
f 188 197 198
f 198 197 199
f 198 199 200
f 200 201 198
f 198 201 202
f 198 202 203
f 203 202 204
f 203 204 205
f 205 206 203
f 203 206 207
f 203 207 192
f 192 207 208
f 192 208 190
f 191 209 192
f 192 209 210
f 192 210 180
f 180 210 211
f 180 211 181
f 212 213 185
f 185 213 180
f 214 215 198
f 198 215 188
f 216 217 192
f 192 217 203
f 213 216 180
f 180 216 192
f 218 219 220
f 219 221 220
f 220 221 222
f 220 222 223
f 223 222 224
f 223 224 225
f 226 227 228
f 228 227 229
f 228 229 230
f 230 229 231
f 230 231 232
f 225 233 223
f 223 233 234
f 223 234 235
f 235 234 236
f 235 236 237
f 238 239 240
f 232 241 230
f 230 241 242
f 230 242 220
f 220 242 243
f 220 243 218
f 237 244 235
f 235 244 245
f 235 245 238
f 238 245 246
f 238 246 239
f 240 247 238
f 238 247 248
f 238 248 228
f 228 248 249
f 228 249 226
f 223 235 250
f 250 235 251
f 220 223 252
f 252 223 250
f 230 220 253
f 253 220 252
f 228 230 254
f 254 230 253
f 238 228 255
f 255 228 254
f 256 257 258
f 259 260 261
f 262 263 264
f 265 266 267
f 268 257 269
f 269 257 270
f 269 270 271
f 272 273 258
f 258 273 274
f 258 274 256
f 261 260 275
f 276 277 278
f 278 277 279
f 278 279 280
f 280 279 281
f 280 281 264
f 264 281 282
f 264 282 262
f 283 284 279
f 279 284 285
f 279 285 281
f 281 285 286
f 281 286 287
f 288 289 290
f 290 289 291
f 290 291 292
f 292 291 293
f 292 293 294
f 294 293 295
f 265 267 296
f 296 267 297
f 296 297 298
f 298 297 299
f 298 299 300
f 260 301 275
f 275 301 302
f 275 302 303
f 303 302 304
f 303 304 265
f 265 304 305
f 265 305 266
f 268 306 257
f 257 306 307
f 257 307 258
f 258 307 308
f 270 309 271
f 271 309 310
f 271 310 311
f 311 310 312
f 311 312 313
f 313 312 314
f 313 314 315
f 315 314 281
f 315 281 316
f 316 281 287
f 317 318 319
f 319 318 320
f 319 320 321
f 321 320 322
f 321 322 323
f 323 322 324
f 323 324 325
f 325 324 326
f 325 326 327
f 293 328 295
f 295 328 329
f 295 329 330
f 330 329 331
f 330 331 332
f 332 331 333
f 332 333 334
f 334 333 335
f 334 335 336
f 336 335 337
f 336 337 338
f 338 337 339
f 338 339 317
f 317 339 340
f 317 340 318
f 341 342 343
f 343 342 344
f 343 344 290
f 290 344 345
f 290 345 288
f 346 347 348
f 348 347 349
f 348 349 350
f 350 349 351
f 350 351 352
f 352 351 353
f 352 353 354
f 354 353 355
f 354 355 272
f 272 355 356
f 272 356 273
f 308 357 258
f 258 357 358
f 258 358 359
f 359 358 360
f 359 360 361
f 361 360 362
f 361 362 363
f 363 362 364
f 363 364 365
f 365 364 366
f 365 366 367
f 367 366 368
f 367 368 369
f 369 368 370
f 369 370 371
f 371 370 372
f 371 372 373
f 373 372 374
f 373 374 279
f 279 374 375
f 279 375 283
f 300 299 376
f 376 299 377
f 376 377 378
f 378 377 379
f 378 379 380
f 380 379 381
f 380 381 382
f 382 381 383
f 382 383 341
f 341 383 384
f 341 384 342
f 261 385 259
f 259 385 386
f 259 386 387
f 387 386 388
f 387 388 389
f 389 388 390
f 389 390 346
f 346 390 391
f 346 391 347
f 392 393 394
f 326 395 327
f 327 395 392
f 327 392 396
f 396 392 394
f 397 398 392
f 392 398 399
f 392 399 393
f 400 401 402
f 401 403 402
f 402 403 404
f 402 404 405
f 397 392 402
f 402 392 406
f 402 406 400
f 407 408 409
f 407 409 410
f 410 409 411
f 410 411 412
f 413 414 415
f 415 414 416
f 414 417 416
f 416 417 418
f 417 419 418
f 418 419 420
f 421 422 423
f 424 425 426
f 427 428 429
f 429 428 430
f 429 430 431
f 431 430 432
f 431 432 433
f 422 434 423
f 423 434 435
f 423 435 436
f 436 435 437
f 436 437 438
f 438 439 436
f 436 439 440
f 436 440 441
f 441 440 442
f 441 442 443
f 425 444 426
f 426 444 445
f 426 445 429
f 429 445 446
f 429 446 427
f 433 447 431
f 431 447 448
f 431 448 423
f 423 448 449
f 423 449 421
f 443 450 441
f 441 450 451
f 441 451 426
f 426 451 452
f 426 452 424
f 453 454 455
f 456 457 458
f 459 460 461
f 461 460 462
f 461 462 463
f 463 462 464
f 463 464 465
f 465 466 463
f 463 466 467
f 463 467 458
f 458 467 468
f 458 468 456
f 469 470 471
f 471 470 472
f 471 472 473
f 473 472 474
f 473 474 475
f 475 476 473
f 473 476 477
f 473 477 455
f 455 477 478
f 455 478 453
f 454 479 455
f 455 479 480
f 455 480 461
f 461 480 481
f 461 481 459
f 457 482 458
f 458 482 483
f 458 483 471
f 471 483 484
f 471 484 469
f 429 431 473
f 473 431 471
f 426 429 455
f 455 429 473
f 441 426 461
f 461 426 455
f 436 441 463
f 463 441 461
f 423 436 458
f 458 436 463
f 445 478 446
f 446 478 477
f 446 477 427
f 427 477 476
f 427 476 428
f 428 476 475
f 428 475 430
f 430 475 474
f 430 474 432
f 432 474 472
f 432 472 433
f 433 472 470
f 433 470 447
f 447 470 469
f 447 469 448
f 448 469 484
f 448 484 449
f 449 484 483
f 449 483 421
f 421 483 482
f 421 482 422
f 422 482 457
f 422 457 434
f 434 457 456
f 434 456 435
f 435 456 468
f 435 468 437
f 437 468 467
f 437 467 438
f 438 467 466
f 438 466 439
f 439 466 465
f 439 465 440
f 440 465 464
f 440 464 442
f 442 464 462
f 442 462 443
f 443 462 460
f 443 460 450
f 450 460 459
f 450 459 451
f 451 459 481
f 451 481 452
f 452 481 480
f 452 480 424
f 424 480 479
f 424 479 425
f 425 479 454
f 425 454 444
f 444 454 453
f 444 453 445
f 445 453 478
f 485 486 487
f 488 489 490
f 491 492 493
f 493 492 494
f 493 494 487
f 487 494 495
f 487 495 485
f 496 497 498
f 498 497 499
f 498 499 490
f 490 499 500
f 490 500 488
f 501 502 503
f 503 502 504
f 503 504 493
f 493 504 505
f 493 505 491
f 506 507 508
f 508 507 509
f 508 509 498
f 498 509 510
f 498 510 496
f 489 511 490
f 490 511 512
f 490 512 503
f 503 512 513
f 503 513 501
f 486 514 487
f 487 514 515
f 487 515 508
f 508 515 516
f 508 516 506
f 517 518 519
f 520 521 522
f 518 523 519
f 519 523 524
f 519 524 525
f 525 524 526
f 525 526 527
f 521 528 522
f 522 528 529
f 522 529 530
f 530 529 531
f 530 531 532
f 527 533 525
f 525 533 534
f 525 534 535
f 535 534 536
f 535 536 537
f 532 538 530
f 530 538 539
f 530 539 540
f 540 539 541
f 540 541 542
f 537 543 535
f 535 543 544
f 535 544 522
f 522 544 545
f 522 545 520
f 542 546 540
f 540 546 547
f 540 547 519
f 519 547 548
f 519 548 517
f 503 493 540
f 540 493 530
f 490 503 519
f 519 503 540
f 498 490 525
f 525 490 519
f 508 498 535
f 535 498 525
f 487 508 522
f 522 508 535
f 493 487 530
f 530 487 522
f 512 548 513
f 513 548 547
f 513 547 501
f 501 547 546
f 501 546 502
f 502 546 542
f 502 542 504
f 504 542 541
f 504 541 505
f 505 541 539
f 505 539 491
f 491 539 538
f 491 538 492
f 492 538 532
f 492 532 494
f 494 532 531
f 494 531 495
f 495 531 529
f 495 529 485
f 485 529 528
f 485 528 486
f 486 528 521
f 486 521 514
f 514 521 520
f 514 520 515
f 515 520 545
f 515 545 516
f 516 545 544
f 516 544 506
f 506 544 543
f 506 543 507
f 507 543 537
f 507 537 509
f 509 537 536
f 509 536 510
f 510 536 534
f 510 534 496
f 496 534 533
f 496 533 497
f 497 533 527
f 497 527 499
f 499 527 526
f 499 526 500
f 500 526 524
f 500 524 488
f 488 524 523
f 488 523 489
f 489 523 518
f 489 518 511
f 511 518 517
f 511 517 512
f 512 517 548
f 549 550 551
f 552 553 554
f 550 555 551
f 551 555 556
f 551 556 557
f 557 556 558
f 557 558 559
f 560 561 562
f 562 561 563
f 562 563 551
f 551 563 564
f 551 564 549
f 559 565 557
f 557 565 566
f 557 566 567
f 567 566 568
f 567 568 569
f 553 570 554
f 554 570 571
f 554 571 572
f 572 571 573
f 572 573 574
f 569 575 567
f 567 575 576
f 567 576 554
f 554 576 577
f 554 577 552
f 574 578 572
f 572 578 579
f 572 579 562
f 562 579 580
f 562 580 560
f 581 582 583
f 584 585 586
f 582 587 583
f 583 587 588
f 583 588 589
f 589 588 590
f 589 590 591
f 592 593 594
f 594 593 595
f 594 595 583
f 583 595 596
f 583 596 581
f 591 597 589
f 589 597 598
f 589 598 599
f 599 598 600
f 599 600 601
f 585 602 586
f 586 602 603
f 586 603 604
f 604 603 605
f 604 605 606
f 601 607 599
f 599 607 608
f 599 608 586
f 586 608 609
f 586 609 584
f 606 610 604
f 604 610 611
f 604 611 594
f 594 611 612
f 594 612 592
f 572 562 586
f 586 562 599
f 554 572 604
f 604 572 586
f 567 554 594
f 594 554 604
f 557 567 583
f 583 567 594
f 551 557 589
f 589 557 583
f 562 551 599
f 599 551 589
f 571 603 573
f 573 603 602
f 573 602 574
f 574 602 585
f 574 585 578
f 578 585 584
f 578 584 579
f 579 584 609
f 579 609 580
f 580 609 608
f 580 608 560
f 560 608 607
f 560 607 561
f 561 607 601
f 561 601 563
f 563 601 600
f 563 600 564
f 564 600 598
f 564 598 549
f 549 598 597
f 549 597 550
f 550 597 591
f 550 591 555
f 555 591 590
f 555 590 556
f 556 590 588
f 556 588 558
f 558 588 587
f 558 587 559
f 559 587 582
f 559 582 565
f 565 582 581
f 565 581 566
f 566 581 596
f 566 596 568
f 568 596 595
f 568 595 569
f 569 595 593
f 569 593 575
f 575 593 592
f 575 592 576
f 576 592 612
f 576 612 577
f 577 612 611
f 577 611 552
f 552 611 610
f 552 610 553
f 553 610 606
f 553 606 570
f 570 606 605
f 570 605 571
f 571 605 603
f 613 614 615
f 616 617 618
f 614 619 615
f 615 619 620
f 615 620 621
f 621 620 622
f 621 622 623
f 617 624 618
f 618 624 625
f 618 625 626
f 626 625 627
f 626 627 628
f 628 629 626
f 626 629 630
f 626 630 631
f 631 630 632
f 631 632 633
f 623 634 621
f 621 634 635
f 621 635 636
f 636 635 637
f 636 637 638
f 633 639 631
f 631 639 640
f 631 640 615
f 615 640 641
f 615 641 613
f 638 642 636
f 636 642 643
f 636 643 618
f 618 643 644
f 618 644 616
f 615 621 645
f 645 621 646
f 631 615 647
f 647 615 645
f 626 631 648
f 648 631 647
f 618 626 649
f 649 626 648
f 636 618 650
f 650 618 649
f 620 651 622
f 622 651 652
f 622 652 623
f 623 652 653
f 623 653 634
f 634 653 654
f 634 654 635
f 635 654 655
f 635 655 637
f 637 655 656
f 637 656 638
f 638 656 657
f 638 657 642
f 642 657 658
f 642 658 643
f 643 658 659
f 643 659 644
f 644 659 660
f 644 660 616
f 616 660 661
f 616 661 617
f 617 661 662
f 617 662 624
f 624 662 663
f 624 663 625
f 625 663 664
f 625 664 627
f 627 664 665
f 627 665 628
f 628 665 666
f 628 666 629
f 629 666 667
f 629 667 630
f 630 667 668
f 630 668 632
f 632 668 669
f 632 669 633
f 633 669 670
f 633 670 639
f 639 670 671
f 639 671 640
f 640 671 672
f 640 672 641
f 641 672 673
f 641 673 613
f 613 673 674
f 613 674 614
f 614 674 675
f 614 675 619
f 619 675 676
f 619 676 620
f 620 676 651
f 677 678 679
f 680 681 682
f 680 682 683
f 684 685 686
f 677 679 682
f 682 679 687
f 682 687 683
f 681 688 682
f 682 688 689
f 682 689 690
f 690 689 691
f 690 691 692
f 692 693 690
f 690 693 694
f 690 694 695
f 695 694 696
f 695 696 697
f 697 698 695
f 695 698 699
f 695 699 686
f 686 699 700
f 686 700 684
f 685 701 686
f 686 701 702
f 686 702 703
f 703 702 704
f 703 704 705
f 705 706 703
f 703 706 707
f 703 707 677
f 677 707 708
f 677 708 678
f 709 710 711
f 712 713 714
f 715 716 717
f 709 711 714
f 714 711 718
f 714 718 712
f 719 720 721
f 713 722 714
f 714 722 723
f 714 723 717
f 717 723 724
f 717 724 715
f 716 725 717
f 717 725 726
f 717 726 727
f 727 726 728
f 727 728 729
f 729 730 727
f 727 730 731
f 727 731 732
f 732 731 733
f 732 733 734
f 734 735 732
f 732 735 736
f 732 736 721
f 721 736 737
f 721 737 719
f 720 738 721
f 721 738 739
f 721 739 709
f 709 739 740
f 709 740 710
f 690 695 714
f 714 695 709
f 682 690 717
f 717 690 714
f 677 682 727
f 727 682 717
f 703 677 732
f 732 677 727
f 686 703 721
f 721 703 732
f 695 686 709
f 709 686 721
f 689 724 691
f 691 724 723
f 691 723 692
f 692 723 722
f 692 722 693
f 693 722 713
f 693 713 694
f 694 713 712
f 694 712 696
f 696 712 718
f 696 718 697
f 697 718 711
f 697 711 698
f 698 711 710
f 698 710 699
f 699 710 740
f 699 740 700
f 700 740 739
f 700 739 684
f 684 739 738
f 684 738 685
f 685 738 720
f 685 720 701
f 701 720 719
f 701 719 702
f 702 719 737
f 702 737 704
f 704 737 736
f 704 736 705
f 705 736 735
f 705 735 706
f 706 735 734
f 706 734 707
f 707 734 733
f 707 733 708
f 708 733 731
f 708 731 678
f 678 731 730
f 678 730 679
f 679 730 729
f 679 729 687
f 687 729 728
f 687 728 683
f 683 728 726
f 683 726 680
f 680 726 725
f 680 725 681
f 681 725 716
f 681 716 688
f 688 716 715
f 688 715 689
f 689 715 724
f 741 742 743
f 744 745 746
f 742 747 743
f 743 747 748
f 743 748 749
f 749 748 750
f 749 750 751
f 751 752 749
f 749 752 753
f 749 753 754
f 754 753 755
f 754 755 756
f 745 757 746
f 746 757 758
f 746 758 759
f 759 758 760
f 759 760 761
f 761 762 759
f 759 762 763
f 759 763 764
f 764 763 765
f 764 765 766
f 766 767 764
f 764 767 768
f 764 768 743
f 743 768 769
f 743 769 741
f 756 770 754
f 754 770 771
f 754 771 746
f 746 771 772
f 746 772 744
f 773 774 775
f 776 777 778
f 778 777 779
f 778 779 780
f 780 779 781
f 780 781 782
f 783 784 785
f 774 786 775
f 775 786 787
f 775 787 778
f 778 787 788
f 778 788 776
f 782 789 780
f 780 789 790
f 780 790 785
f 785 790 791
f 785 791 783
f 792 793 794
f 794 793 795
f 794 795 796
f 796 795 797
f 796 797 798
f 798 799 796
f 796 799 800
f 796 800 775
f 775 800 801
f 775 801 773
f 784 802 785
f 785 802 803
f 785 803 794
f 794 803 804
f 794 804 792
f 749 754 780
f 780 754 778
f 743 749 785
f 785 749 780
f 764 743 794
f 794 743 785
f 759 764 796
f 796 764 794
f 746 759 775
f 775 759 796
f 754 746 778
f 778 746 775
f 748 791 750
f 750 791 790
f 750 790 751
f 751 790 789
f 751 789 752
f 752 789 782
f 752 782 753
f 753 782 781
f 753 781 755
f 755 781 779
f 755 779 756
f 756 779 777
f 756 777 770
f 770 777 776
f 770 776 771
f 771 776 788
f 771 788 772
f 772 788 787
f 772 787 744
f 744 787 786
f 744 786 745
f 745 786 774
f 745 774 757
f 757 774 773
f 757 773 758
f 758 773 801
f 758 801 760
f 760 801 800
f 760 800 761
f 761 800 799
f 761 799 762
f 762 799 798
f 762 798 763
f 763 798 797
f 763 797 765
f 765 797 795
f 765 795 766
f 766 795 793
f 766 793 767
f 767 793 792
f 767 792 768
f 768 792 804
f 768 804 769
f 769 804 803
f 769 803 741
f 741 803 802
f 741 802 742
f 742 802 784
f 742 784 747
f 747 784 783
f 747 783 748
f 748 783 791
f 805 806 807
f 808 809 810
f 809 811 810
f 810 811 812
f 810 812 813
f 813 812 814
f 813 814 815
f 806 816 807
f 807 816 817
f 807 817 818
f 818 817 819
f 818 819 820
f 815 821 813
f 813 821 822
f 813 822 823
f 823 822 824
f 823 824 825
f 825 826 823
f 823 826 827
f 823 827 807
f 807 827 828
f 807 828 805
f 820 829 818
f 818 829 830
f 818 830 831
f 831 830 832
f 831 832 833
f 833 834 831
f 831 834 835
f 831 835 810
f 810 835 836
f 810 836 808
f 837 838 839
f 840 841 842
f 838 843 839
f 839 843 844
f 839 844 845
f 845 844 846
f 845 846 847
f 841 848 842
f 842 848 849
f 842 849 850
f 850 849 851
f 850 851 852
f 852 853 850
f 850 853 854
f 850 854 855
f 855 854 856
f 855 856 857
f 847 858 845
f 845 858 859
f 845 859 860
f 860 859 861
f 860 861 862
f 857 863 855
f 855 863 864
f 855 864 839
f 839 864 865
f 839 865 837
f 862 866 860
f 860 866 867
f 860 867 842
f 842 867 868
f 842 868 840
f 818 831 839
f 839 831 855
f 807 818 845
f 845 818 839
f 823 807 860
f 860 807 845
f 813 823 842
f 842 823 860
f 831 810 855
f 855 810 850
f 817 844 819
f 819 844 843
f 819 843 820
f 820 843 838
f 820 838 829
f 829 838 837
f 829 837 830
f 830 837 865
f 830 865 832
f 832 865 864
f 832 864 833
f 833 864 863
f 833 863 834
f 834 863 857
f 834 857 835
f 835 857 856
f 835 856 836
f 836 856 854
f 836 854 808
f 808 854 853
f 808 853 809
f 809 853 852
f 809 852 811
f 811 852 851
f 811 851 812
f 812 851 849
f 812 849 814
f 814 849 848
f 814 848 815
f 815 848 841
f 815 841 821
f 821 841 840
f 821 840 822
f 822 840 868
f 822 868 824
f 824 868 867
f 824 867 825
f 825 867 866
f 825 866 826
f 826 866 862
f 826 862 827
f 827 862 861
f 827 861 828
f 828 861 859
f 828 859 805
f 805 859 858
f 805 858 806
f 806 858 847
f 806 847 816
f 816 847 846
f 816 846 817
f 817 846 844
f 869 870 871
f 872 873 874
f 874 873 875
f 874 875 869
f 876 877 874
f 874 877 878
f 869 871 874
f 874 871 879
f 874 879 876
f 878 880 874
f 874 880 881
f 874 881 882
f 883 884 885
f 885 884 886
f 885 886 887
f 887 886 888
f 887 888 889
f 889 888 890
f 891 892 893
f 893 892 894
f 893 894 895
f 895 894 896
f 895 896 897
f 897 896 898
f 897 898 899
f 899 898 900
f 901 902 903
f 902 904 903
f 903 904 905
f 903 905 906
f 906 905 907
f 906 907 908
f 909 910 911
f 908 912 906
f 906 912 913
f 906 913 914
f 914 913 915
f 914 915 916
f 916 917 914
f 914 917 918
f 914 918 911
f 911 918 919
f 911 919 909
f 910 920 911
f 911 920 921
f 911 921 922
f 922 921 923
f 922 923 924
f 925 926 927
f 927 926 928
f 927 928 903
f 903 928 929
f 903 929 901
f 924 930 922
f 922 930 931
f 922 931 927
f 927 931 932
f 927 932 925
f 933 934 935
f 936 937 938
f 939 940 941
f 941 940 942
f 941 942 935
f 935 942 943
f 935 943 933
f 934 944 935
f 935 944 945
f 935 945 946
f 946 945 947
f 946 947 948
f 949 950 951
f 951 950 952
f 951 952 938
f 938 952 953
f 938 953 936
f 937 954 938
f 938 954 955
f 938 955 956
f 956 955 957
f 956 957 958
f 958 959 956
f 956 959 960
f 956 960 941
f 941 960 961
f 941 961 939
f 948 962 946
f 946 962 963
f 946 963 951
f 951 963 964
f 951 964 949
f 922 927 941
f 941 927 956
f 911 922 935
f 935 922 941
f 914 911 946
f 946 911 935
f 906 914 951
f 951 914 946
f 903 906 938
f 938 906 951
f 927 903 956
f 956 903 938
f 921 943 923
f 923 943 942
f 923 942 924
f 924 942 940
f 924 940 930
f 930 940 939
f 930 939 931
f 931 939 961
f 931 961 932
f 932 961 960
f 932 960 925
f 925 960 959
f 925 959 926
f 926 959 958
f 926 958 928
f 928 958 957
f 928 957 929
f 929 957 955
f 929 955 901
f 901 955 954
f 901 954 902
f 902 954 937
f 902 937 904
f 904 937 936
f 904 936 905
f 905 936 953
f 905 953 907
f 907 953 952
f 907 952 908
f 908 952 950
f 908 950 912
f 912 950 949
f 912 949 913
f 913 949 964
f 913 964 915
f 915 964 963
f 915 963 916
f 916 963 962
f 916 962 917
f 917 962 948
f 917 948 918
f 918 948 947
f 918 947 919
f 919 947 945
f 919 945 909
f 909 945 944
f 909 944 910
f 910 944 934
f 910 934 920
f 920 934 933
f 920 933 921
f 921 933 943
f 965 966 967
f 967 966 968
f 967 968 969
f 970 971 965
f 965 971 972
f 965 972 966
f 969 973 967
f 967 973 974
f 967 974 975
f 975 974 976
f 975 976 977
f 978 979 980
f 981 982 983
f 983 982 984
f 983 984 965
f 965 984 985
f 965 985 970
f 977 986 975
f 975 986 987
f 975 987 978
f 978 987 988
f 978 988 979
f 980 989 978
f 978 989 990
f 978 990 991
f 991 990 992
f 991 992 993
f 993 994 991
f 991 994 995
f 991 995 983
f 983 995 996
f 983 996 981
f 997 998 999
f 999 998 1000
f 999 1000 1001
f 1000 1002 1001
f 1001 1002 1003
f 1001 1003 1004
f 1004 1005 1001
f 1001 1005 1006
f 1001 1006 1007
f 1007 1006 1008
f 1007 1008 1009
f 1010 1011 1012
f 1013 1014 1015
f 1015 1014 1016
f 1015 1016 999
f 999 1016 1017
f 999 1017 997
f 1009 1018 1007
f 1007 1018 1019
f 1007 1019 1020
f 1020 1019 1021
f 1020 1021 1022
f 1022 1023 1020
f 1020 1023 1024
f 1020 1024 1010
f 1010 1024 1025
f 1010 1025 1011
f 1012 1026 1010
f 1010 1026 1027
f 1010 1027 1015
f 1015 1027 1028
f 1015 1028 1013
f 965 967 1010
f 1010 967 1020
f 983 965 1015
f 1015 965 1010
f 991 983 999
f 999 983 1015
f 978 991 1001
f 1001 991 999
f 975 978 1007
f 1007 978 1001
f 967 975 1020
f 1020 975 1007
f 985 1027 970
f 970 1027 1026
f 970 1026 971
f 971 1026 1012
f 971 1012 972
f 972 1012 1011
f 972 1011 966
f 966 1011 1025
f 966 1025 968
f 968 1025 1024
f 968 1024 969
f 969 1024 1023
f 969 1023 973
f 973 1023 1022
f 973 1022 974
f 974 1022 1021
f 974 1021 976
f 976 1021 1019
f 976 1019 977
f 977 1019 1018
f 977 1018 986
f 986 1018 1009
f 986 1009 987
f 987 1009 1008
f 987 1008 988
f 988 1008 1006
f 988 1006 979
f 979 1006 1005
f 979 1005 980
f 980 1005 1004
f 980 1004 989
f 989 1004 1003
f 989 1003 990
f 990 1003 1002
f 990 1002 992
f 992 1002 1000
f 992 1000 993
f 993 1000 998
f 993 998 994
f 994 998 997
f 994 997 995
f 995 997 1017
f 995 1017 996
f 996 1017 1016
f 996 1016 981
f 981 1016 1014
f 981 1014 982
f 982 1014 1013
f 982 1013 984
f 984 1013 1028
f 984 1028 985
f 985 1028 1027
f 1029 1030 1031
f 1032 1033 1034
f 1030 1035 1031
f 1031 1035 1036
f 1031 1036 1037
f 1037 1036 1038
f 1037 1038 1039
f 1040 1041 1042
f 1042 1041 1043
f 1042 1043 1034
f 1034 1043 1044
f 1034 1044 1032
f 1033 1045 1034
f 1034 1045 1046
f 1034 1046 1047
f 1047 1046 1048
f 1047 1048 1049
f 1050 1051 1052
f 1052 1051 1053
f 1052 1053 1031
f 1031 1053 1054
f 1031 1054 1029
f 1039 1055 1037
f 1037 1055 1056
f 1037 1056 1042
f 1042 1056 1057
f 1042 1057 1040
f 1049 1058 1047
f 1047 1058 1059
f 1047 1059 1052
f 1052 1059 1060
f 1052 1060 1050
f 1061 1062 1063
f 1064 1065 1066
f 1062 1067 1063
f 1063 1067 1068
f 1063 1068 1069
f 1069 1068 1070
f 1069 1070 1071
f 1072 1073 1074
f 1074 1073 1075
f 1074 1075 1066
f 1066 1075 1076
f 1066 1076 1064
f 1065 1077 1066
f 1066 1077 1078
f 1066 1078 1079
f 1079 1078 1080
f 1079 1080 1081
f 1082 1083 1084
f 1084 1083 1085
f 1084 1085 1063
f 1063 1085 1086
f 1063 1086 1061
f 1071 1087 1069
f 1069 1087 1088
f 1069 1088 1074
f 1074 1088 1089
f 1074 1089 1072
f 1081 1090 1079
f 1079 1090 1091
f 1079 1091 1084
f 1084 1091 1092
f 1084 1092 1082
f 1037 1042 1074
f 1074 1042 1069
f 1031 1037 1066
f 1066 1037 1074
f 1052 1031 1079
f 1079 1031 1066
f 1047 1052 1084
f 1084 1052 1079
f 1034 1047 1063
f 1063 1047 1084
f 1042 1034 1069
f 1069 1034 1063
f 1036 1076 1038
f 1038 1076 1075
f 1038 1075 1039
f 1039 1075 1073
f 1039 1073 1055
f 1055 1073 1072
f 1055 1072 1056
f 1056 1072 1089
f 1056 1089 1057
f 1057 1089 1088
f 1057 1088 1040
f 1040 1088 1087
f 1040 1087 1041
f 1041 1087 1071
f 1041 1071 1043
f 1043 1071 1070
f 1043 1070 1044
f 1044 1070 1068
f 1044 1068 1032
f 1032 1068 1067
f 1032 1067 1033
f 1033 1067 1062
f 1033 1062 1045
f 1045 1062 1061
f 1045 1061 1046
f 1046 1061 1086
f 1046 1086 1048
f 1048 1086 1085
f 1048 1085 1049
f 1049 1085 1083
f 1049 1083 1058
f 1058 1083 1082
f 1058 1082 1059
f 1059 1082 1092
f 1059 1092 1060
f 1060 1092 1091
f 1060 1091 1050
f 1050 1091 1090
f 1050 1090 1051
f 1051 1090 1081
f 1051 1081 1053
f 1053 1081 1080
f 1053 1080 1054
f 1054 1080 1078
f 1054 1078 1029
f 1029 1078 1077
f 1029 1077 1030
f 1030 1077 1065
f 1030 1065 1035
f 1035 1065 1064
f 1035 1064 1036
f 1036 1064 1076
f 1093 1094 1095
f 1095 1094 1096
f 1097 1098 1099
f 1099 1098 1100
f 1101 1102 1103
f 1103 1102 1104
f 1103 1104 1105
f 1106 1107 1108
f 1108 1107 1109
f 1110 1111 1112
f 1112 1111 1113
f 1114 1115 1116
f 1116 1115 1117
f 1118 1119 1120
f 1121 1122 1123
f 1124 1125 1126
f 1126 1125 1127
f 1126 1127 1128
f 1128 1127 1129
f 1128 1129 1130
f 1131 1132 1133
f 1133 1132 1134
f 1133 1134 1120
f 1120 1134 1135
f 1120 1135 1118
f 1119 1136 1120
f 1120 1136 1137
f 1120 1137 1126
f 1126 1137 1138
f 1126 1138 1124
f 1130 1139 1128
f 1128 1139 1140
f 1128 1140 1123
f 1123 1140 1141
f 1123 1141 1121
f 1122 1142 1123
f 1123 1142 1143
f 1123 1143 1144
f 1144 1143 1145
f 1144 1145 1146
f 1146 1147 1144
f 1144 1147 1148
f 1144 1148 1133
f 1133 1148 1149
f 1133 1149 1131
f 1150 1151 1152
f 1153 1154 1155
f 1155 1154 1156
f 1155 1156 1157
f 1157 1156 1158
f 1157 1158 1159
f 1160 1161 1162
f 1159 1163 1157
f 1157 1163 1164
f 1157 1164 1152
f 1152 1164 1165
f 1152 1165 1150
f 1151 1166 1152
f 1152 1166 1167
f 1152 1167 1168
f 1168 1167 1169
f 1168 1169 1170
f 1171 1172 1173
f 1173 1172 1174
f 1173 1174 1162
f 1162 1174 1175
f 1162 1175 1160
f 1161 1176 1162
f 1162 1176 1177
f 1162 1177 1155
f 1155 1177 1178
f 1155 1178 1153
f 1170 1179 1168
f 1168 1179 1180
f 1168 1180 1173
f 1173 1180 1181
f 1173 1181 1171
f 1144 1133 1157
f 1157 1133 1155
f 1123 1144 1152
f 1152 1144 1157
f 1128 1123 1168
f 1168 1123 1152
f 1126 1128 1173
f 1173 1128 1168
f 1120 1126 1162
f 1162 1126 1173
f 1133 1120 1155
f 1155 1120 1162
f 1143 1165 1145
f 1145 1165 1164
f 1145 1164 1146
f 1146 1164 1163
f 1146 1163 1147
f 1147 1163 1159
f 1147 1159 1148
f 1148 1159 1158
f 1148 1158 1149
f 1149 1158 1156
f 1149 1156 1131
f 1131 1156 1154
f 1131 1154 1132
f 1132 1154 1153
f 1132 1153 1134
f 1134 1153 1178
f 1134 1178 1135
f 1135 1178 1177
f 1135 1177 1118
f 1118 1177 1176
f 1118 1176 1119
f 1119 1176 1161
f 1119 1161 1136
f 1136 1161 1160
f 1136 1160 1137
f 1137 1160 1175
f 1137 1175 1138
f 1138 1175 1174
f 1138 1174 1124
f 1124 1174 1172
f 1124 1172 1125
f 1125 1172 1171
f 1125 1171 1127
f 1127 1171 1181
f 1127 1181 1129
f 1129 1181 1180
f 1129 1180 1130
f 1130 1180 1179
f 1130 1179 1139
f 1139 1179 1170
f 1139 1170 1140
f 1140 1170 1169
f 1140 1169 1141
f 1141 1169 1167
f 1141 1167 1121
f 1121 1167 1166
f 1121 1166 1122
f 1122 1166 1151
f 1122 1151 1142
f 1142 1151 1150
f 1142 1150 1143
f 1143 1150 1165
f 1182 1183 1184
f 1185 1186 1187
f 1183 1188 1184
f 1184 1188 1189
f 1184 1189 1190
f 1190 1189 1191
f 1190 1191 1192
f 1193 1194 1195
f 1195 1194 1196
f 1195 1196 1184
f 1184 1196 1197
f 1184 1197 1182
f 1192 1198 1190
f 1190 1198 1199
f 1190 1199 1200
f 1200 1199 1201
f 1200 1201 1202
f 1186 1203 1187
f 1187 1203 1204
f 1187 1204 1205
f 1205 1204 1206
f 1205 1206 1207
f 1202 1208 1200
f 1200 1208 1209
f 1200 1209 1187
f 1187 1209 1210
f 1187 1210 1185
f 1207 1211 1205
f 1205 1211 1212
f 1205 1212 1195
f 1195 1212 1213
f 1195 1213 1193
f 1214 1215 1187
f 1187 1215 1200
f 1216 1214 1205
f 1205 1214 1187
f 1217 1216 1195
f 1195 1216 1205
f 1218 1219 1190
f 1190 1219 1184
f 1215 1218 1200
f 1200 1218 1190
