v 0.0254147633 -0.195395296 0.0719498907
v 0.0254147633 -0.195395296 0.071899942
v 0.0254027232 -0.195444648 0.0719498907
v 0.0254027232 -0.195444648 0.071899942
v 0.0254147633 -0.195210164 0.0719498907
v 0.0254147633 -0.195210164 0.071899942
v 0.0253422841 -0.19509912 0.0719498907
v 0.0253543242 -0.195025032 0.0719498907
v 0.0252938851 -0.195086782 0.0719498907
v 0.0252938851 -0.195012693 0.0719498907
v 0.0250764474 -0.195086782 0.0719498907
v 0.0250039681 -0.195012693 0.0719498907
v 0.0250764474 -0.195518677 0.0719498907
v 0.0250039681 -0.195592706 0.0719498907
v 0.0252938851 -0.195518677 0.0719498907
v 0.0252938851 -0.195592706 0.0719498907
v 0.0253422841 -0.195506339 0.0719498907
v 0.0253543242 -0.195580368 0.0719498907
v 0.0254027232 -0.195555692 0.0719498907
v 0.0253785237 -0.195481663 0.0719498907
v 0.025451003 -0.195506339 0.0719498907
v 0.0254752024 -0.195456986 0.0719498907
v 0.0254872426 -0.195395296 0.0719498907
v 0.0254872426 -0.195210164 0.0719498907
v 0.0254027232 -0.195160811 0.0719498907
v 0.0254752024 -0.195148473 0.0719498907
v 0.0253785237 -0.195123796 0.0719498907
v 0.025451003 -0.19509912 0.0719498907
v 0.0254027232 -0.195049708 0.0719498907
v 0.0244722947 -0.195592706 0.0719498907
v 0.0249072894 -0.195592706 0.0719498907
v 0.0249072894 -0.195518677 0.0719498907
v 0.0245447739 -0.195518677 0.0719498907
v 0.0245447739 -0.195321207 0.0719498907
v 0.0244722947 -0.195012693 0.0719498907
v 0.0249072894 -0.195086782 0.0719498907
v 0.0249072894 -0.195012693 0.0719498907
v 0.0245447739 -0.195086782 0.0719498907
v 0.0245447739 -0.195247178 0.0719498907
v 0.0248588904 -0.195247178 0.0719498907
v 0.0248588904 -0.195321207 0.0719498907
v 0.0243031367 -0.195160811 0.0719498907
v 0.024375616 -0.195160811 0.0719498907
v 0.0242909774 -0.195123796 0.0719498907
v 0.0243635758 -0.19509912 0.0719498907
v 0.0242547377 -0.19509912 0.0719498907
v 0.024375616 -0.195444648 0.0719498907
v 0.0243031367 -0.195444648 0.0719498907
v 0.0243635758 -0.195506339 0.0719498907
v 0.0242909774 -0.195481663 0.0719498907
v 0.0243151769 -0.195555692 0.0719498907
v 0.0242547377 -0.195506339 0.0719498907
v 0.0243151769 -0.195049708 0.0719498907
v 0.0242668971 -0.195025032 0.0719498907
v 0.024206458 -0.195086782 0.0719498907
v 0.024206458 -0.195012693 0.0719498907
v 0.0240977391 -0.195086782 0.0719498907
v 0.0240977391 -0.195012693 0.0719498907
v 0.0240493401 -0.19509912 0.0719498907
v 0.0240493401 -0.195506339 0.0719498907
v 0.0240373 -0.195580368 0.0719498907
v 0.0240977391 -0.195518677 0.0719498907
v 0.0240977391 -0.195592706 0.0719498907
v 0.024206458 -0.195518677 0.0719498907
v 0.024206458 -0.195592706 0.0719498907
v 0.0242668971 -0.195580368 0.0719498907
v 0.0240373 -0.195025032 0.0719498907
v 0.023988901 -0.195049708 0.0719498907
v 0.0240131005 -0.195123796 0.0719498907
v 0.0239406213 -0.19509912 0.0719498907
v 0.023988901 -0.195160811 0.0719498907
v 0.0239164218 -0.195148473 0.0719498907
v 0.0239768609 -0.195210164 0.0719498907
v 0.0239043816 -0.195210164 0.0719498907
v 0.0239768609 -0.195395296 0.0719498907
v 0.0239043816 -0.195395296 0.0719498907
v 0.023988901 -0.195444648 0.0719498907
v 0.0239164218 -0.195456986 0.0719498907
v 0.0240131005 -0.195481663 0.0719498907
v 0.0239406213 -0.195506339 0.0719498907
v 0.023988901 -0.195555692 0.0719498907
v 0.0234451875 -0.195012693 0.0719498907
v 0.0233727082 -0.195012693 0.0719498907
v 0.0234451875 -0.195518677 0.0719498907
v 0.0233727082 -0.195592706 0.0719498907
v 0.0238077029 -0.195518677 0.0719498907
v 0.0238077029 -0.195592706 0.0719498907
v 0.0253543242 -0.195580368 0.071899942
v 0.0254027232 -0.195555692 0.071899942
v 0.0249072894 -0.195592706 0.071899942
v 0.0249072894 -0.195518677 0.071899942
v 0.024375616 -0.195444648 0.071899942
v 0.0243031367 -0.195444648 0.071899942
v 0.024206458 -0.195012693 0.071899942
v 0.0240977391 -0.195012693 0.071899942
v 0.0239043816 -0.195395296 0.071899942
v 0.0239164218 -0.195456986 0.071899942
v 0.0250039681 -0.235592787 0.0719498907
v 0.0250039681 -0.235592787 0.071899942
v 0.0252938851 -0.235592787 0.0719498907
v 0.0252938851 -0.235592787 0.071899942
v 0.025451003 -0.23550642 0.0719498907
v 0.025451003 -0.23550642 0.071899942
v 0.0254752024 -0.235457067 0.0719498907
v 0.0254752024 -0.235457067 0.071899942
v 0.0245447739 -0.235086863 0.0719498907
v 0.0245447739 -0.235086863 0.071899942
v 0.0249072894 -0.235086863 0.0719498907
v 0.0249072894 -0.235086863 0.071899942
v 0.0244722947 -0.235012774 0.0719498907
v 0.0244722947 -0.235012774 0.071899942
v 0.0244722947 -0.235592787 0.0719498907
v 0.0244722947 -0.235592787 0.071899942
v 0.0240373 -0.235025113 0.0719498907
v 0.0240373 -0.235025113 0.071899942
v 0.023988901 -0.235049789 0.0719498907
v 0.023988901 -0.235049789 0.071899942
v 0.0259343966 -0.235395377 0.0719498907
v 0.0259343966 -0.235395377 0.071899942
v 0.0257168397 -0.235395377 0.0719498907
v 0.0257168397 -0.235395377 0.071899942
v -0.0253656522 -0.200249975 0.0689309154
v -0.0253656522 -0.200240021 0.0689309154
v -0.0252739803 -0.200240021 0.0688865696
v -0.0252739803 -0.200249975 0.0688865696
v -0.0251964942 -0.200240021 0.0688216005
v -0.0251964942 -0.200249975 0.0688216005
v -0.0251402274 -0.200240021 0.0687445913
v -0.0251402274 -0.200249975 0.0687445913
v -0.025101842 -0.200240021 0.0686501775
v -0.025101842 -0.200249975 0.0686501775
v -0.0250880138 -0.200240021 0.068543366
v -0.0250880138 -0.200249975 0.068543366
f 1 2 3
f 3 2 4
f 5 6 1
f 1 6 2
f 7 8 9
f 9 8 10
f 9 10 11
f 11 10 12
f 11 12 13
f 13 12 14
f 13 14 15
f 15 14 16
f 15 16 17
f 16 18 17
f 17 18 19
f 17 19 20
f 20 19 21
f 20 21 3
f 3 21 22
f 3 22 1
f 1 22 23
f 1 23 5
f 5 23 24
f 5 24 25
f 25 24 26
f 25 26 27
f 27 26 28
f 27 28 7
f 7 28 29
f 7 29 8
f 30 31 32
f 32 33 30
f 30 33 34
f 30 34 35
f 36 37 38
f 38 37 35
f 38 35 39
f 39 35 34
f 39 34 40
f 40 34 41
f 42 43 44
f 44 43 45
f 44 45 46
f 47 48 49
f 49 48 50
f 49 50 51
f 51 50 52
f 45 53 46
f 46 53 54
f 46 54 55
f 55 54 56
f 55 56 57
f 57 56 58
f 57 58 59
f 60 61 62
f 62 61 63
f 62 63 64
f 64 63 65
f 64 65 52
f 52 65 66
f 52 66 51
f 58 67 59
f 59 67 68
f 59 68 69
f 69 68 70
f 69 70 71
f 71 70 72
f 71 72 73
f 73 72 74
f 73 74 75
f 75 74 76
f 75 76 77
f 77 76 78
f 77 78 79
f 79 78 80
f 79 80 60
f 60 80 81
f 60 81 61
f 82 83 84
f 84 83 85
f 84 85 86
f 86 85 87
f 18 88 19
f 19 88 89
f 31 90 32
f 32 90 91
f 47 92 48
f 48 92 93
f 56 94 58
f 58 94 95
f 76 96 78
f 78 96 97
f 98 99 100
f 100 99 101
f 102 103 104
f 104 103 105
f 106 107 108
f 108 107 109
f 110 111 112
f 112 111 113
f 114 115 116
f 116 115 117
f 118 119 120
f 120 119 121
f 122 123 124
f 122 124 125
f 125 124 126
f 125 126 127
f 127 126 128
f 127 128 129
f 129 128 130
f 129 130 131
f 131 130 132
f 131 132 133
