v 0.0279397308 -0.0191535626 -0.0108467005
v 0.0292742788 -0.0178190146 -0.00952037791
v 0.000869923718 -0.0462234292 -0.00553294638
v 0.000203543789 -0.0468898092 -0.00724204997
v 0.0248724758 -0.0222208176 -0.0123586319
v 0.000529700406 -0.0465635929 -0.00676223258
v 0.000757032521 -0.0463362608 -0.00617929915
v -0.00719231974 -0.0542855535 -0.00816592196
v -0.00745779883 -0.0545511518 -0.00968655566
v -0.000264948718 -0.0473582421 -0.00287529448
v 0.000147277005 -0.0469460759 -0.00319680194
v 0.0222209035 -0.0248724494 0.0123585798
v 0.0264556943 -0.0206376586 -0.0118035934
v -0.0127344788 -0.0598278318 0.0048586466
v -0.00237388026 -0.0494672332 -0.00373765448
v -0.00204772364 -0.0491409574 -0.00325783709
v -0.00199145686 -0.0490846906 -0.00730308512
v -0.0023307265 -0.0494240198 -0.00684174517
v -0.00257403266 -0.0496673856 -0.00627192477
v -0.00270480525 -0.0497980986 -0.00563248614
v -0.00164467704 -0.04873803 -0.00291367987
v -0.0011925162 -0.0482858691 -0.00272878626
v -0.000721877925 -0.0478152309 -0.00271567324
v -0.0148246945 -0.0619180474 -0.00394162158
v -0.0191814364 -0.0662747297 -0.00154849509
v -0.0153595866 -0.0624528799 -0.00531324366
v -0.0198223056 -0.0669156585 -0.00366958598
v -0.0156250657 -0.0627184186 -0.00683387736
v -0.0201767148 -0.0672700677 -0.00592121104
v -0.0156033696 -0.0626966629 -0.0083999298
v -0.0131090344 -0.0602023277 -0.0020029209
v -0.0120450915 -0.0591383848 -0.00156780699
v -0.0109377564 -0.0580310497 -0.001537051
v -0.000199383609 -0.0472927365 -0.00758620719
v -0.000651663654 -0.0477448974 -0.00777110079
v -0.00112218272 -0.0482155357 -0.00778421382
v -0.00721401583 -0.0543073688 -0.00659986952
v -0.00157923114 -0.0486725245 -0.00762459258
v -0.00271410357 -0.0498073969 -0.00496682147
v -0.00260121238 -0.0496945057 -0.00432058791
v -0.0079925717 -0.0550859246 -0.0110581777
v -0.00876027953 -0.0558535729 -0.0121873281
v -0.0100829066 -0.0571761999 -0.0198584459
v -0.00970835101 -0.0568016443 -0.0129969976
v -0.0107722939 -0.0578655873 -0.0134319923
v -0.0117111863 -0.0588045392 -0.0199925564
v -0.011879629 -0.0589729223 -0.0134628675
v -0.013329214 -0.0604225669 -0.0197012089
v -0.0129548968 -0.0600481901 -0.0130872391
v 0.0268611251 -0.0202321682 0.00374547025
v 0.0274336873 -0.0196596656 0.00240472337
v 0.0315890848 -0.0155042682 0.00518551847
v -0.0147231282 -0.0618164811 -0.0112453363
v -0.0175834359 -0.0646767292 -0.0164439342
v -0.0139247836 -0.0610180769 -0.0123309753
v -0.0163162411 -0.0634095345 -0.0178961418
v -0.014881915 -0.0619751487 -0.018994417
v -0.0202326239 -0.0673258577 -0.00822659949
v -0.0199878873 -0.0670812402 -0.0105071924
v -0.0152956904 -0.0623889837 -0.00990458945
v -0.0194510878 -0.0665443812 -0.0126853845
v -0.0186403454 -0.0657336984 -0.0146870277
v -0.0143176974 -0.0614109907 0.00430372735
v -0.0158018531 -0.0628950868 0.00334683439
v -0.0140571059 -0.0611504588 -0.0028125904
v -0.0171362818 -0.0642296348 0.00202051183
v -0.0182758034 -0.0653690968 0.000370059217
v -0.00986248862 -0.056955782 -0.00191256026
v -0.00889260184 -0.0559859548 -0.0026689432
v -0.00809425723 -0.0551875506 -0.00375446299
v -0.00752169501 -0.0546149883 -0.00509520987
v 0.000486546643 -0.0466067467 -0.00365814189
v 0.0193301975 -0.0277630959 0.000666055883
v 0.000729852803 -0.0463634405 -0.00422796229
v 0.0193520128 -0.0277412806 -0.000899996554
v 0.000860625393 -0.0462326679 -0.00486740092
v 0.0196596919 -0.027433661 -0.00240465621
v 0.0202321349 -0.0268610988 -0.0037455223
v 0.0210305988 -0.0260626946 -0.00483104209
v 0.0321258842 -0.0149674092 0.00300732633
v 0.0277412473 -0.0193519864 0.000899944509
v 0.0323705016 -0.0147227917 0.000726733411
v 0.0323147117 -0.0147785816 -0.00157865504
v 0.0277630626 -0.0193302307 -0.000665988718
v 0.0319603025 -0.0151329909 -0.0038302801
v 0.0274974643 -0.0195957694 -0.00218662242
v 0.0313194333 -0.0157739196 -0.0059514902
v 0.0269626914 -0.0201306019 -0.0035582445
v 0.0304138004 -0.0166795526 -0.0078699253
v 0.0261951028 -0.0208981905 -0.00468739489
v 0.0252470313 -0.0218463216 -0.00549706439
v 0.0250928937 -0.0220004592 0.00558737298
v 0.0254672109 -0.0216260824 0.0122013428
v 0.0240176259 -0.023075727 0.00596288225
v 0.0238491832 -0.0232441101 0.0124926903
v 0.0229102908 -0.0241830621 0.00593212625
v 0.0218463479 -0.025247005 0.00549701234
v 0.0307783424 -0.016314951 0.00718716165
v 0.0297214328 -0.0173719201 0.00894394895
v 0.0260626613 -0.0210305724 0.00483099004
v 0.0284542381 -0.0186391149 0.0103962757
v 0.0270197927 -0.0200735007 0.0114945509
v 0.0241830884 -0.0229102645 -0.00593205908
v 0.0230757533 -0.0240175996 -0.00596293429
v 0.0220004855 -0.0250928674 -0.00558730582
v 0.0195957958 -0.0274974976 0.00218668958
v 0.0201305686 -0.0269627247 0.00355819246
v 0.0208981572 -0.0261950765 0.00468734285
v -0.00496453654 -0.0435725723 -0.00271567324
v -0.00543517482 -0.0440432105 -0.00272878626
v -0.0169771374 -0.0555851731 0.0048586466
v -0.00657338511 -0.0451814208 -0.00684174517
v -0.00623399626 -0.0448420916 -0.00730308512
v -0.0143255652 -0.0529335413 -0.0198584459
v -0.00582188975 -0.0444298659 -0.00762459258
v -0.0035126866 -0.0421207819 -0.00422796229
v -0.00375611197 -0.0423640881 -0.00365814189
v 0.0150875388 -0.0235204373 0.000666055883
v -0.00409538161 -0.0427034173 -0.00319680194
v -0.00450760733 -0.043115643 -0.00287529448
v -0.00588733565 -0.044495431 -0.00291367987
v -0.00629026305 -0.0448983584 -0.00325783709
v -0.00661653888 -0.0452245746 -0.00373765448
v -0.019538349 -0.0581463847 -0.00990458945
v -0.0242305459 -0.0628385816 -0.0105071924
v -0.019845909 -0.0584540043 -0.0083999298
v -0.0244751633 -0.0630832586 -0.00822659949
v -0.0198677243 -0.05847576 -0.00683387736
v -0.0244193734 -0.0630274091 -0.00592121104
v -0.019602126 -0.0582102213 -0.00531324366
v -0.00536484133 -0.043972877 -0.00778421382
v -0.00489420306 -0.0435022984 -0.00777110079
v 0.0206298171 -0.0179782186 -0.0123586319
v -0.00444204222 -0.0430500779 -0.00758620719
v -0.00403911483 -0.0426471505 -0.00724204997
v -0.00371295821 -0.0423209343 -0.00676223258
v -0.00348562609 -0.0420936618 -0.00617929915
v -0.0181674422 -0.0567754183 -0.0123309753
v -0.0218260945 -0.0604341302 -0.0164439342
v -0.0189657868 -0.0575738225 -0.0112453363
v -0.0228830041 -0.0614910994 -0.0146870277
v -0.0236937464 -0.0623017822 -0.0126853845
v -0.00694746386 -0.0455554996 -0.00563248614
v -0.00681669127 -0.045424727 -0.00627192477
v -0.0130028189 -0.0516109142 -0.0121873281
v -0.0139510096 -0.0525589857 -0.0129969976
v -0.0150149525 -0.0536229882 -0.0134319923
v -0.0161222876 -0.0547303233 -0.0134628675
v -0.00695664298 -0.0455647383 -0.00496682147
v -0.0122352303 -0.0508433256 -0.0110581777
v -0.0117004574 -0.0503084932 -0.00968655566
v -0.0159538449 -0.0545618806 -0.0199925564
v -0.0175718726 -0.0561799083 -0.0197012089
v -0.0171975554 -0.0558055315 -0.0130872391
v -0.0191244544 -0.0577325497 -0.018994417
v -0.0205588998 -0.0591668759 -0.0178961418
v 0.0153531371 -0.0232548986 0.00218668958
v 0.01588791 -0.0227200661 0.00355819246
v -0.0114348591 -0.0500429545 -0.00816592196
v -0.0114566744 -0.0500647102 -0.00659986952
v -0.00684387099 -0.0454518471 -0.00432058791
v -0.0182997645 -0.0569078002 -0.0028125904
v -0.0200443925 -0.0586524878 0.00334683439
v -0.017351693 -0.0559597287 -0.0020029209
v -0.018560356 -0.0571683321 0.00430372735
v -0.0162877501 -0.0548957262 -0.00156780699
v -0.015180415 -0.0537883911 -0.001537051
v -0.0240649642 -0.0626729999 -0.00366958598
v -0.023424095 -0.0620320711 -0.00154849509
v -0.0190673531 -0.0576753888 -0.00394162158
v -0.0225184621 -0.0611264382 0.000370059217
v -0.0213789405 -0.0599869762 0.00202051183
v -0.00338203322 -0.0419900093 -0.00486740092
v 0.0151093541 -0.0234986816 -0.000899996554
v -0.0033727349 -0.0419807706 -0.00553294638
v 0.0154170333 -0.0231910024 -0.00240465621
v 0.0218201219 -0.0167879734 0.00483099004
v 0.0254787742 -0.0131292615 0.00894394895
v 0.0226184665 -0.0159895692 0.00374547025
v 0.0265356838 -0.0120722923 0.00718716165
v 0.0231910287 -0.015417007 0.00240472337
v -0.0117643536 -0.0503723297 -0.00509520987
v -0.0123367966 -0.0509448919 -0.00375446299
v -0.0131352605 -0.0517432962 -0.0026689432
v -0.0141051472 -0.0527131829 -0.00191256026
v 0.0177578269 -0.0208502088 -0.00558730582
v 0.0167879402 -0.0218200956 -0.00483104209
v 0.0159895955 -0.0226184998 -0.0037455223
v 0.0232549249 -0.0153531704 -0.00218662242
v 0.0270767747 -0.0115313206 -0.0059514902
v 0.0227200328 -0.0158879433 -0.0035582445
v 0.0261711418 -0.012436894 -0.0078699253
v 0.0219524442 -0.0166555915 -0.00468739489
v 0.0273464261 -0.0112616096 0.00518551847
v 0.0278832256 -0.0107248101 0.00300732633
v 0.0234987079 -0.0151093874 0.000899944509
v 0.028127843 -0.0104801331 0.000726733411
v 0.023520404 -0.0150875721 -0.000665988718
v 0.0280720531 -0.0105359826 -0.00157865504
v 0.0277176439 -0.0108903918 -0.0038302801
v 0.0179782449 -0.0206298504 0.0123585798
v 0.0196065246 -0.0190015111 0.0124926903
v 0.0197749673 -0.0188330684 0.00596288225
v 0.0212245523 -0.0173834834 0.0122013428
v 0.0208502351 -0.0177578006 0.00558737298
v 0.0227771341 -0.015830842 0.0114945509
v 0.0242115794 -0.0143964563 0.0103962757
v 0.0186676322 -0.0199404035 0.00593212625
v 0.0176036893 -0.0210043464 0.00549701234
v 0.0166556178 -0.0219524775 0.00468734285
v 0.0188330947 -0.019774941 -0.00596293429
v 0.0199404298 -0.0186676059 -0.00593205908
v 0.0222130357 -0.016395 -0.0118035934
v 0.0210043727 -0.017603663 -0.00549706439
v 0.0236970722 -0.014910904 -0.0108467005
v 0.0250316202 -0.013576356 -0.00952037791
v -0.0473582209 -0.000264969845 -0.00287529448
v -0.0469461144 0.000147255878 -0.00319680194
v -0.0248724879 0.0222208228 0.0123585798
v -0.0191535414 0.0279397692 -0.0108467005
v -0.0178189934 0.0292742576 -0.00952037791
v -0.0462234677 0.000869902591 -0.00553294638
v -0.0468898476 0.000203522663 -0.00724204997
v -0.0222207965 0.0248724546 -0.0123586319
v -0.0465635718 0.000529738884 -0.00676223258
v -0.0463362397 0.000757011394 -0.00617929915
v -0.054285592 -0.00719228127 -0.00816592196
v -0.0545511902 -0.00745781996 -0.00968655566
v -0.059827751 -0.0127345 0.0048586466
v -0.0490847291 -0.00199141838 -0.00730308512
v -0.0494239987 -0.00233074762 -0.00684174517
v -0.0206376971 0.0264556732 -0.0118035934
v -0.0496674241 -0.00257405378 -0.00627192477
v -0.0497980775 -0.00270482637 -0.00563248614
v -0.0498073758 -0.00271406509 -0.00496682147
v -0.0496944846 -0.0026011739 -0.00432058791
v -0.0494672717 -0.00237390139 -0.00373765448
v -0.0491409959 -0.00204768517 -0.00325783709
v -0.0487380685 -0.00164475777 -0.00291367987
v -0.0482859076 -0.00119253733 -0.00272878626
v -0.0478152693 -0.000721899052 -0.00271567324
v -0.0202321471 0.026861104 0.00374547025
v -0.0196597041 0.0274336662 0.00240472337
v -0.0155041875 0.0315890636 0.00518551847
v -0.0619180859 -0.0148247156 -0.00394162158
v -0.0662747086 -0.0191813979 -0.00154849509
v -0.0624528588 -0.0153595481 -0.00531324366
v -0.066915697 -0.0198223267 -0.00366958598
v -0.0627184571 -0.0156250868 -0.00683387736
v -0.0672701062 -0.0201767359 -0.00592121104
v -0.0626966418 -0.0156033311 -0.0083999298
v -0.0602023066 -0.0131090555 -0.0020029209
v -0.0591383637 -0.012045053 -0.00156780699
v -0.0580310286 -0.0109377179 -0.001537051
v -0.047292775 -0.000199404736 -0.00758620719
v -0.0477449359 -0.000651625176 -0.00777110079
v -0.0482155741 -0.00112226345 -0.00778421382
v -0.0543074073 -0.00721403696 -0.00659986952
v -0.0486725033 -0.00157919266 -0.00762459258
v -0.014967388 0.0321258631 0.00300732633
v -0.0193520249 0.0277412858 0.000899944509
v -0.0147227706 0.0323705401 0.000726733411
v -0.0550859631 -0.00799265244 -0.0110581777
v -0.0558535517 -0.00876024105 -0.0121873281
v -0.0571761788 -0.0100828681 -0.0198584459
v -0.0568016232 -0.00970831253 -0.0129969976
v -0.0578655661 -0.010772315 -0.0134319923
v -0.0588044585 -0.0117112074 -0.0199925564
v -0.0589729012 -0.0118796501 -0.0134628675
v -0.0604224862 -0.0133292351 -0.0197012089
v -0.060048169 -0.0129548583 -0.0130872391
v -0.0147785605 0.0323146906 -0.00157865504
v -0.0193302096 0.0277631011 -0.000665988718
v -0.0151329697 0.0319602814 -0.0038302801
v -0.0195958079 0.0274975028 -0.00218662242
v -0.0157739581 0.0313193526 -0.0059514902
v -0.0201305808 0.0269627299 -0.0035582445
v -0.0166795911 0.0304137792 -0.0078699253
v -0.0208981694 0.0261950817 -0.00468739489
v -0.0218462409 0.0252470102 -0.00549706439
v -0.0466067256 0.000486585121 -0.00365814189
v -0.0277630747 0.0193302359 0.000666055883
v -0.0463634194 0.000729891281 -0.00422796229
v -0.0277412594 0.0193519916 -0.000899996554
v -0.0462326468 0.000860663871 -0.00486740092
v -0.0274336995 0.0196596708 -0.00240465621
v -0.0268611373 0.0202321734 -0.0037455223
v -0.0260626734 0.0210305776 -0.00483104209
v -0.0220004977 0.0250928726 0.00558737298
v -0.0216260613 0.0254671898 0.0122013428
v -0.0230757655 0.0240176048 0.00596288225
v -0.023244089 0.0238491621 0.0124926903
v -0.0241831006 0.0229102697 0.00593212625
v -0.0252470435 0.0218463268 0.00549701234
v -0.0163149298 0.0307783809 0.00718716165
v -0.0173718394 0.0297214117 0.00894394895
v -0.0210306109 0.0260626998 0.00483099004
v -0.0186391534 0.0284541573 0.0103962757
v -0.0200734795 0.0270198312 0.0114945509
v -0.0618165196 -0.0147231493 -0.0112453363
v -0.0646767081 -0.017583457 -0.0164439342
v -0.0610180558 -0.0139247451 -0.0123309753
v -0.0634095133 -0.0163162027 -0.0178961418
v -0.0619751872 -0.0148818765 -0.018994417
v -0.0673258961 -0.0202325854 -0.00822659949
v -0.0670812787 -0.0199879084 -0.0105071924
v -0.0623889626 -0.0152957115 -0.00990458945
v -0.06654436 -0.019451109 -0.0126853845
v -0.0657337369 -0.0186404262 -0.0146870277
v -0.0614109696 -0.0143176589 0.00430372735
v -0.0628951253 -0.0158018146 0.00334683439
v -0.0611504973 -0.014057127 -0.0028125904
v -0.0642296733 -0.017136303 0.00202051183
v -0.0653690756 -0.018275765 0.000370059217
v -0.0569557608 -0.00986250975 -0.00191256026
v -0.055985874 -0.00889262297 -0.0026689432
v -0.0551875294 -0.00809421875 -0.00375446299
v -0.0546149672 -0.00752165653 -0.00509520987
v -0.022910303 0.0241830673 -0.00593205908
v -0.0240176381 0.0230757322 -0.00596293429
v -0.0250929059 0.0220004644 -0.00558730582
v -0.0274974765 0.0195957746 0.00218668958
v -0.0269627036 0.0201306071 0.00355819246
v -0.026195115 0.0208981957 0.00468734285
v -0.052057928 0.00352069996 -0.00271567324
v -0.052528447 0.00305012129 -0.00272878626
v -0.0640704096 -0.00849184134 0.0048586466
v -0.0536666573 0.00191191099 -0.00684174517
v -0.0533273877 0.00225124023 -0.00730308512
v -0.0614188374 -0.0058402095 -0.0198584459
v -0.052915162 0.00266340635 -0.00762459258
v -0.050606078 0.0049725499 -0.00422796229
v -0.0508493842 0.00472918413 -0.00365814189
v -0.0320057334 0.0235728946 0.000666055883
v -0.0511886538 0.00438991449 -0.00319680194
v -0.0516008795 0.00397768877 -0.00287529448
v -0.0529807271 0.00259790085 -0.00291367987
v -0.0533836545 0.00219497345 -0.00325783709
v -0.0537098111 0.00186875723 -0.00373765448
v -0.0666316212 -0.0110530529 -0.00990458945
v -0.0713238181 -0.0157452498 -0.0105071924
v -0.0669393004 -0.0113606725 -0.0083999298
v -0.0715685548 -0.0159899268 -0.00822659949
v -0.0669609965 -0.0113824878 -0.00683387736
v -0.0715126456 -0.0159340773 -0.00592121104
v -0.0666955174 -0.0111168895 -0.00531324366
v -0.0524582328 0.00312039516 -0.00778421382
v -0.0519875945 0.00359103344 -0.00777110079
v -0.0264634551 0.0291151132 -0.0123586319
v -0.0515354336 0.00404319427 -0.00758620719
v -0.051132387 0.00444612167 -0.00724204997
v -0.0508062304 0.0047723975 -0.00676223258
v -0.0505788983 0.00499967001 -0.00617929915
v -0.0652607144 -0.00968208649 -0.0123309753
v -0.0689193667 -0.0133407984 -0.0164439342
v -0.066059059 -0.0104804907 -0.0112453363
v -0.0699763955 -0.0143977676 -0.0146870277
v -0.0707870186 -0.0152084503 -0.0126853845
v -0.0540407361 0.00153783224 -0.00563248614
v -0.0539099635 0.00166860483 -0.00627192477
v -0.0600962104 -0.00451758244 -0.0121873281
v -0.0610442818 -0.00546571352 -0.0129969976
v -0.0621082247 -0.00652965643 -0.0134319923
v -0.0632155598 -0.00763699152 -0.0134628675
v -0.0540500344 0.00152859352 -0.00496682147
v -0.0593286217 -0.00374999382 -0.0110581777
v -0.0587937297 -0.00321516134 -0.00968655566
v -0.0630471171 -0.00746854879 -0.0199925564
v -0.0646651448 -0.00908657648 -0.0197012089
v -0.0642908276 -0.00871225931 -0.0130872391
v -0.0662178458 -0.0106392179 -0.018994417
v -0.067652172 -0.012073544 -0.0178961418
v -0.0317401351 0.0238384332 0.00218668958
v -0.0312053622 0.0243732657 0.00355819246
v -0.0585282506 -0.00294962265 -0.00816592196
v -0.0585499467 -0.00297137835 -0.00659986952
v -0.0539371432 0.00164142511 -0.00432058791
v -0.0653930367 -0.0098144684 -0.0028125904
v -0.0671377839 -0.011559156 0.00334683439
v -0.0644449652 -0.00886639692 -0.0020029209
v -0.0656536282 -0.0100750599 0.00430372735
v -0.0633810223 -0.00780245401 -0.00156780699
v -0.0622736872 -0.00669511892 -0.001537051
v -0.0711582364 -0.0155796681 -0.00366958598
v -0.0705173672 -0.0149387393 -0.00154849509
v -0.0661607445 -0.0105821166 -0.00394162158
v -0.0696117343 -0.014033166 0.000370059217
v -0.0684722127 -0.0128936444 0.00202051183
v -0.0504753054 0.00510326288 -0.00486740092
v -0.0319839181 0.0235946502 -0.000899996554
v -0.0504660071 0.00511256121 -0.00553294638
v -0.0316763581 0.0239022698 -0.00240465621
v -0.0252732695 0.0303053584 0.00483099004
v -0.021614498 0.0339640703 0.00894394895
v -0.0244748057 0.0311037626 0.00374547025
v -0.0205575885 0.0350210395 0.00718716165
v -0.0239022435 0.0316763248 0.00240472337
v -0.0588576258 -0.00327905752 -0.00509520987
v -0.0594301881 -0.00385156014 -0.00375446299
v -0.0602285327 -0.00464996435 -0.0026689432
v -0.0611984194 -0.00561985113 -0.00191256026
v -0.025140828 0.0304377403 -0.00468739489
v -0.0233962001 0.0321824279 -0.0108467005
v -0.0260888995 0.0294896688 -0.00549706439
v -0.0248803557 0.0306982722 -0.0118035934
v -0.0271529616 0.0284256663 -0.00593205908
v -0.0282602967 0.0273183312 -0.00596293429
v -0.0311037959 0.024474832 -0.0037455223
v -0.0303053321 0.0252732363 -0.00483104209
v -0.0293354453 0.026243123 -0.00558730582
v -0.0291151465 0.0264634814 0.0123585798
v -0.0274867476 0.0280918207 0.0124926903
v -0.0273183049 0.0282602634 0.00596288225
v -0.0258687199 0.0297098484 0.0122013428
v -0.0262431563 0.0293354716 0.00558737298
v -0.0243161381 0.0312624898 0.0114945509
v -0.022881812 0.0326968159 0.0103962757
v -0.02842564 0.0271529283 0.00593212625
v -0.0294897021 0.0260889258 0.00549701234
v -0.0304377736 0.0251408543 0.00468734285
v -0.0238384665 0.0317401614 -0.00218662242
v -0.0200166167 0.0355620112 -0.0059514902
v -0.0243732394 0.0312053289 -0.0035582445
v -0.0209222497 0.0346563782 -0.0078699253
v -0.0220616521 0.0335169163 -0.00952037791
v -0.0197468461 0.0358317222 0.00518551847
v -0.0192100466 0.0363685217 0.00300732633
v -0.0235946835 0.0319839444 0.000899944509
v -0.0189654292 0.0366131987 0.000726733411
v -0.0235728682 0.0320057001 -0.000665988718
v -0.0190212191 0.0365573492 -0.00157865504
v -0.0193756283 0.03620294 -0.0038302801
f 1 2 3
f 4 5 6
f 6 5 7
f 5 8 9
f 10 11 12
f 7 5 3
f 3 5 13
f 3 13 1
f 14 15 16
f 17 18 14
f 14 18 19
f 14 19 20
f 16 21 14
f 14 21 22
f 14 22 12
f 12 22 23
f 12 23 10
f 24 25 26
f 26 25 27
f 26 27 28
f 28 27 29
f 28 29 30
f 31 32 14
f 14 32 33
f 4 34 5
f 5 34 35
f 5 35 8
f 8 35 36
f 8 36 37
f 37 36 38
f 20 39 14
f 14 39 40
f 14 40 15
f 9 41 5
f 5 41 42
f 5 42 43
f 42 44 43
f 43 44 45
f 43 45 46
f 46 45 47
f 46 47 48
f 48 47 49
f 50 51 52
f 53 54 55
f 55 54 56
f 55 56 49
f 49 56 57
f 49 57 48
f 29 58 30
f 30 58 59
f 30 59 60
f 60 59 61
f 60 61 53
f 53 61 62
f 53 62 54
f 14 63 31
f 31 63 64
f 31 64 65
f 65 64 66
f 65 66 24
f 24 66 67
f 24 67 25
f 33 68 14
f 14 68 69
f 14 69 17
f 17 69 70
f 17 70 38
f 38 70 71
f 38 71 37
f 11 72 73
f 73 72 74
f 73 74 75
f 75 74 76
f 75 76 77
f 77 76 3
f 77 3 78
f 78 3 79
f 52 51 80
f 80 51 81
f 80 81 82
f 82 81 83
f 83 81 84
f 83 84 85
f 85 84 86
f 85 86 87
f 87 86 88
f 87 88 89
f 89 88 2
f 2 88 90
f 2 90 91
f 92 93 94
f 94 93 95
f 94 95 96
f 96 95 12
f 96 12 97
f 52 98 50
f 50 98 99
f 50 99 100
f 100 99 101
f 100 101 92
f 92 101 102
f 92 102 93
f 91 103 2
f 2 103 104
f 2 104 3
f 3 104 105
f 3 105 79
f 73 106 11
f 11 106 107
f 11 107 12
f 12 107 108
f 12 108 97
f 109 110 111
f 112 113 114
f 114 113 115
f 116 117 118
f 118 117 119
f 118 119 120
f 110 121 111
f 111 121 122
f 111 122 123
f 124 125 126
f 126 125 127
f 126 127 128
f 128 127 129
f 128 129 130
f 115 131 114
f 114 131 132
f 114 132 133
f 133 132 134
f 134 135 133
f 133 135 136
f 133 136 137
f 138 139 140
f 140 139 141
f 140 141 124
f 124 141 142
f 124 142 125
f 143 144 145
f 145 144 112
f 145 112 146
f 146 112 114
f 146 114 147
f 147 114 148
f 143 145 149
f 149 145 150
f 149 150 151
f 114 152 148
f 148 152 153
f 148 153 154
f 154 153 155
f 154 155 138
f 138 155 156
f 138 156 139
f 120 109 118
f 118 109 111
f 118 111 157
f 157 111 158
f 151 159 149
f 149 159 160
f 149 160 161
f 162 163 164
f 164 163 165
f 164 165 166
f 166 165 111
f 166 111 167
f 129 168 130
f 130 168 169
f 130 169 170
f 170 169 171
f 170 171 162
f 162 171 172
f 162 172 163
f 116 118 173
f 173 118 174
f 173 174 175
f 175 174 176
f 175 176 137
f 177 178 179
f 179 178 180
f 179 180 181
f 160 182 161
f 161 182 183
f 161 183 123
f 123 183 184
f 123 184 111
f 111 184 185
f 111 185 167
f 186 133 187
f 187 133 137
f 187 137 188
f 188 137 176
f 189 190 191
f 191 190 192
f 191 192 193
f 180 194 181
f 181 194 195
f 181 195 196
f 196 195 197
f 196 197 198
f 198 197 199
f 198 199 189
f 189 199 200
f 189 200 190
f 201 202 203
f 203 202 204
f 203 204 205
f 205 204 206
f 205 206 177
f 177 206 207
f 177 207 178
f 203 208 201
f 201 208 209
f 201 209 111
f 111 209 210
f 111 210 158
f 186 211 133
f 133 211 212
f 133 212 213
f 213 212 214
f 213 214 215
f 215 214 193
f 215 193 216
f 216 193 192
f 14 111 165
f 14 165 63
f 63 165 163
f 63 163 64
f 64 163 172
f 64 172 66
f 66 172 171
f 66 171 67
f 67 171 169
f 67 169 25
f 25 169 168
f 25 168 27
f 27 168 129
f 27 129 29
f 29 129 127
f 29 127 58
f 58 127 125
f 58 125 59
f 59 125 142
f 59 142 61
f 61 142 141
f 61 141 62
f 62 141 139
f 62 139 54
f 54 139 156
f 54 156 56
f 56 156 155
f 56 155 57
f 57 155 153
f 57 153 48
f 48 153 152
f 48 152 46
f 46 152 114
f 46 114 43
f 5 43 133
f 133 43 114
f 5 133 213
f 5 213 13
f 13 213 215
f 13 215 1
f 1 215 216
f 1 216 2
f 2 216 192
f 2 192 89
f 89 192 190
f 89 190 87
f 87 190 200
f 87 200 85
f 85 200 199
f 85 199 83
f 83 199 197
f 83 197 82
f 82 197 195
f 82 195 80
f 80 195 194
f 80 194 52
f 52 194 180
f 52 180 98
f 98 180 178
f 98 178 99
f 99 178 207
f 99 207 101
f 101 207 206
f 101 206 102
f 102 206 204
f 102 204 93
f 93 204 202
f 93 202 95
f 95 202 201
f 95 201 12
f 14 12 111
f 111 12 201
f 30 126 28
f 28 126 128
f 28 128 26
f 26 128 130
f 26 130 24
f 24 130 170
f 24 170 65
f 65 170 162
f 65 162 31
f 31 162 164
f 31 164 32
f 32 164 166
f 32 166 33
f 33 166 167
f 33 167 68
f 68 167 185
f 68 185 69
f 69 185 184
f 69 184 70
f 70 184 183
f 70 183 71
f 71 183 182
f 71 182 37
f 37 182 160
f 37 160 8
f 8 160 159
f 8 159 9
f 9 159 151
f 9 151 41
f 41 151 150
f 41 150 42
f 42 150 145
f 42 145 44
f 44 145 146
f 44 146 45
f 45 146 147
f 45 147 47
f 47 147 148
f 47 148 49
f 49 148 154
f 49 154 55
f 55 154 138
f 55 138 53
f 53 138 140
f 53 140 60
f 60 140 124
f 60 124 30
f 30 124 126
f 75 174 73
f 73 174 118
f 73 118 106
f 106 118 157
f 106 157 107
f 107 157 158
f 107 158 108
f 108 158 210
f 108 210 97
f 97 210 209
f 97 209 96
f 96 209 208
f 96 208 94
f 94 208 203
f 94 203 92
f 92 203 205
f 92 205 100
f 100 205 177
f 100 177 50
f 50 177 179
f 50 179 51
f 51 179 181
f 51 181 81
f 81 181 196
f 81 196 84
f 84 196 198
f 84 198 86
f 86 198 189
f 86 189 88
f 88 189 191
f 88 191 90
f 90 191 193
f 90 193 91
f 91 193 214
f 91 214 103
f 103 214 212
f 103 212 104
f 104 212 211
f 104 211 105
f 105 211 186
f 105 186 79
f 79 186 187
f 79 187 78
f 78 187 188
f 78 188 77
f 77 188 176
f 77 176 75
f 75 176 174
f 173 76 116
f 116 76 74
f 116 74 117
f 117 74 72
f 117 72 119
f 119 72 11
f 119 11 120
f 120 11 10
f 120 10 109
f 109 10 23
f 109 23 110
f 110 23 22
f 110 22 121
f 121 22 21
f 121 21 122
f 122 21 16
f 122 16 123
f 123 16 15
f 123 15 161
f 161 15 40
f 161 40 149
f 149 40 39
f 149 39 143
f 143 39 20
f 143 20 144
f 144 20 19
f 144 19 112
f 112 19 18
f 112 18 113
f 113 18 17
f 113 17 115
f 115 17 38
f 115 38 131
f 131 38 36
f 131 36 132
f 132 36 35
f 132 35 134
f 134 35 34
f 134 34 135
f 135 34 4
f 135 4 136
f 136 4 6
f 136 6 137
f 137 6 7
f 137 7 175
f 175 7 3
f 175 3 173
f 173 3 76
f 217 218 219
f 220 221 222
f 223 224 225
f 225 224 226
f 224 227 228
f 229 230 231
f 226 224 222
f 222 224 232
f 222 232 220
f 231 233 229
f 229 233 234
f 229 234 235
f 235 236 229
f 229 236 237
f 229 237 238
f 238 239 229
f 229 239 240
f 229 240 219
f 219 240 241
f 219 241 217
f 242 243 244
f 245 246 247
f 247 246 248
f 247 248 249
f 249 248 250
f 249 250 251
f 252 253 229
f 229 253 254
f 223 255 224
f 224 255 256
f 224 256 227
f 227 256 257
f 227 257 258
f 258 257 259
f 244 243 260
f 260 243 261
f 260 261 262
f 228 263 224
f 224 263 264
f 224 264 265
f 264 266 265
f 265 266 267
f 265 267 268
f 268 267 269
f 268 269 270
f 270 269 271
f 262 261 272
f 272 261 273
f 272 273 274
f 274 273 275
f 274 275 276
f 276 275 277
f 276 277 278
f 278 277 221
f 221 277 279
f 221 279 280
f 218 281 282
f 282 281 283
f 282 283 284
f 284 283 285
f 284 285 286
f 286 285 222
f 286 222 287
f 287 222 288
f 289 290 291
f 291 290 292
f 291 292 293
f 293 292 219
f 293 219 294
f 244 295 242
f 242 295 296
f 242 296 297
f 297 296 298
f 297 298 289
f 289 298 299
f 289 299 290
f 300 301 302
f 302 301 303
f 302 303 271
f 271 303 304
f 271 304 270
f 250 305 251
f 251 305 306
f 251 306 307
f 307 306 308
f 307 308 300
f 300 308 309
f 300 309 301
f 229 310 252
f 252 310 311
f 252 311 312
f 312 311 313
f 312 313 245
f 245 313 314
f 245 314 246
f 254 315 229
f 229 315 316
f 229 316 230
f 230 316 317
f 230 317 259
f 259 317 318
f 259 318 258
f 280 319 221
f 221 319 320
f 221 320 222
f 222 320 321
f 222 321 288
f 282 322 218
f 218 322 323
f 218 323 219
f 219 323 324
f 219 324 294
f 325 326 327
f 328 329 330
f 330 329 331
f 332 333 334
f 334 333 335
f 334 335 336
f 326 337 327
f 327 337 338
f 327 338 339
f 340 341 342
f 342 341 343
f 342 343 344
f 344 343 345
f 344 345 346
f 331 347 330
f 330 347 348
f 330 348 349
f 349 348 350
f 350 351 349
f 349 351 352
f 349 352 353
f 354 355 356
f 356 355 357
f 356 357 340
f 340 357 358
f 340 358 341
f 359 360 361
f 361 360 328
f 361 328 362
f 362 328 330
f 362 330 363
f 363 330 364
f 359 361 365
f 365 361 366
f 365 366 367
f 330 368 364
f 364 368 369
f 364 369 370
f 370 369 371
f 370 371 354
f 354 371 372
f 354 372 355
f 336 325 334
f 334 325 327
f 334 327 373
f 373 327 374
f 367 375 365
f 365 375 376
f 365 376 377
f 378 379 380
f 380 379 381
f 380 381 382
f 382 381 327
f 382 327 383
f 345 384 346
f 346 384 385
f 346 385 386
f 386 385 387
f 386 387 378
f 378 387 388
f 378 388 379
f 332 334 389
f 389 334 390
f 389 390 391
f 391 390 392
f 391 392 353
f 393 394 395
f 395 394 396
f 395 396 397
f 376 398 377
f 377 398 399
f 377 399 339
f 339 399 400
f 339 400 327
f 327 400 401
f 327 401 383
f 402 403 404
f 404 403 405
f 404 405 406
f 406 405 349
f 406 349 407
f 392 408 353
f 353 408 409
f 353 409 349
f 349 409 410
f 349 410 407
f 411 412 413
f 413 412 414
f 413 414 415
f 415 414 416
f 415 416 393
f 393 416 417
f 393 417 394
f 413 418 411
f 411 418 419
f 411 419 327
f 327 419 420
f 327 420 374
f 421 422 423
f 423 422 424
f 423 424 402
f 402 424 425
f 402 425 403
f 396 426 397
f 397 426 427
f 397 427 428
f 428 427 429
f 428 429 430
f 430 429 431
f 430 431 421
f 421 431 432
f 421 432 422
f 229 327 381
f 229 381 310
f 310 381 379
f 310 379 311
f 311 379 388
f 311 388 313
f 313 388 387
f 313 387 314
f 314 387 385
f 314 385 246
f 246 385 384
f 246 384 248
f 248 384 345
f 248 345 250
f 250 345 343
f 250 343 305
f 305 343 341
f 305 341 306
f 306 341 358
f 306 358 308
f 308 358 357
f 308 357 309
f 309 357 355
f 309 355 301
f 301 355 372
f 301 372 303
f 303 372 371
f 303 371 304
f 304 371 369
f 304 369 270
f 270 369 368
f 270 368 268
f 268 368 330
f 268 330 265
f 224 265 349
f 349 265 330
f 224 349 405
f 224 405 232
f 232 405 403
f 232 403 220
f 220 403 425
f 220 425 221
f 221 425 424
f 221 424 278
f 278 424 422
f 278 422 276
f 276 422 432
f 276 432 274
f 274 432 431
f 274 431 272
f 272 431 429
f 272 429 262
f 262 429 427
f 262 427 260
f 260 427 426
f 260 426 244
f 244 426 396
f 244 396 295
f 295 396 394
f 295 394 296
f 296 394 417
f 296 417 298
f 298 417 416
f 298 416 299
f 299 416 414
f 299 414 290
f 290 414 412
f 290 412 292
f 292 412 411
f 292 411 219
f 229 219 327
f 327 219 411
f 251 342 249
f 249 342 344
f 249 344 247
f 247 344 346
f 247 346 245
f 245 346 386
f 245 386 312
f 312 386 378
f 312 378 252
f 252 378 380
f 252 380 253
f 253 380 382
f 253 382 254
f 254 382 383
f 254 383 315
f 315 383 401
f 315 401 316
f 316 401 400
f 316 400 317
f 317 400 399
f 317 399 318
f 318 399 398
f 318 398 258
f 258 398 376
f 258 376 227
f 227 376 375
f 227 375 228
f 228 375 367
f 228 367 263
f 263 367 366
f 263 366 264
f 264 366 361
f 264 361 266
f 266 361 362
f 266 362 267
f 267 362 363
f 267 363 269
f 269 363 364
f 269 364 271
f 271 364 370
f 271 370 302
f 302 370 354
f 302 354 300
f 300 354 356
f 300 356 307
f 307 356 340
f 307 340 251
f 251 340 342
f 284 390 282
f 282 390 334
f 282 334 322
f 322 334 373
f 322 373 323
f 323 373 374
f 323 374 324
f 324 374 420
f 324 420 294
f 294 420 419
f 294 419 293
f 293 419 418
f 293 418 291
f 291 418 413
f 291 413 289
f 289 413 415
f 289 415 297
f 297 415 393
f 297 393 242
f 242 393 395
f 242 395 243
f 243 395 397
f 243 397 261
f 261 397 428
f 261 428 273
f 273 428 430
f 273 430 275
f 275 430 421
f 275 421 277
f 277 421 423
f 277 423 279
f 279 423 402
f 279 402 280
f 280 402 404
f 280 404 319
f 319 404 406
f 319 406 320
f 320 406 407
f 320 407 321
f 321 407 410
f 321 410 288
f 288 410 409
f 288 409 287
f 287 409 408
f 287 408 286
f 286 408 392
f 286 392 284
f 284 392 390
f 389 285 332
f 332 285 283
f 332 283 333
f 333 283 281
f 333 281 335
f 335 281 218
f 335 218 336
f 336 218 217
f 336 217 325
f 325 217 241
f 325 241 326
f 326 241 240
f 326 240 337
f 337 240 239
f 337 239 338
f 338 239 238
f 338 238 339
f 339 238 237
f 339 237 377
f 377 237 236
f 377 236 365
f 365 236 235
f 365 235 359
f 359 235 234
f 359 234 360
f 360 234 233
f 360 233 328
f 328 233 231
f 328 231 329
f 329 231 230
f 329 230 331
f 331 230 259
f 331 259 347
f 347 259 257
f 347 257 348
f 348 257 256
f 348 256 350
f 350 256 255
f 350 255 351
f 351 255 223
f 351 223 352
f 352 223 225
f 352 225 353
f 353 225 226
f 353 226 391
f 391 226 222
f 391 222 389
f 389 222 285
