v 0.00177646653 0.0488697535 -0.006183162
v 0.00217915552 0.0492724425 -0.00583840873
v 0.0073773958 0.0544708019 -0.00483752753
v 0.00250507371 0.0495983607 -0.00535799529
v 0.00273180978 0.0498252159 -0.00477482345
v 0.007641802 0.0547352081 -0.003316417
v 0.00284422414 0.0499375111 -0.00412835147
v 0.0081756212 0.0552689081 -0.00194407966
v -0.0277635954 0.0193296915 0.000659689643
v -0.0320297383 0.0150636679 0.00351081822
v -0.0274991892 0.0195940977 0.00218068097
v -0.031469693 0.0156235939 0.005540714
v -0.02696537 0.0201279169 0.00355313752
v 0.00245953576 0.0495528227 -0.00225402381
v 0.00211978929 0.0492131954 -0.0017931607
v 0.0125660993 0.0596593863 0.00692711804
v -0.0196614168 0.0274318701 0.00241051648
v -0.0202350519 0.0268583542 0.00375042889
v -0.000627746417 0.0464655405 -0.00292123821
v 0.00132442491 0.0484177118 -0.00636877086
v 0.00740040319 0.0544936901 -0.00640346076
v 0.000853786634 0.0479470736 -0.00638247993
v 0.0131362774 0.0602296835 9.2611053e-05
v 0.0120607712 0.0591540581 0.000466451385
v 0.0155122377 0.0626055247 0.00570784543
v 0.00170744436 0.0488007313 -0.0014723685
v 0.00125027673 0.0483435637 -0.00131346252
v -0.0225748919 0.0245183951 0.012424216
v 0.000779638456 0.0478730446 -0.00132729079
v 0.00032759683 0.047421003 -0.00151278045
v -0.0229058169 0.0241874701 -0.00593115356
v -0.0218421124 0.0252511746 -0.00549448993
v -0.000740160777 0.0463531262 -0.00356759097
v -0.0208946369 0.02619865 -0.00468338992
v -0.0201278828 0.0269654041 -0.00355304744
v -0.027431836 0.019661451 -0.00241054561
v -0.032134404 0.0149588829 -0.00295795467
v -0.027740588 0.0193526989 -0.000906362793
v -0.0323672198 0.0147260672 -0.000804081223
v -0.0323319338 0.0147613531 0.00137423012
v -0.000730385615 0.0463629013 -0.00423313644
v -0.000599136187 0.0464941508 -0.00487245586
v -0.0245183609 0.022574926 -0.0124242451
v -0.00035535319 0.0467379337 -0.00544191863
v 0.0141067602 0.0612000471 -0.000662341378
v 0.00270319955 0.0497966057 -0.00282348659
v 0.0140769579 0.0611702448 0.00649975274
v -0.0195941828 0.0274992233 -0.0021807101
v -0.0193297766 0.0277636295 -0.000659599564
v -0.0193526648 0.0277406222 0.000906333663
v -0.0260590218 0.0210342652 -0.00483478572
v -0.0299380921 0.0171551949 -0.00863410499
v -0.0268583201 0.0202349669 -0.00375045802
v -0.0309011839 0.016192103 -0.00693334605
v -0.0316407583 0.0154525286 -0.00502194431
v 0.0106226303 0.0577159172 -0.0179213431
v 0.000396738218 0.0474900252 -0.00622357394
v -1.57259242e-05 0.047077561 -0.00590278175
v 0.00283444898 0.0499278551 -0.00346280601
v 0.00988985078 0.0569831377 -2.63716934e-06
v 0.00894237535 0.0560356623 -0.000813737175
v -7.50921504e-05 0.047018314 -0.00185753371
v -0.000400891139 0.0466923958 -0.00233794715
v -0.0241151951 0.0229780918 0.0124741647
v -0.025638213 0.0214550739 0.0121450279
v -0.0270976923 0.0199955946 0.011446819
v -0.021034231 0.0260590559 0.0048348758
v -0.0220047138 0.0250885731 0.00558970902
v -0.0230802201 0.0240130669 0.00596366856
v -0.0241875551 0.0229057318 0.00593112443
v -0.0252511404 0.0218421465 0.0054944608
v -0.0284492872 0.0186439997 0.0104008767
v -0.0261986159 0.0208946711 0.00468336079
v -0.0296518706 0.0174414164 0.00903891061
v -0.0306690834 0.0164243227 0.00740228627
v 0.0168285467 0.0639218336 0.00457547639
v 0.0179858305 0.0650791174 0.00313697789
v 0.0149059393 0.0619993454 -0.00174666908
v 0.0189489223 0.0660422093 0.00143621896
v 0.0154795744 0.0625728613 -0.00308658149
v -0.024013152 0.0230802542 -0.00596357848
v -0.0260292195 0.0210640675 -0.0119968798
v -0.0250886582 0.0220046288 -0.00558973815
v -0.0274644993 0.0196287876 -0.0112049725
v -0.0287808083 0.0183124787 -0.0100726035
v 0.00770915525 0.0548024422 -0.00790764358
v 0.00828267114 0.0553760773 -0.00924755599
v 0.00908196943 0.0561752564 -0.0103320029
v 0.010052333 0.0571457392 -0.0110868361
v 0.0111279585 0.0582212454 -0.0114607957
v 0.0121629335 0.0592562205 -0.0179712918
v 0.0122351743 0.0593285805 -0.0114282515
v 0.0155468084 0.0626402146 -0.00767780807
v 0.0195174314 0.0666107184 -0.0110378411
v 0.0150131084 0.0621063954 -0.00905026462
v 0.0187167026 0.0658099896 -0.0128994134
v 0.0142463543 0.0613396412 -0.0101804879
v 0.0196884968 0.0667817837 -0.000475182793
v 0.0201821424 0.0672754294 -0.00253917243
v 0.0157883264 0.0628816134 -0.00459076431
v 0.020414839 0.0675082451 -0.00469304588
v 0.0158113338 0.0629046208 -0.00615681674
v 0.020379553 0.0674729592 -0.00687135722
v 0.0200773575 0.0671707636 -0.00900794532
v 0.0109534361 0.0580468422 0.000434026458
v 0.017699609 0.0647928959 -0.0145360377
v 0.0164970257 0.0635903126 -0.0158980038
v 0.0132988788 0.0603921658 -0.0109915879
v 0.0151454307 0.0622387177 -0.0169439461
v 0.0136859514 0.0607792383 -0.017642155
v 0.00594998376 0.0445580727 -0.0014723685
v 0.0063624479 0.0449705368 -0.0017931607
v 0.0168087579 0.0554168469 0.00692711804
v 0.00670219438 0.0453101641 -0.00225402381
v 0.0183194973 0.0569275862 0.00649975274
v 0.00694585817 0.0455539471 -0.00282348659
v 0.00674761312 0.045355702 -0.00535799529
v 0.00642181413 0.0450297838 -0.00583840873
v 0.0148652889 0.0534732586 -0.0179213431
v 0.00601912515 0.0446270949 -0.006183162
v 0.00556708352 0.0441750532 -0.00636877086
v 0.00509644525 0.0437045342 -0.00638247993
v -0.0202758215 0.0183322674 -0.0124242451
v 0.00463939683 0.0432473665 -0.00622357394
v 0.00422693269 0.0428349024 -0.00590278175
v 0.00388730542 0.0424952751 -0.00544191863
v 0.00364352243 0.0422514921 -0.00487245586
v 0.00416756646 0.0427756554 -0.00185753371
v 0.00457025544 0.0431783444 -0.00151278045
v -0.0183322333 0.0202757364 0.012424216
v 0.00502229707 0.043630386 -0.00132729079
v 0.00549293535 0.0441009051 -0.00131346252
v 0.013324628 0.0519325977 -0.0103320029
v 0.0125253298 0.0511334187 -0.00924755599
v 0.00708688276 0.0456949717 -0.00412835147
v 0.0119518139 0.0505599028 -0.00790764358
v 0.0197548963 0.058362866 0.00570784543
v 0.0141325094 0.0527404791 -2.63716934e-06
v 0.0151960947 0.0538041836 0.000434026458
v 0.0200538732 0.0586619621 -0.00615681674
v 0.0246574976 0.0632655865 -0.00469304588
v 0.020030985 0.0586389548 -0.00459076431
v 0.024424801 0.0630327707 -0.00253917243
v 0.019722233 0.0583302027 -0.00308658149
v 0.0239311554 0.0625391251 -0.000475182793
v 0.0191485979 0.0577566868 -0.00174666908
v 0.019255767 0.0578637367 -0.00905026462
v 0.02376009 0.0623680597 -0.0110378411
v 0.019789467 0.0583975559 -0.00767780807
v 0.0243200161 0.062928105 -0.00900794532
v 0.0246222116 0.0632303005 -0.00687135722
v 0.0069744684 0.0455825573 -0.00477482345
v 0.0142949917 0.0529030806 -0.0110868361
v 0.0153704979 0.0539785868 -0.0114607957
v 0.016477833 0.0550859219 -0.0114282515
v 0.013185034 0.0517930037 -0.000813737175
v 0.0163034298 0.0549115187 0.000466451385
v 0.017378936 0.0559870249 9.2611053e-05
v 0.0210712053 0.059679175 0.00457547639
v 0.0183494188 0.0569573885 -0.000662341378
v 0.0222284891 0.0608364588 0.00313697789
v 0.0231915809 0.0617995506 0.00143621896
v 0.0175415375 0.0561495072 -0.0109915879
v 0.0207396843 0.059347654 -0.0158980038
v 0.0184890129 0.0570969826 -0.0101804879
v 0.0219422676 0.0605502373 -0.0145360377
v 0.0229593612 0.0615674502 -0.0128994134
v -0.0153515242 0.0232565647 -0.0021807101
v 0.003512273 0.0421202427 -0.00423313644
v -0.0159923933 0.0226156956 0.00375042889
v -0.0154188774 0.0231892115 0.00241051648
v -0.0151100062 0.0234979635 0.000906333663
v 0.00384176748 0.0424497372 -0.00233794715
v 0.0116430618 0.0502510315 -0.00640346076
v 0.0116200544 0.0502281433 -0.00483752753
v 0.00707710759 0.0456851965 -0.00346280601
v 0.0118844606 0.0504925495 -0.003316417
v 0.0124182798 0.0510262495 -0.00194407966
v 0.0164055921 0.0550135618 -0.0179712918
v 0.01792861 0.0565365797 -0.017642155
v 0.0193880893 0.0579960591 -0.0169439461
v -0.0226156615 0.0159924275 -0.00375045802
v -0.0256954335 0.0129125363 -0.00863410499
v -0.0218164824 0.0167916065 -0.00483478572
v -0.0245382689 0.01406982 -0.0100726035
v -0.0208459996 0.0177620894 -0.00558973815
v -0.015087118 0.0235209709 -0.000659599564
v 0.00350249784 0.0421105868 -0.00356759097
v 0.0036149122 0.0422228819 -0.00292123821
v -0.0232219599 0.015386129 -0.0112049725
v -0.0217865608 0.0168215281 -0.0119968798
v -0.0197704933 0.0188375956 -0.00596357848
v -0.0186631583 0.0199449307 -0.00593115356
v -0.0234979294 0.0151100403 -0.000906362793
v -0.0278918646 0.0107162243 -0.00295795467
v -0.0231891773 0.0154187924 -0.00241054561
v -0.0273980997 0.01120987 -0.00502194431
v -0.0266585253 0.0119494444 -0.00693334605
v -0.0227227114 0.0158852583 0.00355313752
v -0.0272270344 0.0113809353 0.005540714
v -0.0232565306 0.0153515583 0.00218068097
v -0.0277870796 0.0108210093 0.00351081822
v -0.0235209368 0.0150871521 0.000659689643
v -0.0280892752 0.0105188137 0.00137423012
v -0.0281245611 0.0104835278 -0.000804081223
v -0.0167915724 0.0218163973 0.0048348758
v -0.0177620552 0.0208460337 0.00558970902
v -0.0158852242 0.0227227455 -0.00355304744
v -0.0166519783 0.0219559914 -0.00468338992
v -0.0175994538 0.0210085159 -0.00549448993
v -0.0219559572 0.0166520125 0.00468336079
v -0.0254093312 0.0131987578 0.00903891061
v -0.0264264248 0.0121816641 0.00740228627
v -0.0188375614 0.0197704083 0.00596366856
v -0.0198725365 0.0187354332 0.0124741647
v -0.0199448965 0.0186631924 0.00593112443
v -0.0213955544 0.0172124153 0.0121450279
v -0.0210084818 0.0175994879 0.0054944608
v -0.0228550337 0.015752936 0.011446819
v -0.0242066286 0.0144013411 0.0104008767
v 0.046494136 -0.000599121458 -0.00487245586
v 0.046737919 -0.000355338461 -0.00544191863
v 0.0225749113 -0.0245184654 -0.0124242451
v 0.0261986353 -0.0208946222 -0.00468338992
v 0.0269653894 -0.0201278681 -0.00355304744
v 0.0463532306 -0.000740146048 -0.00356759097
v 0.0201279022 -0.0269653553 0.00355313752
v 0.0195942022 -0.0274991745 0.00218068097
v 0.0156235792 -0.0314696783 0.005540714
v 0.0183124639 -0.0287809128 -0.0100726035
v 0.0230802395 -0.0240131372 -0.00596357848
v 0.0241875746 -0.0229058021 -0.00593115356
v 0.0150636532 -0.0320297235 0.00351081822
v 0.0193296768 -0.0277635807 0.000659689643
v 0.0147614576 -0.0323319191 0.00137423012
v 0.0147261717 -0.032367205 -0.000804081223
v 0.0193526842 -0.0277405733 -0.000906362793
v 0.0149588682 -0.0321345085 -0.00295795467
v 0.0154525139 -0.0316407436 -0.00502194431
v 0.0196614362 -0.0274318212 -0.00241054561
v 0.0161920883 -0.0309011692 -0.00693334605
v 0.0202350713 -0.0268583053 -0.00375045802
v 0.0171551801 -0.0299380773 -0.00863410499
v 0.0210342504 -0.0260591263 -0.00483478572
v 0.0220047333 -0.0250886434 -0.00558973815
v 0.0463628866 -0.000730370886 -0.00423313644
v 0.0210640527 -0.0260292047 -0.0119968798
v 0.0196287729 -0.0274646038 -0.0112049725
v 0.0252511598 -0.0218420976 -0.00549448993
v 0.0268583395 -0.0202350372 0.00375042889
v 0.0260590412 -0.0210342163 0.0048348758
v 0.0245183803 -0.0225748771 0.012424216
v 0.0274992086 -0.0195941681 -0.0021807101
v 0.0277636148 -0.0193297619 -0.000659599564
v 0.0464655258 -0.000627731688 -0.00292123821
v 0.0277406074 -0.0193526501 0.000906333663
v 0.0466923811 -0.00040087641 -0.00233794715
v 0.0274318554 -0.0196615213 0.00241051648
v 0.0470775463 -1.5711195e-05 -0.00590278175
v 0.0474900104 0.000396752947 -0.00622357394
v 0.0577159025 0.010622645 -0.0179213431
v 0.0479471781 0.000853801363 -0.00638247993
v 0.0484176971 0.00132443964 -0.00636877086
v 0.0470182993 -7.50774212e-05 -0.00185753371
v 0.0474209882 0.000327611559 -0.00151278045
v 0.0250886776 -0.0220046991 0.00558970902
v 0.0240130522 -0.0230802053 0.00596366856
v 0.0229780771 -0.0241151804 0.0124741647
v 0.0229058363 -0.0241875404 0.00593112443
v 0.016424308 -0.0306690687 0.00740228627
v 0.0174414016 -0.0296518558 0.00903891061
v 0.0208946563 -0.0261986011 0.00468336079
v 0.018643985 -0.0284492725 0.0104008767
v 0.0218421318 -0.0252511257 0.0054944608
v 0.0199955799 -0.0270976776 0.011446819
v 0.0214550592 -0.0256381983 0.0121450279
v 0.0596594908 0.0125661141 0.00692711804
v 0.0488007166 0.00170733988 -0.0014723685
v 0.0483435489 0.00125029146 -0.00131346252
v 0.0495983459 0.00250496923 -0.00535799529
v 0.0553760626 0.00828268587 -0.00924755599
v 0.0561752416 0.00908198416 -0.0103320029
v 0.0488697387 0.00177648126 -0.006183162
v 0.0492724277 0.00217917024 -0.00583840873
v 0.0592562057 0.0121629482 -0.0179712918
v 0.0607792236 0.0136859661 -0.017642155
v 0.0571457245 0.0100523478 -0.0110868361
v 0.0478730299 0.000779653185 -0.00132729079
v 0.0560356476 0.00894239008 -0.000813737175
v 0.0552688934 0.00817563593 -0.00194407966
v 0.0499278404 0.00283446371 -0.00346280601
v 0.0547351934 0.00764181673 -0.003316417
v 0.0499376156 0.00284423887 -0.00412835147
v 0.0544707872 0.00737741052 -0.00483752753
v 0.0498252012 0.00273182451 -0.00477482345
v 0.0544936754 0.00740041792 -0.00640346076
v 0.0548024275 0.00770916998 -0.00790764358
v 0.049796591 0.00270321428 -0.00282348659
v 0.049552808 0.00245955049 -0.00225402381
v 0.0492131807 0.00211980402 -0.0017931607
v 0.062904606 0.0158112293 -0.00615681674
v 0.0671707489 0.0200773722 -0.00900794532
v 0.0626401998 0.0155468231 -0.00767780807
v 0.0666107036 0.0195174462 -0.0110378411
v 0.0621063806 0.0150131231 -0.00905026462
v 0.0628815986 0.0157883412 -0.00459076431
v 0.0675082304 0.0204148537 -0.00469304588
v 0.0674729444 0.0203795677 -0.00687135722
v 0.0612000324 0.0141067749 -0.000662341378
v 0.0650791027 0.0179858452 0.00313697789
v 0.0619993307 0.014905954 -0.00174666908
v 0.0660421945 0.0189489371 0.00143621896
v 0.0625728466 0.0154795891 -0.00308658149
v 0.066781769 0.0196885115 -0.000475182793
v 0.0672754146 0.0201821572 -0.00253917243
v 0.056983123 0.00988986551 -2.63716934e-06
v 0.0580468275 0.0109534508 0.000434026458
v 0.0591541626 0.0120607859 0.000466451385
v 0.0611702301 0.0140768534 0.00649975274
v 0.0602296688 0.0131362921 9.2611053e-05
v 0.0626055099 0.0155122524 0.00570784543
v 0.0639218189 0.0168285614 0.00457547639
v 0.065810094 0.0187167174 -0.0128994134
v 0.0647928812 0.0176996237 -0.0145360377
v 0.0613396265 0.014246369 -0.0101804879
v 0.0635902979 0.0164970404 -0.0158980038
v 0.060392151 0.0132988936 -0.0109915879
v 0.0622387029 0.0151454455 -0.0169439461
v 0.0593285658 0.0122351891 -0.0114282515
v 0.0582212307 0.011127854 -0.0114607957
v 0.0541703798 -0.00140819491 -0.00346280601
v 0.054180155 -0.00139841974 -0.00412835147
v 0.058977852 0.00339915811 -0.003316417
v 0.0311008789 -0.0244776958 0.00375042889
v 0.05059577 -0.00498280466 -0.00356759097
v 0.0303016998 -0.0252768749 0.0048348758
v 0.029331217 -0.0262473577 0.00558970902
v 0.0535150863 -0.00206348837 -0.00583840873
v 0.0531123974 -0.00246617735 -0.006183162
v 0.0596187212 0.00404002725 -0.00924755599
v 0.0320062734 -0.0235724205 -0.000659599564
v 0.0513202049 -0.00425836981 -0.00590278175
v 0.0509805776 -0.00459799708 -0.00544191863
v 0.0507081844 -0.0048703903 -0.00292123821
v 0.0509350397 -0.00464353502 -0.00233794715
v 0.0287610389 -0.0268175358 0.012424216
v 0.0512609579 -0.00431773604 -0.00185753371
v 0.0507367946 -0.00484178007 -0.00487245586
v 0.0506055452 -0.0049730295 -0.00423313644
v 0.031983266 -0.0235953087 0.000906333663
v 0.031674514 -0.0239040607 0.00241051648
v 0.0587134458 0.00313475191 -0.00483752753
v 0.0526603557 -0.00291821898 -0.00636877086
v 0.0619585611 0.0063799864 -0.0179213431
v 0.0521897175 -0.00338885725 -0.00638247993
v 0.0235723354 -0.0320062393 0.000659689643
v 0.0238367416 -0.0317418331 0.00218068097
v 0.0193063118 -0.0362723821 0.00351081822
v 0.0537954666 -0.00178310812 -0.00225402381
v 0.0639020302 0.00832345545 0.00692711804
v 0.0534558393 -0.0021228546 -0.0017931607
v 0.0530433752 -0.00253519953 -0.0014723685
v 0.0671472646 0.0115686899 -0.00615681674
v 0.0668828584 0.0113042837 -0.00767780807
v 0.0714134075 0.0158347136 -0.00900794532
v 0.019003997 -0.0365745777 0.00137423012
v 0.0189687111 -0.0366098636 -0.000804081223
v 0.0235953428 -0.0319832319 -0.000906362793
v 0.0192015268 -0.0363770479 -0.00295795467
v 0.0239040949 -0.0316744798 -0.00241054561
v 0.0196951725 -0.0358834022 -0.00502194431
v 0.0244776108 -0.031100964 -0.00375045802
v 0.071715603 0.0161370283 -0.00687135722
v 0.071750889 0.0161721951 -0.00469304588
v 0.0671242573 0.0115456825 -0.00459076431
v 0.0715180732 0.0159394985 -0.00253917243
v 0.0668155052 0.0112369305 -0.00308658149
v 0.0710244276 0.0154458529 -0.000475182793
v 0.0662419893 0.0106634146 -0.00174666908
v 0.0604179003 0.00483932554 -0.0103320029
v 0.0613883831 0.00580968916 -0.0110868361
v 0.0538410045 -0.00173757017 -0.00535799529
v 0.0590450861 0.00346651136 -0.00790764358
v 0.058736334 0.0031577593 -0.00640346076
v 0.031208048 -0.0243705267 -0.00355304744
v 0.031741748 -0.0238368267 -0.0021807101
v 0.051732669 -0.00384590567 -0.00622357394
v 0.0268175699 -0.0287610048 -0.0124242451
v 0.0273228981 -0.0282557958 -0.00596357848
v 0.0253067114 -0.0302718633 -0.0119968798
v 0.0262472727 -0.0293313021 -0.00558973815
v 0.0282557108 -0.0273228639 0.00596366856
v 0.0272207357 -0.028357839 0.0124741647
v 0.0271483757 -0.028430199 0.00593112443
v 0.0256977178 -0.0298808569 0.0121450279
v 0.0260847904 -0.0294937843 0.0054944608
v 0.0242382385 -0.0313403362 0.011446819
v 0.025137315 -0.0304412597 0.00468336079
v 0.0516636469 -0.00391504706 -0.00151278045
v 0.0521156885 -0.00346300543 -0.00132729079
v 0.0525862076 -0.00299236716 -0.00131346252
v 0.0304412939 -0.0251372808 -0.00468338992
v 0.0294938184 -0.0260847563 -0.00549448993
v 0.028430114 -0.0271484608 -0.00593115356
v 0.0204347469 -0.0351438278 -0.00693334605
v 0.0213978388 -0.034180736 -0.00863410499
v 0.025276909 -0.0303016657 -0.00483478572
v 0.0225551225 -0.0330234522 -0.0100726035
v 0.0238714315 -0.0317071432 -0.0112049725
v 0.0228866436 -0.0326919311 0.0104008767
v 0.0216840603 -0.0338945144 0.00903891061
v 0.0243705608 -0.0312080139 0.00355313752
v 0.0206669666 -0.0349116081 0.00740228627
v 0.0198662378 -0.0357123369 0.005540714
v 0.0702848531 0.0147062784 0.00143621896
v 0.0693217613 0.0137431866 0.00313697789
v 0.065442691 0.0098641163 -0.000662341378
v 0.0681644775 0.0125859028 0.00457547639
v 0.0644723274 0.00889363348 9.2611053e-05
v 0.0624638893 0.00688531458 -0.0114607957
v 0.0634988643 0.00792028963 -0.0179712918
v 0.0635712244 0.00799253046 -0.0114282515
v 0.0650218822 0.00944330751 -0.017642155
v 0.0646348097 0.00905623495 -0.0109915879
v 0.0664813616 0.0109027868 -0.0169439461
v 0.0655822851 0.0100037104 -0.0101804879
v 0.0540678598 -0.0015107149 -0.00477482345
v 0.0668481685 0.0112695938 0.00570784543
v 0.0654128887 0.00983431398 0.00649975274
v 0.063396702 0.00781812727 0.000466451385
v 0.0622894861 0.00671079218 0.000434026458
v 0.0678329565 0.0122543818 -0.0158980038
v 0.0690355398 0.0134569651 -0.0145360377
v 0.0663490392 0.0107704645 -0.00905026462
v 0.0700526335 0.0144740587 -0.0128994134
v 0.0708533622 0.0152747875 -0.0110378411
v 0.0540392496 -0.00153932512 -0.00282348659
v 0.059511552 0.00393297731 -0.00194407966
v 0.0602783062 0.00469973146 -0.000813737175
v 0.0612257816 0.0056472069 -2.63716934e-06
f 1 2 3
f 2 4 3
f 3 4 5
f 3 5 6
f 6 5 7
f 6 7 8
f 9 10 11
f 11 10 12
f 11 12 13
f 14 15 16
f 17 18 19
f 1 3 20
f 20 3 21
f 20 21 22
f 23 24 25
f 15 26 16
f 16 26 27
f 16 27 28
f 28 27 29
f 28 29 30
f 31 32 33
f 33 32 34
f 33 34 35
f 36 37 38
f 38 37 39
f 38 39 9
f 9 39 40
f 9 40 10
f 41 42 43
f 43 42 44
f 23 25 45
f 14 16 46
f 46 16 47
f 46 47 25
f 35 48 33
f 33 48 49
f 33 49 19
f 19 49 50
f 19 50 17
f 51 52 53
f 53 52 54
f 53 54 36
f 36 54 55
f 36 55 37
f 22 56 57
f 57 56 43
f 57 43 58
f 58 43 44
f 59 60 7
f 7 60 61
f 7 61 8
f 30 62 28
f 28 62 63
f 28 63 64
f 64 63 19
f 64 19 65
f 65 19 66
f 18 67 19
f 19 67 68
f 19 68 66
f 66 68 69
f 69 70 66
f 66 70 71
f 66 71 72
f 72 71 73
f 72 73 74
f 74 73 13
f 74 13 75
f 75 13 12
f 25 76 45
f 45 76 77
f 45 77 78
f 78 77 79
f 78 79 80
f 33 41 31
f 31 41 43
f 31 43 81
f 81 43 82
f 81 82 83
f 83 82 84
f 83 84 51
f 51 84 85
f 51 85 52
f 21 86 22
f 22 86 87
f 22 87 56
f 56 87 88
f 88 89 56
f 56 89 90
f 56 90 91
f 91 90 92
f 93 94 95
f 95 94 96
f 95 96 97
f 79 98 80
f 80 98 99
f 80 99 100
f 100 99 101
f 100 101 102
f 102 101 103
f 102 103 93
f 93 103 104
f 93 104 94
f 59 46 60
f 60 46 25
f 60 25 105
f 105 25 24
f 96 106 97
f 97 106 107
f 97 107 108
f 108 107 109
f 108 109 92
f 92 109 110
f 92 110 91
f 111 112 113
f 113 112 114
f 113 114 115
f 115 114 116
f 117 118 119
f 119 118 120
f 120 121 119
f 119 121 122
f 119 122 123
f 123 122 124
f 124 125 123
f 123 125 126
f 123 126 127
f 128 129 130
f 130 129 131
f 130 131 113
f 113 131 132
f 113 132 111
f 133 134 135
f 135 134 136
f 137 138 139
f 140 141 142
f 142 141 143
f 142 143 144
f 144 143 145
f 144 145 146
f 147 148 149
f 149 148 150
f 149 150 140
f 140 150 151
f 140 151 141
f 135 152 133
f 133 152 117
f 133 117 153
f 153 117 119
f 153 119 154
f 154 119 155
f 156 138 116
f 116 138 137
f 116 137 115
f 139 157 137
f 137 157 158
f 137 158 159
f 159 158 160
f 159 160 161
f 161 160 146
f 161 146 162
f 162 146 145
f 163 164 165
f 165 164 166
f 165 166 147
f 147 166 167
f 147 167 148
f 168 127 169
f 170 171 128
f 128 171 172
f 128 172 173
f 136 174 135
f 135 174 175
f 135 175 176
f 176 175 177
f 176 177 116
f 116 177 178
f 116 178 156
f 119 179 155
f 155 179 180
f 155 180 163
f 163 180 181
f 163 181 164
f 182 183 184
f 184 183 185
f 184 185 186
f 168 169 187
f 187 169 188
f 187 188 172
f 172 188 189
f 172 189 173
f 185 190 186
f 186 190 191
f 186 191 192
f 192 191 123
f 192 123 193
f 194 195 196
f 196 195 197
f 196 197 182
f 182 197 198
f 182 198 183
f 199 200 201
f 201 200 202
f 201 202 203
f 203 202 204
f 203 204 194
f 194 204 205
f 194 205 195
f 170 128 206
f 206 128 130
f 206 130 207
f 168 208 127
f 127 208 209
f 127 209 123
f 123 209 210
f 123 210 193
f 211 212 199
f 199 212 213
f 199 213 200
f 207 130 214
f 214 130 215
f 214 215 216
f 216 215 217
f 216 217 218
f 218 217 219
f 218 219 211
f 211 219 220
f 211 220 212
f 16 113 115
f 16 115 47
f 47 115 137
f 47 137 25
f 25 137 159
f 25 159 76
f 76 159 161
f 76 161 77
f 77 161 162
f 77 162 79
f 79 162 145
f 79 145 98
f 98 145 143
f 98 143 99
f 99 143 141
f 99 141 101
f 101 141 151
f 101 151 103
f 103 151 150
f 103 150 104
f 104 150 148
f 104 148 94
f 94 148 167
f 94 167 96
f 96 167 166
f 96 166 106
f 106 166 164
f 106 164 107
f 107 164 181
f 107 181 109
f 109 181 180
f 109 180 110
f 110 180 179
f 110 179 91
f 91 179 119
f 91 119 56
f 43 56 123
f 123 56 119
f 43 123 191
f 43 191 82
f 82 191 190
f 82 190 84
f 84 190 185
f 84 185 85
f 85 185 183
f 85 183 52
f 52 183 198
f 52 198 54
f 54 198 197
f 54 197 55
f 55 197 195
f 55 195 37
f 37 195 205
f 37 205 39
f 39 205 204
f 39 204 40
f 40 204 202
f 40 202 10
f 10 202 200
f 10 200 12
f 12 200 213
f 12 213 75
f 75 213 212
f 75 212 74
f 74 212 220
f 74 220 72
f 72 220 219
f 72 219 66
f 66 219 217
f 66 217 65
f 65 217 215
f 65 215 64
f 64 215 130
f 64 130 28
f 16 28 113
f 113 28 130
f 102 140 100
f 100 140 142
f 100 142 80
f 80 142 144
f 80 144 78
f 78 144 146
f 78 146 45
f 45 146 160
f 45 160 23
f 23 160 158
f 23 158 24
f 24 158 157
f 24 157 105
f 105 157 139
f 105 139 60
f 60 139 138
f 60 138 61
f 61 138 156
f 61 156 8
f 8 156 178
f 8 178 6
f 6 178 177
f 6 177 3
f 3 177 175
f 3 175 21
f 21 175 174
f 21 174 86
f 86 174 136
f 86 136 87
f 87 136 134
f 87 134 88
f 88 134 133
f 88 133 89
f 89 133 153
f 89 153 90
f 90 153 154
f 90 154 92
f 92 154 155
f 92 155 108
f 108 155 163
f 108 163 97
f 97 163 165
f 97 165 95
f 95 165 147
f 95 147 93
f 93 147 149
f 93 149 102
f 102 149 140
f 49 187 50
f 50 187 172
f 50 172 17
f 17 172 171
f 17 171 18
f 18 171 170
f 18 170 67
f 67 170 206
f 67 206 68
f 68 206 207
f 68 207 69
f 69 207 214
f 69 214 70
f 70 214 216
f 70 216 71
f 71 216 218
f 71 218 73
f 73 218 211
f 73 211 13
f 13 211 199
f 13 199 11
f 11 199 201
f 11 201 9
f 9 201 203
f 9 203 38
f 38 203 194
f 38 194 36
f 36 194 196
f 36 196 53
f 53 196 182
f 53 182 51
f 51 182 184
f 51 184 83
f 83 184 186
f 83 186 81
f 81 186 192
f 81 192 31
f 31 192 193
f 31 193 32
f 32 193 210
f 32 210 34
f 34 210 209
f 34 209 35
f 35 209 208
f 35 208 48
f 48 208 168
f 48 168 49
f 49 168 187
f 188 33 189
f 189 33 19
f 189 19 173
f 173 19 63
f 173 63 128
f 128 63 62
f 128 62 129
f 129 62 30
f 129 30 131
f 131 30 29
f 131 29 132
f 132 29 27
f 132 27 111
f 111 27 26
f 111 26 112
f 112 26 15
f 112 15 114
f 114 15 14
f 114 14 116
f 116 14 46
f 116 46 176
f 176 46 59
f 176 59 135
f 135 59 7
f 135 7 152
f 152 7 5
f 152 5 117
f 117 5 4
f 117 4 118
f 118 4 2
f 118 2 120
f 120 2 1
f 120 1 121
f 121 1 20
f 121 20 122
f 122 20 22
f 122 22 124
f 124 22 57
f 124 57 125
f 125 57 58
f 125 58 126
f 126 58 44
f 126 44 127
f 127 44 42
f 127 42 169
f 169 42 41
f 169 41 188
f 188 41 33
f 221 222 223
f 224 225 226
f 227 228 229
f 230 231 232
f 229 228 233
f 233 228 234
f 233 234 235
f 235 234 236
f 236 234 237
f 236 237 238
f 238 237 239
f 239 237 240
f 239 240 241
f 241 240 242
f 241 242 243
f 243 242 244
f 243 244 230
f 230 244 245
f 230 245 231
f 221 223 246
f 246 223 247
f 246 247 248
f 248 230 246
f 246 230 232
f 246 232 226
f 226 232 249
f 226 249 224
f 250 251 252
f 225 253 226
f 226 253 254
f 226 254 255
f 255 254 256
f 255 256 257
f 257 256 258
f 222 259 223
f 223 259 260
f 223 260 261
f 261 260 262
f 261 262 263
f 258 250 257
f 257 250 252
f 257 252 264
f 264 252 265
f 251 266 252
f 252 266 267
f 252 267 268
f 268 267 269
f 229 270 227
f 227 270 271
f 227 271 272
f 272 271 273
f 272 273 274
f 274 273 275
f 274 275 269
f 269 275 276
f 269 276 268
f 277 278 279
f 280 281 282
f 263 283 261
f 261 283 284
f 261 284 285
f 285 284 280
f 285 280 286
f 286 280 282
f 286 282 287
f 277 279 252
f 252 279 288
f 252 288 265
f 289 290 291
f 291 290 292
f 291 292 293
f 293 292 294
f 293 294 295
f 295 294 296
f 295 296 280
f 280 296 297
f 280 297 281
f 298 299 277
f 277 299 300
f 277 300 278
f 301 302 303
f 303 302 304
f 303 304 305
f 306 307 301
f 301 307 308
f 301 308 302
f 309 310 311
f 311 310 312
f 311 312 313
f 313 312 314
f 313 314 306
f 306 314 315
f 306 315 307
f 289 291 316
f 316 291 298
f 316 298 317
f 317 298 277
f 317 277 318
f 318 277 319
f 318 319 320
f 320 319 321
f 320 321 309
f 309 321 322
f 309 322 310
f 304 323 305
f 305 323 324
f 305 324 325
f 325 324 326
f 325 326 327
f 327 326 328
f 327 328 329
f 329 328 286
f 329 286 330
f 330 286 287
f 331 332 333
f 334 335 336
f 336 335 337
f 338 339 340
f 341 342 343
f 344 345 346
f 346 345 347
f 343 348 341
f 341 348 349
f 341 349 350
f 350 349 335
f 350 335 351
f 351 335 334
f 333 332 352
f 339 353 354
f 354 353 355
f 356 357 358
f 359 360 361
f 361 360 362
f 363 364 365
f 358 366 356
f 356 366 367
f 356 367 368
f 368 367 369
f 368 369 370
f 370 369 371
f 370 371 372
f 365 373 363
f 363 373 374
f 363 374 375
f 375 374 376
f 375 376 377
f 377 376 378
f 377 378 379
f 340 339 380
f 380 339 354
f 380 354 381
f 338 340 382
f 382 340 383
f 382 383 384
f 385 354 386
f 386 354 355
f 386 355 341
f 341 355 387
f 341 387 342
f 388 389 390
f 390 389 391
f 335 344 337
f 337 344 346
f 337 346 392
f 392 346 393
f 392 393 394
f 394 393 395
f 394 395 396
f 396 395 397
f 396 397 398
f 347 399 346
f 346 399 400
f 346 400 360
f 360 400 401
f 360 401 362
f 385 402 354
f 354 402 403
f 354 403 388
f 388 403 404
f 388 404 389
f 371 405 372
f 372 405 406
f 372 406 407
f 407 406 408
f 407 408 391
f 391 408 409
f 391 409 390
f 397 410 398
f 398 410 411
f 398 411 412
f 412 411 413
f 412 413 357
f 357 413 414
f 357 414 358
f 378 415 379
f 379 415 416
f 379 416 417
f 417 416 418
f 417 418 419
f 381 354 420
f 420 354 421
f 420 421 422
f 422 421 423
f 422 423 424
f 424 423 425
f 424 425 426
f 352 332 384
f 384 332 427
f 384 427 382
f 418 428 419
f 419 428 429
f 419 429 430
f 430 429 360
f 430 360 431
f 425 432 426
f 426 432 433
f 426 433 434
f 434 433 435
f 434 435 364
f 364 435 436
f 364 436 365
f 331 333 437
f 437 333 438
f 437 438 359
f 359 438 439
f 359 439 360
f 360 439 440
f 360 440 431
f 277 360 429
f 277 429 319
f 319 429 428
f 319 428 321
f 321 428 418
f 321 418 322
f 322 418 416
f 322 416 310
f 310 416 415
f 310 415 312
f 312 415 378
f 312 378 314
f 314 378 376
f 314 376 315
f 315 376 374
f 315 374 307
f 307 374 373
f 307 373 308
f 308 373 365
f 308 365 302
f 302 365 436
f 302 436 304
f 304 436 435
f 304 435 323
f 323 435 433
f 323 433 324
f 324 433 432
f 324 432 326
f 326 432 425
f 326 425 328
f 328 425 423
f 328 423 286
f 286 423 421
f 286 421 285
f 285 421 354
f 285 354 261
f 223 261 388
f 388 261 354
f 223 388 390
f 223 390 247
f 247 390 409
f 247 409 248
f 248 409 408
f 248 408 230
f 230 408 406
f 230 406 243
f 243 406 405
f 243 405 241
f 241 405 371
f 241 371 239
f 239 371 369
f 239 369 238
f 238 369 367
f 238 367 236
f 236 367 366
f 236 366 235
f 235 366 358
f 235 358 233
f 233 358 414
f 233 414 229
f 229 414 413
f 229 413 270
f 270 413 411
f 270 411 271
f 271 411 410
f 271 410 273
f 273 410 397
f 273 397 275
f 275 397 395
f 275 395 276
f 276 395 393
f 276 393 268
f 268 393 346
f 268 346 252
f 277 252 360
f 360 252 346
f 301 363 306
f 306 363 375
f 306 375 313
f 313 375 377
f 313 377 311
f 311 377 379
f 311 379 309
f 309 379 417
f 309 417 320
f 320 417 419
f 320 419 318
f 318 419 430
f 318 430 317
f 317 430 431
f 317 431 316
f 316 431 440
f 316 440 289
f 289 440 439
f 289 439 290
f 290 439 438
f 290 438 292
f 292 438 333
f 292 333 294
f 294 333 352
f 294 352 296
f 296 352 384
f 296 384 297
f 297 384 383
f 297 383 281
f 281 383 340
f 281 340 282
f 282 340 380
f 282 380 287
f 287 380 381
f 287 381 330
f 330 381 420
f 330 420 329
f 329 420 422
f 329 422 327
f 327 422 424
f 327 424 325
f 325 424 426
f 325 426 305
f 305 426 434
f 305 434 303
f 303 434 364
f 303 364 301
f 301 364 363
f 254 341 256
f 256 341 350
f 256 350 258
f 258 350 351
f 258 351 250
f 250 351 334
f 250 334 251
f 251 334 336
f 251 336 266
f 266 336 337
f 266 337 267
f 267 337 392
f 267 392 269
f 269 392 394
f 269 394 274
f 274 394 396
f 274 396 272
f 272 396 398
f 272 398 227
f 227 398 412
f 227 412 228
f 228 412 357
f 228 357 234
f 234 357 356
f 234 356 237
f 237 356 368
f 237 368 240
f 240 368 370
f 240 370 242
f 242 370 372
f 242 372 244
f 244 372 407
f 244 407 245
f 245 407 391
f 245 391 231
f 231 391 389
f 231 389 232
f 232 389 404
f 232 404 249
f 249 404 403
f 249 403 224
f 224 403 402
f 224 402 225
f 225 402 385
f 225 385 253
f 253 385 386
f 253 386 254
f 254 386 341
f 335 226 344
f 344 226 255
f 344 255 345
f 345 255 257
f 345 257 347
f 347 257 264
f 347 264 399
f 399 264 265
f 399 265 400
f 400 265 288
f 400 288 401
f 401 288 279
f 401 279 362
f 362 279 278
f 362 278 361
f 361 278 300
f 361 300 359
f 359 300 299
f 359 299 437
f 437 299 298
f 437 298 331
f 331 298 291
f 331 291 332
f 332 291 293
f 332 293 427
f 427 293 295
f 427 295 382
f 382 295 280
f 382 280 338
f 338 280 284
f 338 284 339
f 339 284 283
f 339 283 353
f 353 283 263
f 353 263 355
f 355 263 262
f 355 262 387
f 387 262 260
f 387 260 342
f 342 260 259
f 342 259 343
f 343 259 222
f 343 222 348
f 348 222 221
f 348 221 349
f 349 221 246
f 349 246 335
f 335 246 226
