v 0.0279021656 0.0191910824 -0.0108769876
v 0.0292413627 0.0178520045 -0.00955996333
v 0.00085107437 0.0462422928 -0.0053761941
v 0.0248297845 0.0222635827 -0.0123675805
v -0.00722010979 0.054313477 -0.00795337973
v -0.00749095329 0.0545842013 -0.00947210608
v 0.000735918196 0.0463573298 -0.0060215932
v 0.000506678733 0.0465866885 -0.0066029769
v 0.000178733977 0.046914514 -0.00708064852
v -0.000225385515 0.0473186335 -0.00742194472
v -0.0120501126 0.0591433606 -0.00132176696
v -0.0109426583 0.0580359063 -0.00129852114
v -0.0127172078 0.059810575 0.00510945501
v 0.000136533888 0.0469568333 -0.00303492366
v 0.000474253806 0.0466191134 -0.00349864779
v 0.0201429521 0.0269504151 0.00358178796
v -0.014837941 0.061931189 -0.00367638884
v -0.0191862191 0.0662795863 -0.0012531024
v -0.0153774823 0.0624707303 -0.00504419623
v -0.0198344792 0.0669278464 -0.00336978255
v -0.0156482066 0.0627415738 -0.00656304179
v 0.0268739854 0.0202192626 0.00372245492
v 0.0274418985 0.0196513495 0.00237777414
v 0.0316069519 0.0154864153 0.00512983979
v 0.0264147913 0.0206784567 -0.0118236285
v -0.000678142396 0.0477715096 -0.00760373889
v -0.00114889988 0.0482421479 -0.00761351405
v -0.00160523304 0.0486986003 -0.00745079337
v -0.00201638588 0.0491096339 -0.0071265441
v -0.020196637 0.0672900042 -0.00561890422
v -0.0202605332 0.0673537812 -0.00792381583
v -0.0156318749 0.0627252421 -0.00812909423
v -0.0200236643 0.0671170315 -0.0102060777
v -0.0153294409 0.0624228081 -0.00963589965
v -0.0194943751 0.0665877423 -0.0123879653
v -0.0147615279 0.0618548951 -0.0109806996
v -0.0023541058 0.0494473538 -0.00666281996
v -0.0025953854 0.0496887526 -0.00609121142
v -0.00723644146 0.0543298087 -0.00638720809
v -0.00272401222 0.0498172602 -0.00545093833
v -0.00753887543 0.0546322426 -0.00488040267
v -0.00273092636 0.0498241744 -0.00478527365
v -0.00810678848 0.0552001557 -0.00353560267
v -0.00890143761 0.0559948048 -0.00244459925
v -0.00803049454 0.0551237425 -0.0108400327
v -0.00880201706 0.0558952651 -0.0119638187
v -0.0101511086 0.0572444758 -0.0196257573
v -0.00975283035 0.0568461976 -0.0127669316
v -0.010818323 0.057911571 -0.0131946546
v -0.0117798651 0.0588732323 -0.0197485429
v -0.0119257773 0.0590190253 -0.0132177812
v -0.0133969391 0.0604901871 -0.0194461089
v -0.0129997338 0.0600929818 -0.0128347617
v -0.018690666 0.0657840333 -0.0143952113
v -0.0176398362 0.0647330842 -0.0161593896
v -0.0139668787 0.061060246 -0.0120717031
v -0.0163776482 0.0634708962 -0.0176204187
v -0.0149470175 0.0620403847 -0.0187285882
v -0.013115486 0.0602088532 -0.00174937068
v -0.00986870178 0.056962069 -0.00168154059
v -0.00261577019 0.0497091374 -0.00413975535
v 0.0321361219 0.0149571261 0.00294795217
v 0.0277443325 0.0193489155 0.000870968716
v 0.0323729908 0.0147203765 0.00066569032
v 0.0277607833 0.0193325839 -0.00069520293
v 0.0323092138 0.0147841534 -0.0016393405
v -0.0143023337 0.0613957009 0.00456538381
v -0.015789708 0.0628830752 0.00361874284
v -0.0140664185 0.0611596665 -0.00255248366
v -0.0171287859 0.0642221531 0.00230171861
v -0.0182740296 0.0653672776 0.000659133809
v -0.00238653072 0.0494797787 -0.00355849086
v -0.00205858597 0.0491519532 -0.00308081923
v 0.0209144746 0.0261788926 0.00470557393
v 0.0222635662 0.0248296818 0.0123676318
v -0.000274618951 0.047367867 -0.00271067439
v 0.0251121914 0.0219811759 0.00557663621
v 0.0255093967 0.0215839705 0.0121879834
v 0.0240382349 0.0230551324 0.00595953645
v 0.0238923227 0.0232009253 0.0124904174
v 0.0229307806 0.0241625867 0.00593640985
v 0.0218652879 0.0252279601 0.00550868692
v 0.0308031236 0.0162901244 0.0071369666
v 0.0297522937 0.0173410735 0.00890114488
v 0.0260793363 0.0210139117 0.00481357755
v 0.0284901058 0.0186032614 0.0103621739
v 0.0270594751 0.0200337729 0.0114703435
v -0.00165446648 0.0487478337 -0.00273952304
v -0.0012017096 0.0482949576 -0.00255772887
v -0.000731071321 0.0478243193 -0.0025478345
v 0.0252279436 0.0218653044 -0.00550875483
v 0.0241625702 0.0229307971 -0.00593647776
v 0.0230551159 0.0240382514 -0.00595960437
v 0.0219811594 0.0251120886 -0.00557658492
v 0.0210138952 0.0260793528 -0.00481352626
v 0.0202192461 0.0268740019 -0.00372252284
v 0.019651333 0.027441915 -0.00237772284
v 0.000844041022 0.046249207 -0.00471052943
v 0.019348899 0.027744349 -0.000871036632
v 0.000715533408 0.0463777146 -0.00407013713
v 0.0193325674 0.0277606806 0.000695135014
v 0.0196034109 0.0274899563 0.00221398057
v 0.0319469368 0.0151463112 -0.00388834296
v 0.0274899398 0.0196034274 -0.00221392928
v 0.0312986766 0.0157945714 -0.00600514231
v 0.0269503986 0.0201429686 -0.00358185588
v 0.0303864872 0.0167068801 -0.00791725932
v 0.0261788761 0.0209144911 -0.00470564185
v 0.00222627273 0.0533522925 -0.0071265441
v 0.00263742557 0.0529412589 -0.00745079337
v -0.00590844998 0.0614870152 -0.0196257573
v 0.00188855282 0.0536900124 -0.00666281996
v 0.00442139259 0.0511571726 -0.00708064852
v 0.00474933735 0.0508293471 -0.0066029769
v 0.029072324 0.0265062413 -0.0123675805
v 0.00497857681 0.0505999884 -0.0060215932
v 0.0306574499 0.0249211154 -0.0118236285
v 0.00509373299 0.0504849515 -0.0053761941
v 0.0321448242 0.0234337411 -0.0108769876
v 0.0334839021 0.0220946631 -0.00955996333
v -0.00297745117 0.0585560164 -0.00795337973
v 0.00162676922 0.053951796 -0.00413975535
v -0.00324829468 0.0588268599 -0.00947210608
v 0.00151173225 0.054066833 -0.00478527365
v -0.0113892163 0.0669679007 -0.00812909423
v -0.0160178746 0.0715964398 -0.00792381583
v -0.0114056672 0.0669842324 -0.00656304179
v -0.0159540976 0.0715326628 -0.00561890422
v -0.0111348236 0.0667133889 -0.00504419623
v -0.00972433933 0.0653029046 -0.0120717031
v -0.0133971775 0.0689757428 -0.0161593896
v -0.0105188692 0.0660975537 -0.0109806996
v -0.0144480074 0.0700265727 -0.0143952113
v -0.0110867823 0.0666654667 -0.00963589965
v -0.0152518357 0.0708304009 -0.0123879653
v -0.0157811249 0.0713596902 -0.0102060777
v 0.00309375873 0.0524848065 -0.00761351405
v 0.00356439701 0.0520141682 -0.00760373889
v 0.0040172731 0.0515612921 -0.00742194472
v 0.0252565538 0.0303220114 -0.00481352626
v 0.0244619047 0.0311166606 -0.00372252284
v 0.0238939916 0.0316845736 -0.00237772284
v 0.00471679321 0.050861772 -0.00349864779
v 0.00437907329 0.0511994919 -0.00303492366
v 0.023575226 0.0320033393 0.000695135014
v -0.0155918206 0.071170505 -0.00336978255
v -0.0149435604 0.0705222449 -0.0012531024
v -0.0105952824 0.0661738476 -0.00367638884
v -0.014031371 0.0696099362 0.000659133809
v -0.00982375988 0.0654023251 -0.00255248366
v 0.00151864639 0.0540599188 -0.00545093833
v -0.00455935845 0.0601379237 -0.0119638187
v -0.00378783592 0.0593664012 -0.0108400327
v 0.026223818 0.0293547473 -0.00557658492
v 0.0272977745 0.02828091 -0.00595960437
v 0.0284052288 0.0271734557 -0.00593647776
v -0.00847466835 0.0640532336 0.00510945501
v 0.0238460695 0.0317324957 0.00221398057
v 0.0243856107 0.0311929545 0.00358178796
v 0.0235915577 0.0319870076 -0.000871036632
v 0.00508669964 0.0504918656 -0.00471052943
v 0.00495819202 0.0506203732 -0.00407013713
v -0.0075372065 0.0631158909 -0.0197485429
v -0.00768311867 0.0632616839 -0.0132177812
v -0.00915428051 0.0647328457 -0.0194461089
v -0.00875707516 0.0643356404 -0.0128347617
v -0.0107043589 0.0662830433 -0.0187285882
v -0.0121349896 0.0677135548 -0.0176204187
v 0.0317325985 0.023846086 -0.00221392928
v 0.0355413353 0.02003723 -0.00600514231
v 0.0311930572 0.0243856272 -0.00358185588
v 0.0346291458 0.0209495387 -0.00791725932
v 0.0304215347 0.0251570305 -0.00470564185
v 0.0294706022 0.026107963 -0.00550875483
v 0.0319869911 0.0235915742 0.000870968716
v 0.0366155302 0.0189630351 0.00066569032
v 0.0320033228 0.0235752425 -0.00069520293
v 0.0365517532 0.019026812 -0.0016393405
v 0.0361895954 0.0193889699 -0.00388834296
v 0.00396803966 0.0516105256 -0.00271067439
v 0.00351158729 0.0520669779 -0.0025478345
v 0.00304094902 0.0525376162 -0.00255772887
v -0.00562604317 0.0612046084 -0.00168154059
v -0.00669999966 0.0622785649 -0.00129852114
v -0.00780745396 0.0633860192 -0.00132176696
v -0.0100596751 0.0656382403 0.00456538381
v -0.00887282738 0.0644515118 -0.00174937068
v -0.0115471686 0.0671257338 0.00361874284
v -0.0128862465 0.0684648118 0.00230171861
v -0.00465877899 0.0602374634 -0.00244459925
v -0.00386412987 0.0594428143 -0.00353560267
v -0.00329633602 0.0588749013 -0.00488040267
v 0.00258819214 0.0529904923 -0.00273952304
v -0.00299390206 0.0585724673 -0.00638720809
v 0.00218407265 0.0533946118 -0.00308081923
v 0.00185612789 0.0537224373 -0.00355849086
v -0.00657566437 0.0621542296 -0.0131946546
v -0.00551017174 0.0610888562 -0.0127669316
v 0.00164727321 0.0539314112 -0.00609121142
v 0.0303219949 0.0252565703 0.00481357755
v 0.0339949524 0.0215837321 0.00890114488
v 0.0311166441 0.0244619212 0.00372245492
v 0.0350457822 0.020532783 0.0071369666
v 0.0316845571 0.0238940081 0.00237777414
v 0.0358494913 0.019729074 0.00512983979
v 0.0363787805 0.0191997847 0.00294795217
v 0.0282808935 0.027297791 0.00595953645
v 0.0271734392 0.0284051261 0.00593640985
v 0.0265062248 0.0290723405 0.0123676318
v 0.0261079465 0.0294706187 0.00550868692
v 0.0251571333 0.0304215512 0.00470557393
v 0.0281349813 0.0274435839 0.0124904174
v 0.0297520553 0.0258266291 0.0121879834
v 0.0293547308 0.0262238345 0.00557663621
v 0.0313021337 0.0242764315 0.0114703435
v 0.0327326452 0.02284592 0.0103621739
v -0.0193489397 -0.0277443567 0.000870968716
v -0.0193326081 -0.0277606883 -0.00069520293
v -0.0147841776 -0.0323091188 -0.0016393405
v -0.0178520287 -0.0292412677 -0.00955996333
v -0.046242317 -0.000851098576 -0.0053761941
v -0.0191911066 -0.0279021898 -0.0108769876
v -0.020678481 -0.0264148155 -0.0118236285
v -0.0482421721 0.00114887567 -0.00761351405
v -0.0486986245 0.00160520884 -0.00745079337
v -0.054313382 0.00722008558 -0.00795337973
v -0.0619312132 0.0148379168 -0.00367638884
v -0.0611596907 0.0140663943 -0.00255248366
v -0.0642221774 0.0171288809 0.00230171861
v -0.0222636069 -0.0248296895 -0.0123675805
v -0.046357354 -0.000735942402 -0.0060215932
v -0.0465867127 -0.000506583729 -0.0066029769
v -0.0477715338 0.0006782374 -0.00760373889
v -0.0545842255 0.00749092909 -0.00947210608
v -0.0469145382 -0.000178758183 -0.00708064852
v -0.0473186577 0.000225361309 -0.00742194472
v -0.0496887768 0.0025954804 -0.00609121142
v -0.0559947098 0.0089014134 -0.00244459925
v -0.0552001799 0.00810676428 -0.00353560267
v -0.0546322668 0.00753897043 -0.00488040267
v -0.0543298329 0.00723653646 -0.00638720809
v -0.049447378 0.00235408159 -0.00666281996
v -0.0491096581 0.00201636168 -0.0071265441
v -0.0494798029 0.00238650652 -0.00355849086
v -0.0491519774 0.00205868097 -0.00308081923
v -0.0598105992 0.0127173028 0.00510945501
v -0.0551237667 0.00803047033 -0.0108400327
v -0.0558952893 0.00880199285 -0.0119638187
v -0.0572443808 0.0101510844 -0.0196257573
v -0.0628830994 0.015789803 0.00361874284
v -0.0602088774 0.013115581 -0.00174937068
v -0.0591433848 0.0120500884 -0.00132176696
v -0.056961974 0.00986867758 -0.00168154059
v -0.0498172844 0.00272398802 -0.00545093833
v -0.0498241986 0.00273090216 -0.00478527365
v -0.0487478579 0.00165456148 -0.00273952304
v -0.0482949818 0.00120168539 -0.00255772887
v -0.024829706 -0.0222635904 0.0123676318
v -0.0478243435 0.000731047115 -0.0025478345
v -0.0473678912 0.000274594745 -0.00271067439
v -0.0463777388 -0.000715557614 -0.00407013713
v -0.0274898613 -0.0196034351 0.00221398057
v -0.0269503201 -0.0201429763 0.00358178796
v -0.0568462218 0.00975280615 -0.0127669316
v -0.0579115952 0.0108182988 -0.0131946546
v -0.0588732565 0.0117798409 -0.0197485429
v -0.0590190495 0.0119257531 -0.0132177812
v -0.0604902113 0.0133969149 -0.0194461089
v -0.060093006 0.0129997096 -0.0128347617
v -0.0653673018 0.0182740054 0.000659133809
v -0.0662796105 0.0191861949 -0.0012531024
v -0.0624707545 0.0153774581 -0.00504419623
v -0.0669277514 0.019834455 -0.00336978255
v -0.062741598 0.0156483016 -0.00656304179
v -0.0672900284 0.020196732 -0.00561890422
v -0.0627251471 0.0156318507 -0.00812909423
v -0.0497091616 0.00261586519 -0.00413975535
v -0.0580359305 0.0109426341 -0.00129852114
v -0.0613956059 0.0143023095 0.00456538381
v -0.0469568575 -0.000136438885 -0.00303492366
v -0.0466191376 -0.000474158802 -0.00349864779
v -0.0232009495 -0.0238923469 0.0124904174
v -0.0215839947 -0.0255093017 0.0121879834
v -0.0200337971 -0.0270594993 0.0114703435
v -0.0151463355 -0.031946961 -0.00388834296
v -0.0196034516 -0.027489964 -0.00221392928
v -0.0157945956 -0.0312987008 -0.00600514231
v -0.0201429928 -0.0269504228 -0.00358185588
v -0.0167067851 -0.0303865114 -0.00791725932
v -0.0209143961 -0.0261789003 -0.00470564185
v -0.0218653286 -0.0252279678 -0.00550875483
v -0.026079377 -0.0210139194 -0.00481352626
v -0.0268740261 -0.0202192703 -0.00372252284
v -0.0274419392 -0.0196513572 -0.00237772284
v -0.0462492312 -0.000844065228 -0.00471052943
v -0.0277443732 -0.0193489232 -0.000871036632
v -0.0277607048 -0.0193325916 0.000695135014
v -0.0147204007 -0.0323728958 0.00066569032
v -0.0149571503 -0.0321361461 0.00294795217
v -0.0196513737 -0.0274419227 0.00237777414
v -0.0154864396 -0.0316068569 0.00512983979
v -0.0202192868 -0.0268740096 0.00372245492
v -0.0673538054 0.020260509 -0.00792381583
v -0.0671170557 0.0200237593 -0.0102060777
v -0.0624227131 0.0153294167 -0.00963589965
v -0.0665877665 0.0194944701 -0.0123879653
v -0.0618549193 0.0147616229 -0.0109806996
v -0.0229308213 -0.0241624751 -0.00593647776
v -0.0240381564 -0.0230551401 -0.00595960437
v -0.0251121128 -0.0219811836 -0.00557658492
v -0.0261789168 -0.0209144988 0.00470557393
v -0.0252279843 -0.0218653121 0.00550868692
v -0.0241624916 -0.0229308048 0.00593640985
v -0.0657839383 0.0186906418 -0.0143952113
v -0.0647331084 0.017639812 -0.0161593896
v -0.0610602702 0.0139669737 -0.0120717031
v -0.0634709204 0.016377624 -0.0176204187
v -0.0620404089 0.0149471125 -0.0187285882
v -0.0162901486 -0.0308031478 0.0071369666
v -0.0173410977 -0.0297523179 0.00890114488
v -0.0210139359 -0.0260793605 0.00481357755
v -0.0186032856 -0.0284900108 0.0103621739
v -0.0219812001 -0.0251120963 0.00557663621
v -0.0230551566 -0.0240382591 0.00595953645
v -0.0232473219 -0.0153607765 0.00221398057
v -0.0235180462 -0.015089933 0.000695135014
v -0.0555679406 0.0169599614 0.00510945501
v -0.0227077807 -0.0159003177 0.00358178796
v -0.0455746258 0.00696664663 -0.00545093833
v -0.0516526307 0.0130446515 -0.0119638187
v -0.04558154 0.00697356077 -0.00478527365
v -0.0508811081 0.0122731289 -0.0108400327
v -0.0503415669 0.0117335877 -0.00947210608
v -0.0231992806 -0.0154086986 -0.00237772284
v -0.0421146954 0.00350671621 -0.0060215932
v -0.0419996584 0.00339156004 -0.0053761941
v -0.042376479 0.00376849981 -0.00349864779
v -0.0427141989 0.00410621973 -0.00303492366
v -0.0431252325 0.00451725336 -0.00271067439
v -0.0435816849 0.00497370573 -0.0025478345
v -0.0440523232 0.00544434401 -0.00255772887
v -0.0445051993 0.00589710089 -0.00273952304
v -0.0509575213 0.0123494229 -0.00353560267
v -0.0517521704 0.013144072 -0.00244459925
v -0.045466503 0.0068584046 -0.00413975535
v -0.0527193154 0.0141113362 -0.00168154059
v -0.0449093188 0.00630122038 -0.00308081923
v -0.0452371443 0.00662916513 -0.00355849086
v -0.0571530665 0.0185449681 0.00456538381
v -0.0586404408 0.0200323424 0.00361874284
v -0.0537932719 0.0151852927 -0.00129852114
v -0.0549007262 0.016292747 -0.00132176696
v -0.0559662188 0.0173581204 -0.00174937068
v -0.0599795187 0.0213715396 0.00230171861
v -0.0569170321 0.0183090529 -0.00255248366
v -0.0611246432 0.022516664 0.000659133809
v -0.0576885546 0.0190805754 -0.00367638884
v -0.0620369519 0.0234288535 -0.0012531024
v -0.0582280959 0.0196201167 -0.00504419623
v -0.0430759991 0.00446801992 -0.00742194472
v -0.0180209483 -0.0205870309 -0.0123675805
v -0.0435288752 0.00492077681 -0.00760373889
v -0.0530018414 0.014393743 -0.0196257573
v -0.0439995135 0.00539153429 -0.00761351405
v -0.0500708426 0.0114627442 -0.00795337973
v -0.0500871743 0.0114790759 -0.00638720809
v -0.0503896082 0.0117815098 -0.00488040267
v -0.0426718796 0.00406390043 -0.00708064852
v -0.0423440541 0.00373595568 -0.0066029769
v -0.0235017146 -0.0151062646 -0.000871036632
v -0.0420065726 0.00339859339 -0.00471052943
v -0.0421350802 0.003527101 -0.00407013713
v -0.0167712773 -0.0218367019 0.00481357755
v -0.0130984391 -0.0255096593 0.00890114488
v -0.0159766282 -0.022631351 0.00372245492
v -0.01204749 -0.0265604892 0.0071369666
v -0.0154087151 -0.0231992641 0.00237777414
v -0.0581801737 0.0195720753 -0.00963589965
v -0.0628743971 0.0242662987 -0.0102060777
v -0.0584826077 0.0198745093 -0.00812909423
v -0.0631111468 0.0245031676 -0.00792381583
v -0.0584989394 0.019890841 -0.00656304179
v -0.0630473698 0.0244392714 -0.00561890422
v -0.062685212 0.0240771136 -0.00336978255
v -0.0188124979 -0.0197956005 0.00595953645
v -0.019919833 -0.0186881462 0.00593640985
v -0.0205870474 -0.0180209318 0.0123676318
v -0.0209853257 -0.0176226535 0.00550868692
v -0.0219362582 -0.0166718402 0.00470557393
v -0.0568176115 0.0182095131 -0.0120717031
v -0.0604904498 0.0218824706 -0.0161593896
v -0.0576122607 0.0190041623 -0.0109806996
v -0.0615412796 0.0229333005 -0.0143952113
v -0.0623451079 0.0237370095 -0.0123879653
v -0.0547763909 0.0161684117 -0.0132177812
v -0.0536689366 0.0150609574 -0.0131946546
v -0.0526035632 0.0139954648 -0.0127669316
v -0.0226313675 -0.0159766117 -0.00372252284
v -0.0218367184 -0.0167712608 -0.00481352626
v -0.0208694542 -0.017738525 -0.00557658492
v -0.0546305979 0.0160224995 -0.0197485429
v -0.0562475527 0.0176395735 -0.0194461089
v -0.0558503474 0.0172423682 -0.0128347617
v -0.0577977503 0.0191896519 -0.0187285882
v -0.0592282618 0.0206202826 -0.0176204187
v -0.0454461182 0.00683801981 -0.00609121142
v -0.0452047194 0.00659674021 -0.00666281996
v -0.0448669995 0.00625902029 -0.0071265441
v -0.0444559658 0.00584786745 -0.00745079337
v -0.0112437809 -0.0273641982 0.00512983979
v -0.0107144917 -0.0278934875 0.00294795217
v -0.0151062811 -0.0235016981 0.000870968716
v -0.010477742 -0.0281303564 0.00066569032
v -0.0150899495 -0.0235180297 -0.00069520293
v -0.010541519 -0.0280664602 -0.0016393405
v -0.015360793 -0.0232473054 -0.00221392928
v -0.0189582909 -0.0196496883 0.0124904174
v -0.0173413361 -0.0212667623 0.0121879834
v -0.0177385415 -0.0208695569 0.00557663621
v -0.0157911385 -0.0228168407 0.0114703435
v -0.014360627 -0.0242474714 0.0103621739
v -0.019795617 -0.0188124814 -0.00595960437
v -0.0186881627 -0.0199199357 -0.00593647776
v -0.0164358223 -0.0221721568 -0.0118236285
v -0.01762267 -0.0209853092 -0.00550875483
v -0.014948448 -0.0236595312 -0.0108769876
v -0.0166718567 -0.0219362417 -0.00470564185
v -0.0109036768 -0.0277043023 -0.00388834296
v -0.011551937 -0.0270560422 -0.00600514231
v -0.0159003342 -0.0227077642 -0.00358185588
v -0.0124642456 -0.0261438527 -0.00791725932
v -0.0136093701 -0.0249986091 -0.00955996333
f 1 2 3
f 4 5 6
f 7 8 4
f 4 8 9
f 4 9 10
f 11 12 13
f 14 15 16
f 17 18 19
f 19 18 20
f 19 20 21
f 22 23 24
f 7 4 3
f 3 4 25
f 3 25 1
f 10 26 4
f 4 26 27
f 4 27 5
f 5 27 28
f 5 28 29
f 20 30 21
f 21 30 31
f 21 31 32
f 32 31 33
f 32 33 34
f 34 33 35
f 34 35 36
f 29 37 5
f 5 37 38
f 5 38 39
f 39 38 40
f 39 40 41
f 41 40 42
f 41 42 43
f 43 42 44
f 6 45 4
f 4 45 46
f 4 46 47
f 46 48 47
f 47 48 49
f 47 49 50
f 50 49 51
f 50 51 52
f 52 51 53
f 35 54 36
f 36 54 55
f 36 55 56
f 56 55 57
f 56 57 53
f 53 57 58
f 53 58 52
f 11 13 59
f 44 42 60
f 60 42 61
f 60 61 12
f 24 23 62
f 62 23 63
f 62 63 64
f 64 63 65
f 64 65 66
f 13 67 59
f 59 67 68
f 59 68 69
f 69 68 70
f 69 70 17
f 17 70 71
f 17 71 18
f 12 61 13
f 13 61 72
f 13 72 73
f 74 75 16
f 16 75 76
f 16 76 14
f 77 78 79
f 79 78 80
f 79 80 81
f 81 80 75
f 81 75 82
f 82 75 74
f 24 83 22
f 22 83 84
f 22 84 85
f 85 84 86
f 85 86 77
f 77 86 87
f 77 87 78
f 73 88 13
f 13 88 89
f 13 89 75
f 75 89 90
f 75 90 76
f 91 92 2
f 2 92 93
f 2 93 3
f 3 93 94
f 3 94 95
f 95 96 3
f 3 96 97
f 3 97 98
f 98 97 99
f 98 99 100
f 100 99 101
f 100 101 15
f 15 101 102
f 15 102 16
f 66 65 103
f 103 65 104
f 103 104 105
f 105 104 106
f 105 106 107
f 107 106 2
f 2 106 108
f 2 108 91
f 109 110 111
f 109 111 112
f 113 114 115
f 115 114 116
f 115 116 117
f 117 116 118
f 117 118 119
f 119 118 120
f 121 122 123
f 123 122 124
f 125 126 127
f 127 126 128
f 127 128 129
f 130 131 132
f 132 131 133
f 132 133 134
f 134 133 135
f 134 135 125
f 125 135 136
f 125 136 126
f 110 137 111
f 111 137 138
f 111 138 115
f 115 138 139
f 115 139 113
f 140 118 141
f 141 118 142
f 143 144 145
f 128 146 129
f 129 146 147
f 129 147 148
f 148 147 149
f 148 149 150
f 151 152 124
f 124 152 153
f 124 153 123
f 140 154 118
f 118 154 155
f 118 155 120
f 120 155 156
f 145 157 158
f 158 157 159
f 142 118 160
f 160 118 161
f 160 161 145
f 145 161 162
f 145 162 143
f 111 163 164
f 164 163 165
f 164 165 166
f 166 165 167
f 166 167 130
f 130 167 168
f 130 168 131
f 169 170 171
f 171 170 172
f 171 172 173
f 173 172 120
f 173 120 174
f 174 120 156
f 175 176 177
f 177 176 178
f 177 178 169
f 169 178 179
f 169 179 170
f 144 180 145
f 145 180 181
f 145 181 182
f 183 184 157
f 157 184 185
f 157 185 186
f 186 185 187
f 186 187 188
f 188 187 150
f 188 150 189
f 189 150 149
f 183 157 190
f 190 157 145
f 190 145 191
f 191 145 182
f 191 182 192
f 192 182 193
f 192 193 194
f 194 193 195
f 194 195 121
f 121 195 196
f 121 196 122
f 164 197 111
f 111 197 198
f 111 198 112
f 112 198 152
f 112 152 199
f 199 152 151
f 200 201 202
f 202 201 203
f 202 203 204
f 204 203 205
f 204 205 175
f 175 205 206
f 175 206 176
f 207 208 209
f 209 208 210
f 209 210 157
f 157 210 211
f 157 211 159
f 209 212 207
f 207 212 213
f 207 213 214
f 214 213 215
f 214 215 200
f 200 215 216
f 200 216 201
f 13 157 186
f 13 186 67
f 67 186 188
f 67 188 68
f 68 188 189
f 68 189 70
f 70 189 149
f 70 149 71
f 71 149 147
f 71 147 18
f 18 147 146
f 18 146 20
f 20 146 128
f 20 128 30
f 30 128 126
f 30 126 31
f 31 126 136
f 31 136 33
f 33 136 135
f 33 135 35
f 35 135 133
f 35 133 54
f 54 133 131
f 54 131 55
f 55 131 168
f 55 168 57
f 57 168 167
f 57 167 58
f 58 167 165
f 58 165 52
f 52 165 163
f 52 163 50
f 50 163 111
f 50 111 47
f 4 47 115
f 115 47 111
f 4 115 117
f 4 117 25
f 25 117 119
f 25 119 1
f 1 119 120
f 1 120 2
f 2 120 172
f 2 172 107
f 107 172 170
f 107 170 105
f 105 170 179
f 105 179 103
f 103 179 178
f 103 178 66
f 66 178 176
f 66 176 64
f 64 176 206
f 64 206 62
f 62 206 205
f 62 205 24
f 24 205 203
f 24 203 83
f 83 203 201
f 83 201 84
f 84 201 216
f 84 216 86
f 86 216 215
f 86 215 87
f 87 215 213
f 87 213 78
f 78 213 212
f 78 212 80
f 80 212 209
f 80 209 75
f 13 75 157
f 157 75 209
f 32 125 21
f 21 125 127
f 21 127 19
f 19 127 129
f 19 129 17
f 17 129 148
f 17 148 69
f 69 148 150
f 69 150 59
f 59 150 187
f 59 187 11
f 11 187 185
f 11 185 12
f 12 185 184
f 12 184 60
f 60 184 183
f 60 183 44
f 44 183 190
f 44 190 43
f 43 190 191
f 43 191 41
f 41 191 192
f 41 192 39
f 39 192 194
f 39 194 5
f 5 194 121
f 5 121 6
f 6 121 123
f 6 123 45
f 45 123 153
f 45 153 46
f 46 153 152
f 46 152 48
f 48 152 198
f 48 198 49
f 49 198 197
f 49 197 51
f 51 197 164
f 51 164 53
f 53 164 166
f 53 166 56
f 56 166 130
f 56 130 36
f 36 130 132
f 36 132 34
f 34 132 134
f 34 134 32
f 32 134 125
f 99 160 101
f 101 160 145
f 101 145 102
f 102 145 158
f 102 158 16
f 16 158 159
f 16 159 74
f 74 159 211
f 74 211 82
f 82 211 210
f 82 210 81
f 81 210 208
f 81 208 79
f 79 208 207
f 79 207 77
f 77 207 214
f 77 214 85
f 85 214 200
f 85 200 22
f 22 200 202
f 22 202 23
f 23 202 204
f 23 204 63
f 63 204 175
f 63 175 65
f 65 175 177
f 65 177 104
f 104 177 169
f 104 169 106
f 106 169 171
f 106 171 108
f 108 171 173
f 108 173 91
f 91 173 174
f 91 174 92
f 92 174 156
f 92 156 93
f 93 156 155
f 93 155 94
f 94 155 154
f 94 154 95
f 95 154 140
f 95 140 96
f 96 140 141
f 96 141 97
f 97 141 142
f 97 142 99
f 99 142 160
f 161 98 162
f 162 98 100
f 162 100 143
f 143 100 15
f 143 15 144
f 144 15 14
f 144 14 180
f 180 14 76
f 180 76 181
f 181 76 90
f 181 90 182
f 182 90 89
f 182 89 193
f 193 89 88
f 193 88 195
f 195 88 73
f 195 73 196
f 196 73 72
f 196 72 122
f 122 72 61
f 122 61 124
f 124 61 42
f 124 42 151
f 151 42 40
f 151 40 199
f 199 40 38
f 199 38 112
f 112 38 37
f 112 37 109
f 109 37 29
f 109 29 110
f 110 29 28
f 110 28 137
f 137 28 27
f 137 27 138
f 138 27 26
f 138 26 139
f 139 26 10
f 139 10 113
f 113 10 9
f 113 9 114
f 114 9 8
f 114 8 116
f 116 8 7
f 116 7 118
f 118 7 3
f 118 3 161
f 161 3 98
f 217 218 219
f 220 221 222
f 222 221 223
f 224 225 226
f 227 228 229
f 223 221 230
f 230 221 231
f 230 231 232
f 233 224 230
f 230 224 226
f 230 226 234
f 232 235 230
f 230 235 236
f 230 236 233
f 237 238 239
f 239 240 237
f 237 240 241
f 237 241 242
f 242 241 226
f 242 226 243
f 243 226 225
f 244 245 246
f 234 247 230
f 230 247 248
f 230 248 249
f 229 228 250
f 250 228 251
f 250 251 252
f 238 237 253
f 253 237 254
f 253 254 255
f 245 256 246
f 246 256 257
f 246 257 258
f 258 257 259
f 258 259 260
f 261 262 263
f 248 264 249
f 249 264 265
f 249 265 266
f 266 265 267
f 266 267 268
f 268 267 269
f 229 270 227
f 227 270 271
f 227 271 272
f 272 271 273
f 272 273 274
f 274 273 275
f 274 275 276
f 255 277 253
f 253 277 250
f 253 250 278
f 278 250 252
f 244 246 277
f 277 246 279
f 277 279 250
f 260 280 258
f 258 280 281
f 258 281 282
f 282 281 261
f 282 261 283
f 283 261 284
f 219 218 285
f 285 218 286
f 285 286 287
f 287 286 288
f 287 288 289
f 289 288 220
f 220 288 290
f 220 290 291
f 292 293 221
f 221 293 294
f 221 294 295
f 295 294 296
f 295 296 261
f 261 296 297
f 261 297 262
f 219 298 217
f 217 298 299
f 217 299 300
f 300 299 301
f 300 301 302
f 275 303 276
f 276 303 304
f 276 304 305
f 305 304 306
f 305 306 307
f 291 308 220
f 220 308 309
f 220 309 221
f 221 309 310
f 221 310 292
f 263 311 261
f 261 311 312
f 261 312 284
f 284 312 313
f 306 314 307
f 307 314 315
f 307 315 316
f 316 315 317
f 316 317 269
f 269 317 318
f 269 318 268
f 301 319 302
f 302 319 320
f 302 320 321
f 321 320 322
f 321 322 323
f 323 322 284
f 323 284 324
f 324 284 313
f 325 326 327
f 325 327 328
f 329 330 331
f 331 330 332
f 331 332 333
f 334 335 336
f 326 337 338
f 338 339 326
f 326 339 340
f 326 340 327
f 327 340 341
f 327 341 342
f 343 344 345
f 345 344 346
f 342 347 327
f 327 347 348
f 327 348 349
f 349 348 345
f 349 345 350
f 350 345 346
f 350 346 351
f 351 352 350
f 350 352 353
f 350 353 354
f 354 353 355
f 354 355 356
f 356 355 357
f 356 357 358
f 358 357 359
f 360 361 362
f 362 361 363
f 362 363 364
f 333 365 331
f 331 365 366
f 331 366 345
f 345 366 367
f 345 367 343
f 360 368 361
f 361 368 369
f 361 369 335
f 334 336 370
f 370 336 371
f 370 371 326
f 326 371 372
f 326 372 337
f 373 374 375
f 375 374 376
f 375 376 377
f 378 379 380
f 380 379 381
f 380 381 382
f 382 381 383
f 382 383 359
f 359 383 384
f 359 384 358
f 385 386 387
f 387 386 388
f 387 388 327
f 327 388 389
f 327 389 328
f 390 391 392
f 392 391 393
f 392 393 378
f 378 393 394
f 378 394 379
f 395 396 363
f 363 396 397
f 334 398 335
f 335 398 399
f 335 399 361
f 361 399 400
f 363 401 395
f 395 401 402
f 395 402 403
f 403 402 404
f 403 404 390
f 390 404 405
f 390 405 391
f 329 406 330
f 330 406 407
f 330 407 397
f 397 407 408
f 397 408 363
f 363 408 409
f 363 409 364
f 376 410 377
f 377 410 411
f 377 411 412
f 412 411 413
f 412 413 414
f 414 413 415
f 414 415 416
f 387 417 385
f 385 417 418
f 385 418 419
f 419 418 420
f 419 420 373
f 373 420 421
f 373 421 374
f 400 422 361
f 361 422 423
f 361 423 424
f 424 423 425
f 424 425 426
f 426 425 427
f 415 428 416
f 416 428 429
f 416 429 430
f 430 429 431
f 430 431 427
f 427 431 432
f 427 432 426
f 246 327 349
f 246 349 279
f 279 349 350
f 279 350 250
f 250 350 354
f 250 354 229
f 229 354 356
f 229 356 270
f 270 356 358
f 270 358 271
f 271 358 384
f 271 384 273
f 273 384 383
f 273 383 275
f 275 383 381
f 275 381 303
f 303 381 379
f 303 379 304
f 304 379 394
f 304 394 306
f 306 394 393
f 306 393 314
f 314 393 391
f 314 391 315
f 315 391 405
f 315 405 317
f 317 405 404
f 317 404 318
f 318 404 402
f 318 402 268
f 268 402 401
f 268 401 266
f 266 401 363
f 266 363 249
f 230 249 361
f 361 249 363
f 230 361 424
f 230 424 223
f 223 424 426
f 223 426 222
f 222 426 432
f 222 432 220
f 220 432 431
f 220 431 289
f 289 431 429
f 289 429 287
f 287 429 428
f 287 428 285
f 285 428 415
f 285 415 219
f 219 415 413
f 219 413 298
f 298 413 411
f 298 411 299
f 299 411 410
f 299 410 301
f 301 410 376
f 301 376 319
f 319 376 374
f 319 374 320
f 320 374 421
f 320 421 322
f 322 421 420
f 322 420 284
f 284 420 418
f 284 418 283
f 283 418 417
f 283 417 282
f 282 417 387
f 282 387 258
f 246 258 327
f 327 258 387
f 276 380 274
f 274 380 382
f 274 382 272
f 272 382 359
f 272 359 227
f 227 359 357
f 227 357 228
f 228 357 355
f 228 355 251
f 251 355 353
f 251 353 252
f 252 353 352
f 252 352 278
f 278 352 351
f 278 351 253
f 253 351 346
f 253 346 238
f 238 346 344
f 238 344 239
f 239 344 343
f 239 343 240
f 240 343 367
f 240 367 241
f 241 367 366
f 241 366 226
f 226 366 365
f 226 365 234
f 234 365 333
f 234 333 247
f 247 333 332
f 247 332 248
f 248 332 330
f 248 330 264
f 264 330 397
f 264 397 265
f 265 397 396
f 265 396 267
f 267 396 395
f 267 395 269
f 269 395 403
f 269 403 316
f 316 403 390
f 316 390 307
f 307 390 392
f 307 392 305
f 305 392 378
f 305 378 276
f 276 378 380
f 296 370 297
f 297 370 326
f 297 326 262
f 262 326 325
f 262 325 263
f 263 325 328
f 263 328 311
f 311 328 389
f 311 389 312
f 312 389 388
f 312 388 313
f 313 388 386
f 313 386 324
f 324 386 385
f 324 385 323
f 323 385 419
f 323 419 321
f 321 419 373
f 321 373 302
f 302 373 375
f 302 375 300
f 300 375 377
f 300 377 217
f 217 377 412
f 217 412 218
f 218 412 414
f 218 414 286
f 286 414 416
f 286 416 288
f 288 416 430
f 288 430 290
f 290 430 427
f 290 427 291
f 291 427 425
f 291 425 308
f 308 425 423
f 308 423 309
f 309 423 422
f 309 422 310
f 310 422 400
f 310 400 292
f 292 400 399
f 292 399 293
f 293 399 398
f 293 398 294
f 294 398 334
f 294 334 296
f 296 334 370
f 371 295 372
f 372 295 261
f 372 261 337
f 337 261 281
f 337 281 338
f 338 281 280
f 338 280 339
f 339 280 260
f 339 260 340
f 340 260 259
f 340 259 341
f 341 259 257
f 341 257 342
f 342 257 256
f 342 256 347
f 347 256 245
f 347 245 348
f 348 245 244
f 348 244 345
f 345 244 277
f 345 277 331
f 331 277 255
f 331 255 329
f 329 255 254
f 329 254 406
f 406 254 237
f 406 237 407
f 407 237 242
f 407 242 408
f 408 242 243
f 408 243 409
f 409 243 225
f 409 225 364
f 364 225 224
f 364 224 362
f 362 224 233
f 362 233 360
f 360 233 236
f 360 236 368
f 368 236 235
f 368 235 369
f 369 235 232
f 369 232 335
f 335 232 231
f 335 231 336
f 336 231 221
f 336 221 371
f 371 221 295
