v 0.0182749945 0.0288183487 -0.0100333916
v 0.0170610863 0.0300321973 -0.00849261153
v 0.0455994326 0.00149391063 -0.00929715502
v 0.0456572491 0.00143603452 -0.0099576937
v 0.0458340365 0.00125918754 -0.010574721
v 0.0211938339 0.0258994497 -0.0120489823
v 0.0461177546 0.000975529038 -0.0111059176
v 0.0464889723 0.000604311311 -0.0115151631
v 0.0272046047 0.0198887385 -0.00303962099
v 0.0599791723 -0.0128858887 -0.00126042235
v 0.0265236813 0.0205696619 -0.00427486765
v 0.0256398636 0.0214534796 -0.00521888602
v 0.0196684319 0.0274249113 -0.0112323986
v 0.0469225365 0.000170806729 -0.0117745625
v 0.0533839184 -0.00629057518 -0.0132636057
v 0.0535200554 -0.0064267718 -0.0148179756
v 0.0193041283 0.0277891553 4.58730468e-05
v 0.0194402653 0.0276530183 -0.00150861609
v 0.0148712116 0.0322221316 -0.00239219534
v 0.047388764 -0.000295420802 -0.0118664728
v 0.047855826 -0.000762542403 -0.0117846953
v 0.048292132 -0.0011987888 -0.0115345942
v 0.0486871916 -0.00159384838 -0.0075272547
v 0.0483159739 -0.00122263066 -0.00711800921
v 0.0153296906 0.031763593 -0.00460591185
v 0.0198563057 0.0272369779 -0.00296022761
v 0.0160680729 0.0310252107 -0.00666274893
v 0.0276362616 0.0194570816 -0.00159706938
v 0.0277892071 0.0193041361 -4.57988968e-05
v 0.0276529509 0.0194403327 0.00150857103
v 0.0147081333 0.0323852099 -9.70588914e-05
v 0.0148459393 0.0322473443 0.00220141542
v 0.0194570738 0.0276362098 0.00159714353
v 0.0152800995 0.0318131841 0.00442490709
v 0.0198887306 0.0272046126 0.00303957594
v 0.0159958321 0.0310975111 0.00649771822
v 0.0205696541 0.0265236891 0.0042749418
v 0.0205238777 0.0265694655 -0.00421013701
v 0.0213973242 0.0256959594 -0.00517310965
v 0.0478824097 -0.000789126075 -0.00685860979
v 0.0474163014 -0.000322958148 -0.00676669943
v 0.0469491201 0.000144223058 -0.00684847701
v 0.0465129334 0.000580409848 -0.00709857809
v 0.0461373049 0.00095603832 -0.00749971735
v 0.0272370297 0.0198563136 0.00296018255
v 0.0265694576 0.020523826 0.00421009195
v 0.0258995014 0.0211938418 0.0120490564
v 0.0539360958 -0.00684275261 -0.0162695872
v 0.0546035486 -0.00751026503 -0.0175194966
v 0.055273624 -0.00818028084 -0.025358461
v 0.0458478647 0.00124541887 -0.00802471507
v 0.0456644016 0.00142888197 -0.00863780844
v 0.0246133524 0.0224799312 -0.00580718386
v 0.0235142428 0.0235790408 -0.00599982607
v 0.0224172789 0.0246760047 -0.00578358042
v 0.0169686991 0.0301246441 0.0083492769
v 0.0181654411 0.0289278425 0.00991640222
v 0.0214534718 0.0256398714 0.00521896017
v 0.0195455271 0.0275477565 0.0111459268
v 0.0224798637 0.0246134199 0.00580725801
v 0.0486677605 -0.00157441727 -0.0111334549
v 0.0489570814 -0.00186379782 -0.0106084572
v 0.0535368639 -0.0064435207 -0.011712216
v 0.0491405445 -0.00204726092 -0.00999536383
v 0.0539685207 -0.00687517754 -0.0102697836
v 0.0492055136 -0.00211222998 -0.00933601725
v 0.0546494442 -0.007556101 -0.00903453696
v 0.0555332619 -0.00843991867 -0.00809051859
v 0.061868878 -0.0147755944 -0.0133551584
v 0.061732741 -0.0146394574 -0.0118007885
v 0.0663019138 -0.0192085706 -0.0109172093
v 0.0565596539 -0.00946637026 -0.00750210154
v 0.0491476971 -0.00205435387 -0.00867535937
v 0.0576587635 -0.0105654799 -0.00730957854
v 0.0256960112 0.021397332 0.00517306459
v 0.0246759373 0.0224173463 0.00578353536
v 0.0242938715 0.0227994717 0.0124552025
v 0.0235790926 0.0235142506 0.00599978101
v 0.02266285 0.0244304932 0.0124373211
v 0.0210618692 0.0260314144 0.0119958891
v 0.0586931425 -0.0115998589 -0.0191166626
v 0.0585102755 -0.0114169323 -0.0257467257
v 0.0575940329 -0.0105006897 -0.0193091856
v 0.056879254 -0.00978591076 -0.0257646071
v 0.056497069 -0.00940378538 -0.01909294
v 0.0554771143 -0.0083837711 -0.0184824692
v 0.0658433157 -0.0187500321 -0.00870349276
v 0.0613167006 -0.014223417 -0.010349177
v 0.0651049334 -0.0180117094 -0.00664665568
v 0.06411192 -0.0170186364 -0.00481679308
v 0.0606492477 -0.0135559045 -0.0090992676
v 0.062898131 -0.0158047878 -0.00327601302
v 0.0597756821 -0.0126823985 -0.00813629496
v 0.0615046936 -0.0144113504 -0.00207688677
v 0.0587557274 -0.0116624438 -0.00752582419
v 0.0606034714 -0.0135101282 -0.0175843464
v 0.0630075651 -0.0159142815 -0.0232258068
v 0.0597196537 -0.0126263105 -0.0185283648
v 0.0616274792 -0.0145341956 -0.0244553314
v 0.0601112562 -0.013017913 -0.0253052937
v 0.0664649921 -0.0193716489 -0.0132123457
v 0.066327067 -0.0192337834 -0.01551082
v 0.0617159325 -0.0146226489 -0.0149065481
v 0.0658929068 -0.0187996232 -0.0177343117
v 0.0612843948 -0.0141910516 -0.0163489805
v 0.0651772934 -0.0180839502 -0.0198071228
v 0.0642044264 -0.0171110832 -0.0216586815
v 0.0489709097 -0.00187756649 -0.00805845129
v 0.0440494734 -0.00544144741 -0.0115345942
v 0.0436131674 -0.00500520102 -0.0117846953
v 0.0510309654 -0.0124229395 -0.025358461
v 0.0234104115 0.0151976741 0.00150857103
v 0.0235465485 0.0150614775 -4.57988968e-05
v 0.0557365137 -0.0171285473 -0.00126042235
v 0.0414145905 -0.00280662409 -0.0099576937
v 0.0169511753 0.0216567911 -0.0120489823
v 0.041591497 -0.00298341147 -0.010574721
v 0.0418750959 -0.00326712958 -0.0111059176
v 0.0431461054 -0.00453801981 -0.0118664728
v 0.0426798779 -0.00407185189 -0.0117745625
v 0.0422464329 -0.0036383473 -0.0115151631
v 0.0222810226 0.0163270033 -0.00427486765
v 0.021397205 0.017210821 -0.00521888602
v 0.041356774 -0.00274874798 -0.00929715502
v 0.0574733931 -0.0188653075 -0.0149065481
v 0.0620844084 -0.023476442 -0.01551082
v 0.0576263386 -0.019018253 -0.0133551584
v 0.0622223335 -0.0236143076 -0.0132123457
v 0.0574900824 -0.0188820564 -0.0118007885
v 0.0554769951 -0.0168689691 -0.0185283648
v 0.0573849398 -0.0187768542 -0.0244553314
v 0.0587649065 -0.0201569401 -0.0232258068
v 0.0444251019 -0.00581701628 -0.0111334549
v 0.0526365954 -0.0140285694 -0.0257646071
v 0.0542676169 -0.0156595909 -0.0257467257
v 0.022994371 0.0156137145 0.00296018255
v 0.0563608128 -0.0177527272 -0.0175843464
v 0.0599617678 -0.0213537418 -0.0216586815
v 0.0570417362 -0.0184336506 -0.0163489805
v 0.0609346348 -0.0223265492 -0.0198071228
v 0.0616502482 -0.0230422222 -0.0177343117
v 0.0558685976 -0.017260512 -0.0253052937
v 0.0544504839 -0.0158425175 -0.0191166626
v 0.0533513743 -0.0147433483 -0.0193091856
v 0.0522544104 -0.0136463844 -0.01909294
v 0.05036089 -0.0117529236 -0.0175194966
v 0.0448978859 -0.00628985993 -0.00999536383
v 0.0447144228 -0.00610645644 -0.0106084572
v 0.0422702747 -0.00366218916 -0.00709857809
v 0.0418946463 -0.00328656069 -0.00749971735
v 0.0416052061 -0.00299718014 -0.00802471507
v 0.020370813 0.0182372726 -0.00580718386
v 0.044962855 -0.00635488859 -0.00933601725
v 0.0496934372 -0.0110854112 -0.0162695872
v 0.0492773968 -0.0106693708 -0.0148179756
v 0.0512906033 -0.0126825177 -0.00809051859
v 0.0523169952 -0.0137089693 -0.00750210154
v 0.0620592552 -0.0234512293 -0.0109172093
v 0.0616006571 -0.0229926907 -0.00870349276
v 0.0570740419 -0.0184660756 -0.010349177
v 0.060862394 -0.0222543084 -0.00664665568
v 0.0564065891 -0.0177985632 -0.0090992676
v 0.0512344557 -0.0126264297 -0.0184824692
v 0.041421743 -0.00281371704 -0.00863780844
v 0.0233936029 0.015214423 -0.00159706938
v 0.0229619461 0.0156460799 -0.00303962099
v 0.0427064615 -0.00409843556 -0.00684847701
v 0.0431736427 -0.00456555716 -0.00676669943
v 0.0436398703 -0.00503178469 -0.00685860979
v 0.0440733152 -0.00546528927 -0.00711800921
v 0.044444533 -0.005836507 -0.0075272547
v 0.0598693806 -0.021261295 -0.00481679308
v 0.0586554724 -0.0200473868 -0.00327601302
v 0.0555331427 -0.0169250571 -0.00813629496
v 0.057262035 -0.018654009 -0.00207688677
v 0.0545130688 -0.0159051024 -0.00752582419
v 0.0534162241 -0.0148081385 -0.00730957854
v 0.0447282511 -0.00612022511 -0.00805845129
v 0.0449050385 -0.00629701248 -0.00867535937
v 0.0504067856 -0.0117987596 -0.00903453696
v 0.0491412598 -0.0105332338 -0.0132636057
v 0.0492942053 -0.0106861793 -0.011712216
v 0.0497258621 -0.0111178362 -0.0102697836
v 0.0192715841 0.0193364418 -0.00599982607
v 0.0181746203 0.0204333461 -0.00578358042
v 0.0154257732 0.0231823123 -0.0112323986
v 0.0171546656 0.0214533604 -0.00517310965
v 0.0140323359 0.0245756901 -0.0100333916
v 0.0162812191 0.0223268665 -0.00421013701
v 0.0151977259 0.0234103597 -0.00150861609
v 0.0110870319 0.0275209344 -0.00460591185
v 0.0156136471 0.0229943193 -0.00296022761
v 0.0118254143 0.0267826117 -0.00666274893
v 0.0128184277 0.0257895983 -0.00849261153
v 0.0172108131 0.0213972128 0.00521896017
v 0.0139227825 0.0246851838 0.00991640222
v 0.0163269955 0.0222810305 0.0042749418
v 0.0127260405 0.0258820451 0.0083492769
v 0.015646072 0.022961954 0.00303957594
v 0.0117531735 0.0268548525 0.00649771822
v 0.0152144152 0.0233936108 0.00159714353
v 0.019336434 0.019271592 0.00599978101
v 0.0204333979 0.0181746877 0.00578353536
v 0.0216568428 0.0169512428 0.0120490564
v 0.0214533526 0.0171546734 0.00517306459
v 0.022326799 0.0162811674 0.00421009195
v 0.0110375601 0.0275705255 0.00442490709
v 0.0106032806 0.0280046857 0.00220141542
v 0.0150614697 0.0235465563 4.58730468e-05
v 0.0104654747 0.0281426109 -9.70588914e-05
v 0.010628553 0.027979473 -0.00239219534
v 0.0200512129 0.0185568131 0.0124552025
v 0.0184201914 0.0201878346 0.0124373211
v 0.0182373243 0.0203707612 0.00580725801
v 0.0168192106 0.0217888153 0.0119958891
v 0.0153028685 0.0233051575 0.0111459268
v -0.00149383964 -0.0455994212 -0.00929715502
v -0.00143602313 -0.0456572973 -0.0099576937
v -0.0258994383 -0.0211938821 -0.0120489823
v -0.000144152063 -0.0469491088 -0.00684847701
v -0.000580458063 -0.0465128624 -0.00709857809
v -0.02119389 -0.0258994304 0.0120490564
v -0.0274249596 -0.0196684205 -0.0112325178
v -0.0288182777 -0.0182749831 -0.0100333916
v -0.0300321859 -0.0170610749 -0.00849261153
v -0.00125923576 -0.0458340847 -0.010574721
v -0.000975517649 -0.0461178028 -0.0111059176
v -0.000604299921 -0.0464890205 -0.0115151631
v 0.00186380921 -0.0489571296 -0.0106084572
v 0.00204727231 -0.0491405331 -0.00999536383
v 0.00946638165 -0.0565596425 -0.00750222075
v 0.00629064618 -0.053383907 -0.0132636057
v 0.00642678319 -0.053520044 -0.0148179756
v 0.00755605279 -0.0546494328 -0.00903453696
v 0.000762553793 -0.0478558742 -0.0117846953
v 0.00843987046 -0.0555331909 -0.00809051859
v 0.00119874058 -0.0482921206 -0.0115345942
v 0.00157436905 -0.0486676895 -0.0111334549
v 0.00687512932 -0.0539685094 -0.0102697836
v 0.0064435917 -0.0535368525 -0.0117123352
v 0.000295372587 -0.047388693 -0.0118664728
v 0.00159391938 -0.0486871802 -0.0075272547
v 0.00122258244 -0.0483159625 -0.00711800921
v 0.0128859001 -0.0599792205 -0.00126042235
v 0.000789137465 -0.0478824579 -0.00685860979
v 0.000322909933 -0.0474162304 -0.00676669943
v -0.000170735735 -0.0469225251 -0.0117745625
v 0.0147756058 -0.0618689262 -0.0133552777
v 0.0146394688 -0.0617327296 -0.0118007885
v 0.0192085224 -0.0663019024 -0.0109172093
v 0.0187500435 -0.0658433639 -0.00870349276
v 0.0142234284 -0.0613167488 -0.010349177
v 0.0180116612 -0.0651049816 -0.00664665568
v -0.0277891439 -0.0193041169 4.58730468e-05
v -0.0276530069 -0.0194403135 -0.00150861609
v -0.0322221798 -0.0148712002 -0.00239219534
v -0.0317635817 -0.0153297388 -0.00460591185
v -0.0272369665 -0.0198563539 -0.00296022761
v -0.0310251993 -0.0160680615 -0.00666274893
v -0.000956086534 -0.0461372339 -0.00749971735
v -0.0198563618 -0.0272369587 0.00296018255
v -0.0205238146 -0.0265695058 0.00421009195
v 0.00684282361 -0.0539360844 -0.0162695872
v 0.00751027642 -0.0546035968 -0.0175194966
v 0.00818035184 -0.0552736127 -0.025358461
v 0.0170186478 -0.0641119682 -0.00481679308
v 0.0135559755 -0.0606492364 -0.0090992676
v 0.0158047396 -0.06289806 -0.00327601302
v 0.0126824099 -0.0597757303 -0.00813629496
v 0.0144114214 -0.0615046822 -0.00207700598
v 0.0116624552 -0.0587557756 -0.00752582419
v 0.0105654913 -0.0576588117 -0.00730957854
v -0.0214534086 -0.0256398522 -0.00521888602
v -0.0205697102 -0.0265236699 -0.00427486765
v -0.0198886675 -0.0272045933 -0.00303962099
v -0.00142887058 -0.0456644498 -0.00863780844
v -0.0194571299 -0.0276362502 -0.00159718859
v -0.00124540748 -0.0458478533 -0.00802471507
v -0.0193041843 -0.0277891957 -4.57988968e-05
v -0.0194403213 -0.0276529991 0.00150857103
v -0.0213973803 -0.0256959998 0.00517306459
v -0.0224173349 -0.0246759855 0.00578353536
v -0.0227994007 -0.0242938601 0.0124552025
v -0.0235142988 -0.0235790812 0.00599978101
v -0.0244305414 -0.0226628386 0.0124373211
v -0.0246134085 -0.022479912 0.00580725801
v -0.0323852581 -0.0147080623 -9.70588914e-05
v -0.0322473329 -0.0148459875 0.00220141542
v -0.0276361984 -0.0194570624 0.00159714353
v -0.0318131727 -0.0152801477 0.00442490709
v -0.0272045416 -0.0198887192 0.00303957594
v -0.0310974401 -0.0159958207 0.00649771822
v -0.0265236181 -0.0205696427 0.0042749418
v 0.00211224137 -0.0492055618 -0.00933601725
v 0.00205442486 -0.0491476857 -0.00867547858
v -0.0265695137 -0.0205238067 -0.00421013701
v -0.025695948 -0.0213973128 -0.00517310965
v 0.00838384209 -0.0554771029 -0.0184824692
v 0.00940379677 -0.0564970576 -0.01909294
v 0.00978586255 -0.0568792426 -0.0257646071
v 0.0105007607 -0.0575940215 -0.0193091856
v 0.0114170033 -0.0585102641 -0.0257467257
v 0.0115998703 -0.0586931907 -0.0191166626
v 0.01351008 -0.0606034004 -0.0175843464
v 0.0159142929 -0.0630076133 -0.0232258068
v 0.0126262623 -0.0597196423 -0.0185283648
v 0.014534207 -0.0616275274 -0.0244553314
v 0.0130178648 -0.0601111852 -0.0253052937
v 0.00187751828 -0.0489708983 -0.00805845129
v -0.0246759933 -0.0224173271 -0.00578358042
v -0.0235790295 -0.0235142314 -0.00599982607
v -0.0224799198 -0.0246134006 -0.00580730307
v -0.0301246923 -0.0169686281 0.0083492769
v -0.0289278311 -0.0181654894 0.00991640222
v -0.0256398004 -0.0214534604 0.00521896017
v -0.0275477451 -0.0195455753 0.0111459268
v -0.026031403 -0.0210618579 0.0119958891
v 0.0193717199 -0.0664649808 -0.0132123457
v 0.0192337948 -0.0663271152 -0.01551082
v 0.0146226603 -0.0617159807 -0.0149065481
v 0.0187996346 -0.0658928954 -0.0177343117
v 0.0141910034 -0.0612843238 -0.0163489805
v 0.018083902 -0.0651772224 -0.0198071228
v 0.0171111542 -0.064204415 -0.0216586815
v -0.00304379882 -0.0525347196 -0.0115345942
v -0.00348010482 -0.0520984732 -0.0117846953
v 0.00393769322 -0.0595162713 -0.025358461
v -0.00301995696 -0.0525585615 -0.00711800921
v -0.00264873924 -0.0529298388 -0.0075272547
v 0.00864324151 -0.0642218196 -0.00126042235
v 0.0032676178 -0.0588462555 -0.0175194966
v -0.00219538631 -0.0533831917 -0.00999536383
v -0.00237884941 -0.0531997286 -0.0106084572
v 0.00838360367 -0.0639622413 -0.0185283648
v 0.0116716343 -0.0672502123 -0.0232258068
v 0.00926742135 -0.064846059 -0.0175843464
v 0.0128684956 -0.0684470736 -0.0216586815
v 0.00994834481 -0.0655269825 -0.0163489805
v 0.0138412434 -0.069419881 -0.0198071228
v 0.0103800016 -0.0659586393 -0.0149065481
v 0.00717434464 -0.0627529227 -0.0257467257
v 0.00625810204 -0.0618366801 -0.0193091856
v 0.00516113816 -0.0607397162 -0.01909294
v -0.00266828956 -0.0529103481 -0.0111334549
v 0.00554332314 -0.0611218416 -0.0257646071
v -0.00567868175 -0.0498999559 -0.0099576937
v -0.0301420969 -0.0254364812 -0.0120489823
v -0.00550189437 -0.0500767433 -0.010574721
v -0.00521817626 -0.0503604018 -0.0111059176
v -0.0054880661 -0.050090512 -0.00802471507
v -0.00519874515 -0.0503798925 -0.00749971735
v -0.0235467237 -0.0320317947 -4.57988968e-05
v -0.00482311668 -0.050755521 -0.00709857809
v 0.00735721169 -0.0629357897 -0.0191166626
v 0.00877520619 -0.0643538438 -0.0253052937
v 0.0102915484 -0.065870186 -0.0244553314
v 0.00414118348 -0.0597197615 -0.0184824692
v -0.00394728603 -0.0516313516 -0.0118664728
v -0.00441339435 -0.0511651837 -0.0117745625
v -0.00484695854 -0.0507316791 -0.0115151631
v 0.0145569759 -0.070135554 -0.0177343117
v 0.0149911362 -0.0705697142 -0.01551082
v 0.0105329472 -0.0661115848 -0.0133552777
v 0.0151290613 -0.0707076394 -0.0132123457
v 0.0103968102 -0.0659753882 -0.0118007885
v -0.00213041725 -0.0534482204 -0.00933601725
v 0.00260016499 -0.058178743 -0.0162695872
v 0.00218412457 -0.0577627026 -0.0148179756
v 0.014965983 -0.0705445015 -0.0109172093
v 0.0145073849 -0.0700859629 -0.00870349276
v 0.00998076974 -0.0655594074 -0.010349177
v 0.0137690025 -0.0693476402 -0.00664665568
v 0.00931331692 -0.064891895 -0.0090992676
v -0.02368298 -0.0318956577 0.00150857103
v -0.0240990204 -0.0314796173 0.00296018255
v -0.00438681068 -0.0511917674 -0.00684847701
v -0.00391974868 -0.051658889 -0.00676669943
v -0.00345352115 -0.0521251165 -0.00685860979
v -0.0318956655 -0.0236829721 -0.00150861609
v -0.0360062403 -0.0195723378 -0.00460591185
v -0.0314796251 -0.0240989529 -0.00296022761
v -0.0352678579 -0.0203107201 -0.00666274893
v -0.0308121723 -0.0247664653 -0.00421013701
v -0.0277568382 -0.0278216802 0.00599978101
v -0.0266599935 -0.0289186441 0.00578353536
v -0.0254365486 -0.030142089 0.0120490564
v -0.0256399197 -0.0299385988 0.00517306459
v -0.0247664732 -0.0308121049 0.00421009195
v -0.00567152919 -0.0499070489 -0.00863780844
v -0.0236996693 -0.0318788492 -0.00159718859
v -0.00573649825 -0.0498420798 -0.00929715502
v -0.0241313261 -0.031447252 -0.00303962099
v -0.031878857 -0.023699721 0.00159714353
v -0.0364899916 -0.0190885865 0.00220141542
v -0.0320318026 -0.0235467755 4.58730468e-05
v -0.0366279167 -0.0189507209 -9.70588914e-05
v -0.0364647192 -0.0191138589 -0.00239219534
v -0.0298824591 -0.025696119 0.00521896017
v -0.0331704897 -0.0224080884 0.00991640222
v -0.0307662767 -0.0248123013 0.0042749418
v -0.034367351 -0.0212112867 0.0083492769
v -0.0314472002 -0.0241313779 0.00303957594
v -0.0353400988 -0.0202384793 0.00649771822
v -0.0360558313 -0.0195228063 0.00442490709
v -0.0270420593 -0.0285365187 0.0124552025
v -0.0286730808 -0.0269054376 0.0124373211
v -0.0288560671 -0.0267225706 0.00580725801
v -0.0302740616 -0.0253045165 0.0119958891
v -0.0317904037 -0.0237881743 0.0111459268
v 0.00263258992 -0.0582111084 -0.0102697836
v 0.00331351338 -0.0588920318 -0.00903453696
v 0.00419721184 -0.0597758495 -0.00809051859
v 0.00522372304 -0.0608023011 -0.00750222075
v 0.0127759892 -0.0683546268 -0.00481679308
v 0.011562081 -0.0671407186 -0.00327601302
v 0.00843975125 -0.0640183889 -0.00813629496
v 0.0101687628 -0.0657473408 -0.00207700598
v 0.00741979657 -0.0629983746 -0.00752582419
v 0.00632283269 -0.0619014703 -0.00730957854
v -0.0342748445 -0.0213037335 -0.00849261153
v -0.0330609363 -0.0225176417 -0.0100333916
v -0.0299386066 -0.0256399714 -0.00517310965
v -0.0316676182 -0.0239110195 -0.0112325178
v -0.028918652 -0.0266599857 -0.00578358042
v -0.0278216881 -0.02775689 -0.00599982607
v -0.0248122496 -0.0307663285 -0.00427486765
v -0.0256960672 -0.0298825108 -0.00521888602
v -0.0267225784 -0.0288560592 -0.00580730307
v -0.00236502113 -0.0532134973 -0.00805845129
v -0.00218823375 -0.0533903443 -0.00867547858
v 0.00220093308 -0.0577795111 -0.0117123352
v 0.00204798756 -0.0576265656 -0.0132636057
f 1 2 3
f 4 5 6
f 6 5 7
f 6 7 8
f 9 10 11
f 11 10 12
f 4 6 3
f 3 6 13
f 3 13 1
f 8 14 6
f 6 14 15
f 6 15 16
f 17 18 19
f 14 20 15
f 15 20 21
f 15 21 22
f 23 24 10
f 19 18 25
f 25 18 26
f 25 26 27
f 9 28 10
f 10 28 29
f 10 29 30
f 19 31 17
f 17 31 32
f 17 32 33
f 33 32 34
f 33 34 35
f 35 34 36
f 35 36 37
f 27 26 2
f 2 26 38
f 2 38 39
f 24 40 10
f 10 40 41
f 10 41 12
f 41 42 12
f 12 42 43
f 12 43 44
f 30 45 10
f 10 45 46
f 10 46 47
f 16 48 6
f 6 48 49
f 6 49 50
f 44 51 12
f 12 51 52
f 12 52 53
f 53 52 3
f 53 3 54
f 54 3 2
f 54 2 55
f 55 2 39
f 36 56 37
f 37 56 57
f 37 57 58
f 58 57 59
f 58 59 60
f 22 61 15
f 15 61 62
f 15 62 63
f 63 62 64
f 63 64 65
f 65 64 66
f 65 66 67
f 67 66 68
f 69 70 71
f 68 66 72
f 72 66 73
f 72 73 74
f 46 75 47
f 47 75 76
f 47 76 77
f 77 76 78
f 77 78 79
f 79 78 60
f 79 60 80
f 80 60 59
f 81 82 83
f 83 82 84
f 83 84 85
f 85 84 50
f 85 50 86
f 86 50 49
f 71 70 87
f 87 70 88
f 87 88 89
f 89 88 90
f 90 88 91
f 90 91 92
f 92 91 93
f 92 93 94
f 94 93 10
f 10 93 95
f 10 95 74
f 96 97 98
f 98 97 99
f 98 99 81
f 81 99 100
f 81 100 82
f 71 101 69
f 69 101 102
f 69 102 103
f 103 102 104
f 103 104 105
f 105 104 106
f 105 106 96
f 96 106 107
f 96 107 97
f 74 73 10
f 10 73 108
f 10 108 23
f 109 110 111
f 112 113 114
f 115 116 117
f 117 116 118
f 110 119 111
f 111 119 120
f 111 120 116
f 116 120 121
f 116 121 118
f 122 123 124
f 125 126 127
f 127 126 128
f 127 128 129
f 130 131 132
f 109 111 133
f 133 111 134
f 133 134 135
f 112 114 136
f 130 132 137
f 137 132 138
f 137 138 139
f 139 138 140
f 139 140 125
f 125 140 141
f 125 141 126
f 131 130 142
f 142 130 143
f 142 143 135
f 135 143 144
f 135 144 145
f 146 147 148
f 149 113 150
f 150 113 151
f 152 116 123
f 123 116 115
f 123 115 124
f 147 146 153
f 153 146 154
f 153 154 155
f 156 157 114
f 128 158 129
f 129 158 159
f 129 159 160
f 160 159 161
f 160 161 162
f 148 133 146
f 146 133 135
f 146 135 163
f 163 135 145
f 151 113 164
f 164 113 165
f 164 165 124
f 124 165 166
f 124 166 122
f 149 167 113
f 113 167 168
f 113 168 114
f 114 168 169
f 114 169 156
f 156 169 170
f 156 170 171
f 161 172 162
f 162 172 173
f 162 173 174
f 174 173 175
f 174 175 176
f 176 175 114
f 176 114 177
f 177 114 157
f 171 178 156
f 156 178 179
f 156 179 180
f 155 181 153
f 153 181 182
f 153 182 179
f 179 182 183
f 179 183 180
f 152 184 116
f 116 184 185
f 116 185 186
f 186 185 187
f 186 187 188
f 188 187 189
f 190 191 192
f 192 191 193
f 192 193 189
f 189 193 194
f 189 194 188
f 195 196 197
f 197 196 198
f 197 198 199
f 199 198 200
f 199 200 201
f 202 203 204
f 204 203 205
f 204 205 114
f 114 205 206
f 114 206 136
f 200 207 201
f 201 207 208
f 201 208 209
f 209 208 210
f 209 210 190
f 190 210 211
f 190 211 191
f 204 212 202
f 202 212 213
f 202 213 214
f 214 213 215
f 214 215 195
f 195 215 216
f 195 216 196
f 10 114 175
f 10 175 94
f 94 175 173
f 94 173 92
f 92 173 172
f 92 172 90
f 90 172 161
f 90 161 89
f 89 161 159
f 89 159 87
f 87 159 158
f 87 158 71
f 71 158 128
f 71 128 101
f 101 128 126
f 101 126 102
f 102 126 141
f 102 141 104
f 104 141 140
f 104 140 106
f 106 140 138
f 106 138 107
f 107 138 132
f 107 132 97
f 97 132 131
f 97 131 99
f 99 131 142
f 99 142 100
f 100 142 135
f 100 135 82
f 82 135 134
f 82 134 84
f 84 134 111
f 84 111 50
f 6 50 116
f 116 50 111
f 6 116 186
f 6 186 13
f 13 186 188
f 13 188 1
f 1 188 194
f 1 194 2
f 2 194 193
f 2 193 27
f 27 193 191
f 27 191 25
f 25 191 211
f 25 211 19
f 19 211 210
f 19 210 31
f 31 210 208
f 31 208 32
f 32 208 207
f 32 207 34
f 34 207 200
f 34 200 36
f 36 200 198
f 36 198 56
f 56 198 196
f 56 196 57
f 57 196 216
f 57 216 59
f 59 216 215
f 59 215 80
f 80 215 213
f 80 213 79
f 79 213 212
f 79 212 77
f 77 212 204
f 77 204 47
f 10 47 114
f 114 47 204
f 103 125 69
f 69 125 127
f 69 127 70
f 70 127 129
f 70 129 88
f 88 129 160
f 88 160 91
f 91 160 162
f 91 162 93
f 93 162 174
f 93 174 95
f 95 174 176
f 95 176 74
f 74 176 177
f 74 177 72
f 72 177 157
f 72 157 68
f 68 157 156
f 68 156 67
f 67 156 180
f 67 180 65
f 65 180 183
f 65 183 63
f 63 183 182
f 63 182 15
f 15 182 181
f 15 181 16
f 16 181 155
f 16 155 48
f 48 155 154
f 48 154 49
f 49 154 146
f 49 146 86
f 86 146 163
f 86 163 85
f 85 163 145
f 85 145 83
f 83 145 144
f 83 144 81
f 81 144 143
f 81 143 98
f 98 143 130
f 98 130 96
f 96 130 137
f 96 137 105
f 105 137 139
f 105 139 103
f 103 139 125
f 28 165 29
f 29 165 113
f 29 113 30
f 30 113 112
f 30 112 45
f 45 112 136
f 45 136 46
f 46 136 206
f 46 206 75
f 75 206 205
f 75 205 76
f 76 205 203
f 76 203 78
f 78 203 202
f 78 202 60
f 60 202 214
f 60 214 58
f 58 214 195
f 58 195 37
f 37 195 197
f 37 197 35
f 35 197 199
f 35 199 33
f 33 199 201
f 33 201 17
f 17 201 209
f 17 209 18
f 18 209 190
f 18 190 26
f 26 190 192
f 26 192 38
f 38 192 189
f 38 189 39
f 39 189 187
f 39 187 55
f 55 187 185
f 55 185 54
f 54 185 184
f 54 184 53
f 53 184 152
f 53 152 12
f 12 152 123
f 12 123 11
f 11 123 122
f 11 122 9
f 9 122 166
f 9 166 28
f 28 166 165
f 164 52 151
f 151 52 51
f 151 51 150
f 150 51 44
f 150 44 149
f 149 44 43
f 149 43 167
f 167 43 42
f 167 42 168
f 168 42 41
f 168 41 169
f 169 41 40
f 169 40 170
f 170 40 24
f 170 24 171
f 171 24 23
f 171 23 178
f 178 23 108
f 178 108 179
f 179 108 73
f 179 73 153
f 153 73 66
f 153 66 147
f 147 66 64
f 147 64 148
f 148 64 62
f 148 62 133
f 133 62 61
f 133 61 109
f 109 61 22
f 109 22 110
f 110 22 21
f 110 21 119
f 119 21 20
f 119 20 120
f 120 20 14
f 120 14 121
f 121 14 8
f 121 8 118
f 118 8 7
f 118 7 117
f 117 7 5
f 117 5 115
f 115 5 4
f 115 4 124
f 124 4 3
f 124 3 164
f 164 3 52
f 217 218 219
f 220 221 222
f 219 223 217
f 217 223 224
f 217 224 225
f 218 226 219
f 219 226 227
f 219 227 228
f 229 230 231
f 219 232 233
f 234 235 236
f 236 235 237
f 236 237 231
f 231 237 238
f 231 238 229
f 234 239 235
f 235 239 240
f 235 240 241
f 242 243 244
f 244 243 245
f 244 245 222
f 222 245 246
f 222 246 220
f 228 247 219
f 219 247 241
f 219 241 232
f 232 241 240
f 248 249 250
f 250 249 251
f 251 249 252
f 251 252 253
f 254 255 256
f 256 255 257
f 257 255 258
f 257 258 259
f 221 260 222
f 222 260 261
f 222 261 262
f 233 263 219
f 219 263 264
f 219 264 265
f 253 252 266
f 266 252 267
f 266 267 268
f 268 267 269
f 268 269 270
f 270 269 244
f 244 269 271
f 244 271 272
f 273 274 217
f 217 274 275
f 217 275 276
f 276 275 277
f 276 277 278
f 278 277 279
f 278 279 260
f 260 279 280
f 260 280 261
f 262 281 222
f 222 281 282
f 222 282 283
f 283 282 284
f 283 284 285
f 285 284 286
f 256 287 254
f 254 287 288
f 254 288 289
f 289 288 290
f 289 290 291
f 291 290 292
f 291 292 293
f 230 294 231
f 231 294 295
f 231 295 272
f 259 258 225
f 225 258 296
f 225 296 297
f 264 298 265
f 265 298 299
f 265 299 300
f 300 299 301
f 300 301 302
f 302 301 303
f 304 305 306
f 306 305 307
f 306 307 303
f 303 307 308
f 303 308 302
f 272 295 244
f 244 295 309
f 244 309 242
f 297 310 225
f 225 310 311
f 225 311 217
f 217 311 312
f 217 312 273
f 292 313 293
f 293 313 314
f 293 314 315
f 315 314 316
f 315 316 286
f 286 316 317
f 286 317 285
f 250 318 248
f 248 318 319
f 248 319 320
f 320 319 321
f 320 321 322
f 322 321 323
f 322 323 304
f 304 323 324
f 304 324 305
f 325 326 327
f 328 329 330
f 331 332 333
f 334 335 336
f 336 335 337
f 336 337 338
f 338 337 339
f 338 339 340
f 341 342 343
f 325 327 344
f 344 327 345
f 344 345 341
f 346 347 348
f 348 347 349
f 350 351 352
f 352 351 353
f 342 341 354
f 354 341 355
f 354 355 334
f 334 355 356
f 334 356 335
f 333 344 331
f 331 344 341
f 331 341 357
f 357 341 343
f 326 358 327
f 327 358 359
f 327 359 347
f 347 359 360
f 347 360 349
f 339 361 340
f 340 361 362
f 340 362 363
f 363 362 364
f 363 364 365
f 332 331 366
f 366 331 367
f 366 367 368
f 364 369 365
f 365 369 370
f 365 370 371
f 371 370 372
f 371 372 373
f 352 330 374
f 374 330 375
f 353 376 352
f 352 376 377
f 352 377 330
f 330 377 378
f 330 378 328
f 379 380 381
f 381 380 382
f 381 382 383
f 384 385 386
f 386 385 387
f 386 387 330
f 330 387 388
f 330 388 375
f 350 352 389
f 389 352 390
f 389 390 391
f 391 390 392
f 391 392 346
f 393 394 395
f 395 394 396
f 395 396 379
f 379 396 397
f 379 397 380
f 398 399 400
f 400 399 401
f 400 401 402
f 402 401 403
f 402 403 393
f 393 403 404
f 393 404 394
f 386 405 384
f 384 405 406
f 384 406 407
f 407 406 408
f 407 408 398
f 398 408 409
f 398 409 399
f 410 411 329
f 329 411 412
f 329 412 330
f 330 412 413
f 372 414 373
f 373 414 415
f 373 415 416
f 416 415 417
f 416 417 418
f 418 417 330
f 418 330 419
f 419 330 413
f 382 420 383
f 383 420 421
f 383 421 422
f 422 421 423
f 422 423 424
f 424 423 347
f 424 347 425
f 392 426 346
f 346 426 427
f 346 427 347
f 347 427 428
f 347 428 425
f 329 429 410
f 410 429 430
f 410 430 431
f 431 430 366
f 431 366 432
f 432 366 368
f 244 330 417
f 244 417 270
f 270 417 415
f 270 415 268
f 268 415 414
f 268 414 266
f 266 414 372
f 266 372 253
f 253 372 370
f 253 370 251
f 251 370 369
f 251 369 250
f 250 369 364
f 250 364 318
f 318 364 362
f 318 362 319
f 319 362 361
f 319 361 321
f 321 361 339
f 321 339 323
f 323 339 337
f 323 337 324
f 324 337 335
f 324 335 305
f 305 335 356
f 305 356 307
f 307 356 355
f 307 355 308
f 308 355 341
f 308 341 302
f 302 341 345
f 302 345 300
f 300 345 327
f 300 327 265
f 219 265 347
f 347 265 327
f 219 347 423
f 219 423 223
f 223 423 421
f 223 421 224
f 224 421 420
f 224 420 225
f 225 420 382
f 225 382 259
f 259 382 380
f 259 380 257
f 257 380 397
f 257 397 256
f 256 397 396
f 256 396 287
f 287 396 394
f 287 394 288
f 288 394 404
f 288 404 290
f 290 404 403
f 290 403 292
f 292 403 401
f 292 401 313
f 313 401 399
f 313 399 314
f 314 399 409
f 314 409 316
f 316 409 408
f 316 408 317
f 317 408 406
f 317 406 285
f 285 406 405
f 285 405 283
f 283 405 386
f 283 386 222
f 244 222 330
f 330 222 386
f 320 340 248
f 248 340 363
f 248 363 249
f 249 363 365
f 249 365 252
f 252 365 371
f 252 371 267
f 267 371 373
f 267 373 269
f 269 373 416
f 269 416 271
f 271 416 418
f 271 418 272
f 272 418 419
f 272 419 231
f 231 419 413
f 231 413 236
f 236 413 412
f 236 412 234
f 234 412 411
f 234 411 239
f 239 411 410
f 239 410 240
f 240 410 431
f 240 431 232
f 232 431 432
f 232 432 233
f 233 432 368
f 233 368 263
f 263 368 367
f 263 367 264
f 264 367 331
f 264 331 298
f 298 331 357
f 298 357 299
f 299 357 343
f 299 343 301
f 301 343 342
f 301 342 303
f 303 342 354
f 303 354 306
f 306 354 334
f 306 334 304
f 304 334 336
f 304 336 322
f 322 336 338
f 322 338 320
f 320 338 340
f 277 390 279
f 279 390 352
f 279 352 280
f 280 352 374
f 280 374 261
f 261 374 375
f 261 375 262
f 262 375 388
f 262 388 281
f 281 388 387
f 281 387 282
f 282 387 385
f 282 385 284
f 284 385 384
f 284 384 286
f 286 384 407
f 286 407 315
f 315 407 398
f 315 398 293
f 293 398 400
f 293 400 291
f 291 400 402
f 291 402 289
f 289 402 393
f 289 393 254
f 254 393 395
f 254 395 255
f 255 395 379
f 255 379 258
f 258 379 381
f 258 381 296
f 296 381 383
f 296 383 297
f 297 383 422
f 297 422 310
f 310 422 424
f 310 424 311
f 311 424 425
f 311 425 312
f 312 425 428
f 312 428 273
f 273 428 427
f 273 427 274
f 274 427 426
f 274 426 275
f 275 426 392
f 275 392 277
f 277 392 390
f 389 276 350
f 350 276 278
f 350 278 351
f 351 278 260
f 351 260 353
f 353 260 221
f 353 221 376
f 376 221 220
f 376 220 377
f 377 220 246
f 377 246 378
f 378 246 245
f 378 245 328
f 328 245 243
f 328 243 329
f 329 243 242
f 329 242 429
f 429 242 309
f 429 309 430
f 430 309 295
f 430 295 366
f 366 295 294
f 366 294 332
f 332 294 230
f 332 230 333
f 333 230 229
f 333 229 344
f 344 229 238
f 344 238 325
f 325 238 237
f 325 237 326
f 326 237 235
f 326 235 358
f 358 235 241
f 358 241 359
f 359 241 247
f 359 247 360
f 360 247 228
f 360 228 349
f 349 228 227
f 349 227 348
f 348 227 226
f 348 226 346
f 346 226 218
f 346 218 391
f 391 218 217
f 391 217 389
f 389 217 276
