v 0.0982750579 0.0200021443 0.0126146329
v 0.0978890582 0.0200021443 0.0127744925
v 0.0958750172 0.0200021443 0.0162290586
v 0.0959294959 0.0200021443 0.0116431964
v 0.0944750233 0.0200021443 0.0148290647
v 0.0960893555 0.0200021443 0.0120290769
v 0.096343629 0.0200021443 0.0123603595
v 0.0986063405 0.0200021443 -0.00123963232
v 0.0982750579 0.0200021443 -0.000985358906
v 0.182374947 0.0200021443 0.00212898378
v 0.0978890582 0.0200021443 -0.000825499249
v 0.0974750443 0.0200021443 -0.000771020604
v 0.0947385951 0.0200021443 -0.00510737772
v 0.0945955439 0.0200021443 -0.00492093439
v 0.096343629 0.0200021443 -0.00350234385
v 0.0945056601 0.0200021443 -0.00470385428
v 0.0960893555 0.0200021443 -0.00317094202
v 0.0944750233 0.0200021443 -0.00447091932
v 0.0959294959 0.0200021443 -0.00278506155
v 0.185360663 0.0200021443 0.00292899733
v 0.185106389 0.0200021443 0.00326039915
v 0.192305557 0.0200021443 0.0143502009
v 0.0951750203 0.0200021443 0.0160414231
v 0.0970609113 0.0200021443 0.0127744925
v 0.0948851033 0.0200021443 0.0158189786
v 0.0966750308 0.0200021443 0.0126146329
v 0.0946625396 0.0200021443 0.0155290616
v 0.0974750443 0.0200021443 0.0128290904
v 0.095512621 0.0200021443 0.0161813748
v 0.0953750535 0.0200021443 -0.00537094946
v 0.0951421185 0.0200021443 -0.00534031267
v 0.0949250384 0.0200021443 -0.00525042887
v 0.0986063405 0.0200021443 0.0123603595
v 0.190989964 0.0200021443 0.0162290586
v 0.0988606139 0.0200021443 0.0120290769
v 0.0945227071 0.0200021443 0.0151913417
v 0.18317496 0.0200021443 0.000743414211
v 0.1845529 0.0200021443 -0.00137100096
v 0.182843678 0.0200021443 0.000997687626
v 0.103224985 0.0200021443 -0.00137100096
v 0.182589404 0.0200021443 0.00132908945
v 0.0966750308 0.0200021443 -0.00375661726
v 0.0970609113 0.0200021443 -0.00391647692
v 0.0977250262 0.0200021443 -0.00537094946
v 0.0974750443 0.0200021443 -0.00397095556
v 0.0983912869 0.0200021443 -0.00529334421
v 0.0978890582 0.0200021443 -0.00391647692
v 0.0990219041 0.0200021443 -0.00506482
v 0.0982750579 0.0200021443 -0.00375661726
v 0.0995831414 0.0200021443 -0.00469741697
v 0.0986063405 0.0200021443 -0.00350234385
v 0.100044958 0.0200021443 -0.00421092386
v 0.0988606139 0.0200021443 -0.00317094202
v 0.101544969 0.0200021443 -0.00221094961
v 0.0990204736 0.0200021443 -0.00278506155
v 0.10187947 0.0200021443 -0.00185868616
v 0.102285854 0.0200021443 -0.00159273024
v 0.0988606139 0.0200021443 -0.00157091494
v 0.102742545 0.0200021443 -0.00142714853
v 0.0990204736 0.0200021443 -0.00195691462
v 0.0990749522 0.0200021443 -0.00237092848
v 0.183560841 0.0200021443 0.000583554554
v 0.183974974 0.0200021443 0.000529075908
v 0.185254447 0.0200021443 -0.00128481264
v 0.184389107 0.0200021443 0.000583554554
v 0.18591439 0.0200021443 -0.0010314929
v 0.184774987 0.0200021443 0.000743414211
v 0.186493389 0.0200021443 -0.000626062107
v 0.185106389 0.0200021443 0.000997687626
v 0.186957113 0.0200021443 -9.26005367e-05
v 0.185360663 0.0200021443 0.00132908945
v 0.187278025 0.0200021443 0.00053718214
v 0.182429545 0.0200021443 0.00171496992
v 0.185520522 0.0200021443 0.00171496992
v 0.185575001 0.0200021443 0.00212898378
v 0.185520522 0.0200021443 0.00254311686
v 0.182824962 0.0200021443 0.0139209283
v 0.182348601 0.0200021443 0.0135554326
v 0.0986063405 0.0200021443 0.010097648
v 0.096343629 0.0200021443 -0.00123963232
v 0.0960893555 0.0200021443 -0.00157091494
v 0.0959294959 0.0200021443 -0.00195691462
v 0.0958750172 0.0200021443 -0.00237092848
v 0.0958750172 0.0200021443 0.0112290633
v 0.0959294959 0.0200021443 0.0108149302
v 0.0960893555 0.0200021443 0.0104290498
v 0.096343629 0.0200021443 0.010097648
v 0.0966750308 0.0200021443 0.00984337454
v 0.0970609113 0.0200021443 0.00968351488
v 0.0966750308 0.0200021443 -0.000985358906
v 0.182589404 0.0200021443 0.00292899733
v 0.182429545 0.0200021443 0.00254311686
v 0.0974750443 0.0200021443 0.00962903624
v 0.181983106 0.0200021443 0.0130790723
v 0.0978890582 0.0200021443 0.00968351488
v 0.0982750579 0.0200021443 0.00984337454
v 0.184774987 0.0200021443 0.00351467257
v 0.182348601 0.0200021443 0.0103026879
v 0.182824962 0.0200021443 0.00993719225
v 0.183379762 0.0200021443 0.00970735674
v 0.183974974 0.0200021443 0.00962903624
v 0.184570305 0.0200021443 0.00970735674
v 0.0988606139 0.0200021443 0.0104290498
v 0.183974974 0.0200021443 0.0142290843
v 0.183379762 0.0200021443 0.0141506446
v 0.184389107 0.0200021443 0.00367453222
v 0.183974974 0.0200021443 0.00372901087
v 0.181983106 0.0200021443 0.0107790483
v 0.183560841 0.0200021443 0.00367453222
v 0.181753389 0.0200021443 0.0113337291
v 0.18317496 0.0200021443 0.00351467257
v 0.182843678 0.0200021443 0.00326039915
v 0.185124986 0.0200021443 0.00993719225
v 0.185601346 0.0200021443 0.0103026879
v 0.185966842 0.0200021443 0.0107790483
v 0.186196677 0.0200021443 0.0113337291
v 0.18167495 0.0200021443 0.0119290603
v 0.181753389 0.0200021443 0.0125242723
v 0.0970609113 0.0200021443 -0.000825499249
v 0.191913001 0.0200021443 0.0158815635
v 0.192136757 0.0200021443 0.0156320584
v 0.185966842 0.0200021443 0.0130790723
v 0.186274998 0.0200021443 0.0119290603
v 0.186196677 0.0200021443 0.0125242723
v 0.192381613 0.0200021443 0.014676596
v 0.185601346 0.0200021443 0.0135554326
v 0.185124986 0.0200021443 0.0139209283
v 0.184570305 0.0200021443 0.0141506446
v 0.191636436 0.0200021443 0.0160708678
v 0.0990204736 0.0200021443 0.0108149302
v 0.0990749522 0.0200021443 0.0112290633
v 0.0990204736 0.0200021443 0.0116431964
v 0.191322677 0.0200021443 0.016188885
v 0.192294828 0.0200021443 0.0153364194
v 0.192378037 0.0200021443 0.0150118125
v 0.185575001 -0.0199978771 0.00212898378
v 0.187278025 -0.0199978771 0.00053718214
v 0.185520522 -0.0199978771 0.00254311686
v 0.192305557 -0.0199978771 0.0143502009
v 0.185360663 -0.0199978771 0.00292899733
v 0.185106389 -0.0199978771 0.00326039915
v 0.185520522 -0.0199978771 0.00171496992
v 0.185360663 -0.0199978771 0.00132908945
v 0.186957113 -0.0199978771 -9.26005367e-05
v 0.185106389 -0.0199978771 0.000997687626
v 0.186493389 -0.0199978771 -0.000626062107
v 0.18591439 -0.0199978771 -0.0010314929
v 0.184774987 -0.0199978771 0.000743414211
v 0.185254447 -0.0199978771 -0.00128481264
v 0.184389107 -0.0199978771 0.000583554554
v 0.1845529 -0.0199978771 -0.00137100096
v 0.0960893555 -0.0199978771 -0.00317094202
v 0.0959294959 -0.0199978771 -0.00278506155
v 0.0944750233 -0.0199978771 -0.00447091932
v 0.183974974 -0.0199978771 0.000529075908
v 0.183560841 -0.0199978771 0.000583554554
v 0.103224985 -0.0199978771 -0.00137100096
v 0.18317496 -0.0199978771 0.000743414211
v 0.182843678 -0.0199978771 0.000997687626
v 0.0990204736 -0.0199978771 0.0108149302
v 0.0988606139 -0.0199978771 0.0104290498
v 0.0986063405 -0.0199978771 0.010097648
v 0.0945955439 -0.0199978771 -0.00492093439
v 0.0947385951 -0.0199978771 -0.00510737772
v 0.096343629 -0.0199978771 -0.00350234385
v 0.0982750579 -0.0199978771 0.00984337454
v 0.0978890582 -0.0199978771 0.00968351488
v 0.0986063405 -0.0199978771 -0.00123963232
v 0.096343629 -0.0199978771 0.010097648
v 0.0960893555 -0.0199978771 0.0104290498
v 0.0959294959 -0.0199978771 0.0108149302
v 0.0944750233 -0.0199978771 0.0148290647
v 0.0958750172 -0.0199978771 0.0112290633
v 0.0959294959 -0.0199978771 0.0116431964
v 0.0966750308 -0.0199978771 0.0126146329
v 0.0970609113 -0.0199978771 0.0127744925
v 0.0958750172 -0.0199978771 0.0162290586
v 0.183974974 -0.0199978771 0.00962903624
v 0.183379762 -0.0199978771 0.00970735674
v 0.0990749522 -0.0199978771 0.0112290633
v 0.182824962 -0.0199978771 0.00993719225
v 0.182348601 -0.0199978771 0.0103026879
v 0.182429545 -0.0199978771 0.00254311686
v 0.182589404 -0.0199978771 0.00292899733
v 0.182843678 -0.0199978771 0.00326039915
v 0.18317496 -0.0199978771 0.00351467257
v 0.186274998 -0.0199978771 0.0119290603
v 0.186196677 -0.0199978771 0.0113337291
v 0.185966842 -0.0199978771 0.0107790483
v 0.185601346 -0.0199978771 0.0103026879
v 0.184774987 -0.0199978771 0.00351467257
v 0.184389107 -0.0199978771 0.00367453222
v 0.0953750535 -0.0199978771 -0.00537094946
v 0.0977250262 -0.0199978771 -0.00537094946
v 0.0974750443 -0.0199978771 -0.00397095556
v 0.0982750579 -0.0199978771 -0.000985358906
v 0.095512621 -0.0199978771 0.0161813748
v 0.0951750203 -0.0199978771 0.0160414231
v 0.0948851033 -0.0199978771 0.0158189786
v 0.0974750443 -0.0199978771 0.0128290904
v 0.0978890582 -0.0199978771 0.0127744925
v 0.190989964 -0.0199978771 0.0162290586
v 0.0982750579 -0.0199978771 0.0126146329
v 0.0986063405 -0.0199978771 0.0123603595
v 0.182589404 -0.0199978771 0.00132908945
v 0.182429545 -0.0199978771 0.00171496992
v 0.182374947 -0.0199978771 0.00212898378
v 0.0945056601 -0.0199978771 -0.00470385428
v 0.0958750172 -0.0199978771 -0.00237092848
v 0.0959294959 -0.0199978771 -0.00195691462
v 0.0960893555 -0.0199978771 -0.00157091494
v 0.096343629 -0.0199978771 -0.00123963232
v 0.0966750308 -0.0199978771 0.00984337454
v 0.0970609113 -0.0199978771 0.00968351488
v 0.0990204736 -0.0199978771 -0.00195691462
v 0.102742545 -0.0199978771 -0.00142714853
v 0.0988606139 -0.0199978771 -0.00157091494
v 0.0978890582 -0.0199978771 -0.00391647692
v 0.0983912869 -0.0199978771 -0.00529334421
v 0.0982750579 -0.0199978771 -0.00375661726
v 0.0990219041 -0.0199978771 -0.00506482
v 0.0986063405 -0.0199978771 -0.00350234385
v 0.0995831414 -0.0199978771 -0.00469741697
v 0.0988606139 -0.0199978771 -0.00317094202
v 0.100044958 -0.0199978771 -0.00421092386
v 0.0990204736 -0.0199978771 -0.00278506155
v 0.101544969 -0.0199978771 -0.00221094961
v 0.0990749522 -0.0199978771 -0.00237092848
v 0.10187947 -0.0199978771 -0.00185868616
v 0.102285854 -0.0199978771 -0.00159273024
v 0.0960893555 -0.0199978771 0.0120290769
v 0.096343629 -0.0199978771 0.0123603595
v 0.0945227071 -0.0199978771 0.0151913417
v 0.0946625396 -0.0199978771 0.0155290616
v 0.185124986 -0.0199978771 0.00993719225
v 0.184570305 -0.0199978771 0.00970735674
v 0.183974974 -0.0199978771 0.00372901087
v 0.183560841 -0.0199978771 0.00367453222
v 0.0970609113 -0.0199978771 -0.00391647692
v 0.0966750308 -0.0199978771 -0.00375661726
v 0.0951421185 -0.0199978771 -0.00534031267
v 0.0949250384 -0.0199978771 -0.00525042887
v 0.0988606139 -0.0199978771 0.0120290769
v 0.182348601 -0.0199978771 0.0135554326
v 0.0990204736 -0.0199978771 0.0116431964
v 0.181983106 -0.0199978771 0.0130790723
v 0.181753389 -0.0199978771 0.0125242723
v 0.181983106 -0.0199978771 0.0107790483
v 0.181753389 -0.0199978771 0.0113337291
v 0.18167495 -0.0199978771 0.0119290603
v 0.182824962 -0.0199978771 0.0139209283
v 0.183379762 -0.0199978771 0.0141506446
v 0.183974974 -0.0199978771 0.0142290843
v 0.184570305 -0.0199978771 0.0141506446
v 0.192136757 -0.0199978771 0.0156320584
v 0.191913001 -0.0199978771 0.0158815635
v 0.185966842 -0.0199978771 0.0130790723
v 0.0966750308 -0.0199978771 -0.000985358906
v 0.0970609113 -0.0199978771 -0.000825499249
v 0.0974750443 -0.0199978771 0.00962903624
v 0.0974750443 -0.0199978771 -0.000771020604
v 0.0978890582 -0.0199978771 -0.000825499249
v 0.192294828 -0.0199978771 0.0153364194
v 0.185124986 -0.0199978771 0.0139209283
v 0.185601346 -0.0199978771 0.0135554326
v 0.191322677 -0.0199978771 0.016188885
v 0.191636436 -0.0199978771 0.0160708678
v 0.186196677 -0.0199978771 0.0125242723
v 0.192381613 -0.0199978771 0.014676596
v 0.192378037 -0.0199978771 0.0150118125
f 1 2 3
f 4 5 6
f 6 5 7
f 8 9 10
f 10 9 11
f 10 11 12
f 13 14 15
f 15 14 16
f 15 16 17
f 17 16 18
f 17 18 19
f 20 21 22
f 23 24 25
f 25 24 26
f 25 26 27
f 2 28 3
f 3 28 24
f 3 24 29
f 29 24 23
f 30 31 15
f 15 31 32
f 15 32 13
f 1 3 33
f 33 3 34
f 33 34 35
f 7 5 26
f 26 5 36
f 26 36 27
f 37 38 39
f 39 38 40
f 39 40 41
f 15 42 30
f 30 42 43
f 30 43 44
f 44 43 45
f 44 45 46
f 46 45 47
f 46 47 48
f 48 47 49
f 48 49 50
f 50 49 51
f 50 51 52
f 52 51 53
f 52 53 54
f 54 53 55
f 54 55 56
f 56 55 57
f 8 40 58
f 58 40 59
f 58 59 60
f 60 59 57
f 60 57 61
f 61 57 55
f 37 62 38
f 38 62 63
f 38 63 64
f 64 63 65
f 64 65 66
f 66 65 67
f 66 67 68
f 68 67 69
f 68 69 70
f 70 69 71
f 70 71 72
f 8 10 40
f 40 10 73
f 40 73 41
f 71 74 72
f 72 74 75
f 72 75 22
f 22 75 76
f 22 76 20
f 77 78 79
f 80 81 5
f 5 81 82
f 5 82 18
f 18 82 83
f 18 83 19
f 4 84 5
f 5 84 85
f 5 85 80
f 80 85 86
f 80 86 87
f 87 88 80
f 80 88 89
f 80 89 90
f 91 92 93
f 94 95 78
f 78 95 96
f 78 96 79
f 97 98 21
f 21 98 99
f 99 100 21
f 21 100 101
f 21 101 102
f 103 104 79
f 79 104 105
f 79 105 77
f 97 106 98
f 98 106 107
f 98 107 108
f 108 107 109
f 108 109 110
f 110 109 111
f 110 111 112
f 102 113 21
f 21 113 114
f 21 114 22
f 22 114 115
f 22 115 116
f 112 91 110
f 110 91 93
f 110 93 117
f 117 93 95
f 117 95 118
f 118 95 94
f 92 10 93
f 93 10 12
f 93 12 89
f 89 12 119
f 89 119 90
f 120 121 122
f 116 123 22
f 22 123 124
f 22 124 125
f 125 124 122
f 126 127 34
f 34 127 128
f 34 128 104
f 120 122 129
f 103 130 104
f 104 130 131
f 104 131 34
f 34 131 132
f 34 132 35
f 126 34 122
f 122 34 133
f 122 133 129
f 121 134 122
f 122 134 135
f 122 135 125
f 136 137 138
f 138 137 139
f 138 139 140
f 140 139 141
f 136 142 137
f 137 142 143
f 137 143 144
f 144 143 145
f 144 145 146
f 146 145 147
f 147 145 148
f 147 148 149
f 149 148 150
f 149 150 151
f 152 153 154
f 150 155 151
f 151 155 156
f 151 156 157
f 157 156 158
f 157 158 159
f 159 160 157
f 157 160 161
f 157 161 162
f 163 164 165
f 166 167 168
f 169 170 154
f 154 170 171
f 154 171 172
f 172 171 173
f 172 173 174
f 175 176 177
f 178 179 180
f 180 179 181
f 180 181 182
f 183 184 180
f 180 184 185
f 180 185 178
f 178 185 186
f 187 188 139
f 139 188 189
f 139 189 141
f 141 189 190
f 141 190 191
f 191 190 192
f 193 194 195
f 168 167 196
f 177 197 175
f 175 197 198
f 175 198 199
f 176 200 177
f 177 200 201
f 177 201 202
f 202 201 203
f 202 203 204
f 159 205 160
f 160 205 206
f 160 206 180
f 180 206 207
f 180 207 183
f 152 154 165
f 165 154 208
f 165 208 163
f 153 209 154
f 154 209 210
f 154 210 169
f 210 211 169
f 169 211 212
f 169 212 213
f 213 212 214
f 215 216 217
f 217 216 157
f 217 157 168
f 168 157 162
f 168 162 166
f 195 194 218
f 218 194 219
f 218 219 220
f 220 219 221
f 220 221 222
f 222 221 223
f 222 223 224
f 224 223 225
f 224 225 226
f 226 225 227
f 226 227 228
f 228 227 229
f 228 229 215
f 215 229 230
f 215 230 216
f 174 231 172
f 172 231 232
f 172 232 233
f 233 232 175
f 233 175 234
f 234 175 199
f 190 235 192
f 192 235 236
f 192 236 237
f 237 236 178
f 237 178 238
f 238 178 186
f 195 239 193
f 193 239 240
f 193 240 241
f 241 240 165
f 241 165 242
f 242 165 164
f 204 243 244
f 244 243 245
f 244 245 246
f 246 245 247
f 182 248 180
f 180 248 249
f 180 249 245
f 245 249 250
f 245 250 247
f 244 251 204
f 204 251 252
f 204 252 202
f 202 252 253
f 202 253 254
f 255 256 257
f 212 258 214
f 214 258 259
f 214 259 260
f 260 259 261
f 260 261 167
f 167 261 262
f 167 262 196
f 255 257 263
f 254 264 202
f 202 264 265
f 202 265 266
f 266 265 257
f 266 257 267
f 267 257 256
f 187 139 268
f 268 139 269
f 268 269 257
f 257 269 270
f 257 270 263
