v 0.039576766 -0.0354978862 -0.000821724604
v 0.0389347048 -0.0354978862 -0.000373378466
v 0.000359293933 -0.0354978862 -0.00799192495
v 0.0595566006 -0.0354978862 7.63981835e-05
v 0.0588473053 -0.0354978862 -0.000255480479
v 0.0702886553 -0.0354978862 -0.0048486144
v 0.0311851473 -0.0354978862 -0.00072170801
v 0.03809869 -0.0354978862 0.000935301115
v 0.0316336126 -0.0354978862 -7.95275672e-05
v 0.0319005222 -0.0354978862 0.000656709005
v 0.0305858822 -0.0354978862 -0.0012258441
v 0.0384305687 -0.0354978862 0.000225886633
v 0.0303525896 -0.0354978862 0.00396500521
v 0.0309946508 -0.0354978862 0.00351665907
v 0.0695701809 -0.0354978862 0.0111352056
v 0.0382958622 -0.0354978862 0.00322292738
v 0.0387442083 -0.0354978862 0.00386498861
v 0.0318307848 -0.0354978862 0.00220797949
v 0.07160711 -0.0354978862 -0.00262774534
v 0.0704846353 -0.0354978862 -0.00284101076
v 0.0580762596 -0.0354978862 -0.000392451952
v 0.0410933466 -0.0354978862 -0.00115586824
v 0.0403131218 -0.0354978862 -0.0010886342
v 0.0693420143 -0.0354978862 -0.00283791132
v 0.0682207317 -0.0354978862 -0.00261868543
v 0.0671611996 -0.0354978862 -0.00219120092
v 0.0298765869 -0.0354978862 -0.00155772276
v 0.029105422 -0.0354978862 -0.00169469423
v 0.0121226282 -0.0354978862 -0.00245811052
v 0.0113424034 -0.0354978862 -0.00239087648
v 0.0601559849 -0.0354978862 0.000580534269
v 0.060604331 -0.0354978862 0.0012225955
v 0.0662015648 -0.0354978862 -0.00157083578
v 0.0608712406 -0.0354978862 0.00195895128
v 0.00326275539 -0.0354978862 0.00504718714
v 0.00415897083 -0.0354978862 0.00433848791
v 0.009058115 -0.0354978862 0.00118444853
v 0.00490498256 -0.0354978862 0.00347302847
v 0.00547361087 -0.0354978862 0.00248204165
v 0.00584435176 -0.0354978862 0.00140129023
v 0.00899088096 -0.0354978862 0.00040410452
v 0.006003973 -0.0354978862 0.00026987486
v 0.00912785244 -0.0354978862 -0.000366941164
v 0.0319677563 -0.0354978862 0.00143693381
v 0.0379617186 -0.0354978862 0.0017063468
v 0.0380289526 -0.0354978862 0.00248669081
v 0.0393434734 -0.0354978862 0.00436924391
v 0.0314987869 -0.0354978862 0.00291739397
v 0.0056741209 -0.0354978862 -0.00198091574
v 0.00519668769 -0.0354978862 -0.00301899023
v 0.00945985031 -0.0354978862 -0.00107623644
v 0.00453149986 -0.0354978862 -0.00394786901
v 0.0110820503 -0.0354978862 0.00339888029
v 0.0118532152 -0.0354978862 0.00353585177
v -0.000359180455 -0.0354978862 0.00799189501
v 0.028836009 -0.0354978862 0.00429926806
v 0.029616353 -0.0354978862 0.00423191481
v 0.00594651413 -0.0354978862 -0.000871196459
v 0.0647165747 -0.0354978862 0.000152334501
v 0.0642447443 -0.0354978862 0.00119291239
v 0.0609384747 -0.0354978862 0.00273917608
v 0.0639783115 -0.0354978862 0.00230394297
v 0.0608015032 -0.0354978862 0.00351022177
v 0.071599123 -0.0354978862 -0.0046804101
v 0.072864172 -0.0354978862 -0.00429894037
v 0.0726690264 -0.0354978862 -0.00220598287
v 0.0740491123 -0.0354978862 -0.00371433801
v 0.0736318798 -0.0354978862 -0.00159074373
v 0.0751216383 -0.0354978862 -0.00294281549
v 0.0744608612 -0.0354978862 -0.000804558466
v 0.0760525436 -0.0354978862 -0.00200511522
v 0.0751261682 -0.0354978862 0.000124439527
v 0.0768164368 -0.0354978862 -0.000927105616
v 0.0756036015 -0.0354978862 0.00116239481
v 0.0773924561 -0.0354978862 0.000262007047
v 0.0758758755 -0.0354978862 0.00227211409
v 0.0777649851 -0.0354978862 0.00152967863
v 0.0759333343 -0.0354978862 0.00341318541
v 0.0400528879 -0.0354978862 0.00470112257
v 0.0408239336 -0.0354978862 0.00483809405
v 0.0578067274 -0.0354978862 0.00560139113
v 0.0585870714 -0.0354978862 0.00553415709
v 0.0666936607 -0.0354978862 0.00820790224
v 0.0677106352 -0.0354978862 0.00872884684
v 0.0653767557 -0.0354978862 -0.000780239771
v 1.60903888e-05 -0.0354978862 0.00600992136
v -0.00112152386 -0.0354978862 0.00590442114
v -0.00166976738 -0.0354978862 0.00782380991
v -0.00221872616 -0.0354978862 0.00558541708
v -0.00293469716 -0.0354978862 0.00744222098
v -0.00323570061 -0.0354978862 0.0050645917
v -0.00411963749 -0.0354978862 0.00685773783
v -0.00413573075 -0.0354978862 0.00436078005
v -0.00519228268 -0.0354978862 0.0060860961
v -0.00488627243 -0.0354978862 0.00349925451
v 0.0011532278 -0.0354978862 0.00589834147
v 0.00224864196 -0.0354978862 0.00557349615
v 0.0639269323 -0.0354978862 0.00344537192
v 0.0640926332 -0.0354978862 0.00457583361
v 0.0604696245 -0.0354978862 0.00421963625
v 0.0644692154 -0.0354978862 0.00565467768
v 0.0650430889 -0.0354978862 0.00664256506
v 0.0093250246 -0.0354978862 0.0019206851
v 0.00977348995 -0.0354978862 0.00256274634
v 0.010372755 -0.0354978862 0.00306700163
v 0.059323308 -0.0354978862 0.00526724749
v 0.0599653692 -0.0354978862 0.00481890135
v 0.0657936306 -0.0354978862 0.0075040906
v 0.00273966503 -0.0354978862 -0.00534929342
v 0.00167774868 -0.0354978862 -0.00577105589
v 0.000555274005 -0.0354978862 -0.00598432131
v -0.000961068158 -0.0354978862 -0.00794209547
v -0.000587347035 -0.0354978862 -0.00598122187
v -0.0022552042 -0.0354978862 -0.0076755435
v -0.00170862961 -0.0354978862 -0.00576199598
v -0.00348782826 -0.0354978862 -0.00719966001
v -0.00276828099 -0.0354978862 -0.00533451147
v -0.00462520409 -0.0354978862 -0.00652743883
v -0.00372779656 -0.0354978862 -0.00471414633
v -0.0056365757 -0.0354978862 -0.00567711897
v -0.00455260563 -0.0354978862 -0.00392355032
v -0.00649404812 -0.0354978862 -0.00467194624
v -0.00521290589 -0.0354978862 -0.00299109526
v 0.0106060476 -0.0354978862 -0.00212396688
v 0.00996398639 -0.0354978862 -0.00167562075
v 0.00370251846 -0.0354978862 -0.00473417349
v -0.00612318802 -0.0354978862 0.00514851504
v -0.00688708115 -0.0354978862 0.00407038622
v -0.00546014595 -0.0354978862 0.00251124792
v -0.00746310044 -0.0354978862 0.00288139277
v -0.0058367281 -0.0354978862 0.00143252306
v -0.00783551026 -0.0354978862 0.00161360197
v -0.00600242901 -0.0354978862 0.000302061369
v -0.00799429703 -0.0354978862 0.000301942159
v -0.00595104981 -0.0354978862 -0.000839367579
v -0.00793493081 -0.0354978862 -0.00101794309
v -0.00568473626 -0.0354978862 -0.00195039816
v -0.00765919972 -0.0354978862 -0.00231017179
v -0.00717449475 -0.0354978862 -0.00353933878
v 0.0688078375 -0.0354978862 0.00904773169
v 0.0699454517 -0.0354978862 0.00915335112
v 0.0708904238 -0.0354978862 0.0110853761
v 0.0710825891 -0.0354978862 0.00904165201
v 0.0721845598 -0.0354978862 0.0108188241
v 0.0721780033 -0.0354978862 0.0087168067
v 0.0779236526 -0.0354978862 0.00284133845
v 0.0778644056 -0.0354978862 0.00416134291
v 0.0757737131 -0.0354978862 0.00454460077
v 0.0775885553 -0.0354978862 0.0054534524
v 0.0754029722 -0.0354978862 0.00562535219
v 0.0771038504 -0.0354978862 0.00668261938
v 0.0748343439 -0.0354978862 0.00661633902
v 0.0764235229 -0.0354978862 0.00781522684
v 0.0740884514 -0.0354978862 0.00748179846
v 0.0755659313 -0.0354978862 0.00882039957
v 0.0731922359 -0.0354978862 0.00819049769
v 0.0745546789 -0.0354978862 0.00967071943
v 0.0734171839 -0.0354978862 0.0103430598
v 0.0393434734 -0.0289978805 0.00436924391
v 0.0387442083 -0.0289978805 0.00386498861
v -0.000359180455 -0.0289978805 0.00799189501
v 0.0305858822 -0.0289978805 -0.0012258441
v 0.0311851473 -0.0289978805 -0.00072170801
v 0.0702886553 -0.0289978805 -0.0048486144
v 0.00519668769 -0.0289978805 -0.00301899023
v 0.00912785244 -0.0289978805 -0.000366941164
v 0.00453149986 -0.0289978805 -0.00394786901
v 0.00370251846 -0.0289978805 -0.00473417349
v 0.0318307848 -0.0289978805 0.00220797949
v 0.0314987869 -0.0289978805 0.00291739397
v 0.0309946508 -0.0289978805 0.00351665907
v 0.0303525896 -0.0289978805 0.00396500521
v 0.0382958622 -0.0289978805 0.00322292738
v 0.0380289526 -0.0289978805 0.00248669081
v 0.0319677563 -0.0289978805 0.00143693381
v 0.0379617186 -0.0289978805 0.0017063468
v 0.0319005222 -0.0289978805 0.000656709005
v 0.03809869 -0.0289978805 0.000935301115
v 0.0316336126 -0.0289978805 -7.95275672e-05
v 0.0384305687 -0.0289978805 0.000225886633
v 0.0389347048 -0.0289978805 -0.000373378466
v 0.039576766 -0.0289978805 -0.000821724604
v 0.00490498256 -0.0289978805 0.00347302847
v 0.00415897083 -0.0289978805 0.00433848791
v 0.0093250246 -0.0289978805 0.0019206851
v 0.0113424034 -0.0289978805 -0.00239087648
v 0.0121226282 -0.0289978805 -0.00245811052
v 0.000359293933 -0.0289978805 -0.00799192495
v 0.029105422 -0.0289978805 -0.00169469423
v 0.0298765869 -0.0289978805 -0.00155772276
v 0.029616353 -0.0289978805 0.00423191481
v 0.028836009 -0.0289978805 0.00429926806
v 0.0118532152 -0.0289978805 0.00353585177
v 0.0110820503 -0.0289978805 0.00339888029
v 0.0056741209 -0.0289978805 -0.00198091574
v 0.00594651413 -0.0289978805 -0.000871196459
v 0.00899088096 -0.0289978805 0.00040410452
v 0.006003973 -0.0289978805 0.00026987486
v 0.009058115 -0.0289978805 0.00118444853
v 0.00584435176 -0.0289978805 0.00140129023
v 0.00547361087 -0.0289978805 0.00248204165
v 0.000555274005 -0.0289978805 -0.00598432131
v -0.000587347035 -0.0289978805 -0.00598122187
v -0.000961068158 -0.0289978805 -0.00794209547
v -0.00170862961 -0.0289978805 -0.00576199598
v -0.0022552042 -0.0289978805 -0.0076755435
v -0.00276828099 -0.0289978805 -0.00533451147
v -0.00348782826 -0.0289978805 -0.00719966001
v -0.00372779656 -0.0289978805 -0.00471414633
v -0.00462520409 -0.0289978805 -0.00652743883
v -0.00455260563 -0.0289978805 -0.00392355032
v 0.0585870714 -0.0289978805 0.00553415709
v 0.0695701809 -0.0289978805 0.0111352056
v 0.059323308 -0.0289978805 0.00526724749
v 0.0599653692 -0.0289978805 0.00481890135
v 0.0403131218 -0.0289978805 -0.0010886342
v 0.0410933466 -0.0289978805 -0.00115586824
v 0.0580762596 -0.0289978805 -0.000392451952
v 0.0588473053 -0.0289978805 -0.000255480479
v 0.0639269323 -0.0289978805 0.00344537192
v 0.0639783115 -0.0289978805 0.00230394297
v 0.0609384747 -0.0289978805 0.00273917608
v 0.010372755 -0.0289978805 0.00306700163
v 0.00977348995 -0.0289978805 0.00256274634
v 0.00224864196 -0.0289978805 0.00557349615
v 0.00326275539 -0.0289978805 0.00504718714
v -0.0056365757 -0.0289978805 -0.00567711897
v -0.00649404812 -0.0289978805 -0.00467194624
v -0.00521290589 -0.0289978805 -0.00299109526
v -0.00717449475 -0.0289978805 -0.00353933878
v -0.00568473626 -0.0289978805 -0.00195039816
v -0.00765919972 -0.0289978805 -0.00231017179
v -0.00595104981 -0.0289978805 -0.000839367579
v -0.00793493081 -0.0289978805 -0.00101794309
v -0.00600242901 -0.0289978805 0.000302061369
v -0.00799429703 -0.0289978805 0.000301942159
v -0.0058367281 -0.0289978805 0.00143252306
v -0.00783551026 -0.0289978805 0.00161360197
v -0.00546014595 -0.0289978805 0.00251124792
v 0.00167774868 -0.0289978805 -0.00577105589
v 0.00273966503 -0.0289978805 -0.00534929342
v 0.0578067274 -0.0289978805 0.00560139113
v 0.0408239336 -0.0289978805 0.00483809405
v 0.0400528879 -0.0289978805 0.00470112257
v 0.00945985031 -0.0289978805 -0.00107623644
v 0.00996398639 -0.0289978805 -0.00167562075
v 0.0106060476 -0.0289978805 -0.00212396688
v 0.0671611996 -0.0289978805 -0.00219120092
v 0.0682207317 -0.0289978805 -0.00261868543
v 0.0011532278 -0.0289978805 0.00589834147
v 1.60903888e-05 -0.0289978805 0.00600992136
v -0.00166976738 -0.0289978805 0.00782380991
v -0.00112152386 -0.0289978805 0.00590442114
v -0.00293469716 -0.0289978805 0.00744222098
v -0.00221872616 -0.0289978805 0.00558541708
v -0.00411963749 -0.0289978805 0.00685773783
v -0.00323570061 -0.0289978805 0.0050645917
v -0.00519228268 -0.0289978805 0.0060860961
v -0.00413573075 -0.0289978805 0.00436078005
v -0.00612318802 -0.0289978805 0.00514851504
v -0.00488627243 -0.0289978805 0.00349925451
v -0.00688708115 -0.0289978805 0.00407038622
v -0.00746310044 -0.0289978805 0.00288139277
v 0.0608712406 -0.0289978805 0.00195895128
v 0.0642447443 -0.0289978805 0.00119291239
v 0.060604331 -0.0289978805 0.0012225955
v 0.0647165747 -0.0289978805 0.000152334501
v 0.0653767557 -0.0289978805 -0.000780239771
v 0.0595566006 -0.0289978805 7.63981835e-05
v 0.0601559849 -0.0289978805 0.000580534269
v 0.0662015648 -0.0289978805 -0.00157083578
v 0.0677106352 -0.0289978805 0.00872884684
v 0.0666936607 -0.0289978805 0.00820790224
v 0.0693420143 -0.0289978805 -0.00283791132
v 0.0704846353 -0.0289978805 -0.00284101076
v 0.071599123 -0.0289978805 -0.0046804101
v 0.07160711 -0.0289978805 -0.00262774534
v 0.072864172 -0.0289978805 -0.00429894037
v 0.0726690264 -0.0289978805 -0.00220598287
v 0.0757737131 -0.0289978805 0.00454460077
v 0.0778644056 -0.0289978805 0.00416134291
v 0.0759333343 -0.0289978805 0.00341318541
v 0.0779236526 -0.0289978805 0.00284133845
v 0.0758758755 -0.0289978805 0.00227211409
v 0.0777649851 -0.0289978805 0.00152967863
v 0.0756036015 -0.0289978805 0.00116239481
v 0.0773924561 -0.0289978805 0.000262007047
v 0.0751261682 -0.0289978805 0.000124439527
v 0.0768164368 -0.0289978805 -0.000927105616
v 0.0744608612 -0.0289978805 -0.000804558466
v 0.0760525436 -0.0289978805 -0.00200511522
v 0.0736318798 -0.0289978805 -0.00159074373
v 0.0751216383 -0.0289978805 -0.00294281549
v 0.0740491123 -0.0289978805 -0.00371433801
v 0.0657936306 -0.0289978805 0.0075040906
v 0.0650430889 -0.0289978805 0.00664256506
v 0.0710825891 -0.0289978805 0.00904165201
v 0.0699454517 -0.0289978805 0.00915335112
v 0.0688078375 -0.0289978805 0.00904773169
v 0.0608015032 -0.0289978805 0.00351022177
v 0.0604696245 -0.0289978805 0.00421963625
v 0.0640926332 -0.0289978805 0.00457583361
v 0.0644692154 -0.0289978805 0.00565467768
v 0.0708904238 -0.0289978805 0.0110853761
v 0.0721845598 -0.0289978805 0.0108188241
v 0.0721780033 -0.0289978805 0.0087168067
v 0.0734171839 -0.0289978805 0.0103430598
v 0.0731922359 -0.0289978805 0.00819049769
v 0.0745546789 -0.0289978805 0.00967071943
v 0.0740884514 -0.0289978805 0.00748179846
v 0.0755659313 -0.0289978805 0.00882039957
v 0.0748343439 -0.0289978805 0.00661633902
v 0.0764235229 -0.0289978805 0.00781522684
v 0.0754029722 -0.0289978805 0.00562535219
v 0.0771038504 -0.0289978805 0.00668261938
v 0.0775885553 -0.0289978805 0.0054534524
f 1 2 3
f 4 5 6
f 7 8 9
f 9 8 10
f 11 2 7
f 7 2 12
f 7 12 8
f 13 14 15
f 16 17 18
f 19 20 6
f 5 21 6
f 6 21 22
f 6 22 3
f 3 22 23
f 3 23 1
f 20 24 6
f 6 24 25
f 6 25 26
f 11 27 2
f 2 27 28
f 2 28 3
f 3 28 29
f 3 29 30
f 4 6 31
f 31 6 26
f 31 26 32
f 32 26 33
f 32 33 34
f 35 36 37
f 37 36 38
f 38 39 37
f 37 39 40
f 37 40 41
f 41 40 42
f 41 42 43
f 10 8 44
f 44 8 45
f 44 45 18
f 18 45 46
f 18 46 16
f 47 14 17
f 17 14 48
f 17 48 18
f 49 50 51
f 51 50 52
f 53 54 55
f 55 54 56
f 55 56 15
f 15 56 57
f 15 57 13
f 43 42 51
f 51 42 58
f 51 58 49
f 59 60 61
f 61 60 62
f 61 62 63
f 6 64 19
f 19 64 65
f 19 65 66
f 66 65 67
f 66 67 68
f 68 67 69
f 68 69 70
f 70 69 71
f 70 71 72
f 72 71 73
f 72 73 74
f 74 73 75
f 74 75 76
f 76 75 77
f 76 77 78
f 47 79 14
f 14 79 80
f 14 80 15
f 15 80 81
f 15 81 82
f 83 84 15
f 34 33 61
f 61 33 85
f 61 85 59
f 86 55 87
f 87 55 88
f 87 88 89
f 89 88 90
f 89 90 91
f 91 90 92
f 91 92 93
f 93 92 94
f 93 94 95
f 86 96 55
f 55 96 97
f 55 97 35
f 62 98 63
f 63 98 99
f 63 99 100
f 100 99 101
f 100 101 102
f 37 103 35
f 35 103 104
f 35 104 55
f 55 104 105
f 55 105 53
f 82 106 15
f 15 106 107
f 15 107 83
f 83 107 100
f 83 100 108
f 108 100 102
f 109 110 3
f 3 110 111
f 3 111 112
f 112 111 113
f 112 113 114
f 114 113 115
f 114 115 116
f 116 115 117
f 116 117 118
f 118 117 119
f 118 119 120
f 120 119 121
f 120 121 122
f 122 121 123
f 30 124 3
f 3 124 125
f 3 125 109
f 109 125 51
f 109 51 126
f 126 51 52
f 94 127 95
f 95 127 128
f 95 128 129
f 129 128 130
f 129 130 131
f 131 130 132
f 131 132 133
f 133 132 134
f 133 134 135
f 135 134 136
f 135 136 137
f 137 136 138
f 137 138 123
f 123 138 139
f 123 139 122
f 84 140 15
f 15 140 141
f 15 141 142
f 142 141 143
f 142 143 144
f 144 143 145
f 77 146 78
f 78 146 147
f 78 147 148
f 148 147 149
f 148 149 150
f 150 149 151
f 150 151 152
f 152 151 153
f 152 153 154
f 154 153 155
f 154 155 156
f 156 155 157
f 156 157 145
f 145 157 158
f 145 158 144
f 159 160 161
f 162 163 164
f 165 166 167
f 167 166 168
f 169 170 160
f 160 170 171
f 160 171 172
f 160 173 169
f 169 173 174
f 169 174 175
f 175 174 176
f 175 176 177
f 177 176 178
f 177 178 179
f 179 178 163
f 178 180 163
f 163 180 181
f 163 181 182
f 183 184 185
f 186 187 188
f 188 187 189
f 188 189 164
f 164 189 190
f 164 190 162
f 172 191 160
f 160 191 192
f 160 192 161
f 161 192 193
f 161 193 194
f 165 195 166
f 166 195 196
f 166 196 197
f 197 196 198
f 197 198 199
f 199 198 200
f 199 200 185
f 185 200 201
f 185 201 183
f 202 188 203
f 203 188 204
f 203 204 205
f 205 204 206
f 205 206 207
f 207 206 208
f 207 208 209
f 209 208 210
f 209 210 211
f 212 213 214
f 214 213 215
f 182 216 163
f 163 216 217
f 163 217 164
f 164 217 218
f 164 218 219
f 220 221 222
f 194 223 161
f 161 223 224
f 161 224 225
f 225 224 185
f 225 185 226
f 226 185 184
f 210 227 211
f 211 227 228
f 211 228 229
f 229 228 230
f 229 230 231
f 231 230 232
f 231 232 233
f 233 232 234
f 233 234 235
f 235 234 236
f 235 236 237
f 237 236 238
f 237 238 239
f 202 240 188
f 188 240 241
f 188 241 168
f 212 242 213
f 213 242 243
f 213 243 161
f 161 243 244
f 161 244 159
f 166 245 168
f 168 245 246
f 168 246 188
f 188 246 247
f 188 247 186
f 248 249 164
f 225 250 161
f 161 250 251
f 161 251 252
f 252 251 253
f 252 253 254
f 254 253 255
f 254 255 256
f 256 255 257
f 256 257 258
f 258 257 259
f 258 259 260
f 260 259 261
f 260 261 262
f 262 261 239
f 262 239 263
f 263 239 238
f 222 221 264
f 264 221 265
f 264 265 266
f 266 265 267
f 266 267 268
f 219 269 164
f 164 269 270
f 164 270 248
f 248 270 266
f 248 266 271
f 271 266 268
f 272 273 213
f 249 274 164
f 164 274 275
f 164 275 276
f 276 275 277
f 276 277 278
f 278 277 279
f 280 281 282
f 282 281 283
f 282 283 284
f 284 283 285
f 284 285 286
f 286 285 287
f 286 287 288
f 288 287 289
f 288 289 290
f 290 289 291
f 290 291 292
f 292 291 293
f 292 293 279
f 279 293 294
f 279 294 278
f 213 273 215
f 215 273 295
f 215 295 296
f 297 298 213
f 213 298 299
f 213 299 272
f 222 300 220
f 220 300 301
f 220 301 302
f 302 301 215
f 302 215 303
f 303 215 296
f 213 304 297
f 297 304 305
f 297 305 306
f 306 305 307
f 306 307 308
f 308 307 309
f 308 309 310
f 310 309 311
f 310 311 312
f 312 311 313
f 312 313 314
f 314 313 315
f 314 315 280
f 280 315 316
f 280 316 281
f 55 161 252
f 55 252 88
f 88 252 254
f 88 254 90
f 90 254 256
f 90 256 92
f 92 256 258
f 92 258 94
f 94 258 260
f 94 260 127
f 127 260 262
f 127 262 128
f 128 262 263
f 128 263 130
f 130 263 238
f 130 238 132
f 132 238 236
f 132 236 134
f 134 236 234
f 134 234 136
f 136 234 232
f 136 232 138
f 138 232 230
f 138 230 139
f 139 230 228
f 139 228 122
f 122 228 227
f 122 227 120
f 120 227 210
f 120 210 118
f 118 210 208
f 118 208 116
f 116 208 206
f 116 206 114
f 114 206 204
f 114 204 112
f 112 204 188
f 112 188 3
f 6 3 164
f 164 3 188
f 6 164 276
f 6 276 64
f 64 276 278
f 64 278 65
f 65 278 294
f 65 294 67
f 67 294 293
f 67 293 69
f 69 293 291
f 69 291 71
f 71 291 289
f 71 289 73
f 73 289 287
f 73 287 75
f 75 287 285
f 75 285 77
f 77 285 283
f 77 283 146
f 146 283 281
f 146 281 147
f 147 281 316
f 147 316 149
f 149 316 315
f 149 315 151
f 151 315 313
f 151 313 153
f 153 313 311
f 153 311 155
f 155 311 309
f 155 309 157
f 157 309 307
f 157 307 158
f 158 307 305
f 158 305 144
f 144 305 304
f 144 304 142
f 142 304 213
f 142 213 15
f 55 15 161
f 161 15 213
f 243 80 244
f 244 80 79
f 244 79 159
f 159 79 47
f 159 47 160
f 160 47 17
f 160 17 173
f 173 17 16
f 173 16 174
f 174 16 46
f 174 46 176
f 176 46 45
f 176 45 178
f 178 45 8
f 178 8 180
f 180 8 12
f 180 12 181
f 181 12 2
f 181 2 182
f 182 2 1
f 182 1 216
f 216 1 23
f 216 23 217
f 217 23 22
f 80 243 81
f 81 243 242
f 218 21 219
f 219 21 5
f 219 5 269
f 269 5 4
f 269 4 270
f 270 4 31
f 270 31 266
f 266 31 32
f 266 32 264
f 264 32 34
f 264 34 222
f 222 34 61
f 222 61 300
f 300 61 63
f 300 63 301
f 301 63 100
f 301 100 215
f 215 100 107
f 215 107 214
f 214 107 106
f 214 106 212
f 212 106 82
f 212 82 242
f 242 82 81
f 21 218 22
f 22 218 217
f 193 54 194
f 194 54 53
f 194 53 223
f 223 53 105
f 223 105 224
f 224 105 104
f 224 104 185
f 185 104 103
f 185 103 199
f 199 103 37
f 199 37 197
f 197 37 41
f 197 41 166
f 166 41 43
f 166 43 245
f 245 43 51
f 245 51 246
f 246 51 125
f 246 125 247
f 247 125 124
f 247 124 186
f 186 124 30
f 186 30 187
f 187 30 29
f 54 193 56
f 56 193 192
f 189 28 190
f 190 28 27
f 190 27 162
f 162 27 11
f 162 11 163
f 163 11 7
f 163 7 179
f 179 7 9
f 179 9 177
f 177 9 10
f 177 10 175
f 175 10 44
f 175 44 169
f 169 44 18
f 169 18 170
f 170 18 48
f 170 48 171
f 171 48 14
f 171 14 172
f 172 14 13
f 172 13 191
f 191 13 57
f 191 57 192
f 192 57 56
f 28 189 29
f 29 189 187
f 282 78 280
f 280 78 148
f 280 148 314
f 314 148 150
f 314 150 312
f 312 150 152
f 312 152 310
f 310 152 154
f 310 154 308
f 308 154 156
f 308 156 306
f 306 156 145
f 306 145 297
f 297 145 143
f 297 143 298
f 298 143 141
f 298 141 299
f 299 141 140
f 299 140 272
f 272 140 84
f 272 84 273
f 273 84 83
f 273 83 295
f 295 83 108
f 295 108 296
f 296 108 102
f 296 102 303
f 303 102 101
f 303 101 302
f 302 101 99
f 302 99 220
f 220 99 98
f 220 98 221
f 221 98 62
f 221 62 265
f 265 62 60
f 265 60 267
f 267 60 59
f 267 59 268
f 268 59 85
f 268 85 271
f 271 85 33
f 271 33 248
f 248 33 26
f 248 26 249
f 249 26 25
f 249 25 274
f 274 25 24
f 274 24 275
f 275 24 20
f 275 20 277
f 277 20 19
f 277 19 279
f 279 19 66
f 279 66 292
f 292 66 68
f 292 68 290
f 290 68 70
f 290 70 288
f 288 70 72
f 288 72 286
f 286 72 74
f 286 74 284
f 284 74 76
f 284 76 282
f 282 76 78
f 198 42 200
f 200 42 40
f 200 40 201
f 201 40 39
f 201 39 183
f 183 39 38
f 183 38 184
f 184 38 36
f 184 36 226
f 226 36 35
f 226 35 225
f 225 35 97
f 225 97 250
f 250 97 96
f 250 96 251
f 251 96 86
f 251 86 253
f 253 86 87
f 253 87 255
f 255 87 89
f 255 89 257
f 257 89 91
f 257 91 259
f 259 91 93
f 259 93 261
f 261 93 95
f 261 95 239
f 239 95 129
f 239 129 237
f 237 129 131
f 237 131 235
f 235 131 133
f 235 133 233
f 233 133 135
f 233 135 231
f 231 135 137
f 231 137 229
f 229 137 123
f 229 123 211
f 211 123 121
f 211 121 209
f 209 121 119
f 209 119 207
f 207 119 117
f 207 117 205
f 205 117 115
f 205 115 203
f 203 115 113
f 203 113 202
f 202 113 111
f 202 111 240
f 240 111 110
f 240 110 241
f 241 110 109
f 241 109 168
f 168 109 126
f 168 126 167
f 167 126 52
f 167 52 165
f 165 52 50
f 165 50 195
f 195 50 49
f 195 49 196
f 196 49 58
f 196 58 198
f 198 58 42
