v 0.00195290679 -0.0269978466 -0.0276271825
v -0.000429252447 -0.0269978466 -0.0217597013
v -0.0022495783 -0.0269978466 -0.0224987988
v 0.0127783024 -0.0269978466 -0.00326104212
v 0.012570759 -0.0269978466 -0.00313932943
v 0.0108257734 -0.0269978466 -0.00384779024
v 0.0124349796 -0.0269978466 -0.00305957842
v 0.0121554338 -0.0269978466 -0.00277609873
v 0.0119587385 -0.0269978466 -0.00242991495
v 0.0118584835 -0.0269978466 -0.00204463053
v 0.00795271033 -0.0269978466 0.00322871161
v 0.0118612253 -0.0269978466 -0.00164659071
v 0.0119669639 -0.0269978466 -0.0012627368
v 0.0131833755 -0.0269978466 -0.000342917918
v 0.0135814154 -0.0269978466 -0.000345778941
v 0.0135351621 -0.0269978466 0.00549523783
v 0.0139652693 -0.0269978466 -0.000451517581
v 0.014308592 -0.0269978466 -0.00065298128
v 0.0121684276 -0.0269978466 -0.000919414042
v 0.0124519073 -0.0269978466 -0.000639868258
v 0.0127980911 -0.0269978466 -0.00044329214
v 0.0148850881 -0.0269978466 -0.00166780996
v 0.0161994898 -0.0269978466 -0.00166602182
v 0.0147847139 -0.0269978466 -0.00128264475
v 0.0161349975 -0.0269978466 -0.000908446788
v 0.0145881378 -0.0269978466 -0.000936460971
v 0.0164201462 -0.0269978466 -0.00426120806
v 0.0145750248 -0.0269978466 -0.00279314566
v 0.0142915451 -0.0269978466 -0.00307257223
v 0.0148823463 -0.0269978466 -0.00206596899
v 0.0148403847 -0.0269978466 -0.00221784162
v 0.0147766077 -0.0269978466 -0.00244970369
v 0.0139454805 -0.0269978466 -0.00326926756
v 0.0135601961 -0.0269978466 -0.00336952257
v 0.0117614471 -0.0269978466 -0.00615258264
v 0.0131620371 -0.0269978466 -0.00336678076
v -0.00923035508 -0.0269978466 -0.0118554358
v -0.00950978166 -0.0269978466 -0.0115719562
v -0.0104534424 -0.0269978466 -0.0124870067
v -0.00970647699 -0.0269978466 -0.0112258916
v -0.0123758114 -0.0269978466 -0.0101409678
v -0.00795278913 -0.0269978466 -0.0032287364
v -0.00848183996 -0.0269978466 -0.00913889456
v -0.00808380014 -0.0269978466 -0.00914163637
v -0.00688050157 -0.0269978466 -0.0100785022
v -0.00678012735 -0.0269978466 -0.0104637866
v -0.00507972604 -0.0269978466 -0.0103052382
v -0.00678298837 -0.0269978466 -0.0108618264
v -0.00682483083 -0.0269978466 -0.0110136991
v -0.009806732 -0.0269978466 -0.0108406072
v -0.00980399019 -0.0269978466 -0.0104424481
v -0.013541559 -0.0269978466 -0.00852198648
v -0.00969825155 -0.0269978466 -0.0100587134
v -0.0144969023 -0.0269978466 -0.0067705636
v -0.00949678785 -0.0269978466 -0.00971527147
v -0.0147968329 -0.0269978466 -0.00600738573
v -0.00921330816 -0.0269978466 -0.0094358449
v -0.00886712438 -0.0269978466 -0.00923914957
v -0.00769994623 -0.0269978466 -0.00924737501
v -0.00735662347 -0.0269978466 -0.00944883871
v -0.00707707769 -0.0269978466 -0.0097323184
v -0.00880275136 -0.0269978466 -0.0145015244
v -0.00771973497 -0.0269978466 -0.012065125
v -0.00810501939 -0.0269978466 -0.0121654992
v -0.00688872701 -0.0269978466 -0.0112456803
v -0.00709019071 -0.0269978466 -0.0115890031
v -0.00414393312 -0.0269978466 -0.0126100307
v -0.0073736704 -0.0269978466 -0.0118685489
v -0.00850317842 -0.0269978466 -0.0121626382
v -0.00888691312 -0.0269978466 -0.0120568995
v -0.00909445649 -0.0269978466 -0.0119351869
v 0.00334241027 -0.0269978466 -0.0202284579
v 0.00396873587 -0.0269978466 -0.0300873046
v 0.00498523348 -0.0269978466 -0.0311206107
v 0.00617136592 -0.0269978466 -0.031953526
v 0.00748839015 -0.0269978466 -0.0325587516
v 0.00844754809 -0.0269978466 -0.0328030114
v -0.0121553934 -0.0269978466 0.00277607393
v -0.010825733 -0.0269978466 0.00384776545
v -0.0124349392 -0.0269978466 0.00305955362
v -0.0125708378 -0.0269978466 0.00313930464
v -0.0119588173 -0.0269978466 0.00242989016
v -0.0118584431 -0.0269978466 0.00204460573
v -0.0118613041 -0.0269978466 0.00164656592
v -0.0119670427 -0.0269978466 0.001262712
v -0.0121685064 -0.0269978466 0.000919389249
v -0.0124519861 -0.0269978466 0.000639843465
v -0.0127981699 -0.0269978466 0.000443267346
v -0.0131833351 -0.0269978466 0.000342893125
v -0.0135814942 -0.0269978466 0.000345754148
v -0.0159686602 -0.0269978466 -0.00100107241
v -0.0157199896 -0.0269978466 -0.00298054266
v -0.0139652289 -0.0269978466 0.000451492787
v -0.0152268208 -0.0269978466 -0.00491375971
v -0.0148850477 -0.0269978466 0.00166778517
v -0.0158680475 -0.0269978466 0.00180058432
v -0.0147847927 -0.0269978466 0.00128261995
v -0.015969137 -0.0269978466 0.000994014264
v -0.0145880974 -0.0269978466 0.000936436177
v -0.0143086708 -0.0269978466 0.000652956487
v -0.0148823059 -0.0269978466 0.0020659442
v -0.0148404635 -0.0269978466 0.00221781683
v -0.0157211817 -0.0269978466 0.00297372294
v -0.0147765673 -0.0269978466 0.00244979811
v -0.0145751036 -0.0269978466 0.00279312086
v -0.0152749813 -0.0269978466 0.00472609949
v -0.0142916239 -0.0269978466 0.00307266665
v -0.0139454401 -0.0269978466 0.00326924276
v -0.0135601557 -0.0269978466 0.00336961699
v -0.0117615259 -0.0269978466 0.00615255785
v -0.0131621159 -0.0269978466 0.00336675596
v -0.012778262 -0.0269978466 0.00326101732
v -0.0144998825 -0.0269978466 0.00676422072
v -0.0135453737 -0.0269978466 0.00851612043
v -0.0130184687 -0.0269978466 0.00924854231
v -0.0152289665 -0.0269978466 0.00490705919
v -0.0123802221 -0.0269978466 0.0101355786
v -0.00798974401 -0.0269978466 0.00768380118
v -0.0110225475 -0.0269978466 0.0115975614
v -0.00762162572 -0.0269978466 0.0140543456
v -0.00781689054 -0.0269978466 0.0139605279
v -0.00545332795 -0.0269978466 0.00871365023
v -0.0094935692 -0.0269978466 0.0128791804
v -0.0099453724 -0.0269978466 0.0125004525
v -0.00601873762 -0.0269978466 0.0148247952
v -0.00565193063 -0.0269978466 0.0139214273
v -0.00526676542 -0.0269978466 0.0140216823
v -0.00356779462 -0.0269978466 0.0122987504
v -0.00367353326 -0.0269978466 0.0119148965
v -0.00216410524 -0.0269978466 0.0100490327
v -0.00387499696 -0.0269978466 0.0115715737
v -0.00433240301 -0.0269978466 0.0153897281
v -0.00488994485 -0.0269978466 0.0109950776
v -0.00450466043 -0.0269978466 0.0110954518
v -0.00415847665 -0.0269978466 0.011292028
v -0.00528798467 -0.0269978466 0.0109979386
v -0.00567183858 -0.0269978466 0.0111036773
v -0.00601516134 -0.0269978466 0.011305141
v -0.00486860639 -0.0269978466 0.0140189404
v -0.00448487169 -0.0269978466 0.0139132018
v -0.00414142972 -0.0269978466 0.0137117381
v -0.00629470712 -0.0269978466 0.0115886207
v -0.00649128324 -0.0269978466 0.0119348044
v -0.00659165746 -0.0269978466 0.0123199697
v -0.00658879644 -0.0269978466 0.0127181287
v -0.0064830578 -0.0269978466 0.0131018634
v -0.0062815941 -0.0269978466 0.0134453053
v -0.00599811441 -0.0269978466 0.0137247319
v -0.00386200315 -0.0269978466 0.0134282584
v -0.00366530782 -0.0269978466 0.0130820746
v -0.00356505281 -0.0269978466 0.0126967902
v -0.000181416334 -0.0269978466 0.0159990067
v -0.00217113859 -0.0269978466 0.0158520217
v -0.0041270054 -0.0269978466 0.015458631
v 0.00414397353 -0.0269978466 0.0126101251
v 0.00288703078 -0.0269978466 0.0157059903
v 0.00181104773 -0.0269978466 0.015897202
v 0.00765754813 -0.0269978466 0.0140365834
v 0.00749828452 -0.0269978466 0.0141342158
v 0.00568105811 -0.0269978466 0.0149574752
v 0.00377537841 -0.0269978466 0.0155481572
v 0.00682475203 -0.0269978466 0.0110137935
v 0.00688864821 -0.0269978466 0.0112456555
v 0.00919904345 -0.0269978466 0.0130911345
v 0.0081050598 -0.0269978466 0.0121654744
v 0.00709011191 -0.0269978466 0.0115889783
v 0.0073735916 -0.0269978466 0.0118685241
v 0.00771977538 -0.0269978466 0.0120651002
v 0.0090943777 -0.0269978466 0.0119351621
v 0.010122081 -0.0269978466 0.0123523946
v 0.00888695353 -0.0269978466 0.012056994
v 0.00850309962 -0.0269978466 0.0121627326
v 0.00923027629 -0.0269978466 0.0118555303
v 0.00950982207 -0.0269978466 0.0115720506
v 0.0107567512 -0.0269978466 0.011844563
v 0.00970639819 -0.0269978466 0.0112258668
v 0.0111013853 -0.0269978466 0.0114897962
v 0.00980677241 -0.0269978466 0.0108405824
v 0.00688042277 -0.0269978466 0.0100784774
v 0.00678016776 -0.0269978466 0.0104637618
v 0.00507976645 -0.0269978466 0.0103053327
v 0.00678290957 -0.0269978466 0.0108618016
v 0.00980391139 -0.0269978466 0.0104425426
v 0.00969817275 -0.0269978466 0.0100586886
v 0.00949670905 -0.0269978466 0.00971536589
v 0.00921322936 -0.0269978466 0.0094358201
v 0.00886716479 -0.0269978466 0.00923912478
v 0.00848188037 -0.0269978466 0.00913886976
v 0.00808372134 -0.0269978466 0.00914161158
v 0.00769998664 -0.0269978466 0.00924735022
v 0.00735654467 -0.0269978466 0.00944881392
v 0.0070771181 -0.0269978466 0.00973229361
v 0.0143426859 -0.0269978466 0.00709133101
v 0.0133487188 -0.0269978466 0.0088210578
v 0.0121470892 -0.0269978466 0.0104138131
v 0.0159424745 -0.0269978466 0.00135593367
v 0.0156496965 -0.0269978466 0.00332944346
v 0.0151137316 -0.0269978466 0.00525121641
v 0.0147968733 -0.0269978466 0.00600748015
v 0.017858287 -0.0269978466 -0.0211697345
v 0.0172964537 -0.0269978466 -0.0145632749
v 0.0154761278 -0.0269978466 -0.0153022532
v 0.016569277 -0.0269978466 -0.029799891
v 0.0173270904 -0.0269978466 -0.0285642867
v 0.0121628248 -0.0269978466 -0.0252396588
v 0.0114397013 -0.0269978466 -0.023458672
v 0.0117718183 -0.0269978466 -0.0237954383
v 0.0120328867 -0.0269978466 -0.0242551093
v 0.0181278192 -0.0269978466 -0.0243389134
v 0.0121661627 -0.0269978466 -0.0247666364
v 0.0181193554 -0.0269978466 -0.02578826
v 0.0178494655 -0.0269978466 -0.0272123342
v 0.0120220386 -0.0269978466 -0.0258049493
v 0.0114371979 -0.0269978466 -0.0328895574
v 0.0121624672 -0.0269978466 -0.0252953296
v 0.0117792093 -0.0269978466 -0.0328505759
v 0.0131660902 -0.0269978466 -0.0324292903
v 0.0144540274 -0.0269978466 -0.0317645793
v 0.0147264206 -0.0269978466 -0.0315541749
v 0.0156010591 -0.0269978466 -0.0308784966
v 0.011754533 -0.0269978466 -0.0262608056
v 0.0113780701 -0.0269978466 -0.0266320233
v 0.010918399 -0.0269978466 -0.0268930917
v 0.010406872 -0.0269978466 -0.0270263677
v 0.00987817877 -0.0269978466 -0.027022553
v 0.00936855906 -0.0269978466 -0.0268822436
v 0.00828041667 -0.0269978466 -0.025778604
v 0.00814714068 -0.0269978466 -0.025267077
v 0.00587882632 -0.0269978466 -0.0191987281
v 0.00889303321 -0.0269978466 -0.0329163795
v 0.00887360209 -0.0269978466 -0.0265750413
v 0.00854148501 -0.0269978466 -0.0262382751
v 0.00891258353 -0.0269978466 -0.0266146188
v 0.0103391611 -0.0269978466 -0.0330147271
v 0.00916804904 -0.0269978466 -0.0178633456
v 0.0114007198 -0.0269978466 -0.0234189754
v 0.00815047854 -0.0269978466 -0.0247940545
v 0.00815083617 -0.0269978466 -0.0247383838
v 0.00829126471 -0.0269978466 -0.0242287641
v 0.00855877036 -0.0269978466 -0.0237727885
v 0.00893523329 -0.0269978466 -0.02340169
v 0.00939490431 -0.0269978466 -0.0231406217
v 0.00990643138 -0.0269978466 -0.0230073457
v 0.0104351246 -0.0269978466 -0.0230110412
v 0.0109447443 -0.0269978466 -0.0231514697
v -0.00287685758 -0.0269978466 -0.00638146448
v -0.00218341714 -0.0269978466 -0.00661773729
v -0.00130806333 -0.0269978466 -0.00877399492
v -0.00161717302 -0.0269978466 -0.00681061792
v -0.00403259164 -0.0269978466 -0.00572176027
v -0.00504253274 -0.0269978466 -0.00485510874
v -0.00587032205 -0.0269978466 -0.00381310034
v 0.00232162112 -0.0269978466 -0.00660378981
v 0.00102986926 -0.0269978466 -0.00692386675
v 0.00122835272 -0.0269978466 -0.00774426508
v 0.000898142992 -0.0269978466 -0.00693078089
v -0.000299075902 -0.0269978466 -0.00699360418
v 0.00352944964 -0.0269978466 -0.00604505587
v 0.00451769465 -0.0269978466 -0.00640876341
v 0.00417997473 -0.0269978466 -0.00557704019
v 0.00645651454 -0.0269978466 0.00262134028
v 0.00670673484 -0.0269978466 0.00200478983
v 0.00697149867 -0.0269978466 -0.000631523608
v 0.00672592753 -0.0269978466 -0.00193948793
v 0.00696494216 -0.0269978466 0.000699209691
v 0.00623740786 -0.0269978466 -0.00317723799
v 0.00552334422 -0.0269978466 -0.0043003087
v 0.00460972422 -0.0269978466 -0.00526793051
v -0.00122843152 -0.0269978466 0.00774424029
v -0.000890711607 -0.0269978466 0.00691251707
v -0.000367025198 -0.0269978466 0.00699036074
v 0.0022572481 -0.0269978466 0.00662605715
v 0.00347044104 -0.0269978466 0.00607912493
v 0.000962516009 -0.0269978466 0.00693349791
v 0.00455822581 -0.0269978466 0.00531248999
v 0.00548126334 -0.0269978466 0.00435380888
v 0.00620617503 -0.0269978466 0.00323777151
v -0.00408802396 -0.0269978466 0.0056822772
v -0.00293884641 -0.0269978466 0.00635318709
v -0.00451765424 -0.0269978466 0.00640885782
v -0.00168333417 -0.0269978466 0.00679461908
v -0.00617859727 -0.0269978466 0.00322275114
v -0.00590715772 -0.0269978466 0.00375585508
v -0.00705407029 -0.0269978466 0.00537900877
v -0.00508962041 -0.0269978466 0.00480585051
v -0.0041873253 -0.0269978466 0.00559537363
v -0.00651119119 -0.0269978466 0.00256996107
v -0.00687990552 -0.0269978466 0.00129132223
v -0.00648579961 -0.0269978466 -0.00263316679
v -0.00686703092 -0.0269978466 -0.00135822344
v -0.00699994928 -0.0269978466 -3.40466489e-05
v -0.000372270406 -0.0269978466 -0.0110787873
v 0.00216414565 -0.0269978466 -0.0100490575
v 0.00659169787 -0.0269978466 -0.0123199944
v 0.00658883685 -0.0269978466 -0.0127181535
v 0.00648309821 -0.0269978466 -0.0131018882
v 0.00628163451 -0.0269978466 -0.0134453301
v 0.00526668662 -0.0269978466 -0.0140217071
v 0.00565197104 -0.0269978466 -0.013921452
v 0.00599815482 -0.0269978466 -0.0137247567
v 0.0048686468 -0.0269978466 -0.0140189652
v 0.00448479289 -0.0269978466 -0.0139132266
v 0.00414147013 -0.0269978466 -0.0137117629
v 0.00356783503 -0.0269978466 -0.0122987752
v 0.00367357367 -0.0269978466 -0.0119149213
v 0.00387503737 -0.0269978466 -0.0115715985
v 0.00545336836 -0.0269978466 -0.00871355581
v 0.00528802508 -0.0269978466 -0.0109979634
v 0.00567187899 -0.0269978466 -0.0111037021
v 0.00415851706 -0.0269978466 -0.0112920527
v 0.00450470084 -0.0269978466 -0.0110954766
v 0.00488986605 -0.0269978466 -0.0109951024
v 0.00386192435 -0.0269978466 -0.0134282832
v 0.00366534823 -0.0269978466 -0.0130820994
v 0.00356497401 -0.0269978466 -0.012696815
v 0.00601520175 -0.0269978466 -0.0113051658
v 0.00629474753 -0.0269978466 -0.0115886455
v 0.00649132365 -0.0269978466 -0.01193471
v 0.00356783503 -0.0219978514 -0.0122987752
v 0.00356497401 -0.0219978514 -0.012696815
v 0.00216414565 -0.0219978514 -0.0100490575
v 0.00195290679 -0.0219978514 -0.0276271825
v -0.000429252447 -0.0219978514 -0.0217597013
v 0.00334241027 -0.0219978514 -0.0202284579
v -0.0022495783 -0.0219978514 -0.0224987988
v -0.00658879644 -0.0219978514 0.0127181287
v -0.00659165746 -0.0219978514 0.0123199697
v -0.00762162572 -0.0219978514 0.0140543456
v 0.00815083617 -0.0219978514 -0.0247383838
v 0.00815047854 -0.0219978514 -0.0247940545
v 0.00587882632 -0.0219978514 -0.0191987281
v 0.0108257734 -0.0219978514 -0.00384779024
v 0.0119587385 -0.0219978514 -0.00242991495
v 0.0121554338 -0.0219978514 -0.00277609873
v 0.0148823463 -0.0219978514 -0.00206596899
v 0.0148850881 -0.0219978514 -0.00166780996
v 0.0161994898 -0.0219978514 -0.00166602182
v 0.0161349975 -0.0219978514 -0.000908446788
v 0.0139652693 -0.0219978514 -0.000451517581
v 0.0135814154 -0.0219978514 -0.000345778941
v 0.0135351621 -0.0219978514 0.00549523783
v 0.0121684276 -0.0219978514 -0.000919414042
v 0.0119669639 -0.0219978514 -0.0012627368
v 0.00795271033 -0.0219978514 0.00322871161
v 0.0118612253 -0.0219978514 -0.00164659071
v 0.0118584835 -0.0219978514 -0.00204463053
v 0.0147847139 -0.0219978514 -0.00128264475
v 0.0145881378 -0.0219978514 -0.000936460971
v 0.014308592 -0.0219978514 -0.00065298128
v 0.0131833755 -0.0219978514 -0.000342917918
v 0.0127980911 -0.0219978514 -0.00044329214
v 0.0124519073 -0.0219978514 -0.000639868258
v 0.0131620371 -0.0219978514 -0.00336678076
v 0.0135601961 -0.0219978514 -0.00336952257
v 0.0117614471 -0.0219978514 -0.00615258264
v 0.0164201462 -0.0219978514 -0.00426120806
v 0.0139454805 -0.0219978514 -0.00326926756
v 0.0142915451 -0.0219978514 -0.00307257223
v 0.0145750248 -0.0219978514 -0.00279314566
v 0.0147766077 -0.0219978514 -0.00244970369
v 0.0148403847 -0.0219978514 -0.00221784162
v 0.0124349796 -0.0219978514 -0.00305957842
v 0.012570759 -0.0219978514 -0.00313932943
v 0.0127783024 -0.0219978514 -0.00326104212
v 0.00688864821 -0.0219978514 0.0112456555
v 0.00682475203 -0.0219978514 0.0110137935
v 0.00507976645 -0.0219978514 0.0103053327
v 0.00678290957 -0.0219978514 0.0108618016
v 0.00678016776 -0.0219978514 0.0104637618
v 0.00950982207 -0.0219978514 0.0115720506
v 0.010122081 -0.0219978514 0.0123523946
v 0.00970639819 -0.0219978514 0.0112258668
v 0.0107567512 -0.0219978514 0.011844563
v 0.00980677241 -0.0219978514 0.0108405824
v 0.0111013853 -0.0219978514 0.0114897962
v 0.00980391139 -0.0219978514 0.0104425426
v 0.00921322936 -0.0219978514 0.0094358201
v 0.00949670905 -0.0219978514 0.00971536589
v 0.00969817275 -0.0219978514 0.0100586886
v 0.00688042277 -0.0219978514 0.0100784774
v 0.0070771181 -0.0219978514 0.00973229361
v 0.00735654467 -0.0219978514 0.00944881392
v 0.00769998664 -0.0219978514 0.00924735022
v 0.00808372134 -0.0219978514 0.00914161158
v 0.00848188037 -0.0219978514 0.00913886976
v 0.00886716479 -0.0219978514 0.00923912478
v 0.00765754813 -0.0219978514 0.0140365834
v 0.00919904345 -0.0219978514 0.0130911345
v 0.00850309962 -0.0219978514 0.0121627326
v 0.0081050598 -0.0219978514 0.0121654744
v 0.00771977538 -0.0219978514 0.0120651002
v 0.00414397353 -0.0219978514 0.0126101251
v 0.0073735916 -0.0219978514 0.0118685241
v 0.00709011191 -0.0219978514 0.0115889783
v 0.00923027629 -0.0219978514 0.0118555303
v 0.0090943777 -0.0219978514 0.0119351621
v 0.00888695353 -0.0219978514 0.012056994
v -0.0148823059 -0.0219978514 0.0020659442
v -0.0148850477 -0.0219978514 0.00166778517
v -0.0158680475 -0.0219978514 0.00180058432
v -0.0119588173 -0.0219978514 0.00242989016
v -0.0121553934 -0.0219978514 0.00277607393
v -0.010825733 -0.0219978514 0.00384776545
v -0.0124349392 -0.0219978514 0.00305955362
v -0.00795278913 -0.0219978514 -0.0032287364
v -0.0118613041 -0.0219978514 0.00164656592
v -0.0118584431 -0.0219978514 0.00204460573
v -0.0124519861 -0.0219978514 0.000639843465
v -0.0121685064 -0.0219978514 0.000919389249
v -0.0119670427 -0.0219978514 0.001262712
v -0.015969137 -0.0219978514 0.000994014264
v -0.0147847927 -0.0219978514 0.00128261995
v -0.0159686602 -0.0219978514 -0.00100107241
v -0.0145880974 -0.0219978514 0.000936436177
v -0.0143086708 -0.0219978514 0.000652956487
v -0.0157199896 -0.0219978514 -0.00298054266
v -0.0139652289 -0.0219978514 0.000451492787
v -0.0152268208 -0.0219978514 -0.00491375971
v -0.0135814942 -0.0219978514 0.000345754148
v -0.0147968329 -0.0219978514 -0.00600738573
v -0.0131833351 -0.0219978514 0.000342893125
v -0.0127981699 -0.0219978514 0.000443267346
v -0.0135601557 -0.0219978514 0.00336961699
v -0.0139454401 -0.0219978514 0.00326924276
v -0.0152749813 -0.0219978514 0.00472609949
v -0.0142916239 -0.0219978514 0.00307266665
v -0.0157211817 -0.0219978514 0.00297372294
v -0.0145751036 -0.0219978514 0.00279312086
v -0.0147765673 -0.0219978514 0.00244979811
v -0.0148404635 -0.0219978514 0.00221781683
v -0.0125708378 -0.0219978514 0.00313930464
v -0.012778262 -0.0219978514 0.00326101732
v -0.0117615259 -0.0219978514 0.00615255785
v -0.0131621159 -0.0219978514 0.00336675596
v -0.0104534424 -0.0219978514 -0.0124870067
v -0.00970647699 -0.0219978514 -0.0112258916
v -0.00950978166 -0.0219978514 -0.0115719562
v -0.00688872701 -0.0219978514 -0.0112456803
v -0.00682483083 -0.0219978514 -0.0110136991
v -0.00507972604 -0.0219978514 -0.0103052382
v -0.00678298837 -0.0219978514 -0.0108618264
v -0.00678012735 -0.0219978514 -0.0104637866
v -0.00769994623 -0.0219978514 -0.00924737501
v -0.00808380014 -0.0219978514 -0.00914163637
v -0.009806732 -0.0219978514 -0.0108406072
v -0.0123758114 -0.0219978514 -0.0101409678
v -0.00980399019 -0.0219978514 -0.0104424481
v -0.00688050157 -0.0219978514 -0.0100785022
v -0.00707707769 -0.0219978514 -0.0097323184
v -0.00735662347 -0.0219978514 -0.00944883871
v -0.00848183996 -0.0219978514 -0.00913889456
v -0.00886712438 -0.0219978514 -0.00923914957
v -0.00921330816 -0.0219978514 -0.0094358449
v -0.00949678785 -0.0219978514 -0.00971527147
v -0.00969825155 -0.0219978514 -0.0100587134
v -0.013541559 -0.0219978514 -0.00852198648
v -0.0144969023 -0.0219978514 -0.0067705636
v -0.00850317842 -0.0219978514 -0.0121626382
v -0.00810501939 -0.0219978514 -0.0121654992
v -0.00880275136 -0.0219978514 -0.0145015244
v -0.00771973497 -0.0219978514 -0.012065125
v -0.00414393312 -0.0219978514 -0.0126100307
v -0.0073736704 -0.0219978514 -0.0118685489
v -0.00709019071 -0.0219978514 -0.0115890031
v -0.00923035508 -0.0219978514 -0.0118554358
v -0.00909445649 -0.0219978514 -0.0119351869
v -0.00888691312 -0.0219978514 -0.0120568995
v 0.00844754809 -0.0219978514 -0.0328030114
v 0.00828041667 -0.0219978514 -0.025778604
v 0.00854148501 -0.0219978514 -0.0262382751
v 0.00814714068 -0.0219978514 -0.025267077
v 0.00889303321 -0.0219978514 -0.0329163795
v 0.00887360209 -0.0219978514 -0.0265750413
v 0.0103391611 -0.0219978514 -0.0330147271
v 0.0109447443 -0.0219978514 -0.0231514697
v 0.00916804904 -0.0219978514 -0.0178633456
v 0.0114007198 -0.0219978514 -0.0234189754
v 0.0114397013 -0.0219978514 -0.023458672
v 0.00893523329 -0.0219978514 -0.02340169
v 0.00855877036 -0.0219978514 -0.0237727885
v 0.00829126471 -0.0219978514 -0.0242287641
v 0.0104351246 -0.0219978514 -0.0230110412
v 0.00990643138 -0.0219978514 -0.0230073457
v 0.00939490431 -0.0219978514 -0.0231406217
v 0.0181193554 -0.0219978514 -0.02578826
v 0.0121628248 -0.0219978514 -0.0252396588
v 0.0181278192 -0.0219978514 -0.0243389134
v 0.0121661627 -0.0219978514 -0.0247666364
v 0.017858287 -0.0219978514 -0.0211697345
v 0.0120328867 -0.0219978514 -0.0242551093
v 0.0117718183 -0.0219978514 -0.0237954383
v 0.0178494655 -0.0219978514 -0.0272123342
v 0.0173270904 -0.0219978514 -0.0285642867
v 0.016569277 -0.0219978514 -0.029799891
v 0.0156010591 -0.0219978514 -0.0308784966
v 0.0147264206 -0.0219978514 -0.0315541749
v 0.0121624672 -0.0219978514 -0.0252953296
v 0.0120220386 -0.0219978514 -0.0258049493
v 0.0114371979 -0.0219978514 -0.0328895574
v 0.00891258353 -0.0219978514 -0.0266146188
v 0.00936855906 -0.0219978514 -0.0268822436
v 0.00987817877 -0.0219978514 -0.027022553
v 0.010406872 -0.0219978514 -0.0270263677
v 0.0117792093 -0.0219978514 -0.0328505759
v 0.010918399 -0.0219978514 -0.0268930917
v 0.0131660902 -0.0219978514 -0.0324292903
v 0.0144540274 -0.0219978514 -0.0317645793
v 0.0113780701 -0.0219978514 -0.0266320233
v 0.011754533 -0.0219978514 -0.0262608056
v 0.0154761278 -0.0219978514 -0.0153022532
v 0.0172964537 -0.0219978514 -0.0145632749
v 0.0151137316 -0.0219978514 0.00525121641
v 0.0156496965 -0.0219978514 0.00332944346
v 0.0159424745 -0.0219978514 0.00135593367
v 0.0133487188 -0.0219978514 0.0088210578
v 0.0143426859 -0.0219978514 0.00709133101
v 0.0147968733 -0.0219978514 0.00600748015
v 0.0121470892 -0.0219978514 0.0104138131
v 0.00377537841 -0.0219978514 0.0155481572
v 0.00568105811 -0.0219978514 0.0149574752
v 0.00749828452 -0.0219978514 0.0141342158
v -0.00217113859 -0.0219978514 0.0158520217
v -0.00216410524 -0.0219978514 0.0100490327
v -0.0041270054 -0.0219978514 0.015458631
v -0.00433240301 -0.0219978514 0.0153897281
v -0.000181416334 -0.0219978514 0.0159990067
v 0.00181104773 -0.0219978514 0.015897202
v 0.00288703078 -0.0219978514 0.0157059903
v -0.00567183858 -0.0219978514 0.0111036773
v -0.00528798467 -0.0219978514 0.0109979386
v -0.00545332795 -0.0219978514 0.00871365023
v -0.00488994485 -0.0219978514 0.0109950776
v -0.00450466043 -0.0219978514 0.0110954518
v -0.00415847665 -0.0219978514 0.011292028
v -0.0064830578 -0.0219978514 0.0131018634
v -0.00387499696 -0.0219978514 0.0115715737
v -0.00367353326 -0.0219978514 0.0119148965
v -0.00356779462 -0.0219978514 0.0122987504
v -0.00649128324 -0.0219978514 0.0119348044
v -0.00629470712 -0.0219978514 0.0115886207
v -0.00601516134 -0.0219978514 0.011305141
v -0.00526676542 -0.0219978514 0.0140216823
v -0.00601873762 -0.0219978514 0.0148247952
v -0.00486860639 -0.0219978514 0.0140189404
v -0.00448487169 -0.0219978514 0.0139132018
v -0.00414142972 -0.0219978514 0.0137117381
v -0.00356505281 -0.0219978514 0.0126967902
v -0.00366530782 -0.0219978514 0.0130820746
v -0.00386200315 -0.0219978514 0.0134282584
v -0.00565193063 -0.0219978514 0.0139214273
v -0.00599811441 -0.0219978514 0.0137247319
v -0.0062815941 -0.0219978514 0.0134453053
v -0.0094935692 -0.0219978514 0.0128791804
v -0.0099453724 -0.0219978514 0.0125004525
v -0.00798974401 -0.0219978514 0.00768380118
v -0.0110225475 -0.0219978514 0.0115975614
v -0.00781689054 -0.0219978514 0.0139605279
v -0.0152289665 -0.0219978514 0.00490705919
v -0.0144998825 -0.0219978514 0.00676422072
v -0.0135453737 -0.0219978514 0.00851612043
v -0.0130184687 -0.0219978514 0.00924854231
v -0.0123802221 -0.0219978514 0.0101355786
v 0.00748839015 -0.0219978514 -0.0325587516
v 0.00617136592 -0.0219978514 -0.031953526
v 0.00498523348 -0.0219978514 -0.0311206107
v 0.00396873587 -0.0219978514 -0.0300873046
v -0.00651119119 -0.0219978514 0.00256996107
v -0.00617859727 -0.0219978514 0.00322275114
v -0.00705407029 -0.0219978514 0.00537900877
v -0.00590715772 -0.0219978514 0.00375585508
v -0.00687990552 -0.0219978514 0.00129132223
v -0.00699994928 -0.0219978514 -3.40466489e-05
v -0.00686703092 -0.0219978514 -0.00135822344
v -0.00293884641 -0.0219978514 0.00635318709
v -0.00451765424 -0.0219978514 0.00640885782
v -0.00168333417 -0.0219978514 0.00679461908
v -0.00122843152 -0.0219978514 0.00774424029
v -0.000890711607 -0.0219978514 0.00691251707
v -0.00408802396 -0.0219978514 0.0056822772
v -0.0041873253 -0.0219978514 0.00559537363
v -0.00508962041 -0.0219978514 0.00480585051
v 0.00548126334 -0.0219978514 0.00435380888
v 0.00455822581 -0.0219978514 0.00531248999
v 0.00347044104 -0.0219978514 0.00607912493
v 0.0022572481 -0.0219978514 0.00662605715
v 0.000962516009 -0.0219978514 0.00693349791
v -0.000367025198 -0.0219978514 0.00699036074
v 0.00620617503 -0.0219978514 0.00323777151
v 0.00645651454 -0.0219978514 0.00262134028
v 0.00451769465 -0.0219978514 -0.00640876341
v 0.00417997473 -0.0219978514 -0.00557704019
v 0.00460972422 -0.0219978514 -0.00526793051
v 0.00672592753 -0.0219978514 -0.00193948793
v 0.00623740786 -0.0219978514 -0.00317723799
v 0.00552334422 -0.0219978514 -0.0043003087
v 0.00697149867 -0.0219978514 -0.000631523608
v 0.00696494216 -0.0219978514 0.000699209691
v 0.00670673484 -0.0219978514 0.00200478983
v 0.00102986926 -0.0219978514 -0.00692386675
v 0.00232162112 -0.0219978514 -0.00660378981
v 0.00122835272 -0.0219978514 -0.00774426508
v 0.00352944964 -0.0219978514 -0.00604505587
v -0.00218341714 -0.0219978514 -0.00661773729
v -0.00161717302 -0.0219978514 -0.00681061792
v -0.00130806333 -0.0219978514 -0.00877399492
v -0.000299075902 -0.0219978514 -0.00699360418
v 0.000898142992 -0.0219978514 -0.00693078089
v -0.00287685758 -0.0219978514 -0.00638146448
v -0.00403259164 -0.0219978514 -0.00572176027
v -0.00648579961 -0.0219978514 -0.00263316679
v -0.00587032205 -0.0219978514 -0.00381310034
v -0.00504253274 -0.0219978514 -0.00485510874
v 0.00545336836 -0.0219978514 -0.00871355581
v -0.000372270406 -0.0219978514 -0.0110787873
v 0.00366534823 -0.0219978514 -0.0130820994
v 0.00386192435 -0.0219978514 -0.0134282832
v 0.00414147013 -0.0219978514 -0.0137117629
v 0.00448479289 -0.0219978514 -0.0139132266
v 0.00599815482 -0.0219978514 -0.0137247567
v 0.00628163451 -0.0219978514 -0.0134453301
v 0.00648309821 -0.0219978514 -0.0131018882
v 0.00658883685 -0.0219978514 -0.0127181535
v 0.00601520175 -0.0219978514 -0.0113051658
v 0.00567187899 -0.0219978514 -0.0111037021
v 0.00415851706 -0.0219978514 -0.0112920527
v 0.00387503737 -0.0219978514 -0.0115715985
v 0.00367357367 -0.0219978514 -0.0119149213
v 0.0048686468 -0.0219978514 -0.0140189652
v 0.00526668662 -0.0219978514 -0.0140217071
v 0.00565197104 -0.0219978514 -0.013921452
v 0.00528802508 -0.0219978514 -0.0109979634
v 0.00488986605 -0.0219978514 -0.0109951024
v 0.00450470084 -0.0219978514 -0.0110954766
v 0.00659169787 -0.0219978514 -0.0123199944
v 0.00649132365 -0.0219978514 -0.01193471
v 0.00629474753 -0.0219978514 -0.0115886455
v 0.00527693862 -0.012997848 0.012086081
v 0.00522496337 -0.012997848 0.0116913791
v 0.000686308085 -0.012997848 0.0117136712
v 0.0145778858 -0.012997848 0.00659434748
v 0.0146955454 -0.012997848 0.00628702593
v 0.01354303 -0.012997848 0.00429086638
v 0.0159617864 -0.012997848 0.00110559416
v 0.0159652435 -0.012997848 0.000756191732
v 0.0126179659 -0.012997848 0.00268869352
v -0.0022059477 -0.012997848 -0.0158471589
v -0.00298295385 -0.012997848 -0.0156915908
v -0.000686267675 -0.012997848 -0.011713696
v -0.0082219637 -0.012997848 -0.00366063166
v -0.0082064665 -0.012997848 -0.00368900347
v -0.00887618429 -0.012997848 -0.00484902906
v 0.00822188491 -0.012997848 0.00366060686
v 0.00820650691 -0.012997848 0.00368909788
v 0.0088762247 -0.012997848 0.00484900427
v -0.000908473791 -0.012997848 0.00895159197
v -0.000940779508 -0.012997848 0.0089506383
v -0.00398049718 -0.012997848 0.0122719283
v -0.00232932931 -0.012997848 0.00869338465
v -0.00366065866 -0.012997848 0.00822191191
v -0.00490174657 -0.012997848 0.00754802179
v -0.00602219468 -0.012997848 0.0066882844
v 0.00566389197 -0.012997848 0.00699429464
v 0.00980116957 -0.012997848 0.00645117712
v 0.00644590491 -0.012997848 0.00625209761
v 0.00450005168 -0.012997848 0.00779418898
v 0.00322534674 -0.012997848 0.00840227556
v 0.00219156378 -0.012997848 0.00870840502
v -0.000238756002 -0.012997848 0.0101114984
v 0.00187124842 -0.012997848 0.00880329561
v 0.000471016108 -0.012997848 0.00898771238
v 0.00754799479 -0.012997848 0.00490169478
v 0.0066882574 -0.012997848 0.00602214289
v 0.00869335765 -0.012997848 0.00232939673
v 0.0089507305 -0.012997848 0.000940727712
v 0.00898768538 -0.012997848 -0.000471067904
v 0.00829925173 -0.012997848 -0.00479157019
v 0.00840224856 -0.012997848 -0.00322527933
v 0.00880338782 -0.012997848 -0.00187118101
v 0.00398053759 -0.012997848 -0.0122718339
v 0.00699426764 -0.012997848 -0.00566382456
v 0.00779428118 -0.012997848 -0.00449998426
v 0.000908394991 -0.012997848 -0.00895149755
v 0.000940700709 -0.012997848 -0.00895066309
v 0.00232936972 -0.012997848 -0.00869329023
v 0.00366057986 -0.012997848 -0.0082219367
v 0.00490178698 -0.012997848 -0.00754804659
v 0.00602211589 -0.012997848 -0.00668830919
v -0.00566385156 -0.012997848 -0.00699431944
v -0.00980124837 -0.012997848 -0.00645120191
v -0.00644598371 -0.012997848 -0.0062521224
v -0.00450001127 -0.012997848 -0.00779421377
v -0.00322530633 -0.012997848 -0.00840218115
v -0.00219152337 -0.012997848 -0.00870842981
v 0.000238677203 -0.012997848 -0.0101115232
v -0.00187120801 -0.012997848 -0.00880332041
v -0.000470975698 -0.012997848 -0.00898761797
v -0.00754807359 -0.012997848 -0.00490171957
v -0.00668833619 -0.012997848 -0.00602216768
v -0.00869331724 -0.012997848 -0.00232942152
v -0.0126180447 -0.012997848 -0.00268871832
v -0.00895069009 -0.012997848 -0.000940752505
v -0.00898764497 -0.012997848 0.000471043111
v -0.00699434644 -0.012997848 0.00566391897
v -0.00779424077 -0.012997848 0.00449995947
v -0.00829921132 -0.012997848 0.00479154539
v -0.00840220815 -0.012997848 0.00322525454
v -0.00880334741 -0.012997848 0.00187115622
v -0.0145783222 -0.012997848 0.00107829523
v -0.0148206747 -0.012997848 0.000762509824
v -0.0159055985 -0.012997848 0.00173537684
v -0.0149730242 -0.012997848 0.000394749166
v -0.0159991778 -0.012997848 -0.00015802431
v -0.0150249994 -0.012997848 4.72079353e-08
v -0.0159574545 -0.012997848 -0.000760627269
v -0.0149730242 -0.012997848 -0.00039465475
v -0.0148206747 -0.012997848 -0.000762534617
v -0.0127374924 -0.012997848 -0.00132067251
v -0.013105253 -0.012997848 -0.00147302198
v -0.013499955 -0.012997848 -0.00152499723
v -0.0145783222 -0.012997848 -0.00107832003
v -0.0142625368 -0.012997848 -0.00132067251
v -0.013894657 -0.012997848 -0.00147302198
v -0.0121793545 -0.012997848 0.000762509824
v -0.012027005 -0.012997848 0.000394749166
v -0.0119750298 -0.012997848 4.72079353e-08
v -0.012421707 -0.012997848 -0.00107832003
v -0.0121793545 -0.012997848 -0.000762534617
v -0.012027005 -0.012997848 -0.00039465475
v -0.012421707 -0.012997848 0.00107829523
v -0.0127374924 -0.012997848 0.00132064772
v -0.0138563908 -0.012997848 0.00799994421
v -0.013105253 -0.012997848 0.00147299719
v -0.013499955 -0.012997848 0.00152497244
v -0.0142625368 -0.012997848 0.00132064772
v -0.0155887402 -0.012997848 0.00360434008
v -0.013894657 -0.012997848 0.00147299719
v -0.0150530136 -0.012997848 0.00542275858
v -0.0143060482 -0.012997848 0.00716512156
v -0.0141616858 -0.012997848 -0.00744636106
v -0.0146902598 -0.012997848 -0.00627787161
v -0.0135429896 -0.012997848 -0.00429089117
v -0.0149429834 -0.012997848 -0.00571913767
v -0.0155144728 -0.012997848 -0.00391168642
v -0.015676359 -0.012997848 -0.00305910158
v -0.015868286 -0.012997848 -0.00204927969
v -0.0121080673 -0.012997848 -0.0104467397
v -0.013181547 -0.012997848 -0.00906903791
v -0.0106825627 -0.012997848 -0.0119114642
v -0.00827501184 -0.012997848 -0.0116912847
v -0.00822303659 -0.012997848 -0.0120859866
v -0.00919876462 -0.012997848 -0.0130912786
v -0.00822303659 -0.012997848 -0.0112967019
v -0.0120163954 -0.012997848 -0.0105643992
v -0.00807068712 -0.012997848 -0.0124538665
v -0.00782833463 -0.012997848 -0.0127696519
v -0.00758586294 -0.012997848 -0.0140873914
v -0.00751254922 -0.012997848 -0.0130120044
v -0.00714466935 -0.012997848 -0.0131643538
v -0.00586650735 -0.012997848 -0.014885736
v -0.0067499674 -0.012997848 -0.0132163291
v -0.00635526544 -0.012997848 -0.0131643538
v -0.00406465894 -0.012997848 -0.0154751067
v -0.00598750478 -0.012997848 -0.0130120044
v -0.00522504217 -0.012997848 -0.0116912847
v -0.00527701742 -0.012997848 -0.0112967019
v -0.00542936689 -0.012997848 -0.010928822
v -0.00567171937 -0.012997848 -0.0106130366
v -0.00567171937 -0.012997848 -0.0127696519
v -0.00542936689 -0.012997848 -0.0124538665
v -0.00527701742 -0.012997848 -0.0120859866
v -0.00598750478 -0.012997848 -0.0103706841
v -0.00635526544 -0.012997848 -0.0102183347
v -0.0067499674 -0.012997848 -0.0101663594
v -0.00714466935 -0.012997848 -0.0102183347
v -0.00751254922 -0.012997848 -0.0103706841
v -0.00782833463 -0.012997848 -0.0106130366
v -0.00807068712 -0.012997848 -0.010928822
v 0.0019030773 -0.012997848 -0.0158701663
v 0.00157811278 -0.012997848 -0.0159220223
v -0.000316122831 -0.012997848 -0.0159968858
v 0.00732769602 -0.012997848 -0.0142043357
v 0.00702335471 -0.012997848 -0.0143761163
v 0.00527383917 -0.012997848 -0.0151059155
v 0.00305547351 -0.012997848 -0.0138740067
v 0.00521697634 -0.012997848 -0.0151220088
v 0.00345017546 -0.012997848 -0.0156235223
v 0.00542928809 -0.012997848 -0.0124538665
v 0.00527693862 -0.012997848 -0.0120859866
v 0.00522496337 -0.012997848 -0.0116912847
v 0.00567164057 -0.012997848 -0.0127696519
v 0.00598754519 -0.012997848 -0.0130120044
v 0.00635530585 -0.012997848 -0.0131643538
v 0.00675000781 -0.012997848 -0.0132163291
v 0.00714470976 -0.012997848 -0.0131643538
v 0.00751247042 -0.012997848 -0.0130120044
v 0.00867440337 -0.012997848 -0.0134444957
v 0.00782837504 -0.012997848 -0.0127696519
v 0.00942208403 -0.012997848 -0.012896729
v 0.00807072753 -0.012997848 -0.0124538665
v 0.008223077 -0.012997848 -0.0120859866
v 0.0126511061 -0.012997848 -0.00730414438
v 0.00827505225 -0.012997848 -0.0116912847
v 0.008223077 -0.012997848 -0.0112967019
v 0.00807072753 -0.012997848 -0.010928822
v 0.00782837504 -0.012997848 -0.0106130366
v 0.00751247042 -0.012997848 -0.0103706841
v 0.00714470976 -0.012997848 -0.0102183347
v 0.00675000781 -0.012997848 -0.0101663594
v 0.00635530585 -0.012997848 -0.0102183347
v 0.00598754519 -0.012997848 -0.0103706841
v 0.00567164057 -0.012997848 -0.0106130366
v 0.00542928809 -0.012997848 -0.010928822
v 0.00527693862 -0.012997848 -0.0112967019
v 0.0138564312 -0.012997848 -0.007999969
v 0.0128129923 -0.012997848 -0.00958271074
v 0.0115896665 -0.012997848 -0.0110308652
v 0.0102036201 -0.012997848 -0.0123241668
v 0.0158800089 -0.012997848 -0.00171144056
v 0.0157748663 -0.012997848 -0.00267453241
v 0.0153478586 -0.012997848 -0.00452156114
v 0.0147053205 -0.012997848 -0.00630505133
v 0.0120269262 -0.012997848 0.000394749166
v 0.011974951 -0.012997848 4.72079353e-08
v 0.0120269262 -0.012997848 -0.00039465475
v 0.0121792757 -0.012997848 -0.000762534617
v 0.0121792757 -0.012997848 0.000762509824
v 0.0124216282 -0.012997848 0.00107829523
v 0.0134999954 -0.012997848 -0.00152499723
v 0.0138946974 -0.012997848 -0.00147302198
v 0.014262458 -0.012997848 -0.00132067251
v 0.0149730646 -0.012997848 0.000394749166
v 0.0148207151 -0.012997848 0.000762509824
v 0.0124216282 -0.012997848 -0.00107832003
v 0.0127375328 -0.012997848 -0.00132067251
v 0.0131052935 -0.012997848 -0.00147302198
v 0.0145783626 -0.012997848 -0.00107832003
v 0.0148207151 -0.012997848 -0.000762534617
v 0.0159805023 -0.012997848 -0.000790071963
v 0.0149730646 -0.012997848 -0.00039465475
v 0.0150250399 -0.012997848 4.72079353e-08
v 0.0134999954 -0.012997848 0.00152497244
v 0.0131052935 -0.012997848 0.00147299719
v 0.0127375328 -0.012997848 0.00132064772
v 0.0145783626 -0.012997848 0.00107829523
v 0.014262458 -0.012997848 0.00132064772
v 0.0138946974 -0.012997848 0.00147299719
v 0.0152554714 -0.012997848 0.00482385111
v 0.0157045328 -0.012997848 0.00304286432
v 0.0157189571 -0.012997848 0.00298564386
v 0.0136956179 -0.012997848 0.00827221823
v 0.0126211845 -0.012997848 0.00983397913
v 0.0120978557 -0.012997848 0.0104291911
v 0.00542928809 -0.012997848 0.0124538417
v 0.00527693862 -0.012997848 0.0112966771
v 0.00542928809 -0.012997848 0.0109287972
v 0.00567164057 -0.012997848 0.0106130118
v 0.00598754519 -0.012997848 0.0103706594
v 0.00635530585 -0.012997848 0.0102183099
v 0.00675000781 -0.012997848 0.0101663346
v 0.00714470976 -0.012997848 0.0102183099
v 0.00751247042 -0.012997848 0.0103706594
v 0.00782837504 -0.012997848 0.0106130118
v 0.00840713614 -0.012997848 0.0136132712
v 0.00995816821 -0.012997848 0.0125233407
v 0.00807072753 -0.012997848 0.0124538417
v 0.00807072753 -0.012997848 0.0109287972
v 0.008223077 -0.012997848 0.0112966771
v 0.011369487 -0.012997848 0.0112576957
v 0.00827505225 -0.012997848 0.0116913791
v 0.008223077 -0.012997848 0.012086081
v 0.00497438544 -0.012997848 0.0152070994
v 0.00673796767 -0.012997848 0.0145119901
v 0.00675000781 -0.012997848 0.0132163043
v 0.00782837504 -0.012997848 0.0127696271
v 0.00751247042 -0.012997848 0.0130119796
v 0.00714470976 -0.012997848 0.0131643291
v 0.00635530585 -0.012997848 0.0131643291
v 0.00598754519 -0.012997848 0.0130119796
v 0.00314082736 -0.012997848 0.015688705
v 0.00567164057 -0.012997848 0.0127696271
v 0.00299312705 -0.012997848 0.015709209
v -0.0019082821 -0.012997848 0.0158609624
v -0.000632146657 -0.012997848 0.0159875627
v 0.00126328105 -0.012997848 0.0159500117
v -0.00518892175 -0.012997848 0.0151057715
v -0.00436971551 -0.012997848 0.0153917546
v -0.0030555523 -0.012997848 0.013873982
v -0.00251851446 -0.012997848 0.0158005233
v -0.00945566064 -0.012997848 0.0129069562
v -0.00807068712 -0.012997848 0.0124538417
v -0.00822303659 -0.012997848 0.012086081
v -0.00714466935 -0.012997848 0.0102183099
v -0.0067499674 -0.012997848 0.0101663346
v -0.0109158552 -0.012997848 0.0116980548
v -0.00827501184 -0.012997848 0.0116913791
v -0.0122227467 -0.012997848 0.010324883
v -0.00822303659 -0.012997848 0.0112966771
v -0.0133580959 -0.012997848 0.00880675268
v -0.00807068712 -0.012997848 0.0109287972
v -0.00782833463 -0.012997848 0.0106130118
v -0.00751254922 -0.012997848 0.0103706594
v -0.00635526544 -0.012997848 0.0102183099
v -0.00598750478 -0.012997848 0.0103706594
v -0.00567171937 -0.012997848 0.0106130118
v -0.00542936689 -0.012997848 0.0109287972
v -0.00527701742 -0.012997848 0.0112966771
v -0.00522504217 -0.012997848 0.0116913791
v -0.00527701742 -0.012997848 0.012086081
v -0.00542936689 -0.012997848 0.0124538417
v -0.00567171937 -0.012997848 0.0127696271
v -0.00598750478 -0.012997848 0.0130119796
v -0.00615940458 -0.012997848 0.0147668595
v -0.00732002622 -0.012997848 0.0141999002
v -0.00635526544 -0.012997848 0.0131643291
v -0.0067499674 -0.012997848 0.0132163043
v -0.00714466935 -0.012997848 0.0131643291
v -0.00786266691 -0.012997848 0.0139347787
v -0.00751254922 -0.012997848 0.0130119796
v -0.00782833463 -0.012997848 0.0127696271
v -0.015868286 -0.0219978514 -0.00204927969
v -0.015676359 -0.0219978514 -0.00305910158
v -0.0135429896 -0.0219978514 -0.00429089117
v 0.0157189571 -0.0219978514 0.00298564386
v 0.0157045328 -0.0219978514 0.00304286432
v 0.01354303 -0.0219978514 0.00429086638
v -0.0126180447 -0.0219978514 -0.00268871832
v -0.00869331724 -0.0219978514 -0.00232942152
v -0.00895069009 -0.0219978514 -0.000940752505
v -0.00898764497 -0.0219978514 0.000471043111
v -0.00880334741 -0.0219978514 0.00187115622
v -0.00840220815 -0.0219978514 0.00322525454
v -0.00887618429 -0.0219978514 -0.00484902906
v -0.00644598371 -0.0219978514 -0.0062521224
v -0.00668833619 -0.0219978514 -0.00602216768
v -0.00754807359 -0.0219978514 -0.00490171957
v -0.0082064665 -0.0219978514 -0.00368900347
v -0.0082219637 -0.0219978514 -0.00366063166
v -0.00219152337 -0.0219978514 -0.00870842981
v -0.00322530633 -0.0219978514 -0.00840218115
v -0.000686267675 -0.0219978514 -0.011713696
v -0.00450001127 -0.0219978514 -0.00779421377
v -0.00980124837 -0.0219978514 -0.00645120191
v -0.00566385156 -0.0219978514 -0.00699431944
v 0.000908394991 -0.0219978514 -0.00895149755
v -0.000470975698 -0.0219978514 -0.00898761797
v 0.000238677203 -0.0219978514 -0.0101115232
v -0.00187120801 -0.0219978514 -0.00880332041
v 0.000940700709 -0.0219978514 -0.00895066309
v 0.00398053759 -0.0219978514 -0.0122718339
v 0.00232936972 -0.0219978514 -0.00869329023
v 0.00602211589 -0.0219978514 -0.00668830919
v 0.00699426764 -0.0219978514 -0.00566382456
v 0.00829925173 -0.0219978514 -0.00479157019
v 0.00490178698 -0.0219978514 -0.00754804659
v 0.00366057986 -0.0219978514 -0.0082219367
v 0.00898768538 -0.0219978514 -0.000471067904
v 0.0126179659 -0.0219978514 0.00268869352
v 0.0089507305 -0.0219978514 0.000940727712
v 0.00869335765 -0.0219978514 0.00232939673
v 0.00880338782 -0.0219978514 -0.00187118101
v 0.00840224856 -0.0219978514 -0.00322527933
v 0.00779428118 -0.0219978514 -0.00449998426
v 0.0088762247 -0.0219978514 0.00484900427
v 0.00644590491 -0.0219978514 0.00625209761
v 0.0066882574 -0.0219978514 0.00602214289
v 0.00754799479 -0.0219978514 0.00490169478
v 0.00820650691 -0.0219978514 0.00368909788
v 0.00822188491 -0.0219978514 0.00366060686
v 0.00219156378 -0.0219978514 0.00870840502
v 0.00322534674 -0.0219978514 0.00840227556
v 0.000686308085 -0.0219978514 0.0117136712
v 0.00980116957 -0.0219978514 0.00645117712
v 0.00450005168 -0.0219978514 0.00779418898
v 0.00566389197 -0.0219978514 0.00699429464
v -0.000908473791 -0.0219978514 0.00895159197
v 0.000471016108 -0.0219978514 0.00898771238
v -0.000238756002 -0.0219978514 0.0101114984
v 0.00187124842 -0.0219978514 0.00880329561
v -0.00699434644 -0.0219978514 0.00566391897
v -0.00602219468 -0.0219978514 0.0066882844
v -0.00398049718 -0.0219978514 0.0122719283
v -0.000940779508 -0.0219978514 0.0089506383
v -0.00232932931 -0.0219978514 0.00869338465
v -0.00779424077 -0.0219978514 0.00449995947
v -0.00829921132 -0.0219978514 0.00479154539
v -0.00490174657 -0.0219978514 0.00754802179
v -0.00366065866 -0.0219978514 0.00822191191
v -0.00527701742 -0.0219978514 0.0112966771
v -0.00542936689 -0.0219978514 0.0109287972
v -0.00567171937 -0.0219978514 0.0127696271
v -0.00542936689 -0.0219978514 0.0124538417
v -0.00567171937 -0.0219978514 0.0106130118
v -0.00732002622 -0.0219978514 0.0141999002
v -0.0067499674 -0.0219978514 0.0132163043
v -0.00635526544 -0.0219978514 0.0131643291
v -0.00598750478 -0.0219978514 0.0130119796
v -0.00527701742 -0.0219978514 0.012086081
v -0.00522504217 -0.0219978514 0.0116913791
v -0.00598750478 -0.0219978514 0.0103706594
v -0.00635526544 -0.0219978514 0.0102183099
v -0.0067499674 -0.0219978514 0.0101663346
v -0.00822303659 -0.0219978514 0.012086081
v -0.00807068712 -0.0219978514 0.0124538417
v -0.00945566064 -0.0219978514 0.0129069562
v -0.00782833463 -0.0219978514 0.0127696271
v -0.00786266691 -0.0219978514 0.0139347787
v -0.00751254922 -0.0219978514 0.0130119796
v -0.00714466935 -0.0219978514 0.0131643291
v -0.00714466935 -0.0219978514 0.0102183099
v -0.00751254922 -0.0219978514 0.0103706594
v -0.0138563908 -0.0219978514 0.00799994421
v -0.00782833463 -0.0219978514 0.0106130118
v -0.00807068712 -0.0219978514 0.0109287972
v -0.00827501184 -0.0219978514 0.0116913791
v -0.0109158552 -0.0219978514 0.0116980548
v -0.00822303659 -0.0219978514 0.0112966771
v -0.0122227467 -0.0219978514 0.010324883
v -0.0133580959 -0.0219978514 0.00880675268
v -0.00615940458 -0.0219978514 0.0147668595
v -0.00518892175 -0.0219978514 0.0151057715
v -0.00251851446 -0.0219978514 0.0158005233
v -0.00436971551 -0.0219978514 0.0153917546
v -0.0030555523 -0.0219978514 0.013873982
v 0.00299312705 -0.0219978514 0.015709209
v 0.00126328105 -0.0219978514 0.0159500117
v -0.000632146657 -0.0219978514 0.0159875627
v -0.0019082821 -0.0219978514 0.0158609624
v 0.00314082736 -0.0219978514 0.015688705
v 0.00567164057 -0.0219978514 0.0127696271
v 0.00782837504 -0.0219978514 0.0106130118
v 0.00751247042 -0.0219978514 0.0103706594
v 0.00807072753 -0.0219978514 0.0109287972
v 0.00497438544 -0.0219978514 0.0152070994
v 0.00714470976 -0.0219978514 0.0102183099
v 0.00675000781 -0.0219978514 0.0101663346
v 0.00635530585 -0.0219978514 0.0102183099
v 0.00598754519 -0.0219978514 0.0130119796
v 0.00635530585 -0.0219978514 0.0131643291
v 0.00673796767 -0.0219978514 0.0145119901
v 0.00675000781 -0.0219978514 0.0132163043
v 0.00714470976 -0.0219978514 0.0131643291
v 0.00840713614 -0.0219978514 0.0136132712
v 0.00751247042 -0.0219978514 0.0130119796
v 0.00782837504 -0.0219978514 0.0127696271
v 0.00995816821 -0.0219978514 0.0125233407
v 0.008223077 -0.0219978514 0.0112966771
v 0.0120978557 -0.0219978514 0.0104291911
v 0.00827505225 -0.0219978514 0.0116913791
v 0.011369487 -0.0219978514 0.0112576957
v 0.008223077 -0.0219978514 0.012086081
v 0.00807072753 -0.0219978514 0.0124538417
v 0.00598754519 -0.0219978514 0.0103706594
v 0.00567164057 -0.0219978514 0.0106130118
v 0.00542928809 -0.0219978514 0.0109287972
v 0.00527693862 -0.0219978514 0.0112966771
v 0.00522496337 -0.0219978514 0.0116913791
v 0.00527693862 -0.0219978514 0.012086081
v 0.00542928809 -0.0219978514 0.0124538417
v 0.0126211845 -0.0219978514 0.00983397913
v 0.0136956179 -0.0219978514 0.00827221823
v 0.0152554714 -0.0219978514 0.00482385111
v 0.0146955454 -0.0219978514 0.00628702593
v 0.0145778858 -0.0219978514 0.00659434748
v 0.0159652435 -0.0219978514 0.000756191732
v 0.0159617864 -0.0219978514 0.00110559416
v 0.0134999954 -0.0219978514 0.00152497244
v 0.0131052935 -0.0219978514 0.00147299719
v 0.0127375328 -0.0219978514 0.00132064772
v 0.0148207151 -0.0219978514 0.000762509824
v 0.0149730646 -0.0219978514 0.000394749166
v 0.0150250399 -0.0219978514 4.72079353e-08
v 0.0159805023 -0.0219978514 -0.000790071963
v 0.0149730646 -0.0219978514 -0.00039465475
v 0.0158800089 -0.0219978514 -0.00171144056
v 0.0148207151 -0.0219978514 -0.000762534617
v 0.0145783626 -0.0219978514 -0.00107832003
v 0.0126511061 -0.0219978514 -0.00730414438
v 0.014262458 -0.0219978514 -0.00132067251
v 0.0138946974 -0.0219978514 -0.00147302198
v 0.0138946974 -0.0219978514 0.00147299719
v 0.014262458 -0.0219978514 0.00132064772
v 0.0145783626 -0.0219978514 0.00107829523
v 0.0134999954 -0.0219978514 -0.00152499723
v 0.0131052935 -0.0219978514 -0.00147302198
v 0.0127375328 -0.0219978514 -0.00132067251
v 0.0124216282 -0.0219978514 -0.00107832003
v 0.0121792757 -0.0219978514 -0.000762534617
v 0.0120269262 -0.0219978514 -0.00039465475
v 0.011974951 -0.0219978514 4.72079353e-08
v 0.0120269262 -0.0219978514 0.000394749166
v 0.0121792757 -0.0219978514 0.000762509824
v 0.0124216282 -0.0219978514 0.00107829523
v 0.0138564312 -0.0219978514 -0.007999969
v 0.0147053205 -0.0219978514 -0.00630505133
v 0.0153478586 -0.0219978514 -0.00452156114
v 0.0157748663 -0.0219978514 -0.00267453241
v 0.00942208403 -0.0219978514 -0.012896729
v 0.0102036201 -0.0219978514 -0.0123241668
v 0.0115896665 -0.0219978514 -0.0110308652
v 0.0128129923 -0.0219978514 -0.00958271074
v 0.00751247042 -0.0219978514 -0.0130120044
v 0.00732769602 -0.0219978514 -0.0142043357
v 0.00782837504 -0.0219978514 -0.0127696519
v 0.00867440337 -0.0219978514 -0.0134444957
v 0.00807072753 -0.0219978514 -0.0124538665
v 0.00675000781 -0.0219978514 -0.0101663594
v 0.00635530585 -0.0219978514 -0.0102183347
v 0.00598754519 -0.0219978514 -0.0103706841
v 0.00807072753 -0.0219978514 -0.010928822
v 0.008223077 -0.0219978514 -0.0112967019
v 0.00827505225 -0.0219978514 -0.0116912847
v 0.008223077 -0.0219978514 -0.0120859866
v 0.00714470976 -0.0219978514 -0.0131643538
v 0.00675000781 -0.0219978514 -0.0132163291
v 0.00635530585 -0.0219978514 -0.0131643538
v 0.00598754519 -0.0219978514 -0.0130120044
v 0.00567164057 -0.0219978514 -0.0127696519
v 0.00714470976 -0.0219978514 -0.0102183347
v 0.00751247042 -0.0219978514 -0.0103706841
v 0.00782837504 -0.0219978514 -0.0106130366
v 0.00542928809 -0.0219978514 -0.0124538665
v 0.00527693862 -0.0219978514 -0.0120859866
v 0.00522496337 -0.0219978514 -0.0116912847
v 0.00527693862 -0.0219978514 -0.0112967019
v 0.00542928809 -0.0219978514 -0.010928822
v 0.00567164057 -0.0219978514 -0.0106130366
v 0.00521697634 -0.0219978514 -0.0151220088
v 0.00527383917 -0.0219978514 -0.0151059155
v 0.00702335471 -0.0219978514 -0.0143761163
v 0.00305547351 -0.0219978514 -0.0138740067
v 0.0019030773 -0.0219978514 -0.0158701663
v 0.00345017546 -0.0219978514 -0.0156235223
v 0.00157811278 -0.0219978514 -0.0159220223
v -0.000316122831 -0.0219978514 -0.0159968858
v -0.00527701742 -0.0219978514 -0.0120859866
v -0.00298295385 -0.0219978514 -0.0156915908
v -0.0022059477 -0.0219978514 -0.0158471589
v -0.00807068712 -0.0219978514 -0.010928822
v -0.00782833463 -0.0219978514 -0.0106130366
v -0.00751254922 -0.0219978514 -0.0103706841
v -0.00714466935 -0.0219978514 -0.0102183347
v -0.0067499674 -0.0219978514 -0.0101663594
v -0.00542936689 -0.0219978514 -0.010928822
v -0.00527701742 -0.0219978514 -0.0112967019
v -0.00522504217 -0.0219978514 -0.0116912847
v -0.00542936689 -0.0219978514 -0.0124538665
v -0.00567171937 -0.0219978514 -0.0127696519
v -0.00406465894 -0.0219978514 -0.0154751067
v -0.00598750478 -0.0219978514 -0.0130120044
v -0.00586650735 -0.0219978514 -0.014885736
v -0.00919876462 -0.0219978514 -0.0130912786
v -0.00758586294 -0.0219978514 -0.0140873914
v -0.00751254922 -0.0219978514 -0.0130120044
v -0.00635526544 -0.0219978514 -0.0102183347
v -0.00598750478 -0.0219978514 -0.0103706841
v -0.00567171937 -0.0219978514 -0.0106130366
v -0.00635526544 -0.0219978514 -0.0131643538
v -0.0067499674 -0.0219978514 -0.0132163291
v -0.00714466935 -0.0219978514 -0.0131643538
v -0.00782833463 -0.0219978514 -0.0127696519
v -0.00807068712 -0.0219978514 -0.0124538665
v -0.0106825627 -0.0219978514 -0.0119114642
v -0.00822303659 -0.0219978514 -0.0120859866
v -0.00827501184 -0.0219978514 -0.0116912847
v -0.0120163954 -0.0219978514 -0.0105643992
v -0.00822303659 -0.0219978514 -0.0112967019
v -0.0121080673 -0.0219978514 -0.0104467397
v -0.0146902598 -0.0219978514 -0.00627787161
v -0.0141616858 -0.0219978514 -0.00744636106
v -0.013181547 -0.0219978514 -0.00906903791
v -0.0155144728 -0.0219978514 -0.00391168642
v -0.0149429834 -0.0219978514 -0.00571913767
v -0.0159055985 -0.0219978514 0.00173537684
v -0.0148206747 -0.0219978514 0.000762509824
v -0.0145783222 -0.0219978514 0.00107829523
v -0.012027005 -0.0219978514 -0.00039465475
v -0.0121793545 -0.0219978514 -0.000762534617
v -0.012421707 -0.0219978514 -0.00107832003
v -0.012421707 -0.0219978514 0.00107829523
v -0.0121793545 -0.0219978514 0.000762509824
v -0.012027005 -0.0219978514 0.000394749166
v -0.0119750298 -0.0219978514 4.72079353e-08
v -0.0127374924 -0.0219978514 -0.00132067251
v -0.013105253 -0.0219978514 -0.00147302198
v -0.013499955 -0.0219978514 -0.00152499723
v -0.013894657 -0.0219978514 -0.00147302198
v -0.0142625368 -0.0219978514 -0.00132067251
v -0.0159574545 -0.0219978514 -0.000760627269
v -0.0145783222 -0.0219978514 -0.00107832003
v -0.0155887402 -0.0219978514 0.00360434008
v -0.0142625368 -0.0219978514 0.00132064772
v -0.0150530136 -0.0219978514 0.00542275858
v -0.013894657 -0.0219978514 0.00147299719
v -0.0143060482 -0.0219978514 0.00716512156
v -0.013499955 -0.0219978514 0.00152497244
v -0.013105253 -0.0219978514 0.00147299719
v -0.0127374924 -0.0219978514 0.00132064772
v -0.0148206747 -0.0219978514 -0.000762534617
v -0.0149730242 -0.0219978514 -0.00039465475
v -0.0159991778 -0.0219978514 -0.00015802431
v -0.0150249994 -0.0219978514 4.72079353e-08
v -0.0149730242 -0.0219978514 0.000394749166
f 1 2 3
f 4 5 6
f 6 5 7
f 6 7 8
f 8 9 6
f 6 9 10
f 6 10 11
f 11 10 12
f 11 12 13
f 14 15 16
f 16 15 17
f 16 17 18
f 13 19 11
f 11 19 20
f 11 20 16
f 16 20 21
f 16 21 14
f 22 23 24
f 24 23 25
f 24 25 26
f 26 25 18
f 27 28 29
f 22 30 23
f 23 30 31
f 23 31 27
f 27 31 32
f 27 32 28
f 33 34 35
f 35 34 36
f 35 36 4
f 37 38 39
f 39 38 40
f 39 40 41
f 42 43 44
f 45 46 47
f 47 46 48
f 47 48 49
f 40 50 41
f 41 50 51
f 41 51 52
f 52 51 53
f 52 53 54
f 54 53 55
f 54 55 56
f 56 55 57
f 56 57 42
f 42 57 58
f 42 58 43
f 44 59 42
f 42 59 60
f 42 60 47
f 47 60 61
f 47 61 45
f 62 63 64
f 65 66 67
f 67 66 68
f 64 69 62
f 62 69 70
f 62 70 39
f 39 70 71
f 39 71 37
f 2 1 72
f 72 1 73
f 72 73 74
f 74 75 72
f 72 75 76
f 72 76 77
f 3 67 62
f 62 67 68
f 62 68 63
f 78 79 80
f 80 79 81
f 78 82 79
f 79 82 83
f 79 83 42
f 83 84 42
f 42 84 85
f 42 85 86
f 86 87 42
f 42 87 88
f 42 88 56
f 56 88 89
f 56 89 90
f 91 92 93
f 93 92 90
f 90 92 94
f 90 94 56
f 95 96 97
f 97 96 98
f 97 98 99
f 99 98 91
f 99 91 100
f 100 91 93
f 95 101 96
f 96 101 102
f 96 102 103
f 102 104 103
f 103 104 105
f 103 105 106
f 106 105 107
f 108 109 110
f 110 109 111
f 110 111 112
f 113 110 114
f 114 110 115
f 107 108 106
f 106 108 110
f 106 110 116
f 116 110 113
f 115 110 117
f 117 110 118
f 117 118 119
f 120 121 122
f 122 121 123
f 122 123 118
f 118 123 124
f 118 124 119
f 125 126 127
f 128 129 130
f 130 129 131
f 125 127 132
f 133 122 134
f 134 122 130
f 134 130 135
f 135 130 131
f 133 136 122
f 122 136 137
f 122 137 138
f 127 139 132
f 132 139 140
f 132 140 141
f 138 142 122
f 122 142 143
f 122 143 120
f 120 143 144
f 120 144 145
f 145 146 120
f 120 146 147
f 120 147 125
f 125 147 148
f 125 148 126
f 141 149 132
f 132 149 150
f 132 150 130
f 130 150 151
f 130 151 128
f 152 153 130
f 130 153 154
f 130 154 132
f 155 156 130
f 130 156 157
f 130 157 152
f 155 158 159
f 159 160 155
f 155 160 161
f 155 161 156
f 162 163 155
f 164 158 165
f 163 166 155
f 155 166 167
f 155 167 158
f 158 167 168
f 158 168 165
f 169 170 171
f 171 170 164
f 171 164 172
f 172 164 165
f 169 173 170
f 170 173 174
f 170 174 175
f 175 174 176
f 175 176 177
f 177 176 178
f 177 178 16
f 179 180 181
f 181 180 182
f 181 182 162
f 178 183 16
f 16 183 184
f 16 184 185
f 185 186 16
f 16 186 187
f 16 187 11
f 11 187 188
f 11 188 189
f 189 190 11
f 11 190 191
f 11 191 181
f 181 191 192
f 181 192 179
f 193 194 16
f 16 194 195
f 16 195 177
f 18 25 16
f 16 25 196
f 16 196 197
f 197 198 16
f 16 198 199
f 16 199 193
f 200 201 202
f 202 201 27
f 203 204 205
f 206 207 200
f 200 207 208
f 200 208 209
f 209 208 210
f 209 210 211
f 211 210 205
f 211 205 212
f 212 205 204
f 213 214 215
f 215 214 216
f 215 216 217
f 217 218 215
f 215 218 219
f 215 219 205
f 205 219 220
f 205 220 203
f 213 221 214
f 214 221 222
f 214 222 223
f 223 224 214
f 214 224 225
f 214 225 226
f 77 227 72
f 72 227 228
f 72 228 229
f 230 231 77
f 77 231 232
f 77 232 227
f 226 233 214
f 214 233 231
f 214 231 234
f 234 231 230
f 200 202 206
f 206 202 235
f 206 235 236
f 228 237 229
f 229 237 238
f 229 238 235
f 235 238 239
f 235 239 240
f 240 241 235
f 235 241 242
f 235 242 243
f 243 244 235
f 235 244 245
f 235 245 236
f 246 47 247
f 247 47 248
f 247 248 249
f 246 250 47
f 47 250 251
f 47 251 42
f 42 251 252
f 253 254 255
f 255 254 256
f 255 256 248
f 248 256 257
f 248 257 249
f 253 255 258
f 258 255 259
f 258 259 260
f 11 261 262
f 6 263 264
f 11 262 6
f 6 262 265
f 6 265 263
f 264 266 6
f 6 266 267
f 6 267 259
f 259 267 268
f 259 268 260
f 269 270 271
f 181 272 273
f 269 271 181
f 181 271 274
f 181 274 272
f 273 275 181
f 181 275 276
f 181 276 11
f 11 276 277
f 11 277 261
f 278 279 280
f 280 279 269
f 269 279 281
f 269 281 270
f 282 283 284
f 284 283 285
f 284 285 280
f 280 285 286
f 280 286 278
f 282 284 287
f 287 284 79
f 287 79 288
f 252 289 42
f 42 289 290
f 42 290 79
f 79 290 291
f 79 291 288
f 3 2 67
f 67 2 72
f 67 72 292
f 292 72 229
f 292 229 293
f 294 295 235
f 235 295 296
f 235 296 297
f 298 229 299
f 299 229 235
f 299 235 300
f 300 235 297
f 298 301 229
f 229 301 302
f 229 302 303
f 304 305 293
f 293 305 306
f 307 308 309
f 306 310 293
f 293 310 311
f 293 311 307
f 307 311 312
f 307 312 308
f 303 313 229
f 229 313 314
f 229 314 293
f 293 314 315
f 293 315 304
f 309 316 307
f 307 316 317
f 307 317 318
f 29 33 27
f 27 33 35
f 27 35 202
f 202 35 307
f 202 307 235
f 235 307 318
f 235 318 294
f 4 6 35
f 35 6 259
f 35 259 307
f 307 259 255
f 307 255 293
f 293 255 248
f 293 248 292
f 292 248 47
f 292 47 67
f 67 47 49
f 67 49 65
f 162 155 181
f 181 155 130
f 181 130 269
f 269 130 122
f 269 122 280
f 280 122 118
f 280 118 284
f 284 118 110
f 284 110 79
f 79 110 112
f 79 112 81
f 319 320 321
f 322 323 324
f 323 322 325
f 326 327 328
f 329 330 331
f 332 333 334
f 335 336 337
f 337 336 338
f 339 340 341
f 342 343 344
f 344 343 345
f 344 345 332
f 332 345 346
f 332 346 333
f 336 347 338
f 338 347 348
f 338 348 341
f 341 348 349
f 341 349 339
f 340 350 341
f 341 350 351
f 341 351 344
f 344 351 352
f 344 352 342
f 353 354 355
f 356 357 358
f 358 359 356
f 356 359 360
f 356 360 337
f 337 360 361
f 337 361 335
f 334 362 332
f 332 362 363
f 332 363 355
f 355 363 364
f 355 364 353
f 365 366 367
f 367 366 368
f 367 368 369
f 370 371 372
f 372 371 373
f 372 373 374
f 374 373 375
f 374 375 376
f 377 378 341
f 341 378 379
f 341 379 376
f 369 380 367
f 367 380 381
f 367 381 344
f 344 381 382
f 344 382 383
f 383 384 344
f 344 384 385
f 344 385 341
f 341 385 386
f 341 386 377
f 387 388 389
f 389 390 387
f 387 390 391
f 387 391 392
f 392 391 393
f 392 393 394
f 370 395 371
f 371 395 396
f 371 396 388
f 388 396 397
f 388 397 389
f 398 399 400
f 401 402 403
f 403 402 404
f 405 406 403
f 403 406 407
f 403 407 401
f 408 409 405
f 405 409 410
f 405 410 406
f 400 399 411
f 411 399 412
f 411 412 413
f 412 414 413
f 413 414 415
f 413 415 416
f 416 415 417
f 416 417 418
f 418 417 419
f 418 419 420
f 420 419 421
f 420 421 405
f 405 421 422
f 405 422 408
f 423 424 425
f 425 424 426
f 425 426 427
f 426 428 427
f 427 428 429
f 427 429 400
f 400 429 430
f 400 430 398
f 431 432 433
f 433 432 434
f 433 434 423
f 435 436 437
f 438 439 440
f 440 439 441
f 440 441 442
f 443 444 405
f 436 435 445
f 445 435 446
f 445 446 447
f 442 448 440
f 440 448 449
f 440 449 405
f 405 449 450
f 405 450 443
f 444 451 405
f 405 451 452
f 405 452 420
f 420 452 453
f 420 453 454
f 447 446 455
f 455 446 456
f 455 456 454
f 454 456 457
f 454 457 420
f 458 459 460
f 460 459 461
f 460 461 462
f 462 461 463
f 462 463 464
f 437 465 435
f 435 465 466
f 435 466 460
f 460 466 467
f 460 467 458
f 468 469 470
f 331 330 324
f 324 330 471
f 324 471 469
f 468 470 472
f 472 470 473
f 472 473 474
f 475 476 477
f 477 476 478
f 479 480 331
f 331 480 481
f 331 481 329
f 475 482 476
f 476 482 483
f 476 483 331
f 331 483 484
f 331 484 479
f 485 486 487
f 487 486 488
f 487 488 489
f 489 488 490
f 489 490 491
f 485 492 486
f 486 492 493
f 486 493 494
f 494 495 486
f 486 495 496
f 486 496 497
f 497 496 498
f 474 473 499
f 499 473 500
f 499 500 501
f 501 502 499
f 499 502 503
f 499 503 504
f 504 503 505
f 504 505 506
f 506 505 507
f 507 505 508
f 507 508 496
f 496 508 509
f 496 509 498
f 491 478 489
f 489 478 510
f 489 510 511
f 511 510 355
f 511 355 356
f 356 355 354
f 356 354 357
f 512 513 341
f 341 513 514
f 341 514 338
f 515 516 341
f 341 516 517
f 341 517 512
f 376 375 341
f 341 375 518
f 341 518 515
f 519 520 392
f 392 520 521
f 392 521 387
f 522 523 524
f 524 523 525
f 522 526 523
f 523 526 527
f 523 527 392
f 392 527 528
f 392 528 519
f 529 530 531
f 531 530 532
f 531 532 523
f 523 532 533
f 523 533 534
f 326 328 535
f 534 536 523
f 523 536 537
f 523 537 538
f 539 540 531
f 531 540 541
f 531 541 529
f 542 543 544
f 544 543 525
f 544 525 545
f 545 525 546
f 538 547 523
f 523 547 548
f 523 548 525
f 525 548 549
f 525 549 546
f 542 550 543
f 543 550 551
f 543 551 328
f 328 551 552
f 328 552 535
f 553 531 554
f 554 531 555
f 554 555 556
f 327 539 328
f 328 539 531
f 328 531 557
f 557 531 553
f 423 425 433
f 433 425 558
f 433 558 559
f 559 560 433
f 433 560 561
f 433 561 555
f 555 561 562
f 555 562 556
f 469 468 324
f 324 468 563
f 324 563 564
f 564 565 324
f 324 565 566
f 324 566 322
f 567 403 568
f 568 403 569
f 568 569 570
f 567 571 403
f 403 571 572
f 403 572 405
f 405 572 573
f 574 575 576
f 576 575 577
f 576 577 578
f 574 579 575
f 575 579 580
f 575 580 569
f 569 580 581
f 569 581 570
f 582 583 367
f 367 583 584
f 584 585 367
f 367 585 586
f 367 586 577
f 577 586 587
f 577 587 578
f 582 367 588
f 588 367 344
f 588 344 589
f 590 591 592
f 593 332 594
f 594 332 595
f 593 596 332
f 332 596 597
f 332 597 344
f 344 597 598
f 344 598 589
f 599 600 601
f 601 600 590
f 590 600 602
f 590 602 591
f 603 604 605
f 605 604 606
f 605 606 601
f 601 606 607
f 601 607 599
f 603 605 608
f 608 605 440
f 608 440 609
f 573 610 405
f 405 610 611
f 405 611 440
f 440 611 612
f 440 612 609
f 394 365 392
f 392 365 367
f 392 367 523
f 523 367 577
f 523 577 531
f 531 577 575
f 531 575 555
f 555 575 569
f 555 569 433
f 433 569 403
f 433 403 431
f 431 403 404
f 590 613 601
f 601 613 321
f 601 321 605
f 605 321 614
f 605 614 440
f 440 614 462
f 440 462 438
f 438 462 464
f 615 616 331
f 331 616 617
f 331 617 618
f 619 620 476
f 476 620 621
f 476 621 622
f 623 624 613
f 625 626 321
f 321 626 627
f 321 627 319
f 320 615 321
f 321 615 331
f 321 331 614
f 614 331 324
f 614 324 462
f 462 324 323
f 462 323 460
f 460 323 325
f 618 628 331
f 331 628 629
f 331 629 476
f 476 629 630
f 476 630 619
f 624 631 613
f 613 631 632
f 613 632 321
f 321 632 633
f 321 633 625
f 622 634 476
f 476 634 635
f 476 635 613
f 613 635 636
f 613 636 623
f 478 476 510
f 510 476 613
f 510 613 355
f 355 613 590
f 355 590 332
f 332 590 592
f 332 592 595
f 73 566 565
f 73 565 74
f 74 565 564
f 74 564 75
f 75 564 563
f 75 563 76
f 76 563 77
f 77 563 468
f 77 468 230
f 468 472 230
f 230 472 474
f 230 474 234
f 234 474 214
f 214 474 499
f 214 499 216
f 499 504 216
f 216 504 506
f 216 506 217
f 217 506 507
f 217 507 218
f 218 507 219
f 219 507 496
f 219 496 220
f 496 495 220
f 220 495 494
f 220 494 203
f 203 494 493
f 203 493 204
f 204 493 492
f 204 492 212
f 212 492 485
f 212 485 211
f 211 485 487
f 211 487 209
f 514 196 338
f 338 196 25
f 338 25 337
f 337 25 23
f 337 23 356
f 356 23 27
f 356 27 511
f 511 27 201
f 511 201 489
f 489 201 200
f 489 200 487
f 487 200 209
f 196 514 513
f 196 513 197
f 197 513 512
f 197 512 198
f 198 512 199
f 199 512 517
f 199 517 193
f 517 516 193
f 193 516 515
f 193 515 194
f 194 515 518
f 194 518 195
f 195 518 177
f 177 518 375
f 177 375 175
f 175 375 373
f 175 373 170
f 170 373 371
f 170 371 164
f 164 371 388
f 164 388 158
f 158 388 387
f 158 387 159
f 387 521 159
f 159 521 520
f 159 520 160
f 160 520 519
f 160 519 161
f 161 519 156
f 156 519 528
f 156 528 157
f 528 527 157
f 157 527 526
f 157 526 152
f 152 526 522
f 152 522 153
f 153 522 524
f 153 524 154
f 154 524 132
f 132 524 525
f 132 525 125
f 125 525 543
f 125 543 120
f 120 543 328
f 120 328 121
f 328 557 121
f 121 557 553
f 121 553 123
f 123 553 124
f 124 553 554
f 124 554 119
f 554 556 119
f 119 556 562
f 119 562 117
f 117 562 115
f 115 562 561
f 115 561 114
f 561 560 114
f 114 560 559
f 114 559 113
f 113 559 558
f 113 558 116
f 116 558 106
f 106 558 425
f 106 425 103
f 103 425 427
f 103 427 96
f 96 427 400
f 96 400 98
f 400 411 98
f 98 411 413
f 98 413 91
f 91 413 416
f 91 416 92
f 92 416 418
f 92 418 94
f 94 418 56
f 56 418 420
f 56 420 54
f 420 457 54
f 54 457 456
f 54 456 52
f 52 456 446
f 52 446 41
f 566 73 322
f 322 73 1
f 322 1 325
f 325 1 3
f 325 3 460
f 460 3 62
f 460 62 435
f 435 62 39
f 435 39 446
f 446 39 41
f 318 635 294
f 294 635 634
f 294 634 295
f 295 634 622
f 295 622 296
f 296 622 621
f 296 621 297
f 297 621 620
f 297 620 300
f 300 620 619
f 300 619 299
f 299 619 630
f 299 630 298
f 298 630 629
f 298 629 301
f 301 629 628
f 301 628 302
f 302 628 618
f 302 618 303
f 303 618 617
f 303 617 313
f 313 617 616
f 313 616 314
f 314 616 615
f 314 615 315
f 315 615 320
f 315 320 304
f 304 320 319
f 304 319 305
f 305 319 627
f 305 627 306
f 306 627 626
f 306 626 310
f 310 626 625
f 310 625 311
f 311 625 633
f 311 633 312
f 312 633 632
f 312 632 308
f 308 632 631
f 308 631 309
f 309 631 624
f 309 624 316
f 316 624 623
f 316 623 317
f 317 623 636
f 317 636 318
f 318 636 635
f 208 490 210
f 210 490 488
f 210 488 205
f 205 488 486
f 205 486 215
f 215 486 497
f 215 497 213
f 213 497 498
f 213 498 221
f 221 498 509
f 221 509 222
f 222 509 508
f 222 508 223
f 223 508 505
f 223 505 224
f 224 505 503
f 224 503 225
f 225 503 502
f 225 502 226
f 226 502 501
f 226 501 233
f 233 501 500
f 233 500 231
f 231 500 473
f 231 473 232
f 232 473 470
f 232 470 227
f 227 470 469
f 227 469 228
f 228 469 471
f 228 471 237
f 237 471 330
f 237 330 238
f 238 330 329
f 238 329 239
f 239 329 481
f 239 481 240
f 240 481 480
f 240 480 241
f 241 480 479
f 241 479 242
f 242 479 484
f 242 484 243
f 243 484 483
f 243 483 244
f 244 483 482
f 244 482 245
f 245 482 475
f 245 475 236
f 236 475 477
f 236 477 206
f 206 477 478
f 206 478 207
f 207 478 491
f 207 491 208
f 208 491 490
f 45 448 46
f 46 448 442
f 46 442 48
f 48 442 441
f 48 441 49
f 49 441 439
f 49 439 65
f 65 439 438
f 65 438 66
f 66 438 464
f 66 464 68
f 68 464 463
f 68 463 63
f 63 463 461
f 63 461 64
f 64 461 459
f 64 459 69
f 69 459 458
f 69 458 70
f 70 458 467
f 70 467 71
f 71 467 466
f 71 466 37
f 37 466 465
f 37 465 38
f 38 465 437
f 38 437 40
f 40 437 436
f 40 436 50
f 50 436 445
f 50 445 51
f 51 445 447
f 51 447 53
f 53 447 455
f 53 455 55
f 55 455 454
f 55 454 57
f 57 454 453
f 57 453 58
f 58 453 452
f 58 452 43
f 43 452 451
f 43 451 44
f 44 451 444
f 44 444 59
f 59 444 443
f 59 443 60
f 60 443 450
f 60 450 61
f 61 450 449
f 61 449 45
f 45 449 448
f 82 401 83
f 83 401 407
f 83 407 84
f 84 407 406
f 84 406 85
f 85 406 410
f 85 410 86
f 86 410 409
f 86 409 87
f 87 409 408
f 87 408 88
f 88 408 422
f 88 422 89
f 89 422 421
f 89 421 90
f 90 421 419
f 90 419 93
f 93 419 417
f 93 417 100
f 100 417 415
f 100 415 99
f 99 415 414
f 99 414 97
f 97 414 412
f 97 412 95
f 95 412 399
f 95 399 101
f 101 399 398
f 101 398 102
f 102 398 430
f 102 430 104
f 104 430 429
f 104 429 105
f 105 429 428
f 105 428 107
f 107 428 426
f 107 426 108
f 108 426 424
f 108 424 109
f 109 424 423
f 109 423 111
f 111 423 434
f 111 434 112
f 112 434 432
f 112 432 81
f 81 432 431
f 81 431 80
f 80 431 404
f 80 404 78
f 78 404 402
f 78 402 82
f 82 402 401
f 150 548 151
f 151 548 547
f 151 547 128
f 128 547 538
f 128 538 129
f 129 538 537
f 129 537 131
f 131 537 536
f 131 536 135
f 135 536 534
f 135 534 134
f 134 534 533
f 134 533 133
f 133 533 532
f 133 532 136
f 136 532 530
f 136 530 137
f 137 530 529
f 137 529 138
f 138 529 541
f 138 541 142
f 142 541 540
f 142 540 143
f 143 540 539
f 143 539 144
f 144 539 327
f 144 327 145
f 145 327 326
f 145 326 146
f 146 326 535
f 146 535 147
f 147 535 552
f 147 552 148
f 148 552 551
f 148 551 126
f 126 551 550
f 126 550 127
f 127 550 542
f 127 542 139
f 139 542 544
f 139 544 140
f 140 544 545
f 140 545 141
f 141 545 546
f 141 546 149
f 149 546 549
f 149 549 150
f 150 549 548
f 176 372 178
f 178 372 374
f 178 374 183
f 183 374 376
f 183 376 184
f 184 376 379
f 184 379 185
f 185 379 378
f 185 378 186
f 186 378 377
f 186 377 187
f 187 377 386
f 187 386 188
f 188 386 385
f 188 385 189
f 189 385 384
f 189 384 190
f 190 384 383
f 190 383 191
f 191 383 382
f 191 382 192
f 192 382 381
f 192 381 179
f 179 381 380
f 179 380 180
f 180 380 369
f 180 369 182
f 182 369 368
f 182 368 162
f 162 368 366
f 162 366 163
f 163 366 365
f 163 365 166
f 166 365 394
f 166 394 167
f 167 394 393
f 167 393 168
f 168 393 391
f 168 391 165
f 165 391 390
f 165 390 172
f 172 390 389
f 172 389 171
f 171 389 397
f 171 397 169
f 169 397 396
f 169 396 173
f 173 396 395
f 173 395 174
f 174 395 370
f 174 370 176
f 176 370 372
f 24 347 22
f 22 347 336
f 22 336 30
f 30 336 335
f 30 335 31
f 31 335 361
f 31 361 32
f 32 361 360
f 32 360 28
f 28 360 359
f 28 359 29
f 29 359 358
f 29 358 33
f 33 358 357
f 33 357 34
f 34 357 354
f 34 354 36
f 36 354 353
f 36 353 4
f 4 353 364
f 4 364 5
f 5 364 363
f 5 363 7
f 7 363 362
f 7 362 8
f 8 362 334
f 8 334 9
f 9 334 333
f 9 333 10
f 10 333 346
f 10 346 12
f 12 346 345
f 12 345 13
f 13 345 343
f 13 343 19
f 19 343 342
f 19 342 20
f 20 342 352
f 20 352 21
f 21 352 351
f 21 351 14
f 14 351 350
f 14 350 15
f 15 350 340
f 15 340 17
f 17 340 339
f 17 339 18
f 18 339 349
f 18 349 26
f 26 349 348
f 26 348 24
f 24 348 347
f 610 289 611
f 611 289 252
f 611 252 612
f 612 252 251
f 612 251 609
f 609 251 250
f 609 250 608
f 608 250 246
f 608 246 603
f 603 246 247
f 603 247 604
f 604 247 249
f 604 249 606
f 606 249 257
f 606 257 607
f 607 257 256
f 607 256 599
f 599 256 254
f 599 254 600
f 600 254 253
f 600 253 602
f 602 253 258
f 602 258 591
f 591 258 260
f 591 260 592
f 592 260 268
f 592 268 595
f 595 268 267
f 595 267 594
f 594 267 266
f 594 266 593
f 593 266 264
f 593 264 596
f 596 264 263
f 596 263 597
f 597 263 265
f 597 265 598
f 598 265 262
f 598 262 589
f 589 262 261
f 589 261 588
f 588 261 277
f 588 277 582
f 582 277 276
f 582 276 583
f 583 276 275
f 583 275 584
f 584 275 273
f 584 273 585
f 585 273 272
f 585 272 586
f 586 272 274
f 586 274 587
f 587 274 271
f 587 271 578
f 578 271 270
f 578 270 576
f 576 270 281
f 576 281 574
f 574 281 279
f 574 279 579
f 579 279 278
f 579 278 580
f 580 278 286
f 580 286 581
f 581 286 285
f 581 285 570
f 570 285 283
f 570 283 568
f 568 283 282
f 568 282 567
f 567 282 287
f 567 287 571
f 571 287 288
f 571 288 572
f 572 288 291
f 572 291 573
f 573 291 290
f 573 290 610
f 610 290 289
f 637 638 639
f 640 641 642
f 643 644 645
f 646 647 648
f 649 650 651
f 652 653 654
f 655 656 657
f 657 656 658
f 658 659 657
f 657 659 660
f 657 660 661
f 662 663 664
f 664 663 654
f 665 666 639
f 639 666 667
f 639 667 668
f 668 667 669
f 668 669 670
f 653 671 654
f 654 671 672
f 654 672 664
f 673 645 674
f 674 645 675
f 676 677 645
f 645 677 678
f 645 678 675
f 679 680 676
f 676 680 681
f 676 681 677
f 682 683 679
f 679 683 684
f 679 684 685
f 685 686 679
f 679 686 687
f 679 687 680
f 688 689 690
f 690 689 651
f 691 692 648
f 648 692 693
f 648 693 694
f 694 693 695
f 694 695 696
f 650 697 651
f 651 697 698
f 651 698 690
f 699 700 701
f 701 700 702
f 703 704 705
f 705 704 706
f 705 706 700
f 700 706 707
f 700 707 702
f 708 709 710
f 710 709 711
f 710 711 712
f 712 711 713
f 712 713 714
f 714 713 715
f 714 715 716
f 717 700 718
f 718 700 719
f 716 720 714
f 714 720 721
f 714 721 700
f 700 721 722
f 700 722 719
f 723 705 724
f 724 705 725
f 717 726 700
f 700 726 727
f 700 727 705
f 705 727 728
f 705 728 725
f 723 729 705
f 705 729 730
f 705 730 731
f 731 730 732
f 731 732 733
f 708 710 734
f 734 710 735
f 734 735 736
f 736 735 737
f 736 737 733
f 733 737 738
f 733 738 731
f 739 740 741
f 741 740 742
f 742 743 741
f 741 743 744
f 741 744 700
f 700 744 745
f 700 745 714
f 689 746 747
f 748 749 750
f 748 750 751
f 749 748 752
f 752 748 753
f 752 753 746
f 750 754 751
f 751 754 755
f 751 755 756
f 755 757 756
f 756 757 758
f 756 758 759
f 758 760 759
f 759 760 761
f 759 761 762
f 762 761 763
f 762 763 647
f 764 765 648
f 648 765 766
f 648 766 767
f 763 768 647
f 647 768 769
f 647 769 648
f 648 769 770
f 648 770 764
f 688 691 689
f 689 691 648
f 689 648 771
f 771 648 767
f 771 772 689
f 689 772 773
f 689 773 774
f 774 775 689
f 689 775 776
f 689 776 746
f 746 776 777
f 746 777 752
f 778 779 648
f 648 779 780
f 648 780 646
f 781 782 679
f 679 782 783
f 679 783 784
f 784 783 785
f 784 785 786
f 787 679 788
f 788 679 789
f 787 790 679
f 679 790 791
f 679 791 781
f 781 791 792
f 781 792 793
f 793 794 781
f 781 794 795
f 781 795 796
f 796 795 797
f 796 797 798
f 797 799 798
f 798 799 800
f 798 800 801
f 801 800 802
f 801 802 803
f 803 804 801
f 801 804 805
f 801 805 676
f 676 805 806
f 676 806 807
f 807 808 676
f 676 808 809
f 676 809 810
f 810 811 676
f 676 811 812
f 676 812 679
f 679 812 813
f 679 813 789
f 801 814 815
f 815 816 801
f 801 816 817
f 801 817 798
f 801 818 819
f 819 820 801
f 801 820 821
f 801 821 814
f 822 823 676
f 676 823 824
f 676 824 825
f 822 676 826
f 826 676 645
f 826 645 827
f 828 829 801
f 801 829 830
f 801 830 818
f 831 832 644
f 825 833 676
f 676 833 834
f 676 834 801
f 801 834 835
f 801 835 828
f 830 836 818
f 818 836 837
f 818 837 838
f 838 837 839
f 838 839 644
f 644 839 840
f 644 840 831
f 841 842 645
f 645 842 843
f 645 843 827
f 832 844 644
f 644 844 845
f 644 845 645
f 645 845 846
f 645 846 841
f 641 847 642
f 642 847 848
f 642 848 645
f 645 848 849
f 645 849 643
f 850 663 851
f 851 663 852
f 637 639 853
f 638 854 639
f 639 854 855
f 639 855 856
f 662 665 663
f 663 665 639
f 663 639 857
f 857 639 856
f 857 858 663
f 663 858 859
f 663 859 860
f 860 861 663
f 663 861 862
f 663 862 852
f 863 864 865
f 862 866 852
f 852 866 867
f 852 867 868
f 868 867 869
f 868 869 864
f 864 869 870
f 864 870 865
f 871 872 873
f 865 874 863
f 863 874 875
f 863 875 872
f 872 875 876
f 872 876 873
f 873 877 871
f 871 877 878
f 871 878 879
f 879 878 880
f 879 880 881
f 882 883 639
f 880 853 881
f 881 853 639
f 881 639 884
f 884 639 883
f 885 886 887
f 887 886 888
f 889 890 891
f 892 893 705
f 889 891 894
f 894 891 895
f 894 895 896
f 896 895 897
f 896 897 898
f 898 897 899
f 898 899 731
f 731 899 900
f 731 900 705
f 705 900 901
f 705 901 892
f 893 902 705
f 705 902 903
f 705 903 904
f 661 703 657
f 657 703 705
f 657 705 905
f 905 705 904
f 905 906 657
f 657 906 907
f 657 907 908
f 908 909 657
f 657 909 910
f 657 910 911
f 885 887 912
f 912 887 657
f 912 657 913
f 913 657 911
f 913 911 914
f 914 915 913
f 913 915 916
f 913 916 917
f 917 916 918
f 917 918 889
f 889 918 919
f 889 919 890
f 888 882 887
f 887 882 639
f 887 639 657
f 657 639 668
f 657 668 655
f 655 668 670
f 850 640 663
f 663 640 642
f 663 642 654
f 654 642 645
f 654 645 652
f 652 645 673
f 699 649 700
f 700 649 651
f 700 651 741
f 741 651 689
f 741 689 739
f 739 689 747
f 696 682 694
f 694 682 679
f 694 679 648
f 648 679 784
f 648 784 778
f 778 784 786
f 920 921 922
f 923 924 925
f 926 927 928
f 928 929 926
f 926 929 930
f 926 930 931
f 932 933 934
f 934 935 932
f 932 935 936
f 932 936 926
f 926 936 937
f 926 937 927
f 938 939 940
f 940 939 941
f 940 941 942
f 942 941 943
f 944 945 946
f 946 945 947
f 944 946 948
f 948 946 949
f 948 949 950
f 951 949 952
f 952 949 953
f 951 954 949
f 949 954 955
f 949 955 950
f 956 957 958
f 958 957 959
f 956 960 957
f 957 960 961
f 957 961 953
f 953 961 962
f 953 962 952
f 963 964 965
f 965 966 963
f 963 966 967
f 963 967 957
f 957 967 968
f 957 968 959
f 969 970 971
f 972 973 974
f 975 976 977
f 977 976 978
f 979 980 981
f 975 977 982
f 982 977 981
f 982 981 983
f 931 984 985
f 985 984 979
f 980 986 981
f 981 986 987
f 981 987 983
f 988 989 981
f 990 991 981
f 979 981 985
f 985 981 989
f 985 989 992
f 993 994 995
f 990 981 996
f 991 997 981
f 981 997 998
f 981 998 988
f 992 999 985
f 985 999 1000
f 985 1000 1001
f 1002 1003 1004
f 1004 1003 1005
f 1004 1005 1006
f 1006 1005 1007
f 1006 1007 993
f 993 1007 1008
f 993 1008 994
f 1001 1009 985
f 985 1009 1010
f 985 1010 1011
f 1011 1010 1012
f 1011 1012 1013
f 1002 1004 1014
f 1014 1004 1015
f 1014 1015 1016
f 1016 1015 1017
f 1016 1017 1013
f 1013 1017 1018
f 1013 1018 1011
f 995 996 993
f 993 996 981
f 993 981 1019
f 1019 981 1020
f 1021 1022 1023
f 1024 1025 971
f 971 1025 1026
f 971 1026 1023
f 1023 1026 1027
f 1023 1027 1021
f 1028 1024 1029
f 1030 1031 972
f 1030 972 1032
f 1028 1029 1033
f 1031 1034 972
f 972 1034 1035
f 972 1035 1036
f 1029 1037 1033
f 1033 1037 1038
f 1033 1038 1039
f 1038 1040 1039
f 1039 1040 1041
f 1039 1041 1042
f 1041 1043 1042
f 1042 1043 1044
f 1042 1044 1045
f 1046 1047 1048
f 1048 1047 1049
f 1048 1049 1050
f 1050 1049 1045
f 1050 1045 1051
f 1051 1045 1044
f 1036 1052 972
f 972 1052 971
f 972 971 973
f 973 971 970
f 1052 1053 971
f 971 1053 1054
f 971 1054 1055
f 1055 1056 971
f 971 1056 1057
f 971 1057 1024
f 1024 1057 1058
f 1024 1058 1029
f 1046 1032 1047
f 1047 1032 972
f 1047 972 1059
f 1059 972 1060
f 924 1061 925
f 925 1061 1062
f 925 1062 972
f 972 1062 1063
f 972 1063 1060
f 957 1064 1065
f 1066 957 1067
f 1067 957 1068
f 1069 1070 1064
f 1064 1070 1071
f 1064 1071 1072
f 1072 1071 1073
f 1072 1073 1074
f 1073 1075 1074
f 1074 1075 1076
f 1074 1076 1077
f 1077 1076 1078
f 1077 1078 1079
f 1066 1080 957
f 957 1080 1081
f 957 1081 1064
f 1064 1081 1082
f 1064 1082 1069
f 1079 1083 1077
f 1077 1083 1084
f 1077 1084 953
f 953 1084 1085
f 953 1085 1086
f 1086 1087 953
f 953 1087 1088
f 953 1088 1089
f 1089 1090 953
f 953 1090 1091
f 953 1091 957
f 957 1091 1092
f 957 1092 1068
f 1077 1093 1094
f 1094 1095 1077
f 1077 1095 1096
f 1077 1096 1074
f 1077 1097 1098
f 1098 1099 1077
f 1077 1099 1100
f 1077 1100 1093
f 1101 1102 1103
f 1103 1102 1104
f 1103 1104 1105
f 1105 1104 1097
f 1106 953 1107
f 1107 953 1108
f 1109 1110 1077
f 1077 1110 1111
f 1077 1111 1097
f 1097 1111 1112
f 1097 1112 1105
f 1101 1113 1102
f 1102 1113 1114
f 1102 1114 1115
f 1116 1117 949
f 1106 1118 953
f 953 1118 1119
f 953 1119 1077
f 1077 1119 1120
f 1077 1120 1109
f 1117 1121 949
f 949 1121 1122
f 949 1122 1123
f 1123 1124 949
f 949 1124 1125
f 949 1125 953
f 953 1125 1126
f 953 1126 1108
f 1127 1128 949
f 1115 1116 1102
f 1102 1116 949
f 1102 949 1129
f 1129 949 1128
f 1130 1131 1132
f 1131 1130 1133
f 1133 1130 940
f 1133 940 1134
f 1135 1136 940
f 940 1136 1137
f 940 1137 1134
f 1138 1139 942
f 1139 1140 942
f 942 1140 1141
f 942 1141 1142
f 1143 1144 940
f 940 1144 1145
f 940 1145 1135
f 1135 1146 1136
f 1136 1146 1147
f 1136 1147 1148
f 1148 1147 1149
f 1148 1149 1150
f 1151 1152 1153
f 1142 1154 942
f 942 1154 1155
f 942 1155 940
f 940 1155 1156
f 940 1156 1143
f 1149 1157 1150
f 1150 1157 1158
f 1150 1158 1152
f 1152 1158 1159
f 1152 1159 1153
f 1153 1160 1151
f 1151 1160 1161
f 1151 1161 1162
f 1161 1163 1162
f 1162 1163 1164
f 1162 1164 1165
f 1165 1164 1166
f 1165 1166 1167
f 922 1168 942
f 942 1168 1169
f 1166 1138 1167
f 1167 1138 942
f 1167 942 1170
f 1170 942 1169
f 921 1171 922
f 922 1171 1172
f 922 1172 1168
f 1173 1174 1175
f 985 1176 1177
f 931 985 926
f 926 985 1177
f 926 1177 1178
f 1179 1180 985
f 1180 1181 985
f 985 1181 1182
f 985 1182 1176
f 1178 1183 926
f 926 1183 1184
f 926 1184 1185
f 1185 1186 926
f 926 1186 1187
f 926 1187 1188
f 1188 1187 1189
f 1173 1175 1190
f 1190 1175 1191
f 1190 1191 1192
f 1192 1191 1193
f 1192 1193 1194
f 1194 1193 1195
f 1194 1195 1011
f 1011 1195 1196
f 1011 1196 985
f 985 1196 1197
f 985 1197 1179
f 1189 1198 1188
f 1188 1198 1199
f 1188 1199 1200
f 1200 1199 1201
f 1200 1201 1173
f 1173 1201 1202
f 1173 1202 1174
f 943 933 942
f 942 933 932
f 942 932 922
f 922 932 926
f 922 926 920
f 920 926 1188
f 1132 1127 1130
f 1130 1127 949
f 1130 949 940
f 940 949 946
f 940 946 938
f 938 946 947
f 978 969 977
f 977 969 971
f 977 971 981
f 981 971 1023
f 981 1023 1020
f 1020 1023 1022
f 1065 923 957
f 957 923 925
f 957 925 963
f 963 925 972
f 963 972 964
f 964 972 974
f 1098 1097 798
f 798 1097 796
f 796 1097 1104
f 796 1104 781
f 781 1104 1102
f 781 1102 782
f 1102 1129 782
f 782 1129 1128
f 782 1128 783
f 783 1128 785
f 785 1128 1127
f 785 1127 786
f 786 1127 1132
f 786 1132 778
f 778 1132 1131
f 778 1131 779
f 1131 1133 779
f 779 1133 1134
f 779 1134 780
f 780 1134 1137
f 780 1137 646
f 646 1137 647
f 647 1137 1136
f 647 1136 762
f 1136 1148 762
f 762 1148 1150
f 762 1150 759
f 759 1150 1152
f 759 1152 756
f 756 1152 1151
f 756 1151 751
f 751 1151 1162
f 751 1162 748
f 748 1162 1165
f 748 1165 753
f 753 1165 746
f 746 1165 1167
f 746 1167 747
f 1167 1170 747
f 747 1170 1169
f 747 1169 739
f 739 1169 740
f 740 1169 1168
f 740 1168 742
f 1168 1172 742
f 742 1172 1171
f 742 1171 743
f 743 1171 744
f 744 1171 921
f 744 921 745
f 745 921 920
f 745 920 714
f 714 920 1188
f 714 1188 712
f 1188 1200 712
f 712 1200 1173
f 712 1173 710
f 710 1173 1190
f 710 1190 735
f 735 1190 1192
f 735 1192 737
f 737 1192 1194
f 737 1194 738
f 738 1194 731
f 731 1194 1011
f 731 1011 898
f 1011 1018 898
f 898 1018 1017
f 898 1017 896
f 896 1017 1015
f 896 1015 894
f 894 1015 1004
f 894 1004 889
f 889 1004 1006
f 889 1006 917
f 917 1006 913
f 913 1006 993
f 913 993 912
f 912 993 1019
f 912 1019 885
f 885 1019 1020
f 885 1020 886
f 1020 1022 886
f 886 1022 1021
f 886 1021 888
f 888 1021 882
f 882 1021 1027
f 882 1027 883
f 1027 1026 883
f 883 1026 1025
f 883 1025 884
f 884 1025 881
f 881 1025 1024
f 881 1024 879
f 1024 1028 879
f 879 1028 1033
f 879 1033 871
f 871 1033 1039
f 871 1039 872
f 872 1039 1042
f 872 1042 863
f 863 1042 1045
f 863 1045 864
f 864 1045 1049
f 864 1049 868
f 868 1049 852
f 852 1049 1047
f 852 1047 851
f 1047 1059 851
f 851 1059 1060
f 851 1060 850
f 850 1060 1063
f 850 1063 640
f 640 1063 641
f 641 1063 1062
f 641 1062 847
f 847 1062 1061
f 847 1061 848
f 848 1061 924
f 848 924 849
f 924 923 849
f 849 923 1065
f 849 1065 643
f 643 1065 644
f 644 1065 1064
f 644 1064 838
f 838 1064 1072
f 838 1072 818
f 818 1072 1074
f 818 1074 819
f 798 817 1098
f 1098 817 816
f 1098 816 1099
f 1099 816 815
f 1099 815 1100
f 1100 815 814
f 1100 814 1093
f 1093 814 821
f 1093 821 1094
f 1094 821 820
f 1094 820 1095
f 1095 820 819
f 1095 819 1096
f 1096 819 1074
f 681 962 677
f 677 962 961
f 677 961 678
f 678 961 960
f 678 960 675
f 675 960 956
f 675 956 674
f 674 956 958
f 674 958 673
f 673 958 959
f 673 959 652
f 652 959 968
f 652 968 653
f 653 968 967
f 653 967 671
f 671 967 966
f 671 966 672
f 672 966 965
f 672 965 664
f 664 965 964
f 664 964 662
f 662 964 974
f 662 974 665
f 665 974 973
f 665 973 666
f 666 973 970
f 666 970 667
f 667 970 969
f 667 969 669
f 669 969 978
f 669 978 670
f 670 978 976
f 670 976 655
f 655 976 975
f 655 975 656
f 656 975 982
f 656 982 658
f 658 982 983
f 658 983 659
f 659 983 987
f 659 987 660
f 660 987 986
f 660 986 661
f 661 986 980
f 661 980 703
f 703 980 979
f 703 979 704
f 704 979 984
f 704 984 706
f 706 984 931
f 706 931 707
f 707 931 930
f 707 930 702
f 702 930 929
f 702 929 701
f 701 929 928
f 701 928 699
f 699 928 927
f 699 927 649
f 649 927 937
f 649 937 650
f 650 937 936
f 650 936 697
f 697 936 935
f 697 935 698
f 698 935 934
f 698 934 690
f 690 934 933
f 690 933 688
f 688 933 943
f 688 943 691
f 691 943 941
f 691 941 692
f 692 941 939
f 692 939 693
f 693 939 938
f 693 938 695
f 695 938 947
f 695 947 696
f 696 947 945
f 696 945 682
f 682 945 944
f 682 944 683
f 683 944 948
f 683 948 684
f 684 948 950
f 684 950 685
f 685 950 955
f 685 955 686
f 686 955 954
f 686 954 687
f 687 954 951
f 687 951 680
f 680 951 952
f 680 952 681
f 681 952 962
f 866 1032 867
f 867 1032 1046
f 867 1046 869
f 869 1046 1048
f 869 1048 870
f 870 1048 1050
f 870 1050 865
f 865 1050 1051
f 865 1051 874
f 874 1051 1044
f 874 1044 875
f 875 1044 1043
f 875 1043 876
f 876 1043 1041
f 876 1041 873
f 873 1041 1040
f 873 1040 877
f 877 1040 1038
f 877 1038 878
f 878 1038 1037
f 878 1037 880
f 880 1037 1029
f 880 1029 853
f 853 1029 1058
f 853 1058 637
f 637 1058 1057
f 637 1057 638
f 638 1057 1056
f 638 1056 854
f 854 1056 1055
f 854 1055 855
f 855 1055 1054
f 855 1054 856
f 856 1054 1053
f 856 1053 857
f 857 1053 1052
f 857 1052 858
f 858 1052 1036
f 858 1036 859
f 859 1036 1035
f 859 1035 860
f 860 1035 1034
f 860 1034 861
f 861 1034 1031
f 861 1031 862
f 862 1031 1030
f 862 1030 866
f 866 1030 1032
f 905 989 906
f 906 989 988
f 906 988 907
f 907 988 998
f 907 998 908
f 908 998 997
f 908 997 909
f 909 997 991
f 909 991 910
f 910 991 990
f 910 990 911
f 911 990 996
f 911 996 914
f 914 996 995
f 914 995 915
f 915 995 994
f 915 994 916
f 916 994 1008
f 916 1008 918
f 918 1008 1007
f 918 1007 919
f 919 1007 1005
f 919 1005 890
f 890 1005 1003
f 890 1003 891
f 891 1003 1002
f 891 1002 895
f 895 1002 1014
f 895 1014 897
f 897 1014 1016
f 897 1016 899
f 899 1016 1013
f 899 1013 900
f 900 1013 1012
f 900 1012 901
f 901 1012 1010
f 901 1010 892
f 892 1010 1009
f 892 1009 893
f 893 1009 1001
f 893 1001 902
f 902 1001 1000
f 902 1000 903
f 903 1000 999
f 903 999 904
f 904 999 992
f 904 992 905
f 905 992 989
f 727 1177 728
f 728 1177 1176
f 728 1176 725
f 725 1176 1182
f 725 1182 724
f 724 1182 1181
f 724 1181 723
f 723 1181 1180
f 723 1180 729
f 729 1180 1179
f 729 1179 730
f 730 1179 1197
f 730 1197 732
f 732 1197 1196
f 732 1196 733
f 733 1196 1195
f 733 1195 736
f 736 1195 1193
f 736 1193 734
f 734 1193 1191
f 734 1191 708
f 708 1191 1175
f 708 1175 709
f 709 1175 1174
f 709 1174 711
f 711 1174 1202
f 711 1202 713
f 713 1202 1201
f 713 1201 715
f 715 1201 1199
f 715 1199 716
f 716 1199 1198
f 716 1198 720
f 720 1198 1189
f 720 1189 721
f 721 1189 1187
f 721 1187 722
f 722 1187 1186
f 722 1186 719
f 719 1186 1185
f 719 1185 718
f 718 1185 1184
f 718 1184 717
f 717 1184 1183
f 717 1183 726
f 726 1183 1178
f 726 1178 727
f 727 1178 1177
f 769 1146 770
f 770 1146 1135
f 770 1135 764
f 764 1135 1145
f 764 1145 765
f 765 1145 1144
f 765 1144 766
f 766 1144 1143
f 766 1143 767
f 767 1143 1156
f 767 1156 771
f 771 1156 1155
f 771 1155 772
f 772 1155 1154
f 772 1154 773
f 773 1154 1142
f 773 1142 774
f 774 1142 1141
f 774 1141 775
f 775 1141 1140
f 775 1140 776
f 776 1140 1139
f 776 1139 777
f 777 1139 1138
f 777 1138 752
f 752 1138 1166
f 752 1166 749
f 749 1166 1164
f 749 1164 750
f 750 1164 1163
f 750 1163 754
f 754 1163 1161
f 754 1161 755
f 755 1161 1160
f 755 1160 757
f 757 1160 1153
f 757 1153 758
f 758 1153 1159
f 758 1159 760
f 760 1159 1158
f 760 1158 761
f 761 1158 1157
f 761 1157 763
f 763 1157 1149
f 763 1149 768
f 768 1149 1147
f 768 1147 769
f 769 1147 1146
f 799 1105 800
f 800 1105 1112
f 800 1112 802
f 802 1112 1111
f 802 1111 803
f 803 1111 1110
f 803 1110 804
f 804 1110 1109
f 804 1109 805
f 805 1109 1120
f 805 1120 806
f 806 1120 1119
f 806 1119 807
f 807 1119 1118
f 807 1118 808
f 808 1118 1106
f 808 1106 809
f 809 1106 1107
f 809 1107 810
f 810 1107 1108
f 810 1108 811
f 811 1108 1126
f 811 1126 812
f 812 1126 1125
f 812 1125 813
f 813 1125 1124
f 813 1124 789
f 789 1124 1123
f 789 1123 788
f 788 1123 1122
f 788 1122 787
f 787 1122 1121
f 787 1121 790
f 790 1121 1117
f 790 1117 791
f 791 1117 1116
f 791 1116 792
f 792 1116 1115
f 792 1115 793
f 793 1115 1114
f 793 1114 794
f 794 1114 1113
f 794 1113 795
f 795 1113 1101
f 795 1101 797
f 797 1101 1103
f 797 1103 799
f 799 1103 1105
f 837 1075 839
f 839 1075 1073
f 839 1073 840
f 840 1073 1071
f 840 1071 831
f 831 1071 1070
f 831 1070 832
f 832 1070 1069
f 832 1069 844
f 844 1069 1082
f 844 1082 845
f 845 1082 1081
f 845 1081 846
f 846 1081 1080
f 846 1080 841
f 841 1080 1066
f 841 1066 842
f 842 1066 1067
f 842 1067 843
f 843 1067 1068
f 843 1068 827
f 827 1068 1092
f 827 1092 826
f 826 1092 1091
f 826 1091 822
f 822 1091 1090
f 822 1090 823
f 823 1090 1089
f 823 1089 824
f 824 1089 1088
f 824 1088 825
f 825 1088 1087
f 825 1087 833
f 833 1087 1086
f 833 1086 834
f 834 1086 1085
f 834 1085 835
f 835 1085 1084
f 835 1084 828
f 828 1084 1083
f 828 1083 829
f 829 1083 1079
f 829 1079 830
f 830 1079 1078
f 830 1078 836
f 836 1078 1076
f 836 1076 837
f 837 1076 1075
