v 0.0349884 -0.04534392 0.00882902
v 0.0349884 -0.04534392 0.02382901
v 0.0349884 0.04534819 0.00882902
v 0.0349884 0.04534819 0.02382901
v 0.03502797 -0.04566787 0.00882902
v 0.03502797 -0.04566787 0.02382901
v 0.03502797 0.04567214 0.00882902
v 0.03502797 0.04567214 0.02382901
v 0.03503405 -0.0450208 0.00882902
v 0.03503405 -0.0450208 0.02382901
v 0.03503405 0.04502507 0.00882902
v 0.03503405 0.04502507 0.02382901
v 0.03515004 -0.04597048 0.00882902
v 0.03515004 -0.04597048 0.02382901
v 0.03515004 0.04597475 0.00882902
v 0.03515004 0.04597475 0.02382901
v 0.03516173 -0.04472051 0.00882902
v 0.03516173 -0.04472051 0.02382901
v 0.03516173 0.04472478 0.00882902
v 0.03516173 0.04472478 0.02382901
v 0.03534626 -0.04623119 0.00882902
v 0.03534626 -0.04623119 0.02382901
v 0.03534626 0.04623546 0.00882902
v 0.03534626 0.04623546 0.02382901
v 0.03536271 -0.0444635 0.00882902
v 0.03536271 -0.0444635 0.02382901
v 0.03536271 0.04446776 0.00882902
v 0.03536271 0.04446776 0.02382901
v 0.03560328 -0.0464323 0.00882902
v 0.03560328 -0.0464323 0.02382901
v 0.03560328 0.04643657 0.00882902
v 0.03560328 0.04643657 0.02382901
v 0.03562354 -0.04426728 0.00882902
v 0.03562354 -0.04426728 0.02382901
v 0.03562354 0.04427155 0.00882902
v 0.03562354 0.04427155 0.02382901
v 0.03590357 -0.04655997 0.00882902
v 0.03590357 -0.04655997 0.02382901
v 0.03590357 0.04656424 0.00882902
v 0.03590357 0.04656424 0.02382901
v 0.0359261 -0.04414527 0.00882902
v 0.0359261 -0.04414527 0.02382901
v 0.0359261 0.04414954 0.00882902
v 0.0359261 0.04414954 0.02382901
v 0.03622662 -0.04660557 0.00882902
v 0.03622662 -0.04660557 0.02382901
v 0.03622662 0.04660984 0.00882902
v 0.03622662 0.04660984 0.02382901
v 0.03624999 -0.04410569 0.00882902
v 0.03624999 -0.04410569 0.02382901
v 0.03624999 0.04410996 0.00882902
v 0.03624999 0.04410996 0.02382901
v 0.03655051 -0.04656605 0.00882902
v 0.03655051 -0.04656605 0.02382901
v 0.03655051 0.04657026 0.00882902
v 0.03655051 0.04657026 0.02382901
v 0.03657316 -0.04415129 0.00882902
v 0.03657316 -0.04415129 0.02382901
v 0.03657316 0.04415556 0.00882902
v 0.03657316 0.04415556 0.02382901
v 0.03685319 -0.04644398 0.00882902
v 0.03685319 -0.04644398 0.02382901
v 0.03685319 0.04644825 0.00882902
v 0.03685319 0.04644825 0.02382901
v 0.03687345 -0.04427902 0.00882902
v 0.03687345 -0.04427902 0.02382901
v 0.03687345 0.04428329 0.00882902
v 0.03687345 0.04428329 0.02382901
v 0.0371139 -0.04624776 0.00882902
v 0.0371139 -0.04624776 0.02382901
v 0.0371139 0.04625203 0.00882902
v 0.0371139 0.04625203 0.02382901
v 0.03713047 -0.04448007 0.00882902
v 0.03713047 -0.04448007 0.02382901
v 0.03713047 0.04448433 0.00882902
v 0.03713047 0.04448433 0.02382901
v 0.037315 -0.04599075 0.00882902
v 0.037315 -0.04599075 0.02382901
v 0.037315 0.04599501 0.00882902
v 0.037315 0.04599501 0.02382901
v 0.03732669 -0.04474078 0.00882902
v 0.03732669 -0.04474078 0.02382901
v 0.03732669 0.04474505 0.00882902
v 0.03732669 0.04474505 0.02382901
v 0.03744268 -0.04569046 0.00882902
v 0.03744268 -0.04569046 0.02382901
v 0.03744268 0.04569473 0.00882902
v 0.03744268 0.04569473 0.02382901
v 0.03744876 -0.04504345 0.00882902
v 0.03744876 -0.04504345 0.02382901
v 0.03744876 0.04504772 0.00882902
v 0.03744876 0.04504772 0.02382901
v 0.03748821 -0.04536734 0.00882902
v 0.03748821 -0.04536734 0.02382901
v 0.03748821 0.04537161 0.00882902
v 0.03748821 0.04537161 0.02382901
v 0.04161727 -0.0214995 0.00882902
v 0.04161727 -0.0214995 0.02382901
v 0.04161727 0.02150376 0.00882902
v 0.04161727 0.02150376 0.02382901
v 0.04165684 -0.02182339 0.00882902
v 0.04165684 -0.02182339 0.02382901
v 0.04165684 0.02182766 0.00882902
v 0.04165684 0.02182766 0.02382901
v 0.04166292 -0.02117638 0.00882902
v 0.04166292 -0.02117638 0.02382901
v 0.04166292 0.02118065 0.00882902
v 0.04166292 0.02118065 0.02382901
v 0.04177891 -0.02212606 0.00882902
v 0.04177891 -0.02212606 0.02382901
v 0.04177891 0.02213027 0.00882902
v 0.04177891 0.02213027 0.02382901
v 0.0417906 -0.02087609 0.00882902
v 0.0417906 -0.02087609 0.02382901
v 0.0417906 0.02088036 0.00882902
v 0.0417906 0.02088036 0.02382901
v 0.04197513 -0.02238677 0.00882902
v 0.04197513 -0.02238677 0.02382901
v 0.04197513 0.02239104 0.00882902
v 0.04197513 0.02239104 0.02382901
v 0.0419917 -0.02061908 0.00882902
v 0.0419917 -0.02061908 0.02382901
v 0.0419917 0.02062334 0.00882902
v 0.0419917 0.02062334 0.02382901
v 0.04223215 -0.02258782 0.00882902
v 0.04223215 -0.02258782 0.02382901
v 0.04223215 0.02259209 0.00882902
v 0.04223215 0.02259209 0.02382901
v 0.04225241 -0.02042286 0.00882902
v 0.04225241 -0.02042286 0.02382901
v 0.04225241 0.02042713 0.00882902
v 0.04225241 0.02042713 0.02382901
v 0.04253244 -0.02271549 0.00882902
v 0.04253244 -0.02271549 0.02382901
v 0.04253244 0.02271976 0.00882902
v 0.04253244 0.02271976 0.02382901
v 0.04255497 -0.02030079 0.00882902
v 0.04255497 -0.02030079 0.02382901
v 0.04255497 0.02030506 0.00882902
v 0.04255497 0.02030506 0.02382901
v 0.04285549 -0.02276115 0.00882902
v 0.04285549 -0.02276115 0.02382901
v 0.04285549 0.02276542 0.00882902
v 0.04285549 0.02276542 0.02382901
v 0.04287898 -0.02026127 0.00882902
v 0.04287898 -0.02026127 0.02382901
v 0.04287898 0.02026554 0.00882902
v 0.04287898 0.02026554 0.02382901
v 0.04317939 -0.02272157 0.00882902
v 0.04317939 -0.02272157 0.02382901
v 0.04317939 0.02272584 0.00882902
v 0.04317939 0.02272584 0.02382901
v 0.04320204 -0.02030687 0.00882902
v 0.04320204 -0.02030687 0.02382901
v 0.04320204 0.02031113 0.00882902
v 0.04320204 0.02031113 0.02382901
v 0.04348206 -0.0225995 0.00882902
v 0.04348206 -0.0225995 0.02382901
v 0.04348206 0.02260377 0.00882902
v 0.04348206 0.02260377 0.02382901
v 0.04350232 -0.02043454 0.00882902
v 0.04350232 -0.02043454 0.02382901
v 0.04350232 0.02043881 0.00882902
v 0.04350232 0.02043881 0.02382901
v 0.04374277 -0.02240328 0.00882902
v 0.04374277 -0.02240328 0.02382901
v 0.04374277 0.02240755 0.00882902
v 0.04374277 0.02240755 0.02382901
v 0.04374825 -0.03618733 -0.00627098
v 0.04374825 -0.03618733 -0.00127098
v 0.04374825 -0.03618733 0.00072899
v 0.04374825 -0.03618733 0.002229
v 0.04375934 -0.02063565 0.00882902
v 0.04375934 -0.02063565 0.02382901
v 0.04375934 0.02063985 0.00882902
v 0.04375934 0.02063985 0.02382901
v 0.04378783 -0.03651122 -0.00627098
v 0.04378783 -0.03651122 -0.00127098
v 0.04378783 -0.03651122 0.00072899
v 0.04378783 -0.03651122 0.002229
v 0.04379391 -0.03586422 -0.00627098
v 0.04379391 -0.03586422 -0.00127098
v 0.04379391 -0.03586422 0.00072899
v 0.04379391 -0.03586422 0.002229
v 0.0439099 -0.03681384 -0.00627098
v 0.0439099 -0.03681384 -0.00127098
v 0.0439099 -0.03681384 0.00072899
v 0.0439099 -0.03681384 0.002229
v 0.04392158 -0.03556393 -0.00627098
v 0.04392158 -0.03556393 -0.00127098
v 0.04392158 -0.03556393 0.00072899
v 0.04392158 -0.03556393 0.002229
v 0.04394387 -0.02214633 0.00882902
v 0.04394387 -0.02214633 0.02382901
v 0.04394387 0.02215053 0.00882902
v 0.04394387 0.02215053 0.02382901
v 0.04395556 -0.02089636 0.00882902
v 0.04395556 -0.02089636 0.02382901
v 0.04395556 0.02090062 0.00882902
v 0.04395556 0.02090062 0.02382901
v 0.04407155 -0.02184598 0.00882902
v 0.04407155 -0.02184598 0.02382901
v 0.04407155 0.02185025 0.00882902
v 0.04407155 0.02185025 0.02382901
v 0.04407763 -0.02119897 0.00882902
v 0.04407763 -0.02119897 0.02382901
v 0.04407763 0.02120324 0.00882902
v 0.04407763 0.02120324 0.02382901
v 0.04410612 -0.03707461 -0.00627098
v 0.04410612 -0.03707461 -0.00127098
v 0.04410612 -0.03707461 0.00072899
v 0.04410612 -0.03707461 0.002229
v 0.0441172 -0.02152292 0.00882902
v 0.0441172 -0.02152292 0.02382901
v 0.0441172 0.02152713 0.00882902
v 0.0441172 0.02152713 0.02382901
v 0.04412269 -0.03530691 -0.00627098
v 0.04412269 -0.03530691 -0.00127098
v 0.04412269 -0.03530691 0.00072899
v 0.04412269 -0.03530691 0.002229
v 0.04436313 -0.03727565 -0.00627098
v 0.04436313 -0.03727565 -0.00127098
v 0.04436313 -0.03727565 0.00072899
v 0.04436313 -0.03727565 0.002229
v 0.0443834 -0.03511069 -0.00627098
v 0.0443834 -0.03511069 -0.00127098
v 0.0443834 -0.03511069 0.00072899
v 0.0443834 -0.03511069 0.002229
v 0.04439437 0.03386773 -0.00627098
v 0.04439437 0.03386773 -0.00127098
v 0.04439437 0.03386773 0.00072899
v 0.04439437 0.03386773 0.002229
v 0.04443382 0.03419163 -0.00627098
v 0.04443382 0.03419163 -0.00127098
v 0.04443382 0.03419163 0.00072899
v 0.04443382 0.03419163 0.002229
v 0.0444399 0.03354462 -0.00627098
v 0.0444399 0.03354462 -0.00127098
v 0.0444399 0.03354462 0.00072899
v 0.0444399 0.03354462 0.002229
v 0.04455589 0.03449424 -0.00627098
v 0.04455589 0.03449424 -0.00127098
v 0.04455589 0.03449424 0.00072899
v 0.04455589 0.03449424 0.002229
v 0.04456758 0.03324433 -0.00627098
v 0.04456758 0.03324433 -0.00127098
v 0.04456758 0.03324433 0.00072899
v 0.04456758 0.03324433 0.002229
v 0.04466342 -0.03740333 -0.00627098
v 0.04466342 -0.03740333 -0.00127098
v 0.04466342 -0.03740333 0.00072899
v 0.04466342 -0.03740333 0.002229
v 0.04468595 -0.03498862 -0.00627098
v 0.04468595 -0.03498862 -0.00127098
v 0.04468595 -0.03498862 0.00072899
v 0.04468595 -0.03498862 0.002229
v 0.04475211 0.03475501 -0.00627098
v 0.04475211 0.03475501 -0.00127098
v 0.04475211 0.03475501 0.00072899
v 0.04475211 0.03475501 0.002229
v 0.04476868 0.03298731 -0.00627098
v 0.04476868 0.03298731 -0.00127098
v 0.04476868 0.03298731 0.00072899
v 0.04476868 0.03298731 0.002229
v 0.04498648 -0.03744898 -0.00627098
v 0.04498648 -0.03744898 -0.00127098
v 0.04498648 -0.03744898 0.00072899
v 0.04498648 -0.03744898 0.002229
v 0.04500913 0.03495606 -0.00627098
v 0.04500913 0.03495606 -0.00127098
v 0.04500913 0.03495606 0.00072899
v 0.04500913 0.03495606 0.002229
v 0.04500996 -0.03494911 -0.00627098
v 0.04500996 -0.03494911 -0.00127098
v 0.04500996 -0.03494911 0.00072899
v 0.04500996 -0.03494911 0.002229
v 0.04502939 0.0327911 -0.00627098
v 0.04502939 0.0327911 -0.00127098
v 0.04502939 0.0327911 0.00072899
v 0.04502939 0.0327911 0.002229
v 0.04530942 0.03508373 -0.00627098
v 0.04530942 0.03508373 -0.00127098
v 0.04530942 0.03508373 0.00072899
v 0.04530942 0.03508373 0.002229
v 0.04531037 -0.03740941 -0.00627098
v 0.04531037 -0.03740941 -0.00127098
v 0.04531037 -0.03740941 0.00072899
v 0.04531037 -0.03740941 0.002229
v 0.04533207 0.03266903 -0.00627098
v 0.04533207 0.03266903 -0.00127098
v 0.04533207 0.03266903 0.00072899
v 0.04533207 0.03266903 0.002229
v 0.04533302 -0.0349947 -0.00627098
v 0.04533302 -0.0349947 -0.00127098
v 0.04533302 -0.0349947 0.00072899
v 0.04533302 -0.0349947 0.002229
v 0.04561304 -0.03728734 -0.00627098
v 0.04561304 -0.03728734 -0.00127098
v 0.04561304 -0.03728734 0.00072899
v 0.04561304 -0.03728734 0.002229
v 0.04563259 0.03512933 -0.00627098
v 0.04563259 0.03512933 -0.00127098
v 0.04563259 0.03512933 0.00072899
v 0.04563259 0.03512933 0.002229
v 0.04563331 -0.03512238 -0.00627098
v 0.04563331 -0.03512238 -0.00127098
v 0.04563331 -0.03512238 0.00072899
v 0.04563331 -0.03512238 0.002229
v 0.04565596 0.03262945 -0.00627098
v 0.04565596 0.03262945 -0.00127098
v 0.04565596 0.03262945 0.00072899
v 0.04565596 0.03262945 0.002229
v 0.04587375 -0.03709112 -0.00627098
v 0.04587375 -0.03709112 -0.00127098
v 0.04587375 -0.03709112 0.00072899
v 0.04587375 -0.03709112 0.002229
v 0.04589032 -0.03532348 -0.00627098
v 0.04589032 -0.03532348 -0.00127098
v 0.04589032 -0.03532348 0.00072899
v 0.04589032 -0.03532348 0.002229
v 0.04595648 0.03508981 -0.00627098
v 0.04595648 0.03508981 -0.00127098
v 0.04595648 0.03508981 0.00072899
v 0.04595648 0.03508981 0.002229
v 0.04597913 0.03267511 -0.00627098
v 0.04597913 0.03267511 -0.00127098
v 0.04597913 0.03267511 0.00072899
v 0.04597913 0.03267511 0.002229
v 0.04607486 -0.0368341 -0.00627098
v 0.04607486 -0.0368341 -0.00127098
v 0.04607486 -0.0368341 0.00072899
v 0.04607486 -0.0368341 0.002229
v 0.04608654 -0.03558419 -0.00627098
v 0.04608654 -0.03558419 -0.00127098
v 0.04608654 -0.03558419 0.00072899
v 0.04608654 -0.03558419 0.002229
v 0.04620253 -0.03653381 -0.00627098
v 0.04620253 -0.03653381 -0.00127098
v 0.04620253 -0.03653381 0.00072899
v 0.04620253 -0.03653381 0.002229
v 0.04620861 -0.03588681 -0.00627098
v 0.04620861 -0.03588681 -0.00127098
v 0.04620861 -0.03588681 0.00072899
v 0.04620861 -0.03588681 0.002229
v 0.04624819 -0.0362107 -0.00627098
v 0.04624819 -0.0362107 -0.00127098
v 0.04624819 -0.0362107 0.00072899
v 0.04624819 -0.0362107 0.002229
v 0.04625916 0.03496774 -0.00627098
v 0.04625916 0.03496774 -0.00127098
v 0.04625916 0.03496774 0.00072899
v 0.04625916 0.03496774 0.002229
v 0.04627942 0.03280278 -0.00627098
v 0.04627942 0.03280278 -0.00127098
v 0.04627942 0.03280278 0.00072899
v 0.04627942 0.03280278 0.002229
v 0.04651987 0.03477152 -0.00627098
v 0.04651987 0.03477152 -0.00127098
v 0.04651987 0.03477152 0.00072899
v 0.04651987 0.03477152 0.002229
v 0.04653644 0.03300382 -0.00627098
v 0.04653644 0.03300382 -0.00127098
v 0.04653644 0.03300382 0.00072899
v 0.04653644 0.03300382 0.002229
v 0.04672085 0.0345145 -0.00627098
v 0.04672085 0.0345145 -0.00127098
v 0.04672085 0.0345145 0.00072899
v 0.04672085 0.0345145 0.002229
v 0.04673266 0.0332646 -0.00627098
v 0.04673266 0.0332646 -0.00127098
v 0.04673266 0.0332646 0.00072899
v 0.04673266 0.0332646 0.002229
v 0.04684865 0.03421422 -0.00627098
v 0.04684865 0.03421422 -0.00127098
v 0.04684865 0.03421422 0.00072899
v 0.04684865 0.03421422 0.002229
v 0.04685461 0.03356721 -0.00627098
v 0.04685461 0.03356721 -0.00127098
v 0.04685461 0.03356721 0.00072899
v 0.04685461 0.03356721 0.002229
v 0.04689419 0.0338911 -0.00627098
v 0.04689419 0.0338911 -0.00127098
v 0.04689419 0.0338911 0.00072899
v 0.04689419 0.0338911 0.002229
v 0.05605578 0.03961315 -0.00627098
v 0.05605578 0.03961315 -0.00127098
v 0.05605578 0.03961315 0.00072899
v 0.05605578 0.03961315 0.002229
v 0.05609535 0.03993704 -0.00627098
v 0.05609535 0.03993704 -0.00127098
v 0.05609535 0.03993704 0.00072899
v 0.05609535 0.03993704 0.002229
v 0.05610143 0.03929003 -0.00627098
v 0.05610143 0.03929003 -0.00127098
v 0.05610143 0.03929003 0.00072899
v 0.05610143 0.03929003 0.002229
v 0.05621742 0.04023971 -0.00627098
v 0.05621742 0.04023971 -0.00127098
v 0.05621742 0.04023971 0.00072899
v 0.05621742 0.04023971 0.002229
v 0.05622911 0.03898974 -0.00627098
v 0.05622911 0.03898974 -0.00127098
v 0.05622911 0.03898974 0.00072899
v 0.05622911 0.03898974 0.002229
v 0.05641364 0.04050042 -0.00627098
v 0.05641364 0.04050042 -0.00127098
v 0.05641364 0.04050042 0.00072899
v 0.05641364 0.04050042 0.002229
v 0.05643021 0.03873273 -0.00627098
v 0.05643021 0.03873273 -0.00127098
v 0.05643021 0.03873273 0.00072899
v 0.05643021 0.03873273 0.002229
v 0.05667066 0.04070147 -0.00627098
v 0.05667066 0.04070147 -0.00127098
v 0.05667066 0.04070147 0.00072899
v 0.05667066 0.04070147 0.002229
v 0.05669092 0.03853651 -0.00627098
v 0.05669092 0.03853651 -0.00127098
v 0.05669092 0.03853651 0.00072899
v 0.05669092 0.03853651 0.002229
v 0.05670189 -0.03728501 -0.00627098
v 0.05670189 -0.03728501 -0.00127098
v 0.05670189 -0.03728501 0.00072899
v 0.05670189 -0.03728501 0.002229
v 0.05674135 -0.0376089 -0.00627098
v 0.05674135 -0.0376089 -0.00127098
v 0.05674135 -0.0376089 0.00072899
v 0.05674135 -0.0376089 0.002229
v 0.05674743 -0.0369619 -0.00627098
v 0.05674743 -0.0369619 -0.00127098
v 0.05674743 -0.0369619 0.00072899
v 0.05674743 -0.0369619 0.002229
v 0.05686342 -0.03791158 -0.00627098
v 0.05686342 -0.03791158 -0.00127098
v 0.05686342 -0.03791158 0.00072899
v 0.05686342 -0.03791158 0.002229
v 0.0568751 -0.03666161 -0.00627098
v 0.0568751 -0.03666161 -0.00127098
v 0.0568751 -0.03666161 0.00072899
v 0.0568751 -0.03666161 0.002229
v 0.05697095 0.0408292 -0.00627098
v 0.05697095 0.0408292 -0.00127098
v 0.05697095 0.0408292 0.00072899
v 0.05697095 0.0408292 0.002229
v 0.05699348 0.0384145 -0.00627098
v 0.05699348 0.0384145 -0.00127098
v 0.05699348 0.0384145 0.00072899
v 0.05699348 0.0384145 0.002229
v 0.05705964 -0.03817229 -0.00627098
v 0.05705964 -0.03817229 -0.00127098
v 0.05705964 -0.03817229 0.00072899
v 0.05705964 -0.03817229 0.002229
v 0.05707621 -0.03640459 -0.00627098
v 0.05707621 -0.03640459 -0.00127098
v 0.05707621 -0.03640459 0.00072899
v 0.05707621 -0.03640459 0.002229
v 0.057294 0.0408748 -0.00627098
v 0.057294 0.0408748 -0.00127098
v 0.057294 0.0408748 0.00072899
v 0.057294 0.0408748 0.002229
v 0.05731665 -0.03837333 -0.00627098
v 0.05731665 -0.03837333 -0.00127098
v 0.05731665 -0.03837333 0.00072899
v 0.05731665 -0.03837333 0.002229
v 0.05731749 0.03837492 -0.00627098
v 0.05731749 0.03837492 -0.00127098
v 0.05731749 0.03837492 0.00072899
v 0.05731749 0.03837492 0.002229
v 0.05733692 -0.03620837 -0.00627098
v 0.05733692 -0.03620837 -0.00127098
v 0.05733692 -0.03620837 0.00072899
v 0.05733692 -0.03620837 0.002229
v 0.05761694 -0.03850107 -0.00627098
v 0.05761694 -0.03850107 -0.00127098
v 0.05761694 -0.03850107 0.00072899
v 0.05761694 -0.03850107 0.002229
v 0.0576179 0.04083522 -0.00627098
v 0.0576179 0.04083522 -0.00127098
v 0.0576179 0.04083522 0.00072899
v 0.0576179 0.04083522 0.002229
v 0.05763959 -0.0360863 -0.00627098
v 0.05763959 -0.0360863 -0.00127098
v 0.05763959 -0.0360863 0.00072899
v 0.05763959 -0.0360863 0.002229
v 0.05764054 0.03842052 -0.00627098
v 0.05764054 0.03842052 -0.00127098
v 0.05764054 0.03842052 0.00072899
v 0.05764054 0.03842052 0.002229
v 0.05792057 0.04071321 -0.00627098
v 0.05792057 0.04071321 -0.00127098
v 0.05792057 0.04071321 0.00072899
v 0.05792057 0.04071321 0.002229
v 0.05794012 -0.03854666 -0.00627098
v 0.05794012 -0.03854666 -0.00127098
v 0.05794012 -0.03854666 0.00072899
v 0.05794012 -0.03854666 0.002229
v 0.05794083 0.03854825 -0.00627098
v 0.05794083 0.03854825 -0.00127098
v 0.05794083 0.03854825 0.00072899
v 0.05794083 0.03854825 0.002229
v 0.05796348 -0.03604679 -0.00627098
v 0.05796348 -0.03604679 -0.00127098
v 0.05796348 -0.03604679 0.00072899
v 0.05796348 -0.03604679 0.002229
v 0.05818128 0.04051699 -0.00627098
v 0.05818128 0.04051699 -0.00127098
v 0.05818128 0.04051699 0.00072899
v 0.05818128 0.04051699 0.002229
v 0.05819785 0.0387493 -0.00627098
v 0.05819785 0.0387493 -0.00127098
v 0.05819785 0.0387493 0.00072899
v 0.05819785 0.0387493 0.002229
v 0.05826401 -0.03850709 -0.00627098
v 0.05826401 -0.03850709 -0.00127098
v 0.05826401 -0.03850709 0.00072899
v 0.05826401 -0.03850709 0.002229
v 0.05828654 -0.03609238 -0.00627098
v 0.05828654 -0.03609238 -0.00127098
v 0.05828654 -0.03609238 0.00072899
v 0.05828654 -0.03609238 0.002229
v 0.05838238 0.04025997 -0.00627098
v 0.05838238 0.04025997 -0.00127098
v 0.05838238 0.04025997 0.00072899
v 0.05838238 0.04025997 0.002229
v 0.05839407 0.03901001 -0.00627098
v 0.05839407 0.03901001 -0.00127098
v 0.05839407 0.03901001 0.00072899
v 0.05839407 0.03901001 0.002229
v 0.05851006 0.03995969 -0.00627098
v 0.05851006 0.03995969 -0.00127098
v 0.05851006 0.03995969 0.00072899
v 0.05851006 0.03995969 0.002229
v 0.05851614 0.03931262 -0.00627098
v 0.05851614 0.03931262 -0.00127098
v 0.05851614 0.03931262 0.00072899
v 0.05851614 0.03931262 0.002229
v 0.05855571 0.03963657 -0.00627098
v 0.05855571 0.03963657 -0.00127098
v 0.05855571 0.03963657 0.00072899
v 0.05855571 0.03963657 0.002229
v 0.05856668 -0.03838508 -0.00627098
v 0.05856668 -0.03838508 -0.00127098
v 0.05856668 -0.03838508 0.00072899
v 0.05856668 -0.03838508 0.002229
v 0.05858695 -0.03622006 -0.00627098
v 0.05858695 -0.03622006 -0.00127098
v 0.05858695 -0.03622006 0.00072899
v 0.05858695 -0.03622006 0.002229
v 0.05882739 -0.03818886 -0.00627098
v 0.05882739 -0.03818886 -0.00127098
v 0.05882739 -0.03818886 0.00072899
v 0.05882739 -0.03818886 0.002229
v 0.05883288 -0.05197285 0.00882902
v 0.05883288 -0.05197285 0.02382901
v 0.05883288 0.05197712 0.00882902
v 0.05883288 0.05197712 0.014429
v 0.05883288 0.05197712 0.02002897
v 0.05883288 0.05197712 0.02382901
v 0.05884396 -0.03642116 -0.00627098
v 0.05884396 -0.03642116 -0.00127098
v 0.05884396 -0.03642116 0.00072899
v 0.05884396 -0.03642116 0.002229
v 0.05887233 -0.05229674 0.00882902
v 0.05887233 -0.05229674 0.02382901
v 0.05887233 0.05230101 0.00882902
v 0.05887233 0.05230101 0.014429
v 0.05887233 0.05230101 0.02002897
v 0.05887233 0.05230101 0.02382901
v 0.05887841 -0.05164973 0.00882902
v 0.05887841 -0.05164973 0.02382901
v 0.05887841 0.051654 0.00882902
v 0.05887841 0.051654 0.014429
v 0.05887841 0.051654 0.02002897
v 0.05887841 0.051654 0.02382901
v 0.0589944 -0.05259941 0.00882902
v 0.0589944 -0.05259941 0.02382901
v 0.0589944 0.05260362 0.00882902
v 0.0589944 0.05260362 0.014429
v 0.0589944 0.05260362 0.02002897
v 0.0589944 0.05260362 0.02382901
v 0.05900609 -0.05134944 0.00882902
v 0.05900609 -0.05134944 0.02382901
v 0.05900609 0.05135371 0.00882902
v 0.05900609 0.05135371 0.014429
v 0.05900609 0.05135371 0.02002897
v 0.05900609 0.05135371 0.02382901
v 0.05902838 -0.03793184 -0.00627098
v 0.05902838 -0.03793184 -0.00127098
v 0.05902838 -0.03793184 0.00072899
v 0.05902838 -0.03793184 0.002229
v 0.05904006 -0.03668187 -0.00627098
v 0.05904006 -0.03668187 -0.00127098
v 0.05904006 -0.03668187 0.00072899
v 0.05904006 -0.03668187 0.002229
v 0.05915617 -0.03763149 -0.00627098
v 0.05915617 -0.03763149 -0.00127098
v 0.05915617 -0.03763149 0.00072899
v 0.05915617 -0.03763149 0.002229
v 0.05916213 -0.03698449 -0.00627098
v 0.05916213 -0.03698449 -0.00127098
v 0.05916213 -0.03698449 0.00072899
v 0.05916213 -0.03698449 0.002229
v 0.05919062 -0.05286012 0.00882902
v 0.05919062 -0.05286012 0.02382901
v 0.05919062 0.05286439 0.00882902
v 0.05919062 0.05286439 0.014429
v 0.05919062 0.05286439 0.02002897
v 0.05919062 0.05286439 0.02382901
v 0.05920171 -0.03730844 -0.00627098
v 0.05920171 -0.03730844 -0.00127098
v 0.05920171 -0.03730844 0.00072899
v 0.05920171 -0.03730844 0.002229
v 0.05920719 -0.05109243 0.00882902
v 0.05920719 -0.05109243 0.02382901
v 0.05920719 0.0510967 0.00882902
v 0.05920719 0.0510967 0.014429
v 0.05920719 0.0510967 0.02002897
v 0.05920719 0.0510967 0.02382901
v 0.05944764 -0.05306117 0.00882902
v 0.05944764 -0.05306117 0.02382901
v 0.05944764 0.05306544 0.00882902
v 0.05944764 0.05306544 0.014429
v 0.05944764 0.05306544 0.02002897
v 0.05944764 0.05306544 0.02382901
v 0.0594679 -0.05089621 0.00882902
v 0.0594679 -0.05089621 0.02382901
v 0.0594679 0.05090048 0.00882902
v 0.0594679 0.05090048 0.014429
v 0.0594679 0.05090048 0.02002897
v 0.0594679 0.05090048 0.02382901
v 0.05974793 -0.05318884 0.00882902
v 0.05974793 -0.05318884 0.02382901
v 0.05974793 0.05319311 0.00882902
v 0.05974793 0.05319311 0.014429
v 0.05974793 0.05319311 0.02002897
v 0.05974793 0.05319311 0.02382901
v 0.05977058 -0.05077414 0.00882902
v 0.05977058 -0.05077414 0.02382901
v 0.05977058 0.05077841 0.00882902
v 0.05977058 0.05077841 0.014429
v 0.05977058 0.05077841 0.02002897
v 0.05977058 0.05077841 0.02382901
v 0.0600711 -0.0532345 0.00882902
v 0.0600711 -0.0532345 0.02382901
v 0.0600711 0.05323877 0.00882902
v 0.0600711 0.05323877 0.014429
v 0.0600711 0.05323877 0.02002897
v 0.0600711 0.05323877 0.02382901
v 0.06009447 -0.05073462 0.00882902
v 0.06009447 -0.05073462 0.02382901
v 0.06009447 0.05073889 0.00882902
v 0.06009447 0.05073889 0.014429
v 0.06009447 0.05073889 0.02002897
v 0.06009447 0.05073889 0.02382901
v 0.06039499 -0.05319492 0.00882902
v 0.06039499 -0.05319492 0.02382901
v 0.06039499 0.05319919 0.00882902
v 0.06039499 0.05319919 0.014429
v 0.06039499 0.05319919 0.02002897
v 0.06039499 0.05319919 0.02382901
v 0.06041753 -0.05078022 0.00882902
v 0.06041753 -0.05078022 0.02382901
v 0.06041753 0.05078449 0.00882902
v 0.06041753 0.05078449 0.014429
v 0.06041753 0.05078449 0.02002897
v 0.06041753 0.05078449 0.02382901
v 0.06069767 -0.05307285 0.00882902
v 0.06069767 -0.05307285 0.02382901
v 0.06069767 0.05307712 0.00882902
v 0.06069767 0.05307712 0.014429
v 0.06069767 0.05307712 0.02002897
v 0.06069767 0.05307712 0.02382901
v 0.06071793 -0.05090789 0.00882902
v 0.06071793 -0.05090789 0.02382901
v 0.06071793 0.05091216 0.00882902
v 0.06071793 0.05091216 0.014429
v 0.06071793 0.05091216 0.02002897
v 0.06071793 0.05091216 0.02382901
v 0.06095838 -0.05287663 0.00882902
v 0.06095838 -0.05287663 0.02382901
v 0.06095838 0.0528809 0.00882902
v 0.06095838 0.0528809 0.014429
v 0.06095838 0.0528809 0.02002897
v 0.06095838 0.0528809 0.02382901
v 0.06097495 -0.051109 0.00882902
v 0.06097495 -0.051109 0.02382901
v 0.06097495 0.05111321 0.00882902
v 0.06097495 0.05111321 0.014429
v 0.06097495 0.05111321 0.02002897
v 0.06097495 0.05111321 0.02382901
v 0.06115936 -0.05261968 0.00882902
v 0.06115936 -0.05261968 0.02382901
v 0.06115936 0.05262389 0.00882902
v 0.06115936 0.05262389 0.014429
v 0.06115936 0.05262389 0.02002897
v 0.06115936 0.05262389 0.02382901
v 0.06117105 -0.05136971 0.00882902
v 0.06117105 -0.05136971 0.02382901
v 0.06117105 0.05137398 0.00882902
v 0.06117105 0.05137398 0.014429
v 0.06117105 0.05137398 0.02002897
v 0.06117105 0.05137398 0.02382901
v 0.06128716 -0.05231933 0.00882902
v 0.06128716 -0.05231933 0.02382901
v 0.06128716 0.0523236 0.00882902
v 0.06128716 0.0523236 0.014429
v 0.06128716 0.0523236 0.02002897
v 0.06128716 0.0523236 0.02382901
v 0.06129312 -0.05167232 0.00882902
v 0.06129312 -0.05167232 0.02382901
v 0.06129312 0.05167659 0.00882902
v 0.06129312 0.05167659 0.014429
v 0.06129312 0.05167659 0.02002897
v 0.06129312 0.05167659 0.02382901
v 0.0613327 -0.05199627 0.00882902
v 0.0613327 -0.05199627 0.02382901
v 0.0613327 0.05200048 0.00882902
v 0.0613327 0.05200048 0.014429
v 0.0613327 0.05200048 0.02002897
v 0.0613327 0.05200048 0.02382901
v 0.06546175 -0.02812843 0.00882902
v 0.06546175 -0.02812843 0.014429
v 0.06546175 -0.02812843 0.02002897
v 0.06546175 -0.02812843 0.02382901
v 0.06546175 0.02813264 0.00882902
v 0.06546175 0.02813264 0.02382901
v 0.06550132 -0.02845232 0.00882902
v 0.06550132 -0.02845232 0.014429
v 0.06550132 -0.02845232 0.02002897
v 0.06550132 -0.02845232 0.02382901
v 0.06550132 0.02845659 0.00882902
v 0.06550132 0.02845659 0.02382901
v 0.0655074 -0.02780531 0.00882902
v 0.0655074 -0.02780531 0.014429
v 0.0655074 -0.02780531 0.02002897
v 0.0655074 -0.02780531 0.02382901
v 0.0655074 0.02780958 0.00882902
v 0.0655074 0.02780958 0.02382901
v 0.0656234 -0.02875493 0.00882902
v 0.0656234 -0.02875493 0.014429
v 0.0656234 -0.02875493 0.02002897
v 0.0656234 -0.02875493 0.02382901
v 0.0656234 0.0287592 0.00882902
v 0.0656234 0.0287592 0.02382901
v 0.06563508 -0.02750502 0.00882902
v 0.06563508 -0.02750502 0.014429
v 0.06563508 -0.02750502 0.02002897
v 0.06563508 -0.02750502 0.02382901
v 0.06563508 0.02750923 0.00882902
v 0.06563508 0.02750923 0.02382901
v 0.06581961 -0.02901564 0.00882902
v 0.06581961 -0.02901564 0.014429
v 0.06581961 -0.02901564 0.02002897
v 0.06581961 -0.02901564 0.02382901
v 0.06581961 0.02901991 0.00882902
v 0.06581961 0.02901991 0.02382901
v 0.06583606 -0.02724801 0.00882902
v 0.06583606 -0.02724801 0.014429
v 0.06583606 -0.02724801 0.02002897
v 0.06583606 -0.02724801 0.02382901
v 0.06583606 0.02725221 0.00882902
v 0.06583606 0.02725221 0.02382901
v 0.06607663 -0.02921675 0.00882902
v 0.06607663 -0.02921675 0.014429
v 0.06607663 -0.02921675 0.02002897
v 0.06607663 -0.02921675 0.02382901
v 0.06607663 0.02922102 0.00882902
v 0.06607663 0.02922102 0.02382901
v 0.06609678 -0.02705179 0.00882902
v 0.06609678 -0.02705179 0.014429
v 0.06609678 -0.02705179 0.02002897
v 0.06609678 -0.02705179 0.02382901
v 0.06609678 0.027056 0.00882902
v 0.06609678 0.027056 0.02382901
v 0.06637692 -0.02934442 0.00882902
v 0.06637692 -0.02934442 0.014429
v 0.06637692 -0.02934442 0.02002897
v 0.06637692 -0.02934442 0.02382901
v 0.06637692 0.02934869 0.00882902
v 0.06637692 0.02934869 0.02382901
v 0.06639945 -0.02692972 0.00882902
v 0.06639945 -0.02692972 0.014429
v 0.06639945 -0.02692972 0.02002897
v 0.06639945 -0.02692972 0.02382901
v 0.06639945 0.02693399 0.00882902
v 0.06639945 0.02693399 0.02382901
v 0.06669997 -0.02939002 0.00882902
v 0.06669997 -0.02939002 0.014429
v 0.06669997 -0.02939002 0.02002897
v 0.06669997 -0.02939002 0.02382901
v 0.06669997 0.02939429 0.00882902
v 0.06669997 0.02939429 0.02382901
v 0.06672334 -0.02689014 0.00882902
v 0.06672334 -0.02689014 0.014429
v 0.06672334 -0.02689014 0.02002897
v 0.06672334 -0.02689014 0.02382901
v 0.06672334 0.02689441 0.00882902
v 0.06672334 0.02689441 0.02382901
v 0.06702387 -0.0293505 0.00882902
v 0.06702387 -0.0293505 0.014429
v 0.06702387 -0.0293505 0.02002897
v 0.06702387 -0.0293505 0.02382901
v 0.06702387 0.02935477 0.00882902
v 0.06702387 0.02935477 0.02382901
v 0.06704652 -0.0269358 0.00882902
v 0.06704652 -0.0269358 0.014429
v 0.06704652 -0.0269358 0.02002897
v 0.06704652 -0.0269358 0.02382901
v 0.06704652 0.02694001 0.00882902
v 0.06704652 0.02694001 0.02382901
v 0.06732654 -0.02922843 0.00882902
v 0.06732654 -0.02922843 0.014429
v 0.06732654 -0.02922843 0.02002897
v 0.06732654 -0.02922843 0.02382901
v 0.06732654 0.0292327 0.00882902
v 0.06732654 0.0292327 0.02382901
v 0.0673468 -0.02706347 0.00882902
v 0.0673468 -0.02706347 0.014429
v 0.0673468 -0.02706347 0.02002897
v 0.0673468 -0.02706347 0.02382901
v 0.0673468 0.02706774 0.00882902
v 0.0673468 0.02706774 0.02382901
v 0.06758725 -0.02903221 0.00882902
v 0.06758725 -0.02903221 0.014429
v 0.06758725 -0.02903221 0.02002897
v 0.06758725 -0.02903221 0.02382901
v 0.06758725 0.02903648 0.00882902
v 0.06758725 0.02903648 0.02382901
v 0.06760382 -0.02726452 0.00882902
v 0.06760382 -0.02726452 0.014429
v 0.06760382 -0.02726452 0.02002897
v 0.06760382 -0.02726452 0.02382901
v 0.06760382 0.02726878 0.00882902
v 0.06760382 0.02726878 0.02382901
v 0.06778835 -0.0287752 0.00882902
v 0.06778835 -0.0287752 0.014429
v 0.06778835 -0.0287752 0.02002897
v 0.06778835 -0.0287752 0.02382901
v 0.06778835 0.02877946 0.00882902
v 0.06778835 0.02877946 0.02382901
v 0.06780004 -0.02752523 0.00882902
v 0.06780004 -0.02752523 0.014429
v 0.06780004 -0.02752523 0.02002897
v 0.06780004 -0.02752523 0.02382901
v 0.06780004 0.0275295 0.00882902
v 0.06780004 0.0275295 0.02382901
v 0.06791603 -0.02847491 0.00882902
v 0.06791603 -0.02847491 0.014429
v 0.06791603 -0.02847491 0.02002897
v 0.06791603 -0.02847491 0.02382901
v 0.06791603 0.02847918 0.00882902
v 0.06791603 0.02847918 0.02382901
v 0.06792211 -0.0278279 0.00882902
v 0.06792211 -0.0278279 0.014429
v 0.06792211 -0.0278279 0.02002897
v 0.06792211 -0.0278279 0.02382901
v 0.06792211 0.02783217 0.00882902
v 0.06792211 0.02783217 0.02382901
v 0.06796157 -0.02815179 0.00882902
v 0.06796157 -0.02815179 0.014429
v 0.06796157 -0.02815179 0.02002897
v 0.06796157 -0.02815179 0.02382901
v 0.06796157 0.02815606 0.00882902
v 0.06796157 0.02815606 0.02382901
vt -2.26719589 0.44145113
vt -2.26719589 1.19145042
vt 2.26740925 0.44145113
vt 2.26740925 1.19145042
vt -2.28339345 0.44145113
vt -2.28339345 1.19145042
vt 2.28360682 0.44145113
vt 2.28360682 1.19145042
vt -2.25104005 0.44145113
vt -2.25104005 1.19145042
vt 2.25125341 0.44145113
vt 2.25125341 1.19145042
vt -2.29852409 0.44145113
vt -2.29852409 1.19145042
vt 2.29873745 0.44145113
vt 2.29873745 1.19145042
vt -2.23602564 0.44145113
vt -2.23602564 1.19145042
vt 2.236239 0.44145113
vt 2.236239 1.19145042
vt -2.31155963 0.44145113
vt -2.31155963 1.19145042
vt 2.31177299 0.44145113
vt 2.31177299 1.19145042
vt -2.22317488 0.44145113
vt -2.22317488 1.19145042
vt 2.22338824 0.44145113
vt 2.22338824 1.19145042
vt -2.32161493 0.44145113
vt -2.32161493 1.19145042
vt 2.32182829 0.44145113
vt 2.32182829 1.19145042
vt -2.21336396 0.44145113
vt -2.21336396 1.19145042
vt 2.21357732 0.44145113
vt 2.21357732 1.19145042
vt -2.32799859 0.44145113
vt -2.32799859 1.19145042
vt 2.32821195 0.44145113
vt 2.32821195 1.19145042
vt -2.20726342 0.44145113
vt -2.20726342 1.19145042
vt 2.20747678 0.44145113
vt 2.20747678 1.19145042
vt -2.33027847 0.44145113
vt -2.33027847 1.19145042
vt 2.33049183 0.44145113
vt 2.33049183 1.19145042
vt -2.20528455 0.44145113
vt -2.20528455 1.19145042
vt 2.20549791 0.44145113
vt 2.20549791 1.19145042
vt -2.32830257 0.44145113
vt -2.32830257 1.19145042
vt 2.32851295 0.44145113
vt 2.32851295 1.19145042
vt -2.20756443 0.44145113
vt -2.20756443 1.19145042
vt 2.20777779 0.44145113
vt 2.20777779 1.19145042
vt -2.32219906 0.44145113
vt -2.32219906 1.19145042
vt 2.32241242 0.44145113
vt 2.32241242 1.19145042
vt -2.21395106 0.44145113
vt -2.21395106 1.19145042
vt 2.21416442 0.44145113
vt 2.21416442 1.19145042
vt -2.31238813 0.44145113
vt -2.31238813 1.19145042
vt 2.31260149 0.44145113
vt 2.31260149 1.19145042
vt -2.22400339 0.44145113
vt -2.22400339 1.19145042
vt 2.22421675 0.44145113
vt 2.22421675 1.19145042
vt -2.29953737 0.44145113
vt -2.29953737 1.19145042
vt 2.29975073 0.44145113
vt 2.29975073 1.19145042
vt -2.23703892 0.44145113
vt -2.23703892 1.19145042
vt 2.23725228 0.44145113
vt 2.23725228 1.19145042
vt -2.28452296 0.44145113
vt -2.28452296 1.19145042
vt 2.28473632 0.44145113
vt 2.28473632 1.19145042
vt -2.25217254 0.44145113
vt -2.25217254 1.19145042
vt 2.2523859 0.44145113
vt 2.2523859 1.19145042
vt -2.26836712 0.44145113
vt -2.26836712 1.19145042
vt 2.26858048 0.44145113
vt 2.26858048 1.19145042
vt -1.07497485 0.44145113
vt -1.07497485 1.19145042
vt 1.07518821 0.44145113
vt 1.07518821 1.19145042
vt -1.09116943 0.44145113
vt -1.09116943 1.19145042
vt 1.09138279 0.44145113
vt 1.09138279 1.19145042
vt -1.05881901 0.44145113
vt -1.05881901 1.19145042
vt 1.05903237 0.44145113
vt 1.05903237 1.19145042
vt -1.10630305 0.44145113
vt -1.10630305 1.19145042
vt 1.10651343 0.44145113
vt 1.10651343 1.19145042
vt -1.0438046 0.44145113
vt -1.0438046 1.19145042
vt 1.04401796 0.44145113
vt 1.04401796 1.19145042
vt -1.11933858 0.44145113
vt -1.11933858 1.19145042
vt 1.11955194 0.44145113
vt 1.11955194 1.19145042
vt -1.03095384 0.44145113
vt -1.03095384 1.19145042
vt 1.0311672 0.44145113
vt 1.0311672 1.19145042
vt -1.12939091 0.44145113
vt -1.12939091 1.19145042
vt 1.12960427 0.44145113
vt 1.12960427 1.19145042
vt -1.02114291 0.44145113
vt -1.02114291 1.19145042
vt 1.02135627 0.44145113
vt 1.02135627 1.19145042
vt -1.13577456 0.44145113
vt -1.13577456 1.19145042
vt 1.13598793 0.44145113
vt 1.13598793 1.19145042
vt -1.0150394 0.44145113
vt -1.0150394 1.19145042
vt 1.01525276 0.44145113
vt 1.01525276 1.19145042
vt -1.13805742 0.44145113
vt -1.13805742 1.19145042
vt 1.13827078 0.44145113
vt 1.13827078 1.19145042
vt -1.0130635 0.44145113
vt -1.0130635 1.19145042
vt 1.01327686 0.44145113
vt 1.01327686 1.19145042
vt -1.13607855 0.44145113
vt -1.13607855 1.19145042
vt 1.13629191 0.44145113
vt 1.13629191 1.19145042
vt -1.01534338 0.44145113
vt -1.01534338 1.19145042
vt 1.01555674 0.44145113
vt 1.01555674 1.19145042
vt -1.12997503 0.44145113
vt -1.12997503 1.19145042
vt 1.13018839 0.44145113
vt 1.13018839 1.19145042
vt -1.02172704 0.44145113
vt -1.02172704 1.19145042
vt 1.0219404 0.44145113
vt 1.0219404 1.19145042
vt -1.12016411 0.44145113
vt -1.12016411 1.19145042
vt 1.12037747 0.44145113
vt 1.12037747 1.19145042
vt -0.31354898 2.1874126
vt -0.06354922 2.1874126
vt -1.80936666 0.03644949
vt -1.80936666 0.11145002
vt -1.03178234 0.44145113
vt -1.03178234 1.19145042
vt 1.03199272 0.44145113
vt 1.03199272 1.19145042
vt -0.31354898 2.18939147
vt -0.06354922 2.18939147
vt -1.82556124 0.03644949
vt -1.82556124 0.11145002
vt -0.31354898 2.18969546
vt -0.06354922 2.18969546
vt -1.79321082 0.03644949
vt -1.79321082 0.11145002
vt -0.31354898 2.19549499
vt -0.06354922 2.19549499
vt -1.84069188 0.03644949
vt -1.84069188 0.11145002
vt -0.31354898 2.19607912
vt -0.06354922 2.19607912
vt -1.77819641 0.03644949
vt -1.77819641 0.11145002
vt -1.10731633 0.44145113
vt -1.10731633 1.19145042
vt 1.10752671 0.44145113
vt 1.10752671 1.19145042
vt -1.04481788 0.44145113
vt -1.04481788 1.19145042
vt 1.04503124 0.44145113
vt 1.04503124 1.19145042
vt -1.09229894 0.44145113
vt -1.09229894 1.19145042
vt 1.0925123 0.44145113
vt 1.0925123 1.19145042
vt -1.05994852 0.44145113
vt -1.05994852 1.19145042
vt 1.06016188 0.44145113
vt 1.06016188 1.19145042
vt -0.31354898 2.20530591
vt -0.06354922 2.20530591
vt -1.85373039 0.03644949
vt -1.85373039 0.11145002
vt -1.07614608 0.44145113
vt -1.07614608 1.19145042
vt 1.07635646 0.44145113
vt 1.07635646 1.19145042
vt -0.31354898 2.20613442
vt -0.06354922 2.20613442
vt -1.76534564 0.03644949
vt -1.76534564 0.11145002
vt -0.31354898 2.21815668
vt -0.06354922 2.21815668
vt -1.86378272 0.03644949
vt -1.86378272 0.11145002
vt -0.31354898 2.21916995
vt -0.06354922 2.21916995
vt -1.75553472 0.03644949
vt -1.75553472 0.11145002
vt -0.31354898 2.21971832
vt -0.06354922 2.21971832
vt 1.69338672 0.03644949
vt 1.69338672 0.11145002
vt -0.31354898 2.22169123
vt -0.06354922 2.22169123
vt 1.7095813 0.03644949
vt 1.7095813 0.11145002
vt -0.31354898 2.22199521
vt -0.06354922 2.22199521
vt 1.67723088 0.03644949
vt 1.67723088 0.11145002
vt -0.31354898 2.22779475
vt -0.06354922 2.22779475
vt 1.72471194 0.03644949
vt 1.72471194 0.11145002
vt -0.31354898 2.22837887
vt -0.06354922 2.22837887
vt 1.66221647 0.03644949
vt 1.66221647 0.11145002
vt -0.31354898 2.23317109
vt -0.06354922 2.23317109
vt -1.87016637 0.03644949
vt -1.87016637 0.11145002
vt -0.31354898 2.23429761
vt -0.06354922 2.23429761
vt -1.7494312 0.03644949
vt -1.7494312 0.11145002
vt -0.31354898 2.23760567
vt -0.06354922 2.23760567
vt 1.73775046 0.03644949
vt 1.73775046 0.11145002
vt -0.31354898 2.23843418
vt -0.06354922 2.23843418
vt 1.64936571 0.03644949
vt 1.64936571 0.11145002
vt -0.31354898 2.24932394
vt -0.06354922 2.24932394
vt -1.87244923 0.03644949
vt -1.87244923 0.11145002
vt -0.31354898 2.25045643
vt -0.06354922 2.25045643
vt 1.74780278 0.03644949
vt 1.74780278 0.11145002
vt -0.31354898 2.25049816
vt -0.06354922 2.25049816
vt -1.74745531 0.03644949
vt -1.74745531 0.11145002
vt -0.31354898 2.25146971
vt -0.06354922 2.25146971
vt 1.63955479 0.03644949
vt 1.63955479 0.11145002
vt -0.31354898 2.26547084
vt -0.06354922 2.26547084
vt 1.75418644 0.03644949
vt 1.75418644 0.11145002
vt -0.31354898 2.26551853
vt -0.06354922 2.26551853
vt -1.87047036 0.03644949
vt -1.87047036 0.11145002
vt -0.31354898 2.26660333
vt -0.06354922 2.26660333
vt 1.63345127 0.03644949
vt 1.63345127 0.11145002
vt -0.31354898 2.26665101
vt -0.06354922 2.26665101
vt -1.74973519 0.03644949
vt -1.74973519 0.11145002
vt -0.31354898 2.28065215
vt -0.06354922 2.28065215
vt -1.86436684 0.03644949
vt -1.86436684 0.11145002
vt -0.31354898 2.28162966
vt -0.06354922 2.28162966
vt 1.75646632 0.03644949
vt 1.75646632 0.11145002
vt -0.31354898 2.28166542
vt -0.06354922 2.28166542
vt -1.75611885 0.03644949
vt -1.75611885 0.11145002
vt -0.31354898 2.28279791
vt -0.06354922 2.28279791
vt 1.6314724 0.03644949
vt 1.6314724 0.11145002
vt -0.31354898 2.29368768
vt -0.06354922 2.29368768
vt -1.85455592 0.03644949
vt -1.85455592 0.11145002
vt -0.31354898 2.29451619
vt -0.06354922 2.29451619
vt -1.76617415 0.03644949
vt -1.76617415 0.11145002
vt -0.31354898 2.29782424
vt -0.06354922 2.29782424
vt 1.75449042 0.03644949
vt 1.75449042 0.11145002
vt -0.31354898 2.29895673
vt -0.06354922 2.29895673
vt 1.63375525 0.03644949
vt 1.63375525 0.11145002
vt -0.31354898 2.30374298
vt -0.06354922 2.30374298
vt -1.84170516 0.03644949
vt -1.84170516 0.11145002
vt -0.31354898 2.30432711
vt -0.06354922 2.30432711
vt -1.77920969 0.03644949
vt -1.77920969 0.11145002
vt -0.31354898 2.31012664
vt -0.06354922 2.31012664
vt -1.82669075 0.03644949
vt -1.82669075 0.11145002
vt -0.31354898 2.31043063
vt -0.06354922 2.31043063
vt -1.79434032 0.03644949
vt -1.79434032 0.11145002
vt -0.31354898 2.3124095
vt -0.06354922 2.3124095
vt -1.81053491 0.03644949
vt -1.81053491 0.11145002
vt -0.31354898 2.31295786
vt -0.06354922 2.31295786
vt 1.74838691 0.03644949
vt 1.74838691 0.11145002
vt -0.31354898 2.31397114
vt -0.06354922 2.31397114
vt 1.64013891 0.03644949
vt 1.64013891 0.11145002
vt -0.31354898 2.3259934
vt -0.06354922 2.3259934
vt 1.73857598 0.03644949
vt 1.73857598 0.11145002
vt -0.31354898 2.3268219
vt -0.06354922 2.3268219
vt 1.65019124 0.03644949
vt 1.65019124 0.11145002
vt -0.31354898 2.33604274
vt -0.06354922 2.33604274
vt 1.72572522 0.03644949
vt 1.72572522 0.11145002
vt -0.31354898 2.33663283
vt -0.06354922 2.33663283
vt 1.66322975 0.03644949
vt 1.66322975 0.11145002
vt -0.31354898 2.34243236
vt -0.06354922 2.34243236
vt 1.71071081 0.03644949
vt 1.71071081 0.11145002
vt -0.31354898 2.34273038
vt -0.06354922 2.34273038
vt 1.67836039 0.03644949
vt 1.67836039 0.11145002
vt -0.31354898 2.34470926
vt -0.06354922 2.34470926
vt 1.69455497 0.03644949
vt 1.69455497 0.11145002
vt -0.31354898 2.80278883
vt -0.06354922 2.80278883
vt 1.98065727 0.03644949
vt 1.98065727 0.11145002
vt -0.31354898 2.80476771
vt -0.06354922 2.80476771
vt 1.99685185 0.03644949
vt 1.99685185 0.11145002
vt -0.31354898 2.80507169
vt -0.06354922 2.80507169
vt 1.96450143 0.03644949
vt 1.96450143 0.11145002
vt -0.31354898 2.81087122
vt -0.06354922 2.81087122
vt 2.01198547 0.03644949
vt 2.01198547 0.11145002
vt -0.31354898 2.81145535
vt -0.06354922 2.81145535
vt 1.94948702 0.03644949
vt 1.94948702 0.11145002
vt -0.31354898 2.82068215
vt -0.06354922 2.82068215
vt 2.025021 0.03644949
vt 2.025021 0.11145002
vt -0.31354898 2.82151065
vt -0.06354922 2.82151065
vt 1.93663626 0.03644949
vt 1.93663626 0.11145002
vt -0.31354898 2.83353291
vt -0.06354922 2.83353291
vt 2.03507333 0.03644949
vt 2.03507333 0.11145002
vt -0.31354898 2.83454619
vt -0.06354922 2.83454619
vt 1.92682533 0.03644949
vt 1.92682533 0.11145002
vt -0.31354898 2.83509455
vt -0.06354922 2.83509455
vt -1.86425061 0.03644949
vt -1.86425061 0.11145002
vt -0.31354898 2.83706746
vt -0.06354922 2.83706746
vt -1.88044519 0.03644949
vt -1.88044519 0.11145002
vt -0.31354898 2.83737145
vt -0.06354922 2.83737145
vt -1.84809477 0.03644949
vt -1.84809477 0.11145002
vt -0.31354898 2.84317098
vt -0.06354922 2.84317098
vt -1.89557881 0.03644949
vt -1.89557881 0.11145002
vt -0.31354898 2.84375511
vt -0.06354922 2.84375511
vt -1.83308036 0.03644949
vt -1.83308036 0.11145002
vt -0.31354898 2.84854732
vt -0.06354922 2.84854732
vt 2.04145997 0.03644949
vt 2.04145997 0.11145002
vt -0.31354898 2.84967385
vt -0.06354922 2.84967385
vt 1.9207248 0.03644949
vt 1.9207248 0.11145002
vt -0.31354898 2.85298191
vt -0.06354922 2.85298191
vt -1.90861435 0.03644949
vt -1.90861435 0.11145002
vt -0.31354898 2.85381041
vt -0.06354922 2.85381041
vt -1.8202296 0.03644949
vt -1.8202296 0.11145002
vt -0.31354898 2.86470018
vt -0.06354922 2.86470018
vt 2.04373984 0.03644949
vt 2.04373984 0.11145002
vt -0.31354898 2.86583267
vt -0.06354922 2.86583267
vt -1.91866667 0.03644949
vt -1.91866667 0.11145002
vt -0.31354898 2.86587439
vt -0.06354922 2.86587439
vt 1.91874592 0.03644949
vt 1.91874592 0.11145002
vt -0.31354898 2.86684595
vt -0.06354922 2.86684595
vt -1.81041868 0.03644949
vt -1.81041868 0.11145002
vt -0.31354898 2.88084708
vt -0.06354922 2.88084708
vt -1.92505331 0.03644949
vt -1.92505331 0.11145002
vt -0.31354898 2.88089476
vt -0.06354922 2.88089476
vt 2.04176097 0.03644949
vt 2.04176097 0.11145002
vt -0.31354898 2.88197956
vt -0.06354922 2.88197956
vt -1.80431516 0.03644949
vt -1.80431516 0.11145002
vt -0.31354898 2.88202725
vt -0.06354922 2.88202725
vt 1.9210258 0.03644949
vt 1.9210258 0.11145002
vt -0.31354898 2.89602838
vt -0.06354922 2.89602838
vt 2.03566043 0.03644949
vt 2.03566043 0.11145002
vt -0.31354898 2.8970059
vt -0.06354922 2.8970059
vt -1.92733319 0.03644949
vt -1.92733319 0.11145002
vt -0.31354898 2.89704166
vt -0.06354922 2.89704166
vt 1.92741244 0.03644949
vt 1.92741244 0.11145002
vt -0.31354898 2.89817415
vt -0.06354922 2.89817415
vt -1.80233927 0.03644949
vt -1.80233927 0.11145002
vt -0.31354898 2.90906392
vt -0.06354922 2.90906392
vt 2.02584951 0.03644949
vt 2.02584951 0.11145002
vt -0.31354898 2.90989242
vt -0.06354922 2.90989242
vt 1.93746476 0.03644949
vt 1.93746476 0.11145002
vt -0.31354898 2.91320048
vt -0.06354922 2.91320048
vt -1.92535431 0.03644949
vt -1.92535431 0.11145002
vt -0.31354898 2.91432701
vt -0.06354922 2.91432701
vt -1.80461915 0.03644949
vt -1.80461915 0.11145002
vt -0.31354898 2.91911922
vt -0.06354922 2.91911922
vt 2.01299875 0.03644949
vt 2.01299875 0.11145002
vt -0.31354898 2.91970334
vt -0.06354922 2.91970334
vt 1.9505003 0.03644949
vt 1.9505003 0.11145002
vt -0.31354898 2.92550288
vt -0.06354922 2.92550288
vt 1.99798434 0.03644949
vt 1.99798434 0.11145002
vt -0.31354898 2.92580686
vt -0.06354922 2.92580686
vt 1.96563094 0.03644949
vt 1.96563094 0.11145002
vt -0.31354898 2.92778573
vt -0.06354922 2.92778573
vt 1.9818285 0.03644949
vt 1.9818285 0.11145002
vt -0.31354898 2.9283341
vt -0.06354922 2.9283341
vt -1.91925378 0.03644949
vt -1.91925378 0.11145002
vt -0.31354898 2.92934738
vt -0.06354922 2.92934738
vt -1.8110028 0.03644949
vt -1.8110028 0.11145002
vt -0.31354898 2.94136963
vt -0.06354922 2.94136963
vt -1.90944285 0.03644949
vt -1.90944285 0.11145002
vt -2.59864242 0.44145113
vt -2.59864242 1.19145042
vt 2.59885578 0.44145113
vt 2.59885578 0.72144991
vt 2.59885578 1.00144869
vt 2.59885578 1.19145042
vt -0.31354898 2.94219814
vt -0.06354922 2.94219814
vt -1.82105811 0.03644949
vt -1.82105811 0.11145002
vt -2.614837 0.44145113
vt -2.614837 1.19145042
vt 2.61505036 0.44145113
vt 2.61505036 0.72144991
vt 2.61505036 1.00144869
vt 2.61505036 1.19145042
vt -2.58248658 0.44145113
vt -2.58248658 1.19145042
vt 2.58269994 0.44145113
vt 2.58269994 0.72144991
vt 2.58269994 1.00144869
vt 2.58269994 1.19145042
vt -2.62997062 0.44145113
vt -2.62997062 1.19145042
vt 2.630181 0.44145113
vt 2.630181 0.72144991
vt 2.630181 1.00144869
vt 2.630181 1.19145042
vt -2.56747217 0.44145113
vt -2.56747217 1.19145042
vt 2.56768553 0.44145113
vt 2.56768553 0.72144991
vt 2.56768553 1.00144869
vt 2.56768553 1.19145042
vt -0.31354898 2.95141898
vt -0.06354922 2.95141898
vt -1.89659209 0.03644949
vt -1.89659209 0.11145002
vt -0.31354898 2.9520031
vt -0.06354922 2.9520031
vt -1.83409364 0.03644949
vt -1.83409364 0.11145002
vt -0.31354898 2.95780859
vt -0.06354922 2.95780859
vt -1.8815747 0.03644949
vt -1.8815747 0.11145002
vt -0.31354898 2.95810662
vt -0.06354922 2.95810662
vt -1.84922428 0.03644949
vt -1.84922428 0.11145002
vt -2.64300616 0.44145113
vt -2.64300616 1.19145042
vt 2.64321952 0.44145113
vt 2.64321952 0.72144991
vt 2.64321952 1.00144869
vt 2.64321952 1.19145042
vt -0.31354898 2.96008549
vt -0.06354922 2.96008549
vt -1.86542184 0.03644949
vt -1.86542184 0.11145002
vt -2.55462141 0.44145113
vt -2.55462141 1.19145042
vt 2.55483477 0.44145113
vt 2.55483477 0.72144991
vt 2.55483477 1.00144869
vt 2.55483477 1.19145042
vt -2.65305848 0.44145113
vt -2.65305848 1.19145042
vt 2.65327184 0.44145113
vt 2.65327184 0.72144991
vt 2.65327184 1.00144869
vt 2.65327184 1.19145042
vt -2.54481049 0.44145113
vt -2.54481049 1.19145042
vt 2.54502385 0.44145113
vt 2.54502385 0.72144991
vt 2.54502385 1.00144869
vt 2.54502385 1.19145042
vt -2.65944214 0.44145113
vt -2.65944214 1.19145042
vt 2.6596555 0.44145113
vt 2.6596555 0.72144991
vt 2.6596555 1.00144869
vt 2.6596555 1.19145042
vt -2.53870697 0.44145113
vt -2.53870697 1.19145042
vt 2.53892033 0.44145113
vt 2.53892033 0.72144991
vt 2.53892033 1.00144869
vt 2.53892033 1.19145042
vt -2.661725 0.44145113
vt -2.661725 1.19145042
vt 2.66193836 0.44145113
vt 2.66193836 0.72144991
vt 2.66193836 1.00144869
vt 2.66193836 1.19145042
vt -2.53673108 0.44145113
vt -2.53673108 1.19145042
vt 2.53694444 0.44145113
vt 2.53694444 0.72144991
vt 2.53694444 1.00144869
vt 2.53694444 1.19145042
vt -2.65974612 0.44145113
vt -2.65974612 1.19145042
vt 2.65995948 0.44145113
vt 2.65995948 0.72144991
vt 2.65995948 1.00144869
vt 2.65995948 1.19145042
vt -2.53901095 0.44145113
vt -2.53901095 1.19145042
vt 2.53922431 0.44145113
vt 2.53922431 0.72144991
vt 2.53922431 1.00144869
vt 2.53922431 1.19145042
vt -2.65364261 0.44145113
vt -2.65364261 1.19145042
vt 2.65385597 0.44145113
vt 2.65385597 0.72144991
vt 2.65385597 1.00144869
vt 2.65385597 1.19145042
vt -2.54539461 0.44145113
vt -2.54539461 1.19145042
vt 2.54560797 0.44145113
vt 2.54560797 0.72144991
vt 2.54560797 1.00144869
vt 2.54560797 1.19145042
vt -2.64383168 0.44145113
vt -2.64383168 1.19145042
vt 2.64404504 0.44145113
vt 2.64404504 0.72144991
vt 2.64404504 1.00144869
vt 2.64404504 1.19145042
vt -2.55544991 0.44145113
vt -2.55544991 1.19145042
vt 2.5556603 0.44145113
vt 2.5556603 0.72144991
vt 2.5556603 1.00144869
vt 2.5556603 1.19145042
vt -2.6309839 0.44145113
vt -2.6309839 1.19145042
vt 2.63119428 0.44145113
vt 2.63119428 0.72144991
vt 2.63119428 1.00144869
vt 2.63119428 1.19145042
vt -2.56848545 0.44145113
vt -2.56848545 1.19145042
vt 2.56869881 0.44145113
vt 2.56869881 0.72144991
vt 2.56869881 1.00144869
vt 2.56869881 1.19145042
vt -2.61596651 0.44145113
vt -2.61596651 1.19145042
vt 2.61617987 0.44145113
vt 2.61617987 0.72144991
vt 2.61617987 1.00144869
vt 2.61617987 1.19145042
vt -2.58361609 0.44145113
vt -2.58361609 1.19145042
vt 2.58382945 0.44145113
vt 2.58382945 0.72144991
vt 2.58382945 1.00144869
vt 2.58382945 1.19145042
vt -2.59981365 0.44145113
vt -2.59981365 1.19145042
vt 2.60002403 0.44145113
vt 2.60002403 0.72144991
vt 2.60002403 1.00144869
vt 2.60002403 1.19145042
vt -1.40642138 0.44145113
vt -1.40642138 0.72144991
vt -1.40642138 1.00144869
vt -1.40642138 1.19145042
vt 1.40663176 0.44145113
vt 1.40663176 1.19145042
vt -1.42261596 0.44145113
vt -1.42261596 0.72144991
vt -1.42261596 1.00144869
vt -1.42261596 1.19145042
vt 1.42282932 0.44145113
vt 1.42282932 1.19145042
vt -1.39026554 0.44145113
vt -1.39026554 0.72144991
vt -1.39026554 1.00144869
vt -1.39026554 1.19145042
vt 1.3904789 0.44145113
vt 1.3904789 1.19145042
vt -1.4377466 0.44145113
vt -1.4377466 0.72144991
vt -1.4377466 1.00144869
vt -1.4377466 1.19145042
vt 1.43795996 0.44145113
vt 1.43795996 1.19145042
vt -1.37525113 0.44145113
vt -1.37525113 0.72144991
vt -1.37525113 1.00144869
vt -1.37525113 1.19145042
vt 1.37546151 0.44145113
vt 1.37546151 1.19145042
vt -1.45078213 0.44145113
vt -1.45078213 0.72144991
vt -1.45078213 1.00144869
vt -1.45078213 1.19145042
vt 1.45099549 0.44145113
vt 1.45099549 1.19145042
vt -1.36240036 0.44145113
vt -1.36240036 0.72144991
vt -1.36240036 1.00144869
vt -1.36240036 1.19145042
vt 1.36261075 0.44145113
vt 1.36261075 1.19145042
vt -1.46083744 0.44145113
vt -1.46083744 0.72144991
vt -1.46083744 1.00144869
vt -1.46083744 1.19145042
vt 1.4610508 0.44145113
vt 1.4610508 1.19145042
vt -1.35258944 0.44145113
vt -1.35258944 0.72144991
vt -1.35258944 1.00144869
vt -1.35258944 1.19145042
vt 1.35279982 0.44145113
vt 1.35279982 1.19145042
vt -1.46722109 0.44145113
vt -1.46722109 0.72144991
vt -1.46722109 1.00144869
vt -1.46722109 1.19145042
vt 1.46743445 0.44145113
vt 1.46743445 1.19145042
vt -1.34648592 0.44145113
vt -1.34648592 0.72144991
vt -1.34648592 1.00144869
vt -1.34648592 1.19145042
vt 1.34669929 0.44145113
vt 1.34669929 1.19145042
vt -1.46950097 0.44145113
vt -1.46950097 0.72144991
vt -1.46950097 1.00144869
vt -1.46950097 1.19145042
vt 1.46971433 0.44145113
vt 1.46971433 1.19145042
vt -1.34450705 0.44145113
vt -1.34450705 0.72144991
vt -1.34450705 1.00144869
vt -1.34450705 1.19145042
vt 1.34472041 0.44145113
vt 1.34472041 1.19145042
vt -1.46752508 0.44145113
vt -1.46752508 0.72144991
vt -1.46752508 1.00144869
vt -1.46752508 1.19145042
vt 1.46773844 0.44145113
vt 1.46773844 1.19145042
vt -1.34678991 0.44145113
vt -1.34678991 0.72144991
vt -1.34678991 1.00144869
vt -1.34678991 1.19145042
vt 1.34700029 0.44145113
vt 1.34700029 1.19145042
vt -1.46142156 0.44145113
vt -1.46142156 0.72144991
vt -1.46142156 1.00144869
vt -1.46142156 1.19145042
vt 1.46163492 0.44145113
vt 1.46163492 1.19145042
vt -1.35317357 0.44145113
vt -1.35317357 0.72144991
vt -1.35317357 1.00144869
vt -1.35317357 1.19145042
vt 1.35338693 0.44145113
vt 1.35338693 1.19145042
vt -1.45161064 0.44145113
vt -1.45161064 0.72144991
vt -1.45161064 1.00144869
vt -1.45161064 1.19145042
vt 1.451824 0.44145113
vt 1.451824 1.19145042
vt -1.36322589 0.44145113
vt -1.36322589 0.72144991
vt -1.36322589 1.00144869
vt -1.36322589 1.19145042
vt 1.36343925 0.44145113
vt 1.36343925 1.19145042
vt -1.43875988 0.44145113
vt -1.43875988 0.72144991
vt -1.43875988 1.00144869
vt -1.43875988 1.19145042
vt 1.43897324 0.44145113
vt 1.43897324 1.19145042
vt -1.37626143 0.44145113
vt -1.37626143 0.72144991
vt -1.37626143 1.00144869
vt -1.37626143 1.19145042
vt 1.37647479 0.44145113
vt 1.37647479 1.19145042
vt -1.42374547 0.44145113
vt -1.42374547 0.72144991
vt -1.42374547 1.00144869
vt -1.42374547 1.19145042
vt 1.42395883 0.44145113
vt 1.42395883 1.19145042
vt -1.39139504 0.44145113
vt -1.39139504 0.72144991
vt -1.39139504 1.00144869
vt -1.39139504 1.19145042
vt 1.39160841 0.44145113
vt 1.39160841 1.19145042
vt -1.40758963 0.44145113
vt -1.40758963 0.72144991
vt -1.40758963 1.00144869
vt -1.40758963 1.19145042
vt 1.40780299 0.44145113
vt 1.40780299 1.19145042
f 340/340 339/339 332/332
f 332/332 339/339 331/331
f 332/332 331/331 316/316
f 316/316 331/331 315/315
f 316/316 315/315 300/300
f 300/300 315/315 299/299
f 300/300 299/299 288/288
f 288/288 299/299 287/287
f 288/288 287/287 268/268
f 268/268 287/287 267/267
f 268/268 267/267 252/252
f 252/252 267/267 251/251
f 252/252 251/251 224/224
f 224/224 251/251 223/223
f 224/224 223/223 212/212
f 212/212 223/223 211/211
f 212/212 211/211 188/188
f 188/188 211/211 187/187
f 188/188 187/187 180/180
f 180/180 187/187 179/179
f 180/180 179/179 172/172
f 172/172 179/179 171/171
f 172/172 171/171 184/184
f 184/184 171/171 183/183
f 184/184 183/183 192/192
f 192/192 183/183 191/191
f 192/192 191/191 220/220
f 220/220 191/191 219/219
f 220/220 219/219 228/228
f 228/228 219/219 227/227
f 228/228 227/227 256/256
f 256/256 227/227 255/255
f 256/256 255/255 276/276
f 276/276 255/255 275/275
f 276/276 275/275 296/296
f 296/296 275/275 295/295
f 296/296 295/295 308/308
f 308/308 295/295 307/307
f 308/308 307/307 320/320
f 320/320 307/307 319/319
f 320/320 319/319 336/336
f 336/336 319/319 335/335
f 336/336 335/335 344/344
f 344/344 335/335 343/343
f 344/344 343/343 348/348
f 348/348 343/343 347/347
f 348/348 347/347 340/340
f 340/340 347/347 339/339
f 598/598 597/597 590/590
f 590/590 597/597 589/589
f 590/590 589/589 552/552
f 552/552 589/589 551/551
f 552/552 551/551 544/544
f 544/544 551/551 543/543
f 544/544 543/543 516/516
f 516/516 543/543 515/515
f 516/516 515/515 496/496
f 496/496 515/515 495/495
f 496/496 495/495 476/476
f 476/476 495/495 475/475
f 476/476 475/475 464/464
f 464/464 475/475 463/463
f 464/464 463/463 452/452
f 452/452 463/463 451/451
f 452/452 451/451 436/436
f 436/436 451/451 435/435
f 436/436 435/435 428/428
f 428/428 435/435 427/427
f 428/428 427/427 424/424
f 424/424 427/427 423/423
f 424/424 423/423 432/432
f 432/432 423/423 431/431
f 432/432 431/431 440/440
f 440/440 431/431 439/439
f 440/440 439/439 456/456
f 456/456 439/439 455/455
f 456/456 455/455 472/472
f 472/472 455/455 471/471
f 472/472 471/471 484/484
f 484/484 471/471 483/483
f 484/484 483/483 504/504
f 504/504 483/483 503/503
f 504/504 503/503 520/520
f 520/520 503/503 519/519
f 520/520 519/519 548/548
f 548/548 519/519 547/547
f 548/548 547/547 562/562
f 562/562 547/547 561/561
f 562/562 561/561 594/594
f 594/594 561/561 593/593
f 594/594 593/593 602/602
f 602/602 593/593 601/601
f 602/602 601/601 612/612
f 612/612 601/601 611/611
f 612/612 611/611 598/598
f 598/598 611/611 597/597
f 474/474 473/473 462/462
f 462/462 473/473 461/461
f 462/462 461/461 450/450
f 450/450 461/461 449/449
f 450/450 449/449 434/434
f 434/434 449/449 433/433
f 434/434 433/433 426/426
f 426/426 433/433 425/425
f 426/426 425/425 422/422
f 422/422 425/425 421/421
f 422/422 421/421 430/430
f 430/430 421/421 429/429
f 430/430 429/429 438/438
f 438/438 429/429 437/437
f 438/438 437/437 454/454
f 454/454 437/437 453/453
f 454/454 453/453 470/470
f 470/470 453/453 469/469
f 470/470 469/469 482/482
f 482/482 469/469 481/481
f 482/482 481/481 502/502
f 502/502 481/481 501/501
f 502/502 501/501 518/518
f 518/518 501/501 517/517
f 518/518 517/517 546/546
f 546/546 517/517 545/545
f 546/546 545/545 560/560
f 560/560 545/545 559/559
f 560/560 559/559 592/592
f 592/592 559/559 591/591
f 592/592 591/591 600/600
f 600/600 591/591 599/599
f 600/600 599/599 610/610
f 610/610 599/599 609/609
f 610/610 609/609 596/596
f 596/596 609/609 595/595
f 596/596 595/595 588/588
f 588/588 595/595 587/587
f 588/588 587/587 550/550
f 550/550 587/587 549/549
f 550/550 549/549 542/542
f 542/542 549/549 541/541
f 542/542 541/541 514/514
f 514/514 541/541 513/513
f 514/514 513/513 494/494
f 494/494 513/513 493/493
f 494/494 493/493 474/474
f 474/474 493/493 473/473
f 250/250 249/249 222/222
f 222/222 249/249 221/221
f 222/222 221/221 210/210
f 210/210 221/221 209/209
f 210/210 209/209 186/186
f 186/186 209/209 185/185
f 186/186 185/185 178/178
f 178/178 185/185 177/177
f 178/178 177/177 170/170
f 170/170 177/177 169/169
f 170/170 169/169 182/182
f 182/182 169/169 181/181
f 182/182 181/181 190/190
f 190/190 181/181 189/189
f 190/190 189/189 218/218
f 218/218 189/189 217/217
f 218/218 217/217 226/226
f 226/226 217/217 225/225
f 226/226 225/225 254/254
f 254/254 225/225 253/253
f 254/254 253/253 274/274
f 274/274 253/253 273/273
f 274/274 273/273 294/294
f 294/294 273/273 293/293
f 294/294 293/293 306/306
f 306/306 293/293 305/305
f 306/306 305/305 318/318
f 318/318 305/305 317/317
f 318/318 317/317 334/334
f 334/334 317/317 333/333
f 334/334 333/333 342/342
f 342/342 333/333 341/341
f 342/342 341/341 346/346
f 346/346 341/341 345/345
f 346/346 345/345 338/338
f 338/338 345/345 337/337
f 338/338 337/337 330/330
f 330/330 337/337 329/329
f 330/330 329/329 314/314
f 314/314 329/329 313/313
f 314/314 313/313 298/298
f 298/298 313/313 297/297
f 298/298 297/297 286/286
f 286/286 297/297 285/285
f 286/286 285/285 266/266
f 266/266 285/285 265/265
f 266/266 265/265 250/250
f 250/250 265/265 249/249
f 733/733 734/734 721/721
f 721/721 734/734 722/722
f 721/721 722/722 727/727
f 727/727 722/722 728/728
f 727/727 728/728 739/739
f 739/739 728/728 740/740
f 739/739 740/740 751/751
f 751/751 740/740 752/752
f 751/751 752/752 763/763
f 763/763 752/752 764/764
f 763/763 764/764 775/775
f 775/775 764/764 776/776
f 775/775 776/776 787/787
f 787/787 776/776 788/788
f 787/787 788/788 799/799
f 799/799 788/788 800/800
f 799/799 800/800 811/811
f 811/811 800/800 812/812
f 811/811 812/812 823/823
f 823/823 812/812 824/824
f 823/823 824/824 835/835
f 835/835 824/824 836/836
f 835/835 836/836 847/847
f 847/847 836/836 848/848
f 847/847 848/848 859/859
f 859/859 848/848 860/860
f 859/859 860/860 853/853
f 853/853 860/860 854/854
f 853/853 854/854 841/841
f 841/841 854/854 842/842
f 841/841 842/842 829/829
f 829/829 842/842 830/830
f 829/829 830/830 817/817
f 817/817 830/830 818/818
f 817/817 818/818 805/805
f 805/805 818/818 806/806
f 805/805 806/806 793/793
f 793/793 806/806 794/794
f 793/793 794/794 781/781
f 781/781 794/794 782/782
f 781/781 782/782 769/769
f 769/769 782/782 770/770
f 769/769 770/770 757/757
f 757/757 770/770 758/758
f 757/757 758/758 745/745
f 745/745 758/758 746/746
f 745/745 746/746 733/733
f 733/733 746/746 734/734
f 569/569 570/570 553/553
f 553/553 570/570 554/554
f 553/553 554/554 563/563
f 563/563 554/554 564/564
f 563/563 564/564 575/575
f 575/575 564/564 576/576
f 575/575 576/576 603/603
f 603/603 576/576 604/604
f 603/603 604/604 619/619
f 619/619 604/604 620/620
f 619/619 620/620 631/631
f 631/631 620/620 632/632
f 631/631 632/632 643/643
f 643/643 632/632 644/644
f 643/643 644/644 655/655
f 655/655 644/644 656/656
f 655/655 656/656 667/667
f 667/667 656/656 668/668
f 667/667 668/668 679/679
f 679/679 668/668 680/680
f 679/679 680/680 691/691
f 691/691 680/680 692/692
f 691/691 692/692 703/703
f 703/703 692/692 704/704
f 703/703 704/704 715/715
f 715/715 704/704 716/716
f 715/715 716/716 709/709
f 709/709 716/716 710/710
f 709/709 710/710 697/697
f 697/697 710/710 698/698
f 697/697 698/698 685/685
f 685/685 698/698 686/686
f 685/685 686/686 673/673
f 673/673 686/686 674/674
f 673/673 674/674 661/661
f 661/661 674/674 662/662
f 661/661 662/662 649/649
f 649/649 662/662 650/650
f 649/649 650/650 637/637
f 637/637 650/650 638/638
f 637/637 638/638 625/625
f 625/625 638/638 626/626
f 625/625 626/626 613/613
f 613/613 626/626 614/614
f 613/613 614/614 581/581
f 581/581 614/614 582/582
f 581/581 582/582 569/569
f 569/569 582/582 570/570
f 9/9 10/10 1/1
f 1/1 10/10 2/2
f 1/1 2/2 5/5
f 5/5 2/2 6/6
f 5/5 6/6 13/13
f 13/13 6/6 14/14
f 13/13 14/14 21/21
f 21/21 14/14 22/22
f 21/21 22/22 29/29
f 29/29 22/22 30/30
f 29/29 30/30 37/37
f 37/37 30/30 38/38
f 37/37 38/38 45/45
f 45/45 38/38 46/46
f 45/45 46/46 53/53
f 53/53 46/46 54/54
f 53/53 54/54 61/61
f 61/61 54/54 62/62
f 61/61 62/62 69/69
f 69/69 62/62 70/70
f 69/69 70/70 77/77
f 77/77 70/70 78/78
f 77/77 78/78 85/85
f 85/85 78/78 86/86
f 85/85 86/86 93/93
f 93/93 86/86 94/94
f 93/93 94/94 89/89
f 89/89 94/94 90/90
f 89/89 90/90 81/81
f 81/81 90/90 82/82
f 81/81 82/82 73/73
f 73/73 82/82 74/74
f 73/73 74/74 65/65
f 65/65 74/74 66/66
f 65/65 66/66 57/57
f 57/57 66/66 58/58
f 57/57 58/58 49/49
f 49/49 58/58 50/50
f 49/49 50/50 41/41
f 41/41 50/50 42/42
f 41/41 42/42 33/33
f 33/33 42/42 34/34
f 33/33 34/34 25/25
f 25/25 34/34 26/26
f 25/25 26/26 17/17
f 17/17 26/26 18/18
f 17/17 18/18 9/9
f 9/9 18/18 10/10
f 105/105 106/106 97/97
f 97/97 106/106 98/98
f 97/97 98/98 101/101
f 101/101 98/98 102/102
f 101/101 102/102 109/109
f 109/109 102/102 110/110
f 109/109 110/110 117/117
f 117/117 110/110 118/118
f 117/117 118/118 125/125
f 125/125 118/118 126/126
f 125/125 126/126 133/133
f 133/133 126/126 134/134
f 133/133 134/134 141/141
f 141/141 134/134 142/142
f 141/141 142/142 149/149
f 149/149 142/142 150/150
f 149/149 150/150 157/157
f 157/157 150/150 158/158
f 157/157 158/158 165/165
f 165/165 158/158 166/166
f 165/165 166/166 193/193
f 193/193 166/166 194/194
f 193/193 194/194 201/201
f 201/201 194/194 202/202
f 201/201 202/202 213/213
f 213/213 202/202 214/214
f 213/213 214/214 205/205
f 205/205 214/214 206/206
f 205/205 206/206 197/197
f 197/197 206/206 198/198
f 197/197 198/198 173/173
f 173/173 198/198 174/174
f 173/173 174/174 161/161
f 161/161 174/174 162/162
f 161/161 162/162 153/153
f 153/153 162/162 154/154
f 153/153 154/154 145/145
f 145/145 154/154 146/146
f 145/145 146/146 137/137
f 137/137 146/146 138/138
f 137/137 138/138 129/129
f 129/129 138/138 130/130
f 129/129 130/130 121/121
f 121/121 130/130 122/122
f 121/121 122/122 113/113
f 113/113 122/122 114/114
f 113/113 114/114 105/105
f 105/105 114/114 106/106
f 735/735 736/736 723/723
f 723/723 736/736 724/724
f 723/723 724/724 729/729
f 729/729 724/724 730/730
f 729/729 730/730 741/741
f 741/741 730/730 742/742
f 741/741 742/742 753/753
f 753/753 742/742 754/754
f 753/753 754/754 765/765
f 765/765 754/754 766/766
f 765/765 766/766 777/777
f 777/777 766/766 778/778
f 777/777 778/778 789/789
f 789/789 778/778 790/790
f 789/789 790/790 801/801
f 801/801 790/790 802/802
f 801/801 802/802 813/813
f 813/813 802/802 814/814
f 813/813 814/814 825/825
f 825/825 814/814 826/826
f 825/825 826/826 837/837
f 837/837 826/826 838/838
f 837/837 838/838 849/849
f 849/849 838/838 850/850
f 849/849 850/850 861/861
f 861/861 850/850 862/862
f 861/861 862/862 855/855
f 855/855 862/862 856/856
f 855/855 856/856 843/843
f 843/843 856/856 844/844
f 843/843 844/844 831/831
f 831/831 844/844 832/832
f 831/831 832/832 819/819
f 819/819 832/832 820/820
f 819/819 820/820 807/807
f 807/807 820/820 808/808
f 807/807 808/808 795/795
f 795/795 808/808 796/796
f 795/795 796/796 783/783
f 783/783 796/796 784/784
f 783/783 784/784 771/771
f 771/771 784/784 772/772
f 771/771 772/772 759/759
f 759/759 772/772 760/760
f 759/759 760/760 747/747
f 747/747 760/760 748/748
f 747/747 748/748 735/735
f 735/735 748/748 736/736
f 376/376 375/375 384/384
f 384/384 375/375 383/383
f 384/384 383/383 380/380
f 380/380 383/383 379/379
f 380/380 379/379 372/372
f 372/372 379/379 371/371
f 372/372 371/371 364/364
f 364/364 371/371 363/363
f 364/364 363/363 356/356
f 356/356 363/363 355/355
f 356/356 355/355 328/328
f 328/328 355/355 327/327
f 328/328 327/327 312/312
f 312/312 327/327 311/311
f 312/312 311/311 292/292
f 292/292 311/311 291/291
f 292/292 291/291 280/280
f 280/280 291/291 279/279
f 280/280 279/279 264/264
f 264/264 279/279 263/263
f 264/264 263/263 248/248
f 248/248 263/263 247/247
f 248/248 247/247 240/240
f 240/240 247/247 239/239
f 240/240 239/239 232/232
f 232/232 239/239 231/231
f 232/232 231/231 236/236
f 236/236 231/231 235/235
f 236/236 235/235 244/244
f 244/244 235/235 243/243
f 244/244 243/243 260/260
f 260/260 243/243 259/259
f 260/260 259/259 272/272
f 272/272 259/259 271/271
f 272/272 271/271 284/284
f 284/284 271/271 283/283
f 284/284 283/283 304/304
f 304/304 283/283 303/303
f 304/304 303/303 324/324
f 324/324 303/303 323/323
f 324/324 323/323 352/352
f 352/352 323/323 351/351
f 352/352 351/351 360/360
f 360/360 351/351 359/359
f 360/360 359/359 368/368
f 368/368 359/359 367/367
f 368/368 367/367 376/376
f 376/376 367/367 375/375
f 532/532 531/531 540/540
f 540/540 531/531 539/539
f 540/540 539/539 536/536
f 536/536 539/539 535/535
f 536/536 535/535 528/528
f 528/528 535/535 527/527
f 528/528 527/527 512/512
f 512/512 527/527 511/511
f 512/512 511/511 500/500
f 500/500 511/511 499/499
f 500/500 499/499 488/488
f 488/488 499/499 487/487
f 488/488 487/487 468/468
f 468/468 487/487 467/467
f 468/468 467/467 448/448
f 448/448 467/467 447/447
f 448/448 447/447 420/420
f 420/420 447/447 419/419
f 420/420 419/419 412/412
f 412/412 419/419 411/411
f 412/412 411/411 404/404
f 404/404 411/411 403/403
f 404/404 403/403 396/396
f 396/396 403/403 395/395
f 396/396 395/395 388/388
f 388/388 395/395 387/387
f 388/388 387/387 392/392
f 392/392 387/387 391/391
f 392/392 391/391 400/400
f 400/400 391/391 399/399
f 400/400 399/399 408/408
f 408/408 399/399 407/407
f 408/408 407/407 416/416
f 416/416 407/407 415/415
f 416/416 415/415 444/444
f 444/444 415/415 443/443
f 444/444 443/443 460/460
f 460/460 443/443 459/459
f 460/460 459/459 480/480
f 480/480 459/459 479/479
f 480/480 479/479 492/492
f 492/492 479/479 491/491
f 492/492 491/491 508/508
f 508/508 491/491 507/507
f 508/508 507/507 524/524
f 524/524 507/507 523/523
f 524/524 523/523 532/532
f 532/532 523/523 531/531
f 486/486 485/485 466/466
f 466/466 485/485 465/465
f 466/466 465/465 446/446
f 446/446 465/465 445/445
f 446/446 445/445 418/418
f 418/418 445/445 417/417
f 418/418 417/417 410/410
f 410/410 417/417 409/409
f 410/410 409/409 402/402
f 402/402 409/409 401/401
f 402/402 401/401 394/394
f 394/394 401/401 393/393
f 394/394 393/393 386/386
f 386/386 393/393 385/385
f 386/386 385/385 390/390
f 390/390 385/385 389/389
f 390/390 389/389 398/398
f 398/398 389/389 397/397
f 398/398 397/397 406/406
f 406/406 397/397 405/405
f 406/406 405/405 414/414
f 414/414 405/405 413/413
f 414/414 413/413 442/442
f 442/442 413/413 441/441
f 442/442 441/441 458/458
f 458/458 441/441 457/457
f 458/458 457/457 478/478
f 478/478 457/457 477/477
f 478/478 477/477 490/490
f 490/490 477/477 489/489
f 490/490 489/489 506/506
f 506/506 489/489 505/505
f 506/506 505/505 522/522
f 522/522 505/505 521/521
f 522/522 521/521 530/530
f 530/530 521/521 529/529
f 530/530 529/529 538/538
f 538/538 529/529 537/537
f 538/538 537/537 534/534
f 534/534 537/537 533/533
f 534/534 533/533 526/526
f 526/526 533/533 525/525
f 526/526 525/525 510/510
f 510/510 525/525 509/509
f 510/510 509/509 498/498
f 498/498 509/509 497/497
f 498/498 497/497 486/486
f 486/486 497/497 485/485
f 326/326 325/325 310/310
f 310/310 325/325 309/309
f 310/310 309/309 290/290
f 290/290 309/309 289/289
f 290/290 289/289 278/278
f 278/278 289/289 277/277
f 278/278 277/277 262/262
f 262/262 277/277 261/261
f 262/262 261/261 246/246
f 246/246 261/261 245/245
f 246/246 245/245 238/238
f 238/238 245/245 237/237
f 238/238 237/237 230/230
f 230/230 237/237 229/229
f 230/230 229/229 234/234
f 234/234 229/229 233/233
f 234/234 233/233 242/242
f 242/242 233/233 241/241
f 242/242 241/241 258/258
f 258/258 241/241 257/257
f 258/258 257/257 270/270
f 270/270 257/257 269/269
f 270/270 269/269 282/282
f 282/282 269/269 281/281
f 282/282 281/281 302/302
f 302/302 281/281 301/301
f 302/302 301/301 322/322
f 322/322 301/301 321/321
f 322/322 321/321 350/350
f 350/350 321/321 349/349
f 350/350 349/349 358/358
f 358/358 349/349 357/357
f 358/358 357/357 366/366
f 366/366 357/357 365/365
f 366/366 365/365 374/374
f 374/374 365/365 373/373
f 374/374 373/373 382/382
f 382/382 373/373 381/381
f 382/382 381/381 378/378
f 378/378 381/381 377/377
f 378/378 377/377 370/370
f 370/370 377/377 369/369
f 370/370 369/369 362/362
f 362/362 369/369 361/361
f 362/362 361/361 354/354
f 354/354 361/361 353/353
f 354/354 353/353 326/326
f 326/326 353/353 325/325
f 571/571 572/572 583/583
f 583/583 572/572 584/584
f 583/583 584/584 615/615
f 615/615 584/584 616/616
f 615/615 616/616 627/627
f 627/627 616/616 628/628
f 627/627 628/628 639/639
f 639/639 628/628 640/640
f 639/639 640/640 651/651
f 651/651 640/640 652/652
f 651/651 652/652 663/663
f 663/663 652/652 664/664
f 663/663 664/664 675/675
f 675/675 664/664 676/676
f 675/675 676/676 687/687
f 687/687 676/676 688/688
f 687/687 688/688 699/699
f 699/699 688/688 700/700
f 699/699 700/700 711/711
f 711/711 700/700 712/712
f 711/711 712/712 717/717
f 717/717 712/712 718/718
f 717/717 718/718 705/705
f 705/705 718/718 706/706
f 705/705 706/706 693/693
f 693/693 706/706 694/694
f 693/693 694/694 681/681
f 681/681 694/694 682/682
f 681/681 682/682 669/669
f 669/669 682/682 670/670
f 669/669 670/670 657/657
f 657/657 670/670 658/658
f 657/657 658/658 645/645
f 645/645 658/658 646/646
f 645/645 646/646 633/633
f 633/633 646/646 634/634
f 633/633 634/634 621/621
f 621/621 634/634 622/622
f 621/621 622/622 605/605
f 605/605 622/622 606/606
f 605/605 606/606 577/577
f 577/577 606/606 578/578
f 577/577 578/578 565/565
f 565/565 578/578 566/566
f 565/565 566/566 555/555
f 555/555 566/566 556/556
f 555/555 556/556 571/571
f 571/571 556/556 572/572
f 737/737 738/738 749/749
f 749/749 738/738 750/750
f 749/749 750/750 761/761
f 761/761 750/750 762/762
f 761/761 762/762 773/773
f 773/773 762/762 774/774
f 773/773 774/774 785/785
f 785/785 774/774 786/786
f 785/785 786/786 797/797
f 797/797 786/786 798/798
f 797/797 798/798 809/809
f 809/809 798/798 810/810
f 809/809 810/810 821/821
f 821/821 810/810 822/822
f 821/821 822/822 833/833
f 833/833 822/822 834/834
f 833/833 834/834 845/845
f 845/845 834/834 846/846
f 845/845 846/846 857/857
f 857/857 846/846 858/858
f 857/857 858/858 863/863
f 863/863 858/858 864/864
f 863/863 864/864 851/851
f 851/851 864/864 852/852
f 851/851 852/852 839/839
f 839/839 852/852 840/840
f 839/839 840/840 827/827
f 827/827 840/840 828/828
f 827/827 828/828 815/815
f 815/815 828/828 816/816
f 815/815 816/816 803/803
f 803/803 816/816 804/804
f 803/803 804/804 791/791
f 791/791 804/804 792/792
f 791/791 792/792 779/779
f 779/779 792/792 780/780
f 779/779 780/780 767/767
f 767/767 780/780 768/768
f 767/767 768/768 755/755
f 755/755 768/768 756/756
f 755/755 756/756 743/743
f 743/743 756/756 744/744
f 743/743 744/744 731/731
f 731/731 744/744 732/732
f 731/731 732/732 725/725
f 725/725 732/732 726/726
f 725/725 726/726 737/737
f 737/737 726/726 738/738
f 107/107 108/108 115/115
f 115/115 108/108 116/116
f 115/115 116/116 123/123
f 123/123 116/116 124/124
f 123/123 124/124 131/131
f 131/131 124/124 132/132
f 131/131 132/132 139/139
f 139/139 132/132 140/140
f 139/139 140/140 147/147
f 147/147 140/140 148/148
f 147/147 148/148 155/155
f 155/155 148/148 156/156
f 155/155 156/156 163/163
f 163/163 156/156 164/164
f 163/163 164/164 175/175
f 175/175 164/164 176/176
f 175/175 176/176 199/199
f 199/199 176/176 200/200
f 199/199 200/200 207/207
f 207/207 200/200 208/208
f 207/207 208/208 215/215
f 215/215 208/208 216/216
f 215/215 216/216 203/203
f 203/203 216/216 204/204
f 203/203 204/204 195/195
f 195/195 204/204 196/196
f 195/195 196/196 167/167
f 167/167 196/196 168/168
f 167/167 168/168 159/159
f 159/159 168/168 160/160
f 159/159 160/160 151/151
f 151/151 160/160 152/152
f 151/151 152/152 143/143
f 143/143 152/152 144/144
f 143/143 144/144 135/135
f 135/135 144/144 136/136
f 135/135 136/136 127/127
f 127/127 136/136 128/128
f 127/127 128/128 119/119
f 119/119 128/128 120/120
f 119/119 120/120 111/111
f 111/111 120/120 112/112
f 111/111 112/112 103/103
f 103/103 112/112 104/104
f 103/103 104/104 99/99
f 99/99 104/104 100/100
f 99/99 100/100 107/107
f 107/107 100/100 108/108
f 11/11 12/12 19/19
f 19/19 12/12 20/20
f 19/19 20/20 27/27
f 27/27 20/20 28/28
f 27/27 28/28 35/35
f 35/35 28/28 36/36
f 35/35 36/36 43/43
f 43/43 36/36 44/44
f 43/43 44/44 51/51
f 51/51 44/44 52/52
f 51/51 52/52 59/59
f 59/59 52/52 60/60
f 59/59 60/60 67/67
f 67/67 60/60 68/68
f 67/67 68/68 75/75
f 75/75 68/68 76/76
f 75/75 76/76 83/83
f 83/83 76/76 84/84
f 83/83 84/84 91/91
f 91/91 84/84 92/92
f 91/91 92/92 95/95
f 95/95 92/92 96/96
f 95/95 96/96 87/87
f 87/87 96/96 88/88
f 87/87 88/88 79/79
f 79/79 88/88 80/80
f 79/79 80/80 71/71
f 71/71 80/80 72/72
f 71/71 72/72 63/63
f 63/63 72/72 64/64
f 63/63 64/64 55/55
f 55/55 64/64 56/56
f 55/55 56/56 47/47
f 47/47 56/56 48/48
f 47/47 48/48 39/39
f 39/39 48/48 40/40
f 39/39 40/40 31/31
f 31/31 40/40 32/32
f 31/31 32/32 23/23
f 23/23 32/32 24/24
f 23/23 24/24 15/15
f 15/15 24/24 16/16
f 15/15 16/16 7/7
f 7/7 16/16 8/8
f 7/7 8/8 3/3
f 3/3 8/8 4/4
f 3/3 4/4 11/11
f 11/11 4/4 12/12
f 573/573 574/574 585/585
f 585/585 574/574 586/586
f 585/585 586/586 617/617
f 617/617 586/586 618/618
f 617/617 618/618 629/629
f 629/629 618/618 630/630
f 629/629 630/630 641/641
f 641/641 630/630 642/642
f 641/641 642/642 653/653
f 653/653 642/642 654/654
f 653/653 654/654 665/665
f 665/665 654/654 666/666
f 665/665 666/666 677/677
f 677/677 666/666 678/678
f 677/677 678/678 689/689
f 689/689 678/678 690/690
f 689/689 690/690 701/701
f 701/701 690/690 702/702
f 701/701 702/702 713/713
f 713/713 702/702 714/714
f 713/713 714/714 719/719
f 719/719 714/714 720/720
f 719/719 720/720 707/707
f 707/707 720/720 708/708
f 707/707 708/708 695/695
f 695/695 708/708 696/696
f 695/695 696/696 683/683
f 683/683 696/696 684/684
f 683/683 684/684 671/671
f 671/671 684/684 672/672
f 671/671 672/672 659/659
f 659/659 672/672 660/660
f 659/659 660/660 647/647
f 647/647 660/660 648/648
f 647/647 648/648 635/635
f 635/635 648/648 636/636
f 635/635 636/636 623/623
f 623/623 636/636 624/624
f 623/623 624/624 607/607
f 607/607 624/624 608/608
f 607/607 608/608 579/579
f 579/579 608/608 580/580
f 579/579 580/580 567/567
f 567/567 580/580 568/568
f 567/567 568/568 557/557
f 557/557 568/568 558/558
f 557/557 558/558 573/573
f 573/573 558/558 574/574
