v 0.00300094846 -0.00300086375 0.0118528433
v -0.000722672913 0.0011947072 -0.0125119858
v 0.00321099522 -0.00273896094 0.0118611879
v -0.000574972604 0.00149535302 -0.0124873095
v 0.00335869553 -0.00243825551 0.0118858642
v -0.000497009728 0.0018196619 -0.0124476128
v 0.00343665841 -0.00211400624 0.0119256801
v -0.000492837403 0.00215136175 -0.0123946838
v 0.00344083073 -0.00178230639 0.0119784899
v -0.000562574837 0.00247376327 -0.0123313837
v 0.0033710933 -0.00145984526 0.01204179
v -0.000702645753 0.00277077321 -0.012260931
v 0.00323102238 -0.00116283532 0.0121123619
v -0.00090613601 0.00302749042 -0.0121865444
v 0.00302753213 -0.000906177718 0.0121866293
v -0.00116291282 0.00323098068 -0.012112277
v 0.00277075532 -0.000702627856 0.0122608967
v -0.00145986316 0.0033711112 -0.0120418244
v 0.00247380498 -0.000562556941 0.0123314686
v -0.00178232429 0.00344078903 -0.0119785242
v 0.00215134385 -0.000492819507 0.0123946495
v -0.00211396453 0.0034366167 -0.0119255953
v 0.0018197036 -0.000497051436 0.0124475784
v -0.00243833301 0.00335871343 -0.0118858986
v 0.00149533513 -0.000574954707 0.0124872751
v -0.00273897884 0.00321101312 -0.0118612223
v 0.0011946893 -0.000722655017 0.0125120706
v -0.00300088165 0.00300090675 -0.0118527584
v 0.000932786491 -0.00093276139 0.0125204153
v -0.00321092841 0.00273894433 -0.0118612223
v 0.000722620513 -0.0011947238 0.0125120706
v -0.00335874793 0.0024382985 -0.0118858986
v 0.000574920203 -0.00149536963 0.0124872751
v -0.0034365916 0.00211398963 -0.0119255953
v 0.000497076537 -0.0018196785 0.0124475784
v -0.00344076392 0.00178228978 -0.0119785242
v 0.000492785003 -0.00215137835 0.0123946495
v -0.0033711457 0.00145988826 -0.0120418244
v 0.000562522437 -0.00247377988 0.0123314686
v -0.00323095557 0.00116287832 -0.012112277
v 0.000702712562 -0.00277078982 0.0122608967
v -0.00302746532 0.000906161111 -0.0121865444
v 0.000906202819 -0.00302750703 0.0121866293
v -0.00277080772 0.000702670854 -0.012260931
v 0.00116286042 -0.00323099728 0.0121123619
v -0.00247373817 0.000562540334 -0.0123313837
v 0.00145981076 -0.0033711278 0.01204179
v -0.00215139625 0.000492862504 -0.0123946838
v 0.00178227189 -0.00344080563 0.0119784899
v -0.0018196368 0.000497034829 -0.0124476128
v 0.00211403134 -0.0034365737 0.0119256801
v -0.00149538753 0.0005749381 -0.0124873095
v 0.00243828061 -0.00335867043 0.0118858642
v -0.0011947417 0.00072263841 -0.0125119858
v 0.00273892644 -0.00321097012 0.0118611879
v -0.000932719681 0.000932744783 -0.0125203304
v -0.00196686027 0.00196682576 -0.0121865444
v 0.00196680787 -0.00196684237 0.0121866293
v 0.00234494291 0.000938038096 -0.0101223461
v 0.00208303693 0.000160328191 -0.0100546055
v -0.0055307529 0.000331892229 -0.00917249786
v -0.00507683483 -0.00022505793 -0.00916163766
v -0.0045184159 -0.000966795642 -0.00917114545
v -0.0039678897 -0.00164963271 -0.00958370472
v -0.00333471773 -0.00196669378 -0.00969138421
v 0.00246241339 0.00252246379 -0.0100923801
v -0.0079588626 -0.00324217328 -0.00898311676
v -0.00212882022 -0.00244080146 -0.0100081171
v -0.00176094038 -0.00254640498 -0.0102115107
v 0.00152883294 0.0039563692 -0.00935258199
v -0.00460424743 0.0038791851 -0.0085753103
v -0.00516691693 0.00297117452 -0.00864454663
v -0.00557818655 0.0011769317 -0.00883715771
v -0.000324287773 -0.00234358081 -0.0104275854
v 0.00144558967 -0.000946847574 -0.0102380081
v 0.00559156235 -0.00185920561 -0.0109468573
v 0.00502619508 -0.00281614896 -0.0110099487
v 0.0049692608 0.00623175894 -0.00954058261
v 0.000912040286 0.00470538834 -0.00934565979
v 0.000294075756 0.0050074276 -0.00915133081
v -0.000924774492 0.00549529995 -0.00892148302
v -0.00410013739 0.00441617766 -0.00857005281
v -0.00355127094 0.00469797019 -0.00841297437
v -0.00190764477 0.00539660374 -0.00864497945
v -0.00542737299 0.00826654621 -0.00753421553
v 0.00674001673 -0.00374830847 -0.00800440843
v 0.00630153239 -0.00298214664 -0.0103352865
v 0.00782089295 -0.00134624417 -0.00792211236
v 0.00703737767 -0.00138883356 -0.0101966663
v 0.00745329121 0.000314984271 -0.00998809713
v 0.00813129687 0.00218714929 -0.00741499568
v 0.00753115378 0.00205736256 -0.00971905191
v 0.00726796605 0.00377351277 -0.00939863058
v 0.00708609496 0.0055404432 -0.00671216628
v 0.0066737891 0.0053969869 -0.00903995837
v 0.00577095468 0.0068659316 -0.00865633765
v 0.00483793211 0.00821795345 -0.00592977627
v 0.00459480116 0.00812272253 -0.0082632104
v 0.00319229578 0.00911865468 -0.00787546961
v 0.00172350844 0.00981962949 -0.00517865474
v 0.00161486167 0.00981771229 -0.00750744859
v -7.79280601e-05 0.0101926605 -0.00717309675
v -0.00179464065 0.0101080781 -0.00457004084
v -0.00181899937 0.010228361 -0.00688579575
v -0.00354197995 0.00992394572 -0.00665632146
v -0.00519346572 0.00904076971 -0.00419913046
v -0.00518204717 0.00929049609 -0.00649318339
v -0.00667423854 0.00835326237 -0.00640327164
v -0.00746867674 0.00764349411 -0.00605707972
v -0.00916404203 0.00540870833 -0.00647029463
v -0.00921072343 0.00446333069 -0.003245979
v -0.0100268068 0.00317097453 -0.00657780477
v -0.0102598012 0.00144478745 -0.00681479188
v -0.0101557576 -0.000285397493 -0.00710716873
v -0.00971806997 -0.00195529003 -0.00744434811
v -0.00896298283 -0.00350126262 -0.00781216446
v -0.00792009271 -0.00486326368 -0.00819684381
v -0.00662771058 -0.0059916674 -0.00858380411
v -0.00513498118 -0.00684295827 -0.00895901512
v -0.0034963618 -0.00738551302 -0.00930839241
v -0.00170954069 -0.00761136617 -0.009576053
v 2.58036842e-05 -0.00747377042 -0.00983185248
v 0.00170980308 -0.00700426485 -0.0100240939
v 0.00349027855 -0.00597401632 -0.0103637929
v 0.00328278221 -0.00621668348 -0.0101516298
v 0.00416640908 -0.00531790707 -0.0106521153
v 0.00198107933 -0.0100465702 0.0044138959
v 0.00777108285 -0.00735791769 0.00639681863
v -0.00597399911 0.00349017769 0.0103639735
v 0.00491612432 -0.00941804936 0.00652360137
v 0.00644602461 -0.00852344185 0.00642178377
v 0.0054275951 -0.00859464624 0.00223815888
v 0.00265195077 -0.0101251967 0.00676245841
v 0.00124267592 -0.0102462278 0.00698220274
v 0.000357503461 -0.0102281852 0.00682518992
v -0.000213229288 -0.0101522639 0.00723090531
v -0.00193755691 -0.00975468145 0.00519579754
v -0.00189056736 -0.00972148892 0.00757039283
v -0.00344426561 -0.0089692603 0.00794190319
v -0.00434071915 -0.0085417518 0.00565700247
v -0.00507872602 -0.00774624773 0.0081391463
v -0.00501129781 -0.0077217456 0.00839895916
v -0.0061698536 -0.00642292128 0.00851957699
v -0.00697918905 -0.00491006156 0.00888641579
v -0.00747899351 -0.00325889722 0.00922531211
v -0.00764853886 -0.00153585822 0.00952275039
v -0.00748217682 0.000193663174 0.00976840059
v -0.00698646619 0.00186905319 0.00995074855
v -0.00618014712 0.00342403398 0.0100651944
v -0.00391124109 0.00578243099 0.0101809531
v -0.00426022595 0.00692127564 0.00661533043
v -0.00275055774 0.00641018528 0.010341141
v -0.00241133621 0.00669608274 0.010086867
v -0.00267107817 0.0077742322 0.00650479091
v -0.00113112726 0.00710272143 0.0101916817
v -0.000771140439 0.0073061964 0.00992165559
v -0.000955051537 0.00831080559 0.00632212689
v 0.000583889614 0.00746873463 0.00997378292
v 0.000949008992 0.00759074117 0.00969080375
v 0.000824459878 0.00851075836 0.00607467148
v 0.00268275928 0.00753845517 0.0094028319
v 0.00260041263 0.00836681029 0.00576997915
v 0.00436537032 0.00715121985 0.00907020144
v 0.00430748743 0.00788375575 0.00542174229
v 0.00564164604 0.00653249772 0.00900432529
v 0.00593399806 0.00644344705 0.00870325391
v 0.00588193747 0.00707969507 0.00504100184
v 0.00708132882 0.00558224061 0.00861740565
v 0.0073259689 0.00544367521 0.00831842261
v 0.00726483903 0.00598429519 0.00464557802
v 0.00829874477 0.00436580922 0.0082230809
v 0.00849426494 0.00418559253 0.00792689761
v 0.0084053323 0.00463781213 0.00424614092
v 0.00938920931 0.00272220016 0.00754824039
v 0.00925990196 0.00309147485 0.0038631114
v 0.00989611539 0.00132571272 0.00747065217
v 0.00997971896 0.00110746413 0.00719260997
v 0.00979712689 0.00140204415 0.00350211334
v 0.0102293453 -0.000403114469 0.00692711756
v 0.01024511 -0.00125282572 0.00699468706
v 0.00999729555 -0.000368729193 0.00318639043
v 0.0101956326 -0.00213777005 0.00664626878
v 0.00985199266 -0.00215259194 0.00292047251
v 0.00982844975 -0.0038384995 0.00642875875
v 0.00952256326 -0.00466165775 0.00655517571
v 0.00936682782 -0.00388381487 0.00271586301
v 0.0091402897 -0.00544682637 0.00627564568
v 0.00855894359 -0.00550159677 0.00258745297
v 0.00771518338 -0.00745555916 0.00617679589
v 0.00433594956 -0.00961357133 0.00540932975
v 0.00332224749 -0.00900947716 -0.00069567206
v 0.00552467342 -0.00809941946 0.000347770881
v -0.0088234433 0.00602732916 -0.00649357324
v 0.00533629606 -0.00728772604 -0.00333237698
v 0.00463117649 -0.00528399142 -0.0100325153
v 0.00104301738 -0.0099118098 0.00211444996
v 0.00205112787 -0.00889464893 -0.00306091506
v 0.0032200675 -0.00751258399 -0.00658799592
v -0.000262040912 -0.00962159386 -0.000216607779
v 0.00153948923 -0.00816038142 -0.00642419711
v -0.00250845519 -0.00948213089 0.00275766889
v -0.00156660355 -0.00915903591 -0.00251963113
v -0.000227296685 -0.00847728559 -0.00618922308
v -0.00377801442 -0.00884257456 0.000477330813
v -0.00201302335 -0.00844973239 -0.00589698134
v -0.00560201589 -0.00773996833 0.00353703584
v -0.00498234261 -0.00804180218 -0.00178810848
v -0.00375053512 -0.00807986689 -0.00555474047
v -0.00670692462 -0.00678725749 0.00128226423
v -0.00537574089 -0.00738065522 -0.00518091374
v -0.00777996698 -0.00494336623 0.00434033247
v -0.00769178054 -0.00570775052 -0.000974764343
v -0.00682851784 -0.00637919904 -0.00478173727
v -0.00861629999 -0.00375901834 0.00207882018
v -0.00805382893 -0.00511311945 -0.00437389863
v -0.00872176893 -0.00150413905 0.00504606161
v -0.0092949147 -0.00250169984 -0.000199019819
v -0.00900691218 -0.00362864865 -0.00397750494
v -0.00922412933 -0.000205184132 0.00275073686
v -0.00965231018 -0.00198136678 -0.00360335433
v -0.00828735308 0.00206830791 0.00555392938
v -0.00955476619 0.00110305362 0.000425900206
v -0.00996582066 -0.000232859773 -0.00326720318
v -0.00844079609 0.00334999989 0.0031969329
v -0.00993568627 0.00155033785 -0.00297633809
v -0.0086910446 0.00439421099 -4.32790879e-05
v -0.00956347568 0.00330433386 -0.00274626749
v -0.00889661548 0.0058530486 -0.00645591546
v -0.00757304632 0.00681002923 -0.00241251241
v -0.00703740123 0.0062079685 0.00174752337
v -0.00654158194 0.00524785874 0.00578576464
v -0.00504807873 0.00491284762 0.00996879358
v -0.00569939209 0.00700153976 0.00334478353
v -0.00492989412 0.00875766918 -0.00167268861
v -0.00457339494 0.00843394812 0.000803963475
v -0.00249160004 0.00876382592 0.00311113692
v -0.00148959298 0.00986823922 -0.00204853979
v -0.00110205471 0.00955521806 0.000423446003
v 0.00111365786 0.00920273768 0.00260037522
v 0.00208290617 0.00960973604 -0.00266731004
v 0.00250280282 0.00929452085 -0.000198365202
v 0.00458352164 0.0082536175 0.00188693182
v 0.00525998957 0.00802019446 -0.00343580051
v 0.00570866238 0.00769108973 -0.000974489765
v 0.0074060112 0.00605662203 0.0010778199
v 0.00757224623 0.00533436527 -0.00424354696
v 0.00804218137 0.00498151701 -0.00178920744
v 0.00916445976 0.00293594253 0.000288210378
v 0.00867856462 0.00194945276 -0.00496831871
v 0.00915863019 0.00156593928 -0.002522765
v 0.0095990914 -0.000647553145 -0.000359229362
v 0.00841621877 -0.00163654594 -0.00550233212
v 0.00889411507 -0.00205220168 -0.00306230473
v 0.00777199047 -0.00455744053 -0.00325939286
v 0.00864598921 -0.00416471373 -0.000772068405
v 0.00600645306 -0.00474429961 -0.00805367757
v 0.00559312794 -0.00624186721 -0.00579363322
v 0.00738886042 -0.00474727577 -0.00429076233
v 0.00706171856 -0.00641157244 -0.000905598179
v 0.00739205023 -0.00674669173 0.00152268093
v 0.00539538915 -0.00202750302 0.00869725488
v 0.00903484586 -0.00369478102 0.00768981646
v 0.00923297169 -0.00293941136 0.00777981948
v -0.00210993912 -0.00299481389 0.00960148161
v -0.00238749644 -0.00169709896 0.00995776137
v -0.00633418327 -0.000503387549 0.0106853386
v -0.0021293591 -0.000196854701 0.0102569679
v 0.00441657061 -0.00410032897 0.00857032126
v -0.000753210236 -0.00504467872 0.0094260414
v -0.00501057245 0.00316435657 0.0110515686
v -0.00144573971 0.000963824444 0.0102914464
v 0.00525186258 -0.000337006532 0.0088423152
v 0.0093320818 -0.000162345336 0.00821199347
v 0.00932774016 0.00115042088 0.00839091175
v 0.00359603994 -0.00484458296 0.0085958284
v 0.00267628552 -0.00522416638 0.00861983575
v -0.00224913023 -0.00858338412 0.00872201059
v -0.00029709575 -0.00494832631 0.00899360846
v -0.000829394882 0.00155253935 0.0103290728
v -0.0018608029 0.00559083745 0.0109469267
v 0.0046980119 -0.00355125304 0.00841294001
v 0.00913804416 -0.00402847406 0.00760046816
v 0.00827419775 -0.0054138078 0.00753521859
v 0.00108140721 -0.0053918009 0.00880803642
v 0.000464492269 0.00221326469 0.0101272731
v 0.0042150456 0.00132654668 0.00927815976
v 0.00177845785 0.00253630986 0.0102438656
v 0.00309848191 0.00207817153 0.00973062224
v 0.00603317809 0.00529647743 0.00961519326
v 0.00114604029 0.00640515762 0.0105931273
v 0.00389682788 -0.00287961275 0.00352210704
v 0.00450405839 -0.00126219626 0.00368509959
v 0.00454781409 -0.000125180868 0.00386147268
v 0.0041615701 0.00108384256 0.0041190214
v 0.00352954912 0.00201197052 0.00437072978
v 0.00220792658 0.00289678198 0.00472688249
v 0.000958416488 0.00314032201 0.00496791076
v -0.000175714908 0.00303637227 0.00513413528
v -0.00134840247 0.00249510173 0.00523601245
v -0.00222143076 0.00174611365 0.00525601069
v -0.00312146459 -4.38528277e-05 0.00511243971
v -0.00294693063 -0.00207351188 0.0047566462
v -0.00119961205 -0.00416212908 0.00413757955
v 0.000457737472 -0.00455642577 0.00380645465
v 0.0019633201 -0.00437224266 0.00359322749
v 0.0028649409 0.000652105041 0.00425858998
v 0.00130979088 0.00175497519 0.00468758304
v 0.00315654148 -0.00124776475 0.00390492096
v -0.00059774868 0.00141502415 0.00494058055
v -0.00160036302 0.000159974779 0.00489984384
v 0.00105981551 -0.00316091349 0.00393456277
v 0.0022438636 -0.00262530203 0.00382990041
v -0.00200060635 -0.00210361323 0.00459904923
v -0.000218673305 -0.00303933354 0.00416051728
v -0.00175457045 -0.00112186801 0.00471785528
v 0.00120905788 -0.000827870821 -0.00494449873
v 0.00181066332 0.000655500291 -0.00480215421
v 0.000956913753 0.00270587231 -0.00433344594
v -0.0012473182 0.00315663277 -0.00390496979
v -0.00283099503 0.00201407879 -0.00383382017
v -0.00318451162 0.000410592397 -0.00403547442
v -0.00273534268 -0.000784510222 -0.0043008278
v -0.00194950355 -0.00199661859 -0.00462331777
v -0.000168690784 -0.00174049501 -0.00486945804
v -0.00324861895 0.00367053834 -0.00349897947
v -0.000557703526 0.00461223849 -0.00378133642
v 0.00138041522 0.00401850905 -0.00418999461
v -0.0041619841 -0.00119990659 -0.00413769405
v -0.00457262716 0.00116677432 -0.0036894818
v 0.00274583791 0.0026160472 -0.00463668428
v 0.00315810146 0.000626975 -0.00502421962
v -0.000153925393 -0.00308800574 -0.00508930017
v -0.00129035448 -0.00313176541 -0.00491287306
v -0.003169682 -0.00231558915 -0.00447787572
v 0.0024065306 -0.00164560676 -0.00526970843
v 0.000626418617 -0.00286973353 -0.00518001844
v 0.0085104276 -0.0064837981 0.00659280108
v 0.00932806063 -0.00509875671 0.00674834126
v 0.00998674788 -0.00333082087 0.0068625456
v 0.0102199406 -0.00174286086 0.00714627595
v 0.0100891479 0.000422863701 0.00762145345
v 0.00924234517 0.00290810184 0.00798013272
v 0.00829300645 0.00429885749 0.00843308638
v 0.00708398583 0.00550793771 0.0088233776
v 0.00487706425 0.00681262378 0.00939009856
v 0.00404518527 0.00713507728 0.0095031143
v 0.0032261348 0.00729434852 0.00973437499
v 0.00234469353 0.00744892582 0.00982864638
v 0.00150475266 0.00744222764 0.0100359745
v 0.000311507485 0.00735316059 0.010218336
v -0.00138034445 0.006930536 0.0104232761
v -0.00296491272 0.00618826592 0.0105591868
v -0.00416952812 0.00538270982 0.0105463895
v 0.00896212296 0.00179193711 0.00857446019
v 0.00870150075 0.00261510231 0.00872831584
v 0.00824282793 0.00310739539 0.0089052767
v 0.00836516985 0.00346878126 0.00885335629
v 0.0069309564 0.00464598283 0.00936156599
v 0.00501924823 0.00594962478 0.00986482669
v 0.00389866344 0.0062724141 0.0101172012
v 0.00352163448 0.00660542623 0.0101727577
v 0.00159356358 0.00665681724 0.0105314083
v 0.000327642743 0.00651160675 0.0107235825
v -0.0012165442 0.00613185178 0.0109006565
v -0.00338003103 0.00497183126 0.0110632169
v -0.00586252172 0.00185081124 0.0109595696
v -0.00653236447 0.000347054178 0.010794945
v -0.00660614999 -0.00127381685 0.0105890528
v -0.00653865363 -0.00289302972 0.0103137905
v -0.00625072048 -0.00397275639 0.0101017584
v -0.0060762429 -0.00470347043 0.00993583869
v -0.00565756128 -0.00542251333 0.00977202474
v -0.00564175714 -0.00590832905 0.00963214709
v -0.0047896911 -0.00672191701 0.00942223113
v -0.00434377429 -0.00732410784 0.00923321914
v -0.00238234569 -0.00878136614 0.00868220542
v -0.000876860461 -0.00929212348 0.00837042396
v -8.23066505e-05 -0.0094606247 0.00821809046
v 0.00109804714 -0.00960915121 0.00799734556
v 0.00267385689 -0.0094788818 0.00776737122
v 0.00309474039 -0.00960262847 0.00762202598
v 0.00569084562 -0.00841516429 0.00743876093
v 0.00717780354 -0.00717783805 0.00739739608
v 0.00644645236 -0.0081382214 0.00727640407
v 0.00684305622 -0.00800727724 0.00709216306
v 0.00679715346 -0.00825283732 0.0067853108
v 0.00756034615 -0.00756032105 0.00663743686
v 0.00691053632 -0.00815070506 0.0066469736
v 0.00393358287 -0.00956392882 0.00737009271
v 0.00476192756 -0.00939709713 0.007091329
v 0.00545832875 -0.00913120146 0.00672314834
v 0.00466987851 -0.00951183673 0.00678895186
v 0.00384983781 -0.00981427069 0.00687251757
v 0.000189466071 -0.00982166874 0.00801452648
v 0.000959288125 -0.0100610292 0.00771483248
v 0.00271433036 -0.010070557 0.00715649324
v 0.0021468139 -0.0101737463 0.00708924006
v 0.00099378087 -0.0102008364 0.00741307864
v 0.000414941337 -0.0101957404 0.00736520957
v -0.00289386836 -0.00877471059 0.00868122467
v -0.00229194468 -0.00929931467 0.00836254962
v -0.00071114566 -0.00999341793 0.00772166456
v -0.0012793803 -0.00987941857 0.00768981646
v -0.00233360044 -0.00945641329 0.0080702128
v -0.00287106273 -0.0092369401 0.00805030536
v -0.00521745984 -0.00686366801 0.00930979839
v -0.00436948953 -0.00789493419 0.00891742735
v -0.00381207202 -0.00861069511 0.00844519297
v -0.0056681489 -0.00675929742 0.00913411036
v -0.00465178846 -0.00800304451 0.00853608137
v -0.00550797221 -0.00708396073 0.0088233776
v -0.00669717377 -0.00367613972 0.0101178234
v -0.00667490983 -0.00449081653 0.00984584109
v -0.00601556537 -0.00639409657 0.00901661586
v -0.00628591428 -0.00601216687 0.00907700529
v -0.00709985684 -0.00368823242 0.00986083272
v -0.00681259868 -0.00487703915 0.00939009856
v -0.00700315836 -0.00445046233 0.00944435128
v -0.00695502171 -0.000651371941 0.0105927599
v -0.00711379621 -0.00200573852 0.0103107987
v -0.00729432342 -0.0032261097 0.00973437499
v -0.00739861009 -0.00277020296 0.00977923891
v -0.007232986 -0.000273537834 0.0104334823
v -0.00744214294 -0.00150466796 0.0100359745
v -0.00745692869 -0.0010389312 0.0100675903
v -0.00571156709 0.00270966798 0.0109894671
v -0.00629409566 0.00209382319 0.0108472155
v -0.00725057361 0.000221005719 0.0102835722
v -0.00717624218 0.000679450171 0.0102997925
v -0.00604762508 0.00296587247 0.0107645626
v -0.00672676799 0.00188475017 0.0104676313
v -0.00656702443 0.00231985878 0.0104659845
v -0.0034916448 0.00518380653 0.0110304469
v -0.00426994716 0.00482485081 0.0109614093
v -0.00589099166 0.00342255 0.0105808802
v -0.00539649644 0.00416083147 0.0105380982
v -0.00372423727 0.00553534032 0.0108044973
v -0.00477531192 0.00477527742 0.0106191463
v -0.000514657481 0.00664377045 0.0107855941
v -0.00137364197 0.00660004883 0.0107802902
v -0.000615948943 0.0070452548 0.0105467374
v 0.00250172747 0.00697834478 0.0102979624
v 0.00112111088 0.0071024247 0.0104518151
v 0.00280284319 0.00726527286 0.0100302999
v 0.00584892589 0.00581992606 0.009625641
v 0.00520500346 0.00638671385 0.0096840244
v 0.0052489996 0.00652132188 0.00950566699
v 0.00794380578 0.00432323923 0.00891682405
v 0.00749072729 0.00504362109 0.00890272323
v 0.00618992279 0.00611568676 0.00915441072
v 0.00962955775 0.00121016829 0.00818949893
v 0.00944699512 0.00229212146 0.00814294585
v 0.00882548158 0.00350825168 0.0083310555
v 0.00950083497 0.000200680535 0.00821326445
v 0.00968878104 -8.37030536e-05 0.00809967988
v 0.0096372104 -0.00138676997 0.00793502997
v 0.0101912137 -0.000864903233 0.00752587408
v 0.0100511427 -0.00173582776 0.00759111057
v 0.00973303852 -0.00182235659 0.00782721156
v 0.00958688572 -0.00337455374 0.00753535174
v 0.00965493719 -0.00425626018 0.00706499173
v 0.00934100957 -0.00441511736 0.0073626565
v 0.00876457253 -0.00575283454 0.00714351201
v 0.00846052985 -0.00554628763 0.00745408589
v 0.00832805891 -0.00654279849 0.00698587255
v 0.00813048274 -0.00627004783 0.00735289032
v 0.00474950658 -0.00471522439 -0.0107145407
v 0.00332466454 -0.00569880368 -0.0108663494
v 0.00231217189 -0.00651945373 -0.0105613678
v 0.00181869792 -0.00652597955 -0.0107569793
v 0.000679711376 -0.00713061165 -0.010396063
v 0.000184280761 -0.00704899564 -0.0105776081
v -0.00103682794 -0.00741484766 -0.0101653761
v -0.00151256262 -0.00724559052 -0.0103354523
v -0.00280009116 -0.00735596837 -0.0098739353
v -0.0031789359 -0.00724454288 -0.00985124358
v -0.00399880378 -0.00706014159 -0.00968343062
v -0.00480337453 -0.00684053564 -0.00944449908
v -0.0054339535 -0.0063751549 -0.00956428064
v -0.00632727605 -0.00605968515 -0.0090722993
v -0.00686232809 -0.00548586493 -0.00919018374
v -0.00766232553 -0.00499295599 -0.00868430934
v -0.00808451252 -0.00432872013 -0.00880619494
v -0.00875650214 -0.00368193227 -0.00829609534
v -0.00905043651 -0.00295078642 -0.0084277853
v -0.00956925435 -0.00217594159 -0.00792138021
v -0.00972420625 -0.00140287152 -0.00806958553
v -0.010068849 -0.00053307401 -0.00757551028
v -0.0100797368 0.000253552573 -0.00774472978
v -0.0102362567 0.00118300312 -0.00727123065
v -0.010103388 0.00195484183 -0.00746635087
v -0.0100655087 0.00290759143 -0.00701965463
v -0.00979420404 0.00363822014 -0.00724454145
v -0.0095632297 0.0045734963 -0.00683146779
v -0.00914986622 0.00539112277 -0.00684246764
v -0.00815264345 0.00692202908 -0.00658616536
v -0.0077860603 0.00727663328 -0.00687100247
v -0.00690336461 0.00806414571 -0.00699440502
v -0.00621373941 0.00858439385 -0.00702189383
v -0.0054788131 0.00903539312 -0.00706775686
v -0.00470542668 0.0094132638 -0.00713141148
v -0.00389960178 0.00971474069 -0.00721289361
v -0.00307090276 0.00993626828 -0.00731083205
v -0.00222646419 0.0100760924 -0.00742448909
v -0.00137441338 0.0101327458 -0.00755290596
v -0.000522655068 0.0101057157 -0.00769482884
v 0.000319583545 0.00999533982 -0.00784849492
v 0.00114550405 0.00980243448 -0.0080130871
v 0.00194610536 0.00952926834 -0.00818618706
v 0.0027136047 0.00917845759 -0.00836655734
v 0.00344176072 0.00875273886 -0.00855288836
v 0.0041232838 0.00825626251 -0.00874305444
v 0.00475043509 0.00769474676 -0.00893489457
v 0.00531882682 0.00707195657 -0.00912719869
v 0.00582049716 0.00639732742 -0.00931686601
v 0.00625287989 0.00567375889 -0.00950360334
v 0.00661197431 0.00490836759 -0.00968494004
v 0.00689258618 0.00411158533 -0.00985877335
v 0.00735442162 0.00240657677 -0.00998568054
v 0.00723707132 0.00171270562 -0.0103221877
v 0.00719996141 0.000861754859 -0.0104533846
v 0.00707925923 1.50694003e-05 -0.0105706724
v 0.00687659302 -0.000817702414 -0.0106723653
v 0.00659210934 -0.00163214462 -0.0107582067
v 0.00623428404 -0.00240831989 -0.0108254503
v 0.00580250147 -0.00314939233 -0.0108749762
v 0.0054157134 -0.00414955707 -0.0105228091
v 0.00523982954 -0.00372075685 -0.0109543226
v -0.00864982707 0.00594252263 -0.00715302947
v 0.00709305781 0.003287455 -0.0100244021
v -0.00724306366 0.00741259722 -0.00727871997
v -0.00913193272 0.00469634727 -0.00741218766
v -0.00965047825 0.00312552131 -0.00758205399
v -0.00980206703 0.00153821174 -0.00785509098
v -0.00980719424 -0.000259649453 -0.00802734441
v -0.00930383843 -0.00171505319 -0.00841928399
v -0.00859184408 -0.00330461542 -0.00871483112
v -0.00755920174 -0.00457899876 -0.0090872957
v -0.00629149569 -0.00562295342 -0.00945988036
v -0.00483961013 -0.00639205309 -0.00981872548
v -0.00367159666 -0.00678043014 -0.0100701716
v -0.00243608513 -0.00697533319 -0.0103004848
v -0.000775422823 -0.00695986739 -0.0105663104
v 0.000859507445 -0.00662112247 -0.0107754406
v 0.0024048338 -0.00597174145 -0.0109199072
v 0.00380145933 -0.005036005 -0.010994336
v 0.00442713355 -0.00447170481 -0.0110041839
v 0.00478280641 -0.00373674599 -0.0110597018
v -0.00775295562 0.00670946954 -0.00735054298
v -0.00825188099 0.00605525593 -0.00737547638
v 0.00522634747 -0.00295008059 -0.0110339098
v 0.00564608338 -0.00225908395 -0.01099016
v 0.00599715474 -0.00153196688 -0.0109293633
v 0.00627598527 -0.00077582236 -0.0108523541
v 0.00638547165 -0.000154942234 -0.0107865246
v 0.00651267999 0.000578019237 -0.0106915191
v 0.00659512892 0.00141931117 -0.0105661904
v 0.00657678352 0.00216471756 -0.0104458121
v 0.00649388832 0.00299924295 -0.0102949106
v 0.00608586689 0.00452212373 -0.00998330674
v 0.00574359658 0.0054218686 -0.00976623822
v 0.00534126523 0.00610243444 -0.0095914774
v 0.00487313035 0.00673853521 -0.00941325952
v 0.00434372189 0.00732415084 -0.00923325349
v 0.00375816586 0.00785349969 -0.00905336667
v 0.00312206509 0.00832163457 -0.00887514878
v 0.00244149926 0.00872396592 -0.00870038797
v 0.00186081062 0.00894064784 -0.00858828035
v 0.000973794486 0.00931643609 -0.00836779405
v 0.000200722244 0.00950085286 -0.00821329881
v -0.000588681672 0.00960808162 -0.00806857873
v -0.0012147875 0.0095847593 -0.00798794107
v -0.00200880632 0.00955315795 -0.00786481823
v -0.00274728232 0.00944456093 -0.00776601412
v -0.00357811033 0.0092562746 -0.00765957584
v -0.00451233623 0.00897746448 -0.00753714372
v -0.00523939369 0.00862645273 -0.00747646619
v -0.00593044994 0.00820671682 -0.00743259717
v -0.00657859084 0.00772230987 -0.00740625192
v -0.00862648723 0.00523941879 -0.00747646619
v -0.0091519484 0.00391015515 -0.00762275977
v -0.00958779094 0.00218581323 -0.0078140669
v -0.00956297533 0.000821517849 -0.00805776703
v -0.00931635139 -0.000973769385 -0.00836779405
v -0.00872400043 -0.00244153376 -0.00870038797
v -0.00832166908 -0.00312203999 -0.00887514878
v -0.0078535342 -0.00375820037 -0.00905336667
v -0.00732412574 -0.0043437564 -0.00923325349
v -0.00673856971 -0.00487316485 -0.00941325952
v -0.00610246894 -0.00534129973 -0.0095914774
v -0.00542190311 -0.00574363108 -0.00976623822
v -0.00484578366 -0.00595525872 -0.00990997851
v -0.00395407913 -0.00633604165 -0.0100987129
v -0.00318100688 -0.00652045842 -0.0102532082
v -0.00256316523 -0.00655336607 -0.0103748266
v -0.000975644383 -0.00656736334 -0.0106334034
v -0.000242136047 -0.00645859073 -0.0107370009
v 0.000590667629 -0.00627138578 -0.0108383986
v 0.00207464695 -0.0056784936 -0.0109821537
v 0.00272247377 -0.00529506951 -0.0110276744
v 0.00342446032 -0.00480770548 -0.0110595472
v 0.00419745209 -0.0041974866 -0.0110691958
f 1 2 3
f 3 2 4
f 3 4 5
f 5 4 6
f 5 6 7
f 7 6 8
f 7 8 9
f 9 8 10
f 9 10 11
f 11 10 12
f 11 12 13
f 13 12 14
f 13 14 15
f 15 14 16
f 15 16 17
f 17 16 18
f 17 18 19
f 19 18 20
f 19 20 21
f 21 20 22
f 21 22 23
f 23 22 24
f 23 24 25
f 25 24 26
f 25 26 27
f 27 26 28
f 27 28 29
f 29 28 30
f 29 30 31
f 31 30 32
f 31 32 33
f 33 32 34
f 33 34 35
f 35 34 36
f 35 36 37
f 37 36 38
f 37 38 39
f 39 38 40
f 39 40 41
f 41 40 42
f 41 42 43
f 43 42 44
f 43 44 45
f 45 44 46
f 45 46 47
f 47 46 48
f 47 48 49
f 49 48 50
f 49 50 51
f 51 50 52
f 51 52 53
f 53 52 54
f 53 54 55
f 55 54 56
f 55 56 1
f 1 56 2
f 28 26 57
f 34 32 57
f 57 32 30
f 57 30 28
f 40 38 57
f 57 38 36
f 57 36 34
f 46 44 57
f 57 44 42
f 57 42 40
f 52 50 57
f 57 50 48
f 57 48 46
f 2 56 57
f 57 56 54
f 57 54 52
f 8 6 57
f 57 6 4
f 57 4 2
f 14 12 57
f 57 12 10
f 57 10 8
f 20 18 57
f 57 18 16
f 57 16 14
f 26 24 57
f 57 24 22
f 57 22 20
f 29 31 58
f 23 25 58
f 58 25 27
f 58 27 29
f 17 19 58
f 58 19 21
f 58 21 23
f 11 13 58
f 58 13 15
f 58 15 17
f 5 7 58
f 58 7 9
f 58 9 11
f 55 1 58
f 58 1 3
f 58 3 5
f 49 51 58
f 58 51 53
f 58 53 55
f 43 45 58
f 58 45 47
f 58 47 49
f 37 39 58
f 58 39 41
f 58 41 43
f 31 33 58
f 58 33 35
f 58 35 37
f 59 556 555
f 66 558 59
f 59 558 557
f 59 557 556
f 66 559 558
f 64 67 63
f 63 67 62
f 69 595 68
f 72 73 581
f 74 597 69
f 69 597 596
f 74 598 597
f 75 600 74
f 74 600 599
f 75 601 600
f 59 76 60
f 60 76 75
f 75 76 77
f 79 78 70
f 70 78 66
f 66 78 560
f 583 534 61
f 61 534 73
f 84 574 573
f 84 573 572
f 82 85 83
f 83 85 84
f 84 85 575
f 84 575 574
f 127 190 133
f 133 134 127
f 137 136 138
f 137 138 139
f 140 139 141
f 141 142 143
f 143 415 144
f 144 418 145
f 145 422 146
f 146 425 147
f 147 429 148
f 148 432 149
f 132 130 190
f 131 130 132
f 192 132 190
f 192 190 191
f 192 191 194
f 128 131 189
f 189 131 132
f 260 189 132
f 260 132 259
f 259 132 192
f 259 192 194
f 127 196 190
f 190 196 191
f 191 197 194
f 194 197 198
f 194 198 257
f 257 198 125
f 257 125 195
f 195 125 124
f 195 124 126
f 134 135 127
f 127 135 196
f 196 199 191
f 191 199 197
f 197 200 198
f 198 200 123
f 198 123 469
f 198 469 125
f 136 137 135
f 135 137 196
f 137 201 196
f 196 201 199
f 199 202 197
f 197 202 203
f 197 203 200
f 200 203 122
f 200 122 471
f 200 471 123
f 201 204 199
f 199 204 202
f 202 205 203
f 203 205 121
f 203 121 473
f 203 473 122
f 139 140 137
f 137 140 201
f 140 206 201
f 201 206 204
f 204 207 202
f 202 207 208
f 202 208 205
f 205 208 120
f 205 120 475
f 205 475 121
f 140 141 206
f 206 209 204
f 204 209 207
f 207 210 208
f 208 210 119
f 208 119 478
f 208 478 120
f 141 143 206
f 143 211 206
f 206 211 209
f 209 212 207
f 207 212 213
f 207 213 210
f 210 213 118
f 210 118 480
f 210 480 119
f 143 144 211
f 211 214 209
f 209 214 212
f 212 215 213
f 213 215 117
f 213 117 482
f 213 482 118
f 144 145 211
f 145 216 211
f 211 216 214
f 214 217 212
f 212 217 218
f 212 218 215
f 215 218 116
f 215 116 484
f 215 484 117
f 145 146 216
f 216 219 214
f 214 219 217
f 217 220 218
f 218 220 115
f 218 115 486
f 218 486 116
f 146 147 216
f 147 221 216
f 216 221 219
f 219 222 217
f 217 222 223
f 217 223 220
f 220 223 114
f 220 114 488
f 220 488 115
f 147 148 221
f 221 224 219
f 219 224 222
f 222 225 223
f 223 225 113
f 223 113 490
f 223 490 114
f 148 149 221
f 149 231 221
f 221 231 224
f 224 226 222
f 222 226 227
f 222 227 225
f 225 227 112
f 225 112 492
f 225 492 113
f 231 230 224
f 224 230 226
f 226 111 227
f 227 111 494
f 227 494 112
f 111 110 494
f 230 229 226
f 226 229 193
f 226 193 111
f 111 193 228
f 111 228 110
f 233 230 231
f 232 231 149
f 232 149 436
f 436 149 129
f 109 496 229
f 229 496 193
f 106 108 109
f 106 109 234
f 234 109 229
f 234 229 235
f 235 229 230
f 235 230 233
f 151 233 231
f 151 231 150
f 150 231 232
f 150 232 353
f 107 108 106
f 236 235 233
f 236 233 154
f 154 233 151
f 154 151 153
f 153 151 152
f 152 151 150
f 105 107 106
f 103 105 106
f 103 106 237
f 237 106 234
f 237 234 238
f 238 234 235
f 238 235 236
f 157 236 154
f 157 154 156
f 156 154 155
f 155 154 153
f 104 105 103
f 239 238 236
f 239 236 160
f 160 236 157
f 160 157 159
f 159 157 158
f 158 157 156
f 102 104 103
f 100 102 103
f 100 103 240
f 240 103 237
f 240 237 241
f 241 237 238
f 241 238 239
f 162 239 160
f 162 160 161
f 161 160 348
f 348 160 159
f 101 102 100
f 242 241 239
f 242 239 164
f 164 239 162
f 164 162 163
f 163 162 346
f 346 162 161
f 99 101 100
f 97 99 100
f 97 100 243
f 243 100 240
f 243 240 244
f 244 240 241
f 244 241 242
f 167 242 164
f 167 164 166
f 166 164 165
f 165 164 163
f 98 99 97
f 245 244 242
f 245 242 170
f 170 242 167
f 170 167 169
f 169 167 168
f 168 167 166
f 96 98 97
f 94 96 97
f 94 97 246
f 246 97 243
f 246 243 247
f 247 243 244
f 247 244 245
f 173 245 170
f 173 170 172
f 172 170 171
f 171 170 169
f 95 96 94
f 248 247 245
f 248 245 175
f 175 245 173
f 175 173 174
f 174 173 342
f 342 173 172
f 93 95 94
f 91 93 94
f 91 94 249
f 249 94 246
f 249 246 250
f 250 246 247
f 250 247 248
f 178 248 175
f 178 175 177
f 177 175 176
f 176 175 174
f 92 93 91
f 251 250 248
f 251 248 181
f 181 248 178
f 181 178 179
f 179 178 177
f 90 92 91
f 181 179 180
f 88 90 91
f 88 91 252
f 252 91 249
f 252 249 253
f 253 249 250
f 253 250 251
f 183 251 181
f 183 181 182
f 182 181 180
f 89 90 88
f 183 182 339
f 255 253 251
f 255 251 186
f 186 251 183
f 186 183 184
f 184 183 339
f 87 89 88
f 186 184 185
f 86 87 88
f 86 88 258
f 258 88 252
f 258 252 254
f 254 252 253
f 254 253 255
f 188 255 186
f 188 186 187
f 187 186 185
f 527 87 86
f 188 187 337
f 256 527 86
f 256 86 257
f 257 86 258
f 258 254 259
f 259 254 255
f 259 255 260
f 260 255 188
f 260 188 189
f 189 188 337
f 258 259 194
f 258 194 257
f 256 257 195
f 256 195 527
f 261 262 263
f 264 265 370
f 265 266 368
f 265 368 369
f 266 265 267
f 370 372 264
f 264 372 269
f 269 372 374
f 270 267 271
f 261 273 272
f 272 273 274
f 272 274 354
f 269 277 278
f 280 279 285
f 281 283 261
f 261 283 282
f 261 282 262
f 281 268 283
f 276 284 380
f 284 378 379
f 278 277 284
f 284 277 377
f 284 377 378
f 354 355 272
f 272 355 356
f 272 356 286
f 286 356 358
f 287 288 360
f 286 358 289
f 286 289 288
f 287 290 285
f 285 290 363
f 291 268 281
f 291 281 261
f 291 261 292
f 292 261 293
f 293 261 272
f 293 272 294
f 294 272 295
f 295 272 286
f 295 286 296
f 296 286 288
f 296 288 287
f 296 287 297
f 297 287 298
f 298 287 285
f 298 285 299
f 299 285 279
f 299 279 300
f 300 279 271
f 300 271 301
f 301 271 267
f 301 267 265
f 301 265 302
f 302 265 264
f 302 264 313
f 313 264 269
f 313 269 303
f 303 269 278
f 303 278 284
f 303 284 304
f 304 284 305
f 305 284 276
f 305 276 275
f 305 275 291
f 291 275 268
f 306 295 307
f 307 295 296
f 308 291 292
f 308 292 293
f 308 293 306
f 306 293 294
f 306 294 295
f 296 297 307
f 307 297 298
f 307 298 309
f 309 298 299
f 309 299 300
f 309 300 310
f 311 305 312
f 312 305 291
f 312 291 308
f 313 303 314
f 314 303 311
f 311 303 304
f 311 304 305
f 300 301 310
f 310 301 315
f 315 301 302
f 315 302 313
f 316 312 308
f 316 308 317
f 317 308 306
f 317 306 318
f 318 306 307
f 318 307 319
f 319 307 309
f 319 309 320
f 320 309 310
f 320 310 321
f 321 310 315
f 321 315 322
f 322 315 313
f 322 313 323
f 323 313 314
f 323 314 324
f 324 314 311
f 324 311 312
f 324 312 316
f 321 329 320
f 320 329 325
f 320 325 319
f 319 325 326
f 319 326 318
f 318 326 327
f 322 328 321
f 321 328 329
f 318 327 330
f 318 330 317
f 317 330 331
f 324 332 333
f 324 333 323
f 322 323 334
f 322 334 328
f 317 331 335
f 317 335 316
f 316 335 324
f 324 335 336
f 324 336 332
f 75 335 60
f 60 335 59
f 59 335 331
f 59 331 66
f 66 331 330
f 66 330 70
f 70 330 79
f 79 330 327
f 79 327 80
f 80 327 81
f 81 327 326
f 81 326 84
f 84 326 325
f 84 325 83
f 83 325 82
f 82 325 71
f 71 325 72
f 72 325 329
f 72 329 73
f 73 329 61
f 61 329 328
f 61 328 62
f 62 328 63
f 63 328 64
f 64 328 334
f 64 334 65
f 65 334 323
f 65 323 68
f 68 323 333
f 68 333 69
f 69 333 332
f 69 332 74
f 74 332 336
f 74 336 335
f 74 335 75
f 337 187 338
f 187 185 338
f 185 184 339
f 339 182 340
f 182 180 340
f 180 179 341
f 342 172 453
f 172 171 343
f 171 169 449
f 169 168 344
f 168 166 450
f 166 165 450
f 165 163 345
f 346 161 347
f 348 159 349
f 159 158 350
f 158 156 350
f 156 155 351
f 155 153 351
f 153 152 352
f 152 150 352
f 359 288 289
f 362 290 287
f 364 285 363
f 364 280 285
f 365 279 280
f 365 271 279
f 366 267 270
f 367 266 267
f 376 277 269
f 381 276 380
f 275 276 382
f 268 275 383
f 383 275 382
f 383 382 384
f 388 131 128
f 276 381 382
f 382 381 389
f 382 389 384
f 384 389 390
f 384 390 385
f 385 390 386
f 386 388 387
f 387 388 128
f 388 386 131
f 391 130 131
f 390 391 386
f 386 391 131
f 284 379 380
f 380 379 381
f 390 392 391
f 391 392 130
f 393 190 130
f 379 394 381
f 381 394 395
f 381 395 389
f 389 395 396
f 389 396 390
f 390 396 393
f 390 393 392
f 392 393 130
f 379 378 394
f 393 396 133
f 393 133 190
f 378 377 394
f 395 398 396
f 396 398 397
f 396 397 133
f 277 376 377
f 377 376 394
f 397 398 134
f 397 134 133
f 399 136 135
f 376 400 394
f 394 400 401
f 394 401 395
f 395 401 402
f 395 402 398
f 398 402 399
f 398 399 135
f 398 135 134
f 399 402 136
f 403 138 136
f 376 269 400
f 401 404 402
f 402 404 403
f 402 403 136
f 374 375 269
f 269 375 400
f 403 404 138
f 405 139 138
f 375 374 406
f 375 406 400
f 400 406 407
f 400 407 401
f 401 407 408
f 401 408 404
f 404 408 405
f 404 405 138
f 372 373 374
f 374 373 406
f 405 408 139
f 410 141 139
f 407 406 409
f 407 409 408
f 408 409 410
f 408 410 139
f 410 142 141
f 370 371 372
f 372 371 373
f 411 143 142
f 371 370 412
f 371 412 373
f 373 412 413
f 373 413 406
f 406 413 409
f 409 411 410
f 410 411 142
f 414 415 143
f 265 369 370
f 370 369 412
f 409 414 411
f 411 414 143
f 413 416 409
f 409 416 415
f 409 415 414
f 417 418 144
f 369 368 412
f 416 417 415
f 415 417 144
f 368 419 412
f 412 419 420
f 412 420 413
f 413 420 416
f 416 418 417
f 421 422 145
f 266 367 368
f 368 367 419
f 416 421 418
f 418 421 145
f 420 419 423
f 420 423 416
f 416 423 422
f 416 422 421
f 424 425 146
f 267 366 367
f 423 424 422
f 422 424 146
f 366 426 367
f 367 426 427
f 367 427 419
f 419 427 423
f 423 425 424
f 428 429 147
f 366 270 426
f 423 428 425
f 425 428 147
f 427 430 423
f 423 430 429
f 423 429 428
f 431 432 148
f 271 365 270
f 270 365 426
f 430 431 429
f 429 431 148
f 365 433 426
f 426 433 434
f 426 434 427
f 427 434 430
f 430 432 431
f 435 129 149
f 430 435 432
f 432 435 149
f 434 437 430
f 430 437 436
f 430 436 435
f 435 436 129
f 353 232 438
f 438 232 436
f 280 364 365
f 365 364 433
f 437 438 436
f 364 439 433
f 433 439 440
f 433 440 434
f 434 440 437
f 437 353 438
f 364 363 439
f 437 352 353
f 353 352 150
f 440 441 437
f 437 441 352
f 290 362 363
f 363 362 439
f 441 351 352
f 352 351 153
f 362 287 442
f 362 442 439
f 439 442 443
f 439 443 440
f 440 443 441
f 360 361 287
f 287 361 442
f 441 350 351
f 351 350 156
f 443 442 444
f 443 444 441
f 441 444 350
f 288 359 360
f 360 359 361
f 444 349 350
f 350 349 159
f 359 445 361
f 361 445 446
f 361 446 442
f 442 446 444
f 444 348 349
f 359 289 445
f 444 347 348
f 348 347 161
f 289 358 445
f 446 447 444
f 444 447 346
f 444 346 347
f 447 345 346
f 346 345 163
f 356 357 358
f 358 357 448
f 358 448 445
f 445 448 449
f 445 449 446
f 446 449 450
f 446 450 447
f 447 450 345
f 345 450 165
f 356 355 357
f 449 344 450
f 450 344 168
f 344 449 169
f 354 274 451
f 354 451 355
f 355 451 452
f 355 452 357
f 357 452 453
f 357 453 448
f 448 453 343
f 448 343 449
f 449 343 171
f 343 453 172
f 452 342 453
f 451 341 452
f 342 452 174
f 179 177 341
f 457 341 451
f 455 451 274
f 455 274 454
f 454 274 273
f 341 177 176
f 341 176 452
f 452 176 174
f 458 457 451
f 458 451 455
f 455 454 273
f 340 180 341
f 340 341 457
f 459 458 455
f 459 455 456
f 456 455 261
f 261 455 273
f 459 456 261
f 339 340 461
f 461 340 457
f 461 457 458
f 460 458 459
f 263 459 261
f 462 461 458
f 462 458 460
f 282 460 459
f 282 459 262
f 262 459 263
f 338 185 339
f 338 339 461
f 462 460 282
f 463 461 462
f 464 462 282
f 464 282 283
f 337 338 465
f 465 338 461
f 465 461 463
f 466 463 462
f 466 462 464
f 128 189 337
f 465 463 466
f 466 464 268
f 268 464 283
f 387 128 337
f 387 337 386
f 386 337 465
f 386 465 385
f 385 465 384
f 384 465 466
f 384 466 383
f 383 466 268
f 126 124 468
f 468 124 125
f 468 125 469
f 470 469 123
f 470 123 471
f 472 471 122
f 472 122 473
f 474 473 121
f 474 121 475
f 476 475 477
f 475 120 477
f 477 120 478
f 478 119 479
f 479 119 480
f 480 118 481
f 481 118 482
f 482 117 483
f 483 117 484
f 484 116 485
f 485 116 486
f 486 115 487
f 487 115 488
f 488 114 489
f 489 114 490
f 490 113 491
f 491 113 492
f 492 112 493
f 493 112 494
f 494 110 495
f 495 110 193
f 110 228 193
f 497 496 109
f 497 109 108
f 497 108 498
f 498 108 499
f 499 108 107
f 499 107 500
f 500 107 501
f 501 107 105
f 501 105 502
f 502 105 503
f 503 105 104
f 503 104 504
f 504 104 505
f 505 104 102
f 505 102 506
f 506 102 507
f 507 102 101
f 507 101 508
f 508 101 509
f 509 101 99
f 509 99 510
f 510 99 511
f 511 99 98
f 511 98 512
f 512 98 513
f 513 98 96
f 513 96 514
f 514 96 515
f 515 96 95
f 515 95 516
f 516 95 517
f 517 95 93
f 517 93 518
f 518 93 530
f 530 93 92
f 530 92 519
f 519 92 520
f 520 92 90
f 520 90 521
f 521 90 522
f 522 90 89
f 522 89 523
f 523 89 524
f 524 89 87
f 524 87 525
f 525 87 526
f 526 87 527
f 467 527 195
f 467 195 126
f 467 528 527
f 527 528 526
f 496 497 529
f 496 529 193
f 193 529 495
f 519 520 530
f 498 531 497
f 495 529 532
f 495 532 494
f 494 532 493
f 493 533 492
f 492 533 491
f 491 534 490
f 490 534 489
f 489 535 488
f 488 535 487
f 487 536 486
f 486 536 485
f 485 537 484
f 484 537 483
f 483 538 482
f 482 538 481
f 481 539 480
f 480 539 479
f 479 540 478
f 478 540 541
f 478 541 477
f 477 541 476
f 476 541 542
f 476 542 475
f 475 542 474
f 474 543 473
f 473 543 472
f 472 544 471
f 471 544 470
f 470 545 469
f 469 545 468
f 468 546 126
f 126 546 547
f 126 547 467
f 467 547 528
f 547 548 528
f 531 549 497
f 497 549 550
f 497 550 529
f 548 551 528
f 528 551 552
f 528 552 526
f 526 552 553
f 526 553 525
f 525 553 554
f 525 554 524
f 524 554 555
f 524 555 523
f 523 555 556
f 523 556 522
f 522 556 557
f 522 557 521
f 521 557 558
f 521 558 520
f 520 558 559
f 520 559 530
f 530 559 66
f 530 66 518
f 518 66 560
f 518 560 517
f 517 560 561
f 517 561 516
f 516 561 562
f 516 562 515
f 515 562 563
f 515 563 514
f 514 563 564
f 514 564 513
f 513 564 565
f 513 565 512
f 512 565 566
f 512 566 511
f 511 566 567
f 511 567 510
f 510 567 568
f 510 568 509
f 509 568 569
f 509 569 508
f 508 569 570
f 508 570 507
f 507 570 571
f 507 571 506
f 506 571 572
f 506 572 505
f 505 572 573
f 505 573 504
f 504 573 574
f 504 574 503
f 503 574 575
f 503 575 502
f 502 575 576
f 502 576 501
f 501 576 577
f 501 577 500
f 500 577 578
f 500 578 499
f 499 578 579
f 499 579 498
f 498 579 531
f 550 580 529
f 529 580 532
f 532 581 493
f 493 581 533
f 533 582 491
f 491 582 534
f 534 583 489
f 489 583 61
f 489 61 535
f 535 61 584
f 535 584 487
f 487 584 536
f 536 585 485
f 485 585 586
f 485 586 537
f 537 586 587
f 537 587 483
f 483 587 588
f 483 588 538
f 538 588 589
f 538 589 481
f 481 589 590
f 481 590 539
f 539 590 591
f 539 591 479
f 479 591 592
f 479 592 540
f 540 592 593
f 540 593 541
f 541 593 594
f 541 594 595
f 541 595 542
f 542 595 69
f 542 69 474
f 474 69 596
f 474 596 543
f 543 596 597
f 543 597 472
f 472 597 598
f 472 598 544
f 544 598 74
f 544 74 470
f 470 74 599
f 470 599 545
f 545 599 600
f 545 600 468
f 468 600 601
f 468 601 546
f 546 601 602
f 546 602 547
f 547 602 548
f 602 75 548
f 548 75 77
f 548 77 551
f 551 77 76
f 551 76 552
f 552 76 553
f 553 76 59
f 553 59 554
f 554 59 555
f 561 560 78
f 561 78 562
f 562 78 563
f 563 78 79
f 563 79 564
f 564 79 565
f 565 79 566
f 566 79 80
f 566 80 567
f 567 80 81
f 567 81 568
f 569 568 81
f 569 81 570
f 570 81 571
f 571 81 84
f 571 84 572
f 576 575 85
f 576 85 577
f 577 85 578
f 578 85 82
f 578 82 579
f 579 82 531
f 531 82 71
f 531 71 549
f 549 71 550
f 550 71 72
f 550 72 580
f 580 72 532
f 532 72 581
f 533 581 73
f 533 73 582
f 582 73 534
f 584 61 62
f 584 62 536
f 536 62 585
f 585 62 67
f 585 67 586
f 586 67 587
f 587 67 64
f 587 64 588
f 588 64 589
f 589 64 590
f 590 64 65
f 590 65 591
f 591 65 68
f 591 68 592
f 593 592 68
f 593 68 594
f 594 68 595
f 602 601 75
