v 0.00393074447 0.000572810645 0.00969561386
v 0.00395104509 -0.000516458357 0.00966905996
v 0.00343960971 0.0020049983 0.00962215115
v -0.00330949731 0.00223522567 0.00967535775
v 0.0015170737 0.00384177425 0.00986879304
v 0.00208748856 0.00339927664 0.00969486953
v 0.00125250268 -0.0037741221 0.0096954373
v -0.000768136195 -0.00407084356 0.00976985743
v -0.00378816973 -0.00161405999 0.00979070202
v -0.00389484108 0.000424737644 0.00950001675
v 0.00562202861 0.005716938 0.0095000221
v -0.0027275801 -0.00289893873 0.00965423715
v 0.00188104255 -0.00349780068 0.00969563166
v -0.00308813085 0.00292063543 0.00995625554
v -0.00143433301 0.00398436641 0.00986027453
v 0.000850817229 0.00393701597 0.00969387363
v 0.00245408231 -0.00312059277 0.00969576509
v -0.00729517914 -0.00528848009 0.00861579581
v -0.00800362798 -0.00498203245 0.00447252198
v -0.00815278366 -0.00383643746 0.00861507833
v -0.00910129313 -0.00184518318 0.00625806148
v -0.00872330653 -0.00225709141 0.00861469268
v -0.00899136446 -0.00059194 0.00861432719
v -0.00915040538 0.00157945545 0.00626941207
v -0.00894412861 0.00109465396 0.00861351298
v -0.00858365016 0.00274243214 0.00861309558
v -0.00795503132 0.00478832198 0.00628114149
v -0.00792140783 0.00429564218 0.00861241757
v -0.00698412332 0.00569439521 0.00861207676
v -0.00567824713 0.00734550639 0.00629102113
v -0.00579955131 0.00689734405 0.00861128815
v -0.00441228666 0.00785755295 0.00861078361
v -0.00262877775 0.00890400183 0.00629752094
v -0.00287344339 0.00854143572 0.00861022608
v -0.00123138269 0.00892742164 0.00860972338
v 0.000777879726 0.00925093812 0.00630338342
v 0.000452527492 0.00900071576 0.00860922887
v 0.00212210894 0.00875880539 0.00860877388
v 0.00407843223 0.00833946519 0.00630768144
v 0.00371642518 0.00821039746 0.00860828021
v 0.00518015604 0.00737504233 0.00860787664
v 0.00601661904 0.00678730466 0.0082853371
v 0.00769642502 0.00467781948 0.00860166713
v 0.00827453341 0.00430926884 0.00530341841
v 0.0089259123 0.00271398575 0.00530612819
v 0.00899412613 0.000942256135 0.00848447743
v 0.0090132615 -0.000737866367 0.00848090802
v 0.00872153463 -0.00239150917 0.00847686095
v 0.00812752172 -0.00396549286 0.00847535841
v 0.00725480186 -0.00539938479 0.00847049879
v 0.00612899103 -0.00664986806 0.00846866372
v 0.0047934166 -0.00766882272 0.00846526372
v 0.00329167061 -0.00842351868 0.00846217857
v 0.00168425354 -0.00888725448 0.00844332507
v -5.79089829e-05 -0.00904774626 0.0084086323
v -0.00173044185 -0.00888102643 0.008406632
v -0.00334393359 -0.00840765386 0.00840407211
v -0.00484376719 -0.00764282324 0.00840234208
v -0.0019074863 -0.00911072189 -0.00683157434
v -0.00744324384 -0.00566717526 -0.00500628927
v -0.0048577392 -0.00774092729 -0.00826998069
v -0.00530314491 -0.00728479244 -0.00861594454
v -0.00167482166 -0.00885679128 -0.00860439105
v 2.67289853e-06 -0.00901373431 -0.00860438116
v 0.00190572035 -0.00887173852 -0.0083474584
v 0.00453017454 -0.00789851216 -0.00838022954
v 0.00501658076 -0.00748578056 -0.00861223395
v 0.00650870575 -0.00629873012 -0.00838725319
v 0.00799602146 -0.0043646424 -0.008313889
v 0.00903595527 -0.00116039122 -0.00830644469
v 0.0088401512 0.00220327797 -0.00830020347
v 0.00780376704 0.00459890286 -0.00838154955
v 0.00626446625 0.00680990316 -0.00617957357
v 0.00589105146 0.00681592671 -0.00862608022
v 0.00510295317 0.00746839812 -0.0084031016
v 0.00486836974 0.00800607469 -0.00469845696
v 0.00399197394 0.00806303333 -0.00863856606
v 0.00363465659 0.00828291865 -0.00840381093
v 0.00331596862 0.00876338317 -0.00470624435
v 0.00241546492 0.00866696079 -0.00863850817
v 0.00204006189 0.00881241584 -0.00840384679
v 0.00165063978 0.0092228819 -0.00471383938
v 0.00075347115 0.00896573517 -0.00863837986
v 0.000374822616 0.00903774387 -0.00840525605
v -7.13576371e-05 0.00936905177 -0.00471827885
v -0.000935282192 0.00894882628 -0.00863803452
v -0.0013028882 0.00895134562 -0.00840571105
v -0.00179102888 0.00919620742 -0.00472515634
v -0.00259073136 0.00861675884 -0.00863740143
v -0.00293628265 0.00855599414 -0.00840676098
v -0.00344975021 0.00871060757 -0.00472946767
v -0.00446586666 0.00786670604 -0.00840775071
v -0.00499068 0.00792873126 -0.00473466454
v -0.00557241361 0.00706551085 -0.00863555296
v -0.00584542013 0.00690390705 -0.00840876059
v -0.00636252987 0.0068765844 -0.00473863639
v -0.00679460657 0.00590015643 -0.00863425863
v -0.00702239447 0.00570285323 -0.0084096398
v -0.00751817886 0.0055898631 -0.00473998972
v -0.00777742093 0.00452754834 -0.00863279879
v -0.00795432946 0.00430938819 -0.00841027269
v -0.0084168939 0.00411371543 -0.0047434429
v -0.0084856935 0.00299817166 -0.00863095364
v -0.00861582478 0.00275951386 -0.00841089311
v -0.00903004728 0.00249536903 -0.00474391786
v -0.00894966086 0.00129932113 -0.00842515531
v -0.00898541945 0.000522523772 -0.00862795848
v -0.00933494912 0.000793837401 -0.00474220015
v -0.00903610198 -0.000374836817 -0.00842197331
v -0.009321672 -0.000938036662 -0.00474148863
v -0.00881170016 -0.00203814097 -0.00841741948
v -0.00855324919 -0.00280602472 -0.00862311961
v -0.00899057517 -0.00263506725 -0.00474204374
v -0.00828505163 -0.00362844393 -0.00841411714
v -0.00835313686 -0.00424258377 -0.00474192146
v -0.00775371063 -0.0045876049 -0.00862036903
v -0.00762842002 -0.00522556935 -0.00616014999
v -0.00693412124 -0.00574258414 -0.00861663447
v -0.00344665052 -0.00889552134 -0.0012575646
v -0.00536496888 -0.00782705778 -0.00247921232
v 0.00733929817 0.00523097376 0.00866722503
v -0.00624101738 -0.00657572534 -0.00830234085
v -0.0066529304 -0.00665298138 -0.00369871658
v -0.00671038928 -0.00671032105 -0.00123334927
v -0.00574890844 -0.00761318017 0.00125650296
v -0.00602601348 -0.0072585893 0.00372750256
v -0.00600667026 -0.00680089421 0.00824386265
v -0.000873695887 -0.00941476056 -0.00377013645
v -0.00261025521 -0.00917585143 0.00125750418
v -0.00424314851 -0.00835293657 0.00474080534
v -5.63464918e-07 -0.00953988063 -0.00125847684
v -0.00263483058 -0.00899049567 0.00474429189
v 0.0025860455 -0.00909461576 -0.00377132711
v 0.000880840249 -0.00949914804 0.00125811315
v -0.000936321874 -0.00932169595 0.00474397952
v 0.00344596165 -0.00889579781 -0.00125768025
v 0.000792935961 -0.00933493673 0.0047437139
v 0.00569684636 -0.00754628337 -0.00377098693
v 0.00425273931 -0.00853955941 0.00125740385
v 0.00249571318 -0.00902991707 0.00474419447
v 0.00642656168 -0.00705039724 -0.00125807694
v 0.00411333311 -0.00841732063 0.00474018833
v 0.00803804585 -0.00497897262 -0.00377103002
v 0.00705037876 -0.00642663314 0.00125697989
v 0.00559052858 -0.00751774011 0.00473939972
v 0.00853970471 -0.00425251247 -0.00125637166
v 0.00687628235 -0.00636299299 0.00473639209
v 0.00929369197 -0.00173945346 -0.00377322695
v 0.0088959259 -0.00344575359 0.00125609957
v 0.00792819539 -0.00499179225 0.00473337225
v 0.00949925104 -0.000880070468 -0.00125675578
v 0.00871093432 -0.00344888489 0.00473033705
v 0.00929441281 0.00173618041 -0.00377112239
v 0.00953995858 5.52144053e-07 0.00125655191
v 0.00919606252 -0.00179197419 0.00472515793
v 0.00917574589 0.00261062771 -0.00125812789
v 0.00936904197 -7.11764906e-05 0.00471811738
v 0.00822262969 0.00472135939 -0.00285611099
v 0.00897450251 0.00313687648 0.00209816283
v 0.00922287311 0.00165085573 0.00471360225
v 0.00809421272 0.00501180503 0.00123592415
v 0.00741972623 0.00508269634 0.00861488777
v 0.00665785966 0.00606110658 -0.00861490768
v 0.0066985968 0.00658333711 0.00460773549
v 0.0068288355 0.00665502322 0.000377516957
v 0.00672921599 0.00654334925 -0.00479450265
v 0.00574946128 0.00761265555 -0.00125849741
v 0.00421302316 0.00846475902 0.00376935106
v 0.00425182736 0.00854002011 0.00125671935
v 0.00261124447 0.00917556454 -0.001257371
v 0.000870438114 0.0094150143 0.00377114739
v 0.000879715368 0.00949925567 0.00125744616
v -0.000879634803 0.00949925011 -0.0012576683
v -0.00258922338 0.00909370207 0.00377134402
v -0.00261134647 0.0091755442 0.00125718729
v -0.0042516906 0.00854005522 -0.00125797011
v -0.00569932415 0.00754442423 0.00377016602
v -0.00574986924 0.00761244337 0.00125764407
v -0.00704970391 0.00642738942 -0.00125797293
v -0.00803964145 0.00497650839 0.00376954503
v -0.00811125075 0.00502167614 0.00125804404
v -0.00889564605 0.00344631839 -0.00125586684
v -0.00929445881 0.00173586036 0.0037715561
v -0.00937749939 0.00175235624 0.00125987866
v -0.00953993694 3.37671343e-07 -0.00125520091
v -0.00929379812 -0.00173913541 0.00377246239
v -0.00937729468 -0.00175339728 0.00125955328
v -0.00889595928 -0.00344548516 -0.0012569963
v -0.00711367431 -0.00590714846 0.00616013008
v -0.00814831866 -0.00496462043 0.00194696461
v -0.00817137262 -0.00497291997 -0.000563967773
v -0.00756674289 -0.00570990198 -0.00247548912
v 0.00388874707 0.000296145339 -0.00950003666
v 0.00382486157 0.001194047 -0.00970853405
v 0.00350405671 0.00180074656 -0.00966409914
v 0.00338764171 0.00205612732 -0.00963332593
v -0.00225799642 -0.00324147654 -0.00950003666
v 1.53706888e-05 -0.00397494193 -0.0096471648
v -0.000688055183 -0.00383880768 -0.00950003666
v 0.00208668524 -0.00338216885 -0.00969552273
v 0.00289877374 -0.00275683489 -0.0097086609
v 0.00333845345 -0.00208907038 -0.00966413801
v 0.00364777625 -0.00158436882 -0.00968371253
v 0.00393077991 -0.000561264182 -0.0096957408
v 0.00814217419 0.000962034778 -0.00948804786
v -0.00394350514 0.000604014702 -0.00968264537
v -0.00368382077 0.00133415679 -0.00950003666
v -0.00219953928 -0.00771058421 -0.00950004187
v 0.00076107766 -0.00816575804 -0.00948640224
v 0.00162830052 -0.0035438243 -0.00950003666
v -0.00741653837 0.00313706329 -0.00950008485
v -0.0037051201 -0.00137048729 -0.00950003666
v -0.00761232677 -0.00249311362 -0.00950003666
v -0.00701401534 -0.00386878882 -0.00950003666
v -0.0077227911 -0.00281845208 -0.00948164846
v -0.00644851151 -0.00476525611 -0.00950004174
v 0.00296349856 -0.00745044882 -0.00950004206
v 0.00208688447 0.00335116209 -0.00961352672
v -0.00312082497 0.00245383368 -0.00969576568
v -0.00811293639 -0.00132843981 -0.00948165331
v -0.0079963619 -0.000591168079 -0.00950004194
v -0.000492671158 0.00386872854 -0.00950003666
v -0.000403174655 0.00800801256 -0.00950004197
v 0.00102185685 0.00382969675 -0.00965496122
v -0.00110246101 0.00384581763 -0.00970859998
v -0.0022612023 0.00319956376 -0.00950003666
v -0.00552974048 0.00579526987 -0.00950003666
v -0.00383887592 -0.000688046556 -0.00450004143
v -0.00386976477 0.000794041882 -0.00450004143
v -0.0027228384 0.00286211706 -0.00450004143
v -0.00126145187 0.00369039144 -0.00450004143
v -0.000169891705 0.0039142568 -0.00450004143
v 0.00173845811 0.00354731157 -0.00450004143
v 0.00323196977 0.00221471715 -0.00450004143
v 0.00391784552 -2.80358177e-05 -0.00450004143
v 0.00369038281 -0.00126138363 -0.00450004143
v 0.00319933403 -0.00226152379 -0.00450004143
v 0.00174096679 -0.00354607579 -0.00450004143
v 9.88453372e-05 -0.00389876996 -0.00450004143
v -0.00137067959 -0.00370495897 -0.00450004143
v -0.00254915316 1.93141859e-06 -0.00450004143
v -0.00204963735 0.0014617775 -0.00450004143
v -0.000161769309 -0.00254402069 -0.00450004143
v -0.00240552536 -0.00186022018 -0.00450004143
v -0.00280665246 -0.00203689502 -0.00450004143
v 0.00185022671 -0.00170720902 -0.00450004143
v 0.00113501248 -0.00222751532 -0.00450004143
v 0.00264162924 0.00166356461 -0.00450004143
v 0.00244377388 -0.000604923491 -0.00450004143
v 0.00108678864 0.00230588462 -0.00450004143
v 0.00197543797 0.00153228607 -0.00450004143
v -0.000786153357 0.00242491228 -0.00450004143
v -0.0024238018 -0.000789490269 0.00450002152
v -0.00219679924 0.00137864935 0.00450002152
v -0.000846841957 0.00235220756 0.00450002152
v 0.000317874076 0.0025292547 0.00450002152
v 0.00218300473 0.00140045193 0.00450002152
v 0.00246862247 -0.000493772461 0.00450002152
v 0.00153484567 -0.00209064846 0.00450002152
v -7.85380856e-05 -0.00249877606 0.00450002152
v -0.00122661039 -0.00223468433 0.00450002152
v -0.00378578854 -0.00100926437 0.00450002152
v -0.00308084339 -0.00242054188 0.00450002152
v -0.002146104 -0.0032564107 0.00450002152
v -0.0014467031 -0.00362172757 0.00450002152
v -0.000368038889 -0.00390063517 0.00450002152
v 0.000881573532 -0.00379905139 0.00450002152
v -0.00285929935 0.00267856446 0.00450002152
v -0.00382388089 0.000991768753 0.00450002152
v 0.00386842911 0.0006209385 0.00450002152
v 0.00331008749 0.00209617814 0.00450002152
v 0.00221496489 0.00323176372 0.00450002152
v 0.00225552901 -0.00324317964 0.00450002152
v 0.00370399642 -0.00137330568 0.00450002152
v 0.00107290444 0.00374951925 0.00450002152
v 0.000296136711 0.0038887557 0.00450002152
v -0.000816680784 0.00383189129 0.00450002152
v -0.00197849574 0.00336089696 0.00450002152
v -0.00689099136 -0.0057062212 -0.00885010761
v -0.00760839162 -0.00473307913 -0.00884202856
v -0.00836202067 -0.00320938066 -0.00884943441
v -0.0088623508 -0.0014697055 -0.00878726222
v -0.00895646231 7.72670396e-05 -0.0088494571
v -0.00866906564 0.00217881189 -0.00894909296
v -0.00759021853 0.00469400945 -0.00893663606
v -0.00617633166 0.00647297468 -0.00885010761
v -0.00486109557 0.00751110877 -0.00885010761
v -0.00413451092 0.00796429603 -0.00877757291
v -0.00337527099 0.00828579034 -0.00885010761
v -0.00235161773 0.00860900522 -0.00893674103
v -0.000104883339 0.00894626941 -0.00885010761
v 0.0015651196 0.00880894031 -0.00885010761
v 0.00318016705 0.00836262073 -0.00885010761
v 0.00468363461 0.00762298669 -0.00885010761
v 0.00537695584 0.00715091791 -0.00885010761
v 0.00602295098 0.00661596622 -0.00885010761
v -0.00762711732 0.0031653171 -0.00947105455
v -0.00645437976 0.00520588486 -0.00947159
v -0.00504656702 0.0064323277 -0.00949000287
v -0.00514503396 0.00666886123 -0.00942857905
v -0.00301466709 0.00767133945 -0.0094801165
v -0.00119578694 0.00829053854 -0.00944177895
v 0.000380668272 0.00818992569 -0.00948805237
v 0.00266429618 0.0078524899 -0.00947159081
v 0.00438005248 0.00691730538 -0.00948770315
v 0.00499991664 0.00649711221 -0.00948475231
v 0.00552093382 0.00603022756 -0.00948999642
v 0.00610103307 0.00555410947 -0.00947071117
v 0.00707569251 0.00422756127 -0.00948011658
v 0.00786446314 0.0025184847 -0.00947105579
v 0.00824032454 -0.000537999273 -0.00947106428
v 0.0078649037 -0.00246496858 -0.00948027093
v 0.00669132703 -0.0048976515 -0.00947158322
v 0.00443117345 -0.00700892156 -0.00947158977
v 0.00230565133 -0.00789118412 -0.00948168823
v -0.000822581526 -0.00830780437 -0.00945518265
v -0.0030002644 -0.0076301189 -0.0094880502
v -0.00398478809 -0.0072242919 -0.00947071117
v -0.0053352065 -0.00632160548 -0.00947129833
v -0.00606990924 -0.00548564747 -0.00949334938
v -0.00730134337 -0.00403851287 -0.00945209763
v -0.00633200555 -0.00569507929 -0.00938815689
v -0.00710019748 -0.00523824159 -0.00915790134
v -0.0067780532 -0.00580773282 -0.00897801196
v -0.00811848941 0.00376000967 -0.00885010761
v -0.00307476755 -0.00794193177 -0.00938816536
v -0.0038760966 -0.00780533557 -0.00925400677
v -0.00544631558 -0.00703859418 -0.00898732939
v -0.00503585639 -0.00739505921 -0.00885010761
v -0.00403371082 -0.00793287557 -0.0089874899
v -0.00356862846 -0.00820437108 -0.00885010761
v -0.00040229914 -0.00862597969 -0.00930845944
v -0.00123350329 -0.00872609395 -0.00914068154
v -0.00274876447 -0.00847427293 -0.00895685711
v -0.00197623077 -0.00872591172 -0.00885010761
v 0.00163617418 -0.00835768262 -0.00938815748
v -0.00115046802 -0.00887259875 -0.00885010761
v -0.000314572479 -0.00894138251 -0.00885010761
v 0.00248594945 -0.00835270877 -0.00925401081
v 0.000820203974 -0.00886173758 -0.00898730508
v 0.00135817227 -0.00884321366 -0.00885010761
v 0.00458412002 -0.00717725153 -0.00938819161
v 0.00245801911 -0.00855329418 -0.00898751989
v 0.00298323331 -0.00843486224 -0.00885010761
v 0.00537341482 -0.00686102922 -0.00925402297
v 0.00400949565 -0.00794520117 -0.00898738771
v 0.0045037478 -0.00773069296 -0.00885010761
v 0.00689510491 -0.00499856803 -0.00938818691
v 0.00542094579 -0.00705804044 -0.00898734279
v 0.0075132894 -0.00441555883 -0.00925404722
v 0.00720550895 -0.00518457828 -0.00907503029
v 0.00620265387 -0.00646159217 -0.00884938733
v 0.0070228785 -0.00554308329 -0.00885010761
v 0.00824706528 -0.00212456074 -0.00938816739
v 0.00751115975 -0.00486108695 -0.00885010761
v 0.00776568146 -0.00449443715 -0.00880342361
v 0.00860867439 -0.00135567271 -0.00925404325
v 0.00860403146 -0.00218392466 -0.00907500222
v 0.00828578172 -0.00337532197 -0.00885010761
v 0.00846813509 -0.00296649238 -0.0088027501
v 0.00845207125 0.00104407631 -0.00938818322
v 0.00876989064 -0.00177118216 -0.00885010761
v 0.00887215489 -0.00133960723 -0.00880321347
v 0.00850674743 0.0018928243 -0.00925402928
v 0.00880592372 0.00112064222 -0.00907496387
v 0.00894632039 -0.000104874711 -0.00885010761
v 0.00896649216 0.000338161256 -0.00880253786
v 0.00748145984 0.00406883955 -0.00938814976
v 0.00880899129 0.00156506862 -0.00885010761
v 0.00874715321 0.00200080186 -0.00880226318
v 0.00722165146 0.00487788167 -0.00925409572
v 0.00778324525 0.00426870669 -0.00907490259
v 0.00836267171 0.00318017568 -0.00885010761
v 0.00822113151 0.00359600155 -0.00880202133
v 0.00547084308 0.00652672959 -0.00938816175
v 0.00762297807 0.00468370285 -0.00885010761
v 0.00717027182 0.00539988596 -0.00877010512
v 0.00493233573 0.00718457466 -0.00925405797
v 0.0056780931 0.00682355256 -0.00907481182
v 0.0066160172 0.0060229 -0.00885010761
v 0.00269898258 0.00807740116 -0.00938814138
v 0.00195728155 0.0084920857 -0.00925405209
v 0.00361243918 0.00812703399 -0.0089950637
v 0.000329456953 0.0084774482 -0.00938559546
v 0.00203397041 0.00865811355 -0.0089949165
v -0.0012904676 0.00861874512 -0.00925399128
v 0.000383453864 0.00888545284 -0.00899506244
v -0.00338326983 0.00787556978 -0.00935094082
v -0.00127965117 0.00880123965 -0.00899498912
v -0.00398502802 0.00786046789 -0.00914062556
v -0.0056888305 0.00660168595 -0.00925412601
v -0.00712167139 0.00467007394 -0.00938814981
v -0.00577744489 0.00676162192 -0.00899501368
v -0.00763720018 0.00429454868 -0.00919680348
v -0.00693667643 0.0055661404 -0.00899495668
v -0.00800166431 0.00201055374 -0.00947071117
v -0.0083504474 0.00219976446 -0.00930845033
v -0.00821053376 0.00174648924 -0.0094343134
v -0.00823626819 0.000483303923 -0.00947071117
v -0.00882528695 0.000955701929 -0.0090749758
v -0.00839221833 0.000185529578 -0.00943430571
v -0.00868815584 -0.000682040718 -0.00925393036
v -0.00856190294 -0.00234392308 -0.00907493025
v -0.00822219252 -0.00221904881 -0.00938815511
v -0.00798606493 -0.00344277186 -0.00925037974
v -0.00477109256 -0.00700637732 -0.00938452286
v -0.00553307834 -0.00668194924 -0.00924659771
v -0.0054227661 -0.00711876573 0.00890236414
v -0.00499328438 -0.00724629351 0.009174247
v -0.00398110489 -0.00801338653 0.00890529167
v -0.00354990022 -0.00805232784 0.00917425287
v -0.00241799796 -0.00861493679 0.00890526279
v -0.00198546639 -0.00857325474 0.00917418974
v -0.000768436058 -0.00891461712 0.00890553468
v -0.000352380472 -0.00879305092 0.00917424692
v 0.000906838026 -0.00890151532 0.00890561854
v 0.00129258063 -0.0087046726 0.00917422842
v 0.00198133507 -0.00856175352 0.00918493261
v 0.00289722725 -0.00846692395 0.00888706509
v 0.00347367019 -0.00808562166 0.00917648197
v 0.00442353267 -0.00777923982 0.00888694908
v 0.00492100258 -0.00729565584 0.00917652532
v 0.00579514539 -0.00681925639 0.00888676647
v 0.00619524665 -0.00625001335 0.00917648391
v 0.00696350014 -0.0056210551 0.00888673567
v 0.00725095378 -0.00498683504 0.00917646939
v 0.00788834846 -0.00422654668 0.00888631394
v 0.0080542778 -0.00354570296 0.00917645398
v 0.00853746507 -0.00268403114 0.00888611361
v 0.00857400232 -0.00198254344 0.00917649433
v 0.00888791374 -0.00104852131 0.0088859691
v 0.00879340208 -0.000348172804 0.00917639516
v 0.00892785604 0.000624373461 0.00888571956
v 0.00870416554 0.00129687297 0.00917646871
v 0.00865605414 0.00227441322 0.00888530818
v 0.00840599158 0.0030727849 0.00888514194
v 0.00808212771 0.00384487785 0.00888496873
v 0.00763050511 0.00459541881 0.00895894224
v 0.00662624061 0.00604422206 0.0087932119
v 0.0062173786 0.00631583017 0.00906717621
v 0.00532367305 0.00700716743 0.00917421057
v 0.00464317398 0.00747547305 0.00917424188
v 0.00392374088 0.00787693162 0.00917425237
v 0.00316905897 0.00820967563 0.00917426348
v 0.00238588822 0.00847053054 0.00917419847
v 0.00158221879 0.0086567266 0.00917419432
v 0.000764662137 0.00876678067 0.00917427656
v -5.9877296e-05 0.0087998864 0.00917427597
v -0.000883259216 0.00875568781 0.00917422622
v -0.00169939506 0.00863449549 0.00917420326
v -0.00250040971 0.00843741828 0.00917423166
v -0.0032794085 0.00816621571 0.00917423682
v -0.00403038506 0.00782289496 0.00917424685
v -0.0047441426 0.00741188173 0.00917420956
v -0.00541811058 0.00693433203 0.0091742859
v -0.00604349042 0.00639662228 0.00917428136
v -0.00661591172 0.00580270775 0.00917426308
v -0.00713039674 0.00515736419 0.00917426965
v -0.00758173756 0.00446749966 0.00917427879
v -0.00796668786 0.00373831573 0.00917421399
v -0.00828170242 0.00297590271 0.00917420014
v -0.00852440378 0.00218579593 0.00917415139
v -0.00869121447 0.00137981132 0.00917426069
v -0.00878228785 0.000558787812 0.00917427407
v -0.00879619237 -0.00026524625 0.0091741656
v -0.0087322339 -0.00109044259 0.00917428451
v -0.00859237201 -0.00190060937 0.00917432527
v -0.00837636471 -0.00269781857 0.00917422158
v -0.00808662497 -0.00347072564 0.00917432723
v -0.00772771989 -0.00421006041 0.00917420191
v -0.00729883805 -0.00491618958 0.00917424961
v -0.00689543825 -0.00573936263 0.0087861932
v -0.00651427608 -0.00613063107 0.00891561608
v 0.00705912933 0.00505266218 0.00926955059
v -0.0063840912 -0.00600023979 0.0091819842
v 0.00561883866 0.00635749234 0.00940221442
v 0.00742485891 0.00396462816 0.00945357486
v 0.00789574329 0.00308017318 0.00941038678
v 0.00826401074 0.00231836931 0.00932842035
v 0.00844490063 0.00082006139 0.00940223655
v 0.00844965662 -0.000768864725 0.00940222889
v 0.00815829521 -0.00233050677 0.00940221951
v 0.00762600072 -0.00393865679 0.00932840016
v 0.00671636824 -0.00508792661 0.00944239305
v 0.00565694062 -0.00632361405 0.00940220049
v 0.00437861971 -0.00726749025 0.00940223599
v 0.00294638746 -0.0079566346 0.00940221014
v 0.000621304466 -0.00846192785 0.00940217436
v -0.00107048307 -0.00851601243 0.00932842854
v -0.00246368651 -0.008057654 0.00944240541
v -0.00531481106 -0.00661375403 0.0094022084
v -0.006010635 -0.00597770721 0.00940678006
v 0.00613035736 0.00569533226 0.00944164865
v 0.00663646141 0.00509659132 0.00944164637
v -0.00672449447 -0.00468943625 0.00948474428
v -0.00705491245 -0.00413092727 0.00949007854
v -0.00784061256 -0.00256791745 0.00947069126
v -0.00818190875 -0.00106093321 0.00947069126
v -0.00814873615 -0.00101295563 0.00949199425
v -0.00823626819 0.000483303923 0.00947069126
v -0.00798867126 0.00191730592 0.00948733039
v -0.00748644176 0.00346729125 0.00947069126
v -0.0071289331 0.0041531023 0.00947069126
v -0.00670872035 0.0048024353 0.00947069126
v -0.00622949901 0.0054095086 0.00947069126
v -0.00522944134 0.00630907414 0.00948690974
v -0.00461548327 0.00677132316 0.00948690042
v -0.00400444252 0.00713941131 0.00948967375
v -0.00181364051 0.00799149449 0.00948690084
v -0.00111022318 0.00811009052 0.00948967601
v -9.66578976e-05 0.00824984874 0.00947069126
v 0.000676295136 0.00822266902 0.00947069126
v 0.00167901258 0.00802491521 0.009487987
v 0.00364186463 0.00740316476 0.00947069126
v 0.00431909261 0.00702962245 0.00947069126
v 0.00495841203 0.00659427013 0.00947069126
v 0.00711320208 0.0040768246 0.0094879828
v 0.00812318024 0.00144323673 0.00947069126
v 0.00824989972 -9.67088751e-05 0.00947069126
v 0.00806905546 -0.00142954958 0.00948690066
v 0.00764074025 -0.00311258469 0.00947069126
v 0.00443604571 -0.00112620797 0.00987426084
v 0.00596906838 -0.00569555197 0.00947069126
v 0.00480236707 -0.00670871172 0.00947069126
v 0.00346734223 -0.00748649273 0.00947069126
v 0.00201060471 -0.00800171528 0.00947069126
v 0.00125243363 -0.00815483962 0.00947069126
v -9.22996807e-05 -0.0081941226 0.00948690496
v -0.00085937231 -0.008149506 0.00948690302
v -0.00303442447 -0.0076025486 0.00948967474
v -0.00382207219 -0.00747494151 0.00946030557
v -0.00583396259 -0.00583395396 0.00947069126
v -0.00106070342 -0.00106063519 -0.0125000576
v -0.00122866931 -0.000860363584 0.0125000377
v -0.00122866931 -0.000860363584 -0.0125000576
v -0.0013594419 -0.000633925538 0.0125000377
v -0.0013594419 -0.000633925538 -0.0125000576
v -0.00144884887 -0.000388235193 0.0125000377
v -0.00144884887 -0.000388235193 -0.0125000576
v -0.00149426761 -0.000130743127 0.0125000377
v -0.00149426761 -0.000130743127 -0.0125000576
v -0.00149426761 0.000130742449 0.0125000377
v -0.00149426761 0.000130742449 -0.0125000576
v -0.00144884887 0.000388234515 0.0125000377
v -0.00144884887 0.000388234515 -0.0125000576
v -0.0013594419 0.000633924861 0.0125000377
v -0.0013594419 0.000633924861 -0.0125000576
v -0.00122866931 0.000860362906 0.0125000377
v -0.00122866931 0.000860362906 -0.0125000576
v -0.00106070342 0.00106063451 0.0125000377
v -0.00106070342 0.00106063451 -0.0125000576
v -0.000860312607 0.00122871961 0.0125000377
v -0.000860312607 0.00122871961 -0.0125000576
v -0.000633934166 0.0013594326 0.0125000377
v -0.000633934166 0.0013594326 -0.0125000576
v -0.00038824382 0.00144889917 0.0125000377
v -0.00038824382 0.00144889917 -0.0125000576
v -0.000130751754 0.00149431791 0.0125000377
v -0.000130751754 0.00149431791 -0.0125000576
v 0.000130674218 0.00149431791 0.0125000377
v 0.000130674218 0.00149431791 -0.0125000576
v 0.000388285492 0.00144889917 0.0125000377
v 0.000388285492 0.00144889917 -0.0125000576
v 0.000633975838 0.0013594326 0.0125000377
v 0.000633975838 0.0013594326 -0.0125000576
v 0.000860354279 0.00122871961 0.0125000377
v 0.000860354279 0.00122871961 -0.0125000576
v 0.00106062589 0.00106063451 0.0125000377
v 0.00106062589 0.00106063451 -0.0125000576
v 0.00122871098 0.000860362906 0.0125000377
v 0.00122871098 0.000860362906 -0.0125000576
v 0.00135948357 0.000633924861 0.0125000377
v 0.00135948357 0.000633924861 -0.0125000576
v 0.00144889054 0.000388234515 0.0125000377
v 0.00144889054 0.000388234515 -0.0125000576
v 0.00149430928 0.000130742449 0.0125000377
v 0.00149430928 0.000130742449 -0.0125000576
v 0.00149430928 -0.000130743127 0.0125000377
v 0.00149430928 -0.000130743127 -0.0125000576
v 0.00144889054 -0.000388235193 0.0125000377
v 0.00144889054 -0.000388235193 -0.0125000576
v 0.00135948357 -0.000633925538 0.0125000377
v 0.00135948357 -0.000633925538 -0.0125000576
v 0.00122871098 -0.000860363584 0.0125000377
v 0.00122871098 -0.000860363584 -0.0125000576
v 0.00106062589 -0.00106063519 0.0125000377
v 0.00106062589 -0.00106063519 -0.0125000576
v 0.000860354279 -0.00122872029 0.0125000377
v 0.000860354279 -0.00122872029 -0.0125000576
v 0.000633975838 -0.00135943327 0.0125000377
v 0.000633975838 -0.00135943327 -0.0125000576
v 0.000388285492 -0.00144889985 0.0125000377
v 0.000388285492 -0.00144889985 -0.0125000576
v 0.000130674218 -0.00149431859 0.0125000377
v 0.000130674218 -0.00149431859 -0.0125000576
v -0.000130751754 -0.00149431859 0.0125000377
v -0.000130751754 -0.00149431859 -0.0125000576
v -0.00038824382 -0.00144889985 0.0125000377
v -0.00038824382 -0.00144889985 -0.0125000576
v -0.000633934166 -0.00135943327 0.0125000377
v -0.000633934166 -0.00135943327 -0.0125000576
v -0.000860312607 -0.00122872029 0.0125000377
v -0.000860312607 -0.00122872029 -0.0125000576
v -0.00106070342 -0.00106063519 0.0125000377
v 2.08361823e-08 2.94633485e-08 0.0125000377
v 2.08361823e-08 2.94633485e-08 -0.0125000576
f 3 1 477
f 3 477 517
f 4 501 10
f 10 501 499
f 3 11 6
f 8 529 528
f 12 530 8
f 8 530 490
f 496 495 9
f 9 495 12
f 10 499 9
f 12 531 530
f 5 513 16
f 15 508 507
f 15 507 506
f 16 510 15
f 15 510 509
f 2 522 520
f 522 17 484
f 63 64 59
f 66 67 68
f 69 360 70
f 70 367 71
f 71 374 72
f 120 61 59
f 120 59 119
f 120 119 125
f 122 62 61
f 123 122 61
f 123 61 124
f 124 61 120
f 124 120 125
f 59 128 119
f 119 129 125
f 125 129 130
f 125 130 126
f 126 130 58
f 126 58 127
f 127 58 408
f 128 131 119
f 119 131 129
f 129 132 130
f 130 132 57
f 130 57 410
f 130 410 58
f 64 65 59
f 59 65 128
f 65 133 128
f 128 133 131
f 131 134 129
f 129 134 135
f 129 135 132
f 132 135 56
f 132 56 412
f 132 412 57
f 65 66 133
f 133 136 131
f 131 136 134
f 134 137 135
f 135 137 55
f 135 55 414
f 135 414 56
f 66 138 133
f 133 138 136
f 136 139 134
f 134 139 140
f 134 140 137
f 137 140 54
f 137 54 416
f 137 416 55
f 66 68 138
f 138 141 136
f 136 141 139
f 139 142 140
f 140 142 53
f 140 53 419
f 140 419 54
f 68 69 143
f 68 143 138
f 138 143 141
f 141 144 139
f 139 144 145
f 139 145 142
f 142 145 52
f 142 52 421
f 142 421 53
f 143 146 141
f 141 146 144
f 144 147 145
f 145 147 51
f 145 51 423
f 145 423 52
f 69 70 148
f 69 148 143
f 143 148 146
f 146 149 144
f 144 149 150
f 144 150 147
f 147 150 50
f 147 50 425
f 147 425 51
f 148 151 146
f 146 151 149
f 149 152 150
f 150 152 49
f 150 49 427
f 150 427 50
f 70 71 153
f 70 153 148
f 148 153 151
f 151 154 149
f 149 154 155
f 149 155 152
f 152 155 48
f 152 48 429
f 152 429 49
f 153 156 151
f 151 156 154
f 154 157 155
f 155 157 47
f 155 47 431
f 155 431 48
f 71 72 158
f 71 158 153
f 153 158 156
f 156 159 154
f 154 159 160
f 154 160 157
f 157 160 46
f 157 46 433
f 157 433 47
f 377 166 72
f 72 166 158
f 158 161 156
f 156 161 159
f 159 45 160
f 160 45 435
f 160 435 46
f 45 436 435
f 166 165 158
f 158 165 161
f 161 44 159
f 159 44 45
f 45 44 437
f 45 437 436
f 44 43 437
f 165 164 161
f 161 164 121
f 161 121 44
f 44 121 162
f 44 162 43
f 167 165 166
f 73 166 163
f 163 166 377
f 42 439 164
f 164 439 121
f 74 73 163
f 39 41 42
f 39 42 168
f 168 42 164
f 168 164 169
f 169 164 165
f 169 165 167
f 76 167 166
f 76 166 75
f 75 166 73
f 75 73 74
f 40 41 39
f 170 169 167
f 170 167 79
f 79 167 76
f 79 76 78
f 78 76 77
f 77 76 75
f 38 40 39
f 36 38 39
f 36 39 171
f 171 39 168
f 171 168 172
f 172 168 169
f 172 169 170
f 82 170 79
f 82 79 81
f 81 79 80
f 80 79 78
f 37 38 36
f 173 172 170
f 173 170 85
f 85 170 82
f 85 82 84
f 84 82 83
f 83 82 81
f 35 37 36
f 33 35 36
f 33 36 174
f 174 36 171
f 174 171 175
f 175 171 172
f 175 172 173
f 88 173 85
f 88 85 87
f 87 85 86
f 86 85 84
f 34 35 33
f 176 175 173
f 176 173 91
f 91 173 88
f 91 88 90
f 90 88 89
f 89 88 87
f 32 34 33
f 30 32 33
f 30 33 177
f 177 33 174
f 177 174 178
f 178 174 175
f 178 175 176
f 93 176 91
f 93 91 92
f 92 91 288
f 288 91 90
f 31 32 30
f 179 178 176
f 179 176 96
f 96 176 93
f 96 93 95
f 95 93 94
f 94 93 92
f 29 31 30
f 27 29 30
f 27 30 180
f 180 30 177
f 180 177 181
f 181 177 178
f 181 178 179
f 99 179 96
f 99 96 98
f 98 96 97
f 97 96 95
f 28 29 27
f 182 181 179
f 182 179 102
f 102 179 99
f 102 99 101
f 101 99 100
f 100 99 98
f 26 28 27
f 24 26 27
f 24 27 183
f 183 27 180
f 183 180 184
f 184 180 181
f 184 181 182
f 105 182 102
f 105 102 104
f 104 102 103
f 103 102 101
f 25 26 24
f 185 184 182
f 185 182 108
f 108 182 105
f 108 105 106
f 106 105 104
f 23 25 24
f 108 106 107
f 21 23 24
f 21 24 186
f 186 24 183
f 186 183 187
f 187 183 184
f 187 184 185
f 110 185 108
f 110 108 109
f 109 108 107
f 22 23 21
f 110 109 282
f 188 187 185
f 188 185 113
f 113 185 110
f 113 110 111
f 111 110 282
f 20 22 21
f 113 111 112
f 19 20 21
f 19 21 190
f 190 21 186
f 190 186 191
f 191 186 187
f 191 187 188
f 115 188 113
f 115 113 114
f 114 113 112
f 18 20 19
f 115 114 116
f 192 191 188
f 192 188 60
f 60 188 115
f 60 115 117
f 117 115 116
f 472 18 189
f 189 18 19
f 60 117 118
f 118 117 116
f 118 122 60
f 60 122 192
f 192 122 123
f 192 123 191
f 191 123 124
f 191 124 190
f 190 124 125
f 190 125 19
f 19 125 126
f 19 126 189
f 189 126 127
f 189 127 472
f 472 127 473
f 194 205 193
f 193 205 204
f 197 317 320
f 198 208 199
f 199 208 197
f 197 208 317
f 206 211 207
f 212 214 215
f 212 215 213
f 197 320 216
f 197 216 212
f 212 216 214
f 200 217 210
f 210 217 198
f 198 217 315
f 198 315 209
f 207 211 219
f 213 220 212
f 212 220 221
f 212 221 206
f 305 306 218
f 218 306 307
f 218 307 196
f 196 307 309
f 225 223 222
f 222 223 224
f 225 226 301
f 223 303 224
f 226 299 301
f 226 219 227
f 226 227 299
f 244 197 245
f 245 197 212
f 245 212 228
f 228 212 229
f 229 212 206
f 229 206 207
f 229 207 230
f 230 207 219
f 230 219 226
f 230 226 231
f 231 226 225
f 231 225 232
f 232 225 222
f 232 222 224
f 232 224 233
f 233 224 218
f 233 218 234
f 234 218 196
f 234 196 195
f 234 195 248
f 248 195 194
f 248 194 235
f 235 194 193
f 235 193 204
f 235 204 236
f 236 204 203
f 236 203 237
f 237 203 202
f 237 202 201
f 237 201 238
f 238 201 200
f 238 200 210
f 238 210 198
f 238 198 239
f 239 198 240
f 240 198 199
f 240 199 197
f 240 197 244
f 241 228 229
f 241 229 242
f 243 240 244
f 241 245 228
f 246 237 238
f 246 238 247
f 247 238 243
f 243 238 239
f 243 239 240
f 248 235 249
f 249 235 236
f 249 236 246
f 246 236 237
f 250 233 251
f 251 233 234
f 251 234 248
f 229 230 242
f 242 230 252
f 252 230 231
f 252 231 232
f 252 232 250
f 250 232 233
f 261 244 253
f 253 244 245
f 253 245 241
f 253 241 254
f 254 241 242
f 254 242 252
f 254 252 255
f 255 252 256
f 256 252 250
f 256 250 257
f 257 250 251
f 257 251 248
f 257 248 258
f 258 248 249
f 258 249 259
f 259 249 246
f 259 246 247
f 259 247 243
f 259 243 260
f 260 243 261
f 261 243 244
f 253 262 263
f 253 263 261
f 261 263 264
f 264 265 261
f 261 265 266
f 261 266 260
f 260 266 259
f 259 266 267
f 259 267 273
f 254 268 269
f 254 269 253
f 253 269 262
f 257 270 271
f 257 271 272
f 257 272 256
f 259 273 274
f 259 274 258
f 258 274 257
f 257 274 270
f 256 272 275
f 256 275 276
f 256 276 277
f 256 277 255
f 255 277 254
f 254 277 278
f 254 278 268
f 12 263 9
f 9 263 262
f 9 262 10
f 10 262 269
f 10 269 4
f 4 269 268
f 4 268 14
f 14 268 15
f 15 268 278
f 15 278 277
f 15 277 16
f 16 277 276
f 16 276 5
f 5 276 275
f 5 275 272
f 5 272 6
f 6 272 3
f 3 272 271
f 3 271 270
f 3 270 1
f 1 270 2
f 2 270 274
f 2 274 522
f 522 274 273
f 522 273 17
f 17 273 13
f 13 273 7
f 7 273 267
f 7 267 8
f 8 267 266
f 8 266 265
f 8 265 12
f 12 265 264
f 12 264 263
f 118 116 280
f 116 114 281
f 114 112 281
f 112 111 282
f 282 109 283
f 109 107 283
f 107 106 284
f 101 100 285
f 100 98 285
f 98 97 395
f 97 95 286
f 95 94 393
f 94 92 287
f 288 90 289
f 90 89 290
f 89 87 290
f 87 86 389
f 86 84 291
f 84 83 387
f 83 81 292
f 81 80 385
f 80 78 293
f 78 77 383
f 77 75 294
f 75 74 295
f 298 219 211
f 298 227 219
f 302 223 225
f 304 224 303
f 304 218 224
f 309 195 196
f 310 194 195
f 311 204 205
f 312 203 204
f 313 203 312
f 313 202 203
f 313 201 202
f 314 200 201
f 314 217 200
f 316 198 209
f 316 208 198
f 319 320 317
f 320 319 322
f 321 216 320
f 321 320 322
f 328 62 122
f 324 328 122
f 208 316 317
f 317 316 326
f 327 330 328
f 328 330 329
f 328 329 62
f 330 61 62
f 329 330 62
f 316 332 326
f 326 332 333
f 326 333 327
f 327 333 334
f 327 334 330
f 330 334 331
f 330 331 61
f 334 59 61
f 331 334 61
f 209 336 316
f 316 336 332
f 333 335 334
f 334 335 63
f 334 63 59
f 209 315 336
f 333 337 335
f 335 337 63
f 336 339 332
f 332 339 340
f 332 340 333
f 333 340 338
f 333 338 337
f 337 338 64
f 337 64 63
f 217 314 315
f 315 314 336
f 338 340 64
f 314 342 336
f 336 342 339
f 339 343 340
f 340 343 341
f 340 341 65
f 340 65 64
f 341 343 65
f 344 66 65
f 342 345 339
f 339 345 346
f 339 346 343
f 343 346 344
f 343 344 65
f 201 313 314
f 314 313 342
f 344 346 66
f 347 67 66
f 313 348 342
f 342 348 345
f 345 349 346
f 346 349 347
f 346 347 66
f 347 349 67
f 352 68 67
f 348 350 345
f 345 350 351
f 345 351 349
f 349 351 352
f 349 352 67
f 313 312 348
f 353 69 68
f 312 354 348
f 348 354 350
f 351 353 352
f 352 353 68
f 355 356 69
f 351 355 353
f 353 355 69
f 204 311 312
f 312 311 354
f 354 357 350
f 350 357 358
f 350 358 351
f 351 358 356
f 351 356 355
f 359 360 69
f 358 359 356
f 356 359 69
f 311 205 361
f 311 361 354
f 354 361 357
f 358 360 359
f 362 363 70
f 358 362 360
f 360 362 70
f 194 310 205
f 205 310 361
f 361 364 357
f 357 364 365
f 357 365 358
f 358 365 363
f 358 363 362
f 366 367 70
f 365 366 363
f 363 366 70
f 195 309 310
f 310 309 368
f 310 368 361
f 361 368 364
f 365 367 366
f 369 370 71
f 365 369 367
f 367 369 71
f 368 371 364
f 364 371 372
f 364 372 365
f 365 372 370
f 365 370 369
f 373 374 71
f 307 308 309
f 309 308 368
f 372 373 370
f 370 373 71
f 308 307 375
f 308 375 368
f 368 375 371
f 372 374 373
f 307 306 375
f 372 376 374
f 374 376 72
f 306 305 375
f 375 378 371
f 371 378 379
f 371 379 372
f 372 379 377
f 372 377 376
f 376 377 72
f 74 163 380
f 380 163 377
f 218 304 305
f 305 304 375
f 379 380 377
f 304 381 375
f 375 381 378
f 379 296 380
f 380 296 74
f 379 295 296
f 296 295 74
f 381 382 378
f 378 382 383
f 378 383 379
f 379 383 294
f 379 294 295
f 295 294 75
f 304 303 381
f 294 383 77
f 303 384 381
f 381 384 382
f 382 385 383
f 383 385 293
f 383 293 78
f 223 302 303
f 303 302 384
f 293 385 80
f 384 302 386
f 384 386 382
f 382 386 387
f 382 387 385
f 385 387 292
f 385 292 81
f 225 301 302
f 292 387 83
f 301 388 302
f 302 388 386
f 386 389 387
f 387 389 291
f 387 291 84
f 291 389 86
f 299 300 301
f 301 300 388
f 388 390 386
f 386 390 290
f 386 290 389
f 389 290 87
f 227 298 299
f 299 298 300
f 300 391 388
f 388 391 390
f 390 289 290
f 290 289 90
f 390 288 289
f 298 392 300
f 300 392 391
f 391 393 390
f 390 393 287
f 390 287 288
f 288 287 92
f 287 393 94
f 211 297 298
f 298 297 392
f 392 394 391
f 391 394 395
f 391 395 393
f 393 395 286
f 393 286 95
f 286 395 97
f 297 397 392
f 392 397 394
f 394 285 395
f 395 285 98
f 397 284 394
f 394 284 325
f 394 325 285
f 285 325 101
f 106 104 284
f 400 284 397
f 398 397 396
f 396 397 297
f 396 297 211
f 284 104 103
f 284 103 325
f 325 103 101
f 398 396 206
f 206 396 211
f 283 107 284
f 283 284 400
f 402 400 397
f 402 397 401
f 401 397 398
f 401 398 399
f 399 398 206
f 401 399 221
f 221 399 206
f 282 283 403
f 403 283 400
f 403 400 402
f 404 402 401
f 404 401 220
f 220 401 221
f 281 112 282
f 281 282 403
f 405 403 402
f 405 402 404
f 215 404 220
f 215 220 213
f 280 116 281
f 280 281 323
f 323 281 403
f 323 403 405
f 321 405 404
f 321 404 215
f 321 215 214
f 324 280 323
f 323 405 322
f 322 405 321
f 216 321 214
f 317 318 319
f 319 318 406
f 319 406 322
f 322 406 407
f 322 407 323
f 323 407 324
f 324 279 280
f 280 279 118
f 318 317 326
f 318 326 406
f 406 326 327
f 406 327 407
f 407 327 328
f 407 328 324
f 279 324 122
f 279 122 118
f 409 408 58
f 409 58 410
f 411 410 57
f 411 57 412
f 413 412 56
f 413 56 414
f 415 414 55
f 415 55 416
f 417 416 54
f 417 54 418
f 418 54 419
f 419 53 420
f 420 53 421
f 421 52 422
f 422 52 423
f 423 51 424
f 424 51 425
f 425 50 426
f 426 50 427
f 427 49 428
f 428 49 429
f 429 48 430
f 430 48 431
f 431 47 432
f 432 47 433
f 433 46 434
f 434 46 435
f 437 43 438
f 438 43 121
f 43 162 121
f 440 439 42
f 440 42 41
f 440 41 441
f 441 41 442
f 442 41 40
f 442 40 443
f 443 40 444
f 444 40 38
f 444 38 445
f 445 38 446
f 446 38 37
f 446 37 447
f 447 37 448
f 448 37 35
f 448 35 449
f 449 35 450
f 450 35 34
f 450 34 451
f 451 34 452
f 452 34 32
f 452 32 453
f 453 32 454
f 454 32 31
f 454 31 455
f 455 31 456
f 456 31 29
f 456 29 457
f 457 29 458
f 458 29 28
f 458 28 459
f 459 28 460
f 460 28 26
f 460 26 461
f 461 26 462
f 462 26 25
f 462 25 463
f 463 25 464
f 464 25 23
f 464 23 465
f 465 23 466
f 466 23 22
f 466 22 467
f 467 22 468
f 468 22 20
f 468 20 469
f 469 20 470
f 470 20 18
f 470 18 471
f 471 18 472
f 408 473 127
f 472 473 471
f 439 440 474
f 439 474 121
f 121 474 438
f 408 475 473
f 473 475 471
f 441 476 440
f 438 474 477
f 438 477 437
f 437 477 478
f 437 478 436
f 436 478 479
f 436 479 435
f 435 479 434
f 434 480 433
f 433 480 432
f 432 481 431
f 431 481 430
f 430 482 429
f 429 482 428
f 428 483 427
f 427 483 426
f 426 484 425
f 425 484 424
f 424 485 423
f 423 485 422
f 422 486 421
f 421 486 420
f 420 487 419
f 419 487 418
f 417 488 416
f 416 488 415
f 415 489 414
f 414 489 413
f 413 490 412
f 412 490 411
f 411 531 410
f 410 531 409
f 409 491 408
f 408 491 492
f 408 492 475
f 475 492 471
f 476 493 440
f 440 493 494
f 440 494 474
f 492 495 471
f 471 495 496
f 471 496 470
f 470 496 9
f 470 9 469
f 469 9 497
f 469 497 468
f 468 497 499
f 468 499 467
f 467 499 498
f 467 498 466
f 466 498 499
f 466 499 465
f 465 499 500
f 465 500 464
f 464 500 501
f 464 501 463
f 463 501 462
f 462 501 461
f 461 501 502
f 461 502 460
f 460 502 503
f 460 503 459
f 459 503 504
f 459 504 458
f 458 504 505
f 458 505 457
f 457 505 14
f 457 14 456
f 456 14 506
f 456 506 455
f 455 506 507
f 455 507 454
f 454 507 508
f 454 508 453
f 453 508 15
f 453 15 452
f 452 15 451
f 451 15 509
f 451 509 450
f 450 509 510
f 450 510 449
f 449 510 511
f 449 511 448
f 448 511 512
f 448 512 447
f 447 512 513
f 447 513 446
f 446 513 445
f 445 513 5
f 445 5 444
f 444 5 514
f 444 514 443
f 443 514 515
f 443 515 442
f 442 515 516
f 442 516 441
f 441 516 476
f 494 517 474
f 474 517 477
f 479 478 518
f 479 518 434
f 434 518 480
f 480 519 432
f 432 519 481
f 481 520 430
f 430 520 482
f 482 521 428
f 428 521 522
f 428 522 483
f 483 522 426
f 426 522 484
f 484 523 424
f 424 523 485
f 485 524 422
f 422 524 486
f 486 525 420
f 420 525 487
f 487 526 418
f 418 526 527
f 418 527 417
f 417 527 488
f 488 528 415
f 415 528 529
f 415 529 489
f 489 529 8
f 489 8 413
f 413 8 490
f 490 530 411
f 411 530 531
f 409 531 491
f 491 532 492
f 532 12 492
f 492 12 495
f 497 9 499
f 500 499 501
f 502 501 4
f 502 4 503
f 503 4 504
f 504 4 505
f 505 4 14
f 14 15 506
f 511 510 16
f 511 16 512
f 512 16 513
f 514 5 6
f 514 6 515
f 515 6 516
f 516 6 11
f 516 11 476
f 476 11 493
f 493 11 3
f 493 3 494
f 494 3 517
f 478 477 1
f 478 1 518
f 518 1 480
f 480 1 2
f 480 2 519
f 519 2 481
f 481 2 520
f 482 520 522
f 482 522 521
f 523 484 17
f 523 17 485
f 485 17 524
f 524 17 13
f 524 13 486
f 486 13 525
f 525 13 7
f 525 7 487
f 487 7 526
f 526 7 8
f 526 8 527
f 527 8 488
f 488 8 528
f 491 531 12
f 491 12 532
f 533 534 535
f 535 534 536
f 535 536 537
f 537 536 538
f 537 538 539
f 539 538 540
f 539 540 541
f 541 540 542
f 541 542 543
f 543 542 544
f 543 544 545
f 545 544 546
f 545 546 547
f 547 546 548
f 547 548 549
f 549 548 550
f 549 550 551
f 551 550 552
f 551 552 553
f 553 552 554
f 553 554 555
f 555 554 556
f 555 556 557
f 557 556 558
f 557 558 559
f 559 558 560
f 559 560 561
f 561 560 562
f 561 562 563
f 563 562 564
f 563 564 565
f 565 564 566
f 565 566 567
f 567 566 568
f 567 568 569
f 569 568 570
f 569 570 571
f 571 570 572
f 571 572 573
f 573 572 574
f 573 574 575
f 575 574 576
f 575 576 577
f 577 576 578
f 577 578 579
f 579 578 580
f 579 580 581
f 581 580 582
f 581 582 583
f 583 582 584
f 583 584 585
f 585 584 586
f 585 586 587
f 587 586 588
f 587 588 589
f 589 588 590
f 589 590 591
f 591 590 592
f 591 592 593
f 593 592 594
f 593 594 595
f 595 594 596
f 595 596 597
f 597 596 598
f 597 598 599
f 599 598 600
f 599 600 601
f 601 600 602
f 601 602 603
f 603 602 604
f 603 604 533
f 533 604 534
f 572 570 605
f 605 570 568
f 605 568 566
f 578 576 605
f 605 576 574
f 605 574 572
f 584 582 605
f 605 582 580
f 605 580 578
f 590 588 605
f 605 588 586
f 605 586 584
f 596 594 605
f 605 594 592
f 605 592 590
f 602 600 605
f 605 600 598
f 605 598 596
f 536 534 605
f 605 534 604
f 605 604 602
f 542 540 605
f 605 540 538
f 605 538 536
f 548 546 605
f 605 546 544
f 605 544 542
f 554 552 605
f 605 552 550
f 605 550 548
f 560 558 605
f 605 558 556
f 605 556 554
f 566 564 605
f 605 564 562
f 605 562 560
f 565 567 606
f 606 567 569
f 606 569 571
f 559 561 606
f 606 561 563
f 606 563 565
f 553 555 606
f 606 555 557
f 606 557 559
f 547 549 606
f 606 549 551
f 606 551 553
f 541 543 606
f 606 543 545
f 606 545 547
f 535 537 606
f 606 537 539
f 606 539 541
f 601 603 606
f 606 603 533
f 606 533 535
f 595 597 606
f 606 597 599
f 606 599 601
f 589 591 606
f 606 591 593
f 606 593 595
f 583 585 606
f 606 585 587
f 606 587 589
f 577 579 606
f 606 579 581
f 606 581 583
f 571 573 606
f 606 573 575
f 606 575 577
