v -0.00468168725 -0.00468172183 -0.010708083
v 0.00658645164 0.00603745828 0.00886953946
v -0.00443540086 -0.00498439422 -0.0106762541
v 0.00675942431 0.00569878468 0.00896299954
v -0.00426242818 -0.00532306781 -0.010582794
v 0.00684728156 0.0053473557 0.00911153432
v -0.00417457093 -0.00567449679 -0.0104342592
v 0.00684406291 0.00500701318 0.00930524941
v -0.00417778958 -0.00601483932 -0.0102405441
v 0.00675012599 0.00470100293 0.00953079339
v -0.0042717265 -0.00632084956 -0.0100150001
v 0.00657155047 0.00445030579 0.00977290745
v -0.00445030202 -0.0065715467 -0.00977288608
v 0.00632085334 0.00427173028 0.0100149023
v -0.00470099915 -0.00675012221 -0.00953089122
v 0.00601484309 0.00417779336 0.0102405655
v -0.0050070094 -0.00684405913 -0.00930522804
v 0.00567450057 0.00417457471 0.0104341614
v -0.00534735192 -0.00684727779 -0.00911163215
v 0.00532307158 0.00426243195 0.0105828154
v -0.00569878091 -0.00675942054 -0.00896297817
v 0.00498439799 0.00443540463 0.0106762755
v -0.0060374545 -0.00658644786 -0.00886951808
v 0.0046816064 0.00468169103 0.0107081043
v -0.00634012689 -0.00634016147 -0.0088376892
v 0.00443543922 0.00498448262 0.0106762755
v -0.00658641328 -0.00603736987 -0.00886951808
v 0.00426246654 0.005323037 0.0105828154
v -0.00675938596 -0.00569869628 -0.00896297817
v 0.00417460929 0.0056745852 0.0104341614
v -0.0068472432 -0.00534726729 -0.00911163215
v 0.00417770873 0.00601480851 0.0102405655
v -0.00684414376 -0.00500704398 -0.00930522804
v 0.00427176486 0.00632081876 0.0100149023
v -0.00675008763 -0.00470103374 -0.00953089122
v 0.00445022117 0.0065716351 0.00977290745
v -0.00657163133 -0.00445021739 -0.00977288608
v 0.00470103751 0.00675009141 0.00953079339
v -0.00632081498 -0.00427176108 -0.0100150001
v 0.00500704776 0.00684414754 0.00930524941
v -0.00601480473 -0.00417770495 -0.0102405441
v 0.00534727107 0.00684724698 0.00911153432
v -0.00567458142 -0.00417460551 -0.0104342592
v 0.00569870006 0.00675938973 0.00896299954
v -0.00532315244 -0.00426246276 -0.010582794
v 0.00603737365 0.00658641705 0.00886953946
v -0.00498447885 -0.00443543544 -0.0106762541
v 0.00634016524 0.00634013066 0.00883771058
v 0.00551094543 0.00551091084 0.00977290745
v -0.00551090707 -0.00551094165 -0.00977288608
v 0.00600515232 0.000834445462 0.00854431489
v 0.00502009937 0.000685200901 0.00920002855
v 0.00429304138 0.00082045008 0.00947727114
v 0.00747495225 0.00461890792 0.0053312707
v 0.01072903 0.00561973736 0.00293203422
v 0.00697230889 0.00136872244 0.00764587879
v 0.00306893946 0.00124401104 0.00998478803
v 0.00525165236 0.007188392 0.00513604925
v 0.00686870529 0.00602161785 0.00513222483
v 0.00786217401 0.00365327973 0.00592373555
v 0.00754410495 0.0023467559 0.00657353445
v 0.0089919994 -0.00217423993 0.00830642547
v 0.00202928722 0.00749385458 0.00696948423
v 0.000912106747 0.011243068 0.00529677469
v 0.00631345553 0.0066187262 0.00510881913
v 0.00106553982 0.00347903496 0.00978671806
v 0.000752312344 0.00577255926 0.00867048362
v 0.000687975989 0.00500009904 0.00894344922
v 0.00214292113 0.00190652354 0.00996619324
v 0.00143053065 0.00694607148 0.00742734547
v -0.0018558694 0.00944170496 0.00787332089
v 0.00984428384 0.00541554467 -0.000500994942
v 0.0103743553 0.00678363448 0.00134443835
v 0.0112193061 0.0051306486 0.00179770196
v 0.0110584685 0.00201656768 0.00078532153
v 0.0117306182 0.00341916304 0.00247254978
v 0.0118856521 0.00171978886 0.00334137368
v 0.0108651824 -0.00125141441 0.00277641936
v 0.0116763651 0.000116891263 0.0043611307
v 0.011112759 -0.00132060192 0.00548779162
v 0.0104974368 -0.00227823153 0.00597618797
v 0.00877080384 -0.00359012576 0.00807968939
v 0.0070227279 -0.00551754449 0.00598244067
v 0.00496813721 -0.00556438078 0.00828030131
v 0.00327481691 -0.00543698726 0.00915925641
v 0.00155790864 -0.00496107064 0.00985366786
v -0.000671649527 -0.00490571772 0.00929340433
v 0.000840203085 -0.00298447617 0.0119497615
v -0.000610475993 -0.00198639052 0.0121660883
v -0.0019430353 -0.000345036397 0.012311579
v -0.00382994923 -0.00240297171 0.00942503765
v -0.00447594113 0.000588970127 0.0103046406
v -0.0030182272 0.00121552166 0.0120357762
v -0.00378456671 0.00288895591 0.0115219066
v -0.0054832833 0.00404110998 0.00898120189
v -0.00420991963 0.00460417495 0.0107929125
v -0.00427526999 0.00628381712 0.00988038622
v -0.00508684239 0.00727635961 0.00696748759
v -0.00397710674 0.00785154609 0.00882645948
v -0.00332905324 0.00923681044 0.00767773601
v -0.0029581788 0.00986282939 0.00668991643
v -0.00178001393 0.0105706299 0.00292206879
v -0.0011869531 0.0105719876 0.00153570183
v 0.00193722126 0.0118530381 0.00306438109
v 0.00362107724 0.0116382949 0.00222707086
v 0.00531075014 0.0110773397 0.00158246903
v 0.00731725626 0.0100086937 0.00124818592
v 0.00696053689 0.0101367415 0.00109952788
v 0.00820960596 0.00947311958 0.00140299425
v 0.00139699663 0.000963475164 -0.0123529839
v 0.00507382067 -0.0083214187 -0.00154043231
v -0.00692603733 -0.0102746899 -0.0013194062
v -0.0050038501 -0.010068195 0.000387491269
v -0.00786742344 -0.00959848156 -0.00117054641
v -0.00720342571 -0.00837507626 0.000983247976
v -0.00913178122 0.00338065941 -0.00777568986
v -0.00107145195 0.0029268143 -0.0120650242
v -0.00101193403 0.00467537439 -0.010185554
v -3.18628711e-05 0.00223958789 -0.0122654827
v 0.00202090439 0.00394060747 -0.00957008298
v -0.00198507413 0.00328165249 -0.0119488887
v -0.00431905864 0.00434491411 -0.0107045846
v -0.00597038864 0.00445948348 -0.0098122852
v -0.00752258006 0.00422503805 -0.00877784342
v -0.00891126419 0.00364898011 -0.00765075809
v -0.00998730389 0.00280202875 -0.0066880352
v -0.0088723085 0.00437412674 -0.00344816758
v -0.0107628133 0.0018513237 -0.00603076744
v -0.0109108705 0.00166226021 -0.00552332438
v -0.00974436015 0.00312509881 -0.00227411592
v -0.0114762397 0.000500650077 -0.00486688115
v -0.0115313214 0.00027505494 -0.0043926824
v -0.0102912169 0.00165908436 -0.00115386858
v -0.0118402804 -0.0010473932 -0.00378735688
v -0.0118085068 -0.00128406525 -0.00335860512
v -0.0104918312 3.55746209e-05 -0.000140745186
v -0.0118376542 -0.00271909045 -0.00284280001
v -0.0117312853 -0.00294930223 -0.00246366527
v -0.0103351212 -0.00167701576 0.000728439144
v -0.0114691329 -0.0044393367 -0.00207532947
v -0.0113038761 -0.00464656075 -0.00174924072
v -0.00982823176 -0.00340539402 0.00141335563
v -0.010672343 -0.00609185711 -0.00132233739
v -0.00899143302 -0.00507750295 0.00188577636
v -0.0101113444 -0.00719224007 -0.00127635739
v -0.00959597165 -0.00773680198 -0.0010134583
v -0.00786221103 -0.00659424078 0.00214616363
v -0.00877595122 -0.00877475255 -0.00112376935
v -0.00616040167 -0.0108079927 -0.00164877954
v -0.00347613056 -0.0116354361 -0.00217493177
v -0.00356693626 -0.0116932497 -0.00241362137
v -0.00179279121 -0.0118193563 -0.00299321645
v -0.0018639844 -0.0118793646 -0.00326902871
v -0.00019083218 -0.0116542704 -0.00396592796
v -0.000249051424 -0.0117002299 -0.00428064641
v 0.00126074282 -0.0111463123 -0.0050474366
v 0.00120545572 -0.0111638629 -0.00540340449
v 0.00284304729 -0.00994374281 -0.00673601265
v 0.00498790764 -0.00821608811 -0.00417352641
v 0.00335077879 -0.00915697665 -0.00778214831
v 0.00369386604 -0.00873825615 -0.00789427962
v 0.00576859923 -0.00692096715 -0.00536135423
v 0.00422874989 -0.00730437958 -0.00900657896
v 0.00622059795 -0.00541976496 -0.00647672524
v 0.00441765262 -0.00571379102 -0.0100104955
v 0.00632175216 -0.00377797093 -0.00747640933
v 0.00416170064 -0.00447052667 -0.0108760683
v 0.00425119808 -0.00403132609 -0.010866093
v 0.00607260053 -0.00205789451 -0.00830980121
v 0.00370778385 -0.00274637716 -0.0115867486
v 0.00373849015 -0.00234251333 -0.0115316164
v 0.00547848709 -0.000338982835 -0.00894794595
v 0.00301801715 -0.000934637804 -0.0119474025
v 0.00456542886 0.00130916136 -0.00936111263
v 0.00224025289 0.000174927612 -0.0121801456
v 0.000857349717 0.00557626375 -0.00850189528
v -0.00463106058 -0.00869929386 0.00264320368
v 0.0028266834 0.00626586052 -0.00675298654
v -0.00648282041 -0.00716783156 0.00296665307
v -0.00434759156 -0.00710982211 0.00483715559
v -0.00361490796 -0.0056881954 0.00684278308
v -0.00367174638 0.00943295706 0.00322956592
v 0.00933951467 -0.00324960827 0.00765202389
v 0.00473806437 0.00681758817 -0.00489122097
v 0.00829504378 0.008978943 0.000772794017
v -0.00260115127 0.00673927826 -0.00720544651
v -0.000611118799 0.00777166156 -0.00566414323
v 0.00139080188 0.0086413679 -0.00403074052
v 0.00466881793 0.00923037628 -0.00178801111
v 0.00297497215 0.00998599473 -0.00126288127
v -0.00590660976 0.00649196952 -0.00520321634
v -0.00403943063 0.0078838615 -0.00379177536
v -0.00209540665 0.0091127895 -0.00232896628
v 0.00124457625 0.0104084818 -0.000525328074
v -0.000452325148 0.0104755433 0.000383323874
v -0.00660487933 0.00681880467 -0.00123058508
v -0.00444958115 0.00848125388 -0.00069180082
v -0.00302940334 0.00983609309 0.00264078205
v -0.00739826834 0.00603560693 -0.000815451172
v -0.00563138144 0.0076435031 0.00373684734
v -0.0075783213 0.00568805414 0.00106536654
v -0.00752645416 0.00516579454 0.00291435547
v -0.00729698092 0.00455171893 0.00472742867
v -0.00906893823 0.00251224743 0.00207247455
v -0.00678575494 0.00303567188 0.0069897194
v -0.00786409295 0.00105219552 0.00546855461
v -0.00877789755 -0.00094998457 0.00386006581
v -0.00579454487 -0.000436418643 0.00838695824
v -0.00652398797 -0.00241677422 0.00666701958
v -0.00257679533 -0.0034159883 0.00969259671
v -0.00504110326 -0.0043502008 0.0068732607
v -0.00711077938 -0.00434698714 0.00483651739
v -0.00119434689 -0.0100285323 0.0014543617
v -0.00095185333 -0.00877766619 0.00386009084
v -0.000707486107 -0.00736208873 0.00617698984
v 0.00129412913 -0.00646451838 0.007786664
v 0.00216074188 -0.009961179 -0.000477314821
v 0.00250932249 -0.00907058278 0.00207056884
v 0.00279320623 -0.00801171413 0.00456747751
v 0.00493578753 -0.00621369939 0.00703754922
v 0.00569705562 -0.00759084991 0.00106704521
v 0.00517567084 -0.00754428584 0.00291611014
v 0.00916161071 -0.00334765067 0.00774038907
v 0.00243367682 -0.0102948104 -0.00658594493
v 0.010029812 -0.0026986753 0.006884824
v 0.0087681507 -0.00451913484 0.00352431718
v 0.0081524379 -0.00513678346 -7.3993901e-05
v 0.00703042317 -0.00625923493 -0.00206145851
v 0.00985157641 -0.00254700954 0.000754631393
v 0.00911214721 -0.00209469637 -0.00233136714
v 0.00799064221 -0.00321756991 -0.00431892676
v 0.0100986297 0.000758297929 -0.00124788769
v 0.00864107382 0.00139317781 -0.00403081424
v 0.00752010446 0.000269870673 -0.00601910377
v 0.00893611318 0.00421744048 -0.00254356278
v 0.00624566831 0.00282461661 -0.00669596457
v 0.00847293864 0.00712834248 -0.000918377679
v 0.00655918251 0.00725140599 -0.00291533507
v 0.00708030963 0.00432627359 -0.00483698779
v 0.00504659746 0.00435413303 -0.00688475523
v 0.00309892084 0.00298710264 -0.00963745023
v -0.00428740083 0.00285983453 -0.0113460295
v -0.00422201623 -0.000783220435 -0.00932847385
v -0.00780104927 -0.00393816061 -0.00578077261
v -0.00533634854 -0.00070208914 -0.00893280222
v -0.00667940603 -0.00105743942 -0.00778820086
v -0.00768198801 -0.00292726638 -0.00616839691
v -0.00753864745 -0.00495651978 -0.00537147535
v -0.00704709638 -0.00569928926 -0.00517314034
v -0.0046732535 -0.00753866443 -0.00526464352
v -0.00234670753 -0.00754407554 -0.00657353848
v -0.000694736845 0.00125424767 -0.0124577648
v -0.00299088138 -0.00126467077 -0.00975121617
v -0.0113200014 -0.00126364185 -0.00505518479
v -0.00680136142 -0.00603040776 -0.00508594501
v -0.0110327559 0.000134555555 -0.00598220809
v -0.000765835864 -0.00581713527 -0.00862702486
v -0.0010199355 -0.00639714351 -0.00796853427
v -0.00109254729 -0.00314128319 -0.00976350003
v 0.00292764487 -0.00414525879 -0.0114516509
v -0.00810663642 -0.0091498705 -0.00242012985
v 0.00297513646 -0.00522453444 -0.0108825554
v 0.00179495345 -0.00176300159 -0.0121689928
v 0.00218476783 -0.00249613872 -0.0119753969
v -1.08862312e-06 0.00048433254 -0.0124234433
v -0.00168753312 -0.00728416455 -0.00734151722
v 0.000262994871 -0.0107414876 -0.00624214534
v 0.00247900341 -0.00882726898 -0.00855639997
v 0.00081696044 -0.000387087966 -0.0123933447
v 0.00133730899 -0.00105728259 -0.0123088253
v 0.000125302682 0.00028518945 -0.00598723908
v 0.00115515719 -0.00123788467 -0.0057090414
v 0.00142111312 -0.00201763263 -0.00541936282
v 0.00152432144 -0.00311145965 -0.00486074041
v 0.00105092543 -0.00444711291 -0.0038405899
v -2.32543901e-05 -0.00529416801 -0.002757226
v -0.00117216577 -0.00548423877 -0.00200210933
v -0.00264227865 -0.00521614127 -0.00132438076
v -0.00467720621 -0.00358708158 -0.0010954559
v -0.00553707644 -0.00125852972 -0.00192368243
v -0.00484658669 0.000753564993 -0.00344763721
v -0.00253771921 0.00160737852 -0.00523106857
v -0.00345506883 -0.00333416507 -0.0019272403
v -0.00418570237 -0.0019513509 -0.00229496639
v 0.000298839471 -0.00233847517 -0.00460555555
v -6.39398468e-05 -0.00360578143 -0.00368626314
v -0.00148626809 -0.00431775107 -0.002482799
v -0.00167093743 9.69017498e-05 -0.00486813907
v -0.000790080229 -0.000408621145 -0.00507975843
v -0.00019143094 -0.00110651603 -0.0050238264
v -0.00406191734 -0.000544765118 -0.00315798719
v -0.00276992077 0.000294789444 -0.00435997025
v 0.00376737394 0.0029502065 0.00196767311
v 0.00425567969 0.000912844402 0.00284117283
v 0.00314254062 -0.000179777487 0.00408499034
v 0.00201640413 -0.000217840431 0.00474152069
v 0.000633557642 0.000512881401 0.00510927095
v -0.000280162725 0.00218600865 0.00468102501
v -8.12815568e-05 0.00333379159 0.00392163869
v 0.000544766629 0.00406191885 0.00315800455
v 0.00222750486 0.00413654283 0.00216699172
v 0.00270939923 -0.00156921439 0.00511277829
v 0.00444711952 -0.00105091882 0.00384061632
v -0.00157121608 0.0029068998 0.0050024903
v -0.0010162394 0.000920801281 0.00580949165
v -0.000172119035 -0.000172153617 0.00594986554
v 0.000786762188 -0.000939827387 0.00584197844
v 0.00241446799 0.00527062238 0.00142203508
v 0.000856516623 0.0054921702 0.00217570929
v -0.000224928751 0.0051523293 0.00297714348
v -0.000976868138 0.00454606695 0.00374303273
v 0.00543491783 0.000320000764 0.00251050144
v 0.00538899432 0.00195024857 0.0016170847
v 0.00480533735 0.00340336167 0.00112687861
v 0.00347234736 0.00469957242 0.00114763852
v 0.00197745922 4.61879472e-06 -0.0124370481
v 0.00316518888 -0.00205595925 -0.0120811964
v 0.00411643516 -0.00540579906 -0.0105926884
v 0.0041715868 -0.00622459334 -0.0100720236
v 0.00402893554 -0.00703920474 -0.00962232475
v 0.00389868124 -0.00780143003 -0.00902984476
v 0.003583212 -0.00853087058 -0.00852977161
v 0.00308168594 -0.00944897576 -0.00773567546
v -0.0112507312 -0.00542261567 -0.00205364743
v -0.0119279579 -0.00261454882 -0.00322990776
v -0.0117542552 -0.000375405455 -0.00447987441
v -0.0112212705 0.00107000718 -0.00559543495
v 0.00313331615 -0.00478114238 -0.0111842049
v 0.00319074612 -0.00601736349 -0.0105372754
v 0.00301669791 -0.00750737574 -0.00959515495
v 0.00175020169 -0.00992895753 -0.00750204203
v 0.000748711513 -0.0108744641 -0.00636683187
v -0.000328390885 -0.0111730887 -0.00565275296
v -0.000923495187 -0.0114165699 -0.00515495662
v -0.0017592403 -0.0114999588 -0.00465840356
v -0.00249187126 -0.0115395839 -0.00421904594
v -0.00327818713 -0.0114787559 -0.00381374244
v -0.00404320688 -0.0113549327 -0.00344838042
v -0.00484092319 -0.0111272579 -0.00313073592
v -0.00560097553 -0.0108462253 -0.002856853
v -0.00637220094 -0.010462531 -0.00264207806
v -0.0113390837 -0.00430129807 -0.00329449171
v -0.0116142922 -0.00192417587 -0.00448074236
v -0.0104764048 0.00101749245 -0.00680130944
v -0.010088258 0.00166739259 -0.00736053204
v -0.0095321646 0.00199757788 -0.007886395
v -0.00899337236 0.00251667417 -0.00845680217
v -0.00836639703 0.00267636555 -0.00892979568
v -0.00832031499 0.00304426985 -0.00905091038
v -0.00630250666 0.00327231677 -0.0104030628
v -0.00429828777 0.00308551255 -0.0114312544
v -0.0015959639 0.00196397674 -0.0123220737
v -0.00819334959 -0.0092989754 -0.00225124159
v 0.00038578044 0.000385745858 -0.0125485552
v -0.000399663299 0.0014371473 -0.0125954714
v 7.50847846e-05 0.00133728539 -0.0126305986
v -0.00013367368 0.00183158757 -0.0125724685
v 0.00104441176 0.00104437718 -0.0124976528
v -0.0101394903 -0.00711267193 -0.00236162021
v -0.00889433642 -0.00881236317 -0.00202564561
v -0.00961228689 -0.00817201956 -0.00166984509
v -0.00893381017 -0.00889920331 -0.00155893649
v -0.0100634153 -0.00742949815 -0.0014542581
v -0.0117473411 -0.00367178073 -0.00262497787
v 0.000343937979 0.0016888226 -0.0124660623
v -0.00349204664 0.00310380463 -0.0117915638
v -0.00261307883 0.00302758193 -0.0120757495
v -0.000404696359 0.00226996789 -0.0123715294
v -0.00119290818 0.00278101811 -0.0122153652
v -0.00253006652 0.00322065538 -0.0119874518
v -0.00282838796 0.00363660435 -0.0116728451
v -0.00602594857 0.0037157925 -0.0105458146
v -0.00428969198 0.00367960717 -0.0113603428
v -0.00370429028 0.00384138474 -0.0113971126
v -0.00455878247 0.00402377496 -0.0110181463
v -0.00757917963 0.00352631406 -0.00956331502
v -0.00505291994 0.004062369 -0.0108346996
v -0.00623569955 0.0041180695 -0.0101256264
v -0.00670670072 0.00405702695 -0.00989886051
v -0.00780723561 0.00384996781 -0.00908826713
v -0.010281856 0.00193744461 -0.00720256905
v -0.00979117684 0.0026279923 -0.00765473598
v -0.00823303232 0.00369236071 -0.0088325724
v -0.00920222272 0.00323151002 -0.00795291786
v -0.0112538441 0.000313794717 -0.00584143731
v -0.00980963908 0.00284204598 -0.00730406777
v -0.0103575992 0.00229071031 -0.00677083854
v -0.0116312303 -0.000244072416 -0.00514549274
v -0.0110199724 0.00136048347 -0.00606639898
v -0.0117836932 -0.00265463455 -0.00386876267
v -0.0116509797 -1.62102078e-05 -0.00493433717
v -0.0118643135 -0.00312041343 -0.00331528443
v -0.0119345184 -0.00157109287 -0.00389731118
v -0.0109127568 -0.00553275695 -0.00283991222
v -0.0110420527 -0.00585313625 -0.00207102544
v -0.0112004126 -0.0054314007 -0.00252927221
v -0.0108726967 -0.00586341732 -0.00262966322
v -0.0103177833 -0.00708974948 -0.00201081161
v -0.00673676583 -0.0104591492 -0.00230849137
v -0.00749177352 -0.010054864 -0.00193551225
v -0.00917766561 -0.00850428691 -0.00134896163
v -0.00850425233 -0.00917770019 -0.00134896163
v -0.00777874459 -0.0097912704 -0.00141202335
v -0.00573086682 -0.0110430234 -0.00249306402
v -0.00677117033 -0.0105442897 -0.00173587295
v -0.00275860596 -0.0117778791 -0.00381334392
v -0.00425749015 -0.0116319643 -0.00276502232
v -0.00545011033 -0.0112114107 -0.00219904308
v -0.0053283141 -0.0112026561 -0.00189589053
v -0.00452623834 -0.0115207588 -0.00227080707
v -0.00183906807 -0.0119033209 -0.00409242519
v -0.00367174615 -0.0117473756 -0.00262497787
v -0.00258745073 -0.011932191 -0.00331247832
v -0.000462171334 -0.0114985894 -0.00526057636
v -0.00198016633 -0.0119322692 -0.00347458248
v -0.000955791049 -0.0118711167 -0.00426710984
v 0.00106021593 -0.0110530601 -0.00620694876
v -0.000375370874 -0.0117541706 -0.00447987441
v 0.000541325111 -0.0114523465 -0.00534743551
v 0.00243493633 -0.00952698807 -0.00801115981
v 0.00107004176 -0.011221305 -0.00559543495
v 0.00183763688 -0.0106305472 -0.00664005281
v 0.00176954011 -0.0108133478 -0.00611827047
v 0.0027434947 -0.00956418287 -0.00787867338
v 0.00229074489 -0.0103576337 -0.00677083854
v 0.00346540474 -0.00680010849 -0.0101300775
v 0.00356725158 -0.00755134203 -0.00959543974
v 0.00379133613 -0.00752620297 -0.00950904813
v 0.00336041945 -0.00420385477 -0.0114782314
v 0.00367395928 -0.00514753369 -0.0109990141
v 0.00389671215 -0.0050799154 -0.0109309037
v 0.00384774821 -0.00399174879 -0.0113493042
v 0.00292516094 -0.00320068983 -0.0118934834
v 0.00227052015 -0.00196017102 -0.0122619045
v 0.00240283845 -0.000937840122 -0.0124413609
v 0.00221445107 -0.00108306132 -0.0124797101
v 0.00141501654 -0.000582241398 -0.0125366779
v 0.00888995745 0.00885798745 0.00144804439
v 0.00744945428 0.0100813159 0.00157056895
v 0.0062458593 0.0108335641 0.00176919962
v 0.00587995629 0.0110135714 0.00193952096
v 0.00505691292 0.0113666396 0.0021975706
v 0.00418877289 0.0116432252 0.00243908946
v 0.0033582053 0.0118300213 0.00289421275
v 0.00248953291 0.011933331 0.00323320738
v 0.00168620943 0.0119371917 0.00377660127
v 0.000855252916 0.0118631315 0.0041934128
v 8.61458925e-05 0.0116936025 0.00472214015
v -0.000607424926 0.0114240777 0.005359665
v -0.000927239787 0.0113143541 0.00538049942
v -0.00186749182 0.0107492544 0.00618363438
v -0.00246319137 0.0101368065 0.00712347937
v -0.00293864819 0.00955340475 0.00772574047
v -0.00333132002 0.00891519957 0.00830757516
v -0.00364174645 0.00822095168 0.00887402938
v -0.00386607628 0.0074784076 0.00941913592
v -0.00400205891 0.00669548779 0.00993714276
v -0.0040478421 0.00588197699 0.0104215132
v -0.00400307841 0.005046066 0.0108675163
v -0.00386761631 0.0041977689 0.0112701215
v -0.00364426581 0.00334713274 0.0116236644
v -0.00333454871 0.00250289137 0.0119251361
v -0.00294245772 0.00167496555 0.0121708762
v -0.0024720763 0.00087317929 0.0123581057
v -0.0019298631 0.000106555856 0.0124842628
v -0.00105628303 -0.000972500721 0.0125456713
v -0.000365363381 -0.00162509436 0.0125156386
v 0.000384752233 -0.00221159423 0.0124254022
v 0.000836476418 -0.00244840256 0.0123653099
v 0.00202362526 -0.0031824395 0.0120531854
v 0.00244005033 -0.00329854397 0.0119498556
v 0.00322175528 -0.00367958918 0.0116250567
v 0.00407417495 -0.00391313874 0.0112760231
v 0.00492469306 -0.00405868042 0.0108780599
v 0.00576359271 -0.00411426842 0.0104358759
v 0.00658136969 -0.00407942803 0.00995462249
v 0.00736881512 -0.00395475143 0.00943964323
v 0.00811751889 -0.00374147596 0.00889678637
v 0.00885010824 -0.00336311656 0.00836463264
v 0.010093232 -0.00250385155 0.00717121977
v 0.0106102485 -0.00195119825 0.00657341658
v 0.0110427501 -0.00134382628 0.00598735343
v 0.0113945967 -0.000677352845 0.00541263606
v 0.0116624637 4.26038783e-05 0.00485582692
v 0.011842854 0.000806366604 0.00432338619
v 0.0119336945 0.00160543616 0.00382131854
v 0.0119340986 0.00243146158 0.00335549751
v 0.0118440168 0.00327470354 0.00293095872
v 0.0117072067 0.00408083905 0.00285999812
v 0.0114588553 0.00491923661 0.00252722486
v 0.0111266839 0.00574773205 0.00224731481
v 0.0107133136 0.00655938254 0.00202280408
v 0.0102269827 0.00733805178 0.00185752915
v 0.00947757548 0.00811310243 0.00127767309
v 0.00967863897 0.00800606705 0.0018850537
v 0.00955015338 -0.00273958448 0.00788302292
v -0.00175955559 0.0105990812 0.00673916557
v -0.00116126333 0.0110245322 0.00616146083
v 0.011803511 0.00269530736 0.0037553065
v 0.0118079032 0.00189871273 0.00420215454
v 0.0117251695 0.00112664223 0.0046839996
v 0.011556151 0.000388640658 0.00519556362
v 0.011302837 -0.000306801895 0.00573055403
v 0.0109679908 -0.000952576391 0.00628357219
v 0.0105553764 -0.00154093563 0.00684806629
v 0.0100699174 -0.00206519807 0.00741755188
v 0.00890270625 -0.0028988257 0.00854558159
v 0.00823472542 -0.00319811376 0.00909111206
v 0.00751898941 -0.00341522767 0.00961710282
v 0.0067650601 -0.00354698464 0.010116387
v 0.005981591 -0.00359135371 0.0105834918
v 0.00517681198 -0.00354872161 0.0110133943
v 0.00435992396 -0.00341933909 0.0114011197
v 0.00353933138 -0.00320478211 0.0117426813
v 0.00272594349 -0.00290736602 0.0120335293
v 0.00192863741 -0.00253040244 0.0122706
v 0.00115617671 -0.00207803579 0.0124511798
v 0.00041585079 -0.00155523849 0.0125736019
v -0.000281889281 -0.000968554548 0.0126361419
v -0.000929381743 -0.000324504516 0.0126380668
v -0.00152000558 0.00037029789 0.0125793557
v -0.00204626719 0.00110711329 0.0124608991
v -0.00250378781 0.00187871786 0.0122837641
v -0.00288566534 0.00267468831 0.0120502599
v -0.00318849013 0.00348739756 0.0117626835
v -0.00340781628 0.00430650562 0.011424871
v -0.00354298134 0.00512463488 0.0110396272
v -0.00359144498 0.00593070637 0.0106120717
v -0.0035524713 0.00671635308 0.0101468729
v -0.00342626739 0.00747198324 0.00964976849
v -0.00321479552 0.00819026643 0.00912538846
v -0.00292028758 0.00886163818 0.00858082324
v -0.00254606463 0.0094800088 0.00802104418
v -0.00209648454 0.0100371661 0.00745328733
v -0.000349378176 0.0112842414 0.00576477006
v 0.000343195563 0.0115425711 0.00522879368
v 0.00107838019 0.0117167311 0.00471630757
v 0.0018483582 0.0118050932 0.00423222334
v 0.00264390828 0.0118063124 0.00378274523
v 0.0034567008 0.0117202186 0.00337296554
v 0.00427524942 0.0115480179 0.00300882305
v 0.00509380346 0.0112914047 0.00269170414
v 0.00590039237 0.0109535756 0.00242730907
v 0.00668617106 0.0105385008 0.00221855511
v 0.00744391086 0.0100501214 0.00206648617
v 0.00816400751 0.00949439676 0.00197352174
v 0.0088373246 0.00887823276 0.00194140836
v 0.00934266281 0.00819009331 0.00218964406
v 0.00946075241 -0.00228125685 0.00802798555
v -0.00141089061 0.0103925708 0.007011571
v -0.000844146083 0.0108030637 0.00646068311
v 0.00986673366 0.00740025887 0.00237668629
v 0.0103380872 0.00667343984 0.00252069112
v 0.0107395841 0.00591824899 0.00272012826
v 0.0110668136 0.0051433886 0.00297261353
v 0.0113158418 0.00435756097 0.00327528592
v 0.0114840461 0.00356958756 0.00362480755
v 0.0115693999 0.0027885283 0.00401712533
v 0.0115332594 0.00217101123 0.00440654258
v 0.0114001207 0.00103800244 0.00512208075
v 0.0110835604 4.98362754e-05 0.00585629812
v 0.0107534124 -0.000712410117 0.00645137902
v 0.0103546573 -0.00127603164 0.00699401971
v 0.00988580714 -0.00177790275 0.00754142876
v 0.00876011382 -0.00257434001 0.00862527962
v 0.00811602603 -0.00285996547 0.00914956208
v 0.00742735396 -0.0030657207 0.00965405579
v 0.00670172702 -0.00318957915 0.0101330387
v 0.00594748984 -0.0032299911 0.0105811464
v 0.0051731063 -0.0031863605 0.0109931337
v 0.00438751708 -0.00305940261 0.0113645899
v 0.00374053727 -0.00283530247 0.0116238873
v 0.00281800757 -0.00256194224 0.0119691002
v 0.00205184947 -0.00219704261 0.0121953594
v 0.00130989085 -0.00176002135 0.0123673784
v 0.000745404213 -0.00129846431 0.0124462186
v 7.3731724e-05 -0.000746054986 0.0125134908
v -0.000512234529 -0.000166130996 0.0125203358
v -0.00125561227 0.00060032258 0.0124831307
v -0.00175998677 0.00130985627 0.0123673784
v -0.00229584105 0.00235584937 0.0121020222
v -0.0027532113 0.00348191865 0.0117234689
v -0.00295445355 0.00422197747 0.0114231511
v -0.00318644513 0.00517319093 0.0109931337
v -0.00322995652 0.00594745526 0.0105811464
v -0.00310109819 0.00696996596 0.00995417749
v -0.00284420481 0.00798592639 0.00923493557
v -0.00257430543 0.00876019845 0.00862527962
v -0.00221226682 0.00935231099 0.0080872881
v -0.00177786817 0.00988589177 0.00754142876
v -9.34409043e-05 0.0110777462 0.00591946717
v 0.000574011908 0.0113237942 0.00540436383
v 0.0012822343 0.0114887799 0.00491191025
v 0.00192261252 0.0115197183 0.00455428703
v 0.00263885937 0.0115265004 0.0041500235
v 0.00345139621 0.011461146 0.00372519977
v 0.00510734472 0.0079083172 0.00523500317
v 0.00543489953 0.0109204005 0.00291313628
v 0.0065410339 0.0103740991 0.00259590674
v 0.00740029346 0.00986669907 0.00237668629
v 0.00809063445 0.00933085332 0.0022895443
v 0.00873651038 0.00873659501 0.00226045724
f 1 2 3
f 3 2 4
f 3 4 5
f 5 4 6
f 5 6 7
f 7 6 8
f 7 8 9
f 9 8 10
f 9 10 11
f 11 10 12
f 11 12 13
f 13 12 14
f 13 14 15
f 15 14 16
f 15 16 17
f 17 16 18
f 17 18 19
f 19 18 20
f 19 20 21
f 21 20 22
f 21 22 23
f 23 22 24
f 23 24 25
f 25 24 26
f 25 26 27
f 27 26 28
f 27 28 29
f 29 28 30
f 29 30 31
f 31 30 32
f 31 32 33
f 33 32 34
f 33 34 35
f 35 34 36
f 35 36 37
f 37 36 38
f 37 38 39
f 39 38 40
f 39 40 41
f 41 40 42
f 41 42 43
f 43 42 44
f 43 44 45
f 45 44 46
f 45 46 47
f 47 46 48
f 47 48 1
f 1 48 2
f 28 26 49
f 49 26 24
f 49 24 22
f 34 32 49
f 49 32 30
f 49 30 28
f 40 38 49
f 49 38 36
f 49 36 34
f 46 44 49
f 49 44 42
f 49 42 40
f 4 2 49
f 49 2 48
f 49 48 46
f 10 8 49
f 49 8 6
f 49 6 4
f 16 14 49
f 49 14 12
f 49 12 10
f 22 20 49
f 49 20 18
f 49 18 16
f 21 23 50
f 50 23 25
f 50 25 27
f 15 17 50
f 50 17 19
f 50 19 21
f 9 11 50
f 50 11 13
f 50 13 15
f 3 5 50
f 50 5 7
f 50 7 9
f 45 47 50
f 50 47 1
f 50 1 3
f 39 41 50
f 50 41 43
f 50 43 45
f 33 35 50
f 50 35 37
f 50 37 39
f 27 29 50
f 50 29 31
f 50 31 33
f 60 55 54
f 597 596 595
f 58 598 597
f 54 55 59
f 60 61 559
f 61 560 559
f 61 56 561
f 61 561 560
f 51 62 56
f 64 63 597
f 64 597 594
f 594 597 595
f 58 65 599
f 58 599 598
f 68 583 66
f 66 583 582
f 66 582 581
f 68 67 583
f 69 66 578
f 69 578 577
f 69 577 576
f 70 71 67
f 67 71 587
f 67 587 586
f 70 63 71
f 118 121 371
f 118 371 122
f 122 377 123
f 123 379 124
f 124 383 125
f 113 149 409
f 113 409 150
f 150 151 152
f 152 153 154
f 154 155 156
f 156 157 423
f 117 121 118
f 112 149 113
f 119 117 118
f 114 112 113
f 120 119 118
f 120 118 176
f 115 114 113
f 115 113 177
f 110 119 241
f 241 119 120
f 120 176 178
f 148 114 115
f 179 115 177
f 179 177 180
f 241 120 240
f 240 120 178
f 240 178 184
f 118 122 186
f 118 186 176
f 176 186 187
f 176 187 178
f 178 187 188
f 178 188 184
f 184 188 189
f 184 189 238
f 238 189 108
f 238 108 185
f 185 108 107
f 185 107 109
f 122 123 186
f 188 190 189
f 189 190 106
f 189 106 440
f 189 440 108
f 123 124 191
f 123 191 186
f 186 191 192
f 186 192 187
f 187 192 193
f 187 193 188
f 188 193 194
f 188 194 190
f 190 194 105
f 190 105 443
f 190 443 106
f 124 125 191
f 193 195 194
f 194 195 104
f 194 104 445
f 194 445 105
f 125 196 191
f 191 196 197
f 191 197 192
f 192 197 193
f 193 197 103
f 193 103 195
f 195 103 447
f 195 447 104
f 103 448 447
f 197 196 198
f 197 198 102
f 197 102 103
f 103 102 450
f 103 450 448
f 196 182 198
f 102 198 450
f 101 182 200
f 200 182 196
f 199 196 127
f 127 196 126
f 126 196 125
f 126 125 386
f 386 125 116
f 101 451 182
f 182 451 198
f 198 451 450
f 201 200 196
f 201 196 199
f 98 100 101
f 98 101 200
f 201 199 130
f 130 199 127
f 130 127 129
f 129 127 128
f 128 127 126
f 99 100 98
f 202 200 201
f 203 98 200
f 203 200 202
f 204 202 201
f 204 201 133
f 133 201 130
f 133 130 132
f 132 130 131
f 131 130 129
f 97 99 98
f 203 202 204
f 95 97 98
f 95 98 205
f 205 98 203
f 136 204 133
f 136 133 135
f 135 133 134
f 134 133 132
f 96 97 95
f 206 205 203
f 206 203 204
f 207 206 204
f 207 204 139
f 139 204 136
f 139 136 138
f 138 136 137
f 137 136 135
f 94 96 95
f 92 94 95
f 92 95 208
f 208 95 205
f 208 205 206
f 142 207 139
f 142 139 141
f 141 139 140
f 140 139 138
f 93 94 92
f 209 208 206
f 209 206 207
f 212 209 207
f 212 207 144
f 144 207 142
f 144 142 143
f 143 142 141
f 90 93 92
f 144 143 145
f 91 90 92
f 91 92 208
f 91 208 209
f 147 212 144
f 147 144 146
f 146 144 145
f 89 90 210
f 210 90 91
f 211 91 209
f 211 209 212
f 146 148 147
f 147 148 115
f 147 115 179
f 147 179 212
f 212 179 180
f 212 180 211
f 211 180 181
f 211 181 91
f 91 181 210
f 113 150 213
f 113 213 177
f 177 213 214
f 177 214 180
f 180 214 215
f 180 215 181
f 181 215 87
f 181 87 210
f 210 87 89
f 89 467 466
f 87 88 89
f 89 88 468
f 89 468 467
f 150 152 213
f 215 216 87
f 216 86 87
f 87 86 470
f 87 470 88
f 152 154 217
f 152 217 213
f 213 217 218
f 213 218 214
f 214 218 219
f 214 219 215
f 215 219 216
f 86 472 470
f 216 85 86
f 86 85 473
f 86 473 472
f 154 156 217
f 219 220 216
f 216 220 85
f 85 474 473
f 220 84 85
f 85 84 475
f 85 475 474
f 423 111 156
f 156 111 221
f 156 221 217
f 217 221 222
f 217 222 218
f 218 222 219
f 219 222 220
f 84 476 475
f 84 220 477
f 84 477 476
f 222 221 83
f 222 83 220
f 220 83 478
f 220 478 477
f 83 82 478
f 111 226 221
f 221 226 183
f 221 183 83
f 83 183 223
f 83 223 82
f 227 226 111
f 227 111 228
f 228 111 159
f 159 111 158
f 158 111 224
f 224 111 423
f 81 225 226
f 226 225 183
f 78 80 81
f 78 81 229
f 229 81 226
f 229 226 227
f 162 228 159
f 162 159 161
f 161 159 160
f 160 159 158
f 79 80 78
f 230 229 227
f 230 227 231
f 231 227 228
f 231 228 164
f 164 228 162
f 164 162 163
f 163 162 321
f 321 162 161
f 77 79 78
f 75 77 78
f 75 78 232
f 232 78 229
f 232 229 230
f 166 231 164
f 166 164 165
f 165 164 319
f 319 164 163
f 76 77 75
f 233 232 230
f 233 230 234
f 234 230 231
f 234 231 169
f 169 231 166
f 169 166 168
f 168 166 167
f 167 166 165
f 74 76 75
f 72 74 75
f 72 75 235
f 235 75 232
f 235 232 233
f 172 234 169
f 172 169 171
f 171 169 170
f 170 169 168
f 73 74 72
f 239 235 233
f 239 233 236
f 236 233 234
f 236 234 174
f 174 234 172
f 174 172 173
f 173 172 171
f 494 73 72
f 174 173 175
f 237 494 72
f 237 72 238
f 238 72 235
f 238 235 239
f 240 239 236
f 240 236 241
f 241 236 174
f 241 174 175
f 175 110 241
f 239 240 184
f 239 184 238
f 237 238 185
f 237 185 494
f 245 242 243
f 245 246 350
f 250 339 340
f 250 340 341
f 250 337 338
f 250 338 339
f 251 335 250
f 250 335 336
f 250 336 337
f 243 242 253
f 253 242 252
f 246 348 350
f 244 254 247
f 246 346 347
f 246 347 348
f 246 344 345
f 246 345 346
f 247 254 246
f 246 254 256
f 246 256 344
f 341 261 250
f 250 261 255
f 251 333 335
f 259 260 262
f 259 262 257
f 259 263 264
f 259 264 260
f 253 252 265
f 253 265 259
f 251 266 267
f 251 267 333
f 257 268 258
f 258 268 266
f 257 262 329
f 257 329 330
f 259 265 269
f 259 269 270
f 259 270 263
f 271 259 272
f 272 259 273
f 273 259 274
f 274 259 257
f 274 257 275
f 275 257 258
f 275 258 266
f 275 266 276
f 276 266 251
f 276 251 277
f 277 251 250
f 277 250 278
f 278 250 279
f 279 250 255
f 279 255 249
f 279 249 248
f 279 248 280
f 280 248 244
f 280 244 247
f 280 247 281
f 281 247 246
f 281 246 282
f 282 246 245
f 282 245 243
f 282 243 253
f 282 253 271
f 271 253 259
f 287 278 283
f 283 278 279
f 283 279 284
f 285 274 286
f 286 274 275
f 286 275 287
f 287 275 276
f 287 276 277
f 287 277 278
f 292 282 288
f 288 282 289
f 289 282 271
f 289 271 290
f 290 271 285
f 285 271 272
f 285 272 273
f 285 273 274
f 279 280 284
f 284 280 291
f 291 280 281
f 291 281 292
f 292 281 282
f 293 289 290
f 293 290 285
f 293 285 294
f 294 285 286
f 294 286 295
f 295 286 287
f 295 287 296
f 296 287 297
f 297 287 283
f 297 283 298
f 298 283 284
f 298 284 291
f 298 291 299
f 299 291 300
f 300 291 292
f 300 292 301
f 301 292 288
f 301 288 289
f 301 289 293
f 296 302 295
f 295 302 303
f 295 303 294
f 294 303 312
f 298 304 305
f 298 305 297
f 297 305 306
f 297 306 307
f 297 307 296
f 296 307 302
f 301 308 309
f 301 309 300
f 300 309 310
f 300 310 311
f 300 311 299
f 299 311 298
f 298 311 304
f 294 312 313
f 294 313 293
f 293 313 314
f 293 314 301
f 301 314 315
f 301 315 308
f 65 314 59
f 59 314 54
f 54 314 313
f 54 313 60
f 60 313 312
f 60 312 61
f 61 312 56
f 56 312 303
f 56 303 51
f 51 303 302
f 51 302 52
f 52 302 53
f 53 302 57
f 57 302 307
f 57 307 69
f 69 307 306
f 69 306 305
f 69 305 66
f 66 305 304
f 66 304 68
f 68 304 67
f 67 304 311
f 67 311 70
f 70 311 63
f 63 311 310
f 63 310 309
f 63 309 597
f 597 309 308
f 597 308 58
f 58 308 315
f 58 315 65
f 65 315 314
f 175 173 317
f 168 167 432
f 167 165 318
f 319 163 320
f 321 161 322
f 161 160 323
f 160 158 323
f 145 143 324
f 138 137 325
f 137 135 325
f 135 134 393
f 134 132 326
f 132 131 391
f 131 129 327
f 129 128 389
f 328 262 260
f 331 266 268
f 332 267 266
f 353 261 341
f 342 244 248
f 343 254 244
f 351 242 245
f 352 252 242
f 252 352 355
f 354 265 252
f 354 252 355
f 255 261 359
f 359 261 353
f 359 353 360
f 365 119 110
f 242 351 352
f 352 351 366
f 352 366 355
f 355 366 367
f 355 367 356
f 356 367 357
f 357 365 358
f 358 365 110
f 357 368 365
f 365 368 119
f 369 117 119
f 367 370 357
f 357 370 369
f 357 369 368
f 368 369 119
f 370 121 369
f 369 121 117
f 245 350 351
f 351 350 372
f 351 372 366
f 366 372 373
f 366 373 367
f 367 373 370
f 370 373 371
f 370 371 121
f 374 122 371
f 373 374 371
f 375 377 122
f 348 349 350
f 350 349 376
f 350 376 372
f 372 377 373
f 373 377 375
f 373 375 374
f 374 375 122
f 378 379 123
f 348 347 349
f 376 379 372
f 372 379 378
f 372 378 377
f 377 378 123
f 380 383 124
f 346 345 381
f 346 381 347
f 347 381 382
f 347 382 349
f 349 382 383
f 349 383 376
f 376 383 380
f 376 380 379
f 379 380 124
f 384 116 125
f 344 256 385
f 344 385 345
f 345 385 381
f 382 384 383
f 383 384 125
f 382 386 384
f 384 386 116
f 128 126 387
f 254 343 256
f 256 343 385
f 385 388 381
f 381 388 389
f 381 389 382
f 382 389 387
f 382 387 386
f 386 387 126
f 387 389 128
f 343 390 385
f 385 390 388
f 388 391 389
f 389 391 327
f 389 327 129
f 327 391 131
f 244 342 343
f 343 342 390
f 390 392 388
f 388 392 393
f 388 393 391
f 391 393 326
f 391 326 132
f 326 393 134
f 342 396 390
f 390 396 392
f 392 325 393
f 393 325 135
f 396 324 392
f 392 324 364
f 392 364 325
f 325 364 138
f 143 141 324
f 395 324 396
f 397 396 394
f 394 396 342
f 394 342 248
f 324 141 140
f 324 140 364
f 364 140 138
f 397 394 248
f 363 145 324
f 363 324 361
f 361 324 395
f 361 395 398
f 398 395 396
f 398 396 359
f 359 396 397
f 359 397 249
f 249 397 248
f 362 363 361
f 361 398 360
f 360 398 359
f 255 359 249
f 353 341 399
f 353 399 360
f 360 399 400
f 360 400 361
f 361 400 362
f 362 401 363
f 363 401 146
f 363 146 145
f 402 114 148
f 401 148 146
f 341 340 399
f 362 402 401
f 401 402 148
f 340 339 404
f 340 404 399
f 399 404 400
f 400 404 405
f 400 405 362
f 362 405 403
f 362 403 402
f 402 403 114
f 405 112 114
f 339 338 404
f 403 405 114
f 338 337 406
f 338 406 404
f 404 406 407
f 404 407 408
f 404 408 405
f 405 408 149
f 405 149 112
f 337 336 406
f 408 407 409
f 408 409 149
f 410 150 409
f 336 335 406
f 406 411 407
f 407 410 409
f 412 151 150
f 333 334 335
f 335 334 406
f 411 413 407
f 407 413 412
f 407 412 410
f 410 412 150
f 413 152 151
f 334 333 414
f 334 414 406
f 406 414 411
f 412 413 151
f 415 153 152
f 267 332 333
f 333 332 414
f 411 416 413
f 413 416 415
f 413 415 152
f 416 154 153
f 414 332 417
f 414 417 411
f 411 417 416
f 415 416 153
f 418 155 154
f 266 331 332
f 417 419 416
f 416 419 418
f 416 418 154
f 419 156 155
f 331 420 332
f 332 420 417
f 418 419 155
f 421 157 156
f 331 268 420
f 417 422 419
f 419 422 421
f 419 421 156
f 420 424 417
f 417 424 422
f 422 423 421
f 421 423 157
f 158 224 425
f 425 224 423
f 257 330 268
f 268 330 420
f 422 424 425
f 422 425 423
f 330 426 420
f 420 426 427
f 420 427 424
f 424 323 425
f 425 323 158
f 330 329 426
f 427 428 424
f 424 428 323
f 428 322 323
f 323 322 161
f 262 328 329
f 329 328 426
f 428 321 322
f 328 260 429
f 328 429 426
f 426 429 430
f 426 430 427
f 427 430 428
f 428 320 321
f 321 320 163
f 260 433 429
f 430 431 428
f 428 431 319
f 428 319 320
f 430 429 431
f 431 318 319
f 319 318 165
f 429 433 432
f 429 432 431
f 431 432 318
f 318 432 167
f 433 317 432
f 173 171 317
f 435 317 436
f 436 317 433
f 436 433 434
f 264 433 260
f 317 171 170
f 317 170 432
f 432 170 168
f 434 433 263
f 263 433 264
f 316 175 317
f 316 317 435
f 437 436 434
f 270 434 263
f 110 175 316
f 437 434 269
f 269 434 270
f 358 110 316
f 358 316 357
f 357 316 435
f 357 435 356
f 356 435 436
f 356 436 355
f 355 436 437
f 355 437 354
f 354 437 265
f 265 437 269
f 109 107 439
f 439 107 108
f 439 108 440
f 441 440 442
f 440 106 442
f 442 106 443
f 443 105 444
f 444 105 445
f 445 104 446
f 446 104 447
f 448 450 449
f 452 451 101
f 452 101 100
f 452 100 453
f 453 100 454
f 454 100 99
f 454 99 455
f 455 99 456
f 456 99 97
f 456 97 457
f 457 97 458
f 458 97 96
f 458 96 459
f 459 96 460
f 460 96 94
f 460 94 461
f 461 94 462
f 462 94 93
f 462 93 463
f 463 93 464
f 464 93 90
f 464 90 465
f 90 466 465
f 90 89 466
f 469 468 88
f 469 88 470
f 471 470 472
f 478 82 479
f 479 82 183
f 82 223 183
f 183 225 480
f 480 225 81
f 480 81 481
f 481 81 80
f 481 80 482
f 482 80 483
f 483 80 79
f 483 79 484
f 484 79 485
f 485 79 77
f 485 77 486
f 486 77 487
f 487 77 76
f 487 76 488
f 488 76 489
f 489 76 74
f 489 74 490
f 490 74 491
f 491 74 73
f 491 73 492
f 492 73 493
f 493 73 494
f 438 494 185
f 438 185 109
f 438 495 494
f 494 495 493
f 480 496 183
f 183 496 479
f 452 497 451
f 451 497 498
f 451 498 450
f 450 498 449
f 488 489 499
f 488 499 487
f 487 499 500
f 487 500 486
f 486 500 501
f 486 501 485
f 485 501 502
f 485 502 484
f 484 502 503
f 484 503 483
f 483 503 504
f 483 504 482
f 482 504 505
f 482 505 481
f 481 505 506
f 481 506 480
f 480 506 496
f 496 507 479
f 479 507 508
f 479 508 478
f 478 508 509
f 478 509 477
f 477 509 510
f 477 510 476
f 476 510 511
f 476 511 475
f 475 511 512
f 475 512 474
f 474 512 513
f 474 513 473
f 473 513 514
f 473 514 472
f 472 514 515
f 472 515 471
f 471 515 516
f 471 516 470
f 470 516 517
f 470 517 469
f 469 517 518
f 469 518 468
f 468 518 519
f 468 519 467
f 467 519 520
f 467 520 466
f 466 520 521
f 466 521 465
f 465 521 522
f 465 522 464
f 464 522 523
f 464 523 463
f 463 523 524
f 463 524 462
f 462 524 525
f 462 525 461
f 461 525 526
f 461 526 460
f 460 526 527
f 460 527 459
f 459 527 528
f 459 528 458
f 458 528 529
f 458 529 457
f 457 529 530
f 457 530 456
f 456 530 531
f 456 531 455
f 455 531 532
f 455 532 454
f 454 532 533
f 454 533 453
f 453 533 534
f 453 534 452
f 452 534 497
f 498 535 449
f 449 535 536
f 449 536 448
f 448 536 537
f 448 537 447
f 447 537 538
f 447 538 446
f 446 538 539
f 446 539 445
f 445 539 540
f 445 540 444
f 444 540 541
f 444 541 443
f 443 541 542
f 443 542 442
f 442 542 543
f 442 543 441
f 441 543 544
f 441 544 440
f 440 544 545
f 440 545 439
f 439 545 546
f 439 546 109
f 109 546 547
f 109 547 438
f 438 547 495
f 547 548 495
f 506 549 496
f 496 549 507
f 534 550 497
f 497 550 551
f 497 551 498
f 498 551 535
f 548 552 495
f 495 552 553
f 495 553 493
f 493 553 554
f 493 554 492
f 492 554 555
f 492 555 491
f 491 555 556
f 491 556 490
f 490 556 557
f 490 557 489
f 489 557 558
f 489 558 499
f 499 558 559
f 499 559 500
f 500 559 560
f 500 560 501
f 501 560 502
f 502 560 561
f 502 561 503
f 503 561 562
f 503 562 504
f 504 562 563
f 504 563 505
f 505 563 564
f 505 564 506
f 506 564 549
f 549 565 507
f 507 565 566
f 507 566 508
f 508 566 567
f 508 567 509
f 509 567 568
f 509 568 510
f 510 568 569
f 510 569 511
f 511 569 570
f 511 570 512
f 512 570 571
f 512 571 513
f 513 571 572
f 513 572 514
f 514 572 573
f 514 573 515
f 515 573 574
f 515 574 516
f 516 574 575
f 516 575 517
f 517 575 576
f 517 576 518
f 518 576 577
f 518 577 519
f 519 577 578
f 519 578 520
f 520 578 579
f 520 579 521
f 521 579 580
f 521 580 522
f 522 580 581
f 522 581 523
f 523 581 524
f 524 581 582
f 524 582 525
f 525 582 583
f 525 583 526
f 526 583 584
f 526 584 527
f 527 584 585
f 527 585 528
f 528 585 586
f 528 586 529
f 529 586 530
f 530 586 587
f 530 587 531
f 531 587 588
f 531 588 532
f 532 588 589
f 532 589 533
f 533 589 590
f 533 590 534
f 534 590 550
f 551 591 535
f 535 591 592
f 535 592 536
f 536 592 593
f 536 593 537
f 537 593 594
f 537 594 538
f 538 594 595
f 538 595 539
f 539 595 596
f 539 596 540
f 540 596 597
f 540 597 541
f 541 597 598
f 541 598 542
f 542 598 543
f 543 598 599
f 543 599 544
f 544 599 600
f 544 600 545
f 545 600 601
f 545 601 546
f 546 601 602
f 546 602 547
f 547 602 548
f 602 59 548
f 548 59 552
f 552 59 55
f 552 55 553
f 553 55 554
f 554 55 555
f 555 55 556
f 556 55 60
f 556 60 557
f 557 60 558
f 558 60 559
f 562 561 56
f 562 56 563
f 563 56 564
f 564 56 62
f 564 62 549
f 549 62 565
f 565 62 51
f 565 51 566
f 566 51 567
f 567 51 52
f 567 52 568
f 568 52 569
f 569 52 570
f 570 52 53
f 570 53 571
f 571 53 57
f 571 57 572
f 573 572 57
f 573 57 574
f 574 57 575
f 575 57 69
f 575 69 576
f 579 578 66
f 579 66 580
f 580 66 581
f 584 583 67
f 584 67 585
f 585 67 586
f 588 587 71
f 588 71 589
f 589 71 590
f 590 71 63
f 590 63 550
f 550 63 551
f 551 63 64
f 551 64 591
f 591 64 592
f 592 64 593
f 593 64 594
f 600 599 65
f 600 65 601
f 601 65 602
f 602 65 59
