v -0.00890365346 -0.00385102313 0.00384154871
v -0.00910109044 -0.00372399164 0.00296003996
v -0.00978354219 -0.00423880825 0.000905296112
v -0.00426714139 -0.00817768658 0.0049582411
v -0.00390878916 -0.00946115265 0.00174322746
v -0.00954308462 -0.00394614133 0.00178102792
v -0.012021706 -0.000765416856 0.00307768298
v -0.00483718285 -0.00712278373 0.00564008715
v -0.00240210648 -0.00857919497 0.00867217825
v -0.00306087495 -0.00774182154 0.0092254418
v -0.00490881734 -0.00905390292 -0.000564376446
v -0.00109066927 -0.0106483874 0.00632469688
v -0.00978786061 -0.00444191418 0.000116213152
v -0.00653367997 -0.00776101423 -0.00159292044
v -0.00617410781 -0.00588561717 0.00602518723
v -0.00591180392 -0.00957517979 -0.00528644173
v -0.00505584241 -0.0102791913 -0.00481574358
v -0.00710644881 -0.00753522151 -0.00173064242
v -0.0092169177 -0.00541432032 -0.00122194845
v -0.000777980093 -0.00520665514 0.00993929358
v -0.00278422748 -0.00637262813 0.0103481588
v -0.00164877852 -0.00773592069 0.00963692568
v 0.001183097 -0.00785879243 0.00798936902
v -0.000705189226 -0.00901879149 0.0085775344
v 2.32496514e-06 -0.0101629346 0.00721852136
v 0.00220451475 -0.00991230362 0.00491966853
v 0.000442945807 -0.0111168702 0.00562062791
v 0.000596219141 -0.0118375833 0.00385609599
v 0.00079838465 -0.0119774301 0.00264345789
v -9.06509689e-05 -0.0124518251 -0.000204477539
v 0.00213252348 -0.0104078476 -0.00163678519
v 0.00130421695 -0.0101300004 -0.00335006288
v -0.00205825527 -0.0115365419 -0.00403520395
v -0.0032479877 -0.0107334094 -0.00526604434
v -0.00453429135 -0.00970656281 -0.00618886356
v -0.00433009299 -0.00706973593 -0.00744298933
v -0.00679547469 -0.00764326082 -0.00692892411
v -0.00814682047 -0.00654704858 -0.00679934352
v -0.00536444128 -0.00393834393 -0.00806063326
v -0.00825424542 -0.00318979151 -0.00694730148
v -0.00939427949 -0.00515894347 -0.00637022317
v -0.0104833228 -0.0038083954 -0.00556924516
v -0.0101696396 -0.000645075344 -0.00481623435
v -0.0113681502 -0.00255488848 -0.00443230299
v -0.0120098978 -0.00145083187 -0.003007483
v -0.0110952486 0.00126798798 -0.00162828877
v -0.0123779581 -0.000549035745 -0.00136094985
v -0.0124559728 0.000109631557 0.000431471918
v -0.0121703691 0.000650669235 0.00149594334
v -0.00994401932 0.0024067037 0.00433249651
v -0.00889489309 0.00286390468 0.00531303343
v -0.00990096036 1.30574812e-05 0.00745751058
v -0.00873790634 -0.00071897386 0.0087540008
v -0.00744654856 -0.0016801683 0.00975398277
v -0.0058992269 -0.00320847906 0.0104965723
v -0.00599940301 -0.00282114939 0.010414982
v -0.00536202379 -0.00409762123 0.010656618
v 0.00757286239 0.00714227945 0.00686371138
v 0.0083842232 -0.00501106883 -0.00140048114
v 0.00624841437 0.00289592722 -0.010385185
v 0.00555473414 0.000489481269 -0.00976973058
v 0.00538599021 0.00368285883 -0.0106225078
v 0.00334383 0.00217364641 -0.0103527383
v -5.48300331e-05 0.0124576026 -0.000290400392
v 0.005283984 0.00928379924 0.00641646847
v 0.00284944426 0.00853695239 0.00675367162
v 0.00619706034 0.00847275293 0.00672778519
v 0.00384099108 0.00576212192 0.00795102279
v 0.00469762679 0.00996507339 0.00601009245
v 0.00248184266 0.0111450366 0.00466194363
v 0.00136362118 0.0117932101 0.00329539624
v 0.00154349588 0.0119629776 0.00312824646
v 0.000435628358 0.0121825287 0.0017080094
v 0.000624088689 0.012355396 0.00149567143
v -0.000264716256 0.0122955115 -3.26448236e-05
v -0.000575210709 0.0122141621 -0.00167669082
v -0.00344977471 0.00979653941 -0.00137011442
v -0.000761540453 0.0118111834 -0.0034971942
v -0.00355026438 0.00931917139 -0.00323021887
v -0.000506614179 0.0114698996 -0.00488147999
v -0.000662844929 0.0111443548 -0.00526380718
v -0.00336599794 0.00858470296 -0.00499838603
v -0.000187883652 0.0106054094 -0.00656683734
v -0.000282692862 0.0102426406 -0.00688297655
v -0.00290584178 0.00762146713 -0.00660046711
v 0.000409686495 0.00952846177 -0.00804031565
v 0.000362353196 0.00914677685 -0.00828226375
v -0.00218543732 0.0064729958 -0.00796905678
v 0.00125799089 0.00828902618 -0.00923404184
v 0.001246657 0.00790314312 -0.00940317935
v -0.00123877868 0.00518369793 -0.00904467754
v 0.00218924158 0.00676915807 -0.0101064828
v -0.000107799744 0.00380706448 -0.00978072512
v 0.00339199379 0.00539894123 -0.0105810572
v 0.00419112483 0.0048639436 -0.0106826842
v 0.00114374366 0.00240564104 -0.0101430113
v 0.00453104123 0.0045294828 -0.0106941035
v 0.00705476966 0.0024090492 -0.0100952858
v 0.00874380757 0.000584318525 -0.00868356277
v 0.00987365191 -0.00015299968 -0.00737332065
v 0.0100718003 5.63906541e-05 -0.00733733274
v 0.0108274845 -0.00063635203 -0.0058249329
v 0.0110446308 -0.000406002602 -0.00575585933
v 0.0115637619 -0.000842745309 -0.00410902604
v 0.0117872588 -0.000581852608 -0.00400022397
v 0.0122245844 -0.000562331171 -0.00160254802
v 0.00996073267 -0.00324339118 -0.000245863333
v 0.0124713114 -3.67684139e-05 -0.000323219366
v 0.0123398244 -9.24836142e-05 0.000210814505
v 0.0100111486 -0.00267858231 0.00159122191
v 0.0123720074 0.000641683838 0.00147146577
v 0.0121713459 0.000638375283 0.00194902231
v 0.00977597012 -0.00186379056 0.00331931439
v 0.0119793823 0.00156161039 0.00311197955
v 0.011724167 0.00159313465 0.00351813332
v 0.00926156042 -0.000837969963 0.00486424401
v 0.0110177158 0.00273216448 0.00485274052
v 0.00848918792 0.000357892088 0.00616253266
v 0.0104005385 0.00394545706 0.00563944799
v 0.0100817838 0.00400520952 0.00589469052
v 0.00749474358 0.00167781053 0.00715650738
v 0.00913435723 0.00518339668 0.0065117403
v 0.00631463674 0.00306036666 0.0078054432
v 0.00826959155 0.00620026382 0.00682333732
v 0.00166140737 0.00638000681 0.00778764592
v 0.00324036536 -0.000827413607 -0.00963912437
v 0.000612090668 0.00405062082 0.0087222179
v 0.00141388416 0.00072883295 -0.0099837047
v 0.000786172632 -0.00197632246 -0.00939839744
v -0.0013045109 -0.0033779481 -0.00889574227
v -0.00271300464 -0.0054541768 -0.00818491723
v -0.00985968663 0.00324492249 0.00226954145
v 9.85748753e-05 -0.0124906826 0.000560420954
v -0.000430497944 0.00164909416 0.00948401122
v -0.00457990476 -0.00389782268 0.0106696356
v -0.000976845877 0.00836364841 0.00576219864
v -0.00213671437 0.00624593045 0.00701964243
v -0.00323361868 0.00401684733 0.00814022189
v -0.00415737092 0.000404793728 0.00963057779
v -0.00551412748 0.00149704727 0.00880538247
v -0.00301114697 0.00938727968 0.00263081327
v -0.00437802714 0.00754531397 0.00409370957
v -0.00564225397 0.00556549943 0.00548149306
v -0.00677565385 0.00238755239 0.00765250175
v -0.00788011487 0.00304745812 0.0062192208
v -0.0059735542 0.00745017721 0.000669237762
v -0.00689861797 0.00603200967 0.00286902564
v -0.00959210395 0.00327333577 0.0031905622
v -0.00590146989 0.00753234201 -0.000513454173
v -0.00945529432 0.00381945228 -0.000339371256
v -0.00690204213 0.00636429113 -0.00166636373
v -0.00769055266 0.00500145656 -0.00276889751
v -0.00834150659 0.00350731671 -0.00379951956
v -0.00568870409 0.005892763 -0.00507594706
v -0.00854925676 0.00127216222 -0.00542221179
v -0.00646359331 0.0024531758 -0.00671251309
v -0.00426305161 0.00356513681 -0.00787200535
v -0.00667057111 -0.00131295484 -0.00760862757
v -0.00436101172 -0.00025415906 -0.00858887733
v -0.00691083563 -0.00797735378 -0.00678448767
v -0.0060362196 -0.00536311937 -0.00763206304
v -0.0026869154 -0.00199605299 -0.00896518053
v -0.00197688106 0.000787564439 -0.00939820309
v 0.00592545728 -0.00290927369 -0.00778061479
v 0.00356415167 -0.0042618977 -0.00787314149
v 0.00114299226 -0.00551154562 -0.00782112786
v -0.00133658402 -0.00775993062 -0.00693994382
v 0.00805684216 -0.00406527981 -0.00476198922
v 0.00589109172 -0.00568921724 -0.00507708812
v 0.00362493493 -0.00718064812 -0.00530575121
v -4.66100956e-05 -0.00870460911 -0.0058649794
v 0.00111474438 -0.00941260612 -0.00450022218
v 0.00637551315 -0.00691243576 -0.0016694803
v 0.00501454526 -0.00770530326 -0.0027737263
v 6.20508121e-05 -0.0124471314 0.000345541822
v 0.0122653866 -0.000463021527 -0.0021507007
v 0.000387611382 -0.0123407967 0.00168330847
v 0.00347425587 -0.00981274428 0.00117852162
v 0.00603818026 -0.00725114294 0.0019532558
v 0.00779009483 -0.00549959106 0.0013862251
v 0.00413223921 -0.00826581063 0.00432736017
v 0.00556620344 -0.00564079049 0.00548211119
v 0.0073186041 -0.00388965408 0.00491526923
v 0.00310895222 -0.0062309354 0.00745859462
v 0.00401633967 -0.00323280647 0.00814080624
v 0.00576917623 -0.00148165697 0.00757450887
v 0.00112605808 -0.00359264521 0.00948350799
v 0.00401113331 0.000588302164 0.00868289776
v -0.00212722779 -0.00347174479 0.0103377837
v -0.00148652043 -0.000793921926 0.010063692
v 0.00198212628 -0.000771247321 0.0093661101
v 0.00269322437 0.00200034413 0.00897623758
v 0.00487526235 0.0047631996 0.00805902017
v 0.00399703025 0.00937424826 -0.0012678367
v 0.00378764901 0.00946899285 -0.0025554966
v 0.00380448335 0.00920458568 -0.00312450776
v 0.00385593553 0.0090235846 -0.00366911422
v 0.0011627117 0.0105035973 -0.00654992898
v 0.00424009694 0.00818272123 -0.0048993388
v 0.0046766134 0.00762446824 -0.00545985118
v 0.00744792394 0.00459227514 -0.00539174532
v 0.00827010635 0.00418656915 -0.00476332066
v 0.00893214446 0.00373500117 -0.00344930795
v 0.00937420367 0.00399707483 -0.0012678367
v 0.00481210716 0.00909083662 0.000379313246
v 0.0107281034 0.000974944267 -0.00639207893
v 0.0094223778 0.00382522439 -0.00252922122
v 0.0117521906 0.000747668017 -0.00396733107
v 0.0123326547 0.00107618972 -0.00115137782
v 0.00600635941 0.00604667672 -0.00615338988
v 0.00352415583 0.00718528934 -0.00951463354
v 0.00955300011 0.0043018556 -0.000706792049
v 0.0090368336 0.00507077776 0.000573291724
v 0.00136585563 0.0123562881 -0.000180975843
v 0.00630974192 0.00575992195 -0.00599443078
v 0.00815509745 0.00625574444 0.00148087349
v 0.0107234681 0.00455979007 0.00478121782
v 0.0100372457 0.00535641836 0.00499756514
v 0.00661549909 0.0077055295 0.00167446034
v 0.00451775349 0.010696991 0.0044432395
v 0.0026386404 0.0119085185 0.00237472235
v 0.0072805248 0.00833655976 0.00568950577
v 0.00882093505 0.00680127129 0.00577512785
v 0.00897830962 0.006583678 0.00551898657
v 0.00455617213 0.00285434069 0.00273527149
v 0.00575900549 0.00112298698 0.00109769594
v 0.00593254809 0.000434677366 -0.000496770143
v 0.00554573244 0.000274619971 -0.0021911834
v 0.00443455958 0.000817724449 -0.00395084692
v 0.00224551118 0.00269874531 -0.00490533285
v 0.000560529445 0.00483911385 -0.00349459136
v 0.000271815401 0.00576986245 -0.00150546186
v 0.00065876846 0.00592974028 0.000188483283
v 0.00132876872 0.00564085173 0.0013693112
v 0.00236901516 0.00494272554 0.00242914072
v 0.00442206852 0.001357426 -0.00231760712
v 0.00311954112 0.00230221465 -0.00342592732
v 0.00226468086 0.00317977594 -0.0033556682
v 0.00216247024 0.00462878804 0.000816745753
v 0.00356414642 0.00344328753 0.00148646378
v 0.00432676315 0.00255893396 0.00110943495
v 0.00150911393 0.00414654898 -0.00270143524
v 0.00131135255 0.00492000031 -0.000917859213
v 0.0047742975 0.00189778572 0.000447326085
v 0.00491553209 0.00137365678 -0.000738433956
v -0.00270884991 -0.00270880533 0.00343866526
v -0.00189794954 -0.0035975812 0.00319756657
v -0.00125806678 -0.00471244384 0.0017259676
v -0.00158398762 -0.00490639409 0.000115311164
v -0.00248860986 -0.00439773795 -0.0011114385
v -0.00412491343 -0.00284709533 -0.00137671784
v -0.00494641609 -0.00149186598 0.000276918651
v -0.00462042889 -0.00129798878 0.00188719022
v -0.00371596153 -0.00180655659 0.00311403471
v -0.00483919769 -0.000560468239 0.00349461012
v -0.00576965777 -0.000271809874 0.00150623686
v -0.00592738152 -0.000550163518 0.000155283795
v -0.00579733162 -0.00104258245 -0.000967404032
v -0.0011229752 -0.00575895466 -0.00109763509
v -0.000550208099 -0.00592733694 0.000155283795
v -0.000344452865 -0.00585986448 0.00100131212
v -0.000274667233 -0.00554571021 0.00219113022
v -0.00530141354 -0.00186253859 -0.00197129072
v -0.00485163689 -0.00245858503 -0.00242428602
v -0.00431412221 -0.00308681799 -0.00270550074
v -0.0031685549 -0.00425866091 -0.00278699866
v -0.00186258317 -0.00530136896 -0.00197129072
v -0.00067469249 -0.00467484738 0.00365000579
v -0.00135284425 -0.00374580694 0.00442702948
v -0.00212468251 -0.00285623614 0.00479155973
v -0.00311761857 -0.00189031435 0.00470824419
v -0.00374585152 -0.00135279966 0.00442702948
v 0.00848054691 0.00650646367 0.00665872588
v 0.0100671603 0.00484431148 0.005948268
v 0.0113988255 0.00277679472 0.00446533389
v 0.0120871687 0.00173329042 0.00304432093
v 0.0125748604 4.40561224e-05 -0.00070005909
v 0.00435859203 0.00503204988 -0.0106795293
v 0.00325785924 0.00609841955 -0.0104956316
v 0.00233889877 0.00746247727 -0.0099359255
v 0.000555743238 0.00986913523 -0.00786349544
v -0.000203905113 0.0111749046 -0.00578384222
v -0.000378665931 0.0119126909 -0.00403945269
v -0.000421106986 0.0121592057 -0.00309507367
v 0.0110682993 0.00406497763 0.00425948971
v 0.0115571739 0.0033735242 0.00370735302
v 0.0121297768 0.00238724078 0.00242920168
v 0.0125053426 0.0014106195 0.000545429746
v 0.0122563677 0.000562953198 -0.00285192926
v 0.0113372381 0.00070784415 -0.00531552497
v 0.0100329726 0.00129932768 -0.00745520456
v 0.00919884129 0.00189201819 -0.00828851053
v 0.00892627135 0.00194092252 -0.00872334004
v 0.00782251432 0.00293586851 -0.00932953487
v 0.00154553599 0.00961576672 -0.0079886306
v 0.000599418995 0.0114737411 -0.00516369732
v 0.000713240943 0.0124475568 -0.00179424433
v 0.00157348828 0.0124213602 0.000715738879
v 0.00230043095 0.0121540992 0.0022172757
v 0.00335094032 0.0115540255 0.00354438625
v 0.00442661585 0.0108088782 0.00463711161
v 0.00570468167 0.00979092474 0.0053743997
v 0.00556882366 0.00988331326 0.0056725978
v 0.00642086901 0.00407804293 -0.0100405247
v 0.00782710551 0.00782703089 0.00593609987
v 0.00747138473 0.00818677483 0.00604198313
v 0.0071097221 0.00837096953 0.00637998274
v 0.00665874927 0.00862363103 0.00653688763
v 0.00750881671 0.00750886129 0.00675327955
v 0.00492209434 0.00554310011 -0.0101396305
v 0.00573816913 0.00453870294 -0.0103607401
v 0.00531502742 0.00470703792 -0.0105319379
v 0.00552020887 0.00421857852 -0.0106381149
v 0.000979604714 0.00905512499 -0.00868432344
v 0.00682837009 0.00817333387 0.0067038077
v 0.00478306909 0.0104235612 0.00550376104
v 0.00613969802 0.00881432222 0.00655610739
v 0.00545066833 0.00942455458 0.00631184755
v 0.00312550043 0.0117062345 0.00375040942
v 0.00461172514 0.0103625475 0.0056411688
v 0.00402979264 0.0104939641 0.00557943761
v 0.0023994163 0.0120701597 0.00322091641
v 0.00274845149 0.0117285499 0.00404059058
v 0.00345820426 0.0110039585 0.00503237425
v 0.00284415721 0.0114267938 0.00443978487
v 0.00127970492 0.0125943815 0.000783641519
v 0.00249485421 0.0116185124 0.00411633044
v 0.00173336505 0.0120872133 0.00304432093
v 0.000728080219 0.0127000148 -5.96574348e-06
v 0.00121239133 0.0124469121 0.00191047293
v 0.000819864266 0.0124770276 0.00142224012
v 0.00036249612 0.0123882359 -0.00269661021
v 0.000461101481 0.0126410486 0.000185478411
v 0.000145020478 0.0125788324 -0.000353143824
v 6.74620441e-05 0.0122007125 -0.0035996263
v -0.000112407589 0.0124178323 -0.00268777456
v -0.000160821786 0.0124907669 -0.00126977319
v -0.000260529525 0.0123877399 -0.00220148386
v 0.000537478923 0.0111250731 -0.00606748735
v 0.000535337018 0.0106613887 -0.00691867857
v -0.000142657716 0.01149171 -0.00529260855
v 0.00161184116 0.00917127524 -0.00862108232
v 0.000231288539 0.0105943356 -0.00691359051
v 0.00145233812 0.00877748678 -0.00903805249
v 0.00268692016 0.00806699919 -0.00924496473
v 0.00280130289 0.0078108639 -0.00952106605
v 0.00374156474 0.00681136774 -0.00986759485
v 0.00355904669 0.00622351739 -0.0104440079
v 0.00311796364 0.00704453746 -0.0101228403
v 0.00390555246 0.00652490547 -0.0100837956
v 0.0050320053 0.00435863661 -0.0106795293
v 0.00810830371 0.00237891845 -0.00946866363
v 0.00699067287 0.0031645636 -0.010103897
v 0.00571757793 0.00370501207 -0.010580824
v 0.00640744209 0.00307844805 -0.0103846055
v 0.00755824691 0.00240723262 -0.00987687077
v 0.00773109717 0.00185650646 -0.00970892912
v 0.0106041458 0.000785523144 -0.00691399162
v 0.0100979537 0.000850067453 -0.00768944829
v 0.00947956237 0.000980451099 -0.00840324335
v 0.00842517852 0.00143073725 -0.00923793138
v 0.00905519962 0.000979530085 -0.00868432344
v 0.00936441228 0.000721084901 -0.00836355165
v 0.0102078342 0.000255691279 -0.00735573591
v 0.0121323424 0.000299040657 -0.00368603071
v 0.011878527 8.28251538e-05 -0.00455132745
v 0.0109596455 4.33693023e-05 -0.00631913306
v 0.01117486 -0.000203979741 -0.00578384222
v 0.0117704386 -0.00022342641 -0.00463116782
v 0.0119126463 -0.00037862135 -0.00403945269
v 0.0125926553 0.000691694562 -0.0010250786
v 0.0126319696 0.000259343792 -0.00129929705
v 0.0123718535 -9.61713427e-05 -0.00272088265
v 0.0121511797 -0.000431673752 -0.00310726196
v 0.0123878145 -0.000260484944 -0.00220148386
v 0.0126530608 0.000942715438 0.000126568976
v 0.0122996265 0.00194610618 0.00250334163
v 0.0124759671 0.00127946395 0.00188513774
v 0.0125750779 0.000705865211 0.000989731973
v 0.0117098655 0.00298950704 0.0039086465
v 0.0107481834 0.00441339922 0.00513281885
v 0.0118148373 0.00239998276 0.00377565512
v 0.0110242026 0.00359103985 0.00501750201
v 0.00994034688 0.00552450041 0.00547926642
v 0.00927824903 0.00593820162 0.00633176069
v 0.0083838129 0.00707970785 0.00635249792
v 0.00919274426 0.00631545276 0.00605099041
v -0.00475669379 -0.00478868297 0.0106786657
v -0.00612023251 -0.00348757532 0.0104868678
v -0.00712687848 -0.00253815801 0.0101130164
v -0.00746730076 -0.00233393231 0.00992106129
v -0.0081180582 -0.00180824875 0.009509632
v -0.00871606385 -0.00126138737 0.00902782578
v -0.00937461218 -0.000903299757 0.00842051596
v -0.0099109863 -0.000466571781 0.00778533845
v -0.0104870323 -0.000235866295 0.00704051252
v -0.0109344335 7.34664041e-05 0.00628330139
v -0.0113676054 0.000239924534 0.00545569499
v -0.0117768051 0.000254804584 0.0045656633
v -0.0118018994 0.000439400905 0.00428350634
v -0.012174733 0.000441863136 0.00297543871
v -0.012502901 9.72394574e-05 0.00179842539
v -0.0126031952 -0.000111460388 0.000861807865
v -0.0126272917 -0.00038085061 -4.68836949e-05
v -0.0125782345 -0.000715574186 -0.000932874476
v -0.0124566048 -0.00111212276 -0.00178551497
v -0.0122638402 -0.00156633757 -0.00259558045
v -0.0120021349 -0.00207256355 -0.00335331278
v -0.0116744277 -0.00262551182 -0.00405053816
v -0.0112842836 -0.00321827403 -0.00467954764
v -0.0108364066 -0.00384538569 -0.00523258117
v -0.0103357714 -0.00449789191 -0.00570377463
v -0.0097874648 -0.00517019618 -0.00608824813
v -0.00919889924 -0.00585320229 -0.00638070467
v -0.00857566786 -0.0065404596 -0.00657838736
v -0.00792530324 -0.00722325193 -0.0066789677
v -0.00622331057 -0.00881608854 -0.00655556263
v -0.00553409871 -0.00942850322 -0.0063171343
v -0.0052021804 -0.00976048537 -0.00610428778
v -0.00455757409 -0.0102963019 -0.00573160057
v -0.00385617945 -0.0107574287 -0.00533553886
v -0.00328055643 -0.01124383 -0.00473498068
v -0.00262656566 -0.011609647 -0.00416823309
v -0.00212693166 -0.0119737907 -0.00342207023
v -0.00155413675 -0.0122153474 -0.00272476454
v -0.0010928304 -0.01241644 -0.00192032697
v -0.000687497182 -0.0125467755 -0.00107193064
v -0.000412651958 -0.0126259399 -0.000133536967
v 8.34359228e-05 -0.012513619 0.00172385313
v 0.000214503641 -0.0123470201 0.00266424664
v 0.000275121314 -0.0121117385 0.00358077328
v 0.000262483163 -0.0118092261 0.00447984541
v 0.000177350178 -0.0114429338 0.0053497547
v 1.95886979e-05 -0.01101666 0.00618286056
v -0.000207452877 -0.0105357644 0.00696749471
v -0.000502733394 -0.010005536 0.00769604981
v -0.000862653524 -0.00943174698 0.00836026674
v -0.00128219789 -0.00882109603 0.00895207332
v -0.00175697913 -0.00818045931 0.00946509257
v -0.0024030222 -0.0077816983 0.00977554267
v -0.00295777167 -0.0071140265 0.0101258495
v -0.00355050469 -0.00643785658 0.0103845523
v -0.00394779735 -0.00531232359 0.0106523237
v -0.00420117095 -0.0058740945 0.0104485437
v -0.000354862738 -0.0126445091 0.000919147119
v -0.0073559312 -0.0080362117 -0.00649328906
v -0.0123902401 -3.14573526e-05 0.00270824011
v -0.0121583274 2.7333777e-05 0.00360951402
v -0.00174077462 -0.00894705442 0.00880957306
v -0.00133404887 -0.00953653098 0.00824392686
v -0.000983947264 -0.0100920057 0.00760733618
v -0.000696079018 -0.0106052822 0.00690884335
v -0.000472916646 -0.0110714758 0.00615532694
v -0.000317916637 -0.0114849366 0.00535568023
v -0.00023187255 -0.01184105 0.00451915066
v -0.000215738248 -0.0121363023 0.00365397934
v -0.000269987435 -0.0123664802 0.00277203727
v -0.000394165347 -0.0125298464 0.00188069372
v -0.00084585509 -0.0126474425 0.000117883807
v -0.00116823445 -0.0126008257 -0.000736635927
v -0.0015499575 -0.0124843708 -0.00155755486
v -0.00198718513 -0.0122991348 -0.00233870866
v -0.00247448964 -0.0120475587 -0.00306921497
v -0.00300696103 -0.0117321596 -0.00374230642
v -0.00357774613 -0.0113569719 -0.00434814287
v -0.00418118844 -0.0109258218 -0.00488161895
v -0.00481019847 -0.0104436531 -0.0053367411
v -0.00545779044 -0.00991573005 -0.00570792232
v -0.00611530207 -0.00934946166 -0.00598988725
v -0.00677777102 -0.00874878027 -0.00618149366
v -0.00808134777 -0.00747778439 -0.00628183446
v -0.00870991082 -0.00681937158 -0.00619042473
v -0.00931213095 -0.00615733146 -0.0060051195
v -0.00988096085 -0.00549929163 -0.00572818433
v -0.0104117526 -0.0048504302 -0.00536281525
v -0.0108962355 -0.00422111771 -0.00491352213
v -0.0113313382 -0.00361503439 -0.00438422335
v -0.0117099422 -0.00304255364 -0.00378268299
v -0.0120294007 -0.00250707254 -0.00311401782
v -0.01228508 -0.00201679667 -0.00238713015
v -0.0124746189 -0.00157595313 -0.00160925122
v -0.0125955702 -0.00119062495 -0.000789815343
v -0.0126465855 -0.000865010905 6.1753966e-05
v -0.0126272448 -0.000601766493 0.000936972932
v -0.0125377348 -0.00040481618 0.00182456854
v -0.0118619669 -0.000228216707 0.0044643497
v -0.0115094786 -0.000309958984 0.00530325997
v -0.0110993107 -0.000461021275 0.0061060383
v -0.0106367366 -0.000679515354 0.00686205021
v -0.0101256868 -0.000963450605 0.00756516934
v -0.00957346197 -0.00130936938 0.00820507799
v -0.00898556351 -0.00171319288 0.00877565187
v -0.00836842109 -0.00217066116 0.00927069793
v -0.00772980417 -0.00267592122 0.00968382644
v -0.00707494041 -0.00322434358 0.0100119195
v -0.00641466088 -0.00380840309 0.0102488549
v -0.00575349315 -0.00442273449 0.0103935755
v -0.00510099221 -0.00505917052 0.0104438069
v -0.00462282347 -0.00577457867 0.0102195412
v -0.00080121261 -0.0125430498 0.00108977106
v -0.0074549199 -0.00819095263 -0.00604061618
v -0.0123173701 -0.000514122068 0.00267863118
v -0.012100366 -0.000452909153 0.00354002851
v -0.00410646765 -0.00644371594 0.00993905245
v -0.00355898714 -0.00706687806 0.00971808177
v -0.00293606282 -0.00775743795 0.00943215071
v -0.00244873524 -0.00837220026 0.00903744875
v -0.00200766087 -0.00896598173 0.00856406866
v -0.0016178465 -0.00953222586 0.00801761328
v -0.00128358365 -0.0100644953 0.00740428148
v -0.00100880624 -0.0105567105 0.006730749
v -0.00087758753 -0.0109136392 0.00610460118
v -0.000735577273 -0.0112916928 0.00538561059
v -0.000629354921 -0.0116631687 0.00455158833
v -0.00364887047 -0.00988894533 0.00223629094
v -0.000648316217 -0.0121813045 0.002887722
v -0.000731525428 -0.0123953946 0.00189335524
v -0.00118778098 -0.0124769969 0.000289846711
v -0.0014944155 -0.0124321528 -0.000507930656
v -0.00185313025 -0.0123293231 -0.00131372428
v -0.00226724609 -0.0121547538 -0.00204263349
v -0.00273036332 -0.0119198662 -0.00276287117
v -0.00323267949 -0.0116238957 -0.00338891602
v -0.00378159351 -0.0112660258 -0.00399423055
v -0.00434528099 -0.0108650689 -0.00448497509
v -0.00499087334 -0.0103708632 -0.00503008188
v -0.00561350346 -0.00986243559 -0.00538389505
v -0.00624638558 -0.00931621863 -0.005652712
v -0.00688260556 -0.00873853041 -0.00583379091
v -0.008033632 -0.00762363823 -0.00587251451
v -0.00895747138 -0.00665383878 -0.005724479
v -0.00976247291 -0.00573582021 -0.00538000244
v -0.0107450582 -0.00450860501 -0.00462202562
v -0.0111406487 -0.00396434889 -0.00414903813
v -0.0115344875 -0.00337721177 -0.0035625338
v -0.0121002798 -0.00238587069 -0.00224421295
v -0.0122758231 -0.00198906116 -0.00154669464
v -0.0125042772 -0.0011696942 0.000198437558
v -0.0124835348 -0.000918877851 0.00103981672
v -0.0123953199 -0.000731600057 0.00189335524
v -0.0117396689 -0.000568640958 0.00442953287
v -0.0114381272 -0.000682339066 0.00508431134
v -0.0110698306 -0.000818256248 0.00581685211
v -0.0106183676 -0.00101790028 0.00658465765
v -0.0101590401 -0.00127406961 0.00722629363
v -0.00931879881 -0.00179849379 0.00819779349
v -0.00846891792 -0.00241295323 0.00892195899
v -0.00691285147 -0.00531454354 0.00630717039
v -0.00723879036 -0.00340774845 0.00965076114
v -0.00664639871 -0.00393354395 0.00986933054
v -0.00585824013 -0.00461794211 0.0101054448
v -0.00523072243 -0.00523067785 0.0101509827
v 0.00885325908 0.00885330366 -0.0013190967
v -0.00811475278 -0.00866378618 0.00419409453
v 0.00911969184 0.00857065843 -0.00136892618
v -0.00788253308 -0.00894321276 0.00404794394
v 0.00935191154 0.00829135107 -0.00151507677
v -0.00770038129 -0.0092003472 0.00381560503
v 0.00953406333 0.00803409742 -0.00174741568
v -0.00758069516 -0.00941778494 0.00351269423
v 0.00965374946 0.00781665968 -0.00205032648
v -0.00753158093 -0.00958062483 0.00315995394
v 0.00970286369 0.00765381979 -0.00240306677
v -0.00755661488 -0.00967789961 0.00278146444
v 0.00967782974 0.00755654501 -0.00278155626
v -0.00765377045 -0.00970281435 0.00240297495
v 0.00958067416 0.00753163027 -0.00316004576
v -0.00781672955 -0.00965381933 0.00205035387
v 0.00941783427 0.00758062529 -0.00351266683
v -0.0080341673 -0.00953413321 0.00174744307
v 0.00920027732 0.00770031141 -0.00381557764
v -0.00829130173 -0.00935198141 0.00151498495
v 0.00894314288 0.00788246321 -0.00404803575
v -0.00857072831 -0.00911976172 0.00136895357
v 0.00866371631 0.0081146829 -0.00419406713
v -0.00885325433 -0.00885320974 0.00131912409
v 0.00838119029 0.00838123487 -0.00424389662
v -0.00911968709 -0.00857068373 0.00136895357
v 0.00811475753 0.00866376089 -0.00419406713
v -0.00935190678 -0.00829125715 0.00151498495
v 0.00788253783 0.00894318746 -0.00404803575
v -0.00953405858 -0.00803412272 0.00174744307
v 0.00770038604 0.0092003219 -0.00381557764
v -0.0096537447 -0.00781668497 0.00205035387
v 0.00758069991 0.00941775965 -0.00351266683
v -0.00970285893 -0.00765384508 0.00240297495
v 0.00753158569 0.00958071875 -0.00316004576
v -0.00967794419 -0.0075565703 0.00278146444
v 0.00755661964 0.00967787432 -0.00278155626
v -0.00958066941 -0.00753165556 0.00315995394
v 0.00765377521 0.00970278906 -0.00240306677
v -0.00941782952 -0.00758065058 0.00351269423
v 0.00781673431 0.00965379404 -0.00205032648
v -0.00920039178 -0.00770033671 0.00381560503
v 0.00803417205 0.00953410791 -0.00174741568
v -0.00894313813 -0.0078824885 0.00404794394
v 0.00829130649 0.00935195612 -0.00151507677
v -0.00866371156 -0.0081147082 0.00419409453
v 0.00857073306 0.00911973642 -0.00136892618
v -0.00838118554 -0.00838126017 0.00424392401
v -0.00861721993 -0.00861717535 0.00278146444
v 0.00861722469 0.00861726927 -0.00278155626
f 515 514 513
f 1 7 2
f 2 7 6
f 1 543 542
f 4 9 8
f 8 9 10
f 8 10 505
f 5 516 515
f 11 523 522
f 11 522 521
f 548 545 1
f 1 545 544
f 1 544 543
f 513 512 515
f 515 512 12
f 515 12 4
f 521 520 11
f 11 520 519
f 11 519 5
f 5 519 518
f 537 536 3
f 3 536 13
f 13 535 534
f 505 504 8
f 8 504 15
f 548 546 545
f 548 547 546
f 15 550 549
f 15 549 548
f 11 525 524
f 11 524 523
f 18 16 14
f 14 16 11
f 11 16 17
f 11 17 525
f 18 19 530
f 19 531 530
f 534 533 13
f 13 533 19
f 19 532 531
f 66 69 321
f 66 321 70
f 70 327 71
f 71 72 73
f 73 74 75
f 61 98 357
f 61 357 99
f 99 363 100
f 100 101 102
f 102 103 104
f 104 105 374
f 65 69 66
f 60 98 61
f 67 65 66
f 62 60 61
f 68 67 66
f 68 66 125
f 63 62 61
f 63 61 126
f 58 67 193
f 193 67 68
f 68 125 127
f 97 62 63
f 128 63 126
f 128 126 129
f 193 68 192
f 192 68 127
f 192 127 134
f 66 70 136
f 66 136 125
f 125 136 137
f 125 137 127
f 127 137 138
f 127 138 134
f 134 138 139
f 134 139 190
f 190 139 56
f 190 56 135
f 135 56 55
f 135 55 57
f 70 71 136
f 138 140 139
f 139 140 54
f 139 54 390
f 139 390 56
f 71 73 141
f 71 141 136
f 136 141 142
f 136 142 137
f 137 142 143
f 137 143 138
f 138 143 144
f 138 144 140
f 140 144 53
f 140 53 393
f 140 393 54
f 73 75 141
f 143 145 144
f 144 145 52
f 144 52 395
f 144 395 53
f 75 146 141
f 141 146 147
f 141 147 142
f 142 147 143
f 143 147 51
f 143 51 145
f 145 51 397
f 145 397 52
f 51 398 397
f 147 146 148
f 147 148 50
f 147 50 51
f 51 50 400
f 51 400 398
f 146 132 148
f 50 148 400
f 49 132 150
f 150 132 146
f 149 146 77
f 77 146 76
f 76 146 75
f 76 75 337
f 337 75 64
f 49 401 132
f 132 401 148
f 148 401 400
f 151 150 146
f 151 146 149
f 46 48 49
f 46 49 150
f 151 149 79
f 79 149 77
f 79 77 78
f 78 77 284
f 284 77 76
f 47 48 46
f 152 150 151
f 153 46 150
f 153 150 152
f 154 152 151
f 154 151 82
f 82 151 79
f 82 79 81
f 81 79 80
f 80 79 78
f 45 47 46
f 153 152 154
f 43 45 46
f 43 46 155
f 155 46 153
f 85 154 82
f 85 82 84
f 84 82 83
f 83 82 81
f 44 45 43
f 156 155 153
f 156 153 154
f 157 156 154
f 157 154 88
f 88 154 85
f 88 85 87
f 87 85 86
f 86 85 84
f 42 44 43
f 40 42 43
f 40 43 158
f 158 43 155
f 158 155 156
f 91 157 88
f 91 88 90
f 90 88 89
f 89 88 87
f 41 42 40
f 159 158 156
f 159 156 157
f 163 159 157
f 163 157 93
f 93 157 91
f 93 91 92
f 92 91 90
f 38 41 40
f 93 92 279
f 39 38 40
f 39 40 158
f 39 158 159
f 96 163 93
f 96 93 94
f 94 93 279
f 160 38 161
f 161 38 39
f 162 39 159
f 162 159 163
f 96 94 95
f 95 97 96
f 96 97 63
f 96 63 128
f 96 128 163
f 163 128 129
f 163 129 162
f 162 129 130
f 162 130 39
f 39 130 131
f 39 131 161
f 161 131 37
f 161 37 160
f 61 99 164
f 61 164 126
f 126 164 165
f 126 165 129
f 129 165 166
f 129 166 130
f 130 166 131
f 131 36 37
f 37 36 160
f 36 417 160
f 99 100 164
f 166 167 131
f 131 167 35
f 131 35 36
f 36 35 418
f 36 418 417
f 100 102 168
f 100 168 164
f 164 168 169
f 164 169 165
f 165 169 170
f 165 170 166
f 166 170 171
f 166 171 167
f 167 171 34
f 167 34 421
f 167 421 35
f 102 104 168
f 170 172 171
f 171 172 33
f 171 33 423
f 171 423 34
f 374 59 104
f 104 59 173
f 104 173 168
f 168 173 174
f 168 174 169
f 169 174 170
f 170 174 32
f 170 32 172
f 172 32 425
f 172 425 33
f 32 426 425
f 174 173 31
f 174 31 32
f 32 31 427
f 32 427 426
f 31 30 427
f 59 178 173
f 173 178 133
f 173 133 31
f 31 133 175
f 31 175 30
f 179 178 59
f 179 59 180
f 180 59 107
f 107 59 106
f 106 59 176
f 176 59 374
f 29 177 178
f 178 177 133
f 26 28 29
f 26 29 181
f 181 29 178
f 181 178 179
f 110 180 107
f 110 107 109
f 109 107 108
f 108 107 106
f 27 28 26
f 182 181 179
f 182 179 183
f 183 179 180
f 183 180 113
f 113 180 110
f 113 110 112
f 112 110 111
f 111 110 109
f 25 27 26
f 23 25 26
f 23 26 184
f 184 26 181
f 184 181 182
f 116 183 113
f 116 113 115
f 115 113 114
f 114 113 112
f 24 25 23
f 185 184 182
f 185 182 186
f 186 182 183
f 186 183 118
f 118 183 116
f 118 116 117
f 117 116 275
f 275 116 115
f 22 24 23
f 20 22 23
f 20 23 187
f 187 23 184
f 187 184 185
f 121 186 118
f 121 118 120
f 120 118 119
f 119 118 117
f 21 22 20
f 191 187 185
f 191 185 188
f 188 185 186
f 188 186 123
f 123 186 121
f 123 121 122
f 122 121 120
f 443 21 20
f 123 122 124
f 189 443 20
f 189 20 190
f 190 20 187
f 190 187 191
f 192 191 188
f 192 188 193
f 193 188 123
f 193 123 124
f 124 58 193
f 191 192 134
f 191 134 190
f 189 190 135
f 189 135 443
f 198 197 199
f 201 202 292
f 203 290 206
f 203 206 202
f 203 207 208
f 203 208 290
f 212 209 204
f 204 209 207
f 211 200 210
f 212 213 287
f 213 286 287
f 195 214 194
f 194 214 205
f 292 294 201
f 201 294 215
f 216 217 213
f 213 217 285
f 216 218 217
f 219 302 222
f 300 220 205
f 205 220 219
f 219 220 302
f 214 298 205
f 205 298 221
f 205 221 300
f 219 222 223
f 219 223 216
f 216 223 224
f 225 219 216
f 225 216 213
f 225 213 226
f 226 213 212
f 226 212 227
f 227 212 204
f 227 204 207
f 227 207 228
f 228 207 203
f 228 203 229
f 229 203 202
f 229 202 201
f 229 201 230
f 230 201 215
f 230 215 210
f 230 210 200
f 230 200 231
f 231 200 199
f 231 199 197
f 231 197 232
f 232 197 196
f 232 196 195
f 232 195 233
f 233 195 194
f 233 194 205
f 233 205 234
f 234 205 235
f 235 205 219
f 235 219 225
f 236 229 237
f 237 229 230
f 237 230 238
f 238 230 242
f 239 235 240
f 240 235 225
f 240 225 241
f 242 230 231
f 242 231 243
f 243 231 232
f 243 232 233
f 243 233 239
f 239 233 234
f 239 234 235
f 241 225 244
f 244 225 226
f 244 226 245
f 245 226 227
f 245 227 236
f 236 227 228
f 236 228 229
f 246 240 247
f 247 240 241
f 247 241 244
f 247 244 248
f 248 244 245
f 248 245 249
f 249 245 236
f 249 236 250
f 250 236 237
f 250 237 251
f 251 237 238
f 251 238 242
f 251 242 252
f 252 242 243
f 252 243 253
f 253 243 239
f 253 239 254
f 254 239 240
f 254 240 246
f 254 255 253
f 253 255 256
f 253 256 252
f 252 256 257
f 252 257 258
f 252 258 251
f 250 259 249
f 249 259 260
f 249 260 248
f 248 260 261
f 248 261 262
f 248 262 247
f 251 258 263
f 251 263 264
f 251 264 265
f 251 265 266
f 251 266 250
f 250 266 267
f 250 267 259
f 262 268 247
f 247 268 269
f 247 269 270
f 247 270 246
f 246 270 254
f 254 270 271
f 254 271 272
f 254 272 255
f 15 270 8
f 8 270 269
f 8 269 268
f 8 268 4
f 4 268 515
f 515 268 262
f 515 262 5
f 5 262 261
f 5 261 260
f 5 260 11
f 11 260 259
f 11 259 267
f 11 267 266
f 11 266 14
f 14 266 18
f 18 266 19
f 19 266 265
f 19 265 264
f 19 264 13
f 13 264 263
f 13 263 258
f 13 258 3
f 3 258 257
f 3 257 6
f 6 257 256
f 6 256 2
f 2 256 1
f 1 256 255
f 1 255 548
f 548 255 272
f 548 272 15
f 15 272 271
f 15 271 270
f 124 122 274
f 275 115 382
f 115 114 276
f 114 112 378
f 112 111 379
f 111 109 379
f 109 108 277
f 108 106 277
f 97 95 278
f 95 94 279
f 279 92 280
f 87 86 281
f 86 84 281
f 84 83 343
f 83 81 282
f 81 80 341
f 80 78 283
f 286 213 285
f 288 212 287
f 288 209 212
f 289 207 209
f 289 208 207
f 291 202 206
f 295 199 200
f 295 198 199
f 296 197 198
f 296 196 197
f 297 195 196
f 297 214 195
f 299 221 298
f 301 220 300
f 222 302 306
f 306 302 303
f 215 294 304
f 306 303 307
f 305 222 306
f 210 215 310
f 310 215 304
f 310 304 311
f 315 67 58
f 220 301 302
f 302 301 303
f 303 316 307
f 307 316 308
f 308 315 309
f 309 315 58
f 308 317 315
f 315 317 67
f 318 65 67
f 301 300 319
f 301 319 303
f 303 319 316
f 316 320 308
f 308 320 318
f 308 318 317
f 317 318 67
f 320 69 318
f 318 69 65
f 221 299 300
f 300 299 319
f 319 322 316
f 316 322 323
f 316 323 320
f 320 323 321
f 320 321 69
f 324 70 321
f 323 324 321
f 325 327 70
f 299 298 326
f 299 326 319
f 319 326 322
f 323 325 324
f 324 325 70
f 323 327 325
f 328 72 71
f 214 297 298
f 298 297 326
f 326 329 322
f 322 329 330
f 322 330 323
f 323 330 328
f 323 328 327
f 327 328 71
f 330 73 72
f 328 330 72
f 331 74 73
f 297 332 326
f 326 332 329
f 329 333 330
f 330 333 331
f 330 331 73
f 333 75 74
f 331 333 74
f 334 64 75
f 196 296 297
f 297 296 332
f 332 335 329
f 329 335 336
f 329 336 333
f 333 336 334
f 333 334 75
f 336 337 334
f 334 337 64
f 284 76 338
f 296 339 332
f 332 339 335
f 336 338 337
f 337 338 76
f 336 284 338
f 198 295 296
f 296 295 339
f 339 340 335
f 335 340 341
f 335 341 336
f 336 341 283
f 336 283 284
f 284 283 78
f 283 341 80
f 295 342 339
f 339 342 340
f 340 343 341
f 341 343 282
f 341 282 81
f 282 343 83
f 342 344 340
f 340 344 281
f 340 281 343
f 343 281 84
f 344 314 281
f 281 314 87
f 92 90 280
f 280 90 344
f 280 344 349
f 349 344 342
f 349 342 346
f 346 342 345
f 345 342 295
f 345 295 200
f 344 90 89
f 344 89 314
f 314 89 87
f 346 345 211
f 211 345 200
f 279 280 348
f 348 280 349
f 350 349 346
f 350 346 347
f 347 346 211
f 350 347 210
f 210 347 211
f 278 95 279
f 278 279 313
f 313 279 348
f 313 348 312
f 312 348 349
f 312 349 311
f 311 349 350
f 311 350 310
f 310 350 210
f 62 97 351
f 304 294 352
f 304 352 311
f 311 352 353
f 311 353 312
f 312 353 313
f 313 351 278
f 278 351 97
f 292 293 294
f 294 293 352
f 313 354 351
f 351 354 62
f 355 60 62
f 353 352 356
f 353 356 313
f 313 356 355
f 313 355 354
f 354 355 62
f 202 291 292
f 292 291 293
f 356 98 355
f 355 98 60
f 291 358 293
f 293 358 359
f 293 359 352
f 352 359 360
f 352 360 356
f 356 360 357
f 356 357 98
f 361 99 357
f 291 206 358
f 360 361 357
f 362 363 99
f 206 290 358
f 360 362 361
f 361 362 99
f 360 363 362
f 364 101 100
f 208 289 290
f 290 289 365
f 290 365 358
f 358 365 366
f 358 366 359
f 359 366 367
f 359 367 360
f 360 367 364
f 360 364 363
f 363 364 100
f 367 102 101
f 364 367 101
f 368 103 102
f 366 369 367
f 367 369 368
f 367 368 102
f 369 104 103
f 368 369 103
f 370 105 104
f 209 288 289
f 289 288 371
f 289 371 365
f 365 371 372
f 365 372 366
f 366 372 373
f 366 373 369
f 369 373 370
f 369 370 104
f 373 374 370
f 370 374 105
f 106 176 375
f 375 176 374
f 288 376 371
f 371 376 372
f 373 372 375
f 373 375 374
f 372 277 375
f 375 277 106
f 288 287 377
f 288 377 376
f 376 377 378
f 376 378 379
f 376 379 372
f 372 379 277
f 277 379 109
f 286 380 287
f 287 380 377
f 379 378 112
f 285 217 381
f 285 381 286
f 286 381 380
f 380 382 377
f 377 382 276
f 377 276 378
f 378 276 114
f 276 382 115
f 381 383 380
f 380 383 275
f 380 275 382
f 381 274 383
f 275 383 117
f 122 120 274
f 385 274 381
f 384 381 217
f 384 217 218
f 274 120 119
f 274 119 383
f 383 119 117
f 387 385 381
f 387 381 384
f 216 384 218
f 273 124 274
f 273 274 385
f 387 384 223
f 223 384 224
f 224 384 216
f 58 124 273
f 386 385 387
f 309 58 273
f 309 273 308
f 308 273 385
f 308 385 307
f 307 385 386
f 307 386 306
f 306 386 387
f 306 387 305
f 305 387 223
f 305 223 222
f 57 55 389
f 389 55 56
f 389 56 390
f 391 390 392
f 390 54 392
f 392 54 393
f 393 53 394
f 394 53 395
f 395 52 396
f 396 52 397
f 398 400 399
f 402 401 49
f 402 49 48
f 402 48 403
f 403 48 404
f 404 48 47
f 404 47 405
f 405 47 406
f 406 47 45
f 406 45 407
f 407 45 408
f 408 45 44
f 408 44 409
f 409 44 410
f 410 44 42
f 410 42 411
f 411 42 412
f 412 42 41
f 412 41 413
f 413 41 414
f 414 41 38
f 414 38 415
f 415 38 416
f 160 416 38
f 419 418 35
f 419 35 420
f 420 35 421
f 421 34 422
f 422 34 423
f 423 33 424
f 424 33 425
f 427 30 428
f 428 30 133
f 30 175 133
f 133 177 429
f 429 177 29
f 429 29 430
f 430 29 28
f 430 28 431
f 431 28 432
f 432 28 27
f 432 27 433
f 433 27 434
f 434 27 25
f 434 25 435
f 435 25 436
f 436 25 24
f 436 24 437
f 437 24 438
f 438 24 22
f 438 22 439
f 439 22 440
f 440 22 21
f 440 21 441
f 441 21 442
f 442 21 443
f 388 443 135
f 388 135 57
f 388 444 443
f 443 444 442
f 429 445 133
f 133 445 428
f 417 446 160
f 160 446 416
f 402 447 401
f 401 447 448
f 401 448 400
f 400 448 399
f 439 440 449
f 439 449 438
f 438 449 450
f 438 450 437
f 437 450 451
f 437 451 436
f 436 451 452
f 436 452 435
f 435 452 453
f 435 453 434
f 434 453 454
f 434 454 433
f 433 454 455
f 433 455 432
f 432 455 456
f 432 456 431
f 431 456 457
f 431 457 430
f 430 457 458
f 430 458 429
f 429 458 445
f 445 459 428
f 428 459 460
f 428 460 427
f 427 460 461
f 427 461 426
f 426 461 462
f 426 462 425
f 425 462 463
f 425 463 424
f 424 463 464
f 424 464 423
f 423 464 465
f 423 465 422
f 422 465 466
f 422 466 421
f 421 466 467
f 421 467 420
f 420 467 468
f 420 468 419
f 419 468 469
f 419 469 418
f 418 469 470
f 418 470 417
f 417 470 446
f 446 471 416
f 416 471 472
f 416 472 415
f 415 472 473
f 415 473 414
f 414 473 474
f 414 474 413
f 413 474 475
f 413 475 412
f 412 475 476
f 412 476 411
f 411 476 477
f 411 477 410
f 410 477 478
f 410 478 409
f 409 478 479
f 409 479 408
f 408 479 480
f 408 480 407
f 407 480 481
f 407 481 406
f 406 481 482
f 406 482 405
f 405 482 483
f 405 483 404
f 404 483 484
f 404 484 403
f 403 484 485
f 403 485 402
f 402 485 447
f 448 486 399
f 399 486 487
f 399 487 398
f 398 487 488
f 398 488 397
f 397 488 489
f 397 489 396
f 396 489 490
f 396 490 395
f 395 490 491
f 395 491 394
f 394 491 492
f 394 492 393
f 393 492 493
f 393 493 392
f 392 493 494
f 392 494 391
f 391 494 495
f 391 495 390
f 390 495 496
f 390 496 389
f 389 496 497
f 389 497 57
f 57 497 498
f 57 498 388
f 388 498 444
f 498 499 444
f 458 500 445
f 445 500 459
f 470 501 446
f 446 501 471
f 485 502 447
f 447 502 503
f 447 503 448
f 448 503 486
f 499 504 444
f 444 504 505
f 444 505 442
f 442 505 506
f 442 506 441
f 441 506 507
f 441 507 440
f 440 507 508
f 440 508 449
f 449 508 509
f 449 509 450
f 450 509 510
f 450 510 451
f 451 510 511
f 451 511 452
f 452 511 512
f 452 512 453
f 453 512 513
f 453 513 454
f 454 513 514
f 454 514 455
f 455 514 515
f 455 515 456
f 456 515 516
f 456 516 457
f 457 516 517
f 457 517 458
f 458 517 500
f 500 518 459
f 459 518 519
f 459 519 460
f 460 519 520
f 460 520 461
f 461 520 521
f 461 521 462
f 462 521 522
f 462 522 463
f 463 522 523
f 463 523 464
f 464 523 524
f 464 524 465
f 465 524 525
f 465 525 466
f 466 525 526
f 466 526 467
f 467 526 527
f 467 527 468
f 468 527 528
f 468 528 469
f 469 528 529
f 469 529 470
f 470 529 501
f 501 530 471
f 471 530 531
f 471 531 472
f 472 531 473
f 473 531 532
f 473 532 474
f 474 532 19
f 474 19 475
f 475 19 533
f 475 533 476
f 476 533 534
f 476 534 477
f 477 534 535
f 477 535 478
f 478 535 13
f 478 13 479
f 479 13 536
f 479 536 480
f 480 536 537
f 480 537 481
f 481 537 3
f 481 3 482
f 482 3 538
f 482 538 483
f 483 538 539
f 483 539 484
f 484 539 540
f 484 540 485
f 485 540 502
f 503 541 486
f 486 541 542
f 486 542 487
f 487 542 543
f 487 543 488
f 488 543 544
f 488 544 489
f 489 544 545
f 489 545 490
f 490 545 546
f 490 546 491
f 491 546 492
f 492 546 547
f 492 547 493
f 493 547 548
f 493 548 494
f 494 548 549
f 494 549 495
f 495 549 550
f 495 550 496
f 496 550 551
f 496 551 497
f 497 551 552
f 497 552 498
f 498 552 499
f 552 15 499
f 499 15 504
f 505 10 506
f 506 10 9
f 506 9 507
f 507 9 508
f 508 9 4
f 508 4 509
f 509 4 510
f 510 4 12
f 510 12 511
f 511 12 512
f 517 516 5
f 517 5 500
f 500 5 518
f 525 17 526
f 526 17 16
f 526 16 527
f 527 16 528
f 528 16 18
f 528 18 529
f 529 18 501
f 501 18 530
f 538 3 6
f 538 6 539
f 539 6 540
f 540 6 7
f 540 7 502
f 502 7 503
f 503 7 1
f 503 1 541
f 541 1 542
f 551 550 15
f 551 15 552
f 553 554 555
f 555 554 556
f 555 556 557
f 557 556 558
f 557 558 559
f 559 558 560
f 559 560 561
f 561 560 562
f 561 562 563
f 563 562 564
f 563 564 565
f 565 564 566
f 565 566 567
f 567 566 568
f 567 568 569
f 569 568 570
f 569 570 571
f 571 570 572
f 571 572 573
f 573 572 574
f 573 574 575
f 575 574 576
f 575 576 577
f 577 576 578
f 577 578 579
f 579 578 580
f 579 580 581
f 581 580 582
f 581 582 583
f 583 582 584
f 583 584 585
f 585 584 586
f 585 586 587
f 587 586 588
f 587 588 589
f 589 588 590
f 589 590 591
f 591 590 592
f 591 592 593
f 593 592 594
f 593 594 595
f 595 594 596
f 595 596 597
f 597 596 598
f 597 598 599
f 599 598 600
f 599 600 553
f 553 600 554
f 580 578 601
f 601 578 576
f 601 576 574
f 586 584 601
f 601 584 582
f 601 582 580
f 592 590 601
f 601 590 588
f 601 588 586
f 598 596 601
f 601 596 594
f 601 594 592
f 556 554 601
f 601 554 600
f 601 600 598
f 562 560 601
f 601 560 558
f 601 558 556
f 568 566 601
f 601 566 564
f 601 564 562
f 574 572 601
f 601 572 570
f 601 570 568
f 573 575 602
f 602 575 577
f 602 577 579
f 567 569 602
f 602 569 571
f 602 571 573
f 561 563 602
f 602 563 565
f 602 565 567
f 555 557 602
f 602 557 559
f 602 559 561
f 597 599 602
f 602 599 553
f 602 553 555
f 591 593 602
f 602 593 595
f 602 595 597
f 585 587 602
f 602 587 589
f 602 589 591
f 579 581 602
f 602 581 583
f 602 583 585
