v -0.00883884961 0.00883881195 -0.00150005192
v 0.00856427615 -0.0091133918 -0.00144891113
v -0.00911338861 0.00856427295 -0.00144891113
v 0.00830845302 -0.00936921494 -0.00129906506
v -0.00936921174 0.00830844982 -0.00129906506
v 0.0080888695 -0.00958879845 -0.00106064648
v -0.00958879525 0.00808886631 -0.00106064648
v 0.00792030757 -0.00975736039 -0.000749987068
v -0.00975735719 0.00792030437 -0.000749987068
v 0.00781433051 -0.00986333745 -0.000388186874
v -0.00986333425 0.00781432731 -0.000388186874
v 0.0077782101 -0.00989945786 -4.14270358e-08
v -0.00989945466 0.0077782069 -4.14270358e-08
v 0.00781433051 -0.00986333745 0.000388223229
v -0.00986333425 0.00781432731 0.000388223229
v 0.00792030757 -0.00975736039 0.000750023423
v -0.00975735719 0.00792030437 0.000750023423
v 0.0080888695 -0.00958879845 0.00106068283
v -0.00958879525 0.00808886631 0.00106068283
v 0.00830845302 -0.00936921494 0.0012989822
v -0.00936921174 0.00830844982 0.0012989822
v 0.00856427615 -0.0091133918 0.00144894749
v -0.00911338861 0.00856427295 0.00144894749
v 0.00883881514 -0.00883885281 0.00149996906
v -0.00883884961 0.00883881195 0.00149996906
v 0.00911335414 -0.00856431382 0.00144894749
v -0.00856431062 0.00911335094 0.00144894749
v 0.00936917727 -0.00830849068 0.0012989822
v -0.00830848748 0.00936917407 0.0012989822
v 0.00958887999 -0.00808878796 0.00106068283
v -0.00808878476 0.0095888768 0.00106068283
v 0.00975744193 -0.00792022603 0.000750023423
v -0.00792022283 0.00975743873 0.000750023423
v 0.00986329978 -0.00781436818 0.000388223229
v -0.00781436498 0.00986329658 0.000388223229
v 0.0098995394 -0.00777812855 -4.14270358e-08
v -0.00777812535 0.0098995362 -4.14270358e-08
v 0.00986329978 -0.00781436818 -0.000388186874
v -0.00781436498 0.00986329658 -0.000388186874
v 0.00975744193 -0.00792022603 -0.000749987068
v -0.00792022283 0.00975743873 -0.000749987068
v 0.00958887999 -0.00808878796 -0.00106064648
v -0.00808878476 0.0095888768 -0.00106064648
v 0.00936917727 -0.00830849068 -0.00129906506
v -0.00830848748 0.00936917407 -0.00129906506
v 0.00911335414 -0.00856431382 -0.00144891113
v -0.00856431062 0.00911335094 -0.00144891113
v 0.00883881514 -0.00883885281 -0.00150005192
v 0.00883881514 -0.00883885281 -4.14270358e-08
v -0.00883884961 0.00883881195 -4.14270358e-08
v 0.00965919506 -0.00405266403 0.000208548823
v 0.00961936432 -0.00411071451 -0.000928119123
v 0.00935362626 -0.00431288172 -0.00167710246
v 0.00866534745 -0.00488360577 -0.00294747359
v 0.00982106182 -0.00413215324 0.00106174023
v 0.00700306375 -0.00670831153 -0.00396421078
v 0.00403381459 -0.00961938927 -0.000385431708
v 0.00733117526 -0.00610383408 -0.00380222172
v 0.00620647082 -0.00752332671 -0.00389444356
v 0.00564731738 -0.00801958723 -0.00356426004
v 0.00488828741 -0.00884133781 -0.00290739732
v 0.00465603838 -0.00924789357 -0.00259093506
v 0.0012534567 -0.0121815629 -0.00214750072
v 0.0041109966 -0.00961875834 0.000930437546
v 0.00431296102 -0.00935359896 0.00167709372
v 0.00615427559 -0.00755740378 0.00384364562
v 0.00698599703 -0.00674320899 0.00400871448
v 0.00746684755 -0.00619992277 0.00383812316
v 0.00823457179 -0.00520045046 -0.0077277781
v 0.00442066495 -0.00920318649 0.00205377388
v 0.00568869621 -0.00826294796 0.00376005236
v 0.00841692868 -0.00531198648 0.00340504652
v 0.00870267527 -0.00487083341 0.00286849125
v 0.0114424478 -0.00199265116 0.00443520038
v 0.00497168973 -0.00721314491 -0.0088710513
v 0.00224087765 -0.00430783445 -0.0092611711
v 0.0016820299 -0.00728127268 -0.00840434764
v 0.00370039483 -0.00848269748 -0.00835405794
v 0.0025222755 -0.00965858498 -0.00746771056
v -0.000423085239 -0.00943647322 -0.00613653042
v 0.00150371533 -0.0106748216 -0.00625965682
v 0.000683408175 -0.0114931571 -0.00477707818
v -0.00172367448 -0.0107708899 -0.00285926911
v 9.87716661e-05 -0.0120756869 -0.00308675104
v -0.000224869418 -0.012397389 -0.00126449389
v -0.000561121669 -0.012267846 -0.000120519893
v -0.00177546079 -0.0104871597 0.00321133762
v -0.00205382132 -0.00959723105 0.00437770032
v 0.00109588837 -0.0108890211 0.00581777836
v 0.00203607382 -0.00993855775 0.00711173713
v 0.00314520423 -0.00882120999 0.0081052647
v 0.00271278868 -0.00605587873 0.00894788938
v 0.00720483826 -0.00498011163 0.00887378895
v 0.00430927192 -0.00224166012 0.00926107793
v 0.00728175433 -0.00168131351 0.00840391449
v 0.00848560623 -0.00369758757 0.00835227357
v 0.0096579611 -0.00252279932 0.00746818086
v 0.0094380004 0.000420774589 0.00613680124
v 0.0106750087 -0.00150363607 0.00625949688
v 0.0114931138 -0.000683263821 0.00477677558
v 0.010772805 0.00172104001 0.00285994376
v 0.0120753836 -9.88562115e-05 0.00308779043
v 0.0123974062 0.00022489198 0.00126376975
v 0.0122675342 0.000561378734 0.000120387914
v 0.0104872412 0.00177542312 -0.00321142048
v 0.00959777689 0.00205350582 -0.00437718946
v 0.0108893155 -0.00109510652 -0.00581688486
v 0.0099392925 -0.00203651108 -0.00711148138
v 0.00882053188 -0.00314613053 -0.00810576567
v 0.00741502987 -0.00476767588 -0.00880693691
v 0.00750011972 -0.00437546405 -0.0087755342
v 0.00690871571 -0.00566753966 -0.008902671
v -0.00630170471 0.00588401943 -0.00900744063
v -0.0123189931 -0.000135745223 0.00187205871
v -0.00806014874 0.00412326861 0.00856243503
v -0.00728231733 0.0016819068 0.00840384991
v -0.00720421879 0.0049810364 0.00887396718
v -0.0043833604 0.00249714809 0.00926515448
v -0.00587746688 0.00630818121 0.00900627678
v 0.000135749149 0.0123191727 -0.00187134775
v -0.00412337581 0.00805970253 -0.00856266237
v -0.00168156054 0.00728061511 -0.00840448337
v -0.00497162658 0.00721321637 -0.00887104439
v -0.00249419758 0.0043803711 -0.0092653317
v -0.00360815632 0.00879497717 -0.00819239225
v -0.00163614993 0.0101861498 -0.00676070629
v -0.000739781049 0.0110545246 -0.0053932259
v -0.000940927866 0.011242224 -0.00529213447
v -5.94720077e-05 0.0117079728 -0.00380349361
v -0.000275536593 0.0119078291 -0.00366183655
v 0.000376747534 0.0121214975 -0.0020560099
v 0.00045148433 0.0123264716 -0.000430036167
v 0.00331978652 0.00993426246 9.35451121e-05
v 0.000380702675 0.0122554528 0.00141070132
v 0.00315899812 0.00979764016 0.00197345692
v -5.76446047e-05 0.0121657747 0.00276119112
v 4.21370214e-05 0.0119189532 0.00320894191
v 0.00273463582 0.00939598889 0.00377424528
v -0.000598015356 0.0116241102 0.00448867262
v -0.000548087808 0.0113291747 0.00487073461
v 0.00206827604 0.00874062464 0.00542233452
v -0.0013794931 0.0108392265 0.00601733041
v -0.00136835094 0.0105109101 0.00632917929
v 0.00117843342 0.00786622415 0.00684889983
v -0.00236862502 0.00984506469 0.00728159455
v -0.00237887806 0.00950164174 0.00751657936
v 0.000108829364 0.00680146624 0.00799590178
v -0.00354177403 0.00834086088 0.00838849881
v -0.00109945066 0.00559045357 0.00881657805
v -0.00496754832 0.00699551662 0.00893326562
v -0.00879493493 0.00360818424 0.00819246992
v -0.0101849731 0.00163506012 0.00676091625
v -0.010351571 0.00183152561 0.00669095049
v -0.0110532373 0.000739378352 0.00539436158
v -0.0112423352 0.000941176052 0.00529209076
v -0.0117079096 6.04811492e-05 0.00380488488
v -0.0119075364 0.000275581306 0.00366232362
v -0.0121208712 -0.000377412557 0.00205646575
v -0.0123267894 -0.000451199425 0.000430349577
v -0.00993555146 -0.00331832564 -9.35567214e-05
v -0.0122557863 -0.000380203608 -0.00141131222
v -0.00979945351 -0.00315683539 -0.00197387241
v -0.0121657338 5.77360561e-05 -0.002761332
v -0.0119187823 -4.30922137e-05 -0.00320763247
v -0.00939553403 -0.00273532777 -0.00377381042
v -0.0116244172 0.000597550103 -0.00448791785
v -0.0113290349 0.000548645771 -0.004871604
v -0.00874230547 -0.00206696296 -0.00542176277
v -0.0108390247 0.00137984206 -0.00601765602
v -0.0105114067 0.00136798436 -0.00632854851
v -0.00786351175 -0.00118144144 -0.00684904233
v -0.00984550063 0.00236819637 -0.00728127045
v -0.00950186398 0.00237898118 -0.00751651284
v -0.0068000236 -0.000109978878 -0.00799616833
v -0.00833684927 0.00354497419 -0.00839071757
v -0.00559115562 0.00110026296 -0.0088165426
v -0.00699579173 0.00496421501 -0.00893279928
v -0.000364858869 0.00501113797 -0.00887519233
v -0.00501056948 0.000364999882 0.00887533657
v 0.00079640363 0.00258768035 -0.00924532508
v -0.00259020712 -0.000794190971 0.00924514947
v -0.000473147327 -0.00223711568 0.00932707608
v 0.00101272039 -0.00437037811 0.00916083949
v 0.01010971 0.00295374404 -0.00138476608
v -0.00295195463 -0.0101113081 0.00138468419
v -0.00338877049 0.00381951571 -0.00933830234
v -0.000872092791 0.000872174334 -0.00948981613
v 0.00192025004 0.00012652327 -0.00943962508
v 0.00332098651 -0.00196885798 -0.00939019465
v 0.00614619717 -0.00547522254 -0.00906839387
v 0.00192058487 0.00729833542 -0.00686052353
v 0.00323664738 0.00502927779 -0.00755239185
v 0.0044691538 0.0026757409 -0.00810410982
v 0.00559093975 -0.00110028282 -0.00881662511
v 0.00680010299 0.000109364453 -0.00799636109
v 0.00345930573 0.0088385501 -0.00373389032
v 0.00500779955 0.00680026174 -0.00463527102
v 0.00644061924 0.00464519316 -0.00545459542
v 0.00786354689 0.00118041237 -0.00684963635
v 0.00874049949 0.00206870822 -0.00542208518
v 0.0060784018 0.00731133358 -0.00111042338
v 0.00729994138 0.00554930752 -0.00284953327
v 0.00997826757 0.00282064098 -0.00231059291
v 0.005843893 0.00759390122 -3.57041028e-07
v 0.00934609827 0.0039686738 0.000959447217
v 0.00666426598 0.00666393895 0.00144359758
v 0.00728569665 0.0055356914 0.00284462864
v 0.00778322685 0.00426844844 0.00418300028
v 0.00500706054 0.00680198203 0.00463394185
v 0.00776489546 0.00238829319 0.00616594268
v 0.00554832634 0.00375587388 0.00692229662
v 0.00323737847 0.00503063978 0.00755125655
v 0.0056344386 0.000256776145 0.00849752338
v 0.00324169458 0.00144857324 0.00895551122
v 0.0038114632 -0.00338097219 0.00933891302
v 0.000341033478 0.000342538193 0.00951001829
v 0.000795260328 0.00259126391 0.00924476521
v -0.00227957886 0.00449537734 0.00923749467
v -0.00381134783 0.00338079785 0.00933892341
v 0.000872177533 -0.00087209599 0.00948985249
v 0.00548978681 -0.00646619922 0.00902299492
v -0.00729755818 -0.00192147447 0.00686057479
v -0.00502912689 -0.00323748327 0.00755201196
v -0.00267500436 -0.00447001481 0.00810401192
v -0.000108720783 -0.00680194307 0.00799573744
v -0.00883680798 -0.00346125904 0.0037337566
v -0.00680080591 -0.00500730841 0.00463516476
v -0.00464554391 -0.00643984135 0.00545502951
v -0.00117945779 -0.00786619427 0.00684830564
v -0.00206664296 -0.00874220743 0.00542214378
v -0.00730993217 -0.00607970278 0.0011113266
v -0.00555072352 -0.00729859727 0.00284970495
v -0.00281824276 -0.0099803922 0.00231040889
v -0.00759402945 -0.00584368781 1.14009236e-07
v -0.00396852631 -0.00934618666 -0.000959571586
v -0.00666428236 -0.00666392398 -0.00144392086
v -0.00553541342 -0.00728594922 -0.00284483941
v -0.00426626224 -0.00778434905 -0.00418438317
v -0.0068009597 -0.0050079833 -0.00463416194
v -0.00238552887 -0.00776709611 -0.0061661329
v -0.00375435588 -0.00554963442 -0.00692227727
v -0.00503085378 -0.00323682551 -0.00755138506
v -0.00025540832 -0.0056356691 -0.00849752504
v -0.00144771164 -0.00324209154 -0.0089556938
v 0.00369445746 -0.00501736062 -0.00919918388
v 0.000193280629 -0.00155099289 -0.00944117874
v -0.00258831373 -0.000797732532 -0.00924496521
v -0.00449432397 0.00227897808 -0.00923756364
v -0.00965897841 0.00405259533 0.000208190571
v -0.00961878086 0.0041109567 -0.000930246836
v -0.009353598 0.00431291233 -0.00167694357
v -0.00896630239 0.0047142908 -0.00261976527
v -0.00405266144 0.00965919064 -0.000208661213
v -0.00411074803 0.0096193354 0.000928309814
v -0.0067175203 0.00671748264 -0.00389997333
v -0.00422935167 0.00920570463 -0.00181978167
v -0.00940604741 0.00402895553 0.000867802201
v -0.00800452595 0.00543051522 -0.0035186248
v -0.00973808413 0.00365741401 -0.00710185334
v -0.00902123982 0.00441376312 -0.00731770367
v -0.00706611387 0.00636887979 -0.00800503238
v -0.00903167921 0.00439287133 -0.0074893703
v -0.00620462107 0.00752527792 -0.00389408863
v -0.00564822146 0.00801849801 -0.00356478125
v -0.00488631278 0.00884329453 -0.00290529779
v -0.00285390721 0.0105535237 -0.00619493246
v -0.00142492357 0.0120101318 -0.00299913848
v -0.00437400092 0.00926846407 0.00193314938
v -0.00724078954 0.00619428458 0.00800393733
v -0.0107574158 0.00265835893 0.0058735134
v -0.00885686249 0.00457814046 0.00255722315
v -0.0121815532 0.00125346003 0.00214755875
v -0.00213523442 0.0112998877 -0.00470833153
v -0.00577876838 0.00765624691 0.00790939923
v -0.00663748421 0.00679755717 0.00395994031
v -0.00791402394 0.005520979 0.00351377159
v -0.00923078595 0.00420429344 0.00723741116
v -0.00517111048 0.00841341253 0.00321162364
v -0.00366023997 0.0097351654 0.0071047154
v -0.00454138317 0.00887175646 0.00762097779
v -0.00441368157 0.00902132137 0.00731774002
v -0.00372708464 0.00263682329 -0.00388576122
v -0.00490136678 0.00146261795 -0.00304917664
v -0.00567008684 0.000693897885 -0.00181982816
v -0.00589206696 0.000471917759 0.00120349261
v -0.004468744 0.00189520415 0.00351879387
v -0.000493364878 0.00587050064 0.000867802201
v -0.000434301666 0.00592959197 -0.000771096536
v -0.00221390407 0.00415008903 -0.00367514581
v -0.00429954251 0.00206445039 -0.00196151094
v -0.00471289689 0.00165108783 -0.00124995083
v -0.00495291728 0.00141106745 -0.000270036122
v -0.00488956506 0.00147441967 0.000647026597
v -0.00456898129 0.00179500356 0.00158035257
v -0.00406582887 0.00229815586 0.00216503769
v -0.00295783587 0.00340613119 0.0030145016
v -0.00252175216 0.00384224415 0.00331634947
v -0.00226444811 0.00409953964 0.00278760907
v -0.00170244392 0.00466140003 0.00316197807
v -0.00137764795 0.0049863498 -8.55814441e-05
v -0.00174329283 0.00462060858 -0.00256614831
v -0.00253935496 0.00382463957 -0.002349358
v -0.00345632569 0.00290766497 -0.00248891243
v 0.00299104405 -0.00337294234 -0.0025044395
v 0.00176634401 -0.00459756735 -0.00166079533
v 0.00142343711 -0.00494056794 0.000577860249
v 0.00222731468 -0.00413656082 0.00216705008
v 0.00318197673 -0.00318201439 0.00250001579
v 0.00382475038 -0.00253925054 0.00234920299
v 0.00428107521 -0.00208288903 0.00289785585
v 0.00490918345 -0.00145475702 0.00074316304
v 0.00484322533 -0.00152071448 -0.000908555676
v 0.00413659595 -0.0022274128 -0.00216720893
v 0.00388296088 -0.00248105844 0.00383550676
v 0.00256828731 -0.00379558461 0.00380225807
v 0.0017542067 -0.00460979531 0.00336212447
v 0.00102595752 -0.0053380336 0.00243158966
v 0.000469943487 -0.00589404763 0.000991361586
v 0.000493449621 -0.0058705415 -0.000867885055
v 0.000804674626 -0.00555930293 -0.0020192858
v 0.00550012334 -0.000863790928 -0.0021525522
v 0.00593089779 -0.000432966591 -0.000517427672
v 0.00587050384 -0.000493368077 0.000867802201
v 0.00555947701 -0.000804494691 0.00201908649
v 0.00146262114 -0.00490136998 -0.00304917664
v 0.00221374063 -0.00415019366 -0.00367508989
v 0.00372706255 -0.00263695701 -0.00388578274
v 0.00490133231 -0.0014625396 -0.00304917664
v -0.00722966833 0.0052867467 -0.00885283262
v -0.00855999432 0.00386632037 -0.00835119596
v -0.0101826732 0.00245577548 -0.00705851677
v -0.0113762193 0.00113979919 -0.00525884003
v -0.0120374733 0.00047854526 -0.0036390242
v -0.0123782726 0.000259871895 -0.00249970783
v -0.0125196998 -0.000102971478 -0.000916930909
v -0.00386588717 0.00856080702 0.00835073493
v -0.00202484662 0.0104911719 0.0066488567
v -0.00150202127 0.0111362728 0.00576772417
v -0.000478582926 0.0120374356 0.00363906056
v -0.000259928404 0.0123786767 0.00249867789
v 0.000102522752 0.0125199765 0.000917140019
v -0.0101606592 0.00325274424 -0.00658446338
v -0.0107297845 0.0026598444 -0.00604057686
v -0.0115140841 0.0018744147 -0.00475876322
v -0.01220258 0.00119274785 -0.00288376174
v -0.012556029 0.000839341938 0.000531017516
v -0.0121132733 0.00129594069 0.00301871214
v -0.0116868609 0.00173071704 0.00417921814
v -0.0113836067 0.00200490418 0.00501281075
v -0.0102623613 0.00309723761 0.00667182529
v -0.00306616778 0.0102853061 0.00670635932
v -0.00267730656 0.010675429 0.00616633974
v -0.00237744474 0.0110417145 0.00542153733
v -0.00205788153 0.0112388212 0.00546460685
v -0.00119223116 0.0122030737 0.00288198895
v -0.000770041365 0.0125938493 -0.000381647138
v -0.000935513713 0.0124587689 -0.00135234142
v -0.00149920025 0.0118961169 -0.00385707829
v -0.00322260303 0.0101124489 -0.00687710818
v -0.00524526798 0.00814995576 -0.00804403735
v -0.00814860597 0.00524677297 0.00804435717
v -0.00669677789 0.00669685943 -0.00825039715
v -0.00573721654 0.00754198403 -0.00842872627
v -0.00592232921 0.0071620118 -0.00865674449
v -0.00557874761 0.0071242796 -0.00886262828
v -0.00625796849 0.00625805004 -0.00894693703
v -0.00602569399 0.00736901137 0.0082225357
v -0.00754243099 0.00573689071 0.00842850706
v -0.0071626574 0.00592179132 0.00865656718
v -0.00738619244 0.00545480216 0.00877985396
v -0.00562648633 0.00689190377 0.00893396167
v -0.00944040849 0.00322910843 -0.00774937598
v -0.00559671456 0.00691930397 -0.00889794201
v -0.00359258762 0.00957313663 -0.00753505798
v -0.00399820361 0.00893115258 -0.0080990782
v -0.00430305535 0.00821296318 -0.0085089621
v -0.00301787895 0.00938546797 -0.00776487418
v -0.00160630753 0.0116729447 -0.00469075471
v -0.00176931093 0.0113228643 -0.00551799247
v -0.00198982833 0.0108511644 -0.00629989037
v -0.00253947312 0.00997654541 -0.00723819107
v -0.00202484662 0.0104911719 -0.00664882034
v -0.00172842509 0.0107332697 -0.00631990912
v -0.00113983686 0.0113761817 -0.00525884003
v -0.000643096844 0.0125606993 -0.00169102939
v -0.000812704692 0.0122672996 -0.00313351858
v -0.000793198518 0.0119213567 -0.0041576293
v -0.000478582926 0.0120374356 -0.0036390242
v -0.000304116989 0.0124108187 -0.00243210395
v -6.98142726e-05 0.0124462043 -0.00186018318
v -0.000806833579 0.0124724331 0.00215111072
v -0.000450373529 0.0126420002 0.0013271413
v -0.000145745606 0.0126958658 0.000439958152
v 0.000101386539 0.0125217294 -0.000923638668
v 6.84685033e-05 0.0125843678 -4.14270358e-08
v -0.00143036799 0.0116702411 0.00480502335
v -0.000864815508 0.0119528411 0.00414893102
v -0.00253813614 0.0102797403 0.00697985509
v -0.00374335672 0.00900705052 0.00808799743
v -0.0043111713 0.00878093167 0.00812984852
v -0.00542369929 0.00740009257 0.00873439458
v -0.00589712197 0.00717953784 0.00862796932
v -0.00504016138 0.0082388743 0.00821941427
v -0.00691934163 0.0055966769 0.00889785915
v -0.00970043386 0.00350316995 0.00739426366
v -0.00872653096 0.0043535417 0.00811559326
v -0.00757332379 0.00494269474 0.00875135094
v -0.00821300084 0.00430301769 0.00850899845
v -0.00924183995 0.00358191905 0.00788829739
v -0.00938521892 0.00301779663 0.00776498878
v -0.0114812937 0.00168472414 0.00516421538
v -0.0103983396 0.00254291932 0.00681171186
v -0.00997658307 0.00253943546 0.00723822743
v -0.0104912096 0.00202480896 0.0066488567
v -0.0122525792 0.00102665214 0.00310843682
v -0.01118832 0.00152615635 0.00570317315
v -0.0113762193 0.00113979919 0.00525887638
v -0.012496759 0.000595668893 0.00229382969
v -0.0119212465 0.000793372136 0.00415786721
v -0.0120374733 0.00047854526 0.00363906056
v -0.0126613197 0.000617696417 -0.000388953983
v -0.0124108337 0.000303463571 0.00243142988
v -0.0124461227 6.98958157e-05 0.00186021954
v -0.0126420518 0.000450341644 -0.00132714241
v -0.0126956913 0.000145372645 -0.000440795024
v -0.012521439 -0.000101841535 0.000923377063
v -0.0125844055 -6.83869602e-05 -4.14270358e-08
v -0.0121044503 0.00112130034 -0.00363858389
v -0.0119525996 0.000864970313 -0.00414953388
v -0.0108520082 0.00224857756 -0.00620531845
v -0.0112216427 0.00159600481 -0.00568854679
v -0.00970198048 0.00346377724 -0.0074298392
v -0.00885135615 0.00449091273 -0.00780954646
v -0.00790973241 0.00548390491 -0.0080701527
v -0.00806345277 0.00477766752 -0.0085761782
v -0.00784366382 0.00524063128 -0.00850411636
v -0.00765574131 0.00568655524 -0.00827992606
v 0.00615796681 -0.00667830615 -0.00884984538
v 0.00762696982 -0.00503975752 -0.00871913193
v 0.00855892007 -0.00404441527 -0.00835920806
v 0.00886433585 -0.00381327464 -0.00815584661
v 0.00944069891 -0.00322908126 -0.0077491741
v 0.00995578958 -0.00261208815 -0.00728818989
v 0.0105120573 -0.0021578934 -0.00666657601
v 0.0109445395 -0.00162259638 -0.00605291636
v 0.0114010161 -0.00126907645 -0.00529259681
v 0.0117303128 -0.000836084656 -0.00455530996
v 0.012036054 -0.000529842791 -0.00372821817
v 0.012309639 -0.000360666892 -0.00281953998
v 0.0122949884 -0.000129696918 -0.00257501806
v 0.0124761786 0.000100232715 -0.00127057481
v 0.0126319982 -2.90601042e-05 -3.88882644e-05
v 0.0126002062 -6.66910037e-05 0.000908778365
v 0.0124986287 -0.000167783345 0.00182963034
v 0.0123296991 -0.000337435922 0.0027314712
v 0.0120949612 -0.000572182614 0.00360279212
v 0.0117970067 -0.000869594441 0.0044345886
v 0.0114393405 -0.00122763867 0.00521821052
v 0.0110257082 -0.00164115859 0.00594424113
v 0.010560529 -0.00210588991 0.0066053262
v 0.0100491058 -0.00261746277 0.00719417248
v 0.0094972062 -0.00317002816 0.00770388859
v 0.00891067992 -0.0037562084 0.00812927659
v 0.00829551291 -0.00437135179 0.00846578871
v 0.00765917081 -0.00500794278 0.00870933288
v 0.00691341695 -0.00583824746 0.00887046923
v 0.00600767541 -0.00659674435 0.00893566522
v 0.00534950541 -0.0072483177 0.00884640799
v 0.00469971193 -0.00789885331 0.0086567592
v 0.00404395228 -0.00855947781 0.00835894342
v 0.00381307592 -0.00886453815 0.00815578446
v 0.00322940981 -0.00944061469 0.00774916708
v 0.00261215589 -0.00995612359 0.00728798793
v 0.00215777839 -0.0105118071 0.00666690736
v 0.00162257878 -0.0109449187 0.00605255463
v 0.0012687786 -0.0114007342 0.00529295839
v 0.000835823689 -0.0117305266 0.00455475142
v 0.000529548209 -0.0120360819 0.00372796007
v 0.000360127384 -0.0123093446 0.00281992637
v 0.000129799772 -0.0122949942 0.00257510679
v -0.000100746249 -0.0124757295 0.00127118306
v 2.88799486e-05 -0.0126318724 3.8761782e-05
v 6.67514876e-05 -0.012600091 -0.000908635173
v 0.000168178612 -0.0124985862 -0.00183025932
v 0.00033693272 -0.012329555 -0.00273137521
v 0.000571495729 -0.0120948736 -0.00360241532
v 0.000869928563 -0.0117969433 -0.00443501515
v 0.00143698042 -0.0115374184 -0.00514119495
v 0.00184423782 -0.0111301229 -0.00585900932
v 0.00230270268 -0.0106715416 -0.00651333663
v 0.00280736613 -0.0101668534 -0.00709659547
v 0.0033516818 -0.00962241366 -0.00760150134
v 0.0039303475 -0.00904387949 -0.00802302254
v 0.00453897971 -0.00843541068 -0.0083575932
v 0.00516793429 -0.00780622831 -0.0086001417
v 0.00556561435 -0.0068610465 -0.00892436406
v 0.000316009308 -0.0126467471 0.00090203738
v 0.000416253283 -0.0125462601 0.00180857135
v 0.0126467678 -0.000315643778 -0.000901994004
v 0.0125462733 -0.000416216989 -0.00180819974
v 0.00135076827 -0.0118414274 -0.00431779396
v 0.00105975472 -0.0121322855 -0.00351772656
v 0.000830442049 -0.0123617632 -0.00268065469
v 0.000664074587 -0.0125282078 -0.00181409186
v 0.000561952835 -0.0126299418 -0.000926491396
v 0.000526209364 -0.0126654058 -2.90637517e-05
v 0.000817450046 -0.0123747644 0.00262403612
v 0.00104299168 -0.012149076 0.00346442474
v 0.0013294092 -0.0118627978 0.00426550755
v 0.00167356445 -0.0115186141 0.00502089512
v 0.00207157236 -0.0111205625 0.00572099563
v 0.00251939727 -0.0106725878 0.00635901704
v 0.00301150906 -0.0101804686 0.00692659505
v 0.00354336888 -0.00964851288 0.00741882641
v 0.00410810361 -0.00908410577 0.00782884128
v 0.00470068435 -0.00849129692 0.0081542074
v 0.00531363841 -0.00787834075 0.0083896132
v 0.00594074715 -0.0072513276 0.00853317286
v 0.00657483486 -0.00661735978 0.00858307787
v 0.00783751099 -0.00535437582 0.00840188069
v 0.00845143691 -0.00474060802 0.00817245111
v 0.00904580957 -0.00414594621 0.0078532772
v 0.00961212239 -0.00358015816 0.00744828987
v 0.0101469555 -0.00304501495 0.00696116324
v 0.0106418376 -0.00255003091 0.00639844915
v 0.0110920092 -0.00210008596 0.00576584051
v 0.0114936839 -0.00169843819 0.00506931584
v 0.0118421342 -0.00134953298 0.00431652765
v 0.0121319676 -0.0010601424 0.00351859934
v 0.0123616182 -0.000830677881 0.00268094691
v 0.0125282822 -0.000663866312 0.00181341878
v 0.0126298694 -0.000562055895 0.000926436724
v 0.0126653051 -0.000526851093 2.98255675e-05
v 0.0123747629 -0.000817535165 -0.00262367545
v 0.0121491145 -0.00104297593 -0.00346400381
v 0.011862455 -0.00132918678 -0.00426671547
v 0.0115185567 -0.00167345851 -0.00502107922
v 0.0111204255 -0.0020716841 -0.00572127152
v 0.0106725989 -0.002519298 -0.0063591783
v 0.0101803399 -0.00301155093 -0.00692690885
v 0.00964916517 -0.00354286066 -0.00741828479
v 0.00908338059 -0.00410839644 -0.00782956309
v 0.00849152162 -0.00470055821 -0.00815398473
v 0.00787854434 -0.00531348995 -0.0083894366
v 0.00725133087 -0.00594083455 -0.00853303165
v 0.0066170631 -0.00657511191 -0.00858319676
v 0.00611186858 -0.00724082799 -0.00832902766
v 0.000787047375 -0.012565714 0.000799266684
v 0.000877979321 -0.0124745072 0.00166581663
v 0.00724128567 -0.00611142338 0.00832898113
v 0.0125657835 -0.000786938352 -0.000797816158
v 0.0124743313 -0.000878352329 -0.00166637412
v 0.00548390811 -0.00790973561 -0.0080701527
v 0.00489406054 -0.00849958317 -0.00784663528
v 0.00432388251 -0.009069642 -0.00753716797
v 0.00390326529 -0.00951334749 -0.00717012166
v 0.00326768821 -0.0101259555 -0.00667480797
v 0.00279311603 -0.0106005277 -0.00613133282
v 0.0024748619 -0.0109417907 -0.00559475675
v 0.00174457003 -0.0116720433 -0.00422659868
v 0.00136725371 -0.01202639 -0.00335578293
v 0.00114838546 -0.0122452583 -0.0025495705
v 0.000990313939 -0.0124032106 -0.00171534389
v 0.000894827298 -0.0124988164 -0.000862401428
v 0.000862879209 -0.0125307645 -4.14270358e-08
v 0.00114838546 -0.0122452583 0.00254948765
v 0.00136725371 -0.01202639 0.00335570007
v 0.00163758279 -0.0117790624 0.00396428953
v 0.00215476814 -0.011263487 0.00507591779
v 0.00275268581 -0.0106639481 0.00598768505
v 0.00319543252 -0.0102250764 0.00650282073
v 0.00432388251 -0.009069642 0.00753720432
v 0.00489406054 -0.00849958317 0.00784667164
v 0.00548390811 -0.00790973561 0.00807018906
v 0.0060869879 -0.00730665581 0.00820525318
v 0.00669686263 -0.00669678109 0.0082504335
v 0.00790969794 -0.00548382657 0.00807018906
v 0.00839717085 -0.00501944511 0.00783817224
v 0.00906972354 -0.00432392018 0.00753720432
v 0.00961379474 -0.00377984898 0.00714512497
v 0.0101259178 -0.00326772587 0.00667472511
v 0.0105045709 -0.00291203155 0.00619058549
v 0.0110322661 -0.00236137764 0.00552065998
v 0.0114165968 -0.0019770469 0.00484951168
v 0.0116723574 -0.00174425966 0.00422659712
v 0.01193803 -0.00148243076 0.0035122107
v 0.0124032921 -0.000990351606 0.00171538025
v 0.0124987788 -0.000894864965 0.000862437783
v 0.0125307268 -0.000862916875 -4.14270358e-08
v 0.0122452206 -0.00114842312 -0.0025495705
v 0.0120263523 -0.00136729138 -0.00335578293
v 0.0117776691 -0.00163901188 -0.00396854715
v 0.0114581096 -0.00195859222 -0.00469291158
v 0.0111040442 -0.00231649706 -0.00532746995
v 0.0106639609 -0.00275266754 -0.00598768971
v 0.0102247414 -0.00319576183 -0.00650323545
v 0.00969726345 -0.00371937346 -0.00701983713
v 0.00906972354 -0.00432392018 -0.00753716797
v 0.00849954551 -0.004893979 -0.00784663528
v 0.00790969794 -0.00548382657 -0.0080701527
v 0.00730661815 -0.00608702557 -0.00820521683
v 0.00669686263 -0.00669678109 -0.00825039715
f 1 2 3
f 3 2 4
f 3 4 5
f 5 4 6
f 5 6 7
f 7 6 8
f 7 8 9
f 9 8 10
f 9 10 11
f 11 10 12
f 11 12 13
f 13 12 14
f 13 14 15
f 15 14 16
f 15 16 17
f 17 16 18
f 17 18 19
f 19 18 20
f 19 20 21
f 21 20 22
f 21 22 23
f 23 22 24
f 23 24 25
f 25 24 26
f 25 26 27
f 27 26 28
f 27 28 29
f 29 28 30
f 29 30 31
f 31 30 32
f 31 32 33
f 33 32 34
f 33 34 35
f 35 34 36
f 35 36 37
f 37 36 38
f 37 38 39
f 39 38 40
f 39 40 41
f 41 40 42
f 41 42 43
f 43 42 44
f 43 44 45
f 45 44 46
f 45 46 47
f 47 46 48
f 47 48 1
f 1 48 2
f 28 26 49
f 49 26 24
f 49 24 22
f 34 32 49
f 49 32 30
f 49 30 28
f 40 38 49
f 49 38 36
f 49 36 34
f 46 44 49
f 49 44 42
f 49 42 40
f 4 2 49
f 49 2 48
f 49 48 46
f 10 8 49
f 49 8 6
f 49 6 4
f 16 14 49
f 49 14 12
f 49 12 10
f 22 20 49
f 49 20 18
f 49 18 16
f 21 23 50
f 50 23 25
f 50 25 27
f 15 17 50
f 50 17 19
f 50 19 21
f 9 11 50
f 50 11 13
f 50 13 15
f 3 5 50
f 50 5 7
f 50 7 9
f 45 47 50
f 50 47 1
f 50 1 3
f 39 41 50
f 50 41 43
f 50 43 45
f 33 35 50
f 50 35 37
f 50 37 39
f 27 29 50
f 50 29 31
f 50 31 33
f 54 594 593
f 54 593 592
f 62 559 61
f 57 63 62
f 62 63 560
f 54 596 595
f 54 595 594
f 56 69 58
f 58 69 54
f 54 69 597
f 54 597 596
f 586 585 55
f 55 585 74
f 55 74 73
f 73 74 582
f 571 570 71
f 71 570 569
f 71 569 70
f 70 569 568
f 122 125 377
f 122 377 126
f 126 383 127
f 127 128 129
f 129 130 131
f 116 151 410
f 116 410 152
f 152 153 154
f 154 155 156
f 156 157 158
f 121 125 122
f 115 151 116
f 123 121 122
f 117 115 116
f 124 123 122
f 124 122 178
f 118 117 116
f 118 116 179
f 113 123 186
f 186 123 124
f 124 178 180
f 119 117 219
f 219 117 118
f 118 179 181
f 186 124 187
f 187 124 180
f 187 180 188
f 122 126 191
f 122 191 178
f 178 191 192
f 178 192 180
f 180 192 193
f 180 193 188
f 188 193 194
f 188 194 189
f 189 194 111
f 189 111 190
f 190 111 110
f 190 110 112
f 126 127 191
f 193 195 194
f 194 195 109
f 194 109 440
f 194 440 111
f 127 129 196
f 127 196 191
f 191 196 197
f 191 197 192
f 192 197 198
f 192 198 193
f 193 198 199
f 193 199 195
f 195 199 108
f 195 108 443
f 195 443 109
f 129 131 196
f 198 200 199
f 199 200 107
f 199 107 445
f 199 445 108
f 131 201 196
f 196 201 202
f 196 202 197
f 197 202 198
f 198 202 106
f 198 106 200
f 200 106 447
f 200 447 107
f 106 448 447
f 202 201 203
f 202 203 105
f 202 105 106
f 106 105 450
f 106 450 448
f 201 184 203
f 105 203 450
f 104 184 205
f 205 184 201
f 204 201 133
f 133 201 132
f 132 201 131
f 132 131 394
f 394 131 120
f 104 451 184
f 184 451 203
f 203 451 450
f 206 205 201
f 206 201 204
f 101 103 104
f 101 104 205
f 206 204 135
f 135 204 133
f 135 133 134
f 134 133 341
f 341 133 132
f 102 103 101
f 207 205 206
f 208 101 205
f 208 205 207
f 209 207 206
f 209 206 138
f 138 206 135
f 138 135 137
f 137 135 136
f 136 135 134
f 100 102 101
f 208 207 209
f 98 100 101
f 98 101 210
f 210 101 208
f 141 209 138
f 141 138 140
f 140 138 139
f 139 138 137
f 99 100 98
f 211 210 208
f 211 208 209
f 212 211 209
f 212 209 144
f 144 209 141
f 144 141 143
f 143 141 142
f 142 141 140
f 97 99 98
f 95 97 98
f 95 98 213
f 213 98 210
f 213 210 211
f 147 212 144
f 147 144 146
f 146 144 145
f 145 144 143
f 96 97 95
f 214 213 211
f 214 211 212
f 217 214 212
f 217 212 149
f 149 212 147
f 149 147 148
f 148 147 336
f 336 147 146
f 93 96 95
f 94 93 95
f 94 95 213
f 94 213 214
f 218 217 149
f 218 149 150
f 150 149 148
f 466 93 215
f 215 93 94
f 216 94 214
f 216 214 217
f 150 119 219
f 150 219 218
f 218 219 217
f 217 219 216
f 216 220 94
f 94 220 215
f 466 215 221
f 219 118 216
f 216 118 181
f 216 181 220
f 220 181 182
f 220 182 215
f 215 182 183
f 215 183 221
f 116 152 222
f 116 222 179
f 179 222 223
f 179 223 181
f 181 223 224
f 181 224 182
f 182 224 183
f 183 92 221
f 221 92 468
f 221 468 467
f 92 469 468
f 152 154 222
f 224 225 183
f 183 225 91
f 183 91 92
f 92 91 470
f 92 470 469
f 154 156 226
f 154 226 222
f 222 226 227
f 222 227 223
f 223 227 228
f 223 228 224
f 224 228 229
f 224 229 225
f 225 229 90
f 225 90 473
f 225 473 91
f 156 158 226
f 228 230 229
f 229 230 89
f 229 89 475
f 229 475 90
f 158 231 226
f 226 231 232
f 226 232 227
f 227 232 228
f 228 232 88
f 228 88 230
f 230 88 477
f 230 477 89
f 88 478 477
f 232 231 233
f 232 233 87
f 232 87 88
f 88 87 480
f 88 480 478
f 231 185 233
f 87 233 480
f 86 185 235
f 235 185 231
f 234 231 160
f 160 231 159
f 159 231 158
f 159 158 426
f 426 158 114
f 86 481 185
f 185 481 233
f 233 481 480
f 236 235 231
f 236 231 234
f 83 85 86
f 83 86 235
f 236 234 162
f 162 234 160
f 162 160 161
f 161 160 335
f 335 160 159
f 84 85 83
f 237 235 236
f 238 83 235
f 238 235 237
f 239 237 236
f 239 236 165
f 165 236 162
f 165 162 164
f 164 162 163
f 163 162 161
f 82 84 83
f 238 237 239
f 80 82 83
f 80 83 240
f 240 83 238
f 168 239 165
f 168 165 167
f 167 165 166
f 166 165 164
f 81 82 80
f 241 240 238
f 241 238 239
f 242 241 239
f 242 239 171
f 171 239 168
f 171 168 170
f 170 168 169
f 169 168 167
f 79 81 80
f 77 79 80
f 77 80 243
f 243 80 240
f 243 240 241
f 174 242 171
f 174 171 173
f 173 171 172
f 172 171 170
f 78 79 77
f 244 243 241
f 244 241 242
f 247 244 242
f 247 242 176
f 176 242 174
f 176 174 175
f 175 174 330
f 330 174 173
f 75 78 77
f 76 75 77
f 76 77 243
f 76 243 244
f 248 247 176
f 248 176 177
f 177 176 175
f 496 75 245
f 245 75 76
f 246 76 244
f 246 244 247
f 177 113 186
f 177 186 248
f 248 186 247
f 247 186 187
f 247 187 246
f 246 187 188
f 246 188 76
f 76 188 189
f 76 189 245
f 245 189 190
f 245 190 496
f 258 262 260
f 258 260 259
f 263 261 255
f 255 261 258
f 258 261 262
f 253 267 256
f 271 348 349
f 271 349 270
f 249 272 257
f 257 272 271
f 271 272 347
f 271 347 348
f 259 342 258
f 258 342 252
f 252 343 344
f 256 267 273
f 256 273 265
f 275 269 274
f 276 277 275
f 275 277 269
f 270 277 271
f 271 277 276
f 268 278 353
f 278 279 351
f 275 274 280
f 275 280 278
f 278 280 281
f 278 281 279
f 282 255 258
f 282 258 283
f 283 258 284
f 284 258 252
f 284 252 251
f 284 251 250
f 284 250 285
f 285 250 249
f 285 249 257
f 285 257 271
f 285 271 286
f 286 271 276
f 286 276 275
f 286 275 296
f 296 275 297
f 297 275 278
f 297 278 298
f 298 278 299
f 299 278 268
f 299 268 287
f 287 268 254
f 287 254 288
f 288 254 253
f 288 253 256
f 288 256 301
f 301 256 265
f 301 265 289
f 289 265 264
f 289 264 263
f 289 263 282
f 282 263 255
f 290 283 284
f 290 284 291
f 291 284 292
f 292 284 285
f 292 285 293
f 293 285 294
f 294 285 286
f 294 286 295
f 295 286 296
f 300 299 287
f 300 287 288
f 300 288 301
f 302 301 289
f 302 289 303
f 303 289 282
f 303 282 290
f 290 282 283
f 304 303 305
f 305 303 290
f 305 290 291
f 305 291 292
f 305 292 306
f 306 292 293
f 306 293 294
f 306 294 307
f 307 294 295
f 307 295 296
f 307 296 308
f 308 296 309
f 309 296 297
f 309 297 298
f 309 298 310
f 310 298 311
f 311 298 299
f 311 299 300
f 311 300 312
f 312 300 301
f 312 301 313
f 313 301 302
f 313 302 304
f 304 302 303
f 309 310 314
f 309 314 308
f 308 314 307
f 307 314 315
f 307 315 316
f 307 316 317
f 307 317 306
f 306 317 318
f 306 318 305
f 305 318 319
f 305 319 320
f 313 321 312
f 312 321 322
f 312 322 311
f 311 322 323
f 311 323 324
f 311 324 310
f 305 320 325
f 305 325 326
f 305 326 304
f 304 326 327
f 304 327 313
f 313 327 328
f 313 328 321
f 56 327 59
f 59 327 326
f 59 326 60
f 60 326 61
f 61 326 325
f 61 325 62
f 62 325 320
f 62 320 57
f 57 320 319
f 57 319 318
f 57 318 64
f 64 318 65
f 65 318 70
f 70 318 317
f 70 317 71
f 71 317 316
f 71 316 66
f 66 316 315
f 66 315 67
f 67 315 314
f 67 314 68
f 68 314 72
f 72 314 73
f 73 314 310
f 73 310 324
f 73 324 55
f 55 324 323
f 55 323 51
f 51 323 322
f 51 322 52
f 52 322 53
f 53 322 321
f 53 321 54
f 54 321 328
f 54 328 327
f 54 327 58
f 58 327 56
f 177 175 330
f 172 170 331
f 170 169 431
f 169 167 332
f 167 166 429
f 166 164 333
f 164 163 334
f 163 161 334
f 150 148 336
f 145 143 337
f 143 142 338
f 142 140 338
f 140 139 397
f 139 137 339
f 137 136 340
f 136 134 340
f 343 252 342
f 345 252 344
f 345 251 252
f 345 250 251
f 346 249 250
f 346 272 249
f 350 277 270
f 352 278 351
f 355 268 353
f 355 254 268
f 356 253 254
f 357 267 253
f 358 273 267
f 266 265 273
f 359 265 266
f 360 264 265
f 263 264 360
f 269 277 361
f 261 263 362
f 362 263 360
f 362 360 363
f 367 269 361
f 367 361 368
f 373 123 113
f 265 359 360
f 360 359 374
f 360 374 363
f 363 374 375
f 363 375 364
f 364 375 365
f 365 373 366
f 366 373 113
f 373 365 123
f 376 121 123
f 375 376 365
f 365 376 123
f 375 125 376
f 376 125 121
f 273 358 266
f 266 358 378
f 266 378 359
f 359 378 379
f 359 379 374
f 374 379 380
f 374 380 375
f 375 380 377
f 375 377 125
f 381 126 377
f 380 381 377
f 382 383 126
f 380 382 381
f 381 382 126
f 380 383 382
f 384 128 127
f 267 357 358
f 358 357 385
f 358 385 378
f 378 385 386
f 378 386 379
f 379 386 387
f 379 387 380
f 380 387 384
f 380 384 383
f 383 384 127
f 387 129 128
f 384 387 128
f 388 130 129
f 253 356 357
f 357 356 385
f 386 385 389
f 386 389 387
f 387 389 388
f 387 388 129
f 389 131 130
f 388 389 130
f 390 120 131
f 254 355 356
f 356 355 391
f 356 391 392
f 356 392 385
f 385 392 393
f 385 393 389
f 389 393 390
f 389 390 131
f 393 394 390
f 390 394 120
f 341 132 395
f 393 395 394
f 394 395 132
f 393 341 395
f 353 354 355
f 355 354 396
f 355 396 391
f 391 396 397
f 391 397 392
f 392 397 340
f 392 340 393
f 393 340 341
f 341 340 134
f 278 352 353
f 353 352 354
f 397 339 340
f 340 339 137
f 339 397 139
f 352 351 398
f 352 398 354
f 354 398 338
f 354 338 396
f 396 338 397
f 397 338 140
f 279 400 351
f 351 400 398
f 398 337 338
f 338 337 143
f 400 399 398
f 337 398 145
f 403 400 279
f 403 279 280
f 280 279 281
f 399 336 146
f 399 146 398
f 398 146 145
f 371 150 336
f 371 336 401
f 401 336 399
f 401 399 400
f 367 403 280
f 367 280 274
f 119 150 371
f 402 401 400
f 402 400 403
f 370 371 401
f 370 401 369
f 369 401 402
f 369 402 368
f 368 402 403
f 368 403 367
f 269 367 274
f 404 117 119
f 277 350 361
f 361 350 405
f 361 405 368
f 368 405 406
f 368 406 369
f 369 406 370
f 370 404 371
f 371 404 119
f 370 407 404
f 404 407 117
f 408 115 117
f 406 405 409
f 406 409 370
f 370 409 408
f 370 408 407
f 407 408 117
f 409 151 408
f 408 151 115
f 270 349 411
f 270 411 350
f 350 411 412
f 350 412 405
f 405 412 409
f 409 412 410
f 409 410 151
f 413 152 410
f 412 413 410
f 414 153 152
f 348 347 415
f 348 415 349
f 349 415 411
f 411 416 412
f 412 416 414
f 412 414 413
f 413 414 152
f 416 154 153
f 414 416 153
f 417 155 154
f 272 346 347
f 347 346 415
f 415 418 411
f 411 418 419
f 411 419 416
f 416 419 417
f 416 417 154
f 419 156 155
f 417 419 155
f 420 157 156
f 346 421 415
f 415 421 418
f 418 422 419
f 419 422 420
f 419 420 156
f 422 158 157
f 420 422 157
f 423 114 158
f 250 345 346
f 346 345 421
f 421 424 418
f 418 424 425
f 418 425 422
f 422 425 423
f 422 423 158
f 425 426 423
f 423 426 114
f 335 159 427
f 345 428 421
f 421 428 424
f 425 427 426
f 426 427 159
f 425 335 427
f 345 344 428
f 428 429 424
f 424 429 334
f 424 334 425
f 425 334 335
f 335 334 161
f 343 430 344
f 344 430 431
f 344 431 428
f 428 431 429
f 429 333 334
f 334 333 164
f 333 429 166
f 342 259 432
f 342 432 343
f 343 432 430
f 431 332 429
f 429 332 167
f 332 431 169
f 432 331 430
f 430 331 431
f 431 331 170
f 432 372 331
f 330 372 435
f 435 372 432
f 433 432 259
f 433 259 262
f 262 259 260
f 372 330 173
f 372 173 331
f 331 173 172
f 436 435 432
f 436 432 433
f 329 177 330
f 329 330 435
f 437 436 433
f 437 433 434
f 434 433 262
f 113 177 329
f 437 434 261
f 261 434 262
f 366 113 329
f 366 329 365
f 365 329 435
f 365 435 364
f 364 435 436
f 364 436 363
f 363 436 437
f 363 437 362
f 362 437 261
f 112 110 439
f 439 110 111
f 439 111 440
f 441 440 442
f 440 109 442
f 442 109 443
f 443 108 444
f 444 108 445
f 445 107 446
f 446 107 447
f 448 450 449
f 452 451 104
f 452 104 103
f 452 103 453
f 453 103 454
f 454 103 102
f 454 102 455
f 455 102 456
f 456 102 100
f 456 100 457
f 457 100 458
f 458 100 99
f 458 99 459
f 459 99 460
f 460 99 97
f 460 97 461
f 461 97 462
f 462 97 96
f 462 96 463
f 463 96 464
f 464 96 93
f 464 93 465
f 465 93 466
f 466 221 467
f 471 470 472
f 470 91 472
f 472 91 473
f 473 90 474
f 474 90 475
f 475 89 476
f 476 89 477
f 478 480 479
f 482 481 86
f 482 86 85
f 482 85 483
f 483 85 484
f 484 85 84
f 484 84 485
f 485 84 486
f 486 84 82
f 486 82 487
f 487 82 488
f 488 82 81
f 488 81 489
f 489 81 490
f 490 81 79
f 490 79 491
f 491 79 492
f 492 79 78
f 492 78 493
f 493 78 494
f 494 78 75
f 494 75 495
f 495 75 496
f 438 496 190
f 438 190 112
f 496 438 495
f 482 497 481
f 481 497 498
f 481 498 480
f 480 498 479
f 452 499 451
f 451 499 500
f 451 500 450
f 450 500 449
f 488 501 487
f 487 501 502
f 487 502 486
f 486 502 503
f 486 503 485
f 485 503 504
f 485 504 484
f 484 504 505
f 484 505 483
f 483 505 506
f 483 506 482
f 482 506 497
f 498 507 479
f 479 507 508
f 479 508 478
f 478 508 509
f 478 509 477
f 477 509 510
f 477 510 476
f 476 510 511
f 476 511 475
f 475 511 512
f 475 512 474
f 474 512 513
f 474 513 473
f 473 513 514
f 473 514 472
f 472 514 515
f 472 515 471
f 471 515 516
f 471 516 470
f 470 516 517
f 470 517 469
f 469 517 518
f 469 518 468
f 468 518 519
f 468 519 467
f 467 519 466
f 466 520 465
f 465 520 521
f 465 521 464
f 464 521 522
f 464 522 463
f 463 522 523
f 463 523 462
f 462 523 524
f 462 524 461
f 461 524 525
f 461 525 460
f 460 525 526
f 460 526 459
f 459 526 527
f 459 527 458
f 458 527 528
f 458 528 457
f 457 528 529
f 457 529 456
f 456 529 530
f 456 530 455
f 455 530 531
f 455 531 454
f 454 531 532
f 454 532 453
f 453 532 533
f 453 533 452
f 452 533 499
f 500 534 449
f 449 534 535
f 449 535 448
f 448 535 536
f 448 536 447
f 447 536 537
f 447 537 446
f 446 537 538
f 446 538 445
f 445 538 539
f 445 539 444
f 444 539 540
f 444 540 443
f 443 540 541
f 443 541 442
f 442 541 542
f 442 542 441
f 441 542 543
f 441 543 440
f 440 543 544
f 440 544 439
f 439 544 545
f 439 545 112
f 112 545 546
f 112 546 438
f 546 547 438
f 438 547 495
f 506 548 497
f 497 548 549
f 497 549 498
f 498 549 507
f 519 550 466
f 466 550 520
f 533 551 499
f 499 551 552
f 499 552 500
f 500 552 534
f 547 553 495
f 495 553 554
f 495 554 494
f 494 554 555
f 494 555 493
f 493 555 556
f 493 556 492
f 492 556 557
f 492 557 491
f 491 557 558
f 491 558 490
f 490 558 559
f 490 559 489
f 489 559 62
f 489 62 488
f 488 62 560
f 488 560 501
f 501 560 561
f 501 561 502
f 502 561 562
f 502 562 503
f 503 562 563
f 503 563 504
f 504 563 564
f 504 564 505
f 505 564 565
f 505 565 506
f 506 565 548
f 549 566 507
f 507 566 567
f 507 567 508
f 508 567 568
f 508 568 509
f 509 568 569
f 509 569 510
f 510 569 511
f 511 569 570
f 511 570 512
f 512 570 571
f 512 571 513
f 513 571 71
f 513 71 514
f 514 71 572
f 514 572 515
f 515 572 573
f 515 573 516
f 516 573 574
f 516 574 517
f 517 574 575
f 517 575 518
f 518 575 576
f 518 576 519
f 519 576 550
f 550 577 520
f 520 577 578
f 520 578 521
f 521 578 579
f 521 579 522
f 522 579 580
f 522 580 523
f 523 580 581
f 523 581 524
f 524 581 582
f 524 582 525
f 525 582 583
f 525 583 526
f 526 583 584
f 526 584 527
f 527 584 585
f 527 585 528
f 528 585 586
f 528 586 529
f 529 586 55
f 529 55 530
f 530 55 587
f 530 587 531
f 531 587 588
f 531 588 532
f 532 588 589
f 532 589 533
f 533 589 551
f 552 590 534
f 534 590 591
f 534 591 535
f 535 591 592
f 535 592 536
f 536 592 593
f 536 593 537
f 537 593 594
f 537 594 538
f 538 594 595
f 538 595 539
f 539 595 596
f 539 596 540
f 540 596 597
f 540 597 541
f 541 597 598
f 541 598 542
f 542 598 599
f 542 599 543
f 543 599 600
f 543 600 544
f 544 600 601
f 544 601 545
f 545 601 602
f 545 602 546
f 546 602 547
f 602 59 547
f 547 59 553
f 553 59 554
f 554 59 60
f 554 60 555
f 555 60 61
f 555 61 556
f 557 556 61
f 557 61 558
f 558 61 559
f 561 560 63
f 561 63 562
f 562 63 563
f 563 63 57
f 563 57 564
f 564 57 565
f 565 57 64
f 565 64 548
f 548 64 549
f 549 64 566
f 566 64 65
f 566 65 567
f 567 65 70
f 567 70 568
f 572 71 66
f 572 66 573
f 573 66 574
f 574 66 67
f 574 67 575
f 575 67 576
f 576 67 550
f 550 67 68
f 550 68 577
f 577 68 72
f 577 72 578
f 579 578 72
f 579 72 580
f 580 72 581
f 581 72 73
f 581 73 582
f 583 582 74
f 583 74 584
f 584 74 585
f 587 55 51
f 587 51 588
f 588 51 589
f 589 51 52
f 589 52 551
f 551 52 552
f 552 52 590
f 590 52 53
f 590 53 591
f 591 53 54
f 591 54 592
f 598 597 69
f 598 69 599
f 599 69 600
f 600 69 56
f 600 56 601
f 601 56 602
f 602 56 59
