v -0.00429044548 0.00286054696 -0.0113447252
v -0.00454571852 -0.000703510772 -0.00919088919
v -0.00723393498 -0.00168152381 -0.00725782778
v -0.00319993388 -0.00123208963 -0.00990162866
v -0.00658354832 0.0029779102 -0.0101177029
v -0.00774341552 -0.00326529566 -0.00594315381
v -0.00191909122 -0.00207909126 -0.00989633014
v -0.00168781471 -0.00728438531 -0.00734120048
v -0.00109873038 -0.00666166386 -0.00804156126
v -0.000829025931 -0.00590996061 -0.00856007975
v 5.0294546e-05 0.000483899893 -0.012452234
v -0.0113042704 -0.00352963739 -0.00378611267
v -0.0113779428 -0.00246785473 -0.00434326057
v -0.00753854262 -0.00495620549 -0.00537155637
v -0.00704679713 -0.00569991514 -0.00517305239
v -0.000702369127 -0.00449204793 -0.00932531627
v -0.00628043963 -0.00671837755 -0.0050881029
v -0.00224842272 -0.00761043496 -0.00684118196
v 0.00162191875 -0.00146534733 -0.0122392761
v -0.0028952948 -0.00779653669 -0.0063723085
v -0.00383070668 -0.00767310703 -0.00566397323
v -0.000171656778 0.00425757791 -0.010408403
v -0.000809876723 0.00277552208 -0.0121281625
v -0.00246266555 0.00362345587 -0.0116720246
v -0.00360861117 0.00543379956 -0.00918899976
v -0.00417624333 0.00413703159 -0.0109933983
v -0.0058722784 0.00429334456 -0.0101228702
v -0.00690242147 0.00521455631 -0.00724392618
v -0.00747442441 0.00408519437 -0.00910041247
v -0.00891115379 0.00352263258 -0.00797082355
v -0.009592557 0.00318315021 -0.00699587115
v -0.0111740138 0.00118692058 -0.00536929204
v -0.0114810157 0.000485883125 -0.00480308743
v -0.0102272668 0.00231321155 -0.00237084897
v -0.0110406876 -0.000508171413 -0.00143118424
v -0.0109110534 -0.00219918807 -0.000548561924
v -0.0104315889 -0.00391165125 0.000152624012
v -0.00914451446 -0.00491131238 0.00177602856
v -0.0103886559 -0.00656488862 -0.00118107458
v -0.00936460716 -0.0079881878 -0.000918162769
v -0.00794286984 -0.00954056136 -0.00116198354
v -0.00647689823 -0.00790325273 0.00220116243
v -0.00500518781 -0.0100687626 0.000385880383
v -0.00638243468 -0.0106136844 -0.00143482725
v -0.00470519647 -0.0113796876 -0.00194693497
v -0.00158930537 -0.011113538 -0.00100296448
v -0.00298893115 -0.0118035873 -0.00267348796
v -0.00130805174 -0.0118674124 -0.00358338056
v 0.00162227326 -0.0107410472 -0.00305935268
v 0.00026034236 -0.011568104 -0.00463454855
v 0.00164661794 -0.0109190128 -0.00578048021
v 0.00256682704 -0.0102541929 -0.00624856095
v 0.00513898106 -0.00721172881 -0.00671028022
v 0.0058646018 -0.00589371095 -0.00681265766
v 0.00437963462 -0.00553580352 -0.0101889239
v 0.00417110108 -0.00384675588 -0.0110146365
v 0.00361589853 -0.00215088157 -0.0116495055
v 0.002412952 -0.000278405956 -0.0122218745
v 0.00273178341 -0.000444365464 -0.0120319926
v 0.00163241708 0.000368057582 -0.0125022972
v 0.00856147416 0.00899565275 0.00112219305
v -0.00599619853 0.00739906774 0.00258230942
v -0.00267862159 0.000669956373 0.012151258
v -0.00447608697 0.000588433093 0.0103042946
v -0.00199234072 -0.000282934496 0.0123027478
v -0.00299174911 -0.00182118656 0.0105280873
v 0.0109768676 -0.00153548871 0.00569480898
v 0.0105229427 0.00652470801 0.00140571404
v 0.0102733929 0.00458670656 -0.000257752222
v 0.00983637486 0.00756599069 0.00120703725
v 0.0082198349 0.00630028089 -0.00198150875
v 0.011015371 0.00574750081 0.00176533388
v 0.0117139677 0.00305004545 0.00236304452
v 0.0118113456 0.00138167648 0.00322542426
v 0.0118688291 0.00144940929 0.0035086955
v 0.0115586962 -0.000188388889 0.00422709408
v 0.0109689047 -0.00159140061 0.00533017384
v 0.0102054883 -0.00258400495 0.00644172252
v 0.00850011015 -0.00474618428 0.00386926239
v 0.00906470941 -0.00350806111 0.00760590364
v 0.0072660947 -0.00560352987 0.00506852984
v 0.0081219283 -0.00385463547 0.00864980539
v 0.00767994477 -0.00412704042 0.00873669824
v 0.00581132888 -0.00613925418 0.00620847452
v 0.00657358767 -0.00421946584 0.00972708844
v 0.00612095881 -0.0044039744 0.0097723822
v 0.00419813949 -0.00632909192 0.00724111262
v 0.00489941966 -0.00421910442 0.0106676777
v 0.00445713863 -0.00432583684 0.0106686619
v 0.00249116126 -0.00616782933 0.00811853855
v 0.00317625219 -0.00385439342 0.0114286045
v 0.00276227703 -0.00389799863 0.011384542
v 0.000764327701 -0.00565825825 0.00880823434
v 0.00133761738 -0.00324430535 0.0118509502
v -0.000908245879 -0.00482214175 0.009279276
v 0.000420934125 -0.00250978536 0.0122108744
v -0.000332567135 -0.00214083681 0.0121719412
v -0.00245251847 -0.00371527156 0.00949550966
v -0.0011795334 -0.00117446202 0.0123494379
v -0.0030750087 0.00157271264 0.0120646886
v -0.0042616045 0.00389681144 0.0109017192
v -0.00409720977 0.00402934739 0.0110569654
v -0.00446425086 0.00556290201 0.0100497965
v -0.0042832085 0.00573181829 0.010201968
v -0.004315367 0.00714794898 0.00904868097
v -0.0041041602 0.00734696983 0.00919004367
v -0.00382354755 0.00858326829 0.00793849907
v -0.00356754692 0.00880182707 0.00806739638
v -0.0025406306 0.0102462444 0.00639440947
v -0.00408531249 0.0091189491 0.00315172096
v -0.00153513746 0.0109726993 0.00573449427
v -0.00133554968 0.0110967905 0.00523506045
v -0.0027778921 0.00991197793 0.0019867296
v 9.98688988e-05 0.0116330827 0.00412376841
v -0.00126538107 0.0103745393 0.000889179603
v 0.00169262251 0.0118226343 0.0031205498
v 0.000387135283 0.0104862258 -9.17268652e-05
v 0.00314774796 0.0117794417 0.00263275367
v 0.00337277818 0.0116569807 0.00226719774
v 0.00211060963 0.0102411242 -0.000917299218
v 0.00486693723 0.0113218209 0.00191563328
v 0.00506843472 0.0111437354 0.00160206522
v 0.00383219002 0.00964883062 -0.00155205743
v 0.00649307037 0.0104431171 0.00122124449
v 0.00547871653 0.00873410915 -0.00196822418
v 0.00763142549 0.0096990535 0.00104530037
v 0.00893643649 0.00421731729 -0.002543142
v -0.00533948748 -0.00127128613 0.0086013182
v 0.00738577521 0.00394695261 -0.00476677383
v -0.00390638141 -0.00322143626 0.00875033017
v -0.00599008703 -0.00322809738 0.00682275407
v -0.00678897443 -0.00471577656 0.0048905681
v 0.00496817376 -0.00813652942 -0.00468935676
v -0.0108919296 0.00169728744 -0.00590136435
v 0.0056979631 0.00361789602 -0.00687710732
v 0.00173105406 0.00104940385 -0.0120790225
v 0.0100979713 0.000757670426 -0.00124911322
v 0.00889177975 0.000508572055 -0.0036778101
v 0.00751900723 0.000267908159 -0.00602111817
v 0.00506096749 0.000499090599 -0.00918224192
v 0.00581722334 -0.0011940462 -0.00865556784
v 0.0098513435 -0.00254718331 0.000753670407
v 0.00900405956 -0.00291901194 -0.00180553655
v 0.00799063986 -0.00321751766 -0.00431893846
v 0.00624123196 -0.00292251524 -0.00791558457
v 0.00631577546 -0.00461136067 -0.00699426832
v 0.00758311068 -0.00584067795 0.000125800834
v 0.00738939021 -0.00554149823 -0.00262768674
v 0.00536975477 -0.00749578123 -0.00527925787
v 0.00712667299 -0.00630720851 0.00111966584
v 0.00428397959 -0.00899062494 -0.00222011367
v 0.00568837333 -0.00757797486 0.00106617651
v 0.00407495964 -0.00861748846 0.000979090046
v 0.00236035679 -0.00948843417 0.000841141675
v 0.00363175167 -0.00794948745 0.00405766358
v -0.000324201306 -0.0101459911 0.00103078004
v -6.90971638e-05 -0.00898559351 0.00347968853
v 0.000169942183 -0.00765761145 0.0058466584
v -0.00379679311 -0.00915426984 0.00242864185
v -0.00353771932 -0.00764465369 0.00467949151
v -0.00776627126 -0.00692805877 0.00197738404
v -0.00543774395 -0.0061285932 0.00494469281
v -0.00322627791 -0.00599053159 0.00682339125
v -0.00666894159 0.00216565961 0.00741222033
v -0.00765778349 0.000168490255 0.00584635308
v -0.0084832919 -0.00182864037 0.00418854172
v -0.00982268901 -0.00206442156 0.0018314375
v -0.00659994785 0.0055221695 0.00548337565
v -0.00794832993 0.00363168896 0.004060805
v -0.00913178661 0.00167362279 0.00258092562
v -0.0105681118 0.000581233047 -0.000684135257
v -0.00759064102 0.00569727274 0.00106724911
v -0.00863361701 0.0040865583 0.000983743503
v -0.0109437826 0.00156541277 -0.00573037986
v -0.0026986721 0.0100298088 0.006884824
v -0.0102948072 0.00243367363 -0.00658594493
v -0.00860039792 0.00468683486 -0.00371364603
v -0.00625808307 0.00703132323 -0.00206161124
v -0.00513815107 0.00815149356 -7.36688005e-05
v -0.00590626806 0.0064923673 -0.00520269867
v -0.0032157559 0.00799115963 -0.00431905103
v -0.00209590874 0.00911238705 -0.00232957462
v -0.0026011375 0.00673928845 -0.00720540439
v 0.000270891009 0.00751968087 -0.00601965399
v 0.00139054521 0.00864109387 -0.00403127813
v 0.000857726879 0.00557713224 -0.00850072689
v 0.00391449831 0.00733676054 -0.00476172121
v 0.00169669361 0.00304122377 -0.0105508459
v 0.00389164284 0.00319971692 -0.00887297643
v 0.00322623239 0.00598028002 -0.00678770923
v 0.00544605219 0.00613834487 -0.0049485801
v 0.00726388116 0.0073759369 -0.00205328038
v 0.0042220232 0.000783221012 0.00932849522
v 0.00360238463 0.00102224882 0.00980994201
v 0.00282275514 0.00147362205 0.00993750855
v 0.00245398222 0.00171557316 0.00998702353
v 0.00762651444 0.00203979243 0.00692960669
v 0.00722327619 0.00172526687 0.00710489853
v 0.00611228334 0.000865533908 0.00836087737
v 0.0053281778 0.000716113193 0.00899217599
v 0.00411557473 -0.00294301216 0.0114750453
v 0.00757709845 0.00458575944 0.00543735724
v 0.00120983707 0.00316662611 0.00981780401
v -0.000480643673 -2.3937898e-05 0.0124355129
v 0.000687944605 0.00500007082 0.00894344922
v 0.00781736073 0.00389220438 0.00579711761
v 0.000829102508 0.00422407101 0.00955172897
v -0.00299574491 0.00547319615 0.0107539746
v 0.000792102597 0.00598282539 0.00859668041
v 0.00106498468 0.00650384476 0.00809246833
v 0.00126464843 0.00686121439 0.0078182405
v 0.00660606136 0.00622185363 0.00506232387
v 0.00992212105 0.00709290392 0.0025562663
v 0.0114028693 0.00105141974 0.00511327578
v -0.00089278929 0.0103630614 0.00681073145
v 0.00231252591 0.00761826319 0.00674845833
v 0.00437786925 0.00763508737 0.00551216848
v 0.00422427072 0.0112947924 0.00338717812
v 0.00293060601 0.00777176875 0.00628633999
v 0.00567661495 0.00690396238 0.00505674954
v 0.00588046284 0.010561363 0.00287939187
v 0.00724752099 0.00979222735 0.00254226312
v 0.0035870546 0.00467725928 0.00109549665
v 0.00125852002 0.00553707929 0.00192366078
v -0.000479018804 0.00501893912 0.0031956486
v -0.0013262577 0.00394466281 0.00427922053
v -0.00149699896 0.00211967847 0.005404625
v -0.000285243604 -0.000125280243 0.00598717854
v 0.00353311272 -0.00143615794 0.00457323666
v 0.00472171296 -0.000878467481 0.00358852422
v 0.00521626876 0.00264197962 0.00132445427
v 0.00499071037 0.0015856653 0.00204728222
v 0.00415899775 0.00205809568 0.00224986934
v 0.00377641888 0.00286139656 0.00201262112
v 0.00280867973 0.00385987668 0.00199531587
v 0.00171123715 0.00421120334 0.00241602536
v -0.000294771239 0.00277005309 0.00435990823
v 0.000200382744 0.00101775133 0.00506883146
v 0.0010747785 -0.000258637028 0.0052954929
v 0.00129574326 -0.000946216644 0.00555862641
v 0.000544761031 0.00406192438 0.00315799499
v 0.00342315909 -9.40092157e-05 0.00387842521
v -0.000512698132 -0.000633686039 -0.0051092441
v -0.00218601549 0.000280151064 -0.00468101253
v -0.00333369999 8.13167156e-05 -0.00392161731
v -0.0040620135 -0.000544961919 -0.00315783882
v -0.00413649351 -0.00222756973 -0.00216695439
v -0.0029502117 -0.00376739911 -0.00196762711
v -0.00119787003 -0.00426265691 -0.00267650249
v -6.39673511e-05 -0.0036058283 -0.00368625862
v 0.000238048747 -0.00282381367 -0.00429760341
v 0.000217956218 -0.0020168286 -0.00474129349
v -0.00290685745 0.00157116218 -0.00500252169
v -0.000564552392 0.000837475284 -0.00590962436
v 0.000939557973 -0.000786433415 -0.00584212401
v -0.00549211427 -0.000856122502 -0.00217590576
v -0.0051522377 0.0002248447 -0.00297712211
v -0.00454612025 0.000976838138 -0.00374295281
v -0.00143015864 -0.00557519214 -0.00180537065
v -0.00347234039 -0.00469957184 -0.00114761714
v -0.00467739239 -0.00358687917 -0.00109547462
v -0.00538898735 -0.00195018839 -0.00161718253
v 0.00156923969 -0.00270945974 -0.00511275623
v 0.000878768361 -0.00472135861 -0.00358885727
v 0.00780833694 0.00978043185 0.00140087961
v 0.00584017273 0.0110630026 0.00192373966
v 0.00239788265 0.0119199913 0.00324596043
v 0.0015171832 0.0119131653 0.0036567663
v 0.00076435776 0.0118326109 0.00421632405
v -5.91914085e-05 0.011640902 0.00469998951
v -0.00072730808 0.0113867681 0.00530887719
v -0.00164045781 0.0108900846 0.00611023791
v 0.00247418301 -0.00335338304 0.0119512694
v 0.00526531886 -0.00404810549 0.0107440169
v 0.00742815705 -0.00395063948 0.00935877438
v 0.00887356968 -0.00341771435 0.00824321385
v 0.00951433824 -0.00306604031 0.0075946327
v 0.00386419959 0.0115413938 0.00337764229
v 0.00274279651 0.0115183613 0.00409481841
v 0.00202320786 0.0115710061 0.00444770928
v 0.000133105492 0.0112276377 0.00570888043
v -0.00209259816 0.00960093652 0.00788119871
v -0.0031982679 0.00700488041 0.00996861875
v -0.00298609512 0.00390224312 0.0115985022
v -0.00209505277 0.00199079193 0.0121940411
v -0.0014287575 0.000876841103 0.0124386507
v 0.0056202161 -0.00322987265 0.0107662153
v 0.00750987986 -0.00303140097 0.00960386362
v 0.00890107951 -0.00256894683 0.00853828264
v 0.00935509271 -0.00211601313 0.00805633279
v 0.00965330939 -0.00228915174 0.00787330732
v 0.0105829449 -0.000894184693 0.00667011494
v 0.0110777494 -9.33844982e-05 0.00591946717
v 0.0115890841 0.00245502896 0.00419465488
v 0.0112872024 0.00445353645 0.00325313332
v -0.00170771058 0.000760213704 0.012544872
v 0.0100950591 0.00714340644 0.00239431045
v 0.0078415765 0.00963779509 0.00223022486
v 0.00971683888 0.00788018826 0.00208746206
v 0.00949521584 0.00823364655 0.00183700676
v 0.00983844749 0.00787379648 0.00162709573
v 0.00884793968 0.00884796787 0.00134099599
v 0.00122175909 -0.00180430714 0.0124187981
v 0.00014906139 -0.00102470913 0.0125807812
v -0.000107933004 -0.00154708353 0.0126317332
v -0.000891536618 -0.000926780634 0.0126406214
v 0.000375785891 -0.00226167833 0.0123828433
v 0.00413190098 -0.00394372534 0.0112136709
v 0.0094923851 0.00814749408 0.00137258645
v 0.0110542966 0.00556529961 0.00263342952
v 0.0107752751 0.00633257029 0.00218290136
v 0.0100735304 0.00739891935 0.00146711941
v 0.0105846998 0.00661070753 0.00162328358
v 0.01149273 0.00451139946 0.00292739037
v 0.0112156471 0.00546637004 0.00219130467
v 0.0113695477 0.00490476471 0.00204072595
v 0.0117562811 0.0015783288 0.00449111309
v 0.0119116777 0.00224165447 0.00386100786
v 0.0119306156 0.00295139794 0.00322343069
v 0.0116450665 0.00409932542 0.00244153615
v 0.0118274567 0.00324483324 0.00282050248
v 0.011893688 0.00277122829 0.00300377515
v 0.0119217512 0.00156791616 0.00371302243
v 0.0108914209 -0.00107024718 0.00642370533
v 0.011344245 -0.000583625186 0.0056971342
v 0.0117993965 0.000565507676 0.00452759783
v 0.0116536495 -3.6199032e-06 0.00475038167
v 0.011546858 -0.000377914801 0.0050950328
v 0.0110351917 -0.00139860701 0.00588573094
v 0.00963412514 -0.00274729106 0.00781050175
v 0.0106059743 -0.0020072321 0.00652979236
v 0.0100942728 -0.00255404305 0.00706781026
v 0.00717805699 -0.00340952576 0.00988535435
v 0.00791949814 -0.00346777621 0.00933142846
v 0.00792110921 -0.00371390008 0.00914078918
v 0.00419429306 -0.00336482512 0.0114942472
v 0.00499046647 -0.00375393205 0.0110675963
v 0.00636602586 -0.00399749766 0.010177684
v 0.00281797619 -0.00256197047 0.0119691002
v 0.00226233234 -0.00284141914 0.0121566048
v 0.00245414248 -0.00255342548 0.0121230602
v 0.00196906399 -0.00279166893 0.0122444895
v -0.00241613412 0.00140895128 0.0124095785
v -0.000700724409 -0.0013741095 0.0124896872
v -0.00137413769 -0.000700696224 0.0124896872
v -0.0019877079 2.4871117e-05 0.0124266254
v -0.00322529954 0.0038994789 0.0116302766
v -0.00261600007 0.00115626512 0.012323374
v -0.00354939283 0.00382598023 0.0115687863
v -0.00321854381 0.00254286934 0.0119754183
v -0.00346925324 0.00240484809 0.0118181253
v -0.00371719627 0.00327731777 0.0115678417
v -0.00342604187 0.00708168603 0.00994897483
v -0.00373970729 0.00632485261 0.010384098
v -0.00394369392 0.00413186956 0.0112136709
v -0.00400421104 0.00534046349 0.0107466422
v -0.00412858753 0.00582344938 0.0103640663
v -0.00394289216 0.00697270464 0.00979188153
v -0.00227478782 0.00973783411 0.00780203083
v -0.00288908606 0.00922460777 0.00826925092
v -0.00395060806 0.00742818523 0.00935877438
v -0.00352451286 0.00846923532 0.00871175312
v -0.00341774254 0.00887359787 0.00824321385
v -0.00263463117 0.00983355587 0.00753886604
v -0.0030798978 0.00950294324 0.00759610058
v 2.28913414e-05 0.011393701 0.00557257867
v -0.00148133607 0.0108262586 0.00645532549
v -0.00255407123 0.010094301 0.00706781026
v 0.000612580439 0.0117310194 0.00488133412
v 0.00048081215 0.0117985655 0.00469051268
v 0.00228439919 0.0117545695 0.00408869671
v 0.0034106393 0.0117922442 0.00326138483
v 0.00291494548 0.0118921884 0.00324856146
v 0.00388809516 0.0117277035 0.0026247952
v 0.00547942024 0.0109437562 0.00285306011
v 0.00583688176 0.0110234437 0.00240043137
v 0.00625346989 0.0106800411 0.00251816832
v 0.00740026207 0.00986667085 0.00237668629
v 0.00706964356 0.0104099805 0.0017581266
v 0.00782338053 0.00980843405 0.00188744502
v 0.000960627406 0.000992280842 -0.0125572934
v 0.00218356012 -0.000448361581 -0.0124348801
v 0.0029746292 -0.00161407306 -0.0121677945
v 0.00310898786 -0.0020241149 -0.0120777581
v 0.00346691511 -0.00284261214 -0.0118111558
v 0.00380737413 -0.00364755827 -0.0114567901
v 0.00393035031 -0.00454153644 -0.011114507
v 0.0040977164 -0.00534555125 -0.010662496
v 0.00403725615 -0.00621365286 -0.0102321903
v 0.00402815565 -0.00697932302 -0.00970127152
v 0.0038590141 -0.00774844026 -0.00917138375
v 0.00352447967 -0.00850720183 -0.00864928665
v 0.00356743022 -0.00867397587 -0.00835820941
v 0.00303336134 -0.00958341904 -0.00749831857
v 0.00224298204 -0.0103570463 -0.00687521704
v 0.00165573075 -0.0108361647 -0.0062793134
v 0.00101779539 -0.0112289636 -0.00569797727
v 0.000323454202 -0.0115393236 -0.00513152531
v -0.000419411421 -0.0117636822 -0.00458616314
v -0.00120206594 -0.0118995025 -0.00406829228
v -0.00201594484 -0.0119452151 -0.00358356044
v -0.00285128816 -0.0119003334 -0.00313760944
v -0.00369952963 -0.0117653401 -0.00273539689
v -0.00455071338 -0.0115417828 -0.00238158261
v -0.00539459809 -0.0112322712 -0.00208030428
v -0.00622278387 -0.0108399947 -0.00183462567
v -0.00702454781 -0.0103699265 -0.00164737374
v -0.00779165381 -0.00982697908 -0.00152107752
v -0.00883260189 -0.00891631095 -0.00139319424
v -0.00947997497 -0.00821904965 -0.00141367089
v -0.0100664229 -0.00747197139 -0.0015053281
v -0.0103458481 -0.00706160376 -0.0016400445
v -0.0110415269 -0.00583438739 -0.00188369797
v -0.0112026983 -0.00546443924 -0.00206735812
v -0.0115157172 -0.00461429484 -0.00227139812
v -0.0117492109 -0.00376164249 -0.00262002631
v -0.0118944716 -0.00291068717 -0.00301770191
v -0.0119497098 -0.00207210154 -0.00345912528
v -0.011914604 -0.00125385707 -0.00393998143
v -0.0117893638 -0.000465699108 -0.00445413936
v -0.0115644984 0.000251699764 -0.00507944791
v -0.0112624068 0.000950760581 -0.00564423108
v -0.0103978527 0.00219917726 -0.00682760487
v -0.00984885085 0.00271255735 -0.00743213882
v -0.00924193135 0.00314480899 -0.008018147
v -0.0085746761 0.00349693978 -0.00859312471
v -0.00785518142 0.00376478127 -0.00914960385
v -0.0070913994 0.00394521246 -0.00968194287
v -0.00629201683 0.00403578906 -0.0101842498
v -0.00546638623 0.0040364689 -0.0106498021
v -0.00462271381 0.00394631081 -0.0110748241
v -0.00377248522 0.00376687042 -0.0114530944
v -0.00292335499 0.00349967416 -0.0117813691
v -0.00208634128 0.00314863819 -0.0120551145
v -0.00127050004 0.00271676119 -0.0122719512
v -0.000484792417 0.00220936796 -0.0124289732
v 0.000394132605 0.00175821739 -0.0124111544
v 0.000129384489 0.00142741133 -0.0126015303
v -0.0108216106 0.00146821752 -0.00644902773
v 0.00251727685 -0.00984143276 -0.00759358708
v 0.00294232014 -0.00924349147 -0.00817032768
v -0.000734198612 0.00179181709 -0.0125275214
v -0.00148886974 0.00228374129 -0.0123796303
v -0.00227410744 0.00270423476 -0.01217385
v -0.00307938721 0.00304708966 -0.011913003
v -0.00389679766 0.00330901142 -0.0115996517
v -0.00471734297 0.00348711749 -0.0112372492
v -0.00552933671 0.00357834199 -0.01083096
v -0.00632651386 0.00358284531 -0.0103839018
v -0.00709874771 0.00350001454 -0.00990182258
v -0.00783677287 0.00333109372 -0.00939038621
v -0.00853181873 0.00307773876 -0.00885579361
v -0.00917805598 0.0027427694 -0.00830236986
v -0.0097656258 0.00233039534 -0.00773880015
v -0.010290546 0.00184474339 -0.00716863306
v -0.011124142 0.000677385179 -0.00604017143
v -0.0114237419 9.15994098e-06 -0.005494388
v -0.0116403322 -0.000705835302 -0.00496915364
v -0.0117717383 -0.00145946781 -0.00447023205
v -0.0118166234 -0.00224370175 -0.00400258688
v -0.0117741427 -0.00304871387 -0.00357251831
v -0.011644765 -0.00386585991 -0.0031847805
v -0.0114301836 -0.00468516429 -0.00284384034
v -0.0111323521 -0.00549946892 -0.00255241331
v -0.0107553813 -0.00629674687 -0.00231557129
v -0.0103032515 -0.0070690211 -0.00213524432
v -0.00978035687 -0.00780922112 -0.00201245572
v -0.00919379985 -0.00850642379 -0.00195005522
v -0.00854934502 -0.00915437522 -0.00194802992
v -0.00785461897 -0.00974507599 -0.0020067179
v -0.00711823404 -0.0102714248 -0.00212531326
v -0.0063463968 -0.0107290534 -0.00230220897
v -0.00555026687 -0.0111109474 -0.00253592034
v -0.00473810799 -0.0114134358 -0.00282344682
v -0.00391786322 -0.0116337389 -0.00316156828
v -0.00310004136 -0.0117686338 -0.00354656799
v -0.00229461501 -0.0118165523 -0.00397396105
v -0.00150925012 -0.0117773212 -0.00443901378
v -0.000752893558 -0.0116513005 -0.00493646576
v -3.49833501e-05 -0.0114398812 -0.00546051786
v 0.000636612772 -0.0111453854 -0.00600532609
v 0.00125449713 -0.0107712727 -0.00656459784
v 0.00181199466 -0.0103213778 -0.0071326346
v 0.00305857193 -0.00857501657 -0.00882060555
v 0.00331761645 -0.00788183529 -0.00935734091
v 0.00349183682 -0.00714677176 -0.00987014199
v 0.00358008417 -0.0063766785 -0.010354135
v 0.00358121056 -0.00558090621 -0.0108035118
v 0.0034952815 -0.00476871641 -0.011212981
v 0.00332287622 -0.00394925729 -0.0115779439
v 0.00306629116 -0.0031314694 -0.0118944912
v 0.00272843494 -0.00232476896 -0.0121588818
v 0.00231317098 -0.0015389206 -0.0123680321
v 0.00182492808 -0.000780814544 -0.0125199159
v 0.00126954346 -6.17403535e-05 -0.0126123919
v 0.000653204296 0.000611880035 -0.012644623
v -0.000135294022 0.00101741168 -0.0125739379
v -0.0106066121 0.00113515324 -0.00673554583
v 0.00206743489 -0.00973589831 -0.00775210427
v 0.00247699532 -0.00917025335 -0.00830218442
v -0.00095046787 0.00151588131 -0.0124323261
v -0.00167728691 0.00198729444 -0.0122883213
v -0.00243247776 0.00238879133 -0.0120888842
v -0.00320733814 0.00271602083 -0.0118363989
v -0.00399328499 0.00296510864 -0.0115337265
v -0.00478125839 0.00313325334 -0.0111842049
v -0.00556231766 0.0032186668 -0.0107918871
v -0.00632764129 0.00322021652 -0.0103613031
v -0.00693643759 0.00310033853 -0.00997118844
v -0.00760413558 0.0029510842 -0.00951396039
v -0.00831629088 0.00271828106 -0.00897761944
v -0.00742610034 -0.00118614809 -0.00771677512
v -0.00950807213 0.0020251486 -0.00791468993
v -0.0101286295 0.001535074 -0.00726758365
v -0.0108595842 0.00042939064 -0.0062498444
v -0.011136348 -0.000197889275 -0.00574382018
v -0.01143838 -0.00121798239 -0.00499671508
v -0.0115807178 -0.0024033029 -0.00422786598
v -0.0115372065 -0.00317762684 -0.00381587867
v -0.0114102486 -0.00396327566 -0.00344442252
v -0.0112012747 -0.00475124907 -0.00311790828
v -0.0109127882 -0.00553278517 -0.00283991222
v -0.0105478886 -0.00629888367 -0.00261365299
v -0.0101107481 -0.00704090189 -0.00244163398
v -0.00966276437 -0.00762049511 -0.00238834155
v -0.00904060631 -0.00841961693 -0.00226770763
v -0.00841964512 -0.00904057812 -0.00226770763
v -0.00747759685 -0.00977604186 -0.00240658278
v -0.00641380481 -0.0104455058 -0.002627377
v -0.00435544343 -0.00816085956 -0.00549553535
v -0.00446052953 -0.011254533 -0.00327411371
v -0.00332136494 -0.0114789867 -0.00378841928
v -0.00240327148 -0.0115806897 -0.00422786598
v -0.00164903431 -0.0115403373 -0.0046759737
v -0.000923526571 -0.0114165385 -0.00515495662
v -0.000234735296 -0.0112107236 -0.00565945033
v 0.000409352496 -0.0109251578 -0.00618373279
v 0.00100158425 -0.0105631192 -0.00672172431
v 0.00153504582 -0.0101286609 -0.00726758365
v 0.00272690029 -0.00844417405 -0.00888954524
v 0.00297294827 -0.00777678084 -0.00940464858
v 0.00305946961 -0.0071757627 -0.00981315
v 0.00315513327 -0.00644333729 -0.0102800934
v 0.00315878131 -0.0057283223 -0.0106889244
v 0.00309580342 -0.00491324051 -0.0111094855
v 0.00294391446 -0.00417556291 -0.0114432435
v 0.00270771592 -0.00334867888 -0.0117729142
v 0.00238882275 -0.00243250918 -0.0120888842
v 0.00198732586 -0.00167731833 -0.0122883213
v 0.00151585312 -0.00095049929 -0.0124323261
v 0.000980007365 -0.000260158294 -0.0125194681
v 0.000385749056 0.000385777241 -0.0125485552
v 0.00634013386 0.00634016204 0.00883771058
v -0.00498439102 -0.00443540406 -0.0106762541
v 0.00603746147 0.00658644844 0.00886953946
v -0.00532306461 -0.00426243138 -0.010582794
v 0.00569878788 0.00675942112 0.00896299954
v -0.0056744936 -0.00417457413 -0.0104342592
v 0.00534723969 0.00684727836 0.00911153432
v -0.00601483612 -0.00417773318 -0.0102405441
v 0.00500701638 0.00684411932 0.00930524941
v -0.00632084636 -0.00427178931 -0.0100150001
v 0.00470100613 0.00675006319 0.00953079339
v -0.0065715435 -0.00445024561 -0.00977288608
v 0.00445030899 0.00657160688 0.00977290745
v -0.00675011902 -0.00470100235 -0.00953089122
v 0.00427173348 0.00632079054 0.0100149023
v -0.00684405594 -0.0050070126 -0.00930522804
v 0.00417767735 0.00601483989 0.0102405655
v -0.00684727459 -0.00534729552 -0.00911163215
v 0.00417457791 0.00567455698 0.0104341614
v -0.00675941734 -0.0056987245 -0.00896297817
v 0.00426243515 0.00532306839 0.0105828154
v -0.00658644466 -0.00603739809 -0.00886951808
v 0.00443540783 0.0049844544 0.0106762755
v -0.00634015827 -0.00634018969 -0.0088376892
v 0.00468169422 0.0046816628 0.0107081043
v -0.00603736667 -0.00658641648 -0.00886951808
v 0.00498448582 0.00443537641 0.0106762755
v -0.00569869308 -0.00675938916 -0.00896297817
v 0.0053230402 0.00426246334 0.0105828154
v -0.0053472641 -0.00684730601 -0.00911163215
v 0.0056745884 0.00417454649 0.0104341614
v -0.00500704078 -0.00684408736 -0.00930522804
v 0.00601481171 0.00417776514 0.0102405655
v -0.00470103054 -0.00675009083 -0.00953089122
v 0.00632082196 0.00427176166 0.0100149023
v -0.00445021419 -0.00657157492 -0.00977288608
v 0.0065716383 0.00445027757 0.00977290745
v -0.00427175789 -0.00632081818 -0.0100150001
v 0.00675009461 0.00470103431 0.00953079339
v -0.00417770176 -0.00601486754 -0.0102405441
v 0.00684415074 0.00500698496 0.00930524941
v -0.00417460232 -0.00567452502 -0.0104342592
v 0.00684725018 0.00534726787 0.00911153432
v -0.00426245956 -0.00532309603 -0.010582794
v 0.00675939293 0.00569875646 0.00896299954
v -0.00443543224 -0.00498442244 -0.0106762541
v 0.00658642025 0.00603743005 0.00886953946
v -0.00468171863 -0.00468169045 -0.010708083
v -0.00551093845 -0.00551091027 -0.00977288608
v 0.00551091404 0.00551094223 0.00977290745
f 512 511 510
f 2 1 4
f 510 509 512
f 512 509 5
f 512 5 2
f 2 5 1
f 3 513 512
f 6 516 3
f 3 516 515
f 4 11 7
f 6 517 516
f 14 12 6
f 6 12 13
f 6 13 517
f 16 544 543
f 16 543 542
f 16 546 545
f 16 545 544
f 7 19 16
f 16 19 547
f 16 547 546
f 7 11 19
f 530 528 17
f 530 529 528
f 21 531 530
f 21 20 532
f 21 532 531
f 69 72 316
f 69 316 73
f 73 322 74
f 74 75 76
f 76 328 77
f 64 100 351
f 64 351 101
f 101 102 103
f 103 104 105
f 105 106 107
f 107 108 365
f 68 72 69
f 63 100 64
f 70 68 69
f 65 63 64
f 71 70 69
f 71 69 127
f 66 65 64
f 66 64 128
f 61 70 192
f 192 70 71
f 71 127 129
f 99 65 66
f 130 66 128
f 130 128 131
f 192 71 191
f 191 71 129
f 191 129 135
f 69 73 137
f 69 137 127
f 127 137 138
f 127 138 129
f 129 138 139
f 129 139 135
f 135 139 140
f 135 140 189
f 189 140 59
f 189 59 136
f 136 59 58
f 136 58 60
f 73 74 137
f 139 141 140
f 140 141 57
f 140 57 383
f 140 383 59
f 74 76 142
f 74 142 137
f 137 142 143
f 137 143 138
f 138 143 144
f 138 144 139
f 139 144 145
f 139 145 141
f 141 145 56
f 141 56 386
f 141 386 57
f 76 77 142
f 144 146 145
f 145 146 55
f 145 55 388
f 145 388 56
f 77 147 142
f 142 147 148
f 142 148 143
f 143 148 144
f 144 148 54
f 144 54 146
f 146 54 390
f 146 390 55
f 54 391 390
f 148 147 149
f 148 149 53
f 148 53 54
f 54 53 393
f 54 393 391
f 147 133 149
f 53 149 393
f 52 133 151
f 151 133 147
f 150 147 79
f 79 147 78
f 78 147 77
f 78 77 331
f 331 77 67
f 52 394 133
f 133 394 149
f 149 394 393
f 152 151 147
f 152 147 150
f 49 51 52
f 49 52 151
f 152 150 81
f 81 150 79
f 81 79 80
f 80 79 277
f 277 79 78
f 50 51 49
f 153 151 152
f 154 49 151
f 154 151 153
f 155 153 152
f 155 152 84
f 84 152 81
f 84 81 83
f 83 81 82
f 82 81 80
f 48 50 49
f 154 153 155
f 46 48 49
f 46 49 156
f 156 49 154
f 87 155 84
f 87 84 86
f 86 84 85
f 85 84 83
f 47 48 46
f 157 156 154
f 157 154 155
f 158 157 155
f 158 155 90
f 90 155 87
f 90 87 89
f 89 87 88
f 88 87 86
f 45 47 46
f 43 45 46
f 43 46 159
f 159 46 156
f 159 156 157
f 93 158 90
f 93 90 92
f 92 90 91
f 91 90 89
f 44 45 43
f 160 159 157
f 160 157 158
f 163 160 158
f 163 158 95
f 95 158 93
f 95 93 94
f 94 93 92
f 41 44 43
f 95 94 96
f 42 41 43
f 42 43 159
f 42 159 160
f 98 163 95
f 98 95 97
f 97 95 96
f 40 41 161
f 161 41 42
f 162 42 160
f 162 160 163
f 97 99 98
f 98 99 66
f 98 66 130
f 98 130 163
f 163 130 131
f 163 131 162
f 162 131 132
f 162 132 42
f 42 132 161
f 64 101 164
f 64 164 128
f 128 164 165
f 128 165 131
f 131 165 166
f 131 166 132
f 132 166 38
f 132 38 161
f 161 38 40
f 40 410 409
f 38 39 40
f 40 39 411
f 40 411 410
f 101 103 164
f 166 167 38
f 167 37 38
f 38 37 413
f 38 413 39
f 103 105 168
f 103 168 164
f 164 168 169
f 164 169 165
f 165 169 170
f 165 170 166
f 166 170 167
f 37 415 413
f 167 36 37
f 37 36 416
f 37 416 415
f 105 107 168
f 170 171 167
f 167 171 36
f 36 417 416
f 171 35 36
f 36 35 418
f 36 418 417
f 365 62 107
f 107 62 172
f 107 172 168
f 168 172 173
f 168 173 169
f 169 173 170
f 170 173 171
f 35 419 418
f 35 171 420
f 35 420 419
f 173 172 34
f 173 34 171
f 171 34 33
f 171 33 420
f 34 32 33
f 62 177 172
f 172 177 134
f 172 134 34
f 34 134 174
f 34 174 32
f 178 177 62
f 178 62 179
f 179 62 110
f 110 62 109
f 109 62 175
f 175 62 365
f 31 176 177
f 177 176 134
f 28 30 31
f 28 31 180
f 180 31 177
f 180 177 178
f 113 179 110
f 113 110 112
f 112 110 111
f 111 110 109
f 29 30 28
f 181 180 178
f 181 178 182
f 182 178 179
f 182 179 115
f 115 179 113
f 115 113 114
f 114 113 270
f 270 113 112
f 27 29 28
f 25 27 28
f 25 28 183
f 183 28 180
f 183 180 181
f 117 182 115
f 117 115 116
f 116 115 268
f 268 115 114
f 26 27 25
f 184 183 181
f 184 181 185
f 185 181 182
f 185 182 120
f 120 182 117
f 120 117 119
f 119 117 118
f 118 117 116
f 24 26 25
f 22 24 25
f 22 25 186
f 186 25 183
f 186 183 184
f 123 185 120
f 123 120 122
f 122 120 121
f 121 120 119
f 23 24 22
f 190 186 184
f 190 184 187
f 187 184 185
f 187 185 125
f 125 185 123
f 125 123 124
f 124 123 122
f 437 23 22
f 125 124 126
f 188 437 22
f 188 22 189
f 189 22 186
f 189 186 190
f 191 190 187
f 191 187 192
f 192 187 125
f 192 125 126
f 126 61 192
f 190 191 135
f 190 135 189
f 188 189 136
f 188 136 437
f 194 201 193
f 193 201 200
f 198 292 197
f 288 289 199
f 199 289 290
f 199 290 198
f 198 290 292
f 204 196 203
f 203 285 286
f 203 286 204
f 209 208 205
f 205 208 207
f 295 213 202
f 202 213 212
f 197 214 206
f 215 211 216
f 219 217 279
f 220 222 217
f 217 222 221
f 217 221 218
f 212 222 220
f 223 212 220
f 223 220 217
f 223 217 224
f 224 217 219
f 224 219 216
f 224 216 225
f 225 216 211
f 225 211 226
f 226 211 210
f 226 210 209
f 226 209 227
f 227 209 205
f 227 205 207
f 227 207 203
f 227 203 228
f 228 203 196
f 228 196 195
f 228 195 239
f 239 195 194
f 239 194 240
f 240 194 193
f 240 193 200
f 240 200 229
f 229 200 199
f 229 199 230
f 230 199 198
f 230 198 232
f 232 198 197
f 232 197 206
f 232 206 231
f 231 206 202
f 231 202 212
f 231 212 223
f 233 232 231
f 233 231 234
f 234 231 235
f 235 231 223
f 235 223 236
f 237 227 238
f 238 227 228
f 238 228 239
f 223 224 236
f 236 224 241
f 241 224 225
f 241 225 237
f 237 225 226
f 237 226 227
f 242 240 229
f 242 229 230
f 242 230 232
f 243 235 244
f 244 235 236
f 244 236 241
f 244 241 245
f 245 241 246
f 246 241 237
f 246 237 247
f 247 237 238
f 247 238 248
f 248 238 239
f 248 239 249
f 249 239 240
f 249 240 242
f 249 242 250
f 250 242 232
f 250 232 251
f 251 232 252
f 252 232 233
f 252 233 243
f 243 233 234
f 243 234 235
f 244 253 254
f 244 254 243
f 243 254 255
f 243 255 252
f 247 256 246
f 246 256 257
f 246 257 258
f 246 258 245
f 245 258 244
f 244 258 253
f 249 259 248
f 248 259 260
f 248 260 261
f 248 261 247
f 247 261 262
f 247 262 256
f 255 263 252
f 252 263 251
f 251 263 250
f 250 263 264
f 250 264 249
f 249 264 259
f 7 254 4
f 4 254 2
f 2 254 253
f 2 253 512
f 512 253 258
f 512 258 3
f 3 258 257
f 3 257 6
f 6 257 256
f 6 256 262
f 6 262 14
f 14 262 261
f 14 261 15
f 15 261 17
f 17 261 530
f 530 261 260
f 530 260 259
f 530 259 21
f 21 259 20
f 20 259 18
f 18 259 264
f 18 264 8
f 8 264 9
f 9 264 10
f 10 264 263
f 10 263 16
f 16 263 255
f 16 255 7
f 7 255 254
f 126 124 266
f 119 118 374
f 118 116 267
f 268 114 269
f 270 112 271
f 112 111 272
f 111 109 272
f 96 94 273
f 89 88 274
f 88 86 274
f 86 85 338
f 85 83 275
f 83 82 335
f 82 80 276
f 278 217 218
f 281 219 279
f 281 216 219
f 281 215 216
f 282 211 215
f 282 210 211
f 283 209 210
f 283 208 209
f 284 207 208
f 284 203 207
f 287 200 201
f 288 199 200
f 293 197 292
f 294 206 214
f 295 202 206
f 297 213 295
f 304 204 286
f 304 286 296
f 304 296 305
f 212 213 298
f 298 213 297
f 298 297 299
f 196 204 303
f 303 204 304
f 309 70 61
f 297 295 310
f 297 310 299
f 299 310 311
f 299 311 300
f 300 311 301
f 301 309 302
f 302 309 61
f 301 312 309
f 309 312 70
f 313 68 70
f 295 314 310
f 310 314 311
f 311 314 315
f 311 315 301
f 301 315 313
f 301 313 312
f 312 313 70
f 206 294 295
f 295 294 314
f 315 72 313
f 313 72 68
f 294 317 314
f 314 317 318
f 314 318 319
f 314 319 315
f 315 319 316
f 315 316 72
f 320 73 316
f 294 214 317
f 319 320 316
f 321 322 73
f 319 321 320
f 320 321 73
f 197 293 214
f 214 293 317
f 319 322 321
f 323 75 74
f 293 292 324
f 293 324 317
f 317 324 325
f 317 325 318
f 318 325 326
f 318 326 319
f 319 326 323
f 319 323 322
f 322 323 74
f 326 76 75
f 323 326 75
f 327 328 76
f 290 291 292
f 292 291 324
f 325 328 326
f 326 328 327
f 326 327 76
f 329 67 77
f 290 289 291
f 291 330 324
f 324 330 331
f 324 331 325
f 325 331 329
f 325 329 328
f 328 329 77
f 329 331 67
f 277 78 332
f 288 333 289
f 289 333 334
f 289 334 291
f 291 334 330
f 330 332 331
f 331 332 78
f 330 277 332
f 200 287 288
f 288 287 333
f 334 335 330
f 330 335 276
f 330 276 277
f 277 276 80
f 276 335 82
f 287 201 336
f 287 336 333
f 333 336 337
f 333 337 334
f 334 337 338
f 334 338 335
f 335 338 275
f 335 275 83
f 275 338 85
f 337 274 338
f 338 274 86
f 336 273 337
f 337 273 308
f 337 308 274
f 274 308 89
f 94 92 273
f 342 273 340
f 340 273 336
f 340 336 341
f 341 336 339
f 339 336 201
f 339 201 194
f 273 92 91
f 273 91 308
f 308 91 89
f 341 339 194
f 307 96 273
f 307 273 305
f 305 273 342
f 342 340 303
f 303 340 341
f 303 341 195
f 195 341 194
f 306 307 305
f 305 342 304
f 304 342 303
f 196 303 195
f 286 285 296
f 296 343 305
f 305 343 306
f 306 344 307
f 307 344 97
f 307 97 96
f 345 65 99
f 344 99 97
f 203 284 285
f 285 284 296
f 306 345 344
f 344 345 99
f 284 347 296
f 296 347 343
f 343 348 306
f 306 348 346
f 306 346 345
f 345 346 65
f 348 63 65
f 346 348 65
f 347 349 343
f 343 349 350
f 343 350 348
f 348 350 100
f 348 100 63
f 208 283 284
f 284 283 347
f 350 349 351
f 350 351 100
f 352 101 351
f 283 353 347
f 347 353 354
f 347 354 349
f 349 352 351
f 355 102 101
f 354 356 349
f 349 356 355
f 349 355 352
f 352 355 101
f 356 103 102
f 355 356 102
f 357 104 103
f 210 282 283
f 283 282 353
f 354 358 356
f 356 358 357
f 356 357 103
f 358 105 104
f 282 359 353
f 353 359 360
f 353 360 354
f 354 360 358
f 357 358 104
f 361 106 105
f 360 362 358
f 358 362 361
f 358 361 105
f 362 107 106
f 361 362 106
f 363 108 107
f 215 281 282
f 282 281 359
f 360 364 362
f 362 364 363
f 362 363 107
f 281 366 359
f 359 366 367
f 359 367 360
f 360 367 364
f 364 365 363
f 363 365 108
f 109 175 368
f 368 175 365
f 364 367 368
f 364 368 365
f 366 369 367
f 367 272 368
f 368 272 109
f 279 280 281
f 281 280 366
f 369 370 367
f 367 370 272
f 280 279 371
f 280 371 366
f 366 371 369
f 370 271 272
f 272 271 112
f 217 278 279
f 279 278 371
f 370 270 271
f 371 278 372
f 371 372 369
f 369 372 370
f 370 269 270
f 270 269 114
f 218 375 278
f 372 373 370
f 370 373 268
f 370 268 269
f 375 376 278
f 278 376 372
f 373 267 268
f 268 267 116
f 372 376 374
f 372 374 373
f 373 374 267
f 267 374 118
f 376 266 374
f 124 122 266
f 379 266 376
f 377 376 375
f 221 375 218
f 266 122 121
f 266 121 374
f 374 121 119
f 377 375 222
f 222 375 221
f 265 126 266
f 265 266 379
f 380 379 376
f 380 376 298
f 298 376 377
f 298 377 378
f 378 377 222
f 61 126 265
f 298 378 222
f 302 61 265
f 302 265 301
f 301 265 379
f 301 379 300
f 300 379 380
f 300 380 299
f 299 380 298
f 212 298 222
f 60 58 382
f 382 58 59
f 382 59 383
f 384 383 385
f 383 57 385
f 385 57 386
f 386 56 387
f 387 56 388
f 388 55 389
f 389 55 390
f 391 393 392
f 395 394 52
f 395 52 51
f 395 51 396
f 396 51 397
f 397 51 50
f 397 50 398
f 398 50 399
f 399 50 48
f 399 48 400
f 400 48 401
f 401 48 47
f 401 47 402
f 402 47 403
f 403 47 45
f 403 45 404
f 404 45 405
f 405 45 44
f 405 44 406
f 406 44 407
f 407 44 41
f 407 41 408
f 41 409 408
f 41 40 409
f 412 411 39
f 412 39 413
f 414 413 415
f 420 33 421
f 421 33 422
f 33 32 422
f 422 32 134
f 32 174 134
f 134 176 423
f 423 176 31
f 423 31 424
f 424 31 30
f 424 30 425
f 425 30 426
f 426 30 29
f 426 29 427
f 427 29 428
f 428 29 27
f 428 27 429
f 429 27 430
f 430 27 26
f 430 26 431
f 431 26 432
f 432 26 24
f 432 24 433
f 433 24 434
f 434 24 23
f 434 23 435
f 435 23 436
f 436 23 437
f 381 437 136
f 381 136 60
f 381 438 437
f 437 438 436
f 423 439 134
f 134 439 422
f 395 440 394
f 394 440 441
f 394 441 393
f 393 441 392
f 438 442 436
f 436 442 443
f 436 443 435
f 435 443 444
f 435 444 434
f 434 444 445
f 434 445 433
f 433 445 446
f 433 446 432
f 432 446 447
f 432 447 431
f 431 447 448
f 431 448 430
f 430 448 449
f 430 449 429
f 429 449 450
f 429 450 428
f 428 450 451
f 428 451 427
f 427 451 452
f 427 452 426
f 426 452 453
f 426 453 425
f 425 453 454
f 425 454 424
f 424 454 455
f 424 455 423
f 423 455 439
f 439 456 422
f 422 456 457
f 422 457 421
f 421 457 458
f 421 458 420
f 420 458 459
f 420 459 419
f 419 459 460
f 419 460 418
f 418 460 461
f 418 461 417
f 417 461 462
f 417 462 416
f 416 462 463
f 416 463 415
f 415 463 464
f 415 464 414
f 414 464 465
f 414 465 413
f 413 465 466
f 413 466 412
f 412 466 467
f 412 467 411
f 411 467 468
f 411 468 410
f 410 468 469
f 410 469 409
f 409 469 470
f 409 470 408
f 408 470 471
f 408 471 407
f 407 471 472
f 407 472 406
f 406 472 473
f 406 473 405
f 405 473 474
f 405 474 404
f 404 474 475
f 404 475 403
f 403 475 476
f 403 476 402
f 402 476 477
f 402 477 401
f 401 477 478
f 401 478 400
f 400 478 479
f 400 479 399
f 399 479 480
f 399 480 398
f 398 480 481
f 398 481 397
f 397 481 482
f 397 482 396
f 396 482 483
f 396 483 395
f 395 483 440
f 441 484 392
f 392 484 485
f 392 485 391
f 391 485 486
f 391 486 390
f 390 486 487
f 390 487 389
f 389 487 488
f 389 488 388
f 388 488 489
f 388 489 387
f 387 489 490
f 387 490 386
f 386 490 491
f 386 491 385
f 385 491 492
f 385 492 384
f 384 492 493
f 384 493 383
f 383 493 494
f 383 494 382
f 382 494 495
f 382 495 60
f 60 495 496
f 60 496 381
f 381 496 438
f 496 497 438
f 438 497 442
f 455 498 439
f 439 498 456
f 483 499 440
f 440 499 500
f 440 500 441
f 441 500 484
f 497 501 442
f 442 501 502
f 442 502 443
f 443 502 503
f 443 503 444
f 444 503 504
f 444 504 445
f 445 504 505
f 445 505 446
f 446 505 506
f 446 506 447
f 447 506 507
f 447 507 448
f 448 507 508
f 448 508 449
f 449 508 509
f 449 509 450
f 450 509 510
f 450 510 451
f 451 510 511
f 451 511 452
f 452 511 512
f 452 512 453
f 453 512 513
f 453 513 454
f 454 513 514
f 454 514 455
f 455 514 498
f 498 515 456
f 456 515 516
f 456 516 457
f 457 516 517
f 457 517 458
f 458 517 459
f 459 517 518
f 459 518 460
f 460 518 519
f 460 519 461
f 461 519 520
f 461 520 462
f 462 520 521
f 462 521 463
f 463 521 522
f 463 522 464
f 464 522 523
f 464 523 465
f 465 523 524
f 465 524 466
f 466 524 525
f 466 525 467
f 467 525 526
f 467 526 468
f 468 526 527
f 468 527 469
f 469 527 528
f 469 528 470
f 470 528 471
f 471 528 529
f 471 529 472
f 472 529 530
f 472 530 473
f 473 530 531
f 473 531 474
f 474 531 475
f 475 531 532
f 475 532 476
f 476 532 533
f 476 533 477
f 477 533 534
f 477 534 478
f 478 534 535
f 478 535 479
f 479 535 536
f 479 536 480
f 480 536 537
f 480 537 481
f 481 537 538
f 481 538 482
f 482 538 539
f 482 539 483
f 483 539 499
f 500 540 484
f 484 540 541
f 484 541 485
f 485 541 542
f 485 542 486
f 486 542 543
f 486 543 487
f 487 543 544
f 487 544 488
f 488 544 545
f 488 545 489
f 489 545 546
f 489 546 490
f 490 546 547
f 490 547 491
f 491 547 548
f 491 548 492
f 492 548 549
f 492 549 493
f 493 549 550
f 493 550 494
f 494 550 551
f 494 551 495
f 495 551 552
f 495 552 496
f 496 552 497
f 552 11 497
f 497 11 501
f 501 11 4
f 501 4 502
f 502 4 503
f 503 4 1
f 503 1 504
f 504 1 505
f 505 1 506
f 506 1 507
f 507 1 5
f 507 5 508
f 508 5 509
f 514 513 3
f 514 3 498
f 498 3 515
f 517 13 518
f 518 13 12
f 518 12 519
f 519 12 520
f 520 12 14
f 520 14 521
f 521 14 522
f 522 14 523
f 523 14 15
f 523 15 524
f 524 15 17
f 524 17 525
f 526 525 17
f 526 17 527
f 527 17 528
f 533 532 20
f 533 20 534
f 534 20 535
f 535 20 18
f 535 18 536
f 536 18 537
f 537 18 8
f 537 8 538
f 538 8 539
f 539 8 9
f 539 9 499
f 499 9 500
f 500 9 540
f 540 9 10
f 540 10 541
f 541 10 16
f 541 16 542
f 548 547 19
f 548 19 549
f 549 19 550
f 550 19 11
f 550 11 551
f 551 11 552
f 553 554 555
f 555 554 556
f 555 556 557
f 557 556 558
f 557 558 559
f 559 558 560
f 559 560 561
f 561 560 562
f 561 562 563
f 563 562 564
f 563 564 565
f 565 564 566
f 565 566 567
f 567 566 568
f 567 568 569
f 569 568 570
f 569 570 571
f 571 570 572
f 571 572 573
f 573 572 574
f 573 574 575
f 575 574 576
f 575 576 577
f 577 576 578
f 577 578 579
f 579 578 580
f 579 580 581
f 581 580 582
f 581 582 583
f 583 582 584
f 583 584 585
f 585 584 586
f 585 586 587
f 587 586 588
f 587 588 589
f 589 588 590
f 589 590 591
f 591 590 592
f 591 592 593
f 593 592 594
f 593 594 595
f 595 594 596
f 595 596 597
f 597 596 598
f 597 598 599
f 599 598 600
f 599 600 553
f 553 600 554
f 580 578 601
f 601 578 576
f 601 576 574
f 586 584 601
f 601 584 582
f 601 582 580
f 592 590 601
f 601 590 588
f 601 588 586
f 598 596 601
f 601 596 594
f 601 594 592
f 556 554 601
f 601 554 600
f 601 600 598
f 562 560 601
f 601 560 558
f 601 558 556
f 568 566 601
f 601 566 564
f 601 564 562
f 574 572 601
f 601 572 570
f 601 570 568
f 573 575 602
f 602 575 577
f 602 577 579
f 567 569 602
f 602 569 571
f 602 571 573
f 561 563 602
f 602 563 565
f 602 565 567
f 555 557 602
f 602 557 559
f 602 559 561
f 597 599 602
f 602 599 553
f 602 553 555
f 591 593 602
f 602 593 595
f 602 595 597
f 585 587 602
f 602 587 589
f 602 589 591
f 579 581 602
f 602 581 583
f 602 583 585
