v 0.00616953366 0.00510873477 0.00950001675
v 0.00359610944 0.00201991211 0.00974851326
v 0.0039791748 -0.00088597811 0.00968012317
v 0.00374472846 -0.00152772768 0.00969332913
v 0.000528610322 -0.00404770802 0.00967996288
v -0.000876038135 -0.00443911288 0.00994879126
v -0.00119896812 -0.00395126909 0.00970568688
v -0.00393073893 -0.000572887413 0.00969561788
v -0.00382972551 0.00120540945 0.009682758
v 0.00329017516 0.00315144685 0.00992224152
v 0.00246035728 -0.0033538304 0.00982669301
v -0.00200581505 -0.00341515153 0.00964706341
v 0.000319711483 0.00398162095 0.0096915607
v -0.0012524555 0.00377418337 0.00969542138
v -0.003972232 -0.0012210406 0.00986707897
v -0.00188106753 0.0034978207 0.00969560733
v -0.003508043 -0.00206332421 0.00970673617
v -0.0025004082 0.00332408928 0.00986682961
v 0.00729620805 0.00528683693 0.00861592505
v 0.0080032938 0.004982284 0.00447513986
v 0.00815316656 0.00383568295 0.0086154304
v 0.0091014557 0.00184487344 0.00625671693
v 0.00872373252 0.00225526148 0.00861464647
v 0.00899136068 0.000591971759 0.00861433243
v 0.00915044 -0.00157947371 0.00626884705
v 0.0089441578 -0.00109422299 0.00861350986
v 0.0085837873 -0.0027420197 0.00861310678
v 0.00795510693 -0.00478824857 0.0062809549
v 0.00792123265 -0.0042959839 0.00861251939
v 0.00698380192 -0.00569468431 0.00861208022
v 0.0056780493 -0.00734541727 0.00629362289
v 0.00580030605 -0.00689670378 0.00861143412
v 0.00441267636 -0.00785730163 0.00861095795
v 0.00262869355 -0.00890389609 0.00629866647
v 0.00287325708 -0.00854152671 0.00861007586
v 0.00123201331 -0.00892730195 0.008609809
v -0.000778228633 -0.00925058309 0.00630694346
v -0.00045263098 -0.00900077181 0.00860927705
v -0.00212203617 -0.00875881791 0.00860867778
v -0.00407899905 -0.00833921063 0.00630774088
v -0.00371652887 -0.00821029597 0.00860838001
v -0.00517992214 -0.00737518021 0.00860783745
v -0.00601746183 -0.00678652 0.00828560722
v -0.00769618949 -0.0046782487 0.00860167698
v -0.00827456248 -0.00430921826 0.00530343422
v -0.00892592045 -0.00271382224 0.00530670223
v -0.00899414302 -0.000942159777 0.00848448303
v -0.0090132643 0.000737820715 0.00848089891
v -0.00872143058 0.00239184549 0.00847719777
v -0.00812712377 0.00396621252 0.00847574712
v -0.00725474157 0.00539948021 0.00847047711
v -0.00612880556 0.00665006907 0.00846876867
v -0.00479434584 0.00766826961 0.00846494965
v -0.00329262717 0.00842314331 0.00846163032
v -0.00168295861 0.00888747908 0.00844353979
v 5.80935572e-05 0.00904772402 0.00840927676
v 0.00173272883 0.00888067494 0.00840673993
v 0.00334439611 0.00840754161 0.00840382989
v 0.00190757161 0.00911078814 -0.00683044287
v 0.00744282014 0.00566782705 -0.00500571057
v 0.00485648196 0.00774179024 -0.00826692295
v 0.0053077662 0.00728140969 -0.00861598946
v 0.00167829591 0.00885632982 -0.00860394257
v -8.21622431e-07 0.00901390403 -0.00860390496
v -0.00190547777 0.00887179494 -0.00834714915
v -0.0045303001 0.00789854703 -0.00837972588
v -0.00501614434 0.00748614535 -0.00861211238
v -0.0065086084 0.00629885453 -0.00838720133
v -0.00799606844 0.00436461524 -0.00831363423
v -0.00903597017 0.00116025226 -0.00830649585
v -0.00884014309 -0.00220331643 -0.00830028373
v -0.00780354512 -0.00459934919 -0.00838144111
v -0.00626496166 -0.00680934225 -0.00618045999
v -0.00589158965 -0.00681540778 -0.00862616556
v -0.00510308248 -0.00746832923 -0.00840295398
v -0.00486823934 -0.00800618925 -0.00469861775
v -0.00399236551 -0.00806284651 -0.00863847651
v -0.00363438732 -0.00828312069 -0.00840286119
v -0.00331580078 -0.00876344153 -0.00470578483
v -0.00241547217 -0.00866691475 -0.00863850879
v -0.00204031357 -0.00881234658 -0.00840387095
v -0.00165003658 -0.00922325411 -0.00470976181
v -0.000753668975 -0.00896580445 -0.00863835788
v -0.000373747648 -0.00903773206 -0.00840571678
v 7.1544039e-05 -0.00936900211 -0.00471782497
v 0.000935741019 -0.00894877894 -0.00863803129
v 0.00130343456 -0.00895120047 -0.00840583611
v 0.00179098685 -0.00919631025 -0.00472442149
v 0.00259121459 -0.00861659907 -0.00863758566
v 0.00293586026 -0.00855602983 -0.00840760069
v 0.00344919735 -0.0087107672 -0.00473012383
v 0.00415514763 -0.00798129333 -0.00863651506
v 0.00446607598 -0.00786668926 -0.0084072122
v 0.0049906058 -0.00792878254 -0.00473488786
v 0.00557241479 -0.00706550311 -0.00863560516
v 0.00584693982 -0.00690255763 -0.00840892564
v 0.00636254539 -0.00687641492 -0.00474066932
v 0.00679513775 -0.00589946555 -0.0086343328
v 0.00702125539 -0.00570421826 -0.00840983002
v 0.00751769487 -0.00559033021 -0.0047418015
v 0.0077769807 -0.00452834293 -0.00863273756
v 0.007954459 -0.00430915651 -0.00841027369
v 0.00841687843 -0.00411374907 -0.00474349515
v 0.00848569586 -0.00299816902 -0.00863094452
v 0.00861606565 -0.00275881991 -0.00841073106
v 0.00903008476 -0.00249508966 -0.00474436472
v 0.00894969685 -0.0012990569 -0.00842499569
v 0.00898541329 -0.000522489964 -0.00862797567
v 0.00933490693 -0.000793944397 -0.00474258909
v 0.00903609877 0.000374857135 -0.00842196926
v 0.00932163611 0.000937896544 -0.00474209941
v 0.00881162827 0.0020385379 -0.00841734547
v 0.00855347129 0.00280536845 -0.00862309767
v 0.00899064047 0.0026346562 -0.0047426887
v 0.00828531607 0.00362783166 -0.0084142604
v 0.00835308663 0.00424280206 -0.00474140339
v 0.00775228694 0.00459045646 -0.00862010978
v 0.00762841694 0.00522555987 -0.00616014999
v 0.00429415587 0.00858837261 -0.00117007343
v -0.0073394532 -0.00523084539 0.00866712265
v 0.00624105103 0.00657571516 -0.00830210428
v 0.00665292733 0.00665297191 -0.00369871658
v 0.0067103862 0.00671031157 -0.00123334927
v 0.00432073619 0.00868057017 0.00151716743
v 0.00533136206 0.00782077134 0.0041569396
v 0.00552077614 0.00721083825 0.00842180876
v 0.000873689247 0.0094147569 -0.0037699454
v 5.81183316e-07 0.00953995252 -0.00125666604
v 0.00263461307 0.00899066538 0.00474324468
v -0.00258599259 0.00909459684 -0.00377265406
v -0.000880151068 0.00949924394 0.0012569351
v 0.000935510849 0.00932172384 0.00474443896
v -0.00344601807 0.00889585149 -0.00125592241
v -0.000792805008 0.0093349623 0.00474311587
v -0.0056962883 0.00754659817 -0.00377268104
v -0.00425239098 0.0085397819 0.00125622642
v -0.00249585834 0.00902994519 0.00474412933
v -0.00642673357 0.00705026403 -0.00125677006
v -0.00411336684 0.00841722563 0.00474202741
v -0.00803805287 0.00497899096 -0.00377105474
v -0.00705026728 0.00642673032 0.00125675014
v -0.00558957752 0.00751842171 0.00473991797
v -0.00853978515 0.00425238773 -0.00125624633
v -0.00687671115 0.00636260951 0.00473577174
v -0.00929371628 0.00173936524 -0.00377303365
v -0.00889585474 0.00344601482 0.0012559025
v -0.00792839349 0.00499149275 0.00473338136
v -0.00949924719 0.000880147818 -0.00125695501
v -0.00871100994 0.00344880165 0.00472959102
v -0.00929442003 -0.00173607768 -0.00377118628
v -0.00953995577 -5.84432761e-07 0.00125664613
v -0.0091960523 0.00179197784 0.00472538759
v -0.009175732 -0.00261063339 -0.00125816339
v -0.00936904118 7.11934805e-05 0.00471817282
v -0.00822280315 -0.00472107868 -0.00285579719
v -0.00897446784 -0.00313695605 0.00209813826
v -0.00922286642 -0.00165086906 0.00471356502
v -0.00809429271 -0.00501169293 0.00123509357
v -0.00741972931 -0.00508270581 0.00861488777
v -0.00665786274 -0.00606105645 -0.00861490768
v -0.00669838308 -0.00658348235 0.00460866936
v -0.00682920647 -0.00665471136 0.000377193028
v -0.00672925488 -0.00654327314 -0.00479481253
v -0.00574965489 -0.00761242506 -0.00126049941
v -0.00421309953 -0.00846467529 0.00377018392
v -0.00425145321 -0.00854020611 0.00125635814
v -0.00261175232 -0.00917538767 -0.00125889536
v -0.00087120906 -0.00941505324 0.00376887311
v -0.000879073811 -0.00949928289 0.00125874013
v 0.000878987154 -0.00949927733 -0.00125896182
v 0.00258863645 -0.00909396838 0.0037698252
v 0.00261184806 -0.00917536737 0.00125871065
v 0.00425131028 -0.00854024121 -0.00125760941
v 0.00569897952 -0.00754472645 0.00376949903
v 0.00575005668 -0.00761221294 0.00125964318
v 0.00704980799 -0.00642736572 -0.00125638791
v 0.00803969033 -0.00497639245 0.00376980592
v 0.00811124241 -0.00502168914 0.00125856805
v 0.00889546085 -0.00344668683 -0.00125692711
v 0.00929452785 -0.00173576077 0.00377035337
v 0.00937763637 -0.00175189948 0.00125911927
v 0.00953994835 -5.85218675e-07 -0.00125675894
v 0.00929388897 0.00173896887 0.00377121133
v 0.00937746592 0.00175293888 0.00125769703
v 0.00889569949 0.00344615789 -0.0012567961
v 0.00711367123 0.00590719859 0.00616013008
v 0.00814837318 0.00496447273 0.00194767578
v 0.00817156167 0.0049726082 -0.000564597968
v 0.0075662006 0.0057105981 -0.00247562019
v -0.00387251086 -0.000756576213 -0.00961344263
v -0.00256663191 -0.00303375058 -0.00964715818
v -0.00302257545 -0.0024646314 -0.00950003666
v -0.00107290752 -0.00374946912 -0.00950003666
v 0.0023380284 0.00322437464 -0.00965507475
v -0.00369944501 -0.00146624818 -0.00969531436
v -0.00666410656 -0.00445874827 -0.00950004186
v -0.00470086652 -0.00672025989 -0.00948639839
v -0.00255954378 -0.00759867922 -0.00950004215
v -0.00017513969 -0.00400515334 -0.0097084948
v 0.00048484951 -0.00391012308 -0.00966409395
v 0.0015035708 -0.00369777584 -0.00967349021
v -0.00379980618 0.000954857718 -0.00950003666
v -0.0077598079 0.00201880003 -0.00950004177
v -0.00814581191 -0.000951236206 -0.00948640192
v 0.0064488551 0.0047647416 -0.00950004193
v 0.00319502346 0.00734545867 -0.00950003666
v -5.81596078e-05 0.00398963053 -0.00964629988
v -0.000881576611 0.00379910151 -0.00950003666
v -0.00259135011 0.00304197724 -0.00950003666
v 0.00349764134 -0.00188140702 -0.00969568197
v 0.0038980982 -0.000907932529 -0.00970863236
v 0.0038987159 -9.88038353e-05 -0.00950003666
v 0.00722367147 0.00347999299 -0.00950004193
v 0.000722636671 0.00798553689 -0.00950004173
v -0.00370051125 0.00731890739 -0.00948639572
v 0.00298650508 -0.00258068347 -0.00961347356
v -0.00706731164 0.00420009119 -0.00948168494
v 0.00559289607 -0.00599424811 -0.00948475287
v 0.00273593779 -0.0030295215 -0.00969196206
v 0.00761232369 0.00249316375 -0.00950003666
v 0.00359443347 0.00174619521 -0.00950003666
v 0.00781235688 0.00176932494 -0.00950003666
v 0.00803029946 0.00018849925 -0.00950005649
v 0.00275776379 0.00275768916 -0.00450004143
v 0.00343937335 0.00187653735 -0.00450004143
v 0.00395039386 1.65830883e-06 -0.00450004143
v 0.00170046177 -0.00352973643 -0.00450004143
v 0.000170528032 -0.00391425931 -0.00450004143
v -0.0013874761 -0.00366403192 -0.00450004143
v -0.00246455677 -0.00302253087 -0.00450004143
v -0.00323173828 -0.0022150969 -0.00450004143
v -0.00393027281 0.00039819295 -0.00450004143
v -0.00336089142 0.00197841804 -0.00450004143
v -0.00241916361 0.00312306454 -0.00450004143
v -0.000565347826 0.00387698784 -0.00450004143
v 0.0017505411 0.00350507842 -0.00450004143
v 0.0024947173 0.000337838019 -0.00450004143
v 0.00243983261 -0.000545361834 -0.00450004143
v 0.00314751609 -0.00142112129 -0.00450004143
v -0.000180484314 0.003066606 -0.00450004143
v 0.00185933763 0.00174383148 -0.00450004143
v -0.00185034454 0.00170715376 -0.00450004143
v -0.00113501556 0.00222756545 -0.00450004143
v -0.000545406415 0.00243975799 -0.00450004143
v -0.00264159476 -0.0016636877 -0.00450004143
v -0.00244380639 0.000604516709 -0.00450004143
v 0.00277078541 -0.00155504898 -0.00450004143
v 0.000158698882 -0.00254422596 -0.00450004143
v -0.0016262681 -0.00196305017 -0.00450004143
v 0.00174356939 0.00185960315 0.00450002152
v 0.00258922483 -0.000150016026 0.00450002152
v 0.00170721457 -0.0018501852 0.00450002152
v 0.000604436344 -0.00244392181 0.00450002152
v -0.000936927505 -0.00237071613 0.00450002152
v -0.00197544105 -0.00153229554 0.00450002152
v -0.00258755797 -0.000175871257 0.00450002152
v -0.00153500047 0.00209061905 0.00450002152
v 0.000337551822 0.00249480137 0.00450002152
v 0.00391137337 0.00022704843 0.00450002152
v 0.00350510034 0.00175071197 0.00450002152
v 0.00275776379 0.00275768916 0.00450002152
v 0.00155901484 0.00362970342 0.00450002152
v -9.88484162e-05 0.00389876048 0.00450002152
v -0.000881576611 0.00379910151 0.00450002152
v -0.00192598357 0.00341193499 0.00450002152
v 0.00285923938 -0.00267867728 0.00450002152
v 0.00354382984 -0.00162825902 0.00450002152
v 0.00379905693 -0.00088153203 0.00450002152
v -0.00040078715 -0.00392998876 0.00450002152
v 0.00157147399 -0.00358901031 0.00450002152
v -0.00289382942 0.0026145188 0.00450002152
v -0.00353001235 0.00169977864 0.00450002152
v -0.00391425198 0.000169982481 0.00450002152
v -0.0037495137 -0.00107286294 0.00450002152
v -0.00312493382 -0.00241677734 0.00450002152
v -0.00180568702 -0.00345681031 0.00450002152
v 0.00691203532 0.00573048324 -0.00875866495
v 0.00763006823 0.00459492706 -0.00897736563
v 0.00811536086 0.00352210287 -0.0091745655
v 0.00886237496 0.00146941744 -0.00878732876
v 0.00895645827 -7.73507935e-05 -0.0088494664
v 0.00866910818 -0.0021784688 -0.00894921192
v 0.00759029006 -0.00469388557 -0.00893664231
v 0.00617632859 -0.00647292455 -0.00885010761
v 0.00486109249 -0.00751111825 -0.00885010761
v 0.00337526791 -0.00828574021 -0.00885010761
v 0.00177118771 -0.00876984914 -0.00885010761
v 0.00010488026 -0.00894627889 -0.00885010761
v -0.00156512268 -0.00880894979 -0.00885010761
v -0.00318017013 -0.00836263021 -0.00885010761
v -0.00468363769 -0.00762305577 -0.00885010761
v -0.00537695892 -0.00715086778 -0.00885010761
v -0.00602295406 -0.0066159757 -0.00885010761
v 0.00762664636 -0.00316647309 -0.00947106425
v 0.00664310823 -0.00486419787 -0.00948282603
v 0.0044293434 -0.00698626858 -0.00947129656
v 0.00300782679 -0.00762655812 -0.00948475042
v 0.0022807074 -0.00787461616 -0.00948475218
v 0.001199372 -0.00817028426 -0.00947106039
v -0.00115354101 -0.00821154706 -0.00947159449
v -0.00334517718 -0.00750972059 -0.00948168984
v -0.00600065243 -0.00580415731 -0.00945519248
v -0.00763887424 -0.00322592814 -0.00947160152
v -0.00817496926 0.000119770898 -0.00948999653
v -0.00826705897 0.001348234 -0.00944180467
v -0.00769840735 0.00282040054 -0.00948805117
v -0.00635770795 0.00515877545 -0.00948770186
v -0.0058674838 0.00572567776 -0.00948475601
v -0.00528443391 0.00625366603 -0.00948770385
v -0.00469673552 0.00671939401 -0.00948475971
v -0.00261687606 0.00786634299 -0.00947667224
v -0.000785159124 0.00825494068 -0.0094715861
v 0.00152498594 0.00805574084 -0.00948804964
v 0.00244441578 0.00801103574 -0.00944562777
v 0.00473290358 0.00673180206 -0.00948569674
v 0.00511321167 0.00665726206 -0.00943428773
v 0.00586030689 0.00640716351 -0.00924833361
v 0.0061436227 0.00551801533 -0.00947106312
v 0.00647728304 0.0056019378 -0.00934545149
v 0.00690700168 0.00565367167 -0.00897072807
v 0.00811848633 -0.00375995954 -0.00885010761
v 0.00334305437 0.00791623104 -0.00933453137
v 0.00456176272 0.00738831013 -0.0092482439
v 0.00544637751 0.00703855131 -0.00898729311
v 0.00632641308 0.00632645766 -0.00885010761
v 0.00503585331 0.00739504973 -0.00885010761
v 0.00403482342 0.00793223225 -0.00898756709
v 0.00356862538 0.0082043616 -0.00885010761
v -4.91145126e-05 0.0085162589 -0.00938814594
v 0.000746651731 0.00868273063 -0.00925404103
v 0.00248510562 0.00854546354 -0.00898758
v 0.00197622769 0.00872590224 -0.00885010761
v 0.000847155177 0.00885913419 -0.00898744406
v 0.0003145694 0.00894131343 -0.00885010761
v -0.00278572898 0.00817370369 -0.00930842445
v -0.00205019818 0.00857113093 -0.00914060663
v -0.000547234733 0.00889204666 -0.0089569501
v -0.00135817535 0.00884320418 -0.00885010761
v -0.00458356359 0.00717750667 -0.00938823597
v -0.00218024261 0.00867714564 -0.00885010761
v -0.00298323639 0.00843491237 -0.00885010761
v -0.00537364624 0.00686077199 -0.00925407369
v -0.00400945369 0.00794510541 -0.00898751769
v -0.00450363167 0.00773074309 -0.00885010761
v -0.00689510814 0.00499852523 -0.00938816568
v -0.00542043652 0.00705839245 -0.00898735679
v -0.00751330487 0.00441551865 -0.00925408093
v -0.00720561358 0.00518451894 -0.00907497748
v -0.00620260083 0.00646167745 -0.00884932551
v -0.00702288158 0.00554313342 -0.00885010761
v -0.00798774898 0.00285833512 -0.00938561497
v -0.00751116283 0.00486113708 -0.00885010761
v -0.00776552012 0.00449471224 -0.00880340966
v -0.00860866111 0.00135571817 -0.00925405384
v -0.00860393755 0.00218403945 -0.00907509666
v -0.00828578479 0.00337531249 -0.00885010761
v -0.00846839008 0.00296588067 -0.00880262881
v -0.00845206914 -0.00104399044 -0.0093881876
v -0.00876977451 0.00177111308 -0.00885010761
v -0.00887232071 0.00133883441 -0.00880289338
v -0.0085066904 -0.0018927064 -0.00925410458
v -0.00880590825 -0.00112006435 -0.00907505833
v -0.00894632347 0.000104924841 -0.00885010761
v -0.00896649689 -0.000338119352 -0.00880254591
v -0.00748145882 -0.00406883038 -0.00938816745
v -0.00880899437 -0.0015650781 -0.00885010761
v -0.00874710791 -0.00200096401 -0.0088022766
v -0.0073948316 -0.00469990573 -0.00919663469
v -0.00793753971 -0.00407398584 -0.00898350769
v -0.00836267479 -0.00318012555 -0.00885010761
v -0.00822094627 -0.0035964753 -0.0088019249
v -0.0058856463 -0.0063188975 -0.00930845391
v -0.00717017941 -0.00540002644 -0.00877011156
v -0.00415748867 -0.00743260479 -0.00938814854
v -0.00567846573 -0.00682300813 -0.00907500185
v -0.00661602028 -0.00602290948 -0.00885010761
v -0.00350611264 -0.00797841167 -0.00925402564
v -0.00114562565 -0.00843886253 -0.00938819234
v -0.00361311534 -0.00812692813 -0.00899478377
v -0.000339034687 -0.00870821496 -0.00925397446
v -0.00203354128 -0.00865825148 -0.00899493929
v 0.0020254767 -0.00827192157 -0.00938818733
v -0.000384043898 -0.00888553512 -0.00899488473
v 0.0028751762 -0.00822691084 -0.00925395149
v 0.00128084487 -0.00880114186 -0.00899489241
v 0.00491550125 -0.00695448043 -0.0093881938
v 0.00289899924 -0.00840789081 -0.00899513376
v 0.00568904283 -0.00660147072 -0.00925410716
v 0.00441511849 -0.00772063925 -0.00899483295
v 0.0071215682 -0.00467022571 -0.00938816056
v 0.00577688497 -0.00676218108 -0.00899492554
v 0.00763718966 -0.00429463337 -0.00919677403
v 0.00693624615 -0.0055664549 -0.00899520774
v 0.00800166123 -0.00201056321 -0.00947071117
v 0.00835031453 -0.00219970439 -0.00930856369
v 0.00820646483 -0.00163626497 -0.00944874343
v 0.0088252254 -0.000956156854 -0.00907507814
v 0.00824532502 0.000290056867 -0.00947071117
v 0.00868805378 0.000682220792 -0.00925399194
v 0.00849164148 0.00064752086 -0.009388179
v 0.00808444711 0.00175172013 -0.00947129022
v 0.00856178971 0.00234375089 -0.00907512675
v 0.00794062289 0.00298692725 -0.00938559954
v 0.00756571286 0.0032907931 -0.00947071117
v 0.0073013646 0.00403829166 -0.0094521147
v 0.00780948698 0.00357594533 -0.00935807823
v 0.00542331985 0.00711875212 0.00890180311
v 0.00498998609 0.0072485569 0.00917424318
v 0.00398160725 0.00801293189 0.00890547392
v 0.00355223667 0.00805135762 0.00917419164
v 0.00241721631 0.00861481826 0.00890587651
v 0.00198822779 0.00857258798 0.00917419071
v 0.000768575964 0.0089143609 0.00890595421
v 0.000355047914 0.00879284465 0.00917432668
v -0.000906568975 0.00890161543 0.00890554748
v -0.0012937324 0.00870446947 0.00917423563
v -0.00198268094 0.00856150808 0.00918487313
v -0.00289726268 0.00846690052 0.00888721623
v -0.00347308771 0.0080858158 0.00917653682
v -0.00442382665 0.00777907969 0.00888690999
v -0.00492058057 0.00729588361 0.0091765543
v -0.00579495729 0.00681943355 0.0088866658
v -0.0061955882 0.00624960966 0.00917652128
v -0.00696355242 0.00562102317 0.00888673935
v -0.00725125735 0.004986484 0.00917642408
v -0.00788834143 0.00422650598 0.00888634211
v -0.0080543008 0.00354567288 0.00917645284
v -0.00853724801 0.0026846314 0.00888617022
v -0.00857379271 0.00198255918 0.0091766806
v -0.00888793519 0.00104832284 0.008885983
v -0.00879340797 0.000348228984 0.00917639229
v -0.00892786005 -0.000624362049 0.00888571991
v -0.00870420082 -0.00129662498 0.00917647723
v -0.00865613806 -0.00227436924 0.00888503966
v -0.00840597065 -0.00307281415 0.00888513784
v -0.00808206345 -0.00384504003 0.00888496838
v -0.00763055139 -0.00459534465 0.00895895233
v -0.00662645251 -0.00604391588 0.00879333367
v -0.00621679436 -0.00631636119 0.00906721548
v -0.00532416745 -0.00700672934 0.00917425791
v -0.00464376772 -0.0074751186 0.00917417041
v -0.00392268482 -0.00787755187 0.00917419547
v -0.00316902346 -0.00820968926 0.00917427338
v -0.00238602056 -0.00847056355 0.009174139
v -0.00158290095 -0.00865666063 0.00917416648
v -0.000764829683 -0.00876683906 0.00917419311
v 6.00734693e-05 -0.00879984674 0.00917425272
v 0.00088459762 -0.00875551418 0.00917426631
v 0.00169959443 -0.00863451577 0.00917418851
v 0.00250004484 -0.00843741475 0.00917428907
v 0.00327993957 -0.00816588928 0.0091743652
v 0.00402965361 -0.00782340475 0.00917416827
v 0.00474382522 -0.00741207291 0.009174183
v 0.0054186489 -0.00693402733 0.0091741791
v 0.00604409839 -0.00639596849 0.00917429784
v 0.0066158484 -0.00580276001 0.00917427383
v 0.00712995473 -0.00515791873 0.00917430474
v 0.00758168637 -0.00446760047 0.00917427788
v 0.00796657194 -0.00373856451 0.00917418596
v 0.00828179833 -0.00297556364 0.00917419261
v 0.0085246379 -0.00218486154 0.00917417946
v 0.00869130566 -0.00137972101 0.00917424097
v 0.00878227414 -0.000559451481 0.00917425102
v 0.00879619685 0.000265182625 0.00917416211
v 0.00873224371 0.00109040196 0.00917427258
v 0.00859244561 0.00190020658 0.00917433836
v 0.00837680336 0.00269628689 0.00917428141
v 0.00808708458 0.0034700415 0.0091742254
v 0.00772779773 0.00420990284 0.00917419609
v 0.00729696612 0.00491906884 0.00917419208
v 0.00689523626 0.00573955922 0.00878625601
v 0.00651412985 0.00613080722 0.00891561316
v -0.00705906354 -0.00505269838 0.00926959272
v 0.00638395276 0.0060002397 0.00918211364
v -0.00561849878 -0.00635776181 0.00940222662
v -0.00768676115 -0.00381862506 0.0093284142
v -0.00789555777 -0.00308057223 0.00941040635
v -0.00826428433 -0.00231795147 0.00932832999
v -0.00844490223 -0.000820101809 0.00940223476
v -0.00844965787 0.000768691189 0.00940223743
v -0.00811358793 0.00227283175 0.00944239778
v -0.0075802766 0.00381165923 0.00940219389
v -0.00565242587 0.00645925869 0.00932829314
v -0.00437832187 0.0072676113 0.00940225978
v -0.00294705514 0.00795629656 0.00940223762
v -0.000660131178 0.0084000036 0.00944240775
v 0.000966702455 0.00842941698 0.00940218946
v 0.0024631772 0.00805776706 0.00944241616
v 0.00411697929 0.00753144951 0.00932830084
v 0.00524383819 0.00659526201 0.00944239492
v 0.00601115704 0.00597725405 0.00940676035
v -0.00613033029 -0.00569534353 0.00944164256
v -0.00663618211 -0.00509683995 0.00944166439
v 0.00672435245 0.00468964556 0.00948474642
v 0.00748057048 0.00335403026 0.00948474898
v 0.00770152034 0.00274269352 0.00949007856
v 0.00796115581 0.00185508299 0.00949257078
v 0.00818190567 0.00106086413 0.00947069126
v 0.00824532502 0.000290056867 0.00947069126
v 0.00823626511 -0.000483253794 0.00947069126
v 0.00810510828 -0.00158075027 0.00947104654
v 0.00778882887 -0.00254675828 0.00948690456
v 0.00752908548 -0.00321256718 0.00948966867
v 0.00320300415 -0.00304940356 0.00992970317
v 0.00602382343 -0.00556169236 0.00948798462
v 0.00448272221 -0.00692639669 0.00947069126
v 0.00381443493 -0.00731573422 0.00947069126
v 0.00311253063 -0.00764081796 0.00947069126
v 0.00238344662 -0.00789866765 0.00947069126
v 0.00163326256 -0.00808713754 0.00947069126
v 0.000291683391 -0.00818947259 0.00948690237
v -0.000676298215 -0.0082226785 0.00947069126
v -0.00144329078 -0.00812325795 0.00947069126
v -0.0015645793 -0.00400196739 0.00992372387
v -0.00293257244 -0.00771162828 0.00947069126
v -0.00364186771 -0.00740311463 0.00947069126
v -0.00451961217 -0.00684697438 0.00948645743
v -0.00711303726 -0.00407701676 0.0094879872
v -0.00812318332 -0.0014432462 0.00947069126
v -0.0082499028 9.66993996e-05 0.00947069126
v -0.00806906549 0.00142952944 0.00948689989
v -0.00767161503 0.00285521149 0.00948967723
v -0.00692644127 0.00448264758 0.00947069126
v -0.00675036856 0.0049915143 0.00946030825
v -0.00480237014 0.00670864264 0.00947069126
v -0.00346734531 0.00748648326 0.00947069126
v -0.00201060779 0.00800170581 0.00947069126
v -0.00125243671 0.00815477054 0.00947069126
v 3.75590222e-05 0.00818571997 0.00948967262
v 0.0018224477 0.00804664771 0.00947069126
v 0.00303427145 0.00760269599 0.00948967005
v 0.00583395951 0.00583388488 0.00947069126
v 0.00106070034 0.00106062571 -0.0125000576
v 0.00122878544 0.000860354108 0.0125000377
v 0.00122878544 0.000860354108 -0.0125000576
v 0.00135943882 0.000633975668 0.0125000377
v 0.00135943882 0.000633975668 -0.0125000576
v 0.00144884579 0.000388285322 0.0125000377
v 0.00144884579 0.000388285322 -0.0125000576
v 0.00149426453 0.000130674047 0.0125000377
v 0.00149426453 0.000130674047 -0.0125000576
v 0.00149426453 -0.000130751925 0.0125000377
v 0.00149426453 -0.000130751925 -0.0125000576
v 0.00144884579 -0.00038824399 0.0125000377
v 0.00144884579 -0.00038824399 -0.0125000576
v 0.00135943882 -0.000633934336 0.0125000377
v 0.00135943882 -0.000633934336 -0.0125000576
v 0.00122878544 -0.000860312777 0.0125000377
v 0.00122878544 -0.000860312777 -0.0125000576
v 0.00106070034 -0.00106070359 0.0125000377
v 0.00106070034 -0.00106070359 -0.0125000576
v 0.000860309527 -0.00122866948 0.0125000377
v 0.000860309527 -0.00122866948 -0.0125000576
v 0.000633931087 -0.00135944207 0.0125000377
v 0.000633931087 -0.00135944207 -0.0125000576
v 0.000388240741 -0.00144884904 0.0125000377
v 0.000388240741 -0.00144884904 -0.0125000576
v 0.000130748675 -0.00149426778 0.0125000377
v 0.000130748675 -0.00149426778 -0.0125000576
v -0.000130677297 -0.00149426778 0.0125000377
v -0.000130677297 -0.00149426778 -0.0125000576
v -0.000388169362 -0.00144884904 0.0125000377
v -0.000388169362 -0.00144884904 -0.0125000576
v -0.000633978917 -0.00135944207 0.0125000377
v -0.000633978917 -0.00135944207 -0.0125000576
v -0.000860357358 -0.00122866948 0.0125000377
v -0.000860357358 -0.00122866948 -0.0125000576
v -0.00106062896 -0.00106070359 0.0125000377
v -0.00106062896 -0.00106070359 -0.0125000576
v -0.00122871406 -0.000860312777 0.0125000377
v -0.00122871406 -0.000860312777 -0.0125000576
v -0.00135948665 -0.000633934336 0.0125000377
v -0.00135948665 -0.000633934336 -0.0125000576
v -0.00144889362 -0.00038824399 0.0125000377
v -0.00144889362 -0.00038824399 -0.0125000576
v -0.00149431236 -0.000130751925 0.0125000377
v -0.00149431236 -0.000130751925 -0.0125000576
v -0.00149431236 0.000130674047 0.0125000377
v -0.00149431236 0.000130674047 -0.0125000576
v -0.00144889362 0.000388285322 0.0125000377
v -0.00144889362 0.000388285322 -0.0125000576
v -0.00135948665 0.000633975668 0.0125000377
v -0.00135948665 0.000633975668 -0.0125000576
v -0.00122871406 0.000860354108 0.0125000377
v -0.00122871406 0.000860354108 -0.0125000576
v -0.00106062896 0.00106062571 0.0125000377
v -0.00106062896 0.00106062571 -0.0125000576
v -0.000860357358 0.00122871081 0.0125000377
v -0.000860357358 0.00122871081 -0.0125000576
v -0.000633978917 0.0013594834 0.0125000377
v -0.000633978917 0.0013594834 -0.0125000576
v -0.000388169362 0.00144889037 0.0125000377
v -0.000388169362 0.00144889037 -0.0125000576
v -0.000130677297 0.00149430911 0.0125000377
v -0.000130677297 0.00149430911 -0.0125000576
v 0.000130748675 0.00149430911 0.0125000377
v 0.000130748675 0.00149430911 -0.0125000576
v 0.000388240741 0.00144889037 0.0125000377
v 0.000388240741 0.00144889037 -0.0125000576
v 0.000633931087 0.0013594834 0.0125000377
v 0.000633931087 0.0013594834 -0.0125000576
v 0.000860309527 0.00122871081 0.0125000377
v 0.000860309527 0.00122871081 -0.0125000576
v 0.00106070034 0.00106062571 0.0125000377
v -2.39151923e-08 2.06657473e-08 0.0125000377
v -2.39151923e-08 2.06657473e-08 -0.0125000576
f 2 494 1
f 2 496 495
f 1 490 2
f 2 490 10
f 3 497 2
f 2 497 496
f 503 502 504
f 504 502 4
f 11 505 504
f 15 518 17
f 531 488 10
f 10 488 13
f 12 17 517
f 18 524 9
f 13 529 486
f 9 522 481
f 9 481 521
f 63 64 59
f 66 67 68
f 69 357 70
f 70 364 71
f 71 371 72
f 119 61 59
f 121 62 61
f 122 121 61
f 122 61 123
f 123 61 119
f 123 119 124
f 59 127 119
f 127 128 119
f 119 128 124
f 124 129 125
f 125 129 58
f 125 58 409
f 125 409 126
f 64 65 59
f 59 65 127
f 65 130 127
f 127 130 128
f 128 131 124
f 124 131 132
f 124 132 129
f 129 132 57
f 129 57 411
f 129 411 58
f 65 66 130
f 130 133 128
f 128 133 131
f 131 134 132
f 132 134 56
f 132 56 413
f 132 413 57
f 66 135 130
f 130 135 133
f 133 136 131
f 131 136 137
f 131 137 134
f 134 137 55
f 134 55 415
f 134 415 56
f 66 68 135
f 135 138 133
f 133 138 136
f 136 139 137
f 137 139 54
f 137 54 418
f 137 418 55
f 68 69 140
f 68 140 135
f 135 140 138
f 138 141 136
f 136 141 142
f 136 142 139
f 139 142 53
f 139 53 420
f 139 420 54
f 140 143 138
f 138 143 141
f 141 144 142
f 142 144 52
f 142 52 422
f 142 422 53
f 69 70 145
f 69 145 140
f 140 145 143
f 143 146 141
f 141 146 147
f 141 147 144
f 144 147 51
f 144 51 424
f 144 424 52
f 145 148 143
f 143 148 146
f 146 149 147
f 147 149 50
f 147 50 426
f 147 426 51
f 70 71 150
f 70 150 145
f 145 150 148
f 148 151 146
f 146 151 152
f 146 152 149
f 149 152 49
f 149 49 428
f 149 428 50
f 150 153 148
f 148 153 151
f 151 154 152
f 152 154 48
f 152 48 430
f 152 430 49
f 71 72 155
f 71 155 150
f 150 155 153
f 153 156 151
f 151 156 157
f 151 157 154
f 154 157 47
f 154 47 432
f 154 432 48
f 373 163 72
f 72 163 155
f 155 158 153
f 153 158 156
f 156 46 157
f 157 46 434
f 157 434 47
f 46 435 434
f 163 162 155
f 155 162 158
f 158 45 156
f 156 45 46
f 46 45 436
f 46 436 435
f 45 44 436
f 162 161 158
f 158 161 120
f 158 120 45
f 45 120 159
f 45 159 44
f 164 162 163
f 73 163 160
f 160 163 373
f 43 438 161
f 161 438 120
f 74 73 160
f 40 42 43
f 40 43 165
f 165 43 161
f 165 161 166
f 166 161 162
f 166 162 164
f 76 164 163
f 76 163 75
f 75 163 73
f 75 73 74
f 41 42 40
f 167 166 164
f 167 164 79
f 79 164 76
f 79 76 78
f 78 76 77
f 77 76 75
f 39 41 40
f 37 39 40
f 37 40 168
f 168 40 165
f 168 165 169
f 169 165 166
f 169 166 167
f 82 167 79
f 82 79 81
f 81 79 80
f 80 79 78
f 38 39 37
f 170 169 167
f 170 167 85
f 85 167 82
f 85 82 84
f 84 82 83
f 83 82 81
f 36 38 37
f 34 36 37
f 34 37 171
f 171 37 168
f 171 168 172
f 172 168 169
f 172 169 170
f 88 170 85
f 88 85 87
f 87 85 86
f 86 85 84
f 35 36 34
f 173 172 170
f 173 170 91
f 91 170 88
f 91 88 90
f 90 88 89
f 89 88 87
f 33 35 34
f 31 33 34
f 31 34 174
f 174 34 171
f 174 171 175
f 175 171 172
f 175 172 173
f 94 173 91
f 94 91 93
f 93 91 92
f 92 91 90
f 32 33 31
f 176 175 173
f 176 173 97
f 97 173 94
f 97 94 96
f 96 94 95
f 95 94 93
f 30 32 31
f 28 30 31
f 28 31 177
f 177 31 174
f 177 174 178
f 178 174 175
f 178 175 176
f 100 176 97
f 100 97 99
f 99 97 98
f 98 97 96
f 29 30 28
f 179 178 176
f 179 176 103
f 103 176 100
f 103 100 102
f 102 100 101
f 101 100 99
f 27 29 28
f 25 27 28
f 25 28 180
f 180 28 177
f 180 177 181
f 181 177 178
f 181 178 179
f 106 179 103
f 106 103 105
f 105 103 104
f 104 103 102
f 26 27 25
f 182 181 179
f 182 179 109
f 109 179 106
f 109 106 107
f 107 106 105
f 24 26 25
f 109 107 108
f 22 24 25
f 22 25 183
f 183 25 180
f 183 180 184
f 184 180 181
f 184 181 182
f 111 182 109
f 111 109 110
f 110 109 108
f 23 24 22
f 111 110 280
f 185 184 182
f 185 182 114
f 114 182 111
f 114 111 112
f 112 111 280
f 21 23 22
f 114 112 113
f 20 21 22
f 20 22 187
f 187 22 183
f 187 183 188
f 188 183 184
f 188 184 185
f 116 185 114
f 116 114 115
f 115 114 113
f 19 21 20
f 116 115 117
f 189 188 185
f 189 185 60
f 60 185 116
f 60 116 118
f 118 116 117
f 471 19 186
f 186 19 20
f 60 118 277
f 277 118 117
f 277 121 60
f 60 121 189
f 189 121 122
f 189 122 188
f 188 122 123
f 188 123 187
f 187 123 124
f 187 124 20
f 20 124 125
f 20 125 186
f 186 125 126
f 186 126 471
f 471 126 472
f 191 196 192
f 192 196 195
f 199 198 193
f 193 198 191
f 191 198 301
f 191 301 197
f 190 204 304
f 190 304 202
f 202 304 203
f 221 194 205
f 207 313 194
f 194 313 206
f 194 206 315
f 209 309 310
f 209 310 215
f 211 212 223
f 221 205 213
f 207 214 313
f 209 215 311
f 209 311 208
f 208 311 207
f 209 307 308
f 209 308 309
f 203 306 202
f 202 306 209
f 209 306 217
f 209 217 307
f 295 218 216
f 216 218 219
f 221 213 220
f 201 297 298
f 220 222 221
f 221 222 223
f 221 223 212
f 224 221 225
f 225 221 226
f 226 221 212
f 226 212 211
f 226 211 239
f 239 211 210
f 239 210 216
f 239 216 247
f 247 216 227
f 227 216 219
f 227 219 201
f 227 201 228
f 228 201 200
f 228 200 199
f 228 199 229
f 229 199 193
f 229 193 191
f 229 191 230
f 230 191 231
f 231 191 192
f 231 192 195
f 231 195 245
f 245 195 190
f 245 190 232
f 232 190 202
f 232 202 233
f 233 202 209
f 233 209 234
f 234 209 235
f 235 209 208
f 235 208 207
f 235 207 240
f 240 207 236
f 236 207 194
f 236 194 224
f 224 194 221
f 237 226 238
f 238 226 239
f 240 236 241
f 241 236 224
f 241 224 225
f 241 225 237
f 237 225 226
f 242 234 243
f 243 234 244
f 244 234 235
f 244 235 240
f 245 232 246
f 246 232 242
f 242 232 233
f 242 233 234
f 247 227 248
f 248 227 228
f 248 228 229
f 248 229 249
f 249 229 230
f 249 230 231
f 249 231 245
f 250 241 251
f 251 241 237
f 251 237 238
f 251 238 239
f 251 239 252
f 252 239 247
f 252 247 253
f 253 247 248
f 253 248 254
f 254 248 249
f 254 249 255
f 255 249 256
f 256 249 245
f 256 245 246
f 256 246 257
f 257 246 242
f 257 242 243
f 257 243 244
f 257 244 258
f 258 244 240
f 258 240 250
f 250 240 241
f 251 259 260
f 251 260 250
f 250 260 261
f 250 261 262
f 250 262 258
f 258 262 263
f 258 263 257
f 257 263 264
f 257 264 265
f 252 266 251
f 251 266 267
f 251 267 268
f 251 268 259
f 254 269 253
f 253 269 270
f 253 270 252
f 252 270 266
f 257 265 271
f 257 271 272
f 257 272 256
f 256 272 273
f 256 273 274
f 256 274 275
f 256 275 255
f 255 275 254
f 254 275 276
f 254 276 269
f 2 261 260
f 2 260 259
f 2 259 3
f 3 259 4
f 4 259 268
f 4 268 504
f 504 268 267
f 504 267 266
f 504 266 11
f 11 266 270
f 11 270 5
f 5 270 6
f 6 270 269
f 6 269 7
f 7 269 514
f 514 269 12
f 12 269 276
f 12 276 275
f 12 275 17
f 17 275 15
f 15 275 274
f 15 274 8
f 8 274 273
f 8 273 9
f 9 273 272
f 9 272 18
f 18 272 271
f 18 271 265
f 18 265 16
f 16 265 14
f 14 265 264
f 14 264 13
f 13 264 263
f 13 263 262
f 13 262 10
f 10 262 2
f 2 262 261
f 277 117 320
f 117 115 279
f 115 113 279
f 113 112 280
f 280 110 281
f 110 108 281
f 108 107 282
f 102 101 283
f 101 99 283
f 99 98 393
f 98 96 284
f 96 95 391
f 95 93 285
f 93 92 389
f 92 90 286
f 90 89 387
f 89 87 287
f 87 86 385
f 86 84 288
f 84 83 383
f 83 81 289
f 81 80 381
f 80 78 290
f 78 77 379
f 77 75 291
f 75 74 292
f 294 210 211
f 295 216 210
f 296 219 218
f 296 201 219
f 299 201 298
f 299 200 201
f 300 199 200
f 300 198 199
f 302 191 197
f 302 196 191
f 303 195 196
f 303 190 195
f 305 203 304
f 312 207 311
f 312 214 207
f 314 206 313
f 318 194 315
f 318 315 319
f 319 315 316
f 319 316 317
f 205 194 318
f 319 317 320
f 324 62 121
f 325 324 121
f 323 322 327
f 323 327 324
f 324 327 326
f 324 326 62
f 327 61 62
f 326 327 62
f 214 312 313
f 313 312 329
f 313 329 314
f 314 329 330
f 314 330 322
f 322 330 331
f 322 331 327
f 327 331 328
f 327 328 61
f 331 59 61
f 328 331 61
f 330 333 331
f 331 333 332
f 331 332 63
f 331 63 59
f 332 333 63
f 312 311 335
f 312 335 329
f 329 335 336
f 329 336 330
f 330 336 337
f 330 337 333
f 333 337 334
f 333 334 64
f 333 64 63
f 334 337 64
f 215 339 311
f 311 339 335
f 336 338 337
f 337 338 65
f 337 65 64
f 215 310 339
f 336 340 338
f 338 340 65
f 341 66 65
f 310 309 339
f 339 342 335
f 335 342 343
f 335 343 336
f 336 343 341
f 336 341 340
f 340 341 65
f 309 308 339
f 341 343 66
f 344 67 66
f 308 307 345
f 308 345 339
f 339 345 342
f 342 346 343
f 343 346 344
f 343 344 66
f 307 217 345
f 344 346 67
f 349 68 67
f 345 347 342
f 342 347 348
f 342 348 346
f 346 348 349
f 346 349 67
f 217 306 345
f 350 69 68
f 306 351 345
f 345 351 347
f 348 350 349
f 349 350 68
f 352 353 69
f 203 305 306
f 306 305 351
f 348 352 350
f 350 352 69
f 351 305 354
f 351 354 347
f 347 354 355
f 347 355 348
f 348 355 353
f 348 353 352
f 356 357 69
f 355 356 353
f 353 356 69
f 304 204 358
f 304 358 305
f 305 358 354
f 355 357 356
f 359 360 70
f 355 359 357
f 357 359 70
f 190 303 204
f 204 303 358
f 358 361 354
f 354 361 362
f 354 362 355
f 355 362 360
f 355 360 359
f 363 364 70
f 362 363 360
f 360 363 70
f 303 365 358
f 358 365 361
f 362 364 363
f 366 367 71
f 362 366 364
f 364 366 71
f 196 302 303
f 303 302 365
f 365 368 361
f 361 368 369
f 361 369 362
f 362 369 367
f 362 367 366
f 370 371 71
f 369 370 367
f 367 370 71
f 302 372 365
f 365 372 368
f 369 371 370
f 371 369 72
f 197 374 302
f 302 374 372
f 372 375 368
f 368 375 373
f 368 373 369
f 369 373 72
f 74 160 376
f 376 160 373
f 197 301 374
f 375 376 373
f 374 377 372
f 372 377 375
f 375 293 376
f 376 293 74
f 198 300 301
f 301 300 374
f 375 292 293
f 293 292 74
f 300 378 374
f 374 378 377
f 377 379 375
f 375 379 291
f 375 291 292
f 292 291 75
f 291 379 77
f 378 380 377
f 377 380 381
f 377 381 379
f 379 381 290
f 379 290 78
f 200 299 300
f 300 299 378
f 290 381 80
f 299 382 378
f 378 382 380
f 380 383 381
f 381 383 289
f 381 289 81
f 299 298 382
f 289 383 83
f 298 297 382
f 382 384 380
f 380 384 385
f 380 385 383
f 383 385 288
f 383 288 84
f 201 296 297
f 297 296 382
f 288 385 86
f 296 386 382
f 382 386 384
f 384 387 385
f 385 387 287
f 385 287 87
f 287 387 89
f 296 218 386
f 386 388 384
f 384 388 389
f 384 389 387
f 387 389 286
f 387 286 90
f 218 295 386
f 286 389 92
f 295 390 386
f 386 390 388
f 388 391 389
f 389 391 285
f 389 285 93
f 285 391 95
f 210 294 295
f 295 294 390
f 390 392 388
f 388 392 393
f 388 393 391
f 391 393 284
f 391 284 96
f 284 393 98
f 294 395 390
f 390 395 392
f 392 283 393
f 393 283 99
f 395 282 392
f 392 282 321
f 392 321 283
f 283 321 102
f 107 105 282
f 397 282 395
f 396 395 394
f 394 395 294
f 394 294 211
f 282 105 104
f 282 104 321
f 321 104 102
f 396 394 211
f 281 108 282
f 281 282 397
f 399 397 395
f 399 395 400
f 400 395 396
f 223 396 211
f 398 400 396
f 398 396 223
f 280 281 402
f 402 281 397
f 402 397 399
f 401 400 398
f 401 398 223
f 222 401 223
f 279 113 280
f 279 280 402
f 406 402 399
f 406 399 403
f 403 399 400
f 403 400 401
f 220 401 222
f 404 403 401
f 404 401 213
f 213 401 220
f 278 117 279
f 279 402 406
f 405 406 403
f 405 403 404
f 405 404 213
f 320 117 278
f 205 405 213
f 320 278 319
f 319 278 279
f 319 279 406
f 319 406 318
f 318 406 405
f 318 405 205
f 206 314 315
f 315 314 322
f 315 322 316
f 316 322 323
f 316 323 317
f 317 323 324
f 317 324 320
f 320 324 325
f 320 325 277
f 277 325 121
f 408 407 126
f 408 126 409
f 410 409 58
f 410 58 411
f 412 411 57
f 412 57 413
f 414 413 56
f 414 56 415
f 416 415 55
f 416 55 417
f 417 55 418
f 418 54 419
f 419 54 420
f 420 53 421
f 421 53 422
f 422 52 423
f 423 52 424
f 424 51 425
f 425 51 426
f 426 50 427
f 427 50 428
f 428 49 429
f 429 49 430
f 430 48 431
f 431 48 432
f 432 47 433
f 433 47 434
f 436 44 437
f 437 44 120
f 44 159 120
f 439 438 43
f 439 43 42
f 439 42 440
f 440 42 441
f 441 42 41
f 441 41 442
f 442 41 443
f 443 41 39
f 443 39 444
f 444 39 445
f 445 39 38
f 445 38 446
f 446 38 447
f 447 38 36
f 447 36 448
f 448 36 449
f 449 36 35
f 449 35 450
f 450 35 451
f 451 35 33
f 451 33 452
f 452 33 453
f 453 33 32
f 453 32 454
f 454 32 455
f 455 32 30
f 455 30 456
f 456 30 457
f 457 30 29
f 457 29 458
f 458 29 459
f 459 29 27
f 459 27 460
f 460 27 461
f 461 27 26
f 461 26 462
f 462 26 463
f 463 26 24
f 463 24 464
f 464 24 465
f 465 24 23
f 465 23 466
f 466 23 467
f 467 23 21
f 467 21 468
f 468 21 469
f 469 21 19
f 469 19 470
f 470 19 471
f 407 472 126
f 471 472 470
f 438 439 473
f 438 473 120
f 120 473 437
f 407 474 472
f 472 474 470
f 440 475 439
f 437 473 476
f 437 476 436
f 436 476 477
f 436 477 435
f 435 477 478
f 435 478 434
f 434 478 433
f 433 479 432
f 432 479 431
f 431 480 430
f 430 480 429
f 429 481 428
f 428 481 427
f 427 482 426
f 426 482 425
f 425 524 424
f 424 524 423
f 423 483 422
f 422 483 421
f 421 484 420
f 420 484 419
f 419 485 418
f 418 485 417
f 416 486 415
f 415 486 414
f 414 487 413
f 413 487 412
f 412 488 411
f 411 488 410
f 410 489 409
f 409 489 408
f 408 490 407
f 407 490 491
f 407 491 474
f 474 491 470
f 475 492 439
f 439 492 493
f 439 493 473
f 491 494 470
f 470 494 2
f 470 2 469
f 469 2 495
f 469 495 468
f 468 495 496
f 468 496 467
f 467 496 497
f 467 497 466
f 466 497 498
f 466 498 465
f 465 498 499
f 465 499 464
f 464 499 500
f 464 500 463
f 463 500 501
f 463 501 462
f 462 501 461
f 461 501 502
f 461 502 460
f 460 502 503
f 460 503 459
f 459 503 504
f 459 504 458
f 458 504 457
f 457 504 505
f 457 505 456
f 456 505 455
f 455 505 11
f 455 11 454
f 454 11 506
f 454 506 453
f 453 506 507
f 453 507 452
f 452 507 508
f 452 508 451
f 451 508 509
f 451 509 450
f 450 509 510
f 450 510 449
f 449 510 6
f 449 6 448
f 448 6 511
f 448 511 447
f 447 511 512
f 447 512 446
f 446 512 513
f 446 513 445
f 445 513 514
f 445 514 444
f 444 514 515
f 444 515 443
f 443 515 516
f 443 516 442
f 442 516 517
f 442 517 441
f 441 517 440
f 440 517 475
f 493 518 473
f 473 518 476
f 476 518 15
f 476 15 477
f 478 477 519
f 478 519 433
f 433 519 479
f 479 520 431
f 431 520 480
f 480 521 429
f 429 521 481
f 481 522 427
f 427 522 482
f 482 523 425
f 425 523 524
f 423 524 18
f 423 18 483
f 483 18 525
f 483 525 421
f 421 525 484
f 484 526 419
f 419 526 485
f 485 527 417
f 417 527 528
f 417 528 416
f 416 528 486
f 486 529 414
f 414 529 487
f 487 530 412
f 412 530 488
f 488 531 410
f 410 531 10
f 410 10 489
f 489 10 408
f 408 10 490
f 490 532 491
f 532 1 491
f 491 1 494
f 498 497 499
f 499 497 3
f 499 3 500
f 500 3 501
f 501 3 4
f 501 4 502
f 506 11 507
f 507 11 508
f 508 11 5
f 508 5 509
f 509 5 510
f 510 5 6
f 6 7 511
f 512 511 7
f 512 7 513
f 513 7 514
f 515 514 12
f 515 12 516
f 516 12 517
f 475 517 17
f 475 17 492
f 492 17 493
f 493 17 518
f 477 15 8
f 477 8 519
f 519 8 479
f 479 8 9
f 479 9 520
f 520 9 480
f 480 9 521
f 482 522 9
f 482 9 523
f 523 9 524
f 525 18 16
f 525 16 484
f 484 16 526
f 526 16 14
f 526 14 485
f 485 14 527
f 527 14 13
f 527 13 528
f 528 13 486
f 487 529 13
f 487 13 530
f 530 13 488
f 532 490 1
f 533 534 535
f 535 534 536
f 535 536 537
f 537 536 538
f 537 538 539
f 539 538 540
f 539 540 541
f 541 540 542
f 541 542 543
f 543 542 544
f 543 544 545
f 545 544 546
f 545 546 547
f 547 546 548
f 547 548 549
f 549 548 550
f 549 550 551
f 551 550 552
f 551 552 553
f 553 552 554
f 553 554 555
f 555 554 556
f 555 556 557
f 557 556 558
f 557 558 559
f 559 558 560
f 559 560 561
f 561 560 562
f 561 562 563
f 563 562 564
f 563 564 565
f 565 564 566
f 565 566 567
f 567 566 568
f 567 568 569
f 569 568 570
f 569 570 571
f 571 570 572
f 571 572 573
f 573 572 574
f 573 574 575
f 575 574 576
f 575 576 577
f 577 576 578
f 577 578 579
f 579 578 580
f 579 580 581
f 581 580 582
f 581 582 583
f 583 582 584
f 583 584 585
f 585 584 586
f 585 586 587
f 587 586 588
f 587 588 589
f 589 588 590
f 589 590 591
f 591 590 592
f 591 592 593
f 593 592 594
f 593 594 595
f 595 594 596
f 595 596 597
f 597 596 598
f 597 598 599
f 599 598 600
f 599 600 601
f 601 600 602
f 601 602 603
f 603 602 604
f 603 604 533
f 533 604 534
f 572 570 605
f 605 570 568
f 605 568 566
f 578 576 605
f 605 576 574
f 605 574 572
f 584 582 605
f 605 582 580
f 605 580 578
f 590 588 605
f 605 588 586
f 605 586 584
f 596 594 605
f 605 594 592
f 605 592 590
f 602 600 605
f 605 600 598
f 605 598 596
f 536 534 605
f 605 534 604
f 605 604 602
f 542 540 605
f 605 540 538
f 605 538 536
f 548 546 605
f 605 546 544
f 605 544 542
f 554 552 605
f 605 552 550
f 605 550 548
f 560 558 605
f 605 558 556
f 605 556 554
f 566 564 605
f 605 564 562
f 605 562 560
f 565 567 606
f 606 567 569
f 606 569 571
f 559 561 606
f 606 561 563
f 606 563 565
f 553 555 606
f 606 555 557
f 606 557 559
f 547 549 606
f 606 549 551
f 606 551 553
f 541 543 606
f 606 543 545
f 606 545 547
f 535 537 606
f 606 537 539
f 606 539 541
f 601 603 606
f 606 603 533
f 606 533 535
f 595 597 606
f 606 597 599
f 606 599 601
f 589 591 606
f 606 591 593
f 606 593 595
f 583 585 606
f 606 585 587
f 606 587 589
f 577 579 606
f 606 579 581
f 606 581 583
f 571 573 606
f 606 573 575
f 606 575 577
