v -0.00842372312 -0.00842375771 0.0040721319
v 0.00779350863 0.00724451527 -0.00672894499
v -0.00813356771 -0.00868256107 0.00411814669
v 0.00809534655 0.00703458771 -0.00659388086
v -0.00783172979 -0.00889236942 0.00425321081
v 0.00838812456 0.00688807949 -0.00637918493
v -0.00753895178 -0.00903887764 0.00446790674
v 0.00865193472 0.00681488499 -0.00609928152
v -0.00727502241 -0.00911219135 0.00474781015
v 0.00886889563 0.00681989178 -0.00577336332
v -0.0070580615 -0.00910718456 0.00507372835
v 0.00902422533 0.00690286144 -0.00542360327
v -0.00690285101 -0.0090242149 0.00542348841
v 0.009107195 0.00705807194 -0.005073724
v -0.00681988134 -0.00886888519 0.00577336767
v 0.00911220179 0.00727503284 -0.00474780581
v -0.00681487455 -0.00865192429 0.00609928587
v 0.00903888807 0.00753896221 -0.00446790239
v -0.00688806906 -0.00838811413 0.00637918928
v 0.00889237986 0.00783174023 -0.00425320646
v -0.00703469648 -0.00809533611 0.00659388521
v 0.00868257151 0.00813345894 -0.00411814234
v -0.00724450483 -0.00779349819 0.00672894934
v 0.00842376814 0.00842373356 -0.00407212755
v -0.0075033082 -0.00750334278 0.00677496412
v 0.00813349352 0.00868253693 -0.00411814234
v -0.00779346361 -0.0072444202 0.00672894934
v 0.00783177481 0.00889234528 -0.00425320646
v -0.00809530153 -0.00703461185 0.00659388521
v 0.00753887758 0.0090389727 -0.00446790239
v -0.00838807955 -0.00688810364 0.00637918928
v 0.00727506743 0.00911216721 -0.00474780581
v -0.00865200891 -0.00681490913 0.00609928587
v 0.00705810652 0.00910716042 -0.005073724
v -0.00886896982 -0.00681991592 0.00577336767
v 0.00690289602 0.00902419075 -0.00542360327
v -0.00902418032 -0.00690288559 0.00542348841
v 0.00681992636 0.00886898025 -0.00577336332
v -0.00910714998 -0.00705809608 0.00507372835
v 0.00681480036 0.00865201935 -0.00609928152
v -0.00911215677 -0.00727505699 0.00474781015
v 0.00688811407 0.00838808998 -0.00637918493
v -0.00903896227 -0.00753898636 0.00446790674
v 0.00703462229 0.00809531197 -0.00659388086
v -0.00889233484 -0.00783176437 0.00425321081
v 0.00724443064 0.00779347404 -0.00672894499
v -0.00868252649 -0.00813348309 0.00411814669
v 0.00750335322 0.00750331863 -0.00677495977
v 0.00796350107 0.00796346649 -0.00542360327
v -0.00796345606 -0.00796349064 0.00542348841
v 0.00350964509 0.0090937812 -0.00384070173
v 0.00317015775 0.00873137315 -0.00490044229
v 0.00312012901 0.00825010992 -0.0055775952
v 0.00323827651 0.00747148371 -0.0066504912
v 0.00541676744 0.00453026902 -0.00773992327
v 0.00380618403 0.00631394693 -0.00739444802
v 0.00485571489 0.00485579952 -0.00763565084
v 0.0089868885 0.00337272493 -0.00419839893
v 0.00924845012 0.00382575604 -0.00317843355
v 0.00917709584 0.00431743941 -0.00245862082
v 0.0087757597 0.00538421943 -0.00129052044
v 0.0072406927 0.00754497903 -0.000635023372
v 0.00639318994 0.00829022943 -0.000815692383
v 0.00543848663 0.00880075132 -0.00132560675
v 0.00375362501 0.00903730377 -0.0031141617
v 0.00336309538 0.00690834507 -0.00681358358
v 0.00323332579 0.00395972951 -0.0113335739
v 0.00628433095 0.00386689865 -0.0074704254
v 0.00690826044 0.0033630608 -0.00681358358
v 0.00756081209 0.00692050442 -0.000631866665
v 0.00434318176 0.00922048138 -0.00242978264
v 0.00150177137 0.0122172917 -0.00175124211
v 0.00769748395 0.00316431292 -0.00630472423
v 0.00945054683 0.00750251595 0.0029973033
v 0.00856026278 0.00312869534 -0.00473207018
v 0.0110270518 -2.68020357e-05 -0.00574346222
v 0.00279352704 -0.000446332142 -0.0107550971
v 0.00466038155 0.00101759335 -0.011519745
v 0.00514020282 -0.00184725654 -0.00985494827
v 0.00616001678 -2.11238579e-05 -0.0108394246
v 0.00762766972 -0.000802941273 -0.00982795384
v 0.00797243948 -0.00295990086 -0.00742256272
v 0.0089947366 -0.00129143317 -0.00853327938
v 0.0101990631 -0.00146362879 -0.00701517784
v 0.0101159278 -0.00282617799 -0.00420389959
v 0.0108836731 -0.00138504904 -0.00590825407
v 0.0115847714 -0.00113012368 -0.00440460412
v 0.01235908 9.92570657e-05 -0.00153057088
v 0.00969929734 -0.00301485854 0.000880996273
v 0.0124201977 0.000603075598 -0.000705048413
v 0.0124010095 0.00116319517 8.5104415e-05
v 0.0105884961 -0.00127773298 0.00135585136
v 0.0121226504 0.00242846798 0.00152669523
v 0.0121393843 0.00209996298 0.00137163518
v 0.0115359486 0.00383634567 0.00272586171
v 0.0116043909 0.00347094338 0.00261429071
v 0.0106665647 0.00532240151 0.00362635466
v 0.010788687 0.00492780848 0.00357118502
v 0.009553939 0.00681781397 0.0041849045
v 0.00965290553 0.00641725661 0.00424593509
v 0.00892274759 0.00754620977 0.00432650968
v 0.00631327303 0.00996284361 0.00404199179
v 0.00298106064 0.00996887407 0.00432366102
v 0.00481486511 0.010997047 0.00336419688
v 0.0033457298 0.0117760692 0.00235472872
v 0.00019925028 0.01113182 0.00185705919
v 0.00197584239 0.0122622798 0.00106124553
v 0.000770185726 0.0124327814 -0.000455151524
v -0.00187433755 0.0110676716 -0.0014087442
v 9.30342662e-05 0.0123618227 -0.0015675018
v -0.000663402199 0.0120515483 -0.00303378962
v -0.00476041912 0.00795395911 -0.00424434953
v -0.00377928874 0.00808637818 -0.00599376968
v -0.00133868689 0.00870003414 -0.00872787219
v -0.000812102202 0.00732114413 -0.00996439054
v -4.53519867e-06 0.00585502023 -0.0109157322
v 0.00142183675 0.00415872067 -0.0116600801
v 0.00104580955 0.00428024539 -0.0115320621
v 0.0022909073 0.00357941423 -0.0118762867
v 0.00053394237 -0.00660750479 0.0104011356
v -0.0112133696 -0.00407530664 -0.00312849337
v -0.00803599011 -0.00847044582 -0.00437673761
v 0.00124115168 -0.0113241849 0.00505010287
v -0.000837803995 -0.00490378576 0.0114251836
v 0.0019223302 -0.00346265063 0.0100125587
v -0.00161787689 -0.00392180446 0.0117247938
v 0.000731069553 -0.00122432149 0.0104453537
v -0.00307639265 -0.00238345459 0.0118393988
v -0.0122179701 0.000347268287 0.00242518216
v -0.0101383859 -0.00607387004 -0.00394970156
v -0.00870675641 -0.00332212588 -0.00539214951
v -0.00936423587 -0.00705217102 -0.00424686147
v -0.010668172 -0.0053227861 -0.00362460411
v -0.0117420091 -0.00296355777 -0.00233376153
v -0.011871784 -0.00311609077 -0.00215192709
v -0.012168615 -0.00162224846 -0.00103857116
v -0.0123079744 -0.00176911358 -0.000814669452
v -0.012290944 -0.000445401312 0.000463963315
v -0.012425077 -0.000596454795 0.000735301001
v -0.0121041864 0.000513888423 0.00210613174
v -0.0117316338 0.00106062582 0.00368301877
v -0.00941581492 0.00381345559 0.0025599961
v -0.0113489282 0.00121076587 0.0050382176
v -0.0110022758 0.00149380138 0.00538816494
v -0.00860407877 0.00416427084 0.004303769
v -0.0104046534 0.00142270353 0.00673604227
v -0.0100122529 0.00162258717 0.00703235938
v -0.00754486794 0.0042065059 0.00594790211
v -0.00881097049 0.00143664685 0.00852356074
v -0.00628707086 0.00393408314 0.00742301128
v -0.00787707915 0.000875144177 0.00963290342
v -0.00745370495 0.000943363546 0.00979432253
v -0.00488020399 0.0033644577 0.00866045141
v -0.00641380931 0.000142794262 0.01069556
v -0.00600303115 0.000166020118 0.0107867973
v -0.0033896071 0.00251730368 0.00960893916
v -0.00473987587 -0.000723784028 0.011390414
v -0.00187802206 0.00142836626 0.0102266148
v -0.0037017925 -0.0015968629 0.0117108004
v -0.000307884687 -0.00565481187 0.0110998758
v 0.00109523456 -0.00768310997 0.00958482673
v 0.000895190991 -0.0078607525 0.0096273693
v 0.00154835291 -0.00899784006 0.00827163798
v 0.00133136143 -0.00920755144 0.00829014156
v 0.00169629867 -0.0101492757 0.00675159165
v 0.00144831894 -0.0103805472 0.0067399867
v 0.00153174313 -0.0110865336 0.00509359829
v 0.00103412009 -0.0117582188 0.00360367931
v 0.00345279309 -0.00977654209 0.00150120657
v 0.00033438637 -0.0122254764 0.00246411433
v 0.000304165268 -0.0121914943 0.00189647078
v 0.00262174058 -0.0101468711 -0.000228890181
v -0.000610348977 -0.0124376234 0.000765623794
v -0.000685891588 -0.0123207421 0.000253606653
v 0.0015442865 -0.0102073007 -0.00186030888
v -0.00178469606 -0.0123219882 -0.000791813062
v -0.00188639715 -0.0121349211 -0.00123678638
v 0.000274620136 -0.0099472216 -0.00332754174
v -0.00313243666 -0.0118842879 -0.00213529166
v -0.00324662927 -0.0116422648 -0.00250838652
v -0.00113979208 -0.00938395688 -0.00456086598
v -0.00459065364 -0.0111457238 -0.00320214596
v -0.00470060743 -0.0108659422 -0.0035000638
v -0.00263118035 -0.00853721006 -0.00550911838
v -0.00599185722 -0.0100079916 -0.00408150849
v -0.00413869425 -0.00744887085 -0.00612681183
v -0.00707560904 -0.00917820101 -0.00437171431
v -0.00628041012 -0.00205245548 -0.00718825453
v -0.00648975736 -0.000356135887 -0.00711727692
v 0.00349096522 -0.000736298288 0.009087952
v 0.00486743465 -0.00126595173 0.0082221778
v -0.0054986279 -0.00340551691 -0.00736327972
v 0.002342699 0.00024899339 0.00951279845
v 0.00505463241 0.00225381481 0.00785117989
v -0.00595540904 -0.00477494562 -0.00680226714
v -0.00314053985 -0.00102655233 -0.00905443726
v 0.00210870772 0.0027995998 -0.0117362414
v -0.0092186174 0.000245855322 -0.00437649017
v -0.00532667849 0.00203219485 -0.00777144132
v -0.00199864371 0.00263491604 -0.00996225646
v -0.0079062237 0.00259319959 -0.00486492754
v -0.00297293647 0.00414202608 -0.00917411638
v -0.00972293573 0.00277512007 -0.00140177342
v -0.00645127257 0.00488065185 -0.00524001267
v -0.00368405731 0.00560064527 -0.00807532889
v -0.00755490271 0.00533715204 -0.00237919758
v -0.00410559353 0.00694107161 -0.00671277518
v -0.00196179319 0.0107344028 -0.00497579512
v -0.00460673977 0.00874464276 -0.00203616371
v -0.00101832285 0.0116960286 -0.00417703173
v -0.00810795018 0.00534676754 0.000795939789
v -0.00372474095 0.00949831698 -0.000319810794
v -0.00495567539 0.00809493252 0.00167638172
v -0.00606898104 0.00654528847 0.00363706336
v -0.00159839392 0.0096281518 0.00299072607
v -0.00259393634 0.00790584629 0.00486494828
v -0.0035173583 0.00603736477 0.00663937831
v 0.00122306951 0.00851233651 0.00549857999
v 0.000354697219 0.00648831114 0.00711831234
v -0.000497738424 0.00434609036 0.00858867897
v 0.00538681109 0.0079516231 0.00556298823
v 0.00284735853 0.00508405631 0.00777175633
v 0.000974690311 0.00168029598 0.00960576015
v -0.000642291319 5.46045055e-05 0.0105731027
v 0.0019679141 0.00345773186 0.00868366096
v 0.00656207373 0.00530589945 0.00633532975
v 0.0086525051 0.00765702204 0.00446028258
v 0.00435414187 -0.00511076692 0.00768922754
v 0.00694739478 -0.000412269877 0.00666755238
v 0.00802128557 0.00338935693 0.0058605465
v 0.00628349349 -0.00421611015 0.00596994521
v 0.0089947733 0.00188027166 0.00507276985
v 0.00485879465 -0.00763923831 0.00471478242
v 0.00807384719 -0.00325818814 0.00413476586
v 0.00970391318 0.000420430994 0.00397596817
v 0.00706961913 -0.00582219943 0.00271014732
v 0.010115784 -0.000930457508 0.00262048587
v 0.0118338466 -0.000862431615 -0.00174814464
v 0.00909188516 -0.00425946676 -0.00101794114
v 0.01199504 -0.000719261322 -0.00329869768
v 0.00542609943 -0.00802863525 0.00103070282
v 0.00858832652 -0.00463486503 -0.00299192806
v 0.006576827 -0.00647373728 -0.00278069296
v 0.00444697301 -0.00816709114 -0.00253300739
v 0.00646328833 -0.00476333325 -0.00630386066
v 0.00421612058 -0.00628348306 -0.00596994086
v 0.00189268374 -0.00766188641 -0.00553305871
v 0.00363959123 -0.00364924393 -0.00881067657
v 0.00126596217 -0.00486742422 -0.00822217345
v 0.00129757602 -0.00214911918 -0.00981035502
v -0.0011268539 -0.00597045194 -0.00748239839
v 0.00178667173 0.000419783439 -0.0109580137
v -0.000820539856 -0.000116070671 -0.0101740552
v -0.00103969327 -0.00314088074 -0.00899390662
v -0.00297991171 -0.004382682 -0.00796812555
v -0.00591134405 -0.00602558746 -0.00633956917
v -0.00326029843 -0.00884422361 0.00457266661
v -0.00363846854 -0.00919990982 0.00352496282
v -0.00406355748 -0.00919312905 0.00280777303
v -0.00475317251 -0.00912109591 0.0019234561
v -0.00973995505 0.000122817465 0.0077743568
v -0.00734278606 -0.003243168 0.00669098871
v -0.00592294605 -0.00162671909 0.0108099013
v -0.00952479684 -0.00752413786 -0.00315380119
v -0.00808607689 -0.00629741998 0.000775604761
v -0.00866769265 -0.00317484665 0.00495645796
v -0.00615994572 -0.00386397574 0.00742199423
v -0.00520796963 -0.00469450819 0.00773242101
v -0.00307873042 -0.00824464762 0.00553034443
v -0.0061352261 -0.00826088688 0.000757122441
v -0.0054856549 -0.0110286895 -0.00238871695
v -0.00657264128 -0.0101897241 -0.00271731398
v -0.005904354 -0.0106609584 -0.00242799303
v -0.00876571469 -0.00825547501 -0.00309726292
v -0.00873515604 -0.00566627856 0.00119814924
v -0.0091081179 -0.00402599587 0.00261017448
v -0.0121731565 -0.00250657158 0.00034060664
v -0.00873569384 -0.00322968975 0.0043261669
v -0.00763067852 -0.000457368946 0.00997468371
v -0.00480835619 -0.00511271628 0.00777840462
v -0.00408124749 -0.00597499072 0.00760914943
v -0.00349069255 -0.00685349584 0.00704557119
v -0.00788298979 -0.00910778061 -0.00305276892
v -0.00683499999 -0.0100905466 -0.00299927965
v -0.0117482541 -0.000405752344 0.00404932326
v -0.00278612114 -0.00515370886 -0.00128681374
v -0.00136939421 -0.00579340473 -0.000145850391
v -0.000595606932 -0.00587667704 0.000867986166
v 0.00015668804 -0.0052618642 0.00287532151
v -0.000420036126 -0.00314479962 0.00513719504
v -0.00227329264 -0.00110669161 0.00540839649
v -0.00398770806 -2.41616655e-05 0.00448077297
v -0.00555366484 3.35011642e-05 0.00226614812
v -0.00476922884 -0.00331488883 -0.0014985761
v -0.000988086273 -0.00450803266 0.00230148916
v -0.00106150903 -0.0035280097 0.00363255862
v -0.00166849031 -0.0025835754 0.00412816027
v -0.00517055175 -0.000859170344 0.00151798156
v -0.00574365272 -0.000799342233 0.00076399547
v -0.00423004658 -0.00294531406 -0.000164278015
v -0.00309104927 -0.00414157504 -0.000248367712
v -0.00164281132 -0.00482845183 0.000869510217
v -0.00237743854 -0.00182903277 0.00419495643
v -0.00338268716 -0.00114753911 0.00371964957
v -0.00444823542 -0.000931041087 0.00247281858
v 0.00228918871 0.00190785086 -0.00420896567
v 0.0035279806 0.00106149874 -0.00363252109
v 0.00464495116 0.0010363124 -0.00202952609
v 0.00476107583 0.00188433703 -0.000613885883
v 0.00414160396 0.00309091969 0.000248359213
v 0.00270833487 0.00440769748 7.71564031e-05
v 0.00155033564 0.00480842785 -0.0010348006
v 0.000931047133 0.00444824146 -0.00247281124
v 0.00124733635 0.00315672104 -0.00390487367
v 0.00432186398 0.00383622569 0.00160734749
v 0.00554343011 0.00206654507 0.000802414323
v 0.00589059439 0.000842599916 -0.000484937457
v 0.00559439208 4.96036968e-05 -0.00208416072
v -0.000143058376 0.00513829886 -0.00303678033
v 0.000667418828 0.00596789706 -0.000628623923
v 0.00263420524 0.00522786181 0.00117259589
v 0.00471790554 -0.000144175597 -0.00365574781
v 0.00312863316 0.000463797143 -0.0050967002
v 0.0014044504 0.00193272254 -0.0054713666
v 0.000559888936 0.00303523525 -0.00509255907
v 4.49753141e-05 0.0040005467 -0.00443151155
v -0.00592674824 -0.0104909695 -0.00367688694
v -0.00313710582 -0.0121048673 -0.00178342268
v -0.00133458509 -0.0125134708 6.41963769e-05
v -0.000276841067 -0.0124684097 0.00168341616
v 0.00031168065 -0.0122608003 0.00286422373
v -0.00460344754 -0.00138670443 0.0116951293
v -0.00824984763 0.000718383434 0.00953795316
v -0.00931015804 0.00120437093 0.00833494087
v -0.00994197264 0.00123696312 0.00761574724
v -0.0106956815 0.00117420622 0.00661612271
v -0.0115949482 0.000977581212 0.00481984412
v -0.00447596615 -0.01158341 -0.00172024196
v -0.00349692074 -0.0120185922 -0.00092840556
v -0.00260467909 -0.0122631631 2.91804619e-05
v -0.00123031338 -0.0124062991 0.00180798168
v 0.000102451851 -0.0115576334 0.00501101685
v 0.000265351595 -0.0104409808 0.00692574845
v 0.000252180004 -0.00993814179 0.00763801477
v 0.000135518046 -0.00937627437 0.00830443677
v 5.1461316e-05 -0.00884134785 0.00892144659
v -0.000535674109 -0.00747399098 0.0100890148
v -0.00931126787 0.000265594187 0.00851137302
v -0.0112679165 0.000233315712 0.00562865541
v -0.0121126205 -0.000563432986 0.00324076022
v -0.012304737 -0.00118547635 0.00205890129
v -0.0124384455 -0.00159864095 0.00120878681
v -0.0124898832 -0.00203630846 0.000378941679
v -0.0119582856 -0.00363644661 -0.00103405259
v -0.0117167567 -0.00434516982 -0.00181100677
v -0.0102576592 -0.00664242421 -0.00298501295
v -0.00206959959 -0.00507221241 0.0113443067
v -0.00856486692 -0.0085649015 -0.00332420847
v -0.00950116997 -0.00763322361 -0.00351587463
v -0.00919218392 -0.00790789 -0.00378352199
v -0.00947708501 -0.00747967866 -0.0039654263
v -0.00838319197 -0.00838322655 -0.00422090075
v -0.00350240602 -0.0035023214 0.0115426204
v -0.00246326663 -0.00433241129 0.0116646621
v -0.00259757368 -0.00388116704 0.0118124924
v -0.00273816963 -0.00339526854 0.0118935733
v -0.00289336576 -0.00289328114 0.0119008444
v -0.00728157892 0.000375556793 0.0102571867
v -0.0039948596 -0.0116520645 -0.00257724306
v -0.00905112162 -0.00768311039 -0.00417369387
v -0.0113866886 -0.00499750855 -0.00253746394
v -0.010628446 -0.00611268378 -0.00326392241
v -0.00967899694 -0.00695903317 -0.00403243086
v -0.0102595462 -0.00621945873 -0.00379901907
v -0.0110913105 -0.00515194185 -0.00320518747
v -0.0124432657 -0.00249953295 -0.000534728901
v -0.0122667646 -0.0029528035 -0.00137425454
v -0.0119343336 -0.00361585794 -0.00212744603
v -0.0116520299 -0.00399489418 -0.00257724306
v -0.0124149693 -0.00194234863 -0.000683722706
v -0.0122734318 -0.000293671621 0.00319026121
v -0.0125052094 -0.000466702019 0.00229328749
v -0.0125829727 -0.00124340127 0.000422577113
v -0.0125313176 -0.000777197037 0.000856342106
v -0.0124808167 -0.000232436962 0.00205697824
v -0.0123254432 0.000160741653 0.00253588179
v -0.0108924694 0.000562693951 0.0064757781
v -0.0113661977 0.000696098428 0.00567279348
v -0.0117487892 0.000751162924 0.00478395028
v -0.0120807579 0.000589438008 0.0033711466
v -0.00894664837 0.000466142044 0.00900594829
v -0.00954024452 0.000870999492 0.00834370828
v -0.00740754373 -0.000256829795 0.0103010893
v -0.00693791591 -5.73290124e-05 0.0106164344
v -0.00588101042 -0.00136900498 0.0110946354
v -0.0054976119 -0.00177211777 0.0111535213
v -0.00481561556 -0.00230736748 0.0113688133
v -0.00485912428 -0.00146160712 0.0116505555
v -0.00499951057 -0.00164609528 0.0115823698
v -0.00448666994 -0.00245762499 0.0115475995
v -0.00198774554 -0.00353274562 0.0118209896
v -0.000885585273 -0.00646330411 0.01084218
v -0.000761440915 -0.00605614042 0.0111392519
v -0.00149722473 -0.00482425898 0.0116175651
v -0.00127596793 -0.00470698312 0.0116108305
v -0.000271328754 -0.00735921768 0.0103336949
v -0.000226295337 -0.00620129123 0.010958521
v 0.000526841645 -0.00976290378 0.00808138212
v 0.0006255361 -0.00916424013 0.00880235559
v 0.000379390017 -0.00761988679 0.0100919229
v 0.00070520506 -0.00799615398 0.00969213465
v 0.000907648415 -0.00899289568 0.0088520941
v 0.00113841162 -0.00933415905 0.00836354712
v 0.00030866966 -0.0116711636 0.00495896605
v 0.000707381467 -0.0113311935 0.00574111898
v 0.00112625523 -0.0102136261 0.00738023556
v 0.00125487909 -0.0104993106 0.00682360151
v 0.001023906 -0.0112244677 0.00574613197
v 0.00104888544 -0.0114372493 0.00514406183
v -0.00107288945 -0.0125283414 0.00167148602
v -0.00043178561 -0.0124939416 0.00236040637
v 0.000177083245 -0.0123230816 0.00309745315
v 0.00088878879 -0.0117813084 0.00425119037
v -0.00336100685 -0.0121752794 -0.00116960361
v -0.00258157427 -0.0124372553 -0.000712527828
v -0.00112135317 -0.012588306 0.000618739803
v -0.00231859179 -0.0124082232 -0.00087489261
v -0.00511412528 -0.0112705062 -0.00290831276
v -0.00421903845 -0.0117366154 -0.00230305116
v -0.00611204687 -0.01066443 -0.00313269959
v -0.00740452226 -0.00941326191 -0.00404902918
v -0.00666219417 -0.0102421405 -0.00358023846
v -0.00753454503 -0.00956307503 -0.00336087838
v 0.00298851781 0.00295710183 -0.0119128599
v 0.0016965492 0.00437393323 -0.0117295597
v 0.000795828347 0.00545780328 -0.0113622098
v 0.000615848928 0.00583498201 -0.0111898436
v 0.000149632205 0.00656074205 -0.0107953195
v -0.000322952458 0.00724490072 -0.0103181734
v -0.000587160858 0.00800521778 -0.00975563467
v -0.000919848181 0.00864775922 -0.00913363866
v -0.00102914741 0.00934231375 -0.00844182264
v -0.00121047959 0.00991080584 -0.00770463782
v -0.00123669776 0.0104708288 -0.00691931476
v -0.00118254362 0.0109750791 -0.00609827845
v -0.00113053207 0.0113692627 -0.00520132722
v -0.0010133112 0.0116154898 -0.00465918578
v -0.00044346453 0.0121386935 -0.00347135403
v -7.7564854e-05 0.0123607625 -0.00260735905
v 0.000357006544 0.0125050646 -0.00175786908
v 0.000853722966 0.0125695079 -0.000933834047
v 0.00140772867 0.0125535641 -0.000143884201
v 0.00201166871 0.0124573163 0.000601772108
v 0.0026593703 0.0122818526 0.00129511504
v 0.0033422158 0.0120294071 0.00192751389
v 0.00405344204 0.0117027883 0.0024916718
v 0.00478386868 0.0113058311 0.00298118903
v 0.00552509886 0.01084315 0.00339036078
v 0.00626762721 0.0103204815 0.00371418234
v 0.00700442343 0.00974375296 0.00394844391
v 0.00762117876 0.00901044475 0.0042439695
v 0.00842363657 0.00845521491 0.0041405424
v 0.00908988684 0.00775838976 0.00409555356
v 0.00971636374 0.00703768266 0.003956914
v 0.0102951602 0.0063017623 0.00372686124
v 0.0108063709 0.00558743829 0.00341111248
v 0.0112656499 0.00485447282 0.00302077072
v 0.0116687746 0.00412307291 0.00253876943
v 0.012002108 0.00341015537 0.00198125809
v 0.0122617365 0.00272376717 0.00135497486
v 0.0124443358 0.00207294944 0.000667672894
v 0.0125481282 0.00146448294 -7.37892501e-05
v 0.0125716501 0.000905689195 -0.000859730842
v 0.0125146066 0.000403394821 -0.00168028644
v 0.012317416 -0.000182197228 -0.00241739022
v 0.012195293 -0.000433580787 -0.00295632091
v 0.0118561996 -0.000726324098 -0.00430047249
v 0.0114896586 -0.000948567676 -0.00516522192
v 0.0110556185 -0.00109259869 -0.00601451058
v 0.0105586853 -0.00115714928 -0.00683878098
v 0.0100049271 -0.00114140486 -0.00762831059
v 0.00940088927 -0.00104471512 -0.00837413179
v 0.00875301579 -0.000869223044 -0.00906774183
v 0.00807013304 -0.000617188301 -0.00969974072
v 0.00735897393 -0.000290720163 -0.0102641159
v 0.00662867217 0.000106093604 -0.0107536219
v 0.00588767078 0.000569353092 -0.0111627512
v 0.00514462699 0.00109210378 -0.011486335
v 0.00440750601 0.0016690155 -0.0117209824
v 0.00353164778 0.002145598 -0.0118407796
v 0.00382596544 0.00250463695 -0.0118297039
v 0.0121707629 -0.000209142049 -0.00356108156
v 0.0123887079 0.000152061062 -0.0027111603
v 0.00785271825 0.0091741703 0.00387591834
v -0.000491826909 0.0118878668 -0.00439207229
v -0.000710006796 0.0115267578 -0.00524243383
v 0.00465397924 0.00208449977 -0.0116053022
v 0.00536336898 0.00152559212 -0.0113840079
v 0.00607916926 0.00101903313 -0.0110766905
v 0.0067935275 0.000570213081 -0.0106870035
v 0.00749842855 0.000183418387 -0.0102191415
v 0.00818352325 -0.000133935134 -0.00967984009
v 0.00884397054 -0.000381288594 -0.00907337247
v 0.00946990768 -0.000554351441 -0.00840842074
v 0.0100544292 -0.000651231647 -0.00769237786
v 0.0105905534 -0.000670649585 -0.00693384974
v 0.0110723706 -0.000612660089 -0.00614134415
v 0.011494336 -0.000477905459 -0.00532360139
v 0.0118509239 -0.000267871964 -0.00449150406
v 0.0124925486 0.000785591701 -0.00200231451
v 0.0125549603 0.00126323962 -0.00121020269
v 0.012540282 0.00179702922 -0.000447268052
v 0.0124482527 0.00237838565 0.000270915833
v 0.0122798305 0.0030016915 0.00093926253
v 0.0120369403 0.00366038131 0.00154993059
v 0.0117230682 0.00434463302 0.00209316218
v 0.0113412105 0.00504819002 0.00256528345
v 0.0108955055 0.00576286022 0.002960957
v 0.0103929983 0.00647795502 0.00327262916
v 0.00983709223 0.00718839953 0.0034996043
v 0.00923630307 0.0078832587 0.00363769879
v 0.00859634398 0.00855600089 0.00368603405
v 0.00723159814 0.00980140584 0.00351066127
v 0.00652177843 0.0103603235 0.00328950679
v 0.00580661502 0.0108663779 0.00298235871
v 0.00509198935 0.0113154795 0.00259221962
v 0.00438824348 0.011701154 0.00212449
v 0.00370164444 0.0120197727 0.00158456183
v 0.00304147214 0.0122670706 0.000978631103
v 0.00241595816 0.0124399782 0.000313830193
v 0.00183181046 0.0125367573 -0.000401978056
v 0.00129446049 0.0125564774 -0.00116136901
v 0.000813133681 0.012498477 -0.00195349926
v 0.000391183515 0.0123636498 -0.0027707981
v 3.44864375e-05 0.0121535112 -0.00360285117
v -0.000606428409 0.011100381 -0.00609112301
v -0.000669406555 0.0106219511 -0.00688572961
v -0.000654506793 0.0100887479 -0.00764694569
v -0.000562286821 0.00950734787 -0.00836549321
v -0.000394345343 0.00888339401 -0.00903430879
v -0.000151757509 0.00822549276 -0.00964400884
v 0.000162509391 0.00754042772 -0.010188532
v 0.000544373266 0.00683746155 -0.0106602869
v 0.000989659201 0.00612374874 -0.0110547661
v 0.00149323205 0.00540711855 -0.0113675668
v 0.00204828509 0.00469800799 -0.0115939708
v 0.00264980881 0.00400158771 -0.0117326407
v 0.00328908752 0.00333009184 -0.0117805243
v 0.00404860408 0.00287297056 -0.0115979451
v 0.0120421691 0.00022125918 -0.00375420547
v 0.0122550491 0.00056143359 -0.00294218348
v 0.00798201513 0.00915707582 0.00340437467
v -1.15463157e-05 0.0118089507 -0.00443883291
v -0.000224301244 0.0114690152 -0.00525031327
v 0.00481566057 0.00230746254 -0.011368809
v 0.00549765692 0.00177209362 -0.011153517
v 0.00618597136 0.00128667339 -0.0108554938
v 0.00677188991 0.000965230816 -0.010504862
v 0.00754901037 0.000487971153 -0.01002687
v 0.00820788012 0.000183987465 -0.00950580618
v 0.00906739571 -7.4693945e-05 -0.00866397384
v 0.00990201954 -0.00024352087 -0.00768359057
v 0.0105162488 -0.000322890434 -0.00686055204
v 0.010977708 -0.00026483551 -0.00609785101
v 0.0113812314 -0.000132990036 -0.00531178495
v 0.0117219316 7.12154768e-05 -0.0045116522
v 0.0123320447 0.00108950123 -0.00212055227
v 0.0123900996 0.00155096039 -0.00135785124
v 0.0123736487 0.00206487164 -0.000627336712
v 0.0122688545 0.00257162789 -7.48599693e-05
v 0.0121173904 0.00316116907 0.000568398064
v 0.0119033001 0.00375582397 0.00112105205
v 0.0114241268 0.00479465979 0.00194629087
v 0.0108284521 0.00578674241 0.00253105277
v 0.0102951156 0.00656955227 0.0029351137
v 0.00975986586 0.00725154861 0.00315040567
v 0.00918074713 0.00791923985 0.00328058222
v 0.00856491194 0.00856487736 0.00332421282
v 0.0072515832 0.00975983128 0.00315040567
v 0.00656958685 0.0102952002 0.0029351137
v 0.00588127241 0.0107805012 0.00263720968
v 0.00519486532 0.0112102507 0.0022601507
v 0.00427511658 0.0116873556 0.00157313743
v 0.00322588549 0.0121187447 0.00070303896
v 0.0026254283 0.0122827767 6.22890282e-05
v 0.00206490622 0.0123736142 -0.000627336712
v 0.00155087576 0.0123901842 -0.00135785124
v 0.00108953581 0.0123321293 -0.00212055227
v 0.000686012364 0.0122001646 -0.00290661833
v 0.000345312215 0.0119960783 -0.00370675108
v -0.000264920138 0.0109776734 -0.00609785101
v -0.000322855853 0.0105163334 -0.00686055204
v -0.00026002255 0.0100677518 -0.00746449802
v -0.000215567493 0.00944178089 -0.00828069231
v -5.15355101e-05 0.0088413237 -0.00892144224
v 0.000183902837 0.00820796474 -0.00950580618
v 0.000488005734 0.007549095 -0.01002687
v 0.00105609162 0.00661759174 -0.0106007259
v 0.00173254507 0.00561876307 -0.0110713575
v 0.00230737791 0.00481562599 -0.011368809
v 0.00288649664 0.00414793476 -0.0114989855
v 0.00350233183 0.00350241646 -0.0115426161
f 1 2 3
f 3 2 4
f 3 4 5
f 5 4 6
f 5 6 7
f 7 6 8
f 7 8 9
f 9 8 10
f 9 10 11
f 11 10 12
f 11 12 13
f 13 12 14
f 13 14 15
f 15 14 16
f 15 16 17
f 17 16 18
f 17 18 19
f 19 18 20
f 19 20 21
f 21 20 22
f 21 22 23
f 23 22 24
f 23 24 25
f 25 24 26
f 25 26 27
f 27 26 28
f 27 28 29
f 29 28 30
f 29 30 31
f 31 30 32
f 31 32 33
f 33 32 34
f 33 34 35
f 35 34 36
f 35 36 37
f 37 36 38
f 37 38 39
f 39 38 40
f 39 40 41
f 41 40 42
f 41 42 43
f 43 42 44
f 43 44 45
f 45 44 46
f 45 46 47
f 47 46 48
f 47 48 1
f 1 48 2
f 28 26 49
f 49 26 24
f 49 24 22
f 34 32 49
f 49 32 30
f 49 30 28
f 40 38 49
f 49 38 36
f 49 36 34
f 46 44 49
f 49 44 42
f 49 42 40
f 4 2 49
f 49 2 48
f 49 48 46
f 10 8 49
f 49 8 6
f 49 6 4
f 16 14 49
f 49 14 12
f 49 12 10
f 22 20 49
f 49 20 18
f 49 18 16
f 21 23 50
f 50 23 25
f 50 25 27
f 15 17 50
f 50 17 19
f 50 19 21
f 9 11 50
f 50 11 13
f 50 13 15
f 3 5 50
f 50 5 7
f 50 7 9
f 45 47 50
f 50 47 1
f 50 1 3
f 39 41 50
f 50 41 43
f 50 43 45
f 33 35 50
f 50 35 37
f 50 37 39
f 27 29 50
f 50 29 31
f 50 31 33
f 66 56 54
f 55 67 57
f 57 67 56
f 56 67 599
f 56 599 598
f 68 69 558
f 64 71 583
f 51 72 65
f 65 72 71
f 61 573 572
f 61 572 571
f 61 571 570
f 62 74 70
f 70 74 61
f 61 74 574
f 61 574 573
f 69 73 558
f 75 76 73
f 73 76 562
f 73 562 561
f 75 58 76
f 131 133 121
f 134 135 136
f 136 137 138
f 138 139 140
f 125 160 120
f 161 162 163
f 163 164 165
f 165 166 167
f 130 133 131
f 188 131 189
f 124 160 125
f 190 125 191
f 132 130 131
f 126 124 125
f 195 132 131
f 195 131 192
f 192 131 188
f 188 189 196
f 127 126 125
f 127 125 193
f 193 125 190
f 190 191 194
f 122 132 256
f 256 132 195
f 192 188 196
f 401 126 127
f 193 190 194
f 195 192 196
f 121 134 198
f 121 198 131
f 131 198 189
f 189 199 196
f 196 199 200
f 196 200 253
f 253 200 118
f 253 118 197
f 197 118 117
f 197 117 119
f 134 136 198
f 198 201 189
f 189 201 199
f 199 202 200
f 200 202 116
f 200 116 436
f 200 436 118
f 136 138 203
f 136 203 198
f 198 203 201
f 201 204 199
f 199 204 205
f 199 205 202
f 202 205 115
f 202 115 439
f 202 439 116
f 138 140 203
f 203 206 201
f 201 206 204
f 204 207 205
f 205 207 114
f 205 114 441
f 205 441 115
f 140 211 203
f 203 211 206
f 206 112 204
f 204 112 113
f 204 113 207
f 207 113 443
f 207 443 114
f 113 444 443
f 211 209 206
f 206 209 208
f 206 208 112
f 113 112 445
f 113 445 444
f 112 208 446
f 112 446 445
f 109 111 209
f 109 209 212
f 142 211 141
f 141 211 140
f 141 140 390
f 390 140 129
f 111 210 209
f 209 210 208
f 208 447 446
f 213 212 209
f 213 209 211
f 110 111 109
f 214 213 211
f 214 211 145
f 145 211 142
f 145 142 144
f 144 142 143
f 143 142 141
f 108 110 109
f 106 108 109
f 106 109 215
f 215 109 212
f 215 212 213
f 148 214 145
f 148 145 147
f 147 145 146
f 146 145 144
f 107 108 106
f 216 215 213
f 216 213 214
f 217 216 214
f 217 214 150
f 150 214 148
f 150 148 149
f 149 148 334
f 334 148 147
f 105 107 106
f 103 105 106
f 103 106 218
f 218 106 215
f 218 215 216
f 153 217 150
f 153 150 152
f 152 150 151
f 151 150 149
f 104 105 103
f 219 218 216
f 219 216 217
f 220 219 217
f 220 217 156
f 156 217 153
f 156 153 155
f 155 153 154
f 154 153 152
f 102 104 103
f 221 102 103
f 221 103 222
f 222 103 218
f 222 218 219
f 158 220 156
f 158 156 157
f 157 156 155
f 461 102 221
f 225 222 219
f 225 219 220
f 158 157 159
f 223 225 220
f 223 220 224
f 224 220 158
f 224 158 159
f 159 128 224
f 222 226 221
f 221 226 461
f 461 226 227
f 128 401 224
f 224 401 223
f 223 401 127
f 223 127 225
f 225 127 193
f 225 193 222
f 222 193 194
f 222 194 226
f 120 161 228
f 120 228 125
f 125 228 191
f 191 229 194
f 194 229 230
f 194 230 226
f 226 230 100
f 226 100 227
f 227 100 99
f 227 99 101
f 161 163 228
f 228 231 191
f 191 231 229
f 229 232 230
f 230 232 98
f 230 98 97
f 230 97 100
f 163 165 233
f 163 233 228
f 228 233 231
f 231 234 229
f 229 234 235
f 229 235 232
f 232 235 96
f 232 96 95
f 232 95 98
f 165 167 233
f 233 236 231
f 231 236 234
f 234 237 235
f 235 237 94
f 235 94 93
f 235 93 96
f 167 241 233
f 233 241 236
f 236 89 234
f 234 89 92
f 234 92 237
f 237 92 91
f 237 91 94
f 92 90 91
f 241 239 236
f 236 239 238
f 236 238 89
f 92 89 88
f 92 88 90
f 89 238 475
f 89 475 88
f 85 87 239
f 85 239 242
f 169 241 168
f 168 241 167
f 168 167 423
f 423 167 123
f 87 240 239
f 239 240 238
f 238 476 475
f 243 242 239
f 243 239 241
f 86 87 85
f 244 243 241
f 244 241 172
f 172 241 169
f 172 169 171
f 171 169 170
f 170 169 168
f 84 86 85
f 82 84 85
f 82 85 245
f 245 85 242
f 245 242 243
f 175 244 172
f 175 172 174
f 174 172 173
f 173 172 171
f 83 84 82
f 246 245 243
f 246 243 244
f 247 246 244
f 247 244 178
f 178 244 175
f 178 175 177
f 177 175 176
f 176 175 174
f 81 83 82
f 79 81 82
f 79 82 248
f 248 82 245
f 248 245 246
f 181 247 178
f 181 178 180
f 180 178 179
f 179 178 177
f 80 81 79
f 249 248 246
f 249 246 247
f 251 249 247
f 251 247 184
f 184 247 181
f 184 181 183
f 183 181 182
f 182 181 180
f 78 80 79
f 77 78 79
f 77 79 250
f 250 79 248
f 250 248 249
f 186 251 184
f 186 184 185
f 185 184 183
f 490 78 77
f 254 250 249
f 254 249 251
f 186 185 187
f 252 490 77
f 252 77 253
f 253 77 250
f 253 250 254
f 255 254 251
f 255 251 256
f 256 251 186
f 256 186 187
f 187 122 256
f 255 256 195
f 255 195 254
f 254 195 196
f 254 196 253
f 252 253 197
f 252 197 490
f 262 261 266
f 270 272 273
f 270 273 271
f 265 264 274
f 265 274 270
f 265 275 264
f 276 351 352
f 276 352 277
f 263 262 267
f 262 279 261
f 343 344 269
f 269 344 345
f 269 345 282
f 282 345 347
f 271 338 270
f 270 338 260
f 260 339 340
f 270 274 283
f 270 283 284
f 270 284 272
f 277 354 276
f 276 354 275
f 266 285 278
f 278 285 276
f 276 285 350
f 276 350 351
f 294 270 286
f 286 270 287
f 287 270 260
f 287 260 288
f 288 260 259
f 288 259 258
f 288 258 289
f 289 258 257
f 289 257 269
f 289 269 290
f 290 269 282
f 290 282 281
f 290 281 280
f 290 280 291
f 291 280 268
f 291 268 267
f 291 267 292
f 292 267 262
f 292 262 293
f 293 262 266
f 293 266 278
f 293 278 276
f 293 276 298
f 298 276 299
f 299 276 275
f 299 275 294
f 294 275 265
f 294 265 270
f 302 288 295
f 295 288 289
f 295 289 296
f 296 289 290
f 296 290 297
f 300 299 294
f 300 294 301
f 301 294 286
f 301 286 302
f 302 286 287
f 302 287 288
f 297 290 303
f 303 290 291
f 303 291 304
f 304 291 292
f 304 292 305
f 305 292 293
f 305 293 298
f 306 301 307
f 307 301 302
f 307 302 308
f 308 302 295
f 308 295 309
f 309 295 296
f 309 296 310
f 310 296 297
f 310 297 303
f 310 303 311
f 311 303 304
f 311 304 312
f 312 304 305
f 312 305 313
f 313 305 298
f 313 298 314
f 314 298 299
f 314 299 300
f 314 300 306
f 306 300 301
f 310 315 316
f 310 316 309
f 309 316 317
f 309 317 308
f 308 317 318
f 313 319 320
f 313 320 312
f 312 320 311
f 311 320 321
f 311 321 310
f 310 321 315
f 308 318 322
f 308 322 307
f 307 322 323
f 307 323 306
f 306 323 324
f 306 324 314
f 314 324 325
f 314 325 326
f 314 326 313
f 313 326 319
f 57 324 55
f 55 324 323
f 55 323 68
f 68 323 69
f 69 323 73
f 73 323 322
f 73 322 75
f 75 322 318
f 75 318 58
f 58 318 59
f 59 318 317
f 59 317 60
f 60 317 61
f 61 317 316
f 61 316 315
f 61 315 70
f 70 315 62
f 62 315 63
f 63 315 321
f 63 321 64
f 64 321 320
f 64 320 71
f 71 320 65
f 65 320 51
f 51 320 52
f 52 320 319
f 52 319 53
f 53 319 54
f 54 319 326
f 54 326 66
f 66 326 56
f 56 326 325
f 56 325 324
f 56 324 57
f 187 185 327
f 180 179 328
f 179 177 328
f 177 176 427
f 176 174 329
f 174 173 426
f 173 171 330
f 171 170 331
f 170 168 331
f 159 157 332
f 152 151 333
f 151 149 333
f 334 147 335
f 147 146 336
f 146 144 336
f 144 143 337
f 143 141 337
f 339 260 338
f 341 260 340
f 341 259 260
f 341 258 259
f 342 257 258
f 342 269 257
f 357 281 282
f 348 261 279
f 349 266 261
f 349 285 266
f 353 277 352
f 355 275 354
f 356 264 275
f 264 356 359
f 280 281 357
f 358 274 264
f 358 264 359
f 363 280 357
f 363 357 364
f 370 132 122
f 275 355 356
f 356 355 371
f 356 371 359
f 359 371 372
f 359 372 360
f 360 372 361
f 361 370 362
f 362 370 122
f 361 373 370
f 370 373 132
f 374 130 132
f 372 371 375
f 372 375 361
f 361 375 374
f 361 374 373
f 373 374 132
f 375 133 130
f 374 375 130
f 375 121 133
f 277 353 354
f 354 353 376
f 354 376 355
f 355 376 377
f 355 377 371
f 371 377 378
f 371 378 375
f 379 134 121
f 378 379 375
f 375 379 121
f 378 135 134
f 379 378 134
f 377 136 135
f 378 377 135
f 380 137 136
f 351 350 381
f 351 381 352
f 352 381 382
f 352 382 353
f 353 382 383
f 353 383 376
f 376 383 380
f 376 380 377
f 377 380 136
f 383 138 137
f 380 383 137
f 384 139 138
f 285 349 350
f 350 349 381
f 382 385 383
f 383 385 384
f 383 384 138
f 385 140 139
f 384 385 139
f 386 129 140
f 349 387 381
f 381 387 388
f 381 388 382
f 382 388 389
f 382 389 385
f 385 389 386
f 385 386 140
f 389 390 386
f 386 390 129
f 261 348 349
f 349 348 387
f 389 337 390
f 390 337 141
f 348 391 387
f 387 391 392
f 387 392 388
f 388 392 336
f 388 336 389
f 389 336 337
f 337 336 144
f 279 393 348
f 348 393 391
f 392 335 336
f 336 335 147
f 392 334 335
f 393 394 391
f 391 394 333
f 391 333 392
f 392 333 334
f 334 333 149
f 394 368 333
f 333 368 152
f 157 155 332
f 332 155 394
f 332 394 398
f 398 394 399
f 399 394 393
f 399 393 395
f 395 393 279
f 395 279 263
f 263 279 262
f 394 155 154
f 394 154 368
f 368 154 152
f 396 395 263
f 400 399 395
f 400 395 397
f 397 395 396
f 397 396 267
f 267 396 263
f 128 159 332
f 400 397 268
f 268 397 267
f 367 128 332
f 367 332 366
f 366 332 398
f 366 398 365
f 365 398 399
f 365 399 364
f 364 399 400
f 364 400 363
f 363 400 280
f 280 400 268
f 282 347 357
f 357 347 402
f 357 402 364
f 364 402 403
f 364 403 365
f 365 403 404
f 365 404 366
f 366 404 401
f 366 401 367
f 367 401 128
f 404 405 401
f 401 405 126
f 405 124 126
f 347 406 402
f 402 406 403
f 404 403 405
f 407 160 124
f 345 346 347
f 347 346 406
f 403 407 405
f 405 407 124
f 407 120 160
f 346 345 408
f 346 408 406
f 406 408 409
f 406 409 410
f 406 410 403
f 403 410 407
f 410 161 120
f 345 344 408
f 407 410 120
f 411 162 161
f 344 343 408
f 409 412 410
f 410 412 411
f 410 411 161
f 412 163 162
f 269 342 343
f 343 342 408
f 411 412 162
f 413 164 163
f 342 414 408
f 408 414 415
f 408 415 409
f 409 415 416
f 409 416 412
f 412 416 413
f 412 413 163
f 416 165 164
f 413 416 164
f 417 166 165
f 415 418 416
f 416 418 417
f 416 417 165
f 418 167 166
f 258 341 342
f 342 341 414
f 417 418 166
f 419 123 167
f 341 420 414
f 414 420 421
f 414 421 415
f 415 421 422
f 415 422 418
f 418 422 419
f 418 419 167
f 422 423 419
f 419 423 123
f 422 331 423
f 423 331 168
f 341 340 420
f 340 339 424
f 340 424 420
f 420 424 425
f 420 425 421
f 421 425 426
f 421 426 422
f 422 426 330
f 422 330 331
f 331 330 171
f 330 426 173
f 339 338 424
f 425 427 426
f 426 427 329
f 426 329 174
f 338 271 424
f 329 427 176
f 271 428 424
f 424 428 429
f 424 429 425
f 425 429 328
f 425 328 427
f 427 328 177
f 429 428 369
f 429 369 328
f 328 369 180
f 185 183 327
f 327 183 428
f 327 428 432
f 432 428 430
f 430 428 271
f 428 183 182
f 428 182 369
f 369 182 180
f 284 430 271
f 284 271 272
f 272 271 273
f 431 187 327
f 431 327 432
f 432 430 433
f 433 430 284
f 122 187 431
f 433 284 283
f 362 122 431
f 362 431 361
f 361 431 360
f 360 431 432
f 360 432 359
f 359 432 433
f 359 433 358
f 358 433 274
f 274 433 283
f 119 117 435
f 435 117 118
f 435 118 436
f 437 436 438
f 436 116 438
f 438 116 439
f 439 115 440
f 440 115 441
f 441 114 442
f 442 114 443
f 208 210 447
f 447 210 111
f 447 111 448
f 448 111 449
f 449 111 110
f 449 110 450
f 450 110 108
f 450 108 451
f 451 108 452
f 452 108 107
f 452 107 453
f 453 107 454
f 454 107 105
f 454 105 455
f 455 105 456
f 456 105 104
f 456 104 457
f 457 104 458
f 458 104 102
f 458 102 459
f 459 102 460
f 460 102 461
f 461 227 462
f 462 227 101
f 462 101 463
f 463 101 99
f 463 99 464
f 464 99 100
f 464 100 465
f 465 100 97
f 465 97 466
f 466 97 467
f 97 98 467
f 467 98 468
f 98 95 468
f 468 95 469
f 95 96 469
f 469 96 470
f 96 93 470
f 470 93 471
f 93 94 471
f 471 94 472
f 94 91 472
f 472 91 473
f 91 90 473
f 473 90 474
f 90 88 474
f 474 88 475
f 238 240 476
f 476 240 87
f 476 87 477
f 477 87 478
f 478 87 86
f 478 86 479
f 479 86 84
f 479 84 480
f 480 84 481
f 481 84 83
f 481 83 482
f 482 83 483
f 483 83 81
f 483 81 484
f 484 81 485
f 485 81 80
f 485 80 486
f 486 80 487
f 487 80 78
f 487 78 488
f 488 78 489
f 489 78 490
f 434 490 197
f 434 197 119
f 434 491 490
f 490 491 489
f 477 492 476
f 476 492 493
f 476 493 475
f 475 493 474
f 462 494 461
f 461 494 460
f 448 495 447
f 447 495 496
f 447 496 446
f 446 496 445
f 491 497 489
f 489 497 498
f 489 498 488
f 488 498 499
f 488 499 487
f 487 499 500
f 487 500 486
f 486 500 501
f 486 501 485
f 485 501 502
f 485 502 484
f 484 502 503
f 484 503 483
f 483 503 504
f 483 504 482
f 482 504 505
f 482 505 481
f 481 505 506
f 481 506 480
f 480 506 507
f 480 507 479
f 479 507 508
f 479 508 478
f 478 508 509
f 478 509 477
f 477 509 492
f 493 510 474
f 474 510 511
f 474 511 473
f 473 511 512
f 473 512 472
f 472 512 513
f 472 513 471
f 471 513 514
f 471 514 470
f 470 514 515
f 470 515 469
f 469 515 516
f 469 516 468
f 468 516 517
f 468 517 467
f 467 517 518
f 467 518 466
f 466 518 519
f 466 519 465
f 465 519 520
f 465 520 464
f 464 520 521
f 464 521 463
f 463 521 522
f 463 522 462
f 462 522 494
f 494 523 460
f 460 523 524
f 460 524 459
f 459 524 525
f 459 525 458
f 458 525 526
f 458 526 457
f 457 526 527
f 457 527 456
f 456 527 528
f 456 528 455
f 455 528 529
f 455 529 454
f 454 529 530
f 454 530 453
f 453 530 531
f 453 531 452
f 452 531 532
f 452 532 451
f 451 532 533
f 451 533 450
f 450 533 534
f 450 534 449
f 449 534 535
f 449 535 448
f 448 535 495
f 496 536 445
f 445 536 537
f 445 537 444
f 444 537 538
f 444 538 443
f 443 538 539
f 443 539 442
f 442 539 540
f 442 540 441
f 441 540 541
f 441 541 440
f 440 541 542
f 440 542 439
f 439 542 543
f 439 543 438
f 438 543 544
f 438 544 437
f 437 544 545
f 437 545 436
f 436 545 546
f 436 546 435
f 435 546 547
f 435 547 119
f 119 547 548
f 119 548 434
f 434 548 491
f 548 549 491
f 491 549 497
f 509 550 492
f 492 550 551
f 492 551 493
f 493 551 510
f 522 552 494
f 494 552 523
f 535 553 495
f 495 553 554
f 495 554 496
f 496 554 536
f 549 555 497
f 497 555 556
f 497 556 498
f 498 556 557
f 498 557 499
f 499 557 558
f 499 558 500
f 500 558 559
f 500 559 501
f 501 559 560
f 501 560 502
f 502 560 561
f 502 561 503
f 503 561 504
f 504 561 562
f 504 562 505
f 505 562 563
f 505 563 506
f 506 563 564
f 506 564 507
f 507 564 565
f 507 565 508
f 508 565 566
f 508 566 509
f 509 566 550
f 551 567 510
f 510 567 568
f 510 568 511
f 511 568 569
f 511 569 512
f 512 569 570
f 512 570 513
f 513 570 571
f 513 571 514
f 514 571 572
f 514 572 515
f 515 572 573
f 515 573 516
f 516 573 517
f 517 573 574
f 517 574 518
f 518 574 575
f 518 575 519
f 519 575 576
f 519 576 520
f 520 576 577
f 520 577 521
f 521 577 578
f 521 578 522
f 522 578 552
f 552 579 523
f 523 579 580
f 523 580 524
f 524 580 581
f 524 581 525
f 525 581 582
f 525 582 526
f 526 582 583
f 526 583 527
f 527 583 528
f 528 583 584
f 528 584 529
f 529 584 585
f 529 585 530
f 530 585 586
f 530 586 531
f 531 586 587
f 531 587 532
f 532 587 588
f 532 588 533
f 533 588 589
f 533 589 534
f 534 589 590
f 534 590 535
f 535 590 553
f 554 591 536
f 536 591 592
f 536 592 537
f 537 592 593
f 537 593 538
f 538 593 594
f 538 594 539
f 539 594 595
f 539 595 540
f 540 595 596
f 540 596 541
f 541 596 597
f 541 597 542
f 542 597 598
f 542 598 543
f 543 598 544
f 544 598 599
f 544 599 545
f 545 599 600
f 545 600 546
f 546 600 601
f 546 601 547
f 547 601 602
f 547 602 548
f 548 602 549
f 602 55 549
f 549 55 555
f 555 55 68
f 555 68 556
f 556 68 557
f 557 68 558
f 559 558 73
f 559 73 560
f 560 73 561
f 563 562 76
f 563 76 564
f 564 76 565
f 565 76 58
f 565 58 566
f 566 58 550
f 550 58 59
f 550 59 551
f 551 59 567
f 567 59 568
f 568 59 60
f 568 60 569
f 569 60 61
f 569 61 570
f 575 574 74
f 575 74 576
f 576 74 577
f 577 74 62
f 577 62 578
f 578 62 552
f 552 62 63
f 552 63 579
f 579 63 580
f 580 63 581
f 581 63 64
f 581 64 582
f 582 64 583
f 584 583 71
f 584 71 585
f 585 71 586
f 586 71 72
f 586 72 587
f 587 72 588
f 588 72 51
f 588 51 589
f 589 51 590
f 590 51 52
f 590 52 553
f 553 52 554
f 554 52 591
f 591 52 53
f 591 53 592
f 592 53 54
f 592 54 593
f 594 593 54
f 594 54 595
f 595 54 596
f 596 54 56
f 596 56 597
f 597 56 598
f 600 599 67
f 600 67 601
f 601 67 602
f 602 67 55
