v -0.00921660235 0.00371872272 0.00261852058
v -0.00958876429 0.00402620925 0.00145147938
v -0.00945670837 0.00437533301 0.000579134564
v -0.0118823979 0.000707826311 0.0036879866
v -0.00372397263 0.00910109199 0.00295999266
v -0.00883066136 0.00392835985 0.00404565684
v -0.00501010293 0.00921724764 -0.000447324998
v -0.00416593092 0.00936319542 0.000778828009
v -0.00388320363 0.00949840344 0.00211414539
v -0.000744241361 0.0119100395 0.0034892079
v -0.00832259018 0.0040104381 0.00448456026
v -0.00896317649 0.00517266527 -0.000736436457
v -0.00389843909 0.00887989951 0.00404012659
v -0.00410965772 0.00843058535 0.00457931313
v -0.00469812982 0.00757723441 0.00559554688
v -0.00526011273 0.00673611105 0.00587414938
v -0.00747202924 0.00494261763 0.00587303805
v -0.00788539258 0.0044879436 0.00523881878
v -0.00994295066 0.00147571363 0.00731720138
v -0.00757663492 0.00704972825 -0.00175141168
v -0.00720023472 0.0084043733 -0.00565120958
v -0.00630108682 0.00800324083 -0.00162260163
v -0.00658368428 0.00897824682 -0.00551900648
v -0.00451744101 0.0106972416 -0.00444289181
v -0.00571392882 0.00974364279 -0.00519531584
v -0.00583986592 0.00474606302 0.0098969787
v -0.00498902161 0.00559198774 0.00991227843
v -0.00352958508 0.00795909277 -0.00711920188
v -0.00550581256 0.00909416054 -0.00651391451
v -0.0041409322 0.010227344 -0.00580372136
v -0.000938200905 0.00998017693 -0.00514956632
v -0.00285502741 0.0111690654 -0.00474451566
v -0.00170924688 0.011874403 -0.00338646146
v 0.00107501939 0.0110413816 -0.00206741665
v -0.000753329911 0.0123126812 -0.00178981069
v -3.03107893e-05 0.0124639816 -2.5944061e-05
v 0.000541017962 0.0122347325 0.00104751791
v 0.000593120768 0.0117677979 0.00403292933
v 0.0030424632 0.00949767985 0.00401403342
v 0.00276872655 0.00866570795 0.00572591439
v -0.000147640811 0.00962525162 0.00780699695
v -0.000939945472 0.00842492824 0.00903430425
v -0.0019283138 0.00710239029 0.00994430512
v -0.00148311938 0.00422170852 0.0102036216
v -0.00395525186 0.00480282216 0.0106727018
v -0.00533300725 0.00373381816 0.0106341765
v -0.00243200527 0.00100421481 0.0101164594
v -0.00555500515 0.000489948796 0.00976991251
v -0.00671742395 0.00248503771 0.0102049611
v -0.00806527207 0.00139380299 0.0094039783
v -0.00815654604 -0.00136761087 0.00765766389
v -0.0093196255 0.000505273966 0.00826437159
v -0.0104214823 -0.000139070188 0.0068378517
v -0.0101085959 -0.00225471731 0.00448181741
v -0.0113202136 -0.000508717042 0.00519220003
v -0.0119770888 -0.000588440424 0.00339939158
v -0.0120591967 -0.000761800105 0.00218695927
v -0.0109000142 -0.00145071827 -0.00159094118
v -0.0102255384 -0.00153294276 -0.00293735075
v -0.0116994739 0.00178492651 -0.00368488582
v -0.0109552053 0.00293721795 -0.00498608226
v -0.00998672974 0.00422032751 -0.00598820517
v -0.00866871344 0.00597787734 -0.00666277756
v -0.00875692758 0.00558078636 -0.00667785032
v -0.00816330666 0.00689857449 -0.00669899597
v 0.00474353017 -0.0043030794 -0.0106977007
v 0.00864708659 0.00474818755 0.000226858855
v 0.0089803644 -0.0056309493 0.00655178653
v 0.00825666192 -0.00319444042 0.00694641913
v 0.0082057863 -0.00648157796 0.00678558573
v 0.00624045836 -0.00506952239 0.0076375659
v -0.00057981349 -0.0119327143 -0.00354337803
v 0.00259459831 -0.00659331701 -0.0102507409
v 0.000214596371 -0.00590153789 -0.00957851952
v 0.00341521376 -0.005673603 -0.0105649074
v 0.000930042554 -0.00285001738 -0.0101107769
v 0.0021272911 -0.00739489432 -0.00991344434
v 0.00037720096 -0.0090401805 -0.00838123305
v -0.000298638354 -0.0101303811 -0.00700614468
v -0.00071369185 -0.0110332468 -0.00541004402
v -0.000850176198 -0.0117099908 -0.00366205814
v -0.000637459351 -0.012151959 -0.00206044671
v -0.00334551344 -0.00990100208 -0.000712164657
v -0.000164670451 -0.0124495148 -0.000786185861
v -0.000235511379 -0.0123373109 -0.00023992104
v -0.00284474698 -0.0100248565 0.00113985873
v 0.000448086963 -0.0124246573 0.00103438983
v 0.000433003574 -0.0122399902 0.00152750155
v -0.00209175404 -0.00985864163 0.00290323322
v 0.00131127181 -0.0121041581 0.00272088637
v 0.00133653329 -0.0118609467 0.00314649829
v -0.00111575123 -0.00941100721 0.00450140787
v 0.00238478961 -0.0115028632 0.0041954272
v 0.00243362853 -0.0112168234 0.00454512894
v 4.36692463e-05 -0.00870252314 0.00586561247
v 0.00361808906 -0.0106492565 0.00539055472
v 0.00367684651 -0.0103358249 0.00566378724
v 0.00133749635 -0.00776047724 0.00693974866
v 0.00484532952 -0.00942722766 0.00635665235
v 0.00564462232 -0.00898329416 0.00654821867
v 0.00271107347 -0.00662381628 0.00767768583
v 0.00620353394 -0.0082084728 0.00683641283
v 0.00407129417 -0.00533939933 0.00805127808
v 0.00735689914 -0.00736803462 0.00685641783
v 0.00968401811 -0.00503662199 0.00619177377
v 0.0109460999 -0.00278691589 0.00496176096
v 0.0116553937 -0.0016283044 0.00365997521
v 0.0118212791 -0.00180613553 0.00350358069
v 0.0121105301 -0.000646961125 0.00212133144
v 0.0122839262 -0.00083286108 0.0019215652
v 0.0122935788 0.000112957802 0.000412571093
v 0.0124597806 -9.04941654e-05 0.000166033063
v 0.012138705 0.000648166205 -0.00213459164
v 0.00970317573 0.00350100327 -0.0018391587
v 0.0119546499 0.000553311797 -0.00352391921
v 0.0116687429 0.000763270147 -0.00394829973
v 0.00915957575 0.00352978417 -0.003684169
v 0.0109391306 0.000594218995 -0.00568533824
v 0.00836407112 0.00327627377 -0.0054171188
v 0.00998469941 0.0001452033 -0.00725646839
v 0.00735121878 0.00274758255 -0.00696751121
v 0.00923144387 -0.000599846879 -0.00836752546
v 0.00884728308 -0.000562761016 -0.0085913178
v 0.00615909106 0.00197145681 -0.00826673112
v 0.00795995784 -0.00150493957 -0.00948239182
v 0.00757709008 -0.0014994154 -0.00963251966
v 0.00484234679 0.000974458198 -0.00926144799
v 0.00642817615 -0.00247755713 -0.0102598198
v 0.00345490616 -0.000199365216 -0.00990808679
v 0.00545815942 -0.00339492039 -0.0105881481
v -0.00112697017 -0.00359252611 -0.00948321222
v 0.00607961374 -0.00201162971 0.00794369479
v -0.00229813739 -0.00114129616 -0.00928792254
v 0.00437081497 -0.00368583285 0.00833764292
v 0.00372890483 -0.000966631271 0.00883263957
v 0.00165662353 0.000416683412 0.00945135899
v 0.000202624886 0.00253871241 0.00988003389
v -0.0102272515 -0.00287747707 -1.60698051e-05
v 0.000540358558 0.0120489066 0.00329713112
v -0.00340099636 0.00132099571 -0.00891857754
v -0.00743338378 0.00675212731 -0.00701194433
v -0.00310882787 -0.00623160677 -0.00745831467
v -0.00449352044 -0.00388904518 -0.00758524444
v -0.00576915234 -0.00148146665 -0.00757455054
v -0.00692424629 0.00236337105 -0.00752646489
v -0.00801848446 0.0010076923 -0.00670023586
v -0.00413437101 -0.0082642921 -0.0043261394
v -0.0057911594 -0.00613208021 -0.00466005314
v -0.00731958689 -0.00388846549 -0.00491508849
v -0.00890514707 -0.000257790933 -0.00554897975
v -0.00954924641 -0.001378515 -0.00412023429
v -0.0062538963 -0.00716994224 -0.00105500242
v -0.00773681588 -0.00519411548 -0.00231793209
v -0.0102581861 -0.00260725828 -0.000935807785
v -0.00582482624 -0.00760900497 -3.78160584e-05
v -0.00907330391 -0.00420128858 0.00203521751
v -0.00636399913 -0.00690222323 0.00166676466
v -0.00670796374 -0.00598425128 0.00331925954
v -0.00693699602 -0.00491173052 0.00490676387
v -0.00414095874 -0.0074407495 0.00451012879
v -0.00652618926 -0.00329503505 0.00711823424
v -0.00420534 -0.00471157895 0.00727793976
v -0.00181276813 -0.00601551467 0.00730633542
v -0.00394080024 -0.00141651947 0.00930458984
v -0.00149734199 -0.00261002352 0.00915406743
v -0.00409182641 0.00515840144 0.0106803808
v -0.00313031037 0.00245708145 0.0103736184
v 0.000295526196 -0.00098639809 0.0095141194
v 0.000964636464 -0.00372876196 0.00883271576
v 0.00816230476 0.000672239404 0.00608520838
v 0.00601446837 0.00181177269 0.00730736579
v 0.00375925472 0.00289500381 0.00838685689
v 0.00123946518 0.00518313847 0.00904447173
v 0.00931932298 0.00280312501 0.00306595039
v 0.00743914757 0.00414127286 0.00451210951
v 0.00542860417 0.00537673724 0.00587146123
v 0.00218631806 0.00647132299 0.00796925119
v 0.00290568511 0.0076213304 0.00660077062
v 0.00691363598 0.00637428239 0.00166909236
v 0.00599964099 0.00672030936 0.00332433399
v 0.000569349934 0.0119398824 0.00348844744
v 0.0123409096 0.000387608181 -0.00168332838
v 0.000463015248 0.012265443 0.00215068079
v 0.00342875501 0.0098584969 0.000882644955
v 0.00549879728 0.0077904618 -0.00138755465
v 0.00725109369 0.00603869114 -0.00195126761
v 0.00301193993 0.00938671913 -0.00263064872
v 0.00388813769 0.00731860993 -0.00491665812
v 0.00564066709 0.00556758034 -0.00548056184
v 0.00097583176 0.00836431643 -0.00576216254
v 0.00147971429 0.00576899925 -0.007575175
v 0.00323334405 0.00401678012 -0.00814033828
v -0.00166030323 0.00637939694 -0.00778784763
v 0.00111863791 0.00230393644 -0.0092339512
v -0.00502156575 0.00636613287 -0.00759622835
v -0.0044594679 0.00376769805 -0.00836797364
v -0.000948768545 0.00370364233 -0.00881053963
v -0.000292498378 0.000985339396 -0.00952745136
v 0.00191941868 -0.0018074438 -0.0102164975
v 0.00198657891 -0.00913389519 -0.00824129033
v 0.00434995334 -0.00778871857 -0.00508663439
v 0.00945112707 -0.00382918367 -0.00154980372
v 0.0039809164 -0.00861772447 -0.00432024279
v 0.00364710452 -0.00926901461 -0.00267796535
v 0.00429934498 -0.00624787942 -0.00998629067
v 0.00859449799 -0.003992259 -0.0045581009
v 0.00805871546 -0.00431225345 -0.00517386398
v 0.00760178713 -0.00459451705 -0.00537914984
v 0.00473388764 -0.00934656694 5.06344934e-05
v 0.00542237853 -0.00894886249 0.000892209082
v 0.00598488226 -0.0084506462 0.00129324887
v 0.00852760668 -0.00566220111 0.00126783607
v 0.0114830788 -0.000779754434 -0.004701965
v 0.00569241221 -0.00614561092 -0.00601795603
v 0.00688000374 -0.0037102858 -0.00981418034
v 0.00774181526 -0.00306087815 -0.00922546171
v 0.00504025132 -0.00553641326 -0.00992574695
v 0.00433076065 -0.00929993473 -0.000464174975
v 0.00632030792 -0.00822584958 0.00149635863
v 0.00589788597 -0.004693807 -0.00987908624
v 0.00651443641 -0.00411993348 -0.00974688314
v 0.00178446505 -0.0122741231 0.000861435557
v 0.00788034324 -0.00672506816 0.0017498913
v 0.00715050679 -0.00845493994 0.00565361816
v 0.00374580066 -0.00135278784 -0.00442704939
v 0.00483920278 -0.000560417675 -0.00349457246
v 0.00588453056 -0.000284343282 -0.00111148549
v 0.00579731291 -0.00104249873 0.00096726651
v 0.0049427138 -0.002368998 0.00242922743
v 0.00285416978 -0.00455633536 0.00273524001
v 0.000900388746 -0.0058766783 0.000772904079
v 0.000233225348 -0.00572854776 -0.00175293175
v 0.000817759885 -0.004434567 -0.00395091929
v 0.00239911726 -0.00255909642 -0.00486195184
v 0.00391082795 -0.00167625139 -0.00291393525
v 0.00443649929 -0.00137460314 -0.0022200086
v 0.00483067685 -0.00128884103 -0.00126432846
v 0.00491154831 -0.00149649464 -0.000370476473
v 0.00157575069 -0.00404174172 -0.00281959051
v 0.00251758911 -0.00289868874 -0.00344304681
v 0.00317979496 -0.0022646793 -0.00335559629
v 0.00462876457 -0.00216240521 0.00081662894
v 0.00344326811 -0.00356418102 0.00148649696
v 0.00205789209 -0.00469529411 0.000698703524
v 0.00128433329 -0.00489314184 -0.00108475768
v -0.0030849823 0.00390207525 -0.00142325416
v -0.00178218647 0.0048470193 -0.000314708358
v -0.00125271201 0.00476984369 0.00156468378
v -0.00180667693 0.0037157413 0.00311415799
v -0.00270878632 0.00270885147 0.00343861796
v -0.00359751792 0.00189800419 0.00319757632
v -0.00471246686 0.00125807324 0.00172595779
v -0.0048841368 0.00169842809 -0.000170374079
v -0.00418501788 0.00274436829 -0.00124465199
v -0.005640858 0.00132876552 -0.00136933111
v -0.00585305054 0.000883816849 -0.000648353327
v -0.005920115 0.000319972934 0.000890881258
v -0.000560424398 0.00483919283 0.00349450557
v -0.000271819992 0.00576971088 0.0015059529
v -0.000799023001 0.00591397776 -0.000574406197
v -0.00186251957 0.00530135549 -0.00197133802
v -0.00245856602 0.00485163845 -0.00242433332
v -0.00364527863 0.00380527492 -0.00285929039
v -0.00505904086 0.00220337939 -0.00227646946
v -0.00474246241 0.000597390303 0.00367961765
v -0.00285627698 0.0021247102 0.00479150755
v -0.00189029534 0.00311756052 0.00470819689
v -0.00135278065 0.00374585308 0.00442698218
v 0.00569140272 -0.00372337443 -0.0105983202
v 0.00750372224 -0.00228160219 -0.00993419987
v 0.00993514698 -0.000413001408 -0.00771329187
v 0.0104413494 -4.53372456e-05 -0.00696959119
v 0.0109530751 0.00011515535 -0.00619587683
v 0.0113569648 0.000343207769 -0.00533916449
v 0.0117517773 0.000362335812 -0.0044874885
v 0.0121648748 0.000365722199 -0.00324084793
v 0.00712879515 -0.00778013727 0.00678949085
v 0.0061616755 -0.00879779512 0.00657439803
v 0.00450903941 -0.0103371067 0.00574554282
v 0.00245206447 -0.0117655824 0.00388617919
v 0.00102735202 -0.0124061712 0.00184514738
v 0.000289565732 -0.0125808724 0.000100757849
v 0.00901376349 -0.00200780813 -0.00847869574
v 0.0101293236 -0.0012356118 -0.00735570854
v 0.0112958376 -0.000591299454 -0.0056043367
v 0.0119044749 -0.00058002184 -0.00393340046
v 0.0122160596 -0.000684134127 -0.00268326123
v 0.0124386595 -0.000868813279 -0.00139594297
v 0.0124745307 -0.0012393161 -0.000137973661
v 0.0124139454 -0.00157063456 0.000687268866
v 0.0123024336 -0.00192544015 0.0014545287
v 0.012109393 -0.00235723677 0.0021693143
v 0.0119192664 -0.00274187409 0.00285973765
v 0.011557098 -0.00333670397 0.00349307008
v 0.0110018086 -0.00416471987 0.00436332382
v 0.0103116917 -0.00506626677 0.00501735995
v 0.00242260797 -0.01211299 0.00246515521
v 0.00131525105 -0.0124812509 0.000131521133
v 0.00094941091 -0.0124430839 -0.00114689943
v 0.00065903383 -0.0124149756 -0.00204120123
v 0.000657730511 -0.0121874617 -0.00284241783
v 0.000505229559 -0.0120153161 -0.0037560859
v 0.000639796831 -0.0116832375 -0.00447138236
v 0.000370297885 -0.0117349963 -0.00475051965
v 0.000983367503 -0.0105584477 -0.00679750854
v 0.00182156015 -0.00920621294 -0.00840221855
v 0.00350923096 -0.00706793369 -0.00979626897
v 0.00923993714 -0.00635009315 0.00567117756
v 0.00930296256 -0.00625537376 0.00585621341
v 0.0090027347 -0.00644809421 0.00626042903
v 0.00583508022 -0.00458147054 -0.0102031499
v 0.00422910741 -0.00606560424 -0.0103051184
v 0.00438512122 -0.00564767197 -0.0104977519
v 0.00389713569 -0.00586138121 -0.0105781046
v 0.00469339531 -0.00469333016 -0.0106919744
v 0.0077833477 -0.00787430661 0.00594503032
v 0.00762755591 -0.00795332689 0.00626638662
v 0.00830143312 -0.00700065476 0.00659662985
v 0.0031470124 -0.0112226614 0.00474562861
v 0.00402880352 -0.00537377678 -0.0106425025
v 0.00205226219 -0.0086483952 -0.00904783825
v 0.002341218 -0.00798223651 -0.00962404825
v 0.00338781517 -0.00606244885 -0.0104948022
v 0.00277758281 -0.00675153815 -0.0102505424
v 0.00214065166 -0.00788950159 -0.00967718747
v 0.00159820142 -0.00806258326 -0.00948273639
v 0.000681712438 -0.0104236157 -0.00722629217
v 0.00126323266 -0.00923055982 -0.00861394235
v 0.00119817894 -0.00874394261 -0.00897106909
v 0.000775462796 -0.00935798966 -0.00837847971
v 0.000247819098 -0.011353471 -0.00568969448
v 0.000605444188 -0.00972269646 -0.00803277628
v 0.000115043332 -0.0104688414 -0.00698301576
v 1.82617871e-05 -0.0107814645 -0.00657157549
v -0.000274890254 -0.0113823422 -0.00536093496
v 0.000327836406 -0.0125471411 -0.0019517019
v -3.4618511e-05 -0.0123845813 -0.00282657699
v -0.000293639288 -0.0116313153 -0.00490462041
v -0.000376575778 -0.0120571264 -0.00358555101
v 0.00106793027 -0.0126358131 0.000255373468
v -0.00038200231 -0.0122696527 -0.00263871052
v -0.000185602496 -0.012462736 -0.00173709177
v 0.00121707138 -0.0126042922 0.00121275889
v 0.000260442164 -0.0126407908 -0.00048380444
v 0.00278536204 -0.0119142479 0.00334097727
v 0.000919188394 -0.0125535096 0.001286811
v 0.00294701077 -0.0116916511 0.00401372726
v 0.00181649676 -0.0121793468 0.00290773274
v 0.00431968916 -0.0108946579 0.00456997791
v 0.00473178991 -0.0105014759 0.00535505003
v 0.00531167575 -0.0101237807 0.00535198274
v 0.00559633516 -0.00957655753 0.00619746294
v 0.00639701647 -0.0090250278 0.00621295881
v 0.00648177361 -0.00910313246 0.00588477222
v 0.00784361999 -0.00717014157 0.00674083449
v 0.00849724453 -0.00648462855 0.00664212919
v 0.0111175487 -0.00399403869 0.00461711894
v 0.00912380855 -0.00579476439 0.0064459107
v 0.0111453139 -0.00383045476 0.00478868206
v 0.0100947994 -0.00494445188 0.00584141284
v 0.0102354712 -0.00436138567 0.00580573081
v 0.0115399915 -0.0030409322 0.00436144576
v 0.0107714001 -0.00377696835 0.00529935576
v 0.012385129 -0.00187785062 0.00198775957
v 0.0112226073 -0.00314706646 0.00474562861
v 0.0124358068 -0.00166972773 0.00209317697
v 0.0114306396 -0.00278780099 0.00444142583
v 0.0119464461 -0.00199437224 0.00341704107
v 0.0123533741 -0.00143756639 0.00231828801
v 0.0125959483 -0.000583573637 -0.00136821818
v 0.0124061171 -0.00102728688 0.00184514738
v 0.0126448269 -0.000351270852 -0.00134401174
v 0.0126196227 -0.000625784067 0.000629738457
v 0.0125808779 -0.000289560188 0.000100757849
v 0.0125090391 5.5237669e-05 -0.00222711349
v 0.0125241593 5.85839615e-05 -0.000795807055
v 0.0119942277 -0.000324294435 -0.00401747759
v 0.0124627415 0.00018560804 -0.00173709177
v 0.0117344793 -0.000110841564 -0.00491007653
v 0.0113110048 6.85338178e-06 -0.00578780113
v 0.00989252376 -0.00119563721 -0.00784725613
v 0.00986733565 -0.000991234796 -0.00796700109
v 0.0097709712 -0.000793019223 -0.0080233347
v 0.00897949977 -0.00114049778 -0.00880992394
v 0.00806064891 -0.0024071088 -0.00949345223
v 0.00811340992 -0.00264786162 -0.00922447417
v 0.00707113159 -0.00298593934 -0.010120466
v 0.00675338754 -0.00372479856 -0.0099999371
v 0.00588195994 -0.00387270849 -0.0105299026
v 0.00566912334 -0.00436502777 -0.0104676225
v -0.0075605797 0.00759223393 -0.00669243047
v -0.00886138382 0.0062293426 -0.00650094218
v -0.0097509825 0.00516233535 -0.00614634457
v -0.0100258207 0.00489221907 -0.00593159702
v -0.0105440026 0.00423419687 -0.00552252103
v -0.0109916798 0.0035368788 -0.00507273298
v -0.0114493598 0.00297733891 -0.00443311018
v -0.011785498 0.0023414327 -0.00383079647
v -0.0121162257 0.00186490733 -0.00305333348
v -0.0123244076 0.00131664323 -0.00232884824
v -0.0124904337 0.000882716915 -0.00150119497
v -0.0126070444 0.000575334988 -0.000578278885
v -0.0125535466 0.000312097253 -0.000372828303
v -0.0125066391 -0.000110105264 0.000919819212
v -0.0124403545 -0.000159509562 0.00218639975
v -0.012237926 -0.00025417607 0.00312396311
v -0.0119686873 -0.000278098725 0.00403308424
v -0.0116337121 -0.000228831412 0.00491912704
v -0.0112369446 -0.000107557584 0.00577169744
v -0.0107829014 8.52971491e-05 0.00658140507
v -0.0102764165 0.000347269373 0.00733955059
v -0.00972359009 0.000674428395 0.00803666637
v -0.00913034038 0.00106469629 0.0086656671
v -0.00850384483 0.00151265587 0.00921887969
v -0.00785093175 0.00201370822 0.0096902844
v -0.00717917829 0.00256153921 0.0100742628
v -0.00649594303 0.00315046499 0.010366847
v -0.00580895325 0.00377349137 0.0105646146
v -0.00512621313 0.00442379933 0.0106650998
v -0.00346776699 0.00605922432 0.0105207489
v -0.00285434211 0.00675083268 0.0102815567
v -0.00258842968 0.00714699901 0.010090217
v -0.00206364299 0.00780188235 0.00972144932
v -0.00149545836 0.00839680329 0.00929069224
v -0.00110822459 0.0090717902 0.00872212522
v -0.000642513695 0.00962591429 0.00812304337
v -0.000378497536 0.0102255788 0.00740929559
v -3.63057468e-05 0.0106972635 0.00667966382
v 0.000165478363 0.0111582601 0.00587483604
v 0.000296400971 0.0115624219 0.00502659749
v 0.000273616985 0.0119394717 0.00412045694
v 0.000170306517 0.0124269022 0.00226069802
v -2.20582625e-06 0.012563714 0.00132185617
v -0.000237424599 0.0126242579 0.000405201317
v -0.000540031806 0.0126117944 -0.000493604239
v -0.000906330251 0.0125264277 -0.0013640083
v -0.00148221122 0.0124861973 -0.00194636582
v -0.00194793747 0.012273552 -0.00273052711
v -0.00246271046 0.01199405 -0.00345951027
v -0.00302283249 0.0116498077 -0.00412744379
v -0.00361946856 0.0112458646 -0.00472457629
v -0.00424694102 0.0107864041 -0.00524476987
v -0.00489819553 0.0102763504 -0.00568288127
v -0.00556496683 0.00972238253 -0.00603290129
v -0.0062413426 0.00912969395 -0.00629161383
v -0.00675718105 0.00812249326 -0.00675624454
v -0.00690902472 0.00857990061 -0.00632287171
v 6.8569697e-06 0.0122827306 0.00316039432
v -0.00460191639 0.00528165243 0.0105726295
v -0.0126059872 0.000247429742 0.00137185089
v -0.0126650341 0.000479553007 0.000469754668
v -0.00101989365 0.0126298835 -0.000367211134
v -0.000724907768 0.0126458193 0.000497311507
v -0.000494610155 0.0125913185 0.00137966468
v -0.00033173501 0.0124670049 0.0022698357
v -0.000213637747 0.0120153143 0.00403427663
v -0.000260452132 0.0116932271 0.00488765377
v -0.000376854354 0.0113112088 0.00570996892
v -0.000561975999 0.010874345 0.00649007927
v -0.000813654018 0.0103866735 0.00722111807
v -0.00112892841 0.00985457167 0.0078931067
v -0.00150430813 0.00928353366 0.00849952152
v -0.00193532316 0.00868005346 0.00903324866
v -0.00241749767 0.00805093607 0.0094882402
v -0.00294517657 0.00740368342 0.00985907248
v -0.00351205372 0.00674560923 0.0101415847
v -0.00411211869 0.00608409874 0.0103325921
v -0.00538425375 0.00477891687 0.0104336932
v -0.00604149107 0.00415150233 0.010341879
v -0.00670341541 0.00354943251 0.0101565166
v -0.00736237162 0.00297972717 0.0098796653
v -0.00801012767 0.00244994127 0.00951442505
v -0.00864074393 0.00196472655 0.00906454202
v -0.00924579615 0.00153028476 0.00853594668
v -0.00981929998 0.00115114908 0.00793383589
v -0.0103540718 0.000831920395 0.0072657034
v -0.0108445792 0.000576236066 0.0065384387
v -0.0112849192 0.00038686086 0.00576094122
v -0.0116707658 0.000265644953 0.00494074442
v -0.0119963842 0.000215051927 0.0040899299
v -0.0122597943 0.000234090884 0.00321420282
v -0.0124566202 0.000323589354 0.00232726689
v -0.0126329956 0.000999352939 -0.000312604298
v -0.012551243 0.00135180725 -0.00115172727
v -0.0124001964 0.00176200698 -0.00195417469
v -0.0121816532 0.00222476108 -0.00271043527
v -0.0118976218 0.00273539483 -0.0034135871
v -0.0115518894 0.00328790567 -0.0040536667
v -0.0111481156 0.00387600216 -0.0046243632
v -0.0106908135 0.00449290799 -0.00511937238
v -0.0101852627 0.00513193 -0.00553284683
v -0.00963730757 0.00578544173 -0.00585988045
v -0.00905252975 0.00644687365 -0.00609731233
v -0.00843882802 0.00710736975 -0.00624179419
v -0.00780188936 0.00776051565 -0.00629236936
v -0.00724371811 0.00839482353 -0.00601749593
v -0.00047512703 0.0122169301 0.00311064784
v -0.00482697482 0.0055628607 0.0102426089
v -0.0125038205 0.000700454461 0.00152347121
v -0.0125649904 0.000917580121 0.000660934851
v -0.00656449158 0.00903093732 -0.00575444483
v -0.00592910607 0.00959366478 -0.00552913927
v -0.00530039627 0.0101217023 -0.00521728777
v -0.00468563397 0.0106090299 -0.00482258581
v -0.00409173329 0.0110501639 -0.00434920572
v -0.00352548916 0.0114399783 -0.00380275034
v -0.00299333889 0.0117742411 -0.00318941854
v -0.00261764911 0.0119816692 -0.00259487744
v -0.00193910406 0.0123017248 -0.00147906831
v -0.00141683961 0.0124510696 -0.00032912232
v -0.00103651841 0.0125023714 0.000617053282
v -0.000817173312 0.0124478332 0.00146570421
v -0.000662439655 0.0123262397 0.0023215077
v -0.000553601573 0.011888086 0.00401642538
v -0.000600570033 0.0115765325 0.00483610846
v -0.000714653323 0.0112077586 0.00562491633
v -0.000894659351 0.0107859365 0.00637390829
v -0.00113856156 0.0103159539 0.00707450129
v -0.00143537813 0.00987876 0.00758266298
v -0.00180601437 0.00925302423 0.00829961516
v -0.00222205479 0.00867211736 0.00881030775
v -0.00268697102 0.0080669514 0.00924494482
v -0.00314385305 0.00755158385 0.00949943507
v -0.00367948133 0.00692562797 0.00977948439
v -0.00431930382 0.00617521919 0.0100486539
v -0.00554310639 0.00492209114 0.0101396105
v -0.00608550757 0.00444220885 0.0100191472
v -0.00668291234 0.00390114721 0.00985709751
v -0.00806700547 0.00268697656 0.00924494482
v -0.00867211182 0.00222211994 0.00881030775
v -0.00925301869 0.00180601991 0.00829961516
v -0.00980305035 0.00144350446 0.00771894671
v -0.0103158887 0.0011385671 0.00707450129
v -0.0107859309 0.000894664894 0.00637390829
v -0.0112076934 0.000714658867 0.00562491633
v -0.011576527 0.000600515972 0.00483610846
v -0.0118880208 0.000553547512 0.00401642538
v -0.0121389564 0.000574289929 0.00317504622
v -0.0123262342 0.000662445198 0.0023215077
v -0.0124891933 0.0013181559 -0.000214669932
v -0.0124084886 0.00165879644 -0.0010201671
v -0.0122622757 0.00202727928 -0.00163538303
v -0.0120619737 0.00246266889 -0.00236356458
v -0.0118094994 0.00292551907 -0.00300279026
v -0.0114768849 0.00346686688 -0.00366194088
v -0.0111170454 0.00399788508 -0.00418003887
v -0.0106684178 0.00460996213 -0.00469879603
v -0.0102150656 0.00518917569 -0.00507614029
v -0.00959371884 0.00592905201 -0.00552913927
v -0.00903093178 0.00656455673 -0.00575444483
v -0.00853587456 0.00710327834 -0.00581621177
v -0.00782703717 0.00782710231 -0.00593611978
v 0.00838125389 -0.00838118874 -0.00424394392
v -0.00857066471 0.00911974825 0.00136890627
v 0.0086637799 -0.00811475598 -0.00419411444
v -0.00829123814 0.00935196794 0.00151505686
v 0.00894320648 -0.00788247668 -0.00404796385
v -0.0080341037 0.00953411974 0.00174739577
v 0.00920034092 -0.00770032488 -0.00381562494
v -0.00781666596 0.00965380586 0.00205030657
v 0.00941777866 -0.00758063876 -0.00351271414
v -0.00765382607 0.00970286049 0.00240304686
v 0.00958061855 -0.00753164374 -0.00315997385
v -0.00755655129 0.00967788614 0.00278153635
v 0.00967789333 -0.00755655848 -0.00278148435
v -0.00753163655 0.00958067096 0.00316002585
v 0.00970280807 -0.00765377365 -0.00240299486
v -0.00758063156 0.00941777147 0.00351276613
v 0.00965381305 -0.00781667315 -0.00205037378
v -0.00770031769 0.00920033373 0.00381555773
v 0.00953412693 -0.00803411089 -0.00174746298
v -0.00788246949 0.00894313968 0.00404801584
v 0.00935197513 -0.00829130494 -0.00151500486
v -0.00811468918 0.00866377271 0.00419404722
v 0.00911975544 -0.00857067191 -0.00136897348
v -0.00838124115 0.00838118709 0.00424387671
v 0.00885320347 -0.00885325753 -0.001319144
v -0.00866376717 0.00811475433 0.00419404722
v 0.00857067745 -0.00911974989 -0.00136897348
v -0.00894319374 0.00788247503 0.00404801584
v 0.00829125087 -0.00935196959 -0.00151500486
v -0.00920032818 0.00770032323 0.00381555773
v 0.00803411644 -0.00953412138 -0.00174746298
v -0.00941776593 0.00758063711 0.00351276613
v 0.00781667869 -0.00965380751 -0.00205037378
v -0.00958060582 0.00753164209 0.00316002585
v 0.0076538388 -0.00970280253 -0.00240299486
v -0.0096778806 0.00755655683 0.00278153635
v 0.00755656402 -0.00967788779 -0.00278148435
v -0.00970279534 0.00765377201 0.00240304686
v 0.00753164928 -0.00958067261 -0.00315997385
v -0.00965380032 0.0078166715 0.00205030657
v 0.0075806443 -0.00941777312 -0.00351271414
v -0.00953411419 0.00803410925 0.00174739577
v 0.00770033043 -0.00920033537 -0.00381562494
v -0.0093519624 0.00829130329 0.00151505686
v 0.00788248222 -0.00894314133 -0.00404796385
v -0.0091197427 0.00857067026 0.00136890627
v 0.00811470192 -0.00866377436 -0.00419411444
v -0.00885319073 0.00885325588 0.00131907679
v -0.00861727555 0.00861722149 0.00278153635
v 0.00861716907 -0.00861722313 -0.00278148435
f 2 4 1
f 1 4 6
f 7 8 508
f 8 509 508
f 8 9 510
f 8 510 509
f 13 10 5
f 5 10 9
f 12 544 543
f 12 543 542
f 6 19 11
f 11 19 18
f 12 546 545
f 12 545 544
f 20 548 12
f 12 548 547
f 12 547 546
f 22 25 23
f 22 23 21
f 7 24 22
f 22 24 25
f 528 527 17
f 17 527 26
f 17 26 16
f 21 551 22
f 22 551 20
f 16 26 27
f 16 27 524
f 16 524 523
f 74 77 326
f 74 326 78
f 78 332 79
f 79 334 80
f 80 338 81
f 69 105 361
f 69 361 106
f 106 367 107
f 107 108 109
f 109 110 111
f 111 112 376
f 73 77 74
f 68 105 69
f 75 73 74
f 70 68 69
f 76 75 74
f 76 74 131
f 71 70 69
f 71 69 132
f 66 75 199
f 199 75 76
f 76 131 133
f 104 70 71
f 134 71 132
f 134 132 135
f 199 76 198
f 198 76 133
f 198 133 140
f 74 78 142
f 74 142 131
f 131 142 143
f 131 143 133
f 133 143 144
f 133 144 140
f 140 144 145
f 140 145 196
f 196 145 64
f 196 64 141
f 141 64 63
f 141 63 65
f 78 79 142
f 144 146 145
f 145 146 62
f 145 62 393
f 145 393 64
f 79 80 147
f 79 147 142
f 142 147 148
f 142 148 143
f 143 148 149
f 143 149 144
f 144 149 150
f 144 150 146
f 146 150 61
f 146 61 396
f 146 396 62
f 80 81 147
f 149 151 150
f 150 151 60
f 150 60 398
f 150 398 61
f 81 152 147
f 147 152 153
f 147 153 148
f 148 153 149
f 149 153 59
f 149 59 151
f 151 59 400
f 151 400 60
f 59 401 400
f 153 152 154
f 153 154 58
f 153 58 59
f 59 58 403
f 59 403 401
f 152 138 154
f 58 154 403
f 57 138 156
f 156 138 152
f 155 152 83
f 83 152 82
f 82 152 81
f 82 81 341
f 341 81 72
f 57 404 138
f 138 404 154
f 154 404 403
f 157 156 152
f 157 152 155
f 54 56 57
f 54 57 156
f 157 155 86
f 86 155 83
f 86 83 85
f 85 83 84
f 84 83 82
f 55 56 54
f 158 156 157
f 159 54 156
f 159 156 158
f 160 158 157
f 160 157 89
f 89 157 86
f 89 86 88
f 88 86 87
f 87 86 85
f 53 55 54
f 159 158 160
f 51 53 54
f 51 54 161
f 161 54 159
f 92 160 89
f 92 89 91
f 91 89 90
f 90 89 88
f 52 53 51
f 162 161 159
f 162 159 160
f 163 162 160
f 163 160 95
f 95 160 92
f 95 92 94
f 94 92 93
f 93 92 91
f 50 52 51
f 48 50 51
f 48 51 164
f 164 51 161
f 164 161 162
f 98 163 95
f 98 95 97
f 97 95 96
f 96 95 94
f 49 50 48
f 165 164 162
f 165 162 163
f 169 165 163
f 169 163 101
f 101 163 98
f 101 98 99
f 99 98 97
f 46 49 48
f 101 99 100
f 47 46 48
f 47 48 164
f 47 164 165
f 103 169 101
f 103 101 102
f 102 101 100
f 166 46 167
f 167 46 47
f 168 47 165
f 168 165 169
f 103 102 277
f 277 104 103
f 103 104 71
f 103 71 134
f 103 134 169
f 169 134 135
f 169 135 168
f 168 135 136
f 168 136 47
f 47 136 137
f 47 137 167
f 167 137 45
f 167 45 166
f 69 106 170
f 69 170 132
f 132 170 171
f 132 171 135
f 135 171 172
f 135 172 136
f 136 172 137
f 137 44 45
f 45 44 166
f 44 420 166
f 106 107 170
f 172 173 137
f 137 173 43
f 137 43 44
f 44 43 421
f 44 421 420
f 107 109 174
f 107 174 170
f 170 174 175
f 170 175 171
f 171 175 176
f 171 176 172
f 172 176 177
f 172 177 173
f 173 177 42
f 173 42 424
f 173 424 43
f 109 111 174
f 176 178 177
f 177 178 41
f 177 41 426
f 177 426 42
f 376 67 111
f 111 67 179
f 111 179 174
f 174 179 180
f 174 180 175
f 175 180 176
f 176 180 40
f 176 40 178
f 178 40 428
f 178 428 41
f 40 429 428
f 180 179 39
f 180 39 40
f 40 39 430
f 40 430 429
f 39 38 430
f 67 184 179
f 179 184 139
f 179 139 39
f 39 139 181
f 39 181 38
f 185 184 67
f 185 67 186
f 186 67 114
f 114 67 113
f 113 67 182
f 182 67 376
f 37 183 184
f 184 183 139
f 34 36 37
f 34 37 187
f 187 37 184
f 187 184 185
f 117 186 114
f 117 114 116
f 116 114 115
f 115 114 113
f 35 36 34
f 188 187 185
f 188 185 189
f 189 185 186
f 189 186 119
f 119 186 117
f 119 117 118
f 118 117 274
f 274 117 116
f 33 35 34
f 31 33 34
f 31 34 190
f 190 34 187
f 190 187 188
f 121 189 119
f 121 119 120
f 120 119 272
f 272 119 118
f 32 33 31
f 191 190 188
f 191 188 192
f 192 188 189
f 192 189 124
f 124 189 121
f 124 121 123
f 123 121 122
f 122 121 120
f 30 32 31
f 28 30 31
f 28 31 193
f 193 31 190
f 193 190 191
f 127 192 124
f 127 124 126
f 126 124 125
f 125 124 123
f 29 30 28
f 197 193 191
f 197 191 194
f 194 191 192
f 194 192 129
f 129 192 127
f 129 127 128
f 128 127 126
f 446 29 28
f 129 128 130
f 195 446 28
f 195 28 196
f 196 28 193
f 196 193 197
f 198 197 194
f 198 194 199
f 199 194 129
f 199 129 130
f 130 66 199
f 197 198 140
f 197 140 196
f 195 196 141
f 195 141 446
f 203 200 201
f 202 287 288
f 202 288 289
f 202 289 290
f 203 204 305
f 201 200 214
f 214 200 205
f 290 291 202
f 202 291 292
f 202 292 212
f 212 292 294
f 204 303 305
f 206 213 202
f 202 213 286
f 202 286 287
f 208 283 207
f 204 301 302
f 204 302 303
f 204 299 300
f 204 300 301
f 212 294 295
f 212 295 296
f 212 296 308
f 214 215 208
f 208 215 216
f 214 205 217
f 214 217 220
f 214 220 221
f 214 221 215
f 209 222 218
f 218 222 204
f 204 222 298
f 204 298 299
f 224 219 223
f 212 308 223
f 234 214 225
f 225 214 208
f 225 208 226
f 226 208 207
f 226 207 206
f 226 206 227
f 227 206 202
f 227 202 228
f 228 202 212
f 228 212 229
f 229 212 230
f 230 212 223
f 230 223 219
f 230 219 211
f 230 211 210
f 230 210 231
f 231 210 209
f 231 209 218
f 231 218 204
f 231 204 232
f 232 204 233
f 233 204 203
f 233 203 201
f 233 201 214
f 233 214 234
f 235 226 236
f 236 226 237
f 237 226 227
f 237 227 238
f 238 227 242
f 242 227 228
f 239 233 240
f 240 233 234
f 240 234 241
f 241 234 235
f 235 234 225
f 235 225 226
f 242 228 229
f 242 229 243
f 243 229 230
f 243 230 244
f 244 230 231
f 244 231 245
f 245 231 232
f 245 232 239
f 239 232 233
f 246 240 241
f 246 241 235
f 246 235 247
f 247 235 236
f 247 236 237
f 247 237 248
f 248 237 238
f 248 238 242
f 248 242 249
f 249 242 243
f 249 243 250
f 250 243 251
f 251 243 244
f 251 244 252
f 252 244 245
f 252 245 253
f 253 245 239
f 253 239 254
f 254 239 240
f 254 240 246
f 253 255 256
f 253 256 257
f 253 257 252
f 252 257 265
f 252 265 251
f 249 258 248
f 248 258 259
f 248 259 247
f 247 259 260
f 247 260 261
f 247 261 246
f 246 261 262
f 246 262 263
f 246 263 254
f 254 263 264
f 254 264 253
f 253 264 255
f 251 265 266
f 251 266 250
f 250 266 249
f 249 266 267
f 249 267 268
f 249 268 258
f 22 263 262
f 22 262 261
f 22 261 7
f 7 261 260
f 7 260 8
f 8 260 9
f 9 260 259
f 9 259 5
f 5 259 13
f 13 259 258
f 13 258 14
f 14 258 15
f 15 258 16
f 16 258 268
f 16 268 267
f 16 267 266
f 16 266 17
f 17 266 265
f 17 265 18
f 18 265 11
f 11 265 6
f 6 265 1
f 1 265 257
f 1 257 2
f 2 257 3
f 3 257 256
f 3 256 12
f 12 256 255
f 12 255 264
f 12 264 20
f 20 264 263
f 20 263 22
f 130 128 270
f 123 122 384
f 122 120 271
f 272 118 273
f 274 116 275
f 116 115 276
f 115 113 276
f 277 102 278
f 102 100 278
f 100 99 279
f 94 93 280
f 93 91 280
f 91 90 348
f 90 88 281
f 88 87 346
f 87 85 282
f 85 84 344
f 284 207 283
f 284 206 207
f 285 213 206
f 297 209 210
f 297 222 209
f 306 200 203
f 307 205 200
f 205 307 312
f 316 223 308
f 316 308 317
f 317 308 309
f 317 309 310
f 311 217 205
f 311 205 312
f 224 223 316
f 317 310 318
f 320 75 66
f 200 306 307
f 307 306 321
f 307 321 312
f 312 321 322
f 312 322 313
f 313 322 314
f 314 320 315
f 315 320 66
f 314 323 320
f 320 323 75
f 324 73 75
f 322 325 314
f 314 325 324
f 314 324 323
f 323 324 75
f 325 77 324
f 324 77 73
f 203 305 306
f 306 305 327
f 306 327 321
f 321 327 328
f 321 328 322
f 322 328 325
f 325 328 326
f 325 326 77
f 329 78 326
f 328 329 326
f 330 332 78
f 303 304 305
f 305 304 331
f 305 331 327
f 327 332 328
f 328 332 330
f 328 330 329
f 329 330 78
f 333 334 79
f 303 302 304
f 331 334 327
f 327 334 333
f 327 333 332
f 332 333 79
f 335 338 80
f 301 300 336
f 301 336 302
f 302 336 337
f 302 337 304
f 304 337 338
f 304 338 331
f 331 338 335
f 331 335 334
f 334 335 80
f 339 72 81
f 299 298 340
f 299 340 300
f 300 340 336
f 337 339 338
f 338 339 81
f 337 341 339
f 339 341 72
f 84 82 342
f 222 297 298
f 298 297 340
f 340 343 336
f 336 343 344
f 336 344 337
f 337 344 342
f 337 342 341
f 341 342 82
f 342 344 84
f 297 345 340
f 340 345 343
f 343 346 344
f 344 346 282
f 344 282 85
f 282 346 87
f 210 349 297
f 297 349 345
f 345 347 343
f 343 347 348
f 343 348 346
f 346 348 281
f 346 281 88
f 281 348 90
f 349 350 345
f 345 350 347
f 347 280 348
f 348 280 91
f 350 279 347
f 347 279 319
f 347 319 280
f 280 319 94
f 99 97 279
f 352 279 350
f 351 350 349
f 211 349 210
f 279 97 96
f 279 96 319
f 319 96 94
f 351 349 219
f 219 349 211
f 278 100 279
f 278 279 352
f 353 352 350
f 353 350 354
f 354 350 351
f 354 351 224
f 224 351 219
f 277 278 318
f 318 278 352
f 318 352 317
f 317 352 353
f 317 353 354
f 317 354 316
f 316 354 224
f 70 104 355
f 308 296 309
f 318 355 277
f 277 355 104
f 296 295 357
f 296 357 309
f 309 357 310
f 318 356 355
f 355 356 70
f 358 68 70
f 357 359 310
f 310 359 360
f 310 360 318
f 318 360 358
f 318 358 356
f 356 358 70
f 295 294 357
f 360 105 358
f 358 105 68
f 292 293 294
f 294 293 357
f 359 362 360
f 360 362 361
f 360 361 105
f 363 106 361
f 293 292 364
f 293 364 357
f 357 364 359
f 362 363 361
f 365 367 106
f 292 291 364
f 364 366 359
f 359 366 362
f 362 365 363
f 363 365 106
f 291 290 364
f 362 367 365
f 368 108 107
f 290 289 364
f 366 369 362
f 362 369 368
f 362 368 367
f 367 368 107
f 369 109 108
f 289 288 370
f 289 370 364
f 364 370 366
f 368 369 108
f 371 110 109
f 370 372 366
f 366 372 373
f 366 373 369
f 369 373 371
f 369 371 109
f 373 111 110
f 288 287 370
f 371 373 110
f 374 112 111
f 287 286 370
f 372 375 373
f 373 375 374
f 373 374 111
f 286 377 370
f 370 377 372
f 375 376 374
f 374 376 112
f 113 182 378
f 378 182 376
f 213 285 286
f 286 285 377
f 377 379 372
f 372 379 375
f 375 378 376
f 377 285 379
f 375 276 378
f 378 276 113
f 206 284 285
f 379 380 375
f 375 380 276
f 284 381 285
f 285 381 379
f 380 275 276
f 276 275 116
f 381 382 379
f 379 382 380
f 380 274 275
f 284 283 381
f 380 273 274
f 274 273 118
f 208 386 283
f 283 386 381
f 382 383 380
f 380 383 272
f 380 272 273
f 386 385 381
f 381 385 382
f 383 271 272
f 272 271 120
f 382 385 384
f 382 384 383
f 383 384 271
f 271 384 122
f 385 270 384
f 128 126 270
f 387 270 385
f 216 386 208
f 270 126 125
f 270 125 384
f 384 125 123
f 387 385 388
f 388 385 215
f 215 385 386
f 215 386 216
f 269 130 270
f 269 270 389
f 389 270 387
f 66 130 269
f 390 389 387
f 390 387 311
f 311 387 388
f 388 215 220
f 220 215 221
f 315 66 269
f 315 269 314
f 314 269 389
f 314 389 313
f 313 389 390
f 313 390 312
f 312 390 311
f 311 388 217
f 217 388 220
f 65 63 392
f 392 63 64
f 392 64 393
f 394 393 395
f 393 62 395
f 395 62 396
f 396 61 397
f 397 61 398
f 398 60 399
f 399 60 400
f 401 403 402
f 405 404 57
f 405 57 56
f 405 56 406
f 406 56 407
f 407 56 55
f 407 55 408
f 408 55 409
f 409 55 53
f 409 53 410
f 410 53 411
f 411 53 52
f 411 52 412
f 412 52 413
f 413 52 50
f 413 50 414
f 414 50 415
f 415 50 49
f 415 49 416
f 416 49 417
f 417 49 46
f 417 46 418
f 418 46 419
f 166 419 46
f 422 421 43
f 422 43 423
f 423 43 424
f 424 42 425
f 425 42 426
f 426 41 427
f 427 41 428
f 430 38 431
f 431 38 139
f 38 181 139
f 139 183 432
f 432 183 37
f 432 37 433
f 433 37 36
f 433 36 434
f 434 36 435
f 435 36 35
f 435 35 436
f 436 35 437
f 437 35 33
f 437 33 438
f 438 33 439
f 439 33 32
f 439 32 440
f 440 32 441
f 441 32 30
f 441 30 442
f 442 30 443
f 443 30 29
f 443 29 444
f 444 29 445
f 445 29 446
f 391 446 141
f 391 141 65
f 391 447 446
f 446 447 445
f 432 448 139
f 139 448 431
f 420 449 166
f 166 449 419
f 405 450 404
f 404 450 451
f 404 451 403
f 403 451 402
f 436 437 452
f 436 452 435
f 435 452 453
f 435 453 434
f 434 453 454
f 434 454 433
f 433 454 455
f 433 455 432
f 432 455 448
f 448 456 431
f 431 456 457
f 431 457 430
f 430 457 458
f 430 458 429
f 429 458 459
f 429 459 428
f 428 459 460
f 428 460 427
f 427 460 461
f 427 461 426
f 426 461 462
f 426 462 425
f 425 462 463
f 425 463 424
f 424 463 464
f 424 464 423
f 423 464 465
f 423 465 422
f 422 465 466
f 422 466 421
f 421 466 467
f 421 467 420
f 420 467 449
f 449 468 419
f 419 468 469
f 419 469 418
f 418 469 470
f 418 470 417
f 417 470 471
f 417 471 416
f 416 471 472
f 416 472 415
f 415 472 473
f 415 473 414
f 414 473 474
f 414 474 413
f 413 474 475
f 413 475 412
f 412 475 476
f 412 476 411
f 411 476 477
f 411 477 410
f 410 477 478
f 410 478 409
f 409 478 479
f 409 479 408
f 408 479 480
f 408 480 407
f 407 480 481
f 407 481 406
f 406 481 482
f 406 482 405
f 405 482 450
f 451 483 402
f 402 483 484
f 402 484 401
f 401 484 485
f 401 485 400
f 400 485 486
f 400 486 399
f 399 486 487
f 399 487 398
f 398 487 488
f 398 488 397
f 397 488 489
f 397 489 396
f 396 489 490
f 396 490 395
f 395 490 491
f 395 491 394
f 394 491 492
f 394 492 393
f 393 492 493
f 393 493 392
f 392 493 494
f 392 494 65
f 65 494 495
f 65 495 391
f 391 495 447
f 495 496 447
f 455 497 448
f 448 497 456
f 467 498 449
f 449 498 468
f 482 499 450
f 450 499 500
f 450 500 451
f 451 500 483
f 496 501 447
f 447 501 502
f 447 502 445
f 445 502 503
f 445 503 444
f 444 503 504
f 444 504 443
f 443 504 505
f 443 505 442
f 442 505 506
f 442 506 441
f 441 506 507
f 441 507 440
f 440 507 508
f 440 508 439
f 439 508 509
f 439 509 438
f 438 509 437
f 437 509 510
f 437 510 452
f 452 510 511
f 452 511 453
f 453 511 512
f 453 512 454
f 454 512 513
f 454 513 455
f 455 513 497
f 497 514 456
f 456 514 515
f 456 515 457
f 457 515 516
f 457 516 458
f 458 516 517
f 458 517 459
f 459 517 518
f 459 518 460
f 460 518 519
f 460 519 461
f 461 519 520
f 461 520 462
f 462 520 521
f 462 521 463
f 463 521 522
f 463 522 464
f 464 522 523
f 464 523 465
f 465 523 524
f 465 524 466
f 466 524 525
f 466 525 467
f 467 525 498
f 498 526 468
f 468 526 527
f 468 527 469
f 469 527 528
f 469 528 470
f 470 528 17
f 470 17 471
f 471 17 529
f 471 529 472
f 472 529 530
f 472 530 473
f 473 530 531
f 473 531 474
f 474 531 532
f 474 532 475
f 475 532 533
f 475 533 476
f 476 533 534
f 476 534 477
f 477 534 535
f 477 535 478
f 478 535 536
f 478 536 479
f 479 536 537
f 479 537 480
f 480 537 538
f 480 538 481
f 481 538 539
f 481 539 482
f 482 539 499
f 500 540 483
f 483 540 541
f 483 541 484
f 484 541 542
f 484 542 485
f 485 542 543
f 485 543 486
f 486 543 544
f 486 544 487
f 487 544 545
f 487 545 488
f 488 545 546
f 488 546 489
f 489 546 547
f 489 547 490
f 490 547 548
f 490 548 491
f 491 548 549
f 491 549 492
f 492 549 550
f 492 550 493
f 493 550 551
f 493 551 494
f 494 551 552
f 494 552 495
f 495 552 496
f 552 21 496
f 496 21 23
f 496 23 501
f 501 23 25
f 501 25 502
f 502 25 503
f 503 25 24
f 503 24 504
f 504 24 505
f 505 24 7
f 505 7 506
f 506 7 507
f 507 7 508
f 511 510 9
f 511 9 512
f 512 9 513
f 513 9 10
f 513 10 497
f 497 10 514
f 514 10 13
f 514 13 515
f 515 13 516
f 516 13 517
f 517 13 14
f 517 14 518
f 518 14 15
f 518 15 519
f 520 519 15
f 520 15 521
f 521 15 522
f 522 15 16
f 522 16 523
f 525 524 27
f 525 27 498
f 498 27 26
f 498 26 526
f 526 26 527
f 529 17 18
f 529 18 530
f 530 18 531
f 531 18 19
f 531 19 532
f 532 19 533
f 533 19 6
f 533 6 534
f 534 6 535
f 535 6 4
f 535 4 536
f 536 4 537
f 537 4 538
f 538 4 539
f 539 4 2
f 539 2 499
f 499 2 500
f 500 2 540
f 540 2 3
f 540 3 541
f 541 3 12
f 541 12 542
f 549 548 20
f 549 20 550
f 550 20 551
f 552 551 21
f 553 554 555
f 555 554 556
f 555 556 557
f 557 556 558
f 557 558 559
f 559 558 560
f 559 560 561
f 561 560 562
f 561 562 563
f 563 562 564
f 563 564 565
f 565 564 566
f 565 566 567
f 567 566 568
f 567 568 569
f 569 568 570
f 569 570 571
f 571 570 572
f 571 572 573
f 573 572 574
f 573 574 575
f 575 574 576
f 575 576 577
f 577 576 578
f 577 578 579
f 579 578 580
f 579 580 581
f 581 580 582
f 581 582 583
f 583 582 584
f 583 584 585
f 585 584 586
f 585 586 587
f 587 586 588
f 587 588 589
f 589 588 590
f 589 590 591
f 591 590 592
f 591 592 593
f 593 592 594
f 593 594 595
f 595 594 596
f 595 596 597
f 597 596 598
f 597 598 599
f 599 598 600
f 599 600 553
f 553 600 554
f 580 578 601
f 601 578 576
f 601 576 574
f 586 584 601
f 601 584 582
f 601 582 580
f 592 590 601
f 601 590 588
f 601 588 586
f 598 596 601
f 601 596 594
f 601 594 592
f 556 554 601
f 601 554 600
f 601 600 598
f 562 560 601
f 601 560 558
f 601 558 556
f 568 566 601
f 601 566 564
f 601 564 562
f 574 572 601
f 601 572 570
f 601 570 568
f 573 575 602
f 602 575 577
f 602 577 579
f 567 569 602
f 602 569 571
f 602 571 573
f 561 563 602
f 602 563 565
f 602 565 567
f 555 557 602
f 602 557 559
f 602 559 561
f 597 599 602
f 602 599 553
f 602 553 555
f 591 593 602
f 602 593 595
f 602 595 597
f 585 587 602
f 602 587 589
f 602 589 591
f 579 581 602
f 602 581 583
f 602 583 585
