v -0.00287936313 -0.0028794141 0.0119129796
v 0.00448359864 0.00503262565 -0.010633431
v -0.00318644626 -0.00263741925 0.0118908067
v 0.00413228887 0.00519296215 -0.0106985192
v -0.00353775603 -0.00247708275 0.0118257184
v 0.00376071351 0.00526073263 -0.0108018737
v -0.00390933139 -0.00240931227 0.0117223639
v 0.00339426415 0.00523140714 -0.0109366994
v -0.00427578074 -0.00243863776 0.0115875382
v 0.00305785554 0.00510689304 -0.011093698
v -0.00461218936 -0.00256315186 0.0114305396
v 0.00277437585 0.00489571378 -0.0112621408
v -0.00489566905 -0.00277439072 0.0112620969
v 0.00256313699 0.00461223409 -0.0114305835
v -0.00510690791 -0.00305787041 0.0110936541
v 0.00243868249 0.00427576587 -0.0115875821
v -0.00523136241 -0.00339427903 0.0109366555
v 0.002409357 0.00390931652 -0.0117222886
v -0.0052608071 -0.00376072838 0.010801949
v 0.00247706788 0.00353774116 -0.0118257623
v -0.00519297702 -0.00413230374 0.0106984754
v 0.00263740438 0.00318649099 -0.0118907313
v -0.00503264052 -0.00448355391 0.0106335063
v 0.00287939923 0.00287940786 -0.0119129043
v -0.00479064567 -0.00479063704 0.0106113334
v 0.00318648236 0.00263747261 -0.0118907313
v -0.00448356254 -0.0050326319 0.0106335063
v 0.00353779214 0.00247707651 -0.0118257623
v -0.00413225276 -0.00519296839 0.0106984754
v 0.00390924829 0.00240930603 -0.0117222886
v -0.00376079661 -0.00526073887 0.010801949
v 0.00427581685 0.00243863151 -0.0115875821
v -0.00339422805 -0.00523141339 0.0109366555
v 0.00461222547 0.00256314562 -0.0114305835
v -0.00305781943 -0.00510689928 0.0110936541
v 0.00489570516 0.00277438448 -0.0112621408
v -0.00277433974 -0.00489566042 0.0112620969
v 0.00510682481 0.00305786417 -0.011093698
v -0.00256322009 -0.00461224034 0.0114305396
v 0.00523139852 0.00339427278 -0.0109366994
v -0.00243864638 -0.00427577212 0.0115875382
v 0.005260724 0.00376078174 -0.0108018737
v -0.0024093209 -0.00390932276 0.0117223639
v 0.00519289392 0.00413229749 -0.0106985192
v -0.00247715098 -0.00353774741 0.0118257184
v 0.00503255742 0.00448354767 -0.010633431
v -0.00263748748 -0.00318649723 0.0118908067
v 0.00479068177 0.0047906308 -0.010611258
v 0.0038349809 0.00383504913 -0.0112621408
v -0.003835064 -0.00383505537 0.0112620969
v 0.00401164907 0.00632753656 -0.00702341605
v 0.00100853995 -7.77771892e-05 -0.010227282
v 0.00263298987 -0.00079289097 -0.0101483881
v 0.00317915155 -0.000787677198 -0.00991129196
v 0.0046502207 -0.000715110431 -0.00943236776
v 0.00501722048 -0.000423007426 -0.00914138466
v 0.00531213204 -0.000188478447 -0.00898160909
v 0.00584650588 0.00548010194 -0.0070953079
v 0.00508185535 0.00587745321 -0.0070289927
v 0.00575944374 0.00966376963 -0.00529217623
v 0.00341331696 0.00669482638 -0.00733346031
v 0.00160854686 0.0067552275 -0.00789431626
v -0.00104112437 -0.0032134586 -0.0119930104
v 0.00627721757 0.000639821368 -0.00841956265
v 0.00643030117 0.00119497146 -0.00805662406
v 4.38384422e-05 0.00561752973 -0.00873277848
v -0.00436764697 0.00594677424 -0.0100064424
v -0.000800758247 0.00391637963 -0.00948321678
v -0.000188886355 0.00119793194 -0.0104025568
v -0.000507337468 0.00184748778 -0.0102596392
v -0.00394998176 0.00692674205 -0.00953050662
v -0.00357256514 0.00757202194 -0.00918229628
v -0.0045512392 0.00211050716 -0.0113753426
v 0.00663314927 0.00312485219 -0.00722138087
v 0.00972777324 0.00562967767 -0.00531456458
v 0.0104612542 0.000991439293 -0.00664430603
v 0.00719877884 0.00939802059 -0.00391166137
v 0.00647227836 0.0083243655 -0.00036563569
v 0.00455525098 0.0100695447 -0.00204153521
v 0.00562331956 0.010332865 -0.00412803936
v 0.00391564317 0.0109471171 -0.0044986424
v 0.00105199943 0.0107912334 -0.00303036967
v 0.00215671563 0.0112106471 -0.00500636498
v 0.000417576808 0.0111131798 -0.00563028674
v -0.0023108447 0.0100983901 -0.00443587792
v -0.00122725615 0.0106589717 -0.00634341232
v -0.00270913703 0.00986727841 -0.00711632446
v -0.00364911747 0.0091710605 -0.00730744273
v -0.00688297534 0.00341232684 -0.0080697494
v -0.00682679416 0.00165539127 -0.0086479185
v -0.00642192088 -9.30748156e-05 -0.00910285163
v -0.00479122464 -0.00109263693 -0.0113266439
v -0.00385782884 -0.0025118466 -0.011443349
v -0.00228775178 -0.00382383615 -0.0116449434
v -0.00384700365 -0.00504578779 -0.00842709799
v -0.00109518154 -0.00600474228 -0.00943434995
v -0.000744290951 -0.00484252418 -0.0114641374
v 0.00093466306 -0.00554042285 -0.0111286056
v 0.0024085838 -0.00687608471 -0.00857936894
v 0.00268821048 -0.00589419791 -0.0106502709
v 0.00443762007 -0.00588778239 -0.0100509892
v 0.00583404638 -0.00634378555 -0.00725845853
v 0.00611173547 -0.00552243076 -0.00935478494
v 0.00764020457 -0.00481285331 -0.00859133639
v 0.00842681251 -0.00435026969 -0.00782341794
v 0.010171692 -0.00221324801 -0.00683696534
v 0.00971459247 -0.00286734229 -0.00358521283
v 0.0102853479 -0.00125802764 -0.00284176882
v 0.0112058958 0.00153180898 -0.00506727261
v 0.0110627224 0.003271065 -0.00451563517
v 0.0105725166 0.00498502554 -0.00409213022
v 0.00955999611 0.00695552297 -0.00393739452
v 0.00970882787 0.00663794664 -0.00375534735
v 0.00901001272 0.00779199065 -0.0041486653
v 0.0034085631 0.00532328448 0.00851862288
v -0.00829247545 0.00503031127 0.00181415534
v -0.00981161067 -0.00656810166 0.00398412679
v -0.00988329009 -0.00497309798 0.00195455703
v -0.00916195395 -0.00750664172 0.00388589877
v -0.00831991006 -0.00718656267 0.00150442125
v 0.00640904945 -0.00698867355 0.00272933034
v 0.00475673272 0.000886240301 0.0114833677
v 0.00618815953 0.000672354655 0.00935777155
v 0.00411254905 0.0019102999 0.0116137195
v 0.00533499276 0.00348264104 0.00841276361
v 0.00509776819 -8.58449937e-06 0.0114672723
v 0.00600532553 -0.00243351837 0.010495706
v 0.00604547363 -0.00415376503 0.00990167205
v 0.00573820309 -0.00581097881 0.00921255059
v 0.00555477874 -0.00597746213 0.00941775262
v 0.0050974663 -0.00733524599 0.00845730021
v 0.00487051802 -0.00752207388 0.00865901715
v 0.0036560533 -0.00913176501 0.00745631573
v 0.0046624449 -0.00854414403 0.00388116349
v 0.00259754647 -0.00992479911 0.00709731181
v 0.00233974041 -0.010116977 0.00667308207
v 0.00325042041 -0.00947414881 0.00310104905
v 0.00109639069 -0.0106978515 0.00632254271
v 0.00081542057 -0.0107999394 0.00592219139
v 0.0016524049 -0.0100866835 0.00236224462
v -0.00084775388 -0.0111462 0.00523974924
v -6.80049641e-05 -0.0103564493 0.00169465321
v -0.00231391121 -0.011196133 0.00498729534
v -0.00257879497 -0.0111417904 0.00465269887
v -0.00184228906 -0.0102730229 0.00112716114
v -0.00407449528 -0.01090073 0.00448413103
v -0.00431193399 -0.0107875493 0.00418501543
v -0.00360152294 -0.0098382691 0.000678752297
v -0.00576817084 -0.0102070889 0.00390919784
v -0.00527430104 -0.00906919879 0.000368054174
v -0.00751842347 -0.0091547559 0.00389109203
v -0.00675597679 -0.00829302534 0.000731460992
v -0.0083854534 -0.00837537931 0.00386606496
v -0.0102886406 -0.00578582581 0.00426022564
v -0.0110465872 -0.00347808829 0.00461358605
v -0.0104552612 -0.00151105187 0.00166976574
v -0.0111889483 -0.00139252956 0.00497839061
v -0.011206234 -0.00142948339 0.0052588721
v -0.0109572159 0.000294842048 0.00561296125
v -0.0109584337 0.00028060257 0.00592573117
v -0.0103870024 0.00187064469 0.00632422682
v -0.0103590937 0.00186646819 0.00666979941
v -0.00909977849 0.00368970095 0.00747838733
v -0.00785293456 0.00539323019 0.00435804778
v -0.007843413 0.00474444813 0.00826540032
v -0.0065063237 0.00638675027 0.00517531465
v -0.00679198347 0.00523284193 0.00906140398
v -0.00636566825 0.00550637697 0.00902947954
v -0.00495835171 0.00707254154 0.00595212541
v -0.00473320624 0.00593755692 0.0097336734
v -0.00326850938 0.00742379532 0.00665735599
v -0.00342879689 0.00591237558 0.0104345067
v -0.00301315259 0.0060208816 0.0103490124
v -0.00150562506 0.00742415721 0.00726632367
v -0.00166210185 0.00570950385 0.0109629833
v -0.00127167189 0.00575207705 0.0108518028
v 0.000262238049 0.00707450109 0.00775187281
v 0.000411607915 0.00514355807 0.0112199494
v 0.0019637282 0.0063864477 0.00809792365
v 0.00167004413 0.00426619344 0.0115939442
v 0.00258852857 0.00517961071 0.0094825406
v 0.00678778015 0.00221317356 0.00727780841
v -0.0088961885 -0.00495478215 -0.00050270449
v 0.00717196278 0.00384107718 0.00515519523
v -0.00745306594 -0.00678983643 -0.000744781977
v -0.00768799791 -0.00501370286 -0.00291997118
v -0.0066192525 -0.00461195328 -0.00520743503
v -0.00486159569 -0.00405173799 -0.00847929871
v 0.00982883264 -0.00276864734 -0.00721615599
v 0.00309396887 0.00309029827 0.0116701206
v 0.00459612209 0.00417395669 0.00864488865
v 0.0056674661 0.00566741512 0.00522867631
v 0.00740978306 0.00539639531 0.00295643046
v 0.00779467016 0.00646431244 0.000706995211
v 0.00863065658 0.00796776975 -0.00347209747
v 0.00780543945 -0.00129485115 0.00642913985
v 0.0085368629 0.000384811917 0.00444323015
v 0.00909952385 0.00205754439 0.00239431939
v 0.00929121209 0.00486926314 -0.000433144654
v 0.00997917172 0.00316729732 -0.000778583605
v 0.00741392207 -0.00478229196 0.00510904415
v 0.00850054341 -0.00319307307 0.00321096575
v 0.00942118998 -0.00154316901 0.00127656044
v 0.0103272388 0.00139784069 -0.00125912273
v 0.0103224439 -0.000369804556 -0.00185542262
v 0.00770755514 -0.00559392521 0.000719304046
v 0.00869334678 -0.00407190783 0.000201026743
v 0.00989927667 -0.00262382939 -0.007084332
v 0.00386907476 -0.00885972693 0.00786236715
v 0.00915517228 -0.0035736294 -0.00766118575
v 0.00796779272 -0.00531752211 -0.00422739149
v 0.00598090726 -0.00731679654 -0.00186087352
v 0.00520473613 -0.00809324378 0.000421510055
v 0.00518909801 -0.00726623591 -0.00492182805
v 0.00275871487 -0.00858365791 -0.00338764708
v 0.00198356305 -0.00935997102 -0.00110669322
v 0.00174331095 -0.00783410728 -0.00628714731
v -0.00083456636 -0.0084403181 -0.00456442569
v -0.00161048727 -0.0092178636 -0.00228159897
v -0.00179283854 -0.00698782212 -0.00720458738
v -0.0045850242 -0.00591666404 -0.00632349847
v -0.00479269555 -0.00759495146 -0.00340236199
v -0.00552711521 -0.00831793609 -0.00111036565
v -0.00963401665 -0.00152709813 -0.00105040915
v -0.00869808869 -0.0016673946 -0.00352898816
v -0.00759998509 -0.00177738471 -0.00594428743
v -0.00625470401 -0.00214652009 -0.00819218718
v -0.0098691738 0.00203729907 0.00154654051
v -0.00936091137 0.00198122685 -0.00110506904
v -0.00868264368 0.00187492716 -0.00372342633
v -0.00783387452 0.00174754278 -0.00628685236
v -0.00793786882 0.00523025406 -0.000922018697
v -0.00810422054 0.00443135009 -0.00262284643
v -0.00694514926 0.00477788405 -0.00668680021
v -0.00534827537 0.00710835785 -0.00823809199
v -0.00483046157 0.00756719396 -0.00862988043
v -0.00943325145 0.00326177166 0.00746027421
v -0.00456146356 0.00791905506 -0.00861628873
v -0.0054241841 0.00785451008 -0.00431032186
v -0.00555329062 0.00784467135 -0.000626127733
v -0.00633189566 0.00706634709 0.00165639065
v -0.00325649914 0.00942743921 -0.0021115936
v -0.0024163076 0.00927712356 0.000930503447
v -0.00319476024 0.00849961603 0.00321247514
v 0.000138508217 0.0101699614 -0.000702964024
v 0.00116153832 0.00931370543 0.00216187404
v 0.000383469781 0.00853701588 0.00444303188
v 0.00369458526 0.0094980615 0.00027928995
v 0.00710048097 0.00840249345 -0.00155802775
v 0.00573610707 0.00773022957 0.00183531519
v 0.00394388555 0.00740227003 0.00467740439
v 0.00313761019 0.00658075123 0.0069160739
v -0.00656645111 -0.0032972807 0.0071853717
v -0.00638124946 -0.000967726401 0.00804168828
v -0.00349128981 0.000820213175 0.00979791086
v -0.00476754871 0.000542626644 0.00932171775
v 0.00418563785 -0.000760579643 0.0117105533
v -0.00332849987 -0.00668586702 0.00735083951
v -0.00434628671 -0.00636978688 0.00712640251
v -0.0050761392 -0.00582548951 0.00701370702
v -0.00490711314 0.000407305218 0.00901190233
v -0.000471475046 -0.000317285941 0.0102755968
v 0.0015790643 0.0027438669 0.0120163341
v 0.00270082223 0.00166805354 0.012031998
v 0.000688120237 -0.00235779638 0.0100925286
v 0.000783223196 -0.00337715924 0.00984266453
v -0.00248981296 -0.00670582012 0.00753827153
v -0.00537408697 -0.00565904624 0.00698919871
v -0.00593203008 -0.00505671668 0.00701753019
v -0.0098361884 -0.00539604667 0.00535724966
v -0.00763379076 0.00354280862 0.00915116695
v 0.000921982699 0.0032392411 0.0119612594
v -0.000592825282 0.00409324358 0.0117361692
v -0.00181756598 0.000498321511 0.0100949187
v 0.000549913186 -0.00475859563 0.00920037747
v -0.00085104549 -0.00622108608 0.00813593499
v -0.000598503919 0.00216686138 0.00552866492
v -0.00187395198 0.00232973383 0.00514987897
v -0.00331428314 0.00203518333 0.00455908267
v -0.00468720797 0.0006827116 0.00363101276
v -0.0051421624 -0.00118300902 0.00284074029
v -0.00425780726 -0.00349936911 0.00235316375
v -0.00285456759 -0.00461569741 0.00245074224
v -0.00176339228 -0.00503243284 0.00268045713
v 0.000192109996 -0.0049480205 0.00337512394
v 0.0019427372 -0.00348907832 0.00446809488
v 0.00234414157 -0.00154612824 0.00526635333
v 0.00174232734 0.000389318403 0.00572050791
v 0.000904400551 -0.000795319887 0.00503171183
v 9.64373066e-05 0.000879545101 0.00532694682
v -0.00241119746 -0.0034623417 0.00299455613
v -0.00088869621 -0.0037654864 0.00340978523
v -0.00365854077 -0.00040056046 0.00361241343
v -0.00375686271 -0.00125679686 0.00328735303
v -0.00351992815 -0.00223472341 0.00303502861
v -0.0015884104 0.0010490481 0.00481096628
v -0.00297990929 0.000561978436 0.00417124425
v 0.000478264863 -0.00313048147 0.00409145298
v 0.000946659022 -0.00211516335 0.00459674787
v 0.00324048313 0.00269207346 -0.00297450719
v 0.00246145146 0.0033765702 -0.00300665904
v 0.00162582704 0.00372713921 -0.00317185811
v 0.000126828846 0.00358129769 -0.0037319192
v -0.00107826525 0.00192299435 -0.00470697441
v -0.000305572566 -0.000184538106 -0.00516153235
v 0.00173818644 -0.00109307938 -0.00477494828
v 0.00314833539 -0.000387165092 -0.00405438948
v 0.00383943578 0.000837961943 -0.00340187169
v -0.00135818314 -0.00090658514 -0.00576578601
v -0.00217006785 0.000673380353 -0.00550433207
v -0.00235062853 0.00180495088 -0.00518044192
v 0.00199050549 0.0050638728 -0.00259240952
v 0.00438289653 0.00333084438 -0.00236792035
v 0.00272776572 -0.00222025864 -0.0048218242
v 0.00114193716 -0.00229817172 -0.00538838927
v -9.34420294e-05 -0.00185451224 -0.00565787364
v 0.00502755063 0.00168969915 -0.0027072053
v 0.00509096997 0.000887301423 -0.00295885611
v 0.0049809398 0.000107970692 -0.00326176692
v 0.00455879837 -0.000894107864 -0.00374665363
v 0.00370003598 -0.00174275353 -0.00432809401
v -0.00184364318 0.00365222869 -0.00437875105
v -0.000334897122 0.00485459444 -0.0034555364
v 0.00235414948 0.00365068237 0.0117674413
v 0.000324824711 0.00494794612 0.0115487995
v -0.00435422046 0.0057660012 0.0103036542
v -0.00520483387 0.00568560863 0.00990839498
v -0.00602887256 0.00543084428 0.00961927366
v -0.00711132136 0.00500360069 0.00911029146
v -0.00826672048 0.00432117866 0.00840148917
v -0.00808189494 -0.00873324587 0.00409690332
v -0.00691012676 -0.00965994839 0.00410928883
v -0.00549038607 -0.0104524557 0.00452393606
v -0.00238178355 -0.0112127395 0.00519362878
v -0.00060629706 -0.0111467007 0.00574233024
v 0.00019015687 -0.0109782548 0.00614932966
v -0.00168270107 0.00465140538 0.0115348287
v -0.00291004187 0.00483964051 0.0111875401
v -0.00369538091 0.00489300603 0.0109350345
v -0.00528642636 0.00480983025 0.0103502457
v -0.00715463064 0.00425145932 0.0094909438
v -0.00835307164 0.00324886777 0.00878580668
v -0.00914317697 0.00238981485 0.00823076394
v -0.00958998332 0.00179508661 0.00787291656
v -0.00996827254 0.00110830715 0.00751344654
v -0.0102740822 0.000420191222 0.00717175176
v -0.0104949877 -0.000343202015 0.00683991403
v -0.0106462728 -0.00109315659 0.00652967978
v -0.0106893073 -0.00185738881 0.00626072161
v -0.0107416926 -0.00259808018 0.00596920442
v -0.010508472 -0.0039063288 0.00562055049
v -0.010594936 -0.00431902191 0.00538697125
v -0.0025109551 -0.010739045 0.00601334261
v -0.000837994865 -0.0107153878 0.00657358289
v -0.000208938531 -0.0104495414 0.00690381167
v 0.000115939876 -0.0106541348 0.00684691871
v 0.00122983854 -0.00989342863 0.00758312289
v 0.00205124963 -0.00953878991 0.0079631579
v 0.00320442661 -0.00854007139 0.00869084444
v 0.00355380982 -0.00791013684 0.00904708865
v 0.00410462523 -0.00728323926 0.00942539102
v 0.0043075232 -0.00658105034 0.00975631504
v 0.00470736902 -0.00584290754 0.0101211083
v 0.00500963466 -0.00506557158 0.0104597058
v 0.00529381338 -0.0043173596 0.0107122629
v 0.00496192954 -0.00243869871 0.0113475288
v 0.00465316978 -0.00154447002 0.0115707948
v 0.00365124048 0.000795176497 0.012027076
v -0.0092280153 -0.00696094713 0.00500022882
v 0.00200310774 0.00269094483 0.0121105912
v 0.0033786642 0.00160143616 0.0121174673
v 0.00328772044 0.00206622036 0.0120918122
v 0.003759394 0.00185898458 0.0119903461
v 0.00333080135 0.00263749868 0.0118540965
v -0.00785456283 -0.0084551902 0.00495783281
v -0.00886538117 -0.00770585989 0.00477876062
v -0.00866909227 -0.00808065336 0.00456511506
v -0.00886777932 -0.00799302257 0.0042279051
v -0.00173531157 0.00559600876 0.0111375232
v 0.00492356986 -0.00118365842 0.0116357597
v 0.00449577903 0.000193204604 0.0118621812
v 0.00415815728 0.00157007263 0.0117735047
v 0.00463868993 0.000790741898 0.0116717
v 0.00505029585 -0.000524978978 0.0116050533
v 0.00541741614 -0.000856526473 0.0112872432
v 0.00530624679 -0.00357292913 0.010943756
v 0.00544483712 -0.00230267325 0.011226567
v 0.00559594052 -0.00173530295 0.0111375232
v 0.00574256795 -0.00261023953 0.0108895678
v 0.0057693444 -0.00310792464 0.0107917315
v 0.00576605218 -0.00435421183 0.0103036542
v 0.00456858658 -0.00726473286 0.0093633509
v 0.00512074192 -0.00654460965 0.00957943189
v 0.00569464587 -0.00483732319 0.0101775876
v 0.00543083566 -0.00602880432 0.00961927366
v 0.00366136859 -0.00859997854 0.00859975207
v 0.0047512235 -0.0075633259 0.00886539411
v 0.00247843846 -0.00969290051 0.00782476495
v 0.00425431598 -0.00830538293 0.00848433189
v 0.00375582593 -0.00889280751 0.00807360601
v 0.00106970139 -0.01049622 0.00707152815
v 0.0027711647 -0.00974887065 0.0075417231
v 0.00133101972 -0.0105847574 0.00676685376
v -0.00270681405 -0.0110022877 0.00571140034
v -0.00176992472 -0.0111634637 0.00580467295
v -0.000844925122 -0.0112000684 0.00584200727
v -0.00426132403 -0.0105405564 0.00545081883
v -0.00335787487 -0.0110954109 0.00502202276
v -0.00452954191 -0.0108036735 0.00487832974
v -0.00534513628 -0.010204507 0.00517643913
v -0.00700771123 -0.00958472663 0.00441398012
v -0.00735400302 -0.00924203112 0.00461164903
v -0.00642114784 -0.00981368036 0.00484206961
v -0.00681237616 -0.00928458025 0.00503073124
v -0.0087332545 -0.00808188631 0.00409690332
v -0.0104738937 -0.00514396377 0.00501460295
v -0.0102131612 -0.00595636562 0.0046409629
v -0.00983832461 -0.00661602928 0.0042198081
v -0.0106493746 -0.00495261722 0.00442200999
v -0.0109651123 -0.00137251554 0.00622039296
v -0.0111393766 -0.00212324985 0.00575838717
v -0.0111810968 -0.00291281126 0.00527796592
v -0.0109200297 -0.0041293235 0.00469819497
v -0.0111108838 -0.00325844004 0.00492981862
v -0.0112126885 -0.00238177492 0.00519362878
v -0.0112244902 -0.00150862648 0.00548700284
v -0.0100193912 0.00169361864 0.00758652812
v -0.0105034912 0.00112851867 0.00708204039
v -0.0110948111 -0.000400679015 0.00606381999
v -0.0109782038 0.000190105893 0.00614932966
v -0.010611853 0.00121368547 0.00677788666
v -0.0103826342 0.0017659931 0.00688878488
v -0.00811766599 0.00391825583 0.0089322308
v -0.00883894031 0.00357240052 0.00839065218
v -0.00971571118 0.00268709921 0.00767090593
v -0.00995675272 0.00253328912 0.00720672473
v -0.00946269614 0.00315239713 0.00767413568
v -0.00889275653 0.00375583456 0.00807360601
v -0.00490257597 0.00514311748 0.0105036132
v -0.00570462732 0.00520587563 0.0101048446
v -0.0064930435 0.00515801315 0.00962245845
v -0.00177415426 0.00506164209 0.0114991017
v -0.00258684304 0.00544880871 0.0111834247
v -0.00398818173 0.00563001049 0.0106233933
v -0.00289021739 0.00572171282 0.0108831635
v -0.00042555911 0.00424691723 0.011812963
v -0.000187965303 0.00499482525 0.0116424137
v 0.000275010335 0.00430075363 0.0119378335
v 4.67647871e-05 0.00415534449 0.0119191715
v 0.00181002996 0.00387239863 0.0119050438
v 0.00162925869 0.00373602447 0.0120206396
v 0.00140305087 0.00360312973 0.0120764202
v 0.00816708832 0.00867839543 -0.00433789731
v 0.00957913944 0.00703430812 -0.00428402857
v 0.0102946044 0.00584721037 -0.0043942868
v 0.0104470366 0.00547714493 -0.00452700437
v 0.0107674812 0.0046518273 -0.00469299108
v 0.0110219262 0.00378575417 -0.00482127559
v 0.011160793 0.00292166862 -0.00514816474
v 0.0112415967 0.00203892658 -0.00534098453
v 0.0111982524 0.0011840442 -0.00572726913
v 0.0111031125 0.00032095426 -0.00597221313
v 0.0109010759 -0.000503482157 -0.00632146815
v 0.0106132694 -0.0012933624 -0.00668828047
v 0.0102148589 -0.00202117177 -0.0071538642
v 0.00921663854 -0.0033806003 -0.00794944428
v 0.00860652837 -0.00395739979 -0.00835824186
v 0.00794545145 -0.00445554828 -0.00875266654
v 0.00722900885 -0.00487726608 -0.00914048287
v 0.0064650056 -0.00521815186 -0.00951675406
v 0.00570793612 -0.00530346773 -0.0100449405
v 0.00488378616 -0.00547250487 -0.0103831185
v 0.00403953367 -0.00555356802 -0.0106980163
v 0.00318015609 -0.0055456501 -0.0109881936
v 0.00231796485 -0.00544946703 -0.0112489365
v 0.00146104441 -0.00526550531 -0.0114781706
v 0.000618124838 -0.00499592396 -0.0116733602
v -0.00020168308 -0.00464318265 -0.0118325488
v -0.000988387194 -0.00421217997 -0.011953642
v -0.00173558217 -0.0037065445 -0.012035694
v -0.00292602447 -0.00300156696 -0.0119106127
v -0.00355540907 -0.00232556841 -0.011889604
v -0.00411137612 -0.00159601939 -0.0118304844
v -0.00417136075 -0.00105477396 -0.0119622412
v -0.00501796951 3.26635335e-05 -0.0115888057
v -0.00491510619 0.000451661212 -0.0117143735
v -0.00545846458 0.00123462912 -0.0113024057
v -0.00565702521 0.00210215815 -0.0110742701
v -0.00576719366 0.00297716323 -0.0108136802
v -0.00578791291 0.00384890983 -0.0105234063
v -0.00571870606 0.00470814831 -0.0102070613
v -0.00556079623 0.00554695739 -0.00986698407
v -0.00531566849 0.00635516918 -0.00950806346
v -0.0049861782 0.0071248525 -0.00913346444
v -0.00407116126 0.00843994793 -0.00855480207
v -0.00357817958 0.0089531279 -0.00823687085
v -0.00266506352 0.00968423182 -0.00779237772
v -0.00198462378 0.0101405932 -0.00740527363
v -0.00125391223 0.0105189596 -0.00702761892
v -0.000479373861 0.0108160203 -0.00666275923
v 0.000329784657 0.0110282261 -0.00631488467
v 0.00116560115 0.0111533589 -0.00598769159
v 0.00201851108 0.0111900512 -0.00568475314
v 0.00288069425 0.0111379226 -0.00540892082
v 0.00374172053 0.0109975067 -0.00516359244
v 0.00459227554 0.0107705855 -0.00495122868
v 0.00542346081 0.0104596396 -0.00477394097
v 0.00622881928 0.0100667781 -0.00463356096
v 0.00699769342 0.00959710082 -0.00453168986
v 0.0077449587 0.00901958427 -0.00404344259
v 0.00966831748 -0.00262845142 -0.00777617474
v -0.00304495422 0.00908858898 -0.00829544842
v -0.00448149452 0.00718538447 -0.00943266232
v -0.00481057837 0.00644972444 -0.00979537784
v -0.00505834408 0.005676016 -0.0101432379
v -0.00522205717 0.00487310942 -0.0104724156
v -0.0053004611 0.00404757152 -0.0107800787
v -0.00529171833 0.00321101331 -0.0110623132
v -0.00519697466 0.00236950006 -0.0113165754
v -0.00501692486 0.00153371249 -0.0115397548
v -0.00440872699 -8.64803515e-05 -0.0118845547
v -0.00349348204 -0.00158327649 -0.0120821278
v -0.00293187658 -0.00226426664 -0.0121229436
v -0.00230899085 -0.00289118019 -0.0121242828
v 0.00639815034 -0.00482998302 -0.00981958167
v 0.00713633825 -0.00450637577 -0.00945794412
v 0.00783015522 -0.00410420574 -0.00908474879
v 0.00846954237 -0.00362910582 -0.00870542157
v 0.00905190017 -0.00308409607 -0.00832107966
v 0.0100108588 -0.00181292757 -0.00756190326
v 0.0103798118 -0.001098843 -0.00719307616
v 0.0106688993 -0.000343021835 -0.00683718756
v 0.0108747029 0.000445928036 -0.0064985184
v 0.0109959006 0.00126141488 -0.00617967678
v 0.0110306747 0.00209321788 -0.00588470079
v 0.0109792299 0.00293380669 -0.00561584532
v 0.0108416142 0.00377424165 -0.00537624359
v 0.0106194526 0.00460277187 -0.00517013666
v 0.0103147343 0.00541540813 -0.00499684058
v 0.00993158322 0.00619910027 -0.00486056421
v 0.00947296998 0.00694848946 -0.00476142419
v 0.00894452322 0.00765381576 -0.00470139263
v 0.00835151894 0.00830880975 -0.0046802312
v 0.0076510143 0.00875673483 -0.00489243483
v -0.00336866001 0.00843715496 -0.00875356219
v -0.00384114935 0.00781951821 -0.00912470652
v 0.00940673677 -0.00234163114 -0.0080737376
v 0.00685729402 0.00924405143 -0.00502880622
v 0.00613870042 0.00968709276 -0.00512262393
v 0.00538577455 0.0100581913 -0.00525268126
v 0.00460650342 0.0103535323 -0.0054174285
v 0.00380923169 0.0105698972 -0.00561519671
v 0.00315702058 0.0106379447 -0.00583220826
v 0.00219454186 0.010757473 -0.00610121298
v 0.0013942899 0.010726717 -0.00638421584
v 0.000777077415 0.0105932316 -0.00665789083
v 6.14540675e-05 0.0104185079 -0.00696413317
v -0.00071406837 0.0101552136 -0.00731487858
v -1.02697153e-05 0.00625777546 -0.00878298203
v -0.00205025165 0.00941136938 -0.00802310907
v -0.00279102904 0.00887295292 -0.00844069529
v -0.0041649161 0.00703808353 -0.00953324843
v -0.00447867495 0.00632962272 -0.00988145877
v -0.00472746341 0.00529902921 -0.0103363957
v -0.00487574526 0.00416450844 -0.010771894
v -0.00493035895 0.00321313427 -0.0110964398
v -0.00483642203 0.00240471647 -0.011339746
v -0.00466046912 0.00160166309 -0.0115532498
v -0.00440428836 0.000812378384 -0.0117348056
v -0.00407062156 4.52666061e-05 -0.0118823867
v -0.003663045 -0.000691506408 -0.0119945626
v -0.00323263192 -0.00122998271 -0.0120493497
v -0.00264392478 -0.00204328015 -0.0121078115
v -0.00204322917 -0.00264391615 -0.0121078115
v -0.00139020068 -0.00318572237 -0.0120699029
v -0.000691515035 -0.00366297676 -0.0119945626
v 4.51983743e-05 -0.00407061293 -0.0118823867
v 0.000812310153 -0.00440427973 -0.0117348056
v 0.00160159486 -0.00466046049 -0.0115532498
v 0.00240470784 -0.00483647301 -0.011339746
v 0.00321318524 -0.00493035033 -0.0110964398
v 0.00386609348 -0.0048871669 -0.0108774182
v 0.00481166261 -0.00486889794 -0.0105311494
v 0.00558485406 -0.00471416428 -0.0102152448
v 0.00632955449 -0.00447866633 -0.00988145877
v 0.0070380153 -0.00416484787 -0.00953324843
v 0.0077027263 -0.00377610638 -0.00917454768
v 0.00817437634 -0.00335997189 -0.00889028917
v 0.00887300389 -0.00279102042 -0.00844069529
v 0.00979091542 -0.00156507208 -0.00771053839
v 0.0100382204 -0.000978495825 -0.007444704
v 0.0104175987 -0.00014999821 -0.00701530982
v 0.0106129827 0.000609961011 -0.00668998767
v 0.0106636303 0.00126388648 -0.00646815187
v 0.0107012341 0.0020103053 -0.00620420884
v 0.0106728809 0.0028565423 -0.00592262845
v 0.0105550499 0.00361418872 -0.00570780772
v 0.0103535833 0.00460651205 -0.0054174285
v 0.0100581827 0.00538578317 -0.00525268126
v 0.00971975663 0.00598534001 -0.00518176962
v 0.00931412725 0.00666048454 -0.00509303589
v 0.00816180127 0.0081618099 -0.00495310832
f 1 2 3
f 3 2 4
f 3 4 5
f 5 4 6
f 5 6 7
f 7 6 8
f 7 8 9
f 9 8 10
f 9 10 11
f 11 10 12
f 11 12 13
f 13 12 14
f 13 14 15
f 15 14 16
f 15 16 17
f 17 16 18
f 17 18 19
f 19 18 20
f 19 20 21
f 21 20 22
f 21 22 23
f 23 22 24
f 23 24 25
f 25 24 26
f 25 26 27
f 27 26 28
f 27 28 29
f 29 28 30
f 29 30 31
f 31 30 32
f 31 32 33
f 33 32 34
f 33 34 35
f 35 34 36
f 35 36 37
f 37 36 38
f 37 38 39
f 39 38 40
f 39 40 41
f 41 40 42
f 41 42 43
f 43 42 44
f 43 44 45
f 45 44 46
f 45 46 47
f 47 46 48
f 47 48 1
f 1 48 2
f 28 26 49
f 49 26 24
f 49 24 22
f 34 32 49
f 49 32 30
f 49 30 28
f 40 38 49
f 49 38 36
f 49 36 34
f 46 44 49
f 49 44 42
f 49 42 40
f 4 2 49
f 49 2 48
f 49 48 46
f 10 8 49
f 49 8 6
f 49 6 4
f 16 14 49
f 49 14 12
f 49 12 10
f 22 20 49
f 49 20 18
f 49 18 16
f 21 23 50
f 50 23 25
f 50 25 27
f 15 17 50
f 50 17 19
f 50 19 21
f 9 11 50
f 50 11 13
f 50 13 15
f 3 5 50
f 50 5 7
f 50 7 9
f 45 47 50
f 50 47 1
f 50 1 3
f 39 41 50
f 50 41 43
f 50 43 45
f 33 35 50
f 50 35 37
f 50 37 39
f 27 29 50
f 50 29 31
f 50 31 33
f 61 60 51
f 51 60 59
f 61 62 553
f 53 63 52
f 559 558 557
f 68 564 67
f 557 556 559
f 559 556 62
f 66 560 559
f 68 67 71
f 68 71 66
f 66 71 72
f 70 73 68
f 68 73 565
f 68 565 564
f 52 63 69
f 69 63 572
f 74 597 596
f 74 596 595
f 601 600 58
f 58 600 75
f 58 75 74
f 74 75 597
f 595 594 74
f 74 594 76
f 74 76 65
f 65 76 591
f 123 126 385
f 123 385 127
f 127 390 128
f 128 394 129
f 129 130 131
f 131 132 399
f 118 154 419
f 118 419 155
f 156 155 157
f 157 158 159
f 159 160 161
f 161 162 436
f 122 126 123
f 117 154 118
f 124 122 123
f 119 117 118
f 125 124 123
f 125 123 182
f 120 119 118
f 120 118 183
f 190 124 191
f 191 124 125
f 125 182 184
f 153 119 120
f 185 120 183
f 185 183 186
f 191 125 192
f 192 125 184
f 192 184 193
f 123 127 196
f 123 196 182
f 182 196 197
f 182 197 184
f 184 197 198
f 184 198 193
f 193 198 199
f 193 199 194
f 194 199 113
f 194 113 195
f 195 113 112
f 195 112 114
f 127 128 196
f 198 200 199
f 199 200 111
f 199 111 455
f 199 455 113
f 128 129 201
f 128 201 196
f 196 201 202
f 196 202 197
f 197 202 203
f 197 203 198
f 198 203 204
f 198 204 200
f 200 204 110
f 200 110 458
f 200 458 111
f 129 131 201
f 203 205 204
f 204 205 109
f 204 109 460
f 204 460 110
f 399 121 131
f 131 121 206
f 131 206 201
f 201 206 207
f 201 207 202
f 202 207 203
f 203 207 108
f 203 108 205
f 205 108 462
f 205 462 109
f 108 463 462
f 207 206 107
f 207 107 108
f 108 107 464
f 108 464 463
f 107 106 464
f 121 211 206
f 206 211 189
f 206 189 107
f 107 189 208
f 107 208 106
f 212 211 121
f 212 121 213
f 213 121 134
f 134 121 133
f 133 121 209
f 209 121 399
f 105 210 211
f 211 210 189
f 102 104 105
f 102 105 214
f 214 105 211
f 214 211 212
f 137 213 134
f 137 134 136
f 136 134 135
f 135 134 133
f 103 104 102
f 215 214 212
f 215 212 216
f 216 212 213
f 216 213 140
f 140 213 137
f 140 137 139
f 139 137 138
f 138 137 136
f 101 103 102
f 99 101 102
f 99 102 217
f 217 102 214
f 217 214 215
f 142 216 140
f 142 140 141
f 141 140 335
f 335 140 139
f 100 101 99
f 218 217 215
f 218 215 219
f 219 215 216
f 219 216 145
f 145 216 142
f 145 142 144
f 144 142 143
f 143 142 141
f 98 100 99
f 96 98 99
f 96 99 220
f 220 99 217
f 220 217 218
f 148 219 145
f 148 145 147
f 147 145 146
f 146 145 144
f 97 98 96
f 222 220 218
f 222 218 223
f 223 218 219
f 223 219 150
f 150 219 148
f 150 148 149
f 149 148 147
f 94 97 96
f 150 149 332
f 95 94 96
f 95 96 221
f 221 96 220
f 221 220 222
f 152 223 150
f 152 150 151
f 151 150 332
f 93 94 188
f 188 94 95
f 151 153 152
f 152 153 120
f 152 120 223
f 223 120 185
f 223 185 222
f 222 185 186
f 222 186 221
f 221 186 187
f 221 187 95
f 95 187 188
f 155 156 118
f 118 156 224
f 118 224 183
f 183 224 225
f 183 225 186
f 186 225 226
f 186 226 187
f 187 226 227
f 187 227 188
f 188 227 93
f 93 482 481
f 227 92 93
f 93 92 483
f 93 483 482
f 226 91 227
f 227 91 485
f 227 485 92
f 157 159 228
f 157 228 156
f 156 228 229
f 156 229 224
f 224 229 230
f 224 230 225
f 225 230 231
f 225 231 226
f 226 231 91
f 91 487 485
f 231 90 91
f 91 90 488
f 91 488 487
f 159 161 228
f 90 489 488
f 231 89 90
f 90 89 490
f 90 490 489
f 436 116 161
f 161 116 232
f 161 232 228
f 228 232 233
f 228 233 229
f 229 233 230
f 230 233 234
f 230 234 231
f 231 234 89
f 89 491 490
f 89 234 492
f 89 492 491
f 233 232 235
f 233 235 234
f 234 493 492
f 234 235 494
f 234 494 493
f 116 239 232
f 232 239 235
f 235 236 494
f 240 239 116
f 240 116 241
f 241 116 164
f 164 116 163
f 163 116 237
f 237 116 436
f 88 495 239
f 239 495 235
f 235 238 236
f 85 87 88
f 85 88 242
f 242 88 239
f 242 239 240
f 166 241 164
f 166 164 165
f 165 164 330
f 330 164 163
f 86 87 85
f 243 242 240
f 243 240 244
f 244 240 241
f 244 241 169
f 169 241 166
f 169 166 168
f 168 166 167
f 167 166 165
f 84 86 85
f 82 84 85
f 82 85 245
f 245 85 242
f 245 242 243
f 171 244 169
f 171 169 170
f 170 169 327
f 327 169 168
f 83 84 82
f 246 245 243
f 246 243 247
f 247 243 244
f 247 244 174
f 174 244 171
f 174 171 173
f 173 171 172
f 172 171 170
f 81 83 82
f 79 81 82
f 79 82 248
f 248 82 245
f 248 245 246
f 177 247 174
f 177 174 176
f 176 174 175
f 175 174 173
f 80 81 79
f 251 248 246
f 251 246 252
f 252 246 247
f 252 247 179
f 179 247 177
f 179 177 178
f 178 177 325
f 325 177 176
f 77 80 79
f 78 77 79
f 78 79 250
f 250 79 248
f 250 248 251
f 115 252 179
f 115 179 181
f 181 179 180
f 180 179 178
f 510 77 249
f 249 77 78
f 115 181 324
f 324 181 180
f 324 190 115
f 115 190 191
f 115 191 252
f 252 191 251
f 251 191 192
f 251 192 250
f 250 192 193
f 250 193 78
f 78 193 194
f 78 194 249
f 249 194 195
f 249 195 510
f 254 345 346
f 254 346 347
f 347 348 254
f 254 348 349
f 254 349 253
f 253 349 351
f 262 264 263
f 265 257 262
f 262 257 264
f 253 351 270
f 253 270 269
f 254 343 344
f 254 344 345
f 256 271 261
f 261 271 254
f 254 271 342
f 254 342 343
f 263 272 262
f 262 272 273
f 262 273 274
f 255 338 339
f 274 273 255
f 255 273 337
f 255 337 338
f 275 362 363
f 275 363 364
f 275 360 361
f 275 361 362
f 276 358 275
f 275 358 359
f 275 359 360
f 276 357 358
f 353 354 267
f 267 354 355
f 267 355 276
f 276 355 357
f 288 262 290
f 290 262 277
f 277 262 274
f 277 274 255
f 277 255 278
f 278 255 279
f 279 255 256
f 279 256 261
f 279 261 254
f 279 254 280
f 280 254 281
f 281 254 253
f 281 253 282
f 282 253 269
f 282 269 268
f 282 268 260
f 282 260 283
f 283 260 259
f 283 259 284
f 284 259 258
f 284 258 267
f 284 267 285
f 285 267 276
f 285 276 286
f 286 276 275
f 286 275 287
f 287 275 266
f 287 266 265
f 287 265 288
f 288 265 262
f 289 287 288
f 289 288 290
f 291 282 283
f 291 283 284
f 291 284 292
f 293 280 281
f 293 281 294
f 294 281 295
f 295 281 282
f 295 282 291
f 290 277 296
f 296 277 278
f 296 278 279
f 296 279 297
f 297 279 293
f 293 279 280
f 284 285 292
f 292 285 298
f 298 285 286
f 298 286 299
f 299 286 289
f 289 286 287
f 300 290 301
f 301 290 302
f 302 290 296
f 302 296 303
f 303 296 297
f 303 297 304
f 304 297 293
f 304 293 294
f 304 294 295
f 304 295 305
f 305 295 291
f 305 291 306
f 306 291 292
f 306 292 298
f 306 298 307
f 307 298 308
f 308 298 299
f 308 299 289
f 308 289 300
f 300 289 290
f 305 309 304
f 304 309 310
f 304 310 311
f 302 312 301
f 301 312 300
f 300 312 313
f 300 313 308
f 306 314 315
f 306 315 305
f 305 315 316
f 305 316 309
f 308 313 317
f 308 317 318
f 308 318 319
f 308 319 320
f 308 320 307
f 307 320 306
f 306 320 321
f 306 321 314
f 304 311 322
f 304 322 303
f 303 322 323
f 303 323 302
f 302 323 312
f 58 313 59
f 59 313 312
f 59 312 51
f 51 312 61
f 61 312 62
f 62 312 559
f 559 312 323
f 559 323 66
f 66 323 322
f 66 322 68
f 68 322 311
f 68 311 70
f 70 311 310
f 70 310 309
f 70 309 69
f 69 309 52
f 52 309 316
f 52 316 53
f 53 316 315
f 53 315 54
f 54 315 55
f 55 315 314
f 55 314 56
f 56 314 57
f 57 314 321
f 57 321 64
f 64 321 320
f 64 320 65
f 65 320 319
f 65 319 74
f 74 319 318
f 74 318 317
f 74 317 313
f 74 313 58
f 324 180 450
f 180 178 325
f 175 173 445
f 173 172 445
f 172 170 326
f 327 168 328
f 168 167 329
f 167 165 329
f 153 151 331
f 332 149 333
f 144 143 334
f 143 141 406
f 335 139 336
f 139 138 403
f 138 136 403
f 136 135 402
f 135 133 402
f 340 255 339
f 340 256 255
f 341 271 256
f 352 270 351
f 353 267 258
f 365 275 364
f 366 266 275
f 366 265 266
f 367 257 265
f 269 270 369
f 264 257 368
f 268 269 369
f 370 264 368
f 370 368 371
f 375 268 369
f 375 369 376
f 374 124 190
f 257 367 368
f 368 367 380
f 368 380 371
f 371 380 381
f 371 381 372
f 372 381 373
f 373 382 374
f 374 382 124
f 383 122 124
f 265 366 367
f 367 366 380
f 381 380 384
f 381 384 373
f 373 384 383
f 373 383 382
f 382 383 124
f 384 126 383
f 383 126 122
f 275 365 366
f 366 365 386
f 366 386 387
f 366 387 380
f 380 387 384
f 384 387 385
f 384 385 126
f 388 127 385
f 387 388 385
f 389 390 127
f 386 365 390
f 386 390 387
f 387 390 389
f 387 389 388
f 388 389 127
f 391 394 128
f 362 361 392
f 362 392 363
f 363 392 393
f 363 393 364
f 364 393 394
f 364 394 365
f 365 394 391
f 365 391 390
f 390 391 128
f 395 130 129
f 360 359 396
f 360 396 361
f 361 396 392
f 393 395 394
f 394 395 129
f 393 131 130
f 395 393 130
f 397 132 131
f 358 398 359
f 359 398 396
f 396 399 392
f 392 399 397
f 392 397 393
f 393 397 131
f 397 399 132
f 133 209 400
f 400 209 399
f 355 356 357
f 357 356 401
f 357 401 358
f 358 401 398
f 398 402 396
f 396 402 400
f 396 400 399
f 400 402 133
f 355 354 356
f 401 403 398
f 398 403 402
f 402 403 136
f 353 404 354
f 354 404 405
f 354 405 356
f 356 405 406
f 356 406 401
f 401 406 403
f 406 336 403
f 403 336 139
f 258 407 353
f 353 407 404
f 406 335 336
f 335 406 141
f 407 409 404
f 404 409 408
f 404 408 405
f 405 408 334
f 405 334 406
f 406 334 143
f 334 408 144
f 149 147 333
f 333 147 409
f 410 409 407
f 259 407 258
f 409 147 146
f 409 146 408
f 408 146 144
f 413 333 409
f 413 409 410
f 410 407 259
f 332 333 411
f 411 333 413
f 413 410 414
f 414 410 259
f 412 411 413
f 260 414 259
f 331 151 332
f 331 332 378
f 378 332 411
f 378 411 377
f 377 411 412
f 377 412 376
f 376 412 413
f 376 413 375
f 375 413 414
f 375 414 268
f 268 414 260
f 119 153 415
f 270 352 369
f 369 352 416
f 369 416 376
f 376 416 417
f 376 417 377
f 377 417 378
f 378 415 331
f 331 415 153
f 415 378 119
f 418 117 119
f 417 418 378
f 378 418 119
f 349 350 351
f 351 350 352
f 417 154 418
f 418 154 117
f 350 349 420
f 350 420 352
f 352 420 421
f 352 421 416
f 416 421 422
f 416 422 417
f 417 422 419
f 417 419 154
f 423 155 419
f 349 348 420
f 422 423 419
f 348 347 420
f 422 424 423
f 423 424 155
f 425 157 155
f 347 346 420
f 422 425 424
f 424 425 155
f 426 158 157
f 346 345 427
f 346 427 420
f 420 427 428
f 420 428 421
f 421 428 429
f 421 429 422
f 422 429 426
f 422 426 425
f 425 426 157
f 429 159 158
f 345 344 427
f 426 429 158
f 430 160 159
f 344 343 427
f 428 431 429
f 429 431 430
f 429 430 159
f 431 161 160
f 343 342 427
f 430 431 160
f 432 162 161
f 342 433 427
f 427 433 434
f 427 434 428
f 428 434 435
f 428 435 431
f 431 435 432
f 431 432 161
f 271 341 342
f 342 341 433
f 435 436 432
f 432 436 162
f 437 237 436
f 435 434 437
f 435 437 436
f 330 163 438
f 256 340 341
f 434 438 437
f 437 438 163
f 437 163 237
f 340 439 341
f 341 439 440
f 341 440 433
f 433 440 441
f 433 441 434
f 434 441 330
f 434 330 438
f 441 329 330
f 330 329 165
f 340 339 439
f 339 338 439
f 441 328 329
f 329 328 168
f 338 337 442
f 338 442 439
f 439 442 443
f 439 443 440
f 440 443 444
f 440 444 441
f 441 444 327
f 441 327 328
f 444 326 327
f 327 326 170
f 443 445 444
f 444 445 326
f 326 445 172
f 442 447 443
f 443 447 379
f 443 379 445
f 445 379 175
f 448 447 442
f 448 442 449
f 449 442 446
f 446 442 337
f 446 337 273
f 447 325 176
f 447 176 379
f 379 176 175
f 449 446 273
f 450 180 325
f 450 325 451
f 451 325 447
f 451 447 452
f 452 447 448
f 272 449 273
f 452 448 370
f 370 448 449
f 370 449 263
f 263 449 272
f 190 324 374
f 374 324 373
f 373 324 450
f 373 450 372
f 372 450 451
f 372 451 371
f 371 451 452
f 371 452 370
f 264 370 263
f 114 112 454
f 454 112 113
f 454 113 455
f 456 455 457
f 455 111 457
f 457 111 458
f 458 110 459
f 459 110 460
f 460 109 461
f 461 109 462
f 464 106 465
f 465 106 189
f 106 208 189
f 189 210 466
f 466 210 105
f 466 105 467
f 467 105 104
f 467 104 468
f 468 104 469
f 469 104 103
f 469 103 470
f 470 103 471
f 471 103 101
f 471 101 472
f 472 101 473
f 473 101 100
f 473 100 474
f 474 100 475
f 475 100 98
f 475 98 476
f 476 98 477
f 477 98 97
f 477 97 478
f 478 97 479
f 479 97 94
f 479 94 480
f 94 481 480
f 94 93 481
f 484 483 92
f 484 92 485
f 486 485 487
f 494 236 238
f 238 235 495
f 496 495 88
f 496 88 87
f 496 87 497
f 497 87 498
f 498 87 86
f 498 86 499
f 499 86 500
f 500 86 84
f 500 84 501
f 501 84 502
f 502 84 83
f 502 83 503
f 503 83 504
f 504 83 81
f 504 81 505
f 505 81 506
f 506 81 80
f 506 80 507
f 507 80 508
f 508 80 77
f 508 77 509
f 509 77 510
f 453 510 195
f 453 195 114
f 510 453 509
f 238 495 494
f 466 511 189
f 189 511 465
f 497 512 496
f 495 513 494
f 494 513 514
f 494 514 493
f 493 514 515
f 493 515 492
f 492 515 516
f 492 516 491
f 491 516 517
f 491 517 490
f 490 517 518
f 490 518 489
f 489 518 519
f 489 519 488
f 488 519 520
f 488 520 487
f 487 520 486
f 486 521 485
f 485 521 484
f 484 522 483
f 483 522 523
f 483 523 482
f 482 523 524
f 482 524 481
f 481 524 480
f 471 525 470
f 470 525 526
f 470 526 469
f 469 526 527
f 469 527 468
f 468 527 528
f 468 528 467
f 467 528 529
f 467 529 466
f 466 529 511
f 511 530 465
f 465 530 531
f 465 531 464
f 464 531 532
f 464 532 463
f 463 532 533
f 463 533 462
f 462 533 534
f 462 534 461
f 461 534 535
f 461 535 460
f 460 535 536
f 460 536 459
f 459 536 537
f 459 537 458
f 458 537 538
f 458 538 457
f 457 538 539
f 457 539 456
f 456 539 540
f 456 540 455
f 455 540 541
f 455 541 454
f 454 541 542
f 454 542 114
f 114 542 543
f 114 543 453
f 543 544 453
f 453 544 509
f 512 545 496
f 496 545 546
f 496 546 495
f 495 546 513
f 529 547 511
f 511 547 530
f 544 548 509
f 509 548 549
f 509 549 508
f 508 549 550
f 508 550 507
f 507 550 551
f 507 551 506
f 506 551 552
f 506 552 505
f 505 552 553
f 505 553 504
f 504 553 554
f 504 554 503
f 503 554 555
f 503 555 502
f 502 555 556
f 502 556 501
f 501 556 557
f 501 557 500
f 500 557 558
f 500 558 499
f 499 558 559
f 499 559 498
f 498 559 560
f 498 560 497
f 497 560 561
f 497 561 512
f 512 561 545
f 546 562 513
f 513 562 563
f 513 563 514
f 514 563 564
f 514 564 515
f 515 564 516
f 516 564 565
f 516 565 517
f 517 565 566
f 517 566 518
f 518 566 567
f 518 567 519
f 519 567 568
f 519 568 520
f 520 568 569
f 520 569 486
f 486 569 570
f 486 570 521
f 521 570 571
f 521 571 484
f 484 571 572
f 484 572 522
f 522 572 573
f 522 573 523
f 523 573 574
f 523 574 524
f 524 574 575
f 524 575 480
f 480 575 576
f 480 576 479
f 479 576 577
f 479 577 478
f 478 577 578
f 478 578 477
f 477 578 579
f 477 579 476
f 476 579 580
f 476 580 475
f 475 580 581
f 475 581 474
f 474 581 582
f 474 582 473
f 473 582 583
f 473 583 472
f 472 583 584
f 472 584 471
f 471 584 585
f 471 585 525
f 525 585 586
f 525 586 526
f 526 586 587
f 526 587 527
f 527 587 588
f 527 588 528
f 528 588 589
f 528 589 529
f 529 589 547
f 547 590 530
f 530 590 591
f 530 591 531
f 531 591 592
f 531 592 532
f 532 592 593
f 532 593 533
f 533 593 594
f 533 594 534
f 534 594 595
f 534 595 535
f 535 595 596
f 535 596 536
f 536 596 597
f 536 597 537
f 537 597 598
f 537 598 538
f 538 598 599
f 538 599 539
f 539 599 600
f 539 600 540
f 540 600 601
f 540 601 541
f 541 601 58
f 541 58 542
f 542 58 602
f 542 602 543
f 543 602 544
f 602 59 544
f 544 59 548
f 548 59 60
f 548 60 549
f 549 60 550
f 550 60 61
f 550 61 551
f 551 61 552
f 552 61 553
f 554 553 62
f 554 62 555
f 555 62 556
f 561 560 66
f 561 66 545
f 545 66 72
f 545 72 546
f 546 72 71
f 546 71 562
f 562 71 67
f 562 67 563
f 563 67 564
f 566 565 73
f 566 73 567
f 567 73 568
f 568 73 70
f 568 70 569
f 569 70 570
f 570 70 69
f 570 69 571
f 571 69 572
f 573 572 63
f 573 63 574
f 574 63 575
f 575 63 576
f 576 63 577
f 577 63 53
f 577 53 578
f 578 53 579
f 579 53 580
f 580 53 54
f 580 54 581
f 581 54 55
f 581 55 582
f 583 582 55
f 583 55 584
f 584 55 585
f 585 55 56
f 585 56 586
f 586 56 57
f 586 57 587
f 587 57 64
f 587 64 588
f 589 588 64
f 589 64 547
f 547 64 590
f 590 64 65
f 590 65 591
f 592 591 76
f 592 76 593
f 593 76 594
f 598 597 75
f 598 75 599
f 599 75 600
f 602 58 59
