v -0.00487080467 0.000614016117 -0.00925730022
v -0.00472066518 -0.00368975375 -0.00854572318
v -0.00044259522 0.00223843535 -0.0102212696
v -0.00284661848 0.00225253768 -0.00964846231
v -0.00531762308 -0.000318911518 -0.009048372
v -0.0055092841 -0.0021434936 -0.00869279869
v -0.00536770742 -0.00301877155 -0.0087658972
v -0.00734128534 -0.00668625963 -0.00748031304
v 0.00181975994 -0.00366529882 -0.00964649758
v 0.00226302375 -0.00273451718 -0.00988211144
v 0.00235361063 -0.00174513419 -0.00984253217
v 0.00344544851 0.00455585163 -0.0110356979
v 0.000676930019 0.00169387111 -0.0101268939
v 0.00185857392 0.00559195975 -0.0109468059
v 0.00281614268 0.00502619188 -0.0110099487
v -0.00451844728 0.000966817547 -0.00917114545
v -0.0035964749 -0.00484405911 -0.00859570875
v -0.00289730729 -0.00512295354 -0.00861791147
v -0.00258977831 -0.00524777969 -0.00861609702
v -0.000142822786 -0.00524209558 -0.00887523837
v 0.00235504874 -0.00100042422 -0.0101218158
v -0.00113184551 0.0064042307 -0.0105952171
v -0.00738105511 0.00395008072 -0.00919061293
v 0.00152880156 -0.0039563473 -0.00935258199
v 0.00439022188 -0.0069410368 -0.009332653
v 0.00143500614 0.00106396376 -0.010345521
v 0.00374907704 0.00674133992 -0.00799928177
v 0.00297906572 0.00630324265 -0.0103351123
v 0.0013461447 0.00782181265 -0.0079188998
v 0.00138744473 0.00703767278 -0.0101963967
v -0.000314719565 0.00745330146 -0.00998818238
v -0.00218671849 0.00813205024 -0.0074117514
v -0.00205952828 0.00753100635 -0.00971848485
v -0.00377365225 0.00726789916 -0.00939863671
v -0.005540832 0.00708548438 -0.00671484029
v -0.00539669408 0.00667399478 -0.00904007768
v -0.00686577787 0.00577101779 -0.00865643499
v -0.00821803851 0.00483769176 -0.00593117266
v -0.0081220199 0.00459567616 -0.00826357933
v -0.00911908264 0.00319164299 -0.0078753712
v -0.0098193971 0.00172409446 -0.00517499467
v -0.00981823385 0.00161310633 -0.00750675928
v -0.0101926078 -7.75909597e-05 -0.00717322649
v -0.010108127 -0.00179403773 -0.00456966581
v -0.0102283526 -0.00181944603 -0.00688559253
v -0.00992366425 -0.00354277258 -0.00665612438
v -0.0090408075 -0.00519313583 -0.00419790373
v -0.00929135094 -0.0051804005 -0.006493595
v -0.00835345461 -0.00667396348 -0.0064032789
v -0.00764294582 -0.00746898663 -0.00605596584
v -0.00540812755 -0.00916428872 -0.00647031526
v -0.00446323186 -0.00921077923 -0.00324592576
v -0.00317148448 -0.0100266563 -0.00657753601
v -0.00144530218 -0.0102597791 -0.00681453164
v 0.000285590729 -0.0101556917 -0.00710709337
v 0.00195449864 -0.00971834732 -0.00744300455
v 0.00350007212 -0.00896372451 -0.00781139619
v 0.00486321852 -0.00792016873 -0.00819688199
v 0.00599112875 -0.00662854042 -0.00858313633
v 0.00684329749 -0.00513440191 -0.00895894724
v 0.00738526866 -0.00349893679 -0.00930620885
v 0.00761144038 -0.00171027012 -0.00957544167
v 0.00747331829 2.82225319e-05 -0.00983254831
v 0.00700344839 0.00171118875 -0.0100254279
v 0.00597390961 0.00349043741 -0.0103638036
v 0.00622126364 0.00327737564 -0.0101471121
v 0.00531791693 0.00416633604 -0.0106521945
v 0.0100465106 0.00197978875 0.00441189984
v 0.00737453807 0.00775552229 0.00639679111
v -0.00348997939 -0.00597416391 0.0103639384
v 0.00942118392 0.00490922901 0.00652410755
v 0.0085392731 0.00642300576 0.00642259169
v 0.00859469748 0.00542644349 0.00223495214
v 0.0101253809 0.00265113048 0.006762739
v 0.0102462112 0.00124243144 0.00698218947
v 0.010228205 0.000356484519 0.00682713397
v 0.0101523564 -0.000212953006 0.00723078853
v 0.00975487002 -0.00193703417 0.00519669432
v 0.00972189029 -0.00188948155 0.00757023844
v 0.00896954265 -0.00344368349 0.00794186722
v 0.00854154291 -0.00434108016 0.00565566029
v 0.00774781332 -0.00507702002 0.00813913573
v 0.00772211974 -0.00501081133 0.00839886311
v 0.00642368044 -0.00616936932 0.00851947125
v 0.00490836324 -0.00697983332 0.00888700016
v 0.00325886522 -0.00747910677 0.00922485806
v 0.0032009553 -0.00738636961 0.00951184941
v 0.00153723598 -0.00764860702 0.00952244771
v 0.00146815339 -0.00753518996 0.00981560534
v -0.000194680764 -0.00748241933 0.00976714487
v -0.00186879899 -0.00698675787 0.00995035221
v -0.00342429378 -0.00618010826 0.0100649695
v -0.00578181741 -0.00391203381 0.0101812049
v -0.00692061174 -0.00426064093 0.00661626847
v -0.00641018419 -0.00275070202 0.0103411639
v -0.00669555308 -0.00241226315 0.0100870984
v -0.00777457878 -0.00267175476 0.00650287576
v -0.0071027374 -0.00113135199 0.0101916095
v -0.00730658496 -0.000770361505 0.00992115167
v -0.0083110354 -0.000954704272 0.0063213294
v -0.00746875097 0.000584177588 0.00997367685
v -0.00759075152 0.000948332488 0.00969057168
v -0.00851089225 0.000824139682 0.00607385938
v -0.00753861163 0.0026824949 0.00940266006
v -0.00836694886 0.00260056181 0.00576928978
v -0.00715103789 0.00436604412 0.00907004092
v -0.00788378568 0.00430779969 0.00542044588
v -0.00644411187 0.00593282466 0.00870348269
v -0.00707948612 0.00588167156 0.0050439013
v -0.00544267392 0.0073271455 0.00831785015
v -0.0059840842 0.00726507129 0.00464470818
v -0.00418444554 0.0084951506 0.00792692195
v -0.00463723108 0.00840561938 0.00424821028
v -0.00272222758 0.00938919241 0.00754755436
v -0.00309109114 0.00926004135 0.00386224279
v -0.00132525657 0.00989625488 0.00747070117
v -0.00110388003 0.00998063946 0.00719175309
v -0.00140114582 0.0097974266 0.00350307954
v 0.000405706467 0.0102294684 0.00692571647
v 0.00125045226 0.01024525 0.0069950167
v 0.000368765044 0.00999728439 0.00318586258
v 0.00213813326 0.0101956824 0.00664690084
v 0.00215273699 0.00985198293 0.00292025866
v 0.00384134029 0.00982740139 0.00642689912
v 0.00465814122 0.00952427447 0.00655558887
v 0.00388396474 0.009366952 0.00271705827
v 0.00544729905 0.00913995276 0.00627486232
v 0.00549954927 0.00856020081 0.00258769694
v 0.00745509312 0.00771694903 0.00618068077
v 0.00961296891 0.0043383176 0.00541011448
v 0.00900933474 0.00332197421 -0.000696848411
v 0.00809928859 0.00552430222 0.000346264017
v -0.00602757481 -0.00882327553 -0.00649348184
v 0.0072874265 0.00533645491 -0.00333305758
v 0.00528360222 0.00463053554 -0.0100346891
v 0.00991201379 0.00104354538 0.00211600117
v 0.00889474902 0.00205106946 -0.00306053678
v 0.00751091054 0.00322207522 -0.00659049716
v 0.00962156794 -0.000261877243 -0.000216269351
v 0.0081606153 0.00153852249 -0.00642417048
v 0.00948190917 -0.00250869742 0.0027559964
v 0.00915877233 -0.00156691017 -0.00252146729
v 0.00847710997 -0.000229122571 -0.00619027872
v 0.0088427413 -0.0037778001 0.000478552777
v 0.00844916397 -0.00201355082 -0.0058994552
v 0.00774017049 -0.00560176244 0.00353711586
v 0.00804127481 -0.00498296438 -0.00179019545
v 0.00807943733 -0.00375026871 -0.00555751986
v 0.00678715323 -0.00670698545 0.00128189786
v 0.00738033124 -0.00537625925 -0.00518154465
v 0.00494373424 -0.00777962617 0.00434140742
v 0.00570740625 -0.00769209542 -0.000975401506
v 0.00637834293 -0.00682918438 -0.00478428355
v 0.0037587271 -0.00861648477 0.00207813833
v 0.00511225116 -0.00805444793 -0.00437537098
v 0.00150502086 -0.00872126043 0.0050482121
v 0.00250171248 -0.0092948141 -0.000197940645
v 0.00362818855 -0.00900717521 -0.00397817212
v 0.00020507287 -0.00922421603 0.00275018775
v 0.00198111517 -0.0096524304 -0.00360443198
v -0.00206884545 -0.00828734528 0.00555330107
v -0.0011032687 -0.00955481252 0.000425345556
v 0.000233200775 -0.00996560407 -0.00326458338
v -0.0033494117 -0.00844046232 0.00319928128
v -0.00155136715 -0.00993568101 -0.00297716835
v -0.00439450376 -0.00869086059 -4.29531936e-05
v -0.00330517603 -0.00956308554 -0.00274570251
v -0.00585311449 -0.00889655907 -0.00645591546
v -0.00681045256 -0.00757283054 -0.00241330914
v -0.00620820581 -0.00703723699 0.00174759539
v -0.00524843899 -0.0065416811 0.00578404841
v -0.004912234 -0.00504771935 0.00997092521
v -0.00700120822 -0.00569989237 0.00334446389
v -0.00875814785 -0.0049299138 -0.00167508514
v -0.00843403619 -0.00457343473 0.000803407848
v -0.00876379338 -0.0024919256 0.00311086681
v -0.00986846024 -0.00148938626 -0.0020504747
v -0.00955510315 -0.00110153769 0.000424569826
v -0.00920243176 0.0011132735 0.00260255604
v -0.00960991487 0.0020826983 -0.00266827024
v -0.00929470373 0.00250252998 -0.000199234157
v -0.00825342462 0.00458379613 0.00188756636
v -0.00802045886 0.00525957306 -0.00343612662
v -0.00769144468 0.00570820352 -0.000974251446
v -0.00605644429 0.00740623313 0.00107617743
v -0.00533465769 0.00757210051 -0.00424342782
v -0.0049817755 0.00804211139 -0.00178825707
v -0.00293556848 0.00916465781 0.000289969818
v -0.00194908591 0.00867868824 -0.00496805083
v -0.00156569619 0.00915898517 -0.00252103388
v 0.000647885338 0.00959909924 -0.000359326968
v 0.00163625913 0.00841580247 -0.00550400376
v 0.00205207575 0.00889421627 -0.0030618629
v 0.00455703071 0.00777234509 -0.00325888336
v 0.00416498489 0.00864582514 -0.000772024408
v 0.00474435293 0.00600639026 -0.00805367757
v 0.00624216462 0.00559315041 -0.00579269033
v 0.00474727866 0.00738932194 -0.00428918089
v 0.006411949 0.00706149418 -0.000905525385
v 0.00674749884 0.00739107723 0.00152153641
v 0.00090323475 -0.00246335623 0.010179767
v -0.00014738533 -0.0020576814 0.0101001765
v -0.00195289285 -0.000213225187 0.0102937726
v 0.00282927827 -0.0063422348 0.0103112646
v 0.00331415996 -0.00200769142 0.0096921935
v -0.000613850098 0.00487090478 0.00925720641
v 0.000319437286 0.00531750037 0.00904810129
v 0.00166538686 0.00539820728 0.00870478889
v 0.000619592306 0.00937631767 0.00813101004
v 0.00533657334 0.000513066102 0.00895934615
v -0.00170844591 -0.000561683964 0.0101107187
v -0.00476588149 -0.00319408027 0.011029011
v -0.00232450127 0.000747945224 0.0102125298
v -0.00234505167 0.00207697762 0.00978758578
v -0.00202542276 0.00327709188 0.00974278578
v -0.00610357321 0.0038869683 0.0101020164
v -0.00132638079 0.0042151557 0.00927810293
v 0.00540884661 0.00140597921 0.00879580949
v 0.00426376101 -0.00131728562 0.0093848507
v -0.00454233212 0.00682836814 0.00937541812
v 0.00418335402 0.0041833822 0.00839398574
v 0.00484503585 0.00359532712 0.00859581203
v 0.00522426516 0.00267614272 0.00861996075
v 0.00139433348 0.00940457027 0.00800142955
v 0.0032093797 0.00497246173 0.00853161904
v 0.00369483435 0.00903484266 0.00768981646
v 0.00480282644 0.00881918925 0.00752706556
v 0.0066860784 0.0073411264 0.00748047465
v 0.00316178469 0.00363788953 0.00351836568
v 0.00204247439 0.00428584259 0.00359438132
v 0.000558083761 0.00461222544 0.00378124663
v -0.00170674296 0.00383660052 0.00427193955
v -0.00304914841 0.00186555511 0.00480673436
v -0.00308793581 0.000153929401 0.00508926581
v -0.00259590868 -0.00128800274 0.00524253497
v -0.00134843386 -0.00249513943 0.00523601245
v -0.00031637036 -0.00299701282 0.00515049004
v 0.00166602577 -0.00310022491 0.0048472014
v 0.00370806482 -0.00186633765 0.00431845126
v 0.00444060766 -0.00033590157 0.00395320128
v 0.00457263905 0.0011669737 0.0036893875
v 0.00391119921 0.00276449363 0.00353835295
v 0.00124749423 0.00315661645 0.00390495603
v -0.000326659022 0.00299579111 0.0041849627
v 0.0022928223 -0.0012489764 0.00444720158
v 0.00286168062 -0.000553398918 0.00424323748
v 0.00318451572 0.000410372639 0.00403554169
v -0.000160043503 -0.00160037004 0.00489984817
v 0.00112192736 -0.00175457434 0.00471784283
v -0.00169470413 4.82429495e-06 0.00488846224
v -0.0010153631 -0.00101539452 0.00494347285
v -0.00153143112 0.00192312879 0.00455248666
v 0.00283115093 0.00201382163 0.00383378835
v 0.000827521232 0.00120939118 -0.00494448753
v -0.000978877083 0.00185248927 -0.00475671631
v -0.00266508369 0.000876712082 -0.00432707604
v -0.00322892007 -0.000591642471 -0.00399910672
v -0.00232282468 -0.00266420605 -0.0038109061
v -0.000410237879 -0.00318452339 -0.00403552993
v 0.00128983756 -0.00237297178 -0.00444088546
v 0.00174044099 -0.000168421306 -0.00486948963
v 0.00211336584 -0.0034281562 -0.00440350067
v 0.000792044503 -0.0043127784 -0.00404753558
v -0.000789161934 -0.00457424202 -0.0037501531
v -0.00143338177 0.00311092348 -0.00488643553
v 0.00268369253 0.00106957649 -0.00522149012
v 0.00319614426 -0.000858654455 -0.0049929408
v 0.00274545157 -0.00249996741 -0.00465537835
v -0.000153956774 0.00308796804 -0.00508930017
v 0.00128811473 0.00259586234 -0.00524257553
v -0.00441323787 -0.00173223004 -0.00362395704
v -0.00455647505 -0.000457673859 -0.003806489
v -0.00436313241 0.000657181528 -0.00401762992
v -0.00328252865 0.00229185314 -0.00445582797
v -0.00235594629 -0.00416704347 -0.00356296103
v -0.00339668787 -0.00339665968 -0.00351931382
v -0.00391119516 -0.00276449282 -0.0035382681
v 0.00649062956 0.00850616148 0.00658989491
v 0.00332729039 0.00998752285 0.0068640077
v 0.00174239719 0.0102199578 0.00714637534
v -0.000423482875 0.010088977 0.00762164859
v -0.00290710328 0.00924278233 0.00798030226
v -0.00433822483 0.0082932048 0.00836501411
v -0.00493389166 0.00771895092 0.00862823199
v -0.0055491073 0.00707792135 0.0087570992
v -0.00601559675 0.00639411848 0.00901661586
v -0.00649326416 0.00564399101 0.00914120778
v -0.00681263006 0.00487706106 0.00939009856
v -0.00713502641 0.00404530375 0.00950318218
v -0.0072943548 0.00322613161 0.00973437499
v -0.00744890472 0.00234481569 0.00982876174
v -0.00744217432 0.00150468986 0.0100359745
v -0.00738864935 0.00063821714 0.0101672239
v -0.00693057707 -0.00138025848 0.0104232727
v -0.00618821927 -0.00296524006 0.0105591097
v -0.00538303269 -0.00416925921 0.010546186
v -0.0015345657 0.00923434575 0.00845590731
v -0.00415419502 0.00756968064 0.00916406157
v -0.00599689125 0.00500479293 0.00987546294
v -0.00645112318 0.00313289637 0.010269638
v -0.00671363794 0.00311742559 0.0102515759
v -0.00658789404 0.000692696183 0.0106754516
v -0.0058295884 -0.00200194352 0.0109792786
v -0.0044048528 -0.00393848353 0.0110720676
v -0.00347664527 -0.00475709988 0.0110605163
v -0.00284531908 -0.00523116805 0.0110321675
v -0.00213441345 -0.00563915432 0.01098623
v -0.00143345391 -0.00598000584 0.0109251246
v -0.000271669034 -0.00636523862 0.0108015365
v 0.00134428781 -0.00675087886 0.010571092
v 0.00366114259 -0.00636093542 0.0101679232
v 0.00512018738 -0.00590285229 0.00984099923
v 0.00679993092 -0.00480286329 0.00940442933
v 0.00800358245 -0.00367082947 0.00901137955
v 0.00832932816 -0.00299620134 0.00887095991
v 0.00885338786 -0.0023257144 0.00865711908
v 0.00918558459 -0.00123736216 0.00844755174
v 0.00963783022 0.000665220547 0.00805204304
v 0.0094788478 0.00267403099 0.00776735693
v 0.00960260375 0.00309497207 0.00762197314
v 0.00841509093 0.00569100512 0.00743872416
v 0.00717789137 0.00717785995 0.00739739608
v 0.00813853879 0.00644615391 0.00727635227
v 0.00800671536 0.00684369458 0.00709221238
v 0.00825252087 0.00679821083 0.00678429804
v 0.00756031477 0.00756034296 0.00663743685
v 0.00815075838 0.00691053312 0.0066469736
v 0.00956399183 0.00393353132 0.00737008807
v 0.009396897 0.00476247544 0.00709121626
v 0.00913125479 0.00545826595 0.00672314833
v 0.00951189005 0.00466981571 0.00678895186
v 0.00981432402 0.00384977501 0.00687251757
v 0.00982169372 0.000189212552 0.00801454715
v 0.0100610031 0.000958963363 0.00771485991
v 0.0100706388 0.00271446978 0.00715624824
v 0.01017374 0.0021468703 0.00708924006
v 0.0102007946 0.000995400552 0.00741307629
v 0.0101956745 0.000414938141 0.00736520957
v 0.00922419038 -0.00238692143 0.00839770462
v 0.00967385653 -0.00171732112 0.00801655615
v 0.0100549491 -0.00044005624 0.0076353955
v 0.00987941229 -0.00127938349 0.00768981646
v 0.00818853788 -0.0039525877 0.00886480693
v 0.00923699343 -0.00287106593 0.00805030535
v 0.00661706431 -0.00531225133 0.00941968828
v 0.00861030171 -0.00381259963 0.0084452934
v 0.00600471957 -0.00596657108 0.00948717727
v 0.00675931307 -0.00566818211 0.00913409031
v 0.00800290047 -0.00465198976 0.00853609802
v 0.00708395445 -0.00550797541 0.0088233776
v 0.0036758704 -0.00669721691 0.0101178868
v 0.00639409029 -0.00601556857 0.00901661586
v 0.00601107079 -0.00628656906 0.00907710596
v 0.00311198411 -0.0070854456 0.0100751556
v 0.00393219171 -0.00709430326 0.00972402075
v 0.00487703287 -0.00681260188 0.00939009856
v 0.00445011217 -0.00700325975 0.00944457934
v 0.000836079685 -0.0070230842 0.010546902
v -0.00120611372 -0.00642616212 0.0108620132
v 0.000274021746 -0.00723305237 0.0104334846
v 0.00191074471 -0.00744887178 0.00997080842
v 0.000638188955 -0.00738868077 0.0101672239
v -0.00209399283 -0.00629405751 0.0108472173
v -0.000221071604 -0.00725057681 0.0102835722
v -0.000679857356 -0.00717626679 0.0102996103
v -0.00405278731 -0.00472105674 0.0110463061
v -0.00296577722 -0.00604772662 0.0107645244
v -0.00188475645 -0.00672677119 0.0104676313
v -0.00231970017 -0.00656713428 0.0104659554
v -0.00482534141 -0.00426966762 0.0109613149
v -0.00342255628 -0.00589099486 0.0105808802
v -0.00416058276 -0.00539666209 0.0105380625
v -0.00605840495 -0.00207186693 0.0109424247
v -0.00553509726 -0.00372437357 0.010804615
v -0.00477522409 -0.00477525551 0.0106191463
v -0.00660011493 -0.00137379965 0.010780225
v -0.00695960064 0.00090882157 0.0105683498
v -0.00705534342 -0.000881369329 0.0104733242
v -0.00726417424 0.00144592234 0.0103155017
v -0.00692850402 0.00362085391 0.0100273781
v -0.00581994461 0.00584912675 0.00962554126
v -0.00687292782 0.00446612801 0.00969866871
v -0.00554290509 0.00664527665 0.0093155438
v -0.00366215533 0.00826684968 0.00888716794
v -0.00515854881 0.00738339012 0.00895116007
v -0.00334051811 0.00877632841 0.00855646057
v -0.00120946943 0.009629574 0.00818952001
v -0.00350798098 0.00882550573 0.00833117892
v -0.00199071475 0.00960596066 0.00796031873
v 9.43249489e-05 0.00967345219 0.00810810608
v 0.000864634705 0.0101912257 0.00752595673
v 0.00115079773 0.00994609747 0.0077915529
v 0.00172169826 0.00959460388 0.00790181482
v 0.0025846201 0.0099245793 0.00746764748
v 0.00331664327 0.00938993629 0.00766386712
v 0.00372704085 0.00974086046 0.00724531677
v 0.00504797206 0.00928030862 0.00698795697
v 0.0041611572 0.00938063195 0.00744468716
v 0.00583265501 0.00821446021 0.00746155377
v 0.00574537603 0.00898849861 0.006871897
v 0.00611227442 0.00855323587 0.00712210456
v 0.0062707142 0.0081301863 0.00735274529
v 0.0047151988 0.00474923692 -0.0107148225
v 0.00583025791 0.00340499792 -0.0106773647
v 0.00651831283 0.00231493197 -0.0105612624
v 0.00652576249 0.0018192612 -0.0107570238
v 0.00713081253 0.000677951136 -0.0103963036
v 0.00704879418 0.00018561501 -0.0105777341
v 0.00741506637 -0.00103690427 -0.0101651177
v 0.00724568577 -0.00151421237 -0.0103351378
v 0.00735596036 -0.00280056916 -0.00987381847
v 0.0072446682 -0.00317916996 -0.00985105722
v 0.00706022356 -0.00399838257 -0.00968355806
v 0.00684043989 -0.00480360287 -0.00944439975
v 0.00637493149 -0.00543444198 -0.00956415174
v 0.00605972497 -0.00632719813 -0.00907243312
v 0.00548605678 -0.00686219204 -0.00919019518
v 0.00499287091 -0.00766233092 -0.00868446127
v 0.00432872624 -0.00808442351 -0.00880626218
v 0.00368140825 -0.00875693358 -0.00829574929
v 0.00295094976 -0.00905028255 -0.00842791623
v 0.00217578032 -0.0095692882 -0.00792148281
v 0.00140378937 -0.00972406508 -0.00806960742
v 0.000533154497 -0.0100688186 -0.00757554653
v -0.000252757418 -0.0100796385 -0.00774491237
v -0.00118333662 -0.0102363197 -0.00727113137
v -0.00195514564 -0.0101034737 -0.00746616467
v -0.00290725437 -0.0100655686 -0.00701986572
v -0.0036373605 -0.00979441844 -0.00724468214
v -0.00457355489 -0.00956319752 -0.00683153341
v -0.00539100992 -0.00914996191 -0.00684235251
v -0.0069218342 -0.00815274844 -0.00658616331
v -0.0072770044 -0.00778582629 -0.00687088869
v -0.00806410619 -0.00690339612 -0.00699435143
v -0.00858459686 -0.00621336446 -0.00702192488
v -0.00903515254 -0.00547952673 -0.00706751866
v -0.00941354426 -0.00470488515 -0.00713147195
v -0.00971453809 -0.00390013733 -0.00721284777
v -0.0101505881 -0.00218437047 -0.00719632648
v -0.0101265492 -0.00149247013 -0.00755527381
v -0.0101106605 -0.000640669304 -0.00769546444
v -0.0100115356 0.000203566675 -0.00784762238
v -0.00982979376 0.00103096166 -0.00801056395
v -0.00956781669 0.00183375797 -0.00818232644
v -0.00922703608 0.00260677577 -0.00836198262
v -0.00881186987 0.00333949915 -0.00854720471
v -0.00832561899 0.00402624979 -0.00873670467
v -0.00777240069 0.00466144632 -0.00892845021
v -0.00715768662 0.00523786861 -0.00912084493
v -0.00649029607 0.0057482224 -0.00931080842
v -0.00577399904 0.00618970275 -0.00949758735
v -0.00501382747 0.00655865832 -0.0096799867
v -0.00422095215 0.00685002497 -0.00985477974
v -0.00340098429 0.00706134359 -0.0100212959
v -0.0025611166 0.00719089993 -0.0101778497
v -0.0017134479 0.00723714335 -0.0103220026
v -0.000860848986 0.00719985831 -0.0104535581
v -1.34669086e-05 0.00707894173 -0.0105709488
v 0.000820011568 0.00687578838 -0.0106728049
v 0.00163068104 0.00659273919 -0.0107579954
v 0.00241192833 0.00623219292 -0.0108259453
v 0.003151254 0.0058013622 -0.0108751086
v 0.00415024518 0.00541527914 -0.0105224854
v 0.00372069208 0.00524019363 -0.0109542355
v -0.00594302901 -0.00864947501 -0.00715307492
v -0.00993633447 -0.00307094174 -0.00731074469
v -0.00740741002 -0.0073621751 -0.00718448715
v -0.00464075677 -0.00924497718 -0.00732686462
v -0.00304617802 -0.00975346803 -0.00750204925
v -0.00139182546 -0.00994284732 -0.00773883142
v 0.00026041296 -0.00980713892 -0.00802745037
v 0.00184637275 -0.00935113333 -0.00835675239
v 0.00330464828 -0.0085917872 -0.0087148799
v 0.00457872295 -0.00755931942 -0.00908729459
v 0.00562261303 -0.00629175072 -0.00945989712
v 0.00639178411 -0.0048397522 -0.00981879576
v 0.00678049908 -0.00367144078 -0.0100701986
v 0.00697546744 -0.00243573285 -0.0103004876
v 0.0069597611 -0.000775480287 -0.0105663599
v 0.00662118254 0.000859166625 -0.0107754206
v 0.00597170002 0.00240487982 -0.010919914
v 0.00553748566 0.00312561176 -0.0109661189
v 0.00503601335 0.00380162786 -0.0109943123
v 0.00447180418 0.00442697146 -0.0110041941
v 0.00373690203 0.00478271227 -0.0110597047
v -0.00670921345 -0.00775348386 -0.00735042962
v -0.0060553694 -0.00825210251 -0.00737531697
v 0.00295001471 0.00522634428 -0.0110339098
v 0.00225907767 0.00564608018 -0.01099016
v 0.00153202021 0.00599709194 -0.0109293633
v 0.000775756475 0.00627598207 -0.0108523541
v -2.20334823e-06 0.00648012798 -0.0107597284
v -0.000794587496 0.0066074435 -0.0106524401
v -0.00187010755 0.00660267435 -0.0104958467
v -0.00299920174 0.00649385119 -0.0102949268
v -0.00372484426 0.00633017712 -0.0101542564
v -0.00452233041 0.00608575281 -0.00998326023
v -0.00519602434 0.00578405695 -0.00982865504
v -0.00592768997 0.00538692511 -0.00964360995
v -0.00673860109 0.00487318676 -0.00941325952
v -0.00732415712 0.0043437783 -0.00923325349
v -0.00785356558 0.00375816267 -0.00905336667
v -0.00832158125 0.0031220619 -0.00887514879
v -0.0087239126 0.00244149606 -0.00870038797
v -0.00905662573 0.00172308128 -0.00853075315
v -0.00931638277 0.000973731685 -0.00836779405
v -0.0094150753 0.000357747241 -0.00826914004
v -0.0096080879 -0.000588684868 -0.00806857873
v -0.00963717497 -0.00138673146 -0.00793506433
v -0.00955301281 -0.00200961084 -0.00786472802
v -0.00944458303 -0.00274706283 -0.00776605836
v -0.00897747076 -0.00451233942 -0.00753714372
v -0.0086263994 -0.00523945649 -0.00747646619
v -0.00820666349 -0.00593039353 -0.00743259717
v -0.00772231615 -0.00657865364 -0.00740625192
v -0.00717788732 -0.00717785914 -0.00739731122
v -0.00523942507 -0.00862643082 -0.00747646619
v -0.00451236761 -0.00897744257 -0.00753714372
v -0.00391064677 -0.0091516842 -0.00762274105
v -0.00270162022 -0.00946637801 -0.00776819597
v -0.00156606106 -0.00958035627 -0.00793193939
v -0.000821294244 -0.00956305798 -0.00805779257
v 1.32718942e-05 -0.00947947249 -0.00820314269
v 0.000737222509 -0.0093166953 -0.00834909938
v 0.00153761954 -0.00907110655 -0.00851504458
v 0.00221075893 -0.00877004495 -0.0086751219
v 0.00294183445 -0.00837249023 -0.00885444772
v 0.00375813448 -0.00785353739 -0.00905336667
v 0.00434380972 -0.00732412894 -0.00923325349
v 0.00487321818 -0.0067385133 -0.00941325952
v 0.00534123385 -0.00610241253 -0.00959147741
v 0.0057435652 -0.0054218467 -0.00976623822
v 0.00607627833 -0.00470349152 -0.00993587304
v 0.00633603537 -0.00395408232 -0.0100987129
v 0.0064295495 -0.00334317038 -0.010229059
v 0.0066277405 -0.00239166577 -0.0103979282
v 0.00665682757 -0.00159361918 -0.0105314427
v 0.00652005816 -0.000530739436 -0.0106986806
v 0.00627121668 0.000590978954 -0.0108384353
v 0.00602044869 0.00129546903 -0.0109145113
v 0.005646052 0.00225910585 -0.01099016
v 0.00522631609 0.00295004289 -0.0110339098
v 0.00480822255 0.00342394106 -0.0110595277
v 0.00419753992 0.0041975085 -0.0110691958
v 0.00300091707 0.00300088565 0.0118528433
v -0.00119465387 -0.00072267611 -0.0125119858
v 0.00273889506 0.00321099203 0.0118611879
v -0.00149541891 -0.0005749758 -0.0124873095
v 0.00243824923 0.00335869234 0.0118858642
v -0.00181966818 -0.000497072529 -0.0124476128
v 0.00211399996 0.00343659561 0.0119256801
v -0.00215130842 -0.000492840599 -0.0123946838
v 0.00178224051 0.00344082754 0.0119784899
v -0.00247376955 -0.000562518429 -0.0123313837
v 0.00145989859 0.0033710901 0.01204179
v -0.0027708391 -0.000702648949 -0.012260931
v 0.00116282904 0.00323101919 0.0121123619
v -0.0030274967 -0.000906139206 -0.0121865444
v 0.000906171438 0.00302746933 0.0121866293
v -0.00323098696 -0.00116285641 -0.012112277
v 0.000702681181 0.00277081173 0.0122608967
v -0.00337105787 -0.00145986636 -0.0120418244
v 0.000562491056 0.00247380178 0.0123314686
v -0.00344079531 -0.00178232748 -0.0119785242
v 0.000492872831 0.00215134065 0.0123946495
v -0.00343662298 -0.00211396773 -0.0119255953
v 0.000497045156 0.0018196408 0.0124475784
v -0.0033586601 -0.0024382766 -0.0118858986
v 0.000575008032 0.00149539154 0.0124872751
v -0.0032109598 -0.00273892243 -0.0118612223
v 0.000722708342 0.0011946861 0.0125120706
v -0.00300091303 -0.00300088484 -0.0118527584
v 0.00093275511 0.000932783294 0.0125204153
v -0.00273889101 -0.00321099121 -0.0118612223
v 0.00119465792 0.000722676922 0.0125120706
v -0.00243824518 -0.00335869152 -0.0118858986
v 0.00149542296 0.000574976612 0.0124872751
v -0.00211399591 -0.0034365948 -0.0119255953
v 0.00181967222 0.000497073341 0.0124475784
v -0.00178235567 -0.00344082673 -0.0119785242
v 0.00215131247 0.000492841411 0.0123946495
v -0.00145989454 -0.00337108929 -0.0120418244
v 0.0024737736 0.000562519241 0.0123314686
v -0.00116282499 -0.00323101838 -0.012112277
v 0.00277084315 0.000702649761 0.0122608967
v -0.000906167391 -0.00302746851 -0.0121865444
v 0.00302750075 0.000906140018 0.0121866293
v -0.000702677134 -0.00277081091 -0.012260931
v 0.003230991 0.00116285722 0.0121123619
v -0.000562487009 -0.00247380097 -0.0123313837
v 0.00337106192 0.00145986717 0.01204179
v -0.000492868784 -0.00215133984 -0.0123946838
v 0.00344079935 0.0017823283 0.0119784899
v -0.000497041109 -0.0018196996 -0.0124476128
v 0.00343662703 0.00211396854 0.0119256801
v -0.000575003985 -0.00149539072 -0.0124873095
v 0.00335866415 0.00243827741 0.0118858642
v -0.000722704294 -0.00119468529 -0.0125119858
v 0.00321096384 0.00273892324 0.0118611879
v -0.000932751062 -0.000932782482 -0.0125203304
v -0.00196677244 -0.00196680386 -0.0121865444
v 0.00196677649 0.00196680467 0.0121866293
f 5 6 507
f 17 8 2
f 10 11 535
f 3 14 13
f 13 14 15
f 13 15 12
f 20 524 523
f 20 523 522
f 4 494 22
f 4 22 3
f 4 496 495
f 4 495 494
f 4 498 497
f 4 497 496
f 1 23 16
f 16 23 4
f 4 23 499
f 4 499 498
f 511 510 7
f 7 510 6
f 522 521 20
f 20 521 520
f 20 520 19
f 19 520 519
f 20 526 525
f 20 525 524
f 24 25 20
f 20 25 527
f 20 527 526
f 24 9 25
f 11 21 535
f 26 540 21
f 21 540 539
f 21 539 538
f 12 543 13
f 13 543 26
f 68 130 74
f 74 75 68
f 78 77 79
f 78 79 80
f 81 80 82
f 82 83 84
f 84 353 85
f 85 357 86
f 86 87 88
f 88 89 90
f 90 365 91
f 91 369 92
f 73 71 130
f 72 71 73
f 132 73 130
f 132 130 131
f 132 131 134
f 69 72 129
f 129 72 73
f 200 129 73
f 200 73 199
f 199 73 132
f 199 132 134
f 68 136 130
f 130 136 131
f 131 137 134
f 134 137 138
f 134 138 197
f 197 138 66
f 197 66 135
f 135 66 65
f 135 65 67
f 75 76 68
f 68 76 136
f 136 139 131
f 131 139 137
f 137 140 138
f 138 140 64
f 138 64 405
f 138 405 66
f 77 78 76
f 76 78 136
f 78 141 136
f 136 141 139
f 139 142 137
f 137 142 143
f 137 143 140
f 140 143 63
f 140 63 407
f 140 407 64
f 141 144 139
f 139 144 142
f 142 145 143
f 143 145 62
f 143 62 409
f 143 409 63
f 80 81 78
f 78 81 141
f 81 146 141
f 141 146 144
f 144 147 142
f 142 147 148
f 142 148 145
f 145 148 61
f 145 61 411
f 145 411 62
f 81 82 146
f 146 149 144
f 144 149 147
f 147 150 148
f 148 150 60
f 148 60 414
f 148 414 61
f 82 84 146
f 84 151 146
f 146 151 149
f 149 152 147
f 147 152 153
f 147 153 150
f 150 153 59
f 150 59 416
f 150 416 60
f 84 85 151
f 151 154 149
f 149 154 152
f 152 155 153
f 153 155 58
f 153 58 418
f 153 418 59
f 85 86 151
f 86 156 151
f 151 156 154
f 154 157 152
f 152 157 158
f 152 158 155
f 155 158 57
f 155 57 420
f 155 420 58
f 86 88 156
f 156 159 154
f 154 159 157
f 157 160 158
f 158 160 56
f 158 56 422
f 158 422 57
f 88 90 156
f 90 161 156
f 156 161 159
f 159 162 157
f 157 162 163
f 157 163 160
f 160 163 55
f 160 55 424
f 160 424 56
f 90 91 161
f 161 164 159
f 159 164 162
f 162 165 163
f 163 165 54
f 163 54 426
f 163 426 55
f 91 92 161
f 92 171 161
f 161 171 164
f 164 166 162
f 162 166 167
f 162 167 165
f 165 167 53
f 165 53 428
f 165 428 54
f 171 170 164
f 164 170 166
f 166 52 167
f 167 52 430
f 167 430 53
f 52 51 430
f 170 169 166
f 166 169 133
f 166 133 52
f 52 133 168
f 52 168 51
f 173 170 171
f 172 171 92
f 172 92 372
f 372 92 70
f 50 432 169
f 169 432 133
f 47 49 50
f 47 50 174
f 174 50 169
f 174 169 175
f 175 169 170
f 175 170 173
f 94 173 171
f 94 171 93
f 93 171 172
f 93 172 296
f 48 49 47
f 176 175 173
f 176 173 97
f 97 173 94
f 97 94 96
f 96 94 95
f 95 94 93
f 46 48 47
f 44 46 47
f 44 47 177
f 177 47 174
f 177 174 178
f 178 174 175
f 178 175 176
f 100 176 97
f 100 97 99
f 99 97 98
f 98 97 96
f 45 46 44
f 179 178 176
f 179 176 103
f 103 176 100
f 103 100 102
f 102 100 101
f 101 100 99
f 43 45 44
f 41 43 44
f 41 44 180
f 180 44 177
f 180 177 181
f 181 177 178
f 181 178 179
f 105 179 103
f 105 103 104
f 104 103 291
f 291 103 102
f 42 43 41
f 182 181 179
f 182 179 107
f 107 179 105
f 107 105 106
f 106 105 289
f 289 105 104
f 40 42 41
f 38 40 41
f 38 41 183
f 183 41 180
f 183 180 184
f 184 180 181
f 184 181 182
f 109 182 107
f 109 107 108
f 108 107 287
f 287 107 106
f 39 40 38
f 185 184 182
f 185 182 111
f 111 182 109
f 111 109 110
f 110 109 285
f 285 109 108
f 37 39 38
f 35 37 38
f 35 38 186
f 186 38 183
f 186 183 187
f 187 183 184
f 187 184 185
f 113 185 111
f 113 111 112
f 112 111 283
f 283 111 110
f 36 37 35
f 188 187 185
f 188 185 115
f 115 185 113
f 115 113 114
f 114 113 282
f 282 113 112
f 34 36 35
f 32 34 35
f 32 35 189
f 189 35 186
f 189 186 190
f 190 186 187
f 190 187 188
f 118 188 115
f 118 115 117
f 117 115 116
f 116 115 114
f 33 34 32
f 191 190 188
f 191 188 121
f 121 188 118
f 121 118 119
f 119 118 117
f 31 33 32
f 121 119 120
f 29 31 32
f 29 32 192
f 192 32 189
f 192 189 193
f 193 189 190
f 193 190 191
f 123 191 121
f 123 121 122
f 122 121 120
f 30 31 29
f 123 122 279
f 195 193 191
f 195 191 126
f 126 191 123
f 126 123 124
f 124 123 279
f 28 30 29
f 126 124 125
f 27 28 29
f 27 29 198
f 198 29 192
f 198 192 194
f 194 192 193
f 194 193 195
f 128 195 126
f 128 126 127
f 127 126 125
f 463 28 27
f 128 127 278
f 196 463 27
f 196 27 197
f 197 27 198
f 198 194 199
f 199 194 195
f 199 195 200
f 200 195 128
f 200 128 129
f 129 128 278
f 198 199 134
f 198 134 197
f 196 197 135
f 196 135 463
f 201 204 205
f 202 309 201
f 202 307 308
f 202 308 309
f 207 208 209
f 202 305 306
f 202 306 307
f 211 212 202
f 202 212 304
f 202 304 305
f 211 203 212
f 213 214 302
f 214 300 302
f 214 215 216
f 214 216 300
f 204 311 205
f 206 220 217
f 223 218 319
f 313 314 219
f 219 314 315
f 219 315 210
f 210 315 316
f 210 316 317
f 217 220 215
f 208 224 209
f 225 226 208
f 208 226 393
f 225 227 226
f 222 228 221
f 221 228 225
f 225 228 399
f 229 221 225
f 229 225 230
f 230 225 231
f 231 225 208
f 231 208 207
f 231 207 232
f 232 207 206
f 232 206 217
f 232 217 233
f 233 217 215
f 233 215 214
f 233 214 234
f 234 214 213
f 234 213 235
f 235 213 203
f 235 203 211
f 235 211 202
f 235 202 236
f 236 202 237
f 237 202 238
f 238 202 201
f 238 201 205
f 238 205 239
f 239 205 219
f 239 219 210
f 239 210 240
f 240 210 241
f 241 210 218
f 241 218 223
f 241 223 242
f 242 223 222
f 242 222 229
f 229 222 221
f 243 231 244
f 245 239 246
f 246 239 247
f 247 239 240
f 247 240 241
f 247 241 253
f 248 237 249
f 249 237 238
f 249 238 245
f 245 238 239
f 250 235 251
f 251 235 248
f 248 235 236
f 248 236 237
f 231 232 244
f 244 232 252
f 252 232 233
f 252 233 250
f 250 233 234
f 250 234 235
f 253 241 242
f 253 242 229
f 253 229 243
f 243 229 230
f 243 230 231
f 254 253 243
f 254 243 255
f 255 243 244
f 255 244 256
f 256 244 252
f 256 252 257
f 257 252 250
f 257 250 258
f 258 250 251
f 258 251 248
f 258 248 259
f 259 248 249
f 259 249 260
f 260 249 245
f 260 245 246
f 260 246 247
f 260 247 261
f 261 247 253
f 261 253 254
f 260 262 263
f 260 263 259
f 259 263 264
f 259 264 258
f 256 274 255
f 255 274 265
f 261 266 267
f 261 267 260
f 260 267 268
f 260 268 262
f 255 265 269
f 255 269 270
f 255 270 254
f 254 270 261
f 261 270 266
f 258 271 257
f 257 271 272
f 257 272 273
f 257 273 256
f 256 273 274
f 258 264 275
f 258 275 276
f 258 276 277
f 258 277 271
f 13 270 3
f 3 270 269
f 3 269 4
f 4 269 265
f 4 265 274
f 4 274 16
f 16 274 1
f 1 274 273
f 1 273 5
f 5 273 6
f 6 273 272
f 6 272 7
f 7 272 271
f 7 271 2
f 2 271 277
f 2 277 276
f 2 276 17
f 17 276 275
f 17 275 18
f 18 275 19
f 19 275 264
f 19 264 20
f 20 264 263
f 20 263 262
f 20 262 24
f 24 262 9
f 9 262 268
f 9 268 10
f 10 268 267
f 10 267 11
f 11 267 21
f 21 267 266
f 21 266 26
f 26 266 13
f 13 266 270
f 278 127 400
f 127 125 400
f 125 124 279
f 279 122 280
f 122 120 280
f 120 119 281
f 282 112 388
f 283 110 284
f 285 108 286
f 287 106 288
f 289 104 290
f 291 102 292
f 102 101 293
f 101 99 378
f 99 98 294
f 98 96 294
f 96 95 295
f 95 93 295
f 297 206 207
f 298 220 206
f 299 215 220
f 299 216 215
f 303 203 213
f 303 212 203
f 310 201 309
f 310 204 201
f 312 205 311
f 313 219 205
f 318 210 317
f 318 218 210
f 320 223 319
f 222 223 321
f 228 222 322
f 322 222 321
f 322 321 323
f 327 72 69
f 223 320 321
f 321 320 328
f 321 328 323
f 323 328 329
f 323 329 324
f 324 329 325
f 325 327 326
f 326 327 69
f 327 325 72
f 330 71 72
f 329 330 325
f 325 330 72
f 218 318 319
f 319 318 320
f 329 331 330
f 330 331 71
f 332 130 71
f 318 333 320
f 320 333 334
f 320 334 328
f 328 334 335
f 328 335 329
f 329 335 332
f 329 332 331
f 331 332 71
f 332 335 74
f 332 74 130
f 318 317 333
f 334 337 335
f 335 337 336
f 335 336 74
f 336 337 75
f 336 75 74
f 338 77 76
f 317 316 339
f 317 339 333
f 333 339 340
f 333 340 334
f 334 340 341
f 334 341 337
f 337 341 338
f 337 338 76
f 337 76 75
f 338 341 77
f 342 79 77
f 315 314 343
f 315 343 316
f 316 343 339
f 340 342 341
f 341 342 77
f 342 340 79
f 344 80 79
f 313 345 314
f 314 345 343
f 343 346 339
f 339 346 344
f 339 344 340
f 340 344 79
f 344 346 80
f 349 82 80
f 205 312 313
f 313 312 345
f 345 347 343
f 343 347 348
f 343 348 346
f 346 348 349
f 346 349 80
f 349 83 82
f 350 84 83
f 312 311 351
f 312 351 345
f 345 351 347
f 348 350 349
f 349 350 83
f 352 353 84
f 348 352 350
f 350 352 84
f 204 310 311
f 311 310 351
f 351 354 347
f 347 354 355
f 347 355 348
f 348 355 353
f 348 353 352
f 356 357 85
f 355 356 353
f 353 356 85
f 310 358 351
f 351 358 354
f 355 357 356
f 355 87 86
f 357 355 86
f 361 88 87
f 309 359 310
f 310 359 358
f 358 360 354
f 354 360 361
f 354 361 355
f 355 361 87
f 361 89 88
f 309 308 359
f 362 90 89
f 308 307 359
f 359 363 358
f 358 363 360
f 360 362 361
f 361 362 89
f 364 365 90
f 307 306 359
f 360 364 362
f 362 364 90
f 306 305 366
f 306 366 359
f 359 366 363
f 363 367 360
f 360 367 365
f 360 365 364
f 368 369 91
f 305 304 366
f 367 368 365
f 365 368 91
f 366 370 363
f 363 370 367
f 367 369 368
f 371 70 92
f 212 303 304
f 304 303 366
f 367 371 369
f 369 371 92
f 303 373 366
f 366 373 370
f 370 374 367
f 367 374 372
f 367 372 371
f 371 372 70
f 296 172 375
f 375 172 372
f 374 375 372
f 373 376 370
f 370 376 374
f 374 296 375
f 213 302 303
f 303 302 373
f 374 295 296
f 296 295 93
f 302 377 373
f 373 377 376
f 376 378 374
f 374 378 295
f 378 294 295
f 295 294 96
f 300 301 302
f 302 301 377
f 377 379 376
f 376 379 378
f 294 378 99
f 216 299 300
f 300 299 301
f 301 380 377
f 377 380 379
f 379 293 378
f 378 293 101
f 379 292 293
f 293 292 102
f 299 381 301
f 301 381 380
f 380 382 379
f 379 382 291
f 379 291 292
f 382 290 291
f 291 290 104
f 220 298 299
f 299 298 381
f 381 383 380
f 380 383 382
f 382 289 290
f 382 288 289
f 289 288 106
f 298 384 381
f 381 384 383
f 383 385 382
f 382 385 287
f 382 287 288
f 385 286 287
f 287 286 108
f 206 297 298
f 298 297 384
f 384 386 383
f 383 386 385
f 385 285 286
f 385 284 285
f 285 284 110
f 297 387 384
f 384 387 386
f 386 388 385
f 385 388 283
f 385 283 284
f 283 388 112
f 387 389 386
f 386 389 282
f 386 282 388
f 387 281 389
f 282 389 114
f 119 117 281
f 391 281 387
f 390 387 297
f 390 297 207
f 281 117 116
f 281 116 389
f 389 116 114
f 392 391 387
f 392 387 390
f 209 390 207
f 280 120 281
f 280 281 391
f 392 390 393
f 393 390 224
f 224 390 209
f 394 391 392
f 208 393 224
f 279 280 396
f 396 280 391
f 396 391 394
f 398 394 392
f 398 392 395
f 395 392 393
f 396 394 398
f 226 395 393
f 400 125 279
f 400 279 397
f 397 279 396
f 227 398 395
f 227 395 226
f 401 397 396
f 401 396 398
f 400 397 401
f 402 401 398
f 402 398 399
f 399 398 227
f 399 227 225
f 69 129 278
f 402 399 228
f 326 69 278
f 326 278 325
f 325 278 400
f 325 400 324
f 324 400 401
f 324 401 323
f 323 401 402
f 323 402 322
f 322 402 228
f 67 65 404
f 404 65 66
f 404 66 405
f 406 405 64
f 406 64 407
f 408 407 63
f 408 63 409
f 410 409 62
f 410 62 411
f 412 411 413
f 411 61 413
f 413 61 414
f 414 60 415
f 415 60 416
f 416 59 417
f 417 59 418
f 418 58 419
f 419 58 420
f 420 57 421
f 421 57 422
f 422 56 423
f 423 56 424
f 424 55 425
f 425 55 426
f 426 54 427
f 427 54 428
f 428 53 429
f 429 53 430
f 430 51 431
f 431 51 133
f 51 168 133
f 433 432 50
f 433 50 49
f 433 49 434
f 434 49 435
f 435 49 48
f 435 48 436
f 436 48 437
f 437 48 46
f 437 46 438
f 438 46 466
f 466 46 45
f 466 45 439
f 439 45 440
f 440 45 43
f 440 43 441
f 441 43 442
f 442 43 42
f 442 42 443
f 443 42 444
f 444 42 40
f 444 40 445
f 445 40 446
f 446 40 39
f 446 39 447
f 447 39 448
f 448 39 37
f 448 37 449
f 449 37 450
f 450 37 36
f 450 36 451
f 451 36 452
f 452 36 34
f 452 34 453
f 453 34 454
f 454 34 33
f 454 33 455
f 455 33 456
f 456 33 31
f 456 31 457
f 457 31 458
f 458 31 30
f 458 30 459
f 459 30 460
f 460 30 28
f 460 28 461
f 461 28 462
f 462 28 463
f 403 463 135
f 403 135 67
f 403 464 463
f 463 464 462
f 432 433 465
f 432 465 133
f 133 465 431
f 439 440 466
f 434 467 433
f 431 465 468
f 431 468 430
f 430 468 429
f 429 469 428
f 428 469 427
f 427 470 426
f 426 470 425
f 425 471 424
f 424 471 423
f 423 472 422
f 422 472 421
f 421 473 420
f 420 473 419
f 419 474 418
f 418 474 417
f 417 475 416
f 416 475 415
f 415 476 414
f 414 476 477
f 414 477 413
f 413 477 412
f 412 477 478
f 412 478 411
f 411 478 410
f 410 479 409
f 409 479 408
f 408 480 407
f 407 480 406
f 406 481 405
f 405 481 482
f 405 482 404
f 404 482 483
f 404 483 67
f 67 483 484
f 67 484 403
f 403 484 464
f 484 485 464
f 467 486 433
f 433 486 487
f 433 487 465
f 485 488 464
f 464 488 489
f 464 489 462
f 462 489 490
f 462 490 461
f 461 490 491
f 461 491 460
f 460 491 492
f 460 492 459
f 459 492 493
f 459 493 458
f 458 493 494
f 458 494 457
f 457 494 456
f 456 494 495
f 456 495 455
f 455 495 496
f 455 496 454
f 454 496 497
f 454 497 453
f 453 497 498
f 453 498 452
f 452 498 499
f 452 499 451
f 451 499 500
f 451 500 450
f 450 500 501
f 450 501 449
f 449 501 502
f 449 502 448
f 448 502 503
f 448 503 447
f 447 503 504
f 447 504 446
f 446 504 505
f 446 505 445
f 445 505 506
f 445 506 444
f 444 506 507
f 444 507 443
f 443 507 508
f 443 508 442
f 442 508 509
f 442 509 441
f 441 509 510
f 441 510 440
f 440 510 511
f 440 511 466
f 466 511 7
f 466 7 438
f 438 7 512
f 438 512 437
f 437 512 513
f 437 513 436
f 436 513 514
f 436 514 435
f 435 514 515
f 435 515 434
f 434 515 516
f 434 516 467
f 467 516 486
f 487 517 465
f 465 517 518
f 465 518 468
f 468 518 519
f 468 519 429
f 429 519 520
f 429 520 469
f 469 520 427
f 427 520 521
f 427 521 470
f 470 521 522
f 470 522 425
f 425 522 523
f 425 523 471
f 471 523 524
f 471 524 423
f 423 524 525
f 423 525 472
f 472 525 526
f 472 526 421
f 421 526 527
f 421 527 473
f 473 527 528
f 473 528 419
f 419 528 529
f 419 529 474
f 474 529 530
f 474 530 417
f 417 530 531
f 417 531 475
f 475 531 532
f 475 532 415
f 415 532 533
f 415 533 476
f 476 533 534
f 476 534 477
f 477 534 535
f 477 535 536
f 477 536 478
f 478 536 537
f 478 537 410
f 410 537 538
f 410 538 479
f 479 538 408
f 408 538 539
f 408 539 480
f 480 539 540
f 480 540 406
f 406 540 541
f 406 541 481
f 481 541 542
f 481 542 482
f 482 542 543
f 482 543 483
f 483 543 544
f 483 544 484
f 484 544 485
f 544 12 485
f 485 12 15
f 485 15 488
f 488 15 14
f 488 14 489
f 489 14 490
f 490 14 3
f 490 3 491
f 491 3 492
f 492 3 22
f 492 22 493
f 493 22 494
f 500 499 23
f 500 23 501
f 501 23 502
f 502 23 1
f 502 1 503
f 503 1 504
f 504 1 5
f 504 5 505
f 505 5 506
f 506 5 507
f 508 507 6
f 508 6 509
f 509 6 510
f 512 7 2
f 512 2 513
f 513 2 514
f 514 2 8
f 514 8 515
f 515 8 516
f 516 8 17
f 516 17 486
f 486 17 487
f 487 17 517
f 517 17 18
f 517 18 518
f 518 18 19
f 518 19 519
f 528 527 25
f 528 25 529
f 529 25 530
f 530 25 9
f 530 9 531
f 531 9 532
f 532 9 10
f 532 10 533
f 533 10 534
f 534 10 535
f 536 535 21
f 536 21 537
f 537 21 538
f 541 540 26
f 541 26 542
f 542 26 543
f 544 543 12
f 545 546 547
f 547 546 548
f 547 548 549
f 549 548 550
f 549 550 551
f 551 550 552
f 551 552 553
f 553 552 554
f 553 554 555
f 555 554 556
f 555 556 557
f 557 556 558
f 557 558 559
f 559 558 560
f 559 560 561
f 561 560 562
f 561 562 563
f 563 562 564
f 563 564 565
f 565 564 566
f 565 566 567
f 567 566 568
f 567 568 569
f 569 568 570
f 569 570 571
f 571 570 572
f 571 572 573
f 573 572 574
f 573 574 575
f 575 574 576
f 575 576 577
f 577 576 578
f 577 578 579
f 579 578 580
f 579 580 581
f 581 580 582
f 581 582 583
f 583 582 584
f 583 584 585
f 585 584 586
f 585 586 587
f 587 586 588
f 587 588 589
f 589 588 590
f 589 590 591
f 591 590 592
f 591 592 593
f 593 592 594
f 593 594 595
f 595 594 596
f 595 596 597
f 597 596 598
f 597 598 599
f 599 598 600
f 599 600 545
f 545 600 546
f 572 570 601
f 578 576 601
f 601 576 574
f 601 574 572
f 584 582 601
f 601 582 580
f 601 580 578
f 590 588 601
f 601 588 586
f 601 586 584
f 596 594 601
f 601 594 592
f 601 592 590
f 546 600 601
f 601 600 598
f 601 598 596
f 552 550 601
f 601 550 548
f 601 548 546
f 558 556 601
f 601 556 554
f 601 554 552
f 564 562 601
f 601 562 560
f 601 560 558
f 570 568 601
f 601 568 566
f 601 566 564
f 573 575 602
f 567 569 602
f 602 569 571
f 602 571 573
f 561 563 602
f 602 563 565
f 602 565 567
f 555 557 602
f 602 557 559
f 602 559 561
f 549 551 602
f 602 551 553
f 602 553 555
f 599 545 602
f 602 545 547
f 602 547 549
f 593 595 602
f 602 595 597
f 602 597 599
f 587 589 602
f 602 589 591
f 602 591 593
f 581 583 602
f 602 583 585
f 602 585 587
f 575 577 602
f 602 577 579
f 602 579 581
