v 0.00245598074 -0.00673860701 0.00757668889
v 0.00370163066 -0.00659599217 0.00725378936
v -0.000522871526 -0.00188520635 0.0102967321
v 0.00740827935 -0.00857315103 0.00510210002
v 0.00486469838 -0.00591703149 0.00687274813
v 0.00576573279 -0.00966034469 0.00529127187
v 0.00675131696 -0.00906846563 0.00515717471
v 0.000954619437 -0.00658643588 0.00836367823
v -0.000755971534 -0.0043341255 0.00932577435
v -0.00312636478 -0.00816795866 0.00882739032
v 0.00565595317 -3.66903221e-05 0.00882234203
v -0.000636082718 -0.00220737497 0.010009112
v -0.00469325168 -0.00321314375 0.0110481402
v -0.00455079328 -0.00210815186 0.0113759648
v 0.00515746648 0.000485412826 0.00936188451
v 0.00629843285 -0.000780114564 0.00836521413
v 0.0068603615 -0.0017225145 0.00798995827
v 0.00371205578 0.000810688157 0.00972762029
v -2.25450012e-05 -0.000958360666 0.0104569735
v 0.00100833454 7.76382357e-05 0.0102272951
v 0.00202443023 0.000555609619 0.0102079919
v 0.0019702203 0.00452078257 0.0114127346
v 0.00693235221 -0.00322017336 0.0074734439
v 0.00576190924 -0.00530189957 0.00699131072
v 0.00719794021 -0.00939851914 0.00391117528
v 0.0064726051 -0.00832513819 0.000367634762
v 0.00455452826 -0.0100699308 0.00204200357
v 0.0056203026 -0.0103343048 0.0041286386
v 0.00391385501 -0.0109474812 0.004499038
v 0.00105091228 -0.0107905937 0.00302767729
v 0.00215736416 -0.0112105722 0.00500624402
v 0.000417876484 -0.0111132393 0.00562998206
v -0.00231167538 -0.0100978873 0.00443437498
v -0.00122807963 -0.0106586341 0.00634370676
v -0.00270938612 -0.00986709431 0.0071164506
v -0.00364973261 -0.00917067395 0.00730622636
v -0.0050926951 -0.00712352783 0.008856386
v -0.00661693965 -0.0057509808 0.00621333128
v -0.00710419742 -0.00410568196 0.00693697005
v -0.0060052864 -0.0032339119 0.0103457346
v -0.00577759337 -0.00148790339 0.0108567644
v -0.00497008298 0.000480183946 0.0114161809
v -0.005218721 0.000209466776 0.0112150626
v -0.00383351144 0.00199428718 0.0118486803
v -0.00519730789 0.0025453154 0.00951852307
v -0.00358601842 0.00275550737 0.0114955395
v -0.00228314182 0.0038272727 0.0116444029
v -0.00109447901 0.00600311618 0.00943753986
v -0.000745690518 0.00484169448 0.0114646231
v 0.000936499931 0.00554085012 0.0111283555
v 0.00240853902 0.00687654331 0.00857828984
v 0.00268880942 0.00589421184 0.0106500437
v 0.00443667768 0.00588795537 0.0100512708
v 0.00583394533 0.00634381931 0.00725855247
v 0.00611169385 0.00552255235 0.00935464005
v 0.0076402719 0.00481275375 0.00859133817
v 0.00842668091 0.00435039145 0.00782326338
v 0.0101716631 0.00221322281 0.00683706585
v 0.00971470304 0.00286706633 0.00358526511
v 0.0102853488 0.00125796688 0.00284160929
v 0.0112058864 -0.00153175365 0.0050672697
v 0.011062713 -0.00327109961 0.00451557965
v 0.0105722852 -0.00498590012 0.00409221076
v 0.00955999734 -0.00695547002 0.00393737406
v 0.0097084235 -0.00663857173 0.00375524547
v 0.00900924056 -0.0077928169 0.0041487148
v 0.00340914061 -0.00532346318 -0.00851774612
v -0.00829242819 -0.00503034141 -0.00181401014
v -0.00981192969 0.00656763097 -0.00398422209
v -0.00988326039 0.00497318436 -0.00195455601
v -0.00917758643 0.00748572693 -0.00388765057
v -0.00839734466 0.00836109116 -0.00385468795
v -0.00732022138 0.00733399739 0.000261607134
v 0.00640942441 0.00698832171 -0.00272884252
v 0.00475629771 -0.000887070103 -0.0114834005
v 0.00618697924 -0.000672284712 -0.00936004446
v 0.00411314361 -0.00190930839 -0.0116134381
v 0.00533592977 -0.00348377683 -0.00841012283
v 0.00509779759 8.86481714e-06 -0.0114673368
v 0.00600546441 0.00243342288 -0.0104954021
v 0.00586831818 0.00253724516 -0.0106960195
v 0.00604543893 0.00415407197 -0.00990156024
v 0.00589189933 0.00429305563 -0.0101062763
v 0.00573792057 0.00581149987 -0.00921271343
v 0.00555486902 0.00597725017 -0.00941771581
v 0.00509729711 0.00733526536 -0.00845791436
v 0.00487065666 0.00752190276 -0.00865896387
v 0.00365539439 0.00913235082 -0.00745603828
v 0.00466273375 0.00854397863 -0.00387952072
v 0.00259732733 0.00992496307 -0.0070972566
v 0.00233988538 0.010116918 -0.0066736911
v 0.00325088221 0.00947385279 -0.00310151808
v 0.000815685977 0.0107999447 -0.00592253922
v 0.00165264733 0.0100864378 -0.00236119029
v -0.000845202882 0.0111457913 -0.0052398522
v -6.69293021e-05 0.01035637 -0.00169493738
v -0.00231287401 0.0111962336 -0.00498756809
v -0.00257820634 0.0111416832 -0.00465232046
v -0.00184195167 0.0102729457 -0.00112675352
v -0.00407450351 0.0109007282 -0.00448418258
v -0.00431193979 0.010787567 -0.00418522848
v -0.00360039943 0.00983746528 -0.000675596233
v -0.0057678833 0.0102074431 -0.00390997135
v -0.00527412256 0.00906894754 -0.000367262799
v -0.00682651169 0.00965835987 -0.00395970883
v -0.00674043281 0.00868942698 -0.00158291852
v -0.0102887782 0.00578556267 -0.00426032389
v -0.0110465992 0.00347804353 -0.00461362078
v -0.0104554823 0.00151126951 -0.00167058875
v -0.0111889465 0.00139238837 -0.0049784487
v -0.0112062322 0.00142946854 -0.00525886381
v -0.0109571352 -0.000295138377 -0.00561287665
v -0.0109584397 -0.000280594229 -0.0059256535
v -0.0103870592 -0.00187047074 -0.00632422866
v -0.0103591358 -0.00186632538 -0.00666980889
v -0.00909997849 -0.0036895511 -0.00747795006
v -0.00785308054 -0.00539298028 -0.00435894339
v -0.0078434605 -0.00474431496 -0.00826584171
v -0.00650661304 -0.00638636856 -0.00517653025
v -0.00636721893 -0.00550583048 -0.00902861436
v -0.00495907662 -0.00707269017 -0.00595033598
v -0.00473418908 -0.00593743283 -0.00973323399
v -0.00326857656 -0.00742428136 -0.00665588254
v -0.00342921663 -0.00591245775 -0.0104341304
v -0.00301038871 -0.00602123082 -0.0103487775
v -0.00150548728 -0.00742426992 -0.00726609605
v -0.00166073969 -0.00570913461 -0.0109633808
v -0.00127181726 -0.00575235137 -0.010851326
v 0.000262596061 -0.00707494167 -0.00775083404
v 0.000415877861 -0.00514212984 -0.0112197929
v 0.00196518213 -0.00638608 -0.00809749144
v 0.00167184437 -0.00426500129 -0.0115939278
v 0.00258852856 -0.00517962019 -0.0094824413
v 0.00678733177 -0.0022128289 -0.00727890083
v -0.00889617381 0.00495510331 0.000502381171
v 0.00717170454 -0.00384117827 -0.00515560253
v -0.00745306594 0.00678982695 0.000744762066
v -0.00768818217 0.00501368414 0.00291964124
v -0.0066191407 0.00461209698 0.0052074214
v -0.00607056329 0.00341651239 0.00744464973
v 0.00982892347 0.00276852668 0.00721607215
v -0.00474050943 -0.00774217686 0.00859801692
v 0.00309621411 -0.00308842917 -0.0116699744
v 0.00459493097 -0.00417337064 -0.00864711095
v 0.00566746609 -0.0056674246 -0.00522869622
v 0.00740924492 -0.00539615012 -0.00295769151
v 0.00779433407 -0.0064638507 -0.000708272458
v 0.0086311768 -0.00796717573 0.00347232327
v 0.00780555136 0.00129473335 -0.0064288707
v 0.00853694253 -0.000384775778 -0.00444303046
v 0.00909919591 -0.00205744756 -0.00239524875
v 0.00929114413 -0.00486870461 0.000432414349
v 0.00997928874 -0.00316710524 0.000778843377
v 0.00741395639 0.00478215445 -0.00510919549
v 0.00850026939 0.00319342319 -0.00321162303
v 0.0094212332 0.0015430667 -0.001276417
v 0.0103272357 -0.00139786295 0.00125907251
v 0.010322483 0.000369818969 0.00185561697
v 0.00770742732 0.00559400587 -0.000720152112
v 0.00869328327 0.00407195107 -0.000201430362
v 0.00989927666 0.00262381991 0.00708431208
v 0.00386907475 0.00885977705 -0.00786226785
v 0.00915517228 0.00357367953 0.00766116584
v 0.0079677214 0.00531761101 0.00422702092
v 0.00598044256 0.00731715222 0.00186057374
v 0.00520419997 0.00809370937 -0.000422185518
v 0.00518915438 0.00726585916 0.00492340466
v 0.00275942888 0.00858249002 0.00339115298
v 0.0019830279 0.00936033497 0.00110554775
v 0.00174375077 0.00783336149 0.00628892962
v -0.000834615462 0.00843961945 0.00456622275
v -0.00161071544 0.0092182722 0.0022805058
v -0.00179294793 0.00698873829 0.00720262333
v -0.00305063854 0.00275744385 0.0119857159
v -0.00382039785 0.00484684585 0.00872712027
v -0.00458465695 0.00591736177 0.00632292358
v -0.00479268041 0.00759373859 0.00340450194
v -0.00552745241 0.0083183892 0.00110910436
v -0.00963389758 0.00152733425 0.00105074364
v -0.00869822733 0.00166777321 0.00352851755
v -0.00780792385 0.00258754291 0.0049147191
v -0.00693282632 0.000697207231 0.00785294568
v -0.00986940554 -0.0020370138 -0.00154736374
v -0.00936082287 -0.00198121803 0.0011054167
v -0.00868264029 -0.00187494588 0.00372344239
v -0.0073700153 -0.00105995551 0.00739827941
v -0.00745675807 -0.00283200808 0.0068205009
v -0.00793780267 -0.00523036559 0.000922019593
v -0.00810427336 -0.00443126966 0.00262277465
v -0.00483046157 -0.00756726305 0.00862986052
v -0.00943325145 -0.00326178114 -0.00746029412
v -0.00542392977 -0.00785473175 0.00431037505
v -0.00555306113 -0.00784483891 0.000626612004
v -0.00633284539 -0.00706546345 -0.001657785
v -0.00325539595 -0.00942821142 0.0021136707
v -0.00241598392 -0.00927736982 -0.000929812843
v -0.00319477816 -0.00849972083 -0.00321190535
v 0.000140325677 -0.0101707176 0.000705139221
v 0.00116114647 -0.00931417665 -0.00216061017
v 0.000382452066 -0.00853636363 -0.0044448844
v 0.0036953609 -0.00949838938 -0.00027783756
v 0.00710048096 -0.00840256254 0.00155812705
v 0.00573551616 -0.00773034752 -0.00183580048
v 0.00394365992 -0.00740185012 -0.00467856224
v 0.00313737632 -0.00658124785 -0.00691553195
v -0.000429969856 0.000430011352 -0.0102513412
v 0.000163033089 0.00115688756 -0.0104366012
v 0.000480371932 0.00184983535 -0.0102595481
v 0.000868640994 0.00313175738 -0.0100041236
v 0.00487607818 0.00272122321 -0.0112562507
v 0.000766081744 0.00408585311 -0.00949945069
v 0.00469409171 0.00548598001 -0.0102576401
v -0.00184408744 0.00667885169 -0.00785893944
v -0.00659154041 0.00202646216 -0.00760954416
v -0.000984637541 0.00634017286 -0.00817585459
v -0.00292358697 0.00677424437 -0.00747308071
v -0.00365872097 0.00655775802 -0.00724704764
v -0.00406328648 0.00647210546 -0.00717329232
v -0.00643628837 0.00398441879 -0.0071215687
v -0.00672932735 0.00300075396 -0.00744773725
v -0.010522819 0.00151063283 -0.00644650269
v -0.000412755821 0.00610542015 -0.00853848426
v 0.00333051994 0.00824042369 -0.00885512138
v -0.00573933688 0.00524656975 -0.00696555141
v -0.00669572383 0.0091166525 -0.00515971399
v -0.00651889836 0.00119824019 -0.00814751888
v -0.00611795154 0.000617543266 -0.00843229312
v -0.00591198934 0.000292956327 -0.00864767837
v -0.00763364469 -0.00354285304 -0.00915127147
v -0.00438181501 -0.000689491588 -0.00937284392
v -0.00190109783 -0.000588077147 -0.010097094
v -0.000899612736 -0.00439448426 -0.0117171224
v -0.000506740639 -0.00402972738 -0.0117438415
v 0.00184327897 -0.00252746274 -0.012032551
v 0.000515868549 -0.00351068585 -0.0119153427
v -0.00797128676 0.0080761017 -0.00507960828
v -0.00409338842 -0.00489827958 -0.0108011088
v 0.000569589257 -0.00162171108 -0.00574084622
v -0.00177807634 -0.00238592939 -0.00520160584
v -0.00365535892 -0.00179764215 -0.0043619847
v -0.00468719427 -0.000682804024 -0.00363100712
v -0.00514217516 0.00118297558 -0.00284078552
v -0.00461576564 0.00285460909 -0.00245076215
v -0.00366775967 0.00411945175 -0.00234284323
v -0.00176342735 0.00503249527 -0.0026804808
v 0.00171957274 0.00376803105 -0.00429699293
v 0.00230489634 0.00234375449 -0.00498136875
v 0.0021220425 0.000366865652 -0.00559230782
v -0.00294566108 0.00306693624 -0.00294721445
v -0.00151291627 0.00374768433 -0.00320327508
v -0.000943548278 0.00472269084 -0.00306510974
v -0.00377305583 0.000708424989 -0.00346854514
v -0.0036438523 0.00187602003 -0.00311499631
v -0.0012483412 -0.000986516686 -0.00490545919
v -0.00211523158 -0.000946617523 -0.00459676778
v -0.00297973524 -0.000562181597 -0.00417136709
v 0.000904403122 0.000795311338 -0.00503174129
v -6.91512628e-05 -0.000479197642 -0.00513424833
v -0.000393317047 0.0043730038 -0.00337158805
v 0.000897390983 0.0023605849 -0.00449639665
v 0.00278544015 -0.00316685215 0.00296774187
v 0.00102309395 -0.00385429805 0.0033337603
v -0.000745961832 -0.00277122727 0.00430499828
v -0.000893185868 -0.000642774595 0.00507988131
v 0.00079530389 0.000904410571 0.00503173932
v 0.00236058167 0.000897394215 0.00449640706
v 0.00350729342 9.81686988e-06 0.00380363584
v 0.00374768173 -0.00151291368 0.00320328735
v 0.00337662118 -0.00246152918 0.00300663913
v 0.00168969052 -0.00502750913 0.0027073046
v 0.00351580587 -0.00430443049 0.00233162328
v -0.00210092647 -0.00302276651 0.00468069518
v -0.00156756951 -0.00396173239 0.00417929631
v -0.000611883232 -0.00470254461 0.00360161269
v 0.000107902458 -0.0049808983 0.00326174701
v 0.000887292793 -0.00509092847 0.0029588362
v -0.00106266943 0.00117051629 0.00575499279
v -0.00185452087 9.33643186e-05 0.00565797293
v -0.00227118315 -0.000997784632 0.0054282407
v -0.00229631049 -0.00226876775 0.00500399077
v 0.00238205708 0.00233477009 0.00497854771
v 0.000347203125 0.00207802244 0.00558406414
v 0.00492822516 -0.00216241483 0.00258012498
v 0.00508601693 -0.00055816588 0.00307261156
v 0.00437526734 0.00120269008 0.00391420484
v 0.00235473896 -0.00364981103 -0.011767821
v 0.00032616413 -0.00494753812 -0.0115488561
v -0.00435422046 -0.00576601068 -0.0103036741
v -0.00520523456 -0.00568565524 -0.00990798264
v -0.00602887256 -0.00543091337 -0.00961929357
v -0.00682340214 -0.00516993552 -0.00918196245
v -0.00756333453 -0.004751182 -0.00886529481
v -0.00826668262 -0.00432122914 -0.00840149981
v -0.00809001033 0.00871086853 -0.00399779146
v -0.00694854752 0.00964724844 -0.00431778786
v -0.00501815051 0.0106690186 -0.00459637638
v -0.00060660395 0.0111467723 -0.00574233627
v 0.000190156868 0.0109782453 -0.00614934957
v 0.00104496747 0.010718705 -0.00645094243
v 0.00176598447 0.0103825565 -0.00688880479
v 0.00274978102 0.00978890855 -0.00743106242
v -0.0020926945 -0.00472296209 -0.0114229093
v -0.00286555591 -0.00482284484 -0.0111997101
v -0.00526632867 -0.00473340334 -0.0103457807
v -0.00601797601 -0.00453165534 -0.01002109
v -0.00708983809 -0.00414804592 -0.0095103895
v -0.00896786219 -0.00276289038 -0.00839997916
v -0.0104897423 -8.34591211e-05 -0.00696934825
v -0.0107414628 0.00309506402 -0.00580138728
v -0.0101291093 0.00508010482 -0.00535141637
v -0.00961422543 0.00622617221 -0.00512976869
v -0.00209918216 0.0108059536 -0.00611855111
v 0.000592576731 0.010250295 -0.00723662892
v 0.00226365396 0.00928789117 -0.00813184815
v 0.00396996335 0.00728593261 -0.00939810176
v 0.00430797278 0.00658004763 -0.00975682908
v 0.00499691502 0.00514790757 -0.0104142069
v 0.0049143242 0.00187618886 -0.011500151
v -0.00985895294 0.00627030105 -0.00492917827
v 0.003651278 -0.000795131988 -0.0120270932
v 0.00235058682 -0.00235054533 -0.0121125559
v 0.00337866811 -0.00160147722 -0.0121174881
v 0.00328747426 -0.00206633984 -0.0120918653
v 0.00315722645 -0.00253486833 -0.0120026906
v 0.00298466103 -0.00298461954 -0.0118556598
v -0.00785456283 0.00845518072 -0.00495785272
v -0.00826673605 0.00819521064 -0.00488248695
v -0.00866831586 0.00808148179 -0.0045650725
v -0.00807330084 0.00879252421 -0.00421016437
v -0.00173531158 -0.00559601823 -0.0111375431
v 0.00491109546 0.000978344316 -0.011671899
v 0.0047969206 5.78336604e-05 -0.0117605888
v 0.00390925679 -0.00182779778 -0.0118721351
v 0.00463868993 -0.000790691773 -0.0116717199
v 0.005417361 0.000856462545 -0.0112873226
v 0.00534206889 0.00434081227 -0.0106737807
v 0.00544488918 0.00230262268 -0.0112265521
v 0.00559594052 0.00173535307 -0.0111375431
v 0.00574256795 0.00261023005 -0.0108895878
v 0.00571011803 0.00383628297 -0.0106160685
v 0.00576605218 0.00435414275 -0.0103036741
v 0.00405026502 0.00779393351 -0.009146683
v 0.00464882722 0.00717883004 -0.00941303606
v 0.00549018412 0.00553157242 -0.0099641756
v 0.00543083566 0.00602879485 -0.00961929357
v 0.00492207152 0.00710980429 -0.00923282544
v 0.0047512235 0.00756337603 -0.00886529481
v 0.00178239994 0.00996728989 -0.00763458784
v 0.00258895574 0.00964928623 -0.00787021323
v 0.0033640495 0.00919664207 -0.00809083704
v 0.00433438857 0.00825560033 -0.00839940018
v 0.00375582593 0.00889279803 -0.00807362592
v -0.00126601569 0.010955286 -0.00626012182
v -0.000379466023 0.0109803673 -0.00640624864
v 0.000525183152 0.0108679862 -0.00655496461
v -0.0045705858 0.0105942501 -0.00525749483
v -0.00356119845 0.0110347496 -0.00521471021
v -0.00258730504 0.0111858586 -0.00537487485
v -0.00161514326 0.01122265 -0.0055717718
v -0.00583723351 0.0102854691 -0.00457855928
v -0.00592938975 0.0100890726 -0.00490775189
v -0.00570134754 0.00994016216 -0.00518613724
v -0.00735400302 0.00924208125 -0.00461154973
v -0.00684825014 0.00939011328 -0.00494192207
v -0.0087332545 0.00808193644 -0.00409692323
v -0.0103861295 0.00549496376 -0.00486683098
v -0.00952106635 0.0071280516 -0.0043087691
v -0.00983832462 0.00661601981 -0.00421982801
v -0.0109316044 0.00303479129 -0.00566578276
v -0.0104443145 0.00545405711 -0.00465060341
v -0.0106493772 0.00495260283 -0.00442202234
v -0.0111393817 0.00212328393 -0.0057584039
v -0.0111810685 0.00291285057 -0.00527804458
v -0.0109200297 0.00412931403 -0.00469821489
v -0.0111108838 0.00325837096 -0.00492983854
v -0.0106567335 -0.000226008666 -0.00686977686
v -0.0112126885 0.00238170584 -0.00519364869
v -0.0112244902 0.001508617 -0.00548702275
v -0.0105033281 -0.00112874976 -0.00708227805
v -0.0110948066 0.000400583205 -0.0060638319
v -0.0109782038 -0.000190115372 -0.00614934957
v -0.00908064943 -0.00296665993 -0.00833976742
v -0.0106118557 -0.00121381941 -0.00677766975
v -0.0103826342 -0.00176606218 -0.00688880479
v -0.0085846979 -0.00371629092 -0.00861657165
v -0.00922577815 -0.00333275689 -0.00807068075
v -0.00995686727 -0.00253309546 -0.00720667568
v -0.00946269614 -0.00315234701 -0.00767415559
v -0.00646658168 -0.0047291192 -0.00983007366
v -0.00889275653 -0.00375578443 -0.00807362592
v -0.00570460522 -0.00520613475 -0.0101047632
v -0.00649248712 -0.00515839043 -0.00962258997
v -0.00325315304 -0.00521783039 -0.0110906833
v -0.0025871734 -0.00544895571 -0.011183303
v -0.00398798082 -0.00563005818 -0.0106234323
v -0.00288995884 -0.00572175346 -0.0108832552
v -0.000187985154 -0.00499504455 -0.0116423033
v -0.000353139857 -0.00467415872 -0.0118041366
v -5.48704471e-05 -0.00423924841 -0.0118963589
v 0.00180926667 -0.00387308053 -0.0119048546
v 0.00162875929 -0.00373622166 -0.0120206832
v 0.00140288215 -0.00360312808 -0.012076437
v 0.00113346043 -0.00348502946 -0.0120640686
v 0.00816694047 -0.00867860918 0.00433777412
v 0.00957922612 -0.00703421014 0.00428417196
v 0.0102946029 -0.00584721119 0.00439455812
v 0.0104469352 -0.00547733465 0.00452706718
v 0.0107674865 -0.00465184802 0.00469309072
v 0.0110219244 -0.00378589034 0.00482135174
v 0.011160783 -0.00292176656 0.00514808742
v 0.0112415925 -0.00203888601 0.00534095107
v 0.0111982503 -0.00118398807 0.00572726795
v 0.0111031124 -0.000320903308 0.00597219236
v 0.0109010471 0.000503629341 0.00632150157
v 0.0106132277 0.00129349374 0.00668834492
v 0.0102149341 0.00202111274 0.0071536549
v 0.00921661613 0.00338069746 0.00794937518
v 0.00860644098 0.00395745795 0.00835831864
v 0.00794545887 0.00445566203 0.00875254986
v 0.00722903358 0.00487724594 0.00914045784
v 0.0064650923 0.00521807381 0.00951673941
v 0.00566184754 0.00547465766 0.00987745015
v 0.00482743461 0.00564378655 0.0102194907
v 0.00397122152 0.00572422366 0.0105383493
v 0.00310190544 0.00571487321 0.0108310372
v 0.00222946664 0.00561575357 0.0110944186
v 0.00136151515 0.00542786791 0.0113260252
v 0.000509103804 0.00515347261 0.0115228887
v -0.000320214002 0.00479496994 0.0116834049
v -0.00111679918 0.0043568169 0.0118053706
v -0.00173527567 0.00370663598 0.0120357512
v -0.00243424861 0.00313139688 0.0120779438
v -0.00435657896 0.00124141366 0.0117704411
v -0.00460856824 0.000272425476 0.0118445993
v -0.0049153213 -0.000452052372 0.0117142352
v -0.0054583336 -0.00123428527 0.0113024931
v -0.00540429155 -0.00207039704 0.0113203023
v -0.00576717267 -0.00297715878 0.0108136953
v -0.00555913044 -0.00379114877 0.0107872983
v -0.00571870546 -0.00470814837 0.0102070508
v -0.00556079005 -0.0055469116 0.0098669748
v -0.00531556943 -0.00635540866 0.00950800785
v -0.00491428513 -0.00715162116 0.00918205549
v -0.00406107358 -0.00858606824 0.00821864283
v -0.0035778896 -0.00895355807 0.00823655168
v -0.00266519365 -0.00968405791 0.00779255452
v -0.00198507866 -0.0101402781 0.0074056367
v -0.00125299748 -0.0105193121 0.00702724782
v -0.000479096081 -0.0108162155 0.00666247481
v 0.000330040249 -0.0110282761 0.00631477501
v 0.00116592446 -0.0111533121 0.00598768423
v 0.00201905867 -0.0111900599 0.00568467054
v 0.00287971129 -0.0111380046 0.00540929756
v 0.00374099498 -0.0109976409 0.00516383498
v 0.00459120075 -0.0107709543 0.00495149664
v 0.00542385748 -0.0104593931 0.00477411233
v 0.00622888222 -0.0100667736 0.00463353299
v 0.00699639469 -0.00959797241 0.00453187324
v 0.00774539707 -0.00901923705 0.00404359111
v -0.00430725866 -0.00770484927 0.00913225149
v 0.00966840683 0.00262829128 0.00777606787
v -0.00304438986 -0.0090886175 0.00829558476
v -0.00481089442 -0.00644930434 0.00979551351
v -0.00505808003 -0.00567637464 0.010143131
v -0.00522194347 -0.00487302364 0.0104724585
v -0.00529172883 -0.00321154614 0.0110621221
v -0.00501699665 -0.00153357201 0.0115397335
v -0.0039870718 0.000855131263 0.0120025155
v -0.0034932903 0.00158266218 0.0120822308
v -0.000905652946 0.00395602958 0.0120090953
v -0.000140535304 0.00438223488 0.0118938455
v 0.000656156738 0.00473180134 0.0117416283
v 0.00147739204 0.00500175353 0.0115536661
v 0.00231244746 0.00518769316 0.0113326859
v 0.00315283701 0.00528808605 0.0110807858
v 0.00399140015 0.0053024291 0.0108001011
v 0.00481619746 0.00523003629 0.0104946686
v 0.00562249735 0.00507212617 0.010166119
v 0.00639824823 0.00482993219 0.00981952393
v 0.00713575964 0.00450631993 0.00945836998
v 0.00783049566 0.00410396092 0.00908450317
v 0.00846965185 0.00362899367 0.00870535693
v 0.00905156692 0.00308395798 0.00832147019
v 0.0100111934 0.0018124192 0.00756170295
v 0.0103793607 0.00109931782 0.00719364543
v 0.0106689036 0.00034289277 0.00683715435
v 0.0108747314 -0.000445971067 0.00649844888
v 0.010995868 -0.00126125811 0.00617973204
v 0.0110307892 -0.00209350791 0.00588448287
v 0.0109793528 -0.00293429508 0.00561551426
v 0.0108416443 -0.00377319128 0.00537686403
v 0.0106192548 -0.00460318709 0.00517011571
v 0.0103147451 -0.0054148336 0.00499734122
v 0.00993145092 -0.00619940534 0.00486047883
v 0.00947301272 -0.00694840362 0.00476144605
v 0.00894446155 -0.00765378106 0.00470147275
v 0.00835175518 -0.00830839723 0.00468042176
v 0.00765170872 -0.00875605122 0.00489243652
v -0.00336831774 -0.00843771198 0.00875319854
v -0.0038402749 -0.00782022325 0.00912434021
v -0.0027836744 0.00206432762 0.0121304167
v 0.00940712257 0.00234176714 0.00807353535
v 0.00685729401 -0.00924406091 0.0050287863
v 0.00613870042 -0.00968704263 0.00512260402
v 0.00538577454 -0.0100582604 0.00525266135
v 0.00460650342 -0.0103535418 0.00541740859
v 0.00380923169 -0.0105699066 0.0056151768
v 0.00300242322 -0.0107049708 0.00584393943
v 0.00235517076 -0.010705497 0.00608219643
v 0.00160309035 -0.010685285 0.00634831925
v 0.000775390071 -0.010593119 0.00665846536
v 6.19789349e-05 -0.0104189435 0.00696375901
v -0.000714698663 -0.0101550971 0.00731509401
v -0.00205099086 -0.00941034702 0.00802378529
v -0.00279102905 -0.00887296239 0.00844067538
v -0.00407277798 -0.00704893315 0.00951985784
v -0.0044005993 -0.00638273863 0.00985232341
v -0.00462694192 -0.00565989629 0.0101787463
v -0.00485554678 -0.00451094759 0.0106465255
v -0.00493035896 -0.00321314375 0.0110964199
v -0.00483642204 -0.00240478555 0.0113397261
v -0.00466046912 -0.00160167257 0.0115533491
v -0.00440428836 -0.000812387863 0.0117347857
v -0.00407062156 -4.52760851e-05 0.011882486
v -0.003663045 0.000691556534 0.0119945427
v -0.003185731 0.00139012297 0.012069883
v -0.00206905918 0.00254808308 0.0120994801
v -0.00110334777 0.00333243419 0.0120396598
v -5.69142217e-06 0.00398553465 0.011886419
v 0.00081231015 0.00440432986 0.0117347857
v 0.00160159486 0.00466051062 0.0115533491
v 0.00225994639 0.0047515115 0.0113781692
v 0.00302222335 0.00484707983 0.0111542521
v 0.00401832478 0.0049412485 0.0108259341
v 0.00481166261 0.00486888846 0.0105311295
v 0.00543161273 0.00469173975 0.0102778178
v 0.00613079557 0.00447855121 0.00997020915
v 0.0077027263 0.0037760969 0.00917464698
v 0.00831653493 0.00331654509 0.00880903209
v 0.00887300389 0.00279107054 0.00844067538
v 0.00979091542 0.001565003 0.00771063769
v 0.0100377691 0.000979265997 0.00744514094
v 0.0103264144 0.000260942391 0.00710224226
v 0.0106636564 -0.00126427631 0.0064679991
v 0.0107012487 -0.00201023435 0.00620420072
v 0.010672953 -0.00285695949 0.00592242658
v 0.0103547871 -0.00445150255 0.00548775742
v 0.0100855014 -0.00518608549 0.00533246509
v 0.00968708413 -0.00613865892 0.00512260402
v 0.00924410241 -0.00685737173 0.0050287863
v 0.00879752068 -0.00738693918 0.00501855809
v 0.00816180127 -0.00816187898 0.00495308841
v -0.00287936313 0.00287940462 -0.0119128803
v 0.00448359864 -0.00503263513 0.0106334111
v -0.00318644626 0.00263740977 -0.0118907074
v 0.00413228886 -0.00519297163 0.0106984993
v -0.00353775603 0.00247707327 -0.0118257383
v 0.00376071351 -0.00526080171 0.0108018538
v -0.00390933139 0.00240924319 -0.0117222646
v 0.00339426415 -0.00523135702 0.0109366795
v -0.00427578075 0.00243868788 -0.0115875581
v 0.00305785554 -0.00510690252 0.0110936781
v -0.00461218936 0.00256314238 -0.0114305595
v 0.00277437585 -0.00489566366 0.0112621208
v -0.00489566905 0.00277438124 -0.0112621168
v 0.00256313699 -0.00461218397 0.0114305636
v -0.00510690791 0.00305786093 -0.0110936741
v 0.00243868249 -0.00427577535 0.0115875622
v -0.00523136241 0.00339426955 -0.0109366754
v 0.002409357 -0.003909326 0.0117222687
v -0.00526080711 0.0037607189 -0.0108018497
v 0.00247706788 -0.00353775064 0.0118257424
v -0.00519297702 0.00413229426 -0.0106984953
v 0.00263740437 -0.00318644086 0.0118907114
v -0.00503264053 0.00448360403 -0.010633407
v 0.00287939923 -0.00287935773 0.0119128844
v -0.00479064567 0.00479068716 -0.0106112341
v 0.00318648236 -0.00263748209 0.0118907114
v -0.00448356254 0.00503256281 -0.010633407
v 0.00353779214 -0.00247714559 0.0118257424
v -0.00413225276 0.00519289931 -0.0106984953
v 0.00390924828 -0.00240931551 0.0117222687
v -0.00376079662 0.00526072939 -0.0108018497
v 0.00427581685 -0.00243864099 0.0115875622
v -0.00339422805 0.00523140391 -0.0109366754
v 0.00461222546 -0.0025632147 0.0114305636
v -0.00305781944 0.0051068302 -0.0110936741
v 0.00489570515 -0.00277433435 0.0112621208
v -0.00277433974 0.00489571055 -0.0112621168
v 0.00510682481 -0.00305781404 0.0110936781
v -0.00256322009 0.00461223086 -0.0114305595
v 0.00523139851 -0.00339422266 0.0109366795
v -0.00243864639 0.00427582224 -0.0115875581
v 0.005260724 -0.00376079122 0.0108018538
v -0.0024093209 0.00390925368 -0.0117222646
v 0.00519289391 -0.00413224737 0.0106984993
v -0.00247715099 0.00353779753 -0.0118257383
v 0.00503255742 -0.00448355714 0.0106334111
v -0.00263748748 0.00318648775 -0.0118907074
v 0.00479068177 -0.00479064027 0.0106112381
v 0.0038349809 -0.00383505861 0.0112621208
v -0.003835064 0.00383498629 -0.0112621168
f 2 6 5
f 5 6 7
f 5 7 4
f 1 510 509
f 8 512 1
f 1 512 511
f 1 511 510
f 8 513 512
f 9 10 8
f 8 10 514
f 9 516 10
f 9 519 518
f 9 518 517
f 9 517 516
f 12 14 9
f 9 14 13
f 9 13 519
f 12 3 14
f 537 536 15
f 15 536 18
f 16 17 542
f 19 20 527
f 20 528 527
f 20 21 529
f 20 529 528
f 533 532 18
f 18 532 22
f 18 22 21
f 17 543 542
f 23 545 17
f 17 545 544
f 23 546 545
f 24 548 23
f 23 548 547
f 4 551 5
f 5 551 24
f 76 79 335
f 76 335 80
f 80 81 82
f 82 83 84
f 84 85 86
f 86 87 351
f 70 107 371
f 70 371 108
f 109 108 110
f 110 111 112
f 112 113 114
f 114 115 387
f 75 79 76
f 69 107 70
f 77 75 76
f 71 69 70
f 78 77 76
f 78 76 134
f 73 71 70
f 73 70 135
f 143 77 144
f 144 77 78
f 78 134 136
f 72 71 73
f 137 73 135
f 137 135 138
f 144 78 145
f 145 78 136
f 145 136 146
f 76 80 149
f 76 149 134
f 134 149 150
f 134 150 136
f 136 150 151
f 136 151 146
f 146 151 152
f 146 152 147
f 147 152 65
f 147 65 148
f 148 65 64
f 148 64 66
f 80 82 149
f 151 153 152
f 152 153 63
f 152 63 406
f 152 406 65
f 82 84 154
f 82 154 149
f 149 154 155
f 149 155 150
f 150 155 156
f 150 156 151
f 151 156 157
f 151 157 153
f 153 157 62
f 153 62 409
f 153 409 63
f 84 86 154
f 156 158 157
f 157 158 61
f 157 61 411
f 157 411 62
f 351 74 86
f 86 74 159
f 86 159 154
f 154 159 160
f 154 160 155
f 155 160 156
f 156 160 60
f 156 60 158
f 158 60 413
f 158 413 61
f 60 414 413
f 160 159 59
f 160 59 60
f 60 59 415
f 60 415 414
f 59 58 415
f 74 164 159
f 159 164 141
f 159 141 59
f 59 141 161
f 59 161 58
f 165 164 74
f 165 74 166
f 166 74 89
f 89 74 88
f 88 74 162
f 162 74 351
f 57 163 164
f 164 163 141
f 54 56 57
f 54 57 167
f 167 57 164
f 167 164 165
f 92 166 89
f 92 89 91
f 91 89 90
f 90 89 88
f 55 56 54
f 168 167 165
f 168 165 169
f 169 165 166
f 169 166 94
f 94 166 92
f 94 92 93
f 93 92 299
f 299 92 91
f 53 55 54
f 51 53 54
f 51 54 170
f 170 54 167
f 170 167 168
f 96 169 94
f 96 94 95
f 95 94 297
f 297 94 93
f 52 53 51
f 171 170 168
f 171 168 172
f 172 168 169
f 172 169 99
f 99 169 96
f 99 96 98
f 98 96 97
f 97 96 95
f 50 52 51
f 48 50 51
f 48 51 173
f 173 51 170
f 173 170 171
f 102 172 99
f 102 99 101
f 101 99 100
f 100 99 98
f 49 50 48
f 177 173 171
f 177 171 178
f 178 171 172
f 178 172 104
f 104 172 102
f 104 102 103
f 103 102 101
f 47 49 48
f 104 103 105
f 175 47 48
f 175 48 176
f 176 48 173
f 176 173 177
f 73 178 104
f 73 104 106
f 106 104 105
f 174 47 175
f 73 106 294
f 294 106 105
f 294 72 73
f 178 73 137
f 178 137 177
f 177 137 138
f 177 138 176
f 176 138 139
f 176 139 175
f 175 139 140
f 175 140 46
f 175 46 174
f 108 109 70
f 70 109 179
f 70 179 135
f 135 179 180
f 135 180 138
f 138 180 181
f 138 181 139
f 139 181 140
f 140 45 46
f 46 45 44
f 45 433 44
f 181 180 182
f 181 182 140
f 140 182 43
f 140 43 45
f 45 43 42
f 45 42 433
f 110 112 183
f 110 183 109
f 109 183 184
f 109 184 179
f 179 184 185
f 179 185 180
f 180 185 186
f 180 186 182
f 182 186 41
f 182 41 436
f 182 436 43
f 112 114 183
f 185 187 186
f 186 187 40
f 186 40 438
f 186 438 41
f 387 68 114
f 114 68 188
f 114 188 183
f 183 188 189
f 183 189 184
f 184 189 185
f 185 189 39
f 185 39 187
f 187 39 440
f 187 440 40
f 39 441 440
f 189 188 38
f 189 38 39
f 39 38 442
f 39 442 441
f 38 37 442
f 68 192 188
f 188 192 142
f 188 142 38
f 38 142 190
f 38 190 37
f 193 192 68
f 193 68 194
f 194 68 117
f 117 68 116
f 116 68 191
f 191 68 387
f 36 444 192
f 192 444 142
f 33 35 36
f 33 36 195
f 195 36 192
f 195 192 193
f 119 194 117
f 119 117 118
f 118 117 293
f 293 117 116
f 34 35 33
f 196 195 193
f 196 193 197
f 197 193 194
f 197 194 121
f 121 194 119
f 121 119 120
f 120 119 291
f 291 119 118
f 32 34 33
f 30 32 33
f 30 33 198
f 198 33 195
f 198 195 196
f 123 197 121
f 123 121 122
f 122 121 289
f 289 121 120
f 31 32 30
f 199 198 196
f 199 196 200
f 200 196 197
f 200 197 126
f 126 197 123
f 126 123 125
f 125 123 124
f 124 123 122
f 29 31 30
f 27 29 30
f 27 30 201
f 201 30 198
f 201 198 199
f 129 200 126
f 129 126 128
f 128 126 127
f 127 126 125
f 28 29 27
f 204 201 199
f 204 199 205
f 205 199 200
f 205 200 131
f 131 200 129
f 131 129 130
f 130 129 287
f 287 129 128
f 25 28 27
f 26 25 27
f 26 27 203
f 203 27 201
f 203 201 204
f 67 205 131
f 67 131 133
f 133 131 132
f 132 131 130
f 459 25 202
f 202 25 26
f 67 133 286
f 286 133 132
f 286 143 67
f 67 143 144
f 67 144 205
f 205 144 204
f 204 144 145
f 204 145 203
f 203 145 146
f 203 146 26
f 26 146 147
f 26 147 202
f 202 147 148
f 202 148 459
f 211 316 212
f 226 221 214
f 214 221 220
f 222 223 211
f 211 223 315
f 211 315 316
f 313 314 215
f 215 314 222
f 225 218 224
f 310 311 219
f 219 311 224
f 229 228 230
f 231 235 233
f 231 233 232
f 207 234 206
f 206 234 231
f 231 234 235
f 224 236 225
f 232 302 231
f 231 302 303
f 231 303 230
f 230 303 237
f 230 237 304
f 230 304 305
f 238 206 231
f 238 231 239
f 239 231 230
f 239 230 240
f 240 230 228
f 240 228 241
f 241 228 227
f 241 227 226
f 241 226 242
f 242 226 214
f 242 214 220
f 242 220 219
f 242 219 243
f 243 219 244
f 244 219 224
f 244 224 218
f 244 218 245
f 245 218 217
f 245 217 216
f 245 216 251
f 251 216 213
f 251 213 215
f 251 215 259
f 259 215 246
f 246 215 222
f 246 222 211
f 246 211 247
f 247 211 248
f 248 211 209
f 248 209 208
f 248 208 207
f 248 207 238
f 238 207 206
f 249 244 250
f 250 244 245
f 250 245 251
f 252 241 242
f 252 242 253
f 253 242 249
f 249 242 243
f 249 243 244
f 254 239 255
f 255 239 256
f 256 239 240
f 256 240 252
f 252 240 241
f 257 248 258
f 258 248 238
f 258 238 254
f 254 238 239
f 259 246 260
f 260 246 247
f 260 247 257
f 257 247 248
f 261 258 262
f 262 258 254
f 262 254 255
f 262 255 256
f 262 256 263
f 263 256 252
f 263 252 264
f 264 252 253
f 264 253 249
f 264 249 265
f 265 249 250
f 265 250 266
f 266 250 251
f 266 251 259
f 266 259 267
f 267 259 260
f 267 260 268
f 268 260 257
f 268 257 269
f 269 257 261
f 261 257 258
f 262 270 271
f 262 271 261
f 261 271 269
f 269 271 268
f 263 272 273
f 263 273 262
f 262 273 274
f 262 274 275
f 262 275 276
f 262 276 270
f 264 277 278
f 264 278 279
f 264 279 263
f 263 279 280
f 263 280 272
f 266 281 265
f 265 281 282
f 265 282 264
f 264 282 277
f 271 283 268
f 268 283 284
f 268 284 267
f 267 284 285
f 267 285 266
f 266 285 281
f 5 271 2
f 2 271 270
f 2 270 1
f 1 270 276
f 1 276 275
f 1 275 8
f 8 275 274
f 8 274 273
f 8 273 9
f 9 273 272
f 9 272 280
f 9 280 279
f 9 279 12
f 12 279 3
f 3 279 278
f 3 278 19
f 19 278 277
f 19 277 20
f 20 277 282
f 20 282 21
f 21 282 18
f 18 282 281
f 18 281 15
f 15 281 285
f 15 285 11
f 11 285 16
f 16 285 17
f 17 285 284
f 17 284 23
f 23 284 283
f 23 283 24
f 24 283 271
f 24 271 5
f 286 132 400
f 132 130 287
f 127 125 396
f 125 124 396
f 124 122 288
f 289 120 290
f 291 118 292
f 294 105 329
f 105 103 296
f 98 97 358
f 97 95 359
f 297 93 298
f 299 91 300
f 91 90 301
f 90 88 301
f 306 230 305
f 306 229 230
f 307 228 229
f 307 227 228
f 308 226 227
f 308 221 226
f 309 220 221
f 309 219 220
f 312 216 217
f 312 213 216
f 313 215 213
f 317 211 212
f 210 209 211
f 318 209 210
f 320 208 209
f 207 208 320
f 327 224 311
f 327 311 319
f 236 224 327
f 327 319 328
f 234 207 321
f 321 207 320
f 321 320 322
f 326 236 327
f 333 77 143
f 209 318 320
f 320 318 331
f 320 331 322
f 322 331 332
f 322 332 323
f 323 332 333
f 323 333 324
f 324 333 325
f 325 333 143
f 334 75 77
f 332 334 333
f 333 334 77
f 332 79 334
f 334 79 75
f 211 317 210
f 210 317 336
f 210 336 318
f 318 336 337
f 318 337 331
f 331 337 332
f 332 337 335
f 332 335 79
f 338 80 335
f 337 338 335
f 339 81 80
f 336 340 337
f 337 340 339
f 337 339 338
f 338 339 80
f 340 82 81
f 212 316 317
f 339 340 81
f 341 83 82
f 316 315 342
f 316 342 317
f 317 342 343
f 317 343 336
f 336 343 344
f 336 344 340
f 340 344 341
f 340 341 82
f 344 84 83
f 315 223 342
f 341 344 83
f 345 85 84
f 343 346 344
f 344 346 345
f 344 345 84
f 346 86 85
f 222 314 223
f 223 314 342
f 345 346 85
f 347 87 86
f 314 348 342
f 342 348 349
f 342 349 343
f 343 349 350
f 343 350 346
f 346 350 347
f 346 347 86
f 314 313 348
f 350 351 347
f 347 351 87
f 88 162 352
f 352 162 351
f 350 352 351
f 350 301 352
f 352 301 88
f 213 312 313
f 313 312 353
f 313 353 348
f 348 353 354
f 348 354 349
f 349 354 355
f 349 355 350
f 350 355 301
f 355 300 301
f 301 300 91
f 355 299 300
f 355 298 299
f 299 298 93
f 217 356 312
f 312 356 357
f 312 357 353
f 353 357 358
f 353 358 354
f 354 358 359
f 354 359 355
f 355 359 297
f 355 297 298
f 297 359 95
f 359 358 97
f 356 296 357
f 358 357 98
f 103 101 296
f 360 296 356
f 361 356 362
f 362 356 218
f 218 356 217
f 296 101 100
f 296 100 357
f 357 100 98
f 361 360 356
f 295 105 296
f 295 296 360
f 364 361 362
f 225 362 218
f 329 105 295
f 295 360 363
f 363 360 361
f 363 361 364
f 364 362 225
f 329 295 328
f 328 295 363
f 328 363 327
f 327 363 364
f 327 364 326
f 326 364 236
f 236 364 225
f 71 72 365
f 311 310 319
f 319 366 328
f 328 366 367
f 328 367 329
f 329 367 365
f 329 365 294
f 294 365 72
f 219 309 310
f 310 309 319
f 365 367 71
f 368 69 71
f 309 369 319
f 319 369 366
f 366 370 367
f 367 370 368
f 367 368 71
f 370 107 368
f 368 107 69
f 369 372 366
f 366 372 373
f 366 373 370
f 370 373 371
f 370 371 107
f 374 108 371
f 221 308 309
f 309 308 369
f 373 374 371
f 308 376 369
f 369 376 372
f 373 375 374
f 374 375 108
f 377 110 108
f 373 377 375
f 375 377 108
f 378 111 110
f 376 379 372
f 372 379 380
f 372 380 373
f 373 380 378
f 373 378 377
f 377 378 110
f 380 112 111
f 227 307 308
f 308 307 376
f 378 380 111
f 381 113 112
f 307 382 376
f 376 382 379
f 379 383 380
f 380 383 381
f 380 381 112
f 383 114 113
f 381 383 113
f 384 115 114
f 382 385 379
f 379 385 386
f 379 386 383
f 383 386 384
f 383 384 114
f 229 306 307
f 307 306 382
f 386 387 384
f 384 387 115
f 388 191 387
f 306 389 382
f 382 389 385
f 386 388 387
f 293 116 390
f 306 305 389
f 386 390 388
f 388 390 116
f 388 116 191
f 305 304 389
f 389 391 385
f 385 391 392
f 385 392 386
f 386 392 293
f 386 293 390
f 304 237 389
f 392 292 293
f 293 292 118
f 237 393 389
f 389 393 391
f 392 291 292
f 237 303 393
f 392 290 291
f 291 290 120
f 303 302 393
f 393 394 391
f 391 394 395
f 391 395 392
f 392 395 289
f 392 289 290
f 302 232 393
f 395 288 289
f 289 288 122
f 232 398 393
f 393 398 394
f 394 396 395
f 395 396 288
f 288 396 124
f 398 397 394
f 394 397 330
f 394 330 396
f 396 330 127
f 399 398 232
f 397 287 128
f 397 128 330
f 330 128 127
f 399 232 235
f 235 232 233
f 400 132 287
f 400 287 401
f 401 287 397
f 401 397 402
f 402 397 398
f 402 398 403
f 403 398 399
f 403 399 235
f 234 403 235
f 143 286 325
f 325 286 324
f 324 286 400
f 324 400 323
f 323 400 401
f 323 401 322
f 322 401 402
f 322 402 321
f 321 402 403
f 321 403 234
f 66 64 405
f 405 64 65
f 405 65 406
f 407 406 408
f 406 63 408
f 408 63 409
f 409 62 410
f 410 62 411
f 411 61 412
f 412 61 413
f 415 58 416
f 416 58 141
f 58 161 141
f 141 163 417
f 417 163 57
f 417 57 418
f 418 57 56
f 418 56 419
f 419 56 420
f 420 56 55
f 420 55 421
f 421 55 422
f 422 55 53
f 422 53 423
f 423 53 424
f 424 53 52
f 424 52 425
f 425 52 426
f 426 52 50
f 426 50 427
f 427 50 428
f 428 50 49
f 428 49 429
f 429 49 430
f 430 49 47
f 430 47 431
f 431 47 432
f 174 432 47
f 174 46 44
f 433 42 434
f 434 42 43
f 434 43 435
f 435 43 436
f 436 41 437
f 437 41 438
f 438 40 439
f 439 40 440
f 442 37 443
f 443 37 142
f 37 190 142
f 445 444 36
f 445 36 35
f 445 35 446
f 446 35 447
f 447 35 34
f 447 34 448
f 448 34 449
f 449 34 32
f 449 32 450
f 450 32 451
f 451 32 31
f 451 31 452
f 452 31 453
f 453 31 29
f 453 29 454
f 454 29 455
f 455 29 28
f 455 28 456
f 456 28 457
f 457 28 25
f 457 25 458
f 458 25 459
f 404 459 148
f 404 148 66
f 459 404 458
f 444 445 460
f 444 460 142
f 142 460 443
f 417 461 141
f 141 461 416
f 446 462 445
f 443 460 463
f 443 463 442
f 442 463 464
f 442 464 441
f 441 464 465
f 441 465 440
f 440 465 439
f 439 466 438
f 438 466 437
f 437 467 436
f 436 467 435
f 434 468 433
f 433 468 469
f 433 469 44
f 44 469 174
f 431 470 430
f 430 470 471
f 430 471 429
f 429 471 472
f 429 472 428
f 428 472 473
f 428 473 427
f 427 473 474
f 427 474 426
f 426 474 475
f 426 475 425
f 425 475 476
f 425 476 424
f 424 476 477
f 424 477 423
f 423 477 478
f 423 478 422
f 422 478 479
f 422 479 421
f 421 479 480
f 421 480 420
f 420 480 481
f 420 481 419
f 419 481 482
f 419 482 418
f 418 482 483
f 418 483 417
f 417 483 461
f 461 484 416
f 416 484 485
f 416 485 415
f 415 485 486
f 415 486 414
f 414 486 487
f 414 487 413
f 413 487 488
f 413 488 412
f 412 488 489
f 412 489 411
f 411 489 490
f 411 490 410
f 410 490 491
f 410 491 409
f 409 491 492
f 409 492 408
f 408 492 493
f 408 493 407
f 407 493 494
f 407 494 406
f 406 494 495
f 406 495 405
f 405 495 496
f 405 496 66
f 66 496 497
f 66 497 404
f 497 498 404
f 404 498 458
f 462 499 445
f 445 499 500
f 445 500 460
f 469 501 174
f 174 501 432
f 483 502 461
f 461 502 484
f 498 503 458
f 458 503 504
f 458 504 457
f 457 504 505
f 457 505 456
f 456 505 506
f 456 506 455
f 455 506 507
f 455 507 454
f 454 507 508
f 454 508 453
f 453 508 509
f 453 509 452
f 452 509 510
f 452 510 451
f 451 510 511
f 451 511 450
f 450 511 512
f 450 512 449
f 449 512 513
f 449 513 448
f 448 513 8
f 448 8 447
f 447 8 514
f 447 514 446
f 446 514 515
f 446 515 462
f 462 515 499
f 500 516 460
f 460 516 517
f 460 517 463
f 463 517 518
f 463 518 464
f 464 518 519
f 464 519 465
f 465 519 439
f 439 519 520
f 439 520 466
f 466 520 521
f 466 521 437
f 437 521 522
f 437 522 467
f 467 522 523
f 467 523 435
f 435 523 524
f 435 524 434
f 434 524 525
f 434 525 468
f 468 525 526
f 468 526 469
f 469 526 501
f 501 527 432
f 432 527 528
f 432 528 431
f 431 528 470
f 470 528 529
f 470 529 471
f 471 529 530
f 471 530 472
f 472 530 531
f 472 531 473
f 473 531 532
f 473 532 474
f 474 532 533
f 474 533 475
f 475 533 534
f 475 534 476
f 476 534 535
f 476 535 477
f 477 535 536
f 477 536 478
f 478 536 537
f 478 537 479
f 479 537 15
f 479 15 480
f 480 15 538
f 480 538 481
f 481 538 539
f 481 539 482
f 482 539 540
f 482 540 483
f 483 540 502
f 502 541 484
f 484 541 542
f 484 542 485
f 485 542 543
f 485 543 486
f 486 543 17
f 486 17 487
f 487 17 544
f 487 544 488
f 488 544 545
f 488 545 489
f 489 545 546
f 489 546 490
f 490 546 23
f 490 23 491
f 491 23 547
f 491 547 492
f 492 547 548
f 492 548 493
f 493 548 549
f 493 549 494
f 494 549 550
f 494 550 495
f 495 550 551
f 495 551 496
f 496 551 552
f 496 552 497
f 497 552 498
f 552 4 498
f 498 4 7
f 498 7 503
f 503 7 6
f 503 6 504
f 504 6 505
f 505 6 2
f 505 2 506
f 506 2 507
f 507 2 1
f 507 1 508
f 508 1 509
f 515 514 10
f 515 10 499
f 499 10 516
f 499 516 500
f 519 13 520
f 520 13 14
f 520 14 521
f 521 14 522
f 522 14 3
f 522 3 523
f 523 3 524
f 524 3 19
f 524 19 525
f 525 19 526
f 526 19 501
f 501 19 527
f 529 21 530
f 530 21 22
f 530 22 531
f 531 22 532
f 534 533 18
f 534 18 535
f 535 18 536
f 538 15 11
f 538 11 539
f 539 11 540
f 540 11 16
f 540 16 502
f 502 16 541
f 541 16 542
f 549 548 24
f 549 24 550
f 550 24 551
f 552 551 4
f 553 554 555
f 555 554 556
f 555 556 557
f 557 556 558
f 557 558 559
f 559 558 560
f 559 560 561
f 561 560 562
f 561 562 563
f 563 562 564
f 563 564 565
f 565 564 566
f 565 566 567
f 567 566 568
f 567 568 569
f 569 568 570
f 569 570 571
f 571 570 572
f 571 572 573
f 573 572 574
f 573 574 575
f 575 574 576
f 575 576 577
f 577 576 578
f 577 578 579
f 579 578 580
f 579 580 581
f 581 580 582
f 581 582 583
f 583 582 584
f 583 584 585
f 585 584 586
f 585 586 587
f 587 586 588
f 587 588 589
f 589 588 590
f 589 590 591
f 591 590 592
f 591 592 593
f 593 592 594
f 593 594 595
f 595 594 596
f 595 596 597
f 597 596 598
f 597 598 599
f 599 598 600
f 599 600 553
f 553 600 554
f 580 578 601
f 601 578 576
f 601 576 574
f 586 584 601
f 601 584 582
f 601 582 580
f 592 590 601
f 601 590 588
f 601 588 586
f 598 596 601
f 601 596 594
f 601 594 592
f 556 554 601
f 601 554 600
f 601 600 598
f 562 560 601
f 601 560 558
f 601 558 556
f 568 566 601
f 601 566 564
f 601 564 562
f 574 572 601
f 601 572 570
f 601 570 568
f 573 575 602
f 602 575 577
f 602 577 579
f 567 569 602
f 602 569 571
f 602 571 573
f 561 563 602
f 602 563 565
f 602 565 567
f 555 557 602
f 602 557 559
f 602 559 561
f 597 599 602
f 602 599 553
f 602 553 555
f 591 593 602
f 602 593 595
f 602 595 597
f 585 587 602
f 602 587 589
f 602 589 591
f 579 581 602
f 602 581 583
f 602 583 585
