v -0.00479063707 -0.00479062845 -0.010611258
v 0.00263741297 0.00318649958 0.0118908067
v -0.00503263193 -0.00448354532 -0.010633431
v 0.00247707647 0.00353774975 0.0118257184
v -0.00519296843 -0.00413229514 -0.0106985192
v 0.00240924639 0.00390932511 0.0117223639
v -0.00526079851 -0.00376077939 -0.0108018737
v 0.00243869108 0.00427577447 0.0115875382
v -0.00523135382 -0.00339427043 -0.0109366994
v 0.00256314558 0.00461218308 0.0114305396
v -0.00510689932 -0.00305786182 -0.011093698
v 0.00277438444 0.00489566277 0.0112620969
v -0.00489566046 -0.00277438213 -0.0112621408
v 0.00305786413 0.00510690163 0.0110936541
v -0.00461218077 -0.00256320287 -0.0114305835
v 0.00339427275 0.00523141574 0.0109366555
v -0.00427577215 -0.00243862916 -0.0115875821
v 0.0037607221 0.00526074122 0.010801949
v -0.0039093228 -0.00240930368 -0.0117222886
v 0.00413229746 0.00519297074 0.0106984754
v -0.00353774744 -0.00247707416 -0.0118257623
v 0.00448360724 0.00503263425 0.0106335063
v -0.00318643766 -0.00263747026 -0.0118907313
v 0.00479069037 0.00479063939 0.0106113334
v -0.00287935453 -0.00287940551 -0.0119129043
v 0.00503256601 0.00448355626 0.0106335063
v -0.00263747888 -0.00318648864 -0.0118907313
v 0.00519290251 0.00413230609 0.0106984754
v -0.00247714239 -0.00353773881 -0.0118257623
v 0.00526073259 0.00376073073 0.010801949
v -0.0024093123 -0.00390931417 -0.0117222886
v 0.00523140711 0.00339428137 0.0109366555
v -0.00243863779 -0.00427576352 -0.0115875821
v 0.0051068334 0.00305781316 0.0110936541
v -0.0025632115 -0.00461223174 -0.0114305835
v 0.00489571375 0.00277439307 0.0112620969
v -0.00277433115 -0.00489571143 -0.0112621408
v 0.00461223406 0.00256315421 0.0114305396
v -0.00305781084 -0.00510689069 -0.011093698
v 0.00427582544 0.00243864011 0.0115875382
v -0.00339421946 -0.00523140479 -0.0109366994
v 0.00390925688 0.00240931462 0.0117223639
v -0.00376078802 -0.00526073028 -0.0108018737
v 0.00353780073 0.0024770851 0.0118257184
v -0.00413224417 -0.0051929598 -0.0106985192
v 0.00318649096 0.0026374216 0.0118908067
v -0.00448355394 -0.0050326233 -0.010633431
v 0.00287940783 0.00287941645 0.0119129796
v 0.00383498949 0.00383499812 0.0112620969
v -0.00383505541 -0.00383504678 -0.0112621408
v 0.000607441836 0.000290958263 0.0104554846
v -0.000162433371 0.00115549944 0.0104374731
v -0.000480096518 0.00184927406 0.0102596448
v 0.00268702351 -0.000761235187 0.010060374
v 0.00108089727 -0.000104749692 0.0102117438
v -0.000522392346 -0.00350696248 0.0119162965
v -0.000868851436 0.00313334807 0.0100034262
v -0.000920772726 0.00366803738 0.00997692657
v 0.00673837678 0.00225620395 0.00769802995
v 0.00651952611 0.00119874218 0.00814754035
v 0.00611877298 0.000618620968 0.00843172215
v 0.00531454456 -0.000322372001 0.00907467261
v 0.00438179837 -0.000689452339 0.00937270345
v 0.00292364692 0.00677404033 0.00747298347
v 0.00365973523 0.00655783418 0.00724720028
v 0.00696038598 0.00305069336 0.00754219526
v 0.00490525732 0.00609409399 0.00702959001
v 0.00508656782 0.00568286132 0.00687698316
v -0.00054419257 0.0050873172 0.00938440656
v 0.0011558381 0.00641008055 0.00796784227
v -0.00233874041 0.00895563315 0.00829092454
v 0.00621559124 0.00456673677 0.00704341979
v 0.000613951183 0.0103921182 0.00679643123
v -0.000409695682 0.0100838895 0.00724986982
v 0.00797267582 0.00807458128 0.00507980283
v -0.00411339804 -0.00190880351 0.0116136699
v -0.00533612689 -0.00348358195 0.00840997334
v -0.0061872203 -0.000671839366 0.00935964087
v -0.00504768963 -0.000335848765 0.0113944938
v -0.00566195821 0.00136889159 0.0110218291
v -0.0068873399 0.00285242708 0.00843454343
v -0.005926528 0.00312870698 0.0105109473
v -0.00582967913 0.00486688392 0.00988447535
v -0.00618057193 0.0062289751 0.00706933628
v -0.00537652282 0.00650972988 0.00916924769
v -0.00458581327 0.00799051292 0.00839458723
v -0.00409190471 0.00872827985 0.00760899322
v -0.00184478855 0.010371297 0.00664441279
v -0.00247995825 0.00988834433 0.0033938956
v -0.000835659664 0.0103746575 0.00266753754
v 0.00196457245 0.0112031378 0.00491860755
v 0.00370518087 0.010972261 0.00439751726
v 0.0057656503 0.0102552352 0.00410470672
v 0.00538755111 0.0103971091 0.00399177955
v 0.00744710766 0.00928717954 0.00416573342
v 0.00634915628 0.00900214941 0.00165383369
v 0.00791627899 0.00874812728 0.00366163262
v 0.00911369966 0.00757103145 0.00388166055
v 0.00988445879 0.00497593586 0.00196066592
v 0.0101279811 0.00603187617 0.00405923932
v 0.0108259144 0.00434981283 0.00439260636
v 0.0107779813 0.00149321914 0.00287897192
v 0.0111785871 0.00259546235 0.00486815866
v 0.0111712805 0.0008453652 0.00546517438
v 0.0102607056 -0.00191699624 0.0042442641
v 0.010805112 -0.000828998753 0.00615843844
v 0.0100949193 -0.00235808044 0.00691953441
v 0.00944285421 -0.0033341846 0.00713177539
v 0.00749109928 -0.00489379854 0.00866261084
v 0.00613835065 -0.00644373955 0.00601976775
v 0.00452885707 -0.00701456568 0.00676293685
v 0.00366784323 -0.00600665626 0.0102009235
v 0.00192262096 -0.00586713627 0.0107412149
v 0.000206555434 -0.00538166708 0.0111520559
v -0.00166983192 -0.00427395529 0.0115853437
v -0.00148427696 -0.00455466574 0.0113797915
v -0.00233587883 -0.00355289946 0.0118755325
v -0.00838808881 -0.00647539394 -0.000484131499
v -0.00664701764 0.00667559667 -0.00293522785
v 0.00128244789 0.00452511933 -0.0115394969
v 0.00109593645 0.00600514041 -0.0094331542
v 0.00221754837 0.00387753859 -0.011637969
v 0.00309276731 0.0030933955 -0.0116680303
v 0.00472206002 0.00470904483 -0.00793189602
v 0.0053715181 -0.00802632338 -0.00202168754
v -0.00617087314 -0.0100437005 -0.00404016888
v -0.00455436005 -0.0100697069 -0.00204118774
v -0.00720452474 -0.00939421986 -0.00391112953
v -0.00647199139 -0.00832441357 -0.000365371981
v -0.005372429 -0.010479416 -0.00433638965
v -0.00269682803 -0.0111351078 -0.00456833305
v -0.000964404463 -0.0111633594 -0.00512784928
v 0.00070316979 -0.0108453842 -0.0057848023
v 0.00223809877 -0.010194475 -0.00651117608
v 0.00223586913 -0.0101567319 -0.00686455859
v 0.00397784193 -0.00881009752 -0.00767497014
v 0.00566822393 -0.00753845506 -0.00456505294
v 0.00462151298 -0.0079009164 -0.00847556075
v 0.00496435453 -0.00749220414 -0.00845978274
v 0.0065893594 -0.00613492202 -0.00537250343
v 0.0056461347 -0.00596933381 -0.00921263663
v 0.00719306664 -0.00454570379 -0.00613556447
v 0.00599161258 -0.00430757616 -0.00989721338
v 0.00745602849 -0.00283307702 -0.00682178183
v 0.00598659848 -0.00257625192 -0.0104862018
v 0.00736927134 -0.00106113142 -0.00740018007
v 0.00560251744 -0.001223359 -0.0110747006
v 0.00563111846 -0.000843611897 -0.0109571143
v 0.00693361626 0.000696843194 -0.00785148031
v 0.00503824889 0.000600177752 -0.0112690354
v 0.00616380338 0.00237075899 -0.00816179042
v 0.00436787378 0.00153117315 -0.0115818873
v 0.00490954203 0.00296059798 -0.00951727439
v 0.000478796368 0.00496988463 -0.0114171102
v -0.00180650907 0.00576153192 -0.0109063697
v -0.00166477603 0.00727920878 -0.00765712617
v -0.00372661368 0.00606795473 -0.0100607013
v -0.00385752416 0.00592006586 -0.0102642267
v -0.00540622661 0.0058469375 -0.00939299302
v -0.00556648593 0.00567241927 -0.00959777669
v -0.00696969382 0.00528742094 -0.00865233925
v -0.00715306892 0.00507270099 -0.00885345505
v -0.00884228666 0.00394726669 -0.00765344678
v -0.00826601211 0.00497991944 -0.00407987936
v -0.00989702633 0.00269100964 -0.00686718196
v -0.00927081551 0.00362212839 -0.003294318
v -0.0105357037 0.00148938881 -0.00651187736
v -0.0106595291 0.00121319433 -0.00610534269
v -0.00996460952 0.00206633625 -0.00254037818
v -0.0110922502 -0.000422740529 -0.00540247988
v -0.0103219409 0.000369660724 -0.00185293471
v -0.0112133044 -0.00187260835 -0.00513243744
v -0.0111759154 -0.00214433628 -0.0047889786
v -0.0103266194 -0.00139691693 -0.00125659909
v -0.0110079966 -0.00363797327 -0.00459751344
v -0.0109077358 -0.00388475667 -0.00428879421
v -0.00997778168 -0.00316713845 -0.000774486821
v -0.0102991424 -0.00557173921 -0.00392388182
v -0.00929081604 -0.00486812091 -0.000430960825
v -0.00955761359 -0.00696298017 -0.00394694285
v -0.00895950514 -0.006368423 -0.0016177516
v -0.00454313228 -0.00911707027 0.000436714892
v 0.00262451522 0.00656663002 -0.00734455836
v -0.00461831261 -0.00794893313 0.00287323501
v 0.0045203237 0.0051834936 -0.00740965415
v 0.00423644472 0.00691113439 -0.00520165168
v 0.0053765776 0.00738432585 -0.00296112069
v 0.00574574248 0.00840027893 -0.000603610494
v 0.00808643632 -0.00451085307 0.00840261793
v -0.00242392084 0.0100587187 0.00702078727
v -0.00838273327 -0.00837570687 -0.00385673567
v -0.00729950912 -0.00772251193 -0.000533903655
v -0.00642416197 -0.00642421295 0.00300625753
v -0.00461921928 -0.00663287123 0.00523813899
v -0.00417032648 -0.0055016272 0.00744206919
v -0.00292302761 -0.00358685878 0.0113409655
v -0.00103479442 -0.0101342977 -0.000410205628
v -0.00116168145 -0.00931393516 0.00216112897
v -0.00128088479 -0.00832249217 0.00467598318
v -0.00196335205 -0.00638653657 0.00809803484
v -0.000261638686 -0.00707432929 0.00775245408
v 0.00245282588 -0.00974321413 -0.00173079116
v 0.00241626186 -0.00927724312 0.000929968729
v 0.0023201135 -0.0086439026 0.00355948317
v 0.00150582391 -0.00742412951 0.0072663642
v 0.00326856637 -0.00742376499 0.00665744703
v 0.00559430346 -0.00770718928 0.000720284437
v 0.00483029301 -0.00793486561 0.00242877028
v 0.00790992064 -0.00461318542 0.0084392209
v 0.00357368273 -0.00915511895 -0.00766118575
v 0.00885978026 -0.00386902143 0.00786236715
v 0.00815258723 -0.0051329991 0.00409852497
v 0.00809373089 -0.00520393025 0.000420104689
v 0.00731663056 -0.00598131507 -0.00185956848
v 0.00959531076 -0.00286031832 0.00191791071
v 0.00936028233 -0.00198209678 -0.00110682678
v 0.00858252894 -0.00276071448 -0.00338971601
v 0.0101631182 0.000585772428 0.000551972108
v 0.00921704423 0.0016108579 -0.00228376287
v 0.0084406883 0.00083385512 -0.00456384164
v 0.00931712288 0.00412201025 -0.000364543337
v 0.0082899327 0.00858365812 0.00426194911
v 0.00803957114 0.0070131198 0.000648510103
v 0.00743570811 0.0061045848 -0.00186197886
v 0.00714420078 0.00434197159 -0.00472609889
v 0.00632591807 0.00353589898 -0.00695937939
v 6.42442985e-06 0.00811341392 -0.00551586433
v 0.00166749094 0.00869780958 -0.00352959311
v 0.00334771322 0.00856722205 -0.00268433466
v 0.00360153594 0.00983843722 0.000679227721
v -0.00436688685 0.0075395392 -0.00529464435
v -0.00275896161 0.00858350774 -0.00338800737
v -0.00109788026 0.0094598024 -0.00144113989
v 0.00184247805 0.0102730445 0.00112724889
v 6.78036701e-05 0.0103563609 0.00169432667
v -0.00523024043 0.00793791036 -0.0009221147
v -0.00367236286 0.00886304654 -0.000394479135
v -0.00228104311 0.0101165528 0.00689355325
v -0.00854787546 0.00414714764 -0.00806315947
v -0.00501428665 0.00826453796 0.00402967366
v -0.00706740719 0.00633076771 0.0016551351
v -0.00784305339 0.00555531637 -0.000624672352
v -0.0070977634 0.00558605958 0.00472956978
v -0.00850062244 0.0031929955 0.00321057624
v -0.00927639092 0.00241797506 0.000931518334
v -0.00784035281 0.00219149952 0.00613799553
v -0.00853637837 -0.000384337965 0.00444442981
v -0.00931412711 -0.0011597032 0.0021610614
v -0.0071692033 -0.00136570645 0.00711844886
v -0.00462267118 -0.00332059909 0.00954214525
v -0.0062100585 -0.00421644312 0.00629909545
v -0.00785288735 -0.00439377915 0.00335498999
v -0.00857343616 -0.0051309488 0.00106389702
v -0.0035064662 0.000805007775 -0.00974984424
v 0.000729665407 -0.00410391494 -0.00961183202
v -0.00523409563 0.000208711135 -0.00883301306
v 0.000391664258 -0.00497847043 -0.00898228467
v -0.00441082715 0.000651960021 -0.00948067198
v -0.00790459632 0.00357292034 -0.00905623336
v -0.0050660253 -0.0100161108 -0.00540839429
v 0.000817163651 -0.00303226567 -0.0100211228
v 0.000627939252 -0.00227070519 -0.0101669361
v 0.000524265731 -0.00188783982 -0.010296866
v 0.00328807613 0.000865545769 -0.0119585813
v -0.00351876721 0.00489423893 -0.0109974437
v -0.00284827685 0.000840779282 -0.0100748832
v -0.000597431923 -0.000226007492 -0.0103497141
v 0.000199752074 0.00385070226 -0.0119151592
v -0.000882241306 0.00418243359 -0.0116680484
v -0.00588302639 -0.000228675232 -0.00869445027
v -0.00641774686 -0.00110107834 -0.00814726379
v -0.00750367213 -0.00852466138 -0.00508620529
v -0.00353594943 -0.00658208949 -0.00721582887
v -0.00255289403 -0.00671290842 -0.00757077312
v -0.00670101366 -0.00262705512 -0.00748517024
v -0.0106923548 -0.00204810435 -0.00619476015
v -0.00887998195 -0.00703118191 -0.00512607522
v -0.00112037443 -0.00642877903 -0.00806303222
v 0.00375650085 -0.0073766186 -0.00931151682
v -0.00583834591 -0.00504992287 -0.00683644031
v -0.0101456376 -0.00456597854 -0.00553449202
v -0.00949856955 -0.00605353166 -0.00524827052
v -0.00985893923 -0.0053225403 -0.00537451316
v 0.00298944446 -0.0086380021 -0.0086004175
v -0.00492824824 -0.00216222645 -0.00258011371
v -0.00505772854 -0.000186911093 -0.0032086905
v -0.00344417312 0.00192583842 -0.00447757903
v -0.00226876455 0.00229624461 -0.00500401068
v -0.000765035229 0.00225125363 -0.00550073029
v 0.00219091801 -0.000561807612 -0.00554938363
v 0.00218672051 -0.00295350517 -0.00473354593
v 0.000727873665 -0.00470392908 -0.00364066225
v -0.00121515936 -0.00510532407 -0.00284226373
v -0.00315035451 -0.00450366611 -0.00238825456
v -0.00374775592 -0.0015129275 -0.00320328498
v -0.0037078591 -0.000646019471 -0.00351198722
v -0.00369345833 0.000501853503 -0.00390781821
v -0.00205278632 0.00101184434 -0.00464015152
v -0.000885221538 0.000882601249 -0.00499375868
v 0.000978401315 0.000407061071 -0.00546636909
v 0.000946667615 -0.00211521436 -0.00459667254
v 0.000369205389 -0.00323950247 -0.00401727106
v -0.00100022088 -0.00377444362 -0.0033687651
v 0.000954560941 -0.000954387561 -0.00499469854
v -0.00223473344 -0.00351992995 -0.00303508502
v -0.00364092886 -0.00285741709 -0.00278180955
v -0.00040565854 -2.41637073e-05 0.00514096655
v -0.00109306908 0.00173824038 0.0047749153
v -0.000387165126 0.00314835261 0.0040543456
v 0.000298369833 0.00362082109 0.00366006926
v 0.0018066307 0.00371578637 0.00311407027
v 0.00297334475 0.00297329377 0.00296966028
v 0.0035197973 0.00223495506 0.00303499118
v 0.00377300687 0.000708055571 0.00346872345
v 0.00314834398 -0.000387156499 0.0040543456
v 0.00220783907 -0.000977901698 0.00457581697
v 0.000633079528 -0.000807357917 0.00505393238
v -0.00226626116 0.00107154797 0.00540141057
v -0.00190623966 -3.45453747e-05 0.00565552947
v -0.000569453004 -0.00162178565 0.00574081824
v 0.00140150201 -0.00233269425 0.00531169218
v 0.0026532678 -0.0022197013 0.00484696817
v 0.00365523456 -0.00179765774 0.00436209929
v 0.00468690836 -0.000683216674 0.00363127721
v 0.00505748076 0.000492429244 0.0031047244
v 0.00505949535 0.0016190787 0.00272042451
v -0.000566414626 0.00484718173 0.00353689463
v -0.00194129663 0.00337312173 0.00450710248
v -0.00221965033 0.00265327643 0.00484696817
v -0.0023296805 0.0018739457 0.00514987897
v 0.00402207088 0.00384534122 0.00231560902
v 0.00176349096 0.00503242726 0.00268045129
v -0.00902687985 -0.00772793342 -0.00401715037
v -0.0103392196 -0.00571818354 -0.00428477209
v -0.0111964675 -0.0010763054 -0.00564368773
v -0.0110727529 -0.000181964317 -0.00591194137
v -0.0108613701 0.000598346698 -0.00632806826
v -0.010181758 0.00213280867 -0.00708206702
v -0.00970852155 0.00287936957 -0.00741959817
v 0.00333743409 0.00271747329 -0.0117806834
v 0.00413578608 0.00143670421 -0.0118672237
v 0.00517477655 -0.000476797571 -0.0115383946
v 0.00582998731 -0.00304089969 -0.0106932646
v 0.00575976001 -0.00478070565 -0.0100774739
v 0.00554778856 -0.00562062312 -0.00979813147
v 0.00533126293 -0.00643278911 -0.00936955883
v 0.00495209974 -0.00719651033 -0.00905867625
v 0.00435588801 -0.0081827632 -0.00852475699
v -0.0106421309 -0.0033027869 -0.00577519986
v -0.0108793163 -0.001680627 -0.00619248796
v -0.0105421465 -0.000577671251 -0.00674511438
v -0.0104176732 0.00015000056 -0.00701530982
v -0.00957910119 0.00199296813 -0.00792972063
v -0.0066412581 0.00436172022 -0.00973596344
v -0.00515889219 0.00494345715 -0.0104062918
v -0.00181759802 0.00481943491 -0.0115169907
v 0.00499403834 -0.003711782 -0.0109496253
v 0.0043393794 -0.0067907291 -0.00967826554
v 0.00208775209 -0.009375731 -0.00804881731
v 0.0014752279 -0.00991324141 -0.00763438895
v 0.000758891509 -0.0101291141 -0.00733978138
v 3.48911411e-05 -0.0105160875 -0.00693863819
v -0.000726909649 -0.0108027025 -0.00655253454
v -0.00142111302 -0.0110322151 -0.00613902638
v -0.00335938017 -0.0107605615 -0.00568001447
v -0.00426906654 -0.0104641536 -0.0054951405
v -0.00660669555 -0.00946345339 -0.00504069529
v 0.00158531364 0.00336709659 -0.0121055274
v -0.00816187578 -0.00816180755 -0.00495310832
v -0.00736347057 -0.00913965512 -0.00480195096
v -0.00774296954 -0.00896473561 -0.00457933053
v -0.00742975242 -0.00933060639 -0.00436980365
v -0.00806637017 -0.00876144863 -0.00409211529
v 0.00270522697 0.00188830779 -0.0120939689
v 0.00211715537 0.00274425981 -0.012150664
v 0.00240369269 0.0029921677 -0.0121061564
v 0.0032900372 0.00257022907 -0.0119491436
v -0.011026475 -0.00369515468 -0.00480981875
v -0.0045449667 -0.0106522489 -0.00518729899
v -0.00586777998 -0.0101712406 -0.00480375944
v -0.00700053888 -0.00958868314 -0.00417383719
v -0.00622126776 -0.0100691562 -0.00427564192
v -0.00503903206 -0.010613963 -0.00473397138
v -0.00452543181 -0.0107986951 -0.00451631754
v -0.00215090996 -0.0110300216 -0.00586520963
v -0.00331226598 -0.0110598471 -0.00526230799
v -0.00369522291 -0.0110264664 -0.00480981875
v -0.00282022673 -0.0111730342 -0.00505789328
v -0.00235788338 -0.0112343524 -0.00525720055
v -0.00107631403 -0.0111965184 -0.00564368773
v 0.00174350834 -0.0101135035 -0.00748245731
v 0.00114923065 -0.0105779019 -0.00693632593
v -0.000628507936 -0.0111598938 -0.00587132443
v 0.000598338071 -0.0108613615 -0.00632806826
v 0.00324934524 -0.00880241882 -0.00853065575
v 0.00104523183 -0.0107236268 -0.00648154183
v 0.00213280005 -0.0101816898 -0.00708206702
v 0.00396905475 -0.00826914201 -0.00881023132
v 0.00362544113 -0.00893516541 -0.00826895785
v 0.00287403106 -0.00971607637 -0.00740479026
v 0.00346234125 -0.00918629218 -0.00787373591
v 0.00486429958 -0.00608625654 -0.010005508
v 0.00530002374 -0.00530079745 -0.0102744036
v 0.00529660261 -0.00609667844 -0.0098048176
v 0.0052637137 -0.00303067164 -0.0111402696
v 0.00479633081 -0.00164796304 -0.0115515301
v 0.00558807855 -0.00254551823 -0.011095823
v 0.0057251173 -0.00388202086 -0.0105716383
v 0.00481299786 -0.000892862582 -0.0117056619
v 0.0047193876 0.000270356305 -0.0117678637
v 0.00412879173 -0.000111130064 -0.0118805961
v 0.00410470473 0.000927882913 -0.0119825193
v 0.00360181323 0.00105852906 -0.012058388
v 0.00265147966 0.00330278825 -0.0118504386
v -0.000845348099 0.00478475162 -0.0117212998
v 9.46570261e-05 0.00465015923 -0.011824398
v 0.00161135594 0.00400477437 -0.0118907812
v 0.000674379954 0.00464207119 -0.011729094
v -0.000429436317 0.00526794501 -0.0113821002
v -0.00411482124 0.00530595808 -0.0107679311
v -0.00319915309 0.0055284097 -0.0109769004
v -0.00192239143 0.00554680953 -0.0112044176
v -0.00130114275 0.00548956345 -0.0112491469
v -0.00304875093 0.00578222226 -0.0107537131
v -0.00392183977 0.00579402398 -0.0104604583
v -0.00745563831 0.00425803892 -0.00933255711
v -0.00680880618 0.00482347812 -0.00959831529
v -0.00511477798 0.00557853709 -0.0101362901
v -0.00562057215 0.00554773759 -0.00979813147
v -0.00672973737 0.00509550639 -0.00942195315
v -0.00719651895 0.00495210837 -0.00905867625
v -0.00975542686 0.00211737433 -0.00782053359
v -0.00939614358 0.00290490642 -0.00806389701
v -0.00890419575 0.00365480603 -0.0082894117
v -0.00791523057 0.00457496659 -0.00859710022
v -0.00858292299 0.00403217028 -0.00827332545
v -0.00918636042 0.00346229027 -0.00787373591
v -0.0109107882 -0.000561093031 -0.0064556609
v -0.0108264932 0.0003843028 -0.00662813523
v -0.0104592544 0.00157453897 -0.00693357019
v -0.0109457594 -0.00357705928 -0.00536218899
v -0.0111725064 -0.00274039848 -0.00536043901
v -0.0112342446 -0.00170982104 -0.00555155839
v -0.0105404507 -0.00458377078 -0.00530525272
v -0.0105262929 -0.00534341806 -0.00460168188
v -0.0101906993 -0.00582816318 -0.00481073941
v -0.0100289204 -0.00573305711 -0.00510404382
v -0.00924405771 -0.0068573599 -0.00502880622
v -0.00938383726 -0.00732245402 -0.00428082302
v -0.00937131563 -0.00726498903 -0.00452845078
v -0.00935875055 -0.00700454718 -0.00486923864
v -0.00310959107 -0.00259738342 0.0120173134
v -0.00153838904 -0.00408311622 0.0118555939
v -0.00037862525 -0.00482671295 0.0116635959
v 2.36482879e-05 -0.00494646379 0.0116261608
v 0.000845370877 -0.00527021105 0.0114505464
v 0.00166696977 -0.00556862789 0.0111925669
v 0.00257554063 -0.00566357188 0.0109951769
v 0.00341395182 -0.00578885732 0.0106719088
v 0.00431320075 -0.00570080024 0.0104164556
v 0.0051312132 -0.00565071853 0.0100395129
v 0.00595555886 -0.00544889765 0.00968955661
v 0.006745312 -0.00516138367 0.00932228499
v 0.00751877238 -0.00471744206 0.00898994977
v 0.00887414468 -0.00372313221 0.00818274536
v 0.00945329548 -0.00311057598 0.00778165775
v 0.00995141008 -0.00244936411 0.00738678852
v 0.0103731846 -0.00173277843 0.00699930409
v 0.0107140677 -0.000969183059 0.00662304273
v 0.0109706061 -0.000165406618 0.00626224532
v 0.0111399411 0.000668490378 0.00592031404
v 0.0112202813 0.00152401543 0.00560125085
v 0.0112108039 0.00239417456 0.00530833242
v 0.0111117524 0.00326655798 0.00504480888
v 0.0109239557 0.004133947 0.00481336761
v 0.0106492885 0.00498718852 0.00461680781
v 0.0102910408 0.00581625083 0.00445626451
v 0.00985263735 0.00661311512 0.00433446316
v 0.00933640538 0.00736397716 0.00449572818
v 0.00876102792 0.00806345629 0.00445336193
v 0.0066944187 0.00981003614 0.00424393498
v 0.00590129821 0.0102380645 0.00468667299
v 0.00518390197 0.0105511094 0.00483616257
v 0.00421875804 0.010911653 0.00471166695
v 0.00356200412 0.0110345644 0.00521449068
v 0.00247572707 0.011220189 0.00519966107
v 0.00183937708 0.0111899604 0.00574830308
v 0.000744113449 0.0111712804 0.00580525303
v -9.44563017e-05 0.0110130757 0.00614444901
v -0.000903041332 0.0107677503 0.00650299787
v -0.0016542916 0.0104116738 0.00696173192
v -0.00319044332 0.00945662032 0.00762577793
v -0.00338794377 0.00914327229 0.00810746321
v -0.0040548164 0.00829448198 0.0087388847
v -0.00451141441 0.00761377194 0.00912611565
v -0.0048893118 0.00688415295 0.00950315275
v -0.00518686492 0.00610827167 0.00986880692
v -0.00539900257 0.0052990073 0.0102166272
v -0.00552397502 0.00446375849 0.0105436619
v -0.00556074193 0.00361052985 0.0108466725
v -0.00550878183 0.00274901218 0.0111222517
v -0.00536857377 0.00188849468 0.0113675096
v -0.00514149575 0.00103677851 0.0115800622
v -0.0048302316 0.000205645675 0.0117573189
v -0.00443756687 -0.000599164367 0.0118978011
v -0.00396716725 -0.00136914023 0.0119998237
v -0.0036277312 -0.00235401078 0.0117892461
v -0.00201702268 0.00999515124 0.0075724985
v 0.00825283734 -0.00404373682 0.00874030471
v -0.00336531124 0.00876810537 0.00851367929
v -0.000725776865 0.0105344193 0.00701338719
v 4.75504223e-05 0.0107821138 0.00666571528
v 0.000851401335 0.0109461381 0.00633608485
v 0.00251309912 0.011015891 0.00574654842
v 0.00419022376 0.0107409172 0.00526909277
v 0.00657880592 0.00971124072 0.0048063253
v 0.00730693013 0.00921714116 0.00472661405
v 0.00967967897 0.00662995687 0.00479955782
v 0.0101064387 0.00586437689 0.0049150447
v 0.0104562223 0.00506725081 0.00506734568
v 0.010725517 0.0042467997 0.00525511162
v 0.010911484 0.00341184821 0.00547600443
v 0.0110123581 0.00257010656 0.00572814703
v 0.0110264062 0.0017328286 0.00600862591
v 0.0109539275 0.000907232057 0.00631469068
v 0.0107958502 0.00010222425 0.0066426443
v 0.0105536094 -0.000674871005 0.00698953971
v 0.0102302113 -0.0014123261 0.00735086029
v 0.00982820621 -0.00210586041 0.00772387057
v 0.0093522156 -0.00274731269 0.00810424794
v 0.00880849392 -0.00332719367 0.00848688542
v 0.00753676952 -0.00428735894 0.00924685121
v 0.00682262359 -0.00465609654 0.00961564433
v 0.00606714524 -0.00494463229 0.00997141715
v 0.00527840812 -0.00515035984 0.0103101773
v 0.00446188989 -0.00527227957 0.0106293966
v 0.00363038517 -0.00530706811 0.0109244658
v 0.00279019998 -0.00525549551 0.0111929645
v 0.00194943451 -0.00511801477 0.0114321955
v 0.00112084701 -0.00489565254 0.0116388923
v 0.000308355065 -0.0045910423 0.0118116898
v -0.000475528568 -0.00420762811 0.0119481905
v -0.00122471717 -0.00374910605 0.01204717
v -0.00192967733 -0.00322083124 0.0121074889
v -0.00258489598 -0.00262763388 0.0121285263
v -0.00296469034 -0.00185627383 0.0121211929
v -0.00264444165 0.00916095667 0.00826066356
v -0.00202576991 0.00963442745 0.00788868399
v 0.00785930849 0.00857607925 0.00488278894
v 0.00813562188 -0.00361280819 0.00893948562
v -0.00343272406 -0.00104608585 0.012036838
v -0.00387582498 -0.000327432645 0.0119430203
v -0.0042469235 0.000425493228 0.011812963
v -0.00443831484 0.00107660892 0.0116744561
v -0.00475856977 0.00200197648 0.0114504476
v -0.00489375311 0.00280884455 0.0112216849
v -0.00488442282 0.00346617484 0.0110126422
v -0.00477112986 0.00504857361 0.0104353177
v -0.00459592621 0.0057604488 0.0101362854
v -0.00433407043 0.00653587493 0.00977998722
v -0.00358943132 0.00787266298 0.00907120326
v -0.00306174475 0.00860229682 0.00862494897
v -0.0012291028 0.00989397146 0.007582661
v -0.000518295345 0.0102899427 0.0071841855
v 0.000226405087 0.0105254407 0.00685039949
v 0.000999596539 0.0106801743 0.00653449487
v 0.00179293436 0.0107524748 0.0062396903
v 0.0025980739 0.0107416267 0.00596920442
v 0.0034065513 0.0106477494 0.00572589826
v 0.00420966429 0.0104717369 0.00551227521
v 0.00484629914 0.0102237941 0.00539800577
v 0.00576606077 0.00988188933 0.00518325757
v 0.00650277418 0.00947425317 0.00507108163
v 0.00720145983 0.00899699877 0.00499574136
v 0.00831501562 0.00794144476 0.00499406785
v 0.00882919771 0.00733550015 0.00502834268
v 0.00947430414 0.00650278281 0.00507108163
v 0.0098818807 0.0057660098 0.00518325757
v 0.0101146159 0.00513405737 0.00533722049
v 0.0103623149 0.00439821663 0.00550654193
v 0.0107416181 0.00259808253 0.00596920442
v 0.0107524661 0.00179294299 0.0062396903
v 0.0106802253 0.000999605166 0.00653449487
v 0.0105253724 0.000226413714 0.00685039949
v 0.0102899341 -0.000518346322 0.0071841855
v 0.00997617525 -0.00122680713 0.00753227662
v 0.00958743376 -0.00189145852 0.00789109659
v 0.00918141742 -0.00235358537 0.00820466755
v 0.00860228819 -0.00306173612 0.00862494897
v 0.00737633986 -0.00397964765 0.00935498666
v 0.00679602393 -0.00421870775 0.00965215297
v 0.0060835858 -0.00450489531 0.00999222362
v 0.00537620747 -0.00469476414 0.0103007353
v 0.00441696924 -0.00491544057 0.0106814284
v 0.00361671728 -0.00494619657 0.0109644313
v 0.00252000814 -0.0048014528 0.0113079019
v 0.00136895183 -0.004533164 0.011607218
v 0.000425484601 -0.00424691488 0.011812963
v -0.000327441272 -0.00387581636 0.0119430203
v -0.00104603487 -0.00343277503 0.012036838
v -0.00172290522 -0.00292255927 0.0120935817
v -0.00235054212 -0.0023505931 0.0121125359
f 1 2 3
f 3 2 4
f 3 4 5
f 5 4 6
f 5 6 7
f 7 6 8
f 7 8 9
f 9 8 10
f 9 10 11
f 11 10 12
f 11 12 13
f 13 12 14
f 13 14 15
f 15 14 16
f 15 16 17
f 17 16 18
f 17 18 19
f 19 18 20
f 19 20 21
f 21 20 22
f 21 22 23
f 23 22 24
f 23 24 25
f 25 24 26
f 25 26 27
f 27 26 28
f 27 28 29
f 29 28 30
f 29 30 31
f 31 30 32
f 31 32 33
f 33 32 34
f 33 34 35
f 35 34 36
f 35 36 37
f 37 36 38
f 37 38 39
f 39 38 40
f 39 40 41
f 41 40 42
f 41 42 43
f 43 42 44
f 43 44 45
f 45 44 46
f 45 46 47
f 47 46 48
f 47 48 1
f 1 48 2
f 28 26 49
f 49 26 24
f 49 24 22
f 34 32 49
f 49 32 30
f 49 30 28
f 40 38 49
f 49 38 36
f 49 36 34
f 46 44 49
f 49 44 42
f 49 42 40
f 4 2 49
f 49 2 48
f 49 48 46
f 10 8 49
f 49 8 6
f 49 6 4
f 16 14 49
f 49 14 12
f 49 12 10
f 22 20 49
f 49 20 18
f 49 18 16
f 21 23 50
f 50 23 25
f 50 25 27
f 15 17 50
f 50 17 19
f 50 19 21
f 9 11 50
f 50 11 13
f 50 13 15
f 3 5 50
f 50 5 7
f 50 7 9
f 45 47 50
f 50 47 1
f 50 1 3
f 39 41 50
f 50 41 43
f 50 43 45
f 33 35 50
f 50 35 37
f 50 37 39
f 27 29 50
f 50 29 31
f 50 31 33
f 55 56 54
f 54 56 597
f 54 597 596
f 55 51 56
f 63 54 593
f 63 593 592
f 63 592 591
f 580 579 66
f 66 579 72
f 58 557 57
f 69 559 58
f 58 559 558
f 69 560 559
f 70 71 69
f 69 71 561
f 70 563 71
f 64 73 70
f 70 73 74
f 70 74 563
f 576 575 72
f 72 575 75
f 72 75 68
f 68 75 67
f 127 130 384
f 127 384 131
f 131 389 132
f 132 393 133
f 133 396 134
f 134 135 400
f 121 154 419
f 121 419 155
f 156 155 157
f 157 158 159
f 159 160 161
f 161 162 435
f 126 130 127
f 120 154 121
f 128 126 127
f 122 120 121
f 129 128 127
f 129 127 182
f 124 122 121
f 124 121 183
f 191 128 192
f 192 128 129
f 129 182 184
f 123 122 124
f 185 124 183
f 185 183 186
f 192 129 193
f 193 129 184
f 193 184 194
f 127 131 197
f 127 197 182
f 182 197 198
f 182 198 184
f 184 198 199
f 184 199 194
f 194 199 200
f 194 200 195
f 195 200 116
f 195 116 196
f 196 116 115
f 196 115 117
f 131 132 197
f 199 201 200
f 200 201 114
f 200 114 454
f 200 454 116
f 132 133 202
f 132 202 197
f 197 202 203
f 197 203 198
f 198 203 204
f 198 204 199
f 199 204 205
f 199 205 201
f 201 205 113
f 201 113 457
f 201 457 114
f 133 134 202
f 204 206 205
f 205 206 112
f 205 112 459
f 205 459 113
f 400 125 134
f 134 125 207
f 134 207 202
f 202 207 208
f 202 208 203
f 203 208 204
f 204 208 111
f 204 111 206
f 206 111 461
f 206 461 112
f 111 462 461
f 208 207 110
f 208 110 111
f 111 110 463
f 111 463 462
f 110 109 463
f 125 212 207
f 207 212 189
f 207 189 110
f 110 189 209
f 110 209 109
f 213 212 125
f 213 125 214
f 214 125 137
f 137 125 136
f 136 125 210
f 210 125 400
f 108 211 212
f 212 211 189
f 105 107 108
f 105 108 215
f 215 108 212
f 215 212 213
f 140 214 137
f 140 137 139
f 139 137 138
f 138 137 136
f 106 107 105
f 216 215 213
f 216 213 217
f 217 213 214
f 217 214 142
f 142 214 140
f 142 140 141
f 141 140 346
f 346 140 139
f 104 106 105
f 102 104 105
f 102 105 218
f 218 105 215
f 218 215 216
f 144 217 142
f 144 142 143
f 143 142 344
f 344 142 141
f 103 104 102
f 219 218 216
f 219 216 220
f 220 216 217
f 220 217 146
f 146 217 144
f 146 144 145
f 145 144 343
f 343 144 143
f 101 103 102
f 99 101 102
f 99 102 221
f 221 102 218
f 221 218 219
f 149 220 146
f 149 146 148
f 148 146 147
f 147 146 145
f 100 101 99
f 225 221 219
f 225 219 226
f 226 219 220
f 226 220 151
f 151 220 149
f 151 149 150
f 150 149 148
f 98 100 99
f 151 150 152
f 223 98 99
f 223 99 224
f 224 99 221
f 224 221 225
f 124 226 151
f 124 151 153
f 153 151 152
f 222 98 223
f 124 153 340
f 340 153 152
f 340 123 124
f 226 124 185
f 226 185 225
f 225 185 186
f 225 186 224
f 224 186 187
f 224 187 223
f 223 187 188
f 223 188 97
f 223 97 222
f 155 156 121
f 121 156 227
f 121 227 183
f 183 227 228
f 183 228 186
f 186 228 229
f 186 229 187
f 187 229 188
f 188 96 97
f 97 96 95
f 96 481 95
f 229 228 230
f 229 230 188
f 188 230 94
f 188 94 96
f 96 94 93
f 96 93 481
f 157 159 231
f 157 231 156
f 156 231 232
f 156 232 227
f 227 232 233
f 227 233 228
f 228 233 234
f 228 234 230
f 230 234 92
f 230 92 484
f 230 484 94
f 159 161 231
f 233 235 234
f 234 235 91
f 234 91 486
f 234 486 92
f 435 119 161
f 161 119 236
f 161 236 231
f 231 236 237
f 231 237 232
f 232 237 233
f 233 237 90
f 233 90 235
f 235 90 488
f 235 488 91
f 90 489 488
f 237 236 89
f 237 89 90
f 90 89 490
f 90 490 489
f 89 88 490
f 119 240 236
f 236 240 190
f 236 190 89
f 89 190 238
f 89 238 88
f 241 240 119
f 241 119 242
f 242 119 164
f 164 119 163
f 163 119 239
f 239 119 435
f 87 492 240
f 240 492 190
f 84 86 87
f 84 87 243
f 243 87 240
f 243 240 241
f 166 242 164
f 166 164 165
f 165 164 339
f 339 164 163
f 85 86 84
f 244 243 241
f 244 241 245
f 245 241 242
f 245 242 169
f 169 242 166
f 169 166 168
f 168 166 167
f 167 166 165
f 83 85 84
f 81 83 84
f 81 84 246
f 246 84 243
f 246 243 244
f 171 245 169
f 171 169 170
f 170 169 336
f 336 169 168
f 82 83 81
f 247 246 244
f 247 244 248
f 248 244 245
f 248 245 174
f 174 245 171
f 174 171 173
f 173 171 172
f 172 171 170
f 80 82 81
f 78 80 81
f 78 81 249
f 249 81 246
f 249 246 247
f 177 248 174
f 177 174 176
f 176 174 175
f 175 174 173
f 79 80 78
f 252 249 247
f 252 247 253
f 253 247 248
f 253 248 179
f 179 248 177
f 179 177 178
f 178 177 334
f 334 177 176
f 76 79 78
f 77 76 78
f 77 78 251
f 251 78 249
f 251 249 252
f 118 253 179
f 118 179 181
f 181 179 180
f 180 179 178
f 507 76 250
f 250 76 77
f 118 181 333
f 333 181 180
f 333 191 118
f 118 191 192
f 118 192 253
f 253 192 252
f 252 192 193
f 252 193 251
f 251 193 194
f 251 194 77
f 77 194 195
f 77 195 250
f 250 195 196
f 250 196 507
f 270 259 256
f 256 259 258
f 264 263 267
f 254 265 266
f 267 268 374
f 266 269 267
f 267 269 268
f 273 260 280
f 280 260 272
f 280 272 277
f 255 279 257
f 271 275 351
f 280 281 275
f 275 281 349
f 275 349 276
f 280 277 282
f 280 282 283
f 280 283 281
f 278 361 362
f 278 362 363
f 278 359 360
f 278 360 361
f 257 279 278
f 278 279 284
f 278 284 359
f 294 280 306
f 306 280 285
f 285 280 275
f 285 275 286
f 286 275 271
f 286 271 297
f 297 271 270
f 297 270 287
f 287 270 256
f 287 256 258
f 287 258 288
f 288 258 254
f 288 254 289
f 289 254 266
f 289 266 267
f 289 267 300
f 300 267 290
f 290 267 263
f 290 263 262
f 290 262 261
f 290 261 291
f 291 261 255
f 291 255 257
f 291 257 292
f 292 257 278
f 292 278 293
f 293 278 274
f 293 274 273
f 293 273 294
f 294 273 280
f 295 285 286
f 295 286 296
f 296 286 297
f 297 287 298
f 298 287 288
f 298 288 289
f 298 289 299
f 299 289 300
f 301 291 302
f 302 291 292
f 302 292 303
f 304 300 290
f 304 290 301
f 301 290 291
f 292 293 303
f 303 293 305
f 305 293 294
f 305 294 306
f 295 306 285
f 307 306 308
f 308 306 295
f 308 295 296
f 308 296 297
f 308 297 309
f 309 297 310
f 310 297 298
f 310 298 311
f 311 298 299
f 311 299 300
f 311 300 312
f 312 300 313
f 313 300 304
f 313 304 314
f 314 304 301
f 314 301 302
f 314 302 315
f 315 302 316
f 316 302 303
f 316 303 317
f 317 303 305
f 317 305 307
f 307 305 306
f 308 318 319
f 308 319 307
f 307 319 320
f 307 320 317
f 317 320 321
f 317 321 316
f 316 321 322
f 316 322 323
f 316 323 315
f 315 323 314
f 323 324 314
f 314 324 325
f 314 325 326
f 314 326 313
f 310 327 309
f 309 327 308
f 308 327 328
f 308 328 329
f 308 329 330
f 308 330 318
f 326 331 313
f 313 331 312
f 312 331 311
f 311 331 332
f 311 332 310
f 310 332 327
f 51 320 52
f 52 320 319
f 52 319 53
f 53 319 57
f 57 319 318
f 57 318 58
f 58 318 330
f 58 330 329
f 58 329 69
f 69 329 328
f 69 328 327
f 69 327 70
f 70 327 64
f 64 327 332
f 64 332 65
f 65 332 67
f 67 332 331
f 67 331 68
f 68 331 72
f 72 331 66
f 66 331 326
f 66 326 59
f 59 326 325
f 59 325 60
f 60 325 324
f 60 324 61
f 61 324 62
f 62 324 323
f 62 323 63
f 63 323 322
f 63 322 321
f 63 321 54
f 54 321 320
f 54 320 55
f 55 320 51
f 333 180 449
f 180 178 334
f 175 173 442
f 173 172 443
f 172 170 335
f 336 168 337
f 168 167 440
f 167 165 338
f 340 152 377
f 152 150 342
f 343 143 408
f 344 141 345
f 346 139 347
f 139 138 348
f 138 136 348
f 350 275 276
f 353 271 351
f 353 270 271
f 354 258 259
f 355 254 258
f 356 266 265
f 356 269 266
f 357 261 262
f 357 255 261
f 358 279 255
f 364 278 363
f 365 274 278
f 365 273 274
f 366 260 273
f 375 268 368
f 272 260 367
f 374 268 375
f 369 272 367
f 369 367 370
f 375 368 376
f 373 128 191
f 260 366 367
f 367 366 379
f 367 379 370
f 370 379 380
f 370 380 371
f 371 380 372
f 372 381 373
f 373 381 128
f 382 126 128
f 273 365 366
f 366 365 379
f 380 379 383
f 380 383 372
f 372 383 382
f 372 382 381
f 381 382 128
f 383 130 382
f 382 130 126
f 278 364 365
f 365 364 385
f 365 385 386
f 365 386 379
f 379 386 383
f 383 386 384
f 383 384 130
f 387 131 384
f 386 387 384
f 388 389 131
f 385 364 389
f 385 389 386
f 386 389 388
f 386 388 387
f 387 388 131
f 390 393 132
f 361 360 391
f 361 391 362
f 362 391 392
f 362 392 363
f 363 392 393
f 363 393 364
f 364 393 390
f 364 390 389
f 389 390 132
f 394 396 133
f 359 284 395
f 359 395 360
f 360 395 391
f 392 394 393
f 393 394 133
f 392 396 394
f 397 135 134
f 279 358 284
f 284 358 395
f 395 398 391
f 391 398 399
f 391 399 392
f 392 399 397
f 392 397 396
f 396 397 134
f 399 400 397
f 397 400 135
f 136 210 401
f 401 210 400
f 358 402 395
f 395 402 398
f 399 401 400
f 399 348 401
f 401 348 136
f 255 357 358
f 358 357 402
f 402 403 398
f 398 403 404
f 398 404 399
f 399 404 348
f 404 347 348
f 348 347 139
f 357 405 402
f 402 405 403
f 404 346 347
f 404 345 346
f 346 345 141
f 262 406 357
f 357 406 405
f 405 407 403
f 403 407 408
f 403 408 404
f 404 408 344
f 404 344 345
f 344 408 143
f 406 409 405
f 405 409 407
f 407 343 408
f 409 342 407
f 343 407 145
f 150 148 342
f 410 342 409
f 409 406 411
f 411 406 263
f 263 406 262
f 342 148 147
f 342 147 407
f 407 147 145
f 412 410 409
f 341 152 342
f 341 342 410
f 413 412 409
f 413 409 411
f 264 411 263
f 377 152 341
f 341 410 412
f 413 411 264
f 377 341 376
f 376 341 412
f 376 412 375
f 375 412 413
f 375 413 374
f 374 413 267
f 267 413 264
f 122 123 414
f 269 356 268
f 268 356 415
f 268 415 368
f 368 415 416
f 368 416 376
f 376 416 417
f 376 417 377
f 377 417 414
f 377 414 340
f 340 414 123
f 414 417 122
f 418 120 122
f 416 418 417
f 417 418 122
f 418 154 120
f 265 420 356
f 356 420 421
f 356 421 415
f 415 421 422
f 415 422 416
f 416 422 419
f 416 419 418
f 418 419 154
f 423 155 419
f 254 355 265
f 265 355 420
f 422 423 419
f 423 422 155
f 424 157 155
f 258 354 355
f 421 424 422
f 422 424 155
f 425 158 157
f 354 426 355
f 355 426 427
f 355 427 420
f 420 427 428
f 420 428 421
f 421 428 425
f 421 425 424
f 424 425 157
f 428 159 158
f 354 259 426
f 425 428 158
f 429 160 159
f 427 430 428
f 428 430 429
f 428 429 159
f 430 161 160
f 270 353 259
f 259 353 426
f 429 430 160
f 431 162 161
f 353 432 426
f 426 432 433
f 426 433 427
f 427 433 434
f 427 434 430
f 430 434 431
f 430 431 161
f 434 435 431
f 431 435 162
f 436 239 435
f 434 436 435
f 339 163 437
f 351 352 353
f 353 352 432
f 434 437 436
f 436 437 163
f 436 163 239
f 352 351 438
f 352 438 432
f 432 438 439
f 432 439 433
f 433 439 440
f 433 440 434
f 434 440 339
f 434 339 437
f 275 350 351
f 351 350 438
f 440 338 339
f 339 338 165
f 338 440 167
f 276 349 350
f 439 337 440
f 440 337 168
f 349 441 350
f 350 441 442
f 350 442 438
f 438 442 443
f 438 443 439
f 439 443 336
f 439 336 337
f 281 444 349
f 349 444 441
f 443 335 336
f 336 335 170
f 335 443 172
f 443 442 173
f 444 445 441
f 441 445 378
f 441 378 442
f 442 378 175
f 446 445 444
f 446 444 447
f 283 444 281
f 445 334 176
f 445 176 378
f 378 176 175
f 447 444 282
f 282 444 283
f 449 180 334
f 449 334 450
f 450 334 445
f 450 445 451
f 451 445 446
f 451 446 447
f 451 447 448
f 448 447 277
f 277 447 282
f 451 448 277
f 191 333 373
f 373 333 372
f 372 333 449
f 372 449 371
f 371 449 450
f 371 450 370
f 370 450 451
f 370 451 369
f 369 451 272
f 272 451 277
f 117 115 453
f 453 115 116
f 453 116 454
f 455 454 456
f 454 114 456
f 456 114 457
f 457 113 458
f 458 113 459
f 459 112 460
f 460 112 461
f 463 109 464
f 464 109 189
f 109 209 189
f 189 211 465
f 465 211 108
f 465 108 466
f 466 108 107
f 466 107 467
f 467 107 468
f 468 107 106
f 468 106 469
f 469 106 470
f 470 106 104
f 470 104 471
f 471 104 472
f 472 104 103
f 472 103 473
f 473 103 474
f 474 103 101
f 474 101 475
f 475 101 476
f 476 101 100
f 476 100 477
f 477 100 478
f 478 100 98
f 478 98 479
f 479 98 480
f 222 480 98
f 222 97 95
f 481 93 482
f 482 93 94
f 482 94 483
f 483 94 484
f 484 92 485
f 485 92 486
f 486 91 487
f 487 91 488
f 490 88 491
f 491 88 190
f 88 238 190
f 493 492 87
f 493 87 86
f 493 86 494
f 494 86 495
f 495 86 85
f 495 85 496
f 496 85 497
f 497 85 83
f 497 83 498
f 498 83 499
f 499 83 82
f 499 82 500
f 500 82 501
f 501 82 80
f 501 80 502
f 502 80 503
f 503 80 79
f 503 79 504
f 504 79 505
f 505 79 76
f 505 76 506
f 506 76 507
f 452 507 196
f 452 196 117
f 507 452 506
f 492 493 508
f 492 508 190
f 190 508 491
f 465 509 189
f 189 509 464
f 494 510 493
f 491 508 511
f 491 511 490
f 490 511 512
f 490 512 489
f 489 512 513
f 489 513 488
f 488 513 487
f 487 514 486
f 486 514 485
f 485 515 484
f 484 515 483
f 482 516 481
f 481 516 517
f 481 517 95
f 95 517 222
f 479 518 478
f 478 518 519
f 478 519 477
f 477 519 520
f 477 520 476
f 476 520 521
f 476 521 475
f 475 521 522
f 475 522 474
f 474 522 523
f 474 523 473
f 473 523 524
f 473 524 472
f 472 524 525
f 472 525 471
f 471 525 526
f 471 526 470
f 470 526 527
f 470 527 469
f 469 527 528
f 469 528 468
f 468 528 529
f 468 529 467
f 467 529 530
f 467 530 466
f 466 530 531
f 466 531 465
f 465 531 509
f 509 532 464
f 464 532 533
f 464 533 463
f 463 533 534
f 463 534 462
f 462 534 535
f 462 535 461
f 461 535 536
f 461 536 460
f 460 536 537
f 460 537 459
f 459 537 538
f 459 538 458
f 458 538 539
f 458 539 457
f 457 539 540
f 457 540 456
f 456 540 541
f 456 541 455
f 455 541 542
f 455 542 454
f 454 542 543
f 454 543 453
f 453 543 544
f 453 544 117
f 117 544 545
f 117 545 452
f 545 546 452
f 452 546 506
f 510 547 493
f 493 547 548
f 493 548 508
f 517 549 222
f 222 549 480
f 531 550 509
f 509 550 532
f 546 551 506
f 506 551 552
f 506 552 505
f 505 552 553
f 505 553 504
f 504 553 554
f 504 554 503
f 503 554 555
f 503 555 502
f 502 555 556
f 502 556 501
f 501 556 557
f 501 557 500
f 500 557 58
f 500 58 499
f 499 58 558
f 499 558 498
f 498 558 559
f 498 559 497
f 497 559 560
f 497 560 496
f 496 560 69
f 496 69 495
f 495 69 561
f 495 561 494
f 494 561 562
f 494 562 510
f 510 562 547
f 548 563 508
f 508 563 564
f 508 564 511
f 511 564 565
f 511 565 512
f 512 565 566
f 512 566 513
f 513 566 567
f 513 567 487
f 487 567 568
f 487 568 514
f 514 568 569
f 514 569 485
f 485 569 570
f 485 570 515
f 515 570 571
f 515 571 483
f 483 571 572
f 483 572 482
f 482 572 573
f 482 573 516
f 516 573 574
f 516 574 517
f 517 574 549
f 549 575 480
f 480 575 576
f 480 576 479
f 479 576 577
f 479 577 518
f 518 577 578
f 518 578 519
f 519 578 579
f 519 579 520
f 520 579 580
f 520 580 521
f 521 580 66
f 521 66 522
f 522 66 581
f 522 581 523
f 523 581 582
f 523 582 524
f 524 582 583
f 524 583 525
f 525 583 584
f 525 584 526
f 526 584 585
f 526 585 527
f 527 585 586
f 527 586 528
f 528 586 587
f 528 587 529
f 529 587 588
f 529 588 530
f 530 588 589
f 530 589 531
f 531 589 550
f 550 590 532
f 532 590 591
f 532 591 533
f 533 591 592
f 533 592 534
f 534 592 593
f 534 593 535
f 535 593 594
f 535 594 536
f 536 594 595
f 536 595 537
f 537 595 596
f 537 596 538
f 538 596 539
f 539 596 597
f 539 597 540
f 540 597 598
f 540 598 541
f 541 598 599
f 541 599 542
f 542 599 600
f 542 600 543
f 543 600 601
f 543 601 544
f 544 601 602
f 544 602 545
f 545 602 546
f 602 52 546
f 546 52 551
f 551 52 552
f 552 52 53
f 552 53 553
f 553 53 57
f 553 57 554
f 555 554 57
f 555 57 556
f 556 57 557
f 562 561 71
f 562 71 547
f 547 71 563
f 547 563 548
f 563 74 564
f 564 74 73
f 564 73 565
f 565 73 566
f 566 73 64
f 566 64 567
f 567 64 568
f 568 64 569
f 569 64 65
f 569 65 570
f 570 65 67
f 570 67 571
f 572 571 67
f 572 67 573
f 573 67 574
f 574 67 75
f 574 75 549
f 549 75 575
f 577 576 72
f 577 72 578
f 578 72 579
f 581 66 59
f 581 59 582
f 582 59 583
f 583 59 60
f 583 60 584
f 584 60 585
f 585 60 586
f 586 60 61
f 586 61 587
f 587 61 62
f 587 62 588
f 589 588 62
f 589 62 550
f 550 62 590
f 590 62 63
f 590 63 591
f 594 593 54
f 594 54 595
f 595 54 596
f 598 597 56
f 598 56 599
f 599 56 600
f 600 56 51
f 600 51 601
f 601 51 602
f 602 51 52
