v 0.00379138639 0.00930679162 0.00211389242
v 0.00416014552 0.00959822753 0.00100128471
v 0.00445695684 0.00942942388 0.000407316982
v 0.00525409832 0.00909089943 -0.000820548451
v 0.00934543036 0.00378732601 0.00247864354
v 0.00805997943 0.00431140723 0.00517146039
v 0.00384712446 0.00891259587 0.00382509168
v 0.00427056477 0.00819668488 0.00494403513
v 0.00920575081 0.00457000687 1.47953887e-05
v 0.00949402767 0.00419966312 0.00093011204
v 0.0123576792 0.00123281459 0.000588841514
v 0.00859407994 0.00399230996 0.00455836142
v 0.0118815248 0.000749591184 0.00356097399
v 0.00630314513 0.00557162868 0.00590413315
v 0.00476163939 0.0077233554 0.00567010082
v 0.000836060346 0.0121708951 0.00239681803
v 0.00565182003 0.00869935581 -0.00111233062
v 0.0059844175 0.00845093436 -0.0012929535
v 0.00626341664 0.00818766687 -0.00147808485
v 0.0114868531 0.000778999405 0.00469273428
v 0.00567164321 0.00639848076 0.00596047851
v 0.00388740648 0.00676976394 0.00967652341
v 0.00739485961 0.00708890028 -0.00170378077
v 0.00850592996 0.00565022775 -0.00116382334
v 0.000777890738 0.00520649074 0.00993928161
v 0.00278433682 0.00637255258 0.0103482067
v 0.00164868052 0.00773598655 0.00963684688
v -0.00118275039 0.00785934807 0.00798931638
v 0.00070533048 0.00901856563 0.00857774188
v -1.95740118e-06 0.0101625351 0.00721924698
v -0.00220361885 0.00991301398 0.00491996365
v -0.00044284056 0.0111165512 0.00562127831
v -0.000596320416 0.0118375195 0.00385616525
v -0.000798346731 0.0119773227 0.00264391507
v 9.08652733e-05 0.0124517397 -0.00020528818
v -0.00213125424 0.0104092132 -0.00163553153
v -0.00130349298 0.0101306169 -0.0033498274
v 0.00205753851 0.0115365397 -0.0040347752
v 0.00324807455 0.0107334054 -0.00526610346
v 0.00453390655 0.00970651305 -0.00618888467
v 0.00432958944 0.00706980718 -0.0074429918
v 0.00679578848 0.00764359841 -0.00692876728
v 0.00814682026 0.0065470544 -0.00679933922
v 0.00536452751 0.00393848206 -0.00806058861
v 0.00825422473 0.00318989422 -0.00694733811
v 0.00939429262 0.00515892382 -0.00637021547
v 0.0104832159 0.00380864592 -0.00556934999
v 0.0101703509 0.000646011949 -0.0048159849
v 0.0113680379 0.00255499273 -0.00443246586
v 0.0120097494 0.00145098758 -0.00300780818
v 0.0110948161 -0.00126845418 -0.00162853411
v 0.0123779789 0.000549170159 -0.00136105679
v 0.0124559436 -0.000109682763 0.00043149237
v 0.0121699948 -0.000651130138 0.00149565011
v 0.00994401625 -0.00240671318 0.00433249651
v 0.00889465921 -0.00286392051 0.00531325967
v 0.00990112979 -1.31024088e-05 0.0074573052
v 0.00873783095 0.000719136011 0.00875415738
v 0.00744677599 0.00168015898 0.00975390127
v 0.00589918001 0.00320854714 0.0104965827
v 0.00599944601 0.0028208381 0.0104148711
v 0.00536179927 0.00409793385 0.0106566449
v -0.00757160725 -0.00714396001 0.0068637524
v -0.00838428172 0.00501096073 -0.00140056722
v -0.00624835004 -0.00289590419 -0.0103851983
v -0.00555473122 -0.00048940257 -0.00976971243
v -0.00538517479 -0.00368341238 -0.010622639
v -0.00334410828 -0.0021741017 -0.0103528336
v 5.48198886e-05 -0.0124576289 -0.000290189141
v -0.00528450888 -0.00928344779 0.00641663741
v -0.00285078118 -0.00853796983 0.0067532674
v -0.00619570501 -0.00847365129 0.00672749371
v -0.0038417171 -0.00576243273 0.00795084903
v -0.00469709565 -0.00996512251 0.00601007293
v -0.00248252812 -0.0111453605 0.0046618823
v -0.00266112566 -0.011298532 0.00453244775
v -0.00136338916 -0.0117931362 0.00329533346
v -0.00154347128 -0.0119629071 0.0031283388
v -0.000435427858 -0.0121822041 0.00170842061
v -0.000624205648 -0.0123553413 0.00149581958
v 0.00026454307 -0.0122956658 -3.25888829e-05
v 0.000575164806 -0.012214248 -0.00167631964
v 0.00345021372 -0.00979614402 -0.00136969106
v 0.000761340004 -0.0118115437 -0.00349670778
v 0.00354919962 -0.00932012954 -0.00323057803
v 0.000506666701 -0.0114698494 -0.0048814183
v 0.000663229525 -0.011143867 -0.00526406817
v 0.0033648426 -0.00858555369 -0.00499896881
v 0.000187869571 -0.0106054571 -0.0065667981
v 0.000282587895 -0.0102427162 -0.00688302249
v 0.00290617106 -0.00762090778 -0.00660056303
v -0.000409618873 -0.00952843166 -0.0080402602
v -0.000362245425 -0.00914696107 -0.00828205328
v 0.00218557051 -0.00647284598 -0.00796900011
v -0.0012578765 -0.00828922501 -0.00923391792
v -0.00124687737 -0.00790274708 -0.00940345499
v 0.00123866021 -0.00518366544 -0.00904473312
v -0.00218917553 -0.0067687716 -0.0101065236
v 0.000107721756 -0.00380708492 -0.00978075225
v -0.00339210663 -0.00539902403 -0.0105810782
v -0.00419108271 -0.00486380945 -0.0106826758
v -0.00114329922 -0.00240575151 -0.0101429237
v -0.00453008216 -0.00453024356 -0.0106940938
v -0.00705468048 -0.00240923513 -0.0100953518
v -0.00874361283 -0.000584411148 -0.00868371872
v -0.00987398467 0.00015319533 -0.007372883
v -0.0100718969 -5.63803927e-05 -0.00733724102
v -0.0108277316 0.000635815203 -0.0058253218
v -0.0110446338 0.000406052737 -0.00575585932
v -0.0115640909 0.000842325493 -0.0041092034
v -0.0117871462 0.000581921081 -0.00400046792
v -0.0122247097 0.000562202977 -0.00160215852
v -0.00996088532 0.00324327898 -0.000246173989
v -0.0124713348 3.66369188e-05 -0.000323010969
v -0.0123399305 9.24702113e-05 0.000210503953
v -0.0100109443 0.00267879067 0.00159144077
v -0.0121713877 -0.000638612387 0.00194918833
v -0.00977376242 0.00186629745 0.00332008512
v -0.0117244523 -0.00159303329 0.00351771255
v -0.00926086948 0.000838500105 0.00486467769
v -0.0113121092 -0.00267983777 0.00452232409
v -0.0110176843 -0.0027323907 0.00485284749
v -0.00848914921 -0.0003578863 0.00616255555
v -0.0104005446 -0.00394548966 0.00563944315
v -0.0100816887 -0.00400528328 0.00589476756
v -0.00749478894 -0.00167776757 0.00715648144
v -0.00913440007 -0.00518344504 0.00651171837
v -0.00631465171 -0.00306010417 0.00780544248
v -0.00826951538 -0.00620085087 0.00682331001
v -0.00166166454 -0.00638031754 0.00778750376
v -0.00324040383 0.000827532086 -0.00963905904
v -0.000611600231 -0.00405025561 0.00872232133
v -0.00141388723 -0.00072890203 -0.0099837047
v -0.000785688806 0.00197663463 -0.00939829273
v 0.00130458289 0.00337805777 -0.00889571902
v 0.0027128144 0.00545396007 -0.00818499883
v 0.00985917775 -0.00324552194 0.00226946814
v -9.84541094e-05 0.012490782 0.000560400092
v 0.000430227312 -0.00164928545 0.00948394948
v 0.00458014049 0.0038976535 0.0106696194
v 0.000976803893 -0.00836349214 0.00576239748
v 0.00213635863 -0.00624608109 0.00701967529
v 0.00323341408 -0.00401733769 0.00814003376
v 0.00415674692 -0.000404869277 0.00963065465
v 0.00551454845 -0.00149666477 0.00880545447
v 0.00301077811 -0.00938767652 0.00263053422
v 0.00437812823 -0.0075449154 0.00409421788
v 0.00564200909 -0.00556599439 0.00548117398
v 0.00677503634 -0.00238825398 0.00765229088
v 0.00788038592 -0.00304696013 0.00621949782
v 0.0059743144 -0.0074494547 0.000669599681
v 0.00689881779 -0.00603187199 0.00286888209
v 0.00959206657 -0.00327339606 0.003190525
v 0.00590204423 -0.00753179968 -0.000513835359
v 0.00945557612 -0.00381912783 -0.000339312106
v 0.00690257816 -0.00636366617 -0.00166658909
v 0.0076906447 -0.00500130715 -0.00276896671
v 0.00834094163 -0.00350817075 -0.00379942424
v 0.00568870159 -0.00589272974 -0.00507600257
v 0.00854861543 -0.00127288177 -0.00542242528
v 0.00646390184 -0.00245289751 -0.00671238951
v 0.00426334745 -0.00356463105 -0.0078720017
v 0.00667004318 0.00131219105 -0.00760883568
v 0.00436111967 0.000254250214 -0.0085888383
v 0.0069106221 0.00797697139 -0.00678478915
v 0.00603621653 0.00536305029 -0.00763206304
v 0.00268691233 0.00199604352 -0.00896518053
v 0.00197689164 -0.000787501294 -0.00939819695
v -0.00592541891 0.00290935464 -0.00778055931
v -0.0035642555 0.00426178132 -0.00787318717
v -0.00114326607 0.00551141821 -0.00782111717
v 0.00133732753 0.00776029803 -0.00693987128
v -0.00805686254 0.00406544709 -0.00476176511
v -0.00589226459 0.00568804106 -0.00507735366
v -0.00362426403 0.00718092099 -0.00530587381
v 4.71864532e-05 0.00870544324 -0.00586451401
v -0.00111441526 0.00941290832 -0.00450011187
v -0.00637551345 0.00691243575 -0.00166936365
v -0.00501462609 0.00770496024 -0.00277445492
v -6.20538911e-05 0.0124471219 0.000345541822
v -0.0122653897 0.000463071656 -0.0021507007
v -0.000387614461 0.0123408468 0.00168330847
v -0.00347545098 0.009811723 0.00117800752
v -0.00603695103 0.00725225424 0.00195382881
v -0.00778928287 0.00550035987 0.00138662162
v -0.00413268235 0.00826544264 0.00432708666
v -0.0055662168 0.00564092814 0.00548190661
v -0.00731906637 0.00388925857 0.00491500872
v -0.0031097327 0.00623043673 0.00745827871
v -0.00401667196 0.00323252362 0.00814070612
v -0.00576917297 0.00148185344 0.00757447474
v -0.00112610369 0.00359267962 0.00948349096
v -0.0040111688 -0.000588343928 0.00868288632
v 0.00212722471 0.00347173531 0.0103377837
v 0.00148615206 0.000793762145 0.0100636244
v -0.00198207375 0.00077126235 0.00936612305
v -0.00269306134 -0.00200041179 0.00897627263
v -0.00487658434 -0.00476469983 0.0080584731
v -0.00388159036 -0.00937946603 -0.00160927775
v -0.00379819223 -0.00876748245 -0.0037637216
v -0.00404034793 -0.00962702442 -0.00115619856
v -0.0094221296 -0.00382521509 -0.00252962836
v -0.00958810379 -0.00402450708 -0.00145716444
v -0.00940885999 -0.00449099817 -0.000290027725
v -0.00566211041 -0.00852763315 0.00126783132
v -0.00245079137 -0.0120070283 0.00209807262
v -0.00380921658 -0.00931718321 -0.00290559948
v -0.000853484364 -0.0121775834 -0.00232188524
v -0.000824595059 -0.011311817 -0.00509348244
v -0.00893217527 -0.00373499571 -0.00344925466
v -0.00411789216 -0.00845582969 -0.0046750622
v -0.00444082681 -0.00791343445 -0.00515501916
v -0.00467719437 -0.00762385989 -0.0054603868
v -0.00594747397 -0.00609656357 -0.00603829932
v -0.00352255205 -0.00718707215 -0.00951386847
v -0.00743598766 -0.00457058521 -0.00549570965
v -0.0112582812 -0.000818261501 -0.00527943407
v -0.0087552463 -0.00549734817 0.000986337978
v -0.0105103905 -0.00475954692 0.00461418806
v -0.00766464671 -0.00681703715 0.00166213216
v -0.00952464888 -0.00596671979 0.00530023752
v -0.0104261152 -0.00492705485 0.00495474073
v -0.00789206609 -0.00773576654 0.00572273958
v -0.0102258379 -0.00131570976 -0.00693647684
v -0.00498909304 -0.00559198539 -0.00991229834
v -0.0039689876 -0.00658217286 -0.00992206459
v -0.00371581862 -0.00371586959 0.00280089556
v -0.00455181452 -0.00282550718 0.00263229896
v -0.00564405559 -0.00136517665 0.00149176757
v -0.00592727015 -0.0005501477 -0.000155256404
v -0.00572860389 -0.000233250583 -0.00175292459
v -0.004875725 -0.000563499141 -0.00337199987
v -0.00383544426 -0.00126162796 -0.00443180091
v -0.00194576211 -0.00303576196 -0.00478973004
v -0.000736032524 -0.00457838598 -0.00375874075
v -0.000288118471 -0.00548533723 -0.00233651437
v -0.000397471065 -0.00592038577 -0.00064978836
v -0.00271196869 -0.00464895165 0.00258147664
v -0.00264012567 -0.00276129188 -0.00348914731
v -0.00452834318 -0.00229337398 0.000911020138
v -0.00482982943 -0.0017679302 0.000217272626
v -0.00491551402 -0.00137364814 -0.000738663922
v -0.00470787832 -0.00129288118 -0.00163214029
v -0.00404190562 -0.00157561917 -0.00281939863
v -0.00167621874 -0.00391085419 -0.00291387124
v -0.00129799468 -0.0046203739 -0.00188737692
v -0.00140327885 -0.00492314051 -0.000623451906
v -0.000963663764 -0.00562004708 0.000173683856
v -0.00148363802 -0.00526438472 0.000682900183
v -0.00356416355 -0.00344323255 0.00148646441
v 0.00276124199 0.00264011174 0.00348909753
v 0.00142518746 0.0042566047 0.00262041823
v 0.00143462751 0.00495167031 0.000437881246
v 0.0022934288 0.00452826886 -0.000911055912
v 0.00344311962 0.00356425394 -0.00148643022
v 0.00477924466 0.00194776931 -0.000617643014
v 0.00483072142 0.00128886535 0.00126410251
v 0.00414641779 0.00150919468 0.00270162414
v 0.00494279823 0.00236896528 -0.00242907309
v 0.0037158077 0.00371587594 -0.00280086817
v 0.00252846026 0.00481413491 -0.00252473668
v 0.00434189489 0.00090301354 0.00397403418
v 0.00487571409 0.000563505483 0.00337202726
v 0.00548539786 0.000288085995 0.00233651002
v 0.00585990599 0.000344458413 0.00100131212
v 0.00591401679 0.000799031823 -0.000574460783
v 0.00132876089 0.00564086754 -0.00136928381
v 0.000883871821 0.00585306008 -0.000648425235
v 0.000319908313 0.0059200693 0.000891141743
v 0.000407195958 0.00516170274 0.00297026703
v 0.000903064517 0.00434184392 0.00397403418
v 0.00155558893 0.0034922865 0.00458425608
v 0.00303580869 0.00194577269 0.00478975143
v -0.0084803558 -0.00650654637 0.00665882997
v -0.0100671775 -0.00484441588 0.00594824911
v -0.0117891485 -0.00226705949 0.00377459704
v -0.0120601864 -0.00166430997 0.00306231896
v -0.0123173649 -0.00124913137 0.00225718199
v -0.0124496998 -0.000749570551 0.00143137753
v -0.012564605 -0.000450488734 0.00054879366
v -0.0125749087 -4.42674914e-05 -0.000699760924
v -0.00435859511 -0.00503205936 -0.0106795293
v -0.00325777722 -0.00609833136 -0.0104956439
v -0.00233888795 -0.00746225224 -0.00993602026
v -0.000555944443 -0.00986916075 -0.00786351508
v 0.000203902034 -0.011174914 -0.00578384222
v 0.000378662852 -0.0119126407 -0.00403945269
v 0.000421375681 -0.0121591203 -0.0030947013
v -0.0112912977 -0.00375196829 0.00399449444
v -0.0117685489 -0.00299145569 0.00308464293
v -0.0120490248 -0.00250112693 0.00251586615
v -0.0125053536 -0.00141059791 0.000545253041
v -0.0122077971 -0.000477973478 -0.00321350936
v -0.0120099445 -0.00054757555 -0.00365950415
v -0.010983976 -0.000781725762 -0.00611636372
v -0.00974835464 -0.00152744697 -0.00771577348
v -0.00891082566 -0.00207610638 -0.00858516502
v -0.00801113101 -0.002765332 -0.0092382638
v -0.00197313658 -0.00901077015 -0.00853470927
v -0.00094660494 -0.0106368462 -0.00668065014
v -0.000520722452 -0.0120859593 -0.00351108277
v -0.000987972792 -0.0124665229 -0.00094890625
v -0.00131816218 -0.0124891965 0.000214650022
v -0.00179240593 -0.0124005025 0.00153871299
v -0.00280573818 -0.0118845918 0.0029005485
v -0.00360772175 -0.011381307 0.00378775217
v -0.00445921046 -0.0107855311 0.0046054455
v -0.00570445617 -0.00979112671 0.00537439377
v -0.00672815619 -0.00383815367 -0.00989255357
v -0.00673672373 -0.00368779592 -0.0100491581
v -0.00696720798 -0.00866574845 0.0058214016
v -0.00631687858 -0.003762303 -0.0103808591
v -0.00844908563 -0.00719672089 0.00599665638
v -0.00688087575 -0.00871757063 0.00612601048
v -0.0071097229 -0.008371022 0.0063800272
v -0.00665894842 -0.00862365223 0.00653677413
v -0.00750881979 -0.00750887077 0.00675327955
v -0.00518579729 -0.00527338666 -0.0101601891
v -0.00493380945 -0.005258582 -0.0104262799
v -0.00552024592 -0.00421860814 -0.0106381013
v -0.000979607793 -0.00905513446 -0.00868432344
v -0.00682837317 -0.00817334335 0.0067038077
v -0.00429831473 -0.0108944563 0.00486887195
v -0.00478281326 -0.0104237835 0.00550359806
v -0.0061397011 -0.0088143317 0.00655610739
v -0.00545067141 -0.00942462366 0.00631184755
v -0.00461192465 -0.0103625489 0.00564109948
v -0.00402967842 -0.0104937941 0.00557955149
v -0.00218761983 -0.0122146026 0.00266001768
v -0.00252716199 -0.0119300042 0.00355109879
v -0.00315499554 -0.0113578767 0.00458972129
v -0.00345820734 -0.0110039679 0.00503237425
v -0.00226706812 -0.0117891995 0.00377459704
v -0.00173336813 -0.0120871631 0.00304432093
v -0.00069022895 -0.0126305036 -0.000930411756
v -0.000728195413 -0.0127000134 -5.8074985e-06
v -0.00121279078 -0.0124467333 0.00191144177
v -0.000819867345 -0.0124770967 0.00142224012
v -0.000461327849 -0.0126410601 0.000185933164
v -0.000145023557 -0.0125787822 -0.000353143825
v -0.000310894015 -0.0118788878 -0.00443460757
v -6.72890018e-05 -0.012200671 -0.00359987315
v 0.000112707881 -0.0124178375 -0.002687725
v 0.000161080246 -0.0124905895 -0.00126988113
v 0.000260526446 -0.012387809 -0.00220148386
v -0.00103267053 -0.0101613235 -0.00752000483
v -0.000535228631 -0.0106617587 -0.00691812809
v 0.000142925007 -0.0114917338 -0.00529247086
v -0.000231340803 -0.0105943871 -0.00691355785
v -0.00184262919 -0.00846527314 -0.00930496934
v -0.00129494992 -0.00922229694 -0.00860967624
v -0.00268692324 -0.00806694906 -0.00924496473
v -0.00280149977 -0.00781064799 -0.00952119008
v -0.00355919461 -0.00622330381 -0.0104440474
v -0.00311828926 -0.00704410475 -0.0101230368
v -0.00387345763 -0.00646010105 -0.0101670622
v -0.00503200838 -0.00435864608 -0.0106795293
v -0.00571758101 -0.00370496194 -0.010580824
v -0.00895328162 -0.00182850825 -0.00879588083
v -0.00640744516 -0.00307845752 -0.0103846055
v -0.00893422759 -0.0016201726 -0.00890934925
v -0.00755824684 -0.00240716854 -0.00987687247
v -0.00773104609 -0.00185646601 -0.00970894232
v -0.00947957423 -0.000980383144 -0.00840322789
v -0.0084251816 -0.00143074672 -0.00923793138
v -0.0110690496 -0.000561540102 -0.00616695464
v -0.00905520269 -0.000979539561 -0.00868432344
v -0.0110957722 -0.000328415305 -0.00621260361
v -0.0093648563 -0.000720717362 -0.00836300955
v -0.0102078373 -0.000255700755 -0.00735573591
v -0.0109597378 -4.33775719e-05 -0.00631900012
v -0.0111748631 0.000203970266 -0.00578384222
v -0.0121514295 -8.74969742e-05 -0.00364825275
v -0.0117704366 0.000223412518 -0.00463114435
v -0.0125365427 -0.000384666442 -0.00189245416
v -0.0119126494 0.000378671479 -0.00403945269
v -0.0125756769 -1.14273836e-05 -0.00181423345
v -0.0121512422 0.000431539455 -0.00310725311
v -0.0126050494 -0.00123461526 0.000676485972
v -0.0123878176 0.000260535074 -0.00220148386
v -0.0126543248 -0.00103095423 0.000790923061
v -0.0125271465 -0.0012091791 0.00174590818
v -0.0117510682 -0.0030541537 0.00366787807
v -0.0117739845 -0.00289759201 0.0038467357
v -0.0117094758 -0.00273151216 0.0039877772
v -0.0111812908 -0.00334218963 0.00483267642
v -0.0104556496 -0.0048006951 0.00534102862
v -0.00967869501 -0.00559273119 0.00603206963
v -0.00930314821 -0.00627333391 0.00579452547
v -0.00936014621 -0.00620072589 0.00564513726
v -0.0086302706 -0.00661969105 0.00649414319
v -0.00838381598 -0.00707965772 0.00635249792
v 0.00475662229 0.00478870115 0.010678674
v 0.00612026022 0.00348759476 0.010486858
v 0.00712670816 0.00253818542 0.0101130973
v 0.00746732234 0.00233394082 0.00992105195
v 0.00811808873 0.00180819457 0.0095096051
v 0.00871604594 0.00126140012 0.00902782853
v 0.00937462592 0.000903291393 0.00842050191
v 0.00991088804 0.000466650696 0.00778544491
v 0.0104870549 0.000235846825 0.00704047613
v 0.010934405 -7.34834948e-05 0.00628332644
v 0.0113676026 -0.000239976475 0.0054556526
v 0.0117768248 -0.000254710553 0.00456563642
v 0.0118018817 -0.00043947927 0.00428340657
v 0.0121747451 -0.00044184756 0.00297545367
v 0.0125029209 -9.72363221e-05 0.00179829657
v 0.0126031856 0.000111422855 0.000861894998
v 0.0126272983 0.000380871726 -4.69098433e-05
v 0.0125782346 0.000715555307 -0.000932882269
v 0.0124565935 0.00111198136 -0.00178549483
v 0.0122638362 0.00156637727 -0.00259558043
v 0.0120021158 0.00207255517 -0.00335334607
v 0.0116744227 0.00262553969 -0.00405054975
v 0.0112842763 0.00321836903 -0.00467955389
v 0.0108364639 0.00384541242 -0.00523250764
v 0.0103358196 0.00449835922 -0.00570370268
v 0.00978761275 0.00517006049 -0.00608815096
v 0.00919887179 0.00585324044 -0.00638070877
v 0.00857571574 0.00654041189 -0.0065783681
v 0.00792538384 0.00722318332 -0.00667892346
v 0.00622305954 0.00881634315 -0.0065555302
v 0.00553335683 0.00942960854 -0.00631646913
v 0.00520245954 0.00976053825 -0.00610417864
v 0.00455783651 0.0102962994 -0.00573149667
v 0.00385605537 0.0107574805 -0.00533550959
v 0.00328014727 0.011243694 -0.00473516957
v 0.00262622526 0.0116097042 -0.00416807784
v 0.00212676937 0.011973696 -0.0034222557
v 0.00155430239 0.0122150379 -0.00272533838
v 0.0010927706 0.01241635 -0.00192045744
v 0.000687689606 0.01254673 -0.00107211548
v 0.000412543594 0.0126259152 -0.000133397381
v -8.34786342e-05 0.0125135778 0.00172363793
v -0.000214438238 0.0123470326 0.00266442656
v -0.000275144246 0.0121117708 0.00358083144
v -0.000262555066 0.011809179 0.00447968059
v -0.000177245902 0.011442911 0.00534990795
v -1.97346001e-05 0.0110166739 0.00618267825
v 0.000207494554 0.0105357864 0.00696749093
v 0.000716492424 0.0101179016 0.00766308634
v 0.00107053736 0.00955176241 0.00832025416
v 0.00148366065 0.00894948021 0.00890579357
v 0.00195206323 0.00831708203 0.00941404021
v 0.00285116467 0.00683868225 0.0102321353
v 0.0035502997 0.00643808409 0.010384503
v 0.00394781594 0.00531235846 0.0106523257
v 0.00420126637 0.00587394368 0.0104485987
v 0.000354878452 0.012644481 0.000918887054
v 0.00735602524 0.0080360284 -0.0064934271
v 0.0123902495 3.15156464e-05 0.00270817888
v 0.0121583183 -2.72768006e-05 0.00360952256
v 0.00247011493 0.00766202469 0.00983870336
v 0.000695682412 0.0106054089 0.00690875134
v 0.000472685821 0.0110715043 0.00615532952
v 0.000317460429 0.0114850167 0.0053556324
v 0.000231225098 0.0118413599 0.00451858144
v 0.000215327361 0.0121364082 0.00365384147
v 0.000270064375 0.0123665366 0.00277202839
v 0.000394362505 0.012529662 0.00188150906
v 0.000845873353 0.0126475063 0.000116989839
v 0.00116812518 0.0126008726 -0.000736070042
v 0.00154992928 0.0124843251 -0.00155829871
v 0.00198705724 0.0122991827 -0.00233898279
v 0.00247433454 0.0120476975 -0.00306909996
v 0.00300688905 0.0117322329 -0.00374194529
v 0.00357785413 0.0113569591 -0.00434825472
v 0.00418107754 0.0109259209 -0.00488166061
v 0.0048102025 0.0104436537 -0.00533673114
v 0.00545748149 0.00991617854 -0.00570728496
v 0.00611550296 0.00934940046 -0.0059897178
v 0.00677776331 0.00874878919 -0.00618144201
v 0.00808167033 0.00747728618 -0.00628206847
v 0.00870985171 0.00681953382 -0.00619033791
v 0.00931188335 0.00615778603 -0.00600494409
v 0.00988110829 0.00549918804 -0.00572806784
v 0.0104114235 0.00485098878 -0.00536283444
v 0.0108963461 0.00422101755 -0.00491324645
v 0.011331246 0.00361522252 -0.00438427717
v 0.0117099988 0.00304234739 -0.00378267642
v 0.0120295191 0.00250685118 -0.00311375748
v 0.0122850165 0.00201701508 -0.00238722928
v 0.0124745941 0.00157604994 -0.0016092607
v 0.0125955719 0.00119058269 -0.0007897673
v 0.0126465905 0.000864936402 6.18560396e-05
v 0.0126272455 0.000601757468 0.000936929062
v 0.0125377283 0.000404704651 0.00182461904
v 0.0118619941 0.000228212625 0.00446426965
v 0.0115094765 0.000309902812 0.00530326713
v 0.0110992596 0.000460929688 0.00610613712
v 0.0106366323 0.0006795732 0.00686220579
v 0.0101259205 0.000963711601 0.0075648285
v 0.00957376121 0.00130943911 0.00820471249
v 0.00898534156 0.00171324304 0.00877585916
v 0.00836845868 0.00217075965 0.00927064762
v 0.00773004925 0.0026758703 0.00968363623
v 0.00707500979 0.00322434454 0.0100118424
v 0.00641493745 0.00380830478 0.0102486884
v 0.00575340588 0.00442269182 0.0103936012
v 0.00510064208 0.00505936681 0.0104439064
v 0.00462328812 0.00577420512 0.0102194264
v 0.000801158899 0.0125428522 0.00109099242
v 0.00745498476 0.00819093498 -0.00604050087
v 0.0123173433 0.000514182376 0.00267856225
v 0.0121002676 0.000452960654 0.00354033757
v 0.00402682474 0.00649327357 0.00996930777
v 0.00358713858 0.00703108059 0.00973875593
v 0.00309040327 0.00762384351 0.00945349902
v 0.00200765779 0.00896603186 0.00856406866
v 0.00161784342 0.00953227599 0.00801761328
v 0.00128358057 0.0100644859 0.00740428148
v 0.00100880316 0.0105566414 0.006730749
v 0.000877235076 0.0109139369 0.00610467088
v 0.000735414244 0.0112919051 0.00538534079
v 0.000629152272 0.011662759 0.00455324813
v 0.000555450229 0.0120213063 0.00359780966
v 0.000609928874 0.0122406514 0.00274915873
v 0.000731641559 0.0123953255 0.00189335524
v 0.0011697357 0.0125042828 0.000198437558
v 0.00148134878 0.0124573143 -0.000621245517
v 0.00185006311 0.0123431118 -0.00141005339
v 0.00223911371 0.0121700143 -0.00200594901
v 0.00274186781 0.0119192632 -0.00285963835
v 0.00325482538 0.0116143258 -0.00350408377
v 0.00380485704 0.0112517508 -0.00408475222
v 0.0043856447 0.0108357104 -0.00459544481
v 0.00499087027 0.0103708537 -0.00503008188
v 0.00587457971 0.0096474653 -0.00545473392
v 0.00688260248 0.00873852093 -0.00583379091
v 0.00807805815 0.00757655986 -0.00587447863
v 0.0086696379 0.00695986774 -0.00578372686
v 0.00925470936 0.00631819608 -0.00562126907
v 0.00979093325 0.00570067458 -0.00535623707
v 0.0105416395 0.00477830605 -0.00483044354
v 0.0111949644 0.00388457699 -0.00409299195
v 0.0117188945 0.00308505257 -0.00323159032
v 0.0122172664 0.00214207049 -0.00185437122
v 0.0124573057 0.0014812978 -0.000621245517
v 0.0125042742 0.00116974432 0.000198437558
v 0.0124619692 0.00100512017 0.000912913404
v 0.0123953169 0.000731590581 0.00189335524
v 0.0117396658 0.000568571878 0.00442953287
v 0.0113989656 0.000649276567 0.00523503004
v 0.0110031908 0.000796559644 0.00600500284
v 0.0105566328 0.00100881178 0.006730749
v 0.0100645368 0.0012835892 0.00740428148
v 0.00931786175 0.00179910791 0.00819877533
v 0.00846880364 0.00241308845 0.00892189844
v 0.00691383719 0.00531394663 0.00630627171
v 0.00689952621 0.00370165555 0.00979675137
v 0.00597692042 0.00454457619 0.0100384863
v 0.00523071936 0.00523072798 0.0101509827
v -0.00885326216 -0.00885325353 -0.0013190967
v 0.0081147497 0.00866377671 0.00419409453
v -0.00911969492 -0.00857066791 -0.00136892618
v 0.00788253 0.00894314368 0.00404794394
v -0.00935191462 -0.00829130094 -0.00151507677
v 0.00770037821 0.00920033772 0.00381560503
v -0.00953406641 -0.0080341069 -0.00174741568
v 0.00758069208 0.00941777546 0.00351269423
v -0.00965375254 -0.00781666915 -0.00205032648
v 0.00753157785 0.00958067496 0.00315995394
v -0.00970286676 -0.00765376966 -0.00240306677
v 0.0075566118 0.00967789013 0.00278146444
v -0.00967783281 -0.00755655448 -0.00278155626
v 0.00765376738 0.00970280488 0.00240297495
v -0.00958067724 -0.00753163974 -0.00316004576
v 0.00781672647 0.00965380986 0.00205035387
v -0.00941771814 -0.00758063476 -0.00351266683
v 0.00803416422 0.00953412373 0.00174744307
v -0.0092002804 -0.00770032089 -0.00381557764
v 0.00829129866 0.00935197194 0.00151498495
v -0.00894314596 -0.00788247268 -0.00404803575
v 0.00857072523 0.00911975224 0.00136895357
v -0.00866371939 -0.00811475198 -0.00419406713
v 0.00885325125 0.00885325987 0.00131912409
v -0.00838119337 -0.00838118474 -0.00424389662
v 0.00911968401 0.00857067425 0.00136895357
v -0.00811476061 -0.00866377037 -0.00419406713
v 0.0093519037 0.00829130728 0.00151498495
v -0.00788254091 -0.00894313734 -0.00404803575
v 0.00953417471 0.00803411324 0.00174744307
v -0.00770038912 -0.00920033138 -0.00381557764
v 0.00965374163 0.0078166755 0.00205035387
v -0.00758070299 -0.00941776912 -0.00351266683
v 0.00970285585 0.007653776 0.00240297495
v -0.00753158877 -0.00958066862 -0.00316004576
v 0.00967794111 0.00755656083 0.00278146444
v -0.00755662272 -0.00967788379 -0.00278155626
v 0.00958066633 0.00753164609 0.00315995394
v -0.00765377829 -0.00970285814 -0.00240306677
v 0.00941782644 0.0075806411 0.00351269423
v -0.00781661818 -0.00965380352 -0.00205032648
v 0.0092003887 0.00770032723 0.00381560503
v -0.00803417513 -0.00953411739 -0.00174741568
v 0.00894313505 0.00788247902 0.00404794394
v -0.00829130957 -0.00935196559 -0.00151507677
v 0.00866382769 0.00811475832 0.00419409453
v -0.00857073614 -0.0091197459 -0.00136892618
v 0.00838118246 0.00838119109 0.00424392401
v 0.00861721685 0.00861722548 0.00278146444
v -0.00861722777 -0.00861721914 -0.00278155626
f 9 10 537
f 5 540 11
f 5 11 10
f 12 20 5
f 5 20 13
f 549 547 6
f 549 548 547
f 7 514 513
f 2 16 1
f 1 16 7
f 7 16 515
f 7 515 514
f 14 550 549
f 14 21 551
f 14 551 550
f 508 507 15
f 15 507 22
f 15 22 21
f 19 23 528
f 23 531 530
f 24 533 23
f 23 533 532
f 23 532 531
f 24 534 533
f 537 536 9
f 9 536 24
f 24 536 535
f 24 535 534
f 71 74 328
f 71 328 75
f 75 76 77
f 77 78 79
f 79 80 81
f 66 104 363
f 66 363 105
f 105 369 106
f 106 107 108
f 108 109 110
f 110 111 378
f 70 74 71
f 65 104 66
f 72 70 71
f 67 65 66
f 73 72 71
f 73 71 130
f 68 67 66
f 68 66 131
f 63 72 198
f 198 72 73
f 73 130 132
f 103 67 68
f 133 68 131
f 133 131 134
f 198 73 197
f 197 73 132
f 197 132 139
f 71 75 141
f 71 141 130
f 130 141 142
f 130 142 132
f 132 142 143
f 132 143 139
f 139 143 144
f 139 144 195
f 195 144 61
f 195 61 140
f 140 61 60
f 140 60 62
f 75 77 141
f 143 145 144
f 144 145 59
f 144 59 395
f 144 395 61
f 77 79 146
f 77 146 141
f 141 146 147
f 141 147 142
f 142 147 148
f 142 148 143
f 143 148 149
f 143 149 145
f 145 149 58
f 145 58 398
f 145 398 59
f 79 81 146
f 148 150 149
f 149 150 57
f 149 57 400
f 149 400 58
f 81 151 146
f 146 151 152
f 146 152 147
f 147 152 148
f 148 152 56
f 148 56 150
f 150 56 402
f 150 402 57
f 56 403 402
f 152 151 153
f 152 153 55
f 152 55 56
f 56 55 405
f 56 405 403
f 151 137 153
f 55 153 405
f 54 137 155
f 155 137 151
f 154 151 83
f 83 151 82
f 82 151 81
f 82 81 344
f 344 81 69
f 54 406 137
f 137 406 153
f 153 406 405
f 156 155 151
f 156 151 154
f 51 53 54
f 51 54 155
f 156 154 85
f 85 154 83
f 85 83 84
f 84 83 288
f 288 83 82
f 52 53 51
f 157 155 156
f 158 51 155
f 158 155 157
f 159 157 156
f 159 156 88
f 88 156 85
f 88 85 87
f 87 85 86
f 86 85 84
f 50 52 51
f 158 157 159
f 48 50 51
f 48 51 160
f 160 51 158
f 91 159 88
f 91 88 90
f 90 88 89
f 89 88 87
f 49 50 48
f 161 160 158
f 161 158 159
f 162 161 159
f 162 159 94
f 94 159 91
f 94 91 93
f 93 91 92
f 92 91 90
f 47 49 48
f 45 47 48
f 45 48 163
f 163 48 160
f 163 160 161
f 97 162 94
f 97 94 96
f 96 94 95
f 95 94 93
f 46 47 45
f 164 163 161
f 164 161 162
f 168 164 162
f 168 162 99
f 99 162 97
f 99 97 98
f 98 97 96
f 43 46 45
f 99 98 283
f 44 43 45
f 44 45 163
f 44 163 164
f 102 168 99
f 102 99 100
f 100 99 283
f 165 43 166
f 166 43 44
f 167 44 164
f 167 164 168
f 102 100 101
f 101 103 102
f 102 103 68
f 102 68 133
f 102 133 168
f 168 133 134
f 168 134 167
f 167 134 135
f 167 135 44
f 44 135 136
f 44 136 166
f 166 136 42
f 166 42 165
f 66 105 169
f 66 169 131
f 131 169 170
f 131 170 134
f 134 170 171
f 134 171 135
f 135 171 136
f 136 41 42
f 42 41 165
f 41 422 165
f 105 106 169
f 171 172 136
f 136 172 40
f 136 40 41
f 41 40 423
f 41 423 422
f 106 108 173
f 106 173 169
f 169 173 174
f 169 174 170
f 170 174 175
f 170 175 171
f 171 175 176
f 171 176 172
f 172 176 39
f 172 39 426
f 172 426 40
f 108 110 173
f 175 177 176
f 176 177 38
f 176 38 428
f 176 428 39
f 378 64 110
f 110 64 178
f 110 178 173
f 173 178 179
f 173 179 174
f 174 179 175
f 175 179 37
f 175 37 177
f 177 37 430
f 177 430 38
f 37 431 430
f 179 178 36
f 179 36 37
f 37 36 432
f 37 432 431
f 36 35 432
f 64 183 178
f 178 183 138
f 178 138 36
f 36 138 180
f 36 180 35
f 184 183 64
f 184 64 185
f 185 64 113
f 113 64 112
f 112 64 181
f 181 64 378
f 34 182 183
f 183 182 138
f 31 33 34
f 31 34 186
f 186 34 183
f 186 183 184
f 116 185 113
f 116 113 115
f 115 113 114
f 114 113 112
f 32 33 31
f 187 186 184
f 187 184 188
f 188 184 185
f 188 185 118
f 118 185 116
f 118 116 117
f 117 116 279
f 279 116 115
f 30 32 31
f 28 30 31
f 28 31 189
f 189 31 186
f 189 186 187
f 120 188 118
f 120 118 119
f 119 118 277
f 277 118 117
f 29 30 28
f 190 189 187
f 190 187 191
f 191 187 188
f 191 188 123
f 123 188 120
f 123 120 122
f 122 120 121
f 121 120 119
f 27 29 28
f 25 27 28
f 25 28 192
f 192 28 189
f 192 189 190
f 126 191 123
f 126 123 125
f 125 123 124
f 124 123 122
f 26 27 25
f 196 192 190
f 196 190 193
f 193 190 191
f 193 191 128
f 128 191 126
f 128 126 127
f 127 126 125
f 447 26 25
f 128 127 129
f 194 447 25
f 194 25 195
f 195 25 192
f 195 192 196
f 197 196 193
f 197 193 198
f 198 193 128
f 198 128 129
f 129 63 198
f 196 197 139
f 196 139 195
f 194 195 140
f 194 140 447
f 201 199 302
f 205 306 307
f 205 307 308
f 201 206 205
f 205 206 305
f 205 305 306
f 199 207 208
f 199 208 302
f 211 209 200
f 200 209 207
f 215 213 214
f 216 296 297
f 216 297 298
f 216 298 309
f 202 217 210
f 204 218 290
f 218 219 289
f 220 221 218
f 218 221 222
f 218 222 219
f 308 311 205
f 205 311 223
f 205 223 220
f 210 217 216
f 216 217 224
f 216 224 296
f 216 309 214
f 214 225 226
f 214 226 215
f 227 220 228
f 228 220 218
f 228 218 229
f 229 218 204
f 229 204 230
f 230 204 203
f 230 203 231
f 231 203 202
f 231 202 210
f 231 210 232
f 232 210 216
f 232 216 233
f 233 216 234
f 234 216 214
f 234 214 213
f 234 213 235
f 235 213 212
f 235 212 211
f 235 211 236
f 236 211 200
f 236 200 207
f 236 207 237
f 237 207 199
f 237 199 248
f 248 199 201
f 248 201 205
f 248 205 249
f 249 205 238
f 238 205 227
f 227 205 220
f 244 233 239
f 239 233 234
f 239 234 245
f 240 229 241
f 241 229 242
f 242 229 230
f 242 230 231
f 242 231 243
f 243 231 244
f 244 231 232
f 244 232 233
f 245 234 235
f 245 235 246
f 246 235 236
f 246 236 247
f 247 236 237
f 247 237 248
f 249 238 250
f 250 238 227
f 250 227 228
f 250 228 240
f 240 228 229
f 251 250 252
f 252 250 240
f 252 240 241
f 252 241 242
f 252 242 253
f 253 242 243
f 253 243 244
f 253 244 254
f 254 244 255
f 255 244 239
f 255 239 256
f 256 239 245
f 256 245 246
f 256 246 257
f 257 246 247
f 257 247 258
f 258 247 248
f 258 248 249
f 258 249 251
f 251 249 250
f 256 259 255
f 255 259 260
f 255 260 261
f 255 261 254
f 258 262 263
f 258 263 264
f 258 264 257
f 257 264 265
f 257 265 256
f 256 265 266
f 256 266 259
f 254 261 267
f 254 267 253
f 253 267 268
f 253 268 269
f 253 269 252
f 252 269 270
f 252 270 271
f 252 271 272
f 252 272 251
f 251 272 273
f 251 273 258
f 258 273 262
f 14 273 21
f 21 273 272
f 21 272 15
f 15 272 271
f 15 271 8
f 8 271 270
f 8 270 7
f 7 270 269
f 7 269 1
f 1 269 2
f 2 269 3
f 3 269 268
f 3 268 4
f 4 268 267
f 4 267 17
f 17 267 261
f 17 261 18
f 18 261 19
f 19 261 23
f 23 261 260
f 23 260 259
f 23 259 24
f 24 259 9
f 9 259 266
f 9 266 10
f 10 266 5
f 5 266 265
f 5 265 264
f 5 264 12
f 12 264 6
f 6 264 263
f 6 263 549
f 549 263 262
f 549 262 273
f 549 273 14
f 129 127 275
f 122 121 386
f 121 119 276
f 277 117 278
f 279 115 280
f 115 114 281
f 114 112 281
f 103 101 282
f 101 100 283
f 283 98 284
f 93 92 285
f 92 90 285
f 90 89 349
f 89 87 286
f 87 86 348
f 86 84 287
f 292 204 290
f 292 203 204
f 293 202 203
f 294 217 202
f 295 224 217
f 299 212 213
f 300 211 212
f 300 209 211
f 301 207 209
f 301 208 207
f 303 201 302
f 304 206 201
f 311 308 314
f 318 214 309
f 318 309 319
f 319 309 310
f 319 310 312
f 313 223 311
f 313 311 314
f 225 214 318
f 319 312 320
f 322 72 63
f 308 307 323
f 308 323 314
f 314 323 324
f 314 324 315
f 315 324 316
f 316 322 317
f 317 322 63
f 316 325 322
f 322 325 72
f 326 70 72
f 307 306 323
f 324 327 316
f 316 327 326
f 316 326 325
f 325 326 72
f 306 305 323
f 327 74 326
f 326 74 70
f 305 329 323
f 323 329 330
f 323 330 324
f 324 330 331
f 324 331 327
f 327 331 328
f 327 328 74
f 332 75 328
f 206 304 305
f 305 304 329
f 331 332 328
f 331 76 75
f 332 331 75
f 333 77 76
f 201 303 304
f 330 333 331
f 331 333 76
f 334 78 77
f 303 302 335
f 303 335 304
f 304 335 336
f 304 336 329
f 329 336 337
f 329 337 330
f 330 337 334
f 330 334 333
f 333 334 77
f 337 79 78
f 334 337 78
f 338 80 79
f 208 301 302
f 302 301 335
f 336 339 337
f 337 339 338
f 337 338 79
f 339 81 80
f 338 339 80
f 340 69 81
f 301 341 335
f 335 341 342
f 335 342 336
f 336 342 343
f 336 343 339
f 339 343 340
f 339 340 81
f 343 344 340
f 340 344 69
f 288 82 345
f 209 300 301
f 301 300 341
f 343 345 344
f 344 345 82
f 343 288 345
f 300 346 341
f 341 346 347
f 341 347 342
f 342 347 348
f 342 348 343
f 343 348 287
f 343 287 288
f 288 287 84
f 287 348 86
f 212 299 300
f 300 299 346
f 347 349 348
f 348 349 286
f 348 286 87
f 286 349 89
f 299 350 346
f 346 350 351
f 346 351 347
f 347 351 285
f 347 285 349
f 349 285 90
f 351 350 321
f 351 321 285
f 285 321 93
f 98 96 284
f 284 96 350
f 284 350 355
f 355 350 353
f 353 350 352
f 352 350 299
f 352 299 213
f 350 96 95
f 350 95 321
f 321 95 93
f 353 352 215
f 215 352 213
f 283 284 354
f 354 284 355
f 356 355 353
f 356 353 226
f 226 353 215
f 282 101 283
f 282 283 320
f 320 283 354
f 320 354 319
f 319 354 355
f 319 355 356
f 319 356 318
f 318 356 226
f 318 226 225
f 67 103 357
f 309 298 310
f 320 357 282
f 282 357 103
f 298 297 359
f 298 359 310
f 310 359 312
f 320 358 357
f 357 358 67
f 360 65 67
f 359 361 312
f 312 361 362
f 312 362 320
f 320 362 360
f 320 360 358
f 358 360 67
f 297 296 359
f 362 104 360
f 360 104 65
f 224 295 296
f 296 295 359
f 361 364 362
f 362 364 363
f 362 363 104
f 365 105 363
f 295 366 359
f 359 366 361
f 364 365 363
f 367 369 105
f 366 368 361
f 361 368 364
f 364 367 365
f 365 367 105
f 364 369 367
f 370 107 106
f 217 294 295
f 295 294 366
f 368 371 364
f 364 371 370
f 364 370 369
f 369 370 106
f 371 108 107
f 294 293 366
f 366 293 368
f 370 371 107
f 372 109 108
f 202 293 294
f 293 373 368
f 368 373 374
f 368 374 371
f 371 374 372
f 371 372 108
f 374 110 109
f 293 375 373
f 372 374 109
f 376 111 110
f 203 292 293
f 293 292 375
f 373 375 377
f 373 377 374
f 374 377 376
f 374 376 110
f 292 379 375
f 377 378 376
f 376 378 111
f 112 181 380
f 380 181 378
f 379 381 375
f 375 381 377
f 377 380 378
f 377 281 380
f 380 281 112
f 290 291 292
f 292 291 379
f 381 382 377
f 377 382 281
f 291 290 383
f 291 383 379
f 379 383 381
f 382 280 281
f 281 280 115
f 218 289 290
f 290 289 383
f 383 384 381
f 381 384 382
f 382 279 280
f 382 278 279
f 279 278 117
f 219 222 289
f 289 222 383
f 384 385 382
f 382 385 277
f 382 277 278
f 222 387 383
f 383 387 384
f 385 276 277
f 277 276 119
f 384 387 386
f 384 386 385
f 385 386 276
f 276 386 121
f 387 275 386
f 127 125 275
f 388 275 387
f 275 125 124
f 275 124 386
f 386 124 122
f 388 387 389
f 389 387 390
f 390 387 222
f 390 222 221
f 274 129 275
f 274 275 391
f 391 275 388
f 220 390 221
f 63 129 274
f 392 391 388
f 392 388 313
f 313 388 389
f 389 390 223
f 223 390 220
f 317 63 274
f 317 274 316
f 316 274 391
f 316 391 315
f 315 391 392
f 315 392 314
f 314 392 313
f 313 389 223
f 62 60 394
f 394 60 61
f 394 61 395
f 396 395 397
f 395 59 397
f 397 59 398
f 398 58 399
f 399 58 400
f 400 57 401
f 401 57 402
f 403 405 404
f 407 406 54
f 407 54 53
f 407 53 408
f 408 53 409
f 409 53 52
f 409 52 410
f 410 52 411
f 411 52 50
f 411 50 412
f 412 50 413
f 413 50 49
f 413 49 414
f 414 49 415
f 415 49 47
f 415 47 416
f 416 47 417
f 417 47 46
f 417 46 418
f 418 46 419
f 419 46 43
f 419 43 420
f 420 43 421
f 165 421 43
f 424 423 40
f 424 40 425
f 425 40 426
f 426 39 427
f 427 39 428
f 428 38 429
f 429 38 430
f 432 35 433
f 433 35 138
f 35 180 138
f 138 182 434
f 434 182 34
f 434 34 435
f 435 34 33
f 435 33 436
f 436 33 437
f 437 33 32
f 437 32 438
f 438 32 439
f 439 32 30
f 439 30 440
f 440 30 441
f 441 30 29
f 441 29 442
f 442 29 443
f 443 29 27
f 443 27 444
f 444 27 453
f 453 27 26
f 453 26 445
f 445 26 446
f 446 26 447
f 393 447 140
f 393 140 62
f 393 448 447
f 447 448 446
f 434 449 138
f 138 449 433
f 422 450 165
f 165 450 421
f 407 451 406
f 406 451 452
f 406 452 405
f 405 452 404
f 445 446 453
f 441 454 440
f 440 454 455
f 440 455 439
f 439 455 456
f 439 456 438
f 438 456 457
f 438 457 437
f 437 457 458
f 437 458 436
f 436 458 459
f 436 459 435
f 435 459 460
f 435 460 434
f 434 460 449
f 449 461 433
f 433 461 462
f 433 462 432
f 432 462 463
f 432 463 431
f 431 463 464
f 431 464 430
f 430 464 465
f 430 465 429
f 429 465 466
f 429 466 428
f 428 466 467
f 428 467 427
f 427 467 468
f 427 468 426
f 426 468 469
f 426 469 425
f 425 469 470
f 425 470 424
f 424 470 471
f 424 471 423
f 423 471 472
f 423 472 422
f 422 472 450
f 450 473 421
f 421 473 474
f 421 474 420
f 420 474 475
f 420 475 419
f 419 475 476
f 419 476 418
f 418 476 477
f 418 477 417
f 417 477 478
f 417 478 416
f 416 478 479
f 416 479 415
f 415 479 480
f 415 480 414
f 414 480 481
f 414 481 413
f 413 481 482
f 413 482 412
f 412 482 483
f 412 483 411
f 411 483 484
f 411 484 410
f 410 484 485
f 410 485 409
f 409 485 486
f 409 486 408
f 408 486 487
f 408 487 407
f 407 487 451
f 452 488 404
f 404 488 489
f 404 489 403
f 403 489 490
f 403 490 402
f 402 490 491
f 402 491 401
f 401 491 492
f 401 492 400
f 400 492 493
f 400 493 399
f 399 493 494
f 399 494 398
f 398 494 495
f 398 495 397
f 397 495 496
f 397 496 396
f 396 496 497
f 396 497 395
f 395 497 498
f 395 498 394
f 394 498 499
f 394 499 62
f 62 499 500
f 62 500 393
f 393 500 448
f 500 501 448
f 460 502 449
f 449 502 461
f 472 503 450
f 450 503 473
f 487 504 451
f 451 504 505
f 451 505 452
f 452 505 488
f 501 506 448
f 448 506 507
f 448 507 446
f 446 507 508
f 446 508 453
f 453 508 15
f 453 15 444
f 444 15 509
f 444 509 443
f 443 509 510
f 443 510 442
f 442 510 511
f 442 511 441
f 441 511 512
f 441 512 454
f 454 512 513
f 454 513 455
f 455 513 514
f 455 514 456
f 456 514 515
f 456 515 457
f 457 515 516
f 457 516 458
f 458 516 517
f 458 517 459
f 459 517 518
f 459 518 460
f 460 518 502
f 502 519 461
f 461 519 520
f 461 520 462
f 462 520 521
f 462 521 463
f 463 521 522
f 463 522 464
f 464 522 523
f 464 523 465
f 465 523 524
f 465 524 466
f 466 524 525
f 466 525 467
f 467 525 526
f 467 526 468
f 468 526 527
f 468 527 469
f 469 527 528
f 469 528 470
f 470 528 471
f 471 528 529
f 471 529 472
f 472 529 503
f 503 530 473
f 473 530 531
f 473 531 474
f 474 531 532
f 474 532 475
f 475 532 533
f 475 533 476
f 476 533 534
f 476 534 477
f 477 534 478
f 478 534 535
f 478 535 479
f 479 535 536
f 479 536 480
f 480 536 481
f 481 536 537
f 481 537 482
f 482 537 483
f 483 537 538
f 483 538 484
f 484 538 539
f 484 539 485
f 485 539 540
f 485 540 486
f 486 540 541
f 486 541 487
f 487 541 504
f 505 542 488
f 488 542 543
f 488 543 489
f 489 543 544
f 489 544 490
f 490 544 545
f 490 545 491
f 491 545 546
f 491 546 492
f 492 546 547
f 492 547 493
f 493 547 494
f 494 547 548
f 494 548 495
f 495 548 549
f 495 549 496
f 496 549 550
f 496 550 497
f 497 550 498
f 498 550 551
f 498 551 499
f 499 551 552
f 499 552 500
f 500 552 501
f 552 21 501
f 501 21 22
f 501 22 506
f 506 22 507
f 509 15 8
f 509 8 510
f 510 8 511
f 511 8 7
f 511 7 512
f 512 7 513
f 516 515 16
f 516 16 517
f 517 16 518
f 518 16 2
f 518 2 502
f 502 2 519
f 519 2 520
f 520 2 3
f 520 3 521
f 521 3 4
f 521 4 522
f 523 522 4
f 523 4 524
f 524 4 525
f 525 4 17
f 525 17 526
f 526 17 18
f 526 18 527
f 527 18 19
f 527 19 528
f 529 528 23
f 529 23 503
f 503 23 530
f 537 10 538
f 538 10 11
f 538 11 539
f 539 11 540
f 541 540 5
f 541 5 504
f 504 5 13
f 504 13 505
f 505 13 20
f 505 20 542
f 542 20 543
f 543 20 12
f 543 12 544
f 544 12 545
f 545 12 6
f 545 6 546
f 546 6 547
f 552 551 21
f 553 554 555
f 555 554 556
f 555 556 557
f 557 556 558
f 557 558 559
f 559 558 560
f 559 560 561
f 561 560 562
f 561 562 563
f 563 562 564
f 563 564 565
f 565 564 566
f 565 566 567
f 567 566 568
f 567 568 569
f 569 568 570
f 569 570 571
f 571 570 572
f 571 572 573
f 573 572 574
f 573 574 575
f 575 574 576
f 575 576 577
f 577 576 578
f 577 578 579
f 579 578 580
f 579 580 581
f 581 580 582
f 581 582 583
f 583 582 584
f 583 584 585
f 585 584 586
f 585 586 587
f 587 586 588
f 587 588 589
f 589 588 590
f 589 590 591
f 591 590 592
f 591 592 593
f 593 592 594
f 593 594 595
f 595 594 596
f 595 596 597
f 597 596 598
f 597 598 599
f 599 598 600
f 599 600 553
f 553 600 554
f 580 578 601
f 601 578 576
f 601 576 574
f 586 584 601
f 601 584 582
f 601 582 580
f 592 590 601
f 601 590 588
f 601 588 586
f 598 596 601
f 601 596 594
f 601 594 592
f 556 554 601
f 601 554 600
f 601 600 598
f 562 560 601
f 601 560 558
f 601 558 556
f 568 566 601
f 601 566 564
f 601 564 562
f 574 572 601
f 601 572 570
f 601 570 568
f 573 575 602
f 602 575 577
f 602 577 579
f 567 569 602
f 602 569 571
f 602 571 573
f 561 563 602
f 602 563 565
f 602 565 567
f 555 557 602
f 602 557 559
f 602 559 561
f 597 599 602
f 602 599 553
f 602 553 555
f 591 593 602
f 602 593 595
f 602 595 597
f 585 587 602
f 602 587 589
f 602 589 591
f 579 581 602
f 602 581 583
f 602 583 585
