v 0.00144151443 -0.0070567847 -0.00760912043
v 0.002217949 -0.00765606089 -0.00684854075
v 0.00276178686 -0.00773495802 -0.0064412302
v 0.00728459433 -0.00168788626 -0.00734096824
v 0.00666109557 -0.00109841578 -0.00804201073
v 0.00591015819 -0.000829099503 -0.00855986147
v 0.000698067356 -0.00490301245 -0.00925918643
v 0.00083254971 -0.00602997943 -0.008281202
v 0.00449170622 -0.000702429047 -0.00932537533
v -0.000816963521 -0.000387087969 -0.0123933447
v 0.00121845017 -0.0029205239 -0.00981698548
v -0.00133731207 -0.0010572826 -0.0123088253
v -0.00262178957 -0.00356593787 -0.0116184885
v -0.00197251392 -0.00206045148 -0.0121014114
v 0.00404737796 -0.00788776736 -0.0056849768
v 0.00785474435 -0.00231093668 -0.00688914027
v 0.00457444632 -0.00762460178 -0.00545837088
v 0.00498054234 -0.00744590706 -0.00535303336
v 0.00614613416 -0.0068454465 -0.00509144598
v 0.00786013748 -0.0029975075 -0.00627634938
v 0.00232200423 -0.00179296707 -0.0100777186
v 0.00667982869 -0.00657698107 -0.00509985893
v 0.00824718103 -0.00359350401 -0.00590048154
v -0.00425610107 -0.000172934677 -0.0104106312
v -0.00277677828 -0.000811792452 -0.0121277423
v -0.00362373392 -0.00246365434 -0.0116716836
v -0.00543405241 -0.00360840735 -0.00918867408
v -0.00413678336 -0.00417509776 -0.0109939825
v -0.00429334752 -0.00587294664 -0.0101224509
v -0.00521366474 -0.00690329241 -0.0072448542
v -0.00408532752 -0.00747414758 -0.00910048429
v -0.00352297682 -0.00891044651 -0.00797151926
v -0.00318293905 -0.00959279954 -0.0069959647
v -0.00118692763 -0.0111740137 -0.00536932677
v -0.00231281765 -0.0102276043 -0.00237149186
v 0.000508087438 -0.0110406758 -0.0014312155
v 0.00219930836 -0.0109110596 -0.000548561226
v 0.00391205404 -0.0104317183 0.000152240091
v 0.00491071889 -0.00914366796 0.00177753382
v 0.00656513064 -0.0103885156 -0.00118104539
v 0.0079882874 -0.00936461161 -0.000918294083
v 0.0095424332 -0.00794063402 -0.00116226644
v 0.00790305105 -0.00647596414 0.00220222285
v 0.0100686626 -0.00500413693 0.000386545907
v 0.0106141569 -0.00638121853 -0.00143489115
v 0.0113790254 -0.0047069318 -0.00194613574
v 0.0111146402 -0.00159046818 -0.00100557394
v 0.0118035581 -0.00298943576 -0.00267340634
v 0.0118674106 -0.00130855585 -0.00358309527
v 0.0107412584 0.00162191745 -0.00305947846
v 0.0115678358 0.000261177355 -0.00463483432
v 0.0109184382 0.00164745389 -0.00578124106
v 0.0102541303 0.00256693457 -0.0062482289
v 0.00721178213 0.00513897786 -0.00671028022
v 0.00589564567 0.00586285545 -0.00681480441
v 0.00553561402 0.00437953829 -0.010189178
v 0.00384687603 0.00417114104 -0.0110145692
v 0.00215098413 0.0036159796 -0.0116494172
v 0.000278464718 0.00241295171 -0.0122218738
v 0.000444517627 0.0027317883 -0.0120320181
v -0.000368406014 0.00163202337 -0.0125023454
v -0.00899899603 0.00855756052 0.0011222641
v -0.00739854794 -0.00599673965 0.00258134493
v -0.000669791122 -0.0026784522 0.012151329
v -0.000588506056 -0.00447598012 0.010304447
v 0.000283085023 -0.00199233984 0.0123026976
v 0.0011808677 -0.00117810651 0.0123489291
v 0.00168262608 -0.000899116143 0.0121948479
v 0.00153610205 0.010976532 0.00569547681
v -0.00652464638 0.0105229599 0.00140574102
v -0.00458643215 0.0102733042 -0.000258004367
v -0.00757168905 0.00983243537 0.0012063398
v -0.00630092931 0.00822043825 -0.00198028679
v -0.00570019848 0.0109614091 0.00162333234
v -0.0030509544 0.0117140893 0.0023632627
v -0.00138170424 0.0118111079 0.00322446038
v 0.000188231995 0.0115587346 0.00422717601
v 0.000132000564 0.0115989701 0.00455274171
v 0.00159136649 0.0109689844 0.00533034468
v 0.00258367901 0.0102057972 0.00644110692
v 0.00474601165 0.00850034927 0.00386870983
v 0.00314111579 0.00947300867 0.00748531796
v 0.00350776536 0.00906537654 0.00760484632
v 0.0056031467 0.00726663737 0.00506867179
v 0.00385457869 0.00812225256 0.00864955654
v 0.00412707408 0.00768005658 0.00873646647
v 0.00613807074 0.00581243164 0.00620997894
v 0.00421945856 0.00657352202 0.0097271503
v 0.00440406664 0.00612081265 0.00977222355
v 0.00632956098 0.0041979938 0.00724027451
v 0.00421914482 0.00489941539 0.0106676373
v 0.00432606679 0.00445610443 0.0106685101
v 0.00616824151 0.00249019495 0.00811803997
v 0.00385415348 0.00317572869 0.0114288486
v 0.00389770853 0.00276079452 0.011384846
v 0.00565815141 0.000762958713 0.00880810888
v 0.00324367138 0.00133700763 0.0118514098
v 0.00482211822 -0.000909096153 0.00927891985
v 0.00250862223 0.000418983226 0.0122112318
v -0.00148207937 -0.00315675691 0.0119634039
v -0.00389681645 -0.0042615818 0.0109017509
v -0.00556272842 -0.00446433366 0.0100497738
v -0.00573184991 -0.00428319533 0.0102019539
v -0.00714776303 -0.00431547509 0.0090486217
v -0.00734712706 -0.00410409231 0.00918996601
v -0.00858326538 -0.00382361743 0.00793835383
v -0.00880183335 -0.00356755012 0.00806739638
v -0.0102468526 -0.00253995377 0.00639423412
v -0.00911852141 -0.0040857846 0.00315016704
v -0.0109726855 -0.00153509353 0.00573439029
v -0.0110973623 -0.00133442078 0.00523433181
v -0.00991172293 -0.00277782148 0.00198477285
v -0.0116011699 -0.000128993599 0.0045866076
v -0.01163304 9.97523276e-05 0.00412353474
v -0.0103759626 -0.00126366728 0.000892180374
v -0.0118743517 0.00145661521 0.0035369101
v -0.0118224954 0.00169191513 0.00312059131
v -0.0104858329 0.000387125513 -9.28300541e-05
v -0.0116567401 0.00337475846 0.00226671762
v -0.0102396759 0.00210998236 -0.000920287116
v -0.0113215541 0.00486774674 0.00191538961
v -0.0111455643 0.00506492248 0.00160407791
v -0.00964876153 0.00383199576 -0.00155218182
v -0.0104448083 0.00649135161 0.00122264937
v -0.00873435014 0.0054782206 -0.00196822302
v -0.00969693923 0.00763436998 0.0010452129
v -0.00421689687 0.00893614296 -0.00254377224
v 0.00127152189 -0.00533974762 0.00860093853
v -0.00394679645 0.0073856662 -0.00476701337
v 0.00322148958 -0.00390638462 0.00875033017
v 0.00322779499 -0.00598991183 0.00682313005
v 0.00471567525 -0.00678911208 0.00489047489
v 0.00813650291 0.00496823815 -0.00468908903
v -0.00169718681 -0.0108920357 -0.00590102652
v -0.00361714624 0.00569731238 -0.00687828257
v -0.00104857598 0.00173118354 -0.0120793992
v -0.000757414065 0.0100979193 -0.00124919395
v -0.000508553255 0.0088917695 -0.0036778203
v -0.000267900599 0.007519036 -0.00602107407
v -0.00049893292 0.00506092534 -0.00918236276
v 0.00119419202 0.00581711868 -0.00865572381
v 0.00254762994 0.00985094731 0.000752828825
v 0.00291836488 0.00900470237 -0.00180432741
v 0.00321673633 0.00799120857 -0.00431811488
v 0.00292255041 0.00624122041 -0.00791557775
v 0.0046115551 0.00631566485 -0.00699431595
v 0.00584029635 0.00758341414 0.000125639459
v 0.00554009732 0.0073906196 -0.00262644358
v 0.00749613452 0.00536923936 -0.00528010675
v 0.00630806432 0.00712577606 0.0011190273
v 0.00899000964 0.00428477688 -0.0022192124
v 0.00757813311 0.00568822737 0.0010656556
v 0.00861725565 0.00407533996 0.00097903066
v 0.0094900411 0.0023581432 0.000838728604
v 0.00794879228 0.00363275114 0.00405856732
v 0.0101465909 -0.000325112988 0.00102952429
v 0.00898529199 -6.89826557e-05 0.00348034154
v 0.00765760718 0.000170022371 0.00584669368
v 0.00915443434 -0.00379663638 0.00242850649
v 0.00764494559 -0.00353808719 0.00467897544
v 0.00692747067 -0.00776623774 0.00197794181
v 0.00612864653 -0.00543774715 0.00494469281
v 0.00599051898 -0.00322673643 0.00682311741
v 0.00315981307 -0.00306714502 0.00957735213
v -0.00216558466 -0.00666947545 0.00741136935
v -0.000168368878 -0.00765793065 0.00584611344
v 0.00182823123 -0.00848280965 0.00418940217
v 0.0020650195 -0.00982337837 0.0018299876
v -0.00552174478 -0.00660082512 0.00548148792
v -0.00363147231 -0.00794888115 0.00405943755
v -0.00167316637 -0.00913207979 0.00258044608
v -0.00058123934 -0.0105681591 -0.000684284412
v -0.00569729889 -0.00759062984 0.00106728087
v -0.00408655229 -0.0086336786 0.000983543295
v -0.00156547865 -0.0109437858 -0.00573037986
v -0.010029815 -0.0026986753 0.006884824
v -0.00243367991 -0.0102948104 -0.00658594493
v -0.00468675464 -0.00860046246 -0.00371370781
v -0.00703100848 -0.00625828889 -0.0020623815
v -0.00815206047 -0.00513750816 -7.28259474e-05
v -0.00649285489 -0.00590589027 -0.00520181683
v -0.00799133814 -0.0032156313 -0.00431876792
v -0.00911220368 -0.00209616526 -0.00233001319
v -0.00673871685 -0.002602056 -0.00720618017
v -0.00751948533 0.000270957509 -0.00601993882
v -0.0086412823 0.00139099971 -0.00403089669
v -0.00557665847 0.000857027781 -0.00850157773
v -0.00733606766 0.00391467689 -0.00476249283
v -0.00304117045 0.00169669041 -0.0105508459
v -0.00319948888 0.00389186091 -0.00887298317
v -0.00598005907 0.00322660005 -0.00678776246
v -0.00613758149 0.00544588899 -0.00494942206
v -0.00737394185 0.00726155655 -0.00205749649
v -0.000747725617 0.00460947295 0.00938016595
v -0.00102163296 0.00360369693 0.00980961324
v -0.0014733998 0.00282300843 0.00993746655
v -0.00169712951 0.00731910337 0.00706670183
v -0.000708392163 0.00540546563 0.00884791302
v -0.00573744616 0.000768169256 0.00848246689
v -0.00657202308 0.00104070583 0.00812482575
v -0.00703342527 0.00146203013 0.00757008785
v -0.00709407608 0.00992146746 0.0025559937
v -0.00525774382 0.0072875321 0.00521207506
v -0.0040101613 0.00775692735 0.00570357233
v -0.00169674869 0.00245980177 0.00997688981
v -0.0037034648 0.000837919033 0.00959010268
v -0.000268073906 -0.000771106213 0.0124347226
v -0.0073126538 0.00171594894 0.00730958383
v -0.00775608061 0.00302292342 0.00619796725
v -0.00661760204 0.00631461 0.00510877042
v -0.00693722063 -0.00293174718 0.00989220322
v -0.00757652398 0.00456943359 0.00543617381
v -0.00690390906 0.00567661175 0.00505674954
v -0.0105613693 0.00588045964 0.00287939187
v -0.0106645113 0.00596630287 0.00276342296
v -0.00467730069 0.00358702343 0.00109549973
v -0.0045461792 -0.000976766306 0.00374294193
v -0.00324450002 -0.00150987543 0.00477752088
v -0.00201763949 -0.00142110935 0.0054193842
v -0.000920839295 -0.00101627362 0.00580949228
v 0.000709254248 0.000380677331 0.00594099019
v 0.00150085587 0.00234119654 0.00528182766
v 0.00143621126 0.00353310952 0.00457323666
v 0.00105112403 0.00444675904 0.00384090527
v -2.28714751e-05 0.00529405455 0.00275748362
v -0.00184816222 0.00546489738 0.00163184944
v -0.00347235045 0.00469957242 0.00114763852
v -0.00218603268 -0.000280144925 0.00468102107
v -0.000512635531 0.000633798872 0.0051092527
v 9.68948924e-05 0.00167094121 0.00486816044
v -0.0014702586 0.00424462145 0.0025330856
v -0.00229694685 0.00406478295 0.00216830845
v -0.00317777484 0.00355917671 0.00195676707
v -0.00377645334 0.00286136517 0.00201262112
v -0.00444261538 0.00260721236 0.00178031227
v 0.000273389212 0.00291226988 0.00426765366
v -0.000438146127 0.00395811974 0.00327667527
v -0.00521147547 0.00225222858 0.00154688577
v -0.00504673932 0.00119761581 0.00223453824
v -0.00333371004 -8.13161416e-05 0.00392163869
v 0.000200417875 -0.00101770388 -0.00506882163
v -0.000294781804 -0.00277012997 -0.00435985108
v 0.000545079987 -0.00406203938 -0.00315778895
v 0.00195113259 -0.00418572077 -0.00229508766
v 0.00333406613 -0.00345514759 -0.00192725749
v 0.00424799159 -0.0017818685 -0.00235543594
v 0.00383559822 -0.000226815599 -0.00346488687
v 0.00205143977 0.000297226052 -0.00476648873
v 0.00538907209 -0.00195016017 -0.00161718253
v 0.00498409398 -0.0030470486 -0.00122692168
v 0.00413999716 -0.00414003482 -0.00108658199
v 0.00318109402 -0.00490772508 -0.00119444407
v 0.002795674 0.00151644597 -0.00503431682
v 0.0038252132 0.00137195191 -0.00437231994
v 0.00494481593 0.000578124347 -0.00329335335
v 0.00547768544 -0.000723193266 -0.00225901827
v -0.00157117193 -0.00290693855 -0.00500248509
v -0.00115516028 -0.00123788467 -0.0057090414
v -0.000531250994 -0.000200677871 -0.0059421483
v 0.000786291659 0.000939479828 -0.00584216132
v 0.00201771417 0.00142119774 -0.00541936283
v 0.00125838342 -0.00553702683 -0.00192376344
v -0.00047924358 -0.00501879784 -0.0031958273
v -0.00118436655 -0.00419272533 -0.00405930404
v -0.00978045318 0.00780833138 0.00140074269
v -0.0110623497 0.00584166712 0.0019235097
v -0.0118210522 0.00319948433 0.00275847948
v -0.0119217857 0.00156794438 0.00371302243
v -0.0116535648 -3.59168479e-06 0.00475038167
v -0.011035107 -0.00139857879 0.00588573094
v 0.0019284152 -0.000199595948 0.0124197049
v 0.00223554985 0.000555301078 0.0124387002
v 0.00335341239 0.00247430261 0.011951217
v 0.00404826357 0.00526515845 0.0107439808
v 0.0039505736 0.00742827305 0.00935877438
v 0.00341770807 0.00887356648 0.00824321385
v -0.0111805598 0.00496604883 0.0030048917
v -0.0115532365 0.00341594967 0.00367405871
v -0.011532487 0.0027338282 0.00408664185
v -0.011611461 0.00183196711 0.00452918065
v -0.0113235296 0.000440576019 0.00548772909
v -0.0105594267 -0.00109763129 0.00677960933
v -0.00839794596 -0.00280321514 0.00896024866
v -0.00625661896 -0.00319455046 0.0104009413
v -0.00508465377 -0.00311213714 0.0110229194
v -0.00424946889 -0.00308517219 0.0114524134
v -0.00352412232 -0.00276100601 0.011704875
v -0.00267038296 -0.00255600523 0.0120444599
v 0.00298772759 0.00404888752 0.0115156523
v 0.00321449889 0.00603841378 0.0105368698
v 0.00309221054 0.00757300038 0.00958227575
v 0.00277122687 0.0081664671 0.00909281411
v 0.00256888699 0.00890114757 0.00853821205
v 0.00211136763 0.00938237377 0.0080350911
v 0.00174154865 0.0100142462 0.007444048
v 0.00116587921 0.0103632899 0.0069488332
v 0.000647212389 0.0108636481 0.00634796045
v -1.83329082e-05 0.0110636531 0.00588606606
v -0.000666473647 0.0114111695 0.00529845139
v -0.00136992814 0.0114393362 0.00491531218
v -0.0014114956 0.0117041003 0.00463001925
v -0.00360567461 0.0115258499 0.00357906532
v -0.00449243324 0.0114324465 0.00306677098
v -0.00122209427 -0.00168355652 0.0123892992
v -0.00714353607 0.0100949713 0.00239431633
v -0.00873651346 0.00873659501 0.00226045724
v -0.00788029431 0.00971679563 0.00208742052
v -0.00823391499 0.00949499075 0.00183705505
v -0.00787352302 0.00983862627 0.00162699664
v -0.00884797415 0.00884793648 0.00134099599
v 0.000434015339 -0.000347437902 0.0125547726
v -4.89216028e-05 -0.00114962415 0.0126311471
v 0.000421933622 -0.00102934979 0.012652644
v 0.00134819777 -0.000607999181 0.0125718805
v 0.00394377867 0.00413189778 0.0112136709
v -0.00814750036 0.0094923819 0.00137258645
v -0.00532634242 0.0112510785 0.00253121807
v -0.00633258504 0.0107752425 0.00218283066
v -0.00739898523 0.0100735272 0.00146711941
v -0.00615353889 0.010880751 0.0018239617
v -0.00490482613 0.0113695058 0.00204065761
v -0.0021423025 0.0118838407 0.00393951203
v -0.00377942231 0.011748235 0.00294843848
v -0.0040992721 0.0116450633 0.00244153615
v -0.00324489912 0.0118274535 0.00282050248
v -0.0028007113 0.0119166781 0.00309415266
v -0.00156786284 0.011921748 0.00371302243
v 0.000805900281 0.0111614049 0.00600904013
v 0.000310792303 0.0115303731 0.00527172927
v -0.00114818487 0.0119111966 0.00402889486
v 3.55401863e-06 0.0116536463 0.00475038167
v 0.00198034856 0.0103076079 0.00715315328
v 0.00139854112 0.0110351885 0.00588573094
v 0.00287974385 0.00917412774 0.00829924649
v 0.00200738625 0.0106058893 0.00652981511
v 0.00281565621 0.00976290002 0.00750181824
v 0.00345909014 0.00759635834 0.00957479774
v 0.00350403047 0.00562366357 0.0108151807
v 0.00371382292 0.00792109078 0.00914090054
v 0.00375393534 0.00499043834 0.0110676253
v 0.00399772226 0.00636566042 0.0101777772
v 0.00256190458 0.00281797299 0.0119691002
v 0.00299093096 0.00277661915 0.0120288418
v 0.00255349728 0.00245422283 0.0121230338
v 0.00256818237 0.00161155472 0.0123740364
v 0.00192928654 0.000967367476 0.0124955016
v 0.00180411657 0.00122154435 0.0124188357
v 0.000700689944 -0.00137414089 0.0124896872
v -0.0023235031 -0.00286513865 0.0121543549
v -0.00139611765 -0.00267324154 0.0123183421
v -0.000106984178 -0.00193021155 0.0124842121
v -0.000794313756 -0.00253464332 0.0123010981
v -0.0042307875 -0.00345174874 0.0114687545
v -0.00240484304 -0.00346923028 0.011818158
v -0.00631339814 -0.00350535858 0.010427069
v -0.00463347607 -0.00386504805 0.0111817715
v -0.00327732405 -0.00371719947 0.0115678417
v -0.00413181624 -0.00394369712 0.0112136709
v -0.00710929797 -0.00365633325 0.00989485331
v -0.00457683266 -0.00406641115 0.0109852332
v -0.00582351526 -0.00412859073 0.0103640663
v -0.00915216184 -0.00268165752 0.0083616938
v -0.0069727663 -0.00394304253 0.00979169748
v -0.00742819151 -0.00395061126 0.00935877438
v -0.00982253626 -0.00247060769 0.00769633368
v -0.00846890559 -0.00352470829 0.00871197409
v -0.00887360415 -0.00341774574 0.00824321385
v -0.011029297 -0.000844656419 0.00621869735
v -0.0102441071 -0.00241218755 0.00703962268
v -0.00950293656 -0.00307992198 0.00759608329
v -0.0100943073 -0.00255407443 0.00706781026
v -0.0113030024 -0.000836889596 0.00569033367
v -0.0118493738 0.00149660459 0.00432299494
v -0.0118065421 0.000609870702 0.00459066985
v -0.0118295344 0.00311048711 0.00342398575
v -0.0113568263 0.00502331152 0.00267138211
v -0.011928837 0.00251390812 0.00331481671
v -0.0116418887 0.00420911866 0.00252080215
v -0.0106809673 0.00625160107 0.00251881531
v -0.00986673674 0.00740025887 0.00237668629
v -0.0104100063 0.00706955361 0.00175775366
v -0.010101108 0.00745292591 0.00193567909
v -0.00973501862 0.00773507163 0.00221561317
v -0.000992302519 0.000960637844 -0.0125572868
v 0.000448334204 0.00218356661 -0.0124348728
v 0.00161413289 0.00297462895 -0.0121677942
v 0.00202403794 0.00310894301 -0.0120777812
v 0.00284282089 0.00346689867 -0.0118111688
v 0.00364750059 0.00380735108 -0.0114568166
v 0.00454144484 0.00393043791 -0.0111144566
v 0.00534569183 0.00409773899 -0.0106624079
v 0.00621351228 0.00403729447 -0.0102322178
v 0.00697945934 0.00402810341 -0.00970127511
v 0.00774851919 0.00385890042 -0.00917150323
v 0.0085070537 0.00352462172 -0.00864935533
v 0.00867395902 0.00356737497 -0.00835840868
v 0.00958320773 0.00303346822 -0.00749887565
v 0.0103568963 0.002243133 -0.00687519173
v 0.0108362985 0.00165553038 -0.00627913131
v 0.0112288453 0.00101819805 -0.00569805799
v 0.0115394435 0.0003230417 -0.00513151979
v 0.011763733 -0.000419336681 -0.00458617677
v 0.0118995065 -0.00120187382 -0.0040681435
v 0.0119451671 -0.00201550928 -0.00358349584
v 0.0119002847 -0.00285165077 -0.00313743147
v 0.0117653487 -0.00369967299 -0.00273549956
v 0.0115417545 -0.00455072195 -0.00238173674
v 0.011232221 -0.00539490845 -0.0020803144
v 0.0108400638 -0.00622271026 -0.00183502005
v 0.0103699274 -0.00702465975 -0.0016477165
v 0.00982681787 -0.00779187015 -0.00152094713
v 0.00891630615 -0.00883265001 -0.00139323429
v 0.00821869593 -0.00948029523 -0.00141368345
v 0.00747221092 -0.0100663106 -0.00150537208
v 0.00706162899 -0.0103458414 -0.00164005953
v 0.00583465261 -0.0110413706 -0.00188351829
v 0.00546434112 -0.0112027369 -0.00206747082
v 0.00461422947 -0.0115157068 -0.00227134539
v 0.00376151018 -0.0117492229 -0.0026200164
v 0.0029107147 -0.0118944703 -0.00301768133
v 0.00207215489 -0.0119497115 -0.00345909609
v 0.00125390218 -0.0119146083 -0.00393996399
v 0.000465888856 -0.0117894026 -0.0044540473
v -0.000283181061 -0.0115757982 -0.00499623305
v -0.000950809911 -0.0112624292 -0.00564411845
v -0.0021992198 -0.0103978695 -0.00682761505
v -0.00271252189 -0.00984887234 -0.00743214141
v -0.0031449149 -0.00924176954 -0.00801834667
v -0.00349701413 -0.00857484223 -0.00859286708
v -0.00376477929 -0.00785522575 -0.00914956054
v -0.00394502663 -0.0070913095 -0.00968218613
v -0.00403576412 -0.00629190217 -0.0101843566
v -0.0040365771 -0.0054663969 -0.0106497739
v -0.00394635751 -0.00462284925 -0.0110747551
v -0.0037668501 -0.00377233933 -0.0114531524
v -0.00349986992 -0.00292354131 -0.0117812104
v -0.00314877924 -0.00208656526 -0.0120550287
v -0.00271652746 -0.00127015229 -0.0122720505
v -0.00220931155 -0.000484829076 -0.0124289778
v -0.00175802966 0.000394199908 -0.0124112528
v -0.00150408609 -0.000168119187 -0.0126109298
v -0.00146818218 -0.0108216705 -0.00644893703
v 0.00984153462 0.0025170092 -0.00759358474
v 0.00924333436 0.0029425097 -0.00817044366
v -0.00228376422 -0.0014888925 -0.0123796251
v -0.00270420456 -0.00227405517 -0.0121738676
v -0.00304712561 -0.00307943505 -0.0119129873
v -0.00330900524 -0.00389688831 -0.0115996263
v -0.00348689839 -0.00471695345 -0.011237447
v -0.00357831875 -0.00552939534 -0.0108309309
v -0.0035828243 -0.00632659181 -0.0103838598
v -0.0035000026 -0.00709865757 -0.00990188853
v -0.00333105204 -0.00783686742 -0.00939032246
v -0.003077689 -0.00853184237 -0.00885577623
v -0.00274277929 -0.00917789439 -0.00830251464
v -0.00233045939 -0.00976589301 -0.00773844882
v -0.00184481679 -0.0102904867 -0.00716869734
v -0.000677405146 -0.0111241458 -0.00604017139
v -9.23616671e-06 -0.0114237506 -0.00549438111
v 0.00070580866 -0.0116403069 -0.00496922357
v 0.00145949002 -0.0117717501 -0.00447020016
v 0.00224371965 -0.011816607 -0.00400263395
v 0.00304876687 -0.0117741339 -0.00357250187
v 0.00386581747 -0.0116447754 -0.00318480512
v 0.00468537502 -0.0114301598 -0.0028437402
v 0.00549928169 -0.0111324257 -0.00255250162
v 0.00629681458 -0.0107553866 -0.00231555359
v 0.00706910829 -0.0103032076 -0.00213520279
v 0.00780869335 -0.00978063502 -0.00201283372
v 0.00850658482 -0.00919362348 -0.00195008229
v 0.00915456417 -0.00854922045 -0.00194792235
v 0.00974494334 -0.00785479574 -0.00200666842
v 0.0102717402 -0.00711788597 -0.00212522301
v 0.0107288086 -0.00634661861 -0.00230238094
v 0.0111104489 -0.00555098284 -0.00253611055
v 0.0114138639 -0.00473714721 -0.00282348579
v 0.0116338673 -0.00391777463 -0.00316143878
v 0.011768439 -0.00310053968 -0.00354654251
v 0.0118166415 -0.00229416816 -0.00397416127
v 0.0117774343 -0.0015092629 -0.0044389191
v 0.011651339 -0.00075297507 -0.00493649347
v 0.0114399729 -3.57047702e-05 -0.00546027723
v 0.0111452162 0.000637094164 -0.0060055579
v 0.010771416 0.00125400962 -0.00656433792
v 0.0103210793 0.00181265512 -0.0071329979
v 0.00857496872 0.0030585862 -0.00882063556
v 0.007881727 0.00331761666 -0.00935741851
v 0.00714710428 0.00349147403 -0.00986996452
v 0.00637632931 0.00358009201 -0.0103542974
v 0.0055810444 0.00358110984 -0.0108034342
v 0.00476850336 0.00349526096 -0.0112131055
v 0.0039494049 0.00332289851 -0.0115779101
v 0.00313158895 0.00306626893 -0.0118944751
v 0.00232487494 0.00272840555 -0.0121588517
v 0.00153893369 0.00231310167 -0.0123680354
v 0.000780731688 0.0018249275 -0.0125199188
v 6.17008226e-05 0.00126953106 -0.0126123951
v -0.000611825493 0.000653223339 -0.012644625
v -0.00101713214 -0.000135025909 -0.0125739378
v -0.00113526388 -0.0106064228 -0.0067357737
v 0.00973554735 0.00206771519 -0.00775250962
v 0.00917053661 0.00247669253 -0.00830192603
v -0.00151588759 -0.000950471072 -0.0124323261
v -0.00198724112 -0.00167729011 -0.0122883213
v -0.00238885721 -0.00243248096 -0.0120888842
v -0.0027159675 -0.00320734134 -0.0118363989
v -0.00296511492 -0.00399328819 -0.0115337265
v -0.00313331923 -0.00478114238 -0.0111842049
v -0.00321867308 -0.00556232086 -0.0107918871
v -0.00316821377 -0.00619820771 -0.0104257225
v -0.00303501527 -0.00732578269 -0.00971624758
v -0.00271826577 -0.00831647038 -0.00897749036
v -0.00240268549 -0.00906314006 -0.00835763339
v -0.00200393042 -0.00962676158 -0.0078148735
v -0.00153508028 -0.0101286327 -0.00726758365
v -0.00040938696 -0.0109251892 -0.00618373279
v 0.000234700831 -0.0112106954 -0.00565945033
v 0.000923492106 -0.0114165699 -0.00515495662
v 0.00155039744 -0.0114822507 -0.00478526736
v 0.00240335623 -0.011580721 -0.00422786598
v 0.00317762056 -0.0115372097 -0.00381587867
v 0.00396320978 -0.0114102518 -0.00344442253
v 0.00475130239 -0.0112012779 -0.00311790828
v 0.00553271929 -0.0109127914 -0.00283991222
v 0.0061684874 -0.0105758251 -0.00269229943
v 0.00704095522 -0.0101107513 -0.00244163398
v 0.00775048891 -0.009606496 -0.00232588176
v 0.00829085382 -0.0091116521 -0.00232108252
v 0.00948790506 -0.00784561088 -0.00236007351
v 0.0099670372 -0.00718488711 -0.00246589846
v 0.0106627358 -0.00600905605 -0.00273467729
v 0.011118269 -0.00488412318 -0.00311058666
v 0.011537172 -0.00317765823 -0.00381587867
v 0.0115806834 -0.00240327468 -0.00422786598
v 0.0115092528 -0.00179425621 -0.00463258855
v 0.0114017064 -0.00111493101 -0.00507973627
v 0.0109251515 0.000409349294 -0.00618373279
v 0.0105631129 0.00100158104 -0.00672172431
v 0.0101287142 0.00153504262 -0.00726758365
v 0.00844416777 0.00272689709 -0.00888954524
v 0.00777683416 0.00297294507 -0.00940464858
v 0.0071747403 0.00305960419 -0.00981381793
v 0.00644407475 0.0031551071 -0.0102796559
v 0.00572795353 0.00315882168 -0.0106891297
v 0.00491362828 0.00309594702 -0.0111093425
v 0.00417512891 0.00294368381 -0.0114433992
v 0.00334974992 0.00270810704 -0.0117725236
v 0.00262241465 0.00240599655 -0.0120158177
v 0.00167737165 0.00198732266 -0.0122883213
v 0.000950433406 0.00151584992 -0.0124323261
v 0.000402586584 0.00102827702 -0.0124871906
v -0.000385783521 0.000385745855 -0.0125485552
v -0.00634016832 0.00634013066 0.00883771058
v 0.00443539778 -0.00498439422 -0.0106762541
v -0.00658645472 0.00603745827 0.00886953946
v 0.0042624251 -0.00532306781 -0.010582794
v -0.0067594274 0.00569878468 0.00896299954
v 0.00417456785 -0.0056744968 -0.0104342592
v -0.00684728464 0.0053473557 0.00911153432
v 0.0041777865 -0.00601483932 -0.0102405441
v -0.00684406599 0.00500701317 0.00930524941
v 0.00427172342 -0.00632084957 -0.0100150001
v -0.00675012907 0.00470100293 0.00953079339
v 0.00445029894 -0.0065715467 -0.00977288608
v -0.00657155356 0.00445030579 0.00977290745
v 0.00470099607 -0.00675012222 -0.00953089122
v -0.00632085642 0.00427173028 0.0100149023
v 0.00500700632 -0.00684405914 -0.00930522804
v -0.00601484617 0.00417779336 0.0102405655
v 0.00534734884 -0.00684727779 -0.00911163215
v -0.00567450365 0.0041745747 0.0104341614
v 0.00569877783 -0.00675942054 -0.00896297817
v -0.00532307467 0.00426243195 0.0105828154
v 0.00603745142 -0.00658644786 -0.00886951808
v -0.00498440107 0.00443540463 0.0106762755
v 0.0063401238 -0.00634016147 -0.0088376892
v -0.00468160948 0.00468169102 0.0107081043
v 0.0065864102 -0.00603736988 -0.00886951808
v -0.0044354423 0.00498448262 0.0106762755
v 0.00675938288 -0.00569869628 -0.00896297817
v -0.00426246962 0.005323037 0.0105828154
v 0.00684724012 -0.0053472673 -0.00911163215
v -0.00417449316 0.0056745852 0.0104341614
v 0.00684414068 -0.00500704399 -0.00930522804
v -0.00417771181 0.00601480851 0.0102405655
v 0.00675008455 -0.00470103374 -0.00953089122
v -0.00427176794 0.00632081875 0.0100149023
v 0.00657162825 -0.00445021739 -0.00977288608
v -0.00445022425 0.0065716351 0.00977290745
v 0.0063208119 -0.00427176109 -0.0100150001
v -0.00470104059 0.00675009141 0.00953079339
v 0.00601480165 -0.00417770496 -0.0102405441
v -0.00500705084 0.00684414753 0.00930524941
v 0.00567457834 -0.00417460552 -0.0104342592
v -0.00534727415 0.00684724698 0.00911153432
v 0.00532314936 -0.00426246276 -0.010582794
v -0.00569870314 0.00675938973 0.00896299954
v 0.00498447576 -0.00443543544 -0.0106762541
v -0.00603737673 0.00658641705 0.00886953946
v 0.00468168417 -0.00468172183 -0.010708083
v 0.00551090399 -0.00551094165 -0.00977288608
v -0.00551094851 0.00551091084 0.00977290745
f 7 8 510
f 8 511 510
f 8 1 512
f 8 512 511
f 11 14 12
f 11 12 10
f 7 13 11
f 11 13 14
f 9 544 543
f 9 543 542
f 9 546 545
f 9 545 544
f 536 535 16
f 16 535 20
f 21 548 9
f 9 548 547
f 9 547 546
f 10 551 11
f 11 551 21
f 22 528 19
f 23 530 22
f 22 530 529
f 23 531 530
f 23 532 531
f 71 74 321
f 71 321 75
f 75 326 76
f 76 330 77
f 77 78 79
f 65 100 354
f 65 354 101
f 101 360 102
f 102 103 104
f 104 105 106
f 106 107 370
f 70 74 71
f 64 100 65
f 72 70 71
f 66 64 65
f 73 72 71
f 73 71 127
f 164 66 65
f 164 65 128
f 62 72 193
f 193 72 73
f 73 127 129
f 67 66 164
f 130 164 128
f 130 128 131
f 193 73 192
f 192 73 129
f 192 129 135
f 71 75 137
f 71 137 127
f 127 137 138
f 127 138 129
f 129 138 139
f 129 139 135
f 135 139 140
f 135 140 190
f 190 140 60
f 190 60 136
f 136 60 59
f 136 59 61
f 75 76 137
f 139 141 140
f 140 141 58
f 140 58 386
f 140 386 60
f 76 77 142
f 76 142 137
f 137 142 143
f 137 143 138
f 138 143 144
f 138 144 139
f 139 144 145
f 139 145 141
f 141 145 57
f 141 57 389
f 141 389 58
f 77 79 142
f 144 146 145
f 145 146 56
f 145 56 391
f 145 391 57
f 79 147 142
f 142 147 148
f 142 148 143
f 143 148 144
f 144 148 55
f 144 55 146
f 146 55 393
f 146 393 56
f 55 394 393
f 148 147 149
f 148 149 54
f 148 54 55
f 55 54 396
f 55 396 394
f 147 133 149
f 54 149 396
f 53 133 151
f 151 133 147
f 150 147 81
f 81 147 80
f 80 147 79
f 80 79 335
f 335 79 69
f 53 397 133
f 133 397 149
f 149 397 396
f 152 151 147
f 152 147 150
f 50 52 53
f 50 53 151
f 152 150 84
f 84 150 81
f 84 81 83
f 83 81 82
f 82 81 80
f 51 52 50
f 153 151 152
f 154 50 151
f 154 151 153
f 155 153 152
f 155 152 87
f 87 152 84
f 87 84 86
f 86 84 85
f 85 84 83
f 49 51 50
f 154 153 155
f 47 49 50
f 47 50 156
f 156 50 154
f 90 155 87
f 90 87 89
f 89 87 88
f 88 87 86
f 48 49 47
f 157 156 154
f 157 154 155
f 158 157 155
f 158 155 93
f 93 155 90
f 93 90 92
f 92 90 91
f 91 90 89
f 46 48 47
f 44 46 47
f 44 47 159
f 159 47 156
f 159 156 157
f 96 158 93
f 96 93 95
f 95 93 94
f 94 93 92
f 45 46 44
f 160 159 157
f 160 157 158
f 163 160 158
f 163 158 98
f 98 158 96
f 98 96 97
f 97 96 95
f 42 45 44
f 98 97 99
f 43 42 44
f 43 44 159
f 43 159 160
f 164 163 98
f 164 98 271
f 271 98 99
f 41 42 161
f 161 42 43
f 162 43 160
f 162 160 163
f 68 164 271
f 68 67 164
f 164 130 163
f 163 130 131
f 163 131 162
f 162 131 132
f 162 132 43
f 43 132 161
f 65 101 165
f 65 165 128
f 128 165 166
f 128 166 131
f 131 166 167
f 131 167 132
f 132 167 39
f 132 39 161
f 161 39 41
f 41 413 412
f 39 40 41
f 41 40 414
f 41 414 413
f 101 102 165
f 167 168 39
f 168 38 39
f 39 38 416
f 39 416 40
f 102 104 169
f 102 169 165
f 165 169 170
f 165 170 166
f 166 170 171
f 166 171 167
f 167 171 168
f 38 418 416
f 168 37 38
f 38 37 419
f 38 419 418
f 104 106 169
f 171 172 168
f 168 172 37
f 37 420 419
f 172 36 37
f 37 36 421
f 37 421 420
f 370 63 106
f 106 63 173
f 106 173 169
f 169 173 174
f 169 174 170
f 170 174 171
f 171 174 172
f 36 422 421
f 36 172 423
f 36 423 422
f 174 173 35
f 174 35 172
f 172 35 424
f 172 424 423
f 35 34 424
f 63 178 173
f 173 178 134
f 173 134 35
f 35 134 175
f 35 175 34
f 179 178 63
f 179 63 180
f 180 63 109
f 109 63 108
f 108 63 176
f 176 63 370
f 33 177 178
f 178 177 134
f 30 32 33
f 30 33 181
f 181 33 178
f 181 178 179
f 112 180 109
f 112 109 111
f 111 109 110
f 110 109 108
f 31 32 30
f 182 181 179
f 182 179 183
f 183 179 180
f 183 180 115
f 115 180 112
f 115 112 114
f 114 112 113
f 113 112 111
f 29 31 30
f 27 29 30
f 27 30 184
f 184 30 181
f 184 181 182
f 118 183 115
f 118 115 117
f 117 115 116
f 116 115 114
f 28 29 27
f 185 184 182
f 185 182 186
f 186 182 183
f 186 183 120
f 120 183 118
f 120 118 119
f 119 118 267
f 267 118 117
f 26 28 27
f 24 26 27
f 24 27 187
f 187 27 184
f 187 184 185
f 123 186 120
f 123 120 122
f 122 120 121
f 121 120 119
f 25 26 24
f 191 187 185
f 191 185 188
f 188 185 186
f 188 186 125
f 125 186 123
f 125 123 124
f 124 123 122
f 440 25 24
f 125 124 126
f 189 440 24
f 189 24 190
f 190 24 187
f 190 187 191
f 192 191 188
f 192 188 193
f 193 188 125
f 193 125 126
f 126 62 193
f 191 192 135
f 191 135 190
f 189 190 136
f 189 136 440
f 197 296 297
f 197 297 298
f 197 294 295
f 197 295 296
f 290 291 198
f 198 291 292
f 198 292 197
f 197 292 293
f 197 293 294
f 206 207 205
f 206 304 207
f 281 208 209
f 203 202 210
f 206 287 288
f 206 288 304
f 206 285 286
f 206 286 287
f 200 211 199
f 199 211 206
f 206 211 284
f 206 284 285
f 209 280 281
f 212 278 209
f 209 278 279
f 212 277 278
f 213 215 212
f 212 215 214
f 213 210 215
f 298 299 197
f 197 299 300
f 197 300 204
f 204 300 302
f 216 210 213
f 216 213 212
f 216 212 235
f 235 212 238
f 238 212 209
f 238 209 239
f 239 209 208
f 239 208 217
f 217 208 201
f 217 201 200
f 217 200 218
f 218 200 199
f 218 199 206
f 218 206 219
f 219 206 220
f 220 206 221
f 221 206 205
f 221 205 196
f 221 196 195
f 221 195 222
f 222 195 194
f 222 194 198
f 222 198 223
f 223 198 224
f 224 198 197
f 224 197 225
f 225 197 226
f 226 197 204
f 226 204 203
f 226 203 227
f 227 203 216
f 216 203 210
f 228 218 219
f 228 219 220
f 228 220 229
f 229 220 221
f 229 221 230
f 230 221 236
f 231 226 232
f 232 226 233
f 233 226 227
f 233 227 216
f 233 216 234
f 234 216 235
f 221 222 236
f 236 222 223
f 236 223 224
f 236 224 237
f 237 224 225
f 237 225 231
f 231 225 226
f 239 217 240
f 240 217 228
f 228 217 218
f 241 233 234
f 241 234 235
f 241 235 242
f 242 235 238
f 242 238 239
f 242 239 243
f 243 239 240
f 243 240 228
f 243 228 244
f 244 228 245
f 245 228 229
f 245 229 246
f 246 229 230
f 246 230 236
f 246 236 247
f 247 236 237
f 247 237 248
f 248 237 231
f 248 231 232
f 248 232 233
f 248 233 241
f 246 256 249
f 246 249 250
f 246 250 245
f 245 250 251
f 245 251 252
f 245 252 244
f 248 253 254
f 248 254 247
f 247 254 255
f 247 255 246
f 246 255 256
f 242 257 241
f 241 257 258
f 241 258 259
f 241 259 248
f 248 259 260
f 248 260 261
f 248 261 253
f 252 262 244
f 244 262 243
f 243 262 263
f 243 263 242
f 242 263 264
f 242 264 257
f 11 259 258
f 11 258 257
f 11 257 7
f 7 257 8
f 8 257 264
f 8 264 1
f 1 264 263
f 1 263 2
f 2 263 3
f 3 263 262
f 3 262 15
f 15 262 17
f 17 262 18
f 18 262 252
f 18 252 19
f 19 252 22
f 22 252 251
f 22 251 250
f 22 250 23
f 23 250 249
f 23 249 20
f 20 249 256
f 20 256 16
f 16 256 255
f 16 255 4
f 4 255 5
f 5 255 254
f 5 254 6
f 6 254 9
f 9 254 253
f 9 253 261
f 9 261 260
f 9 260 21
f 21 260 11
f 11 260 259
f 126 124 266
f 267 117 377
f 117 116 268
f 116 114 374
f 114 113 269
f 113 111 372
f 111 110 270
f 110 108 369
f 271 99 314
f 99 97 273
f 92 91 274
f 91 89 274
f 89 88 341
f 88 86 275
f 86 85 339
f 85 83 276
f 83 82 336
f 280 209 279
f 282 208 281
f 282 201 208
f 283 200 201
f 283 211 200
f 289 194 195
f 290 198 194
f 303 203 204
f 305 202 203
f 311 207 304
f 311 304 312
f 210 202 306
f 306 202 305
f 306 305 307
f 316 72 62
f 203 303 305
f 305 303 317
f 305 317 307
f 307 317 318
f 307 318 308
f 308 318 309
f 309 316 310
f 310 316 62
f 309 319 316
f 316 319 72
f 320 70 72
f 204 302 303
f 318 317 320
f 318 320 309
f 309 320 319
f 319 320 72
f 320 74 70
f 300 301 302
f 302 301 322
f 302 322 323
f 302 323 303
f 303 323 317
f 317 323 321
f 317 321 320
f 320 321 74
f 324 75 321
f 323 324 321
f 325 326 75
f 300 299 301
f 322 326 323
f 323 326 325
f 323 325 324
f 324 325 75
f 327 330 76
f 298 297 328
f 298 328 299
f 299 328 329
f 299 329 301
f 301 329 330
f 301 330 322
f 322 330 327
f 322 327 326
f 326 327 76
f 331 78 77
f 296 295 332
f 296 332 297
f 297 332 328
f 329 331 330
f 330 331 77
f 329 79 78
f 331 329 78
f 333 69 79
f 294 293 334
f 294 334 295
f 295 334 332
f 332 335 328
f 328 335 333
f 328 333 329
f 329 333 79
f 333 335 69
f 82 80 336
f 292 291 337
f 292 337 293
f 293 337 334
f 334 336 332
f 332 336 335
f 335 336 80
f 290 338 291
f 291 338 337
f 337 339 334
f 334 339 276
f 334 276 336
f 336 276 83
f 276 339 85
f 194 289 290
f 290 289 338
f 338 340 337
f 337 340 341
f 337 341 339
f 339 341 275
f 339 275 86
f 275 341 88
f 289 343 338
f 338 343 340
f 340 274 341
f 341 274 89
f 343 273 340
f 340 273 315
f 340 315 274
f 274 315 92
f 97 95 273
f 345 273 343
f 344 343 342
f 342 343 289
f 342 289 195
f 273 95 94
f 273 94 315
f 315 94 92
f 344 342 195
f 272 99 273
f 272 273 345
f 346 345 343
f 346 343 347
f 347 343 344
f 347 344 196
f 196 344 195
f 314 99 272
f 205 347 196
f 314 272 313
f 313 272 345
f 313 345 312
f 312 345 346
f 312 346 311
f 311 346 347
f 311 347 207
f 207 347 205
f 66 67 348
f 304 288 349
f 304 349 312
f 312 349 350
f 312 350 313
f 313 350 351
f 313 351 314
f 314 351 348
f 314 348 271
f 271 348 67
f 271 67 68
f 348 351 66
f 352 64 66
f 287 286 353
f 287 353 288
f 288 353 349
f 350 352 351
f 351 352 66
f 350 100 64
f 352 350 64
f 285 284 355
f 285 355 286
f 286 355 353
f 353 356 349
f 349 356 354
f 349 354 350
f 350 354 100
f 357 101 354
f 356 357 354
f 358 360 101
f 211 283 284
f 284 283 355
f 355 359 353
f 353 359 356
f 356 358 357
f 357 358 101
f 356 360 358
f 361 103 102
f 283 362 355
f 355 362 359
f 359 363 356
f 356 363 361
f 356 361 360
f 360 361 102
f 363 104 103
f 361 363 103
f 364 105 104
f 201 282 283
f 283 282 362
f 362 365 359
f 359 365 366
f 359 366 363
f 363 366 364
f 363 364 104
f 366 106 105
f 364 366 105
f 367 107 106
f 282 368 362
f 362 368 365
f 365 369 366
f 366 369 367
f 366 367 106
f 369 370 367
f 367 370 107
f 108 176 371
f 371 176 370
f 282 281 368
f 368 372 365
f 365 372 369
f 369 371 370
f 371 369 108
f 280 373 281
f 281 373 374
f 281 374 368
f 368 374 372
f 372 270 369
f 369 270 110
f 270 372 111
f 279 278 375
f 279 375 280
f 280 375 373
f 374 269 372
f 372 269 113
f 269 374 114
f 277 376 278
f 278 376 375
f 375 377 373
f 373 377 268
f 373 268 374
f 374 268 116
f 268 377 117
f 376 378 375
f 375 378 267
f 375 267 377
f 376 266 378
f 267 378 119
f 124 122 266
f 381 266 376
f 379 376 277
f 379 277 215
f 215 277 214
f 214 277 212
f 266 122 121
f 266 121 378
f 378 121 119
f 382 381 376
f 382 376 379
f 265 126 266
f 265 266 381
f 383 382 379
f 383 379 380
f 380 379 215
f 62 126 265
f 383 380 210
f 210 380 215
f 310 62 265
f 310 265 309
f 309 265 381
f 309 381 308
f 308 381 382
f 308 382 307
f 307 382 383
f 307 383 306
f 306 383 210
f 61 59 385
f 385 59 60
f 385 60 386
f 387 386 388
f 386 58 388
f 388 58 389
f 389 57 390
f 390 57 391
f 391 56 392
f 392 56 393
f 394 396 395
f 398 397 53
f 398 53 52
f 398 52 399
f 399 52 400
f 400 52 51
f 400 51 401
f 401 51 402
f 402 51 49
f 402 49 403
f 403 49 404
f 404 49 48
f 404 48 405
f 405 48 406
f 406 48 46
f 406 46 407
f 407 46 408
f 408 46 45
f 408 45 409
f 409 45 410
f 410 45 42
f 410 42 411
f 42 412 411
f 42 41 412
f 415 414 40
f 415 40 416
f 417 416 418
f 424 34 425
f 425 34 134
f 34 175 134
f 134 177 426
f 426 177 33
f 426 33 427
f 427 33 32
f 427 32 428
f 428 32 429
f 429 32 31
f 429 31 430
f 430 31 431
f 431 31 29
f 431 29 432
f 432 29 433
f 433 29 28
f 433 28 434
f 434 28 435
f 435 28 26
f 435 26 436
f 436 26 437
f 437 26 25
f 437 25 438
f 438 25 439
f 439 25 440
f 384 440 136
f 384 136 61
f 384 441 440
f 440 441 439
f 426 442 134
f 134 442 425
f 398 443 397
f 397 443 444
f 397 444 396
f 396 444 395
f 439 441 445
f 439 445 438
f 438 445 446
f 438 446 437
f 437 446 447
f 437 447 436
f 436 447 448
f 436 448 435
f 435 448 449
f 435 449 434
f 434 449 450
f 434 450 433
f 433 450 451
f 433 451 432
f 432 451 452
f 432 452 431
f 431 452 453
f 431 453 430
f 430 453 454
f 430 454 429
f 429 454 455
f 429 455 428
f 428 455 456
f 428 456 427
f 427 456 457
f 427 457 426
f 426 457 442
f 442 458 425
f 425 458 459
f 425 459 424
f 424 459 460
f 424 460 423
f 423 460 461
f 423 461 422
f 422 461 462
f 422 462 421
f 421 462 463
f 421 463 420
f 420 463 464
f 420 464 419
f 419 464 465
f 419 465 418
f 418 465 466
f 418 466 417
f 417 466 467
f 417 467 416
f 416 467 468
f 416 468 415
f 415 468 469
f 415 469 414
f 414 469 470
f 414 470 413
f 413 470 471
f 413 471 412
f 412 471 472
f 412 472 411
f 411 472 473
f 411 473 410
f 410 473 474
f 410 474 409
f 409 474 475
f 409 475 408
f 408 475 476
f 408 476 407
f 407 476 477
f 407 477 406
f 406 477 478
f 406 478 405
f 405 478 479
f 405 479 404
f 404 479 480
f 404 480 403
f 403 480 481
f 403 481 402
f 402 481 482
f 402 482 401
f 401 482 483
f 401 483 400
f 400 483 484
f 400 484 399
f 399 484 485
f 399 485 398
f 398 485 443
f 444 486 395
f 395 486 487
f 395 487 394
f 394 487 488
f 394 488 393
f 393 488 489
f 393 489 392
f 392 489 490
f 392 490 391
f 391 490 491
f 391 491 390
f 390 491 492
f 390 492 389
f 389 492 493
f 389 493 388
f 388 493 494
f 388 494 387
f 387 494 495
f 387 495 386
f 386 495 496
f 386 496 385
f 385 496 497
f 385 497 61
f 61 497 498
f 61 498 384
f 384 498 441
f 498 499 441
f 457 500 442
f 442 500 458
f 485 501 443
f 443 501 502
f 443 502 444
f 444 502 486
f 499 503 441
f 441 503 504
f 441 504 445
f 445 504 505
f 445 505 446
f 446 505 506
f 446 506 447
f 447 506 507
f 447 507 448
f 448 507 508
f 448 508 449
f 449 508 509
f 449 509 450
f 450 509 510
f 450 510 451
f 451 510 511
f 451 511 452
f 452 511 453
f 453 511 512
f 453 512 454
f 454 512 513
f 454 513 455
f 455 513 514
f 455 514 456
f 456 514 515
f 456 515 457
f 457 515 500
f 500 516 458
f 458 516 517
f 458 517 459
f 459 517 518
f 459 518 460
f 460 518 519
f 460 519 461
f 461 519 520
f 461 520 462
f 462 520 521
f 462 521 463
f 463 521 522
f 463 522 464
f 464 522 523
f 464 523 465
f 465 523 524
f 465 524 466
f 466 524 525
f 466 525 467
f 467 525 526
f 467 526 468
f 468 526 527
f 468 527 469
f 469 527 528
f 469 528 470
f 470 528 22
f 470 22 471
f 471 22 529
f 471 529 472
f 472 529 530
f 472 530 473
f 473 530 531
f 473 531 474
f 474 531 475
f 475 531 532
f 475 532 476
f 476 532 23
f 476 23 477
f 477 23 533
f 477 533 478
f 478 533 534
f 478 534 479
f 479 534 535
f 479 535 480
f 480 535 536
f 480 536 481
f 481 536 16
f 481 16 482
f 482 16 537
f 482 537 483
f 483 537 538
f 483 538 484
f 484 538 539
f 484 539 485
f 485 539 501
f 502 540 486
f 486 540 541
f 486 541 487
f 487 541 542
f 487 542 488
f 488 542 543
f 488 543 489
f 489 543 544
f 489 544 490
f 490 544 545
f 490 545 491
f 491 545 546
f 491 546 492
f 492 546 547
f 492 547 493
f 493 547 548
f 493 548 494
f 494 548 549
f 494 549 495
f 495 549 550
f 495 550 496
f 496 550 551
f 496 551 497
f 497 551 552
f 497 552 498
f 498 552 499
f 552 10 499
f 499 10 12
f 499 12 503
f 503 12 14
f 503 14 504
f 504 14 505
f 505 14 13
f 505 13 506
f 506 13 507
f 507 13 7
f 507 7 508
f 508 7 509
f 509 7 510
f 513 512 1
f 513 1 514
f 514 1 515
f 515 1 2
f 515 2 500
f 500 2 516
f 516 2 517
f 517 2 3
f 517 3 518
f 518 3 15
f 518 15 519
f 520 519 15
f 520 15 521
f 521 15 522
f 522 15 17
f 522 17 523
f 523 17 18
f 523 18 524
f 524 18 19
f 524 19 525
f 526 525 19
f 526 19 527
f 527 19 528
f 533 23 20
f 533 20 534
f 534 20 535
f 537 16 4
f 537 4 538
f 538 4 539
f 539 4 5
f 539 5 501
f 501 5 502
f 502 5 540
f 540 5 6
f 540 6 541
f 541 6 9
f 541 9 542
f 549 548 21
f 549 21 550
f 550 21 551
f 552 551 10
f 553 554 555
f 555 554 556
f 555 556 557
f 557 556 558
f 557 558 559
f 559 558 560
f 559 560 561
f 561 560 562
f 561 562 563
f 563 562 564
f 563 564 565
f 565 564 566
f 565 566 567
f 567 566 568
f 567 568 569
f 569 568 570
f 569 570 571
f 571 570 572
f 571 572 573
f 573 572 574
f 573 574 575
f 575 574 576
f 575 576 577
f 577 576 578
f 577 578 579
f 579 578 580
f 579 580 581
f 581 580 582
f 581 582 583
f 583 582 584
f 583 584 585
f 585 584 586
f 585 586 587
f 587 586 588
f 587 588 589
f 589 588 590
f 589 590 591
f 591 590 592
f 591 592 593
f 593 592 594
f 593 594 595
f 595 594 596
f 595 596 597
f 597 596 598
f 597 598 599
f 599 598 600
f 599 600 553
f 553 600 554
f 580 578 601
f 601 578 576
f 601 576 574
f 586 584 601
f 601 584 582
f 601 582 580
f 592 590 601
f 601 590 588
f 601 588 586
f 598 596 601
f 601 596 594
f 601 594 592
f 556 554 601
f 601 554 600
f 601 600 598
f 562 560 601
f 601 560 558
f 601 558 556
f 568 566 601
f 601 566 564
f 601 564 562
f 574 572 601
f 601 572 570
f 601 570 568
f 573 575 602
f 602 575 577
f 602 577 579
f 567 569 602
f 602 569 571
f 602 571 573
f 561 563 602
f 602 563 565
f 602 565 567
f 555 557 602
f 602 557 559
f 602 559 561
f 597 599 602
f 602 599 553
f 602 553 555
f 591 593 602
f 602 593 595
f 602 595 597
f 585 587 602
f 602 587 589
f 602 589 591
f 579 581 602
f 602 581 583
f 602 583 585
