v -0.00810493489 0.00259893772 0.00574587607
v -0.00858485355 0.00316227407 0.00515522106
v -0.0086212224 0.00376188436 0.00451995862
v -0.00859443185 0.00477443083 0.00371782417
v 0.00140462389 0.00902152777 0.00848314174
v -0.00198746907 0.00684978937 0.00740095983
v -0.00246498045 0.00516549886 0.00905631003
v -0.0080778388 0.00548452403 0.00321132197
v -0.00730335501 0.0068594862 0.00292761365
v -0.00608567541 0.00797451511 0.00310426435
v -0.00531568348 0.00830101634 0.00342573859
v -0.00311541513 0.00898164583 0.00507628799
v 0.000739413657 0.0105486505 0.0065390775
v -0.00295027579 0.00438625224 0.00904581761
v -0.00353254338 0.00353258488 0.00897227549
v -0.00433026825 0.00297605572 0.00909276976
v -0.00500914603 0.00255714298 0.00879056394
v -0.00738595366 0.00200694361 0.00749410683
v -0.00774861167 0.00225420987 0.00668148701
v -0.0108889657 -0.000453822222 0.00598410049
v -0.00853079066 0.00903838288 -0.000341536976
v -0.00392790618 0.0086153272 0.00424510624
v 0.0013104161 0.00700236296 0.0101897883
v -0.00136003251 0.00208607936 0.0121812605
v -0.00537740083 0.00234420571 0.00860445733
v -0.00107054987 -0.00216846968 0.010854018
v -0.00277887926 -0.000867510728 0.0121236425
v -0.00354862906 -0.00343876434 0.010126502
v -0.00437812481 -0.00180392761 0.0115333111
v -0.00599612969 -0.00243506556 0.0106550741
v -0.00674068942 -0.00419220897 0.0080233257
v -0.0075566204 -0.00273045158 0.00953081978
v -0.00898608366 -0.00267704185 0.00821325363
v -0.00936275756 -0.00357940411 0.00524494781
v -0.00983534861 -0.00243360566 0.00725432852
v -0.0107611314 -0.00195381915 0.00593838834
v -0.0119620641 -0.000297577833 0.00345224093
v -0.00975443951 -0.00295990325 0.000193902845
v -0.012145928 0.000328416149 0.00273708432
v -0.0122443778 0.00100670033 0.00205111418
v -0.0106870398 -0.00117869084 0.000145436752
v -0.0121804291 0.00248627838 0.000801056651
v -0.0121767361 0.00213854595 0.000902642223
v -0.0117719804 0.00407295949 -0.000238946357
v -0.0118270063 0.0036942463 -0.000176376713
v -0.0110365285 0.00569291036 -0.00101973222
v -0.0111532861 0.00529225185 -0.00100910185
v -0.0101186576 0.00688687224 -0.00161052239
v -0.0067522714 0.0103904441 -0.00138174034
v -0.00349851244 0.0104863306 -0.00217839069
v -0.00514436536 0.0113288413 -0.000791232681
v -0.0035260679 0.0119573628 8.42495442e-05
v -0.000348157554 0.0112809626 -2.87844815e-05
v -0.00196442178 0.012250878 0.00120602538
v -0.000533391087 0.0121957339 0.00252094133
v 0.00221118989 0.0107308658 0.00282027393
v 0.00128487301 0.0114304716 0.00473795688
v 0.00245227752 0.00980731786 0.007273403
v 0.00546759682 0.00724687882 0.00464072687
v 0.00477515116 0.00709057699 0.00652210299
v 0.00280375626 0.00723409617 0.00966823714
v 0.00246184648 0.00567159806 0.0107384631
v 0.001795552 0.00406440412 0.0115625965
v 0.000482763021 0.00225397266 0.0122458387
v 0.000834877226 0.00239795713 0.0120811226
v -0.000348007215 0.00163743115 0.0125021156
v -0.00224651958 -0.00489557187 -0.0110960214
v 0.0115152354 -0.00437174486 0.000642837298
v 0.00851638173 -0.00895360342 0.00166934408
v -0.00216227474 -0.010403051 -0.00651016801
v -0.00103151387 -0.00303320548 -0.012042187
v -0.00351679339 -0.00186871105 -0.0100042154
v -0.000299786054 -0.00201154901 -0.0123014477
v -0.0023784616 0.000423811461 -0.0102631753
v 0.00114228966 -0.000454233286 -0.0124020661
v 0.0116874148 0.000877745544 -0.00423245492
v 0.010556933 -0.00649179219 0.00129958386
v 0.00940539512 -0.00402049518 0.00336310882
v 0.00982536755 -0.00751653447 0.0015575349
v 0.0110391284 -0.00569089079 0.00101694728
v 0.0119253764 -0.00314604213 -3.95675107e-05
v 0.0120224186 -0.0032669182 -0.000260238833
v 0.0121589949 -0.00161326148 -0.00115668804
v 0.0122596818 -0.00172073684 -0.00142079942
v 0.0120583114 -0.000213067791 -0.00245609379
v 0.0121462229 -0.000317527706 -0.00276578111
v 0.0116275391 0.00099047101 -0.00387681012
v 0.0110185365 0.00177370576 -0.00526886739
v 0.00894111465 0.00428844705 -0.00337553402
v 0.0104293129 0.00213050709 -0.00650675287
v 0.0100348744 0.00246114026 -0.00674903724
v 0.00787229646 0.00489589644 -0.00489570704
v 0.00923217399 0.00259515191 -0.00798041662
v 0.00880066867 0.00283408203 -0.00817633669
v 0.00656824468 0.00518332481 -0.00632467664
v 0.0078245709 0.00271299495 -0.00933028774
v 0.00737573635 0.00286953825 -0.00947224544
v 0.00509039165 0.00513135731 -0.00760697462
v 0.00627233437 0.00247826972 -0.0104938546
v 0.00582969299 0.00256568771 -0.0105740568
v 0.00350033477 0.0047447788 -0.00868303238
v 0.00465153231 0.00190398808 -0.0114144577
v 0.0042298322 0.00193556683 -0.0114357927
v 0.00186798878 0.00403955092 -0.00950587432
v 0.00287873992 0.00113703105 -0.0119642533
v 0.000264379715 0.00304440256 -0.0100403575
v 0.00179352111 0.00031140804 -0.0122516056
v -0.00151360588 -0.0038341656 -0.0117597348
v -0.00268557985 -0.00609337645 -0.0103812282
v -0.00249745323 -0.00625923286 -0.0104816578
v -0.00294307078 -0.00760331822 -0.00923643522
v -0.00273438178 -0.00780482593 -0.00932139873
v -0.00286432291 -0.00898103907 -0.00791285817
v -0.00262093626 -0.00920765455 -0.00797682588
v -0.00245247012 -0.0101655107 -0.00647029052
v -0.00173482248 -0.0110574315 -0.00520008993
v -0.00376818932 -0.00946102971 -0.00245854172
v -0.000753080194 -0.0117432373 -0.00372020308
v -0.00267777168 -0.0100903867 -0.000962563197
v 0.000326037906 -0.0121535208 -0.00279987601
v 0.000483223497 -0.0121177285 -0.00229328041
v -0.00136089734 -0.0103903495 0.000452383084
v 0.00173218943 -0.0122696203 -0.00144767157
v 0.00190738569 -0.0121539937 -0.000999627019
v 0.000128310408 -0.0103499501 0.00172162386
v 0.00328046167 -0.012031946 -0.000280921605
v 0.00345626201 -0.0118499967 0.000103555738
v 0.00172627904 -0.00997088648 0.00278899987
v 0.0048978578 -0.0114520012 0.00064606423
v 0.00505590293 -0.0112215263 0.000963056772
v 0.00335883364 -0.0092658685 0.0036115012
v 0.00643437569 -0.0104493592 0.00146158966
v 0.00495888482 -0.00826723177 0.00414980097
v 0.00755538942 -0.00966446939 0.00170513104
v 0.00730832011 -0.00308244722 0.00569460411
v 0.00752413224 -0.00139108317 0.00586121634
v -0.00488585975 0.000659305022 -0.00842712455
v -0.00611428768 -1.84653405e-05 -0.00745110509
v 0.00654658185 -0.00445412166 0.00577606396
v -0.00380746088 0.00171295043 -0.00886633734
v -0.00619823145 0.00339731624 -0.00650459792
v 0.00689275754 -0.0057143511 0.00494027578
v 0.00451195778 -0.002397225 0.00817319308
v -0.000200532764 0.000890255705 0.0122138316
v 0.00979510428 -0.000330228377 0.0028543817
v 0.00650799803 0.000851763234 0.00705830694
v 0.00357565366 0.00105938928 0.0098113601
v 0.00860532363 0.00189405347 0.00390662093
v 0.00442980742 0.00268541156 0.00912927397
v 0.0098548953 0.00264333948 0.000275382428
v 0.00725510671 0.00407718274 0.00486222656
v 0.0049800297 0.00430326631 0.00817373338
v 0.00790126871 0.00499067604 0.00197112124
v 0.00520032224 0.00584641955 0.00698795852
v 0.00450676911 0.0084213024 0.00465706412
v 0.0049792953 0.0083721976 0.00263596379
v 0.00208041896 0.010441544 0.00662867162
v 0.00794911545 0.00550555243 -0.00121108623
v 0.0038473403 0.0093756234 0.00122002982
v 0.0047319221 0.00831884114 -0.00114061158
v 0.00550399436 0.00711034845 -0.00347224058
v 0.00122976173 0.00999710586 -0.00165325881
v 0.0018962228 0.00860361368 -0.0039083957
v 0.00250347457 0.00705133273 -0.00607542127
v -0.00196738424 0.0092562852 -0.00382788294
v -0.00139138961 0.00752449839 -0.00586074542
v -0.000807013667 0.00564956957 -0.00776716562
v -0.00608567403 0.0086573009 -0.00333096255
v -0.00397169486 0.00620809409 -0.00632799267
v -0.0024529195 0.00315858983 -0.00894700255
v -0.00102800674 0.00172601356 -0.0104005451
v -0.00326611187 0.00475596337 -0.00761234999
v -0.00740787399 0.00615243824 -0.00431165379
v -0.00914981829 0.0081548646 -0.00178190219
v -0.00557421737 -0.0038905923 -0.00761479854
v -0.00791668212 0.000556579353 -0.00546961018
v -0.00880156748 0.00416787673 -0.00391724205
v -0.00719525225 -0.00330381189 -0.00549707063
v -0.00965781005 0.00254259948 -0.00323305878
v -0.00563506733 -0.00686282425 -0.00503459929
v -0.00866507062 -0.00266736873 -0.00327199228
v -0.0102008454 0.000916331983 -0.00228536616
v -0.00748123104 -0.00541063279 -0.00244503142
v -0.0104132612 -0.000633620794 -0.0011085971
v -0.0114215237 -0.0012745814 0.00342956018
v -0.00887124486 -0.00448005068 0.00175304843
v -0.0113346722 -0.00137967232 0.00499020838
v -0.00562201148 -0.00783286664 -0.00141328044
v -0.00806865423 -0.00515416053 0.00354105956
v -0.0061392768 -0.00691113126 0.00272913579
v -0.00409527962 -0.00851902957 0.00188368359
v -0.00544987115 -0.00577691622 0.00641278186
v -0.00330324178 -0.00719626243 0.0054957227
v -0.00109570641 -0.00845874263 0.00448832595
v -0.00225562236 -0.00503344025 0.00859028023
v -1.69049973e-05 -0.00611579354 0.00744940889
v 0.000236228563 -0.00368247772 0.00942990544
v 0.00221426404 -0.00705727205 0.00617974951
v -3.47044077e-05 -0.00133210781 0.0110304239
v 0.00240921577 -0.00170458285 0.00977213363
v 0.0024021717 -0.00450415341 0.00811041425
v 0.00414131621 -0.00554412964 0.00660978579
v 0.00675809436 -0.00687098827 0.00430473988
v 0.00322400073 -0.00386435154 -0.00895167566
v 0.0027586035 -0.00465068484 -0.00900130545
v 0.00191989811 -0.00636982545 -0.00788652511
v 0.00323220459 -0.00857524812 -0.00508042632
v 0.010135012 -0.00725096321 0.000178875087
v 0.00796434942 -0.00589757243 -0.00311502189
v 0.00843835253 -0.00495724503 -0.00362213353
v 0.0086051377 -0.00358836658 -0.00455559711
v 0.00661672701 -0.00203594035 -0.00785732615
v 0.00750947986 -0.00209100465 -0.00672420419
v 0.00254411238 -0.00808902455 -0.00580859202
v 0.00400271251 -0.00869793528 -0.0043095741
v 0.00520552562 -0.00830387907 -0.00341503128
v 0.00628910998 -0.00756103161 -0.00295616365
v 0.00696640033 -0.00724903175 -0.00294558437
v 0.00960226041 0.00126415087 -0.00784367943
v -0.000503318442 -0.0109033623 -0.00601543659
v 0.00707990642 -0.0102199429 0.000102730475
v 0.00466418565 -0.00259049075 -0.00880416746
v 0.00442515353 0.000331457826 -0.0116069434
v 0.0037138317 -9.67419426e-05 -0.0118579981
v 0.00146635995 -0.00197241187 -0.0121878497
v 0.00273718738 -0.000798388709 -0.0121018039
v -0.00123829114 -0.0100956289 -0.00735391877
v 0.0109594452 0.000382957202 -0.00585886225
v 0.00363462914 -0.0047661109 0.000231354423
v 0.00172312242 -0.00567854947 -0.000654442111
v 9.61417285e-05 -0.00558848448 -0.00217694963
v -0.00081043062 -0.00412776593 -0.00427605229
v -0.000338171358 -0.00225521637 -0.00551755956
v 0.000700498421 -0.000816284145 -0.00587259022
v 0.00181530456 7.11047371e-05 -0.0056709168
v 0.0025665615 0.000464137765 -0.00535322404
v 0.00395509502 0.000817022325 -0.00443502373
v 0.0053248901 0.000219966478 -0.0026910475
v 0.00570093135 -0.000636640815 -0.00159801221
v 0.00565885293 -0.00192791444 -0.000490428872
v 0.0047968481 -0.00352484348 0.000161278483
v 0.00193618016 -0.000885541549 -0.00471546909
v 0.00327110019 -0.00039438638 -0.00396736012
v 0.00106547813 -0.00448054436 -0.0022997973
v 0.000432950205 -0.00388749098 -0.00338661697
v 0.000644842925 -0.00234438402 -0.00456689235
v 0.00449362085 -0.000867295916 -0.0024640181
v 0.0045171831 -0.00201708439 -0.00142360902
v 0.00399293948 -0.00317541905 -0.000861344597
v 0.00219622015 -0.00454471994 -0.00124035628
v -0.00180008959 0.000982652156 0.00475006697
v -0.00416859399 -8.19448345e-05 0.00359380286
v -0.00425451585 0.000645709164 0.00287252537
v -0.00457521781 0.00193781727 0.00144234192
v -0.00367334833 0.00355224793 0.000810680954
v -0.00255836507 0.00432616112 0.00111304545
v -0.00179725535 0.00457157645 0.00157029205
v -0.00106550713 0.00448053715 0.00229977393
v -0.000474574305 0.00399173988 0.00325729161
v -0.000577711693 0.00248694939 0.00450006757
v -0.00228147578 -0.00038311003 0.00553422477
v -0.000501260493 0.00103048505 0.00585927792
v 0.000286445418 0.00218885777 0.00553046488
v 0.000796276991 0.00360121606 0.00473035752
v -0.00451566239 0.00387543079 -0.000222813847
v -0.00544730428 0.00250566139 0.00016563873
v -0.00572990827 0.000682188563 0.00153196778
v -0.00501030191 -0.000539722797 0.00325349313
v 0.000265677493 0.00534090867 0.00271731031
v -0.0015534562 0.00574543677 0.000745538994
v -0.00346632316 0.00485814205 -0.000163721095
v 0.00629853733 -0.0108644367 0.0010006612
v 0.00322711677 -0.0121943308 -0.000659442956
v 0.00115083198 -0.0123297608 -0.00224150396
v -0.000147834023 -0.0120437777 -0.00364662385
v -0.000777960589 -0.0117483556 -0.00435571735
v 0.00402673523 0.00128131817 -0.0119320778
v 0.00716088752 0.00248258946 -0.0100463746
v 0.00817047239 0.00249788249 -0.00930336087
v 0.00993321876 0.00225835678 -0.00738931871
v 0.0107036482 0.0018691089 -0.00636928115
v 0.00454805009 -0.011652155 -0.000847800398
v 0.00381913321 -0.0118699289 -0.00130105543
v 0.00273911391 -0.0120945653 -0.00203785079
v 0.000774813293 -0.0119510565 -0.00390813089
v -0.000738473339 -0.0111112681 -0.0059460403
v -0.00148259283 -0.00922227206 -0.008354421
v -0.00157531017 -0.00861337809 -0.0089718977
v -0.00156891404 -0.0079393692 -0.00956846543
v -0.0015047287 -0.00725887269 -0.0101101699
v -0.00133089952 -0.00654882125 -0.0105945155
v -0.000995436314 -0.00543827799 -0.0112681672
v 0.00600316548 0.00126160298 -0.0109956134
v 0.00765200891 0.00171489578 -0.00989259384
v 0.00840730824 0.0016453677 -0.00919487769
v 0.0102439711 0.00125724693 -0.00722368604
v 0.0114435639 0.000105395531 -0.00515424461
v 0.0118108123 -0.000690427714 -0.00413239082
v 0.0120722274 -0.00123205289 -0.00338743963
v 0.0120558404 -0.00189147755 -0.0028502408
v 0.01214988 -0.00254109367 -0.00215788403
v 0.0119920409 -0.0032266935 -0.00171808066
v 0.0118062494 -0.00437732825 -0.000816192631
v 0.0102781495 -0.00727473567 0.000371823976
v 0.000194917104 -0.0031982121 -0.0121833671
v 0.00887320975 -0.00887316826 0.000545609233
v 0.00983964205 -0.00797173609 0.000732017654
v 0.00957296085 -0.00828911895 0.000997926667
v 0.00988875564 -0.00789078809 0.00119764169
v 0.00883720855 -0.00883716705 0.00147699141
v 0.00159834365 -0.00159842136 -0.0123553393
v 0.000543487279 -0.00241083396 -0.0124416208
v 0.000657510005 -0.00194131274 -0.0125357192
v 0.000790655744 -0.00144644819 -0.0125605191
v 0.00161002272 -0.000300974219 -0.0125033494
v 0.00558112601 0.00207608578 -0.0110865948
v 0.00420425872 -0.0118613875 5.06522628e-05
v 0.00949798564 -0.00813001755 0.00143598342
v 0.0116004169 -0.00514367653 -0.000153022217
v 0.0112615365 -0.00587335137 0.000439858461
v 0.0101048801 -0.00738495949 0.00131343627
v 0.0109825866 -0.00618014385 0.00088513142
v 0.0115341995 -0.00501090649 0.000475752589
v 0.012338484 -0.0024798781 -0.00171884237
v 0.0122689589 -0.00307098776 -0.000942244164
v 0.011897313 -0.00424792853 -4.99004189e-05
v 0.0121070002 -0.00340563419 -0.000439655545
v 0.0122496625 -0.000953623025 -0.00322539497
v 0.0123425577 -0.00186998012 -0.00159252858
v 0.0116140529 0.000365754178 -0.00508739929
v 0.0123431512 -0.00100321678 -0.00258778468
v 0.0122297857 -0.000475589065 -0.00292886472
v 0.0113050406 0.00103376338 -0.00574317693
v 0.0119978774 0.000250542818 -0.00400556937
v 0.0117739294 0.000712212296 -0.00438631749
v 0.00974374126 0.00171176074 -0.00793924376
v 0.0108581907 0.00164191334 -0.00639421114
v 0.011406286 0.00126381216 -0.00509489032
v 0.00912989368 0.00209176586 -0.00860966452
v 0.00910165018 0.00236499226 -0.00846596314
v 0.0061073633 0.00175432844 -0.0109983981
v 0.00676541832 0.00221076782 -0.010497058
v 0.00434411642 0.000925589101 -0.0119012724
v 0.00392971634 0.000366767031 -0.0119961927
v 0.00447366282 0.00055444723 -0.0117306302
v 0.00294689261 0.000450276329 -0.0123530256
v 0.00234571829 -0.000326769746 -0.0124648328
v 0.00258308731 -0.000553344967 -0.0123505888
v 6.1253433e-05 -0.00160122957 -0.0123936632
v -0.000911477438 -0.00466339406 -0.0117274855
v -0.00107636907 -0.00421807448 -0.0119326373
v -0.000409264572 -0.00291634233 -0.012321135
v -0.000626717253 -0.0028067737 -0.0122607259
v -0.00145123536 -0.00563870311 -0.0112746503
v -0.00157836841 -0.00439555481 -0.0116954861
v -0.00191420489 -0.00837547538 -0.00933212951
v -0.00211755227 -0.00767215517 -0.00992527765
v -0.00205780534 -0.00594116918 -0.0109782374
v -0.00232161542 -0.00637966755 -0.010596287
v -0.00240170555 -0.00749916087 -0.00990203024
v -0.00255717297 -0.00791544083 -0.00944341398
v -0.00141685889 -0.010601469 -0.00683166469
v -0.00193363155 -0.00969572901 -0.00795206466
v -0.00240100323 -0.00893884067 -0.00862490512
v -0.00244440099 -0.00930983189 -0.00810707784
v -0.00205564249 -0.0101926997 -0.00720697046
v -0.00198854466 -0.0104976332 -0.00664962507
v 0.000639555266 -0.012094879 -0.00376949832
v -0.000101815671 -0.0119603905 -0.00433552095
v -0.000816485463 -0.0116834946 -0.00493095488
v -0.00168945662 -0.0109833875 -0.00584522398
v -0.00121082326 -0.0114234126 -0.00513924337
v 0.00335074202 -0.0121644835 -0.0013040577
v 0.0025053507 -0.0123610331 -0.00166867512
v 0.000852014326 -0.0123190206 -0.00276044257
v 0.00227167287 -0.0123612349 -0.00146384919
v 0.00536655689 -0.0115225637 0.000257581084
v 0.00438157379 -0.011898917 -0.000264926868
v 0.00563179412 -0.0112135273 -0.000270980298
v 0.00637737992 -0.0109556207 0.000533984291
v 0.00639349394 -0.0108905113 0.000193834997
v 0.0075340126 -0.0100422538 0.000394809482
v 0.00783062416 -0.00983977414 0.00130114342
v 0.00701311144 -0.0105939515 0.00083053518
v 0.00784977793 -0.00987699757 0.000586480433
v -0.00103947365 0.00100842566 0.0125497242
v 0.00022521611 0.00245291617 0.0123905677
v 0.00106982027 0.00359095508 0.0120616192
v 0.00122598988 0.00399291657 0.0119242504
v 0.00163327226 0.004777891 0.0115803857
v 0.00203342869 0.00553494624 0.0111483066
v 0.00221482785 0.00637745447 0.0106782761
v 0.00245401805 0.00711398438 0.01012037
v 0.00246179307 0.00790996051 0.0095380457
v 0.00253200776 0.00858881627 0.00888079555
v 0.00244112513 0.00926612731 0.0081990821
v 0.00218242029 0.00992895947 0.00750055006
v 0.00168233316 0.0109838612 0.00585456851
v 0.00114826612 0.0114391477 0.00523410554
v 0.000430892104 0.0119416804 0.00408081656
v 8.10524316e-05 0.0120671428 0.00373767982
v -0.000538616269 0.0122543052 0.00302239673
v -0.00120991749 0.0123558479 0.00233687146
v -0.00192436044 0.0123705856 0.00168990148
v -0.00267579143 0.0122983397 0.00108836398
v -0.00345270218 0.0121400019 0.000539421936
v -0.00424825051 0.0118972609 4.99133619e-05
v -0.00505106948 0.0115731716 -0.000374988046
v -0.00585295681 0.0111715747 -0.000729644953
v -0.00664451249 0.0106968953 -0.00101055407
v -0.0074168745 0.0101543759 -0.00121425529
v -0.00808471563 0.00946656817 -0.00152016039
v -0.00916692542 0.00856639134 -0.00142984654
v -0.00980355062 0.00784189164 -0.00135530461
v -0.0101283928 0.00745092557 -0.00122171406
v -0.0106735991 0.00668008353 -0.00102162007
v -0.0111377486 0.00591847795 -0.000745815773
v -0.0115388275 0.00512772654 -0.000408531256
v -0.0118703554 0.00432417996 9.60506273e-06
v -0.0121205744 0.00352825681 0.000492953126
v -0.0122869832 0.00274885787 0.0010364858
v -0.0123673826 0.00199576715 0.00163347735
v -0.0123608591 0.0012769632 0.00227674762
v -0.012267418 0.000601500931 0.00295804829
v -0.0120881505 -2.33316134e-05 0.00367109935
v -0.0117849897 -0.000714680667 0.00426634492
v -0.0115829442 -0.00104575749 0.00473264109
v -0.0110398618 -0.00154233646 0.00594447926
v -0.0105449137 -0.00189312265 0.00669433137
v -0.00998433714 -0.00216376973 0.00743135441
v -0.00936467426 -0.00235086676 0.00814680748
v -0.00869343407 -0.00245283227 0.00883167911
v -0.00797807459 -0.00246764872 0.00947896875
v -0.00722756725 -0.00239543168 0.0100803716
v -0.00645036415 -0.00223693434 0.0106291718
v -0.00565535533 -0.00199376387 0.0111191617
v -0.00485221065 -0.00167015177 0.0115437111
v -0.00405011987 -0.0012681903 0.0118987553
v -0.00325884805 -0.000793608703 0.0121796583
v -0.00248755763 -0.000251641073 0.0123831447
v -0.00159800715 0.000210543037 0.0124371195
v -0.00188509747 0.000564425177 0.0125292081
v -0.0114601836 -0.00091936652 0.00535465419
v -0.0118047551 -0.00043180024 0.00461682923
v -0.00824919109 0.00957046942 -0.0010995856
v 0.00132603803 0.0110537434 0.00607529281
v 0.00167014577 0.0105664213 0.00681284577
v -0.00274334981 0.000173939009 0.0123746096
v -0.00348578409 -0.000351686806 0.0121825076
v -0.00424746926 -0.000812731918 0.0119158556
v -0.0050197315 -0.00120377051 0.0115776542
v -0.00579357057 -0.00151999595 0.0111719776
v -0.00656010685 -0.00175793572 0.0107033867
v -0.0073104678 -0.00191525265 0.0101773602
v -0.00803492747 -0.00198921335 0.00960065114
v -0.00872599153 -0.00197959145 0.00897923811
v -0.00937539373 -0.00188627895 0.00832070442
v -0.00997514454 -0.00171038032 0.00763285177
v -0.0105188264 -0.00145397001 0.00692316616
v -0.0109986527 -0.00111989774 0.00620200541
v -0.0120106208 0.000303725958 0.00404249427
v -0.0121917252 0.000900365145 0.0033526319
v -0.0122899004 0.00154606999 0.00269348553
v -0.0123050882 0.00223587613 0.00206769432
v -0.0122360899 0.00295794857 0.00148897981
v -0.0120841666 0.00370725689 0.000959041018
v -0.0118510952 0.00447244527 0.000487215221
v -0.0115393169 0.00524669383 7.74472644e-05
v -0.0111529392 0.00601917519 -0.000264850853
v -0.0106961871 0.00678186579 -0.00053616798
v -0.0101745668 0.00752518156 -0.000732982936
v -0.00959391141 0.00824125682 -0.000852871451
v -0.00896099771 0.00892125947 -0.00089477525
v -0.00757012522 0.0101405666 -0.000742492521
v -0.0068290569 0.010665278 -0.00055030194
v -0.00606613461 0.0111270164 -0.000283548749
v -0.00529478069 0.0115173775 5.4458705e-05
v -0.00452001092 0.0118341768 0.000460193858
v -0.00375400613 0.0120719993 0.000928716473
v -0.00300399511 0.0122290215 0.00145464547
v -0.00227898769 0.0123031322 0.00203157999
v -0.00158768268 0.0122934703 0.00265293844
v -0.000938717239 0.0122001407 0.00331135911
v -0.000338911634 0.0120242812 0.00399893882
v 0.000205212095 0.0117675853 0.00470868796
v 0.000683826719 0.0114340325 0.00542975903
v 0.00169684799 0.0100100673 0.00759007968
v 0.00187707206 0.00941439196 0.00827850654
v 0.00197613669 0.00876709598 0.00893989785
v 0.00199072064 0.0080790899 0.00956311838
v 0.00192205486 0.00735555791 0.0101435351
v 0.00177038462 0.00660713535 0.0106723985
v 0.00153723085 0.00584068417 0.0111450991
v 0.00122559875 0.00506745682 0.0115545257
v 0.000838924125 0.00429457322 0.0118971301
v 0.000382238034 0.00353250345 0.0121681065
v -0.00013965088 0.00278837638 0.0123649697
v -0.000720081309 0.00207279941 0.0124849141
v -0.00135269013 0.00139282795 0.0125267643
v -0.00213693271 0.000961409062 0.0123961531
v -0.0112976909 -0.000523333868 0.00558988678
v -0.0116309572 -6.26675832e-05 0.00488602684
v -0.0083016579 0.00947907374 -0.000622653892
v 0.000857858045 0.0109632033 0.0061830274
v 0.00119132007 0.0105022531 0.00688757898
v -0.00293756982 0.000429328652 0.0122045162
v -0.00365151425 -7.39729682e-05 0.0120177152
v -0.00438417455 -0.00051504734 0.0117591503
v -0.00502143053 -0.000784494791 0.0114592729
v -0.00615857029 -0.0012378147 0.0108548235
v -0.00721189252 -0.00149199313 0.0101442756
v -0.00787040189 -0.00156117381 0.00962611034
v -0.00930906793 -0.00153011444 0.00829242491
v -0.00988401433 -0.00135869148 0.00763057494
v -0.0104043629 -0.00110978249 0.00694845938
v -0.0108642723 -0.000786486892 0.00625406527
v -0.0118302252 0.000587638589 0.00417922759
v -0.0120017674 0.00116246578 0.00351737761
v -0.0120939161 0.00178521511 0.00288342261
v -0.0120712856 0.00237234891 0.00240904715
v -0.0120369341 0.00314420101 0.00172899985
v -0.0118885185 0.00386446354 0.00122188353
v -0.0115274809 0.00489618973 0.000655318976
v -0.0110185602 0.00597614323 0.000147085012
v -0.0105455067 0.00682001946 -0.000207912686
v -0.0100422051 0.00753396389 -0.000394713643
v -0.00948263665 0.00822108624 -0.000507724049
v -0.00887311955 0.00887316105 -0.000545513394
v -0.0075340416 0.0100422466 -0.000394713643
v -0.00681997796 0.0105455482 -0.000207912686
v -0.00608743688 0.0109866225 5.06522628e-05
v -0.005344763 0.0113602245 0.000377762553
v -0.00472959222 0.0115850438 0.000750100227
v -0.00399314266 0.0118228447 0.00119232324
v -0.00331913544 0.0119689274 0.00166478464
v -0.0025822007 0.0120625342 0.00223070804
v -0.00195608416 0.0120588312 0.0027935767
v -0.00129259897 0.0119838584 0.00344404951
v -0.000749196743 0.011829688 0.00406694065
v 0.000392660895 0.0112580621 0.00555561804
v 0.00135861377 0.00988393662 0.00763057494
v 0.00153015594 0.00930899021 0.00829242491
v 0.00162242393 0.00868636009 0.00892637992
v 0.00163422565 0.00802319882 0.00952481055
v 0.00156544189 0.00732737419 0.0100808027
v 0.0013897931 0.00671648708 0.0104929768
v 0.00118150202 0.0060284943 0.0109227305
v 0.000515088836 0.00438421604 0.0117591503
v 7.40144644e-05 0.00365155575 0.0120177152
v -0.000429287156 0.0029374921 0.0122045162
v -0.000988974771 0.00225048897 0.0123175266
v -0.00159837266 0.00159841415 0.0123553159
v 0.00757180194 -0.00757176044 -0.00662089563
v -0.00654627343 0.00599723694 0.00892637992
v 0.00727473239 -0.00782376888 -0.00666083074
v -0.00686813851 0.00580745575 0.00880919718
v 0.00695286731 -0.00801355007 -0.00677801347
v -0.00719286462 0.00569289562 0.00862287307
v 0.0066281412 -0.0081281102 -0.00696433759
v -0.00749839803 0.00566130516 0.00838004374
v 0.00632260779 -0.00815970066 -0.00720728612
v -0.00776387711 0.00571483013 0.0080971601
v 0.00605712871 -0.00810617569 -0.00749005056
v -0.00797118207 0.00584977505 0.00779365325
v 0.00584982375 -0.00797111156 -0.00779367662
v -0.00810612698 0.00605708 0.0074901464
v 0.00571475963 -0.00776380661 -0.00809718347
v -0.00815965196 0.00632255909 0.00720726275
v 0.00566123466 -0.00749832752 -0.0083799479
v -0.00812806149 0.0066280925 0.00696431422
v 0.00569282512 -0.00719291332 -0.00862289644
v -0.00801350137 0.0069528186 0.0067779901
v 0.00580738525 -0.00686806801 -0.00880922056
v -0.00782372018 0.00727468369 0.00666080737
v 0.00599716643 -0.00654620293 -0.00892640329
v -0.00757183095 0.00757175324 0.00662087226
v 0.00624917487 -0.00624913338 -0.0089663384
v -0.0072747614 0.00782376167 0.00666080737
v 0.00654624442 -0.00599712494 -0.00892640329
v -0.00695289632 0.00801354286 0.0067779901
v 0.0068681095 -0.00580746296 -0.00880922056
v -0.006628051 0.00812810299 0.00696431422
v 0.00719283561 -0.00569290283 -0.00862289644
v -0.00632251759 0.00815969345 0.00720726275
v 0.00749836902 -0.00566131237 -0.0083799479
v -0.00605715772 0.00810616848 0.0074901464
v 0.00776384811 -0.00571483734 -0.00809718347
v -0.00584985276 0.00797110436 0.00779365325
v 0.00797115306 -0.00584978226 -0.00779367662
v -0.00571478864 0.0077637994 0.0080971601
v 0.00810621719 -0.00605708721 -0.00749005056
v -0.00566126367 0.00749843952 0.00838004374
v 0.00815974216 -0.0063225663 -0.00720728612
v -0.00569285413 0.00719290611 0.00862287307
v 0.00812815169 -0.00662809971 -0.00696433759
v -0.00580741425 0.0068680608 0.00880919718
v 0.00801347236 -0.00695282581 -0.00677801347
v -0.00599719544 0.00654619572 0.00892637992
v 0.00782381038 -0.00727469089 -0.00666083074
v -0.00624920388 0.00624912617 0.00896631503
v -0.00691045781 0.00691049931 0.00779365325
v 0.0069104288 -0.00691050651 -0.00779367662
f 6 5 12
f 12 5 13
f 2 20 1
f 1 20 19
f 8 523 4
f 8 9 524
f 8 524 523
f 10 21 9
f 22 535 534
f 22 534 533
f 547 546 7
f 7 546 23
f 7 23 6
f 6 23 5
f 16 24 15
f 15 24 14
f 22 537 536
f 22 536 535
f 12 539 22
f 22 539 538
f 22 538 537
f 512 511 18
f 18 511 510
f 18 510 25
f 25 510 509
f 78 80 68
f 81 82 83
f 83 84 85
f 85 86 87
f 72 108 67
f 109 110 111
f 111 112 113
f 113 114 115
f 77 80 78
f 135 78 136
f 71 108 72
f 137 72 138
f 79 77 78
f 73 71 72
f 142 79 78
f 142 78 139
f 139 78 135
f 135 136 143
f 74 73 72
f 74 72 140
f 140 72 137
f 137 138 141
f 69 79 203
f 203 79 142
f 139 135 143
f 349 73 74
f 140 137 141
f 142 139 143
f 68 81 145
f 68 145 78
f 78 145 136
f 136 146 143
f 143 146 147
f 143 147 200
f 200 147 65
f 200 65 144
f 144 65 64
f 144 64 66
f 81 83 145
f 145 148 136
f 136 148 146
f 146 149 147
f 147 149 63
f 147 63 388
f 147 388 65
f 83 85 150
f 83 150 145
f 145 150 148
f 148 151 146
f 146 151 152
f 146 152 149
f 149 152 62
f 149 62 391
f 149 391 63
f 85 87 150
f 150 153 148
f 148 153 151
f 151 154 152
f 152 154 61
f 152 61 393
f 152 393 62
f 87 158 150
f 150 158 153
f 153 59 151
f 151 59 60
f 151 60 154
f 154 60 395
f 154 395 61
f 60 396 395
f 158 156 153
f 153 156 155
f 153 155 59
f 60 59 58
f 60 58 396
f 59 155 157
f 59 157 58
f 56 57 156
f 56 156 159
f 89 158 88
f 88 158 87
f 88 87 338
f 338 87 76
f 57 398 156
f 156 398 157
f 156 157 155
f 160 159 156
f 160 156 158
f 400 57 56
f 161 160 158
f 161 158 92
f 92 158 89
f 92 89 91
f 91 89 90
f 90 89 88
f 55 400 56
f 53 55 56
f 53 56 162
f 162 56 159
f 162 159 160
f 95 161 92
f 95 92 94
f 94 92 93
f 93 92 91
f 54 55 53
f 163 162 160
f 163 160 161
f 164 163 161
f 164 161 98
f 98 161 95
f 98 95 97
f 97 95 96
f 96 95 94
f 52 54 53
f 50 52 53
f 50 53 165
f 165 53 162
f 165 162 163
f 101 164 98
f 101 98 100
f 100 98 99
f 99 98 97
f 51 52 50
f 166 165 163
f 166 163 164
f 167 166 164
f 167 164 104
f 104 164 101
f 104 101 103
f 103 101 102
f 102 101 100
f 49 51 50
f 168 49 50
f 168 50 169
f 169 50 165
f 169 165 166
f 106 167 104
f 106 104 105
f 105 104 103
f 412 49 168
f 172 169 166
f 172 166 167
f 106 105 107
f 170 172 167
f 170 167 171
f 171 167 106
f 171 106 107
f 107 75 171
f 169 173 168
f 168 173 412
f 412 173 174
f 75 349 171
f 171 349 170
f 170 349 74
f 170 74 172
f 172 74 140
f 172 140 169
f 169 140 141
f 169 141 173
f 67 109 175
f 67 175 72
f 72 175 138
f 138 176 141
f 141 176 177
f 141 177 173
f 173 177 48
f 173 48 174
f 174 48 414
f 174 414 413
f 109 111 175
f 175 178 138
f 138 178 176
f 176 179 177
f 177 179 47
f 177 47 46
f 177 46 48
f 111 113 180
f 111 180 175
f 175 180 178
f 178 181 176
f 176 181 182
f 176 182 179
f 179 182 45
f 179 45 44
f 179 44 47
f 113 115 180
f 180 183 178
f 178 183 181
f 181 184 182
f 182 184 43
f 182 43 42
f 182 42 45
f 115 188 180
f 180 188 183
f 183 38 181
f 181 38 41
f 181 41 184
f 184 41 40
f 184 40 43
f 41 39 40
f 188 186 183
f 183 186 185
f 183 185 38
f 41 38 37
f 41 37 39
f 38 185 426
f 38 426 37
f 34 36 186
f 34 186 189
f 117 188 116
f 116 188 115
f 116 115 371
f 371 115 70
f 36 187 186
f 186 187 185
f 185 427 426
f 190 189 186
f 190 186 188
f 35 36 34
f 191 190 188
f 191 188 119
f 119 188 117
f 119 117 118
f 118 117 276
f 276 117 116
f 33 35 34
f 31 33 34
f 31 34 192
f 192 34 189
f 192 189 190
f 122 191 119
f 122 119 121
f 121 119 120
f 120 119 118
f 32 33 31
f 193 192 190
f 193 190 191
f 194 193 191
f 194 191 125
f 125 191 122
f 125 122 124
f 124 122 123
f 123 122 121
f 30 32 31
f 28 30 31
f 28 31 195
f 195 31 192
f 195 192 193
f 128 194 125
f 128 125 127
f 127 125 126
f 126 125 124
f 29 30 28
f 196 195 193
f 196 193 194
f 198 196 194
f 198 194 131
f 131 194 128
f 131 128 130
f 130 128 129
f 129 128 127
f 27 29 28
f 26 27 28
f 26 28 197
f 197 28 195
f 197 195 196
f 133 198 131
f 133 131 132
f 132 131 130
f 441 27 26
f 201 197 196
f 201 196 198
f 133 132 134
f 199 441 26
f 199 26 200
f 200 26 197
f 200 197 201
f 202 201 198
f 202 198 203
f 203 198 133
f 203 133 134
f 134 69 203
f 202 203 142
f 202 142 201
f 201 142 143
f 201 143 200
f 199 200 144
f 199 144 441
f 205 206 292
f 206 291 292
f 206 289 290
f 206 290 291
f 206 287 288
f 206 288 289
f 215 216 283
f 216 282 283
f 217 221 216
f 216 221 379
f 209 208 218
f 211 300 301
f 211 301 302
f 211 298 299
f 211 299 300
f 212 219 213
f 207 220 214
f 217 218 221
f 222 226 224
f 222 224 223
f 205 225 204
f 204 225 222
f 222 225 226
f 214 220 206
f 206 220 227
f 206 227 287
f 219 228 213
f 213 228 211
f 211 228 297
f 211 297 298
f 223 345 222
f 222 345 293
f 222 293 212
f 229 218 217
f 229 217 216
f 229 216 230
f 230 216 215
f 230 215 231
f 231 215 207
f 231 207 214
f 231 214 232
f 232 214 206
f 232 206 233
f 233 206 205
f 233 205 234
f 234 205 204
f 234 204 222
f 234 222 235
f 235 222 236
f 236 222 237
f 237 222 212
f 237 212 213
f 237 213 238
f 238 213 211
f 238 211 239
f 239 211 240
f 240 211 210
f 240 210 209
f 240 209 241
f 241 209 229
f 229 209 218
f 242 234 235
f 242 235 236
f 242 236 243
f 243 236 237
f 243 237 247
f 247 237 238
f 250 230 231
f 250 231 244
f 244 231 245
f 245 231 232
f 245 232 246
f 246 232 233
f 246 233 242
f 242 233 234
f 247 238 239
f 247 239 240
f 247 240 248
f 248 240 249
f 249 240 241
f 249 241 229
f 249 229 250
f 250 229 230
f 251 249 250
f 251 250 252
f 252 250 253
f 253 250 244
f 253 244 245
f 253 245 254
f 254 245 246
f 254 246 255
f 255 246 242
f 255 242 256
f 256 242 257
f 257 242 243
f 257 243 258
f 258 243 247
f 258 247 259
f 259 247 260
f 260 247 248
f 260 248 249
f 260 249 251
f 252 261 251
f 251 261 262
f 251 262 260
f 260 262 263
f 260 263 264
f 260 264 259
f 255 271 265
f 255 265 266
f 255 266 254
f 254 266 267
f 254 267 253
f 253 267 268
f 253 268 252
f 259 264 269
f 259 269 258
f 258 269 257
f 257 269 270
f 257 270 256
f 256 270 255
f 255 270 271
f 15 262 16
f 16 262 261
f 16 261 17
f 17 261 25
f 25 261 18
f 18 261 252
f 18 252 268
f 18 268 19
f 19 268 1
f 1 268 2
f 2 268 267
f 2 267 3
f 3 267 4
f 4 267 266
f 4 266 8
f 8 266 9
f 9 266 265
f 9 265 271
f 9 271 10
f 10 271 11
f 11 271 270
f 11 270 22
f 22 270 269
f 22 269 12
f 12 269 6
f 6 269 264
f 6 264 7
f 7 264 263
f 7 263 14
f 14 263 262
f 14 262 15
f 134 132 272
f 127 126 273
f 126 124 273
f 124 123 376
f 123 121 274
f 121 120 375
f 120 118 275
f 107 105 277
f 100 99 342
f 99 97 278
f 97 96 279
f 96 94 279
f 94 93 340
f 93 91 280
f 91 90 281
f 90 88 281
f 284 215 283
f 285 207 215
f 285 220 207
f 305 205 292
f 294 212 293
f 295 219 212
f 296 228 219
f 303 211 302
f 303 210 211
f 303 209 210
f 304 208 209
f 225 205 305
f 218 208 306
f 306 208 304
f 306 304 307
f 311 225 305
f 311 305 312
f 318 79 69
f 209 303 304
f 304 303 319
f 304 319 307
f 307 319 320
f 307 320 308
f 308 320 309
f 309 318 310
f 310 318 69
f 309 321 318
f 318 321 79
f 322 77 79
f 320 322 309
f 309 322 321
f 321 322 79
f 322 80 77
f 323 68 80
f 302 301 324
f 302 324 303
f 303 324 325
f 303 325 319
f 319 325 326
f 319 326 320
f 320 326 323
f 320 323 322
f 322 323 80
f 326 81 68
f 323 326 68
f 327 82 81
f 300 299 328
f 300 328 301
f 301 328 324
f 325 327 326
f 326 327 81
f 325 83 82
f 327 325 82
f 329 84 83
f 298 297 330
f 298 330 299
f 299 330 328
f 328 331 324
f 324 331 329
f 324 329 325
f 325 329 83
f 331 85 84
f 329 331 84
f 332 86 85
f 228 296 297
f 297 296 330
f 330 333 328
f 328 333 334
f 328 334 331
f 331 334 332
f 331 332 85
f 334 87 86
f 332 334 86
f 335 76 87
f 296 336 330
f 330 336 333
f 333 337 334
f 334 337 335
f 334 335 87
f 337 338 335
f 335 338 76
f 219 295 296
f 296 295 336
f 336 339 333
f 333 339 337
f 337 281 338
f 338 281 88
f 212 294 295
f 295 294 336
f 336 294 339
f 339 340 337
f 337 340 280
f 337 280 281
f 281 280 91
f 280 340 93
f 294 293 341
f 294 341 342
f 294 342 339
f 339 342 279
f 339 279 340
f 340 279 94
f 345 343 293
f 293 343 341
f 342 278 279
f 279 278 97
f 278 342 99
f 343 277 341
f 341 277 316
f 341 316 342
f 342 316 100
f 105 103 277
f 346 277 343
f 344 343 345
f 277 103 102
f 277 102 316
f 316 102 100
f 224 345 223
f 315 107 277
f 315 277 346
f 347 346 343
f 347 343 348
f 348 343 344
f 344 345 226
f 226 345 224
f 75 107 315
f 348 344 226
f 314 315 346
f 314 346 313
f 313 346 347
f 313 347 312
f 312 347 348
f 312 348 311
f 311 348 225
f 225 348 226
f 305 292 350
f 305 350 312
f 312 350 351
f 312 351 313
f 313 351 352
f 313 352 314
f 314 352 349
f 314 349 315
f 315 349 75
f 352 353 349
f 349 353 73
f 353 71 73
f 292 291 354
f 292 354 350
f 350 354 351
f 352 351 353
f 355 108 71
f 291 290 354
f 351 355 353
f 353 355 71
f 355 67 108
f 290 289 356
f 290 356 354
f 354 356 357
f 354 357 358
f 354 358 351
f 351 358 355
f 358 109 67
f 289 288 356
f 355 358 67
f 359 110 109
f 288 287 356
f 357 360 358
f 358 360 359
f 358 359 109
f 360 111 110
f 287 227 356
f 359 360 110
f 361 112 111
f 227 362 356
f 356 362 363
f 356 363 357
f 357 363 364
f 357 364 360
f 360 364 361
f 360 361 111
f 364 113 112
f 220 286 227
f 227 286 362
f 361 364 112
f 365 114 113
f 363 362 366
f 363 366 364
f 364 366 365
f 364 365 113
f 366 115 114
f 220 285 286
f 365 366 114
f 367 70 115
f 285 368 286
f 286 368 369
f 286 369 362
f 362 369 370
f 362 370 366
f 366 370 367
f 366 367 115
f 370 371 367
f 367 371 70
f 276 116 372
f 370 372 371
f 371 372 116
f 215 284 285
f 285 284 368
f 370 276 372
f 284 373 368
f 368 373 374
f 368 374 369
f 369 374 375
f 369 375 370
f 370 375 275
f 370 275 276
f 276 275 118
f 284 283 373
f 275 375 120
f 283 282 373
f 374 376 375
f 375 376 274
f 375 274 121
f 216 379 282
f 282 379 373
f 274 376 123
f 379 377 373
f 373 377 378
f 373 378 374
f 374 378 273
f 374 273 376
f 376 273 124
f 378 377 317
f 378 317 273
f 273 317 127
f 132 130 272
f 272 130 377
f 272 377 384
f 384 377 380
f 380 377 381
f 381 377 379
f 377 130 129
f 377 129 317
f 317 129 127
f 381 379 221
f 383 134 272
f 383 272 384
f 384 380 385
f 385 380 381
f 385 381 382
f 382 381 221
f 69 134 383
f 385 382 218
f 218 382 221
f 310 69 383
f 310 383 309
f 309 383 308
f 308 383 384
f 308 384 307
f 307 384 385
f 307 385 306
f 306 385 218
f 66 64 387
f 387 64 65
f 387 65 388
f 389 388 390
f 388 63 390
f 390 63 391
f 391 62 392
f 392 62 393
f 393 61 394
f 394 61 395
f 396 58 397
f 397 58 157
f 399 398 57
f 399 57 400
f 401 400 55
f 401 55 402
f 402 55 403
f 403 55 54
f 403 54 404
f 404 54 405
f 405 54 52
f 405 52 406
f 406 52 407
f 407 52 51
f 407 51 408
f 408 51 409
f 409 51 49
f 409 49 410
f 410 49 411
f 411 49 412
f 412 174 413
f 415 414 48
f 415 48 416
f 416 48 46
f 416 46 417
f 417 46 418
f 46 47 418
f 418 47 419
f 47 44 419
f 419 44 420
f 44 45 420
f 420 45 421
f 45 42 421
f 421 42 422
f 42 43 422
f 422 43 423
f 43 40 423
f 423 40 424
f 40 39 424
f 424 39 425
f 39 37 425
f 425 37 426
f 185 187 427
f 427 187 36
f 427 36 428
f 428 36 429
f 429 36 35
f 429 35 430
f 430 35 33
f 430 33 431
f 431 33 432
f 432 33 32
f 432 32 433
f 433 32 434
f 434 32 30
f 434 30 435
f 435 30 436
f 436 30 29
f 436 29 437
f 437 29 438
f 438 29 27
f 438 27 439
f 439 27 440
f 440 27 441
f 386 441 144
f 386 144 66
f 386 442 441
f 441 442 440
f 428 443 427
f 427 443 444
f 427 444 426
f 426 444 425
f 413 445 412
f 412 445 411
f 399 446 398
f 398 446 447
f 398 447 157
f 157 447 397
f 442 448 440
f 440 448 449
f 440 449 439
f 439 449 450
f 439 450 438
f 438 450 451
f 438 451 437
f 437 451 452
f 437 452 436
f 436 452 453
f 436 453 435
f 435 453 454
f 435 454 434
f 434 454 455
f 434 455 433
f 433 455 456
f 433 456 432
f 432 456 457
f 432 457 431
f 431 457 458
f 431 458 430
f 430 458 459
f 430 459 429
f 429 459 460
f 429 460 428
f 428 460 443
f 444 461 425
f 425 461 462
f 425 462 424
f 424 462 463
f 424 463 423
f 423 463 464
f 423 464 422
f 422 464 465
f 422 465 421
f 421 465 466
f 421 466 420
f 420 466 467
f 420 467 419
f 419 467 468
f 419 468 418
f 418 468 469
f 418 469 417
f 417 469 470
f 417 470 416
f 416 470 471
f 416 471 415
f 415 471 472
f 415 472 414
f 414 472 473
f 414 473 413
f 413 473 445
f 445 474 411
f 411 474 475
f 411 475 410
f 410 475 476
f 410 476 409
f 409 476 477
f 409 477 408
f 408 477 478
f 408 478 407
f 407 478 479
f 407 479 406
f 406 479 480
f 406 480 405
f 405 480 481
f 405 481 404
f 404 481 482
f 404 482 403
f 403 482 483
f 403 483 402
f 402 483 484
f 402 484 401
f 401 484 485
f 401 485 400
f 400 485 486
f 400 486 399
f 399 486 446
f 447 487 397
f 397 487 488
f 397 488 396
f 396 488 489
f 396 489 395
f 395 489 490
f 395 490 394
f 394 490 491
f 394 491 393
f 393 491 492
f 393 492 392
f 392 492 493
f 392 493 391
f 391 493 494
f 391 494 390
f 390 494 495
f 390 495 389
f 389 495 496
f 389 496 388
f 388 496 497
f 388 497 387
f 387 497 498
f 387 498 66
f 66 498 499
f 66 499 386
f 386 499 442
f 499 500 442
f 442 500 448
f 460 501 443
f 443 501 502
f 443 502 444
f 444 502 461
f 473 503 445
f 445 503 474
f 486 504 446
f 446 504 505
f 446 505 447
f 447 505 487
f 500 506 448
f 448 506 507
f 448 507 449
f 449 507 508
f 449 508 450
f 450 508 509
f 450 509 451
f 451 509 510
f 451 510 452
f 452 510 453
f 453 510 511
f 453 511 454
f 454 511 512
f 454 512 455
f 455 512 18
f 455 18 456
f 456 18 513
f 456 513 457
f 457 513 514
f 457 514 458
f 458 514 515
f 458 515 459
f 459 515 516
f 459 516 460
f 460 516 501
f 502 517 461
f 461 517 518
f 461 518 462
f 462 518 519
f 462 519 463
f 463 519 520
f 463 520 464
f 464 520 521
f 464 521 465
f 465 521 522
f 465 522 466
f 466 522 523
f 466 523 467
f 467 523 468
f 468 523 524
f 468 524 469
f 469 524 525
f 469 525 470
f 470 525 526
f 470 526 471
f 471 526 527
f 471 527 472
f 472 527 528
f 472 528 473
f 473 528 503
f 503 529 474
f 474 529 530
f 474 530 475
f 475 530 531
f 475 531 476
f 476 531 532
f 476 532 477
f 477 532 533
f 477 533 478
f 478 533 534
f 478 534 479
f 479 534 535
f 479 535 480
f 480 535 536
f 480 536 481
f 481 536 537
f 481 537 482
f 482 537 538
f 482 538 483
f 483 538 539
f 483 539 484
f 484 539 12
f 484 12 485
f 485 12 540
f 485 540 486
f 486 540 504
f 505 541 487
f 487 541 542
f 487 542 488
f 488 542 543
f 488 543 489
f 489 543 544
f 489 544 490
f 490 544 545
f 490 545 491
f 491 545 546
f 491 546 492
f 492 546 547
f 492 547 493
f 493 547 7
f 493 7 494
f 494 7 548
f 494 548 495
f 495 548 549
f 495 549 496
f 496 549 550
f 496 550 497
f 497 550 551
f 497 551 498
f 498 551 552
f 498 552 499
f 499 552 500
f 552 16 500
f 500 16 506
f 506 16 507
f 507 16 17
f 507 17 508
f 508 17 25
f 508 25 509
f 513 18 19
f 513 19 514
f 514 19 515
f 515 19 20
f 515 20 516
f 516 20 501
f 501 20 2
f 501 2 502
f 502 2 517
f 517 2 518
f 518 2 3
f 518 3 519
f 519 3 4
f 519 4 520
f 521 520 4
f 521 4 522
f 522 4 523
f 525 524 9
f 525 9 526
f 526 9 527
f 527 9 21
f 527 21 528
f 528 21 503
f 503 21 10
f 503 10 529
f 529 10 530
f 530 10 531
f 531 10 11
f 531 11 532
f 532 11 22
f 532 22 533
f 540 12 13
f 540 13 504
f 504 13 505
f 505 13 5
f 505 5 541
f 541 5 542
f 542 5 543
f 543 5 544
f 544 5 23
f 544 23 545
f 545 23 546
f 548 7 14
f 548 14 549
f 549 14 550
f 550 14 24
f 550 24 551
f 551 24 552
f 552 24 16
f 553 554 555
f 555 554 556
f 555 556 557
f 557 556 558
f 557 558 559
f 559 558 560
f 559 560 561
f 561 560 562
f 561 562 563
f 563 562 564
f 563 564 565
f 565 564 566
f 565 566 567
f 567 566 568
f 567 568 569
f 569 568 570
f 569 570 571
f 571 570 572
f 571 572 573
f 573 572 574
f 573 574 575
f 575 574 576
f 575 576 577
f 577 576 578
f 577 578 579
f 579 578 580
f 579 580 581
f 581 580 582
f 581 582 583
f 583 582 584
f 583 584 585
f 585 584 586
f 585 586 587
f 587 586 588
f 587 588 589
f 589 588 590
f 589 590 591
f 591 590 592
f 591 592 593
f 593 592 594
f 593 594 595
f 595 594 596
f 595 596 597
f 597 596 598
f 597 598 599
f 599 598 600
f 599 600 553
f 553 600 554
f 580 578 601
f 601 578 576
f 601 576 574
f 586 584 601
f 601 584 582
f 601 582 580
f 592 590 601
f 601 590 588
f 601 588 586
f 598 596 601
f 601 596 594
f 601 594 592
f 556 554 601
f 601 554 600
f 601 600 598
f 562 560 601
f 601 560 558
f 601 558 556
f 568 566 601
f 601 566 564
f 601 564 562
f 574 572 601
f 601 572 570
f 601 570 568
f 573 575 602
f 602 575 577
f 602 577 579
f 567 569 602
f 602 569 571
f 602 571 573
f 561 563 602
f 602 563 565
f 602 565 567
f 555 557 602
f 602 557 559
f 602 559 561
f 597 599 602
f 602 599 553
f 602 553 555
f 591 593 602
f 602 593 595
f 602 595 597
f 585 587 602
f 602 587 589
f 602 589 591
f 579 581 602
f 602 581 583
f 602 583 585
