v 0.011244124 -6.52477794e-05 -0.00528951708
v 0.00761318264 -0.00309426638 -0.00617322899
v 0.00782298003 -0.00693684306 -0.000673287169
v 0.00616734176 -0.00388076515 -0.00755658489
v 0.00850220376 -0.00608789396 -0.000953245565
v 0.00920690304 -0.00468791082 -0.00190523409
v 0.00825035807 -0.000319176676 -0.00931250388
v 0.0040165146 -0.00577757094 -0.00751445359
v 0.00306364057 -0.0079260236 -0.00617252728
v 0.00302854648 -0.00807654995 -0.00558936291
v 0.00326043296 -0.00884451664 -0.00457231057
v 0.00363797535 -0.00919954572 -0.00352610233
v 0.00406425699 -0.00919315676 -0.00280677348
v 0.00724882467 -0.00724879957 -0.000608168275
v 0.00897580965 -0.00354425169 -0.00351174894
v 0.0115749298 -0.000263433223 -0.00451263014
v 0.0119733807 -0.000708745098 -0.00327399743
v 0.00191480501 -0.00553188777 -0.0109610182
v 0.00431209397 -0.00916644742 -0.00241242947
v 0.00607402103 -0.00877546605 -0.000932652272
v 0.00663499297 -0.00807347583 -0.00074962309
v 0.00814704762 -0.00886903373 0.00308981767
v 0.000532427123 -0.00778968725 -0.00967577022
v 0.00125838164 -0.00647615401 -0.0105384567
v 0.00829547626 -0.00505454441 0.00540985999
v 0.00996304419 -0.006312984 0.00404190452
v 0.00996744099 -0.00297968073 0.00432496917
v 0.0109968032 -0.00481524404 0.00336449526
v 0.0117761837 -0.00334578458 0.00235458804
v 0.0111319048 -0.000199331434 0.00185704843
v 0.0122622532 -0.00197608483 0.00106147178
v 0.0124328251 -0.000770393102 -0.000454960368
v 0.0110672466 0.00187487549 -0.00140863684
v 0.0123618036 -9.28484448e-05 -0.00156770049
v 0.0120486392 0.000666729456 -0.00302320107
v 0.0108594036 0.00139998354 -0.00593385545
v 0.00795512581 0.00475938202 -0.00424452276
v 0.0103585341 0.00145878295 -0.0067597354
v 0.00980026826 0.00143741495 -0.00755201434
v 0.00808692065 0.00377880562 -0.00599390618
v 0.00853960115 0.00115501476 -0.00899607162
v 0.00869975343 0.00133788703 -0.00872896748
v 0.00713470731 0.000564343685 -0.010198172
v 0.00732145206 0.000812082877 -0.00996426792
v 0.00565131091 -0.000307904885 -0.0111004915
v 0.00585558436 4.15377103e-06 -0.0109159136
v 0.00427985001 -0.00104678238 -0.0115325103
v 0.00101674262 -0.00466148527 -0.0115194688
v -0.00184877715 -0.00513908285 -0.00985407224
v -2.28241473e-05 -0.00616241932 -0.0108378012
v -0.000803030144 -0.00762799848 -0.00982777931
v -0.00296169044 -0.00797080611 -0.0074215876
v -0.0012910713 -0.00899523121 -0.00853317284
v -0.00146381268 -0.0101993103 -0.00701459136
v -0.00282741898 -0.0101149543 -0.0042028356
v -0.00113814944 -0.0115771856 -0.00440751353
v 9.95748687e-05 -0.012359113 -0.00152993135
v -0.00301497459 -0.00969960313 0.000879985792
v -0.00127544107 -0.0105902383 0.00135486745
v 0.00210095863 -0.0121393926 0.0013722262
v 0.00347086039 -0.0116044009 0.00261424183
v 0.00492884844 -0.0107885621 0.00357131123
v 0.00681783102 -0.00955395609 0.00418488083
v 0.0064177811 -0.00965277608 0.0042458667
v 0.00775096263 -0.0090402888 0.00415955121
v -0.00407394143 0.0112136327 -0.00312812278
v -0.00660781531 -0.000534441296 0.0104006616
v -0.00250384383 0.00294981982 0.011853383
v 0.000347255317 0.0122179263 0.0024253689
v -0.00607370642 0.0101386347 -0.00394961031
v -0.00332292747 0.00870772477 -0.00539139315
v -0.00705725672 0.00936052265 -0.00424784276
v -0.00495183631 0.00690610253 -0.00623963857
v -0.00859352152 0.0079010283 -0.00436352647
v -0.0113241872 -0.00124107773 0.00505010382
v -0.00490284383 0.000838194775 0.0114253284
v -0.0034621199 -0.00192304701 0.0100121215
v -0.00392021918 0.00161898367 0.0117251542
v -0.00565444064 0.000307974673 0.0111000396
v -0.00768301923 -0.00109478083 0.00958534057
v -0.00786077647 -0.000895248632 0.0096273673
v -0.0089983301 -0.00154843509 0.00827117508
v -0.00920741769 -0.00133134915 0.00829036132
v -0.0101495579 -0.00169602469 0.0067516332
v -0.010380096 -0.00144837853 0.00674051251
v -0.0110868742 -0.00153089606 0.00509520508
v -0.0117587993 -0.00103344317 0.00360307679
v -0.00977635372 -0.00345290973 0.00150083784
v -0.0121911004 -0.00030489027 0.00189702244
v -0.0101490021 -0.00261926256 -0.000227530362
v -0.0124376259 0.000610387245 0.000765685544
v -0.0123204752 0.000685645785 0.000253180211
v -0.0102075407 -0.00154369827 -0.00186041157
v -0.012321978 0.00178463488 -0.000791793303
v -0.0121347794 0.00188850688 -0.00123834501
v -0.0099469912 -0.000273778951 -0.00332829395
v -0.0118839749 0.00313291602 -0.00213570778
v -0.0116424526 0.00324538823 -0.00250780176
v -0.00938428012 0.00113936475 -0.00456042212
v -0.0111461319 0.00458969503 -0.00320170123
v -0.0108654802 0.00470117256 -0.00350055977
v -0.00853964637 0.00263262764 -0.00550712516
v -0.0100082992 0.00599195791 -0.00408127934
v -0.00745044381 0.00414153742 -0.00612540186
v -0.00917783305 0.00707479042 -0.00437217214
v -0.00532235229 0.0106683389 -0.00362458913
v -0.00296263467 0.0117420092 -0.0023334147
v -0.00162149212 0.0121685952 -0.00103804113
v -0.00176905466 0.012308097 -0.000814341805
v -0.000445382518 0.0122910921 0.000464315597
v -0.000596681925 0.01242511 0.000734910833
v 0.000513779478 0.0121041875 0.00210618865
v 0.00106120008 0.0117311723 0.00368283716
v 0.00381203474 0.0094170767 0.00256094694
v 0.00149409251 0.0110022428 0.0053873807
v 0.00416458092 0.00860387726 0.00430340011
v 0.00142274468 0.0104047875 0.00673557313
v 0.00162280934 0.0100109199 0.00703386903
v 0.00420473755 0.0075464902 0.0059488871
v 0.00130864121 0.0092281816 0.00829279489
v 0.00143653214 0.00881018006 0.00852430555
v 0.00393350854 0.00628743331 0.00742347292
v 0.000874527273 0.00787619439 0.00963385495
v 0.00094191761 0.0074513034 0.00979663509
v 0.00336292321 0.00488145481 0.00866136226
v 0.000141720985 0.0064122514 0.0106964243
v 0.000164175779 0.0059991374 0.0107887031
v 0.00251596995 0.00339107253 0.00960964918
v -0.000723917127 0.00473930471 0.0113903875
v 0.00142832525 0.00188027608 0.0102268588
v -0.00159686832 0.00370217183 0.0117108023
v -0.000736736123 -0.00348944052 0.00908893581
v -0.00126447042 -0.00486887289 0.00822121393
v -0.00205328004 0.00627991716 -0.00718845048
v -0.00035590299 0.00648902253 -0.00711778545
v 0.000249010073 -0.00234327512 0.00951252252
v -0.00340696569 0.00549911836 -0.00736269877
v -0.000660891717 0.00346183155 -0.00893595374
v -0.000171924646 -0.00100810599 0.0101716055
v 0.00264936067 -0.00476389229 0.00794895824
v 0.00767335263 -0.00836283818 0.00460425445
v -0.00511150672 -0.00435323211 0.00768979094
v -0.000410134256 -0.00694910485 0.00666639126
v 0.00338855092 -0.00802181633 0.00586027431
v -0.00421563217 -0.00628408311 0.00596951597
v 0.00187921238 -0.00899392167 0.00507359425
v -0.0076399594 -0.00485802543 0.00471514677
v -0.00325820979 -0.00807382262 0.0041348107
v 0.000419606797 -0.00970384359 0.00397573834
v -0.00582126749 -0.00707070863 0.00270909067
v -0.000930469319 -0.0101157365 0.00262044724
v -0.00264737229 -0.0102808442 -0.000474204449
v -0.00425953484 -0.00909188742 -0.00101878008
v -0.000223676644 -0.0122980407 -0.00245017118
v -0.00802845006 -0.00542628411 0.00103054725
v -0.00463343764 -0.00858946368 -0.00299337563
v -0.00647208795 -0.00657828055 -0.00278197558
v -0.00816815112 -0.00444600668 -0.00253217425
v -0.00476357093 -0.00646303058 -0.00630371837
v -0.00628215464 -0.00421724301 -0.00597095447
v -0.00766021597 -0.00189405623 -0.00553441748
v -0.00364873221 -0.00363994172 -0.00881107368
v -0.00486551552 -0.00126729288 -0.00822344946
v -0.00596849604 0.0011253638 -0.00748375688
v -0.000198869527 -0.00236575259 -0.0108428834
v -0.00294185371 0.000705527546 -0.00923058248
v -0.00483876573 0.00413069498 -0.00745530175
v -0.00637892948 0.00568025662 -0.00626634931
v -0.0038549292 0.00236370929 -0.00841347813
v 0.000825466838 0.000430788232 -0.0105110917
v 0.0031176905 -0.0021212266 -0.011797865
v 0.000246017753 0.0092185119 -0.00437656121
v 0.00203282321 0.00532676917 -0.00777120075
v 0.00263289057 0.00200134844 -0.00996068489
v 0.00259422397 0.00790537624 -0.00486535635
v 0.00414191658 0.00297287718 -0.00917420607
v 0.00277428898 0.00972348876 -0.00140166846
v 0.00488088904 0.0064512733 -0.00523984237
v 0.00559918479 0.00368524479 -0.00807482545
v 0.00533684215 0.00755518733 -0.00237907799
v 0.00693821642 0.00410886428 -0.00671075288
v 0.00910524281 0.0038229775 -0.00392421819
v 0.00874426157 0.0046071635 -0.00203612432
v 0.0113795526 0.00114235892 -0.00514725853
v 0.00534698987 0.00810778567 0.000796095039
v 0.00949910859 0.0037238791 -0.000320304789
v 0.00809562477 0.00495498213 0.00167578072
v 0.00654506086 0.00606912243 0.00363730044
v 0.00962902232 0.00159736784 0.00299012527
v 0.00790569046 0.00259403935 0.00486508869
v 0.00603706984 0.00351815078 0.006639354
v 0.00851411803 -0.00122573514 0.00549737218
v 0.006491494 -0.000358290235 0.00711601444
v 0.00688117837 -0.0034344954 0.00658765903
v 0.00434623649 0.00049636637 0.0085885815
v 0.00742930753 -0.00606242872 0.00561241087
v 0.00498047509 -0.00568509542 0.00686109656
v 0.00471956807 -0.00261808534 0.00791878654
v 0.00281125887 -0.00140837884 0.00903836664
v -0.000152563244 0.00026592014 0.0105475142
v -0.0089861813 0.00337179079 0.00420109373
v -0.00724120648 0.00754492588 0.000634904652
v -0.00848052107 0.00310506061 0.0051452354
v -0.00924879807 0.00382561255 0.00317874139
v -0.00917715164 0.00431728436 0.00245889271
v -0.00911360011 0.00458778876 0.00208465585
v -0.00639507802 0.00828908083 0.00081506956
v -0.00553661005 0.00856735253 0.00118616995
v -0.00523787157 0.0110781982 -0.00206204477
v -0.0104534314 -0.000275305415 0.00691529255
v -0.00817233576 0.00305277014 0.00585598834
v -0.0082197528 0.00614599332 0.000801832244
v -0.0110491877 0.00545204011 -0.00236959461
v -0.00945049613 0.00750248781 -0.00299721791
v -0.0101897063 0.00657262349 -0.00271721903
v -0.00491348689 0.00904219218 0.00176198382
v -0.00350916037 0.00909330401 0.0038416961
v -0.0031701566 0.00873154639 0.00490039916
v -0.00312022353 0.00824968672 0.0055784849
v -0.00312867034 0.00800166173 0.00600173302
v -0.00482020214 0.00510086341 0.00777853664
v -0.00566937358 0.00431522473 0.00771540252
v -0.00629699702 0.00384569428 0.00737984287
v -0.00715539641 0.00336096669 0.00685454542
v -0.00780707265 0.000399066846 0.00981096998
v -0.0110781731 0.00523789668 -0.00206204477
v -0.00375359671 0.00903727555 0.00311414179
v -0.00150290137 0.0122173999 0.00174937078
v -0.00364932991 0.00631375218 0.00726624847
v -0.00157484934 0.0059604906 0.010831126
v -0.000424802913 0.00781795739 0.00977537959
v -0.00110952004 0.00224062764 0.00545232944
v 0.00014291508 0.00513830268 0.00303675965
v -0.000471935115 0.00589039292 0.0010295086
v -0.00263457741 0.00522760747 -0.00117274916
v -0.00493448393 0.00304802203 -0.00134941164
v -0.00570963688 0.00174586156 -0.000575641131
v -0.00559431183 4.94581324e-05 0.00208452681
v -0.0027480191 0.000741231841 0.00524813807
v -0.00487457106 0.000563238584 0.00238701567
v -0.00493456591 -1.00025763e-05 0.00314069002
v -0.00278894367 0.00150332097 0.00406905765
v -0.00182932039 0.00237712347 0.00419496986
v -0.000328339346 0.0042952873 0.00358251705
v -0.00448627295 0.00257719862 -6.83191701e-08
v -0.00515232774 0.00108921089 0.00120692541
v -0.00463467257 0.00109906935 0.00195244726
v -0.000926805859 0.00424935885 0.00277116348
v -0.00109904425 0.00463463807 0.00195244726
v -0.00135784762 0.00477292084 0.00136951384
v -0.00198041671 0.00502589843 8.38614839e-05
v -0.00264721529 0.00441499495 1.82565961e-06
v -0.00410764215 0.00362139795 -0.000977216829
v 0.00382585283 -0.00344467938 0.000304009082
v 0.00454168191 -0.00244005643 -0.000119990269
v 0.00481418974 -0.00118781144 -0.00155866
v 0.00401431902 -0.000952403312 -0.00307866159
v 0.00357455595 -0.00107453323 -0.00354512754
v 0.00288030689 -0.00143979875 -0.0040281627
v 0.00209981783 -0.00209985233 -0.00420495096
v 0.0015035737 -0.00278864077 -0.00406916429
v 0.000994957623 -0.0037691579 -0.00337615942
v 0.000960773063 -0.00437585569 -0.00253542486
v 0.00117861898 -0.00472055293 -0.00170959061
v 0.00171942098 -0.00478128648 -0.000826321275
v 0.00257702094 -0.00448639057 -4.36139123e-08
v 0.00586170889 -0.000514057369 -0.00100959494
v 0.00573177619 -0.00161707355 0.000419082739
v 0.00499242939 -0.00298580192 0.00134323724
v 0.00380088314 -0.00432940322 0.00156641382
v 0.00269848688 -0.00517378307 0.00118760046
v 0.00142332001 -0.00582093887 0.000265439627
v 2.88696758e-05 -0.00563542839 -0.00205441468
v -3.75323268e-05 -0.00415440696 -0.00432648981
v 0.00125492188 -0.00207108442 -0.00548769954
v 0.00330175911 -0.000359990068 -0.00499479662
v 0.00489099135 0.000156835679 -0.00342019045
v 0.00555033071 -4.42669444e-05 -0.00215681616
v -0.000803211777 0.00536822267 0.0113685769
v 0.000717916429 0.00824978737 0.00953824834
v 0.00123698099 0.00994195485 0.00761572298
v 0.00119191988 0.0109997585 0.0059965032
v 0.00110790805 0.0114182537 0.00509931784
v -0.0104909516 0.0059268223 -0.00367675207
v -0.0121048696 0.00313722293 -0.00178335022
v -0.0125134529 0.0013345673 6.4172118e-05
v -0.0124683918 0.000276823277 0.0016833919
v -0.0122964667 -0.00022967364 0.00252028998
v 9.15828489e-05 0.00891310861 0.00887694834
v 0.000337597343 0.0108384346 0.00641218414
v -0.000510533152 0.0121711375 0.00321005195
v -0.00186898333 0.0123758684 0.000937189839
v -0.00301965642 0.01216513 -0.000432271991
v -0.00430278202 0.0117318185 -0.00175045537
v -0.0115667044 0.00449379861 -0.00170936141
v -0.0118495386 0.004062305 -0.00162348475
v -0.0123031343 0.00256208104 2.29573062e-05
v -0.0123021221 0.000800742257 0.00259163899
v -0.0113394069 -0.00013654869 0.00540683674
v -0.00939594246 -0.000223591383 0.00836171223
v -0.00747898904 0.000380101277 0.0101929875
v -0.00507428792 0.0020679746 0.0113436407
v -0.00699554706 0.0100001196 -0.00312426357
v -0.00350230353 0.00350238823 0.0115425962
v -0.00433195351 0.00246335794 0.0116649005
v -0.00388152932 0.00259694158 0.011812535
v -0.00380088537 0.00220627234 0.0118806928
v -0.00289338248 0.00289334797 0.0119008201
v -0.00856488364 0.00856484913 -0.00332423273
v -0.00763327941 0.00950116102 -0.00351613662
v -0.00790819195 0.00919194398 -0.0037834006
v -0.00815923572 0.00881545168 -0.00402467392
v -0.00838320868 0.00838317418 -0.004220925
v -0.0116520466 0.00399490141 -0.00257726732
v 0.000375574661 0.00728162074 0.0102571624
v -0.00359337943 0.00222541832 0.0118536132
v -0.00672772015 0.000557123381 0.0107607934
v -0.00590288232 0.000806677616 0.0112203406
v -0.00584102311 0.00044907736 0.0111669023
v -0.00915701395 -0.000366272259 0.00872499902
v -0.00887701879 -0.000644358974 0.0090621173
v -0.00783119038 -0.000487906258 0.00992287946
v -0.00728159563 -0.00037554956 0.0102571624
v -0.00994437704 -0.000627206998 0.0078569532
v -0.00868302004 -0.000960509544 0.00905839381
v -0.00933414118 -0.00113842941 0.00836364207
v -0.0116709977 -0.000308353014 0.0049590485
v -0.0113307441 -0.000707238476 0.00574192163
v -0.0102136737 -0.00112584455 0.00738046238
v -0.0104992928 -0.00125483728 0.00682357725
v -0.0112241757 -0.00102393339 0.00574670069
v -0.0114372315 -0.00104890323 0.00514403757
v -0.0125281804 0.00107311987 0.0016719238
v -0.0124937657 0.000431505354 0.00236173105
v -0.0123231118 -0.000176797158 0.00309759635
v -0.0117864586 -0.000886558442 0.00423621229
v -0.012103969 -0.000530283218 0.00340358195
v -0.0122654121 0.0030930742 -0.00103137505
v -0.0125308717 0.00198938152 -3.30081509e-06
v -0.0125882823 0.00112143805 0.000618597553
v -0.0124082132 0.00231853412 -0.00087491685
v -0.01127052 0.00511406073 -0.00290835228
v -0.0117366541 0.00421901162 -0.00230293221
v -0.0106645734 0.00611187907 -0.00313251583
v -0.0100766058 0.00686446016 -0.00304599384
v -0.00941173165 0.00740627773 -0.00404950956
v -0.0102430177 0.00666110366 -0.0035798043
v -0.00956351128 0.00753401629 -0.00336029943
v -0.00748409058 0.00902848526 -0.00431814997
v -0.0049578377 0.0114146604 -0.0024852055
v -0.00558905889 0.010977678 -0.0031247695
v -0.00673035168 0.0100564676 -0.00374874094
v -0.0069590153 0.00967897915 -0.00403245512
v -0.00582490539 0.0106287245 -0.00356292263
v -0.00433398228 0.0114814792 -0.00282628862
v -0.00220199535 0.0124919249 6.73445274e-05
v -0.00263332012 0.0124230878 -0.000767683983
v -0.00311643702 0.0122174655 -0.00158292038
v -0.00328045504 0.011981745 -0.00201221529
v -0.0028767673 0.0121235074 -0.00170932482
v -0.00194233076 0.0124150112 -0.000683746965
v -0.000293678332 0.0122735147 0.00319008365
v -0.000466401995 0.0125051703 0.00229351328
v -0.00124289629 0.0125829944 0.000423140779
v -0.000777179169 0.0125313594 0.000856317847
v -0.00023211418 0.0124807663 0.00205712442
v 0.000160759521 0.0123254254 0.00253585753
v 0.000563105956 0.0108922034 0.00647646593
v 0.000696309174 0.0113659601 0.0056733747
v 0.000751202525 0.0117487762 0.00478388178
v 0.000596419252 0.012076542 0.00338477741
v 0.000827497078 0.0118068054 0.00427631316
v 0.000209852494 0.00860298441 0.0093191037
v 0.000639600936 0.00921605759 0.00874706132
v 0.00111781629 0.0103491708 0.00719369982
v 0.000937603212 0.00915222029 0.00868686756
v -0.000856930184 0.00687237524 0.0104785341
v -0.000421343574 0.00657857225 0.0108711357
v 5.76983767e-05 0.0074603349 0.0102564292
v -0.00128667967 0.00618590855 0.0108555931
v -0.0011312272 0.00570836326 0.0112745341
v -0.00137850637 0.00587390818 0.0110954785
v -0.00230746882 0.00481565737 0.011368789
v -0.00200144868 0.00400664935 0.0118224571
v -0.00150041712 0.00508117768 0.011577409
v -0.00245751455 0.00448696885 0.0115474296
v 0.00845490609 -0.00842394402 0.00414049398
v 0.00703775705 -0.00971619907 0.00395710537
v 0.00590061871 -0.0105613946 0.0036273868
v 0.00558746266 -0.0108065338 0.00341082961
v 0.0048542269 -0.0112655867 0.00302089287
v 0.00407786452 -0.0116463571 0.00260614628
v 0.00340978215 -0.0120021443 0.00198131274
v 0.00267474747 -0.0122423823 0.00142246364
v 0.00207276927 -0.0124443223 0.000667457535
v 0.00141068557 -0.012532245 -6.05554355e-06
v 0.00085020052 -0.0125576703 -0.00079074964
v 0.000403087486 -0.0125146223 -0.00168080991
v -0.00058520931 -0.0120809518 -0.00338574105
v -0.000726605069 -0.011860733 -0.00428533447
v -0.00108933738 -0.0112837338 -0.0055614276
v -0.00109275334 -0.0110555247 -0.00601440341
v -0.0011572941 -0.0105585529 -0.00683884133
v -0.00114146217 -0.0100049939 -0.00762809075
v -0.00104487743 -0.00940069931 -0.00837428684
v -0.000869555 -0.00875324882 -0.00906740076
v -0.000617110576 -0.00807010642 -0.00969978548
v -0.000290197263 -0.00735914232 -0.0102641811
v 0.000107055774 -0.00662867035 -0.0107538993
v 0.000568656236 -0.00588801835 -0.0111624353
v 0.00109210047 -0.0051444407 -0.0114863873
v 0.00166889897 -0.00440748918 -0.0117210124
v 0.00214574242 -0.00353161471 -0.0118408234
v 0.00323730545 -0.00263632412 -0.0119178279
v 0.00394379679 -0.00198454059 -0.0118298268
v 0.00437395564 -0.00169656021 -0.0117295814
v 0.0051108452 -0.00111718002 -0.0114989908
v 0.00583462597 -0.00061543951 -0.0111898371
v 0.00656113004 -0.000149896114 -0.0107951876
v 0.00729243532 0.00025333552 -0.0103131446
v 0.008005256 0.000587146088 -0.00975567834
v 0.00869128644 0.000846538291 -0.00912948973
v 0.00934262653 0.0010292158 -0.00844153171
v 0.00995051512 0.0011332073 -0.00770083715
v 0.0105096561 0.00115638927 -0.00691471258
v 0.0110120085 0.0010994387 -0.00609346774
v 0.0117883933 0.000877729871 -0.00424458684
v 0.0121338559 0.000453352969 -0.00348349336
v 0.0123608527 7.73607142e-05 -0.00260739873
v 0.0125051115 -0.000357099894 -0.00175794796
v 0.0125695112 -0.000853587457 -0.000933761065
v 0.012553574 -0.00140762113 -0.000143882952
v 0.0124573191 -0.00201171933 0.000601807186
v 0.0122818997 -0.00265928359 0.00129498004
v 0.0120293843 -0.00334247027 0.00192758517
v 0.0117028363 -0.00405333863 0.00249160854
v 0.0113059195 -0.00478380631 0.00298107799
v 0.0108431292 -0.00552475581 0.00339047333
v 0.0103203004 -0.00626800306 0.00371421606
v 0.00974377691 -0.00700417853 0.00394865992
v 0.00901025353 -0.0076214211 0.0042439772
v 0.0091737845 -0.00785340178 0.00387549726
v 0.0118878986 0.000491809624 -0.00439208354
v 0.0115269381 0.000709526434 -0.0052421127
v 0.0025047242 -0.00382604625 -0.0118297124
v -0.000209131911 -0.0121706187 -0.00356163694
v 0.00015206971 -0.012388604 -0.00271151733
v 0.00980131103 -0.00723170659 0.00351071398
v 0.0103596562 -0.0065226693 0.00328932689
v 0.0108668862 -0.00580581989 0.0029820281
v 0.0113152717 -0.00509236647 0.00259237738
v 0.0117013708 -0.00438764377 0.00212457128
v 0.012019736 -0.0037018059 0.00158466266
v 0.0122670914 -0.00304149121 0.000978561688
v 0.0124399552 -0.00241611675 0.000313909779
v 0.0125368024 -0.00183164166 -0.0004021251
v 0.0125564692 -0.00129479856 -0.00116117356
v 0.0124984739 -0.000813122047 -0.00195366894
v 0.0123636158 -0.000392101773 -0.00277020681
v 0.0121533393 -3.50705373e-05 -0.00360296326
v 0.0111004394 0.000606594808 -0.00609096902
v 0.0106219656 0.000669431973 -0.00688575032
v 0.0100885915 0.000654781623 -0.00764725044
v 0.00950736076 0.000562636865 -0.00836551763
v 0.00888338459 0.000394413566 -0.00903436589
v 0.00822530636 0.00015169057 -0.00964421295
v 0.00754109614 -0.000162628266 -0.0101879339
v 0.00683799442 -0.000544501629 -0.010659819
v 0.00612268014 -0.000990012465 -0.0110553681
v 0.00540726623 -0.00149291877 -0.0113675776
v 0.00469792066 -0.00204837768 -0.0115940397
v 0.00400210592 -0.00264953493 -0.0117325451
v 0.00332951729 -0.00328918477 -0.0117806669
v 0.00208447286 -0.00465395345 -0.0116053519
v 0.0015256961 -0.00536325399 -0.0113840546
v 0.00101897402 -0.00607927318 -0.0110766758
v 0.00057069932 -0.00679321788 -0.010687079
v 0.000184397325 -0.00749801413 -0.0102192595
v -0.000134276482 -0.00818431912 -0.00967922395
v -0.000381175651 -0.00884384472 -0.00907355362
v -0.000554256014 -0.00946982748 -0.00840855957
v -0.000651288695 -0.0100543887 -0.00769249725
v -0.000671013769 -0.0105907011 -0.00693367949
v -0.000612950484 -0.0110725822 -0.00614091543
v -0.000478062077 -0.0114943027 -0.0053237599
v -0.000267792992 -0.0118506291 -0.00449216197
v 0.000785466093 -0.0124923359 -0.0020033833
v 0.00126368111 -0.0125551529 -0.0012085826
v 0.00179668093 -0.0125403704 -0.000447798697
v 0.00237841892 -0.0124482095 0.000270890345
v 0.00300193675 -0.0122798584 0.000939414976
v 0.00365996194 -0.0120371205 0.00154928662
v 0.00434486224 -0.0117229661 0.00209342788
v 0.00504841887 -0.0113410588 0.00256571487
v 0.00576220445 -0.0108959738 0.00296036389
v 0.00647834564 -0.0103926777 0.00327289679
v 0.00718823231 -0.00983727224 0.00349950433
v 0.00788329208 -0.00923622652 0.00363785121
v 0.00855615672 -0.00859610718 0.00368612868
v 0.00915787465 -0.00798112389 0.00340461042
v 0.0118091849 1.15731719e-05 -0.00443839319
v 0.0114689612 0.000224392387 -0.00525053776
v 0.00287248187 -0.00404920794 -0.0115978573
v 0.000221173835 -0.0120420829 -0.00375457088
v 0.000561276104 -0.0122548009 -0.00294294571
v 0.00975984914 -0.00725154138 0.00315038142
v 0.0102950989 -0.00656960464 0.00293508944
v 0.0107805191 -0.0058812902 0.00263718542
v 0.0111230612 -0.00531601932 0.00227242959
v 0.0115792213 -0.00451819158 0.00180844244
v 0.0118833242 -0.00385926223 0.00128737864
v 0.0120555852 -0.00335191249 0.000757766858
v 0.0122172479 -0.00278503803 0.000156450445
v 0.012331405 -0.00218641387 -0.00054862806
v 0.00957807189 -0.00355545067 -0.00337711947
v 0.0123321472 -0.001089494 -0.00212057653
v 0.0122001825 -0.000686030155 -0.00290664259
v 0.0119960962 -0.000345270401 -0.00370677534
v 0.0109933665 0.000207449639 -0.00602281638
v 0.00824218831 -0.00281820843 -0.00639905103
v 0.00978346181 0.000235014853 -0.00784378774
v 0.00884134157 5.15177198e-05 -0.0089214665
v 0.00820798261 -0.000183920627 -0.00950583044
v 0.00754899366 -0.00048796392 -0.0100268942
v 0.00687236173 -0.000856976276 -0.0104785782
v 0.00593546688 -0.00150379315 -0.010945007
v 0.0049378473 -0.00225861677 -0.0112987087
v 0.00484401659 -0.00503372683 -0.00816486727
v 0.00350231512 -0.00350234962 -0.0115426404
v 0.00239913219 -0.0047846652 -0.0113247111
v 0.00177211149 -0.00549767471 -0.011153422
v 0.00128669126 -0.00618592954 -0.010855518
v 0.000856941772 -0.00687239624 -0.0104785782
v 0.000487989021 -0.00754902816 -0.0100268942
v 0.000183886123 -0.00820795751 -0.00950583044
v -5.15522234e-05 -0.00884131647 -0.0089214665
v -0.000210193821 -0.00965061901 -0.00800661605
v -0.000271468688 -0.0104201371 -0.00696385283
v -0.000264817642 -0.0109777257 -0.00609787527
v -0.000132972168 -0.0113811896 -0.00531180921
v 7.12333448e-05 -0.0117219493 -0.00451167646
v 0.0010895191 -0.0123321221 -0.00212057653
v 0.00155097826 -0.0123901174 -0.00135775629
v 0.00201980889 -0.0123480115 -0.00076881016
v 0.00288018632 -0.0122029491 0.000278745904
v 0.00378606169 -0.0118942555 0.00115842011
v 0.0044042968 -0.0116156555 0.00165080062
v 0.0058812557 -0.0107805536 0.00263718542
v 0.00656957014 -0.0102951334 0.00293508944
v 0.00725156648 -0.00975982404 0.00315038142
v 0.00791925771 -0.00918076492 0.00328067717
v 0.00856489523 -0.00856487012 0.00332418856
v -0.00750332491 0.00750329041 0.00677505907
v 0.00868255479 -0.00813351131 -0.0041181666
v -0.00724452155 0.00779350542 0.00672892508
v 0.00889236314 -0.00783173299 -0.00425311151
v -0.00703459399 0.00809528374 0.00659398016
v 0.00903887136 -0.00753895498 -0.00446792665
v -0.00688808577 0.00838812136 0.00637916502
v 0.00911218507 -0.00727508522 -0.00474783006
v -0.00681489127 0.00865199112 0.00609926161
v 0.00910717828 -0.00705812431 -0.00507374826
v -0.00681989806 0.00886895203 0.00577334341
v 0.00902420862 -0.00690285421 -0.00542350832
v -0.00690286772 0.00902416253 0.00542358336
v 0.00886887891 -0.00681988454 -0.00577338758
v -0.00705807822 0.00910713219 0.0050738233
v 0.00865191801 -0.00681487775 -0.00609930578
v -0.00727503912 0.00911219859 0.0047477859
v 0.00838810785 -0.00688813186 -0.00637920919
v -0.00753896849 0.00903894448 0.00446788248
v 0.00809532983 -0.00703464008 -0.00659390512
v -0.00783174651 0.00889237666 0.00425318655
v 0.00779349191 -0.00724444843 -0.00672896925
v -0.00813346522 0.00868256831 0.00411812243
v 0.0075033365 -0.0075033114 -0.00677498403
v -0.00842373984 0.00842370533 0.00407210764
v 0.00724453313 -0.00779352642 -0.00672896925
v -0.00868254321 0.00813349032 0.00411812243
v 0.00703460558 -0.00809530473 -0.00659390512
v -0.00889235156 0.007831712 0.00425318655
v 0.00688809736 -0.00838808275 -0.00637920919
v -0.00903897898 0.00753893399 0.00446788248
v 0.00681490285 -0.00865195251 -0.00609930578
v -0.00911217348 0.00727506422 0.0047477859
v 0.00681990964 -0.00886891342 -0.00577338758
v -0.00910716669 0.00705810332 0.0050738233
v 0.00690287931 -0.00902418352 -0.00542350832
v -0.00902419703 0.00690283322 0.00542358336
v 0.00705808981 -0.00910715318 -0.00507374826
v -0.00886886733 0.00681986355 0.00577334341
v 0.00727505071 -0.00911215997 -0.00474783006
v -0.00865202563 0.00681485676 0.00609926161
v 0.00753898008 -0.00903890586 -0.00446792665
v -0.00838809626 0.00688811087 0.00637916502
v 0.00783175809 -0.00889239765 -0.00425311151
v -0.00809531825 0.00703461909 0.00659398016
v 0.00813347681 -0.00868252969 -0.0041181666
v -0.00779348032 0.00724448704 0.00672892508
v 0.00842375143 -0.00842372633 -0.00407215181
v 0.00796348436 -0.00796351886 -0.00542350832
v -0.00796347277 0.00796349787 0.00542358336
f 520 519 1
f 2 521 520
f 5 6 509
f 4 7 2
f 2 7 521
f 528 526 4
f 528 527 526
f 8 530 528
f 515 514 513
f 1 16 520
f 520 16 17
f 520 17 15
f 15 17 515
f 8 24 18
f 8 18 530
f 3 22 14
f 14 22 21
f 513 512 515
f 515 512 6
f 9 23 8
f 8 23 24
f 10 537 9
f 10 11 538
f 10 538 537
f 547 546 20
f 20 546 545
f 20 545 19
f 19 545 544
f 77 79 67
f 80 81 82
f 82 83 84
f 84 85 86
f 71 106 66
f 107 360 108
f 108 109 110
f 110 111 112
f 76 79 77
f 132 77 133
f 70 106 71
f 134 71 135
f 78 76 77
f 72 70 71
f 139 78 77
f 139 77 136
f 136 77 132
f 132 133 140
f 73 72 71
f 73 71 137
f 137 71 134
f 134 135 138
f 68 78 200
f 200 78 139
f 136 132 140
f 349 72 73
f 137 134 138
f 139 136 140
f 67 80 142
f 67 142 77
f 77 142 133
f 133 143 140
f 140 143 144
f 140 144 197
f 197 144 64
f 197 64 141
f 141 64 63
f 141 63 65
f 80 82 142
f 142 145 133
f 133 145 143
f 143 146 144
f 144 146 62
f 144 62 389
f 144 389 64
f 82 84 147
f 82 147 142
f 142 147 145
f 145 148 143
f 143 148 149
f 143 149 146
f 146 149 61
f 146 61 392
f 146 392 62
f 84 86 147
f 147 150 145
f 145 150 148
f 148 151 149
f 149 151 60
f 149 60 394
f 149 394 61
f 86 155 147
f 147 155 150
f 150 58 148
f 148 58 59
f 148 59 151
f 151 59 396
f 151 396 60
f 59 397 396
f 155 153 150
f 150 153 152
f 150 152 58
f 59 58 57
f 59 57 397
f 58 152 154
f 58 154 57
f 55 56 153
f 55 153 156
f 88 155 87
f 87 155 86
f 87 86 336
f 336 86 75
f 56 399 153
f 153 399 154
f 153 154 152
f 157 156 153
f 157 153 155
f 401 56 55
f 158 157 155
f 158 155 90
f 90 155 88
f 90 88 89
f 89 88 288
f 288 88 87
f 54 401 55
f 52 54 55
f 52 55 159
f 159 55 156
f 159 156 157
f 93 158 90
f 93 90 92
f 92 90 91
f 91 90 89
f 53 54 52
f 160 159 157
f 160 157 158
f 161 160 158
f 161 158 96
f 96 158 93
f 96 93 95
f 95 93 94
f 94 93 92
f 51 53 52
f 49 51 52
f 49 52 162
f 162 52 159
f 162 159 160
f 99 161 96
f 99 96 98
f 98 96 97
f 97 96 95
f 50 51 49
f 163 162 160
f 163 160 161
f 164 163 161
f 164 161 102
f 102 161 99
f 102 99 101
f 101 99 100
f 100 99 98
f 48 50 49
f 165 48 49
f 165 49 166
f 166 49 162
f 166 162 163
f 104 164 102
f 104 102 103
f 103 102 101
f 413 48 165
f 169 166 163
f 169 163 164
f 104 103 105
f 167 169 164
f 167 164 168
f 168 164 104
f 168 104 105
f 105 74 168
f 166 170 165
f 165 170 413
f 413 170 171
f 74 349 168
f 168 349 167
f 167 349 73
f 167 73 169
f 169 73 137
f 169 137 166
f 166 137 138
f 166 138 170
f 66 107 172
f 66 172 71
f 71 172 135
f 135 173 138
f 138 173 174
f 138 174 170
f 170 174 47
f 170 47 171
f 171 47 415
f 171 415 414
f 107 108 172
f 172 175 135
f 135 175 173
f 173 176 174
f 174 176 46
f 174 46 45
f 174 45 47
f 108 110 177
f 108 177 172
f 172 177 175
f 175 178 173
f 173 178 179
f 173 179 176
f 176 179 44
f 176 44 43
f 176 43 46
f 110 112 177
f 177 180 175
f 175 180 178
f 178 181 179
f 179 181 42
f 179 42 41
f 179 41 44
f 112 185 177
f 177 185 180
f 180 37 178
f 178 37 40
f 178 40 181
f 181 40 39
f 181 39 42
f 40 38 39
f 185 183 180
f 180 183 182
f 180 182 37
f 40 37 36
f 40 36 38
f 37 182 184
f 37 184 36
f 33 35 183
f 33 183 186
f 114 185 113
f 113 185 112
f 113 112 371
f 371 112 69
f 35 427 183
f 183 427 184
f 183 184 182
f 187 186 183
f 187 183 185
f 34 35 33
f 188 187 185
f 188 185 116
f 116 185 114
f 116 114 115
f 115 114 283
f 283 114 113
f 32 34 33
f 30 32 33
f 30 33 189
f 189 33 186
f 189 186 187
f 119 188 116
f 119 116 118
f 118 116 117
f 117 116 115
f 31 32 30
f 190 189 187
f 190 187 188
f 191 190 188
f 191 188 122
f 122 188 119
f 122 119 121
f 121 119 120
f 120 119 118
f 29 31 30
f 27 29 30
f 27 30 192
f 192 30 189
f 192 189 190
f 125 191 122
f 125 122 124
f 124 122 123
f 123 122 121
f 28 29 27
f 193 192 190
f 193 190 191
f 195 193 191
f 195 191 128
f 128 191 125
f 128 125 127
f 127 125 126
f 126 125 124
f 26 28 27
f 25 26 27
f 25 27 194
f 194 27 192
f 194 192 193
f 130 195 128
f 130 128 129
f 129 128 127
f 441 26 25
f 198 194 193
f 198 193 195
f 130 129 131
f 196 441 25
f 196 25 197
f 197 25 194
f 197 194 198
f 199 198 195
f 199 195 200
f 200 195 130
f 200 130 131
f 131 68 200
f 199 200 139
f 199 139 198
f 198 139 140
f 198 140 197
f 196 197 141
f 196 141 441
f 207 208 209
f 299 210 203
f 203 210 211
f 202 214 212
f 212 214 215
f 212 215 213
f 213 226 212
f 212 226 295
f 212 295 206
f 206 295 297
f 208 216 209
f 227 228 216
f 216 228 292
f 216 292 293
f 227 217 228
f 221 230 229
f 231 220 229
f 229 230 231
f 232 221 229
f 232 229 244
f 244 229 220
f 244 220 233
f 233 220 219
f 233 219 218
f 233 218 234
f 234 218 217
f 234 217 227
f 234 227 216
f 234 216 251
f 251 216 235
f 235 216 208
f 235 208 207
f 235 207 253
f 253 207 202
f 253 202 212
f 253 212 236
f 236 212 237
f 237 212 206
f 237 206 205
f 237 205 246
f 246 205 204
f 246 204 238
f 238 204 201
f 238 201 203
f 238 203 240
f 240 203 241
f 241 203 211
f 241 211 224
f 241 224 239
f 239 224 223
f 239 223 222
f 239 222 232
f 232 222 221
f 242 241 239
f 242 239 243
f 243 239 232
f 243 232 244
f 245 253 236
f 245 236 237
f 245 237 246
f 247 246 238
f 247 238 240
f 248 244 233
f 248 233 249
f 249 233 234
f 249 234 250
f 250 234 251
f 252 251 235
f 252 235 253
f 254 243 255
f 255 243 244
f 255 244 256
f 256 244 248
f 256 248 249
f 256 249 250
f 256 250 257
f 257 250 251
f 257 251 258
f 258 251 259
f 259 251 252
f 259 252 253
f 259 253 260
f 260 253 261
f 261 253 245
f 261 245 262
f 262 245 246
f 262 246 263
f 263 246 264
f 264 246 247
f 264 247 240
f 264 240 265
f 265 240 266
f 266 240 241
f 266 241 242
f 266 242 254
f 254 242 243
f 256 267 268
f 256 268 255
f 255 268 269
f 255 269 254
f 254 269 270
f 254 270 266
f 266 270 271
f 266 271 272
f 266 272 265
f 265 272 264
f 264 272 273
f 264 273 263
f 263 273 262
f 262 273 274
f 262 274 261
f 274 275 261
f 261 275 260
f 260 275 259
f 259 275 276
f 259 276 258
f 258 276 257
f 257 276 277
f 257 277 256
f 256 277 278
f 256 278 267
f 14 270 3
f 3 270 269
f 3 269 5
f 5 269 6
f 6 269 268
f 6 268 515
f 515 268 267
f 515 267 15
f 15 267 520
f 520 267 278
f 520 278 277
f 520 277 2
f 2 277 276
f 2 276 4
f 4 276 528
f 528 276 275
f 528 275 8
f 8 275 274
f 8 274 9
f 9 274 10
f 10 274 273
f 10 273 11
f 11 273 12
f 12 273 13
f 13 273 272
f 13 272 19
f 19 272 20
f 20 272 271
f 20 271 21
f 21 271 270
f 21 270 14
f 131 129 279
f 124 123 280
f 123 121 280
f 121 120 376
f 120 118 281
f 118 117 375
f 117 115 282
f 105 103 284
f 98 97 285
f 97 95 285
f 95 94 341
f 94 92 286
f 92 91 340
f 91 89 287
f 289 220 231
f 290 219 220
f 290 218 219
f 291 217 218
f 291 228 217
f 294 216 293
f 294 209 216
f 303 207 209
f 297 205 206
f 298 204 205
f 298 201 204
f 299 203 201
f 300 211 210
f 300 224 211
f 301 224 225
f 302 223 224
f 222 223 302
f 202 207 303
f 221 222 304
f 304 222 302
f 304 302 305
f 309 202 303
f 309 303 310
f 316 78 68
f 224 301 302
f 302 301 317
f 302 317 305
f 305 317 318
f 305 318 306
f 306 318 307
f 307 316 308
f 308 316 68
f 316 307 78
f 319 76 78
f 318 319 307
f 307 319 78
f 319 79 76
f 224 300 225
f 225 300 301
f 319 67 79
f 300 320 301
f 301 320 321
f 301 321 317
f 317 321 322
f 317 322 318
f 318 322 319
f 323 80 67
f 322 323 319
f 319 323 67
f 322 81 80
f 300 210 324
f 300 324 320
f 320 324 321
f 323 322 80
f 325 82 81
f 210 299 324
f 321 325 322
f 322 325 81
f 326 83 82
f 299 327 324
f 324 327 328
f 324 328 329
f 324 329 321
f 321 329 326
f 321 326 325
f 325 326 82
f 329 84 83
f 326 329 83
f 330 85 84
f 201 298 299
f 299 298 327
f 328 331 329
f 329 331 330
f 329 330 84
f 331 86 85
f 330 331 85
f 332 75 86
f 298 333 327
f 327 333 334
f 327 334 328
f 328 334 335
f 328 335 331
f 331 335 332
f 331 332 86
f 335 336 332
f 332 336 75
f 288 87 337
f 205 297 298
f 298 297 333
f 335 337 336
f 336 337 87
f 335 288 337
f 297 338 333
f 333 338 339
f 333 339 334
f 334 339 340
f 334 340 335
f 335 340 287
f 335 287 288
f 288 287 89
f 295 296 297
f 297 296 338
f 287 340 91
f 339 338 341
f 339 341 340
f 340 341 286
f 340 286 92
f 226 213 295
f 295 213 296
f 286 341 94
f 213 342 296
f 296 342 343
f 296 343 338
f 338 343 285
f 338 285 341
f 341 285 95
f 343 342 314
f 343 314 285
f 285 314 98
f 103 101 284
f 284 101 342
f 284 342 347
f 347 342 344
f 344 342 213
f 342 101 100
f 342 100 314
f 314 100 98
f 345 344 213
f 345 213 215
f 346 105 284
f 346 284 347
f 347 344 348
f 348 344 345
f 214 345 215
f 74 105 346
f 348 345 214
f 313 74 346
f 313 346 312
f 312 346 311
f 311 346 347
f 311 347 310
f 310 347 348
f 310 348 309
f 309 348 202
f 202 348 214
f 209 294 303
f 303 294 350
f 303 350 310
f 310 350 351
f 310 351 311
f 311 351 352
f 311 352 312
f 312 352 349
f 312 349 313
f 313 349 74
f 352 353 349
f 349 353 72
f 354 70 72
f 351 354 352
f 352 354 353
f 353 354 72
f 354 106 70
f 355 66 106
f 293 356 294
f 294 356 357
f 294 357 350
f 350 357 358
f 350 358 351
f 351 358 355
f 351 355 354
f 354 355 106
f 355 107 66
f 293 292 356
f 359 360 107
f 358 359 355
f 355 359 107
f 228 291 292
f 292 291 356
f 358 360 359
f 361 109 108
f 291 362 356
f 356 362 363
f 356 363 357
f 357 363 364
f 357 364 358
f 358 364 361
f 358 361 360
f 360 361 108
f 364 110 109
f 361 364 109
f 365 111 110
f 363 366 364
f 364 366 365
f 364 365 110
f 366 112 111
f 218 290 291
f 291 290 362
f 365 366 111
f 367 69 112
f 290 368 362
f 362 368 369
f 362 369 363
f 363 369 370
f 363 370 366
f 366 370 367
f 366 367 112
f 370 371 367
f 367 371 69
f 283 113 372
f 370 372 371
f 371 372 113
f 220 289 290
f 290 289 368
f 370 283 372
f 289 373 368
f 368 373 374
f 368 374 369
f 369 374 375
f 369 375 370
f 370 375 282
f 370 282 283
f 283 282 115
f 282 375 117
f 289 231 373
f 374 376 375
f 375 376 281
f 375 281 118
f 230 377 231
f 231 377 373
f 281 376 120
f 377 378 373
f 373 378 379
f 373 379 374
f 374 379 280
f 374 280 376
f 376 280 121
f 379 378 315
f 379 315 280
f 280 315 124
f 129 127 279
f 279 127 378
f 279 378 385
f 385 378 381
f 381 378 382
f 382 378 380
f 380 378 377
f 380 377 230
f 378 127 126
f 378 126 315
f 315 126 124
f 382 380 230
f 384 131 279
f 384 279 385
f 385 381 386
f 386 381 382
f 386 382 383
f 383 382 230
f 68 131 384
f 386 383 221
f 221 383 230
f 308 68 384
f 308 384 307
f 307 384 306
f 306 384 385
f 306 385 305
f 305 385 386
f 305 386 304
f 304 386 221
f 65 63 388
f 388 63 64
f 388 64 389
f 390 389 391
f 389 62 391
f 391 62 392
f 392 61 393
f 393 61 394
f 394 60 395
f 395 60 396
f 397 57 398
f 398 57 154
f 400 399 56
f 400 56 401
f 402 401 54
f 402 54 403
f 403 54 404
f 404 54 53
f 404 53 405
f 405 53 406
f 406 53 51
f 406 51 407
f 407 51 408
f 408 51 50
f 408 50 409
f 409 50 410
f 410 50 48
f 410 48 411
f 411 48 412
f 412 48 413
f 413 171 414
f 416 415 47
f 416 47 417
f 417 47 45
f 417 45 418
f 418 45 419
f 45 46 419
f 419 46 420
f 46 43 420
f 420 43 421
f 43 44 421
f 421 44 422
f 44 41 422
f 422 41 423
f 41 42 423
f 423 42 424
f 42 39 424
f 424 39 425
f 39 38 425
f 425 38 426
f 38 36 426
f 426 36 184
f 428 427 35
f 428 35 429
f 429 35 34
f 429 34 430
f 430 34 32
f 430 32 431
f 431 32 432
f 432 32 31
f 432 31 433
f 433 31 434
f 434 31 29
f 434 29 435
f 435 29 436
f 436 29 28
f 436 28 437
f 437 28 438
f 438 28 26
f 438 26 439
f 439 26 440
f 440 26 441
f 387 441 141
f 387 141 65
f 387 442 441
f 441 442 440
f 428 443 427
f 427 443 444
f 427 444 184
f 184 444 426
f 414 445 413
f 413 445 412
f 400 446 399
f 399 446 447
f 399 447 154
f 154 447 398
f 442 448 440
f 440 448 449
f 440 449 439
f 439 449 450
f 439 450 438
f 438 450 451
f 438 451 437
f 437 451 452
f 437 452 436
f 436 452 453
f 436 453 435
f 435 453 454
f 435 454 434
f 434 454 455
f 434 455 433
f 433 455 456
f 433 456 432
f 432 456 457
f 432 457 431
f 431 457 458
f 431 458 430
f 430 458 459
f 430 459 429
f 429 459 460
f 429 460 428
f 428 460 443
f 444 461 426
f 426 461 462
f 426 462 425
f 425 462 463
f 425 463 424
f 424 463 464
f 424 464 423
f 423 464 465
f 423 465 422
f 422 465 466
f 422 466 421
f 421 466 467
f 421 467 420
f 420 467 468
f 420 468 419
f 419 468 469
f 419 469 418
f 418 469 470
f 418 470 417
f 417 470 471
f 417 471 416
f 416 471 472
f 416 472 415
f 415 472 473
f 415 473 414
f 414 473 445
f 445 474 412
f 412 474 475
f 412 475 411
f 411 475 476
f 411 476 410
f 410 476 477
f 410 477 409
f 409 477 478
f 409 478 408
f 408 478 479
f 408 479 407
f 407 479 480
f 407 480 406
f 406 480 481
f 406 481 405
f 405 481 482
f 405 482 404
f 404 482 483
f 404 483 403
f 403 483 484
f 403 484 402
f 402 484 485
f 402 485 401
f 401 485 486
f 401 486 400
f 400 486 446
f 447 487 398
f 398 487 488
f 398 488 397
f 397 488 489
f 397 489 396
f 396 489 490
f 396 490 395
f 395 490 491
f 395 491 394
f 394 491 492
f 394 492 393
f 393 492 493
f 393 493 392
f 392 493 494
f 392 494 391
f 391 494 495
f 391 495 390
f 390 495 496
f 390 496 389
f 389 496 497
f 389 497 388
f 388 497 498
f 388 498 65
f 65 498 499
f 65 499 387
f 387 499 442
f 499 500 442
f 442 500 448
f 460 501 443
f 443 501 502
f 443 502 444
f 444 502 461
f 473 503 445
f 445 503 474
f 486 504 446
f 446 504 505
f 446 505 447
f 447 505 487
f 500 506 448
f 448 506 507
f 448 507 449
f 449 507 508
f 449 508 450
f 450 508 509
f 450 509 451
f 451 509 510
f 451 510 452
f 452 510 511
f 452 511 453
f 453 511 512
f 453 512 454
f 454 512 513
f 454 513 455
f 455 513 514
f 455 514 456
f 456 514 515
f 456 515 457
f 457 515 516
f 457 516 458
f 458 516 517
f 458 517 459
f 459 517 518
f 459 518 460
f 460 518 501
f 502 519 461
f 461 519 520
f 461 520 462
f 462 520 521
f 462 521 463
f 463 521 464
f 464 521 522
f 464 522 465
f 465 522 523
f 465 523 466
f 466 523 524
f 466 524 467
f 467 524 525
f 467 525 468
f 468 525 526
f 468 526 469
f 469 526 470
f 470 526 527
f 470 527 471
f 471 527 528
f 471 528 472
f 472 528 529
f 472 529 473
f 473 529 503
f 503 530 474
f 474 530 531
f 474 531 475
f 475 531 532
f 475 532 476
f 476 532 533
f 476 533 477
f 477 533 534
f 477 534 478
f 478 534 535
f 478 535 479
f 479 535 536
f 479 536 480
f 480 536 537
f 480 537 481
f 481 537 482
f 482 537 538
f 482 538 483
f 483 538 539
f 483 539 484
f 484 539 540
f 484 540 485
f 485 540 541
f 485 541 486
f 486 541 504
f 505 542 487
f 487 542 543
f 487 543 488
f 488 543 544
f 488 544 489
f 489 544 545
f 489 545 490
f 490 545 491
f 491 545 546
f 491 546 492
f 492 546 547
f 492 547 493
f 493 547 20
f 493 20 494
f 494 20 548
f 494 548 495
f 495 548 549
f 495 549 496
f 496 549 550
f 496 550 497
f 497 550 551
f 497 551 498
f 498 551 552
f 498 552 499
f 499 552 500
f 552 3 500
f 500 3 506
f 506 3 5
f 506 5 507
f 507 5 508
f 508 5 509
f 510 509 6
f 510 6 511
f 511 6 512
f 516 515 17
f 516 17 517
f 517 17 518
f 518 17 16
f 518 16 501
f 501 16 1
f 501 1 502
f 502 1 519
f 521 7 522
f 522 7 523
f 523 7 524
f 524 7 4
f 524 4 525
f 525 4 526
f 529 528 530
f 529 530 503
f 530 18 531
f 531 18 24
f 531 24 532
f 532 24 533
f 533 24 23
f 533 23 534
f 534 23 535
f 535 23 9
f 535 9 536
f 536 9 537
f 539 538 11
f 539 11 540
f 540 11 541
f 541 11 12
f 541 12 504
f 504 12 505
f 505 12 542
f 542 12 13
f 542 13 543
f 543 13 19
f 543 19 544
f 548 20 21
f 548 21 549
f 549 21 550
f 550 21 22
f 550 22 551
f 551 22 552
f 552 22 3
f 553 554 555
f 555 554 556
f 555 556 557
f 557 556 558
f 557 558 559
f 559 558 560
f 559 560 561
f 561 560 562
f 561 562 563
f 563 562 564
f 563 564 565
f 565 564 566
f 565 566 567
f 567 566 568
f 567 568 569
f 569 568 570
f 569 570 571
f 571 570 572
f 571 572 573
f 573 572 574
f 573 574 575
f 575 574 576
f 575 576 577
f 577 576 578
f 577 578 579
f 579 578 580
f 579 580 581
f 581 580 582
f 581 582 583
f 583 582 584
f 583 584 585
f 585 584 586
f 585 586 587
f 587 586 588
f 587 588 589
f 589 588 590
f 589 590 591
f 591 590 592
f 591 592 593
f 593 592 594
f 593 594 595
f 595 594 596
f 595 596 597
f 597 596 598
f 597 598 599
f 599 598 600
f 599 600 553
f 553 600 554
f 580 578 601
f 601 578 576
f 601 576 574
f 586 584 601
f 601 584 582
f 601 582 580
f 592 590 601
f 601 590 588
f 601 588 586
f 598 596 601
f 601 596 594
f 601 594 592
f 556 554 601
f 601 554 600
f 601 600 598
f 562 560 601
f 601 560 558
f 601 558 556
f 568 566 601
f 601 566 564
f 601 564 562
f 574 572 601
f 601 572 570
f 601 570 568
f 573 575 602
f 602 575 577
f 602 577 579
f 567 569 602
f 602 569 571
f 602 571 573
f 561 563 602
f 602 563 565
f 602 565 567
f 555 557 602
f 602 557 559
f 602 559 561
f 597 599 602
f 602 599 553
f 602 553 555
f 591 593 602
f 602 593 595
f 602 595 597
f 585 587 602
f 602 587 589
f 602 589 591
f 579 581 602
f 602 581 583
f 602 583 585
