v -0.00757175724 0.00757179874 0.00662087572
v 0.00599724014 -0.00654627663 -0.00892639983
v -0.00782376568 0.00727472919 0.00666081083
v 0.00580745895 -0.00686814171 -0.0088092171
v -0.00801354687 0.00695286411 0.00677799356
v 0.00569289882 -0.00719286782 -0.00862289298
v -0.008128107 0.006628138 0.00696431768
v 0.00566130836 -0.00749840123 -0.00837994444
v -0.00815969746 0.0063226046 0.00720726621
v 0.00571483333 -0.00776388031 -0.00809718001
v -0.00810617249 0.00605712551 0.00749014985
v 0.00584977825 -0.00797118527 -0.00779367316
v -0.00797110836 0.00584982055 0.00779365671
v 0.0060570832 -0.00810613018 -0.0074900471
v -0.00776380341 0.00571475643 0.00809716356
v 0.00632256229 -0.00815965515 -0.00720728266
v -0.00749832432 0.00566123146 0.0083800472
v 0.0066280957 -0.00812806469 -0.00696433413
v -0.00719291012 0.00569282192 0.00862287652
v 0.0069528218 -0.00801350457 -0.00677801001
v -0.00686806481 0.00580738205 0.00880920064
v 0.00727468689 -0.00782372338 -0.00666082728
v -0.00654619973 0.00599716324 0.00892638338
v 0.00757175643 -0.00757183415 -0.00662089217
v -0.00624913018 0.00624917167 0.00896631849
v 0.00782376487 -0.0072747646 -0.00666082728
v -0.00599724095 0.00654624122 0.00892638338
v 0.00801354606 -0.00695289952 -0.00677801001
v -0.00580745976 0.0068681063 0.00880920064
v 0.00812810619 -0.0066280542 -0.00696433413
v -0.00569289963 0.00719283241 0.00862287652
v 0.00815969665 -0.00632252079 -0.00720728266
v -0.00566130917 0.00749836582 0.0083800472
v 0.00810617168 -0.00605716091 -0.0074900471
v -0.00571483414 0.00776384491 0.00809716356
v 0.00797110755 -0.00584985596 -0.00779367316
v -0.00584977906 0.00797114986 0.00779365671
v 0.0077638026 -0.00571479184 -0.00809718001
v -0.00605708401 0.00810621399 0.00749014985
v 0.00749832351 -0.00566126686 -0.00837994444
v -0.0063225631 0.00815973896 0.00720726621
v 0.00719290931 -0.00569285733 -0.00862289298
v -0.00662809651 0.0081281485 0.00696431768
v 0.006868064 -0.00580741745 -0.0088092171
v -0.00695282261 0.00801346916 0.00677799356
v 0.00654619892 -0.00599719864 -0.00892639983
v -0.0072746877 0.00782380718 0.00666081083
v 0.00624912937 -0.00624920708 -0.00896633494
v 0.00691050251 -0.00691046101 -0.00779367316
v -0.00691050332 0.0069104256 0.00779365671
v 0.00272049383 -0.00450851927 -0.00882705326
v 0.00851759384 -0.0047519952 -0.00370558335
v 0.0087011164 -0.00344955896 -0.0047949977
v 0.00848421142 -0.0030840107 -0.00524143081
v 0.00800997743 -0.00225701495 -0.00646374945
v 0.00751943208 -0.00214631423 -0.00691352372
v 0.00688881613 -0.00203373024 -0.00753950624
v 0.000370359273 -0.00325127404 -0.0120256362
v 0.00375378501 -0.00347083172 -0.00914467817
v 0.00259894092 -0.00810493809 -0.00574589598
v 0.0031631446 -0.00858512694 -0.00515412738
v 0.00376119261 -0.00862128434 -0.00452074296
v 0.00727993209 -0.0066396175 -0.0028946482
v 0.00447988066 -0.00289479409 -0.00928543736
v 0.00797502696 -0.00608495849 -0.00310438429
v 0.00523708362 -0.00237427817 -0.00879556174
v 0.00226373151 -0.00564115735 -0.00856190319
v 0.00198280749 -0.0067290786 -0.0075120901
v 0.00225447006 -0.00774887902 -0.00668061818
v -0.000453819023 -0.0108889689 -0.0059841204
v 0.00408818895 -0.00861381702 -0.004188116
v 0.0060875491 -0.00824247142 -0.00311702893
v 0.00665619717 -0.00752213309 -0.00297898377
v 0.00904008537 -0.00852890318 0.000341330825
v 0.0113361054 -0.00505813481 -0.000700278731
v -0.00216867794 -0.00107077711 -0.0108539631
v -0.000867552076 -0.00277888457 -0.0121236364
v -0.003438028 -0.00354973061 -0.0101271161
v -0.00180400181 -0.00437807635 -0.011533278
v -0.00243473194 -0.00599558183 -0.0106556101
v -0.00419264869 -0.00674018617 -0.00802303614
v -0.00273032785 -0.00755619864 -0.00953127638
v -0.00267707397 -0.00898604563 -0.00821318394
v -0.00357929562 -0.00936284293 -0.00524509263
v -0.00243370385 -0.00983515583 -0.00725449298
v -0.00195395763 -0.0107609566 -0.00593865531
v -0.000297574634 -0.0119620673 -0.00345226084
v -0.00295998002 -0.00975438247 -0.000193868941
v 0.000328483297 -0.01214594 -0.0027370057
v 0.00100662224 -0.0122443854 -0.00205125568
v -0.00117960671 -0.0106867665 -0.000146098907
v 0.00248610223 -0.0121804797 -0.000801162945
v 0.00213852542 -0.0121766858 -0.000902511285
v 0.00407274348 -0.0117720938 0.000238841124
v 0.0036946517 -0.0118269801 0.000176469323
v 0.00569262577 -0.0110367022 0.00101967322
v 0.00529396116 -0.0111531478 0.00100903137
v 0.00727090877 -0.0100072797 0.00150395726
v 0.00688626808 -0.0101186017 0.00161087421
v 0.00802058386 -0.0093970828 0.00162672545
v 0.0103915386 -0.00675028863 0.00138118044
v 0.0104872749 -0.00349964838 0.00217702136
v 0.0113278936 -0.00514689852 0.000792089911
v 0.0119570212 -0.00352748601 -8.34374671e-05
v 0.0112812315 -0.000348636292 2.85976954e-05
v 0.0122508377 -0.00196502542 -0.00120547566
v 0.0121957334 -0.000533258429 -0.00252113334
v 0.0107307514 0.00221133739 -0.00282018472
v 0.0119590935 0.000309663817 -0.00348773405
v 0.0114304596 0.00128488912 -0.00473795999
v 0.0098074802 0.00245221633 -0.00727318256
v 0.00724672889 0.00546767816 -0.00464103184
v 0.00918280477 0.00263410923 -0.00799112415
v 0.00850710497 0.00273045721 -0.00867864028
v 0.00709009331 0.00477557712 -0.00652186246
v 0.00703157658 0.00266303701 -0.00993254204
v 0.00723367034 0.00280309822 -0.00966942381
v 0.00544839155 0.00225152409 -0.010976054
v 0.00567151575 0.00246093219 -0.0107394351
v 0.00383016665 0.00151350419 -0.0117598167
v 0.00406499459 0.00179580802 -0.0115623526
v 0.00225397586 0.000482759822 -0.0122458586
v 0.00239772616 0.000834629565 -0.0120812441
v 0.0015045753 -0.00012846601 -0.012369368
v -0.0048957251 -0.00224699488 0.011095583
v -0.00437330405 0.0115147801 -0.000643447385
v -0.00895348795 0.00851644237 -0.00166941258
v -0.0104030012 -0.00216230661 0.00651019542
v -0.00303336089 -0.00103149238 0.0120422083
v -0.00186882377 -0.00351641162 0.0100045772
v -0.00201134101 -0.000299845063 0.0123013428
v 0.00042381466 -0.00237846479 0.0102631554
v -0.000454230087 0.00114228646 0.0124020462
v 0.00087773292 0.0116874239 0.00423247602
v -0.006491789 0.0105569298 -0.00129960377
v -0.004020222 0.00940482994 -0.00336380442
v -0.00751657065 0.00982536056 -0.00155753337
v -0.00569184632 0.0110386234 -0.00101722795
v -0.00314594951 0.0119254677 3.97146403e-05
v -0.00161269094 0.0121590248 0.00115726199
v -0.000212500301 0.0120581835 0.00245645916
v -0.000317524505 0.0121462197 0.00276576119
v 0.000990382381 0.0116275584 0.00387647385
v 0.00177390027 0.0110184692 0.00526863464
v 0.00428668215 0.00894268919 0.00337732329
v 0.00213047109 0.0104293423 0.00650669725
v 0.00246121986 0.0100347845 0.00674902877
v 0.00489587205 0.00787230515 0.00489573962
v 0.00259514636 0.00923221823 0.00798033558
v 0.00283414641 0.00880062915 0.00817632007
v 0.00518332651 0.00656818594 0.00632473447
v 0.0027128714 0.00782461137 0.00933048878
v 0.0028698294 0.00737695243 0.00947085107
v 0.00513172791 0.00509028202 0.00760645587
v 0.00247834733 0.00627282616 0.0104936995
v 0.00256549565 0.00583021126 0.0105741032
v 0.00474399687 0.00350141392 0.00868381715
v 0.00190390866 0.00465144425 0.0114144955
v 0.00193558355 0.00422947908 0.0114357747
v 0.00403799074 0.00186910161 0.00950741671
v 0.00113701634 0.00287879451 0.0119641937
v 0.00304455061 0.000264133545 0.0100401613
v 0.00031207339 0.00179346925 0.0122512141
v -0.00383416208 -0.00151360878 0.0117597151
v -0.00609380248 -0.00268538052 0.0103812933
v -0.00760227466 -0.00294351839 0.00923656687
v -0.0078045835 -0.00273443708 0.00932159581
v -0.00898103939 -0.00286441757 0.00791269177
v -0.0101655749 -0.00245231003 0.00647069328
v -0.011057284 -0.00173498776 0.00520040729
v -0.00946114874 -0.00376805861 0.00245889701
v -0.0116888765 -0.000870956767 0.0042729872
v -0.011743339 -0.000752811605 0.0037197052
v -0.0100903668 -0.00267778972 0.000962505981
v -0.0121535176 0.000326034707 0.0027998561
v -0.0121177253 0.000483220298 0.0022932605
v -0.0103903595 -0.00136084788 -0.000452436449
v -0.012269613 0.00173205136 0.00144784451
v -0.012154 0.00190700885 0.000999957976
v -0.0103496474 0.000127945113 -0.00172201868
v -0.0120320342 0.00328008249 0.000281104622
v -0.0118499935 0.00345625881 -0.00010357565
v -0.00997088328 0.00172627584 -0.00278901978
v -0.0114519855 0.00489786051 -0.000646099286
v -0.0112217655 0.00505541588 -0.000962779515
v -0.00926564642 0.00335868793 -0.0036117998
v -0.0104493117 0.00643445215 -0.00146162896
v -0.00826613262 0.00495736037 -0.00415134734
v -0.00966488344 0.00755545099 -0.00170466325
v -0.00308278305 0.00730848001 -0.00569436843
v -0.0013906224 0.00752393138 -0.0058614477
v 0.00066089636 -0.00488833711 0.00842477084
v -1.72835164e-05 -0.00611497482 0.00745032499
v -0.00445487669 0.00654694525 -0.00577546726
v 0.00171295362 -0.00380746408 0.00886631743
v 0.00339673766 -0.00619734898 0.00650548609
v -0.00571270974 0.00689132639 -0.00494213664
v -0.00239769225 0.00451254485 -0.00817262507
v 0.000890258904 -0.000200535963 -0.0122138515
v -0.000329891329 0.00979478661 -0.00285480749
v 0.000851865891 0.00650800765 -0.00705831907
v 0.00105854812 0.00357528731 -0.00981146748
v 0.00189439295 0.00860492236 -0.00390711096
v 0.00268477575 0.0044300898 -0.00912904843
v 0.00264245735 0.00985553481 -0.000274886198
v 0.00407806627 0.0072540898 -0.0048635394
v 0.00430498464 0.00497887429 -0.00817458098
v 0.00499082318 0.00790107935 -0.00197145435
v 0.0058470323 0.0052005662 -0.00698714932
v 0.00842137503 0.00450670427 -0.00465708233
v 0.00837237095 0.00497911654 -0.00263602879
v 0.00137966831 0.01133464 0.00499021184
v 0.0104417687 0.00208025493 -0.00662847711
v 0.00550533159 0.00794933877 0.00121126105
v 0.00937553286 0.00384744434 -0.00121993387
v 0.00831945295 0.0047312361 0.00114012059
v 0.00711107237 0.00550326461 0.00347150909
v 0.00999763203 0.00122909059 0.00165265215
v 0.00860367349 0.00189593007 0.00390843928
v 0.00705132689 0.00250363743 0.00607537566
v 0.00925577309 -0.00196655367 0.00382853903
v 0.00752481427 -0.00139193634 0.00586037714
v 0.00565033673 -0.00080804692 0.00776631706
v 0.00865720677 -0.00608665067 0.00333067702
v 0.00620797589 -0.00397118488 0.00632828474
v 0.00315888177 -0.00245349555 0.00894654505
v 0.00172601675 -0.00102800994 0.0104005252
v 0.00475482579 -0.00326446296 0.00761383496
v 0.00615381694 -0.00740971566 0.00430952607
v 0.0081541725 -0.00914975615 0.00178246134
v -0.00389019432 -0.00557450177 0.00761459354
v 0.00055709641 -0.00791674373 0.00546955461
v 0.00416782141 -0.00880137107 0.00391743373
v -0.00330288004 -0.00719628129 0.00549589797
v 0.00254131542 -0.00965626956 0.00323507471
v -0.00686252024 -0.00563555188 0.00503390357
v -0.00266888635 -0.00866340746 0.00327413591
v 0.000916554541 -0.010201201 0.00228483748
v -0.00541080125 -0.00748111848 0.00244502752
v -0.000631217429 -0.0104151301 0.00110617972
v -0.00127474152 -0.0114214013 -0.00342952372
v -0.00448003905 -0.00887125477 -0.00175313708
v -0.00137966912 -0.0113346754 -0.0049902283
v -0.00783201669 -0.00562291187 0.00141195046
v -0.00515409448 -0.00806871089 -0.00354115348
v -0.00691099751 -0.00613938971 -0.00272933567
v -0.00851864521 -0.00409560527 -0.00188430021
v -0.00577659839 -0.00545002072 -0.00641325634
v -0.00719555398 -0.00330390874 -0.00549651944
v -0.00845863823 -0.0010956184 -0.00448851066
v -0.00503386268 -0.00225526271 -0.00858982737
v -0.00611561018 -1.73816255e-05 -0.00744964368
v -0.00368279529 0.000236141655 -0.00942972878
v -0.00705689263 0.00221410336 -0.00618010358
v -0.00133210461 -3.47076068e-05 -0.0110304438
v -0.00170457965 0.00240921257 -0.00977215355
v -0.00450462577 0.00240224018 -0.00811010283
v -0.00554412644 0.00414131302 -0.0066098057
v -0.00687047296 0.00675712125 -0.0043057089
v 0.000933615722 0.00561246336 0.0110883173
v -0.00259050385 0.00466412898 0.00880423917
v -0.0040195339 0.00321653808 0.00915547259
v -0.00465386981 0.00276336885 0.00892337879
v -0.00195385769 0.00725429917 0.00707206945
v 0.00148610748 0.00703461131 0.0102878389
v -0.000794703751 0.00274188716 0.0121009577
v -0.00507696389 0.00251808946 0.00881471836
v -0.00884891561 -0.00143013659 0.00865893002
v -0.00638061113 0.00199995889 0.00780593002
v -0.00783022976 0.00228712124 0.00651309384
v -0.00867548695 0.00322345252 0.0050185313
v -0.0118096575 0.000531215058 0.00426326595
v -0.00858983431 0.00368797553 0.00450685699
v -0.0121610396 0.00269032115 0.00200583332
v -0.00605596821 0.00782244806 0.00293101918
v -0.00357640675 0.00872384016 0.00461842582
v -0.00314199254 0.00842312341 0.00498220032
v -0.0070260703 -0.00143542947 0.0102679342
v -0.00812287707 0.0054583446 0.00319461707
v -0.01119736 0.00565465619 0.000269719733
v -0.0104071502 0.00679002422 -1.16907366e-05
v -0.01083535 0.0060788216 0.000239364027
v -0.00823862011 0.0093222888 -0.000334065451
v -0.00970874222 0.00776265953 -0.000254793994
v -0.00362816171 0.0117881696 0.00156737529
v -0.0050193106 0.00323125562 -9.82097523e-05
v -0.00557750504 0.00203226226 0.000469914793
v -0.00576859471 0.000686566774 0.0014936995
v -0.00449012206 -0.000810296794 0.00395459014
v -0.00256663601 -0.000464218677 0.00535320413
v -0.00150969175 0.0001170349 0.00577508098
v 5.29574497e-05 0.0017084432 0.00574965528
v 0.000817028112 0.00395509725 0.00443499084
v 3.47823737e-05 0.00551527348 0.00235797617
v -0.00344924503 0.00490375446 -0.000189011891
v -0.00130226999 0.00142327249 0.00480075783
v -0.000400253129 0.00303773545 0.00416906572
v -0.000721179488 0.0043299356 0.0027387033
v -0.00185053565 0.00511646559 0.00103991503
v -0.00317558895 0.00399281524 0.000861341253
v -0.00454476026 0.00219610927 0.00124043126
v -0.00425441555 0.000645609683 0.00287263783
v -0.00289855379 0.000432556856 0.0042638213
v 0.00119300255 -0.00157425612 -0.0047637626
v -8.92697155e-05 -0.00284559626 -0.00477345679
v 0.000458418918 -0.00295843464 -0.00418783057
v 0.000432951114 -0.00388745902 -0.00338664466
v 0.00142471134 -0.00461048752 -0.00186614139
v 0.00303916905 -0.00409021597 -0.000895933778
v 0.0043306555 -0.00263117978 -0.0010444058
v 0.00454263962 -0.00108820406 -0.00222467759
v 0.00374844523 -0.00042597947 -0.0035161051
v 0.00248712464 -0.000577634729 -0.00449989889
v -0.000859179901 -0.00416415678 -0.00428700018
v 0.000656847569 -0.000823183073 -0.00590509526
v 0.00218886097 0.000286442219 -0.0055304848
v 0.00435728507 -0.00416596928 0.000339960791
v 0.00209720679 -0.00557428355 -0.000415209346
v 0.00037710761 -0.00570029153 -0.00182876701
v 0.00360119684 0.000796279639 -0.00473040085
v 0.00511668717 0.000414659155 -0.0030481981
v 0.00578595437 -0.000847582004 -0.00133559167
v 0.00543969829 -0.00240887982 -0.000258215547
v -0.0103600407 0.00714078378 -0.00125666032
v -0.0121943299 0.00322693695 0.000659382506
v -0.0123297576 0.00115082878 0.00224148405
v -0.0120437745 -0.000147837223 0.00364660394
v 0.00128105242 0.00402614734 0.0119323113
v 0.00231337885 0.00665472064 0.0104839654
v 0.00254434307 0.00863454956 0.0087945379
v 0.00225835998 0.00993321556 0.0073892988
v 0.00163799484 0.010996324 0.00589667928
v -0.0116522337 0.00454738572 0.000848402644
v -0.0119602446 0.00343561419 0.00156376806
v -0.012170233 0.00166729924 0.00287410198
v -0.0110450097 -0.000767353727 0.00605273698
v -0.00895644817 -0.00164107008 0.00870565096
v -0.00607784711 -0.0013509157 0.0109748025
v 0.00107682008 0.00555138752 0.0112231139
v 0.00157479296 0.00808438029 0.00944516994
v 0.00166622791 0.00881918841 0.00884175299
v 0.00145455756 0.00935054617 0.00821580811
v 0.00137343165 0.01000967 0.00752661171
v 0.00102073507 0.0104267117 0.00687692993
v 0.000772584095 0.010976146 0.00613677701
v 0.000297022705 0.0112414924 0.00551691108
v 0.00044499804 0.0115084141 0.00527046789
v -0.000968693272 0.0119160102 0.00379042162
v -0.00178521912 0.0120938839 0.00288342607
v -0.00279867596 0.0121659056 0.00187492496
v -0.00430944321 0.011748032 0.000969746999
v -0.00543022311 0.0112876328 0.000393496946
v -0.00654572078 0.0106977458 -7.43904272e-05
v -0.00319815079 0.000195018986 0.0121833342
v -0.00650141421 0.0108859748 -0.000355853757
v -0.00923129203 0.00851046785 -0.000540716538
v -0.00854128003 0.00927341897 -0.00063922679
v -0.00828913814 0.00957293854 -0.00099789416
v -0.00789076278 0.00988875689 -0.00119769219
v -0.00883716385 0.00883720535 -0.00147701132
v -0.00159841816 0.00159834045 0.0123553194
v -0.00241070697 0.000543629621 0.0124416127
v -0.00194059282 0.000658308831 0.012535805
v -0.0014463755 0.000790687311 0.0125604959
v -0.000301052811 0.00160973006 0.0125032944
v 0.00207608898 0.00558112281 0.0110865749
v -0.0118613843 0.00420425552 -5.06721743e-05
v -0.00813001435 0.00949798244 -0.00143600333
v -0.00565978279 0.0113908507 -0.000268462161
v -0.00738495629 0.0101048769 -0.00131345618
v -0.00661069195 0.0106507363 -0.00111080039
v -0.00418495511 0.0119161536 0.000777645833
v -0.00545218907 0.0113922253 -0.000568948652
v -0.00256552858 0.0123551691 0.0016204649
v -0.00317324315 0.0122743587 0.00086961391
v -0.00420421402 0.0118614258 -5.06721743e-05
v -0.00340563099 0.012106997 0.000439635634
v -0.000823576879 0.0121788358 0.00347096156
v -0.00295812147 0.0122043283 0.000693425451
v -0.00186997693 0.0123425545 0.00159250867
v -0.000257079417 0.0121835771 0.00351278449
v -0.00150000998 0.012380006 0.00197978469
v -0.000475585866 0.0122297825 0.00292884481
v 0.000872682012 0.0116222904 0.00499968839
v 0.000712215495 0.0117739262 0.00438629758
v 0.00172748386 0.0102483522 0.00730271103
v 0.00169769908 0.0107535016 0.00650583936
v 0.00202991011 0.00883932972 0.00889454805
v 0.00178152764 0.00703200099 0.0104057028
v 0.0023650436 0.00910155814 0.00846601001
v 0.00195508649 0.0064271732 0.0107879615
v 0.00240776403 0.00768158774 0.00976203402
v 0.00092557614 0.0043443061 0.0119011624
v 0.00036662762 0.0039295068 0.0119962439
v 0.000330997326 0.00411335478 0.0118535279
v 0.00045077551 0.00294702171 0.0123529413
v -0.000326688227 0.00234604668 0.0124647315
v -0.000553341768 0.00258308411 0.0123505688
v -0.00160122637 6.12502338e-05 0.0123936433
v -0.00519676939 -0.00126000816 0.0115090435
v -0.00429701064 -0.00109062011 0.0119103866
v -0.00291727061 -0.000410126208 0.0123208965
v -0.00240045826 -0.0003194986 0.0123493589
v -0.00370041851 -0.00110230632 0.012028378
v -0.00520494545 -0.0019433474 0.0113016934
v -0.00837548112 -0.00191412898 0.00933209296
v -0.00767215197 -0.00211755547 0.00992525774
v -0.00686864076 -0.00223241211 0.0104556705
v -0.00637966435 -0.00232161862 0.0105962671
v -0.00678781957 -0.00245791145 0.0102987146
v -0.00791543763 -0.00255717617 0.00944351327
v -0.0106349832 -0.00137251823 0.00678704865
v -0.0101118705 -0.00188935301 0.00746277531
v -0.00893866902 -0.00240128643 0.00862490266
v -0.00930982869 -0.00244440419 0.00810705793
v -0.00969019082 -0.002323505 0.00775492863
v -0.01049763 -0.00198854786 0.00664960515
v -0.0120653283 0.000441964124 0.00390963304
v -0.0118744389 -0.000329545094 0.00451677035
v -0.0112614674 -0.00124883053 0.00566600021
v -0.0109758687 -0.00169417415 0.00585842905
v -0.0117119626 -0.00080431602 0.00466222628
v -0.0123610272 0.00250504701 0.00166898724
v -0.0123190174 0.000852011126 0.00276042265
v -0.0118009794 0.00464936417 0.000413686141
v -0.0123612307 0.00227164649 0.00146377783
v -0.0117216115 0.00484036329 -0.000149434887
v -0.0109556167 0.0063773777 -0.000534007572
v -0.010903566 0.00641367935 -0.000300803199
v -0.0105455522 0.00681994575 -0.000207909227
v -0.0100422506 0.0075340094 -0.000394710184
v -0.0104924194 0.00709490406 -0.00102777575
v -0.00990081622 0.0078795738 -0.000930802999
v -0.00987380121 0.00788320178 -0.000690749867
v 0.00171206721 -0.000379809202 -0.0125107038
v 0.00100859715 -0.00103948022 -0.0125497807
v 0.00245291937 0.000225212911 -0.0123905876
v 0.00322326541 0.000770342115 -0.0121906742
v 0.00399312369 0.00122608803 -0.0119241955
v 0.0047778942 0.00163326906 -0.0115804056
v 0.0055810975 0.00196444295 -0.0111621663
v 0.00637747733 0.00221490556 -0.0106782452
v 0.00715659813 0.00238111991 -0.0101349538
v 0.00791014479 0.00246155119 -0.00953803002
v 0.00862858895 0.00245499664 -0.00889516316
v 0.0093045241 0.00236151667 -0.00821308506
v 0.00992895641 0.00218239047 -0.00750062391
v 0.0109839056 0.00168224389 -0.00585483229
v 0.0114391244 0.00114832032 -0.00523414252
v 0.0117966858 0.000641336498 -0.00447462986
v 0.0120671248 8.10921875e-05 -0.00373777944
v 0.0122543195 -0.000538678015 -0.00302237929
v 0.0123558511 -0.00120992069 -0.00233689137
v 0.0123705907 -0.00192437572 -0.00168992453
v 0.0122983379 -0.00267586282 -0.00108837631
v 0.0121400051 -0.00345270538 -0.000539441848
v 0.0118972188 -0.00424841058 -4.98842225e-05
v 0.0115732514 -0.00505078914 0.000375075506
v 0.0111713995 -0.00585312222 0.000730023413
v 0.0106969698 -0.00664436286 0.00101055608
v 0.0101547265 -0.00741642764 0.00121411312
v 0.00946774003 -0.00808302227 0.00152042124
v 0.00889502306 -0.0088636753 0.0013808113
v 0.00819146216 -0.00952346565 0.00134153923
v 0.00745058605 -0.0101286632 0.00122160726
v 0.00668000462 -0.0106736483 0.00102160115
v 0.00591867854 -0.0111375984 0.000746062649
v 0.00512755445 -0.0115388518 0.000408695964
v 0.00432432404 -0.0118703108 -9.57704049e-06
v 0.00352817749 -0.0121205983 -0.000493036136
v 0.00274894116 -0.0122869789 -0.00103649515
v 0.00199575566 -0.0123673894 -0.00163352901
v 0.00127698113 -0.0123608642 -0.00227676169
v 0.00060150413 -0.0122674212 -0.00295806821
v -2.33284143e-05 -0.0120881537 -0.00367111926
v -0.000714677468 -0.0117849929 -0.00426636484
v -0.00104577098 -0.0115829366 -0.00473268409
v -0.0015423374 -0.0110398814 -0.00594445556
v -0.00189315402 -0.0105448768 -0.00669439911
v -0.00216376088 -0.00998429215 -0.00743147699
v -0.00235083808 -0.00936477322 -0.00814673281
v -0.00245259794 -0.00869357041 -0.00883167852
v -0.00246739467 -0.00797822499 -0.00947898531
v -0.00239509343 -0.00722756373 -0.0100805508
v -0.00223697975 -0.00645046015 -0.0106291232
v -0.00199376067 -0.00565535853 -0.0111191816
v -0.00167014858 -0.00485221385 -0.011543731
v -0.00126821022 -0.00405012584 -0.0118987634
v -0.000793602823 -0.00325883378 -0.0121796799
v -0.000251637874 -0.00248756083 -0.0123831646
v 0.000210546236 -0.00159801035 -0.0124371394
v 0.000564482776 -0.00188501226 -0.0125292423
v -0.000919360703 -0.0114601415 -0.00535479564
v -0.0004317485 -0.0118047753 -0.00461682132
v 0.00957042458 -0.00824925425 0.00109957198
v 0.0110537865 0.0013259469 -0.00607526108
v 0.0105664311 0.00167015269 -0.00681283613
v 0.000173942208 -0.00274335301 -0.0123746295
v -0.000351665367 -0.00348576464 -0.0121825345
v -0.000812792782 -0.00424748187 -0.0119158804
v -0.0012037861 -0.00501974951 -0.0115776682
v -0.00151999275 -0.00579357377 -0.0111719975
v -0.00175793252 -0.00656011005 -0.0107034066
v -0.00191524945 -0.007310471 -0.0101773801
v -0.00198921015 -0.00803493067 -0.00960067105
v -0.00197958825 -0.00872599473 -0.00897925803
v -0.00188625344 -0.009375472 -0.008320649
v -0.00171021007 -0.00997478316 -0.00763325275
v -0.00145394629 -0.0105188834 -0.00692308843
v -0.00112010883 -0.0109989039 -0.00620153825
v 0.0003038057 -0.0120107592 -0.00404210074
v 0.000900259794 -0.0121916799 -0.00335285098
v 0.00154608831 -0.0122899044 -0.00269349745
v 0.00223588238 -0.0123050539 -0.00206780898
v 0.00295795288 -0.0122360834 -0.00148903537
v 0.00370730614 -0.0120841783 -0.000958810415
v 0.00447235956 -0.0118511447 -0.000487050192
v 0.00524682822 -0.0115392686 -7.69522216e-05
v 0.00601901629 -0.0111530363 0.000264824874
v 0.00678213288 -0.0106960014 0.00053650449
v 0.00752503929 -0.010174684 0.000732917894
v 0.00824135455 -0.00959383683 0.000853026135
v 0.0089211782 -0.00896108714 0.00089474289
v 0.010140501 -0.00757022074 0.000742461409
v 0.0106652812 -0.0068290601 0.000550282029
v 0.0111270181 -0.00606614216 0.000283550232
v 0.0115174185 -0.00529471687 -5.43072971e-05
v 0.0118342637 -0.00451981621 -0.000460118628
v 0.0120720695 -0.00375380866 -0.000928699538
v 0.0122289879 -0.00300417321 -0.00145460018
v 0.0123030936 -0.00227922516 -0.0020314702
v 0.0122934482 -0.0015875398 -0.00265314165
v 0.0122001658 -0.000938893064 -0.00331123538
v 0.0120242752 -0.000338573233 -0.00399901459
v 0.0117676523 0.000205156581 -0.00470856025
v 0.0114339556 0.000684204676 -0.00542989676
v 0.0100104933 0.00169642047 -0.00758950335
v 0.00941381758 0.00187748739 -0.00827906323
v 0.00876727735 0.00197617671 -0.0089397413
v 0.00807878172 0.00199106816 -0.0095633259
v 0.00735517034 0.00192237228 -0.0101437831
v 0.00660729877 0.00177040092 -0.0106723182
v 0.00584068737 0.00153722765 -0.0111451191
v 0.00506746002 0.00122559555 -0.0115545456
v 0.00429455086 0.000838927349 -0.0118971599
v 0.0035323844 0.000382295641 -0.0121681623
v 0.00278841318 -0.000139627136 -0.012364983
v 0.00207267082 -0.00072021197 -0.0124849528
v 0.00139375117 -0.00135240481 -0.0125265778
v 0.000961637212 -0.00213669174 -0.012396204
v -0.000523069022 -0.0112975276 -0.00558992711
v -6.2068165e-05 -0.0116312464 -0.00488530508
v 0.00947884706 -0.00830188909 0.000622624825
v 0.0109628691 0.000858098488 -0.00618357143
v 0.0105021278 0.00119134976 -0.00688776916
v 0.000429331851 -0.00293757302 -0.0122045361
v -7.39697692e-05 -0.00365151745 -0.0120177351
v -0.000515044141 -0.00438417775 -0.0117591702
v -0.000888646054 -0.00512673241 -0.0114320599
v -0.00119048398 -0.00587059838 -0.0110400997
v -0.00133240071 -0.00649326245 -0.0106400188
v -0.00155061322 -0.00759235216 -0.00986084535
v -0.0015733512 -0.00857366693 -0.00900902271
v -0.00153011124 -0.00930907112 -0.00829244483
v -0.00135868828 -0.00988401753 -0.00763059485
v -0.00110977929 -0.0104043661 -0.0069484793
v -0.000786483693 -0.0108642755 -0.00625408518
v 0.000587641788 -0.0118302284 -0.0041792475
v 0.00116246898 -0.0120017706 -0.00351727831
v 0.00178521831 -0.0120939193 -0.00288344252
v 0.00237194404 -0.012071285 -0.00240944961
v 0.00343850498 -0.0119586901 -0.00156550587
v 0.00450002923 -0.0116671183 -0.00088081732
v 0.0052016173 -0.0113898146 -0.000509061507
v 0.00682002265 -0.0105455099 0.000207892775
v 0.00753396709 -0.0100422083 0.000394812941
v 0.00822108943 -0.00948263985 0.000507704138
v 0.00887316425 -0.00887312275 0.000545612692
v 0.0100422498 -0.0075340448 0.000394812941
v 0.0105455514 -0.00681998116 0.000207892775
v 0.0109866257 -0.00608744007 -5.06721743e-05
v 0.0113602277 -0.0053447662 -0.000377782465
v 0.0116620656 -0.00460090023 -0.000769742609
v 0.0118885632 -0.00386454445 -0.00122190344
v 0.0120369788 -0.00314416272 -0.00172890055
v 0.0121057626 -0.00244833809 -0.00228501189
v 0.0120939608 -0.00178517681 -0.00288344252
v 0.0120016928 -0.0011625467 -0.00351727831
v 0.0118301507 -0.000587600292 -0.0041792475
v 0.0115901771 -0.000187570607 -0.00477291582
v 0.0112580653 0.000392657696 -0.00555563796
v 0.00988393981 0.00135861057 -0.00763059485
v 0.00930899341 0.00153015274 -0.00829244483
v 0.00876994292 0.00155751778 -0.00882093501
v 0.00775527321 0.00156686176 -0.00973076252
v 0.00660699565 0.00141702312 -0.0105879389
v 0.00587063987 0.00119052547 -0.0110400997
v 0.00525273553 0.00088989513 -0.0113475398
v 0.00455275147 0.000540659883 -0.0116629858
v 0.0029374953 -0.000429290355 -0.0122045361
v 0.00225049217 -0.00098897797 -0.0123175465
v 0.00159841735 -0.00159837586 -0.0123553358
f 1 2 3
f 3 2 4
f 3 4 5
f 5 4 6
f 5 6 7
f 7 6 8
f 7 8 9
f 9 8 10
f 9 10 11
f 11 10 12
f 11 12 13
f 13 12 14
f 13 14 15
f 15 14 16
f 15 16 17
f 17 16 18
f 17 18 19
f 19 18 20
f 19 20 21
f 21 20 22
f 21 22 23
f 23 22 24
f 23 24 25
f 25 24 26
f 25 26 27
f 27 26 28
f 27 28 29
f 29 28 30
f 29 30 31
f 31 30 32
f 31 32 33
f 33 32 34
f 33 34 35
f 35 34 36
f 35 36 37
f 37 36 38
f 37 38 39
f 39 38 40
f 39 40 41
f 41 40 42
f 41 42 43
f 43 42 44
f 43 44 45
f 45 44 46
f 45 46 47
f 47 46 48
f 47 48 1
f 1 48 2
f 28 26 49
f 49 26 24
f 49 24 22
f 34 32 49
f 49 32 30
f 49 30 28
f 40 38 49
f 49 38 36
f 49 36 34
f 46 44 49
f 49 44 42
f 49 42 40
f 4 2 49
f 49 2 48
f 49 48 46
f 10 8 49
f 49 8 6
f 49 6 4
f 16 14 49
f 49 14 12
f 49 12 10
f 22 20 49
f 49 20 18
f 49 18 16
f 21 23 50
f 50 23 25
f 50 25 27
f 15 17 50
f 50 17 19
f 50 19 21
f 9 11 50
f 50 11 13
f 50 13 15
f 3 5 50
f 50 5 7
f 50 7 9
f 45 47 50
f 50 47 1
f 50 1 3
f 39 41 50
f 50 41 43
f 50 43 45
f 33 35 50
f 50 35 37
f 50 37 39
f 27 29 50
f 50 29 31
f 50 31 33
f 67 58 51
f 51 58 59
f 65 52 75
f 599 598 64
f 64 598 66
f 67 68 561
f 68 562 561
f 68 69 563
f 68 563 562
f 61 70 60
f 60 70 69
f 65 74 63
f 63 74 73
f 66 595 57
f 57 595 594
f 574 573 72
f 72 573 572
f 72 572 71
f 71 572 571
f 136 138 126
f 139 379 140
f 140 382 141
f 141 142 143
f 130 164 125
f 165 410 166
f 166 167 168
f 168 416 169
f 135 138 136
f 190 136 191
f 129 164 130
f 192 130 193
f 137 135 136
f 131 129 130
f 197 137 136
f 197 136 194
f 194 136 190
f 190 191 198
f 132 131 130
f 132 130 195
f 195 130 192
f 192 193 196
f 127 137 259
f 259 137 197
f 194 190 198
f 399 131 132
f 195 192 196
f 197 194 198
f 126 139 200
f 126 200 136
f 136 200 191
f 191 201 198
f 198 201 202
f 198 202 256
f 256 202 123
f 256 123 199
f 199 123 122
f 199 122 124
f 139 140 200
f 200 203 191
f 191 203 201
f 201 204 202
f 202 204 121
f 202 121 120
f 202 120 123
f 140 141 205
f 140 205 200
f 200 205 203
f 203 206 201
f 201 206 207
f 201 207 204
f 204 207 119
f 204 119 118
f 204 118 121
f 141 143 205
f 205 208 203
f 203 208 206
f 206 209 207
f 207 209 117
f 207 117 116
f 207 116 119
f 143 214 205
f 205 214 208
f 208 112 206
f 206 112 115
f 206 115 209
f 209 115 114
f 209 114 117
f 115 113 114
f 214 211 208
f 208 211 210
f 208 210 112
f 115 112 111
f 115 111 113
f 112 210 213
f 112 213 111
f 108 110 211
f 108 211 215
f 145 214 144
f 144 214 143
f 144 143 212
f 212 143 134
f 110 448 211
f 211 448 213
f 211 213 210
f 216 215 211
f 216 211 214
f 109 110 108
f 217 216 214
f 217 214 148
f 148 214 145
f 148 145 147
f 147 145 146
f 146 145 144
f 107 109 108
f 105 107 108
f 105 108 218
f 218 108 215
f 218 215 216
f 151 217 148
f 151 148 150
f 150 148 149
f 149 148 147
f 106 107 105
f 219 218 216
f 219 216 217
f 220 219 217
f 220 217 154
f 154 217 151
f 154 151 153
f 153 151 152
f 152 151 150
f 104 106 105
f 102 104 105
f 102 105 221
f 221 105 218
f 221 218 219
f 157 220 154
f 157 154 156
f 156 154 155
f 155 154 153
f 103 104 102
f 222 221 219
f 222 219 220
f 223 222 220
f 223 220 160
f 160 220 157
f 160 157 159
f 159 157 158
f 158 157 156
f 101 103 102
f 224 101 102
f 224 102 225
f 225 102 221
f 225 221 222
f 162 223 160
f 162 160 161
f 161 160 159
f 462 101 224
f 228 225 222
f 228 222 223
f 162 161 163
f 226 228 223
f 226 223 227
f 227 223 162
f 227 162 163
f 163 133 227
f 225 229 224
f 224 229 462
f 462 229 230
f 133 399 227
f 227 399 226
f 226 399 132
f 226 132 228
f 228 132 195
f 228 195 225
f 225 195 196
f 225 196 229
f 125 165 231
f 125 231 130
f 130 231 193
f 193 232 196
f 196 232 233
f 196 233 229
f 229 233 99
f 229 99 230
f 230 99 98
f 230 98 100
f 165 166 231
f 231 234 193
f 193 234 232
f 232 235 233
f 233 235 97
f 233 97 96
f 233 96 99
f 166 168 236
f 166 236 231
f 231 236 234
f 234 237 232
f 232 237 238
f 232 238 235
f 235 238 95
f 235 95 94
f 235 94 97
f 168 169 236
f 236 239 234
f 234 239 237
f 237 240 238
f 238 240 93
f 238 93 92
f 238 92 95
f 169 244 236
f 236 244 239
f 239 88 237
f 237 88 91
f 237 91 240
f 240 91 90
f 240 90 93
f 91 89 90
f 244 242 239
f 239 242 241
f 239 241 88
f 91 88 87
f 91 87 89
f 88 241 476
f 88 476 87
f 84 86 242
f 84 242 245
f 171 244 170
f 170 244 169
f 170 169 421
f 421 169 128
f 86 243 242
f 242 243 241
f 241 477 476
f 246 245 242
f 246 242 244
f 85 86 84
f 247 246 244
f 247 244 174
f 174 244 171
f 174 171 173
f 173 171 172
f 172 171 170
f 83 85 84
f 81 83 84
f 81 84 248
f 248 84 245
f 248 245 246
f 177 247 174
f 177 174 176
f 176 174 175
f 175 174 173
f 82 83 81
f 249 248 246
f 249 246 247
f 250 249 247
f 250 247 180
f 180 247 177
f 180 177 179
f 179 177 178
f 178 177 176
f 80 82 81
f 78 80 81
f 78 81 251
f 251 81 248
f 251 248 249
f 183 250 180
f 183 180 182
f 182 180 181
f 181 180 179
f 79 80 78
f 252 251 249
f 252 249 250
f 254 252 250
f 254 250 186
f 186 250 183
f 186 183 185
f 185 183 184
f 184 183 182
f 77 79 78
f 76 77 78
f 76 78 253
f 253 78 251
f 253 251 252
f 188 254 186
f 188 186 187
f 187 186 185
f 491 77 76
f 257 253 252
f 257 252 254
f 188 187 189
f 255 491 76
f 255 76 256
f 256 76 253
f 256 253 257
f 258 257 254
f 258 254 259
f 259 254 188
f 259 188 189
f 189 127 259
f 258 259 197
f 258 197 257
f 257 197 198
f 257 198 256
f 255 256 199
f 255 199 491
f 264 342 343
f 264 343 344
f 264 340 341
f 264 341 342
f 261 260 264
f 264 260 265
f 264 265 340
f 262 266 261
f 261 266 395
f 261 395 260
f 270 268 269
f 275 353 283
f 277 348 276
f 344 345 264
f 264 345 346
f 264 346 277
f 277 346 348
f 278 267 269
f 269 268 278
f 279 281 282
f 279 282 280
f 275 283 284
f 275 284 279
f 279 284 281
f 275 352 353
f 280 333 279
f 279 333 334
f 279 334 273
f 273 334 274
f 276 285 275
f 275 285 351
f 275 351 352
f 295 275 286
f 286 275 279
f 286 279 287
f 287 279 288
f 288 279 273
f 288 273 271
f 288 271 289
f 289 271 270
f 289 270 269
f 289 269 290
f 290 269 267
f 290 267 291
f 291 267 263
f 291 263 262
f 291 262 292
f 292 262 261
f 292 261 293
f 293 261 264
f 293 264 294
f 294 264 277
f 294 277 299
f 299 277 276
f 299 276 275
f 299 275 295
f 296 291 292
f 296 292 297
f 297 292 293
f 297 293 298
f 298 293 294
f 298 294 299
f 300 299 295
f 300 295 301
f 301 295 286
f 301 286 287
f 287 288 301
f 301 288 302
f 302 288 289
f 302 289 303
f 303 289 290
f 303 290 296
f 296 290 291
f 304 300 301
f 304 301 305
f 305 301 306
f 306 301 307
f 307 301 302
f 307 302 308
f 308 302 303
f 308 303 309
f 309 303 296
f 309 296 310
f 310 296 297
f 310 297 311
f 311 297 298
f 311 298 312
f 312 298 299
f 312 299 313
f 313 299 300
f 313 300 304
f 307 314 306
f 306 314 305
f 304 305 315
f 304 315 313
f 313 315 316
f 309 317 318
f 309 318 308
f 308 318 319
f 308 319 307
f 307 319 314
f 316 320 313
f 313 320 312
f 312 320 321
f 312 321 311
f 311 321 322
f 311 322 310
f 310 322 323
f 310 323 317
f 310 317 309
f 59 315 51
f 51 315 305
f 51 305 67
f 67 305 314
f 67 314 68
f 68 314 69
f 69 314 60
f 60 314 319
f 60 319 61
f 61 319 62
f 62 319 71
f 71 319 318
f 71 318 72
f 72 318 317
f 72 317 73
f 73 317 63
f 63 317 65
f 65 317 52
f 52 317 323
f 52 323 322
f 52 322 53
f 53 322 54
f 54 322 55
f 55 322 321
f 55 321 56
f 56 321 320
f 56 320 57
f 57 320 66
f 66 320 64
f 64 320 316
f 64 316 315
f 64 315 59
f 189 187 324
f 182 181 325
f 181 179 325
f 179 178 426
f 178 176 326
f 176 175 424
f 175 173 327
f 173 172 422
f 172 170 422
f 163 161 328
f 156 155 329
f 155 153 329
f 153 152 392
f 152 150 330
f 150 149 390
f 149 147 331
f 147 146 387
f 146 144 332
f 335 273 274
f 272 271 273
f 336 271 272
f 336 270 271
f 337 268 270
f 338 267 278
f 349 276 348
f 350 285 276
f 263 267 354
f 283 353 357
f 357 353 355
f 262 263 354
f 357 355 358
f 356 283 357
f 361 262 354
f 361 354 362
f 368 137 127
f 353 352 355
f 355 369 358
f 358 369 359
f 359 368 360
f 360 368 127
f 352 351 355
f 359 370 368
f 368 370 137
f 371 135 137
f 351 372 355
f 355 372 369
f 369 373 359
f 359 373 371
f 359 371 370
f 370 371 137
f 373 138 135
f 285 350 351
f 351 350 372
f 371 373 135
f 373 126 138
f 372 350 374
f 372 374 369
f 369 374 375
f 369 375 373
f 376 139 126
f 276 349 350
f 375 376 373
f 373 376 126
f 377 379 139
f 349 348 378
f 349 378 350
f 350 378 374
f 375 377 376
f 376 377 139
f 375 379 377
f 380 382 140
f 346 347 348
f 348 347 378
f 378 381 374
f 374 381 382
f 374 382 375
f 375 382 380
f 375 380 379
f 379 380 140
f 383 142 141
f 346 345 347
f 347 384 378
f 378 384 381
f 381 383 382
f 382 383 141
f 381 143 142
f 383 381 142
f 385 134 143
f 344 343 386
f 344 386 345
f 345 386 387
f 345 387 347
f 347 387 384
f 384 385 381
f 381 385 143
f 144 212 384
f 384 212 134
f 385 384 134
f 342 341 388
f 342 388 343
f 343 388 386
f 387 332 384
f 384 332 144
f 332 387 146
f 340 265 389
f 340 389 341
f 341 389 388
f 388 390 386
f 386 390 331
f 386 331 387
f 387 331 147
f 331 390 149
f 260 339 265
f 265 339 389
f 389 391 388
f 388 391 392
f 388 392 390
f 390 392 330
f 390 330 150
f 330 392 152
f 339 393 389
f 389 393 391
f 391 329 392
f 392 329 153
f 393 328 391
f 391 328 366
f 391 366 329
f 329 366 156
f 161 159 328
f 396 328 393
f 394 393 395
f 395 393 339
f 395 339 260
f 328 159 158
f 328 158 366
f 366 158 156
f 365 163 328
f 365 328 396
f 397 396 393
f 397 393 398
f 398 393 394
f 394 395 266
f 133 163 365
f 398 394 266
f 364 365 396
f 364 396 363
f 363 396 397
f 363 397 362
f 362 397 398
f 362 398 361
f 361 398 262
f 262 398 266
f 267 338 354
f 354 338 400
f 354 400 362
f 362 400 401
f 362 401 363
f 363 401 402
f 363 402 364
f 364 402 399
f 364 399 365
f 365 399 133
f 402 403 399
f 399 403 131
f 404 129 131
f 401 404 402
f 402 404 403
f 403 404 131
f 404 164 129
f 405 125 164
f 268 337 278
f 278 337 406
f 278 406 338
f 338 406 407
f 338 407 400
f 400 407 408
f 400 408 401
f 401 408 405
f 401 405 404
f 404 405 164
f 405 165 125
f 409 410 165
f 408 409 405
f 405 409 165
f 408 410 409
f 411 167 166
f 270 336 337
f 337 336 412
f 337 412 406
f 406 412 413
f 406 413 407
f 407 413 414
f 407 414 408
f 408 414 411
f 408 411 410
f 410 411 166
f 414 168 167
f 411 414 167
f 415 416 168
f 413 416 414
f 414 416 415
f 414 415 168
f 417 128 169
f 272 418 336
f 336 418 419
f 336 419 412
f 412 419 420
f 412 420 413
f 413 420 417
f 413 417 416
f 416 417 169
f 420 421 417
f 417 421 128
f 273 335 272
f 272 335 418
f 419 422 420
f 420 422 421
f 421 422 170
f 335 274 423
f 335 423 418
f 418 423 424
f 418 424 419
f 419 424 327
f 419 327 422
f 422 327 173
f 327 424 175
f 334 333 425
f 334 425 274
f 274 425 423
f 423 426 424
f 424 426 326
f 424 326 176
f 333 280 425
f 326 426 178
f 425 427 423
f 423 427 325
f 423 325 426
f 426 325 179
f 427 367 325
f 325 367 182
f 187 185 324
f 324 185 427
f 324 427 432
f 432 427 428
f 428 427 425
f 428 425 429
f 429 425 280
f 427 185 184
f 427 184 367
f 367 184 182
f 430 429 280
f 430 280 281
f 281 280 282
f 433 432 428
f 433 428 434
f 434 428 429
f 434 429 431
f 431 429 430
f 431 430 284
f 284 430 281
f 127 189 324
f 356 434 431
f 356 431 284
f 360 127 324
f 360 324 359
f 359 324 432
f 359 432 358
f 358 432 433
f 358 433 357
f 357 433 434
f 357 434 356
f 283 356 284
f 124 435 436
f 435 124 122
f 435 122 437
f 437 122 123
f 437 123 438
f 438 123 120
f 438 120 439
f 439 120 440
f 120 121 440
f 440 121 441
f 121 118 441
f 441 118 442
f 118 119 442
f 442 119 443
f 119 116 443
f 443 116 444
f 116 117 444
f 444 117 445
f 117 114 445
f 445 114 446
f 114 113 446
f 446 113 447
f 113 111 447
f 447 111 213
f 449 448 110
f 449 110 450
f 450 110 109
f 450 109 451
f 451 109 107
f 451 107 452
f 452 107 453
f 453 107 106
f 453 106 454
f 454 106 455
f 455 106 104
f 455 104 456
f 456 104 457
f 457 104 103
f 457 103 458
f 458 103 459
f 459 103 101
f 459 101 460
f 460 101 461
f 461 101 462
f 462 230 463
f 463 230 100
f 463 100 464
f 464 100 98
f 464 98 465
f 465 98 99
f 465 99 466
f 466 99 96
f 466 96 467
f 467 96 468
f 96 97 468
f 468 97 469
f 97 94 469
f 469 94 470
f 94 95 470
f 470 95 471
f 95 92 471
f 471 92 472
f 92 93 472
f 472 93 473
f 93 90 473
f 473 90 474
f 90 89 474
f 474 89 475
f 89 87 475
f 475 87 476
f 241 243 477
f 477 243 86
f 477 86 478
f 478 86 479
f 479 86 85
f 479 85 480
f 480 85 83
f 480 83 481
f 481 83 482
f 482 83 82
f 482 82 483
f 483 82 484
f 484 82 80
f 484 80 485
f 485 80 486
f 486 80 79
f 486 79 487
f 487 79 488
f 488 79 77
f 488 77 489
f 489 77 490
f 490 77 491
f 436 491 199
f 436 199 124
f 436 492 491
f 491 492 490
f 478 493 477
f 477 493 494
f 477 494 476
f 476 494 475
f 463 495 462
f 462 495 461
f 449 496 448
f 448 496 497
f 448 497 213
f 213 497 447
f 492 498 490
f 490 498 499
f 490 499 489
f 489 499 500
f 489 500 488
f 488 500 501
f 488 501 487
f 487 501 502
f 487 502 486
f 486 502 503
f 486 503 485
f 485 503 504
f 485 504 484
f 484 504 505
f 484 505 483
f 483 505 506
f 483 506 482
f 482 506 507
f 482 507 481
f 481 507 508
f 481 508 480
f 480 508 509
f 480 509 479
f 479 509 510
f 479 510 478
f 478 510 493
f 494 511 475
f 475 511 512
f 475 512 474
f 474 512 513
f 474 513 473
f 473 513 514
f 473 514 472
f 472 514 515
f 472 515 471
f 471 515 516
f 471 516 470
f 470 516 517
f 470 517 469
f 469 517 518
f 469 518 468
f 468 518 519
f 468 519 467
f 467 519 520
f 467 520 466
f 466 520 521
f 466 521 465
f 465 521 522
f 465 522 464
f 464 522 523
f 464 523 463
f 463 523 495
f 495 524 461
f 461 524 525
f 461 525 460
f 460 525 526
f 460 526 459
f 459 526 527
f 459 527 458
f 458 527 528
f 458 528 457
f 457 528 529
f 457 529 456
f 456 529 530
f 456 530 455
f 455 530 531
f 455 531 454
f 454 531 532
f 454 532 453
f 453 532 533
f 453 533 452
f 452 533 534
f 452 534 451
f 451 534 535
f 451 535 450
f 450 535 536
f 450 536 449
f 449 536 496
f 497 537 447
f 447 537 538
f 447 538 446
f 446 538 539
f 446 539 445
f 445 539 540
f 445 540 444
f 444 540 541
f 444 541 443
f 443 541 542
f 443 542 442
f 442 542 543
f 442 543 441
f 441 543 544
f 441 544 440
f 440 544 545
f 440 545 439
f 439 545 546
f 439 546 438
f 438 546 547
f 438 547 437
f 437 547 548
f 437 548 435
f 435 548 549
f 435 549 436
f 436 549 492
f 549 550 492
f 492 550 498
f 510 551 493
f 493 551 552
f 493 552 494
f 494 552 511
f 523 553 495
f 495 553 524
f 536 554 496
f 496 554 555
f 496 555 497
f 497 555 537
f 550 556 498
f 498 556 557
f 498 557 499
f 499 557 558
f 499 558 500
f 500 558 559
f 500 559 501
f 501 559 560
f 501 560 502
f 502 560 561
f 502 561 503
f 503 561 562
f 503 562 504
f 504 562 505
f 505 562 563
f 505 563 506
f 506 563 564
f 506 564 507
f 507 564 565
f 507 565 508
f 508 565 566
f 508 566 509
f 509 566 567
f 509 567 510
f 510 567 551
f 552 568 511
f 511 568 569
f 511 569 512
f 512 569 570
f 512 570 513
f 513 570 571
f 513 571 514
f 514 571 572
f 514 572 515
f 515 572 516
f 516 572 573
f 516 573 517
f 517 573 574
f 517 574 518
f 518 574 72
f 518 72 519
f 519 72 575
f 519 575 520
f 520 575 576
f 520 576 521
f 521 576 577
f 521 577 522
f 522 577 578
f 522 578 523
f 523 578 553
f 553 579 524
f 524 579 580
f 524 580 525
f 525 580 581
f 525 581 526
f 526 581 582
f 526 582 527
f 527 582 583
f 527 583 528
f 528 583 584
f 528 584 529
f 529 584 585
f 529 585 530
f 530 585 586
f 530 586 531
f 531 586 587
f 531 587 532
f 532 587 588
f 532 588 533
f 533 588 589
f 533 589 534
f 534 589 590
f 534 590 535
f 535 590 591
f 535 591 536
f 536 591 554
f 555 592 537
f 537 592 593
f 537 593 538
f 538 593 594
f 538 594 539
f 539 594 595
f 539 595 540
f 540 595 541
f 541 595 596
f 541 596 542
f 542 596 597
f 542 597 543
f 543 597 598
f 543 598 544
f 544 598 599
f 544 599 545
f 545 599 64
f 545 64 546
f 546 64 600
f 546 600 547
f 547 600 601
f 547 601 548
f 548 601 602
f 548 602 549
f 549 602 550
f 602 58 550
f 550 58 556
f 556 58 557
f 557 58 558
f 558 58 67
f 558 67 559
f 559 67 560
f 560 67 561
f 564 563 69
f 564 69 565
f 565 69 566
f 566 69 70
f 566 70 567
f 567 70 551
f 551 70 61
f 551 61 552
f 552 61 568
f 568 61 569
f 569 61 62
f 569 62 570
f 570 62 71
f 570 71 571
f 575 72 73
f 575 73 576
f 576 73 577
f 577 73 74
f 577 74 578
f 578 74 553
f 553 74 65
f 553 65 579
f 579 65 580
f 580 65 581
f 581 65 75
f 581 75 582
f 582 75 583
f 583 75 52
f 583 52 584
f 584 52 585
f 585 52 53
f 585 53 586
f 586 53 587
f 587 53 588
f 588 53 54
f 588 54 589
f 589 54 55
f 589 55 590
f 591 590 55
f 591 55 554
f 554 55 555
f 555 55 56
f 555 56 592
f 592 56 593
f 593 56 57
f 593 57 594
f 596 595 66
f 596 66 597
f 597 66 598
f 600 64 59
f 600 59 601
f 601 59 602
f 602 59 58
