v -0.000498268186 -0.00181756919 -0.0100949386
v 0.00315315488 -0.00659341299 -0.00722522529
v 0.00434781204 -0.00636964902 -0.00712639232
v 0.00559840957 -0.00537935351 -0.00696829941
v 0.00735404164 -0.00862905152 -0.0051015493
v 0.00655322159 -0.0040486548 -0.00716397093
v 0.00660425072 -0.00352380867 -0.00727672914
v 0.00687335292 -0.00201043675 -0.00774672855
v 0.0066274711 -0.00159694026 -0.00790509841
v 0.00646863519 -0.00126517884 -0.00809255656
v 0.00587674998 -0.000116080511 -0.00873362893
v -0.000736965262 -0.00254070549 -0.0101611726
v -0.00078315849 -0.00337725538 -0.0098425026
v 0.000723387601 -0.00618780869 -0.00830834575
v 0.00289848741 -0.010547612 -0.0059655585
v -6.33424259e-05 -0.00583149078 -0.00898573603
v 0.00202646536 -0.0065915436 -0.00760954416
v 0.00536312878 0.000193990726 -0.00894633371
v 0.00503867047 0.000356202885 -0.00913183218
v 0.00398796321 0.000804954682 -0.00969171701
v 0.000790297822 -8.43005618e-05 -0.0102463616
v 7.11779634e-05 -0.00086794645 -0.0104408835
v -0.00383307496 -6.69405587e-05 -0.0118266784
v -0.000797280442 -0.00372690282 -0.00969409154
v 0.0006193558 -0.0103935882 -0.00679400889
v -0.000409695684 -0.010083899 -0.00724988973
v 0.00340798181 0.00079573686 -0.00965469873
v 0.00328235076 0.00470643596 -0.0110291232
v -0.00411056919 0.00191300913 -0.0116138818
v -0.00533698192 0.00348405062 -0.00840811418
v -0.00618652239 0.000671997681 -0.00936090848
v -0.00504663235 0.000337899453 -0.0113950729
v -0.00566189905 -0.00136856443 -0.0110218204
v -0.00688681761 -0.0028526555 -0.00843578397
v -0.00592645104 -0.00312789561 -0.0105112898
v -0.00582973284 -0.00486691148 -0.00988430687
v -0.00618105937 -0.00622858047 -0.00706835012
v -0.00537624884 -0.00651058056 -0.00916868018
v -0.00458528559 -0.0079913017 -0.00839400175
v -0.00409179805 -0.0087284387 -0.0076086098
v 0.000394384571 -0.0106906753 -0.00311300831
v 0.0021523198 -0.0106343534 -0.00253353915
v 0.00389788678 -0.0102273909 -0.00207154629
v 0.00624652705 -0.0099451848 -0.00380841461
v 0.00764228364 -0.00898605736 -0.00362076801
v 0.00911432939 -0.00757049817 -0.00388173249
v 0.00803077815 -0.00683297832 -0.000340373864
v 0.00988413039 -0.00497493749 -0.00195879251
v 0.010129357 -0.00602909792 -0.00405956987
v 0.010826008 -0.00434938017 -0.00439266119
v 0.0107780395 -0.00149328952 -0.00287917014
v 0.0111785771 -0.00259561747 -0.00486811732
v 0.0111712878 -0.000845462281 -0.00546516578
v 0.0102607249 0.00191689642 -0.00424397944
v 0.0108052228 0.000828686662 -0.00615830491
v 0.0100947519 0.00235834852 -0.00691966482
v 0.00944300478 0.003333979 -0.00713208582
v 0.00749075159 0.00489395037 -0.00866269322
v 0.00613857615 0.00644303344 -0.00602224902
v 0.00452910885 0.0070144269 -0.00676309948
v 0.00366778559 0.00600641698 -0.0102015291
v 0.00192358622 0.00586807635 -0.0107393511
v 0.000206211878 0.00538123836 -0.0111526427
v -0.001670015 0.00427377656 -0.011585381
v -0.00148301574 0.00455666292 -0.0113776916
v -0.00233618687 0.00355300355 -0.0118752433
v -0.00838978903 0.00647396269 0.000485653414
v -0.00664664859 -0.00667593171 0.00293463378
v 0.00128337807 -0.00452451416 0.0115395583
v 0.00109481596 -0.00600527723 0.00943365011
v 0.00219818174 -0.00389262282 0.0116357073
v 0.0034376925 -0.00457506872 0.00950013918
v 0.0053718905 0.00802602936 0.00202068126
v -0.00617122412 0.0100435504 0.00404045249
v -0.00455386282 0.0100700631 0.00204177419
v -0.00720184573 0.00939593397 0.00391081746
v -0.00647038058 0.00832510054 0.000364515154
v -0.00537257356 0.0104793425 0.00433619232
v -0.00269598596 0.0111350776 0.00456811166
v -0.00274886452 0.0111543923 0.00482734474
v -0.000963895693 0.0111633484 0.00512791037
v 0.000702582121 0.0108455251 0.00578440215
v 0.000691386004 0.0108408344 0.00610563739
v 0.00223840216 0.0101942882 0.00651117488
v 0.00223523198 0.0101571232 0.00686409798
v 0.00397838112 0.00880945538 0.00767584131
v 0.00566842861 0.00753813262 0.00456545109
v 0.00462172155 0.00790061282 0.0084758437
v 0.00496424518 0.00749247091 0.00845942858
v 0.00658907627 0.0061351882 0.00537307403
v 0.00539507398 0.00639919809 0.00925024312
v 0.00564611965 0.00596955264 0.00921236166
v 0.00719336838 0.00454541327 0.00613496075
v 0.0058258333 0.00473722718 0.00996121089
v 0.0059916213 0.0043075494 0.00989713866
v 0.00745609639 0.00283308459 0.00682158769
v 0.00598678426 0.00257763217 0.0104856947
v 0.00736934677 0.0010613325 0.0073999823
v 0.00560273343 0.00122409116 0.0110745421
v 0.00563127846 0.000844148474 0.0109569737
v 0.00693351769 -0.0006966605 0.0078517285
v 0.00503839094 -0.000599979241 0.0112689094
v 0.00616362684 -0.00237063129 0.00816217879
v 0.00436672033 -0.00153300098 0.0115821045
v 0.0034086228 -0.00275876072 0.0116665072
v 0.00506215316 -0.00351411467 0.00877084719
v 0.00308022165 -0.00310372489 0.0116684938
v 0.000404306031 -0.00490751191 0.0115426562
v -0.00180766638 -0.00576167131 0.0109062699
v -0.00166525848 -0.00727918494 0.00765697391
v -0.00372880014 -0.00606768765 0.0100603816
v -0.00385763308 -0.00592017392 0.0102640899
v -0.0054071181 -0.00584661771 0.0093927952
v -0.0055664418 -0.00567245462 0.00959773464
v -0.00696969703 -0.00528765377 0.00865158845
v -0.00715310799 -0.00507263506 0.00885340957
v -0.00884196134 -0.00394768201 0.0076533241
v -0.00826606588 -0.00497975673 0.00408051959
v -0.0098971728 -0.00269073406 0.00686699791
v -0.00927081076 -0.00362212628 0.0032941993
v -0.0106595274 -0.00121316286 0.00610519101
v -0.00996444707 -0.00206648523 0.00253958407
v -0.0110922674 0.000422809478 0.00540249173
v -0.0103218401 -0.000369890968 0.00185260547
v -0.0111758743 0.00214477592 0.00478871576
v -0.0103266249 0.00139693934 0.00125660186
v -0.0109078894 0.00388417099 0.00428897915
v -0.00997809069 0.0031669152 0.00077529996
v -0.0103000588 0.00556984364 0.00392437401
v -0.00929068797 0.00486763065 0.000430099971
v -0.00955807688 0.0069622539 0.00394678309
v -0.00895950514 0.00636841352 0.00161773169
v -0.00454371257 0.00911688013 -0.000436562827
v 0.00262506418 -0.00656665672 0.00734404971
v -0.00461845495 0.00794942629 -0.00287216061
v 0.00452032369 -0.00518356269 0.00740963424
v 0.00423620282 -0.00691066991 0.00520278086
v 0.00537670124 -0.00738455334 0.00296052185
v 0.00706449474 -0.00787539502 -0.000371294702
v 0.00808620497 0.00451091841 -0.00840299292
v -0.00838254003 0.0083763102 0.00385742715
v -0.00730051118 0.00772165911 0.000534032106
v -0.00642416197 0.00642420347 -0.00300627744
v -0.00461893045 0.00663255993 -0.00523905866
v -0.00417088373 0.00550149751 -0.00744160365
v -0.00292363545 0.00358672071 -0.0113404379
v -0.00103479225 0.0101341803 0.000409797912
v -0.00116155107 0.00931382051 -0.00216153798
v -0.0012807079 0.00832245017 -0.00467618951
v -0.00196398347 0.00638590293 -0.00809870753
v -0.000262805747 0.00707433552 -0.00775196407
v 0.00245282652 0.00974329335 0.00173109372
v 0.00241587321 0.00927752049 -0.000929265042
v 0.00231990584 0.00864415238 -0.00355876779
v 0.00150463078 0.0074247403 -0.00726508389
v 0.00326795193 0.00742399558 -0.00665716652
v 0.00559428455 0.00770722017 -0.000720185255
v 0.00482897314 0.00793595361 -0.00242685597
v 0.00790992063 0.00461317594 -0.0084391216
v 0.00357368273 0.00915516908 0.00766116584
v 0.00885978025 0.00386907155 -0.00786226785
v 0.00815305582 0.00513233093 -0.00410062424
v 0.00809433375 0.00520320668 -0.000421553202
v 0.00731631589 0.00598158361 0.00186047792
v 0.00959523025 0.00286044848 -0.00191765178
v 0.00936027131 0.00198210369 0.00110689728
v 0.0085824731 0.00276057177 0.00339003565
v 0.0101630569 -0.00058556967 -0.000551826807
v 0.00921722772 -0.00161120024 0.00228317392
v 0.00844079149 -0.000834280662 0.0045634713
v 0.00931725282 -0.00412252704 0.000363852724
v 0.00743581975 -0.00610492214 0.00186116241
v 0.00714395443 -0.00434146434 0.00472707321
v 0.00632558248 -0.00353571216 0.00696015058
v 7.04786799e-06 -0.00811458407 0.00551285837
v 0.00166784889 -0.00869797978 0.00352914869
v 0.00329695773 -0.00912114853 0.00147819855
v 0.00509495862 -0.00920268484 -0.000465952049
v -0.00436608446 -0.0075402734 0.00529310434
v -0.00275944052 -0.00858343079 0.00338775213
v -0.0010974637 -0.00946000119 0.00144068854
v 0.000581662926 -0.0101631288 -0.000553079169
v -0.00523038557 -0.0079377548 0.000922271646
v -0.0036726311 -0.00886292413 0.00039422435
v -0.00148905591 -0.0102337875 -0.00296988717
v -0.00222307323 -0.0102336546 -0.00610786866
v -0.00228104311 -0.0101165623 -0.00689357316
v -0.00854787546 -0.00414715712 0.00806325877
v -0.00252377789 -0.00995681672 -0.00722855529
v -0.00501435584 -0.00826447 -0.00402978599
v -0.00706731176 -0.00633082816 -0.00165553266
v -0.00784327435 -0.00555503462 0.000625076107
v -0.00709741174 -0.00558618938 -0.00473088431
v -0.00850029865 -0.00319337563 -0.00321134301
v -0.00927639966 -0.00241796918 -0.000931474749
v -0.00784048979 -0.00219129041 -0.006137697
v -0.00853666346 0.000384355833 -0.00444367146
v -0.00931403764 0.00115958691 -0.0021613812
v -0.00716942394 0.00136578008 -0.00711797323
v -0.00462267119 0.00332058961 -0.00954204595
v -0.00621057826 0.0042162988 -0.00629847621
v -0.00785275199 0.00439334933 -0.00335567312
v -0.00857342206 0.00513076385 -0.00106407524
v 0.0008073667 0.00337501381 0.00988711194
v 0.00068009864 0.00230898902 0.0102210933
v 0.000332160158 0.001533541 0.0103173662
v -0.000531732044 0.000285776759 0.0103552475
v 0.00279972349 -0.00152452097 0.0120167526
v 0.000907125435 -0.00342270382 0.0120110841
v -0.00253200787 -0.00073727413 0.00993304513
v 0.000762250841 0.00380279119 0.00950879061
v -0.004411168 -0.000652090303 0.00948087755
v -0.00536552704 -0.000222578646 0.0090242335
v -0.00585981953 0.000294295548 0.00863065655
v -0.00613408455 0.000560346225 0.00848122361
v -0.0100668288 -0.00048009765 0.00727968034
v -0.00671156607 0.00227672914 0.00756937937
v -0.00623708659 0.00440480711 0.00703692902
v -0.0104514149 0.00445673006 0.0054364448
v -0.0035167042 0.0104595847 0.00578495448
v -0.00322375017 0.00656153257 0.00721210444
v -2.15533015e-05 0.00569023195 0.00859922114
v 0.00456431928 0.00521014892 0.0103242856
v -0.00369208356 -0.000789705315 0.0097733403
v -0.00652700572 0.00927172205 0.00516442962
v -0.00486467549 0.00591703676 0.00687274107
v -0.00321314055 -0.00469325488 0.0110481402
v -0.00214665868 0.00667618852 0.00764857522
v -0.00027142034 0.0106283602 0.0067892459
v 0.000403067833 0.0102854848 0.00716390695
v -0.00985893923 0.00532247121 0.00537449324
v -0.00801775175 0.00801779325 0.00508374179
v -0.00857314783 0.00740839536 0.00510210002
v -0.00411457494 0.0036222038 0.00236005058
v -0.0047934981 0.00247766073 0.00251859629
v -0.00514718283 0.000982987607 0.00290713339
v -0.00437550384 -0.00120243568 0.00391404858
v -0.00272760139 -0.00222035206 0.00482189946
v -0.00114218724 -0.00229820109 0.00538828003
v 0.000399313039 -0.00169621203 0.00570818214
v 0.00185001098 -0.000209779624 0.00569604225
v 0.00236321696 0.00218068507 0.00505680406
v 0.00134972093 0.00424491894 0.00400867588
v -0.000417645131 0.00506618528 0.00312723546
v -0.00202031018 0.00497042545 0.00261413109
v -0.00321433264 0.00439991052 0.00240177119
v 0.000746089151 0.00277091834 0.00430514088
v -0.000708177362 0.00377301655 0.00346865681
v 0.000954542851 0.000954304572 0.00499470152
v -0.00236081883 -0.000897325833 0.00449629304
v -0.000465567319 -0.000812302179 0.00511268257
v -0.003715872 0.00180665382 0.00311411784
v -0.00350717598 -9.99601341e-06 0.00380373012
v -0.00255640947 0.00337360683 0.00297533966
v -0.000904349502 -0.000795258667 -0.00503174194
v -0.000897313075 -0.0023608316 -0.00449629179
v -0.000387165128 -0.00314842169 -0.00405436551
v 0.000298323467 -0.00362075005 -0.0036600396
v 0.00151296455 -0.00374776793 -0.00320326054
v 0.00269216657 -0.00324037459 -0.00297446964
v 0.00351981433 -0.0022349628 -0.00303502208
v 0.00375678819 -0.00125680869 -0.00328737294
v 0.00365869082 -0.000400752199 -0.00361227947
v 0.00277111651 0.000745977592 -0.00430502827
v 0.000283635288 0.00126898085 -0.00533013084
v 6.92375394e-05 0.000479276941 -0.00513425085
v -0.000566443954 -0.0048471976 -0.00353688319
v -0.00224600519 -0.00276909226 -0.00481650617
v -0.00226626116 -0.00107155745 -0.00540143049
v -0.00174230715 0.000389292881 -0.00572052553
v -0.000167441763 0.00183526261 -0.00567662434
v 0.00297084284 -0.00461126453 -0.0024126678
v 0.00128796381 -0.00508092349 -0.00282591378
v 0.00509602571 -0.000379201013 -0.00313018797
v 0.00483937228 -0.00241369747 -0.00252474808
v 0.00414886755 -0.00355254119 -0.00237208402
v 0.00220314159 0.00232475768 -0.00503602191
v 0.00337305349 0.00194133813 -0.00450700319
v 0.00423813917 0.00130282871 -0.00399503285
v -0.0090265088 0.00772834817 0.00401712257
v -0.0103394371 0.00571774997 0.00428498203
v -0.0111729832 0.00282026822 0.00505787337
v -0.0112330227 0.00190696743 0.00526913409
v -0.0111964675 0.00107623632 0.00564378703
v -0.0110727607 0.000181994825 0.00591190244
v -0.0108613701 -0.000598296572 0.00632816756
v -0.0105572961 -0.00143612403 0.00663897474
v -0.010181758 -0.00213287776 0.00708204711
v -0.00970852201 -0.0028793381 0.00741953029
v 0.00517480007 0.000476627419 0.0115383191
v 0.00583003454 0.00304101805 0.010693144
v 0.00571551603 0.00478221471 0.0101407191
v 0.00529232305 0.00642825658 0.00943619216
v 0.00453057569 0.00791729982 0.00866967643
v -0.0105427505 0.00372760814 0.00566778878
v -0.0107719185 0.00283767331 0.00587872268
v -0.0107129673 0.00212538956 0.00615541875
v -0.0107702182 0.00123563972 0.00641943988
v -0.0107620722 0.000387880807 0.00665671341
v -0.00957931816 -0.00199283271 0.00792959989
v -0.00732609503 -0.00406557274 0.00940275167
v -0.00433568094 -0.00497009488 0.0107289914
v -0.00236246779 -0.00475110402 0.0113466283
v -0.00143126362 -0.0046600032 0.0116122406
v 0.000118368988 -0.00405374009 0.0119285016
v 0.00499416395 0.00371308918 0.0109491562
v 0.00455627405 0.00602113042 0.0100251369
v 0.00406301701 0.00709347331 0.00949861294
v 0.00374640507 0.00785794934 0.00910773389
v 0.00320378134 0.00835041354 0.00877794907
v 0.00272968633 0.00901486919 0.00836754203
v 0.00208588071 0.00937708454 0.00804769748
v 0.00147429355 0.00991385689 0.00763392733
v -0.000979662705 0.0109196567 0.00636951539
v -0.00350265891 0.0106789344 0.00568378323
v -0.00660764606 0.00946266532 0.00504068104
v -0.00880722379 0.00748199125 0.00496570857
v -0.0073638038 0.00913920973 0.00480205731
v -0.00774331981 0.00896437937 0.00457929961
v -0.00742968977 0.00933068521 0.00436977858
v -0.00806703509 0.00876079691 0.00409195132
v 0.00245033599 -0.0023129781 0.0121349847
v 0.00258932027 -0.00250925544 0.0121577844
v 0.00303532801 -0.00235648295 0.0121047006
v 0.00315079288 -0.00272101953 0.0119593204
v 0.00415061798 -0.00160034494 0.0117808186
v -0.0110316598 0.00366344 0.00473844706
v -0.0042810846 0.0106823923 0.00532634223
v -0.00508653989 0.0105541414 0.00494862405
v -0.00700053888 0.00958873327 0.00417393649
v -0.00622126776 0.0100691467 0.00427562201
v -0.00503902865 0.010613892 0.00473402535
v -0.0045247546 0.0107988485 0.00451612184
v -0.00215118343 0.0110300316 0.00586509091
v -0.00331263564 0.0110597085 0.005262604
v -0.00369522291 0.0110265165 0.00480979884
v -0.00282022673 0.0111730247 0.00505787337
v -0.00168048139 0.0112262615 0.00558313445
v -0.00107631403 0.011196509 0.00564378703
v 0.00157991227 0.0102529297 0.00732824677
v 0.00098091054 0.0106845224 0.00676017657
v -0.000627736851 0.0111597466 0.00587167689
v 0.000598338068 0.0108614116 0.00632816756
v 0.00291626847 0.00934491493 0.00809257617
v 0.00213280004 0.0101816803 0.00708204711
v 0.0040873233 0.00795827801 0.00901485495
v 0.00285245681 0.00970743506 0.00752945517
v 0.00346234125 0.0091862827 0.007873716
v 0.00486389394 0.00608739457 0.0100049847
v 0.00415543937 0.0083310784 0.0085669413
v 0.00530017341 0.00530005418 0.0102747196
v 0.00500699616 0.0069100543 0.00934074207
v 0.00526397504 0.0030314148 0.011140009
v 0.00553002563 0.00531302616 0.0100627131
v 0.00479594808 0.00164795034 0.0115515884
v 0.00558779378 0.00254470505 0.011096225
v 0.00572526824 0.00388201472 0.0105714393
v 0.00481277034 0.000891927009 0.0117058038
v 0.00427686508 0.000474273159 0.0118069785
v 0.00471913794 -0.000271248741 0.0117679274
v 0.00431115271 -0.000546242634 0.011919523
v 0.00386944097 -0.000816568781 0.0120118281
v 0.00366297048 -0.000691518237 0.0119945427
v 0.00048843847 -0.00434153479 0.0119261884
v 0.0013836634 -0.00408355737 0.011926022
v 0.00330272001 -0.00265143817 0.0118504187
v 0.00194313806 -0.00389038031 0.0118094107
v -0.00139335105 -0.00503950665 0.0115745945
v -0.00356107357 -0.00523003241 0.0109899457
v -0.000539395391 -0.00504706805 0.0115962645
v -0.000429851904 -0.00526819754 0.0113818342
v -0.00192285887 -0.00554681311 0.0112044279
v -0.00130114275 -0.00548957293 0.011249127
v -0.0035476136 -0.00553985728 0.0108528224
v -0.00304875094 -0.00578223174 0.0107536932
v -0.00674167522 -0.00461642102 0.00969798265
v -0.00603829539 -0.00511049916 0.00995860712
v -0.00392183977 -0.00579403346 0.0104604384
v -0.00511540429 -0.00557855136 0.0101358793
v -0.00562057215 -0.00554774707 0.00979811156
v -0.00673000978 -0.0050955698 0.00942166174
v -0.00927573897 -0.00274793307 0.00819888088
v -0.0088373636 -0.00349066697 0.00845389672
v -0.00719651896 -0.00495205825 0.00905865634
v -0.00890407417 -0.00365510548 0.00828932315
v -0.00791503496 -0.0045751026 0.00859718351
v -0.00858292299 -0.00403223937 0.00827330554
v -0.00918636042 -0.00346229975 0.007873716
v -0.0105811537 -0.000557924761 0.0069595466
v -0.0102701253 -0.00153097085 0.00728976989
v -0.0107293564 -0.000921481964 0.00673705241
v -0.0110464343 0.00169165015 0.00600334503
v -0.0112246954 0.00243156642 0.00542680781
v -0.0109381439 0.0033742167 0.00546776819
v -0.0105263193 0.00534337372 0.00460156022
v -0.00988709496 0.00569828143 0.00521978471
v -0.0102305222 0.00583053497 0.00480562569
v -0.0094058925 0.00728842823 0.0042934304
v -0.0089653464 0.00770379598 0.00458675826
v -0.00969631566 0.00654830244 0.00489002846
v -0.00310880941 0.00259805083 -0.012017383
v -0.00153815086 0.00408357475 -0.011855403
v -0.000378875955 0.00482631866 -0.0116638864
v 2.32335012e-05 0.0049463901 -0.011626226
v 0.000845438341 0.0052701278 -0.0114506743
v 0.00166723977 0.00556878471 -0.0111923703
v 0.00257551079 0.00566370812 -0.0109950869
v 0.00341368888 0.00578883173 -0.0106720441
v 0.00431309539 0.00570096246 -0.0104163716
v 0.00513055055 0.00565074959 -0.0100399152
v 0.00595578883 0.00544880373 -0.00968952791
v 0.00674538415 0.0051613129 -0.00932230741
v 0.00751866496 0.00471759276 -0.00898975359
v 0.00887399384 0.00372332852 -0.00818274618
v 0.00945346255 0.00311030882 -0.00778165835
v 0.0099513995 0.00244942455 -0.00738684836
v 0.0103731394 0.00173294882 -0.00699918937
v 0.0107140705 0.000969360538 -0.00662283902
v 0.0109706186 0.000165442437 -0.00626219917
v 0.0111399439 -0.000668431269 -0.00592032006
v 0.0112202831 -0.00152395394 -0.00560126015
v 0.0111751007 -0.00244980537 -0.00554288045
v 0.0110790004 -0.00331054824 -0.0052824272
v 0.0108948927 -0.00416832081 -0.00505316509
v 0.0106254752 -0.00501053498 -0.00485819151
v 0.010272477 -0.00583128715 -0.00469897563
v 0.00984162168 -0.00661782566 -0.00457758921
v 0.00933692894 -0.00736321207 -0.00449577335
v 0.00847041106 -0.00839500331 -0.0041479253
v 0.00778867115 -0.00902362268 -0.00416287502
v 0.00706289183 -0.00957652669 -0.00422065943
v 0.00668360819 -0.00980100934 -0.00456922721
v 0.00543560529 -0.0104861668 -0.0044692181
v 0.00518417582 -0.0105510089 -0.0048362199
v 0.00421816998 -0.0109118212 -0.00471179554
v 0.00335025769 -0.0111102044 -0.00493975855
v 0.00247608013 -0.0112201153 -0.00519948295
v 0.00160338609 -0.0112405996 -0.00548941442
v 0.000743939155 -0.0111712614 -0.00580534041
v -9.46420628e-05 -0.0110130149 -0.00614452965
v -0.000903604205 -0.0107675906 -0.00650298729
v -0.00167376152 -0.0104378327 -0.00687688003
v -0.00288825572 -0.00962290382 -0.00774912879
v -0.00338792702 -0.00914333001 -0.00810735413
v -0.00405479834 -0.00829453412 -0.00873884609
v -0.00451113818 -0.00761415311 -0.00912593527
v -0.00488934461 -0.00688373766 -0.00950346414
v -0.00518695696 -0.00610810145 -0.00986893367
v -0.00539902571 -0.00529907959 -0.0102165593
v -0.00552401433 -0.00446425873 -0.0105434389
v -0.0055607912 -0.00361006862 -0.0108468392
v -0.00550880518 -0.00274879375 -0.0111223205
v -0.00536847326 -0.00188849467 -0.0113676106
v -0.00514158594 -0.00103724538 -0.0115800092
v -0.00483018503 -0.000205289359 -0.0117573716
v -0.00443698097 0.000600402928 -0.0118979738
v -0.00396766137 0.00136828901 -0.0119997676
v -0.00362787674 0.00235371362 -0.0117893336
v 0.00825277575 0.00404371107 -0.0087403956
v -0.00336476388 -0.00876885713 -0.00851321015
v -0.00146125881 -0.0102055499 -0.00737571723
v -0.000726587374 -0.0105339912 -0.00701395888
v 4.78316107e-05 -0.0107822609 -0.00666549785
v 0.0008509569 -0.0109460497 -0.00633632726
v 0.00167633557 -0.0110244566 -0.00602834944
v 0.00251310133 -0.0110159812 -0.00574645046
v 0.00335490226 -0.0109211713 -0.00549197522
v 0.00418955995 -0.010740857 -0.00526964894
v 0.00581024181 -0.0101329951 -0.00492458608
v 0.00730677596 -0.00921710037 -0.00472685841
v 0.00798807265 -0.00865556383 -0.00468615215
v 0.00861448782 -0.00803315127 -0.00468475249
v 0.0110263802 -0.00173275817 -0.00600871586
v 0.0109539295 -0.000907526212 -0.00631465306
v 0.0107958528 -0.000102212649 -0.00664266235
v 0.0105535915 0.000675039114 -0.006989592
v 0.0102301616 0.00141243337 -0.00735094061
v 0.00982827473 0.00210550967 -0.00772388223
v 0.00935256814 0.00274638106 -0.00810404377
v 0.00880809866 0.00332763892 -0.00848715674
v 0.00753655437 0.00428751819 -0.00924696836
v 0.00682291381 0.00465597264 -0.00961552445
v 0.00606728651 0.00494470396 -0.0099713369
v 0.00527787736 0.00515081895 -0.0103102241
v 0.00446196559 0.00527224711 -0.0106294039
v 0.00363050282 0.00530698368 -0.0109244553
v 0.00278984551 0.00525550508 -0.0111930924
v 0.00194979413 0.00511801017 -0.0114321555
v 0.00112104545 0.00489559326 -0.011638878
v 0.000308447563 0.00459090604 -0.0118117157
v -0.000475627202 0.00420759439 -0.0119482292
v -0.00122475248 0.00374907479 -0.0120471941
v -0.00192999077 0.00322067047 -0.0121075131
v -0.00258469701 0.00262787758 -0.0121285433
v -0.00296436483 0.0018563888 -0.0121212239
v -0.00264370835 -0.00916212515 -0.00825979904
v -0.00202636685 -0.00963434808 -0.0078887686
v 0.00813553261 0.00361290298 -0.00893955459
v -0.00343272406 0.00104607637 -0.012036858
v -0.00387582499 0.000327363561 -0.0119430402
v -0.00424692351 -0.000425562312 -0.0118129829
v -0.00454220492 -0.00120471423 -0.0116482357
v -0.00475856978 -0.00200198596 -0.0114503483
v -0.00489375311 -0.00280879443 -0.0112217048
v -0.0049462052 -0.00361667578 -0.0109644512
v -0.00486917093 -0.00426601349 -0.0107351337
v -0.00468831448 -0.00547114388 -0.0102644414
v -0.00433412285 -0.00653524792 -0.00978027061
v -0.00401101357 -0.00718407429 -0.00945232987
v -0.00306174475 -0.0086023659 -0.00862496888
v -0.00122485706 -0.00989641417 -0.00758034084
v -0.000518295347 -0.0102898926 -0.00718420541
v 0.000226405085 -0.0105254502 -0.0068504194
v 0.000999596537 -0.0106801838 -0.00653439557
v 0.00179293436 -0.0107525439 -0.00623971021
v 0.0025980739 -0.0107416958 -0.00596922433
v 0.0034065513 -0.0106477589 -0.00572591817
v 0.00420966429 -0.0104716868 -0.00551229512
v 0.00499894899 -0.010215506 -0.00533073938
v 0.00576606077 -0.00988183921 -0.00518315828
v 0.00650277418 -0.00947426264 -0.00507110154
v 0.00720145983 -0.00899706786 -0.00499576127
v 0.00785448831 -0.00845514243 -0.00495785272
v 0.00845518392 -0.00785456603 -0.00495785272
v 0.00899699014 -0.00720141833 -0.00499576127
v 0.00947430414 -0.00650273268 -0.00507110154
v 0.0098818807 -0.00576601927 -0.00518315828
v 0.0102155475 -0.0049989075 -0.00533073938
v 0.0104717283 -0.00420962279 -0.00551229512
v 0.0105734307 -0.00355751345 -0.00571784249
v 0.0107416181 -0.00259815161 -0.00596922433
v 0.0107524661 -0.00179289286 -0.00623971021
v 0.0106802253 -0.000999555041 -0.00653439557
v 0.0105253724 -0.000226482798 -0.0068504194
v 0.0102899341 0.000518336843 -0.00718420541
v 0.00999724251 0.00106469921 -0.00748799123
v 0.00958743376 0.00189150865 -0.00789099729
v 0.00912788194 0.00250531728 -0.00825649297
v 0.00860228819 0.00306166704 -0.00862496888
v 0.00737633985 0.00397957857 -0.00935500657
v 0.00679900829 0.00421765687 -0.00965070731
v 0.00596132559 0.00460638101 -0.0100503544
v 0.00520124716 0.00480176504 -0.0103756765
v 0.00441696924 0.00491537149 -0.0106814483
v 0.00361671728 0.00494624669 -0.0109644512
v 0.00296465048 0.00485187327 -0.0111723749
v 0.00221010184 0.00473212897 -0.0113916304
v 0.00136767205 0.00453266856 -0.0116075194
v 0.00101165991 0.000415995763 -0.0107107668
v -0.000565162151 0.00367818239 -0.011975965
v -0.00156530386 0.00297667191 -0.0120763828
v -0.00235054213 0.00235058362 -0.0121125559
v -0.00479063708 0.00479067857 0.0106112381
v 0.00263741297 -0.00318644946 -0.0118907074
v -0.00503263193 0.00448359544 0.0106334111
v 0.00247707647 -0.00353775923 -0.0118257383
v -0.00519296843 0.00413228567 0.0106984993
v 0.00240924639 -0.00390933459 -0.0117222646
v -0.00526079851 0.00376071031 0.0108018538
v 0.00243869108 -0.00427578395 -0.0115875581
v -0.00523135382 0.00339426095 0.0109366795
v 0.00256314558 -0.00461219256 -0.0114305595
v -0.00510689932 0.00305785234 0.0110936781
v 0.00277438444 -0.00489567225 -0.0112621168
v -0.00489566046 0.00277437265 0.0112621208
v 0.00305786413 -0.00510691111 -0.0110936741
v -0.00461218077 0.00256313379 0.0114305636
v 0.00339427275 -0.00523136561 -0.0109366754
v -0.00427577215 0.00243867929 0.0115875622
v 0.0037607221 -0.00526081031 -0.0108018497
v -0.0039093228 0.0024093538 0.0117222687
v 0.00413229746 -0.00519298022 -0.0106984953
v -0.00353774744 0.00247706468 0.0118257424
v 0.00448360723 -0.00503264372 -0.010633407
v -0.00318643767 0.00263740117 0.0118907114
v 0.00479069036 -0.00479064887 -0.0106112341
v -0.00287935454 0.00287939603 0.0119128844
v 0.00503256601 -0.00448356574 -0.010633407
v -0.00263747889 0.00318647916 0.0118907114
v 0.00519290251 -0.00413225596 -0.0106984953
v -0.00247714239 0.00353778894 0.0118257424
v 0.00526073259 -0.00376079981 -0.0108018497
v -0.00240931231 0.00390924508 0.0117222687
v 0.00523140711 -0.00339423125 -0.0109366754
v -0.00243863779 0.00427581365 0.0115875622
v 0.0051068334 -0.00305782263 -0.0110936741
v -0.0025632115 0.00461222226 0.0114305636
v 0.00489571375 -0.00277434294 -0.0112621168
v -0.00277433115 0.00489570196 0.0112621208
v 0.00461223406 -0.00256322329 -0.0114305595
v -0.00305781084 0.00510682161 0.0110936781
v 0.00427582544 -0.00243864958 -0.0115875581
v -0.00339421946 0.00523139531 0.0109366795
v 0.00390925688 -0.0024093241 -0.0117222646
v -0.00376078802 0.0052607208 0.0108018538
v 0.00353780073 -0.00247715418 -0.0118257383
v -0.00413224417 0.00519289071 0.0106984993
v 0.00318649095 -0.00263749068 -0.0118907074
v -0.00448355395 0.00503255422 0.0106334111
v 0.00287940782 -0.00287936633 -0.0119128803
v 0.00383498949 -0.0038350672 -0.0112621168
v -0.00383505541 0.0038349777 0.0112621208
f 3 4 5
f 3 15 2
f 2 15 17
f 549 548 547
f 21 550 549
f 21 22 551
f 21 551 550
f 12 23 1
f 1 23 22
f 509 508 16
f 16 508 507
f 16 507 24
f 24 507 506
f 15 25 17
f 17 25 14
f 14 25 26
f 14 26 511
f 547 546 549
f 549 546 28
f 549 28 27
f 27 28 20
f 75 78 333
f 75 333 79
f 79 80 81
f 81 342 82
f 82 83 84
f 84 85 347
f 70 108 371
f 70 371 109
f 110 109 111
f 111 112 113
f 113 114 115
f 115 116 386
f 74 78 75
f 69 108 70
f 76 74 75
f 71 69 70
f 77 76 75
f 77 75 133
f 72 71 70
f 72 70 134
f 141 76 142
f 142 76 77
f 77 133 135
f 107 71 72
f 136 72 134
f 136 134 137
f 142 77 143
f 143 77 135
f 143 135 144
f 75 79 147
f 75 147 133
f 133 147 148
f 133 148 135
f 135 148 149
f 135 149 144
f 144 149 150
f 144 150 145
f 145 150 65
f 145 65 146
f 146 65 64
f 146 64 66
f 79 81 147
f 149 151 150
f 150 151 63
f 150 63 403
f 150 403 65
f 81 82 152
f 81 152 147
f 147 152 153
f 147 153 148
f 148 153 154
f 148 154 149
f 149 154 155
f 149 155 151
f 151 155 62
f 151 62 406
f 151 406 63
f 82 84 152
f 154 156 155
f 155 156 61
f 155 61 408
f 155 408 62
f 347 73 84
f 84 73 157
f 84 157 152
f 152 157 158
f 152 158 153
f 153 158 154
f 154 158 60
f 154 60 156
f 156 60 410
f 156 410 61
f 60 411 410
f 158 157 59
f 158 59 60
f 60 59 412
f 60 412 411
f 59 58 412
f 73 162 157
f 157 162 140
f 157 140 59
f 59 140 159
f 59 159 58
f 163 162 73
f 163 73 164
f 164 73 87
f 87 73 86
f 86 73 160
f 160 73 347
f 57 161 162
f 162 161 140
f 54 56 57
f 54 57 165
f 165 57 162
f 165 162 163
f 90 164 87
f 90 87 89
f 89 87 88
f 88 87 86
f 55 56 54
f 166 165 163
f 166 163 167
f 167 163 164
f 167 164 93
f 93 164 90
f 93 90 92
f 92 90 91
f 91 90 89
f 53 55 54
f 51 53 54
f 51 54 168
f 168 54 165
f 168 165 166
f 96 167 93
f 96 93 95
f 95 93 94
f 94 93 92
f 52 53 51
f 169 168 166
f 169 166 170
f 170 166 167
f 170 167 98
f 98 167 96
f 98 96 97
f 97 96 291
f 291 96 95
f 50 52 51
f 48 50 51
f 48 51 171
f 171 51 168
f 171 168 169
f 101 170 98
f 101 98 100
f 100 98 99
f 99 98 97
f 49 50 48
f 173 171 169
f 173 169 174
f 174 169 170
f 174 170 103
f 103 170 101
f 103 101 102
f 102 101 100
f 46 49 48
f 103 102 104
f 47 46 48
f 47 48 172
f 172 48 171
f 172 171 173
f 106 174 103
f 106 103 104
f 45 46 139
f 139 46 47
f 105 106 104
f 105 107 106
f 106 107 72
f 106 72 174
f 174 72 136
f 174 136 173
f 173 136 137
f 173 137 172
f 172 137 138
f 172 138 47
f 47 138 139
f 109 110 70
f 70 110 175
f 70 175 134
f 134 175 176
f 134 176 137
f 137 176 177
f 137 177 138
f 138 177 178
f 138 178 139
f 139 178 45
f 45 430 429
f 178 44 45
f 45 44 431
f 45 431 430
f 177 43 178
f 178 43 433
f 178 433 44
f 111 113 179
f 111 179 110
f 110 179 180
f 110 180 175
f 175 180 181
f 175 181 176
f 176 181 182
f 176 182 177
f 177 182 43
f 43 435 433
f 182 42 43
f 43 42 436
f 43 436 435
f 113 115 179
f 42 437 436
f 182 41 42
f 42 41 438
f 42 438 437
f 386 68 115
f 115 68 183
f 115 183 179
f 179 183 184
f 179 184 180
f 180 184 181
f 181 184 185
f 181 185 182
f 182 185 41
f 41 439 438
f 41 185 440
f 41 440 439
f 184 183 186
f 184 186 185
f 185 441 440
f 185 186 442
f 185 442 441
f 68 190 183
f 183 190 186
f 186 187 442
f 191 190 68
f 191 68 192
f 192 68 118
f 118 68 117
f 117 68 188
f 188 68 386
f 40 443 190
f 190 443 186
f 186 189 187
f 37 39 40
f 37 40 193
f 193 40 190
f 193 190 191
f 120 192 118
f 120 118 119
f 119 118 289
f 289 118 117
f 38 39 37
f 194 193 191
f 194 191 195
f 195 191 192
f 195 192 122
f 122 192 120
f 122 120 121
f 121 120 287
f 287 120 119
f 36 38 37
f 34 36 37
f 34 37 196
f 196 37 193
f 196 193 194
f 124 195 122
f 124 122 123
f 123 122 285
f 285 122 121
f 35 36 34
f 197 196 194
f 197 194 198
f 198 194 195
f 198 195 126
f 126 195 124
f 126 124 125
f 125 124 283
f 283 124 123
f 33 35 34
f 31 33 34
f 31 34 199
f 199 34 196
f 199 196 197
f 128 198 126
f 128 126 127
f 127 126 327
f 327 126 125
f 32 33 31
f 202 199 197
f 202 197 203
f 203 197 198
f 203 198 130
f 130 198 128
f 130 128 129
f 129 128 281
f 281 128 127
f 29 32 31
f 30 29 31
f 30 31 201
f 201 31 199
f 201 199 202
f 67 203 130
f 67 130 132
f 132 130 131
f 131 130 129
f 458 29 200
f 200 29 30
f 67 132 280
f 280 132 131
f 280 141 67
f 67 141 142
f 67 142 203
f 203 142 202
f 202 142 143
f 202 143 201
f 201 143 144
f 201 144 30
f 30 144 145
f 30 145 200
f 200 145 146
f 200 146 458
f 207 209 208
f 210 304 207
f 207 304 305
f 207 305 209
f 216 215 217
f 217 296 297
f 217 297 298
f 218 219 217
f 217 219 295
f 217 295 296
f 228 220 221
f 222 310 311
f 222 311 312
f 222 308 309
f 222 309 310
f 204 223 211
f 211 223 222
f 222 223 307
f 222 307 308
f 210 303 304
f 221 220 226
f 226 220 225
f 210 224 227
f 210 227 303
f 312 313 222
f 222 313 230
f 222 230 228
f 228 230 229
f 218 231 219
f 225 232 226
f 226 232 233
f 226 233 218
f 218 233 396
f 234 226 218
f 234 218 235
f 235 218 236
f 236 218 217
f 236 217 237
f 237 217 215
f 237 215 214
f 237 214 213
f 237 213 238
f 238 213 212
f 238 212 224
f 238 224 239
f 239 224 210
f 239 210 240
f 240 210 207
f 240 207 241
f 241 207 206
f 241 206 205
f 241 205 242
f 242 205 204
f 242 204 211
f 242 211 222
f 242 222 243
f 243 222 244
f 244 222 228
f 244 228 245
f 245 228 221
f 245 221 226
f 245 226 246
f 246 226 234
f 247 242 243
f 247 243 248
f 248 243 244
f 251 240 241
f 251 241 249
f 249 241 242
f 249 242 247
f 250 238 251
f 251 238 239
f 251 239 240
f 252 236 253
f 253 236 237
f 253 237 250
f 250 237 238
f 248 244 245
f 248 245 254
f 254 245 246
f 254 246 234
f 254 234 252
f 252 234 235
f 252 235 236
f 266 254 255
f 255 254 252
f 255 252 256
f 256 252 253
f 256 253 257
f 257 253 258
f 258 253 250
f 258 250 259
f 259 250 251
f 259 251 260
f 260 251 261
f 261 251 249
f 261 249 262
f 262 249 263
f 263 249 247
f 263 247 264
f 264 247 248
f 264 248 265
f 265 248 254
f 265 254 266
f 258 267 257
f 257 267 256
f 256 267 268
f 256 268 255
f 255 268 269
f 255 269 270
f 255 270 266
f 266 270 271
f 266 271 265
f 260 272 259
f 259 272 273
f 259 273 258
f 258 273 267
f 263 274 262
f 262 274 261
f 261 274 275
f 261 275 260
f 260 275 276
f 260 276 272
f 265 277 264
f 264 277 278
f 264 278 279
f 264 279 263
f 263 279 274
f 21 270 22
f 22 270 1
f 1 270 12
f 12 270 269
f 12 269 13
f 13 269 268
f 13 268 24
f 24 268 16
f 16 268 267
f 16 267 14
f 14 267 17
f 17 267 2
f 2 267 273
f 2 273 272
f 2 272 3
f 3 272 4
f 4 272 276
f 4 276 6
f 6 276 275
f 6 275 7
f 7 275 8
f 8 275 274
f 8 274 9
f 9 274 10
f 10 274 11
f 11 274 279
f 11 279 18
f 18 279 19
f 19 279 278
f 19 278 20
f 20 278 277
f 20 277 27
f 27 277 549
f 549 277 265
f 549 265 271
f 549 271 21
f 21 271 270
f 280 131 398
f 131 129 281
f 327 125 282
f 283 123 284
f 285 121 286
f 287 119 288
f 104 102 290
f 291 95 357
f 95 94 292
f 94 92 354
f 92 91 293
f 91 89 352
f 89 88 294
f 88 86 350
f 299 217 298
f 299 216 217
f 300 215 216
f 300 214 215
f 301 213 214
f 301 212 213
f 302 224 212
f 302 227 224
f 306 204 205
f 306 223 204
f 314 228 229
f 315 220 228
f 316 225 220
f 322 209 323
f 208 209 322
f 232 225 317
f 317 225 316
f 317 316 318
f 321 76 141
f 220 315 316
f 316 315 328
f 316 328 318
f 318 328 329
f 318 329 319
f 319 329 320
f 320 330 321
f 321 330 76
f 331 74 76
f 329 332 320
f 320 332 331
f 320 331 330
f 330 331 76
f 332 78 331
f 331 78 74
f 228 314 315
f 315 314 334
f 315 334 328
f 328 334 335
f 328 335 329
f 329 335 332
f 332 335 333
f 332 333 78
f 336 79 333
f 335 336 333
f 337 80 79
f 334 314 338
f 334 338 335
f 335 338 337
f 335 337 336
f 336 337 79
f 338 81 80
f 337 338 80
f 339 342 81
f 230 313 340
f 230 340 229
f 229 340 341
f 229 341 314
f 314 341 342
f 314 342 338
f 338 342 339
f 338 339 81
f 343 83 82
f 312 311 344
f 312 344 313
f 313 344 340
f 341 343 342
f 342 343 82
f 341 84 83
f 343 341 83
f 345 85 84
f 310 309 346
f 310 346 311
f 311 346 344
f 344 347 340
f 340 347 345
f 340 345 341
f 341 345 84
f 345 347 85
f 86 160 348
f 348 160 347
f 308 307 349
f 308 349 309
f 309 349 346
f 346 350 344
f 344 350 348
f 344 348 347
f 348 350 86
f 223 306 307
f 307 306 349
f 349 351 346
f 346 351 352
f 346 352 350
f 350 352 294
f 350 294 88
f 294 352 89
f 306 353 349
f 349 353 351
f 351 354 352
f 352 354 293
f 352 293 91
f 293 354 92
f 205 355 306
f 306 355 353
f 353 356 351
f 351 356 357
f 351 357 354
f 354 357 292
f 354 292 94
f 292 357 95
f 355 358 353
f 353 358 356
f 356 291 357
f 358 290 356
f 291 356 97
f 102 100 290
f 360 290 358
f 358 355 359
f 359 355 205
f 290 100 99
f 290 99 356
f 356 99 97
f 361 360 358
f 206 359 205
f 326 104 290
f 326 290 360
f 362 361 358
f 362 358 363
f 363 358 359
f 363 359 207
f 207 359 206
f 325 326 360
f 325 360 324
f 324 360 361
f 324 361 323
f 323 361 362
f 323 362 322
f 322 362 363
f 322 363 208
f 208 363 207
f 209 305 364
f 209 364 323
f 323 364 365
f 323 365 324
f 324 365 325
f 325 366 326
f 326 366 105
f 326 105 104
f 325 71 107
f 366 107 105
f 366 325 107
f 304 368 305
f 305 368 364
f 365 367 325
f 325 367 71
f 365 69 71
f 367 365 71
f 227 302 303
f 303 302 369
f 303 369 304
f 304 369 368
f 368 370 364
f 364 370 108
f 364 108 365
f 365 108 69
f 368 372 370
f 370 372 371
f 370 371 108
f 373 109 371
f 369 374 368
f 368 374 372
f 372 373 371
f 373 372 109
f 375 111 109
f 212 301 302
f 302 301 376
f 302 376 369
f 369 376 377
f 369 377 374
f 374 375 372
f 372 375 109
f 378 112 111
f 377 379 374
f 374 379 378
f 374 378 375
f 375 378 111
f 379 113 112
f 378 379 112
f 380 114 113
f 377 381 379
f 379 381 380
f 379 380 113
f 381 115 114
f 214 300 301
f 301 300 382
f 301 382 376
f 376 382 383
f 376 383 377
f 377 383 381
f 380 381 114
f 384 116 115
f 383 385 381
f 381 385 384
f 381 384 115
f 385 386 384
f 384 386 116
f 387 188 386
f 385 387 386
f 289 117 388
f 216 299 300
f 300 299 389
f 300 389 382
f 382 389 390
f 382 390 383
f 383 390 385
f 385 388 387
f 387 388 117
f 387 117 188
f 390 391 385
f 385 391 289
f 385 289 388
f 390 389 391
f 391 288 289
f 289 288 119
f 389 299 391
f 391 287 288
f 297 296 392
f 297 392 298
f 298 392 299
f 299 392 391
f 391 286 287
f 287 286 121
f 392 393 391
f 391 393 285
f 391 285 286
f 295 219 394
f 295 394 296
f 296 394 392
f 392 394 393
f 393 284 285
f 285 284 123
f 393 283 284
f 219 397 394
f 394 397 393
f 393 282 283
f 283 282 125
f 397 395 393
f 393 395 327
f 393 327 282
f 400 397 219
f 400 219 396
f 396 219 231
f 395 281 127
f 395 127 327
f 218 396 231
f 398 131 281
f 398 281 395
f 398 395 397
f 317 400 396
f 399 398 397
f 399 397 400
f 233 317 396
f 141 280 321
f 321 280 320
f 320 280 398
f 320 398 319
f 319 398 399
f 319 399 318
f 318 399 400
f 318 400 317
f 232 317 233
f 66 64 402
f 402 64 65
f 402 65 403
f 404 403 405
f 403 63 405
f 405 63 406
f 406 62 407
f 407 62 408
f 408 61 409
f 409 61 410
f 412 58 413
f 413 58 140
f 58 159 140
f 140 161 414
f 414 161 57
f 414 57 415
f 415 57 56
f 415 56 416
f 416 56 417
f 417 56 55
f 417 55 418
f 418 55 419
f 419 55 53
f 419 53 420
f 420 53 421
f 421 53 52
f 421 52 422
f 422 52 423
f 423 52 50
f 423 50 424
f 424 50 425
f 425 50 49
f 425 49 426
f 426 49 427
f 427 49 46
f 427 46 428
f 46 429 428
f 46 45 429
f 432 431 44
f 432 44 433
f 434 433 435
f 442 187 189
f 189 186 443
f 444 443 40
f 444 40 39
f 444 39 445
f 445 39 446
f 446 39 38
f 446 38 447
f 447 38 448
f 448 38 36
f 448 36 449
f 449 36 450
f 450 36 35
f 450 35 451
f 451 35 452
f 452 35 33
f 452 33 453
f 453 33 454
f 454 33 32
f 454 32 455
f 455 32 456
f 456 32 29
f 456 29 457
f 457 29 458
f 401 458 146
f 401 146 66
f 458 401 457
f 189 443 442
f 414 459 140
f 140 459 413
f 445 460 444
f 443 461 442
f 442 461 462
f 442 462 441
f 441 462 463
f 441 463 440
f 440 463 464
f 440 464 439
f 439 464 465
f 439 465 438
f 438 465 466
f 438 466 437
f 437 466 467
f 437 467 436
f 436 467 468
f 436 468 435
f 435 468 434
f 434 469 433
f 433 469 432
f 432 470 431
f 431 470 471
f 431 471 430
f 430 471 472
f 430 472 429
f 429 472 428
f 422 473 421
f 421 473 474
f 421 474 420
f 420 474 475
f 420 475 419
f 419 475 476
f 419 476 418
f 418 476 477
f 418 477 417
f 417 477 478
f 417 478 416
f 416 478 479
f 416 479 415
f 415 479 480
f 415 480 414
f 414 480 459
f 459 481 413
f 413 481 482
f 413 482 412
f 412 482 483
f 412 483 411
f 411 483 484
f 411 484 410
f 410 484 485
f 410 485 409
f 409 485 486
f 409 486 408
f 408 486 487
f 408 487 407
f 407 487 488
f 407 488 406
f 406 488 489
f 406 489 405
f 405 489 490
f 405 490 404
f 404 490 491
f 404 491 403
f 403 491 492
f 403 492 402
f 402 492 493
f 402 493 66
f 66 493 494
f 66 494 401
f 494 495 401
f 401 495 457
f 460 496 444
f 444 496 497
f 444 497 443
f 443 497 461
f 480 498 459
f 459 498 481
f 495 499 457
f 457 499 500
f 457 500 456
f 456 500 501
f 456 501 455
f 455 501 502
f 455 502 454
f 454 502 503
f 454 503 453
f 453 503 504
f 453 504 452
f 452 504 505
f 452 505 451
f 451 505 506
f 451 506 450
f 450 506 507
f 450 507 449
f 449 507 448
f 448 507 508
f 448 508 447
f 447 508 509
f 447 509 446
f 446 509 16
f 446 16 445
f 445 16 510
f 445 510 460
f 460 510 496
f 497 511 461
f 461 511 512
f 461 512 462
f 462 512 513
f 462 513 463
f 463 513 514
f 463 514 464
f 464 514 515
f 464 515 465
f 465 515 516
f 465 516 466
f 466 516 517
f 466 517 467
f 467 517 518
f 467 518 468
f 468 518 519
f 468 519 434
f 434 519 520
f 434 520 469
f 469 520 521
f 469 521 432
f 432 521 522
f 432 522 470
f 470 522 523
f 470 523 471
f 471 523 524
f 471 524 472
f 472 524 525
f 472 525 428
f 428 525 526
f 428 526 427
f 427 526 527
f 427 527 426
f 426 527 528
f 426 528 425
f 425 528 529
f 425 529 424
f 424 529 530
f 424 530 423
f 423 530 531
f 423 531 422
f 422 531 532
f 422 532 473
f 473 532 533
f 473 533 474
f 474 533 534
f 474 534 475
f 475 534 535
f 475 535 476
f 476 535 536
f 476 536 477
f 477 536 537
f 477 537 478
f 478 537 538
f 478 538 479
f 479 538 539
f 479 539 480
f 480 539 498
f 498 540 481
f 481 540 541
f 481 541 482
f 482 541 542
f 482 542 483
f 483 542 543
f 483 543 484
f 484 543 544
f 484 544 485
f 485 544 545
f 485 545 486
f 486 545 546
f 486 546 487
f 487 546 547
f 487 547 488
f 488 547 548
f 488 548 489
f 489 548 549
f 489 549 490
f 490 549 550
f 490 550 491
f 491 550 492
f 492 550 551
f 492 551 493
f 493 551 552
f 493 552 494
f 494 552 495
f 552 22 495
f 495 22 499
f 499 22 23
f 499 23 500
f 500 23 501
f 501 23 12
f 501 12 502
f 502 12 503
f 503 12 504
f 504 12 13
f 504 13 505
f 505 13 24
f 505 24 506
f 510 16 14
f 510 14 496
f 496 14 511
f 496 511 497
f 511 26 512
f 512 26 25
f 512 25 513
f 513 25 514
f 514 25 15
f 514 15 515
f 515 15 516
f 516 15 517
f 517 15 518
f 518 15 3
f 518 3 519
f 519 3 520
f 520 3 521
f 521 3 5
f 521 5 522
f 522 5 523
f 523 5 4
f 523 4 524
f 524 4 525
f 525 4 6
f 525 6 526
f 526 6 527
f 527 6 528
f 528 6 7
f 528 7 529
f 529 7 8
f 529 8 530
f 531 530 8
f 531 8 532
f 532 8 533
f 533 8 9
f 533 9 534
f 534 9 10
f 534 10 535
f 535 10 11
f 535 11 536
f 537 536 11
f 537 11 538
f 538 11 539
f 539 11 18
f 539 18 498
f 498 18 19
f 498 19 540
f 540 19 20
f 540 20 541
f 542 541 20
f 542 20 543
f 543 20 544
f 544 20 28
f 544 28 545
f 545 28 546
f 552 551 22
f 553 554 555
f 555 554 556
f 555 556 557
f 557 556 558
f 557 558 559
f 559 558 560
f 559 560 561
f 561 560 562
f 561 562 563
f 563 562 564
f 563 564 565
f 565 564 566
f 565 566 567
f 567 566 568
f 567 568 569
f 569 568 570
f 569 570 571
f 571 570 572
f 571 572 573
f 573 572 574
f 573 574 575
f 575 574 576
f 575 576 577
f 577 576 578
f 577 578 579
f 579 578 580
f 579 580 581
f 581 580 582
f 581 582 583
f 583 582 584
f 583 584 585
f 585 584 586
f 585 586 587
f 587 586 588
f 587 588 589
f 589 588 590
f 589 590 591
f 591 590 592
f 591 592 593
f 593 592 594
f 593 594 595
f 595 594 596
f 595 596 597
f 597 596 598
f 597 598 599
f 599 598 600
f 599 600 553
f 553 600 554
f 580 578 601
f 601 578 576
f 601 576 574
f 586 584 601
f 601 584 582
f 601 582 580
f 592 590 601
f 601 590 588
f 601 588 586
f 598 596 601
f 601 596 594
f 601 594 592
f 556 554 601
f 601 554 600
f 601 600 598
f 562 560 601
f 601 560 558
f 601 558 556
f 568 566 601
f 601 566 564
f 601 564 562
f 574 572 601
f 601 572 570
f 601 570 568
f 573 575 602
f 602 575 577
f 602 577 579
f 567 569 602
f 602 569 571
f 602 571 573
f 561 563 602
f 602 563 565
f 602 565 567
f 555 557 602
f 602 557 559
f 602 559 561
f 597 599 602
f 602 599 553
f 602 553 555
f 591 593 602
f 602 593 595
f 602 595 597
f 585 587 602
f 602 587 589
f 602 589 591
f 579 581 602
f 602 581 583
f 602 583 585
