v 0.00376306426 0.00346151755 -0.00914504543
v 0.00465109663 0.00275830202 -0.00900118111
v 0.00536853842 0.00238439534 -0.00862538607
v 0.00797333709 0.00238946725 -0.00636175515
v 0.00848347637 0.00292156071 -0.00545852567
v 0.00858541862 0.00345655359 -0.0048222333
v 0.00867710175 0.00444302381 -0.00393800986
v 0.00198871998 0.00650758913 -0.00770328915
v 0.00256530564 0.00485345076 -0.00894706505
v 0.00288154524 0.00427338418 -0.00889258029
v 0.00766185262 0.00207776791 -0.00718737554
v 0.0082497354 0.00510406292 -0.00339624504
v -0.00125343164 0.00667843119 -0.0104266025
v 0.00573960742 0.00220614418 -0.00840522168
v 0.00697134475 0.00697135338 -0.00287402845
v -0.000908866126 0.0102701128 -0.00693632341
v 0.00777114042 0.00633265334 -0.00304514944
v 0.00914323155 0.00841860004 0.000334959812
v 0.00640291549 0.00775913254 -0.00301364737
v 0.00567663108 0.0081275911 -0.00325976312
v 0.00428526773 0.00858122837 -0.0039580675
v -0.000594988066 0.0107165516 -0.00626219487
v 0.00259938589 0.00828460906 -0.00589668925
v 0.00574063482 0.00898053562 0.00317170103
v 0.00674681782 0.0103938246 0.00138013012
v 0.00349972964 0.010487312 0.00217702301
v 0.00514548359 0.0113285174 0.000791586964
v 0.00352609285 0.0119572024 -8.39929519e-05
v 0.000349474466 0.0112817971 2.79845732e-05
v 0.00196397087 0.0122507799 -0.00120598648
v 0.000533109301 0.0121956735 -0.0025212981
v -0.0022114071 0.010730646 -0.00281960191
v -0.000309691658 0.0119590639 -0.00348794663
v -0.00128353982 0.011431418 -0.00474964252
v -0.00245217663 0.00980751303 -0.00727311392
v -0.00546897658 0.0072454255 -0.00463981327
v -0.00263390627 0.00918354775 -0.00799043882
v -0.00273052632 0.00850707649 -0.00867860808
v -0.00477512671 0.00709042283 -0.00652244979
v -0.00266308121 0.00703140146 -0.00993259806
v -0.00280365379 0.00723373236 -0.00966857373
v -0.00225139909 0.00544806979 -0.0109761897
v -0.00246127119 0.00567251124 -0.0107387558
v -0.00151365964 0.00383051523 -0.0117597127
v -0.00179447564 0.00406389188 -0.0115635517
v -0.000482533981 0.00225380622 -0.0122459074
v -0.000835967055 0.002399047 -0.0120805701
v 0.000128245149 0.00150470665 -0.0123693264
v 0.00277801937 -0.00086727999 -0.0121237257
v 0.00354952714 -0.0034379989 -0.0101271272
v 0.00437737788 -0.00180366206 -0.0115336078
v 0.00599476566 -0.00243449471 -0.0106561127
v 0.00674101958 -0.00419155024 -0.00802424639
v 0.00755526339 -0.00273015565 -0.00953222471
v 0.00898585491 -0.00267706459 -0.00821343811
v 0.00936185461 -0.00358027863 -0.00524470727
v 0.00983502624 -0.00243379204 -0.00725449939
v 0.0107611674 -0.00195380481 -0.0059385482
v 0.0119621918 -0.000297529793 -0.00345220871
v 0.00975321057 -0.00296120009 -0.000191862799
v 0.0121459229 0.000328571956 -0.00273701683
v 0.0106859076 -0.00117984071 -0.000143655003
v 0.0121767922 0.00213904249 -0.000902496619
v 0.011827081 0.00369276216 0.00017608901
v 0.0111531531 0.00529535391 0.00100881952
v 0.0100072557 0.00727096233 0.0015039456
v 0.0101194506 0.00688365029 0.00161104198
v 0.00948399555 0.0081953482 0.00141311501
v -0.0115136036 -0.00437678039 -0.000645066575
v 0.00224690245 -0.00489421426 0.0110959289
v -0.00100852886 -0.000577152105 0.0124151963
v -0.0116873552 0.000877930226 0.00423274702
v -0.0105577142 -0.00649047852 -0.00129927803
v -0.0094047662 -0.00401993262 -0.0033638535
v -0.00982800945 -0.00751356735 -0.00155675468
v -0.00773705055 -0.0057820263 -0.00422055272
v -0.0083829794 -0.00907140529 -0.00165925212
v 0.00216208217 -0.0104032087 0.00651001103
v 0.00103158447 -0.0030334012 0.0120421347
v 0.0035188455 -0.0018666953 0.0100022225
v 0.000304165894 -0.0020169433 0.0123002326
v 0.00151307642 -0.0038333568 0.0117600113
v 0.0026852982 -0.00609213665 0.0103820347
v 0.00294301885 -0.00760362114 0.00923626571
v 0.00273444638 -0.00780450619 0.00932163662
v 0.00286438757 -0.00898143325 0.00791228338
v 0.00262086006 -0.00920792943 0.00797660503
v 0.00245249723 -0.0101656313 0.00646996096
v 0.00173595817 -0.0110564791 0.00520085576
v 0.00376704211 -0.00946207409 0.00245946988
v 0.000752477825 -0.0117435155 0.00371940456
v 0.00267774931 -0.0100903084 0.000962210607
v -0.00032631456 -0.0121535757 0.00279957875
v -0.000483250699 -0.0121176682 0.0022929647
v 0.00136090017 -0.0103903593 -0.000452322382
v -0.00173218293 -0.0122696435 0.00144765485
v -0.00190696928 -0.0121538459 0.000999602267
v -0.000128833182 -0.0103499696 -0.00172192517
v -0.00328046424 -0.012031956 0.000280959466
v -0.00345354536 -0.0118508703 -0.000101674457
v -0.00172407452 -0.00996880057 -0.00279174194
v -0.0048960999 -0.0114526714 -0.000645532214
v -0.00505452896 -0.0112224213 -0.000962121241
v -0.00335867604 -0.00926495647 -0.00361255571
v -0.00643318244 -0.0104501364 -0.00146131014
v -0.00495878974 -0.00826683024 -0.0041502062
v -0.00755706281 -0.0096634343 -0.00170496324
v -0.0110378286 -0.00569303626 -0.0010176831
v -0.0119253151 -0.00314492435 3.96745157e-05
v -0.0120227707 -0.00326567636 0.000261114896
v -0.0121588506 -0.00161095716 0.00115803645
v -0.0122597328 -0.00172060658 0.00142102847
v -0.0120581602 -0.000212731886 0.00245588807
v -0.012146266 -0.000317735552 0.00276546719
v -0.0116273406 0.000990666551 0.00387652903
v -0.0110179342 0.00177430333 0.00527012721
v -0.00894296659 0.00428613545 0.00337818918
v -0.0100357481 0.00246061645 0.00674860867
v -0.00787110454 0.00489711507 0.00489465068
v -0.00923236107 0.00259521344 0.00798003771
v -0.00880001459 0.00283488347 0.00817571834
v -0.0065689274 0.00518190514 0.00632672076
v -0.00782463487 0.00271272533 0.00933064095
v -0.00737627255 0.0028700561 0.00947102767
v -0.00509034137 0.00513156021 0.00760670018
v -0.00627253982 0.00247823252 0.0104939601
v -0.005831081 0.00256561069 0.0105736978
v -0.00350041244 0.00474463584 0.00868330942
v -0.00465168503 0.0019039257 0.0114144544
v -0.00422874935 0.00193536704 0.0114359835
v -0.00186640601 0.00403870347 0.00950664285
v -0.00287878799 0.00113718327 0.0119641022
v -0.000262943076 0.00304523615 0.0100393169
v -0.00179264249 0.000310981226 0.0122515289
v 0.0048887414 0.000660476726 0.00842454487
v 0.006116478 -1.61391186e-05 0.00744871818
v -0.00730583932 -0.00307890163 -0.00569800447
v -0.00752229007 -0.0013888565 -0.00586331789
v 0.00380708917 0.00171270334 0.00886673419
v -0.00654703701 -0.0044539568 -0.00577585947
v -0.00481731642 -0.00201628848 -0.0080620571
v 0.00260037306 0.00141923028 0.00978319072
v 0.00592088691 0.00380650784 0.00658404369
v 0.00888607265 0.00819548537 0.00196661253
v 0.00557428091 -0.00389050646 0.00761483898
v 0.00791559739 0.000556460756 0.00547094248
v 0.00880000818 0.0041682878 0.00391865707
v 0.00719687102 -0.00330286657 0.00549490189
v 0.00965467865 0.00253994646 0.00323712206
v 0.00563488732 -0.00686289499 0.00503471246
v 0.00866324423 -0.0026688797 0.00327443664
v 0.010200857 0.000916768998 0.00228541034
v 0.00748055074 -0.00541146785 0.00244526882
v 0.0104136197 -0.000633225352 0.00110808071
v 0.0114206505 -0.00127574989 -0.00342932722
v 0.00887138612 -0.00447994708 -0.00175328431
v 0.0113346432 -0.00137961498 -0.00499023176
v 0.00562151203 -0.00783326822 0.0014136233
v 0.00806738984 -0.00515578759 -0.00353867023
v 0.00613846451 -0.00691211142 -0.00272755972
v 0.00409449466 -0.00851969529 -0.00188307794
v 0.00544914566 -0.00577768403 -0.00641206645
v 0.00330323597 -0.00719643919 -0.00549553433
v 0.00109481695 -0.00845979774 -0.00448703118
v 0.00225363705 -0.0050355677 -0.0085880977
v 1.69693212e-05 -0.00611633906 -0.0074489228
v -0.00221514577 -0.00705842449 -0.00617843943
v 0.000629985912 -0.00193819128 -0.0109071666
v -0.00211269897 -0.00434958389 -0.0084244129
v -0.00519339197 -0.00589947758 -0.00585585678
v -0.00651387669 -0.00721016506 -0.00421498643
v -0.0036087543 -0.00509943785 -0.00722533353
v -0.00208937063 -0.000832673425 -0.0103100496
v 0.000198797846 0.00119457185 -0.0123257797
v -0.0097954848 -0.000331172816 -0.00285418676
v -0.00650829064 0.000851169789 -0.00705803744
v -0.00357490124 0.00105808349 -0.0098117622
v -0.0086048839 0.00189476056 -0.00390708876
v -0.00443062372 0.00268458259 -0.00912853974
v -0.00985656773 0.00264113304 -0.00027363288
v -0.00725626532 0.00407577538 -0.004861203
v -0.00497896828 0.00430574418 -0.00817412188
v -0.00790147682 0.00499029802 -0.00197108982
v -0.00519893952 0.00584787767 -0.00698911871
v -0.00285572948 0.00984076999 -0.00623026292
v -0.00498026202 0.00837129548 -0.0026353542
v -0.0018093731 0.0109049023 -0.00575233674
v -0.00794827164 0.00550645852 0.00121024723
v -0.00384641626 0.00937649059 -0.00122116794
v -0.00473104761 0.0083195488 0.00114002341
v -0.00550262161 0.00711166944 0.00347073339
v -0.00122868464 0.0099978065 0.00165266055
v -0.00189541427 0.00860430173 0.00390775908
v -0.00250382066 0.00705100466 0.00607574644
v 0.00196744119 0.00925635209 0.00382782622
v 0.00139142535 0.0075242372 0.00586103214
v 0.00433987046 0.00778779871 0.00480055192
v 0.000806279104 0.00564925684 0.00776765807
v 0.00677631835 0.0081432403 0.00334893489
v 0.00663029978 0.00592647668 0.00501128484
v 0.00377106149 0.00587311471 0.00656646669
v 0.00277768115 0.0041804851 0.00814782405
v 0.00139292035 0.00150539793 0.010355517
v 0.000510013705 -0.00467989309 0.0115396121
v -0.00259889622 -0.00810498587 0.00574587607
v -0.00316299414 -0.00858517924 0.00515442751
v -0.00228254653 -0.00547439947 0.00852798437
v -0.00198282394 -0.00672926692 0.00751192408
v -0.00225420667 -0.00774838995 0.00668122741
v 0.00131700973 -0.00920659891 0.00824116492
v 0.000453863124 -0.010888701 0.00598444047
v -0.00318743502 -0.00407478538 0.00911129029
v -0.00396504536 -0.00863663393 0.00429879605
v -0.00751619914 -0.00671640375 0.00295104889
v -0.00792224385 -0.00603073352 0.00312783057
v -0.00831594516 -0.005376168 0.00339136735
v -0.0086266947 -0.00442864223 0.00397429459
v -0.00583979307 -0.00791340276 0.00304210514
v -0.00607873459 -0.0108353554 0.000239360568
v -0.00688024662 -0.0104694636 -0.000158628608
v -0.00679005643 -0.0104071557 -1.16941955e-05
v -0.00535775681 -0.0111980497 0.000556934116
v -0.0087012438 -0.00345062361 0.00479405975
v -0.00848409296 -0.00308306831 0.00524255411
v -0.00833105318 -0.00274712538 0.00572767174
v -0.0037538668 -0.00347077357 0.00914488257
v -0.0105482595 0.000739824273 0.00653986064
v -0.00421489735 -0.00294292561 0.00889014029
v -0.00751956767 -0.00214638976 0.00691361922
v -0.00691806229 -0.00204474979 0.00760238232
v -0.00540569403 -0.00230850919 0.00855394545
v -0.0034212218 -0.000285883952 0.0119498365
v -0.00134068854 -0.000209662789 0.00584277965
v -0.00294329186 0.000602001037 0.00514148497
v -0.00428883674 0.000793073739 0.00411776735
v -0.00564870762 -0.000230225554 0.00200471495
v -0.00561664347 -0.00196185906 0.00049760235
v -0.00485836589 -0.00346605346 -0.000163653249
v -0.00326728474 -0.00502842306 -0.000138213053
v -0.00102056262 -0.00579257005 0.0011762522
v 0.000349167026 -0.00519571851 0.00292008427
v 0.000812440407 -0.00378368374 0.00458290041
v -0.00355239933 -0.0036732187 0.000810670947
v -0.00193788784 -0.00457527733 0.00144230331
v -0.000481938518 -0.00410822992 0.0031474397
v -0.00045837422 -0.00295842281 0.00418781066
v -0.000106451876 -0.00236606169 0.00502510892
v -0.00166479596 -0.00111613879 0.00475160854
v -0.00303754197 -0.000400305751 0.00416916675
v -0.00432995513 -0.000721173408 0.00273873847
v -0.00454301226 -0.00207680712 0.00134772256
v 0.00233389183 0.00443517928 -0.00121539335
v 0.00108815409 0.00454264192 -0.00222471821
v 0.000365085471 0.0035510293 -0.00374515051
v 0.000885425245 0.00193623252 -0.00471544547
v 0.00209448335 0.00080950285 -0.00464246038
v 0.00295840244 0.000458413448 -0.00418783403
v 0.00366780252 0.000409632921 -0.00360209609
v 0.00425551872 0.000720018234 -0.00280572152
v 0.00454956065 0.001226954 -0.00209547134
v 0.00471464438 0.00256371208 -0.000763861731
v 0.00367328555 0.00355231271 -0.000810661371
v 0.00558839937 9.59591995e-05 -0.00217718608
v 0.00412791786 -0.000810412458 -0.00427588373
v 0.00189996287 -0.000173665828 -0.00568673313
v 0.00159097721 0.00570559629 -0.000747693047
v 0.00309740374 0.005103624 5.43441994e-05
v 0.00476618672 0.00363452214 0.000231343062
v 0.00572656135 0.00130247482 -0.000984918835
v 0.000459894937 0.00110011705 -0.00583423353
v -0.000471976045 0.00247013191 -0.00544564988
v -0.000724696827 0.00459847883 -0.00378265791
v 0.000275437859 0.00562306549 -0.0019873367
v -0.00350154585 0.00106277424 0.0120547867
v -0.00665522216 0.00231363932 0.0104835149
v -0.00863458176 0.0025443972 0.00879453444
v -0.00993324776 0.00225835451 0.00738929534
v -0.0104864067 0.00203973244 0.00659384722
v -0.00587810919 -0.011184764 -0.000762712979
v -0.00322655221 -0.0121944324 0.000659802689
v -0.00115086098 -0.0123297631 0.00224148059
v 0.000147805017 -0.01204378 0.00364660048
v 0.00077778903 -0.0117484522 0.00435599629
v -0.00594046375 0.00116525503 0.0109782863
v -0.0066594044 0.00135932487 0.0105216703
v -0.00773243429 0.00162254652 0.00977300052
v -0.00969748702 0.00147811963 0.0079040775
v -0.0115074273 0.000153000397 0.00512419849
v -0.0121573875 -0.00216714627 0.00249061566
v -0.0116360297 -0.00469035833 0.000729306836
v -0.0045578505 -0.0116350429 0.000863261804
v -0.00386454125 -0.0118885099 0.00122188353
v -0.00237235518 -0.0121131736 0.00236112491
v -0.00022971958 -0.0117306332 0.00458695669
v 0.00131398146 -0.0101252928 0.00737917259
v 0.00155296946 -0.00861580595 0.00895863992
v 0.00167621364 -0.00787908274 0.00968546947
v 0.00135111928 -0.00607819953 0.010974614
v -0.0102774094 -0.0072757269 -0.000372065596
v -0.000195313964 -0.00319780164 0.0121834266
v -0.00159837266 -0.00159836403 0.0123553159
v -0.000543382643 -0.0024110421 0.0124415672
v -0.000658345244 -0.00194062216 0.012535808
v -0.00015299148 -0.00215128111 0.0125232463
v -0.000948205191 -0.000948256169 0.0125129106
v -0.00887311955 -0.00887317053 -0.000545513394
v -0.0098394243 -0.00797189456 -0.000731791117
v -0.00957249778 -0.00828961207 -0.000997854576
v -0.00923603373 -0.00857967875 -0.0012527893
v -0.00817792133 -0.00948662043 -0.00146453195
v -0.00420428773 -0.0118614494 -5.06756332e-05
v -0.00558115502 0.0020760239 0.0110865715
v -0.00028730889 -0.00165540567 0.0124719026
v 0.00126007576 -0.00519680052 0.0115090299
v 0.00109061257 -0.00429712794 0.0119103566
v 0.000319466394 -0.00240046373 0.0123493555
v 0.00110250181 -0.00370110363 0.0120281836
v 0.00174878578 -0.00477445713 0.0115116718
v 0.00204494132 -0.00798394605 0.00966654573
v 0.00220238133 -0.00720314412 0.0102300933
v 0.00199392175 -0.00565529849 0.0111190966
v 0.00232158641 -0.00637972942 0.0105962636
v 0.00173473494 -0.00966645338 0.00802822786
v 0.00245778798 -0.00678735222 0.0102991058
v 0.00255714397 -0.0079154431 0.00944350981
v 0.00174426903 -0.0102944836 0.00726897965
v 0.0024013541 -0.00893860953 0.00862492531
v 0.00244437198 -0.00930977455 0.00810705447
v 0.000827275965 -0.0111736972 0.00588016639
v 0.00205567679 -0.0101927487 0.00720681522
v 0.00198851566 -0.0104976355 0.0066496017
v 0.000334536185 -0.0116934907 0.00491610096
v 0.000816372966 -0.0116834922 0.00493080014
v 0.00168974895 -0.0109832728 0.00584503787
v 0.00121091346 -0.0114233553 0.00513922
v -0.00191880635 -0.0122955607 0.00245746527
v -0.00110756814 -0.0123291342 0.0029362842
v -0.000852098334 -0.0123190945 0.00276018052
v -0.00426337014 -0.011955188 0.000515830568
v -0.00326877887 -0.0122091164 0.00111069038
v -0.00227158575 -0.0123612799 0.00146429832
v -0.005286396 -0.0115005034 0.000224399437
v -0.00641387317 -0.0109033709 -0.000300777295
v -0.00784001055 -0.00988625975 -0.0005887469
v -0.0070949091 -0.0104924913 -0.00102749238
v -0.00714381121 -0.0104974406 -0.000791709646
v -0.00822104474 -0.00948262802 -0.000507724049
v -0.00949897803 -0.00795903961 -0.00161156723
v -0.0112899524 -0.00571383008 -2.2784835e-05
v -0.0112229087 -0.00592839226 -0.000489464339
v -0.0104362697 -0.00710913915 -0.00101337773
v -0.0104104368 -0.00697955686 -0.00122609594
v -0.0117828526 -0.0046946561 0.000377502392
v -0.0113633389 -0.00538885882 -0.000659621299
v -0.0122971192 -0.00200711167 0.00237780878
v -0.0123551141 -0.00256545853 0.00162061044
v -0.0119997702 -0.00400055384 0.000234186968
v -0.0121070292 -0.00340569607 0.000439632175
v -0.0123438982 -0.00244221239 0.00131073813
v -0.0123425867 -0.0018699824 0.00159250521
v -0.0116138893 0.00036606495 0.00508789681
v -0.0119816539 5.6785404e-05 0.00427706542
v -0.0123431936 -0.00100358478 0.00258719369
v -0.0122298147 -0.000475591336 0.00292884135
v -0.0119974658 0.000251418775 0.00400639986
v -0.0117739584 0.000712210025 0.00438629412
v -0.00974305828 0.00171196595 0.00794003754
v -0.0103396086 0.00172272579 0.00720990242
v -0.0108582172 0.00164157634 0.0063944017
v -0.0114000195 0.00127288852 0.00510613177
v -0.010996237 0.00163798937 0.00589667582
v -0.0070319693 0.00178157942 0.0104057483
v -0.0077324765 0.00212345392 0.0098770614
v -0.00910188683 0.0023652342 0.00846550423
v -0.00768186348 0.00240749768 0.00976193262
v -0.00477995556 0.0013764635 0.0117001551
v -0.00575325917 0.00176431432 0.0111642655
v -0.00485343208 0.00073060033 0.0115517146
v -0.00384880312 0.000728524309 0.0120680269
v -0.00403782495 0.000459152797 0.0119584001
v -0.00293756982 -0.000429278527 0.0122045162
v -0.00207329023 -6.4689846e-05 0.0124711103
v -0.00317753626 0.000404183632 0.0123225293
v -0.00258274453 -0.000553619469 0.0123506414
v 0.00886369841 0.008894997 0.00138091615
v 0.010128674 0.00745051019 0.00122161285
v 0.0109257688 0.00626518908 0.000946160996
v 0.011137785 0.00591873065 0.000745686391
v 0.0115387866 0.00512753918 0.000409049644
v 0.0118591365 0.00429116811 6.69277036e-05
v 0.0121206774 0.00352850944 -0.00049344588
v 0.0122793473 0.00271136443 -0.00096081751
v 0.0123673715 0.00199602756 -0.00163347766
v 0.0123564932 0.00123506399 -0.00219971032
v 0.0122674297 0.000601431562 -0.00295862653
v 0.0120883095 -2.31013346e-05 -0.00367117017
v 0.0117850657 -0.000714525998 -0.00426601697
v 0.011583005 -0.00104555262 -0.00473261937
v 0.0110398397 -0.00154266711 -0.00594423968
v 0.010544903 -0.0018935925 -0.00669395692
v 0.00998424861 -0.00216382463 -0.00743142943
v 0.00936479608 -0.00235096189 -0.00814659559
v 0.00869347357 -0.00245231041 -0.00883207724
v 0.0079785305 -0.00246737954 -0.00947877563
v 0.00722756638 -0.00239496369 -0.0100806933
v 0.00645047724 -0.00223663726 -0.0106293316
v 0.00565536769 -0.00199396567 -0.011119079
v 0.00485233902 -0.00167010279 -0.0115437362
v 0.00405015813 -0.00126819083 -0.0118987681
v 0.00325889009 -0.000793535207 -0.0121795718
v 0.00248727546 -0.000251444931 -0.0123832054
v 0.00159757677 0.000211110453 -0.0124372431
v 0.0010395343 0.00100866835 -0.0125497919
v 0.000380265628 0.00171175612 -0.0125107633
v -0.000225376768 0.00245303333 -0.0123905622
v -0.000770303749 0.00322297325 -0.0121905737
v -0.00122615238 0.00399296542 -0.0119241851
v -0.00163323767 0.0047781723 -0.0115803251
v -0.00196460624 0.00558135518 -0.0111620425
v -0.0022149959 0.00637725222 -0.0106783228
v -0.00238132505 0.00715645993 -0.0101349204
v -0.00246162441 0.00791008102 -0.00953804774
v -0.00245508416 0.00862868639 -0.00889506834
v -0.00236175303 0.00930420343 -0.00821326825
v -0.00218243879 0.00992885314 -0.00750057933
v -0.0020771817 0.0104227258 -0.00668179406
v -0.00187971189 0.0107488264 -0.00621192019
v -0.0011363778 0.0114458538 -0.00522447029
v -0.000641544194 0.0117966003 -0.00447461461
v -8.09947786e-05 0.0120671832 -0.00373759275
v 0.000538396953 0.0122543093 -0.00302229387
v 0.00120991207 0.0123558853 -0.00233721639
v 0.00192527826 0.0123706256 -0.0016899391
v 0.00267551483 0.0122984028 -0.0010884638
v 0.00345296385 0.012139989 -0.000539611143
v 0.00424772976 0.0118973463 -4.99045995e-05
v 0.00505121203 0.0115731979 0.000374975889
v 0.00585284665 0.011171572 0.000729806289
v 0.00664466932 0.0106968282 0.00101053856
v 0.00741573052 0.0101550237 0.00121437256
v 0.00808105223 0.00946938626 0.00152048504
v 0.00824945374 0.00957029819 0.00109936855
v -0.0013254987 0.011053969 -0.00607509706
v -0.00167022654 0.0105663257 -0.00681298149
v 0.00188498943 0.000564483994 -0.0125292481
v 0.011460148 -0.000919175139 -0.00535474262
v 0.0118047174 -0.000431791555 -0.00461686924
v 0.00757041598 0.0101403308 0.000742618481
v 0.0068283364 0.0106658359 0.000550659206
v 0.00606661909 0.01112675 0.000283836904
v 0.0052944019 0.0115175928 -5.42459309e-05
v 0.00451983054 0.0118341875 -0.000460222187
v 0.00375398926 0.0120719873 -0.000928637746
v 0.00300381902 0.0122290467 -0.00145463099
v 0.00227914585 0.0123030874 -0.00203158322
v 0.00158835276 0.0122933658 -0.00265291131
v 0.000938298783 0.0122001142 -0.00331155759
v 0.000338797912 0.0120242157 -0.00399898476
v -0.000204603715 0.0117676682 -0.00470836615
v -0.000684885766 0.0114338213 -0.00543020378
v -0.00169654868 0.0100103922 -0.00758954846
v -0.0018776589 0.00941358072 -0.00827939783
v -0.0019758585 0.00876774054 -0.00893926558
v -0.0019909437 0.00807857168 -0.00956354987
v -0.00192215998 0.00735558893 -0.0101434879
v -0.00177026804 0.00660714139 -0.0106723849
v -0.0015371161 0.00584079465 -0.0111450713
v -0.00122539203 0.00506752021 -0.0115545476
v -0.00083885598 0.00429473115 -0.0118971236
v -0.00038221312 0.00353233511 -0.0121682147
v 0.00013943527 0.00278865153 -0.0123649446
v 0.000720202165 0.00207251135 -0.0124849862
v 0.00135228787 0.00139371139 -0.0125266017
v 0.00274346246 0.000173730153 -0.0123746326
v 0.00348577582 -0.000351879946 -0.0121825499
v 0.00424725853 -0.000812698197 -0.0119159607
v 0.00501961112 -0.0012036907 -0.011577716
v 0.00579369834 -0.00152014327 -0.0111719114
v 0.00655984165 -0.00175784778 -0.0107035578
v 0.00731041278 -0.00191520094 -0.010177378
v 0.00803524398 -0.00198921336 -0.00960037396
v 0.0087256344 -0.00197935754 -0.00897958555
v 0.00937555168 -0.00188614359 -0.00832052055
v 0.00997481899 -0.00171027179 -0.00763317588
v 0.0105188274 -0.00145366843 -0.00692322991
v 0.0109986086 -0.0011199587 -0.00620204345
v 0.0120105543 0.000303626634 -0.0040425387
v 0.0121915272 0.00090028877 -0.0033531233
v 0.0122901384 0.00154680581 -0.00269240056
v 0.0123049816 0.00223524552 -0.00206888933
v 0.0122359586 0.00295801594 -0.00148928401
v 0.0120840166 0.0037073736 -0.000959434338
v 0.0118510611 0.00447249065 -0.000487485099
v 0.0115392295 0.00524685067 -7.69475803e-05
v 0.011153038 0.0060188915 0.000264791471
v 0.0106960252 0.00678200642 0.000536224933
v 0.0101743166 0.00752570897 0.000733117918
v 0.00959390495 0.0082412615 0.000853080138
v 0.00896174768 0.00892045622 0.000894334808
v 0.00830306473 0.00947777065 0.000622433782
v -0.00085799861 0.0109626837 -0.00618376672
v -0.00119132258 0.0105018954 -0.00688805277
v 0.00213676237 0.000961605986 -0.0123961813
v 0.0112971424 -0.000523513863 -0.00559064566
v 0.0116312875 -6.19621116e-05 -0.00488513504
v 0.0075340126 0.0100422443 0.000394809482
v 0.00681994895 0.0105455459 0.000207889316
v 0.00608740787 0.0109866203 -5.06756332e-05
v 0.0054693137 0.0112738008 -0.000370144753
v 0.00472763365 0.0115859889 -0.000750992561
v 0.00403736322 0.011805408 -0.00117295204
v 0.00327762726 0.0119814917 -0.00168602497
v 0.00262157918 0.0120539933 -0.00220778738
v 0.00191688488 0.0120629207 -0.00282044987
v 0.00133166713 0.0119839446 -0.00341367092
v 0.000587568086 0.0118302048 -0.00417925096
v 6.7100328e-05 0.0115813554 -0.00486136651
v -0.000392689902 0.0112580598 -0.00555564142
v -0.00129004779 0.00991115367 -0.00756809416
v 0.00167340642 0.00709733771 -0.00797821401
v -0.00158889382 0.00842709229 -0.00915174208
v -0.00156547089 0.00732737192 -0.010080826
v -0.00141693612 0.00660704979 -0.0105879424
v -0.00119043847 0.0058706344 -0.0110401032
v -0.000888719756 0.00512676844 -0.0114320633
v -0.000311119553 0.00411893775 -0.0118416474
v 0.000389415773 0.00307111811 -0.0121475731
v 0.000988945764 0.00225042709 -0.0123175499
v 0.00159834365 0.00159835228 -0.0123553393
v 0.00293754081 0.000429266777 -0.0122045395
v 0.00365160446 -7.40348438e-05 -0.0120177386
v 0.00438414554 -0.00051504961 -0.0117591736
v 0.0051267002 -0.000888651524 -0.0114320633
v 0.00576124808 -0.00109602717 -0.0110794248
v 0.00688461889 -0.00143318231 -0.010384329
v 0.00790705486 -0.00157274258 -0.00959957944
v 0.00853574658 -0.00156587339 -0.00904037242
v 0.00988398532 -0.00135863415 -0.00763059831
v 0.0104044531 -0.00110978476 -0.00694848275
v 0.0108642433 -0.000786548767 -0.00625408864
v 0.0118301962 0.000587576713 -0.00417925096
v 0.0120017384 0.00116252312 -0.00351728177
v 0.0120469379 0.00171883528 -0.00301012725
v 0.0121056889 0.00244837412 -0.00228501535
v 0.0120370243 0.00314413914 -0.00172890401
v 0.0117818826 0.00415907371 -0.00108337446
v 0.0113777943 0.00524054302 -0.000480823462
v 0.010986552 0.00608735689 -5.06756332e-05
v 0.0105455969 0.00681995758 0.000207889316
v 0.0100422953 0.00753402122 0.000394809482
v 0.00948260764 0.00822108396 0.000507700679
v 0.00887320976 0.00887315878 0.000545609233
v -0.00624920388 -0.00624919525 0.00896631503
v 0.00727473239 0.0078237594 -0.00666083074
v -0.00654627343 -0.00599718681 0.00892637992
v 0.00695286731 0.00801354059 -0.00677801347
v -0.00686813851 -0.00580746523 0.00880919718
v 0.00662814121 0.00812810072 -0.00696433759
v -0.00719286461 -0.0056928455 0.00862287307
v 0.0063226078 0.00815969118 -0.00720728612
v -0.00749839802 -0.00566125504 0.00838004374
v 0.00605712871 0.00810616621 -0.00749005056
v -0.00776387711 -0.00571478001 0.0080971601
v 0.00584982375 0.00797116169 -0.00779367662
v -0.00797118207 -0.00584984413 0.00779365325
v 0.00571475963 0.00776385673 -0.00809718347
v -0.00810612698 -0.00605714909 0.0074901464
v 0.00566123466 0.00749837765 -0.0083799479
v -0.00815965195 -0.00632256857 0.00720726275
v 0.00569282512 0.00719284424 -0.00862289644
v -0.00812806149 -0.00662810198 0.00696431422
v 0.00580738525 0.00686811813 -0.00880922056
v -0.00801350136 -0.00695288769 0.0067779901
v 0.00599716644 0.00654619345 -0.00892640329
v -0.00782372018 -0.00727475277 0.00666080737
v 0.00624917487 0.0062491835 -0.0089663384
v -0.00757183095 -0.00757176271 0.00662087226
v 0.00654624442 0.00599717506 -0.00892640329
v -0.0072747614 -0.00782377115 0.00666080737
v 0.00686810951 0.00580745348 -0.00880922056
v -0.00695289632 -0.00801349274 0.0067779901
v 0.00719283561 0.00569283375 -0.00862289644
v -0.006628051 -0.00812811247 0.00696431422
v 0.00749836902 0.00566124329 -0.0083799479
v -0.00632251759 -0.00815970293 0.00720726275
v 0.00776384811 0.00571482786 -0.00809718347
v -0.00605715771 -0.00810617796 0.0074901464
v 0.00797115306 0.00584983238 -0.00779367662
v -0.00584985276 -0.00797111383 0.00779365325
v 0.00810621719 0.00605713734 -0.00749005056
v -0.00571478863 -0.00776380888 0.0080971601
v 0.00815974216 0.00632255682 -0.00720728612
v -0.00566126366 -0.0074983894 0.00838004374
v 0.0081281517 0.00662809023 -0.00696433759
v -0.00569285412 -0.00719285599 0.00862287307
v 0.00801347236 0.00695287594 -0.00677801347
v -0.00580741425 -0.00686807028 0.00880919718
v 0.00782381038 0.00727474102 -0.00666083074
v -0.00599719544 -0.0065462052 0.00892637992
v 0.00757180194 0.00757181057 -0.00662089563
v 0.0069104288 0.00691049704 -0.00779367662
v -0.00691045781 -0.00691050879 0.00779365325
f 10 526 9
f 10 1 527
f 10 527 526
f 9 13 8
f 8 13 521
f 537 536 11
f 11 536 535
f 11 535 14
f 14 535 534
f 8 521 520
f 520 519 16
f 12 546 7
f 12 17 547
f 12 547 546
f 19 18 15
f 15 18 17
f 16 22 520
f 520 22 23
f 21 511 510
f 21 510 509
f 21 513 512
f 21 512 511
f 23 515 21
f 21 515 514
f 21 514 513
f 80 82 70
f 83 324 84
f 84 85 86
f 86 87 88
f 74 108 69
f 109 110 111
f 111 112 113
f 113 114 115
f 79 82 80
f 135 80 136
f 73 108 74
f 137 74 138
f 81 79 80
f 75 73 74
f 142 81 80
f 142 80 139
f 139 80 135
f 135 136 143
f 76 75 74
f 76 74 140
f 140 74 137
f 137 138 141
f 71 81 203
f 203 81 142
f 139 135 143
f 348 75 76
f 140 137 141
f 142 139 143
f 70 83 145
f 70 145 80
f 80 145 136
f 136 146 143
f 143 146 147
f 143 147 200
f 200 147 67
f 200 67 144
f 144 67 66
f 144 66 68
f 83 84 145
f 145 148 136
f 136 148 146
f 146 149 147
f 147 149 65
f 147 65 387
f 147 387 67
f 84 86 150
f 84 150 145
f 145 150 148
f 148 151 146
f 146 151 152
f 146 152 149
f 149 152 64
f 149 64 390
f 149 390 65
f 86 88 150
f 150 153 148
f 148 153 151
f 151 154 152
f 152 154 63
f 152 63 392
f 152 392 64
f 88 158 150
f 150 158 153
f 153 60 151
f 151 60 62
f 151 62 154
f 154 62 394
f 154 394 63
f 62 61 394
f 158 156 153
f 153 156 155
f 153 155 60
f 62 60 59
f 62 59 61
f 60 155 397
f 60 397 59
f 56 58 156
f 56 156 159
f 90 158 89
f 89 158 88
f 89 88 334
f 334 88 78
f 58 157 156
f 156 157 155
f 155 398 397
f 160 159 156
f 160 156 158
f 57 58 56
f 161 160 158
f 161 158 92
f 92 158 90
f 92 90 91
f 91 90 283
f 283 90 89
f 55 57 56
f 53 55 56
f 53 56 162
f 162 56 159
f 162 159 160
f 95 161 92
f 95 92 94
f 94 92 93
f 93 92 91
f 54 55 53
f 163 162 160
f 163 160 161
f 164 163 161
f 164 161 98
f 98 161 95
f 98 95 97
f 97 95 96
f 96 95 94
f 52 54 53
f 50 52 53
f 50 53 165
f 165 53 162
f 165 162 163
f 101 164 98
f 101 98 100
f 100 98 99
f 99 98 97
f 51 52 50
f 166 165 163
f 166 163 164
f 167 166 164
f 167 164 104
f 104 164 101
f 104 101 103
f 103 101 102
f 102 101 100
f 49 51 50
f 168 49 50
f 168 50 169
f 169 50 165
f 169 165 166
f 106 167 104
f 106 104 105
f 105 104 103
f 412 49 168
f 172 169 166
f 172 166 167
f 106 105 107
f 170 172 167
f 170 167 171
f 171 167 106
f 171 106 107
f 107 77 171
f 169 173 168
f 168 173 412
f 412 173 174
f 77 348 171
f 171 348 170
f 170 348 76
f 170 76 172
f 172 76 140
f 172 140 169
f 169 140 141
f 169 141 173
f 69 109 175
f 69 175 74
f 74 175 138
f 138 176 141
f 141 176 177
f 141 177 173
f 173 177 47
f 173 47 174
f 174 47 46
f 174 46 48
f 109 111 175
f 175 178 138
f 138 178 176
f 176 179 177
f 177 179 45
f 177 45 44
f 177 44 47
f 111 113 180
f 111 180 175
f 175 180 178
f 178 181 176
f 176 181 182
f 176 182 179
f 179 182 43
f 179 43 42
f 179 42 45
f 113 115 180
f 180 183 178
f 178 183 181
f 181 184 182
f 182 184 41
f 182 41 40
f 182 40 43
f 115 188 180
f 180 188 183
f 183 36 181
f 181 36 39
f 181 39 184
f 184 39 38
f 184 38 41
f 39 37 38
f 188 186 183
f 183 186 185
f 183 185 36
f 39 36 35
f 39 35 37
f 36 185 426
f 36 426 35
f 32 34 186
f 32 186 189
f 117 188 116
f 116 188 115
f 116 115 370
f 370 115 72
f 34 187 186
f 186 187 185
f 185 427 426
f 190 189 186
f 190 186 188
f 33 34 32
f 191 190 188
f 191 188 119
f 119 188 117
f 119 117 118
f 118 117 278
f 278 117 116
f 31 33 32
f 29 31 32
f 29 32 192
f 192 32 189
f 192 189 190
f 122 191 119
f 122 119 121
f 121 119 120
f 120 119 118
f 30 31 29
f 193 192 190
f 193 190 191
f 194 193 191
f 194 191 125
f 125 191 122
f 125 122 124
f 124 122 123
f 123 122 121
f 28 30 29
f 26 28 29
f 26 29 195
f 195 29 192
f 195 192 193
f 128 194 125
f 128 125 127
f 127 125 126
f 126 125 124
f 27 28 26
f 196 195 193
f 196 193 194
f 198 196 194
f 198 194 131
f 131 194 128
f 131 128 130
f 130 128 129
f 129 128 127
f 25 27 26
f 24 25 26
f 24 26 197
f 197 26 195
f 197 195 196
f 133 198 131
f 133 131 132
f 132 131 130
f 441 25 24
f 201 197 196
f 201 196 198
f 133 132 134
f 199 441 24
f 199 24 200
f 200 24 197
f 200 197 201
f 202 201 198
f 202 198 203
f 203 198 133
f 203 133 134
f 134 71 203
f 202 203 142
f 202 142 201
f 201 142 143
f 201 143 200
f 199 200 144
f 199 144 441
f 207 208 297
f 208 296 297
f 208 209 210
f 208 210 296
f 206 211 205
f 205 211 209
f 207 204 212
f 214 220 218
f 218 220 221
f 218 221 219
f 219 222 218
f 218 222 291
f 218 291 213
f 213 291 293
f 227 225 229
f 285 230 231
f 231 284 285
f 226 232 228
f 228 232 231
f 231 232 378
f 233 226 228
f 233 228 231
f 233 231 234
f 234 231 235
f 235 231 230
f 235 230 229
f 235 229 236
f 236 229 225
f 236 225 224
f 236 224 223
f 236 223 237
f 237 223 217
f 237 217 216
f 237 216 238
f 238 216 215
f 238 215 214
f 238 214 239
f 239 214 218
f 239 218 240
f 240 218 213
f 240 213 206
f 240 206 241
f 241 206 205
f 241 205 209
f 241 209 242
f 242 209 208
f 242 208 207
f 242 207 247
f 247 207 212
f 247 212 233
f 233 212 226
f 243 238 239
f 243 239 244
f 244 239 240
f 244 240 245
f 245 240 241
f 245 241 242
f 245 242 246
f 246 242 247
f 248 247 233
f 248 233 249
f 233 234 249
f 249 234 235
f 249 235 250
f 250 235 236
f 250 236 251
f 251 236 237
f 251 237 243
f 243 237 238
f 262 248 252
f 252 248 249
f 252 249 253
f 253 249 250
f 253 250 254
f 254 250 251
f 254 251 255
f 255 251 243
f 255 243 256
f 256 243 244
f 256 244 257
f 257 244 258
f 258 244 245
f 258 245 259
f 259 245 260
f 260 245 261
f 261 245 246
f 261 246 247
f 261 247 262
f 262 247 248
f 260 263 259
f 259 263 258
f 258 263 264
f 258 264 257
f 257 264 256
f 256 264 265
f 256 265 255
f 253 266 252
f 252 266 267
f 252 267 262
f 262 267 268
f 262 268 261
f 260 261 269
f 260 269 263
f 255 265 270
f 255 270 271
f 255 271 254
f 254 271 272
f 254 272 253
f 253 272 273
f 253 273 266
f 15 268 19
f 19 268 267
f 19 267 20
f 20 267 21
f 21 267 266
f 21 266 273
f 21 273 23
f 23 273 520
f 520 273 272
f 520 272 8
f 8 272 271
f 8 271 9
f 9 271 10
f 10 271 270
f 10 270 1
f 1 270 265
f 1 265 2
f 2 265 3
f 3 265 14
f 14 265 264
f 14 264 11
f 11 264 4
f 4 264 263
f 4 263 5
f 5 263 6
f 6 263 7
f 7 263 269
f 7 269 12
f 12 269 261
f 12 261 268
f 12 268 17
f 17 268 15
f 134 132 274
f 127 126 275
f 126 124 275
f 124 123 375
f 123 121 276
f 121 120 374
f 120 118 277
f 107 105 279
f 100 99 280
f 99 97 280
f 97 96 341
f 96 94 281
f 94 93 338
f 93 91 282
f 286 230 285
f 287 229 230
f 287 227 229
f 288 225 227
f 288 224 225
f 289 223 224
f 289 217 223
f 290 216 217
f 299 216 290
f 294 206 213
f 294 211 206
f 295 209 211
f 295 210 209
f 298 207 297
f 298 204 207
f 215 216 299
f 212 204 300
f 214 215 299
f 226 212 301
f 301 212 300
f 301 300 302
f 306 214 299
f 306 299 307
f 313 81 71
f 204 298 300
f 300 298 314
f 300 314 302
f 302 314 315
f 302 315 303
f 303 315 304
f 304 313 305
f 305 313 71
f 304 316 313
f 313 316 81
f 317 79 81
f 315 317 304
f 304 317 316
f 316 317 81
f 317 82 79
f 318 70 82
f 297 319 298
f 298 319 320
f 298 320 314
f 314 320 321
f 314 321 315
f 315 321 318
f 315 318 317
f 317 318 82
f 321 83 70
f 318 321 70
f 322 324 83
f 210 295 296
f 296 295 323
f 296 323 297
f 297 323 319
f 320 322 321
f 321 322 83
f 320 324 322
f 325 85 84
f 323 326 319
f 319 326 327
f 319 327 320
f 320 327 325
f 320 325 324
f 324 325 84
f 327 86 85
f 325 327 85
f 328 87 86
f 211 294 295
f 295 294 329
f 295 329 323
f 323 329 326
f 326 330 327
f 327 330 328
f 327 328 86
f 330 88 87
f 328 330 87
f 331 78 88
f 294 332 329
f 329 332 326
f 326 332 333
f 326 333 330
f 330 333 331
f 330 331 88
f 333 334 331
f 331 334 78
f 283 89 335
f 213 293 294
f 294 293 336
f 294 336 332
f 332 336 337
f 332 337 333
f 333 335 334
f 334 335 89
f 333 283 335
f 337 338 333
f 333 338 282
f 333 282 283
f 283 282 91
f 291 292 293
f 293 292 336
f 282 338 93
f 292 291 339
f 292 339 336
f 336 339 340
f 336 340 337
f 337 340 341
f 337 341 338
f 338 341 281
f 338 281 94
f 222 342 291
f 291 342 339
f 281 341 96
f 340 339 280
f 340 280 341
f 341 280 97
f 342 279 339
f 339 279 311
f 339 311 280
f 280 311 100
f 105 103 279
f 345 279 346
f 346 279 342
f 346 342 343
f 219 342 222
f 279 103 102
f 279 102 311
f 311 102 100
f 220 343 342
f 220 342 221
f 221 342 219
f 310 107 279
f 310 279 345
f 344 346 343
f 344 343 220
f 77 107 310
f 347 344 220
f 309 310 345
f 309 345 308
f 308 345 346
f 308 346 307
f 307 346 344
f 307 344 306
f 306 344 347
f 306 347 214
f 214 347 220
f 299 290 349
f 299 349 307
f 307 349 350
f 307 350 308
f 308 350 351
f 308 351 309
f 309 351 348
f 309 348 310
f 310 348 77
f 351 352 348
f 348 352 75
f 352 73 75
f 290 353 349
f 349 353 350
f 351 350 352
f 354 108 73
f 217 289 290
f 290 289 353
f 350 354 352
f 352 354 73
f 354 69 108
f 289 355 353
f 353 355 356
f 353 356 357
f 353 357 350
f 350 357 354
f 357 109 69
f 354 357 69
f 358 110 109
f 356 359 357
f 357 359 358
f 357 358 109
f 359 111 110
f 224 288 289
f 289 288 355
f 358 359 110
f 360 112 111
f 288 361 355
f 355 361 362
f 355 362 356
f 356 362 363
f 356 363 359
f 359 363 360
f 359 360 111
f 363 113 112
f 360 363 112
f 364 114 113
f 362 365 363
f 363 365 364
f 363 364 113
f 365 115 114
f 227 287 288
f 288 287 361
f 364 365 114
f 366 72 115
f 287 367 361
f 361 367 368
f 361 368 362
f 362 368 369
f 362 369 365
f 365 369 366
f 365 366 115
f 369 370 366
f 366 370 72
f 278 116 371
f 369 371 370
f 370 371 116
f 230 286 287
f 287 286 367
f 369 278 371
f 286 372 367
f 367 372 373
f 367 373 368
f 368 373 374
f 368 374 369
f 369 374 277
f 369 277 278
f 278 277 118
f 286 285 372
f 277 374 120
f 285 284 372
f 373 375 374
f 374 375 276
f 374 276 121
f 231 378 284
f 284 378 372
f 276 375 123
f 378 376 372
f 372 376 377
f 372 377 373
f 373 377 275
f 373 275 375
f 375 275 124
f 377 376 312
f 377 312 275
f 275 312 127
f 132 130 274
f 274 130 376
f 274 376 383
f 383 376 379
f 379 376 380
f 380 376 378
f 376 130 129
f 376 129 312
f 312 129 127
f 380 378 232
f 382 134 274
f 382 274 383
f 383 379 384
f 384 379 380
f 384 380 381
f 381 380 232
f 71 134 382
f 384 381 226
f 226 381 232
f 305 71 382
f 305 382 304
f 304 382 303
f 303 382 383
f 303 383 302
f 302 383 384
f 302 384 301
f 301 384 226
f 68 66 386
f 386 66 67
f 386 67 387
f 388 387 389
f 387 65 389
f 389 65 390
f 390 64 391
f 391 64 392
f 392 63 393
f 393 63 394
f 394 61 395
f 395 61 396
f 61 59 396
f 396 59 397
f 155 157 398
f 398 157 58
f 398 58 399
f 399 58 400
f 400 58 57
f 400 57 401
f 401 57 55
f 401 55 402
f 402 55 403
f 403 55 54
f 403 54 404
f 404 54 405
f 405 54 52
f 405 52 406
f 406 52 407
f 407 52 51
f 407 51 408
f 408 51 409
f 409 51 49
f 409 49 410
f 410 49 411
f 411 49 412
f 412 174 413
f 413 174 48
f 413 48 414
f 414 48 46
f 414 46 415
f 415 46 47
f 415 47 416
f 416 47 44
f 416 44 417
f 417 44 418
f 44 45 418
f 418 45 419
f 45 42 419
f 419 42 420
f 42 43 420
f 420 43 421
f 43 40 421
f 421 40 422
f 40 41 422
f 422 41 423
f 41 38 423
f 423 38 424
f 38 37 424
f 424 37 425
f 37 35 425
f 425 35 426
f 185 187 427
f 427 187 34
f 427 34 428
f 428 34 429
f 429 34 33
f 429 33 430
f 430 33 31
f 430 31 431
f 431 31 432
f 432 31 30
f 432 30 433
f 433 30 434
f 434 30 28
f 434 28 435
f 435 28 436
f 436 28 27
f 436 27 437
f 437 27 438
f 438 27 25
f 438 25 439
f 439 25 440
f 440 25 441
f 385 441 144
f 385 144 68
f 385 442 441
f 441 442 440
f 428 443 427
f 427 443 444
f 427 444 426
f 426 444 425
f 413 445 412
f 412 445 411
f 399 446 398
f 398 446 447
f 398 447 397
f 397 447 396
f 442 448 440
f 440 448 449
f 440 449 439
f 439 449 450
f 439 450 438
f 438 450 451
f 438 451 437
f 437 451 452
f 437 452 436
f 436 452 453
f 436 453 435
f 435 453 454
f 435 454 434
f 434 454 455
f 434 455 433
f 433 455 456
f 433 456 432
f 432 456 457
f 432 457 431
f 431 457 458
f 431 458 430
f 430 458 459
f 430 459 429
f 429 459 460
f 429 460 428
f 428 460 443
f 444 461 425
f 425 461 462
f 425 462 424
f 424 462 463
f 424 463 423
f 423 463 464
f 423 464 422
f 422 464 465
f 422 465 421
f 421 465 466
f 421 466 420
f 420 466 467
f 420 467 419
f 419 467 468
f 419 468 418
f 418 468 469
f 418 469 417
f 417 469 470
f 417 470 416
f 416 470 471
f 416 471 415
f 415 471 472
f 415 472 414
f 414 472 473
f 414 473 413
f 413 473 445
f 445 474 411
f 411 474 475
f 411 475 410
f 410 475 476
f 410 476 409
f 409 476 477
f 409 477 408
f 408 477 478
f 408 478 407
f 407 478 479
f 407 479 406
f 406 479 480
f 406 480 405
f 405 480 481
f 405 481 404
f 404 481 482
f 404 482 403
f 403 482 483
f 403 483 402
f 402 483 484
f 402 484 401
f 401 484 485
f 401 485 400
f 400 485 486
f 400 486 399
f 399 486 446
f 447 487 396
f 396 487 488
f 396 488 395
f 395 488 489
f 395 489 394
f 394 489 490
f 394 490 393
f 393 490 491
f 393 491 392
f 392 491 492
f 392 492 391
f 391 492 493
f 391 493 390
f 390 493 494
f 390 494 389
f 389 494 495
f 389 495 388
f 388 495 496
f 388 496 387
f 387 496 497
f 387 497 386
f 386 497 498
f 386 498 68
f 68 498 499
f 68 499 385
f 385 499 442
f 499 500 442
f 442 500 448
f 460 501 443
f 443 501 502
f 443 502 444
f 444 502 461
f 473 503 445
f 445 503 474
f 486 504 446
f 446 504 505
f 446 505 447
f 447 505 487
f 500 506 448
f 448 506 507
f 448 507 449
f 449 507 508
f 449 508 450
f 450 508 509
f 450 509 451
f 451 509 510
f 451 510 452
f 452 510 511
f 452 511 453
f 453 511 512
f 453 512 454
f 454 512 513
f 454 513 455
f 455 513 514
f 455 514 456
f 456 514 515
f 456 515 457
f 457 515 516
f 457 516 458
f 458 516 517
f 458 517 459
f 459 517 518
f 459 518 460
f 460 518 501
f 502 519 461
f 461 519 520
f 461 520 462
f 462 520 521
f 462 521 463
f 463 521 464
f 464 521 522
f 464 522 465
f 465 522 523
f 465 523 466
f 466 523 524
f 466 524 467
f 467 524 525
f 467 525 468
f 468 525 526
f 468 526 469
f 469 526 470
f 470 526 527
f 470 527 471
f 471 527 528
f 471 528 472
f 472 528 529
f 472 529 473
f 473 529 503
f 503 530 474
f 474 530 531
f 474 531 475
f 475 531 532
f 475 532 476
f 476 532 533
f 476 533 477
f 477 533 534
f 477 534 478
f 478 534 535
f 478 535 479
f 479 535 480
f 480 535 536
f 480 536 481
f 481 536 537
f 481 537 482
f 482 537 11
f 482 11 483
f 483 11 538
f 483 538 484
f 484 538 539
f 484 539 485
f 485 539 540
f 485 540 486
f 486 540 504
f 505 541 487
f 487 541 542
f 487 542 488
f 488 542 543
f 488 543 489
f 489 543 544
f 489 544 490
f 490 544 545
f 490 545 491
f 491 545 546
f 491 546 492
f 492 546 493
f 493 546 547
f 493 547 494
f 494 547 548
f 494 548 495
f 495 548 549
f 495 549 496
f 496 549 550
f 496 550 497
f 497 550 551
f 497 551 498
f 498 551 552
f 498 552 499
f 499 552 500
f 552 19 500
f 500 19 506
f 506 19 507
f 507 19 20
f 507 20 508
f 508 20 21
f 508 21 509
f 516 515 23
f 516 23 517
f 517 23 518
f 518 23 22
f 518 22 501
f 501 22 16
f 501 16 502
f 502 16 519
f 521 13 522
f 522 13 523
f 523 13 524
f 524 13 9
f 524 9 525
f 525 9 526
f 528 527 1
f 528 1 529
f 529 1 503
f 503 1 2
f 503 2 530
f 530 2 531
f 531 2 532
f 532 2 3
f 532 3 533
f 533 3 14
f 533 14 534
f 538 11 4
f 538 4 539
f 539 4 540
f 540 4 5
f 540 5 504
f 504 5 505
f 505 5 541
f 541 5 6
f 541 6 542
f 542 6 7
f 542 7 543
f 544 543 7
f 544 7 545
f 545 7 546
f 548 547 17
f 548 17 549
f 549 17 550
f 550 17 18
f 550 18 551
f 551 18 552
f 552 18 19
f 553 554 555
f 555 554 556
f 555 556 557
f 557 556 558
f 557 558 559
f 559 558 560
f 559 560 561
f 561 560 562
f 561 562 563
f 563 562 564
f 563 564 565
f 565 564 566
f 565 566 567
f 567 566 568
f 567 568 569
f 569 568 570
f 569 570 571
f 571 570 572
f 571 572 573
f 573 572 574
f 573 574 575
f 575 574 576
f 575 576 577
f 577 576 578
f 577 578 579
f 579 578 580
f 579 580 581
f 581 580 582
f 581 582 583
f 583 582 584
f 583 584 585
f 585 584 586
f 585 586 587
f 587 586 588
f 587 588 589
f 589 588 590
f 589 590 591
f 591 590 592
f 591 592 593
f 593 592 594
f 593 594 595
f 595 594 596
f 595 596 597
f 597 596 598
f 597 598 599
f 599 598 600
f 599 600 553
f 553 600 554
f 580 578 601
f 601 578 576
f 601 576 574
f 586 584 601
f 601 584 582
f 601 582 580
f 592 590 601
f 601 590 588
f 601 588 586
f 598 596 601
f 601 596 594
f 601 594 592
f 556 554 601
f 601 554 600
f 601 600 598
f 562 560 601
f 601 560 558
f 601 558 556
f 568 566 601
f 601 566 564
f 601 564 562
f 574 572 601
f 601 572 570
f 601 570 568
f 573 575 602
f 602 575 577
f 602 577 579
f 567 569 602
f 602 569 571
f 602 571 573
f 561 563 602
f 602 563 565
f 602 565 567
f 555 557 602
f 602 557 559
f 602 559 561
f 597 599 602
f 602 599 553
f 602 553 555
f 591 593 602
f 602 593 595
f 602 595 597
f 585 587 602
f 602 587 589
f 602 589 591
f 579 581 602
f 602 581 583
f 602 583 585
