v -0.00954249229 0.00394563535 -0.00178377313
v -0.00936317737 0.004166035 -0.000778592713
v -0.0048371876 0.0071227822 -0.00564013263
v -0.00239893731 0.00858344433 -0.00866883873
v -0.00306087495 0.00774181206 -0.00922546171
v -0.0042458792 0.00936085575 -0.000538196929
v -0.00530940057 0.00874829609 0.000858690512
v -0.00596297449 0.00854271512 0.00131003624
v -0.00658955179 0.00793748385 0.00157495242
v -0.00852752816 0.00566225415 0.00126786016
v -0.0122804498 0.00183915402 0.00105016752
v -0.0093599433 0.00379742073 -0.00286839238
v -0.00894915486 0.00386807149 -0.00372193125
v -0.00200646878 0.0121940406 0.00130119539
v -0.00358160943 0.0113546985 0.00358046016
v -0.00259237523 0.0119365096 0.00231859371
v -0.011782465 0.002872351 0.00270858027
v -0.00803703576 0.00424688826 -0.00500055237
v -0.00416782675 0.00837656365 -0.00476693896
v -0.00368099752 0.00910514371 -0.00308051303
v -0.000980796632 0.0122951664 -0.00156316711
v -0.00687344986 0.00764311506 0.00168084352
v -0.00750618936 0.00810915549 0.00568440176
v -0.00617421626 0.00588541045 -0.00602509379
v -0.00749883413 0.00325845959 -0.00936615359
v -0.000778221134 0.00520713331 -0.00993929024
v -0.00278444752 0.00637261819 -0.0103482355
v -0.0016485556 0.00773574545 -0.00963689905
v 0.00118464221 0.00785804126 -0.00798866416
v -0.000705839684 0.00901797831 -0.00857840191
v 2.04851848e-06 0.010162467 -0.00721924363
v 0.00220445729 0.00991233638 -0.00491970092
v 0.00044292407 0.0111167374 -0.00562080873
v 0.000596317334 0.0118375195 -0.00385618516
v 0.000798331035 0.0119773358 -0.00264393296
v -9.08416936e-05 0.0124517523 0.000205138552
v 0.00212991276 0.010410116 0.00163591811
v 0.00130349974 0.0101305559 0.00334988215
v -0.00205771398 0.011536694 0.00403464487
v -0.003249072 0.010733334 0.00526650137
v -0.00453334099 0.00970636102 0.00618888486
v -0.00432808108 0.00706890758 0.00744337551
v -0.00679579156 0.00764359841 0.00692874737
v -0.008144755 0.00654929799 0.00679954245
v -0.00536459539 0.00393843684 0.00806055757
v -0.0082558345 0.00319279382 0.00694673375
v -0.00939132586 0.00516224882 0.0063719492
v -0.0104838989 0.00380810152 0.00556877191
v -0.0101686354 0.000643894066 0.00481662242
v -0.0113686057 0.00255420434 0.00443147058
v -0.0120096311 0.00145114911 0.00300807139
v -0.0110950489 -0.00126812073 0.00162861161
v -0.0123778976 0.000549422812 0.00136170665
v -0.0124559442 -0.000109685632 -0.000431508999
v -0.0121700475 -0.00065106967 -0.00149569576
v -0.00994401933 -0.00240671318 -0.00433251642
v -0.00889496401 -0.00286360316 -0.00531333469
v -0.00990107327 -1.37130503e-05 -0.00745685363
v -0.00873778696 0.000720318025 -0.00875488097
v -0.00744665039 0.00168083851 -0.00975426233
v -0.0058991664 0.00320854775 -0.0104966049
v -0.00599923064 0.00282145549 -0.0104150711
v -0.00536173848 0.0040983645 -0.0106566099
v 0.0075727626 -0.0071420338 -0.00686381882
v 0.00838436592 0.00501086928 0.00140060873
v 0.00624668679 -0.00289737895 0.0103856586
v 0.00555528792 -0.000490188237 0.00976995119
v 0.00540307679 -0.00366649669 0.010618656
v 0.00333839901 -0.00216614463 0.0103512244
v -5.48229699e-05 -0.0124576289 0.000290169231
v 0.00528443519 -0.00928337619 -0.00641669934
v 0.00285083474 -0.00853766473 -0.00675347788
v 0.00619999635 -0.00847026799 -0.0067284876
v 0.00384730728 -0.00576625316 -0.00794913788
v 0.00469709607 -0.0099650948 -0.00601010948
v 0.00248241052 -0.0111455139 -0.00466172323
v 0.00266112258 -0.011298532 -0.00453246766
v 0.00136356905 -0.0117936059 -0.00329481212
v 0.000435576453 -0.012182402 -0.00170817718
v -0.000264498598 -0.0122956404 3.22733127e-05
v -0.000575212942 -0.0122142126 0.00167628058
v -0.00345004191 -0.0097963003 0.00136978771
v -0.000761371397 -0.0118115105 0.00349672432
v -0.00354858148 -0.00932066474 0.00323084065
v -0.000506654083 -0.0114698858 0.00488134032
v -0.000663259766 -0.0111438206 0.00526408354
v -0.00336577531 -0.00858449923 0.0049990613
v -0.000187791092 -0.0106053405 0.00656709884
v -0.000282897332 -0.010242993 0.00688247094
v -0.00290588519 -0.00762120357 0.00660058972
v 0.000409615791 -0.00952843167 0.00804024029
v 0.000363461183 -0.00914562327 0.00828376299
v -0.00218538401 -0.00647257145 0.00796925888
v 0.00125842819 -0.00828846937 0.00923445008
v 0.00124633359 -0.00790208441 0.00940340044
v -0.00123876001 -0.00518374752 0.0090446364
v 0.00218826987 -0.0067689596 0.0101062447
v -0.000107187604 -0.00380800199 0.00978082166
v 0.00310546217 -0.00602857489 0.0104691991
v 0.00347482681 -0.00533629419 0.0106024277
v 0.00113738344 -0.00240637401 0.0101417637
v 0.00452327667 -0.00452380718 0.0106937998
v 0.00705455358 -0.00240906323 0.0100953705
v 0.0087434809 -0.000583873035 0.0086834525
v 0.00891162884 -0.000784871003 0.00867451794
v 0.0098742107 0.00015340435 0.00737251535
v 0.0100716408 -5.65323727e-05 0.00733754676
v 0.0108275304 0.000635262708 0.00582632303
v 0.0110446308 0.000406052735 0.00575583941
v 0.0115638463 0.000842543881 0.00410934506
v 0.0117871432 0.00058192109 0.00400044799
v 0.0122246996 0.000562211531 0.00160212556
v 0.00996088223 0.00324327898 0.000246154079
v 0.0124713317 3.66369166e-05 0.000322991059
v 0.0123401735 9.15522584e-05 -0.000212240207
v 0.0100115511 0.00267802596 -0.0015913589
v 0.0121714361 -0.000638777467 -0.00194927276
v 0.00977478611 0.00186502715 -0.00331995512
v 0.0117244588 -0.00159342465 -0.00351792794
v 0.00926030029 0.000839050417 -0.00486497268
v 0.0113121061 -0.00267983777 -0.004522344
v 0.0110176812 -0.0027323907 -0.0048528674
v 0.00848914613 -0.000357886303 -0.00616257546
v 0.0104005398 -0.00394545288 -0.00563945644
v 0.0100818529 -0.00400538998 -0.00589470127
v 0.00749478586 -0.00167776758 -0.00715650135
v 0.00913439699 -0.00518344505 -0.00651173828
v 0.00631782209 -0.00305991426 -0.00780414399
v 0.00826836091 -0.00620398742 -0.0068234465
v 0.00166032746 -0.00637949912 -0.00778779799
v 0.00324146875 0.000826439827 0.00963931617
v 0.000609876942 -0.00404928789 -0.00872263454
v 0.00141388415 -0.000728902032 0.00998368479
v 0.000785685725 0.00197663463 0.00939827282
v -0.00130458597 0.00337805776 0.00889569911
v -0.00271291919 0.0054546445 0.00818475531
v -0.00985945691 -0.00324521311 -0.00226946915
v 9.84553997e-05 0.0124907799 -0.000560427528
v -0.00043115828 -0.00164847028 -0.0094842115
v -0.00458131011 0.00389802702 -0.0106695982
v -0.000976469114 -0.00836371951 -0.00576237474
v -0.00213543643 -0.00624696914 -0.00701939325
v -0.00323305566 -0.00401722633 -0.00814017823
v -0.00415486946 -0.000407155443 -0.00963003822
v -0.00551341144 -0.00149760359 -0.00880534042
v -0.00301089361 -0.00938754464 -0.00263059602
v -0.00437858347 -0.00754438805 -0.0040944624
v -0.0056409415 -0.00556718098 -0.00548073275
v -0.006774971 -0.00238863351 -0.00765207243
v -0.00788190983 -0.00304533735 -0.0062197798
v -0.00597435871 -0.00744941525 -0.000669633775
v -0.00689892272 -0.00603178478 -0.0028688909
v -0.00959212762 -0.00327331244 -0.00319060617
v -0.00590204732 -0.00753179968 0.000513815449
v -0.00945550164 -0.0038192159 0.000339337802
v -0.00690306011 -0.00636316504 0.00166654678
v -0.00769045714 -0.00500162172 0.00276883664
v -0.00834075683 -0.00350841349 0.00379941813
v -0.00568799113 -0.00589342542 0.00507619736
v -0.00854930908 -0.00127192319 0.00542238286
v -0.00646547382 -0.00245090426 0.00671205112
v -0.00426406888 -0.00356384725 0.00787180085
v -0.00667174168 0.00131493144 0.0076082598
v -0.0043627813 0.000256360257 0.00858825514
v -0.00691062519 0.00797697139 0.00678476924
v -0.00603621961 0.00536305029 0.00763204313
v -0.00268691541 0.00199604351 0.00896516062
v -0.00197689472 -0.000787501296 0.00939817704
v 0.00592485297 0.0029098777 0.00778043601
v 0.00356337961 0.00426267073 0.00787290582
v 0.00114384785 0.00551095645 0.0078212771
v -0.00133741279 0.00776049411 0.00693973132
v 0.00805645705 0.00406586616 0.00476170885
v 0.00589280775 0.00568748328 0.00507750445
v 0.00362443103 0.00718073952 0.00530593211
v -4.42168992e-05 0.00870271435 0.00586569075
v 0.00111526974 0.00941174706 0.00450091017
v 0.00637525029 0.00691262303 0.00166962785
v 0.00501464506 0.00770530007 0.00277372449
v 6.20508098e-05 0.0124471219 -0.000345561732
v 0.0122653866 0.000463071654 0.00215068079
v 0.00038761138 0.0123408468 -0.00168332838
v 0.00347544162 0.00981172454 -0.00117791087
v 0.00603726075 0.00725196087 -0.00195370124
v 0.00778951556 0.00550015666 -0.0013863415
v 0.00413197123 0.0082661989 -0.00432709836
v 0.00556634268 0.00564077637 -0.00548194263
v 0.00731791141 0.00389031819 -0.00491551422
v 0.00310745568 0.00623241297 -0.00745895709
v 0.0040162542 0.00323245836 -0.0081409422
v 0.00576922035 0.00148178174 -0.00757448092
v 0.00112639275 0.00359263625 -0.00948340303
v 0.00401006228 -0.000587464952 -0.00868329441
v -0.00212722779 0.00347173531 -0.0103376844
v -0.00148543356 0.00079297168 -0.010063442
v 0.0019820474 0.000771510144 -0.00936614294
v 0.00269010644 -0.00199926105 -0.00897700341
v 0.00487814766 -0.00476517592 -0.00805798437
v 0.00943103459 -0.00376800459 0.00180154593
v 0.00402120803 -0.00863355042 0.00436582443
v 0.00903373 -0.00528666596 -0.000865503939
v 0.00864785619 -0.00564136063 -0.00110492029
v 0.00443605783 -0.00796485877 0.00521168153
v 0.00487378794 -0.00733850416 0.00559451435
v 0.00514136818 -0.00704606813 0.00581130421
v 0.0120426385 -0.00237599647 -0.00197693429
v 0.003785245 -0.00920699703 0.00313840181
v 0.00584910917 -0.00628065962 0.0060511853
v 0.0109535686 -0.000848606163 0.00605971716
v 0.00882220249 -0.00388613996 0.00401502748
v 0.00758816987 -0.00688698274 -0.00167974075
v 0.00993186964 -0.00553762841 -0.00530206607
v 0.0100372457 -0.00535636823 -0.00499758505
v 0.00390320507 -0.00946668678 0.00178165695
v 0.00081844914 -0.0110481051 0.00587781776
v 0.00693620258 -0.00512195794 0.00577565332
v 0.00897830962 -0.00658368747 -0.00551900648
v 0.00627247756 -0.00799860508 -0.00151978045
v 0.00780946254 -0.00780945699 -0.00569543623
v 0.00832846943 -0.00416729242 0.00484872119
v 0.00862986087 -0.00236773174 0.00862159945
v 0.00636158543 -0.00919505753 -0.00550210858
v 0.00477558612 -0.00908773821 -0.000256750811
v 0.00291513964 -0.0117800171 -0.00283318667
v 0.00430398704 -0.00948812988 0.000696816019
v 0.00570776534 -0.00871736419 -0.00112056469
v 0.00481412021 -0.00252852172 -0.00252483381
v 0.00587664972 -0.000900534346 -0.000773189512
v 0.00580694162 -0.000284019743 0.00135294561
v 0.00532061099 -0.000351306607 0.00265112139
v 0.00487572192 -0.000563499143 0.00337197996
v 0.0038354968 -0.00126158185 0.00443175237
v 0.00223266288 -0.00274273468 0.00480870051
v 0.00114537574 -0.00400107612 0.00427910324
v 0.000327766816 -0.0053038995 0.00277573925
v 0.000397467196 -0.00592039283 0.000649809758
v 0.00123773481 -0.00571579292 -0.00131949791
v 0.00300470924 -0.00440670542 -0.00273799275
v 0.00196368802 -0.00473793966 -0.000539212794
v 0.00282914639 -0.00411456646 -0.00128897487
v 0.00401204636 -0.00296102457 -0.00138004847
v 0.00404199413 -0.00157556356 0.00281930811
v 0.00264015726 -0.0027612518 0.00348914322
v 0.00477429473 -0.0018977287 -0.00044736642
v 0.00489308476 -0.00128437356 0.00108474443
v 0.00150908295 -0.00414657749 0.00270136969
v 0.00131135528 -0.00492005096 0.00091787626
v -0.00276114252 0.00264020736 -0.0034891269
v -0.00187760354 0.00364542324 -0.00311217092
v -0.00146634454 0.00424084722 -0.00254164378
v -0.00128130039 0.00480110446 -0.00137939863
v -0.00169841329 0.00488417146 0.00017036673
v -0.00296126874 0.00401186168 0.00138016223
v -0.00430642031 0.00260693592 0.00119487235
v -0.00494640531 0.00149187121 -0.000276856798
v -0.00436615672 0.0013649194 -0.00246774977
v -0.00434189797 0.000903013537 -0.00397405409
v -0.00487571717 0.000563505481 -0.00337204717
v -0.00565827341 0.000234138567 -0.00196793217
v -0.00592738153 0.00055015404 -0.000155303705
v -0.000817795766 0.00443462412 -0.00395087518
v -0.00189023973 0.00311756451 -0.0047082641
v -0.00274291446 0.00223253084 -0.00480869256
v -0.00374585153 0.00135279019 -0.00442704939
v -0.00571586331 0.00123769957 0.00131950319
v -0.0048516369 0.00245857556 0.00242438532
v -0.00408004728 0.0033477124 0.002788768
v -0.00282560376 0.00455171917 0.00263241496
v -0.00162626998 0.00546826418 0.00175630661
v -0.000883874903 0.00585306008 0.000648405325
v -0.000434585392 0.0059325782 -0.000497113289
v -0.000274677958 0.00554563289 -0.00219126144
v 0.0084794596 -0.00650696532 -0.00665930467
v 0.0100667348 -0.00484505899 -0.00594850606
v 0.0117891455 -0.0022670595 -0.00377461695
v 0.0120602112 -0.00166433479 -0.00306229634
v 0.0123173618 -0.00124913137 -0.0022572019
v 0.0124496623 -0.000749845047 -0.00143175978
v 0.0125646019 -0.000450488736 -0.00054881357
v 0.012574908 -4.42660205e-05 0.000699858806
v 0.00256809589 -0.00702730557 0.0101586303
v 0.000555934114 -0.00986923144 0.00786342168
v -0.000203905115 -0.0111749141 0.00578382231
v -0.000378665934 -0.0119126407 0.00403943278
v -0.000421360804 -0.0121591439 0.00309463209
v 0.0107440558 -0.00452938997 -0.00476907125
v 0.0117406984 -0.00308588443 -0.00343966843
v 0.0123449488 -0.0018368184 -0.00132511328
v 0.0124602214 -0.00133568352 -0.00010301229
v 0.0125404579 -0.0009497501 0.000752063141
v 0.0124040505 -0.000852437342 0.00156804311
v 0.012339382 -0.000595363178 0.00247280698
v 0.0121314744 -0.000528612829 0.0033453529
v 0.011691702 -0.000601831753 0.00452416862
v 0.0102563474 -0.00120779861 0.00710763737
v 0.00920532577 -0.00183040744 0.00837548474
v 0.00768264742 -0.00301955459 0.00945437861
v 0.00154632039 -0.00961455648 0.00799001831
v 0.000558805022 -0.0117681138 0.00437379962
v 0.000692867831 -0.0123442761 0.0022270286
v 0.00103736008 -0.012547756 0.000457810081
v 0.00166631018 -0.0124329194 -0.00110749651
v 0.00198754856 -0.0123350846 -0.00204495562
v 0.00385356405 -0.0112378531 -0.00418695743
v 0.00609636043 -0.00441174408 0.0100651891
v 0.00608556718 -0.00428140235 0.0102275864
v 0.00631773136 -0.00927096311 -0.00572766669
v 0.00850610397 -0.00714010536 -0.00590787308
v 0.00688086829 -0.00871757969 -0.00612601721
v 0.00710963628 -0.00837105546 -0.00638010968
v 0.00665903696 -0.00862353543 -0.0065367877
v 0.00750881671 -0.00750887077 -0.00675318025
v 0.00457386384 -0.00590210522 0.0101081699
v 0.00483169803 -0.00533836509 0.0104506329
v 0.00357927006 -0.00639992599 0.0103611905
v 0.00484433491 -0.00487991224 0.0106844987
v 0.00370496749 -0.00571757238 0.0105809233
v 0.000979604712 -0.00905513447 0.00868430353
v 0.00682837008 -0.00817334335 -0.00670382761
v 0.00491383048 -0.0104020277 -0.0052685767
v 0.00542830405 -0.00987183024 -0.00583560043
v 0.00613969802 -0.0088143317 -0.0065561273
v 0.00545066833 -0.00942462366 -0.00631186746
v 0.00405585093 -0.0110376835 -0.00476720592
v 0.00461254684 -0.0103621351 -0.00564135052
v 0.00402940962 -0.0104936545 -0.00557960969
v 0.00230327271 -0.0121313262 -0.00298169826
v 0.00261945491 -0.0118145579 -0.00382475701
v 0.00315516365 -0.011357762 -0.00458992487
v 0.00345820426 -0.0110039679 -0.00503239416
v 0.00173336505 -0.0120871631 -0.00304434084
v 0.000696255061 -0.012676587 0.000408719102
v 0.00077200027 -0.0126676833 -0.000549521162
v 0.00149967926 -0.0122629348 -0.00260734744
v 0.000819864264 -0.0124770967 -0.00142226003
v 0.000362787308 -0.0123884215 0.00269531359
v 0.000573955086 -0.0125240623 -0.000979052863
v 0.000145020475 -0.0125787823 0.000353123915
v 6.73283295e-05 -0.0122006898 0.00359979172
v -0.000112699714 -0.0124178447 0.00268768481
v -0.000161082329 -0.0124905901 0.00126986083
v -0.000260529528 -0.012387809 0.00220158316
v 0.000537493907 -0.0111253325 0.0060669708
v 0.000535165867 -0.0106616554 0.00691832795
v -0.000142928089 -0.0114917338 0.00529245095
v 0.00161208322 -0.00917088396 0.00862144998
v 0.000231452518 -0.0105943595 0.00691360841
v 0.00145207856 -0.00877737614 0.00903814149
v 0.00268692016 -0.00806694906 0.00924494482
v 0.00269643536 -0.00745758166 0.00993545279
v 0.00258127309 -0.00768483389 0.00975985126
v 0.00360578536 -0.0067597596 0.0100611708
v 0.00290502386 -0.00771792063 0.00955738657
v 0.00632236916 -0.00375682396 0.0103386805
v 0.00435859202 -0.00503205936 0.0106795094
v 0.0050320053 -0.00435864608 0.0106795094
v 0.0076819528 -0.00271196662 0.0097225682
v 0.00571757792 -0.00370496195 0.0105809233
v 0.00674828064 -0.00297643714 0.0102783977
v 0.00954091102 -0.00142192301 0.00823540253
v 0.00889687204 -0.00152106689 0.00892227393
v 0.0078962469 -0.00213485639 0.00966062761
v 0.00773139263 -0.0018569088 0.00970900112
v 0.00842517852 -0.00143074672 0.00923803068
v 0.0100849043 -0.000862254437 0.00765015045
v 0.00905519961 -0.000979539563 0.00868430353
v 0.0110732806 -0.000467624772 0.00616901405
v 0.00993270587 -0.000587855968 0.00781284411
v 0.0102078342 -0.000255700757 0.007355716
v 0.0118171405 -0.000342252365 0.00451043721
v 0.0109596333 -4.34965505e-05 0.00631918873
v 0.0121792724 -6.54641953e-05 0.00367182488
v 0.01117486 0.000203970263 0.00578382231
v 0.0117704335 0.000223412516 0.00463112444
v 0.0119126463 0.000378671477 0.00403943278
v 0.0125506544 -0.000601169278 0.00142886854
v 0.0123718328 9.61240554e-05 0.00272103685
v 0.0121512493 0.000431525228 0.00310723177
v 0.012652879 -0.00034509612 0.000926997618
v 0.0123878145 0.000260535071 0.00220158316
v 0.0124917043 -0.00161158018 -0.0014939158
v 0.0125366112 -0.00141818733 -0.00162560936
v 0.0125271372 -0.00120916301 -0.00174594903
v 0.0118586445 -0.00283699911 -0.00335368894
v 0.0117387686 -0.00291467056 -0.00383144185
v 0.0109629631 -0.00411975886 -0.00487856881
v 0.0117094727 -0.00273151216 -0.00398779711
v 0.0111812557 -0.00334223448 -0.00483274154
v 0.00927851782 -0.00593779908 -0.00633170848
v 0.00935417057 -0.00605622428 -0.00613530032
v 0.00939145023 -0.00613894435 -0.00591484406
v -0.00475656561 0.0047886402 -0.0106787229
v -0.00611973416 0.00348752744 -0.0104869869
v -0.00712671176 0.00253827367 -0.0101131333
v -0.00746732061 0.00233400352 -0.00992108559
v -0.0081179213 0.00180836339 -0.00950960944
v -0.00871629055 0.00126113576 -0.00902761164
v -0.00937438005 0.000902983013 -0.00842058991
v -0.00991093698 0.00046655781 -0.00778536728
v -0.010487058 0.000235846823 -0.00704049604
v -0.0109345201 -7.33432276e-05 -0.00628329369
v -0.0113677079 -0.000239923906 -0.00545553839
v -0.0117767253 -0.000254846181 -0.00456571279
v -0.0118018784 -0.000439497283 -0.00428340698
v -0.0121747694 -0.00044181844 -0.00297547418
v -0.012502938 -9.72085035e-05 -0.00179819261
v -0.0126031912 0.000111429369 -0.0008619168
v -0.0126273096 0.000380911328 4.69485522e-05
v -0.012578253 0.000715649237 0.000932964244
v -0.0124565835 0.00111187726 0.00178553153
v -0.0122638367 0.00156635237 0.00259555604
v -0.0120020908 0.0020725938 0.00335339891
v -0.0116743898 0.00262528556 0.00405065347
v -0.0112843603 0.00321822879 0.00467941913
v -0.0108362649 0.00384526999 0.00523284174
v -0.0103356945 0.00449756345 0.00570399312
v -0.00978750474 0.00517005704 0.00608822662
v -0.00919850503 0.00585374833 0.00638079902
v -0.00857571882 0.00654041189 0.00657834819
v -0.00792539412 0.00722308872 0.00667894198
v -0.00622254254 0.00881732932 0.00655493301
v -0.00553418792 0.00942859672 0.00631700351
v -0.0052022494 0.00976051386 0.00610422456
v -0.00455759655 0.0102961356 0.00573179383
v -0.00385631678 0.0107572649 0.00533577085
v -0.00327998192 0.0112437633 0.00473505526
v -0.00262623211 0.011609716 0.00416813546
v -0.00212675155 0.0119736687 0.00342229002
v -0.00155423352 0.0122150699 0.00272521893
v -0.00109265937 0.0124163707 0.00192037045
v -0.000687794021 0.0125467401 0.00107220769
v -0.000412587881 0.0126259276 0.000133412045
v 8.34496887e-05 0.0125135893 -0.0017235979
v 0.000214498355 0.0123470189 -0.00266432234
v 0.000275163457 0.0121117383 -0.00358093363
v 0.000262705139 0.0118091687 -0.00447951054
v 0.000177263779 0.011442805 -0.00535011151
v -0.000193510667 0.0111972999 -0.00603932292
v -0.000406094747 0.0107314944 -0.0068235602
v -0.000685544718 0.0102167317 -0.0075524068
v -0.00102927492 0.0096578141 -0.0082193417
v -0.00143386073 0.00906021333 -0.00881744944
v -0.00189290308 0.0084333304 -0.00933728093
v -0.00240316988 0.00778157 -0.00977559972
v -0.00295762217 0.00711416489 -0.0101257786
v -0.00355041591 0.00643794037 -0.0103844788
v -0.00394737154 0.00531299012 -0.0106522558
v -0.00420120253 0.00587406221 -0.010448595
v -0.000354859067 0.0126444787 -0.000918822941
v -0.00735604716 0.00803623839 0.00649323691
v -0.012390295 3.16217412e-05 -0.00270797863
v -0.0121582875 -2.72613016e-05 -0.00360966
v -0.000231173077 0.0118414092 -0.00451850396
v -0.000215313875 0.0121363833 -0.00365395734
v -0.000270072425 0.0123665693 -0.00277192191
v -0.000394330275 0.0125296467 -0.00188161445
v -0.000845859436 0.0126475081 -0.000116888408
v -0.00116811243 0.0126008713 0.000736054173
v -0.0015499519 0.012484318 0.00155830128
v -0.00198709281 0.0122991681 0.00233901523
v -0.00247432404 0.0120477159 0.00306902986
v -0.00300688562 0.0117322362 0.00374191565
v -0.00357780791 0.0113569873 0.00434819891
v -0.00418119816 0.0109257793 0.00488199872
v -0.00481007735 0.0104437462 0.00533666608
v -0.00545753967 0.00991610807 0.00570735986
v -0.00611543312 0.00934944846 0.00598970906
v -0.00677768172 0.00874886454 0.00618140423
v -0.00808174828 0.00747710146 0.00628233392
v -0.00870969723 0.00681968427 0.00619039595
v -0.00931191134 0.00615774701 0.00600492797
v -0.00988111137 0.00549918804 0.00572804793
v -0.0104115363 0.00485079577 0.00536282792
v -0.0108963666 0.00422090279 0.00491345112
v -0.0113312729 0.00361520732 0.00438422512
v -0.011709973 0.00304250561 0.00378258652
v -0.0120293885 0.00250718488 0.0031139649
v -0.0122850169 0.00201702068 0.00238721251
v -0.0124746028 0.00157603284 0.00160921768
v -0.0125955731 0.00119056746 0.000789782196
v -0.0126465969 0.000864884764 -6.18850159e-05
v -0.0126272497 0.000601833777 -0.000936761515
v -0.012537718 0.000404627415 -0.00182471891
v -0.0118619357 0.000228191402 -0.00446448136
v -0.0115095181 0.00030994375 -0.00530320618
v -0.0110995867 0.000461022971 -0.00610541687
v -0.0106363716 0.000679494889 -0.00686261543
v -0.0101258573 0.00096331415 -0.00756498149
v -0.00957298998 0.00130920971 -0.00820570007
v -0.00898570426 0.0017128993 -0.00877560327
v -0.00836789809 0.00217081064 -0.00927118874
v -0.00773015156 0.00267575372 -0.0096836315
v -0.00707555568 0.00322425463 -0.0100113683
v -0.00641458023 0.00380864246 -0.0102488134
v -0.00575358694 0.00442248487 -0.0103936221
v -0.00510064516 0.0050593668 -0.0104439263
v -0.0046234668 0.00577399996 -0.0102194895
v -0.000801164452 0.012542852 -0.00109102986
v -0.00745480516 0.00819112381 0.00604039219
v -0.0123172956 0.000514165109 -0.00267879666
v -0.0121002414 0.000452972596 -0.00354044088
v -0.00410713675 0.00644311739 -0.0099390311
v -0.00355878571 0.00706711249 -0.00971798158
v -0.00293606282 0.00775736887 -0.00943217062
v -0.00244873525 0.00837213118 -0.00903746866
v -0.00200766088 0.00896603186 -0.00856408857
v -0.0016178465 0.00953227598 -0.00801763319
v -0.00128358365 0.0100644859 -0.00740418218
v -0.00109838149 0.0104632112 -0.00681613072
v -0.000780082722 0.0111428653 -0.00570164124
v -0.000629064136 0.0116630328 -0.00455261901
v -0.000613235357 0.0119350567 -0.00377161763
v -0.000609931955 0.0122406514 -0.00274917864
v -0.000731525431 0.0123953255 -0.00189325594
v -0.00118765355 0.0124771622 -0.000289709143
v -0.00149436777 0.0124322302 0.000507820583
v -0.00185006619 0.0123431118 0.00141003348
v -0.00227182866 0.0121631058 0.00215902544
v -0.00274187089 0.0119192632 0.00285973765
v -0.00325482846 0.0116143258 0.00350406386
v -0.00380486012 0.0112517508 0.00408485151
v -0.00438564778 0.0108357104 0.0045954249
v -0.00499087335 0.0103708537 0.00503006197
v -0.00561350347 0.00986242611 0.00538387514
v -0.00624638558 0.00931626875 0.0056528113
v -0.00688260556 0.00873852093 0.005833771
v -0.00836946647 0.00728018519 0.00585177541
v -0.00925462349 0.00631830231 0.00562134862
v -0.0097911235 0.00570045319 0.00535611995
v -0.0103108629 0.00506720632 0.00501786704
v -0.0107660872 0.00447865858 0.00459171811
v -0.0113783294 0.00362058344 0.00383556916
v -0.011919198 0.00274187643 0.00285973765
v -0.0121631003 0.0022718342 0.00215902544
v -0.0123431063 0.00185007174 0.00141003348
v -0.0124573088 0.0014812978 0.000621225607
v -0.0125042772 0.00116974432 -0.000198457468
v -0.0124835348 0.000918868373 -0.00103983663
v -0.0123953199 0.000731590579 -0.00189325594
v -0.0117396689 0.000568571875 -0.00442955278
v -0.0113989687 0.000649276564 -0.00523493074
v -0.0110517271 0.000818611811 -0.00585952766
v -0.0106176328 0.00101815785 -0.00658602715
v -0.0101599149 0.00127359868 -0.00722508303
v -0.00961183633 0.00160456879 -0.00788560855
v -0.00908781968 0.00196573024 -0.00840210877
v -0.00837212564 0.00244874079 -0.00903746866
v -0.00775736333 0.00293606837 -0.00943217062
v -0.00723832237 0.00340817581 -0.00965094215
v -0.00664647719 0.00393370329 -0.00986888371
v -0.00585824014 0.00461799223 -0.0101054647
v -0.00523072244 0.00523072798 -0.0101510026
v 0.00885325908 -0.00885325353 0.00131907679
v -0.00811475278 0.00866377671 -0.00419411444
v 0.00911969184 -0.00857066791 0.00136890627
v -0.00788253308 0.00894314368 -0.00404796385
v 0.00935191154 -0.00829130094 0.00151505686
v -0.00770038129 0.00920033772 -0.00381562494
v 0.00953406333 -0.0080341069 0.00174739577
v -0.00758069516 0.00941777546 -0.00351271414
v 0.00965374946 -0.00781666916 0.00205030657
v -0.00753158093 0.00958067496 -0.00315997385
v 0.00970286368 -0.00765376966 0.00240304686
v -0.00755661489 0.00967789013 -0.00278148435
v 0.00967782973 -0.00755655449 0.00278153635
v -0.00765377046 0.00970280487 -0.00240299486
v 0.00958067416 -0.00753163974 0.00316002585
v -0.00781672956 0.00965380986 -0.00205037378
v 0.00941783427 -0.00758063476 0.00351276613
v -0.0080341673 0.00953412373 -0.00174746298
v 0.00920027732 -0.00770032089 0.00381555773
v -0.00829130174 0.00935197193 -0.00151500486
v 0.00894314288 -0.00788247268 0.00404801584
v -0.00857072831 0.00911975224 -0.00136897348
v 0.00866371631 -0.00811475198 0.00419404722
v -0.00885325433 0.00885325987 -0.001319144
v 0.00838119029 -0.00838118475 0.00424387671
v -0.00911968709 0.00857067425 -0.00136897348
v 0.00811475753 -0.00866377037 0.00419404722
v -0.00935190679 0.00829130728 -0.00151500486
v 0.00788253783 -0.00894313734 0.00404801584
v -0.00953405858 0.00803411324 -0.00174746298
v 0.00770038604 -0.00920033138 0.00381555773
v -0.00965374471 0.00781667549 -0.00205037378
v 0.00758069991 -0.00941776912 0.00351276613
v -0.00970285893 0.007653776 -0.00240299486
v 0.00753158568 -0.00958066862 0.00316002585
v -0.00967794419 0.00755656082 -0.00278148435
v 0.00755661963 -0.00967788379 0.00278153635
v -0.00958066941 0.00753164608 -0.00315997385
v 0.00765377521 -0.00970285814 0.00240304686
v -0.00941782952 0.0075806411 -0.00351271414
v 0.0078167343 -0.00965380352 0.00205030657
v -0.00920039178 0.00770032723 -0.00381562494
v 0.00803417205 -0.00953411739 0.00174739577
v -0.00894313813 0.00788247902 -0.00404796385
v 0.00829130649 -0.0093519656 0.00151505686
v -0.00866371156 0.00811475832 -0.00419411444
v 0.00857073306 -0.0091197459 0.00136890627
v -0.00838118554 0.00838119108 -0.00424394392
v -0.00861721993 0.00861722548 -0.00278148435
v 0.00861722468 -0.00861721914 0.00278153635
f 19 4 3
f 3 4 5
f 3 5 503
f 10 532 531
f 10 531 530
f 10 530 529
f 1 11 2
f 503 502 3
f 3 502 24
f 6 16 14
f 6 14 516
f 8 15 7
f 7 15 6
f 6 15 16
f 2 11 10
f 10 11 17
f 10 17 532
f 19 20 509
f 20 510 509
f 20 512 511
f 20 511 510
f 516 515 6
f 6 515 21
f 6 21 20
f 20 21 512
f 529 528 10
f 10 528 527
f 10 527 22
f 22 527 23
f 550 549 24
f 24 549 25
f 24 25 18
f 18 544 543
f 18 543 542
f 18 25 546
f 18 546 545
f 18 545 544
f 72 75 326
f 72 326 76
f 76 77 78
f 78 334 79
f 79 337 80
f 67 103 363
f 67 363 104
f 104 105 106
f 106 107 108
f 108 109 110
f 110 111 378
f 71 75 72
f 66 103 67
f 73 71 72
f 68 66 67
f 74 73 72
f 74 72 130
f 69 68 67
f 69 67 131
f 64 73 198
f 198 73 74
f 74 130 132
f 102 68 69
f 133 69 131
f 133 131 134
f 198 74 197
f 197 74 132
f 197 132 139
f 72 76 141
f 72 141 130
f 130 141 142
f 130 142 132
f 132 142 143
f 132 143 139
f 139 143 144
f 139 144 195
f 195 144 62
f 195 62 140
f 140 62 61
f 140 61 63
f 76 78 141
f 143 145 144
f 144 145 60
f 144 60 394
f 144 394 62
f 78 79 146
f 78 146 141
f 141 146 147
f 141 147 142
f 142 147 148
f 142 148 143
f 143 148 149
f 143 149 145
f 145 149 59
f 145 59 397
f 145 397 60
f 79 80 146
f 148 150 149
f 149 150 58
f 149 58 399
f 149 399 59
f 80 151 146
f 146 151 152
f 146 152 147
f 147 152 148
f 148 152 57
f 148 57 150
f 150 57 401
f 150 401 58
f 57 402 401
f 152 151 153
f 152 153 56
f 152 56 57
f 57 56 404
f 57 404 402
f 151 137 153
f 56 153 404
f 55 137 155
f 155 137 151
f 154 151 82
f 82 151 81
f 81 151 80
f 81 80 341
f 341 80 70
f 55 405 137
f 137 405 153
f 153 405 404
f 156 155 151
f 156 151 154
f 52 54 55
f 52 55 155
f 156 154 84
f 84 154 82
f 84 82 83
f 83 82 285
f 285 82 81
f 53 54 52
f 157 155 156
f 158 52 155
f 158 155 157
f 159 157 156
f 159 156 87
f 87 156 84
f 87 84 86
f 86 84 85
f 85 84 83
f 51 53 52
f 158 157 159
f 49 51 52
f 49 52 160
f 160 52 158
f 90 159 87
f 90 87 89
f 89 87 88
f 88 87 86
f 50 51 49
f 161 160 158
f 161 158 159
f 162 161 159
f 162 159 93
f 93 159 90
f 93 90 92
f 92 90 91
f 91 90 89
f 48 50 49
f 46 48 49
f 46 49 163
f 163 49 160
f 163 160 161
f 96 162 93
f 96 93 95
f 95 93 94
f 94 93 92
f 47 48 46
f 164 163 161
f 164 161 162
f 168 164 162
f 168 162 98
f 98 162 96
f 98 96 97
f 97 96 95
f 44 47 46
f 98 97 99
f 45 44 46
f 45 46 163
f 45 163 164
f 101 168 98
f 101 98 100
f 100 98 99
f 165 44 166
f 166 44 45
f 167 45 164
f 167 164 168
f 100 102 101
f 101 102 69
f 101 69 133
f 101 133 168
f 168 133 134
f 168 134 167
f 167 134 135
f 167 135 45
f 45 135 136
f 45 136 166
f 166 136 43
f 166 43 165
f 67 104 169
f 67 169 131
f 131 169 170
f 131 170 134
f 134 170 171
f 134 171 135
f 135 171 136
f 136 42 43
f 43 42 165
f 42 421 165
f 104 106 169
f 171 172 136
f 136 172 41
f 136 41 42
f 42 41 422
f 42 422 421
f 106 108 173
f 106 173 169
f 169 173 174
f 169 174 170
f 170 174 175
f 170 175 171
f 171 175 176
f 171 176 172
f 172 176 40
f 172 40 425
f 172 425 41
f 108 110 173
f 175 177 176
f 176 177 39
f 176 39 427
f 176 427 40
f 378 65 110
f 110 65 178
f 110 178 173
f 173 178 179
f 173 179 174
f 174 179 175
f 175 179 38
f 175 38 177
f 177 38 429
f 177 429 39
f 38 430 429
f 179 178 37
f 179 37 38
f 38 37 431
f 38 431 430
f 37 36 431
f 65 183 178
f 178 183 138
f 178 138 37
f 37 138 180
f 37 180 36
f 184 183 65
f 184 65 185
f 185 65 113
f 113 65 112
f 112 65 181
f 181 65 378
f 35 182 183
f 183 182 138
f 32 34 35
f 32 35 186
f 186 35 183
f 186 183 184
f 116 185 113
f 116 113 115
f 115 113 114
f 114 113 112
f 33 34 32
f 187 186 184
f 187 184 188
f 188 184 185
f 188 185 118
f 118 185 116
f 118 116 117
f 117 116 278
f 278 116 115
f 31 33 32
f 29 31 32
f 29 32 189
f 189 32 186
f 189 186 187
f 120 188 118
f 120 118 119
f 119 118 276
f 276 118 117
f 30 31 29
f 190 189 187
f 190 187 191
f 191 187 188
f 191 188 123
f 123 188 120
f 123 120 122
f 122 120 121
f 121 120 119
f 28 30 29
f 26 28 29
f 26 29 192
f 192 29 189
f 192 189 190
f 126 191 123
f 126 123 125
f 125 123 124
f 124 123 122
f 27 28 26
f 196 192 190
f 196 190 193
f 193 190 191
f 193 191 128
f 128 191 126
f 128 126 127
f 127 126 125
f 447 27 26
f 128 127 129
f 194 447 26
f 194 26 195
f 195 26 192
f 195 192 196
f 197 196 193
f 197 193 198
f 198 193 128
f 198 128 129
f 129 64 198
f 196 197 139
f 196 139 195
f 194 195 140
f 194 140 447
f 199 291 292
f 199 292 293
f 199 289 290
f 199 290 291
f 293 294 199
f 199 294 210
f 201 206 199
f 199 206 288
f 199 288 289
f 202 286 201
f 211 212 202
f 202 212 213
f 200 215 207
f 208 216 305
f 211 217 212
f 218 222 211
f 211 222 219
f 300 301 214
f 214 301 302
f 214 302 225
f 220 221 216
f 216 221 297
f 209 295 210
f 210 295 220
f 224 223 225
f 218 226 222
f 223 224 226
f 238 211 227
f 227 211 202
f 227 202 228
f 228 202 201
f 228 201 199
f 228 199 229
f 229 199 230
f 230 199 210
f 230 210 231
f 231 210 232
f 232 210 220
f 232 220 216
f 232 216 233
f 233 216 208
f 233 208 205
f 233 205 234
f 234 205 204
f 234 204 203
f 234 203 235
f 235 203 200
f 235 200 207
f 235 207 236
f 236 207 214
f 236 214 237
f 237 214 225
f 237 225 223
f 237 223 226
f 237 226 238
f 238 226 218
f 238 218 211
f 239 237 240
f 240 237 238
f 240 238 241
f 241 238 227
f 241 227 244
f 242 232 243
f 243 232 233
f 243 233 246
f 246 233 234
f 244 227 228
f 244 228 245
f 245 228 229
f 245 229 242
f 242 229 230
f 242 230 231
f 242 231 232
f 246 234 235
f 246 235 247
f 247 235 236
f 247 236 239
f 239 236 237
f 248 241 249
f 249 241 250
f 250 241 244
f 250 244 251
f 251 244 245
f 251 245 252
f 252 245 242
f 252 242 253
f 253 242 243
f 253 243 254
f 254 243 246
f 254 246 255
f 255 246 247
f 255 247 256
f 256 247 239
f 256 239 240
f 256 240 248
f 248 240 241
f 256 257 258
f 256 258 259
f 256 259 255
f 255 259 260
f 250 261 249
f 249 261 248
f 248 261 262
f 248 262 263
f 248 263 256
f 256 263 264
f 256 264 257
f 260 265 255
f 255 265 254
f 254 265 266
f 254 266 267
f 254 267 253
f 253 267 268
f 253 268 269
f 253 269 252
f 252 269 270
f 252 270 271
f 252 271 251
f 251 271 272
f 251 272 250
f 250 272 261
f 24 263 3
f 3 263 262
f 3 262 261
f 3 261 19
f 19 261 20
f 20 261 272
f 20 272 271
f 20 271 6
f 6 271 270
f 6 270 269
f 6 269 7
f 7 269 8
f 8 269 268
f 8 268 9
f 9 268 22
f 22 268 267
f 22 267 10
f 10 267 266
f 10 266 265
f 10 265 2
f 2 265 260
f 2 260 1
f 1 260 259
f 1 259 12
f 12 259 13
f 13 259 18
f 18 259 258
f 18 258 257
f 18 257 264
f 18 264 24
f 24 264 263
f 129 127 274
f 122 121 388
f 121 119 275
f 276 117 277
f 278 115 279
f 115 114 280
f 114 112 280
f 99 97 281
f 92 91 282
f 91 89 282
f 89 88 347
f 88 86 283
f 86 85 345
f 85 83 284
f 287 201 286
f 287 206 201
f 296 220 295
f 296 221 220
f 298 200 203
f 299 207 215
f 300 214 207
f 303 224 225
f 304 226 224
f 307 222 226
f 313 208 305
f 313 305 314
f 314 305 306
f 219 222 308
f 308 222 307
f 308 307 309
f 315 314 316
f 319 73 64
f 226 304 307
f 307 304 320
f 307 320 309
f 309 320 321
f 309 321 310
f 310 321 311
f 311 319 312
f 312 319 64
f 311 322 319
f 319 322 73
f 323 71 73
f 304 324 320
f 320 324 321
f 321 324 325
f 321 325 311
f 311 325 323
f 311 323 322
f 322 323 73
f 325 75 323
f 323 75 71
f 224 303 304
f 304 303 327
f 304 327 324
f 324 327 328
f 324 328 329
f 324 329 325
f 325 329 326
f 325 326 75
f 330 76 326
f 329 330 326
f 329 77 76
f 225 302 303
f 330 329 76
f 328 78 77
f 329 328 77
f 331 334 78
f 302 301 332
f 302 332 333
f 302 333 303
f 303 333 334
f 303 334 327
f 327 334 331
f 327 331 328
f 328 331 78
f 335 337 79
f 300 336 301
f 301 336 332
f 333 335 334
f 334 335 79
f 333 337 335
f 338 70 80
f 207 299 300
f 300 299 336
f 336 339 332
f 332 339 340
f 332 340 333
f 333 340 338
f 333 338 337
f 337 338 80
f 340 341 338
f 338 341 70
f 285 81 342
f 299 215 343
f 299 343 336
f 336 343 339
f 340 342 341
f 341 342 81
f 340 285 342
f 200 298 215
f 215 298 343
f 343 344 339
f 339 344 345
f 339 345 340
f 340 345 284
f 340 284 285
f 285 284 83
f 284 345 85
f 298 346 343
f 343 346 344
f 344 347 345
f 345 347 283
f 345 283 86
f 283 347 88
f 346 348 344
f 344 348 282
f 344 282 347
f 347 282 89
f 348 318 282
f 282 318 92
f 97 95 281
f 281 95 348
f 281 348 350
f 350 348 351
f 351 348 346
f 351 346 353
f 353 346 349
f 349 346 298
f 349 298 204
f 204 298 203
f 348 95 94
f 348 94 318
f 318 94 92
f 353 349 205
f 205 349 204
f 315 281 350
f 350 351 352
f 352 351 353
f 317 99 281
f 317 281 316
f 316 281 315
f 315 350 314
f 314 350 352
f 314 352 313
f 313 352 353
f 313 353 208
f 208 353 205
f 216 297 305
f 305 297 306
f 306 354 314
f 314 354 316
f 316 355 317
f 317 355 100
f 317 100 99
f 355 102 100
f 356 68 102
f 297 357 306
f 306 357 354
f 316 356 355
f 355 356 102
f 221 296 297
f 297 296 357
f 354 357 359
f 354 359 316
f 316 359 358
f 316 358 356
f 356 358 68
f 359 66 68
f 296 360 357
f 358 359 68
f 360 361 357
f 357 361 362
f 357 362 359
f 359 362 103
f 359 103 66
f 296 295 360
f 362 361 363
f 362 363 103
f 364 104 363
f 295 209 360
f 360 365 361
f 361 364 363
f 366 105 104
f 209 367 360
f 360 367 365
f 365 368 361
f 361 368 366
f 361 366 364
f 364 366 104
f 368 106 105
f 210 294 209
f 209 294 367
f 365 367 368
f 366 368 105
f 369 107 106
f 294 370 367
f 367 371 368
f 368 371 369
f 368 369 106
f 371 108 107
f 294 293 370
f 370 372 367
f 367 372 371
f 369 371 107
f 373 109 108
f 370 293 372
f 372 374 371
f 371 374 373
f 371 373 108
f 374 110 109
f 293 292 372
f 373 374 109
f 375 111 110
f 291 290 376
f 291 376 292
f 292 376 372
f 372 377 374
f 374 377 375
f 374 375 110
f 376 290 379
f 376 379 372
f 372 379 377
f 377 378 375
f 375 378 111
f 112 181 380
f 380 181 378
f 289 288 381
f 289 381 290
f 290 381 379
f 377 379 380
f 377 380 378
f 381 382 379
f 379 280 380
f 380 280 112
f 206 287 288
f 288 287 381
f 382 383 379
f 379 383 280
f 383 279 280
f 280 279 115
f 287 384 381
f 381 384 382
f 383 278 279
f 384 287 385
f 384 385 382
f 382 385 383
f 383 277 278
f 278 277 117
f 286 386 287
f 287 386 385
f 385 387 383
f 383 387 276
f 383 276 277
f 385 386 387
f 387 275 276
f 276 275 119
f 386 388 387
f 387 388 275
f 275 388 121
f 386 274 388
f 127 125 274
f 389 274 390
f 390 274 386
f 390 386 391
f 391 386 286
f 391 286 212
f 212 286 213
f 213 286 202
f 274 125 124
f 274 124 388
f 388 124 122
f 273 129 274
f 273 274 389
f 308 391 212
f 308 212 217
f 64 129 273
f 211 308 217
f 312 64 273
f 312 273 311
f 311 273 389
f 311 389 310
f 310 389 390
f 310 390 309
f 309 390 391
f 309 391 308
f 219 308 211
f 63 61 393
f 393 61 62
f 393 62 394
f 395 394 396
f 394 60 396
f 396 60 397
f 397 59 398
f 398 59 399
f 399 58 400
f 400 58 401
f 402 404 403
f 406 405 55
f 406 55 54
f 406 54 407
f 407 54 408
f 408 54 53
f 408 53 409
f 409 53 410
f 410 53 51
f 410 51 411
f 411 51 412
f 412 51 50
f 412 50 413
f 413 50 414
f 414 50 48
f 414 48 415
f 415 48 416
f 416 48 47
f 416 47 417
f 417 47 418
f 418 47 44
f 418 44 419
f 419 44 420
f 165 420 44
f 423 422 41
f 423 41 424
f 424 41 425
f 425 40 426
f 426 40 427
f 427 39 428
f 428 39 429
f 431 36 432
f 432 36 138
f 36 180 138
f 138 182 433
f 433 182 35
f 433 35 434
f 434 35 34
f 434 34 435
f 435 34 436
f 436 34 33
f 436 33 437
f 437 33 438
f 438 33 31
f 438 31 439
f 439 31 440
f 440 31 30
f 440 30 441
f 441 30 442
f 442 30 28
f 442 28 443
f 443 28 444
f 444 28 27
f 444 27 445
f 445 27 446
f 446 27 447
f 392 447 140
f 392 140 63
f 392 448 447
f 447 448 446
f 433 449 138
f 138 449 432
f 421 450 165
f 165 450 420
f 406 451 405
f 405 451 452
f 405 452 404
f 404 452 403
f 437 438 453
f 437 453 436
f 436 453 454
f 436 454 435
f 435 454 455
f 435 455 434
f 434 455 456
f 434 456 433
f 433 456 449
f 449 457 432
f 432 457 458
f 432 458 431
f 431 458 459
f 431 459 430
f 430 459 460
f 430 460 429
f 429 460 461
f 429 461 428
f 428 461 462
f 428 462 427
f 427 462 463
f 427 463 426
f 426 463 464
f 426 464 425
f 425 464 465
f 425 465 424
f 424 465 466
f 424 466 423
f 423 466 467
f 423 467 422
f 422 467 468
f 422 468 421
f 421 468 450
f 450 469 420
f 420 469 470
f 420 470 419
f 419 470 471
f 419 471 418
f 418 471 472
f 418 472 417
f 417 472 473
f 417 473 416
f 416 473 474
f 416 474 415
f 415 474 475
f 415 475 414
f 414 475 476
f 414 476 413
f 413 476 477
f 413 477 412
f 412 477 478
f 412 478 411
f 411 478 479
f 411 479 410
f 410 479 480
f 410 480 409
f 409 480 481
f 409 481 408
f 408 481 482
f 408 482 407
f 407 482 483
f 407 483 406
f 406 483 451
f 452 484 403
f 403 484 485
f 403 485 402
f 402 485 486
f 402 486 401
f 401 486 487
f 401 487 400
f 400 487 488
f 400 488 399
f 399 488 489
f 399 489 398
f 398 489 490
f 398 490 397
f 397 490 491
f 397 491 396
f 396 491 492
f 396 492 395
f 395 492 493
f 395 493 394
f 394 493 494
f 394 494 393
f 393 494 495
f 393 495 63
f 63 495 496
f 63 496 392
f 392 496 448
f 496 497 448
f 456 498 449
f 449 498 457
f 468 499 450
f 450 499 469
f 483 500 451
f 451 500 501
f 451 501 452
f 452 501 484
f 497 502 448
f 448 502 503
f 448 503 446
f 446 503 504
f 446 504 445
f 445 504 505
f 445 505 444
f 444 505 506
f 444 506 443
f 443 506 507
f 443 507 442
f 442 507 508
f 442 508 441
f 441 508 509
f 441 509 440
f 440 509 510
f 440 510 439
f 439 510 438
f 438 510 511
f 438 511 453
f 453 511 512
f 453 512 454
f 454 512 513
f 454 513 455
f 455 513 514
f 455 514 456
f 456 514 498
f 498 515 457
f 457 515 516
f 457 516 458
f 458 516 517
f 458 517 459
f 459 517 518
f 459 518 460
f 460 518 519
f 460 519 461
f 461 519 520
f 461 520 462
f 462 520 521
f 462 521 463
f 463 521 522
f 463 522 464
f 464 522 523
f 464 523 465
f 465 523 524
f 465 524 466
f 466 524 525
f 466 525 467
f 467 525 526
f 467 526 468
f 468 526 499
f 499 527 469
f 469 527 470
f 470 527 528
f 470 528 471
f 471 528 529
f 471 529 472
f 472 529 530
f 472 530 473
f 473 530 531
f 473 531 474
f 474 531 532
f 474 532 475
f 475 532 476
f 476 532 533
f 476 533 477
f 477 533 534
f 477 534 478
f 478 534 535
f 478 535 479
f 479 535 536
f 479 536 480
f 480 536 537
f 480 537 481
f 481 537 538
f 481 538 482
f 482 538 539
f 482 539 483
f 483 539 500
f 501 540 484
f 484 540 541
f 484 541 485
f 485 541 542
f 485 542 486
f 486 542 543
f 486 543 487
f 487 543 544
f 487 544 488
f 488 544 545
f 488 545 489
f 489 545 546
f 489 546 490
f 490 546 547
f 490 547 491
f 491 547 548
f 491 548 492
f 492 548 549
f 492 549 493
f 493 549 550
f 493 550 494
f 494 550 551
f 494 551 495
f 495 551 552
f 495 552 496
f 496 552 497
f 552 24 497
f 497 24 502
f 503 5 504
f 504 5 4
f 504 4 505
f 505 4 506
f 506 4 19
f 506 19 507
f 507 19 508
f 508 19 509
f 513 512 21
f 513 21 514
f 514 21 498
f 498 21 515
f 516 14 517
f 517 14 16
f 517 16 518
f 518 16 519
f 519 16 15
f 519 15 520
f 520 15 521
f 521 15 8
f 521 8 522
f 522 8 523
f 523 8 524
f 524 8 9
f 524 9 525
f 525 9 22
f 525 22 526
f 526 22 23
f 526 23 499
f 499 23 527
f 532 17 533
f 533 17 11
f 533 11 534
f 534 11 535
f 535 11 536
f 536 11 537
f 537 11 1
f 537 1 538
f 538 1 539
f 539 1 12
f 539 12 500
f 500 12 501
f 501 12 540
f 540 12 13
f 540 13 541
f 541 13 18
f 541 18 542
f 547 546 25
f 547 25 548
f 548 25 549
f 551 550 24
f 551 24 552
f 553 554 555
f 555 554 556
f 555 556 557
f 557 556 558
f 557 558 559
f 559 558 560
f 559 560 561
f 561 560 562
f 561 562 563
f 563 562 564
f 563 564 565
f 565 564 566
f 565 566 567
f 567 566 568
f 567 568 569
f 569 568 570
f 569 570 571
f 571 570 572
f 571 572 573
f 573 572 574
f 573 574 575
f 575 574 576
f 575 576 577
f 577 576 578
f 577 578 579
f 579 578 580
f 579 580 581
f 581 580 582
f 581 582 583
f 583 582 584
f 583 584 585
f 585 584 586
f 585 586 587
f 587 586 588
f 587 588 589
f 589 588 590
f 589 590 591
f 591 590 592
f 591 592 593
f 593 592 594
f 593 594 595
f 595 594 596
f 595 596 597
f 597 596 598
f 597 598 599
f 599 598 600
f 599 600 553
f 553 600 554
f 580 578 601
f 601 578 576
f 601 576 574
f 586 584 601
f 601 584 582
f 601 582 580
f 592 590 601
f 601 590 588
f 601 588 586
f 598 596 601
f 601 596 594
f 601 594 592
f 556 554 601
f 601 554 600
f 601 600 598
f 562 560 601
f 601 560 558
f 601 558 556
f 568 566 601
f 601 566 564
f 601 564 562
f 574 572 601
f 601 572 570
f 601 570 568
f 573 575 602
f 602 575 577
f 602 577 579
f 567 569 602
f 602 569 571
f 602 571 573
f 561 563 602
f 602 563 565
f 602 565 567
f 555 557 602
f 602 557 559
f 602 559 561
f 597 599 602
f 602 599 553
f 602 553 555
f 591 593 602
f 602 593 595
f 602 595 597
f 585 587 602
f 602 587 589
f 602 589 591
f 579 581 602
f 602 581 583
f 602 583 585
