v 0.00433098159 0.00938056234 0.00173917626
v 0.00404906644 0.00967999133 0.000593433706
v 0.00404508362 0.00962148573 -7.17083283e-05
v 0.0040777626 0.00963379209 -0.000586630496
v 0.00140478869 0.0120302174 -0.00280579367
v 0.00444575101 0.00920761932 -0.00209401638
v 0.00670782312 0.00700352918 -0.00396422976
v 0.00752511368 0.00620487694 -0.0038942277
v 0.00801883405 0.00564809854 -0.00356478338
v 0.00965939439 0.00405257996 -0.000207291676
v 0.00961937826 0.00411060521 0.000927795074
v 0.0093535931 0.00431313476 0.00167774129
v 0.00866546359 0.00488350718 0.00294739092
v 0.00700437383 0.00670702352 0.00396413441
v 0.00620542177 0.00752440272 0.00389418708
v 0.00564727337 0.00801978309 0.0035643438
v 0.00884357865 0.00488608074 -0.00290507508
v 0.00536023704 0.00826359616 0.00338238766
v 0.00477201171 0.00885154193 -0.00271603532
v 0.00982094635 0.00413209979 -0.00106185484
v 0.00610391563 0.00733114384 -0.00380227798
v 0.00887362426 0.00456143521 -0.00243160957
v 0.0114434859 0.00199155227 -0.00443312096
v 0.00733117526 0.00610388421 0.00380220181
v 0.00462315242 0.009088434 0.00241667548
v 0.00562712445 0.0080845716 -0.00357149926
v 0.00519796047 0.00823711453 -0.00772681339
v 0.00823572757 0.00519934922 0.00772736003
v 0.00229205878 0.00665112182 0.00876506364
v 0.00432760501 0.0078564786 0.00865979148
v 0.00309457259 0.00908746882 0.00795420181
v 4.12158486e-05 0.00896399646 0.00681628849
v 0.00199022055 0.0101892717 0.00690092862
v 0.00106593871 0.0111116907 0.00554816741
v -0.00148646593 0.0105301947 0.00374629827
v 0.000359905503 0.0118154968 0.00395397985
v -9.65247484e-05 0.012270324 0.00218749839
v -0.000505853521 0.0122376073 0.00103695697
v -0.000142066691 0.012305555 -0.001910217
v -0.00255724438 0.0101026459 -0.00262507102
v -0.00205385505 0.00959742798 -0.00437740977
v 0.00109527421 0.0108889003 -0.0058173889
v 0.00203535002 0.00993865466 -0.00711132718
v 0.00314615511 0.00882073018 -0.00810576731
v 0.00271240225 0.00605721412 -0.00894746434
v 0.00720490325 0.00498022431 -0.00887378724
v 0.00430817137 0.00223983052 -0.00926103425
v 0.00728186938 0.00168177481 -0.00840403024
v 0.00848638186 0.00369682546 -0.00835174561
v 0.00965798356 0.0025227819 -0.00746818322
v 0.00943698751 -0.000421822291 -0.00613696774
v 0.010674686 0.00150386871 -0.00625988734
v 0.0114928998 0.000683393887 -0.00477728716
v 0.0107716264 -0.00172255151 -0.00285981169
v 0.0120752783 9.92772321e-05 -0.00308864195
v 0.0123974067 -0.000224741721 -0.00126455482
v 0.0122679377 -0.000560942395 -0.000120450077
v 0.0104872412 -0.0017754326 0.00321140057
v 0.00959808172 -0.00205286075 0.0043774957
v 0.0108893129 0.00109555361 0.00581716389
v 0.00993952397 0.00203629224 0.0071112072
v 0.00882110103 0.00314418026 0.00810501129
v 0.00741463187 0.00476806676 0.00880706607
v 0.00750034753 0.00437668732 0.00877571245
v 0.00690814276 0.00566825815 0.00890265384
v -0.00630849806 -0.00587783638 0.00900625165
v -0.00805842418 -0.00412475239 -0.00856311069
v -0.00728213635 -0.0016818102 -0.00840393971
v -0.00720481432 -0.00498030463 -0.00887379815
v -0.00438312466 -0.00249719979 -0.00926508151
v -0.00587811387 -0.00630804217 -0.009006295
v 0.000135694854 -0.0123190325 0.00187193457
v -0.00412476713 -0.00805854038 0.00856313009
v -0.00168151233 -0.00728086704 0.00840431461
v -0.0049805695 -0.00720451259 0.00887390537
v -0.00249862721 -0.00438359671 0.00926512003
v -0.00350278723 -0.00868022302 0.0082256832
v -0.00163592977 -0.0101858173 0.00676081701
v -0.00183180587 -0.0103514392 0.00669123803
v -0.000740875143 -0.0110541028 0.0053946939
v -0.000941114327 -0.0112419714 0.00529259165
v -6.01970221e-05 -0.0117079787 0.00380442986
v -0.000275612912 -0.0119076227 0.0036622875
v 0.000376748932 -0.0121214273 0.00205631418
v 0.000216670697 -0.0124397034 -0.000912236
v 0.00202567535 -0.0108174186 -0.00177031722
v 6.99744448e-05 -0.0122886533 -0.00217861055
v 4.25877466e-05 -0.0119188794 -0.00320822109
v 0.00273561265 -0.00939499259 -0.0037744081
v -0.000597783253 -0.0116242553 -0.00448834248
v -0.000548512643 -0.0113283102 -0.00487234445
v 0.0020652244 -0.00874344055 -0.00542211997
v -0.0013801629 -0.0108388093 -0.00601813996
v -0.00136725706 -0.0105115015 -0.00632802747
v 0.00117956829 -0.00786595058 -0.00684846069
v -0.0023684359 -0.00984526803 -0.00728143748
v -0.00237877728 -0.00950162556 -0.00751657108
v 0.000109208791 -0.00680171931 -0.00799567397
v -0.00351833871 -0.00868824643 -0.0082238796
v -0.00354163392 -0.00834098253 -0.00838836604
v -0.00109937678 -0.005589933 -0.00881673568
v -0.00496812101 -0.00699495353 -0.00893339373
v -0.00879499542 -0.00360811189 -0.00819245159
v -0.0101849053 -0.00163527721 -0.00676107145
v -0.0110530842 -0.000739586561 -0.00539467314
v -0.0112422475 -0.00094114575 -0.00529221879
v -0.0117076619 -6.02204907e-05 -0.00380493374
v -0.0119075577 -0.000275585104 -0.00366230108
v -0.0121210367 0.00037712706 -0.00205662167
v -0.0123189409 0.000135743797 -0.00187222705
v -0.0124720753 0.000249783647 -3.17353498e-05
v -0.0123242965 0.000449783434 0.000484554047
v -0.00989997784 0.0032726177 0.00103862405
v -0.0123372248 0.00011372407 0.00184705344
v -0.0121199448 0.000244132479 0.00232239681
v -0.00963011678 0.00297804247 0.00288816843
v -0.0116541027 -0.000223447546 0.00406261184
v -0.00909837005 0.00243054885 0.00462166543
v -0.0112599965 -0.000960730086 0.00528258148
v -0.0109469919 -0.000932340609 0.00563004147
v -0.00832982632 0.00164923201 0.00616625236
v -0.0100282491 -0.00185236526 0.00695957047
v -0.00735342281 0.000665847171 0.00746054718
v -0.00928399895 -0.00292658065 0.00779582335
v -0.00893622968 -0.00294614616 0.00799574641
v -0.00620994825 -0.000480946696 0.00845011703
v -0.00789801193 -0.00401103942 0.00861603603
v -0.00494790725 -0.00174231216 0.00909278989
v -0.00699517856 -0.00496768342 0.00893339379
v -0.000366852066 -0.00501253848 0.00887517401
v -0.00501179637 -0.000366971367 -0.00887545935
v 0.000796569037 -0.00258801124 0.00924518014
v -0.00258977828 0.000794872257 -0.00924509547
v -0.000473028261 0.00223915756 -0.00932678557
v 0.00100962193 0.0043672578 -0.0091610844
v 0.0101105473 -0.0029527449 0.00138481001
v -0.000191262644 0.0124486578 -0.00115525777
v 0.00192042796 -0.000125737836 0.00943967579
v 0.0061483311 0.00547401011 0.00906810966
v 0.00191903907 -0.00729940506 0.00686077052
v 0.00323499357 -0.00503066766 0.00755249163
v 0.00447038448 -0.00267459424 0.0081040122
v 0.00559251519 0.00110101782 0.00881631227
v 0.00679862158 -0.000110882818 0.0079965406
v 0.00346106055 -0.00883697212 0.00373380726
v 0.0050082215 -0.00679986126 0.00463531256
v 0.00644053013 -0.00464509704 0.00545482313
v 0.00786581493 -0.00117812435 0.00684939474
v 0.00874179905 -0.00206776551 0.00542153357
v 0.00607914174 -0.00731056636 0.00111063107
v 0.00729904556 -0.00554999607 0.00285012929
v 0.00997981312 -0.00281885818 0.00231060914
v 0.00403712889 -0.00928506086 7.49403669e-07
v 0.000665582887 -0.0121846212 9.5677499e-05
v 0.00934569566 -0.00396907485 -0.000959357328
v 0.00666466818 -0.00666352802 -0.00144375792
v 0.00490787036 -0.00849849169 -0.000954440815
v 0.00728590382 -0.0055354526 -0.00284472308
v 0.00778276141 -0.00426880869 -0.00418318339
v 0.00500675899 -0.00680258042 -0.00463357648
v 0.00776447087 -0.00238859778 -0.0061660418
v 0.00554886381 -0.00375584457 -0.00692184854
v 0.00323626373 -0.00503146541 -0.00755133043
v 0.00563440782 -0.000257040146 -0.00849748462
v 0.00324205852 -0.00144748058 -0.00895568562
v 0.00381396461 0.00338323953 -0.00933864444
v 0.000340416086 -0.000340137568 -0.00951009022
v 0.000795688937 -0.00259056904 -0.00924479687
v -0.0022781549 -0.00449392376 -0.00923757762
v -0.0038139892 -0.00338326624 -0.00933864607
v 0.000872177536 0.000872146116 -0.0094898724
v 0.00548951165 0.00646601307 -0.00902306033
v -0.00729809997 0.00192082622 -0.00686059736
v -0.00503069892 0.00323541641 -0.0075521819
v -0.00267497268 0.00446981643 -0.00810403785
v -0.000109940669 0.00680087301 -0.00799580741
v -0.00883719514 0.0034607882 -0.00373389953
v -0.00680053322 0.0050077557 -0.00463499018
v -0.00464569918 0.00643967362 -0.00545509899
v -0.00117801409 0.00786763291 -0.00684817094
v -0.00206465191 0.00874484927 -0.00542112457
v -0.00849962456 0.00492608144 -0.000545211524
v -0.00667627779 0.00667465062 -0.00144662422
v -0.00554981869 0.00729960962 -0.00284934269
v -0.000192957466 0.0123762002 -0.00136146778
v -0.000274854248 0.012458097 2.15156537e-08
v -0.003368848 0.00990782065 0.000386528187
v -0.00571758939 0.00751136582 0.0019231263
v -0.00751246351 0.0057168542 0.00192180877
v -0.00345829949 0.00883932085 0.00373413177
v -0.0046454937 0.0064389143 0.0054561042
v -0.00643834065 0.00464713998 0.00545503658
v -0.00191838788 0.00729971127 0.00686089301
v -0.0026747428 0.00446872653 0.00810469749
v -0.00446959801 0.00267502278 0.00810419553
v 0.000366799963 0.0050124955 0.00887518637
v -0.00255940287 0.000809636936 0.00919845782
v 0.00369445747 0.00501735114 0.00919916397
v 0.0030295421 0.00234905547 0.00945140926
v -0.000474146871 0.00223662157 0.00932706547
v -0.00121457023 -0.000534587132 0.0094897866
v -0.00348578395 -0.00337459512 0.00937279623
v -0.00405264469 -0.00965896387 0.000208764497
v -0.00411105302 -0.00961893263 -0.000930590318
v -0.00431289537 -0.00935372989 -0.00167708302
v -0.00413769044 -0.00957408352 0.000990449775
v -0.00578331268 -0.00781170791 -0.0036748055
v -0.00690924382 -0.00667579327 -0.00394371853
v -0.00520093488 -0.00823405309 -0.00772811965
v -0.00887353951 -0.00456147291 -0.00243160957
v -0.0110940631 -0.00234103607 -0.00516770827
v -0.00940233253 -0.00426379429 -0.00155201842
v -0.00957397728 -0.00413759165 -0.000990118664
v -0.0125036959 -0.000914990192 0.000308273334
v -0.00961133096 -0.00404184756 0.000477887444
v -0.00949851341 -0.00421237589 0.00135780456
v -0.0067175203 -0.00671749212 0.00389995342
v -0.00440239211 -0.00919296019 0.00203414785
v -0.00471428281 -0.00896618518 -0.00261969827
v -0.0054943718 -0.00821179486 -0.00358124972
v -0.00724011773 -0.00619492498 -0.0080040595
v -0.00814536904 -0.00528961402 -0.00336208694
v -0.00868270693 -0.00500486728 0.0031623089
v -0.0115012627 -0.00193376807 0.00430735523
v -0.00800440155 -0.00543061099 0.00351876745
v -0.00973747002 -0.00365805465 0.00710238299
v -0.00902123982 -0.00441371299 0.00731768375
v -0.00706387015 -0.00637110516 0.00800530811
v -0.00903205104 -0.00439246364 0.00748937792
v -0.00620542789 -0.00752407673 0.00389404062
v -0.00545442518 -0.00818805399 0.00346098147
v -0.00923298117 -0.00420210687 -0.00723598694
v -0.00372727314 -0.00263669084 0.00388570862
v -0.00598204432 -0.000381900495 0.000113064302
v -0.00542104819 -0.000942896974 -0.00238045795
v -0.00388304186 -0.00248093993 -0.00383549122
v -0.00231908545 -0.00404487288 -0.00372726022
v -0.0012607719 -0.0051031577 -0.0028283398
v -0.000583318263 -0.00578062228 -0.00136958226
v -0.00102587277 -0.00533806182 0.0024316526
v -0.00189505709 -0.00446890369 0.00351873409
v -0.00213146741 -0.00423246097 0.00203423242
v -0.00272448594 -0.00363950826 0.00241484409
v -0.00345631256 -0.00290769369 0.00248889437
v -0.00409988791 -0.00226409558 0.00278727214
v -0.00158901878 -0.00477492416 -0.00120164339
v -0.000773153656 -0.00559080605 0.000698325222
v -0.00116629032 -0.00519766045 0.000942724049
v -0.00456905556 -0.00179491385 -0.00158026085
v -0.00382456969 -0.0025393989 -0.00234928904
v -0.00318201119 -0.00318198301 -0.0025000357
v -0.0024615754 -0.00390237959 -0.00230371901
v -0.00466131293 -0.00170261713 0.00316231256
v -0.0049864046 -0.00137760247 -8.55810549e-05
v 0.00299106066 0.00337292276 0.00250441937
v 0.00213132849 0.00423258389 0.00203412984
v 0.00145472401 0.00490923972 0.00074302577
v 0.00168128578 0.00468265531 -0.00150401279
v 0.00312150512 0.00324247431 -0.00255179322
v 0.00441497345 0.0019489889 -0.00186499902
v 0.00488953059 0.00147445105 -0.000647046508
v 0.00494052432 0.00142342774 0.000577816605
v 0.00413647954 0.00222748928 0.00216726134
v 0.00149874672 0.00486522211 -0.00316648428
v 0.000697416717 0.00566662453 -0.00169215435
v 0.000381945336 0.00598201997 -0.000113081795
v 0.00490133231 0.00146258973 0.00304915672
v 0.00567007818 0.000693913421 0.00182007982
v 0.00594339367 0.00042052939 -0.000360497944
v 0.000697416717 0.00566662453 0.00169219738
v 0.00118195123 0.00518202074 0.00271678524
v 0.00221343243 0.00415052073 0.00367498427
v 0.00372730386 0.00263667034 0.0038857176
v 0.00566665595 0.000697385297 -0.00169215435
v 0.00533799594 0.0010259261 -0.00243160957
v 0.00446872508 0.00189519849 -0.00351881841
v 0.0029267815 0.00343717409 -0.00390532287
v -0.00722554505 -0.00528879947 0.00885416907
v -0.00890251899 -0.00376193268 0.00817066381
v -0.0104599905 -0.00195464955 0.00665939811
v -0.0113762193 -0.00113980867 0.00525882011
v -0.0120095854 -0.000407710869 0.00363368193
v -0.012274819 -0.000241209044 0.00276472336
v -0.0125027829 -1.98482015e-05 0.00151333393
v -0.00472934029 -0.00783986045 -0.00871543901
v -0.00245556752 -0.0101825632 -0.00705858315
v -0.00150249346 -0.0111361265 -0.005768132
v -0.000478582924 -0.0120374451 -0.00363908047
v -6.98142701e-05 -0.0124461541 -0.00186012024
v -0.0101607388 -0.00325272547 0.00658421316
v -0.0109549564 -0.00241739668 0.00577309143
v -0.0122025591 -0.00119276215 0.00288399841
v -0.0125829419 -0.000776587526 -0.000698970548
v -0.0118968685 -0.00149846433 -0.00385489531
v -0.0104365536 -0.00292752003 -0.00646910262
v -0.00984140023 -0.00355290002 -0.00696055389
v -0.00274984195 -0.0106575695 -0.00606251532
v -0.00187499944 -0.0115135985 -0.00475971818
v -0.00119257467 -0.0122027588 -0.00288301425
v -0.000839365161 -0.0125559952 0.000532036826
v -0.00141171114 -0.011999269 0.00343955325
v -0.00200513469 -0.0113834877 0.005012822
v -0.00244220968 -0.0109788685 0.00551387345
v -0.00232546584 -0.0109712805 0.00588491026
v -0.00379232599 -0.0095992705 0.00721984827
v -0.00524612964 -0.00814916366 0.00804427978
v -0.00814826229 -0.00524705806 -0.00804456854
v -0.00669677789 -0.00669680931 0.00825049645
v -0.00573640802 -0.00754274043 0.0084286767
v -0.00592135174 -0.00716288155 0.00865674065
v -0.00557860949 -0.00712345695 0.0088630951
v -0.00625796849 -0.00625799991 0.00894691712
v -0.00579630754 -0.0075655874 -0.00828482583
v -0.00754262187 -0.00573662627 -0.00842855615
v -0.00716270441 -0.00592173794 -0.00865659742
v -0.00738660319 -0.00545467639 -0.00877961968
v -0.00625796849 -0.00625799991 -0.00894687408
v -0.00559671456 -0.00691931344 0.0088979221
v -0.00370592416 -0.00939468844 0.00770280796
v -0.00410118001 -0.00872251938 0.00824167207
v -0.00430305535 -0.00821297265 0.00850906139
v -0.00263587474 -0.010464629 0.00669868319
v -0.00301789609 -0.0093853508 0.00776500594
v -0.00273771817 -0.0100820551 0.00714792973
v -0.00253947312 -0.00997655488 0.00723817116
v -0.00202484662 -0.0104911814 0.00664880043
v -0.0010268194 -0.0122524743 0.00310860291
v -0.00106268753 -0.0120296607 0.00399291358
v -0.00152656162 -0.0111883951 0.00570307897
v -0.00113983685 -0.0113761912 0.00525882011
v -0.000793208796 -0.0119211619 0.00415810741
v -0.000478582924 -0.0120374451 0.00363900429
v -0.0006179393 -0.0126612659 -0.000388730287
v -0.000388263136 -0.0127039766 0.000493843389
v -0.00030367329 -0.0124109824 0.00243103686
v -6.98142701e-05 -0.0124461541 0.00186016327
v -0.000145092472 -0.0126956699 -0.000440996279
v 0.000110959481 -0.0125144527 0.000932187957
v 7.62975444e-05 -0.0125784726 -0.000524659819
v -0.00112144803 -0.0121042138 -0.00363945896
v -0.000639207776 -0.012368887 -0.00284108963
v -0.000360334446 -0.0123093396 -0.00282006076
v -0.00264276344 -0.0105827477 -0.00648358566
v -0.0019635259 -0.0110443963 -0.0059695408
v -0.00105742874 -0.0116709388 -0.00476959125
v -0.00353355614 -0.00933568357 -0.00783568875
v -0.00417903971 -0.00915591938 -0.00765815573
v -0.00456455916 -0.00882963578 -0.00768942617
v -0.00477773191 -0.00806344884 -0.00857621915
v -0.00524121107 -0.00784315419 -0.00850431662
v -0.00574176906 -0.00765247184 -0.00814845579
v -0.00691934163 -0.00559668638 -0.00889787907
v -0.00970032798 -0.00350331456 -0.00739433141
v -0.00872605805 -0.00435406329 -0.00811569901
v -0.00757332379 -0.00494264461 -0.00875137085
v -0.00821300084 -0.00430302717 -0.00850901836
v -0.00924207638 -0.00358171728 -0.00788815963
v -0.00938529747 -0.00301777903 -0.00776496217
v -0.0116726764 -0.00160653829 -0.00469138139
v -0.0113225576 -0.00176979678 -0.00551843397
v -0.0108511642 -0.00198991783 -0.00629992484
v -0.00997658307 -0.00253944494 -0.00723824734
v -0.0104912096 -0.00202481843 -0.00664887661
v -0.0107345921 -0.00172753864 -0.00631815117
v -0.0113762193 -0.00113980867 -0.00525889629
v -0.0125608203 -0.000642900365 -0.00169074258
v -0.012267356 -0.000812752215 -0.00313343128
v -0.0119211854 -0.000793365069 -0.00415803743
v -0.0120374733 -0.000478554739 -0.00363908047
v -0.0124108718 -0.000303336003 -0.00243114298
v -0.0124461227 -6.98456901e-05 -0.00186012024
v -0.0124724223 -0.000806901182 0.00215151404
v -0.0126420455 -0.00045025911 0.00132735818
v -0.0126956613 -0.000145252425 0.000440916497
v -0.0125215489 0.000101640315 -0.000923431478
v -0.0125844055 6.84370857e-05 2.15156537e-08
v -0.0114485969 -0.00177703425 0.00517561499
v -0.0118229287 -0.00118511242 0.00450363964
v -0.0120617678 -0.000606242133 0.00380060093
v -0.00970224806 -0.00346354078 0.00742957996
v -0.010280046 -0.0025375588 0.00697947681
v -0.0109819016 -0.00168799473 0.0060126384
v -0.00885009124 -0.00449205639 0.00781038734
v -0.00790973241 -0.00548385478 0.00807013279
v -0.00806358688 -0.00477763568 0.00857614179
v -0.00784396018 -0.00524041983 0.00850403634
v -0.00765501848 -0.00568727539 0.00828003894
v 0.00631729251 0.00634944533 0.00890899365
v 0.00762731169 0.00503932123 0.00871902194
v 0.00856007125 0.00404409901 0.00835858485
v 0.0088639894 0.0038138156 0.00815601375
v 0.00944065453 0.0032293766 0.0077491693
v 0.00995576759 0.00261212222 0.00728819755
v 0.0105120288 0.00215786665 0.00666659986
v 0.0109447077 0.00162235705 0.00605262672
v 0.0114010169 0.00126903341 0.00529256448
v 0.0117303757 0.000835828508 0.00455501365
v 0.0120361851 0.000529769139 0.00372793775
v 0.0123096239 0.000360620795 0.00281954885
v 0.0122950922 0.000129822253 0.00257483648
v 0.0124760831 -0.000100224914 0.0012712081
v 0.0126320263 2.91934356e-05 3.87772921e-05
v 0.0126002087 6.67452625e-05 -0.000908686829
v 0.012498618 0.000167864519 -0.00182973742
v 0.0123296769 0.000337230561 -0.00273132136
v 0.0120949321 0.000572108854 -0.00360287844
v 0.0117970571 0.000869675148 -0.00443451991
v 0.0114392175 0.00122770354 -0.00521845828
v 0.0110257688 0.00164102756 -0.00594415642
v 0.0105605073 0.00210585881 -0.00660538673
v 0.0100490934 0.00261708913 -0.00719413352
v 0.00949717788 0.00317011568 -0.00770392639
v 0.00891030929 0.00375662566 -0.00812954187
v 0.00829564465 0.00437139408 -0.00846574732
v 0.00765918556 0.00500796626 -0.0087093531
v 0.00691327241 0.00583822585 -0.00887050666
v 0.00600782724 0.00659616961 -0.00893578522
v 0.00534920486 0.00724831623 -0.00884645006
v 0.00469956703 0.00789917088 -0.00865666756
v 0.0040439277 0.00856032254 -0.00835844029
v 0.00381357346 0.00886395793 -0.00815614516
v 0.0032292261 0.00944092757 -0.00774896574
v 0.00261204965 0.00995599964 -0.007288061
v 0.00215769994 0.0105117755 -0.00666691961
v 0.00162249687 0.0109448872 -0.00605257292
v 0.00126903892 0.01140088 -0.00529283509
v 0.000835995041 0.0117303816 -0.0045550959
v 0.000529665052 0.012036149 -0.00372795862
v 0.000286063204 0.0122792047 -0.00286067796
v 0.000184617956 0.0124850625 -0.00192139644
v 2.91000337e-05 0.0126319851 -3.87006032e-05
v 6.68202557e-05 0.0126001913 0.000908522654
v 0.000167917879 0.0124985982 0.00182987878
v 0.000337303994 0.0123296427 0.0027313709
v 0.000572079861 0.0120949369 0.00360277438
v 0.000869822718 0.0117970735 0.00443466394
v 0.00139846458 0.011606739 0.00502110788
v 0.00179714715 0.0112079796 0.00574754009
v 0.00224844013 0.0107568746 0.00641231715
v 0.00274544904 0.0102598184 0.00700588849
v 0.00328411072 0.00972118697 0.00752311082
v 0.00385777095 0.00914739753 0.00795773332
v 0.00445971763 0.00854523957 0.00830502698
v 0.00508360208 0.00792132878 0.00856103796
v 0.00551855054 0.00686191731 0.00892980842
v 0.00573491817 0.00737550762 0.00860423066
v 0.000315831333 0.0126467695 -0.000901902312
v 0.0126467596 0.000315655251 0.000902035453
v 0.0125462928 0.000416331445 0.00180812613
v 0.00105982029 0.0121321343 0.0035181062
v 0.000830222932 0.0123617878 0.00268055627
v 0.000663917379 0.0125282616 0.00181387127
v 0.000562074828 0.0126299129 0.000926530105
v 0.000526761457 0.0126652865 2.98505237e-05
v 0.000655117572 0.0125370648 -0.00175525173
v 0.00081725889 0.0123747237 -0.00262419236
v 0.00104290482 0.012149081 -0.00346422673
v 0.00132950843 0.0118627019 -0.00426592317
v 0.00167346475 0.0115186862 -0.00502075234
v 0.00207175039 0.0111204316 -0.00572116928
v 0.00251957997 0.0106725568 -0.00635910805
v 0.00301151843 0.01018072 -0.00692622332
v 0.00354321018 0.00964892223 -0.00741835788
v 0.00410829812 0.00908397976 -0.00782884342
v 0.00470042255 0.00849180302 -0.00815368411
v 0.00531389902 0.00787813995 -0.00838960962
v 0.0059409137 0.00725111427 -0.00853326768
v 0.006574753 0.00661745349 -0.00858311769
v 0.00783734782 0.00535459403 -0.00840193296
v 0.00845135931 0.00474091207 -0.00817222639
v 0.00904570062 0.0041464031 -0.00785304354
v 0.00961234511 0.003579987 -0.00744808049
v 0.0101467551 0.00304547959 -0.00696113722
v 0.0106418014 0.00255019777 -0.00639841772
v 0.0110920658 0.00210002751 -0.00576576044
v 0.0114936897 0.00169843674 -0.00506931568
v 0.0118421708 0.00134958604 -0.00431644275
v 0.0121318384 0.00106037194 -0.00351884733
v 0.0123616904 0.000830524894 -0.00268067816
v 0.0125282816 0.00066386979 -0.00181345801
v 0.0126298582 0.000562161236 -0.000926536506
v 0.0126653013 0.000526895546 -2.98001763e-05
v 0.0123747333 0.000817495387 0.00262396148
v 0.0121492294 0.0010429868 0.00346355772
v 0.0118624096 0.00132932128 0.00426677366
v 0.0115185737 0.00167343586 0.00502102334
v 0.0111203585 0.00207178136 0.0057213411
v 0.0106728108 0.00251939237 0.00635874134
v 0.0101805826 0.00301159734 0.00692647953
v 0.00964909487 0.00354295316 0.00741828977
v 0.00908327267 0.00410858501 0.00782959848
v 0.008492115 0.00470018729 0.00815352684
v 0.00787797839 0.00531394049 0.00838977977
v 0.00725136823 0.0059406017 0.00853315472
v 0.00661716595 0.0065750902 0.00858311011
v 0.00611187746 0.0072407978 0.00832903285
v 0.000786917161 0.0125657913 -0.00079871449
v 0.00724073668 0.00611197605 -0.00832899312
v 0.0125658039 0.000786823335 0.000798462306
v 0.0124744197 0.000878281171 0.00166566467
v 0.00548390811 0.00790972613 0.00807013279
v 0.00489406055 0.00849957369 0.00784661537
v 0.00432388251 0.00906969212 0.00753714806
v 0.00360565447 0.00981049592 0.00693443376
v 0.00279311603 0.0106004586 0.00613131291
v 0.00236133998 0.0110322943 0.00552060371
v 0.00197700923 0.0114165654 0.00484945541
v 0.00164441531 0.0117491593 0.00412525898
v 0.00136725372 0.0120263805 0.00335576302
v 0.00114838546 0.0122451892 0.00254955059
v 0.000990313942 0.0124032607 0.00171532398
v 0.000894827301 0.0124988069 0.000862381516
v 0.000862879211 0.012530755 2.15156537e-08
v 0.000990313942 0.0124032607 -0.00171540016
v 0.00114838546 0.0122451892 -0.00254950756
v 0.00136725372 0.0120263805 -0.00335571999
v 0.00164441531 0.0117491593 -0.00412521595
v 0.00197700923 0.0114165654 -0.00484953159
v 0.00255617738 0.0108600116 -0.00573239187
v 0.00326768821 0.0101258864 -0.00667474502
v 0.00377981132 0.00961376332 -0.00714514488
v 0.00432388251 0.00906969212 -0.00753710503
v 0.00489406055 0.00849957369 -0.00784669155
v 0.00548390811 0.00790972613 -0.00807020897
v 0.00608698791 0.00730664633 -0.00820527309
v 0.00669686263 0.00669683121 -0.00825045341
v 0.00790969794 0.00548387669 -0.00807020897
v 0.00849954551 0.00489402913 -0.00784669155
v 0.00906972354 0.0043239107 -0.00753710503
v 0.00951283261 0.00390378747 -0.00717049262
v 0.0101259178 0.00326771639 -0.00667474502
v 0.01060049 0.00279314421 -0.00613126987
v 0.0110322661 0.00236136817 -0.00552067989
v 0.0114165968 0.00197703742 -0.00484953159
v 0.0116722626 0.00174435399 -0.00422679461
v 0.011938074 0.00148241244 -0.00351164559
v 0.0124032921 0.000990342126 -0.00171540016
v 0.0124987788 0.000894795881 -0.000862457694
v 0.0125307268 0.000862847791 2.15156537e-08
v 0.0122452206 0.00114841364 0.00254955059
v 0.0120263523 0.0013672223 0.00335576302
v 0.0117782549 0.00163836532 0.00396717267
v 0.0114575114 0.00195918525 0.00469407284
v 0.0111044183 0.00231611947 0.00532684342
v 0.0106640596 0.00275256887 0.00598746808
v 0.010225177 0.00319532388 0.00650266806
v 0.00969717984 0.00371946603 0.00701983478
v 0.00906972354 0.0043239107 0.00753714806
v 0.00849954551 0.00489402913 0.00784661537
v 0.00790969794 0.00548387669 0.00807013279
v 0.00730661815 0.00608701609 0.00820519692
v 0.00669686263 0.00669683121 0.00825049645
v -0.00883884961 -0.00883882142 0.00150003201
v 0.00856427615 0.00911338233 0.00144889122
v -0.0091133886 -0.00856434204 0.00144889122
v 0.00830845302 0.00936914586 0.00129904514
v -0.00936921174 -0.0083085189 0.00129904514
v 0.00808886951 0.00958884858 0.00106062656
v -0.00958879525 -0.00808881618 0.00106062656
v 0.00792030757 0.00975741051 0.000749967156
v -0.00975735719 -0.00792025424 0.000749967156
v 0.00781433051 0.00986332797 0.000388286172
v -0.00986333424 -0.00781433679 0.000388286172
v 0.0077782101 0.00989950799 2.15156537e-08
v -0.00989945466 -0.00777815677 2.15156537e-08
v 0.00781433051 0.00986332797 -0.00038824314
v -0.00986333424 -0.00781433679 -0.00038824314
v 0.00792030757 0.00975741051 -0.000750043334
v -0.00975735719 -0.00792025424 -0.000750043334
v 0.00808886951 0.00958884858 -0.00106070274
v -0.00958879525 -0.00808881618 -0.00106070274
v 0.00830845302 0.00936914586 -0.00129900211
v -0.00936921174 -0.0083085189 -0.00129900211
v 0.00856427615 0.00911338233 -0.00144884819
v -0.0091133886 -0.00856434204 -0.00144884819
v 0.00883881515 0.00883884333 -0.00149998897
v -0.00883884961 -0.00883882142 -0.00149998897
v 0.00911335414 0.00856430434 -0.00144884819
v -0.00856431062 -0.00911336042 -0.00144884819
v 0.00936917728 0.0083084812 -0.00129900211
v -0.00830848748 -0.00936918355 -0.00129900211
v 0.00958888 0.00808883809 -0.00106070274
v -0.00808878476 -0.00958882667 -0.00106070274
v 0.00975744193 0.00792027615 -0.000750043334
v -0.00792022282 -0.00975738861 -0.000750043334
v 0.00986329978 0.00781429909 -0.00038824314
v -0.00781436498 -0.00986336566 -0.00038824314
v 0.00989953941 0.00777817868 2.15156537e-08
v -0.00777812535 -0.00989948608 2.15156537e-08
v 0.00986329978 0.00781429909 0.000388286172
v -0.00781436498 -0.00986336566 0.000388286172
v 0.00975744193 0.00792027615 0.000749967156
v -0.00792022282 -0.00975738861 0.000749967156
v 0.00958888 0.00808883809 0.00106062656
v -0.00808878476 -0.00958882667 0.00106062656
v 0.00936917728 0.0083084812 0.00129904514
v -0.00830848748 -0.00936918355 0.00129904514
v 0.00911335414 0.00856430434 0.00144889122
v -0.00856431062 -0.00911336042 0.00144889122
v 0.00883881515 0.00883884333 0.00150003201
v 0.00883881515 0.00883884333 2.15156537e-08
v -0.00883884961 -0.00883882142 2.15156537e-08
f 5 4 6
f 536 535 20
f 20 535 23
f 20 23 22
f 22 23 17
f 13 544 543
f 13 543 542
f 19 26 519
f 7 27 21
f 21 27 26
f 13 546 545
f 13 545 544
f 14 28 24
f 24 28 13
f 13 28 547
f 13 547 546
f 18 25 504
f 74 77 323
f 74 323 78
f 78 79 80
f 80 81 82
f 82 83 84
f 68 103 358
f 68 358 104
f 104 364 105
f 105 106 107
f 107 108 109
f 109 110 375
f 73 77 74
f 67 103 68
f 75 73 74
f 69 67 68
f 76 75 74
f 76 74 130
f 70 69 68
f 70 68 131
f 66 75 202
f 202 75 76
f 76 130 132
f 71 69 170
f 170 69 70
f 70 131 133
f 202 76 201
f 201 76 132
f 201 132 138
f 74 78 140
f 74 140 130
f 130 140 141
f 130 141 132
f 132 141 142
f 132 142 138
f 138 142 143
f 138 143 199
f 199 143 64
f 199 64 139
f 139 64 63
f 139 63 65
f 78 80 140
f 142 144 143
f 143 144 62
f 143 62 390
f 143 390 64
f 80 82 145
f 80 145 140
f 140 145 146
f 140 146 141
f 141 146 147
f 141 147 142
f 142 147 148
f 142 148 144
f 144 148 61
f 144 61 393
f 144 393 62
f 82 84 145
f 147 149 148
f 148 149 60
f 148 60 395
f 148 395 61
f 84 150 145
f 145 150 151
f 145 151 146
f 146 151 147
f 147 151 59
f 147 59 149
f 149 59 397
f 149 397 60
f 59 398 397
f 151 150 152
f 151 152 58
f 151 58 59
f 59 58 400
f 59 400 398
f 150 136 152
f 58 152 400
f 57 136 155
f 155 136 150
f 157 150 153
f 153 150 154
f 154 150 84
f 154 84 338
f 338 84 72
f 57 401 136
f 136 401 152
f 152 401 400
f 156 155 150
f 156 150 157
f 54 56 57
f 54 57 155
f 157 153 86
f 86 153 154
f 86 154 85
f 55 56 54
f 158 155 156
f 87 86 85
f 159 54 155
f 159 155 158
f 160 158 156
f 160 156 89
f 89 156 157
f 89 157 88
f 88 157 86
f 88 86 87
f 53 55 54
f 159 158 160
f 51 53 54
f 51 54 161
f 161 54 159
f 92 160 89
f 92 89 91
f 91 89 90
f 90 89 88
f 52 53 51
f 162 161 159
f 162 159 160
f 163 162 160
f 163 160 95
f 95 160 92
f 95 92 94
f 94 92 93
f 93 92 91
f 50 52 51
f 48 50 51
f 48 51 164
f 164 51 161
f 164 161 162
f 98 163 95
f 98 95 97
f 97 95 96
f 96 95 94
f 49 50 48
f 165 164 162
f 165 162 163
f 168 165 163
f 168 163 101
f 101 163 98
f 101 98 100
f 100 98 99
f 99 98 97
f 46 49 48
f 47 46 48
f 47 48 164
f 47 164 165
f 169 168 101
f 169 101 102
f 102 101 100
f 416 46 166
f 166 46 47
f 167 47 165
f 167 165 168
f 102 71 170
f 102 170 169
f 169 170 168
f 168 170 167
f 167 171 47
f 47 171 166
f 416 166 172
f 170 70 167
f 167 70 133
f 167 133 171
f 171 133 134
f 171 134 166
f 166 134 135
f 166 135 172
f 68 104 173
f 68 173 131
f 131 173 174
f 131 174 133
f 133 174 175
f 133 175 134
f 134 175 135
f 135 45 172
f 172 45 418
f 172 418 417
f 45 419 418
f 104 105 173
f 175 176 135
f 135 176 44
f 135 44 45
f 45 44 420
f 45 420 419
f 105 107 177
f 105 177 173
f 173 177 178
f 173 178 174
f 174 178 179
f 174 179 175
f 175 179 180
f 175 180 176
f 176 180 43
f 176 43 423
f 176 423 44
f 107 109 177
f 179 181 180
f 180 181 42
f 180 42 425
f 180 425 43
f 375 182 109
f 109 182 183
f 109 183 177
f 177 183 184
f 177 184 178
f 178 184 179
f 179 184 41
f 179 41 181
f 181 41 427
f 181 427 42
f 41 428 427
f 184 183 40
f 184 40 41
f 41 40 429
f 41 429 428
f 40 39 429
f 182 187 183
f 183 187 137
f 183 137 40
f 40 137 185
f 40 185 39
f 188 187 182
f 188 182 189
f 189 182 113
f 113 182 112
f 112 182 111
f 111 182 375
f 38 186 187
f 187 186 137
f 35 37 38
f 35 38 190
f 190 38 187
f 190 187 188
f 116 189 113
f 116 113 115
f 115 113 114
f 114 113 112
f 36 37 35
f 191 190 188
f 191 188 192
f 192 188 189
f 192 189 118
f 118 189 116
f 118 116 117
f 117 116 282
f 282 116 115
f 34 36 35
f 32 34 35
f 32 35 193
f 193 35 190
f 193 190 191
f 121 192 118
f 121 118 120
f 120 118 119
f 119 118 117
f 33 34 32
f 194 193 191
f 194 191 195
f 195 191 192
f 195 192 123
f 123 192 121
f 123 121 122
f 122 121 280
f 280 121 120
f 31 33 32
f 29 31 32
f 29 32 196
f 196 32 193
f 196 193 194
f 126 195 123
f 126 123 125
f 125 123 124
f 124 123 122
f 30 31 29
f 200 196 194
f 200 194 197
f 197 194 195
f 197 195 128
f 128 195 126
f 128 126 127
f 127 126 125
f 445 30 29
f 128 127 129
f 198 445 29
f 198 29 199
f 199 29 196
f 199 196 200
f 201 200 197
f 201 197 202
f 202 197 128
f 202 128 129
f 129 66 202
f 200 201 138
f 200 138 199
f 198 199 139
f 198 139 445
f 207 208 209
f 211 210 212
f 214 213 215
f 210 211 222
f 224 216 223
f 225 229 227
f 225 227 226
f 230 228 217
f 217 228 225
f 225 228 229
f 301 302 218
f 218 302 303
f 218 303 231
f 231 303 305
f 222 232 208
f 208 232 221
f 211 232 222
f 219 297 298
f 226 290 225
f 225 290 223
f 233 217 225
f 233 225 245
f 245 225 253
f 253 225 223
f 253 223 216
f 253 216 234
f 234 216 215
f 234 215 213
f 234 213 235
f 235 213 212
f 235 212 210
f 235 210 222
f 235 222 236
f 236 222 208
f 236 208 237
f 237 208 207
f 237 207 238
f 238 207 220
f 238 220 219
f 238 219 239
f 239 219 205
f 239 205 204
f 239 204 247
f 247 204 203
f 247 203 206
f 247 206 248
f 248 206 218
f 248 218 240
f 240 218 241
f 241 218 231
f 241 231 230
f 241 230 233
f 233 230 217
f 242 241 243
f 243 241 244
f 244 241 233
f 244 233 245
f 246 238 239
f 246 239 247
f 242 248 240
f 242 240 241
f 249 235 250
f 250 235 236
f 250 236 251
f 251 236 252
f 252 236 237
f 252 237 246
f 246 237 238
f 254 253 234
f 254 234 249
f 249 234 235
f 255 244 256
f 256 244 245
f 256 245 257
f 257 245 253
f 257 253 254
f 257 254 258
f 258 254 249
f 258 249 250
f 258 250 259
f 259 250 251
f 259 251 252
f 259 252 260
f 260 252 246
f 260 246 261
f 261 246 262
f 262 246 247
f 262 247 248
f 262 248 263
f 263 248 242
f 263 242 243
f 263 243 255
f 255 243 244
f 258 264 265
f 258 265 266
f 258 266 257
f 263 267 268
f 263 268 262
f 262 268 269
f 262 269 261
f 261 269 260
f 266 270 257
f 257 270 271
f 257 271 256
f 256 271 272
f 256 272 255
f 255 272 273
f 255 273 263
f 263 273 267
f 269 274 260
f 260 274 275
f 260 275 276
f 260 276 259
f 259 276 277
f 259 277 258
f 258 277 264
f 14 273 15
f 15 273 272
f 15 272 16
f 16 272 18
f 18 272 271
f 18 271 25
f 25 271 1
f 1 271 270
f 1 270 2
f 2 270 266
f 2 266 3
f 3 266 4
f 4 266 6
f 6 266 265
f 6 265 264
f 6 264 19
f 19 264 26
f 26 264 21
f 21 264 277
f 21 277 7
f 7 277 8
f 8 277 276
f 8 276 9
f 9 276 17
f 17 276 22
f 22 276 275
f 22 275 20
f 20 275 274
f 20 274 269
f 20 269 10
f 10 269 11
f 11 269 268
f 11 268 12
f 12 268 13
f 13 268 267
f 13 267 273
f 13 273 24
f 24 273 14
f 129 127 279
f 280 120 382
f 120 119 281
f 119 117 379
f 282 115 283
f 115 114 284
f 114 112 284
f 102 100 285
f 96 94 286
f 94 93 287
f 93 91 287
f 91 90 345
f 90 88 288
f 88 87 342
f 87 85 339
f 291 223 290
f 291 224 223
f 292 216 224
f 292 215 216
f 293 213 214
f 294 212 213
f 294 211 212
f 296 232 211
f 297 219 220
f 299 219 298
f 299 205 219
f 299 204 205
f 300 203 204
f 300 206 203
f 301 218 206
f 230 231 306
f 221 232 307
f 228 230 308
f 308 230 306
f 308 306 309
f 313 221 307
f 313 307 314
f 318 75 66
f 231 305 306
f 306 305 319
f 306 319 309
f 309 319 320
f 309 320 310
f 310 320 311
f 311 318 312
f 312 318 66
f 318 311 75
f 321 73 75
f 303 304 305
f 305 304 322
f 305 322 319
f 320 321 311
f 311 321 75
f 320 77 73
f 321 320 73
f 303 302 304
f 322 324 319
f 319 324 323
f 319 323 320
f 320 323 77
f 325 78 323
f 324 322 325
f 324 325 323
f 326 79 78
f 301 327 302
f 302 327 328
f 302 328 304
f 304 328 329
f 304 329 322
f 322 329 326
f 322 326 325
f 325 326 78
f 329 80 79
f 326 329 79
f 330 81 80
f 206 300 301
f 301 300 327
f 328 331 329
f 329 331 330
f 329 330 80
f 331 82 81
f 330 331 81
f 332 83 82
f 300 333 327
f 327 333 334
f 327 334 328
f 328 334 335
f 328 335 331
f 331 335 332
f 331 332 82
f 335 84 83
f 332 335 83
f 336 72 84
f 204 299 300
f 300 299 333
f 334 337 335
f 335 337 336
f 335 336 84
f 337 338 336
f 336 338 72
f 85 154 339
f 339 154 338
f 299 340 333
f 333 340 341
f 333 341 334
f 334 341 337
f 337 339 338
f 299 298 340
f 341 342 337
f 337 342 289
f 337 289 339
f 339 289 87
f 289 342 87
f 297 343 298
f 298 343 344
f 298 344 340
f 340 344 345
f 340 345 341
f 341 345 288
f 341 288 342
f 342 288 88
f 288 345 90
f 220 347 297
f 297 347 343
f 344 287 345
f 345 287 91
f 347 346 343
f 343 346 286
f 343 286 344
f 344 286 287
f 287 286 94
f 100 99 285
f 285 99 346
f 285 346 349
f 348 347 207
f 207 347 220
f 346 99 97
f 346 97 286
f 286 97 96
f 350 349 346
f 350 346 347
f 209 348 207
f 313 350 347
f 313 347 351
f 351 347 348
f 351 348 209
f 71 102 285
f 208 351 209
f 317 71 285
f 317 285 316
f 316 285 349
f 316 349 315
f 315 349 350
f 315 350 314
f 314 350 313
f 313 351 221
f 221 351 208
f 352 69 71
f 232 296 307
f 307 296 353
f 307 353 314
f 314 353 354
f 314 354 315
f 315 354 316
f 316 352 317
f 317 352 71
f 316 355 352
f 352 355 69
f 356 67 69
f 211 295 296
f 296 295 353
f 354 353 357
f 354 357 316
f 316 357 356
f 316 356 355
f 355 356 69
f 357 103 356
f 356 103 67
f 211 294 295
f 295 294 359
f 295 359 360
f 295 360 353
f 353 360 361
f 353 361 357
f 357 361 358
f 357 358 103
f 362 104 358
f 361 362 358
f 363 364 104
f 361 363 362
f 362 363 104
f 361 364 363
f 365 106 105
f 213 293 294
f 294 293 366
f 294 366 359
f 359 366 367
f 359 367 360
f 360 367 368
f 360 368 361
f 361 368 365
f 361 365 364
f 364 365 105
f 368 107 106
f 365 368 106
f 369 108 107
f 367 366 370
f 367 370 368
f 368 370 369
f 368 369 107
f 370 109 108
f 369 370 108
f 371 110 109
f 215 292 214
f 214 292 372
f 214 372 293
f 293 372 373
f 293 373 366
f 366 373 374
f 366 374 370
f 370 374 371
f 370 371 109
f 374 375 371
f 371 375 110
f 112 111 376
f 374 376 375
f 375 376 111
f 374 284 376
f 376 284 112
f 224 291 292
f 292 291 377
f 292 377 372
f 372 377 378
f 372 378 373
f 373 378 379
f 373 379 374
f 374 379 284
f 379 283 284
f 284 283 115
f 379 282 283
f 282 379 117
f 290 226 380
f 290 380 291
f 291 380 381
f 291 381 377
f 377 381 382
f 377 382 378
f 378 382 281
f 378 281 379
f 379 281 119
f 281 382 120
f 381 280 382
f 380 279 381
f 280 381 122
f 127 125 279
f 385 279 380
f 383 380 226
f 383 226 229
f 229 226 227
f 279 125 124
f 279 124 381
f 381 124 122
f 386 385 380
f 386 380 383
f 278 129 279
f 278 279 385
f 387 386 383
f 387 383 384
f 384 383 229
f 66 129 278
f 387 384 228
f 228 384 229
f 312 66 278
f 312 278 311
f 311 278 385
f 311 385 310
f 310 385 386
f 310 386 309
f 309 386 387
f 309 387 308
f 308 387 228
f 65 63 389
f 389 63 64
f 389 64 390
f 391 390 392
f 390 62 392
f 392 62 393
f 393 61 394
f 394 61 395
f 395 60 396
f 396 60 397
f 398 400 399
f 402 401 57
f 402 57 56
f 402 56 403
f 403 56 404
f 404 56 55
f 404 55 405
f 405 55 406
f 406 55 53
f 406 53 407
f 407 53 408
f 408 53 52
f 408 52 409
f 409 52 410
f 410 52 50
f 410 50 411
f 411 50 412
f 412 50 49
f 412 49 413
f 413 49 414
f 414 49 46
f 414 46 415
f 415 46 416
f 416 172 417
f 421 420 422
f 420 44 422
f 422 44 423
f 423 43 424
f 424 43 425
f 425 42 426
f 426 42 427
f 429 39 430
f 430 39 137
f 39 185 137
f 137 186 431
f 431 186 38
f 431 38 432
f 432 38 37
f 432 37 433
f 433 37 434
f 434 37 36
f 434 36 435
f 435 36 436
f 436 36 34
f 436 34 437
f 437 34 438
f 438 34 33
f 438 33 439
f 439 33 440
f 440 33 31
f 440 31 441
f 441 31 442
f 442 31 30
f 442 30 443
f 443 30 444
f 444 30 445
f 388 445 139
f 388 139 65
f 388 446 445
f 445 446 444
f 431 447 137
f 137 447 430
f 402 448 401
f 401 448 449
f 401 449 400
f 400 449 399
f 436 437 450
f 436 450 435
f 435 450 451
f 435 451 434
f 434 451 452
f 434 452 433
f 433 452 453
f 433 453 432
f 432 453 454
f 432 454 431
f 431 454 447
f 447 455 430
f 430 455 456
f 430 456 429
f 429 456 457
f 429 457 428
f 428 457 458
f 428 458 427
f 427 458 459
f 427 459 426
f 426 459 460
f 426 460 425
f 425 460 461
f 425 461 424
f 424 461 462
f 424 462 423
f 423 462 463
f 423 463 422
f 422 463 464
f 422 464 421
f 421 464 465
f 421 465 420
f 420 465 466
f 420 466 419
f 419 466 467
f 419 467 418
f 418 467 468
f 418 468 417
f 417 468 416
f 416 469 415
f 415 469 470
f 415 470 414
f 414 470 471
f 414 471 413
f 413 471 472
f 413 472 412
f 412 472 473
f 412 473 411
f 411 473 474
f 411 474 410
f 410 474 475
f 410 475 409
f 409 475 476
f 409 476 408
f 408 476 477
f 408 477 407
f 407 477 478
f 407 478 406
f 406 478 479
f 406 479 405
f 405 479 480
f 405 480 404
f 404 480 481
f 404 481 403
f 403 481 482
f 403 482 402
f 402 482 448
f 449 483 399
f 399 483 484
f 399 484 398
f 398 484 485
f 398 485 397
f 397 485 486
f 397 486 396
f 396 486 487
f 396 487 395
f 395 487 488
f 395 488 394
f 394 488 489
f 394 489 393
f 393 489 490
f 393 490 392
f 392 490 491
f 392 491 391
f 391 491 492
f 391 492 390
f 390 492 493
f 390 493 389
f 389 493 494
f 389 494 65
f 65 494 495
f 65 495 388
f 388 495 446
f 495 496 446
f 454 497 447
f 447 497 455
f 468 498 416
f 416 498 469
f 482 499 448
f 448 499 500
f 448 500 449
f 449 500 483
f 496 501 446
f 446 501 502
f 446 502 444
f 444 502 503
f 444 503 443
f 443 503 504
f 443 504 442
f 442 504 441
f 441 504 505
f 441 505 440
f 440 505 506
f 440 506 439
f 439 506 507
f 439 507 438
f 438 507 508
f 438 508 437
f 437 508 509
f 437 509 450
f 450 509 510
f 450 510 451
f 451 510 511
f 451 511 452
f 452 511 512
f 452 512 453
f 453 512 513
f 453 513 454
f 454 513 497
f 497 514 455
f 455 514 515
f 455 515 456
f 456 515 516
f 456 516 457
f 457 516 517
f 457 517 458
f 458 517 518
f 458 518 459
f 459 518 519
f 459 519 460
f 460 519 461
f 461 519 520
f 461 520 462
f 462 520 521
f 462 521 463
f 463 521 522
f 463 522 464
f 464 522 523
f 464 523 465
f 465 523 524
f 465 524 466
f 466 524 525
f 466 525 467
f 467 525 526
f 467 526 468
f 468 526 498
f 498 527 469
f 469 527 528
f 469 528 470
f 470 528 529
f 470 529 471
f 471 529 530
f 471 530 472
f 472 530 531
f 472 531 473
f 473 531 532
f 473 532 474
f 474 532 533
f 474 533 475
f 475 533 534
f 475 534 476
f 476 534 535
f 476 535 477
f 477 535 536
f 477 536 478
f 478 536 20
f 478 20 479
f 479 20 537
f 479 537 480
f 480 537 538
f 480 538 481
f 481 538 539
f 481 539 482
f 482 539 499
f 500 540 483
f 483 540 541
f 483 541 484
f 484 541 542
f 484 542 485
f 485 542 543
f 485 543 486
f 486 543 544
f 486 544 487
f 487 544 545
f 487 545 488
f 488 545 546
f 488 546 489
f 489 546 547
f 489 547 490
f 490 547 548
f 490 548 491
f 491 548 549
f 491 549 492
f 492 549 550
f 492 550 493
f 493 550 551
f 493 551 494
f 494 551 552
f 494 552 495
f 495 552 496
f 552 15 496
f 496 15 501
f 501 15 502
f 502 15 16
f 502 16 503
f 503 16 18
f 503 18 504
f 505 504 25
f 505 25 506
f 506 25 507
f 507 25 1
f 507 1 508
f 508 1 509
f 509 1 2
f 509 2 510
f 510 2 511
f 511 2 512
f 512 2 3
f 512 3 513
f 513 3 4
f 513 4 497
f 497 4 514
f 514 4 5
f 514 5 515
f 515 5 516
f 516 5 6
f 516 6 517
f 517 6 518
f 518 6 19
f 518 19 519
f 520 519 26
f 520 26 521
f 521 26 522
f 522 26 27
f 522 27 523
f 523 27 524
f 524 27 7
f 524 7 525
f 525 7 526
f 526 7 8
f 526 8 498
f 498 8 527
f 527 8 528
f 528 8 9
f 528 9 529
f 529 9 17
f 529 17 530
f 531 530 17
f 531 17 532
f 532 17 533
f 533 17 23
f 533 23 534
f 534 23 535
f 537 20 10
f 537 10 538
f 538 10 539
f 539 10 11
f 539 11 499
f 499 11 500
f 500 11 540
f 540 11 12
f 540 12 541
f 541 12 13
f 541 13 542
f 548 547 28
f 548 28 549
f 549 28 550
f 550 28 14
f 550 14 551
f 551 14 552
f 552 14 15
f 553 554 555
f 555 554 556
f 555 556 557
f 557 556 558
f 557 558 559
f 559 558 560
f 559 560 561
f 561 560 562
f 561 562 563
f 563 562 564
f 563 564 565
f 565 564 566
f 565 566 567
f 567 566 568
f 567 568 569
f 569 568 570
f 569 570 571
f 571 570 572
f 571 572 573
f 573 572 574
f 573 574 575
f 575 574 576
f 575 576 577
f 577 576 578
f 577 578 579
f 579 578 580
f 579 580 581
f 581 580 582
f 581 582 583
f 583 582 584
f 583 584 585
f 585 584 586
f 585 586 587
f 587 586 588
f 587 588 589
f 589 588 590
f 589 590 591
f 591 590 592
f 591 592 593
f 593 592 594
f 593 594 595
f 595 594 596
f 595 596 597
f 597 596 598
f 597 598 599
f 599 598 600
f 599 600 553
f 553 600 554
f 580 578 601
f 601 578 576
f 601 576 574
f 586 584 601
f 601 584 582
f 601 582 580
f 592 590 601
f 601 590 588
f 601 588 586
f 598 596 601
f 601 596 594
f 601 594 592
f 556 554 601
f 601 554 600
f 601 600 598
f 562 560 601
f 601 560 558
f 601 558 556
f 568 566 601
f 601 566 564
f 601 564 562
f 574 572 601
f 601 572 570
f 601 570 568
f 573 575 602
f 602 575 577
f 602 577 579
f 567 569 602
f 602 569 571
f 602 571 573
f 561 563 602
f 602 563 565
f 602 565 567
f 555 557 602
f 602 557 559
f 602 559 561
f 597 599 602
f 602 599 553
f 602 553 555
f 591 593 602
f 602 593 595
f 602 595 597
f 585 587 602
f 602 587 589
f 602 589 591
f 579 581 602
f 602 581 583
f 602 583 585
