v 0.00381610303 0.00917814502 0.00331256207
v 0.00389228493 0.00852840423 0.00421283824
v 0.00385434656 0.00951133355 0.00222254665
v 0.00406463252 0.00951505932 0.00135910401
v 0.00456196438 0.00946867074 0.000162871505
v 0.00118661527 0.0104225113 0.00672742917
v 0.00953497395 0.00405866077 0.0012777869
v 0.00778872012 0.00434993433 0.00508668638
v 0.00921810406 0.00500850946 -0.000445297067
v 0.00929993629 0.00433074163 0.000464226971
v 0.0088522639 0.00373730468 0.00368961386
v 0.0119957352 0.000767814387 0.0031504891
v 0.0110916519 0.000904189814 0.00552907206
v 0.00951679775 0.00174330129 0.00780835912
v 0.0105055506 0.00116176819 0.00654685553
v 0.00742301093 0.00484235144 0.00563031001
v 0.00673520537 0.00538672409 0.00587582319
v 0.00645267629 0.00567076807 0.00600896667
v 0.00448819209 0.00788488865 0.00523906071
v 0.00826093479 0.00597547699 -0.00141226885
v 0.0106985374 0.00451567104 -0.00444155064
v 0.0100372457 0.00535641836 -0.00499758505
v 0.00509959377 0.00682567012 0.00574772491
v 0.00475065651 0.0058351655 0.00989740717
v 0.00763660467 0.0069844044 -0.0017318726
v 0.00728978631 0.00763597544 -0.0020426831
v 0.00795809978 0.00352855381 -0.00711964111
v 0.00909411479 0.00550580982 -0.00651388326
v 0.0102271334 0.00414116161 -0.00580393697
v 0.00998000993 0.000937876923 -0.00514958773
v 0.0111693276 0.00285477111 -0.00474418351
v 0.0118745124 0.00170909709 -0.00338629029
v 0.0110414618 -0.00107473993 -0.00206763558
v 0.0123126784 0.000753305747 -0.0017898337
v 0.0124641065 3.03371144e-05 -2.54617517e-05
v 0.0122350569 -0.0005407157 0.00104754838
v 0.0117675658 -0.000593153478 0.00403344574
v 0.00949812857 -0.00304185254 0.00401438861
v 0.008666712 -0.00276727252 0.00572660656
v 0.00962548099 0.000146865657 0.00780618828
v 0.00842504761 0.000939498825 0.00903398981
v 0.0071023052 0.0019288059 0.0099445175
v 0.00422174938 0.00148308089 0.0102036117
v 0.00480283785 0.00395524379 0.0106727026
v 0.00373354582 0.00533321018 0.0106341456
v 0.00100439076 0.0024322505 0.0101165079
v 0.000490344961 0.0055552738 0.00977000829
v 0.0024843049 0.00671822194 0.0102045682
v 0.00139377123 0.00806549526 0.00940383384
v -0.00136662306 0.00815712979 0.00765805772
v 0.00050528336 0.00931948945 0.00826442355
v -0.000138884359 0.0104212961 0.00683825074
v -0.00225513003 0.0101082114 0.00448182091
v -0.000508649129 0.0113202817 0.00519216127
v -0.000588412678 0.0119771241 0.00339931749
v -0.000761816438 0.0120592084 0.00218711355
v -0.00145071507 0.010900008 -0.00159094118
v -0.00153182998 0.01022654 -0.00293692857
v 0.00178513661 0.0116995594 -0.00368488714
v 0.00293823048 0.0109552485 -0.00498635257
v 0.00422039992 0.00998674081 -0.00598819696
v 0.00597787987 0.00866870269 -0.00666277976
v 0.00558054088 0.00875657572 -0.00667803312
v 0.00689848922 0.00816326187 -0.00669902681
v -0.00430307985 -0.00474355888 -0.0106977013
v 0.00474861947 -0.00864672864 0.000226435865
v -0.0056310145 -0.00898044117 0.00655175314
v -0.00319459401 -0.00825677695 0.00694637022
v -0.0064739235 -0.00821207198 0.0067842554
v -0.00733933143 -0.00737203621 0.00686113303
v -0.00759632027 -0.00682155334 0.00693623632
v -0.0119325274 0.000579889617 -0.00354372555
v -0.00659286038 -0.00259483454 -0.0102508739
v -0.00590154244 -0.000214613733 -0.00957853494
v -0.00567371879 -0.00341501392 -0.0105648384
v -0.00284939616 -0.000929124792 -0.0101105563
v -0.00739497075 -0.00212737191 -0.00991345532
v -0.00904021353 -0.000376856026 -0.00838099218
v -0.0101297362 0.000298252026 -0.00700716348
v -0.0103342021 8.50652942e-05 -0.00696252404
v -0.0110329006 0.000714024386 -0.00541004991
v -0.0112534136 0.000477352386 -0.00533032998
v -0.0117099616 0.000850287299 -0.00366186421
v -0.0121518251 0.000637653293 -0.002060443
v -0.00990187703 0.00334449298 -0.000713092973
v -0.0123372681 0.000235429093 -0.00023967316
v -0.010024875 0.00284484767 0.0011395531
v -0.0124246168 -0.000448088164 0.00103449891
v -0.0122398579 -0.000432752464 0.00152748431
v -0.00986042844 0.0020900222 0.00290219493
v -0.012104185 -0.00131127391 0.00272082256
v -0.0118608527 -0.00133646979 0.00314658477
v -0.00941328034 0.00111369814 0.00450020827
v -0.0115028786 -0.00238467702 0.00419529337
v -0.0112169485 -0.00243297179 0.00454475811
v -0.0087015611 -4.24616261e-05 0.00586600001
v -0.0106495019 -0.00361788723 0.00539037437
v -0.0103366275 -0.00367619159 0.00566311058
v -0.00776085673 -0.00133757562 0.00693950261
v -0.00942745064 -0.00484562878 0.00635658321
v -0.00662384768 -0.0027110852 0.00767764054
v -0.00879006874 -0.00586299555 0.00662943265
v -0.00493908403 -0.00957728465 0.00625785946
v -0.00278686471 -0.010946184 0.00496167481
v -0.00162846629 -0.0116550729 0.00366043121
v -0.0018065748 -0.0118208912 0.00350428019
v -0.000647145358 -0.0121101713 0.0021222956
v -0.000832979523 -0.0122838977 0.00192175505
v 0.000113307694 -0.0122933172 0.000412754259
v -9.06246994e-05 -0.0124597729 0.000166380313
v 0.000648429753 -0.0121385079 -0.00213479003
v 0.00350094354 -0.00970303492 -0.00184001328
v 0.000553258121 -0.0119546664 -0.00352415832
v 0.000763543609 -0.0116688111 -0.00394735002
v 0.00353010376 -0.00915921534 -0.00368414848
v 0.000454206158 -0.0112761992 -0.00531833914
v 0.000594044545 -0.0109394837 -0.0056851292
v 0.00327680618 -0.00836358907 -0.00541697976
v 6.33997366e-05 -0.0103540906 -0.00695844415
v 0.000145243609 -0.00998469022 -0.00725637585
v 0.00274771334 -0.00735084441 -0.00696763561
v -0.00056277923 -0.00884703426 -0.00859147984
v 0.00197201614 -0.00615855141 -0.00826665329
v -0.0015050107 -0.00796001463 -0.00948237658
v -0.00149938517 -0.00757694133 -0.00963254532
v 0.000974226397 -0.00484250139 -0.00926149631
v -0.00247743811 -0.00642856095 -0.0102597277
v -0.000199644807 -0.00345496684 -0.0099081819
v -0.00339493634 -0.00545818867 -0.0105881212
v -0.00359260177 0.00112686685 -0.00948324079
v -0.00201162662 -0.00607961072 0.00794369237
v -0.00114140507 0.00229797722 -0.00928797006
v -0.00368577004 -0.00437082125 0.00833764292
v -0.000966464854 -0.0037288956 0.0088326328
v 0.000416861793 -0.00165644121 0.00945141748
v 0.00253864848 -0.000202614831 0.0098800367
v -0.0028792639 0.0102256652 -1.68216089e-05
v 0.0120490897 -0.000540229875 0.00329667892
v 0.00132113115 0.00340102446 -0.00891855999
v 0.00675259093 0.00743384941 -0.00701173548
v -0.00623177213 0.00310862454 -0.00745840154
v -0.00388896175 0.00449359158 -0.00758523984
v -0.00148137637 0.005769307 -0.00757447842
v 0.00236344306 0.00692425714 -0.00752645641
v 0.00100766277 0.00801828696 -0.00670034386
v -0.00826386365 0.00413478705 -0.00432601915
v -0.00613192022 0.00579115237 -0.00466016162
v -0.00388922619 0.00731882344 -0.00491536233
v -0.000257698766 0.00890539934 -0.00554877487
v -0.0013774063 0.00955040624 -0.00411961779
v -0.00717051451 0.0062532821 -0.00105505954
v -0.00519403852 0.00773672304 -0.00231853988
v -0.00260752534 0.0102579978 -0.000935899923
v -0.00760801591 0.00582587843 -3.67930396e-05
v -0.00420072354 0.00907379079 0.00203532142
v -0.00690255166 0.00636363342 0.00166669914
v -0.00598393208 0.00670823646 0.00331942587
v -0.00491089885 0.0069377005 0.00490702803
v -0.00744094966 0.0041408319 0.00450992169
v -0.00329621106 0.00652523117 0.0071177918
v -0.00471200958 0.0042047958 0.00727786129
v -0.00601557332 0.00181277468 0.00730629544
v -0.00141654626 0.0039406693 0.00930458891
v -0.00260971847 0.0014975958 0.00915414837
v 0.00515833783 0.0040917855 0.0106803734
v 0.00245708465 0.00313030409 0.0103736184
v -0.000986394889 -0.000295532476 0.0095141194
v -0.00372863773 -0.000964566279 0.00883274966
v -0.00480262096 -0.00470666416 0.00812074831
v 0.000671924777 -0.00816249108 0.00608519164
v 0.00181186412 -0.00601444429 0.00730736811
v 0.00289525986 -0.00375919042 0.0083868377
v 0.0051827722 -0.00123970552 0.00904446238
v 0.00280254444 -0.00931975851 0.00306594878
v 0.00414107244 -0.0074393828 0.00451199077
v 0.00537879715 -0.00542675535 0.00587180104
v 0.00647125534 -0.00218635333 0.00796926605
v 0.00762110172 -0.00290577117 0.0066009217
v 0.00637547204 -0.00691261873 0.00166886841
v 0.00671893578 -0.00600080062 0.00332422343
v 0.011939826 -0.000569356214 0.00348844744
v 0.000387611382 -0.0123407967 -0.00168332838
v 0.0122653866 -0.000463021527 0.00215068079
v 0.00985953734 -0.00342762782 0.000882459061
v 0.00779050123 -0.0054988466 -0.00138735554
v 0.00603888812 -0.00725087024 -0.00195148462
v 0.00938613313 -0.00301247302 -0.00263092978
v 0.00731851668 -0.00388849161 -0.00491644206
v 0.0055679461 -0.0056402513 -0.005480477
v 0.00836342175 -0.000976721942 -0.0057625222
v 0.00576899463 -0.00148011283 -0.00757510533
v 0.0040176651 -0.00323263706 -0.00814002529
v 0.00637969837 0.00166040517 -0.00778773421
v 0.00230391721 -0.0011186923 -0.00923393881
v 0.00636619567 0.00502155947 -0.00759622835
v 0.0037674185 0.00445923467 -0.00836807053
v 0.00370349406 0.000948493757 -0.00881059525
v 0.000985194571 0.000292476094 -0.00952747398
v -0.0018073065 -0.00191926435 -0.0102164711
v -0.00394567918 -0.0095421687 -0.00178326774
v -0.00379737678 -0.00936026815 -0.00286740429
v -0.00389167593 -0.00881003444 -0.00400308573
v -0.00418317113 -0.00947090309 -0.000900114796
v -0.00759798917 -0.0046070702 -0.00538954804
v -0.0094627831 -0.00384062379 -0.0021776449
v -0.00929993153 -0.00433076693 -0.000464174976
v -0.00847012994 -0.00405750393 -0.00454406575
v -0.0114277283 -0.000792991262 -0.0048325337
v -0.00910109044 -0.00372399164 -0.00296005987
v -0.0122745018 -0.00178306294 0.000858363121
v -0.0092674142 -0.00493054933 0.000355679089
v -0.00888354362 -0.00541087861 0.000854226869
v -0.00448900765 -0.00774696006 -0.00526144113
v -0.00624289628 -0.00582488788 -0.00600135863
v -0.00233601359 -0.00850002806 -0.00899646247
v -0.00533717633 -0.00656451059 -0.0058208444
v -0.00306087495 -0.00774182154 -0.00922546171
v -0.00403709124 -0.00659633978 -0.00975000527
v -0.00869020547 -0.00574307874 0.00114544295
v -0.0095753758 -0.00591157509 0.00528618295
v -0.00767317534 -0.00686181052 0.00167966595
v -0.00735924696 -0.00718141124 0.00169218757
v -0.00480928426 -0.0104754782 0.00465997623
v -0.00566215314 -0.00852763584 0.00126783043
v -0.00724950804 -0.00836054066 0.00566783437
v -0.00194555938 -0.00303595438 -0.00478968197
v -0.00104254143 -0.00579732967 0.000967232176
v -0.00236897644 -0.00494271809 0.0024292354
v -0.0042588631 -0.00316836258 0.00278701716
v -0.00546832511 -0.00162622772 0.00175629691
v -0.00597029926 -0.000546240189 -3.44989297e-05
v -0.005405373 -0.000290413966 -0.00257716565
v -0.00383544323 -0.00126169982 -0.00443189746
v -0.0038325981 -0.00173167215 -0.00298460437
v -0.00317972661 -0.00226475073 -0.00335559629
v -0.00243661989 -0.00298449867 -0.00342792766
v -0.00174622705 -0.00358084343 -0.00371937416
v -0.00112500351 -0.00408460649 -0.00408345718
v -0.000853759866 -0.00470282355 -0.00300859789
v -0.000178055029 -0.00550010489 -0.00263155336
v -0.00488425878 -0.00169835313 0.000170185019
v -0.00471248186 -0.00125803784 -0.00172583842
v -0.00216242967 -0.00462876451 0.000816654039
v -0.00356422955 -0.00344315325 0.00148648285
v -0.00432675839 -0.00255895926 0.00110938765
v 0.00368041156 0.0033390049 -0.00152364569
v 0.00484699368 0.00178224258 -0.000314801476
v 0.00486999988 0.00133441614 0.00100138403
v 0.00450594504 0.00132021038 0.00217308645
v 0.0032433058 0.00219239466 0.00338274499
v 0.00170475225 0.00383181027 0.0030704239
v 0.0012844023 0.00489306615 0.0010848291
v 0.00205792092 0.00469526723 -0.00069883625
v 0.00186258792 0.00530134367 -0.00197133802
v 0.00132876872 0.00564085173 -0.00136933111
v 0.000545994663 0.00597029354 3.51745419e-05
v 0.00571586663 0.00123771102 -0.00131955571
v 0.00485164165 0.00245855974 -0.00242433332
v 0.00431412696 0.0030867927 -0.00270554804
v 0.00371581554 0.00371586012 -0.00280091547
v 0.00282566168 0.00455169716 -0.00263237863
v 0.0045783995 0.000735919573 0.00375869197
v 0.00532061099 0.000351297129 0.00265112139
v 0.00576973666 0.0002718181 0.00150602712
v 0.00592726707 0.000550138224 0.000155236493
v 0.000290444281 0.00540531458 0.00257714634
v 0.00148835138 0.00353691523 0.00465430238
v 0.00337886692 0.00165265356 0.00463499915
v -0.00317669058 -0.00633835593 -0.0104674932
v -0.000705254691 -0.00932686564 -0.00837241743
v -0.000114974983 -0.0104688532 -0.00698301577
v 0.000365987712 -0.012164829 -0.00324067065
v -0.008321052 -0.00658269321 0.00674265853
v -0.00849729539 -0.00648464037 0.00664212919
v -0.00995583732 -0.0048414847 0.0060110886
v -0.0117656009 -0.0024520501 0.00388613158
v -0.012406168 -0.0010273583 0.00184514738
v -0.0125808096 -0.000289572011 0.000100757847
v -0.0125275138 5.28730034e-05 -0.000812895891
v -0.00180353321 -0.00911938564 -0.00858746985
v -0.0012739695 -0.00965959688 -0.00815379383
v -0.00131425529 -0.0100914355 -0.00730725487
v -0.000768181428 -0.0109268171 -0.00626199334
v -0.000543460338 -0.012200671 -0.00308495607
v -0.00121805422 -0.0125029119 -0.000108318546
v -0.0018816621 -0.0123582868 0.00157078886
v -0.00235617031 -0.0121099465 0.00216795308
v -0.00225339307 -0.012203178 0.00253314656
v -0.00333716349 -0.011556857 0.00349357724
v -0.00418016405 -0.0110031335 0.00454459945
v -0.0109940002 -0.00418049046 0.00468435681
v -0.0121130927 -0.00242229555 0.00246454995
v -0.0124812015 -0.00131540348 0.000131700506
v -0.0124139699 -0.000838693907 -0.00157431968
v -0.0122407055 -0.000610006581 -0.00274917864
v -0.0119261566 -0.000442261785 -0.00411363301
v -0.0111332128 -0.000784386131 -0.00571951558
v -0.00976405661 -0.00145005979 -0.00782495194
v -0.00798350032 -0.00278218213 -0.00927051857
v -0.00705576591 -0.00357954342 -0.0097048327
v -0.00601697584 -0.0095233046 0.00551277659
v -0.00737727309 -0.00306408976 -0.0098517249
v -0.00589543373 -0.0096043339 0.00581983586
v -0.00523072243 -0.00523067785 -0.0101510026
v -0.00555703263 -0.00484320119 -0.0102475013
v -0.00564820132 -0.0043845268 -0.0104977189
v -0.00586153455 -0.00389717618 -0.0105780453
v -0.00469332696 -0.00469328238 -0.0106919744
v -0.00813573361 -0.00751472784 0.00592472769
v -0.00778841436 -0.00787447587 0.00605669688
v -0.00744117062 -0.0080507137 0.00641424704
v -0.00700043241 -0.00830172056 0.00659654206
v -0.0112226582 -0.00314701868 0.00474562861
v -0.00537377358 -0.0040288098 -0.0106425025
v -0.00798223187 -0.00234134604 -0.00962400311
v -0.00606244565 -0.00338782145 -0.0104948022
v -0.00675159455 -0.00277758909 -0.0102505424
v -0.00982092297 -0.00124068098 -0.00792962534
v -0.00788971477 -0.00214042323 -0.00967706561
v -0.00806270625 -0.00159830712 -0.00948272271
v -0.0103656302 -0.000694786318 -0.00734113948
v -0.00977183655 -0.000792037939 -0.00808227191
v -0.00874393941 -0.00119818522 -0.00897106909
v -0.00935798646 -0.000775469075 -0.00837847971
v -0.0112659871 -0.00049688219 -0.00573901586
v -0.00965799893 -0.000532530923 -0.00803728903
v -0.0104688978 -0.000115049611 -0.00698301577
v -0.012036895 -6.50004984e-05 -0.0041145406
v -0.0111839557 5.03080364e-05 -0.00591271458
v -0.0113822794 0.000274883975 -0.00536093496
v -0.012584065 -0.000558417412 -0.00148317707
v -0.011935305 0.000244552833 -0.00418714377
v -0.0120571232 0.000376569499 -0.00358555101
v -0.012697658 -0.000564317439 -0.000520359966
v -0.0126331209 -0.000102299104 -0.00135318638
v -0.012269832 0.000381782474 -0.00263864609
v -0.0124627924 0.000185596217 -0.00173709177
v -0.0124091947 -0.00182139062 0.00188831155
v -0.0122297404 -0.00210356053 0.00279796701
v -0.0125536406 -0.000918807557 0.00128584533
v -0.0115368242 -0.00335857513 0.00396568196
v -0.0121794727 -0.00181614444 0.00290726251
v -0.0110436888 -0.00371861625 0.00500482797
v -0.0103707886 -0.00499082876 0.00503006197
v -0.0101560897 -0.00499526985 0.00574238868
v -0.0102055804 -0.00519809269 0.0053231094
v -0.00900726622 -0.00622591911 0.00639981807
v -0.00920064651 -0.00630312007 0.00603465558
v -0.00929882255 -0.00627188073 0.00575927744
v -0.00717013837 -0.00784362627 0.00674083448
v -0.00526749542 -0.00996821823 0.00586328332
v -0.00648468495 -0.00849725081 0.00664212919
v -0.00544242437 -0.00953637836 0.00624679132
v -0.00376178292 -0.0111892054 0.00468876532
v -0.00436131368 -0.0102355123 0.00580570242
v -0.00261236841 -0.0119404517 0.00345496073
v -0.00395399094 -0.0108612902 0.00516083456
v -0.00377696515 -0.0107714064 0.00529935576
v -0.00314706326 -0.0112226136 0.00474562861
v -0.00285140649 -0.0114883603 0.00439454553
v -0.00199442864 -0.0119464524 0.00341704107
v -0.000814079637 -0.0126476853 -0.000493751597
v -0.000886406153 -0.012682595 0.000430405257
v -0.00143766999 -0.0123532991 0.00231859809
v -0.00102728368 -0.0124061234 0.00184514738
v -0.000625942825 -0.0126196359 0.000629874126
v -0.000289497383 -0.0125808842 0.000100757847
v -0.000297700782 -0.012029982 -0.00400770761
v -8.88779617e-05 -0.012323789 -0.00315208747
v 5.49553147e-05 -0.0125091395 -0.00222669167
v 5.8687606e-05 -0.0125241673 -0.000796004176
v 0.000185551636 -0.0124627478 -0.00173709177
v -0.000472978542 -0.0108258588 -0.00662661847
v -1.97983653e-05 -0.0112163303 -0.00591876772
v 0.000255552982 -0.0116136974 -0.00496641856
v -0.000963627089 -0.0101262117 -0.00756439784
v -0.000537456504 -0.00995240435 -0.00776300969
v -0.00132813356 -0.00876131646 -0.00900447484
v -0.00209833792 -0.0079948978 -0.0096293788
v -0.00315598099 -0.00748853538 -0.00958609036
v -0.00316626489 -0.00739833535 -0.00973241291
v -0.00324172736 -0.0065828395 -0.0103728925
v -0.00436502457 -0.00566912962 -0.0104676225
v -0.0036922037 -0.0065669272 -0.0102102618
v -0.00461798669 -0.00585819555 -0.0101054647
v 0.00759224301 0.00756067603 -0.0066923473
v 0.00622924027 0.00886141352 -0.00650093091
v 0.00516249307 0.00975081212 -0.00614644776
v 0.00489216575 0.0100257597 -0.00593165213
v 0.00423418555 0.0105439927 -0.00552252586
v 0.00353681908 0.0109916904 -0.00507271914
v 0.00297727176 0.0114493616 -0.00443310679
v 0.00234142925 0.0117854204 -0.0038309315
v 0.00186495128 0.0121162119 -0.00305336141
v 0.00131669798 0.0123243397 -0.00232902209
v 0.000882920877 0.0124906041 -0.00150100604
v 0.000575480566 0.0126070563 -0.000578560462
v 0.000312164922 0.012553603 -0.000372819966
v -0.000109850204 0.0125067464 0.000919238407
v -0.000159455754 0.0124403606 0.0021864561
v -0.000254035562 0.0122379338 0.0031240398
v -0.000278089007 0.0119686742 0.004033116
v -0.00022894625 0.0116337113 0.00491905678
v -0.00010744637 0.0112369363 0.00577173836
v 8.52476341e-05 0.0107828117 0.00658153528
v 0.000347049396 0.0102764755 0.00733943174
v 0.000674546489 0.00972354501 0.00803672534
v 0.00106478686 0.00913037012 0.00866564927
v 0.00151273617 0.00850382842 0.00921889153
v 0.00201360947 0.00785097984 0.00969025166
v 0.0025616163 0.00717909766 0.0100743007
v 0.00315047053 0.00649595333 0.0103668518
v 0.00377343223 0.00580904127 0.0105646155
v 0.00442380922 0.00512627136 0.010665091
v 0.00605920087 0.00346776025 0.0105207592
v 0.00675084234 0.00285435415 0.010281544
v 0.00714693873 0.00258846197 0.0100902446
v 0.00780194256 0.00206361779 0.00972139942
v 0.00839665856 0.00149537603 0.00929071215
v 0.00907190916 0.00110809424 0.00872204552
v 0.00962616669 0.000642523462 0.00812286735
v 0.0102252701 0.000378606528 0.00740965381
v 0.0106973698 3.64797883e-05 0.00667963966
v 0.0111584229 -0.000165243028 0.00587477873
v 0.0115623285 -0.000296483445 0.00502664382
v 0.0119393989 -0.000273886335 0.0041202742
v 0.0124267736 -0.000170430837 0.00226080763
v 0.012563745 2.30610562e-06 0.00132177602
v 0.0126244037 0.000237783585 0.000405108959
v 0.0126119136 0.000540120936 -0.00049357197
v 0.0125264792 0.000906263437 -0.00136377487
v 0.0123690819 0.00133245224 -0.00219646061
v 0.0121415378 0.0018131774 -0.00298127045
v 0.0118463899 0.00234405751 -0.00370999853
v 0.0114868308 0.00291784453 -0.00437420044
v 0.0110673651 0.00352813958 -0.0049659131
v 0.0105922617 0.00416852776 -0.00547883961
v 0.01006686 0.00483264229 -0.00590750644
v 0.00949797006 0.00551050211 -0.00624618551
v 0.00889131818 0.00619635111 -0.00649162534
v 0.00812250765 0.00675692347 -0.00675629759
v 0.00857994281 0.00690902005 -0.00632283974
v 0.0122827936 -6.60358997e-06 0.00316037422
v 0.00528162896 0.00460193618 0.0105726338
v 0.000247485395 0.0126059735 0.00137191885
v 0.000479540913 0.0126650319 0.000469779893
v 0.00960110145 0.00582753397 -0.00587779595
v 0.0101510693 0.00517390608 -0.00555641877
v 0.0106603247 0.00453257081 -0.00514813776
v 0.0111205302 0.00391426734 -0.00465855005
v 0.0115276077 0.00332473588 -0.0040924404
v 0.011877612 0.0027692371 -0.00345594298
v 0.0121652462 0.00225618965 -0.00275759438
v 0.01238844 0.00178933945 -0.00200360651
v 0.0125436984 0.00137638789 -0.00120437939
v 0.0126297693 0.00102026418 -0.000367596004
v 0.0126457104 0.00072496725 0.000497531584
v 0.0125912236 0.000494701919 0.00137972469
v 0.0124669398 0.000331196211 0.00227064766
v 0.0120153695 0.00021355512 0.0040341887
v 0.011693153 0.000260266536 0.00488804637
v 0.011311651 0.000376886444 0.00570910885
v 0.0108742285 0.000562228037 0.00649010756
v 0.0103867533 0.000813957527 0.00722088181
v 0.00985450289 0.00112907016 0.00789314231
v 0.00928378072 0.00150423793 0.00849931675
v 0.00867957557 0.00193540648 0.00903377778
v 0.00805106734 0.00241746288 0.00948820825
v 0.0074042126 0.00294489457 0.00985876199
v 0.00674503105 0.00351226534 0.010141939
v 0.00608445616 0.00411193343 0.0103324642
v 0.0047787717 0.00538436725 0.0104337234
v 0.00415178992 0.00604132962 0.0103418248
v 0.00354968029 0.00670334404 0.0101564441
v 0.00297945315 0.0073625832 0.00987958091
v 0.00245010631 0.00800997274 0.00951449242
v 0.00196455326 0.00864079591 0.00906452513
v 0.00153009945 0.00924588934 0.00853587757
v 0.00115124251 0.00981916209 0.00793398549
v 0.000831895123 0.010354116 0.00726564337
v 0.0005761827 0.0108445961 0.00653840808
v 0.000386744211 0.0112849793 0.00576082355
v 0.000265717915 0.0116706545 0.00494099207
v 0.000215002233 0.0119964733 0.00408967396
v 0.000234003145 0.0122598248 0.0032140738
v 0.000323500398 0.0124566426 0.00232714097
v 0.000999193882 0.0126330064 -0.000312579204
v 0.0013517463 0.0125512246 -0.00115170629
v 0.00176195989 0.0124001919 -0.00195412285
v 0.0022248528 0.0121815129 -0.00271100654
v 0.00273532582 0.0118976639 -0.00341342858
v 0.00328793753 0.011551856 -0.0040537155
v 0.00387600208 0.0111480455 -0.00462452098
v 0.00449283912 0.0106909079 -0.00511923564
v 0.0051321772 0.010185003 -0.00553316153
v 0.00578532719 0.00963740013 -0.00585984979
v 0.0064466994 0.00905269358 -0.00609719218
v 0.00710756943 0.00843850846 -0.00624200224
v 0.00776042368 0.00780197167 -0.00629238751
v 0.00839482998 0.0072436914 -0.00601754033
v 0.0122167224 0.00047505353 0.00311135397
v 0.00556336724 0.00482648794 0.0102425669
v 0.000700670522 0.0125038443 0.00152281747
v 0.000917671399 0.012564842 0.000661797701
v 0.00897089166 0.00663314799 -0.00571788506
v 0.00952121771 0.00601550922 -0.00549600667
v 0.0101217651 0.00530038999 -0.00521728777
v 0.0106090927 0.00468562769 -0.00482258581
v 0.0110501671 0.00409184622 -0.00434920572
v 0.0114399815 0.00352548288 -0.00380275034
v 0.0117742443 0.00299333261 -0.00318941854
v 0.0119812708 0.00261842169 -0.00259613691
v 0.0122612142 0.00205455946 -0.0017901399
v 0.0124085569 0.00165878462 -0.0010201671
v 0.0124783649 0.00124910652 0.000111271277
v 0.0124318788 0.000898736732 0.00133579145
v 0.0123261833 0.000662433375 0.0023215077
v 0.0117582291 0.00060802497 0.0043203972
v 0.0112077618 0.000714647044 0.00562491633
v 0.0107859993 0.000894653071 0.00637390829
v 0.0103159571 0.00113855528 0.00707450129
v 0.00980299949 0.00144349264 0.00771894671
v 0.00925296783 0.00180600809 0.00829961515
v 0.00867218017 0.00222216772 0.00881030775
v 0.00806695461 0.00268696474 0.00924494482
v 0.00744432449 0.00319539236 0.00959875799
v 0.00681144237 0.00374149012 0.00986757494
v 0.00617522239 0.00431929754 0.0100486539
v 0.00492209434 0.00554310011 0.0101396105
v 0.00412593516 0.00642669287 0.00994747861
v 0.00331709627 0.00734534955 0.00960157812
v 0.00268692016 0.00806699919 0.00924494482
v 0.00222212314 0.00867210554 0.00881030775
v 0.00180608272 0.00925301241 0.00829961515
v 0.00144344806 0.00980304407 0.00771894671
v 0.0011385107 0.0103160016 0.00707450129
v 0.0008947277 0.0107859247 0.00637390829
v 0.000714721672 0.0112076871 0.00562491633
v 0.000600519173 0.0115765207 0.00483610846
v 0.000553550713 0.0118881338 0.00401642538
v 0.000574293129 0.0121389501 0.00317504622
v 0.000662508004 0.0123262279 0.0023215077
v 0.00131453335 0.0124664646 -5.96063056e-05
v 0.00165874004 0.0124086015 -0.0010201671
v 0.00205463409 0.0122612588 -0.0017901399
v 0.00271444226 0.0119333717 -0.00273956234
v 0.0034675301 0.0114764464 -0.0036625261
v 0.00600288406 0.00877442793 -0.00167737698
v 0.00493712063 0.0104190717 -0.00493439831
v 0.00584012001 0.00967360903 -0.00542775344
v 0.00719958781 0.00843988584 -0.00589058184
v 0.00782710551 0.00782703089 -0.00593611978
v -0.00838118554 -0.00838126017 -0.00424394392
v 0.00911969184 0.00857065843 0.00136890627
v -0.00811475278 -0.00866378618 -0.00419411444
v 0.00935191154 0.00829135107 0.00151505686
v -0.00788253308 -0.00894321276 -0.00404796385
v 0.00953406333 0.00803409742 0.00174739576
v -0.00770038129 -0.0092003472 -0.00381562494
v 0.00965374946 0.00781665968 0.00205030657
v -0.00758069516 -0.00941778494 -0.00351271414
v 0.00970286369 0.00765381979 0.00240304686
v -0.00753158093 -0.00958062483 -0.00315997385
v 0.00967782974 0.00755654501 0.00278153635
v -0.00755661488 -0.00967789961 -0.00278148436
v 0.00958067416 0.00753163027 0.00316002585
v -0.00765377045 -0.00970281435 -0.00240299486
v 0.00941783427 0.00758062529 0.00351276613
v -0.00781672955 -0.00965381933 -0.00205037378
v 0.00920027732 0.00770031141 0.00381555773
v -0.0080341673 -0.00953413321 -0.00174746298
v 0.00894314288 0.00788246321 0.00404801584
v -0.00829130173 -0.00935198141 -0.00151500486
v 0.00866371631 0.0081146829 0.00419404722
v -0.00857072831 -0.00911976172 -0.00136897348
v 0.00838119029 0.00838123487 0.00424387671
v -0.00885325433 -0.00885320974 -0.001319144
v 0.00811475753 0.00866376089 0.00419404722
v -0.00911968709 -0.00857068373 -0.00136897348
v 0.00788253783 0.00894318746 0.00404801584
v -0.00935190678 -0.00829125715 -0.00151500486
v 0.00770038604 0.0092003219 0.00381555773
v -0.00953405858 -0.00803412272 -0.00174746298
v 0.00758069991 0.00941775965 0.00351276613
v -0.0096537447 -0.00781668497 -0.00205037378
v 0.00753158569 0.00958071875 0.00316002585
v -0.00970285893 -0.00765384508 -0.00240299486
v 0.00755661964 0.00967787432 0.00278153635
v -0.00967794419 -0.0075565703 -0.00278148436
v 0.00765377521 0.00970278906 0.00240304686
v -0.00958066941 -0.00753165556 -0.00315997385
v 0.00781673431 0.00965379404 0.00205030657
v -0.00941782952 -0.00758065058 -0.00351271414
v 0.00803417205 0.00953410791 0.00174739576
v -0.00920039178 -0.00770033671 -0.00381562494
v 0.00829130649 0.00935195612 0.00151505686
v -0.00894313813 -0.0078824885 -0.00404796385
v 0.00857073306 0.00911973642 0.00136890627
v -0.00866371156 -0.0081147082 -0.00419411444
v 0.00885325908 0.00885330366 0.00131907679
v 0.00861722469 0.00861726927 0.00278153635
v -0.00861721993 -0.00861717535 -0.00278148436
f 1 6 2
f 9 10 512
f 10 7 512
f 11 12 7
f 7 12 516
f 7 516 515
f 11 518 12
f 11 15 13
f 11 13 518
f 16 14 8
f 8 14 11
f 11 14 15
f 548 546 5
f 2 6 19
f 9 21 20
f 20 21 22
f 20 22 506
f 24 18 23
f 23 530 24
f 23 19 531
f 23 531 530
f 506 505 20
f 20 505 25
f 548 547 546
f 26 549 548
f 26 550 549
f 74 77 320
f 74 320 78
f 78 326 79
f 79 80 81
f 81 82 83
f 68 103 355
f 68 355 104
f 104 360 105
f 105 106 107
f 107 108 109
f 109 110 371
f 73 77 74
f 67 103 68
f 75 73 74
f 69 67 68
f 76 75 74
f 76 74 130
f 169 69 68
f 169 68 131
f 65 75 199
f 199 75 76
f 76 130 132
f 70 69 169
f 133 169 131
f 133 131 134
f 199 76 198
f 198 76 132
f 198 132 139
f 74 78 141
f 74 141 130
f 130 141 142
f 130 142 132
f 132 142 143
f 132 143 139
f 139 143 144
f 139 144 196
f 196 144 63
f 196 63 140
f 140 63 62
f 140 62 64
f 78 79 141
f 143 145 144
f 144 145 61
f 144 61 388
f 144 388 63
f 79 81 146
f 79 146 141
f 141 146 147
f 141 147 142
f 142 147 148
f 142 148 143
f 143 148 149
f 143 149 145
f 145 149 60
f 145 60 391
f 145 391 61
f 81 83 146
f 148 150 149
f 149 150 59
f 149 59 393
f 149 393 60
f 83 151 146
f 146 151 152
f 146 152 147
f 147 152 148
f 148 152 58
f 148 58 150
f 150 58 395
f 150 395 59
f 58 396 395
f 152 151 153
f 152 153 57
f 152 57 58
f 58 57 398
f 58 398 396
f 151 137 153
f 57 153 398
f 56 137 155
f 155 137 151
f 154 151 85
f 85 151 84
f 84 151 83
f 84 83 336
f 336 83 72
f 56 399 137
f 137 399 153
f 153 399 398
f 156 155 151
f 156 151 154
f 53 55 56
f 53 56 155
f 156 154 87
f 87 154 85
f 87 85 86
f 86 85 279
f 279 85 84
f 54 55 53
f 157 155 156
f 158 53 155
f 158 155 157
f 159 157 156
f 159 156 90
f 90 156 87
f 90 87 89
f 89 87 88
f 88 87 86
f 52 54 53
f 158 157 159
f 50 52 53
f 50 53 160
f 160 53 158
f 93 159 90
f 93 90 92
f 92 90 91
f 91 90 89
f 51 52 50
f 161 160 158
f 161 158 159
f 162 161 159
f 162 159 96
f 96 159 93
f 96 93 95
f 95 93 94
f 94 93 92
f 49 51 50
f 47 49 50
f 47 50 163
f 163 50 160
f 163 160 161
f 99 162 96
f 99 96 98
f 98 96 97
f 97 96 95
f 48 49 47
f 164 163 161
f 164 161 162
f 168 164 162
f 168 162 101
f 101 162 99
f 101 99 100
f 100 99 98
f 45 48 47
f 101 100 102
f 46 45 47
f 46 47 163
f 46 163 164
f 169 168 101
f 169 101 273
f 273 101 102
f 165 45 166
f 166 45 46
f 167 46 164
f 167 164 168
f 71 169 273
f 71 70 169
f 169 133 168
f 168 133 134
f 168 134 167
f 167 134 135
f 167 135 46
f 46 135 136
f 46 136 166
f 166 136 44
f 166 44 165
f 68 104 170
f 68 170 131
f 131 170 171
f 131 171 134
f 134 171 172
f 134 172 135
f 135 172 136
f 136 43 44
f 44 43 165
f 43 415 165
f 104 105 170
f 172 173 136
f 136 173 42
f 136 42 43
f 43 42 416
f 43 416 415
f 105 107 174
f 105 174 170
f 170 174 175
f 170 175 171
f 171 175 176
f 171 176 172
f 172 176 177
f 172 177 173
f 173 177 41
f 173 41 419
f 173 419 42
f 107 109 174
f 176 178 177
f 177 178 40
f 177 40 421
f 177 421 41
f 371 66 109
f 109 66 179
f 109 179 174
f 174 179 180
f 174 180 175
f 175 180 176
f 176 180 39
f 176 39 178
f 178 39 423
f 178 423 40
f 39 424 423
f 180 179 38
f 180 38 39
f 39 38 425
f 39 425 424
f 38 37 425
f 66 184 179
f 179 184 138
f 179 138 38
f 38 138 181
f 38 181 37
f 185 184 66
f 185 66 186
f 186 66 112
f 112 66 111
f 111 66 182
f 182 66 371
f 36 183 184
f 184 183 138
f 33 35 36
f 33 36 187
f 187 36 184
f 187 184 185
f 115 186 112
f 115 112 114
f 114 112 113
f 113 112 111
f 34 35 33
f 188 187 185
f 188 185 189
f 189 185 186
f 189 186 118
f 118 186 115
f 118 115 117
f 117 115 116
f 116 115 114
f 32 34 33
f 30 32 33
f 30 33 190
f 190 33 187
f 190 187 188
f 121 189 118
f 121 118 120
f 120 118 119
f 119 118 117
f 31 32 30
f 191 190 188
f 191 188 192
f 192 188 189
f 192 189 123
f 123 189 121
f 123 121 122
f 122 121 270
f 270 121 120
f 29 31 30
f 27 29 30
f 27 30 193
f 193 30 190
f 193 190 191
f 126 192 123
f 126 123 125
f 125 123 124
f 124 123 122
f 28 29 27
f 197 193 191
f 197 191 194
f 194 191 192
f 194 192 128
f 128 192 126
f 128 126 127
f 127 126 125
f 441 28 27
f 128 127 129
f 195 441 27
f 195 27 196
f 196 27 193
f 196 193 197
f 198 197 194
f 198 194 199
f 199 194 128
f 199 128 129
f 129 65 199
f 197 198 139
f 197 139 196
f 195 196 140
f 195 140 441
f 299 300 204
f 204 300 214
f 208 207 209
f 209 205 208
f 211 210 206
f 206 210 205
f 205 210 293
f 205 293 294
f 202 213 282
f 208 297 207
f 285 286 203
f 203 286 287
f 203 287 224
f 224 287 289
f 213 215 280
f 216 218 213
f 213 218 217
f 213 217 215
f 214 218 216
f 220 219 221
f 224 289 223
f 224 223 301
f 224 301 225
f 224 225 222
f 226 214 216
f 226 216 213
f 226 213 237
f 237 213 238
f 238 213 202
f 238 202 239
f 239 202 201
f 239 201 240
f 240 201 200
f 240 200 203
f 240 203 227
f 227 203 224
f 227 224 228
f 228 224 229
f 229 224 222
f 229 222 221
f 229 221 219
f 229 219 230
f 230 219 212
f 230 212 211
f 230 211 231
f 231 211 206
f 231 206 205
f 231 205 232
f 232 205 209
f 232 209 207
f 232 207 233
f 233 207 204
f 233 204 214
f 233 214 226
f 234 233 235
f 235 233 236
f 236 233 226
f 236 226 237
f 243 240 227
f 241 230 231
f 241 231 242
f 242 231 232
f 242 232 234
f 234 232 233
f 243 227 228
f 243 228 244
f 244 228 229
f 244 229 245
f 245 229 241
f 241 229 230
f 246 236 237
f 246 237 247
f 247 237 238
f 247 238 239
f 247 239 248
f 248 239 249
f 249 239 240
f 249 240 243
f 249 243 250
f 250 243 244
f 250 244 251
f 251 244 245
f 251 245 241
f 251 241 252
f 252 241 242
f 252 242 253
f 253 242 234
f 253 234 246
f 246 234 235
f 246 235 236
f 253 254 255
f 253 255 256
f 253 256 252
f 252 256 266
f 252 266 251
f 247 257 246
f 246 257 258
f 246 258 259
f 246 259 260
f 246 260 261
f 246 261 253
f 253 261 254
f 250 262 249
f 249 262 263
f 249 263 264
f 249 264 248
f 248 264 247
f 247 264 265
f 247 265 257
f 251 266 267
f 251 267 250
f 250 267 268
f 250 268 262
f 25 260 20
f 20 260 259
f 20 259 258
f 20 258 257
f 20 257 9
f 9 257 10
f 10 257 7
f 7 257 265
f 7 265 264
f 7 264 11
f 11 264 263
f 11 263 262
f 11 262 8
f 8 262 16
f 16 262 268
f 16 268 17
f 17 268 18
f 18 268 267
f 18 267 23
f 23 267 19
f 19 267 2
f 2 267 266
f 2 266 1
f 1 266 3
f 3 266 256
f 3 256 4
f 4 256 5
f 5 256 548
f 548 256 255
f 548 255 254
f 548 254 26
f 26 254 261
f 26 261 25
f 25 261 260
f 129 127 269
f 270 120 377
f 120 119 271
f 119 117 374
f 117 116 375
f 116 114 375
f 114 113 272
f 113 111 272
f 273 102 274
f 102 100 275
f 95 94 276
f 94 92 276
f 92 91 342
f 91 89 277
f 89 88 340
f 88 86 278
f 281 213 280
f 283 202 282
f 284 201 202
f 284 200 201
f 285 203 200
f 290 223 289
f 291 212 219
f 292 211 212
f 292 210 211
f 295 205 294
f 296 208 205
f 298 207 297
f 298 204 207
f 300 299 302
f 305 300 302
f 225 301 310
f 310 301 303
f 214 300 305
f 305 302 306
f 310 303 311
f 304 214 305
f 222 225 309
f 309 225 310
f 314 75 65
f 302 315 306
f 306 315 307
f 307 314 308
f 308 314 65
f 204 298 299
f 299 298 302
f 307 316 314
f 314 316 75
f 317 73 75
f 298 318 302
f 302 318 315
f 315 319 307
f 307 319 317
f 307 317 316
f 316 317 75
f 319 77 317
f 317 77 73
f 318 321 315
f 315 321 322
f 315 322 319
f 319 322 320
f 319 320 77
f 323 78 320
f 298 297 318
f 322 323 320
f 324 326 78
f 297 325 318
f 318 325 321
f 322 324 323
f 323 324 78
f 208 296 297
f 297 296 325
f 322 326 324
f 327 80 79
f 325 296 328
f 325 328 321
f 321 328 329
f 321 329 322
f 322 329 327
f 322 327 326
f 326 327 79
f 329 81 80
f 205 295 296
f 327 329 80
f 330 82 81
f 295 294 331
f 295 331 296
f 296 331 328
f 328 332 329
f 329 332 330
f 329 330 81
f 332 83 82
f 330 332 82
f 333 72 83
f 294 293 331
f 331 334 328
f 328 334 335
f 328 335 332
f 332 335 333
f 332 333 83
f 335 336 333
f 333 336 72
f 279 84 337
f 210 292 293
f 293 292 338
f 293 338 331
f 331 338 334
f 335 337 336
f 336 337 84
f 335 279 337
f 338 339 334
f 334 339 340
f 334 340 335
f 335 340 278
f 335 278 279
f 279 278 86
f 278 340 88
f 212 291 292
f 292 291 341
f 292 341 338
f 338 341 339
f 339 342 340
f 340 342 277
f 340 277 89
f 277 342 91
f 341 291 343
f 341 343 339
f 339 343 276
f 339 276 342
f 342 276 92
f 343 313 276
f 276 313 95
f 100 98 275
f 275 98 343
f 275 343 345
f 345 343 291
f 345 291 346
f 346 291 344
f 344 291 219
f 343 98 97
f 343 97 313
f 313 97 95
f 346 344 220
f 220 344 219
f 347 102 275
f 347 275 345
f 347 345 348
f 348 345 349
f 349 345 346
f 349 346 220
f 274 102 347
f 221 349 220
f 273 274 312
f 312 274 347
f 312 347 311
f 311 347 310
f 310 347 348
f 310 348 309
f 309 348 349
f 309 349 222
f 222 349 221
f 69 70 350
f 223 290 301
f 301 290 303
f 303 351 311
f 311 351 312
f 312 350 273
f 273 350 70
f 273 70 71
f 312 352 350
f 350 352 69
f 353 67 69
f 290 354 303
f 303 354 351
f 351 353 312
f 312 353 352
f 352 353 69
f 353 103 67
f 287 288 289
f 289 288 356
f 289 356 290
f 290 356 354
f 354 357 351
f 351 357 355
f 351 355 353
f 353 355 103
f 358 104 355
f 357 354 358
f 357 358 355
f 359 360 104
f 287 286 288
f 356 360 354
f 354 360 359
f 354 359 358
f 358 359 104
f 361 106 105
f 285 362 286
f 286 362 363
f 286 363 288
f 288 363 364
f 288 364 356
f 356 364 361
f 356 361 360
f 360 361 105
f 364 107 106
f 361 364 106
f 365 108 107
f 200 284 285
f 285 284 362
f 363 366 364
f 364 366 365
f 364 365 107
f 366 109 108
f 365 366 108
f 367 110 109
f 284 368 362
f 362 368 369
f 362 369 363
f 363 369 370
f 363 370 366
f 366 370 367
f 366 367 109
f 370 371 367
f 367 371 110
f 111 182 372
f 372 182 371
f 202 283 284
f 284 283 368
f 370 372 371
f 370 272 372
f 372 272 111
f 283 373 368
f 368 373 374
f 368 374 369
f 369 374 375
f 369 375 370
f 370 375 272
f 272 375 114
f 213 281 282
f 282 281 376
f 282 376 283
f 283 376 373
f 375 374 117
f 376 281 377
f 376 377 373
f 373 377 271
f 373 271 374
f 374 271 119
f 271 377 120
f 215 379 280
f 280 379 378
f 280 378 281
f 281 378 270
f 281 270 377
f 270 378 122
f 127 125 269
f 269 125 379
f 269 379 382
f 381 379 215
f 381 215 380
f 380 215 217
f 379 125 124
f 379 124 378
f 378 124 122
f 384 382 379
f 384 379 381
f 218 380 217
f 381 380 218
f 65 129 269
f 383 382 384
f 385 384 381
f 385 381 218
f 308 65 269
f 308 269 307
f 307 269 382
f 307 382 306
f 306 382 383
f 306 383 305
f 305 383 384
f 305 384 304
f 304 384 385
f 304 385 214
f 214 385 218
f 64 62 387
f 387 62 63
f 387 63 388
f 389 388 390
f 388 61 390
f 390 61 391
f 391 60 392
f 392 60 393
f 393 59 394
f 394 59 395
f 396 398 397
f 400 399 56
f 400 56 55
f 400 55 401
f 401 55 402
f 402 55 54
f 402 54 403
f 403 54 404
f 404 54 52
f 404 52 405
f 405 52 406
f 406 52 51
f 406 51 407
f 407 51 408
f 408 51 49
f 408 49 409
f 409 49 410
f 410 49 48
f 410 48 411
f 411 48 412
f 412 48 45
f 412 45 413
f 413 45 414
f 165 414 45
f 417 416 42
f 417 42 418
f 418 42 419
f 419 41 420
f 420 41 421
f 421 40 422
f 422 40 423
f 425 37 426
f 426 37 138
f 37 181 138
f 138 183 427
f 427 183 36
f 427 36 428
f 428 36 35
f 428 35 429
f 429 35 430
f 430 35 34
f 430 34 431
f 431 34 432
f 432 34 32
f 432 32 433
f 433 32 434
f 434 32 31
f 434 31 435
f 435 31 436
f 436 31 29
f 436 29 437
f 437 29 438
f 438 29 28
f 438 28 439
f 439 28 440
f 440 28 441
f 386 441 140
f 386 140 64
f 386 442 441
f 441 442 440
f 427 443 138
f 138 443 426
f 415 444 165
f 165 444 414
f 400 445 399
f 399 445 446
f 399 446 398
f 398 446 397
f 440 442 447
f 440 447 439
f 439 447 448
f 439 448 438
f 438 448 449
f 438 449 437
f 437 449 450
f 437 450 436
f 436 450 451
f 436 451 435
f 435 451 452
f 435 452 434
f 434 452 453
f 434 453 433
f 433 453 454
f 433 454 432
f 432 454 455
f 432 455 431
f 431 455 456
f 431 456 430
f 430 456 457
f 430 457 429
f 429 457 458
f 429 458 428
f 428 458 459
f 428 459 427
f 427 459 443
f 443 460 426
f 426 460 461
f 426 461 425
f 425 461 462
f 425 462 424
f 424 462 463
f 424 463 423
f 423 463 464
f 423 464 422
f 422 464 465
f 422 465 421
f 421 465 466
f 421 466 420
f 420 466 467
f 420 467 419
f 419 467 468
f 419 468 418
f 418 468 469
f 418 469 417
f 417 469 470
f 417 470 416
f 416 470 471
f 416 471 415
f 415 471 444
f 444 472 414
f 414 472 473
f 414 473 413
f 413 473 474
f 413 474 412
f 412 474 475
f 412 475 411
f 411 475 476
f 411 476 410
f 410 476 477
f 410 477 409
f 409 477 478
f 409 478 408
f 408 478 479
f 408 479 407
f 407 479 480
f 407 480 406
f 406 480 481
f 406 481 405
f 405 481 482
f 405 482 404
f 404 482 483
f 404 483 403
f 403 483 484
f 403 484 402
f 402 484 485
f 402 485 401
f 401 485 486
f 401 486 400
f 400 486 445
f 446 487 397
f 397 487 488
f 397 488 396
f 396 488 489
f 396 489 395
f 395 489 490
f 395 490 394
f 394 490 491
f 394 491 393
f 393 491 492
f 393 492 392
f 392 492 493
f 392 493 391
f 391 493 494
f 391 494 390
f 390 494 495
f 390 495 389
f 389 495 496
f 389 496 388
f 388 496 497
f 388 497 387
f 387 497 498
f 387 498 64
f 64 498 499
f 64 499 386
f 386 499 442
f 499 500 442
f 459 501 443
f 443 501 460
f 471 502 444
f 444 502 472
f 486 503 445
f 445 503 504
f 445 504 446
f 446 504 487
f 500 505 442
f 442 505 506
f 442 506 447
f 447 506 507
f 447 507 448
f 448 507 508
f 448 508 449
f 449 508 509
f 449 509 450
f 450 509 510
f 450 510 451
f 451 510 511
f 451 511 452
f 452 511 512
f 452 512 453
f 453 512 513
f 453 513 454
f 454 513 514
f 454 514 455
f 455 514 515
f 455 515 456
f 456 515 457
f 457 515 516
f 457 516 458
f 458 516 517
f 458 517 459
f 459 517 501
f 501 518 460
f 460 518 461
f 461 518 519
f 461 519 462
f 462 519 520
f 462 520 463
f 463 520 521
f 463 521 464
f 464 521 522
f 464 522 465
f 465 522 523
f 465 523 466
f 466 523 524
f 466 524 467
f 467 524 525
f 467 525 468
f 468 525 526
f 468 526 469
f 469 526 527
f 469 527 470
f 470 527 528
f 470 528 471
f 471 528 502
f 502 529 472
f 472 529 530
f 472 530 473
f 473 530 474
f 474 530 531
f 474 531 475
f 475 531 532
f 475 532 476
f 476 532 533
f 476 533 477
f 477 533 534
f 477 534 478
f 478 534 535
f 478 535 479
f 479 535 536
f 479 536 480
f 480 536 537
f 480 537 481
f 481 537 538
f 481 538 482
f 482 538 539
f 482 539 483
f 483 539 540
f 483 540 484
f 484 540 541
f 484 541 485
f 485 541 542
f 485 542 486
f 486 542 503
f 504 543 487
f 487 543 544
f 487 544 488
f 488 544 545
f 488 545 489
f 489 545 546
f 489 546 490
f 490 546 491
f 491 546 547
f 491 547 492
f 492 547 548
f 492 548 493
f 493 548 549
f 493 549 494
f 494 549 495
f 495 549 550
f 495 550 496
f 496 550 26
f 496 26 497
f 497 26 551
f 497 551 498
f 498 551 552
f 498 552 499
f 499 552 500
f 552 25 500
f 500 25 505
f 506 22 507
f 507 22 21
f 507 21 508
f 508 21 509
f 509 21 9
f 509 9 510
f 510 9 511
f 511 9 512
f 513 512 7
f 513 7 514
f 514 7 515
f 517 516 12
f 517 12 501
f 501 12 518
f 518 13 519
f 519 13 15
f 519 15 520
f 520 15 521
f 521 15 14
f 521 14 522
f 522 14 523
f 523 14 16
f 523 16 524
f 524 16 525
f 525 16 526
f 526 16 17
f 526 17 527
f 527 17 18
f 527 18 528
f 528 18 502
f 502 18 24
f 502 24 529
f 529 24 530
f 532 531 19
f 532 19 533
f 533 19 534
f 534 19 6
f 534 6 535
f 535 6 536
f 536 6 537
f 537 6 538
f 538 6 1
f 538 1 539
f 539 1 540
f 540 1 3
f 540 3 541
f 541 3 542
f 542 3 503
f 503 3 4
f 503 4 504
f 504 4 5
f 504 5 543
f 544 543 5
f 544 5 545
f 545 5 546
f 551 26 25
f 551 25 552
f 553 554 555
f 555 554 556
f 555 556 557
f 557 556 558
f 557 558 559
f 559 558 560
f 559 560 561
f 561 560 562
f 561 562 563
f 563 562 564
f 563 564 565
f 565 564 566
f 565 566 567
f 567 566 568
f 567 568 569
f 569 568 570
f 569 570 571
f 571 570 572
f 571 572 573
f 573 572 574
f 573 574 575
f 575 574 576
f 575 576 577
f 577 576 578
f 577 578 579
f 579 578 580
f 579 580 581
f 581 580 582
f 581 582 583
f 583 582 584
f 583 584 585
f 585 584 586
f 585 586 587
f 587 586 588
f 587 588 589
f 589 588 590
f 589 590 591
f 591 590 592
f 591 592 593
f 593 592 594
f 593 594 595
f 595 594 596
f 595 596 597
f 597 596 598
f 597 598 599
f 599 598 600
f 599 600 553
f 553 600 554
f 580 578 601
f 601 578 576
f 601 576 574
f 586 584 601
f 601 584 582
f 601 582 580
f 592 590 601
f 601 590 588
f 601 588 586
f 598 596 601
f 601 596 594
f 601 594 592
f 556 554 601
f 601 554 600
f 601 600 598
f 562 560 601
f 601 560 558
f 601 558 556
f 568 566 601
f 601 566 564
f 601 564 562
f 574 572 601
f 601 572 570
f 601 570 568
f 573 575 602
f 602 575 577
f 602 577 579
f 567 569 602
f 602 569 571
f 602 571 573
f 561 563 602
f 602 563 565
f 602 565 567
f 555 557 602
f 602 557 559
f 602 559 561
f 597 599 602
f 602 599 553
f 602 553 555
f 591 593 602
f 602 593 595
f 602 595 597
f 585 587 602
f 602 587 589
f 602 589 591
f 579 581 602
f 602 581 583
f 602 583 585
