v 0.000340419668 0.00559999785 0.0091541059
v 0.000456600337 0.00488359286 0.0091550716
v 0.00085929933 0.00273603236 0.0101040933
v 0.000588127077 0.00190118125 0.0100970514
v -0.00583148845 -6.33566563e-05 0.00898579568
v -0.00618781775 0.000723680733 0.00830794458
v -0.00659154041 0.00202646216 0.00760964345
v -0.00677380078 0.00292374946 0.00747282227
v -0.00655779584 0.00365939096 0.00724722113
v -0.00609414946 0.00490506324 0.00702958858
v -0.00568280799 0.00508656462 0.00687698316
v 5.05779646e-05 0.00643763113 0.00872387614
v 0.00463243235 0.00483514531 0.0104751516
v 0.00437869447 0.00588133295 0.0100325723
v -0.00346565583 -0.000818718236 0.00980590168
v -0.00260553939 -0.000732279221 0.00990632963
v -0.00617744446 -0.00428761026 0.00990071414
v -0.00415553123 0.00637483249 0.00695836737
v 0.0015790643 -0.00274381677 0.0120163341
v -0.000964367798 -8.76607623e-05 0.0102456309
v 0.000921982697 -0.00323925058 0.0119612594
v -0.00157885154 -0.00442109699 0.0115120317
v -6.8079845e-05 -0.00383371039 0.0118264733
v -0.0094017802 -0.00174281637 0.0079361577
v -0.0103916938 0.000612163947 0.00679717952
v -0.0100838958 -0.000409698883 0.00724986982
v -0.0080738039 0.0079733692 0.00507980868
v 0.003049371 -0.00120358353 0.011992514
v 0.00191155725 -0.00411157534 0.011613922
v 0.0034832805 -0.00533628566 0.00841000219
v 0.000671938633 -0.00618718996 0.0093596646
v 0.000335641911 -0.00504777175 0.0113944958
v -0.0013691689 -0.00566201773 0.0110217627
v -0.00285242553 -0.00688729915 0.00843464824
v -0.00312889398 -0.00592654122 0.0105108941
v -0.00486716935 -0.0058296631 0.00988425391
v -0.00622864294 -0.00618097126 0.00706855376
v -0.00650987683 -0.00537651661 0.0091691368
v -0.00799098301 -0.00458547954 0.00839436566
v -0.00872850839 -0.00409167941 0.00760895241
v -0.0103710374 -0.00184537045 0.00664476207
v -0.00988844313 -0.00247976437 0.00339393135
v -0.0103745329 -0.000835330877 0.00266632027
v -0.0112030431 0.00196336429 0.00491841235
v -0.0109722618 0.0037043441 0.00439698739
v -0.0103969554 0.00538714711 0.00399093021
v -0.00929031885 0.00733111091 0.00390154794
v -0.00945403836 0.00701918941 0.00371262158
v -0.00874773704 0.00791620363 0.00366107888
v -0.00756815609 0.00911648245 0.00388220121
v -0.00683299692 0.00803036279 0.000339659329
v -0.00497343035 0.00988372141 0.00195620094
v -0.00602551357 0.0101310807 0.00406001604
v -0.00434918665 0.0108260817 0.00439272514
v -0.00149335162 0.0107781347 0.00287965715
v -0.00259531821 0.0111785901 0.0048681876
v -0.000845456292 0.0111712857 0.00546517301
v 0.00191675635 0.0102607951 0.00424411771
v 0.00082871433 0.0108052111 0.00615836465
v 0.0023583461 0.0100947627 0.00691943162
v 0.00333424184 0.00944280825 0.00713164635
v 0.00489383833 0.00749093401 0.00866269359
v 0.00644314645 0.00613851652 0.00602187461
v 0.00701447659 0.00452899922 0.00676304537
v 0.00600651913 0.00366753662 0.0102014058
v 0.00586753767 0.0019230444 0.0107404575
v 0.00538106749 0.000205946321 0.0111528211
v 0.00427378135 -0.00167002354 0.0115853556
v 0.00455528427 -0.00148408233 0.0113790642
v 0.00355333114 -0.00233559167 0.0118754056
v 0.00647332876 -0.00839073276 -0.00048669009
v -0.00667589973 -0.00664667934 -0.00293473084
v -0.00452451096 0.00128337487 -0.0115395782
v -0.00600580143 0.00109510422 -0.00943261571
v -0.00388314429 0.0022101146 -0.0116374064
v -0.00309968839 0.00308677913 -0.0116679433
v -0.00470873948 0.0047218004 -0.00793263935
v 0.00802605701 0.00537185676 -0.00202074459
v 0.0100425922 -0.00617261233 -0.0040398213
v 0.0100705378 -0.00455552579 -0.00204456587
v 0.00939652175 -0.00720086849 -0.0039112993
v 0.00832472205 -0.0064711702 -0.000364864839
v 0.0104484283 -0.00534993491 -0.00418209852
v 0.0111350827 -0.00269598784 -0.00456815187
v 0.0111633734 -0.000964200244 -0.00512778693
v 0.0111780409 -0.000993761105 -0.00541695849
v 0.010845512 0.000702640766 -0.00578442914
v 0.0108408396 0.000691365928 -0.00610560644
v 0.0101942108 0.00223852231 -0.00651077649
v 0.0101571159 0.00223524645 -0.0068640547
v 0.00880973326 0.0039781439 -0.0076755312
v 0.00753817075 0.00566839664 -0.00456545126
v 0.00790074731 0.00462163568 -0.00847569462
v 0.00749234748 0.00496432247 -0.0084594749
v 0.00613519251 0.00658918053 -0.00537249201
v 0.00596983419 0.00564590818 -0.00921259563
v 0.00454626745 0.00719317796 -0.00613458408
v 0.00430763002 0.00599162083 -0.00989711178
v 0.00283306751 0.00745608747 -0.00682164531
v 0.00298667746 0.00589555442 -0.010578537
v 0.00257617693 0.00598659413 -0.0104862131
v 0.00106106717 0.00736924214 -0.0074002373
v 0.00122329579 0.00560247128 -0.0110747607
v 0.000843984234 0.00563132988 -0.0109568183
v -0.000696778765 0.00693359599 -0.00785153479
v -0.000599556526 0.00503853441 -0.0112689667
v -0.00237074935 0.00616372031 -0.00816194946
v -0.00153368751 0.00436618839 -0.011582239
v -0.00296054465 0.00490953883 -0.00951727439
v -0.00490749935 0.000404316308 -0.0115426818
v -0.00576176022 -0.00180807041 -0.0109060861
v -0.00727942255 -0.00166491031 -0.00765646497
v -0.00606808916 -0.00372815563 -0.0100598191
v -0.0059201707 -0.00385763614 -0.0102641099
v -0.00584664882 -0.00540721216 -0.00939265749
v -0.00567242554 -0.00556648912 -0.00959777673
v -0.0052873751 -0.00696993309 -0.00865206479
v -0.00507257792 -0.00715321303 -0.00885340053
v -0.00394755856 -0.0088420835 -0.00765280631
v -0.00497976482 -0.00826608895 -0.00408004502
v -0.00269080379 -0.00989712913 -0.00686697848
v -0.00362237958 -0.00927065337 -0.00329398506
v -0.00121319126 -0.0106595212 -0.00610517978
v -0.00206645642 -0.00996448725 -0.00253981018
v 0.000422802752 -0.0110922643 -0.00540248093
v -0.000369916968 -0.0103224266 -0.00185568649
v 0.00187278773 -0.0112133107 -0.00513239755
v 0.00214371409 -0.0111757784 -0.00478861564
v 0.00139687665 -0.0103267601 -0.0012570845
v 0.00363818116 -0.0110079549 -0.00459746084
v 0.00388045294 -0.010908749 -0.00428975716
v 0.00316632741 -0.00997793225 -0.000774433729
v 0.00557132486 -0.0102990477 -0.00392309542
v 0.00486872158 -0.00929110172 -0.000432208988
v 0.0069633139 -0.00955737937 -0.00394698807
v 0.00636841672 -0.00895950834 -0.0016177516
v 0.00911692104 -0.00454335888 0.000436828263
v -0.00656761079 0.00262502642 -0.00734245474
v 0.00794910075 -0.00461824983 0.00287307741
v -0.00518355949 0.0045203205 -0.00740965415
v -0.00691174087 0.00423717038 -0.00519989277
v -0.00738466305 0.00537677957 -0.00296036152
v -0.00787568688 0.00706465739 0.000372069748
v 0.00451120826 0.00808590603 0.00840286808
v -0.0100589874 -0.0024235697 0.00702035685
v 0.00837818966 -0.00838057731 -0.00385678129
v 0.00772281207 -0.00730078268 -0.000536459225
v 0.00642420667 -0.00642416517 0.00300625753
v 0.00663269385 -0.00461903757 0.00523871094
v 0.00550158391 -0.00417084509 0.00744150531
v 0.00358651406 -0.00292464406 0.0113397118
v 0.0101340874 -0.00103455983 -0.000409482691
v 0.00931353441 -0.00116121135 0.0021624285
v 0.00832241983 -0.00128052755 0.00467637769
v 0.00638650273 -0.00196371 0.00809781012
v 0.00707430162 -0.000262712084 0.00775205724
v 0.00974334185 0.00245274541 -0.00173120023
v 0.00927756922 0.00241581147 0.000929225232
v 0.00864433119 0.00231970044 0.00355834975
v 0.00742492151 0.00150461972 0.00726460217
v 0.00742355987 0.00326825861 0.0066582968
v 0.00770726607 0.00559422341 0.000720153406
v 0.00793594942 0.00482897192 0.00242686862
v 0.00461317914 0.00790991743 0.0084392209
v 0.00915517228 0.00357367953 -0.00766118575
v 0.00386907475 0.00885977705 0.00786236715
v 0.0051320351 0.00815336013 0.00410069226
v 0.00520256416 0.00809494661 0.000422847107
v 0.00598110814 0.00731684914 -0.00185880746
v 0.00285899525 0.00959613051 0.00191954481
v 0.00198152999 0.00936085308 -0.00110505081
v 0.00276027526 0.00858281598 -0.00338900519
v -0.000585792818 0.010163082 0.000551970754
v -0.00161122707 0.00921730559 -0.00228290526
v -0.00083399588 0.00844076623 -0.00456360863
v -0.00412177972 0.00931721268 -0.000364674962
v -0.00610490327 0.00743585118 -0.0018611527
v -0.00434148814 0.00714396885 -0.00472703584
v -0.00353577643 0.00632579148 -0.0069597148
v -0.00811418297 6.25661903e-06 -0.00551410638
v -0.00869825036 0.00166768231 -0.00352847841
v -0.00856696061 0.00334770137 -0.00268477087
v -0.00907029918 0.00527518307 0.000371768658
v -0.00983881667 0.00360171174 0.000680353176
v -0.0075399762 -0.00436632701 -0.00529367894
v -0.00858361825 -0.00275911268 -0.00338728641
v -0.00946020224 -0.00109743564 -0.00143987329
v -0.0102726804 0.00184239453 0.00112603873
v -0.0103570475 6.83255308e-05 0.0016969941
v -0.00793780997 -0.00523025896 -0.000922559806
v -0.00886249918 -0.00367318561 -0.000395437859
v -0.0101165591 -0.00228104631 0.00689355325
v -0.00414715392 -0.00854787866 -0.00806315947
v -0.0082644314 -0.0050144043 0.00402981485
v -0.00633108512 -0.00706701433 0.00165648344
v -0.00555498119 -0.00784324449 -0.000624592326
v -0.00558619531 -0.007097358 0.00473110473
v -0.00319319834 -0.00850050597 0.00321085148
v -0.00241804056 -0.00927644287 0.000931238217
v -0.00219154255 -0.00784028534 0.00613816682
v 0.000384362095 -0.00853643046 0.00444429878
v 0.00115965969 -0.00931397993 0.00216152053
v 0.00136566581 -0.00716933904 0.00711818435
v 0.00332059281 -0.00462267439 0.00954214525
v 0.00421630227 -0.00621061039 0.00629840031
v 0.0043940277 -0.00785323988 0.00335407048
v 0.00513071009 -0.00857310289 0.00106484485
v -0.000813863482 -0.00411071585 -0.00942153966
v 0.00262250679 0.000737412153 -0.0101192149
v 0.00161461954 0.000414843574 -0.0103675839
v -0.00048702575 -0.00174267871 -0.0101166333
v 0.00115594519 -0.00648385798 -0.00814488646
v 0.000599164417 -0.00613307854 -0.00842349499
v 0.000607264087 -0.000271074065 -0.0104080259
v -0.00270172717 0.00164287739 -0.012023624
v -0.00293409271 -0.00840032656 -0.00868278937
v 0.00663140453 -0.00167543299 -0.00788786128
v 0.0104002817 -3.37005982e-05 -0.00698020998
v 0.00274922589 -0.00663932386 -0.00734720022
v 0.00204647808 -0.0106920413 -0.00619542505
v 0.010016256 -0.00506572533 -0.00540842788
v 0.00591695083 -0.0048648009 -0.00687270564
v 0.00667876967 -0.00294304285 -0.007376356
v 0.01073361 -0.00148914461 -0.0063603854
v 0.0056171597 -4.34780194e-05 -0.00873309259
v 0.00340850162 0.000807333337 -0.00978400541
v 0.0013617888 -0.0106565909 -0.00644069825
v 0.00420936146 0.000759940024 -0.00958404974
v 0.00692667382 0.00395002325 -0.00953050662
v 0.00420697559 -0.00633451794 -0.00707203081
v 0.00605358498 -0.00949857275 -0.00524827052
v 0.00532247441 -0.00985894243 -0.00537451316
v 0.00740827935 -0.00857315103 -0.00510211993
v 0.00640139159 -0.00951187675 -0.00510496086
v 0.00852448939 -0.00750389182 -0.00508619913
v 0.00333086408 -0.00438289269 -0.00236790991
v 0.00136002131 -0.00509388945 -0.00279687191
v -0.000205131061 -0.00490479909 -0.00339427057
v -0.00147657386 -0.00406438653 -0.00411335335
v -0.0023347923 -0.00238236431 -0.00497842136
v -0.00195171179 1.9434291e-05 -0.00566582677
v 0.000561801127 0.00219090995 -0.00554939272
v 0.00332232064 0.00199025936 -0.00454104457
v 0.0042687835 0.00123848875 -0.00396271754
v 0.00485461256 0.000334836894 -0.00345550896
v 0.00506393369 -0.0019903229 -0.00259244689
v -0.000897285194 -0.00236090877 -0.00449620974
v -0.000995617935 -0.00150439779 -0.00482138205
v -0.000758666758 -0.000526469066 -0.00507371623
v 0.00380179408 -0.00133537138 -0.00324530287
v 0.00337662118 -0.00246152918 -0.00300665904
v 0.00211842134 -0.00365441975 -0.00302887965
v -0.00110283508 0.000106738412 -0.00540651178
v 0.000885147026 0.000882649025 -0.00499375868
v 0.00173402555 0.00147282711 -0.00490565262
v 0.00323943507 0.000369315628 -0.00401730529
v -9.99281427e-06 -0.00350717918 -0.00380375003
v 0.000305618707 -0.00018452179 0.00516149635
v -0.00113548906 -0.000965928971 0.00493684966
v -0.00263461731 -0.000819944858 0.00437669222
v -0.00383950839 0.000838277568 0.00340174815
v -0.00306668528 0.00294594755 0.00294720377
v -0.00133543263 0.00380180246 0.00324527467
v 0.000369275464 0.0032394737 0.00401722782
v 0.0010490905 0.00158821979 0.00481101122
v 0.00226630585 0.00107147654 0.00540141057
v 0.0023297252 0.00187387427 0.00514987897
v 0.00214360038 0.00296630555 0.00471446337
v 0.00150753873 0.00399973353 0.00414601755
v -0.000366803818 -0.00212198186 0.00559229168
v 0.00110401528 -0.00110397379 0.00574652147
v 0.00183526581 -0.000167444962 0.00567660443
v -0.00355253799 0.00414886435 0.00237218332
v -0.00437342179 0.00328612082 0.00238635543
v -0.00493131263 0.00208785494 0.00260440301
v -0.00512442616 0.000580175816 0.00305206245
v -0.00432872471 -0.00120072995 0.00392950396
v -0.00337312801 -0.00194129984 0.00450710248
v -0.00234344651 -0.00230491177 0.00498151426
v 0.000938791206 0.00450398882 0.00378064107
v -3.36068987e-05 0.00498149073 0.003286848
v -0.00128791911 0.00508096178 0.00282589387
v -0.00208781345 0.00493135413 0.00260440301
v -0.0028545676 0.00461568793 0.00245074224
v 0.00772833848 -0.00902653668 -0.00401712838
v 0.00571708954 -0.0103397936 -0.00428476146
v 0.00107623952 -0.0111964707 -0.00564368773
v 0.00018199709 -0.011072763 -0.00591191116
v -0.000598293373 -0.0108613733 -0.00632806826
v -0.00143612726 -0.0105572982 -0.00663898643
v -0.00213287456 -0.0101817612 -0.00708206702
v -0.00287933968 -0.0097085213 -0.00741955433
v -0.00271770848 0.00333701543 -0.0117807921
v -0.001436643 0.00413575807 -0.0118672564
v 0.000476902042 0.00517501452 -0.0115382408
v 0.00478075069 0.00575969833 -0.01007757
v 0.00562061684 0.00554778536 -0.00979813147
v 0.0064329522 0.00533122302 -0.00936946317
v 0.00719656365 0.00495209654 -0.00905867625
v 0.00818220499 0.00435629427 -0.00852503807
v 0.00330377269 -0.0106418425 -0.00577494804
v 0.000170576849 -0.0105199467 -0.00687183115
v -0.00199303681 -0.00957904222 -0.00792976444
v -0.00357178868 -0.00794565252 -0.00903450355
v -0.00414804911 -0.00692734483 -0.00958407343
v -0.00445399905 -0.00624237112 -0.00991822954
v -0.00467324811 -0.00547984751 -0.0102558418
v -0.00482621126 -0.00472757445 -0.0105607807
v -0.00487914375 -0.00391939105 -0.0108573087
v -0.00487099165 -0.00313653836 -0.0111178395
v -0.00475168172 -0.00236613448 -0.0113455965
v -0.00489140576 -0.00189360545 -0.0114901135
v -0.00420945741 -0.000558218338 -0.0117800279
v 0.00330781437 0.00492005962 -0.0110743232
v 0.0052988127 0.00475144806 -0.0103374049
v 0.00680101945 0.00442406763 -0.00967025659
v 0.00808114705 0.00347004114 -0.00895362986
v 0.00888919679 0.00269804959 -0.00841896956
v 0.00937579919 0.00208779524 -0.00804878786
v 0.0100006219 0.00112003902 -0.00749977637
v 0.0107080914 -0.00357960007 -0.00562960071
v 0.00946294377 -0.00660743246 -0.00504064568
v -0.00341585971 0.00114910565 -0.0120674857
v 0.00781571214 -0.00850131937 -0.00495588228
v 0.00913949587 -0.00736348139 -0.00480208622
v 0.00896438257 -0.00774332301 -0.00457931952
v 0.00933068055 -0.00742970058 -0.00436980738
v 0.00876070756 -0.00806714989 -0.00409172143
v -0.00204322917 0.00264396628 -0.0121078115
v -0.00310400076 0.00194419041 -0.0121407042
v -0.00299222651 0.00240367353 -0.0121061494
v -0.0025697928 0.00329001478 -0.011949333
v 0.0036951484 -0.0110264782 -0.00480981875
v 0.0106590928 -0.00448291646 -0.00522348311
v 0.0104749679 -0.00533221013 -0.00482617897
v 0.00958873647 -0.00700054208 -0.00417383719
v 0.0103320129 -0.00575322154 -0.0044409121
v 0.0107988544 -0.00452475823 -0.00451615626
v 0.0109198987 -0.000964347757 -0.00637478714
v 0.0111359943 -0.00169844 -0.00590399187
v 0.0112218515 -0.00247682433 -0.00541214142
v 0.0110265197 -0.00369522611 -0.00480981875
v 0.0111730279 -0.00282022993 -0.00505789328
v 0.0112258941 -0.00233669645 -0.00516083491
v 0.0111965122 -0.00107631723 -0.00564368773
v 0.00981160255 0.00203209117 -0.00777254087
v 0.0103295038 0.00149787943 -0.00726705777
v 0.0110065255 1.55147025e-05 -0.00623525839
v 0.0108614148 0.000598334869 -0.00632806826
v 0.0104384282 0.00159294502 -0.00696618367
v 0.0101816835 0.00213279684 -0.00708206702
v 0.00778897367 0.0041436898 -0.0091211261
v 0.00853296538 0.00384110077 -0.00858636783
v 0.00946107654 0.00300904696 -0.00786718392
v 0.00971608753 0.00287407896 -0.0074048187
v 0.0091862859 0.00346233805 -0.00787373591
v 0.00449531253 0.00519398742 -0.0106595719
v 0.00530080653 0.00529990919 -0.0102744514
v 0.00609695664 0.00529633955 -0.00980485113
v 0.00119118347 0.00483301828 -0.011661594
v 0.00206815573 0.00540365083 -0.0113209534
v 0.00297748915 0.00562167452 -0.0109652461
v 0.00388207159 0.0057252001 -0.0105715225
v 0.00081231015 0.00440432986 -0.0117348056
v 0.000442831329 0.00441580842 -0.0118240331
v -0.000270616672 0.00471920894 -0.0117679419
v -0.000691515037 0.00366296728 -0.0119945626
v -0.000927900986 0.0041047326 -0.0119825284
v -0.0010584871 0.00360182718 -0.0120583828
v -0.00330279453 0.00265147646 -0.0118504386
v -0.00478370389 -0.000773144085 -0.0117282631
v -0.00428950209 0.000585065605 -0.0119255035
v -0.00400476935 0.00161167503 -0.0118906873
v -0.00440786464 0.00118555983 -0.011727653
v -0.00488065952 -0.000110317598 -0.0116887869
v -0.00526819139 -0.000429858482 -0.0113818582
v -0.00520388903 -0.00438980526 -0.0106987182
v -0.00545950154 -0.00355695164 -0.0109221625
v -0.00561044393 -0.00265885632 -0.0110819147
v -0.00548956973 -0.00130114595 -0.0112491469
v -0.00568042381 -0.00217208902 -0.0110176425
v -0.00578222854 -0.00304875414 -0.0107537131
v -0.00579403026 -0.00392184297 -0.0104604583
v -0.00425813341 -0.00745552388 -0.00933262287
v -0.00482357639 -0.00680875199 -0.00959834105
v -0.00557858654 -0.00511512701 -0.0101360142
v -0.00554774387 -0.00562057535 -0.00979813147
v -0.00509548321 -0.00672959395 -0.00942216285
v -0.00495205505 -0.00719652216 -0.00905867625
v -0.00211738269 -0.00975542505 -0.00782053753
v -0.00290488558 -0.00939607496 -0.00806398367
v -0.00365501738 -0.00890409487 -0.00828939254
v -0.00457500512 -0.00791513415 -0.00859720507
v -0.00403223617 -0.00858292619 -0.00827332545
v -0.00346229655 -0.00918636362 -0.00787373591
v 0.000859561137 -0.0109047915 -0.00641553072
v -2.45843431e-05 -0.0108863658 -0.00657571245
v -0.000921454107 -0.0107293201 -0.00673718314
v 0.00357654706 -0.0109456684 -0.00536260364
v 0.00274029687 -0.0111725199 -0.0053604391
v 0.0017100025 -0.0112342768 -0.00555140788
v 0.00458316105 -0.010540757 -0.00530532288
v 0.00534330634 -0.0105264336 -0.00460124178
v 0.00601377085 -0.0100388381 -0.00491339616
v 0.00579142208 -0.0100691813 -0.00501659062
v 0.00732204042 -0.0093841812 -0.00428074922
v 0.0072650244 -0.00937128343 -0.00452843363
v 0.00713530678 -0.00933789249 -0.00476226435
v 0.00259725859 -0.00310974929 0.0120172934
v 0.0040832458 -0.0015380332 0.0118556071
v 0.00482674484 -0.000377963581 0.0116637681
v 0.00494632727 2.33072229e-05 0.0116262616
v 0.00527013824 0.000845496023 0.0114506506
v 0.00556872957 0.00166705528 0.0111924088
v 0.00566371149 0.00257561992 0.0109950457
v 0.00578891087 0.00341381649 0.0106719022
v 0.00570095623 0.00431322132 0.0104163051
v 0.00565076118 0.00513081981 0.0100397755
v 0.00544878783 0.00595593299 0.00968941299
v 0.00516134315 0.0067454647 0.00932223609
v 0.00471774855 0.00751872915 0.00898968524
v 0.0037231734 0.00887414277 0.00818265286
v 0.00311079263 0.00945333111 0.0077814868
v 0.00244920231 0.00995142322 0.00738689798
v 0.00173278331 0.010373167 0.00699934645
v 0.000969289865 0.0107140634 0.00662297417
v 7.85295891e-05 0.0109329388 0.00648640945
v -0.000743900398 0.0111017267 0.00614865538
v -0.00159011708 0.0111828367 0.00583288627
v -0.0024499397 0.0111750907 0.0055428059
v -0.00331030961 0.0110790324 0.00528248162
v -0.00416852571 0.0108948311 0.00505309944
v -0.00501036147 0.0106255672 0.00485811191
v -0.00583127871 0.0102725111 0.00469883626
v -0.00661594162 0.00984278447 0.00457782765
v -0.00736372747 0.00933669067 0.00449557129
v -0.00809176099 0.00871672548 0.0040282825
v -0.00843979052 0.0084122814 0.00433674163
v -0.00924758248 0.00749003111 0.00447478119
v -0.0100623488 0.00628416773 0.0043209236
v -0.0102384882 0.00590033992 0.00468690991
v -0.0105510507 0.00518416736 0.00483605996
v -0.0109118099 0.00421820437 0.00471179254
v -0.0110346444 0.00356175242 0.00521461569
v -0.0112201162 0.00247602096 0.00519946317
v -0.0111899823 0.00183927748 0.00574824912
v -0.01117124 0.000743802713 0.00580537328
v -0.0110130199 -9.45810458e-05 0.00614450284
v -0.0107676219 -0.000903482101 0.00650306599
v -0.0104118302 -0.00165430846 0.00696124589
v -0.00945650241 -0.00319060617 0.00762565885
v -0.00914333847 -0.00338775539 0.00810749799
v -0.0082946512 -0.00405487422 0.00873868546
v -0.0076139605 -0.00451136579 0.00912598731
v -0.00688422069 -0.00488921249 0.00950316201
v -0.00610805996 -0.00518693935 0.00986892898
v -0.00529896376 -0.00539898671 0.01021666
v -0.00446392885 -0.00552396212 0.0105436079
v -0.0036102553 -0.00556071557 0.0108467987
v -0.00274921813 -0.00550881056 0.0111221935
v -0.00188849615 -0.00536854739 0.0113675292
v -0.00103693109 -0.00514153474 0.011580028
v -0.000205616901 -0.00483024065 0.0117573226
v 0.000599097145 -0.00443762172 0.0118977758
v 0.00136897647 -0.00396716651 0.0119998339
v 0.00235367712 -0.0036279813 0.0117892439
v -0.00999557319 -0.00201639508 0.00757213377
v 0.00404382356 0.00825273081 0.00874035659
v -0.00876868002 -0.003364987 0.00851328151
v -0.0105339303 -0.000726550616 0.00701399519
v -0.0107822638 4.78094238e-05 0.00666546283
v -0.0109461397 0.000851173734 0.00633613049
v -0.0110159809 0.00251305907 0.0057464397
v -0.0107409575 0.00418944723 0.00526953708
v -0.00971109963 0.00657900969 0.00480632118
v -0.00865579143 0.00798782142 0.00468613133
v 0.00067455313 0.0105537804 0.006989341
v 0.00141219725 0.0102302408 0.00735082433
v 0.0021058155 0.00982820045 0.0077238749
v 0.0027471537 0.00935224099 0.00810423124
v 0.00332743978 0.00880833334 0.00848698024
v 0.00428732148 0.00753671904 0.00924687743
v 0.00465603202 0.00682271241 0.00961560821
v 0.00494470837 0.00606717176 0.00997138474
v 0.00515039074 0.00527829602 0.0103102122
v 0.00527224312 0.00446184543 0.010629429
v 0.00530698688 0.00363049962 0.0109244353
v 0.00525558076 0.00279002593 0.0111929957
v 0.00511805922 0.00194941661 0.0114321886
v 0.00489559646 0.00112104225 0.0116388581
v 0.00459090924 0.000308444364 0.0118116958
v 0.00420759758 -0.000475630401 0.0119482093
v 0.00374907799 -0.00122475568 0.0120471742
v 0.00322078942 -0.00192964865 0.0121074893
v 0.0026276348 -0.00258488766 0.0121285263
v 0.0018562922 -0.00296468443 0.0121211937
v -0.00916102797 -0.00264428671 0.00826061088
v -0.00963438096 -0.00202579256 0.00788872649
v -0.00797268416 0.00847262867 0.00487951062
v 0.00361290618 0.00813552942 0.00893953468
v 0.00104607957 -0.00343272726 0.012036838
v 0.00032736676 -0.00387582819 0.0119430203
v -0.000425559112 -0.0042469267 0.011812963
v -0.00120471103 -0.00454220811 0.0116482158
v -0.00200198276 -0.00475857298 0.0114504476
v -0.00280879123 -0.00489375631 0.0112216849
v -0.00346689431 -0.00488442833 0.0110124021
v -0.00421716619 -0.00486291688 0.0107526456
v -0.00520132167 -0.00480172674 0.0103756566
v -0.00596128089 -0.00460634271 0.0100503344
v -0.00653517422 -0.00433411159 0.00978028273
v -0.00718426571 -0.00401073703 0.0094521949
v -0.0086023627 -0.00306174795 0.00862494897
v -0.00988477811 -0.0012717303 0.00759752162
v -0.0102898894 -0.000518298546 0.0071841855
v -0.010525447 0.000226401886 0.00685039949
v -0.0106801806 0.000999593338 0.00653449487
v -0.0107525407 0.00179293116 0.0062396903
v -0.0107416926 0.0025980707 0.00596920442
v -0.0106477557 0.0034065481 0.00572589826
v -0.0104718028 0.00420966109 0.00551227521
v -0.0102238408 0.0048459368 0.00539810744
v -0.00988183601 0.00576605757 0.00518325757
v -0.00947425945 0.00650277098 0.00507108163
v -0.00899706466 0.00720145663 0.00499574136
v -0.00845513923 0.00785448511 0.00495783281
v -0.00724387284 0.00891310284 0.00502538095
v -0.00656530926 0.00937649384 0.00510191851
v -0.00582517518 0.00980583692 0.00520449991
v -0.00508014945 0.0101295468 0.00535123798
v -0.00428628468 0.0104055905 0.00552433528
v -0.00350189042 0.0105772552 0.00573625532
v -0.00268189985 0.0106910843 0.00597339007
v -0.00190259387 0.0107009265 0.00623869943
v -0.00109197506 0.010646147 0.0065301205
v -0.000344263331 0.0104950746 0.00683953358
v 0.000421069996 0.0102738417 0.00717214194
v 0.00179547549 0.0095898056 0.00787313828
v 0.00238995545 0.00914305889 0.00823089198
v 0.00389290477 0.00741770224 0.00932696789
v 0.00423418705 0.00674669335 0.00967492853
v 0.00460638421 0.00596132239 0.0100503344
v 0.00480176823 0.00520136317 0.0103756566
v 0.00491537469 0.00441696604 0.0106814284
v 0.00494624989 0.00361671408 0.0109644313
v 0.0048014662 0.00251987064 0.0113079411
v 0.00453310073 0.00136895756 0.0116072139
v 0.00426405964 0.000639727403 0.0117668924
v 0.00387575047 -0.000327444473 0.0119430203
v 0.00343276875 -0.00104603807 0.012036838
v 0.00297902017 -0.00156221187 0.0120761464
v 0.00235058682 -0.00235054533 0.0121125359
v 0.00479068177 -0.00479064027 -0.010611258
v -0.00318644626 0.00263740977 0.0118908067
v 0.00448359864 -0.00503263513 -0.010633431
v -0.00353775603 0.00247707327 0.0118257184
v 0.00413228886 -0.00519297163 -0.0106985192
v -0.00390933139 0.00240924319 0.0117223639
v 0.00376071351 -0.00526080171 -0.0108018737
v -0.00427578075 0.00243868788 0.0115875382
v 0.00339426415 -0.00523135702 -0.0109366994
v -0.00461218936 0.00256314238 0.0114305396
v 0.00305785554 -0.00510690252 -0.011093698
v -0.00489566905 0.00277438124 0.0112620969
v 0.00277437585 -0.00489566366 -0.0112621408
v -0.00510690791 0.00305786093 0.0110936541
v 0.00256313699 -0.00461218397 -0.0114305835
v -0.00523136241 0.00339426955 0.0109366555
v 0.00243868249 -0.00427577535 -0.0115875821
v -0.00526080711 0.0037607189 0.010801949
v 0.002409357 -0.003909326 -0.0117222886
v -0.00519297702 0.00413229426 0.0106984754
v 0.00247706788 -0.00353775064 -0.0118257623
v -0.00503264053 0.00448360403 0.0106335063
v 0.00263740437 -0.00318644086 -0.0118907313
v -0.00479064567 0.00479068716 0.0106113334
v 0.00287939923 -0.00287935773 -0.0119129043
v -0.00448356254 0.00503256281 0.0106335063
v 0.00318648236 -0.00263748209 -0.0118907313
v -0.00413225276 0.00519289931 0.0106984754
v 0.00353779214 -0.00247714559 -0.0118257623
v -0.00376079662 0.00526072939 0.010801949
v 0.00390924828 -0.00240931551 -0.0117222886
v -0.00339422805 0.00523140391 0.0109366555
v 0.00427581685 -0.00243864099 -0.0115875821
v -0.00305781944 0.0051068302 0.0110936541
v 0.00461222546 -0.0025632147 -0.0114305835
v -0.00277433974 0.00489571055 0.0112620969
v 0.00489570515 -0.00277433435 -0.0112621408
v -0.00256322009 0.00461223086 0.0114305396
v 0.00510682481 -0.00305781404 -0.011093698
v -0.00243864639 0.00427582224 0.0115875382
v 0.00523139851 -0.00339422266 -0.0109366994
v -0.0024093209 0.00390925368 0.0117223639
v 0.005260724 -0.00376079122 -0.0108018737
v -0.00247715099 0.00353779753 0.0118257184
v 0.00519289391 -0.00413224737 -0.0106985192
v -0.00263748748 0.00318648775 0.0118908067
v 0.00503255742 -0.00448355714 -0.010633431
v -0.00287936313 0.00287940462 0.0119129796
v -0.003835064 0.00383498629 0.0112620969
v 0.0038349809 -0.00383505861 -0.0112621408
f 2 541 540
f 539 538 1
f 1 538 12
f 12 537 536
f 3 13 2
f 2 13 14
f 2 14 541
f 4 546 3
f 512 511 5
f 5 511 17
f 5 17 15
f 18 530 529
f 18 529 528
f 18 532 531
f 18 531 530
f 536 535 12
f 12 535 534
f 12 534 18
f 18 534 533
f 18 533 532
f 20 23 21
f 20 21 19
f 15 22 16
f 16 22 20
f 20 22 23
f 6 514 24
f 8 25 7
f 7 25 6
f 6 25 26
f 6 26 514
f 528 527 18
f 18 527 27
f 18 27 11
f 11 27 10
f 15 17 508
f 15 508 507
f 4 548 547
f 4 547 546
f 19 551 20
f 20 551 28
f 20 28 4
f 4 28 548
f 80 83 338
f 80 338 84
f 84 344 85
f 85 86 87
f 87 88 89
f 89 90 355
f 74 110 376
f 74 376 111
f 112 111 113
f 113 114 115
f 115 116 117
f 117 118 393
f 79 83 80
f 73 110 74
f 81 79 80
f 75 73 74
f 82 81 80
f 82 80 137
f 77 75 74
f 77 74 138
f 146 81 147
f 147 81 82
f 82 137 139
f 76 75 77
f 140 77 138
f 140 138 141
f 147 82 148
f 148 82 139
f 148 139 149
f 80 84 152
f 80 152 137
f 137 152 153
f 137 153 139
f 139 153 154
f 139 154 149
f 149 154 155
f 149 155 150
f 150 155 69
f 150 69 151
f 151 69 68
f 151 68 70
f 84 85 152
f 154 156 155
f 155 156 67
f 155 67 411
f 155 411 69
f 85 87 157
f 85 157 152
f 152 157 158
f 152 158 153
f 153 158 159
f 153 159 154
f 154 159 160
f 154 160 156
f 156 160 66
f 156 66 414
f 156 414 67
f 87 89 157
f 159 161 160
f 160 161 65
f 160 65 416
f 160 416 66
f 355 78 89
f 89 78 162
f 89 162 157
f 157 162 163
f 157 163 158
f 158 163 159
f 159 163 64
f 159 64 161
f 161 64 418
f 161 418 65
f 64 419 418
f 163 162 63
f 163 63 64
f 64 63 420
f 64 420 419
f 63 62 420
f 78 167 162
f 162 167 144
f 162 144 63
f 63 144 164
f 63 164 62
f 168 167 78
f 168 78 169
f 169 78 92
f 92 78 91
f 91 78 165
f 165 78 355
f 61 166 167
f 167 166 144
f 58 60 61
f 58 61 170
f 170 61 167
f 170 167 168
f 95 169 92
f 95 92 94
f 94 92 93
f 93 92 91
f 59 60 58
f 171 170 168
f 171 168 172
f 172 168 169
f 172 169 97
f 97 169 95
f 97 95 96
f 96 95 298
f 298 95 94
f 57 59 58
f 55 57 58
f 55 58 173
f 173 58 170
f 173 170 171
f 99 172 97
f 99 97 98
f 98 97 296
f 296 97 96
f 56 57 55
f 174 173 171
f 174 171 175
f 175 171 172
f 175 172 102
f 102 172 99
f 102 99 101
f 101 99 100
f 100 99 98
f 54 56 55
f 52 54 55
f 52 55 176
f 176 55 173
f 176 173 174
f 105 175 102
f 105 102 104
f 104 102 103
f 103 102 101
f 53 54 52
f 178 176 174
f 178 174 179
f 179 174 175
f 179 175 107
f 107 175 105
f 107 105 106
f 106 105 104
f 50 53 52
f 107 106 108
f 51 50 52
f 51 52 177
f 177 52 176
f 177 176 178
f 77 179 107
f 77 107 109
f 109 107 108
f 437 50 143
f 143 50 51
f 77 109 293
f 293 109 108
f 293 76 77
f 179 77 140
f 179 140 178
f 178 140 141
f 178 141 177
f 177 141 142
f 177 142 51
f 51 142 143
f 143 49 437
f 111 112 74
f 74 112 180
f 74 180 138
f 138 180 181
f 138 181 141
f 141 181 182
f 141 182 142
f 142 182 183
f 142 183 143
f 143 183 48
f 143 48 49
f 49 48 47
f 182 181 184
f 182 184 183
f 183 184 46
f 183 46 440
f 183 440 48
f 113 115 185
f 113 185 112
f 112 185 186
f 112 186 180
f 180 186 187
f 180 187 181
f 181 187 188
f 181 188 184
f 184 188 45
f 184 45 443
f 184 443 46
f 115 117 185
f 187 189 188
f 188 189 44
f 188 44 445
f 188 445 45
f 393 72 117
f 117 72 190
f 117 190 185
f 185 190 191
f 185 191 186
f 186 191 187
f 187 191 43
f 187 43 189
f 189 43 447
f 189 447 44
f 43 448 447
f 191 190 42
f 191 42 43
f 43 42 449
f 43 449 448
f 42 41 449
f 72 194 190
f 190 194 145
f 190 145 42
f 42 145 192
f 42 192 41
f 195 194 72
f 195 72 196
f 196 72 120
f 120 72 119
f 119 72 193
f 193 72 393
f 40 451 194
f 194 451 145
f 37 39 40
f 37 40 197
f 197 40 194
f 197 194 195
f 122 196 120
f 122 120 121
f 121 120 292
f 292 120 119
f 38 39 37
f 198 197 195
f 198 195 199
f 199 195 196
f 199 196 124
f 124 196 122
f 124 122 123
f 123 122 290
f 290 122 121
f 36 38 37
f 34 36 37
f 34 37 200
f 200 37 197
f 200 197 198
f 126 199 124
f 126 124 125
f 125 124 288
f 288 124 123
f 35 36 34
f 201 200 198
f 201 198 202
f 202 198 199
f 202 199 129
f 129 199 126
f 129 126 128
f 128 126 127
f 127 126 125
f 33 35 34
f 31 33 34
f 31 34 203
f 203 34 200
f 203 200 201
f 132 202 129
f 132 129 131
f 131 129 130
f 130 129 128
f 32 33 31
f 206 203 201
f 206 201 207
f 207 201 202
f 207 202 134
f 134 202 132
f 134 132 133
f 133 132 286
f 286 132 131
f 29 32 31
f 30 29 31
f 30 31 205
f 205 31 203
f 205 203 206
f 71 207 134
f 71 134 136
f 136 134 135
f 135 134 133
f 466 29 204
f 204 29 30
f 71 136 285
f 285 136 135
f 285 146 71
f 71 146 147
f 71 147 207
f 207 147 206
f 206 147 148
f 206 148 205
f 205 148 149
f 205 149 30
f 30 149 150
f 30 150 204
f 204 150 151
f 204 151 466
f 208 307 308
f 208 308 309
f 208 305 306
f 208 306 307
f 309 310 208
f 208 310 311
f 208 311 211
f 211 311 313
f 211 313 214
f 214 313 215
f 213 216 208
f 208 216 304
f 208 304 305
f 223 221 222
f 223 217 224
f 225 319 217
f 217 319 320
f 217 320 218
f 225 318 319
f 219 220 227
f 219 227 212
f 228 229 225
f 225 229 317
f 314 315 226
f 226 315 228
f 219 230 301
f 219 301 220
f 230 231 232
f 222 233 230
f 230 233 234
f 230 234 231
f 222 235 233
f 222 221 235
f 236 222 230
f 236 230 237
f 237 230 219
f 237 219 238
f 238 219 212
f 238 212 213
f 238 213 239
f 239 213 208
f 239 208 240
f 240 208 241
f 241 208 211
f 241 211 214
f 241 214 253
f 253 214 242
f 242 214 210
f 242 210 209
f 242 209 226
f 242 226 255
f 255 226 243
f 243 226 228
f 243 228 225
f 243 225 244
f 244 225 245
f 245 225 217
f 245 217 246
f 246 217 223
f 246 223 222
f 246 222 236
f 247 240 248
f 248 240 249
f 249 240 241
f 249 241 253
f 250 246 251
f 251 246 252
f 252 246 236
f 253 242 254
f 254 242 255
f 255 243 256
f 256 243 244
f 256 244 245
f 256 245 250
f 250 245 246
f 252 236 237
f 252 237 257
f 257 237 238
f 257 238 239
f 257 239 247
f 247 239 240
f 258 252 259
f 259 252 260
f 260 252 257
f 260 257 261
f 261 257 247
f 261 247 248
f 261 248 249
f 261 249 262
f 262 249 253
f 262 253 263
f 263 253 254
f 263 254 255
f 263 255 264
f 264 255 256
f 264 256 265
f 265 256 250
f 265 250 258
f 258 250 251
f 258 251 252
f 265 266 267
f 265 267 268
f 265 268 264
f 264 268 269
f 259 270 258
f 258 270 271
f 258 271 272
f 258 272 265
f 265 272 266
f 262 273 274
f 262 274 261
f 261 274 275
f 261 275 276
f 261 276 277
f 261 277 260
f 260 277 278
f 260 278 279
f 260 279 259
f 259 279 270
f 269 280 264
f 264 280 281
f 264 281 263
f 263 281 282
f 263 282 283
f 263 283 262
f 262 283 284
f 262 284 273
f 20 271 270
f 20 270 16
f 16 270 15
f 15 270 279
f 15 279 5
f 5 279 278
f 5 278 277
f 5 277 6
f 6 277 276
f 6 276 7
f 7 276 8
f 8 276 9
f 9 276 275
f 9 275 10
f 10 275 274
f 10 274 11
f 11 274 18
f 18 274 273
f 18 273 284
f 18 284 283
f 18 283 282
f 18 282 12
f 12 282 281
f 12 281 1
f 1 281 280
f 1 280 269
f 1 269 2
f 2 269 268
f 2 268 3
f 3 268 267
f 3 267 4
f 4 267 266
f 4 266 272
f 4 272 20
f 20 272 271
f 285 135 406
f 135 133 286
f 130 128 400
f 128 127 401
f 127 125 287
f 288 123 289
f 290 121 291
f 293 108 332
f 108 106 295
f 101 100 362
f 100 98 363
f 296 96 297
f 298 94 299
f 94 93 300
f 93 91 300
f 302 212 227
f 303 213 212
f 303 216 213
f 314 226 209
f 316 229 228
f 224 217 218
f 321 223 224
f 321 221 223
f 235 221 322
f 215 313 323
f 324 235 322
f 324 322 325
f 214 215 329
f 329 215 323
f 329 323 330
f 328 81 146
f 221 321 322
f 322 321 334
f 322 334 325
f 325 334 335
f 325 335 326
f 326 335 327
f 327 336 328
f 328 336 81
f 337 79 81
f 335 337 327
f 327 337 336
f 336 337 81
f 337 83 79
f 224 339 321
f 321 339 340
f 321 340 334
f 334 340 341
f 334 341 335
f 335 341 338
f 335 338 337
f 337 338 83
f 342 84 338
f 341 342 338
f 343 344 84
f 224 218 339
f 341 343 342
f 342 343 84
f 218 320 339
f 341 344 343
f 345 86 85
f 320 346 339
f 339 346 347
f 339 347 340
f 340 347 348
f 340 348 341
f 341 348 345
f 341 345 344
f 344 345 85
f 348 87 86
f 320 319 346
f 345 348 86
f 349 88 87
f 319 318 346
f 347 350 348
f 348 350 349
f 348 349 87
f 350 89 88
f 225 317 318
f 318 317 346
f 349 350 88
f 351 90 89
f 317 352 346
f 346 352 353
f 346 353 347
f 347 353 354
f 347 354 350
f 350 354 351
f 350 351 89
f 229 316 317
f 317 316 352
f 354 355 351
f 351 355 90
f 91 165 356
f 356 165 355
f 354 353 356
f 354 356 355
f 228 315 316
f 353 300 356
f 356 300 91
f 315 357 316
f 316 357 358
f 316 358 352
f 352 358 359
f 352 359 353
f 353 359 300
f 315 314 357
f 359 299 300
f 300 299 94
f 359 298 299
f 359 297 298
f 298 297 96
f 209 360 314
f 314 360 361
f 314 361 357
f 357 361 362
f 357 362 358
f 358 362 363
f 358 363 359
f 359 363 296
f 359 296 297
f 296 363 98
f 363 362 100
f 360 295 361
f 362 361 101
f 106 104 295
f 366 295 360
f 365 360 364
f 364 360 210
f 210 360 209
f 295 104 103
f 295 103 361
f 361 103 101
f 368 366 360
f 368 360 365
f 365 364 210
f 294 108 295
f 294 295 366
f 369 368 365
f 369 365 367
f 367 365 210
f 332 108 294
f 294 366 368
f 369 367 214
f 214 367 210
f 332 294 331
f 331 294 368
f 331 368 330
f 330 368 369
f 330 369 329
f 329 369 214
f 75 76 370
f 323 313 371
f 323 371 330
f 330 371 372
f 330 372 331
f 331 372 373
f 331 373 332
f 332 373 370
f 332 370 293
f 293 370 76
f 311 312 313
f 313 312 371
f 370 373 75
f 374 73 75
f 372 371 375
f 372 375 373
f 373 375 374
f 373 374 75
f 311 310 312
f 375 110 374
f 374 110 73
f 310 309 377
f 310 377 312
f 312 377 378
f 312 378 371
f 371 378 379
f 371 379 375
f 375 379 376
f 375 376 110
f 380 111 376
f 309 308 377
f 379 380 376
f 308 307 377
f 379 381 380
f 380 381 111
f 382 113 111
f 307 306 377
f 379 382 381
f 381 382 111
f 383 114 113
f 306 305 384
f 306 384 377
f 377 384 385
f 377 385 378
f 378 385 386
f 378 386 379
f 379 386 383
f 379 383 382
f 382 383 113
f 386 115 114
f 305 304 384
f 383 386 114
f 387 116 115
f 385 388 386
f 386 388 387
f 386 387 115
f 388 117 116
f 216 303 304
f 304 303 384
f 387 388 116
f 389 118 117
f 303 390 384
f 384 390 391
f 384 391 385
f 385 391 392
f 385 392 388
f 388 392 389
f 388 389 117
f 392 393 389
f 389 393 118
f 394 193 393
f 392 394 393
f 292 119 395
f 212 302 303
f 303 302 390
f 392 395 394
f 394 395 119
f 394 119 193
f 302 396 390
f 390 396 397
f 390 397 391
f 391 397 398
f 391 398 392
f 392 398 292
f 392 292 395
f 302 227 396
f 398 291 292
f 292 291 121
f 227 220 396
f 398 290 291
f 220 301 396
f 398 289 290
f 290 289 123
f 301 399 396
f 396 399 400
f 396 400 397
f 397 400 401
f 397 401 398
f 398 401 288
f 398 288 289
f 230 402 301
f 301 402 399
f 401 287 288
f 288 287 125
f 287 401 127
f 401 400 128
f 402 403 399
f 399 403 333
f 399 333 400
f 400 333 130
f 404 403 402
f 404 402 405
f 232 402 230
f 403 286 131
f 403 131 333
f 333 131 130
f 234 405 402
f 234 402 231
f 231 402 232
f 406 135 286
f 406 286 407
f 407 286 403
f 407 403 408
f 408 403 404
f 404 405 234
f 408 404 324
f 324 404 234
f 324 234 233
f 146 285 328
f 328 285 327
f 327 285 406
f 327 406 326
f 326 406 407
f 326 407 325
f 325 407 408
f 325 408 324
f 235 324 233
f 70 68 410
f 410 68 69
f 410 69 411
f 412 411 413
f 411 67 413
f 413 67 414
f 414 66 415
f 415 66 416
f 416 65 417
f 417 65 418
f 420 62 421
f 421 62 144
f 62 164 144
f 144 166 422
f 422 166 61
f 422 61 423
f 423 61 60
f 423 60 424
f 424 60 425
f 425 60 59
f 425 59 426
f 426 59 427
f 427 59 57
f 427 57 428
f 428 57 429
f 429 57 56
f 429 56 430
f 430 56 431
f 431 56 54
f 431 54 432
f 432 54 433
f 433 54 53
f 433 53 434
f 434 53 435
f 435 53 50
f 435 50 436
f 436 50 437
f 437 49 438
f 438 49 439
f 439 49 47
f 439 47 48
f 439 48 440
f 441 440 46
f 441 46 442
f 442 46 443
f 443 45 444
f 444 45 445
f 445 44 446
f 446 44 447
f 449 41 450
f 450 41 145
f 41 192 145
f 452 451 40
f 452 40 39
f 452 39 453
f 453 39 454
f 454 39 38
f 454 38 455
f 455 38 456
f 456 38 36
f 456 36 457
f 457 36 458
f 458 36 35
f 458 35 459
f 459 35 460
f 460 35 33
f 460 33 461
f 461 33 462
f 462 33 32
f 462 32 463
f 463 32 464
f 464 32 29
f 464 29 465
f 465 29 466
f 409 466 151
f 409 151 70
f 466 409 465
f 451 452 467
f 451 467 145
f 145 467 450
f 437 438 436
f 422 468 144
f 144 468 421
f 453 469 452
f 450 467 470
f 450 470 449
f 449 470 471
f 449 471 448
f 448 471 472
f 448 472 447
f 447 472 446
f 446 473 445
f 445 473 444
f 444 474 443
f 443 474 442
f 441 475 440
f 440 475 439
f 439 476 438
f 427 477 426
f 426 477 478
f 426 478 425
f 425 478 479
f 425 479 424
f 424 479 480
f 424 480 423
f 423 480 481
f 423 481 422
f 422 481 468
f 468 482 421
f 421 482 483
f 421 483 420
f 420 483 484
f 420 484 419
f 419 484 485
f 419 485 418
f 418 485 486
f 418 486 417
f 417 486 487
f 417 487 416
f 416 487 488
f 416 488 415
f 415 488 489
f 415 489 414
f 414 489 490
f 414 490 413
f 413 490 491
f 413 491 412
f 412 491 492
f 412 492 411
f 411 492 493
f 411 493 410
f 410 493 494
f 410 494 70
f 70 494 495
f 70 495 409
f 495 496 409
f 409 496 465
f 469 497 452
f 452 497 498
f 452 498 467
f 476 499 438
f 438 499 436
f 481 500 468
f 468 500 482
f 496 501 465
f 465 501 502
f 465 502 464
f 464 502 503
f 464 503 463
f 463 503 504
f 463 504 462
f 462 504 505
f 462 505 461
f 461 505 506
f 461 506 460
f 460 506 507
f 460 507 459
f 459 507 508
f 459 508 458
f 458 508 509
f 458 509 457
f 457 509 510
f 457 510 456
f 456 510 511
f 456 511 455
f 455 511 512
f 455 512 454
f 454 512 5
f 454 5 453
f 453 5 513
f 453 513 469
f 469 513 497
f 498 514 467
f 467 514 515
f 467 515 470
f 470 515 516
f 470 516 471
f 471 516 517
f 471 517 472
f 472 517 518
f 472 518 446
f 446 518 519
f 446 519 473
f 473 519 520
f 473 520 444
f 444 520 521
f 444 521 474
f 474 521 522
f 474 522 442
f 442 522 523
f 442 523 441
f 441 523 524
f 441 524 475
f 475 524 525
f 475 525 439
f 439 525 526
f 439 526 476
f 476 526 499
f 499 527 436
f 436 527 528
f 436 528 435
f 435 528 529
f 435 529 434
f 434 529 530
f 434 530 433
f 433 530 531
f 433 531 432
f 432 531 532
f 432 532 431
f 431 532 533
f 431 533 430
f 430 533 534
f 430 534 429
f 429 534 535
f 429 535 428
f 428 535 536
f 428 536 427
f 427 536 537
f 427 537 477
f 477 537 12
f 477 12 478
f 478 12 538
f 478 538 479
f 479 538 539
f 479 539 480
f 480 539 1
f 480 1 481
f 481 1 500
f 500 540 482
f 482 540 541
f 482 541 483
f 483 541 542
f 483 542 484
f 484 542 543
f 484 543 485
f 485 543 544
f 485 544 486
f 486 544 545
f 486 545 487
f 487 545 546
f 487 546 488
f 488 546 489
f 489 546 547
f 489 547 490
f 490 547 548
f 490 548 491
f 491 548 549
f 491 549 492
f 492 549 550
f 492 550 493
f 493 550 551
f 493 551 494
f 494 551 552
f 494 552 495
f 495 552 496
f 552 19 496
f 496 19 21
f 496 21 501
f 501 21 23
f 501 23 502
f 502 23 503
f 503 23 22
f 503 22 504
f 504 22 505
f 505 22 15
f 505 15 506
f 506 15 507
f 509 508 17
f 509 17 510
f 510 17 511
f 513 5 6
f 513 6 497
f 497 6 24
f 497 24 498
f 498 24 514
f 514 26 515
f 515 26 25
f 515 25 516
f 516 25 517
f 517 25 8
f 517 8 518
f 518 8 519
f 519 8 520
f 520 8 9
f 520 9 521
f 521 9 10
f 521 10 522
f 523 522 10
f 523 10 524
f 524 10 525
f 525 10 27
f 525 27 526
f 526 27 499
f 499 27 527
f 1 2 500
f 500 2 540
f 541 14 542
f 542 14 13
f 542 13 543
f 543 13 544
f 544 13 3
f 544 3 545
f 545 3 546
f 549 548 28
f 549 28 550
f 550 28 551
f 552 551 19
f 553 554 555
f 555 554 556
f 555 556 557
f 557 556 558
f 557 558 559
f 559 558 560
f 559 560 561
f 561 560 562
f 561 562 563
f 563 562 564
f 563 564 565
f 565 564 566
f 565 566 567
f 567 566 568
f 567 568 569
f 569 568 570
f 569 570 571
f 571 570 572
f 571 572 573
f 573 572 574
f 573 574 575
f 575 574 576
f 575 576 577
f 577 576 578
f 577 578 579
f 579 578 580
f 579 580 581
f 581 580 582
f 581 582 583
f 583 582 584
f 583 584 585
f 585 584 586
f 585 586 587
f 587 586 588
f 587 588 589
f 589 588 590
f 589 590 591
f 591 590 592
f 591 592 593
f 593 592 594
f 593 594 595
f 595 594 596
f 595 596 597
f 597 596 598
f 597 598 599
f 599 598 600
f 599 600 553
f 553 600 554
f 580 578 601
f 601 578 576
f 601 576 574
f 586 584 601
f 601 584 582
f 601 582 580
f 592 590 601
f 601 590 588
f 601 588 586
f 598 596 601
f 601 596 594
f 601 594 592
f 556 554 601
f 601 554 600
f 601 600 598
f 562 560 601
f 601 560 558
f 601 558 556
f 568 566 601
f 601 566 564
f 601 564 562
f 574 572 601
f 601 572 570
f 601 570 568
f 573 575 602
f 602 575 577
f 602 577 579
f 567 569 602
f 602 569 571
f 602 571 573
f 561 563 602
f 602 563 565
f 602 565 567
f 555 557 602
f 602 557 559
f 602 559 561
f 597 599 602
f 602 599 553
f 602 553 555
f 591 593 602
f 602 593 595
f 602 595 597
f 585 587 602
f 602 587 589
f 602 589 591
f 579 581 602
f 602 581 583
f 602 583 585
