v 0.00394596597 0.00954286319 -0.00178184154
v 0.00379741412 0.00935983702 -0.00286871916
v 0.00387089914 0.00908785721 -0.00403626262
v 0.00951244694 0.00434214641 -0.000649470099
v 0.00948214378 0.00387881161 -0.00199578258
v 0.00423886375 0.00978356213 -0.000905074323
v 0.00817744667 0.00426733941 -0.00495872149
v 0.00778878372 0.00434987872 -0.00508663439
v 0.00893239253 0.00373487756 -0.00344887468
v 0.00533712547 0.00656442969 -0.0058208444
v 0.0106492523 0.00109024239 -0.00632325514
v 0.0123539947 0.00118862528 -0.000736800594
v 0.00926725242 0.00492992929 0.000354865851
v 0.00888285744 0.00541043247 0.000854050406
v 0.00495468397 0.00918387756 0.000416239505
v 0.00589788597 0.00469379752 -0.00987908625
v 0.00648282001 0.00539256011 -0.00590232702
v 0.00651443642 0.004119924 -0.00974688314
v 0.00858105792 0.00240070215 -0.00867067807
v 0.00738192035 0.00335660254 -0.00942441235
v 0.00434902752 0.00626124532 -0.00982146871
v 0.00820527253 0.00638977707 0.00158821126
v 0.00776100796 0.00653367369 0.00159290052
v 0.00726935802 0.00729312921 0.00172402056
v 0.00556636322 0.00884179679 0.00107906286
v 0.00520663002 0.000777793479 -0.00993921472
v 0.00637268748 0.0027843288 -0.0103481876
v 0.00773592967 0.00164848348 -0.00963679002
v 0.00785748024 -0.0011849971 -0.00798871705
v 0.00901819861 0.00070568888 -0.00857819384
v 0.0101628606 -2.4247469e-06 -0.00721851822
v 0.00991161933 -0.00220536298 -0.00491940581
v 0.01111705 -0.000443038684 -0.00562015848
v 0.0118376535 -0.000596144809 -0.00385608515
v 0.0119778833 -0.000797757296 -0.00264393351
v 0.0124518153 9.06527685e-05 0.000204495642
v 0.0123992264 0.000432056766 0.00109194421
v 0.0122744058 0.000834896121 0.00194539928
v 0.0104120514 -0.000120649683 0.00397229552
v 0.0097223054 0.00101068483 0.00535138243
v 0.00879984695 0.00228019666 0.00644277681
v 0.00905937496 0.00523819554 0.00655130448
v 0.00787650955 0.00650007397 0.00693249608
v 0.00654933375 0.00814474612 0.00679953605
v 0.00393838287 0.00536437018 0.00806062448
v 0.0031924226 0.00825529858 0.00694699849
v 0.00516231159 0.00939149175 0.00637184649
v 0.00380784324 0.0104839972 0.0055686663
v 0.000643597384 0.010168381 0.0048166752
v 0.0025541042 0.011368726 0.00443129099
v 0.00145097049 0.012009747 0.00300777341
v -0.00126871323 0.0110945387 0.00162879523
v 0.000549187776 0.012377759 0.00136172592
v -0.000109902015 0.0124559672 -0.000432011893
v -0.000650580536 0.0121704417 -0.00149586257
v -0.00240670998 0.00994401305 -0.00433251642
v -0.00286345653 0.00889534017 -0.00531308425
v -1.38807552e-05 0.00990096249 -0.00745680158
v 0.000720198537 0.0087378659 -0.00875474552
v 0.00168084164 0.00744641415 -0.00975434371
v 0.00320862969 0.00589911277 -0.0104966161
v 0.00282150204 0.00599937122 -0.0104150813
v 0.00409801164 0.00536195922 -0.0106565816
v -0.0071435446 -0.00757181109 -0.00686380397
v 0.0050109712 -0.00838431666 0.00140052263
v -0.0028974105 -0.00624675629 0.0103856466
v -0.000490273334 -0.00555530025 0.00976996937
v -0.0036659043 -0.00540395971 0.0106185121
v -0.00450918136 -0.00453456238 0.0106950924
v -0.00475545753 -0.0039784866 0.0106727403
v -0.0124576089 5.48237561e-05 0.000290380481
v -0.00928387686 -0.00528406061 -0.00641644647
v -0.00853685566 -0.00284951466 -0.0067537859
v -0.0084727596 -0.00619698993 -0.00672779984
v -0.00576520585 -0.00384632209 -0.0079495508
v -0.00996502668 -0.00469760482 -0.00601015418
v -0.0111451164 -0.00248178708 -0.0046618586
v -0.0112981482 -0.00266160465 -0.00453298759
v -0.0117933959 -0.00136438826 -0.00329570784
v -0.0119629839 -0.00154350215 -0.0031282664
v -0.0121827325 -0.000435785999 -0.00170776619
v -0.0123553432 -0.000624210909 -0.00149595856
v -0.0122954925 0.000264662404 3.23293431e-05
v -0.0122141329 0.00057524955 0.00167665181
v -0.00979670188 0.00344959364 0.00137021111
v -0.0118111563 0.000761562614 0.00349721089
v -0.00931971293 0.00354963679 0.00323048148
v -0.0114699423 0.000506592158 0.00488140207
v -0.0111443148 0.000662865744 0.00526382244
v -0.00858365508 0.00336692102 0.00499847852
v -0.0106052992 0.000187795911 0.00656713784
v -0.0102432224 0.000282683465 0.00688245059
v -0.00762176908 0.00290554679 0.00660049368
v -0.00952843154 -0.000409680422 0.00804031122
v -0.00914544727 -0.000363578803 0.0082839725
v -0.00647133209 0.00218616259 0.00796940272
v -0.00828828174 -0.0012585742 0.00923458467
v -0.00790225584 -0.00124612453 0.00940319554
v -0.00518353991 0.00123896009 0.00904460202
v -0.00676935014 -0.00218834825 0.0101062055
v -0.00380793395 0.000107281701 0.00978079176
v -0.00602849996 -0.00310546362 0.0104691933
v -0.00230154588 -0.00693715915 0.010092441
v -0.000920107566 -0.008709194 0.0088722264
v 0.00207315523 -0.00710887997 0.00772811753
v 0.000153276781 -0.00987359018 0.00737310317
v -5.65428458e-05 -0.0100716763 0.00733743687
v 0.000635702636 -0.010827369 0.00582593795
v 0.000405996325 -0.011044637 0.00575583942
v 0.000842957655 -0.0115635264 0.00410916773
v 0.000581846329 -0.011787265 0.00400020405
v 0.000563129952 -0.0122239508 0.00160417071
v 0.00324337719 -0.00996078559 0.000246197286
v 3.67944768e-05 -0.0124713555 0.000323412428
v 9.28020004e-05 -0.0123393937 -0.000211375642
v 0.00267882191 -0.0100107705 -0.00159186555
v -0.000641834285 -0.0123720375 -0.00147157173
v -0.000638665647 -0.0121715205 -0.00194898969
v 0.00186609111 -0.00977382191 -0.00332020243
v -0.00156161515 -0.0119793668 -0.00311203738
v -0.00159342081 -0.0117242593 -0.00351817366
v 0.000838514096 -0.00926100048 -0.00486453906
v -0.00273228304 -0.0110176724 -0.00485286988
v -0.000357888288 -0.00848919713 -0.0061625471
v -0.00394541936 -0.0104005471 -0.0056394569
v -0.00400537195 -0.0100818514 -0.00589471003
v -0.00167781311 -0.00749474954 -0.00715652702
v -0.00518340296 -0.0091343635 -0.00651176021
v -0.00306081388 -0.00631797523 -0.0078040769
v -0.00620271593 -0.00826852674 -0.00682348778
v -0.00637902757 -0.00165993125 -0.00778801488
v 0.000826315787 -0.00324143896 0.00963938132
v -0.00404964406 -0.000610319152 -0.0087225348
v -0.000728839226 -0.00141389043 0.00998368479
v 0.00197662757 -0.00078586857 0.00939828615
v 0.00337792372 0.00130447722 0.00889574842
v -0.00324461994 0.00985995643 -0.0022695425
v -0.00164825077 0.000431453814 -0.00948428347
v 0.0038981693 0.00458103123 -0.0106696096
v -0.00836343278 0.000977253309 -0.00576222654
v -0.00624643403 0.00213612577 -0.00701951394
v -0.00401674151 0.00323325159 -0.0081403666
v -0.000407085702 0.0041554851 -0.00962996138
v -0.00149799184 0.00551298167 -0.00880526851
v -0.0093873401 0.00301107535 -0.00263073659
v -0.00754415986 0.00437892051 -0.00409437154
v -0.00556714992 0.00564104676 -0.00548065618
v -0.00238818425 0.00677538738 -0.00765219362
v -0.00304565752 0.00788170892 -0.00621962496
v -0.00745009077 0.00597369293 -0.000669021094
v -0.00603159558 0.00689911556 -0.00286894733
v -0.00327325842 0.00959215565 -0.00319064334
v -0.00753222935 0.00590159274 0.000513370065
v -0.00381893755 0.00945574797 0.000339263338
v -0.00636381627 0.00690234271 0.00166682276
v -0.00500177724 0.00769035587 0.00276876745
v -0.00350748978 0.00834136408 0.00379951874
v -0.005893465 0.00568798423 0.00507614188
v -0.00127204031 0.00854933863 0.00542229708
v -0.00245147217 0.00646486131 0.00671228339
v -0.00356474708 0.00426337828 0.00787192307
v 0.00131422432 0.00667127323 0.00760844188
v 0.000256178414 0.00436277277 0.00858825199
v 0.00529238996 0.00445433996 0.00802397685
v 0.00199604671 0.00268690913 0.00896516062
v -0.000787448796 0.00197687902 0.00939818062
v -0.00184277803 -0.00174683245 0.0102345998
v 0.00362900613 -0.00470483079 0.00780899592
v 0.00488462867 -0.00235282453 0.00784380335
v 0.00604724127 4.58464434e-05 0.00772793597
v 0.00682550911 0.00259178204 0.00758654674
v 0.00406538691 -0.00805665165 0.00476219557
v 0.00568768001 -0.00589269642 0.00507744342
v 0.00718104412 -0.00362443563 0.00530566071
v 0.00855148198 -0.00127422575 0.00541882673
v 0.00691244894 -0.00637548538 0.00166956001
v 0.00770374507 -0.00501597016 0.00277459658
v 0.0102952442 -0.00163731181 0.00268728985
v 0.0121279618 -0.000468178637 0.000235308166
v 0.0124471251 -6.20570892e-05 -0.000345561733
v 0.00046301525 -0.0122653929 0.00215068079
v 0.0123409097 -0.000387617659 -0.00168332838
v 0.012534192 -3.92863166e-05 -0.000804687401
v 0.00981193279 -0.00347523222 -0.00117805187
v 0.00725042403 -0.00603897101 -0.00195265969
v 0.00549886681 -0.00779082992 -0.00138579578
v 0.00826528589 -0.00413292918 -0.00432702317
v 0.00564041306 -0.00556671489 -0.00548182133
v 0.00388997754 -0.00731822081 -0.00491545805
v 0.00623223912 -0.00310746337 -0.00745904364
v 0.00323279689 -0.00401580365 -0.0081411032
v 0.00148147651 -0.00576934464 -0.00757447145
v 0.00359246082 -0.00112651604 -0.00948337851
v -0.000587477395 -0.00401006742 -0.00868329471
v 0.00347173851 0.00212722151 -0.0103376844
v 0.000793124932 0.00148579235 -0.0100635095
v 0.000771538285 -0.00198200636 -0.00936615919
v -0.00199920011 -0.00269027922 -0.00897696821
v -0.00476636345 -0.00487922277 -0.0080575309
v -0.00382523974 -0.00942239385 0.00252914401
v -0.00402475375 -0.00958813059 0.00145627961
v -0.00449103368 -0.00940900997 0.000290035847
v -0.00373500998 -0.00893211256 0.00344939162
v -0.00816188291 -0.00429778703 0.00497043689
v -0.000818880995 -0.0112566874 0.00528253527
v -0.00873069735 -0.00536393355 -0.00097310948
v -0.00863901467 -0.00394277042 0.00422369059
v -0.0041905625 -0.00819776674 0.00482227015
v -0.00743904259 -0.00705396312 -0.0016975518
v -0.0106928561 -0.00452320116 -0.00444746557
v -0.00919612463 -0.00636049189 -0.00550195066
v -0.00936328143 -0.00416579738 0.000779009354
v -0.0123462948 -0.00178401948 -0.00112790543
v -0.0112249624 -0.000747672167 0.00553236457
v -0.00742255599 -0.00484275921 0.0056307944
v -0.00673537368 -0.00538676739 0.00587593462
v -0.00640804488 -0.00563934779 0.00596792807
v -0.00549764425 -0.00875502041 -0.00098660349
v -0.00402406707 -0.0110956687 -0.00419328529
v -0.0120076231 -0.00244953991 -0.00209626481
v -0.0093802511 -0.00380514728 0.0023211861
v -0.011995786 -0.000767895293 0.0031504891
v -0.00653373558 -0.00776095064 -0.00159296774
v -0.00535642464 -0.010037252 -0.00499758505
v -0.00650058469 -0.00906227851 -0.00552162931
v -0.00509957485 -0.00682575914 0.0057476957
v -0.00476296394 -0.00580816786 0.00994344116
v -0.00186251957 -0.00530142457 -0.00197133802
v -0.000900540075 -0.00587663983 -0.000773238156
v -0.000233205928 -0.00572856457 0.00175316835
v -0.00067467339 -0.00467467183 0.00365002747
v -0.00179773296 -0.00319973711 0.00474064439
v -0.0033789097 -0.00165252996 0.00463497717
v -0.00483923483 -0.000560487148 0.00349445874
v -0.00576986854 -0.000271823689 0.00150543954
v -0.00592973255 -0.000658755046 -0.000188498304
v -0.0053865809 -0.00176986559 -0.00194822781
v -0.00350564941 -0.003958886 -0.00290265072
v -0.00391087277 -0.00167622567 0.00291385056
v -0.00476979072 -0.00125270628 0.00156481707
v -0.00276122677 -0.00264015877 0.00348914338
v -0.00128432637 -0.00489309362 0.00108474078
v -0.00157556727 -0.00404200487 0.00281930556
v -0.00484693609 -0.00178227441 -0.000314851929
v -0.00390198637 -0.00308505851 -0.00142326566
v -0.00224291489 -0.00459158287 -0.00095051779
v 0.00311950895 0.00230222208 -0.00342595507
v 0.00424095092 0.00146632005 -0.00254159963
v 0.00489313034 0.00128440659 -0.00108468361
v 0.00469529183 0.00205779315 0.000698654608
v 0.00376795722 0.00321978894 0.00142525512
v 0.00302458446 0.00393967955 0.00135293222
v 0.00237156933 0.00447294833 0.000981634327
v 0.00176799934 0.00482981532 0.000217344533
v 0.00131127045 0.00492005739 -0.000917851704
v 0.00150923834 0.00414633167 -0.0027016606
v 0.00226474445 0.00317972033 -0.00335559629
v 0.00236896052 0.00494275412 0.00242922715
v 0.00425887672 0.00316831325 0.0027869963
v 0.00546828419 0.00162624734 0.00175626979
v 0.00591630121 0.000719177926 0.000334046212
v 0.00585997742 0.000344446588 -0.00100133203
v 0.00540530852 0.000290438662 -0.00257716127
v 0.000327710031 0.00530394053 -0.00277577402
v 0.000475883812 0.00597119997 -0.000249575966
v 0.00132871311 0.00564091532 0.0013692639
v 0.00410878925 0.00106403976 -0.00419727209
v 0.00311756771 0.00189023345 -0.0047082641
v 0.00194556217 0.00303605013 -0.00478968037
v 0.000903016738 0.00434189169 -0.00397405409
v -0.00591600421 -0.00908113854 -0.0065100612
v -0.00277675712 -0.0113988823 -0.00446528729
v -0.0017332967 -0.012087175 -0.00304434084
v -4.396371e-05 -0.0125748095 0.000699750864
v -0.00551568324 -0.00377510929 0.0106472797
v -0.00571750958 -0.00370497377 0.0105809233
v -0.00737895796 -0.00226490919 0.00995569283
v -0.00986875024 -0.000556124523 0.00786394595
v -0.0111749109 0.000203898836 0.00578382231
v -0.0119126971 0.000378659654 0.00403943277
v -0.0121592356 0.000421082717 0.00309500443
v -0.00378441375 -0.0112668285 -0.00437623017
v -0.00299253349 -0.0117679669 -0.00308615812
v -0.00211032777 -0.0122688877 -0.00205390675
v -0.000859081324 -0.0125162386 0.00112946314
v -0.000536718527 -0.0117381815 0.00453864074
v -0.00118552284 -0.0102636085 0.00714661666
v -0.00183544157 -0.00917330365 0.00843905573
v -0.00230904099 -0.00862016443 0.00878958311
v -0.00219947866 -0.00848937804 0.00913826883
v -0.00900972754 -0.00197382235 0.00853574422
v -0.0103756423 -0.00112304799 0.00699304542
v -0.0115679034 -0.000662291565 0.00475882962
v -0.0120460715 -0.000550705857 0.00353797725
v -0.0123983387 -0.000777882697 0.00178965563
v -0.0124898603 -0.00123162254 0.000100443778
v -0.0123683767 -0.00188486214 -0.00170379151
v -0.0115544246 -0.00335035887 -0.00354371869
v -0.0111873337 -0.00391972035 -0.00434880928
v -0.00382931155 -0.00673405169 0.00988991534
v -0.00926972597 -0.00631912145 -0.00572793597
v -0.00691622336 -0.00871614708 -0.00596198675
v -0.0087170977 -0.00688155669 -0.00612575331
v -0.00837100927 -0.00710964469 -0.00638006536
v -0.00862352065 -0.00665884659 -0.00653690143
v -0.00750886757 -0.00750882299 -0.00675318026
v -0.00527529662 -0.00518390906 0.0101601029
v -0.00453945741 -0.00573751018 0.010360644
v -0.00470717183 -0.00531486067 0.0105319114
v -0.00433932096 -0.00524093052 0.0106838169
v -0.00905513126 -0.000979610991 0.00868430353
v -0.00817334015 -0.00682837636 -0.00670382761
v -0.0107394524 -0.0044481536 -0.00509273019
v -0.00987181364 -0.00542830322 -0.00583566691
v -0.0088143285 -0.0061397043 -0.0065561273
v -0.00942456085 -0.0054506746 -0.00631186747
v -0.0103621398 -0.0046123568 -0.00564141988
v -0.0104938231 -0.00402955218 -0.00557950349
v -0.0122148918 -0.00218716275 -0.00265912989
v -0.0119301293 -0.00252693081 -0.00355091659
v -0.0113581859 -0.00315445866 -0.0045893493
v -0.0110039647 -0.00345821054 -0.00503239416
v -0.0117891963 -0.00226707132 -0.00377461695
v -0.0120872195 -0.00173337133 -0.00304434084
v -0.0126305725 -0.000690564056 0.000929241847
v -0.0127000175 -0.000728029914 6.10110237e-06
v -0.0124466579 -0.00121278398 -0.00191140999
v -0.0124770339 -0.000819870543 -0.00142226004
v -0.0126410599 -0.000461215456 -0.000185761707
v -0.0125788387 -0.000145026755 0.000353123913
v -0.0118791701 -0.000310918336 0.00443379598
v -0.0122007377 -6.75107757e-05 0.00359954483
v -0.0124178459 0.000112390114 0.00268773432
v -0.0124907737 0.000160814548 0.00126975295
v -0.0123877462 0.000260523248 0.00220158316
v -0.0101610888 -0.00103254152 0.00752051921
v -0.010661292 -0.000535283646 0.00691887799
v -0.0114917163 0.000142651439 0.00529258864
v -0.0105944417 -0.000231436995 0.00691348176
v -0.00846466834 -0.00184270968 0.00930545444
v -0.00922216872 -0.00129491623 0.00860976183
v -0.00806700546 -0.00268692644 0.00924494482
v -0.00764324303 -0.00248379694 0.00982278186
v -0.00780963066 -0.00280231136 0.00952183198
v -0.00628929132 -0.00350809358 0.0104397629
v -0.00658085 -0.0036847 0.0101937995
v -0.00675987697 -0.00373461558 0.00996656817
v -0.00435864288 -0.00503201158 0.0106795094
v -0.00255201187 -0.00774151502 0.00974126331
v -0.00289741078 -0.00696619148 0.0101938809
v -0.00307845432 -0.00640744836 0.0103845856
v -0.00185695536 -0.00773145284 0.00970898798
v -0.000785300879 -0.010604031 0.00691431301
v -0.000849688501 -0.0100983488 0.00768897904
v -0.00098044685 -0.00947973794 0.00840305478
v -0.00143074352 -0.0084251848 0.00923803068
v -0.000979536362 -0.00905520589 0.00868430353
v -0.000586384125 -0.00965160997 0.00805452086
v -0.000255697556 -0.0102078405 0.007355716
v -0.000299053445 -0.0121323782 0.00368589051
v -8.2731691e-05 -0.011878588 0.0045510329
v -4.35156753e-05 -0.0109596335 0.00631921739
v 0.000203973464 -0.0111748663 0.00578382231
v 0.000223358254 -0.011770448 0.00463120804
v 0.000378615073 -0.0119126526 0.00403943277
v -0.000916947822 -0.0126490697 0.000171201788
v -0.000440938437 -0.0126762419 0.000968525499
v -1.13472735e-05 -0.0125756779 0.00181412316
v 0.000431617151 -0.0121512306 0.00310719498
v 0.000260597877 -0.0123878208 0.00220158316
v -0.00194691568 -0.0122992234 -0.00250458789
v -0.00127922048 -0.0124759682 -0.00188502926
v -0.000705877403 -0.0125750867 -0.000989749605
v -0.00299052884 -0.0117092394 -0.00390960771
v -0.00239984382 -0.0118145874 -0.00377604222
v -0.00359080835 -0.0110242838 -0.00501741493
v -0.00455252779 -0.0104496883 -0.00557887787
v -0.00517317459 -0.0102296905 -0.00534325921
v -0.00556864266 -0.00990357335 -0.00537023278
v -0.00656449158 -0.0090308872 -0.00575444483
v -0.00593786775 -0.00927869457 -0.00633147983
v -0.00639231995 -0.00903889774 -0.0062260709
v 0.00478872034 0.00475648038 -0.0106787271
v 0.00348745502 0.00611973029 -0.0104869894
v 0.0025382401 0.0071268725 -0.0101130525
v 0.00233398863 0.00746728978 -0.00992109487
v 0.00180840305 0.00811787481 -0.00950963791
v 0.00126116924 0.00871621197 -0.00902767489
v 0.000903133383 0.00937468971 -0.0084204289
v 0.000466724659 0.00991086225 -0.00778553861
v 0.000235864741 0.0104870013 -0.00704056572
v -7.3332435e-05 0.0109345393 -0.00628326862
v -0.000240045369 0.0113678796 -0.00545512846
v -0.000254946624 0.011776719 -0.0045656841
v -0.000439435053 0.0118019248 -0.00428337223
v -0.00044184028 0.012174748 -0.00297545922
v -9.72179015e-05 0.0125029088 -0.00179832141
v 0.000111564114 0.0126032181 -0.000861785058
v 0.000380502037 0.0126272504 4.69598679e-05
v 0.000715609862 0.0125782308 0.000932945492
v 0.0011120123 0.0124565855 0.00178555159
v 0.00156624908 0.01226386 0.00259544425
v 0.00207313014 0.0120021883 0.00335345205
v 0.00262519537 0.0116744885 0.00405047929
v 0.00321811311 0.0112843677 0.00467939894
v 0.00384522081 0.0108363188 0.0052327738
v 0.00449806121 0.0103356614 0.00570399595
v 0.00516975374 0.00978761664 0.00608828241
v 0.00585365467 0.00919852827 0.00638080801
v 0.00654045333 0.00857566159 0.00657836745
v 0.00751099023 0.00759412087 0.00673577826
v 0.00817315198 0.00691132323 0.00669743869
v 0.00881709856 0.00622275753 0.00655495541
v 0.00916968772 0.00588610539 0.00639243142
v 0.010031767 0.00482327235 0.00596702575
v 0.0102960942 0.00455744217 0.00573191998
v 0.0107571386 0.00385637289 0.00533585758
v 0.01121228 0.00322471886 0.00478993612
v 0.0116096573 0.00262648669 0.00416822214
v 0.01194521 0.00206751209 0.00347730083
v 0.0122152939 0.0015540949 0.00272485636
v 0.012441428 0.001156563 0.00186514124
v 0.0125698897 0.000753817139 0.00101637532
v 0.0126258987 0.000412588703 0.000133622248
v 0.0125136435 -8.3340217e-05 -0.00172379887
v 0.0123470463 -0.000214326344 -0.00266413642
v 0.0121117984 -0.000274753783 -0.00358128768
v 0.0118093086 -0.000262586824 -0.0044795071
v 0.0114428215 -0.000177377391 -0.00534995838
v 0.011016614 -1.96132127e-05 -0.00618295881
v 0.0105358715 0.000207341244 -0.00696731406
v 0.0100054376 0.000502766479 -0.00769618375
v 0.00943185101 0.000862110663 -0.00835997249
v 0.00882098316 0.00128220613 -0.00895216445
v 0.00818046458 0.00175697036 -0.00946496592
v 0.00751703835 0.00228209172 -0.00989346515
v 0.00683859088 0.00285142049 -0.0102322183
v 0.00615272571 0.00345791372 -0.0104776005
v 0.00531291731 0.00394730864 -0.010652252
v 0.00559640739 0.0042977051 -0.0105386801
v 0.0126445256 0.000354949645 -0.000918900896
v 3.15507649e-05 0.0123902794 -0.00270801855
v -2.73458661e-05 0.012158274 -0.00360968459
v 0.00637254915 0.00384691724 -0.0102606834
v 0.0070332519 0.00326105105 -0.0100292336
v 0.00768816924 0.00270973476 -0.0097076119
v 0.00832843642 0.0022009307 -0.00929953927
v 0.00894672622 0.00174092376 -0.0088099076
v 0.00953691764 0.00133347391 -0.00824360603
v 0.0100916777 0.000984124346 -0.00760777129
v 0.010605502 0.000695741701 -0.00690854954
v 0.0110712752 0.000473208219 -0.00615554495
v 0.0114849707 0.000317969235 -0.00535558117
v 0.0118410931 0.000231811048 -0.00451907332
v 0.0121361447 0.000215840799 -0.00365441038
v 0.0123665311 0.000269999817 -0.00277178246
v 0.0125298761 0.000394067907 -0.00188051785
v 0.0126475925 0.00084567839 -0.000116784827
v 0.0126008896 0.00116794942 0.000736154986
v 0.0124843575 0.00154997077 0.00155755743
v 0.012299114 0.00198721125 0.00233874095
v 0.0120475709 0.00247446967 0.00306914469
v 0.0117322169 0.00300683822 0.0037421631
v 0.0113567166 0.00357798904 0.00434890468
v 0.0109259552 0.00418108418 0.00488186968
v 0.0104439413 0.0048097961 0.00533654714
v 0.00991582048 0.00545768823 0.00570780267
v 0.00934934544 0.0061154169 0.00598990851
v 0.00874884924 0.00677768017 0.00618145591
v 0.00812228371 0.00743567514 0.00627932124
v 0.00747749443 0.00808154657 0.00628204916
v 0.00681993652 0.0087096279 0.00619019146
v 0.00615765756 0.00931201953 0.00600491599
v 0.00549922937 0.00988100354 0.00572812534
v 0.00485074893 0.0104115268 0.00536286795
v 0.00422076902 0.0108964512 0.00491340259
v 0.0036151173 0.0113312396 0.00438439233
v 0.00304230286 0.0117100214 0.00378263189
v 0.00250716341 0.0120293364 0.00311407516
v 0.00201667927 0.012285132 0.00238684301
v 0.00157592976 0.0124746183 0.00160920821
v 0.00119060345 0.0125955621 0.00078983026
v 0.000864952969 0.0126465825 -6.17830079e-05
v 0.000601836532 0.0126272397 -0.000936805353
v 0.000404732694 0.0125377152 -0.00182466837
v 0.000228136711 0.0118619384 -0.00446446388
v 0.000309918677 0.0115093914 -0.00530348091
v 0.000461108275 0.0110996284 -0.00610531809
v 0.000679649332 0.0106362584 -0.00686275934
v 0.000963621514 0.0101261753 -0.00756450993
v 0.00130947164 0.0095735319 -0.00820497987
v 0.00171308168 0.00898564789 -0.00877559652
v 0.00217080259 0.00836765731 -0.00927141932
v 0.00267569829 0.00773001393 -0.00968376039
v 0.00322424784 0.00707547629 -0.0100114458
v 0.00380873466 0.00641429425 -0.0102489798
v 0.00442247966 0.00575369994 -0.0103935927
v 0.00505942076 0.00510056606 -0.0104439707
v 0.00577459279 0.00462279011 -0.0102195567
v 0.0125430503 0.000801294785 -0.00108954432
v 0.000514096056 0.0123173196 -0.00267883398
v 0.000452812144 0.0121002196 -0.00354070448
v 0.00649321716 0.00402682154 -0.00996920847
v 0.00712872188 0.0034641537 -0.00974402212
v 0.00775743168 0.00293605654 -0.00943217062
v 0.00837219398 0.00244872897 -0.00903746866
v 0.00896597546 0.0020076546 -0.00856408857
v 0.00953221958 0.00161784022 -0.00801763319
v 0.0100644891 0.00128357737 -0.00740418219
v 0.0105567042 0.00100879996 -0.00673076891
v 0.0111428863 0.000780157898 -0.0057014809
v 0.0116634386 0.000629256836 -0.00455095342
v 0.0120213095 0.000555447031 -0.00359782957
v 0.0122406546 0.000609925676 -0.00274917864
v 0.0123953883 0.000731638361 -0.00189325594
v 0.0125042264 0.0011697325 -0.000198457469
v 0.0124572579 0.00148134558 0.000621225606
v 0.0123431746 0.00185005992 0.00141003347
v 0.0121631686 0.00227182238 0.00215902544
v 0.0119192664 0.00274186461 0.00285973764
v 0.011614329 0.00325482218 0.00350406385
v 0.0112518136 0.00380485385 0.00408485151
v 0.0108898158 0.00431355659 0.00446628162
v 0.0103708569 0.00499086707 0.00503006197
v 0.00986242931 0.00561349719 0.00538387514
v 0.00931621235 0.0062463793 0.0056528113
v 0.00873852413 0.00688259928 0.005833771
v 0.00790794397 0.00775446312 0.00588321753
v 0.00699495715 0.00863791156 0.00579692282
v 0.00639912001 0.00918495036 0.00563303813
v 0.00561345261 0.00986247389 0.00538387514
v 0.00499082249 0.0103707823 0.00503006197
v 0.00450881017 0.0107448943 0.00462215515
v 0.00396393231 0.0111409195 0.00414866365
v 0.0032547776 0.0116143736 0.00350406385
v 0.00274182003 0.011919311 0.00285973764
v 0.00238530727 0.0121005463 0.00224313411
v 0.00198962248 0.0122755797 0.00154756254
v 0.00116968792 0.012504271 -0.000198457469
v 0.000918871574 0.0124835285 -0.00103983663
v 0.00073159378 0.0123953137 -0.00189325594
v 0.000613915439 0.0117650921 -0.00428381672
v 0.000682329326 0.0114378051 -0.00508538609
v 0.00101807491 0.0106178825 -0.0065854992
v 0.00127383841 0.0101596576 -0.00722515753
v 0.00179811007 0.0093192876 -0.00819734927
v 0.0024144351 0.00846701476 -0.00892335031
v 0.00531467551 0.00691293493 -0.00630741152
v 0.00346410911 0.00712876647 -0.00974402212
v 0.00402689617 0.00649326174 -0.00996920847
v 0.00454458654 0.00597691876 -0.0100383937
v 0.00523067158 0.00523071616 -0.0101510026
v -0.00885319073 -0.00885326536 0.00131907679
v 0.00866377991 0.0081147465 -0.00419411444
v -0.00857066471 -0.00911969812 0.00136890627
v 0.00894320648 0.0078825268 -0.00404796385
v -0.00829123814 -0.00935191781 0.00151505686
v 0.00920034092 0.00770037501 -0.00381562494
v -0.0080341037 -0.00953406961 0.00174739576
v 0.00941777866 0.00758068888 -0.00351271414
v -0.00781666596 -0.00965375574 0.00205030657
v 0.00958061855 0.00753157466 -0.00315997385
v -0.00765382607 -0.00970286996 0.00240304686
v 0.00967789333 0.00755660861 -0.00278148436
v -0.00755655129 -0.00967783601 0.00278153635
v 0.00970280807 0.00765376418 -0.00240299486
v -0.00753163654 -0.00958068044 0.00316002585
v 0.00965381306 0.00781672328 -0.00205037378
v -0.00758063156 -0.00941772134 0.00351276613
v 0.00953412693 0.00803416102 -0.00174746298
v -0.00770031769 -0.0092002836 0.00381555773
v 0.00935197514 0.00829129546 -0.00151500486
v -0.00788246948 -0.00894314916 0.00404801584
v 0.00911975544 0.00857072203 -0.00136897348
v -0.00811468918 -0.00866372259 0.00419404722
v 0.00885320347 0.00885324805 -0.001319144
v -0.00838124115 -0.00838119657 0.00424387671
v 0.00857067745 0.00911968081 -0.00136897348
v -0.00866376717 -0.00811476381 0.00419404722
v 0.00829125088 0.00935190051 -0.00151500486
v -0.00894319374 -0.00788254411 0.00404801584
v 0.00803411644 0.00953417151 -0.00174746298
v -0.00920032818 -0.00770039232 0.00381555773
v 0.00781667869 0.00965373843 -0.00205037378
v -0.00941776592 -0.00758070619 0.00351276613
v 0.00765383881 0.00970285266 -0.00240299486
v -0.00958060581 -0.00753159196 0.00316002585
v 0.00755656403 0.00967793791 -0.00278148436
v -0.00967788059 -0.00755662591 0.00278153635
v 0.00753164928 0.00958066313 -0.00315997385
v -0.00970279533 -0.00765378148 0.00240304686
v 0.0075806443 0.00941782324 -0.00351271414
v -0.00965380032 -0.00781662137 0.00205030657
v 0.00770033043 0.0092003855 -0.00381562494
v -0.00953411419 -0.00803405912 0.00174739576
v 0.00788248222 0.00894313185 -0.00404796385
v -0.0093519624 -0.00829131277 0.00151505686
v 0.00811470192 0.00866382449 -0.00419411444
v -0.0091197427 -0.00857073934 0.00136890627
v 0.00838125389 0.00838117926 -0.00424394392
v 0.00861716907 0.00861721366 -0.00278148436
v -0.00861727554 -0.00861723096 0.00278153635
f 2 3 542
f 3 543 542
f 548 545 3
f 3 545 544
f 538 537 6
f 6 537 15
f 548 546 545
f 548 547 546
f 9 511 11
f 9 11 7
f 9 5 512
f 9 512 511
f 4 12 5
f 17 20 18
f 17 18 16
f 7 19 8
f 8 19 17
f 17 19 20
f 16 551 17
f 17 551 21
f 17 21 10
f 10 21 548
f 23 24 22
f 25 530 24
f 24 530 529
f 24 529 528
f 534 533 15
f 15 533 25
f 73 76 318
f 73 318 77
f 77 78 79
f 79 80 81
f 81 82 83
f 67 103 352
f 67 352 104
f 105 104 106
f 106 107 108
f 108 109 110
f 110 111 369
f 72 76 73
f 66 103 67
f 74 72 73
f 68 66 67
f 75 74 73
f 75 73 131
f 167 68 67
f 167 67 132
f 64 74 199
f 199 74 75
f 75 131 133
f 69 68 167
f 134 167 132
f 134 132 135
f 199 75 198
f 198 75 133
f 198 133 138
f 73 77 140
f 73 140 131
f 131 140 141
f 131 141 133
f 133 141 142
f 133 142 138
f 138 142 143
f 138 143 196
f 196 143 62
f 196 62 139
f 139 62 61
f 139 61 63
f 77 79 140
f 142 144 143
f 143 144 60
f 143 60 385
f 143 385 62
f 79 81 145
f 79 145 140
f 140 145 146
f 140 146 141
f 141 146 147
f 141 147 142
f 142 147 148
f 142 148 144
f 144 148 59
f 144 59 388
f 144 388 60
f 81 83 145
f 147 149 148
f 148 149 58
f 148 58 390
f 148 390 59
f 83 150 145
f 145 150 151
f 145 151 146
f 146 151 147
f 147 151 57
f 147 57 149
f 149 57 392
f 149 392 58
f 57 393 392
f 151 150 152
f 151 152 56
f 151 56 57
f 57 56 395
f 57 395 393
f 150 137 152
f 56 152 395
f 55 137 154
f 154 137 150
f 153 150 85
f 85 150 84
f 84 150 83
f 84 83 334
f 334 83 71
f 55 396 137
f 137 396 152
f 152 396 395
f 155 154 150
f 155 150 153
f 52 54 55
f 52 55 154
f 155 153 87
f 87 153 85
f 87 85 86
f 86 85 281
f 281 85 84
f 53 54 52
f 156 154 155
f 157 52 154
f 157 154 156
f 158 156 155
f 158 155 90
f 90 155 87
f 90 87 89
f 89 87 88
f 88 87 86
f 51 53 52
f 157 156 158
f 49 51 52
f 49 52 159
f 159 52 157
f 93 158 90
f 93 90 92
f 92 90 91
f 91 90 89
f 50 51 49
f 160 159 157
f 160 157 158
f 161 160 158
f 161 158 96
f 96 158 93
f 96 93 95
f 95 93 94
f 94 93 92
f 48 50 49
f 46 48 49
f 46 49 162
f 162 49 159
f 162 159 160
f 99 161 96
f 99 96 98
f 98 96 97
f 97 96 95
f 47 48 46
f 163 162 160
f 163 160 161
f 166 163 161
f 166 161 101
f 101 161 99
f 101 99 100
f 100 99 98
f 44 47 46
f 101 100 102
f 45 44 46
f 45 46 162
f 45 162 163
f 167 166 101
f 167 101 275
f 275 101 102
f 43 44 164
f 164 44 45
f 165 45 163
f 165 163 166
f 70 167 275
f 70 69 167
f 167 134 166
f 166 134 135
f 166 135 165
f 165 135 136
f 165 136 45
f 45 136 164
f 104 105 67
f 67 105 168
f 67 168 132
f 132 168 169
f 132 169 135
f 135 169 170
f 135 170 136
f 136 170 171
f 136 171 164
f 164 171 43
f 43 412 411
f 171 42 43
f 43 42 413
f 43 413 412
f 170 41 171
f 171 41 415
f 171 415 42
f 106 108 172
f 106 172 105
f 105 172 173
f 105 173 168
f 168 173 174
f 168 174 169
f 169 174 175
f 169 175 170
f 170 175 41
f 41 417 415
f 175 40 41
f 41 40 418
f 41 418 417
f 108 110 172
f 40 419 418
f 175 39 40
f 40 39 420
f 40 420 419
f 369 65 110
f 110 65 176
f 110 176 172
f 172 176 177
f 172 177 173
f 173 177 174
f 174 177 178
f 174 178 175
f 175 178 39
f 39 421 420
f 39 178 38
f 39 38 421
f 177 176 179
f 177 179 178
f 178 37 38
f 178 179 36
f 178 36 37
f 65 184 176
f 176 184 179
f 179 180 36
f 185 184 65
f 185 65 186
f 186 65 113
f 113 65 112
f 112 65 181
f 181 65 369
f 35 182 184
f 184 182 179
f 179 183 180
f 32 34 35
f 32 35 187
f 187 35 184
f 187 184 185
f 116 186 113
f 116 113 115
f 115 113 114
f 114 113 112
f 33 34 32
f 188 187 185
f 188 185 189
f 189 185 186
f 189 186 119
f 119 186 116
f 119 116 118
f 118 116 117
f 117 116 115
f 31 33 32
f 29 31 32
f 29 32 190
f 190 32 187
f 190 187 188
f 122 189 119
f 122 119 121
f 121 119 120
f 120 119 118
f 30 31 29
f 191 190 188
f 191 188 192
f 192 188 189
f 192 189 124
f 124 189 122
f 124 122 123
f 123 122 272
f 272 122 121
f 28 30 29
f 26 28 29
f 26 29 193
f 193 29 190
f 193 190 191
f 127 192 124
f 127 124 126
f 126 124 125
f 125 124 123
f 27 28 26
f 197 193 191
f 197 191 194
f 194 191 192
f 194 192 129
f 129 192 127
f 129 127 128
f 128 127 126
f 439 27 26
f 129 128 130
f 195 439 26
f 195 26 196
f 196 26 193
f 196 193 197
f 198 197 194
f 198 194 199
f 199 194 129
f 199 129 130
f 130 64 199
f 197 198 138
f 197 138 196
f 195 196 139
f 195 139 439
f 200 205 203
f 203 205 208
f 206 211 209
f 298 210 206
f 206 210 211
f 292 214 207
f 207 214 293
f 207 293 221
f 212 213 220
f 212 220 206
f 206 220 298
f 212 221 296
f 212 296 213
f 221 293 222
f 221 222 295
f 202 218 283
f 223 225 218
f 218 225 224
f 218 224 219
f 209 225 223
f 226 227 217
f 226 300 227
f 287 288 208
f 208 288 289
f 208 289 226
f 226 289 300
f 238 209 223
f 238 223 218
f 238 218 228
f 228 218 229
f 229 218 202
f 229 202 201
f 229 201 230
f 230 201 200
f 230 200 203
f 230 203 231
f 231 203 208
f 231 208 232
f 232 208 226
f 232 226 217
f 232 217 233
f 233 217 216
f 233 216 215
f 233 215 234
f 234 215 204
f 234 204 207
f 234 207 235
f 235 207 221
f 235 221 236
f 236 221 212
f 236 212 237
f 237 212 206
f 237 206 238
f 238 206 209
f 239 234 240
f 240 234 235
f 240 235 244
f 244 235 236
f 243 231 232
f 243 232 241
f 241 232 233
f 241 233 239
f 239 233 234
f 246 229 242
f 242 229 230
f 242 230 243
f 243 230 231
f 244 236 237
f 244 237 245
f 245 237 238
f 245 238 246
f 246 238 228
f 246 228 229
f 247 245 246
f 247 246 248
f 248 246 249
f 249 246 242
f 249 242 250
f 250 242 243
f 250 243 251
f 251 243 241
f 251 241 252
f 252 241 253
f 253 241 239
f 253 239 254
f 254 239 240
f 254 240 255
f 255 240 244
f 255 244 256
f 256 244 245
f 256 245 257
f 257 245 247
f 253 258 252
f 252 258 251
f 251 258 259
f 251 259 250
f 250 259 260
f 250 260 261
f 250 261 249
f 249 261 262
f 249 262 263
f 249 263 248
f 256 264 255
f 255 264 265
f 255 265 254
f 254 265 253
f 253 265 266
f 253 266 258
f 248 263 267
f 248 267 247
f 247 267 268
f 247 268 269
f 247 269 257
f 257 269 256
f 256 269 270
f 256 270 264
f 17 269 268
f 17 268 267
f 17 267 8
f 8 267 7
f 7 267 263
f 7 263 9
f 9 263 5
f 5 263 262
f 5 262 261
f 5 261 4
f 4 261 13
f 13 261 260
f 13 260 14
f 14 260 22
f 22 260 259
f 22 259 23
f 23 259 24
f 24 259 258
f 24 258 25
f 25 258 15
f 15 258 266
f 15 266 6
f 6 266 265
f 6 265 1
f 1 265 2
f 2 265 264
f 2 264 3
f 3 264 548
f 548 264 270
f 548 270 269
f 548 269 10
f 10 269 17
f 130 128 271
f 272 121 375
f 121 120 273
f 120 118 372
f 118 117 373
f 117 115 373
f 115 114 274
f 114 112 274
f 275 102 276
f 102 100 277
f 95 94 278
f 94 92 278
f 92 91 339
f 91 89 279
f 89 88 338
f 88 86 280
f 282 218 219
f 284 202 283
f 285 201 202
f 285 200 201
f 286 205 200
f 287 208 205
f 291 204 215
f 292 207 204
f 294 222 293
f 297 220 213
f 299 210 298
f 301 211 210
f 307 227 300
f 307 300 308
f 209 211 302
f 302 211 301
f 302 301 303
f 312 74 64
f 210 299 301
f 301 299 313
f 301 313 303
f 303 313 314
f 303 314 304
f 304 314 305
f 305 312 306
f 306 312 64
f 305 315 312
f 312 315 74
f 316 72 74
f 314 313 317
f 314 317 305
f 305 317 316
f 305 316 315
f 315 316 74
f 317 76 316
f 316 76 72
f 220 297 298
f 298 297 319
f 298 319 299
f 299 319 320
f 299 320 313
f 313 320 321
f 313 321 317
f 317 321 318
f 317 318 76
f 322 77 318
f 321 322 318
f 321 78 77
f 322 321 77
f 323 79 78
f 213 296 297
f 320 323 321
f 321 323 78
f 324 80 79
f 296 325 297
f 297 325 326
f 297 326 319
f 319 326 327
f 319 327 320
f 320 327 324
f 320 324 323
f 323 324 79
f 327 81 80
f 221 295 296
f 296 295 325
f 324 327 80
f 328 82 81
f 326 329 327
f 327 329 328
f 327 328 81
f 329 83 82
f 222 294 295
f 295 294 325
f 328 329 82
f 330 71 83
f 294 331 325
f 325 331 332
f 325 332 326
f 326 332 333
f 326 333 329
f 329 333 330
f 329 330 83
f 294 293 331
f 333 334 330
f 330 334 71
f 281 84 335
f 293 214 331
f 333 335 334
f 334 335 84
f 214 292 331
f 333 281 335
f 292 336 331
f 331 336 337
f 331 337 332
f 332 337 338
f 332 338 333
f 333 338 280
f 333 280 281
f 281 280 86
f 280 338 88
f 204 291 292
f 292 291 336
f 337 339 338
f 338 339 279
f 338 279 89
f 279 339 91
f 291 340 336
f 336 340 341
f 336 341 337
f 337 341 278
f 337 278 339
f 339 278 92
f 341 340 311
f 341 311 278
f 278 311 95
f 100 98 277
f 277 98 340
f 277 340 343
f 343 340 344
f 344 340 342
f 342 340 291
f 342 291 215
f 340 98 97
f 340 97 311
f 311 97 95
f 344 342 215
f 345 102 277
f 345 277 343
f 345 343 346
f 346 343 347
f 347 343 344
f 347 344 216
f 216 344 215
f 276 102 345
f 217 347 216
f 275 276 310
f 310 276 345
f 310 345 309
f 309 345 308
f 308 345 346
f 308 346 307
f 307 346 347
f 307 347 227
f 227 347 217
f 68 69 348
f 289 290 300
f 300 290 349
f 300 349 308
f 308 349 350
f 308 350 309
f 309 350 310
f 310 348 275
f 275 348 69
f 275 69 70
f 348 310 68
f 351 66 68
f 289 288 290
f 350 351 310
f 310 351 68
f 350 103 66
f 351 350 66
f 287 353 288
f 288 353 354
f 288 354 290
f 290 354 355
f 290 355 349
f 349 355 352
f 349 352 350
f 350 352 103
f 356 104 352
f 355 356 352
f 205 286 287
f 287 286 353
f 355 357 356
f 356 357 104
f 358 106 104
f 355 358 357
f 357 358 104
f 359 107 106
f 286 360 353
f 353 360 361
f 353 361 354
f 354 361 362
f 354 362 355
f 355 362 359
f 355 359 358
f 358 359 106
f 362 108 107
f 359 362 107
f 363 109 108
f 200 285 286
f 286 285 360
f 361 364 362
f 362 364 363
f 362 363 108
f 364 110 109
f 363 364 109
f 365 111 110
f 285 366 360
f 360 366 367
f 360 367 361
f 361 367 368
f 361 368 364
f 364 368 365
f 364 365 110
f 368 369 365
f 365 369 111
f 112 181 370
f 370 181 369
f 202 284 285
f 285 284 366
f 368 370 369
f 368 274 370
f 370 274 112
f 284 371 366
f 366 371 372
f 366 372 367
f 367 372 373
f 367 373 368
f 368 373 274
f 274 373 115
f 218 282 283
f 283 282 374
f 283 374 284
f 284 374 371
f 373 372 118
f 219 378 282
f 374 375 371
f 371 375 273
f 371 273 372
f 372 273 120
f 273 375 121
f 378 377 282
f 282 377 376
f 282 376 374
f 374 376 272
f 374 272 375
f 272 376 123
f 128 126 271
f 271 126 377
f 271 377 381
f 379 378 224
f 224 378 219
f 377 126 125
f 377 125 376
f 376 125 123
f 382 381 377
f 382 377 378
f 225 379 224
f 302 382 378
f 302 378 380
f 380 378 379
f 380 379 225
f 64 130 271
f 302 380 225
f 306 64 271
f 306 271 305
f 305 271 381
f 305 381 304
f 304 381 382
f 304 382 303
f 303 382 302
f 209 302 225
f 63 61 384
f 384 61 62
f 384 62 385
f 386 385 387
f 385 60 387
f 387 60 388
f 388 59 389
f 389 59 390
f 390 58 391
f 391 58 392
f 393 395 394
f 397 396 55
f 397 55 54
f 397 54 398
f 398 54 399
f 399 54 53
f 399 53 400
f 400 53 401
f 401 53 51
f 401 51 402
f 402 51 403
f 403 51 50
f 403 50 404
f 404 50 405
f 405 50 48
f 405 48 406
f 406 48 407
f 407 48 47
f 407 47 408
f 408 47 409
f 409 47 44
f 409 44 410
f 44 411 410
f 44 43 411
f 414 413 42
f 414 42 415
f 416 415 417
f 421 38 422
f 422 38 423
f 38 37 423
f 423 37 424
f 37 36 424
f 424 36 183
f 36 180 183
f 425 183 179
f 179 182 425
f 425 182 35
f 425 35 426
f 426 35 34
f 426 34 427
f 427 34 428
f 428 34 33
f 428 33 429
f 429 33 430
f 430 33 31
f 430 31 431
f 431 31 432
f 432 31 30
f 432 30 433
f 433 30 434
f 434 30 28
f 434 28 435
f 435 28 436
f 436 28 27
f 436 27 437
f 437 27 438
f 438 27 439
f 383 439 139
f 383 139 63
f 383 440 439
f 439 440 438
f 425 441 183
f 183 441 424
f 397 442 396
f 396 442 443
f 396 443 395
f 395 443 394
f 440 444 438
f 438 444 445
f 438 445 437
f 437 445 446
f 437 446 436
f 436 446 447
f 436 447 435
f 435 447 448
f 435 448 434
f 434 448 449
f 434 449 433
f 433 449 450
f 433 450 432
f 432 450 451
f 432 451 431
f 431 451 452
f 431 452 430
f 430 452 453
f 430 453 429
f 429 453 454
f 429 454 428
f 428 454 455
f 428 455 427
f 427 455 456
f 427 456 426
f 426 456 457
f 426 457 425
f 425 457 441
f 441 458 424
f 424 458 459
f 424 459 423
f 423 459 460
f 423 460 422
f 422 460 461
f 422 461 421
f 421 461 462
f 421 462 420
f 420 462 463
f 420 463 419
f 419 463 464
f 419 464 418
f 418 464 465
f 418 465 417
f 417 465 466
f 417 466 416
f 416 466 467
f 416 467 415
f 415 467 468
f 415 468 414
f 414 468 469
f 414 469 413
f 413 469 470
f 413 470 412
f 412 470 471
f 412 471 411
f 411 471 472
f 411 472 410
f 410 472 473
f 410 473 409
f 409 473 474
f 409 474 408
f 408 474 475
f 408 475 407
f 407 475 476
f 407 476 406
f 406 476 477
f 406 477 405
f 405 477 478
f 405 478 404
f 404 478 479
f 404 479 403
f 403 479 480
f 403 480 402
f 402 480 481
f 402 481 401
f 401 481 482
f 401 482 400
f 400 482 483
f 400 483 399
f 399 483 484
f 399 484 398
f 398 484 485
f 398 485 397
f 397 485 442
f 443 486 394
f 394 486 487
f 394 487 393
f 393 487 488
f 393 488 392
f 392 488 489
f 392 489 391
f 391 489 490
f 391 490 390
f 390 490 491
f 390 491 389
f 389 491 492
f 389 492 388
f 388 492 493
f 388 493 387
f 387 493 494
f 387 494 386
f 386 494 495
f 386 495 385
f 385 495 496
f 385 496 384
f 384 496 497
f 384 497 63
f 63 497 498
f 63 498 383
f 383 498 440
f 498 499 440
f 440 499 444
f 457 500 441
f 441 500 458
f 485 501 442
f 442 501 502
f 442 502 443
f 443 502 486
f 499 503 444
f 444 503 504
f 444 504 445
f 445 504 505
f 445 505 446
f 446 505 506
f 446 506 447
f 447 506 507
f 447 507 448
f 448 507 508
f 448 508 449
f 449 508 509
f 449 509 450
f 450 509 510
f 450 510 451
f 451 510 511
f 451 511 452
f 452 511 453
f 453 511 512
f 453 512 454
f 454 512 513
f 454 513 455
f 455 513 514
f 455 514 456
f 456 514 515
f 456 515 457
f 457 515 500
f 500 516 458
f 458 516 517
f 458 517 459
f 459 517 518
f 459 518 460
f 460 518 519
f 460 519 461
f 461 519 520
f 461 520 462
f 462 520 521
f 462 521 463
f 463 521 522
f 463 522 464
f 464 522 523
f 464 523 465
f 465 523 524
f 465 524 466
f 466 524 525
f 466 525 467
f 467 525 526
f 467 526 468
f 468 526 527
f 468 527 469
f 469 527 528
f 469 528 470
f 470 528 471
f 471 528 529
f 471 529 472
f 472 529 530
f 472 530 473
f 473 530 531
f 473 531 474
f 474 531 532
f 474 532 475
f 475 532 533
f 475 533 476
f 476 533 534
f 476 534 477
f 477 534 535
f 477 535 478
f 478 535 536
f 478 536 479
f 479 536 537
f 479 537 480
f 480 537 538
f 480 538 481
f 481 538 6
f 481 6 482
f 482 6 539
f 482 539 483
f 483 539 540
f 483 540 484
f 484 540 541
f 484 541 485
f 485 541 501
f 502 542 486
f 486 542 543
f 486 543 487
f 487 543 3
f 487 3 488
f 488 3 544
f 488 544 489
f 489 544 545
f 489 545 490
f 490 545 546
f 490 546 491
f 491 546 492
f 492 546 547
f 492 547 493
f 493 547 548
f 493 548 494
f 494 548 549
f 494 549 495
f 495 549 550
f 495 550 496
f 496 550 551
f 496 551 497
f 497 551 552
f 497 552 498
f 498 552 499
f 552 16 499
f 499 16 18
f 499 18 503
f 503 18 20
f 503 20 504
f 504 20 505
f 505 20 19
f 505 19 506
f 506 19 507
f 507 19 7
f 507 7 508
f 508 7 509
f 509 7 11
f 509 11 510
f 510 11 511
f 513 512 5
f 513 5 514
f 514 5 515
f 515 5 12
f 515 12 500
f 500 12 516
f 516 12 4
f 516 4 517
f 517 4 518
f 518 4 13
f 518 13 519
f 519 13 520
f 520 13 521
f 521 13 14
f 521 14 522
f 522 14 22
f 522 22 523
f 524 523 22
f 524 22 525
f 525 22 526
f 526 22 24
f 526 24 527
f 527 24 528
f 531 530 25
f 531 25 532
f 532 25 533
f 535 534 15
f 535 15 536
f 536 15 537
f 539 6 1
f 539 1 540
f 540 1 541
f 541 1 2
f 541 2 501
f 501 2 502
f 502 2 542
f 549 548 21
f 549 21 550
f 550 21 551
f 552 551 16
f 553 554 555
f 555 554 556
f 555 556 557
f 557 556 558
f 557 558 559
f 559 558 560
f 559 560 561
f 561 560 562
f 561 562 563
f 563 562 564
f 563 564 565
f 565 564 566
f 565 566 567
f 567 566 568
f 567 568 569
f 569 568 570
f 569 570 571
f 571 570 572
f 571 572 573
f 573 572 574
f 573 574 575
f 575 574 576
f 575 576 577
f 577 576 578
f 577 578 579
f 579 578 580
f 579 580 581
f 581 580 582
f 581 582 583
f 583 582 584
f 583 584 585
f 585 584 586
f 585 586 587
f 587 586 588
f 587 588 589
f 589 588 590
f 589 590 591
f 591 590 592
f 591 592 593
f 593 592 594
f 593 594 595
f 595 594 596
f 595 596 597
f 597 596 598
f 597 598 599
f 599 598 600
f 599 600 553
f 553 600 554
f 580 578 601
f 601 578 576
f 601 576 574
f 586 584 601
f 601 584 582
f 601 582 580
f 592 590 601
f 601 590 588
f 601 588 586
f 598 596 601
f 601 596 594
f 601 594 592
f 556 554 601
f 601 554 600
f 601 600 598
f 562 560 601
f 601 560 558
f 601 558 556
f 568 566 601
f 601 566 564
f 601 564 562
f 574 572 601
f 601 572 570
f 601 570 568
f 573 575 602
f 602 575 577
f 602 577 579
f 567 569 602
f 602 569 571
f 602 571 573
f 561 563 602
f 602 563 565
f 602 565 567
f 555 557 602
f 602 557 559
f 602 559 561
f 597 599 602
f 602 599 553
f 602 553 555
f 591 593 602
f 602 593 595
f 602 595 597
f 585 587 602
f 602 587 589
f 602 589 591
f 579 581 602
f 602 581 583
f 602 583 585
