v 0.00106062891 0.00106063754 0.0125000377
v 0.000860357306 0.00122872264 -0.0125000576
v 0.000860357306 0.00122872264 0.0125000377
v 0.000633978866 0.00135943562 -0.0125000576
v 0.000633978866 0.00135943562 0.0125000377
v 0.000388169311 0.0014489022 -0.0125000576
v 0.000388169311 0.0014489022 0.0125000377
v 0.000130677245 0.00149432094 -0.0125000576
v 0.000130677245 0.00149432094 0.0125000377
v -0.000130748727 0.00149432094 -0.0125000576
v -0.000130748727 0.00149432094 0.0125000377
v -0.000388240792 0.0014489022 -0.0125000576
v -0.000388240792 0.0014489022 0.0125000377
v -0.000633931138 0.00135943562 -0.0125000576
v -0.000633931138 0.00135943562 0.0125000377
v -0.000860309579 0.00122872264 -0.0125000576
v -0.000860309579 0.00122872264 0.0125000377
v -0.00106070039 0.00106063754 -0.0125000576
v -0.00106070039 0.00106063754 0.0125000377
v -0.00122878549 0.000860365934 -0.0125000576
v -0.00122878549 0.000860365934 0.0125000377
v -0.00135943887 0.000633927888 -0.0125000576
v -0.00135943887 0.000633927888 0.0125000377
v -0.00144884584 0.000388237542 -0.0125000576
v -0.00144884584 0.000388237542 0.0125000377
v -0.00149426458 0.000130745477 -0.0125000576
v -0.00149426458 0.000130745477 0.0125000377
v -0.00149426458 -0.0001307401 -0.0125000576
v -0.00149426458 -0.0001307401 0.0125000377
v -0.00144884584 -0.000388232165 -0.0125000576
v -0.00144884584 -0.000388232165 0.0125000377
v -0.00135943887 -0.000633922511 -0.0125000576
v -0.00135943887 -0.000633922511 0.0125000377
v -0.00122878549 -0.000860360556 -0.0125000576
v -0.00122878549 -0.000860360556 0.0125000377
v -0.00106070039 -0.00106063216 -0.0125000576
v -0.00106070039 -0.00106063216 0.0125000377
v -0.000860309579 -0.00122871726 -0.0125000576
v -0.000860309579 -0.00122871726 0.0125000377
v -0.000633931138 -0.00135948985 -0.0125000576
v -0.000633931138 -0.00135948985 0.0125000377
v -0.000388240792 -0.00144889682 -0.0125000576
v -0.000388240792 -0.00144889682 0.0125000377
v -0.000130748727 -0.00149431556 -0.0125000576
v -0.000130748727 -0.00149431556 0.0125000377
v 0.000130677245 -0.00149431556 -0.0125000576
v 0.000130677245 -0.00149431556 0.0125000377
v 0.000388169311 -0.00144889682 -0.0125000576
v 0.000388169311 -0.00144889682 0.0125000377
v 0.000633978866 -0.00135948985 -0.0125000576
v 0.000633978866 -0.00135948985 0.0125000377
v 0.000860357306 -0.00122871726 -0.0125000576
v 0.000860357306 -0.00122871726 0.0125000377
v 0.00106062891 -0.00106063216 -0.0125000576
v 0.00106062891 -0.00106063216 0.0125000377
v 0.00122871401 -0.000860360556 -0.0125000576
v 0.00122871401 -0.000860360556 0.0125000377
v 0.0013594866 -0.000633922511 -0.0125000576
v 0.0013594866 -0.000633922511 0.0125000377
v 0.00144889357 -0.000388232165 -0.0125000576
v 0.00144889357 -0.000388232165 0.0125000377
v 0.00149431231 -0.0001307401 -0.0125000576
v 0.00149431231 -0.0001307401 0.0125000377
v 0.00149431231 0.000130745477 -0.0125000576
v 0.00149431231 0.000130745477 0.0125000377
v 0.00144889357 0.000388237542 -0.0125000576
v 0.00144889357 0.000388237542 0.0125000377
v 0.0013594866 0.000633927888 -0.0125000576
v 0.0013594866 0.000633927888 0.0125000377
v 0.00122871401 0.000860365934 -0.0125000576
v 0.00122871401 0.000860365934 0.0125000377
v 0.00106062891 0.00106063754 -0.0125000576
v 2.38637254e-08 -2.71137484e-08 -0.0125000576
v 2.38637254e-08 -2.71137484e-08 0.0125000377
v 0.0034982038 -0.00188030175 -0.0096956399
v -0.00382478146 -0.00119419322 -0.00970853807
v -0.00386224477 -0.00176845359 -0.00995651735
v -0.0021038679 -0.00350085549 -0.00961960786
v 0.00301511717 -0.00257716301 -0.00965454276
v -0.00396704794 0.000550015422 -0.00966787578
v 0.00401033525 -0.000194500646 -0.00968278629
v 0.00296271095 0.00264397866 -0.00969572696
v 0.0021779968 0.00335947271 -0.00970860617
v 0.00198607067 0.00376623182 -0.00995639587
v 0.00348571161 0.00227773909 -0.00986681346
v -0.000127620884 0.00414047073 -0.00976900516
v 0.00143539916 -0.00388956964 -0.00976983253
v -0.00353584287 -0.00718757241 -0.00950003666
v -0.00109718729 -0.00794274623 -0.00950004188
v -0.00255884506 -0.00759887968 -0.0095000418
v -0.00343272631 0.00203880191 -0.00965404313
v 0.00520707535 -0.00609733689 -0.00950004193
v -0.00130570922 0.00399254075 -0.00984705183
v 0.00528713329 0.00729570065 -0.00861576758
v 0.00498234048 0.0080030457 -0.00447788148
v 0.00384137161 0.00815069134 -0.00861543689
v 0.00184508576 0.00910125593 -0.00625924438
v 0.00225262056 0.00872451795 -0.00861480831
v 0.000587687378 0.00899153146 -0.0086141784
v -0.00157937551 0.00915038726 -0.00627021851
v -0.00109622761 0.00894392574 -0.00861365223
v -0.00274282455 0.00858352538 -0.00861300739
v -0.00478835759 0.00795500501 -0.00628122091
v -0.00429560115 0.00792148019 -0.0086124527
v -0.00569604533 0.0069827286 -0.00861190998
v -0.00734572223 0.00567777011 -0.00629230231
v -0.00689639048 0.00580061992 -0.00861146542
v -0.00785660118 0.00441393486 -0.00861093625
v -0.00890380794 0.00262858154 -0.00630024032
v -0.00854169666 0.00287279631 -0.00861023033
v -0.00892740416 0.00123147632 -0.00860981623
v -0.00925059733 -0.000778175208 -0.00630678663
v -0.00900076388 -0.000452753925 -0.00860929919
v -0.00875880345 -0.00212212437 -0.00860865185
v -0.00833926196 -0.00407895352 -0.00630730407
v -0.00821059844 -0.0037158709 -0.00860838193
v -0.00737499091 -0.00518025835 -0.00860776049
v -0.00678253046 -0.00601873101 -0.0083094036
v -0.0046784589 -0.00769610404 -0.00860173523
v -0.00430955097 -0.0082742703 -0.00530420397
v -0.0027143043 -0.00892565127 -0.0053077407
v -0.000941089985 -0.00899422912 -0.00848480252
v 0.000738866372 -0.009013097 -0.00848143214
v 0.00239300534 -0.00872105468 -0.00847780412
v 0.00396510273 -0.00812774769 -0.00847499714
v 0.00540079628 -0.00725362173 -0.00847185091
v 0.00664981331 -0.006129033 -0.00846894962
v 0.00766824397 -0.00479428641 -0.00846536877
v 0.00842312105 -0.00329268449 -0.0084614908
v 0.00888746831 -0.00168293705 -0.0084437235
v 0.00904770315 5.81472061e-05 -0.00840953611
v 0.00888058006 0.00173307527 -0.00840722319
v 0.00840755084 0.00334427744 -0.00840411195
v 0.00764534531 0.00483966234 -0.00840062865
v 0.00911094356 0.00190752215 0.00682880693
v 0.00566812018 0.00744257067 0.00500642352
v 0.00782380529 0.00454319981 0.00862599755
v 0.00885627749 0.00167880863 0.00860384419
v 0.00901390492 -8.95701201e-07 0.00860389009
v 0.00887182814 -0.00190540795 0.0083469417
v 0.0078984532 -0.00453057246 0.00837920723
v 0.00748602318 -0.00501641454 0.00861209099
v 0.0062981219 -0.00650934351 0.00838679361
v 0.00498626627 -0.00756159238 0.00838541246
v 0.00350262158 -0.00835310401 0.00838452671
v 0.00116018449 -0.00903601376 0.00830623166
v -0.00220364519 -0.00884009605 0.0082995635
v -0.00459961587 -0.00780342467 0.00838133301
v -0.0068091127 -0.0062652191 0.00617999699
v -0.00680919763 -0.00589635608 0.00863880015
v -0.00746829206 -0.00510316971 0.00840270105
v -0.00800600592 -0.00486846181 0.0046987723
v -0.00806289282 -0.0039922406 0.00863842123
v -0.00828326833 -0.00363417733 0.00840261361
v -0.0087634537 -0.00331572173 0.00470578962
v -0.00866693174 -0.00241538282 0.00863855212
v -0.00881232001 -0.00204040693 0.00840381928
v -0.00922320039 -0.00165010241 0.00471022968
v -0.00896579874 -0.000753711653 0.00863836023
v -0.00903775045 -0.000373802358 0.00840546408
v -0.0093689717 7.17926857e-05 0.00471812351
v -0.0089487996 0.000935425266 0.00863800849
v -0.00895138756 0.00130214211 0.00840630842
v -0.00919647058 0.00179046472 0.00472336886
v -0.00861695051 0.00259032233 0.00863739997
v -0.00855591626 0.00293629771 0.0084072087
v -0.00871078173 0.00344918274 0.00473009004
v -0.00786589466 0.00446751131 0.00840689611
v -0.00792858343 0.00499099978 0.00473402004
v -0.00706512803 0.00557279709 0.00863558456
v -0.0069028922 0.00584661615 0.00840845017
v -0.00687626724 0.00636289022 0.00473837386
v -0.00589963782 0.00679506064 0.00863432701
v -0.00570558821 0.00702026804 0.00840896063
v -0.00559055729 0.00751755909 0.00474130549
v -0.0045290043 0.00777662146 0.00863273377
v -0.00430759917 0.00795525316 0.00841021318
v -0.00411307653 0.00841734849 0.00474164004
v -0.00299725335 0.00848603598 0.00863094246
v -0.00276108467 0.00861532588 0.00841120812
v -0.00249554895 0.00902994769 0.00474426714
v -0.00130054925 0.00894956041 0.00842496054
v -0.000793354692 0.00933479495 0.00474510333
v 0.000374932637 0.0090362179 0.00842108495
v 0.00116242726 0.00892579703 0.00862556612
v 0.000936112591 0.00932165571 0.00474456753
v 0.00203650507 0.00881214181 0.00841763924
v 0.00263439044 0.0089906611 0.00474391323
v 0.00362879305 0.00828491118 0.00841406943
v 0.00424336097 0.00835289701 0.00474020734
v 0.00459166095 0.00775175661 0.00862025098
v 0.00522556307 0.00762841374 0.00616013008
v 0.00858830201 0.00429427834 0.00117049088
v -0.00523046095 -0.00733978018 -0.0086668737
v 0.00741794816 0.00537554847 0.00816188196
v 0.0066529751 0.00665298373 0.00369869667
v 0.00671031477 0.0067103234 0.00123332935
v 0.00761329554 0.00574866986 -0.00125656978
v 0.00725886925 0.00602568076 -0.00372725377
v 0.00679295574 0.0060152467 -0.00824926012
v 0.00941476862 0.00087376273 0.00376978116
v 0.00917573845 0.00261064504 -0.00125820708
v 0.0083522464 0.00424451863 -0.00474109802
v 0.00953995853 6.1719903e-07 0.00125667314
v 0.00899067841 0.00263477881 -0.00474255917
v 0.00909460789 -0.00258604793 0.00377220229
v 0.00949924473 -0.000880183855 -0.0012568472
v 0.0093217382 0.000935480208 -0.00474440926
v 0.00889595199 -0.00344569273 0.00125620248
v 0.00933496428 -0.000792813753 -0.0047431421
v 0.00754671278 -0.00569615559 0.00377211612
v 0.00853973951 -0.00425242111 -0.00125651173
v 0.00902995876 -0.00249592023 -0.00474364501
v 0.00705047092 -0.00642656375 0.00125674365
v 0.00841726693 -0.00411307418 -0.0047434451
v 0.00497905486 -0.00803804394 0.00377003433
v 0.0064266678 -0.00705030303 -0.00125822679
v 0.00751867627 -0.00558918748 -0.00474014457
v 0.00425274234 -0.00853955638 0.00125740385
v 0.0063623794 -0.0068769951 -0.00473547615
v 0.00173889238 -0.00929389469 0.00377064237
v 0.00344596467 -0.00889579478 -0.00125768025
v 0.00499084077 -0.0079287298 -0.00473333207
v 0.000880843277 -0.00949914501 0.00125811315
v 0.0034496502 -0.00871069552 -0.00472870687
v -0.0017357391 -0.00929447245 0.0037707946
v -5.60437375e-07 -0.0095398776 -0.00125847684
v 0.00179105459 -0.0091962114 -0.0047251253
v -0.00261025218 -0.0091758484 0.00125750418
v 7.14029971e-05 -0.00936904693 -0.00471833055
v -0.00472072284 -0.00822300432 0.0028550783
v -0.00313688818 -0.00897444 -0.00209888655
v -0.00165060091 -0.00922287685 -0.00471382619
v -0.00501144045 -0.00809447246 -0.00123370567
v -0.00508270261 -0.00741979211 -0.00861490768
v -0.00606105325 -0.00665792554 0.00861488777
v -0.00606105325 -0.00665792554 -0.00861490768
v -0.00658275027 -0.00669913265 -0.00460816168
v -0.00665447119 -0.00682941274 -0.000378513999
v -0.00654275074 -0.00672978391 0.00479455323
v -0.007612741 -0.00574943767 0.00125783248
v -0.0084645677 -0.00421303316 -0.00377219298
v -0.00853998537 -0.00425182298 -0.00125760901
v -0.00917552204 -0.0026112928 0.00125946677
v -0.00941502234 -0.000871433967 -0.00376898412
v -0.00949925477 -0.000880010121 -0.00125690945
v -0.00949926176 0.000879925024 0.00125685454
v -0.00909388505 0.00258869682 -0.00377114016
v -0.00917550581 0.00261132675 -0.00125965809
v -0.00853998063 0.00425186608 0.00125727807
v -0.00754478544 0.00569895325 -0.00376924363
v -0.00761279083 0.00574934035 -0.0012581036
v -0.00642697831 0.00705010932 0.00125626867
v -0.00497615381 0.0080397676 -0.0037709961
v -0.00502178304 0.0081111919 -0.00125787997
v -0.00344664749 0.00889552369 0.00125754469
v -0.00173583846 0.00929444199 -0.00377105528
v -0.001752431 0.00937755693 -0.00125775293
v -5.17241428e-07 0.0095398986 0.0012571978
v 0.00173899298 0.00929388532 -0.00377048734
v 0.00175332345 0.00937739078 -0.00125755886
v 0.00344596467 0.00889580016 0.00125766034
v 0.00590720179 0.00711372764 -0.00616014999
v 0.00496462777 0.00814831428 -0.0019475579
v 0.00497240174 0.0081717037 0.000565570994
v 0.00571158323 0.00756546269 0.00247454412
v 0.00389492186 -0.000424520929 0.00950001675
v 0.00718922269 -0.00362786057 0.00950006373
v 0.00797659893 -0.00175632547 0.00949226803
v -0.000805153478 -0.00389066179 0.00969556271
v -0.00179074777 -0.00357759883 0.00970861477
v -0.00241618164 -0.00311018192 0.00966413705
v -0.003771136 -0.00124065706 0.00969576439
v -0.00400516525 -0.000175038573 0.00970847697
v -0.00391012398 0.000484844691 0.00966407031
v -0.0035416433 0.0017917942 0.00957998302
v -0.00350313725 -0.00187050915 0.00969574983
v 0.00331450632 -0.00215463103 0.00960567263
v 0.00267014278 -0.00289627424 0.00966410101
v 0.00152322717 -0.00366525632 0.00958008306
v -0.000296092012 -0.00388875335 0.00950001675
v -0.00288551009 -0.002735458 0.00968376585
v -0.0012525173 0.0037741145 0.00969544524
v -0.000269190706 0.00399128515 0.00970861238
v 0.0010839811 0.00379218947 0.00959811886
v 0.00102999213 0.00794372231 0.00950001675
v 0.00703529768 0.00414334196 0.00949295988
v 0.00348658761 0.00195242754 0.00950001675
v -0.000215331728 -0.00801527518 0.00950002192
v 0.00176932814 0.00781235368 0.00950001675
v -0.00194458681 0.00345502883 0.00965455678
v 0.0021461487 0.00325641305 0.00950001675
v 0.00319507124 0.00734541089 0.00950001675
v 0.00444268012 0.00669209914 0.00950003451
v 0.007985529 0.00072275029 0.00950002199
v -0.00501957499 0.00625257799 0.00950002195
v -0.000793552974 0.00386987925 0.00450002152
v -0.00230834482 0.00314352185 0.00450002152
v -0.00335156554 0.00209115613 0.00450002152
v -0.00391426152 0.000170595705 0.00450002152
v -0.00354729011 -0.00173844746 0.00450002152
v -0.00221531849 -0.00323155176 0.00450002152
v -0.000401156068 -0.00392998368 0.00450002152
v 0.00197842123 -0.00336089461 0.00450002152
v 0.00285885501 -0.00267901652 0.00450002152
v 0.00394769676 -0.000620306847 0.00450002152
v 0.00335326461 0.00208831039 0.00450002152
v 0.001707117 -0.00185034482 0.00450002152
v 0.00222756865 -0.00113495915 0.00450002152
v 0.00254516393 0.000498741683 0.00450002152
v -0.00250375266 -0.000479280676 0.00450002152
v -0.0014969405 -0.00206336547 0.00450002152
v 0.00176777842 0.00176778705 0.00450002152
v 0.00203722204 0.00280648313 0.00450002152
v -0.000391101815 -0.00246920913 0.00450002152
v 0.00117992112 -0.00276792221 0.00450002152
v -0.00192550206 0.00162178087 0.00450002152
v -0.00235221384 0.000846835679 0.00450002152
v 0.00159386299 0.00278201094 0.00450002152
v -0.000906241627 0.00234873007 0.00450002152
v 0.00158765903 0.00195379353 -0.00450004143
v 0.000449920043 0.00247699583 -0.00450004143
v -0.00038315991 0.00299912648 -0.00450004143
v -0.00226651719 0.00126068123 -0.00450004143
v -0.00237087319 -0.000936649745 -0.00450004143
v -0.00153229234 -0.00197538465 -0.00450004143
v -0.000479515537 -0.00250364165 -0.00450004143
v 0.000846886657 -0.00235220521 -0.00450004143
v 0.00209063595 -0.00153491321 -0.00450004143
v 0.00249480448 0.000337575152 -0.00450004143
v 0.00215187075 0.00127259166 -0.00450004143
v -0.00376865025 -0.0011843063 -0.00450004143
v -0.00386879442 0.000492724485 -0.00450004143
v -0.00358902803 0.00157133457 -0.00450004143
v 0.00390060816 0.000368160144 -0.00450004143
v 0.00379910471 -0.00088157981 -0.00450004143
v 0.00341205866 -0.00192570724 -0.00450004143
v 0.00100953196 0.00378563619 -0.00450004143
v 0.00272051108 0.00286433356 -0.00450004143
v 0.00362172129 0.00144669682 -0.00450004143
v -0.00289390085 0.00261453063 -0.00450004143
v -0.00204845148 0.00333980309 -0.00450004143
v -9.88006373e-05 0.00389877231 -0.00450004143
v -0.00107285974 -0.0037495169 -0.00450004143
v -0.00209677594 -0.00330968589 -0.00450004143
v -0.00302252767 -0.00246455997 -0.00450004143
v 0.002614522 -0.00289383262 -0.00450004143
v 0.00169978184 -0.00353001555 -0.00450004143
v 0.000492715857 -0.00386872619 -0.00450004143
v -0.000296092012 -0.00388875335 -0.00450004143
v 0.00573243688 0.00690995126 0.00875966776
v 0.00459324574 0.00763074926 0.00897792282
v 0.00309590353 0.00843351094 0.00878650285
v -0.00020591916 0.00898073472 0.00878824683
v -0.00469479507 0.00758990544 0.00893654333
v -0.00647292135 0.00617638499 0.00885020691
v -0.00751111505 0.0048610893 0.00885020691
v -0.00796398964 0.00413480748 0.00877809258
v -0.00828573702 0.00337532432 0.00885020691
v -0.00876984594 0.00177118451 0.00885020691
v -0.00889656351 0.000705556754 0.00893652248
v -0.00880894659 -0.00156506627 0.00885020691
v -0.00836262701 -0.00318017333 0.00885020691
v -0.00762305258 -0.0046837005 0.00885020691
v -0.00715086458 -0.00537690251 0.00885020691
v -0.00391172322 0.00731149723 0.00947157582
v -0.00572703263 0.00589804749 0.00948167674
v -0.0064319251 0.00504704217 0.00948998892
v -0.0070391328 0.00439792761 0.009471362
v -0.00776383572 0.00297310555 0.00946711401
v -0.00809887461 0.00153094954 0.00948011492
v -0.00821153298 -0.00115360221 0.00947157456
v -0.00721771873 -0.004082094 0.0094715807
v -0.00600020903 -0.00558633062 0.00948474512
v -0.00459429531 -0.00690309667 0.0094715657
v -0.0017460776 -0.00810627122 0.00947156447
v 0.000552657117 -0.00820246989 0.00948167527
v 0.00164130034 -0.00800926032 0.00948998805
v 0.00252515514 -0.0079066358 0.00947135752
v 0.00399821583 -0.00728898382 0.00946711873
v 0.00453063844 -0.00683246798 0.00948474491
v 0.0055779493 -0.00621192912 0.00945509455
v 0.00739303916 -0.00375543166 0.00947156928
v 0.00831593046 -0.000741245287 0.00945505976
v 0.00808147 0.0015086202 0.00948167247
v 0.00774521897 0.00265392671 0.00948769836
v 0.00755186681 0.00347613296 0.00946714037
v 0.00651593883 0.00545426613 0.00938669964
v 0.0050741427 0.0064347564 0.00948690085
v 0.00590012397 0.00593659559 0.00945631498
v 0.00612901021 0.0061697723 0.00925039168
v 0.0056535926 0.00690650656 0.00897128229
v -0.00375995634 0.00811848313 0.00885020691
v 0.00787827256 0.00353506094 0.00930873084
v 0.00766741818 0.00434466031 0.00914072004
v 0.00687839367 0.00566209176 0.00895659214
v 0.00632646086 0.00632640988 0.00885020691
v 0.00739505293 0.00503585011 0.00885020691
v 0.00837586543 0.00154033595 0.00938825146
v 0.00783410075 0.00432125003 0.00885020691
v 0.0082043648 0.00356862218 0.00885020691
v 0.00870534635 0.000994444328 0.00919663081
v 0.00854565791 0.00248492918 0.00898733551
v 0.00872590544 0.00197628409 0.00885020691
v 0.00854936203 -0.00121265151 0.0093087991
v 0.00883838466 0.00112008186 0.00895664026
v 0.00894131663 0.000314566201 0.00885020691
v 0.00790614939 -0.00316570369 0.00938823142
v 0.00886177132 -0.000819259939 0.00898742637
v 0.00884320738 -0.00135817855 0.00885020691
v 0.00774256976 -0.00399953731 0.00925416623
v 0.00855323164 -0.00245870519 0.00898740166
v 0.00843491556 -0.00298323958 0.00885020691
v 0.00636402619 -0.00574154136 0.00935121007
v 0.00794495635 -0.00401012021 0.00898726108
v 0.00773074629 -0.00450369447 0.00885020691
v 0.00634426243 -0.00618971476 0.00906736743
v 0.00722955125 -0.00520609935 0.00895676455
v 0.00675537588 -0.00586619704 0.00885020691
v 0.00429823493 -0.00755093859 0.00926263964
v 0.00507881566 -0.00726419121 0.0090673271
v 0.00554313662 -0.00702288478 0.00885020691
v 0.00258887713 -0.00823776666 0.0093087583
v 0.000550050555 -0.00849855752 0.00938826256
v 0.0021840654 -0.00860408926 0.00907487238
v 0.00373891971 -0.00813907751 0.0088495188
v 0.00258460047 -0.00856545299 0.00885020691
v -0.00027359064 -0.00871048709 0.00925400922
v 0.00177111628 -0.00876983731 0.00885020691
v 0.00133800282 -0.00887244105 0.00880287242
v -0.00260191289 -0.00810916231 0.00938824425
v -0.0011202509 -0.00880599566 0.0090748461
v 0.000104928039 -0.00894626706 0.00885020691
v -0.000338139829 -0.00896651738 0.00880277405
v -0.00344577569 -0.00800457431 0.00925405048
v -0.0015650749 -0.00880893796 0.00885020691
v -0.00200268645 -0.00874666257 0.00880247944
v -0.00539199964 -0.00659205364 0.00938823311
v -0.00426894387 -0.00778312917 0.00907485643
v -0.00318012235 -0.00836261838 0.00885020691
v -0.00359693084 -0.00822070765 0.00880219329
v -0.00613895102 -0.00618538093 0.00925406973
v -0.00468370912 -0.00762298434 0.00885020691
v -0.00539977963 -0.00717032069 0.00877032249
v -0.0074325827 -0.00415776739 0.00938819568
v -0.00682352263 -0.00567786809 0.0090750573
v -0.00602290628 -0.00661596387 0.00885020691
v -0.0066159725 -0.00602289765 0.00885020691
v -0.0079781363 -0.00350634239 0.00925414115
v -0.00843887284 -0.00114585424 0.00938826722
v -0.00812716008 -0.00361275249 0.00899464094
v -0.00870817587 -0.00033899199 0.00925399102
v -0.00865827843 -0.00203356184 0.00899489099
v -0.008368063 0.00185508273 0.00935123729
v -0.00888563754 -0.000383984241 0.00899471938
v -0.00856314073 0.00229971015 0.00906496542
v -0.00730266367 0.00460814283 0.00930872455
v -0.00786087426 0.00398398142 0.00914073755
v -0.00591619616 0.00612588968 0.0093882617
v -0.00542482454 0.00682050533 0.00925396988
v -0.00676196405 0.00577736674 0.00899471824
v -0.00345433121 0.00784434418 0.00935120206
v -0.00556597601 0.00693687272 0.00899495083
v -0.00321089873 0.00826472093 0.00906501596
v -0.00201056001 0.00800171763 0.00947069126
v -0.00173861374 0.00850720067 0.00924831518
v -0.00174701218 0.00821088942 0.00943419161
v -0.000483250596 0.00823626191 0.00947069126
v -0.000980478659 0.0088656403 0.00901471403
v -0.00109157589 0.00871202506 0.00920330907
v -7.70768688e-05 0.00836801488 0.00944862607
v 0.00145297898 0.0083584698 0.00938570895
v 0.0022598127 0.00863535057 0.00901225771
v 0.00217639827 0.00850607944 0.00920331378
v 0.00203022798 0.00834077112 0.00935925896
v 0.00286493878 0.00778153512 0.00947156869
v 0.00446705744 0.00753696315 0.00918190758
v 0.00429563023 0.00740774989 0.00934585415
v 0.00464382174 0.0068193999 0.00947069126
v 0.00712133543 0.00541986517 -0.00890217169
v 0.00725025492 0.00498770813 -0.00917411696
v 0.00801285818 0.00398195228 -0.00890534754
v 0.00805185655 0.00355128769 -0.00917408865
v 0.00861484549 0.00241694303 -0.00890592534
v 0.00857259275 0.00198853317 -0.00917409777
v 0.00891435839 0.000768399923 -0.00890596681
v 0.00879292627 0.000354899421 -0.00917423137
v 0.00890157943 -0.000906666935 -0.00890557975
v 0.0087045394 -0.00129377156 -0.00917413802
v 0.00856151434 -0.00198314029 -0.00918475054
v 0.00846691121 -0.00289716937 -0.00888723044
v 0.00808577816 -0.00347337142 -0.00917642704
v 0.00777902703 -0.00442387576 -0.00888696804
v 0.00729590394 -0.00492079571 -0.00917639416
v 0.00681967736 -0.00579460082 -0.00888678872
v 0.00624995276 -0.00619540147 -0.00917637834
v 0.00562125908 -0.00696336558 -0.00888664426
v 0.004985398 -0.00725203361 -0.00917630784
v 0.00422641809 -0.00788834002 -0.00888646331
v 0.00354603866 -0.00805425401 -0.00917636599
v 0.00268456358 -0.00853722004 -0.00888625478
v 0.00198208685 -0.00857415122 -0.0091763845
v 0.00104812047 -0.00888793587 -0.00888593098
v 0.000348309451 -0.0087933758 -0.00917640473
v -0.000623923341 -0.00892795435 -0.00888556279
v -0.00129730148 -0.00870413697 -0.009176362
v -0.00227436102 -0.00865608551 -0.00888526492
v -0.00307264114 -0.0084059808 -0.00888515103
v -0.00384508182 -0.00808209212 -0.00888484427
v -0.0045952875 -0.00763048397 -0.0089590736
v -0.00583783184 -0.0065978885 -0.0091668741
v -0.00647854886 -0.00595571327 -0.00917418812
v -0.0070074903 -0.00532325241 -0.00917425511
v -0.00747472172 -0.00464463279 -0.00917411737
v -0.00787726876 -0.00392331847 -0.00917412948
v -0.00820995942 -0.00316853173 -0.00917415965
v -0.00847064832 -0.00238593812 -0.00917405722
v -0.00865672037 -0.00158290112 -0.00917408518
v -0.00876690861 -0.000764886393 -0.00917409065
v -0.0087999189 6.01257591e-05 -0.00917415394
v -0.0087556786 0.000883330207 -0.00917420327
v -0.00863463913 0.00169897937 -0.00917414178
v -0.00843715944 0.00250099018 -0.00917424279
v -0.00816577898 0.00328052263 -0.00917424557
v -0.00782351309 0.00402957929 -0.00917408212
v -0.00741188131 0.00474420996 -0.00917409405
v -0.00693442297 0.00541828837 -0.00917407833
v -0.00639610612 0.00604419836 -0.00917414817
v -0.00580283763 0.00661597549 -0.00917409611
v -0.00515856881 0.00712982791 -0.00917403635
v -0.00446704626 0.00758215874 -0.00917412258
v -0.00373819407 0.00796676464 -0.00917409828
v -0.00297499207 0.00828198683 -0.00917420589
v -0.00218608764 0.00852428832 -0.00917419417
v -0.00137879808 0.00869151029 -0.00917413367
v -0.000559062221 0.00878243276 -0.0091741212
v 0.000265212069 0.00879621584 -0.00917411885
v 0.00108709548 0.00873276274 -0.00917414346
v 0.0019002913 0.00859256781 -0.00917411431
v 0.00269701943 0.00837667706 -0.00917417084
v 0.00346828943 0.00808792774 -0.00917411326
v 0.00421260052 0.00772639712 -0.00917413087
v 0.00492202002 0.00729486025 -0.00917422018
v 0.0057393433 0.00689539446 -0.00878627653
v 0.00613107268 0.00651381803 -0.00891566118
v -0.00505252232 -0.0070596321 -0.00926925904
v 0.00600077684 0.0063835122 -0.00918211583
v -0.0038572576 -0.00755708894 -0.00940218751
v -0.00313256159 -0.0078851411 -0.00940217079
v -0.0023801165 -0.00814390445 -0.00940217259
v -0.000820113662 -0.00844489127 -0.00940215845
v 0.000768645664 -0.00844966665 -0.00940218955
v 0.00244787057 -0.00822699208 -0.00932807162
v 0.00374640912 -0.00754702017 -0.0094424113
v 0.00515838309 -0.00673647719 -0.00940214158
v 0.00632393876 -0.00565661754 -0.00940213584
v 0.00726763161 -0.00437824543 -0.00940219893
v 0.00795609769 -0.00294751691 -0.00940218643
v 0.0083998345 -0.000660523577 -0.00944242657
v 0.00842940625 0.000966559591 -0.00940214461
v 0.00753180253 0.00411693335 -0.00932802345
v 0.00661409354 0.00531428115 -0.00940216198
v 0.00597756465 0.00601074114 -0.00940674657
v -0.0050963512 -0.00663598977 -0.00944177782
v 0.00464382174 0.0068193999 -0.00947071117
v 0.00398483279 0.00722429425 -0.00947071117
v 0.00273564877 0.0077247167 -0.00948690768
v 0.00182237627 0.00804665954 -0.00947071117
v 0.00106086733 0.00818196208 -0.00947071117
v 0.000483456742 0.00818051416 -0.00948690839
v -0.00105034573 0.00812722782 -0.00948690657
v -0.00223871629 0.00788719063 -0.00948799775
v -0.00395480328 0.00717734443 -0.0094869101
v -0.00531438254 0.0062611439 -0.00948822845
v -0.00630952024 0.00522929681 -0.00948690721
v -0.00692639349 0.00448271901 -0.00947071117
v -0.00731573103 0.00381437213 -0.00947071117
v -0.00764081476 0.00311258704 -0.00947071117
v -0.00789866445 0.00238338382 -0.00947071117
v -0.00799151855 0.00181370236 -0.00948691302
v -0.00820455549 0.000868829793 -0.00947071117
v -0.00824985502 9.67112247e-05 -0.00947071117
v -0.0082226753 -0.000676241809 -0.00947071117
v -0.00812325475 -0.00144323438 -0.00947071117
v -0.00795242784 -0.00219759076 -0.00947071117
v -0.00771162508 -0.00293257564 -0.00947071117
v -0.00708261603 -0.00412214854 -0.00948690537
v -0.00659427641 -0.0049583587 -0.00947071117
v -0.00610098837 -0.00555410712 -0.00947071117
v -0.00555405615 -0.00610097974 -0.00947071117
v -0.00430008391 -0.00695361448 -0.00948999867
v -0.001443243 -0.00812324613 -0.00947071117
v 9.67025976e-05 -0.008249906 -0.00947071117
v 0.00143037818 -0.00806904167 -0.00948690562
v 0.002178972 -0.00789976499 -0.00948691152
v 0.00448265078 -0.00692644446 -0.00947071117
v 0.0056956053 -0.00596907466 -0.00947071117
v 0.00670864584 -0.00480243295 -0.00947071117
v 0.00748648646 -0.0034672889 -0.00947071117
v 0.00800170901 -0.00201055139 -0.00947071117
v 0.00806762694 -0.00143757536 -0.00948691811
v 0.00818584005 3.79694715e-05 -0.00948968074
v 0.00804665091 0.0018224445 -0.00947071117
v 0.00805647563 0.00236067313 -0.00946036215
v 0.00681939127 0.00464383037 -0.00947071117
v 0.00583388808 0.00583395631 -0.00947071117
f 1 2 3
f 3 2 4
f 3 4 5
f 5 4 6
f 5 6 7
f 7 6 8
f 7 8 9
f 9 8 10
f 9 10 11
f 11 10 12
f 11 12 13
f 13 12 14
f 13 14 15
f 15 14 16
f 15 16 17
f 17 16 18
f 17 18 19
f 19 18 20
f 19 20 21
f 21 20 22
f 21 22 23
f 23 22 24
f 23 24 25
f 25 24 26
f 25 26 27
f 27 26 28
f 27 28 29
f 29 28 30
f 29 30 31
f 31 30 32
f 31 32 33
f 33 32 34
f 33 34 35
f 35 34 36
f 35 36 37
f 37 36 38
f 37 38 39
f 39 38 40
f 39 40 41
f 41 40 42
f 41 42 43
f 43 42 44
f 43 44 45
f 45 44 46
f 45 46 47
f 47 46 48
f 47 48 49
f 49 48 50
f 49 50 51
f 51 50 52
f 51 52 53
f 53 52 54
f 53 54 55
f 55 54 56
f 55 56 57
f 57 56 58
f 57 58 59
f 59 58 60
f 59 60 61
f 61 60 62
f 61 62 63
f 63 62 64
f 63 64 65
f 65 64 66
f 65 66 67
f 67 66 68
f 67 68 69
f 69 68 70
f 69 70 71
f 71 70 72
f 71 72 1
f 1 72 2
f 40 38 73
f 73 38 36
f 73 36 34
f 46 44 73
f 73 44 42
f 73 42 40
f 52 50 73
f 73 50 48
f 73 48 46
f 58 56 73
f 73 56 54
f 73 54 52
f 64 62 73
f 73 62 60
f 73 60 58
f 70 68 73
f 73 68 66
f 73 66 64
f 4 2 73
f 73 2 72
f 73 72 70
f 10 8 73
f 73 8 6
f 73 6 4
f 16 14 73
f 73 14 12
f 73 12 10
f 22 20 73
f 73 20 18
f 73 18 16
f 28 26 73
f 73 26 24
f 73 24 22
f 34 32 73
f 73 32 30
f 73 30 28
f 33 35 74
f 74 35 37
f 74 37 39
f 27 29 74
f 74 29 31
f 74 31 33
f 21 23 74
f 74 23 25
f 74 25 27
f 15 17 74
f 74 17 19
f 74 19 21
f 9 11 74
f 74 11 13
f 74 13 15
f 3 5 74
f 74 5 7
f 74 7 9
f 69 71 74
f 74 71 1
f 74 1 3
f 63 65 74
f 74 65 67
f 74 67 69
f 57 59 74
f 74 59 61
f 74 61 63
f 51 53 74
f 74 53 55
f 74 55 57
f 45 47 74
f 74 47 49
f 74 49 51
f 39 41 74
f 74 41 43
f 74 43 45
f 85 604 81
f 78 90 88
f 78 88 591
f 87 89 78
f 78 89 90
f 81 602 559
f 81 559 601
f 87 595 594
f 79 92 87
f 87 92 554
f 93 572 86
f 86 572 571
f 91 574 93
f 93 574 573
f 91 575 574
f 138 139 135
f 141 142 143
f 146 434 147
f 147 441 148
f 195 137 135
f 193 195 135
f 196 195 197
f 197 195 193
f 197 193 198
f 135 201 193
f 193 202 198
f 198 202 203
f 198 203 199
f 199 203 134
f 199 134 200
f 200 134 480
f 201 204 193
f 193 204 202
f 202 205 203
f 203 205 133
f 203 133 482
f 203 482 134
f 139 140 135
f 135 140 201
f 140 206 201
f 201 206 204
f 204 207 202
f 202 207 208
f 202 208 205
f 205 208 132
f 205 132 484
f 205 484 133
f 140 141 206
f 206 209 204
f 204 209 207
f 207 210 208
f 208 210 131
f 208 131 486
f 208 486 132
f 141 211 206
f 206 211 209
f 209 212 207
f 207 212 213
f 207 213 210
f 210 213 130
f 210 130 488
f 210 488 131
f 141 143 211
f 211 214 209
f 209 214 212
f 212 215 213
f 213 215 129
f 213 129 491
f 213 491 130
f 143 144 216
f 143 216 211
f 211 216 214
f 214 217 212
f 212 217 218
f 212 218 215
f 215 218 128
f 215 128 493
f 215 493 129
f 144 145 216
f 216 219 214
f 214 219 217
f 217 220 218
f 218 220 127
f 218 127 495
f 218 495 128
f 145 146 221
f 145 221 216
f 216 221 219
f 219 222 217
f 217 222 223
f 217 223 220
f 220 223 126
f 220 126 497
f 220 497 127
f 221 224 219
f 219 224 222
f 222 225 223
f 223 225 125
f 223 125 499
f 223 499 126
f 146 147 226
f 146 226 221
f 221 226 224
f 224 227 222
f 222 227 228
f 222 228 225
f 225 228 124
f 225 124 501
f 225 501 125
f 226 229 224
f 224 229 227
f 227 230 228
f 228 230 123
f 228 123 503
f 228 503 124
f 147 148 231
f 147 231 226
f 226 231 229
f 229 232 227
f 227 232 233
f 227 233 230
f 230 233 122
f 230 122 505
f 230 505 123
f 444 240 148
f 148 240 231
f 231 234 229
f 229 234 232
f 232 121 233
f 233 121 507
f 233 507 122
f 121 508 507
f 240 239 231
f 231 239 234
f 234 120 232
f 232 120 121
f 121 120 509
f 121 509 508
f 120 119 509
f 239 238 234
f 234 238 194
f 234 194 120
f 120 194 235
f 120 235 119
f 241 239 240
f 149 240 236
f 236 240 444
f 118 237 238
f 238 237 194
f 150 149 236
f 115 117 118
f 115 118 242
f 242 118 238
f 242 238 243
f 243 238 239
f 243 239 241
f 152 241 240
f 152 240 151
f 151 240 149
f 151 149 150
f 116 117 115
f 244 243 241
f 244 241 155
f 155 241 152
f 155 152 154
f 154 152 153
f 153 152 151
f 114 116 115
f 112 114 115
f 112 115 245
f 245 115 242
f 245 242 246
f 246 242 243
f 246 243 244
f 158 244 155
f 158 155 157
f 157 155 156
f 156 155 154
f 113 114 112
f 247 246 244
f 247 244 161
f 161 244 158
f 161 158 160
f 160 158 159
f 159 158 157
f 111 113 112
f 109 111 112
f 109 112 248
f 248 112 245
f 248 245 249
f 249 245 246
f 249 246 247
f 164 247 161
f 164 161 163
f 163 161 162
f 162 161 160
f 110 111 109
f 250 249 247
f 250 247 167
f 167 247 164
f 167 164 166
f 166 164 165
f 165 164 163
f 108 110 109
f 106 108 109
f 106 109 251
f 251 109 248
f 251 248 252
f 252 248 249
f 252 249 250
f 169 250 167
f 169 167 168
f 168 167 358
f 358 167 166
f 107 108 106
f 253 252 250
f 253 250 172
f 172 250 169
f 172 169 171
f 171 169 170
f 170 169 168
f 105 107 106
f 103 105 106
f 103 106 254
f 254 106 251
f 254 251 255
f 255 251 252
f 255 252 253
f 175 253 172
f 175 172 174
f 174 172 173
f 173 172 171
f 104 105 103
f 256 255 253
f 256 253 178
f 178 253 175
f 178 175 177
f 177 175 176
f 176 175 174
f 102 104 103
f 100 102 103
f 100 103 257
f 257 103 254
f 257 254 258
f 258 254 255
f 258 255 256
f 181 256 178
f 181 178 180
f 180 178 179
f 179 178 177
f 101 102 100
f 259 258 256
f 259 256 183
f 183 256 181
f 183 181 182
f 182 181 180
f 99 101 100
f 183 182 354
f 97 99 100
f 97 100 260
f 260 100 257
f 260 257 261
f 261 257 258
f 261 258 259
f 186 259 183
f 186 183 184
f 184 183 354
f 98 99 97
f 186 184 185
f 262 261 259
f 262 259 188
f 188 259 186
f 188 186 187
f 187 186 185
f 96 98 97
f 188 187 353
f 95 96 97
f 95 97 264
f 264 97 260
f 264 260 265
f 265 260 261
f 265 261 262
f 190 262 188
f 190 188 189
f 189 188 353
f 94 96 95
f 190 189 191
f 266 265 262
f 266 262 136
f 136 262 190
f 136 190 192
f 192 190 191
f 544 94 263
f 263 94 95
f 136 192 351
f 351 192 191
f 351 195 136
f 136 195 266
f 266 195 196
f 266 196 265
f 265 196 197
f 265 197 264
f 264 197 198
f 264 198 95
f 95 198 199
f 95 199 263
f 263 199 200
f 263 200 544
f 544 200 545
f 278 268 267
f 267 268 269
f 284 285 286
f 280 378 379
f 280 379 380
f 280 380 381
f 270 289 281
f 281 289 280
f 280 289 377
f 280 377 378
f 285 290 286
f 292 294 285
f 285 294 293
f 287 389 288
f 288 389 294
f 288 294 292
f 288 386 387
f 288 387 287
f 269 295 267
f 267 295 288
f 288 295 385
f 288 385 386
f 276 368 369
f 276 369 370
f 276 370 371
f 291 296 276
f 276 296 367
f 276 367 368
f 307 288 314
f 314 288 292
f 314 292 285
f 314 285 319
f 319 285 297
f 297 285 284
f 297 284 283
f 297 283 291
f 297 291 298
f 298 291 299
f 299 291 276
f 299 276 300
f 300 276 275
f 300 275 274
f 300 274 301
f 301 274 273
f 301 273 277
f 301 277 282
f 301 282 302
f 302 282 272
f 302 272 271
f 302 271 303
f 303 271 270
f 303 270 281
f 303 281 280
f 303 280 316
f 316 280 304
f 304 280 305
f 305 280 279
f 305 279 278
f 305 278 306
f 306 278 267
f 306 267 288
f 306 288 307
f 308 305 309
f 309 305 306
f 309 306 310
f 311 301 312
f 312 301 302
f 310 306 307
f 310 307 313
f 313 307 314
f 312 302 303
f 312 303 315
f 315 303 316
f 308 316 304
f 308 304 305
f 317 299 318
f 318 299 311
f 311 299 300
f 311 300 301
f 319 297 320
f 320 297 317
f 317 297 298
f 317 298 299
f 321 313 314
f 321 314 322
f 322 314 319
f 322 319 323
f 323 319 320
f 323 320 324
f 324 320 317
f 324 317 318
f 324 318 311
f 324 311 325
f 325 311 312
f 325 312 326
f 326 312 327
f 327 312 315
f 327 315 316
f 327 316 328
f 328 316 329
f 329 316 308
f 329 308 309
f 329 309 310
f 329 310 330
f 330 310 331
f 331 310 321
f 321 310 313
f 325 332 324
f 324 332 333
f 324 333 334
f 330 335 329
f 329 335 336
f 329 336 337
f 322 338 321
f 321 338 339
f 321 339 331
f 331 339 330
f 330 339 340
f 330 340 335
f 324 334 341
f 324 341 342
f 324 342 323
f 322 323 343
f 322 343 338
f 327 344 345
f 327 345 326
f 326 345 325
f 325 345 346
f 325 346 332
f 329 337 347
f 329 347 348
f 329 348 328
f 328 348 327
f 327 348 349
f 327 349 350
f 327 350 344
f 82 339 83
f 83 339 84
f 84 339 338
f 84 338 86
f 86 338 343
f 86 343 323
f 86 323 93
f 93 323 342
f 93 342 91
f 91 342 341
f 91 341 334
f 91 334 80
f 80 334 333
f 80 333 332
f 80 332 76
f 76 332 77
f 77 332 78
f 78 332 346
f 78 346 345
f 78 345 344
f 78 344 350
f 78 350 87
f 87 350 349
f 87 349 348
f 87 348 79
f 79 348 347
f 79 347 337
f 79 337 75
f 75 337 81
f 81 337 336
f 81 336 335
f 81 335 85
f 85 335 340
f 85 340 339
f 85 339 82
f 351 191 392
f 191 189 353
f 353 187 473
f 187 185 473
f 185 184 354
f 354 182 469
f 177 176 355
f 176 174 355
f 174 173 463
f 173 171 356
f 171 170 461
f 170 168 357
f 358 166 359
f 166 165 456
f 165 163 360
f 163 162 361
f 162 160 361
f 160 159 455
f 159 157 362
f 157 156 453
f 156 154 363
f 154 153 451
f 153 151 364
f 151 150 365
f 366 291 283
f 366 296 291
f 371 275 276
f 372 274 275
f 372 273 274
f 373 277 273
f 373 282 277
f 375 282 374
f 375 272 282
f 375 271 272
f 376 270 271
f 376 289 270
f 382 280 381
f 382 279 280
f 382 278 279
f 383 268 278
f 384 295 269
f 390 287 388
f 389 287 390
f 390 388 391
f 396 137 195
f 397 396 195
f 386 385 399
f 386 399 387
f 387 399 394
f 395 398 396
f 396 398 137
f 395 400 398
f 398 400 137
f 295 384 385
f 385 384 399
f 399 402 394
f 394 402 403
f 394 403 395
f 395 403 401
f 395 401 400
f 400 401 137
f 403 135 137
f 401 403 137
f 384 405 399
f 399 405 402
f 402 406 403
f 403 406 404
f 403 404 138
f 403 138 135
f 404 406 138
f 268 383 269
f 269 383 408
f 269 408 384
f 384 408 405
f 405 409 402
f 402 409 407
f 402 407 406
f 406 407 139
f 406 139 138
f 407 409 139
f 408 411 405
f 405 411 412
f 405 412 409
f 409 412 410
f 409 410 140
f 409 140 139
f 410 412 140
f 413 141 140
f 278 382 383
f 383 382 414
f 383 414 408
f 408 414 411
f 411 415 412
f 412 415 413
f 412 413 140
f 413 415 141
f 416 142 141
f 414 417 411
f 411 417 418
f 411 418 415
f 415 418 416
f 415 416 141
f 416 418 142
f 419 143 142
f 381 380 420
f 381 420 382
f 382 420 421
f 382 421 414
f 414 421 417
f 417 419 418
f 418 419 142
f 419 417 143
f 422 144 143
f 379 423 380
f 380 423 420
f 421 422 417
f 417 422 143
f 422 421 144
f 426 145 144
f 378 377 424
f 378 424 379
f 379 424 423
f 423 425 420
f 420 425 426
f 420 426 421
f 421 426 144
f 427 146 145
f 289 376 377
f 377 376 424
f 424 428 423
f 423 428 425
f 425 427 426
f 426 427 145
f 429 430 146
f 425 429 427
f 427 429 146
f 376 431 424
f 424 431 428
f 428 432 425
f 425 432 430
f 425 430 429
f 433 434 146
f 432 433 430
f 430 433 146
f 271 375 376
f 376 375 431
f 431 435 428
f 428 435 432
f 432 434 433
f 436 437 147
f 432 436 434
f 434 436 147
f 375 438 431
f 431 438 435
f 435 439 432
f 432 439 437
f 432 437 436
f 440 441 147
f 439 440 437
f 437 440 147
f 375 374 438
f 438 442 435
f 435 442 439
f 439 441 440
f 282 373 374
f 374 373 438
f 439 443 441
f 441 443 148
f 373 445 438
f 438 445 442
f 442 446 439
f 439 446 444
f 439 444 443
f 443 444 148
f 447 236 444
f 446 447 444
f 445 449 442
f 442 449 446
f 446 448 447
f 447 448 150
f 447 150 236
f 273 372 373
f 373 372 445
f 446 365 448
f 448 365 150
f 372 450 445
f 445 450 449
f 449 451 446
f 446 451 364
f 446 364 365
f 365 364 151
f 364 451 153
f 450 452 449
f 449 452 453
f 449 453 451
f 451 453 363
f 451 363 154
f 275 371 372
f 372 371 450
f 363 453 156
f 371 454 450
f 450 454 452
f 452 455 453
f 453 455 362
f 453 362 157
f 362 455 159
f 371 370 454
f 454 456 452
f 452 456 361
f 452 361 455
f 455 361 160
f 369 457 370
f 370 457 458
f 370 458 454
f 454 458 456
f 456 360 361
f 361 360 163
f 360 456 165
f 368 367 459
f 368 459 369
f 369 459 457
f 458 359 456
f 456 359 166
f 458 358 359
f 296 366 367
f 367 366 459
f 459 460 457
f 457 460 461
f 457 461 458
f 458 461 357
f 458 357 358
f 358 357 168
f 357 461 170
f 366 462 459
f 459 462 460
f 460 463 461
f 461 463 356
f 461 356 171
f 356 463 173
f 462 464 460
f 460 464 355
f 460 355 463
f 463 355 174
f 464 393 355
f 355 393 177
f 182 180 469
f 469 180 464
f 469 464 470
f 470 464 466
f 466 464 462
f 466 462 467
f 467 462 465
f 465 462 366
f 465 366 283
f 464 180 179
f 464 179 393
f 393 179 177
f 467 465 284
f 284 465 283
f 470 466 471
f 471 466 467
f 471 467 468
f 468 467 284
f 471 468 284
f 473 185 354
f 473 354 474
f 474 354 469
f 474 469 475
f 475 469 470
f 475 470 472
f 472 470 471
f 286 471 284
f 476 472 471
f 476 471 290
f 290 471 286
f 475 472 476
f 285 476 290
f 293 476 285
f 352 191 353
f 352 353 477
f 477 353 473
f 477 473 478
f 478 473 474
f 478 474 475
f 478 475 476
f 294 476 293
f 392 191 352
f 479 478 476
f 479 476 294
f 392 352 391
f 391 352 477
f 391 477 390
f 390 477 478
f 390 478 389
f 389 478 479
f 389 479 294
f 287 387 394
f 287 394 388
f 388 394 395
f 388 395 391
f 391 395 396
f 391 396 392
f 392 396 397
f 392 397 351
f 351 397 195
f 481 480 134
f 481 134 482
f 483 482 133
f 483 133 484
f 485 484 132
f 485 132 486
f 487 486 131
f 487 131 488
f 489 488 130
f 489 130 490
f 490 130 491
f 491 129 492
f 492 129 493
f 493 128 494
f 494 128 495
f 495 127 496
f 496 127 497
f 497 126 498
f 498 126 499
f 499 125 500
f 500 125 501
f 501 124 502
f 502 124 503
f 503 123 504
f 504 123 505
f 505 122 506
f 506 122 507
f 509 119 510
f 510 119 194
f 119 235 194
f 194 237 511
f 511 237 118
f 511 118 512
f 512 118 117
f 512 117 513
f 513 117 514
f 514 117 116
f 514 116 515
f 515 116 516
f 516 116 114
f 516 114 517
f 517 114 518
f 518 114 113
f 518 113 519
f 519 113 520
f 520 113 111
f 520 111 521
f 521 111 522
f 522 111 110
f 522 110 523
f 523 110 524
f 524 110 108
f 524 108 525
f 525 108 526
f 526 108 107
f 526 107 527
f 527 107 528
f 528 107 105
f 528 105 529
f 529 105 530
f 530 105 104
f 530 104 531
f 531 104 532
f 532 104 102
f 532 102 533
f 533 102 534
f 534 102 101
f 534 101 535
f 535 101 536
f 536 101 99
f 536 99 537
f 537 99 538
f 538 99 98
f 538 98 539
f 539 98 540
f 540 98 96
f 540 96 541
f 541 96 542
f 542 96 94
f 542 94 543
f 543 94 544
f 480 545 200
f 544 545 543
f 511 546 194
f 194 546 510
f 480 547 545
f 545 547 543
f 510 546 548
f 510 548 509
f 509 548 549
f 509 549 508
f 508 549 550
f 508 550 507
f 507 550 506
f 506 551 505
f 505 551 504
f 504 552 503
f 503 552 502
f 502 553 501
f 501 553 500
f 500 554 499
f 499 554 498
f 498 555 497
f 497 555 496
f 496 556 495
f 495 556 494
f 494 557 493
f 493 557 492
f 492 558 491
f 491 558 490
f 489 559 488
f 488 559 487
f 487 560 486
f 486 560 485
f 485 604 484
f 484 604 483
f 483 561 482
f 482 561 481
f 481 562 480
f 480 562 563
f 480 563 547
f 547 563 543
f 511 564 546
f 563 565 543
f 543 565 566
f 543 566 542
f 542 566 84
f 542 84 541
f 541 84 567
f 541 567 540
f 540 567 568
f 540 568 539
f 539 568 569
f 539 569 538
f 538 569 570
f 538 570 537
f 537 570 86
f 537 86 536
f 536 86 571
f 536 571 535
f 535 571 572
f 535 572 534
f 534 572 533
f 533 572 93
f 533 93 532
f 532 93 573
f 532 573 531
f 531 573 574
f 531 574 530
f 530 574 529
f 529 574 528
f 528 574 575
f 528 575 527
f 527 575 576
f 527 576 526
f 526 576 577
f 526 577 525
f 525 577 578
f 525 578 524
f 524 578 579
f 524 579 523
f 523 579 580
f 523 580 522
f 522 580 581
f 522 581 521
f 521 581 582
f 521 582 520
f 520 582 583
f 520 583 519
f 519 583 584
f 519 584 518
f 518 584 585
f 518 585 517
f 517 585 586
f 517 586 516
f 516 586 77
f 516 77 515
f 515 77 587
f 515 587 514
f 514 587 588
f 514 588 513
f 513 588 589
f 513 589 512
f 512 589 590
f 512 590 511
f 511 590 564
f 564 591 546
f 546 591 548
f 550 592 506
f 506 592 551
f 551 593 504
f 504 593 552
f 552 594 502
f 502 594 595
f 502 595 553
f 553 595 87
f 553 87 500
f 500 87 554
f 554 596 498
f 498 596 555
f 555 597 496
f 496 597 556
f 556 598 494
f 494 598 557
f 557 599 492
f 492 599 558
f 558 600 490
f 490 600 601
f 490 601 489
f 489 601 559
f 559 602 487
f 487 602 560
f 560 603 485
f 485 603 604
f 483 604 85
f 483 85 561
f 561 85 605
f 561 605 481
f 481 605 562
f 562 606 563
f 606 83 563
f 563 83 565
f 565 83 566
f 566 83 84
f 84 86 567
f 568 567 86
f 568 86 569
f 569 86 570
f 576 575 91
f 576 91 577
f 577 91 578
f 578 91 80
f 578 80 579
f 579 80 580
f 581 580 80
f 581 80 582
f 582 80 583
f 583 80 76
f 583 76 584
f 584 76 585
f 585 76 586
f 586 76 77
f 77 78 587
f 588 587 78
f 588 78 589
f 589 78 590
f 590 78 591
f 590 591 564
f 591 88 548
f 548 88 90
f 548 90 549
f 549 90 550
f 550 90 89
f 550 89 592
f 592 89 551
f 551 89 87
f 551 87 593
f 593 87 552
f 552 87 594
f 596 554 92
f 596 92 555
f 555 92 597
f 597 92 79
f 597 79 556
f 556 79 598
f 598 79 75
f 598 75 557
f 557 75 599
f 599 75 81
f 599 81 558
f 558 81 600
f 600 81 601
f 560 602 81
f 560 81 603
f 603 81 604
f 605 85 82
f 605 82 562
f 562 82 606
f 606 82 83
