v 0.00224665878 -0.00773969241 0.00669541776
v 0.00204206586 -0.00703297477 0.00752481452
v 0.0022095682 -0.00556544254 0.0086299876
v 0.00319802935 -0.0040642834 0.00911145928
v 0.00401739893 -0.00321851742 0.00915534061
v 0.00344691936 -0.00861212831 0.00479349076
v 0.00239895324 -0.00790506962 0.00610040796
v 0.00266605332 -0.00481956387 0.00918565283
v 0.00487019528 -0.00259872355 0.00884916466
v 0.00509271189 -0.00847065894 0.00354452725
v 0.0040666912 -0.00849074486 0.00410234106
v -0.000384092556 -0.0109582189 0.00586094713
v 0.00692823581 -0.00205176017 0.00758798112
v 0.00778644724 -0.00221199142 0.00670461987
v 0.00806528662 -0.00249066181 0.00613943695
v 0.00833762646 -0.00275336017 0.00571650745
v 0.00815032462 -0.00937515858 -0.000302799822
v 0.00639894607 -0.00753023465 0.00288607858
v 0.00649599963 -0.0106009371 7.72608591e-05
v 0.00748322944 -0.00991851452 -0.000193008066
v 0.00629080154 -0.00209349995 0.00811585404
v 0.0117396116 -0.000954280571 0.00398144053
v 0.00861108712 -0.00395719636 0.00421656597
v 0.00756818233 -0.00712815813 0.00274250251
v 0.0113914547 -0.00492136867 0.000772520394
v 0.00574234941 -0.0089820485 -0.00316955194
v 0.00675036762 -0.0103915801 -0.00138120376
v 0.00349913071 -0.0104870208 -0.00217741713
v 0.00514575451 -0.0113282898 -0.000791693286
v 0.00352695988 -0.0119571117 8.36011829e-05
v 0.000348140103 -0.0112808601 -2.89947997e-05
v 0.0019643589 -0.0122508845 0.00120605876
v 0.000533082571 -0.0121956819 0.00252125141
v -0.0022109816 -0.0107309782 0.00282009579
v -0.000309687253 -0.0119590843 0.00348798117
v -0.00128347045 -0.0114315179 0.00474962662
v -0.00245218818 -0.00980745372 0.00727308373
v -0.00546839495 -0.00724599282 0.00464033981
v -0.00263405115 -0.00918301059 0.00799095022
v -0.00273049833 -0.00850714542 0.00867855989
v -0.00477518026 -0.00709062465 0.00652205765
v -0.00266310431 -0.00703155071 0.00993249356
v -0.00280407559 -0.00723395191 0.00966784368
v -0.00246194884 -0.00567247336 0.0107380684
v -0.00179433544 -0.00406326661 0.0115637007
v -0.000836651365 -0.00239856179 0.0120799749
v 0.00277884954 0.000867535376 0.0121236285
v 0.00354880627 0.00343871508 0.0101265218
v 0.00437794858 0.00180394294 0.0115333061
v 0.00599547057 0.00243474781 0.0106555871
v 0.00674190174 0.00419042184 0.00802533388
v 0.00755550203 0.00273030798 0.00953192285
v 0.00898564774 0.00267719042 0.00821353956
v 0.00936255568 0.0035794126 0.00524541536
v 0.0107611448 0.00195378492 0.00593866711
v 0.00975309827 0.00296131254 0.000191729148
v 0.0106857484 0.00118013404 0.000143578976
v 0.0121768011 -0.00213909613 0.000902516852
v 0.0118270947 -0.00369268154 -0.000176078924
v 0.0111531936 -0.00529452452 -0.00100885853
v 0.0100072551 -0.00727090986 -0.0015039672
v 0.0101195797 -0.00688353209 -0.00161094655
v 0.00948413892 -0.00819526669 -0.00141307347
v -0.0115145792 0.00437409472 0.000643737196
v 0.00224637494 0.00489410331 -0.0110964164
v -0.00100857473 0.000577103599 -0.0124152136
v -0.0116874438 -0.000877752811 -0.00423245153
v -0.0105569889 0.00649160907 0.00129951594
v -0.00940519469 0.0040198595 0.00336341861
v -0.00982673643 0.00751509023 0.00155720917
v -0.00774064995 0.00578631308 0.00421567976
v -0.00838507315 0.00906987403 0.00165938931
v 0.00216210685 0.0104032561 -0.00650997163
v 0.00103145847 0.00303335393 -0.0120422257
v 0.00351839053 0.00186736524 -0.0100026295
v 0.000304119332 0.00201684515 -0.012300251
v 0.00151307292 0.00383330322 -0.0117600347
v 0.00268536848 0.00609172629 -0.0103820723
v 0.00249742418 0.00625922563 -0.0104816544
v 0.00294264296 0.00760359831 -0.00923684699
v 0.0027343528 0.00780481957 -0.00932139444
v 0.00286394591 0.00898181045 -0.00791261451
v 0.00262084932 0.00920783684 -0.00797667488
v 0.00245268603 0.0101653554 -0.00647004332
v 0.00173565886 0.0110567704 -0.00520010491
v 0.00376673228 0.00946229497 -0.00246015307
v 0.000870919352 0.0116889282 -0.00427306814
v 0.000752518674 0.0117434865 -0.00371943856
v 0.00267765206 0.0100904337 -0.000962580518
v -0.000326230302 0.0121535376 -0.00279966686
v -0.000483070602 0.012117709 -0.00229331574
v 0.00136051743 0.0103907724 0.000451648145
v -0.00190777268 0.0121538964 -0.000999208517
v -0.000128872029 0.0103502467 0.00172132922
v -0.00328044838 0.0120319387 -0.000280920719
v -0.00345643336 0.0118499354 0.000103670916
v -0.0017262234 0.00997091575 0.00278893727
v -0.00489791941 0.0114518843 0.000646230429
v -0.0050567572 0.0112212763 0.000963331794
v -0.00335829326 0.00926439413 0.00361330077
v -0.00643417275 0.0104495568 0.001461445
v -0.00495914783 0.00826695408 0.00414992815
v -0.00755519036 0.00966445956 0.00170514114
v -0.011038378 0.00569209388 0.00101745874
v -0.0119250824 0.00314621954 -3.90301965e-05
v -0.0120226963 0.00326601783 -0.000260970919
v -0.0121587066 0.00161168082 -0.00115714144
v -0.0122597298 0.00172063952 -0.00142101586
v -0.0120582004 0.000212896576 -0.00245579483
v -0.012146266 0.000317726053 -0.00276548711
v -0.0116272916 -0.000990712221 -0.00387614137
v -0.0110178372 -0.00177441138 -0.00526968956
v -0.00894269 -0.00428653333 -0.0033775784
v -0.0104291284 -0.00213057551 -0.00650706881
v -0.0100352789 -0.00246088394 -0.00674884095
v -0.0078714866 -0.00489687289 -0.0048946332
v -0.00923220085 -0.00259516302 -0.00798041022
v -0.0088006757 -0.00283414172 -0.00817619347
v -0.00656785917 -0.00518323181 -0.00632530834
v -0.00782467047 -0.00271289372 -0.00933033682
v -0.00737700842 -0.0028695245 -0.00947125055
v -0.00508942225 -0.00513260634 -0.00760566356
v -0.00627289094 -0.00247847103 -0.0104934873
v -0.0058300587 -0.00256549887 -0.0105741525
v -0.003500348 -0.00474483952 -0.00868297233
v -0.00465153052 -0.00190400313 -0.0114144492
v -0.00422980196 -0.00193560855 -0.0114357584
v -0.00186771762 -0.00403963101 -0.00950579402
v -0.00287888878 -0.0011370922 -0.0119641851
v -0.000263624421 -0.0030448158 -0.0100398572
v -0.00179304775 -0.000311654776 -0.0122513337
v 0.00488779549 -0.000660480301 -0.00842528704
v 0.00611608811 1.66852808e-05 -0.00744917778
v -0.00730630539 0.00307946815 0.00569735683
v -0.00752331713 0.00139026485 0.00586211033
v 0.00380646568 -0.00171245766 -0.0088672693
v -0.00654608352 0.00445288356 0.00577703316
v -0.00481645526 0.00201473447 0.00806325067
v 0.00260050868 -0.00141912608 -0.00978318576
v 0.00592082464 -0.00380650374 -0.00658413511
v 0.00888580662 -0.00819562068 -0.0019666625
v 0.00557394473 0.00389087137 -0.00761512002
v 0.00791591719 -0.000556393154 -0.00547055976
v 0.0087996269 -0.00416823503 -0.0039190827
v 0.0071962453 0.00330341167 -0.00549563929
v 0.00965497035 -0.00254071005 -0.0032367607
v 0.00563458668 0.00686319898 -0.00503504449
v 0.00866302431 0.0026691509 -0.00327457284
v 0.010200922 -0.000916855615 -0.00228534838
v 0.0074802303 0.00541180808 -0.00244562069
v 0.0104130385 0.000633656426 -0.00110897518
v 0.011421036 0.00127520153 0.00342891759
v 0.00887164639 0.00447965728 0.00175340472
v 0.0113346432 0.00137966511 0.00499021184
v 0.00562239123 0.00783244036 -0.00141294812
v 0.00806758112 0.00515559791 0.00353877459
v 0.00613835997 0.00691208817 0.00272796007
v 0.0040953516 0.00851891361 0.00188396267
v 0.00544964289 0.00577730456 0.00641228688
v 0.00330368905 0.00719579334 0.00549625752
v 0.00109592477 0.00845825305 0.00448895581
v 0.00225544308 0.00503406561 0.00858958803
v 1.63252007e-05 0.00611643871 0.00744870603
v -0.00221486547 0.00705812772 0.00617880455
v 0.000631026375 0.00193721651 0.0109081351
v -0.00211338468 0.00435045624 0.00842355082
v -0.00519246431 0.00589863222 0.00585690675
v -0.00651505383 0.00721313452 0.00421220034
v -0.00360882797 0.00509945931 0.00722528685
v -0.00208949974 0.000832850981 0.0103098688
v 0.000198970881 -0.00119391104 0.0123255993
v -0.00979520548 0.000330613699 0.00285441947
v -0.00650769833 -0.000852005333 0.00705861933
v -0.00357415452 -0.00105911753 0.0098125247
v -0.00860472123 -0.00189483243 0.00390731583
v -0.00443037217 -0.00268498147 0.00912874966
v -0.00985666945 -0.00264090184 0.000273654309
v -0.00725633954 -0.0040757946 0.00486104069
v -0.00498002901 -0.00430425808 0.00817330316
v -0.00790159616 -0.00499021129 0.00197099497
v -0.00519851367 -0.00584841022 0.0069894258
v -0.00285555054 -0.00984107083 0.0062297126
v -0.00498035256 -0.00837125934 0.00263509151
v -0.0018093731 -0.0109048522 0.00575243604
v -0.00794954164 -0.00550509577 -0.00121144744
v -0.00384674333 -0.00937617187 0.00122067418
v -0.00473124913 -0.00831935682 -0.0011404316
v -0.00550293939 -0.00711148593 -0.00347091008
v -0.00122885942 -0.00999783996 -0.00165242675
v -0.0018954616 -0.00860402003 -0.00390808823
v -0.00250292174 -0.00705187559 -0.00607483994
v 0.00196642096 -0.00925573516 -0.00382861357
v 0.00139147979 -0.00752459718 -0.00586063408
v 0.00433977919 -0.00778791772 -0.00480051713
v 0.000807251045 -0.00564962078 -0.00776711603
v 0.00677631835 -0.00814324978 -0.00334883559
v 0.00663009846 -0.00592646478 -0.00501145508
v 0.0037710337 -0.00587297056 -0.00656656167
v 0.00277768115 -0.00418049457 -0.00814784396
v 0.00139321073 -0.00150564767 -0.0103552652
v -0.00637399311 0.0106744347 -0.000120269494
v -0.00210842643 0.0119708683 -0.0027530453
v -0.00450925748 0.00860914349 -0.00384110069
v -0.00575525768 0.00805092597 -0.00316563519
v -0.00681848511 0.00733065845 -0.00295361142
v -0.00725791292 0.00695805403 -0.00294542661
v -0.00824983523 0.00535078344 -0.00330108278
v -0.00287963981 0.00837518304 -0.0054385822
v -0.00452034948 0.011696669 -0.000826287957
v -0.00840393041 0.00283354327 -0.00527276613
v -0.00649669551 0.00203844922 -0.00790539188
v -0.00710310002 0.00203877327 -0.00713086951
v -0.00198282303 0.00672933036 -0.00751191116
v -0.0003712365 0.00325053711 -0.0120256524
v -0.00294293424 0.00421481964 -0.0088901602
v -0.00221230191 0.00762367893 -0.00675165413
v 0.000386831082 0.0111955026 -0.00562843799
v -0.00954404049 -0.00123782162 -0.00787179586
v -0.00375280591 0.00347170615 -0.00914454301
v -0.00235413564 0.00530186795 -0.00860523261
v 0.00138816908 0.00652775305 -0.010648487
v -0.00458927986 0.00277184456 -0.00895679634
v -0.00485486683 -0.000563806114 -0.0114321064
v -0.000656834036 0.000823179925 -0.00590510043
v -0.00285383783 -0.000622521727 -0.00523907703
v -0.00487943302 -0.000612910263 -0.00343435516
v -0.005785968 0.000847559467 -0.00133561196
v -0.00531339519 0.0027208758 -9.35714204e-05
v -0.00398661248 0.00447278211 0.000283374561
v -0.00174285321 0.00570676886 -0.000611960576
v -0.000102234796 0.0055452609 -0.00220993836
v 0.000763692895 0.00445010365 -0.00394879484
v 0.000509896769 0.00263527421 -0.00533283075
v -0.00374831172 0.000425905316 -0.0035162485
v -0.00454261507 0.00108807429 -0.00222483158
v -0.00433061725 0.0026312505 -0.00104435731
v -0.00359000226 0.00358992455 -0.000851162554
v -0.000494971475 0.00391000149 -0.00331164229
v -0.000432486921 0.00289858849 -0.00426379691
v -0.00119296076 0.00157429731 -0.00476376587
v -0.00188066026 0.000965651246 -0.00469363558
v -0.00274040946 0.000505536306 -0.00433931576
v -0.00248874831 0.00439770205 -0.001111265
v -0.000983956253 0.0045010576 -0.0023539713
v 0.00317563748 -0.00399278078 0.000861345584
v 0.00155064542 -0.00461533748 0.00175016077
v 0.000597923689 -0.00413983877 0.00301657341
v 0.000400331777 -0.00303744715 0.00416922619
v 0.00130216615 -0.00142338002 0.00480076455
v 0.00241719226 -0.000649396209 0.00449847352
v 0.00342499558 -0.000360214164 0.00386118163
v 0.00450097071 -0.000983796431 0.00235414732
v 0.00439793543 -0.00248835685 0.00111146532
v 0.000636563102 -0.00570100906 0.0015979923
v 0.00159101044 -0.00570553452 0.00074763283
v 0.00278662185 -0.00526196125 8.09348814e-05
v 0.00415241933 -0.00431869997 -0.000293744774
v 0.0054283818 -0.00247659497 0.000208272096
v 0.000459894935 -0.00110012653 0.00583421361
v -0.00026687877 -0.00211893173 0.00557523944
v -0.000698104104 -0.00331372383 0.00489818227
v -0.000754351691 -0.00429340821 0.00407940453
v -0.000220274997 -0.00532456552 0.00269148677
v 0.00575689419 -0.00101078761 0.00121665051
v 0.00550220946 -7.05158989e-05 0.00227617395
v 0.00496458928 0.000518702491 0.00327540396
v 0.00401626567 0.000760134431 0.00433026922
v 0.00301367252 0.000641143136 0.00511378175
v 0.00150963093 -0.000117124724 0.00577511646
v -0.00350158723 -0.00106274318 -0.0120547998
v -0.00665446081 -0.00231337748 -0.0104840713
v -0.00863458177 -0.00254434708 -0.00879443514
v -0.00993324777 -0.00225836399 -0.00738931525
v -0.0107034494 -0.00186912336 -0.00636949707
v -0.00713981772 0.0103612507 0.00125533384
v -0.00322699113 0.0121942973 -0.000659365644
v -0.00181163457 0.0123259156 -0.00154775736
v -0.00115086099 0.0123297536 -0.0022415005
v -0.000345560142 0.0122154725 -0.003196001
v 0.000912510714 0.011660193 -0.00467291454
v -0.0055700076 -0.00104881488 -0.0111986953
v -0.00631792624 -0.00140345735 -0.0108252196
v -0.00776298906 -0.0015895999 -0.00973348114
v -0.00910015506 -0.00170020632 -0.00858229607
v -0.010187471 -0.0011942387 -0.0072334273
v -0.0108758539 -0.000692424167 -0.00618755504
v -0.011259306 -0.000311181242 -0.00550476978
v -0.0115729869 0.000170008577 -0.00480475918
v -0.0118141573 0.000671950485 -0.00414110635
v -0.0119608935 0.0012582639 -0.00350000977
v -0.012087931 0.00219524037 -0.00254744154
v -0.0119914019 0.00322897142 -0.00171665073
v -0.0118261867 0.00396332852 -0.00121675625
v -0.0116057429 0.00467757032 -0.000774110697
v -0.00259711604 0.0121732566 -0.00206927491
v -0.000536601153 0.0118040386 -0.004267465
v 0.000748692554 0.010789854 -0.00631781784
v 0.00126836731 0.0101210662 -0.00734108085
v 0.00146791792 0.00923418185 -0.00833493528
v 0.00174063743 0.00898970323 -0.00870110477
v 0.00153662009 0.00772931639 -0.00973409627
v 0.00132173396 0.0057759418 -0.0111743471
v -0.0109407557 0.00618321954 -2.16863009e-05
v -0.000195158746 0.00319789751 -0.0121834403
v -0.00968326701 0.00795857585 0.000424797628
v -0.00159837266 0.00159841415 -0.0123553358
v -0.00054344798 0.0024109515 -0.0124415939
v -0.000657539014 0.00194130553 -0.0125357157
v -0.000261668794 0.0018562268 -0.0125280227
v -0.000948205194 0.00094824669 -0.0125129305
v -0.00887311955 0.00887316105 0.000545612692
v -0.009839371 0.00797196683 0.000731936039
v -0.00957218713 0.00828997905 0.000997934772
v -0.00923658547 0.00857902385 0.00125285242
v -0.00883711835 0.00883715984 0.00147699487
v -0.00420428773 0.0118613803 5.06557218e-05
v -0.00558115502 -0.00207597378 -0.0110865914
v -0.000287308892 0.0016553962 -0.0124719225
v 0.00122700702 0.00494303335 -0.0116373813
v 0.00104239485 0.0040525783 -0.0119950422
v 0.00138685712 0.00400489425 -0.0118767289
v 0.00199824885 0.00814209685 -0.00952808399
v 0.00217373501 0.00734873875 -0.0101296757
v 0.00214098101 0.00617718164 -0.0108299329
v 0.00207601527 0.00558107731 -0.0110865914
v 0.00248263816 0.00716083881 -0.0100463711
v 0.00255714397 0.00791543362 -0.00944341052
v 0.00123115413 0.0107490542 -0.00662159018
v 0.00174428559 0.0102944294 -0.00726902506
v 0.00240093757 0.00893902946 -0.00862473836
v 0.00244437198 0.00930982468 -0.00810707438
v 0.00205577956 0.0101924131 -0.00720736906
v 0.00198851565 0.010497626 -0.00664962161
v -0.00063934455 0.0120947644 -0.0037698134
v 0.000101821648 0.0119603712 -0.00433554802
v 0.00081654479 0.0116834978 -0.00493085818
v 0.00169429911 0.010975782 -0.00585843669
v -0.00287040607 0.0122837666 -0.00149562114
v -0.00199129579 0.0124019142 -0.00190195039
v -0.00464952625 0.0118009714 -0.000413327611
v -0.00484004443 0.0117217287 0.000149328737
v -0.00638432537 0.0108974819 0.000194621755
v -0.00681997796 0.0105455482 0.000207892775
v -0.0075340416 0.0100422466 0.000394812941
v -0.00709509058 0.0104922834 0.00102780931
v -0.00714347011 0.0104976453 0.000791649406
v -0.00784847007 0.00987803935 0.000586328161
v -0.00949914116 0.00795850865 0.00161183974
v -0.0116664737 0.00496962764 -0.000310196879
v -0.0113906597 0.00566020185 0.000268129864
v -0.0104362694 0.00710911819 0.00101335685
v -0.0101049091 0.00738495228 0.00131343973
v -0.0111642972 0.00591858348 0.000765815998
v -0.011363006 0.0053892479 0.000660234796
v -0.0122970857 0.00200708695 -0.00237793118
v -0.0123550771 0.00256567918 -0.00162055452
v -0.0119996767 0.00400092627 -0.000234066238
v -0.0121070292 0.00340574619 -0.000439652086
v -0.0123438802 0.00244240472 -0.00131067473
v -0.0123425867 0.00186997292 -0.00159252513
v -0.0116138494 -0.000366118005 -0.00508794361
v -0.0119816807 -5.67784882e-05 -0.0042769993
v -0.0123431917 0.00100360189 -0.00258723481
v -0.0122298147 0.000475581857 -0.00292886126
v -0.011997508 -0.000251319535 -0.00400634061
v -0.0117739584 -0.000712219505 -0.00438631404
v -0.00994200316 -0.0017321773 -0.0076959028
v -0.0105410033 -0.00170093989 -0.00687993368
v -0.0112746434 -0.00123570951 -0.00564254427
v -0.0114063514 -0.00126377853 -0.00509477919
v -0.00726184821 -0.00191158023 -0.0102314844
v -0.00841832089 -0.00212276663 -0.00925239365
v -0.00910209337 -0.00236498449 -0.00846542862
v -0.00768200783 -0.0024074476 -0.00976185721
v -0.00477974191 -0.00137637146 -0.0117002681
v -0.00575302524 -0.00176437162 -0.0111643982
v -0.00438417455 -0.00051504734 -0.0117591702
v -0.0038487743 -0.000728498148 -0.0120680563
v -0.00403795864 -0.000459021354 -0.0119583291
v -0.00293756982 0.000429328652 -0.0122045361
v -0.00207331341 6.47505932e-05 -0.012471156
v -0.00317677111 -0.000403989566 -0.0123227485
v -0.00258307921 0.000553410462 -0.0123505813
v 0.00886347426 -0.00889509229 -0.00138108934
v 0.0101285803 -0.00745056603 -0.00122173551
v 0.0109256732 -0.00626532859 -0.000946289416
v 0.0111378184 -0.00591869236 -0.000745637758
v 0.0115387737 -0.00512770417 -0.000408854061
v 0.0118591711 -0.00429117421 -6.6870403e-05
v 0.0121206744 -0.00352853442 0.000493423993
v 0.0122793344 -0.00271148497 0.000960756355
v 0.0123673699 -0.0019960129 0.00163343371
v 0.0123564967 -0.00123517363 0.00219966283
v 0.0122651386 -0.000557410422 0.00288114442
v 0.012088351 6.94328361e-05 0.00359281751
v 0.0117850768 0.000714520829 0.00426585453
v 0.0115827789 0.00104587674 0.00473291718
v 0.0110398752 0.00154258091 0.00594424238
v 0.0102804325 0.00209236583 0.00702664062
v 0.00998429121 0.0021638426 0.00743130252
v 0.00936472476 0.00235085978 0.00814670179
v 0.00869335439 0.00245254508 0.0088320304
v 0.00797834587 0.00246778137 0.00947867791
v 0.00722746411 0.00239514154 0.0100806468
v 0.00645044179 0.0022367218 0.0106292909
v 0.00565539744 0.00199403115 0.0111190435
v 0.00485225443 0.0016700548 0.0115437605
v 0.00405015415 0.00126820999 0.0118987367
v 0.00325884362 0.000793526749 0.0121796968
v 0.00248763466 0.000251652469 0.0123831357
v 0.00159798062 -0.000210523837 0.0124371119
v 0.000687548306 -0.00128687983 0.0125431052
v 4.74762761e-05 -0.00200944177 0.0124657614
v -0.000225467239 -0.00245311543 0.0123905187
v -0.00106966387 -0.00359034736 0.012061738
v -0.00122603794 -0.00399277109 0.0119242492
v -0.00163325032 -0.00477822056 0.0115802916
v -0.0020333295 -0.00553484171 0.0111484267
v -0.00221490528 -0.00637726902 0.0106783258
v -0.00238153834 -0.00715640633 0.0101348441
v -0.00246185246 -0.00790998761 0.0095380134
v -0.0024552563 -0.00862853205 0.00889510437
v -0.00236171139 -0.00930431205 0.00821315923
v -0.0021824283 -0.00992891829 0.00750052953
v -0.00207704467 -0.0104229108 0.00668159025
v -0.00187991907 -0.0107485811 0.00621223571
v -0.0011364027 -0.0114457626 0.00522479771
v -0.000641072879 -0.0117967528 0.00447463186
v -8.11171435e-05 -0.0120671425 0.00373770183
v 0.000538632243 -0.0122543254 0.00302232877
v 0.0012098339 -0.0123558493 0.00233691893
v 0.00192444546 -0.0123705893 0.00168991755
v 0.00267583549 -0.0122983544 0.00108837381
v 0.00345278123 -0.0121400248 0.000539476637
v 0.00424842759 -0.0118972645 5.00113466e-05
v 0.00505123305 -0.0115731998 -0.000374855975
v 0.00585277023 -0.0111715759 -0.000729912661
v 0.00664446737 -0.0106969826 -0.00101046439
v 0.00741642199 -0.0101546654 -0.00121431447
v 0.00808293618 -0.00946802192 -0.00152028266
v 0.00824904961 -0.00957056061 -0.0010995469
v -0.00132605566 -0.0110537865 0.00607523377
v -0.00167019072 -0.0105664011 0.00681289035
v 0.00188507167 -0.000564446643 0.0125292139
v 0.0114602153 0.000919240665 0.0053545475
v 0.0118047017 0.000431817398 0.00461688718
v 0.00757010745 -0.0101405567 -0.000742485787
v 0.00682888366 -0.010665435 -0.0005504381
v 0.00606596452 -0.0111271743 -0.000283750703
v 0.00529483002 -0.0115173578 5.43559553e-05
v 0.0045205806 -0.0118338174 0.00046027426
v 0.00375368023 -0.0120720488 0.000929017546
v 0.00300398463 -0.0122290134 0.00145467324
v 0.00227906165 -0.0123031359 0.00203149747
v 0.00158777286 -0.0122934523 0.00265298665
v 0.000938625677 -0.0122001577 0.00331136847
v 0.000338577353 -0.0120242939 0.00399895199
v -0.000205180822 -0.0117676106 0.00470864262
v -0.000683828662 -0.0114340538 0.00542973317
v -0.00169693067 -0.0100101478 0.00758998621
v -0.00187757151 -0.00941405399 0.00827880659
v -0.00197616075 -0.0087673136 0.00893967761
v -0.0019909981 -0.00807879831 0.00956328373
v -0.00192234722 -0.0073551252 0.0101438152
v -0.0017704223 -0.0066072607 0.0106723184
v -0.00153726895 -0.00584067415 0.0111451112
v -0.00122550816 -0.00506760547 0.0115544589
v -0.000838855716 -0.0042945321 0.0118971602
v -0.000382269076 -0.00353247531 0.0121681249
v 0.000139601176 -0.00278840404 0.0123649698
v 0.000720052301 -0.00207280662 0.0124849176
v 0.00135266112 -0.00139283515 0.0125267678
v 0.00274344582 -0.000173713862 0.012374618
v 0.0034856274 0.000351640097 0.0121825508
v 0.00424751708 0.000812813395 0.0119158353
v 0.00501962314 0.00120368543 0.0115776912
v 0.00579364208 0.00152000626 0.0111719217
v 0.00655984788 0.00175783272 0.0107035318
v 0.00731046554 0.00191526387 0.0101773226
v 0.00803518701 0.00198927663 0.00960039762
v 0.00872581258 0.00197948623 0.0089793799
v 0.00937541724 0.00188619442 0.00832065073
v 0.00997518959 0.00171043216 0.007632784
v 0.0105186712 0.00145377831 0.00692342481
v 0.0109986142 0.00111984057 0.00620201757
v 0.0120105429 -0.000303605951 0.00404255344
v 0.0121915756 -0.000900301649 0.00335294081
v 0.0122901213 -0.00154670695 0.00269249198
v 0.012305015 -0.00223517003 0.00206876619
v 0.0122359585 -0.00295832942 0.00148882196
v 0.0120840452 -0.00370726167 0.000959778087
v 0.0118511067 -0.0044722621 0.000487751415
v 0.0115391491 -0.00524701389 7.68943011e-05
v 0.0111530622 -0.00601885034 -0.000264965684
v 0.0106959378 -0.00678214332 -0.000536494926
v 0.0101743208 -0.00752565671 -0.00073316691
v 0.00959406294 -0.00824107114 -0.000852872877
v 0.00896113653 -0.00892113908 -0.000894525504
v 0.00830185523 -0.00947902915 -0.000622700432
v -0.000857846152 -0.010963217 0.00618300928
v -0.0011910526 -0.0105024438 0.00688728716
v 0.0021369037 -0.00096141627 0.0123961565
v 0.0112978137 0.000523269826 0.00558964787
v 0.0116309946 6.25940348e-05 0.00488589825
v 0.0075340126 -0.0100422538 -0.000394710184
v 0.00681994895 -0.0105455554 -0.000207909227
v 0.00608740787 -0.0109866298 5.06557218e-05
v 0.0053448532 -0.0113602317 0.000377766012
v 0.00460098724 -0.0116620696 0.000769726156
v 0.00399362428 -0.0118227278 0.00119198853
v 0.00314413051 -0.0120369828 0.00172900331
v 0.00244830588 -0.0121057666 0.00228499544
v 0.00157446823 -0.0120372558 0.00314865073
v 0.000713159022 -0.0118253258 0.00409839977
v 6.71003255e-05 -0.0115813649 0.0048613466
v -0.000392689904 -0.0112580693 0.0055556215
v -0.00135864278 -0.00988394382 0.0076305784
v -0.00153018495 -0.00930899742 0.00829242837
v -0.00162233373 -0.0086863673 0.00892638338
v -0.00158180264 -0.00811888702 0.00941967033
v -0.00156547089 -0.0073273814 0.0100808061
v -0.00141693612 -0.00660699966 0.0105879225
v -0.00117714984 -0.00598839668 0.0109499949
v -0.000898433957 -0.00529305684 0.0113236737
v -7.40434733e-05 -0.00365156296 0.0120177187
v 0.000429258147 -0.00293749931 0.0122045196
v 0.000988945762 -0.00225049618 0.01231753
v 0.00159834365 -0.00159842136 0.0123553194
v 0.00293754081 -0.00042933586 0.0122045196
v 0.00365160445 7.396576e-05 0.0120177187
v 0.00469191209 0.000632258046 0.0116159863
v 0.00587056617 0.00119047997 0.0110400833
v 0.00660704116 0.00141697762 0.0105879225
v 0.0073274229 0.00156539318 0.0100808061
v 0.00802324752 0.00163417694 0.00952481401
v 0.00868628959 0.00162237522 0.00892638338
v 0.00930903892 0.00153022644 0.00829242837
v 0.00988398532 0.00135868427 0.0076305784
v 0.0104044531 0.00110977528 0.00694846284
v 0.0108642433 0.000786598893 0.00625406873
v 0.0118301962 -0.000587526588 0.00417923105
v 0.0120017383 -0.00116247299 0.00351738107
v 0.0120468638 -0.00171819419 0.00301076615
v 0.0120711955 -0.00237234712 0.00240911516
v 0.0120143579 -0.00302530764 0.00188493201
v 0.0118884895 -0.00386447075 0.00122188699
v 0.0116619919 -0.00460094574 0.000769726156
v 0.0113775038 -0.00524115689 0.000480542389
v 0.0110352293 -0.00593614482 0.000172168812
v 0.0105892663 -0.00670825286 -0.000121360176
v 0.00955296285 -0.00810507221 -0.000441062575
v 0.00887320975 -0.00887316826 -0.000545509935
v -0.00624920388 0.00624912617 -0.00896633494
v 0.00727473239 -0.00782376888 0.00666081083
v -0.00654627343 0.00599723694 -0.00892639983
v 0.00695286731 -0.00801355007 0.00677799356
v -0.00686813851 0.00580745575 -0.0088092171
v 0.0066281412 -0.0081281102 0.00696431768
v -0.00719286462 0.00569289562 -0.00862289298
v 0.00632260779 -0.00815970066 0.00720726621
v -0.00749839803 0.00566130516 -0.00837994444
v 0.00605712871 -0.00810617569 0.00749014985
v -0.00776387711 0.00571483013 -0.00809718001
v 0.00584982375 -0.00797111156 0.00779365671
v -0.00797118207 0.00584977505 -0.00779367316
v 0.00571475963 -0.00776380661 0.00809716356
v -0.00810612698 0.00605708 -0.0074900471
v 0.00566123466 -0.00749832752 0.0083800472
v -0.00815965196 0.00632255909 -0.00720728266
v 0.00569282512 -0.00719291332 0.00862287652
v -0.00812806149 0.0066280925 -0.00696433413
v 0.00580738525 -0.00686806801 0.00880920064
v -0.00801350137 0.0069528186 -0.00677801001
v 0.00599716643 -0.00654620293 0.00892638338
v -0.00782372018 0.00727468369 -0.00666082728
v 0.00624917487 -0.00624913338 0.00896631849
v -0.00757183095 0.00757175324 -0.00662089217
v 0.00654624442 -0.00599712494 0.00892638338
v -0.0072747614 0.00782376167 -0.00666082728
v 0.0068681095 -0.00580746296 0.00880920064
v -0.00695289632 0.00801354286 -0.00677801001
v 0.00719283561 -0.00569290283 0.00862287652
v -0.006628051 0.00812810299 -0.00696433413
v 0.00749836902 -0.00566131237 0.0083800472
v -0.00632251759 0.00815969345 -0.00720728266
v 0.00776384811 -0.00571483734 0.00809716356
v -0.00605715772 0.00810616848 -0.0074900471
v 0.00797115306 -0.00584978226 0.00779365671
v -0.00584985276 0.00797110436 -0.00779367316
v 0.00810621718 -0.00605708721 0.00749014985
v -0.00571478864 0.0077637994 -0.00809718001
v 0.00815974216 -0.0063225663 0.00720726621
v -0.00566126367 0.00749843952 -0.00837994444
v 0.00812815169 -0.00662809971 0.00696431768
v -0.00569285413 0.00719290611 -0.00862289298
v 0.00801347236 -0.00695282581 0.00677799356
v -0.00580741425 0.0068680608 -0.0088092171
v 0.00782381038 -0.00727469089 0.00666081083
v -0.00599719544 0.00654619572 -0.00892639983
v 0.00757180194 -0.00757176044 0.00662087572
v 0.0069104288 -0.00691050651 0.00779365671
v -0.00691045781 0.00691049931 -0.00779367316
f 2 3 520
f 10 11 510
f 11 6 510
f 1 12 7
f 7 12 6
f 6 12 514
f 6 514 513
f 524 523 8
f 8 523 3
f 10 19 18
f 18 19 20
f 18 20 17
f 9 21 531
f 22 16 23
f 17 551 18
f 18 551 24
f 24 550 549
f 549 548 24
f 24 548 25
f 24 25 23
f 23 25 545
f 23 545 544
f 23 544 543
f 75 77 65
f 78 79 80
f 80 81 82
f 82 83 84
f 69 104 64
f 105 106 107
f 107 108 109
f 109 110 111
f 74 77 75
f 132 75 133
f 68 104 69
f 134 69 135
f 76 74 75
f 70 68 69
f 139 76 75
f 139 75 136
f 136 75 132
f 132 133 140
f 71 70 69
f 71 69 137
f 137 69 134
f 134 135 138
f 66 76 200
f 200 76 139
f 136 132 140
f 348 70 71
f 137 134 138
f 139 136 140
f 65 78 142
f 65 142 75
f 75 142 133
f 133 143 140
f 140 143 144
f 140 144 197
f 197 144 62
f 197 62 141
f 141 62 61
f 141 61 63
f 78 80 142
f 142 145 133
f 133 145 143
f 143 146 144
f 144 146 60
f 144 60 386
f 144 386 62
f 80 82 147
f 80 147 142
f 142 147 145
f 145 148 143
f 143 148 149
f 143 149 146
f 146 149 59
f 146 59 389
f 146 389 60
f 82 84 147
f 147 150 145
f 145 150 148
f 148 151 149
f 149 151 58
f 149 58 391
f 149 391 59
f 84 155 147
f 147 155 150
f 150 56 148
f 148 56 57
f 148 57 151
f 151 57 393
f 151 393 58
f 57 394 393
f 155 153 150
f 150 153 152
f 150 152 56
f 57 56 395
f 57 395 394
f 56 152 396
f 56 396 395
f 54 55 153
f 54 153 156
f 86 155 85
f 85 155 84
f 85 84 337
f 337 84 73
f 55 154 153
f 153 154 152
f 152 397 396
f 157 156 153
f 157 153 155
f 399 55 54
f 158 157 155
f 158 155 89
f 89 155 86
f 89 86 88
f 88 86 87
f 87 86 85
f 53 399 54
f 51 53 54
f 51 54 159
f 159 54 156
f 159 156 157
f 92 158 89
f 92 89 91
f 91 89 90
f 90 89 88
f 52 53 51
f 160 159 157
f 160 157 158
f 161 160 158
f 161 158 94
f 94 158 92
f 94 92 93
f 93 92 277
f 277 92 91
f 50 52 51
f 48 50 51
f 48 51 162
f 162 51 159
f 162 159 160
f 97 161 94
f 97 94 96
f 96 94 95
f 95 94 93
f 49 50 48
f 163 162 160
f 163 160 161
f 164 163 161
f 164 161 100
f 100 161 97
f 100 97 99
f 99 97 98
f 98 97 96
f 47 49 48
f 165 47 48
f 165 48 166
f 166 48 162
f 166 162 163
f 102 164 100
f 102 100 101
f 101 100 99
f 411 47 165
f 169 166 163
f 169 163 164
f 102 101 103
f 167 169 164
f 167 164 168
f 168 164 102
f 168 102 103
f 103 72 168
f 166 170 165
f 165 170 411
f 411 170 171
f 72 348 168
f 168 348 167
f 167 348 71
f 167 71 169
f 169 71 137
f 169 137 166
f 166 137 138
f 166 138 170
f 64 105 172
f 64 172 69
f 69 172 135
f 135 173 138
f 138 173 174
f 138 174 170
f 170 174 46
f 170 46 171
f 171 46 413
f 171 413 412
f 105 107 172
f 172 175 135
f 135 175 173
f 173 176 174
f 174 176 45
f 174 45 415
f 174 415 46
f 107 109 177
f 107 177 172
f 172 177 175
f 175 178 173
f 173 178 179
f 173 179 176
f 176 179 44
f 176 44 418
f 176 418 45
f 109 111 177
f 177 180 175
f 175 180 178
f 178 181 179
f 179 181 43
f 179 43 42
f 179 42 44
f 111 185 177
f 177 185 180
f 180 38 178
f 178 38 41
f 178 41 181
f 181 41 40
f 181 40 43
f 41 39 40
f 185 183 180
f 180 183 182
f 180 182 38
f 41 38 37
f 41 37 39
f 38 182 425
f 38 425 37
f 34 36 183
f 34 183 186
f 113 185 112
f 112 185 111
f 112 111 370
f 370 111 67
f 36 184 183
f 183 184 182
f 182 426 425
f 187 186 183
f 187 183 185
f 35 36 34
f 188 187 185
f 188 185 116
f 116 185 113
f 116 113 115
f 115 113 114
f 114 113 112
f 33 35 34
f 31 33 34
f 31 34 189
f 189 34 186
f 189 186 187
f 119 188 116
f 119 116 118
f 118 116 117
f 117 116 115
f 32 33 31
f 190 189 187
f 190 187 188
f 191 190 188
f 191 188 122
f 122 188 119
f 122 119 121
f 121 119 120
f 120 119 118
f 30 32 31
f 28 30 31
f 28 31 192
f 192 31 189
f 192 189 190
f 125 191 122
f 125 122 124
f 124 122 123
f 123 122 121
f 29 30 28
f 193 192 190
f 193 190 191
f 195 193 191
f 195 191 128
f 128 191 125
f 128 125 127
f 127 125 126
f 126 125 124
f 27 29 28
f 26 27 28
f 26 28 194
f 194 28 192
f 194 192 193
f 130 195 128
f 130 128 129
f 129 128 127
f 440 27 26
f 198 194 193
f 198 193 195
f 130 129 131
f 196 440 26
f 196 26 197
f 197 26 194
f 197 194 198
f 199 198 195
f 199 195 200
f 200 195 130
f 200 130 131
f 131 66 200
f 199 200 139
f 199 139 198
f 198 139 140
f 198 140 197
f 196 197 141
f 196 141 440
f 305 206 207
f 203 202 208
f 201 203 204
f 203 209 202
f 207 293 294
f 207 294 303
f 210 291 207
f 207 291 292
f 207 292 293
f 210 290 291
f 220 214 215
f 213 216 299
f 296 217 208
f 208 217 297
f 208 297 216
f 210 288 289
f 210 289 290
f 210 286 287
f 210 287 288
f 211 218 212
f 212 218 210
f 210 218 285
f 210 285 286
f 215 214 219
f 211 282 283
f 222 223 211
f 211 223 281
f 211 281 282
f 299 301 213
f 213 301 220
f 220 301 221
f 224 219 222
f 224 222 225
f 225 222 211
f 225 211 226
f 226 211 212
f 226 212 210
f 226 210 227
f 227 210 207
f 227 207 228
f 228 207 229
f 229 207 206
f 229 206 205
f 229 205 204
f 229 204 230
f 230 204 203
f 230 203 231
f 231 203 208
f 231 208 232
f 232 208 216
f 232 216 213
f 232 213 233
f 233 213 220
f 233 220 224
f 224 220 215
f 224 215 219
f 234 226 235
f 235 226 227
f 235 227 236
f 236 227 228
f 236 228 237
f 238 232 239
f 239 232 233
f 239 233 240
f 240 233 224
f 240 224 241
f 241 224 242
f 242 224 225
f 242 225 234
f 234 225 226
f 228 229 237
f 237 229 243
f 243 229 230
f 243 230 244
f 244 230 231
f 244 231 238
f 238 231 232
f 245 240 241
f 245 241 242
f 245 242 246
f 246 242 234
f 246 234 247
f 247 234 235
f 247 235 248
f 248 235 236
f 248 236 249
f 249 236 237
f 249 237 243
f 249 243 250
f 250 243 251
f 251 243 244
f 251 244 252
f 252 244 238
f 252 238 239
f 252 239 253
f 253 239 240
f 253 240 245
f 246 254 255
f 246 255 245
f 245 255 256
f 245 256 257
f 245 257 253
f 253 257 258
f 253 258 252
f 249 269 259
f 249 259 260
f 249 260 248
f 248 260 261
f 248 261 262
f 248 262 247
f 247 262 263
f 247 263 246
f 246 263 254
f 258 264 252
f 252 264 265
f 252 265 266
f 252 266 251
f 251 266 267
f 251 267 268
f 251 268 250
f 250 268 249
f 249 268 269
f 18 257 256
f 18 256 10
f 10 256 255
f 10 255 11
f 11 255 6
f 6 255 254
f 6 254 263
f 6 263 7
f 7 263 1
f 1 263 262
f 1 262 2
f 2 262 3
f 3 262 261
f 3 261 8
f 8 261 260
f 8 260 4
f 4 260 259
f 4 259 5
f 5 259 269
f 5 269 9
f 9 269 268
f 9 268 21
f 21 268 13
f 13 268 267
f 13 267 14
f 14 267 266
f 14 266 15
f 15 266 16
f 16 266 265
f 16 265 23
f 23 265 264
f 23 264 258
f 23 258 24
f 24 258 257
f 24 257 18
f 131 129 270
f 124 123 271
f 123 121 271
f 121 120 374
f 120 118 272
f 118 117 373
f 117 115 273
f 115 114 274
f 114 112 274
f 103 101 275
f 96 95 276
f 95 93 276
f 277 91 278
f 91 90 279
f 90 88 279
f 88 87 280
f 87 85 280
f 284 218 211
f 295 202 209
f 296 208 202
f 298 216 297
f 302 220 221
f 304 214 220
f 305 207 303
f 305 303 312
f 219 214 306
f 306 214 304
f 306 304 307
f 311 206 305
f 311 305 312
f 318 76 66
f 220 302 304
f 304 302 319
f 304 319 307
f 307 319 320
f 307 320 308
f 308 320 309
f 309 318 310
f 310 318 66
f 318 309 76
f 321 74 76
f 320 321 309
f 309 321 76
f 321 77 74
f 321 65 77
f 221 301 322
f 221 322 302
f 302 322 323
f 302 323 319
f 319 323 324
f 319 324 320
f 320 324 321
f 325 78 65
f 299 300 301
f 301 300 322
f 324 325 321
f 321 325 65
f 324 79 78
f 325 324 78
f 326 80 79
f 216 298 299
f 299 298 300
f 323 326 324
f 324 326 79
f 327 81 80
f 298 328 300
f 300 328 329
f 300 329 322
f 322 329 330
f 322 330 323
f 323 330 327
f 323 327 326
f 326 327 80
f 330 82 81
f 298 297 328
f 327 330 81
f 331 83 82
f 297 217 328
f 329 332 330
f 330 332 331
f 330 331 82
f 332 84 83
f 217 296 328
f 331 332 83
f 333 73 84
f 296 334 328
f 328 334 335
f 328 335 329
f 329 335 336
f 329 336 332
f 332 336 333
f 332 333 84
f 336 337 333
f 333 337 73
f 202 295 296
f 296 295 334
f 336 280 337
f 337 280 85
f 295 338 334
f 334 338 339
f 334 339 335
f 335 339 279
f 335 279 336
f 336 279 280
f 280 279 88
f 209 340 295
f 295 340 338
f 339 278 279
f 279 278 91
f 339 277 278
f 340 341 338
f 338 341 276
f 338 276 339
f 339 276 277
f 277 276 93
f 341 316 276
f 276 316 96
f 101 99 275
f 275 99 341
f 275 341 345
f 345 341 346
f 346 341 340
f 346 340 342
f 342 340 209
f 342 209 201
f 201 209 203
f 341 99 98
f 341 98 316
f 316 98 96
f 343 342 201
f 347 346 342
f 347 342 344
f 344 342 343
f 344 343 204
f 204 343 201
f 72 103 275
f 347 344 205
f 205 344 204
f 315 72 275
f 315 275 314
f 314 275 345
f 314 345 313
f 313 345 346
f 313 346 312
f 312 346 347
f 312 347 311
f 311 347 206
f 206 347 205
f 303 349 312
f 312 349 350
f 312 350 313
f 313 350 351
f 313 351 314
f 314 351 348
f 314 348 315
f 315 348 72
f 303 294 349
f 351 352 348
f 348 352 70
f 353 68 70
f 294 293 349
f 350 353 351
f 351 353 352
f 352 353 70
f 354 104 68
f 293 292 349
f 353 354 68
f 354 64 104
f 292 291 355
f 292 355 349
f 349 355 356
f 349 356 350
f 350 356 357
f 350 357 353
f 353 357 354
f 357 105 64
f 354 357 64
f 358 106 105
f 291 290 355
f 356 359 357
f 357 359 358
f 357 358 105
f 359 107 106
f 290 289 355
f 358 359 106
f 360 108 107
f 289 288 361
f 289 361 355
f 355 361 362
f 355 362 356
f 356 362 363
f 356 363 359
f 359 363 360
f 359 360 107
f 363 109 108
f 288 287 361
f 360 363 108
f 364 110 109
f 287 286 361
f 362 365 363
f 363 365 364
f 363 364 109
f 365 111 110
f 286 285 361
f 364 365 110
f 366 67 111
f 285 367 361
f 361 367 368
f 361 368 362
f 362 368 369
f 362 369 365
f 365 369 366
f 365 366 111
f 218 284 285
f 285 284 367
f 369 370 366
f 366 370 67
f 369 368 274
f 369 274 370
f 370 274 112
f 211 283 284
f 283 371 284
f 284 371 372
f 284 372 367
f 367 372 373
f 367 373 368
f 368 373 273
f 368 273 274
f 274 273 115
f 283 282 371
f 273 373 117
f 372 371 374
f 372 374 373
f 373 374 272
f 373 272 118
f 272 374 120
f 281 375 282
f 282 375 376
f 282 376 371
f 371 376 271
f 371 271 374
f 374 271 121
f 376 375 317
f 376 317 271
f 271 317 124
f 129 127 270
f 270 127 375
f 270 375 382
f 382 375 378
f 378 375 379
f 379 375 377
f 377 375 281
f 377 281 223
f 375 127 126
f 375 126 317
f 317 126 124
f 379 377 222
f 222 377 223
f 381 131 270
f 381 270 382
f 382 378 383
f 383 378 379
f 383 379 380
f 380 379 222
f 66 131 381
f 383 380 219
f 219 380 222
f 310 66 381
f 310 381 309
f 309 381 308
f 308 381 382
f 308 382 307
f 307 382 383
f 307 383 306
f 306 383 219
f 63 61 385
f 385 61 62
f 385 62 386
f 387 386 388
f 386 60 388
f 388 60 389
f 389 59 390
f 390 59 391
f 391 58 392
f 392 58 393
f 152 154 397
f 397 154 55
f 397 55 398
f 398 55 399
f 400 399 53
f 400 53 401
f 401 53 402
f 402 53 52
f 402 52 403
f 403 52 404
f 404 52 50
f 404 50 405
f 405 50 406
f 406 50 49
f 406 49 407
f 407 49 408
f 408 49 47
f 408 47 409
f 409 47 410
f 410 47 411
f 411 171 412
f 414 413 46
f 414 46 415
f 416 415 417
f 415 45 417
f 417 45 418
f 418 44 419
f 419 44 420
f 44 42 420
f 420 42 421
f 42 43 421
f 421 43 422
f 43 40 422
f 422 40 423
f 40 39 423
f 423 39 424
f 39 37 424
f 424 37 425
f 182 184 426
f 426 184 36
f 426 36 427
f 427 36 428
f 428 36 35
f 428 35 429
f 429 35 33
f 429 33 430
f 430 33 431
f 431 33 32
f 431 32 432
f 432 32 433
f 433 32 30
f 433 30 434
f 434 30 435
f 435 30 29
f 435 29 436
f 436 29 437
f 437 29 27
f 437 27 438
f 438 27 439
f 439 27 440
f 384 440 141
f 384 141 63
f 384 441 440
f 440 441 439
f 427 442 426
f 426 442 443
f 426 443 425
f 425 443 424
f 412 444 411
f 411 444 410
f 398 445 397
f 397 445 446
f 397 446 396
f 396 446 395
f 441 447 439
f 439 447 448
f 439 448 438
f 438 448 449
f 438 449 437
f 437 449 450
f 437 450 436
f 436 450 451
f 436 451 435
f 435 451 452
f 435 452 434
f 434 452 453
f 434 453 433
f 433 453 454
f 433 454 432
f 432 454 455
f 432 455 431
f 431 455 456
f 431 456 430
f 430 456 457
f 430 457 429
f 429 457 458
f 429 458 428
f 428 458 459
f 428 459 427
f 427 459 442
f 443 460 424
f 424 460 461
f 424 461 423
f 423 461 462
f 423 462 422
f 422 462 463
f 422 463 421
f 421 463 464
f 421 464 420
f 420 464 465
f 420 465 419
f 419 465 466
f 419 466 418
f 418 466 467
f 418 467 417
f 417 467 468
f 417 468 416
f 416 468 469
f 416 469 415
f 415 469 470
f 415 470 414
f 414 470 471
f 414 471 413
f 413 471 472
f 413 472 412
f 412 472 444
f 444 473 410
f 410 473 474
f 410 474 409
f 409 474 475
f 409 475 408
f 408 475 476
f 408 476 407
f 407 476 477
f 407 477 406
f 406 477 478
f 406 478 405
f 405 478 479
f 405 479 404
f 404 479 480
f 404 480 403
f 403 480 481
f 403 481 402
f 402 481 482
f 402 482 401
f 401 482 483
f 401 483 400
f 400 483 484
f 400 484 399
f 399 484 485
f 399 485 398
f 398 485 445
f 446 486 395
f 395 486 487
f 395 487 394
f 394 487 488
f 394 488 393
f 393 488 489
f 393 489 392
f 392 489 490
f 392 490 391
f 391 490 491
f 391 491 390
f 390 491 492
f 390 492 389
f 389 492 493
f 389 493 388
f 388 493 494
f 388 494 387
f 387 494 495
f 387 495 386
f 386 495 496
f 386 496 385
f 385 496 497
f 385 497 63
f 63 497 498
f 63 498 384
f 384 498 441
f 498 499 441
f 441 499 447
f 459 500 442
f 442 500 501
f 442 501 443
f 443 501 460
f 472 502 444
f 444 502 473
f 485 503 445
f 445 503 504
f 445 504 446
f 446 504 486
f 499 505 447
f 447 505 506
f 447 506 448
f 448 506 507
f 448 507 449
f 449 507 508
f 449 508 450
f 450 508 509
f 450 509 451
f 451 509 510
f 451 510 452
f 452 510 511
f 452 511 453
f 453 511 512
f 453 512 454
f 454 512 513
f 454 513 455
f 455 513 456
f 456 513 514
f 456 514 457
f 457 514 515
f 457 515 458
f 458 515 516
f 458 516 459
f 459 516 500
f 501 517 460
f 460 517 518
f 460 518 461
f 461 518 519
f 461 519 462
f 462 519 520
f 462 520 463
f 463 520 521
f 463 521 464
f 464 521 522
f 464 522 465
f 465 522 523
f 465 523 466
f 466 523 524
f 466 524 467
f 467 524 8
f 467 8 468
f 468 8 525
f 468 525 469
f 469 525 526
f 469 526 470
f 470 526 527
f 470 527 471
f 471 527 528
f 471 528 472
f 472 528 502
f 502 529 473
f 473 529 530
f 473 530 474
f 474 530 531
f 474 531 475
f 475 531 476
f 476 531 532
f 476 532 477
f 477 532 533
f 477 533 478
f 478 533 534
f 478 534 479
f 479 534 535
f 479 535 480
f 480 535 536
f 480 536 481
f 481 536 537
f 481 537 482
f 482 537 538
f 482 538 483
f 483 538 539
f 483 539 484
f 484 539 540
f 484 540 485
f 485 540 503
f 504 541 486
f 486 541 542
f 486 542 487
f 487 542 543
f 487 543 488
f 488 543 544
f 488 544 489
f 489 544 545
f 489 545 490
f 490 545 546
f 490 546 491
f 491 546 547
f 491 547 492
f 492 547 548
f 492 548 493
f 493 548 549
f 493 549 494
f 494 549 550
f 494 550 495
f 495 550 24
f 495 24 496
f 496 24 551
f 496 551 497
f 497 551 552
f 497 552 498
f 498 552 499
f 552 17 499
f 499 17 20
f 499 20 505
f 505 20 19
f 505 19 506
f 506 19 507
f 507 19 10
f 507 10 508
f 508 10 509
f 509 10 510
f 511 510 6
f 511 6 512
f 512 6 513
f 515 514 12
f 515 12 516
f 516 12 500
f 500 12 1
f 500 1 501
f 501 1 517
f 517 1 2
f 517 2 518
f 518 2 519
f 519 2 520
f 521 520 3
f 521 3 522
f 522 3 523
f 525 8 4
f 525 4 526
f 526 4 527
f 527 4 5
f 527 5 528
f 528 5 502
f 502 5 529
f 529 5 9
f 529 9 530
f 530 9 531
f 532 531 21
f 532 21 533
f 533 21 534
f 534 21 13
f 534 13 535
f 535 13 536
f 536 13 14
f 536 14 537
f 537 14 538
f 538 14 539
f 539 14 15
f 539 15 540
f 540 15 16
f 540 16 503
f 503 16 504
f 504 16 22
f 504 22 541
f 541 22 542
f 542 22 23
f 542 23 543
f 546 545 25
f 546 25 547
f 547 25 548
f 552 551 17
f 553 554 555
f 555 554 556
f 555 556 557
f 557 556 558
f 557 558 559
f 559 558 560
f 559 560 561
f 561 560 562
f 561 562 563
f 563 562 564
f 563 564 565
f 565 564 566
f 565 566 567
f 567 566 568
f 567 568 569
f 569 568 570
f 569 570 571
f 571 570 572
f 571 572 573
f 573 572 574
f 573 574 575
f 575 574 576
f 575 576 577
f 577 576 578
f 577 578 579
f 579 578 580
f 579 580 581
f 581 580 582
f 581 582 583
f 583 582 584
f 583 584 585
f 585 584 586
f 585 586 587
f 587 586 588
f 587 588 589
f 589 588 590
f 589 590 591
f 591 590 592
f 591 592 593
f 593 592 594
f 593 594 595
f 595 594 596
f 595 596 597
f 597 596 598
f 597 598 599
f 599 598 600
f 599 600 553
f 553 600 554
f 580 578 601
f 601 578 576
f 601 576 574
f 586 584 601
f 601 584 582
f 601 582 580
f 592 590 601
f 601 590 588
f 601 588 586
f 598 596 601
f 601 596 594
f 601 594 592
f 556 554 601
f 601 554 600
f 601 600 598
f 562 560 601
f 601 560 558
f 601 558 556
f 568 566 601
f 601 566 564
f 601 564 562
f 574 572 601
f 601 572 570
f 601 570 568
f 573 575 602
f 602 575 577
f 602 577 579
f 567 569 602
f 602 569 571
f 602 571 573
f 561 563 602
f 602 563 565
f 602 565 567
f 555 557 602
f 602 557 559
f 602 559 561
f 597 599 602
f 602 599 553
f 602 553 555
f 591 593 602
f 602 593 595
f 602 595 597
f 585 587 602
f 602 587 589
f 602 589 591
f 579 581 602
f 602 581 583
f 602 583 585
