v -0.00300092016 0.00300088565 -0.0118528632
v 0.00119465079 -0.000722676112 0.0125119659
v -0.00273889814 0.00321099202 -0.0118612078
v 0.00149541583 -0.000574975802 0.0124872896
v -0.00243825231 0.00335869233 -0.0118858842
v 0.0018196651 -0.000497072531 0.0124475929
v -0.00211400304 0.00343659561 -0.0119255808
v 0.00215130534 -0.000492840602 0.0123946639
v -0.00178224359 0.00344082753 -0.0119785098
v 0.00247376647 -0.000562518431 0.0123313638
v -0.00145990167 0.0033710901 -0.0120418099
v 0.00277083602 -0.000702648951 0.0122609111
v -0.00116283212 0.00323101919 -0.0121123818
v 0.00302749362 -0.000906139208 0.0121866437
v -0.000906174519 0.00302746932 -0.0121866492
v 0.00323098387 -0.00116285641 0.0121123763
v -0.000702684262 0.00277081172 -0.0122609166
v 0.00337105479 -0.00145986636 0.0120418044
v -0.000562494138 0.00247380178 -0.0123313693
v 0.00344079222 -0.00178232749 0.0119785043
v -0.000492875913 0.00215134065 -0.0123946694
v 0.0034366199 -0.00211396773 0.0119256946
v -0.000497048238 0.0018196408 -0.0124475983
v 0.00335865702 -0.0024382766 0.0118858787
v -0.000575011113 0.00149539153 -0.012487295
v 0.00321095671 -0.00273892243 0.0118612024
v -0.000722711423 0.0011946861 -0.0125119713
v 0.00300090995 -0.00300088484 0.0118528577
v -0.000932758191 0.000932783292 -0.0125204352
v 0.00273900714 -0.00321099122 0.0118612024
v -0.001194661 0.000722676919 -0.0125119713
v 0.0024382421 -0.00335869153 0.0118858787
v -0.00149542604 0.00057497661 -0.012487295
v 0.00211399283 -0.0034365948 0.0119256946
v -0.00181967531 0.000497073339 -0.0124475983
v 0.00178235259 -0.00344082673 0.0119785043
v -0.00215131555 0.000492841409 -0.0123946694
v 0.00145989146 -0.00337108929 0.0120418044
v -0.00247377668 0.000562519239 -0.0123313693
v 0.00116282191 -0.00323101838 0.0121123763
v -0.00277084623 0.000702649759 -0.0122609166
v 0.00090616431 -0.00302746852 0.0121866437
v -0.00302750383 0.000906140016 -0.0121866492
v 0.000702674052 -0.00277081092 0.0122609111
v -0.00323099408 0.00116285722 -0.0121123818
v 0.000562483928 -0.00247380097 0.0123313638
v -0.003371065 0.00145986717 -0.0120418099
v 0.000492865703 -0.00215133984 0.0123946639
v -0.00344080243 0.00178232829 -0.0119785098
v 0.000497038028 -0.0018196996 0.0124475929
v -0.00343663011 0.00211396854 -0.0119255808
v 0.000575000903 -0.00149539073 0.0124872896
v -0.00335866723 0.00243827741 -0.0118858842
v 0.000722701213 -0.00119468529 0.0125119659
v -0.00321096692 0.00273892324 -0.0118612078
v 0.000932747981 -0.000932782485 0.0125204297
v 0.00196676936 -0.00196680386 0.0121866437
v -0.00196677957 0.00196680467 -0.0121866492
v 0.00539568718 -0.00202700927 0.00869754887
v 0.00540317106 -0.000721425871 0.00895557262
v 0.00643509116 -0.00754544099 0.00748800958
v 0.00335038518 -0.00493648771 0.00840684448
v -0.00193420111 -0.00348938899 0.00965235995
v 0.00519974115 -3.16210862e-05 0.009099796
v 0.0044838715 -0.00411712999 0.00855445692
v 0.00701683249 -0.007016867 0.00747942651
v -0.00136573982 0.001048834 0.0103344475
v -0.000542090903 0.00178844587 0.0103340996
v 0.000143145009 0.0020815693 0.0102250302
v 0.00487080159 0.000614016114 0.00925728031
v 0.000434218394 -0.00543997835 0.00898027674
v -0.00245630205 -0.000936998296 0.0101858878
v -0.00223904565 -0.000176846108 0.0102614702
v -0.00196421899 0.000153230461 0.0100860513
v 0.00185516797 -0.00939373525 0.00792887635
v 0.00293939795 -0.00923302729 0.00777971471
v -0.00122527928 -0.0043161791 0.00924550601
v -0.00634196048 -0.00283108386 0.0103109476
v 0.00138245751 0.00245525872 0.0101310725
v 0.00180042501 0.00254892275 0.0102055735
v 0.00443088882 0.00118234023 0.00942034228
v 0.00405404457 0.00175789779 0.00975008503
v -0.00371280401 0.00582676192 0.0103767031
v -0.0046760301 0.00664397416 0.00659044163
v -0.00219649536 0.00753218405 0.00800805617
v -0.00221018513 0.006704606 0.0102757494
v -0.000546098654 0.00728696338 0.0101004275
v 0.00129915505 0.00818385401 0.0075580434
v 0.00118559337 0.00753496709 0.0098603192
v 0.00292284345 0.00744196514 0.0095643265
v 0.00474707102 0.00746980014 0.00689880822
v 0.00460178938 0.00701075739 0.00922301319
v 0.00615448495 0.00625905123 0.00885046503
v 0.00763586774 0.00549731643 0.00612761243
v 0.00752295765 0.00521539304 0.00846054734
v 0.00865508067 0.00391980222 0.00806817174
v 0.00953629894 0.00255941066 0.00535617935
v 0.00950715837 0.00242201542 0.00768832372
v 0.0100468155 0.000779661896 0.00733552703
v 0.0101650452 -0.000906161993 0.00470423161
v 0.0102532854 -0.000945560303 0.007023062
v 0.0101182706 -0.00268678321 0.00676337364
v 0.0094292029 -0.0043839587 0.00426576239
v 0.00964694697 -0.00437691326 0.00656579088
v 0.00885762344 -0.00595058221 0.00643852247
v 0.00616142679 -0.0087117864 0.00642098193
v 0.00559371199 -0.00872316916 0.00400793279
v 0.00446314652 -0.00921075889 0.00324553516
v 0.0031714814 -0.0100266563 0.0065775161
v 0.00144532274 -0.0102597773 0.006814491
v -0.000285602657 -0.0101556931 0.00710715325
v -0.0019545042 -0.00971834693 0.00744298059
v -0.00350011462 -0.00896370242 0.00781138677
v -0.00486302895 -0.00792036426 0.00819669211
v -0.00599115002 -0.00662852742 0.0085827611
v -0.00684310185 -0.00513476785 0.0089589155
v -0.00738526491 -0.0034988426 0.00930631663
v -0.00761144352 -0.00171036798 0.0095753913
v -0.0074733539 2.81679593e-05 0.00983245291
v -0.0070034239 0.00171115506 0.0100254982
v -0.00597391583 0.00349043518 0.0103637798
v -0.0062230581 0.00327556514 0.0101450227
v -0.00531755468 0.00416681248 0.0106522829
v -0.0100465209 0.00197979408 -0.00441203243
v -0.00733920117 0.00779369359 -0.00642062502
v -0.00942118702 0.00490923026 -0.00652413903
v -0.00853927618 0.00642300575 -0.0064226116
v -0.00859468261 0.00542649447 -0.00223506393
v -0.0101253937 0.00265104965 -0.00676272665
v -0.0102462142 0.00124243143 -0.00698220937
v -0.0102282115 0.000356497523 -0.00682707685
v -0.0101521693 -0.000214610088 -0.00723107247
v -0.00975474693 -0.00193729878 -0.00519520992
v -0.00972080719 -0.00189217513 -0.0075707978
v -0.00896954573 -0.00344368349 -0.00794188713
v -0.0085415446 -0.00434108408 -0.00565565905
v -0.00774781558 -0.00507703644 -0.00813898532
v -0.00772229197 -0.00501065464 -0.00839870522
v -0.00642392404 -0.00616920887 -0.00851943611
v -0.00490800046 -0.0069800498 -0.00888675789
v -0.00325844664 -0.00747916701 -0.00922497751
v -0.0015373156 -0.00764861059 -0.00952243243
v 0.00019489781 -0.00748246496 -0.00976689025
v 0.00186879193 -0.0069867222 -0.00995048836
v 0.00342419855 -0.00618035397 -0.0100644375
v 0.00349026057 -0.00597394181 -0.0103639566
v 0.00514065408 -0.00455221017 -0.0103998791
v 0.00578185453 -0.00391213297 -0.0101809377
v 0.00651494494 -0.00470207075 -0.00694951558
v 0.00656674911 -0.00247392735 -0.0103179952
v 0.00736266629 -0.00254401307 -0.00796538879
v 0.00720179718 -0.000833726322 -0.0101561331
v 0.0079254279 -0.000855483459 -0.00778374792
v 0.00750757512 0.000889217381 -0.00992720376
v 0.00815583893 0.000901381491 -0.00753519743
v 0.0074731231 0.00262994073 -0.00964037745
v 0.00804456167 0.00266128847 -0.00723194845
v 0.00709943307 0.00432261346 -0.00930620464
v 0.00759555582 0.00435879813 -0.00688480716
v 0.00640087982 0.00590108301 -0.00893816495
v 0.00682591961 0.00593006914 -0.00650460439
v 0.00540419011 0.00730550761 -0.00854984114
v 0.00576410382 0.00731562739 -0.00610904492
v 0.004146654 0.00848234212 -0.00815573638
v 0.0044493758 0.0084645617 -0.00571212135
v 0.00268009776 0.00938357586 -0.00777214169
v 0.00293331313 0.0093321655 -0.00532457999
v 0.00126929099 0.00988789474 -0.00496610238
v -0.000657776189 0.0102408198 -0.0070911932
v -0.00047823649 0.0101098707 -0.00464769118
v -0.00239998276 0.0101630334 -0.00682052551
v -0.00224408912 0.00999006465 -0.00438145244
v -0.00409993902 0.0097479539 -0.00661044413
v -0.00396205485 0.00953300485 -0.00417623
v -0.00569767379 0.00901050762 -0.0064690145
v -0.00557111716 0.00875470335 -0.00404290005
v -0.00684479708 0.00818751685 -0.00610142399
v -0.00961305202 0.00433812499 -0.00541016597
v -0.00900939048 0.00332205951 0.000696479165
v -0.00809929167 0.00552430222 -0.000346283927
v 0.00754902033 -0.00701738185 0.00316441712
v -0.00760731233 0.00704323265 -0.00377634475
v -0.00706822191 0.0070681874 -0.00151241099
v -0.00673622403 0.00673618953 0.00090920652
v -0.00728737126 0.00533643439 0.00333327419
v -0.00653214059 0.00524209319 0.0057301457
v -0.00528276526 0.00463183135 0.0100341219
v -0.00991198571 0.00104346679 -0.00211572591
v -0.00889459942 0.00205054534 0.00306188289
v -0.00751066593 0.0032226588 0.00659046953
v -0.00962174602 -0.000261656862 0.000215018289
v -0.00816070983 0.00153885475 0.00642353725
v -0.00948189548 -0.00250873515 -0.00275590054
v -0.00915854826 -0.00156757417 0.00252223179
v -0.00847699335 -0.000228947792 0.00619079935
v -0.00884297521 -0.00377748376 -0.000479827368
v -0.00844911558 -0.00201359437 0.00589964344
v -0.00774029941 -0.00560157157 -0.00353787217
v -0.00804127773 -0.00498290843 0.00178976331
v -0.00807935084 -0.00375042012 0.00555780834
v -0.00678674315 -0.00670734896 -0.00128119245
v -0.00738107545 -0.00537583062 0.0051777799
v -0.00494376362 -0.00777956915 -0.00434175674
v -0.00570793442 -0.00769168181 0.000973792624
v -0.00637851887 -0.00682895964 0.00478470591
v -0.00375875277 -0.0086164839 -0.002078041
v -0.00511226689 -0.00805443584 0.00437541684
v -0.00150503664 -0.00872123204 -0.00504836244
v -0.00250169181 -0.00929482558 0.000197960894
v -0.00362819155 -0.00900717312 0.00397825378
v -0.000205121012 -0.00922416692 -0.00275044228
v -0.00198113066 -0.00965242642 0.00360439949
v 0.00206884236 -0.00828734528 -0.00555332098
v 0.00110326398 -0.00955476574 -0.000425614751
v -0.000233153298 -0.00996561394 0.0032646029
v 0.00334940862 -0.00844046232 -0.00319930119
v 0.00155151757 -0.00993569054 0.00297740474
v 0.00450926543 -0.00706879136 -0.00567162191
v 0.00439490195 -0.00869091813 4.40551471e-05
v 0.00330517294 -0.00956308555 0.0027456826
v 0.00620832218 -0.00703695715 -0.00174818297
v 0.00685035694 -0.00826054547 0.0062132142
v 0.00572054771 -0.00597736932 -0.00610551049
v 0.00751357005 -0.00760938984 0.00637453783
v 0.0082815264 -0.00570818753 0.00162578651
v 0.00799388186 -0.00476723421 -0.00205768583
v 0.00733411713 -0.00475808906 -0.00454195408
v 0.0087943028 -0.00372711601 -0.000752014227
v 0.00943283795 -0.00262582801 0.000597356881
v 0.00900351456 -0.00160738333 -0.00300762101
v 0.00852389455 -0.00119544189 -0.00545159024
v 0.00993407067 -0.000588229638 0.00218427236
v 0.00959992337 0.000717099506 -0.000139019538
v 0.00909344978 0.00201500716 -0.00243755065
v 0.00861324093 0.00239421983 -0.00488869609
v 0.00933149392 0.00293330216 0.00284946474
v 0.00865016264 0.00418767343 0.000574467391
v 0.00781171499 0.00536821135 -0.0016874371
v 0.00734343031 0.00571796565 -0.00414574898
v 0.00743851821 0.00593485919 0.00364076496
v 0.00645245826 0.00701002645 0.00138478792
v 0.00534732324 0.0079583569 -0.000872339003
v 0.00490131238 0.00828547681 -0.00333637554
v 0.00453554564 0.0079714133 0.00443746865
v 0.00333185142 0.00876772071 0.00217191071
v 0.00206312833 0.00940342327 -0.000110784295
v 0.00164735885 0.00971760442 -0.00257920368
v 0.00105068027 0.00874333983 0.00512341755
v -0.000251642913 0.00920197594 0.00281980114
v -0.00155429373 0.00948909774 0.000486289613
v -0.00193772453 0.00980279029 -0.00198627365
v -0.0025015564 0.00813602216 0.00559893315
v -0.00376828585 0.00824796216 0.00323496346
v -0.00474435602 0.00600639026 0.00805365766
v -0.00566989694 0.00696513097 0.00330424036
v -0.00497157879 0.00820277787 0.000831110541
v -0.00532443503 0.00852903954 -0.00164759945
v -0.00524198797 0.0001426056 -0.00887529265
v 0.001048822 -0.00136570944 -0.0103344164
v 0.001788491 -0.000542094206 -0.0103341114
v 0.0020815475 0.000143204216 -0.0102250504
v -0.00820815774 0.00559342625 -0.00751688881
v -0.0044246343 0.00394856335 -0.00839297208
v -0.00528910635 0.00251037199 -0.008635549
v -0.00557937432 0.00117240178 -0.00883803098
v -0.00928214445 0.00385324771 -0.00759262947
v 0.000283726331 -0.00190103358 -0.0102131998
v -0.00162219472 -0.0024342486 -0.0100615293
v -0.00257674141 -0.00228058426 -0.00985544811
v 0.00178296762 -0.00582998719 -0.0109590222
v 0.00239144669 0.00116053453 -0.0101206957
v 0.00211442828 0.00303530114 -0.00971188595
v 0.00165614112 0.00389584271 -0.00958319342
v 0.000966841838 0.00451841991 -0.009171131
v 0.000323610296 0.00506481816 -0.00919264583
v -0.000412343988 0.00527601119 -0.00899441698
v -0.000722087618 0.00540323546 -0.00895546501
v -0.00274956935 0.00515908788 -0.00846787573
v -0.00172086512 0.0094024148 -0.00794913308
v -0.00325718208 0.00916809673 -0.00773893462
v -0.00442892824 0.00876405876 -0.00761509215
v -0.00606543729 0.00788922913 -0.007492215
v -0.00370380326 -0.00173823101 -0.00942707706
v 0.00349413257 0.00799679332 -0.00900549959
v -0.00531203065 -0.0055283602 -0.00977921759
v -0.00282575193 -0.00634275299 -0.010311952
v 0.0063077199 0.00385884818 -0.0101238613
v 0.00238940709 0.00258402786 -0.00990954013
v -0.00256358259 0.00414977833 -0.00353223997
v 0.000250103991 0.00451626167 -0.00392719325
v 0.00201213943 0.00352939324 -0.00437080776
v 0.00274544444 0.00249996822 -0.00465536391
v 0.00318787897 0.00106573542 -0.00495816313
v 0.0027510934 -0.000939594204 -0.00521137698
v -4.37910012e-05 -0.00312142345 -0.00511242245
v -0.00175196443 -0.00302448828 -0.00482106482
v -0.00279639786 -0.0026024643 -0.00458442245
v -0.00416206329 -0.00119981907 -0.00413765087
v -0.00437237816 0.0019628969 -0.0035932764
v -0.00257138652 -0.00103735203 -0.00436809489
v -0.0036446253 0.000372515651 -0.00396735821
v -0.00308448587 0.00131669681 -0.00390541827
v 0.00118853461 -0.00209771622 -0.0051460927
v -0.000168592624 -0.0017404954 -0.00486943903
v -0.00240671115 0.00252763267 -0.00381939041
v -0.00131673131 0.00308451097 -0.00390541827
v -0.00137728963 -0.00168457587 -0.00466537749
v -0.000294018513 0.00317066271 -0.00405651689
v 0.000553424022 0.0028616492 -0.00424313818
v 0.00153143745 0.00192311165 -0.00455251347
v 0.00169470671 4.82742848e-06 -0.00488847409
v 4.98394472e-06 0.00169472213 0.00488845155
v 0.00192295402 0.00153147244 0.00455253638
v 0.00299568071 0.000326859638 0.00418503221
v 0.00315662313 -0.00124741687 0.00390498839
v 0.00201370166 -0.00283123115 0.00383382166
v 0.000106293056 -0.00317110025 0.00408681731
v -0.00105971608 -0.00247582753 0.00438713754
v -0.00171324592 -0.00147258748 0.00465458762
v -0.00150137152 0.00045043365 0.00493074186
v 0.00428586688 -0.00204250176 0.00359439577
v 0.00450413909 -0.00126221736 0.00368511404
v 0.00454787836 -0.000125775583 0.00386138116
v 0.00401868514 0.00138013461 0.0041898914
v 0.00316959109 0.00231561105 0.00447785581
v 0.00220787873 0.0028967775 0.0047269157
v 0.00204258647 -0.00428584178 0.00359439577
v 0.00276451792 -0.00391122658 0.0035383674
v 0.00363743656 -0.00316232302 0.00351828546
v 0.000627302928 0.00315812123 0.00502421442
v -0.00128812266 0.0025958584 0.00524255823
v -0.00249511514 0.00134840648 0.00523602689
v -0.00312130461 -4.34402244e-05 0.00511251274
v -0.00302452359 -0.00175204833 0.00482105936
v -0.00274545465 -0.00249996741 0.00465535844
v -0.0018662992 -0.00370808127 0.00431845726
v -0.000335877278 -0.00444057543 0.00395321573
v 0.000789124097 -0.00457423487 0.00375012417
v -0.00691050802 0.00815072696 -0.00664699351
v -0.00509797842 0.00932844643 -0.00674878583
v -0.00263112796 0.0101587585 -0.00702010673
v 0.000130737403 0.0101605919 -0.00739548045
v 0.00287109103 0.00923696201 -0.00805032526
v 0.00429886069 0.00829306285 -0.00843310629
v 0.00550800051 0.00708392303 -0.00882339751
v 0.00645189967 0.00565609376 -0.00920617854
v 0.00709431853 0.00406447093 -0.00956678664
v 0.00741069998 0.0023700897 -0.00989127432
v 0.00738864627 0.000638217138 -0.0101672438
v 0.00702923026 -0.00106474717 -0.0103840855
v 0.00634616103 -0.00267323811 -0.0105334548
v 0.00589101996 -0.0034225281 -0.0105809001
v 0.00536566462 -0.00412544568 -0.0106095103
v 0.00465994065 0.00700094487 -0.00933685733
v 0.00577004229 0.00533669899 -0.00979672959
v 0.00665737176 0.00231464957 -0.0104158002
v 0.0065440531 0.000715995782 -0.0106692636
v 0.00640872098 -7.21064366e-05 -0.0107746055
v 0.0061321668 -0.00121584501 -0.0109006055
v 0.00497163215 -0.00338012104 -0.0110632331
v 0.00329682385 -0.00514093547 -0.0110464827
v 0.000640294681 -0.00635691502 -0.0108496929
v -0.0012838439 -0.00669183553 -0.0105881153
v -0.00443294574 -0.00622790677 -0.0100050097
v -0.00609255499 -0.00525723604 -0.00959929271
v -0.00688514507 -0.00481586927 -0.00938113106
v -0.00800358553 -0.00367082948 -0.00901139946
v -0.00832933124 -0.00299620135 -0.00887097982
v -0.00885339094 -0.0023257144 -0.00865713899
v -0.00903868745 -0.00160220061 -0.00853149561
v -0.00941960606 -0.000835853854 -0.00832521744
v -0.00946054371 -8.26518629e-05 -0.00821817897
v -0.00968171816 0.000744351278 -0.00802790338
v -0.00983337117 0.00152754611 -0.00782649416
v -0.00841549113 0.00569066076 -0.00743869919
v -0.00717789445 0.00717785995 -0.00739741599
v -0.00813884176 0.00644579851 -0.00727638167
v -0.00800698279 0.00684337787 -0.007092144
v -0.00825255987 0.0067981369 -0.00678438235
v -0.00756031785 0.00756034295 -0.00663733756
v 0.00130710241 0.00987701927 -0.0077346453
v -0.0052524896 0.00874838278 -0.0074420468
v -0.00590289152 0.00857933475 -0.00725034465
v -0.00566245223 0.00891870297 -0.00709048765
v -0.00646327418 0.00847848753 -0.00680668408
v -0.00815076146 0.00691053312 -0.00664699351
v -0.00956438624 0.00393289336 -0.00736996309
v -0.00939693249 0.00476244501 -0.00709120884
v -0.00913125787 0.00545826595 -0.00672316824
v -0.0097433035 0.00263353032 -0.00762969986
v -0.00951189313 0.00466981571 -0.00678897177
v -0.0098143271 0.003849775 -0.00687241827
v -0.0101694963 0.00164777105 -0.00739363145
v -0.0100206329 0.00299233435 -0.00708719603
v -0.0101737431 0.0021468703 -0.00708925997
v -0.00978695039 -0.000815321452 -0.00805326131
v -0.0100879737 -6.37172509e-05 -0.00768288124
v -0.0101956776 0.000414938138 -0.00736522948
v -0.00922419346 -0.00238692143 -0.00839772453
v -0.00987941537 -0.00127938349 -0.00768971716
v -0.00836363438 -0.00380903758 -0.00876612578
v -0.00957075604 -0.0020826741 -0.00797840314
v -0.00923699651 -0.00287106593 -0.00805032526
v -0.00703494105 -0.00513414933 -0.0092418043
v -0.00877288835 -0.00359102506 -0.00835057633
v -0.00521744735 -0.00615186771 -0.00978105677
v -0.00675898 -0.00566837643 -0.00913423411
v -0.00800291922 -0.00465198593 -0.00853605889
v -0.00708395753 -0.00550797541 -0.00882339751
v -0.0044917202 -0.00667451296 -0.00984569652
v -0.00639409337 -0.00601556857 -0.00901663577
v -0.00601132596 -0.006286402 -0.00907713574
v -0.00204956737 -0.00692853191 -0.0104177256
v -0.00368833216 -0.00709996892 -0.0098607232
v -0.00487703595 -0.00681260188 -0.00939011847
v -0.00444980137 -0.00700336436 -0.00944467063
v -0.00142304591 -0.00720415173 -0.010366851
v -0.0032261065 -0.00729432662 -0.00973427569
v -0.00277075417 -0.00739855005 -0.00977910706
v 0.000811333976 -0.00669513382 -0.0107599535
v -0.00149705571 -0.00738766716 -0.01013772
v -0.00103823518 -0.00745680694 -0.0100679569
v 0.00197960885 -0.00606568475 -0.0109255713
v 0.00139969298 -0.00679837616 -0.0106336171
v 0.000221068522 -0.00725057681 -0.0102835921
v 0.000680052792 -0.00717623547 -0.0102996135
v 0.00355636051 -0.00541371394 -0.0109410069
v 0.00188475337 -0.00672677119 -0.010467532
v 0.00232019947 -0.0065669769 -0.0104658245
v 0.00518426876 -0.00349117049 -0.0110303585
v 0.00367655805 -0.00552985394 -0.0107861881
v 0.0034225532 -0.00589099486 -0.0105809001
v 0.00416035573 -0.00539671213 -0.0105382307
v 0.0058534042 -0.00290491315 -0.010906959
v 0.00553515155 -0.00372434163 -0.0108046099
v 0.00477522101 -0.00477525551 -0.0106191662
v 0.00664390569 -0.000514390892 -0.010785555
v 0.00703761744 0.000267636155 -0.0105859822
v 0.00678807888 -0.00150985822 -0.0105679157
v 0.00686720549 0.00276522523 -0.0102922447
v 0.00724196887 0.000160717964 -0.0103712861
v 0.0069287397 0.00362108184 -0.010027114
v 0.00736338727 0.00188088286 -0.0101132443
v 0.00582003033 0.00584897844 -0.00962561355
v 0.00714737606 0.00358312998 -0.00980368784
v 0.00554317795 0.00664485079 -0.00931567793
v 0.0066021362 0.00520206998 -0.00945443881
v 0.00366201559 0.00826697241 -0.00888713311
v 0.00574933624 0.00667460752 -0.00907915593
v 0.00334080416 0.00877612057 -0.0085565949
v 0.00462094221 0.0079456255 -0.00869206244
v 0.00153586172 0.00923405394 -0.00845608034
v 0.0012094592 0.00962957402 -0.00818953996
v 0.0035079779 0.00882550573 -0.00833119883
v 0.00199086378 0.00960587789 -0.00796047435
v -0.000135776224 0.00956448451 -0.00814910462
v -0.000212267155 0.00969253541 -0.00809107586
v -0.000864461838 0.010191239 -0.00752596332
v -0.00115058481 0.00994606063 -0.00779164955
v -0.0025856313 0.00992448794 -0.00746737434
v -0.0025286128 0.00955069977 -0.00776510537
v -0.00372690135 0.00974089843 -0.0072453723
v -0.00342628086 0.009468469 -0.00761101703
v -0.00523943219 0.00862643163 -0.00747645174
v -0.00443058702 0.00491612684 0.0108171344
v -0.00569977722 0.00332327715 0.0108662628
v -0.00651757079 0.00231682574 0.0105611714
v -0.00652598037 0.0018191656 0.0107568927
v -0.00713076247 0.00067759671 0.0103965528
v -0.00704884103 0.000185773889 0.0105777261
v -0.0074150764 -0.00103693522 0.0101650759
v -0.00724575465 -0.0015132682 0.0103352414
v -0.00735592749 -0.00280072411 0.00987380101
v -0.00724467128 -0.00317916996 0.00985103731
v -0.00706022664 -0.00399838258 0.00968353815
v -0.00684054704 -0.00480345703 0.00944431113
v -0.006375513 -0.00543326511 0.00956443388
v -0.00605957095 -0.00632748783 0.00907229786
v -0.00548589909 -0.00686222507 0.00919030645
v -0.00499278246 -0.00766235484 0.00868462562
v -0.00432907875 -0.00808411954 0.00880636647
v -0.00368143383 -0.00875691807 0.00829573639
v -0.00295083118 -0.00905023309 0.00842809678
v -0.00217569956 -0.00956933069 0.00792140812
v -0.00140358428 -0.0097240939 0.00806960777
v -0.000533209264 -0.0100688162 0.00757546918
v 0.000252507305 -0.0100796025 0.00774497041
v 0.00118332325 -0.0102363244 0.00727105247
v 0.00195463599 -0.0101034663 0.00746635184
v 0.00290719145 -0.0100655701 0.00702000666
v 0.0036375406 -0.0097943862 0.00724465727
v 0.00457356912 -0.00956318397 0.00683170077
v 0.00536456623 -0.0091934187 0.00676337346
v 0.00614087555 -0.008702881 0.00679369017
v 0.0075770283 -0.00757974113 0.00647444342
v 0.00806418503 -0.00690335364 0.0069943679
v 0.00858419889 -0.00621401838 0.007021782
v 0.00903541416 -0.00547908826 0.00706748071
v 0.009413659 -0.00470469351 0.00713144671
v 0.00971446569 -0.00390051024 0.00721273569
v 0.0099362062 -0.00307144589 0.00731075625
v 0.0100761284 -0.00222534801 0.00742486935
v 0.0101327477 -0.00137467769 0.00755296048
v 0.0101056321 -0.000522713652 0.00769485927
v 0.00999542436 0.000319436343 0.00784850226
v 0.00980237974 0.00114571574 0.00801306479
v 0.00952961253 0.00194517858 0.00818602662
v 0.00917786355 0.00271459819 0.00836704432
v 0.00875276736 0.00344165111 0.00855297048
v 0.00825654232 0.00412288764 0.00874296143
v 0.0076945887 0.00475066759 0.00893493068
v 0.00707296592 0.00531800875 0.00912694112
v 0.00639625565 0.00582089998 0.00931742493
v 0.00567338772 0.00625306377 0.00950370581
v 0.00490850081 0.00661167127 0.00968508921
v 0.00411100345 0.00689257514 0.00985903825
v 0.00328741129 0.00709317504 0.010024342
v 0.00244471552 0.00721167812 0.0101795887
v 0.00159498118 0.0072467771 0.0103222418
v 0.000742197247 0.00719809558 0.0104520608
v -0.000103885053 0.00706612349 0.0105673073
v -0.000935344725 0.00685204268 0.0106669296
v -0.00174188119 0.00655876273 0.010749774
v -0.00252262912 0.00618612136 0.0108155357
v -0.00325536647 0.00574579646 0.0108626089
v -0.00416971437 0.0053784466 0.0105531805
v 0.0074999555 -0.00729905762 0.00720375435
v 0.0066373739 -0.00815766218 0.00712024317
v 0.00539611911 -0.00887693699 0.00726440306
v 0.00464092054 -0.00924484954 0.00732687522
v 0.00304654323 -0.00975304105 0.00750240127
v 0.00139096794 -0.00994307905 0.00773878945
v -0.000261206886 -0.00980724364 0.00802740747
v -0.00184573236 -0.00935105223 0.00835696213
v -0.00330445862 -0.00859197047 0.0087147598
v -0.00457849816 -0.00755937729 0.00908731257
v -0.005622027 -0.00629201645 0.0094600497
v -0.00639258936 -0.00483880589 0.00981884381
v -0.00678014478 -0.00367219062 0.0100701368
v -0.00697503367 -0.00243639527 0.0103006108
v -0.00695998203 -0.000774242119 0.0105664098
v -0.00662117967 0.000858874516 0.0107753935
v -0.00597153403 0.00240512023 0.0109199235
v -0.00503593762 0.00380145863 0.0109943585
v -0.00447177421 0.00442637311 0.0110044226
v -0.00373841137 0.00478161265 0.0110597135
v 0.00670813176 -0.00775426363 0.00735048304
v -0.00295001779 0.00522634427 0.0110338899
v -0.00225908075 0.00564608018 0.0109901401
v -0.00153202329 0.00599709194 0.0109294626
v -0.000926387259 0.00616574796 0.0108754972
v 2.20026688e-06 0.00648012798 0.0107597085
v 0.000794584415 0.0066074435 0.0106524202
v 0.00141815367 0.00659486728 0.0105663925
v 0.00299946594 0.00649380316 0.0102948552
v 0.00372427542 0.00633021427 0.0101543434
v 0.00452258909 0.00608565123 0.00998318046
v 0.00519609965 0.00578400023 0.00982861724
v 0.00673859801 0.00487318675 0.00941323961
v 0.00732415404 0.0043437783 0.00923323358
v 0.0078535625 0.00375816266 0.00905334676
v 0.00832157817 0.00312206189 0.00887512888
v 0.00872390952 0.00244149606 0.00870036806
v 0.00905662265 0.00172308128 0.00853073324
v 0.00931637969 0.000973731683 0.00836777414
v 0.00950079646 0.00020065944 0.0082132789
v 0.00960808482 -0.00058868487 0.00806855882
v 0.00963717189 -0.00138673146 0.00793504442
v 0.0095528458 -0.00200789245 0.00786509882
v 0.00944450505 -0.00274685734 0.0077660956
v 0.00925637188 -0.00357805134 0.00765954062
v 0.00900861525 -0.00427877926 0.00758920318
v 0.00862639632 -0.00523945649 0.00747644628
v 0.00820666041 -0.00593039353 0.00743269647
v 0.00772231307 -0.00657865365 0.00740623201
v 0.00597504035 -0.00811854108 0.00745406265
v 0.00530527067 -0.00852420828 0.00749964901
v 0.00457615795 -0.0088975252 0.0075541177
v 0.00384231892 -0.00916724199 0.00763201817
v 0.00297814097 -0.00946047862 0.00770675863
v 0.00218575682 -0.00958785374 0.00781404699
v 0.00138669696 -0.00963720639 0.00793504442
v 0.000588709971 -0.00960811932 0.00806855882
v -0.000453433342 -0.00939956949 0.00828821155
v -0.00153716047 -0.00907116803 0.00851495409
v -0.0012429593 -0.00494373575 0.00948834033
v -0.00331582009 -0.00812788392 0.00895541604
v -0.0043438128 -0.00732412894 0.00923323358
v -0.00487322126 -0.0067385133 0.00941323961
v -0.00544196073 -0.00584808314 0.00966649667
v -0.00595546446 -0.00484539191 0.00991005759
v -0.00633603845 -0.00395408232 0.010098693
v -0.00652045522 -0.00318101008 0.0102531883
v -0.00662774358 -0.00239166577 0.0103979083
v -0.00665683065 -0.00159361918 0.0105314227
v -0.006607478 -0.000794559313 0.0106524202
v -0.00648016248 -2.23477047e-06 0.0107597085
v -0.00613695632 0.00102438319 0.0108878025
v -0.00567725207 0.00207649343 0.0109823105
v -0.00522631917 0.00295004289 0.0110338899
v -0.00474197183 0.00359830301 0.0110603544
v -0.004197543 0.0041975085 0.0110691758
f 1 2 3
f 3 2 4
f 3 4 5
f 5 4 6
f 5 6 7
f 7 6 8
f 7 8 9
f 9 8 10
f 9 10 11
f 11 10 12
f 11 12 13
f 13 12 14
f 13 14 15
f 15 14 16
f 15 16 17
f 17 16 18
f 17 18 19
f 19 18 20
f 19 20 21
f 21 20 22
f 21 22 23
f 23 22 24
f 23 24 25
f 25 24 26
f 25 26 27
f 27 26 28
f 27 28 29
f 29 28 30
f 29 30 31
f 31 30 32
f 31 32 33
f 33 32 34
f 33 34 35
f 35 34 36
f 35 36 37
f 37 36 38
f 37 38 39
f 39 38 40
f 39 40 41
f 41 40 42
f 41 42 43
f 43 42 44
f 43 44 45
f 45 44 46
f 45 46 47
f 47 46 48
f 47 48 49
f 49 48 50
f 49 50 51
f 51 50 52
f 51 52 53
f 53 52 54
f 53 54 55
f 55 54 56
f 55 56 1
f 1 56 2
f 28 26 57
f 34 32 57
f 57 32 30
f 57 30 28
f 40 38 57
f 57 38 36
f 57 36 34
f 46 44 57
f 57 44 42
f 57 42 40
f 52 50 57
f 57 50 48
f 57 48 46
f 2 56 57
f 57 56 54
f 57 54 52
f 8 6 57
f 57 6 4
f 57 4 2
f 14 12 57
f 57 12 10
f 57 10 8
f 20 18 57
f 57 18 16
f 57 16 14
f 26 24 57
f 57 24 22
f 57 22 20
f 29 31 58
f 23 25 58
f 58 25 27
f 58 27 29
f 17 19 58
f 58 19 21
f 58 21 23
f 11 13 58
f 58 13 15
f 58 15 17
f 5 7 58
f 58 7 9
f 58 9 11
f 55 1 58
f 58 1 3
f 58 3 5
f 49 51 58
f 58 51 53
f 58 53 55
f 43 45 58
f 58 45 47
f 58 47 49
f 37 39 58
f 58 39 41
f 58 41 43
f 31 33 58
f 58 33 35
f 58 35 37
f 59 570 569
f 62 577 576
f 62 576 61
f 65 572 59
f 59 572 571
f 59 571 570
f 61 66 62
f 62 66 65
f 62 579 578
f 62 578 577
f 72 78 63
f 63 78 591
f 63 591 590
f 74 598 73
f 74 67 599
f 74 599 598
f 71 75 62
f 62 75 76
f 62 76 579
f 586 584 71
f 586 585 584
f 77 63 587
f 77 587 586
f 80 554 79
f 558 557 82
f 82 557 556
f 82 556 80
f 80 556 555
f 124 178 129
f 129 130 124
f 133 132 134
f 133 134 135
f 136 135 137
f 137 138 139
f 139 412 140
f 140 416 141
f 141 419 142
f 142 422 143
f 143 426 144
f 144 429 145
f 145 146 433
f 128 126 178
f 127 126 128
f 180 128 178
f 180 178 179
f 180 179 185
f 125 127 182
f 182 127 128
f 183 182 128
f 183 128 184
f 184 128 180
f 184 180 185
f 124 188 178
f 178 188 179
f 179 189 185
f 185 189 190
f 185 190 186
f 186 190 122
f 186 122 187
f 187 122 121
f 187 121 123
f 130 131 124
f 124 131 188
f 188 191 179
f 179 191 189
f 189 192 190
f 190 192 120
f 190 120 467
f 190 467 122
f 132 133 131
f 131 133 188
f 133 193 188
f 188 193 191
f 191 194 189
f 189 194 195
f 189 195 192
f 192 195 119
f 192 119 469
f 192 469 120
f 193 196 191
f 191 196 194
f 194 197 195
f 195 197 118
f 195 118 471
f 195 471 119
f 135 136 133
f 133 136 193
f 136 198 193
f 193 198 196
f 196 199 194
f 194 199 200
f 194 200 197
f 197 200 117
f 197 117 473
f 197 473 118
f 136 137 198
f 198 201 196
f 196 201 199
f 199 202 200
f 200 202 116
f 200 116 476
f 200 476 117
f 137 139 198
f 139 203 198
f 198 203 201
f 201 204 199
f 199 204 205
f 199 205 202
f 202 205 115
f 202 115 478
f 202 478 116
f 139 140 203
f 203 206 201
f 201 206 204
f 204 207 205
f 205 207 114
f 205 114 480
f 205 480 115
f 140 141 203
f 141 208 203
f 203 208 206
f 206 209 204
f 204 209 210
f 204 210 207
f 207 210 113
f 207 113 482
f 207 482 114
f 141 142 208
f 208 211 206
f 206 211 209
f 209 212 210
f 210 212 112
f 210 112 484
f 210 484 113
f 142 143 208
f 143 213 208
f 208 213 211
f 211 214 209
f 209 214 215
f 209 215 212
f 212 215 111
f 212 111 486
f 212 486 112
f 143 144 213
f 213 216 211
f 211 216 214
f 214 217 215
f 215 217 110
f 215 110 488
f 215 488 111
f 144 145 213
f 145 218 213
f 213 218 216
f 216 219 214
f 214 219 220
f 214 220 217
f 217 220 109
f 217 109 490
f 217 490 110
f 433 223 145
f 145 223 218
f 218 223 221
f 218 221 216
f 216 221 219
f 219 108 220
f 220 108 492
f 220 492 109
f 108 493 492
f 221 222 219
f 219 222 107
f 219 107 108
f 108 107 106
f 108 106 493
f 221 181 222
f 107 222 106
f 225 181 221
f 227 221 223
f 227 223 149
f 147 223 433
f 495 224 181
f 181 224 222
f 222 224 495
f 105 495 181
f 226 225 221
f 226 221 227
f 148 149 223
f 148 223 147
f 103 105 181
f 103 181 225
f 104 105 103
f 228 225 226
f 151 227 149
f 151 149 150
f 150 149 148
f 229 103 225
f 229 225 228
f 230 228 226
f 230 226 231
f 231 226 227
f 231 227 151
f 102 104 103
f 229 228 230
f 153 231 151
f 153 151 152
f 152 151 150
f 100 102 103
f 100 103 232
f 232 103 229
f 101 102 100
f 233 232 229
f 233 229 230
f 155 231 153
f 155 153 154
f 154 153 152
f 234 233 230
f 234 230 235
f 235 230 231
f 235 231 155
f 99 101 100
f 157 235 155
f 157 155 156
f 156 155 154
f 97 99 100
f 97 100 236
f 236 100 232
f 236 232 233
f 98 99 97
f 237 236 233
f 237 233 234
f 159 235 157
f 159 157 158
f 158 157 156
f 238 237 234
f 238 234 239
f 239 234 235
f 239 235 159
f 96 98 97
f 161 239 159
f 161 159 160
f 160 159 158
f 94 96 97
f 94 97 240
f 240 97 236
f 240 236 237
f 95 96 94
f 241 240 237
f 241 237 238
f 163 239 161
f 163 161 162
f 162 161 160
f 242 241 238
f 242 238 243
f 243 238 239
f 243 239 163
f 93 95 94
f 165 243 163
f 165 163 164
f 164 163 162
f 91 93 94
f 91 94 244
f 244 94 240
f 244 240 241
f 92 93 91
f 245 244 241
f 245 241 242
f 167 243 165
f 167 165 166
f 166 165 164
f 246 245 242
f 246 242 247
f 247 242 243
f 247 243 167
f 90 92 91
f 168 247 167
f 168 167 381
f 381 167 166
f 88 90 91
f 88 91 248
f 248 91 244
f 248 244 245
f 342 168 381
f 89 90 88
f 249 248 245
f 249 245 246
f 170 247 168
f 170 168 169
f 169 168 342
f 250 249 246
f 250 246 251
f 251 246 247
f 251 247 170
f 87 89 88
f 172 251 170
f 172 170 171
f 171 170 169
f 85 87 88
f 85 88 252
f 252 88 248
f 252 248 249
f 86 87 85
f 253 252 249
f 253 249 250
f 174 251 172
f 174 172 173
f 173 172 171
f 256 253 250
f 256 250 257
f 257 250 251
f 257 251 174
f 83 86 85
f 176 257 174
f 176 174 175
f 175 174 173
f 84 83 85
f 84 85 252
f 84 252 253
f 526 83 254
f 254 83 84
f 255 84 253
f 255 253 256
f 177 257 176
f 177 176 175
f 177 125 182
f 177 182 257
f 257 182 183
f 257 183 256
f 256 183 184
f 256 184 255
f 255 184 185
f 255 185 84
f 84 185 186
f 84 186 254
f 254 186 187
f 254 187 526
f 264 262 263
f 264 265 266
f 258 370 371
f 258 371 372
f 267 270 362
f 267 362 268
f 279 277 278
f 278 280 279
f 278 282 281
f 278 281 280
f 262 282 263
f 263 282 278
f 372 373 258
f 258 373 265
f 275 284 274
f 274 284 273
f 258 368 369
f 258 369 370
f 283 365 366
f 283 366 258
f 258 366 367
f 258 367 368
f 283 269 285
f 283 285 365
f 268 286 269
f 355 287 272
f 272 287 288
f 271 357 358
f 289 263 278
f 289 278 290
f 290 278 277
f 290 277 276
f 290 276 275
f 290 275 291
f 291 275 274
f 291 274 273
f 291 273 292
f 292 273 272
f 292 272 293
f 293 272 288
f 293 288 271
f 293 271 294
f 294 271 261
f 294 261 260
f 294 260 303
f 303 260 259
f 303 259 267
f 303 267 295
f 295 267 268
f 295 268 269
f 295 269 296
f 296 269 297
f 297 269 283
f 297 283 298
f 298 283 258
f 298 258 301
f 301 258 299
f 299 258 265
f 299 265 264
f 299 264 263
f 299 263 289
f 300 297 298
f 300 298 301
f 311 294 303
f 301 299 302
f 302 299 305
f 305 299 289
f 305 289 306
f 303 295 304
f 304 295 307
f 307 295 296
f 307 296 300
f 300 296 297
f 306 289 308
f 308 289 290
f 308 290 309
f 309 290 310
f 290 291 310
f 310 291 292
f 310 292 293
f 310 293 311
f 311 293 294
f 320 305 312
f 312 305 306
f 312 306 308
f 312 308 313
f 313 308 309
f 313 309 310
f 313 310 314
f 314 310 315
f 315 310 311
f 315 311 316
f 316 311 303
f 316 303 304
f 316 304 317
f 317 304 307
f 317 307 300
f 317 300 318
f 318 300 319
f 319 300 301
f 319 301 320
f 320 301 302
f 320 302 305
f 315 321 322
f 315 322 323
f 315 323 314
f 323 324 314
f 314 324 313
f 313 324 325
f 313 325 326
f 313 326 312
f 316 327 328
f 316 328 329
f 316 329 315
f 315 329 321
f 326 330 312
f 312 330 331
f 312 331 320
f 331 332 320
f 320 332 333
f 320 333 319
f 319 333 334
f 334 335 319
f 319 335 336
f 319 336 318
f 318 336 317
f 317 336 337
f 317 337 338
f 317 338 316
f 316 338 327
f 67 331 68
f 68 331 69
f 69 331 79
f 79 331 330
f 79 330 80
f 80 330 326
f 80 326 82
f 82 326 325
f 82 325 81
f 81 325 324
f 81 324 70
f 70 324 64
f 64 324 323
f 64 323 60
f 60 323 59
f 59 323 322
f 59 322 321
f 59 321 65
f 65 321 329
f 65 329 62
f 62 329 328
f 62 328 327
f 62 327 338
f 62 338 71
f 71 338 586
f 586 338 337
f 586 337 336
f 586 336 77
f 77 336 63
f 63 336 335
f 63 335 334
f 63 334 72
f 72 334 333
f 72 333 73
f 73 333 74
f 74 333 332
f 74 332 67
f 67 332 331
f 175 173 340
f 173 171 341
f 171 169 341
f 166 164 454
f 164 162 451
f 162 160 449
f 160 158 447
f 158 156 445
f 156 154 443
f 154 152 441
f 152 150 439
f 150 148 352
f 148 147 353
f 452 275 276
f 354 273 284
f 355 272 273
f 356 288 287
f 356 271 288
f 359 271 358
f 359 261 271
f 360 260 261
f 360 259 260
f 361 267 259
f 363 268 362
f 363 286 268
f 364 269 286
f 364 285 269
f 374 265 373
f 375 262 264
f 282 262 376
f 376 262 375
f 376 375 377
f 386 127 125
f 264 266 375
f 375 266 387
f 375 387 377
f 377 387 388
f 377 388 378
f 378 388 379
f 379 386 380
f 380 386 125
f 386 379 127
f 389 126 127
f 265 374 266
f 266 374 390
f 266 390 387
f 388 389 379
f 379 389 127
f 388 391 389
f 389 391 126
f 392 178 126
f 390 374 393
f 390 393 387
f 387 393 394
f 387 394 388
f 388 394 392
f 388 392 391
f 391 392 126
f 392 394 129
f 392 129 178
f 372 371 396
f 372 396 373
f 373 396 397
f 373 397 374
f 374 397 393
f 393 395 394
f 394 395 129
f 395 393 130
f 395 130 129
f 398 132 131
f 370 369 399
f 370 399 371
f 371 399 396
f 397 398 393
f 393 398 131
f 393 131 130
f 398 397 132
f 400 134 132
f 368 367 401
f 368 401 369
f 369 401 399
f 399 402 396
f 396 402 400
f 396 400 397
f 397 400 132
f 400 402 134
f 403 135 134
f 366 404 367
f 367 404 401
f 401 405 399
f 399 405 403
f 399 403 402
f 402 403 134
f 403 405 135
f 408 137 135
f 285 364 365
f 365 364 406
f 365 406 366
f 366 406 404
f 404 407 401
f 401 407 408
f 401 408 405
f 405 408 135
f 408 138 137
f 409 139 138
f 406 410 404
f 404 410 407
f 407 409 408
f 408 409 138
f 411 412 139
f 407 411 409
f 409 411 139
f 286 363 364
f 364 363 413
f 364 413 406
f 406 413 410
f 410 414 407
f 407 414 412
f 407 412 411
f 415 416 140
f 414 415 412
f 412 415 140
f 413 417 410
f 410 417 414
f 414 416 415
f 418 419 141
f 414 418 416
f 416 418 141
f 363 362 420
f 363 420 413
f 413 420 417
f 417 421 414
f 414 421 419
f 414 419 418
f 421 422 142
f 419 421 142
f 270 423 362
f 362 423 420
f 420 424 417
f 417 424 422
f 417 422 421
f 425 426 143
f 267 361 270
f 270 361 423
f 424 425 422
f 422 425 143
f 423 361 427
f 423 427 420
f 420 427 424
f 424 426 425
f 428 429 144
f 259 360 361
f 424 428 426
f 426 428 144
f 360 430 361
f 361 430 427
f 427 431 424
f 424 431 429
f 424 429 428
f 432 146 145
f 431 432 429
f 429 432 145
f 430 434 427
f 427 434 435
f 427 435 431
f 431 435 433
f 431 433 432
f 432 433 146
f 436 147 433
f 261 359 360
f 360 359 430
f 435 436 433
f 359 437 430
f 430 437 434
f 435 353 436
f 436 353 147
f 359 358 437
f 435 352 353
f 353 352 148
f 358 357 437
f 437 438 434
f 434 438 439
f 434 439 435
f 435 439 351
f 435 351 352
f 352 351 150
f 271 356 357
f 357 356 437
f 351 439 150
f 356 440 437
f 437 440 438
f 438 441 439
f 439 441 350
f 439 350 152
f 350 441 152
f 356 287 440
f 440 442 438
f 438 442 443
f 438 443 441
f 441 443 349
f 441 349 154
f 287 355 440
f 349 443 154
f 355 444 440
f 440 444 442
f 442 445 443
f 443 445 348
f 443 348 156
f 348 445 156
f 273 354 355
f 355 354 444
f 444 446 442
f 442 446 447
f 442 447 445
f 445 447 347
f 445 347 158
f 347 447 158
f 354 284 448
f 354 448 444
f 444 448 446
f 446 449 447
f 447 449 346
f 447 346 160
f 346 449 160
f 275 452 284
f 284 452 448
f 448 450 446
f 446 450 451
f 446 451 449
f 449 451 345
f 449 345 162
f 345 451 162
f 452 453 448
f 448 453 450
f 450 454 451
f 451 454 344
f 451 344 164
f 344 454 164
f 453 455 450
f 450 455 343
f 450 343 454
f 454 343 166
f 453 381 455
f 343 455 166
f 342 381 458
f 458 381 453
f 457 453 452
f 457 452 456
f 456 452 277
f 277 452 276
f 455 381 166
f 459 458 453
f 459 453 457
f 341 169 342
f 341 342 458
f 457 456 279
f 279 456 277
f 460 458 459
f 461 459 457
f 461 457 279
f 462 341 458
f 462 458 460
f 463 460 459
f 463 459 461
f 280 461 279
f 462 460 463
f 463 461 280
f 340 173 341
f 340 341 384
f 384 341 462
f 382 462 463
f 281 463 280
f 383 384 462
f 383 462 382
f 464 382 463
f 464 463 282
f 282 463 281
f 385 175 340
f 385 340 384
f 382 464 282
f 339 125 385
f 385 125 177
f 385 177 175
f 380 125 339
f 380 339 379
f 379 339 385
f 379 385 378
f 378 385 384
f 378 384 377
f 377 384 383
f 377 383 376
f 376 383 382
f 376 382 282
f 123 121 466
f 466 121 122
f 466 122 467
f 468 467 120
f 468 120 469
f 470 469 119
f 470 119 471
f 472 471 118
f 472 118 473
f 474 473 475
f 473 117 475
f 475 117 476
f 476 116 477
f 477 116 478
f 478 115 479
f 479 115 480
f 480 114 481
f 481 114 482
f 482 113 483
f 483 113 484
f 484 112 485
f 485 112 486
f 486 111 487
f 487 111 488
f 488 110 489
f 489 110 490
f 490 109 491
f 491 109 492
f 493 106 494
f 494 106 222
f 496 495 105
f 496 105 497
f 497 105 498
f 498 105 104
f 498 104 499
f 499 104 500
f 500 104 102
f 500 102 501
f 501 102 502
f 502 102 101
f 502 101 503
f 503 101 504
f 504 101 99
f 504 99 505
f 505 99 506
f 506 99 98
f 506 98 507
f 507 98 508
f 508 98 96
f 508 96 509
f 509 96 510
f 510 96 95
f 510 95 511
f 511 95 512
f 512 95 93
f 512 93 513
f 513 93 514
f 514 93 92
f 514 92 515
f 515 92 516
f 516 92 90
f 516 90 517
f 517 90 518
f 518 90 89
f 518 89 519
f 519 89 520
f 520 89 87
f 520 87 521
f 521 87 522
f 522 87 86
f 522 86 523
f 523 86 524
f 524 86 83
f 524 83 525
f 525 83 526
f 465 526 187
f 465 187 123
f 526 465 525
f 496 527 495
f 495 527 528
f 495 528 222
f 222 528 494
f 494 528 529
f 494 529 493
f 493 529 530
f 493 530 492
f 492 530 491
f 491 531 490
f 490 531 489
f 489 532 488
f 488 532 487
f 487 533 486
f 486 533 485
f 485 534 484
f 484 534 483
f 483 535 482
f 482 535 481
f 481 536 480
f 480 536 479
f 479 537 478
f 478 537 477
f 477 538 476
f 476 538 539
f 476 539 475
f 475 539 474
f 474 539 540
f 474 540 473
f 473 540 472
f 472 541 471
f 471 541 470
f 470 542 469
f 469 542 468
f 468 543 467
f 467 543 466
f 466 544 123
f 123 544 545
f 123 545 465
f 545 546 465
f 465 546 525
f 527 547 528
f 546 548 525
f 525 548 549
f 525 549 524
f 524 549 550
f 524 550 523
f 523 550 551
f 523 551 522
f 522 551 552
f 522 552 521
f 521 552 553
f 521 553 520
f 520 553 554
f 520 554 519
f 519 554 80
f 519 80 518
f 518 80 555
f 518 555 517
f 517 555 556
f 517 556 516
f 516 556 557
f 516 557 515
f 515 557 558
f 515 558 514
f 514 558 82
f 514 82 513
f 513 82 559
f 513 559 512
f 512 559 560
f 512 560 511
f 511 560 561
f 511 561 510
f 510 561 562
f 510 562 509
f 509 562 563
f 509 563 508
f 508 563 564
f 508 564 507
f 507 564 565
f 507 565 506
f 506 565 566
f 506 566 505
f 505 566 567
f 505 567 504
f 504 567 568
f 504 568 503
f 503 568 569
f 503 569 502
f 502 569 570
f 502 570 501
f 501 570 571
f 501 571 500
f 500 571 572
f 500 572 499
f 499 572 573
f 499 573 498
f 498 573 574
f 498 574 497
f 497 574 575
f 497 575 496
f 496 575 527
f 547 576 528
f 528 576 577
f 528 577 529
f 529 577 578
f 529 578 530
f 530 578 579
f 530 579 491
f 491 579 580
f 491 580 531
f 531 580 581
f 531 581 489
f 489 581 582
f 489 582 532
f 532 582 583
f 532 583 487
f 487 583 584
f 487 584 533
f 533 584 485
f 485 584 585
f 485 585 534
f 534 585 586
f 534 586 483
f 483 586 587
f 483 587 535
f 535 587 481
f 481 587 588
f 481 588 536
f 536 588 589
f 536 589 479
f 479 589 590
f 479 590 537
f 537 590 477
f 477 590 591
f 477 591 538
f 538 591 592
f 538 592 539
f 539 592 593
f 539 593 594
f 539 594 540
f 540 594 595
f 540 595 472
f 472 595 596
f 472 596 541
f 541 596 597
f 541 597 470
f 470 597 598
f 470 598 542
f 542 598 468
f 468 598 599
f 468 599 543
f 543 599 600
f 543 600 466
f 466 600 601
f 466 601 544
f 544 601 602
f 544 602 545
f 545 602 546
f 602 68 546
f 546 68 548
f 548 68 549
f 549 68 69
f 549 69 550
f 550 69 79
f 550 79 551
f 552 551 79
f 552 79 553
f 553 79 554
f 559 82 81
f 559 81 560
f 560 81 561
f 561 81 70
f 561 70 562
f 562 70 563
f 563 70 64
f 563 64 564
f 564 64 565
f 565 64 60
f 565 60 566
f 566 60 567
f 567 60 59
f 567 59 568
f 568 59 569
f 573 572 65
f 573 65 574
f 574 65 575
f 575 65 66
f 575 66 527
f 527 66 61
f 527 61 547
f 547 61 576
f 579 76 580
f 580 76 75
f 580 75 581
f 581 75 582
f 582 75 71
f 582 71 583
f 583 71 584
f 588 587 63
f 588 63 589
f 589 63 590
f 592 591 78
f 592 78 593
f 593 78 594
f 594 78 72
f 594 72 595
f 595 72 596
f 596 72 73
f 596 73 597
f 597 73 598
f 600 599 67
f 600 67 601
f 601 67 602
f 602 67 68
