v 0.00883881514 -0.00883885281 0.00150003201
v -0.00911338861 0.00856427295 0.00144889122
v 0.00856427615 -0.0091133918 0.00144889122
v -0.00936921174 0.00830844982 0.00129904514
v 0.00830845302 -0.00936921494 0.00129904514
v -0.00958879525 0.00808886631 0.00106062656
v 0.0080888695 -0.00958879845 0.00106062656
v -0.00975735719 0.00792030437 0.000749967156
v 0.00792030757 -0.00975736039 0.000749967156
v -0.00986333425 0.00781432731 0.000388286172
v 0.00781433051 -0.00986333745 0.000388286172
v -0.00989945466 0.0077782069 2.15154692e-08
v 0.0077782101 -0.00989945786 2.15154692e-08
v -0.00986333425 0.00781432731 -0.000388243141
v 0.00781433051 -0.00986333745 -0.000388243141
v -0.00975735719 0.00792030437 -0.000750043334
v 0.00792030757 -0.00975736039 -0.000750043334
v -0.00958879525 0.00808886631 -0.00106070274
v 0.0080888695 -0.00958879845 -0.00106070274
v -0.00936921174 0.00830844982 -0.00129900211
v 0.00830845302 -0.00936921494 -0.00129900211
v -0.00911338861 0.00856427295 -0.00144884819
v 0.00856427615 -0.0091133918 -0.00144884819
v -0.00883884961 0.00883881195 -0.00149998897
v 0.00883881514 -0.00883885281 -0.00149998897
v -0.00856431062 0.00911335094 -0.00144884819
v 0.00911335414 -0.00856431382 -0.00144884819
v -0.00830848748 0.00936917408 -0.00129900211
v 0.00936917727 -0.00830849068 -0.00129900211
v -0.00808878476 0.0095888768 -0.00106070274
v 0.00958887999 -0.00808878796 -0.00106070274
v -0.00792022283 0.00975743873 -0.000750043334
v 0.00975744193 -0.00792022603 -0.000750043334
v -0.00781436498 0.00986329658 -0.000388243141
v 0.00986329978 -0.00781436818 -0.000388243141
v -0.00777812535 0.0098995362 2.15154692e-08
v 0.0098995394 -0.00777812855 2.15154692e-08
v -0.00781436498 0.00986329658 0.000388286172
v 0.00986329978 -0.00781436818 0.000388286172
v -0.00792022283 0.00975743873 0.000749967156
v 0.00975744193 -0.00792022603 0.000749967156
v -0.00808878476 0.0095888768 0.00106062656
v 0.00958887999 -0.00808878796 0.00106062656
v -0.00830848748 0.00936917408 0.00129904514
v 0.00936917727 -0.00830849068 0.00129904514
v -0.00856431062 0.00911335094 0.00144889122
v 0.00911335414 -0.00856431382 0.00144889122
v -0.00883884961 0.00883881195 0.00150003201
v -0.00883884961 0.00883881195 2.15154692e-08
v 0.00883881514 -0.00883885281 2.15154692e-08
v -0.00965898154 0.0040525977 0.000208317398
v -0.00961875737 0.00411098108 -0.000930365906
v -0.00935357488 0.0043129651 -0.00167714722
v -0.00700338752 0.00670795729 -0.00396423167
v -0.00620460994 0.00752524144 -0.00389411467
v -0.00564807841 0.00801863556 -0.00356475213
v -0.00108452375 0.0123505984 0.000837347565
v -0.00396990314 0.00946518209 0.000771145637
v -0.00140476286 0.0120302306 0.00280589931
v -0.00117726857 0.0122578536 0.00166537529
v -0.00455812423 0.00917169686 0.00231497496
v -0.00511873791 0.00878478013 0.00324620676
v -0.00892061802 0.0048091366 -0.00279553034
v -0.0048862857 0.00884328952 -0.00290516913
v -0.00670809461 0.00700323007 0.00396415717
v -0.00752397351 0.0062058325 0.00389426308
v -0.00801982652 0.00564710097 0.00356423081
v -0.00884148214 0.00488813719 0.00290719988
v -0.00957390958 0.0041375934 0.000990219768
v -0.00878465439 0.00511890068 -0.00324647869
v -0.00610383088 0.00733117206 0.00380220181
v -0.00733120973 0.00610391242 -0.00380227798
v -0.00823234043 0.00520273883 -0.00772883815
v -0.00411120972 0.00954232964 -0.00106087036
v -0.00519976031 0.00823525601 0.00772754257
v -0.00938038132 0.00433134308 0.00174009606
v -0.00456150109 0.00887362106 -0.00243160957
v -0.00199291394 0.0114421787 -0.00443571537
v -0.00887353952 0.00456146343 0.0024316526
v -0.00665065773 0.00229138507 0.00876508629
v -0.00785654475 0.00432758395 0.00865976536
v -0.00908768113 0.00309429506 0.00795403084
v -0.00896347068 4.05524068e-05 0.00681627227
v -0.0101888136 0.00199076521 0.00690151555
v -0.0111114905 0.0010663233 0.00554867833
v -0.0105308198 -0.00148571126 0.00374622781
v -0.0118150864 0.000360299138 0.00395515032
v -0.0122701747 -9.66914803e-05 0.00218771884
v -0.0122379122 -0.000505462485 0.00103701972
v -0.0123056318 -0.000142113335 -0.00191003771
v -0.010103599 -0.00255638521 -0.00262453949
v -0.0095983606 -0.00205243448 -0.00437771924
v -0.0108888345 0.00109523671 -0.00581743406
v -0.00993855455 0.00203607062 -0.00711175704
v -0.0088208043 0.00314551837 -0.00810558283
v -0.00605712418 0.00271255361 -0.00894749738
v -0.0022923175 0.00665168906 -0.00876493556
v -0.00432753112 0.00785622542 -0.00865981991
v -0.00309490247 0.00908682493 -0.00795464054
v -4.1041618e-05 0.0089637776 -0.00681635273
v -0.00199038841 0.0101893305 -0.00690091237
v -0.00106599025 0.0111115319 -0.00554834804
v 0.00148628886 0.0105303688 -0.00374627627
v -0.000360022672 0.0118153735 -0.00395426708
v 9.66689655e-05 0.0122702067 -0.0021876139
v 0.000506273714 0.0122371444 -0.00103710307
v 0.000142067638 0.0123055263 0.00191040024
v 0.00255826583 0.0101017484 0.00262526689
v 0.00205326133 0.00959780194 0.00437743175
v -0.0010952206 0.0108893335 0.00581694336
v -0.00203637678 0.00993936823 0.00711134174
v -0.00314448137 0.00882111031 0.00810505953
v -0.00476807265 0.0074146286 0.00880706606
v -0.0043766403 0.00750035899 0.00877570917
v -0.00566823855 0.00690814565 0.00890265415
v 0.0058778305 -0.00630848418 0.00900625159
v -0.00484620506 -0.00857577478 -0.000581384447
v 0.00412480558 -0.00805842747 -0.00856311065
v 0.00168216336 -0.00728246212 -0.00840388538
v 0.00498028557 -0.00720482142 -0.00887379623
v 0.00249715301 -0.00438303096 -0.00926509133
v 0.00642605226 -0.00575736112 -0.00899272897
v 0.00857551751 0.00484653362 0.000580986131
v 0.00805856154 -0.00412474451 0.00856310107
v 0.00728004372 -0.0016805062 0.00840438931
v 0.00720489694 -0.00498022403 0.00887383213
v 0.00438352061 -0.00249853067 0.00926511941
v 0.00879421914 -0.00360880654 0.00819282947
v 0.0101857309 -0.00163582791 0.00676085949
v 0.0110542395 -0.000740665846 0.00539426285
v 0.0112420648 -0.000941112197 0.0052924171
v 0.0117081156 -6.00603869e-05 0.00380408012
v 0.011907745 -0.000275552152 0.00366209682
v 0.0121214443 0.000376745589 0.00205613179
v 0.0123189481 0.000135713609 0.00187213396
v 0.0123242054 0.000449591638 -0.000493928294
v 0.00990026701 0.00327225148 -0.00103889092
v 0.0123372563 0.000113681562 -0.00184682684
v 0.0121197393 0.000244290301 -0.00232240882
v 0.00962873419 0.00297931986 -0.00288886466
v 0.0116539904 -0.000222808398 -0.00406202368
v 0.00909908203 0.0024299478 -0.00462151235
v 0.011259981 -0.000960787538 -0.00528257257
v 0.0109467281 -0.000931292896 -0.00562948928
v 0.0083306706 0.00164814281 -0.00616634849
v 0.010027893 -0.00185144998 -0.00695932409
v 0.00735595361 0.000663212611 -0.0074603026
v 0.00928401664 -0.00292653288 -0.00779573725
v 0.00893522531 -0.00294561167 -0.00799614408
v 0.00621107391 -0.000480965911 -0.0084496467
v 0.00789789116 -0.00401070751 -0.00861595841
v 0.00494484103 -0.00173921178 -0.00909312846
v 0.00699535644 -0.0049679121 -0.00893333021
v 0.00360814478 -0.00879499787 -0.00819245336
v 0.00163506331 -0.0101849763 -0.00676093616
v 0.00183152881 -0.0103515742 -0.0066909704
v 0.000738938344 -0.011052898 -0.00539436141
v 0.000941179283 -0.0112423384 -0.00529211071
v 6.05620574e-05 -0.0117079723 -0.00380489828
v 0.000275515946 -0.0119075963 -0.00366216811
v -0.000377723025 -0.0121207529 -0.00205601391
v -0.000135720138 -0.0123190211 -0.00187204972
v -0.000449021081 -0.0123247809 0.000493730918
v -0.00327078389 -0.00990159062 0.00103857674
v -0.000113785486 -0.0123371954 0.00184706523
v -0.000244594071 -0.0121197061 0.00232196758
v -0.00297756765 -0.00963050258 0.00288820299
v 0.000295731952 -0.0119271773 0.00364491834
v 0.000223680841 -0.011654314 0.00406261056
v -0.00243039961 -0.00909867524 0.00462151204
v 0.000960731136 -0.0112599853 0.00528257042
v 0.000931827354 -0.0109468438 0.00562980288
v -0.00164832432 -0.00833052203 0.00616632968
v 0.00185082795 -0.010365566 0.00668661541
v 0.00185214098 -0.0100283539 0.00695939684
v -0.000665948593 -0.00735323048 0.00746059613
v 0.00292661039 -0.00928398563 0.0077958397
v 0.00294609114 -0.00893636526 0.00799566699
v 0.00048029613 -0.00620958778 0.00845004632
v 0.00401103526 -0.00789799125 0.00861603977
v 0.00174225658 -0.0049479002 0.00909278342
v 0.0049677046 -0.00699518248 0.00893339259
v 0.00501242638 -0.00036659828 0.00887517196
v 0.000366692453 -0.00501150031 -0.00887548223
v 0.00258795872 0.000796688199 0.00924517973
v 0.00330255893 -0.00325148588 -0.00939553379
v -0.000794601227 -0.00259004074 -0.00924509493
v -0.00223876033 -0.00047321224 -0.009326814
v -0.004367455 0.00100975339 -0.0091610519
v 0.000190798244 0.0124488926 0.00115557686
v -0.0124485221 -0.00019146114 -0.00115507155
v 0.000125801375 0.0019203892 0.0094396746
v -0.00547428961 0.00614859592 0.00906807653
v 0.00729969391 0.00191858962 0.00686079769
v 0.00503043552 0.00323515475 0.0075525099
v 0.00267502432 0.00446994924 0.00810403898
v -0.0011008085 0.00559243631 0.00881629527
v 0.000110661319 0.00679911719 0.00799636433
v 0.00883878077 0.00345910531 0.00373377462
v 0.00680078612 0.00500709057 0.00463550425
v 0.0046459062 0.00643962571 0.0054549415
v 0.00117827567 0.00786538077 0.00684962405
v 0.00206846457 0.00874076113 0.00542200047
v 0.00667548173 0.00667559156 0.00144578827
v 0.00554972729 0.00729937107 0.0028499461
v 0.000192923002 0.0123762284 0.00136151081
v 0.0124581284 0.000274816584 2.15154692e-08
v 0.000274819784 0.0124581252 2.15154692e-08
v 0.00337164786 0.00990540723 -0.00038627131
v 0.00571746028 0.00751154786 -0.00192277063
v 0.00751216317 0.0057172233 -0.00192144913
v 0.00345951668 0.00883836755 -0.00373389438
v 0.00464470713 0.00643939189 -0.00545637671
v 0.0064396478 0.00464575379 -0.00545506884
v 0.0019203606 0.00729840727 -0.00686062351
v 0.00267413438 0.00446901029 -0.00810477796
v 0.0044689978 0.00267574122 -0.00810409573
v -0.000367028183 0.00501183753 -0.00887547511
v -0.00369437272 0.00501731975 -0.00919912094
v -0.00246357302 0.00278372732 -0.00943479466
v 0.00163515469 0.000539259506 -0.00945345941
v 0.00341049143 -0.00124233402 -0.00938564623
v -0.00646627608 0.0054895996 -0.00902302683
v -0.00192058951 -0.00729820732 -0.00686065125
v -0.00323501329 -0.00503111763 -0.0075521493
v -0.00446934102 -0.00267525226 -0.00810413672
v -0.00680159486 -0.000109216153 -0.00799574319
v -0.00346041196 -0.008837441 -0.0037340945
v -0.00500605508 -0.00680201001 -0.00463520373
v -0.00643905966 -0.00464621591 -0.00545521121
v -0.00786612732 -0.00117964389 -0.00684827459
v -0.0087443389 -0.00206481046 -0.00542153738
v -0.00667537178 -0.00667557331 -0.00144657705
v -0.00729829402 -0.00555096383 -0.00284989331
v -0.0123761469 -0.000192960668 -0.00136146778
v -0.000274854251 -0.0124581661 2.15154692e-08
v -0.0124581629 -0.00027485745 2.15154692e-08
v -0.00990692819 -0.00336992667 0.000386172455
v -0.00751112709 -0.00571782437 0.00192331859
v -0.00571848536 -0.00751090433 0.00192180333
v -0.00883768002 -0.00346025624 0.00373380185
v -0.00643916542 -0.00464515899 0.00545615975
v -0.00464689198 -0.00643849324 0.00545511922
v -0.00729948784 -0.00191882476 0.00686082536
v -0.0044692582 -0.00267396379 0.00810478744
v -0.00267452835 -0.00447029954 0.00810407991
v -0.00501247151 0.000366720115 0.00887516677
v -0.000809607918 -0.0025592915 0.00919848997
v -0.00501735742 0.00369445426 0.00919916397
v -0.00234899243 0.00302944117 0.00945141714
v -0.00223650959 -0.00047404171 0.00932708614
v 0.000534625248 -0.00121450639 0.00948978933
v 0.00337462078 -0.00348582263 0.00937279082
v 0.00920216506 -0.00423284428 0.00169219738
v 0.00968047954 -0.00404859384 0.000590656202
v 0.00962147669 -0.00404511761 -7.14185798e-05
v 0.00963418797 -0.00407761146 -0.000584968417
v 0.00405259873 -0.00965898138 -0.000208218452
v 0.00619428778 -0.00724079274 -0.00800395724
v 0.00646237161 -0.00697270345 -0.0039053207
v 0.00457814365 -0.00885686569 -0.00255724306
v 0.00274500325 -0.0106900176 -0.00572364486
v 0.00402895873 -0.00940605061 -0.000867822112
v 0.00125340694 -0.0121816126 -0.00214722196
v 0.00411098035 -0.00961876928 0.000930381889
v 0.00629547095 -0.00728962175 0.00388366574
v 0.00577410575 -0.00766099334 0.00790823553
v 0.00840073592 -0.00503430869 0.00316662267
v 0.0120300872 -0.00140491246 -0.00280649877
v 0.0088191406 -0.00513516077 -0.00322537605
v 0.00762060094 -0.00602295126 -0.00377579492
v 0.0093389369 -0.00409608358 -0.00711183929
v 0.00765625011 -0.00577877158 -0.00790941914
v 0.0058945811 -0.00781645134 -0.00373743322
v 0.00437431353 -0.0092683038 0.00193376978
v 0.00519533834 -0.00823966244 0.00327834868
v 0.00409595175 -0.00933906832 0.00711184873
v 0.00733117526 -0.00610383408 0.00380220181
v 0.00671748584 -0.0067175235 0.00801017052
v 0.0081108574 -0.00532427037 0.00781827053
v 0.0117468198 -0.00168817986 0.00370616399
v 0.00918531729 -0.00438807547 -0.0020160887
v 0.0105075068 -0.00292750256 0.00595273739
v 0.0107644702 -0.00267055281 -0.00561834551
v 0.00388312358 -0.00248089573 0.00383541656
v 0.00174931417 -0.00461460851 0.00346885561
v 0.000583388906 -0.00578060222 0.00136955009
v 0.000434370413 -0.00592964042 -0.000770908021
v 0.00102595752 -0.0053380336 -0.00243160957
v 0.00165972864 -0.00470425966 -0.00327819308
v 0.00281592353 -0.0035479958 -0.00388764785
v 0.00404490047 -0.00231910343 -0.00372726466
v 0.00490133231 -0.0014625396 -0.00304911369
v 0.00567010438 -0.000693820703 -0.00181995332
v 0.00589204702 -0.000471866719 0.00120371532
v 0.00490133231 -0.0014625396 0.00304915672
v 0.00423256028 -0.00213142734 0.00203419842
v 0.00363950198 -0.00272448914 0.00241484409
v 0.00265641618 -0.00370753318 0.00244265109
v 0.00193194812 -0.00443192379 0.00176777607
v 0.00450060088 -0.00186334197 -0.00174392071
v 0.00498635842 -0.00137764573 8.56305399e-05
v 0.00471286242 -0.00165100949 0.00125005013
v 0.00194891495 -0.00441496764 -0.00186493848
v 0.00324240811 -0.00312158675 -0.00255178945
v 0.00152069063 -0.00484331163 0.000908532773
v 0.00141422217 -0.00494976895 2.15154692e-08
v 0.00147442286 -0.00488956826 -0.000647046508
v -0.00312153387 0.003242441 0.0025517487
v -0.00441505624 0.00194892856 0.00186495814
v -0.00498640161 0.00137758312 8.56559444e-05
v -0.00462014696 0.00174383775 -0.0014861166
v -0.00370731327 0.00265666098 -0.00244271967
v -0.00233213316 0.00403186818 -0.00225262442
v -0.00145476059 0.00490917612 -0.000743201795
v -0.00168124283 0.00468269189 0.00150399579
v -0.00510315538 0.00126082935 -0.00282829873
v -0.00578059902 0.000583385707 -0.00136950706
v -0.00594342602 0.000420558705 0.000360671529
v -0.0014625364 0.00490132911 0.00304915672
v -0.00102587277 0.00533799274 0.0024316526
v -0.000697331973 0.00566665275 0.00169219738
v -0.000432960247 0.00593089774 0.000517342748
v -0.000493364878 0.00587050064 -0.000867822112
v -0.000697331973 0.00566665275 -0.00169215435
v -0.00118194578 0.00518190997 -0.00271685877
v -0.00248102574 0.00388298732 -0.00383551977
v -0.00404497259 0.00231892595 -0.00372721762
v -0.00542103274 0.000942951984 0.00238051579
v -0.00415053839 0.00221337877 0.00367496126
v -0.00318201119 0.00318197353 0.00389995342
v -0.0023188565 0.0040451427 0.00372712396
v 0.00528875738 -0.0072256261 0.00885414942
v 0.0037620047 -0.00890247674 0.00817069003
v 0.00202481215 -0.0104912128 0.00664880043
v 0.00113980239 -0.0113762225 0.00525882011
v 1.98550713e-05 -0.0125027166 0.00151374169
v 0.0089028534 -0.00376197816 -0.00817051294
v 0.010460357 -0.00195450476 -0.00665907672
v 0.0113761849 -0.00113984005 -0.00525889629
v 0.012009532 -0.000407470947 -0.00363355132
v 0.0122747845 -0.00024124043 -0.00276479954
v 0.0125028918 -1.97037822e-05 -0.00151290587
v 0.0032791754 -0.0101419356 0.00657962513
v 0.00296168674 -0.0103351059 0.00669495612
v 0.00237901729 -0.0110400976 0.0054241902
v 0.00205782946 -0.0112387285 0.00546512365
v 0.00119276931 -0.012202562 0.00288384767
v 0.000839348712 -0.0125560293 -0.000531129678
v 0.00129593673 -0.0121132818 -0.00301873919
v 0.00173069112 -0.0116868895 -0.00417918819
v 0.00200491014 -0.0113836079 -0.00501283372
v 0.00259729255 -0.0107969873 -0.00588263846
v 0.00361092673 -0.00980485998 -0.00693633578
v 0.0103351562 -0.00296145948 -0.00669522485
v 0.01125854 -0.00215072965 -0.00511295935
v 0.0119202916 -0.00147394966 -0.00369595174
v 0.0125062914 -0.00088910716 -0.00120106066
v 0.0123497353 -0.00104561404 0.00224360132
v 0.0115252593 -0.00189345471 0.00456698163
v 0.0107960404 -0.0025982266 0.00588387297
v 0.00980452524 -0.00361125462 0.00693659447
v 0.00815017026 -0.0052450442 0.00804398246
v 0.00524716783 -0.00814822683 -0.00804446366
v 0.00579599131 -0.00756595228 0.00828469971
v 0.00754237698 -0.00573671394 0.00842879322
v 0.0071624474 -0.00592173377 0.00865681715
v 0.00738659634 -0.00545461039 0.0087796833
v 0.00625805324 -0.00625797169 0.00894691711
v 0.00704665319 -0.00634763177 -0.00824487931
v 0.00573672674 -0.00754256425 -0.00842856082
v 0.00592154504 -0.00716285901 -0.00865661028
v 0.00545482396 -0.00738654361 -0.00877956232
v 0.00689184017 -0.00562640986 -0.00893401227
v 0.00691930716 -0.00559671776 0.0088979221
v 0.0093395333 -0.00393414604 0.00757595244
v 0.00872573749 -0.00435409919 0.00811603075
v 0.00757328933 -0.00494261639 0.00875141388
v 0.00821296637 -0.00430305855 0.00850906139
v 0.0100467444 -0.00316753906 0.00707295725
v 0.00924269678 -0.00358092081 0.00788766392
v 0.00938523567 -0.00301772443 0.00776500965
v 0.0116727905 -0.00160639497 0.0046909863
v 0.0113227194 -0.0017693571 0.00551824223
v 0.0108511555 -0.00198986361 0.00629988588
v 0.0099765486 -0.00253947632 0.00723817116
v 0.0104911751 -0.00202484982 0.00664880043
v 0.0107335246 -0.00172798887 0.00631940825
v 0.0113761849 -0.00113984005 0.00525882011
v 0.0125868452 -0.000692374528 0.00139015595
v 0.0124967031 -0.000595568014 0.00229394902
v 0.011921388 -0.000793323402 0.00415765338
v 0.0120374388 -0.000478586125 0.00363900429
v 0.0124108294 -0.000304068062 0.00243198485
v 0.0124462075 -6.98174716e-05 0.00186016327
v 0.0124723615 -0.000806859956 -0.00215176064
v 0.0126419974 -0.000450335544 -0.00132728424
v 0.0126958524 -0.000145678227 -0.000440056079
v 0.0125146048 0.000110648003 0.000932392915
v 0.012584371 6.84653043e-05 2.15154692e-08
v 0.0114491873 -0.00177645348 -0.0051743863
v 0.0118228473 -0.00118517319 -0.00450393364
v 0.0120620768 -0.000606247843 -0.00379989673
v 0.00968091453 -0.00367180112 -0.00720807473
v 0.0102799823 -0.00253770991 -0.00697955445
v 0.0109819638 -0.00168780718 -0.00601252859
v 0.00921885065 -0.00399548314 -0.00774878176
v 0.00856456777 -0.00483005758 -0.00784476267
v 0.00806334402 -0.00477765053 -0.00857634404
v 0.00784302497 -0.00524114296 -0.00850444162
v 0.0075985361 -0.00567513368 -0.00837588002
v 0.00556417995 -0.00686188661 -0.00892427014
v 0.00393578887 -0.00933808755 -0.00757684888
v 0.00435450163 -0.00872559902 -0.00811588965
v 0.00494269793 -0.00757332699 -0.00875137085
v 0.00430302089 -0.00821300404 -0.00850901836
v 0.00316830891 -0.010046104 -0.00707333695
v 0.00358168573 -0.00924207038 -0.0078881689
v 0.00301779894 -0.00938528296 -0.00776497229
v 0.00168465153 -0.0114813718 -0.00516410779
v 0.00254237846 -0.0103988652 -0.00681105495
v 0.00253943866 -0.00997658627 -0.00723824734
v 0.00202481215 -0.0104912128 -0.00664887661
v 0.00102672333 -0.0122525392 -0.00310851664
v 0.00152614882 -0.0111883267 -0.0057031861
v 0.00113980239 -0.0113762225 -0.00525889629
v 0.000595623528 -0.0124967998 -0.00229360661
v 0.000793378387 -0.011921252 -0.00415788661
v 0.000478548459 -0.0120374765 -0.00363908047
v 0.000617720426 -0.0126613185 0.000388932137
v 0.00030330193 -0.0124108648 -0.0024311603
v 6.97798056e-05 -0.0124461259 -0.00186012024
v 0.000450296012 -0.0126420489 0.0013273371
v 0.000145457384 -0.012695699 0.000440794214
v -0.000111114721 -0.0125142941 -0.000932277344
v -6.8383761e-05 -0.0125844087 2.15154692e-08
v 0.00112131026 -0.0121044799 0.00363848924
v 0.000864937733 -0.0119526304 0.00414945416
v 0.000429102183 -0.0122072633 0.00322483604
v 0.00159617994 -0.0112215435 0.00568870717
v 0.00367067646 -0.00968214767 0.00720660273
v 0.00253750422 -0.0102800531 0.0069794745
v 0.00399529429 -0.00921903665 0.00774871147
v 0.00456493445 -0.00882923103 0.00768968437
v 0.00477744897 -0.0080639152 0.00857594075
v 0.00524038431 -0.00784409862 0.00850392019
v 0.00574062771 -0.00765364039 0.00814809142
v -0.00634935646 0.00631726929 0.00890900646
v -0.00503928593 0.00762736339 0.00871899921
v -0.00404398219 0.00856011282 0.00835856283
v -0.0038138201 0.0088640086 0.00815599749
v -0.00322929419 0.00944064356 0.00774917784
v -0.0026121022 0.00995575994 0.00728819561
v -0.0021578902 0.0105120541 0.0066665561
v -0.00162231385 0.0109447131 0.006052597
v -0.00126904747 0.0114010475 0.00529251472
v -0.000835952556 0.0117303309 0.0045551697
v -0.000529786251 0.0120361715 0.00372793419
v -0.00028613795 0.0122792883 0.00286058003
v -0.000184555201 0.0124850062 0.00192155358
v -2.90563502e-05 0.0126319952 3.88586402e-05
v -6.6673654e-05 0.0126002174 -0.000908485157
v -0.000167924216 0.0124986196 -0.00182982075
v -0.000337281846 0.0123296813 -0.00273133208
v -0.000572227445 0.0120949283 -0.00360292438
v -0.000869551244 0.0117970377 -0.00443451187
v -0.00122770959 0.0114392269 -0.00521843707
v -0.00164107982 0.0110257464 -0.00594419047
v -0.00210592644 0.0105604799 -0.00660540965
v -0.00261715494 0.0100491176 -0.00719410314
v -0.00317006478 0.00949713935 -0.0077039558
v -0.00375664931 0.00891030167 -0.00812954485
v -0.00437131589 0.00829566114 -0.00846573813
v -0.00508429075 0.00792068107 -0.00856126982
v -0.00551849826 0.00686191648 -0.00892976818
v -0.00659662837 0.00600747601 -0.00893569841
v -0.00724764166 0.00534963951 -0.00884662536
v -0.007899203 0.00469963145 -0.00865666265
v -0.00856034983 0.00404381237 -0.00835841651
v -0.0088641626 0.00381347457 -0.00815603439
v -0.00944071726 0.00322939033 -0.00774911811
v -0.00995600571 0.00261209459 -0.00728806963
v -0.0105355577 0.0024417683 -0.00668421299
v -0.0109450347 0.00162242723 -0.0060523917
v -0.0114297866 0.0015475859 -0.00534837663
v -0.0117305234 0.00083582049 -0.00455477134
v -0.0120361317 0.000529552015 -0.00372789066
v -0.0122790835 0.000285944201 -0.00286087605
v -0.0124851502 0.000184950744 -0.0019211345
v -0.0126318677 2.88735672e-05 -3.8770973e-05
v -0.0126981184 0.000307034368 0.000738883719
v -0.0126096285 0.00039556572 0.00165024907
v -0.0124540406 0.000551066168 0.00254486876
v -0.012233519 0.000771626242 0.00341009073
v -0.0119500599 0.00105505961 0.00423860841
v -0.0116064159 0.00139865935 0.00502170251
v -0.0112077839 0.00179747396 0.00574790001
v -0.0107574701 0.00224768068 0.00641152194
v -0.0102597981 0.00274522477 0.00700589533
v -0.00972112964 0.00328397833 0.00752314876
v -0.0091474044 0.00385763653 0.00795779152
v -0.00854579206 0.0044591465 0.00830475905
v -0.00792106922 0.00508391272 0.00856113145
v -0.00686207624 0.00551855169 0.00892978091
v -0.00737544732 0.0057350676 0.0086041704
v -0.0126394682 0.000471179487 -0.00115866538
v -0.00573587445 0.00737456743 -0.00860439959
v -0.00031564178 0.0126467619 0.000902014642
v -0.0123747182 0.000817404437 -0.00262430757
v -0.0121491645 0.00104297755 -0.00346400432
v -0.0118627382 0.00132947663 -0.00426564349
v -0.0111205593 0.00207156916 -0.00572101554
v -0.0101806189 0.00301147333 -0.00692629716
v -0.00938011518 0.00381267726 -0.00763965386
v -0.00849179536 0.00470039849 -0.00815373003
v -0.00787828848 0.00531377348 -0.00838954573
v -0.00725098692 0.00594102218 -0.00853330944
v -0.00661728638 0.00657480071 -0.00858322011
v -0.00414637456 0.00904564911 -0.00785308634
v -0.00357993252 0.00961237485 -0.00744806958
v -0.00304525495 0.0101468297 -0.00696114973
v -0.00255000359 0.0106418642 -0.0063984203
v -0.00210008276 0.011092006 -0.00576586043
v -0.00169838251 0.0114937843 -0.00506911605
v -0.00135005449 0.0118420139 -0.00431675474
v -0.00106033993 0.0121318585 -0.00351876563
v -0.000830531174 0.0123616872 -0.00268067816
v -0.000663862384 0.0125282718 -0.00181351161
v -0.000562041342 0.01262987 -0.00092644305
v -0.000526847447 0.0126653024 -2.98483028e-05
v -0.000655163267 0.0125369884 0.00175563251
v -0.00081748326 0.0123747383 0.00262393034
v -0.00104309927 0.012149136 0.00346384908
v -0.00132947238 0.0118625815 0.00426627521
v -0.0016734625 0.0115185579 0.00502103369
v -0.00207175863 0.0111203618 0.00572134203
v -0.00251938253 0.0106726698 0.00635900807
v -0.00301154502 0.0101805003 0.00692665142
v -0.00354288305 0.00964914213 0.00741827222
v -0.00410852236 0.00908327107 0.0078295998
v -0.00470023973 0.00849208366 0.00815352906
v -0.00531393717 0.00787789888 0.00838985489
v -0.0059405294 0.0072515804 0.00853302923
v -0.00657517723 0.00661694938 0.0085832143
v -0.00724079818 0.00611189502 0.0083290019
v -0.0125657108 0.000787044176 -0.000799286595
v -0.00611142018 0.00724128247 -0.00832900104
v -0.000786925149 0.0125657801 0.000798014211
v -0.00790973241 0.00548390491 0.00807013279
v -0.00849957997 0.00489405735 0.00784661537
v -0.0090696388 0.00432387931 0.00753714806
v -0.00951334429 0.00390326209 0.00717010175
v -0.0101259523 0.00326768501 0.00667478806
v -0.0106005245 0.00279311283 0.0061313129
v -0.0109418233 0.00247482272 0.0055946791
v -0.0114165121 0.00197700603 0.00484945541
v -0.011749106 0.00164441211 0.00412525898
v -0.0120263868 0.00136725051 0.00335576302
v -0.0122452551 0.00114838226 0.00254955059
v -0.0124032074 0.00099031074 0.00171532398
v -0.0124988132 0.000894824099 0.000862381516
v -0.0125307613 0.00086287601 2.15154692e-08
v -0.0124032074 0.00099031074 -0.00171540016
v -0.0122452551 0.00114838226 -0.00254950756
v -0.0120263868 0.00136725051 -0.00335571999
v -0.0117790177 0.00163761728 -0.00396442637
v -0.0114165121 0.00197700603 -0.00484953159
v -0.0110323005 0.00236133678 -0.00552067989
v -0.0106638522 0.00275276981 -0.00598783883
v -0.00969754625 0.00371907795 -0.00701977525
v -0.0090696388 0.00432387931 -0.00753710503
v -0.00849957997 0.00489405735 -0.00784669155
v -0.00790973241 0.00548390491 -0.00807020897
v -0.00730665261 0.00608698471 -0.00820527309
v -0.00669677789 0.00669685943 -0.00825045341
v -0.00548382337 0.00790969474 -0.00807020897
v -0.0048939758 0.00849954231 -0.00784669155
v -0.00432391698 0.00906972034 -0.00753710503
v -0.0039038203 0.00951280153 -0.00717052131
v -0.00326772267 0.0101259146 -0.00667474503
v -0.00279315049 0.0106004868 -0.00613126987
v -0.00236137445 0.0110322629 -0.00552067989
v -0.0019770437 0.0114165936 -0.00484953159
v -0.00174441294 0.0116722132 -0.00422677737
v -0.00148240262 0.0119380509 -0.00351214599
v -0.00114841992 0.0122452174 -0.00254950756
v -0.000990348406 0.0124032889 -0.00171540016
v -0.000958210816 0.0124584414 -0.00100874727
v -0.000862913676 0.0125307236 2.15154692e-08
v -0.000990348406 0.0124032889 0.00171532398
v -0.00114841992 0.0122452174 0.00254955059
v -0.00136728818 0.0120263491 0.00335576302
v -0.00164444978 0.0117491875 0.00412525898
v -0.0019770437 0.0114165936 0.00484945541
v -0.00233167754 0.011084956 0.00536982315
v -0.00275264058 0.0106639842 0.00598760441
v -0.00371928534 0.00969734413 0.00701974366
v -0.00432391698 0.00906972034 0.00753714806
v -0.0048939758 0.00849954231 0.00784661537
v -0.00548382337 0.00790969474 0.00807013279
v -0.00608702237 0.00730661495 0.00820519692
v -0.00669677789 0.00669685943 0.00825049645
f 1 2 3
f 3 2 4
f 3 4 5
f 5 4 6
f 5 6 7
f 7 6 8
f 7 8 9
f 9 8 10
f 9 10 11
f 11 10 12
f 11 12 13
f 13 12 14
f 13 14 15
f 15 14 16
f 15 16 17
f 17 16 18
f 17 18 19
f 19 18 20
f 19 20 21
f 21 20 22
f 21 22 23
f 23 22 24
f 23 24 25
f 25 24 26
f 25 26 27
f 27 26 28
f 27 28 29
f 29 28 30
f 29 30 31
f 31 30 32
f 31 32 33
f 33 32 34
f 33 34 35
f 35 34 36
f 35 36 37
f 37 36 38
f 37 38 39
f 39 38 40
f 39 40 41
f 41 40 42
f 41 42 43
f 43 42 44
f 43 44 45
f 45 44 46
f 45 46 47
f 47 46 48
f 47 48 1
f 1 48 2
f 28 26 49
f 49 26 24
f 49 24 22
f 34 32 49
f 49 32 30
f 49 30 28
f 40 38 49
f 49 38 36
f 49 36 34
f 46 44 49
f 49 44 42
f 49 42 40
f 4 2 49
f 49 2 48
f 49 48 46
f 10 8 49
f 49 8 6
f 49 6 4
f 16 14 49
f 49 14 12
f 49 12 10
f 22 20 49
f 49 20 18
f 49 18 16
f 21 23 50
f 50 23 25
f 50 25 27
f 15 17 50
f 50 17 19
f 50 19 21
f 9 11 50
f 50 11 13
f 50 13 15
f 3 5 50
f 50 5 7
f 50 7 9
f 45 47 50
f 50 47 1
f 50 1 3
f 39 41 50
f 50 41 43
f 50 43 45
f 33 35 50
f 50 35 37
f 50 37 39
f 27 29 50
f 50 29 31
f 50 31 33
f 61 59 58
f 58 59 60
f 58 60 57
f 61 62 595
f 57 588 58
f 58 588 74
f 70 569 63
f 72 73 70
f 70 73 570
f 72 54 73
f 62 596 595
f 65 75 71
f 71 75 62
f 62 75 597
f 585 584 74
f 74 584 78
f 74 78 77
f 77 78 64
f 79 76 555
f 79 555 68
f 125 128 382
f 125 382 129
f 129 388 130
f 130 131 132
f 132 133 134
f 134 135 399
f 119 154 419
f 119 419 155
f 155 156 157
f 157 158 159
f 159 160 161
f 161 162 435
f 124 128 125
f 118 154 119
f 126 124 125
f 120 118 119
f 127 126 125
f 127 125 183
f 121 120 119
f 121 119 184
f 116 126 253
f 253 126 127
f 127 183 185
f 412 120 186
f 186 120 121
f 121 184 187
f 253 127 252
f 252 127 185
f 252 185 192
f 125 129 194
f 125 194 183
f 183 194 195
f 183 195 185
f 185 195 196
f 185 196 192
f 192 196 197
f 192 197 250
f 250 197 114
f 250 114 193
f 193 114 113
f 193 113 115
f 129 130 194
f 196 198 197
f 197 198 112
f 197 112 450
f 197 450 114
f 130 132 199
f 130 199 194
f 194 199 200
f 194 200 195
f 195 200 201
f 195 201 196
f 196 201 202
f 196 202 198
f 198 202 111
f 198 111 453
f 198 453 112
f 132 134 199
f 201 203 202
f 202 203 110
f 202 110 455
f 202 455 111
f 399 123 134
f 134 123 204
f 134 204 199
f 199 204 205
f 199 205 200
f 200 205 201
f 201 205 109
f 201 109 203
f 203 109 457
f 203 457 110
f 109 458 457
f 205 204 108
f 205 108 109
f 109 108 459
f 109 459 458
f 108 107 459
f 123 209 204
f 204 209 190
f 204 190 108
f 108 190 206
f 108 206 107
f 210 209 123
f 210 123 211
f 211 123 137
f 137 123 136
f 136 123 207
f 207 123 399
f 106 208 209
f 209 208 190
f 103 105 106
f 103 106 212
f 212 106 209
f 212 209 210
f 140 211 137
f 140 137 139
f 139 137 138
f 138 137 136
f 104 105 103
f 213 212 210
f 213 210 214
f 214 210 211
f 214 211 142
f 142 211 140
f 142 140 141
f 141 140 341
f 341 140 139
f 102 104 103
f 100 102 103
f 100 103 215
f 215 103 212
f 215 212 213
f 145 214 142
f 145 142 144
f 144 142 143
f 143 142 141
f 101 102 100
f 216 215 213
f 216 213 217
f 217 213 214
f 217 214 147
f 147 214 145
f 147 145 146
f 146 145 339
f 339 145 144
f 99 101 100
f 97 99 100
f 97 100 218
f 218 100 215
f 218 215 216
f 150 217 147
f 150 147 149
f 149 147 148
f 148 147 146
f 98 99 97
f 221 218 216
f 221 216 222
f 222 216 217
f 222 217 152
f 152 217 150
f 152 150 151
f 151 150 149
f 475 98 97
f 152 151 153
f 219 475 97
f 219 97 220
f 220 97 218
f 220 218 221
f 186 222 152
f 186 152 153
f 153 122 186
f 219 220 475
f 475 220 223
f 122 412 186
f 222 186 121
f 222 121 221
f 221 121 187
f 221 187 220
f 220 187 188
f 220 188 189
f 220 189 223
f 119 155 224
f 119 224 184
f 184 224 225
f 184 225 187
f 187 225 226
f 187 226 188
f 188 226 189
f 189 96 223
f 223 96 477
f 223 477 476
f 96 478 477
f 155 157 224
f 226 227 189
f 189 227 95
f 189 95 96
f 96 95 479
f 96 479 478
f 157 159 228
f 157 228 224
f 224 228 229
f 224 229 225
f 225 229 230
f 225 230 226
f 226 230 231
f 226 231 227
f 227 231 94
f 227 94 482
f 227 482 95
f 159 161 228
f 230 232 231
f 231 232 93
f 231 93 484
f 231 484 94
f 435 117 161
f 161 117 233
f 161 233 228
f 228 233 234
f 228 234 229
f 229 234 230
f 230 234 92
f 230 92 232
f 232 92 486
f 232 486 93
f 92 487 486
f 234 233 91
f 234 91 92
f 92 91 488
f 92 488 487
f 91 90 488
f 117 238 233
f 233 238 191
f 233 191 91
f 91 191 235
f 91 235 90
f 239 238 117
f 239 117 240
f 240 117 164
f 164 117 163
f 163 117 236
f 236 117 435
f 89 237 238
f 238 237 191
f 86 88 89
f 86 89 241
f 241 89 238
f 241 238 239
f 167 240 164
f 167 164 166
f 166 164 165
f 165 164 163
f 87 88 86
f 242 241 239
f 242 239 243
f 243 239 240
f 243 240 170
f 170 240 167
f 170 167 169
f 169 167 168
f 168 167 166
f 85 87 86
f 83 85 86
f 83 86 244
f 244 86 241
f 244 241 242
f 173 243 170
f 173 170 172
f 172 170 171
f 171 170 169
f 84 85 83
f 245 244 242
f 245 242 246
f 246 242 243
f 246 243 176
f 176 243 173
f 176 173 175
f 175 173 174
f 174 173 172
f 82 84 83
f 80 82 83
f 80 83 247
f 247 83 244
f 247 244 245
f 179 246 176
f 179 176 178
f 178 176 177
f 177 176 175
f 81 82 80
f 251 247 245
f 251 245 248
f 248 245 246
f 248 246 181
f 181 246 179
f 181 179 180
f 180 179 178
f 504 81 80
f 181 180 182
f 249 504 80
f 249 80 250
f 250 80 247
f 250 247 251
f 252 251 248
f 252 248 253
f 253 248 181
f 253 181 182
f 182 116 253
f 251 252 192
f 251 192 250
f 249 250 193
f 249 193 504
f 262 261 352
f 352 261 351
f 263 264 261
f 261 264 350
f 261 350 351
f 263 258 264
f 269 257 282
f 270 271 272
f 260 259 273
f 260 273 271
f 260 274 259
f 262 354 261
f 261 354 274
f 276 266 277
f 278 280 266
f 266 280 279
f 266 279 267
f 362 280 268
f 268 280 278
f 255 281 254
f 254 281 268
f 281 360 268
f 268 360 283
f 268 283 362
f 277 344 276
f 276 344 275
f 275 344 346
f 270 284 282
f 282 284 356
f 285 266 286
f 286 266 276
f 286 276 275
f 286 275 287
f 287 275 265
f 287 265 288
f 288 265 258
f 288 258 263
f 288 263 261
f 288 261 289
f 289 261 290
f 290 261 274
f 290 274 291
f 291 274 260
f 291 260 292
f 292 260 271
f 292 271 270
f 292 270 293
f 293 270 294
f 294 270 282
f 294 282 257
f 294 257 295
f 295 257 256
f 295 256 255
f 295 255 254
f 295 254 268
f 295 268 296
f 296 268 285
f 285 268 278
f 285 278 266
f 297 296 285
f 297 285 298
f 298 285 299
f 299 285 286
f 299 286 300
f 301 294 302
f 302 294 295
f 302 295 303
f 303 295 297
f 297 295 296
f 304 290 305
f 305 290 291
f 305 291 292
f 305 292 301
f 301 292 293
f 301 293 294
f 300 286 306
f 306 286 287
f 306 287 307
f 307 287 288
f 307 288 308
f 308 288 304
f 304 288 289
f 304 289 290
f 309 299 310
f 310 299 300
f 310 300 306
f 310 306 311
f 311 306 307
f 311 307 308
f 311 308 312
f 312 308 304
f 312 304 313
f 313 304 305
f 313 305 314
f 314 305 301
f 314 301 315
f 315 301 302
f 315 302 316
f 316 302 303
f 316 303 297
f 316 297 309
f 309 297 298
f 309 298 299
f 313 317 312
f 312 317 318
f 312 318 311
f 311 318 319
f 311 319 310
f 316 320 321
f 316 321 322
f 316 322 323
f 316 323 315
f 315 323 324
f 324 325 315
f 315 325 326
f 315 326 314
f 314 326 327
f 314 327 313
f 313 327 328
f 313 328 317
f 319 329 310
f 310 329 330
f 310 330 309
f 309 330 331
f 309 331 332
f 309 332 316
f 316 332 320
f 65 331 66
f 66 331 330
f 66 330 67
f 67 330 68
f 68 330 329
f 68 329 79
f 79 329 76
f 76 329 69
f 69 329 319
f 69 319 51
f 51 319 52
f 52 319 318
f 52 318 53
f 53 318 63
f 63 318 317
f 63 317 70
f 70 317 328
f 70 328 72
f 72 328 54
f 54 328 327
f 54 327 55
f 55 327 56
f 56 327 64
f 64 327 326
f 64 326 77
f 77 326 74
f 74 326 325
f 74 325 324
f 74 324 58
f 58 324 323
f 58 323 322
f 58 322 61
f 61 322 321
f 61 321 62
f 62 321 320
f 62 320 332
f 62 332 71
f 71 332 65
f 65 332 331
f 182 180 334
f 175 174 335
f 174 172 440
f 172 171 336
f 171 169 438
f 169 168 439
f 168 166 439
f 166 165 337
f 165 163 337
f 153 151 338
f 339 144 406
f 144 143 340
f 143 141 403
f 341 139 342
f 139 138 343
f 138 136 343
f 348 275 346
f 348 265 275
f 349 258 265
f 349 264 258
f 353 262 352
f 364 274 354
f 355 284 270
f 357 282 356
f 357 269 282
f 358 257 269
f 358 256 257
f 359 255 256
f 359 281 255
f 361 283 360
f 363 280 362
f 259 274 364
f 279 280 365
f 365 280 363
f 365 363 366
f 370 259 364
f 370 364 371
f 375 126 116
f 363 362 376
f 363 376 366
f 366 376 377
f 366 377 367
f 367 377 368
f 368 375 369
f 369 375 116
f 368 378 375
f 375 378 126
f 379 124 126
f 283 361 362
f 362 361 380
f 362 380 376
f 376 380 377
f 377 380 381
f 377 381 368
f 368 381 379
f 368 379 378
f 378 379 126
f 381 128 379
f 379 128 124
f 361 360 383
f 361 383 380
f 380 383 384
f 380 384 385
f 380 385 381
f 381 385 382
f 381 382 128
f 386 129 382
f 385 386 382
f 387 388 129
f 281 359 360
f 360 359 383
f 385 387 386
f 386 387 129
f 385 388 387
f 389 131 130
f 359 390 383
f 383 390 391
f 383 391 384
f 384 391 392
f 384 392 385
f 385 392 389
f 385 389 388
f 388 389 130
f 392 132 131
f 389 392 131
f 393 133 132
f 256 358 359
f 359 358 390
f 391 394 392
f 392 394 393
f 392 393 132
f 394 134 133
f 393 394 133
f 395 135 134
f 358 396 390
f 390 396 397
f 390 397 391
f 391 397 398
f 391 398 394
f 394 398 395
f 394 395 134
f 398 399 395
f 395 399 135
f 136 207 400
f 400 207 399
f 269 357 358
f 358 357 396
f 398 400 399
f 398 343 400
f 400 343 136
f 357 356 401
f 357 401 396
f 396 401 402
f 396 402 397
f 397 402 403
f 397 403 398
f 398 403 343
f 403 342 343
f 343 342 139
f 284 355 356
f 356 355 401
f 403 341 342
f 341 403 141
f 272 404 270
f 270 404 355
f 355 405 401
f 401 405 406
f 401 406 402
f 402 406 340
f 402 340 403
f 403 340 143
f 340 406 144
f 404 407 355
f 355 407 405
f 405 339 406
f 407 338 405
f 339 405 146
f 151 149 338
f 409 338 407
f 407 404 408
f 408 404 272
f 338 149 148
f 338 148 405
f 405 148 146
f 410 409 407
f 271 408 272
f 374 153 338
f 374 338 409
f 411 410 407
f 411 407 408
f 273 408 271
f 122 153 374
f 370 411 408
f 370 408 273
f 373 374 409
f 373 409 372
f 372 409 410
f 372 410 371
f 371 410 411
f 371 411 370
f 259 370 273
f 364 354 413
f 364 413 371
f 371 413 414
f 371 414 372
f 372 414 373
f 373 412 374
f 374 412 122
f 373 415 412
f 412 415 120
f 416 118 120
f 262 353 354
f 354 353 417
f 354 417 413
f 413 417 414
f 414 417 418
f 414 418 373
f 373 418 416
f 373 416 415
f 415 416 120
f 418 154 416
f 416 154 118
f 353 352 420
f 353 420 417
f 417 420 421
f 417 421 418
f 418 421 419
f 418 419 154
f 422 155 419
f 421 422 419
f 423 156 155
f 351 350 424
f 351 424 352
f 352 424 420
f 420 425 421
f 421 425 423
f 421 423 422
f 422 423 155
f 425 157 156
f 423 425 156
f 426 158 157
f 264 349 350
f 350 349 424
f 424 427 420
f 420 427 428
f 420 428 425
f 425 428 426
f 425 426 157
f 428 159 158
f 426 428 158
f 429 160 159
f 349 430 424
f 424 430 427
f 427 431 428
f 428 431 429
f 428 429 159
f 431 161 160
f 429 431 160
f 432 162 161
f 265 348 349
f 349 348 430
f 430 433 427
f 427 433 434
f 427 434 431
f 431 434 432
f 431 432 161
f 434 435 432
f 432 435 162
f 163 236 436
f 436 236 435
f 348 437 430
f 430 437 433
f 434 436 435
f 434 337 436
f 436 337 163
f 346 347 348
f 348 347 437
f 437 438 433
f 433 438 439
f 433 439 434
f 434 439 337
f 337 439 166
f 344 345 346
f 346 345 347
f 347 440 437
f 437 440 438
f 439 438 169
f 277 441 344
f 344 441 345
f 345 442 347
f 347 442 440
f 440 336 438
f 438 336 171
f 336 440 172
f 441 443 345
f 345 443 442
f 442 335 440
f 440 335 174
f 443 334 442
f 335 442 175
f 180 178 334
f 445 334 443
f 443 441 444
f 444 441 277
f 334 178 177
f 334 177 442
f 442 177 175
f 446 445 443
f 266 444 277
f 333 182 334
f 333 334 445
f 365 446 443
f 365 443 447
f 447 443 444
f 447 444 267
f 267 444 266
f 116 182 333
f 369 116 333
f 369 333 368
f 368 333 445
f 368 445 367
f 367 445 446
f 367 446 366
f 366 446 365
f 365 447 279
f 279 447 267
f 115 113 449
f 449 113 114
f 449 114 450
f 451 450 452
f 450 112 452
f 452 112 453
f 453 111 454
f 454 111 455
f 455 110 456
f 456 110 457
f 459 107 460
f 460 107 190
f 107 206 190
f 190 208 461
f 461 208 106
f 461 106 462
f 462 106 105
f 462 105 463
f 463 105 464
f 464 105 104
f 464 104 465
f 465 104 466
f 466 104 102
f 466 102 467
f 467 102 468
f 468 102 101
f 468 101 469
f 469 101 470
f 470 101 99
f 470 99 471
f 471 99 472
f 472 99 98
f 472 98 473
f 473 98 474
f 474 98 475
f 475 223 476
f 480 479 481
f 479 95 481
f 481 95 482
f 482 94 483
f 483 94 484
f 484 93 485
f 485 93 486
f 488 90 489
f 489 90 191
f 90 235 191
f 191 237 490
f 490 237 89
f 490 89 491
f 491 89 88
f 491 88 492
f 492 88 493
f 493 88 87
f 493 87 494
f 494 87 495
f 495 87 85
f 495 85 496
f 496 85 497
f 497 85 84
f 497 84 498
f 498 84 499
f 499 84 82
f 499 82 500
f 500 82 501
f 501 82 81
f 501 81 502
f 502 81 503
f 503 81 504
f 448 504 193
f 448 193 115
f 448 505 504
f 504 505 503
f 490 506 191
f 191 506 489
f 476 507 475
f 475 507 474
f 461 508 190
f 190 508 460
f 490 491 506
f 489 506 509
f 489 509 488
f 488 509 510
f 488 510 487
f 487 510 511
f 487 511 486
f 486 511 485
f 485 512 484
f 484 512 483
f 483 513 482
f 482 513 514
f 482 514 481
f 481 514 480
f 480 514 515
f 480 515 479
f 479 515 516
f 479 516 478
f 478 516 517
f 478 517 477
f 477 517 518
f 477 518 476
f 476 518 507
f 473 474 519
f 473 519 472
f 472 519 520
f 472 520 471
f 471 520 521
f 471 521 470
f 470 521 522
f 470 522 469
f 469 522 523
f 469 523 468
f 468 523 524
f 468 524 467
f 467 524 525
f 467 525 466
f 466 525 526
f 466 526 465
f 465 526 527
f 465 527 464
f 464 527 528
f 464 528 463
f 463 528 529
f 463 529 462
f 462 529 530
f 462 530 461
f 461 530 508
f 508 531 460
f 460 531 532
f 460 532 459
f 459 532 533
f 459 533 458
f 458 533 534
f 458 534 457
f 457 534 535
f 457 535 456
f 456 535 536
f 456 536 455
f 455 536 537
f 455 537 454
f 454 537 538
f 454 538 453
f 453 538 539
f 453 539 452
f 452 539 540
f 452 540 451
f 451 540 541
f 451 541 450
f 450 541 542
f 450 542 449
f 449 542 543
f 449 543 115
f 115 543 544
f 115 544 448
f 448 544 505
f 544 545 505
f 491 546 506
f 518 547 507
f 530 548 508
f 508 548 531
f 545 549 505
f 505 549 550
f 505 550 503
f 503 550 551
f 503 551 502
f 502 551 552
f 502 552 501
f 501 552 553
f 501 553 500
f 500 553 554
f 500 554 499
f 499 554 555
f 499 555 498
f 498 555 556
f 498 556 497
f 497 556 557
f 497 557 496
f 496 557 558
f 496 558 495
f 495 558 559
f 495 559 494
f 494 559 560
f 494 560 493
f 493 560 561
f 493 561 492
f 492 561 562
f 492 562 491
f 491 562 546
f 546 563 506
f 506 563 564
f 506 564 509
f 509 564 565
f 509 565 510
f 510 565 566
f 510 566 511
f 511 566 567
f 511 567 485
f 485 567 568
f 485 568 512
f 512 568 569
f 512 569 483
f 483 569 70
f 483 70 513
f 513 70 570
f 513 570 514
f 514 570 571
f 514 571 572
f 514 572 515
f 515 572 573
f 515 573 516
f 516 573 574
f 516 574 517
f 517 574 575
f 517 575 518
f 518 575 547
f 547 576 507
f 507 576 577
f 507 577 474
f 474 577 578
f 474 578 519
f 519 578 579
f 519 579 520
f 520 579 580
f 520 580 521
f 521 580 581
f 521 581 522
f 522 581 582
f 522 582 523
f 523 582 583
f 523 583 524
f 524 583 584
f 524 584 525
f 525 584 585
f 525 585 526
f 526 585 586
f 526 586 527
f 527 586 587
f 527 587 528
f 528 587 588
f 528 588 529
f 529 588 589
f 529 589 530
f 530 589 548
f 548 590 531
f 531 590 591
f 531 591 532
f 532 591 592
f 532 592 533
f 533 592 593
f 533 593 534
f 534 593 594
f 534 594 535
f 535 594 595
f 535 595 536
f 536 595 596
f 536 596 537
f 537 596 62
f 537 62 538
f 538 62 597
f 538 597 539
f 539 597 598
f 539 598 540
f 540 598 599
f 540 599 541
f 541 599 600
f 541 600 542
f 542 600 601
f 542 601 543
f 543 601 602
f 543 602 544
f 544 602 545
f 602 66 545
f 545 66 549
f 549 66 550
f 550 66 67
f 550 67 551
f 551 67 68
f 551 68 552
f 553 552 68
f 553 68 554
f 554 68 555
f 556 555 76
f 556 76 557
f 557 76 558
f 558 76 69
f 558 69 559
f 559 69 560
f 560 69 51
f 560 51 561
f 561 51 562
f 562 51 52
f 562 52 546
f 546 52 563
f 563 52 564
f 564 52 53
f 564 53 565
f 565 53 63
f 565 63 566
f 567 566 63
f 567 63 568
f 568 63 569
f 571 570 73
f 571 73 572
f 572 73 573
f 573 73 54
f 573 54 574
f 574 54 575
f 575 54 55
f 575 55 547
f 547 55 576
f 576 55 577
f 577 55 56
f 577 56 578
f 578 56 64
f 578 64 579
f 580 579 64
f 580 64 581
f 581 64 582
f 582 64 78
f 582 78 583
f 583 78 584
f 586 585 74
f 586 74 587
f 587 74 588
f 589 588 57
f 589 57 548
f 548 57 60
f 548 60 590
f 590 60 59
f 590 59 591
f 591 59 592
f 592 59 61
f 592 61 593
f 593 61 594
f 594 61 595
f 598 597 75
f 598 75 599
f 599 75 600
f 600 75 65
f 600 65 601
f 601 65 602
f 602 65 66
