v 0.0091169062 -0.00465902604 0.00200745159
v 0.0118410927 -0.000529599346 0.00373119333
v 0.00900304673 -0.00345313362 0.0036056851
v 0.0122069502 -0.00142148915 0.00188430212
v 0.0120393378 -0.000860405125 0.00295430639
v 0.00572985006 -0.00426925356 0.00766340562
v 0.00817769056 -0.00617144286 0.000826060403
v 0.0075335218 -0.00725263797 0.00063495134
v 0.00669991286 -0.00805580036 0.000709637041
v 0.00601662633 -0.00846728708 0.00100584083
v 0.00504734728 -0.00907323941 0.00164187047
v 0.00336745772 -0.00898169119 0.00421377678
v 0.00658810532 -0.00367783221 0.00730188941
v 0.0113050537 -0.00484505063 -0.00181830738
v 0.00369976732 -0.00943506352 0.0034534592
v 0.00312148709 -0.0085437635 0.00524750739
v 0.0031362807 -0.00799580466 0.00592776296
v 0.00335796308 -0.00718123097 0.00690147105
v 0.00369157081 -0.00628458809 0.00724716576
v 0.00479085266 -0.00490676854 0.00765610449
v 0.00835100238 -0.00306720749 0.00512963751
v 0.0110269414 2.68533151e-05 0.0057436689
v 0.00455478255 -0.00897879616 0.00202363947
v 0.00250584906 -0.0121732343 0.000341570342
v 0.0031886111 -0.00397815946 0.0113723273
v 0.00505514874 -0.00829630001 -0.00540924063
v 0.00631302803 -0.0099630944 -0.00404190134
v 0.00298099083 -0.00996886479 -0.00432362169
v 0.00481463544 -0.010997266 -0.00336398435
v 0.00334488379 -0.0117764374 -0.00235413822
v 0.000196647993 -0.0111296809 -0.00185874912
v 0.00197473952 -0.0122625037 -0.00106003952
v 0.000770226336 -0.0124328825 0.000455348592
v -0.00187506723 -0.0110671303 0.0014087897
v 9.26601285e-05 -0.0123618028 0.00156806659
v -0.000663848152 -0.0120511916 0.00303470803
v -0.00140006879 -0.0108593697 0.0059339115
v -0.00476043215 -0.00795418468 0.00424394482
v -0.00145879094 -0.0103581962 0.00676022595
v -0.00377919634 -0.00808668633 0.00599359375
v -0.00133833241 -0.00869997555 0.00872823902
v -0.000812978262 -0.00732150854 0.00996349061
v -4.57171612e-06 -0.00585516185 0.010915721
v 0.00104571409 -0.00428002228 0.0115320055
v 0.00466115573 -0.00101680061 0.011519486
v 0.00513955595 0.00184840499 0.00985421032
v 0.00616283958 2.32312504e-05 0.0108374961
v 0.00762902627 0.000803508119 0.00982685563
v 0.00796947416 0.00296302563 0.0074210171
v 0.00899520581 0.00129124231 0.00853299672
v 0.0101992883 0.00146373971 0.00701477893
v 0.0101148264 0.00282741831 0.00420314302
v 0.0115775205 0.00113789433 0.00440686535
v 0.0123591524 -9.97612722e-05 0.00152952708
v 0.00969982737 0.00301478761 -0.00087969724
v 0.0105903404 0.00127532511 -0.00135477342
v 0.0121394571 -0.00210003067 -0.00137147709
v 0.0116046948 -0.00346928875 -0.00261349164
v 0.0107888198 -0.00492765334 -0.00357098741
v 0.00955388911 -0.00681782352 -0.00418490522
v 0.00965257579 -0.00641667471 -0.00424623887
v 0.00904035372 -0.00775110881 -0.00415945138
v -0.0112136237 0.00407505729 0.00312824762
v 0.000533348245 0.00660564656 -0.010402139
v -0.00294815173 0.00250513792 -0.0118535393
v -0.0122178582 -0.000347275526 -0.0024253435
v -0.010138694 0.00607369977 0.00394955094
v -0.00870704417 0.00332277115 0.00539188221
v -0.00936226169 0.0070546757 0.00424751028
v -0.00690809133 0.00495477027 0.00623778898
v -0.00790126663 0.00859329442 0.00436351067
v 0.00124114999 0.0113240271 -0.00505036499
v -0.000838183778 0.00490278959 -0.0114253654
v 0.00192340238 0.00346118435 -0.0100119592
v -0.00161779404 0.00392207376 -0.0117247778
v -0.000308484656 0.00565381112 -0.0111003659
v 0.00109582956 0.00768371333 -0.00958400865
v 0.00154892607 0.00899849278 -0.0082705259
v 0.00133129529 0.00920762414 -0.0082901982
v 0.00169544616 0.0101498859 -0.00675213205
v 0.00144839218 0.01038018 -0.00674046528
v 0.00153086757 0.0110869941 -0.00509481413
v 0.00103334492 0.0117589038 -0.00360300966
v 0.00345275012 0.00977650439 -0.00150125093
v 0.000333923193 0.0122258017 -0.00246341165
v 0.00030546412 0.0121908384 -0.00189769079
v 0.0026194997 0.0101487916 0.000227763768
v -0.000610121148 0.0124375765 -0.000765937238
v -0.000685660692 0.0123204013 -0.000253020435
v 0.00154408069 0.0102071512 0.00186075359
v -0.00178465351 0.0123219588 0.000791851905
v -0.00188829898 0.0121347024 0.0012383627
v 0.000273178538 0.00994788223 0.00332735813
v -0.00313320654 0.0118839319 0.00213589037
v -0.00324660712 0.0116421242 0.00250855201
v -0.00114030975 0.00938461831 0.00456024588
v -0.00459056078 0.0111456487 0.00320221459
v -0.00470043303 0.0108656495 0.00350037561
v -0.00263281071 0.00853989934 0.00550689674
v -0.00599141446 0.0100078414 0.00408165567
v -0.00413903519 0.00744892319 0.00612675556
v -0.00707680602 0.00917730384 0.00437195845
v -0.0106683144 0.00532275745 0.00362452862
v -0.0117421227 0.00296382766 0.00233370823
v -0.0118721095 0.00311520013 0.00215123359
v -0.0121681642 0.00162084355 0.00103829622
v -0.0123081207 0.00176896496 0.00081413107
v -0.0122916102 0.000446372464 -0.000464383846
v -0.012425135 0.000596687886 -0.000734967874
v -0.0121044933 -0.000513227264 -0.00210570723
v -0.0117313742 -0.00106102414 -0.00368178612
v -0.00941566492 -0.0038137131 -0.00255990044
v -0.0110021261 -0.0014944384 -0.00538677163
v -0.0086054545 -0.00416273236 -0.00430459171
v -0.0104049025 -0.00142274176 -0.00673543967
v -0.0100114257 -0.00162322331 -0.00703243089
v -0.00754689708 -0.00420475149 -0.00594846401
v -0.00922857047 -0.00130873495 -0.00829239452
v -0.00881058694 -0.00143613306 -0.00852446419
v -0.00628536801 -0.00393580988 -0.00742208355
v -0.00787617708 -0.000874683211 -0.00963371183
v -0.00745284925 -0.00094306062 -0.00979499434
v -0.00488148332 -0.00336365136 -0.00866073955
v -0.00641332888 -0.000142275548 -0.01069592
v -0.00599935122 -0.000164356226 -0.0107885749
v -0.00339068806 -0.00251607593 -0.00960964515
v -0.00473911043 0.0007239218 -0.0113904399
v -0.00187959793 -0.00142783833 -0.0102270046
v -0.00370223043 0.00159674962 -0.0117107904
v 0.00349070681 0.000736804063 -0.00908812455
v 0.00486770897 0.00126571516 -0.00822198729
v -0.00628046155 0.00205381877 0.00718802473
v -0.00648837726 0.000355145194 0.00711823055
v 0.00234272841 -0.000248313373 -0.0095129216
v -0.00549873334 0.00340632939 0.00736298929
v -0.00346210802 0.000661384865 0.00893573276
v 0.0010078636 0.000171919297 -0.0101716919
v 0.00476359047 -0.00264948629 -0.00794908275
v 0.00836264733 -0.00767279882 -0.00460456845
v 0.00435424192 0.00511033302 -0.00768934699
v 0.00694889429 0.000410432548 -0.00666656918
v 0.00802108969 -0.00338772118 -0.00586088636
v 0.00628438793 0.00421515705 -0.00596937876
v 0.0089952068 -0.0018796478 -0.0050724272
v 0.00485902462 0.00763907914 -0.00471446835
v 0.00807404583 0.00325783466 -0.00413486883
v 0.00970459261 -0.00042051588 -0.00397515169
v 0.00706991976 0.00582213809 -0.00270945501
v 0.0101167796 0.00092981923 -0.00261922856
v 0.0102811603 0.00264689128 0.000473916051
v 0.00909065104 0.004260879 0.00101823508
v 0.0122980118 0.00022386243 0.00245045942
v 0.00542658499 0.00802813599 -0.00103020667
v 0.00858839697 0.00463461588 0.00299267795
v 0.006578226 0.00647234588 0.00278149897
v 0.00444568301 0.00816856191 0.0025317016
v 0.0064637709 0.00476265478 0.00630435125
v 0.00421687716 0.00628246327 0.0059707842
v 0.00189427596 0.00766025087 0.00553427457
v 0.0036392019 0.00364935013 0.00881070951
v 0.00126672676 0.00486652499 0.0082227915
v -0.00112537285 0.00596900678 0.00748342339
v 0.00236631195 0.000199340224 0.0108427692
v -0.000706291092 0.00294278706 0.00923002155
v -0.0041300095 0.00483721991 0.00745614252
v -0.00567961963 0.00637807472 0.0062669389
v -0.00236422114 0.00385434142 0.00841361923
v -0.000430761857 -0.000825127432 0.0105109997
v 0.00212136899 -0.00311746696 0.0117978398
v -0.00921888773 -0.000246056289 0.00437607234
v -0.0053264226 -0.00203313985 0.00777150592
v -0.00199776529 -0.0026350269 0.00996276341
v -0.00790631503 -0.00259289865 0.00486489465
v -0.00297268097 -0.00414175813 0.0091743555
v -0.00972223038 -0.00277562287 0.00140272995
v -0.00645134471 -0.00488087388 0.00523978045
v -0.00368545443 -0.00559876448 0.00807483441
v -0.00755434651 -0.00533750657 0.00237988886
v -0.00410788879 -0.00693896187 0.00671145092
v -0.00196301526 -0.0107336439 0.00497457374
v -0.00460644484 -0.00874491515 0.0020367942
v -0.00101837094 -0.0116959335 0.00417703608
v -0.00810888597 -0.00534584493 -0.000796381502
v -0.00372481177 -0.00949837958 0.000320231798
v -0.00495496655 -0.0080955724 -0.00167604114
v -0.00606814343 -0.00654596028 -0.00363702598
v -0.00159536962 -0.00963085547 -0.00298874283
v -0.00259141477 -0.00790749112 -0.00486420158
v -0.00351621525 -0.00603852607 -0.00663860281
v 0.00122413747 -0.00851300431 -0.00549814347
v 0.000356898702 -0.00648977414 -0.0071172676
v 0.00343299134 -0.00688105358 -0.0065879423
v -0.000496213769 -0.00434728118 -0.00858787714
v 0.00606242244 -0.00742931382 -0.00561243078
v 0.00568308477 -0.00497932175 -0.00686234439
v 0.00261765832 -0.00471886538 -0.00791922999
v 0.00140837256 -0.00281126515 -0.00903838655
v -0.000267754069 0.000154420636 -0.0105486412
v -0.0092218938 0.00387687703 -0.00311241451
v -0.00903409641 0.00335603904 -0.00418205097
v -0.00867907065 0.00319668156 -0.00483522733
v -0.00311590873 0.00825375383 -0.00565138607
v -0.00322457889 0.0088786202 -0.0046028346
v -0.00346306656 0.00902476389 -0.00393650677
v -0.00368427944 0.00917844222 -0.00345944453
v -0.00847088283 0.00312676779 -0.00531672157
v -0.00229179829 0.0123232808 -0.000409183273
v -0.00460552818 0.0091325132 -0.00207865417
v -0.00221500154 0.00510103973 -0.0111532022
v -0.00425204213 0.00552396759 -0.00754099867
v -0.00873423389 0.00557303991 -0.00122727156
v -0.00808507303 0.00662250001 -0.000750159949
v -0.00714742699 0.00330700591 -0.0069559219
v -0.00968881247 -8.33936463e-05 -0.00779142726
v -0.00631371624 0.00364934293 -0.0072662829
v -0.00660025831 0.0010556636 -0.0106183052
v -0.00620016034 0.00144355281 -0.0106717922
v -0.00485571798 0.00485579952 -0.00763565084
v -0.00341481205 0.00685168642 -0.00699889137
v -0.00646292082 0.00809371689 -0.000766014056
v -0.00685109768 0.009983688 0.00282367522
v -0.00756081517 0.00692050441 -0.000631866665
v -0.011682491 0.00428170485 0.00157676631
v -0.00903877195 0.00426225647 -0.00236505053
v -0.0121731687 0.00250658178 -0.000340618727
v -0.00395895492 0.00323409028 -0.0113335956
v -0.00525984683 0.00211586617 -0.01106529
v -0.00542038393 0.0088504657 -0.00136481111
v -0.00876195775 0.00825938658 0.00309760625
v -0.00788303788 0.00910775646 0.00305277327
v -6.18823538e-05 0.0090280809 -0.00854829561
v -0.0012203076 0.00207090735 -0.00553884022
v -0.00332323885 0.000371841319 -0.00494592591
v -0.00461642643 -0.000129780788 -0.00378361585
v -0.00553744846 6.13792476e-06 -0.00223159561
v -0.00591298418 0.00097445221 -0.000258514356
v -0.00447871007 0.00366264223 0.00158274546
v -0.00276028765 0.00514690544 0.00123887079
v -0.00111985262 0.00589233027 -7.52974681e-05
v -4.94393201e-05 0.00559425536 -0.00208459036
v 0.000144232129 0.00471829434 -0.00365535953
v -0.000177587826 0.00372295364 -0.00464421293
v -0.00444809501 0.000931083143 -0.00247311454
v -0.00480842085 0.0015503767 -0.00103467868
v -0.00489019982 0.00228798312 0.00016839941
v -0.00406524118 0.003150153 0.000223221569
v -0.00106157097 0.00352800798 -0.00363253884
v -0.0016684192 0.00258355125 -0.00412815592
v -0.00237732736 0.00182918154 -0.00419495195
v -0.00338255256 0.00114756293 -0.00371973874
v -0.00309105317 0.00414159496 0.000248380572
v -0.00164272403 0.00482846175 -0.000869737779
v -0.000987976829 0.00450794301 -0.00230159176
v 0.00371038905 -0.00358918458 -0.000346635631
v 0.00244008376 -0.004541672 0.000119983568
v 0.0013675909 -0.00482206518 0.00128301595
v 0.000905263134 -0.00409087898 0.0030354944
v 0.00131872718 -0.0030865194 0.00390309313
v 0.00202358692 -0.00214436407 0.00425158979
v 0.00352796232 -0.00106156842 0.00363255544
v 0.00464501776 -0.00103621679 0.00202953368
v 0.00476094496 -0.00188461261 0.000613514615
v 0.00441495005 -0.00264723317 1.84991817e-06
v 0.0012661487 -0.00586235908 -9.55240863e-05
v 0.00298603307 -0.0049922554 -0.00134329851
v 0.00462405956 -0.00349329679 -0.00154740508
v 0.000830975742 -0.00259235763 0.00534496467
v 3.98499184e-05 -0.00405163781 0.00436383703
v -0.000178094953 -0.0051450983 0.00307828264
v 0.000358853977 -0.0057904245 0.00134235838
v 0.0056887038 -0.00173344276 -0.000526826914
v 0.00587677002 -0.000595404655 0.000868215181
v 0.00555029933 -4.42983283e-05 0.00215679625
v 0.00498343066 0.000156567741 0.00328410113
v 0.00405160014 -3.98875846e-05 0.00436383703
v 0.00309940026 -0.000505943247 0.00507758877
v 0.00199857775 -0.00135822312 0.00544244268
v -0.00536818143 0.000803209796 -0.0113686117
v -0.00824972099 -0.000718191491 -0.00953813889
v -0.00994202073 -0.00123698727 -0.00761574289
v -0.0109997648 -0.00119192616 -0.0059964039
v -0.0114183188 -0.00110794146 -0.00509914859
v -0.00592671714 0.010491021 0.00367682675
v -0.003137255 0.0121048753 0.00178332076
v -0.00133451398 0.0125134467 -6.41920282e-05
v -0.000276769955 0.0124683855 -0.00168341181
v 0.000311531166 0.0122609583 -0.00286365601
v -0.00760771004 0.000502402098 -0.00995186552
v -0.00891341361 -9.17811217e-05 -0.00887672857
v -0.0108390764 -0.000337480059 -0.00641109998
v -0.0121711494 0.000510754092 -0.00320965625
v -0.0124703568 0.001760375 -0.000866071469
v -0.0121813839 0.0029937685 0.000428667285
v -0.0116339205 0.00453685639 0.00201097707
v -0.00378669781 0.0119212788 0.00121437475
v -0.00156575843 0.0124762358 -0.00115490186
v -0.000130607586 0.0118750671 -0.00420287379
v 0.000362977085 0.0102347697 -0.00733598636
v -0.000137688505 0.0084268941 -0.00929017312
v -0.000320244271 0.00769176376 -0.0100087466
v -0.00206835279 0.00507392671 -0.0113436451
v -0.0099996791 0.00699609962 0.00312447609
v -0.00350233491 0.00350241645 -0.0115426161
v -0.00246367521 0.00433170609 -0.0116648929
v -0.00259767948 0.00388097127 -0.0118125237
v -0.00209470476 0.00409282074 -0.0118467017
v -0.00289329465 0.00289337619 -0.01190084
v -0.00856491502 0.00856487735 0.00332421282
v -0.00950116098 0.00763328822 0.00351615615
v -0.00919190212 0.00790835499 0.00378319068
v -0.00881539686 0.00815922003 0.00402466997
v -0.00838324006 0.0083832024 0.00422090509
v -0.0039949077 0.0116520403 0.00257724741
v -0.00728162702 -0.000375580944 -0.0102571823
v -0.002225365 0.00359349235 -0.0118535139
v -0.000510008975 0.00689958709 -0.0106398761
v -0.00115699132 0.00567190616 -0.0112903297
v -0.00159748967 0.00431745037 -0.0117123701
v -0.00101694043 0.0050570248 -0.0114788391
v -0.00032179265 0.00626198354 -0.0109780558
v 0.000526631802 0.00976264276 -0.00808167917
v 0.000625210851 0.00916412205 -0.00880248686
v 0.000645366324 0.0084555302 -0.00946414311
v 0.000375543278 0.00728158935 -0.0102571823
v 0.000705156963 0.00799612983 -0.0096921303
v 0.000892043205 0.00835462894 -0.00935851971
v 0.00113848273 0.0093341349 -0.00836354277
v 0.000445587449 0.0112631709 -0.00574923392
v 0.00077959512 0.0108498653 -0.00653091094
v 0.00112585195 0.0102133606 -0.00738083849
v 0.001254831 0.0104994057 -0.00682359716
v 0.000309057676 0.0117916128 -0.00467749789
v 0.00102356873 0.0112247578 -0.00574584204
v 0.00104883735 0.0114372252 -0.00514405748
v -0.000846309225 0.0125209863 -0.00189218436
v -0.000180197607 0.0124219283 -0.00264642126
v 0.00048270693 0.0120276668 -0.00394786973
v 0.000888977523 0.0117812054 -0.00425099723
v -0.00336217968 0.0121749432 0.00117084596
v -0.00258144158 0.0124372497 0.000712586367
v -0.00112145128 0.0125882742 -0.000618578601
v -0.00231859778 0.0124081982 0.000874928951
v -0.0051149668 0.0112699576 0.00290888105
v -0.00421919067 0.0117365047 0.00230324742
v -0.00548693667 0.0110400735 0.00243804559
v -0.00607734344 0.0106533276 0.00324891998
v -0.00626618178 0.0105605637 0.00292662926
v -0.00740640172 0.00941144984 0.00404971983
v -0.00666055118 0.0102437646 0.00357889963
v -0.00753407414 0.00956348351 0.00336028912
v -0.00902710543 0.00748572799 0.00431817203
v -0.01130471 0.005135822 0.00268224124
v -0.0101107142 0.00674070166 0.00365260833
v -0.00967904504 0.00695900901 0.00403243521
v -0.0102595943 0.00621943458 0.00379902342
v -0.0110917684 0.00515113086 0.00320487013
v -0.0124733155 0.00233213865 0.000219552244
v -0.012337281 0.00281481353 0.00109844206
v -0.0119343006 0.00361640999 0.00212742792
v -0.011652078 0.00399487003 0.00257724741
v -0.012237038 0.00259356483 0.001378598
v -0.0124150174 0.00194232448 0.000683727054
v -0.0122734853 0.000293699735 -0.00319010337
v -0.012505157 0.000466976774 -0.00229319348
v -0.0125830396 0.0012433112 -0.000422840588
v -0.0125313657 0.000777172886 -0.000856337757
v -0.0124807161 0.000232145321 -0.00205739419
v -0.0123253721 -0.000160765804 -0.00253587744
v -0.0108922458 -0.000563089136 -0.00647640381
v -0.0113661266 -0.000695874321 -0.00567307668
v -0.0117488409 -0.000751180574 -0.0047836965
v -0.0120765356 -0.000596384541 -0.00338485484
v -0.0118068116 -0.000827503361 -0.00427633307
v -0.00860392843 -0.000209914423 -0.00931805944
v -0.00921688826 -0.000639688331 -0.00874614616
v -0.0103492493 -0.00111777687 -0.00719357428
v -0.0091520482 -0.000937182263 -0.0086872352
v -0.00657842609 0.000421569296 -0.0108712584
v -0.00746047321 -5.75200541e-05 -0.0102564023
v -0.00577353589 0.00122242855 -0.0112282226
v -0.0052035158 0.00199121716 -0.0112647887
v -0.00400755 0.00200117585 -0.0118223181
v -0.00508145132 0.00149998902 -0.0115773189
v -0.00448718538 0.00245726799 -0.0115474611
v 0.00842405276 -0.0084549334 -0.00414042372
v 0.0097161808 -0.00703780224 -0.00395699461
v 0.0105611567 -0.00590073797 -0.00362758926
v 0.0108066709 -0.00558736334 -0.00341073891
v 0.0112654797 -0.00485464536 -0.0030208749
v 0.01164645 -0.00407751411 -0.00260600301
v 0.0120020353 -0.00340991004 -0.00198148647
v 0.0122424487 -0.00267449761 -0.00142217022
v 0.0124443026 -0.00207286327 -0.000667550319
v 0.0125322215 -0.00141121311 5.79458688e-06
v 0.0125576371 -0.000850441006 0.00079053046
v 0.0125146238 -0.000403250672 0.001681071
v 0.0120807794 0.000585466636 0.00338556801
v 0.0118607187 0.000726538502 0.00428538592
v 0.0112832122 0.00108932224 0.005562821
v 0.0110555146 0.00109246858 0.00601474106
v 0.0105588063 0.00115728731 0.00683846364
v 0.0100048715 0.00114109315 0.00762858552
v 0.00940088724 0.00104497187 0.00837398993
v 0.00875322557 0.000869574679 0.00906737348
v 0.00806992726 0.000617200156 0.00969981689
v 0.0073591602 0.000290700347 0.0102639863
v 0.00662870526 -0.000106912792 0.0107537956
v 0.00588787275 -0.000569269423 0.0111626635
v 0.00514459461 -0.00109212072 0.011486336
v 0.00440752002 -0.0016689809 0.0117210099
v 0.00353160874 -0.00214588089 0.0118408247
v 0.00263637796 -0.00323725018 0.0119178168
v 0.0019845702 -0.0039437102 0.0118298229
v 0.00169656033 -0.0043740143 0.0117295481
v 0.000796493485 -0.00545641119 0.0113627135
v 0.000615653709 -0.00583512368 0.0111897611
v 0.000149793441 -0.00656102779 0.0107952097
v -0.000323025509 -0.0072453592 0.010317935
v -0.000587094495 -0.00800513127 0.0097557671
v -0.000919830993 -0.00864801985 0.00913351254
v -0.00102901993 -0.0093424532 0.00844178357
v -0.00121059021 -0.00991059945 0.007704776
v -0.00115648571 -0.0105095422 0.00691486082
v -0.00109946205 -0.0110120045 0.00609352552
v -0.00113026499 -0.0113695398 0.0052011992
v -0.00101353007 -0.0116152271 0.00465998106
v -0.000443386752 -0.0121386844 0.00347162464
v -7.71688429e-05 -0.0123608558 0.00260749262
v 0.000357269549 -0.0125051487 0.00175787094
v 0.000853633269 -0.0125695315 0.000933906959
v 0.00140781079 -0.0125535883 0.000143884102
v 0.00201170481 -0.0124573424 -0.000601740816
v 0.00265911189 -0.0122818987 -0.00129505094
v 0.00334221482 -0.0120294046 -0.00192755053
v 0.00405339405 -0.0117027993 -0.00249169016
v 0.00478404519 -0.0113058249 -0.00298120929
v 0.00552472868 -0.0108432299 -0.00339037664
v 0.00626777637 -0.0103204402 -0.00371414698
v 0.00700443543 -0.00974377247 -0.00394841382
v 0.00762150456 -0.00901015869 -0.00424401237
v 0.00785341693 -0.00917377328 -0.00387552654
v -0.000491832913 -0.0118879191 0.00439203786
v -0.00070954725 -0.0115269169 0.00524215142
v 0.00382591008 -0.00250490873 0.0118296948
v 0.0121706579 0.000208993768 0.0035616436
v 0.0123885692 -0.000152095672 0.00271189853
v 0.00723169715 -0.00980132653 -0.00351070149
v 0.00652272701 -0.0103596177 -0.00328937992
v 0.00580585037 -0.0108668672 -0.00298205951
v 0.00509254518 -0.0113152144 -0.00259226781
v 0.00438789543 -0.0117012177 -0.00212479127
v 0.00370065169 -0.0120201311 -0.00158456425
v 0.00304159594 -0.012267089 -0.000978753545
v 0.00241597683 -0.0124399879 -0.000313913878
v 0.00183164365 -0.0125368057 0.000402163662
v 0.00129491243 -0.0125564709 0.00116106563
v 0.000812800061 -0.0124984708 0.0019537439
v 0.000392149565 -0.0123636032 0.00277028749
v 3.53236872e-05 -0.0121534017 0.00360272716
v -0.000606566456 -0.0111004545 0.00609105991
v -0.000669411366 -0.0106219797 0.00688571498
v -0.000654683982 -0.0100887784 0.0076469643
v -0.000562568153 -0.009507155 0.00836573747
v -0.000394217964 -0.00888373861 0.00903387635
v -0.000151546743 -0.00822500195 0.0096444434
v 0.000162575742 -0.00754120876 0.0101878293
v 0.000544529333 -0.006837365 0.0106603409
v 0.000989531312 -0.0061233788 0.0110549919
v 0.00149320163 -0.00540687295 0.0113677136
v 0.00204835638 -0.00469776291 0.0115940919
v 0.00264945642 -0.00400218268 0.0117325171
v 0.00328922471 -0.0033294529 0.0117806521
v 0.00465364819 -0.00208486782 0.0116053533
v 0.00536339319 -0.00152576564 0.0113839411
v 0.00607896244 -0.00101942787 0.0110767481
v 0.00679375964 -0.000569911777 0.0106868396
v 0.00749781248 -0.000184336184 0.0102194148
v 0.00818437308 0.000134563226 0.00967916246
v 0.00884421794 0.000381623528 0.00907321838
v 0.00946925741 0.000553877461 0.00840915484
v 0.0100546914 0.000651533438 0.00769208181
v 0.0105904735 0.000670792768 0.00693391714
v 0.0110724567 0.000612734069 0.0061411141
v 0.0114940898 0.000478058952 0.00532398611
v 0.0118508737 0.00026781309 0.00449144878
v 0.012492348 -0.000785154625 0.00200345692
v 0.0125551736 -0.00126378295 0.0012082821
v 0.0125402722 -0.00179653229 0.000448630813
v 0.012448143 -0.00237864293 -0.000271076235
v 0.0122797889 -0.00300215162 -0.00093959965
v 0.0120372266 -0.0036598065 -0.00154884209
v 0.0117229723 -0.00434495439 -0.0020936203
v 0.0113410312 -0.00504835606 -0.00256567008
v 0.0108962225 -0.0057619296 -0.00295991242
v 0.0103923637 -0.00647872781 -0.00327338675
v 0.00983705322 -0.00718839485 -0.00350007512
v 0.0092364998 -0.00788299506 -0.00363769945
v 0.00859615664 -0.00855620013 -0.00368586601
v 0.00798099489 -0.00915803779 -0.00340479562
v -1.14930329e-05 -0.0118093215 0.00443802786
v -0.000224462234 -0.0114689563 0.00525058176
v 0.00404896019 -0.00287268637 0.011597835
v 0.0120422762 -0.000221485112 0.00375396402
v 0.0122546138 -0.000561234304 0.00294348169
v 0.0072515351 -0.00975985543 -0.00315040133
v 0.00656953875 -0.0102951051 -0.00293510935
v 0.00588134352 -0.0107805254 -0.00263720533
v 0.0053155537 -0.0111233295 -0.00227214547
v 0.0045181853 -0.0115792276 -0.00180846235
v 0.00385931556 -0.0118833305 -0.00128739855
v 0.0032259566 -0.0121187688 -0.000703034611
v 0.0026253802 -0.0122828008 -6.22846796e-05
v 0.00218666923 -0.0123313937 0.000548119652
v 0.00169909621 -0.0123541356 0.00123709354
v 0.000686083477 -0.0122001888 0.00290662268
v 0.000345264118 -0.0119959833 0.00370675543
v -0.000264849026 -0.0109776975 0.00609785536
v -0.00032290395 -0.0105163576 0.00686055639
v -0.000306453068 -0.0100023271 0.00759107092
v -0.000180859703 -0.00951694083 0.00815710407
v -5.14643974e-05 -0.00884134785 0.00892144659
v 0.000183973949 -0.0082079889 0.00950581053
v 0.000665915145 -0.00729435598 0.0101800362
v 0.00125888811 -0.00630223371 0.0107630785
v 0.0017720801 -0.00549764649 0.0111535213
v 0.00230744902 -0.00481565014 0.0113688133
v 0.00288644854 -0.00414795891 0.0114989898
v 0.00350240294 -0.0035023214 0.0115426204
v 0.00481561248 -0.00230736748 0.0113688133
v 0.00549760882 -0.00177211777 0.0111535213
v 0.00618592326 -0.00128669754 0.0108554981
v 0.00687244956 -0.000856948055 0.0104785583
v 0.00744567121 -0.000589010184 0.0100679353
v 0.00844988399 -0.000132510192 0.00926644592
v 0.00933800995 0.000141614615 0.00836210506
v 0.00877398232 -0.00286869326 0.00552352624
v 0.0105163199 0.000322866284 0.00686055639
v 0.0109777791 0.00026481136 0.00609785536
v 0.0112964803 0.000105749775 0.00543375834
v 0.0117220027 -7.12396277e-05 0.00451165655
v 0.0123321158 -0.00108952538 0.00212055662
v 0.0123901707 -0.00155098454 0.00135785559
v 0.0123736006 -0.00206489579 0.00062734106
v 0.0122690427 -0.00257062037 7.59808998e-05
v 0.0121219299 -0.0031341134 -0.000529017202
v 0.0118832928 -0.00385923401 -0.00128739855
v 0.0115793091 -0.00451822297 -0.00180846235
v 0.0110351803 -0.0054691931 -0.00236554445
v 0.0103545011 -0.00647065706 -0.00283939957
v 0.00975981776 -0.00725157277 -0.00315040133
v 0.00918081824 -0.007919264 -0.00328057787
v 0.00856486384 -0.00856490151 -0.00332420847
v -0.0075033563 0.00750331863 -0.00677495977
v 0.00813356463 -0.00868256108 0.00411814669
v -0.00779351171 0.00724451526 -0.00672894499
v 0.00783172671 -0.00889236943 0.00425321081
v -0.00809534963 0.0070345877 -0.00659388086
v 0.0075389487 -0.00903887764 0.00446790674
v -0.00838812764 0.00688807949 -0.00637918493
v 0.00727501933 -0.00911219136 0.00474781015
v -0.0086519378 0.00681488498 -0.00609928152
v 0.00705805842 -0.00910718457 0.00507372835
v -0.00886889871 0.00681989177 -0.00577336332
v 0.00690284793 -0.0090242149 0.00542348841
v -0.00902422841 0.00690286144 -0.00542360327
v 0.00681987826 -0.0088688852 0.00577336767
v -0.00910719808 0.00705807193 -0.005073724
v 0.00681487147 -0.00865192429 0.00609928587
v -0.00911220487 0.00727503284 -0.00474780581
v 0.00688806598 -0.00838811413 0.00637918928
v -0.00903889116 0.00753896221 -0.00446790239
v 0.0070346934 -0.00809533612 0.00659388521
v -0.00889238294 0.00783174022 -0.00425320646
v 0.00724450175 -0.0077934982 0.00672894934
v -0.00868257459 0.00813345893 -0.00411814234
v 0.00750330512 -0.00750334278 0.00677496412
v -0.00842377122 0.00842373355 -0.00407212755
v 0.00779346053 -0.00724442021 0.00672894934
v -0.0081334966 0.00868253692 -0.00411814234
v 0.00809529845 -0.00703461186 0.00659388521
v -0.00783177789 0.00889234527 -0.00425320646
v 0.00838807647 -0.00688810364 0.00637918928
v -0.00753888066 0.0090389727 -0.00446790239
v 0.00865200583 -0.00681490914 0.00609928587
v -0.00727507051 0.0091121672 -0.00474780581
v 0.00886896674 -0.00681991593 0.00577336767
v -0.0070581096 0.00910716041 -0.005073724
v 0.00902417723 -0.00690288559 0.00542348841
v -0.00690289911 0.00902419075 -0.00542360327
v 0.0091071469 -0.00705809609 0.00507372835
v -0.00681992944 0.00886898025 -0.00577336332
v 0.00911215369 -0.007275057 0.00474781015
v -0.00681480344 0.00865201934 -0.00609928152
v 0.00903895919 -0.00753898636 0.00446790674
v -0.00688811715 0.00838808998 -0.00637918493
v 0.00889245097 -0.00783176438 0.00425321081
v -0.00703462537 0.00809531196 -0.00659388086
v 0.00868252341 -0.00813348309 0.00411814669
v -0.00724443372 0.00779347404 -0.00672894499
v 0.00842372004 -0.00842375771 0.0040721319
v 0.00796357219 -0.00796349064 0.00542348841
v -0.00796350415 0.00796346649 -0.00542360327
f 1 4 3
f 3 4 5
f 3 5 2
f 13 536 533
f 536 534 533
f 7 548 14
f 7 14 1
f 7 8 549
f 7 549 548
f 19 523 18
f 536 535 534
f 2 539 3
f 3 539 22
f 3 22 21
f 21 22 536
f 1 14 545
f 1 545 544
f 514 513 15
f 15 513 24
f 15 24 23
f 23 24 11
f 6 25 20
f 20 25 19
f 19 25 524
f 19 524 523
f 74 76 64
f 77 326 78
f 78 79 80
f 80 81 82
f 68 103 63
f 104 105 106
f 106 107 108
f 108 109 110
f 73 76 74
f 130 74 131
f 67 103 68
f 132 68 133
f 75 73 74
f 69 67 68
f 137 75 74
f 137 74 134
f 134 74 130
f 130 131 138
f 70 69 68
f 70 68 135
f 135 68 132
f 132 133 136
f 65 75 198
f 198 75 137
f 134 130 138
f 351 69 70
f 135 132 136
f 137 134 138
f 64 77 140
f 64 140 74
f 74 140 131
f 131 141 138
f 138 141 142
f 138 142 195
f 195 142 61
f 195 61 139
f 139 61 60
f 139 60 62
f 77 78 140
f 140 143 131
f 131 143 141
f 141 144 142
f 142 144 59
f 142 59 387
f 142 387 61
f 78 80 145
f 78 145 140
f 140 145 143
f 143 146 141
f 141 146 147
f 141 147 144
f 144 147 58
f 144 58 390
f 144 390 59
f 80 82 145
f 145 148 143
f 143 148 146
f 146 149 147
f 147 149 57
f 147 57 392
f 147 392 58
f 82 153 145
f 145 153 148
f 148 55 146
f 146 55 56
f 146 56 149
f 149 56 394
f 149 394 57
f 56 395 394
f 153 151 148
f 148 151 150
f 148 150 55
f 56 55 54
f 56 54 395
f 55 150 152
f 55 152 54
f 52 53 151
f 52 151 154
f 84 153 83
f 83 153 82
f 83 82 338
f 338 82 72
f 53 397 151
f 151 397 152
f 151 152 150
f 155 154 151
f 155 151 153
f 399 53 52
f 156 155 153
f 156 153 87
f 87 153 84
f 87 84 86
f 86 84 85
f 85 84 83
f 51 399 52
f 49 51 52
f 49 52 157
f 157 52 154
f 157 154 155
f 90 156 87
f 90 87 89
f 89 87 88
f 88 87 86
f 50 51 49
f 158 157 155
f 158 155 156
f 159 158 156
f 159 156 93
f 93 156 90
f 93 90 92
f 92 90 91
f 91 90 89
f 48 50 49
f 46 48 49
f 46 49 160
f 160 49 157
f 160 157 158
f 96 159 93
f 96 93 95
f 95 93 94
f 94 93 92
f 47 48 46
f 161 160 158
f 161 158 159
f 162 161 159
f 162 159 99
f 99 159 96
f 99 96 98
f 98 96 97
f 97 96 95
f 45 47 46
f 163 45 46
f 163 46 164
f 164 46 160
f 164 160 161
f 101 162 99
f 101 99 100
f 100 99 98
f 411 45 163
f 167 164 161
f 167 161 162
f 101 100 102
f 165 167 162
f 165 162 166
f 166 162 101
f 166 101 102
f 102 71 166
f 164 168 163
f 163 168 411
f 411 168 169
f 71 351 166
f 166 351 165
f 165 351 70
f 165 70 167
f 167 70 135
f 167 135 164
f 164 135 136
f 164 136 168
f 63 104 170
f 63 170 68
f 68 170 133
f 133 171 136
f 136 171 172
f 136 172 168
f 168 172 44
f 168 44 169
f 169 44 413
f 169 413 412
f 104 106 170
f 170 173 133
f 133 173 171
f 171 174 172
f 172 174 43
f 172 43 415
f 172 415 44
f 106 108 175
f 106 175 170
f 170 175 173
f 173 176 171
f 171 176 177
f 171 177 174
f 174 177 42
f 174 42 418
f 174 418 43
f 108 110 175
f 175 178 173
f 173 178 176
f 176 179 177
f 177 179 41
f 177 41 420
f 177 420 42
f 110 183 175
f 175 183 178
f 178 38 176
f 176 38 40
f 176 40 179
f 179 40 422
f 179 422 41
f 40 39 422
f 183 181 178
f 178 181 180
f 178 180 38
f 40 38 37
f 40 37 39
f 38 180 425
f 38 425 37
f 34 36 181
f 34 181 184
f 112 183 111
f 111 183 110
f 111 110 372
f 372 110 66
f 36 182 181
f 181 182 180
f 180 426 425
f 185 184 181
f 185 181 183
f 35 36 34
f 186 185 183
f 186 183 114
f 114 183 112
f 114 112 113
f 113 112 282
f 282 112 111
f 33 35 34
f 31 33 34
f 31 34 187
f 187 34 184
f 187 184 185
f 117 186 114
f 117 114 116
f 116 114 115
f 115 114 113
f 32 33 31
f 188 187 185
f 188 185 186
f 189 188 186
f 189 186 120
f 120 186 117
f 120 117 119
f 119 117 118
f 118 117 116
f 30 32 31
f 28 30 31
f 28 31 190
f 190 31 187
f 190 187 188
f 123 189 120
f 123 120 122
f 122 120 121
f 121 120 119
f 29 30 28
f 191 190 188
f 191 188 189
f 193 191 189
f 193 189 126
f 126 189 123
f 126 123 125
f 125 123 124
f 124 123 122
f 27 29 28
f 26 27 28
f 26 28 192
f 192 28 190
f 192 190 191
f 128 193 126
f 128 126 127
f 127 126 125
f 440 27 26
f 196 192 191
f 196 191 193
f 128 127 129
f 194 440 26
f 194 26 195
f 195 26 192
f 195 192 196
f 197 196 193
f 197 193 198
f 198 193 128
f 198 128 129
f 129 65 198
f 197 198 137
f 197 137 196
f 196 137 138
f 196 138 195
f 194 195 139
f 194 139 440
f 207 205 208
f 219 209 210
f 214 206 213
f 215 227 217
f 215 217 216
f 210 209 218
f 224 225 211
f 211 225 293
f 211 293 223
f 224 199 225
f 209 226 218
f 218 226 215
f 215 226 227
f 212 229 222
f 222 229 220
f 220 229 230
f 220 230 221
f 216 288 215
f 215 288 213
f 202 231 219
f 219 231 299
f 232 218 215
f 232 215 233
f 233 215 234
f 234 215 213
f 234 213 206
f 234 206 235
f 235 206 201
f 235 201 200
f 235 200 236
f 236 200 199
f 236 199 224
f 236 224 211
f 236 211 245
f 245 211 237
f 237 211 212
f 237 212 222
f 237 222 220
f 237 220 238
f 238 220 228
f 238 228 239
f 239 228 208
f 239 208 205
f 239 205 240
f 240 205 204
f 240 204 203
f 240 203 241
f 241 203 202
f 241 202 219
f 241 219 242
f 242 219 232
f 232 219 210
f 232 210 218
f 243 234 235
f 243 235 244
f 244 235 236
f 244 236 245
f 247 241 242
f 247 242 232
f 247 232 248
f 248 232 249
f 249 232 250
f 250 232 233
f 250 233 243
f 243 233 234
f 245 237 246
f 246 237 251
f 251 237 238
f 251 238 252
f 252 238 239
f 252 239 253
f 253 239 240
f 253 240 247
f 247 240 241
f 254 249 255
f 255 249 250
f 255 250 256
f 256 250 243
f 256 243 257
f 257 243 244
f 257 244 245
f 257 245 258
f 258 245 259
f 259 245 246
f 259 246 251
f 259 251 260
f 260 251 252
f 260 252 261
f 261 252 253
f 261 253 262
f 262 253 247
f 262 247 263
f 263 247 254
f 254 247 248
f 254 248 249
f 256 264 255
f 255 264 265
f 255 265 254
f 254 265 266
f 254 266 263
f 263 266 262
f 259 267 258
f 258 267 257
f 257 267 268
f 257 268 269
f 257 269 256
f 256 269 270
f 256 270 264
f 266 271 262
f 262 271 272
f 262 272 261
f 261 272 273
f 261 273 274
f 261 274 260
f 260 274 275
f 260 275 276
f 260 276 259
f 259 276 277
f 259 277 267
f 8 266 9
f 9 266 265
f 9 265 10
f 10 265 11
f 11 265 264
f 11 264 23
f 23 264 15
f 15 264 270
f 15 270 12
f 12 270 269
f 12 269 16
f 16 269 17
f 17 269 18
f 18 269 268
f 18 268 19
f 19 268 267
f 19 267 20
f 20 267 277
f 20 277 6
f 6 277 276
f 6 276 13
f 13 276 536
f 536 276 275
f 536 275 274
f 536 274 21
f 21 274 3
f 3 274 273
f 3 273 272
f 3 272 1
f 1 272 271
f 1 271 7
f 7 271 266
f 7 266 8
f 129 127 278
f 122 121 279
f 121 119 279
f 119 118 377
f 118 116 280
f 116 115 376
f 115 113 281
f 102 100 283
f 95 94 284
f 94 92 284
f 92 91 342
f 91 89 285
f 89 88 341
f 88 86 286
f 86 85 287
f 85 83 287
f 289 213 288
f 289 214 213
f 290 206 214
f 290 201 206
f 291 200 201
f 291 199 200
f 292 225 199
f 294 211 223
f 295 208 228
f 296 205 207
f 297 204 205
f 297 203 204
f 298 202 203
f 298 231 202
f 300 219 299
f 301 209 219
f 212 211 302
f 229 212 302
f 226 209 303
f 303 209 301
f 303 301 304
f 308 229 302
f 308 302 309
f 315 75 65
f 219 300 301
f 301 300 316
f 301 316 304
f 304 316 317
f 304 317 305
f 305 317 306
f 306 315 307
f 307 315 65
f 306 318 315
f 315 318 75
f 319 73 75
f 317 316 320
f 317 320 306
f 306 320 319
f 306 319 318
f 318 319 75
f 320 76 73
f 319 320 73
f 320 64 76
f 231 298 299
f 299 298 321
f 299 321 300
f 300 321 322
f 300 322 316
f 316 322 323
f 316 323 320
f 324 77 64
f 323 324 320
f 320 324 64
f 325 326 77
f 323 325 324
f 324 325 77
f 323 326 325
f 327 79 78
f 203 297 298
f 298 297 328
f 298 328 321
f 321 328 329
f 321 329 322
f 322 329 330
f 322 330 323
f 323 330 327
f 323 327 326
f 326 327 78
f 330 80 79
f 327 330 79
f 331 81 80
f 297 332 328
f 328 332 329
f 329 332 333
f 329 333 330
f 330 333 331
f 330 331 80
f 333 82 81
f 331 333 81
f 334 72 82
f 205 296 297
f 297 296 335
f 297 335 332
f 332 335 336
f 332 336 337
f 332 337 333
f 333 337 334
f 333 334 82
f 337 338 334
f 334 338 72
f 337 336 287
f 337 287 338
f 338 287 83
f 208 295 207
f 207 295 339
f 207 339 296
f 296 339 340
f 296 340 335
f 335 340 341
f 335 341 336
f 336 341 286
f 336 286 287
f 287 286 86
f 286 341 88
f 340 342 341
f 341 342 285
f 341 285 89
f 228 345 295
f 295 345 339
f 285 342 91
f 345 343 339
f 339 343 344
f 339 344 340
f 340 344 284
f 340 284 342
f 342 284 92
f 344 343 313
f 344 313 284
f 284 313 95
f 100 98 283
f 283 98 343
f 283 343 349
f 349 343 346
f 346 343 347
f 347 343 345
f 220 345 228
f 343 98 97
f 343 97 313
f 313 97 95
f 347 345 221
f 221 345 220
f 348 102 283
f 348 283 349
f 349 346 350
f 350 346 347
f 71 102 348
f 350 347 230
f 230 347 221
f 312 71 348
f 312 348 311
f 311 348 310
f 310 348 349
f 310 349 309
f 309 349 350
f 309 350 308
f 308 350 229
f 229 350 230
f 211 294 302
f 302 294 352
f 302 352 309
f 309 352 353
f 309 353 310
f 310 353 311
f 311 353 351
f 311 351 312
f 312 351 71
f 353 354 351
f 351 354 69
f 355 67 69
f 352 356 353
f 353 356 355
f 353 355 354
f 354 355 69
f 356 103 67
f 223 293 294
f 355 356 67
f 356 63 103
f 293 357 294
f 294 357 358
f 294 358 352
f 352 358 359
f 352 359 356
f 360 104 63
f 225 292 293
f 293 292 357
f 359 360 356
f 356 360 63
f 359 105 104
f 360 359 104
f 361 106 105
f 199 291 292
f 358 361 359
f 359 361 105
f 362 107 106
f 291 363 292
f 292 363 364
f 292 364 357
f 357 364 365
f 357 365 358
f 358 365 362
f 358 362 361
f 361 362 106
f 365 108 107
f 362 365 107
f 366 109 108
f 364 367 365
f 365 367 366
f 365 366 108
f 367 110 109
f 201 290 291
f 291 290 363
f 366 367 109
f 368 66 110
f 290 369 363
f 363 369 370
f 363 370 364
f 364 370 371
f 364 371 367
f 367 371 368
f 367 368 110
f 371 372 368
f 368 372 66
f 282 111 373
f 371 373 372
f 372 373 111
f 214 289 290
f 290 289 369
f 371 282 373
f 289 374 369
f 369 374 375
f 369 375 370
f 370 375 376
f 370 376 371
f 371 376 281
f 371 281 282
f 282 281 113
f 281 376 115
f 289 288 374
f 375 377 376
f 376 377 280
f 376 280 116
f 288 216 374
f 280 377 118
f 216 378 374
f 374 378 379
f 374 379 375
f 375 379 279
f 375 279 377
f 377 279 119
f 379 378 314
f 379 314 279
f 279 314 122
f 127 125 278
f 278 125 378
f 278 378 383
f 383 378 380
f 380 378 216
f 378 125 124
f 378 124 314
f 314 124 122
f 381 380 216
f 381 216 227
f 227 216 217
f 382 129 278
f 382 278 383
f 383 380 384
f 384 380 381
f 65 129 382
f 384 381 226
f 226 381 227
f 307 65 382
f 307 382 306
f 306 382 305
f 305 382 383
f 305 383 304
f 304 383 384
f 304 384 303
f 303 384 226
f 62 60 386
f 386 60 61
f 386 61 387
f 388 387 389
f 387 59 389
f 389 59 390
f 390 58 391
f 391 58 392
f 392 57 393
f 393 57 394
f 395 54 396
f 396 54 152
f 398 397 53
f 398 53 399
f 400 399 51
f 400 51 401
f 401 51 402
f 402 51 50
f 402 50 403
f 403 50 404
f 404 50 48
f 404 48 405
f 405 48 406
f 406 48 47
f 406 47 407
f 407 47 408
f 408 47 45
f 408 45 409
f 409 45 410
f 410 45 411
f 411 169 412
f 414 413 44
f 414 44 415
f 416 415 417
f 415 43 417
f 417 43 418
f 418 42 419
f 419 42 420
f 420 41 421
f 421 41 422
f 422 39 423
f 423 39 424
f 39 37 424
f 424 37 425
f 180 182 426
f 426 182 36
f 426 36 427
f 427 36 428
f 428 36 35
f 428 35 429
f 429 35 33
f 429 33 430
f 430 33 431
f 431 33 32
f 431 32 432
f 432 32 433
f 433 32 30
f 433 30 434
f 434 30 435
f 435 30 29
f 435 29 436
f 436 29 437
f 437 29 27
f 437 27 438
f 438 27 439
f 439 27 440
f 385 440 139
f 385 139 62
f 385 441 440
f 440 441 439
f 427 442 426
f 426 442 443
f 426 443 425
f 425 443 424
f 412 444 411
f 411 444 410
f 398 445 397
f 397 445 446
f 397 446 152
f 152 446 396
f 441 447 439
f 439 447 448
f 439 448 438
f 438 448 449
f 438 449 437
f 437 449 450
f 437 450 436
f 436 450 451
f 436 451 435
f 435 451 452
f 435 452 434
f 434 452 453
f 434 453 433
f 433 453 454
f 433 454 432
f 432 454 455
f 432 455 431
f 431 455 456
f 431 456 430
f 430 456 457
f 430 457 429
f 429 457 458
f 429 458 428
f 428 458 459
f 428 459 427
f 427 459 442
f 443 460 424
f 424 460 461
f 424 461 423
f 423 461 462
f 423 462 422
f 422 462 463
f 422 463 421
f 421 463 464
f 421 464 420
f 420 464 465
f 420 465 419
f 419 465 466
f 419 466 418
f 418 466 467
f 418 467 417
f 417 467 468
f 417 468 416
f 416 468 469
f 416 469 415
f 415 469 470
f 415 470 414
f 414 470 471
f 414 471 413
f 413 471 472
f 413 472 412
f 412 472 444
f 444 473 410
f 410 473 474
f 410 474 409
f 409 474 475
f 409 475 408
f 408 475 476
f 408 476 407
f 407 476 477
f 407 477 406
f 406 477 478
f 406 478 405
f 405 478 479
f 405 479 404
f 404 479 480
f 404 480 403
f 403 480 481
f 403 481 402
f 402 481 482
f 402 482 401
f 401 482 483
f 401 483 400
f 400 483 484
f 400 484 399
f 399 484 485
f 399 485 398
f 398 485 445
f 446 486 396
f 396 486 487
f 396 487 395
f 395 487 488
f 395 488 394
f 394 488 489
f 394 489 393
f 393 489 490
f 393 490 392
f 392 490 491
f 392 491 391
f 391 491 492
f 391 492 390
f 390 492 493
f 390 493 389
f 389 493 494
f 389 494 388
f 388 494 495
f 388 495 387
f 387 495 496
f 387 496 386
f 386 496 497
f 386 497 62
f 62 497 498
f 62 498 385
f 385 498 441
f 498 499 441
f 441 499 447
f 459 500 442
f 442 500 501
f 442 501 443
f 443 501 460
f 472 502 444
f 444 502 473
f 485 503 445
f 445 503 504
f 445 504 446
f 446 504 486
f 499 505 447
f 447 505 506
f 447 506 448
f 448 506 507
f 448 507 449
f 449 507 508
f 449 508 450
f 450 508 509
f 450 509 451
f 451 509 510
f 451 510 452
f 452 510 511
f 452 511 453
f 453 511 512
f 453 512 454
f 454 512 513
f 454 513 455
f 455 513 514
f 455 514 456
f 456 514 15
f 456 15 457
f 457 15 515
f 457 515 458
f 458 515 516
f 458 516 459
f 459 516 500
f 501 517 460
f 460 517 518
f 460 518 461
f 461 518 519
f 461 519 462
f 462 519 520
f 462 520 463
f 463 520 521
f 463 521 464
f 464 521 522
f 464 522 465
f 465 522 523
f 465 523 466
f 466 523 467
f 467 523 524
f 467 524 468
f 468 524 525
f 468 525 469
f 469 525 526
f 469 526 470
f 470 526 527
f 470 527 471
f 471 527 528
f 471 528 472
f 472 528 502
f 502 529 473
f 473 529 530
f 473 530 474
f 474 530 531
f 474 531 475
f 475 531 532
f 475 532 476
f 476 532 533
f 476 533 477
f 477 533 534
f 477 534 478
f 478 534 479
f 479 534 535
f 479 535 480
f 480 535 536
f 480 536 481
f 481 536 537
f 481 537 482
f 482 537 538
f 482 538 483
f 483 538 539
f 483 539 484
f 484 539 540
f 484 540 485
f 485 540 503
f 504 541 486
f 486 541 542
f 486 542 487
f 487 542 543
f 487 543 488
f 488 543 544
f 488 544 489
f 489 544 545
f 489 545 490
f 490 545 546
f 490 546 491
f 491 546 547
f 491 547 492
f 492 547 548
f 492 548 493
f 493 548 494
f 494 548 549
f 494 549 495
f 495 549 550
f 495 550 496
f 496 550 551
f 496 551 497
f 497 551 552
f 497 552 498
f 498 552 499
f 552 9 499
f 499 9 505
f 505 9 506
f 506 9 10
f 506 10 507
f 507 10 11
f 507 11 508
f 509 508 11
f 509 11 510
f 510 11 511
f 511 11 24
f 511 24 512
f 512 24 513
f 515 15 12
f 515 12 516
f 516 12 500
f 500 12 16
f 500 16 501
f 501 16 517
f 517 16 518
f 518 16 17
f 518 17 519
f 519 17 18
f 519 18 520
f 521 520 18
f 521 18 522
f 522 18 523
f 525 524 25
f 525 25 526
f 526 25 527
f 527 25 528
f 528 25 502
f 502 25 6
f 502 6 529
f 529 6 530
f 530 6 13
f 530 13 531
f 531 13 532
f 532 13 533
f 537 536 22
f 537 22 538
f 538 22 539
f 540 539 2
f 540 2 503
f 503 2 5
f 503 5 504
f 504 5 4
f 504 4 541
f 541 4 542
f 542 4 1
f 542 1 543
f 543 1 544
f 546 545 14
f 546 14 547
f 547 14 548
f 550 549 8
f 550 8 551
f 551 8 552
f 552 8 9
f 553 554 555
f 555 554 556
f 555 556 557
f 557 556 558
f 557 558 559
f 559 558 560
f 559 560 561
f 561 560 562
f 561 562 563
f 563 562 564
f 563 564 565
f 565 564 566
f 565 566 567
f 567 566 568
f 567 568 569
f 569 568 570
f 569 570 571
f 571 570 572
f 571 572 573
f 573 572 574
f 573 574 575
f 575 574 576
f 575 576 577
f 577 576 578
f 577 578 579
f 579 578 580
f 579 580 581
f 581 580 582
f 581 582 583
f 583 582 584
f 583 584 585
f 585 584 586
f 585 586 587
f 587 586 588
f 587 588 589
f 589 588 590
f 589 590 591
f 591 590 592
f 591 592 593
f 593 592 594
f 593 594 595
f 595 594 596
f 595 596 597
f 597 596 598
f 597 598 599
f 599 598 600
f 599 600 553
f 553 600 554
f 580 578 601
f 601 578 576
f 601 576 574
f 586 584 601
f 601 584 582
f 601 582 580
f 592 590 601
f 601 590 588
f 601 588 586
f 598 596 601
f 601 596 594
f 601 594 592
f 556 554 601
f 601 554 600
f 601 600 598
f 562 560 601
f 601 560 558
f 601 558 556
f 568 566 601
f 601 566 564
f 601 564 562
f 574 572 601
f 601 572 570
f 601 570 568
f 573 575 602
f 602 575 577
f 602 577 579
f 567 569 602
f 602 569 571
f 602 571 573
f 561 563 602
f 602 563 565
f 602 565 567
f 555 557 602
f 602 557 559
f 602 559 561
f 597 599 602
f 602 599 553
f 602 553 555
f 591 593 602
f 602 593 595
f 602 595 597
f 585 587 602
f 602 587 589
f 602 589 591
f 579 581 602
f 602 581 583
f 602 583 585
