v -0.0193489397 -0.0277443567 0.000870921032
v -0.0149571503 -0.0321361461 0.00294790448
v -0.0196513737 -0.0274419227 0.00237772645
v -0.0154864396 -0.0316068569 0.00512979211
v -0.0202192868 -0.0268740096 0.00372252645
v -0.0347358788 -0.0123574176 0.00170550527
v -0.0340480412 -0.0130452552 0.00122544946
v -0.0274419392 -0.0196513572 -0.00237777053
v -0.0334614123 -0.0136320033 0.000526406186
v -0.0330100859 -0.0140832105 -0.000350735767
v -0.0327202881 -0.0143730083 -0.00135519324
v -0.0268740261 -0.0202192703 -0.00372257052
v -0.0326089466 -0.0144843498 -0.00242855368
v -0.026079377 -0.0210139194 -0.00481357394
v -0.0201429928 -0.0269504228 -0.00358178435
v -0.0157945956 -0.0312987008 -0.00600507079
v -0.0196034516 -0.027489964 -0.00221397696
v -0.0151463355 -0.031946961 -0.00388839064
v -0.0193326081 -0.0277606883 -0.000695131404
v -0.0147841776 -0.0323091188 -0.00163926898
v -0.0147204007 -0.0323728958 0.000665642636
v -0.0218653286 -0.0252279678 -0.00550868331
v -0.0229308213 -0.0241624751 -0.00593640624
v -0.0222636069 -0.0248296895 -0.0123676282
v -0.0240381564 -0.0230551401 -0.00595965205
v -0.0545842255 0.00749092909 -0.00947215377
v -0.0551237667 0.00803047033 -0.0108399612
v -0.0558952893 0.00880199285 -0.0119637471
v -0.0572443808 0.0101510844 -0.019625805
v -0.0619312132 0.0148379168 -0.00367631732
v -0.0662796105 0.0191861949 -0.00125303088
v -0.0624707545 0.0153774581 -0.00504424392
v -0.0669277514 0.019834455 -0.00336971102
v -0.062741598 0.0156483016 -0.00656297026
v -0.0672900284 0.020196732 -0.00561883269
v -0.0627251471 0.0156318507 -0.00812914191
v -0.0277443732 -0.0193489232 -0.000870965106
v -0.0277607048 -0.0193325916 0.00069520654
v -0.03548499 -0.0116083064 0.00193891706
v -0.0673538054 0.020260509 -0.00792386351
v -0.0671170557 0.0200237593 -0.0102061254
v -0.0624227131 0.0153294167 -0.00963594733
v -0.0665877665 0.0194944701 -0.012388013
v -0.0618549193 0.0147616229 -0.0109806281
v -0.0493917073 0.00229841085 -0.00374975024
v -0.0491375531 0.00204425665 -0.00272621928
v -0.0546322668 0.00753897043 -0.00488045035
v -0.0480261649 0.000932868442 -0.00848355113
v -0.054313382 0.00722008558 -0.00795330821
v -0.0473383273 0.000245030842 -0.00896372615
v -0.0465890969 -0.000504199543 -0.00919713794
v -0.020678481 -0.0264148155 -0.011823557
v -0.0191911066 -0.0279021898 -0.010876916
v -0.0209143961 -0.0261789003 -0.00470557032
v -0.0178520287 -0.0292412677 -0.0095598918
v -0.0167067851 -0.0303865114 -0.007917307
v -0.0568462218 0.00975280615 -0.0127668601
v -0.0579115952 0.0108182988 -0.013194583
v -0.0588732565 0.0117798409 -0.0197485906
v -0.0590190495 0.0119257531 -0.0132177096
v -0.0604902113 0.0133969149 -0.0194460374
v -0.060093006 0.0129997096 -0.0128348094
v -0.0657839383 0.0186906418 -0.0143951398
v -0.0647331084 0.017639812 -0.0161593181
v -0.0610602702 0.0139669737 -0.0120717507
v -0.0634709204 0.016377624 -0.0176203471
v -0.0620404089 0.0149471125 -0.0187285167
v -0.0598105992 0.0127173028 0.00510940732
v -0.0613956059 0.0143023095 0.00456545533
v -0.0602088774 0.013115581 -0.00174941836
v -0.0628830994 0.015789803 0.00361881437
v -0.0611596907 0.0140663943 -0.00255253134
v -0.0642221774 0.0171288809 0.00230179013
v -0.0653673018 0.0182740054 0.000659205334
v -0.0591433848 0.0120500884 -0.00132169543
v -0.0580359305 0.0109426341 -0.00129856883
v -0.024829706 -0.0222635904 0.0123675841
v -0.056961974 0.00986867758 -0.00168158828
v -0.0559947098 0.0089014134 -0.00244464694
v -0.0552001799 0.00810676428 -0.00353565036
v -0.0251121128 -0.0219811836 -0.0055766326
v -0.0326824988 -0.0144107976 -0.00350835143
v -0.0329365338 -0.0141567626 -0.0045320016
v -0.0333565081 -0.0137367883 -0.00543978034
v -0.0474861468 0.000392850361 -0.000551126583
v -0.0486127938 0.00151949736 -0.00778462706
v -0.0490641201 0.00197082373 -0.0069073659
v -0.0543298329 0.00723653646 -0.00638713656
v -0.0493537987 0.0022605023 -0.00590290843
v -0.0494652594 0.00237184378 -0.00482966719
v -0.0487176979 0.00162428232 -0.00181832133
v -0.0481562222 0.00106292578 -0.00107898532
v -0.0241624916 -0.0229308048 0.00593648137
v -0.0232009495 -0.0238923469 0.0124904889
v -0.0230551566 -0.0240382591 0.00595960798
v -0.0215839947 -0.0255093017 0.0121879357
v -0.0219812001 -0.0251120963 0.00557658853
v -0.0162901486 -0.0308031478 0.00713703813
v -0.0173410977 -0.0297523179 0.0089012164
v -0.0210139359 -0.0260793605 0.00481352987
v -0.0186032856 -0.0284900108 0.0103622455
v -0.0200337971 -0.0270594993 0.011470415
v -0.0467460955 -0.000347200909 -0.000265501125
v -0.0362518633 -0.0108414331 0.00191197576
v -0.0339178646 -0.0131754318 -0.00617911635
v -0.0345880593 -0.0125052371 -0.00670697509
v -0.0353279913 -0.0117653051 -0.00699271975
v -0.0458223427 -0.0012710729 -0.00917019664
v -0.0274898613 -0.0196034351 0.00221393289
v -0.0269503201 -0.0201429763 0.00358185949
v -0.0261789168 -0.0209144988 0.00470564546
v -0.0252279843 -0.0218653121 0.00550875844
v -0.0188124979 -0.0197956005 0.00595960798
v -0.019919833 -0.0186881462 0.00593648137
v -0.0205870474 -0.0180209318 0.0123675841
v -0.0292187537 -0.00938934473 0.000526406186
v -0.0298053826 -0.00880271582 0.00122544946
v -0.0235180462 -0.015089933 0.00069520654
v -0.0304932202 -0.00811475901 0.00170550527
v -0.0312423314 -0.00736564783 0.00193891706
v -0.0291138495 -0.0094941297 -0.00543978034
v -0.0286939944 -0.00991410402 -0.0045320016
v -0.0231992806 -0.0154086986 -0.00237777053
v -0.0284398402 -0.0101682582 -0.00350835143
v -0.028366288 -0.0102416912 -0.00242855368
v -0.0235017146 -0.0151062646 -0.000870965106
v -0.0284776295 -0.0101303497 -0.00135519324
v -0.0287674273 -0.0098406711 -0.000350735767
v -0.0167712773 -0.0218367019 0.00481352987
v -0.0130984391 -0.0255096593 0.0089012164
v -0.0159766282 -0.022631351 0.00372252645
v -0.01204749 -0.0265604892 0.00713703813
v -0.0154087151 -0.0231992641 0.00237772645
v -0.0581801737 0.0195720753 -0.00963594733
v -0.0628743971 0.0242662987 -0.0102061254
v -0.0584826077 0.0198745093 -0.00812914191
v -0.0631111468 0.0245031676 -0.00792386351
v -0.0584989394 0.019890841 -0.00656297026
v -0.0630473698 0.0244392714 -0.00561883269
v -0.0582280959 0.0196201167 -0.00504424392
v -0.0547763909 0.0161684117 -0.0132177096
v -0.0536689366 0.0150609574 -0.013194583
v -0.0530018414 0.014393743 -0.019625805
v -0.0112437809 -0.0273641982 0.00512979211
v -0.0107144917 -0.0278934875 0.00294790448
v -0.0151062811 -0.0235016981 0.000870921032
v -0.010477742 -0.0281303564 0.000665642636
v -0.0150899495 -0.0235180297 -0.000695131404
v -0.010541519 -0.0280664602 -0.00163926898
v -0.015360793 -0.0232473054 -0.00221397696
v -0.0509575213 0.0123494229 -0.00353565036
v -0.0517521704 0.013144072 -0.00244464694
v -0.0527193154 0.0141113362 -0.00168158828
v -0.0555679406 0.0169599614 0.00510940732
v -0.062685212 0.0240771136 -0.00336971102
v -0.0620369519 0.0234288535 -0.00125303088
v -0.0576885546 0.0190805754 -0.00367631732
v -0.0611246432 0.022516664 0.000659205334
v -0.0569170321 0.0183090529 -0.00255253134
v -0.0568176115 0.0182095131 -0.0120717507
v -0.0604904498 0.0218824706 -0.0161593181
v -0.0576122607 0.0190041623 -0.0109806281
v -0.0615412796 0.0229333005 -0.0143951398
v -0.0623451079 0.0237370095 -0.012388013
v -0.0226313675 -0.0159766117 -0.00372257052
v -0.0303454007 -0.00826257853 -0.00670697509
v -0.029675206 -0.00893277315 -0.00617911635
v -0.0218367184 -0.0167712608 -0.00481357394
v -0.0208694542 -0.017738525 -0.0055766326
v -0.0599795187 0.0213715396 0.00230179013
v -0.0586404408 0.0200323424 0.00361881437
v -0.0559662188 0.0173581204 -0.00174941836
v -0.0571530665 0.0185449681 0.00456545533
v -0.0549007262 0.016292747 -0.00132169543
v -0.0537932719 0.0151852927 -0.00129856883
v -0.0180209483 -0.0205870309 -0.0123676282
v -0.0109036768 -0.0277043023 -0.00388839064
v -0.011551937 -0.0270560422 -0.00600507079
v -0.0159003342 -0.0227077642 -0.00358178435
v -0.0124642456 -0.0261438527 -0.007917307
v -0.0166718567 -0.0219362417 -0.00470557032
v -0.0189582909 -0.0196496883 0.0124904889
v -0.0173413361 -0.0212667623 0.0121879357
v -0.0177385415 -0.0208695569 0.00557658853
v -0.0157911385 -0.0228168407 0.011470415
v -0.014360627 -0.0242474714 0.0103622455
v -0.0439136828 0.00530558439 -0.00107898532
v -0.0444750393 0.00586694094 -0.00181832133
v -0.0448948944 0.00628691526 -0.00272621928
v -0.0451490487 0.00654106947 -0.00374975024
v -0.0503896082 0.0117815098 -0.00488045035
v -0.0452226008 0.00661450239 -0.00482966719
v -0.0500871743 0.0114790759 -0.00638713656
v -0.0451112593 0.00650316092 -0.00590290843
v -0.0500708426 0.0114627442 -0.00795330821
v -0.0448214615 0.00621348234 -0.0069073659
v -0.0443701352 0.00576215597 -0.00778462706
v -0.0437835062 0.00517552706 -0.00848355113
v -0.0430956686 0.00448757025 -0.00896372615
v -0.0423465575 0.00373845907 -0.00919713794
v -0.0136093701 -0.0249986091 -0.0095598918
v -0.014948448 -0.0236595312 -0.010876916
v -0.01762267 -0.0209853092 -0.00550868331
v -0.0164358223 -0.0221721568 -0.011823557
v -0.0186881627 -0.0199199357 -0.00593640624
v -0.019795617 -0.0188124814 -0.00595965205
v -0.0546305979 0.0160224995 -0.0197485906
v -0.0562475527 0.0176395735 -0.0194460374
v -0.0558503474 0.0172423682 -0.0128348094
v -0.0577977503 0.0191896519 -0.0187285167
v -0.0592282618 0.0206202826 -0.0176203471
v -0.0526035632 0.0139954648 -0.0127668601
v -0.0516526307 0.0130446515 -0.0119637471
v -0.0508811081 0.0122731289 -0.0108399612
v -0.0310854519 -0.00752264647 -0.00699271975
v -0.0209853257 -0.0176226535 0.00550875844
v -0.0219362582 -0.0166718402 0.00470564546
v -0.0227077807 -0.0159003177 0.00358185949
v -0.0432434882 0.00463550898 -0.000551126583
v -0.0425034369 0.00389545771 -0.000265501125
v -0.0415796841 0.00297158571 -0.00917019664
v -0.0503415669 0.0117335877 -0.00947215377
v -0.0320092047 -0.00659877447 0.00191197576
v -0.0232473219 -0.0153607765 0.00221393289
v 0.0116720592 0.035421308 0.00192938031
v 0.0124774372 0.0346158108 0.00164208593
v 0.0193325674 0.0277606806 0.00069520654
v 0.0132029449 0.0338904223 0.00106988134
v 0.0137988721 0.0332943759 0.000251509564
v 0.0142248069 0.0328685603 -0.000757001026
v 0.019348899 0.027744349 -0.000870965106
v 0.0144516622 0.032641705 -0.00188710509
v 0.019651333 0.027441915 -0.00237777053
v 0.0144639408 0.0326294264 -0.00306167422
v 0.0202192461 0.0268740019 -0.00372257052
v 0.0210138952 0.0260793528 -0.00481357394
v -0.014837941 0.061931189 -0.00367631732
v -0.0191862191 0.0662795863 -0.00125303088
v -0.0153774823 0.0624707303 -0.00504424392
v -0.0198344792 0.0669278464 -0.00336971102
v -0.0156482066 0.0627415738 -0.00656297026
v 0.0269503986 0.0201429686 -0.00358178435
v 0.0312986766 0.0157945714 -0.00600507079
v 0.0274899398 0.0196034274 -0.00221397696
v 0.0319469368 0.0151463112 -0.00388839064
v 0.0277607833 0.0193325839 -0.000695131404
v 0.0252279436 0.0218653044 -0.00550868331
v 0.0241625702 0.0229307971 -0.00593640624
v 0.0248297845 0.0222635827 -0.0123676282
v 0.0230551159 0.0240382514 -0.00595965205
v 0.0138560926 0.0332371554 -0.00522675334
v 0.0142608081 0.0328325591 -0.00420083819
v 0.0219811594 0.0251120886 -0.0055766326
v 0.0132775699 0.0338157973 -0.00606956301
v 0.0125643407 0.0345289073 -0.00667192755
v 0.0117652809 0.0353280863 -0.00699271975
v -0.00749095329 0.0545842013 -0.00947215377
v -0.00803049454 0.0551237425 -0.0108399612
v -0.00880201706 0.0558952651 -0.0119637471
v -0.0101511086 0.0572444758 -0.019625805
v -0.00975283035 0.0568461976 -0.0127668601
v -0.010818323 0.057911571 -0.013194583
v -0.0117798651 0.0588732323 -0.0197485906
v -0.0119257773 0.0590190253 -0.0132177096
v -0.0133969391 0.0604901871 -0.0194460374
v -0.0129997338 0.0600929818 -0.0128348094
v -0.00109048733 0.0481837353 -0.00832798301
v -0.00722010979 0.054313477 -0.00795330821
v -0.000364979593 0.0474583468 -0.0089003068
v 0.000440398368 0.0466528496 -0.00918748198
v 0.0323092138 0.0147841534 -0.00163926898
v 0.0323729908 0.0147203765 0.000665642636
v 0.0277443325 0.0193489155 0.000870921032
v 0.0321361219 0.0149571261 0.00294790448
v 0.0274418985 0.0196513495 0.00237772645
v 0.0316069519 0.0154864153 0.00512979211
v 0.0268739854 0.0202192626 0.00372252645
v 0.0264147913 0.0206784567 -0.011823557
v 0.0279021656 0.0191910824 -0.010876916
v 0.0261788761 0.0209144911 -0.00470557032
v 0.0292413627 0.0178520045 -0.0095598918
v 0.0303864872 0.0167068801 -0.007917307
v 0.0012710487 0.0458223185 -0.00917019664
v -0.0147615279 0.0618548951 -0.0109806281
v -0.0176398362 0.0647330842 -0.0161593181
v -0.0139668787 0.061060246 -0.0120717507
v -0.0163776482 0.0634708962 -0.0176203471
v -0.0149470175 0.0620403847 -0.0187285167
v -0.00174363503 0.0488370022 -0.00203146754
v -0.00116511234 0.0482583603 -0.00118853865
v -0.0127172078 0.059810575 0.00510940732
v -0.000451883165 0.0475452504 -0.000586293323
v 0.000347176703 0.0467460713 -0.000265501125
v 0.0196034109 0.0274899563 0.00221393289
v 0.0201429521 0.0269504151 0.00358185949
v 0.0209144746 0.0261788926 0.00470564546
v 0.0222635662 0.0248296818 0.0123675841
v 0.0251121914 0.0219811759 0.00557658853
v 0.0255093967 0.0215839705 0.0121879357
v 0.0240382349 0.0230551324 0.00595960798
v 0.0238923227 0.0232009253 0.0124904889
v 0.0229307806 0.0241625867 0.00593648137
v 0.0218652879 0.0252279601 0.00550875844
v 0.0308031236 0.0162901244 0.00713703813
v 0.0297522937 0.0173410735 0.0089012164
v 0.0260793363 0.0210139117 0.00481352987
v 0.0284901058 0.0186032614 0.0103622455
v 0.0270594751 0.0200337729 0.011470415
v -0.020196637 0.0672900042 -0.00561883269
v -0.0202605332 0.0673537812 -0.00792386351
v -0.0156318749 0.0627252421 -0.00812914191
v -0.0200236643 0.0671170315 -0.0102061254
v -0.0153294409 0.0624228081 -0.00963594733
v -0.0194943751 0.0665877423 -0.012388013
v -0.018690666 0.0657840333 -0.0143951398
v -0.013115486 0.0602088532 -0.00174941836
v -0.0120501126 0.0591433606 -0.00132169543
v -0.0143023337 0.0613957009 0.00456545533
v -0.015789708 0.0628830752 0.00361881437
v -0.0140664185 0.0611596665 -0.00255253134
v -0.0171287859 0.0642221531 0.00230179013
v -0.0182740296 0.0653672776 0.000659205334
v -0.0109426583 0.0580359063 -0.00129856883
v -0.00986870178 0.056962069 -0.00168158828
v -0.00890143761 0.0559948048 -0.00244464694
v -0.00214835056 0.0492415986 -0.00305738269
v -0.00235148319 0.0494447312 -0.00419642745
v -0.00810678848 0.0552001557 -0.00353565036
v -0.00753887543 0.0546322426 -0.00488045035
v -0.00233920464 0.0494324526 -0.00537099658
v -0.00723644146 0.0543298087 -0.00638713656
v -0.00211234936 0.0492055974 -0.00650110064
v -0.00168641457 0.0487797818 -0.00750973044
v 0.0108414089 0.0362518391 0.00191197576
v 0.00255624405 0.0530223212 -0.00750973044
v 0.00315217129 0.0524263939 -0.00832798301
v -0.00297745117 0.0585560164 -0.00795330821
v -0.0111348236 0.0667133889 -0.00504424392
v -0.0149435604 0.0705222449 -0.00125303088
v -0.0105952824 0.0661738476 -0.00367631732
v -0.014031371 0.0696099362 0.000659205334
v -0.00982375988 0.0654023251 -0.00255253134
v -0.00329633602 0.0588749013 -0.00488045035
v 0.00189117542 0.0536873898 -0.00419642745
v -0.00299390206 0.0585724673 -0.00638713656
v 0.00190345398 0.0536751113 -0.00537099658
v 0.00213030926 0.053448256 -0.00650110064
v -0.00768311867 0.0632616839 -0.0132177096
v -0.00657566437 0.0621542296 -0.013194583
v -0.00590844998 0.0614870152 -0.019625805
v -0.00551017174 0.0610888562 -0.0127668601
v 0.029072324 0.0265062413 -0.0123676282
v -0.00455935845 0.0601379237 -0.0119637471
v -0.00972433933 0.0653029046 -0.0120717507
v -0.0133971775 0.0689757428 -0.0161593181
v -0.0105188692 0.0660975537 -0.0109806281
v -0.0144480074 0.0700265727 -0.0143951398
v -0.0110867823 0.0666654667 -0.00963594733
v -0.0152518357 0.0708304009 -0.012388013
v -0.0113892163 0.0669679007 -0.00812914191
v -0.0075372065 0.0631158909 -0.0197485906
v -0.00915428051 0.0647328457 -0.0194460374
v -0.00875707516 0.0643356404 -0.0128348094
v -0.0107043589 0.0662830433 -0.0187285167
v -0.0121349896 0.0677135548 -0.0176203471
v 0.0244619047 0.0311166606 -0.00372257052
v 0.0160079395 0.039570745 -0.00699271975
v 0.0168069994 0.0387715659 -0.00667192755
v 0.0319869911 0.0235915742 0.000870921032
v 0.0366155302 0.0189630351 0.000665642636
v 0.0320033228 0.0235752425 -0.000695131404
v 0.0365517532 0.019026812 -0.00163926898
v 0.0317325985 0.023846086 -0.00221397696
v 0.00379077545 0.0517877898 -0.000586293323
v 0.00307754627 0.052501019 -0.00118853865
v -0.00847466835 0.0640532336 0.00510940732
v 0.00249890438 0.0530796609 -0.00203146754
v 0.00209430805 0.0534842572 -0.00305738269
v -0.0128862465 0.0684648118 0.00230179013
v -0.0115471686 0.0671257338 0.00361881437
v -0.00887282738 0.0644515118 -0.00174941836
v -0.0100596751 0.0656382403 0.00456545533
v -0.00780745396 0.0633860192 -0.00132169543
v -0.00669999966 0.0622785649 -0.00129856883
v 0.0238939916 0.0316845736 -0.00237777053
v 0.0175201093 0.0380584559 -0.00606956301
v 0.0180987512 0.037479814 -0.00522675334
v 0.023575226 0.0320033393 0.00069520654
v 0.0180415308 0.0375370345 0.000251509564
v 0.0174456035 0.0381330809 0.00106988134
v 0.0284052288 0.0271734557 -0.00593640624
v 0.0306574499 0.0249211154 -0.011823557
v 0.0294706022 0.026107963 -0.00550868331
v 0.0321448242 0.0234337411 -0.010876916
v 0.0304215347 0.0251570305 -0.00470557032
v 0.0361895954 0.0193889699 -0.00388839064
v 0.0355413353 0.02003723 -0.00600507079
v 0.0311930572 0.0243856272 -0.00358178435
v 0.0346291458 0.0209495387 -0.007917307
v 0.0334839021 0.0220946631 -0.0095598918
v -0.00386412987 0.0594428143 -0.00353565036
v -0.00465877899 0.0602374634 -0.00244464694
v -0.00562604317 0.0612046084 -0.00168158828
v -0.0157811249 0.0713596902 -0.0102061254
v -0.0160178746 0.0715964398 -0.00792386351
v -0.0114056672 0.0669842324 -0.00656297026
v -0.0159540976 0.0715326628 -0.00561883269
v -0.0155918206 0.071170505 -0.00336971102
v 0.00468305698 0.0508955083 -0.00918748198
v 0.00551370731 0.0500649771 -0.00917019664
v 0.0303219949 0.0252565703 0.00481352987
v 0.0339949524 0.0215837321 0.0089012164
v 0.0311166441 0.0244619212 0.00372252645
v 0.0350457822 0.020532783 0.00713703813
v 0.0316845571 0.0238940081 0.00237772645
v 0.0358494913 0.019729074 0.00512979211
v 0.0363787805 0.0191997847 0.00294790448
v 0.0282808935 0.027297791 0.00595960798
v 0.0271734392 0.0284051261 0.00593648137
v 0.0265062248 0.0290723404 0.0123675841
v 0.0261079465 0.0294706187 0.00550875844
v 0.0251571333 0.0304215512 0.00470564546
v 0.00387767902 0.0517010054 -0.0089003068
v -0.00324829468 0.0588268599 -0.00947215377
v -0.00378783592 0.0593664012 -0.0108399612
v 0.0252565538 0.0303220114 -0.00481357394
v 0.026223818 0.0293547473 -0.0055766326
v 0.0272977745 0.02828091 -0.00595965205
v 0.0281349813 0.0274435839 0.0124904889
v 0.0297520553 0.0258266291 0.0121879357
v 0.0293547308 0.0262238345 0.00557658853
v 0.0313021337 0.0242764315 0.011470415
v 0.0327326452 0.02284592 0.0103622455
v 0.0159147178 0.0396639666 0.00192938031
v 0.0150840675 0.0404944977 0.00191197576
v 0.00458983532 0.0509887299 -0.000265501125
v 0.0185034668 0.0370750985 -0.00420083819
v 0.0187065994 0.0368720851 -0.00306167422
v 0.0235915577 0.0319870076 -0.000870965106
v 0.0186943208 0.0368843636 -0.00188710509
v 0.0184674656 0.0371110997 -0.000757001026
v 0.0167200958 0.0388584694 0.00164208593
v 0.0238460695 0.0317324957 0.00221393289
v 0.0243856107 0.0311929545 0.00358185949
f 1 2 3
f 3 2 4
f 3 4 5
f 6 7 8
f 8 7 9
f 9 10 8
f 8 10 11
f 8 11 12
f 12 11 13
f 12 13 14
f 15 16 17
f 17 16 18
f 17 18 19
f 19 18 20
f 19 20 1
f 1 20 21
f 1 21 2
f 22 23 24
f 24 23 25
f 26 27 24
f 24 27 28
f 24 28 29
f 30 31 32
f 32 31 33
f 32 33 34
f 34 33 35
f 34 35 36
f 8 37 6
f 6 37 38
f 6 38 39
f 35 40 36
f 36 40 41
f 36 41 42
f 42 41 43
f 42 43 44
f 45 46 47
f 48 49 50
f 50 49 51
f 24 52 22
f 22 52 53
f 22 53 54
f 54 53 55
f 54 55 15
f 15 55 56
f 15 56 16
f 28 57 29
f 29 57 58
f 29 58 59
f 59 58 60
f 59 60 61
f 61 60 62
f 43 63 44
f 44 63 64
f 44 64 65
f 65 64 66
f 65 66 62
f 62 66 67
f 62 67 61
f 68 69 70
f 70 69 71
f 70 71 72
f 72 71 73
f 72 73 30
f 30 73 74
f 30 74 31
f 70 75 68
f 68 75 76
f 68 76 77
f 76 78 77
f 77 78 79
f 77 79 80
f 14 13 81
f 81 13 82
f 81 82 25
f 25 82 24
f 24 82 83
f 24 83 84
f 80 47 85
f 48 86 49
f 49 86 87
f 49 87 88
f 88 87 89
f 88 89 47
f 47 89 90
f 47 90 45
f 46 91 47
f 47 91 92
f 47 92 85
f 77 93 94
f 94 93 95
f 94 95 96
f 96 95 97
f 4 98 5
f 5 98 99
f 5 99 100
f 100 99 101
f 100 101 97
f 97 101 102
f 97 102 96
f 80 85 77
f 77 85 103
f 77 103 104
f 84 105 24
f 24 105 106
f 24 106 107
f 107 108 24
f 24 108 51
f 24 51 26
f 26 51 49
f 38 109 39
f 39 109 110
f 39 110 104
f 104 110 111
f 104 111 77
f 77 111 112
f 77 112 93
f 113 114 115
f 116 117 118
f 118 117 119
f 118 119 120
f 121 122 123
f 122 124 123
f 123 124 125
f 123 125 126
f 126 125 127
f 126 127 118
f 118 127 128
f 118 128 116
f 129 130 131
f 131 130 132
f 131 132 133
f 134 135 136
f 136 135 137
f 136 137 138
f 138 137 139
f 138 139 140
f 141 142 143
f 132 144 133
f 133 144 145
f 133 145 146
f 146 145 147
f 146 147 148
f 148 147 149
f 148 149 150
f 151 152 115
f 115 152 153
f 115 153 154
f 139 155 140
f 140 155 156
f 140 156 157
f 157 156 158
f 157 158 159
f 160 161 162
f 162 161 163
f 162 163 134
f 134 163 164
f 134 164 135
f 165 166 123
f 123 166 167
f 123 167 121
f 143 168 169
f 158 170 159
f 159 170 171
f 159 171 172
f 172 171 173
f 172 173 174
f 174 173 154
f 174 154 175
f 175 154 153
f 143 169 176
f 149 177 150
f 150 177 178
f 150 178 179
f 179 178 180
f 179 180 181
f 115 182 113
f 113 182 183
f 113 183 184
f 184 183 185
f 184 185 129
f 129 185 186
f 129 186 130
f 151 187 188
f 188 189 151
f 151 189 190
f 151 190 191
f 191 190 192
f 191 192 193
f 193 192 194
f 193 194 195
f 195 194 196
f 195 196 197
f 197 198 195
f 195 198 199
f 195 199 200
f 180 201 181
f 181 201 202
f 181 202 203
f 203 202 204
f 203 204 205
f 205 204 176
f 205 176 206
f 206 176 169
f 143 207 141
f 141 207 208
f 141 208 209
f 209 208 210
f 209 210 160
f 160 210 211
f 160 211 161
f 142 212 143
f 143 212 213
f 143 213 214
f 215 166 143
f 143 166 165
f 143 165 168
f 114 216 115
f 115 216 217
f 115 217 218
f 187 151 219
f 219 151 115
f 219 115 220
f 215 143 221
f 221 143 214
f 221 214 200
f 200 214 222
f 200 222 195
f 220 115 223
f 223 115 218
f 223 218 120
f 120 218 224
f 120 224 118
f 68 154 173
f 68 173 69
f 69 173 171
f 69 171 71
f 71 171 170
f 71 170 73
f 73 170 158
f 73 158 74
f 74 158 156
f 74 156 31
f 31 156 155
f 31 155 33
f 33 155 139
f 33 139 35
f 35 139 137
f 35 137 40
f 40 137 135
f 40 135 41
f 41 135 164
f 41 164 43
f 43 164 163
f 43 163 63
f 63 163 161
f 63 161 64
f 64 161 211
f 64 211 66
f 66 211 210
f 66 210 67
f 67 210 208
f 67 208 61
f 61 208 207
f 61 207 59
f 59 207 143
f 59 143 29
f 24 29 176
f 176 29 143
f 24 176 204
f 24 204 52
f 52 204 202
f 52 202 53
f 53 202 201
f 53 201 55
f 55 201 180
f 55 180 56
f 56 180 178
f 56 178 16
f 16 178 177
f 16 177 18
f 18 177 149
f 18 149 20
f 20 149 147
f 20 147 21
f 21 147 145
f 21 145 2
f 2 145 144
f 2 144 4
f 4 144 132
f 4 132 98
f 98 132 130
f 98 130 99
f 99 130 186
f 99 186 101
f 101 186 185
f 101 185 102
f 102 185 183
f 102 183 96
f 96 183 182
f 96 182 94
f 94 182 115
f 94 115 77
f 68 77 154
f 154 77 115
f 36 136 34
f 34 136 138
f 34 138 32
f 32 138 140
f 32 140 30
f 30 140 157
f 30 157 72
f 72 157 159
f 72 159 70
f 70 159 172
f 70 172 75
f 75 172 174
f 75 174 76
f 76 174 175
f 76 175 78
f 78 175 153
f 78 153 79
f 79 153 152
f 79 152 80
f 80 152 151
f 80 151 47
f 47 151 191
f 47 191 88
f 88 191 193
f 88 193 49
f 49 193 195
f 49 195 26
f 26 195 222
f 26 222 27
f 27 222 214
f 27 214 28
f 28 214 213
f 28 213 57
f 57 213 212
f 57 212 58
f 58 212 142
f 58 142 60
f 60 142 141
f 60 141 62
f 62 141 209
f 62 209 65
f 65 209 160
f 65 160 44
f 44 160 162
f 44 162 42
f 42 162 134
f 42 134 36
f 36 134 136
f 37 126 38
f 38 126 118
f 38 118 109
f 109 118 224
f 109 224 110
f 110 224 218
f 110 218 111
f 111 218 217
f 111 217 112
f 112 217 216
f 112 216 93
f 93 216 114
f 93 114 95
f 95 114 113
f 95 113 97
f 97 113 184
f 97 184 100
f 100 184 129
f 100 129 5
f 5 129 131
f 5 131 3
f 3 131 133
f 3 133 1
f 1 133 146
f 1 146 19
f 19 146 148
f 19 148 17
f 17 148 150
f 17 150 15
f 15 150 179
f 15 179 54
f 54 179 181
f 54 181 22
f 22 181 203
f 22 203 23
f 23 203 205
f 23 205 25
f 25 205 206
f 25 206 81
f 81 206 169
f 81 169 14
f 14 169 168
f 14 168 12
f 12 168 165
f 12 165 8
f 8 165 123
f 8 123 37
f 37 123 126
f 220 103 219
f 219 103 85
f 219 85 187
f 187 85 92
f 187 92 188
f 188 92 91
f 188 91 189
f 189 91 46
f 189 46 190
f 190 46 45
f 190 45 192
f 192 45 90
f 192 90 194
f 194 90 89
f 194 89 196
f 196 89 87
f 196 87 197
f 197 87 86
f 197 86 198
f 198 86 48
f 198 48 199
f 199 48 50
f 199 50 200
f 200 50 51
f 200 51 221
f 221 51 108
f 220 223 103
f 103 223 104
f 215 107 166
f 166 107 106
f 166 106 167
f 167 106 105
f 167 105 121
f 121 105 84
f 121 84 122
f 122 84 83
f 122 83 124
f 124 83 82
f 124 82 125
f 125 82 13
f 125 13 127
f 127 13 11
f 127 11 128
f 128 11 10
f 128 10 116
f 116 10 9
f 116 9 117
f 117 9 7
f 117 7 119
f 119 7 6
f 119 6 120
f 120 6 39
f 120 39 223
f 223 39 104
f 215 221 107
f 107 221 108
f 225 226 227
f 227 226 228
f 228 229 227
f 227 229 230
f 227 230 231
f 231 230 232
f 231 232 233
f 233 232 234
f 233 234 235
f 235 234 236
f 237 238 239
f 239 238 240
f 239 240 241
f 242 243 244
f 244 243 245
f 244 245 246
f 247 248 249
f 249 248 250
f 251 249 252
f 252 249 250
f 252 250 234
f 234 250 253
f 234 253 236
f 251 254 249
f 249 254 255
f 249 255 256
f 257 258 249
f 249 258 259
f 249 259 260
f 259 261 260
f 260 261 262
f 260 262 263
f 263 262 264
f 263 264 265
f 265 264 266
f 267 268 269
f 269 268 270
f 245 271 246
f 246 271 272
f 246 272 273
f 273 272 274
f 273 274 275
f 275 274 276
f 275 276 277
f 249 278 247
f 247 278 279
f 247 279 280
f 280 279 281
f 280 281 242
f 242 281 282
f 242 282 243
f 256 283 249
f 249 283 270
f 249 270 257
f 257 270 268
f 284 285 286
f 286 285 287
f 286 287 266
f 266 287 288
f 266 288 265
f 289 290 291
f 291 290 292
f 291 292 293
f 294 295 291
f 291 295 296
f 291 296 297
f 298 299 300
f 300 299 301
f 300 301 302
f 302 301 297
f 302 297 303
f 303 297 296
f 276 304 277
f 277 304 305
f 277 305 306
f 306 305 307
f 306 307 298
f 298 307 308
f 298 308 299
f 240 309 241
f 241 309 310
f 241 310 311
f 311 310 312
f 311 312 313
f 313 312 314
f 313 314 284
f 284 314 315
f 284 315 285
f 316 317 291
f 291 318 316
f 316 318 319
f 316 319 320
f 320 319 321
f 320 321 237
f 237 321 322
f 237 322 238
f 317 323 291
f 291 323 324
f 291 324 289
f 289 324 325
f 289 325 326
f 326 325 327
f 325 328 327
f 327 328 329
f 327 329 330
f 330 329 331
f 330 331 332
f 332 331 268
f 332 268 333
f 333 268 267
f 293 334 291
f 291 334 225
f 291 225 294
f 294 225 227
f 335 336 337
f 338 339 340
f 340 339 341
f 340 341 342
f 343 344 345
f 345 344 346
f 345 346 337
f 337 346 347
f 337 347 335
f 348 349 350
f 350 349 351
f 350 351 352
f 352 351 353
f 354 355 356
f 356 355 357
f 356 357 358
f 358 357 359
f 358 359 360
f 350 361 348
f 348 361 362
f 348 362 363
f 363 362 364
f 363 364 354
f 354 364 365
f 354 365 355
f 366 367 368
f 369 370 371
f 371 370 372
f 371 372 373
f 374 375 376
f 375 377 376
f 376 377 378
f 376 378 344
f 341 379 342
f 342 379 380
f 342 380 381
f 381 380 382
f 381 382 383
f 383 382 376
f 383 376 384
f 366 368 385
f 385 368 386
f 385 386 387
f 388 389 390
f 352 391 392
f 392 391 393
f 392 393 394
f 394 393 395
f 372 396 373
f 373 396 397
f 373 397 398
f 398 397 399
f 398 399 395
f 395 399 400
f 395 400 394
f 343 401 344
f 344 401 402
f 344 402 376
f 376 402 403
f 376 403 384
f 359 404 360
f 360 404 405
f 360 405 406
f 406 405 407
f 406 407 338
f 338 407 408
f 338 408 339
f 409 410 352
f 352 410 367
f 411 412 413
f 413 412 414
f 413 414 415
f 415 414 416
f 415 416 369
f 369 416 417
f 369 417 370
f 418 419 420
f 420 419 421
f 420 421 376
f 376 421 422
f 336 423 337
f 337 423 409
f 337 409 424
f 424 409 352
f 424 352 425
f 425 352 353
f 366 426 367
f 367 426 427
f 367 427 352
f 352 427 428
f 352 428 391
f 420 429 418
f 418 429 430
f 418 430 431
f 431 430 432
f 431 432 411
f 411 432 433
f 411 433 412
f 434 435 376
f 376 435 436
f 376 436 374
f 387 437 385
f 385 437 438
f 385 438 439
f 439 438 440
f 439 440 388
f 388 440 441
f 388 441 389
f 390 442 388
f 388 442 434
f 388 434 443
f 443 434 376
f 443 376 444
f 444 376 422
f 291 376 382
f 291 382 318
f 318 382 380
f 318 380 319
f 319 380 379
f 319 379 321
f 321 379 341
f 321 341 322
f 322 341 339
f 322 339 238
f 238 339 408
f 238 408 240
f 240 408 407
f 240 407 309
f 309 407 405
f 309 405 310
f 310 405 404
f 310 404 312
f 312 404 359
f 312 359 314
f 314 359 357
f 314 357 315
f 315 357 355
f 315 355 285
f 285 355 365
f 285 365 287
f 287 365 364
f 287 364 288
f 288 364 362
f 288 362 265
f 265 362 361
f 265 361 263
f 263 361 350
f 263 350 260
f 249 260 352
f 352 260 350
f 249 352 392
f 249 392 278
f 278 392 394
f 278 394 279
f 279 394 400
f 279 400 281
f 281 400 399
f 281 399 282
f 282 399 397
f 282 397 243
f 243 397 396
f 243 396 245
f 245 396 372
f 245 372 271
f 271 372 370
f 271 370 272
f 272 370 417
f 272 417 274
f 274 417 416
f 274 416 276
f 276 416 414
f 276 414 304
f 304 414 412
f 304 412 305
f 305 412 433
f 305 433 307
f 307 433 432
f 307 432 308
f 308 432 430
f 308 430 299
f 299 430 429
f 299 429 301
f 301 429 420
f 301 420 297
f 291 297 376
f 376 297 420
f 311 360 241
f 241 360 406
f 241 406 239
f 239 406 338
f 239 338 237
f 237 338 340
f 237 340 320
f 320 340 342
f 320 342 316
f 316 342 381
f 316 381 317
f 317 381 383
f 317 383 323
f 323 383 384
f 323 384 324
f 324 384 403
f 324 403 325
f 325 403 402
f 325 402 328
f 328 402 401
f 328 401 329
f 329 401 343
f 329 343 331
f 331 343 345
f 331 345 268
f 268 345 337
f 268 337 257
f 257 337 424
f 257 424 258
f 258 424 425
f 258 425 259
f 259 425 353
f 259 353 261
f 261 353 351
f 261 351 262
f 262 351 349
f 262 349 264
f 264 349 348
f 264 348 266
f 266 348 363
f 266 363 286
f 286 363 354
f 286 354 284
f 284 354 356
f 284 356 313
f 313 356 358
f 313 358 311
f 311 358 360
f 231 439 227
f 227 439 388
f 227 388 294
f 294 388 443
f 294 443 295
f 295 443 444
f 295 444 296
f 296 444 422
f 296 422 303
f 303 422 421
f 303 421 302
f 302 421 419
f 302 419 300
f 300 419 418
f 300 418 298
f 298 418 431
f 298 431 306
f 306 431 411
f 306 411 277
f 277 411 413
f 277 413 275
f 275 413 415
f 275 415 273
f 273 415 369
f 273 369 246
f 246 369 371
f 246 371 244
f 244 371 373
f 244 373 242
f 242 373 398
f 242 398 280
f 280 398 395
f 280 395 247
f 247 395 393
f 247 393 248
f 248 393 391
f 248 391 250
f 250 391 428
f 250 428 253
f 253 428 427
f 253 427 236
f 236 427 426
f 236 426 235
f 235 426 366
f 235 366 233
f 233 366 385
f 233 385 231
f 231 385 439
f 436 293 374
f 374 293 292
f 374 292 375
f 375 292 290
f 375 290 377
f 377 290 289
f 377 289 378
f 378 289 326
f 378 326 344
f 344 326 327
f 344 327 346
f 346 327 330
f 346 330 347
f 347 330 332
f 347 332 335
f 335 332 333
f 335 333 336
f 336 333 267
f 336 267 423
f 423 267 269
f 423 269 409
f 409 269 270
f 409 270 410
f 410 270 283
f 436 435 293
f 293 435 334
f 367 256 368
f 368 256 255
f 368 255 386
f 386 255 254
f 386 254 387
f 387 254 251
f 387 251 437
f 437 251 252
f 437 252 438
f 438 252 234
f 438 234 440
f 440 234 232
f 440 232 441
f 441 232 230
f 441 230 389
f 389 230 229
f 389 229 390
f 390 229 228
f 390 228 442
f 442 228 226
f 442 226 434
f 434 226 225
f 434 225 435
f 435 225 334
f 367 410 256
f 256 410 283
