v 0.00220883863 0.0493022448 -0.0017651942
v 0.00177873151 0.0488720184 -0.000760259888
v 0.0125660993 0.0596593863 0.00692707036
v -0.0141612194 0.0329320675 -0.00373190906
v -0.0137309931 0.0333622938 -0.00473684337
v -0.0245183609 0.022574926 -0.0124241736
v -0.0144100092 0.0326832777 -0.00142926242
v -0.0143927239 0.0327005631 -0.00260371234
v -0.0218421124 0.0252511746 -0.00549453761
v -0.0229058169 0.0241874701 -0.00593120124
v -0.027431836 0.019661451 -0.00241059329
v -0.032134404 0.0149588829 -0.00295788314
v -0.027740588 0.0193526989 -0.000906291268
v -0.0323672198 0.0147260672 -0.000804009697
v -0.0277635954 0.0193296915 0.00065964196
v -0.0195941828 0.0274992233 -0.00218063857
v -0.012525668 0.034567619 0.00219684575
v -0.0132362746 0.0338570124 0.00158852074
v 0.00894237535 0.0560356623 -0.000813784859
v 0.00185907857 0.0489523655 -0.00623792674
v 0.00988985078 0.0569831377 -2.68485306e-06
v 0.00225938337 0.0493526703 -0.00520867374
v 0.00245774762 0.0495510346 -0.00406784084
v 0.00244046228 0.0495337492 -0.00289339092
v 0.0109534361 0.0580468422 0.000433978775
v -0.0138113402 0.0332819468 0.000740823486
v -0.014211645 0.032881642 -0.00028842952
v -0.0201278828 0.0269654041 -0.00355309512
v -0.0208946369 0.02619865 -0.0046833184
v -0.0193297766 0.0277636295 -0.000659647248
v -0.0193526648 0.0277406222 0.00090628598
v -0.0117279194 0.0353653675 0.00252431367
v -0.0323319338 0.0147613531 0.00137430165
v -0.0320297383 0.0150636679 0.00351088975
v -0.0274991892 0.0195940977 0.00218063329
v -0.031469693 0.0156235939 0.00554078553
v -0.02696537 0.0201279169 0.00355308984
v -0.0306690834 0.0164243227 0.00740223859
v -0.0261986159 0.0208946711 0.00468331311
v -0.0260590218 0.0210342652 -0.00483483341
v -0.0299380921 0.0171551949 -0.00863415267
v -0.0268583201 0.0202349669 -0.00375050571
v -0.0309011839 0.016192103 -0.00693339374
v -0.0316407583 0.0154525286 -0.00502199199
v -0.024013152 0.0230802542 -0.00596362617
v -0.0260292195 0.0210640675 -0.0119968083
v -0.0250886582 0.0220046288 -0.00558966663
v -0.0274644993 0.0196287876 -0.011204901
v -0.0287808083 0.0183124787 -0.010072532
v 0.0081756212 0.0552689081 -0.00194400813
v 0.007641802 0.0547352081 -0.00331646468
v 0.00128401296 0.0483772999 -0.007085624
v 0.0073773958 0.0544708019 -0.00483745601
v 0.000573406385 0.0476666933 -0.00769394901
v 0.00740040319 0.0544936901 -0.00640350845
v -0.000224342181 0.0468689448 -0.00802153613
v -0.0225748919 0.0245183951 0.0124241683
v -0.0230802201 0.0240130669 0.00596362088
v -0.0241151951 0.0229780918 0.012474117
v -0.0241875551 0.0229057318 0.00593119595
v -0.0296518706 0.0174414164 0.00903886292
v -0.0284492872 0.0186439997 0.0104008291
v -0.0252511404 0.0218421465 0.00549453233
v -0.0270976923 0.0199955946 0.0114468906
v -0.025638213 0.0214550739 0.0121449802
v -0.0131316088 0.0339616781 -0.00555008914
v -0.0124038361 0.0346895701 -0.00611621406
v -0.0115971468 0.0354961401 -0.00639671352
v 0.0011793472 0.0482726341 5.29858852e-05
v 0.000451455282 0.0475447422 0.000619110801
v -0.000355114772 0.0467381722 0.00089961026
v -0.0196614168 0.0274318701 0.002410588
v -0.0202350519 0.0268583542 0.00375050042
v -0.021034231 0.0260590559 0.00483482812
v -0.0220047138 0.0250885731 0.00558966134
v -0.0010548733 0.0460385328 -0.00804585483
v 0.00770915525 0.0548024422 -0.00790769126
v 0.0120607712 0.0591540581 0.000466522911
v 0.0140769579 0.0611702448 0.00649970505
v 0.0131362774 0.0602296835 9.25633693e-05
v 0.0155122377 0.0626055247 0.00570779774
v 0.0141067602 0.0612000471 -0.000662269852
v -0.0108975075 0.0361958986 0.00254875157
v 0.00828267114 0.0553760773 -0.00924760368
v 0.00908196943 0.0561752564 -0.0103319314
v 0.0106226303 0.0577159172 -0.0179213908
v 0.010052333 0.0571457392 -0.0110867646
v 0.0111279585 0.0582212454 -0.0114607241
v 0.0121629335 0.0592562205 -0.0179712203
v 0.0122351743 0.0593285805 -0.0114282992
v 0.0158113338 0.0629046208 -0.00615674522
v 0.0200773575 0.0671707636 -0.009007993
v 0.0155468084 0.0626402146 -0.00767785575
v 0.0195174314 0.0666107184 -0.0110378888
v 0.0150131084 0.0621063954 -0.00905019309
v 0.0187167026 0.0658099896 -0.0128993418
v 0.0142463543 0.0613396412 -0.0101805356
v 0.0157883264 0.0628816134 -0.00459081199
v 0.020414839 0.0675082451 -0.00469309356
v 0.020379553 0.0674729592 -0.00687140491
v 0.0168285467 0.0639218336 0.0045754287
v 0.0179858305 0.0650791174 0.00313704942
v 0.0149059393 0.0619993454 -0.00174659755
v 0.0189489223 0.0660422093 0.00143629048
v 0.0154795744 0.0625728613 -0.00308662917
v 0.0196884968 0.0667817837 -0.000475230477
v 0.0201821424 0.0672754294 -0.00253922012
v 0.017699609 0.0647928959 -0.0145359662
v 0.0164970257 0.0635903126 -0.0158980515
v 0.0132988788 0.0603921658 -0.0109916356
v 0.0151454307 0.0622387177 -0.0169439938
v 0.0136859514 0.0607792383 -0.0176420834
v 0.0119518139 0.0505599028 -0.00790769126
v 0.0116430618 0.0502510315 -0.00640350845
v 0.00610173719 0.0447097069 -0.00623792674
v 0.00552667157 0.0441346413 -0.007085624
v 0.004816065 0.0434240347 -0.00769394901
v 0.0148652889 0.0534732586 -0.0179213908
v 0.016477833 0.0550859219 -0.0114282992
v 0.0153704979 0.0539785868 -0.0114607241
v 0.01792861 0.0565365797 -0.0176420834
v 0.00602139013 0.0446293598 -0.000760259888
v 0.0168087579 0.0554168469 0.00692707036
v 0.00542200582 0.0440299755 5.29858852e-05
v 0.0046941139 0.0433022028 0.000619110801
v 0.0200538732 0.0586619621 -0.00615674522
v 0.0246574976 0.0632655865 -0.00469309356
v 0.020030985 0.0586389548 -0.00459081199
v 0.024424801 0.0630327707 -0.00253922012
v 0.019722233 0.0583302027 -0.00308662917
v 0.0239311554 0.0625391251 -0.000475230477
v 0.0191485979 0.0577566868 -0.00174659755
v 0.019789467 0.0583975559 -0.00767785575
v 0.0243200161 0.062928105 -0.009007993
v 0.0246222116 0.0632303005 -0.00687140491
v 0.0175415375 0.0561495072 -0.0109916356
v 0.0164055921 0.0550135618 -0.0179712203
v -0.0154188774 0.0231892115 0.002410588
v -0.0151100062 0.0234979635 0.00090628598
v -0.00888895018 0.0297190195 -0.00555008914
v 0.0141325094 0.0527404791 -2.68485306e-06
v 0.013185034 0.0517930037 -0.000813784859
v 0.0124182798 0.0510262495 -0.00194400813
v 0.00645149724 0.0450595862 -0.0017651942
v 0.0118844606 0.0504925495 -0.00331646468
v 0.00668312089 0.0452910906 -0.00289339092
v 0.0116200544 0.0502281433 -0.00483745601
v 0.00670028703 0.0453083759 -0.00406784084
v 0.00650204198 0.0451100117 -0.00520867374
v 0.0193880893 0.0579960591 -0.0169439938
v 0.0207396843 0.059347654 -0.0158980515
v 0.0184890129 0.0570969826 -0.0101805356
v 0.0219422676 0.0605502373 -0.0145359662
v 0.019255767 0.0578637367 -0.00905019309
v 0.0229593612 0.0615674502 -0.0128993418
v 0.02376009 0.0623680597 -0.0110378888
v 0.0142949917 0.0529030806 -0.0110867646
v 0.013324628 0.0519325977 -0.0103319314
v 0.0125253298 0.0511334187 -0.00924760368
v 0.00401831643 0.0426262861 -0.00802153613
v 0.00318778531 0.0417958742 -0.00804585483
v -0.0202758215 0.0183322674 -0.0124241736
v -0.00735448821 0.0312534815 -0.00639671352
v -0.00816117747 0.0304469114 -0.00611621406
v -0.015087118 0.0235209709 -0.000659647248
v -0.0153515242 0.0232565647 -0.00218063857
v 0.0151960947 0.0538041836 0.000433978775
v 0.0163034298 0.0549115187 0.000466522911
v 0.0183194973 0.0569275862 0.00649970505
v 0.017378936 0.0559870249 9.25633693e-05
v -0.0101501845 0.0284579045 -0.00260371234
v -0.0101673506 0.0284406191 -0.00142926242
v -0.0167915724 0.0218163973 0.00483482812
v 0.0231915809 0.0617995506 0.00143629048
v 0.0222284891 0.0608364588 0.00313704942
v 0.0183494188 0.0569573885 -0.000662269852
v 0.0210712053 0.059679175 0.0045754287
v 0.0197548963 0.058362866 0.00570779774
v -0.0175994538 0.0210085159 -0.00549453761
v -0.0166519783 0.0219559914 -0.0046833184
v -0.0158852242 0.0227227455 -0.00355309512
v -0.0186631583 0.0199449307 -0.00593120124
v -0.0197704933 0.0188375956 -0.00596362617
v -0.0217865608 0.0168215281 -0.0119968083
v -0.0208459996 0.0177620894 -0.00558966663
v -0.0232219599 0.015386129 -0.011204901
v -0.0159923933 0.0226156956 0.00375050042
v -0.00948833449 0.0291196352 -0.00473684337
v -0.00991856082 0.0286895281 -0.00373190906
v -0.0245382689 0.01406982 -0.010072532
v -0.0218164824 0.0167916065 -0.00483483341
v -0.0256954335 0.0129125363 -0.00863415267
v -0.0226156615 0.0159924275 -0.00375050571
v -0.0266585253 0.0119494444 -0.00693339374
v -0.0273980997 0.01120987 -0.00502199199
v -0.0231891773 0.0154187924 -0.00241059329
v -0.0278918646 0.0107162243 -0.00295788314
v -0.0234979294 0.0151100403 -0.000906291268
v -0.0281245611 0.0104835278 -0.000804009697
v -0.0280892752 0.0105188137 0.00137430165
v -0.0235209368 0.0150871521 0.00065964196
v -0.0277870796 0.0108210093 0.00351088975
v -0.0232565306 0.0153515583 0.00218063329
v -0.0272270344 0.0113809353 0.00554078553
v -0.0264264248 0.0121816641 0.00740223859
v -0.0227227114 0.0158852583 0.00355308984
v -0.0254093312 0.0131987578 0.00903886292
v -0.0219559572 0.0166520125 0.00468331311
v -0.0242066286 0.0144013411 0.0104008291
v -0.0228550337 0.015752936 0.0114468906
v -0.0210084818 0.0175994879 0.00549453233
v -0.0213955544 0.0172124153 0.0121449802
v -0.0199448965 0.0186631924 0.00593119595
v -0.0198725365 0.0187354332 0.012474117
v -0.0188375614 0.0197704083 0.00596362088
v -0.0183322333 0.0202757364 0.0124241683
v -0.0177620552 0.0208460337 0.00558966134
v -0.00996898635 0.0286389834 -0.00028842952
v -0.00956868155 0.0290392882 0.000740823486
v -0.00899361594 0.0296143538 0.00158852074
v -0.00828300936 0.0303249603 0.00219684575
v -0.0074852608 0.0311227089 0.00252431367
v -0.00665484889 0.03195324 0.00254875157
v 0.00388742463 0.0424955136 0.00089961026
v 0.0193526842 -0.0277405733 -0.000906291268
v 0.0149588682 -0.0321345085 -0.00295788314
v 0.0147261717 -0.032367205 -0.000804009697
v 0.0193296768 -0.0277635807 0.00065964196
v 0.0154525139 -0.0316407436 -0.00502199199
v 0.0196614362 -0.0274318212 -0.00241059329
v 0.0161920883 -0.0309011692 -0.00693339374
v 0.0202350713 -0.0268583053 -0.00375050571
v 0.0171551801 -0.0299380773 -0.00863415267
v 0.0210342504 -0.0260591263 -0.00483483341
v 0.0183124639 -0.0287809128 -0.010072532
v 0.032932172 -0.0141612047 -0.00373190906
v 0.0269653894 -0.0201278681 -0.00355309512
v 0.0274992086 -0.0195941681 -0.00218063857
v 0.0274318554 -0.0196615213 0.002410588
v 0.0338569977 -0.0132362598 0.00158852074
v 0.033281932 -0.0138113254 0.000740823486
v 0.0196287729 -0.0274646038 -0.011204901
v 0.0220047333 -0.0250886434 -0.00558966663
v 0.0230802395 -0.0240131372 -0.00596362617
v 0.0147614576 -0.0323319191 0.00137430165
v 0.0150636532 -0.0320297235 0.00351088975
v 0.0195942022 -0.0274991745 0.00218063329
v 0.0156235792 -0.0314696783 0.00554078553
v 0.0201279022 -0.0269653553 0.00355308984
v 0.0277406074 -0.0193526501 0.00090628598
v 0.0328816272 -0.0142116302 -0.00028842952
v 0.0277636148 -0.0193297619 -0.000659647248
v 0.032683263 -0.0144099945 -0.00142926242
v 0.0327005483 -0.0143928284 -0.00260371234
v 0.0333622791 -0.0137309784 -0.00473684337
v 0.0225749113 -0.0245184654 -0.0124241736
v 0.0210640527 -0.0260292047 -0.0119968083
v 0.0544936754 0.00740041792 -0.00640350845
v 0.04686893 -0.000224327452 -0.00802153613
v 0.0476666786 0.000573421114 -0.00769394901
v 0.0548024275 0.00770916998 -0.00790769126
v 0.0553760626 0.00828268587 -0.00924760368
v 0.0561752416 0.00908198416 -0.0103319314
v 0.0577159025 0.010622645 -0.0179213908
v 0.0268583395 -0.0202350372 0.00375050042
v 0.0260590412 -0.0210342163 0.00483482812
v 0.0245183803 -0.0225748771 0.0124241683
v 0.0241875746 -0.0229058021 -0.00593120124
v 0.0252511598 -0.0218420976 -0.00549453761
v 0.0261986353 -0.0208946222 -0.0046833184
v 0.0544707872 0.00737741052 -0.00483745601
v 0.0483772852 0.00128402769 -0.007085624
v 0.0489523508 0.0018590933 -0.00623792674
v 0.0339616634 -0.0131315941 -0.00555008914
v 0.0346895553 -0.0124038214 -0.00611621406
v 0.0354961254 -0.0115971321 -0.00639671352
v 0.062904606 0.0158112293 -0.00615674522
v 0.0671707489 0.0200773722 -0.009007993
v 0.0626401998 0.0155468231 -0.00767785575
v 0.0666107036 0.0195174462 -0.0110378888
v 0.0621063806 0.0150131231 -0.00905019309
v 0.0628815986 0.0157883412 -0.00459081199
v 0.0675082304 0.0204148537 -0.00469309356
v 0.0674729444 0.0203795677 -0.00687140491
v 0.0612000324 0.0141067749 -0.000662269852
v 0.0650791027 0.0179858452 0.00313704942
v 0.0619993307 0.014905954 -0.00174659755
v 0.0660421945 0.0189489371 0.00143629048
v 0.0625728466 0.0154795891 -0.00308662917
v 0.066781769 0.0196885115 -0.000475230477
v 0.0672754146 0.0201821572 -0.00253922012
v 0.0560356476 0.00894239008 -0.000813784859
v 0.0495337345 0.00244047701 -0.00289339092
v 0.056983123 0.00988986551 -2.68485306e-06
v 0.0580468275 0.0109534508 0.000433978775
v 0.0482726194 0.00117936193 5.29858852e-05
v 0.0596594908 0.0125661141 0.00692707036
v 0.0488720037 0.00177874624 -0.000760259888
v 0.04930223 0.00220885336 -0.0017651942
v 0.0345676042 -0.0125256532 0.00219684575
v 0.0353653528 -0.0117279047 0.00252431367
v 0.0250886776 -0.0220046991 0.00558966134
v 0.0240130522 -0.0230802053 0.00596362088
v 0.0229780771 -0.0241151804 0.012474117
v 0.0229058363 -0.0241875404 0.00593119595
v 0.016424308 -0.0306690687 0.00740223859
v 0.0174414016 -0.0296518558 0.00903886292
v 0.0208946563 -0.0261986011 0.00468331311
v 0.018643985 -0.0284492725 0.0104008291
v 0.0218421318 -0.0252511257 0.00549453233
v 0.0199955799 -0.0270976776 0.0114468906
v 0.0214550592 -0.0256381983 0.0121449802
v 0.0460385181 -0.00105485857 -0.00804585483
v 0.065810094 0.0187167174 -0.0128993418
v 0.0647928812 0.0176996237 -0.0145359662
v 0.0613396265 0.014246369 -0.0101805356
v 0.0635902979 0.0164970404 -0.0158980515
v 0.060392151 0.0132988936 -0.0109916356
v 0.0552688934 0.00817563593 -0.00194400813
v 0.0547351934 0.00764181673 -0.00331646468
v 0.0495510198 0.00245764314 -0.00406784084
v 0.0493526556 0.0022593981 -0.00520867374
v 0.0591541626 0.0120607859 0.000466522911
v 0.0611702301 0.0140768534 0.00649970505
v 0.0602296688 0.0131362921 9.25633693e-05
v 0.0626055099 0.0155122524 0.00570779774
v 0.0639218189 0.0168285614 0.0045754287
v 0.0571457245 0.0100523478 -0.0110867646
v 0.0582212307 0.011127854 -0.0114607241
v 0.0592562057 0.0121629482 -0.0179712203
v 0.0593285658 0.0122351891 -0.0114282992
v 0.0607792236 0.0136859661 -0.0176420834
v 0.0622387029 0.0151454455 -0.0169439938
v 0.0475448467 0.000451470011 0.000619110801
v 0.0467381574 -0.000355219252 0.00089961026
v 0.0361958839 -0.0108974928 0.00254875157
v 0.0596187212 0.00404002725 -0.00924760368
v 0.0535953142 -0.00198326052 -0.00520867374
v 0.0604179003 0.00483932554 -0.0103319314
v 0.0613883831 0.00580968916 -0.0110867646
v 0.0531950094 -0.00238356531 -0.00623792674
v 0.0526199438 -0.00295863093 -0.007085624
v 0.0619585611 0.0063799864 -0.0179213908
v 0.0671472646 0.0115686899 -0.00615674522
v 0.0668828584 0.0113042837 -0.00767785575
v 0.0714134075 0.0158347136 -0.009007993
v 0.0320062734 -0.0235724205 -0.000659647248
v 0.031741748 -0.0238368267 -0.00218063857
v 0.038204322 -0.0173742527 -0.00555008914
v 0.0389322139 -0.01664648 -0.00611621406
v 0.0590450861 0.00346651136 -0.00790769126
v 0.058736334 0.0031577593 -0.00640350845
v 0.0537936784 -0.00178489626 -0.00406784084
v 0.0587134458 0.00313475191 -0.00483745601
v 0.0537763931 -0.00180218161 -0.00289339092
v 0.058977852 0.00339915811 -0.00331646468
v 0.0535448887 -0.00203380526 -0.0017651942
v 0.071715603 0.0161370283 -0.00687140491
v 0.071750889 0.0161721951 -0.00469309356
v 0.0671242573 0.0115456825 -0.00459081199
v 0.0715180732 0.0159394985 -0.00253922012
v 0.0668155052 0.0112369305 -0.00308662917
v 0.0710244276 0.0154458529 -0.000475230477
v 0.0662419893 0.0106634146 -0.00174659755
v 0.036943207 -0.0186353678 -0.00260371234
v 0.0303016998 -0.0252768749 0.00483482812
v 0.0311008789 -0.0244776958 0.00375050042
v 0.031208048 -0.0243705267 -0.00355309512
v 0.0304412939 -0.0251372808 -0.0046833184
v 0.0294938184 -0.0260847563 -0.00549453761
v 0.0268175699 -0.0287610048 -0.0124241736
v 0.028430114 -0.0271484608 -0.00593120124
v 0.0273228981 -0.0282557958 -0.00596362617
v 0.0253067114 -0.0302718633 -0.0119968083
v 0.0262472727 -0.0293313021 -0.00558966663
v 0.059511552 0.00393297731 -0.00194400813
v 0.0602783062 0.00469973146 -0.000813784859
v 0.0612257816 0.0056472069 -2.68485306e-06
v 0.0622894861 0.00671079218 0.000433978775
v 0.063396702 0.00781812727 0.000466522911
v 0.0668481685 0.0112695938 0.00570779774
v 0.0644723274 0.00889363348 9.25633693e-05
v 0.0681644775 0.0125859028 0.0045754287
v 0.065442691 0.0098641163 -0.000662269852
v 0.0693217613 0.0137431866 0.00313704942
v 0.0702848531 0.0147062784 0.00143629048
v 0.0624638893 0.00688531458 -0.0114607241
v 0.0634988643 0.00792028963 -0.0179712203
v 0.0635712244 0.00799253046 -0.0114282992
v 0.0650218822 0.00944330751 -0.0176420834
v 0.0646348097 0.00905623495 -0.0109916356
v 0.0664813616 0.0109027868 -0.0169439938
v 0.0655822851 0.0100037104 -0.0101805356
v 0.0244776108 -0.031100964 -0.00375050571
v 0.0213978388 -0.034180736 -0.00863415267
v 0.025276909 -0.0303016657 -0.00483483341
v 0.0225551225 -0.0330234522 -0.010072532
v 0.0238714315 -0.0317071432 -0.011204901
v 0.0678329565 0.0122543818 -0.0158980515
v 0.0690355398 0.0134569651 -0.0145359662
v 0.0663490392 0.0107704645 -0.00905019309
v 0.0700526335 0.0144740587 -0.0128993418
v 0.0708533622 0.0152747875 -0.0110378888
v 0.0519093372 -0.0036692375 -0.00769394901
v 0.0511115886 -0.00446698607 -0.00802153613
v 0.0502811767 -0.00529751719 -0.00804585483
v 0.0376049377 -0.017973637 -0.00473684337
v 0.0371747114 -0.0184038633 -0.00373190906
v 0.031983266 -0.0235953087 0.00090628598
v 0.031674514 -0.0239040607 0.002410588
v 0.0235723354 -0.0320062393 0.00065964196
v 0.0238367416 -0.0317418331 0.00218063329
v 0.0193063118 -0.0362723821 0.00351088975
v 0.019003997 -0.0365745777 0.00137430165
v 0.0189687111 -0.0366098636 -0.000804009697
v 0.0235953428 -0.0319832319 -0.000906291268
v 0.0192015268 -0.0363770479 -0.00295788314
v 0.0239040949 -0.0316744798 -0.00241059329
v 0.0196951725 -0.0358834022 -0.00502199199
v 0.0204347469 -0.0351438278 -0.00693339374
v 0.0369259216 -0.0186526531 -0.00142926242
v 0.0371242859 -0.0184542888 -0.00028842952
v 0.029331217 -0.0262473577 0.00558966134
v 0.039738784 -0.0158397907 -0.00639671352
v 0.025137315 -0.0304412597 0.00468331311
v 0.0216840603 -0.0338945144 0.00903886292
v 0.0243705608 -0.0312080139 0.00355308984
v 0.0206669666 -0.0349116081 0.00740223859
v 0.0198662378 -0.0357123369 0.00554078553
v 0.0375245907 -0.0180539841 0.000740823486
v 0.0380996563 -0.0174789184 0.00158852074
v 0.0287610389 -0.0268175358 0.0124241683
v 0.0388102628 -0.0167683119 0.00219684575
v 0.0517873861 -0.0037911886 0.000619110801
v 0.052515278 -0.00306329668 5.29858852e-05
v 0.0639020302 0.00832345545 0.00692707036
v 0.0531146623 -0.00246391237 -0.000760259888
v 0.0654128887 0.00983431398 0.00649970505
v 0.0282557108 -0.0273228639 0.00596362088
v 0.0272207357 -0.028357839 0.012474117
v 0.0271483757 -0.028430199 0.00593119595
v 0.0256977178 -0.0298808569 0.0121449802
v 0.0260847904 -0.0294937843 0.00549453233
v 0.0242382385 -0.0313403362 0.0114468906
v 0.0228866436 -0.0326919311 0.0104008291
v 0.0396080114 -0.0159705633 0.00252431367
v 0.0404385425 -0.0151401514 0.00254875157
v 0.0509808161 -0.00459775866 0.00089961026
f 1 2 3
f 4 5 6
f 7 8 9
f 9 8 10
f 11 12 13
f 13 12 14
f 13 14 15
f 16 17 18
f 19 20 21
f 21 20 22
f 22 23 21
f 21 23 24
f 21 24 25
f 18 26 16
f 16 26 27
f 16 27 28
f 28 27 7
f 28 7 29
f 29 7 9
f 16 30 17
f 17 30 31
f 17 31 32
f 14 33 15
f 15 33 34
f 15 34 35
f 35 34 36
f 35 36 37
f 37 36 38
f 37 38 39
f 40 41 42
f 42 41 43
f 42 43 11
f 11 43 44
f 11 44 12
f 8 4 10
f 10 4 6
f 10 6 45
f 45 6 46
f 45 46 47
f 47 46 48
f 47 48 40
f 40 48 49
f 40 49 41
f 19 50 20
f 20 50 51
f 20 51 52
f 52 51 53
f 52 53 54
f 54 53 55
f 54 55 56
f 57 58 59
f 59 58 60
f 38 61 39
f 39 61 62
f 39 62 63
f 63 62 64
f 63 64 60
f 60 64 65
f 60 65 59
f 5 66 6
f 6 66 67
f 6 67 68
f 2 69 3
f 3 69 70
f 3 70 71
f 72 73 3
f 3 73 74
f 3 74 57
f 57 74 75
f 57 75 58
f 68 76 6
f 6 76 56
f 6 56 77
f 77 56 55
f 24 1 25
f 25 1 3
f 25 3 78
f 78 3 79
f 78 79 80
f 80 79 81
f 80 81 82
f 71 83 3
f 3 83 32
f 3 32 72
f 72 32 31
f 77 84 6
f 6 84 85
f 6 85 86
f 85 87 86
f 86 87 88
f 86 88 89
f 89 88 90
f 91 92 93
f 93 92 94
f 93 94 95
f 95 94 96
f 95 96 97
f 98 99 91
f 91 99 100
f 91 100 92
f 81 101 82
f 82 101 102
f 82 102 103
f 103 102 104
f 103 104 105
f 105 104 106
f 105 106 98
f 98 106 107
f 98 107 99
f 96 108 97
f 97 108 109
f 97 109 110
f 110 109 111
f 110 111 90
f 90 111 112
f 90 112 89
f 113 114 115
f 116 117 118
f 119 120 121
f 122 123 124
f 124 123 125
f 126 127 128
f 128 127 129
f 128 129 130
f 130 129 131
f 130 131 132
f 133 134 126
f 126 134 135
f 126 135 127
f 119 121 136
f 116 118 115
f 115 118 137
f 115 137 121
f 138 139 140
f 141 123 142
f 142 123 122
f 142 122 143
f 143 122 144
f 143 144 145
f 145 144 146
f 145 146 147
f 147 146 148
f 147 148 114
f 114 148 149
f 114 149 115
f 121 150 136
f 136 150 151
f 136 151 152
f 152 151 153
f 152 153 154
f 154 153 155
f 154 155 133
f 133 155 156
f 133 156 134
f 120 157 121
f 121 157 158
f 121 158 115
f 115 158 159
f 115 159 113
f 117 160 118
f 118 160 161
f 118 161 162
f 162 161 163
f 162 163 164
f 139 165 140
f 140 165 166
f 140 166 164
f 141 167 123
f 123 167 168
f 123 168 169
f 169 168 170
f 171 172 173
f 131 174 132
f 132 174 175
f 132 175 176
f 176 175 177
f 176 177 170
f 170 177 178
f 170 178 169
f 179 162 180
f 180 162 164
f 180 164 181
f 181 164 166
f 179 182 162
f 162 182 183
f 162 183 184
f 184 183 185
f 184 185 186
f 138 140 187
f 187 140 188
f 187 188 173
f 173 188 189
f 173 189 171
f 186 185 190
f 190 185 191
f 190 191 192
f 192 191 193
f 192 193 194
f 194 193 195
f 195 193 196
f 195 196 197
f 197 196 198
f 197 198 199
f 199 198 200
f 200 198 201
f 200 201 202
f 202 201 203
f 202 203 204
f 204 203 205
f 205 203 206
f 205 206 207
f 207 206 208
f 207 208 209
f 209 208 210
f 210 208 211
f 210 211 212
f 212 211 213
f 212 213 214
f 214 213 215
f 214 215 216
f 216 215 217
f 216 217 173
f 172 218 173
f 173 218 219
f 173 219 216
f 216 219 220
f 216 220 221
f 221 222 216
f 216 222 223
f 216 223 123
f 123 223 224
f 123 224 125
f 3 123 169
f 3 169 79
f 79 169 178
f 79 178 81
f 81 178 177
f 81 177 101
f 101 177 175
f 101 175 102
f 102 175 174
f 102 174 104
f 104 174 131
f 104 131 106
f 106 131 129
f 106 129 107
f 107 129 127
f 107 127 99
f 99 127 135
f 99 135 100
f 100 135 134
f 100 134 92
f 92 134 156
f 92 156 94
f 94 156 155
f 94 155 96
f 96 155 153
f 96 153 108
f 108 153 151
f 108 151 109
f 109 151 150
f 109 150 111
f 111 150 121
f 111 121 112
f 112 121 137
f 112 137 89
f 89 137 118
f 89 118 86
f 6 86 162
f 162 86 118
f 6 162 184
f 6 184 46
f 46 184 186
f 46 186 48
f 48 186 190
f 48 190 49
f 49 190 192
f 49 192 41
f 41 192 194
f 41 194 43
f 43 194 195
f 43 195 44
f 44 195 197
f 44 197 12
f 12 197 199
f 12 199 14
f 14 199 200
f 14 200 33
f 33 200 202
f 33 202 34
f 34 202 204
f 34 204 36
f 36 204 205
f 36 205 38
f 38 205 207
f 38 207 61
f 61 207 209
f 61 209 62
f 62 209 210
f 62 210 64
f 64 210 212
f 64 212 65
f 65 212 214
f 65 214 59
f 59 214 216
f 59 216 57
f 3 57 123
f 123 57 216
f 91 126 98
f 98 126 128
f 98 128 105
f 105 128 130
f 105 130 103
f 103 130 132
f 103 132 82
f 82 132 176
f 82 176 80
f 80 176 170
f 80 170 78
f 78 170 168
f 78 168 25
f 25 168 167
f 25 167 21
f 21 167 141
f 21 141 19
f 19 141 142
f 19 142 50
f 50 142 143
f 50 143 51
f 51 143 145
f 51 145 53
f 53 145 147
f 53 147 55
f 55 147 114
f 55 114 77
f 77 114 113
f 77 113 84
f 84 113 159
f 84 159 85
f 85 159 158
f 85 158 87
f 87 158 157
f 87 157 88
f 88 157 120
f 88 120 90
f 90 120 119
f 90 119 110
f 110 119 136
f 110 136 97
f 97 136 152
f 97 152 95
f 95 152 154
f 95 154 93
f 93 154 133
f 93 133 91
f 91 133 126
f 30 165 31
f 31 165 139
f 31 139 72
f 72 139 138
f 72 138 73
f 73 138 187
f 73 187 74
f 74 187 173
f 74 173 75
f 75 173 217
f 75 217 58
f 58 217 215
f 58 215 60
f 60 215 213
f 60 213 63
f 63 213 211
f 63 211 39
f 39 211 208
f 39 208 37
f 37 208 206
f 37 206 35
f 35 206 203
f 35 203 15
f 15 203 201
f 15 201 13
f 13 201 198
f 13 198 11
f 11 198 196
f 11 196 42
f 42 196 193
f 42 193 40
f 40 193 191
f 40 191 47
f 47 191 185
f 47 185 45
f 45 185 183
f 45 183 10
f 10 183 182
f 10 182 9
f 9 182 179
f 9 179 29
f 29 179 180
f 29 180 28
f 28 180 181
f 28 181 16
f 16 181 166
f 16 166 30
f 30 166 165
f 224 71 125
f 125 71 70
f 125 70 124
f 124 70 69
f 124 69 122
f 122 69 2
f 122 2 144
f 144 2 1
f 144 1 146
f 146 1 24
f 146 24 148
f 148 24 23
f 148 23 149
f 149 23 22
f 149 22 115
f 115 22 20
f 115 20 116
f 116 20 52
f 116 52 117
f 117 52 54
f 117 54 160
f 160 54 56
f 160 56 161
f 161 56 76
f 224 223 71
f 71 223 83
f 163 68 164
f 164 68 67
f 164 67 140
f 140 67 66
f 140 66 188
f 188 66 5
f 188 5 189
f 189 5 4
f 189 4 171
f 171 4 8
f 171 8 172
f 172 8 7
f 172 7 218
f 218 7 27
f 218 27 219
f 219 27 26
f 219 26 220
f 220 26 18
f 220 18 221
f 221 18 17
f 221 17 222
f 222 17 32
f 222 32 223
f 223 32 83
f 163 161 68
f 68 161 76
f 225 226 227
f 225 227 228
f 226 225 229
f 229 225 230
f 229 230 231
f 231 230 232
f 231 232 233
f 233 232 234
f 233 234 235
f 236 237 238
f 239 240 241
f 235 234 242
f 242 234 243
f 242 243 244
f 227 245 228
f 228 245 246
f 228 246 247
f 247 246 248
f 247 248 249
f 239 241 250
f 250 241 251
f 250 251 252
f 252 251 253
f 252 253 238
f 238 253 254
f 238 254 236
f 255 256 236
f 236 256 257
f 236 257 242
f 258 259 260
f 261 262 256
f 256 262 263
f 256 263 264
f 265 266 267
f 244 268 242
f 242 268 269
f 242 269 236
f 236 269 270
f 236 270 237
f 258 260 271
f 271 260 272
f 271 272 273
f 255 274 256
f 256 274 275
f 256 275 276
f 277 278 279
f 279 278 280
f 279 280 281
f 282 283 277
f 277 283 284
f 277 284 278
f 285 286 287
f 287 286 288
f 287 288 289
f 289 288 290
f 289 290 282
f 282 290 291
f 282 291 283
f 292 293 294
f 294 293 295
f 296 297 298
f 298 297 299
f 239 265 240
f 240 265 267
f 240 267 300
f 300 267 301
f 266 302 267
f 267 302 303
f 267 303 304
f 304 303 305
f 248 306 249
f 249 306 307
f 249 307 308
f 308 307 309
f 308 309 310
f 310 309 311
f 310 311 305
f 305 311 312
f 305 312 304
f 276 313 256
f 256 313 259
f 256 259 261
f 261 259 258
f 280 314 281
f 281 314 315
f 281 315 316
f 316 315 317
f 316 317 318
f 292 319 293
f 293 319 320
f 293 320 321
f 321 320 271
f 321 271 322
f 322 271 273
f 293 299 295
f 295 299 297
f 295 297 323
f 323 297 324
f 323 324 325
f 325 324 326
f 325 326 285
f 285 326 327
f 285 327 286
f 263 328 264
f 264 328 329
f 264 329 330
f 330 329 331
f 330 331 332
f 332 331 318
f 332 318 333
f 333 318 317
f 296 334 297
f 297 334 335
f 297 335 267
f 267 335 336
f 267 336 301
f 337 338 339
f 339 338 340
f 341 342 343
f 344 345 346
f 347 348 349
f 349 348 350
f 337 351 338
f 338 351 352
f 338 352 353
f 353 352 354
f 353 354 355
f 355 354 356
f 355 356 357
f 346 358 344
f 344 358 359
f 344 359 360
f 360 359 361
f 360 361 362
f 362 361 363
f 362 363 364
f 365 366 367
f 368 369 343
f 343 369 370
f 343 370 371
f 370 372 371
f 371 372 373
f 371 373 374
f 374 373 375
f 356 376 357
f 357 376 377
f 357 377 378
f 379 380 381
f 381 380 382
f 381 382 383
f 383 382 384
f 383 384 385
f 385 384 364
f 385 364 386
f 386 364 363
f 338 341 340
f 340 341 343
f 340 343 387
f 387 343 388
f 387 388 389
f 389 388 390
f 389 390 391
f 391 390 392
f 391 392 393
f 394 395 396
f 396 395 397
f 396 397 375
f 375 397 398
f 375 398 374
f 392 399 393
f 393 399 400
f 393 400 401
f 401 400 402
f 401 402 345
f 345 402 403
f 345 403 346
f 342 404 343
f 343 404 405
f 343 405 406
f 349 407 347
f 347 407 408
f 347 408 409
f 409 408 365
f 409 365 410
f 410 365 367
f 411 412 413
f 413 414 411
f 411 414 415
f 411 415 416
f 416 415 417
f 416 417 418
f 418 417 419
f 418 419 394
f 394 419 420
f 394 420 395
f 365 421 366
f 366 421 422
f 366 422 423
f 406 424 343
f 343 424 350
f 343 350 368
f 368 350 348
f 425 426 427
f 427 426 428
f 427 428 412
f 412 428 429
f 412 429 413
f 430 431 432
f 432 431 433
f 434 435 436
f 436 435 437
f 436 437 438
f 438 437 357
f 438 357 381
f 381 357 378
f 381 378 379
f 422 430 423
f 423 430 432
f 423 432 439
f 439 432 440
f 439 440 441
f 441 440 442
f 441 442 443
f 443 442 444
f 443 444 425
f 425 444 445
f 425 445 426
f 433 446 432
f 432 446 447
f 432 447 436
f 436 447 448
f 436 448 434
f 297 436 438
f 297 438 324
f 324 438 381
f 324 381 326
f 326 381 383
f 326 383 327
f 327 383 385
f 327 385 286
f 286 385 386
f 286 386 288
f 288 386 363
f 288 363 290
f 290 363 361
f 290 361 291
f 291 361 359
f 291 359 283
f 283 359 358
f 283 358 284
f 284 358 346
f 284 346 278
f 278 346 403
f 278 403 280
f 280 403 402
f 280 402 314
f 314 402 400
f 314 400 315
f 315 400 399
f 315 399 317
f 317 399 392
f 317 392 333
f 333 392 390
f 333 390 332
f 332 390 388
f 332 388 330
f 330 388 343
f 330 343 264
f 256 264 371
f 371 264 343
f 256 371 374
f 256 374 257
f 257 374 398
f 257 398 242
f 242 398 397
f 242 397 235
f 235 397 395
f 235 395 233
f 233 395 420
f 233 420 231
f 231 420 419
f 231 419 229
f 229 419 417
f 229 417 226
f 226 417 415
f 226 415 227
f 227 415 414
f 227 414 245
f 245 414 413
f 245 413 246
f 246 413 429
f 246 429 248
f 248 429 428
f 248 428 306
f 306 428 426
f 306 426 307
f 307 426 445
f 307 445 309
f 309 445 444
f 309 444 311
f 311 444 442
f 311 442 312
f 312 442 440
f 312 440 304
f 304 440 432
f 304 432 267
f 297 267 436
f 436 267 432
f 277 344 282
f 282 344 360
f 282 360 289
f 289 360 362
f 289 362 287
f 287 362 364
f 287 364 285
f 285 364 384
f 285 384 325
f 325 384 382
f 325 382 323
f 323 382 380
f 323 380 295
f 295 380 379
f 295 379 294
f 294 379 378
f 294 378 292
f 292 378 377
f 292 377 319
f 319 377 376
f 319 376 320
f 320 376 356
f 320 356 271
f 271 356 354
f 271 354 258
f 258 354 352
f 258 352 261
f 261 352 351
f 261 351 262
f 262 351 337
f 262 337 263
f 263 337 339
f 263 339 328
f 328 339 340
f 328 340 329
f 329 340 387
f 329 387 331
f 331 387 389
f 331 389 318
f 318 389 391
f 318 391 316
f 316 391 393
f 316 393 281
f 281 393 401
f 281 401 279
f 279 401 345
f 279 345 277
f 277 345 344
f 252 347 250
f 250 347 409
f 250 409 239
f 239 409 410
f 239 410 265
f 265 410 367
f 265 367 266
f 266 367 366
f 266 366 302
f 302 366 423
f 302 423 303
f 303 423 439
f 303 439 305
f 305 439 441
f 305 441 310
f 310 441 443
f 310 443 308
f 308 443 425
f 308 425 249
f 249 425 427
f 249 427 247
f 247 427 412
f 247 412 228
f 228 412 411
f 228 411 225
f 225 411 416
f 225 416 230
f 230 416 418
f 230 418 232
f 232 418 394
f 232 394 234
f 234 394 396
f 234 396 243
f 243 396 375
f 243 375 244
f 244 375 373
f 244 373 268
f 268 373 372
f 268 372 269
f 269 372 370
f 269 370 270
f 270 370 369
f 270 369 237
f 237 369 368
f 237 368 238
f 238 368 348
f 238 348 252
f 252 348 347
f 448 335 434
f 434 335 334
f 434 334 435
f 435 334 296
f 435 296 437
f 437 296 298
f 437 298 357
f 357 298 299
f 357 299 355
f 355 299 293
f 355 293 353
f 353 293 321
f 353 321 338
f 338 321 322
f 338 322 341
f 341 322 273
f 341 273 342
f 342 273 272
f 342 272 404
f 404 272 260
f 404 260 405
f 405 260 259
f 405 259 406
f 406 259 313
f 448 447 335
f 335 447 336
f 424 276 350
f 350 276 275
f 350 275 349
f 349 275 274
f 349 274 407
f 407 274 255
f 407 255 408
f 408 255 236
f 408 236 365
f 365 236 254
f 365 254 421
f 421 254 253
f 421 253 422
f 422 253 251
f 422 251 430
f 430 251 241
f 430 241 431
f 431 241 240
f 431 240 433
f 433 240 300
f 433 300 446
f 446 300 301
f 446 301 447
f 447 301 336
f 424 406 276
f 276 406 313
