v -0.0133570705 0.0154784613 -0.00433851284
v -0.0204282079 0.00840732391 -0.00433851284
v -0.0136499677 0.0157713586 -0.00402070087
v -0.0207211052 0.00870022113 -0.00402070087
v -0.0139911447 0.0161124163 -0.0038209061
v -0.0210621629 0.00904139812 -0.0038209061
v -0.0143571172 0.0164783889 -0.00375271839
v -0.0214281355 0.00940737064 -0.00375271839
v -0.014723209 0.0168444806 -0.0038209061
v -0.0217942272 0.00977346237 -0.0038209061
v -0.0150642667 0.0171855384 -0.00402070087
v -0.022135285 0.0101145201 -0.00402070087
v -0.015357164 0.0174784356 -0.00433851284
v -0.0224281822 0.0104074174 -0.00433851284
v -0.0155818735 0.0177031451 -0.00475276512
v -0.0226528917 0.0106321269 -0.00475276512
v -0.0157231365 0.0178445273 -0.00523508591
v -0.0227942739 0.0107733899 -0.00523508591
v -0.015771297 0.0178926879 -0.00575269264
v -0.0228424345 0.0108215504 -0.00575269264
v -0.0157231365 0.0178445273 -0.00627029938
v -0.0227942739 0.0107733899 -0.00627029938
v -0.0155818735 0.0177031451 -0.00675273937
v -0.0226528917 0.0106321269 -0.00675273937
v -0.015357164 0.0174784356 -0.00716687244
v -0.0224281822 0.0104074174 -0.00716687244
v -0.0150642667 0.0171855384 -0.00748480362
v -0.022135285 0.0101145201 -0.00748480362
v -0.014723209 0.0168444806 -0.00768459839
v -0.0217942272 0.00977346237 -0.00768459839
v -0.0143571172 0.0164783889 -0.00775266689
v -0.0214281355 0.00940737064 -0.00775266689
v -0.0139911447 0.0161124163 -0.00768459839
v -0.0210621629 0.00904139812 -0.00768459839
v -0.0136499677 0.0157713586 -0.00748480362
v -0.0207211052 0.00870022113 -0.00748480362
v -0.0133570705 0.0154784613 -0.00716687244
v -0.0204282079 0.00840732391 -0.00716687244
v -0.013132361 0.0152537518 -0.00675273937
v -0.0202034984 0.0081826144 -0.00675273937
v -0.012991098 0.0151123696 -0.00627029938
v -0.0200621162 0.00804135139 -0.00627029938
v -0.0129429374 0.0150642091 -0.00575269264
v -0.0200139557 0.00799319084 -0.00575269264
v -0.012991098 0.0151123696 -0.00523508591
v -0.0200621162 0.00804135139 -0.00523508591
v -0.013132361 0.0152537518 -0.00475276512
v -0.0202034984 0.0081826144 -0.00475276512
f 1 2 3
f 3 2 4
f 3 4 5
f 5 4 6
f 5 6 7
f 7 6 8
f 7 8 9
f 9 8 10
f 9 10 11
f 11 10 12
f 11 12 13
f 13 12 14
f 13 14 15
f 15 14 16
f 15 16 17
f 17 16 18
f 17 18 19
f 19 18 20
f 19 20 21
f 21 20 22
f 21 22 23
f 23 22 24
f 23 24 25
f 25 24 26
f 25 26 27
f 27 26 28
f 27 28 29
f 29 28 30
f 29 30 31
f 31 30 32
f 31 32 33
f 33 32 34
f 33 34 35
f 35 34 36
f 35 36 37
f 37 36 38
f 37 38 39
f 39 38 40
f 39 40 41
f 41 40 42
f 41 42 43
f 43 42 44
f 43 44 45
f 45 44 46
f 45 46 47
f 47 46 48
f 47 48 1
f 1 48 2
