v 0.0163706269 0.0142492862 -0.0102501015
v 0.00906071323 0.00693931292 -0.00989950699
v 0.00929948943 0.0213203044 -0.0102501015
v 0.0019895758 0.0140103907 -0.00989950699
v 0.0100553955 0.0220762701 -0.0101584296
v 0.017126533 0.0150051923 -0.0101584296
v 0.0107745852 0.0227953405 -0.00981617969
v 0.0178456034 0.0157242627 -0.00981617969
v 0.0114159312 0.0234367461 -0.00924290222
v 0.0184869494 0.0163656683 -0.00924290222
v 0.0119430746 0.0239638896 -0.00847126049
v 0.0190140929 0.0168928118 -0.00847126049
v 0.0123260941 0.024346909 -0.00754500431
v 0.0193971123 0.0172758312 -0.00754500431
v 0.0125431742 0.0245639295 -0.0065169434
v 0.0196141924 0.0174929113 -0.0065169434
v 0.0125819172 0.0246027322 -0.00544525188
v 0.0196529354 0.0175316543 -0.00544525188
v 0.0124401774 0.0244610519 -0.00439120335
v 0.0195113148 0.0173899741 -0.00439120335
v 0.0121260609 0.0241468758 -0.00341452164
v 0.0191971983 0.0170758576 -0.00341452164
v 0.01165733 0.0236782045 -0.00257075828
v 0.0187284674 0.0166071267 -0.00257075828
v 0.0113606181 0.00923933695 0.0173947712
v 0.00428959983 0.0163104148 0.0173947712
v 0.0116535153 0.00953223418 0.0177127023
v 0.00458249706 0.016603312 0.0177127023
v 0.0119946923 0.00987329195 0.0179124971
v 0.00492355483 0.0169443698 0.0179124971
v 0.0123606648 0.0102393241 0.0179805656
v 0.00528964656 0.0173104019 0.0179805656
v 0.0127266373 0.0106053562 0.0179124971
v 0.00565561908 0.017676434 0.0179124971
v 0.0130678143 0.0109464736 0.0177127023
v 0.00599667686 0.0180174918 0.0177127023
v 0.0133607115 0.0112393112 0.0173947712
v 0.00628957408 0.018310389 0.0173947712
v 0.013585421 0.0114640803 0.0169806381
v 0.00651428359 0.0185351581 0.0169806381
v 0.013726684 0.0116053433 0.0164981981
v 0.00665566581 0.0186764211 0.0164981981
v 0.0137748446 0.0116535635 0.0159805914
v 0.00670382636 0.0187246413 0.0159805914
v 0.013726684 0.0116053433 0.0154629846
v 0.00665566581 0.0186764211 0.0154629846
v 0.013585421 0.0114640803 0.0149806638
v 0.00651428359 0.0185351581 0.0149806638
v 0.0133607115 0.0112393112 0.0145664116
v 0.00628957408 0.018310389 0.0145664116
v 0.0130678143 0.0109464736 0.0142485996
v 0.00599667686 0.0180174918 0.0142485996
v 0.0127266373 0.0106053562 0.0140488048
v 0.00565561908 0.017676434 0.0140488048
v 0.0123606648 0.0102393241 0.0139806171
v 0.00528964656 0.0173104019 0.0139806171
v 0.0119946923 0.00987329195 0.0140488048
v 0.00492355483 0.0169443698 0.0140488048
v 0.0116535153 0.00953223418 0.0142485996
v 0.00458249706 0.016603312 0.0142485996
v 0.0113606181 0.00923933695 0.0145664116
v 0.00428959983 0.0163104148 0.0145664116
v 0.0111359085 0.00901456784 0.0149806638
v 0.00406489032 0.0160856457 0.0149806638
v 0.0109946455 0.00887330483 0.0154629846
v 0.0039235081 0.0159443827 0.0154629846
v 0.010946485 0.00882514428 0.0159805914
v 0.00387534755 0.0158962221 0.0159805914
v 0.0109946455 0.00887330483 0.0164981981
v 0.0039235081 0.0159443827 0.0164981981
v 0.0111359085 0.00901456784 0.0169806381
v 0.00406489032 0.0160856457 0.0169806381
f 1 2 3
f 3 2 4
f 1 3 5
f 1 5 6
f 6 5 7
f 6 7 8
f 8 7 9
f 8 9 10
f 10 9 11
f 10 11 12
f 12 11 13
f 12 13 14
f 14 13 15
f 14 15 16
f 16 15 17
f 16 17 18
f 18 17 19
f 18 19 20
f 20 19 21
f 20 21 22
f 22 21 23
f 22 23 24
f 25 26 27
f 27 26 28
f 27 28 29
f 29 28 30
f 29 30 31
f 31 30 32
f 31 32 33
f 33 32 34
f 33 34 35
f 35 34 36
f 35 36 37
f 37 36 38
f 37 38 39
f 39 38 40
f 39 40 41
f 41 40 42
f 41 42 43
f 43 42 44
f 43 44 45
f 45 44 46
f 45 46 47
f 47 46 48
f 47 48 49
f 49 48 50
f 49 50 51
f 51 50 52
f 51 52 53
f 53 52 54
f 53 54 55
f 55 54 56
f 55 56 57
f 57 56 58
f 57 58 59
f 59 58 60
f 59 60 61
f 61 60 62
f 61 62 63
f 63 62 64
f 63 64 65
f 65 64 66
f 65 66 67
f 67 66 68
f 67 68 69
f 69 68 70
f 69 70 71
f 71 70 72
f 71 72 25
f 25 72 26
