v -0.0142492328 -0.0163705735 0.0102500816
v -0.0213203703 -0.00929949571 0.0102500816
v -0.0220585142 -0.0100376992 0.0101635357
v -0.014987496 -0.0171087771 0.0101635357
v -0.0227625642 -0.0107416897 0.00983797508
v -0.0156914268 -0.0178127675 0.00983797508
v -0.0233942543 -0.0113734393 0.00929092365
v -0.0163232361 -0.0184445172 0.00929092365
v -0.0239193712 -0.0118986159 0.0085523029
v -0.016848353 -0.0189696937 0.0085523029
v -0.0243096624 -0.0122887879 0.0076618095
v -0.017238525 -0.0193598657 0.0076618095
v -0.0245436702 -0.0125228553 0.00666796166
v -0.0174725328 -0.0195939331 0.00666796166
v -0.0246088777 -0.0125880628 0.00562452274
v -0.0175378595 -0.0196591406 0.00562452274
v -0.0245017086 -0.0124809532 0.00458799797
v -0.0174306904 -0.0195520311 0.00458799797
v -0.0199222837 -0.0125230341 -0.00738597912
v -0.0197850738 -0.0128353028 -0.00692392391
v -0.0174727712 -0.0149725466 -0.00738597912
v -0.0172295843 -0.0150118857 -0.00792397064
v -0.0170719896 -0.0149506717 -0.00850130123
v -0.0133128439 -0.0154342442 -0.017145286
v -0.0170108352 -0.014793077 -0.00907863182
v -0.0170501743 -0.0145498901 -0.00961662334
v -0.0171873842 -0.0142376213 -0.0100786785
v -0.0194995676 -0.0121003776 -0.00961662334
v -0.0197428737 -0.0120610385 -0.00907863182
v -0.0203839813 -0.00836316635 -0.017145286
v -0.0199004684 -0.0121222525 -0.00850130123
v -0.0199616228 -0.0122797876 -0.00792397064
v -0.0194179092 -0.0133857517 -0.00644041103
v -0.0192604337 -0.013578692 -0.00634659332
v -0.0190898452 -0.013770917 -0.00628973049
v -0.0189088855 -0.0139590888 -0.0062705378
v -0.0187206541 -0.0141400485 -0.00628973049
v -0.0175545488 -0.0136871724 -0.0105621914
v -0.0177119051 -0.0134942322 -0.0106560091
v -0.0178826128 -0.0133020072 -0.010712872
v -0.0180635725 -0.0131137757 -0.0107320647
v -0.0182518039 -0.012932816 -0.010712872
v -0.0185283695 -0.0143106966 -0.00634659332
v -0.0183354889 -0.0144681125 -0.00644041103
v -0.0181451116 -0.0146095543 -0.00656939548
v -0.0184439693 -0.0127621679 -0.0106560091
v -0.0186369692 -0.0126047521 -0.0105621914
v -0.0188272272 -0.0124633103 -0.010433207
v -0.0196824346 -0.0130108385 -0.00673152012
v -0.0195592914 -0.0131953745 -0.00656939548
v -0.0179605756 -0.0147326975 -0.00673152012
v -0.0177850996 -0.0148353367 -0.00692392391
v -0.0172900234 -0.0140620856 -0.0102710823
v -0.0174130474 -0.0138775497 -0.010433207
v -0.0190117632 -0.0123402267 -0.0102710823
v -0.0191873584 -0.0122375875 -0.0100786785
f 1 2 3
f 1 3 4
f 4 3 5
f 4 5 6
f 6 5 7
f 6 7 8
f 8 7 9
f 8 9 10
f 10 9 11
f 10 11 12
f 12 11 13
f 12 13 14
f 14 13 15
f 14 15 16
f 16 15 17
f 16 17 18
f 17 19 20
f 21 22 18
f 18 22 23
f 18 23 24
f 23 25 24
f 24 25 26
f 24 26 27
f 28 29 30
f 30 29 31
f 30 31 17
f 17 31 32
f 17 32 19
f 33 34 17
f 34 35 17
f 17 35 36
f 17 36 18
f 18 36 37
f 38 39 24
f 39 40 24
f 24 40 41
f 24 41 30
f 30 41 42
f 37 43 18
f 18 43 44
f 18 44 45
f 42 46 30
f 30 46 47
f 30 47 48
f 20 49 17
f 17 49 50
f 17 50 33
f 45 51 18
f 18 51 52
f 18 52 21
f 27 53 24
f 24 53 54
f 24 54 38
f 48 55 30
f 30 55 56
f 30 56 28
