v 0.0163706269 -0.014249236 0.0102500816
v 0.00929948943 -0.0213203735 0.0102500816
v 0.0100376334 -0.0220585174 0.0101635357
v 0.0171087708 -0.0149874992 0.0101635357
v 0.0107416834 -0.0227625674 0.00983797508
v 0.0178128208 -0.01569143 0.00983797508
v 0.0113734927 -0.0233942575 0.00929092365
v 0.0184445109 -0.0163232393 0.00929092365
v 0.0118986096 -0.0239193744 0.0085523029
v 0.0189696278 -0.0168483562 0.0085523029
v 0.0122887816 -0.0243096656 0.0076618095
v 0.019359919 -0.0172385282 0.0076618095
v 0.0125227894 -0.0245436734 0.00666796166
v 0.0195939268 -0.017472536 0.00666796166
v 0.0125881161 -0.0246088809 0.00562452274
v 0.0196591343 -0.0175378627 0.00562452274
v 0.012480947 -0.0245017118 0.00458799797
v 0.0195519652 -0.0174306936 0.00458799797
v 0.0154342379 -0.0133128471 -0.017145286
v 0.00836310046 -0.0203839845 -0.017145286
v 0.00812480109 -0.0201455659 -0.0180236201
v 0.0151958193 -0.0130745477 -0.0180236201
v 0.00776240485 -0.0197832889 -0.0188125471
v 0.0148335423 -0.0127121515 -0.0188125471
v 0.00729212421 -0.019312889 -0.019477735
v 0.0143631424 -0.0122418708 -0.019477735
v 0.00673422473 -0.0187549896 -0.0199900965
v 0.0138052429 -0.0116839713 -0.0199900965
v 0.00611314433 -0.0181339092 -0.0203272204
v 0.0131841626 -0.0110628909 -0.0203272204
v 0.00456068175 -0.00243929093 -0.000707159461
v 0.00156066077 0.000560610844 -0.00494969887
v -0.00251045567 -0.00951042836 -0.000707159461
v -0.00551035745 -0.00651040737 -0.00494969887
v 0.00459823268 -0.00813379948 0.00758873421
v 0.014609548 -0.0181451148 -0.00656939548
v 0.0144681658 -0.0183354921 -0.00644041103
v 0.00435707229 -0.00857475464 0.00772999722
v 0.0147326912 -0.0179605788 -0.00673152012
v 0.00473222392 -0.00768199627 0.00736390549
v 0.0148353304 -0.0177851028 -0.00692392391
v 0.0047498669 -0.00725010102 0.00707100826
v 0.0149725403 -0.0174727744 -0.00738597912
v 0.00464996951 -0.00686767762 0.00672995049
v 0.0150118794 -0.0172295875 -0.00792397064
v 0.0044393267 -0.00656071369 0.00636397797
v 0.0149506058 -0.0170719928 -0.00850130123
v 0.00413236278 -0.00635007088 0.00599788624
v 0.0147931303 -0.0170108384 -0.00907863182
v 0.00374982017 -0.0062501735 0.00565682846
v 0.0145498242 -0.0170501775 -0.00961662334
v 0.00331804412 -0.00626781647 0.00536393124
v 0.014237615 -0.0171873874 -0.0100786786
v 0.0140620198 -0.0172900266 -0.0102710823
v 0.00286624091 -0.0064016885 0.00513922173
v 0.0138774838 -0.0174130506 -0.010433207
v 0.0136872258 -0.017554552 -0.0105621914
v 0.00242516654 -0.0066429681 0.00499795872
v 0.0134942259 -0.0177119083 -0.0106560091
v 0.0133020605 -0.017882616 -0.010712872
v 0.00202510017 -0.00697484677 0.00494979816
v 0.0131138291 -0.0180635757 -0.0107320647
v 0.0129328694 -0.0182518071 -0.010712872
v 0.0016932215 -0.00737503235 0.00499795872
v 0.0127621617 -0.0184439725 -0.0106560091
v 0.0126048054 -0.0186369724 -0.0105621914
v 0.0014519419 -0.00781598751 0.00513922173
v 0.012463304 -0.0188272304 -0.010433207
v 0.01234028 -0.0190117664 -0.0102710823
v 0.00131806987 -0.00826779072 0.00536393124
v 0.0122376408 -0.0191873616 -0.0100786786
v 0.00130042689 -0.00869956677 0.00565682846
v 0.0121004309 -0.0194995708 -0.00961662334
v 0.00140032428 -0.00908210938 0.00599788624
v 0.0120610918 -0.0197428769 -0.00907863182
v 0.00161096709 -0.0093890733 0.00636397797
v 0.0121222462 -0.0199004716 -0.00850130123
v 0.00191793101 -0.00959971611 0.00672995049
v 0.0122798409 -0.019961626 -0.00792397064
v 0.00230035442 -0.0096996135 0.00707100826
v 0.0125230278 -0.0199222869 -0.00738597912
v 0.00273224967 -0.00968197052 0.00736390549
v 0.0128353562 -0.019785077 -0.00692392391
v 0.00318405288 -0.00954797928 0.00758873421
v 0.00362500804 -0.00930681889 0.00772999722
v 0.0135786261 -0.0192604369 -0.00634659332
v 0.0133857455 -0.0194179124 -0.00644041103
v 0.0131953682 -0.0195592946 -0.00656939548
v 0.0130108322 -0.0196824378 -0.00673152012
v 0.0143106903 -0.0185283727 -0.00634659332
v 0.0141401018 -0.0187206573 -0.00628973049
v 0.00402507442 -0.00897482102 0.00777815777
v 0.0139591421 -0.0189088887 -0.0062705378
v 0.0137709107 -0.0190898484 -0.00628973049
v 0.00301012653 -0.000888854907 0.00417124229
v -0.00406089169 -0.00795987313 0.00417124229
v 0.00229224818 -0.000170857356 0.00468682247
v -0.00477888924 -0.00724199478 0.00468682247
v 0.00151047366 0.000610917165 0.00495933491
v -0.00556066377 -0.00646022026 0.00495933491
v 0.000705334121 0.00141605671 0.00497471291
v -0.00636580331 -0.00565508072 0.00497471291
v -8.13279807e-05 0.00220271881 0.00473200279
v -0.00715246541 -0.00486841862 0.00473200279
v -0.000808862275 0.00293013389 0.00424384075
v -0.00787988049 -0.00414088433 0.00424384075
v -0.00143936021 0.00356063183 0.00353549915
v -0.00851037843 -0.00351038639 0.00353549915
v -0.00194015843 0.00406143005 0.00264393288
v -0.00901117665 -0.00300958817 0.00264393288
v -0.00228538854 0.00440666015 0.00161515671
v -0.00935640675 -0.00266435807 0.00161515671
v -0.0024569307 0.00457832153 0.000502576409
v -0.00952806813 -0.0024928159 0.000502576409
v -0.00244620187 0.00456747348 -0.000636110725
v -0.00951722009 -0.00250354473 -0.000636110725
v -0.00225344045 0.00437471206 -0.00174165768
v -0.00932445866 -0.00269630616 -0.00174165768
v -0.00188877923 0.00401017006 -0.0027569632
v -0.00895991666 -0.00306096737 -0.0027569632
f 1 2 3
f 1 3 4
f 4 3 5
f 4 5 6
f 6 5 7
f 6 7 8
f 8 7 9
f 8 9 10
f 10 9 11
f 10 11 12
f 12 11 13
f 12 13 14
f 14 13 15
f 14 15 16
f 16 15 17
f 16 17 18
f 19 20 21
f 19 21 22
f 22 21 23
f 22 23 24
f 24 23 25
f 24 25 26
f 26 25 27
f 26 27 28
f 28 27 29
f 28 29 30
f 31 32 33
f 33 32 34
f 35 36 37
f 35 37 38
f 36 35 39
f 39 35 40
f 39 40 41
f 41 40 42
f 41 42 43
f 43 42 44
f 43 44 45
f 45 44 46
f 45 46 47
f 47 46 48
f 47 48 49
f 49 48 50
f 49 50 51
f 51 50 52
f 51 52 53
f 53 52 54
f 54 52 55
f 54 55 56
f 56 55 57
f 57 55 58
f 57 58 59
f 59 58 60
f 60 58 61
f 60 61 62
f 62 61 63
f 63 61 64
f 63 64 65
f 65 64 66
f 66 64 67
f 66 67 68
f 68 67 69
f 69 67 70
f 69 70 71
f 71 70 72
f 71 72 73
f 73 72 74
f 73 74 75
f 75 74 76
f 75 76 77
f 77 76 78
f 77 78 79
f 79 78 80
f 79 80 81
f 81 80 82
f 81 82 83
f 84 85 86
f 86 87 84
f 84 87 88
f 84 88 82
f 82 88 89
f 82 89 83
f 37 90 38
f 38 90 91
f 38 91 92
f 92 91 93
f 92 93 85
f 85 93 94
f 85 94 86
f 95 96 97
f 97 96 98
f 97 98 99
f 99 98 100
f 99 100 101
f 101 100 102
f 101 102 103
f 103 102 104
f 103 104 105
f 105 104 106
f 105 106 107
f 107 106 108
f 107 108 109
f 109 108 110
f 109 110 111
f 111 110 112
f 111 112 113
f 113 112 114
f 113 114 115
f 115 114 116
f 115 116 117
f 117 116 118
f 117 118 119
f 119 118 120
