v 0.0158962253 0.00387534435 -0.0159806113
v 0.00951042207 -0.00251045887 -0.000707159461
v 0.0159443859 0.00392362412 -0.016498218
v 0.0160856489 0.00406488712 -0.016980658
v 0.0200621131 0.0080413514 0.00627039867
v 0.0202034953 0.0081826144 0.00675271946
v 0.0140104535 0.0019895726 0.00989948708
v 0.0224281791 0.0104074174 0.00716697174
v 0.0226528886 0.0106321269 0.00675271946
v 0.0243096593 0.0122887784 0.0076618095
v 0.000942612016 -0.0110781497 -0.0203898053
v 0.00123550924 -0.0107852525 -0.0200719933
v 0.00651040109 -0.00551036064 -0.00494969887
v 0.00157656702 -0.0104441947 -0.0198721985
v 0.000528359735 -0.011492402 -0.0218039851
v -0.00123748747 -0.0132583684 -0.0216515164
v 0.000576639497 -0.0114442414 -0.022321711
v -0.00117633311 -0.0131970948 -0.0226954321
v 0.000717902506 -0.0113029784 -0.0228040318
v 0.0186764243 0.00665566261 -0.0154630045
v 0.0187245849 0.00670382317 -0.0159806113
v 0.0203839782 0.00836309727 -0.017145286
v 0.0186764243 0.00665566261 -0.016498218
v 0.0201455596 0.0081247979 -0.0180236201
v 0.0185351613 0.0065142804 -0.016980658
v 0.0197832826 0.00776240166 -0.0188125471
v 0.0183104518 0.00628957089 -0.0173947911
v 0.0193128827 0.00729212101 -0.019477735
v 0.0180175546 0.00599667366 -0.0177127222
v 0.0187549833 0.00673422154 -0.0199900965
v 0.0181340221 0.00611314114 -0.0203272204
v 0.0176763776 0.00565561588 -0.017912517
v 0.00335683855 -0.00866392319 -0.0218039851
v 0.0245436672 0.0125227862 0.00666796166
v 0.0227942708 0.0107733899 0.00627039867
v 0.0246088746 0.0125881129 0.00562452274
v 0.0228424314 0.0108215504 0.00575267273
v 0.0245017055 0.0124809438 0.00458799797
v 0.0159443859 0.00392362412 -0.0154630045
v 0.0160856489 0.00406488712 -0.0149805645
v 0.0163103584 0.00428959663 -0.0145664315
v 0.0200139526 0.00799319084 0.00575267273
v 0.0204282049 0.00840732391 0.00716697174
v 0.0207211021 0.00870022114 0.00748478371
v 0.0213203672 0.00929948624 0.0102500816
v 0.003308678 -0.00871220295 -0.0212863783
v 0.0173104051 0.00528964336 -0.0179805855
v 0.0169444326 0.00492355164 -0.017912517
v 0.00194265875 -0.0100782222 -0.0198040108
v 0.00230863127 -0.00971213047 -0.0198721985
v 0.000717902506 -0.0113029784 -0.0208040575
v 0.00587048563 -0.00615027611 -0.00499607128
v 0.00523510011 -0.00678566162 -0.0048782925
v 0.0227942708 0.0107733899 0.005235066
v 0.0226528886 0.0106321269 0.00475274521
v 0.0224281791 0.0104074174 0.00433849293
v 0.0221352819 0.0101145201 0.00402068096
v 0.0217942241 0.00977346237 0.00382088619
v 0.0183104518 0.00628957089 -0.0145664315
v 0.0214282516 0.00940737064 0.00375269848
v 0.0180175546 0.00599667366 -0.0142486195
v 0.0166032556 0.00458249386 -0.0177127222
v 0.0163103584 0.00428959663 -0.0173947911
v 0.00316741499 -0.00885346596 -0.0208040575
v 0.00294258627 -0.00907817547 -0.0203898053
v 0.00264968904 -0.00937107269 -0.0200719933
v -0.000946020758 -0.0129669017 -0.0236910681
v -0.000559305823 -0.0125800676 -0.0245844225
v 0.000942612016 -0.0110781497 -0.0232182841
v -3.69307159e-05 -0.0120578117 -0.0253272156
v 0.00123550924 -0.0107852525 -0.023536096
v 0.000592613542 -0.0114281482 -0.0258790354
v 0.00157656702 -0.0104441947 -0.0237358908
v 0.00129547151 -0.0107254094 -0.0262099604
v 0.00194265875 -0.0100782222 -0.0238040785
v 0.00203325781 -0.00998750393 -0.0263022284
v 0.00230863127 -0.00971213047 -0.0237358908
v 0.00276615652 -0.00925460522 -0.0261507134
v 0.00264968904 -0.00937107269 -0.023536096
v 0.00406088861 -0.00795987312 -0.00417126221
v -0.000989651358 -0.0130104131 -0.0113136868
v 0.0046253446 -0.00739553635 -0.00460029644
v 0.0204282049 0.00840732391 0.00433849293
v 0.0202034953 0.0081826144 0.00475274521
v 0.0210621599 0.00904139813 0.00768457848
v 0.0214282516 0.00940737064 0.00775276619
v 0.0220585111 0.0100377494 0.0101635357
v 0.0217942241 0.00977346237 0.00768457848
v 0.0227625612 0.0107416802 0.00983797508
v 0.0221352819 0.0101145201 0.00748478371
v 0.0233942512 0.0113734895 0.00929092365
v 0.0239194873 0.0118986064 0.0085523029
v 0.003308678 -0.00871220295 -0.022321711
v 0.00316741499 -0.00885346596 -0.0228040318
v 0.00294258627 -0.00907817547 -0.0232182841
v 0.000576639497 -0.0114442414 -0.0212863783
v 0.0185351613 0.0065142804 -0.0149805645
v 0.0166032556 0.00458249386 -0.0142486195
v 0.0169444326 0.00492355164 -0.0140487055
v 0.0173104051 0.00528964336 -0.013980637
v 0.00895991358 -0.00306096737 0.00275694328
v 0.00926330122 -0.00275746052 0.00195883709
v 0.0200621131 0.0080413514 0.005235066
v 0.00945987734 -0.0025608844 0.00109635788
v 0.00954320463 -0.00247767631 0.000197877465
v 0.0176763776 0.00565561588 -0.0140487055
v 0.0210621599 0.00904139813 0.00382088619
v 0.0207211021 0.00870022114 0.00402068096
v -0.0043048617 -0.002183587 -0.0261507134
v -0.00503776041 -0.00291648571 -0.0263022284
v -0.00577566591 -0.003654272 -0.0262099604
v -0.00647840468 -0.00435712997 -0.0258790354
v -0.00710806814 -0.00498667423 -0.0253272156
v -0.00763032404 -0.00550904934 -0.0245844225
v -0.00801715819 -0.00589576427 -0.0236910681
v -0.00824735132 -0.00612607662 -0.0226954321
v -0.0083086249 -0.00618723099 -0.0216515164
v -0.00806066958 -0.00593939487 -0.0113136868
v -0.00301012961 -0.000888854904 -0.00417126221
v -0.00244579283 -0.000324518127 -0.00460029644
v -0.0018359181 0.000285356598 -0.0048782925
v -0.00120053259 0.000920742112 -0.00499607128
v -0.000560617125 0.00156065758 -0.00494969887
v -0.00412843195 -0.00200715725 -0.0203898053
v -0.00442132918 -0.00230005447 -0.0200719933
v -0.00476238695 -0.00264111225 -0.0198721985
v -0.00512847868 -0.00300708477 -0.0198040108
v -0.0054944512 -0.0033731765 -0.0198721985
v -0.00583550898 -0.00371423428 -0.0200719933
v -0.0061284062 -0.0040071315 -0.0203898053
v -0.00635323492 -0.00423184101 -0.0208040575
v -0.00649449793 -0.00437310402 -0.0212863783
v -0.00654265848 -0.00442138378 -0.0218039851
v -0.00649449793 -0.00437310402 -0.022321711
v -0.00635323492 -0.00423184101 -0.0228040318
v -0.0061284062 -0.0040071315 -0.0232182841
v -0.00583550898 -0.00371423428 -0.023536096
v -0.0054944512 -0.0033731765 -0.0237358908
v -0.00512847868 -0.00300708477 -0.0238040785
v -0.00476238695 -0.00264111225 -0.0237358908
v -0.00442132918 -0.00230005447 -0.023536096
v -0.00412843195 -0.00200715725 -0.0232182841
v -0.00390372244 -0.00178232853 -0.0228040318
v -0.00376245943 -0.00164106552 -0.022321711
v -0.00371417967 -0.00159290497 -0.0218039851
v -0.00376245943 -0.00164106552 -0.0212863783
v -0.00390372244 -0.00178232853 -0.0208040575
v 0.0081337932 0.00459822948 0.00758873421
v 0.0181451085 0.0146095448 -0.00656939548
v 0.0183354858 0.0144681626 -0.00644041103
v 0.00857474836 0.00435706909 0.00772999722
v 0.0179605726 0.014732688 -0.00673152012
v 0.00768198999 0.00473222073 0.00736390549
v 0.0177850965 0.0148353272 -0.00692392391
v 0.00725009474 0.0047498637 0.00707100826
v 0.0174727682 0.0149725371 -0.00738597912
v 0.00686767133 0.00464996632 0.00672995049
v 0.0172295812 0.0150118762 -0.00792397064
v 0.00656070741 0.0044393235 0.00636397797
v 0.0170719865 0.0149507218 -0.00850130123
v 0.0063500646 0.00413235958 0.00599788624
v 0.0170108322 0.0147931271 -0.00907863182
v 0.00625016722 0.00374981697 0.00565682846
v 0.0170501712 0.014549821 -0.00961662334
v 0.00626781019 0.00331804092 0.00536393124
v 0.0171873811 0.0142376118 -0.0100786785
v 0.0172900203 0.0140620166 -0.0102710823
v 0.00640168222 0.00286623772 0.00513922173
v 0.0174130443 0.0138774806 -0.010433207
v 0.0175545457 0.0136872226 -0.0105621914
v 0.00664296182 0.00242528256 0.00499795872
v 0.017711902 0.0134942227 -0.0106560091
v 0.0178826097 0.0133020573 -0.010712872
v 0.00697484049 0.00202509697 0.00494979817
v 0.0180635694 0.0131138259 -0.0107320647
v 0.0182518009 0.0129328662 -0.010712872
v 0.00737502607 0.00169321831 0.00499795872
v 0.0184439662 0.0127621585 -0.0106560091
v 0.0186369661 0.0126048022 -0.0105621914
v 0.00781598123 0.00145193871 0.00513922173
v 0.0188272241 0.0124633008 -0.010433207
v 0.0190117601 0.0123402768 -0.0102710823
v 0.00826778444 0.00131806667 0.00536393124
v 0.0191873554 0.0122376376 -0.0100786785
v 0.00869956049 0.0013004237 0.00565682846
v 0.0194995645 0.0121004277 -0.00961662334
v 0.0090821031 0.00140032108 0.00599788624
v 0.0197428707 0.0120610886 -0.00907863182
v 0.00938906702 0.0016109639 0.00636397797
v 0.0199004653 0.012122243 -0.00850130123
v 0.00959970983 0.00191792782 0.00672995049
v 0.0199616197 0.0122798377 -0.00792397064
v 0.00969960722 0.00230035122 0.00707100826
v 0.0199222806 0.0125230246 -0.00738597912
v 0.00968196424 0.00273224648 0.00736390549
v 0.0197850707 0.012835353 -0.00692392391
v 0.009547973 0.00318404968 0.00758873421
v 0.00930681261 0.00362500485 0.00772999722
v 0.0192604307 0.0135786229 -0.00634659332
v 0.0194179061 0.0133857423 -0.00644041103
v 0.0195592883 0.013195365 -0.00656939548
v 0.0196824315 0.013010829 -0.00673152012
v 0.0185283664 0.0143106871 -0.00634659332
v 0.018720651 0.0141400986 -0.00628973049
v 0.00897481474 0.00402507122 0.00777815777
v 0.0189088825 0.0139591389 -0.0062705378
v 0.0190898422 0.0137709075 -0.00628973049
f 1 2 3
f 3 2 4
f 5 6 7
f 8 9 10
f 11 12 13
f 13 12 14
f 15 16 17
f 17 16 18
f 17 18 19
f 20 21 22
f 22 21 23
f 22 23 24
f 24 23 25
f 24 25 26
f 26 25 27
f 26 27 28
f 28 27 29
f 28 29 30
f 30 29 31
f 31 29 32
f 31 32 33
f 10 9 34
f 34 9 35
f 34 35 36
f 36 35 37
f 36 37 38
f 1 39 2
f 2 39 40
f 2 40 41
f 5 7 42
f 6 43 7
f 7 43 44
f 7 44 45
f 33 32 46
f 46 32 47
f 46 47 48
f 14 49 13
f 13 49 50
f 13 50 2
f 11 13 51
f 51 13 52
f 51 52 53
f 37 54 38
f 38 54 55
f 38 55 56
f 57 58 59
f 59 58 60
f 59 60 61
f 48 62 46
f 46 62 63
f 46 63 64
f 64 63 4
f 64 4 65
f 65 4 2
f 65 2 66
f 66 2 50
f 18 67 19
f 19 67 68
f 19 68 69
f 69 68 70
f 69 70 71
f 71 70 72
f 71 72 73
f 73 72 74
f 73 74 75
f 75 74 76
f 75 76 77
f 77 76 78
f 77 78 79
f 80 81 82
f 82 81 16
f 2 83 84
f 44 85 45
f 45 85 86
f 45 86 87
f 87 86 88
f 87 88 89
f 89 88 90
f 89 90 91
f 91 90 8
f 91 8 92
f 92 8 10
f 33 93 31
f 31 93 94
f 31 94 78
f 78 94 95
f 78 95 79
f 53 82 51
f 51 82 16
f 51 16 96
f 96 16 15
f 20 22 97
f 97 22 38
f 97 38 59
f 59 38 56
f 59 56 57
f 41 98 2
f 2 98 99
f 2 99 83
f 83 99 100
f 7 101 42
f 42 101 102
f 42 102 103
f 103 102 104
f 103 104 84
f 84 104 105
f 84 105 2
f 61 60 106
f 106 60 107
f 106 107 100
f 100 107 108
f 100 108 83
f 109 78 76
f 109 76 110
f 110 76 74
f 110 74 111
f 111 74 72
f 111 72 112
f 112 72 70
f 112 70 113
f 113 70 68
f 113 68 114
f 114 68 67
f 114 67 115
f 115 67 18
f 115 18 116
f 116 18 16
f 116 16 117
f 118 117 81
f 81 117 16
f 119 80 120
f 120 80 82
f 120 82 121
f 121 82 53
f 121 53 122
f 122 53 52
f 122 52 123
f 123 52 13
f 124 65 125
f 125 65 66
f 125 66 126
f 126 66 50
f 126 50 127
f 127 50 49
f 127 49 128
f 128 49 14
f 128 14 129
f 129 14 12
f 129 12 130
f 130 12 11
f 130 11 131
f 131 11 51
f 131 51 132
f 132 51 96
f 132 96 133
f 133 96 15
f 133 15 134
f 134 15 17
f 134 17 135
f 135 17 19
f 135 19 136
f 136 19 69
f 136 69 137
f 137 69 71
f 137 71 138
f 138 71 73
f 138 73 139
f 139 73 75
f 139 75 140
f 140 75 77
f 140 77 141
f 141 77 79
f 141 79 142
f 142 79 95
f 142 95 143
f 143 95 94
f 143 94 144
f 144 94 93
f 144 93 145
f 145 93 33
f 145 33 146
f 146 33 46
f 146 46 147
f 147 46 64
f 147 64 124
f 124 64 65
f 148 149 150
f 148 150 151
f 149 148 152
f 152 148 153
f 152 153 154
f 154 153 155
f 154 155 156
f 156 155 157
f 156 157 158
f 158 157 159
f 158 159 160
f 160 159 161
f 160 161 162
f 162 161 163
f 162 163 164
f 164 163 165
f 164 165 166
f 166 165 167
f 167 165 168
f 167 168 169
f 169 168 170
f 170 168 171
f 170 171 172
f 172 171 173
f 173 171 174
f 173 174 175
f 175 174 176
f 176 174 177
f 176 177 178
f 178 177 179
f 179 177 180
f 179 180 181
f 181 180 182
f 182 180 183
f 182 183 184
f 184 183 185
f 184 185 186
f 186 185 187
f 186 187 188
f 188 187 189
f 188 189 190
f 190 189 191
f 190 191 192
f 192 191 193
f 192 193 194
f 194 193 195
f 194 195 196
f 197 198 199
f 199 200 197
f 197 200 201
f 197 201 195
f 195 201 202
f 195 202 196
f 150 203 151
f 151 203 204
f 151 204 205
f 205 204 206
f 205 206 198
f 198 206 207
f 198 207 199
