v 0.00332507747 -0.00827482407 0.00961660343
v -0.00409987313 -0.00084987347 0.0201171537
v 0.0037566151 -0.00775471394 0.00955401856
v -0.0036683355 -0.000329763339 0.0200545688
v 0.00407025474 -0.00718143647 0.00937031704
v -0.00335481507 0.000243514134 0.0198708673
v 0.00424441951 -0.0065940923 0.00907813507
v -0.0031806503 0.000830858304 0.0195786853
v 0.00426730769 -0.00603273575 0.0086973806
v -0.00315776212 0.00139233406 0.0191979309
v 0.00413736957 -0.0055355138 0.00825404125
v -0.00328758103 0.00188943679 0.0187545915
v 0.00386354583 -0.0051364011 0.00777815777
v -0.00356140477 0.0022885495 0.018278708
v 0.00346455234 -0.00486257737 0.00730239349
v -0.00396051747 0.00256237323 0.0178028246
v 0.00296733039 -0.00473275845 0.00685893494
v -0.00445773942 0.00269231136 0.0173594852
v 0.00240585464 -0.00475564663 0.00647818047
v -0.00501909596 0.00266942318 0.0169787307
v 0.00181851047 -0.0049298114 0.0061859985
v -0.00560644013 0.0024951392 0.0166865488
v 0.00124523299 -0.00524333184 0.00600229698
v -0.00617971761 0.00218161876 0.0165028473
v 0.000725122863 -0.00567486946 0.00593971211
v -0.00669982774 0.00175008114 0.0164402624
v 0.000293585235 -0.00619497959 0.00600229698
v -0.00713136536 0.00122997101 0.0165028473
v -1.99351966e-05 -0.00676825707 0.0061859985
v -0.00744500501 0.000656693532 0.0166865488
v -0.000194099969 -0.00735560124 0.00647818047
v -0.00761916978 6.93493621e-05 0.0169787307
v -0.000216988152 -0.00791707699 0.00685893494
v -0.00764205796 -0.000492007182 0.0173594852
v -8.71692359e-05 -0.00841429894 0.00730239349
v -0.00751211984 -0.000989229129 0.0178028246
v 0.000186654502 -0.00881329243 0.00777815777
v -0.0072382961 -0.00138834183 0.018278708
v 0.000585767204 -0.00908711617 0.00825404125
v -0.0068391834 -0.00166216557 0.0187545915
v 0.00108298915 -0.00921705429 0.0086973806
v -0.00634208066 -0.00179198448 0.0191979309
v 0.00164434569 -0.00919416611 0.00907813507
v -0.0057806049 -0.0017690963 0.0195786853
v 0.00223168986 -0.00902000134 0.00937031704
v -0.00519326074 -0.00159493153 0.0198708673
v 0.00280496734 -0.0087063617 0.00955401856
v -0.00461998326 -0.0012814111 0.0200545688
f 1 2 3
f 3 2 4
f 3 4 5
f 5 4 6
f 5 6 7
f 7 6 8
f 7 8 9
f 9 8 10
f 9 10 11
f 11 10 12
f 11 12 13
f 13 12 14
f 13 14 15
f 15 14 16
f 15 16 17
f 17 16 18
f 17 18 19
f 19 18 20
f 19 20 21
f 21 20 22
f 21 22 23
f 23 22 24
f 23 24 25
f 25 24 26
f 25 26 27
f 27 26 28
f 27 28 29
f 29 28 30
f 29 30 31
f 31 30 32
f 31 32 33
f 33 32 34
f 33 34 35
f 35 34 36
f 35 36 37
f 37 36 38
f 37 38 39
f 39 38 40
f 39 40 41
f 41 40 42
f 41 42 43
f 43 42 44
f 43 44 45
f 45 44 46
f 45 46 47
f 47 46 48
f 47 48 1
f 1 48 2
