v -0.0142492328 0.0163706237 -0.0102501015
v -0.0069393192 0.00906071003 -0.00989950699
v -0.0213203703 0.00929948623 -0.0102501015
v -0.0140104566 0.0019895726 -0.00989950699
v 0.00612840312 -0.0040071315 0.0232182642
v -0.000942615098 -0.0110781497 0.0232182642
v 0.0058355059 -0.00371423428 0.0235360761
v -0.00123551232 -0.0107852525 0.0235360761
v 0.00549444812 -0.0033731765 0.0237358709
v -0.0015765701 -0.0104441947 0.0237358709
v 0.0051284756 -0.00300708477 0.0238040586
v -0.00194266183 -0.0100782222 0.0238040586
v 0.00476238387 -0.00264111225 0.0237358709
v -0.00230863435 -0.00971213047 0.0237358709
v 0.00442132609 -0.00230005448 0.0235360761
v -0.00264969212 -0.0093710727 0.0235360761
v 0.00412842887 -0.00200715725 0.0232182642
v -0.00294258935 -0.00907817547 0.0232182642
v 0.00390371936 -0.00178232853 0.0228040119
v -0.00316741807 -0.00885346596 0.0228040119
v 0.00376245635 -0.00164106552 0.0223216911
v -0.00330868108 -0.00871220295 0.0223216911
v 0.00371417659 -0.00159290497 0.0218040844
v -0.00335684163 -0.00866392319 0.0218040844
v 0.00376245635 -0.00164106552 0.0212863584
v -0.00330868108 -0.00871220295 0.0212863584
v 0.00390371936 -0.00178232853 0.0208040376
v -0.00316741807 -0.00885346596 0.0208040376
v 0.00412842887 -0.00200715725 0.0203897853
v -0.00294258935 -0.00907817547 0.0203897853
v 0.00442132609 -0.00230005448 0.0200719734
v -0.00264969212 -0.0093710727 0.0200719734
v 0.00476238387 -0.00264111225 0.0198721786
v -0.00230863435 -0.00971213047 0.0198721786
v 0.0051284756 -0.00300708477 0.0198039909
v -0.00194266183 -0.0100782222 0.0198039909
v 0.00549444812 -0.0033731765 0.0198721786
v -0.0015765701 -0.0104441947 0.0198721786
v 0.0058355059 -0.00371423428 0.0200719734
v -0.00123551232 -0.0107852525 0.0200719734
v 0.00612840312 -0.0040071315 0.0203897853
v -0.000942615098 -0.0110781497 0.0203897853
v 0.00635323184 -0.00423184101 0.0208040376
v -0.000717905587 -0.0113029784 0.0208040376
v 0.00649449485 -0.00437310402 0.0212863584
v -0.000576642579 -0.0114442415 0.0212863584
v 0.0065426554 -0.00442138378 0.0218040844
v -0.000528362817 -0.011492402 0.0218040844
v 0.00649449485 -0.00437310402 0.0223216911
v -0.000576642579 -0.0114442415 0.0223216911
v 0.00635323184 -0.00423184101 0.0228040119
v -0.000717905587 -0.0113029784 0.0228040119
f 1 2 3
f 3 2 4
f 5 6 7
f 7 6 8
f 7 8 9
f 9 8 10
f 9 10 11
f 11 10 12
f 11 12 13
f 13 12 14
f 13 14 15
f 15 14 16
f 15 16 17
f 17 16 18
f 17 18 19
f 19 18 20
f 19 20 21
f 21 20 22
f 21 22 23
f 23 22 24
f 23 24 25
f 25 24 26
f 25 26 27
f 27 26 28
f 27 28 29
f 29 28 30
f 29 30 31
f 31 30 32
f 31 32 33
f 33 32 34
f 33 34 35
f 35 34 36
f 35 36 37
f 37 36 38
f 37 38 39
f 39 38 40
f 39 40 41
f 41 40 42
f 41 42 43
f 43 42 44
f 43 44 45
f 45 44 46
f 45 46 47
f 47 46 48
f 47 48 49
f 49 48 50
f 49 50 51
f 51 50 52
f 51 52 5
f 5 52 6
