v -0.00827482087 -0.00332514335 0.00961660343
v -0.000849870268 0.00409986685 0.0201171537
v -0.00775471074 -0.00375668098 0.00955401856
v -0.000329760138 0.00366832922 0.0200545688
v -0.00718143326 -0.00407020141 0.00937031704
v 0.000243517336 0.00335480879 0.0198708673
v -0.00659408909 -0.00424436618 0.00907813507
v 0.000830861505 0.00318064402 0.0195786853
v -0.00603273255 -0.00426731397 0.0086973806
v 0.00139233726 0.00315769623 0.0191979309
v -0.0055355106 -0.00413743545 0.00825404125
v 0.00188944 0.00328757475 0.0187545915
v -0.0051363979 -0.00386361171 0.00777815777
v 0.0022885527 0.00356139849 0.018278708
v -0.00486257416 -0.00346449901 0.00730239349
v 0.00256237644 0.00396051119 0.0178028246
v -0.00473275525 -0.00296727707 0.00685893494
v 0.00269231456 0.00445773314 0.0173594852
v -0.00475564343 -0.00240586092 0.00647818047
v 0.00266930717 0.00501908968 0.0169787307
v -0.0049298082 -0.00181851675 0.0061859985
v 0.0024951424 0.00560649346 0.0166865488
v -0.00524332863 -0.00124523927 0.00600229698
v 0.00218162197 0.00617977093 0.0165028473
v -0.00567486626 -0.000725129143 0.00593971211
v 0.00175008434 0.00669988106 0.0164402624
v -0.00619497639 -0.000293591515 0.00600229698
v 0.00122997421 0.00713141869 0.0165028473
v -0.00676825387 1.99289167e-05 0.0061859985
v 0.000656696733 0.00744493912 0.0166865488
v -0.00735559804 0.000194093689 0.00647818047
v 6.93525636e-05 0.00761910389 0.0169787307
v -0.00791707379 0.000217041477 0.00685893494
v -0.000492003981 0.00764205168 0.0173594852
v -0.00841429574 8.7162956e-05 0.00730239349
v -0.000989225928 0.00751217316 0.0178028246
v -0.00881340844 -0.000186660782 0.00777815777
v -0.00138833863 0.00723834942 0.018278708
v -0.00908711297 -0.000585773484 0.00825404125
v -0.00166216237 0.00683923672 0.0187545915
v -0.00921705109 -0.00108293583 0.0086973806
v -0.00179210049 0.00634201477 0.0191979309
v -0.00919416291 -0.00164435197 0.00907813507
v -0.0017690931 0.00578065823 0.0195786853
v -0.00901999814 -0.00223169614 0.00937031704
v -0.00159492833 0.00519325446 0.0198708673
v -0.0087063585 -0.00280497362 0.00955401856
v -0.0012814079 0.00461997698 0.0200545688
f 1 2 3
f 3 2 4
f 3 4 5
f 5 4 6
f 5 6 7
f 7 6 8
f 7 8 9
f 9 8 10
f 9 10 11
f 11 10 12
f 11 12 13
f 13 12 14
f 13 14 15
f 15 14 16
f 15 16 17
f 17 16 18
f 17 18 19
f 19 18 20
f 19 20 21
f 21 20 22
f 21 22 23
f 23 22 24
f 23 24 25
f 25 24 26
f 25 26 27
f 27 26 28
f 27 28 29
f 29 28 30
f 29 30 31
f 31 30 32
f 31 32 33
f 33 32 34
f 33 34 35
f 35 34 36
f 35 36 37
f 37 36 38
f 37 38 39
f 39 38 40
f 39 40 41
f 41 40 42
f 41 42 43
f 43 42 44
f 43 44 45
f 45 44 46
f 45 46 47
f 47 46 48
f 47 48 1
f 1 48 2
