v -0.00611314742 0.0181339593 -0.0203272204
v -0.00310037104 0.0104996176 -0.0223445992
v -0.00365183321 0.0106015415 -0.0222207407
v -0.00565180747 0.00860156725 -0.0222207407
v -0.00554988352 0.00805010508 -0.0223445992
v -0.0131841656 0.0110628815 -0.0203272204
v 0.00218358072 -0.0043048649 -0.0261507134
v -0.0039725062 0.00647278736 -0.0229423146
v -0.00342104403 0.00637086342 -0.0230660538
v -0.00511381594 0.01006355 -0.0220457415
v -0.0049156901 0.0102346749 -0.0220508675
v -0.00469408003 0.0103758187 -0.0220661263
v -0.00445256201 0.0104846568 -0.0220911602
v -0.00152299372 0.00892224024 -0.0229423146
v -0.00176212756 0.0094439597 -0.0227981905
v 0.00925459894 0.00276615332 -0.0261507134
v -0.00212225882 0.00990041206 -0.0226434569
v -0.00257871119 0.0102604837 -0.0224887232
v -0.00528488127 0.00986548374 -0.0220508675
v -0.00542602507 0.00964375446 -0.0220661263
v -0.00553498236 0.00940229605 -0.0220911602
v -0.00560960738 0.00914510201 -0.0221258501
v -0.00564870802 0.00887670229 -0.0221692423
v -0.00531074969 0.00752844523 -0.0224887232
v -0.00495061842 0.00707199286 -0.0226434569
v -0.00449428526 0.0067119212 -0.0227981905
v -0.00392696825 0.0105985017 -0.0221692423
v -0.00419542757 0.0105593414 -0.0221258501
v -0.00262031523 0.00648774813 -0.0231956343
v -0.00237891642 0.00659658621 -0.0232207875
v -0.00215718714 0.00673773001 -0.0232360463
v -0.0019590613 0.00690885494 -0.0232411723
v -0.00178799597 0.00710692118 -0.0232360463
v -0.00164685217 0.00732859085 -0.0232207875
v -0.00153801409 0.00757010887 -0.0231956343
v -0.00146326987 0.00782730291 -0.0231610636
v -0.0031460282 0.00637390326 -0.0231176714
v -0.00287756888 0.00641306351 -0.0231610636
v -0.00142416922 0.00809570263 -0.0231176714
v -0.00142106978 0.00837083767 -0.0230660538
f 1 2 3
f 4 5 6
f 7 8 9
f 10 6 11
f 11 6 1
f 11 1 12
f 12 1 13
f 14 15 16
f 16 15 17
f 16 17 1
f 1 17 18
f 1 18 2
f 10 19 6
f 6 19 20
f 6 20 21
f 21 22 6
f 6 22 23
f 6 23 4
f 5 24 6
f 6 24 25
f 6 25 7
f 7 25 26
f 7 26 8
f 3 27 1
f 1 27 28
f 1 28 13
f 29 30 7
f 7 30 31
f 7 31 16
f 16 31 32
f 16 32 33
f 33 34 16
f 16 34 35
f 16 35 36
f 9 37 7
f 7 37 38
f 7 38 29
f 36 39 16
f 16 39 40
f 16 40 14
