v -0.0174784419 0.0153570981 0.00716697174
v -0.0104074237 0.0224281759 0.00716697174
v -0.0171855446 0.0150642605 0.00748478371
v -0.0101145264 0.0221352787 0.00748478371
v -0.0168444869 0.0147231431 0.00768457848
v -0.00977334944 0.0217942209 0.00768457848
v -0.0164783951 0.014357111 0.00775276619
v -0.00940737692 0.0214281888 0.00775276619
v -0.0161124226 0.0139910788 0.00768457848
v -0.0090414044 0.0210621567 0.00768457848
v -0.0157713648 0.0136500211 0.00748478371
v -0.00870022742 0.0207210989 0.00748478371
v -0.0154784676 0.0133571238 0.00716697174
v -0.00840733019 0.0204282017 0.00716697174
v -0.0152537581 0.0131323547 0.00675271946
v -0.00818262068 0.0202034325 0.00675271946
v -0.0151123759 0.0129910917 0.00627039868
v -0.00804135767 0.0200621695 0.00627039868
v -0.0150642153 0.0129429312 0.00575267273
v -0.00799319712 0.020014009 0.00575267273
v -0.0151123759 0.0129910917 0.005235066
v -0.00804135767 0.0200621695 0.005235066
v -0.0152537581 0.0131323547 0.00475274521
v -0.00818262068 0.0202034325 0.00475274521
v -0.0154784676 0.0133571238 0.00433849293
v -0.00840733019 0.0204282017 0.00433849293
v -0.0157713648 0.0136500211 0.00402068096
v -0.00870022742 0.0207210989 0.00402068096
v -0.0161124226 0.0139910788 0.00382088619
v -0.0090414044 0.0210621567 0.00382088619
v -0.0164783951 0.014357111 0.00375269848
v -0.00940737692 0.0214281888 0.00375269848
v -0.0168444869 0.0147231431 0.00382088619
v -0.00977334944 0.0217942209 0.00382088619
v -0.0171855446 0.0150642605 0.00402068096
v -0.0101145264 0.0221352787 0.00402068096
v -0.0174784419 0.0153570981 0.00433849293
v -0.0104074237 0.0224281759 0.00433849293
v -0.0177031514 0.0155818672 0.00475274521
v -0.0106321332 0.022652945 0.00475274521
v -0.0178444144 0.0157231302 0.005235066
v -0.0107733962 0.022794208 0.005235066
v -0.0178926942 0.0157713504 0.00575267273
v -0.0108215567 0.0228424282 0.00575267273
v -0.0178444144 0.0157231302 0.00627039868
v -0.0107733962 0.022794208 0.00627039868
v -0.0177031514 0.0155818672 0.00675271946
v -0.0106321332 0.022652945 0.00675271946
v -0.00459823576 0.00813379 0.00758873421
v -0.0146095511 0.0181451053 -0.00656939548
v -0.0144681689 0.0183354826 -0.00644041103
v -0.00435707537 0.00857474516 0.00772999722
v -0.0147326943 0.0179605694 -0.00673152012
v -0.00473222701 0.00768198679 0.00736390549
v -0.0148353335 0.0177850337 -0.00692392391
v -0.00474986998 0.00725015114 0.00707100826
v -0.0149725434 0.017472765 -0.00738597912
v -0.0046499726 0.00686766813 0.00672995049
v -0.0150118825 0.017229578 -0.00792397064
v -0.00443932978 0.00656064461 0.00636397797
v -0.0149506089 0.0170719833 -0.00850130123
v -0.00413236586 0.00635000179 0.00599788624
v -0.0147931334 0.0170107693 -0.00907863182
v -0.00374982325 0.00625010441 0.00565682846
v -0.0145498273 0.0170501084 -0.00961662334
v -0.0033180472 0.00626774738 0.00536393124
v -0.0142376181 0.0171873183 -0.0100786785
v -0.0140620228 0.0172899575 -0.0102710823
v -0.002866244 0.00640173863 0.00513922173
v -0.0138774869 0.0174130411 -0.010433207
v -0.0136872288 0.0175545425 -0.0105621914
v -0.00242516963 0.00664289902 0.00499795872
v -0.013494229 0.0177118988 -0.0106560091
v -0.0133020636 0.0178825469 -0.010712872
v -0.00202510325 0.00697489689 0.00494979817
v -0.0131138322 0.0180635662 -0.0107320647
v -0.0129328725 0.0182517381 -0.010712872
v -0.00169322459 0.00737496327 0.00499795872
v -0.0127621647 0.018443963 -0.0106560091
v -0.0126048085 0.0186369033 -0.0105621914
v -0.00145194499 0.00781597803 0.00513922173
v -0.0124633071 0.0188272805 -0.010433207
v -0.0123401639 0.0190118165 -0.0102710823
v -0.00131807295 0.00826778124 0.00536393124
v -0.0122376439 0.0191873522 -0.0100786785
v -0.00130042998 0.00869961689 0.00565682846
v -0.012100434 0.0194996209 -0.00961662334
v -0.00140032736 0.0090820999 0.00599788624
v -0.0120610949 0.0197428078 -0.00907863182
v -0.00161097018 0.00938906382 0.00636397797
v -0.0121222493 0.0199004025 -0.00850130123
v -0.0019179341 0.00959970663 0.00672995049
v -0.012279844 0.0199616165 -0.00792397064
v -0.0023003575 0.00969960402 0.00707100826
v -0.0125230309 0.0199222774 -0.00738597912
v -0.00273225275 0.00968196104 0.00736390549
v -0.0128353593 0.0197850675 -0.00692392391
v -0.00318405596 0.0095480294 0.00758873421
v -0.00362501112 0.00930680941 0.00772999722
v -0.0135786292 0.0192604871 -0.00634659332
v -0.0133857485 0.0194178433 -0.00644041103
v -0.0131953713 0.0195593448 -0.00656939548
v -0.0130108353 0.0196824283 -0.00673152012
v -0.0143106934 0.0185284228 -0.00634659332
v -0.0141401049 0.0187206478 -0.00628973049
v -0.0040250775 0.00897487114 0.00777815777
v -0.0139591452 0.0189088197 -0.00627053779
v -0.0137709138 0.019089839 -0.00628973049
v -0.000293588319 0.00619502972 0.00600229698
v 1.99321129e-05 0.00676830719 0.0061859985
v 0.00406088861 0.00795992325 0.0041712423
v 0.000194096885 0.00735565136 0.00647818047
v -0.000585770287 0.00908716629 0.00825404125
v -0.00108299223 0.00921704481 0.0086973806
v -0.00098965136 0.0130104036 0.0113136669
v 0.000216985069 0.00791706751 0.00685893494
v 8.71661522e-05 0.00841422985 0.0073023935
v -0.000186657586 0.00881334255 0.00777815777
v -0.00375661818 0.00775476406 0.00955401856
v -0.00407013861 0.00718148659 0.00937031704
v -0.00806066958 0.00593932579 0.0113136669
v -0.00424442259 0.00659408281 0.00907813507
v -0.00426731078 0.00603272627 0.0086973806
v -0.00413737265 0.00553550432 0.00825404125
v -0.00386354891 0.00513639162 0.00777815777
v -0.00301012961 0.000888845426 0.0041712423
v -0.00346443621 0.00486256788 0.0073023935
v -0.00296733347 0.00473268936 0.00685893494
v -0.00240585772 0.00475563715 0.00647818047
v -0.00280497042 0.00870641182 0.00955401856
v -0.00332508055 0.00827487419 0.00961660343
v -0.00181851355 0.00492980192 0.0061859985
v -0.00124523608 0.00524332235 0.00600229698
v -0.000725125947 0.00567485998 0.00593971211
v -0.00164434878 0.00919409702 0.00907813507
v -0.00223169295 0.00901993225 0.00937031704
f 1 2 3
f 3 2 4
f 3 4 5
f 5 4 6
f 5 6 7
f 7 6 8
f 7 8 9
f 9 8 10
f 9 10 11
f 11 10 12
f 11 12 13
f 13 12 14
f 13 14 15
f 15 14 16
f 15 16 17
f 17 16 18
f 17 18 19
f 19 18 20
f 19 20 21
f 21 20 22
f 21 22 23
f 23 22 24
f 23 24 25
f 25 24 26
f 25 26 27
f 27 26 28
f 27 28 29
f 29 28 30
f 29 30 31
f 31 30 32
f 31 32 33
f 33 32 34
f 33 34 35
f 35 34 36
f 35 36 37
f 37 36 38
f 37 38 39
f 39 38 40
f 39 40 41
f 41 40 42
f 41 42 43
f 43 42 44
f 43 44 45
f 45 44 46
f 45 46 47
f 47 46 48
f 47 48 1
f 1 48 2
f 49 50 51
f 49 51 52
f 50 49 53
f 53 49 54
f 53 54 55
f 55 54 56
f 55 56 57
f 57 56 58
f 57 58 59
f 59 58 60
f 59 60 61
f 61 60 62
f 61 62 63
f 63 62 64
f 63 64 65
f 65 64 66
f 65 66 67
f 67 66 68
f 68 66 69
f 68 69 70
f 70 69 71
f 71 69 72
f 71 72 73
f 73 72 74
f 74 72 75
f 74 75 76
f 76 75 77
f 77 75 78
f 77 78 79
f 79 78 80
f 80 78 81
f 80 81 82
f 82 81 83
f 83 81 84
f 83 84 85
f 85 84 86
f 85 86 87
f 87 86 88
f 87 88 89
f 89 88 90
f 89 90 91
f 91 90 92
f 91 92 93
f 93 92 94
f 93 94 95
f 95 94 96
f 95 96 97
f 98 99 100
f 100 101 98
f 98 101 102
f 98 102 96
f 96 102 103
f 96 103 97
f 51 104 52
f 52 104 105
f 52 105 106
f 106 105 107
f 106 107 99
f 99 107 108
f 99 108 100
f 109 110 111
f 111 110 112
f 113 114 115
f 112 116 111
f 111 116 117
f 111 117 115
f 115 117 118
f 115 118 113
f 119 120 121
f 121 120 122
f 121 122 123
f 123 124 121
f 121 124 125
f 121 125 126
f 125 127 126
f 126 127 128
f 126 128 129
f 115 130 121
f 121 130 131
f 121 131 119
f 129 132 126
f 126 132 133
f 126 133 111
f 111 133 134
f 111 134 109
f 114 135 115
f 115 135 136
f 115 136 130
