v -0.00804135767 0.0200621695 0.00627039868
v -0.00818262068 0.0202034325 0.00675271946
v -0.00198957888 0.0140103907 0.00989948708
v 0.00615038904 0.00587048243 -0.00499607128
v 0.00678565534 0.00523515652 -0.0048782925
v 0.0113029722 0.000717899305 -0.0208040575
v -0.01248095 0.0245017619 0.00458799797
v -0.0125881192 0.0246088714 0.00562452275
v -0.0108215567 0.0228424282 0.00575267273
v -0.00799319712 0.020014009 0.00575267273
v -0.00528964964 0.0173104019 -0.0179805855
v -0.00492355792 0.0169443698 -0.017912517
v -0.00611314742 0.0181339593 -0.0203272204
v 0.00907816919 0.00294264267 -0.0232182841
v 0.00925459894 0.00276615332 -0.0261507134
v 0.00885345968 0.00316735218 -0.0228040318
v 0.0114923957 0.000528416139 -0.0218039851
v 0.0132583621 -0.00123755028 -0.0216515164
v 0.0114442352 0.000576576692 -0.022321711
v 0.0131970886 -0.0011762767 -0.0226954321
v 0.0113029722 0.000717899305 -0.0228040318
v 0.00795986684 0.00406094502 -0.00417126221
v 0.0130104068 -0.000989594954 -0.0113136868
v 0.00739553007 0.00462528179 -0.00460029644
v -0.00665566889 0.0186764211 -0.0154630045
v -0.00670382945 0.0187246413 -0.0159806113
v -0.00836310355 0.020383975 -0.017145286
v -0.00665566889 0.0186764211 -0.016498218
v -0.00812480418 0.0201455564 -0.0180236201
v -0.00651428668 0.0185351581 -0.016980658
v -0.00776240794 0.0197832794 -0.0188125471
v -0.00628957716 0.018310389 -0.0173947911
v -0.00729212729 0.0193128795 -0.019477735
v -0.00599667994 0.0180174918 -0.0177127222
v -0.00673422781 0.0187549801 -0.0199900965
v 0.00866403612 0.00335683535 -0.0218039851
v 0.00871219667 0.00330867479 -0.022321711
v 0.00907816919 0.00294264267 -0.0203898053
v -0.0040648934 0.0160856457 -0.016980658
v 0.00251045259 0.00951041887 -0.00070715946
v -0.00392351119 0.0159443826 -0.016498218
v -0.00387535063 0.0158962221 -0.0159806113
v 0.0114442352 0.000576576692 -0.0212863783
v -0.0107733962 0.022794208 0.00627039868
v -0.0125227925 0.024543664 0.00666796166
v -0.0106321332 0.022652945 0.00675271946
v -0.0122887847 0.0243095965 0.0076618095
v -0.0104074237 0.0224281759 0.00716697174
v -0.00565562216 0.017676434 -0.017912517
v -0.00458250014 0.016603312 -0.0177127222
v -0.00428960291 0.0163104148 -0.0173947911
v 0.00871219667 0.00330867479 -0.0212863783
v 0.00885345968 0.00316735218 -0.0208040575
v 0.0129668954 -0.000946083563 -0.0236910681
v 0.0125800613 -0.000559309024 -0.0245844225
v 0.0110781434 0.000942608816 -0.0232182841
v 0.0120578054 -3.69339167e-05 -0.0253272156
v 0.0107852462 0.00123550604 -0.023536096
v 0.0114281419 0.000592669946 -0.0258790354
v 0.0104441884 0.00157662342 -0.0237358908
v 0.0107254032 0.00129540871 -0.0262099604
v 0.0100782159 0.00194259594 -0.0238040785
v 0.00998761686 0.00203325461 -0.0263022284
v 0.00971212419 0.00230862806 -0.0237358908
v 0.00937106641 0.00264974545 -0.023536096
v 0.00306096109 0.00895991037 0.00275694329
v 0.00275745424 0.00926329802 0.00195883709
v -0.00804135767 0.0200621695 0.005235066
v 0.00256087812 0.00945987414 0.00109635788
v -0.00818262068 0.0202034325 0.00475274521
v -0.00840733019 0.0204282017 0.00716697174
v -0.00870022742 0.0207210989 0.00748478371
v -0.00929949252 0.0213203044 0.0102500816
v -0.0090414044 0.0210621567 0.00768457848
v -0.00940737692 0.0214281888 0.00775276619
v -0.0100376364 0.0220585079 0.0101635357
v -0.00977334944 0.0217942209 0.00768457848
v -0.0107416865 0.022762558 0.00983797508
v -0.0101145264 0.0221352787 0.00748478371
v -0.0113733765 0.023394248 0.00929092365
v -0.0118986127 0.0239194245 0.0085523029
v 0.0107852462 0.00123550604 -0.0200719933
v 0.0104441884 0.00157662342 -0.0198721985
v 0.00551035436 0.00651039789 -0.00494969887
v 0.0100782159 0.00194259594 -0.0198040108
v 0.00971212419 0.00230862806 -0.0198721985
v 0.00937106641 0.00264974545 -0.0200719933
v -0.00392351119 0.0159443826 -0.0154630045
v -0.0040648934 0.0160856457 -0.0149805645
v -0.00428960291 0.0163104148 -0.0145664315
v -0.0107733962 0.022794208 0.005235066
v -0.0106321332 0.022652945 0.00475274521
v -0.0104074237 0.0224281759 0.00433849293
v -0.0101145264 0.0221352787 0.00402068096
v -0.00977334944 0.0217942209 0.00382088619
v -0.00628957716 0.018310389 -0.0145664315
v -0.00940737692 0.0214281888 0.00375269848
v 0.0110781434 0.000942608816 -0.0203898053
v 0.00247767004 0.00954314182 0.000197877466
v -0.00840733019 0.0204282017 0.00433849293
v -0.00870022742 0.0207210989 0.00402068096
v -0.00651428668 0.0185351581 -0.0149805645
v -0.00458250014 0.016603312 -0.0142486195
v -0.00492355792 0.0169443698 -0.0140487055
v -0.00528964964 0.0173104019 -0.013980637
v -0.0090414044 0.0210621567 0.00382088619
v -0.00565562216 0.017676434 -0.0140487055
v -0.00599667994 0.0180174918 -0.0142486195
v -0.00202510325 0.00697489689 0.00494979817
v -0.00401017634 0.00188883255 0.00275694329
v -0.00169322459 0.00737496327 0.00499795872
v -0.00130042998 0.00869961689 0.00565682846
v -0.00131807295 0.00826778124 0.00536393124
v -0.00145194499 0.00781597803 0.00513922173
v -0.0040250775 0.00897487114 0.00777815777
v -0.00362501112 0.00930680941 0.00772999722
v -0.00242516963 0.00664289902 0.00499795872
v -0.002866244 0.00640173863 0.00513922173
v -0.0033180472 0.00626774738 0.00536393124
v -0.00435707537 0.00857474516 0.00772999722
v -0.00906071631 0.00693931292 0.00989948708
v -0.00459823576 0.00813379 0.00758873421
v -0.00318405596 0.0095480294 0.00758873421
v -0.00273225275 0.00968196104 0.00736390549
v -0.0023003575 0.00969960402 0.00707100826
v -0.0019179341 0.00959970663 0.00672995049
v -0.00161097018 0.00938906382 0.00636397797
v -0.00140032736 0.0090820999 0.00599788624
v -0.00374982325 0.00625010441 0.00565682846
v -0.00413236586 0.00635000179 0.00599788624
v -0.00443932978 0.00656064461 0.00636397797
v -0.0046499726 0.00686766813 0.00672995049
v -0.00474986998 0.00725015114 0.00707100826
v -0.00473222701 0.00768198679 0.00736390549
v 0.00218358072 -0.0043048649 -0.0261507134
v 0.00291647943 -0.00503782322 -0.0263022284
v 0.00365438493 -0.00577566912 -0.0262099604
v 0.00435712369 -0.00647840788 -0.0258790354
v 0.00498666795 -0.00710801174 -0.0253272156
v 0.00550904306 -0.00763038685 -0.0245844225
v 0.0058958772 -0.00801716139 -0.0236910681
v 0.00612607034 -0.00824735453 -0.0226954321
v 0.00618722471 -0.0083085685 -0.0216515164
v 0.000888848624 -0.00301013281 -0.00417126221
v 0.000324511848 -0.00244579603 -0.00460029644
v -0.000285362878 -0.00183592131 -0.0048782925
v -0.000920748391 -0.0012005954 -0.00499607128
v -0.00156066386 -0.00056067993 -0.00494969887
v -0.00456068484 0.00243934105 -0.00070715946
v 0.00200715097 -0.00412843515 -0.0203898053
v 0.00230004819 -0.00442133238 -0.0200719933
v 0.00264110597 -0.00476244976 -0.0198721985
v 0.00300707849 -0.00512842228 -0.0198040108
v 0.00337317022 -0.0054944544 -0.0198721985
v 0.003714228 -0.00583557178 -0.0200719933
v 0.00400712522 -0.00612846901 -0.0203898053
v 0.00423183473 -0.00635317852 -0.0208040575
v 0.00437309774 -0.00649450113 -0.0212863783
v 0.0044213775 -0.00654266168 -0.0218039851
v 0.00437309774 -0.00649450113 -0.022321711
v 0.00423183473 -0.00635317852 -0.0228040318
v 0.00400712522 -0.00612846901 -0.0232182841
v 0.003714228 -0.00583557178 -0.023536096
v 0.00337317022 -0.0054944544 -0.0237358908
v 0.00300707849 -0.00512842228 -0.0238040785
v 0.00264110597 -0.00476244976 -0.0237358908
v 0.00230004819 -0.00442133238 -0.023536096
v 0.00200715097 -0.00412843515 -0.0232182841
v 0.00178232225 -0.00390372564 -0.0228040318
v 0.00164105924 -0.00376240303 -0.022321711
v 0.00159289869 -0.00371424248 -0.0218039851
v 0.00164105924 -0.00376240303 -0.0212863783
v 0.00178232225 -0.00390372564 -0.0208040575
f 1 2 3
f 4 5 6
f 7 8 9
f 1 3 10
f 11 12 13
f 14 15 16
f 16 15 13
f 17 18 19
f 19 18 20
f 19 20 21
f 22 23 24
f 24 23 18
f 25 26 27
f 27 26 28
f 27 28 29
f 29 28 30
f 29 30 31
f 31 30 32
f 31 32 33
f 33 32 34
f 33 34 35
f 12 36 13
f 13 36 37
f 13 37 16
f 38 39 40
f 40 39 41
f 40 41 42
f 5 24 6
f 6 24 18
f 6 18 43
f 43 18 17
f 9 8 44
f 44 8 45
f 44 45 46
f 46 45 47
f 46 47 48
f 35 34 13
f 13 34 49
f 13 49 11
f 12 50 36
f 36 50 51
f 36 51 52
f 52 51 39
f 52 39 53
f 53 39 38
f 20 54 21
f 21 54 55
f 21 55 56
f 56 55 57
f 56 57 58
f 58 57 59
f 58 59 60
f 60 59 61
f 60 61 62
f 62 61 63
f 62 63 64
f 64 63 15
f 64 15 65
f 65 15 14
f 3 66 10
f 10 66 67
f 10 67 68
f 68 67 69
f 68 69 70
f 2 71 3
f 3 71 72
f 3 72 73
f 72 74 73
f 73 74 75
f 73 75 76
f 76 75 77
f 76 77 78
f 78 77 79
f 78 79 80
f 80 79 48
f 80 48 81
f 81 48 47
f 82 83 84
f 83 85 84
f 84 85 86
f 84 86 40
f 40 86 87
f 40 87 38
f 42 88 40
f 40 88 89
f 40 89 90
f 9 91 7
f 7 91 92
f 7 92 93
f 94 95 96
f 96 95 97
f 4 6 84
f 84 6 98
f 84 98 82
f 69 99 70
f 70 99 40
f 70 40 100
f 100 40 101
f 25 27 102
f 102 27 7
f 102 7 96
f 96 7 93
f 96 93 94
f 90 103 40
f 40 103 104
f 40 104 101
f 101 104 105
f 101 105 106
f 106 105 107
f 106 107 97
f 97 107 108
f 97 108 96
f 109 110 111
f 111 110 66
f 112 113 66
f 66 113 114
f 66 114 111
f 3 115 116
f 109 117 110
f 110 117 118
f 110 118 119
f 115 3 120
f 120 3 121
f 120 121 122
f 116 123 3
f 3 123 124
f 3 124 125
f 125 126 3
f 3 126 127
f 3 127 66
f 66 127 128
f 66 128 112
f 119 129 110
f 110 129 130
f 110 130 121
f 121 130 131
f 121 131 132
f 132 133 121
f 121 133 134
f 121 134 122
f 135 15 63
f 135 63 136
f 136 63 61
f 136 61 137
f 137 61 59
f 137 59 138
f 138 59 57
f 138 57 139
f 139 57 55
f 139 55 140
f 140 55 54
f 140 54 141
f 141 54 20
f 141 20 142
f 142 20 18
f 142 18 143
f 144 22 145
f 145 22 24
f 145 24 146
f 146 24 5
f 146 5 147
f 147 5 4
f 147 4 148
f 148 4 84
f 149 148 40
f 40 148 84
f 150 38 151
f 151 38 87
f 151 87 152
f 152 87 86
f 152 86 153
f 153 86 85
f 153 85 154
f 154 85 83
f 154 83 155
f 155 83 82
f 155 82 156
f 156 82 98
f 156 98 157
f 157 98 6
f 157 6 158
f 158 6 43
f 158 43 159
f 159 43 17
f 159 17 160
f 160 17 19
f 160 19 161
f 161 19 21
f 161 21 162
f 162 21 56
f 162 56 163
f 163 56 58
f 163 58 164
f 164 58 60
f 164 60 165
f 165 60 62
f 165 62 166
f 166 62 64
f 166 64 167
f 167 64 65
f 167 65 168
f 168 65 14
f 168 14 169
f 169 14 16
f 169 16 170
f 170 16 37
f 170 37 171
f 171 37 36
f 171 36 172
f 172 36 52
f 172 52 173
f 173 52 53
f 173 53 150
f 150 53 38
