v 0.0163706269 -0.014249236 0.0102500816
v 0.00906071323 -0.0069393224 0.00989948708
v 0.00929948943 -0.0213203735 0.0102500816
v 0.0019895758 -0.0140104598 0.00989948708
v 0.012480947 -0.0245017118 0.00458799797
v 0.0125230278 -0.0199222869 -0.00738597912
v 0.0128353562 -0.019785077 -0.00692392391
v 0.0149725403 -0.0174727744 -0.00738597912
v 0.0150118794 -0.0172295875 -0.00792397064
v 0.0195519652 -0.0174306936 0.00458799797
v 0.0149506058 -0.0170719928 -0.00850130123
v 0.0154342379 -0.0133128471 -0.017145286
v 0.0147931303 -0.0170108384 -0.00907863182
v 0.0145498242 -0.0170501775 -0.00961662334
v 0.014237615 -0.0171873874 -0.0100786786
v 0.0121004309 -0.0194995708 -0.00961662334
v 0.0120610918 -0.0197428769 -0.00907863182
v 0.00836310046 -0.0203839845 -0.017145286
v 0.0121222462 -0.0199004716 -0.00850130123
v 0.0122798409 -0.019961626 -0.00792397064
v 0.0133857455 -0.0194179124 -0.00644041103
v 0.0135786261 -0.0192604369 -0.00634659332
v 0.0137709107 -0.0190898484 -0.00628973049
v 0.0139591421 -0.0189088887 -0.0062705378
v 0.0141401018 -0.0187206573 -0.00628973049
v 0.0136872258 -0.017554552 -0.0105621914
v 0.0134942259 -0.0177119083 -0.0106560091
v 0.0133020605 -0.017882616 -0.010712872
v 0.0131138291 -0.0180635757 -0.0107320647
v 0.0129328694 -0.0182518071 -0.010712872
v 0.0143106903 -0.0185283727 -0.00634659332
v 0.0144681658 -0.0183354921 -0.00644041103
v 0.014609548 -0.0181451148 -0.00656939548
v 0.0127621617 -0.0184439725 -0.0106560091
v 0.0126048054 -0.0186369724 -0.0105621914
v 0.012463304 -0.0188272304 -0.010433207
v 0.0130108322 -0.0196824378 -0.00673152012
v 0.0131953682 -0.0195592946 -0.00656939548
v 0.0147326912 -0.0179605788 -0.00673152012
v 0.0148353304 -0.0177851028 -0.00692392391
v 0.0140620198 -0.0172900266 -0.0102710823
v 0.0138774838 -0.0174130506 -0.010433207
v 0.01234028 -0.0190117664 -0.0102710823
v 0.0122376408 -0.0191873616 -0.0100786786
f 1 2 3
f 3 2 4
f 5 6 7
f 8 9 10
f 10 9 11
f 10 11 12
f 11 13 12
f 12 13 14
f 12 14 15
f 16 17 18
f 18 17 19
f 18 19 5
f 5 19 20
f 5 20 6
f 21 22 5
f 22 23 5
f 5 23 24
f 5 24 10
f 10 24 25
f 26 27 12
f 12 27 28
f 12 28 18
f 18 28 29
f 18 29 30
f 25 31 10
f 10 31 32
f 10 32 33
f 30 34 18
f 18 34 35
f 18 35 36
f 7 37 5
f 5 37 38
f 5 38 21
f 33 39 10
f 10 39 40
f 10 40 8
f 15 41 12
f 12 41 42
f 12 42 26
f 36 43 18
f 18 43 44
f 18 44 16
