v 0.0148044552 0.0126831145 0.0130985876
v 0.00773331779 0.0197541923 0.0130985876
v 0.00815710681 0.0201779218 0.0140299698
v 0.015228125 0.0131068439 0.0140299698
v 0.00840708869 0.0204279632 0.0150796075
v 0.0154782261 0.0133568854 0.0150796075
v 0.00846836227 0.0204891176 0.016183724
v 0.0155393805 0.0134180994 0.016183724
v 0.00833699363 0.0203578086 0.0172755619
v 0.0154080119 0.0132867308 0.0172755619
v 0.0080209698 0.0200418444 0.01828896
v 0.0150921072 0.0129707665 0.01828896
v 0.00753960269 0.0195604176 0.0191626449
v 0.0146106209 0.0124893398 0.0191626449
v 0.00692186015 0.0189426751 0.0198434492
v 0.0139929976 0.0118716569 0.0198434492
v 0.00620529312 0.0182261081 0.0202902456
v 0.0132763113 0.0111550302 0.0202902456
v 0.00543317455 0.0174540491 0.0204759737
v 0.012504312 0.0103829713 0.0204759737
v 0.00465247291 0.0166732879 0.0203894277
v 0.0117234911 0.00960221003 0.0203894277
v 0.00391027587 0.0159311504 0.020035853
v 0.0109814133 0.0088600726 0.020035853
v 0.00325164455 0.0152725191 0.0194365879
v 0.010322782 0.00820144127 0.0194365879
v 0.0017251696 0.00667484711 -0.00452543301
v 0.0091501202 0.0140998573 0.00597499806
v 0.00224527973 0.00624330948 -0.00458813709
v 0.00967023033 0.0136683197 0.00591241318
v 0.0028185572 0.00592978905 -0.00477183861
v 0.0102435078 0.0133547993 0.00572871166
v 0.00340590137 0.00575562428 -0.00506402058
v 0.010830852 0.0131806345 0.00543652969
v 0.00396725791 0.00573267649 -0.00544477505
v 0.0113923277 0.0131576867 0.00505577522
v 0.00446447986 0.00586255501 -0.00588811439
v 0.0118895497 0.0132875652 0.00461243588
v 0.00486359256 0.00613637875 -0.00636399788
v 0.0122886624 0.013561389 0.00413655239
v 0.0051374163 0.00653549145 -0.00683976215
v 0.0125623669 0.0139605017 0.00366078812
v 0.00526723522 0.0070327134 -0.00728322071
v 0.012692305 0.0144577236 0.00321732956
v 0.00524434703 0.00759412955 -0.00766397518
v 0.0126694168 0.0150191398 0.00283657509
v 0.00507018226 0.00818147372 -0.00795615715
v 0.0124952521 0.0156064839 0.00254439312
v 0.00475666183 0.00875475119 -0.00813973946
v 0.0121816124 0.0161797614 0.00236069161
v 0.0043251242 0.00927486132 -0.00820244354
v 0.0117500748 0.0166998715 0.00229810673
v 0.00380501407 0.00970639895 -0.00813973946
v 0.0112299647 0.0171314092 0.00236069161
v 0.0032317366 0.0100199194 -0.00795615715
v 0.0106566872 0.0174449296 0.00254439312
v 0.00264439243 0.0101940842 -0.00766397518
v 0.010069343 0.0176190944 0.00283657509
v 0.00208291667 0.0102170319 -0.00728322071
v 0.00950798648 0.0176420421 0.00321732956
v 0.00158581394 0.0100871534 -0.00683976215
v 0.00901076454 0.0175121636 0.00366078812
v 0.00118670123 0.00981332968 -0.00636399788
v 0.00861165183 0.0172383399 0.00413655239
v 0.000912877496 0.00941421698 -0.00588811439
v 0.0083378281 0.0168392272 0.00461243588
v 0.000782939371 0.00891705464 -0.00544477505
v 0.00820800918 0.0163420648 0.00505577522
v 0.000805946764 0.00835563849 -0.00506402058
v 0.00823089736 0.0157806487 0.00543652969
v 0.000980111536 0.00776829432 -0.00477183861
v 0.00840506214 0.0151933045 0.00572871166
v 0.00129363197 0.00719501685 -0.00458813709
v 0.00871858257 0.014620027 0.00591241318
f 1 2 3
f 1 3 4
f 4 3 5
f 4 5 6
f 6 5 7
f 6 7 8
f 8 7 9
f 8 9 10
f 10 9 11
f 10 11 12
f 12 11 13
f 12 13 14
f 14 13 15
f 14 15 16
f 16 15 17
f 16 17 18
f 18 17 19
f 18 19 20
f 20 19 21
f 20 21 22
f 22 21 23
f 22 23 24
f 24 23 25
f 24 25 26
f 27 28 29
f 29 28 30
f 29 30 31
f 31 30 32
f 31 32 33
f 33 32 34
f 33 34 35
f 35 34 36
f 35 36 37
f 37 36 38
f 37 38 39
f 39 38 40
f 39 40 41
f 41 40 42
f 41 42 43
f 43 42 44
f 43 44 45
f 45 44 46
f 45 46 47
f 47 46 48
f 47 48 49
f 49 48 50
f 49 50 51
f 51 50 52
f 51 52 53
f 53 52 54
f 53 54 55
f 55 54 56
f 55 56 57
f 57 56 58
f 57 58 59
f 59 58 60
f 59 60 61
f 61 60 62
f 61 62 63
f 63 62 64
f 63 64 65
f 65 64 66
f 65 66 67
f 67 66 68
f 67 68 69
f 69 68 70
f 69 70 71
f 71 70 72
f 71 72 73
f 73 72 74
f 73 74 27
f 27 74 28
