v 0.000293585235 -0.00619497959 0.00600229698
v -1.99351966e-05 -0.00676825707 0.0061859985
v -0.00406089169 -0.00795987313 0.00417124229
v -0.000194099969 -0.00735560124 0.00647818047
v 0.00424441951 -0.0065940923 0.00907813507
v 0.00426730769 -0.00603273575 0.0086973806
v 0.0080606665 -0.00593939488 0.0113136669
v 0.00296733039 -0.00473275845 0.00685893494
v 0.00240585464 -0.00475564663 0.00647818047
v 0.00301012653 -0.000888854907 0.00417124229
v 0.00332507747 -0.00827482407 0.00961660343
v 0.0037566151 -0.00775471394 0.00955401856
v 0.00407025474 -0.00718143647 0.00937031704
v -0.000216988152 -0.00791707699 0.00685893494
v -8.71692359e-05 -0.00841429894 0.00730239349
v 0.000989648277 -0.0130104131 0.0113136669
v 0.000186654502 -0.00881329243 0.00777815777
v 0.000585767204 -0.00908711617 0.00825404125
v 0.00280496734 -0.0087063617 0.00955401856
v 0.00223168986 -0.00902000134 0.00937031704
v 0.00108298915 -0.00921705429 0.0086973806
v 0.00164434569 -0.00919416611 0.00907813507
v 0.00181851047 -0.0049298114 0.0061859985
v 0.00124523299 -0.00524333184 0.00600229698
v 0.000725122863 -0.00567486946 0.00593971211
v 0.00413736957 -0.0055355138 0.00825404125
v 0.00386354583 -0.0051364011 0.00777815777
v 0.00346455234 -0.00486257737 0.00730239349
v -0.00970640523 0.00380501087 -0.00813973946
v -0.0100199257 0.0032317334 -0.00795615715
v -0.0140104566 0.0019895726 -0.00989950699
v -0.0101940904 0.00264438923 -0.00766397518
v -0.0102170978 0.00208291347 -0.00728322071
v -0.00891700131 0.000782936169 -0.00544477505
v -0.00835564477 0.000805943562 -0.00506402058
v -0.00895991666 -0.00306096737 -0.0027569632
v -0.0100871597 0.00158581073 -0.00683976215
v -0.00981333596 0.00118669803 -0.00636399788
v -0.00941422326 0.000912874295 -0.00588811439
v -0.00759413583 0.00524434383 -0.00766397518
v -0.0069393192 0.00906071003 -0.00989950699
v -0.00703266007 0.00526735122 -0.00728322071
v -0.00653555734 0.0051374131 -0.00683976215
v -0.0077683006 0.000980108334 -0.00477183861
v -0.00719502313 0.00129362877 -0.00458813709
v -0.00188877923 0.00401017006 -0.0027569632
v -0.006674913 0.00172516639 -0.00452543301
v -0.00624337537 0.00224527652 -0.00458813709
v -0.00592985494 0.002818554 -0.00477183861
v -0.00575569016 0.00340589817 -0.00506402058
v -0.00818148 0.00507017906 -0.00795615715
v -0.00875475747 0.00475665863 -0.00813973946
v -0.0092748676 0.004325121 -0.00820244354
v -0.00573268277 0.00396725471 -0.00544477505
v -0.0058626209 0.00446447666 -0.00588811439
v -0.00613644463 0.00486358936 -0.00636399788
v -0.0142492328 0.0163706237 -0.0102501015
v -0.0213203703 0.00929948623 -0.0102501015
v -0.0220762764 0.0100555115 -0.0101584296
v -0.0150052581 0.0171265298 -0.0101584296
v -0.0227953468 0.010774582 -0.00981617969
v -0.0157243286 0.0178456002 -0.00981617969
v -0.0234366928 0.011415928 -0.00924290222
v -0.0163656746 0.0184869462 -0.00924290222
v -0.0239638363 0.0119430714 -0.00847126049
v -0.016892818 0.0190140897 -0.00847126049
v -0.0243468557 0.0123260909 -0.00754500431
v -0.0172758375 0.0193971091 -0.00754500431
v -0.0245639358 0.012543171 -0.0065169434
v -0.0174929176 0.0196141892 -0.0065169434
v -0.0246027981 0.012581914 -0.00544525188
v -0.0175316606 0.0196530514 -0.00544525188
v -0.0244610582 0.0124401742 -0.00439120335
v -0.0173899208 0.0195113116 -0.00439120335
v -0.0241469417 0.0121260577 -0.00341452164
v -0.0170758043 0.0191971951 -0.00341452164
v -0.0236782108 0.0116573268 -0.00257075828
v -0.0166070734 0.0187284642 -0.00257075828
v -0.0126830612 0.014804452 0.0130985876
v -0.010049728 0.0121711188 0.00863276917
v -0.0197541986 0.00773331459 0.0130985876
v -0.0171208654 0.00509998138 0.00863276917
v -0.00923934323 0.0113606148 0.0173947712
v -0.0163103615 0.00428959663 0.0173947712
v -0.00953224046 0.0116535121 0.0177127023
v -0.0166032587 0.00458249386 0.0177127023
v -0.00987329823 0.0119946891 0.0179124971
v -0.0169444357 0.00492355163 0.0179124971
v -0.01023939 0.0123606616 0.0179805656
v -0.0173104082 0.00528964336 0.0179805656
v -0.0106053625 0.0127266341 0.0179124971
v -0.0176763807 0.00565561588 0.0179124971
v -0.0109464203 0.0130678111 0.0177127023
v -0.0180175577 0.00599667366 0.0177127023
v -0.0112393175 0.0133607083 0.0173947712
v -0.0183104549 0.00628957088 0.0173947712
v -0.011464027 0.0135854178 0.0169806381
v -0.0185351644 0.00651428039 0.0169806381
v -0.0116054092 0.0137266808 0.0164981981
v -0.0186764274 0.00665566261 0.0164981981
v -0.0116535698 0.0137748414 0.0159805914
v -0.018724588 0.00670382316 0.0159805914
v -0.0116054092 0.0137266808 0.0154629846
v -0.0186764274 0.00665566261 0.0154629846
v -0.011464027 0.0135854178 0.0149806638
v -0.0185351644 0.00651428039 0.0149806638
v -0.0112393175 0.0133607083 0.0145664116
v -0.0183104549 0.00628957088 0.0145664116
v -0.0109464203 0.0130678111 0.0142485996
v -0.0180175577 0.00599667366 0.0142485996
v -0.0106053625 0.0127266341 0.0140488048
v -0.0176763807 0.00565561588 0.0140488048
v -0.01023939 0.0123606616 0.0139806171
v -0.0173104082 0.00528964336 0.0139806171
v -0.00987329823 0.0119946891 0.0140488048
v -0.0169444357 0.00492355163 0.0140488048
v -0.00953224046 0.0116535121 0.0142485996
v -0.0166032587 0.00458249386 0.0142485996
v -0.00923934323 0.0113606148 0.0145664116
v -0.0163103615 0.00428959663 0.0145664116
v -0.00901463372 0.0111359053 0.0149806638
v -0.0160856519 0.00406488712 0.0149806638
v -0.00887337071 0.0109946423 0.0154629846
v -0.0159443889 0.00392362411 0.0154629846
v -0.00882509095 0.0109464818 0.0159805914
v -0.0158962284 0.00387534435 0.0159805914
v -0.00887337071 0.0109946423 0.0164981981
v -0.0159443889 0.00392362411 0.0164981981
v -0.00901463372 0.0111359053 0.0169806381
v -0.0160856519 0.00406488712 0.0169806381
v -0.0140998636 0.00915011699 0.00597499806
v -0.013668326 0.00967022712 0.00591241318
v -0.0133548055 0.0102435046 0.00572871166
v -0.0131806408 0.0108308488 0.00543652969
v -0.0131577526 0.0113923245 0.00505577522
v -0.0132875715 0.0118895465 0.00461243588
v -0.0135613952 0.0122886592 0.00413655239
v -0.0139605079 0.0125624829 0.00366078812
v -0.0144577299 0.0126923018 0.00321732956
v -0.0150190864 0.0126694136 0.00283657509
v -0.0156064306 0.0124952489 0.00254439312
v -0.0161797081 0.0121816092 0.00236069161
v -0.0166998182 0.0117500716 0.00229810673
v -0.0171313558 0.0112299615 0.00236069161
v -0.0174449955 0.010656684 0.00254439312
v -0.0176191602 0.0100693398 0.00283657509
v -0.0176420484 0.00950798328 0.00321732956
v -0.0175122295 0.00901076133 0.00366078812
v -0.0172384058 0.00861164863 0.00413655239
v -0.0168392931 0.00833782489 0.00461243588
v -0.0163420711 0.00820800598 0.00505577522
v -0.0157805954 0.00823089416 0.00543652969
v -0.0151932512 0.00840505893 0.00572871166
v -0.0146199737 0.00871857937 0.00591241318
f 1 2 3
f 3 2 4
f 5 6 7
f 8 9 10
f 11 12 7
f 7 12 13
f 7 13 5
f 4 14 3
f 3 14 15
f 3 15 16
f 16 15 17
f 16 17 18
f 11 7 19
f 19 7 16
f 19 16 20
f 18 21 16
f 16 21 22
f 16 22 20
f 9 23 10
f 10 23 24
f 10 24 3
f 3 24 25
f 3 25 1
f 6 26 7
f 7 26 27
f 7 27 10
f 10 27 28
f 10 28 8
f 29 30 31
f 31 30 32
f 31 32 33
f 34 35 36
f 33 37 31
f 31 37 38
f 31 38 36
f 36 38 39
f 36 39 34
f 40 41 42
f 42 41 43
f 35 44 36
f 36 44 45
f 36 45 46
f 46 45 47
f 47 48 46
f 46 48 49
f 46 49 50
f 40 51 41
f 41 51 52
f 41 52 31
f 31 52 53
f 31 53 29
f 50 54 46
f 46 54 55
f 46 55 41
f 41 55 56
f 41 56 43
f 57 58 59
f 57 59 60
f 60 59 61
f 60 61 62
f 62 61 63
f 62 63 64
f 64 63 65
f 64 65 66
f 66 65 67
f 66 67 68
f 68 67 69
f 68 69 70
f 70 69 71
f 70 71 72
f 72 71 73
f 72 73 74
f 74 73 75
f 74 75 76
f 76 75 77
f 76 77 78
f 79 80 81
f 81 80 82
f 83 84 85
f 85 84 86
f 85 86 87
f 87 86 88
f 87 88 89
f 89 88 90
f 89 90 91
f 91 90 92
f 91 92 93
f 93 92 94
f 93 94 95
f 95 94 96
f 95 96 97
f 97 96 98
f 97 98 99
f 99 98 100
f 99 100 101
f 101 100 102
f 101 102 103
f 103 102 104
f 103 104 105
f 105 104 106
f 105 106 107
f 107 106 108
f 107 108 109
f 109 108 110
f 109 110 111
f 111 110 112
f 111 112 113
f 113 112 114
f 113 114 115
f 115 114 116
f 115 116 117
f 117 116 118
f 117 118 119
f 119 118 120
f 119 120 121
f 121 120 122
f 121 122 123
f 123 122 124
f 123 124 125
f 125 124 126
f 125 126 127
f 127 126 128
f 127 128 129
f 129 128 130
f 129 130 83
f 83 130 84
f 47 131 48
f 48 131 132
f 48 132 49
f 49 132 133
f 49 133 50
f 50 133 134
f 50 134 54
f 54 134 135
f 54 135 55
f 55 135 136
f 55 136 56
f 56 136 137
f 56 137 43
f 43 137 138
f 43 138 42
f 42 138 139
f 42 139 40
f 40 139 140
f 40 140 51
f 51 140 141
f 51 141 52
f 52 141 142
f 52 142 53
f 53 142 143
f 53 143 29
f 29 143 144
f 29 144 30
f 30 144 145
f 30 145 32
f 32 145 146
f 32 146 33
f 33 146 147
f 33 147 37
f 37 147 148
f 37 148 38
f 38 148 149
f 38 149 39
f 39 149 150
f 39 150 34
f 34 150 151
f 34 151 35
f 35 151 152
f 35 152 44
f 44 152 153
f 44 153 45
f 45 153 154
f 45 154 47
f 47 154 131
