v -0.0021835838 0.00430485542 -0.0261507134
v -0.00925460202 -0.0027661628 -0.0261507134
v -0.00998761994 -0.00203326409 -0.0263022284
v -0.00291648251 0.00503787334 -0.0263022284
v -0.0107254062 -0.00129535858 -0.0262099604
v -0.00365438802 0.00577565963 -0.0262099604
v -0.011428145 -0.000592619823 -0.0258790354
v -0.00435712678 0.0064783984 -0.0258790354
v -0.0120578085 3.69244354e-05 -0.0253272156
v -0.00498667104 0.00710806186 -0.0253272156
v -0.0125800644 0.000559299542 -0.0245844225
v -0.00550904614 0.00763031776 -0.0245844225
v -0.0129668985 0.000946014477 -0.0236910681
v -0.00589576108 0.00801715191 -0.0236910681
v -0.0131970916 0.00117632682 -0.0226954321
v -0.00612607343 0.00824734504 -0.0226954321
v -0.0132583652 0.00123748119 -0.0216515164
v -0.00618722779 0.00830861862 -0.0216515164
f 1 2 3
f 1 3 4
f 4 3 5
f 4 5 6
f 6 5 7
f 6 7 8
f 8 7 9
f 8 9 10
f 10 9 11
f 10 11 12
f 12 11 13
f 12 13 14
f 14 13 15
f 14 15 16
f 16 15 17
f 16 17 18
