v 0.06583613 0.127769644 0.0557499525
v 0.0823072776 0.111298616 0.0557499525
v 0.082302986 0.111294324 0.0556154845
v 0.0658318385 0.127765472 0.0556154845
v 0.0822476729 0.111239131 0.0552546379
v 0.0657766446 0.127710159 0.0552546379
v 0.0821318015 0.11112314 0.0549237129
v 0.065660654 0.127594287 0.0549237129
v 0.0819621667 0.110953505 0.0546428559
v 0.0654910191 0.127424653 0.0546428559
v 0.0817491397 0.110740597 0.0544291136
v 0.0652781113 0.127211626 0.0544291136
v 0.0815057143 0.110497053 0.05429548
v 0.065034686 0.1269682 0.05429548
v 0.0812465533 0.110237892 0.054249942
v 0.064775525 0.126709039 0.054249942
v 0.0809873923 0.109978731 0.05429548
v 0.064516364 0.126449878 0.05429548
v 0.0807439669 0.109735305 0.0544291136
v 0.0642728194 0.126206453 0.0544291136
v 0.0805309399 0.109522398 0.0546428559
v 0.0640599116 0.125993426 0.0546428559
v 0.0803614243 0.109352763 0.0549237129
v 0.0638902768 0.125823791 0.0549237129
v 0.0802454337 0.109236772 0.0552546379
v 0.0637742862 0.12570792 0.0552546379
v 0.0801901206 0.109181578 0.0556154845
v 0.0637190923 0.125652607 0.0556154845
v 0.0801859483 0.109177287 0.0557499525
v 0.0637148007 0.125648434 0.0557499525
v 0.0801901206 0.109181578 0.0558844206
v 0.0637190923 0.125652607 0.0558844206
v 0.0802454337 0.109236772 0.0562453863
v 0.0637742862 0.12570792 0.0562453863
v 0.0803614243 0.109352763 0.0565763113
v 0.0638902768 0.125823791 0.0565763113
v 0.0805309399 0.109522398 0.0568571684
v 0.0640599116 0.125993426 0.0568571684
v 0.0807439669 0.109735305 0.0570709107
v 0.0642728194 0.126206453 0.0570709107
v 0.0809873923 0.109978731 0.0572045443
v 0.064516364 0.126449878 0.0572045443
v 0.0812465533 0.110237892 0.057249963
v 0.064775525 0.126709039 0.057249963
v 0.0815057143 0.110497053 0.0572045443
v 0.065034686 0.1269682 0.0572045443
v 0.0817491397 0.110740597 0.0570709107
v 0.0652781113 0.127211626 0.0570709107
v 0.0819621667 0.110953505 0.0568571684
v 0.0654910191 0.127424653 0.0568571684
v 0.0821318015 0.11112314 0.0565763113
v 0.065660654 0.127594287 0.0565763113
v 0.0822476729 0.111239131 0.0562453863
v 0.0657766446 0.127710159 0.0562453863
v 0.082302986 0.111294324 0.0558844206
v 0.0658318385 0.127765472 0.0558844206
v 0.0430210217 0.0999183011 0.147353947
v 0.0429820403 0.0998884988 0.147353947
v 0.0436281546 0.0988172841 0.147285759
v 0.0425000771 0.0995185924 0.147353947
v 0.0423113688 0.0992727828 0.147353947
v 0.0432859048 0.0985134197 0.147285759
v 0.0421002492 0.0989976478 0.147353947
v 0.0420640096 0.0989099098 0.147353947
v 0.0431656226 0.0983274532 0.147285759
v 0.0418490752 0.0983909917 0.147353947
v 0.0417956694 0.0979853225 0.147353947
v 0.0430262669 0.0978640867 0.147285759
v 0.0417633637 0.0977399898 0.147353947
v 0.0417917355 0.097524221 0.147353947
v 0.0430249556 0.0976307941 0.147285759
v 0.0418490752 0.0970889879 0.147353947
v 0.0418586119 0.0970658613 0.147353947
v 0.0430663213 0.0974021507 0.147285759
v 0.0421002492 0.0964823318 0.147353947
v 0.0422663077 0.0962660861 0.147353947
v 0.0432634934 0.0969961238 0.147285759
v 0.0425000771 0.0959613872 0.147353947
v 0.0425451382 0.0959268165 0.147353947
v 0.0434092864 0.0968300653 0.147285759
v 0.0430210217 0.0955616784 0.147353947
v 0.0432835206 0.0954529596 0.147353947
v 0.0437766894 0.0965859247 0.147285759
v 0.0438255652 0.0989140821 0.147285759
v 0.0442786797 0.0977399898 0.147263229
v 0.0440358504 0.0989748788 0.147285759
v 0.0441781863 0.0964855504 0.147285759
v 0.0439751729 0.0965186906 0.147285759
v 0.0442786797 0.0964739871 0.147286594
v 0.0442786797 0.0964814973 0.147286474
v 0.0440801963 0.0952507806 0.147353947
v 0.0442785605 0.0952246738 0.147353947
v 0.0442786797 0.0964431119 0.14728719
v 0.0436276778 0.0953103853 0.147353947
v 0.0436728581 0.0953044248 0.147353947
v 0.042909561 0.0956471515 0.147353947
v 0.0435891732 0.0966871333 0.147285759
v 0.0420332536 0.096644218 0.147353947
v 0.0431473836 0.0971885276 0.147285759
v 0.0418766126 0.0984576297 0.147353947
v 0.043072997 0.0981005979 0.147285759
v 0.0426039084 0.0995983434 0.147353947
v 0.0434364661 0.0986751867 0.147285759
v 0.0433810338 0.100067551 0.147353947
v 0.0442786797 0.0989600969 0.147284329
v 0.0442786797 0.0989984823 0.147286474
v 0.0442786797 0.0990059924 0.147286832
v 0.0436276778 0.100169594 0.147353947
v 0.0437955245 0.100191767 0.147353947
v 0.0442785605 0.100255306 0.147353947
v 0.0468814954 0.0984374833 0.143931329
v 0.0467082843 0.0983909917 0.147353947
v 0.0467198476 0.0983032537 0.147353947
v 0.0469732865 0.0977399898 0.143931329
v 0.0465670213 0.0987320495 0.147353947
v 0.0466123208 0.0990872932 0.143931329
v 0.0464569911 0.0989976478 0.147353947
v 0.046184121 0.0996454311 0.143931329
v 0.0460882768 0.0994780612 0.147353947
v 0.0463582858 0.0991263938 0.147353947
v 0.0455363377 0.0999183011 0.147353947
v 0.0457152709 0.099780972 0.147353947
v 0.0456259831 0.100073631 0.143931329
v 0.045752345 0.0997526002 0.147353947
v 0.0460572823 0.0995185924 0.147353947
v 0.0449760541 0.100342925 0.143931329
v 0.0449509009 0.100160773 0.147353947
v 0.0453384503 0.100000317 0.147353947
v 0.0442786797 0.100434716 0.143931329
v 0.0442786797 0.100255306 0.147353947
v 0.0442790374 0.100434716 0.143931329
v 0.044544278 0.100220377 0.147353947
v 0.0449296817 0.100169594 0.147353947
v 0.0435811862 0.100342925 0.143931329
v 0.0429312571 0.100073631 0.143931329
v 0.0423732385 0.0996454311 0.143931329
v 0.0419449195 0.0990872932 0.143931329
v 0.0416757449 0.0984374833 0.143931329
v 0.0415839537 0.0977399898 0.143931329
v 0.0416757449 0.0970426154 0.143931329
v 0.0419449195 0.0963926864 0.143931329
v 0.0423732385 0.0958345485 0.143931329
v 0.0429312571 0.0954063487 0.143931329
v 0.0435811862 0.0951371742 0.143931329
v 0.0450670108 0.0953672481 0.147353947
v 0.0449296817 0.0953103853 0.147353947
v 0.0449760541 0.0951371742 0.143931329
v 0.0446470364 0.095273192 0.147353947
v 0.0442786797 0.0950452638 0.143931329
v 0.0442786797 0.0952246738 0.147353947
v 0.0442783221 0.0950452638 0.143931329
v 0.04547268 0.0955353332 0.147353947
v 0.0456259831 0.0954063487 0.143931329
v 0.0455363377 0.0955616784 0.147353947
v 0.0458570107 0.0958077264 0.147353947
v 0.046184121 0.0958345485 0.143931329
v 0.0460572823 0.0959613872 0.147353947
v 0.0466123208 0.0963926864 0.143931329
v 0.0464408978 0.0964613509 0.147353947
v 0.0461717233 0.096110518 0.147353947
v 0.0468814954 0.0970426154 0.143931329
v 0.0466349706 0.0969120813 0.147353947
v 0.0464569911 0.0964823318 0.147353947
v 0.0467806443 0.0978407216 0.147353947
v 0.0467939957 0.0977399898 0.147353947
v 0.046746312 0.0973783088 0.147353947
v 0.0467082843 0.0970889879 0.147353947
f 1 2 3
f 1 3 4
f 4 3 5
f 4 5 6
f 6 5 7
f 6 7 8
f 8 7 9
f 8 9 10
f 10 9 11
f 10 11 12
f 12 11 13
f 12 13 14
f 14 13 15
f 14 15 16
f 16 15 17
f 16 17 18
f 18 17 19
f 18 19 20
f 20 19 21
f 20 21 22
f 22 21 23
f 22 23 24
f 24 23 25
f 24 25 26
f 26 25 27
f 26 27 28
f 28 27 29
f 28 29 30
f 30 29 31
f 30 31 32
f 32 31 33
f 32 33 34
f 34 33 35
f 34 35 36
f 36 35 37
f 36 37 38
f 38 37 39
f 38 39 40
f 40 39 41
f 40 41 42
f 42 41 43
f 42 43 44
f 44 43 45
f 44 45 46
f 46 45 47
f 46 47 48
f 48 47 49
f 48 49 50
f 50 49 51
f 50 51 52
f 52 51 53
f 52 53 54
f 54 53 55
f 54 55 56
f 56 55 2
f 56 2 1
f 54 56 36
f 26 28 8
f 36 56 34
f 34 56 32
f 32 56 1
f 32 1 30
f 30 1 4
f 30 4 28
f 28 4 6
f 28 6 8
f 54 36 52
f 52 36 38
f 52 38 40
f 26 8 24
f 24 8 10
f 24 10 12
f 44 46 42
f 42 46 48
f 42 48 40
f 40 48 50
f 40 50 52
f 16 18 14
f 14 18 20
f 14 20 12
f 12 20 22
f 12 22 24
f 57 58 59
f 60 61 62
f 63 64 65
f 66 67 68
f 69 70 71
f 72 73 74
f 75 76 77
f 78 79 80
f 81 82 83
f 84 85 86
f 87 85 88
f 89 90 87
f 87 90 85
f 91 92 93
f 94 95 88
f 88 95 91
f 88 91 87
f 87 91 93
f 87 93 89
f 82 94 83
f 83 94 88
f 83 88 85
f 96 81 97
f 97 81 83
f 97 83 85
f 79 96 80
f 80 96 97
f 80 97 85
f 76 78 77
f 77 78 80
f 77 80 85
f 98 75 99
f 99 75 77
f 99 77 85
f 73 98 74
f 74 98 99
f 74 99 85
f 70 72 71
f 71 72 74
f 71 74 85
f 67 69 68
f 68 69 71
f 68 71 85
f 100 66 101
f 101 66 68
f 101 68 85
f 64 100 65
f 65 100 101
f 65 101 85
f 61 63 62
f 62 63 65
f 62 65 85
f 102 60 103
f 103 60 62
f 103 62 85
f 58 102 59
f 59 102 103
f 59 103 85
f 104 57 84
f 84 57 59
f 84 59 85
f 85 105 86
f 86 105 106
f 86 106 107
f 104 84 108
f 108 84 86
f 108 86 109
f 109 86 107
f 109 107 110
f 111 112 113
f 111 113 114
f 112 111 115
f 115 111 116
f 115 116 117
f 118 119 116
f 116 119 120
f 116 120 117
f 121 122 123
f 123 122 124
f 123 124 118
f 118 124 125
f 118 125 119
f 126 127 123
f 123 127 128
f 123 128 121
f 129 130 131
f 131 130 132
f 131 132 126
f 126 132 133
f 126 133 127
f 134 109 129
f 129 109 110
f 129 110 130
f 135 104 134
f 134 104 108
f 134 108 109
f 60 102 136
f 136 102 58
f 136 58 135
f 135 58 57
f 135 57 104
f 60 136 61
f 61 136 137
f 61 137 63
f 138 100 137
f 137 100 64
f 137 64 63
f 139 67 138
f 138 67 66
f 138 66 100
f 140 70 139
f 139 70 69
f 139 69 67
f 75 98 141
f 141 98 73
f 141 73 140
f 140 73 72
f 140 72 70
f 75 141 76
f 76 141 142
f 76 142 78
f 78 142 79
f 79 142 143
f 79 143 96
f 95 94 144
f 144 94 82
f 144 82 143
f 143 82 81
f 143 81 96
f 145 146 147
f 147 146 148
f 147 148 149
f 149 148 150
f 149 150 151
f 151 150 92
f 151 92 144
f 144 92 91
f 144 91 95
f 145 147 152
f 152 147 153
f 152 153 154
f 154 153 155
f 155 153 156
f 155 156 157
f 158 159 156
f 156 159 160
f 156 160 157
f 161 162 158
f 158 162 163
f 158 163 159
f 113 164 114
f 114 164 165
f 114 165 166
f 114 166 161
f 161 166 167
f 161 167 162
