v 0.108751951 0.0793384862 0.0477375386
v 0.108645855 0.07923239 0.0477375386
v 0.108750401 0.0793400359 0.047758877
v 0.108640729 0.079237516 0.0478087065
v 0.108746825 0.0793436122 0.0478087065
v 0.108640729 0.079237516 0.0511097309
v 0.108640729 0.079237516 0.0515375731
v 0.108746825 0.0793436122 0.0511097309
v 0.108746825 0.0793436122 0.0515375731
v 0.108640729 0.079237516 0.0522013304
v 0.108640729 0.079237516 0.0526233313
v 0.108746825 0.0793436122 0.0522013304
v 0.108746825 0.0793436122 0.0526233313
v 0.118051468 0.0758371902 0.0461500284
v 0.113914905 0.0799737525 0.0461500284
v 0.118051468 0.0758371902 0.0474999544
v 0.113914905 0.0799737525 0.0474999544
v 0.111836372 0.0793095184 0.0515063402
v 0.111797748 0.0792708946 0.0515102742
v 0.111741839 0.0792149854 0.051269829
v 0.112351476 0.0798245025 0.0517305729
v 0.1125167 0.0799898458 0.0516050455
v 0.112421332 0.0798944783 0.0518257019
v 0.112550794 0.0800238204 0.0516583321
v 0.112425147 0.079898293 0.0518308279
v 0.112593351 0.0800663781 0.0517249701
v 0.112487493 0.0799605203 0.0519438383
v 0.112657724 0.0801307512 0.0518568156
v 0.112520991 0.0799940181 0.0520271656
v 0.112676559 0.0801497054 0.0519086716
v 0.112537681 0.0800108266 0.0520688889
v 0.1127097 0.0801827264 0.0519997475
v 0.112574993 0.0800481391 0.0522034762
v 0.112748681 0.0802217078 0.0521516201
v 0.112583695 0.0800568414 0.0522561667
v 0.112755476 0.0802285028 0.0521950123
v 0.11259812 0.0800711465 0.0523428318
v 0.112773238 0.080246265 0.0523081419
v 0.112606703 0.0800797296 0.052486479
v 0.112783252 0.0802562785 0.0524681208
v 0.112606107 0.0800792527 0.0524999497
v 0.112782417 0.0802554441 0.0524999497
v 0.112600861 0.0800738883 0.0526303646
v 0.112778841 0.080251987 0.0526296494
v 0.112584291 0.0800574374 0.0527440903
v 0.112759887 0.0802330327 0.0527877209
v 0.112580477 0.0800535035 0.0527707932
v 0.112756191 0.080229218 0.0528051255
v 0.112545668 0.0800186944 0.0529065726
v 0.11163169 0.079104836 0.0513086912
v 0.111698805 0.0791718316 0.0515411494
v 0.111608206 0.0790812326 0.0513216851
v 0.111666618 0.0791397643 0.0515581963
v 0.111525117 0.0789982629 0.0513676998
v 0.111603199 0.079076345 0.0515920517
v 0.111425696 0.0788987232 0.051444709
v 0.11151415 0.0789871764 0.0516615507
v 0.111413179 0.0788862062 0.0514575836
v 0.111510216 0.0789833617 0.0516656039
v 0.111334024 0.0788071704 0.051539242
v 0.111433445 0.0789064718 0.0517480967
v 0.111251055 0.0787242008 0.0516507027
v 0.111378609 0.0788517547 0.0518266556
v 0.111247478 0.0787206245 0.0516569016
v 0.111361562 0.0788347078 0.0518509743
v 0.11117941 0.078652556 0.051775038
v 0.111301361 0.0787745071 0.0519666073
v 0.111121355 0.078594501 0.0519077179
v 0.111278473 0.0787516189 0.0520272848
v 0.111119805 0.0785928321 0.0519114134
v 0.111253677 0.0787267041 0.0520933268
v 0.111072598 0.0785457444 0.0520588753
v 0.111043154 0.0785161805 0.0521947739
v 0.111218868 0.078691895 0.0522292254
v 0.111039339 0.0785124851 0.0522122977
v 0.111214934 0.0786880803 0.0522559283
v 0.111020385 0.0784935308 0.05237025
v 0.111447869 0.0789208961 0.0532693264
v 0.111282645 0.078755672 0.053394973
v 0.111378013 0.0788510394 0.0531743166
v 0.111248551 0.0787216974 0.0533416865
v 0.111374198 0.0788472247 0.0531690714
v 0.111205994 0.0786791396 0.0532750485
v 0.111311851 0.0787848783 0.0530561802
v 0.111141621 0.0786146474 0.053143203
v 0.111278354 0.0787513805 0.0529727337
v 0.111122785 0.0785958123 0.053091347
v 0.111261545 0.0787346912 0.0529311297
v 0.111089645 0.0785627914 0.0530002711
v 0.111224233 0.0786973787 0.0527965424
v 0.111050664 0.0785236907 0.0528482792
v 0.11121553 0.0786886764 0.0527438519
v 0.111043869 0.0785168958 0.0528050062
v 0.111201225 0.0786742521 0.0526571867
v 0.111026107 0.0784991336 0.0526918766
v 0.111192642 0.078665669 0.0525135395
v 0.112726627 0.0801997733 0.0529411433
v 0.11267954 0.0801525665 0.0530886051
v 0.112520753 0.0799938989 0.0529727337
v 0.112677871 0.0801510167 0.0530923006
v 0.112497865 0.0799710107 0.0530334112
v 0.112619816 0.0800929618 0.0532249806
v 0.112437664 0.07991081 0.0531490443
v 0.112551747 0.0800248933 0.0533429978
v 0.112420617 0.0798937631 0.053173363
v 0.112548171 0.080021317 0.0533493159
v 0.1123659 0.0798389268 0.0532519219
v 0.112465201 0.0799383474 0.0534607765
v 0.11228901 0.079762156 0.0533342955
v 0.112386166 0.0798591924 0.0535424349
v 0.112285195 0.0797583413 0.0533384678
v 0.112373649 0.0798466754 0.0535553095
v 0.112196027 0.0796691728 0.0534079668
v 0.112274228 0.0797472549 0.0536321995
v 0.112132607 0.0796057534 0.0534418223
v 0.112191139 0.0796642852 0.0536782143
v 0.11210054 0.0795735669 0.0534588692
v 0.112167536 0.0796406818 0.0536913273
v 0.112001477 0.0794746232 0.0534897444
v 0.112057386 0.0795305324 0.0537301895
v 0.111962973 0.0794359994 0.0534935591
v 0.111820637 0.0792936635 0.0512570736
v 0.111854373 0.0793273998 0.05125159
v 0.111899672 0.0793726993 0.0515000222
v 0.111899672 0.0793726993 0.0512500403
v 0.111962973 0.0794361186 0.0515051482
v 0.111978827 0.0794518543 0.0512571928
v 0.111982642 0.0794557882 0.0515068171
v 0.112013756 0.0794869018 0.0512602923
v 0.112082063 0.0795552087 0.0515336392
v 0.112124978 0.0795980048 0.0512911675
v 0.112132607 0.0796056342 0.0515585539
v 0.11219102 0.079664166 0.0513224003
v 0.112178622 0.079651649 0.0515810845
v 0.112232862 0.0797058893 0.0513421891
v 0.112268983 0.0797421289 0.0516470072
v 0.11233574 0.0798087669 0.0514125225
v 0.112288533 0.07976156 0.051666796
v 0.112385689 0.0798587156 0.0514587757
v 0.112430392 0.0799035383 0.0515002606
v 0.111016093 0.07848912 0.0525318978
v 0.111016928 0.0784899545 0.0525000689
v 0.111193119 0.078666265 0.0525000689
v 0.111198483 0.0786716295 0.0523695347
v 0.111978708 0.0794518543 0.0537429449
v 0.111944972 0.0794179988 0.0537484286
v 0.111899672 0.0793726993 0.0534999964
v 0.111899672 0.0793726993 0.0537499783
v 0.111836253 0.0793093992 0.0534948704
v 0.111820517 0.0792935443 0.0537428257
v 0.111816584 0.0792897296 0.0534932015
v 0.11178547 0.079258616 0.0537397263
v 0.111717163 0.0791903091 0.0534663794
v 0.111674367 0.0791475129 0.0537088511
v 0.111666737 0.0791397643 0.0534414646
v 0.111608206 0.0790813518 0.0536776182
v 0.111620723 0.0790937496 0.0534189341
v 0.111566482 0.0790395093 0.0536578295
v 0.111530362 0.0790033889 0.0533528921
v 0.111463605 0.0789366317 0.053587496
v 0.111510812 0.0789838386 0.0533332226
v 0.111413656 0.078886683 0.0535412428
v 0.111368833 0.0788419795 0.053499758
v 0.108722149 0.0791420293 0.0544422266
v 0.108717619 0.0791460824 0.0544417498
v 0.108822761 0.0792676759 0.0544397232
v 0.108754216 0.0793362212 0.0544089672
v 0.108638941 0.0792061639 0.0544131396
v 0.108751951 0.0793384862 0.0544071791
v 0.108638583 0.0792062831 0.0544130204
v 0.108627616 0.0792134357 0.0544062254
v 0.108691393 0.0793989253 0.0543594954
v 0.108562289 0.0792556358 0.0543661711
v 0.108678041 0.079412396 0.0543429253
v 0.108536421 0.0792704177 0.0543425677
v 0.108643828 0.079446609 0.0543010828
v 0.108492194 0.0792956901 0.0543022749
v 0.108637033 0.079453404 0.0542927382
v 0.108457504 0.0793142867 0.0542559025
v 0.108617006 0.0794734311 0.0542557833
v 0.108435808 0.07932585 0.0542269347
v 0.108593284 0.0794971538 0.0542121527
v 0.108423053 0.0793330026 0.0542005894
v 0.108572422 0.0795180154 0.0541506407
v 0.108399092 0.0793464732 0.0541512368
v 0.108562051 0.0795283866 0.0541203615
v 0.108835278 0.0792550397 0.0544415114
v 0.108894406 0.0791959119 0.0544499752
v 0.108784018 0.0790855241 0.0544499752
v 0.108394442 0.0793490958 0.0541415808
v 0.108371316 0.0793655467 0.0540500281
v 0.108546554 0.0795437646 0.054033458
v 0.108370124 0.0793667388 0.0540335772
v 0.108544527 0.0795459104 0.0540218947
v 0.108364163 0.0793726993 0.0539500115
v 0.108540831 0.0795494867 0.0539500115
v 0.110095082 0.0796922994 0.055455148
v 0.110076724 0.0797107768 0.0553348658
v 0.110450087 0.0793374133 0.0549500582
v 0.110037981 0.0797494006 0.0552245972
v 0.109981476 0.0798059058 0.0551308987
v 0.109910546 0.0798769546 0.0550597307
v 0.109829365 0.0799581361 0.0550151465
v 0.109742938 0.0800444436 0.0550000069
v 0.109035908 0.0807515931 0.0549500582
v 0.10965663 0.0801308704 0.0550151465
v 0.109575449 0.0802120519 0.0550597307
v 0.110420047 0.0793674541 0.0563516018
v 0.110375343 0.0794120384 0.0564573405
v 0.109981476 0.0798059058 0.0558690426
v 0.1095044 0.0802829814 0.0551308987
v 0.109447895 0.0803396058 0.0552245972
v 0.109409271 0.0803782296 0.0553348658
v 0.109172045 0.0806153369 0.0565443632
v 0.109110533 0.0806769681 0.0564573405
v 0.1095044 0.0802829814 0.0558690426
v 0.110037981 0.0797494006 0.0557754633
v 0.110076724 0.0797107768 0.0556651947
v 0.110450087 0.0793374133 0.0561500189
v 0.110095082 0.0796922994 0.0555447933
v 0.110096513 0.0796909881 0.0554999707
v 0.109389363 0.0803980184 0.0566499827
v 0.109330235 0.0804572654 0.0566429493
v 0.109575449 0.0802120519 0.0559403298
v 0.109390794 0.0803965879 0.0555447933
v 0.109035908 0.0807515931 0.0561500189
v 0.109389363 0.0803980184 0.0554999707
v 0.109390794 0.0803965879 0.055455148
v 0.109409271 0.0803782296 0.0556651947
v 0.109447895 0.0803396058 0.0557754633
v 0.109040914 0.0807465864 0.0562337038
v 0.109065948 0.0807215524 0.0563516018
v 0.109246789 0.0805405927 0.0566075442
v 0.10965663 0.0801308704 0.0559847948
v 0.109742938 0.0800444436 0.0560000536
v 0.110096513 0.0796909881 0.0566499827
v 0.109829365 0.0799581361 0.0559847948
v 0.11015576 0.0796317411 0.0566429493
v 0.109910546 0.0798769546 0.0559403298
v 0.110239087 0.0795482946 0.0566075442
v 0.110313831 0.0794736696 0.0565443632
v 0.110445081 0.0793424201 0.0562337038
v 0.112005769 0.0830143047 0.0566499827
v 0.111954986 0.0830649686 0.0566449759
v 0.111659466 0.0833606077 0.0562512276
v 0.111658154 0.083361919 0.0562335846
v 0.111652194 0.0833678794 0.0561500189
v 0.111716209 0.083303864 0.0564370749
v 0.111682354 0.0833376003 0.0563514826
v 0.111681162 0.0833389116 0.0563483832
v 0.111763416 0.0832566572 0.0565142033
v 0.111727892 0.0832921815 0.0564561484
v 0.111820398 0.0831996751 0.0565759537
v 0.111789523 0.0832305503 0.0565423367
v 0.111946641 0.0830734325 0.0566419956
v 0.111885367 0.083134706 0.0566201803
v 0.11186379 0.0831562829 0.0566055176
v 0.111613332 0.0831946683 0.0453266499
v 0.111546098 0.0832617832 0.0549500582
v 0.111668645 0.083139236 0.0454049704
v 0.111735998 0.083072002 0.0454618332
v 0.112959681 0.0818483186 0.0549200175
v 0.112960277 0.0818476033 0.0549500582
v 0.114374576 0.0804334235 0.0549500582
v 0.111573158 0.0832348419 0.0452315209
v 0.111550628 0.0832573724 0.0451254246
v 0.111546098 0.0832617832 0.0450499651
v 0.111609875 0.0831980062 0.0546795723
v 0.111899672 0.0829083276 0.0534999964
v 0.111575066 0.0832328153 0.0547623036
v 0.111899672 0.0829083276 0.0465000269
v 0.111573516 0.083234365 0.0547687409
v 0.113738953 0.0810689283 0.0455102322
v 0.113807736 0.0810001445 0.0455411074
v 0.112953006 0.0818548751 0.0451459286
v 0.111613689 0.0831941915 0.0546738503
v 0.111656724 0.0831512761 0.0546088812
v 0.11166936 0.0831385207 0.0545964835
v 0.111712752 0.0830952478 0.0545542834
v 0.111736594 0.0830712867 0.0545404551
v 0.111776052 0.0830318284 0.0545175669
v 0.112194119 0.0826138807 0.0539914963
v 0.112181602 0.0826262784 0.0539897082
v 0.111864267 0.0829436136 0.0545000431
v 0.114014922 0.0807929588 0.0540836451
v 0.11401373 0.0807942701 0.0541011689
v 0.112050115 0.0827577663 0.0539094803
v 0.112036763 0.0827711177 0.0538930294
v 0.111995636 0.0828122449 0.0538426039
v 0.111975728 0.0828321529 0.0538057682
v 0.111952005 0.0828558755 0.0537621376
v 0.111931144 0.0828767371 0.0537006256
v 0.111920772 0.0828872276 0.0536701081
v 0.112883268 0.0819246125 0.0546563265
v 0.113048612 0.0817593885 0.0543571112
v 0.112837373 0.0819705081 0.0545955298
v 0.112961946 0.0818459344 0.054251611
v 0.11283332 0.0819745612 0.0545902846
v 0.112928806 0.0818791938 0.0542207358
v 0.112774788 0.082033093 0.0545409319
v 0.112867294 0.0819405866 0.0541635153
v 0.112770258 0.082037623 0.0545387862
v 0.112764893 0.0820429874 0.0540931818
v 0.112709938 0.0820980621 0.0545102951
v 0.112921892 0.0818859887 0.0547356007
v 0.113234697 0.0815731836 0.0544912216
v 0.113224445 0.0815834356 0.0544896719
v 0.113295971 0.08151191 0.0545000431
v 0.112954555 0.0818533254 0.0451251862
v 0.114374576 0.0804334235 0.0450499651
v 0.112960277 0.0818476033 0.0450499651
v 0.112793742 0.0820142579 0.04544574
v 0.112769781 0.0820380998 0.0454595682
v 0.112928806 0.0818790746 0.0457794068
v 0.112866102 0.0819417787 0.0458374617
v 0.112695275 0.0821126056 0.0545080302
v 0.112764059 0.082043941 0.0540928242
v 0.112642108 0.0821657729 0.0545000431
v 0.112656651 0.0821513486 0.0540415642
v 0.112583099 0.0822249008 0.0540210602
v 0.111905275 0.0829026056 0.0535835621
v 0.111903249 0.0829046321 0.0535716412
v 0.113991915 0.0808159662 0.0541984436
v 0.113990723 0.0808171582 0.0542015431
v 0.113956986 0.0808510137 0.0542871353
v 0.113945304 0.080862577 0.0543060896
v 0.11390966 0.0808982206 0.0543641445
v 0.113883673 0.0809242082 0.0543923971
v 0.113852797 0.0809552026 0.054425895
v 0.113809286 0.0809985948 0.0544554589
v 0.113787709 0.0810201717 0.0544702408
v 0.1128965 0.0819113803 0.045320451
v 0.113162695 0.0816453052 0.0455378887
v 0.11293131 0.0818765712 0.0452377198
v 0.113169132 0.0816387487 0.0455332396
v 0.113234697 0.0815731836 0.0455079672
v 0.112837015 0.081970985 0.0454035399
v 0.112960754 0.0818471265 0.0457497237
v 0.11284977 0.0819582296 0.0453910229
v 0.113048612 0.0817593885 0.0456429121
v 0.112892686 0.081915195 0.045326173
v 0.113096653 0.0817112279 0.0455885527
v 0.113104759 0.0817031217 0.0455793736
v 0.111810981 0.0829969001 0.0454936621
v 0.111905633 0.0829022479 0.046416342
v 0.111906944 0.0829010558 0.0463988182
v 0.11192864 0.0828792405 0.0463015435
v 0.111929832 0.0828780484 0.0462985632
v 0.111963688 0.082844193 0.0462128517
v 0.11197537 0.0828326297 0.0461938975
v 0.112010895 0.0827969861 0.0461358425
v 0.112037001 0.0827709985 0.0461075899
v 0.112067877 0.0827400041 0.0460740921
v 0.111864267 0.0829436136 0.0454999802
v 0.111811338 0.0829966617 0.0545088646
v 0.111843167 0.0829648328 0.0545009968
v 0.112110673 0.082697208 0.0539572832
v 0.112112938 0.0826950622 0.0539589522
v 0.113718091 0.0810897899 0.0544949171
v 0.112931667 0.0818762136 0.0547694561
v 0.11294788 0.0818600011 0.0548252461
v 0.113667427 0.0811404538 0.0545000431
v 0.113809882 0.0809979987 0.0455427763
v 0.11387044 0.0809374404 0.0455905793
v 0.113883911 0.080924089 0.0456070301
v 0.113924919 0.0808829618 0.0456573365
v 0.113944827 0.0808630538 0.0456941721
v 0.11396855 0.0808393312 0.0457379219
v 0.113238512 0.0815694881 0.0455065367
v 0.113295971 0.08151191 0.0454999802
v 0.112932859 0.0818750215 0.0452312825
v 0.113667427 0.0811404538 0.0454999802
v 0.113726555 0.081081326 0.0455084441
v 0.11155182 0.0832561803 0.0548748371
v 0.111553369 0.0832545114 0.0548540947
v 0.112111269 0.0826966119 0.0460445282
v 0.112132846 0.082675035 0.0460297463
v 0.112194119 0.0826137615 0.0460080502
v 0.112545548 0.0822623325 0.0540105698
v 0.112430035 0.0823779655 0.0539999602
v 0.112253247 0.0825547529 0.0539999602
v 0.11398953 0.0808184696 0.0457993147
v 0.113999902 0.0808079791 0.0458298323
v 0.11401528 0.0807926011 0.0459164975
v 0.112954079 0.0818538022 0.0548750756
v 0.113726436 0.0810814452 0.0544919369
v 0.113162576 0.0816453052 0.0544620154
v 0.113155661 0.0816522193 0.0544589159
v 0.11289209 0.0819157911 0.0546744463
v 0.113096295 0.0817115855 0.0544120667
v 0.113092957 0.0817150426 0.0544094441
v 0.112663327 0.0821446729 0.0454990265
v 0.112764059 0.082043941 0.0459071991
v 0.112695156 0.082112844 0.0454911587
v 0.112730323 0.0820775581 0.0454824564
v 0.114017425 0.0807905746 0.0459282992
v 0.114021002 0.0807869983 0.045999944
v 0.114021002 0.0807869983 0.0539999602
v 0.112544118 0.0822638822 0.045989692
v 0.112583099 0.0822249008 0.0459788439
v 0.112642108 0.0821657729 0.0454999802
v 0.112655221 0.0821526599 0.045958936
v 0.112763224 0.0820446563 0.0459077952
v 0.112202464 0.0826054168 0.04600507
v 0.112253247 0.0825547529 0.045999944
v 0.112430035 0.0823779655 0.045999944
v 0.111652194 0.0833678794 0.0438500044
v 0.112083732 0.0829363418 0.044409692
v 0.112093984 0.0829260898 0.0443688032
v 0.112639247 0.0823808265 0.044535577
v 0.112634836 0.0823852372 0.0445902941
v 0.113066374 0.0819536996 0.0450499651
v 0.1124925 0.0825274539 0.044850528
v 0.112477361 0.0825427127 0.0448634026
v 0.112748204 0.0822718692 0.0454999802
v 0.11212462 0.082895453 0.0447191593
v 0.112102328 0.0829177451 0.0446673033
v 0.111652194 0.0833678794 0.0450499651
v 0.112093984 0.0829260898 0.0446313021
v 0.112082182 0.0829378915 0.0445807574
v 0.112078963 0.0829411102 0.0445356962
v 0.11207646 0.0829436136 0.0445000527
v 0.112079321 0.0829407525 0.0444644091
v 0.112105308 0.0829147649 0.0443237421
v 0.11212474 0.0828953338 0.044280946
v 0.111657201 0.0833628726 0.0437662003
v 0.112139998 0.082880075 0.044247329
v 0.111682235 0.0833378387 0.0436483023
v 0.111726819 0.0832932544 0.0435426829
v 0.112169562 0.0828505111 0.0442064402
v 0.11178845 0.0832316232 0.0434556601
v 0.112186132 0.082833941 0.0441836712
v 0.111863075 0.083156879 0.0433924792
v 0.112225948 0.0827940059 0.0441495774
v 0.111946522 0.0830735517 0.043357074
v 0.112241207 0.0827788663 0.0441365835
v 0.112005769 0.0830143047 0.0433500407
v 0.112990676 0.0820293975 0.043543875
v 0.112955151 0.0820649219 0.04348582
v 0.1125378 0.0824822736 0.0441897509
v 0.112929045 0.0820910287 0.0434575674
v 0.113060413 0.0819596601 0.0437664387
v 0.112582861 0.0824372125 0.0442549584
v 0.112593947 0.082426126 0.0442808268
v 0.113066374 0.0819536996 0.0438500044
v 0.112616239 0.0824038339 0.0443326828
v 0.112624584 0.0823954892 0.044368684
v 0.112815915 0.0822040391 0.0454897282
v 0.112876354 0.0821437192 0.045461118
v 0.112532435 0.082487638 0.0448163149
v 0.111657916 0.0833621574 0.0451251862
v 0.111659466 0.0833606077 0.0451459286
v 0.112135707 0.0828843665 0.044745147
v 0.111679612 0.0833404613 0.0452312825
v 0.111681162 0.0833389116 0.0452377198
v 0.11229044 0.0827295137 0.0441135762
v 0.112302242 0.0827178312 0.0441080925
v 0.112712799 0.0823072744 0.0433500407
v 0.112359224 0.0826607299 0.0440999863
v 0.112943469 0.0820766044 0.0454043743
v 0.112548886 0.0824710679 0.0447935459
v 0.112939416 0.0820806575 0.0454097388
v 0.112880884 0.0821391893 0.0454589722
v 0.112428008 0.0825920654 0.04488641
v 0.112416325 0.0826037479 0.0448918936
v 0.111970364 0.0830497098 0.0454999802
v 0.112359224 0.0826607299 0.0448999998
v 0.112295566 0.0827245069 0.0448897478
v 0.113059102 0.0819609714 0.0437487957
v 0.113037287 0.0819826675 0.0436515209
v 0.112549125 0.0824709487 0.0442060826
v 0.113036095 0.0819838596 0.0436485407
v 0.113002358 0.082017715 0.0435628292
v 0.112636386 0.0823836875 0.0444192288
v 0.112639604 0.0823804689 0.0444642899
v 0.112642108 0.0823779655 0.0445000527
v 0.112989365 0.0820307088 0.0453435776
v 0.112998186 0.0820218873 0.045325577
v 0.112578569 0.082441504 0.0447526572
v 0.113027988 0.081992085 0.0452644226
v 0.113037763 0.0819823098 0.0452305672
v 0.112801371 0.0822187019 0.0454919932
v 0.112169443 0.0828506303 0.0447939036
v 0.111775456 0.083244617 0.0454035399
v 0.112180768 0.0828393054 0.0448102352
v 0.111818729 0.0832012248 0.04544574
v 0.11184269 0.083177383 0.0454595682
v 0.111715971 0.0833041024 0.045320451
v 0.111719786 0.0833002878 0.045326173
v 0.111762701 0.0832573724 0.0453910229
v 0.112423001 0.0825970722 0.0441102383
v 0.112428246 0.0825918269 0.0441128609
v 0.112763463 0.0822564912 0.0433550474
v 0.112483798 0.0825362754 0.0441407559
v 0.112771927 0.0822481466 0.0433580277
v 0.112492739 0.0825273347 0.0441489813
v 0.112898169 0.0821219039 0.0434240696
v 0.112854777 0.0821652961 0.0433945057
v 0.112833081 0.082186873 0.043379843
v 0.112624584 0.0823954892 0.0446313021
v 0.11261314 0.0824068141 0.044676244
v 0.113065658 0.0819544149 0.0450798867
v 0.112593828 0.0824262452 0.0447190401
v 0.113060175 0.0819598985 0.0451249478
v 0.113053976 0.0819660974 0.0451747773
v 0.112290321 0.0827297521 0.0448871252
v 0.11223477 0.0827853036 0.0448592303
v 0.111949144 0.0830708099 0.0454990265
v 0.11222571 0.0827942443 0.044851124
v 0.111917315 0.0831026387 0.0454911587
v 0.111882149 0.0831379247 0.0454824564
v 0.108010589 0.079726274 0.0540500281
v 0.108371316 0.0793655467 0.0459499953
v 0.108370124 0.0793667388 0.0459663269
v 0.108010589 0.079726274 0.0459499953
v 0.108364163 0.0793726993 0.0460500119
f 1 2 3
f 3 2 4
f 3 4 5
f 6 7 8
f 8 7 9
f 10 11 12
f 12 11 13
f 14 15 16
f 16 15 17
f 18 19 20
f 21 22 23
f 23 22 24
f 23 24 25
f 25 24 26
f 25 26 27
f 27 26 28
f 27 28 29
f 29 28 30
f 29 30 31
f 31 30 32
f 31 32 33
f 33 32 34
f 33 34 35
f 35 34 36
f 35 36 37
f 37 36 38
f 37 38 39
f 39 38 40
f 39 40 41
f 41 40 42
f 41 42 43
f 43 42 44
f 43 44 45
f 45 44 46
f 45 46 47
f 47 46 48
f 47 48 49
f 20 19 50
f 50 19 51
f 50 51 52
f 52 51 53
f 52 53 54
f 54 53 55
f 54 55 56
f 56 55 57
f 56 57 58
f 58 57 59
f 58 59 60
f 60 59 61
f 60 61 62
f 62 61 63
f 62 63 64
f 64 63 65
f 64 65 66
f 66 65 67
f 66 67 68
f 68 67 69
f 68 69 70
f 70 69 71
f 70 71 72
f 72 71 73
f 73 71 74
f 73 74 75
f 75 74 76
f 75 76 77
f 78 79 80
f 80 79 81
f 80 81 82
f 82 81 83
f 82 83 84
f 84 83 85
f 84 85 86
f 86 85 87
f 86 87 88
f 88 87 89
f 88 89 90
f 90 89 91
f 90 91 92
f 92 91 93
f 92 93 94
f 94 93 95
f 94 95 96
f 48 97 49
f 49 97 98
f 49 98 99
f 99 98 100
f 99 100 101
f 101 100 102
f 101 102 103
f 103 102 104
f 103 104 105
f 105 104 106
f 105 106 107
f 107 106 108
f 107 108 109
f 109 108 110
f 109 110 111
f 111 110 112
f 111 112 113
f 113 112 114
f 113 114 115
f 115 114 116
f 115 116 117
f 117 116 118
f 117 118 119
f 119 118 120
f 119 120 121
f 20 122 18
f 18 122 123
f 18 123 124
f 124 123 125
f 124 125 126
f 126 125 127
f 126 127 128
f 128 127 129
f 128 129 130
f 130 129 131
f 130 131 132
f 132 131 133
f 132 133 134
f 134 133 135
f 134 135 136
f 136 135 137
f 136 137 138
f 138 137 139
f 138 139 21
f 21 139 140
f 21 140 22
f 95 141 96
f 96 141 142
f 96 142 143
f 143 142 77
f 143 77 144
f 144 77 76
f 120 145 121
f 121 145 146
f 121 146 147
f 147 146 148
f 147 148 149
f 149 148 150
f 149 150 151
f 151 150 152
f 151 152 153
f 153 152 154
f 153 154 155
f 155 154 156
f 155 156 157
f 157 156 158
f 157 158 159
f 159 158 160
f 159 160 161
f 161 160 162
f 161 162 78
f 78 162 163
f 78 163 79
f 164 165 166
f 166 165 167
f 167 165 168
f 167 168 169
f 168 170 169
f 169 170 171
f 169 171 172
f 172 171 173
f 172 173 174
f 174 173 175
f 174 175 176
f 176 175 177
f 176 177 178
f 178 177 179
f 178 179 180
f 180 179 181
f 180 181 182
f 182 181 183
f 182 183 184
f 184 183 185
f 184 185 186
f 166 187 164
f 164 187 188
f 164 188 189
f 185 190 186
f 186 190 191
f 186 191 192
f 192 191 193
f 192 193 194
f 194 193 195
f 194 195 196
f 197 198 199
f 198 200 199
f 199 200 201
f 199 201 202
f 202 203 199
f 199 203 204
f 199 204 205
f 205 204 206
f 205 206 207
f 208 209 210
f 207 211 205
f 205 211 212
f 205 212 213
f 214 215 216
f 217 218 219
f 219 218 220
f 219 220 199
f 199 220 221
f 199 221 197
f 222 223 224
f 225 226 227
f 227 226 205
f 227 205 228
f 228 205 213
f 225 229 226
f 226 229 230
f 226 230 231
f 231 230 216
f 231 216 232
f 232 216 215
f 224 223 216
f 216 223 233
f 216 233 214
f 224 234 222
f 222 234 235
f 222 235 236
f 236 235 237
f 236 237 238
f 238 237 239
f 238 239 240
f 240 239 210
f 240 210 241
f 241 210 209
f 217 219 210
f 210 219 242
f 210 242 208
f 243 244 222
f 222 244 223
f 245 246 231
f 231 246 247
f 231 247 226
f 215 248 232
f 232 248 249
f 232 249 231
f 231 249 250
f 231 250 245
f 214 251 215
f 215 251 252
f 215 252 248
f 233 253 214
f 214 253 254
f 214 254 251
f 244 255 223
f 223 255 256
f 223 256 233
f 233 256 257
f 233 257 253
f 258 259 260
f 260 259 261
f 262 263 264
f 258 265 259
f 259 265 266
f 259 266 267
f 268 269 270
f 270 269 271
f 270 271 272
f 273 274 275
f 268 276 269
f 269 276 277
f 269 277 278
f 278 279 269
f 269 279 280
f 269 280 281
f 282 283 284
f 285 286 264
f 287 288 281
f 281 288 289
f 281 289 290
f 290 291 281
f 281 291 292
f 281 292 293
f 294 295 296
f 296 295 297
f 296 297 298
f 298 297 299
f 298 299 300
f 300 299 301
f 300 301 302
f 302 301 303
f 302 303 304
f 305 306 307
f 306 305 308
f 275 274 309
f 309 274 310
f 309 310 311
f 312 313 314
f 314 313 315
f 304 303 316
f 316 303 317
f 316 317 318
f 318 317 319
f 318 319 320
f 293 321 281
f 281 321 322
f 281 322 269
f 286 323 264
f 264 323 324
f 264 324 325
f 325 326 264
f 264 326 327
f 264 327 328
f 328 329 264
f 264 329 330
f 264 330 331
f 332 333 334
f 334 333 335
f 334 335 336
f 312 314 337
f 337 314 338
f 337 338 339
f 339 338 340
f 339 340 341
f 341 340 342
f 341 342 332
f 332 342 343
f 332 343 333
f 344 271 345
f 345 346 344
f 344 346 347
f 344 347 348
f 348 349 344
f 344 349 350
f 344 350 351
f 351 352 344
f 344 352 353
f 344 353 354
f 281 355 287
f 287 355 356
f 287 356 357
f 357 356 284
f 357 284 358
f 358 284 283
f 359 360 361
f 360 359 305
f 305 359 362
f 305 362 308
f 274 363 310
f 310 363 364
f 310 364 365
f 365 366 310
f 310 366 367
f 310 367 368
f 336 369 334
f 334 369 370
f 334 370 371
f 371 370 372
f 371 372 275
f 275 372 373
f 275 373 273
f 261 259 344
f 344 259 374
f 344 374 271
f 271 374 375
f 271 375 272
f 353 376 354
f 354 376 377
f 354 377 378
f 320 379 318
f 318 379 380
f 318 380 284
f 284 380 381
f 284 381 282
f 368 382 310
f 310 382 383
f 310 383 384
f 262 264 385
f 385 264 331
f 385 331 361
f 361 331 386
f 361 386 359
f 307 387 305
f 305 387 388
f 305 388 389
f 389 388 390
f 389 390 294
f 294 390 391
f 294 391 295
f 392 393 394
f 394 393 315
f 394 315 395
f 395 315 313
f 384 396 310
f 310 396 397
f 310 397 264
f 264 397 398
f 264 398 285
f 399 400 401
f 401 400 402
f 401 402 392
f 392 402 403
f 392 403 393
f 378 404 354
f 354 404 405
f 354 405 401
f 401 405 406
f 401 406 399
f 407 408 409
f 410 411 412
f 413 414 415
f 416 417 418
f 418 417 419
f 418 419 420
f 420 421 418
f 418 421 422
f 418 422 407
f 407 422 423
f 407 423 408
f 409 424 407
f 407 424 425
f 407 425 426
f 426 425 427
f 426 427 428
f 428 427 429
f 429 427 430
f 429 430 431
f 431 430 432
f 431 432 433
f 433 432 434
f 433 434 435
f 435 434 436
f 435 436 437
f 438 439 440
f 440 439 441
f 442 443 444
f 442 444 445
f 445 444 446
f 445 446 447
f 448 449 450
f 418 451 416
f 416 451 452
f 416 452 453
f 453 452 454
f 453 454 455
f 436 456 437
f 437 456 457
f 437 457 458
f 458 457 459
f 460 461 462
f 462 461 450
f 462 450 463
f 463 450 449
f 414 464 415
f 415 464 465
f 415 465 466
f 466 465 467
f 466 467 468
f 442 469 443
f 443 469 470
f 443 470 471
f 471 470 472
f 471 472 440
f 440 472 473
f 440 473 438
f 447 474 445
f 445 474 475
f 445 475 412
f 412 475 476
f 412 476 410
f 460 477 461
f 461 477 478
f 461 478 479
f 479 478 480
f 479 480 481
f 413 415 450
f 450 415 482
f 450 482 448
f 483 484 485
f 485 484 486
f 485 486 487
f 455 488 453
f 453 488 489
f 453 489 483
f 483 489 490
f 483 490 484
f 459 491 458
f 458 491 492
f 458 492 493
f 493 492 494
f 493 494 495
f 495 494 496
f 441 497 440
f 440 497 498
f 440 498 496
f 496 498 499
f 496 499 495
f 411 500 412
f 412 500 501
f 412 501 502
f 502 501 503
f 502 503 504
f 504 503 479
f 504 479 505
f 505 479 481
f 468 506 466
f 466 506 507
f 466 507 508
f 508 507 509
f 508 509 510
f 510 509 485
f 510 485 511
f 511 485 487
f 193 191 512
f 513 514 515
f 515 514 516
f 515 516 512
f 512 516 195
f 512 195 193
