v -0.02949995 0.07405 0.09199995
v -0.02949995 0.07405 0.11050004
v -0.02949995 0.07409256 0.09167653
v -0.02949995 0.07409256 0.09232348
v -0.02949995 0.07409256 0.1101765
v -0.02949995 0.07409256 0.11082357
v -0.02949995 0.07421749 0.09137505
v -0.02949995 0.07421749 0.09262496
v -0.02949995 0.07421749 0.10987502
v -0.02949995 0.07421749 0.11112505
v -0.02949995 0.0744161 0.09111613
v -0.02949995 0.0744161 0.09288388
v -0.02949995 0.0744161 0.1096161
v -0.02949995 0.0744161 0.11138386
v -0.02949995 0.07467502 0.09091753
v -0.02949995 0.07467502 0.09308249
v -0.02949995 0.07467502 0.1094175
v -0.02949995 0.07467502 0.11158258
v -0.02949995 0.0749765 0.0907926
v -0.02949995 0.0749765 0.09320742
v -0.02949995 0.0749765 0.10929257
v -0.02949995 0.0749765 0.11170739
v -0.02949995 0.07530003 0.09075004
v -0.02949995 0.07530003 0.09324998
v -0.02949995 0.07530003 0.10925001
v -0.02949995 0.07530003 0.11174995
v -0.02949995 0.07562357 0.0907926
v -0.02949995 0.07562357 0.09320742
v -0.02949995 0.07562357 0.10929257
v -0.02949995 0.07562357 0.11170739
v -0.02949995 0.07592505 0.09091753
v -0.02949995 0.07592505 0.09308249
v -0.02949995 0.07592505 0.1094175
v -0.02949995 0.07592505 0.11158258
v -0.02949995 0.07618385 0.09111613
v -0.02949995 0.07618385 0.09288388
v -0.02949995 0.07618385 0.1096161
v -0.02949995 0.07618385 0.11138386
v -0.02949995 0.07638257 0.09137505
v -0.02949995 0.07638257 0.09262496
v -0.02949995 0.07638257 0.10987502
v -0.02949995 0.07638257 0.11112505
v -0.02949995 0.07650738 0.09167653
v -0.02949995 0.07650738 0.09232348
v -0.02949995 0.07650738 0.1101765
v -0.02949995 0.07650738 0.11082357
v -0.02949995 0.07654994 0.09199995
v -0.02949995 0.07654994 0.11050004
v -0.02949995 0.11904996 0.09199995
v -0.02949995 0.11904996 0.11050004
v -0.02949995 0.11909264 0.09167653
v -0.02949995 0.11909264 0.09232348
v -0.02949995 0.11909264 0.1101765
v -0.02949995 0.11909264 0.11082357
v -0.02949995 0.11921745 0.09137505
v -0.02949995 0.11921745 0.09262496
v -0.02949995 0.11921745 0.10987502
v -0.02949995 0.11921745 0.11112505
v -0.02949995 0.11941617 0.09111613
v -0.02949995 0.11941617 0.09288388
v -0.02949995 0.11941617 0.1096161
v -0.02949995 0.11941617 0.11138386
v -0.02949995 0.11967498 0.09091753
v -0.02949995 0.11967498 0.09308249
v -0.02949995 0.11967498 0.1094175
v -0.02949995 0.11967498 0.11158258
v -0.02949995 0.11997646 0.0907926
v -0.02949995 0.11997646 0.09320742
v -0.02949995 0.11997646 0.10929257
v -0.02949995 0.11997646 0.11170739
v -0.02949995 0.12029999 0.09075004
v -0.02949995 0.12029999 0.09324998
v -0.02949995 0.12029999 0.10925001
v -0.02949995 0.12029999 0.11174995
v -0.02949995 0.12062352 0.0907926
v -0.02949995 0.12062352 0.09320742
v -0.02949995 0.12062352 0.10929257
v -0.02949995 0.12062352 0.11170739
v -0.02949995 0.120925 0.09091753
v -0.02949995 0.120925 0.09308249
v -0.02949995 0.120925 0.1094175
v -0.02949995 0.120925 0.11158258
v -0.02949995 0.12118393 0.09111613
v -0.02949995 0.12118393 0.09288388
v -0.02949995 0.12118393 0.1096161
v -0.02949995 0.12118393 0.11138386
v -0.02949995 0.12138253 0.09137505
v -0.02949995 0.12138253 0.09262496
v -0.02949995 0.12138253 0.10987502
v -0.02949995 0.12138253 0.11112505
v -0.02949995 0.12150746 0.09167653
v -0.02949995 0.12150746 0.09232348
v -0.02949995 0.12150746 0.1101765
v -0.02949995 0.12150746 0.11082357
v -0.02949995 0.12155002 0.09199995
v -0.02949995 0.12155002 0.11050004
v -0.02350003 0.07405 0.09199995
v -0.02350003 0.07405 0.11050004
v -0.02350003 0.07409256 0.09167653
v -0.02350003 0.07409256 0.09232348
v -0.02350003 0.07409256 0.1101765
v -0.02350003 0.07409256 0.11082357
v -0.02350003 0.07421749 0.09137505
v -0.02350003 0.07421749 0.09262496
v -0.02350003 0.07421749 0.10987502
v -0.02350003 0.07421749 0.11112505
v -0.02350003 0.0744161 0.09111613
v -0.02350003 0.0744161 0.09288388
v -0.02350003 0.0744161 0.1096161
v -0.02350003 0.0744161 0.11138386
v -0.02350003 0.07467502 0.09091753
v -0.02350003 0.07467502 0.09308249
v -0.02350003 0.07467502 0.1094175
v -0.02350003 0.07467502 0.11158258
v -0.02350003 0.0749765 0.0907926
v -0.02350003 0.0749765 0.09320742
v -0.02350003 0.0749765 0.10929257
v -0.02350003 0.0749765 0.11170739
v -0.02350003 0.07530003 0.09075004
v -0.02350003 0.07530003 0.09324998
v -0.02350003 0.07530003 0.10925001
v -0.02350003 0.07530003 0.11174995
v -0.02350003 0.07562357 0.0907926
v -0.02350003 0.07562357 0.09320742
v -0.02350003 0.07562357 0.10929257
v -0.02350003 0.07562357 0.11170739
v -0.02350003 0.07592505 0.09091753
v -0.02350003 0.07592505 0.09308249
v -0.02350003 0.07592505 0.1094175
v -0.02350003 0.07592505 0.11158258
v -0.02350003 0.07618385 0.09111613
v -0.02350003 0.07618385 0.09288388
v -0.02350003 0.07618385 0.1096161
v -0.02350003 0.07618385 0.11138386
v -0.02350003 0.07638257 0.09137505
v -0.02350003 0.07638257 0.09262496
v -0.02350003 0.07638257 0.10987502
v -0.02350003 0.07638257 0.11112505
v -0.02350003 0.07650738 0.09167653
v -0.02350003 0.07650738 0.09232348
v -0.02350003 0.07650738 0.1101765
v -0.02350003 0.07650738 0.11082357
v -0.02350003 0.07654994 0.09199995
v -0.02350003 0.07654994 0.11050004
v -0.02350003 0.11904996 0.09199995
v -0.02350003 0.11904996 0.11050004
v -0.02350003 0.11909264 0.09167653
v -0.02350003 0.11909264 0.09232348
v -0.02350003 0.11909264 0.1101765
v -0.02350003 0.11909264 0.11082357
v -0.02350003 0.11921745 0.09137505
v -0.02350003 0.11921745 0.09262496
v -0.02350003 0.11921745 0.10987502
v -0.02350003 0.11921745 0.11112505
v -0.02350003 0.11941617 0.09111613
v -0.02350003 0.11941617 0.09288388
v -0.02350003 0.11941617 0.1096161
v -0.02350003 0.11941617 0.11138386
v -0.02350003 0.11967498 0.09091753
v -0.02350003 0.11967498 0.09308249
v -0.02350003 0.11967498 0.1094175
v -0.02350003 0.11967498 0.11158258
v -0.02350003 0.11997646 0.0907926
v -0.02350003 0.11997646 0.09320742
v -0.02350003 0.11997646 0.10929257
v -0.02350003 0.11997646 0.11170739
v -0.02350003 0.12029999 0.09075004
v -0.02350003 0.12029999 0.09324998
v -0.02350003 0.12029999 0.10925001
v -0.02350003 0.12029999 0.11174995
v -0.02350003 0.12062352 0.0907926
v -0.02350003 0.12062352 0.09320742
v -0.02350003 0.12062352 0.10929257
v -0.02350003 0.12062352 0.11170739
v -0.02350003 0.120925 0.09091753
v -0.02350003 0.120925 0.09308249
v -0.02350003 0.120925 0.1094175
v -0.02350003 0.120925 0.11158258
v -0.02350003 0.12118393 0.09111613
v -0.02350003 0.12118393 0.09288388
v -0.02350003 0.12118393 0.1096161
v -0.02350003 0.12118393 0.11138386
v -0.02350003 0.12138253 0.09137505
v -0.02350003 0.12138253 0.09262496
v -0.02350003 0.12138253 0.10987502
v -0.02350003 0.12138253 0.11112505
v -0.02350003 0.12150746 0.09167653
v -0.02350003 0.12150746 0.09232348
v -0.02350003 0.12150746 0.1101765
v -0.02350003 0.12150746 0.11082357
v -0.02350003 0.12155002 0.09199995
v -0.02350003 0.12155002 0.11050004
v -0.02225 0.0701 0.09199995
v -0.02225 0.0701 0.11400002
v -0.02225 0.07610005 0.09199995
v -0.02225 0.07610005 0.11400002
v -0.02225 0.11949998 0.09199995
v -0.02225 0.11949998 0.11400002
v -0.02225 0.12550002 0.09199995
v -0.02225 0.12550002 0.11400002
v -0.02220744 0.0701 0.09167653
v -0.02220744 0.0701 0.09232348
v -0.02220744 0.0701 0.11367649
v -0.02220744 0.0701 0.11432356
v -0.02220744 0.07610005 0.09167653
v -0.02220744 0.07610005 0.09232348
v -0.02220744 0.07610005 0.11367649
v -0.02220744 0.07610005 0.11432356
v -0.02220744 0.11949998 0.09167653
v -0.02220744 0.11949998 0.09232348
v -0.02220744 0.11949998 0.11367649
v -0.02220744 0.11949998 0.11432356
v -0.02220744 0.12550002 0.09167653
v -0.02220744 0.12550002 0.09232348
v -0.02220744 0.12550002 0.11367649
v -0.02220744 0.12550002 0.11432356
v -0.02208251 0.0701 0.09137505
v -0.02208251 0.0701 0.09262496
v -0.02208251 0.0701 0.11337501
v -0.02208251 0.0701 0.11462504
v -0.02208251 0.07610005 0.09137505
v -0.02208251 0.07610005 0.09262496
v -0.02208251 0.07610005 0.11337501
v -0.02208251 0.07610005 0.11462504
v -0.02208251 0.11949998 0.09137505
v -0.02208251 0.11949998 0.09262496
v -0.02208251 0.11949998 0.11337501
v -0.02208251 0.11949998 0.11462504
v -0.02208251 0.12550002 0.09137505
v -0.02208251 0.12550002 0.09262496
v -0.02208251 0.12550002 0.11337501
v -0.02208251 0.12550002 0.11462504
v -0.02188391 0.0701 0.09111613
v -0.02188391 0.0701 0.09288388
v -0.02188391 0.0701 0.11311609
v -0.02188391 0.0701 0.11488384
v -0.02188391 0.07610005 0.09111613
v -0.02188391 0.07610005 0.09288388
v -0.02188391 0.07610005 0.11311609
v -0.02188391 0.07610005 0.11488384
v -0.02188391 0.11949998 0.09111613
v -0.02188391 0.11949998 0.09288388
v -0.02188391 0.11949998 0.11311609
v -0.02188391 0.11949998 0.11488384
v -0.02188391 0.12550002 0.09111613
v -0.02188391 0.12550002 0.09288388
v -0.02188391 0.12550002 0.11311609
v -0.02188391 0.12550002 0.11488384
v -0.02162498 0.0701 0.09091753
v -0.02162498 0.0701 0.09308249
v -0.02162498 0.0701 0.11291748
v -0.02162498 0.0701 0.11508256
v -0.02162498 0.07610005 0.09091753
v -0.02162498 0.07610005 0.09308249
v -0.02162498 0.07610005 0.11291748
v -0.02162498 0.07610005 0.11508256
v -0.02162498 0.11949998 0.09091753
v -0.02162498 0.11949998 0.09308249
v -0.02162498 0.11949998 0.11291748
v -0.02162498 0.11949998 0.11508256
v -0.02162498 0.12550002 0.09091753
v -0.02162498 0.12550002 0.09308249
v -0.02162498 0.12550002 0.11291748
v -0.02162498 0.12550002 0.11508256
v -0.0213235 0.0701 0.0907926
v -0.0213235 0.0701 0.09320742
v -0.0213235 0.0701 0.11279255
v -0.0213235 0.0701 0.11520737
v -0.0213235 0.07610005 0.0907926
v -0.0213235 0.07610005 0.09320742
v -0.0213235 0.07610005 0.11279255
v -0.0213235 0.07610005 0.11520737
v -0.0213235 0.11949998 0.0907926
v -0.0213235 0.11949998 0.09320742
v -0.0213235 0.11949998 0.11279255
v -0.0213235 0.11949998 0.11520737
v -0.0213235 0.12550002 0.0907926
v -0.0213235 0.12550002 0.09320742
v -0.0213235 0.12550002 0.11279255
v -0.0213235 0.12550002 0.11520737
v -0.02099997 0.0701 0.09075004
v -0.02099997 0.0701 0.09324998
v -0.02099997 0.0701 0.11274999
v -0.02099997 0.0701 0.11525005
v -0.02099997 0.07610005 0.09075004
v -0.02099997 0.07610005 0.09324998
v -0.02099997 0.07610005 0.11274999
v -0.02099997 0.07610005 0.11525005
v -0.02099997 0.11949998 0.09075004
v -0.02099997 0.11949998 0.09324998
v -0.02099997 0.11949998 0.11274999
v -0.02099997 0.11949998 0.11525005
v -0.02099997 0.12550002 0.09075004
v -0.02099997 0.12550002 0.09324998
v -0.02099997 0.12550002 0.11274999
v -0.02099997 0.12550002 0.11525005
v -0.02067644 0.0701 0.0907926
v -0.02067644 0.0701 0.09320742
v -0.02067644 0.0701 0.11279255
v -0.02067644 0.0701 0.11520737
v -0.02067644 0.07610005 0.0907926
v -0.02067644 0.07610005 0.09320742
v -0.02067644 0.07610005 0.11279255
v -0.02067644 0.07610005 0.11520737
v -0.02067644 0.11949998 0.0907926
v -0.02067644 0.11949998 0.09320742
v -0.02067644 0.11949998 0.11279255
v -0.02067644 0.11949998 0.11520737
v -0.02067644 0.12550002 0.0907926
v -0.02067644 0.12550002 0.09320742
v -0.02067644 0.12550002 0.11279255
v -0.02067644 0.12550002 0.11520737
v -0.02037496 0.0701 0.09091753
v -0.02037496 0.0701 0.09308249
v -0.02037496 0.0701 0.11291748
v -0.02037496 0.0701 0.11508256
v -0.02037496 0.07610005 0.09091753
v -0.02037496 0.07610005 0.09308249
v -0.02037496 0.07610005 0.11291748
v -0.02037496 0.07610005 0.11508256
v -0.02037496 0.11949998 0.09091753
v -0.02037496 0.11949998 0.09308249
v -0.02037496 0.11949998 0.11291748
v -0.02037496 0.11949998 0.11508256
v -0.02037496 0.12550002 0.09091753
v -0.02037496 0.12550002 0.09308249
v -0.02037496 0.12550002 0.11291748
v -0.02037496 0.12550002 0.11508256
v -0.02011615 0.0701 0.09111613
v -0.02011615 0.0701 0.09288388
v -0.02011615 0.0701 0.11311609
v -0.02011615 0.0701 0.11488384
v -0.02011615 0.07610005 0.09111613
v -0.02011615 0.07610005 0.09288388
v -0.02011615 0.07610005 0.11311609
v -0.02011615 0.07610005 0.11488384
v -0.02011615 0.11949998 0.09111613
v -0.02011615 0.11949998 0.09288388
v -0.02011615 0.11949998 0.11311609
v -0.02011615 0.11949998 0.11488384
v -0.02011615 0.12550002 0.09111613
v -0.02011615 0.12550002 0.09288388
v -0.02011615 0.12550002 0.11311609
v -0.02011615 0.12550002 0.11488384
v -0.01991743 0.0701 0.09137505
v -0.01991743 0.0701 0.09262496
v -0.01991743 0.0701 0.11337501
v -0.01991743 0.0701 0.11462504
v -0.01991743 0.07610005 0.09137505
v -0.01991743 0.07610005 0.09262496
v -0.01991743 0.07610005 0.11337501
v -0.01991743 0.07610005 0.11462504
v -0.01991743 0.11949998 0.09137505
v -0.01991743 0.11949998 0.09262496
v -0.01991743 0.11949998 0.11337501
v -0.01991743 0.11949998 0.11462504
v -0.01991743 0.12550002 0.09137505
v -0.01991743 0.12550002 0.09262496
v -0.01991743 0.12550002 0.11337501
v -0.01991743 0.12550002 0.11462504
v -0.01979262 0.0701 0.09167653
v -0.01979262 0.0701 0.09232348
v -0.01979262 0.0701 0.11367649
v -0.01979262 0.0701 0.11432356
v -0.01979262 0.07610005 0.09167653
v -0.01979262 0.07610005 0.09232348
v -0.01979262 0.07610005 0.11367649
v -0.01979262 0.07610005 0.11432356
v -0.01979262 0.11949998 0.09167653
v -0.01979262 0.11949998 0.09232348
v -0.01979262 0.11949998 0.11367649
v -0.01979262 0.11949998 0.11432356
v -0.01979262 0.12550002 0.09167653
v -0.01979262 0.12550002 0.09232348
v -0.01979262 0.12550002 0.11367649
v -0.01979262 0.12550002 0.11432356
v -0.01974994 0.0701 0.09199995
v -0.01974994 0.0701 0.11400002
v -0.01974994 0.07610005 0.09199995
v -0.01974994 0.07610005 0.11400002
v -0.01974994 0.11949998 0.09199995
v -0.01974994 0.11949998 0.11400002
v -0.01974994 0.12550002 0.09199995
v -0.01974994 0.12550002 0.11400002
v 0.01025003 0.0701 0.11400002
v 0.01025003 0.07730001 0.11400002
v 0.01025003 0.11830002 0.11400002
v 0.01025003 0.12550002 0.11400002
v 0.01029259 0.0701 0.11367649
v 0.01029259 0.0701 0.11432356
v 0.01029259 0.07730001 0.11367649
v 0.01029259 0.07730001 0.11432356
v 0.01029259 0.11830002 0.11367649
v 0.01029259 0.11830002 0.11432356
v 0.01029259 0.12550002 0.11367649
v 0.01029259 0.12550002 0.11432356
v 0.01041752 0.0701 0.11337501
v 0.01041752 0.0701 0.11462504
v 0.01041752 0.07730001 0.11337501
v 0.01041752 0.07730001 0.11462504
v 0.01041752 0.11830002 0.11337501
v 0.01041752 0.11830002 0.11462504
v 0.01041752 0.12550002 0.11337501
v 0.01041752 0.12550002 0.11462504
v 0.01061612 0.0701 0.11311609
v 0.01061612 0.0701 0.11488384
v 0.01061612 0.07730001 0.11311609
v 0.01061612 0.07730001 0.11488384
v 0.01061612 0.11830002 0.11311609
v 0.01061612 0.11830002 0.11488384
v 0.01061612 0.12550002 0.11311609
v 0.01061612 0.12550002 0.11488384
v 0.01087504 0.0701 0.11291748
v 0.01087504 0.0701 0.11508256
v 0.01087504 0.07730001 0.11291748
v 0.01087504 0.07730001 0.11508256
v 0.01087504 0.11830002 0.11291748
v 0.01087504 0.11830002 0.11508256
v 0.01087504 0.12550002 0.11291748
v 0.01087504 0.12550002 0.11508256
v 0.01117653 0.0701 0.11279255
v 0.01117653 0.0701 0.11520737
v 0.01117653 0.07730001 0.11279255
v 0.01117653 0.07730001 0.11520737
v 0.01117653 0.11830002 0.11279255
v 0.01117653 0.11830002 0.11520737
v 0.01117653 0.12550002 0.11279255
v 0.01117653 0.12550002 0.11520737
v 0.01149994 0.0701 0.11274999
v 0.01149994 0.0701 0.11525005
v 0.01149994 0.07730001 0.11274999
v 0.01149994 0.07730001 0.11525005
v 0.01149994 0.11830002 0.11274999
v 0.01149994 0.11830002 0.11525005
v 0.01149994 0.12550002 0.11274999
v 0.01149994 0.12550002 0.11525005
v 0.01182347 0.0701 0.11279255
v 0.01182347 0.0701 0.11520737
v 0.01182347 0.07730001 0.11279255
v 0.01182347 0.07730001 0.11520737
v 0.01182347 0.11830002 0.11279255
v 0.01182347 0.11830002 0.11520737
v 0.01182347 0.12550002 0.11279255
v 0.01182347 0.12550002 0.11520737
v 0.01212495 0.0701 0.11291748
v 0.01212495 0.0701 0.11508256
v 0.01212495 0.07730001 0.11291748
v 0.01212495 0.07730001 0.11508256
v 0.01212495 0.11830002 0.11291748
v 0.01212495 0.11830002 0.11508256
v 0.01212495 0.12550002 0.11291748
v 0.01212495 0.12550002 0.11508256
v 0.01238388 0.0701 0.11311609
v 0.01238388 0.0701 0.11488384
v 0.01238388 0.07730001 0.11311609
v 0.01238388 0.07730001 0.11488384
v 0.01238388 0.11830002 0.11311609
v 0.01238388 0.11830002 0.11488384
v 0.01238388 0.12550002 0.11311609
v 0.01238388 0.12550002 0.11488384
v 0.01258248 0.0701 0.11337501
v 0.01258248 0.0701 0.11462504
v 0.01258248 0.07730001 0.11337501
v 0.01258248 0.07730001 0.11462504
v 0.01258248 0.11830002 0.11337501
v 0.01258248 0.11830002 0.11462504
v 0.01258248 0.12550002 0.11337501
v 0.01258248 0.12550002 0.11462504
v 0.01270741 0.0701 0.11367649
v 0.01270741 0.0701 0.11432356
v 0.01270741 0.07730001 0.11367649
v 0.01270741 0.07730001 0.11432356
v 0.01270741 0.11830002 0.11367649
v 0.01270741 0.11830002 0.11432356
v 0.01270741 0.12550002 0.11367649
v 0.01270741 0.12550002 0.11432356
v 0.01274997 0.0701 0.11400002
v 0.01274997 0.07730001 0.11400002
v 0.01274997 0.11830002 0.11400002
v 0.01274997 0.12550002 0.11400002
v 0.03825003 0.0701 0.11400002
v 0.03825003 0.07730001 0.11400002
v 0.03825003 0.11830002 0.11400002
v 0.03825003 0.12550002 0.11400002
v 0.03829259 0.0701 0.11367649
v 0.03829259 0.0701 0.11432356
v 0.03829259 0.07730001 0.11367649
v 0.03829259 0.07730001 0.11432356
v 0.03829259 0.11830002 0.11367649
v 0.03829259 0.11830002 0.11432356
v 0.03829259 0.12550002 0.11367649
v 0.03829259 0.12550002 0.11432356
v 0.03841752 0.0701 0.11337501
v 0.03841752 0.0701 0.11462504
v 0.03841752 0.07730001 0.11337501
v 0.03841752 0.07730001 0.11462504
v 0.03841752 0.11830002 0.11337501
v 0.03841752 0.11830002 0.11462504
v 0.03841752 0.12550002 0.11337501
v 0.03841752 0.12550002 0.11462504
v 0.03861612 0.0701 0.11311609
v 0.03861612 0.0701 0.11488384
v 0.03861612 0.07730001 0.11311609
v 0.03861612 0.07730001 0.11488384
v 0.03861612 0.11830002 0.11311609
v 0.03861612 0.11830002 0.11488384
v 0.03861612 0.12550002 0.11311609
v 0.03861612 0.12550002 0.11488384
v 0.03887504 0.0701 0.11291748
v 0.03887504 0.0701 0.11508256
v 0.03887504 0.07730001 0.11291748
v 0.03887504 0.07730001 0.11508256
v 0.03887504 0.11830002 0.11291748
v 0.03887504 0.11830002 0.11508256
v 0.03887504 0.12550002 0.11291748
v 0.03887504 0.12550002 0.11508256
v 0.03917652 0.0701 0.11279255
v 0.03917652 0.0701 0.11520737
v 0.03917652 0.07730001 0.11279255
v 0.03917652 0.07730001 0.11520737
v 0.03917652 0.11830002 0.11279255
v 0.03917652 0.11830002 0.11520737
v 0.03917652 0.12550002 0.11279255
v 0.03917652 0.12550002 0.11520737
v 0.03949994 0.07730001 0.11525005
v 0.03949994 0.11830002 0.11525005
v 0.03950006 0.0701 0.11274999
v 0.03950006 0.0701 0.11525005
v 0.03950006 0.07730001 0.11274999
v 0.03950006 0.11830002 0.11274999
v 0.03950006 0.12550002 0.11274999
v 0.03950006 0.12550002 0.11525005
v 0.03982347 0.0701 0.11279255
v 0.03982347 0.0701 0.11520737
v 0.03982347 0.07730001 0.11279255
v 0.03982347 0.07730001 0.11520737
v 0.03982347 0.11830002 0.11279255
v 0.03982347 0.11830002 0.11520737
v 0.03982347 0.12550002 0.11279255
v 0.03982347 0.12550002 0.11520737
v 0.04012495 0.0701 0.11291748
v 0.04012495 0.0701 0.11508256
v 0.04012495 0.07730001 0.11291748
v 0.04012495 0.07730001 0.11508256
v 0.04012495 0.11830002 0.11291748
v 0.04012495 0.11830002 0.11508256
v 0.04012495 0.12550002 0.11291748
v 0.04012495 0.12550002 0.11508256
v 0.04038387 0.0701 0.11311609
v 0.04038387 0.0701 0.11488384
v 0.04038387 0.07730001 0.11311609
v 0.04038387 0.07730001 0.11488384
v 0.04038387 0.11830002 0.11311609
v 0.04038387 0.11830002 0.11488384
v 0.04038387 0.12550002 0.11311609
v 0.04038387 0.12550002 0.11488384
v 0.04058248 0.0701 0.11337501
v 0.04058248 0.0701 0.11462504
v 0.04058248 0.07730001 0.11337501
v 0.04058248 0.07730001 0.11462504
v 0.04058248 0.11830002 0.11337501
v 0.04058248 0.11830002 0.11462504
v 0.04058248 0.12550002 0.11337501
v 0.04058248 0.12550002 0.11462504
v 0.04070741 0.0701 0.11367649
v 0.04070741 0.0701 0.11432356
v 0.04070741 0.07730001 0.11367649
v 0.04070741 0.07730001 0.11432356
v 0.04070741 0.11830002 0.11367649
v 0.04070741 0.11830002 0.11432356
v 0.04070741 0.12550002 0.11367649
v 0.04070741 0.12550002 0.11432356
v 0.04074997 0.0701 0.11400002
v 0.04074997 0.07730001 0.11400002
v 0.04074997 0.11830002 0.11400002
v 0.04074997 0.12550002 0.11400002
v 0.05275005 0.0701 0.09199995
v 0.05275005 0.0701 0.11400002
v 0.05275005 0.07610005 0.09199995
v 0.05275005 0.07610005 0.11400002
v 0.05275005 0.11949998 0.09199995
v 0.05275005 0.11949998 0.11400002
v 0.05275005 0.12550002 0.09199995
v 0.05275005 0.12550002 0.11400002
v 0.05279261 0.0701 0.09167653
v 0.05279261 0.0701 0.09232348
v 0.05279261 0.0701 0.11367649
v 0.05279261 0.0701 0.11432356
v 0.05279261 0.07610005 0.09167653
v 0.05279261 0.07610005 0.09232348
v 0.05279261 0.07610005 0.11367649
v 0.05279261 0.07610005 0.11432356
v 0.05279261 0.11949998 0.09167653
v 0.05279261 0.11949998 0.09232348
v 0.05279261 0.11949998 0.11367649
v 0.05279261 0.11949998 0.11432356
v 0.05279261 0.12550002 0.09167653
v 0.05279261 0.12550002 0.09232348
v 0.05279261 0.12550002 0.11367649
v 0.05279261 0.12550002 0.11432356
v 0.05291742 0.0701 0.09137505
v 0.05291742 0.0701 0.09262496
v 0.05291742 0.0701 0.11337501
v 0.05291742 0.0701 0.11462504
v 0.05291742 0.07610005 0.09137505
v 0.05291742 0.07610005 0.09262496
v 0.05291742 0.07610005 0.11337501
v 0.05291742 0.07610005 0.11462504
v 0.05291742 0.11949998 0.09137505
v 0.05291742 0.11949998 0.09262496
v 0.05291742 0.11949998 0.11337501
v 0.05291742 0.11949998 0.11462504
v 0.05291742 0.12550002 0.09137505
v 0.05291742 0.12550002 0.09262496
v 0.05291742 0.12550002 0.11337501
v 0.05291742 0.12550002 0.11462504
v 0.05311614 0.0701 0.09111613
v 0.05311614 0.0701 0.09288388
v 0.05311614 0.0701 0.11311609
v 0.05311614 0.0701 0.11488384
v 0.05311614 0.07610005 0.09111613
v 0.05311614 0.07610005 0.09288388
v 0.05311614 0.07610005 0.11311609
v 0.05311614 0.07610005 0.11488384
v 0.05311614 0.11949998 0.09111613
v 0.05311614 0.11949998 0.09288388
v 0.05311614 0.11949998 0.11311609
v 0.05311614 0.11949998 0.11488384
v 0.05311614 0.12550002 0.09111613
v 0.05311614 0.12550002 0.09288388
v 0.05311614 0.12550002 0.11311609
v 0.05311614 0.12550002 0.11488384
v 0.05337494 0.0701 0.09091753
v 0.05337494 0.0701 0.09308249
v 0.05337494 0.0701 0.11291748
v 0.05337494 0.0701 0.11508256
v 0.05337494 0.07610005 0.09091753
v 0.05337494 0.07610005 0.09308249
v 0.05337494 0.07610005 0.11291748
v 0.05337494 0.07610005 0.11508256
v 0.05337494 0.11949998 0.09091753
v 0.05337494 0.11949998 0.09308249
v 0.05337494 0.11949998 0.11291748
v 0.05337494 0.11949998 0.11508256
v 0.05337494 0.12550002 0.09091753
v 0.05337494 0.12550002 0.09308249
v 0.05337494 0.12550002 0.11291748
v 0.05337494 0.12550002 0.11508256
v 0.05367642 0.0701 0.0907926
v 0.05367642 0.0701 0.09320742
v 0.05367642 0.0701 0.11279255
v 0.05367642 0.0701 0.11520737
v 0.05367642 0.07610005 0.0907926
v 0.05367642 0.07610005 0.09320742
v 0.05367642 0.07610005 0.11279255
v 0.05367642 0.07610005 0.11520737
v 0.05367642 0.11949998 0.0907926
v 0.05367642 0.11949998 0.09320742
v 0.05367642 0.11949998 0.11279255
v 0.05367642 0.11949998 0.11520737
v 0.05367642 0.12550002 0.0907926
v 0.05367642 0.12550002 0.09320742
v 0.05367642 0.12550002 0.11279255
v 0.05367642 0.12550002 0.11520737
v 0.05399996 0.0701 0.09075004
v 0.05399996 0.0701 0.09324998
v 0.05399996 0.0701 0.11274999
v 0.05399996 0.0701 0.11525005
v 0.05399996 0.07610005 0.09075004
v 0.05399996 0.07610005 0.09324998
v 0.05399996 0.07610005 0.11274999
v 0.05399996 0.07610005 0.11525005
v 0.05399996 0.11949998 0.09075004
v 0.05399996 0.11949998 0.09324998
v 0.05399996 0.11949998 0.11274999
v 0.05399996 0.11949998 0.11525005
v 0.05399996 0.12550002 0.09075004
v 0.05399996 0.12550002 0.09324998
v 0.05399996 0.12550002 0.11274999
v 0.05399996 0.12550002 0.11525005
v 0.05432349 0.0701 0.0907926
v 0.05432349 0.0701 0.09320742
v 0.05432349 0.0701 0.11279255
v 0.05432349 0.0701 0.11520737
v 0.05432349 0.07610005 0.0907926
v 0.05432349 0.07610005 0.09320742
v 0.05432349 0.07610005 0.11279255
v 0.05432349 0.07610005 0.11520737
v 0.05432349 0.11949998 0.0907926
v 0.05432349 0.11949998 0.09320742
v 0.05432349 0.11949998 0.11279255
v 0.05432349 0.11949998 0.11520737
v 0.05432349 0.12550002 0.0907926
v 0.05432349 0.12550002 0.09320742
v 0.05432349 0.12550002 0.11279255
v 0.05432349 0.12550002 0.11520737
v 0.05462497 0.0701 0.09091753
v 0.05462497 0.0701 0.09308249
v 0.05462497 0.0701 0.11291748
v 0.05462497 0.0701 0.11508256
v 0.05462497 0.07610005 0.09091753
v 0.05462497 0.07610005 0.09308249
v 0.05462497 0.07610005 0.11291748
v 0.05462497 0.07610005 0.11508256
v 0.05462497 0.11949998 0.09091753
v 0.05462497 0.11949998 0.09308249
v 0.05462497 0.11949998 0.11291748
v 0.05462497 0.11949998 0.11508256
v 0.05462497 0.12550002 0.09091753
v 0.05462497 0.12550002 0.09308249
v 0.05462497 0.12550002 0.11291748
v 0.05462497 0.12550002 0.11508256
v 0.0548839 0.0701 0.09111613
v 0.0548839 0.0701 0.09288388
v 0.0548839 0.0701 0.11311609
v 0.0548839 0.0701 0.11488384
v 0.0548839 0.07610005 0.09111613
v 0.0548839 0.07610005 0.09288388
v 0.0548839 0.07610005 0.11311609
v 0.0548839 0.07610005 0.11488384
v 0.0548839 0.11949998 0.09111613
v 0.0548839 0.11949998 0.09288388
v 0.0548839 0.11949998 0.11311609
v 0.0548839 0.11949998 0.11488384
v 0.0548839 0.12550002 0.09111613
v 0.0548839 0.12550002 0.09288388
v 0.0548839 0.12550002 0.11311609
v 0.0548839 0.12550002 0.11488384
v 0.0550825 0.0701 0.09137505
v 0.0550825 0.0701 0.09262496
v 0.0550825 0.0701 0.11337501
v 0.0550825 0.0701 0.11462504
v 0.0550825 0.07610005 0.09137505
v 0.0550825 0.07610005 0.09262496
v 0.0550825 0.07610005 0.11337501
v 0.0550825 0.07610005 0.11462504
v 0.0550825 0.11949998 0.09137505
v 0.0550825 0.11949998 0.09262496
v 0.0550825 0.11949998 0.11337501
v 0.0550825 0.11949998 0.11462504
v 0.0550825 0.12550002 0.09137505
v 0.0550825 0.12550002 0.09262496
v 0.0550825 0.12550002 0.11337501
v 0.0550825 0.12550002 0.11462504
v 0.05520743 0.0701 0.09167653
v 0.05520743 0.0701 0.09232348
v 0.05520743 0.0701 0.11367649
v 0.05520743 0.0701 0.11432356
v 0.05520743 0.07610005 0.09167653
v 0.05520743 0.07610005 0.09232348
v 0.05520743 0.07610005 0.11367649
v 0.05520743 0.07610005 0.11432356
v 0.05520743 0.11949998 0.09167653
v 0.05520743 0.11949998 0.09232348
v 0.05520743 0.11949998 0.11367649
v 0.05520743 0.11949998 0.11432356
v 0.05520743 0.12550002 0.09167653
v 0.05520743 0.12550002 0.09232348
v 0.05520743 0.12550002 0.11367649
v 0.05520743 0.12550002 0.11432356
v 0.05524999 0.0701 0.09199995
v 0.05524999 0.0701 0.11400002
v 0.05524999 0.07610005 0.09199995
v 0.05524999 0.07610005 0.11400002
v 0.05524999 0.11949998 0.09199995
v 0.05524999 0.11949998 0.11400002
v 0.05524999 0.12550002 0.09199995
v 0.05524999 0.12550002 0.11400002
v 0.06399995 0.07405 0.11400002
v 0.06399995 0.07409256 0.11367649
v 0.06399995 0.07409256 0.11432356
v 0.06399995 0.07421749 0.11337501
v 0.06399995 0.07421749 0.11462504
v 0.06399995 0.0744161 0.11311609
v 0.06399995 0.0744161 0.11488384
v 0.06399995 0.07467502 0.11291748
v 0.06399995 0.07467502 0.11508256
v 0.06399995 0.0749765 0.11279255
v 0.06399995 0.0749765 0.11520737
v 0.06399995 0.07530003 0.11274999
v 0.06399995 0.07530003 0.11525005
v 0.06399995 0.07562357 0.11279255
v 0.06399995 0.07562357 0.11520737
v 0.06399995 0.07592505 0.11291748
v 0.06399995 0.07592505 0.11508256
v 0.06399995 0.07618385 0.11311609
v 0.06399995 0.07618385 0.11488384
v 0.06399995 0.07638257 0.11337501
v 0.06399995 0.07638257 0.11462504
v 0.06399995 0.07650738 0.11367649
v 0.06399995 0.07650738 0.11432356
v 0.06399995 0.07654994 0.11400002
v 0.06399995 0.11904996 0.11400002
v 0.06399995 0.11909264 0.11367649
v 0.06399995 0.11909264 0.11432356
v 0.06399995 0.11921745 0.11337501
v 0.06399995 0.11921745 0.11462504
v 0.06399995 0.11941617 0.11311609
v 0.06399995 0.11941617 0.11488384
v 0.06399995 0.11967498 0.11291748
v 0.06399995 0.11967498 0.11508256
v 0.06399995 0.11997646 0.11279255
v 0.06399995 0.11997646 0.11520737
v 0.06399995 0.12029999 0.11274999
v 0.06399995 0.12029999 0.11525005
v 0.06399995 0.12062352 0.11279255
v 0.06399995 0.12062352 0.11520737
v 0.06399995 0.120925 0.11291748
v 0.06399995 0.120925 0.11508256
v 0.06399995 0.12118393 0.11311609
v 0.06399995 0.12118393 0.11488384
v 0.06399995 0.12138253 0.11337501
v 0.06399995 0.12138253 0.11462504
v 0.06399995 0.12150746 0.11367649
v 0.06399995 0.12150746 0.11432356
v 0.06399995 0.12155002 0.11400002
v 0.06800002 0.07405 0.09199995
v 0.06800002 0.07409256 0.09167653
v 0.06800002 0.07409256 0.09232348
v 0.06800002 0.07421749 0.09137505
v 0.06800002 0.07421749 0.09262496
v 0.06800002 0.0744161 0.09111613
v 0.06800002 0.0744161 0.09288388
v 0.06800002 0.07467502 0.09091753
v 0.06800002 0.07467502 0.09308249
v 0.06800002 0.0749765 0.0907926
v 0.06800002 0.0749765 0.09320742
v 0.06800002 0.07530003 0.09075004
v 0.06800002 0.07530003 0.09324998
v 0.06800002 0.07562357 0.0907926
v 0.06800002 0.07562357 0.09320742
v 0.06800002 0.07592505 0.09091753
v 0.06800002 0.07592505 0.09308249
v 0.06800002 0.07618385 0.09111613
v 0.06800002 0.07618385 0.09288388
v 0.06800002 0.07638257 0.09137505
v 0.06800002 0.07638257 0.09262496
v 0.06800002 0.07650738 0.09167653
v 0.06800002 0.07650738 0.09232348
v 0.06800002 0.07654994 0.09199995
v 0.06800002 0.11904996 0.09199995
v 0.06800002 0.11909264 0.09167653
v 0.06800002 0.11909264 0.09232348
v 0.06800002 0.11921745 0.09137505
v 0.06800002 0.11921745 0.09262496
v 0.06800002 0.11941617 0.09111613
v 0.06800002 0.11941617 0.09288388
v 0.06800002 0.11967498 0.09091753
v 0.06800002 0.11967498 0.09308249
v 0.06800002 0.11997646 0.0907926
v 0.06800002 0.11997646 0.09320742
v 0.06800002 0.12029999 0.09075004
v 0.06800002 0.12029999 0.09324998
v 0.06800002 0.12062352 0.0907926
v 0.06800002 0.12062352 0.09320742
v 0.06800002 0.120925 0.09091753
v 0.06800002 0.120925 0.09308249
v 0.06800002 0.12118393 0.09111613
v 0.06800002 0.12118393 0.09288388
v 0.06800002 0.12138253 0.09137505
v 0.06800002 0.12138253 0.09262496
v 0.06800002 0.12150746 0.09167653
v 0.06800002 0.12150746 0.09232348
v 0.06800002 0.12155002 0.09199995
v 0.07400006 0.07405 0.09199995
v 0.07400006 0.07405 0.11400002
v 0.07400006 0.07409256 0.09167653
v 0.07400006 0.07409256 0.09232348
v 0.07400006 0.07409256 0.11367649
v 0.07400006 0.07409256 0.11432356
v 0.07400006 0.07421749 0.09137505
v 0.07400006 0.07421749 0.09262496
v 0.07400006 0.07421749 0.11337501
v 0.07400006 0.07421749 0.11462504
v 0.07400006 0.0744161 0.09111613
v 0.07400006 0.0744161 0.09288388
v 0.07400006 0.0744161 0.11311609
v 0.07400006 0.0744161 0.11488384
v 0.07400006 0.07467502 0.09091753
v 0.07400006 0.07467502 0.09308249
v 0.07400006 0.07467502 0.11291748
v 0.07400006 0.07467502 0.11508256
v 0.07400006 0.0749765 0.0907926
v 0.07400006 0.0749765 0.09320742
v 0.07400006 0.0749765 0.11279255
v 0.07400006 0.0749765 0.11520737
v 0.07400006 0.07530003 0.09075004
v 0.07400006 0.07530003 0.09324998
v 0.07400006 0.07530003 0.11274999
v 0.07400006 0.07530003 0.11525005
v 0.07400006 0.07562357 0.0907926
v 0.07400006 0.07562357 0.09320742
v 0.07400006 0.07562357 0.11279255
v 0.07400006 0.07562357 0.11520737
v 0.07400006 0.07592505 0.09091753
v 0.07400006 0.07592505 0.09308249
v 0.07400006 0.07592505 0.11291748
v 0.07400006 0.07592505 0.11508256
v 0.07400006 0.07618385 0.09111613
v 0.07400006 0.07618385 0.09288388
v 0.07400006 0.07618385 0.11311609
v 0.07400006 0.07618385 0.11488384
v 0.07400006 0.07638257 0.09137505
v 0.07400006 0.07638257 0.09262496
v 0.07400006 0.07638257 0.11337501
v 0.07400006 0.07638257 0.11462504
v 0.07400006 0.07650738 0.09167653
v 0.07400006 0.07650738 0.09232348
v 0.07400006 0.07650738 0.11367649
v 0.07400006 0.07650738 0.11432356
v 0.07400006 0.07654994 0.09199995
v 0.07400006 0.07654994 0.11400002
v 0.07400006 0.11904996 0.09199995
v 0.07400006 0.11904996 0.11400002
v 0.07400006 0.11909264 0.09167653
v 0.07400006 0.11909264 0.09232348
v 0.07400006 0.11909264 0.11367649
v 0.07400006 0.11909264 0.11432356
v 0.07400006 0.11921745 0.09137505
v 0.07400006 0.11921745 0.09262496
v 0.07400006 0.11921745 0.11337501
v 0.07400006 0.11921745 0.11462504
v 0.07400006 0.11941617 0.09111613
v 0.07400006 0.11941617 0.09288388
v 0.07400006 0.11941617 0.11311609
v 0.07400006 0.11941617 0.11488384
v 0.07400006 0.11967498 0.09091753
v 0.07400006 0.11967498 0.09308249
v 0.07400006 0.11967498 0.11291748
v 0.07400006 0.11967498 0.11508256
v 0.07400006 0.11997646 0.0907926
v 0.07400006 0.11997646 0.09320742
v 0.07400006 0.11997646 0.11279255
v 0.07400006 0.11997646 0.11520737
v 0.07400006 0.12029999 0.09075004
v 0.07400006 0.12029999 0.09324998
v 0.07400006 0.12029999 0.11274999
v 0.07400006 0.12029999 0.11525005
v 0.07400006 0.12062352 0.0907926
v 0.07400006 0.12062352 0.09320742
v 0.07400006 0.12062352 0.11279255
v 0.07400006 0.12062352 0.11520737
v 0.07400006 0.120925 0.09091753
v 0.07400006 0.120925 0.09308249
v 0.07400006 0.120925 0.11291748
v 0.07400006 0.120925 0.11508256
v 0.07400006 0.12118393 0.09111613
v 0.07400006 0.12118393 0.09288388
v 0.07400006 0.12118393 0.11311609
v 0.07400006 0.12118393 0.11488384
v 0.07400006 0.12138253 0.09137505
v 0.07400006 0.12138253 0.09262496
v 0.07400006 0.12138253 0.11337501
v 0.07400006 0.12138253 0.11462504
v 0.07400006 0.12150746 0.09167653
v 0.07400006 0.12150746 0.09232348
v 0.07400006 0.12150746 0.11367649
v 0.07400006 0.12150746 0.11432356
v 0.07400006 0.12155002 0.09199995
v 0.07400006 0.12155002 0.11400002
vt 3.70250023 -1.47499748
vt 3.70250023 -1.47499748
vt 3.70462811 -1.47499748
vt 3.70462811 -1.47499748
vt 3.70462811 -1.47499748
vt 3.70462811 -1.47499748
vt 3.71087468 -1.47499748
vt 3.71087468 -1.47499748
vt 3.71087468 -1.47499748
vt 3.71087468 -1.47499748
vt 3.72080481 -1.47499748
vt 3.72080481 -1.47499748
vt 3.72080481 -1.47499748
vt 3.72080481 -1.47499748
vt 3.73375094 -1.47499748
vt 3.73375094 -1.47499748
vt 3.73375094 -1.47499748
vt 3.73375094 -1.47499748
vt 3.74882496 -1.47499748
vt 3.74882496 -1.47499748
vt 3.74882496 -1.47499748
vt 3.74882496 -1.47499748
vt 3.76500166 -1.47499748
vt 3.76500166 -1.47499748
vt 3.76500166 -1.47499748
vt 3.76500166 -1.47499748
vt 3.78117836 -1.47499748
vt 3.78117836 -1.47499748
vt 3.78117836 -1.47499748
vt 3.78117836 -1.47499748
vt 3.79625237 -1.47499748
vt 3.79625237 -1.47499748
vt 3.79625237 -1.47499748
vt 3.79625237 -1.47499748
vt 3.80919254 -1.47499748
vt 3.80919254 -1.47499748
vt 3.80919254 -1.47499748
vt 3.80919254 -1.47499748
vt 3.81912863 -1.47499748
vt 3.81912863 -1.47499748
vt 3.81912863 -1.47499748
vt 3.81912863 -1.47499748
vt 3.82536924 -1.47499748
vt 3.82536924 -1.47499748
vt 3.82536924 -1.47499748
vt 3.82536924 -1.47499748
vt 3.82749713 -1.47499748
vt 3.82749713 -1.47499748
vt 5.95249808 -1.47499748
vt 5.95249808 -1.47499748
vt 5.95463193 -1.47499748
vt 5.95463193 -1.47499748
vt 5.95463193 -1.47499748
vt 5.95463193 -1.47499748
vt 5.96087253 -1.47499748
vt 5.96087253 -1.47499748
vt 5.96087253 -1.47499748
vt 5.96087253 -1.47499748
vt 5.97080863 -1.47499748
vt 5.97080863 -1.47499748
vt 5.97080863 -1.47499748
vt 5.97080863 -1.47499748
vt 5.98374879 -1.47499748
vt 5.98374879 -1.47499748
vt 5.98374879 -1.47499748
vt 5.98374879 -1.47499748
vt 5.99882281 -1.47499748
vt 5.99882281 -1.47499748
vt 5.99882281 -1.47499748
vt 5.99882281 -1.47499748
vt 6.01499951 -1.47499748
vt 6.01499951 -1.47499748
vt 6.01499951 -1.47499748
vt 6.01499951 -1.47499748
vt 6.03117621 -1.47499748
vt 6.03117621 -1.47499748
vt 6.03117621 -1.47499748
vt 6.03117621 -1.47499748
vt 6.04625023 -1.47499748
vt 6.04625023 -1.47499748
vt 6.04625023 -1.47499748
vt 6.04625023 -1.47499748
vt 6.05919635 -1.47499748
vt 6.05919635 -1.47499748
vt 6.05919635 -1.47499748
vt 6.05919635 -1.47499748
vt 6.06912649 -1.47499748
vt 6.06912649 -1.47499748
vt 6.06912649 -1.47499748
vt 6.06912649 -1.47499748
vt 6.07537305 -1.47499748
vt 6.07537305 -1.47499748
vt 6.07537305 -1.47499748
vt 6.07537305 -1.47499748
vt 6.07750094 -1.47499748
vt 6.07750094 -1.47499748
vt 3.70250023 -1.17500134
vt 3.70250023 -1.17500134
vt 3.70462811 -1.17500134
vt 3.70462811 -1.17500134
vt 3.70462811 -1.17500134
vt 3.70462811 -1.17500134
vt 3.71087468 -1.17500134
vt 3.71087468 -1.17500134
vt 3.71087468 -1.17500134
vt 3.71087468 -1.17500134
vt 3.72080481 -1.17500134
vt 3.72080481 -1.17500134
vt 3.72080481 -1.17500134
vt 3.72080481 -1.17500134
vt 3.73375094 -1.17500134
vt 3.73375094 -1.17500134
vt 3.73375094 -1.17500134
vt 3.73375094 -1.17500134
vt 3.74882496 -1.17500134
vt 3.74882496 -1.17500134
vt 3.74882496 -1.17500134
vt 3.74882496 -1.17500134
vt 3.76500166 -1.17500134
vt 3.76500166 -1.17500134
vt 3.76500166 -1.17500134
vt 3.76500166 -1.17500134
vt 3.78117836 -1.17500134
vt 3.78117836 -1.17500134
vt 3.78117836 -1.17500134
vt 3.78117836 -1.17500134
vt 3.79625237 -1.17500134
vt 3.79625237 -1.17500134
vt 3.79625237 -1.17500134
vt 3.79625237 -1.17500134
vt 3.80919254 -1.17500134
vt 3.80919254 -1.17500134
vt 3.80919254 -1.17500134
vt 3.80919254 -1.17500134
vt 3.81912863 -1.17500134
vt 3.81912863 -1.17500134
vt 3.81912863 -1.17500134
vt 3.81912863 -1.17500134
vt 3.82536924 -1.17500134
vt 3.82536924 -1.17500134
vt 3.82536924 -1.17500134
vt 3.82536924 -1.17500134
vt 3.82749713 -1.17500134
vt 3.82749713 -1.17500134
vt 5.95249808 -1.17500134
vt 5.95249808 -1.17500134
vt 5.95463193 -1.17500134
vt 5.95463193 -1.17500134
vt 5.95463193 -1.17500134
vt 5.95463193 -1.17500134
vt 5.96087253 -1.17500134
vt 5.96087253 -1.17500134
vt 5.96087253 -1.17500134
vt 5.96087253 -1.17500134
vt 5.97080863 -1.17500134
vt 5.97080863 -1.17500134
vt 5.97080863 -1.17500134
vt 5.97080863 -1.17500134
vt 5.98374879 -1.17500134
vt 5.98374879 -1.17500134
vt 5.98374879 -1.17500134
vt 5.98374879 -1.17500134
vt 5.99882281 -1.17500134
vt 5.99882281 -1.17500134
vt 5.99882281 -1.17500134
vt 5.99882281 -1.17500134
vt 6.01499951 -1.17500134
vt 6.01499951 -1.17500134
vt 6.01499951 -1.17500134
vt 6.01499951 -1.17500134
vt 6.03117621 -1.17500134
vt 6.03117621 -1.17500134
vt 6.03117621 -1.17500134
vt 6.03117621 -1.17500134
vt 6.04625023 -1.17500134
vt 6.04625023 -1.17500134
vt 6.04625023 -1.17500134
vt 6.04625023 -1.17500134
vt 6.05919635 -1.17500134
vt 6.05919635 -1.17500134
vt 6.05919635 -1.17500134
vt 6.05919635 -1.17500134
vt 6.06912649 -1.17500134
vt 6.06912649 -1.17500134
vt 6.06912649 -1.17500134
vt 6.06912649 -1.17500134
vt 6.07537305 -1.17500134
vt 6.07537305 -1.17500134
vt 6.07537305 -1.17500134
vt 6.07537305 -1.17500134
vt 6.07750094 -1.17500134
vt 6.07750094 -1.17500134
vt 3.50500024 -1.11249991
vt 3.50500024 -1.11249991
vt 3.80500233 -1.11249991
vt 3.80500233 -1.11249991
vt 5.97499883 -1.11249991
vt 5.97499883 -1.11249991
vt 6.27500093 -1.11249991
vt 6.27500093 -1.11249991
vt 3.50500024 -1.11037202
vt 3.50500024 -1.11037202
vt 3.50500024 -1.11037202
vt 3.50500024 -1.11037202
vt 3.80500233 -1.11037202
vt 3.80500233 -1.11037202
vt 3.80500233 -1.11037202
vt 3.80500233 -1.11037202
vt 5.97499883 -1.11037202
vt 5.97499883 -1.11037202
vt 5.97499883 -1.11037202
vt 5.97499883 -1.11037202
vt 6.27500093 -1.11037202
vt 6.27500093 -1.11037202
vt 6.27500093 -1.11037202
vt 6.27500093 -1.11037202
vt 3.50500024 -1.10412546
vt 3.50500024 -1.10412546
vt 3.50500024 -1.10412546
vt 3.50500024 -1.10412546
vt 3.80500233 -1.10412546
vt 3.80500233 -1.10412546
vt 3.80500233 -1.10412546
vt 3.80500233 -1.10412546
vt 5.97499883 -1.10412546
vt 5.97499883 -1.10412546
vt 5.97499883 -1.10412546
vt 5.97499883 -1.10412546
vt 6.27500093 -1.10412546
vt 6.27500093 -1.10412546
vt 6.27500093 -1.10412546
vt 6.27500093 -1.10412546
vt 3.50500024 -1.09419532
vt 3.50500024 -1.09419532
vt 3.50500024 -1.09419532
vt 3.50500024 -1.09419532
vt 3.80500233 -1.09419532
vt 3.80500233 -1.09419532
vt 3.80500233 -1.09419532
vt 3.80500233 -1.09419532
vt 5.97499883 -1.09419532
vt 5.97499883 -1.09419532
vt 5.97499883 -1.09419532
vt 5.97499883 -1.09419532
vt 6.27500093 -1.09419532
vt 6.27500093 -1.09419532
vt 6.27500093 -1.09419532
vt 6.27500093 -1.09419532
vt 3.50500024 -1.08124919
vt 3.50500024 -1.08124919
vt 3.50500024 -1.08124919
vt 3.50500024 -1.08124919
vt 3.80500233 -1.08124919
vt 3.80500233 -1.08124919
vt 3.80500233 -1.08124919
vt 3.80500233 -1.08124919
vt 5.97499883 -1.08124919
vt 5.97499883 -1.08124919
vt 5.97499883 -1.08124919
vt 5.97499883 -1.08124919
vt 6.27500093 -1.08124919
vt 6.27500093 -1.08124919
vt 6.27500093 -1.08124919
vt 6.27500093 -1.08124919
vt 3.50500024 -1.06617518
vt 3.50500024 -1.06617518
vt 3.50500024 -1.06617518
vt 3.50500024 -1.06617518
vt 3.80500233 -1.06617518
vt 3.80500233 -1.06617518
vt 3.80500233 -1.06617518
vt 3.80500233 -1.06617518
vt 5.97499883 -1.06617518
vt 5.97499883 -1.06617518
vt 5.97499883 -1.06617518
vt 5.97499883 -1.06617518
vt 6.27500093 -1.06617518
vt 6.27500093 -1.06617518
vt 6.27500093 -1.06617518
vt 6.27500093 -1.06617518
vt 3.50500024 -1.04999848
vt 3.50500024 -1.04999848
vt 3.50500024 -1.04999848
vt 3.50500024 -1.04999848
vt 3.80500233 -1.04999848
vt 3.80500233 -1.04999848
vt 3.80500233 -1.04999848
vt 3.80500233 -1.04999848
vt 5.97499883 -1.04999848
vt 5.97499883 -1.04999848
vt 5.97499883 -1.04999848
vt 5.97499883 -1.04999848
vt 6.27500093 -1.04999848
vt 6.27500093 -1.04999848
vt 6.27500093 -1.04999848
vt 6.27500093 -1.04999848
vt 3.50500024 -1.03382178
vt 3.50500024 -1.03382178
vt 3.50500024 -1.03382178
vt 3.50500024 -1.03382178
vt 3.80500233 -1.03382178
vt 3.80500233 -1.03382178
vt 3.80500233 -1.03382178
vt 3.80500233 -1.03382178
vt 5.97499883 -1.03382178
vt 5.97499883 -1.03382178
vt 5.97499883 -1.03382178
vt 5.97499883 -1.03382178
vt 6.27500093 -1.03382178
vt 6.27500093 -1.03382178
vt 6.27500093 -1.03382178
vt 6.27500093 -1.03382178
vt 3.50500024 -1.01874776
vt 3.50500024 -1.01874776
vt 3.50500024 -1.01874776
vt 3.50500024 -1.01874776
vt 3.80500233 -1.01874776
vt 3.80500233 -1.01874776
vt 3.80500233 -1.01874776
vt 3.80500233 -1.01874776
vt 5.97499883 -1.01874776
vt 5.97499883 -1.01874776
vt 5.97499883 -1.01874776
vt 5.97499883 -1.01874776
vt 6.27500093 -1.01874776
vt 6.27500093 -1.01874776
vt 6.27500093 -1.01874776
vt 6.27500093 -1.01874776
vt 3.50500024 -1.0058076
vt 3.50500024 -1.0058076
vt 3.50500024 -1.0058076
vt 3.50500024 -1.0058076
vt 3.80500233 -1.0058076
vt 3.80500233 -1.0058076
vt 3.80500233 -1.0058076
vt 3.80500233 -1.0058076
vt 5.97499883 -1.0058076
vt 5.97499883 -1.0058076
vt 5.97499883 -1.0058076
vt 5.97499883 -1.0058076
vt 6.27500093 -1.0058076
vt 6.27500093 -1.0058076
vt 6.27500093 -1.0058076
vt 6.27500093 -1.0058076
vt 3.50500024 -0.9958715
vt 3.50500024 -0.9958715
vt 3.50500024 -0.9958715
vt 3.50500024 -0.9958715
vt 3.80500233 -0.9958715
vt 3.80500233 -0.9958715
vt 3.80500233 -0.9958715
vt 3.80500233 -0.9958715
vt 5.97499883 -0.9958715
vt 5.97499883 -0.9958715
vt 5.97499883 -0.9958715
vt 5.97499883 -0.9958715
vt 6.27500093 -0.9958715
vt 6.27500093 -0.9958715
vt 6.27500093 -0.9958715
vt 6.27500093 -0.9958715
vt 3.50500024 -0.9896309
vt 3.50500024 -0.9896309
vt 3.50500024 -0.9896309
vt 3.50500024 -0.9896309
vt 3.80500233 -0.9896309
vt 3.80500233 -0.9896309
vt 3.80500233 -0.9896309
vt 3.80500233 -0.9896309
vt 5.97499883 -0.9896309
vt 5.97499883 -0.9896309
vt 5.97499883 -0.9896309
vt 5.97499883 -0.9896309
vt 6.27500093 -0.9896309
vt 6.27500093 -0.9896309
vt 6.27500093 -0.9896309
vt 6.27500093 -0.9896309
vt 3.50500024 -0.98749705
vt 3.50500024 -0.98749705
vt 3.80500233 -0.98749705
vt 3.80500233 -0.98749705
vt 5.97499883 -0.98749705
vt 5.97499883 -0.98749705
vt 6.27500093 -0.98749705
vt 6.27500093 -0.98749705
vt 3.50500024 0.51250152
vt 3.86500037 0.51250152
vt 5.9150008 0.51250152
vt 6.27500093 0.51250152
vt 3.50500024 0.51462941
vt 3.50500024 0.51462941
vt 3.86500037 0.51462941
vt 3.86500037 0.51462941
vt 5.9150008 0.51462941
vt 5.9150008 0.51462941
vt 6.27500093 0.51462941
vt 6.27500093 0.51462941
vt 3.50500024 0.52087597
vt 3.50500024 0.52087597
vt 3.86500037 0.52087597
vt 3.86500037 0.52087597
vt 5.9150008 0.52087597
vt 5.9150008 0.52087597
vt 6.27500093 0.52087597
vt 6.27500093 0.52087597
vt 3.50500024 0.53080611
vt 3.50500024 0.53080611
vt 3.86500037 0.53080611
vt 3.86500037 0.53080611
vt 5.9150008 0.53080611
vt 5.9150008 0.53080611
vt 6.27500093 0.53080611
vt 6.27500093 0.53080611
vt 3.50500024 0.54375224
vt 3.50500024 0.54375224
vt 3.86500037 0.54375224
vt 3.86500037 0.54375224
vt 5.9150008 0.54375224
vt 5.9150008 0.54375224
vt 6.27500093 0.54375224
vt 6.27500093 0.54375224
vt 3.50500024 0.55882625
vt 3.50500024 0.55882625
vt 3.86500037 0.55882625
vt 3.86500037 0.55882625
vt 5.9150008 0.55882625
vt 5.9150008 0.55882625
vt 6.27500093 0.55882625
vt 6.27500093 0.55882625
vt 3.50500024 0.57499699
vt 3.50500024 0.57499699
vt 3.86500037 0.57499699
vt 3.86500037 0.57499699
vt 5.9150008 0.57499699
vt 5.9150008 0.57499699
vt 6.27500093 0.57499699
vt 6.27500093 0.57499699
vt 3.50500024 0.59117369
vt 3.50500024 0.59117369
vt 3.86500037 0.59117369
vt 3.86500037 0.59117369
vt 5.9150008 0.59117369
vt 5.9150008 0.59117369
vt 6.27500093 0.59117369
vt 6.27500093 0.59117369
vt 3.50500024 0.60624771
vt 3.50500024 0.60624771
vt 3.86500037 0.60624771
vt 3.86500037 0.60624771
vt 5.9150008 0.60624771
vt 5.9150008 0.60624771
vt 6.27500093 0.60624771
vt 6.27500093 0.60624771
vt 3.50500024 0.61919383
vt 3.50500024 0.61919383
vt 3.86500037 0.61919383
vt 3.86500037 0.61919383
vt 5.9150008 0.61919383
vt 5.9150008 0.61919383
vt 6.27500093 0.61919383
vt 6.27500093 0.61919383
vt 3.50500024 0.62912397
vt 3.50500024 0.62912397
vt 3.86500037 0.62912397
vt 3.86500037 0.62912397
vt 5.9150008 0.62912397
vt 5.9150008 0.62912397
vt 6.27500093 0.62912397
vt 6.27500093 0.62912397
vt 3.50500024 0.63537054
vt 3.50500024 0.63537054
vt 3.86500037 0.63537054
vt 3.86500037 0.63537054
vt 5.9150008 0.63537054
vt 5.9150008 0.63537054
vt 6.27500093 0.63537054
vt 6.27500093 0.63537054
vt 3.50500024 0.63749842
vt 3.86500037 0.63749842
vt 5.9150008 0.63749842
vt 6.27500093 0.63749842
vt 3.50500024 1.91250138
vt 3.86500037 1.91250138
vt 5.9150008 1.91250138
vt 6.27500093 1.91250138
vt 3.50500024 1.91462926
vt 3.50500024 1.91462926
vt 3.86500037 1.91462926
vt 3.86500037 1.91462926
vt 5.9150008 1.91462926
vt 5.9150008 1.91462926
vt 6.27500093 1.91462926
vt 6.27500093 1.91462926
vt 3.50500024 1.92087583
vt 3.50500024 1.92087583
vt 3.86500037 1.92087583
vt 3.86500037 1.92087583
vt 5.9150008 1.92087583
vt 5.9150008 1.92087583
vt 6.27500093 1.92087583
vt 6.27500093 1.92087583
vt 3.50500024 1.93080596
vt 3.50500024 1.93080596
vt 3.86500037 1.93080596
vt 3.86500037 1.93080596
vt 5.9150008 1.93080596
vt 5.9150008 1.93080596
vt 6.27500093 1.93080596
vt 6.27500093 1.93080596
vt 3.50500024 1.94375209
vt 3.50500024 1.94375209
vt 3.86500037 1.94375209
vt 3.86500037 1.94375209
vt 5.9150008 1.94375209
vt 5.9150008 1.94375209
vt 6.27500093 1.94375209
vt 6.27500093 1.94375209
vt 3.50500024 1.95882611
vt 3.50500024 1.95882611
vt 3.86500037 1.95882611
vt 3.86500037 1.95882611
vt 5.9150008 1.95882611
vt 5.9150008 1.95882611
vt 6.27500093 1.95882611
vt 6.27500093 1.95882611
vt 3.86500037 1.97499685
vt 5.9150008 1.97499685
vt 3.50500024 1.97500281
vt 3.50500024 1.97500281
vt 3.86500037 1.97500281
vt 5.9150008 1.97500281
vt 6.27500093 1.97500281
vt 6.27500093 1.97500281
vt 3.50500024 1.99117355
vt 3.50500024 1.99117355
vt 3.86500037 1.99117355
vt 3.86500037 1.99117355
vt 5.9150008 1.99117355
vt 5.9150008 1.99117355
vt 6.27500093 1.99117355
vt 6.27500093 1.99117355
vt 3.50500024 2.00624756
vt 3.50500024 2.00624756
vt 3.86500037 2.00624756
vt 3.86500037 2.00624756
vt 5.9150008 2.00624756
vt 5.9150008 2.00624756
vt 6.27500093 2.00624756
vt 6.27500093 2.00624756
vt 3.50500024 2.01919369
vt 3.50500024 2.01919369
vt 3.86500037 2.01919369
vt 3.86500037 2.01919369
vt 5.9150008 2.01919369
vt 5.9150008 2.01919369
vt 6.27500093 2.01919369
vt 6.27500093 2.01919369
vt 3.50500024 2.02912383
vt 3.50500024 2.02912383
vt 3.86500037 2.02912383
vt 3.86500037 2.02912383
vt 5.9150008 2.02912383
vt 5.9150008 2.02912383
vt 6.27500093 2.02912383
vt 6.27500093 2.02912383
vt 3.50500024 2.03537039
vt 3.50500024 2.03537039
vt 3.86500037 2.03537039
vt 3.86500037 2.03537039
vt 5.9150008 2.03537039
vt 5.9150008 2.03537039
vt 6.27500093 2.03537039
vt 6.27500093 2.03537039
vt 3.50500024 2.03749828
vt 3.86500037 2.03749828
vt 5.9150008 2.03749828
vt 6.27500093 2.03749828
vt 3.50500024 2.63750247
vt 3.50500024 2.63750247
vt 3.80500233 2.63750247
vt 3.80500233 2.63750247
vt 5.97499883 2.63750247
vt 5.97499883 2.63750247
vt 6.27500093 2.63750247
vt 6.27500093 2.63750247
vt 3.50500024 2.63963036
vt 3.50500024 2.63963036
vt 3.50500024 2.63963036
vt 3.50500024 2.63963036
vt 3.80500233 2.63963036
vt 3.80500233 2.63963036
vt 3.80500233 2.63963036
vt 3.80500233 2.63963036
vt 5.97499883 2.63963036
vt 5.97499883 2.63963036
vt 5.97499883 2.63963036
vt 5.97499883 2.63963036
vt 6.27500093 2.63963036
vt 6.27500093 2.63963036
vt 6.27500093 2.63963036
vt 6.27500093 2.63963036
vt 3.50500024 2.64587097
vt 3.50500024 2.64587097
vt 3.50500024 2.64587097
vt 3.50500024 2.64587097
vt 3.80500233 2.64587097
vt 3.80500233 2.64587097
vt 3.80500233 2.64587097
vt 3.80500233 2.64587097
vt 5.97499883 2.64587097
vt 5.97499883 2.64587097
vt 5.97499883 2.64587097
vt 5.97499883 2.64587097
vt 6.27500093 2.64587097
vt 6.27500093 2.64587097
vt 6.27500093 2.64587097
vt 6.27500093 2.64587097
vt 3.50500024 2.65580706
vt 3.50500024 2.65580706
vt 3.50500024 2.65580706
vt 3.50500024 2.65580706
vt 3.80500233 2.65580706
vt 3.80500233 2.65580706
vt 3.80500233 2.65580706
vt 3.80500233 2.65580706
vt 5.97499883 2.65580706
vt 5.97499883 2.65580706
vt 5.97499883 2.65580706
vt 5.97499883 2.65580706
vt 6.27500093 2.65580706
vt 6.27500093 2.65580706
vt 6.27500093 2.65580706
vt 6.27500093 2.65580706
vt 3.50500024 2.66874723
vt 3.50500024 2.66874723
vt 3.50500024 2.66874723
vt 3.50500024 2.66874723
vt 3.80500233 2.66874723
vt 3.80500233 2.66874723
vt 3.80500233 2.66874723
vt 3.80500233 2.66874723
vt 5.97499883 2.66874723
vt 5.97499883 2.66874723
vt 5.97499883 2.66874723
vt 5.97499883 2.66874723
vt 6.27500093 2.66874723
vt 6.27500093 2.66874723
vt 6.27500093 2.66874723
vt 6.27500093 2.66874723
vt 3.50500024 2.68382124
vt 3.50500024 2.68382124
vt 3.50500024 2.68382124
vt 3.50500024 2.68382124
vt 3.80500233 2.68382124
vt 3.80500233 2.68382124
vt 3.80500233 2.68382124
vt 3.80500233 2.68382124
vt 5.97499883 2.68382124
vt 5.97499883 2.68382124
vt 5.97499883 2.68382124
vt 5.97499883 2.68382124
vt 6.27500093 2.68382124
vt 6.27500093 2.68382124
vt 6.27500093 2.68382124
vt 6.27500093 2.68382124
vt 3.50500024 2.69999794
vt 3.50500024 2.69999794
vt 3.50500024 2.69999794
vt 3.50500024 2.69999794
vt 3.80500233 2.69999794
vt 3.80500233 2.69999794
vt 3.80500233 2.69999794
vt 3.80500233 2.69999794
vt 5.97499883 2.69999794
vt 5.97499883 2.69999794
vt 5.97499883 2.69999794
vt 5.97499883 2.69999794
vt 6.27500093 2.69999794
vt 6.27500093 2.69999794
vt 6.27500093 2.69999794
vt 6.27500093 2.69999794
vt 3.50500024 2.71617464
vt 3.50500024 2.71617464
vt 3.50500024 2.71617464
vt 3.50500024 2.71617464
vt 3.80500233 2.71617464
vt 3.80500233 2.71617464
vt 3.80500233 2.71617464
vt 3.80500233 2.71617464
vt 5.97499883 2.71617464
vt 5.97499883 2.71617464
vt 5.97499883 2.71617464
vt 5.97499883 2.71617464
vt 6.27500093 2.71617464
vt 6.27500093 2.71617464
vt 6.27500093 2.71617464
vt 6.27500093 2.71617464
vt 3.50500024 2.73124866
vt 3.50500024 2.73124866
vt 3.50500024 2.73124866
vt 3.50500024 2.73124866
vt 3.80500233 2.73124866
vt 3.80500233 2.73124866
vt 3.80500233 2.73124866
vt 3.80500233 2.73124866
vt 5.97499883 2.73124866
vt 5.97499883 2.73124866
vt 5.97499883 2.73124866
vt 5.97499883 2.73124866
vt 6.27500093 2.73124866
vt 6.27500093 2.73124866
vt 6.27500093 2.73124866
vt 6.27500093 2.73124866
vt 3.50500024 2.74419479
vt 3.50500024 2.74419479
vt 3.50500024 2.74419479
vt 3.50500024 2.74419479
vt 3.80500233 2.74419479
vt 3.80500233 2.74419479
vt 3.80500233 2.74419479
vt 3.80500233 2.74419479
vt 5.97499883 2.74419479
vt 5.97499883 2.74419479
vt 5.97499883 2.74419479
vt 5.97499883 2.74419479
vt 6.27500093 2.74419479
vt 6.27500093 2.74419479
vt 6.27500093 2.74419479
vt 6.27500093 2.74419479
vt 3.50500024 2.75412492
vt 3.50500024 2.75412492
vt 3.50500024 2.75412492
vt 3.50500024 2.75412492
vt 3.80500233 2.75412492
vt 3.80500233 2.75412492
vt 3.80500233 2.75412492
vt 3.80500233 2.75412492
vt 5.97499883 2.75412492
vt 5.97499883 2.75412492
vt 5.97499883 2.75412492
vt 5.97499883 2.75412492
vt 6.27500093 2.75412492
vt 6.27500093 2.75412492
vt 6.27500093 2.75412492
vt 6.27500093 2.75412492
vt 3.50500024 2.76037149
vt 3.50500024 2.76037149
vt 3.50500024 2.76037149
vt 3.50500024 2.76037149
vt 3.80500233 2.76037149
vt 3.80500233 2.76037149
vt 3.80500233 2.76037149
vt 3.80500233 2.76037149
vt 5.97499883 2.76037149
vt 5.97499883 2.76037149
vt 5.97499883 2.76037149
vt 5.97499883 2.76037149
vt 6.27500093 2.76037149
vt 6.27500093 2.76037149
vt 6.27500093 2.76037149
vt 6.27500093 2.76037149
vt 3.50500024 2.76249937
vt 3.50500024 2.76249937
vt 3.80500233 2.76249937
vt 3.80500233 2.76249937
vt 5.97499883 2.76249937
vt 5.97499883 2.76249937
vt 6.27500093 2.76249937
vt 6.27500093 2.76249937
vt 3.70250023 3.19999747
vt 3.70462811 3.19999747
vt 3.70462811 3.19999747
vt 3.71087468 3.19999747
vt 3.71087468 3.19999747
vt 3.72080481 3.19999747
vt 3.72080481 3.19999747
vt 3.73375094 3.19999747
vt 3.73375094 3.19999747
vt 3.74882496 3.19999747
vt 3.74882496 3.19999747
vt 3.76500166 3.19999747
vt 3.76500166 3.19999747
vt 3.78117836 3.19999747
vt 3.78117836 3.19999747
vt 3.79625237 3.19999747
vt 3.79625237 3.19999747
vt 3.80919254 3.19999747
vt 3.80919254 3.19999747
vt 3.81912863 3.19999747
vt 3.81912863 3.19999747
vt 3.82536924 3.19999747
vt 3.82536924 3.19999747
vt 3.82749713 3.19999747
vt 5.95249808 3.19999747
vt 5.95463193 3.19999747
vt 5.95463193 3.19999747
vt 5.96087253 3.19999747
vt 5.96087253 3.19999747
vt 5.97080863 3.19999747
vt 5.97080863 3.19999747
vt 5.98374879 3.19999747
vt 5.98374879 3.19999747
vt 5.99882281 3.19999747
vt 5.99882281 3.19999747
vt 6.01499951 3.19999747
vt 6.01499951 3.19999747
vt 6.03117621 3.19999747
vt 6.03117621 3.19999747
vt 6.04625023 3.19999747
vt 6.04625023 3.19999747
vt 6.05919635 3.19999747
vt 6.05919635 3.19999747
vt 6.06912649 3.19999747
vt 6.06912649 3.19999747
vt 6.07537305 3.19999747
vt 6.07537305 3.19999747
vt 6.07750094 3.19999747
vt 3.70250023 3.40000085
vt 3.70462811 3.40000085
vt 3.70462811 3.40000085
vt 3.71087468 3.40000085
vt 3.71087468 3.40000085
vt 3.72080481 3.40000085
vt 3.72080481 3.40000085
vt 3.73375094 3.40000085
vt 3.73375094 3.40000085
vt 3.74882496 3.40000085
vt 3.74882496 3.40000085
vt 3.76500166 3.40000085
vt 3.76500166 3.40000085
vt 3.78117836 3.40000085
vt 3.78117836 3.40000085
vt 3.79625237 3.40000085
vt 3.79625237 3.40000085
vt 3.80919254 3.40000085
vt 3.80919254 3.40000085
vt 3.81912863 3.40000085
vt 3.81912863 3.40000085
vt 3.82536924 3.40000085
vt 3.82536924 3.40000085
vt 3.82749713 3.40000085
vt 5.95249808 3.40000085
vt 5.95463193 3.40000085
vt 5.95463193 3.40000085
vt 5.96087253 3.40000085
vt 5.96087253 3.40000085
vt 5.97080863 3.40000085
vt 5.97080863 3.40000085
vt 5.98374879 3.40000085
vt 5.98374879 3.40000085
vt 5.99882281 3.40000085
vt 5.99882281 3.40000085
vt 6.01499951 3.40000085
vt 6.01499951 3.40000085
vt 6.03117621 3.40000085
vt 6.03117621 3.40000085
vt 6.04625023 3.40000085
vt 6.04625023 3.40000085
vt 6.05919635 3.40000085
vt 6.05919635 3.40000085
vt 6.06912649 3.40000085
vt 6.06912649 3.40000085
vt 6.07537305 3.40000085
vt 6.07537305 3.40000085
vt 6.07750094 3.40000085
vt 3.70250023 3.70000295
vt 3.70250023 3.70000295
vt 3.70462811 3.70000295
vt 3.70462811 3.70000295
vt 3.70462811 3.70000295
vt 3.70462811 3.70000295
vt 3.71087468 3.70000295
vt 3.71087468 3.70000295
vt 3.71087468 3.70000295
vt 3.71087468 3.70000295
vt 3.72080481 3.70000295
vt 3.72080481 3.70000295
vt 3.72080481 3.70000295
vt 3.72080481 3.70000295
vt 3.73375094 3.70000295
vt 3.73375094 3.70000295
vt 3.73375094 3.70000295
vt 3.73375094 3.70000295
vt 3.74882496 3.70000295
vt 3.74882496 3.70000295
vt 3.74882496 3.70000295
vt 3.74882496 3.70000295
vt 3.76500166 3.70000295
vt 3.76500166 3.70000295
vt 3.76500166 3.70000295
vt 3.76500166 3.70000295
vt 3.78117836 3.70000295
vt 3.78117836 3.70000295
vt 3.78117836 3.70000295
vt 3.78117836 3.70000295
vt 3.79625237 3.70000295
vt 3.79625237 3.70000295
vt 3.79625237 3.70000295
vt 3.79625237 3.70000295
vt 3.80919254 3.70000295
vt 3.80919254 3.70000295
vt 3.80919254 3.70000295
vt 3.80919254 3.70000295
vt 3.81912863 3.70000295
vt 3.81912863 3.70000295
vt 3.81912863 3.70000295
vt 3.81912863 3.70000295
vt 3.82536924 3.70000295
vt 3.82536924 3.70000295
vt 3.82536924 3.70000295
vt 3.82536924 3.70000295
vt 3.82749713 3.70000295
vt 3.82749713 3.70000295
vt 5.95249808 3.70000295
vt 5.95249808 3.70000295
vt 5.95463193 3.70000295
vt 5.95463193 3.70000295
vt 5.95463193 3.70000295
vt 5.95463193 3.70000295
vt 5.96087253 3.70000295
vt 5.96087253 3.70000295
vt 5.96087253 3.70000295
vt 5.96087253 3.70000295
vt 5.97080863 3.70000295
vt 5.97080863 3.70000295
vt 5.97080863 3.70000295
vt 5.97080863 3.70000295
vt 5.98374879 3.70000295
vt 5.98374879 3.70000295
vt 5.98374879 3.70000295
vt 5.98374879 3.70000295
vt 5.99882281 3.70000295
vt 5.99882281 3.70000295
vt 5.99882281 3.70000295
vt 5.99882281 3.70000295
vt 6.01499951 3.70000295
vt 6.01499951 3.70000295
vt 6.01499951 3.70000295
vt 6.01499951 3.70000295
vt 6.03117621 3.70000295
vt 6.03117621 3.70000295
vt 6.03117621 3.70000295
vt 6.03117621 3.70000295
vt 6.04625023 3.70000295
vt 6.04625023 3.70000295
vt 6.04625023 3.70000295
vt 6.04625023 3.70000295
vt 6.05919635 3.70000295
vt 6.05919635 3.70000295
vt 6.05919635 3.70000295
vt 6.05919635 3.70000295
vt 6.06912649 3.70000295
vt 6.06912649 3.70000295
vt 6.06912649 3.70000295
vt 6.06912649 3.70000295
vt 6.07537305 3.70000295
vt 6.07537305 3.70000295
vt 6.07537305 3.70000295
vt 6.07537305 3.70000295
vt 6.07750094 3.70000295
vt 6.07750094 3.70000295
f 167/167 71/71 163/163
f 163/163 71/71 67/67
f 163/163 67/67 159/159
f 159/159 67/67 63/63
f 159/159 63/63 155/155
f 155/155 63/63 59/59
f 155/155 59/59 151/151
f 151/151 59/59 55/55
f 151/151 55/55 147/147
f 147/147 55/55 51/51
f 147/147 51/51 145/145
f 145/145 51/51 49/49
f 145/145 49/49 148/148
f 148/148 49/49 52/52
f 148/148 52/52 152/152
f 152/152 52/52 56/56
f 152/152 56/56 156/156
f 156/156 56/56 60/60
f 156/156 60/60 160/160
f 160/160 60/60 64/64
f 160/160 64/64 164/164
f 164/164 64/64 68/68
f 164/164 68/68 168/168
f 168/168 68/68 72/72
f 168/168 72/72 172/172
f 172/172 72/72 76/76
f 172/172 76/76 176/176
f 176/176 76/76 80/80
f 176/176 80/80 180/180
f 180/180 80/80 84/84
f 180/180 84/84 184/184
f 184/184 84/84 88/88
f 184/184 88/88 188/188
f 188/188 88/88 92/92
f 188/188 92/92 191/191
f 191/191 92/92 95/95
f 191/191 95/95 187/187
f 187/187 95/95 91/91
f 187/187 91/91 183/183
f 183/183 91/91 87/87
f 183/183 87/87 179/179
f 179/179 87/87 83/83
f 179/179 83/83 175/175
f 175/175 83/83 79/79
f 175/175 79/79 171/171
f 171/171 79/79 75/75
f 171/171 75/75 167/167
f 167/167 75/75 71/71
f 289/289 293/293 273/273
f 273/273 293/293 277/277
f 273/273 277/277 257/257
f 257/257 277/277 261/261
f 257/257 261/261 241/241
f 241/241 261/261 245/245
f 241/241 245/245 225/225
f 225/225 245/245 229/229
f 225/225 229/229 209/209
f 209/209 229/229 213/213
f 209/209 213/213 197/197
f 197/197 213/213 199/199
f 197/197 199/199 210/210
f 210/210 199/199 214/214
f 210/210 214/214 226/226
f 226/226 214/214 230/230
f 226/226 230/230 242/242
f 242/242 230/230 246/246
f 242/242 246/246 258/258
f 258/258 246/246 262/262
f 258/258 262/262 274/274
f 274/274 262/262 278/278
f 274/274 278/278 290/290
f 290/290 278/278 294/294
f 290/290 294/294 306/306
f 306/306 294/294 310/310
f 306/306 310/310 322/322
f 322/322 310/310 326/326
f 322/322 326/326 338/338
f 338/338 326/326 342/342
f 338/338 342/342 354/354
f 354/354 342/342 358/358
f 354/354 358/358 370/370
f 370/370 358/358 374/374
f 370/370 374/374 381/381
f 381/381 374/374 383/383
f 381/381 383/383 369/369
f 369/369 383/383 373/373
f 369/369 373/373 353/353
f 353/353 373/373 357/357
f 353/353 357/357 337/337
f 337/337 357/357 341/341
f 337/337 341/341 321/321
f 321/321 341/341 325/325
f 321/321 325/325 305/305
f 305/305 325/325 309/309
f 305/305 309/309 289/289
f 289/289 309/309 293/293
f 673/673 677/677 657/657
f 657/657 677/677 661/661
f 657/657 661/661 641/641
f 641/641 661/661 645/645
f 641/641 645/645 625/625
f 625/625 645/645 629/629
f 625/625 629/629 609/609
f 609/609 629/629 613/613
f 609/609 613/613 593/593
f 593/593 613/613 597/597
f 593/593 597/597 581/581
f 581/581 597/597 583/583
f 581/581 583/583 594/594
f 594/594 583/583 598/598
f 594/594 598/598 610/610
f 610/610 598/598 614/614
f 610/610 614/614 626/626
f 626/626 614/614 630/630
f 626/626 630/630 642/642
f 642/642 630/630 646/646
f 642/642 646/646 658/658
f 658/658 646/646 662/662
f 658/658 662/662 674/674
f 674/674 662/662 678/678
f 674/674 678/678 690/690
f 690/690 678/678 694/694
f 690/690 694/694 706/706
f 706/706 694/694 710/710
f 706/706 710/710 722/722
f 722/722 710/710 726/726
f 722/722 726/726 738/738
f 738/738 726/726 742/742
f 738/738 742/742 754/754
f 754/754 742/742 758/758
f 754/754 758/758 765/765
f 765/765 758/758 767/767
f 765/765 767/767 753/753
f 753/753 767/767 757/757
f 753/753 757/757 737/737
f 737/737 757/757 741/741
f 737/737 741/741 721/721
f 721/721 741/741 725/725
f 721/721 725/725 705/705
f 705/705 725/725 709/709
f 705/705 709/709 689/689
f 689/689 709/709 693/693
f 689/689 693/693 673/673
f 673/673 693/693 677/677
f 829/829 888/888 827/827
f 827/827 888/888 884/884
f 827/827 884/884 825/825
f 825/825 884/884 880/880
f 825/825 880/880 823/823
f 823/823 880/880 876/876
f 823/823 876/876 821/821
f 821/821 876/876 872/872
f 821/821 872/872 819/819
f 819/819 872/872 868/868
f 819/819 868/868 817/817
f 817/817 868/868 865/865
f 817/817 865/865 818/818
f 818/818 865/865 867/867
f 818/818 867/867 820/820
f 820/820 867/867 871/871
f 820/820 871/871 822/822
f 822/822 871/871 875/875
f 822/822 875/875 824/824
f 824/824 875/875 879/879
f 824/824 879/879 826/826
f 826/826 879/879 883/883
f 826/826 883/883 828/828
f 828/828 883/883 887/887
f 828/828 887/887 830/830
f 830/830 887/887 891/891
f 830/830 891/891 832/832
f 832/832 891/891 895/895
f 832/832 895/895 834/834
f 834/834 895/895 899/899
f 834/834 899/899 836/836
f 836/836 899/899 903/903
f 836/836 903/903 838/838
f 838/838 903/903 907/907
f 838/838 907/907 840/840
f 840/840 907/907 911/911
f 840/840 911/911 839/839
f 839/839 911/911 908/908
f 839/839 908/908 837/837
f 837/837 908/908 904/904
f 837/837 904/904 835/835
f 835/835 904/904 900/900
f 835/835 900/900 833/833
f 833/833 900/900 896/896
f 833/833 896/896 831/831
f 831/831 896/896 892/892
f 831/831 892/892 829/829
f 829/829 892/892 888/888
f 853/853 936/936 851/851
f 851/851 936/936 932/932
f 851/851 932/932 849/849
f 849/849 932/932 928/928
f 849/849 928/928 847/847
f 847/847 928/928 924/924
f 847/847 924/924 845/845
f 845/845 924/924 920/920
f 845/845 920/920 843/843
f 843/843 920/920 916/916
f 843/843 916/916 841/841
f 841/841 916/916 913/913
f 841/841 913/913 842/842
f 842/842 913/913 915/915
f 842/842 915/915 844/844
f 844/844 915/915 919/919
f 844/844 919/919 846/846
f 846/846 919/919 923/923
f 846/846 923/923 848/848
f 848/848 923/923 927/927
f 848/848 927/927 850/850
f 850/850 927/927 931/931
f 850/850 931/931 852/852
f 852/852 931/931 935/935
f 852/852 935/935 854/854
f 854/854 935/935 939/939
f 854/854 939/939 856/856
f 856/856 939/939 943/943
f 856/856 943/943 858/858
f 858/858 943/943 947/947
f 858/858 947/947 860/860
f 860/860 947/947 951/951
f 860/860 951/951 862/862
f 862/862 951/951 955/955
f 862/862 955/955 864/864
f 864/864 955/955 959/959
f 864/864 959/959 863/863
f 863/863 959/959 956/956
f 863/863 956/956 861/861
f 861/861 956/956 952/952
f 861/861 952/952 859/859
f 859/859 952/952 948/948
f 859/859 948/948 857/857
f 857/857 948/948 944/944
f 857/857 944/944 855/855
f 855/855 944/944 940/940
f 855/855 940/940 853/853
f 853/853 940/940 936/936
f 670/670 666/666 654/654
f 654/654 666/666 650/650
f 654/654 650/650 638/638
f 638/638 650/650 634/634
f 638/638 634/634 622/622
f 622/622 634/634 618/618
f 622/622 618/618 606/606
f 606/606 618/618 602/602
f 606/606 602/602 590/590
f 590/590 602/602 586/586
f 590/590 586/586 579/579
f 579/579 586/586 577/577
f 579/579 577/577 589/589
f 589/589 577/577 585/585
f 589/589 585/585 605/605
f 605/605 585/585 601/601
f 605/605 601/601 621/621
f 621/621 601/601 617/617
f 621/621 617/617 637/637
f 637/637 617/617 633/633
f 637/637 633/633 653/653
f 653/653 633/633 649/649
f 653/653 649/649 669/669
f 669/669 649/649 665/665
f 669/669 665/665 685/685
f 685/685 665/665 681/681
f 685/685 681/681 701/701
f 701/701 681/681 697/697
f 701/701 697/697 717/717
f 717/717 697/697 713/713
f 717/717 713/713 733/733
f 733/733 713/713 729/729
f 733/733 729/729 749/749
f 749/749 729/729 745/745
f 749/749 745/745 763/763
f 763/763 745/745 761/761
f 763/763 761/761 750/750
f 750/750 761/761 746/746
f 750/750 746/746 734/734
f 734/734 746/746 730/730
f 734/734 730/730 718/718
f 718/718 730/730 714/714
f 718/718 714/714 702/702
f 702/702 714/714 698/698
f 702/702 698/698 686/686
f 686/686 698/698 682/682
f 686/686 682/682 670/670
f 670/670 682/682 666/666
f 286/286 282/282 270/270
f 270/270 282/282 266/266
f 270/270 266/266 254/254
f 254/254 266/266 250/250
f 254/254 250/250 238/238
f 238/238 250/250 234/234
f 238/238 234/234 222/222
f 222/222 234/234 218/218
f 222/222 218/218 206/206
f 206/206 218/218 202/202
f 206/206 202/202 195/195
f 195/195 202/202 193/193
f 195/195 193/193 205/205
f 205/205 193/193 201/201
f 205/205 201/201 221/221
f 221/221 201/201 217/217
f 221/221 217/217 237/237
f 237/237 217/217 233/233
f 237/237 233/233 253/253
f 253/253 233/233 249/249
f 253/253 249/249 269/269
f 269/269 249/249 265/265
f 269/269 265/265 285/285
f 285/285 265/265 281/281
f 285/285 281/281 301/301
f 301/301 281/281 297/297
f 301/301 297/297 317/317
f 317/317 297/297 313/313
f 317/317 313/313 333/333
f 333/333 313/313 329/329
f 333/333 329/329 349/349
f 349/349 329/329 345/345
f 349/349 345/345 365/365
f 365/365 345/345 361/361
f 365/365 361/361 379/379
f 379/379 361/361 377/377
f 379/379 377/377 366/366
f 366/366 377/377 362/362
f 366/366 362/362 350/350
f 350/350 362/362 346/346
f 350/350 346/346 334/334
f 334/334 346/346 330/330
f 334/334 330/330 318/318
f 318/318 330/330 314/314
f 318/318 314/314 302/302
f 302/302 314/314 298/298
f 302/302 298/298 286/286
f 286/286 298/298 282/282
f 119/119 23/23 115/115
f 115/115 23/23 19/19
f 115/115 19/19 111/111
f 111/111 19/19 15/15
f 111/111 15/15 107/107
f 107/107 15/15 11/11
f 107/107 11/11 103/103
f 103/103 11/11 7/7
f 103/103 7/7 99/99
f 99/99 7/7 3/3
f 99/99 3/3 97/97
f 97/97 3/3 1/1
f 97/97 1/1 100/100
f 100/100 1/1 4/4
f 100/100 4/4 104/104
f 104/104 4/4 8/8
f 104/104 8/8 108/108
f 108/108 8/8 12/12
f 108/108 12/12 112/112
f 112/112 12/12 16/16
f 112/112 16/16 116/116
f 116/116 16/16 20/20
f 116/116 20/20 120/120
f 120/120 20/20 24/24
f 120/120 24/24 124/124
f 124/124 24/24 28/28
f 124/124 28/28 128/128
f 128/128 28/28 32/32
f 128/128 32/32 132/132
f 132/132 32/32 36/36
f 132/132 36/36 136/136
f 136/136 36/36 40/40
f 136/136 40/40 140/140
f 140/140 40/40 44/44
f 140/140 44/44 143/143
f 143/143 44/44 47/47
f 143/143 47/47 139/139
f 139/139 47/47 43/43
f 139/139 43/43 135/135
f 135/135 43/43 39/39
f 135/135 39/39 131/131
f 131/131 39/39 35/35
f 131/131 35/35 127/127
f 127/127 35/35 31/31
f 127/127 31/31 123/123
f 123/123 31/31 27/27
f 123/123 27/27 119/119
f 119/119 27/27 23/23
f 169/169 73/73 165/165
f 165/165 73/73 69/69
f 165/165 69/69 161/161
f 161/161 69/69 65/65
f 161/161 65/65 157/157
f 157/157 65/65 61/61
f 157/157 61/61 153/153
f 153/153 61/61 57/57
f 153/153 57/57 149/149
f 149/149 57/57 53/53
f 149/149 53/53 146/146
f 146/146 53/53 50/50
f 146/146 50/50 150/150
f 150/150 50/50 54/54
f 150/150 54/54 154/154
f 154/154 54/54 58/58
f 154/154 58/58 158/158
f 158/158 58/58 62/62
f 158/158 62/62 162/162
f 162/162 62/62 66/66
f 162/162 66/66 166/166
f 166/166 66/66 70/70
f 166/166 70/70 170/170
f 170/170 70/70 74/74
f 170/170 74/74 174/174
f 174/174 74/74 78/78
f 174/174 78/78 178/178
f 178/178 78/78 82/82
f 178/178 82/82 182/182
f 182/182 82/82 86/86
f 182/182 86/86 186/186
f 186/186 86/86 90/90
f 186/186 90/90 190/190
f 190/190 90/90 94/94
f 190/190 94/94 192/192
f 192/192 94/94 96/96
f 192/192 96/96 189/189
f 189/189 96/96 93/93
f 189/189 93/93 185/185
f 185/185 93/93 89/89
f 185/185 89/89 181/181
f 181/181 89/89 85/85
f 181/181 85/85 177/177
f 177/177 85/85 81/81
f 177/177 81/81 173/173
f 173/173 81/81 77/77
f 173/173 77/77 169/169
f 169/169 77/77 73/73
f 121/121 25/25 117/117
f 117/117 25/25 21/21
f 117/117 21/21 113/113
f 113/113 21/21 17/17
f 113/113 17/17 109/109
f 109/109 17/17 13/13
f 109/109 13/13 105/105
f 105/105 13/13 9/9
f 105/105 9/9 101/101
f 101/101 9/9 5/5
f 101/101 5/5 98/98
f 98/98 5/5 2/2
f 98/98 2/2 102/102
f 102/102 2/2 6/6
f 102/102 6/6 106/106
f 106/106 6/6 10/10
f 106/106 10/10 110/110
f 110/110 10/10 14/14
f 110/110 14/14 114/114
f 114/114 14/14 18/18
f 114/114 18/18 118/118
f 118/118 18/18 22/22
f 118/118 22/22 122/122
f 122/122 22/22 26/26
f 122/122 26/26 126/126
f 126/126 26/26 30/30
f 126/126 30/30 130/130
f 130/130 30/30 34/34
f 130/130 34/34 134/134
f 134/134 34/34 38/38
f 134/134 38/38 138/138
f 138/138 38/38 42/42
f 138/138 42/42 142/142
f 142/142 42/42 46/46
f 142/142 46/46 144/144
f 144/144 46/46 48/48
f 144/144 48/48 141/141
f 141/141 48/48 45/45
f 141/141 45/45 137/137
f 137/137 45/45 41/41
f 137/137 41/41 133/133
f 133/133 41/41 37/37
f 133/133 37/37 129/129
f 129/129 37/37 33/33
f 129/129 33/33 125/125
f 125/125 33/33 29/29
f 125/125 29/29 121/121
f 121/121 29/29 25/25
f 672/672 668/668 656/656
f 656/656 668/668 652/652
f 656/656 652/652 640/640
f 640/640 652/652 636/636
f 640/640 636/636 624/624
f 624/624 636/636 620/620
f 624/624 620/620 608/608
f 608/608 620/620 604/604
f 608/608 604/604 592/592
f 592/592 604/604 588/588
f 592/592 588/588 580/580
f 580/580 588/588 578/578
f 580/580 578/578 591/591
f 591/591 578/578 587/587
f 591/591 587/587 607/607
f 607/607 587/587 603/603
f 607/607 603/603 623/623
f 623/623 603/603 619/619
f 623/623 619/619 639/639
f 639/639 619/619 635/635
f 639/639 635/635 655/655
f 655/655 635/635 651/651
f 655/655 651/651 671/671
f 671/671 651/651 667/667
f 671/671 667/667 687/687
f 687/687 667/667 683/683
f 687/687 683/683 703/703
f 703/703 683/683 699/699
f 703/703 699/699 719/719
f 719/719 699/699 715/715
f 719/719 715/715 735/735
f 735/735 715/715 731/731
f 735/735 731/731 751/751
f 751/751 731/731 747/747
f 751/751 747/747 764/764
f 764/764 747/747 762/762
f 764/764 762/762 752/752
f 752/752 762/762 748/748
f 752/752 748/748 736/736
f 736/736 748/748 732/732
f 736/736 732/732 720/720
f 720/720 732/732 716/716
f 720/720 716/716 704/704
f 704/704 716/716 700/700
f 704/704 700/700 688/688
f 688/688 700/700 684/684
f 688/688 684/684 672/672
f 672/672 684/684 668/668
f 429/429 431/431 421/421
f 421/421 431/431 423/423
f 421/421 423/423 413/413
f 413/413 423/423 415/415
f 413/413 415/415 405/405
f 405/405 415/415 407/407
f 405/405 407/407 397/397
f 397/397 407/407 399/399
f 397/397 399/399 389/389
f 389/389 399/399 391/391
f 389/389 391/391 385/385
f 385/385 391/391 386/386
f 385/385 386/386 390/390
f 390/390 386/386 392/392
f 390/390 392/392 398/398
f 398/398 392/392 400/400
f 398/398 400/400 406/406
f 406/406 400/400 408/408
f 406/406 408/408 414/414
f 414/414 408/408 416/416
f 414/414 416/416 422/422
f 422/422 416/416 424/424
f 422/422 424/424 430/430
f 430/430 424/424 432/432
f 430/430 432/432 438/438
f 438/438 432/432 440/440
f 438/438 440/440 446/446
f 446/446 440/440 448/448
f 446/446 448/448 454/454
f 454/454 448/448 456/456
f 454/454 456/456 462/462
f 462/462 456/456 464/464
f 462/462 464/464 470/470
f 470/470 464/464 472/472
f 470/470 472/472 477/477
f 477/477 472/472 478/478
f 477/477 478/478 469/469
f 469/469 478/478 471/471
f 469/469 471/471 461/461
f 461/461 471/471 463/463
f 461/461 463/463 453/453
f 453/453 463/463 455/455
f 453/453 455/455 445/445
f 445/445 455/455 447/447
f 445/445 447/447 437/437
f 437/437 447/447 439/439
f 437/437 439/439 429/429
f 429/429 439/439 431/431
f 527/527 529/529 517/517
f 517/517 529/529 519/519
f 517/517 519/519 509/509
f 509/509 519/519 511/511
f 509/509 511/511 501/501
f 501/501 511/511 503/503
f 501/501 503/503 493/493
f 493/493 503/503 495/495
f 493/493 495/495 485/485
f 485/485 495/495 487/487
f 485/485 487/487 481/481
f 481/481 487/487 482/482
f 481/481 482/482 486/486
f 486/486 482/482 488/488
f 486/486 488/488 494/494
f 494/494 488/488 496/496
f 494/494 496/496 502/502
f 502/502 496/496 504/504
f 502/502 504/504 510/510
f 510/510 504/504 512/512
f 510/510 512/512 518/518
f 518/518 512/512 520/520
f 518/518 520/520 528/528
f 528/528 520/520 525/525
f 528/528 525/525 534/534
f 534/534 525/525 536/536
f 534/534 536/536 542/542
f 542/542 536/536 544/544
f 542/542 544/544 550/550
f 550/550 544/544 552/552
f 550/550 552/552 558/558
f 558/558 552/552 560/560
f 558/558 560/560 566/566
f 566/566 560/560 568/568
f 566/566 568/568 573/573
f 573/573 568/568 574/574
f 573/573 574/574 565/565
f 565/565 574/574 567/567
f 565/565 567/567 557/557
f 557/557 567/567 559/559
f 557/557 559/559 549/549
f 549/549 559/559 551/551
f 549/549 551/551 541/541
f 541/541 551/551 543/543
f 541/541 543/543 533/533
f 533/533 543/543 535/535
f 533/533 535/535 527/527
f 527/527 535/535 529/529
f 781/781 890/890 779/779
f 779/779 890/890 886/886
f 779/779 886/886 777/777
f 777/777 886/886 882/882
f 777/777 882/882 775/775
f 775/775 882/882 878/878
f 775/775 878/878 773/773
f 773/773 878/878 874/874
f 773/773 874/874 771/771
f 771/771 874/874 870/870
f 771/771 870/870 769/769
f 769/769 870/870 866/866
f 769/769 866/866 770/770
f 770/770 866/866 869/869
f 770/770 869/869 772/772
f 772/772 869/869 873/873
f 772/772 873/873 774/774
f 774/774 873/873 877/877
f 774/774 877/877 776/776
f 776/776 877/877 881/881
f 776/776 881/881 778/778
f 778/778 881/881 885/885
f 778/778 885/885 780/780
f 780/780 885/885 889/889
f 780/780 889/889 782/782
f 782/782 889/889 893/893
f 782/782 893/893 784/784
f 784/784 893/893 897/897
f 784/784 897/897 786/786
f 786/786 897/897 901/901
f 786/786 901/901 788/788
f 788/788 901/901 905/905
f 788/788 905/905 790/790
f 790/790 905/905 909/909
f 790/790 909/909 792/792
f 792/792 909/909 912/912
f 792/792 912/912 791/791
f 791/791 912/912 910/910
f 791/791 910/910 789/789
f 789/789 910/910 906/906
f 789/789 906/906 787/787
f 787/787 906/906 902/902
f 787/787 902/902 785/785
f 785/785 902/902 898/898
f 785/785 898/898 783/783
f 783/783 898/898 894/894
f 783/783 894/894 781/781
f 781/781 894/894 890/890
f 805/805 938/938 803/803
f 803/803 938/938 934/934
f 803/803 934/934 801/801
f 801/801 934/934 930/930
f 801/801 930/930 799/799
f 799/799 930/930 926/926
f 799/799 926/926 797/797
f 797/797 926/926 922/922
f 797/797 922/922 795/795
f 795/795 922/922 918/918
f 795/795 918/918 793/793
f 793/793 918/918 914/914
f 793/793 914/914 794/794
f 794/794 914/914 917/917
f 794/794 917/917 796/796
f 796/796 917/917 921/921
f 796/796 921/921 798/798
f 798/798 921/921 925/925
f 798/798 925/925 800/800
f 800/800 925/925 929/929
f 800/800 929/929 802/802
f 802/802 929/929 933/933
f 802/802 933/933 804/804
f 804/804 933/933 937/937
f 804/804 937/937 806/806
f 806/806 937/937 941/941
f 806/806 941/941 808/808
f 808/808 941/941 945/945
f 808/808 945/945 810/810
f 810/810 945/945 949/949
f 810/810 949/949 812/812
f 812/812 949/949 953/953
f 812/812 953/953 814/814
f 814/814 953/953 957/957
f 814/814 957/957 816/816
f 816/816 957/957 960/960
f 816/816 960/960 815/815
f 815/815 960/960 958/958
f 815/815 958/958 813/813
f 813/813 958/958 954/954
f 813/813 954/954 811/811
f 811/811 954/954 950/950
f 811/811 950/950 809/809
f 809/809 950/950 946/946
f 809/809 946/946 807/807
f 807/807 946/946 942/942
f 807/807 942/942 805/805
f 805/805 942/942 938/938
f 675/675 679/679 659/659
f 659/659 679/679 663/663
f 659/659 663/663 643/643
f 643/643 663/663 647/647
f 643/643 647/647 627/627
f 627/627 647/647 631/631
f 627/627 631/631 611/611
f 611/611 631/631 615/615
f 611/611 615/615 595/595
f 595/595 615/615 599/599
f 595/595 599/599 582/582
f 582/582 599/599 584/584
f 582/582 584/584 596/596
f 596/596 584/584 600/600
f 596/596 600/600 612/612
f 612/612 600/600 616/616
f 612/612 616/616 628/628
f 628/628 616/616 632/632
f 628/628 632/632 644/644
f 644/644 632/632 648/648
f 644/644 648/648 660/660
f 660/660 648/648 664/664
f 660/660 664/664 676/676
f 676/676 664/664 680/680
f 676/676 680/680 692/692
f 692/692 680/680 696/696
f 692/692 696/696 708/708
f 708/708 696/696 712/712
f 708/708 712/712 724/724
f 724/724 712/712 728/728
f 724/724 728/728 740/740
f 740/740 728/728 744/744
f 740/740 744/744 756/756
f 756/756 744/744 760/760
f 756/756 760/760 766/766
f 766/766 760/760 768/768
f 766/766 768/768 755/755
f 755/755 768/768 759/759
f 755/755 759/759 739/739
f 739/739 759/759 743/743
f 739/739 743/743 723/723
f 723/723 743/743 727/727
f 723/723 727/727 707/707
f 707/707 727/727 711/711
f 707/707 711/711 691/691
f 691/691 711/711 695/695
f 691/691 695/695 675/675
f 675/675 695/695 679/679
f 433/433 435/435 425/425
f 425/425 435/435 427/427
f 425/425 427/427 417/417
f 417/417 427/427 419/419
f 417/417 419/419 409/409
f 409/409 419/419 411/411
f 409/409 411/411 401/401
f 401/401 411/411 403/403
f 401/401 403/403 393/393
f 393/393 403/403 395/395
f 393/393 395/395 387/387
f 387/387 395/395 388/388
f 387/387 388/388 394/394
f 394/394 388/388 396/396
f 394/394 396/396 402/402
f 402/402 396/396 404/404
f 402/402 404/404 410/410
f 410/410 404/404 412/412
f 410/410 412/412 418/418
f 418/418 412/412 420/420
f 418/418 420/420 426/426
f 426/426 420/420 428/428
f 426/426 428/428 434/434
f 434/434 428/428 436/436
f 434/434 436/436 442/442
f 442/442 436/436 444/444
f 442/442 444/444 450/450
f 450/450 444/444 452/452
f 450/450 452/452 458/458
f 458/458 452/452 460/460
f 458/458 460/460 466/466
f 466/466 460/460 468/468
f 466/466 468/468 474/474
f 474/474 468/468 476/476
f 474/474 476/476 479/479
f 479/479 476/476 480/480
f 479/479 480/480 473/473
f 473/473 480/480 475/475
f 473/473 475/475 465/465
f 465/465 475/475 467/467
f 465/465 467/467 457/457
f 457/457 467/467 459/459
f 457/457 459/459 449/449
f 449/449 459/459 451/451
f 449/449 451/451 441/441
f 441/441 451/451 443/443
f 441/441 443/443 433/433
f 433/433 443/443 435/435
f 530/530 531/531 521/521
f 521/521 531/531 523/523
f 521/521 523/523 513/513
f 513/513 523/523 515/515
f 513/513 515/515 505/505
f 505/505 515/515 507/507
f 505/505 507/507 497/497
f 497/497 507/507 499/499
f 497/497 499/499 489/489
f 489/489 499/499 491/491
f 489/489 491/491 483/483
f 483/483 491/491 484/484
f 483/483 484/484 490/490
f 490/490 484/484 492/492
f 490/490 492/492 498/498
f 498/498 492/492 500/500
f 498/498 500/500 506/506
f 506/506 500/500 508/508
f 506/506 508/508 514/514
f 514/514 508/508 516/516
f 514/514 516/516 522/522
f 522/522 516/516 524/524
f 522/522 524/524 526/526
f 526/526 524/524 532/532
f 526/526 532/532 538/538
f 538/538 532/532 540/540
f 538/538 540/540 546/546
f 546/546 540/540 548/548
f 546/546 548/548 554/554
f 554/554 548/548 556/556
f 554/554 556/556 562/562
f 562/562 556/556 564/564
f 562/562 564/564 570/570
f 570/570 564/564 572/572
f 570/570 572/572 575/575
f 575/575 572/572 576/576
f 575/575 576/576 569/569
f 569/569 576/576 571/571
f 569/569 571/571 561/561
f 561/561 571/571 563/563
f 561/561 563/563 553/553
f 553/553 563/563 555/555
f 553/553 555/555 545/545
f 545/545 555/555 547/547
f 545/545 547/547 537/537
f 537/537 547/547 539/539
f 537/537 539/539 530/530
f 530/530 539/539 531/531
f 291/291 295/295 275/275
f 275/275 295/295 279/279
f 275/275 279/279 259/259
f 259/259 279/279 263/263
f 259/259 263/263 243/243
f 243/243 263/263 247/247
f 243/243 247/247 227/227
f 227/227 247/247 231/231
f 227/227 231/231 211/211
f 211/211 231/231 215/215
f 211/211 215/215 198/198
f 198/198 215/215 200/200
f 198/198 200/200 212/212
f 212/212 200/200 216/216
f 212/212 216/216 228/228
f 228/228 216/216 232/232
f 228/228 232/232 244/244
f 244/244 232/232 248/248
f 244/244 248/248 260/260
f 260/260 248/248 264/264
f 260/260 264/264 276/276
f 276/276 264/264 280/280
f 276/276 280/280 292/292
f 292/292 280/280 296/296
f 292/292 296/296 308/308
f 308/308 296/296 312/312
f 308/308 312/312 324/324
f 324/324 312/312 328/328
f 324/324 328/328 340/340
f 340/340 328/328 344/344
f 340/340 344/344 356/356
f 356/356 344/344 360/360
f 356/356 360/360 372/372
f 372/372 360/360 376/376
f 372/372 376/376 382/382
f 382/382 376/376 384/384
f 382/382 384/384 371/371
f 371/371 384/384 375/375
f 371/371 375/375 355/355
f 355/355 375/375 359/359
f 355/355 359/359 339/339
f 339/339 359/359 343/343
f 339/339 343/343 323/323
f 323/323 343/343 327/327
f 323/323 327/327 307/307
f 307/307 327/327 311/311
f 307/307 311/311 291/291
f 291/291 311/311 295/295
f 288/288 284/284 272/272
f 272/272 284/284 268/268
f 272/272 268/268 256/256
f 256/256 268/268 252/252
f 256/256 252/252 240/240
f 240/240 252/252 236/236
f 240/240 236/236 224/224
f 224/224 236/236 220/220
f 224/224 220/220 208/208
f 208/208 220/220 204/204
f 208/208 204/204 196/196
f 196/196 204/204 194/194
f 196/196 194/194 207/207
f 207/207 194/194 203/203
f 207/207 203/203 223/223
f 223/223 203/203 219/219
f 223/223 219/219 239/239
f 239/239 219/219 235/235
f 239/239 235/235 255/255
f 255/255 235/235 251/251
f 255/255 251/251 271/271
f 271/271 251/251 267/267
f 271/271 267/267 287/287
f 287/287 267/267 283/283
f 287/287 283/283 303/303
f 303/303 283/283 299/299
f 303/303 299/299 319/319
f 319/319 299/299 315/315
f 319/319 315/315 335/335
f 335/335 315/315 331/331
f 335/335 331/331 351/351
f 351/351 331/331 347/347
f 351/351 347/347 367/367
f 367/367 347/347 363/363
f 367/367 363/363 380/380
f 380/380 363/363 378/378
f 380/380 378/378 368/368
f 368/368 378/378 364/364
f 368/368 364/364 352/352
f 352/352 364/364 348/348
f 352/352 348/348 336/336
f 336/336 348/348 332/332
f 336/336 332/332 320/320
f 320/320 332/332 316/316
f 320/320 316/316 304/304
f 304/304 316/316 300/300
f 304/304 300/300 288/288
f 288/288 300/300 284/284
