v 0.0817415103 0.115682657 0.0297866461
v 0.0817415103 0.115682657 0.0318999884
v 0.0824486598 0.114975507 0.0318999884
v 0.0824486598 0.114975507 0.0239500401
v 0.0817415103 0.115682657 0.0239500401
v 0.0817415103 0.115682657 0.0242125389
v 0.0817415103 0.115682657 0.0266802904
v 0.0817415103 0.115682657 0.0273690817
v 0.0817415103 0.115682657 0.0287310478
v 0.085944353 0.11988538 0.0740980503
v 0.0864791259 0.120420272 0.0740980503
v 0.0864791259 0.120420272 0.0727874634
v 0.0861255511 0.120066698 0.0260311959
v 0.085944353 0.11988538 0.0261387226
v 0.085944353 0.11988538 0.0266802904
v 0.0861255511 0.120066698 0.0375812647
v 0.085944353 0.11988538 0.0376887915
v 0.085944353 0.11988538 0.0382302401
v 0.0861164912 0.120057638 0.0611694453
v 0.085944353 0.11988538 0.0611694453
v 0.085944353 0.11988538 0.0618597863
v 0.0833639487 0.117305095 0.07050544
v 0.0833639487 0.117305095 0.0693244335
v 0.0828406199 0.116781766 0.0699171421
v 0.0821655377 0.116106565 0.0230407116
v 0.0822127446 0.116153891 0.0230072138
v 0.0816708192 0.115611966 0.0220499632
v 0.0823312386 0.116272266 0.0229704974
v 0.0816708192 0.115611966 0.0185000298
v 0.081762968 0.115704114 0.0237053034
v 0.0805394038 0.11448055 0.0220499632
v 0.081756173 0.1156972 0.0237832663
v 0.0805394038 0.11448055 0.0242125389
v 0.0818060025 0.115747149 0.0235491392
v 0.0818266257 0.115767772 0.0234742758
v 0.0818948134 0.11583596 0.0233393309
v 0.0819289073 0.115870054 0.0232719776
v 0.0820166453 0.115957792 0.023165643
v 0.0820555075 0.115996654 0.0231185553
v 0.0805394038 0.11448055 0.0773499605
v 0.0811051711 0.115046318 0.0749250052
v 0.0805394038 0.11448055 0.0740980503
v 0.0811051711 0.115046318 0.0747750399
v 0.0814056977 0.115346844 0.0747750399
v 0.083352743 0.11729389 0.0750481484
v 0.0833525046 0.117293651 0.0750488636
v 0.0833639487 0.117305095 0.0814999935
v 0.0833178147 0.117258961 0.075172126
v 0.0833157882 0.117256935 0.0751792786
v 0.0832700118 0.117211039 0.0752709505
v 0.0832687005 0.117209847 0.075272381
v 0.0831927642 0.117133911 0.0753657219
v 0.0814056977 0.115346844 0.0743500588
v 0.0815116748 0.115452821 0.0743500588
v 0.0833639487 0.117305095 0.0740980503
v 0.0825375899 0.116478736 0.0750020144
v 0.0825402125 0.11648124 0.0750117895
v 0.0832424744 0.117183502 0.0751006005
v 0.0825631007 0.116504247 0.0750983355
v 0.0825720414 0.116513069 0.0751166937
v 0.0826092347 0.116550381 0.0751941798
v 0.0831966981 0.117137845 0.0751923916
v 0.083197771 0.117138917 0.0751903651
v 0.0826773032 0.11661845 0.0752789376
v 0.0832404479 0.117181594 0.0751073954
v 0.0826758727 0.1166169 0.0752773878
v 0.0826171025 0.116558249 0.0752040741
v 0.0825677499 0.116508896 0.0746082661
v 0.0825770482 0.116518195 0.0745796559
v 0.0826160296 0.116557176 0.0745118258
v 0.0825427159 0.116483862 0.0746851561
v 0.0825390204 0.116480167 0.0747125742
v 0.0825265035 0.116467531 0.0748050806
v 0.0833144769 0.117255623 0.0745360253
v 0.0833522662 0.117293413 0.074665725
v 0.0833529815 0.117294128 0.0746727583
v 0.0818122014 0.115753348 0.0749250052
v 0.0826250895 0.116566117 0.0753841994
v 0.0825495108 0.116490657 0.0752907393
v 0.0825250729 0.116466219 0.0748547909
v 0.0825280532 0.1164692 0.0748904345
v 0.0832691773 0.117210205 0.0750060675
v 0.083269535 0.117210681 0.0750018952
v 0.0832821711 0.117223318 0.0748714802
v 0.083270131 0.117211278 0.0747123358
v 0.083260475 0.117201622 0.0746772883
v 0.0832402095 0.117181356 0.0746036169
v 0.0832226857 0.117163832 0.0745676157
v 0.0831997975 0.117140944 0.0745204088
v 0.0831745251 0.117115672 0.0744825003
v 0.083161889 0.117103035 0.0744690296
v 0.0831024035 0.11704355 0.0744057295
v 0.0830927476 0.117033894 0.0744001267
v 0.0830215796 0.116962726 0.0743582842
v 0.0830137118 0.116954739 0.0743564961
v 0.0829288348 0.116869981 0.0743373034
v 0.0826798066 0.116620834 0.0742714999
v 0.0827499017 0.116691048 0.0742260811
v 0.0818122014 0.115753348 0.0747750399
v 0.0815116748 0.115452821 0.0747750399
v 0.0829405173 0.116881664 0.0742005703
v 0.0830333814 0.116974528 0.0742165444
v 0.0830495938 0.11699074 0.0742253659
v 0.0831298217 0.117070849 0.0742695925
v 0.0815116748 0.115452821 0.0749250052
v 0.0815116748 0.115452821 0.0753499863
v 0.0831392392 0.117080386 0.0752612946
v 0.0832822903 0.117223437 0.0748547909
v 0.0832772836 0.117218311 0.0747954247
v 0.082903324 0.116844471 0.0743364689
v 0.0828663691 0.116807396 0.074342787
v 0.0827935323 0.116734679 0.0743551848
v 0.0827761277 0.116717155 0.0743644831
v 0.0827211722 0.116662319 0.074393451
v 0.0826955422 0.116636689 0.0744177697
v 0.0826482161 0.116589363 0.0744625923
v 0.0826328381 0.116573985 0.0744825003
v 0.0832391366 0.117180283 0.0743872521
v 0.0832522496 0.117193396 0.0744118092
v 0.0833092316 0.117250378 0.0745179055
v 0.082541643 0.11648279 0.0752810833
v 0.0824909791 0.116432126 0.0751746294
v 0.0824848994 0.116426046 0.0751619932
v 0.0816708192 0.115611966 0.0814999935
v 0.0816708192 0.115611966 0.0773499605
v 0.0814056977 0.115346844 0.0753499863
v 0.0814056977 0.115346844 0.0749250052
v 0.0827735051 0.116714652 0.0742196438
v 0.0828579053 0.116799052 0.0741966364
v 0.082903324 0.116844471 0.074194133
v 0.0831497296 0.117090876 0.0742889044
v 0.0832049235 0.11714607 0.0743420718
v 0.0824403151 0.116381462 0.0748299954
v 0.0824540242 0.116395171 0.0746710894
v 0.0824565276 0.116397674 0.0746617911
v 0.0824913367 0.116432483 0.0745348332
v 0.0824559316 0.116397078 0.0750467179
v 0.0824514016 0.116392548 0.0750285981
v 0.0824381694 0.116379316 0.0748547909
v 0.0825001582 0.116441305 0.0745169518
v 0.0825524911 0.116493638 0.0744110939
v 0.0825682267 0.116509373 0.0743872521
v 0.082592903 0.11653405 0.0743588803
v 0.0826551303 0.116596277 0.0742874739
v 0.0833639487 0.117305095 0.0747832653
v 0.0833689555 0.117310102 0.0748339293
v 0.0851965531 0.1191377 0.0740980503
v 0.0833691939 0.11731034 0.0748547909
v 0.0833656176 0.117306645 0.0748974678
v 0.0833639487 0.117305095 0.0749161837
v 0.0805394038 0.11448055 0.0711396334
v 0.0805394038 0.11448055 0.0722321865
v 0.0824486598 0.116389806 0.0713992712
v 0.0830026254 0.116943772 0.0713992712
v 0.0833639487 0.117305095 0.0722321865
v 0.0830026254 0.116943772 0.0712670681
v 0.0833639487 0.117305095 0.0711396334
v 0.0824486598 0.116389806 0.0712670681
v 0.0828890189 0.116830165 0.0713955757
v 0.0829272851 0.116868432 0.071427643
v 0.0829381331 0.11687916 0.0714367029
v 0.0829626902 0.116903837 0.0714711544
v 0.0828900918 0.116831238 0.0714678166
v 0.0828763827 0.11681741 0.0714510081
v 0.0824486598 0.116389806 0.0718380806
v 0.0829724654 0.116913612 0.0714848635
v 0.0829884394 0.116929586 0.0715231297
v 0.0829965457 0.116937692 0.0715424416
v 0.0829140529 0.116855199 0.0717434284
v 0.0829191789 0.116860325 0.0717292425
v 0.0829234704 0.116864498 0.0717036125
v 0.0832738265 0.117214973 0.0722321865
v 0.0832702502 0.117211397 0.0722287295
v 0.0832667931 0.11720794 0.0722269413
v 0.0832549914 0.117196019 0.0722209809
v 0.0827752932 0.11671644 0.0718380806
v 0.0828204736 0.116761501 0.0718315241
v 0.0829234704 0.116864617 0.0715716479
v 0.0828319177 0.116773064 0.0718298552
v 0.0828589782 0.116800125 0.0718160269
v 0.0828682765 0.116809423 0.0718112585
v 0.0828823432 0.11682349 0.0717974303
v 0.0829226359 0.116863782 0.0715607998
v 0.0829125031 0.11685365 0.0715213415
v 0.08290845 0.116849597 0.0715054867
v 0.0828971251 0.116838272 0.0714822409
v 0.082866846 0.116807992 0.0714394448
v 0.0828501567 0.116791303 0.0714275238
v 0.0828357323 0.116776879 0.0714171526
v 0.082813917 0.116755064 0.0714102385
v 0.0827874526 0.116728599 0.0714017746
v 0.0827537164 0.116694863 0.0713992712
v 0.0832199439 0.11716109 0.0722188351
v 0.0829706773 0.116911824 0.0718781349
v 0.0832112416 0.117152388 0.0722216961
v 0.0832023009 0.117143447 0.0722245571
v 0.0829274043 0.116868551 0.0716792939
v 0.0829288348 0.116869981 0.0716440079
v 0.0830075129 0.116948659 0.0717626211
v 0.0830063208 0.116947467 0.0717774031
v 0.0829948768 0.116936023 0.0718216297
v 0.0831976518 0.117138679 0.0722280142
v 0.0829496964 0.116890843 0.0719051955
v 0.0831919297 0.117133076 0.0722321865
v 0.082942067 0.116883214 0.0719148514
v 0.0829157218 0.116856868 0.0719352362
v 0.0828909262 0.116832073 0.0717889664
v 0.0829007014 0.116841848 0.0717729924
v 0.0829072579 0.116848404 0.0717622635
v 0.0830050095 0.116946156 0.0715839264
v 0.0830107316 0.116951878 0.0716118214
v 0.0830144271 0.116955574 0.0716773865
v 0.0832326993 0.117173727 0.0722178814
v 0.0832533225 0.117194469 0.0722208617
v 0.0829749688 0.116916115 0.0718689558
v 0.0829921349 0.116933281 0.0718322394
v 0.0829063042 0.116847451 0.071942508
v 0.0828669652 0.116808112 0.0719574091
v 0.0828465804 0.116787727 0.0719651577
v 0.0827857837 0.11672693 0.0719711182
v 0.0824486598 0.116389806 0.0719711182
v 0.0830026254 0.116943772 0.0722464917
v 0.0824486598 0.116389806 0.0722464917
v 0.0824486598 0.116389806 0.0723785755
v 0.0805394038 0.11448055 0.0723928807
v 0.0831803664 0.117121513 0.0722473261
v 0.0831820353 0.117123182 0.0722437498
v 0.0831924065 0.117133553 0.0723928807
v 0.0831893071 0.117130454 0.0723901388
v 0.0830026254 0.116943772 0.0723785755
v 0.0831879958 0.117129142 0.072389066
v 0.0831808432 0.11712199 0.0723786948
v 0.0831696376 0.117110665 0.0722802279
v 0.0831696376 0.117110784 0.0722801087
v 0.0831877574 0.117128904 0.0722367165
v 0.0831907376 0.117131884 0.072233021
v 0.0831741675 0.117115314 0.0722617504
v 0.0831751212 0.117116148 0.0722582934
v 0.0831797704 0.117120917 0.072377145
v 0.0831745251 0.117115672 0.0723642704
v 0.0831736907 0.117114837 0.0723622439
v 0.083169876 0.117111023 0.0723440049
v 0.0831689223 0.11710995 0.0723391173
v 0.0831673726 0.1171084 0.0723120568
v 0.0831997975 0.117140944 0.0723987219
v 0.0831982478 0.117139275 0.0723980067
v 0.0833639487 0.117305095 0.0727874634
v 0.0833639487 0.117305095 0.0723928807
v 0.0832739457 0.117215092 0.0723928807
v 0.0832684621 0.117209609 0.0723969338
v 0.0832638129 0.117204959 0.0724002716
v 0.0805394038 0.11448055 0.0727874634
v 0.0832543954 0.117195542 0.0724033711
v 0.0832458123 0.117186959 0.0724062321
v 0.0832326993 0.117173727 0.072407305
v 0.083213149 0.117154295 0.072404444
v 0.0832113608 0.117152388 0.0724042055
v 0.0832859858 0.117227132 0.0723775027
v 0.0832844361 0.117225583 0.0723807213
v 0.0832772836 0.11721843 0.0722355244
v 0.0832805022 0.117221649 0.0722386238
v 0.0832857474 0.117226775 0.0722468493
v 0.0832785949 0.117219741 0.0723879931
v 0.0832756146 0.117216761 0.0723918078
v 0.0832882508 0.117229397 0.0722510216
v 0.0832919463 0.117233093 0.0722611544
v 0.0832943305 0.117235477 0.0722677109
v 0.0832969531 0.1172381 0.0723441241
v 0.0832923039 0.11723345 0.0723628399
v 0.0832914695 0.117232616 0.0723660586
v 0.0832964763 0.117237623 0.0722809431
v 0.0832985028 0.117239649 0.0722932217
v 0.0832993373 0.117240365 0.0723120568
v 0.0805394038 0.11448055 0.070836961
v 0.0831919297 0.117133076 0.070836961
v 0.0805394038 0.11448055 0.0706771014
v 0.0831976518 0.117138679 0.0708329079
v 0.0832112416 0.117152388 0.0708264706
v 0.0832199439 0.11716109 0.0708236096
v 0.0833639487 0.117305095 0.0706771014
v 0.0832023009 0.117143447 0.0708294508
v 0.0832326993 0.117173727 0.0708226559
v 0.0832533225 0.117194469 0.0708256361
v 0.0832549914 0.117196019 0.0708258745
v 0.0830026254 0.116943772 0.0708512661
v 0.0824486598 0.116389806 0.0708512661
v 0.0824486598 0.116389806 0.0709834692
v 0.0830026254 0.116943772 0.0709834692
v 0.0832923039 0.11723345 0.0709677336
v 0.0832914695 0.117232616 0.070970833
v 0.0831803664 0.117121513 0.0708522198
v 0.0831820353 0.117123182 0.0708486435
v 0.0832772836 0.11721843 0.0708402989
v 0.0832805022 0.117221649 0.0708433983
v 0.0833639487 0.117305095 0.070836961
v 0.0832667931 0.11720794 0.070831835
v 0.0832702502 0.117211397 0.0708335039
v 0.0832738265 0.117214973 0.070836961
v 0.0831877574 0.117128904 0.0708416102
v 0.0831907376 0.117131884 0.0708377955
v 0.0832859858 0.117227132 0.0709823963
v 0.0832844361 0.117225583 0.070985615
v 0.0832785949 0.117219741 0.0709927676
v 0.0832857474 0.117226775 0.070851743
v 0.0832882508 0.117229397 0.0708559153
v 0.0832919463 0.117233093 0.0708659289
v 0.0832756146 0.117216761 0.0709965823
v 0.0832684621 0.117209609 0.0710017083
v 0.0832638129 0.117204959 0.0710051653
v 0.0831696376 0.117110665 0.0708851216
v 0.0831696376 0.117110784 0.0708848831
v 0.0832943305 0.117235477 0.0708724854
v 0.0832964763 0.117237623 0.0708857176
v 0.0832985028 0.117239649 0.0708981154
v 0.0831982478 0.117139275 0.0710027811
v 0.0831893071 0.117130454 0.0709950325
v 0.0831879958 0.117129142 0.0709938404
v 0.0831808432 0.11712199 0.0709835884
v 0.0831741675 0.117115314 0.0708665249
v 0.0831751212 0.117116148 0.0708631871
v 0.0831797704 0.117120917 0.0709819195
v 0.0831745251 0.117115672 0.0709691641
v 0.0831736907 0.117114837 0.0709671376
v 0.0832993373 0.117240365 0.0709169504
v 0.0832969531 0.1172381 0.0709488985
v 0.0832969531 0.1172381 0.0709490177
v 0.0832543954 0.117195542 0.0710082648
v 0.0832458123 0.117186959 0.0710110066
v 0.0832326993 0.117173727 0.0710120795
v 0.083213149 0.117154295 0.0710093376
v 0.0832113608 0.117152388 0.07100898
v 0.0831997975 0.117140944 0.0710034964
v 0.083169876 0.117111023 0.0709488985
v 0.0831689223 0.11710995 0.070944011
v 0.0831673726 0.1171084 0.0709169504
v 0.0824486598 0.116389806 0.070531666
v 0.0833639487 0.117305095 0.070531666
v 0.0824486598 0.116389806 0.0703994629
v 0.0815116748 0.115452821 0.0693499443
v 0.0815116748 0.115452821 0.0703499911
v 0.0814056977 0.115346844 0.0703499911
v 0.0805394038 0.11448055 0.0659249422
v 0.0814056977 0.115346844 0.0693499443
v 0.0827106818 0.116651709 0.0699245331
v 0.0827106818 0.116651709 0.0699015257
v 0.0824486598 0.116389806 0.0694320795
v 0.083049713 0.11699086 0.0694320795
v 0.0831150397 0.117056186 0.0704023239
v 0.083152233 0.11709338 0.0704050658
v 0.0831176623 0.117058809 0.07037276
v 0.083152233 0.11709338 0.0694246886
v 0.083115755 0.117056782 0.069428384
v 0.083116351 0.117057498 0.069457948
v 0.0830785617 0.117019708 0.0694305298
v 0.0830846413 0.117025788 0.0694910881
v 0.0830588921 0.117000039 0.0695180294
v 0.0830779656 0.117019112 0.070400655
v 0.0830844029 0.117025549 0.0703397391
v 0.083049713 0.11699086 0.0703994629
v 0.0830588921 0.117000039 0.0703144667
v 0.0833691939 0.11731034 0.0705112812
v 0.0833691939 0.11731034 0.070531666
v 0.0851965531 0.1191377 0.0706771014
v 0.0833691939 0.11731034 0.0693184731
v 0.0833691939 0.11731034 0.0692999956
v 0.0851965531 0.1191377 0.0659249422
v 0.0833639487 0.117305095 0.0692999956
v 0.0833639487 0.117305095 0.0659249422
v 0.0824486598 0.116389806 0.0692999956
v 0.085944353 0.11988538 0.0610309241
v 0.0860308989 0.119972045 0.0610309241
v 0.085944353 0.11988538 0.0604645607
v 0.0860308989 0.119972045 0.0608211157
v 0.0864791259 0.120420272 0.0604645607
v 0.0861164912 0.120057638 0.0608211157
v 0.0864791259 0.120420272 0.0618597863
v 0.0852063283 0.119147475 0.0610309241
v 0.0851965531 0.1191377 0.0604645607
v 0.0852063283 0.119147475 0.0611694453
v 0.0861255511 0.120066698 0.0591109392
v 0.0864791259 0.120420272 0.0589889881
v 0.085944353 0.11988538 0.0589889881
v 0.0854833707 0.119424517 0.0599017737
v 0.0853990897 0.119340236 0.0599905846
v 0.0854369983 0.119378145 0.0599859354
v 0.0861164912 0.120057638 0.0599812863
v 0.0861255511 0.120066698 0.0591340658
v 0.085944353 0.11988538 0.0599812863
v 0.085944353 0.11988538 0.0593507883
v 0.0855023249 0.119443471 0.0599812863
v 0.0854738339 0.11941498 0.0599833128
v 0.0858204945 0.119761641 0.0592393277
v 0.0852063283 0.119147475 0.0592393277
v 0.0851972684 0.119138296 0.0600857136
v 0.0851965531 0.1191377 0.0589889881
v 0.0852063283 0.119147475 0.0591109392
v 0.085944353 0.11988538 0.0591109392
v 0.0859103783 0.119851525 0.0592400429
v 0.0859224185 0.119863565 0.0592282412
v 0.0858969077 0.119838054 0.0592319367
v 0.0858394488 0.119780595 0.0593169329
v 0.0858609065 0.119802053 0.0592927334
v 0.0858466014 0.119787748 0.0592368243
v 0.0858882054 0.119829352 0.0592619774
v 0.0858824834 0.11982363 0.0592334864
v 0.0858890399 0.119830186 0.0592327711
v 0.0861164912 0.120057638 0.0601078865
v 0.085944353 0.11988538 0.0601078865
v 0.0851972684 0.119138296 0.0601078865
v 0.0852063283 0.119147475 0.058867037
v 0.0852063283 0.119147475 0.058722913
v 0.0854108914 0.119352038 0.0586054919
v 0.0854108914 0.119352038 0.0580151675
v 0.0852063283 0.119147475 0.0578996537
v 0.0851965531 0.1191377 0.0576903221
v 0.085944353 0.11988538 0.0584294197
v 0.0861255511 0.120066698 0.058321893
v 0.0861255511 0.120066698 0.05829972
v 0.0864791259 0.120420272 0.0576903221
v 0.085944353 0.11988538 0.058194339
v 0.085944353 0.11988538 0.0576903221
v 0.0852063283 0.119147475 0.0577656624
v 0.08555132 0.119492466 0.0565859673
v 0.0855337962 0.119474943 0.0565952656
v 0.085944353 0.11988538 0.0574353335
v 0.085382758 0.119323905 0.0576151011
v 0.0853071793 0.119248326 0.057521641
v 0.085944353 0.11988538 0.0575844643
v 0.0854350909 0.119376118 0.0575097201
v 0.0852994307 0.119240577 0.0575118658
v 0.0852486476 0.119189794 0.0574055311
v 0.0852425679 0.119183714 0.0573927758
v 0.085957466 0.119898613 0.0567511914
v 0.085944353 0.11988538 0.0567314026
v 0.0859321936 0.11987334 0.0567132828
v 0.0852137193 0.119154747 0.0572776196
v 0.0852090701 0.119150217 0.0572593806
v 0.0851965531 0.1191377 0.0570942757
v 0.0854788407 0.119419987 0.0566243527
v 0.0854532107 0.119394357 0.0566485522
v 0.0854060038 0.119347031 0.0566934941
v 0.0859195575 0.119860704 0.0566998122
v 0.085860072 0.119801219 0.0566366312
v 0.0858505353 0.119791563 0.0566309092
v 0.0857793673 0.119720514 0.0565890667
v 0.0857713803 0.119712527 0.0565872786
v 0.0856865033 0.11962765 0.0565682051
v 0.0856611117 0.119602258 0.0565672514
v 0.0856240376 0.119565184 0.0565735695
v 0.0853906258 0.119331772 0.0567132828
v 0.0853736981 0.119314845 0.0567426083
v 0.0853347167 0.119275863 0.0568105576
v 0.0853254184 0.119266565 0.0568391678
v 0.0853005036 0.119241531 0.0569160578
v 0.0852966889 0.119237835 0.0569434759
v 0.0852841719 0.119225318 0.0570359824
v 0.0852828606 0.119223888 0.0570855734
v 0.0852858409 0.119226987 0.057121217
v 0.0852952584 0.119236405 0.0572329161
v 0.085297881 0.119239028 0.0572425721
v 0.0853208884 0.119262035 0.057329118
v 0.0853297099 0.119270856 0.0573475954
v 0.0853670224 0.119308169 0.0574250815
v 0.0853748902 0.119316037 0.0574348566
v 0.0858969077 0.119838054 0.0574921963
v 0.0854335412 0.119374688 0.0575082896
v 0.0859543666 0.119895513 0.0574232933
v 0.0859554395 0.119896586 0.0574211476
v 0.0860268458 0.119967992 0.05723685
v 0.0860001429 0.119941289 0.057331383
v 0.0859982356 0.119939382 0.0573381779
v 0.0860272034 0.11996835 0.0572326777
v 0.0860398396 0.119980986 0.0571023819
v 0.0860400781 0.119981105 0.0570855734
v 0.0860349521 0.119976099 0.0570262072
v 0.0860279187 0.119968946 0.0569431183
v 0.0860182628 0.11995929 0.0569080708
v 0.085997878 0.119939024 0.0568345187
v 0.0859803542 0.119921501 0.0567983982
v 0.0860669001 0.120008047 0.056748688
v 0.0864791259 0.120420272 0.0543000099
v 0.0860100373 0.119951184 0.0566425917
v 0.0859969243 0.119937952 0.0566181538
v 0.0860735759 0.120014722 0.0574100611
v 0.0860276803 0.119968827 0.057501733
v 0.0860264882 0.119967635 0.0575032828
v 0.0859505519 0.119891579 0.0575966236
v 0.0861267432 0.12006789 0.0570647118
v 0.0861268624 0.120068009 0.0570855734
v 0.0861232861 0.120064433 0.0571283696
v 0.0861104115 0.120051558 0.0572790501
v 0.0861102923 0.12005132 0.0572797653
v 0.0860756024 0.120016749 0.0574029085
v 0.0860722646 0.120013292 0.056766927
v 0.0861100539 0.120051081 0.0568966267
v 0.08611065 0.120051796 0.0569035408
v 0.0851965531 0.1191377 0.0543000099
v 0.0851965531 0.1191377 0.0570780632
v 0.0851979836 0.11913913 0.0570608971
v 0.0854374751 0.119378622 0.0565024016
v 0.0855076894 0.119448717 0.0564568636
v 0.0852116927 0.119152839 0.0569018719
v 0.0852141961 0.119155343 0.0568925736
v 0.0852490052 0.119190152 0.0567656157
v 0.085698305 0.119639452 0.0564313528
v 0.0857910498 0.119732196 0.0564473269
v 0.085944353 0.11988538 0.0543000099
v 0.0858072623 0.119748409 0.0564562676
v 0.0858874902 0.119828637 0.0565004942
v 0.0859075173 0.119848664 0.0565196869
v 0.085944353 0.11988538 0.0565552113
v 0.085962592 0.119903739 0.0565728543
v 0.0852578267 0.119198973 0.0567477343
v 0.0853102788 0.119251306 0.0566418764
v 0.0853258952 0.119267042 0.0566181538
v 0.0853506907 0.119291718 0.056589782
v 0.085412918 0.119353945 0.0565183756
v 0.0855311736 0.11947232 0.0564504263
v 0.085615693 0.119556839 0.0564275381
v 0.0856611117 0.119602258 0.0564250347
v 0.0847887381 0.118729765 0.055699527
v 0.0848123416 0.118753488 0.0557664034
v 0.0833639487 0.117305095 0.0543000099
v 0.0833639487 0.117305095 0.0551000235
v 0.0841457232 0.11808687 0.0551000235
v 0.0843186959 0.118259842 0.0551303026
v 0.0844292029 0.118370349 0.0551910994
v 0.0842636212 0.118204768 0.0551206467
v 0.0844821318 0.118423278 0.0552203057
v 0.0845774993 0.118518646 0.055316746
v 0.0846250638 0.11856621 0.0553649065
v 0.0847002848 0.118641431 0.0554891226
v 0.0847336634 0.11867481 0.0555440781
v 0.0848383292 0.118779476 0.0559338925
v 0.0848498925 0.118791039 0.0560086367
v 0.0848528727 0.1187939 0.056099951
v 0.0851959571 0.119136984 0.0570855734
v 0.0848528727 0.1187939 0.0576903221
v 0.0854347333 0.11937588 0.0515617726
v 0.0851965531 0.1191377 0.0525673029
v 0.0854980334 0.11943918 0.0515964625
v 0.0855252131 0.11946636 0.0516114828
v 0.0853304252 0.119271572 0.0514480469
v 0.0852692708 0.119210417 0.0513287184
v 0.0852677211 0.119208868 0.0513231156
v 0.0859152659 0.119856412 0.0515384075
v 0.0858861789 0.119827325 0.0515581963
v 0.085944353 0.11988538 0.0525673029
v 0.085826455 0.119767602 0.0515988467
v 0.0857958182 0.119736965 0.051608145
v 0.085723339 0.119664485 0.0516301987
v 0.0856611117 0.119602258 0.0516346094
v 0.0856016263 0.119542773 0.0516244767
v 0.0852270707 0.119168217 0.0511787531
v 0.0852270707 0.119168217 0.0511783955
v 0.0852065667 0.119147594 0.0509609577
v 0.0854082688 0.119349415 0.0515361426
v 0.0853626117 0.119303758 0.0514917967
v 0.0861164912 0.120057638 0.0506257412
v 0.0864791259 0.120420272 0.0504474041
v 0.085944353 0.11988538 0.0506257412
v 0.085944353 0.11988538 0.0504474041
v 0.0852063283 0.119147475 0.0506257412
v 0.0851965531 0.1191377 0.0504474041
v 0.0852063283 0.119147475 0.0509379504
v 0.0860533103 0.119994457 0.0513259766
v 0.0860516414 0.119992788 0.0513315794
v 0.0864791259 0.120420272 0.0525673029
v 0.0860943183 0.120035465 0.0511818526
v 0.0861164912 0.120057638 0.0509379504
v 0.0861108884 0.120052035 0.0510025618
v 0.0860961064 0.120037134 0.0511756537
v 0.0859921559 0.119933302 0.0514468548
v 0.0859681949 0.119909341 0.0514753458
v 0.085944353 0.11988538 0.0515038369
v 0.0861164912 0.120057638 0.0490735171
v 0.0864791259 0.120420272 0.0489432213
v 0.085944353 0.11988538 0.0489432213
v 0.0860308989 0.119972045 0.0492092964
v 0.085944353 0.11988538 0.0492092964
v 0.0860308989 0.119972045 0.0498477814
v 0.085944353 0.11988538 0.0501304266
v 0.0861164912 0.120057638 0.0498477814
v 0.0861164912 0.120057638 0.0501304266
v 0.0852063283 0.119147475 0.0501304266
v 0.0851965531 0.1191377 0.0489432213
v 0.0861164912 0.120057638 0.050269067
v 0.085944353 0.11988538 0.050269067
v 0.0852063283 0.119147475 0.050269067
v 0.0856826886 0.119623716 0.0492092964
v 0.0856826886 0.119623716 0.0497886536
v 0.085595785 0.119536932 0.0497886536
v 0.085595785 0.119536932 0.0492092964
v 0.0852063283 0.119147475 0.0492092964
v 0.0852063283 0.119147475 0.0490735171
v 0.085944353 0.11988538 0.0490735171
v 0.0855976924 0.119538839 0.04856199
v 0.0855807647 0.119521911 0.0484988091
v 0.0852063283 0.119147475 0.0488129256
v 0.0855637177 0.119504864 0.0482955572
v 0.0855637177 0.119504864 0.0480608342
v 0.0852063283 0.119147475 0.0480608342
v 0.0857384785 0.119679625 0.0487453339
v 0.0857089146 0.119650061 0.0487306711
v 0.0856886491 0.119629796 0.0487120745
v 0.0856655225 0.11960655 0.0486909745
v 0.0855645522 0.119505579 0.0483315584
v 0.0852063283 0.119147475 0.0479250548
v 0.085647045 0.119588072 0.0486633179
v 0.0856274947 0.119568641 0.0486342308
v 0.0856124743 0.119553621 0.0485977528
v 0.0852063283 0.119147475 0.0486512778
v 0.085565029 0.119506176 0.0483564732
v 0.0859587773 0.119899805 0.0487366316
v 0.085944353 0.11988538 0.0487427113
v 0.0859139546 0.119854982 0.0487557051
v 0.0859023913 0.119843538 0.0487605927
v 0.0858381375 0.119779284 0.0487685797
v 0.08579856 0.119739587 0.0487626192
v 0.0857622012 0.119703348 0.0487571356
v 0.0861020669 0.120043213 0.0484835503
v 0.0861036166 0.120044763 0.0484648344
v 0.0861164912 0.120057638 0.0483111737
v 0.086047469 0.119988616 0.0486406681
v 0.0860140904 0.119955237 0.0486869213
v 0.0860070571 0.119948204 0.0486965773
v 0.0859692677 0.119910414 0.0487278101
v 0.086081086 0.120022233 0.04856199
v 0.086077629 0.120018775 0.0485746262
v 0.085198222 0.119139249 0.040780246
v 0.0852039441 0.119145091 0.0407041905
v 0.0851965531 0.1191377 0.0402809975
v 0.0852099046 0.119150932 0.0406816599
v 0.085227786 0.119168932 0.040998399
v 0.0852076396 0.119148667 0.0409324763
v 0.0851965531 0.1191377 0.0413365958
v 0.0852053746 0.119146521 0.0409124491
v 0.0851965531 0.1191377 0.0408329365
v 0.085228382 0.119169409 0.0406102536
v 0.0852377995 0.119178946 0.0405909416
v 0.0852676019 0.119208748 0.0405300257
v 0.0857589825 0.119700129 0.0409319994
v 0.085742174 0.119683321 0.0409976837
v 0.085944353 0.11988538 0.0413365958
v 0.0852789267 0.119219954 0.0405128596
v 0.0852993115 0.119240458 0.0404894945
v 0.0853341206 0.119275267 0.0404495594
v 0.0856139048 0.119555051 0.0404348967
v 0.085944353 0.11988538 0.0402809975
v 0.0855762347 0.119517262 0.0404154656
v 0.0855544194 0.119495566 0.0404041407
v 0.0857332333 0.11967438 0.0405947563
v 0.0857020005 0.119643147 0.0405376551
v 0.0856885299 0.119629676 0.0405129788
v 0.085613428 0.119554455 0.0411772129
v 0.0855762347 0.119517381 0.0412015316
v 0.0853332862 0.119274433 0.0411614773
v 0.0852974042 0.119238551 0.0411275027
v 0.0852786883 0.119219835 0.0411025879
v 0.0853539094 0.119294937 0.040436804
v 0.0853926524 0.119333799 0.0404116509
v 0.0854122027 0.119353349 0.0404065249
v 0.0856325015 0.119573648 0.0404527781
v 0.0856699332 0.11961108 0.0404883025
v 0.0857405051 0.119681652 0.0406185982
v 0.0857599362 0.119701083 0.0406824944
v 0.085762678 0.119703705 0.040705621
v 0.0857300147 0.119671161 0.0410233137
v 0.0857039079 0.119645054 0.0410782692
v 0.0856884106 0.119629438 0.0411021111
v 0.0854629859 0.119404132 0.0412183401
v 0.0854116067 0.119352753 0.0412102339
v 0.0852659329 0.119207079 0.0410793421
v 0.0852358922 0.119177039 0.0410248635
v 0.0857716187 0.119712765 0.0407816765
v 0.0857720956 0.119713242 0.0408094523
v 0.0857704266 0.119711573 0.0408313868
v 0.0857641085 0.119705255 0.0409118531
v 0.0856688603 0.119610007 0.0411241648
v 0.0856335744 0.119574721 0.0411639807
v 0.0853959903 0.119337137 0.0412021277
v 0.0853524789 0.119293625 0.0411797163
v 0.0854585751 0.119399722 0.0403941271
v 0.0854833707 0.119424517 0.0403928158
v 0.0855104312 0.119451458 0.0403971073
v 0.0855544194 0.119495566 0.0412076113
v 0.0855094775 0.119450624 0.0412201283
v 0.0854833707 0.119424517 0.0412215588
v 0.0851961955 0.119137342 0.0408295986
v 0.0848528727 0.1187939 0.0413365958
v 0.0848528727 0.1187939 0.0402809975
v 0.0851959571 0.119136984 0.0408094523
v 0.0851965531 0.1191377 0.0408009884
v 0.0851965531 0.1191377 0.0382302401
v 0.0852063283 0.119147475 0.0381264088
v 0.0852063283 0.119147475 0.0379821656
v 0.0864791259 0.120420272 0.0382302401
v 0.0861255511 0.120066698 0.0375590918
v 0.0864791259 0.120420272 0.0337000487
v 0.085944353 0.11988538 0.0374537108
v 0.085944353 0.11988538 0.0337000487
v 0.0852063283 0.119147475 0.0370250342
v 0.085198222 0.119139249 0.0292301771
v 0.0852039441 0.119145091 0.0291542408
v 0.0851965531 0.1191377 0.0287310478
v 0.0852099046 0.119150932 0.0291317103
v 0.085227786 0.119168932 0.0294483301
v 0.0852076396 0.119148667 0.0293824074
v 0.0851965531 0.1191377 0.0297866461
v 0.0852053746 0.119146521 0.0293624995
v 0.0851965531 0.1191377 0.0292829869
v 0.085228382 0.119169409 0.0290603039
v 0.0852377995 0.119178946 0.029040992
v 0.0852676019 0.119208748 0.0289799568
v 0.0857589825 0.119700129 0.0293819306
v 0.085742174 0.119683321 0.0294477341
v 0.085944353 0.11988538 0.0297866461
v 0.0852789267 0.119219954 0.0289629099
v 0.0852993115 0.119240458 0.0289394257
v 0.0853341206 0.119275267 0.0288996098
v 0.0856139048 0.119555051 0.028884947
v 0.085944353 0.11988538 0.0287310478
v 0.0855762347 0.119517262 0.0288653967
v 0.0855544194 0.119495566 0.028854191
v 0.0857332333 0.11967438 0.0290446875
v 0.0857020005 0.119643147 0.0289875862
v 0.0856885299 0.119629676 0.0289629099
v 0.085613428 0.119554455 0.0296272633
v 0.0855762347 0.119517381 0.029651582
v 0.0853332862 0.119274433 0.0296115277
v 0.0852974042 0.119238551 0.0295774338
v 0.0852786883 0.119219835 0.0295526383
v 0.0853539094 0.119294937 0.0288867352
v 0.0853926524 0.119333799 0.0288617012
v 0.0854122027 0.119353349 0.028856456
v 0.0856325015 0.119573648 0.0289027092
v 0.0856699332 0.11961108 0.0289383528
v 0.0857405051 0.119681652 0.0290686486
v 0.0857599362 0.119701083 0.0291324255
v 0.085762678 0.119703705 0.0291555521
v 0.0857300147 0.119671161 0.0294733641
v 0.0857039079 0.119645054 0.0295283196
v 0.0856884106 0.119629438 0.0295521614
v 0.0854629859 0.119404132 0.0296683905
v 0.0854116067 0.119352753 0.0296601651
v 0.0852659329 0.119207079 0.0295293925
v 0.0852358922 0.119177039 0.0294747946
v 0.0857716187 0.119712765 0.0292317269
v 0.0857720956 0.119713242 0.0292595026
v 0.0857704266 0.119711573 0.0292813179
v 0.0857641085 0.119705255 0.0293619034
v 0.0856688603 0.119610007 0.0295742152
v 0.0856335744 0.119574721 0.0296140311
v 0.0853959903 0.119337137 0.029652178
v 0.0853524789 0.119293625 0.0296297667
v 0.0854585751 0.119399722 0.0288440583
v 0.0854833707 0.119424517 0.028842747
v 0.0855104312 0.119451458 0.0288471577
v 0.0855544194 0.119495566 0.0296576617
v 0.0855094775 0.119450624 0.0296701786
v 0.0854833707 0.119424517 0.0296716091
v 0.0851961955 0.119137342 0.0292795298
v 0.0848528727 0.1187939 0.0297866461
v 0.0848528727 0.1187939 0.0287310478
v 0.0851959571 0.119136984 0.0292595026
v 0.0851965531 0.1191377 0.0292510388
v 0.0851965531 0.1191377 0.0266802904
v 0.0852063283 0.119147475 0.0265763399
v 0.0852063283 0.119147475 0.0264322159
v 0.0854108914 0.119352038 0.026314914
v 0.0854108914 0.119352038 0.0257244704
v 0.0852063283 0.119147475 0.0256089566
v 0.0852063283 0.119147475 0.0254749653
v 0.0864791259 0.120420272 0.0266802904
v 0.0861255511 0.120066698 0.0260090229
v 0.0864791259 0.120420272 0.0242125389
v 0.085944353 0.11988538 0.0259037611
v 0.085944353 0.11988538 0.0242125389
v 0.0851965531 0.1191377 0.0242125389
v 0.0833639487 0.117305095 0.062550008
v 0.0824486598 0.116389806 0.062550008
v 0.0823307618 0.116271908 0.0625293848
v 0.0822755679 0.116216714 0.0625197289
v 0.0821651801 0.116106327 0.0624589321
v 0.0821122512 0.116053398 0.0624297259
v 0.0820167645 0.115957911 0.0623331663
v 0.0819692 0.115910347 0.062285125
v 0.081893979 0.115835125 0.0621609089
v 0.0818607196 0.115801866 0.0621059534
v 0.0805394038 0.11448055 0.0618597863
v 0.0818056449 0.115746791 0.0619503853
v 0.0844288453 0.118369992 0.0624592898
v 0.0843816384 0.118322785 0.0624927876
v 0.0846654757 0.118606622 0.0622280237
v 0.0845776185 0.118518765 0.0623343584
v 0.0845387563 0.118479903 0.0623814461
v 0.0842631444 0.118204291 0.062529504
v 0.0842103347 0.118151362 0.0625459549
v 0.0841457232 0.11808687 0.062550008
v 0.0848135337 0.118754561 0.0618597863
v 0.0847883805 0.118729527 0.0619508622
v 0.0851965531 0.1191377 0.0618597863
v 0.0847677573 0.118708904 0.0620257256
v 0.0846995696 0.118640597 0.0621606705
v 0.0848528727 0.1187939 0.0604645607
v 0.0848528727 0.1187939 0.0615499613
v 0.08483821 0.118779357 0.0617167351
v 0.0848314151 0.118772562 0.061794698
v 0.0848528727 0.1187939 0.0589889881
v 0.0821655377 0.116106565 0.0551907418
v 0.0822127446 0.116153891 0.0551572439
v 0.0805394038 0.11448055 0.0543000099
v 0.0817415103 0.115682657 0.0576903221
v 0.0817415103 0.115682657 0.056099951
v 0.081756173 0.1156972 0.0559332964
v 0.081762968 0.115704114 0.0558553335
v 0.0818060025 0.115747149 0.0556990502
v 0.0818266257 0.115767772 0.0556241867
v 0.0818948134 0.11583596 0.055489361
v 0.0819289073 0.115870054 0.0554220078
v 0.0820166453 0.115957792 0.0553156731
v 0.0820555075 0.115996654 0.0552685854
v 0.0823312386 0.116272266 0.0551205275
v 0.0823840484 0.116325195 0.0551040766
v 0.0824486598 0.116389806 0.0551000235
v 0.0805394038 0.11448055 0.0576903221
v 0.0805394038 0.11448055 0.0589889881
v 0.0817415103 0.115682657 0.0589889881
v 0.0805394038 0.11448055 0.0604645607
v 0.0817820414 0.115723188 0.0618836281
v 0.081778346 0.115719373 0.0618597863
v 0.0817560538 0.1156972 0.0617161391
v 0.0817443713 0.115685518 0.0616412756
v 0.0817415103 0.115682657 0.0615499613
v 0.0817415103 0.115682657 0.0604645607
v 0.0805394038 0.11448055 0.0297866461
v 0.0805394038 0.11448055 0.0287310478
v 0.0805394038 0.11448055 0.0273690817
v 0.0805394038 0.11448055 0.0266802904
v 0.0833639487 0.117305095 0.0337000487
v 0.0833639487 0.117305095 0.0329000351
v 0.0824486598 0.116389806 0.0329000351
v 0.0805394038 0.11448055 0.0337000487
v 0.0822755679 0.116216714 0.032869756
v 0.0821651801 0.116106327 0.03280884
v 0.0818056449 0.115746791 0.0323004124
v 0.0817820414 0.115723188 0.0322336552
v 0.0817560538 0.1156972 0.0320661661
v 0.0823307618 0.116271908 0.0328794119
v 0.0821122512 0.116053398 0.032779753
v 0.0820167645 0.115957911 0.0326831934
v 0.0819692 0.115910347 0.0326350329
v 0.081893979 0.115835125 0.032510936
v 0.0818607196 0.115801866 0.0324558613
v 0.0817443713 0.115685518 0.0319913027
v 0.0844288453 0.118369992 0.0328093169
v 0.0843816384 0.118322785 0.0328428147
v 0.0851965531 0.1191377 0.0337000487
v 0.0848314151 0.118772562 0.0321447251
v 0.0847883805 0.118729527 0.0323008892
v 0.0848528727 0.1187939 0.0318999884
v 0.08483821 0.118779357 0.0320667622
v 0.0847677573 0.118708904 0.0323757527
v 0.0846995696 0.118640597 0.0325106976
v 0.0846654757 0.118606622 0.0325780508
v 0.0845776185 0.118518765 0.0326843855
v 0.0845387563 0.118479903 0.0327314732
v 0.0842631444 0.118204291 0.0328795311
v 0.0842103347 0.118151362 0.032895982
v 0.0841457232 0.11808687 0.0329000351
v 0.0848528727 0.1187939 0.0239500401
v 0.0848528727 0.1187939 0.0242125389
v 0.0848528727 0.1187939 0.0266802904
v 0.0848528727 0.1187939 0.0273690817
v 0.0851965531 0.1191377 0.0273690817
v 0.0842636212 0.118204768 0.0229706166
v 0.0843186959 0.118259842 0.0229802725
v 0.0851965531 0.1191377 0.0185000298
v 0.0844292029 0.118370349 0.0230410693
v 0.0823840484 0.116325195 0.0229540465
v 0.0824486598 0.116389806 0.0229499934
v 0.0833639487 0.117305095 0.0185000298
v 0.0833639487 0.117305095 0.0229499934
v 0.0841457232 0.11808687 0.0229499934
v 0.0844821318 0.118423278 0.0230702755
v 0.0845774993 0.118518646 0.0231668351
v 0.0846250638 0.11856621 0.0232148764
v 0.0847002848 0.118641431 0.0233390925
v 0.0847336634 0.11867481 0.023394048
v 0.0847887381 0.118729765 0.0235496161
v 0.0848123416 0.118753488 0.0236163733
v 0.0848383292 0.118779476 0.0237838623
v 0.0848498925 0.118791039 0.0238587258
v 0.0833639487 0.117305095 0.0452499983
v 0.0833639487 0.117305095 0.0444499848
v 0.0824486598 0.116389806 0.0444499848
v 0.0805394038 0.11448055 0.0452499983
v 0.0822755679 0.116216714 0.0444197056
v 0.0821651801 0.116106327 0.0443589089
v 0.0818056449 0.115746791 0.0438504813
v 0.0817820414 0.115723188 0.0437836048
v 0.0817560538 0.1156972 0.0436161158
v 0.0823307618 0.116271908 0.0444293616
v 0.0821122512 0.116053398 0.0443297026
v 0.0820167645 0.115957911 0.0442332623
v 0.0819692 0.115910347 0.0441851017
v 0.081893979 0.115835125 0.0440608856
v 0.0818607196 0.115801866 0.0440059302
v 0.0817443713 0.115685518 0.0435413716
v 0.0817415103 0.115682657 0.0434500572
v 0.0805394038 0.11448055 0.0413365958
v 0.0844288453 0.118369992 0.0443592665
v 0.0843816384 0.118322785 0.0443927643
v 0.0851965531 0.1191377 0.0452499983
v 0.0848314151 0.118772562 0.0436946747
v 0.0847883805 0.118729527 0.0438509581
v 0.0848528727 0.1187939 0.0434500572
v 0.08483821 0.118779357 0.0436167118
v 0.0847677573 0.118708904 0.0439258215
v 0.0846995696 0.118640597 0.0440606472
v 0.0846654757 0.118606622 0.0441280005
v 0.0845776185 0.118518765 0.0442343352
v 0.0845387563 0.118479903 0.0442814228
v 0.0842631444 0.118204291 0.0444294808
v 0.0842103347 0.118151362 0.0444459317
v 0.0841457232 0.11808687 0.0444499848
v 0.0848528727 0.1187939 0.0389191506
v 0.0851965531 0.1191377 0.0389191506
v 0.0833639487 0.117305095 0.034499943
v 0.0841457232 0.11808687 0.034499943
v 0.0843186959 0.118259842 0.0345302222
v 0.0844292029 0.118370349 0.0345911381
v 0.0847887381 0.118729765 0.0350995657
v 0.0848123416 0.118753488 0.0351664421
v 0.0848383292 0.118779476 0.0353339312
v 0.0842636212 0.118204768 0.0345205662
v 0.0844821318 0.118423278 0.0346202252
v 0.0845774993 0.118518646 0.0347167847
v 0.0846250638 0.11856621 0.0347649452
v 0.0847002848 0.118641431 0.0348890421
v 0.0847336634 0.11867481 0.0349441168
v 0.0848498925 0.118791039 0.0354086754
v 0.0848528727 0.1187939 0.0354999897
v 0.0848528727 0.1187939 0.0382302401
v 0.0821655377 0.116106565 0.0345906613
v 0.0822127446 0.116153891 0.0345571635
v 0.0817415103 0.115682657 0.0382302401
v 0.0817415103 0.115682657 0.0354999897
v 0.081756173 0.1156972 0.0353333351
v 0.081762968 0.115704114 0.0352552531
v 0.0818060025 0.115747149 0.0350990889
v 0.0818266257 0.115767772 0.0350242255
v 0.0818948134 0.11583596 0.0348892805
v 0.0819289073 0.115870054 0.0348220465
v 0.0820166453 0.115957792 0.0347155926
v 0.0820555075 0.115996654 0.0346685049
v 0.0823312386 0.116272266 0.034520447
v 0.0823840484 0.116325195 0.0345041153
v 0.0824486598 0.116389806 0.034499943
v 0.0805394038 0.11448055 0.0382302401
v 0.0805394038 0.11448055 0.0389191506
v 0.0817415103 0.115682657 0.0389191506
v 0.0805394038 0.11448055 0.0402809975
v 0.0817415103 0.115682657 0.0402809975
v 0.0817415103 0.115682657 0.0413365958
v 0.0833639487 0.117305095 0.0534999964
v 0.0824486598 0.116389806 0.0534999964
v 0.0822755679 0.116216714 0.0534697172
v 0.0821651801 0.116106327 0.0534089205
v 0.0817443713 0.115685518 0.0525913832
v 0.0805394038 0.11448055 0.0525673029
v 0.0817560538 0.1156972 0.0526661274
v 0.0817820414 0.115723188 0.0528336165
v 0.0818056449 0.115746791 0.0529004929
v 0.0823307618 0.116271908 0.0534793732
v 0.0821122512 0.116053398 0.0533797142
v 0.0820167645 0.115957911 0.0532831547
v 0.0819692 0.115910347 0.0532351134
v 0.081893979 0.115835125 0.0531108973
v 0.0818607196 0.115801866 0.0530559418
v 0.0844288453 0.118369992 0.0534092781
v 0.0843816384 0.118322785 0.0534427759
v 0.0848314151 0.118772562 0.0527446863
v 0.0847883805 0.118729527 0.0529009697
v 0.0847677573 0.118708904 0.0529757139
v 0.0846995696 0.118640597 0.0531106589
v 0.0846654757 0.118606622 0.0531780121
v 0.0845776185 0.118518765 0.0532843468
v 0.0845387563 0.118479903 0.0533314345
v 0.0842631444 0.118204291 0.0534794924
v 0.0842103347 0.118151362 0.0534959433
v 0.0841457232 0.11808687 0.0534999964
v 0.0848528727 0.1187939 0.0504474041
v 0.0848528727 0.1187939 0.0524999497
v 0.0848469123 0.118788059 0.0525673029
v 0.08483821 0.118779357 0.0526667235
v 0.0848528727 0.1187939 0.0489432213
v 0.0851965531 0.1191377 0.0469874737
v 0.0848508462 0.118791993 0.0469874737
v 0.0848528727 0.1187939 0.0470500586
v 0.0861164912 0.120057638 0.0479250548
v 0.0864791259 0.120420272 0.0469874737
v 0.085944353 0.11988538 0.0479250548
v 0.085944353 0.11988538 0.0469874737
v 0.0847887381 0.118729765 0.0466495154
v 0.0848123416 0.118753488 0.0467163918
v 0.0833639487 0.117305095 0.0460500119
v 0.0841457232 0.11808687 0.0460500119
v 0.0848383292 0.118779476 0.0468838808
v 0.0848498925 0.118791039 0.0469586251
v 0.0842636212 0.118204768 0.0460706351
v 0.0843186959 0.118259842 0.046080291
v 0.0844292029 0.118370349 0.0461410878
v 0.0844821318 0.118423278 0.046170294
v 0.0845774993 0.118518646 0.0462667343
v 0.0846250638 0.11856621 0.0463148949
v 0.0847002848 0.118641431 0.046439111
v 0.0847336634 0.11867481 0.0464940665
v 0.0821655377 0.116106565 0.0461407301
v 0.0822127446 0.116153891 0.0461072323
v 0.0817415103 0.115682657 0.0470500586
v 0.0817469939 0.11568814 0.0469874737
v 0.0805394038 0.11448055 0.0469874737
v 0.081756173 0.1156972 0.0468832848
v 0.0818948134 0.11583596 0.0464393494
v 0.0819289073 0.115870054 0.0463719961
v 0.081762968 0.115704114 0.0468053219
v 0.0818060025 0.115747149 0.0466490385
v 0.0818266257 0.115767772 0.0465741751
v 0.0820166453 0.115957792 0.0462656615
v 0.0820555075 0.115996654 0.0462185738
v 0.0823312386 0.116272266 0.0460705159
v 0.0823840484 0.116325195 0.046054065
v 0.0824486598 0.116389806 0.0460500119
v 0.0817415103 0.115682657 0.0489432213
v 0.0805394038 0.11448055 0.0489432213
v 0.0805394038 0.11448055 0.0504474041
v 0.081743656 0.115684803 0.0525673029
v 0.0817415103 0.115682657 0.0524999497
v 0.0817415103 0.115682657 0.0504474041
v 0.0864791259 0.120420272 0.0814999935
v 0.085944353 0.11988538 0.0814999935
v 0.0851965531 0.1191377 0.0814999935
v 0.085944353 0.11988538 0.0659249422
v 0.0864791259 0.120420272 0.0659249422
v 0.085944353 0.11988538 0.0706771014
v 0.0864791259 0.120420272 0.0706771014
v 0.085944353 0.11988538 0.070836961
v 0.0864791259 0.120420272 0.070836961
v 0.085944353 0.11988538 0.0711396334
v 0.0864791259 0.120420272 0.0711396334
v 0.085944353 0.11988538 0.0722321865
v 0.0864791259 0.120420272 0.0722321865
v 0.0864791259 0.120420272 0.0413365958
v 0.0864791259 0.120420272 0.0402809975
v 0.085944353 0.11988538 0.0389191506
v 0.0864791259 0.120420272 0.0389191506
v 0.0864791259 0.120420272 0.0297866461
v 0.0864791259 0.120420272 0.0287310478
v 0.085944353 0.11988538 0.0273690817
v 0.0864791259 0.120420272 0.0273690817
v 0.085944353 0.11988538 0.0727874634
v 0.0864791259 0.120420272 0.0723928807
v 0.0851965531 0.1191377 0.0727874634
v 0.085944353 0.11988538 0.0723928807
v 0.0851965531 0.1191377 0.0723928807
v 0.0851965531 0.1191377 0.0722321865
v 0.0851965531 0.1191377 0.0711396334
v 0.0851965531 0.1191377 0.070836961
v 0.0864791259 0.120420272 0.0452499983
v 0.085944353 0.11988538 0.0452499983
v 0.0857604131 0.11970156 0.0415838358
v 0.0856757745 0.119616921 0.0418571827
v 0.0856792315 0.119620378 0.0418366787
v 0.0856695756 0.119610722 0.0418744681
v 0.085662423 0.11960357 0.0418942568
v 0.0852063283 0.119147475 0.0415838358
v 0.0852063283 0.119147475 0.0414516327
v 0.0857604131 0.11970156 0.0414516327
v 0.0857440814 0.119685228 0.0419459936
v 0.0856825694 0.119623716 0.0418167708
v 0.0856519326 0.119593079 0.0415801403
v 0.0857039079 0.119645054 0.0416204331
v 0.0857339486 0.119674976 0.0416591761
v 0.0857538565 0.119695003 0.0417017338
v 0.085754095 0.119695241 0.0417022106
v 0.0857658967 0.119707043 0.0417491791
v 0.0855398759 0.119481022 0.0415866968
v 0.085497795 0.119438822 0.0415838358
v 0.0856803044 0.119621451 0.0417430994
v 0.0856839999 0.119625027 0.041786134
v 0.0856786355 0.119619782 0.0417237875
v 0.0856725558 0.119613702 0.0417022106
v 0.0856509789 0.119592125 0.0416515467
v 0.0856416806 0.119582827 0.0416408179
v 0.0856286868 0.119569833 0.0416256783
v 0.0856140241 0.119555171 0.0416157839
v 0.0855960234 0.11953717 0.0416036246
v 0.0855757579 0.119516904 0.0415974257
v 0.0857048615 0.119646008 0.0416216252
v 0.085733591 0.119674737 0.0416588185
v 0.0857657775 0.119706924 0.0418749449
v 0.0857594594 0.119700487 0.0418991444
v 0.0857523068 0.119693453 0.0419264433
v 0.0856594428 0.11960047 0.0416678784
v 0.0856670722 0.119608219 0.0416826603
v 0.0857666119 0.119707758 0.0417520401
v 0.0857709035 0.119711931 0.0418092606
v 0.0857679232 0.11970907 0.0418462155
v 0.0857604131 0.11970156 0.0391417143
v 0.0852063283 0.119147475 0.0391417143
v 0.0852063283 0.119147475 0.0390096304
v 0.0857604131 0.11970156 0.0390096304
v 0.0857701882 0.119711335 0.0394096968
v 0.0857666119 0.119707758 0.0394566653
v 0.0857635125 0.119704659 0.0394685862
v 0.0857525452 0.119693692 0.0395106671
v 0.0857533797 0.119694526 0.0400275585
v 0.0857475385 0.119688685 0.0400485394
v 0.0857352599 0.119676406 0.0400725004
v 0.0855898246 0.119530852 0.0400330422
v 0.0855167493 0.119457777 0.03965646
v 0.0855486974 0.119489844 0.0400388834
v 0.0852063283 0.119147475 0.03965646
v 0.0856609925 0.119602139 0.0397374031
v 0.0856540784 0.119595225 0.039723098
v 0.0856434687 0.119584615 0.039709985
v 0.0857381209 0.119679148 0.039723098
v 0.0857231006 0.119664247 0.0396986601
v 0.0857067689 0.119647915 0.0396721957
v 0.0857703074 0.119711454 0.0398476717
v 0.0857720956 0.119713242 0.0398910639
v 0.0857259616 0.119667108 0.0400903818
v 0.0857124909 0.119653518 0.0401062367
v 0.0856980666 0.119639094 0.0401230452
v 0.0856520518 0.119593198 0.0394818184
v 0.0856619462 0.119603093 0.0394660828
v 0.0856779202 0.119618948 0.0399425623
v 0.0856818541 0.119623001 0.0399191973
v 0.0855862483 0.119527276 0.0396698115
v 0.0856243953 0.119565542 0.0400189755
v 0.0856062754 0.119547422 0.039676964
v 0.0856198653 0.119561012 0.0396870968
v 0.0855998381 0.119540865 0.0400316117
v 0.0855602607 0.119501407 0.0396603939
v 0.0857655391 0.119706686 0.039971411
v 0.0857641085 0.119705255 0.0399891732
v 0.0855486974 0.119489844 0.0395242569
v 0.0852063283 0.119147475 0.0395242569
v 0.0852063283 0.119147475 0.0400388834
v 0.0856671914 0.119608338 0.0394578574
v 0.0856738671 0.119614894 0.039439976
v 0.0856779202 0.119618948 0.0394290087
v 0.0856540784 0.119595225 0.0392090676
v 0.0856433495 0.119584496 0.0391957161
v 0.0856558665 0.119597013 0.0391380188
v 0.0856975898 0.119638736 0.0391752121
v 0.0857067689 0.119647915 0.0391833184
v 0.0857298955 0.119671042 0.0392170546
v 0.085737048 0.119678195 0.0392274258
v 0.0857526645 0.119693811 0.0392643807
v 0.0857557639 0.11969691 0.0392716524
v 0.085749565 0.119690712 0.0395169852
v 0.0857332333 0.11967438 0.0395507214
v 0.0857281073 0.119669135 0.0395572779
v 0.0856813773 0.119622524 0.0401342509
v 0.0856593236 0.119600351 0.040149152
v 0.0856376275 0.119578774 0.0401553509
v 0.0855897054 0.119530852 0.0395184157
v 0.0856001958 0.119541342 0.0395168659
v 0.0856246337 0.11956578 0.0395044682
v 0.0856332167 0.119574363 0.0395000574
v 0.0856456145 0.119586761 0.0394880173
v 0.0856326207 0.119573767 0.0400148032
v 0.0856328591 0.119573886 0.0396967528
v 0.0857661351 0.119707282 0.0393179056
v 0.0857685193 0.119709666 0.0393281576
v 0.0857720956 0.119713242 0.0393847821
v 0.0857490882 0.119690235 0.0397534964
v 0.0857593402 0.119700487 0.0397819874
v 0.0857647046 0.119705851 0.0398140547
v 0.0855968579 0.119538004 0.0401670334
v 0.0855610951 0.119502242 0.0401691792
v 0.0852063283 0.119147475 0.0401691792
v 0.0856819733 0.11962312 0.0394052861
v 0.085685192 0.119626339 0.0393862126
v 0.0856866225 0.11962765 0.0393542645
v 0.0856828078 0.119623954 0.0393030045
v 0.0856817349 0.119622881 0.039288461
v 0.0856741055 0.119615252 0.0392586586
v 0.0856699332 0.11961108 0.0392422077
v 0.0856608733 0.11960202 0.0392232535
v 0.0855861291 0.119527276 0.039155185
v 0.0855167493 0.119457777 0.0391417143
v 0.0855606183 0.119501765 0.0391458866
v 0.0856853112 0.119626339 0.0398988125
v 0.0856866225 0.11962765 0.0398671028
v 0.0856828078 0.119623954 0.0398165581
v 0.0857067689 0.119647915 0.0395845768
v 0.0856991395 0.119640286 0.0395905373
v 0.0856861457 0.119627292 0.0396515724
v 0.0856706485 0.119611795 0.0396130678
v 0.0856558665 0.119597013 0.0396212933
v 0.0856328591 0.119573886 0.0391824839
v 0.0856196269 0.119560773 0.0391725895
v 0.0856062754 0.119547422 0.0391625759
v 0.0856453761 0.119586523 0.0400025246
v 0.085652171 0.119593318 0.0399959681
v 0.0856617078 0.119602854 0.0399805901
v 0.0856671914 0.119608338 0.0399717686
v 0.0856735095 0.119614656 0.039954364
v 0.0856817349 0.119622881 0.039802253
v 0.0856742247 0.119615371 0.0397726891
v 0.0856699332 0.11961108 0.0397559998
v 0.0856757745 0.119616921 0.0387397406
v 0.0856792315 0.119620378 0.0387192366
v 0.0856695756 0.119610722 0.0387570259
v 0.085662423 0.11960357 0.0387768147
v 0.0856839999 0.119625027 0.0386686919
v 0.0856803044 0.119621451 0.0386256573
v 0.0857604131 0.11970156 0.0384663937
v 0.0857604131 0.11970156 0.0383341906
v 0.0852063283 0.119147475 0.0383341906
v 0.0852063283 0.119147475 0.0384663937
v 0.0855960234 0.11953717 0.0384861824
v 0.0855757579 0.119516904 0.0384801028
v 0.0856519326 0.119593079 0.0384626982
v 0.0857039079 0.119645054 0.0385029909
v 0.0857440814 0.119685228 0.0388285515
v 0.0857523068 0.119693453 0.0388090012
v 0.0857594594 0.119700487 0.0387817023
v 0.0856825694 0.119623716 0.0386993286
v 0.0855398759 0.119481022 0.0384692547
v 0.085497795 0.119438822 0.0384663937
v 0.0857666119 0.119707758 0.038634598
v 0.0857709035 0.119711931 0.0386918185
v 0.0857048615 0.119646008 0.0385043022
v 0.085733591 0.119674737 0.0385414955
v 0.0857339486 0.119674976 0.0385418532
v 0.0857538565 0.119695003 0.0385842917
v 0.085754095 0.119695241 0.0385847685
v 0.0857658967 0.119707043 0.038631737
v 0.0857679232 0.11970907 0.0387287733
v 0.0857657775 0.119706924 0.0387575028
v 0.0856786355 0.119619782 0.0386063454
v 0.0856725558 0.119613702 0.0385847685
v 0.0856670722 0.119608219 0.0385652182
v 0.0856594428 0.11960047 0.0385504362
v 0.0856509789 0.119592125 0.0385342238
v 0.0856416806 0.119582827 0.0385233757
v 0.0856286868 0.119569833 0.0385083554
v 0.0856140241 0.119555171 0.0384983418
v 0.0857604131 0.11970156 0.030033767
v 0.0856757745 0.119616921 0.0303071139
v 0.0856792315 0.119620378 0.0302866099
v 0.0856695756 0.119610722 0.0303245184
v 0.085662423 0.11960357 0.030344188
v 0.0854108914 0.119352038 0.0378648636
v 0.0854108914 0.119352038 0.03727442
v 0.0852063283 0.119147475 0.0371590254
v 0.0857440814 0.119685228 0.0303959248
v 0.0856670722 0.119608219 0.0301325915
v 0.0856594428 0.11960047 0.0301178095
v 0.0852063283 0.119147475 0.030033767
v 0.0852063283 0.119147475 0.0299016831
v 0.0857604131 0.11970156 0.0299016831
v 0.0857538565 0.119695003 0.030151665
v 0.085754095 0.119695241 0.0301521418
v 0.0857658967 0.119707043 0.0301992295
v 0.0856509789 0.119592125 0.0301015971
v 0.0856416806 0.119582827 0.0300908682
v 0.0856286868 0.119569833 0.0300757286
v 0.0856140241 0.119555171 0.0300658343
v 0.0855960234 0.11953717 0.0300535557
v 0.0855757579 0.119516904 0.030047476
v 0.0855398759 0.119481022 0.0300367472
v 0.085497795 0.119438822 0.030033767
v 0.0856519326 0.119593079 0.0300300715
v 0.0857039079 0.119645054 0.0300704834
v 0.0857048615 0.119646008 0.0300716755
v 0.0856803044 0.119621451 0.0301930306
v 0.0856786355 0.119619782 0.0301738379
v 0.0856725558 0.119613702 0.030152261
v 0.085733591 0.119674737 0.0301088688
v 0.0857339486 0.119674976 0.0301092264
v 0.0857657775 0.119706924 0.0303248761
v 0.0857594594 0.119700487 0.0303491947
v 0.0857523068 0.119693453 0.0303763745
v 0.0856825694 0.119623716 0.0302668211
v 0.0856839999 0.119625027 0.0302360651
v 0.0857666119 0.119707758 0.0302019713
v 0.0857709035 0.119711931 0.0302591917
v 0.0857679232 0.11970907 0.0302962658
v 0.0857604131 0.11970156 0.0275917647
v 0.0857604131 0.11970156 0.0274596808
v 0.0852063283 0.119147475 0.0274596808
v 0.0852063283 0.119147475 0.0275917647
v 0.0852063283 0.119147475 0.0279743073
v 0.085652171 0.119593318 0.0284458992
v 0.0856617078 0.119602854 0.0284306404
v 0.0852063283 0.119147475 0.0281063912
v 0.0857701882 0.119711335 0.0278597472
v 0.0857666119 0.119707758 0.0279065964
v 0.0857635125 0.119704659 0.0279185173
v 0.0857525452 0.119693692 0.0279607174
v 0.0857533797 0.119694526 0.0284776089
v 0.0857475385 0.119688685 0.0284984705
v 0.0857352599 0.119676406 0.0285224316
v 0.0856699332 0.11961108 0.0282059309
v 0.0856609925 0.119602139 0.0281874535
v 0.0856735095 0.119614656 0.0284042952
v 0.0856062754 0.119547422 0.0281270144
v 0.0855862483 0.119527276 0.0281197426
v 0.0857381209 0.119679148 0.0281730292
v 0.0857231006 0.119664247 0.0281487105
v 0.0857067689 0.119647915 0.0281221268
v 0.0857703074 0.119711454 0.0282977221
v 0.0857720956 0.119713242 0.0283411143
v 0.0857259616 0.119667108 0.0285404322
v 0.0857124909 0.119653518 0.0285561678
v 0.0856980666 0.119639094 0.0285730955
v 0.0852063283 0.119147475 0.0284889338
v 0.0855486974 0.119489844 0.0284889338
v 0.0856671914 0.119608338 0.028421819
v 0.0857655391 0.119706686 0.0284214613
v 0.0857641085 0.119705255 0.0284392235
v 0.0856819733 0.11962312 0.0278552172
v 0.085685192 0.119626339 0.0278361437
v 0.0856866225 0.11962765 0.0278043148
v 0.0856828078 0.119623954 0.0277530548
v 0.0856817349 0.119622881 0.0277383921
v 0.0855898246 0.119530852 0.0284830925
v 0.0855998381 0.119540865 0.0284815428
v 0.0856243953 0.119565542 0.0284690258
v 0.0856326207 0.119573767 0.0284648535
v 0.0856453761 0.119586523 0.0284524557
v 0.0856828078 0.119623954 0.0282666085
v 0.0856817349 0.119622881 0.0282523033
v 0.0856742247 0.119615371 0.0282227394
v 0.0856540784 0.119595225 0.0281730292
v 0.0856434687 0.119584615 0.0281599161
v 0.0856328591 0.119573886 0.0281466839
v 0.0856198653 0.119561012 0.0281371472
v 0.0855602607 0.119501407 0.0281104443
v 0.0855167493 0.119457777 0.0281063912
v 0.0856558665 0.119597013 0.0275880692
v 0.0856975898 0.119638736 0.0276251433
v 0.0857067689 0.119647915 0.0276332495
v 0.0857298955 0.119671042 0.0276669857
v 0.085737048 0.119678195 0.0276774761
v 0.0857526645 0.119693811 0.027714431
v 0.0857557639 0.11969691 0.0277217028
v 0.085749565 0.119690712 0.0279669163
v 0.0857332333 0.11967438 0.0280006525
v 0.0857281073 0.119669135 0.0280073283
v 0.0856813773 0.119622524 0.0285843012
v 0.0856593236 0.119600351 0.0285990832
v 0.0856376275 0.119578774 0.0286054013
v 0.0855486974 0.119489844 0.0279743073
v 0.0855897054 0.119530852 0.0279683468
v 0.0856001958 0.119541342 0.0279669163
v 0.0856741055 0.119615252 0.027708709
v 0.0856699332 0.11961108 0.0276922581
v 0.0856608733 0.11960202 0.0276731846
v 0.0856540784 0.119595225 0.0276589987
v 0.0856433495 0.119584496 0.0276456473
v 0.0856328591 0.119573886 0.027632415
v 0.0856196269 0.119560773 0.0276225207
v 0.0856062754 0.119547422 0.0276125071
v 0.0855861291 0.119527276 0.0276052353
v 0.0855606183 0.119501765 0.027595937
v 0.0855167493 0.119457777 0.0275917647
v 0.0857661351 0.119707282 0.0277678368
v 0.0857685193 0.119709666 0.0277780888
v 0.0857720956 0.119713242 0.0278347132
v 0.0857490882 0.119690235 0.0282034275
v 0.0857593402 0.119700487 0.0282319186
v 0.0857647046 0.119705851 0.0282639859
v 0.0855968579 0.119538004 0.0286170838
v 0.0855610951 0.119502242 0.0286192295
v 0.0852063283 0.119147475 0.0286192295
v 0.0856246337 0.11956578 0.0279543993
v 0.0856332167 0.119574363 0.0279499886
v 0.0856456145 0.119586761 0.0279380677
v 0.0856619462 0.119603093 0.0279161331
v 0.0856671914 0.119608338 0.0279079077
v 0.0856738671 0.119614894 0.0278899071
v 0.0856779202 0.119618948 0.0283924935
v 0.0856818541 0.119623001 0.0283692477
v 0.0857067689 0.119647915 0.0280346272
v 0.0856991395 0.119640286 0.0280405876
v 0.0856861457 0.119627292 0.0281015036
v 0.0856706485 0.119611795 0.0280631182
v 0.0856558665 0.119597013 0.0280713436
v 0.0856779202 0.119618948 0.0278789398
v 0.0856520518 0.119593198 0.0279317496
v 0.0856853112 0.119626339 0.0283488629
v 0.0856866225 0.11962765 0.028317034
v 0.0856757745 0.119616921 0.0271896717
v 0.0856792315 0.119620378 0.0271692869
v 0.0856695756 0.119610722 0.0272070763
v 0.085662423 0.11960357 0.027226865
v 0.0857604131 0.11970156 0.0269163248
v 0.0857604131 0.11970156 0.0267842409
v 0.0852063283 0.119147475 0.0267842409
v 0.0852063283 0.119147475 0.0269163248
v 0.0856509789 0.119592125 0.0269841549
v 0.0856416806 0.119582827 0.0269734261
v 0.0856286868 0.119569833 0.0269582865
v 0.0856519326 0.119593079 0.0269126293
v 0.0857039079 0.119645054 0.0269530413
v 0.0857440814 0.119685228 0.0272786019
v 0.0857523068 0.119693453 0.0272590515
v 0.0857594594 0.119700487 0.0272317526
v 0.0856140241 0.119555171 0.0269483921
v 0.0855960234 0.11953717 0.0269361136
v 0.0855757579 0.119516904 0.0269300339
v 0.0857666119 0.119707758 0.0270846484
v 0.0857709035 0.119711931 0.0271417496
v 0.0856839999 0.119625027 0.0271187422
v 0.0856803044 0.119621451 0.0270757077
v 0.0856786355 0.119619782 0.0270563958
v 0.0856725558 0.119613702 0.0270348189
v 0.0856670722 0.119608219 0.0270152685
v 0.0856594428 0.11960047 0.0270004866
v 0.0855398759 0.119481022 0.0269193051
v 0.085497795 0.119438822 0.0269163248
v 0.0857048615 0.119646008 0.0269542334
v 0.085733591 0.119674737 0.0269914267
v 0.0857339486 0.119674976 0.0269917843
v 0.0857538565 0.119695003 0.0270342228
v 0.085754095 0.119695241 0.0270346997
v 0.0857658967 0.119707043 0.0270817873
v 0.0857679232 0.11970907 0.0271788237
v 0.0857657775 0.119706924 0.0272074339
v 0.0856825694 0.119623716 0.027149379
v 0.0864791259 0.120420272 0.0185000298
v 0.085944353 0.11988538 0.0185000298
v 0.0824486598 0.116389806 0.0733035204
v 0.0824486598 0.116389806 0.0731676218
v 0.0833587035 0.11729985 0.0731676218
v 0.0833587035 0.11729985 0.0735446808
v 0.0833452329 0.117286379 0.0737058518
v 0.0828067645 0.116747911 0.0737084744
v 0.0827936515 0.116734798 0.0735508797
v 0.0827936515 0.116734679 0.0735446808
v 0.0827936515 0.116734679 0.0733035204
v 0.0833443984 0.117285545 0.0737165806
v 0.0833209142 0.117262061 0.0737989542
v 0.0833144769 0.117255623 0.0738217232
v 0.0829126223 0.116853769 0.0739341376
v 0.0828941449 0.116835291 0.0739170906
v 0.0828655347 0.116806681 0.0738762018
v 0.0828340634 0.11677521 0.0738102791
v 0.0828339442 0.116775091 0.0738100407
v 0.0828083142 0.116749461 0.0737144348
v 0.0832878932 0.11722904 0.0738759634
v 0.0832559451 0.117197092 0.0739187596
v 0.083246766 0.117187912 0.0739311573
v 0.0829998835 0.11694103 0.0739905236
v 0.0829654321 0.116906579 0.0739733574
v 0.0829425439 0.11688369 0.0739620325
v 0.0832100495 0.117151196 0.073960602
v 0.083197771 0.117138917 0.0739704964
v 0.0831528291 0.117093976 0.0739889738
v 0.0831387624 0.117079909 0.0739946959
v 0.0830765351 0.117017682 0.0740019676
v 0.0830264672 0.116967495 0.0739944575
f 1 2 3
f 4 5 6
f 6 7 4
f 4 7 8
f 4 8 3
f 3 8 9
f 3 9 1
f 10 11 12
f 13 14 15
f 16 17 18
f 19 20 21
f 22 23 24
f 25 26 27
f 27 26 28
f 27 28 29
f 30 31 32
f 32 31 33
f 30 34 31
f 31 34 35
f 31 35 36
f 36 37 31
f 31 37 38
f 31 38 27
f 27 38 39
f 27 39 25
f 40 41 42
f 42 41 43
f 42 43 44
f 45 46 47
f 47 46 48
f 47 48 49
f 49 50 47
f 47 50 51
f 47 51 52
f 44 53 42
f 42 53 54
f 42 54 55
f 56 57 58
f 57 59 58
f 58 59 60
f 58 60 61
f 62 63 64
f 64 63 65
f 64 65 66
f 66 65 58
f 66 58 67
f 67 58 61
f 68 58 69
f 69 58 70
f 68 71 58
f 58 71 72
f 58 72 73
f 74 75 55
f 55 75 76
f 77 78 79
f 73 80 58
f 58 80 81
f 58 81 56
f 82 83 58
f 58 83 84
f 85 86 58
f 58 86 87
f 87 88 58
f 58 88 89
f 58 89 90
f 90 91 58
f 58 91 92
f 58 92 93
f 93 94 58
f 58 94 95
f 58 95 96
f 97 98 99
f 99 98 54
f 99 54 100
f 101 102 55
f 55 102 103
f 55 103 104
f 105 106 77
f 77 106 47
f 77 47 78
f 78 47 52
f 78 52 64
f 64 52 107
f 64 107 62
f 84 108 58
f 58 108 109
f 58 109 85
f 96 110 58
f 58 110 111
f 58 111 112
f 112 113 58
f 58 113 114
f 58 114 115
f 115 116 58
f 58 116 117
f 58 117 70
f 118 119 55
f 55 119 120
f 55 120 74
f 79 121 77
f 77 121 122
f 77 122 123
f 124 47 125
f 125 47 106
f 125 106 40
f 40 106 126
f 40 126 41
f 41 126 127
f 98 128 54
f 54 128 129
f 54 129 55
f 55 129 130
f 55 130 101
f 104 131 55
f 55 131 132
f 55 132 118
f 133 134 99
f 99 134 135
f 99 135 136
f 123 137 77
f 77 137 138
f 77 138 99
f 99 138 139
f 99 139 133
f 136 140 99
f 99 140 141
f 99 141 142
f 142 143 99
f 99 143 144
f 99 144 97
f 145 146 147
f 146 148 147
f 147 148 149
f 147 149 150
f 151 152 153
f 154 155 156
f 156 155 157
f 156 157 158
f 159 160 154
f 154 160 161
f 154 161 162
f 163 164 165
f 162 166 154
f 154 166 167
f 154 167 168
f 169 170 171
f 172 155 173
f 173 155 154
f 173 154 174
f 174 154 175
f 176 177 178
f 178 177 179
f 179 180 178
f 178 180 181
f 178 181 182
f 176 178 165
f 165 178 183
f 165 183 184
f 184 185 165
f 165 185 186
f 165 186 163
f 164 187 165
f 165 187 188
f 165 188 189
f 189 190 165
f 165 190 191
f 165 191 192
f 193 194 195
f 195 194 196
f 171 197 182
f 182 197 198
f 182 198 178
f 199 200 175
f 175 200 201
f 196 194 202
f 202 194 203
f 202 203 204
f 204 203 205
f 204 205 206
f 182 207 171
f 171 207 208
f 171 208 169
f 169 208 209
f 168 210 154
f 154 210 211
f 154 211 175
f 175 211 212
f 175 212 199
f 193 213 194
f 194 213 214
f 194 214 215
f 215 214 175
f 215 175 216
f 216 175 201
f 206 217 204
f 204 217 218
f 204 218 219
f 219 220 204
f 204 220 221
f 204 221 152
f 152 221 165
f 152 165 153
f 153 165 192
f 222 204 223
f 223 204 152
f 223 152 224
f 224 152 225
f 226 227 222
f 228 229 230
f 230 229 231
f 230 231 232
f 233 234 222
f 227 235 222
f 222 235 236
f 222 236 204
f 234 237 222
f 222 237 238
f 222 238 226
f 232 239 230
f 230 239 240
f 230 240 241
f 241 242 230
f 230 242 243
f 230 243 222
f 222 243 244
f 222 244 233
f 245 246 247
f 248 249 247
f 247 249 250
f 247 250 251
f 230 224 228
f 228 224 225
f 228 225 246
f 246 225 252
f 246 252 247
f 251 253 247
f 247 253 254
f 247 254 255
f 255 256 247
f 247 256 257
f 247 257 245
f 258 259 248
f 172 260 155
f 155 260 261
f 155 261 262
f 259 263 248
f 248 263 264
f 248 264 249
f 262 265 155
f 155 265 266
f 155 266 267
f 268 269 248
f 248 269 270
f 248 270 258
f 267 271 155
f 155 271 272
f 155 272 248
f 248 272 273
f 248 273 268
f 274 275 276
f 276 275 277
f 278 279 280
f 278 280 281
f 279 282 280
f 280 282 283
f 280 283 284
f 285 275 286
f 286 275 274
f 286 274 287
f 287 274 151
f 153 158 151
f 151 158 157
f 151 157 287
f 287 157 288
f 289 290 157
f 291 292 285
f 293 294 295
f 284 296 280
f 280 296 297
f 280 297 295
f 295 297 298
f 295 298 293
f 292 299 285
f 285 299 300
f 285 300 275
f 290 301 157
f 157 301 302
f 157 302 303
f 294 304 295
f 295 304 305
f 295 305 306
f 303 307 157
f 157 307 308
f 157 308 309
f 310 311 285
f 306 312 295
f 295 312 313
f 295 313 314
f 315 316 288
f 288 316 317
f 288 317 318
f 311 319 285
f 285 319 320
f 285 320 291
f 318 321 288
f 288 321 322
f 288 322 323
f 314 324 295
f 295 324 325
f 295 325 157
f 157 325 326
f 157 326 289
f 309 327 157
f 157 327 328
f 157 328 329
f 329 330 157
f 157 330 331
f 157 331 288
f 288 331 332
f 288 332 315
f 323 333 288
f 288 333 334
f 288 334 285
f 285 334 335
f 285 335 310
f 277 281 276
f 276 281 280
f 276 280 336
f 336 280 337
f 338 339 336
f 336 339 340
f 336 340 276
f 276 340 341
f 276 341 342
f 342 341 343
f 342 343 339
f 344 345 346
f 346 345 347
f 348 349 350
f 351 352 353
f 353 352 354
f 353 354 355
f 355 354 347
f 355 347 356
f 356 347 345
f 348 350 357
f 357 350 358
f 357 358 359
f 359 358 360
f 359 360 338
f 361 362 363
f 23 22 364
f 22 361 364
f 364 361 363
f 364 363 365
f 365 363 366
f 365 366 367
f 367 366 368
f 367 368 369
f 370 371 372
f 372 371 373
f 372 373 374
f 374 373 375
f 374 375 376
f 376 375 19
f 370 372 377
f 377 372 378
f 377 378 379
f 380 381 382
f 383 384 385
f 386 387 388
f 388 387 389
f 388 389 390
f 390 389 383
f 390 383 391
f 391 383 385
f 392 393 394
f 395 396 382
f 382 396 397
f 382 397 380
f 398 399 400
f 378 394 395
f 395 394 393
f 395 393 396
f 394 401 392
f 392 401 402
f 392 402 403
f 403 402 404
f 403 404 405
f 398 400 404
f 404 400 406
f 404 406 405
f 380 387 381
f 381 387 386
f 381 386 374
f 374 386 407
f 374 407 372
f 372 407 408
f 372 408 378
f 378 408 409
f 378 409 394
f 395 410 411
f 412 413 411
f 411 413 414
f 411 414 395
f 395 414 415
f 410 395 416
f 416 395 382
f 416 382 417
f 417 382 381
f 417 381 418
f 418 381 419
f 418 419 420
f 420 419 421
f 420 421 422
f 423 424 425
f 415 426 427
f 414 422 415
f 415 422 421
f 415 421 426
f 426 421 428
f 426 428 429
f 427 430 415
f 415 430 431
f 415 431 432
f 433 434 425
f 425 434 435
f 432 436 415
f 415 436 437
f 415 437 438
f 424 439 425
f 425 439 440
f 425 440 441
f 435 442 425
f 425 442 443
f 425 443 444
f 444 445 425
f 425 445 446
f 425 446 447
f 447 448 425
f 425 448 449
f 425 449 423
f 441 450 425
f 425 450 451
f 425 451 452
f 452 453 425
f 425 453 454
f 425 454 455
f 455 456 425
f 425 456 457
f 425 457 458
f 458 459 425
f 425 459 460
f 425 460 461
f 461 462 425
f 425 462 463
f 425 463 464
f 428 465 429
f 429 465 425
f 429 425 466
f 466 425 464
f 425 467 468
f 469 425 470
f 470 425 468
f 470 468 471
f 469 472 425
f 425 472 473
f 425 473 474
f 474 475 425
f 425 475 476
f 425 476 477
f 477 478 425
f 425 478 479
f 425 479 433
f 480 481 482
f 482 481 483
f 484 485 419
f 419 485 486
f 419 486 421
f 421 486 487
f 421 487 428
f 488 489 419
f 419 489 490
f 419 490 491
f 491 492 419
f 419 492 493
f 419 493 484
f 480 494 481
f 481 494 495
f 481 495 419
f 419 495 496
f 419 496 488
f 497 498 499
f 500 501 497
f 499 502 497
f 497 502 503
f 497 503 504
f 505 506 507
f 507 506 508
f 507 508 509
f 509 510 507
f 507 510 511
f 507 511 481
f 481 511 512
f 481 512 483
f 504 513 497
f 497 513 514
f 497 514 515
f 515 516 497
f 497 516 517
f 497 517 500
f 501 518 497
f 497 518 519
f 497 519 507
f 507 519 520
f 507 520 505
f 521 522 497
f 523 524 525
f 497 526 527
f 523 525 497
f 497 525 528
f 497 528 526
f 527 529 497
f 497 529 530
f 497 530 531
f 531 532 497
f 497 532 533
f 497 533 521
f 522 534 497
f 497 534 535
f 497 535 498
f 498 535 536
f 498 536 537
f 537 536 538
f 537 538 438
f 539 540 541
f 541 540 542
f 543 544 540
f 540 544 545
f 546 547 548
f 548 547 549
f 548 549 550
f 550 551 548
f 548 551 552
f 548 552 540
f 540 552 553
f 540 553 542
f 545 554 540
f 540 554 555
f 540 555 556
f 539 557 540
f 540 557 558
f 540 558 543
f 559 560 561
f 561 560 562
f 561 562 563
f 563 562 564
f 563 564 565
f 566 567 568
f 566 568 569
f 559 570 560
f 560 570 571
f 560 571 568
f 568 571 572
f 568 572 569
f 567 573 568
f 568 573 574
f 568 574 548
f 548 574 575
f 548 575 546
f 576 577 578
f 579 580 581
f 581 580 582
f 581 582 583
f 583 582 584
f 585 586 564
f 576 583 577
f 577 583 584
f 577 584 560
f 560 584 587
f 560 587 562
f 562 587 588
f 562 588 564
f 564 588 589
f 564 589 585
f 580 590 582
f 582 590 591
f 582 591 585
f 585 591 592
f 592 593 585
f 585 593 594
f 585 594 586
f 586 594 595
f 586 595 578
f 578 595 596
f 578 596 576
f 597 598 599
f 600 601 602
f 603 604 586
f 586 604 605
f 586 605 606
f 600 602 607
f 586 602 608
f 606 609 586
f 586 609 610
f 586 610 611
f 612 613 607
f 614 615 578
f 578 615 616
f 578 616 617
f 607 602 612
f 612 602 586
f 612 586 599
f 599 586 611
f 599 611 597
f 617 618 578
f 578 618 619
f 578 619 586
f 586 619 620
f 586 620 603
f 621 577 622
f 622 577 623
f 624 625 577
f 577 625 626
f 577 626 578
f 578 626 627
f 578 627 614
f 621 628 577
f 577 628 629
f 577 629 624
f 630 631 632
f 632 631 633
f 634 635 636
f 636 635 637
f 636 637 638
f 633 639 632
f 632 639 640
f 632 640 641
f 642 643 644
f 641 645 632
f 632 645 646
f 632 646 647
f 648 649 650
f 650 649 651
f 652 649 653
f 653 649 654
f 655 656 644
f 657 658 636
f 636 658 659
f 647 660 632
f 632 660 661
f 632 661 662
f 648 663 649
f 649 663 664
f 649 664 654
f 652 665 649
f 649 665 666
f 649 666 667
f 643 668 644
f 644 668 669
f 644 669 670
f 671 672 636
f 659 673 636
f 636 673 674
f 636 674 634
f 675 676 644
f 676 677 644
f 644 677 678
f 644 678 642
f 670 679 644
f 644 679 680
f 644 680 655
f 672 681 636
f 636 681 682
f 636 682 657
f 662 683 632
f 632 683 684
f 632 684 649
f 649 684 685
f 649 685 651
f 656 686 644
f 644 686 687
f 644 687 636
f 636 687 688
f 636 688 671
f 638 689 690
f 690 689 691
f 691 689 692
f 691 692 693
f 18 17 694
f 694 17 695
f 694 695 696
f 16 697 698
f 698 697 699
f 698 699 700
f 700 699 701
f 700 701 702
f 703 704 705
f 705 704 706
f 707 708 709
f 709 708 710
f 709 710 711
f 706 712 705
f 705 712 713
f 705 713 714
f 715 716 717
f 714 718 705
f 705 718 719
f 705 719 720
f 721 722 723
f 723 722 724
f 725 722 726
f 726 722 727
f 728 729 717
f 730 731 709
f 709 731 732
f 720 733 705
f 705 733 734
f 705 734 735
f 721 736 722
f 722 736 737
f 722 737 727
f 725 738 722
f 722 738 739
f 722 739 740
f 716 741 717
f 717 741 742
f 717 742 743
f 744 745 709
f 732 746 709
f 709 746 747
f 709 747 707
f 748 749 717
f 749 750 717
f 717 750 751
f 717 751 715
f 743 752 717
f 717 752 753
f 717 753 728
f 745 754 709
f 709 754 755
f 709 755 730
f 735 756 705
f 705 756 757
f 705 757 722
f 722 757 758
f 722 758 724
f 729 759 717
f 717 759 760
f 717 760 709
f 709 760 761
f 709 761 744
f 711 762 763
f 763 762 764
f 764 762 765
f 764 765 766
f 15 14 767
f 767 14 768
f 767 768 769
f 770 771 769
f 769 771 772
f 769 772 767
f 767 772 773
f 13 774 775
f 775 774 776
f 775 776 777
f 777 776 778
f 777 778 773
f 773 778 779
f 773 779 767
f 368 780 781
f 782 783 342
f 342 783 784
f 781 782 368
f 368 782 342
f 368 342 369
f 369 342 339
f 369 339 346
f 346 339 338
f 346 338 344
f 344 338 360
f 784 785 342
f 342 785 786
f 342 786 787
f 787 788 342
f 342 788 789
f 342 789 790
f 790 789 791
f 792 793 366
f 794 795 366
f 366 795 796
f 366 796 792
f 793 797 366
f 366 797 798
f 366 798 368
f 368 798 799
f 368 799 780
f 800 801 802
f 802 801 803
f 802 803 366
f 366 803 804
f 366 804 794
f 805 806 802
f 806 807 802
f 802 807 808
f 802 808 800
f 438 538 415
f 415 538 809
f 415 809 395
f 395 809 805
f 395 805 378
f 378 805 802
f 378 802 379
f 810 811 812
f 813 814 812
f 814 815 812
f 812 815 816
f 812 816 817
f 817 818 812
f 812 818 819
f 812 819 820
f 820 821 812
f 812 821 822
f 812 822 810
f 811 823 812
f 812 823 824
f 812 824 523
f 523 824 825
f 523 825 524
f 812 826 813
f 813 826 827
f 813 827 828
f 828 827 829
f 791 830 790
f 790 830 831
f 790 831 832
f 832 833 790
f 790 833 834
f 790 834 829
f 829 834 835
f 829 835 828
f 836 9 837
f 837 9 8
f 837 8 838
f 838 8 7
f 838 7 839
f 839 7 6
f 839 6 33
f 33 6 5
f 33 5 32
f 840 841 842
f 843 844 845
f 846 847 843
f 843 847 848
f 840 842 843
f 843 842 849
f 843 849 844
f 845 850 843
f 843 850 851
f 843 851 852
f 852 853 843
f 843 853 854
f 843 854 846
f 848 855 843
f 843 855 2
f 843 2 836
f 836 2 1
f 836 1 9
f 856 857 858
f 858 859 860
f 711 763 709
f 709 763 861
f 709 861 858
f 858 861 862
f 858 862 859
f 860 863 858
f 858 863 864
f 858 864 865
f 865 866 858
f 858 866 867
f 858 867 856
f 857 868 858
f 858 868 869
f 858 869 840
f 840 869 870
f 840 870 841
f 871 872 779
f 779 872 873
f 779 873 767
f 767 873 874
f 767 874 875
f 875 874 764
f 875 764 705
f 705 764 766
f 705 766 703
f 876 877 878
f 878 877 879
f 28 880 29
f 29 880 881
f 29 881 882
f 882 881 883
f 882 883 878
f 878 883 884
f 878 884 876
f 879 885 878
f 878 885 886
f 878 886 887
f 887 888 878
f 878 888 889
f 878 889 890
f 891 892 779
f 779 892 893
f 779 893 871
f 894 895 896
f 897 898 899
f 900 901 897
f 897 901 902
f 894 896 897
f 897 896 903
f 897 903 898
f 899 904 897
f 897 904 905
f 897 905 906
f 906 907 897
f 897 907 908
f 897 908 900
f 902 909 897
f 897 909 910
f 897 910 911
f 912 913 914
f 914 915 916
f 638 690 636
f 636 690 917
f 636 917 914
f 914 917 918
f 914 918 915
f 916 919 914
f 914 919 920
f 914 920 921
f 921 922 914
f 914 922 923
f 914 923 912
f 913 924 914
f 914 924 925
f 914 925 894
f 894 925 926
f 894 926 895
f 694 927 928
f 928 927 691
f 928 691 632
f 632 691 693
f 632 693 630
f 840 929 930
f 858 931 932
f 933 934 858
f 858 934 935
f 840 930 858
f 858 930 936
f 858 936 931
f 932 937 858
f 858 937 938
f 858 938 939
f 939 940 858
f 858 940 941
f 858 941 933
f 935 942 858
f 858 942 943
f 858 943 694
f 694 943 944
f 694 944 927
f 945 946 843
f 947 948 843
f 948 949 843
f 843 949 950
f 843 950 951
f 951 952 843
f 843 952 953
f 843 953 954
f 954 955 843
f 843 955 956
f 843 956 945
f 946 957 843
f 843 957 958
f 843 958 840
f 840 958 959
f 840 959 929
f 843 960 947
f 947 960 961
f 947 961 962
f 962 961 963
f 962 963 964
f 964 963 911
f 964 911 965
f 965 911 910
f 523 966 967
f 812 968 969
f 970 971 972
f 972 971 812
f 972 812 973
f 973 812 974
f 523 967 812
f 812 967 975
f 812 975 968
f 969 976 812
f 812 976 977
f 812 977 978
f 978 979 812
f 812 979 980
f 812 980 974
f 981 982 497
f 983 984 497
f 984 985 497
f 497 985 986
f 497 986 987
f 987 988 497
f 497 988 989
f 497 989 981
f 982 990 497
f 497 990 991
f 497 991 523
f 523 991 992
f 523 992 966
f 993 994 540
f 540 994 995
f 540 995 996
f 556 565 540
f 540 565 564
f 540 564 993
f 993 564 586
f 993 586 997
f 998 999 1000
f 623 577 1001
f 1001 577 1002
f 1001 1002 1003
f 1003 1002 1004
f 1003 1004 608
f 608 1004 998
f 608 998 586
f 586 998 1000
f 586 1000 997
f 1005 1006 998
f 894 1007 1008
f 1006 1009 998
f 998 1009 1010
f 998 1010 999
f 894 1008 914
f 914 1008 1011
f 914 1011 1012
f 1012 1013 914
f 914 1013 1014
f 914 1014 1015
f 1015 1016 914
f 914 1016 1017
f 914 1017 1018
f 1019 1020 897
f 1021 1022 1023
f 1023 1022 1024
f 1025 1026 897
f 1024 1027 1023
f 1023 1027 1028
f 1023 1028 897
f 897 1028 1029
f 897 1029 1025
f 1026 1030 897
f 897 1030 1031
f 897 1031 1019
f 1020 1032 897
f 897 1032 1033
f 897 1033 894
f 894 1033 1034
f 894 1034 1007
f 1021 1023 1035
f 1035 1023 1036
f 1035 1036 1037
f 970 1038 971
f 971 1038 1039
f 971 1039 1037
f 1037 1039 1040
f 1037 1040 1035
f 1041 11 1042
f 1042 11 10
f 1042 10 1043
f 19 21 376
f 376 21 1044
f 376 1044 1045
f 1045 1044 1046
f 1045 1046 1047
f 1047 1046 1048
f 1047 1048 1049
f 1049 1048 1050
f 1049 1050 1051
f 1051 1050 1052
f 1051 1052 1053
f 1054 1055 644
f 644 1055 649
f 644 649 675
f 675 649 667
f 16 18 697
f 697 18 1056
f 697 1056 1057
f 1058 1059 717
f 717 1059 722
f 717 722 748
f 748 722 740
f 13 15 774
f 774 15 1060
f 774 1060 1061
f 45 47 150
f 150 47 1043
f 150 1043 147
f 147 1043 10
f 147 10 1062
f 1062 10 12
f 1062 12 1063
f 76 145 55
f 55 145 147
f 55 147 1064
f 1064 147 1062
f 1064 1062 1065
f 1065 1062 1063
f 1065 1063 1053
f 1066 1052 1067
f 1067 1052 1050
f 1067 1050 1068
f 1068 1050 1048
f 1068 1048 1069
f 1069 1048 1046
f 1069 1046 363
f 363 1046 1044
f 363 1044 366
f 366 1044 21
f 366 21 802
f 802 21 20
f 802 20 379
f 481 568 507
f 507 568 548
f 507 548 497
f 497 548 540
f 497 540 983
f 983 540 996
f 1002 1070 1004
f 1004 1070 1071
f 1004 1071 998
f 998 1071 914
f 998 914 1005
f 1005 914 1018
f 1070 1054 1071
f 1071 1054 644
f 1071 644 1072
f 1073 1074 1075
f 1075 1074 1076
f 914 1077 636
f 636 1077 1078
f 636 1078 644
f 644 1078 1079
f 644 1079 1072
f 1071 1080 914
f 914 1080 1076
f 914 1076 1077
f 1077 1076 1074
f 1077 1074 1081
f 1072 1082 1083
f 1084 1085 1072
f 1072 1085 1086
f 1072 1086 1087
f 1088 1089 1090
f 1090 1089 1077
f 1090 1077 1091
f 1091 1077 1081
f 1090 1092 1093
f 1094 1095 1090
f 1090 1095 1096
f 1090 1096 1097
f 1097 1098 1090
f 1090 1098 1099
f 1090 1099 1088
f 1083 1100 1072
f 1072 1100 1101
f 1072 1101 1084
f 1102 1103 1071
f 1071 1103 1104
f 1071 1104 1080
f 1094 1090 1105
f 1105 1090 1093
f 1105 1093 1106
f 1087 1107 1072
f 1072 1107 1108
f 1072 1108 1071
f 1071 1108 1109
f 1071 1109 1102
f 1055 1057 649
f 649 1057 1056
f 649 1056 1110
f 632 1111 928
f 928 1111 1112
f 928 1112 1056
f 1056 1112 1113
f 1056 1113 1110
f 1114 1115 649
f 649 1115 1116
f 649 1116 1117
f 1118 1119 649
f 649 1119 1120
f 1121 1122 1123
f 1123 1122 1124
f 1125 1126 1127
f 1128 1117 1129
f 1129 1117 1130
f 1131 1132 649
f 1120 1133 649
f 649 1133 1134
f 649 1134 1135
f 1136 1137 1111
f 1138 1139 1127
f 1140 1141 1142
f 1142 1141 1143
f 1121 1144 1122
f 1122 1144 1141
f 1122 1141 1145
f 1145 1141 1140
f 1132 1146 649
f 649 1146 1147
f 649 1147 1118
f 1148 1111 1149
f 1149 1111 632
f 1149 632 1124
f 1124 632 1150
f 1124 1150 1123
f 1137 1151 1111
f 1111 1151 1152
f 1111 1152 1153
f 1154 1155 1111
f 1156 1157 1110
f 1110 1157 1158
f 1110 1158 1159
f 1159 1160 1110
f 1110 1160 1161
f 1110 1161 1162
f 1117 1163 1130
f 1130 1163 1164
f 1130 1164 1165
f 1135 1166 649
f 649 1166 1167
f 649 1167 1168
f 1148 1169 1111
f 1111 1169 1170
f 1111 1170 1171
f 1171 1172 1111
f 1111 1172 1173
f 1111 1173 1136
f 1174 1127 1141
f 1141 1127 1175
f 1141 1175 1143
f 1162 1176 1110
f 1110 1176 1177
f 1110 1177 649
f 649 1177 1178
f 649 1178 1114
f 1128 1179 1117
f 1117 1179 1180
f 1117 1180 649
f 649 1180 1181
f 649 1181 1131
f 1168 1182 649
f 649 1182 1183
f 649 1183 632
f 632 1183 1184
f 632 1184 1150
f 1153 1185 1111
f 1111 1185 1186
f 1111 1186 1187
f 1187 1188 1111
f 1111 1188 1189
f 1111 1189 1190
f 1190 1191 1111
f 1111 1191 1192
f 1111 1192 1154
f 1111 1193 1194
f 1194 1193 1195
f 1139 1196 1127
f 1127 1196 1197
f 1127 1197 1198
f 1165 1199 1130
f 1130 1199 1200
f 1130 1200 1201
f 1201 1200 1202
f 1201 1202 1203
f 1155 1204 1111
f 1111 1204 1205
f 1111 1205 1193
f 1193 1205 1206
f 1174 1207 1127
f 1127 1207 1208
f 1127 1208 1209
f 1209 1210 1127
f 1127 1210 1211
f 1127 1211 1138
f 1198 1212 1127
f 1127 1212 1213
f 1127 1213 1125
f 1125 1213 1214
f 1215 1216 1217
f 1217 1216 1218
f 1219 1220 928
f 1221 1056 1222
f 1222 1056 18
f 1222 18 1223
f 1223 18 694
f 1223 694 1224
f 1224 694 928
f 1225 1226 928
f 1221 1227 1228
f 1218 928 1229
f 1229 928 1056
f 1229 1056 1230
f 1230 1056 1231
f 1218 1216 928
f 928 1216 1232
f 928 1232 1219
f 1226 1233 928
f 928 1233 1234
f 928 1234 1224
f 1056 1235 1236
f 1228 1237 1221
f 1221 1237 1238
f 1221 1238 1239
f 1239 1240 1221
f 1221 1240 1241
f 1221 1241 1056
f 1056 1241 1242
f 1056 1242 1235
f 1236 1243 1056
f 1056 1243 1244
f 1056 1244 1231
f 1220 1245 928
f 928 1245 1246
f 928 1246 1247
f 1247 1248 928
f 928 1248 1249
f 928 1249 1250
f 1250 1251 928
f 928 1251 1252
f 928 1252 1225
f 699 1058 701
f 701 1058 717
f 701 717 1253
f 1254 1255 1256
f 1256 1255 1257
f 1258 1259 696
f 696 1259 1260
f 696 1260 694
f 694 1260 702
f 694 702 858
f 858 702 701
f 858 701 1261
f 1262 1263 1257
f 1261 1257 858
f 858 1257 1264
f 858 1264 709
f 709 1264 1265
f 709 1265 717
f 717 1265 1266
f 717 1266 1253
f 1267 1268 1253
f 1253 1268 1269
f 1263 1270 1257
f 1257 1270 1271
f 1257 1271 1272
f 1272 1273 1257
f 1257 1273 1274
f 1257 1274 1275
f 1275 1276 1257
f 1257 1276 1277
f 1257 1277 1264
f 1278 1279 1253
f 1253 1279 1280
f 1281 1282 1257
f 1257 1282 1283
f 1257 1283 1262
f 1280 1284 1253
f 1253 1284 1285
f 1253 1285 1267
f 1286 1287 701
f 701 1287 1288
f 701 1288 1261
f 1257 1255 1281
f 1281 1255 1289
f 1281 1289 1290
f 1269 1291 1253
f 1253 1291 1292
f 1253 1292 701
f 701 1292 1293
f 701 1293 1286
f 1059 1061 722
f 722 1061 1060
f 722 1060 1294
f 1294 1060 1295
f 1295 1060 1296
f 1296 1060 875
f 1296 875 1297
f 1297 875 705
f 1297 705 1298
f 1299 1300 1301
f 1302 1303 722
f 722 1303 1304
f 722 1304 1305
f 1306 1307 722
f 722 1307 1308
f 1309 1310 1311
f 1312 1313 1300
f 1314 1305 1315
f 1315 1305 1316
f 1317 1318 722
f 1308 1319 722
f 722 1319 1320
f 722 1320 1321
f 1298 705 1301
f 1301 705 1322
f 1301 1322 1323
f 1311 1310 1324
f 1318 1325 722
f 722 1325 1326
f 722 1326 1306
f 1298 1327 1328
f 1328 1329 1298
f 1298 1329 1330
f 1298 1330 1331
f 1323 1332 1301
f 1301 1332 1333
f 1301 1333 1334
f 1334 1335 1301
f 1301 1335 1336
f 1301 1336 1299
f 1337 1338 1339
f 1324 1310 1300
f 1300 1310 1340
f 1300 1340 1341
f 1341 1342 1300
f 1300 1342 1343
f 1300 1343 1312
f 1313 1344 1300
f 1300 1344 1345
f 1300 1345 1301
f 1346 1347 1294
f 1294 1347 1348
f 1294 1348 1349
f 1349 1350 1294
f 1294 1350 1351
f 1294 1351 1352
f 1305 1353 1316
f 1316 1353 1354
f 1316 1354 1355
f 1321 1356 722
f 722 1356 1357
f 722 1357 1358
f 1298 1359 1327
f 1327 1359 1360
f 1327 1360 1361
f 1331 1362 1298
f 1298 1362 1363
f 1298 1363 1364
f 1364 1365 1298
f 1298 1365 1366
f 1298 1366 1367
f 1367 1368 1298
f 1298 1368 1369
f 1298 1369 1370
f 1370 1371 1298
f 1298 1371 1372
f 1298 1372 1297
f 1352 1373 1294
f 1294 1373 1374
f 1294 1374 722
f 722 1374 1375
f 722 1375 1302
f 1314 1376 1305
f 1305 1376 1377
f 1305 1377 722
f 722 1377 1378
f 722 1378 1317
f 1358 1379 722
f 722 1379 1380
f 722 1380 705
f 705 1380 1381
f 705 1381 1322
f 1361 1382 1327
f 1327 1382 1383
f 1327 1383 1384
f 1385 1386 1387
f 1309 1311 1339
f 1339 1311 1388
f 1339 1388 1389
f 1355 1390 1316
f 1316 1390 1391
f 1316 1391 1392
f 1392 1391 1393
f 1392 1393 1394
f 1395 1327 1387
f 1387 1327 1384
f 1387 1384 1385
f 1385 1384 1396
f 1389 1397 1339
f 1339 1397 1398
f 1339 1398 1337
f 1399 1400 1401
f 1401 1400 1402
f 1403 1060 1404
f 1404 1060 15
f 1404 15 1405
f 1405 15 767
f 1405 767 1406
f 1406 767 875
f 1407 1408 875
f 875 1408 1409
f 1403 1410 1411
f 1402 875 1412
f 1412 875 1060
f 1412 1060 1413
f 1413 1060 1414
f 1409 1415 875
f 875 1415 1416
f 875 1416 1417
f 1060 1418 1419
f 1420 1421 875
f 875 1421 1422
f 875 1422 1423
f 1423 1424 875
f 875 1424 1425
f 875 1425 1407
f 1417 1426 875
f 875 1426 1427
f 875 1427 1406
f 1411 1428 1403
f 1403 1428 1429
f 1403 1429 1430
f 1430 1431 1403
f 1403 1431 1432
f 1403 1432 1060
f 1060 1432 1433
f 1060 1433 1418
f 1419 1434 1060
f 1060 1434 1435
f 1060 1435 1414
f 1402 1400 875
f 875 1400 1436
f 875 1436 1420
f 776 1437 778
f 778 1437 1438
f 778 1438 779
f 779 1438 878
f 779 878 891
f 891 878 890
f 247 1066 248
f 248 1066 1067
f 248 1067 155
f 155 1067 1068
f 155 1068 157
f 157 1068 1069
f 157 1069 295
f 295 1069 363
f 295 363 280
f 280 363 362
f 280 362 337
f 42 1439 252
f 252 1439 1440
f 252 1440 247
f 247 1440 1441
f 247 1441 1442
f 1053 1052 1065
f 1065 1052 1066
f 1065 1066 1064
f 1064 1066 247
f 1064 247 55
f 55 247 1442
f 55 1442 1443
f 42 1444 1445
f 42 1445 1439
f 1439 1445 1446
f 1439 1446 1447
f 1443 1448 55
f 55 1448 1449
f 55 1449 1450
f 1451 1452 42
f 42 1452 1453
f 42 1453 1454
f 1454 1455 42
f 42 1455 1456
f 42 1456 1444
f 1450 1457 55
f 55 1457 1458
f 55 1458 1459
f 1460 1461 42
f 42 1461 1462
f 42 1462 1451
f 1459 1463 55
f 55 1463 1464
f 55 1464 1465
f 1465 1466 55
f 55 1466 1467
f 55 1467 42
f 42 1467 1468
f 42 1468 1460
