v 0.116395412 0.0824400735 0.0266601441
v 0.11638826 0.0824472261 0.0266601441
v 0.11639422 0.0824530673 0.0267352459
v 0.116434632 0.0824934793 0.0268465874
v 0.116447268 0.0825061155 0.0268650648
v 0.116441785 0.0824864459 0.0268464682
v 0.116454421 0.0824990821 0.0268650648
v 0.116440473 0.0824852538 0.0268446801
v 0.116416155 0.0824608159 0.0267931816
v 0.116409002 0.0824679685 0.0267931816
v 0.116401254 0.082446034 0.0267352459
v 0.116596042 0.0826550079 0.0269429085
v 0.116603194 0.0826478553 0.0269429085
v 0.116588174 0.0826329541 0.026942074
v 0.11658114 0.0826399875 0.0269424317
v 0.116583525 0.082628305 0.0269418356
v 0.116529523 0.0825884891 0.0269307492
v 0.116536795 0.0825815749 0.0269294379
v 0.116532741 0.0825775218 0.026928365
v 0.116484462 0.0825433088 0.0269041655
v 0.116486011 0.0825307918 0.0268990395
v 0.116491972 0.0825367523 0.026902735
v 0.11665362 0.0827124667 0.0269339678
v 0.116744576 0.0828034234 0.026864588
v 0.11675161 0.0827963901 0.026864588
v 0.116743265 0.0827880454 0.0268732903
v 0.116714655 0.082759316 0.0269032118
v 0.116697846 0.0827566934 0.0269111988
v 0.116736828 0.0827956748 0.0268744824
v 0.116704284 0.082749064 0.0269090531
v 0.116664468 0.0827092481 0.0269317028
v 0.116660534 0.0827053142 0.0269324181
v 0.0884528741 0.118729408 0.0276378987
v 0.0884460791 0.118722136 0.0276377795
v 0.0884460791 0.118722017 0.0276378987
v 0.0884535893 0.118728693 0.0276406405
v 0.0884507283 0.118717368 0.0276978609
v 0.0884578809 0.118724401 0.0276978609
v 0.088434039 0.118734057 0.027590811
v 0.0884410724 0.11874121 0.027590811
v 0.0884338006 0.118734295 0.0275903342
v 0.0884409531 0.118741329 0.0275903342
v 0.088420926 0.118761356 0.0275478957
v 0.088413535 0.11875468 0.027547538
v 0.0884205684 0.118761714 0.027547538
v 0.0884131774 0.118755038 0.0275467036
v 0.0883848056 0.11878329 0.0275102255
v 0.0883918389 0.118790443 0.0275103447
v 0.0883840903 0.118784006 0.0275093911
v 0.0883910045 0.118791277 0.0275091526
v 0.0883346185 0.118833597 0.0274702904
v 0.08833891 0.118843372 0.0274687407
v 0.0883318766 0.118836219 0.0274687407
v 0.0884240254 0.11874419 0.027834594
v 0.0884310588 0.118751223 0.027834594
v 0.0884392842 0.118742998 0.0278150437
v 0.0884403571 0.118727739 0.0277883408
v 0.0884464368 0.118735845 0.027787864
v 0.0884407147 0.118727381 0.0277872679
v 0.0884527549 0.118729527 0.0277635453
v 0.0884490594 0.118719037 0.027736604
v 0.0884550198 0.118727262 0.027734935
v 0.0884491786 0.118718917 0.0277350542
f 1 2 3
f 4 5 6
f 6 5 7
f 6 8 4
f 4 8 9
f 4 9 10
f 10 9 11
f 10 11 3
f 3 11 1
f 12 13 14
f 12 14 15
f 15 14 16
f 15 16 17
f 16 18 17
f 17 18 19
f 17 19 20
f 7 5 21
f 21 5 20
f 21 20 22
f 22 20 19
f 13 12 23
f 24 25 26
f 27 28 26
f 26 28 29
f 26 29 24
f 27 30 28
f 28 30 31
f 28 31 23
f 23 31 32
f 23 32 13
f 33 34 35
f 33 35 36
f 36 35 37
f 36 37 38
f 34 33 39
f 39 33 40
f 39 40 41
f 40 42 41
f 41 42 43
f 41 43 44
f 44 43 45
f 44 45 46
f 46 45 47
f 47 45 48
f 47 48 49
f 49 48 50
f 49 50 51
f 51 50 52
f 51 52 53
f 54 55 56
f 54 56 57
f 57 56 58
f 57 58 59
f 59 58 60
f 59 60 61
f 61 60 62
f 61 62 63
f 63 62 38
f 63 38 37
