v 0.0780292138 0.110273297 0.0318999884
v 0.0631844386 0.125118072 0.0318999884
v 0.0631894454 0.125123079 0.031743109
v 0.0780342206 0.110278304 0.031743109
v 0.0632539376 0.125187452 0.0313220618
v 0.0780987128 0.110342796 0.0313220618
v 0.0633892402 0.125322754 0.0309359429
v 0.0782338961 0.110477979 0.0309359429
v 0.0635870084 0.125520642 0.0306082365
v 0.0784317836 0.110675867 0.0306082365
v 0.0638355597 0.125769074 0.0303589699
v 0.0786803349 0.110924299 0.0303589699
v 0.0641195163 0.12605315 0.0302030442
v 0.0789642915 0.111208375 0.0302030442
v 0.0644219502 0.126355464 0.030149996
v 0.0792667254 0.111510689 0.030149996
v 0.064724265 0.126657779 0.0302030442
v 0.0795690402 0.111813123 0.0302030442
v 0.0650083407 0.126941855 0.0303589699
v 0.0798529967 0.11209708 0.0303589699
v 0.0652567729 0.127190287 0.0306082365
v 0.0801015481 0.112345631 0.0306082365
v 0.0654546603 0.127388175 0.0309359429
v 0.0802994355 0.112543519 0.0309359429
v 0.0655899628 0.127523477 0.0313220618
v 0.0804346188 0.112678702 0.0313220618
v 0.0656543359 0.127587969 0.031743109
v 0.0804991111 0.112743194 0.031743109
v 0.0656593427 0.127592976 0.0318999884
v 0.0805041179 0.112748201 0.0318999884
v 0.0656543359 0.127587969 0.0320568678
v 0.0804991111 0.112743194 0.0320568678
v 0.0655899628 0.127523477 0.0324780342
v 0.0804346188 0.112678702 0.0324780342
v 0.0654546603 0.127388175 0.0328640339
v 0.0802994355 0.112543519 0.0328640339
v 0.0652567729 0.127190287 0.0331917403
v 0.0801015481 0.112345631 0.0331917403
v 0.0650083407 0.126941855 0.0334410069
v 0.0798529967 0.11209708 0.0334410069
v 0.064724265 0.126657779 0.0335969326
v 0.0795690402 0.111813123 0.0335969326
v 0.0644219502 0.126355464 0.0336499808
v 0.0792667254 0.111510689 0.0336499808
v 0.0641195163 0.12605315 0.0335969326
v 0.0789642915 0.111208375 0.0335969326
v 0.0638355597 0.125769074 0.0334410069
v 0.0786803349 0.110924299 0.0334410069
v 0.0635870084 0.125520642 0.0331917403
v 0.0784317836 0.110675867 0.0331917403
v 0.0633892402 0.125322754 0.0328640339
v 0.0782338961 0.110477979 0.0328640339
v 0.0632539376 0.125187452 0.0324780342
v 0.0780987128 0.110342796 0.0324780342
v 0.0631894454 0.125123079 0.0320568678
v 0.0780342206 0.110278304 0.0320568678
v 0.0780292138 0.110273297 0.0244000552
v 0.0631844386 0.125118072 0.0244000552
v 0.0631894454 0.125123079 0.0242431757
v 0.0780342206 0.110278304 0.0242431757
v 0.0632539376 0.125187452 0.0238220093
v 0.0780987128 0.110342796 0.0238220093
v 0.0633892402 0.125322754 0.0234358904
v 0.0782338961 0.110477979 0.0234358904
v 0.0635870084 0.125520642 0.0231083033
v 0.0784317836 0.110675867 0.0231083033
v 0.0638355597 0.125769074 0.0228589175
v 0.0786803349 0.110924299 0.0228589175
v 0.0641195163 0.12605315 0.0227029917
v 0.0789642915 0.111208375 0.0227029917
v 0.0644219502 0.126355464 0.0226499436
v 0.0792667254 0.111510689 0.0226499436
v 0.064724265 0.126657779 0.0227029917
v 0.0795690402 0.111813123 0.0227029917
v 0.0650083407 0.126941855 0.0228589175
v 0.0798529967 0.11209708 0.0228589175
v 0.0652567729 0.127190287 0.0231083033
v 0.0801015481 0.112345631 0.0231083033
v 0.0654546603 0.127388175 0.0234358904
v 0.0802994355 0.112543519 0.0234358904
v 0.0655899628 0.127523477 0.0238220093
v 0.0804346188 0.112678702 0.0238220093
v 0.0656543359 0.127587969 0.0242431757
v 0.0804991111 0.112743194 0.0242431757
v 0.0656593427 0.127592976 0.0244000552
v 0.0805041179 0.112748201 0.0244000552
v 0.0656543359 0.127587969 0.0245568154
v 0.0804991111 0.112743194 0.0245568154
v 0.0655899628 0.127523477 0.0249779818
v 0.0804346188 0.112678702 0.0249779818
v 0.0654546603 0.127388175 0.0253641007
v 0.0802994355 0.112543519 0.0253641007
v 0.0652567729 0.127190287 0.0256916878
v 0.0801015481 0.112345631 0.0256916878
v 0.0650083407 0.126941855 0.0259410736
v 0.0798529967 0.11209708 0.0259410736
v 0.064724265 0.126657779 0.0260969994
v 0.0795690402 0.111813123 0.0260969994
v 0.0644219502 0.126355464 0.0261500475
v 0.0792667254 0.111510689 0.0261500475
v 0.0641195163 0.12605315 0.0260969994
v 0.0789642915 0.111208375 0.0260969994
v 0.0638355597 0.125769074 0.0259410736
v 0.0786803349 0.110924299 0.0259410736
v 0.0635870084 0.125520642 0.0256916878
v 0.0784317836 0.110675867 0.0256916878
v 0.0633892402 0.125322754 0.0253641007
v 0.0782338961 0.110477979 0.0253641007
v 0.0632539376 0.125187452 0.0249779818
v 0.0780987128 0.110342796 0.0249779818
v 0.0631894454 0.125123079 0.0245568154
v 0.0780342206 0.110278304 0.0245568154
v 0.0863377436 0.11228853 0.0284499523
v 0.0863377436 0.11228853 0.0286499855
v 0.0858780726 0.111828978 0.0284499523
v 0.0858780726 0.111828978 0.0286499855
v -0.0014906541 0.0902141881 0.0145999787
v -0.0014136449 0.0896719051 0.0145999787
v -0.0014906541 0.0902141881 0.0136000511
v -0.00135892784 0.0894313407 0.0136000511
v 0.00349026764 0.0856500221 0.0145999787
v 0.00349026764 0.0856500221 0.0136000511
v 0.00269931401 0.0857185674 0.0145999787
v 0.00269883717 0.0857130838 0.0136000511
v 0.00262302006 0.0857251239 0.0145999787
v 0.00157970036 0.0860294652 0.0136000511
v 0.00178354824 0.0859503103 0.0145999787
v 0.0015853032 0.0860413862 0.0145999787
v 0.00103503311 0.0862943483 0.0145999787
v 0.000563918002 0.0865958286 0.0136000511
v 0.00057428921 0.0866108489 0.0145999787
v 0.000305114635 0.0867958617 0.0145999787
v -0.000293435208 0.087381537 0.0136000511
v -0.00029140865 0.0873835635 0.0145999787
v -0.00031656181 0.0874083591 0.0145999787
v -0.000946225278 0.0883440328 0.0136000511
v -0.000815810315 0.0881087137 0.0145999787
v -0.00134533798 0.0894352746 0.0145999787
v -0.00118070995 0.0888652158 0.0145999787
v -0.000932516209 0.0883505893 0.0145999787
v 0.0859276637 0.11986881 0.0260285733
v 0.0859468564 0.119888003 0.0260211823
v 0.085911332 0.119852479 0.0260025856
v 0.0859488829 0.119890029 0.0260203478
v 0.0859505519 0.119891579 0.0260201094
v 0.0854938611 0.119435008 0.0257725117
v 0.0854938611 0.119435008 0.0262677071
v 0.0858433827 0.119784529 0.0259693262
v 0.0858420714 0.119783218 0.0260691044
v 0.0858730658 0.119814212 0.0259838698
v 0.0858733043 0.119814451 0.0260536072
v 0.085911332 0.119852479 0.0260348913
v 0.0854938611 0.119435008 0.0585584042
v 0.0855645522 0.119364197 0.0585584042
v 0.0858420714 0.119783218 0.0583598015
v 0.0859127625 0.119712527 0.0583598015
v 0.0859505519 0.119891579 0.0583108065
v 0.086021243 0.119820888 0.0583108065
v 0.085911332 0.119852479 0.0582932827
v 0.0859820231 0.119781668 0.0582932827
v 0.0854663237 0.119266088 0.0513522026
v 0.0853956326 0.119336779 0.0513522026
v 0.0853859767 0.119327123 0.0513375399
v 0.0854229316 0.119222577 0.0512737629
v 0.0853539094 0.119295056 0.051272094
v 0.0854229316 0.119222577 0.0512736437
v 0.0853409156 0.119281943 0.0512455103
v 0.0853890761 0.119188721 0.05117017
v 0.0853210076 0.119262154 0.0511688587
v 0.0853887185 0.119188364 0.0511692164
v 0.0853074178 0.119248564 0.0511162875
v 0.0853663071 0.119166071 0.0510074494
v 0.0852991923 0.11924022 0.0510069725
v 0.0853660687 0.119165833 0.0510057804
v 0.0852932319 0.119234378 0.0509287712
v 0.085363923 0.119163687 0.0509287712
v 0.0859970435 0.119796808 0.0513519642
v 0.0859263524 0.119867499 0.0513519642
v 0.0859178885 0.119858916 0.0513636467
v 0.0859441146 0.11974376 0.0514125225
v 0.085870324 0.119811351 0.0514126417
v 0.0859418496 0.119741495 0.0514141915
v 0.0858564957 0.119797642 0.0514268277
v 0.085882245 0.11968189 0.0514559147
v 0.0857999905 0.119741137 0.0514584181
v 0.0858711585 0.119670923 0.0514597294
v 0.0857778176 0.119718964 0.0514708159
v 0.0858001098 0.119599755 0.0514842865
v 0.0857155904 0.119656737 0.0514813063
v 0.0857867583 0.119586403 0.0514854786
v 0.0856611117 0.119602258 0.0514904854
v 0.0857318028 0.119531448 0.0514904854
v 0.0856143817 0.119414146 0.0514706967
v 0.0855920895 0.119533236 0.0514841673
v 0.0855441674 0.119485314 0.0514677164
v 0.0856141433 0.119413908 0.0514706967
v 0.0855101928 0.119451339 0.0514559147
v 0.0855407103 0.119340475 0.0514295695
v 0.0854704961 0.119411643 0.051428139
v 0.0855358228 0.119335468 0.0514268277
v 0.0854484423 0.11938947 0.051412761
v 0.0854818209 0.119281585 0.0513712761
v 0.0854116067 0.119352753 0.0513705609
v 0.0854751452 0.11927479 0.0513642428
v 0.0859140738 0.119713838 0.0375192759
v 0.0858433827 0.119784529 0.0375192759
v 0.0858730658 0.119814212 0.0375338194
v 0.0859437569 0.119743521 0.0375338194
v 0.085911332 0.119852479 0.0375525353
v 0.0859820231 0.119781668 0.0375525353
v 0.0859820231 0.119781668 0.037584841
v 0.085911332 0.119852479 0.037584841
v 0.0858733043 0.119814451 0.0376036761
v 0.0859439954 0.11974376 0.0376036761
v 0.0858420714 0.119783218 0.0376190541
v 0.0859127625 0.119712527 0.0376190541
v 0.118649898 0.0885183168 0.0311898587
v 0.118643938 0.088524158 0.0312648413
v 0.118651091 0.0885311914 0.0312648413
v 0.118653832 0.0885284496 0.0312123892
v 0.118658124 0.088524158 0.0311902163
v 0.118649898 0.0885183168 0.0311897394
v 0.11866468 0.0885034156 0.0311318037
v 0.118665753 0.0885165286 0.0311504004
v 0.118672667 0.0885096145 0.031132519
v 0.118684231 0.0884980512 0.0311021206
v 0.118689118 0.0884790969 0.0310804245
v 0.118698178 0.0884841037 0.0310794709
v 0.11869031 0.0884777856 0.0310785172
v 0.118710099 0.088472302 0.0310599205
v 0.118702947 0.0884651494 0.0310599205
v 0.118649898 0.0885183168 0.0301799176
v 0.118643938 0.088524158 0.0302549002
v 0.118651091 0.0885311914 0.0302549002
v 0.118653832 0.0885284496 0.0302025673
v 0.118658124 0.088524158 0.0301803944
v 0.11866468 0.0885034156 0.0301219818
v 0.118665753 0.0885165286 0.0301405785
v 0.118672667 0.0885096145 0.0301225779
v 0.118684231 0.0884980512 0.0300922987
v 0.118689118 0.0884790969 0.0300704834
v 0.118698178 0.0884841037 0.0300695298
v 0.11869031 0.0884777856 0.0300686953
v 0.118710099 0.088472302 0.0300499794
v 0.118702947 0.0884651494 0.0300499794
v 0.119391142 0.0877769542 0.0292990801
v 0.119399248 0.087768848 0.0291997788
v 0.119403301 0.0877789808 0.0292630789
v 0.119406281 0.0877760005 0.0291997788
v 0.119396864 0.0877854181 0.0292986033
v 0.11939138 0.0877909017 0.0293284056
v 0.11937791 0.0877901864 0.0293474791
v 0.119384347 0.087797935 0.0293470022
v 0.119377552 0.0877905441 0.0293489096
v 0.119360982 0.0878071142 0.029382765
v 0.119377075 0.0878052068 0.0293665526
v 0.119367419 0.0878148628 0.0293819306
v 0.119340835 0.0878273797 0.029407799
v 0.119357882 0.0878243995 0.0293969509
v 0.119347511 0.0878347707 0.0294069645
v 0.119339524 0.0878285718 0.0294093487
v 0.119315086 0.0878530097 0.0294271109
v 0.119334041 0.0878482414 0.0294198391
v 0.119321881 0.0878604007 0.029426038
v 0.119313537 0.0878546787 0.029428303
v 0.119282781 0.0878854347 0.0294386742
v 0.119289933 0.0878923488 0.0294383166
v 0.119253455 0.0879288268 0.029443681
v 0.119246302 0.0879217935 0.029443681
v 0.1193009 0.0878813815 0.0294366476
v 0.119274436 0.0878937793 0.029441416
v 0.119218765 0.0879635167 0.0235193369
v 0.119211732 0.0879563642 0.0235193369
v 0.118869244 0.0883130384 0.0233225224
v 0.11886221 0.0883058858 0.0233225224
v 0.0901607856 0.117021496 0.0622333882
v 0.090153633 0.117014463 0.0622333882
v 0.0905089959 0.116673286 0.0620347855
v 0.0905018433 0.116666253 0.0620347855
v 0.0905103072 0.116671975 0.0398942826
v 0.0905031546 0.116664941 0.0398942826
v 0.0901607856 0.117021496 0.039697468
v 0.090153633 0.117014463 0.039697468
v 0.0906174764 0.116564925 0.0276451704
v 0.0906103238 0.116557772 0.0276451704
v 0.0905782565 0.116604025 0.0276275275
v 0.0905711039 0.116596992 0.0276275275
v 0.112463294 0.0975616527 0.044390857
v 0.112463294 0.0975616527 0.0442549584
v 0.111638723 0.0983861041 0.044390857
v 0.111553131 0.0984716964 0.0442549584
v 0.111638723 0.0983861041 0.0449988243
v 0.111553131 0.0984716964 0.0449988243
v 0.118821083 0.0883471322 0.0333991644
v 0.118821083 0.0883471322 0.0340653059
v 0.118891655 0.0882765603 0.033933222
v 0.11885172 0.0883163762 0.0332669613
v 0.118891655 0.0882765603 0.0334009526
v 0.118875323 0.088292892 0.0332681534
v 0.118875442 0.0882926536 0.0332681534
v 0.11866027 0.0885078264 0.0340200064
v 0.118716536 0.0884516788 0.0339387057
v 0.118630348 0.0885377479 0.0339763758
v 0.11868125 0.0884868455 0.0338816044
v 0.118594585 0.0885736299 0.03389734
v 0.118628798 0.0885392976 0.0339729187
v 0.118578015 0.0885902 0.0335476992
v 0.118565498 0.088602717 0.0336492655
v 0.118642627 0.0885254693 0.033691108
v 0.11856526 0.0886029554 0.0336511729
v 0.118564306 0.088603909 0.033691108
v 0.118647753 0.0885203433 0.0337638256
v 0.118572412 0.0885956836 0.0338048336
v 0.11864811 0.0885199857 0.0337696669
v 0.118572412 0.0885956836 0.0338049528
v 0.118664561 0.0885035348 0.0338401196
v 0.118681131 0.0884869647 0.0338814852
v 0.118650733 0.0885173631 0.0335895417
v 0.118650733 0.0885173631 0.0335893032
v 0.118578373 0.0885897231 0.0335463879
v 0.118666826 0.0885013891 0.0335306523
v 0.118605076 0.0885630203 0.0334587691
v 0.118668495 0.0884996009 0.033524215
v 0.118606029 0.0885621858 0.0334571001
v 0.118687211 0.0884810043 0.0334861872
v 0.118646918 0.0885211778 0.0333819983
v 0.11868733 0.0884808851 0.0334859488
v 0.118662773 0.088505323 0.0333614943
v 0.118712364 0.0884557319 0.0334531662
v 0.118667661 0.0885004354 0.033355057
v 0.118716656 0.0884514404 0.0334498284
v 0.118713437 0.0884547782 0.0333119032
v 0.118749915 0.088418181 0.0334234831
v 0.118718205 0.0884500099 0.0333093998
v 0.118752299 0.088415916 0.0334226486
v 0.118777572 0.0883905244 0.0332785246
v 0.118807612 0.0883604837 0.0334015486
v 0.118777691 0.0883905244 0.0332784054
v 0.118811069 0.0883570266 0.0334009526
v 0.118990003 0.0881780935 0.0340196488
v 0.118941365 0.0882267309 0.0339196322
v 0.118922649 0.0882454467 0.0340532658
v 0.11892253 0.0882456851 0.034053385
v 0.118943272 0.0882248235 0.0332859156
v 0.118958174 0.0882100416 0.0334261057
v 0.119001327 0.0881667686 0.0333227513
v 0.118958293 0.0882098031 0.0334261057
v 0.119001566 0.0881665302 0.0333229897
v 0.118994413 0.0881736827 0.0334555504
v 0.11905676 0.0881114555 0.0333836672
v 0.118998228 0.088169868 0.0334586499
v 0.119073807 0.0880944085 0.0334092972
v 0.119018374 0.0881497217 0.0334869025
v 0.119074164 0.0880940509 0.0334098933
v 0.119024812 0.0881434036 0.0334958432
v 0.119111 0.088057096 0.0334873793
v 0.119039594 0.0881285024 0.0335306523
v 0.119044004 0.0881240917 0.0335411427
v 0.119132458 0.0880356384 0.0335705874
v 0.119053541 0.0881145549 0.0335827467
v 0.119132458 0.0880356384 0.0335708258
v 0.119049369 0.0881187272 0.0339658854
v 0.118979631 0.0881884647 0.0338959095
v 0.118994532 0.0881736827 0.0340173838
v 0.118979512 0.0881887031 0.0338960287
v 0.118941842 0.088226254 0.0339192745
v 0.119055925 0.0881121707 0.0335933564
v 0.11906117 0.0881070447 0.0336667893
v 0.119140564 0.0880276513 0.0336716769
v 0.119061528 0.0881066871 0.0336716769
v 0.11913663 0.0880315852 0.0337322352
v 0.119055687 0.0881125284 0.0337472555
v 0.119134842 0.0880333734 0.0337594149
v 0.119121848 0.088046248 0.0338186619
v 0.119042216 0.0881258798 0.0338005421
v 0.119117676 0.0880504203 0.0338377354
v 0.119041739 0.0881264758 0.0338018534
v 0.119092999 0.0880752158 0.0338975785
v 0.119023858 0.0881443572 0.0338416693
v 0.119089185 0.0880789113 0.0339065192
v 0.119020759 0.0881473375 0.0338465569
v 0.119012295 0.0881558013 0.0338599083
v 0.113266645 0.0939297033 0.0783205626
v 0.1133036 0.0938928676 0.0782828924
v 0.113261758 0.0939347101 0.0781803725
v 0.113447247 0.0937492204 0.0783068535
v 0.113430677 0.0937657905 0.0783410666
v 0.113521157 0.0936753106 0.0783841011
v 0.113500176 0.0936962915 0.0784251091
v 0.113218842 0.0939776254 0.0782212612
v 0.113182245 0.0940142226 0.0782788393
v 0.113236128 0.0939603401 0.0783705113
v 0.113171636 0.0940248323 0.0783023236
v 0.113227187 0.0939692807 0.0783924458
v 0.113146602 0.0940498662 0.0783827898
v 0.113214551 0.0939817977 0.0784422753
v 0.1131348 0.0940616679 0.0784747002
v 0.113209544 0.0939869237 0.0785092709
v 0.113133727 0.0940627408 0.0785148737
v 0.113464175 0.0937322927 0.0782819388
v 0.11353427 0.0936621976 0.0783686039
v 0.113491355 0.093705113 0.0782559511
v 0.113520919 0.0936754298 0.0782408116
v 0.113546072 0.0936503959 0.0783601401
v 0.113559066 0.0936374021 0.0782348511
v 0.113415776 0.0937805724 0.0783826706
v 0.113405405 0.0937910629 0.0784223673
v 0.11346799 0.0937283588 0.0785415766
v 0.113394438 0.0938020301 0.0784714815
v 0.113456784 0.0937395644 0.0785941479
v 0.113374768 0.0938216996 0.0785610077
v 0.113445817 0.0937506509 0.0786376593
v 0.113364993 0.0938313556 0.0785970089
v 0.11343032 0.0937660289 0.0786834357
v 0.113355456 0.0938410116 0.0786245463
v 0.113413273 0.093783195 0.0787208674
v 0.113344251 0.0938522172 0.0786462424
v 0.113390861 0.0938054872 0.0787549612
v 0.113332091 0.0938643766 0.0786607859
v 0.11336392 0.0938325477 0.0787807104
v 0.113319336 0.093877132 0.078669965
v 0.113334833 0.0938616348 0.0787956116
v 0.113303243 0.0938932252 0.0786755678
v 0.113298355 0.0938981128 0.0788013336
v 0.113292514 0.0939039541 0.0786765215
v 0.113256989 0.0939393592 0.0787960884
v 0.113270818 0.0939255309 0.0786733029
v 0.113223968 0.0939724994 0.0787819025
v 0.113255082 0.0939412666 0.0786653158
v 0.113196431 0.0940000367 0.0787591336
v 0.113242446 0.093954022 0.0786536333
v 0.113174854 0.0940216136 0.0787294504
v 0.11323124 0.0939651084 0.0786367056
v 0.113156615 0.0940398526 0.0786884424
v 0.113226949 0.0939695192 0.0786274073
v 0.113141833 0.0940545154 0.0786280033
v 0.113218246 0.0939782214 0.0786001084
v 0.113210617 0.0939858508 0.0785452721
v 0.113570748 0.0936256004 0.0786626932
v 0.113620458 0.0935760093 0.0787541268
v 0.113600312 0.0935961557 0.0786249039
v 0.113659202 0.0935372663 0.0787040589
v 0.113619147 0.0935772014 0.0785852072
v 0.113685547 0.093510921 0.0786487458
v 0.113630114 0.0935663533 0.0785428879
v 0.113702951 0.0934935165 0.0785813925
v 0.113634168 0.0935623002 0.0784927008
v 0.113709985 0.0934864831 0.0784927008
v 0.113631307 0.0935651613 0.0784437058
v 0.113703428 0.0934929204 0.0784084198
v 0.113623916 0.093572433 0.0784090159
v 0.113688765 0.0935077024 0.0783502457
v 0.113616167 0.0935801816 0.0783900616
v 0.113670646 0.0935258222 0.0783098337
v 0.113606749 0.0935895992 0.0783758757
v 0.113646446 0.0935500217 0.0782753823
v 0.113595782 0.0936005664 0.0783657429
v 0.113620578 0.0935758901 0.0782528517
v 0.113582073 0.0936143947 0.0783588288
v 0.113589702 0.0936067653 0.0782389042
v 0.113563 0.0936334682 0.0783559677
v 0.113557397 0.093639071 0.0783563254
v 0.113266645 0.0939297033 0.0775453446
v 0.1133036 0.0938928676 0.0775077936
v 0.113261758 0.0939347101 0.0774051544
v 0.113447247 0.0937492204 0.0775317547
v 0.113430677 0.0937657905 0.0775658486
v 0.113521157 0.0936753106 0.0776088831
v 0.113500176 0.0936962915 0.0776498911
v 0.113218842 0.0939776254 0.0774461624
v 0.113182245 0.0940142226 0.0775036213
v 0.113236128 0.0939603401 0.0775954125
v 0.113171636 0.0940248323 0.0775271056
v 0.113227187 0.0939692807 0.077617347
v 0.113146602 0.0940498662 0.0776075718
v 0.113214551 0.0939817977 0.0776671765
v 0.1131348 0.0940616679 0.0776994822
v 0.113209544 0.0939869237 0.0777341721
v 0.113133727 0.0940627408 0.0777396557
v 0.113464175 0.0937322927 0.0775067208
v 0.11353427 0.0936621976 0.0775933859
v 0.113491355 0.093705113 0.0774807331
v 0.113520919 0.0936754298 0.0774655936
v 0.113546072 0.0936503959 0.0775849221
v 0.113559066 0.0936374021 0.0774597523
v 0.113415776 0.0937805724 0.0776074526
v 0.113405405 0.0937910629 0.0776471493
v 0.11346799 0.0937283588 0.0777663586
v 0.113394438 0.0938020301 0.0776962635
v 0.113456784 0.0937395644 0.0778189299
v 0.113374768 0.0938216996 0.0777859089
v 0.113445817 0.0937506509 0.0778624413
v 0.113364993 0.0938313556 0.0778219101
v 0.11343032 0.0937660289 0.0779082176
v 0.113355456 0.0938410116 0.0778493283
v 0.113413273 0.093783195 0.0779456494
v 0.113344251 0.0938522172 0.0778710244
v 0.113390861 0.0938054872 0.0779797432
v 0.113332091 0.0938643766 0.0778855679
v 0.11336392 0.0938325477 0.0780054924
v 0.113319336 0.093877132 0.077894747
v 0.113334833 0.0938616348 0.0780203936
v 0.113303243 0.0938932252 0.0779003498
v 0.113298355 0.0938981128 0.0780261156
v 0.113292514 0.0939039541 0.0779013035
v 0.113256989 0.0939393592 0.0780208704
v 0.113270818 0.0939255309 0.0778980849
v 0.113223968 0.0939724994 0.0780066845
v 0.113255082 0.0939412666 0.0778900978
v 0.113196431 0.0940000367 0.0779839155
v 0.113242446 0.093954022 0.0778784153
v 0.113174854 0.0940216136 0.0779542324
v 0.11323124 0.0939651084 0.0778616068
v 0.113156615 0.0940398526 0.0779132244
v 0.113226949 0.0939695192 0.0778521893
v 0.113141833 0.0940545154 0.0778527853
v 0.113218246 0.0939782214 0.0778248904
v 0.113210617 0.0939858508 0.0777700541
v 0.113570748 0.0936256004 0.0778874752
v 0.113620458 0.0935760093 0.0779789088
v 0.113600312 0.0935961557 0.0778496859
v 0.113659202 0.0935372663 0.0779288409
v 0.113619147 0.0935772014 0.0778099892
v 0.113685547 0.093510921 0.0778735277
v 0.113630114 0.0935663533 0.0777676699
v 0.113702951 0.0934935165 0.0778061745
v 0.113634168 0.0935623002 0.0777174828
v 0.113709985 0.0934864831 0.0777174828
v 0.113631307 0.0935651613 0.0776684878
v 0.113703428 0.0934929204 0.077633321
v 0.113623916 0.093572433 0.0776337979
v 0.113688765 0.0935077024 0.0775750277
v 0.113616167 0.0935801816 0.0776148436
v 0.113670646 0.0935258222 0.0775347349
v 0.113606749 0.0935895992 0.0776006577
v 0.113646446 0.0935500217 0.0775001643
v 0.113595782 0.0936005664 0.0775905249
v 0.113620578 0.0935758901 0.0774776337
v 0.113582073 0.0936143947 0.0775836108
v 0.113589702 0.0936067653 0.0774636862
v 0.113563 0.0936334682 0.0775807497
v 0.113557397 0.093639071 0.0775812266
v 0.116596042 0.0826550079 0.0279528496
v 0.116603194 0.0826478553 0.0279528496
v 0.116588174 0.0826329541 0.0279520151
v 0.11658114 0.0826399875 0.0279522536
v 0.116583525 0.082628305 0.0279517767
v 0.116529523 0.0825884891 0.0279405711
v 0.116536795 0.0825815749 0.0279392597
v 0.116532741 0.0825775218 0.0279381869
v 0.116484462 0.0825433088 0.0279139874
v 0.116454421 0.0824990821 0.0278750059
v 0.116447268 0.0825061155 0.0278750059
v 0.116486011 0.0825307918 0.0279088614
v 0.116491972 0.0825367523 0.0279125569
v 0.117150603 0.0831953836 0.0290042755
v 0.11714357 0.0832024169 0.0290042755
v 0.117150603 0.0831953836 0.0287252066
v 0.11714357 0.0832024169 0.0287252066
v 0.116411744 0.0824564052 0.0286901591
v 0.116404711 0.0824635577 0.0286901591
v 0.116411744 0.0824564052 0.0290042755
v 0.116404711 0.0824635577 0.0290042755
v 0.116454898 0.082499559 0.030157387
v 0.116447745 0.0825065923 0.030157387
v 0.116418897 0.0824778629 0.0302053091
v 0.116395412 0.0824400735 0.0303587315
v 0.116396366 0.0824411464 0.0303274987
v 0.11638826 0.0824472261 0.0303587315
v 0.116389333 0.082448299 0.0303266642
v 0.116396485 0.0824412656 0.0303266642
v 0.116405664 0.0824504447 0.0302641985
v 0.11639875 0.0824577165 0.0302634833
v 0.116405903 0.0824506831 0.0302634833
v 0.116424499 0.0824692798 0.0302085278
v 0.116426288 0.0824709487 0.0302055476
v 0.116803227 0.0828620744 0.0303587315
v 0.116810261 0.0828550411 0.0303587315
v 0.116808353 0.0828531337 0.0303943751
v 0.116801916 0.0828607631 0.0303944943
v 0.116807519 0.0828522992 0.0304111836
v 0.11679226 0.0828511071 0.0304588673
v 0.11679834 0.0828431201 0.0304585097
v 0.116795598 0.0828403783 0.0304730532
v 0.116772471 0.0828313184 0.0305164454
v 0.11675161 0.0827963901 0.0305631754
v 0.116744576 0.0828034234 0.0305631754
v 0.11677724 0.0828220201 0.0305212138
v 0.116779147 0.0828239274 0.030516207
v 0.116596042 0.0826550079 0.0300806162
v 0.116603194 0.0826478553 0.0300806162
v 0.116611062 0.0826558423 0.0300810931
v 0.116604029 0.0826628757 0.0300808546
v 0.116621672 0.082666452 0.0300815699
v 0.116660891 0.0827197385 0.0300922987
v 0.116667806 0.0827124667 0.0300937292
v 0.116672693 0.0827173543 0.0300949213
v 0.116706549 0.0827653957 0.0301187632
v 0.116751133 0.0827959132 0.0301578638
v 0.1167441 0.0828029466 0.0301578638
v 0.116719542 0.0827643228 0.0301242468
v 0.116713105 0.0827578855 0.0301201937
v 0.116744338 0.0828033042 0.0492019055
v 0.11675149 0.0827961517 0.0492019055
v 0.116742311 0.0827869726 0.0492132304
v 0.116735397 0.0827942443 0.0492134688
v 0.116736828 0.0827816081 0.0492199061
v 0.116699038 0.0827580047 0.0492475626
v 0.116604505 0.0826491666 0.049278557
v 0.116597353 0.0826563192 0.049278557
v 0.116663037 0.0827076984 0.0492694971
v 0.116656004 0.0827148509 0.0492694971
v 0.116706072 0.0827507329 0.049247205
v 0.116704403 0.0827491832 0.0492486355
v 0.116580306 0.0826249671 0.0712612269
v 0.116573153 0.0826321197 0.0712612269
v 0.116580306 0.0826249671 0.0710265038
v 0.116573153 0.0826321197 0.0710265038
v 0.111670195 0.0983405662 0.0425392983
v 0.111677228 0.0983475995 0.0425392983
v 0.11160904 0.0984017206 0.0424198506
v 0.111614047 0.0984107805 0.0424146054
v 0.11160749 0.0984032703 0.0424143669
v 0.11156684 0.0984439206 0.0422698853
v 0.111573754 0.0984510732 0.0422696469
v 0.111566721 0.0984439206 0.0422696469
v 0.111546217 0.0984644246 0.0420522091
v 0.111553131 0.0984716964 0.0420292017
v 0.111546098 0.0984646631 0.0420292017
v 0.11205226 0.0979725671 0.0320958493
v 0.112045227 0.0979654146 0.0320958493
v 0.112377702 0.0976471257 0.0320958493
v 0.112370549 0.0976400924 0.0320958493
v 0.112163363 0.0978614641 0.0253620741
v 0.11215633 0.0978544307 0.0253620741
v 0.111815153 0.0982096744 0.0257454512
v 0.11180812 0.098202641 0.0257454512
v 0.112463294 0.0975616527 0.0205168125
v 0.112456141 0.0975545001 0.0205168125
v 0.111544071 0.0984808755 0.0209427473
v 0.111536919 0.098473723 0.0209427473
v 0.111795603 0.0982293439 0.0209825632
v 0.11178845 0.0982221914 0.0209825632
v 0.111757694 0.0982672525 0.0209686158
v 0.111750542 0.0982600999 0.0209686158
v 0.112184344 0.0978262973 0.0213945505
v 0.112191497 0.0978333307 0.0213945505
v 0.112216173 0.0978086543 0.0213817951
v 0.112209378 0.0978012634 0.0213829872
v 0.112247048 0.0977778983 0.0213686821
v 0.112239896 0.0977707458 0.0213686821
v 0.112279712 0.097745235 0.0213567612
v 0.112272559 0.0977380824 0.0213567612
v 0.111544071 0.0984808755 0.0209649203
v 0.111536919 0.098473723 0.0209649203
v 0.112191497 0.0978333307 0.0213169453
v 0.112184344 0.0978262973 0.0213169453
v 0.0831673726 0.1171084 0.0723120568
v 0.08316022 0.117115552 0.0723120568
v 0.083162485 0.117117698 0.0722802279
v 0.0831667765 0.117122109 0.0722616312
v 0.0831696376 0.117110784 0.0722801087
v 0.0831696376 0.117110665 0.0722802279
v 0.0831729754 0.117128308 0.0722470877
v 0.0831751212 0.117116148 0.0722582934
v 0.0831741675 0.117115314 0.0722617504
v 0.0831907376 0.117131884 0.072233021
v 0.0831877574 0.117128904 0.0722367165
v 0.0831804856 0.117135699 0.0722363589
v 0.0831820353 0.117123182 0.0722437498
v 0.0831803664 0.117121513 0.0722473261
v 0.08319038 0.117145593 0.0722275374
v 0.0831976518 0.117138679 0.0722280142
v 0.0831919297 0.117133076 0.0722321865
v 0.0832040891 0.117159302 0.0722208617
v 0.0832255467 0.117180879 0.0722178814
v 0.0832326993 0.117173727 0.0722178814
v 0.0832199439 0.11716109 0.0722188351
v 0.0832112416 0.117152388 0.0722216961
v 0.0832023009 0.117143447 0.0722245571
v 0.0828335866 0.1167888 0.0699171421
v 0.0828406199 0.116781766 0.0699171421
v 0.0833621606 0.117317374 0.0693184731
v 0.0833639487 0.117305095 0.0693244335
v 0.0833691939 0.11731034 0.0693184731
v 0.0833621606 0.117317374 0.070531666
v 0.0833691939 0.11731034 0.070531666
v 0.0833621606 0.117317374 0.0705112812
v 0.0833691939 0.11731034 0.0705112812
v 0.083049713 0.11699086 0.0703994629
v 0.0830426797 0.116997893 0.0703994629
v 0.0830709323 0.117026145 0.0704001782
v 0.0830779656 0.117019112 0.070400655
v 0.0831080064 0.11706322 0.0704023239
v 0.0831150397 0.117056186 0.0704023239
v 0.0831176623 0.117058809 0.07037276
v 0.083110629 0.117065842 0.07037276
v 0.0830768927 0.117032106 0.0703406927
v 0.0830844029 0.117025549 0.0703397391
v 0.0830517396 0.117007072 0.0703144667
v 0.0830588921 0.117000039 0.0703144667
v 0.0852063283 0.119147475 0.0610309241
v 0.0852770194 0.119076784 0.0610309241
v 0.085944353 0.11988538 0.0610309241
v 0.08610159 0.119901235 0.0610309241
v 0.0860308989 0.119972045 0.0610309241
v 0.0860308989 0.119972045 0.0608211157
v 0.08610159 0.119901235 0.0608211157
v 0.0861164912 0.120057638 0.0608211157
v 0.0861871823 0.119986827 0.0608211157
v 0.0852770194 0.119076784 0.0611694453
v 0.0852063283 0.119147475 0.0611694453
v 0.0861871823 0.119986827 0.0611694453
v 0.085944353 0.11988538 0.0611694453
v 0.0861164912 0.120057638 0.0611694453
v 0.085461317 0.119261081 0.0567132828
v 0.0853906258 0.119331772 0.0567132828
v 0.0854060038 0.119347031 0.0566934941
v 0.085523425 0.11932307 0.0566472409
v 0.0854532107 0.119394357 0.0566485522
v 0.0855335578 0.119333322 0.0566363928
v 0.0854788407 0.119419987 0.0566243527
v 0.0856043681 0.119404132 0.0565947888
v 0.0855337962 0.119474943 0.0565952656
v 0.0856142625 0.119414027 0.0565889475
v 0.08555132 0.119492466 0.0565859673
v 0.0856946095 0.119494255 0.0565709469
v 0.0856240376 0.119565184 0.0565735695
v 0.0857068881 0.119506533 0.0565682051
v 0.0856611117 0.119602258 0.0565672514
v 0.0857318028 0.119531448 0.0565672514
v 0.118564306 0.088603909 0.0755595562
v 0.118571339 0.0886109424 0.0755595562
v 0.118572412 0.0885956836 0.0756726858
v 0.118576227 0.0886060548 0.07564944
v 0.118576585 0.0886056972 0.0756513474
v 0.118580638 0.0886017633 0.075672209
v 0.118572412 0.0885956836 0.0756729243
v 0.118587314 0.0885807824 0.0757330057
v 0.118589102 0.0885931802 0.0757166741
v 0.118595062 0.0885872197 0.0757324097
v 0.11858791 0.0885801864 0.0757353899
v 0.118605314 0.0885627818 0.0757741329
v 0.118607102 0.0885751796 0.0757642386
v 0.118613063 0.0885692191 0.0757734177
v 0.118605433 0.0885626626 0.0757743714
v 0.11862701 0.0885410857 0.0758035776
v 0.118628441 0.0885538411 0.075797498
v 0.118634401 0.0885478807 0.0758031008
v 0.11862856 0.088539536 0.0758057234
v 0.118654548 0.0885135484 0.0758263466
v 0.118654905 0.0885273767 0.0758222935
v 0.118661819 0.0885204625 0.0758257506
v 0.118656455 0.0885117603 0.0758277771
v 0.118687688 0.0884805274 0.0758404133
v 0.118687926 0.0884943557 0.0758387444
v 0.118694721 0.0884875608 0.0758398173
v 0.118689953 0.0884781432 0.075841367
v 0.118735968 0.0884463144 0.0758458969
v 0.118728934 0.088439281 0.0758458969
v 0.118602215 0.0885660005 0.0753470061
v 0.118609248 0.0885730338 0.0753470061
v 0.118601857 0.0885804248 0.0753658411
v 0.118577181 0.0885909152 0.0754274723
v 0.118585764 0.0885965181 0.0754281876
v 0.118577062 0.0885910344 0.07542783
v 0.118579446 0.0886028362 0.0754528639
v 0.118566213 0.0886020017 0.0755195019
v 0.118574439 0.0886079622 0.0755196211
v 0.118576585 0.0886056972 0.0754906533
v 0.118564783 0.088603313 0.0755314228
v 0.118877827 0.0882902694 0.075351536
v 0.11888486 0.088297422 0.075351536
v 0.118879972 0.0883023095 0.0753604767
v 0.11886221 0.0883058858 0.0753865835
v 0.118869601 0.0883126807 0.0753867028
v 0.118852554 0.088315661 0.0754085181
v 0.118853508 0.088328774 0.0754273531
v 0.118846355 0.0883217407 0.0754273531
v 0.118876396 0.0882918191 0.0756823418
v 0.118883429 0.0882988525 0.0756823418
v 0.118893562 0.0882887197 0.0756384728
v 0.118886529 0.0882815671 0.0756384728
v 0.118905722 0.0882765603 0.0755862591
v 0.118898569 0.088269527 0.0755862591
v 0.118914424 0.0882536722 0.052266061
v 0.118921576 0.0882607055 0.052266061
v 0.118967472 0.0882148099 0.0522618887
v 0.118987499 0.0881807161 0.052254617
v 0.118994175 0.088188107 0.0522527096
v 0.118987499 0.0881805969 0.052254617
v 0.119019447 0.0881628347 0.0522440073
v 0.119032918 0.0881351781 0.0522316096
v 0.11904162 0.0881406617 0.0522285101
v 0.119034944 0.0881331516 0.0522298214
v 0.119059025 0.0881232572 0.05221647
v 0.119069396 0.0880987001 0.0521984694
v 0.119078575 0.0881037069 0.052193701
v 0.119072138 0.0880959583 0.0521948931
v 0.119092403 0.0880898786 0.0521778462
v 0.119085251 0.0880828452 0.0521778462
v 0.119058786 0.0881234956 0.0507737992
v 0.119022189 0.0881600929 0.0507369635
v 0.119015036 0.0881530595 0.0507369635
v 0.119044481 0.0881236148 0.0507628319
v 0.11905223 0.0881158662 0.0507726071
v 0.119077025 0.0881052566 0.0507921574
v 0.119085012 0.0880830837 0.0508138535
v 0.119097172 0.0880851102 0.050825536
v 0.119090377 0.0880777192 0.0508249399
v 0.119110285 0.0880719972 0.0508472321
v 0.119114099 0.0880539966 0.0508735773
v 0.119119821 0.0880624605 0.0508744118
v 0.119114457 0.088053639 0.0508744118
v 0.119133411 0.0880488706 0.0509131548
v 0.119132338 0.0880357576 0.0509415266
v 0.11913806 0.0880442214 0.0509418843
v 0.119132696 0.0880355192 0.0509427187
v 0.11914569 0.0880367112 0.0509887335
v 0.119140564 0.0880276513 0.0510380862
v 0.119147597 0.0880346847 0.0510380862
v 0.107480226 0.0997020555 0.0814999935
v 0.10595995 0.0981817794 0.0814999935
v 0.107483564 0.0996987176 0.0814555285
v 0.105963646 0.0981780839 0.0814555285
v 0.107488333 0.0996939493 0.0813935396
v 0.105969725 0.0981720043 0.0813824532
v 0.107502638 0.0996796441 0.0813360808
v 0.105982123 0.0981596065 0.0813360808
v 0.10751742 0.0996648622 0.0812768338
v 0.106000601 0.098141129 0.0812670586
v 0.107541023 0.0996412587 0.0812266466
v 0.106020509 0.0981211019 0.0812266466
v 0.107566057 0.0996162248 0.0811733601
v 0.106050788 0.0980909419 0.0811652539
v 0.107597052 0.0995852304 0.0811336634
v 0.106076656 0.0980650735 0.0811336634
v 0.107630669 0.0995517326 0.0810906288
v 0.106117187 0.0980245424 0.0810840723
v 0.107667266 0.0995150161 0.081062257
v 0.10614699 0.09799474 0.0810626147
v 0.107698499 0.0994837833 0.0810380575
v 0.106191455 0.097950275 0.0810307858
v 0.10774809 0.0994341922 0.0810187456
v 0.106227694 0.0979140353 0.0810188649
v 0.10778278 0.0993995023 0.0810051558
v 0.106277166 0.0978645635 0.0810025332
v 0.107833801 0.0993484807 0.0810036061
v 0.106313406 0.0978283239 0.0810036061
v 0.10787016 0.0993121219 0.0810025332
v 0.106364547 0.0977771831 0.0810051558
v 0.107919513 0.0992627692 0.0810188649
v 0.106399237 0.0977424932 0.0810187456
v 0.107955871 0.0992264104 0.0810307858
v 0.106448828 0.0976929021 0.0810380575
v 0.108000217 0.0991820646 0.0810626147
v 0.10648006 0.0976616693 0.081062257
v 0.108030139 0.0991522622 0.0810840723
v 0.106516658 0.097625072 0.0810906288
v 0.10807067 0.0991116119 0.0811336634
v 0.106550275 0.097591455 0.0811336634
v 0.108096419 0.0990858627 0.0811652539
v 0.106581269 0.0975604606 0.0811733601
v 0.108126698 0.0990555835 0.0812266466
v 0.106606303 0.0975354266 0.0812266466
v 0.108146606 0.0990356756 0.0812670586
v 0.106629907 0.0975118232 0.0812768338
v 0.108165084 0.0990171981 0.0813360808
v 0.106644688 0.0974970413 0.0813360808
v 0.108177482 0.0990048003 0.0813824532
v 0.106658994 0.0974827361 0.0813935396
v 0.10818368 0.0989987207 0.0814555285
v 0.106663643 0.097478087 0.0814555285
v 0.108187376 0.098994906 0.0814999935
v 0.1066671 0.0974746299 0.0814999935
v 0.108183919 0.098998363 0.0815445778
v 0.106663285 0.0974783254 0.0815444586
v 0.10817927 0.0990030122 0.0816064474
v 0.106657205 0.0974845243 0.0816175339
v 0.108164965 0.0990173173 0.0816639063
v 0.106644808 0.097496922 0.0816639063
v 0.108150183 0.0990320993 0.0817232725
v 0.10662633 0.0975153995 0.0817329285
v 0.108126579 0.0990557027 0.0817733404
v 0.106606422 0.0975353074 0.0817733404
v 0.108101545 0.0990807367 0.081826627
v 0.106576143 0.0975655866 0.0818347332
v 0.108070551 0.0991117311 0.0818663237
v 0.106550394 0.0975913358 0.0818663237
v 0.108036934 0.0991453481 0.0819093582
v 0.106509744 0.0976319862 0.0819159148
v 0.108000337 0.0991819454 0.0819377301
v 0.106479941 0.0976617885 0.0819373724
v 0.107969104 0.0992131782 0.0819619295
v 0.106435595 0.0977061343 0.0819693205
v 0.107919513 0.0992627692 0.0819812414
v 0.106399237 0.0977424932 0.0819811222
v 0.107884823 0.0992974592 0.0819948313
v 0.106349884 0.0977918458 0.0819974539
v 0.107833682 0.0993485999 0.081996381
v 0.106313525 0.0978282047 0.081996381
v 0.107797442 0.0993848396 0.0819974539
v 0.106262504 0.0978792262 0.0819948313
v 0.10774797 0.0994343114 0.0819811222
v 0.106227814 0.0979139161 0.0819812414
v 0.107711731 0.099470551 0.0819693205
v 0.106178223 0.0979635072 0.0819619295
v 0.107667266 0.0995150161 0.0819373724
v 0.10614699 0.09799474 0.0819377301
v 0.107637463 0.0995448184 0.0819159148
v 0.106110273 0.0980314565 0.0819093582
v 0.107596932 0.0995853496 0.0818663237
v 0.106076775 0.0980649543 0.0818663237
v 0.107571064 0.099611218 0.0818347332
v 0.106045781 0.0980959487 0.081826627
v 0.107540904 0.0996414972 0.0817733404
v 0.106020747 0.0981209827 0.0817733404
v 0.107520877 0.0996614051 0.0817329285
v 0.105997144 0.0981445861 0.0817232725
v 0.107502399 0.0996798826 0.0816639063
v 0.105982362 0.0981593681 0.0816639063
v 0.107490002 0.0996922803 0.0816175339
v 0.105968057 0.0981736732 0.0816064474
v 0.107483922 0.09969836 0.0815444586
v 0.105963288 0.0981784416 0.0815445778
v 0.093939124 0.110202606 0.0814999935
v 0.0954594001 0.111722882 0.0814999935
v 0.0939357861 0.110205944 0.0814555285
v 0.0954557046 0.111726577 0.0814555285
v 0.0939310178 0.110210712 0.0813935396
v 0.0954496249 0.111732657 0.0813824532
v 0.0939167126 0.110224898 0.0813360808
v 0.0954372271 0.111745055 0.0813360808
v 0.0939019307 0.11023968 0.0812768338
v 0.0954187497 0.111763532 0.0812670586
v 0.0938784465 0.110263283 0.0812266466
v 0.0947522506 0.112430031 0.0814999935
v 0.0932319745 0.110909755 0.0814999935
v 0.0947557076 0.112426574 0.0814555285
v 0.0932357892 0.110905941 0.0814555285
v 0.0947603568 0.112421925 0.0813935396
v 0.0932418689 0.110899861 0.0813824532
v 0.0947746619 0.11240762 0.0813360808
v 0.0932542666 0.110887463 0.0813360808
v 0.0947894439 0.112392838 0.0812768338
v 0.0932727441 0.110868986 0.0812670586
v 0.0948130473 0.112369235 0.0812266466
v 0.093292652 0.110849078 0.0812266466
v 0.0948380812 0.112344201 0.0811733601
v 0.0933229312 0.110818799 0.0811652539
v 0.0948690757 0.112313206 0.0811336634
v 0.0933486804 0.110793049 0.0811336634
v 0.0949026927 0.112279589 0.0810906288
v 0.0933893308 0.110752399 0.0810840723
v 0.0949392899 0.112242992 0.081062257
v 0.0934191331 0.110722597 0.0810626147
v 0.0949705228 0.112211759 0.0810380575
v 0.0934635981 0.110678132 0.0810307858
v 0.0950201138 0.112162168 0.0810187456
v 0.0934998378 0.110641892 0.0810188649
v 0.0950548037 0.112127478 0.0810051558
v 0.0935493096 0.11059242 0.0810025332
v 0.0951059445 0.112076337 0.0810036061
v 0.0935855492 0.110556181 0.0810036061
v 0.0951421841 0.112040098 0.0810025332
v 0.0936365708 0.110505159 0.0810051558
v 0.095191656 0.111990626 0.0810188649
v 0.0936712607 0.110470469 0.0810187456
v 0.0952278956 0.111954386 0.0810307858
v 0.0937208518 0.110420878 0.0810380575
v 0.0952723607 0.111909921 0.0810626147
v 0.0937520846 0.110389645 0.081062257
v 0.095302163 0.111880119 0.0810840723
v 0.0937888011 0.110352929 0.0810906288
v 0.0953426942 0.111839588 0.0811336634
v 0.0938222989 0.110319431 0.0811336634
v 0.0953685626 0.111813719 0.0811652539
v 0.0938532933 0.110288436 0.0811733601
v 0.095388709 0.111793573 0.0812062619
v 0.0953988417 0.11178344 0.0812266466
v 0.0932354316 0.110906298 0.0815445778
v 0.0947560653 0.112426217 0.0815444586
v 0.0932400807 0.110901649 0.0816064474
v 0.0947621449 0.112420137 0.0816175339
v 0.0932543858 0.110887344 0.0816639063
v 0.0947745427 0.112407739 0.0816639063
v 0.0932691678 0.110872562 0.0817232725
v 0.0947930201 0.112389262 0.0817329285
v 0.0932927712 0.110848959 0.0817733404
v 0.0948129281 0.112369354 0.0817733404
v 0.0933178052 0.110823925 0.081826627
v 0.0948432072 0.112339075 0.0818347332
v 0.0933487996 0.11079293 0.0818663237
v 0.0948689565 0.112313325 0.0818663237
v 0.0933824166 0.110759313 0.0819093582
v 0.0949096068 0.112272675 0.0819159148
v 0.0934190139 0.110722716 0.0819377301
v 0.0949394091 0.112242873 0.0819373724
v 0.0934502467 0.110691483 0.0819619295
v 0.0949838742 0.112198408 0.0819693205
v 0.0934998378 0.110641892 0.0819812414
v 0.0950201138 0.112162168 0.0819811222
v 0.0935345277 0.110607202 0.0819948313
v 0.0950695857 0.112112696 0.0819974539
v 0.0935856685 0.110556061 0.081996381
v 0.0951058253 0.112076457 0.081996381
v 0.0936219081 0.110519822 0.0819974539
v 0.0951568469 0.112025435 0.0819948313
v 0.0936713799 0.11047035 0.0819811222
v 0.0951915368 0.111990745 0.0819812414
v 0.0937076196 0.11043411 0.0819693205
v 0.0952411279 0.111941154 0.0819619295
v 0.0937520846 0.110389645 0.0819373724
v 0.0952723607 0.111909921 0.0819377301
v 0.0937818869 0.110359843 0.0819159148
v 0.0953090772 0.111873205 0.0819093582
v 0.0938224181 0.110319312 0.0818663237
v 0.095342575 0.111839707 0.0818663237
v 0.0938482865 0.110293443 0.0818347332
v 0.0953735694 0.111808713 0.081826627
v 0.0938785657 0.110263164 0.0817733404
v 0.095388709 0.111793573 0.0817944405
v 0.0953987225 0.111783559 0.0817733404
v 0.0938984736 0.110243256 0.0817329285
v 0.095422326 0.111760075 0.0817232725
v 0.0939169511 0.110224779 0.0816639063
v 0.0954371079 0.111745293 0.0816639063
v 0.0939293488 0.110212381 0.0816175339
v 0.0954512938 0.111730988 0.0816064474
v 0.0939354285 0.110206301 0.0815444586
v 0.0954560622 0.11172622 0.0815445778
v 0.108640729 0.079237516 0.053500354
v 0.108640729 0.079237516 0.0539564488
v 0.108746825 0.0793436122 0.053500354
v 0.108746825 0.0793436122 0.0539564488
v 0.108746825 0.0793436122 0.0515375731
v 0.108640729 0.079237516 0.0515375731
v 0.109137712 0.078952725 0.0515375731
v 0.109421669 0.0784565759 0.0515375731
v 0.109191595 0.0788988424 0.0515375731
v 0.109527765 0.0785626722 0.0515375731
v 0.0854185208 0.109601553 0.0230999586
v 0.0854114875 0.109594519 0.0230999586
v 0.0853285178 0.10967737 0.023109853
v 0.0849164113 0.110089476 0.0237999556
v 0.0849235638 0.110096509 0.0237999556
v 0.0849255904 0.110094483 0.0237360594
v 0.0849234446 0.110082443 0.0236827729
v 0.0852118119 0.109794076 0.0231594441
v 0.0852975234 0.10972255 0.0231211779
v 0.085336028 0.109684045 0.023114383
v 0.0851071462 0.109898741 0.0232478974
v 0.0851830825 0.109836991 0.0231841204
v 0.0852200373 0.109800036 0.0231637356
v 0.0850209578 0.10998493 0.0233697293
v 0.0850829467 0.109937127 0.0232853291
v 0.0851162061 0.109903867 0.0232517121
v 0.0849584922 0.110047395 0.023517668
v 0.0850070103 0.110013063 0.0234107373
v 0.0850302562 0.109989817 0.0233723519
v 0.0849336966 0.110086377 0.0236837265
v 0.0849518164 0.110068138 0.0235663054
v 0.0849683865 0.110051687 0.0235196945
v 0.109919725 0.0887772394 0.0819999573
v 0.109919725 0.0887772394 0.0810000298
v 0.108505546 0.0901914192 0.0819999573
v 0.108505546 0.0901914192 0.0810000298
v 0.110174356 0.0871226144 0.0363749859
v 0.111588536 0.0857084346 0.0363749859
v 0.110174356 0.0871226144 0.036150038
v 0.111588536 0.0857084346 0.036150038
v 0.11018127 0.0871155811 0.036032736
v 0.110586344 0.0867105079 0.0354599354
v 0.110669313 0.0866276574 0.035450041
v 0.111581503 0.0857153487 0.0364922879
v 0.11117643 0.0861204219 0.0370650885
v 0.111093579 0.0862033916 0.0370749829
v 0.110669313 0.0866276574 0.0370749829
v 0.110586344 0.0867105079 0.0370650885
v 0.11018127 0.0871155811 0.0364922879
v 0.110216318 0.0870805335 0.0366572735
v 0.110365091 0.0869318795 0.0355978606
v 0.110278903 0.0870180679 0.0357196924
v 0.110216318 0.0870805335 0.0358676312
v 0.111397801 0.0858991695 0.0369271633
v 0.11148399 0.0858129812 0.0368053314
v 0.111546455 0.0857505155 0.0366572735
v 0.111093579 0.0862033916 0.035450041
v 0.11117643 0.0861204219 0.0354599354
v 0.111581503 0.0857153487 0.036032736
v 0.111546455 0.0857505155 0.0358676312
v 0.110278903 0.0870180679 0.0368053314
v 0.110365091 0.0869318795 0.0369271633
v 0.110469638 0.086827333 0.0370154974
v 0.110469638 0.086827333 0.0355094073
v 0.111293136 0.086003716 0.0370154974
v 0.11148399 0.0858129812 0.0357196924
v 0.111397801 0.0858991695 0.0355978606
v 0.111293136 0.086003716 0.0355094073
v 0.114021002 0.0846052718 0.0394499895
v 0.133815466 0.0648108077 0.0394499895
v 0.133820473 0.0648158145 0.039606869
v 0.114026008 0.0846102786 0.039606869
v 0.133884846 0.0648802471 0.0400280354
v 0.114090382 0.0846747709 0.0400280354
v 0.134020148 0.0650155497 0.0404140351
v 0.114225684 0.0848100734 0.0404140351
v 0.134218036 0.0652134371 0.0407417414
v 0.114423571 0.0850078416 0.0407417414
v 0.134466468 0.0654618693 0.040991008
v 0.114672004 0.085256393 0.040991008
v 0.134750543 0.065745945 0.0411469338
v 0.114956079 0.0855403495 0.0411469338
v 0.135052858 0.0660482598 0.0411999819
v 0.115258394 0.0858427835 0.0411999819
v 0.135355292 0.0663506341 0.0411469338
v 0.115560709 0.0861450982 0.0411469338
v 0.135639249 0.0666346503 0.040991008
v 0.115844785 0.086429174 0.040991008
v 0.1358878 0.066883142 0.0407417414
v 0.116093217 0.0866776061 0.0407417414
v 0.136085688 0.0670810294 0.0404140351
v 0.116291104 0.0868754936 0.0404140351
v 0.136220871 0.0672162724 0.0400280354
v 0.116426407 0.0870107961 0.0400280354
v 0.136285363 0.067280705 0.039606869
v 0.116490899 0.0870751691 0.039606869
v 0.13629037 0.0672857118 0.0394499895
v 0.116495787 0.0870801759 0.0394499895
v 0.136285363 0.067280705 0.0392931101
v 0.116490899 0.0870751691 0.0392931101
v 0.136220871 0.0672162724 0.0388720629
v 0.116426407 0.0870107961 0.0388720629
v 0.136085688 0.0670810294 0.038485944
v 0.116291104 0.0868754936 0.038485944
v 0.1358878 0.066883142 0.0381582377
v 0.116093217 0.0866776061 0.0381582377
v 0.135639249 0.0666346503 0.0379089711
v 0.115844785 0.086429174 0.0379089711
v 0.135355292 0.0663506341 0.0377530453
v 0.115560709 0.0861450982 0.0377530453
v 0.135052858 0.0660482598 0.0376999972
v 0.115258394 0.0858427835 0.0376999972
v 0.134750543 0.065745945 0.0377530453
v 0.114956079 0.0855403495 0.0377530453
v 0.134466468 0.0654618693 0.0379089711
v 0.114672004 0.085256393 0.0379089711
v 0.134218036 0.0652134371 0.0381582377
v 0.114423571 0.0850078416 0.0381582377
v 0.134020148 0.0650155497 0.038485944
v 0.114225684 0.0848100734 0.038485944
v 0.133884846 0.0648802471 0.0388720629
v 0.114090382 0.0846747709 0.0388720629
v 0.133820473 0.0648158145 0.0392931101
v 0.114026008 0.0846102786 0.0392931101
v 0.114021002 0.0846052718 0.0605500338
v 0.133815466 0.0648108077 0.0605500338
v 0.133820473 0.0648158145 0.0607069132
v 0.114026008 0.0846102786 0.0607069132
v 0.133884846 0.0648802471 0.0611279604
v 0.114090382 0.0846747709 0.0611279604
v 0.134020148 0.0650155497 0.0615140793
v 0.114225684 0.0848100734 0.0615140793
v 0.134218036 0.0652134371 0.0618416664
v 0.114423571 0.0850078416 0.0618416664
v 0.134466468 0.0654618693 0.0620910523
v 0.114672004 0.085256393 0.0620910523
v 0.134750543 0.065745945 0.062246978
v 0.114956079 0.0855403495 0.062246978
v 0.135052858 0.0660482598 0.0623000262
v 0.115258394 0.0858427835 0.0623000262
v 0.135355292 0.0663506341 0.062246978
v 0.115560709 0.0861450982 0.062246978
v 0.135639249 0.0666346503 0.0620910523
v 0.115844785 0.086429174 0.0620910523
v 0.1358878 0.066883142 0.0618416664
v 0.116093217 0.0866776061 0.0618416664
v 0.136085688 0.0670810294 0.0615140793
v 0.116291104 0.0868754936 0.0615140793
v 0.136220871 0.0672162724 0.0611279604
v 0.116426407 0.0870107961 0.0611279604
v 0.136285363 0.067280705 0.0607069132
v 0.116490899 0.0870751691 0.0607069132
v 0.13629037 0.0672857118 0.0605500338
v 0.116495787 0.0870801759 0.0605500338
v 0.136285363 0.067280705 0.0603931544
v 0.116490899 0.0870751691 0.0603931544
v 0.136220871 0.0672162724 0.0599719879
v 0.116426407 0.0870107961 0.0599719879
v 0.136085688 0.0670810294 0.0595859883
v 0.116291104 0.0868754936 0.0595859883
v 0.1358878 0.066883142 0.0592582819
v 0.116093217 0.0866776061 0.0592582819
v 0.135639249 0.0666346503 0.0590090153
v 0.115844785 0.086429174 0.0590090153
v 0.135355292 0.0663506341 0.0588530896
v 0.115560709 0.0861450982 0.0588530896
v 0.135052858 0.0660482598 0.0588000414
v 0.115258394 0.0858427835 0.0588000414
v 0.134750543 0.065745945 0.0588530896
v 0.114956079 0.0855403495 0.0588530896
v 0.134466468 0.0654618693 0.0590090153
v 0.114672004 0.085256393 0.0590090153
v 0.134218036 0.0652134371 0.0592582819
v 0.114423571 0.0850078416 0.0592582819
v 0.134020148 0.0650155497 0.0595859883
v 0.114225684 0.0848100734 0.0595859883
v 0.133884846 0.0648802471 0.0599719879
v 0.114090382 0.0846747709 0.0599719879
v 0.133820473 0.0648158145 0.0603931544
v 0.114026008 0.0846102786 0.0603931544
v 0.050100027 0.11544996 0.12589997
v 0.050100027 0.11544996 0.124900043
v 0.050100027 0.11394995 0.12589997
v 0.050100027 0.11394995 0.124900043
v 0.050100027 0.111599977 0.12589997
v 0.050100027 0.111599977 0.124900043
v 0.050100027 0.109250004 0.12589997
v 0.050100027 0.109250004 0.124900043
v 0.050100027 0.105075057 0.12589997
v 0.050100027 0.105075057 0.124900043
v 0.050100027 0.100850041 0.12589997
v 0.050100027 0.100850041 0.124900043
v 0.050100027 0.0958500457 0.12589997
v 0.050100027 0.0958500457 0.124900043
v 0.050100027 0.0928500247 0.12589997
v 0.050100027 0.0928500247 0.124900043
v 0.050100027 0.0898500037 0.12589997
v 0.050100027 0.0898500037 0.124900043
v 0.050100027 0.0873499465 0.12589997
v 0.050100027 0.0873499465 0.124900043
v 0.050100027 0.0848500085 0.12589997
v 0.050100027 0.0848500085 0.124900043
v 0.050100027 0.0802499605 0.12589997
v 0.050100027 0.0802499605 0.124900043
v 0.060900031 0.116450007 0.12589997
v 0.060900031 0.116450007 0.124900043
v 0.0600849971 0.116450007 0.12589997
v 0.0600849971 0.116450007 0.124900043
v 0.0583199843 0.116450007 0.12589997
v 0.0583199843 0.116450007 0.124900043
v 0.0510999545 0.116450007 0.12589997
v 0.0510999545 0.116450007 0.124900043
f 1 2 3
f 1 3 4
f 4 3 5
f 4 5 6
f 6 5 7
f 6 7 8
f 8 7 9
f 8 9 10
f 10 9 11
f 10 11 12
f 12 11 13
f 12 13 14
f 14 13 15
f 14 15 16
f 16 15 17
f 16 17 18
f 18 17 19
f 18 19 20
f 20 19 21
f 20 21 22
f 22 21 23
f 22 23 24
f 24 23 25
f 24 25 26
f 26 25 27
f 26 27 28
f 28 27 29
f 28 29 30
f 30 29 31
f 30 31 32
f 32 31 33
f 32 33 34
f 34 33 35
f 34 35 36
f 36 35 37
f 36 37 38
f 38 37 39
f 38 39 40
f 40 39 41
f 40 41 42
f 42 41 43
f 42 43 44
f 44 43 45
f 44 45 46
f 46 45 47
f 46 47 48
f 48 47 49
f 48 49 50
f 50 49 51
f 50 51 52
f 52 51 53
f 52 53 54
f 54 53 55
f 54 55 56
f 56 55 2
f 56 2 1
f 56 30 32
f 34 36 44
f 48 50 32
f 8 10 28
f 28 10 12
f 16 18 20
f 56 1 30
f 30 1 4
f 30 4 28
f 28 4 6
f 28 6 8
f 12 14 28
f 28 14 16
f 28 16 26
f 20 22 16
f 16 22 24
f 16 24 26
f 36 38 44
f 44 38 40
f 44 40 42
f 34 44 32
f 32 44 46
f 32 46 48
f 50 52 32
f 32 52 54
f 32 54 56
f 3 29 27
f 25 23 15
f 11 9 27
f 51 49 31
f 31 49 47
f 43 41 39
f 3 2 29
f 29 2 55
f 29 55 31
f 31 55 53
f 31 53 51
f 47 45 31
f 31 45 43
f 31 43 33
f 39 37 43
f 43 37 35
f 43 35 33
f 23 21 15
f 15 21 19
f 15 19 17
f 25 15 27
f 27 15 13
f 27 13 11
f 9 7 27
f 27 7 5
f 27 5 3
f 57 58 59
f 57 59 60
f 60 59 61
f 60 61 62
f 62 61 63
f 62 63 64
f 64 63 65
f 64 65 66
f 66 65 67
f 66 67 68
f 68 67 69
f 68 69 70
f 70 69 71
f 70 71 72
f 72 71 73
f 72 73 74
f 74 73 75
f 74 75 76
f 76 75 77
f 76 77 78
f 78 77 79
f 78 79 80
f 80 79 81
f 80 81 82
f 82 81 83
f 82 83 84
f 84 83 85
f 84 85 86
f 86 85 87
f 86 87 88
f 88 87 89
f 88 89 90
f 90 89 91
f 90 91 92
f 92 91 93
f 92 93 94
f 94 93 95
f 94 95 96
f 96 95 97
f 96 97 98
f 98 97 99
f 98 99 100
f 100 99 101
f 100 101 102
f 102 101 103
f 102 103 104
f 104 103 105
f 104 105 106
f 106 105 107
f 106 107 108
f 108 107 109
f 108 109 110
f 110 109 111
f 110 111 112
f 112 111 58
f 112 58 57
f 112 86 88
f 90 92 100
f 104 106 88
f 64 66 84
f 84 66 68
f 72 74 76
f 112 57 86
f 86 57 60
f 86 60 84
f 84 60 62
f 84 62 64
f 68 70 84
f 84 70 72
f 84 72 82
f 76 78 72
f 72 78 80
f 72 80 82
f 92 94 100
f 100 94 96
f 100 96 98
f 90 100 88
f 88 100 102
f 88 102 104
f 106 108 88
f 88 108 110
f 88 110 112
f 59 85 83
f 81 79 71
f 67 65 83
f 107 105 87
f 87 105 103
f 99 97 95
f 59 58 85
f 85 58 111
f 85 111 87
f 87 111 109
f 87 109 107
f 103 101 87
f 87 101 99
f 87 99 89
f 95 93 99
f 99 93 91
f 99 91 89
f 79 77 71
f 71 77 75
f 71 75 73
f 81 71 83
f 83 71 69
f 83 69 67
f 65 63 83
f 83 63 61
f 83 61 59
f 113 114 115
f 115 114 116
f 117 118 119
f 119 118 120
f 121 122 123
f 123 122 124
f 123 124 125
f 125 124 126
f 125 126 127
f 127 126 128
f 128 126 129
f 129 126 130
f 129 130 131
f 131 130 132
f 132 130 133
f 132 133 134
f 134 133 135
f 135 133 136
f 135 136 137
f 118 138 120
f 120 138 139
f 120 139 136
f 136 139 140
f 136 140 137
f 141 142 143
f 143 142 144
f 143 144 145
f 146 147 148
f 148 147 149
f 148 149 150
f 150 149 151
f 150 151 143
f 143 151 152
f 143 152 141
f 153 154 155
f 155 154 156
f 157 158 159
f 159 158 160
f 161 162 163
f 161 163 164
f 164 163 165
f 164 165 166
f 166 165 167
f 166 167 168
f 168 167 169
f 168 169 170
f 170 169 171
f 170 171 172
f 172 171 173
f 172 173 174
f 174 173 175
f 174 175 176
f 177 178 179
f 177 179 180
f 180 179 181
f 180 181 182
f 182 181 183
f 182 183 184
f 184 183 185
f 184 185 186
f 186 185 187
f 186 187 188
f 188 187 189
f 188 189 190
f 190 189 191
f 190 191 192
f 193 192 191
f 191 194 193
f 193 194 195
f 193 195 196
f 196 195 197
f 196 197 198
f 198 197 199
f 198 199 200
f 200 199 201
f 200 201 202
f 202 201 203
f 202 203 204
f 204 203 162
f 204 162 161
f 205 206 207
f 205 207 208
f 208 207 209
f 208 209 210
f 211 212 213
f 211 213 214
f 214 213 215
f 214 215 216
f 217 218 219
f 219 220 217
f 217 220 221
f 217 221 222
f 222 221 223
f 221 224 223
f 223 224 225
f 223 225 226
f 223 226 227
f 227 226 228
f 227 228 229
f 229 228 230
f 229 230 231
f 232 233 234
f 234 235 232
f 232 235 236
f 232 236 237
f 236 238 237
f 237 238 239
f 237 239 240
f 237 240 241
f 241 240 242
f 241 242 243
f 243 242 244
f 243 244 245
f 246 247 248
f 248 247 249
f 248 250 246
f 246 250 251
f 246 251 252
f 252 251 253
f 252 253 254
f 254 253 255
f 253 256 255
f 255 256 257
f 255 257 258
f 257 259 258
f 258 259 260
f 258 260 261
f 261 260 262
f 260 263 262
f 262 263 264
f 262 264 265
f 265 264 266
f 267 268 269
f 264 270 266
f 266 270 267
f 266 267 271
f 271 267 269
f 272 273 274
f 274 273 275
f 276 277 278
f 278 277 279
f 280 281 282
f 282 281 283
f 284 285 286
f 286 285 287
f 288 289 290
f 290 289 291
f 290 291 292
f 292 291 293
f 294 295 296
f 297 298 299
f 299 298 300
f 301 302 303
f 303 302 304
f 304 305 306
f 304 306 303
f 307 308 309
f 308 310 309
f 309 310 311
f 309 311 312
f 312 311 313
f 312 313 314
f 314 313 315
f 314 315 316
f 316 315 305
f 316 305 317
f 317 305 304
f 309 318 307
f 307 318 319
f 307 319 320
f 320 319 321
f 320 321 322
f 322 321 323
f 322 323 324
f 324 323 325
f 324 325 326
f 326 325 327
f 326 327 328
f 328 327 329
f 328 329 330
f 330 329 331
f 330 331 332
f 332 331 333
f 332 333 334
f 334 333 335
f 334 335 336
f 336 335 337
f 336 337 338
f 338 337 339
f 338 339 297
f 297 339 294
f 297 294 298
f 298 294 296
f 340 341 342
f 342 341 296
f 342 296 343
f 343 296 295
f 300 298 344
f 344 298 345
f 344 345 346
f 346 345 347
f 346 347 348
f 348 347 349
f 348 349 350
f 350 349 351
f 350 351 352
f 352 351 353
f 352 353 354
f 354 353 355
f 354 355 356
f 356 355 357
f 356 357 358
f 356 358 359
f 359 358 360
f 359 360 361
f 362 363 364
f 364 363 365
f 364 365 340
f 340 365 366
f 340 366 341
f 360 367 361
f 361 367 368
f 361 368 369
f 369 368 370
f 369 370 371
f 371 370 372
f 371 372 373
f 373 372 374
f 374 372 375
f 374 375 376
f 376 375 377
f 376 377 378
f 378 377 379
f 378 379 380
f 380 379 381
f 380 381 362
f 362 381 382
f 362 382 363
f 383 384 385
f 386 387 388
f 388 387 389
f 385 390 383
f 383 390 391
f 383 391 392
f 392 391 393
f 392 393 394
f 394 393 395
f 394 395 396
f 396 395 397
f 396 397 398
f 398 397 399
f 386 388 400
f 400 388 401
f 400 401 402
f 402 401 403
f 403 401 404
f 403 404 405
f 387 406 389
f 389 406 407
f 389 407 408
f 408 407 409
f 408 409 410
f 410 409 411
f 410 411 412
f 412 411 413
f 412 413 414
f 414 413 415
f 414 415 416
f 416 415 417
f 416 417 418
f 418 417 419
f 418 419 420
f 420 419 421
f 420 421 422
f 422 421 423
f 422 423 424
f 424 423 425
f 424 425 426
f 426 425 427
f 426 427 428
f 428 427 429
f 428 429 430
f 430 429 431
f 430 431 432
f 432 431 433
f 432 433 434
f 434 433 435
f 434 435 436
f 436 435 437
f 436 437 399
f 399 437 438
f 399 438 398
f 439 440 441
f 441 440 442
f 441 442 443
f 443 442 444
f 443 444 445
f 445 444 446
f 445 446 447
f 447 446 448
f 447 448 449
f 449 448 450
f 449 450 451
f 451 450 452
f 451 452 453
f 453 452 454
f 453 454 455
f 455 454 456
f 455 456 457
f 457 456 458
f 457 458 459
f 459 458 460
f 459 460 461
f 461 460 405
f 461 405 462
f 462 405 404
f 463 464 465
f 466 467 468
f 468 467 469
f 465 470 463
f 463 470 471
f 463 471 472
f 472 471 473
f 472 473 474
f 474 473 475
f 474 475 476
f 476 475 477
f 476 477 478
f 478 477 479
f 466 468 480
f 480 468 481
f 480 481 482
f 482 481 483
f 483 481 484
f 483 484 485
f 467 486 469
f 469 486 487
f 469 487 488
f 488 487 489
f 488 489 490
f 490 489 491
f 490 491 492
f 492 491 493
f 492 493 494
f 494 493 495
f 494 495 496
f 496 495 497
f 496 497 498
f 498 497 499
f 498 499 500
f 500 499 501
f 500 501 502
f 502 501 503
f 502 503 504
f 504 503 505
f 504 505 506
f 506 505 507
f 506 507 508
f 508 507 509
f 508 509 510
f 510 509 511
f 510 511 512
f 512 511 513
f 512 513 514
f 514 513 515
f 514 515 516
f 516 515 517
f 516 517 479
f 479 517 518
f 479 518 478
f 519 520 521
f 521 520 522
f 521 522 523
f 523 522 524
f 523 524 525
f 525 524 526
f 525 526 527
f 527 526 528
f 527 528 529
f 529 528 530
f 529 530 531
f 531 530 532
f 531 532 533
f 533 532 534
f 533 534 535
f 535 534 536
f 535 536 537
f 537 536 538
f 537 538 539
f 539 538 540
f 539 540 541
f 541 540 485
f 541 485 542
f 542 485 484
f 543 544 545
f 543 545 546
f 546 545 547
f 546 547 548
f 547 549 548
f 548 549 550
f 548 550 551
f 552 553 554
f 554 553 551
f 554 551 555
f 555 551 550
f 556 557 558
f 558 557 559
f 560 561 562
f 562 561 563
f 564 565 566
f 567 568 569
f 569 568 570
f 568 571 570
f 570 571 572
f 570 572 573
f 572 574 573
f 573 574 575
f 573 575 566
f 566 575 576
f 566 576 564
f 577 578 579
f 577 579 580
f 580 579 581
f 580 581 582
f 581 583 582
f 582 583 584
f 582 584 585
f 586 587 588
f 588 587 585
f 588 585 589
f 589 585 584
f 590 591 592
f 590 592 593
f 593 592 594
f 593 594 595
f 594 596 595
f 595 596 597
f 595 597 598
f 599 600 601
f 601 600 598
f 601 598 602
f 602 598 597
f 603 604 605
f 603 605 606
f 606 605 607
f 606 607 608
f 609 610 611
f 611 610 612
f 607 613 608
f 608 613 614
f 608 614 612
f 612 614 611
f 615 616 617
f 617 616 618
f 619 620 621
f 621 620 622
f 621 622 623
f 623 622 624
f 624 622 625
f 624 625 626
f 626 625 627
f 627 625 628
f 627 628 629
f 630 631 632
f 632 631 633
f 634 635 636
f 636 635 637
f 638 639 640
f 640 639 641
f 642 643 644
f 644 643 645
f 646 647 648
f 646 648 649
f 649 648 650
f 649 650 651
f 652 653 650
f 650 653 651
f 654 655 656
f 656 655 657
f 658 659 660
f 661 662 660
f 660 662 663
f 660 663 658
f 664 665 661
f 661 665 666
f 661 666 662
f 667 668 669
f 669 668 670
f 669 670 664
f 664 670 671
f 664 671 665
f 672 673 669
f 669 673 674
f 669 674 667
f 675 676 677
f 677 678 675
f 675 678 679
f 675 679 672
f 672 679 680
f 672 680 673
f 681 682 683
f 683 682 684
f 683 684 685
f 686 687 688
f 688 687 689
f 690 691 692
f 690 692 693
f 693 692 694
f 693 694 695
f 696 697 698
f 696 698 699
f 699 698 700
f 699 700 701
f 702 703 704
f 704 703 705
f 704 705 706
f 707 708 709
f 709 708 710
f 711 712 713
f 713 712 714
f 713 714 715
f 716 717 718
f 716 718 719
f 719 718 720
f 719 720 721
f 721 720 722
f 721 722 723
f 723 722 724
f 723 724 725
f 725 724 726
f 725 726 727
f 727 726 728
f 727 728 729
f 729 728 730
f 729 730 731
f 732 733 734
f 734 733 735
f 735 736 734
f 734 736 737
f 734 737 738
f 738 737 739
f 737 740 739
f 739 740 741
f 739 741 742
f 742 741 743
f 741 744 743
f 743 744 745
f 743 745 746
f 746 745 747
f 745 748 747
f 747 748 749
f 747 749 750
f 750 749 751
f 749 752 751
f 751 752 753
f 751 753 754
f 754 753 755
f 753 756 755
f 755 756 757
f 755 757 758
f 758 757 759
f 758 759 760
f 761 762 763
f 761 763 764
f 764 763 765
f 764 765 766
f 766 765 767
f 766 767 768
f 769 733 732
f 767 770 768
f 768 770 769
f 768 769 771
f 771 769 732
f 772 773 774
f 772 774 775
f 775 774 776
f 775 776 777
f 777 776 778
f 777 778 779
f 780 781 782
f 780 782 783
f 783 782 784
f 783 784 785
f 786 787 788
f 786 788 789
f 789 788 790
f 789 790 791
f 791 790 792
f 791 792 793
f 793 792 794
f 793 794 795
f 795 794 796
f 795 796 797
f 797 796 798
f 797 798 799
f 799 798 800
f 799 800 801
f 802 803 804
f 804 805 802
f 802 805 806
f 802 806 807
f 807 806 808
f 807 808 809
f 809 808 810
f 809 810 811
f 811 810 812
f 811 812 813
f 813 812 814
f 813 814 815
f 815 814 816
f 815 816 817
f 817 816 818
f 817 818 819
f 819 818 820
f 819 820 821
f 822 823 824
f 824 823 825
f 824 825 826
f 826 825 827
f 826 827 828
f 828 827 829
f 828 829 830
f 830 829 831
f 830 831 832
f 832 831 833
f 832 833 834
f 834 833 835
f 834 835 836
f 836 835 837
f 836 837 838
f 838 837 839
f 838 839 840
f 840 839 841
f 840 841 842
f 842 841 843
f 842 843 844
f 844 843 845
f 844 845 846
f 846 845 847
f 846 847 848
f 848 847 849
f 848 849 850
f 850 849 851
f 850 851 852
f 852 851 853
f 852 853 854
f 854 853 855
f 854 855 856
f 856 855 857
f 856 857 858
f 858 857 859
f 858 859 860
f 860 859 861
f 860 861 862
f 862 861 863
f 862 863 864
f 864 863 865
f 864 865 866
f 866 865 867
f 866 867 868
f 868 867 869
f 868 869 870
f 870 869 871
f 870 871 872
f 872 871 873
f 872 873 874
f 874 873 875
f 874 875 876
f 876 875 877
f 876 877 878
f 878 877 879
f 878 879 880
f 880 879 881
f 880 881 882
f 882 881 883
f 882 883 884
f 884 883 885
f 884 885 886
f 886 885 887
f 886 887 888
f 888 887 889
f 888 889 890
f 890 889 891
f 890 891 892
f 892 891 893
f 892 893 894
f 894 893 895
f 894 895 896
f 896 895 897
f 896 897 898
f 898 897 899
f 898 899 900
f 900 899 901
f 900 901 902
f 902 901 903
f 902 903 904
f 904 903 905
f 904 905 906
f 906 905 907
f 906 907 908
f 908 907 909
f 908 909 910
f 910 909 911
f 910 911 912
f 912 911 913
f 912 913 914
f 914 913 915
f 914 915 916
f 916 915 917
f 916 917 918
f 918 917 919
f 918 919 920
f 920 919 921
f 920 921 922
f 922 921 923
f 922 923 924
f 924 923 925
f 924 925 822
f 822 925 823
f 926 927 928
f 928 927 929
f 928 929 930
f 930 929 931
f 930 931 932
f 932 931 933
f 932 933 934
f 934 933 935
f 934 935 936
f 937 938 939
f 939 938 940
f 939 940 941
f 941 940 942
f 941 942 943
f 943 942 944
f 943 944 945
f 945 944 946
f 945 946 947
f 947 946 948
f 947 948 949
f 949 948 950
f 949 950 951
f 951 950 952
f 951 952 953
f 953 952 954
f 953 954 955
f 955 954 956
f 955 956 957
f 957 956 958
f 957 958 959
f 959 958 960
f 959 960 961
f 961 960 962
f 961 962 963
f 963 962 964
f 963 964 965
f 965 964 966
f 965 966 967
f 967 966 968
f 967 968 969
f 969 968 970
f 969 970 971
f 971 970 972
f 971 972 973
f 973 972 974
f 973 974 975
f 975 974 976
f 975 976 977
f 977 976 978
f 977 978 979
f 979 978 936
f 979 936 980
f 980 936 935
f 938 937 981
f 981 937 982
f 981 982 983
f 983 982 984
f 983 984 985
f 985 984 986
f 985 986 987
f 987 986 988
f 987 988 989
f 989 988 990
f 989 990 991
f 991 990 992
f 991 992 993
f 993 992 994
f 993 994 995
f 995 994 996
f 995 996 997
f 997 996 998
f 997 998 999
f 999 998 1000
f 999 1000 1001
f 1001 1000 1002
f 1001 1002 1003
f 1003 1002 1004
f 1003 1004 1005
f 1005 1004 1006
f 1005 1006 1007
f 1007 1006 1008
f 1007 1008 1009
f 1009 1008 1010
f 1009 1010 1011
f 1011 1010 1012
f 1011 1012 1013
f 1013 1012 1014
f 1013 1014 1015
f 1015 1014 1016
f 1015 1016 1017
f 1017 1016 1018
f 1017 1018 1019
f 1019 1018 1020
f 1019 1020 1021
f 1020 1022 1021
f 1021 1022 1023
f 1021 1023 1024
f 1024 1023 1025
f 1024 1025 1026
f 1026 1025 1027
f 1026 1027 1028
f 1028 1027 1029
f 1028 1029 1030
f 1030 1029 1031
f 1030 1031 926
f 926 1031 927
f 1032 1033 1034
f 1034 1033 1035
f 1036 1037 1038
f 1038 1037 1039
f 1038 1039 1040
f 1040 1039 1041
f 1042 1043 1044
f 1045 1046 1047
f 1045 1047 1048
f 1049 1050 1044
f 1044 1050 1051
f 1044 1051 1042
f 1052 1053 1049
f 1049 1053 1054
f 1049 1054 1050
f 1055 1056 1052
f 1052 1056 1057
f 1052 1057 1053
f 1058 1059 1055
f 1055 1059 1060
f 1055 1060 1056
f 1047 1061 1048
f 1048 1061 1062
f 1048 1062 1058
f 1058 1062 1063
f 1058 1063 1059
f 1064 1065 1066
f 1066 1065 1067
f 1068 1069 1070
f 1070 1069 1071
f 1072 1070 1073
f 1073 1070 1074
f 1075 1069 1076
f 1076 1069 1077
f 1077 1069 1078
f 1078 1069 1068
f 1078 1068 1079
f 1079 1068 1080
f 1079 1080 1081
f 1082 1083 1084
f 1085 1086 1087
f 1074 1070 1088
f 1088 1070 1071
f 1088 1071 1089
f 1089 1071 1090
f 1089 1090 1091
f 1092 1093 1081
f 1081 1093 1094
f 1081 1094 1079
f 1072 1073 1084
f 1084 1073 1095
f 1084 1095 1082
f 1075 1076 1087
f 1087 1076 1096
f 1087 1096 1085
f 1097 1098 1091
f 1091 1098 1099
f 1091 1099 1089
f 1100 1101 1102
f 1100 1102 1103
f 1103 1102 1104
f 1103 1104 1105
f 1105 1104 1106
f 1105 1106 1107
f 1107 1106 1108
f 1107 1108 1109
f 1109 1108 1110
f 1109 1110 1111
f 1111 1110 1112
f 1111 1112 1113
f 1113 1112 1114
f 1113 1114 1115
f 1115 1114 1116
f 1115 1116 1117
f 1117 1116 1118
f 1117 1118 1119
f 1119 1118 1120
f 1119 1120 1121
f 1121 1120 1122
f 1121 1122 1123
f 1123 1122 1124
f 1123 1124 1125
f 1125 1124 1126
f 1125 1126 1127
f 1127 1126 1128
f 1127 1128 1129
f 1129 1128 1130
f 1129 1130 1131
f 1131 1130 1132
f 1131 1132 1133
f 1133 1132 1134
f 1133 1134 1135
f 1135 1134 1136
f 1135 1136 1137
f 1137 1136 1138
f 1137 1138 1139
f 1139 1138 1140
f 1139 1140 1141
f 1141 1140 1142
f 1141 1142 1143
f 1143 1142 1144
f 1143 1144 1145
f 1145 1144 1146
f 1145 1146 1147
f 1147 1146 1148
f 1147 1148 1149
f 1149 1148 1150
f 1149 1150 1151
f 1151 1150 1152
f 1151 1152 1153
f 1153 1152 1154
f 1153 1154 1155
f 1155 1154 1101
f 1155 1101 1100
f 1155 1100 1131
f 1131 1100 1129
f 1129 1100 1103
f 1129 1103 1127
f 1139 1141 1143
f 1111 1113 1115
f 1147 1149 1131
f 1119 1121 1103
f 1133 1135 1143
f 1143 1135 1137
f 1143 1137 1139
f 1133 1143 1131
f 1131 1143 1145
f 1131 1145 1147
f 1149 1151 1131
f 1131 1151 1153
f 1131 1153 1155
f 1105 1107 1115
f 1115 1107 1109
f 1115 1109 1111
f 1105 1115 1103
f 1103 1115 1117
f 1103 1117 1119
f 1121 1123 1103
f 1103 1123 1125
f 1103 1125 1127
f 1102 1101 1126
f 1154 1130 1101
f 1101 1130 1128
f 1101 1128 1126
f 1116 1114 1126
f 1144 1142 1154
f 1124 1122 1120
f 1152 1150 1148
f 1124 1120 1126
f 1126 1120 1118
f 1126 1118 1116
f 1114 1112 1126
f 1126 1112 1110
f 1126 1110 1108
f 1108 1106 1126
f 1126 1106 1104
f 1126 1104 1102
f 1152 1148 1154
f 1154 1148 1146
f 1154 1146 1144
f 1142 1140 1154
f 1154 1140 1138
f 1154 1138 1136
f 1136 1134 1154
f 1154 1134 1132
f 1154 1132 1130
f 1156 1157 1158
f 1156 1158 1159
f 1159 1158 1160
f 1159 1160 1161
f 1161 1160 1162
f 1161 1162 1163
f 1163 1162 1164
f 1163 1164 1165
f 1165 1164 1166
f 1165 1166 1167
f 1167 1166 1168
f 1167 1168 1169
f 1169 1168 1170
f 1169 1170 1171
f 1171 1170 1172
f 1171 1172 1173
f 1173 1172 1174
f 1173 1174 1175
f 1175 1174 1176
f 1175 1176 1177
f 1177 1176 1178
f 1177 1178 1179
f 1179 1178 1180
f 1179 1180 1181
f 1181 1180 1182
f 1181 1182 1183
f 1183 1182 1184
f 1183 1184 1185
f 1185 1184 1186
f 1185 1186 1187
f 1187 1186 1188
f 1187 1188 1189
f 1189 1188 1190
f 1189 1190 1191
f 1191 1190 1192
f 1191 1192 1193
f 1193 1192 1194
f 1193 1194 1195
f 1195 1194 1196
f 1195 1196 1197
f 1197 1196 1198
f 1197 1198 1199
f 1199 1198 1200
f 1199 1200 1201
f 1201 1200 1202
f 1201 1202 1203
f 1203 1202 1204
f 1203 1204 1205
f 1205 1204 1206
f 1205 1206 1207
f 1207 1206 1208
f 1207 1208 1209
f 1209 1208 1210
f 1209 1210 1211
f 1211 1210 1157
f 1211 1157 1156
f 1211 1156 1187
f 1187 1156 1185
f 1185 1156 1159
f 1185 1159 1183
f 1195 1197 1199
f 1167 1169 1171
f 1203 1205 1187
f 1175 1177 1159
f 1189 1191 1199
f 1199 1191 1193
f 1199 1193 1195
f 1189 1199 1187
f 1187 1199 1201
f 1187 1201 1203
f 1205 1207 1187
f 1187 1207 1209
f 1187 1209 1211
f 1161 1163 1171
f 1171 1163 1165
f 1171 1165 1167
f 1161 1171 1159
f 1159 1171 1173
f 1159 1173 1175
f 1177 1179 1159
f 1159 1179 1181
f 1159 1181 1183
f 1158 1157 1182
f 1210 1186 1157
f 1157 1186 1184
f 1157 1184 1182
f 1172 1170 1182
f 1200 1198 1210
f 1180 1178 1176
f 1208 1206 1204
f 1180 1176 1182
f 1182 1176 1174
f 1182 1174 1172
f 1170 1168 1182
f 1182 1168 1166
f 1182 1166 1164
f 1164 1162 1182
f 1182 1162 1160
f 1182 1160 1158
f 1208 1204 1210
f 1210 1204 1202
f 1210 1202 1200
f 1198 1196 1210
f 1210 1196 1194
f 1210 1194 1192
f 1192 1190 1210
f 1210 1190 1188
f 1210 1188 1186
f 1212 1213 1214
f 1214 1213 1215
f 1214 1215 1216
f 1216 1215 1217
f 1216 1217 1218
f 1218 1217 1219
f 1218 1219 1220
f 1220 1219 1221
f 1220 1221 1222
f 1222 1221 1223
f 1222 1223 1224
f 1224 1223 1225
f 1224 1225 1226
f 1226 1225 1227
f 1226 1227 1228
f 1228 1227 1229
f 1228 1229 1230
f 1230 1229 1231
f 1230 1231 1232
f 1232 1231 1233
f 1232 1233 1234
f 1234 1233 1235
f 1236 1237 1238
f 1238 1237 1239
f 1238 1239 1240
f 1240 1239 1241
f 1240 1241 1242
f 1242 1241 1243
