# https://github.com/mikedh/trimesh
v -11.65912961 0.42999986 1.30784149
v -11.65671950 0.43520697 1.31246023
v -11.65671980 0.47207102 1.31246027
v -11.65469070 0.42999989 1.30553279
v -11.65228963 0.43520690 1.31015155
v -11.65228972 0.46999972 1.31015151
v -11.64969053 0.47999958 1.30879908
v -11.64784938 0.47500013 1.30784284
v -11.58575990 0.47500008 1.27552039
v -11.58392038 0.47999985 1.27456400
v -11.58373049 0.42999997 1.26859283
v -11.58132037 0.43520708 1.27321157
v -11.58132046 0.46999990 1.27321164
v -11.57928961 0.43000017 1.26628412
v -11.57688945 0.43520687 1.27090289
v -11.57688974 0.47207092 1.27090293
v -11.67149956 -0.39999971 1.28407586
v -11.67149971 -0.16552721 1.28407589
v -11.67149999 0.20552613 1.28407594
v -11.67149954 0.43999985 1.28407585
v -11.67147952 -0.16530271 1.28406822
v -11.67147941 0.20526537 1.28406547
v -11.67143925 -0.16508382 1.28404511
v -11.67141948 0.20501326 1.28403417
v -11.67135985 -0.16487604 1.28400729
v -11.67132042 0.20477630 1.28398313
v -11.67126962 -0.16468212 1.28395556
v -11.67117991 0.20456233 1.28391392
v -11.67114002 -0.16450581 1.28389102
v -11.67102002 0.20437685 1.28382854
v -11.67099993 -0.16435406 1.28381516
v -11.67082986 -0.16422773 1.28372959
v -11.67083011 0.20422703 1.28372959
v -11.66706049 -0.40000013 1.28176715
v -11.66706021 -0.16841318 1.28176725
v -11.66706001 0.20841324 1.28176716
v -11.66706063 0.43999988 1.28176726
v -11.66705009 0.20818914 1.28175935
v -11.66704028 -0.16815294 1.28175672
v -11.66699987 0.20797098 1.28173642
v -11.66698052 -0.16790002 1.28172543
v -11.66692960 0.20776184 1.28169856
v -11.66687993 -0.16766315 1.28167441
v -11.66682938 0.20756817 1.28164683
v -11.66675032 -0.16744897 1.28160511
v -11.66671010 0.20739225 1.28158234
v -11.66659042 -0.16726409 1.28151976
v -11.66655960 0.20723980 1.28150639
v -11.66640031 -0.16711412 1.28142074
v -11.66640024 0.20711417 1.28142085
v -11.65442031 -0.15354721 1.27518727
v -11.65442001 0.19354632 1.27518723
v -11.65422929 -0.15339692 1.27508836
v -11.65422995 0.19339605 1.27508840
v -11.65411046 -0.15326824 1.27502584
v -11.65407045 -0.15321191 1.27500301
v -11.65407021 0.19321101 1.27500302
v -11.65399050 -0.15309324 1.27496132
v -11.65393000 -0.15299700 1.27493380
v -11.65393060 0.19299674 1.27493381
v -11.65389063 -0.15289800 1.27490945
v -11.65383919 -0.15276100 1.27488269
v -11.65383969 0.19275998 1.27488268
v -11.65381033 -0.15268991 1.27487175
v -11.65377943 -0.15250808 1.27485140
v -11.65377945 0.19250698 1.27485137
v -11.65376041 -0.15224815 1.27484088
v -11.65376024 0.19224725 1.27484091
v -11.64998985 -0.15643328 1.27287853
v -11.64998998 0.19643301 1.27287849
v -11.64982005 0.19630599 1.27279303
v -11.64979990 -0.15628286 1.27277963
v -11.64967981 0.19615403 1.27271711
v -11.64963048 -0.15609923 1.27269437
v -11.64954984 0.19597929 1.27265259
v -11.64950029 -0.15588383 1.27262495
v -11.64945005 0.19578395 1.27260074
v -11.64940059 -0.15564728 1.27257405
v -11.64938024 0.19557617 1.27256300
v -11.64934052 -0.15539526 1.27254275
v -11.64932971 0.19535710 1.27253994
v -11.64932001 -0.15513381 1.27253223
v -11.64932011 0.19513390 1.27253226
v -11.61383974 -0.15513422 1.25406232
v -11.61384000 0.19513394 1.25406234
v -11.61382998 -0.15535787 1.25405451
v -11.61381992 0.19539373 1.25405170
v -11.61377977 -0.15557603 1.25403146
v -11.61375926 0.19564697 1.25402052
v -11.61370964 -0.15578472 1.25399372
v -11.61366062 0.19588366 1.25396951
v -11.61361017 -0.15597915 1.25394186
v -11.61352996 0.19609770 1.25390020
v -11.61348983 -0.15615521 1.25387737
v -11.61336011 0.19628299 1.25381483
v -11.61333965 -0.15630676 1.25380155
v -11.61317003 -0.15643287 1.25371585
v -11.61317000 0.19643297 1.25371592
v -11.60940956 -0.15224798 1.25175345
v -11.60941029 0.19224711 1.25175349
v -11.60938985 -0.15247122 1.25174585
v -11.60938011 0.19250686 1.25174305
v -11.60934958 -0.15268979 1.25172283
v -11.60934937 0.19268914 1.25172282
v -11.60932955 0.19276013 1.25171167
v -11.60926951 -0.15289807 1.25168494
v -11.60926937 0.19289813 1.25168489
v -11.60922985 0.19299669 1.25166066
v -11.60917078 -0.15309326 1.25163321
v -11.60917010 0.19309216 1.25163313
v -11.60909015 0.19321083 1.25159144
v -11.60905001 -0.15326765 1.25156860
v -11.60905014 0.19326716 1.25156862
v -11.60893025 0.19339571 1.25150609
v -11.60889951 -0.15342011 1.25149265
v -11.60874074 -0.15354695 1.25140722
v -11.60874029 0.19354613 1.25140719
v -11.59676067 -0.16711435 1.24517361
v -11.59676060 0.20711394 1.24517360
v -11.59660048 0.20723986 1.24508806
v -11.59657997 -0.16726381 1.24507469
v -11.59645948 0.20739191 1.24501219
v -11.59641013 -0.16744889 1.24498928
v -11.59632989 0.20756823 1.24494765
v -11.59627972 -0.16766282 1.24491998
v -11.59623046 0.20776180 1.24489590
v -11.59618051 -0.16790023 1.24486906
v -11.59616057 0.20797083 1.24485799
v -11.59612027 -0.16815324 1.24483776
v -11.59610988 0.20818878 1.24483496
v -11.59610028 -0.40000006 1.24482732
v -11.59610000 -0.16841310 1.24482729
v -11.59610070 0.20841300 1.24482733
v -11.59610042 0.43999996 1.24482731
v -11.59233048 -0.16422811 1.24286486
v -11.59233074 0.20422666 1.24286475
v -11.59217077 0.20435302 1.24277932
v -11.59213952 -0.16437806 1.24276603
v -11.59201998 0.20450594 1.24270344
v -11.59198084 -0.16456296 1.24268065
v -11.59190002 0.20468094 1.24263892
v -11.59184033 -0.16477693 1.24261132
v -11.59179985 0.20487528 1.24258716
v -11.59174926 -0.16501413 1.24256031
v -11.59171985 0.20508427 1.24254935
v -11.59168029 -0.16526613 1.24252910
v -11.59168018 0.20530195 1.24252635
v -11.59166951 -0.39999982 1.24251852
v -11.59166981 -0.16552686 1.24251855
v -11.59166993 0.20552603 1.24251848
v -11.59166949 0.43999974 1.24251851
v -11.65912931 -0.39000003 1.30784154
v -11.65672000 -0.43207114 1.31246034
v -11.65671932 -0.39520700 1.31246026
v -11.65469039 -0.39000000 1.30553284
v -11.65229026 -0.43000020 1.31015151
v -11.65228945 -0.39520707 1.31015146
v -11.64969042 -0.43999993 1.30879916
v -11.64784992 -0.43500007 1.30784276
v -11.58575954 -0.43499982 1.27552043
v -11.58392019 -0.43999988 1.27456396
v -11.58373018 -0.38999992 1.26859276
v -11.58132002 -0.42999994 1.27321165
v -11.58132019 -0.39520689 1.27321160
v -11.57929021 -0.39000003 1.26628405
v -11.57688995 -0.43207124 1.27090288
v -11.57688926 -0.39520710 1.27090292
v -11.23263972 0.00036103 0.32931703
v -11.23264025 0.00548083 0.32931702
v -11.23264002 0.01305113 0.32931703
v -11.23263989 0.01807276 0.32931702
v -11.23228974 0.01383399 0.32801395
v -11.23220038 0.00135995 0.32765501
v -11.23161992 0.00698192 0.32548695
v -11.23141995 0.00726919 0.32477300
v -11.23142039 0.01132998 0.32475500
v -11.23137970 0.00347432 0.32459395
v -11.23137980 0.00348633 0.32460801
v -11.23138031 0.00349370 0.32461397
v -11.23138006 0.00349881 0.32461803
v -11.23138040 0.00350272 0.32462005
v -11.23137984 0.00350695 0.32462005
v -11.23137988 0.00350997 0.32462101
v -11.23137991 0.00351298 0.32462101
v -11.23138026 0.00351690 0.32462005
v -11.23138030 0.00351992 0.32461899
v -11.23138034 0.00352294 0.32461696
v -11.23138011 0.00352809 0.32461303
v -11.23137988 0.00353324 0.32460695
v -11.23137956 0.00354097 0.32459395
v -11.23138016 0.01486708 0.32459395
v -11.23138027 0.01487911 0.32460396
v -11.23138032 0.01488513 0.32460897
v -11.23138023 0.01489070 0.32461196
v -11.23137967 0.01489492 0.32461303
v -11.23137970 0.01489794 0.32461302
v -11.23138033 0.01489974 0.32461303
v -11.23138036 0.01490276 0.32461303
v -11.23138009 0.01490488 0.32461194
v -11.23138013 0.01490789 0.32461100
v -11.23137985 0.01491001 0.32460897
v -11.23137990 0.01491304 0.32460600
v -11.23137994 0.01491607 0.32460206
v -11.23137973 0.01492123 0.32459205
v -11.23137068 0.00345686 0.32456797
v -11.23136999 0.00355400 0.32456403
v -11.23137045 0.01483881 0.32455795
v -11.23137087 0.01485472 0.32458001
v -11.23137008 0.01492820 0.32456999
v -11.23135990 0.01481688 0.32452504
v -11.23135070 0.00341618 0.32449096
v -11.23135044 0.01494095 0.32447797
v -11.23132036 0.00361081 0.32438498
v -11.23131060 0.00335497 0.32435506
v -11.23126998 0.01459312 0.32419305
v -11.23123023 0.01449496 0.32405298
v -11.23121988 0.00372384 0.32402699
v -11.23117056 0.01497169 0.32383602
v -11.23088002 0.00264417 0.32273799
v -11.23088059 0.00979687 0.32274597
v -11.23079003 0.00953610 0.32238799
v -11.23070981 0.00932896 0.32210403
v -11.23066019 0.00920208 0.32192903
v -11.23061972 0.00842512 0.32176500
v -11.23055951 0.00893830 0.32156306
v -11.23055018 0.00852304 0.32149105
v -11.23052998 0.00885519 0.32144205
v -11.23051033 0.00203487 0.32136099
v -11.23051024 0.00466225 0.32136099
v -11.23051060 0.00880169 0.32136397
v -11.23050981 0.01254100 0.32134300
v -11.23050993 0.01516621 0.32136100
v -11.23049966 0.00876686 0.32131104
v -11.23049074 0.00860099 0.32129304
v -11.23048985 0.00874416 0.32127694
v -11.23047966 0.00862416 0.32125501
v -11.23047941 0.00863794 0.32123797
v -11.23047968 0.00869994 0.32123200
v -11.23047948 0.00871107 0.32124095
v -11.23047930 0.00872520 0.32125502
v -11.23047034 0.00864667 0.32122998
v -11.23046983 0.00865393 0.32122605
v -11.23047050 0.00865876 0.32122296
v -11.23047057 0.00866479 0.32122199
v -11.23046974 0.00867114 0.32122104
v -11.23046980 0.00867716 0.32122200
v -11.23046987 0.00868319 0.32122295
v -11.23047055 0.00869102 0.32122604
v -11.22971947 0.00574093 0.31842201
v -11.22967915 0.01027514 0.31825595
v -11.22967957 0.01029105 0.31827706
v -11.22937000 -0.00376585 0.31710797
v -11.22936934 0.00007021 0.31710797
v -11.22936991 0.00621378 0.31710797
v -11.22936952 0.00943819 0.31710796
v -11.22936940 0.01560017 0.31710796
v -11.22936923 0.01949306 0.31710796
v -11.23263988 -0.07249289 0.32931702
v -11.23264000 -0.06179230 0.32931702
v -11.23263961 -0.06149596 0.32931404
v -11.23258012 -0.05940309 0.32909005
v -11.23253977 -0.05873901 0.32892601
v -11.23245935 -0.05803980 0.32862704
v -11.23240949 -0.05772110 0.32846300
v -11.23234021 -0.05725792 0.32818298
v -11.23226944 -0.05694769 0.32791703
v -11.23215982 -0.05662500 0.32753199
v -11.23203065 -0.05626621 0.32701498
v -11.23195067 -0.05614301 0.32674795
v -11.23187004 -0.05605980 0.32644599
v -11.23179015 -0.07305285 0.32614200
v -11.23179015 -0.06205804 0.32614201
v -11.23177938 -0.06140983 0.32611196
v -11.23177034 -0.06111835 0.32605700
v -11.23177018 -0.05601802 0.32606404
v -11.23174959 -0.06089587 0.32597702
v -11.23168963 -0.06053365 0.32577699
v -11.23166997 -0.06038106 0.32567006
v -11.23164066 -0.06029994 0.32559400
v -11.23162017 -0.06024003 0.32551497
v -11.23160063 -0.06019200 0.32542401
v -11.23156978 -0.06015920 0.32532601
v -11.23152963 -0.06013608 0.32517795
v -11.23148008 -0.05603702 0.32497996
v -11.23142975 -0.06013220 0.32480900
v -11.23138931 -0.06014782 0.32465904
v -11.23135958 -0.06018191 0.32453697
v -11.23136004 -0.05612974 0.32452802
v -11.23133004 -0.06023877 0.32441501
v -11.23125984 -0.06040810 0.32415395
v -11.23122003 -0.06052390 0.32401400
v -11.23119033 -0.06065995 0.32389800
v -11.23113047 -0.06100914 0.32367998
v -11.23110975 -0.05649367 0.32359199
v -11.23109977 -0.06125889 0.32356601
v -11.23107016 -0.06162208 0.32346206
v -11.23104975 -0.06206068 0.32337397
v -11.23103967 -0.07356304 0.32334904
v -11.23103967 -0.06256823 0.32334905
v -11.23099023 -0.05674812 0.32316106
v -11.23078026 -0.05744097 0.32236498
v -11.23067968 -0.05786479 0.32201104
v -11.23053016 -0.05885707 0.32144396
v -11.23051043 -0.05900486 0.32137804
v -11.23045006 -0.05980184 0.32113498
v -11.23043938 -0.05992916 0.32109504
v -11.23043052 -0.05999298 0.32104294
v -11.23043022 -0.05999088 0.32104903
v -11.23043055 -0.05998699 0.32105606
v -11.23043028 -0.05998188 0.32106297
v -11.23043005 -0.05997376 0.32107000
v -11.23042972 -0.05996007 0.32108002
v -11.23041998 -0.05999432 0.32102996
v -11.23041997 -0.05999434 0.32103603
v -11.23041942 -0.05999308 0.32102100
v -11.23041948 -0.05999003 0.32101195
v -11.23041039 -0.05998431 0.32100002
v -11.23041057 -0.05997220 0.32098406
v -11.23040981 -0.05996280 0.32097297
v -11.23039944 -0.05992879 0.32093803
v -11.23038966 -0.05989600 0.32090704
v -11.23037928 -0.05986199 0.32087403
v -11.23037004 -0.05981316 0.32082503
v -11.23035036 -0.05974500 0.32075506
v -11.23024029 -0.07019986 0.32033901
v -11.23024006 -0.06419275 0.32033901
v -11.23000926 -0.05863796 0.31948094
v -11.22936943 -0.07469707 0.31710796
v -11.22936916 -0.07078698 0.31710797
v -11.22936978 -0.06196309 0.31710796
v -11.22937009 -0.05673019 0.31710797
v -11.23265976 -0.01219708 0.32937102
v -11.23265991 -0.00852782 0.32937102
v -11.23264990 -0.00809894 0.32935804
v -11.23263061 -0.01337839 0.32927399
v -11.23261073 -0.00706095 0.32921295
v -11.23255947 -0.01448082 0.32900100
v -11.23253976 -0.00611276 0.32892304
v -11.23243981 -0.01556113 0.32854896
v -11.23242054 -0.00526386 0.32850604
v -11.23228041 -0.00451976 0.32797699
v -11.23226977 -0.01658387 0.32791595
v -11.23214953 -0.00399088 0.32746797
v -11.23205015 -0.01750294 0.32711701
v -11.23195954 -0.00345888 0.32677202
v -11.23179966 -0.01826695 0.32618504
v -11.23177982 -0.01189698 0.32610696
v -11.23177989 -0.00951992 0.32610696
v -11.23176977 -0.01239287 0.32606999
v -11.23176986 -0.00903291 0.32606999
v -11.23174995 -0.00305097 0.32600098
v -11.23173994 -0.01295518 0.32593804
v -11.23173991 -0.00855430 0.32595699
v -11.23169028 -0.00812712 0.32577699
v -11.23168036 -0.01349315 0.32571201
v -11.23162981 -0.00775196 0.32554095
v -11.23159008 -0.01398029 0.32540506
v -11.23155980 -0.00745411 0.32527797
v -11.23152961 -0.01883713 0.32517200
v -11.23153020 -0.00277496 0.32515698
v -11.23148989 -0.01440315 0.32503002
v -11.23146986 -0.00718795 0.32495396
v -11.23137981 -0.01473516 0.32462398
v -11.23137994 -0.00698319 0.32459299
v -11.23128024 -0.01917212 0.32423894
v -11.23127991 -0.00264297 0.32424097
v -11.23127061 -0.01498310 0.32419495
v -11.23127066 -0.00684326 0.32420295
v -11.23115950 -0.00677018 0.32378702
v -11.23115015 -0.01514990 0.32375496
v -11.23105027 -0.00676736 0.32336299
v -11.23103978 -0.01934127 0.32332998
v -11.23103961 -0.00266583 0.32332997
v -11.23102053 -0.01524424 0.32327704
v -11.23102090 -0.00677398 0.32327705
v -11.23100049 -0.01525307 0.32318800
v -11.23100008 -0.00678505 0.32318800
v -11.23098992 -0.01936100 0.32313495
v -11.23098988 -0.00268813 0.32313495
v -11.23098076 -0.01526099 0.32310003
v -11.23086955 -0.00687908 0.32270997
v -11.23086052 -0.01525790 0.32267695
v -11.23074936 -0.01518482 0.32226197
v -11.23075000 -0.00704619 0.32226997
v -11.23074010 -0.01938512 0.32222503
v -11.23074036 -0.00285718 0.32222800
v -11.23065018 -0.01504485 0.32187205
v -11.23063989 -0.00729383 0.32184201
v -11.23055015 -0.01484013 0.32151096
v -11.23052982 -0.00762584 0.32143503
v -11.23049960 -0.01925400 0.32131104
v -11.23049040 -0.00319095 0.32129495
v -11.23045931 -0.01457366 0.32118694
v -11.23043053 -0.00804900 0.32105904
v -11.23039020 -0.01427612 0.32092397
v -11.23035004 -0.00853701 0.32075302
v -11.23032974 -0.01390096 0.32068805
v -11.23028987 -0.00907377 0.32052700
v -11.23028010 -0.01347378 0.32050805
v -11.23027033 -0.01897923 0.32046800
v -11.23025015 -0.01299518 0.32039504
v -11.23025025 -0.00963521 0.32039505
v -11.23024071 -0.01250937 0.32035796
v -11.23024050 -0.01013020 0.32035797
v -11.23022004 -0.00376204 0.32028204
v -11.23006043 -0.01857223 0.31969696
v -11.22997060 -0.00452591 0.31935101
v -11.22987964 -0.01803989 0.31900196
v -11.22976003 -0.00544508 0.31855099
v -11.22973941 -0.01750015 0.31848304
v -11.22960065 -0.01675502 0.31795495
v -11.22958999 -0.00646782 0.31791800
v -11.22949019 -0.01590412 0.31753903
v -11.22946943 -0.00754782 0.31746595
v -11.22941002 -0.01495627 0.31725101
v -11.22938998 -0.00865092 0.31719404
v -11.22936935 -0.01391677 0.31710797
v -11.22936990 -0.01350113 0.31709604
v -11.22936973 -0.00983278 0.31709604
v -11.23266011 -0.04787811 0.32937102
v -11.23266010 -0.04420930 0.32937102
v -11.23264994 -0.04378087 0.32935804
v -11.23263007 -0.04905911 0.32927398
v -11.23261061 -0.04274335 0.32921402
v -11.23255983 -0.05016185 0.32900100
v -11.23253933 -0.04179605 0.32892399
v -11.23243926 -0.05124186 0.32854896
v -11.23242043 -0.04094625 0.32850604
v -11.23228029 -0.04020215 0.32797794
v -11.23226997 -0.05226536 0.32791596
v -11.23214989 -0.03967191 0.32746701
v -11.23205050 -0.05318398 0.32711701
v -11.23195989 -0.03913992 0.32677202
v -11.23180001 -0.05394798 0.32618504
v -11.23177928 -0.04757770 0.32610696
v -11.23177934 -0.04520065 0.32610696
v -11.23177012 -0.04807391 0.32607000
v -11.23177022 -0.04471394 0.32607000
v -11.23175031 -0.03873201 0.32600003
v -11.23173939 -0.04863590 0.32593804
v -11.23173937 -0.04423502 0.32595699
v -11.23168973 -0.04380785 0.32577699
v -11.23168071 -0.04917419 0.32571201
v -11.23163017 -0.04343300 0.32554096
v -11.23158953 -0.04966101 0.32540504
v -11.23156016 -0.04313515 0.32527798
v -11.23152996 -0.05451817 0.32517200
v -11.23152949 -0.03845613 0.32515698
v -11.23148993 -0.05008508 0.32503002
v -11.23146975 -0.04287034 0.32495396
v -11.23138016 -0.05041619 0.32462399
v -11.23137997 -0.04266513 0.32459395
v -11.23127969 -0.05485285 0.32423894
v -11.23128026 -0.03832400 0.32424097
v -11.23127006 -0.05066383 0.32419495
v -11.23127070 -0.04252520 0.32420402
v -11.23115953 -0.04245212 0.32378797
v -11.23115050 -0.05083094 0.32375495
v -11.23105030 -0.04244930 0.32336501
v -11.23103923 -0.05502199 0.32332998
v -11.23103980 -0.03834731 0.32332997
v -11.23102088 -0.05092528 0.32327704
v -11.23102031 -0.04245771 0.32327705
v -11.23100084 -0.05093410 0.32318799
v -11.23100012 -0.04246699 0.32318800
v -11.23099028 -0.05504204 0.32313494
v -11.23099023 -0.03836917 0.32313494
v -11.23098021 -0.05094171 0.32310001
v -11.23086990 -0.04256012 0.32271105
v -11.23085982 -0.05093907 0.32267695
v -11.23074971 -0.05086585 0.32226102
v -11.23074945 -0.04272691 0.32226997
v -11.23074046 -0.05506615 0.32222503
v -11.23073981 -0.03853790 0.32222801
v -11.23065054 -0.05072589 0.32187098
v -11.23064024 -0.04297487 0.32184201
v -11.23055051 -0.05052117 0.32151096
v -11.23053048 -0.04330597 0.32143502
v -11.23049996 -0.05493503 0.32131104
v -11.23048985 -0.03887168 0.32129495
v -11.23045920 -0.05025604 0.32118694
v -11.23042998 -0.04372973 0.32106000
v -11.23039024 -0.04995806 0.32092397
v -11.23034981 -0.04421683 0.32075303
v -11.23032978 -0.04958289 0.32068805
v -11.23028948 -0.04475404 0.32052701
v -11.23028014 -0.04915572 0.32050900
v -11.23026978 -0.05465996 0.32046800
v -11.23025019 -0.04867711 0.32039504
v -11.23024970 -0.04531593 0.32039505
v -11.23024017 -0.04819009 0.32035796
v -11.23024055 -0.04581214 0.32035797
v -11.23022039 -0.03944308 0.32028203
v -11.23005989 -0.05425295 0.31969695
v -11.22997080 -0.04020740 0.31935100
v -11.22987999 -0.05372092 0.31900196
v -11.22975979 -0.04112490 0.31855100
v -11.22973945 -0.05318209 0.31848304
v -11.22960069 -0.05243696 0.31795495
v -11.22959035 -0.04214885 0.31791799
v -11.22949024 -0.05158606 0.31753903
v -11.22946978 -0.04322886 0.31746595
v -11.22940947 -0.05063700 0.31725101
v -11.22938928 -0.04433209 0.31719404
v -11.22936970 -0.04959781 0.31710797
v -11.22936935 -0.04918186 0.31709604
v -11.22936993 -0.04551426 0.31709604
v -11.23263993 0.09571307 0.32931703
v -11.23263976 0.10640115 0.32931702
v -11.23261965 0.10783289 0.32923799
v -11.23255962 0.10922416 0.32899504
v -11.23249052 0.10987477 0.32876102
v -11.23236019 0.11082526 0.32825905
v -11.23228967 0.11114795 0.32801001
v -11.23220942 0.11144506 0.32769006
v -11.23205077 0.11187287 0.32710605
v -11.23197947 0.11201528 0.32683699
v -11.23189943 0.11210622 0.32656602
v -11.23180973 0.11216298 0.32622294
v -11.23179034 0.09513894 0.32614201
v -11.23179007 0.10613586 0.32614200
v -11.23177988 0.10678286 0.32611196
v -11.23177041 0.10707600 0.32605701
v -11.23175041 0.10729772 0.32597701
v -11.23168958 0.10766328 0.32577495
v -11.23166002 0.10781930 0.32566505
v -11.23164062 0.10789699 0.32558995
v -11.23161982 0.10795600 0.32551103
v -11.23160028 0.10800403 0.32541900
v -11.23156985 0.10803515 0.32532601
v -11.23152938 0.10805737 0.32517796
v -11.23150949 0.11216689 0.32508700
v -11.23142981 0.10806215 0.32480995
v -11.23138922 0.10804608 0.32465903
v -11.23137986 0.11208716 0.32461695
v -11.23135949 0.10801199 0.32453804
v -11.23133026 0.10795602 0.32441800
v -11.23125981 0.10779480 0.32416694
v -11.23121942 0.10768022 0.32402603
v -11.23122017 0.11187015 0.32399302
v -11.23119007 0.10754809 0.32391005
v -11.23113009 0.10718686 0.32368296
v -11.23109974 0.10694104 0.32356804
v -11.23106982 0.10657694 0.32346396
v -11.23105920 0.11160295 0.32340806
v -11.23104997 0.10613412 0.32337396
v -11.23103927 0.09462996 0.32334905
v -11.23103943 0.10562522 0.32334905
v -11.23094976 0.11132823 0.32300597
v -11.23076040 0.11068086 0.32229595
v -11.23067089 0.11026872 0.32197004
v -11.23053045 0.10929993 0.32142799
v -11.23051951 0.10920098 0.32138304
v -11.23044997 0.10839206 0.32113605
v -11.23044004 0.10826398 0.32109504
v -11.23042981 0.10819912 0.32104294
v -11.23043041 0.10820090 0.32104903
v -11.23042983 0.10820511 0.32105606
v -11.23043047 0.10820990 0.32106298
v -11.23043024 0.10821803 0.32107001
v -11.23043007 0.10823217 0.32108002
v -11.23041943 0.10819823 0.32102996
v -11.23041941 0.10819821 0.32103604
v -11.23041977 0.10819916 0.32102100
v -11.23041967 0.10820175 0.32101195
v -11.23040983 0.10820824 0.32100002
v -11.23041045 0.10821869 0.32098406
v -11.23041031 0.10822989 0.32097296
v -11.23039995 0.10826390 0.32093804
v -11.23039032 0.10829714 0.32090598
v -11.23037979 0.10833070 0.32087295
v -11.23037011 0.10838119 0.32082396
v -11.23034996 0.10844801 0.32075505
v -11.23024020 0.09799404 0.32033902
v -11.23023997 0.10400116 0.32033901
v -11.23000917 0.10955594 0.31948095
v -11.22936950 0.09349729 0.31710797
v -11.22937013 0.09740706 0.31710797
v -11.22936938 0.10622991 0.31710796
v -11.22936969 0.11146281 0.31710796
v -11.23263953 0.05126319 0.32931702
v -11.23264011 0.06224216 0.32931703
v -11.23261044 0.04938205 0.32920997
v -11.23253046 0.04807299 0.32888703
v -11.23245937 0.04734694 0.32861798
v -11.23238056 0.04686683 0.32833700
v -11.23221001 0.04607589 0.32769995
v -11.23212986 0.04580172 0.32739096
v -11.23203985 0.04559517 0.32705395
v -11.23191965 0.04539999 0.32662003
v -11.23178973 0.05014016 0.32613902
v -11.23179001 0.05037720 0.32614200
v -11.23179026 0.05914168 0.32614200
v -11.23177969 0.04968514 0.32610100
v -11.23177031 0.04519873 0.32607799
v -11.23176960 0.04950113 0.32605403
v -11.23174999 0.04933617 0.32598203
v -11.23171044 0.04912489 0.32584803
v -11.23168958 0.04903505 0.32577495
v -11.23168041 0.04898197 0.32571595
v -11.23166951 0.04895314 0.32567101
v -11.23164971 0.04891591 0.32559602
v -11.23164062 0.04510404 0.32556897
v -11.23162012 0.04888822 0.32550196
v -11.23159011 0.04887085 0.32538502
v -11.23151998 0.04886501 0.32511704
v -11.23148017 0.04886879 0.32497900
v -11.23144994 0.04888579 0.32486801
v -11.23142944 0.04890783 0.32479696
v -11.23141008 0.04893903 0.32473403
v -11.23139990 0.04898217 0.32467406
v -11.23138966 0.04902526 0.32463103
v -11.23137982 0.04907828 0.32459300
v -11.23137007 0.04915195 0.32455496
v -11.23136021 0.04926907 0.32451598
v -11.23135065 0.04509411 0.32447700
v -11.23134002 0.04951088 0.32447105
v -11.23133987 0.05007315 0.32444398
v -11.23134021 0.05695097 0.32444399
v -11.23133041 0.05750590 0.32443695
v -11.23131000 0.05868000 0.32433503
v -11.23127078 0.05918712 0.32420402
v -11.23123945 0.04514390 0.32408397
v -11.23121935 0.05963819 0.32400995
v -11.23116983 0.04522415 0.32381898
v -11.23109954 0.04535204 0.32356005
v -11.23109037 0.06038274 0.32353502
v -11.23103938 0.04551815 0.32333403
v -11.23102981 0.06067013 0.32329898
v -11.23098077 0.06083070 0.32311599
v -11.23096060 0.04581967 0.32304005
v -11.23092031 0.06096104 0.32290201
v -11.23086062 0.06104978 0.32267897
v -11.23083997 0.04639017 0.32259004
v -11.23078979 0.06111185 0.32239704
v -11.23077981 0.04674594 0.32237999
v -11.23073993 0.04717220 0.32221298
v -11.23070931 0.04773634 0.32209497
v -11.23068990 0.04924301 0.32201700
v -11.23068923 0.05613833 0.32201700
v -11.23067980 0.05666798 0.32199197
v -11.23067074 0.05690695 0.32194906
v -11.23066017 0.05702784 0.32190900
v -11.23065061 0.05710498 0.32187098
v -11.23065056 0.06114412 0.32188301
v -11.23064018 0.05715922 0.32183200
v -11.23063026 0.05720321 0.32178896
v -11.23061087 0.05724601 0.32172899
v -11.23059076 0.05727796 0.32166605
v -11.23057063 0.05730393 0.32159095
v -11.23054013 0.05732306 0.32147603
v -11.23048006 0.05732913 0.32126396
v -11.23045945 0.06113618 0.32116703
v -11.23041016 0.05731517 0.32098704
v -11.23037915 0.05729205 0.32088201
v -11.23035942 0.05725788 0.32079499
v -11.23033937 0.05721118 0.32071595
v -11.23032006 0.05715206 0.32064800
v -11.23030980 0.06105927 0.32059496
v -11.23028985 0.05704383 0.32055598
v -11.23026007 0.05685791 0.32042698
v -11.23024061 0.05670503 0.32035106
v -11.23023005 0.05654592 0.32030205
v -11.23022039 0.05626989 0.32026296
v -11.23020984 0.04623901 0.32024805
v -11.23021000 0.05581691 0.32024806
v -11.23016003 0.06088592 0.32005005
v -11.22997044 0.06057320 0.31933097
v -11.22988021 0.06036613 0.31901495
v -11.22980013 0.06006878 0.31869500
v -11.22962953 0.05930403 0.31807404
v -11.22956061 0.05883507 0.31780498
v -11.22948988 0.05811594 0.31754106
v -11.22939996 0.05680730 0.31721501
v -11.22936992 0.04315867 0.31710796
v -11.22936927 0.05493025 0.31710796
v -11.23263989 0.06386597 0.32931703
v -11.23264003 0.07822377 0.32931703
v -11.23178995 0.06073021 0.32614200
v -11.23179023 0.06666297 0.32614200
v -11.23178988 0.07059327 0.32614200
v -11.23179008 0.07508800 0.32614200
v -11.22936935 0.06501830 0.31710797
v -11.22937002 0.06893110 0.31710797
v -11.23264019 -0.03593210 0.32931703
v -11.23264020 -0.02487019 0.32931703
v -11.23263074 -0.02384197 0.32928698
v -11.23259927 -0.02294200 0.32916705
v -11.23255938 -0.02243403 0.32901005
v -11.23249047 -0.02191712 0.32875995
v -11.23238026 -0.02123476 0.32832794
v -11.23231992 -0.02096415 0.32810394
v -11.23226972 -0.02080113 0.32791500
v -11.23220990 -0.02066898 0.32769696
v -11.23214963 -0.02057901 0.32747000
v -11.23207068 -0.02051712 0.32718103
v -11.23193009 -0.02048589 0.32666294
v -11.23178991 -0.03648783 0.32614200
v -11.23179039 -0.02530498 0.32614201
v -11.23179048 -0.02501026 0.32612603
v -11.23178007 -0.02484806 0.32609098
v -11.23175932 -0.02467509 0.32602399
v -11.23175029 -0.02456729 0.32597297
v -11.23173010 -0.02448593 0.32592600
v -11.23172011 -0.02444499 0.32589298
v -11.23172071 -0.02051197 0.32588702
v -11.23171002 -0.02441308 0.32585698
v -11.23170036 -0.02438584 0.32581502
v -11.23169017 -0.02436596 0.32576697
v -11.23168008 -0.02435165 0.32571702
v -11.23164976 -0.02434070 0.32561200
v -11.23163008 -0.02058613 0.32555704
v -11.23158056 -0.02434086 0.32535402
v -11.23154029 -0.02435006 0.32522302
v -11.23150946 -0.02437270 0.32510798
v -11.23149006 -0.02440297 0.32502704
v -11.23148002 -0.02444109 0.32496196
v -11.23146019 -0.02448997 0.32490104
v -11.23146032 -0.02084996 0.32489698
v -11.23144990 -0.02454624 0.32485203
v -11.23142017 -0.02469097 0.32476097
v -11.23137975 -0.02496602 0.32462494
v -11.23137065 -0.02514428 0.32457094
v -11.23137081 -0.02104620 0.32458596
v -11.23135962 -0.03677190 0.32453602
v -11.23136042 -0.02558815 0.32453601
v -11.23135965 -0.02542996 0.32453900
v -11.23123975 -0.02148606 0.32408100
v -11.23118005 -0.02175309 0.32386797
v -11.23109983 -0.02224024 0.32357698
v -11.23105014 -0.02273487 0.32338600
v -11.23104974 -0.02266905 0.32336598
v -11.23101033 -0.02227631 0.32321505
v -11.23098041 -0.02207471 0.32309705
v -11.23094010 -0.02191487 0.32296495
v -11.23089016 -0.02175101 0.32279198
v -11.23078992 -0.02144210 0.32239394
v -11.23072987 -0.02132509 0.32219498
v -11.23068029 -0.02124496 0.32198696
v -11.23066002 -0.03333399 0.32192604
v -11.23065949 -0.02613495 0.32192604
v -11.23065970 -0.02565911 0.32190304
v -11.23064000 -0.02543919 0.32186405
v -11.23063026 -0.02532465 0.32182699
v -11.23063029 -0.02525184 0.32179099
v -11.23061967 -0.02520108 0.32175402
v -11.23061032 -0.02119190 0.32173603
v -11.23059991 -0.02515924 0.32171302
v -11.23059073 -0.02511899 0.32165794
v -11.23057068 -0.02508400 0.32158798
v -11.23055050 -0.02506105 0.32151502
v -11.23051969 -0.02504282 0.32139998
v -11.23052002 -0.02116883 0.32141297
v -11.23047992 -0.02503900 0.32125001
v -11.23041001 -0.02504702 0.32100002
v -11.23039050 -0.02506605 0.32089596
v -11.23035921 -0.02509572 0.32080906
v -11.23033995 -0.02514017 0.32072895
v -11.23032067 -0.02519626 0.32065801
v -11.23030020 -0.02529675 0.32056599
v -11.23028974 -0.02119473 0.32051998
v -11.23026029 -0.02548870 0.32042496
v -11.23024078 -0.02563299 0.32034902
v -11.23022955 -0.02577069 0.32030205
v -11.23021990 -0.02600585 0.32026403
v -11.23020954 -0.03363599 0.32024806
v -11.23020960 -0.02643817 0.32024805
v -11.23013984 -0.02131304 0.31997495
v -11.22995021 -0.02155869 0.31926994
v -11.22988028 -0.02170390 0.31900995
v -11.22981042 -0.02190719 0.31875604
v -11.22965995 -0.02251421 0.31820194
v -11.22960056 -0.02287098 0.31794803
v -11.22954014 -0.02332390 0.31772297
v -11.22942939 -0.02451808 0.31733399
v -11.22940056 -0.02516499 0.31720095
v -11.22936978 -0.03813326 0.31710797
v -11.22937003 -0.02702399 0.31710797
v -11.26050049 0.04039410 0.43326298
v -11.26049014 -0.02555503 0.43326097
v -11.26039986 0.04484914 0.43289594
v -11.26010016 0.04924971 0.43177599
v -11.25960038 0.05338308 0.42993706
v -11.25892940 0.05712597 0.42743604
v -11.25810003 0.06036414 0.42434697
v -11.25714994 0.06299988 0.42076295
v -11.25608016 0.06495516 0.41679305
v -11.25565051 -0.01314808 0.41518802
v -11.25565050 0.01356896 0.41518704
v -11.25565052 0.04039398 0.41518705
v -11.25561956 0.04218788 0.41507200
v -11.25554971 0.04346608 0.41480701
v -11.25544967 0.04446402 0.41444401
v -11.25532937 0.04526594 0.41400699
v -11.25519040 0.04596376 0.41346805
v -11.25501989 0.04656399 0.41282004
v -11.25495011 0.06616903 0.41255707
v -11.25482048 0.04705399 0.41208702
v -11.25457973 0.04747323 0.41119104
v -11.25430978 0.04774914 0.41018895
v -11.25394027 0.04788403 0.40881497
v -11.25377078 0.06660685 0.40818195
v -11.25337999 0.04786906 0.40672700
v -11.25307976 0.04773014 0.40559798
v -11.25282992 0.04745791 0.40465705
v -11.25259983 0.06625517 0.40379900
v -11.25258016 0.04700803 0.40371995
v -11.25238000 0.04648669 0.40297000
v -11.25235047 -0.00149226 0.40285794
v -11.25235044 0.02518392 0.40285796
v -11.25222984 0.04595929 0.40241400
v -11.25208067 0.04525691 0.40187304
v -11.25197033 0.04447197 0.40144603
v -11.25187976 0.04355216 0.40110402
v -11.25179974 0.04214107 0.40080804
v -11.25176962 -0.01314804 0.40069895
v -11.25176963 0.04039401 0.40069893
v -11.25175959 -0.01314800 0.40067404
v -11.25145928 0.06512294 0.39954095
v -11.25038956 0.06324606 0.39553599
v -11.24941054 0.06067970 0.39190596
v -11.24856970 0.05750333 0.38875799
v -11.24787987 0.05380997 0.38618904
v -11.24737001 0.04971290 0.38427597
v -11.24705024 0.04533501 0.38307505
v -11.24692935 0.00566730 0.38262599
v -11.24692975 0.04039392 0.38262397
v -11.24692964 0.04080772 0.38262395
v -11.23953957 -0.02616723 0.35504501
v -11.23900997 -0.03051408 0.35308103
v -11.23900999 -0.00276165 0.35308104
v -11.24647925 0.04580520 0.38096803
v -11.24638051 0.04311174 0.38059203
v -11.24634998 0.01968003 0.38046604
v -11.24634965 0.04039419 0.38046604
v -11.24187016 0.01343991 0.36375802
v -11.24187041 0.03547688 0.36375802
v -11.24016963 0.04785898 0.35741096
v -11.24017014 0.06799813 0.35741096
v -11.23522012 0.06555140 0.33892100
v -11.23140037 0.07863163 0.32468205
v -11.23140025 0.09364194 0.32468204
v -11.23065995 0.07591084 0.32190805
v -11.23066042 0.09091993 0.32190805
v -11.23020964 0.07813211 0.32024806
v -11.23021003 0.09272394 0.32024806
v -11.22936995 0.07503200 0.31710796
v -11.22937006 0.08962595 0.31710797
v -11.23263986 0.07979812 0.32931703
v -11.23263943 0.09441092 0.32931702
v -11.23178996 0.07668000 0.32614200
v -11.23179028 0.09129204 0.32614200
v -11.23263985 0.03041482 0.32931702
v -11.23264012 0.03535305 0.32931702
v -11.23236035 0.03104493 0.32826596
v -11.23234024 0.03096298 0.32817499
v -11.23232994 0.03093890 0.32814997
v -11.23162078 0.03737906 0.32548897
v -11.23154015 0.03284576 0.32521097
v -11.23068022 0.03452789 0.32198196
v -11.23053001 0.03481693 0.32142703
v -11.23045057 0.03496779 0.32113795
v -11.23034971 0.03516426 0.32076804
v -11.23026033 0.03535612 0.32042997
v -11.23024067 0.03539806 0.32035702
v -11.23024062 0.03540368 0.32034498
v -11.23022989 0.03541915 0.32031004
v -11.23021999 0.03542530 0.32026403
v -11.23021991 0.03542521 0.32029002
v -11.23022028 0.03542617 0.32027095
v -11.23022026 0.03542615 0.32027905
v -11.23020980 0.03008791 0.32024805
v -11.23020999 0.03324399 0.32024805
v -11.23021026 0.03422178 0.32024805
v -11.23021003 0.03520384 0.32023197
v -11.23020985 0.03534621 0.32022899
v -11.23020947 0.03538013 0.32023303
v -11.23021025 0.03539699 0.32023805
v -11.23020975 0.03540724 0.32024305
v -11.23020934 0.03541191 0.32024603
v -11.23020999 0.03541671 0.32024996
v -11.23021016 0.03542016 0.32025401
v -11.23021018 0.03542316 0.32025903
v -11.22936947 0.02081196 0.31710796
v -11.22936937 0.02544000 0.31710797
v -11.22936927 0.02713997 0.31710797
v -11.22936968 0.04183977 0.31710796
f 13 12 15
f 16 13 15
f 6 3 5
f 3 2 5
f 16 9 13
f 8 7 6
f 7 3 6
f 10 9 16
f 15 11 14
f 10 7 8
f 10 8 9
f 5 2 1
f 5 1 4
f 15 12 11
f 55 53 69
f 56 55 69
f 62 61 80
f 83 68 82
f 68 67 82
f 70 33 52
f 78 59 76
f 76 59 74
f 59 58 74
f 74 58 72
f 82 62 80
f 42 19 22
f 42 22 24
f 42 24 26
f 50 33 70
f 46 30 33
f 48 46 33
f 50 48 33
f 38 36 19
f 70 52 54
f 70 54 57
f 71 70 57
f 77 75 60
f 79 77 60
f 81 79 60
f 71 57 60
f 73 71 60
f 75 73 60
f 83 81 60
f 83 60 63
f 83 63 66
f 83 66 68
f 64 62 82
f 65 64 82
f 67 65 82
f 51 32 49
f 69 51 49
f 49 32 47
f 47 32 45
f 25 23 43
f 23 21 43
f 27 25 43
f 29 27 43
f 36 20 19
f 61 59 78
f 80 61 78
f 44 42 28
f 42 26 28
f 46 44 30
f 44 28 30
f 39 18 35
f 41 18 39
f 21 18 41
f 43 21 41
f 45 32 43
f 32 31 43
f 18 17 34
f 35 18 34
f 31 29 43
f 53 51 69
f 72 58 69
f 58 56 69
f 42 40 19
f 37 20 36
f 40 38 19
f 143 124 141
f 135 121 123
f 135 118 121
f 116 97 135
f 135 97 118
f 116 115 97
f 115 112 97
f 112 96 97
f 112 109 96
f 145 124 143
f 147 126 145
f 126 124 145
f 150 128 147
f 128 126 147
f 151 134 150
f 134 133 150
f 139 124 137
f 107 87 105
f 141 124 139
f 108 89 107
f 132 131 148
f 149 132 148
f 149 129 132
f 149 127 129
f 146 125 127
f 149 146 127
f 144 142 125
f 142 140 125
f 140 138 125
f 138 123 125
f 146 144 125
f 138 135 123
f 109 94 96
f 110 93 108
f 91 89 108
f 95 93 110
f 93 91 108
f 111 98 110
f 113 98 111
f 114 98 113
f 98 95 110
f 117 98 114
f 119 98 117
f 124 122 136
f 136 119 117
f 137 124 136
f 120 119 136
f 122 120 136
f 89 87 107
f 133 130 150
f 87 85 105
f 105 85 104
f 104 85 102
f 102 85 100
f 100 85 99
f 99 85 84
f 101 99 84
f 103 101 84
f 106 103 84
f 106 84 86
f 106 86 88
f 106 88 90
f 106 90 92
f 106 92 94
f 109 106 94
f 130 128 150
f 155 154 157
f 155 152 154
f 165 164 167
f 156 154 153
f 157 154 156
f 165 162 164
f 164 163 166
f 166 163 161
f 156 153 159
f 160 159 158
f 159 153 158
f 160 158 161
f 163 160 161
f 167 164 166
f 208 172 176
f 207 208 176
f 210 207 176
f 216 176 220
f 231 216 220
f 231 220 221
f 231 221 222
f 231 222 223
f 229 249 206
f 213 229 206
f 217 229 213
f 254 244 249
f 244 243 249
f 243 242 249
f 242 241 249
f 255 245 254
f 251 240 239
f 251 235 240
f 251 233 235
f 251 230 233
f 251 227 230
f 231 225 227
f 251 231 227
f 231 223 225
f 245 244 254
f 255 246 245
f 255 247 246
f 255 248 247
f 255 250 248
f 250 238 248
f 250 251 238
f 251 239 238
f 202 171 201
f 201 171 200
f 200 171 199
f 199 171 198
f 198 171 197
f 197 171 196
f 196 171 195
f 195 171 194
f 216 215 176
f 215 210 176
f 172 171 170
f 192 193 172
f 193 194 172
f 194 171 172
f 208 191 172
f 191 192 172
f 256 257 212
f 232 256 212
f 218 232 212
f 212 257 209
f 209 257 204
f 204 257 203
f 257 171 203
f 203 171 202
f 211 205 173
f 228 219 173
f 188 241 187
f 241 237 187
f 189 241 188
f 190 241 189
f 206 241 190
f 249 241 206
f 253 173 252
f 228 173 253
f 174 169 168
f 226 224 168
f 224 175 168
f 175 174 168
f 173 236 168
f 236 234 168
f 234 226 168
f 183 184 173
f 182 183 173
f 184 185 173
f 185 186 173
f 186 187 173
f 179 180 173
f 180 181 173
f 181 182 173
f 187 237 173
f 237 236 173
f 205 177 173
f 177 178 173
f 178 179 173
f 219 214 173
f 214 211 173
f 262 261 276
f 277 262 276
f 263 262 277
f 278 263 277
f 314 290 291
f 314 289 290
f 279 265 278
f 264 263 278
f 293 295 326
f 295 296 326
f 316 315 326
f 297 299 326
f 296 297 326
f 317 316 326
f 318 317 326
f 330 318 326
f 315 313 326
f 313 314 326
f 314 291 326
f 260 259 272
f 273 260 272
f 319 318 330
f 322 321 330
f 321 320 330
f 320 319 330
f 331 327 330
f 327 324 330
f 324 323 330
f 323 322 330
f 273 261 260
f 274 261 273
f 276 261 274
f 308 285 286
f 307 308 286
f 314 307 286
f 270 269 282
f 275 270 282
f 283 275 282
f 314 286 287
f 269 268 281
f 292 293 326
f 291 292 326
f 326 299 325
f 272 259 271
f 259 258 271
f 325 299 298
f 329 325 298
f 329 298 328
f 282 269 281
f 314 287 289
f 267 266 280
f 268 267 280
f 281 268 280
f 266 265 279
f 280 266 279
f 265 264 278
f 284 275 283
f 288 284 283
f 294 288 283
f 300 294 283
f 301 300 283
f 302 301 283
f 303 302 283
f 304 303 283
f 305 304 283
f 306 305 283
f 312 306 283
f 309 310 283
f 308 309 283
f 285 308 283
f 310 311 283
f 311 312 283
f 354 338 353
f 334 333 350
f 353 334 350
f 414 396 398
f 416 414 398
f 350 333 348
f 416 398 402
f 416 402 419
f 419 402 404
f 348 333 347
f 347 333 332
f 347 332 349
f 352 349 335
f 349 332 335
f 419 404 418
f 404 403 418
f 403 401 418
f 418 401 417
f 401 399 417
f 355 352 337
f 352 335 337
f 417 399 415
f 357 355 339
f 355 337 339
f 415 399 413
f 399 397 413
f 361 357 342
f 357 339 342
f 413 397 411
f 397 395 411
f 411 395 410
f 338 336 353
f 373 366 369
f 371 373 369
f 379 371 375
f 386 379 375
f 386 375 377
f 392 386 377
f 366 360 368
f 369 366 368
f 395 393 410
f 382 378 385
f 383 382 385
f 391 383 385
f 380 372 378
f 382 380 378
f 376 365 372
f 380 376 372
f 387 383 391
f 400 387 391
f 374 359 365
f 376 374 365
f 406 387 400
f 370 346 359
f 374 370 359
f 389 387 406
f 408 389 406
f 363 344 346
f 367 363 346
f 370 367 346
f 393 389 408
f 410 393 408
f 361 342 344
f 363 361 344
f 405 384 388
f 407 405 388
f 343 341 358
f 362 343 358
f 407 388 390
f 409 407 390
f 341 340 356
f 358 341 356
f 392 377 381
f 405 392 381
f 351 345 364
f 360 351 364
f 368 360 364
f 405 381 384
f 345 343 362
f 364 345 362
f 409 390 394
f 412 409 394
f 340 338 354
f 356 340 354
f 412 394 396
f 414 412 396
f 336 334 353
f 379 373 371
f 503 487 501
f 487 485 501
f 449 445 430
f 445 427 430
f 501 485 499
f 485 483 499
f 499 483 498
f 483 481 498
f 497 478 482
f 500 497 482
f 428 426 442
f 444 428 442
f 500 482 484
f 502 500 484
f 424 422 441
f 426 424 441
f 451 449 432
f 449 430 432
f 498 481 496
f 481 477 496
f 458 455 434
f 455 451 434
f 451 432 434
f 496 477 494
f 507 490 492
f 436 421 435
f 435 421 420
f 435 420 437
f 440 437 423
f 437 420 423
f 507 492 506
f 492 491 506
f 491 489 506
f 506 489 505
f 489 487 505
f 443 440 425
f 440 423 425
f 505 487 503
f 445 443 427
f 443 425 427
f 446 429 444
f 429 428 444
f 497 495 478
f 495 476 478
f 450 431 446
f 431 429 446
f 495 493 476
f 493 472 476
f 452 433 450
f 433 431 450
f 493 469 472
f 456 448 452
f 448 439 452
f 439 433 452
f 493 480 469
f 480 465 469
f 504 490 507
f 504 486 490
f 438 421 436
f 504 502 486
f 502 484 486
f 441 422 438
f 422 421 438
f 442 426 441
f 462 458 447
f 488 475 479
f 462 447 453
f 464 462 453
f 477 475 494
f 458 434 447
f 475 471 479
f 468 460 466
f 494 475 488
f 470 466 473
f 479 471 473
f 471 470 473
f 464 453 460
f 470 468 466
f 468 464 460
f 457 454 456
f 461 454 457
f 459 461 457
f 467 459 463
f 474 467 463
f 474 463 465
f 480 474 465
f 454 448 456
f 467 461 459
f 509 508 520
f 546 548 575
f 521 509 520
f 575 548 574
f 578 574 547
f 574 548 547
f 578 547 577
f 565 544 579
f 571 570 579
f 570 569 579
f 569 568 579
f 580 576 579
f 576 573 579
f 573 572 579
f 572 571 579
f 565 543 544
f 515 514 527
f 528 515 527
f 562 536 537
f 516 515 528
f 529 516 528
f 530 518 529
f 517 516 529
f 518 517 529
f 562 534 536
f 531 532 530
f 532 519 530
f 519 518 530
f 562 533 534
f 533 562 531
f 562 563 531
f 563 556 531
f 523 510 522
f 564 542 543
f 565 564 543
f 511 510 523
f 524 511 523
f 564 541 542
f 512 511 524
f 525 512 524
f 564 539 541
f 513 512 525
f 526 513 525
f 562 538 539
f 564 562 539
f 562 537 538
f 514 513 526
f 527 514 526
f 579 546 575
f 579 544 546
f 510 509 521
f 522 510 521
f 568 567 579
f 567 566 579
f 566 565 579
f 545 540 531
f 540 535 531
f 535 532 531
f 554 553 531
f 553 552 531
f 552 551 531
f 551 550 531
f 550 549 531
f 549 545 531
f 556 557 531
f 557 558 531
f 561 555 531
f 555 554 531
f 558 559 531
f 559 560 531
f 560 561 531
f 622 621 644
f 659 653 652
f 671 658 660
f 672 671 660
f 653 645 651
f 652 653 651
f 667 659 654
f 659 652 654
f 645 635 650
f 651 645 650
f 633 632 650
f 635 633 650
f 667 654 655
f 668 667 655
f 632 630 649
f 630 629 649
f 649 629 648
f 629 627 648
f 650 632 649
f 664 666 676
f 582 581 592
f 593 582 592
f 668 655 656
f 669 668 656
f 671 670 657
f 648 627 647
f 669 656 657
f 670 669 657
f 627 624 647
f 647 624 646
f 671 657 658
f 624 622 646
f 674 663 664
f 641 619 640
f 646 622 644
f 597 584 585
f 598 597 585
f 613 612 637
f 644 621 643
f 643 621 642
f 621 620 642
f 673 672 661
f 672 660 661
f 674 673 662
f 673 661 662
f 642 620 641
f 620 619 641
f 674 662 663
f 617 615 639
f 618 617 639
f 674 664 676
f 592 581 591
f 594 591 583
f 596 594 583
f 591 581 583
f 640 619 639
f 597 596 584
f 614 613 638
f 619 618 639
f 596 583 584
f 615 614 638
f 639 615 638
f 600 599 586
f 638 613 637
f 609 608 625
f 628 609 626
f 598 585 586
f 599 598 586
f 637 612 636
f 612 611 634
f 636 612 634
f 601 600 587
f 600 586 587
f 611 610 631
f 634 611 631
f 601 587 588
f 602 601 589
f 601 588 589
f 610 609 628
f 631 610 628
f 607 606 603
f 606 605 603
f 602 589 590
f 604 602 590
f 625 608 623
f 604 590 595
f 605 604 595
f 626 609 625
f 666 665 675
f 676 666 675
f 605 595 603
f 607 603 616
f 623 608 616
f 608 607 616
f 680 678 677
f 680 677 679
f 684 680 683
f 681 678 680
f 684 681 680
f 682 678 681
f 776 765 778
f 765 767 778
f 742 731 741
f 778 767 777
f 767 766 777
f 766 725 777
f 766 740 725
f 740 726 725
f 686 685 698
f 699 686 698
f 731 726 740
f 741 731 740
f 708 692 707
f 719 712 713
f 713 712 711
f 712 706 711
f 724 719 714
f 719 713 714
f 761 753 754
f 739 738 752
f 747 739 752
f 753 747 752
f 754 753 752
f 761 754 755
f 768 761 755
f 738 737 751
f 752 738 751
f 768 755 756
f 769 768 756
f 736 735 750
f 737 736 750
f 751 737 750
f 735 734 750
f 730 716 717
f 731 730 717
f 691 690 705
f 707 691 705
f 690 689 704
f 705 690 704
f 731 717 718
f 731 718 720
f 689 688 703
f 704 689 703
f 703 688 702
f 731 720 721
f 702 688 701
f 688 687 701
f 731 721 722
f 701 687 700
f 706 697 710
f 711 706 710
f 696 695 709
f 769 756 757
f 770 769 757
f 750 734 749
f 734 733 749
f 733 732 749
f 770 757 758
f 771 770 758
f 772 771 758
f 731 722 723
f 749 732 748
f 732 731 748
f 772 758 759
f 773 772 759
f 748 731 746
f 746 731 745
f 773 759 760
f 774 773 760
f 700 686 699
f 745 731 744
f 731 723 727
f 744 731 743
f 774 760 762
f 775 774 762
f 731 727 726
f 775 762 763
f 776 775 763
f 743 731 742
f 776 763 764
f 776 764 765
f 687 686 700
f 694 693 708
f 709 695 708
f 697 696 709
f 710 697 709
f 724 714 715
f 728 724 715
f 729 728 715
f 693 692 708
f 730 729 716
f 692 691 707
f 695 694 708
f 729 715 716
f 785 784 795
f 796 785 795
f 802 797 800
f 801 802 800
f 806 801 803
f 806 802 801
f 788 789 780
f 817 816 818
f 828 813 827
f 791 781 790
f 784 783 793
f 783 782 792
f 793 783 792
f 782 781 791
f 824 823 813
f 825 824 813
f 825 813 828
f 792 782 791
f 831 826 818
f 809 810 788
f 814 815 826
f 810 789 788
f 786 785 796
f 798 786 796
f 820 805 807
f 821 820 807
f 787 786 798
f 799 787 798
f 821 807 808
f 822 821 808
f 823 811 812
f 795 784 794
f 822 808 811
f 823 822 811
f 819 806 804
f 806 803 804
f 800 797 799
f 797 787 799
f 820 819 805
f 819 804 805
f 790 781 779
f 790 779 789
f 789 779 780
f 826 817 818
f 827 813 826
f 813 814 826
f 794 784 793
f 823 812 813
f 831 818 829
f 815 817 826
f 831 829 830
f 840 837 836
f 840 838 837
f 837 835 834
f 838 833 835
f 838 832 833
f 838 839 832
f 838 835 837
f 844 842 841
f 844 841 843
f 848 846 845
f 848 845 847
f 852 850 849
f 852 849 851
f 876 874 873
f 862 858 861
f 855 854 853
f 885 857 884
f 859 857 885
f 876 872 886
f 887 878 886
f 878 877 886
f 877 876 886
f 876 873 872
f 858 854 859
f 859 856 857
f 859 855 856
f 859 854 855
f 865 858 864
f 860 858 859
f 861 858 860
f 869 887 867
f 887 870 868
f 887 868 883
f 887 883 882
f 887 882 881
f 871 887 869
f 887 871 870
f 863 858 862
f 864 858 863
f 887 858 866
f 887 880 879
f 887 881 880
f 867 887 866
f 866 858 865
f 887 879 878
f 876 875 874

