# https://github.com/mikedh/trimesh
v -11.29267019 0.41261579 0.31595401
v -11.29263999 0.41274700 0.31547693
v -11.29262944 0.41244820 0.31641797
v -11.29250921 0.41224632 0.31685704
v -11.29233032 0.41201797 0.31725697
v -11.29208997 0.41176826 0.31760995
v -11.29178980 0.41150487 0.31790297
v -11.29143936 0.41123429 0.31813101
v -11.29106035 0.41096392 0.31828693
v -11.29064993 0.41070100 0.31836504
v -11.29056953 0.41633431 0.30002098
v -11.29046991 0.41642362 0.29954403
v -11.29029982 0.41647102 0.29907995
v -11.29022022 0.41045288 0.31836503
v -11.29007016 0.41647274 0.29864197
v -11.28992024 0.41737424 0.31749801
v -11.28989001 0.41750972 0.31702296
v -11.28988040 0.41719983 0.31796102
v -11.28978943 0.41643098 0.29824095
v -11.28978010 0.41022687 0.31828695
v -11.28976936 0.41699503 0.31839806
v -11.28959029 0.41676199 0.31879703
v -11.28945040 0.41634398 0.29788905
v -11.28935917 0.41002917 0.31813103
v -11.28935039 0.41650887 0.31914799
v -11.28906946 0.41621698 0.29759495
v -11.28904961 0.41624207 0.31944101
v -11.28895015 0.40986441 0.31790296
v -11.28870964 0.41596901 0.31966798
v -11.28865937 0.41605222 0.29736798
v -11.28857006 0.40973699 0.31760997
v -11.28832979 0.41569693 0.31982294
v -11.28822997 0.40964999 0.31725699
v -11.28823077 0.41585403 0.29721206
v -11.28793964 0.40960816 0.31685702
v -11.28791043 0.41543309 0.31990105
v -11.28780024 0.41562809 0.29713303
v -11.28773001 0.42125883 0.30162005
v -11.28770998 0.40960987 0.31641799
v -11.28762993 0.42135368 0.30114406
v -11.28753989 0.40965727 0.31595403
v -11.28748006 0.41518581 0.31990104
v -11.28746001 0.42140576 0.30068200
v -11.28745008 0.40974708 0.31547693
v -11.28737053 0.41537997 0.29713302
v -11.28721943 0.42141337 0.30024497
v -11.28704975 0.41496030 0.31982296
v -11.28696011 0.41511705 0.29721205
v -11.28692930 0.42137410 0.29984599
v -11.28661986 0.41476381 0.31966799
v -11.28659045 0.42129179 0.29949503
v -11.28656958 0.41484702 0.29736797
v -11.28622960 0.41457609 0.29759494
v -11.28620954 0.41460075 0.31944100
v -11.28620990 0.42116778 0.29920201
v -11.28593049 0.41431272 0.29788903
v -11.28583007 0.41447675 0.31914800
v -11.28580066 0.42100473 0.29897504
v -11.28568055 0.41406293 0.29824094
v -11.28549974 0.41383499 0.29864197
v -11.28548929 0.41439486 0.31879705
v -11.28539016 0.41363319 0.29907994
v -11.28537962 0.41333439 0.30002098
v -11.28537012 0.42080909 0.29881996
v -11.28535027 0.41346518 0.29954402
v -11.28519937 0.41435601 0.31839804
v -11.28497010 0.41436285 0.31796104
v -11.28494045 0.42058273 0.29874104
v -11.28480018 0.41441494 0.31749803
v -11.28470010 0.41450979 0.31702296
v -11.28451030 0.42033588 0.29874104
v -11.28410032 0.42007169 0.29881995
v -11.28371002 0.41979996 0.29897503
v -11.28337005 0.41952689 0.29920200
v -11.28307012 0.41925967 0.29949502
v -11.28282936 0.41900697 0.29984597
v -11.28264965 0.41877478 0.30024498
v -11.28253969 0.41856785 0.30068199
v -11.28253051 0.41825883 0.30162005
v -11.28249963 0.41839515 0.30114404
v -11.29149035 0.41199470 0.31575399
v -11.29146994 0.41207222 0.31547693
v -11.29145996 0.41189590 0.31602303
v -11.29141027 0.41212384 0.31520097
v -11.29138985 0.41177674 0.31627397
v -11.29131007 0.41214913 0.31493203
v -11.29128064 0.41164066 0.31650202
v -11.29116978 0.41214681 0.31468002
v -11.29109180 0.41145918 0.31673971
v -11.29100006 0.41211697 0.31445306
v -11.29093262 0.41133169 0.31686584
v -11.29071091 0.41203205 0.31418138
v -11.29068663 0.41115064 0.31699460
v -11.29056971 0.41198022 0.31409697
v -11.29041645 0.41191679 0.31401425
v -11.29041356 0.41097067 0.31706384
v -11.29025945 0.41087735 0.31707100
v -11.29021057 0.41181754 0.31393796
v -11.29013034 0.41080684 0.31706505
v -11.29007991 0.41175470 0.31390802
v -11.28998891 0.41072856 0.31704420
v -11.28996058 0.41168682 0.31389003
v -11.28982975 0.41161715 0.31388301
v -11.28974944 0.41061711 0.31697506
v -11.28963043 0.41056289 0.31692200
v -11.28959735 0.41147247 0.31390553
v -11.28951032 0.41051506 0.31685800
v -11.28947024 0.41139088 0.31393797
v -11.28939955 0.41047115 0.31678300
v -11.28935014 0.41131275 0.31397895
v -11.28929002 0.41043406 0.31669799
v -11.28924987 0.41123392 0.31403297
v -11.28914001 0.41115501 0.31409696
v -11.28908980 0.41037668 0.31650202
v -11.28902983 0.41106245 0.31418173
v -11.28891004 0.41034804 0.31627396
v -11.28881028 0.41085300 0.31445306
v -11.28877040 0.41034488 0.31602305
v -11.28873982 0.41680179 0.31714693
v -11.28873423 0.41672323 0.31739121
v -11.28871996 0.41683493 0.31702296
v -11.28871045 0.41665307 0.31756596
v -11.28869956 0.41071819 0.31468004
v -11.28869944 0.41686892 0.31687002
v -11.28869016 0.41660086 0.31768101
v -11.28867020 0.41037017 0.31575399
v -11.28865983 0.41688996 0.31674700
v -11.28863994 0.41653093 0.31781702
v -11.28862989 0.41059776 0.31493205
v -11.28861927 0.41042229 0.31547696
v -11.28860057 0.41049896 0.31520097
v -11.28860009 0.41647132 0.31792206
v -11.28859634 0.41691211 0.31656032
v -11.28853030 0.41639399 0.31804399
v -11.28849008 0.41692071 0.31633894
v -11.28846939 0.41632825 0.31813604
v -11.28840247 0.41691750 0.31619899
v -11.28838025 0.41624395 0.31823997
v -11.28830934 0.41617515 0.31831604
v -11.28821295 0.41688196 0.31595963
v -11.28819975 0.41608813 0.31839899
v -11.28803993 0.41683673 0.31580595
v -11.28803397 0.41596017 0.31849674
v -11.28791912 0.41679615 0.31571406
v -11.28789038 0.41585797 0.31855301
v -11.28780088 0.41675430 0.31563990
v -11.28765079 0.41570513 0.31860596
v -11.28756942 0.41665487 0.31552999
v -11.28745021 0.41558203 0.31861073
v -11.28743940 0.41659118 0.31548506
v -11.28731999 0.41653397 0.31545893
v -11.28727032 0.41548597 0.31858698
v -11.28715006 0.41542917 0.31856101
v -11.28709148 0.41641023 0.31543163
v -11.28700938 0.41536540 0.31851596
v -11.28692993 0.41631473 0.31544201
v -11.28690974 0.41531602 0.31846898
v -11.28683086 0.41624700 0.31545895
v -11.28677026 0.41526335 0.31839902
v -11.28669994 0.41616196 0.31549302
v -11.28658973 0.41519630 0.31827299
v -11.28657352 0.41607312 0.31553952
v -11.28638971 0.41593222 0.31564705
v -11.28636587 0.41513404 0.31807893
v -11.28628012 0.41584521 0.31573003
v -11.28620985 0.41577556 0.31580595
v -11.28616951 0.41510187 0.31781701
v -11.28612007 0.41569211 0.31591003
v -11.28610002 0.41509879 0.31770796
v -11.28601580 0.41557910 0.31607371
v -11.28600444 0.41510534 0.31751138
v -11.28593336 0.41548248 0.31623846
v -11.28593048 0.41512997 0.31729907
v -11.28589022 0.41515186 0.31717604
v -11.28587986 0.41536686 0.31647996
v -11.28587036 0.41518501 0.31702295
v -11.28585028 0.41521771 0.31689898
v -11.28585014 0.41526508 0.31674700
v -11.28585002 0.41530818 0.31662601
v -11.42950017 0.49161581 0.31595402
v -11.42946997 0.49174703 0.31547694
v -11.42946028 0.49144781 0.31641798
v -11.42935071 0.49124600 0.31685702
v -11.42915924 0.49101798 0.31725698
v -11.42891995 0.49076828 0.31760996
v -11.42861978 0.49050490 0.31790298
v -11.42827020 0.49023389 0.31813102
v -11.42789033 0.48996395 0.31828694
v -11.42747992 0.48970103 0.31836502
v -11.42740037 0.49533392 0.30002099
v -11.42730011 0.49542408 0.29954401
v -11.42713940 0.49547111 0.29907993
v -11.42705020 0.48945290 0.31836501
v -11.42690995 0.49547326 0.29864198
v -11.42676068 0.49637391 0.31749802
v -11.42671998 0.49619993 0.31796103
v -11.42671999 0.49650974 0.31702297
v -11.42662048 0.49543101 0.29824093
v -11.42660923 0.48922731 0.31828693
v -11.42660020 0.49599464 0.31839804
v -11.42642987 0.49576209 0.31879705
v -11.42627932 0.49534400 0.29788906
v -11.42619001 0.48902877 0.31813101
v -11.42618038 0.49550889 0.31914800
v -11.42590030 0.49521659 0.29759496
v -11.42589026 0.49524217 0.31944102
v -11.42577992 0.48886401 0.31790297
v -11.42554069 0.49496904 0.31966799
v -11.42549021 0.49505182 0.29736799
v -11.42540004 0.48873702 0.31760995
v -11.42515978 0.49469695 0.31982295
v -11.42507035 0.49485413 0.29721204
v -11.42505995 0.48865001 0.31725697
v -11.42478029 0.48860826 0.31685703
v -11.42475001 0.49443319 0.31990103
v -11.42463002 0.49462769 0.29713301
v -11.42456000 0.50025885 0.30162006
v -11.42453996 0.48860990 0.31641797
v -11.42445991 0.50035370 0.30114404
v -11.42437947 0.48865737 0.31595401
v -11.42431964 0.49418591 0.31990102
v -11.42429000 0.50040579 0.30068198
v -11.42427985 0.48874667 0.31547694
v -11.42419945 0.49437998 0.29713303
v -11.42405027 0.50041297 0.30024498
v -11.42388059 0.49395991 0.31982294
v -11.42379010 0.49411708 0.29721206
v -11.42375970 0.50037498 0.29984600
v -11.42345005 0.49376426 0.31966797
v -11.42342043 0.50029182 0.29949504
v -11.42341023 0.49384713 0.29736798
v -11.42305958 0.49357612 0.29759495
v -11.42303974 0.49360120 0.31944101
v -11.42303989 0.50016781 0.29920202
v -11.42275962 0.49331316 0.29788904
v -11.42266965 0.49347685 0.31914799
v -11.42262978 0.50000518 0.29897505
v -11.42252013 0.49306303 0.29824095
v -11.42233058 0.49283460 0.29864198
v -11.42232035 0.49339489 0.31879703
v -11.42221950 0.49263406 0.29907995
v -11.42221046 0.49233399 0.30002099
v -11.42221055 0.49980877 0.29881994
v -11.42218005 0.49246478 0.29954403
v -11.42203043 0.49335605 0.31839805
v -11.42180008 0.49336288 0.31796102
v -11.42176958 0.49958317 0.29874102
v -11.42163017 0.49341496 0.31749801
v -11.42153029 0.49351024 0.31702297
v -11.42133943 0.49933633 0.29874105
v -11.42093051 0.49907214 0.29881996
v -11.42054960 0.49880005 0.29897504
v -11.42020003 0.49852692 0.29920201
v -11.41990032 0.49826012 0.29949503
v -11.41966042 0.49800700 0.29984598
v -11.41948028 0.49777395 0.30024499
v -11.41937031 0.49756916 0.30068200
v -11.41935964 0.49725927 0.30162006
v -11.41933047 0.49739476 0.30114405
v -11.42760252 0.49329222 0.29913751
v -11.42757147 0.49314009 0.29944305
v -11.42752009 0.49297032 0.29977195
v -11.42742059 0.49349091 0.29879502
v -11.42740980 0.49280606 0.30007903
v -11.42729157 0.49242850 0.30036229
v -11.42727061 0.49361180 0.29847102
v -11.42725562 0.49277974 0.29989391
v -11.42722816 0.49294255 0.29935091
v -11.42711246 0.49253545 0.30038515
v -11.42707039 0.49369305 0.29816204
v -11.42704560 0.49300351 0.29883009
v -11.42703948 0.49242993 0.30058305
v -11.42684003 0.49227013 0.30073193
v -11.42683020 0.49373177 0.29787796
v -11.42667879 0.49295300 0.29833835
v -11.42657887 0.49305468 0.29784469
v -11.42649392 0.49373051 0.29760641
v -11.42637961 0.49318312 0.30097394
v -11.42624992 0.49368132 0.29741697
v -11.42624342 0.49280384 0.29802362
v -11.42610945 0.49364613 0.29733700
v -11.42594032 0.49359366 0.29725496
v -11.42591021 0.49409944 0.30121926
v -11.42570079 0.49254208 0.29786032
v -11.42567092 0.49349052 0.29714576
v -11.42566226 0.49389490 0.30143433
v -11.42550031 0.49376825 0.30151897
v -11.42542225 0.49249393 0.29750112
v -11.42531919 0.49333428 0.29709488
v -11.42528644 0.49229278 0.29790168
v -11.42528663 0.49362925 0.30158918
v -11.42509183 0.49319989 0.29707568
v -11.42493554 0.49156622 0.30083483
v -11.42487014 0.49337995 0.30161075
v -11.42484131 0.49196773 0.29810468
v -11.42481536 0.49119558 0.30042880
v -11.42480981 0.49116908 0.30051295
v -11.42480955 0.49302497 0.29712299
v -11.42468068 0.49112887 0.30039495
v -11.42466898 0.49291811 0.29715959
v -11.42460845 0.49324487 0.30155603
v -11.42458006 0.49214521 0.30097395
v -11.42451908 0.49118058 0.29995328
v -11.42443054 0.49107367 0.30012898
v -11.42441718 0.49151652 0.29873985
v -11.42439880 0.49269423 0.29727869
v -11.42439594 0.49173102 0.29803568
v -11.42436999 0.49127080 0.29940931
v -11.42422982 0.49105427 0.29982596
v -11.42417965 0.49246177 0.29744905
v -11.42406973 0.49233508 0.29756004
v -11.42403116 0.49107157 0.29945700
v -11.42401448 0.49300620 0.30122655
v -11.42398975 0.49222398 0.29766695
v -11.42390761 0.49122250 0.29917220
v -11.42386018 0.49199007 0.29792397
v -11.42379806 0.49138251 0.29881734
v -11.42379066 0.49176599 0.29821304
v -11.42377049 0.49155807 0.29852599
v -11.42341209 0.49950357 0.30190162
v -11.42339999 0.49958072 0.30165380
v -11.42335943 0.49936151 0.30225508
v -11.42325427 0.49919687 0.30256466
v -11.42324817 0.49966538 0.30110840
v -11.42315111 0.49967106 0.30093378
v -11.42296721 0.49891907 0.30292062
v -11.42292187 0.49964333 0.30060689
v -11.42263357 0.49956012 0.30033963
v -11.42262338 0.49864896 0.30313257
v -11.42242899 0.49948734 0.30020910
v -11.42221189 0.49838817 0.30321557
v -11.42191456 0.49924627 0.30003540
v -11.42175695 0.49814712 0.30314702
v -11.42142247 0.49895544 0.30006296
v -11.42133884 0.49797248 0.30293111
v -11.42115931 0.49791397 0.30279963
v -11.42094837 0.49859945 0.30031303
v -11.42085912 0.49785200 0.30244403
v -11.42075850 0.49841370 0.30054336
v -11.42067295 0.49785361 0.30211584
v -11.42059978 0.49822433 0.30084328
v -11.42052978 0.49792126 0.30165880
v -11.42051706 0.49802529 0.30130855
v -11.43018056 -0.45050309 0.31580108
v -11.42980422 -0.44912408 0.31568877
v -11.42946727 -0.44909204 0.31518632
v -11.42924357 -0.44935777 0.31765681
v -11.42911310 -0.44925750 0.31406085
v -11.42896686 -0.44847507 0.31620769
v -11.42841302 -0.44906274 0.31340555
v -11.42830458 -0.44788061 0.31683642
v -11.42817000 -0.44793191 0.31646173
v -11.42786617 -0.45453023 0.29928355
v -11.42747969 -0.45319137 0.29903143
v -11.42740180 -0.44818376 0.31801145
v -11.42730646 -0.45279961 0.29992872
v -11.42729808 -0.44752443 0.31615941
v -11.42729554 -0.44844991 0.31330711
v -11.42717100 -0.45455497 0.29796676
v -11.42697566 -0.45300838 0.29869253
v -11.42678520 -0.45639572 0.31749100
v -11.42663160 -0.44783500 0.31401877
v -11.42660063 -0.45206437 0.30093842
v -11.42655708 -0.44744124 0.31510453
v -11.42639269 -0.45569739 0.31894104
v -11.42638664 -0.44713472 0.31572706
v -11.42620679 -0.45290619 0.29754738
v -11.42613963 -0.45277243 0.29793495
v -11.42605211 -0.45419621 0.29707711
v -11.42597269 -0.44761287 0.31722896
v -11.42562239 -0.45147736 0.30100875
v -11.42555091 -0.45586943 0.31691161
v -11.42541458 -0.45542625 0.31804411
v -11.42515874 -0.45591965 0.31606380
v -11.42501800 -0.45189734 0.29794756
v -11.42501391 -0.45458432 0.31990927
v -11.42498902 -0.44752848 0.31574421
v -11.42454625 -0.45340934 0.29681950
v -11.42452862 -0.45114101 0.30009931
v -11.42451953 -0.46032787 0.30133860
v -11.42451533 -0.45471504 0.31862945
v -11.42440919 -0.45151873 0.29872136
v -11.42415043 -0.45554984 0.31541269
v -11.42402118 -0.45120316 0.29900115
v -11.42390550 -0.46042107 0.29996342
v -11.42348805 -0.45421066 0.31835691
v -11.42344502 -0.45375486 0.31969327
v -11.42343076 -0.45948761 0.30199008
v -11.42328810 -0.45245097 0.29754213
v -11.42308114 -0.45482794 0.31572169
v -11.42301996 -0.45969057 0.30063229
v -11.42300982 -0.45894252 0.30292026
v -11.42279944 -0.45409213 0.31748837
v -11.42268709 -0.45434063 0.31652383
v -11.42264504 -0.45158994 0.29905037
v -11.42255659 -0.45344384 0.31905619
v -11.42235179 -0.45989415 0.29881649
v -11.42210230 -0.45831961 0.30323485
v -11.42181729 -0.45919942 0.30000406
v -11.42163403 -0.45334963 0.31770460
v -11.42102006 -0.45866351 0.30024700
v -11.42100884 -0.45785920 0.30269710
v -11.42086563 -0.45903680 0.29881376
v -11.42045515 -0.45800482 0.30126874
v -11.41956854 -0.45795424 0.29985193
v -11.41932917 -0.45731403 0.30139785
v -11.29266970 -0.37261671 0.31595401
v -11.29264024 -0.37274822 0.31547694
v -11.29262935 -0.37244777 0.31641797
v -11.29251006 -0.37224703 0.31685702
v -11.29233001 -0.37201860 0.31725697
v -11.29209029 -0.37176886 0.31760995
v -11.29178947 -0.37150509 0.31790297
v -11.29143956 -0.37123528 0.31813101
v -11.29105958 -0.37096399 0.31828694
v -11.29064960 -0.37070187 0.31836501
v -11.29056998 -0.37633393 0.30002098
v -11.29047005 -0.37642504 0.29954403
v -11.29030026 -0.37647233 0.29907993
v -11.29021991 -0.37045396 0.31836504
v -11.29006998 -0.37647402 0.29864197
v -11.28991987 -0.37737495 0.31749801
v -11.28989023 -0.37751115 0.31702297
v -11.28987991 -0.37720089 0.31796102
v -11.28978946 -0.37643090 0.29824095
v -11.28978036 -0.37022830 0.31828694
v -11.28976954 -0.37699496 0.31839804
v -11.28959010 -0.37676311 0.31879703
v -11.28945017 -0.37634517 0.29788904
v -11.28935979 -0.37002892 0.31813103
v -11.28935034 -0.37650911 0.31914799
v -11.28906961 -0.37621796 0.29759495
v -11.28904972 -0.37624278 0.31944101
v -11.28895058 -0.36986484 0.31790296
v -11.28871024 -0.37596905 0.31966798
v -11.28865975 -0.37605303 0.29736799
v -11.28857024 -0.36973720 0.31760995
v -11.28833004 -0.37569819 0.31982295
v -11.28823002 -0.37585500 0.29721205
v -11.28823009 -0.36965105 0.31725697
v -11.28793955 -0.36960886 0.31685704
v -11.28791045 -0.37543401 0.31990103
v -11.28780070 -0.37562798 0.29713303
v -11.28772932 -0.38126007 0.30162004
v -11.28771012 -0.36961098 0.31641798
v -11.28762963 -0.38135502 0.30114405
v -11.28754033 -0.36965827 0.31595400
v -11.28747969 -0.37518611 0.31990105
v -11.28745967 -0.38140700 0.30068201
v -11.28745063 -0.36974801 0.31547694
v -11.28737059 -0.37538093 0.29713302
v -11.28721982 -0.38141303 0.30024497
v -11.28704953 -0.37496080 0.31982296
v -11.28695996 -0.37511796 0.29721205
v -11.28692952 -0.38137468 0.29984597
v -11.28661938 -0.37476363 0.31966800
v -11.28659027 -0.38129321 0.29949502
v -11.28656976 -0.37484803 0.29736798
v -11.28622986 -0.37457729 0.29759495
v -11.28620930 -0.38116899 0.29920200
v -11.28620998 -0.37460211 0.31944100
v -11.28593033 -0.37431308 0.29788904
v -11.28583008 -0.37447788 0.31914799
v -11.28580053 -0.38100619 0.29897504
v -11.28568059 -0.37406428 0.29824095
v -11.28549989 -0.37383500 0.29864197
v -11.28548932 -0.37439515 0.31879703
v -11.28539041 -0.37363375 0.29907994
v -11.28538016 -0.37333416 0.30002097
v -11.28537038 -0.38080902 0.29881996
v -11.28535049 -0.37346609 0.29954402
v -11.28519988 -0.37435721 0.31839806
v -11.28497028 -0.37436402 0.31796103
v -11.28494001 -0.38058413 0.29874103
v -11.28479987 -0.37441473 0.31749803
v -11.28469956 -0.37451096 0.31702296
v -11.28451032 -0.38033623 0.29874102
v -11.28409990 -0.38007283 0.29881993
v -11.28370968 -0.37980077 0.29897505
v -11.28336977 -0.37952790 0.29920203
v -11.28307042 -0.37926113 0.29949502
v -11.28283025 -0.37900798 0.29984597
v -11.28264930 -0.37877486 0.30024497
v -11.28254000 -0.37856892 0.30068199
v -11.28253011 -0.37825994 0.30162007
v -11.28249962 -0.37839573 0.30114404
f 65 79 63
f 62 80 65
f 80 79 65
f 60 78 62
f 78 80 62
f 59 77 60
f 77 78 60
f 56 76 59
f 76 77 59
f 53 75 56
f 75 76 56
f 52 74 53
f 74 75 53
f 48 73 52
f 73 74 52
f 45 72 48
f 72 73 48
f 37 71 45
f 71 72 45
f 34 68 37
f 68 71 37
f 30 64 34
f 64 68 34
f 26 58 30
f 58 64 30
f 23 55 26
f 55 58 26
f 38 40 11
f 40 12 11
f 19 51 23
f 51 55 23
f 40 43 12
f 43 13 12
f 15 49 19
f 49 51 19
f 43 46 13
f 46 15 13
f 46 49 15
f 17 38 2
f 38 11 2
f 39 66 35
f 66 61 35
f 61 33 35
f 41 67 39
f 67 66 39
f 61 57 33
f 57 31 33
f 44 69 41
f 69 67 41
f 57 54 31
f 54 28 31
f 70 69 44
f 54 50 28
f 50 24 28
f 50 47 24
f 47 20 24
f 47 42 20
f 42 14 20
f 42 36 14
f 36 10 14
f 36 32 10
f 32 9 10
f 32 29 9
f 29 8 9
f 29 27 8
f 27 7 8
f 27 25 7
f 25 6 7
f 25 22 6
f 22 5 6
f 22 21 5
f 21 4 5
f 21 18 4
f 18 3 4
f 18 16 3
f 16 1 3
f 16 17 1
f 17 2 1
f 63 70 44
f 79 70 63
f 116 169 118
f 169 171 118
f 171 126 118
f 114 164 116
f 164 167 116
f 167 169 116
f 171 173 126
f 173 174 126
f 174 130 126
f 111 164 114
f 174 176 130
f 176 177 130
f 177 131 130
f 109 161 111
f 161 164 111
f 107 159 109
f 159 161 109
f 177 178 131
f 178 179 131
f 179 129 131
f 105 157 107
f 157 159 107
f 104 155 105
f 155 157 105
f 179 175 129
f 175 172 129
f 172 123 129
f 101 153 104
f 153 155 104
f 152 153 101
f 172 170 123
f 170 117 123
f 99 149 101
f 149 152 101
f 97 149 99
f 170 168 117
f 168 115 117
f 96 147 97
f 147 149 97
f 168 166 115
f 93 145 96
f 145 147 96
f 166 165 115
f 165 113 115
f 143 145 93
f 165 163 113
f 163 112 113
f 91 143 93
f 163 162 112
f 162 110 112
f 141 143 91
f 162 108 110
f 89 139 91
f 139 141 91
f 162 160 108
f 160 106 108
f 138 139 89
f 160 158 106
f 87 136 89
f 136 138 89
f 158 156 106
f 156 103 106
f 156 154 103
f 154 102 103
f 85 132 87
f 132 134 87
f 134 136 87
f 154 100 102
f 154 151 100
f 151 98 100
f 83 125 85
f 125 128 85
f 128 132 85
f 151 150 98
f 150 95 98
f 150 148 95
f 81 120 83
f 120 122 83
f 122 125 83
f 148 146 95
f 146 94 95
f 146 92 94
f 82 119 81
f 119 120 81
f 146 144 92
f 144 142 92
f 142 140 92
f 140 90 92
f 84 124 82
f 124 121 82
f 121 119 82
f 140 137 90
f 137 88 90
f 86 133 84
f 133 127 84
f 127 124 84
f 137 135 88
f 135 86 88
f 135 133 86
f 244 258 242
f 241 259 244
f 259 258 244
f 239 257 241
f 257 259 241
f 238 256 239
f 256 257 239
f 235 255 238
f 255 256 238
f 232 254 235
f 254 255 235
f 231 253 232
f 253 254 232
f 227 252 231
f 252 253 231
f 224 251 227
f 251 252 227
f 216 250 224
f 250 251 224
f 212 247 216
f 247 250 216
f 209 243 212
f 243 247 212
f 205 237 209
f 237 243 209
f 202 234 205
f 234 237 205
f 217 219 190
f 219 191 190
f 198 230 202
f 230 234 202
f 219 222 191
f 222 192 191
f 194 228 198
f 228 230 198
f 222 225 192
f 225 194 192
f 225 228 194
f 197 217 181
f 217 190 181
f 218 245 214
f 245 240 214
f 240 213 214
f 220 246 218
f 246 245 218
f 240 236 213
f 236 210 213
f 223 248 220
f 248 246 220
f 236 233 210
f 233 207 210
f 249 248 223
f 233 229 207
f 229 203 207
f 229 226 203
f 226 199 203
f 226 221 199
f 221 193 199
f 221 215 193
f 215 189 193
f 215 211 189
f 211 188 189
f 211 208 188
f 208 187 188
f 208 206 187
f 206 186 187
f 206 204 186
f 204 185 186
f 204 201 185
f 201 184 185
f 201 200 184
f 200 183 184
f 200 196 183
f 196 182 183
f 196 195 182
f 195 180 182
f 195 197 180
f 197 181 180
f 242 249 223
f 258 249 242
f 296 338 303
f 338 340 303
f 336 338 296
f 313 336 296
f 340 342 303
f 342 308 303
f 293 302 296
f 302 313 296
f 342 343 308
f 343 305 308
f 343 341 305
f 341 339 305
f 339 295 305
f 339 337 295
f 337 334 295
f 334 290 295
f 269 278 273
f 334 284 290
f 283 278 269
f 323 283 269
f 334 332 284
f 267 322 269
f 322 323 269
f 332 280 284
f 320 322 267
f 332 330 280
f 268 321 267
f 321 320 267
f 330 328 280
f 328 275 280
f 328 327 275
f 271 324 268
f 324 321 268
f 327 271 275
f 325 324 271
f 327 325 271
f 335 336 313
f 301 333 313
f 333 335 313
f 294 333 301
f 331 333 294
f 291 331 294
f 329 331 291
f 287 329 291
f 286 329 287
f 326 329 286
f 283 326 286
f 323 326 283
f 317 315 312
f 307 317 312
f 307 319 317
f 307 318 319
f 307 316 318
f 314 316 307
f 311 314 307
f 310 311 307
f 306 310 307
f 288 306 307
f 300 306 288
f 298 300 288
f 289 292 288
f 292 298 288
f 285 289 288
f 282 285 288
f 276 282 288
f 281 282 276
f 279 281 276
f 277 279 276
f 274 277 276
f 270 274 276
f 260 270 276
f 263 266 260
f 266 270 260
f 304 303 309
f 303 312 309
f 303 308 312
f 299 296 304
f 296 303 304
f 297 296 299
f 293 296 297
f 308 305 312
f 305 307 312
f 295 307 305
f 295 288 307
f 290 288 295
f 272 269 273
f 284 288 290
f 265 269 272
f 265 267 269
f 264 267 265
f 276 288 284
f 280 276 284
f 264 262 267
f 262 268 267
f 275 276 280
f 262 261 268
f 261 260 268
f 260 271 268
f 260 276 275
f 271 260 275
f 368 360 391
f 356 388 391
f 360 356 391
f 399 368 391
f 356 392 388
f 375 368 399
f 401 375 399
f 356 363 392
f 363 398 392
f 382 375 401
f 404 382 401
f 363 371 398
f 371 402 398
f 379 382 404
f 371 379 402
f 402 379 404
f 365 344 361
f 347 344 365
f 376 347 365
f 355 347 376
f 387 355 376
f 370 355 387
f 396 370 387
f 400 370 396
f 377 370 400
f 395 377 406
f 377 400 406
f 353 359 385
f 380 353 385
f 369 397 385
f 359 369 385
f 369 378 397
f 378 403 397
f 389 405 403
f 378 389 403
f 389 395 405
f 395 406 405
f 361 353 380
f 344 353 361
f 344 354 353
f 344 345 354
f 354 367 359
f 353 354 359
f 367 369 359
f 367 378 369
f 367 375 378
f 375 389 378
f 384 395 389
f 375 384 389
f 366 377 395
f 384 366 395
f 347 345 344
f 351 345 347
f 355 351 347
f 370 366 355
f 366 351 355
f 377 366 370
f 360 367 354
f 356 360 354
f 360 368 367
f 345 356 354
f 375 367 368
f 345 363 356
f 348 371 363
f 345 348 363
f 384 375 382
f 379 384 382
f 348 379 371
f 348 350 379
f 350 358 379
f 358 384 379
f 362 366 384
f 358 362 384
f 346 348 345
f 349 346 345
f 351 349 345
f 351 352 349
f 351 357 352
f 364 366 362
f 351 366 357
f 366 364 357
f 348 372 374
f 350 348 374
f 348 346 372
f 383 350 374
f 346 373 372
f 358 350 383
f 346 349 373
f 390 358 383
f 349 381 373
f 362 358 390
f 349 352 381
f 394 362 390
f 352 386 381
f 364 362 394
f 352 357 386
f 393 364 394
f 357 393 386
f 357 364 393
f 425 455 452
f 421 425 452
f 449 421 452
f 419 421 449
f 446 419 449
f 429 457 455
f 425 429 455
f 418 419 446
f 444 418 446
f 432 460 457
f 429 432 457
f 417 418 444
f 436 464 460
f 432 436 460
f 439 470 464
f 436 439 464
f 443 474 470
f 439 443 470
f 451 477 474
f 443 451 474
f 454 478 477
f 451 454 477
f 458 479 478
f 454 458 478
f 459 480 479
f 458 459 479
f 462 481 480
f 459 462 480
f 465 482 481
f 462 465 481
f 466 483 482
f 465 466 482
f 468 484 483
f 466 468 483
f 471 486 484
f 468 471 484
f 469 485 486
f 471 469 486
f 450 476 485
f 469 450 485
f 422 408 423
f 407 408 422
f 424 407 422
f 409 407 424
f 427 409 424
f 410 409 427
f 428 410 427
f 411 410 428
f 431 411 428
f 412 411 431
f 433 412 431
f 413 412 433
f 435 413 433
f 414 413 435
f 438 414 435
f 415 414 438
f 442 415 438
f 416 415 442
f 448 416 442
f 420 416 448
f 453 420 448
f 426 420 453
f 456 426 453
f 430 426 456
f 461 430 456
f 434 430 461
f 463 434 461
f 447 475 476
f 450 447 476
f 437 434 463
f 467 437 463
f 445 473 475
f 447 445 475
f 440 437 467
f 472 440 467
f 441 472 473
f 445 441 473
f 441 440 472
f 423 417 444
f 408 417 423

