# https://github.com/mikedh/trimesh
v -11.42830537 0.04664694 1.04787653
v -11.42830314 0.04679703 1.04787766
v -11.42547877 0.04571866 1.04670953
v -11.42830226 0.04764699 1.04787861
v -11.42909034 0.04571997 1.04844265
v -11.42830201 0.04864704 1.04787861
v -11.42830289 0.04779696 1.04787748
v -11.42800036 0.04922198 1.04787557
v -11.42830359 0.04879688 1.04787819
v -11.42908986 0.05212831 1.04844229
v -11.42800189 0.05072199 1.04787581
v -11.42824072 0.04964697 1.04800080
v -11.42800039 0.04964697 1.04787587
v -11.42800007 0.04979705 1.04787587
v -11.42824043 0.05022203 1.04800080
v -11.42824040 0.04979705 1.04800080
v -11.42824047 0.05064701 1.04800080
v -11.42824018 0.05122196 1.04800080
v -11.42824015 0.05079698 1.04800068
v -11.42799973 0.05172204 1.04787569
v -11.42824006 0.05172204 1.04800068
v -11.42799994 0.05472194 1.04787557
v -11.42829989 0.05272197 1.04800068
v -11.42804812 0.05272197 1.04787569
v -11.42797920 0.05372202 1.04787569
v -11.42824026 0.05472194 1.04800080
v -11.42821953 0.05372202 1.04800062
v -11.42799956 0.05622195 1.04787557
v -11.42799952 0.05579697 1.04787557
v -11.42799985 0.05564701 1.04787557
v -11.42824017 0.05564701 1.04800062
v -11.42823985 0.05579697 1.04800062
v -11.42800026 0.05722200 1.04787557
v -11.42799960 0.05664705 1.04787557
v -11.42800023 0.05679702 1.04787557
v -11.42823976 0.05672204 1.04800050
v -11.42799823 0.05772196 1.04787551
v -11.42824063 0.05764698 1.04800050
v -11.42822972 0.05872201 1.04800038
v -11.42930220 0.05979728 1.04803347
v -11.42824030 0.05779695 1.04800038
v -11.42548069 0.06471848 1.04670959
v -11.42771569 0.05872201 1.04787539
v -11.42799976 0.05922197 1.04787557
v -11.42800047 0.06022202 1.04787557
v -11.42799980 0.05964695 1.04787539
v -11.42800043 0.05979704 1.04787557
v -11.42824013 0.05964695 1.04800038
v -11.42800034 0.06072199 1.04787557
v -11.42800025 0.06164705 1.04787545
v -11.42822446 0.06072199 1.04800032
v -11.42823930 0.06179701 1.04800032
v -11.42824058 0.06164705 1.04800032
v -11.42800175 0.06272196 1.04787253
v -11.42833458 0.06272196 1.04800021
v -11.42824008 0.06364702 1.04800021
v -11.42824063 0.06472003 1.04800068
v -11.42909035 0.06472003 1.04844182
v -11.42799975 0.06364702 1.04787557
v -11.42793649 0.06379687 1.04799901
v -11.45358084 0.02932202 1.05501210
v -11.45482928 0.01072203 1.05566298
v -11.45357996 0.01072203 1.05501287
v -11.45483016 0.02932202 1.05566220
v -11.45363969 0.01442205 1.05489742
v -11.45363948 0.01452195 1.05489742
v -11.45363909 0.01072203 1.05489748
v -11.45363973 0.01352202 1.05489748
v -11.45363935 0.01502203 1.05489730
v -11.45363914 0.01512205 1.05489730
v -11.45363966 0.01532196 1.05489730
v -11.45363944 0.01542198 1.05489730
v -11.45363941 0.01632201 1.05489730
v -11.45363993 0.01652204 1.05489730
v -11.45363971 0.01662206 1.05489730
v -11.45364000 0.01472198 1.05489742
v -11.45363978 0.01482200 1.05489742
v -11.45363996 0.01562201 1.05489730
v -11.45363975 0.01572203 1.05489730
v -11.45363932 0.01592194 1.05489730
v -11.45363928 0.01682197 1.05489730
v -11.45363907 0.01692199 1.05489730
v -11.45363959 0.01712202 1.05489730
v -11.45363937 0.01722204 1.05489730
v -11.45363990 0.01742195 1.05489730
v -11.45363968 0.01752197 1.05489730
v -11.45363908 0.01382195 1.05489742
v -11.45363910 0.01602196 1.05489730
v -11.45363962 0.01622199 1.05489730
v -11.45363925 0.01772200 1.05489730
v -11.45363999 0.01782202 1.05489718
v -11.45363939 0.01412200 1.05489742
v -11.45363917 0.01422202 1.05489742
v -11.45363934 0.01812195 1.05489718
v -11.45363986 0.01832198 1.05489718
v -11.45363965 0.01842200 1.05489718
v -11.45363921 0.01862203 1.05489718
v -11.45363995 0.01872205 1.05489718
v -11.45363952 0.01892196 1.05489718
v -11.45363930 0.01902198 1.05489718
v -11.45363983 0.01922201 1.05489718
v -11.45363961 0.01932203 1.05489718
v -11.45363918 0.01952194 1.05489718
v -11.45363992 0.01962196 1.05489718
v -11.45363949 0.01982199 1.05489718
v -11.45363927 0.01992201 1.05489718
v -11.45363979 0.02012204 1.05489718
v -11.45363958 0.02022206 1.05489718
v -11.45363915 0.02042197 1.05489718
v -11.45363988 0.02052199 1.05489718
v -11.45363945 0.02072202 1.05489712
v -11.45363924 0.02082204 1.05489712
v -11.45363976 0.02102195 1.05489712
v -11.45363954 0.02112197 1.05489712
v -11.45363911 0.02132200 1.05489712
v -11.45363985 0.02142202 1.05489712
v -11.45363942 0.02162205 1.05489712
v -11.45363920 0.02172195 1.05489712
v -11.45363972 0.02192198 1.05489712
v -11.45363951 0.02202200 1.05489700
v -11.45363908 0.02222203 1.05489700
v -11.45363981 0.02232205 1.05489700
v -11.45363938 0.02252196 1.05489700
v -11.45363917 0.02262198 1.05489700
v -11.45363969 0.02282201 1.05489700
v -11.45363947 0.02292203 1.05489700
v -11.45363997 0.02357506 1.05489700
v -11.45363996 0.02402197 1.05489700
v -11.45363975 0.02412199 1.05489700
v -11.45363931 0.02432202 1.05489700
v -11.45363910 0.02442204 1.05489700
v -11.45363962 0.02462196 1.05489700
v -11.45363940 0.02472197 1.05489700
v -11.45363993 0.02492201 1.05489688
v -11.45363971 0.02502202 1.05489688
v -11.45363928 0.02522205 1.05489688
v -11.45363906 0.02532195 1.05489688
v -11.45363959 0.02552198 1.05489688
v -11.45363937 0.02562200 1.05489688
v -11.45363989 0.02582204 1.05489688
v -11.45363968 0.02592205 1.05489688
v -11.45363925 0.02612197 1.05489688
v -11.45363998 0.02622198 1.05489688
v -11.45363955 0.02642201 1.05489688
v -11.45363934 0.02652203 1.05489688
v -11.45363986 0.02672195 1.05489688
v -11.45363964 0.02682196 1.05489688
v -11.45363921 0.02702200 1.05489688
v -11.45363995 0.02712201 1.05489688
v -11.45363952 0.02732204 1.05489688
v -11.45363930 0.02742194 1.05489688
v -11.45363982 0.02762198 1.05489682
v -11.45363961 0.02772199 1.05489682
v -11.45363918 0.02792202 1.05489682
v -11.45363991 0.02802204 1.05489682
v -11.45363948 0.02822196 1.05489682
v -11.45363927 0.02832197 1.05489682
v -11.45363979 0.02852201 1.05489682
v -11.45363957 0.02862202 1.05489682
v -11.45363966 0.02902209 1.05489676
v -11.45363997 0.02932202 1.05489670
v -11.42909917 -0.02468003 1.04844688
v -11.42831325 -0.02375305 1.04788153
v -11.42548856 -0.02468134 1.04671304
v -11.42831205 -0.02275301 1.04788165
v -11.42800966 -0.02360297 1.04787903
v -11.42931100 -0.02075279 1.04803931
v -11.42824999 -0.02360297 1.04800402
v -11.42800941 -0.02260305 1.04787891
v -11.42824974 -0.02260304 1.04800390
v -11.42831370 -0.02175296 1.04788004
v -11.42800916 -0.02160300 1.04787891
v -11.42800923 -0.02075303 1.04787891
v -11.42824949 -0.02160300 1.04800390
v -11.42800994 -0.01975299 1.04787879
v -11.42800986 -0.02060295 1.04787891
v -11.42825019 -0.02060295 1.04800378
v -11.42800961 -0.01960302 1.04787879
v -11.42825026 -0.01975299 1.04800378
v -11.42824998 -0.01917804 1.04800390
v -11.42824994 -0.01960302 1.04800378
v -11.42800940 -0.01817799 1.04787861
v -11.42812985 -0.01875294 1.04794126
v -11.42800936 -0.01860298 1.04787867
v -11.42909919 -0.00567997 1.04844617
v -11.42824973 -0.01817800 1.04800360
v -11.42824969 -0.01860298 1.04800372
v -11.42548762 -0.00568153 1.04671185
v -11.42800964 -0.01475299 1.04787855
v -11.42800919 -0.01675297 1.04787867
v -11.42800982 -0.01660300 1.04787867
v -11.42824976 -0.01775301 1.04800372
v -11.42800944 -0.01775301 1.04787867
v -11.42800911 -0.01760305 1.04787867
v -11.42825005 -0.01567806 1.04800378
v -11.42824944 -0.01760305 1.04800372
v -11.42824951 -0.01675297 1.04800372
v -11.42825014 -0.01660300 1.04800372
v -11.42800931 -0.01460303 1.04787837
v -11.42823645 -0.01467801 1.04800348
v -11.42800914 -0.01275302 1.04787843
v -11.42800939 -0.01375295 1.04787849
v -11.42800906 -0.01360298 1.04787849
v -11.42824971 -0.01375295 1.04800348
v -11.42824844 -0.01360298 1.04800348
v -11.42800980 -0.01217795 1.04787831
v -11.42824914 -0.01260305 1.04800348
v -11.42824946 -0.01275302 1.04800348
v -11.42800959 -0.01075304 1.04787849
v -11.42800984 -0.01175297 1.04787849
v -11.42800952 -0.01160300 1.04787837
v -11.42825017 -0.01175297 1.04800342
v -11.42824889 -0.01160301 1.04800342
v -11.42812943 -0.01060296 1.04794102
v -11.42824992 -0.01075304 1.04800342
v -11.42798629 -0.00967801 1.04787843
v -11.42821803 -0.00967802 1.04800342
v -11.42782010 -0.00867797 1.04787861
v -11.42800963 -0.00767804 1.04787855
v -11.42823877 -0.00867797 1.04800331
v -11.42824996 -0.00767804 1.04800319
v -11.42824946 -0.00567997 1.04800372
v -11.42800954 -0.00675297 1.04787849
v -11.42824987 -0.00675298 1.04800319
v -11.42794532 -0.00660313 1.04800199
v -11.42800047 0.01159727 1.04842984
v -11.42549177 0.01051926 1.04671310
v -11.42909857 0.01051997 1.04844682
v -11.42801087 0.01252197 1.04786139
v -11.42800602 0.01344680 1.04843061
v -11.42825978 0.01252198 1.04798483
v -11.42909972 0.01352202 1.04844527
v -11.42801904 0.01359712 1.04838328
v -11.42811996 0.01544701 1.04793977
v -11.42800926 0.01459705 1.04787724
v -11.42909984 0.01965486 1.04844504
v -11.42800050 0.01644706 1.04787730
v -11.42800042 0.01559698 1.04787730
v -11.42824941 0.01644706 1.04800217
v -11.42825029 0.01559698 1.04800229
v -11.42800021 0.01702200 1.04787712
v -11.42800017 0.01659702 1.04787730
v -11.42825004 0.01659702 1.04800217
v -11.42799959 0.01952194 1.04787700
v -11.42800000 0.01844703 1.04787718
v -11.42799967 0.01859700 1.04787718
v -11.42832338 0.01752197 1.04800217
v -11.42800025 0.01744699 1.04787730
v -11.42799992 0.01759695 1.04787730
v -11.42824986 0.01844703 1.04800217
v -11.42824954 0.01859700 1.04800211
v -11.42549083 0.02951848 1.04671275
v -11.42800016 0.02102195 1.04787712
v -11.42812887 0.02059697 1.04793965
v -11.42812538 0.02044701 1.04793965
v -11.42799991 0.02202200 1.04787712
v -11.42800020 0.02144705 1.04787712
v -11.42799988 0.02159702 1.04787712
v -11.42825006 0.02144705 1.04800199
v -11.42824879 0.02159702 1.04800199
v -11.42799966 0.02302205 1.04787688
v -11.42799995 0.02244698 1.04787700
v -11.42799963 0.02259695 1.04787700
v -11.42824981 0.02244698 1.04800199
v -11.42824949 0.02259695 1.04800199
v -11.42824559 0.02352201 1.04787700
v -11.42824956 0.02344703 1.04800199
v -11.42825023 0.02402197 1.04800229
v -11.42910049 0.02952003 1.04843556
v -11.42825019 0.02359699 1.04800199
v -11.42812629 0.02444696 1.04793947
v -11.42812883 0.02459704 1.04793947
v -11.42808773 0.02552175 1.04787700
v -11.42824795 0.02552151 1.04788445
v -11.42799990 0.02644705 1.04787712
v -11.42799958 0.02659701 1.04787682
v -11.42824023 0.02644705 1.04800181
v -11.42823991 0.02659701 1.04800181
v -11.42824284 0.02744698 1.04744648
v -11.42825396 0.02759682 1.04740976
v -11.42800036 0.02844702 1.04787682
v -11.42824068 0.02844702 1.04800170
v -11.42825658 0.02859460 1.04740571
v -11.42800047 0.01159727 1.04842984
v -11.42909857 0.01051997 1.04844682
v -11.42800938 0.01144694 1.04787736
v -11.42824971 0.01144694 1.04800241
v -11.42801904 0.01359712 1.04838328
v -11.42824991 0.01444696 1.04800229
v -11.42800958 0.01444697 1.04787742
v -11.42800926 0.01459705 1.04787724
v -11.65927426 0.19964336 1.04672657
v -11.66753298 0.19483756 1.04659771
v -11.67572186 0.19013153 1.04673188
v -11.67357064 0.18823694 1.04800319
v -11.67128777 0.18856953 1.04844617
v -11.67394230 0.18703781 1.04844593
v -11.67485916 0.18862902 1.04749071
v -11.67369035 0.18844497 1.04787819
v -11.67344078 0.18831205 1.04800319
v -11.67355954 0.18851994 1.04787819
v -11.67270076 0.18873703 1.04800319
v -11.67275459 0.18898224 1.04787724
v -11.67256995 0.18881201 1.04800319
v -11.67177545 0.18929326 1.04804467
v -11.67189327 0.18949663 1.04791014
v -11.67102722 0.18998813 1.04789024
v -11.66996985 0.19031214 1.04800372
v -11.66946684 0.18962180 1.04844617
v -11.67097054 0.18973695 1.04800342
v -11.67083973 0.18981205 1.04800342
v -11.67009971 0.19023715 1.04800378
v -11.67022038 0.19044506 1.04787837
v -11.66915638 0.19074380 1.04793458
v -11.66725251 0.19090162 1.04844712
v -11.67009052 0.19052003 1.04787837
v -11.66936004 0.19094490 1.04787802
v -11.66923018 0.19102000 1.04787849
v -11.66844233 0.19151174 1.04794352
v -11.66833497 0.19132578 1.04811638
v -11.66813004 0.19259726 1.04745286
v -11.66762028 0.19194495 1.04787849
v -11.66748599 0.19186138 1.04819583
v -11.66664022 0.19223737 1.04800426
v -11.66651036 0.19231224 1.04800390
v -11.66265008 0.19354676 1.04843294
v -11.66748947 0.19202005 1.04787849
v -11.66675994 0.19244479 1.04787814
v -11.66663008 0.19252001 1.04787867
v -11.66489986 0.19351934 1.04787724
v -11.66502972 0.19344496 1.04787867
v -11.66484127 0.19326829 1.04798966
v -11.66415984 0.19394505 1.04787867
v -11.66395524 0.19374012 1.04792814
v -11.66317025 0.19423699 1.04800378
v -11.66303943 0.19431209 1.04800408
v -11.66402998 0.19402002 1.04787867
v -11.66330390 0.19461857 1.04818438
v -11.66230991 0.19473706 1.04800408
v -11.65967852 0.19527124 1.04844700
v -11.66243058 0.19494497 1.04787879
v -11.66218005 0.19481205 1.04800378
v -11.66144003 0.19523703 1.04800366
v -11.66229976 0.19501996 1.04787879
v -11.66149196 0.19547760 1.04786764
v -11.66131017 0.19531202 1.04800390
v -11.66070036 0.19594442 1.04787760
v -11.66058064 0.19573700 1.04800390
v -11.66044029 0.19581198 1.04800390
v -11.66056000 0.19602059 1.04788016
v -11.65982953 0.19644402 1.04787891
v -11.65971077 0.19623695 1.04800390
v -11.65890517 0.19699990 1.04791986
v -11.65877975 0.19678186 1.04802250
v -11.65748137 0.19654035 1.04844849
v -11.65957995 0.19631194 1.04800390
v -11.65969966 0.19651996 1.04787891
f 1 2 3
f 2 4 3
f 5 1 3
f 2 1 5
f 6 3 4
f 16 15 14
f 15 11 14
f 15 17 11
f 18 17 15
f 10 18 15
f 27 26 25
f 37 3 33
f 38 37 33
f 36 38 33
f 39 38 36
f 40 39 36
f 10 40 36
f 39 41 38
f 39 37 41
f 3 37 42
f 43 44 37
f 39 43 37
f 39 44 43
f 44 42 37
f 45 42 44
f 46 47 44
f 47 45 44
f 39 48 44
f 48 46 44
f 40 48 39
f 40 45 47
f 49 50 45
f 50 42 45
f 40 51 45
f 51 49 45
f 51 50 49
f 52 42 50
f 51 53 50
f 52 53 51
f 40 52 51
f 52 54 42
f 55 54 52
f 56 55 52
f 57 56 52
f 40 58 52
f 58 57 52
f 59 42 54
f 55 56 54
f 56 59 54
f 60 42 59
f 57 60 56
f 57 42 60
f 18 19 17
f 19 18 11
f 18 20 11
f 20 3 11
f 18 21 20
f 10 21 18
f 22 3 20
f 21 23 20
f 23 24 20
f 24 25 20
f 25 22 20
f 10 26 21
f 26 23 21
f 23 27 24
f 27 25 24
f 26 27 23
f 26 22 25
f 28 3 22
f 29 28 22
f 30 29 22
f 26 31 22
f 31 30 22
f 32 31 26
f 10 32 26
f 32 28 29
f 33 3 28
f 34 35 28
f 35 33 28
f 36 34 28
f 32 36 28
f 10 36 32
f 36 33 35
f 7 6 4
f 5 4 2
f 7 4 5
f 8 3 6
f 9 8 6
f 5 6 7
f 10 9 5
f 9 6 5
f 11 3 8
f 9 12 8
f 12 13 8
f 13 14 8
f 14 11 8
f 15 12 9
f 10 15 9
f 15 16 12
f 101 61 100
f 100 61 99
f 99 61 98
f 98 61 97
f 97 61 96
f 96 61 95
f 95 61 94
f 94 61 91
f 93 65 63
f 92 93 63
f 87 92 63
f 91 61 63
f 90 91 63
f 86 90 63
f 89 73 63
f 88 89 63
f 117 61 116
f 116 61 115
f 115 61 114
f 114 61 113
f 113 61 112
f 112 61 111
f 111 61 110
f 110 61 109
f 109 61 108
f 108 61 107
f 107 61 106
f 106 61 105
f 105 61 104
f 104 61 103
f 103 61 102
f 102 61 101
f 133 61 132
f 132 61 131
f 131 61 130
f 130 61 129
f 129 61 128
f 128 61 127
f 127 61 126
f 126 61 125
f 125 61 124
f 124 61 123
f 123 61 122
f 122 61 121
f 121 61 120
f 120 61 119
f 119 61 118
f 118 61 117
f 149 61 148
f 148 61 147
f 147 61 146
f 146 61 145
f 145 61 144
f 144 61 143
f 143 61 142
f 142 61 141
f 141 61 140
f 140 61 139
f 139 61 138
f 138 61 137
f 137 61 136
f 136 61 135
f 135 61 134
f 134 61 133
f 158 61 157
f 159 61 158
f 160 61 159
f 161 61 160
f 154 61 153
f 155 61 154
f 156 61 155
f 157 61 156
f 153 61 152
f 152 61 151
f 151 61 150
f 150 61 149
f 65 66 63
f 61 64 62
f 61 62 63
f 67 68 63
f 73 74 63
f 74 75 63
f 66 76 63
f 76 77 63
f 77 69 63
f 72 78 63
f 78 79 63
f 79 80 63
f 75 81 63
f 81 82 63
f 82 83 63
f 83 84 63
f 84 85 63
f 85 86 63
f 68 87 63
f 80 88 63
f 69 70 63
f 71 72 63
f 70 71 63
f 186 182 184
f 186 183 180
f 167 185 180
f 184 182 178
f 183 184 178
f 180 183 178
f 187 186 184
f 186 187 183
f 185 186 180
f 167 163 162
f 166 165 163
f 165 164 163
f 162 163 164
f 177 175 176
f 176 175 173
f 175 164 173
f 167 173 172
f 174 167 172
f 174 171 167
f 172 173 164
f 171 172 164
f 167 171 170
f 171 164 169
f 170 171 169
f 170 165 167
f 169 164 165
f 167 165 166
f 168 167 166
f 168 163 167
f 182 188 164
f 189 188 182
f 190 191 182
f 186 192 182
f 192 193 182
f 193 194 182
f 194 190 182
f 191 189 182
f 195 192 186
f 185 195 186
f 195 196 192
f 196 190 194
f 197 190 196
f 195 197 196
f 195 198 197
f 198 195 191
f 178 164 175
f 177 179 175
f 180 179 177
f 167 180 177
f 180 181 179
f 181 180 178
f 182 164 178
f 207 208 205
f 204 202 199
f 205 208 201
f 207 206 201
f 206 188 201
f 205 201 203
f 185 205 200
f 205 204 200
f 200 204 199
f 185 207 205
f 209 188 206
f 210 211 206
f 211 209 206
f 212 210 206
f 207 212 206
f 213 212 207
f 185 213 207
f 213 209 211
f 214 188 209
f 213 215 209
f 214 215 213
f 185 214 213
f 216 188 214
f 217 216 214
f 185 217 214
f 218 219 216
f 219 188 216
f 220 218 216
f 217 220 216
f 185 220 217
f 220 219 218
f 220 221 219
f 222 221 220
f 185 222 220
f 203 201 199
f 202 203 199
f 201 188 199
f 185 200 195
f 195 200 189
f 199 188 189
f 195 189 191
f 222 188 225
f 222 225 224
f 225 188 223
f 222 224 221
f 224 223 219
f 221 224 219
f 223 188 219
f 243 241 242
f 236 243 239
f 242 241 237
f 241 227 237
f 239 237 238
f 240 239 238
f 239 240 234
f 236 239 235
f 239 234 235
f 238 237 234
f 237 227 234
f 236 235 233
f 232 236 233
f 235 234 233
f 244 227 241
f 264 262 256
f 259 257 253
f 263 261 256
f 262 263 256
f 261 252 256
f 260 256 258
f 236 260 254
f 260 259 254
f 254 259 253
f 254 255 236
f 258 256 253
f 257 258 253
f 256 252 253
f 255 254 244
f 236 255 244
f 254 253 244
f 268 271 252
f 281 252 280
f 272 273 252
f 271 272 252
f 268 252 270
f 270 252 266
f 268 270 267
f 269 268 265
f 236 269 265
f 268 267 265
f 265 267 261
f 267 266 261
f 266 252 261
f 265 261 263
f 236 265 260
f 265 264 260
f 260 264 256
f 274 277 273
f 280 252 279
f 280 279 269
f 269 279 276
f 276 279 252
f 278 269 276
f 269 278 277
f 269 277 274
f 269 274 272
f 277 275 273
f 276 252 273
f 275 276 273
f 269 272 268
f 272 274 273
f 272 271 268
f 269 283 282
f 269 252 283
f 283 252 281
f 269 282 280
f 282 281 280
f 232 231 228
f 244 252 227
f 226 227 228
f 228 229 226
f 228 231 229
f 229 230 226
f 230 227 226
f 236 244 246
f 253 252 244
f 251 236 246
f 236 250 247
f 236 251 250
f 232 229 231
f 233 227 230
f 233 230 232
f 232 230 229
f 246 244 241
f 236 247 243
f 234 227 233
f 245 246 241
f 247 248 241
f 248 249 241
f 249 245 241
f 243 247 241
f 250 245 249
f 247 250 249
f 285 287 286
f 284 287 285
f 286 284 285
f 291 289 288
f 290 291 288
f 289 290 288
f 318 321 319
f 294 303 298
f 302 296 298
f 303 302 298
f 299 295 297
f 295 300 296
f 301 296 300
f 298 301 299
f 298 296 301
f 292 293 294
f 298 299 297
f 295 296 297
f 294 313 312
f 294 312 307
f 307 312 311
f 312 308 296
f 310 311 296
f 311 312 296
f 310 296 307
f 294 307 306
f 296 308 309
f 306 307 305
f 305 307 296
f 294 306 305
f 294 305 303
f 303 305 304
f 304 305 296
f 302 304 296
f 325 326 315
f 324 325 315
f 327 324 323
f 321 327 322
f 321 324 327
f 321 318 294
f 328 324 321
f 329 326 325
f 293 321 294
f 330 328 321
f 330 329 328
f 331 332 329
f 330 331 329
f 332 326 329
f 330 326 332
f 293 330 321
f 314 315 308
f 315 309 308
f 316 314 308
f 294 316 313
f 294 314 316
f 317 314 294
f 314 318 315
f 294 318 317
f 319 320 318
f 320 315 318
f 320 321 315
f 322 323 315
f 321 322 315
f 323 324 315
f 319 321 320
f 343 340 336
f 344 343 342
f 293 344 341
f 293 343 344
f 345 343 293
f 343 346 340
f 346 345 340
f 347 345 293
f 347 348 345
f 348 340 345
f 349 350 340
f 348 349 340
f 292 347 293
f 292 350 347
f 292 351 350
f 351 352 350
f 352 340 350
f 333 334 330
f 293 333 330
f 334 326 330
f 334 335 326
f 335 336 326
f 337 335 334
f 293 337 333
f 353 354 340
f 293 335 337
f 342 343 336
f 339 342 336
f 293 341 339
f 293 339 338
f 336 340 326
f 338 339 336
f 293 338 335
f 354 355 340
f 352 356 340
f 292 353 340
f 356 292 340
f 357 292 356
f 292 357 351
f 353 292 354
f 292 355 354

