# https://github.com/mikedh/trimesh
v 0.75251416 1.08242794 1.78000000
v 0.65175144 0.98166523 1.78000000
v 0.65175144 0.97459415 1.78000000
v 0.55098873 1.08242794 1.78000000
v 0.65528698 1.18672619 1.78000000
v 0.65175144 1.18319066 1.78000000
v 0.75604969 1.08596348 1.78000000
v 0.64821591 1.18672619 1.78000000
v 0.54745319 1.08596348 1.78000000
v 0.43961940 1.18672619 1.78000000
v 0.44669048 1.18672619 1.78000000
v 0.85681240 1.18672619 1.78000000
v 0.86388348 1.18672619 1.78000000
v 0.65175144 1.19026172 1.78000000
v 0.75604969 1.28748890 1.78000000
v 0.54745319 1.28748890 1.78000000
v 0.75251416 1.29102444 1.78000000
v 0.55098873 1.29102444 1.78000000
v 0.65175144 1.39885823 1.78000000
v 0.65175144 1.39178715 1.78000000
v 0.65175144 1.39885823 1.58000000
v 0.86388348 1.18672619 1.58000000
v 0.43961940 1.18672619 1.58000000
v 0.65175144 0.97459415 1.58000000
v 0.55098873 1.08242794 1.73999999
v 0.65175144 1.18319066 1.73999999
v 0.75251416 1.08242794 1.73999999
v 0.65175144 0.98166523 1.73999999
v 0.65528698 1.18672619 1.73999999
v 0.75604969 1.08596348 1.73999999
v 0.75604969 1.28748890 1.73999999
v 0.85681240 1.18672619 1.73999999
v 0.75251416 1.29102444 1.73999999
v 0.65175144 1.19026172 1.73999999
v 0.55098873 1.29102444 1.73999999
v 0.65175144 1.39178715 1.73999999
v 0.54745319 1.28748890 1.73999999
v 0.64821591 1.18672619 1.73999999
v 0.54745319 1.08596348 1.73999999
v 0.44669048 1.18672619 1.73999999
f 1 2 3
f 4 3 2
f 5 6 1
f 5 1 7
f 8 4 6
f 8 9 4
f 10 9 11
f 12 7 13
f 14 6 5
f 14 8 6
f 15 12 13
f 16 10 11
f 17 5 15
f 17 14 5
f 18 16 8
f 18 8 14
f 19 20 17
f 19 18 20
f 13 1 3
f 13 7 1
f 3 9 10
f 3 4 9
f 10 18 19
f 10 16 18
f 19 15 13
f 19 17 15
f 13 21 19
f 13 22 21
f 19 23 10
f 19 21 23
f 10 24 3
f 10 23 24
f 3 22 13
f 3 24 22
f 21 22 24
f 21 24 23
f 6 4 25
f 6 25 26
f 6 27 1
f 6 26 27
f 1 28 2
f 1 27 28
f 25 2 28
f 4 2 25
f 27 26 25
f 27 25 28
f 29 7 30
f 5 7 29
f 5 31 15
f 5 29 31
f 15 32 12
f 15 31 32
f 12 30 7
f 12 32 30
f 31 29 30
f 32 31 30
f 14 17 33
f 14 33 34
f 34 35 18
f 14 34 18
f 20 18 35
f 20 35 36
f 36 33 17
f 20 36 17
f 33 36 35
f 33 35 34
f 8 16 37
f 8 37 38
f 8 39 9
f 8 38 39
f 11 9 39
f 11 39 40
f 16 11 40
f 16 40 37
f 38 37 40
f 38 40 39

