v 0.199855624 -0.0957047465 0.0839999233
v 0.199855624 -0.104871933 0.0839999233
v 0.199855624 -0.104871933 0.0952499126
v 0.200025974 -0.10616601 0.0839999233
v 0.200025974 -0.10616601 0.0952499126
v 0.20052558 -0.107371931 0.0839999233
v 0.210328518 -0.0990304994 0.0839999233
v 0.210328518 -0.0990304994 0.0952499126
v 0.212204991 -0.102280502 0.0839999233
v 0.212204991 -0.102280502 0.0952499126
v 0.210328518 -0.105530505 0.0839999233
v 0.210328518 -0.105530505 0.0952499126
v 0.20052558 -0.107371931 0.0952499126
v 0.200769363 -0.107689654 0.0839999233
v 0.200769363 -0.107689654 0.0952499126
v 0.199855624 -0.0957047465 0.0952499126
f 1 2 3
f 3 16 1
f 14 11 12
f 12 15 14
f 12 11 9
f 9 10 12
f 3 2 5
f 2 4 5
f 8 1 16
f 8 7 1
f 8 10 9
f 9 7 8
f 6 7 9
f 2 1 6
f 9 11 6
f 6 11 14
f 6 4 2
f 1 7 6
f 13 16 3
f 15 12 13
f 3 5 13
f 13 12 10
f 13 8 16
f 10 8 13
f 14 15 13
f 13 6 14
f 13 5 4
f 4 6 13
