v -0.199855627 0.104871924 0.0839999233
v -0.199855627 0.0957047594 0.0839999233
v -0.199855627 0.0957047594 0.0789999281
v -0.199855627 0.0984074426 0.072749934
v -0.199855627 0.104871924 0.072749934
v -0.19995171 0.105847414 0.072749934
v -0.19995171 0.105847414 0.0839999233
v -0.200236262 0.106785352 0.072749934
v -0.200236262 0.106785352 0.0839999233
v -0.200698318 0.107649739 0.072749934
v -0.200698318 0.107649739 0.0839999233
v -0.20073109 0.107689674 0.072749934
v -0.20073109 0.107689674 0.0839999233
v -0.209230633 0.0957047594 0.0789999281
v -0.209230633 0.0990304303 0.0839999233
v -0.209230633 0.105530436 0.0839999233
v -0.209230633 0.105530436 0.072749934
v -0.209230633 0.0984074426 0.072749934
f 2 15 14
f 1 2 3
f 3 5 1
f 4 5 3
f 14 18 3
f 3 18 4
f 2 14 3
f 17 13 12
f 16 13 17
f 17 15 16
f 17 14 15
f 17 18 14
f 7 2 1
f 7 13 16
f 16 15 7
f 7 15 2
f 7 11 13
f 9 11 7
f 12 13 10
f 13 11 10
f 10 11 9
f 9 8 10
f 6 5 4
f 6 17 12
f 4 18 6
f 18 17 6
f 12 10 6
f 6 10 8
f 1 5 6
f 6 7 1
f 9 7 6
f 6 8 9
