v -0.126566352 -0.201751118 0.12899988
v -0.123030843 -0.203215544 0.12899988
v -0.125272216 -0.201921468 0.12899988
v -0.124066414 -0.202420955 0.12899988
v -0.127860488 -0.201921468 0.12899988
v -0.129066409 -0.202420955 0.12899988
v -0.130101861 -0.203215544 0.12899988
v -0.13022456 -0.203338243 0.12899988
v -0.11895712 -0.206925507 0.12899988
v -0.13022456 -0.213302078 0.12899988
v -0.11895712 -0.213302078 0.12899988
v -0.130101861 -0.203215544 0.117749891
v -0.129066409 -0.202420955 0.117749891
v -0.127860488 -0.201921468 0.117749891
v -0.126566352 -0.201751118 0.117749891
v -0.125272216 -0.201921468 0.117749891
v -0.124066414 -0.202420955 0.117749891
v -0.123030843 -0.203215544 0.117749891
v -0.13022456 -0.203338243 0.117749891
v -0.11895712 -0.206925507 0.117749891
f 9 11 20
f 11 10 20
f 20 10 19
f 19 8 12
f 8 7 12
f 10 8 19
f 18 2 9
f 9 20 18
f 8 10 5
f 5 7 8
f 5 11 9
f 9 2 5
f 5 10 11
f 5 3 1
f 5 2 4
f 4 3 5
f 6 7 5
f 14 13 5
f 5 13 6
f 1 3 15
f 15 3 16
f 15 5 1
f 14 5 15
f 17 3 4
f 16 3 17
f 4 2 17
f 2 18 17
f 12 20 19
f 12 18 20
f 16 17 12
f 12 15 16
f 12 13 14
f 14 15 12
f 12 17 18
f 12 7 6
f 6 13 12
