v 0.0626830443 -0.219147091 0.0789999281
v 0.0626830443 -0.219147091 0.0839999233
v 0.0638889655 -0.219646637 0.0789999281
v 0.0638889655 -0.219646637 0.0839999233
v 0.0651829823 -0.219816987 0.0789999281
v 0.0650535806 -0.219799952 0.0839999233
v 0.0619270293 -0.218567004 0.0789999281
v 0.0619270293 -0.218567004 0.0839999233
v 0.0730399227 -0.219816987 0.0839999233
v 0.0651829823 -0.219816987 0.0839999233
v 0.0730399227 -0.219816987 0.0789999281
v 0.0730399227 -0.218567004 0.0789999281
f 12 8 9
f 9 11 12
f 6 3 5
f 5 10 6
f 3 6 4
f 5 11 10
f 10 11 9
f 7 8 12
f 1 11 5
f 7 12 1
f 1 12 11
f 5 3 1
f 7 1 2
f 2 8 7
f 4 10 9
f 8 2 4
f 9 8 4
f 4 1 3
f 4 2 1
