v 0.147463786 -0.227921175 0.0389999662
v 0.13949277 -0.227921175 0.0389999662
v 0.13949277 -0.243115922 0.0389999662
v 0.146400726 -0.243115922 0.0389999662
v 0.147463786 -0.241482178 0.0389999662
v 0.147463786 -0.243115922 0.033999971
v 0.147463786 -0.243115922 0.0376961151
v 0.13949277 -0.243115922 0.033999971
v 0.147463786 -0.227921175 0.033999971
v 0.13949277 -0.227921175 0.033999971
f 5 4 7
f 2 3 4
f 4 1 2
f 4 5 1
f 1 9 10
f 2 1 10
f 10 3 2
f 10 8 3
f 10 9 6
f 6 8 10
f 6 9 7
f 1 5 7
f 7 9 1
f 7 4 3
f 3 8 7
f 7 8 6
