v -0.249400063 -0.132068877 0.0867114665
v -0.250976333 -0.132068877 0.0839999233
v -0.250976333 -0.129715415 0.0839999233
v -0.250976332 -0.120087897 0.0839999233
v -0.24468924 -0.132068877 0.0948151502
v -0.244689207 -0.12016387 0.0948151502
v -0.244715363 -0.120087897 0.0947701561
v -0.245151687 -0.120087897 0.0940196585
v -0.244689253 -0.121477553 0.0948151502
v -0.24468921 -0.120087897 0.0948151502
f 2 6 5
f 9 8 2
f 2 8 3
f 8 4 3
f 7 6 2
f 2 4 7
f 1 9 2
f 5 9 1
f 8 9 10
f 6 7 10
f 10 7 4
f 10 4 8
f 10 9 5
f 10 5 6
