v 0.143644421 0.221245788 0.0389999662
v 0.148132112 0.221245788 0.0502499555
v 0.143644421 0.229482091 0.0389999662
v 0.148132112 0.221245788 0.0389999662
v 0.151569815 0.229482091 0.0465567267
v 0.153621761 0.227430145 0.0502499555
v 0.152302003 0.228749902 0.0478745689
v 0.153969114 0.227082791 0.0502499555
v 0.151569815 0.229482091 0.0389999662
v 0.153969114 0.227082791 0.0389999662
f 2 3 1
f 6 2 8
f 4 2 1
f 5 9 3
f 7 5 3
f 8 2 4
f 4 10 8
f 9 4 1
f 1 3 9
f 10 4 9
f 2 6 7
f 3 2 7
f 8 10 7
f 7 6 8
f 10 9 7
f 9 5 7
