v 0.212606835 0.0668509001 0.106499902
v 0.219816981 0.0651830387 0.117749891
v 0.219816981 0.0651830387 0.106499902
v 0.214816986 0.0601829839 0.117749891
v 0.214816986 0.0601829839 0.106499902
v 0.216111122 0.0603533936 0.106499902
v 0.216111122 0.0603533936 0.117749891
v 0.217317043 0.0608528805 0.106499902
v 0.217317043 0.0608528805 0.117749891
v 0.218352495 0.06164747 0.106499902
v 0.218352495 0.06164747 0.117749891
v 0.219147144 0.0626830411 0.106499902
v 0.219147144 0.0626830411 0.117749891
v 0.219646631 0.0638889027 0.106499902
v 0.219646631 0.0638889027 0.117749891
v 0.212606835 0.0601829839 0.117749891
v 0.212606835 0.0601829839 0.106499902
v 0.212606835 0.0668509001 0.117749891
v 0.219816981 0.0721639645 0.106499902
v 0.219816981 0.0721639645 0.117749891
f 18 19 1
f 20 19 18
f 16 1 17
f 16 18 1
f 17 5 16
f 16 5 4
f 15 12 14
f 15 13 12
f 10 5 17
f 8 6 10
f 10 19 3
f 17 1 10
f 1 19 10
f 10 3 14
f 14 12 10
f 6 5 10
f 13 11 10
f 12 13 10
f 8 10 9
f 9 10 11
f 3 19 2
f 2 19 20
f 14 3 2
f 2 15 14
f 7 2 20
f 18 16 7
f 20 18 7
f 15 2 7
f 7 16 4
f 7 11 13
f 13 15 7
f 7 9 11
f 7 5 6
f 4 5 7
f 7 6 8
f 8 9 7
