v -0.188630642 0.0231952024 0.151857785
v -0.188696922 0.0232109976 0.152375392
v -0.189840259 0.0255147171 0.153789571
v -0.189357819 0.0255147171 0.153589777
v -0.18941945 0.0244637084 0.153589777
v -0.189008059 0.0244153691 0.153271965
v -0.188943686 0.0255147171 0.153271965
v -0.188692392 0.0243782354 0.152857832
v -0.188625754 0.0255147171 0.152857832
v -0.18842596 0.0255147171 0.152375392
v -0.188493909 0.02435493 0.152375392
v -0.188357891 0.0255147171 0.151857785
v -0.188426317 0.0243469429 0.151857785
v -0.188357891 0.0274999988 0.151857785
v -0.189840259 0.0274999988 0.153789571
v -0.189357819 0.0274999988 0.153589777
v -0.188943686 0.0274999988 0.153271965
v -0.188625754 0.0274999988 0.152857832
v -0.18842596 0.0274999988 0.152375392
v -0.191978987 0.0274999988 0.154478839
v -0.190405189 0.013749997 0.152147017
v -0.190431378 0.013749997 0.152450838
v -0.190435416 0.013749997 0.15249072
v -0.190513998 0.013749997 0.152790914
v -0.19052398 0.013749997 0.152822812
v -0.190654227 0.013749997 0.153110845
v -0.190666626 0.013749997 0.153133289
v -0.190846722 0.013749997 0.153400663
v -0.190857772 0.013749997 0.15341365
v -0.191084391 0.013749997 0.15365203
v -0.191978987 0.013749997 0.154478839
v -0.19662212 0.013749997 0.154478839
v -0.19662212 0.0274999988 0.154478839
v -0.188630642 0.0231952024 0.145718328
v -0.188357891 0.0255147171 0.145718328
v -0.188426317 0.0243469429 0.145718328
v -0.188357891 0.0274999988 0.145718328
v -0.190388912 0.013749997 0.145718328
v -0.193447532 0.0274999988 0.145718328
v -0.193447532 0.013749997 0.145718328
f 21 38 1
f 34 1 38
f 1 13 11
f 11 2 1
f 11 13 12
f 12 10 11
f 8 25 11
f 11 25 2
f 1 2 23
f 8 28 27
f 31 4 3
f 31 30 6
f 30 29 6
f 6 29 28
f 6 28 8
f 2 25 24
f 24 23 2
f 21 1 22
f 1 23 22
f 26 25 8
f 8 27 26
f 5 4 31
f 31 6 5
f 5 6 4
f 9 6 8
f 8 11 9
f 9 11 10
f 6 9 7
f 4 6 7
f 32 33 40
f 40 33 39
f 32 31 20
f 20 33 32
f 37 14 35
f 35 14 12
f 35 13 36
f 12 13 35
f 38 40 35
f 35 34 38
f 39 37 35
f 35 40 39
f 36 34 35
f 34 13 1
f 36 13 34
f 12 14 19
f 19 10 12
f 32 40 26
f 26 31 32
f 26 38 21
f 26 40 38
f 26 30 31
f 28 29 26
f 26 24 25
f 26 29 30
f 26 27 28
f 21 22 26
f 23 24 26
f 26 22 23
f 15 20 31
f 31 3 15
f 15 3 4
f 4 16 15
f 19 18 9
f 10 19 9
f 17 37 39
f 39 33 17
f 17 14 37
f 17 19 14
f 33 20 17
f 17 18 19
f 20 15 17
f 17 15 16
f 7 9 18
f 18 17 7
f 7 16 4
f 7 17 16
