v -0.238402155 -0.132068877 0.105630377
v -0.238351964 -0.132068877 0.10571672
v -0.238402157 -0.131939898 0.105630377
v -0.238402098 -0.129929746 0.105630377
v -0.237534598 -0.132068877 0.10712267
v -0.232115016 -0.132068877 0.116445604
v -0.232115017 -0.120087897 0.116445604
v -0.236696495 -0.120087897 0.108564431
v -0.238402117 -0.120087897 0.105630377
v -0.232115017 -0.126446366 0.116445604
f 7 4 9
f 2 7 3
f 3 7 8
f 8 9 3
f 10 2 6
f 7 2 10
f 5 7 6
f 5 4 7
f 4 5 1
f 1 5 6
f 6 2 1
f 1 9 4
f 3 9 1
f 1 2 3
