v -0.108106913 0.248840168 0.0876745616
v -0.108106913 0.250976325 0.0839999233
v -0.108106913 0.248487121 0.0882819492
v -0.101151823 0.250976337 0.0839999233
v -0.101902251 0.250976308 0.0839999233
v -0.0989235632 0.250976335 0.0839999233
v -0.108106913 0.247252146 0.0904063845
v -0.108106913 0.2445814 0.0950006115
v -0.0951449886 0.244581402 0.0950006115
v -0.0951449886 0.250976314 0.0839999233
f 5 9 1
f 5 10 9
f 1 2 5
f 9 10 6
f 6 7 9
f 4 2 3
f 1 9 8
f 9 7 8
f 6 2 4
f 10 5 6
f 6 5 2
f 3 8 7
f 1 8 3
f 3 2 1
f 3 6 4
f 7 6 3
