v 0.25610566 -0.0817499804 0.0389999662
v 0.257803856 -0.0817499804 0.0389999662
v 0.259087382 -0.0819175291 0.0389999662
v 0.26028484 -0.0824089098 0.0389999662
v 0.261316 -0.0831912207 0.0389999662
v 0.261316 -0.0831912207 0.0502499555
v 0.26028484 -0.0824089098 0.0502499555
v 0.259087382 -0.0819175291 0.0502499555
v 0.25610566 -0.0817499804 0.0502499555
v 0.257803856 -0.0817499804 0.0502499555
v 0.264551767 -0.0863845311 0.0389999662
v 0.264551767 -0.094719817 0.0389999662
v 0.25610566 -0.094719817 0.0389999662
v 0.264551767 -0.0863845311 0.0502499555
f 14 12 11
f 14 13 12
f 1 13 9
f 13 14 9
f 11 12 2
f 2 13 1
f 12 13 2
f 2 5 11
f 4 5 2
f 2 3 4
f 9 10 2
f 1 9 2
f 3 2 8
f 8 2 10
f 4 3 7
f 3 8 7
f 11 5 6
f 6 14 11
f 6 9 14
f 6 10 9
f 6 8 10
f 6 7 8
f 6 5 4
f 4 7 6
