v 0.189419447 0.0244637084 0.153589777
v 0.189008056 0.0244153691 0.153271965
v 0.188692389 0.0243782354 0.152857832
v 0.188493906 0.02435493 0.152375392
v 0.188696919 0.0232109976 0.152375392
v 0.188426314 0.0243469429 0.151857785
v 0.189840256 0.0255147171 0.153789571
v 0.189357816 0.0255147171 0.153589777
v 0.188943683 0.0255147171 0.153271965
v 0.188625871 0.0255147171 0.152857832
v 0.188357888 0.0255147171 0.151857785
v 0.188630639 0.0231952024 0.151857785
v 0.188357888 0.0274999988 0.151857785
v 0.189840256 0.0274999988 0.153789571
v 0.189357816 0.0274999988 0.153589777
v 0.188943683 0.0274999988 0.153271965
v 0.188625871 0.0274999988 0.152857832
v 0.188425957 0.0274999988 0.152375392
v 0.188425957 0.0255147171 0.152375392
v 0.191978984 0.0274999988 0.154478839
v 0.191090681 0.013749997 0.153656973
v 0.190857769 0.013749997 0.15341365
v 0.190666623 0.013749997 0.153133289
v 0.190523977 0.013749997 0.152822812
v 0.190435413 0.013749997 0.15249072
v 0.190405186 0.013749997 0.152147017
v 0.191978984 0.013749997 0.154478839
v 0.196622117 0.0274999988 0.154478839
v 0.196622117 0.013749997 0.154478839
v 0.188630639 0.0231952024 0.145718328
v 0.188426314 0.0243469429 0.145718328
v 0.188357888 0.0255147171 0.145718328
v 0.188357888 0.0274999988 0.145718328
v 0.190389678 0.013749997 0.145718328
v 0.193447529 0.0274999988 0.145718328
v 0.193447529 0.013749997 0.145718328
f 30 34 12
f 12 34 26
f 25 12 26
f 7 8 27
f 2 27 1
f 1 8 2
f 27 8 1
f 2 22 21
f 21 27 2
f 3 22 2
f 24 3 4
f 6 12 4
f 11 6 4
f 23 3 24
f 22 3 23
f 5 25 24
f 24 4 5
f 12 25 5
f 5 4 12
f 19 3 10
f 19 4 3
f 11 4 19
f 9 3 2
f 10 3 9
f 2 8 9
f 35 29 36
f 28 29 35
f 20 29 28
f 20 27 29
f 7 20 14
f 27 20 7
f 15 7 14
f 8 7 15
f 14 20 16
f 16 33 13
f 28 35 16
f 16 15 14
f 16 20 28
f 35 33 16
f 13 18 16
f 16 18 17
f 23 34 36
f 27 21 23
f 36 29 23
f 26 34 23
f 29 27 23
f 23 25 26
f 23 21 22
f 24 25 23
f 13 33 32
f 11 13 32
f 31 35 36
f 36 34 31
f 31 34 30
f 31 33 35
f 31 32 33
f 30 12 31
f 31 12 6
f 11 32 31
f 31 6 11
f 17 18 19
f 19 10 17
f 19 18 13
f 19 13 11
f 9 16 17
f 17 10 9
f 8 15 9
f 15 16 9
