v -0.217317046 -0.06085289 0.0789999281
v -0.216111125 -0.0603534031 0.0789999281
v -0.214816989 -0.0601829934 0.0789999281
v -0.214816989 -0.0601829934 0.0839999233
v -0.216111125 -0.0603534031 0.0839999233
v -0.217317046 -0.06085289 0.0839999233
v -0.218352498 -0.0616474795 0.0789999281
v -0.218352498 -0.0616474795 0.0839999233
v -0.218566985 -0.0619269791 0.0789999281
v -0.218566985 -0.0619269791 0.0839999233
v -0.218566985 -0.072163974 0.0789999281
v -0.209191994 -0.0601829934 0.0789999281
v -0.209191994 -0.0601829934 0.0839999233
v -0.211693348 -0.0684329915 0.0839999233
v -0.209191994 -0.0684329915 0.0839999233
v -0.209191994 -0.072163974 0.0789999281
f 14 10 11
f 15 16 13
f 13 16 12
f 13 12 3
f 3 4 13
f 11 16 15
f 15 14 11
f 11 10 9
f 7 11 9
f 12 16 7
f 16 11 7
f 3 12 7
f 7 2 3
f 1 2 7
f 5 4 3
f 3 2 5
f 5 2 1
f 1 6 5
f 15 13 8
f 8 10 14
f 8 14 15
f 8 13 4
f 4 5 8
f 8 5 6
f 9 10 8
f 8 7 9
f 1 7 8
f 8 6 1
