v 0.193447529 0.0274999988 0.145718328
v 0.188357888 0.0274999988 0.151857785
v 0.189840256 0.0362500054 0.153789571
v 0.189840256 0.0274999988 0.153789571
v 0.189357816 0.0362500054 0.153589777
v 0.189357816 0.0274999988 0.153589777
v 0.188943683 0.0362500054 0.153271965
v 0.188943683 0.0274999988 0.153271965
v 0.188625871 0.0362500054 0.152857832
v 0.188625871 0.0274999988 0.152857832
v 0.188425957 0.0362500054 0.152375392
v 0.188425957 0.0274999988 0.152375392
v 0.188357888 0.0362500054 0.151857785
v 0.191978984 0.0274999988 0.154478839
v 0.191978984 0.0362500054 0.154478839
v 0.196622117 0.0362500054 0.154478839
v 0.196622117 0.0274999988 0.154478839
v 0.188357888 0.0362500054 0.145718328
v 0.188357888 0.0274999988 0.145718328
v 0.193447529 0.0362500054 0.145718328
f 14 17 15
f 15 17 16
f 1 20 16
f 16 17 1
f 1 18 20
f 19 18 1
f 14 15 4
f 15 3 4
f 4 3 5
f 5 6 4
f 13 18 19
f 19 2 13
f 2 12 13
f 13 12 11
f 10 1 17
f 19 1 10
f 10 17 14
f 10 2 19
f 14 4 10
f 10 4 6
f 6 8 10
f 10 12 2
f 10 9 11
f 11 12 10
f 16 20 7
f 7 15 16
f 5 3 7
f 18 13 7
f 20 18 7
f 7 3 15
f 7 13 11
f 11 9 7
f 7 6 5
f 7 8 6
f 7 10 8
f 9 10 7
