v 0.0395000562 -0.190199976 0.106499961
v 0.0395000562 -0.186200027 0.106499961
v 0.0250000342 -0.186200027 0.106499961
v 0.0250000342 -0.190199976 0.106499961
v 0.0395000562 -0.199770008 0.103379277
v 0.0380000457 -0.199770008 0.103379277
v 0.0250000342 -0.190199976 0.09349995
v 0.0395000562 -0.186200027 0.09349995
v 0.0250000342 -0.186200027 0.09349995
v 0.0395000562 -0.199770008 0.09349995
v 0.0380000457 -0.199770008 0.09349995
f 1 4 5
f 5 4 6
f 2 10 8
f 1 5 2
f 2 5 10
f 2 4 1
f 3 4 2
f 9 4 3
f 7 4 9
f 9 2 8
f 3 2 9
f 7 9 11
f 8 10 11
f 11 9 8
f 10 5 11
f 11 5 6
f 6 4 11
f 11 4 7
