v 0.23709907 -0.143644375 0.107938341
v 0.237407544 -0.143644375 0.107407717
v 0.234619727 -0.146432192 0.105608412
v 0.225892196 -0.152778526 0.105608412
v 0.225892196 -0.152778526 0.116412656
v 0.232172863 -0.143644375 0.116412656
v 0.232871862 -0.143644375 0.115210152
v 0.234053441 -0.143644375 0.113177549
v 0.227082796 -0.153969123 0.105608412
v 0.236226848 -0.143644375 0.109438953
v 0.237407544 -0.143644375 0.107407836
v 0.232172889 -0.148879031 0.116412656
v 0.227082796 -0.153969123 0.116412656
v 0.235594964 -0.145456955 0.11052594
v 0.236531025 -0.144520894 0.108915685
f 4 5 6
f 3 9 4
f 4 6 7
f 6 12 10
f 8 1 4
f 4 7 8
f 10 15 11
f 14 10 12
f 14 15 10
f 13 5 4
f 4 9 13
f 5 13 12
f 12 6 5
f 2 3 1
f 1 3 4
f 2 1 11
f 11 8 7
f 11 7 6
f 6 10 11
f 1 8 11
f 14 13 9
f 14 3 2
f 9 3 14
f 14 12 13
f 2 11 14
f 14 11 15
