v 0.0647500142 0.219855721 0.106499902
v 0.0647500142 0.219855721 0.117749891
v 0.0634558781 0.219685252 0.106499902
v 0.0634558781 0.219685252 0.117749891
v 0.062249957 0.219185765 0.106499902
v 0.062249957 0.219185765 0.117749891
v 0.0612145051 0.218391235 0.106499902
v 0.0612145051 0.218391235 0.117749891
v 0.060419856 0.217355664 0.106499902
v 0.060419856 0.217355664 0.117749891
v 0.059920369 0.216149743 0.106499902
v 0.059920369 0.216149743 0.117749891
v 0.059750019 0.214855607 0.106499902
v 0.059750019 0.214855607 0.117749891
v 0.059750019 0.212645473 0.106499902
v 0.059750019 0.212645473 0.117749891
v 0.0664179527 0.212645473 0.106499902
v 0.0664179527 0.212645473 0.117749891
v 0.0717349335 0.219855721 0.117749891
v 0.0717349335 0.219855721 0.106499902
f 17 18 16
f 16 15 17
f 19 18 17
f 17 20 19
f 13 15 14
f 14 15 16
f 7 10 8
f 9 10 7
f 11 14 12
f 13 14 11
f 12 10 11
f 11 10 9
f 5 7 6
f 6 7 8
f 20 17 3
f 3 15 13
f 3 17 15
f 13 11 3
f 3 7 5
f 9 7 3
f 3 11 9
f 3 1 20
f 3 6 4
f 5 6 3
f 2 14 16
f 2 18 19
f 16 18 2
f 2 6 8
f 12 14 2
f 8 10 2
f 2 10 12
f 4 6 2
f 19 20 2
f 20 1 2
f 1 3 2
f 2 3 4
