v -0.264056006 -0.0863663987 0.0614999447
v -0.261277379 -0.0836241889 0.06627982
v -0.261277379 -0.0836241889 0.0614999447
v -0.257765235 -0.0821830082 0.0614999447
v -0.257765235 -0.0821830082 0.072321466
v -0.259048642 -0.0823505568 0.0614999447
v -0.259048642 -0.0823505568 0.07011371
v -0.2602461 -0.0828419375 0.0614999447
v -0.2602461 -0.0828419375 0.0680537735
v -0.264056009 -0.093285714 0.0614999447
v -0.264056009 -0.0916065089 0.0614999447
v -0.250686488 -0.0821830082 0.0614999447
v -0.264056001 -0.095144962 0.0614999447
v -0.263886587 -0.095144962 0.0617913853
v -0.26242103 -0.095144962 0.0643124405
v -0.257516158 -0.0821830082 0.072749934
v -0.250686488 -0.0821830082 0.072749934
v -0.257516159 -0.0828789488 0.072749934
v -0.257516159 -0.095144962 0.072749934
f 17 19 12
f 10 2 11
f 11 2 1
f 16 2 18
f 18 2 19
f 10 13 14
f 14 2 10
f 19 2 14
f 15 13 12
f 12 19 15
f 1 2 3
f 5 7 2
f 5 2 16
f 2 7 9
f 19 17 18
f 18 17 16
f 15 14 13
f 19 14 15
f 16 17 5
f 12 4 5
f 5 17 12
f 5 4 6
f 6 7 5
f 10 11 8
f 8 13 10
f 12 13 8
f 8 11 1
f 8 4 12
f 6 4 8
f 1 3 8
f 9 8 3
f 9 3 2
f 9 7 6
f 6 8 9
