v -0.0395000592 -0.213339989 0.0804999385
v -0.0395000592 -0.199770008 0.0804999385
v -0.0395000592 -0.199770008 0.0919396078
v -0.0395000592 -0.213339989 0.0919396078
v -0.0380000487 -0.199770008 0.0919396078
v -0.0380000487 -0.213339989 0.0919396078
v -0.0296250448 -0.199770008 0.0804999385
v -0.0296250448 -0.213339989 0.0804999385
v -0.0296250448 -0.213339989 0.0864998613
v -0.0296250448 -0.199770008 0.0864998613
f 1 2 8
f 8 2 7
f 4 3 2
f 4 2 1
f 10 8 7
f 9 8 10
f 1 8 6
f 6 4 1
f 6 8 9
f 2 3 5
f 7 2 5
f 5 10 7
f 9 10 5
f 5 6 9
f 3 4 5
f 4 6 5
