v -0.206005277 -0.113564377 0.072749934
v -0.206005277 -0.113564377 0.0614999447
v -0.206799926 -0.119599884 0.0614999447
v -0.206799926 -0.119599884 0.072749934
v -0.207299413 -0.118393962 0.0614999447
v -0.207299413 -0.118393962 0.072749934
v -0.207469763 -0.117099886 0.0614999447
v -0.207469763 -0.117099886 0.072749934
v -0.207299413 -0.115805809 0.0614999447
v -0.207299413 -0.115805809 0.072749934
v -0.206799926 -0.114599888 0.0614999447
v -0.206799926 -0.114599888 0.072749934
v -0.200679504 -0.108106916 0.0614999447
v -0.200679504 -0.108106916 0.072749934
v -0.206425426 -0.120087897 0.0614999447
v -0.206425426 -0.120087897 0.072749934
f 16 15 13
f 13 14 16
f 7 5 8
f 8 5 6
f 8 9 7
f 10 9 8
f 13 15 3
f 3 2 13
f 3 5 7
f 7 9 3
f 11 2 3
f 3 9 11
f 11 9 12
f 12 9 10
f 13 2 1
f 1 14 13
f 1 2 11
f 11 12 1
f 4 8 6
f 14 1 4
f 4 1 12
f 4 16 14
f 10 8 4
f 4 12 10
f 6 5 4
f 5 3 4
f 15 16 4
f 4 3 15
