v -0.206925444 0.118957117 0.106499902
v -0.20604402 0.11313134 0.106499902
v -0.20604402 0.11313134 0.117749891
v -0.20683855 0.114166911 0.106499902
v -0.20683855 0.114166911 0.117749891
v -0.207338037 0.115372832 0.106499902
v -0.207338037 0.115372832 0.117749891
v -0.207508506 0.116666849 0.106499902
v -0.207508506 0.116666849 0.117749891
v -0.207338037 0.117960985 0.106499902
v -0.207338037 0.117960985 0.117749891
v -0.20073109 0.107689674 0.117749891
v -0.20073109 0.107689674 0.106499902
v -0.206925444 0.118957117 0.117749891
f 13 1 14
f 12 13 14
f 11 1 10
f 11 14 1
f 11 10 8
f 8 9 11
f 8 10 6
f 6 1 13
f 10 1 6
f 13 2 6
f 6 2 4
f 3 13 12
f 3 2 13
f 4 2 3
f 5 4 3
f 12 14 7
f 14 11 7
f 7 3 12
f 7 11 9
f 5 3 7
f 7 6 4
f 7 4 5
f 7 9 8
f 8 6 7
