v -0.171376835 0.211231913 0.0389999662
v -0.171376835 0.211231913 0.033999971
v -0.17194131 0.211231913 0.033999971
v -0.179347851 0.203825372 0.033999971
v -0.179347851 0.203260899 0.033999971
v -0.179347851 0.203260899 0.0389999662
v -0.179347851 0.203825372 0.0389999662
v -0.171376835 0.203260899 0.0389999662
v -0.17194131 0.211231913 0.0389999662
v -0.171376835 0.203260899 0.033999971
f 2 3 9
f 1 2 9
f 4 3 10
f 10 5 4
f 10 3 2
f 10 8 6
f 10 6 5
f 1 8 10
f 10 2 1
f 6 8 7
f 7 8 1
f 1 9 7
f 4 5 7
f 5 6 7
f 7 3 4
f 7 9 3
