v 0.219855605 -0.0647500205 0.106499902
v 0.219855605 -0.0647500205 0.117749891
v 0.219817276 -0.0644588399 0.117749891
v 0.21977043 -0.0641029525 0.106499902
v 0.219685255 -0.0634558844 0.106499902
v 0.219685255 -0.0634558844 0.117749891
v 0.219185768 -0.0622500229 0.106499902
v 0.219185768 -0.0622500229 0.117749891
v 0.218391238 -0.0612144518 0.106499902
v 0.218391238 -0.0612144518 0.117749891
v 0.217355667 -0.0604198622 0.106499902
v 0.217355667 -0.0604198622 0.117749891
v 0.216149746 -0.0599203753 0.106499902
v 0.216149746 -0.0599203753 0.117749891
v 0.21485561 -0.0597500252 0.106499902
v 0.21485561 -0.0597500252 0.117749891
v 0.212645476 -0.0597500252 0.106499902
v 0.212645476 -0.0597500252 0.117749891
v 0.212645476 -0.066417959 0.106499902
v 0.212645476 -0.066417959 0.117749891
v 0.219855605 -0.0717349323 0.117749891
v 0.219855605 -0.0717349323 0.106499902
f 3 2 1
f 4 3 1
f 18 17 20
f 20 17 19
f 20 19 22
f 20 22 21
f 21 22 2
f 22 1 2
f 10 8 9
f 9 8 7
f 15 17 16
f 16 17 18
f 13 16 14
f 15 16 13
f 12 9 11
f 10 9 12
f 11 13 12
f 12 13 14
f 19 17 4
f 4 1 22
f 22 19 4
f 4 17 15
f 4 9 7
f 7 5 4
f 15 13 4
f 11 9 4
f 4 13 11
f 18 20 6
f 21 2 6
f 6 20 21
f 6 8 10
f 10 12 6
f 6 16 18
f 14 16 6
f 6 12 14
f 6 4 5
f 3 4 6
f 6 5 7
f 7 8 6
