v -0.0250000373 -0.190199976 0.106499961
v -0.0250000373 -0.186200027 0.106499961
v -0.0395000592 -0.186200027 0.106499961
v -0.0395000592 -0.190199976 0.106499961
v -0.0395000592 -0.199770008 0.103379277
v -0.0380000487 -0.199770008 0.103379277
v -0.0395000592 -0.186200027 0.09349995
v -0.0250000373 -0.190199976 0.09349995
v -0.0250000373 -0.186200027 0.09349995
v -0.0395000592 -0.199770008 0.09349995
v -0.0380000487 -0.199770008 0.09349995
f 6 10 11
f 5 10 6
f 6 4 5
f 1 4 6
f 7 4 3
f 7 10 5
f 5 4 7
f 3 4 2
f 2 4 1
f 2 7 3
f 9 7 2
f 11 10 8
f 10 7 8
f 8 7 9
f 8 6 11
f 1 6 8
f 8 2 1
f 9 2 8
