v -0.0601829902 0.212606832 0.0839999233
v -0.0601829902 0.214816983 0.0952499126
v -0.0601829902 0.214816983 0.0839999233
v -0.0603533403 0.216111119 0.0952499126
v -0.0603533403 0.216111119 0.0839999233
v -0.0608528272 0.21731704 0.0839999233
v -0.0608528272 0.21731704 0.0952499126
v -0.0616474763 0.218352492 0.0839999233
v -0.0616474763 0.218352492 0.0952499126
v -0.0626830474 0.219147141 0.0839999233
v -0.0626830474 0.219147141 0.0952499126
v -0.0638889686 0.219646628 0.0839999233
v -0.0638889686 0.219646628 0.0952499126
v -0.0647624299 0.219761614 0.0952499126
v -0.0651829854 0.219816978 0.0839999233
v -0.0651829854 0.219816978 0.0952499126
v -0.0601829902 0.212606832 0.0952499126
v -0.0668508468 0.212606832 0.0952499126
v -0.0668508468 0.212606832 0.0839999233
v -0.0711830274 0.219816978 0.0952499126
v -0.0711830274 0.219816978 0.0839999233
f 15 16 14
f 12 14 13
f 15 14 12
f 1 17 18
f 18 19 1
f 20 19 18
f 20 21 19
f 15 21 20
f 20 16 15
f 11 10 12
f 11 12 13
f 2 17 3
f 17 1 3
f 6 8 9
f 7 6 9
f 10 11 9
f 9 8 10
f 4 17 2
f 4 20 18
f 18 17 4
f 13 14 4
f 4 14 16
f 16 20 4
f 7 9 4
f 4 11 13
f 4 9 11
f 19 21 5
f 5 21 15
f 10 8 5
f 5 3 1
f 5 1 19
f 15 12 5
f 12 10 5
f 5 8 6
f 5 6 7
f 7 4 5
f 2 3 5
f 5 4 2
