v 0.12010756 -0.206410386 0.0839999233
v 0.123463808 -0.20317692 0.0839999233
v 0.123463808 -0.20317692 0.072749934
v 0.124339162 -0.202478831 0.0839999233
v 0.124339162 -0.202478831 0.072749934
v 0.12534803 -0.201992993 0.0839999233
v 0.12534803 -0.201992993 0.072749934
v 0.12643951 -0.201743846 0.0839999233
v 0.12643951 -0.201743846 0.072749934
v 0.127559243 -0.201743846 0.0839999233
v 0.127559243 -0.201743846 0.072749934
v 0.128650723 -0.201992993 0.0839999233
v 0.128650723 -0.201992993 0.072749934
v 0.129659592 -0.202478831 0.0839999233
v 0.129659592 -0.202478831 0.072749934
v 0.130534945 -0.20317692 0.0839999233
v 0.130534945 -0.20317692 0.072749934
v 0.132092474 -0.204734453 0.0839999233
v 0.132092474 -0.204734453 0.072749934
v 0.12010756 -0.206410386 0.072749934
f 18 1 20
f 20 19 18
f 18 19 16
f 19 17 16
f 16 17 15
f 15 14 16
f 8 10 11
f 11 9 8
f 4 6 7
f 7 5 4
f 7 6 8
f 8 9 7
f 2 1 18
f 14 12 2
f 2 10 8
f 8 6 2
f 18 16 2
f 2 6 4
f 2 16 14
f 2 12 10
f 13 14 15
f 13 12 14
f 10 12 13
f 13 11 10
f 19 20 3
f 3 7 9
f 15 17 3
f 3 13 15
f 3 17 19
f 9 11 3
f 5 7 3
f 11 13 3
f 3 20 1
f 1 2 3
f 4 5 3
f 3 2 4
