v 0.0821830615 -0.257765238 0.0389999662
v 0.0828419312 -0.260246162 0.0389999662
v 0.0823505505 -0.259048705 0.0389999662
v 0.0821830615 -0.256066998 0.0389999662
v 0.0836241826 -0.261277323 0.0389999662
v 0.0951528534 -0.256066998 0.0389999662
v 0.0849952875 -0.262666643 0.0502499555
v 0.0836241826 -0.261277323 0.0502499555
v 0.0821830615 -0.257765238 0.0502499555
v 0.0823505505 -0.259048705 0.0502499555
v 0.0828419312 -0.260246162 0.0502499555
v 0.0821830615 -0.256066998 0.0502499555
v 0.086817512 -0.264513076 0.0389999662
v 0.0951528534 -0.264513076 0.0389999662
v 0.086817512 -0.264513076 0.0502499555
f 6 4 12
f 14 6 15
f 15 6 12
f 8 5 7
f 15 13 14
f 9 4 1
f 12 4 9
f 10 9 3
f 3 9 1
f 11 10 3
f 3 2 11
f 5 6 14
f 4 6 5
f 1 4 5
f 14 13 5
f 5 3 1
f 2 3 5
f 5 15 7
f 13 15 5
f 12 9 8
f 8 15 12
f 8 10 11
f 8 9 10
f 11 2 8
f 2 5 8
