v -0.113564314 0.206005271 0.072749934
v -0.113564314 0.206005271 0.0614999447
v -0.11959988 0.20679992 0.0614999447
v -0.11959988 0.20679992 0.072749934
v -0.118393959 0.207299407 0.0614999447
v -0.118393959 0.207299407 0.072749934
v -0.117423447 0.207427169 0.0614999447
v -0.117099942 0.207469757 0.0614999447
v -0.117423447 0.207427169 0.072749934
v -0.117099942 0.207469757 0.072749934
v -0.116776408 0.207427169 0.0614999447
v -0.116938175 0.207448463 0.072749934
v -0.115805806 0.207299407 0.0614999447
v -0.115805806 0.207299407 0.072749934
v -0.114599885 0.20679992 0.0614999447
v -0.114599885 0.20679992 0.072749934
v -0.108106913 0.200679449 0.0614999447
v -0.108106913 0.200679449 0.072749934
v -0.120087893 0.206425441 0.0614999447
v -0.120087893 0.206425441 0.072749934
f 19 17 20
f 17 18 20
f 11 7 8
f 11 17 19
f 11 2 17
f 19 3 11
f 15 2 11
f 11 13 15
f 5 7 11
f 11 3 5
f 1 2 15
f 15 16 1
f 1 18 17
f 17 2 1
f 15 13 14
f 14 16 15
f 5 3 4
f 6 5 4
f 19 20 4
f 4 3 19
f 13 11 12
f 12 14 13
f 10 11 8
f 10 12 11
f 9 20 18
f 6 4 9
f 18 1 9
f 9 1 16
f 16 14 9
f 9 4 20
f 14 12 9
f 12 10 9
f 9 7 5
f 9 5 6
f 8 7 9
f 9 10 8
