v -0.119376666 0.206892374 0.106499902
v -0.113564314 0.206005271 0.117749891
v -0.113564314 0.206005271 0.106499902
v -0.118393959 0.207299407 0.106499902
v -0.118393959 0.207299407 0.117749891
v -0.117423447 0.207427169 0.106499902
v -0.117261694 0.207448463 0.117749891
v -0.117099942 0.207469757 0.106499902
v -0.117099942 0.207469757 0.117749891
v -0.116776408 0.207427169 0.106499902
v -0.116938175 0.207448463 0.117749891
v -0.115805806 0.207299407 0.106499902
v -0.115805806 0.207299407 0.117749891
v -0.114599885 0.20679992 0.106499902
v -0.114599885 0.20679992 0.117749891
v -0.108106913 0.200679449 0.106499902
v -0.108106913 0.200679449 0.117749891
v -0.119376666 0.206892374 0.117749891
f 1 16 18
f 16 17 18
f 2 3 14
f 14 15 2
f 2 17 16
f 16 3 2
f 14 12 13
f 13 15 14
f 1 4 6
f 6 16 1
f 6 3 16
f 8 10 6
f 14 3 6
f 6 12 14
f 6 10 12
f 8 6 9
f 9 6 7
f 5 4 1
f 1 18 5
f 7 6 5
f 5 6 4
f 11 18 17
f 7 5 11
f 17 2 11
f 11 2 15
f 15 13 11
f 11 5 18
f 11 9 7
f 11 10 8
f 8 9 11
f 12 10 11
f 11 13 12
