v 0.0668507978 -0.212606839 0.106499902
v 0.0651829823 -0.219816987 0.106499902
v 0.0651829823 -0.219816987 0.0952499126
v 0.0601829871 -0.214816992 0.106499902
v 0.0601829871 -0.214816992 0.0952499126
v 0.0603533372 -0.216111069 0.0952499126
v 0.0603533372 -0.216111069 0.106499902
v 0.0608529433 -0.21731699 0.0952499126
v 0.0608529433 -0.21731699 0.106499902
v 0.0616474732 -0.218352501 0.0952499126
v 0.0616474732 -0.218352501 0.106499902
v 0.0626830443 -0.219147091 0.0952499126
v 0.0626830443 -0.219147091 0.106499902
v 0.0638889655 -0.219646637 0.0952499126
v 0.0638889655 -0.219646637 0.106499902
v 0.0601829871 -0.212606839 0.106499902
v 0.0601829871 -0.212606839 0.0952499126
v 0.0668507978 -0.212606839 0.0952499126
v 0.0711830243 -0.219816987 0.0952499126
v 0.0711830243 -0.219816987 0.106499902
f 1 18 17
f 17 16 1
f 19 18 1
f 1 20 19
f 4 16 5
f 5 16 17
f 13 11 10
f 12 13 10
f 7 5 6
f 4 5 7
f 19 20 2
f 2 3 19
f 14 18 19
f 14 5 17
f 17 18 14
f 19 3 14
f 6 5 14
f 14 8 6
f 12 10 14
f 10 8 14
f 9 10 11
f 9 8 10
f 9 7 6
f 6 8 9
f 20 1 15
f 15 16 4
f 15 1 16
f 4 7 15
f 15 11 13
f 15 2 20
f 15 9 11
f 7 9 15
f 15 13 12
f 12 14 15
f 3 2 15
f 15 14 3
