v 0.107649742 0.200698311 0.0389999662
v 0.106785355 0.200236256 0.0389999662
v 0.105847417 0.199951704 0.0389999662
v 0.104871927 0.199855621 0.0389999662
v 0.0984074458 0.199855621 0.0389999662
v 0.107689677 0.200731084 0.0389999662
v 0.0984074458 0.199855621 0.0502499555
v 0.104871927 0.199855621 0.0502499555
v 0.105847417 0.199951704 0.0502499555
v 0.106785355 0.200236256 0.0502499555
v 0.107649742 0.200698311 0.0502499555
v 0.107689677 0.200731084 0.0502499555
v 0.107689677 0.209230627 0.0389999662
v 0.0984074458 0.209230627 0.0389999662
v 0.105530439 0.209230627 0.0502499555
v 0.0984074458 0.209230627 0.0502499555
f 12 13 15
f 15 13 14
f 14 16 15
f 7 14 5
f 16 14 7
f 13 12 6
f 5 4 8
f 8 7 5
f 4 3 8
f 8 3 9
f 15 16 11
f 7 8 11
f 11 12 15
f 16 7 11
f 11 8 9
f 9 10 11
f 1 6 11
f 11 6 12
f 13 6 2
f 2 4 5
f 2 14 13
f 5 14 2
f 2 6 1
f 2 3 4
f 2 11 10
f 1 11 2
f 2 10 9
f 9 3 2
