v -1.54198831e-09 -0.247799997 0.0650699649
v -1.54198831e-09 -0.240599995 0.0692849074
v 0.00987501288 -0.247799997 0.0650699649
v -1.54198831e-09 -0.247799997 0.059069923
v 0.00987501288 -0.247799997 0.059069923
v 0.00987501288 -0.240599995 0.059069923
v -1.54198831e-09 -0.240599995 0.059069923
v 0.00987501288 -0.242999976 0.0692849074
v -1.54198831e-09 -0.242999976 0.0692849074
v 0.00987501288 -0.240599995 0.0692849074
f 4 7 5
f 5 7 6
f 1 4 5
f 5 3 1
f 2 7 4
f 2 4 1
f 1 9 2
f 6 7 2
f 2 10 6
f 8 5 6
f 3 5 8
f 6 10 8
f 8 2 9
f 10 2 8
f 8 9 1
f 1 3 8
