v 0.199855624 -0.0662499714 0.12899988
v 0.202430306 -0.0603776025 0.12899988
v 0.201412259 -0.0611246276 0.12899988
v 0.200613795 -0.0621029186 0.12899988
v 0.204855619 -0.0597500252 0.12899988
v 0.203603087 -0.0599094677 0.12899988
v 0.212645476 -0.0597500252 0.12899988
v 0.199855624 -0.0717349323 0.12899988
v 0.212645476 -0.0717349323 0.12899988
v 0.204855619 -0.0597500252 0.117749891
v 0.203603087 -0.0599094677 0.117749891
v 0.202430306 -0.0603776025 0.117749891
v 0.201412259 -0.0611246276 0.117749891
v 0.200613795 -0.0621029186 0.117749891
v 0.200085936 -0.06325001 0.117749891
v 0.200085936 -0.06325001 0.12899988
v 0.199855624 -0.0662499714 0.117749891
v 0.211732088 -0.0680000233 0.117749891
v 0.212645476 -0.0597500252 0.117749891
v 0.212645476 -0.066417959 0.117749891
v 0.199855624 -0.0717349323 0.117749891
f 21 9 8
f 18 9 21
f 20 9 18
f 19 7 20
f 20 7 9
f 17 8 1
f 17 21 8
f 16 17 1
f 15 17 16
f 14 15 16
f 16 4 14
f 10 7 19
f 10 5 7
f 6 5 10
f 10 11 6
f 12 2 6
f 6 11 12
f 3 5 6
f 1 8 3
f 9 7 3
f 8 9 3
f 3 16 1
f 7 5 3
f 4 16 3
f 6 2 3
f 13 17 15
f 13 10 19
f 18 21 13
f 13 20 18
f 21 17 13
f 19 20 13
f 13 15 14
f 11 10 13
f 13 12 11
f 14 4 13
f 4 3 13
f 2 12 13
f 13 3 2
