v -0.200698318 0.107649739 0.0389999662
v -0.200236262 0.106785352 0.0389999662
v -0.19995171 0.105847414 0.0389999662
v -0.199855627 0.104871924 0.0389999662
v -0.199855627 0.0984074426 0.0389999662
v -0.20073109 0.107689674 0.0389999662
v -0.199855627 0.104871924 0.0502499555
v -0.19995171 0.105847414 0.0502499555
v -0.200236262 0.106785352 0.0502499555
v -0.200698318 0.107649739 0.0502499555
v -0.20073109 0.107689674 0.0502499555
v -0.199855627 0.0984074426 0.0502499555
v -0.209230633 0.107689674 0.0389999662
v -0.209230633 0.0984074426 0.0389999662
v -0.209230633 0.105530436 0.0502499555
v -0.209230633 0.0984074426 0.0502499555
f 11 13 15
f 6 13 11
f 15 13 14
f 14 16 15
f 12 14 5
f 16 14 12
f 7 5 4
f 7 12 5
f 3 7 4
f 8 7 3
f 9 8 3
f 3 2 9
f 1 13 6
f 5 14 1
f 4 5 1
f 1 14 13
f 1 3 4
f 2 3 1
f 15 16 10
f 12 7 10
f 10 11 15
f 16 12 10
f 10 8 9
f 10 7 8
f 9 2 10
f 2 1 10
f 10 1 6
f 6 11 10
