v 0.232172863 -0.143644375 0.116412656
v 0.225892196 -0.152778526 0.116412656
v 0.225892196 -0.143644375 0.1272169
v 0.225892196 -0.152778489 0.127216899
v 0.225892196 -0.152778526 0.125072203
v 0.227082796 -0.153969123 0.124865987
v 0.227082799 -0.15396912 0.125168786
v 0.229862081 -0.151189838 0.120387814
v 0.225892196 -0.149540189 0.1272169
v 0.228667601 -0.143644375 0.122442563
v 0.231713269 -0.143644375 0.117203308
v 0.227082796 -0.153969123 0.116412656
v 0.232172889 -0.148879031 0.116412656
v 0.22817603 -0.152875889 0.123288196
v 0.227555977 -0.153495942 0.124354825
v 0.230691915 -0.150360004 0.118960304
v 0.231929787 -0.149122133 0.116830872
f 2 3 1
f 13 1 11
f 3 9 8
f 8 10 3
f 4 7 15
f 11 10 16
f 10 8 16
f 14 8 9
f 13 11 17
f 11 16 17
f 12 1 13
f 2 1 12
f 2 12 5
f 5 12 6
f 2 5 9
f 9 3 2
f 9 5 4
f 7 5 6
f 4 5 7
f 10 11 1
f 10 1 3
f 14 9 4
f 4 15 14
f 17 16 8
f 17 12 13
f 6 12 17
f 17 7 6
f 8 14 17
f 17 15 7
f 17 14 15
