v -0.132068874 0.244689228 0.0948151605
v -0.136362675 0.244689228 0.0948151605
v -0.135733202 0.245854546 0.0905163113
v -0.138584277 0.250324463 0.0851212774
v -0.137932413 0.250976327 0.0839999233
v -0.138490239 0.250418501 0.0839999233
v -0.132068874 0.250976327 0.0839999233
v -0.136372903 0.247832375 0.0867134775
v -0.137186064 0.249113854 0.0839999233
v -0.13780475 0.24973254 0.0839999233
f 2 1 4
f 2 3 1
f 4 1 7
f 7 5 4
f 1 3 7
f 3 2 9
f 4 5 6
f 6 2 4
f 8 9 7
f 8 7 3
f 3 9 8
f 10 9 2
f 2 6 10
f 7 9 10
f 5 7 10
f 10 6 5
