v -0.220500054 0.0394999934 0.16599994
v -0.220500054 0.0274999988 0.16599994
v -0.20623952 0.0394999934 0.162989167
v -0.20623952 0.0274999988 0.162989167
v -0.220500054 0.0412500006 0.168999961
v -0.220500054 0.0412500006 0.171999863
v -0.220500054 0.0274999988 0.171999863
v -0.20623952 0.0412500006 0.168999961
v -0.20623952 0.0274999988 0.171999863
v -0.20623952 0.0412500006 0.171999863
f 5 3 1
f 3 5 8
f 3 4 2
f 1 3 2
f 1 2 7
f 7 5 1
f 6 5 7
f 4 9 7
f 7 2 4
f 9 10 7
f 7 10 6
f 8 4 3
f 8 10 9
f 8 9 4
f 8 5 6
f 6 10 8
