v -0.219816984 -0.0771830129 0.0839999233
v -0.219834019 -0.0773124206 0.0839999233
v -0.219987334 -0.0784770894 0.0839999233
v -0.220486821 -0.0796830106 0.0839999233
v -0.22128147 -0.080718522 0.0839999233
v -0.222317042 -0.0815131116 0.0839999233
v -0.223522843 -0.0820126581 0.0839999233
v -0.218566985 -0.0841449547 0.0789999281
v -0.219816984 -0.0730359669 0.0839999233
v -0.219816984 -0.0730359669 0.0789999281
v -0.218566985 -0.0730359669 0.0789999281
v -0.22481698 -0.0821830082 0.0839999233
v -0.227941977 -0.0821830082 0.0789999281
v -0.227941977 -0.0821830082 0.0839999233
v -0.227941977 -0.0841449547 0.0789999281
f 15 14 13
f 9 11 10
f 8 7 12
f 8 5 6
f 6 7 8
f 4 5 8
f 8 3 4
f 8 1 2
f 2 3 8
f 13 10 11
f 8 15 11
f 11 15 13
f 9 10 13
f 13 14 9
f 14 15 12
f 12 15 8
f 8 11 1
f 11 9 1
f 2 1 9
f 2 6 5
f 2 9 14
f 14 12 2
f 5 4 2
f 2 12 7
f 7 6 2
f 2 4 3
