v -0.239154764 -0.132068877 0.104335673
v -0.239911169 -0.132068877 0.103034573
v -0.244199141 -0.120087897 0.0956582732
v -0.238402155 -0.132068877 0.105630377
v -0.238402157 -0.131939898 0.105630377
v -0.242393346 -0.120087897 0.0987645408
v -0.238402098 -0.129929746 0.105630377
v -0.238402117 -0.120087897 0.105630377
v -0.24468924 -0.132068877 0.0948151502
v -0.240590558 -0.132068877 0.10186574
v -0.244689207 -0.12016387 0.0948151502
v -0.244689253 -0.121477553 0.0948151502
v -0.24468921 -0.120087897 0.0948151502
f 2 8 3
f 12 9 3
f 9 2 3
f 5 8 2
f 9 11 10
f 7 1 10
f 6 8 7
f 4 5 2
f 4 1 7
f 13 6 11
f 12 3 13
f 6 10 11
f 7 10 6
f 9 10 4
f 4 2 9
f 4 10 1
f 8 5 4
f 7 8 4
f 8 6 13
f 13 3 8
f 13 11 9
f 13 9 12
