v -0.0395000592 -0.239200001 0.0804999385
v -0.0319800988 -0.240321343 0.0804999385
v -0.0326538697 -0.240479951 0.0804999385
v -0.0333461181 -0.240479951 0.0804999385
v -0.0395000592 -0.239200001 0.0914998565
v -0.0333461181 -0.240479951 0.0864998613
v -0.0326538697 -0.240479951 0.0864998613
v -0.0319800988 -0.240321343 0.0864998613
v -0.0395000592 -0.22690997 0.0804999385
v -0.0395000592 -0.22690997 0.0945292285
v -0.0380000487 -0.22690997 0.0945292285
v -0.0296250448 -0.23930417 0.0804999385
v -0.0296250448 -0.239200001 0.0914998565
v -0.0296250448 -0.23619998 0.0914998565
v -0.0296250448 -0.23930417 0.0864998613
v -0.0296250448 -0.22690997 0.0804999385
v -0.0296250448 -0.22690997 0.0864998613
f 11 14 17
f 13 14 11
f 13 8 15
f 7 8 13
f 5 9 1
f 5 10 9
f 11 16 9
f 9 10 11
f 11 17 16
f 10 5 11
f 5 13 11
f 6 5 1
f 1 4 6
f 16 17 12
f 17 14 12
f 12 14 13
f 13 15 12
f 8 2 12
f 12 15 8
f 1 9 3
f 16 12 3
f 9 16 3
f 3 4 1
f 3 12 2
f 7 2 8
f 7 3 2
f 7 6 4
f 4 3 7
f 7 13 5
f 5 6 7
