v 0.0988405331 -0.199817007 0.0389999662
v 0.105304895 -0.199817007 0.0389999662
v 0.106280385 -0.199913089 0.0389999662
v 0.107218324 -0.200197582 0.0389999662
v 0.108082829 -0.200659637 0.0389999662
v 0.108122645 -0.200692312 0.0389999662
v 0.0988405331 -0.199817007 0.0502499555
v 0.105304895 -0.199817007 0.0502499555
v 0.108082829 -0.200659637 0.0502499555
v 0.107218324 -0.200197582 0.0502499555
v 0.106280385 -0.199913089 0.0502499555
v 0.108122645 -0.200692312 0.0502499555
v 0.0988405331 -0.209192005 0.0502499555
v 0.108122645 -0.209192005 0.0389999662
v 0.0988405331 -0.209192005 0.0389999662
v 0.105963527 -0.209192005 0.0502499555
f 6 12 14
f 16 14 12
f 15 7 1
f 13 7 15
f 1 7 8
f 8 2 1
f 13 15 16
f 15 14 16
f 1 2 5
f 5 15 1
f 6 14 5
f 5 14 15
f 2 3 5
f 5 3 4
f 6 5 9
f 9 12 6
f 9 5 4
f 4 10 9
f 4 3 11
f 11 10 4
f 11 7 13
f 11 8 7
f 13 16 11
f 11 16 12
f 12 9 11
f 11 9 10
f 11 3 2
f 2 8 11
