v 0.247354965 -0.107689654 0.090295929
v 0.25101495 -0.0986036336 0.0839999233
v 0.251014947 -0.0994421081 0.0839999233
v 0.24785016 -0.107689654 0.0894440739
v 0.24912657 -0.107689654 0.0872483446
v 0.25101494 -0.102044603 0.0839999233
v 0.250262882 -0.107689654 0.0852937847
v 0.251015031 -0.105492987 0.0839999233
v 0.25101503 -0.107689654 0.0839999233
v 0.248303511 -0.094719817 0.088664256
v 0.251014968 -0.094719817 0.0839999233
v 0.244620058 -0.107689654 0.0950006476
v 0.244620058 -0.094719817 0.0950006476
f 11 10 8
f 8 10 13
f 12 13 1
f 7 9 8
f 7 13 12
f 8 13 7
f 4 13 5
f 4 1 13
f 13 3 6
f 5 13 6
f 6 9 5
f 2 3 13
f 5 9 4
f 12 1 4
f 4 7 12
f 9 7 4
f 8 9 2
f 2 11 8
f 9 6 2
f 2 6 3
f 10 11 2
f 2 13 10
