v -0.274570765 -0.108936136 0.0389999662
v -0.273838104 -0.111987834 0.0389999662
v -0.273294629 -0.113461142 0.0456074987
v -0.272637071 -0.114887302 0.0389999662
v -0.272637071 -0.114887302 0.0467385564
v -0.27186984 -0.116257434 0.0480584417
v -0.270997347 -0.117563193 0.0389999662
v -0.270997347 -0.117563193 0.0495592867
v -0.274636009 -0.108106916 0.0389999662
v -0.274668887 -0.108106916 0.0411772229
v -0.274668887 -0.108106916 0.0432433985
v -0.274570765 -0.108936136 0.0434122596
v -0.274264397 -0.110476379 0.0439392839
v -0.273838104 -0.111987834 0.0446725402
v -0.272982544 -0.108106916 0.0461443517
v -0.270842852 -0.108106916 0.0498250917
v -0.274086621 -0.108106916 0.0442450936
v -0.270103119 -0.118697423 0.0502499555
v -0.27059586 -0.108106916 0.0502499555
v -0.270595866 -0.112888289 0.0502499555
v -0.270595843 -0.118072456 0.0502499555
v -0.269865112 -0.118888824 0.0389999662
v -0.26992825 -0.118888824 0.0485303228
v -0.269939642 -0.118888824 0.0502499555
v -0.265420214 -0.108106916 0.0389999662
v -0.265420214 -0.118888824 0.0389999662
f 26 25 24
f 24 25 19
f 6 21 20
f 2 4 3
f 6 4 7
f 5 6 3
f 3 4 5
f 5 4 6
f 10 9 1
f 14 2 3
f 8 21 6
f 6 7 8
f 23 7 22
f 23 24 18
f 18 7 23
f 16 20 19
f 13 1 2
f 2 14 13
f 13 14 3
f 1 13 12
f 12 17 11
f 20 24 19
f 18 24 20
f 20 21 18
f 9 25 1
f 1 25 26
f 1 26 22
f 22 7 1
f 4 2 1
f 1 7 4
f 8 7 18
f 18 21 8
f 22 26 23
f 26 24 23
f 6 20 16
f 3 6 16
f 12 11 10
f 10 1 12
f 15 25 9
f 19 25 15
f 15 9 10
f 10 11 15
f 11 17 15
f 15 16 19
f 17 12 15
f 15 12 13
f 3 16 15
f 15 13 3
