v 0.203260895 -0.179347805 0.0389999662
v 0.203260895 -0.179347805 0.033999971
v 0.195289879 -0.179347805 0.033999971
v 0.195289879 -0.179347805 0.0389999662
v 0.195289879 -0.187318819 0.033999971
v 0.195289879 -0.187318819 0.0389999662
v 0.19585442 -0.187318819 0.0389999662
v 0.203260895 -0.179912345 0.0389999662
v 0.19585442 -0.187318819 0.033999971
v 0.203260895 -0.179912345 0.033999971
f 1 2 4
f 4 2 3
f 3 2 10
f 10 9 5
f 10 5 3
f 10 2 1
f 1 8 10
f 6 4 3
f 3 5 6
f 1 4 7
f 7 8 1
f 4 6 7
f 9 10 7
f 7 10 8
f 5 9 7
f 7 6 5
