v 0.136361122 -0.244690797 0.0948124119
v 0.132092474 -0.244690798 0.0948124119
v 0.132092474 -0.250976308 0.0839999233
v 0.136984233 -0.246164515 0.0922772853
v 0.13572949 -0.245844464 0.0905404676
v 0.138584265 -0.25032445 0.0851212618
v 0.13793241 -0.250976306 0.0839999233
v 0.138490224 -0.250418491 0.0839999233
v 0.137186228 -0.249114024 0.0839999233
v 0.137805717 -0.249733514 0.0839999233
f 4 3 6
f 9 3 2
f 2 5 9
f 6 3 7
f 1 5 2
f 1 9 5
f 10 9 1
f 6 7 8
f 8 4 6
f 8 1 4
f 10 1 8
f 3 4 1
f 2 3 1
f 8 9 10
f 3 9 8
f 8 7 3
