v -0.26405599 -0.124852709 0.0614999447
v -0.268959107 -0.119949584 0.0530654703
v -0.259237975 -0.129670732 0.0614999447
v -0.259237975 -0.129670732 0.0502499555
v -0.269939653 -0.118888824 0.0513787378
v -0.264055989 -0.118888824 0.0614999447
v -0.269939642 -0.118888824 0.0502499555
v -0.269939653 -0.118888824 0.0502515753
v -0.269939512 -0.118888977 0.0502499555
v -0.268959107 -0.119949584 0.0502499555
f 4 7 6
f 1 6 5
f 5 2 1
f 7 9 8
f 8 9 5
f 3 4 6
f 1 3 6
f 3 1 10
f 4 3 10
f 10 1 2
f 4 10 9
f 7 4 9
f 9 10 2
f 9 2 5
f 6 7 8
f 5 6 8
