v -0.107649745 -0.200698321 0.0389999662
v -0.10584742 -0.199951713 0.0389999662
v -0.10487193 -0.19985569 0.0389999662
v -0.0984074489 -0.19985569 0.0389999662
v -0.10768968 -0.200731093 0.0389999662
v -0.0984074489 -0.19985569 0.0502499555
v -0.10487193 -0.19985569 0.0502499555
v -0.10584742 -0.199951713 0.0502499555
v -0.106785359 -0.200236266 0.0389999662
v -0.106785359 -0.200236266 0.0502499555
v -0.107649745 -0.200698321 0.0502499555
v -0.10768968 -0.200731093 0.0502499555
v -0.10768968 -0.209230688 0.0389999662
v -0.0984074489 -0.209230688 0.0389999662
v -0.105530442 -0.209230688 0.0502499555
v -0.0984074489 -0.209230688 0.0502499555
f 12 13 15
f 13 12 5
f 15 13 16
f 13 14 16
f 4 6 16
f 16 14 4
f 4 3 7
f 7 6 4
f 1 5 11
f 11 5 12
f 9 3 4
f 9 14 13
f 13 5 9
f 4 14 9
f 9 5 1
f 9 2 3
f 9 11 10
f 1 11 9
f 6 7 8
f 8 11 12
f 8 12 15
f 15 16 8
f 8 16 6
f 10 11 8
f 2 9 8
f 8 9 10
f 3 2 8
f 8 7 3
