v -0.0947198287 -0.251015009 0.0839999233
v -0.0994420906 -0.251014999 0.0839999233
v -0.0947198287 -0.252827053 0.0808827867
v -0.10271063 -0.251015001 0.0839999233
v -0.0947198287 -0.253603132 0.079547761
v -0.105493024 -0.251015037 0.0839999233
v -0.0947198287 -0.254703835 0.0776543832
v -0.10768968 -0.251015034 0.0839999233
v -0.10768968 -0.257554863 0.072749934
v -0.0947198287 -0.257554883 0.072749934
f 8 9 7
f 10 7 9
f 4 9 8
f 8 7 6
f 9 4 5
f 5 10 9
f 1 6 7
f 3 2 1
f 8 6 2
f 2 4 8
f 6 1 2
f 7 10 3
f 3 1 7
f 10 5 3
f 4 2 3
f 3 5 4
