v 0.0395000562 -0.217500006 0.0794998918
v 0.0395000562 -0.20235001 0.0794998918
v 0.030100046 -0.217500006 0.0734999691
v 0.030100046 -0.20235001 0.0734999691
v 0.0395000562 -0.20235001 0.0734999691
v 0.0395000562 -0.217500006 0.0734999691
v 0.0296250417 -0.217500006 0.0794998918
v 0.0296250417 -0.20235001 0.0794998918
v 0.0296250417 -0.20235001 0.0759999071
v 0.0296250417 -0.217500006 0.0759999071
f 6 2 1
f 5 2 6
f 1 2 8
f 8 7 1
f 3 4 5
f 5 6 3
f 9 8 2
f 9 2 5
f 5 4 9
f 1 7 10
f 10 6 1
f 10 3 6
f 4 3 10
f 10 9 4
f 7 8 10
f 8 9 10
