v 0.250976311 0.101902245 0.0839999233
v 0.250976329 0.108106906 0.0839999233
v 0.250976341 0.101151817 0.0839999233
v 0.253126178 0.0951449824 0.0803017076
v 0.250976318 0.0951449824 0.0839999233
v 0.252508669 0.0951449824 0.0813639252
v 0.250976311 0.0989235569 0.0839999233
v 0.257516157 0.108106906 0.072749934
v 0.257516157 0.0995739526 0.072749934
v 0.257516156 0.0951449824 0.072749934
f 1 8 7
f 1 2 8
f 8 2 3
f 3 4 8
f 7 8 6
f 8 10 6
f 8 4 9
f 4 10 9
f 4 3 5
f 7 6 5
f 5 6 10
f 5 10 4
f 2 1 5
f 5 1 7
f 5 3 2
