v 0.0231952056 0.188630636 0.151857785
v 0.0232109412 0.188696916 0.152375392
v 0.0255146607 0.189840252 0.153789571
v 0.0255146607 0.189357812 0.153589777
v 0.0244637116 0.189419444 0.153589777
v 0.0255146607 0.188943679 0.153271965
v 0.0244153127 0.189008052 0.153271965
v 0.0255146607 0.188625867 0.152857832
v 0.0243782386 0.188692386 0.152857832
v 0.0255146607 0.188425953 0.152375392
v 0.0243548735 0.188494022 0.152375392
v 0.0255146607 0.188357885 0.151857785
v 0.0243470057 0.188426311 0.151857785
v 0.027500002 0.188357885 0.151857785
v 0.027500002 0.189840252 0.153789571
v 0.027500002 0.189357812 0.153589777
v 0.027500002 0.188943679 0.153271965
v 0.027500002 0.188625867 0.152857832
v 0.027500002 0.188425953 0.152375392
v 0.027500002 0.191978981 0.154478839
v 0.0137500002 0.190431381 0.15245085
v 0.0137500002 0.190435418 0.152490723
v 0.0137500002 0.190514001 0.152790924
v 0.0137500002 0.190523981 0.152822813
v 0.0137500002 0.190654221 0.153110846
v 0.0137500002 0.19066662 0.153133289
v 0.0137500002 0.190846705 0.153400656
v 0.0137500002 0.190857762 0.153413651
v 0.0137500002 0.191084385 0.15365203
v 0.0137500002 0.191978981 0.154478839
v 0.0137500002 0.196622114 0.154478839
v 0.027500002 0.196622114 0.154478839
v 0.0255146607 0.188357885 0.145718328
v 0.0243470057 0.188426311 0.145718328
v 0.0231952056 0.188630636 0.145718328
v 0.027500002 0.188357885 0.145718328
v 0.0137500002 0.190405175 0.152147013
v 0.0137500002 0.190388951 0.145718328
v 0.027500002 0.193447526 0.145718328
v 0.0137500002 0.193447526 0.145718328
f 4 30 5
f 23 22 2
f 3 30 4
f 1 37 38
f 13 2 1
f 1 2 22
f 38 35 1
f 6 9 8
f 26 9 27
f 23 2 24
f 8 9 10
f 13 12 10
f 37 1 21
f 21 1 22
f 7 6 4
f 4 5 7
f 7 5 30
f 9 6 7
f 30 29 7
f 7 27 9
f 25 9 26
f 25 24 9
f 11 24 2
f 9 24 11
f 11 10 9
f 11 2 13
f 13 10 11
f 28 7 29
f 27 7 28
f 31 32 39
f 39 40 31
f 33 36 14
f 14 12 33
f 33 12 13
f 13 34 33
f 39 36 35
f 35 38 40
f 35 40 39
f 36 33 35
f 35 33 34
f 20 32 30
f 32 31 30
f 16 15 3
f 4 16 3
f 20 30 3
f 3 15 20
f 1 34 13
f 1 35 34
f 10 12 14
f 14 19 10
f 10 19 18
f 10 18 8
f 17 32 20
f 14 36 17
f 39 32 17
f 17 36 39
f 20 15 17
f 17 15 16
f 17 19 14
f 18 19 17
f 17 16 4
f 4 6 17
f 8 18 17
f 17 6 8
f 26 27 28
f 28 31 40
f 40 38 28
f 38 37 28
f 28 30 31
f 37 21 28
f 28 29 30
f 28 22 23
f 28 25 26
f 23 24 28
f 28 21 22
f 24 25 28
