v -0.257803859 0.0817499709 0.072321466
v -0.257803859 0.0817499709 0.0614999447
v -0.261316003 0.0831912113 0.0614999447
v -0.261316003 0.0831912113 0.06627982
v -0.260284843 0.0824089599 0.0614999447
v -0.260284843 0.0824089599 0.0680537735
v -0.259087385 0.0819175792 0.0614999447
v -0.259087385 0.0819175792 0.07011371
v -0.264094658 0.0859334211 0.0614999447
v -0.264094733 0.0939073992 0.0614999447
v -0.26409474 0.0919520248 0.0614999447
v -0.264094726 0.0898959875 0.0614999447
v -0.250725195 0.0817499709 0.0614999447
v -0.262943049 0.0947198224 0.063481107
v -0.263431527 0.0947198224 0.062640747
v -0.263928257 0.0947198224 0.0617862723
v -0.264094714 0.0947198224 0.0614999447
v -0.257554782 0.0817499709 0.072749934
v -0.250725195 0.0817499709 0.072749934
v -0.257554892 0.0863932514 0.072749934
v -0.257554887 0.0947198224 0.072749934
f 11 14 10
f 14 17 10
f 21 19 13
f 13 15 21
f 13 17 16
f 16 15 13
f 20 21 14
f 4 9 3
f 4 6 9
f 9 6 12
f 11 12 8
f 8 12 6
f 8 14 11
f 8 20 14
f 18 8 1
f 20 8 18
f 14 21 16
f 16 17 14
f 16 21 15
f 3 5 4
f 4 5 6
f 12 5 3
f 11 10 12
f 12 17 13
f 13 2 12
f 12 10 17
f 3 9 12
f 12 2 7
f 7 5 12
f 8 5 7
f 6 5 8
f 7 2 8
f 2 1 8
f 18 2 13
f 13 19 18
f 18 1 2
f 19 21 18
f 21 20 18
