v -0.171376835 -0.211796407 0.0389999662
v -0.171376835 -0.207246356 0.0389999662
v -0.171376835 -0.207246356 0.033999971
v -0.171376835 -0.211796407 0.033999971
v -0.155434804 -0.207246356 0.0389999662
v -0.163970365 -0.219202878 0.0389999662
v -0.155434804 -0.219202878 0.0389999662
v -0.155434804 -0.207246356 0.033999971
v -0.155434804 -0.219202878 0.033999971
v -0.163970365 -0.219202878 0.033999971
f 1 2 4
f 4 2 3
f 7 2 1
f 1 6 7
f 5 2 7
f 8 2 5
f 3 2 8
f 5 7 8
f 8 7 9
f 10 4 3
f 10 8 9
f 3 8 10
f 10 7 6
f 9 7 10
f 10 6 1
f 1 4 10
