v -0.206799926 -0.119599884 0.0839999233
v -0.206425426 -0.120087897 0.0839999233
v -0.206005277 -0.113564377 0.0839999233
v -0.206005277 -0.113564377 0.072749934
v -0.206799926 -0.119599884 0.072749934
v -0.207299413 -0.118393962 0.072749934
v -0.207299413 -0.118393962 0.0839999233
v -0.207469763 -0.117099886 0.072749934
v -0.207469763 -0.117099886 0.0839999233
v -0.207299413 -0.115805809 0.072749934
v -0.207299413 -0.115805809 0.0839999233
v -0.206799926 -0.114599888 0.072749934
v -0.206799926 -0.114599888 0.0839999233
v -0.200679504 -0.108106916 0.072749934
v -0.200679504 -0.108106916 0.0839999233
v -0.206425426 -0.120087897 0.072749934
f 15 2 16
f 15 16 14
f 5 2 1
f 16 2 5
f 7 5 1
f 6 5 7
f 8 6 7
f 7 9 8
f 14 16 4
f 4 6 8
f 16 5 4
f 8 10 4
f 4 10 12
f 4 5 6
f 12 10 11
f 13 12 11
f 11 10 8
f 8 9 11
f 1 2 3
f 3 7 1
f 2 15 3
f 13 11 3
f 9 7 3
f 3 11 9
f 3 4 12
f 3 12 13
f 3 15 14
f 14 4 3
