v 0.12303084 0.203215535 0.106499902
v 0.12303084 0.203215535 0.117749891
v 0.130101858 0.203215535 0.106499902
v 0.129066406 0.202421005 0.117749891
v 0.129066406 0.202421005 0.106499902
v 0.127860485 0.201921518 0.117749891
v 0.127860485 0.201921518 0.106499902
v 0.126566349 0.201751049 0.117749891
v 0.126566349 0.201751049 0.106499902
v 0.125272213 0.201921518 0.117749891
v 0.125272213 0.201921518 0.106499902
v 0.124066411 0.202421005 0.117749891
v 0.124066411 0.202421005 0.106499902
v 0.130101858 0.203215535 0.117749891
v 0.130224528 0.203338204 0.106499902
v 0.130224528 0.203338204 0.117749891
v 0.118957102 0.206925465 0.117749891
v 0.118957102 0.206925465 0.106499902
f 17 16 15
f 15 18 17
f 15 16 14
f 14 3 15
f 5 3 14
f 14 4 5
f 11 9 10
f 10 9 8
f 13 11 10
f 10 12 13
f 7 18 15
f 7 1 18
f 15 3 7
f 7 3 5
f 7 11 13
f 7 9 11
f 13 1 7
f 4 6 7
f 5 4 7
f 2 17 18
f 18 1 2
f 13 12 2
f 2 1 13
f 16 17 2
f 2 14 16
f 2 10 8
f 2 6 4
f 4 14 2
f 12 10 2
f 8 6 2
f 7 6 8
f 8 9 7
