v 0.129675827 -0.259232904 0.0389999662
v 0.129675827 -0.256173372 0.0389999662
v 0.119949637 -0.26895911 0.0389999662
v 0.129675827 -0.259232904 0.0502499555
v 0.118899236 -0.269856246 0.0389999662
v 0.118899236 -0.256173372 0.0389999662
v 0.118899236 -0.269918743 0.0484368092
v 0.118899236 -0.269930031 0.0501411269
v 0.119949637 -0.26895911 0.0502499555
v 0.118899236 -0.269930031 0.0502499555
f 2 6 4
f 10 4 6
f 5 3 7
f 7 3 8
f 4 10 9
f 4 1 2
f 3 6 2
f 3 5 6
f 2 1 3
f 8 10 7
f 6 5 7
f 7 10 6
f 1 4 9
f 9 3 1
f 9 10 8
f 8 3 9
