v -0.0197500304 -0.242999976 0.0794998918
v -0.0197500304 -0.230999317 0.0794998918
v -0.0197500304 -0.230999317 0.0759999071
v -0.0197500304 -0.242999976 0.0692849074
v -0.0197500304 -0.240599995 0.0692849074
v -0.0296250448 -0.242999976 0.0794998918
v -0.0296250448 -0.230999317 0.0794998918
v -0.0296250448 -0.230999317 0.0759999071
v -0.0296250448 -0.242999976 0.0692849074
v -0.0296250448 -0.240599995 0.0692849074
f 2 7 6
f 6 1 2
f 4 1 6
f 6 9 4
f 6 7 8
f 8 9 6
f 10 9 8
f 8 2 3
f 7 2 8
f 5 2 1
f 3 2 5
f 1 4 5
f 5 4 9
f 5 9 10
f 10 8 5
f 5 8 3
