v -0.225396674 -0.0821830082 0.128002676
v -0.22481698 -0.0821830082 0.12899988
v -0.22481698 -0.0841449547 0.12899988
v -0.225396674 -0.0841449547 0.128002676
v -0.212606838 -0.0841449547 0.12899988
v -0.219816984 -0.072163974 0.12899988
v -0.212606838 -0.072163974 0.12899988
v -0.219816984 -0.0771830129 0.117749891
v -0.219987334 -0.0784770894 0.117749891
v -0.220486821 -0.0796830106 0.117749891
v -0.22128147 -0.080718522 0.117749891
v -0.222317042 -0.0815131116 0.117749891
v -0.223522843 -0.0820126581 0.117749891
v -0.22481698 -0.0821830082 0.117749891
v -0.225396674 -0.0821830082 0.117749891
v -0.219816984 -0.072163974 0.117749891
f 2 6 1
f 1 3 2
f 4 3 1
f 3 4 5
f 15 4 1
f 7 16 6
f 10 5 11
f 13 5 14
f 14 5 4
f 4 15 14
f 12 5 13
f 12 11 5
f 9 8 5
f 9 5 10
f 1 6 15
f 6 16 15
f 6 2 7
f 7 2 3
f 3 5 7
f 8 7 5
f 16 7 8
f 13 14 9
f 16 8 9
f 9 12 13
f 9 15 16
f 10 11 9
f 9 14 15
f 11 12 9
