v -0.239951121 0.119674588 0.103032193
v -0.238444004 0.107689674 0.105624773
v -0.238444004 0.119674588 0.105624773
v -0.244582945 0.119674588 0.0950645215
v -0.244729538 0.119254083 0.0948123483
v -0.24325123 0.119674588 0.0973552772
v -0.244729483 0.115822214 0.0948123483
v -0.244729519 0.119674588 0.0948123483
v -0.241817346 0.119674588 0.0998219643
v -0.244729522 0.112766067 0.0948123483
v -0.244729475 0.109523918 0.0948123483
v -0.244729475 0.107689674 0.0948123483
f 10 12 2
f 2 9 10
f 3 9 2
f 8 6 7
f 4 8 5
f 11 6 1
f 7 6 11
f 12 11 3
f 3 11 1
f 2 12 3
f 8 10 5
f 8 11 12
f 12 10 8
f 7 11 8
f 1 6 4
f 4 3 1
f 9 3 4
f 6 8 4
f 5 10 4
f 4 10 9
