v -0.264094658 0.0859334211 0.0614999447
v -0.26835254 0.0947198224 0.0541754195
v -0.264094726 0.0898959875 0.0614999447
v -0.264434028 0.0947198224 0.060916281
v -0.264094714 0.0947198224 0.0614999447
v -0.264094733 0.0939073992 0.0614999447
v -0.265475917 0.0947198224 0.0591240129
v -0.26409474 0.0919520248 0.0614999447
v -0.261316003 0.0831912113 0.0502499555
v -0.261316003 0.0831912113 0.0614999447
v -0.260284843 0.0824089599 0.0502499555
v -0.260284843 0.0824089599 0.0614999447
v -0.259087385 0.0819175792 0.0502499555
v -0.259087385 0.0819175792 0.0614999447
v -0.257803859 0.0817499709 0.0502499555
v -0.256105663 0.0817499709 0.0502499555
v -0.256105663 0.0817499709 0.0614999447
v -0.257803859 0.0817499709 0.0614999447
v -0.27043795 0.0921935145 0.0502499555
v -0.270634543 0.0923875292 0.0502499555
v -0.270634524 0.0947198224 0.0502499555
f 20 1 3
f 19 1 20
f 7 21 20
f 5 17 16
f 20 3 8
f 8 7 20
f 2 5 16
f 6 5 4
f 15 21 16
f 20 21 15
f 15 19 20
f 11 9 15
f 15 13 11
f 9 19 15
f 10 19 9
f 1 19 10
f 10 9 11
f 11 12 10
f 11 13 14
f 14 12 11
f 18 15 16
f 16 17 18
f 13 15 18
f 18 14 13
f 2 7 4
f 4 5 2
f 21 7 2
f 16 21 2
f 1 10 6
f 6 3 1
f 17 5 6
f 6 10 12
f 12 14 6
f 6 18 17
f 14 18 6
f 6 8 3
f 4 7 6
f 7 8 6
