v 0.250976311 0.101902245 0.0839999233
v 0.248840171 0.108106906 0.0876745616
v 0.250976329 0.108106906 0.0839999233
v 0.248487124 0.108106906 0.0882819492
v 0.250976341 0.101151817 0.0839999233
v 0.250976311 0.0989235569 0.0839999233
v 0.247252107 0.108106906 0.0904063845
v 0.244581404 0.108106906 0.0950006115
v 0.244581405 0.0951449824 0.0950006115
v 0.250976318 0.0951449824 0.0839999233
f 4 9 5
f 5 3 4
f 5 9 10
f 9 6 10
f 1 2 3
f 7 9 8
f 7 6 9
f 8 9 4
f 5 10 1
f 1 3 5
f 1 10 6
f 7 4 3
f 8 4 7
f 3 2 7
f 7 1 6
f 2 1 7
