v -0.143644424 -0.232158555 0.116437277
v -0.143644424 -0.225873064 0.127249728
v -0.148893353 -0.232158569 0.116437277
v -0.145415233 -0.232158577 0.116437277
v -0.151239415 -0.229812507 0.12047305
v -0.153969149 -0.227082773 0.125168739
v -0.15275944 -0.225873064 0.12724972
v -0.153969149 -0.227082773 0.117942904
v -0.152759437 -0.225873064 0.116437277
v -0.143644424 -0.231713211 0.117203346
v -0.153906319 -0.227145603 0.125060698
v -0.149580783 -0.225873064 0.127249728
v -0.151292435 -0.229759488 0.120564255
v -0.15313208 -0.227919842 0.123728854
v -0.153969149 -0.227082773 0.116437277
v -0.153431347 -0.227620575 0.124243653
f 10 2 1
f 1 9 10
f 10 9 2
f 7 8 6
f 1 2 4
f 11 7 6
f 12 14 2
f 7 11 12
f 16 11 14
f 14 12 16
f 16 12 11
f 5 3 4
f 4 13 5
f 9 7 12
f 2 9 12
f 13 4 2
f 2 14 13
f 1 4 15
f 15 9 1
f 4 3 15
f 15 7 9
f 8 7 15
f 5 11 6
f 6 8 5
f 5 13 14
f 14 11 5
f 5 15 3
f 8 15 5
