v 0.203215538 -0.123030846 0.0614999447
v 0.203215538 -0.123030846 0.072749934
v 0.203215538 -0.130101924 0.0614999447
v 0.202517448 -0.12922651 0.072749934
v 0.202517448 -0.12922651 0.0614999447
v 0.20203167 -0.128217761 0.072749934
v 0.20203167 -0.128217761 0.0614999447
v 0.201782523 -0.127126162 0.072749934
v 0.201782523 -0.127126162 0.0614999447
v 0.201782523 -0.126006548 0.072749934
v 0.201782523 -0.126006548 0.0614999447
v 0.20203167 -0.124914949 0.072749934
v 0.20203167 -0.124914949 0.0614999447
v 0.202517448 -0.1239062 0.072749934
v 0.202517448 -0.1239062 0.0614999447
v 0.203215538 -0.130101924 0.072749934
v 0.204773086 -0.131659468 0.0614999447
v 0.204773086 -0.131659468 0.072749934
v 0.206449016 -0.119674561 0.072749934
v 0.206449016 -0.119674561 0.0614999447
f 18 17 19
f 19 17 20
f 20 1 2
f 19 20 2
f 7 6 8
f 8 9 7
f 4 6 7
f 7 5 4
f 8 10 11
f 11 9 8
f 10 12 11
f 11 12 13
f 15 20 17
f 15 7 9
f 15 1 20
f 17 3 15
f 9 11 15
f 5 7 15
f 15 3 5
f 15 11 13
f 14 2 15
f 15 2 1
f 15 12 14
f 13 12 15
f 16 18 19
f 16 10 8
f 8 6 16
f 14 12 16
f 19 2 16
f 16 6 4
f 16 2 14
f 16 12 10
f 4 5 16
f 5 3 16
f 16 3 17
f 17 18 16
