v 0.188357888 -0.0275000083 0.136957816
v 0.188357888 -0.0255147266 0.136957816
v 0.188630639 -0.0231952119 0.136957816
v 0.190385646 -0.0137500065 0.144431221
v 0.190368276 -0.0137500065 0.136957816
v 0.193447529 -0.0275000083 0.136957816
v 0.193447529 -0.0137500065 0.136957816
v 0.188426314 -0.0243469524 0.145718328
v 0.188426314 -0.0243469524 0.136957816
v 0.188630639 -0.0231952119 0.145718328
v 0.188357888 -0.0255147266 0.145718328
v 0.188357888 -0.0275000083 0.145718328
v 0.190388905 -0.0137500065 0.145718328
v 0.193447529 -0.0275000083 0.145718328
v 0.193447529 -0.0137500065 0.145718328
f 4 5 10
f 4 10 13
f 3 10 5
f 1 6 14
f 14 12 1
f 6 7 15
f 15 14 6
f 1 12 11
f 11 2 1
f 9 11 8
f 2 11 9
f 7 5 13
f 13 5 4
f 13 15 7
f 12 14 13
f 13 10 8
f 14 15 13
f 13 11 12
f 8 11 13
f 1 2 3
f 3 6 1
f 3 7 6
f 3 5 7
f 2 9 3
f 8 10 3
f 3 9 8
