v 0.274855672 -0.10537446 0.0389999662
v 0.274855672 -0.0986437249 0.0429885898
v 0.274855672 -0.0986437249 0.0389999662
v 0.274831234 -0.0981494832 0.0430307899
v 0.27475792 -0.097660129 0.0431566749
v 0.27475792 -0.097660129 0.0389999662
v 0.274636804 -0.0971804309 0.043365172
v 0.274468718 -0.0967150378 0.0436542545
v 0.274468718 -0.0967150378 0.0389999662
v 0.273999153 -0.0958452868 0.0389999662
v 0.273999153 -0.0958452868 0.0444618974
v 0.273367821 -0.0950849104 0.0389999662
v 0.273367821 -0.0950849104 0.0455481325
v 0.274673424 -0.107689654 0.0389999662
v 0.274855672 -0.10537446 0.0429885898
v 0.274794041 -0.106943612 0.0430946861
v 0.274705707 -0.107689654 0.0411359029
v 0.274705707 -0.107689654 0.0432466031
v 0.272997873 -0.094719817 0.0461845205
v 0.272997873 -0.094719817 0.0389999662
v 0.270634521 -0.094719817 0.0502499555
v 0.27063449 -0.0984585261 0.0502499555
v 0.270634525 -0.107689654 0.0502499555
v 0.270634513 -0.107134525 0.0502499555
v 0.271948073 -0.107689654 0.0479904565
v 0.270634581 -0.105057487 0.0502499555
v 0.265480666 -0.107689654 0.0389999662
v 0.265480666 -0.094719817 0.0389999662
f 21 28 22
f 22 28 27
f 26 19 21
f 24 27 23
f 24 22 27
f 25 26 23
f 7 6 9
f 4 3 6
f 2 3 4
f 19 26 4
f 26 25 4
f 2 4 15
f 7 9 8
f 5 6 7
f 7 4 5
f 5 4 6
f 1 15 16
f 18 17 16
f 16 15 4
f 16 25 18
f 16 4 25
f 13 8 11
f 7 8 13
f 13 4 7
f 19 4 13
f 19 28 21
f 20 28 19
f 24 26 21
f 21 22 24
f 23 26 24
f 1 3 15
f 15 3 2
f 27 14 17
f 23 27 17
f 17 25 23
f 18 25 17
f 12 28 20
f 27 28 12
f 12 3 1
f 12 9 6
f 1 14 12
f 12 14 27
f 10 9 12
f 6 3 12
f 8 9 10
f 10 11 8
f 16 17 14
f 16 14 1
f 20 19 13
f 13 12 20
f 10 12 13
f 13 11 10
