v 0.113131343 0.206044014 0.0614999447
v 0.113131343 0.206044014 0.072749934
v 0.114166914 0.206838543 0.0614999447
v 0.114166914 0.206838543 0.072749934
v 0.115372835 0.20733815 0.0614999447
v 0.115372835 0.20733815 0.072749934
v 0.116666852 0.2075085 0.0614999447
v 0.116666852 0.2075085 0.072749934
v 0.117960988 0.20733815 0.0614999447
v 0.117960988 0.20733815 0.072749934
v 0.119166909 0.206838543 0.0614999447
v 0.119166909 0.206838543 0.072749934
v 0.107689677 0.200731084 0.072749934
v 0.107689677 0.200731084 0.0614999447
v 0.119674592 0.206448985 0.0614999447
v 0.119674592 0.206448985 0.072749934
f 16 14 15
f 13 14 16
f 2 14 13
f 2 1 14
f 11 16 15
f 11 12 16
f 10 12 11
f 11 9 10
f 15 14 5
f 14 1 5
f 5 11 15
f 5 1 3
f 7 9 5
f 9 11 5
f 8 9 7
f 10 9 8
f 7 5 8
f 8 5 6
f 13 16 4
f 4 2 13
f 16 12 4
f 4 12 10
f 10 8 4
f 4 8 6
f 4 5 3
f 6 5 4
f 3 1 4
f 1 2 4
