v -0.10768968 -0.238444036 0.105624826
v -0.119674595 -0.238444036 0.105624826
v -0.119674595 -0.244582947 0.0950645215
v -0.119254133 -0.244729525 0.0948123744
v -0.119674595 -0.243251262 0.0973552772
v -0.11582226 -0.244729503 0.0948123744
v -0.119674595 -0.244729523 0.0948123744
v -0.119674595 -0.242527302 0.0986007172
v -0.114207489 -0.244729537 0.0948123744
v -0.10768968 -0.244729523 0.0948123744
f 1 9 10
f 10 6 1
f 8 9 1
f 1 6 5
f 2 8 1
f 1 5 2
f 7 5 6
f 4 3 7
f 8 2 3
f 3 2 5
f 5 7 3
f 6 10 4
f 4 10 9
f 4 7 6
f 8 3 4
f 9 8 4
