v -0.0156217233 -0.247730081 0.059069923
v -0.0156217233 -0.247730081 0.0650699649
v -0.0162124053 -0.247523909 0.059069923
v -0.0162124053 -0.247523909 0.0650699649
v -0.0167426482 -0.247191672 0.059069923
v -0.0167426482 -0.247191672 0.0650699649
v -0.0150000468 -0.247799997 0.059069923
v -0.0150000468 -0.247799997 0.0650699649
v -0.0197500304 -0.244498628 0.059069923
v -0.0197500304 -0.244498628 0.0650699649
v -0.0197500304 -0.240599995 0.059069923
v -0.0197500304 -0.242999976 0.0692849074
v -0.00987501597 -0.247799997 0.0650699649
v -0.00987501597 -0.247799997 0.059069923
v -0.00987501597 -0.240599995 0.059069923
v -0.00987501597 -0.242999976 0.0692849074
v -0.0197500304 -0.240599995 0.0692849074
v -0.00987501597 -0.240599995 0.0692849074
f 12 10 6
f 4 12 6
f 2 12 4
f 8 12 2
f 11 17 15
f 15 17 18
f 16 14 15
f 16 15 18
f 13 14 16
f 9 5 10
f 5 6 10
f 12 17 11
f 11 9 12
f 9 10 12
f 18 17 12
f 12 16 18
f 15 14 1
f 3 5 1
f 11 15 1
f 1 9 11
f 1 5 9
f 14 7 1
f 4 5 3
f 4 6 5
f 3 1 4
f 4 1 2
f 8 14 13
f 8 7 14
f 8 1 7
f 2 1 8
f 13 16 8
f 16 12 8
