v -0.130646419 0.203288382 0.0839999233
v -0.130534948 0.203176911 0.0839999233
v -0.123463811 0.203176911 0.0952499126
v -0.123463811 0.203176911 0.0839999233
v -0.124499382 0.202382262 0.0952499126
v -0.124499382 0.202382262 0.0839999233
v -0.125705303 0.201882775 0.0952499126
v -0.125705303 0.201882775 0.0839999233
v -0.12699932 0.201712425 0.0952499126
v -0.12699932 0.201712425 0.0839999233
v -0.127484621 0.201776306 0.0952499126
v -0.128293456 0.201882775 0.0839999233
v -0.128293456 0.201882775 0.0952499126
v -0.128594936 0.202007647 0.0952499126
v -0.128896417 0.202132518 0.0839999233
v -0.129499377 0.202382262 0.0952499126
v -0.129499377 0.202382262 0.0839999233
v -0.130534948 0.203176911 0.0952499126
v -0.130646419 0.203288382 0.0952499126
v -0.119376666 0.206892374 0.0839999233
v -0.119376666 0.206892374 0.0952499126
f 11 13 12
f 11 10 9
f 12 10 11
f 19 20 1
f 19 21 20
f 6 7 8
f 5 7 6
f 20 21 3
f 3 4 20
f 3 6 4
f 5 6 3
f 7 10 8
f 9 10 7
f 9 7 11
f 11 7 5
f 21 19 11
f 11 3 21
f 16 14 11
f 5 3 11
f 19 18 11
f 11 18 16
f 11 14 13
f 2 19 1
f 2 18 19
f 16 18 2
f 2 17 16
f 15 2 1
f 1 20 15
f 15 6 8
f 20 4 15
f 15 10 12
f 8 10 15
f 4 6 15
f 17 2 15
f 15 14 16
f 16 17 15
f 12 13 15
f 13 14 15
