v 0.219855605 -0.0647500205 0.0839999233
v 0.219855605 -0.0647500205 0.0952499126
v 0.219685255 -0.0634558844 0.0839999233
v 0.219685255 -0.0634558844 0.0952499126
v 0.219185768 -0.0622500229 0.0839999233
v 0.219185768 -0.0622500229 0.0952499126
v 0.218391238 -0.0612144518 0.0839999233
v 0.218391238 -0.0612144518 0.0952499126
v 0.217355667 -0.0604198622 0.0839999233
v 0.217355667 -0.0604198622 0.0952499126
v 0.216149746 -0.0599203753 0.0839999233
v 0.216149746 -0.0599203753 0.0952499126
v 0.21485561 -0.0597500252 0.0839999233
v 0.21485561 -0.0597500252 0.0952499126
v 0.212645476 -0.0597500252 0.0839999233
v 0.212645476 -0.0597500252 0.0952499126
v 0.212645476 -0.066417959 0.0839999233
v 0.212645476 -0.066417959 0.0952499126
v 0.219855605 -0.0707500028 0.0952499126
v 0.219855605 -0.0707500028 0.0839999233
f 18 20 19
f 17 20 18
f 15 17 18
f 18 16 15
f 1 2 19
f 19 20 1
f 8 6 5
f 5 7 8
f 5 6 4
f 4 3 5
f 1 3 4
f 4 2 1
f 15 16 13
f 16 14 13
f 13 14 12
f 12 11 13
f 10 18 19
f 19 2 10
f 10 6 8
f 16 18 10
f 10 14 16
f 4 6 10
f 10 2 4
f 12 14 10
f 9 1 20
f 9 20 17
f 9 17 15
f 7 5 9
f 3 1 9
f 9 5 3
f 15 13 9
f 9 13 11
f 8 7 9
f 9 10 8
f 9 11 12
f 12 10 9
