v 0.203215538 -0.123030846 0.106499902
v 0.203215538 -0.123030846 0.117749891
v 0.203215538 -0.130101924 0.106499902
v 0.202517448 -0.12922651 0.117749891
v 0.202517448 -0.12922651 0.106499902
v 0.20203167 -0.128217761 0.117749891
v 0.20203167 -0.128217761 0.106499902
v 0.201782523 -0.127126162 0.117749891
v 0.201782523 -0.127126162 0.106499902
v 0.201782523 -0.126006548 0.117749891
v 0.201782523 -0.126006548 0.106499902
v 0.20203167 -0.124914949 0.117749891
v 0.20203167 -0.124914949 0.106499902
v 0.202517448 -0.1239062 0.117749891
v 0.202517448 -0.1239062 0.106499902
v 0.203215538 -0.130101924 0.117749891
v 0.203347704 -0.13023409 0.106499902
v 0.203347704 -0.13023409 0.117749891
v 0.206923475 -0.118961872 0.117749891
v 0.206923475 -0.118961872 0.106499902
f 20 18 17
f 20 19 18
f 4 6 5
f 5 6 7
f 14 2 1
f 15 14 1
f 19 20 1
f 1 2 19
f 10 11 9
f 10 9 8
f 3 7 9
f 3 20 17
f 15 1 3
f 3 13 15
f 9 11 3
f 3 5 7
f 3 1 20
f 11 13 3
f 17 18 3
f 18 16 3
f 3 16 4
f 4 5 3
f 12 14 15
f 15 13 12
f 12 13 11
f 11 10 12
f 18 19 12
f 19 2 12
f 12 16 18
f 4 16 12
f 12 2 14
f 12 6 4
f 12 10 8
f 8 6 12
f 9 7 6
f 8 9 6
