v 0.0150000438 -0.247805004 0.059069923
v 0.0178049191 -0.24500001 0.059069923
v 0.0177094325 -0.245725994 0.059069923
v 0.0174291715 -0.246402507 0.059069923
v 0.0169834479 -0.246983414 0.059069923
v 0.016402541 -0.247429197 0.059069923
v 0.0157260283 -0.247709398 0.059069923
v 0.0178049191 -0.24500001 0.0550698553
v 0.0150000438 -0.247805004 0.0550698553
v 0.0157260283 -0.247709398 0.0550698553
v 0.016402541 -0.247429197 0.0550698553
v 0.0169834479 -0.246983414 0.0550698553
v 0.0174291715 -0.246402507 0.0550698553
v 0.0177094325 -0.245725994 0.0550698553
v 0.0178049191 -0.232652505 0.0550698553
v 0.0178049191 -0.232652505 0.059069923
v 0.00880491579 -0.247805004 0.059069923
v 0.00880491579 -0.247805004 0.0550698553
v 0.00880491579 -0.232652505 0.059069923
v 0.00880491579 -0.232652505 0.0550698553
f 18 17 19
f 19 20 18
f 20 19 16
f 16 15 20
f 8 16 2
f 15 16 8
f 14 2 3
f 14 8 2
f 13 14 4
f 4 14 3
f 12 4 5
f 13 4 12
f 7 4 3
f 7 19 17
f 2 16 7
f 7 17 1
f 3 2 7
f 7 16 19
f 6 5 7
f 5 4 7
f 1 17 9
f 9 17 18
f 9 7 1
f 10 7 9
f 18 20 11
f 15 8 11
f 20 15 11
f 13 12 11
f 11 14 13
f 8 14 11
f 11 9 18
f 10 9 11
f 6 7 11
f 11 7 10
f 11 5 6
f 11 12 5
