v -0.11895712 -0.206925507 0.106499902
v -0.113131346 -0.206044023 0.106499902
v -0.113131346 -0.206044023 0.117749891
v -0.114166917 -0.206838613 0.106499902
v -0.114166917 -0.206838613 0.117749891
v -0.115372719 -0.207338099 0.106499902
v -0.115372719 -0.207338099 0.117749891
v -0.116666855 -0.20750845 0.106499902
v -0.116666855 -0.20750845 0.117749891
v -0.117960991 -0.207338099 0.106499902
v -0.117960991 -0.207338099 0.117749891
v -0.10768968 -0.200731093 0.117749891
v -0.10768968 -0.200731093 0.106499902
v -0.11895712 -0.206925507 0.117749891
f 11 10 8
f 8 9 11
f 12 13 14
f 13 1 14
f 14 1 10
f 10 11 14
f 8 10 6
f 6 1 13
f 13 2 6
f 10 1 6
f 6 2 4
f 6 9 8
f 6 7 9
f 5 7 6
f 6 4 5
f 3 11 9
f 12 14 3
f 3 7 5
f 9 7 3
f 3 14 11
f 3 13 12
f 3 2 13
f 4 2 3
f 5 4 3
