v -0.0668508468 0.212606832 0.106499902
v -0.0651829854 0.219816978 0.117749891
v -0.0601829902 0.214816983 0.117749891
v -0.0601829902 0.214816983 0.106499902
v -0.0603533403 0.216111119 0.106499902
v -0.0603533403 0.216111119 0.117749891
v -0.0608528272 0.21731704 0.106499902
v -0.0608528272 0.21731704 0.117749891
v -0.0616474763 0.218352492 0.106499902
v -0.0616474763 0.218352492 0.117749891
v -0.0626830474 0.219147141 0.106499902
v -0.0626830474 0.219147141 0.117749891
v -0.0638889686 0.219646628 0.106499902
v -0.0638889686 0.219646628 0.117749891
v -0.0651829854 0.219816978 0.106499902
v -0.0601829902 0.212606832 0.117749891
v -0.0601829902 0.212606832 0.106499902
v -0.0668508468 0.212606832 0.117749891
v -0.0721639708 0.219816978 0.106499902
v -0.0721639708 0.219816978 0.117749891
f 18 20 1
f 1 20 19
f 15 20 2
f 19 20 15
f 9 12 10
f 11 12 9
f 10 8 9
f 9 8 7
f 13 14 12
f 13 12 11
f 13 15 2
f 2 14 13
f 17 16 18
f 18 1 17
f 3 16 17
f 17 4 3
f 6 14 2
f 6 16 3
f 18 16 6
f 6 20 18
f 2 20 6
f 10 12 6
f 12 14 6
f 6 8 10
f 19 15 5
f 5 1 19
f 5 17 1
f 4 17 5
f 11 9 5
f 5 9 7
f 5 13 11
f 15 13 5
f 7 8 5
f 8 6 5
f 3 4 5
f 5 6 3
