v -0.144049855 0.221192501 0.0389999662
v -0.144049855 0.229433333 0.0389999662
v -0.148550538 0.221192501 0.0502499555
v -0.148550538 0.221192501 0.0389999662
v -0.15161857 0.229433333 0.0389999662
v -0.153863333 0.22718857 0.0502499555
v -0.15420497 0.226846933 0.0502499555
v -0.15420497 0.226846933 0.0389999662
v -0.152920224 0.228131679 0.0485544678
v -0.15161857 0.229433333 0.0462144018
f 1 2 3
f 7 3 6
f 1 3 4
f 2 5 10
f 9 6 3
f 4 3 7
f 7 8 4
f 1 4 5
f 5 2 1
f 5 4 8
f 9 8 7
f 9 5 8
f 7 6 9
f 9 10 5
f 9 3 2
f 2 10 9
