v 0.217317043 0.0608528805 0.0789999281
v 0.216111122 0.0603533936 0.0789999281
v 0.214816986 0.0601829839 0.0789999281
v 0.214816986 0.0601829839 0.0839999233
v 0.216111122 0.0603533936 0.0839999233
v 0.217317043 0.0608528805 0.0839999233
v 0.218352495 0.06164747 0.0789999281
v 0.218566982 0.0619269857 0.0789999281
v 0.218352495 0.06164747 0.0839999233
v 0.218566982 0.0619269857 0.0839999233
v 0.218566982 0.0721639645 0.0789999281
v 0.209191991 0.0601829839 0.0789999281
v 0.209191991 0.0601829839 0.0839999233
v 0.211693345 0.0684330416 0.0839999233
v 0.209191991 0.0684330416 0.0839999233
v 0.209191991 0.0721639645 0.0789999281
f 14 10 11
f 15 16 13
f 13 16 12
f 13 12 3
f 3 4 13
f 11 10 8
f 11 16 15
f 15 14 11
f 12 16 7
f 7 11 8
f 3 12 7
f 16 11 7
f 7 2 3
f 1 2 7
f 5 4 3
f 3 2 5
f 5 2 1
f 1 6 5
f 15 13 9
f 9 13 4
f 9 14 15
f 9 10 14
f 4 5 9
f 9 5 6
f 8 10 9
f 9 7 8
f 1 7 9
f 9 6 1
