v 0.238453582 -0.107689654 0.105608412
v 0.238453582 -0.119674561 0.105608412
v 0.244582966 -0.119674561 0.0950644807
v 0.24473429 -0.119240481 0.0948041675
v 0.244734236 -0.115809858 0.0948041675
v 0.243251253 -0.119674561 0.0973552324
v 0.244734271 -0.119674561 0.0948041675
v 0.244734242 -0.114195675 0.0948041675
v 0.242527264 -0.119674561 0.09860067
v 0.242880299 -0.119674561 0.0979933642
v 0.24473424 -0.114708981 0.0948041675
v 0.244734275 -0.107689654 0.0948041675
f 1 4 12
f 1 12 8
f 3 4 1
f 1 2 3
f 4 3 7
f 1 5 6
f 5 7 6
f 11 5 1
f 1 8 11
f 9 2 1
f 1 6 10
f 10 9 1
f 11 12 4
f 4 7 11
f 11 8 12
f 11 7 5
f 10 6 7
f 10 3 2
f 10 7 3
f 2 9 10
