v -0.193447532 0.0450000119 0.14895778
v -0.188357891 0.0450000119 0.14895778
v -0.193447532 0.0450000119 0.153857759
v -0.190357865 0.0450000119 0.153857759
v -0.188357891 0.0450000119 0.151857785
v -0.189357819 0.0450000119 0.153589777
v -0.188943686 0.0450000119 0.153271965
v -0.189840259 0.0450000119 0.153789571
v -0.18842596 0.0450000119 0.152375392
v -0.188625754 0.0450000119 0.152857832
v -0.191978987 0.0394999934 0.154478839
v -0.19662212 0.0394999934 0.154478839
v -0.193447532 0.0397000265 0.145718328
v -0.188357891 0.0397000265 0.145718328
v -0.188357891 0.0362500054 0.151857785
v -0.189840259 0.0362500054 0.153789571
v -0.189357819 0.0362500054 0.153589777
v -0.188943686 0.0362500054 0.153271965
v -0.188625754 0.0362500054 0.152857832
v -0.18842596 0.0362500054 0.152375392
v -0.191978987 0.0362500054 0.154478839
v -0.19662212 0.0362500054 0.154478839
v -0.188357891 0.0362500054 0.145718328
v -0.193447532 0.0362500054 0.145718328
f 1 13 12
f 3 1 12
f 8 4 11
f 12 13 22
f 13 24 22
f 11 22 21
f 12 22 11
f 15 23 14
f 2 5 14
f 14 5 15
f 14 1 2
f 13 1 14
f 14 23 24
f 14 24 13
f 12 11 4
f 4 3 12
f 20 5 9
f 15 5 20
f 9 10 20
f 20 10 19
f 8 11 21
f 21 16 8
f 18 22 24
f 18 23 15
f 24 23 18
f 18 16 21
f 21 22 18
f 15 20 18
f 18 20 19
f 17 16 18
f 8 17 6
f 8 16 17
f 7 5 2
f 2 1 7
f 7 8 6
f 1 3 7
f 9 5 7
f 3 4 7
f 7 10 9
f 4 8 7
f 17 18 7
f 6 17 7
f 19 10 7
f 7 18 19
