v 0.0771830663 -0.219816987 0.0952499126
v 0.0771830663 -0.219816987 0.106499902
v 0.0772477671 -0.219825505 0.106499902
v 0.0772801175 -0.219829764 0.0952499126
v 0.0784770831 -0.219987338 0.0952499126
v 0.0784770831 -0.219987338 0.106499902
v 0.0796830043 -0.220486884 0.0952499126
v 0.0796830043 -0.220486884 0.106499902
v 0.0807185754 -0.221281474 0.0952499126
v 0.0807185754 -0.221281474 0.106499902
v 0.0815131053 -0.222316985 0.0952499126
v 0.0815131053 -0.222316985 0.106499902
v 0.0820125922 -0.223522906 0.0952499126
v 0.0820125922 -0.223522906 0.106499902
v 0.0821830615 -0.224816983 0.0952499126
v 0.0821830615 -0.224816983 0.106499902
v 0.0821830615 -0.225396672 0.0952499126
v 0.0821830615 -0.225396672 0.106499902
v 0.0711830243 -0.219816987 0.0952499126
v 0.0711830243 -0.219816987 0.106499902
f 19 17 20
f 20 17 18
f 19 20 2
f 2 1 19
f 16 17 15
f 18 17 16
f 14 16 13
f 13 16 15
f 12 14 13
f 13 11 12
f 7 5 8
f 8 5 6
f 19 1 9
f 9 5 7
f 9 17 19
f 15 17 9
f 1 4 9
f 9 13 15
f 11 13 9
f 9 4 5
f 9 8 10
f 7 8 9
f 9 10 12
f 12 11 9
f 3 2 20
f 3 20 18
f 12 10 3
f 3 8 6
f 3 14 12
f 18 16 3
f 3 16 14
f 10 8 3
f 1 2 3
f 3 4 1
f 6 5 3
f 5 4 3
