v 0.199817 0.0961259258 0.106499902
v 0.199817 0.105304892 0.117749891
v 0.200659691 0.108082826 0.117749891
v 0.200197636 0.10721832 0.106499902
v 0.200197636 0.10721832 0.117749891
v 0.199913083 0.106280382 0.106499902
v 0.199913083 0.106280382 0.117749891
v 0.199817 0.105304892 0.106499902
v 0.210289894 0.0994635177 0.117749891
v 0.210289894 0.0994635177 0.106499902
v 0.212166248 0.102713521 0.117749891
v 0.212166248 0.102713521 0.106499902
v 0.210289894 0.105963523 0.117749891
v 0.210289894 0.105963523 0.106499902
v 0.200659691 0.108082826 0.106499902
v 0.200679452 0.108106906 0.117749891
v 0.200679452 0.108106906 0.106499902
v 0.199817 0.0961259258 0.117749891
f 9 1 10
f 18 1 9
f 11 9 12
f 12 9 10
f 14 13 11
f 11 12 14
f 16 13 14
f 14 17 16
f 18 2 8
f 8 1 18
f 7 8 2
f 6 8 7
f 4 7 5
f 6 7 4
f 11 13 3
f 3 9 11
f 3 13 16
f 3 2 18
f 18 9 3
f 3 7 2
f 5 7 3
f 1 8 15
f 15 14 12
f 17 14 15
f 10 1 15
f 15 12 10
f 15 8 6
f 6 4 15
f 16 17 15
f 15 3 16
f 15 4 5
f 5 3 15
