v 0.128650723 -0.201992993 0.0389999662
v 0.124339162 -0.202478831 0.0389999662
v 0.123463808 -0.20317692 0.0389999662
v 0.12534803 -0.201992993 0.0389999662
v 0.12643951 -0.201743846 0.0389999662
v 0.127559243 -0.201743846 0.0389999662
v 0.129659592 -0.202478831 0.0389999662
v 0.130534945 -0.20317692 0.0389999662
v 0.132092474 -0.204734453 0.0389999662
v 0.123463808 -0.20317692 0.0502499555
v 0.124339162 -0.202478831 0.0502499555
v 0.12534803 -0.201992993 0.0502499555
v 0.12643951 -0.201743846 0.0502499555
v 0.127559243 -0.201743846 0.0502499555
v 0.128650723 -0.201992993 0.0502499555
v 0.129659592 -0.202478831 0.0502499555
v 0.130534945 -0.20317692 0.0502499555
v 0.132092474 -0.204734453 0.0502499555
v 0.12010756 -0.206410386 0.0389999662
v 0.12010756 -0.206410386 0.0502499555
v 0.132092474 -0.210464922 0.0389999662
v 0.12010756 -0.210464922 0.0389999662
f 19 22 20
f 22 21 20
f 18 20 21
f 9 18 21
f 10 3 19
f 19 20 10
f 11 4 2
f 12 4 11
f 2 3 11
f 3 10 11
f 7 1 15
f 16 7 15
f 15 1 6
f 6 14 15
f 13 10 20
f 12 11 13
f 20 18 13
f 13 17 16
f 16 15 13
f 18 17 13
f 13 11 10
f 13 15 14
f 5 4 13
f 13 4 12
f 13 6 5
f 13 14 6
f 8 22 19
f 8 21 22
f 5 6 8
f 8 9 21
f 8 1 7
f 19 3 8
f 8 3 2
f 8 4 5
f 2 4 8
f 6 1 8
f 16 17 8
f 8 7 16
f 18 9 8
f 8 17 18
