v -0.129242839 -0.259271524 0.0389999662
v -0.119516553 -0.268997793 0.0389999662
v -0.129242839 -0.259271524 0.0502499555
v -0.11846626 -0.269894855 0.0389999662
v -0.129242839 -0.256212057 0.0389999662
v -0.11846626 -0.256212057 0.0389999662
v -0.11846626 -0.269968715 0.0501411333
v -0.11846626 -0.269968715 0.0502499555
v -0.119516553 -0.268997793 0.0502499555
f 3 6 5
f 3 8 6
f 8 3 9
f 2 4 7
f 5 1 3
f 5 6 4
f 4 1 5
f 4 2 1
f 1 2 9
f 9 3 1
f 7 4 6
f 6 8 7
f 7 9 2
f 8 9 7
