v -0.195289882 -0.18788336 0.033999971
v -0.195289882 -0.18788336 0.0389999662
v -0.195289882 -0.183333312 0.0389999662
v -0.195289882 -0.183333312 0.033999971
v -0.184329736 -0.183333312 0.0389999662
v -0.187883409 -0.195289834 0.0389999662
v -0.184329736 -0.195289834 0.0389999662
v -0.184329736 -0.183333312 0.033999971
v -0.184329736 -0.195289834 0.033999971
v -0.187883409 -0.195289834 0.033999971
f 7 2 6
f 5 3 7
f 7 3 2
f 7 8 5
f 9 8 7
f 6 10 7
f 7 10 9
f 4 3 5
f 5 8 4
f 6 2 1
f 1 10 6
f 2 3 1
f 3 4 1
f 1 8 9
f 9 10 1
f 1 4 8
