v -0.205499949 0.0274999988 0.167999915
v -0.205499949 0.0412500006 0.171999863
v -0.205499949 0.0274999988 0.171999863
v -0.20623952 0.0412500006 0.168999961
v -0.205499949 0.0412500006 0.168999961
v -0.20623952 0.0274999988 0.171999863
v -0.20623952 0.0412500006 0.171999863
v -0.200739425 0.0316441589 0.163239351
v -0.200739425 0.0274999988 0.163239351
v -0.200739425 0.0394999934 0.163239351
v -0.20623952 0.0394999934 0.163239351
f 10 2 8
f 9 1 11
f 11 1 6
f 2 10 5
f 9 11 10
f 8 2 9
f 2 3 9
f 6 9 3
f 1 9 6
f 11 4 5
f 10 11 5
f 7 4 11
f 11 6 7
f 7 6 3
f 7 3 2
f 7 5 4
f 2 5 7
