v -0.0197500304 -0.20235001 0.0794998918
v -0.0197500304 -0.20235001 0.0759999071
v -0.0197500304 -0.187200015 0.0692849074
v -0.00987501597 -0.187200015 0.0794998918
v -0.0197500304 -0.187200015 0.0794998918
v -0.00987501597 -0.20235001 0.0794998918
v -0.00987501597 -0.20235001 0.0759999071
v -0.0197500304 -0.194400017 0.0692849074
v -0.00987501597 -0.194400017 0.0692849074
v -0.00987501597 -0.187200015 0.0692849074
f 1 6 4
f 4 5 1
f 9 6 7
f 4 6 9
f 9 10 4
f 3 5 4
f 4 10 3
f 10 9 3
f 3 9 8
f 2 3 8
f 2 1 5
f 5 3 2
f 6 1 2
f 7 6 2
f 2 9 7
f 8 9 2
