v 0.0880753251 -0.22791373 0.133999876
v 0.0934012293 -0.233239631 0.12899988
v 0.0934012293 -0.233239631 0.133999876
v 0.101808254 -0.2248326 0.133999876
v 0.101808254 -0.2248326 0.12899988
v 0.0880753251 -0.22791373 0.12899988
v 0.101808254 -0.223710211 0.133999876
v 0.0922788409 -0.223710211 0.133999876
v 0.0922788409 -0.223710211 0.12899988
v 0.101808254 -0.223710211 0.12899988
f 6 3 1
f 2 3 6
f 8 6 1
f 9 6 8
f 10 8 7
f 9 8 10
f 1 3 4
f 4 8 1
f 7 8 4
f 2 6 5
f 5 6 9
f 9 10 5
f 7 4 5
f 5 10 7
f 5 3 2
f 5 4 3
