v 0.108122645 -0.200692312 0.0389999662
v 0.113564311 -0.20600534 0.0502499555
v 0.119599877 -0.206799929 0.0502499555
v 0.118393956 -0.207299416 0.0502499555
v 0.117099939 -0.207469766 0.0502499555
v 0.115805803 -0.207299416 0.0502499555
v 0.114599882 -0.206799929 0.0502499555
v 0.108122645 -0.200692312 0.0502499555
v 0.12010756 -0.206410386 0.0389999662
v 0.12010756 -0.206410386 0.0502499555
v 0.12010756 -0.209939155 0.0389999662
v 0.108122645 -0.209939155 0.0389999662
f 1 12 8
f 2 8 12
f 7 2 12
f 12 11 5
f 6 7 12
f 4 5 11
f 3 11 10
f 3 4 11
f 8 9 1
f 10 9 8
f 1 9 11
f 11 12 1
f 11 9 10
f 12 5 6
f 10 8 3
f 8 2 3
f 3 6 5
f 7 6 3
f 2 7 3
f 5 4 3
