v 0.0771830663 -0.219816987 0.106499902
v 0.0771830663 -0.219816987 0.117749891
v 0.0772477671 -0.219825505 0.106499902
v 0.0772154167 -0.219821246 0.117749891
v 0.0784770831 -0.219987338 0.106499902
v 0.0784770831 -0.219987338 0.117749891
v 0.0796830043 -0.220486884 0.106499902
v 0.0796830043 -0.220486884 0.117749891
v 0.0807185754 -0.221281474 0.106499902
v 0.0807185754 -0.221281474 0.117749891
v 0.0815131053 -0.222316985 0.106499902
v 0.0815131053 -0.222316985 0.117749891
v 0.0820125922 -0.223522906 0.106499902
v 0.0820125922 -0.223522906 0.117749891
v 0.0821830615 -0.224816983 0.106499902
v 0.0821830615 -0.224816983 0.117749891
v 0.0821830615 -0.225396672 0.106499902
v 0.0821830615 -0.225396672 0.117749891
v 0.0721679016 -0.219816987 0.117749891
v 0.0721679016 -0.219816987 0.106499902
f 18 20 17
f 19 20 18
f 18 17 15
f 15 16 18
f 1 20 19
f 19 2 1
f 13 16 15
f 13 14 16
f 12 14 13
f 13 11 12
f 12 11 9
f 9 10 12
f 4 1 2
f 4 3 1
f 5 6 8
f 8 7 5
f 5 4 6
f 3 4 5
f 19 18 4
f 4 18 16
f 4 2 19
f 16 14 4
f 8 6 4
f 4 14 12
f 12 10 4
f 4 10 8
f 17 20 5
f 15 17 5
f 20 1 5
f 5 13 15
f 11 13 5
f 5 9 11
f 7 9 5
f 8 10 9
f 9 7 8
