v 0.0666829928 -0.199817007 0.0789999281
v 0.0601829871 -0.204817002 0.0789999281
v 0.0603424891 -0.203564351 0.0789999281
v 0.060810624 -0.202391629 0.0789999281
v 0.0625359401 -0.200575178 0.0789999281
v 0.0636829718 -0.200047319 0.0789999281
v 0.0636829718 -0.200047319 0.0839999233
v 0.0625359401 -0.200575178 0.0839999233
v 0.0615577086 -0.201373582 0.0789999281
v 0.0615577086 -0.201373582 0.0839999233
v 0.060810624 -0.202391629 0.0839999233
v 0.0603424891 -0.203564351 0.0839999233
v 0.0601829871 -0.204817002 0.0839999233
v 0.0721679016 -0.199817007 0.0789999281
v 0.0666829928 -0.199817007 0.0839999233
v 0.0721679016 -0.199817007 0.0839999233
v 0.0601829871 -0.209192005 0.0789999281
v 0.0601829871 -0.209192005 0.0839999233
v 0.0684329852 -0.209192005 0.0839999233
v 0.0721679016 -0.209192005 0.0789999281
f 16 20 14
f 19 20 16
f 2 17 13
f 13 17 18
f 20 19 18
f 18 17 20
f 3 13 12
f 2 13 3
f 15 1 6
f 15 6 7
f 14 1 15
f 15 16 14
f 4 3 11
f 11 3 12
f 9 20 17
f 9 1 14
f 9 17 2
f 14 20 9
f 6 1 9
f 2 3 9
f 9 3 4
f 9 5 6
f 9 11 10
f 4 11 9
f 8 13 18
f 8 11 12
f 18 19 8
f 12 13 8
f 19 16 8
f 8 15 7
f 16 15 8
f 10 11 8
f 7 6 8
f 6 5 8
f 5 9 8
f 8 9 10
