v -0.250976323 -0.0821830082 0.0839999233
v -0.250686488 -0.0821830082 0.0839999233
v -0.250976321 -0.095144962 0.0839999233
v -0.257516158 -0.0821830082 0.072749934
v -0.250976322 -0.087668986 0.0839999233
v -0.250686488 -0.0821830082 0.072749934
v -0.257516159 -0.0828789488 0.072749934
v -0.253126174 -0.095144962 0.0803017195
v -0.252508665 -0.095144962 0.0813639387
v -0.257516159 -0.095144962 0.072749934
f 8 7 10
f 10 6 9
f 9 6 3
f 1 8 5
f 5 8 3
f 4 6 7
f 7 6 10
f 8 1 4
f 4 7 8
f 4 1 2
f 2 6 4
f 3 6 2
f 3 8 9
f 9 8 10
f 5 2 1
f 3 2 5
