v -0.123463811 0.203176911 0.072749934
v -0.123463811 0.203176911 0.0614999447
v -0.124499382 0.202382262 0.072749934
v -0.124499382 0.202382262 0.0614999447
v -0.125705303 0.201882775 0.072749934
v -0.125705303 0.201882775 0.0614999447
v -0.12699932 0.201712425 0.072749934
v -0.12699932 0.201712425 0.0614999447
v -0.128293456 0.201882775 0.072749934
v -0.128293456 0.201882775 0.0614999447
v -0.129499377 0.202382262 0.072749934
v -0.129499377 0.202382262 0.0614999447
v -0.130534948 0.203176911 0.072749934
v -0.130534948 0.203176911 0.0614999447
v -0.132068874 0.204710836 0.072749934
v -0.132068874 0.204710836 0.0614999447
v -0.120087893 0.206425441 0.0614999447
v -0.120087893 0.206425441 0.072749934
f 15 18 16
f 16 18 17
f 15 16 13
f 16 14 13
f 13 14 12
f 12 11 13
f 5 18 15
f 5 9 7
f 15 13 5
f 5 1 18
f 11 9 5
f 3 1 5
f 5 13 11
f 5 6 4
f 5 4 3
f 17 18 2
f 18 1 2
f 2 1 3
f 3 4 2
f 8 5 7
f 6 5 8
f 10 16 17
f 6 8 10
f 12 14 10
f 10 14 16
f 4 6 10
f 17 2 10
f 10 2 4
f 10 9 11
f 10 11 12
f 7 9 10
f 10 8 7
