v -0.0197500304 -0.213339989 0.0864998613
v -0.0189999953 -0.213339989 0.0804999385
v -0.0189999953 -0.226269995 0.0804999385
v -0.0197500304 -0.226269995 0.0824999128
v -0.0197500304 -0.213339989 0.0824999128
v -0.0197500304 -0.226269995 0.0864998613
v -0.00987501597 -0.213339989 0.0864998613
v -0.00987501597 -0.226269995 0.0804999385
v -0.00987501597 -0.213339989 0.0804999385
v -0.00987501597 -0.226269995 0.0864998613
f 1 6 7
f 7 6 10
f 3 2 9
f 9 8 3
f 9 7 10
f 10 8 9
f 1 7 9
f 2 5 9
f 9 5 1
f 10 6 4
f 4 8 10
f 3 8 4
f 4 2 3
f 4 5 2
f 4 6 1
f 1 5 4
