v 0.0395000562 -0.230999317 0.0794998918
v 0.0395000562 -0.217500006 0.0794998918
v 0.030100046 -0.230999317 0.0734999691
v 0.0395000562 -0.217500006 0.0734999691
v 0.030100046 -0.217500006 0.0734999691
v 0.0395000562 -0.230999317 0.0734999691
v 0.0296250417 -0.217500006 0.0794998918
v 0.0296250417 -0.230999317 0.0794998918
v 0.0296250417 -0.217500006 0.0759999071
v 0.0296250417 -0.230999317 0.0759999071
f 7 8 2
f 2 8 1
f 6 2 1
f 4 2 6
f 1 8 10
f 3 6 10
f 10 6 1
f 5 6 3
f 4 6 5
f 7 2 9
f 9 2 4
f 4 5 9
f 9 8 7
f 9 10 8
f 3 10 9
f 9 5 3
