v -0.206892378 -0.119376675 0.106499902
v -0.206005277 -0.113564377 0.117749891
v -0.206005277 -0.113564377 0.106499902
v -0.207299413 -0.118393962 0.106499902
v -0.207299413 -0.118393962 0.117749891
v -0.207469763 -0.117099886 0.106499902
v -0.207469763 -0.117099886 0.117749891
v -0.207299413 -0.115805809 0.106499902
v -0.207299413 -0.115805809 0.117749891
v -0.206799926 -0.114599888 0.106499902
v -0.206799926 -0.114599888 0.117749891
v -0.200679504 -0.108106916 0.106499902
v -0.200679504 -0.108106916 0.117749891
v -0.206892378 -0.119376675 0.117749891
f 13 1 12
f 13 14 1
f 14 4 1
f 5 4 14
f 12 1 8
f 1 4 8
f 8 4 6
f 8 3 12
f 10 3 8
f 6 4 7
f 7 4 5
f 12 3 2
f 2 13 12
f 9 8 6
f 6 7 9
f 5 14 11
f 11 7 5
f 14 13 11
f 13 2 11
f 11 9 7
f 11 3 10
f 11 2 3
f 10 8 11
f 8 9 11
