v 0.0197500273 -0.232650002 0.0794998918
v 0.0197500273 -0.232650002 0.0759999071
v 0.0197500273 -0.242999976 0.0692849074
v 0.0197500273 -0.242999976 0.0794998918
v 0.00987501288 -0.242999976 0.0794998918
v 0.00987501288 -0.232650002 0.0759999071
v 0.00987501288 -0.232650002 0.0794998918
v 0.00987501288 -0.242999976 0.0692849074
v 0.0197500273 -0.240599995 0.0692849074
v 0.00987501288 -0.240599995 0.0692849074
f 5 8 3
f 3 4 5
f 7 8 5
f 10 8 7
f 7 6 10
f 1 2 7
f 7 2 6
f 7 4 1
f 5 4 7
f 10 6 9
f 6 2 9
f 9 3 8
f 9 8 10
f 1 4 9
f 4 3 9
f 9 2 1
