v 0.199817 0.0666829896 0.0789999281
v 0.202391683 0.0608106208 0.0789999281
v 0.201373635 0.0615576458 0.0789999281
v 0.200575171 0.0625359369 0.0789999281
v 0.200047313 0.0636830282 0.0789999281
v 0.204816996 0.0601829839 0.0789999281
v 0.203564344 0.0603424859 0.0789999281
v 0.200047313 0.0636830282 0.0839999233
v 0.200575171 0.0625359369 0.0839999233
v 0.201373635 0.0615576458 0.0839999233
v 0.202391683 0.0608106208 0.0839999233
v 0.203564344 0.0603424859 0.0839999233
v 0.204816996 0.0601829839 0.0839999233
v 0.199817 0.0666829896 0.0839999233
v 0.199817 0.0721639645 0.0789999281
v 0.199817 0.0721639645 0.0839999233
v 0.209191991 0.0601829839 0.0789999281
v 0.209191991 0.0601829839 0.0839999233
v 0.209191991 0.0684330416 0.0839999233
v 0.209191991 0.0721639645 0.0789999281
f 20 15 16
f 16 19 20
f 14 15 1
f 16 15 14
f 5 14 1
f 8 14 5
f 18 20 19
f 17 20 18
f 18 6 17
f 13 6 18
f 3 11 10
f 2 11 3
f 8 5 9
f 5 4 9
f 4 3 9
f 9 3 10
f 7 5 1
f 1 15 7
f 2 3 7
f 15 20 7
f 7 20 17
f 7 4 5
f 17 6 7
f 7 3 4
f 16 14 12
f 12 14 8
f 12 19 16
f 8 9 12
f 12 18 19
f 13 18 12
f 10 11 12
f 12 9 10
f 12 6 13
f 12 7 6
f 12 11 2
f 2 7 12
