v 0.0189999923 -0.190199976 0.0914998565
v 0.0189999923 -0.187200015 0.0914998565
v 0.0189999923 -0.187200015 0.0804999385
v 0.0197500273 -0.190199976 0.0864998613
v 0.0197500273 -0.190199976 0.0839999233
v 0.0197500273 -0.191066031 0.0824999128
v 0.0189999923 -0.200270002 0.0804999385
v 0.0197500273 -0.200270002 0.0864998613
v 0.0197500273 -0.200270002 0.0824999128
v 0.00987501288 -0.187200015 0.0804999385
v 0.00987501288 -0.187200015 0.0914998565
v 0.00987501288 -0.190199976 0.0914998565
v 0.00987501288 -0.200270002 0.0864998613
v 0.00987501288 -0.200270002 0.0804999385
f 5 6 3
f 14 3 7
f 10 3 14
f 9 14 7
f 13 14 9
f 9 8 13
f 9 5 4
f 4 8 9
f 6 5 9
f 7 3 9
f 3 6 9
f 10 14 12
f 12 11 10
f 12 14 13
f 13 8 12
f 8 1 12
f 4 5 2
f 2 5 3
f 2 8 4
f 2 1 8
f 2 3 10
f 10 11 2
f 11 12 2
f 2 12 1
