v 0.266849185 -0.107689654 0.0567616757
v 0.267832551 -0.107689654 0.0550699297
v 0.264094735 -0.0985438368 0.0614999447
v 0.264094689 -0.0966741279 0.0614999447
v 0.264094701 -0.0951599832 0.0614999447
v 0.264094723 -0.107689654 0.0614999447
v 0.264434044 -0.094719817 0.0609162489
v 0.264094711 -0.094719817 0.0614999447
v 0.270634521 -0.094719817 0.0502499555
v 0.268352547 -0.094719817 0.0541754026
v 0.27063449 -0.0984585261 0.0502499555
v 0.26985068 -0.107689654 0.051598417
v 0.270634525 -0.107689654 0.0502499555
v 0.270634514 -0.107173985 0.0502499555
v 0.270634513 -0.107134525 0.0502499555
v 0.270634581 -0.105057487 0.0502499555
v 0.265475923 -0.094719817 0.0591239966
f 4 2 6
f 16 9 17
f 10 2 4
f 16 17 3
f 17 7 3
f 2 10 11
f 11 15 2
f 11 10 9
f 8 3 7
f 12 13 16
f 14 13 2
f 2 15 14
f 5 8 10
f 5 10 4
f 1 12 16
f 1 3 6
f 16 3 1
f 9 10 8
f 8 17 9
f 8 7 17
f 16 13 14
f 14 9 16
f 14 11 9
f 15 11 14
f 6 3 5
f 4 6 5
f 3 8 5
f 2 13 1
f 1 6 2
f 13 12 1
