v -0.0189999953 -0.239200001 0.0804999385
v -0.0189999953 -0.23619998 0.0914998565
v -0.0189999953 -0.239200001 0.0914998565
v -0.0197500304 -0.23619998 0.0839999233
v -0.0197500304 -0.23619998 0.0864998613
v -0.0197500304 -0.235333984 0.0824999128
v -0.0189999953 -0.226269995 0.0804999385
v -0.0197500304 -0.226269995 0.0824999128
v -0.0197500304 -0.226269995 0.0864998613
v -0.00987501597 -0.239200001 0.0804999385
v -0.00987501597 -0.239200001 0.0914998565
v -0.00987501597 -0.23619998 0.0914998565
v -0.00987501597 -0.226269995 0.0804999385
v -0.00987501597 -0.226269995 0.0864998613
f 4 6 1
f 13 1 7
f 10 1 13
f 3 1 10
f 10 11 3
f 14 13 8
f 8 13 7
f 8 9 14
f 7 1 8
f 1 6 8
f 9 8 5
f 6 4 5
f 5 8 6
f 5 4 1
f 1 3 5
f 10 13 12
f 12 11 10
f 12 13 14
f 2 5 3
f 9 5 2
f 14 9 2
f 2 12 14
f 2 3 11
f 11 12 2
