v -0.219816984 -0.0771830129 0.106499902
v -0.219816984 -0.0771830129 0.117749891
v -0.219987334 -0.0784770894 0.106499902
v -0.219987334 -0.0784770894 0.117749891
v -0.220486821 -0.0796830106 0.106499902
v -0.220486821 -0.0796830106 0.117749891
v -0.22128147 -0.080718522 0.106499902
v -0.22128147 -0.080718522 0.117749891
v -0.222317042 -0.0815131116 0.106499902
v -0.222317042 -0.0815131116 0.117749891
v -0.223522843 -0.0820126581 0.106499902
v -0.223522843 -0.0820126581 0.117749891
v -0.22481698 -0.0821830082 0.106499902
v -0.22481698 -0.0821830082 0.117749891
v -0.225396674 -0.0821830082 0.106499902
v -0.225396674 -0.0821830082 0.117749891
v -0.219816984 -0.072163974 0.117749891
v -0.219816984 -0.072163974 0.106499902
f 15 16 18
f 18 16 17
f 2 1 18
f 2 18 17
f 5 3 4
f 4 6 5
f 1 2 4
f 4 3 1
f 12 11 9
f 9 10 12
f 18 1 7
f 15 18 7
f 7 3 5
f 7 13 15
f 1 3 7
f 9 11 7
f 11 13 7
f 14 16 15
f 15 13 14
f 14 13 11
f 11 12 14
f 8 2 17
f 17 16 8
f 6 4 8
f 16 14 8
f 8 4 2
f 8 12 10
f 8 14 12
f 5 6 8
f 8 7 5
f 8 10 9
f 9 7 8
