v 0.119674592 0.206448985 0.0839999233
v 0.12303084 0.203215535 0.072749934
v 0.12303084 0.203215535 0.0839999233
v 0.130101858 0.203215535 0.072749934
v 0.129066406 0.202421005 0.0839999233
v 0.129066406 0.202421005 0.072749934
v 0.127860485 0.201921518 0.0839999233
v 0.127860485 0.201921518 0.072749934
v 0.127213417 0.201836283 0.0839999233
v 0.127536951 0.201878901 0.072749934
v 0.126566349 0.201751049 0.0839999233
v 0.126566349 0.201751049 0.072749934
v 0.125272213 0.201921518 0.0839999233
v 0.125595747 0.201878901 0.072749934
v 0.125272213 0.201921518 0.072749934
v 0.124066411 0.202421005 0.0839999233
v 0.124066411 0.202421005 0.072749934
v 0.130101858 0.203215535 0.0839999233
v 0.131659506 0.204773183 0.072749934
v 0.131659506 0.204773183 0.0839999233
v 0.119674592 0.206448985 0.072749934
f 14 12 11
f 13 15 14
f 11 13 14
f 1 20 19
f 19 21 1
f 15 13 16
f 16 17 15
f 7 8 6
f 6 5 7
f 12 14 2
f 2 21 19
f 2 10 12
f 19 4 2
f 6 8 2
f 2 15 17
f 8 10 2
f 2 4 6
f 2 14 15
f 2 1 21
f 2 3 1
f 2 17 16
f 16 3 2
f 12 10 9
f 11 12 9
f 8 7 9
f 9 10 8
f 18 13 11
f 18 3 16
f 20 1 18
f 16 13 18
f 11 9 18
f 1 3 18
f 18 7 5
f 18 9 7
f 19 20 18
f 18 4 19
f 18 5 6
f 6 4 18
