v -0.250976315 -0.101902226 0.0839999233
v -0.248840168 -0.108106916 0.0876745721
v -0.248487113 -0.108106916 0.0882819731
v -0.250976344 -0.101151782 0.0839999233
v -0.250976314 -0.0989235205 0.0839999233
v -0.247252094 -0.108106916 0.0904064113
v -0.250976332 -0.108106916 0.0839999233
v -0.244581407 -0.106841218 0.0950006115
v -0.244581407 -0.108106916 0.0950006115
v -0.244581409 -0.095144962 0.0950006115
v -0.250976321 -0.095144962 0.0839999233
v -0.244581408 -0.0965745686 0.0950006115
f 3 10 4
f 9 10 3
f 4 7 3
f 4 10 11
f 10 5 11
f 1 2 7
f 6 8 9
f 6 5 10
f 12 6 10
f 8 6 12
f 4 11 1
f 1 7 4
f 1 11 5
f 6 3 7
f 9 3 6
f 7 2 6
f 6 1 5
f 2 1 6
