v 0.225435328 -0.0817499804 0.12800282
v 0.224855719 -0.0817499804 0.12899988
v 0.224855719 -0.0837198394 0.12899988
v 0.225435328 -0.0837198394 0.12800282
v 0.219855605 -0.0717349323 0.12899988
v 0.212645476 -0.0837198394 0.12899988
v 0.212645476 -0.0717349323 0.12899988
v 0.224855719 -0.0817499804 0.117749891
v 0.223561583 -0.0815796303 0.117749891
v 0.222355662 -0.0810801434 0.117749891
v 0.221320091 -0.0802855539 0.117749891
v 0.220525561 -0.0792499828 0.117749891
v 0.220026074 -0.0780441212 0.117749891
v 0.219855605 -0.0767499852 0.117749891
v 0.225435328 -0.0817499804 0.117749891
v 0.219855605 -0.0717349323 0.117749891
f 4 3 6
f 6 10 9
f 6 12 11
f 11 10 6
f 5 2 1
f 6 14 13
f 13 12 6
f 6 9 8
f 15 4 8
f 8 4 6
f 2 7 6
f 6 3 2
f 2 5 7
f 7 5 16
f 6 7 16
f 16 14 6
f 15 16 1
f 1 16 5
f 1 4 15
f 1 2 3
f 3 4 1
f 8 11 12
f 14 16 8
f 8 16 15
f 12 13 8
f 8 9 10
f 10 11 8
f 8 13 14
