v 0.0767499789 0.219855721 0.0952499126
v 0.0817499741 0.224855716 0.0952499126
v 0.0817499741 0.224855716 0.0839999233
v 0.0815796241 0.22356158 0.0839999233
v 0.0815796241 0.22356158 0.0952499126
v 0.0810801371 0.222355659 0.0839999233
v 0.0810801371 0.222355659 0.0952499126
v 0.080285488 0.221320088 0.0839999233
v 0.080285488 0.221320088 0.0952499126
v 0.0792500361 0.220525558 0.0839999233
v 0.0792500361 0.220525558 0.0952499126
v 0.078044115 0.220026071 0.0839999233
v 0.078044115 0.220026071 0.0952499126
v 0.0767499789 0.219855721 0.0839999233
v 0.0770411595 0.21989405 0.0952499126
v 0.0817499741 0.225435324 0.0952499126
v 0.0817499741 0.225435324 0.0839999233
v 0.0707499966 0.219855721 0.0952499126
v 0.0707499966 0.219855721 0.0839999233
f 15 14 12
f 1 14 15
f 12 13 15
f 18 16 19
f 19 16 17
f 14 1 18
f 18 19 14
f 3 16 2
f 17 16 3
f 8 19 17
f 17 3 8
f 10 12 8
f 12 14 8
f 8 4 6
f 8 14 19
f 8 3 4
f 7 8 6
f 9 8 7
f 4 3 5
f 5 3 2
f 6 4 5
f 5 7 6
f 10 8 11
f 11 8 9
f 11 12 10
f 11 13 12
f 15 16 18
f 18 1 15
f 2 16 15
f 15 11 9
f 9 7 15
f 15 5 2
f 7 5 15
f 13 11 15
