v 0.244689231 0.132068868 0.0948151605
v 0.244689232 0.136362674 0.0948151605
v 0.245854552 0.135733203 0.0905163016
v 0.25097633 0.137932407 0.0839999233
v 0.2504185 0.138490237 0.0839999233
v 0.250324461 0.138584276 0.0851212865
v 0.25097633 0.132068868 0.0839999233
v 0.249113855 0.137186064 0.0839999233
v 0.24973254 0.137804749 0.0839999233
v 0.249400051 0.132068868 0.0867114813
v 0.249130178 0.137722198 0.0871757241
v 0.249497457 0.137996369 0.0865439211
f 2 3 1
f 5 6 4
f 5 2 6
f 4 6 12
f 12 7 4
f 6 2 12
f 1 3 8
f 8 7 1
f 3 2 8
f 7 12 10
f 10 2 1
f 1 7 10
f 2 5 9
f 9 8 2
f 11 12 2
f 2 10 11
f 11 10 12
f 9 5 4
f 4 7 9
f 7 8 9
