v 0.199855624 -0.104871933 0.0839999233
v 0.199855624 -0.0957047465 0.0839999233
v 0.199855624 -0.0957047465 0.0789999281
v 0.199855624 -0.0984074521 0.072749934
v 0.199855624 -0.104871933 0.072749934
v 0.200025974 -0.10616601 0.072749934
v 0.200025974 -0.10616601 0.0839999233
v 0.20052558 -0.107371931 0.072749934
v 0.20052558 -0.107371931 0.0839999233
v 0.200769363 -0.107689654 0.072749934
v 0.200769363 -0.107689654 0.0839999233
v 0.20923063 -0.0957047465 0.0789999281
v 0.20923063 -0.0990304994 0.0839999233
v 0.20923063 -0.105530505 0.0839999233
v 0.20923063 -0.105530505 0.072749934
v 0.20923063 -0.0984074521 0.072749934
f 2 13 12
f 1 2 3
f 3 5 1
f 4 5 3
f 12 16 3
f 3 16 4
f 2 12 3
f 15 11 10
f 14 11 15
f 15 13 14
f 15 12 13
f 15 16 12
f 9 2 1
f 9 11 14
f 14 13 9
f 9 13 2
f 1 7 9
f 1 5 6
f 6 7 1
f 8 5 4
f 8 15 10
f 4 16 8
f 16 15 8
f 8 6 5
f 10 11 8
f 11 9 8
f 8 9 7
f 7 6 8
