v -0.132068874 0.238402137 0.105630398
v -0.132068874 0.238351949 0.105716735
v -0.131939905 0.238402138 0.105630398
v -0.132068874 0.236736551 0.108495512
v -0.128117739 0.238402098 0.105630398
v -0.129929794 0.238402158 0.105630398
v -0.132068874 0.237534681 0.107122657
v -0.130214662 0.232114991 0.116445635
v -0.132068874 0.232114991 0.116445635
v -0.120087893 0.232114993 0.116445635
v -0.120087893 0.238402099 0.105630398
f 7 9 10
f 1 5 4
f 10 11 6
f 6 7 10
f 9 7 2
f 1 4 2
f 2 4 9
f 7 6 2
f 2 6 3
f 5 11 8
f 8 11 10
f 8 4 5
f 9 4 8
f 6 11 5
f 6 5 1
f 1 3 6
f 2 3 1
