v 0.212606835 0.0668509001 0.106499902
v 0.204816996 0.0601829839 0.117749891
v 0.200047313 0.0636830282 0.117749891
v 0.200575171 0.0625359369 0.106499902
v 0.200575171 0.0625359369 0.117749891
v 0.201373635 0.0615576458 0.106499902
v 0.201373635 0.0615576458 0.117749891
v 0.202391683 0.0608106208 0.106499902
v 0.202391683 0.0608106208 0.117749891
v 0.203564344 0.0603424859 0.106499902
v 0.203564344 0.0603424859 0.117749891
v 0.204816996 0.0601829839 0.106499902
v 0.211693345 0.0684330416 0.117749891
v 0.211693345 0.0684330416 0.106499902
v 0.200047313 0.0636830282 0.106499902
v 0.199817 0.0666829896 0.117749891
v 0.199817 0.0666829896 0.106499902
v 0.212606835 0.0601829839 0.106499902
v 0.212606835 0.0601829839 0.117749891
v 0.212606835 0.0668509001 0.117749891
v 0.199817 0.0721639645 0.117749891
v 0.199817 0.0721639645 0.106499902
f 16 21 22
f 22 17 16
f 19 18 20
f 20 18 1
f 13 20 14
f 14 20 1
f 21 13 14
f 14 22 21
f 16 17 15
f 15 3 16
f 5 13 21
f 5 21 16
f 5 2 19
f 16 3 5
f 5 20 13
f 7 9 5
f 11 2 5
f 19 20 5
f 5 9 11
f 5 15 4
f 3 15 5
f 7 5 6
f 6 5 4
f 19 2 12
f 12 18 19
f 12 2 11
f 12 11 10
f 17 22 8
f 1 18 8
f 22 14 8
f 8 12 10
f 8 15 17
f 8 14 1
f 4 15 8
f 8 6 4
f 18 12 8
f 11 9 8
f 10 11 8
f 8 9 7
f 7 6 8
