v 0.206838547 -0.119166856 0.0839999233
v 0.206449016 -0.119674561 0.0839999233
v 0.206044017 -0.113131349 0.072749934
v 0.206044017 -0.113131349 0.0839999233
v 0.206838547 -0.114166861 0.072749934
v 0.206838547 -0.114166861 0.0839999233
v 0.207338153 -0.115372782 0.072749934
v 0.207338153 -0.115372782 0.0839999233
v 0.207508503 -0.116666858 0.072749934
v 0.207508503 -0.116666858 0.0839999233
v 0.207338153 -0.117960994 0.072749934
v 0.207338153 -0.117960994 0.0839999233
v 0.206838547 -0.119166856 0.072749934
v 0.200769363 -0.107689654 0.0839999233
v 0.200769363 -0.107689654 0.072749934
v 0.206449016 -0.119674561 0.072749934
f 16 2 14
f 14 15 16
f 3 15 14
f 14 4 3
f 3 4 6
f 6 5 3
f 2 16 13
f 1 2 13
f 1 13 12
f 12 13 11
f 7 5 6
f 6 8 7
f 14 2 12
f 12 8 6
f 12 2 1
f 12 4 14
f 6 4 12
f 10 8 12
f 12 11 9
f 9 10 12
f 7 16 15
f 7 13 16
f 9 11 7
f 15 3 7
f 7 3 5
f 11 13 7
f 7 8 10
f 7 10 9
