v 0.212606835 0.0601829839 0.0839999233
v 0.199817 0.0666829896 0.0839999233
v 0.199817 0.0721639645 0.0839999233
v 0.200047313 0.0636830282 0.0952499126
v 0.200047313 0.0636830282 0.0839999233
v 0.200575171 0.0625359369 0.0839999233
v 0.200575171 0.0625359369 0.0952499126
v 0.201373635 0.0615576458 0.0839999233
v 0.201373635 0.0615576458 0.0952499126
v 0.202391683 0.0608106208 0.0839999233
v 0.202391683 0.0608106208 0.0952499126
v 0.203564344 0.0603424859 0.0839999233
v 0.203564344 0.0603424859 0.0952499126
v 0.204816996 0.0601829839 0.0839999233
v 0.204816996 0.0601829839 0.0952499126
v 0.211693345 0.0684330416 0.0952499126
v 0.211693345 0.0684330416 0.0839999233
v 0.199817 0.0666829896 0.0952499126
v 0.212606835 0.0601829839 0.0952499126
v 0.212606835 0.0668509001 0.0839999233
v 0.212606835 0.0668509001 0.0952499126
v 0.199817 0.0721639645 0.0952499126
f 4 18 5
f 5 18 2
f 22 3 2
f 2 18 22
f 16 17 22
f 17 3 22
f 20 17 16
f 16 21 20
f 20 21 19
f 19 1 20
f 19 15 14
f 14 1 19
f 4 5 7
f 5 6 7
f 9 7 8
f 8 7 6
f 11 15 19
f 11 18 4
f 16 22 11
f 11 22 18
f 11 21 16
f 19 21 11
f 13 15 11
f 4 7 11
f 11 7 9
f 11 8 10
f 9 8 11
f 2 3 12
f 12 3 17
f 12 5 2
f 10 8 12
f 17 20 12
f 12 6 5
f 12 20 1
f 1 14 12
f 12 8 6
f 13 11 12
f 12 11 10
f 12 15 13
f 12 14 15
