v 0.105304895 -0.199817007 0.106499902
v 0.108082829 -0.200659637 0.106499902
v 0.107218324 -0.200197582 0.0952499126
v 0.107218324 -0.200197582 0.106499902
v 0.106280385 -0.199913089 0.0952499126
v 0.106280385 -0.199913089 0.106499902
v 0.105304895 -0.199817007 0.0952499126
v 0.0994635209 -0.2102899 0.106499902
v 0.0994635209 -0.2102899 0.0952499126
v 0.102713524 -0.212166254 0.106499902
v 0.102713524 -0.212166254 0.0952499126
v 0.105963527 -0.2102899 0.106499902
v 0.105963527 -0.2102899 0.0952499126
v 0.108082829 -0.200659637 0.0952499126
v 0.108122645 -0.200692312 0.106499902
v 0.108122645 -0.200692312 0.0952499126
v 0.0961377307 -0.199817007 0.106499902
v 0.0961377307 -0.199817007 0.0952499126
f 18 8 17
f 9 8 18
f 10 8 11
f 11 8 9
f 13 12 10
f 10 11 13
f 15 12 13
f 13 16 15
f 17 1 7
f 7 18 17
f 2 1 17
f 2 12 15
f 17 8 2
f 10 12 2
f 2 8 10
f 2 6 1
f 4 6 2
f 15 16 2
f 16 14 2
f 2 14 3
f 3 4 2
f 18 7 5
f 5 13 11
f 16 13 5
f 9 18 5
f 5 11 9
f 5 14 16
f 3 14 5
f 5 6 4
f 5 4 3
f 5 7 1
f 1 6 5
