v -0.219855608 0.064750011 0.106499902
v -0.219855608 0.064750011 0.117749891
v -0.219730319 0.0636373711 0.106499902
v -0.219730319 0.0636373711 0.117749891
v -0.219360532 0.0625805807 0.117749891
v -0.219360532 0.0625805807 0.106499902
v -0.218764843 0.0616325689 0.106499902
v -0.218764843 0.0616325689 0.117749891
v -0.217973055 0.0608408404 0.106499902
v -0.217973055 0.0608408404 0.117749891
v -0.217025103 0.0602451515 0.106499902
v -0.217025103 0.0602451515 0.117749891
v -0.215968312 0.0598753643 0.106499902
v -0.215968312 0.0598753643 0.117749891
v -0.214855613 0.0597500158 0.106499902
v -0.214855613 0.0597500158 0.117749891
v -0.212645479 0.0597500158 0.106499902
v -0.212645479 0.0597500158 0.117749891
v -0.212645479 0.0664179495 0.106499902
v -0.212645479 0.0664179495 0.117749891
v -0.219855608 0.0717349303 0.117749891
v -0.219855608 0.0717349303 0.106499902
f 15 17 16
f 16 17 18
f 21 20 19
f 19 22 21
f 19 20 18
f 18 17 19
f 13 16 14
f 15 16 13
f 21 22 2
f 22 1 2
f 14 12 11
f 11 13 14
f 10 8 9
f 9 8 7
f 9 12 10
f 9 11 12
f 6 19 17
f 6 1 22
f 6 17 15
f 15 13 6
f 22 19 6
f 3 1 6
f 13 11 6
f 6 9 7
f 11 9 6
f 2 1 3
f 3 4 2
f 5 20 21
f 21 2 5
f 18 20 5
f 5 16 18
f 10 12 5
f 14 16 5
f 5 8 10
f 5 12 14
f 5 2 4
f 3 6 5
f 5 4 3
f 7 8 5
f 5 6 7
