v 0.225827891 0.153185919 0.116445635
v 0.225827891 0.144049848 0.127260872
v 0.225827891 0.153185919 0.127260872
v 0.232114983 0.144049848 0.116445635
v 0.226886879 0.144049848 0.125439168
v 0.230194437 0.150857469 0.119749532
v 0.232115047 0.148095685 0.116445635
v 0.231686136 0.144049848 0.117183365
v 0.229346803 0.151705103 0.121207647
v 0.232115052 0.148936854 0.116445635
v 0.226846939 0.154204967 0.116445635
v 0.226846939 0.154204967 0.125507873
v 0.226968071 0.154083835 0.125299539
v 0.227256783 0.153795123 0.124802898
v 0.228278748 0.152773157 0.123044917
f 1 2 3
f 1 4 5
f 5 2 1
f 7 8 4
f 2 8 7
f 10 2 7
f 13 12 3
f 10 9 6
f 6 2 10
f 6 9 2
f 2 9 15
f 14 13 3
f 12 11 1
f 1 3 12
f 8 5 4
f 2 5 8
f 7 11 10
f 1 11 7
f 7 4 1
f 2 15 14
f 14 3 2
f 10 11 14
f 11 12 14
f 12 13 14
f 14 9 10
f 14 15 9
