v 0.206892377 0.11937666 0.106499902
v 0.203176914 0.123463805 0.106499902
v 0.203176914 0.123463805 0.0952499126
v 0.202478825 0.124339278 0.106499902
v 0.202478825 0.124339278 0.0952499126
v 0.201993047 0.125348027 0.106499902
v 0.201993047 0.125348027 0.0952499126
v 0.201868473 0.125893767 0.106499902
v 0.20183733 0.126030202 0.0952499126
v 0.201743899 0.126439507 0.106499902
v 0.201743899 0.126439507 0.0952499126
v 0.201743899 0.12755924 0.106499902
v 0.201743899 0.12755924 0.0952499126
v 0.20193076 0.12837785 0.106499902
v 0.20183733 0.127968545 0.0952499126
v 0.201993047 0.12865072 0.106499902
v 0.201993047 0.12865072 0.0952499126
v 0.202478825 0.129659588 0.106499902
v 0.202478825 0.129659588 0.0952499126
v 0.203176914 0.130534942 0.106499902
v 0.203176914 0.130534942 0.0952499126
v 0.203288385 0.130646413 0.106499902
v 0.203288385 0.130646413 0.0952499126
v 0.206892377 0.11937666 0.0952499126
f 24 23 22
f 22 1 24
f 16 18 19
f 17 16 19
f 4 6 7
f 7 5 4
f 6 8 7
f 7 8 9
f 11 8 10
f 9 8 11
f 20 1 22
f 16 14 20
f 4 2 20
f 20 12 10
f 20 6 4
f 10 8 20
f 20 18 16
f 20 14 12
f 20 2 1
f 20 8 6
f 3 2 4
f 4 5 3
f 3 24 1
f 1 2 3
f 10 12 13
f 13 11 10
f 22 23 21
f 21 20 22
f 21 19 18
f 18 20 21
f 15 3 5
f 5 7 15
f 23 24 15
f 17 19 15
f 15 21 23
f 15 7 9
f 9 11 15
f 24 3 15
f 11 13 15
f 19 21 15
f 15 16 17
f 15 14 16
f 12 14 15
f 15 13 12
