v -0.0664178254 -0.212645527 0.106499902
v -0.0717349366 -0.19985569 0.106499902
v -0.059750022 -0.204855685 0.106499902
v -0.059750022 -0.204855685 0.117749891
v -0.0599094049 -0.203603034 0.106499902
v -0.0599094049 -0.203603034 0.117749891
v -0.060377659 -0.202430313 0.106499902
v -0.060377659 -0.202430313 0.117749891
v -0.0611246244 -0.201412265 0.106499902
v -0.0611246244 -0.201412265 0.117749891
v -0.0621028558 -0.200613861 0.106499902
v -0.0621028558 -0.200613861 0.117749891
v -0.0632500068 -0.200085943 0.106499902
v -0.0632500068 -0.200085943 0.117749891
v -0.0662500278 -0.19985569 0.117749891
v -0.0662500278 -0.19985569 0.106499902
v -0.0680000201 -0.211732035 0.106499902
v -0.0680000201 -0.211732035 0.117749891
v -0.059750022 -0.212645527 0.117749891
v -0.059750022 -0.212645527 0.106499902
v -0.0671521482 -0.21222156 0.117749891
v -0.0664178254 -0.212645527 0.117749891
v -0.0717349366 -0.19985569 0.117749891
f 1 22 21
f 17 23 2
f 18 23 17
f 1 20 22
f 20 19 22
f 11 13 14
f 14 12 11
f 21 17 1
f 18 17 21
f 5 7 8
f 6 5 8
f 9 3 20
f 9 20 1
f 9 17 2
f 9 13 11
f 1 17 9
f 2 16 9
f 9 7 5
f 5 3 9
f 9 16 13
f 12 10 9
f 11 12 9
f 10 8 9
f 9 8 7
f 4 19 20
f 20 3 4
f 4 3 5
f 4 5 6
f 6 8 15
f 15 22 19
f 19 4 15
f 15 23 18
f 15 10 12
f 18 21 15
f 12 14 15
f 15 4 6
f 15 21 22
f 15 8 10
f 2 23 15
f 15 16 2
f 13 16 15
f 15 14 13
