v 0.128650723 -0.201992993 0.12899988
v 0.127559243 -0.201743846 0.12899988
v 0.123463808 -0.20317692 0.12899988
v 0.130534945 -0.20317692 0.12899988
v 0.129659592 -0.202478831 0.12899988
v 0.12643951 -0.201743846 0.12899988
v 0.12534803 -0.201992993 0.12899988
v 0.124339162 -0.202478831 0.12899988
v 0.13065748 -0.203299455 0.12899988
v 0.13065748 -0.213263313 0.12899988
v 0.119390062 -0.206886833 0.12899988
v 0.119390062 -0.213263313 0.12899988
v 0.123463808 -0.20317692 0.117749891
v 0.124339162 -0.202478831 0.117749891
v 0.12534803 -0.201992993 0.117749891
v 0.12643951 -0.201743846 0.117749891
v 0.127559243 -0.201743846 0.117749891
v 0.128650723 -0.201992993 0.117749891
v 0.129659592 -0.202478831 0.117749891
v 0.130534945 -0.20317692 0.117749891
v 0.13065748 -0.203299455 0.117749891
v 0.119390062 -0.206886833 0.117749891
f 12 22 10
f 10 22 21
f 20 9 21
f 20 4 9
f 22 12 11
f 21 9 10
f 1 5 19
f 19 18 1
f 13 22 11
f 11 3 13
f 13 3 8
f 8 14 13
f 12 10 7
f 11 12 7
f 7 5 1
f 7 3 11
f 7 10 9
f 9 4 7
f 8 3 7
f 1 2 7
f 7 4 5
f 7 2 6
f 5 4 20
f 20 19 5
f 6 2 17
f 16 6 17
f 1 18 17
f 17 2 1
f 21 22 15
f 22 13 15
f 15 20 21
f 16 17 15
f 18 19 15
f 15 13 14
f 19 20 15
f 15 17 18
f 15 7 6
f 15 6 16
f 15 14 8
f 8 7 15
