v -0.219147147 -0.062682991 0.0839999233
v -0.219147147 -0.062682991 0.0789999281
v -0.219646634 -0.0638889122 0.0789999281
v -0.219646634 -0.0638889122 0.0839999233
v -0.219816984 -0.0651829886 0.0789999281
v -0.219799949 -0.065053581 0.0839999233
v -0.219816984 -0.0651829886 0.0839999233
v -0.218566985 -0.0619269791 0.0789999281
v -0.218566985 -0.0619269791 0.0839999233
v -0.219816984 -0.0730359669 0.0839999233
v -0.219816984 -0.0730359669 0.0789999281
v -0.218566985 -0.0730359669 0.0789999281
f 12 9 10
f 10 11 12
f 6 3 5
f 5 7 6
f 3 6 4
f 5 11 7
f 7 11 10
f 8 9 12
f 5 3 12
f 12 11 5
f 12 2 8
f 3 2 12
f 8 2 1
f 1 9 8
f 1 7 10
f 10 9 1
f 1 6 7
f 1 4 6
f 1 2 3
f 3 4 1
