v -0.076749982 -0.219855671 0.117749891
v -0.076749982 -0.219855671 0.106499902
v -0.0817499772 -0.224855666 0.117749891
v -0.0817499772 -0.224855666 0.106499902
v -0.0815796271 -0.22356159 0.117749891
v -0.0815796271 -0.22356159 0.106499902
v -0.0810801402 -0.222355669 0.106499902
v -0.0810801402 -0.222355669 0.117749891
v -0.0802854911 -0.221320157 0.106499902
v -0.0802854911 -0.221320157 0.117749891
v -0.0792500392 -0.220525508 0.117749891
v -0.0792500392 -0.220525508 0.106499902
v -0.0785867826 -0.22025079 0.106499902
v -0.0783154503 -0.220138406 0.117749891
v -0.078044118 -0.220026021 0.106499902
v -0.078044118 -0.220026021 0.117749891
v -0.0776882306 -0.219979175 0.117749891
v -0.0817499772 -0.225435364 0.117749891
v -0.0817499772 -0.225435364 0.106499902
v -0.0717349366 -0.219855671 0.106499902
v -0.0717349366 -0.219855671 0.117749891
f 15 16 17
f 17 2 15
f 1 2 17
f 20 21 18
f 18 19 20
f 2 21 20
f 2 1 21
f 4 18 3
f 19 18 4
f 6 4 5
f 5 4 3
f 7 6 5
f 5 8 7
f 21 1 17
f 11 10 17
f 3 18 17
f 17 18 21
f 17 5 3
f 17 14 11
f 8 5 17
f 17 10 8
f 16 14 17
f 7 8 9
f 8 10 9
f 9 10 11
f 11 12 9
f 20 19 13
f 13 2 20
f 19 4 13
f 15 2 13
f 13 6 7
f 7 9 13
f 13 4 6
f 13 9 12
f 11 14 13
f 13 12 11
f 13 16 15
f 13 14 16
