v 0.135854539 -0.180134486 0.12899988
v 0.127029335 -0.188959695 0.12899988
v 0.135854539 -0.180134486 0.133999876
v 0.127029335 -0.188959695 0.133999876
v 0.127029335 -0.189872994 0.133999876
v 0.136767838 -0.180134486 0.12899988
v 0.136767838 -0.189872994 0.133999876
v 0.136767838 -0.180134486 0.133999876
v 0.136767838 -0.189872994 0.12899988
v 0.127029335 -0.189872994 0.12899988
f 2 3 1
f 2 4 3
f 9 10 2
f 2 6 9
f 1 6 2
f 5 10 9
f 9 7 5
f 4 2 5
f 5 2 10
f 3 4 8
f 8 5 7
f 4 5 8
f 9 6 8
f 8 7 9
f 1 3 8
f 8 6 1
