v -0.0984074489 -0.19985569 0.072749934
v -0.0984074489 -0.19985569 0.0614999447
v -0.10487193 -0.19985569 0.0614999447
v -0.10487193 -0.19985569 0.072749934
v -0.10584742 -0.199951713 0.0614999447
v -0.10584742 -0.199951713 0.072749934
v -0.106785359 -0.200236266 0.0614999447
v -0.106785359 -0.200236266 0.072749934
v -0.107649745 -0.200698321 0.0614999447
v -0.107649745 -0.200698321 0.072749934
v -0.10768968 -0.200731093 0.0614999447
v -0.10768968 -0.200731093 0.072749934
v -0.105530442 -0.209230688 0.0614999447
v -0.105530442 -0.209230688 0.072749934
v -0.0984074489 -0.209230688 0.0614999447
v -0.0984074489 -0.209230688 0.072749934
f 13 16 14
f 15 16 13
f 14 12 13
f 13 12 11
f 1 16 2
f 2 16 15
f 1 2 4
f 4 2 3
f 3 2 9
f 9 2 15
f 9 13 11
f 5 3 9
f 15 13 9
f 9 7 5
f 6 3 5
f 6 4 3
f 5 7 8
f 8 6 5
f 10 12 14
f 10 16 1
f 14 16 10
f 1 4 10
f 4 6 10
f 6 8 10
f 11 12 10
f 10 9 11
f 7 9 10
f 10 8 7
