v 0.264094735 -0.0985438368 0.0614999447
v 0.264094689 -0.0966741279 0.0614999447
v 0.262943053 -0.094719817 0.0634810947
v 0.26343154 -0.094719817 0.0626407209
v 0.263928263 -0.094719817 0.0617862579
v 0.264094701 -0.0951599832 0.0614999447
v 0.264094711 -0.094719817 0.0614999447
v 0.264094723 -0.107689654 0.0614999447
v 0.257554876 -0.107689654 0.072749934
v 0.257554884 -0.094719817 0.072749934
f 8 1 9
f 2 8 9
f 9 1 10
f 10 2 9
f 3 10 1
f 2 10 4
f 7 3 1
f 7 6 5
f 8 2 6
f 1 8 6
f 6 7 1
f 5 4 10
f 10 3 5
f 3 7 5
f 5 6 2
f 2 4 5
