v 0.113564311 -0.20600534 0.0952499126
v 0.113564311 -0.20600534 0.0839999233
v 0.118393956 -0.207299416 0.0839999233
v 0.118393956 -0.207299416 0.0952499126
v 0.117099939 -0.207469766 0.0839999233
v 0.117099939 -0.207469766 0.0952499126
v 0.115805803 -0.207299416 0.0839999233
v 0.115805803 -0.207299416 0.0952499126
v 0.114599882 -0.206799929 0.0839999233
v 0.114599882 -0.206799929 0.0952499126
v 0.108122645 -0.200692312 0.0839999233
v 0.108122645 -0.200692312 0.0952499126
v 0.119390062 -0.206886833 0.0839999233
v 0.119390062 -0.206886833 0.0952499126
f 12 13 11
f 12 14 13
f 4 3 13
f 13 14 4
f 1 12 11
f 11 2 1
f 13 3 7
f 11 13 7
f 7 2 11
f 7 3 5
f 9 2 7
f 5 3 6
f 3 4 6
f 6 7 5
f 8 7 6
f 14 12 10
f 12 1 10
f 10 6 4
f 8 6 10
f 10 4 14
f 9 7 10
f 10 7 8
f 10 2 9
f 10 1 2
