v 0.206449016 -0.119674561 0.0614999447
v 0.203215538 -0.123030846 0.0502499555
v 0.203215538 -0.123030846 0.0614999447
v 0.203215538 -0.130101924 0.0502499555
v 0.202517448 -0.12922651 0.0614999447
v 0.202517448 -0.12922651 0.0502499555
v 0.20203167 -0.128217761 0.0614999447
v 0.20203167 -0.128217761 0.0502499555
v 0.201782523 -0.127126162 0.0614999447
v 0.201782523 -0.127126162 0.0502499555
v 0.201782523 -0.126006548 0.0614999447
v 0.201782523 -0.126006548 0.0502499555
v 0.20203167 -0.124914949 0.0614999447
v 0.20203167 -0.124914949 0.0502499555
v 0.202517448 -0.1239062 0.0614999447
v 0.202517448 -0.1239062 0.0502499555
v 0.203215538 -0.130101924 0.0614999447
v 0.204773086 -0.131659468 0.0502499555
v 0.204773086 -0.131659468 0.0614999447
v 0.206449016 -0.119674561 0.0502499555
f 1 19 18
f 18 20 1
f 7 10 8
f 9 10 7
f 2 1 20
f 3 1 2
f 16 13 15
f 14 13 16
f 3 2 16
f 16 15 3
f 14 12 11
f 11 13 14
f 11 10 9
f 11 12 10
f 4 20 18
f 4 12 14
f 14 16 4
f 8 10 4
f 4 2 20
f 10 12 4
f 4 16 2
f 4 6 8
f 8 6 5
f 5 7 8
f 19 1 17
f 17 1 3
f 17 11 9
f 9 7 17
f 13 11 17
f 3 15 17
f 15 13 17
f 7 5 17
f 18 19 17
f 17 4 18
f 6 4 17
f 17 5 6
