v -0.120087893 0.206425441 0.0614999447
v -0.123463811 0.203176911 0.0614999447
v -0.123463811 0.203176911 0.0502499555
v -0.124499382 0.202382262 0.0614999447
v -0.124499382 0.202382262 0.0502499555
v -0.125705303 0.201882775 0.0614999447
v -0.125705303 0.201882775 0.0502499555
v -0.12699932 0.201712425 0.0614999447
v -0.12699932 0.201712425 0.0502499555
v -0.128293456 0.201882775 0.0614999447
v -0.128293456 0.201882775 0.0502499555
v -0.129499377 0.202382262 0.0614999447
v -0.129499377 0.202382262 0.0502499555
v -0.130534948 0.203176911 0.0614999447
v -0.130534948 0.203176911 0.0502499555
v -0.132068874 0.204710836 0.0614999447
v -0.132068874 0.204710836 0.0502499555
v -0.120087893 0.206425441 0.0502499555
f 16 1 18
f 18 17 16
f 16 17 14
f 17 15 14
f 14 15 13
f 13 12 14
f 6 1 16
f 16 14 6
f 6 2 1
f 6 10 8
f 12 10 6
f 6 14 12
f 4 2 6
f 6 7 5
f 6 5 4
f 3 2 4
f 4 5 3
f 3 18 1
f 1 2 3
f 9 6 8
f 7 6 9
f 13 15 11
f 17 18 11
f 11 15 17
f 7 9 11
f 5 7 11
f 11 3 5
f 18 3 11
f 11 10 12
f 11 12 13
f 8 10 11
f 11 9 8
