v 0.028693138 -0.206551199 0.059069923
v 0.0290549382 -0.206701105 0.0550698553
v 0.0293654784 -0.206939464 0.059069923
v 0.029603897 -0.207250123 0.059069923
v 0.0293654784 -0.206939464 0.0550698553
v 0.029603897 -0.207250123 0.0550698553
v 0.0297537431 -0.207611804 0.059069923
v 0.0297537431 -0.207611804 0.0550698553
v 0.0298050031 -0.208000009 0.059069923
v 0.0298050031 -0.208000009 0.0550698553
v 0.0290549382 -0.206701105 0.059069923
v 0.028693138 -0.206551199 0.0550698553
v 0.0298050031 -0.217500006 0.059069923
v 0.0298050031 -0.217500006 0.0550698553
v 0.0178049191 -0.202347507 0.059069923
v 0.0156881198 -0.202347507 0.059069923
v 0.0148049578 -0.203104918 0.059069923
v 0.0148049578 -0.217500006 0.059069923
v 0.0148049578 -0.217500006 0.0550698553
v 0.0178049191 -0.202347507 0.0550698553
v 0.0148049578 -0.202347507 0.0550698553
v 0.0148049578 -0.202347507 0.0570699487
f 22 17 16
f 9 13 14
f 14 10 9
f 14 13 18
f 18 19 14
f 22 21 19
f 22 19 18
f 18 17 22
f 15 22 16
f 20 21 15
f 21 22 15
f 20 15 12
f 12 15 1
f 9 10 7
f 10 8 7
f 7 8 6
f 6 4 7
f 5 21 20
f 10 14 5
f 6 8 5
f 5 8 10
f 5 14 19
f 19 21 5
f 20 12 5
f 5 12 2
f 5 4 6
f 5 3 4
f 18 13 11
f 11 13 9
f 11 17 18
f 16 17 11
f 11 15 16
f 1 15 11
f 9 7 11
f 11 7 4
f 4 3 11
f 2 12 11
f 11 12 1
f 11 5 2
f 3 5 11
