v -0.123030843 -0.203215544 0.117749891
v -0.130101861 -0.203215544 0.106499902
v -0.129066409 -0.202420955 0.117749891
v -0.129066409 -0.202420955 0.106499902
v -0.127860488 -0.201921468 0.117749891
v -0.127860488 -0.201921468 0.106499902
v -0.126566352 -0.201751118 0.117749891
v -0.126566352 -0.201751118 0.106499902
v -0.125272216 -0.201921468 0.117749891
v -0.125272216 -0.201921468 0.106499902
v -0.124066414 -0.202420955 0.117749891
v -0.124066414 -0.202420955 0.106499902
v -0.123030843 -0.203215544 0.106499902
v -0.130101861 -0.203215544 0.117749891
v -0.13022456 -0.203338243 0.106499902
v -0.13022456 -0.203338243 0.117749891
v -0.11895712 -0.206925507 0.117749891
v -0.11895712 -0.206925507 0.106499902
f 10 8 9
f 9 8 7
f 15 18 17
f 17 16 15
f 12 18 15
f 15 2 12
f 12 8 10
f 6 8 12
f 12 4 6
f 12 13 18
f 12 2 4
f 10 9 12
f 12 9 11
f 13 12 1
f 1 12 11
f 1 17 18
f 18 13 1
f 5 8 6
f 7 8 5
f 6 4 5
f 4 3 5
f 14 9 7
f 16 17 14
f 11 9 14
f 14 1 11
f 7 5 14
f 17 1 14
f 14 5 3
f 15 16 14
f 14 2 15
f 4 2 14
f 14 3 4
