v -0.203215541 0.123030837 0.12899988
v -0.201751055 0.126566346 0.12899988
v -0.202421011 0.124066408 0.12899988
v -0.202421011 0.129066403 0.12899988
v -0.201921524 0.127860482 0.12899988
v -0.203215541 0.130101855 0.12899988
v -0.203338245 0.130224559 0.12899988
v -0.206925444 0.118957117 0.12899988
v -0.213302076 0.130224559 0.12899988
v -0.213302076 0.118957117 0.12899988
v -0.203215541 0.130101855 0.117749891
v -0.202421011 0.129066403 0.117749891
v -0.201921524 0.127860482 0.117749891
v -0.201921524 0.125272329 0.12899988
v -0.201751055 0.126566346 0.117749891
v -0.201921524 0.125272329 0.117749891
v -0.202421011 0.124066408 0.117749891
v -0.203215541 0.123030837 0.117749891
v -0.203338245 0.130224559 0.117749891
v -0.206925444 0.118957117 0.117749891
f 8 10 20
f 9 7 19
f 19 20 9
f 7 6 11
f 19 7 11
f 9 20 10
f 18 1 8
f 8 20 18
f 5 9 10
f 8 1 5
f 5 10 8
f 5 6 7
f 7 9 5
f 5 14 2
f 5 1 3
f 3 14 5
f 4 6 5
f 13 12 5
f 5 12 4
f 2 14 15
f 15 14 16
f 15 5 2
f 13 5 15
f 17 14 3
f 16 14 17
f 3 1 17
f 1 18 17
f 11 20 19
f 11 18 20
f 16 17 11
f 11 15 16
f 11 12 13
f 13 15 11
f 11 17 18
f 11 6 4
f 4 12 11
