v -0.0189999953 -0.190199976 0.0914998565
v -0.0189999953 -0.187200015 0.0804999385
v -0.0189999953 -0.187200015 0.0914998565
v -0.0197500304 -0.190199976 0.0839999233
v -0.0197500304 -0.190199976 0.0864998613
v -0.0197500304 -0.191066031 0.0824999128
v -0.0189999953 -0.200270002 0.0804999385
v -0.0197500304 -0.200270002 0.0824999128
v -0.0197500304 -0.200270002 0.0864998613
v -0.00987501597 -0.187200015 0.0804999385
v -0.00987501597 -0.187200015 0.0914998565
v -0.00987501597 -0.190199976 0.0914998565
v -0.00987501597 -0.200270002 0.0864998613
v -0.00987501597 -0.200270002 0.0804999385
f 2 6 4
f 7 2 14
f 14 2 10
f 12 9 13
f 1 9 12
f 3 5 9
f 3 9 1
f 5 3 4
f 4 3 2
f 7 14 8
f 8 14 13
f 13 9 8
f 8 4 6
f 5 4 8
f 9 5 8
f 8 2 7
f 8 6 2
f 11 14 10
f 13 14 11
f 11 12 13
f 1 12 11
f 11 3 1
f 10 2 11
f 2 3 11
