v -0.0664178254 -0.212645527 0.106499902
v -0.059750022 -0.204855685 0.106499902
v -0.059750022 -0.204855685 0.0952499126
v -0.0599094049 -0.203603034 0.0952499126
v -0.0599094049 -0.203603034 0.106499902
v -0.060377659 -0.202430313 0.0952499126
v -0.060377659 -0.202430313 0.106499902
v -0.0611246244 -0.201412265 0.106499902
v -0.0611246244 -0.201412265 0.0952499126
v -0.0621028558 -0.200613861 0.0952499126
v -0.0621028558 -0.200613861 0.106499902
v -0.0632500068 -0.200085943 0.0952499126
v -0.0662500278 -0.19985569 0.106499902
v -0.0680000201 -0.211732035 0.0952499126
v -0.0680000201 -0.211732035 0.106499902
v -0.0632500068 -0.200085943 0.106499902
v -0.0662500278 -0.19985569 0.0952499126
v -0.059750022 -0.212645527 0.106499902
v -0.059750022 -0.212645527 0.0952499126
v -0.0664178254 -0.212645527 0.0952499126
v -0.0717349366 -0.19985569 0.0952499126
v -0.0717349366 -0.19985569 0.106499902
f 21 14 15
f 15 22 21
f 1 20 19
f 19 18 1
f 8 7 9
f 9 7 6
f 11 9 10
f 8 9 11
f 16 11 12
f 12 11 10
f 22 15 13
f 18 2 13
f 13 2 5
f 8 11 13
f 15 1 13
f 13 1 18
f 13 7 8
f 5 7 13
f 13 11 16
f 14 20 1
f 1 15 14
f 3 18 19
f 3 2 18
f 5 2 4
f 2 3 4
f 4 7 5
f 6 7 4
f 17 14 21
f 17 3 19
f 17 4 3
f 17 20 14
f 19 20 17
f 10 9 17
f 17 9 6
f 6 4 17
f 17 12 10
f 21 22 17
f 22 13 17
f 16 12 17
f 17 13 16
