v -0.0395000592 -0.242999976 0.0794998918
v -0.0395000592 -0.230999317 0.0794998918
v -0.0301000491 -0.230999317 0.0734999691
v -0.0395000592 -0.230999317 0.0734999691
v -0.0395000592 -0.242999976 0.0692849074
v -0.0395000592 -0.240599995 0.0692849074
v -0.0296250448 -0.242999976 0.0794998918
v -0.0296250448 -0.230999317 0.0794998918
v -0.0296250448 -0.230999317 0.0759999071
v -0.0296250448 -0.242999976 0.0692849074
v -0.0296250448 -0.240599995 0.0692849074
f 3 9 11
f 5 7 1
f 5 10 7
f 7 8 2
f 1 7 2
f 2 9 3
f 3 4 2
f 8 9 2
f 2 5 1
f 2 4 6
f 6 5 2
f 11 8 7
f 7 10 11
f 11 9 8
f 10 5 11
f 11 5 6
f 11 4 3
f 6 4 11
