v -0.0817499772 -0.256105681 0.0389999662
v -0.0817499772 -0.257803922 0.0389999662
v -0.0819175855 -0.259087388 0.0389999662
v -0.0824089662 -0.260284846 0.0389999662
v -0.0831912175 -0.261316006 0.0389999662
v -0.0947198287 -0.256105681 0.0389999662
v -0.0831912175 -0.261316006 0.0502499555
v -0.0824089662 -0.260284846 0.0502499555
v -0.0819175855 -0.259087388 0.0502499555
v -0.0817499772 -0.257803922 0.0502499555
v -0.0817499772 -0.256105681 0.0502499555
v -0.0863845429 -0.264551788 0.0389999662
v -0.0947198287 -0.264551788 0.0389999662
v -0.0863845429 -0.264551788 0.0502499555
f 6 11 1
f 14 13 12
f 14 6 13
f 11 6 14
f 12 5 7
f 7 14 12
f 13 6 2
f 2 5 12
f 12 13 2
f 2 6 1
f 4 5 2
f 2 3 4
f 8 5 4
f 8 7 5
f 4 3 9
f 9 8 4
f 11 14 10
f 14 7 10
f 7 8 10
f 8 9 10
f 3 2 10
f 10 9 3
f 10 2 1
f 1 11 10
