v 0.0984074458 0.199855621 0.0614999447
v 0.0984074458 0.199855621 0.0502499555
v 0.104871927 0.199855621 0.0502499555
v 0.104871927 0.199855621 0.0614999447
v 0.105847417 0.199951704 0.0502499555
v 0.105847417 0.199951704 0.0614999447
v 0.106785355 0.200236256 0.0502499555
v 0.106785355 0.200236256 0.0614999447
v 0.107649742 0.200698311 0.0502499555
v 0.107649742 0.200698311 0.0614999447
v 0.107689677 0.200731084 0.0502499555
v 0.107689677 0.200731084 0.0614999447
v 0.105530439 0.209230627 0.0614999447
v 0.105530439 0.209230627 0.0502499555
v 0.0984074458 0.209230627 0.0614999447
v 0.0984074458 0.209230627 0.0502499555
f 2 15 16
f 1 15 2
f 16 15 14
f 15 13 14
f 14 13 12
f 14 12 11
f 3 4 1
f 1 2 3
f 6 4 3
f 3 5 6
f 10 13 15
f 12 13 10
f 10 15 1
f 1 4 10
f 10 4 6
f 6 8 10
f 7 8 6
f 6 5 7
f 9 2 16
f 16 14 9
f 9 3 2
f 9 14 11
f 5 3 9
f 9 7 5
f 11 12 9
f 12 10 9
f 9 10 8
f 8 7 9
