v 0.131659506 0.236765291 0.108512655
v 0.127677104 0.238444009 0.105624873
v 0.131659506 0.237699525 0.10690547
v 0.129811426 0.23844396 0.105624873
v 0.131659506 0.238443953 0.105624873
v 0.131659506 0.234309389 0.112737378
v 0.122876287 0.23844401 0.105624873
v 0.119674592 0.23844401 0.105624873
v 0.131659506 0.232158533 0.116437348
v 0.119674592 0.232158533 0.116437348
f 5 2 1
f 4 10 8
f 5 10 4
f 3 9 10
f 3 10 5
f 6 1 7
f 7 1 2
f 9 7 8
f 8 10 9
f 6 7 9
f 8 7 4
f 4 7 2
f 4 2 5
f 5 1 3
f 3 1 6
f 6 9 3
