v -0.221192547 -0.144049858 0.0389999662
v -0.229433371 -0.144049858 0.0389999662
v -0.221192547 -0.148550566 0.0502499555
v -0.229433371 -0.151618551 0.0389999662
v -0.221192547 -0.148550566 0.0389999662
v -0.229433371 -0.151618551 0.0462143512
v -0.227188575 -0.153863348 0.0502499555
v -0.226846944 -0.154204978 0.0502499555
v -0.227446085 -0.153605837 0.0389999662
v -0.226846944 -0.154204978 0.0389999662
f 3 1 2
f 8 3 7
f 1 3 5
f 2 4 6
f 6 3 2
f 6 7 3
f 5 3 8
f 8 10 5
f 1 5 9
f 2 1 9
f 9 5 10
f 9 4 2
f 9 10 8
f 8 7 9
f 9 6 4
f 7 6 9
