v -0.203338245 0.130224559 0.0839999233
v -0.203215541 0.123030837 0.0839999233
v -0.203215541 0.130101855 0.0839999233
v -0.202421011 0.129066403 0.0952499126
v -0.202421011 0.129066403 0.0839999233
v -0.201921524 0.127860482 0.0952499126
v -0.201921524 0.127860482 0.0839999233
v -0.201878907 0.127536948 0.0952499126
v -0.201751055 0.126566346 0.0952499126
v -0.20183629 0.127213414 0.0839999233
v -0.201751055 0.126566346 0.0839999233
v -0.201878907 0.125595833 0.0952499126
v -0.20183629 0.125919337 0.0839999233
v -0.201921524 0.125272329 0.0952499126
v -0.201921524 0.125272329 0.0839999233
v -0.202108832 0.124820108 0.0952499126
v -0.202421011 0.124066408 0.0952499126
v -0.202421011 0.124066408 0.0839999233
v -0.203215541 0.123030837 0.0952499126
v -0.203215541 0.130101855 0.0952499126
v -0.203338245 0.130224559 0.0952499126
v -0.206925444 0.118957117 0.0839999233
v -0.206925444 0.118957117 0.0952499126
f 15 14 16
f 16 18 15
f 17 18 16
f 23 1 22
f 21 1 23
f 10 8 9
f 9 11 10
f 7 6 10
f 6 8 10
f 5 4 6
f 5 6 7
f 9 12 13
f 13 11 9
f 13 14 15
f 13 12 14
f 19 23 22
f 22 2 19
f 3 5 7
f 15 18 3
f 22 1 3
f 3 2 22
f 7 10 3
f 18 2 3
f 3 10 11
f 3 13 15
f 11 13 3
f 19 2 18
f 19 18 17
f 21 23 20
f 6 4 20
f 20 19 17
f 9 8 20
f 20 12 9
f 20 8 6
f 17 16 20
f 14 12 20
f 20 16 14
f 23 19 20
f 20 1 21
f 20 3 1
f 4 5 20
f 5 3 20
