v 0.105304895 -0.199817007 0.0839999233
v 0.0961377307 -0.199817007 0.0839999233
v 0.0961377307 -0.199817007 0.0789999281
v 0.0988405331 -0.199817007 0.072749934
v 0.105304895 -0.199817007 0.072749934
v 0.108082829 -0.200659637 0.0839999233
v 0.107218324 -0.200197582 0.0839999233
v 0.107218324 -0.200197582 0.072749934
v 0.106280385 -0.199913089 0.072749934
v 0.106280385 -0.199913089 0.0839999233
v 0.108082829 -0.200659637 0.072749934
v 0.108122645 -0.200692312 0.0839999233
v 0.108122645 -0.200692312 0.072749934
v 0.0961377307 -0.209192005 0.0789999281
v 0.0994635209 -0.209192005 0.0839999233
v 0.105963527 -0.209192005 0.072749934
v 0.105963527 -0.209192005 0.0839999233
v 0.0988405331 -0.209192005 0.072749934
f 15 2 14
f 16 13 17
f 17 13 12
f 14 2 3
f 5 2 1
f 3 2 5
f 4 3 5
f 18 17 15
f 15 14 18
f 16 17 18
f 18 3 4
f 18 14 3
f 10 17 12
f 1 2 10
f 15 17 10
f 10 2 15
f 12 6 10
f 10 6 7
f 10 5 1
f 10 9 5
f 8 10 7
f 9 10 8
f 11 13 16
f 4 5 11
f 16 18 11
f 11 18 4
f 5 9 11
f 9 8 11
f 12 13 11
f 11 6 12
f 7 6 11
f 11 8 7
