v -0.212645479 0.0664179495 0.106499902
v -0.199855627 0.0717349303 0.106499902
v -0.204855622 0.0597500158 0.106499902
v -0.204855622 0.0597500158 0.117749891
v -0.20360309 0.0599094582 0.106499902
v -0.20360309 0.0599094582 0.117749891
v -0.202430309 0.0603775931 0.106499902
v -0.202430309 0.0603775931 0.117749891
v -0.201412262 0.0611246777 0.106499902
v -0.201412262 0.0611246777 0.117749891
v -0.200613798 0.0621029091 0.106499902
v -0.200613798 0.0621029091 0.117749891
v -0.20008594 0.0632500005 0.106499902
v -0.20008594 0.0632500005 0.117749891
v -0.199855627 0.0662500215 0.117749891
v -0.199855627 0.0662500215 0.106499902
v -0.211732091 0.0680000139 0.106499902
v -0.211732091 0.0680000139 0.117749891
v -0.212645479 0.0597500158 0.117749891
v -0.212645479 0.0597500158 0.106499902
v -0.212645479 0.0664179495 0.117749891
v -0.199855627 0.0717349303 0.117749891
f 21 17 1
f 21 18 17
f 17 18 22
f 22 2 17
f 20 21 1
f 19 21 20
f 11 13 14
f 14 12 11
f 3 4 19
f 19 20 3
f 6 4 3
f 5 6 3
f 5 7 8
f 8 6 5
f 2 22 15
f 15 16 2
f 15 14 13
f 13 16 15
f 1 17 9
f 17 2 9
f 9 3 20
f 9 20 1
f 9 13 11
f 2 16 9
f 5 3 9
f 9 7 5
f 9 16 13
f 12 14 10
f 19 4 10
f 18 21 10
f 10 21 19
f 10 22 18
f 10 4 6
f 10 15 22
f 6 8 10
f 14 15 10
f 11 12 10
f 10 9 11
f 10 8 7
f 7 9 10
