v -0.119674595 -0.206449025 0.0614999447
v -0.113131346 -0.206044023 0.0502499555
v -0.113131346 -0.206044023 0.0614999447
v -0.114166917 -0.206838613 0.0502499555
v -0.114166917 -0.206838613 0.0614999447
v -0.115372719 -0.207338099 0.0502499555
v -0.115372719 -0.207338099 0.0614999447
v -0.116666855 -0.20750845 0.0502499555
v -0.116666855 -0.20750845 0.0614999447
v -0.117960991 -0.207338099 0.0502499555
v -0.117960991 -0.207338099 0.0614999447
v -0.119166912 -0.206838613 0.0502499555
v -0.119166912 -0.206838613 0.0614999447
v -0.10768968 -0.200731093 0.0614999447
v -0.10768968 -0.200731093 0.0502499555
v -0.119674595 -0.206449025 0.0502499555
f 14 15 16
f 16 1 14
f 3 15 14
f 3 2 15
f 4 2 3
f 3 5 4
f 1 16 13
f 16 12 13
f 13 12 10
f 13 10 11
f 6 16 15
f 6 12 16
f 8 10 6
f 15 2 6
f 6 2 4
f 10 12 6
f 4 5 6
f 5 7 6
f 14 1 9
f 1 13 9
f 9 13 11
f 9 3 14
f 5 3 9
f 9 7 5
f 9 10 8
f 11 10 9
f 8 6 9
f 9 6 7
