v -0.0275000051 -0.205500011 0.167999915
v -0.0275000051 -0.206239467 0.171999863
v -0.0412500069 -0.205500011 0.171999863
v -0.0275000051 -0.205500011 0.171999863
v -0.0412500069 -0.206239467 0.168999961
v -0.0412500069 -0.205500011 0.168999961
v -0.0412500069 -0.206239467 0.171999863
v -0.0275000051 -0.200739448 0.163239351
v -0.0395000592 -0.200739448 0.163239351
v -0.0395000592 -0.206239467 0.163239351
f 10 1 2
f 9 6 3
f 8 1 10
f 2 4 3
f 3 7 2
f 5 7 3
f 3 6 5
f 5 2 7
f 10 2 5
f 9 5 6
f 10 5 9
f 3 4 8
f 8 9 3
f 10 9 8
f 8 2 1
f 4 2 8
