v -0.225435331 0.0817499709 0.128002619
v -0.224855603 0.0817499709 0.12899988
v -0.224855603 0.0837198448 0.12899988
v -0.225435331 0.0837198448 0.128002619
v -0.212645479 0.0837198448 0.12899988
v -0.219855608 0.0717349303 0.12899988
v -0.212645479 0.0717349303 0.12899988
v -0.224855603 0.0817499709 0.117749891
v -0.223561586 0.0815796209 0.117749891
v -0.222355665 0.0810801339 0.117749891
v -0.221320094 0.0802854848 0.117749891
v -0.220525564 0.0792500329 0.117749891
v -0.220026077 0.0780441118 0.117749891
v -0.219855608 0.0767499757 0.117749891
v -0.225435331 0.0817499709 0.117749891
v -0.219855608 0.0717349303 0.117749891
f 8 15 4
f 3 5 4
f 4 5 8
f 6 2 1
f 8 5 9
f 5 10 9
f 11 5 12
f 11 10 5
f 5 14 13
f 12 5 13
f 7 6 16
f 7 5 2
f 2 5 3
f 2 6 7
f 14 5 7
f 7 16 14
f 1 16 6
f 15 16 1
f 1 4 15
f 1 2 3
f 3 4 1
f 13 16 15
f 13 11 12
f 13 15 8
f 13 14 16
f 8 9 13
f 13 9 10
f 10 11 13
