v 0.060419856 0.217355664 0.0789999281
v 0.059750019 0.214855607 0.0789999281
v 0.059920369 0.216149743 0.0789999281
v 0.0612145051 0.218391235 0.0789999281
v 0.0612145051 0.218391235 0.0839999233
v 0.060419856 0.217355664 0.0839999233
v 0.059920369 0.216149743 0.0839999233
v 0.059750019 0.214855607 0.0839999233
v 0.0680000171 0.211732085 0.0839999233
v 0.061493914 0.218605633 0.0789999281
v 0.061493914 0.218605633 0.0839999233
v 0.0717349335 0.218605633 0.0789999281
v 0.059750019 0.209230627 0.0789999281
v 0.059750019 0.209230627 0.0839999233
v 0.0680000171 0.209230627 0.0839999233
v 0.0717349335 0.209230627 0.0789999281
f 11 12 10
f 9 12 11
f 15 16 12
f 12 9 15
f 13 16 15
f 15 14 13
f 2 13 8
f 8 13 14
f 3 12 16
f 10 12 3
f 3 4 10
f 3 13 2
f 16 13 3
f 1 4 3
f 3 8 7
f 2 8 3
f 1 3 6
f 6 3 7
f 10 4 5
f 5 11 10
f 5 14 15
f 15 9 5
f 5 8 14
f 9 11 5
f 7 8 5
f 5 6 7
f 5 4 1
f 1 6 5
