v -0.199855627 0.0717349303 0.0839999233
v -0.204855622 0.0597500158 0.0839999233
v -0.204855622 0.0597500158 0.0952499126
v -0.20360309 0.0599094582 0.0952499126
v -0.20360309 0.0599094582 0.0839999233
v -0.202430309 0.0603775931 0.0839999233
v -0.202430309 0.0603775931 0.0952499126
v -0.201412262 0.0611246777 0.0839999233
v -0.201412262 0.0611246777 0.0952499126
v -0.200613798 0.0621029091 0.0839999233
v -0.200613798 0.0621029091 0.0952499126
v -0.20008594 0.0632500005 0.0839999233
v -0.20008594 0.0632500005 0.0952499126
v -0.199855627 0.0662500215 0.0952499126
v -0.211732091 0.0680000139 0.0839999233
v -0.211732091 0.0680000139 0.0952499126
v -0.199855627 0.0662500215 0.0839999233
v -0.212645479 0.0597500158 0.0952499126
v -0.212645479 0.0597500158 0.0839999233
v -0.212645479 0.0664179495 0.0952499126
v -0.212645479 0.0664179495 0.0839999233
v -0.199855627 0.0717349303 0.0952499126
f 16 1 15
f 22 1 16
f 12 13 11
f 11 10 12
f 21 16 15
f 21 20 16
f 21 19 18
f 18 20 21
f 2 3 18
f 18 19 2
f 9 14 22
f 18 3 9
f 9 20 18
f 22 16 9
f 9 3 4
f 11 13 9
f 16 20 9
f 4 7 9
f 13 14 9
f 17 1 22
f 22 14 17
f 17 14 13
f 13 12 17
f 4 3 5
f 3 2 5
f 5 7 4
f 5 6 7
f 15 1 8
f 8 2 19
f 1 17 8
f 8 17 12
f 8 21 15
f 8 12 10
f 19 21 8
f 8 5 2
f 6 5 8
f 8 10 11
f 11 9 8
f 8 9 7
f 7 6 8
