v 0.140276142 -0.242897098 0.0978979874
v 0.137717377 -0.238405312 0.1056249
v 0.132092474 -0.238405323 0.1056249
v 0.139624832 -0.243548407 0.0967775878
v 0.141297929 -0.238618562 0.105258017
v 0.132092474 -0.241600111 0.100129088
v 0.141297929 -0.24187531 0.0996556823
v 0.141297929 -0.238405311 0.105624866
v 0.140057122 -0.238405311 0.105624884
v 0.14083376 -0.24233948 0.0988572125
v 0.132635628 -0.238405321 0.1056249
v 0.137991715 -0.238405311 0.1056249
v 0.140327444 -0.242845795 0.0979862395
v 0.132092474 -0.244690798 0.0948124119
v 0.138482443 -0.244690796 0.0948124119
f 3 5 6
f 6 14 3
f 11 5 3
f 5 11 8
f 8 9 10
f 9 8 12
f 12 8 11
f 7 8 10
f 15 4 3
f 3 14 15
f 1 2 3
f 3 4 1
f 7 15 14
f 14 6 7
f 7 6 5
f 3 2 12
f 12 11 3
f 7 7 5
f 5 8 7
f 7 10 15
f 15 7 7
f 4 15 13
f 15 10 13
f 13 1 4
f 2 1 13
f 13 12 2
f 10 9 13
f 9 12 13
