v -0.0647500173 -0.219855671 0.106499902
v -0.0647500173 -0.219855671 0.117749891
v -0.0634558812 -0.219685321 0.106499902
v -0.0634558812 -0.219685321 0.117749891
v -0.0622499601 -0.219185774 0.106499902
v -0.0622499601 -0.219185774 0.117749891
v -0.0612145082 -0.218391185 0.106499902
v -0.0612145082 -0.218391185 0.117749891
v -0.060419859 -0.217355673 0.106499902
v -0.060419859 -0.217355673 0.117749891
v -0.0599203721 -0.216149752 0.106499902
v -0.0599203721 -0.216149752 0.117749891
v -0.059750022 -0.214855676 0.106499902
v -0.059750022 -0.214855676 0.117749891
v -0.059750022 -0.212645527 0.106499902
v -0.059750022 -0.212645527 0.117749891
v -0.0664178254 -0.212645527 0.106499902
v -0.0664178254 -0.212645527 0.117749891
v -0.0717349366 -0.219855671 0.117749891
v -0.0717349366 -0.219855671 0.106499902
f 16 15 18
f 18 15 17
f 18 17 20
f 18 20 19
f 19 20 2
f 20 1 2
f 6 3 5
f 4 3 6
f 13 15 14
f 14 15 16
f 11 14 12
f 13 14 11
f 11 12 10
f 10 9 11
f 1 3 2
f 2 3 4
f 7 15 13
f 7 1 20
f 20 17 7
f 17 15 7
f 5 3 7
f 13 11 7
f 7 3 1
f 7 11 9
f 16 18 8
f 19 2 8
f 8 18 19
f 8 2 4
f 8 14 16
f 10 12 8
f 4 6 8
f 12 14 8
f 8 9 10
f 8 7 9
f 8 6 5
f 5 7 8
