v -0.059750022 -0.214855676 0.0789999281
v -0.0599203721 -0.216149752 0.0789999281
v -0.060419859 -0.217355673 0.0789999281
v -0.0612145082 -0.218391185 0.0789999281
v -0.0612145082 -0.218391185 0.0839999233
v -0.060419859 -0.217355673 0.0839999233
v -0.0599203721 -0.216149752 0.0839999233
v -0.059750022 -0.214855676 0.0839999233
v -0.0680000201 -0.211732035 0.0839999233
v -0.061494032 -0.218605687 0.0789999281
v -0.061494032 -0.218605687 0.0839999233
v -0.0717349366 -0.218605687 0.0789999281
v -0.059750022 -0.209230688 0.0789999281
v -0.059750022 -0.209230688 0.0839999233
v -0.0680000201 -0.209230688 0.0839999233
v -0.0717349366 -0.209230688 0.0789999281
f 11 12 10
f 9 12 11
f 15 16 12
f 12 9 15
f 14 16 15
f 13 16 14
f 1 13 14
f 14 8 1
f 2 16 13
f 2 13 1
f 10 12 2
f 2 12 16
f 2 4 10
f 3 4 2
f 8 7 2
f 1 8 2
f 3 2 6
f 6 2 7
f 10 4 5
f 5 11 10
f 15 9 5
f 5 14 15
f 9 11 5
f 5 7 8
f 8 14 5
f 5 6 7
f 5 4 3
f 3 6 5
