v 0.0951528534 -0.264056034 0.0614999447
v 0.0951528534 -0.263889583 0.0617862628
v 0.095593028 -0.264056024 0.0614999447
v 0.0971071494 -0.264056037 0.0614999447
v 0.098976831 -0.264056031 0.0614999447
v 0.0951528534 -0.262904366 0.0634810761
v 0.0951528534 -0.263392889 0.0626407122
v 0.103407194 -0.264055992 0.0614999447
v 0.0951528534 -0.261609436 0.0657085748
v 0.108122645 -0.26405599 0.0614999447
v 0.108122645 -0.257516153 0.072749934
v 0.0951528534 -0.257516157 0.072749934
f 10 11 5
f 8 11 10
f 9 8 3
f 2 3 1
f 9 3 2
f 4 7 1
f 4 5 11
f 11 7 4
f 11 12 6
f 6 7 11
f 9 12 8
f 8 12 11
f 10 5 4
f 1 3 4
f 4 8 10
f 4 3 8
f 6 12 9
f 6 2 1
f 1 7 6
f 9 2 6
