v -0.227173944 -0.145720087 0.0389999662
v -0.23514496 -0.145720087 0.0389999662
v -0.23514496 -0.148028283 0.0389999662
v -0.227738482 -0.155434761 0.0389999662
v -0.227173944 -0.155434761 0.0389999662
v -0.227173944 -0.155434761 0.033999971
v -0.227738482 -0.155434761 0.033999971
v -0.227173944 -0.145720087 0.033999971
v -0.23514496 -0.145720087 0.033999971
v -0.23514496 -0.148028283 0.033999971
f 2 3 5
f 5 1 2
f 5 3 4
f 6 8 5
f 5 8 1
f 7 5 4
f 6 5 7
f 2 1 9
f 1 8 9
f 10 8 6
f 6 7 10
f 10 9 8
f 4 3 10
f 10 7 4
f 10 3 2
f 2 9 10
