v 0.107689677 0.23844401 0.105624873
v 0.119674592 0.23844401 0.105624873
v 0.119674592 0.244582939 0.0950645215
v 0.119254169 0.244729502 0.094812398
v 0.119674592 0.243251224 0.0973552772
v 0.115822293 0.244729448 0.094812398
v 0.119674592 0.244729484 0.094812398
v 0.119674592 0.242527233 0.0986007172
v 0.11420752 0.244729454 0.094812398
v 0.107689677 0.244729487 0.094812398
f 6 5 1
f 1 9 6
f 10 9 1
f 1 4 10
f 1 5 8
f 8 2 1
f 3 4 1
f 1 2 3
f 4 3 7
f 5 6 7
f 9 10 7
f 7 6 9
f 7 10 4
f 7 8 5
f 2 8 7
f 7 3 2
