v -0.0599094049 -0.203603034 0.0789999281
v -0.059750022 -0.204855685 0.0789999281
v -0.0621028558 -0.200613861 0.0789999281
v -0.0611246244 -0.201412265 0.0789999281
v -0.060377659 -0.202430313 0.0789999281
v -0.059750022 -0.204855685 0.0839999233
v -0.0599094049 -0.203603034 0.0839999233
v -0.060377659 -0.202430313 0.0839999233
v -0.0611246244 -0.201412265 0.0839999233
v -0.0621028558 -0.200613861 0.0839999233
v -0.0632500068 -0.200085943 0.0789999281
v -0.0632500068 -0.200085943 0.0839999233
v -0.0662500278 -0.19985569 0.0789999281
v -0.0662500278 -0.19985569 0.0839999233
v -0.0717349366 -0.19985569 0.0789999281
v -0.0717349366 -0.19985569 0.0839999233
v -0.059750022 -0.209230688 0.0789999281
v -0.059750022 -0.209230688 0.0839999233
v -0.0680000201 -0.209230688 0.0839999233
v -0.0717349366 -0.209230688 0.0789999281
f 20 19 16
f 13 15 14
f 14 15 16
f 14 11 13
f 12 11 14
f 16 15 20
f 18 20 17
f 19 20 18
f 6 17 2
f 6 18 17
f 7 6 1
f 1 6 2
f 8 7 1
f 1 5 8
f 18 6 10
f 16 19 10
f 8 9 10
f 10 14 16
f 10 7 8
f 12 14 10
f 10 6 7
f 19 18 10
f 3 11 10
f 10 11 12
f 13 11 4
f 4 20 15
f 2 17 4
f 17 20 4
f 4 15 13
f 4 1 2
f 4 11 3
f 5 1 4
f 4 10 9
f 3 10 4
f 4 9 8
f 8 5 4
