v 0.0717349335 0.199855621 0.0839999233
v 0.059750019 0.204855616 0.0839999233
v 0.059750019 0.204855616 0.0952499126
v 0.0599094018 0.203603084 0.0839999233
v 0.0599094018 0.203603084 0.0952499126
v 0.0603776559 0.202430303 0.0839999233
v 0.0603776559 0.202430303 0.0952499126
v 0.0611246213 0.201412256 0.0839999233
v 0.0611246213 0.201412256 0.0952499126
v 0.0621029719 0.200613911 0.0839999233
v 0.0621029719 0.200613911 0.0952499126
v 0.0632500037 0.200085933 0.0839999233
v 0.0632500037 0.200085933 0.0952499126
v 0.0662500247 0.199855621 0.0952499126
v 0.0680000171 0.211732085 0.0952499126
v 0.0680000171 0.211732085 0.0839999233
v 0.0662500247 0.199855621 0.0839999233
v 0.059750019 0.212645473 0.0952499126
v 0.059750019 0.212645473 0.0839999233
v 0.0664179527 0.212645473 0.0952499126
v 0.0664179527 0.212645473 0.0839999233
v 0.0717349335 0.199855621 0.0952499126
f 22 1 16
f 16 15 22
f 5 4 6
f 6 7 5
f 21 19 18
f 18 20 21
f 15 16 21
f 21 20 15
f 8 9 7
f 8 7 6
f 18 19 3
f 19 2 3
f 3 9 11
f 3 14 22
f 22 15 3
f 11 13 3
f 13 14 3
f 3 20 18
f 15 20 3
f 7 9 3
f 3 5 7
f 3 2 4
f 4 5 3
f 17 1 22
f 22 14 17
f 17 14 13
f 13 12 17
f 10 13 11
f 10 12 13
f 1 17 10
f 10 2 19
f 4 2 10
f 10 16 1
f 10 8 6
f 6 4 10
f 19 21 10
f 10 21 16
f 10 17 12
f 11 9 10
f 9 8 10
