v 0.0985438629 0.264094732 0.0614999447
v 0.107689677 0.266849186 0.0567616693
v 0.107689677 0.267832537 0.0550699471
v 0.0966741813 0.264094686 0.0614999447
v 0.0951600133 0.264094698 0.0614999447
v 0.107689677 0.26409472 0.0614999447
v 0.107689677 0.269850664 0.0515984384
v 0.0947198256 0.264434022 0.060916281
v 0.0947198256 0.264094708 0.0614999447
v 0.0947198256 0.270634517 0.0502499555
v 0.0947198256 0.268352534 0.0541754195
v 0.0984585608 0.270634487 0.0502499555
v 0.107689677 0.270634522 0.0502499555
v 0.10713453 0.270634509 0.0502499555
v 0.105057494 0.270634578 0.0502499555
v 0.0947198256 0.26547591 0.0591240129
f 16 15 10
f 7 15 2
f 13 15 7
f 3 6 4
f 4 11 3
f 3 11 12
f 1 6 2
f 1 16 8
f 9 1 8
f 14 13 3
f 3 12 14
f 5 9 11
f 11 4 5
f 3 13 7
f 2 6 7
f 7 6 3
f 15 16 1
f 2 15 1
f 10 11 9
f 8 16 9
f 9 16 10
f 14 15 13
f 10 15 14
f 14 12 10
f 12 11 10
f 6 1 5
f 5 4 6
f 1 9 5
