v 0.0817499741 0.257803853 0.0614999447
v 0.0831912144 0.261315997 0.0614999447
v 0.0831912144 0.261315997 0.06627982
v 0.0824089631 0.260284836 0.0614999447
v 0.0824089631 0.260284836 0.0680537735
v 0.0819175824 0.259087379 0.0614999447
v 0.0819175824 0.259087379 0.07011371
v 0.0817499741 0.257803853 0.072321466
v 0.0859333968 0.264094651 0.0614999447
v 0.0939074024 0.264094727 0.0614999447
v 0.091952028 0.264094733 0.0614999447
v 0.0898959907 0.26409472 0.0614999447
v 0.0817499741 0.250725189 0.0614999447
v 0.0947198256 0.262943043 0.063481107
v 0.0947198256 0.263431521 0.062640747
v 0.0947198256 0.263928251 0.0617862723
v 0.0947198256 0.264094708 0.0614999447
v 0.0817499741 0.257554777 0.072749934
v 0.0817499741 0.250725189 0.072749934
v 0.0863932546 0.257554886 0.072749934
v 0.0947198256 0.257554881 0.072749934
f 10 11 14
f 14 17 10
f 21 19 13
f 13 15 21
f 20 21 14
f 16 13 17
f 15 13 16
f 14 11 7
f 7 20 14
f 20 7 18
f 12 7 11
f 3 9 2
f 8 18 7
f 5 12 9
f 7 12 5
f 9 3 5
f 16 17 14
f 14 21 16
f 21 15 16
f 18 19 21
f 21 20 18
f 11 10 12
f 12 4 2
f 13 1 12
f 12 10 17
f 12 1 6
f 17 13 12
f 2 9 12
f 6 4 12
f 19 18 8
f 8 1 13
f 8 13 19
f 6 1 8
f 8 7 6
f 5 4 6
f 6 7 5
f 2 4 5
f 5 3 2
