v -0.119376666 0.206892374 0.106499902
v -0.113564314 0.206005271 0.106499902
v -0.113564314 0.206005271 0.0952499126
v -0.118393959 0.207299407 0.0952499126
v -0.118393959 0.207299407 0.106499902
v -0.117099942 0.207469757 0.0952499126
v -0.117099942 0.207469757 0.106499902
v -0.116776408 0.207427169 0.0952499126
v -0.116776408 0.207427169 0.106499902
v -0.115805806 0.207299407 0.0952499126
v -0.115805806 0.207299407 0.106499902
v -0.114599885 0.20679992 0.0952499126
v -0.114599885 0.20679992 0.106499902
v -0.108106913 0.200679449 0.0952499126
v -0.108106913 0.200679449 0.106499902
v -0.119376666 0.206892374 0.0952499126
f 1 16 14
f 14 15 1
f 3 15 14
f 3 2 15
f 13 2 3
f 3 12 13
f 12 10 11
f 13 12 11
f 5 4 16
f 16 1 5
f 6 4 5
f 5 7 6
f 14 16 8
f 8 4 6
f 16 4 8
f 8 3 14
f 8 10 12
f 12 3 8
f 9 1 15
f 13 11 9
f 9 2 13
f 9 5 1
f 15 2 9
f 7 5 9
f 6 7 9
f 9 8 6
f 9 11 10
f 10 8 9
