v -0.200047316 -0.0636830377 0.0952499126
v -0.200047316 -0.0636830377 0.106499902
v -0.200575174 -0.0625359463 0.0952499126
v -0.200575174 -0.0625359463 0.106499902
v -0.201373638 -0.0615576553 0.0952499126
v -0.201373638 -0.0615576553 0.106499902
v -0.202391686 -0.0608106303 0.106499902
v -0.202391686 -0.0608106303 0.0952499126
v -0.203564347 -0.0603424358 0.0952499126
v -0.203564347 -0.0603424358 0.106499902
v -0.204816999 -0.0601829934 0.0952499126
v -0.204816999 -0.0601829934 0.106499902
v -0.211693348 -0.0684329915 0.106499902
v -0.211693348 -0.0684329915 0.0952499126
v -0.199817003 -0.0666829991 0.106499902
v -0.212606838 -0.0601829934 0.0952499126
v -0.212606838 -0.0601829934 0.106499902
v -0.212606838 -0.06685085 0.0952499126
v -0.212606838 -0.06685085 0.106499902
v -0.199817003 -0.0666829991 0.0952499126
v -0.199817003 -0.072163974 0.106499902
v -0.199817003 -0.072163974 0.0952499126
f 14 22 13
f 13 22 21
f 15 21 20
f 21 22 20
f 2 20 1
f 15 20 2
f 18 19 17
f 17 16 18
f 14 13 18
f 13 19 18
f 4 2 3
f 3 2 1
f 3 6 4
f 5 6 3
f 9 8 11
f 1 20 11
f 11 22 14
f 14 18 11
f 11 20 22
f 11 18 16
f 11 3 1
f 5 3 11
f 11 8 5
f 11 12 10
f 10 9 11
f 11 16 17
f 17 12 11
f 7 13 21
f 7 21 15
f 7 19 13
f 17 19 7
f 15 2 7
f 10 12 7
f 7 2 4
f 4 6 7
f 7 12 17
f 7 8 9
f 7 9 10
f 7 6 5
f 5 8 7
