v -0.0821830646 0.257765229 0.0389999662
v -0.0828419343 0.260246093 0.0389999662
v -0.0823505536 0.259048636 0.0389999662
v -0.0821830646 0.256067033 0.0389999662
v -0.0836241857 0.261277373 0.0389999662
v -0.0951449886 0.256067033 0.0389999662
v -0.0821830646 0.257765229 0.0502499555
v -0.0823505536 0.259048636 0.0502499555
v -0.0828419343 0.260246093 0.0502499555
v -0.0836241857 0.261277373 0.0502499555
v -0.0821830646 0.256067033 0.0502499555
v -0.0868135611 0.264509104 0.0389999662
v -0.0951449886 0.264509104 0.0389999662
v -0.0868135611 0.264509104 0.0502499555
f 6 4 11
f 11 14 6
f 14 12 13
f 6 14 13
f 7 4 1
f 11 4 7
f 8 7 3
f 3 7 1
f 9 8 3
f 3 2 9
f 4 6 5
f 5 6 13
f 1 4 5
f 13 12 5
f 5 3 1
f 2 3 5
f 11 7 10
f 10 14 11
f 10 8 9
f 10 7 8
f 12 14 10
f 10 5 12
f 9 2 10
f 2 5 10
