v -0.10768968 -0.247850185 0.0894441074
v -0.0994420906 -0.251014999 0.0839999233
v -0.10768968 -0.249402342 0.086774056
v -0.10271063 -0.251015001 0.0839999233
v -0.10768968 -0.250262891 0.0852937797
v -0.105493024 -0.251015037 0.0839999233
v -0.10768968 -0.251015034 0.0839999233
v -0.0947198287 -0.251015009 0.0839999233
v -0.10768968 -0.244620098 0.09500061
v -0.0947198287 -0.244620098 0.09500061
f 1 9 10
f 5 7 6
f 6 10 5
f 10 9 5
f 2 10 8
f 2 1 10
f 4 7 3
f 6 8 10
f 6 7 2
f 2 8 6
f 2 7 4
f 3 2 4
f 1 2 3
f 3 5 9
f 9 1 3
f 7 5 3
