v -0.199817003 -0.0666829991 0.0789999281
v -0.202391686 -0.0608106303 0.0789999281
v -0.201373638 -0.0615576553 0.0789999281
v -0.200575174 -0.0625359463 0.0789999281
v -0.200047316 -0.0636830377 0.0789999281
v -0.203564347 -0.0603424358 0.0789999281
v -0.200047316 -0.0636830377 0.0839999233
v -0.200575174 -0.0625359463 0.0839999233
v -0.201373638 -0.0615576553 0.0839999233
v -0.202391686 -0.0608106303 0.0839999233
v -0.203564347 -0.0603424358 0.0839999233
v -0.204816999 -0.0601829934 0.0789999281
v -0.199817003 -0.0666829991 0.0839999233
v -0.199817003 -0.072163974 0.0789999281
v -0.199817003 -0.072163974 0.0839999233
v -0.209191994 -0.0601829934 0.0789999281
v -0.209191994 -0.0601829934 0.0839999233
v -0.204816999 -0.0601829934 0.0839999233
v -0.209191994 -0.0684329915 0.0839999233
v -0.209191994 -0.072163974 0.0789999281
f 19 20 15
f 14 15 20
f 16 20 19
f 19 17 16
f 1 5 13
f 13 5 7
f 13 14 1
f 15 14 13
f 5 4 8
f 7 5 8
f 20 16 3
f 3 5 1
f 16 12 3
f 1 14 3
f 3 4 5
f 3 14 20
f 3 6 2
f 3 12 6
f 9 8 3
f 3 8 4
f 2 6 10
f 10 6 11
f 10 3 2
f 9 3 10
f 18 17 19
f 18 13 7
f 19 15 18
f 18 10 11
f 15 13 18
f 7 8 18
f 18 8 9
f 9 10 18
f 18 16 17
f 18 12 16
f 6 12 18
f 11 6 18
