v -0.108106913 0.200679449 0.0389999662
v -0.120087893 0.206425441 0.0389999662
v -0.113564314 0.206005271 0.0502499555
v -0.11959988 0.20679992 0.0502499555
v -0.118393959 0.207299407 0.0502499555
v -0.117099942 0.207469757 0.0502499555
v -0.115805806 0.207299407 0.0502499555
v -0.114599885 0.20679992 0.0502499555
v -0.108106913 0.200679449 0.0502499555
v -0.120087893 0.206425441 0.0502499555
v -0.120087893 0.209928128 0.0389999662
v -0.108106913 0.209928128 0.0389999662
f 1 12 9
f 3 9 12
f 10 11 2
f 8 12 7
f 8 3 12
f 4 5 11
f 11 10 4
f 12 11 6
f 7 12 6
f 11 5 6
f 11 12 1
f 1 2 11
f 10 2 1
f 1 9 10
f 6 8 7
f 9 3 6
f 6 10 9
f 3 8 6
f 6 4 10
f 5 4 6
