v 0.155434802 -0.22044835 0.0389999662
v 0.147463786 -0.22044835 0.0389999662
v 0.147463786 -0.235144908 0.0389999662
v 0.148028332 -0.235144908 0.0389999662
v 0.155434802 -0.227738438 0.0389999662
v 0.147463786 -0.235144908 0.033999971
v 0.155434802 -0.22044835 0.033999971
v 0.155434802 -0.227738438 0.033999971
v 0.147463786 -0.22044835 0.033999971
v 0.148028332 -0.235144908 0.033999971
f 9 6 3
f 9 3 2
f 1 7 9
f 2 1 9
f 4 1 2
f 2 3 4
f 4 5 1
f 8 7 1
f 1 5 8
f 10 9 7
f 6 9 10
f 7 8 10
f 3 6 10
f 10 4 3
f 5 4 10
f 10 8 5
