v -0.0275000051 0.188357885 0.136957816
v -0.0231952087 0.188630636 0.136957816
v -0.0243470088 0.188426311 0.136957816
v -0.0255146638 0.188357885 0.136957816
v -0.0137500033 0.190368343 0.136957816
v -0.0275000051 0.193447526 0.136957816
v -0.0137500033 0.193447526 0.136957816
v -0.0231952087 0.188630636 0.145718328
v -0.0243470088 0.188426311 0.145718328
v -0.0255146638 0.188357885 0.145718328
v -0.0275000051 0.188357885 0.145718328
v -0.0137500033 0.190389697 0.145718328
v -0.0275000051 0.193447526 0.145718328
v -0.0137500033 0.193447526 0.145718328
f 5 12 8
f 8 2 5
f 13 6 1
f 1 11 13
f 14 7 13
f 13 7 6
f 14 12 5
f 5 7 14
f 10 13 11
f 8 12 10
f 10 12 14
f 14 13 10
f 10 9 8
f 8 9 3
f 3 2 8
f 1 6 4
f 7 5 4
f 4 5 2
f 6 7 4
f 2 3 4
f 4 11 1
f 4 10 11
f 9 10 4
f 4 3 9
