v -0.143644424 -0.221245795 0.0389999662
v -0.148132157 -0.221245795 0.0502499555
v -0.143644424 -0.229482099 0.0389999662
v -0.148132157 -0.221245795 0.0389999662
v -0.151569823 -0.229482099 0.0389999662
v -0.151569823 -0.229482099 0.0465567327
v -0.153969149 -0.227082773 0.0389999662
v -0.153969149 -0.227082773 0.0502499555
v -0.153621772 -0.22743015 0.0502499555
f 2 3 1
f 4 2 1
f 8 9 2
f 3 2 6
f 2 9 6
f 6 5 3
f 1 3 5
f 7 4 5
f 5 4 1
f 8 4 7
f 2 4 8
f 7 5 6
f 6 8 7
f 9 8 6
