v -0.147463789 -0.235144908 0.0389999662
v -0.147463789 -0.238139257 0.0389999662
v -0.146648476 -0.242463672 0.0389999662
v -0.137500019 -0.235144908 0.0389999662
v -0.146402964 -0.243115922 0.0389999662
v -0.137500019 -0.243115922 0.0389999662
v -0.147463789 -0.235144908 0.033999971
v -0.147463789 -0.243115922 0.033999971
v -0.147463789 -0.243115922 0.03769611
v -0.137500019 -0.235144908 0.033999971
v -0.137500019 -0.243115922 0.033999971
f 3 9 5
f 3 2 9
f 1 4 10
f 10 7 1
f 4 6 10
f 10 6 11
f 11 8 10
f 10 8 7
f 9 6 5
f 11 6 9
f 9 8 11
f 1 7 2
f 7 8 2
f 8 9 2
f 3 6 4
f 3 4 1
f 5 6 3
f 1 2 3
