v -0.219816984 -0.0771830129 0.0839999233
v -0.219816984 -0.0771830129 0.0952499126
v -0.219829761 -0.0772800687 0.0952499126
v -0.219987334 -0.0784770894 0.0839999233
v -0.219987334 -0.0784770894 0.0952499126
v -0.220486821 -0.0796830106 0.0839999233
v -0.220486821 -0.0796830106 0.0952499126
v -0.22128147 -0.080718522 0.0839999233
v -0.22128147 -0.080718522 0.0952499126
v -0.222317042 -0.0815131116 0.0839999233
v -0.222317042 -0.0815131116 0.0952499126
v -0.223522843 -0.0820126581 0.0839999233
v -0.223522843 -0.0820126581 0.0952499126
v -0.22481698 -0.0821830082 0.0839999233
v -0.225396674 -0.0821830082 0.0839999233
v -0.22481698 -0.0821830082 0.0952499126
v -0.225396674 -0.0821830082 0.0952499126
v -0.219816984 -0.0711830008 0.0952499126
v -0.219816984 -0.0711830008 0.0839999233
f 3 4 1
f 1 2 3
f 4 3 5
f 18 19 15
f 15 17 18
f 2 1 19
f 19 18 2
f 15 19 8
f 8 4 6
f 19 1 8
f 8 14 15
f 10 12 8
f 1 4 8
f 12 14 8
f 7 9 8
f 6 7 8
f 6 4 5
f 5 7 6
f 10 8 11
f 11 8 9
f 13 12 10
f 10 11 13
f 16 18 17
f 16 2 18
f 16 11 9
f 16 9 7
f 16 3 2
f 7 5 16
f 16 5 3
f 16 13 11
f 16 17 15
f 15 14 16
f 16 14 12
f 12 13 16
