v 0.185460351 -0.14118045 0.12899988
v 0.194285555 -0.132355241 0.12899988
v 0.185460351 -0.14118045 0.133999876
v 0.194285555 -0.132355241 0.133999876
v 0.194285555 -0.131441942 0.133999876
v 0.184547052 -0.14118045 0.12899988
v 0.184547052 -0.14118045 0.133999876
v 0.184547052 -0.131441942 0.133999876
v 0.184547052 -0.131441942 0.12899988
v 0.194285555 -0.131441942 0.12899988
f 5 10 9
f 9 8 5
f 5 4 2
f 2 10 5
f 2 4 3
f 3 1 2
f 4 5 3
f 3 5 8
f 8 7 3
f 9 10 6
f 6 10 2
f 2 1 6
f 6 8 9
f 6 7 8
f 1 3 6
f 6 3 7
