v -0.14045266 0.24845608 0.0502499555
v -0.14045266 0.237674165 0.0389999662
v -0.14045266 0.24845608 0.0389999662
v -0.143377738 0.237674165 0.04205203
v -0.143377738 0.237674165 0.0389999662
v -0.144429941 0.239958394 0.0389999662
v -0.144909681 0.243999059 0.0389999662
v -0.141395778 0.247512962 0.0502499555
v -0.143887833 0.245020908 0.0425842691
v -0.141716316 0.247192425 0.0494946981
f 1 2 3
f 4 2 1
f 2 4 5
f 7 4 9
f 4 10 9
f 8 4 1
f 8 10 4
f 1 3 8
f 8 3 7
f 8 9 10
f 7 9 8
f 6 4 7
f 6 5 4
f 7 3 6
f 6 3 2
f 2 5 6
