v -0.0180302278 -0.240500038 0.059069923
v -0.0180302278 -0.240500038 0.0550698553
v -0.0286951677 -0.240500038 0.059069923
v -0.0290833131 -0.240448837 0.059069923
v -0.0294449941 -0.240298932 0.059069923
v -0.0297556535 -0.240060573 0.059069923
v -0.0297556535 -0.240060573 0.0550698553
v -0.0299876348 -0.239758198 0.059069923
v -0.0299939529 -0.239749913 0.059069923
v -0.0301439181 -0.239388232 0.059069923
v -0.0299939529 -0.239749913 0.0550698553
v -0.0301951781 -0.239000027 0.059069923
v -0.0301439181 -0.239388232 0.0550698553
v -0.0301951781 -0.239000027 0.0550698553
v -0.0301951781 -0.233500009 0.059069923
v -0.0301951781 -0.233500009 0.0550698553
v -0.0301439181 -0.233111863 0.059069923
v -0.0301439181 -0.233111863 0.0550698553
v -0.0299939529 -0.232750123 0.059069923
v -0.0294449941 -0.240298932 0.0550698553
v -0.0290833131 -0.240448837 0.0550698553
v -0.0286951677 -0.240500038 0.0550698553
v -0.0299102874 -0.232641073 0.059069923
v -0.0299939529 -0.232750123 0.0550698553
v -0.0299102874 -0.232641073 0.0550698553
v -0.0151951328 -0.236357276 0.059069923
v -0.0151951328 -0.232641073 0.059069923
v -0.0151951328 -0.236357276 0.0550698553
v -0.0151951328 -0.232641073 0.0550698553
f 7 6 8
f 11 8 9
f 7 8 11
f 23 27 25
f 27 29 25
f 12 15 14
f 14 15 16
f 27 26 28
f 28 29 27
f 28 26 1
f 1 2 28
f 1 3 22
f 22 2 1
f 23 25 19
f 25 24 19
f 15 17 18
f 16 15 18
f 17 19 18
f 18 19 24
f 12 14 13
f 13 10 12
f 3 4 21
f 21 22 3
f 8 15 12
f 8 27 23
f 1 26 8
f 12 10 8
f 8 26 27
f 8 3 1
f 8 17 15
f 8 4 3
f 23 19 8
f 6 5 8
f 8 19 17
f 8 5 4
f 10 9 8
f 11 9 10
f 10 13 11
f 20 25 29
f 7 11 20
f 20 14 16
f 16 18 20
f 29 28 20
f 20 24 25
f 20 28 2
f 2 22 20
f 20 18 24
f 20 13 14
f 22 21 20
f 20 11 13
f 20 5 6
f 20 6 7
f 4 5 20
f 20 21 4
