v 0.113131343 0.206044014 0.0839999233
v 0.113131343 0.206044014 0.0952499126
v 0.114166914 0.206838543 0.0839999233
v 0.114166914 0.206838543 0.0952499126
v 0.115372835 0.20733815 0.0839999233
v 0.115372835 0.20733815 0.0952499126
v 0.116666852 0.2075085 0.0839999233
v 0.116666852 0.2075085 0.0952499126
v 0.117960988 0.20733815 0.0839999233
v 0.117960988 0.20733815 0.0952499126
v 0.107689677 0.200731084 0.0952499126
v 0.107689677 0.200731084 0.0839999233
v 0.118957102 0.206925465 0.0839999233
v 0.118957102 0.206925465 0.0952499126
f 14 12 13
f 11 12 14
f 9 14 13
f 10 14 9
f 1 12 11
f 11 2 1
f 13 12 5
f 5 1 3
f 12 1 5
f 5 9 13
f 7 9 5
f 3 1 4
f 4 1 2
f 4 5 3
f 6 5 4
f 11 14 8
f 8 14 10
f 8 2 11
f 8 4 2
f 6 4 8
f 8 9 7
f 10 9 8
f 7 5 8
f 8 5 6
