v -0.225827919 -0.15318595 0.105630377
v -0.232115004 -0.144049858 0.116445603
v -0.225827919 -0.15318595 0.116445603
v -0.23328165 -0.147770272 0.105630377
v -0.237002064 -0.144049858 0.108038772
v -0.236465753 -0.144049858 0.108961324
v -0.23267585 -0.144049858 0.1154808
v -0.234854636 -0.146197286 0.111732976
v -0.235623197 -0.144049858 0.110410874
v -0.236038088 -0.145013834 0.109697157
v -0.233689521 -0.144049858 0.113737186
v -0.232115068 -0.148095695 0.116445603
v -0.232115073 -0.148936849 0.116445603
v -0.226846944 -0.154204978 0.105630377
v -0.232729728 -0.148322194 0.115388267
v -0.226846944 -0.154204978 0.116445603
v -0.237002064 -0.144049858 0.10803888
v -0.236357814 -0.144694108 0.109147149
f 7 2 1
f 1 14 4
f 1 2 3
f 6 7 1
f 17 18 9
f 2 11 12
f 9 18 10
f 10 8 9
f 15 11 9
f 9 8 15
f 3 16 14
f 3 14 1
f 6 4 5
f 1 4 6
f 17 6 5
f 7 6 17
f 2 7 17
f 17 11 2
f 9 11 17
f 12 13 16
f 16 3 12
f 12 3 2
f 5 4 15
f 15 17 5
f 18 17 15
f 15 10 18
f 15 4 14
f 14 16 15
f 16 13 15
f 8 10 15
f 13 12 15
f 15 12 11
