v 0.232114995 0.132068868 0.116445635
v 0.238351953 0.132068868 0.105716735
v 0.238402168 0.13628516 0.105630398
v 0.236465736 0.144049848 0.108961348
v 0.238402084 0.138425507 0.105630398
v 0.235623197 0.144049848 0.110410868
v 0.238402113 0.134086379 0.105630398
v 0.237534603 0.132068868 0.107122657
v 0.232675851 0.144049848 0.115480793
v 0.232114983 0.144049848 0.116445635
v 0.233689502 0.144049848 0.113737213
v 0.23840214 0.132068868 0.105630398
v 0.237265604 0.143786302 0.107585523
v 0.238402141 0.142649765 0.105630398
v 0.232114993 0.143032482 0.116445635
v 0.237002058 0.144049848 0.108038778
v 0.237002058 0.144049848 0.108038886
v 0.238402121 0.142649785 0.105630398
v 0.238402153 0.140370869 0.105630398
f 6 1 3
f 5 8 4
f 1 6 11
f 9 4 8
f 9 1 10
f 9 8 1
f 17 6 3
f 15 11 10
f 10 1 15
f 1 11 15
f 7 8 5
f 7 12 8
f 2 12 3
f 3 1 2
f 13 19 14
f 3 19 13
f 13 17 3
f 16 9 10
f 10 11 16
f 16 11 6
f 4 9 16
f 6 17 16
f 8 12 2
f 1 8 2
f 18 19 3
f 18 7 5
f 3 12 18
f 12 7 18
f 14 19 18
f 5 4 18
f 4 16 18
f 13 16 17
f 13 18 16
f 14 18 13
