v -0.105807485 0.274817045 0.0389999662
v -0.0990766898 0.274817045 0.0429885898
v -0.105807485 0.274817045 0.0429885898
v -0.096278371 0.273960526 0.0389999662
v -0.096278371 0.273960526 0.0444618974
v -0.0971480027 0.274430091 0.0389999662
v -0.0980932132 0.274719293 0.0389999662
v -0.0990766898 0.274817045 0.0389999662
v -0.0980932132 0.274719293 0.0431566749
v -0.0971480027 0.274430091 0.0436542545
v -0.0955179349 0.273329074 0.0455481325
v -0.0976133958 0.274598057 0.043365172
v -0.0985825673 0.274792488 0.0430307899
v -0.107376637 0.274755294 0.0430946861
v -0.108106913 0.274636034 0.0389999662
v -0.108106913 0.27466888 0.0411772229
v -0.108106913 0.27466888 0.0432433985
v -0.0955179349 0.273329074 0.0389999662
v -0.0951449886 0.272951175 0.0389999662
v -0.0951449886 0.272951175 0.0461982055
v -0.0951449886 0.270595837 0.0502499555
v -0.0988915321 0.270595863 0.0502499555
v -0.100749145 0.270595804 0.0502499555
v -0.107567597 0.270595863 0.0502499555
v -0.108106913 0.270842823 0.0498251306
v -0.108106913 0.270595854 0.0502499555
v -0.108106913 0.272982508 0.0461444025
v -0.105490465 0.270595835 0.0502499555
v -0.108106913 0.274086614 0.0442450936
v -0.108106913 0.265442039 0.0389999662
v -0.0951449886 0.265442039 0.0389999662
f 14 16 17
f 3 14 17
f 23 31 21
f 29 3 17
f 28 30 23
f 26 30 28
f 14 3 1
f 26 24 25
f 10 25 24
f 21 20 10
f 10 2 3
f 3 29 10
f 22 10 24
f 21 10 22
f 27 10 29
f 25 10 27
f 11 10 20
f 7 9 12
f 9 10 12
f 7 8 13
f 13 9 7
f 13 8 2
f 2 10 13
f 13 10 9
f 7 12 6
f 6 12 10
f 10 11 5
f 31 23 30
f 20 31 19
f 21 31 20
f 15 16 1
f 16 14 1
f 3 2 8
f 8 1 3
f 22 23 21
f 26 28 22
f 22 24 26
f 22 28 23
f 17 16 27
f 27 16 15
f 27 30 26
f 27 29 17
f 15 30 27
f 26 25 27
f 18 30 15
f 31 30 18
f 19 31 18
f 18 8 7
f 15 1 18
f 1 8 18
f 7 6 18
f 18 6 4
f 18 20 19
f 18 11 20
f 4 6 5
f 5 6 10
f 5 18 4
f 11 18 5
