v -0.206448991 0.119674588 0.0839999233
v -0.203215541 0.123030837 0.0839999233
v -0.203215541 0.130101855 0.072749934
v -0.202421011 0.129066403 0.0839999233
v -0.202421011 0.129066403 0.072749934
v -0.201921524 0.127860482 0.0839999233
v -0.201921524 0.127860482 0.072749934
v -0.201751055 0.126566346 0.0839999233
v -0.201751055 0.126566346 0.072749934
v -0.201921524 0.125272329 0.0839999233
v -0.201921524 0.125272329 0.072749934
v -0.202421011 0.124066408 0.0839999233
v -0.202421011 0.124066408 0.072749934
v -0.203215541 0.123030837 0.072749934
v -0.203215541 0.130101855 0.0839999233
v -0.204773189 0.131659503 0.072749934
v -0.204773189 0.131659503 0.0839999233
v -0.206448991 0.119674588 0.072749934
f 1 17 16
f 16 18 1
f 8 10 11
f 11 9 8
f 9 7 6
f 8 9 6
f 6 7 5
f 5 4 6
f 16 17 15
f 15 3 16
f 5 3 15
f 15 4 5
f 16 3 13
f 13 18 16
f 13 7 9
f 13 14 18
f 5 7 13
f 13 3 5
f 9 11 13
f 13 10 12
f 13 11 10
f 14 13 2
f 2 13 12
f 2 15 17
f 2 10 8
f 17 1 2
f 12 10 2
f 8 6 2
f 2 6 4
f 4 15 2
f 2 1 18
f 18 14 2
