v 0.206799923 0.119599874 0.0839999233
v 0.206425444 0.120087887 0.0839999233
v 0.206005274 0.113564308 0.0839999233
v 0.206005274 0.113564308 0.072749934
v 0.206799923 0.119599874 0.072749934
v 0.20729941 0.118393953 0.072749934
v 0.20729941 0.118393953 0.0839999233
v 0.20746976 0.117099936 0.072749934
v 0.20746976 0.117099936 0.0839999233
v 0.20729941 0.1158058 0.072749934
v 0.20729941 0.1158058 0.0839999233
v 0.206799923 0.114599879 0.072749934
v 0.206799923 0.114599879 0.0839999233
v 0.200679452 0.108106906 0.072749934
v 0.200679452 0.108106906 0.0839999233
v 0.206425444 0.120087887 0.072749934
f 15 2 16
f 15 16 14
f 5 2 1
f 16 2 5
f 7 5 1
f 6 5 7
f 12 10 11
f 13 12 11
f 8 6 7
f 7 9 8
f 3 4 12
f 3 12 13
f 3 15 14
f 14 4 3
f 14 16 4
f 4 6 8
f 16 5 4
f 4 10 12
f 4 5 6
f 8 10 4
f 1 2 3
f 3 7 1
f 2 15 3
f 9 7 3
f 13 11 3
f 3 11 9
f 11 10 8
f 8 9 11
