v 0.274816929 0.105807478 0.0429885898
v 0.274755298 0.10737663 0.0430946861
v 0.274816929 0.0990766835 0.0429885898
v 0.273329078 0.0955179286 0.0389999662
v 0.273960529 0.0962783647 0.0389999662
v 0.273960529 0.0962783647 0.0444618974
v 0.274430095 0.0971481157 0.0389999662
v 0.274430095 0.0971481157 0.0436542545
v 0.274816929 0.0990766835 0.0389999662
v 0.274719296 0.0980932069 0.0389999662
v 0.274719296 0.0980932069 0.0431566749
v 0.27459806 0.0976133895 0.043365172
v 0.273329078 0.0955179286 0.0455481325
v 0.274792491 0.098582561 0.0430307899
v 0.274816929 0.105807478 0.0389999662
v 0.274636006 0.108106906 0.0389999662
v 0.274668884 0.108106906 0.0411772229
v 0.274668884 0.108106906 0.0432433985
v 0.272951179 0.0951449824 0.0389999662
v 0.272951179 0.0951449824 0.0461982055
v 0.270595809 0.0951449824 0.0502499555
v 0.270595769 0.099154375 0.0502499555
v 0.270595866 0.107567591 0.0502499555
v 0.270842826 0.108106906 0.0498251306
v 0.270595857 0.108106906 0.0502499555
v 0.272982511 0.108106906 0.0461444025
v 0.270595865 0.103695261 0.0502499555
v 0.270595863 0.102128103 0.0502499555
v 0.274086617 0.108106906 0.0442450936
v 0.265441938 0.108106906 0.0389999662
v 0.265441938 0.0951449824 0.0389999662
f 25 30 22
f 30 31 22
f 22 31 21
f 8 28 21
f 15 2 1
f 20 8 21
f 14 8 11
f 18 8 14
f 14 2 18
f 1 2 14
f 14 3 1
f 9 3 14
f 18 2 17
f 10 14 11
f 9 14 10
f 6 8 13
f 8 20 13
f 23 24 25
f 8 24 23
f 29 8 18
f 8 7 12
f 7 10 12
f 11 8 12
f 12 10 11
f 28 8 27
f 8 23 27
f 26 24 8
f 8 29 26
f 1 3 15
f 15 3 9
f 7 6 5
f 7 8 6
f 31 19 20
f 21 31 20
f 17 15 16
f 2 15 17
f 16 15 10
f 10 31 30
f 30 16 10
f 10 19 31
f 5 4 10
f 10 4 19
f 10 15 9
f 10 7 5
f 13 20 19
f 19 4 13
f 13 4 5
f 5 6 13
f 25 22 27
f 27 22 21
f 21 28 27
f 27 23 25
f 26 16 30
f 26 30 25
f 25 24 26
f 26 17 16
f 18 17 26
f 26 29 18
