v -0.105304898 0.199816997 0.0839999233
v -0.0961259321 0.199816997 0.0839999233
v -0.0961259321 0.199816997 0.0789999281
v -0.0988405362 0.199816997 0.072749934
v -0.105304898 0.199816997 0.072749934
v -0.108082832 0.200659688 0.0839999233
v -0.107218327 0.200197632 0.0839999233
v -0.107218327 0.200197632 0.072749934
v -0.106280388 0.19991308 0.072749934
v -0.106280388 0.19991308 0.0839999233
v -0.108082832 0.200659688 0.072749934
v -0.108106913 0.200679449 0.0839999233
v -0.108106913 0.200679449 0.072749934
v -0.0961259321 0.209192003 0.0789999281
v -0.099463524 0.209192003 0.0839999233
v -0.10596353 0.209192003 0.072749934
v -0.10596353 0.209192003 0.0839999233
v -0.0988405362 0.209192003 0.072749934
f 15 2 14
f 16 13 17
f 17 13 12
f 14 2 3
f 5 2 1
f 3 2 5
f 4 3 5
f 18 17 15
f 15 14 18
f 16 17 18
f 18 3 4
f 18 14 3
f 10 17 12
f 1 2 10
f 15 17 10
f 10 2 15
f 12 6 10
f 10 6 7
f 10 5 1
f 10 9 5
f 8 10 7
f 9 10 8
f 11 13 16
f 4 5 11
f 16 18 11
f 11 18 4
f 5 9 11
f 9 8 11
f 12 13 11
f 11 6 12
f 7 6 11
f 11 8 7
