v -0.251014946 0.0817499709 0.0839999233
v -0.251014946 0.0947198224 0.0839999233
v -0.250725195 0.0817499709 0.0839999233
v -0.257554782 0.0817499709 0.072749934
v -0.250725195 0.0817499709 0.072749934
v -0.253465207 0.0947198224 0.0797849199
v -0.254703832 0.0947198224 0.0776543832
v -0.257554892 0.0863932514 0.072749934
v -0.257554887 0.0947198224 0.072749934
f 4 1 8
f 7 9 8
f 8 1 7
f 6 5 9
f 2 7 1
f 1 3 2
f 3 5 2
f 5 6 2
f 1 4 5
f 5 3 1
f 5 4 8
f 8 9 5
f 9 7 2
f 2 6 9
