v -0.211231913 -0.158423891 0.0389999662
v -0.219202929 -0.158423891 0.0389999662
v -0.219202929 -0.163970314 0.0389999662
v -0.211796452 -0.17137679 0.0389999662
v -0.211231913 -0.17137679 0.0389999662
v -0.211231913 -0.17137679 0.033999971
v -0.211796452 -0.17137679 0.033999971
v -0.211231913 -0.158423891 0.033999971
v -0.219202929 -0.158423891 0.033999971
v -0.219202929 -0.163970314 0.033999971
f 2 3 5
f 5 1 2
f 5 3 4
f 6 8 5
f 5 8 1
f 7 5 4
f 6 5 7
f 2 1 9
f 1 8 9
f 10 8 6
f 6 7 10
f 10 9 8
f 4 3 10
f 10 7 4
f 10 3 2
f 2 9 10
