v -0.0395000592 -0.220499997 0.16599994
v -0.0275000051 -0.220499997 0.16599994
v -0.0395000592 -0.206239467 0.162989064
v -0.0275000051 -0.206239467 0.162989064
v -0.0275000051 -0.206239467 0.171999863
v -0.0412500069 -0.220499997 0.168999961
v -0.0275000051 -0.220499997 0.171999863
v -0.0412500069 -0.220499997 0.171999863
v -0.0412500069 -0.206239467 0.168999961
v -0.0412500069 -0.206239467 0.171999863
f 6 3 1
f 9 3 6
f 2 1 4
f 4 1 3
f 2 7 8
f 6 1 8
f 8 1 2
f 10 9 8
f 8 9 6
f 5 7 2
f 2 4 5
f 5 4 3
f 3 9 5
f 5 9 10
f 10 8 5
f 5 8 7
