v -0.0395000592 -0.22690997 0.0804999385
v -0.0395000592 -0.213339989 0.0804999385
v -0.0296250448 -0.22690997 0.0804999385
v -0.0296250448 -0.213339989 0.0804999385
v -0.0296250448 -0.22690997 0.0864998613
v -0.0296250448 -0.213339989 0.0864998613
v -0.0395000592 -0.213339989 0.0897270957
v -0.0395000592 -0.22690997 0.0897270957
v -0.0380000487 -0.213339989 0.0897270957
v -0.0380000487 -0.22690997 0.0897270957
f 1 2 3
f 2 4 3
f 8 2 1
f 8 7 2
f 5 3 6
f 6 3 4
f 1 3 10
f 10 3 5
f 10 8 1
f 9 4 2
f 2 7 9
f 9 6 4
f 7 8 9
f 8 10 9
f 5 6 9
f 9 10 5
