v -0.0297556535 -0.232439523 0.0550698553
v -0.0297556535 -0.232439523 0.059069923
v -0.0294449941 -0.232201164 0.059069923
v -0.0290833131 -0.232051258 0.059069923
v -0.0294449941 -0.232201164 0.0550698553
v -0.0290833131 -0.232051258 0.0550698553
v -0.0286951677 -0.232000058 0.059069923
v -0.0286951677 -0.232000058 0.0550698553
v -0.0299102874 -0.232641073 0.059069923
v -0.0299102874 -0.232641073 0.0550698553
v -0.0150526874 -0.232000058 0.059069923
v -0.0150526874 -0.232641073 0.059069923
v -0.0150526874 -0.232000058 0.0550698553
v -0.0150526874 -0.232641073 0.0550698553
f 10 12 9
f 14 12 10
f 2 10 9
f 1 10 2
f 11 12 13
f 13 12 14
f 13 7 11
f 13 8 7
f 11 7 4
f 9 12 4
f 4 2 9
f 4 12 11
f 3 2 4
f 7 8 6
f 6 4 7
f 14 10 5
f 5 13 14
f 5 10 1
f 8 13 5
f 5 6 8
f 5 2 3
f 1 2 5
f 3 4 5
f 4 6 5
