v -0.095593031 0.264056001 0.0614999447
v -0.108106913 0.268787863 0.0533601054
v -0.101347806 0.264055981 0.0614999447
v -0.108106913 0.265837564 0.0584352193
v -0.108106913 0.264055982 0.0614999447
v -0.108106913 0.269805349 0.0516097432
v -0.0951449886 0.264392018 0.0609218906
v -0.0951449886 0.264907382 0.0600353868
v -0.0951449886 0.264055995 0.0614999447
v -0.0951449886 0.270595837 0.0502499555
v -0.0951449886 0.268309144 0.0541836177
v -0.0988915321 0.270595863 0.0502499555
v -0.100749145 0.270595804 0.0502499555
v -0.0951449886 0.267078571 0.0563003959
v -0.107567597 0.270595863 0.0502499555
v -0.108106913 0.270595854 0.0502499555
v -0.105490465 0.270595835 0.0502499555
f 5 1 2
f 15 16 2
f 13 10 14
f 7 3 14
f 14 5 13
f 14 3 5
f 9 3 7
f 17 6 16
f 13 6 17
f 13 5 4
f 4 6 13
f 15 11 12
f 8 11 15
f 1 9 8
f 5 3 9
f 1 5 9
f 4 5 2
f 2 16 4
f 16 6 4
f 13 17 12
f 12 10 13
f 16 15 12
f 12 17 16
f 12 11 10
f 8 15 2
f 2 1 8
f 8 14 10
f 7 14 8
f 8 9 7
f 10 11 8
