v -0.212645479 0.0597500158 0.106499902
v -0.214855613 0.0597500158 0.106499902
v -0.212645479 0.0664179495 0.106499902
v -0.219855608 0.064750011 0.0952499126
v -0.219855608 0.064750011 0.106499902
v -0.219771038 0.0639989791 0.0952499126
v -0.219730319 0.0636373711 0.0952499126
v -0.219730319 0.0636373711 0.106499902
v -0.219360532 0.0625805807 0.0952499126
v -0.219360532 0.0625805807 0.106499902
v -0.218764843 0.0616325689 0.0952499126
v -0.218764843 0.0616325689 0.106499902
v -0.217973055 0.0608408404 0.0952499126
v -0.217973055 0.0608408404 0.106499902
v -0.217025103 0.0602451515 0.0952499126
v -0.217025103 0.0602451515 0.106499902
v -0.215968312 0.0598753643 0.106499902
v -0.215968312 0.0598753643 0.0952499126
v -0.214855613 0.0597500158 0.0952499126
v -0.212645479 0.0597500158 0.0952499126
v -0.212645479 0.0664179495 0.0952499126
v -0.219855608 0.0707499934 0.106499902
v -0.219855608 0.0707499934 0.0952499126
f 6 7 8
f 5 4 6
f 8 5 6
f 22 3 23
f 23 3 21
f 20 3 1
f 21 3 20
f 10 9 11
f 10 11 12
f 4 5 22
f 22 23 4
f 19 20 1
f 1 2 19
f 1 3 14
f 22 5 14
f 14 3 22
f 14 10 12
f 14 2 1
f 17 2 14
f 14 16 17
f 8 10 14
f 14 5 8
f 7 10 8
f 9 10 7
f 18 2 17
f 18 19 2
f 17 16 15
f 15 18 17
f 13 4 23
f 21 20 13
f 13 23 21
f 20 19 13
f 18 15 13
f 11 9 13
f 19 18 13
f 9 7 13
f 13 6 4
f 7 6 13
f 16 14 13
f 13 15 16
f 12 11 13
f 13 14 12
