v -0.233239587 0.0934012108 0.133999876
v -0.227913681 0.0880753085 0.12899988
v -0.227913681 0.0880753085 0.133999876
v -0.219506658 0.096482337 0.133999876
v -0.219506658 0.096482337 0.12899988
v -0.219506658 0.0976047284 0.133999876
v -0.229036072 0.0976047284 0.133999876
v -0.233239587 0.0934012108 0.12899988
v -0.229036072 0.0976047284 0.12899988
v -0.219506658 0.0976047284 0.12899988
f 8 3 1
f 2 3 8
f 7 8 1
f 9 8 7
f 10 7 6
f 9 7 10
f 1 3 4
f 4 7 1
f 6 7 4
f 2 8 5
f 5 8 9
f 9 10 5
f 6 4 5
f 5 10 6
f 5 3 2
f 5 4 3
