v 0.251014968 -0.0817499804 0.0839999233
v 0.251014968 -0.094719817 0.0839999233
v 0.250725192 -0.0817499804 0.0839999233
v 0.25755478 -0.0817499804 0.072749934
v 0.250725192 -0.0817499804 0.072749934
v 0.25257941 -0.094719817 0.0813086975
v 0.252827008 -0.094719817 0.08088277
v 0.253465213 -0.094719817 0.0797849053
v 0.254703817 -0.094719817 0.0776544033
v 0.257554889 -0.0863932049 0.072749934
v 0.257554884 -0.094719817 0.072749934
f 4 1 10
f 3 2 1
f 10 1 9
f 1 2 9
f 8 5 11
f 2 5 6
f 5 8 7
f 7 6 5
f 5 4 10
f 10 11 5
f 1 4 3
f 4 5 3
f 3 5 2
f 9 11 10
f 11 9 7
f 7 8 11
f 7 9 2
f 2 6 7
