v 0.137221641 0.249149218 0.0839999233
v 0.129242838 0.251015013 0.0839999233
v 0.136917076 0.249220439 0.07598856
v 0.137499385 0.251015008 0.0839999233
v 0.138293085 0.250221308 0.0839999233
v 0.130959534 0.257554859 0.072749934
v 0.129242838 0.25755486 0.072749934
v 0.138271982 0.250242411 0.0825444446
v 0.138105019 0.250409374 0.072749934
v 0.137939358 0.250243684 0.072749934
v 0.137340633 0.249583519 0.0747514365
f 4 6 2
f 2 6 7
f 3 1 2
f 2 7 3
f 3 7 10
f 11 10 1
f 1 3 11
f 11 3 10
f 5 1 8
f 8 9 5
f 10 9 8
f 1 10 8
f 4 1 5
f 2 1 4
f 10 7 9
f 9 7 6
f 9 4 5
f 6 4 9
