v 0.107689677 0.247354941 0.0902959643
v 0.0986036136 0.251014947 0.0839999233
v 0.107689677 0.247850137 0.0894441074
v 0.0994420875 0.251014944 0.0839999233
v 0.10204458 0.251014937 0.0839999233
v 0.107689677 0.249126549 0.0872483739
v 0.107689677 0.250262882 0.0852937797
v 0.105493021 0.251015028 0.0839999233
v 0.107689677 0.251015026 0.0839999233
v 0.0947198256 0.251014965 0.0839999233
v 0.107689677 0.244620055 0.0950006476
v 0.0947198256 0.244620055 0.0950006476
f 8 10 12
f 2 12 10
f 8 12 7
f 12 11 7
f 8 7 9
f 5 12 4
f 12 2 4
f 1 11 12
f 12 3 1
f 5 9 6
f 6 12 5
f 6 3 12
f 4 10 8
f 8 9 4
f 4 2 10
f 4 9 5
f 6 7 11
f 6 9 7
f 11 1 6
f 6 1 3
