v -0.274855675 0.10537451 0.0389999662
v -0.274855675 0.0986437154 0.0389999662
v -0.274855675 0.10537451 0.0429885898
v -0.274855675 0.0986437154 0.0429885898
v -0.274636807 0.0971804214 0.043365172
v -0.274757923 0.0976601196 0.0389999662
v -0.274468722 0.0967150283 0.0389999662
v -0.274468722 0.0967150283 0.0436542545
v -0.273999156 0.0958452773 0.0389999662
v -0.273999156 0.0958452773 0.0444618974
v -0.273367824 0.0950849605 0.0389999662
v -0.273367824 0.0950849605 0.0455481325
v -0.274831237 0.0981494737 0.0430307899
v -0.274757923 0.0976601196 0.0431566749
v -0.274673426 0.107689674 0.0389999662
v -0.274705711 0.107689674 0.0411359063
v -0.274705711 0.107689674 0.0432466029
v -0.274794044 0.106943662 0.0430946861
v -0.272997833 0.0947198224 0.0461845952
v -0.270634524 0.0947198224 0.0502499555
v -0.270634493 0.0984585576 0.0502499555
v -0.270634528 0.107689674 0.0502499555
v -0.271948087 0.107689674 0.0479904376
v -0.270634584 0.105057491 0.0502499555
v -0.270634516 0.107134526 0.0502499555
v -0.265480669 0.107689674 0.0389999662
v -0.272997833 0.0947198224 0.0389999662
v -0.265480669 0.0947198224 0.0389999662
f 28 21 20
f 22 23 24
f 1 16 15
f 21 26 25
f 25 26 22
f 20 24 19
f 1 3 18
f 18 16 1
f 17 18 23
f 16 18 17
f 10 12 8
f 6 7 5
f 7 8 5
f 5 8 12
f 13 2 6
f 4 2 13
f 3 4 13
f 13 18 3
f 23 18 13
f 13 5 12
f 13 24 23
f 12 19 13
f 13 19 24
f 6 5 14
f 14 13 6
f 5 13 14
f 21 28 26
f 25 24 20
f 20 21 25
f 22 24 25
f 19 27 28
f 19 28 20
f 11 27 19
f 19 12 11
f 17 23 22
f 26 15 17
f 17 15 16
f 22 26 17
f 11 12 9
f 9 12 10
f 7 9 8
f 8 9 10
f 11 9 2
f 2 27 11
f 2 26 28
f 1 15 2
f 28 27 2
f 2 15 26
f 2 7 6
f 2 9 7
f 2 3 1
f 2 4 3
