v -0.0984074489 -0.19985569 0.0614999447
v -0.0984074489 -0.19985569 0.0502499555
v -0.10487193 -0.19985569 0.0502499555
v -0.10487193 -0.19985569 0.0614999447
v -0.10584742 -0.199951713 0.0502499555
v -0.10584742 -0.199951713 0.0614999447
v -0.106785359 -0.200236266 0.0502499555
v -0.106785359 -0.200236266 0.0614999447
v -0.107649745 -0.200698321 0.0502499555
v -0.107649745 -0.200698321 0.0614999447
v -0.10768968 -0.200731093 0.0502499555
v -0.10768968 -0.200731093 0.0614999447
v -0.105530442 -0.209230688 0.0614999447
v -0.105530442 -0.209230688 0.0502499555
v -0.0984074489 -0.209230688 0.0614999447
v -0.0984074489 -0.209230688 0.0502499555
f 2 15 16
f 1 15 2
f 16 15 13
f 13 14 16
f 11 14 13
f 13 12 11
f 3 4 1
f 1 2 3
f 16 14 5
f 5 3 2
f 11 9 5
f 5 2 16
f 5 14 11
f 5 9 7
f 11 12 10
f 10 9 11
f 7 9 10
f 10 8 7
f 1 4 6
f 6 15 1
f 6 13 15
f 12 13 6
f 6 10 12
f 8 10 6
f 4 3 6
f 3 5 6
f 6 5 7
f 7 8 6
