v -0.18941945 -0.0244637179 0.153589777
v -0.189008059 -0.0244153785 0.153271965
v -0.188692392 -0.0243782448 0.152857832
v -0.188630642 -0.0231952119 0.151857785
v -0.188493909 -0.0243549394 0.152375392
v -0.189840259 -0.0255147266 0.153789571
v -0.189357819 -0.0255147266 0.153589777
v -0.188943686 -0.0255147266 0.153271965
v -0.188426317 -0.0243469524 0.151857785
v -0.188357891 -0.0255147266 0.151857785
v -0.188696922 -0.0232110071 0.152375392
v -0.188357891 -0.0275000083 0.151857785
v -0.189840259 -0.0275000083 0.153789571
v -0.189357819 -0.0275000083 0.153589777
v -0.188943686 -0.0275000083 0.153271965
v -0.188625754 -0.0275000083 0.152857832
v -0.188625754 -0.0255147266 0.152857832
v -0.18842596 -0.0275000083 0.152375392
v -0.18842596 -0.0255147266 0.152375392
v -0.191978987 -0.0275000083 0.154478839
v -0.191090684 -0.0137500065 0.153656973
v -0.190857772 -0.0137500065 0.15341365
v -0.190666626 -0.0137500065 0.153133289
v -0.19052398 -0.0137500065 0.152822812
v -0.190435416 -0.0137500065 0.15249072
v -0.190405188 -0.0137500065 0.152147017
v -0.191978987 -0.0137500065 0.154478839
v -0.19662212 -0.0275000083 0.154478839
v -0.19662212 -0.0137500065 0.154478839
v -0.188630642 -0.0231952119 0.145718328
v -0.188426317 -0.0243469524 0.145718328
v -0.188357891 -0.0255147266 0.145718328
v -0.188357891 -0.0275000083 0.145718328
v -0.190389681 -0.0137500065 0.145718328
v -0.193447532 -0.0275000083 0.145718328
v -0.193447532 -0.0137500065 0.145718328
f 34 4 30
f 4 34 26
f 2 22 21
f 21 27 2
f 6 7 27
f 2 27 1
f 1 7 2
f 27 7 1
f 5 17 19
f 5 9 4
f 10 9 5
f 5 19 10
f 2 17 3
f 17 5 3
f 23 22 3
f 3 22 2
f 4 26 25
f 8 17 2
f 2 7 8
f 23 3 24
f 24 3 5
f 25 24 11
f 11 24 5
f 11 5 4
f 4 25 11
f 35 29 36
f 28 29 35
f 20 29 28
f 20 27 29
f 33 35 32
f 32 35 36
f 30 31 32
f 32 34 30
f 36 34 32
f 32 12 33
f 10 12 32
f 9 32 31
f 10 32 9
f 9 31 30
f 30 4 9
f 6 20 13
f 27 20 6
f 14 6 13
f 7 6 14
f 18 17 16
f 19 17 18
f 18 12 10
f 10 19 18
f 28 35 15
f 13 20 15
f 33 12 15
f 15 35 33
f 15 20 28
f 15 14 13
f 15 18 16
f 12 18 15
f 16 17 8
f 8 15 16
f 7 14 8
f 14 15 8
f 36 29 24
f 24 34 36
f 27 21 24
f 29 27 24
f 24 21 22
f 24 22 23
f 24 26 34
f 24 25 26
