v -0.199817003 -0.105304961 0.106499902
v -0.200659694 -0.108082776 0.106499902
v -0.200197639 -0.107218389 0.0952499126
v -0.200197639 -0.107218389 0.106499902
v -0.199913086 -0.106280391 0.0952499126
v -0.199913086 -0.106280391 0.106499902
v -0.199817003 -0.105304961 0.0952499126
v -0.210289897 -0.0994634676 0.106499902
v -0.210289897 -0.0994634676 0.0952499126
v -0.212166251 -0.10271347 0.106499902
v -0.212166251 -0.10271347 0.0952499126
v -0.210289897 -0.105963473 0.106499902
v -0.210289897 -0.105963473 0.0952499126
v -0.200659694 -0.108082776 0.0952499126
v -0.200679504 -0.108106916 0.106499902
v -0.200679504 -0.108106916 0.0952499126
v -0.199817003 -0.0961259353 0.106499902
v -0.199817003 -0.0961259353 0.0952499126
f 15 12 16
f 16 12 13
f 8 18 9
f 17 18 8
f 11 12 10
f 13 12 11
f 10 8 11
f 11 8 9
f 17 1 7
f 7 18 17
f 10 12 2
f 2 8 10
f 2 1 17
f 2 12 15
f 17 8 2
f 2 6 1
f 4 6 2
f 15 16 2
f 16 14 2
f 2 14 3
f 3 4 2
f 5 16 13
f 13 11 5
f 18 7 5
f 5 14 16
f 9 18 5
f 5 11 9
f 3 14 5
f 5 6 4
f 5 4 3
f 5 7 1
f 1 6 5
