v -0.0395000592 -0.217500006 0.0794998918
v -0.0395000592 -0.20235001 0.0794998918
v -0.0395000592 -0.20235001 0.0734999691
v -0.0301000491 -0.20235001 0.0734999691
v -0.0301000491 -0.217500006 0.0734999691
v -0.0395000592 -0.217500006 0.0734999691
v -0.0296250448 -0.217500006 0.0794998918
v -0.0296250448 -0.217500006 0.0759999071
v -0.0296250448 -0.20235001 0.0794998918
v -0.0296250448 -0.20235001 0.0759999071
f 4 3 10
f 2 9 10
f 10 3 2
f 4 5 6
f 6 3 4
f 6 1 2
f 2 3 6
f 8 5 4
f 4 10 8
f 7 9 2
f 2 1 7
f 7 8 10
f 7 10 9
f 7 6 5
f 1 6 7
f 5 8 7
