v 0.212606835 0.0668509001 0.106499902
v 0.219816981 0.0651830387 0.106499902
v 0.219816981 0.0651830387 0.0952499126
v 0.214816986 0.0601829839 0.106499902
v 0.214816986 0.0601829839 0.0952499126
v 0.216111122 0.0603533936 0.0952499126
v 0.216111122 0.0603533936 0.106499902
v 0.217317043 0.0608528805 0.106499902
v 0.217317043 0.0608528805 0.0952499126
v 0.218352495 0.06164747 0.0952499126
v 0.218352495 0.06164747 0.106499902
v 0.219147144 0.0626830411 0.0952499126
v 0.219147144 0.0626830411 0.106499902
v 0.219646631 0.0638889027 0.0952499126
v 0.219646631 0.0638889027 0.106499902
v 0.219761617 0.0647624445 0.0952499126
v 0.212606835 0.0601829839 0.106499902
v 0.212606835 0.0601829839 0.0952499126
v 0.212606835 0.0668509001 0.0952499126
v 0.219816981 0.0711830211 0.0952499126
v 0.219816981 0.0711830211 0.106499902
f 15 14 16
f 16 2 15
f 3 2 16
f 19 1 20
f 20 1 21
f 17 19 18
f 17 1 19
f 5 17 18
f 4 17 5
f 7 5 6
f 4 5 7
f 6 9 7
f 7 9 8
f 14 15 13
f 14 13 12
f 2 3 20
f 2 20 21
f 21 1 11
f 1 17 11
f 4 7 11
f 11 17 4
f 11 2 21
f 13 15 11
f 11 7 8
f 15 2 11
f 18 19 10
f 3 16 10
f 20 3 10
f 19 20 10
f 10 5 18
f 6 5 10
f 10 9 6
f 10 14 12
f 10 16 14
f 12 13 10
f 13 11 10
f 8 9 10
f 10 11 8
