v -0.16340582 -0.219202879 0.0389999662
v -0.16340582 -0.219767422 0.0389999662
v -0.149456543 -0.219202879 0.0389999662
v -0.155999349 -0.227173893 0.0389999662
v -0.149456543 -0.227173893 0.0389999662
v -0.16340582 -0.219202879 0.033999971
v -0.149456543 -0.219202879 0.033999971
v -0.149456543 -0.227173893 0.033999971
v -0.16340582 -0.219767422 0.033999971
v -0.155999349 -0.227173893 0.033999971
f 1 2 5
f 5 3 1
f 5 2 4
f 1 3 7
f 7 6 1
f 3 5 7
f 7 5 8
f 10 5 4
f 8 5 10
f 6 7 9
f 9 7 8
f 8 10 9
f 9 2 1
f 1 6 9
f 4 2 9
f 9 10 4
