v 0.00124889458 -0.217500006 0.059069923
v -0.000195087544 -0.212499981 0.059069923
v -0.000195087544 -0.217500006 0.0570699487
v 0.0127881154 -0.202347507 0.059069923
v -0.000195087544 -0.202347507 0.059069923
v -0.000195087544 -0.217500006 0.0550698553
v -0.000195087544 -0.202347507 0.0550698553
v 0.0148049578 -0.203104918 0.059069923
v 0.0148049578 -0.217500006 0.059069923
v 0.0148049578 -0.217500006 0.0550698553
v 0.0148049578 -0.202347507 0.0550698553
v 0.0148049578 -0.202347507 0.0570699487
f 2 3 1
f 12 4 8
f 6 10 9
f 6 9 1
f 1 3 6
f 7 11 6
f 6 11 10
f 2 6 3
f 2 5 7
f 7 6 2
f 1 9 4
f 4 9 8
f 4 2 1
f 5 2 4
f 9 10 12
f 10 11 12
f 8 9 12
f 12 11 7
f 7 5 12
f 5 4 12
