v -0.105304898 0.199816997 0.106499902
v -0.108082832 0.200659688 0.106499902
v -0.107218327 0.200197632 0.0952499126
v -0.107218327 0.200197632 0.106499902
v -0.106280388 0.19991308 0.0952499126
v -0.106280388 0.19991308 0.106499902
v -0.105304898 0.199816997 0.0952499126
v -0.099463524 0.210289891 0.106499902
v -0.102713527 0.212166245 0.106499902
v -0.102713527 0.212166245 0.0952499126
v -0.099463524 0.210289891 0.0952499126
v -0.10596353 0.210289891 0.106499902
v -0.10596353 0.210289891 0.0952499126
v -0.108082832 0.200659688 0.0952499126
v -0.108106913 0.200679449 0.106499902
v -0.108106913 0.200679449 0.0952499126
v -0.0961259321 0.199816997 0.106499902
v -0.0961259321 0.199816997 0.0952499126
f 15 12 16
f 16 12 13
f 10 12 9
f 13 12 10
f 17 1 7
f 7 18 17
f 9 8 11
f 11 10 9
f 11 8 17
f 17 18 11
f 2 12 15
f 17 8 2
f 2 1 17
f 9 12 2
f 2 8 9
f 2 6 1
f 4 6 2
f 15 16 2
f 16 14 2
f 2 14 3
f 3 4 2
f 5 16 13
f 13 10 5
f 18 7 5
f 5 11 18
f 10 11 5
f 5 14 16
f 3 14 5
f 5 6 4
f 5 4 3
f 5 7 1
f 1 6 5
