v -0.140864939 -0.238657247 0.105258015
v -0.140864939 -0.240186983 0.102626526
v -0.142430947 -0.238620975 0.103481025
v -0.140864939 -0.238560922 0.105423719
v -0.142541721 -0.238510201 0.103541474
v -0.142486768 -0.238565154 0.103511485
v -0.142607891 -0.238444031 0.103577582
v -0.140864939 -0.238444031 0.105624803
v -0.142206862 -0.238444031 0.105624809
v -0.142607891 -0.238444031 0.105624808
v -0.140864939 -0.238903512 0.104834401
v -0.140864939 -0.240186983 0.10262654
v -0.142321616 -0.238730306 0.105132351
f 1 2 3
f 7 8 6
f 1 3 6
f 11 8 9
f 11 13 12
f 1 6 4
f 4 6 8
f 5 10 7
f 5 3 2
f 7 10 8
f 8 10 9
f 10 13 11
f 9 10 11
f 4 12 2
f 4 2 1
f 8 11 4
f 4 11 12
f 12 13 5
f 2 12 5
f 5 13 10
