v 0.0250000342 -0.186200027 0.0804999385
v 0.0197500273 -0.190199976 0.0864998613
v 0.0197500273 -0.190199976 0.0839999233
v 0.0197500273 -0.191066031 0.0824999128
v 0.0250000342 -0.199770008 0.0804999385
v 0.0197500273 -0.199770008 0.0864998613
v 0.0197500273 -0.199770008 0.0824999128
v 0.0250000342 -0.190199976 0.09349995
v 0.0296250417 -0.186200027 0.0804999385
v 0.0296250417 -0.199770008 0.0804999385
v 0.0296250417 -0.199770008 0.0864998613
v 0.0296250417 -0.190199976 0.09349995
v 0.0250000342 -0.186200027 0.09349995
v 0.0296250417 -0.186200027 0.09349995
f 3 1 4
f 3 7 6
f 3 6 2
f 4 7 3
f 2 6 13
f 6 8 13
f 13 3 2
f 1 3 13
f 5 9 10
f 1 9 5
f 5 7 4
f 4 1 5
f 11 5 10
f 7 5 11
f 6 7 11
f 11 8 6
f 11 12 8
f 10 9 14
f 14 11 10
f 12 11 14
f 14 9 1
f 1 13 14
f 8 12 14
f 14 13 8
