v 0.238621901 0.141287747 0.105252346
v 0.238402142 0.141287747 0.105630398
v 0.238402137 0.142649769 0.104032526
v 0.238544981 0.142506925 0.103954372
v 0.239764159 0.141287747 0.103287404
v 0.238594003 0.142457903 0.10392755
v 0.238402133 0.141966279 0.105630398
v 0.238402131 0.142649775 0.105630398
v 0.238402131 0.142649775 0.10476484
v 0.238402132 0.142649774 0.104634567
v 0.23840214 0.142649765 0.105630398
v 0.239331013 0.141720893 0.104032526
v 0.239764159 0.141287747 0.103287416
f 8 11 13
f 9 7 8
f 2 7 10
f 10 3 2
f 7 9 10
f 5 1 6
f 12 11 2
f 2 13 12
f 12 13 11
f 5 6 4
f 4 6 1
f 2 11 7
f 7 11 8
f 2 1 13
f 13 1 5
f 4 13 5
f 8 13 4
f 4 9 8
f 3 9 4
f 4 1 2
f 2 3 4
