v 0.200025974 -0.10616601 0.0389999662
v 0.199855624 -0.104871933 0.0389999662
v 0.199855624 -0.0984074521 0.0389999662
v 0.20052558 -0.107371931 0.0389999662
v 0.200769363 -0.107689654 0.0389999662
v 0.199855624 -0.104871933 0.0502499555
v 0.200025974 -0.10616601 0.0502499555
v 0.20052558 -0.107371931 0.0502499555
v 0.200769363 -0.107689654 0.0502499555
v 0.199855624 -0.0984074521 0.0502499555
v 0.20923063 -0.107689654 0.0389999662
v 0.20923063 -0.0984074521 0.0389999662
v 0.20923063 -0.105530505 0.0502499555
v 0.20923063 -0.0984074521 0.0502499555
f 13 9 11
f 5 11 9
f 13 11 12
f 12 14 13
f 10 12 3
f 14 12 10
f 6 3 2
f 6 10 3
f 7 6 1
f 1 6 2
f 13 14 8
f 10 6 8
f 8 9 13
f 8 6 7
f 14 10 8
f 2 3 4
f 4 12 11
f 11 5 4
f 3 12 4
f 4 1 2
f 4 5 9
f 9 8 4
f 7 1 4
f 4 8 7
