v -0.210289897 -0.0994634676 0.0839999233
v -0.212166251 -0.10271347 0.0839999233
v -0.210289897 -0.105963473 0.0839999233
v -0.210289897 -0.105963473 0.072749934
v -0.218566985 -0.0988404798 0.0789999281
v -0.218566985 -0.0961259353 0.0789999281
v -0.209191994 -0.0961259353 0.0789999281
v -0.209191994 -0.0994634676 0.0839999233
v -0.209191994 -0.105963473 0.072749934
v -0.209191994 -0.105963473 0.0839999233
v -0.209191994 -0.0988404798 0.072749934
v -0.218566985 -0.0988404798 0.072749934
f 5 6 12
f 5 3 2
f 1 6 2
f 2 6 5
f 12 3 5
f 12 4 3
f 9 12 11
f 4 12 9
f 1 8 7
f 7 6 1
f 11 12 7
f 7 12 6
f 10 8 1
f 10 2 3
f 1 2 10
f 10 9 11
f 11 7 10
f 10 7 8
f 3 4 10
f 4 9 10
