v -0.153185926 0.225827888 0.116445635
v -0.153185926 0.225827888 0.105630398
v -0.144049855 0.232115024 0.116445635
v -0.14777022 0.233281683 0.105630398
v -0.144049855 0.237002048 0.108038791
v -0.144049855 0.236465733 0.108961348
v -0.144049855 0.235623194 0.110410868
v -0.145013824 0.236038079 0.109697162
v -0.146197263 0.234854639 0.111732958
v -0.144049855 0.232675949 0.115480793
v -0.15420497 0.226846933 0.105630398
v -0.145432908 0.232115069 0.116445635
v -0.14893683 0.232115073 0.116445635
v -0.15420497 0.226846933 0.116445635
v -0.144049855 0.237002048 0.108038898
f 3 1 2
f 4 2 11
f 3 2 6
f 10 7 13
f 3 10 12
f 12 10 13
f 13 7 9
f 7 15 8
f 8 9 7
f 1 14 2
f 2 14 11
f 6 4 5
f 2 4 6
f 15 6 5
f 3 6 15
f 15 10 3
f 7 10 15
f 12 14 1
f 12 1 3
f 12 13 14
f 11 14 8
f 14 13 8
f 8 4 11
f 5 4 8
f 8 15 5
f 13 9 8
