v 0.219816981 0.0771830631 0.106499902
v 0.219816981 0.0771830631 0.117749891
v 0.219987331 0.0784770799 0.106499902
v 0.219987331 0.0784770799 0.117749891
v 0.220486818 0.0796830011 0.106499902
v 0.220486818 0.0796830011 0.117749891
v 0.221281467 0.0807185722 0.117749891
v 0.221281467 0.0807185722 0.106499902
v 0.222317038 0.0815131021 0.106499902
v 0.222317038 0.0815131021 0.117749891
v 0.22352284 0.082012589 0.106499902
v 0.22352284 0.082012589 0.117749891
v 0.224816976 0.0821830583 0.106499902
v 0.224816976 0.0821830583 0.117749891
v 0.22539667 0.0821830583 0.106499902
v 0.22539667 0.0821830583 0.117749891
v 0.219816981 0.0721639645 0.117749891
v 0.219816981 0.0721639645 0.106499902
f 15 16 18
f 18 16 17
f 2 1 18
f 2 18 17
f 18 1 8
f 15 18 8
f 8 13 15
f 8 3 5
f 9 11 8
f 11 13 8
f 1 3 8
f 6 7 8
f 5 6 8
f 9 8 10
f 10 8 7
f 5 3 4
f 4 6 5
f 1 2 4
f 4 3 1
f 12 11 9
f 9 10 12
f 14 2 17
f 17 16 14
f 14 10 7
f 14 7 6
f 6 4 14
f 14 4 2
f 14 12 10
f 14 16 15
f 15 13 14
f 14 13 11
f 11 12 14
