v 0.200679452 0.108106906 0.12899988
v 0.213253672 0.108106906 0.12899988
v 0.206892377 0.11937666 0.12899988
v 0.213253672 0.11937666 0.12899988
v 0.206005274 0.113564308 0.117749891
v 0.20729941 0.118393953 0.117749891
v 0.20746976 0.117099936 0.117749891
v 0.20729941 0.1158058 0.117749891
v 0.206799923 0.114599879 0.117749891
v 0.200679452 0.108106906 0.117749891
v 0.206892377 0.11937666 0.117749891
f 10 2 1
f 4 11 3
f 11 4 6
f 5 9 2
f 2 10 5
f 2 9 8
f 7 6 4
f 7 4 2
f 1 3 10
f 3 11 10
f 1 2 4
f 4 3 1
f 7 10 11
f 7 5 10
f 11 6 7
f 9 5 7
f 7 8 9
f 2 8 7
