v -0.264055989 -0.108106916 0.0614999447
v -0.270103119 -0.118697423 0.0502499555
v -0.270595843 -0.118072456 0.0502499555
v -0.269805356 -0.108106916 0.0516097432
v -0.27059586 -0.108106916 0.0502499555
v -0.270595866 -0.112888289 0.0502499555
v -0.268787887 -0.108106916 0.0533600759
v -0.270025076 -0.118796413 0.051231793
v -0.269939653 -0.118888824 0.0513787378
v -0.265837581 -0.108106916 0.0584352008
v -0.264055989 -0.118888824 0.0614999447
v -0.269939642 -0.118888824 0.0502499555
v -0.269939653 -0.118888824 0.0502515753
f 3 11 6
f 7 5 6
f 6 11 7
f 7 11 1
f 1 11 12
f 9 11 8
f 11 3 8
f 8 3 2
f 4 12 5
f 1 12 10
f 12 4 10
f 12 3 6
f 6 5 12
f 2 3 12
f 13 11 9
f 13 12 11
f 9 8 13
f 2 12 13
f 13 8 2
f 5 7 10
f 10 7 1
f 10 4 5
