v 0.123463808 -0.20317692 0.072749934
v 0.123463808 -0.20317692 0.0614999447
v 0.124339162 -0.202478831 0.072749934
v 0.124339162 -0.202478831 0.0614999447
v 0.12534803 -0.201992993 0.072749934
v 0.12534803 -0.201992993 0.0614999447
v 0.12643951 -0.201743846 0.072749934
v 0.12643951 -0.201743846 0.0614999447
v 0.127559243 -0.201743846 0.072749934
v 0.127559243 -0.201743846 0.0614999447
v 0.128650723 -0.201992993 0.072749934
v 0.128650723 -0.201992993 0.0614999447
v 0.129659592 -0.202478831 0.072749934
v 0.129659592 -0.202478831 0.0614999447
v 0.130534945 -0.20317692 0.072749934
v 0.130534945 -0.20317692 0.0614999447
v 0.132092474 -0.204734453 0.072749934
v 0.132092474 -0.204734453 0.0614999447
v 0.12010756 -0.206410386 0.0614999447
v 0.12010756 -0.206410386 0.072749934
f 17 20 18
f 18 20 19
f 19 20 2
f 20 1 2
f 15 20 17
f 13 11 15
f 15 9 7
f 15 1 20
f 3 1 15
f 7 5 15
f 15 5 3
f 15 11 9
f 17 18 15
f 18 16 15
f 15 16 14
f 14 13 15
f 3 5 4
f 4 5 6
f 4 1 3
f 4 2 1
f 12 11 13
f 12 13 14
f 9 11 12
f 12 10 9
f 7 9 8
f 9 10 8
f 8 18 19
f 14 16 8
f 19 2 8
f 8 16 18
f 8 4 6
f 8 12 14
f 2 4 8
f 10 12 8
f 8 5 7
f 6 5 8
