v 0.233239565 -0.0934012062 0.133999876
v 0.227913661 -0.0880753054 0.12899988
v 0.227913661 -0.0880753054 0.133999876
v 0.219506636 -0.0964823356 0.133999876
v 0.219506636 -0.0964823356 0.12899988
v 0.219506636 -0.0976047247 0.133999876
v 0.229036049 -0.0976047247 0.133999876
v 0.233239565 -0.0934012062 0.12899988
v 0.229036049 -0.0976047247 0.12899988
v 0.219506636 -0.0976047247 0.12899988
f 8 3 1
f 2 3 8
f 7 8 1
f 9 8 7
f 4 7 1
f 1 3 4
f 6 7 4
f 4 3 2
f 2 5 4
f 2 8 10
f 10 5 2
f 10 8 9
f 10 4 5
f 6 4 10
f 10 7 6
f 9 7 10
