v 0.199817 0.105304892 0.106499902
v 0.200659691 0.108082826 0.106499902
v 0.200197636 0.10721832 0.0952499126
v 0.200197636 0.10721832 0.106499902
v 0.199913083 0.106280382 0.0952499126
v 0.199913083 0.106280382 0.106499902
v 0.199817 0.105304892 0.0952499126
v 0.210289894 0.0994635177 0.106499902
v 0.210289894 0.0994635177 0.0952499126
v 0.212166248 0.102713521 0.106499902
v 0.212166248 0.102713521 0.0952499126
v 0.210289894 0.105963523 0.106499902
v 0.210289894 0.105963523 0.0952499126
v 0.200659691 0.108082826 0.0952499126
v 0.200679452 0.108106906 0.106499902
v 0.200679452 0.108106906 0.0952499126
v 0.199817 0.0961259258 0.106499902
v 0.199817 0.0961259258 0.0952499126
f 12 16 15
f 13 16 12
f 11 12 10
f 13 12 11
f 10 8 11
f 11 8 9
f 18 8 17
f 9 8 18
f 17 1 7
f 7 18 17
f 10 12 2
f 2 8 10
f 2 1 17
f 2 12 15
f 17 8 2
f 2 6 1
f 4 6 2
f 15 16 2
f 16 14 2
f 2 14 3
f 3 4 2
f 5 16 13
f 13 11 5
f 18 7 5
f 5 14 16
f 5 11 9
f 9 18 5
f 3 14 5
f 5 6 4
f 5 4 3
f 5 7 1
f 1 6 5
