v -1.54198831e-09 -0.191357854 0.136957816
v -1.54198831e-09 -0.191357854 0.13695798
v 0.0137500002 -0.190368314 0.136957816
v -1.54198831e-09 -0.193447535 0.136957816
v 0.0137500002 -0.193447535 0.136957816
v -1.54198831e-09 -0.191357856 0.145718328
v 0.0137500002 -0.190389692 0.145718328
v 0.0137500002 -0.193447535 0.145718328
v -1.54198831e-09 -0.193447535 0.145718328
f 6 7 3
f 3 1 2
f 2 6 3
f 4 3 5
f 4 1 3
f 8 6 9
f 7 6 8
f 9 4 8
f 8 4 5
f 5 3 8
f 3 7 8
f 9 6 2
f 2 4 9
f 1 4 2
