v 0.212645476 -0.066417959 0.106499902
v 0.199855624 -0.0717349323 0.106499902
v 0.204855619 -0.0597500252 0.106499902
v 0.204855619 -0.0597500252 0.117749891
v 0.203603087 -0.0599094677 0.106499902
v 0.203603087 -0.0599094677 0.117749891
v 0.202430306 -0.0603776025 0.106499902
v 0.202430306 -0.0603776025 0.117749891
v 0.201412259 -0.0611246276 0.106499902
v 0.201412259 -0.0611246276 0.117749891
v 0.200613795 -0.0621029186 0.106499902
v 0.200613795 -0.0621029186 0.117749891
v 0.200085936 -0.06325001 0.106499902
v 0.200085936 -0.06325001 0.117749891
v 0.199855624 -0.0662499714 0.117749891
v 0.199855624 -0.0662499714 0.106499902
v 0.211732088 -0.0680000233 0.106499902
v 0.211732088 -0.0680000233 0.117749891
v 0.212645476 -0.0597500252 0.117749891
v 0.212645476 -0.0597500252 0.106499902
v 0.212645476 -0.066417959 0.117749891
v 0.199855624 -0.0717349323 0.117749891
f 19 21 1
f 1 20 19
f 18 17 1
f 1 21 18
f 18 2 17
f 18 22 2
f 7 8 6
f 6 5 7
f 11 13 14
f 14 12 11
f 1 17 9
f 9 20 1
f 9 13 11
f 17 2 9
f 2 16 9
f 9 3 20
f 9 7 5
f 5 3 9
f 9 16 13
f 12 10 9
f 11 12 9
f 9 10 8
f 8 7 9
f 4 19 20
f 20 3 4
f 4 5 6
f 4 3 5
f 12 14 15
f 15 10 12
f 19 4 15
f 15 18 21
f 21 19 15
f 6 8 15
f 22 18 15
f 8 10 15
f 15 4 6
f 2 22 15
f 15 16 2
f 13 16 15
f 15 14 13
