v 0.127860485 0.201921518 0.12899988
v 0.126566349 0.201751049 0.12899988
v 0.12303084 0.203215535 0.12899988
v 0.124066411 0.202421005 0.12899988
v 0.125272213 0.201921518 0.12899988
v 0.129066406 0.202421005 0.12899988
v 0.130101858 0.203215535 0.12899988
v 0.130224528 0.203338204 0.12899988
v 0.118957102 0.206925465 0.12899988
v 0.130224528 0.213302069 0.12899988
v 0.118957102 0.213302069 0.12899988
v 0.12303084 0.203215535 0.117749891
v 0.130101858 0.203215535 0.117749891
v 0.129066406 0.202421005 0.117749891
v 0.127860485 0.201921518 0.117749891
v 0.126566349 0.201751049 0.117749891
v 0.125272213 0.201921518 0.117749891
v 0.124066411 0.202421005 0.117749891
v 0.130224528 0.203338204 0.117749891
v 0.118957102 0.206925465 0.117749891
f 11 10 20
f 9 11 20
f 20 10 19
f 10 8 19
f 3 20 12
f 9 20 3
f 3 12 18
f 18 4 3
f 14 6 1
f 1 15 14
f 5 11 9
f 5 10 11
f 8 10 5
f 9 3 5
f 1 6 5
f 5 3 4
f 5 2 1
f 5 7 8
f 6 7 5
f 1 2 16
f 16 15 1
f 19 8 13
f 8 7 13
f 13 7 6
f 6 14 13
f 12 20 17
f 17 20 19
f 18 12 17
f 19 13 17
f 17 14 15
f 15 16 17
f 17 13 14
f 17 4 18
f 17 5 4
f 2 5 17
f 17 16 2
