v 0.193447529 -0.0450000214 0.14895778
v 0.188357888 -0.0450000214 0.14895778
v 0.193447529 -0.0450000214 0.153857759
v 0.190357862 -0.0450000214 0.153857759
v 0.188357888 -0.0450000214 0.151857785
v 0.189357816 -0.0450000214 0.153589777
v 0.188625871 -0.0450000214 0.152857832
v 0.189840256 -0.0450000214 0.153789571
v 0.188425957 -0.0450000214 0.152375392
v 0.191978984 -0.0395000028 0.154478839
v 0.196622117 -0.0395000028 0.154478839
v 0.193447529 -0.0396999764 0.145718328
v 0.188357888 -0.0396999764 0.145718328
v 0.188357888 -0.0362500149 0.151857785
v 0.189840256 -0.0362500149 0.153789571
v 0.189357816 -0.0362500149 0.153589777
v 0.188943683 -0.0362500149 0.153271965
v 0.188943683 -0.0450000214 0.153271965
v 0.188625871 -0.0362500149 0.152857832
v 0.188425957 -0.0362500149 0.152375392
v 0.191978984 -0.0362500149 0.154478839
v 0.196622117 -0.0362500149 0.154478839
v 0.188357888 -0.0362500149 0.145718328
v 0.193447529 -0.0362500149 0.145718328
f 1 12 11
f 3 1 11
f 8 4 10
f 12 1 13
f 13 1 2
f 12 13 24
f 24 13 23
f 5 13 2
f 23 13 5
f 14 23 5
f 12 24 22
f 11 12 22
f 10 22 21
f 11 22 10
f 11 10 4
f 4 3 11
f 16 17 18
f 6 16 18
f 14 5 20
f 20 5 9
f 2 1 8
f 6 18 8
f 8 5 2
f 1 3 8
f 9 5 8
f 8 7 9
f 3 4 8
f 8 18 7
f 8 10 21
f 21 15 8
f 7 18 19
f 19 18 17
f 9 7 19
f 19 20 9
f 19 23 14
f 19 24 23
f 19 22 24
f 19 15 21
f 21 22 19
f 19 17 16
f 14 20 19
f 16 15 19
f 8 15 16
f 8 16 6
