v 0.219816981 0.0771830631 0.0839999233
v 0.219987331 0.0784770799 0.0839999233
v 0.220486818 0.0796830011 0.0839999233
v 0.221281467 0.0807185722 0.0839999233
v 0.222317038 0.0815131021 0.0839999233
v 0.22352284 0.082012589 0.0839999233
v 0.218566982 0.0841449452 0.0789999281
v 0.219816981 0.0730359654 0.0839999233
v 0.219816981 0.0730359654 0.0789999281
v 0.218566982 0.0730359654 0.0789999281
v 0.227941973 0.0821830583 0.0789999281
v 0.224816976 0.0821830583 0.0839999233
v 0.227941973 0.0821830583 0.0839999233
v 0.227941973 0.0841449452 0.0789999281
f 9 8 10
f 14 13 11
f 5 7 4
f 6 12 7
f 6 7 5
f 7 2 3
f 3 4 7
f 13 9 11
f 13 8 9
f 14 10 7
f 11 9 14
f 9 10 14
f 12 14 7
f 13 14 12
f 1 10 8
f 7 10 1
f 1 2 7
f 3 1 8
f 8 13 3
f 5 4 3
f 3 6 5
f 13 12 3
f 2 1 3
f 12 6 3
