v -1.54198831e-09 -0.226269995 0.0864998613
v -1.54198831e-09 -0.239200001 0.0804999385
v -1.54198831e-09 -0.226269995 0.0804999385
v 0.00987501288 -0.239200001 0.0804999385
v 0.00987501288 -0.239200001 0.0914998565
v -1.54198831e-09 -0.23619998 0.0914998565
v -1.54198831e-09 -0.239200001 0.0914998565
v 0.00987501288 -0.23619998 0.0914998565
v 0.00987501288 -0.226269995 0.0864998613
v 0.00987501288 -0.226269995 0.0804999385
f 7 2 4
f 4 5 7
f 3 10 4
f 4 2 3
f 10 3 9
f 9 3 1
f 2 7 6
f 6 3 2
f 1 3 6
f 4 10 8
f 8 5 4
f 10 9 8
f 8 7 5
f 8 6 7
f 8 9 1
f 1 6 8
