v -0.136960914 0.249272267 0.0763932661
v -0.129670744 0.250976327 0.0839999233
v -0.137271952 0.249199563 0.0839999233
v -0.131392585 0.257516155 0.072749934
v -0.138302189 0.250606551 0.072749934
v -0.137932413 0.250976327 0.0839999233
v -0.138466436 0.250442305 0.0836230463
v -0.138490239 0.250418502 0.0839999233
v -0.129670744 0.257516155 0.072749934
v -0.138115592 0.250419925 0.072749934
v -0.137492568 0.249732718 0.0748326754
f 5 3 8
f 6 4 8
f 8 4 7
f 7 5 8
f 4 5 7
f 2 3 1
f 1 9 2
f 9 1 10
f 3 5 10
f 11 1 3
f 3 10 11
f 11 10 1
f 6 3 2
f 8 3 6
f 9 6 2
f 4 6 9
f 4 9 10
f 10 5 4
