v -0.264056006 -0.0863663987 0.0614999447
v -0.268051935 -0.095144962 0.0546259408
v -0.264392012 -0.095144962 0.060921912
v -0.264056009 -0.093285714 0.0614999447
v -0.264907386 -0.095144962 0.060035391
v -0.264056001 -0.095144962 0.0614999447
v -0.264056009 -0.0916065089 0.0614999447
v -0.265970272 -0.095144962 0.0582069928
v -0.266518719 -0.095144962 0.0572635412
v -0.261277379 -0.0836241889 0.0614999447
v -0.261277379 -0.0836241889 0.0502499555
v -0.257765235 -0.0821830082 0.0614999447
v -0.259048642 -0.0823505568 0.0502499555
v -0.259048642 -0.0823505568 0.0614999447
v -0.2602461 -0.0828419375 0.0502499555
v -0.2602461 -0.0828419375 0.0614999447
v -0.257765235 -0.0821830082 0.0502499555
v -0.25606695 -0.0821830082 0.0614999447
v -0.25606695 -0.0821830082 0.0502499555
v -0.270595827 -0.0928205068 0.0502499555
v -0.270595812 -0.095144962 0.0502499555
f 9 1 20
f 20 21 9
f 6 19 18
f 1 9 8
f 5 6 4
f 2 21 19
f 1 8 7
f 19 6 3
f 3 2 19
f 15 11 10
f 10 16 15
f 10 11 20
f 20 1 10
f 7 8 5
f 5 4 7
f 21 2 3
f 5 8 3
f 3 9 21
f 3 6 5
f 3 8 9
f 14 13 15
f 15 16 14
f 19 21 17
f 17 21 20
f 20 11 17
f 17 11 15
f 15 13 17
f 1 7 12
f 12 6 18
f 12 10 1
f 12 4 6
f 16 10 12
f 12 7 4
f 12 14 16
f 19 17 12
f 18 19 12
f 13 14 12
f 12 17 13
