v -0.0150000468 -0.187195008 0.0550698553
v -0.0150000468 -0.187195008 0.059069923
v -0.000195087544 -0.187195008 0.059069923
v -0.000195087544 -0.187195008 0.0550698553
v -0.000195087544 -0.202347507 0.059069923
v -0.000195087544 -0.202347507 0.0550698553
v -0.0151951328 -0.187217874 0.059069923
v -0.0151951328 -0.187217874 0.0550698553
v -0.0151951328 -0.202347507 0.059069923
v -0.0151951328 -0.202347507 0.0550698553
f 9 7 8
f 8 10 9
f 10 6 5
f 5 9 10
f 7 9 2
f 9 5 2
f 2 5 3
f 3 5 4
f 4 5 6
f 1 10 8
f 1 6 10
f 1 4 6
f 8 7 1
f 7 2 1
f 1 2 3
f 3 4 1
