v -0.060419859 -0.217355673 0.12899988
v -0.0599203721 -0.216149752 0.12899988
v -0.059750022 -0.214855676 0.12899988
v -0.0647500173 -0.219855671 0.12899988
v -0.0634558812 -0.219685321 0.12899988
v -0.0622499601 -0.219185774 0.12899988
v -0.0612145082 -0.218391185 0.12899988
v -0.059750022 -0.212645527 0.12899988
v -0.0717349366 -0.219855671 0.12899988
v -0.0717349366 -0.212645527 0.12899988
v -0.0647500173 -0.219855671 0.117749891
v -0.0634558812 -0.219685321 0.117749891
v -0.0622499601 -0.219185774 0.117749891
v -0.0612145082 -0.218391185 0.117749891
v -0.060419859 -0.217355673 0.117749891
v -0.0599203721 -0.216149752 0.117749891
v -0.059750022 -0.214855676 0.117749891
v -0.059750022 -0.212645527 0.117749891
v -0.0664178254 -0.212645527 0.117749891
v -0.0717349366 -0.219855671 0.117749891
f 9 10 20
f 20 10 19
f 4 9 11
f 9 20 11
f 8 18 19
f 19 10 8
f 5 11 12
f 4 11 5
f 17 8 3
f 18 8 17
f 16 17 2
f 2 17 3
f 15 11 20
f 19 18 15
f 12 11 15
f 18 17 15
f 15 20 19
f 14 13 15
f 15 13 12
f 15 17 16
f 15 1 7
f 15 7 14
f 15 2 1
f 16 2 15
f 4 5 6
f 6 10 9
f 6 9 4
f 3 8 6
f 7 1 6
f 6 2 3
f 6 8 10
f 1 2 6
f 6 13 14
f 14 7 6
f 6 5 12
f 12 13 6
