v 0.191357909 -4.74063244e-09 0.153857759
v 0.191978984 -4.74063244e-09 0.154478839
v 0.190405185 -0.0137500065 0.152147017
v 0.190431374 -0.0137500065 0.152450837
v 0.190435413 -0.0137500065 0.15249072
v 0.190513995 -0.0137500065 0.152790914
v 0.190523977 -0.0137500065 0.152822812
v 0.190654224 -0.0137500065 0.153110845
v 0.190666623 -0.0137500065 0.153133289
v 0.190846718 -0.0137500065 0.153400663
v 0.190857769 -0.0137500065 0.15341365
v 0.191084388 -0.0137500065 0.15365203
v 0.191978984 -0.0137500065 0.154478839
v 0.196622117 -4.74063244e-09 0.154478839
v 0.196622117 -0.0137500065 0.154478839
v 0.191357909 -4.74063244e-09 0.145718328
v 0.190388905 -0.0137500065 0.145718328
v 0.193447529 -4.74063244e-09 0.145718328
v 0.193447529 -0.0137500065 0.145718328
f 17 1 16
f 3 1 17
f 4 5 1
f 1 3 4
f 12 2 1
f 13 2 12
f 1 5 6
f 6 7 1
f 9 10 1
f 1 10 11
f 11 12 1
f 1 7 8
f 8 9 1
f 14 2 15
f 15 2 13
f 17 16 18
f 18 19 17
f 18 16 1
f 18 2 14
f 1 2 18
f 18 15 19
f 14 15 18
f 17 19 8
f 8 15 13
f 8 3 17
f 19 15 8
f 13 12 8
f 5 4 8
f 8 4 3
f 8 6 5
f 10 9 8
f 7 6 8
f 8 11 10
f 12 11 8
