v 0.0984074458 0.199855621 0.072749934
v 0.0984074458 0.199855621 0.0614999447
v 0.104871927 0.199855621 0.0614999447
v 0.104871927 0.199855621 0.072749934
v 0.105847417 0.199951704 0.0614999447
v 0.105847417 0.199951704 0.072749934
v 0.106785355 0.200236256 0.0614999447
v 0.106785355 0.200236256 0.072749934
v 0.107649742 0.200698311 0.0614999447
v 0.107649742 0.200698311 0.072749934
v 0.107689677 0.200731084 0.0614999447
v 0.107689677 0.200731084 0.072749934
v 0.105530439 0.209230627 0.0614999447
v 0.105530439 0.209230627 0.072749934
v 0.0984074458 0.209230627 0.0614999447
v 0.0984074458 0.209230627 0.072749934
f 14 12 13
f 13 12 11
f 15 16 14
f 14 13 15
f 1 16 15
f 15 2 1
f 9 13 11
f 9 15 13
f 9 3 2
f 5 3 9
f 2 15 9
f 9 7 5
f 11 12 9
f 12 10 9
f 8 7 9
f 9 10 8
f 5 7 6
f 6 7 8
f 1 2 4
f 2 3 4
f 4 12 14
f 4 16 1
f 14 16 4
f 4 6 8
f 4 10 12
f 8 10 4
f 4 3 5
f 5 6 4
