v -0.246869394 0.107689674 0.0911312736
v -0.249126556 0.107689674 0.0872483739
v -0.251014943 0.102044577 0.0839999233
v -0.250262888 0.107689674 0.0852937797
v -0.251015034 0.105493018 0.0839999233
v -0.251015033 0.107689674 0.0839999233
v -0.24830347 0.0947198224 0.0886642723
v -0.251014946 0.0947198224 0.0839999233
v -0.244620042 0.107689674 0.0950005972
v -0.244620042 0.0947198224 0.0950005972
f 8 7 5
f 5 7 10
f 10 8 3
f 9 10 2
f 2 10 3
f 1 10 9
f 6 2 3
f 4 6 5
f 5 10 4
f 10 1 4
f 3 8 6
f 6 8 5
f 4 1 9
f 9 2 4
f 2 6 4
