v -0.0275000051 0.193447526 0.145718328
v -0.0275000051 0.188357885 0.151857785
v -0.0362500117 0.188357885 0.151857785
v -0.0275000051 0.189840252 0.153789571
v -0.0362500117 0.189840252 0.153789571
v -0.0275000051 0.189357812 0.153589777
v -0.0362500117 0.189357812 0.153589777
v -0.0362500117 0.188943679 0.153271965
v -0.0275000051 0.188943679 0.153271965
v -0.0362500117 0.188625867 0.152857832
v -0.0275000051 0.188625867 0.152857832
v -0.0362500117 0.188425953 0.152375392
v -0.0275000051 0.188425953 0.152375392
v -0.0275000051 0.191978981 0.154478839
v -0.0362500117 0.191978981 0.154478839
v -0.0362500117 0.196622114 0.154478839
v -0.0275000051 0.196622114 0.154478839
v -0.0362500117 0.188357885 0.145718328
v -0.0275000051 0.188357885 0.145718328
v -0.0362500117 0.193447526 0.145718328
f 16 15 17
f 17 15 14
f 1 20 16
f 16 17 1
f 20 1 18
f 18 1 19
f 2 18 19
f 2 3 18
f 12 2 13
f 3 2 12
f 13 11 12
f 12 11 10
f 14 15 5
f 5 4 14
f 6 4 5
f 5 7 6
f 19 1 9
f 9 1 17
f 9 17 14
f 14 4 9
f 9 2 19
f 9 4 6
f 13 2 9
f 9 11 13
f 16 20 8
f 8 5 15
f 8 15 16
f 20 18 8
f 18 3 8
f 3 12 8
f 8 12 10
f 7 5 8
f 10 11 8
f 11 9 8
f 6 7 8
f 8 9 6
