v 0.118957102 0.206925465 0.106499902
v 0.12303084 0.203215535 0.0952499126
v 0.130101858 0.203215535 0.0952499126
v 0.129066406 0.202421005 0.106499902
v 0.129066406 0.202421005 0.0952499126
v 0.127860485 0.201921518 0.106499902
v 0.127860485 0.201921518 0.0952499126
v 0.126566349 0.201751049 0.106499902
v 0.126566349 0.201751049 0.0952499126
v 0.125272213 0.201921518 0.106499902
v 0.125272213 0.201921518 0.0952499126
v 0.124066411 0.202421005 0.106499902
v 0.124066411 0.202421005 0.0952499126
v 0.12303084 0.203215535 0.106499902
v 0.130101858 0.203215535 0.106499902
v 0.130224528 0.203338204 0.0952499126
v 0.130224528 0.203338204 0.106499902
v 0.118957102 0.206925465 0.0952499126
f 1 17 16
f 16 18 1
f 14 2 13
f 13 12 14
f 14 1 18
f 18 2 14
f 11 18 16
f 13 2 11
f 16 3 11
f 7 9 11
f 11 5 7
f 11 2 18
f 11 3 5
f 11 10 12
f 11 12 13
f 8 10 11
f 11 9 8
f 6 9 7
f 8 9 6
f 7 5 6
f 5 4 6
f 15 14 12
f 15 10 8
f 17 1 15
f 12 10 15
f 8 6 15
f 1 14 15
f 15 6 4
f 16 17 15
f 15 3 16
f 5 3 15
f 15 4 5
