v -0.249149223 0.137221646 0.0839999233
v -0.25101502 0.129242835 0.0839999233
v -0.249220443 0.136917082 0.0759885516
v -0.25022131 0.138293087 0.0839999233
v -0.251015015 0.137499382 0.0839999233
v -0.257554866 0.129242835 0.072749934
v -0.250243686 0.13793936 0.072749934
v -0.250303176 0.138211221 0.0791974116
v -0.250409376 0.138105021 0.072749934
v -0.250308825 0.138004499 0.072749934
v -0.257554865 0.130959531 0.072749934
f 7 2 6
f 1 2 3
f 3 7 1
f 2 7 3
f 9 4 1
f 1 7 10
f 10 9 1
f 8 5 4
f 4 9 8
f 2 5 11
f 6 2 11
f 1 4 5
f 5 2 1
f 11 10 7
f 11 7 6
f 9 10 11
f 11 8 9
f 5 8 11
