v 0.118363438 0.270063813 0.051231793
v 0.107689677 0.26409472 0.0614999447
v 0.118455998 0.269978248 0.0502499555
v 0.107689677 0.266849186 0.0567616693
v 0.117639482 0.27063451 0.0502499555
v 0.107689677 0.267832537 0.0550699471
v 0.109566681 0.270634563 0.0502499555
v 0.107689677 0.269850664 0.0515984384
v 0.107689677 0.270634522 0.0502499555
v 0.118466258 0.269968764 0.0513952959
v 0.118466258 0.264094713 0.0614999447
v 0.118466258 0.269968764 0.0502771932
v 0.118466258 0.269968764 0.0502499555
f 10 1 11
f 5 1 3
f 11 2 13
f 3 12 13
f 11 1 4
f 4 2 11
f 1 5 7
f 9 8 7
f 9 13 6
f 6 13 2
f 10 12 3
f 3 1 10
f 13 10 11
f 3 13 7
f 7 5 3
f 7 13 9
f 8 4 7
f 7 4 1
f 2 4 6
f 6 4 8
f 6 8 9
