v -0.234673688 0.146378215 0.105624813
v -0.225873061 0.152759375 0.105624813
v -0.237099039 0.143644418 0.1079384
v -0.237407485 0.143644418 0.107407825
v -0.225873061 0.152759375 0.116437258
v -0.232158566 0.143644418 0.116437258
v -0.232871823 0.143644418 0.115210223
v -0.234053405 0.143644418 0.113177617
v -0.236226815 0.143644418 0.109439015
v -0.237407485 0.143644418 0.107407943
v -0.232158591 0.148893312 0.116437258
v -0.235594945 0.145456958 0.110525979
v -0.227082794 0.153969108 0.105624813
v -0.227082794 0.153969108 0.116437258
v -0.236529689 0.144522214 0.108917989
f 2 5 6
f 1 13 2
f 2 6 7
f 6 11 9
f 8 3 2
f 2 7 8
f 10 15 4
f 9 15 10
f 12 9 11
f 12 15 9
f 14 5 2
f 2 13 14
f 5 14 11
f 11 6 5
f 4 1 3
f 3 1 2
f 4 3 10
f 10 8 7
f 10 7 6
f 6 9 10
f 3 8 10
f 12 14 13
f 12 1 4
f 13 1 12
f 12 11 14
f 4 15 12
