v 0.113564311 -0.20600534 0.072749934
v 0.113564311 -0.20600534 0.0614999447
v 0.119599877 -0.206799929 0.0614999447
v 0.119599877 -0.206799929 0.072749934
v 0.118393956 -0.207299416 0.0614999447
v 0.118393956 -0.207299416 0.072749934
v 0.117099939 -0.207469766 0.0614999447
v 0.117099939 -0.207469766 0.072749934
v 0.115805803 -0.207299416 0.0614999447
v 0.115805803 -0.207299416 0.072749934
v 0.114599882 -0.206799929 0.0614999447
v 0.114599882 -0.206799929 0.072749934
v 0.108122645 -0.200692312 0.0614999447
v 0.108122645 -0.200692312 0.072749934
v 0.12010756 -0.206410386 0.0614999447
v 0.12010756 -0.206410386 0.072749934
f 16 15 13
f 13 14 16
f 9 2 13
f 13 15 9
f 15 3 9
f 9 5 7
f 11 2 9
f 9 3 5
f 7 5 8
f 8 5 6
f 8 9 7
f 10 9 8
f 5 3 4
f 6 5 4
f 15 16 4
f 4 3 15
f 11 9 12
f 12 9 10
f 1 16 14
f 1 12 10
f 1 8 6
f 10 8 1
f 6 4 1
f 1 4 16
f 1 14 13
f 13 2 1
f 1 2 11
f 11 12 1
