v -0.0616474763 0.218352492 0.12899988
v -0.0626830474 0.219147141 0.12899988
v -0.0638889686 0.219646628 0.12899988
v -0.0651829854 0.219816978 0.12899988
v -0.0601829902 0.214816983 0.12899988
v -0.0603533403 0.216111119 0.12899988
v -0.0608528272 0.21731704 0.12899988
v -0.0601829902 0.212606832 0.12899988
v -0.0721639708 0.219816978 0.12899988
v -0.0721639708 0.212606832 0.12899988
v -0.0651829854 0.219816978 0.117749891
v -0.0601829902 0.214816983 0.117749891
v -0.0603533403 0.216111119 0.117749891
v -0.0608528272 0.21731704 0.117749891
v -0.0616474763 0.218352492 0.117749891
v -0.0626830474 0.219147141 0.117749891
v -0.0638889686 0.219646628 0.117749891
v -0.0601829902 0.212606832 0.117749891
v -0.0668508468 0.212606832 0.117749891
v -0.0721639708 0.219816978 0.117749891
f 9 20 10
f 19 10 20
f 18 8 19
f 8 10 19
f 9 4 11
f 11 20 9
f 4 3 11
f 11 3 17
f 16 3 2
f 17 3 16
f 5 8 12
f 12 8 18
f 6 12 13
f 5 12 6
f 6 13 14
f 14 7 6
f 1 8 5
f 1 4 9
f 1 10 8
f 9 10 1
f 2 3 1
f 5 6 1
f 1 3 4
f 1 6 7
f 20 11 15
f 15 12 18
f 18 19 15
f 15 11 17
f 14 13 15
f 15 19 20
f 17 16 15
f 13 12 15
f 15 7 14
f 15 1 7
f 15 16 2
f 2 1 15
