v -0.206005277 -0.113564377 0.0952499126
v -0.206005277 -0.113564377 0.0839999233
v -0.207299413 -0.118393962 0.0839999233
v -0.207299413 -0.118393962 0.0952499126
v -0.207469763 -0.117099886 0.0839999233
v -0.207469763 -0.117099886 0.0952499126
v -0.207299413 -0.115805809 0.0839999233
v -0.207299413 -0.115805809 0.0952499126
v -0.206799926 -0.114599888 0.0839999233
v -0.206799926 -0.114599888 0.0952499126
v -0.200679504 -0.108106916 0.0839999233
v -0.200679504 -0.108106916 0.0952499126
v -0.206892378 -0.119376675 0.0839999233
v -0.206892378 -0.119376675 0.0952499126
f 12 13 11
f 12 14 13
f 14 3 13
f 4 3 14
f 11 13 7
f 7 2 11
f 7 3 5
f 13 3 7
f 9 2 7
f 5 3 6
f 6 3 4
f 6 7 5
f 8 7 6
f 11 2 1
f 1 12 11
f 10 6 4
f 4 14 10
f 14 12 10
f 12 1 10
f 8 6 10
f 10 2 9
f 10 1 2
f 9 7 10
f 10 7 8
