v 0.129242838 0.259271555 0.0614999447
v 0.129242838 0.25755486 0.072749934
v 0.129242838 0.259271555 0.069796837
v 0.138875298 0.249456839 0.0626943262
v 0.139054658 0.249459736 0.0614999447
v 0.130959534 0.257554859 0.072749934
v 0.138105019 0.250409374 0.072749934
v 0.137939358 0.250243684 0.072749934
v 0.138825038 0.249689355 0.0635722262
v 0.138792296 0.249722098 0.0641445255
f 3 5 1
f 1 2 3
f 10 7 5
f 6 3 2
f 6 10 3
f 7 10 6
f 4 8 2
f 7 8 4
f 5 7 4
f 5 3 9
f 9 10 5
f 3 10 9
f 6 8 7
f 2 8 6
f 4 2 1
f 1 5 4
