v 0.200769363 -0.107689654 0.12899988
v 0.21333078 -0.107689654 0.12899988
v 0.206923475 -0.118961872 0.12899988
v 0.21333078 -0.118961872 0.12899988
v 0.200769363 -0.107689654 0.117749891
v 0.206044017 -0.113131349 0.117749891
v 0.206838547 -0.114166861 0.117749891
v 0.207338153 -0.115372782 0.117749891
v 0.207508503 -0.116666858 0.117749891
v 0.207338153 -0.117960994 0.117749891
v 0.206923475 -0.118961872 0.117749891
f 1 2 5
f 3 11 4
f 2 4 9
f 6 5 2
f 2 7 6
f 8 7 2
f 2 9 8
f 10 9 4
f 10 4 11
f 5 3 1
f 5 11 3
f 4 2 1
f 1 3 4
f 11 5 10
f 7 8 10
f 5 6 10
f 10 6 7
f 10 8 9
