v -0.0301951781 -0.201499944 0.059069923
v -0.0301951781 -0.201499944 0.0550698553
v -0.0301439181 -0.201888149 0.0550698553
v -0.0301439181 -0.201888149 0.059069923
v -0.0301951781 -0.195999985 0.0550698553
v -0.0301951781 -0.195999985 0.059069923
v -0.0301439181 -0.19561178 0.0550698553
v -0.0301439181 -0.19561178 0.059069923
v -0.0300919429 -0.195486312 0.059069923
v -0.0299939529 -0.195250099 0.0550698553
v -0.0299939529 -0.195250099 0.059069923
v -0.0297556535 -0.194939439 0.059069923
v -0.0297556535 -0.194939439 0.0550698553
v -0.0294449941 -0.19470108 0.059069923
v -0.0294449941 -0.19470108 0.0550698553
v -0.0156484262 -0.187271004 0.059069923
v -0.0162616388 -0.18749476 0.059069923
v -0.0162616388 -0.18749476 0.0550698553
v -0.0156484262 -0.187271004 0.0550698553
v -0.0299939529 -0.20224983 0.059069923
v -0.0299939529 -0.20224983 0.0550698553
v -0.0299190271 -0.202347507 0.0550698553
v -0.0299190271 -0.202347507 0.059069923
v -0.0151951328 -0.187217874 0.059069923
v -0.0151951328 -0.187217874 0.0550698553
v -0.0151951328 -0.202347507 0.059069923
v -0.0151951328 -0.202347507 0.0550698553
f 7 8 9
f 9 11 10
f 10 7 9
f 27 25 24
f 24 26 27
f 26 23 22
f 22 27 26
f 6 5 2
f 6 2 1
f 3 4 1
f 1 2 3
f 21 22 23
f 23 20 21
f 21 20 4
f 4 3 21
f 24 25 19
f 19 16 24
f 17 16 19
f 19 18 17
f 12 14 15
f 15 13 12
f 15 14 17
f 17 18 15
f 11 26 24
f 1 4 11
f 11 6 1
f 11 23 26
f 11 20 23
f 24 16 11
f 11 14 12
f 11 16 17
f 4 20 11
f 17 14 11
f 11 8 6
f 9 8 11
f 5 6 7
f 6 8 7
f 2 5 10
f 25 27 10
f 10 3 2
f 27 22 10
f 13 15 10
f 22 21 10
f 10 19 25
f 10 21 3
f 18 19 10
f 10 15 18
f 5 7 10
f 12 13 10
f 10 11 12
