v -0.132068874 0.240590545 0.101865753
v -0.137189647 0.243862256 0.096237725
v -0.136362675 0.244689228 0.0948151605
v -0.132068874 0.244689228 0.0948151605
v -0.137878442 0.24317346 0.0974225989
v -0.132068874 0.239911169 0.103034562
v -0.136285166 0.238402164 0.105630398
v -0.132068874 0.238402137 0.105630398
v -0.134086385 0.23840211 0.105630398
v -0.132068874 0.239154765 0.104335661
v -0.138425436 0.238402108 0.105630352
v -0.13917151 0.238402108 0.105630398
v -0.141287753 0.238402138 0.105630398
v -0.138727548 0.242324355 0.0988832454
v -0.139746988 0.241304915 0.100636903
v -0.139105388 0.241946514 0.0995332778
v -0.140660918 0.240390985 0.102209139
v -0.140370875 0.23840215 0.105630398
v -0.140202296 0.240849607 0.101420206
v -0.141287753 0.238621898 0.105252346
v -0.140980757 0.240071146 0.102759302
v -0.141287753 0.23976415 0.103287414
v -0.138652172 0.24239973 0.0987536407
v -0.138043922 0.243007981 0.0977073078
v -0.137003288 0.244048615 0.0959171685
v -0.137746667 0.238402108 0.105630398
v -0.140845729 0.240206173 0.102527054
v -0.141287753 0.23976415 0.103287426
f 1 11 5
f 6 7 8
f 20 11 13
f 1 5 2
f 15 5 11
f 10 11 1
f 13 11 12
f 25 4 3
f 16 7 23
f 13 27 28
f 18 27 13
f 9 10 8
f 11 10 9
f 5 15 14
f 14 15 21
f 21 20 22
f 27 18 17
f 26 12 11
f 11 9 26
f 19 17 18
f 2 4 1
f 3 4 2
f 15 20 21
f 11 20 15
f 10 4 6
f 1 4 10
f 6 8 10
f 6 4 25
f 25 24 6
f 6 24 23
f 23 7 6
f 22 27 21
f 22 28 27
f 22 20 13
f 13 28 22
f 26 8 7
f 13 12 26
f 26 18 13
f 7 18 26
f 26 9 8
f 19 18 7
f 19 7 16
f 21 27 19
f 19 14 21
f 5 14 19
f 19 23 24
f 16 23 19
f 24 25 19
f 3 2 19
f 19 25 3
f 19 2 5
f 27 17 19
