v 0.240404907 -0.131659468 0.102251717
v 0.243251253 -0.119674561 0.0973552324
v 0.238652347 -0.131659468 0.105266391
v 0.244674026 -0.119674561 0.0949078164
v 0.244582966 -0.119674561 0.0950644807
v 0.238453581 -0.12765441 0.105608412
v 0.242527264 -0.119674561 0.09860067
v 0.238453533 -0.129787716 0.105608412
v 0.238453526 -0.13153119 0.105608412
v 0.238453526 -0.131659468 0.105608412
v 0.238453582 -0.122855931 0.105608412
v 0.238453582 -0.119674561 0.105608412
v 0.241108237 -0.131659468 0.101041676
v 0.244734222 -0.120820033 0.0948041675
v 0.244734255 -0.120066358 0.0948041675
v 0.244734271 -0.119674561 0.0948041675
v 0.244734294 -0.123836002 0.0948041675
v 0.244734289 -0.131659468 0.0948041675
f 10 1 6
f 17 1 18
f 13 14 18
f 5 1 17
f 5 12 1
f 1 12 11
f 11 6 1
f 7 8 12
f 9 3 10
f 8 7 9
f 15 14 2
f 2 16 15
f 17 16 4
f 4 5 17
f 13 3 14
f 14 3 2
f 10 3 18
f 18 1 10
f 18 3 13
f 9 11 12
f 10 6 9
f 6 11 9
f 12 8 9
f 9 7 2
f 2 3 9
f 15 18 14
f 17 18 15
f 15 16 17
f 12 5 4
f 2 7 4
f 4 7 12
f 4 16 2
