v 0.206892377 0.11937666 0.106499902
v 0.206005274 0.113564308 0.106499902
v 0.206005274 0.113564308 0.0952499126
v 0.20729941 0.118393953 0.0952499126
v 0.20729941 0.118393953 0.106499902
v 0.20746976 0.117099936 0.0952499126
v 0.20746976 0.117099936 0.106499902
v 0.20729941 0.1158058 0.0952499126
v 0.20729941 0.1158058 0.106499902
v 0.206799923 0.114599879 0.0952499126
v 0.206799923 0.114599879 0.106499902
v 0.200679452 0.108106906 0.0952499126
v 0.200679452 0.108106906 0.106499902
v 0.206892377 0.11937666 0.0952499126
f 13 1 14
f 13 14 12
f 14 1 5
f 5 4 14
f 10 8 9
f 11 10 9
f 6 4 5
f 5 7 6
f 2 3 10
f 2 10 11
f 2 13 12
f 12 3 2
f 12 14 3
f 3 4 6
f 14 4 3
f 3 8 10
f 6 8 3
f 2 5 1
f 11 9 2
f 1 13 2
f 7 5 2
f 2 9 7
f 9 8 6
f 6 7 9
