v -0.219855608 0.064750011 0.0789999281
v -0.219730319 0.0636373711 0.0789999281
v -0.219855608 0.064750011 0.0839999233
v -0.219742848 0.0637486351 0.0839999233
v -0.219360532 0.0625805807 0.0789999281
v -0.219730319 0.0636373711 0.0839999233
v -0.218764843 0.0616325689 0.0789999281
v -0.219360532 0.0625805807 0.0839999233
v -0.218605639 0.0614733768 0.0789999281
v -0.218764843 0.0616325689 0.0839999233
v -0.218605639 0.0614733768 0.0839999233
v -0.219855608 0.0725966108 0.0839999233
v -0.219855608 0.0725966108 0.0789999281
v -0.218605639 0.0725966108 0.0789999281
f 12 14 13
f 11 14 12
f 9 14 11
f 6 4 2
f 7 14 9
f 7 2 1
f 1 13 7
f 7 13 14
f 5 2 7
f 11 10 7
f 9 11 7
f 3 13 1
f 12 13 3
f 1 2 3
f 2 4 3
f 12 3 8
f 8 11 12
f 8 10 11
f 8 3 4
f 4 6 8
f 5 7 8
f 8 7 10
f 8 2 5
f 8 6 2
