v 0.129675827 -0.259232904 0.0614999447
v 0.129675827 -0.259232904 0.0697967243
v 0.129675827 -0.257516146 0.072749934
v 0.139222936 -0.249664999 0.0616361082
v 0.139252071 -0.249656643 0.0614999447
v 0.139018384 -0.249661882 0.062996972
v 0.131392582 -0.257516145 0.072749934
v 0.138302174 -0.250606541 0.072749934
v 0.139139217 -0.249769497 0.0629988262
v 0.138116096 -0.250420434 0.072749934
f 2 3 1
f 4 5 1
f 1 5 8
f 8 2 1
f 3 2 7
f 2 8 7
f 3 10 6
f 5 4 6
f 9 10 8
f 9 6 10
f 9 8 5
f 5 6 9
f 8 10 7
f 7 10 3
f 6 4 1
f 1 3 6
