v 0.218352495 0.06164747 0.12899988
v 0.219147144 0.0626830411 0.12899988
v 0.219646631 0.0638889027 0.12899988
v 0.219816981 0.0651830387 0.12899988
v 0.214816986 0.0601829839 0.12899988
v 0.216111122 0.0603533936 0.12899988
v 0.217317043 0.0608528805 0.12899988
v 0.212606835 0.0601829839 0.12899988
v 0.219816981 0.0721639645 0.12899988
v 0.212606835 0.0721639645 0.12899988
v 0.219816981 0.0651830387 0.117749891
v 0.214816986 0.0601829839 0.117749891
v 0.216111122 0.0603533936 0.117749891
v 0.217317043 0.0608528805 0.117749891
v 0.218352495 0.06164747 0.117749891
v 0.219147144 0.0626830411 0.117749891
v 0.219646631 0.0638889027 0.117749891
v 0.212606835 0.0601829839 0.117749891
v 0.212606835 0.0668509001 0.117749891
v 0.219816981 0.0721639645 0.117749891
f 19 10 20
f 20 10 9
f 18 8 10
f 10 19 18
f 4 3 11
f 11 3 17
f 5 8 12
f 12 8 18
f 20 9 4
f 4 11 20
f 1 7 14
f 14 15 1
f 2 10 8
f 9 10 2
f 4 9 2
f 2 3 4
f 2 8 5
f 5 6 2
f 2 7 1
f 2 6 7
f 7 6 13
f 13 14 7
f 5 12 13
f 13 6 5
f 18 19 16
f 16 13 12
f 16 20 11
f 16 12 18
f 16 11 17
f 14 13 16
f 19 20 16
f 15 14 16
f 17 3 16
f 3 2 16
f 1 15 16
f 16 2 1
