v -0.0197500304 -0.213339989 0.0864998613
v -0.0250000373 -0.213339989 0.0804999385
v -0.0250000373 -0.22690997 0.0804999385
v -0.0197500304 -0.213339989 0.0824999128
v -0.0197500304 -0.22690997 0.0824999128
v -0.0197500304 -0.22690997 0.0864998613
v -0.0296250448 -0.22690997 0.0804999385
v -0.0296250448 -0.213339989 0.0804999385
v -0.0296250448 -0.22690997 0.0864998613
v -0.0296250448 -0.213339989 0.0864998613
f 1 10 9
f 9 6 1
f 5 1 6
f 4 1 5
f 8 7 9
f 9 10 8
f 10 1 8
f 4 2 8
f 8 1 4
f 7 8 3
f 3 8 2
f 9 7 3
f 3 6 9
f 3 5 6
f 3 2 4
f 4 5 3
