v 0.200197636 0.10721832 0.0389999662
v 0.200659691 0.108082826 0.0389999662
v 0.199817 0.0988405299 0.0389999662
v 0.199817 0.105304892 0.0389999662
v 0.199913083 0.106280382 0.0389999662
v 0.200679452 0.108106906 0.0389999662
v 0.199817 0.0988405299 0.0502499555
v 0.199817 0.105304892 0.0502499555
v 0.200659691 0.108082826 0.0502499555
v 0.200197636 0.10721832 0.0502499555
v 0.199913083 0.106280382 0.0502499555
v 0.200679452 0.108106906 0.0502499555
v 0.209191991 0.0988405299 0.0502499555
v 0.209191991 0.108106906 0.0389999662
v 0.209191991 0.0988405299 0.0389999662
v 0.209191991 0.105963523 0.0502499555
f 6 12 14
f 16 14 12
f 15 7 3
f 13 7 15
f 3 7 8
f 8 4 3
f 13 15 16
f 15 14 16
f 3 4 2
f 2 15 3
f 6 14 2
f 2 14 15
f 4 5 2
f 2 5 1
f 6 2 9
f 9 12 6
f 9 2 1
f 1 10 9
f 11 7 13
f 11 8 7
f 13 16 11
f 11 16 12
f 12 9 11
f 11 9 10
f 4 8 11
f 11 5 4
f 1 5 11
f 11 10 1
