v -0.219855608 0.0767499757 0.0839999233
v -0.223561586 0.0815796209 0.0839999233
v -0.222355665 0.0810801339 0.0839999233
v -0.221320094 0.0802854848 0.0839999233
v -0.220525564 0.0792500329 0.0839999233
v -0.220026077 0.0780441118 0.0839999233
v -0.218605639 0.0837198448 0.0789999281
v -0.219855608 0.0725966108 0.0839999233
v -0.219855608 0.0725966108 0.0789999281
v -0.218605639 0.0725966108 0.0789999281
v -0.227980645 0.0817499709 0.0789999281
v -0.224855603 0.0817499709 0.0839999233
v -0.227980645 0.0817499709 0.0839999233
v -0.227980645 0.0837198448 0.0789999281
f 11 13 14
f 8 9 10
f 12 2 7
f 3 4 7
f 7 2 3
f 7 6 1
f 7 4 5
f 5 6 7
f 9 13 11
f 8 13 9
f 10 9 11
f 10 14 7
f 11 14 10
f 12 14 13
f 7 14 12
f 8 10 1
f 1 10 7
f 5 13 8
f 4 3 5
f 5 12 13
f 8 1 5
f 2 12 5
f 5 3 2
f 5 1 6
