v -0.20073109 0.107689674 0.0389999662
v -0.206448991 0.119674588 0.0389999662
v -0.20604402 0.11313134 0.0502499555
v -0.20683855 0.114166911 0.0502499555
v -0.207338037 0.115372832 0.0502499555
v -0.207508506 0.116666849 0.0502499555
v -0.207338037 0.117960985 0.0502499555
v -0.20683855 0.119166906 0.0502499555
v -0.20073109 0.107689674 0.0502499555
v -0.206448991 0.119674588 0.0502499555
v -0.209977918 0.107689674 0.0389999662
v -0.209977918 0.119674588 0.0389999662
f 2 12 10
f 9 11 1
f 8 12 7
f 8 10 12
f 4 5 11
f 7 12 6
f 6 12 11
f 11 5 6
f 3 4 11
f 11 9 3
f 12 2 1
f 1 11 12
f 1 2 9
f 2 10 9
f 3 9 10
f 7 6 3
f 3 8 7
f 10 8 3
f 5 4 3
f 3 6 5
