v 0.257554863 -0.129233263 0.072749934
v 0.259281182 -0.129233263 0.0614999447
v 0.249459794 -0.139054635 0.0614999447
v 0.249456427 -0.138877256 0.0626778227
v 0.259281182 -0.129233263 0.0697802818
v 0.250409394 -0.138105036 0.072749934
v 0.250243867 -0.137939537 0.072749934
v 0.257554862 -0.13095958 0.072749934
v 0.249624123 -0.138677556 0.0641678236
v 0.249707923 -0.138806506 0.0637202168
v 0.249740473 -0.138773956 0.06429373
f 2 1 5
f 2 5 3
f 9 1 4
f 4 7 9
f 9 7 1
f 4 3 6
f 6 7 4
f 11 6 3
f 10 3 5
f 10 11 3
f 6 11 8
f 8 5 1
f 3 1 2
f 4 1 3
f 7 6 8
f 1 7 8
f 11 10 8
f 8 10 5
