v 0.205499946 -0.0275000083 0.167999915
v 0.205499946 -0.0412500101 0.168999961
v 0.205499946 -0.0412500101 0.171999863
v 0.205499946 -0.0275000083 0.171999863
v 0.206239517 -0.0412500101 0.168999961
v 0.206239517 -0.0275000083 0.171999863
v 0.206239517 -0.0412500101 0.171999863
v 0.200739422 -0.0275000083 0.163239351
v 0.200739422 -0.0395000028 0.163239351
v 0.206239517 -0.0395000028 0.163239351
f 8 3 4
f 8 10 9
f 9 3 8
f 6 10 1
f 1 10 8
f 7 4 3
f 6 4 7
f 1 4 6
f 8 4 1
f 5 10 6
f 6 7 5
f 2 7 3
f 2 5 7
f 3 9 2
f 10 5 2
f 2 9 10
