v 0.0250000342 -0.239200001 0.0914998565
v 0.0250000342 -0.239200001 0.0804999385
v 0.0197500273 -0.23619998 0.0864998613
v 0.0197500273 -0.23619998 0.0839999233
v 0.0197500273 -0.235333984 0.0824999128
v 0.0250000342 -0.22690997 0.0804999385
v 0.0197500273 -0.22690997 0.0864998613
v 0.0197500273 -0.22690997 0.0824999128
v 0.0296250417 -0.23930417 0.0864998613
v 0.0296250417 -0.239200001 0.0914998565
v 0.0250000342 -0.23619998 0.0914998565
v 0.0296250417 -0.23619998 0.0914998565
v 0.0296250417 -0.23930417 0.0804999385
v 0.0296250417 -0.22690997 0.0804999385
v 0.0296250417 -0.22690997 0.0864998613
f 5 2 4
f 1 9 10
f 11 3 1
f 7 3 11
f 7 8 4
f 4 3 7
f 4 8 5
f 1 3 4
f 4 2 1
f 5 8 6
f 6 2 5
f 15 8 7
f 14 6 15
f 15 6 8
f 2 6 13
f 13 6 14
f 1 2 13
f 13 9 1
f 12 13 14
f 14 15 12
f 9 13 12
f 12 10 9
f 12 11 1
f 1 10 12
f 7 11 12
f 12 15 7
