v 0.0395000562 -0.242999976 0.0794998918
v 0.0395000562 -0.230999317 0.0794998918
v 0.030100046 -0.230999317 0.0734999691
v 0.0395000562 -0.230999317 0.0734999691
v 0.0395000562 -0.240599995 0.0692849074
v 0.0395000562 -0.242999976 0.0692849074
v 0.0296250417 -0.230999317 0.0794998918
v 0.0296250417 -0.230999317 0.0759999071
v 0.0296250417 -0.242999976 0.0692849074
v 0.0296250417 -0.242999976 0.0794998918
v 0.0296250417 -0.240599995 0.0692849074
f 8 3 11
f 2 7 1
f 7 10 1
f 11 3 4
f 4 5 11
f 2 1 6
f 6 4 2
f 5 4 6
f 6 1 10
f 10 9 6
f 6 9 11
f 11 5 6
f 8 10 7
f 11 9 8
f 8 9 10
f 8 7 2
f 2 4 8
f 8 4 3
