v -0.225873061 0.152759444 0.127249702
v -0.22708279 0.153969113 0.117943126
v -0.225873061 0.143644418 0.127249624
v -0.22708279 0.153969113 0.125168791
v -0.225873061 0.152759375 0.116437258
v -0.227082794 0.153969108 0.116437258
v -0.227232397 0.153819506 0.124911442
v -0.227563804 0.153488099 0.124341351
v -0.23171325 0.143644418 0.117203346
v -0.232158566 0.143644418 0.116437258
v -0.228667498 0.143644418 0.122442563
v -0.231922579 0.149129324 0.116843276
v -0.232158591 0.148893312 0.116437258
v -0.229476217 0.151575686 0.121051571
f 1 3 5
f 11 5 3
f 13 9 12
f 5 11 10
f 10 9 13
f 14 9 8
f 14 12 9
f 2 4 1
f 8 9 7
f 7 9 3
f 3 9 10
f 10 11 3
f 13 6 10
f 10 6 5
f 4 7 3
f 4 3 1
f 5 6 2
f 1 5 2
f 2 6 13
f 13 12 2
f 8 7 2
f 7 4 2
f 12 14 2
f 2 14 8
