v -0.206448991 0.119674588 0.0614999447
v -0.203215541 0.123030837 0.0502499555
v -0.203215541 0.130101855 0.0502499555
v -0.202421011 0.129066403 0.0614999447
v -0.202421011 0.129066403 0.0502499555
v -0.201921524 0.127860482 0.0614999447
v -0.201921524 0.127860482 0.0502499555
v -0.201751055 0.126566346 0.0614999447
v -0.201751055 0.126566346 0.0502499555
v -0.201921524 0.125272329 0.0614999447
v -0.201921524 0.125272329 0.0502499555
v -0.202421011 0.124066408 0.0614999447
v -0.202421011 0.124066408 0.0502499555
v -0.203215541 0.123030837 0.0614999447
v -0.203215541 0.130101855 0.0614999447
v -0.204773189 0.131659503 0.0502499555
v -0.204773189 0.131659503 0.0614999447
v -0.206448991 0.119674588 0.0502499555
f 1 17 16
f 16 18 1
f 11 9 10
f 10 9 8
f 13 10 12
f 11 10 13
f 16 17 15
f 15 3 16
f 5 3 15
f 15 4 5
f 2 1 18
f 2 14 1
f 2 18 16
f 2 9 11
f 16 3 2
f 11 13 2
f 2 3 5
f 5 7 2
f 2 7 9
f 2 13 12
f 12 14 2
f 6 15 17
f 6 10 8
f 17 1 6
f 6 14 12
f 12 10 6
f 1 14 6
f 4 15 6
f 8 9 6
f 9 7 6
f 5 4 6
f 6 7 5
