v -0.268959107 -0.119949584 0.0389999662
v -0.259237975 -0.129670732 0.0389999662
v -0.256171541 -0.129670732 0.0389999662
v -0.269939512 -0.118888977 0.0502499555
v -0.268959107 -0.119949584 0.0502499555
v -0.259237975 -0.129670732 0.0502499555
v -0.269865112 -0.118888824 0.0389999662
v -0.256171541 -0.118888824 0.0389999662
v -0.26992825 -0.118888824 0.0485303228
v -0.269939642 -0.118888824 0.0502499555
f 10 6 8
f 6 2 3
f 1 5 4
f 9 7 1
f 3 7 8
f 3 2 1
f 1 7 3
f 3 8 6
f 4 6 10
f 4 5 6
f 1 2 5
f 5 2 6
f 10 8 9
f 8 7 9
f 1 4 9
f 9 4 10
