v -0.254985258 -0.129670732 0.0771036631
v -0.250976334 -0.137932388 0.0839999233
v -0.249272269 -0.136960911 0.0763932522
v -0.250976333 -0.129670732 0.0839999233
v -0.249199565 -0.137271949 0.0839999233
v -0.257516162 -0.129670732 0.072749934
v -0.249653453 -0.137725836 0.0839999233
v -0.250418496 -0.138490227 0.0839999233
v -0.257516162 -0.131392549 0.072749934
v -0.250503028 -0.138198689 0.072749934
v -0.250606545 -0.138302177 0.072749934
v -0.250419923 -0.138115584 0.072749934
v -0.250484391 -0.138424331 0.0801342972
f 2 1 6
f 8 11 7
f 1 2 4
f 6 1 4
f 9 2 6
f 8 2 13
f 13 11 8
f 3 4 5
f 12 3 5
f 6 4 12
f 4 3 12
f 5 7 10
f 10 12 5
f 10 7 11
f 4 2 8
f 4 7 5
f 8 7 4
f 2 9 13
f 13 9 11
f 11 9 10
f 10 9 6
f 6 12 10
