v -0.0625359431 0.200575168 0.12899988
v -0.0636829749 0.200047309 0.12899988
v -0.0615577117 0.201373632 0.12899988
v -0.0608106271 0.202391679 0.12899988
v -0.0603424922 0.203564341 0.12899988
v -0.0601829902 0.204816992 0.12899988
v -0.0601829902 0.212606832 0.12899988
v -0.0666829959 0.199816997 0.12899988
v -0.0721639708 0.199816997 0.12899988
v -0.0721639708 0.212606832 0.12899988
v -0.0601829902 0.204816992 0.117749891
v -0.0625359431 0.200575168 0.117749891
v -0.0615577117 0.201373632 0.117749891
v -0.0608106271 0.202391679 0.117749891
v -0.0603424922 0.203564341 0.117749891
v -0.0684329883 0.211693342 0.117749891
v -0.0636829749 0.200047309 0.117749891
v -0.0601829902 0.212606832 0.117749891
v -0.0668508468 0.212606832 0.117749891
v -0.0666829959 0.199816997 0.117749891
v -0.0721639708 0.199816997 0.117749891
f 10 16 21
f 16 10 19
f 21 9 10
f 11 7 6
f 11 18 7
f 19 10 7
f 7 18 19
f 1 17 12
f 2 17 1
f 15 11 5
f 5 11 6
f 5 14 15
f 4 14 5
f 20 9 21
f 20 8 9
f 2 8 20
f 20 17 2
f 13 11 15
f 18 11 13
f 21 16 13
f 16 19 13
f 13 20 21
f 12 17 13
f 13 19 18
f 15 14 13
f 17 20 13
f 7 10 3
f 6 7 3
f 3 10 9
f 2 1 3
f 9 8 3
f 3 8 2
f 3 5 6
f 4 5 3
f 3 14 4
f 3 13 14
f 3 1 12
f 12 13 3
