v 0.0817499741 0.251014965 0.0839999233
v 0.0947198256 0.251014965 0.0839999233
v 0.0817499741 0.250725189 0.0839999233
v 0.0817499741 0.257554777 0.072749934
v 0.0817499741 0.250725189 0.072749934
v 0.0947198256 0.252579397 0.0813087151
v 0.0947198256 0.252826995 0.0808827867
v 0.0947198256 0.253465201 0.0797849199
v 0.0947198256 0.254703825 0.0776543832
v 0.0863932546 0.257554886 0.072749934
v 0.0947198256 0.257554881 0.072749934
f 1 10 4
f 9 10 1
f 2 9 1
f 1 3 2
f 3 5 2
f 10 9 11
f 5 11 8
f 6 2 5
f 5 8 7
f 7 6 5
f 5 3 1
f 1 4 5
f 11 5 4
f 11 4 10
f 9 2 7
f 7 8 11
f 7 11 9
f 2 6 7
