v -0.200659694 -0.108082776 0.12899988
v -0.200197639 -0.107218389 0.12899988
v -0.199913086 -0.106280391 0.12899988
v -0.199817003 -0.105304961 0.12899988
v -0.200679504 -0.108106916 0.12899988
v -0.212606838 -0.108106916 0.12899988
v -0.199817003 -0.0961259353 0.12899988
v -0.212606838 -0.0961259353 0.12899988
v -0.199817003 -0.105304961 0.117749891
v -0.200197639 -0.107218389 0.117749891
v -0.199913086 -0.106280391 0.117749891
v -0.210289897 -0.0994634676 0.117749891
v -0.212166251 -0.10271347 0.117749891
v -0.210289897 -0.105963473 0.117749891
v -0.200659694 -0.108082776 0.117749891
v -0.200679504 -0.108106916 0.117749891
v -0.199817003 -0.0961259353 0.117749891
f 12 8 17
f 17 8 7
f 5 6 16
f 16 6 14
f 13 6 8
f 13 8 12
f 9 7 4
f 9 17 7
f 11 9 3
f 3 9 4
f 3 10 11
f 2 10 3
f 13 14 6
f 4 7 1
f 7 8 1
f 8 6 1
f 6 5 1
f 1 3 4
f 2 3 1
f 17 9 15
f 15 9 11
f 15 13 12
f 12 17 15
f 16 14 15
f 14 13 15
f 11 10 15
f 15 1 5
f 15 5 16
f 15 10 2
f 2 1 15
