v -0.129670744 0.257516155 0.072749934
v -0.138115592 0.250419925 0.072749934
v -0.139018078 0.249661564 0.0629968061
v -0.129670744 0.259237996 0.0614999447
v -0.129670744 0.259237996 0.0697879766
v -0.131392585 0.257516155 0.072749934
v -0.139252088 0.249656652 0.0614999447
v -0.138302189 0.250606551 0.072749934
v -0.138198699 0.250503032 0.072749934
v -0.139239592 0.249669148 0.0615905361
v -0.139126696 0.249782045 0.0630926633
v -0.139163605 0.249745136 0.0624908381
f 4 1 7
f 7 1 3
f 1 2 3
f 5 6 1
f 1 4 5
f 10 4 7
f 11 8 6
f 11 10 7
f 7 3 11
f 11 9 8
f 2 9 11
f 11 3 2
f 10 11 12
f 1 6 9
f 9 2 1
f 6 8 9
f 4 10 12
f 12 5 4
f 6 5 12
f 12 11 6
