v -0.106785359 -0.200236266 0.12899988
v -0.107649745 -0.200698321 0.12899988
v -0.10584742 -0.199951713 0.12899988
v -0.10487193 -0.19985569 0.12899988
v -0.10768968 -0.200731093 0.12899988
v -0.10768968 -0.212645527 0.12899988
v -0.0957047657 -0.19985569 0.12899988
v -0.0957047657 -0.212645527 0.12899988
v -0.10487193 -0.19985569 0.117749891
v -0.10584742 -0.199951713 0.117749891
v -0.106785359 -0.200236266 0.117749891
v -0.107649745 -0.200698321 0.117749891
v -0.0990304366 -0.210328524 0.117749891
v -0.102280439 -0.212204938 0.117749891
v -0.105530442 -0.210328524 0.117749891
v -0.10768968 -0.200731093 0.117749891
v -0.0957047657 -0.19985569 0.117749891
f 7 8 17
f 17 8 13
f 6 16 15
f 14 8 6
f 13 8 14
f 6 15 14
f 6 5 16
f 4 17 9
f 7 17 4
f 2 16 5
f 2 12 16
f 11 12 2
f 2 1 11
f 16 12 10
f 9 17 10
f 10 17 13
f 10 15 16
f 13 14 10
f 10 14 15
f 10 12 11
f 3 5 6
f 3 8 7
f 6 8 3
f 7 4 3
f 3 2 5
f 1 2 3
f 3 4 9
f 9 10 3
f 11 1 3
f 3 10 11
