v 0.0197500273 -0.20235001 0.0794998918
v 0.0197500273 -0.20235001 0.0759999071
v 0.0197500273 -0.187200015 0.0794998918
v 0.0296250417 -0.187200015 0.0692849074
v 0.0197500273 -0.194400017 0.0692849074
v 0.0197500273 -0.187200015 0.0692849074
v 0.0296250417 -0.187200015 0.0794998918
v 0.0296250417 -0.20235001 0.0794998918
v 0.0296250417 -0.20235001 0.0759999071
v 0.0296250417 -0.194400017 0.0692849074
f 6 10 5
f 4 10 6
f 4 6 3
f 3 7 4
f 7 3 8
f 8 3 1
f 8 10 4
f 4 7 8
f 8 9 10
f 1 3 2
f 2 3 6
f 2 6 5
f 2 8 1
f 9 8 2
f 5 10 2
f 10 9 2
