v 0.0608529433 -0.21731699 0.0789999281
v 0.0603533372 -0.216111069 0.0789999281
v 0.0601829871 -0.214816992 0.0789999281
v 0.0601829871 -0.214816992 0.0839999233
v 0.0603533372 -0.216111069 0.0839999233
v 0.0608529433 -0.21731699 0.0839999233
v 0.0616474732 -0.218352501 0.0789999281
v 0.0619270293 -0.218567004 0.0789999281
v 0.0616474732 -0.218352501 0.0839999233
v 0.0619270293 -0.218567004 0.0839999233
v 0.0721679016 -0.218567004 0.0789999281
v 0.0601829871 -0.209192005 0.0789999281
v 0.0601829871 -0.209192005 0.0839999233
v 0.0684329852 -0.211693351 0.0839999233
v 0.0684329852 -0.209192005 0.0839999233
v 0.0721679016 -0.209192005 0.0789999281
f 11 10 8
f 14 10 11
f 15 16 13
f 13 16 12
f 13 12 3
f 3 4 13
f 11 16 15
f 15 14 11
f 3 12 7
f 12 16 7
f 7 2 3
f 16 11 7
f 7 11 8
f 1 2 7
f 10 9 7
f 8 10 7
f 1 7 6
f 6 7 9
f 5 14 15
f 15 13 5
f 5 10 14
f 5 13 4
f 5 9 10
f 5 6 9
f 5 2 1
f 1 6 5
f 5 4 3
f 3 2 5
