v 0.203176914 0.123463805 0.0389999662
v 0.201743899 0.12755924 0.0389999662
v 0.201743899 0.126439507 0.0389999662
v 0.201993047 0.12865072 0.0389999662
v 0.201993047 0.125348027 0.0389999662
v 0.202478825 0.124339278 0.0389999662
v 0.203176914 0.130534942 0.0389999662
v 0.202478825 0.129659588 0.0389999662
v 0.20471084 0.132068868 0.0389999662
v 0.203176914 0.123463805 0.0502499555
v 0.202478825 0.124339278 0.0502499555
v 0.201993047 0.125348027 0.0502499555
v 0.201743899 0.126439507 0.0502499555
v 0.201743899 0.12755924 0.0502499555
v 0.201993047 0.12865072 0.0502499555
v 0.202478825 0.129659588 0.0502499555
v 0.203176914 0.130534942 0.0502499555
v 0.20471084 0.132068868 0.0502499555
v 0.206425444 0.120087887 0.0389999662
v 0.206425444 0.120087887 0.0502499555
v 0.210460355 0.132068868 0.0389999662
v 0.210460355 0.120087887 0.0389999662
f 22 21 20
f 19 22 20
f 20 21 18
f 18 21 9
f 6 1 10
f 10 11 6
f 10 1 19
f 19 20 10
f 8 7 4
f 4 21 22
f 4 9 21
f 4 22 19
f 19 1 4
f 4 1 6
f 4 3 2
f 6 5 4
f 4 5 3
f 4 7 9
f 2 3 14
f 14 3 13
f 14 4 2
f 15 4 14
f 8 4 16
f 16 4 15
f 3 5 12
f 13 3 12
f 12 5 6
f 6 11 12
f 17 20 18
f 17 14 13
f 13 12 17
f 11 10 17
f 17 10 20
f 15 14 17
f 17 16 15
f 17 12 11
f 18 9 17
f 9 7 17
f 17 7 8
f 8 16 17
