v -0.0961259321 0.199816997 0.106499902
v -0.105304898 0.199816997 0.117749891
v -0.108082832 0.200659688 0.117749891
v -0.107218327 0.200197632 0.106499902
v -0.107218327 0.200197632 0.117749891
v -0.106280388 0.19991308 0.106499902
v -0.106280388 0.19991308 0.117749891
v -0.105304898 0.199816997 0.106499902
v -0.099463524 0.210289891 0.117749891
v -0.102713527 0.212166245 0.117749891
v -0.102713527 0.212166245 0.106499902
v -0.099463524 0.210289891 0.106499902
v -0.10596353 0.210289891 0.117749891
v -0.10596353 0.210289891 0.106499902
v -0.108082832 0.200659688 0.106499902
v -0.108106913 0.200679449 0.117749891
v -0.108106913 0.200679449 0.106499902
v -0.0961259321 0.199816997 0.117749891
f 16 13 17
f 17 13 14
f 11 13 10
f 14 13 11
f 18 2 8
f 8 1 18
f 12 11 10
f 10 9 12
f 18 1 12
f 12 9 18
f 7 9 10
f 7 13 16
f 10 13 7
f 7 2 18
f 18 9 7
f 16 3 7
f 7 3 5
f 16 17 15
f 15 3 16
f 5 3 15
f 15 4 5
f 6 17 14
f 1 8 6
f 14 11 6
f 11 12 6
f 6 12 1
f 6 15 17
f 4 15 6
f 6 8 2
f 2 7 6
f 6 7 5
f 5 4 6
