v 0.118957102 0.206925465 0.106499902
v 0.113131343 0.206044014 0.0952499126
v 0.113131343 0.206044014 0.106499902
v 0.114166914 0.206838543 0.0952499126
v 0.114166914 0.206838543 0.106499902
v 0.115372835 0.20733815 0.0952499126
v 0.115372835 0.20733815 0.106499902
v 0.116666852 0.2075085 0.0952499126
v 0.116666852 0.2075085 0.106499902
v 0.117960988 0.20733815 0.0952499126
v 0.117960988 0.20733815 0.106499902
v 0.107689677 0.200731084 0.106499902
v 0.107689677 0.200731084 0.0952499126
v 0.118957102 0.206925465 0.0952499126
f 14 1 12
f 12 13 14
f 2 13 12
f 12 3 2
f 2 3 5
f 5 4 2
f 12 1 11
f 11 7 5
f 11 3 12
f 5 3 11
f 9 7 11
f 14 10 11
f 1 14 11
f 11 10 8
f 8 9 11
f 6 14 13
f 13 2 6
f 8 10 6
f 6 10 14
f 6 2 4
f 6 7 9
f 6 9 8
f 6 4 5
f 5 7 6
