v -0.0395000592 0.220500047 0.16599994
v -0.0275000051 0.220500047 0.171999863
v -0.0275000051 0.220500047 0.16599994
v -0.0275000051 0.206239514 0.162989167
v -0.0395000592 0.206239514 0.162989167
v -0.0275000051 0.206239514 0.171999863
v -0.0412500069 0.220500047 0.168999961
v -0.0412500069 0.220500047 0.171999863
v -0.0412500069 0.206239514 0.168999961
v -0.0412500069 0.206239514 0.171999863
f 1 5 7
f 6 8 10
f 2 8 6
f 2 6 3
f 3 6 4
f 3 5 1
f 4 5 3
f 4 6 9
f 9 5 4
f 9 6 10
f 2 3 7
f 7 8 2
f 7 3 1
f 10 8 7
f 7 9 10
f 5 9 7
