v -0.0450000182 0.193447526 0.153857759
v -0.0450000182 0.188357885 0.14895778
v -0.0450000182 0.193447526 0.14895778
v -0.0450000182 0.190357859 0.153857759
v -0.0450000182 0.188357885 0.151857785
v -0.0450000182 0.188425953 0.152375392
v -0.0450000182 0.188625867 0.152857832
v -0.0450000182 0.189840252 0.153789571
v -0.0450000182 0.189357812 0.153589777
v -0.0395000592 0.191978981 0.154478839
v -0.0395000592 0.196622114 0.154478839
v -0.0396999732 0.193447526 0.145718328
v -0.0396999732 0.188357885 0.145718328
v -0.0362500117 0.189840252 0.153789571
v -0.0362500117 0.189357812 0.153589777
v -0.0450000182 0.188943679 0.153271965
v -0.0362500117 0.188943679 0.153271965
v -0.0362500117 0.188625867 0.152857832
v -0.0362500117 0.188425953 0.152375392
v -0.0362500117 0.188357885 0.151857785
v -0.0362500117 0.191978981 0.154478839
v -0.0362500117 0.196622114 0.154478839
v -0.0362500117 0.188357885 0.145718328
v -0.0362500117 0.193447526 0.145718328
f 1 11 3
f 12 3 11
f 4 8 10
f 11 10 22
f 10 21 22
f 2 3 12
f 12 13 2
f 12 22 24
f 11 22 12
f 23 12 24
f 13 12 23
f 4 10 11
f 4 11 1
f 7 3 2
f 1 3 7
f 16 9 7
f 7 4 1
f 2 5 7
f 7 9 8
f 8 4 7
f 7 5 6
f 19 7 6
f 18 7 19
f 2 13 20
f 13 23 20
f 20 5 2
f 6 5 20
f 20 19 6
f 16 7 17
f 17 7 18
f 17 9 16
f 17 15 9
f 14 23 24
f 14 17 18
f 24 22 14
f 14 22 21
f 14 20 23
f 18 19 14
f 19 20 14
f 15 17 14
f 14 21 10
f 10 8 14
f 8 9 14
f 9 15 14
