v -0.20604402 0.11313134 0.0839999233
v -0.20604402 0.11313134 0.0952499126
v -0.20683855 0.114166911 0.0839999233
v -0.20683855 0.114166911 0.0952499126
v -0.207338037 0.115372832 0.0839999233
v -0.207338037 0.115372832 0.0952499126
v -0.207508506 0.116666849 0.0839999233
v -0.207508506 0.116666849 0.0952499126
v -0.207338037 0.117960985 0.0839999233
v -0.207338037 0.117960985 0.0952499126
v -0.20073109 0.107689674 0.0952499126
v -0.20073109 0.107689674 0.0839999233
v -0.206925444 0.118957117 0.0839999233
v -0.206925444 0.118957117 0.0952499126
f 14 12 13
f 11 12 14
f 13 9 14
f 14 9 10
f 5 1 3
f 13 12 5
f 7 9 5
f 12 1 5
f 5 9 13
f 2 12 11
f 2 1 12
f 3 1 2
f 2 4 3
f 6 5 3
f 3 4 6
f 11 14 8
f 8 14 10
f 8 2 11
f 4 2 8
f 8 6 4
f 7 5 8
f 5 6 8
f 8 9 7
f 10 9 8
