v 0.201743899 0.126439507 0.12899988
v 0.201743899 0.12755924 0.12899988
v 0.201993047 0.125348027 0.12899988
v 0.201993047 0.12865072 0.12899988
v 0.202478825 0.129659588 0.12899988
v 0.203176914 0.123463805 0.12899988
v 0.202478825 0.124339278 0.12899988
v 0.203176914 0.130534942 0.12899988
v 0.203288385 0.130646413 0.12899988
v 0.213253672 0.130646413 0.12899988
v 0.206892377 0.11937666 0.12899988
v 0.213253672 0.11937666 0.12899988
v 0.203176914 0.123463805 0.117749891
v 0.202478825 0.124339278 0.117749891
v 0.201993047 0.125348027 0.117749891
v 0.201743899 0.126439507 0.117749891
v 0.201743899 0.12755924 0.117749891
v 0.201993047 0.12865072 0.117749891
v 0.202478825 0.129659588 0.117749891
v 0.203176914 0.130534942 0.117749891
v 0.203288385 0.130646413 0.117749891
v 0.206892377 0.11937666 0.117749891
f 21 9 10
f 22 12 11
f 22 10 12
f 21 10 22
f 11 6 13
f 13 22 11
f 4 5 19
f 19 18 4
f 7 3 14
f 14 3 15
f 14 6 7
f 14 13 6
f 20 8 9
f 20 9 21
f 5 8 20
f 20 19 5
f 9 8 2
f 12 10 2
f 1 3 2
f 11 12 2
f 2 10 9
f 2 6 11
f 2 3 7
f 7 6 2
f 2 5 4
f 2 8 5
f 4 18 2
f 18 17 2
f 16 20 21
f 21 22 16
f 16 14 15
f 22 13 16
f 18 19 16
f 16 17 18
f 13 14 16
f 19 20 16
f 16 3 1
f 15 3 16
f 1 2 16
f 16 2 17
