v 0.0647500142 0.219855721 0.0839999233
v 0.0647500142 0.219855721 0.0952499126
v 0.0634558781 0.219685252 0.0839999233
v 0.0634558781 0.219685252 0.0952499126
v 0.062249957 0.219185765 0.0839999233
v 0.062249957 0.219185765 0.0952499126
v 0.0612145051 0.218391235 0.0839999233
v 0.0612145051 0.218391235 0.0952499126
v 0.060419856 0.217355664 0.0839999233
v 0.060419856 0.217355664 0.0952499126
v 0.059920369 0.216149743 0.0839999233
v 0.059920369 0.216149743 0.0952499126
v 0.059750019 0.214855607 0.0839999233
v 0.059750019 0.214855607 0.0952499126
v 0.059750019 0.212645473 0.0839999233
v 0.059750019 0.212645473 0.0952499126
v 0.0664179527 0.212645473 0.0839999233
v 0.0664179527 0.212645473 0.0952499126
v 0.0707499966 0.219855721 0.0952499126
v 0.0707499966 0.219855721 0.0839999233
f 17 20 18
f 18 20 19
f 18 15 17
f 16 15 18
f 1 2 19
f 19 20 1
f 9 11 12
f 12 10 9
f 5 15 13
f 5 1 20
f 13 11 5
f 5 20 17
f 17 15 5
f 5 9 7
f 3 1 5
f 5 11 9
f 2 1 4
f 4 1 3
f 3 5 4
f 4 5 6
f 7 9 8
f 9 10 8
f 8 5 7
f 6 5 8
f 19 2 14
f 14 18 19
f 16 18 14
f 14 8 10
f 2 4 14
f 10 12 14
f 14 4 6
f 6 8 14
f 13 15 14
f 14 15 16
f 14 11 13
f 14 12 11
