v 0.270063816 -0.118363445 0.051231793
v 0.266849185 -0.107689654 0.0567616757
v 0.264094718 -0.116421381 0.0614999447
v 0.264094723 -0.107689654 0.0614999447
v 0.270634513 -0.117639453 0.0502499555
v 0.269978252 -0.118456009 0.0502499555
v 0.267832551 -0.107689654 0.0550699297
v 0.270634567 -0.109566627 0.0502499555
v 0.26985068 -0.107689654 0.051598417
v 0.270634525 -0.107689654 0.0502499555
v 0.269973214 -0.118461459 0.0513876463
v 0.264094716 -0.118461459 0.0614999447
v 0.269973214 -0.118461459 0.0502499555
f 1 5 8
f 6 5 1
f 12 1 2
f 2 4 12
f 11 1 12
f 13 3 4
f 12 3 13
f 13 11 12
f 8 10 9
f 10 13 7
f 7 13 4
f 13 5 6
f 8 5 13
f 13 10 8
f 6 1 13
f 1 11 13
f 9 2 1
f 9 1 8
f 7 9 10
f 4 2 7
f 2 9 7
