v 0.0250000342 -0.213339989 0.0804999385
v 0.0250000342 -0.199770008 0.0804999385
v 0.0197500273 -0.213339989 0.0864998613
v 0.0197500273 -0.199770008 0.0864998613
v 0.0197500273 -0.213339989 0.0824999128
v 0.0197500273 -0.199770008 0.0824999128
v 0.0296250417 -0.199770008 0.0804999385
v 0.0296250417 -0.213339989 0.0804999385
v 0.0296250417 -0.213339989 0.0864998613
v 0.0296250417 -0.199770008 0.0864998613
f 1 9 3
f 3 5 1
f 1 8 9
f 10 8 7
f 9 8 10
f 3 9 10
f 10 4 3
f 6 5 3
f 3 4 6
f 8 1 2
f 7 8 2
f 2 10 7
f 4 10 2
f 2 6 4
f 2 1 5
f 5 6 2
