v -0.11895712 -0.206925507 0.106499902
v -0.113131346 -0.206044023 0.0952499126
v -0.113131346 -0.206044023 0.106499902
v -0.114166917 -0.206838613 0.0952499126
v -0.114166917 -0.206838613 0.106499902
v -0.115372719 -0.207338099 0.0952499126
v -0.115372719 -0.207338099 0.106499902
v -0.116666855 -0.20750845 0.0952499126
v -0.116666855 -0.20750845 0.106499902
v -0.117960991 -0.207338099 0.0952499126
v -0.117960991 -0.207338099 0.106499902
v -0.10768968 -0.200731093 0.106499902
v -0.10768968 -0.200731093 0.0952499126
v -0.11895712 -0.206925507 0.0952499126
f 12 13 14
f 14 1 12
f 10 11 1
f 1 14 10
f 3 13 12
f 3 2 13
f 4 3 5
f 2 3 4
f 4 14 13
f 13 2 4
f 8 10 4
f 4 10 14
f 4 6 8
f 7 4 5
f 6 4 7
f 12 1 9
f 1 11 9
f 9 3 12
f 5 3 9
f 9 7 5
f 9 10 8
f 11 10 9
f 8 6 9
f 6 7 9
