v -0.206425426 -0.120087897 0.0839999233
v -0.203176917 -0.123463874 0.0839999233
v -0.203176917 -0.123463874 0.072749934
v -0.202382268 -0.124499385 0.0839999233
v -0.202382268 -0.124499385 0.072749934
v -0.202257396 -0.124800866 0.072749934
v -0.201882781 -0.125705307 0.0839999233
v -0.201882781 -0.125705307 0.072749934
v -0.201712431 -0.126999383 0.0839999233
v -0.201712431 -0.126999383 0.072749934
v -0.201882781 -0.128293459 0.0839999233
v -0.201882781 -0.128293459 0.072749934
v -0.202382268 -0.129499381 0.0839999233
v -0.202382268 -0.129499381 0.072749934
v -0.203176917 -0.130534892 0.0839999233
v -0.203176917 -0.130534892 0.072749934
v -0.204710899 -0.132068877 0.0839999233
v -0.204710899 -0.132068877 0.072749934
v -0.206425426 -0.120087897 0.072749934
f 6 5 4
f 17 1 19
f 19 18 17
f 17 18 15
f 18 16 15
f 15 16 14
f 14 13 15
f 8 7 9
f 9 10 8
f 2 1 17
f 13 11 2
f 9 7 2
f 17 15 2
f 2 7 4
f 2 15 13
f 2 11 9
f 12 10 9
f 9 11 12
f 12 11 13
f 12 13 14
f 4 7 6
f 7 8 6
f 18 19 3
f 3 8 10
f 14 16 3
f 5 6 3
f 3 16 18
f 10 12 3
f 3 12 14
f 3 6 8
f 3 19 1
f 1 2 3
f 3 2 4
f 4 5 3
