v 0.107689677 0.200731084 0.0389999662
v 0.119674592 0.206448985 0.0389999662
v 0.113131343 0.206044014 0.0502499555
v 0.114166914 0.206838543 0.0502499555
v 0.115372835 0.20733815 0.0502499555
v 0.116666852 0.2075085 0.0502499555
v 0.117960988 0.20733815 0.0502499555
v 0.119166909 0.206838543 0.0502499555
v 0.107689677 0.200731084 0.0502499555
v 0.119674592 0.206448985 0.0502499555
v 0.107689677 0.209977911 0.0389999662
v 0.119674592 0.209977911 0.0389999662
f 9 11 1
f 6 12 11
f 2 12 10
f 3 4 11
f 11 9 3
f 5 6 11
f 11 4 5
f 12 6 7
f 8 10 12
f 12 7 8
f 2 1 12
f 1 11 12
f 10 1 2
f 10 9 1
f 9 10 8
f 8 3 9
f 4 3 8
f 6 5 8
f 8 5 4
f 8 7 6
