v 0.0767499789 0.219855721 0.117749891
v 0.0767499789 0.219855721 0.106499902
v 0.0817499741 0.224855716 0.117749891
v 0.0817499741 0.224855716 0.106499902
v 0.0815796241 0.22356158 0.117749891
v 0.0815796241 0.22356158 0.106499902
v 0.0810801371 0.222355659 0.106499902
v 0.0810801371 0.222355659 0.117749891
v 0.080285488 0.221320088 0.106499902
v 0.080285488 0.221320088 0.117749891
v 0.0792500361 0.220525558 0.117749891
v 0.0792500361 0.220525558 0.106499902
v 0.078044115 0.220026071 0.106499902
v 0.078044115 0.220026071 0.117749891
v 0.0770411595 0.21989405 0.117749891
v 0.0817499741 0.225435324 0.117749891
v 0.0817499741 0.225435324 0.106499902
v 0.0717349335 0.219855721 0.106499902
v 0.0717349335 0.219855721 0.117749891
f 13 14 15
f 15 2 13
f 1 2 15
f 18 19 16
f 16 17 18
f 11 14 12
f 12 14 13
f 2 19 18
f 2 1 19
f 4 16 3
f 17 16 4
f 6 4 5
f 5 4 3
f 7 6 5
f 5 8 7
f 3 16 15
f 19 1 15
f 15 14 11
f 15 16 19
f 15 5 3
f 11 10 15
f 8 5 15
f 15 10 8
f 18 17 9
f 9 2 18
f 13 2 9
f 17 4 9
f 9 6 7
f 9 12 13
f 9 4 6
f 7 8 9
f 8 10 9
f 11 12 9
f 9 10 11
