v 0.131659506 0.240404874 0.102251768
v 0.119674592 0.244582939 0.0950645215
v 0.131659506 0.238652311 0.105266447
v 0.119674592 0.243251224 0.0973552772
v 0.127677104 0.238444009 0.105624873
v 0.129811426 0.23844396 0.105624873
v 0.119674592 0.242527233 0.0986007172
v 0.131659506 0.238443953 0.105624873
v 0.119674592 0.23844401 0.105624873
v 0.122876287 0.23844401 0.105624873
v 0.131659506 0.241108205 0.101041725
v 0.119674592 0.244729484 0.094812398
v 0.120834298 0.244729434 0.094812398
v 0.123849994 0.244729506 0.094812398
v 0.131659506 0.244729501 0.094812398
f 2 9 1
f 15 11 13
f 9 7 6
f 14 1 15
f 2 1 14
f 14 12 2
f 10 1 9
f 8 1 5
f 12 13 4
f 14 13 12
f 15 13 14
f 5 1 10
f 8 11 15
f 15 1 8
f 3 11 8
f 5 10 8
f 9 6 8
f 8 10 9
f 4 8 6
f 4 6 7
f 3 8 4
f 4 9 2
f 4 7 9
f 2 12 4
f 4 11 3
f 4 13 11
