v 0.146525683 -0.234526237 0.10648921
v 0.153192283 -0.225834314 0.1056249
v 0.147850794 -0.233201125 0.1056249
v 0.144077389 -0.232119837 0.116437389
v 0.144077389 -0.232833251 0.115210141
v 0.144077389 -0.23697453 0.108086134
v 0.153192283 -0.225834314 0.116437389
v 0.148932095 -0.232119824 0.116437389
v 0.14653158 -0.234520339 0.112307944
v 0.144077389 -0.23697453 0.108086151
v 0.144077389 -0.236188136 0.109438943
v 0.144662057 -0.236389862 0.109091924
v 0.154204943 -0.226846977 0.1056249
v 0.154204943 -0.226846977 0.116437389
v 0.145031156 -0.236020763 0.109726862
f 4 2 5
f 3 2 13
f 7 2 4
f 2 3 1
f 9 8 4
f 12 11 10
f 12 9 15
f 15 11 12
f 7 8 14
f 4 8 7
f 7 14 13
f 13 2 7
f 6 5 1
f 1 5 2
f 10 3 13
f 13 14 10
f 6 1 10
f 14 8 10
f 10 1 3
f 8 9 10
f 10 9 12
f 10 5 6
f 4 5 10
f 10 11 4
f 4 11 15
f 15 9 4
