v 0.0395000562 -0.199770008 0.0804999385
v 0.0395000562 -0.213339989 0.0804999385
v 0.0395000562 -0.213339989 0.0919396078
v 0.0395000562 -0.199770008 0.0919396078
v 0.0380000457 -0.213339989 0.0919396078
v 0.0380000457 -0.199770008 0.0919396078
v 0.0296250417 -0.199770008 0.0804999385
v 0.0296250417 -0.213339989 0.0804999385
v 0.0296250417 -0.213339989 0.0864998613
v 0.0296250417 -0.199770008 0.0864998613
f 1 4 2
f 2 4 3
f 1 2 8
f 7 1 8
f 7 8 10
f 10 8 9
f 5 2 3
f 5 8 2
f 9 8 5
f 6 1 7
f 6 4 1
f 7 10 6
f 3 4 6
f 6 5 3
f 6 10 9
f 9 5 6
