v -0.199855627 0.0957047594 0.0839999233
v -0.199855627 0.104871924 0.0952499126
v -0.199855627 0.104871924 0.0839999233
v -0.19995171 0.105847414 0.0839999233
v -0.19995171 0.105847414 0.0952499126
v -0.200236262 0.106785352 0.0839999233
v -0.200236262 0.106785352 0.0952499126
v -0.200698318 0.107649739 0.0839999233
v -0.210328521 0.0990304303 0.0839999233
v -0.210328521 0.0990304303 0.0952499126
v -0.212204994 0.102280433 0.0839999233
v -0.212204994 0.102280433 0.0952499126
v -0.210328521 0.105530436 0.0839999233
v -0.210328521 0.105530436 0.0952499126
v -0.200698318 0.107649739 0.0952499126
v -0.20073109 0.107689674 0.0839999233
v -0.20073109 0.107689674 0.0952499126
v -0.199855627 0.0957047594 0.0952499126
f 18 1 3
f 2 18 3
f 16 13 14
f 14 17 16
f 14 13 11
f 11 12 14
f 8 9 11
f 11 13 8
f 4 3 8
f 8 3 1
f 8 13 16
f 8 6 4
f 1 9 8
f 10 1 18
f 10 9 1
f 10 12 11
f 11 9 10
f 5 3 4
f 2 3 5
f 4 6 5
f 6 7 5
f 15 18 2
f 15 10 18
f 17 14 15
f 15 14 12
f 2 5 15
f 12 10 15
f 15 5 7
f 16 17 15
f 15 8 16
f 6 8 15
f 15 7 6
