v -0.132068874 0.238351949 0.105716735
v -0.132068874 0.237534681 0.107122657
v -0.144049855 0.232675949 0.115480793
v -0.132068874 0.232114991 0.116445635
v -0.144049855 0.236465733 0.108961348
v -0.143032488 0.23211499 0.116445635
v -0.144049855 0.237002048 0.108038791
v -0.142649785 0.238402118 0.105630398
v -0.138425513 0.238402081 0.105630398
v -0.132068874 0.236736551 0.108495512
v -0.144049855 0.232115024 0.116445635
v -0.142649765 0.238402138 0.105630398
v -0.134086385 0.23840211 0.105630398
v -0.132068874 0.238402137 0.105630398
v -0.136285166 0.238402164 0.105630398
v -0.144049855 0.235623194 0.110410868
v -0.144049855 0.237002048 0.108038898
v -0.140370875 0.23840215 0.105630398
v -0.143786298 0.237265604 0.107585517
f 3 4 2
f 6 5 4
f 9 10 4
f 4 5 9
f 3 2 16
f 15 2 1
f 15 16 2
f 11 4 3
f 11 6 4
f 5 6 11
f 10 9 13
f 10 13 14
f 14 15 1
f 16 15 18
f 19 18 12
f 7 8 9
f 7 9 5
f 14 2 4
f 4 10 14
f 18 8 12
f 15 14 18
f 9 8 18
f 18 13 9
f 18 14 13
f 17 7 5
f 3 16 17
f 17 11 3
f 5 11 17
f 8 7 17
f 12 8 17
f 17 19 12
f 18 19 17
f 16 18 17
