v -0.0636829749 0.200047309 0.106499902
v -0.0625359431 0.200575168 0.0952499126
v -0.0625359431 0.200575168 0.106499902
v -0.0615577117 0.201373632 0.106499902
v -0.0615577117 0.201373632 0.0952499126
v -0.0608106271 0.202391679 0.0952499126
v -0.0608106271 0.202391679 0.106499902
v -0.0603424922 0.203564341 0.0952499126
v -0.0603424922 0.203564341 0.106499902
v -0.0601829902 0.204816992 0.0952499126
v -0.0601829902 0.204816992 0.106499902
v -0.0684329883 0.211693342 0.106499902
v -0.0684329883 0.211693342 0.0952499126
v -0.0636829749 0.200047309 0.0952499126
v -0.0666829959 0.199816997 0.106499902
v -0.0601829902 0.212606832 0.0952499126
v -0.0601829902 0.212606832 0.106499902
v -0.0668508468 0.212606832 0.0952499126
v -0.0668508468 0.212606832 0.106499902
v -0.0721639708 0.199816997 0.106499902
v -0.0666829959 0.199816997 0.0952499126
v -0.0721639708 0.199816997 0.0952499126
f 13 22 12
f 12 22 20
f 11 8 10
f 9 8 11
f 13 12 19
f 19 18 13
f 20 22 21
f 21 15 20
f 16 18 17
f 18 19 17
f 10 16 17
f 17 11 10
f 2 14 5
f 5 16 10
f 5 22 13
f 5 21 22
f 13 18 5
f 5 18 16
f 10 8 5
f 5 8 6
f 14 21 5
f 6 8 7
f 7 8 9
f 7 5 6
f 4 5 7
f 2 5 3
f 3 5 4
f 1 12 20
f 20 15 1
f 1 7 9
f 9 11 1
f 1 17 19
f 11 17 1
f 1 19 12
f 4 7 1
f 1 3 4
f 1 14 2
f 2 3 1
f 1 21 14
f 15 21 1
