v 0.12010756 -0.250258257 0.0852351385
v 0.108122645 -0.249363683 0.0867740134
v 0.108122645 -0.250976316 0.0839999233
v 0.12010756 -0.250976312 0.0839999233
v 0.12010756 -0.245481897 0.0934515509
v 0.108122645 -0.244690835 0.0948124119
v 0.108122645 -0.246830784 0.0911312181
v 0.11968728 -0.244690819 0.0948124119
v 0.12010756 -0.244690817 0.0948124119
v 0.113199195 -0.244690839 0.0948124119
f 2 6 5
f 5 6 9
f 7 3 4
f 4 3 1
f 9 8 4
f 10 6 7
f 7 4 10
f 10 4 8
f 7 6 3
f 3 6 2
f 2 5 3
f 3 5 1
f 4 5 9
f 10 8 9
f 9 6 10
