v -0.0250000373 -0.199770008 0.0804999385
v -0.0250000373 -0.213339989 0.0804999385
v -0.0197500304 -0.213339989 0.0824999128
v -0.0197500304 -0.199770008 0.0824999128
v -0.0197500304 -0.199770008 0.0864998613
v -0.0296250448 -0.199770008 0.0804999385
v -0.0296250448 -0.213339989 0.0804999385
v -0.0296250448 -0.213339989 0.0864998613
v -0.0197500304 -0.213339989 0.0864998613
v -0.0296250448 -0.199770008 0.0864998613
f 3 2 4
f 4 2 1
f 5 4 10
f 10 1 6
f 10 4 1
f 6 1 7
f 1 2 7
f 7 10 6
f 8 10 7
f 9 2 3
f 8 7 9
f 9 7 2
f 9 10 8
f 5 10 9
f 9 4 5
f 3 4 9
