v -0.0668508468 0.212606832 0.106499902
v -0.0651829854 0.219816978 0.106499902
v -0.0651829854 0.219816978 0.0952499126
v -0.0601829902 0.214816983 0.106499902
v -0.0601829902 0.214816983 0.0952499126
v -0.0603533403 0.216111119 0.0952499126
v -0.0603533403 0.216111119 0.106499902
v -0.0608528272 0.21731704 0.106499902
v -0.0608528272 0.21731704 0.0952499126
v -0.0616474763 0.218352492 0.0952499126
v -0.0616474763 0.218352492 0.106499902
v -0.0626830474 0.219147141 0.0952499126
v -0.0626830474 0.219147141 0.106499902
v -0.0638889686 0.219646628 0.0952499126
v -0.0638889686 0.219646628 0.106499902
v -0.0647624299 0.219761614 0.0952499126
v -0.0601829902 0.212606832 0.106499902
v -0.0601829902 0.212606832 0.0952499126
v -0.0668508468 0.212606832 0.0952499126
v -0.0711830274 0.219816978 0.0952499126
v -0.0711830274 0.219816978 0.106499902
f 15 14 16
f 3 2 16
f 16 2 15
f 20 19 1
f 1 21 20
f 1 19 18
f 18 17 1
f 4 17 5
f 5 17 18
f 7 5 6
f 4 5 7
f 6 9 7
f 7 9 8
f 14 15 13
f 14 13 12
f 20 21 2
f 2 3 20
f 11 17 4
f 11 1 17
f 21 1 11
f 4 7 11
f 11 2 21
f 13 15 11
f 11 7 8
f 15 2 11
f 10 19 20
f 20 3 10
f 18 19 10
f 10 5 18
f 3 16 10
f 6 5 10
f 10 9 6
f 10 14 12
f 10 16 14
f 12 13 10
f 13 11 10
f 8 9 10
f 10 11 8
