v -0.203215541 0.123030837 0.0614999447
v -0.203215541 0.123030837 0.072749934
v -0.203215541 0.130101855 0.0614999447
v -0.202421011 0.129066403 0.072749934
v -0.202421011 0.129066403 0.0614999447
v -0.201921524 0.127860482 0.072749934
v -0.201921524 0.127860482 0.0614999447
v -0.201751055 0.126566346 0.072749934
v -0.201751055 0.126566346 0.0614999447
v -0.201921524 0.125272329 0.072749934
v -0.201921524 0.125272329 0.0614999447
v -0.202421011 0.124066408 0.072749934
v -0.202421011 0.124066408 0.0614999447
v -0.203215541 0.130101855 0.072749934
v -0.204773189 0.131659503 0.0614999447
v -0.204773189 0.131659503 0.072749934
v -0.206448991 0.119674588 0.072749934
v -0.206448991 0.119674588 0.0614999447
f 18 16 15
f 17 16 18
f 17 18 2
f 18 1 2
f 9 7 6
f 8 9 6
f 6 7 5
f 5 4 6
f 14 10 8
f 14 16 17
f 17 2 14
f 12 10 14
f 8 6 14
f 14 2 12
f 14 6 4
f 15 16 14
f 14 3 15
f 5 3 14
f 14 4 5
f 8 10 11
f 11 9 8
f 13 1 18
f 13 18 15
f 13 7 9
f 15 3 13
f 5 7 13
f 13 3 5
f 9 11 13
f 13 10 12
f 13 11 10
f 12 2 13
f 13 2 1
