v -0.205499949 -0.0275000083 0.171999863
v -0.205499949 -0.0275000083 0.167999915
v -0.205499949 -0.0412500101 0.168999961
v -0.205499949 -0.0412500101 0.171999863
v -0.20623952 -0.0412500101 0.168999961
v -0.20623952 -0.0275000083 0.171999863
v -0.20623952 -0.0412500101 0.171999863
v -0.200739425 -0.0275000083 0.163239351
v -0.200739425 -0.0395000028 0.163239351
v -0.20623952 -0.0395000028 0.163239351
f 10 2 8
f 4 8 1
f 9 8 4
f 6 2 10
f 8 9 10
f 6 4 1
f 7 4 6
f 1 8 6
f 6 8 2
f 10 5 6
f 6 5 7
f 7 5 3
f 3 4 7
f 9 4 3
f 3 5 10
f 10 9 3
