v 0.13728424 0.238444034 0.105624871
v 0.131659506 0.244729502 0.094812397
v 0.131659506 0.240404874 0.102251768
v 0.131659506 0.238444034 0.105624735
v 0.137604873 0.243447032 0.0970184849
v 0.131659506 0.241108205 0.101041725
v 0.140864933 0.238903504 0.104834399
v 0.136792232 0.244259674 0.0956205861
v 0.136322407 0.244729499 0.094812397
v 0.13811335 0.242938555 0.0978932388
v 0.139216329 0.241835577 0.0997906194
v 0.131659506 0.238652311 0.105266447
v 0.132202285 0.238444034 0.105624732
v 0.13962371 0.238444034 0.105624697
v 0.140864933 0.238444034 0.105624735
v 0.140864933 0.240186973 0.102626547
v 0.140864933 0.240186973 0.102626508
v 0.140115827 0.240936079 0.101337863
f 3 1 2
f 3 4 1
f 11 1 7
f 12 6 14
f 1 11 10
f 16 11 7
f 7 1 15
f 4 12 13
f 13 12 14
f 14 6 5
f 5 18 14
f 17 15 14
f 14 18 17
f 2 9 8
f 4 3 12
f 12 3 2
f 2 6 12
f 10 9 2
f 2 1 10
f 13 15 1
f 1 4 13
f 14 15 13
f 17 16 7
f 7 15 17
f 18 5 8
f 8 17 18
f 8 6 2
f 8 5 6
f 16 17 8
f 11 16 8
f 9 10 8
f 8 10 11
