v -0.119166912 -0.206838613 0.0839999233
v -0.119674595 -0.206449025 0.0839999233
v -0.113131346 -0.206044023 0.072749934
v -0.113131346 -0.206044023 0.0839999233
v -0.114166917 -0.206838613 0.072749934
v -0.114166917 -0.206838613 0.0839999233
v -0.115372719 -0.207338099 0.072749934
v -0.115372719 -0.207338099 0.0839999233
v -0.116666855 -0.20750845 0.072749934
v -0.116666855 -0.20750845 0.0839999233
v -0.117960991 -0.207338099 0.072749934
v -0.117960991 -0.207338099 0.0839999233
v -0.119166912 -0.206838613 0.072749934
v -0.10768968 -0.200731093 0.0839999233
v -0.10768968 -0.200731093 0.072749934
v -0.119674595 -0.206449025 0.072749934
f 14 15 16
f 16 2 14
f 4 15 14
f 4 3 15
f 2 16 13
f 1 2 13
f 14 2 12
f 12 2 1
f 12 8 6
f 12 4 14
f 10 8 12
f 6 4 12
f 1 13 12
f 12 13 11
f 12 11 9
f 9 10 12
f 7 8 10
f 7 10 9
f 5 16 15
f 5 13 16
f 15 3 5
f 9 11 5
f 11 13 5
f 5 7 9
f 5 4 6
f 3 4 5
f 6 8 5
f 8 7 5
