v 0.0178049191 -0.190000002 0.059069923
v 0.0167338237 -0.187797492 0.059069923
v 0.0150000438 -0.187195008 0.059069923
v 0.0162170514 -0.187472825 0.059069923
v 0.0175271615 -0.188782995 0.059069923
v 0.0177347049 -0.189375823 0.059069923
v 0.016748844 -0.187806969 0.059069923
v 0.0171930178 -0.188251142 0.059069923
v 0.0178049191 -0.190000002 0.0550698553
v 0.0177347049 -0.189375823 0.0550698553
v 0.0175271615 -0.188782995 0.0550698553
v 0.0171930178 -0.188251142 0.0550698553
v 0.016748844 -0.187806969 0.0550698553
v 0.0167338237 -0.187797492 0.0550698553
v 0.0162170514 -0.187472825 0.0550698553
v 0.0150000438 -0.187195008 0.0550698553
v 0.0156242236 -0.187265341 0.0550698553
v 0.0156242236 -0.187265341 0.059069923
v 0.0178049191 -0.202347507 0.059069923
v 0.0178049191 -0.202347507 0.0550698553
v 0.00880491579 -0.187195008 0.0550698553
v 0.00880491579 -0.187195008 0.059069923
v 0.00880491579 -0.202347507 0.059069923
v 0.00880491579 -0.202347507 0.0550698553
f 22 24 23
f 21 24 22
f 23 24 20
f 20 19 23
f 16 22 3
f 21 22 16
f 3 18 16
f 16 18 17
f 1 19 9
f 19 20 9
f 7 8 13
f 13 8 12
f 3 22 2
f 23 19 2
f 2 19 1
f 2 22 23
f 2 1 6
f 6 5 2
f 2 18 3
f 2 4 18
f 2 8 7
f 2 5 8
f 2 13 14
f 7 13 2
f 17 18 15
f 18 4 15
f 4 2 15
f 15 2 14
f 6 1 10
f 1 9 10
f 11 24 21
f 21 16 11
f 11 9 20
f 11 20 24
f 11 16 17
f 11 13 12
f 17 15 11
f 14 13 11
f 11 15 14
f 11 10 9
f 8 5 11
f 12 8 11
f 11 5 6
f 6 10 11
