v -0.212606838 -0.0601829934 0.0839999233
v -0.214816989 -0.0601829934 0.0952499126
v -0.214816989 -0.0601829934 0.0839999233
v -0.216111125 -0.0603534031 0.0839999233
v -0.216111125 -0.0603534031 0.0952499126
v -0.217317046 -0.06085289 0.0839999233
v -0.217317046 -0.06085289 0.0952499126
v -0.218352498 -0.0616474795 0.0839999233
v -0.218352498 -0.0616474795 0.0952499126
v -0.219147147 -0.062682991 0.0839999233
v -0.219147147 -0.062682991 0.0952499126
v -0.219646634 -0.0638889122 0.0839999233
v -0.219646634 -0.0638889122 0.0952499126
v -0.219761621 -0.0647624138 0.0952499126
v -0.219816984 -0.0651829886 0.0839999233
v -0.219816984 -0.0651829886 0.0952499126
v -0.212606838 -0.0601829934 0.0952499126
v -0.212606838 -0.06685085 0.0952499126
v -0.212606838 -0.06685085 0.0839999233
v -0.219816984 -0.0711830008 0.0952499126
v -0.219816984 -0.0711830008 0.0839999233
f 14 12 15
f 15 16 14
f 13 12 14
f 20 21 19
f 19 18 20
f 15 21 16
f 21 20 16
f 1 18 19
f 1 17 18
f 2 17 1
f 1 3 2
f 7 5 4
f 6 7 4
f 2 3 4
f 4 5 2
f 8 21 15
f 15 12 8
f 19 21 8
f 6 4 8
f 8 4 3
f 8 1 19
f 8 12 10
f 3 1 8
f 8 7 6
f 8 9 7
f 10 12 11
f 11 12 13
f 11 8 10
f 9 8 11
f 14 17 2
f 14 20 18
f 2 5 14
f 14 11 13
f 18 17 14
f 14 5 7
f 7 9 14
f 14 16 20
f 9 11 14
