v -0.144049855 0.225827888 0.127260872
v -0.144049855 0.232115024 0.116445635
v -0.145432908 0.232115069 0.116445635
v -0.153185926 0.225827888 0.116445635
v -0.144049855 0.231686133 0.117183365
v -0.144049855 0.226886875 0.125439168
v -0.151453339 0.229598564 0.120774602
v -0.1533354 0.227716502 0.124012154
v -0.15132718 0.229724723 0.12055758
v -0.14893683 0.232115073 0.116445635
v -0.15420497 0.226846933 0.116445635
v -0.153185926 0.225827888 0.127260872
v -0.15420497 0.226846933 0.125507879
v -0.154163863 0.226888039 0.125437242
v -0.154122922 0.226928981 0.125366817
f 1 2 3
f 5 4 2
f 12 4 1
f 9 3 10
f 1 4 6
f 4 5 6
f 13 12 14
f 7 9 10
f 3 9 7
f 15 14 12
f 13 14 15
f 3 4 11
f 11 10 3
f 2 4 3
f 11 4 12
f 12 13 11
f 6 5 2
f 6 2 1
f 7 8 1
f 1 3 7
f 1 8 15
f 15 12 1
f 15 10 11
f 11 13 15
f 15 7 10
f 8 7 15
