v -0.203176917 -0.123463874 0.072749934
v -0.203176917 -0.123463874 0.0614999447
v -0.202382268 -0.124499385 0.072749934
v -0.202257396 -0.124800866 0.072749934
v -0.202382268 -0.124499385 0.0614999447
v -0.202257396 -0.124800866 0.0614999447
v -0.201882781 -0.125705307 0.072749934
v -0.201882781 -0.125705307 0.0614999447
v -0.201712431 -0.126999383 0.072749934
v -0.201712431 -0.126999383 0.0614999447
v -0.201882781 -0.128293459 0.072749934
v -0.201882781 -0.128293459 0.0614999447
v -0.202382268 -0.129499381 0.072749934
v -0.202382268 -0.129499381 0.0614999447
v -0.203176917 -0.130534892 0.072749934
v -0.203176917 -0.130534892 0.0614999447
v -0.204710899 -0.132068877 0.072749934
v -0.204710899 -0.132068877 0.0614999447
v -0.206425426 -0.120087897 0.0614999447
v -0.206425426 -0.120087897 0.072749934
f 17 20 18
f 18 20 19
f 17 18 15
f 18 16 15
f 15 16 14
f 14 13 15
f 2 1 3
f 3 5 2
f 19 20 2
f 20 1 2
f 3 1 4
f 4 11 9
f 4 20 17
f 13 11 4
f 9 7 4
f 4 1 20
f 17 15 4
f 4 15 13
f 12 11 13
f 12 13 14
f 6 5 3
f 3 4 6
f 6 7 8
f 6 4 7
f 10 7 9
f 8 7 10
f 6 18 19
f 19 2 6
f 14 16 6
f 6 16 18
f 6 12 14
f 6 2 5
f 8 10 6
f 6 10 12
f 9 11 10
f 11 12 10
