v -0.0121950523 -0.217500006 0.059069923
v -0.00875109588 -0.217500006 0.059069923
v -0.0121950523 -0.217500006 0.0550698553
v -0.000195087544 -0.212499981 0.059069923
v -0.000195087544 -0.217500006 0.0550698553
v -0.000195087544 -0.217500006 0.0570699487
v -0.000195087544 -0.202347507 0.059069923
v -0.000195087544 -0.202347507 0.0550698553
v -0.0150570573 -0.202999954 0.059069923
v -0.0150570573 -0.202999954 0.0550698553
v -0.0150570573 -0.202347507 0.059069923
v -0.0150570573 -0.202347507 0.0550698553
f 6 4 2
f 9 10 3
f 3 1 9
f 5 8 7
f 7 4 5
f 5 4 6
f 2 5 6
f 3 5 2
f 1 3 2
f 2 11 9
f 9 1 2
f 2 4 7
f 7 11 2
f 8 5 12
f 12 5 3
f 12 3 10
f 12 10 9
f 9 11 12
f 7 8 12
f 12 11 7
