v 0.236765314 -0.131659468 0.108512623
v 0.238453581 -0.12765441 0.105608412
v 0.237699563 -0.131659468 0.106905411
v 0.238453533 -0.129787716 0.105608412
v 0.238453526 -0.131659468 0.105608412
v 0.238453582 -0.122855931 0.105608412
v 0.238453582 -0.124029464 0.105608412
v 0.234309393 -0.131659468 0.112737376
v 0.238453582 -0.119674561 0.105608412
v 0.232172889 -0.131659468 0.116412656
v 0.236381487 -0.119674561 0.109172894
v 0.232172889 -0.119674561 0.116412656
f 5 2 1
f 12 9 4
f 5 12 4
f 3 10 12
f 3 12 5
f 6 8 7
f 12 10 11
f 11 10 8
f 11 8 6
f 6 9 11
f 3 1 8
f 5 1 3
f 8 10 3
f 5 4 7
f 7 9 6
f 7 2 5
f 7 4 9
f 8 1 7
f 7 1 2
