v 0.119390062 -0.206886833 0.106499902
v 0.113564311 -0.20600534 0.117749891
v 0.113564311 -0.20600534 0.106499902
v 0.118393956 -0.207299416 0.106499902
v 0.118393956 -0.207299416 0.117749891
v 0.117099939 -0.207469766 0.106499902
v 0.117099939 -0.207469766 0.117749891
v 0.115805803 -0.207299416 0.106499902
v 0.115805803 -0.207299416 0.117749891
v 0.114599882 -0.206799929 0.106499902
v 0.114599882 -0.206799929 0.117749891
v 0.108122645 -0.200692312 0.106499902
v 0.108122645 -0.200692312 0.117749891
v 0.119390062 -0.206886833 0.117749891
f 14 1 12
f 12 13 14
f 1 4 8
f 12 1 8
f 8 3 12
f 8 4 6
f 10 3 8
f 2 3 10
f 10 11 2
f 2 13 12
f 12 3 2
f 10 8 9
f 9 11 10
f 5 4 1
f 1 14 5
f 7 14 13
f 7 5 14
f 13 2 7
f 7 2 11
f 11 9 7
f 7 8 6
f 7 9 8
f 6 4 7
f 4 5 7
