v 0.249155385 -0.137227805 0.0839999233
v 0.251015017 -0.129233263 0.0839999233
v 0.24922618 -0.136923458 0.0759683434
v 0.251015012 -0.13749942 0.0839999233
v 0.257554863 -0.129233263 0.072749934
v 0.250221329 -0.138293102 0.0839999233
v 0.250243867 -0.137939537 0.072749934
v 0.249890949 -0.137519185 0.0739642433
v 0.257554862 -0.13095958 0.072749934
v 0.250308334 -0.138004004 0.072749934
v 0.250409394 -0.138105036 0.072749934
v 0.250243415 -0.138271016 0.0836579709
v 0.250288946 -0.138225485 0.0817866321
f 5 7 8
f 2 4 9
f 5 2 9
f 1 2 3
f 3 7 1
f 3 8 7
f 12 4 6
f 6 13 12
f 11 13 6
f 11 6 1
f 9 13 11
f 1 7 10
f 10 11 1
f 1 6 4
f 4 2 1
f 5 8 3
f 3 2 5
f 12 13 9
f 12 9 4
f 5 9 10
f 10 7 5
f 9 11 10
