v 0.0647500142 0.219855721 0.12899988
v 0.059750019 0.214855607 0.12899988
v 0.0634558781 0.219685252 0.12899988
v 0.062249957 0.219185765 0.12899988
v 0.0612145051 0.218391235 0.12899988
v 0.060419856 0.217355664 0.12899988
v 0.059920369 0.216149743 0.12899988
v 0.059750019 0.212645473 0.12899988
v 0.0717349335 0.219855721 0.12899988
v 0.0717349335 0.212645473 0.12899988
v 0.0647500142 0.219855721 0.117749891
v 0.0634558781 0.219685252 0.117749891
v 0.062249957 0.219185765 0.117749891
v 0.0612145051 0.218391235 0.117749891
v 0.060419856 0.217355664 0.117749891
v 0.059920369 0.216149743 0.117749891
v 0.059750019 0.214855607 0.117749891
v 0.059750019 0.212645473 0.117749891
v 0.0664179527 0.212645473 0.117749891
v 0.0717349335 0.219855721 0.117749891
f 19 20 10
f 10 20 9
f 1 9 11
f 9 20 11
f 8 18 19
f 19 10 8
f 1 11 3
f 3 11 12
f 5 4 13
f 14 5 13
f 4 3 13
f 13 3 12
f 17 8 2
f 18 8 17
f 7 8 10
f 7 10 9
f 7 9 1
f 2 8 7
f 1 3 7
f 5 6 7
f 7 4 5
f 7 3 4
f 16 17 7
f 7 17 2
f 19 18 15
f 15 11 20
f 15 20 19
f 18 17 15
f 12 11 15
f 14 13 15
f 15 13 12
f 15 17 16
f 15 6 5
f 15 5 14
f 15 7 6
f 16 7 15
