v -0.203215541 0.123030837 0.106499902
v -0.203215541 0.123030837 0.117749891
v -0.203215541 0.130101855 0.106499902
v -0.202421011 0.129066403 0.117749891
v -0.202421011 0.129066403 0.106499902
v -0.201921524 0.127860482 0.117749891
v -0.201921524 0.127860482 0.106499902
v -0.201751055 0.126566346 0.117749891
v -0.201751055 0.126566346 0.106499902
v -0.201878907 0.125595833 0.117749891
v -0.201878907 0.125595833 0.106499902
v -0.201921524 0.125272329 0.117749891
v -0.201921524 0.125272329 0.106499902
v -0.202421011 0.124066408 0.117749891
v -0.202421011 0.124066408 0.106499902
v -0.203215541 0.130101855 0.117749891
v -0.203338245 0.130224559 0.106499902
v -0.203338245 0.130224559 0.117749891
v -0.206925444 0.118957117 0.117749891
v -0.206925444 0.118957117 0.106499902
f 20 18 17
f 20 19 18
f 19 20 2
f 2 20 1
f 2 1 15
f 15 14 2
f 17 18 3
f 18 16 3
f 3 16 4
f 4 5 3
f 6 9 7
f 8 9 6
f 4 6 5
f 5 6 7
f 13 14 15
f 13 12 14
f 18 19 10
f 10 16 18
f 19 2 10
f 10 6 4
f 4 16 10
f 14 12 10
f 10 2 14
f 8 6 10
f 17 3 11
f 11 20 17
f 15 1 11
f 1 20 11
f 7 9 11
f 11 13 15
f 11 3 5
f 11 5 7
f 11 9 8
f 8 10 11
f 12 13 11
f 11 10 12
