v 0.0250000342 -0.22690997 0.0804999385
v 0.0250000342 -0.213339989 0.0804999385
v 0.0197500273 -0.213339989 0.0864998613
v 0.0197500273 -0.22690997 0.0864998613
v 0.0197500273 -0.22690997 0.0824999128
v 0.0197500273 -0.213339989 0.0824999128
v 0.0296250417 -0.213339989 0.0804999385
v 0.0296250417 -0.22690997 0.0804999385
v 0.0296250417 -0.213339989 0.0864998613
v 0.0296250417 -0.22690997 0.0864998613
f 9 10 7
f 10 8 7
f 3 9 7
f 7 6 3
f 7 2 6
f 4 9 3
f 4 10 9
f 3 6 4
f 6 5 4
f 1 7 8
f 2 7 1
f 10 4 1
f 1 8 10
f 1 4 5
f 6 2 1
f 1 5 6
