v -0.194285582 0.132355241 0.133999876
v -0.185460384 0.141180444 0.133999876
v -0.185460384 0.141180444 0.12899988
v -0.194285582 0.132355241 0.12899988
v -0.194285582 0.131441937 0.133999876
v -0.18454708 0.141180444 0.12899988
v -0.18454708 0.141180444 0.133999876
v -0.18454708 0.131441937 0.133999876
v -0.18454708 0.131441937 0.12899988
v -0.194285582 0.131441937 0.12899988
f 1 3 4
f 2 3 1
f 9 10 6
f 4 3 6
f 6 10 4
f 5 1 4
f 4 10 5
f 5 10 9
f 9 8 5
f 2 1 7
f 1 5 7
f 7 5 8
f 9 6 7
f 7 8 9
f 7 3 2
f 7 6 3
