v -0.200613798 0.0621029091 0.0789999281
v -0.20008594 0.0632500005 0.0789999281
v -0.201412262 0.0611246777 0.0789999281
v -0.202430309 0.0603775931 0.0789999281
v -0.20360309 0.0599094582 0.0789999281
v -0.204855622 0.0597500158 0.0789999281
v -0.204855622 0.0597500158 0.0839999233
v -0.20360309 0.0599094582 0.0839999233
v -0.202430309 0.0603775931 0.0839999233
v -0.201412262 0.0611246777 0.0839999233
v -0.200613798 0.0621029091 0.0839999233
v -0.20008594 0.0632500005 0.0839999233
v -0.199855627 0.0662500215 0.0789999281
v -0.199855627 0.0662500215 0.0839999233
v -0.199855627 0.0717349303 0.0789999281
v -0.199855627 0.0717349303 0.0839999233
v -0.209230633 0.0597500158 0.0789999281
v -0.209230633 0.0597500158 0.0839999233
v -0.209230633 0.0680000139 0.0839999233
v -0.209230633 0.0717349303 0.0789999281
f 20 19 16
f 16 15 20
f 19 20 18
f 18 20 17
f 12 1 2
f 11 1 12
f 13 15 14
f 14 15 16
f 14 2 13
f 14 12 2
f 9 8 5
f 4 9 5
f 17 6 7
f 7 18 17
f 16 19 7
f 7 10 11
f 19 18 7
f 7 14 16
f 11 12 7
f 7 8 9
f 9 10 7
f 12 14 7
f 6 5 7
f 7 5 8
f 3 15 13
f 3 20 15
f 4 5 3
f 17 20 3
f 3 6 17
f 13 2 3
f 2 1 3
f 3 5 6
f 3 10 9
f 3 9 4
f 3 1 11
f 11 10 3
