v -0.108106913 0.250976325 0.0839999233
v -0.120087893 0.250976326 0.0839999233
v -0.120087893 0.244715356 0.0947701571
v -0.108106913 0.248840168 0.0876745616
v -0.120087893 0.24515169 0.094019642
v -0.108106913 0.244689207 0.0948151608
v -0.118718495 0.244689251 0.0948151608
v -0.108106913 0.248487121 0.0882819492
v -0.11991256 0.244689204 0.0948151608
v -0.120087893 0.244689198 0.0948151608
v -0.108106913 0.247252146 0.0904063845
v -0.114426678 0.244689246 0.0948151608
f 2 1 4
f 8 1 2
f 7 8 2
f 2 5 7
f 9 5 10
f 7 5 9
f 3 2 4
f 3 4 6
f 3 6 10
f 11 12 6
f 10 6 9
f 9 12 7
f 6 12 9
f 10 5 3
f 5 2 3
f 6 4 11
f 11 1 8
f 4 1 11
f 7 12 11
f 11 8 7
