v -0.219816984 -0.0771830129 0.0952499126
v -0.219816984 -0.0771830129 0.106499902
v -0.219829761 -0.0772800687 0.0952499126
v -0.219987334 -0.0784770894 0.0952499126
v -0.219987334 -0.0784770894 0.106499902
v -0.220486821 -0.0796830106 0.0952499126
v -0.220486821 -0.0796830106 0.106499902
v -0.22128147 -0.080718522 0.0952499126
v -0.22128147 -0.080718522 0.106499902
v -0.222317042 -0.0815131116 0.0952499126
v -0.222317042 -0.0815131116 0.106499902
v -0.223522843 -0.0820126581 0.0952499126
v -0.223522843 -0.0820126581 0.106499902
v -0.22481698 -0.0821830082 0.0952499126
v -0.22481698 -0.0821830082 0.106499902
v -0.225396674 -0.0821830082 0.0952499126
v -0.225396674 -0.0821830082 0.106499902
v -0.219816984 -0.0711830008 0.0952499126
v -0.219816984 -0.0711830008 0.106499902
f 1 2 3
f 4 3 5
f 5 3 2
f 19 18 16
f 16 17 19
f 2 1 18
f 18 19 2
f 6 4 5
f 5 7 6
f 9 8 6
f 6 7 9
f 10 8 9
f 9 11 10
f 18 1 14
f 16 18 14
f 1 3 14
f 14 4 6
f 10 12 14
f 6 8 14
f 14 8 10
f 14 3 4
f 14 17 16
f 14 15 17
f 13 2 19
f 13 19 17
f 17 15 13
f 7 5 13
f 13 9 7
f 13 5 2
f 11 9 13
f 13 12 10
f 10 11 13
f 13 14 12
f 15 14 13
