v -0.206925444 0.118957117 0.106499902
v -0.203215541 0.123030837 0.0952499126
v -0.203215541 0.123030837 0.106499902
v -0.203215541 0.130101855 0.0952499126
v -0.202421011 0.129066403 0.106499902
v -0.202421011 0.129066403 0.0952499126
v -0.201921524 0.127860482 0.106499902
v -0.201921524 0.127860482 0.0952499126
v -0.20183629 0.127213414 0.106499902
v -0.201878907 0.127536948 0.0952499126
v -0.201751055 0.126566346 0.106499902
v -0.201751055 0.126566346 0.0952499126
v -0.201878907 0.125595833 0.106499902
v -0.201921524 0.125272329 0.106499902
v -0.201878907 0.125595833 0.0952499126
v -0.201921524 0.125272329 0.0952499126
v -0.202108832 0.124820108 0.0952499126
v -0.202421011 0.124066408 0.106499902
v -0.202421011 0.124066408 0.0952499126
v -0.203215541 0.130101855 0.106499902
v -0.203338245 0.130224559 0.0952499126
v -0.203338245 0.130224559 0.106499902
v -0.206925444 0.118957117 0.0952499126
f 17 18 19
f 17 14 18
f 17 16 14
f 19 18 3
f 3 2 19
f 23 2 1
f 2 3 1
f 1 22 21
f 21 23 1
f 21 22 20
f 20 4 21
f 6 4 20
f 20 5 6
f 12 10 9
f 11 12 9
f 8 7 9
f 9 10 8
f 22 1 9
f 9 20 22
f 9 1 3
f 9 3 18
f 18 14 9
f 9 13 11
f 5 20 9
f 14 13 9
f 9 7 5
f 8 6 7
f 6 5 7
f 15 23 21
f 21 4 15
f 8 10 15
f 15 2 23
f 19 2 15
f 15 6 8
f 15 10 12
f 15 4 6
f 15 17 19
f 16 17 15
f 11 13 15
f 15 12 11
f 15 13 14
f 14 16 15
