v 0.200769363 -0.107689654 0.0952499126
v 0.200769363 -0.107689654 0.0839999233
v 0.206044017 -0.113131349 0.0839999233
v 0.206044017 -0.113131349 0.0952499126
v 0.206838547 -0.114166861 0.0839999233
v 0.206838547 -0.114166861 0.0952499126
v 0.207338153 -0.115372782 0.0839999233
v 0.207338153 -0.115372782 0.0952499126
v 0.207508503 -0.116666858 0.0839999233
v 0.207508503 -0.116666858 0.0952499126
v 0.207338153 -0.117960994 0.0839999233
v 0.207338153 -0.117960994 0.0952499126
v 0.206923475 -0.118961872 0.0839999233
v 0.206923475 -0.118961872 0.0952499126
f 14 2 13
f 1 2 14
f 11 14 13
f 12 14 11
f 9 11 7
f 7 3 5
f 13 2 7
f 7 11 13
f 2 3 7
f 10 11 9
f 12 11 10
f 4 2 1
f 4 3 2
f 9 7 10
f 10 7 8
f 1 14 6
f 6 14 12
f 6 4 1
f 12 10 6
f 6 10 8
f 6 7 5
f 8 7 6
f 5 3 6
f 3 4 6
