v -0.123030843 -0.203215544 0.0389999662
v -0.130101861 -0.203215544 0.0389999662
v -0.129066409 -0.202420955 0.0389999662
v -0.127860488 -0.201921468 0.0389999662
v -0.126566352 -0.201751118 0.0389999662
v -0.125272216 -0.201921468 0.0389999662
v -0.124066414 -0.202420955 0.0389999662
v -0.131659509 -0.204773189 0.0389999662
v -0.119674595 -0.206449025 0.0389999662
v -0.123030843 -0.203215544 0.0502499555
v -0.130101861 -0.203215544 0.0502499555
v -0.129066409 -0.202420955 0.0502499555
v -0.127860488 -0.201921468 0.0502499555
v -0.126566352 -0.201751118 0.0502499555
v -0.125272216 -0.201921468 0.0502499555
v -0.124066414 -0.202420955 0.0502499555
v -0.131659509 -0.204773189 0.0502499555
v -0.119674595 -0.206449025 0.0502499555
v -0.131659509 -0.210487933 0.0389999662
v -0.119674595 -0.210487933 0.0389999662
f 19 17 8
f 18 20 9
f 18 19 20
f 17 19 18
f 10 18 1
f 1 18 9
f 11 2 8
f 8 17 11
f 12 4 3
f 13 4 12
f 3 2 12
f 2 11 12
f 10 1 16
f 1 7 16
f 16 7 6
f 6 15 16
f 5 19 8
f 9 20 5
f 5 1 9
f 20 19 5
f 6 7 5
f 8 2 5
f 5 2 3
f 5 7 1
f 3 4 5
f 14 18 10
f 17 18 14
f 14 12 11
f 14 11 17
f 10 16 14
f 13 12 14
f 14 16 15
f 14 4 13
f 14 5 4
f 14 15 6
f 6 5 14
