v 0.0244637116 -0.189419453 0.153589777
v 0.0244153127 -0.189008062 0.153271965
v 0.0243782386 -0.188692396 0.152857832
v 0.0232109412 -0.188696866 0.152375392
v 0.0231952056 -0.188630586 0.151857785
v 0.0243548735 -0.188493972 0.152375392
v 0.0243470057 -0.188426261 0.151857785
v 0.0255146607 -0.189357882 0.153589777
v 0.0255146607 -0.188943629 0.153271965
v 0.0255146607 -0.188625817 0.152857832
v 0.0255146607 -0.188357835 0.151857785
v 0.027500002 -0.189840202 0.153789571
v 0.0255146607 -0.189840202 0.153789571
v 0.027500002 -0.189357882 0.153589777
v 0.027500002 -0.188943629 0.153271965
v 0.027500002 -0.188625817 0.152857832
v 0.027500002 -0.188426023 0.152375392
v 0.0255146607 -0.188426023 0.152375392
v 0.027500002 -0.188357835 0.151857785
v 0.027500002 -0.191978936 0.154478839
v 0.0137500002 -0.191090747 0.153656973
v 0.0137500002 -0.190857828 0.153413651
v 0.0137500002 -0.190666626 0.153133289
v 0.0137500002 -0.190523936 0.152822813
v 0.0137500002 -0.190435481 0.152490723
v 0.0137500002 -0.191978936 0.154478839
v 0.027500002 -0.196622183 0.154478839
v 0.0137500002 -0.196622183 0.154478839
v 0.0231952056 -0.188630586 0.145718328
v 0.0243470057 -0.188426261 0.145718328
v 0.0255146607 -0.188357835 0.145718328
v 0.027500002 -0.188357835 0.145718328
v 0.0137500002 -0.190389692 0.145718328
v 0.0137500002 -0.190405185 0.152147013
v 0.027500002 -0.193447535 0.145718328
v 0.0137500002 -0.193447535 0.145718328
f 3 6 24
f 4 25 24
f 24 6 4
f 29 33 5
f 25 4 5
f 23 3 24
f 22 3 23
f 2 21 26
f 22 21 2
f 2 3 22
f 34 5 33
f 25 5 34
f 6 11 7
f 7 4 6
f 7 5 4
f 18 11 6
f 6 3 18
f 1 2 26
f 10 18 3
f 2 1 9
f 3 2 9
f 9 10 3
f 8 9 1
f 26 13 8
f 8 1 26
f 26 28 20
f 20 28 27
f 35 28 36
f 27 28 35
f 26 21 34
f 36 28 34
f 34 28 26
f 34 33 36
f 24 25 34
f 34 21 22
f 34 23 24
f 22 23 34
f 7 30 29
f 29 5 7
f 36 33 31
f 32 35 31
f 31 33 29
f 31 35 36
f 29 30 31
f 30 7 31
f 31 7 11
f 32 31 19
f 19 31 11
f 17 19 18
f 18 19 11
f 16 12 20
f 27 35 16
f 16 20 27
f 16 35 32
f 32 19 16
f 16 14 12
f 16 19 17
f 15 14 16
f 26 20 13
f 20 12 13
f 17 18 10
f 10 16 17
f 15 16 9
f 16 10 9
f 12 14 8
f 8 13 12
f 8 14 15
f 15 9 8
