v 0.140452417 -0.248456295 0.0502499555
v 0.140452417 -0.237679685 0.0389999662
v 0.140452417 -0.248456295 0.0389999662
v 0.143372234 -0.237679685 0.0420480462
v 0.142749672 -0.243545375 0.0475214854
v 0.143372234 -0.237679685 0.0389999662
v 0.144425595 -0.239962697 0.0389999662
v 0.144909627 -0.243999078 0.0389999662
v 0.143886058 -0.245022648 0.0425844418
v 0.141395759 -0.247512951 0.0502499555
v 0.141715729 -0.247192981 0.0494945697
f 1 2 3
f 2 4 6
f 7 6 4
f 7 5 8
f 4 5 7
f 1 11 10
f 10 11 5
f 10 2 1
f 10 4 2
f 10 5 4
f 8 5 9
f 5 11 9
f 7 3 2
f 8 3 7
f 2 6 7
f 9 3 8
f 9 11 1
f 1 3 9
