v 0.0450000151 0.193447526 0.14895778
v 0.0450000151 0.188357885 0.14895778
v 0.0450000151 0.193447526 0.153857759
v 0.0450000151 0.188357885 0.151857785
v 0.0450000151 0.190357859 0.153857759
v 0.0450000151 0.189357812 0.153589777
v 0.0450000151 0.189840252 0.153789571
v 0.0450000151 0.188425953 0.152375392
v 0.0450000151 0.188625867 0.152857832
v 0.0395000562 0.191978981 0.154478839
v 0.0395000562 0.196622114 0.154478839
v 0.0396999701 0.193447526 0.145718328
v 0.0362500086 0.188357885 0.151857785
v 0.0362500086 0.189840252 0.153789571
v 0.0362500086 0.189357812 0.153589777
v 0.0362500086 0.188943679 0.153271965
v 0.0450000151 0.188943679 0.153271965
v 0.0362500086 0.188625867 0.152857832
v 0.0362500086 0.188425953 0.152375392
v 0.0362500086 0.191978981 0.154478839
v 0.0362500086 0.196622114 0.154478839
v 0.0362500086 0.188357885 0.145718328
v 0.0396999701 0.188357885 0.145718328
v 0.0362500086 0.193447526 0.145718328
f 12 11 1
f 1 11 3
f 7 5 10
f 11 12 21
f 12 24 21
f 10 21 20
f 11 21 10
f 5 3 11
f 11 10 5
f 1 2 23
f 23 12 1
f 23 24 12
f 23 22 24
f 4 23 2
f 13 22 4
f 22 23 4
f 13 4 19
f 19 4 8
f 7 14 15
f 7 15 6
f 7 10 20
f 20 14 7
f 9 19 8
f 9 18 19
f 16 14 20
f 24 22 16
f 16 21 24
f 16 22 13
f 20 21 16
f 15 14 16
f 13 19 16
f 19 18 16
f 17 7 6
f 1 3 17
f 17 2 1
f 17 4 2
f 3 5 17
f 8 4 17
f 5 7 17
f 17 9 8
f 18 9 17
f 17 16 18
f 15 16 17
f 6 15 17
