v -0.107218327 0.200197632 0.0389999662
v -0.108082832 0.200659688 0.0389999662
v -0.0988405362 0.199816997 0.0389999662
v -0.105304898 0.199816997 0.0389999662
v -0.106280388 0.19991308 0.0389999662
v -0.108106913 0.200679449 0.0389999662
v -0.0988405362 0.199816997 0.0502499555
v -0.105304898 0.199816997 0.0502499555
v -0.108082832 0.200659688 0.0502499555
v -0.107218327 0.200197632 0.0502499555
v -0.106280388 0.19991308 0.0502499555
v -0.108106913 0.200679449 0.0502499555
v -0.0988405362 0.209192003 0.0502499555
v -0.108106913 0.209192003 0.0389999662
v -0.0988405362 0.209192003 0.0389999662
v -0.10596353 0.209192003 0.0502499555
f 6 12 14
f 16 14 12
f 15 7 3
f 13 7 15
f 3 7 8
f 8 4 3
f 13 15 16
f 15 14 16
f 2 15 3
f 6 14 2
f 3 4 2
f 2 14 15
f 4 5 2
f 2 5 1
f 6 2 9
f 9 12 6
f 9 2 1
f 1 10 9
f 11 7 13
f 11 8 7
f 13 16 11
f 11 16 12
f 12 9 11
f 11 9 10
f 4 8 11
f 11 5 4
f 1 5 11
f 11 10 1
