v 0.191978984 -0.0275000083 0.154478839
v 0.188357888 -0.0275000083 0.145718328
v 0.188357888 -0.0362500149 0.151857785
v 0.188357888 -0.0275000083 0.151857785
v 0.189840256 -0.0275000083 0.153789571
v 0.189840256 -0.0362500149 0.153789571
v 0.189357816 -0.0275000083 0.153589777
v 0.189357816 -0.0362500149 0.153589777
v 0.188943683 -0.0275000083 0.153271965
v 0.188943683 -0.0362500149 0.153271965
v 0.188625871 -0.0362500149 0.152857832
v 0.188625871 -0.0275000083 0.152857832
v 0.188425957 -0.0275000083 0.152375392
v 0.188425957 -0.0362500149 0.152375392
v 0.191978984 -0.0362500149 0.154478839
v 0.196622117 -0.0275000083 0.154478839
v 0.196622117 -0.0362500149 0.154478839
v 0.188357888 -0.0362500149 0.145718328
v 0.193447529 -0.0362500149 0.145718328
v 0.193447529 -0.0275000083 0.145718328
f 19 18 20
f 20 18 2
f 19 20 17
f 17 20 16
f 4 18 3
f 2 18 4
f 16 1 15
f 15 17 16
f 14 4 3
f 13 4 14
f 7 9 10
f 8 7 10
f 12 20 2
f 12 1 16
f 16 20 12
f 2 4 12
f 12 4 13
f 12 5 1
f 12 9 7
f 7 5 12
f 12 14 11
f 13 14 12
f 11 10 12
f 12 10 9
f 6 15 1
f 1 5 6
f 6 18 19
f 19 17 6
f 3 18 6
f 8 10 6
f 6 14 3
f 17 15 6
f 11 14 6
f 6 10 11
f 6 5 7
f 6 7 8
