v 0.0817499741 0.256105657 0.0389999662
v 0.0817499741 0.257803853 0.0389999662
v 0.0819175824 0.259087379 0.0389999662
v 0.0824089631 0.260284836 0.0389999662
v 0.0831912144 0.261315997 0.0389999662
v 0.0947198256 0.256105657 0.0389999662
v 0.0831912144 0.261315997 0.0502499555
v 0.0824089631 0.260284836 0.0502499555
v 0.0819175824 0.259087379 0.0502499555
v 0.0817499741 0.256105657 0.0502499555
v 0.0817499741 0.257803853 0.0502499555
v 0.0863845452 0.2645518 0.0389999662
v 0.0947198256 0.2645518 0.0389999662
v 0.0863845452 0.2645518 0.0502499555
f 14 6 13
f 10 6 14
f 6 10 1
f 14 13 12
f 2 5 12
f 13 6 2
f 2 6 1
f 12 13 2
f 4 5 2
f 2 3 4
f 4 3 8
f 3 9 8
f 1 10 11
f 11 2 1
f 3 2 11
f 11 9 3
f 12 5 7
f 7 14 12
f 10 14 7
f 7 11 10
f 7 8 9
f 9 11 7
f 7 5 4
f 4 8 7
