v -0.270063819 0.118363435 0.051231793
v -0.264094721 0.116421335 0.0614999447
v -0.264094726 0.107689674 0.0614999447
v -0.270634516 0.117639479 0.0502499555
v -0.269978255 0.118455994 0.0502499555
v -0.266849192 0.107689674 0.0567616693
v -0.267832544 0.107689674 0.0550699471
v -0.27063457 0.109566677 0.0502499555
v -0.26985067 0.107689674 0.0515984384
v -0.270634555 0.108891285 0.0502499555
v -0.270634528 0.107689674 0.0502499555
v -0.26996877 0.118466254 0.0513952959
v -0.264094719 0.118466254 0.0614999447
v -0.26996877 0.118466254 0.0502499555
f 1 4 8
f 5 4 1
f 12 1 13
f 13 1 6
f 6 3 13
f 14 2 3
f 13 2 14
f 14 12 13
f 11 9 10
f 10 9 8
f 11 14 7
f 7 14 3
f 8 9 6
f 6 1 8
f 5 1 14
f 1 12 14
f 10 4 5
f 8 4 10
f 5 14 10
f 10 14 11
f 3 6 7
f 7 6 9
f 7 9 11
