v 0.143644421 0.225873055 0.127249822
v 0.143644421 0.232158507 0.116437348
v 0.152759378 0.225873055 0.116437348
v 0.152759378 0.225873055 0.127249821
v 0.149580896 0.225873055 0.127249822
v 0.143644421 0.231713243 0.117203346
v 0.143644421 0.228667598 0.122442563
v 0.153969114 0.227082791 0.125168794
v 0.153969114 0.227082791 0.116437348
v 0.153490394 0.227561512 0.1243453
v 0.148893374 0.232158532 0.116437348
v 0.149014228 0.232037678 0.116645257
v 0.149129359 0.231922547 0.116843321
v 0.151194349 0.229857557 0.120395591
v 0.150371847 0.230680058 0.118980695
f 1 2 3
f 1 5 14
f 12 6 13
f 10 4 8
f 10 5 4
f 10 14 5
f 1 14 7
f 13 6 7
f 13 7 15
f 15 7 14
f 9 4 3
f 8 4 9
f 11 3 2
f 11 9 3
f 3 4 5
f 1 3 5
f 2 6 12
f 12 11 2
f 7 6 2
f 7 2 1
f 9 11 15
f 11 12 15
f 15 12 13
f 8 9 15
f 15 10 8
f 14 10 15
