v -0.274816932 -0.105807488 0.0429885898
v -0.274816932 -0.105807488 0.0389999662
v -0.273329081 -0.0955179381 0.0455481325
v -0.273960532 -0.0962783146 0.0389999662
v -0.274430098 -0.0971480655 0.0389999662
v -0.273960532 -0.0962783146 0.0444618974
v -0.274430098 -0.0971480655 0.0436542545
v -0.274816932 -0.099076693 0.0389999662
v -0.274816932 -0.099076693 0.0429885898
v -0.274719299 -0.0980931568 0.0389999662
v -0.274792494 -0.0985825109 0.0430307899
v -0.274719299 -0.0980931568 0.0431566749
v -0.274598064 -0.0976134586 0.043365172
v -0.274636009 -0.108106916 0.0389999662
v -0.274668887 -0.108106916 0.0411772229
v -0.273329081 -0.0955179381 0.0389999662
v -0.272951151 -0.095144962 0.0461982574
v -0.270595812 -0.095144962 0.0502499555
v -0.270595772 -0.0991543845 0.0502499555
v -0.274755301 -0.10737664 0.0430946861
v -0.270595869 -0.107567552 0.0502499555
v -0.27059586 -0.108106916 0.0502499555
v -0.270595868 -0.10351353 0.0502499555
v -0.270595866 -0.102128112 0.0502499555
v -0.272982544 -0.108106916 0.0461443517
v -0.270595868 -0.103695225 0.0502499555
v -0.270842852 -0.108106916 0.0498250917
v -0.274668887 -0.108106916 0.0432433985
v -0.274086621 -0.108106916 0.0442450936
v -0.265441941 -0.108106916 0.0389999662
v -0.272951151 -0.095144962 0.0389999662
v -0.265441941 -0.095144962 0.0389999662
f 19 22 30
f 19 32 18
f 7 17 3
f 18 17 7
f 11 7 12
f 18 7 24
f 1 11 9
f 11 8 9
f 6 7 3
f 13 7 5
f 13 12 7
f 10 13 5
f 12 13 10
f 10 8 11
f 11 12 10
f 28 7 11
f 28 29 7
f 1 2 20
f 15 28 20
f 20 11 1
f 20 28 11
f 21 27 22
f 7 27 21
f 7 29 25
f 25 27 7
f 7 21 26
f 23 24 7
f 7 26 23
f 32 19 30
f 32 31 17
f 17 18 32
f 8 2 9
f 9 2 1
f 3 17 16
f 16 17 31
f 3 16 6
f 6 16 4
f 6 4 5
f 5 7 6
f 30 14 10
f 10 32 30
f 10 16 31
f 10 31 32
f 5 4 10
f 14 2 10
f 10 2 8
f 4 16 10
f 14 15 20
f 20 2 14
f 25 14 30
f 30 22 25
f 25 15 14
f 25 28 15
f 29 28 25
f 22 27 25
f 22 19 23
f 19 18 23
f 18 24 23
f 23 21 22
f 23 26 21
