v 0.203288385 0.130646413 0.0839999233
v 0.203176914 0.130534942 0.0839999233
v 0.203176914 0.123463805 0.0952499126
v 0.203176914 0.123463805 0.0839999233
v 0.202478825 0.124339278 0.0952499126
v 0.202478825 0.124339278 0.0839999233
v 0.201993047 0.125348027 0.0952499126
v 0.201993047 0.125348027 0.0839999233
v 0.20193076 0.125620897 0.0952499126
v 0.201868473 0.125893767 0.0839999233
v 0.201743899 0.126439507 0.0952499126
v 0.201743899 0.126439507 0.0839999233
v 0.201743899 0.12755924 0.0952499126
v 0.201743899 0.12755924 0.0839999233
v 0.20183733 0.127968545 0.0952499126
v 0.201868473 0.12810498 0.0839999233
v 0.201993047 0.12865072 0.0839999233
v 0.201993047 0.12865072 0.0952499126
v 0.202478825 0.129659588 0.0952499126
v 0.202478825 0.129659588 0.0839999233
v 0.203176914 0.130534942 0.0952499126
v 0.203288385 0.130646413 0.0952499126
v 0.206892377 0.11937666 0.0839999233
v 0.206892377 0.11937666 0.0952499126
f 23 1 24
f 1 22 24
f 24 4 23
f 3 4 24
f 5 7 6
f 6 7 8
f 3 5 6
f 6 4 3
f 10 9 11
f 11 12 10
f 10 7 9
f 8 7 10
f 13 14 12
f 13 12 11
f 19 20 17
f 17 18 19
f 21 24 22
f 11 9 21
f 3 24 21
f 9 7 21
f 21 13 11
f 21 5 3
f 21 7 5
f 18 15 21
f 21 19 18
f 21 15 13
f 21 22 1
f 1 2 21
f 21 2 20
f 20 19 21
f 16 6 8
f 16 1 23
f 16 2 1
f 23 4 16
f 8 10 16
f 12 14 16
f 17 20 16
f 4 6 16
f 16 10 12
f 20 2 16
f 16 18 17
f 16 15 18
f 13 15 16
f 14 13 16
