v -0.132068874 0.239911169 0.103034562
v -0.120087893 0.244199145 0.0956582554
v -0.132068874 0.239154765 0.104335661
v -0.132068874 0.238402137 0.105630398
v -0.131939905 0.238402138 0.105630398
v -0.120087893 0.242393414 0.0987645208
v -0.129929794 0.238402158 0.105630398
v -0.128117739 0.238402098 0.105630398
v -0.120087893 0.238402099 0.105630398
v -0.132068874 0.244689228 0.0948151608
v -0.132068874 0.240590545 0.101865753
v -0.121477595 0.244689241 0.0948151608
v -0.120087893 0.244627556 0.0949212105
v -0.120087893 0.244689198 0.0948151608
v -0.120163882 0.244689195 0.0948151608
f 1 2 10
f 9 11 15
f 15 11 10
f 6 7 9
f 9 15 14
f 5 7 1
f 12 10 2
f 14 12 13
f 13 12 2
f 8 11 9
f 3 8 4
f 11 8 3
f 1 7 6
f 6 2 1
f 12 15 10
f 12 14 15
f 2 6 13
f 13 6 9
f 9 14 13
f 4 5 1
f 7 5 8
f 9 7 8
f 5 4 8
f 10 11 3
f 1 10 3
f 3 4 1
