v 0.240404907 -0.131659468 0.102251717
v 0.238453606 -0.131659468 0.105608274
v 0.238453606 -0.137256842 0.10560841
v 0.24473429 -0.131659468 0.0948041665
v 0.238652347 -0.131659468 0.105266391
v 0.238905148 -0.140860136 0.104831576
v 0.240191783 -0.140860136 0.102618278
v 0.240233621 -0.140818298 0.102546308
v 0.238453606 -0.140860136 0.105608275
v 0.238453606 -0.139595158 0.105608236
v 0.240191783 -0.140860136 0.102618239
v 0.240953303 -0.140098616 0.101308239
v 0.240715432 -0.140336487 0.101717436
v 0.238453606 -0.132177394 0.105608271
v 0.241108237 -0.131659468 0.101041676
v 0.244734287 -0.136317632 0.0948041665
v 0.243450142 -0.137601777 0.0970131416
v 0.242390621 -0.138661298 0.0988357447
v 0.243677176 -0.137374743 0.0966226443
v 0.241847794 -0.139204125 0.0997696084
f 2 3 1
f 1 3 4
f 5 15 10
f 19 16 4
f 10 12 9
f 6 3 9
f 17 15 4
f 4 16 17
f 2 5 14
f 14 5 10
f 8 20 3
f 11 9 12
f 15 17 18
f 13 11 12
f 12 18 13
f 5 1 4
f 2 1 5
f 4 15 5
f 3 20 19
f 4 3 19
f 14 9 3
f 14 3 2
f 10 9 14
f 6 7 8
f 8 3 6
f 11 7 6
f 6 9 11
f 10 15 18
f 18 12 10
f 7 11 13
f 13 8 7
f 13 19 20
f 20 8 13
f 16 19 13
f 13 18 17
f 13 17 16
