v -0.202421011 0.124066408 0.0389999662
v -0.201751055 0.126566346 0.0389999662
v -0.203215541 0.123030837 0.0389999662
v -0.201921524 0.127860482 0.0389999662
v -0.202421011 0.129066403 0.0389999662
v -0.203215541 0.130101855 0.0389999662
v -0.204773189 0.131659503 0.0389999662
v -0.206448991 0.119674588 0.0389999662
v -0.203215541 0.123030837 0.0502499555
v -0.202421011 0.129066403 0.0502499555
v -0.201921524 0.127860482 0.0502499555
v -0.201751055 0.126566346 0.0502499555
v -0.201921524 0.125272329 0.0502499555
v -0.201921524 0.125272329 0.0389999662
v -0.202421011 0.124066408 0.0502499555
v -0.203215541 0.130101855 0.0502499555
v -0.204773189 0.131659503 0.0502499555
v -0.206448991 0.119674588 0.0502499555
v -0.2104879 0.131659503 0.0389999662
v -0.2104879 0.119674588 0.0389999662
f 18 20 8
f 18 19 20
f 17 19 18
f 7 19 17
f 13 14 2
f 2 12 13
f 1 14 13
f 13 15 1
f 8 3 9
f 9 18 8
f 1 15 9
f 9 3 1
f 12 11 16
f 16 13 12
f 17 18 16
f 18 9 16
f 15 13 16
f 16 9 15
f 16 11 10
f 4 12 2
f 4 11 12
f 10 11 4
f 4 5 10
f 20 19 6
f 6 3 8
f 8 20 6
f 2 14 6
f 19 7 6
f 6 14 1
f 1 3 6
f 6 4 2
f 5 4 6
f 17 16 6
f 6 7 17
f 6 16 10
f 10 5 6
