v -0.220500054 -0.0275000083 0.171999863
v -0.220500054 -0.0395000028 0.16599994
v -0.220500054 -0.0275000083 0.16599994
v -0.20623952 -0.0275000083 0.162989167
v -0.20623952 -0.0395000028 0.162989167
v -0.20623952 -0.0275000083 0.171999863
v -0.220500054 -0.0412500101 0.168999961
v -0.220500054 -0.0412500101 0.171999863
v -0.20623952 -0.0412500101 0.168999961
v -0.20623952 -0.0412500101 0.171999863
f 5 7 2
f 9 7 5
f 6 4 3
f 1 6 3
f 3 4 5
f 5 2 3
f 10 9 5
f 10 4 6
f 5 4 10
f 1 3 8
f 8 3 2
f 8 2 7
f 8 10 6
f 8 6 1
f 7 9 8
f 9 10 8
