v -0.195289882 0.187318869 0.0389999662
v -0.195289882 0.187318869 0.033999971
v -0.195854354 0.187318869 0.033999971
v -0.203260898 0.179912325 0.033999971
v -0.203260898 0.179347855 0.033999971
v -0.203260898 0.179347855 0.0389999662
v -0.203260898 0.179912325 0.0389999662
v -0.195289882 0.179347855 0.0389999662
v -0.195854354 0.187318869 0.0389999662
v -0.195289882 0.179347855 0.033999971
f 2 3 9
f 1 2 9
f 4 3 10
f 10 5 4
f 10 3 2
f 10 8 6
f 10 6 5
f 1 8 10
f 10 2 1
f 6 8 7
f 7 8 1
f 1 9 7
f 4 5 7
f 5 6 7
f 7 3 4
f 7 9 3
