v -0.225827919 -0.15318595 0.116445603
v -0.232115004 -0.144049858 0.116445603
v -0.226886882 -0.144049858 0.125439168
v -0.225827919 -0.144049858 0.12726083
v -0.225827919 -0.153185953 0.12726083
v -0.232115068 -0.148095695 0.116445603
v -0.231686136 -0.144049858 0.117183371
v -0.229346813 -0.151705109 0.121207635
v -0.230194468 -0.150857454 0.119749483
v -0.228278747 -0.152773175 0.123044923
v -0.226846944 -0.154204978 0.12550787
v -0.226846944 -0.154204978 0.119454882
v -0.226846944 -0.154204978 0.116445603
v -0.232115073 -0.148936849 0.116445603
v -0.231805109 -0.149246813 0.116978813
v -0.227256778 -0.153795144 0.124802911
v -0.226968063 -0.154083859 0.125299558
v -0.226921632 -0.154130291 0.125379416
f 1 2 3
f 3 4 1
f 9 8 4
f 1 4 5
f 11 12 5
f 6 7 2
f 4 7 6
f 15 6 14
f 11 5 18
f 5 17 18
f 4 8 10
f 16 17 5
f 2 7 3
f 3 7 4
f 5 13 1
f 5 12 13
f 6 2 1
f 6 13 14
f 1 13 6
f 15 9 4
f 4 6 15
f 16 12 11
f 14 13 16
f 16 15 14
f 13 12 16
f 8 9 16
f 11 18 16
f 9 15 16
f 16 18 17
f 16 10 8
f 16 5 4
f 4 10 16
