v 0.22539667 0.0821830583 0.128002676
v 0.224816976 0.0821830583 0.12899988
v 0.224816976 0.0841449452 0.12899988
v 0.22539667 0.0841449452 0.128002676
v 0.212606835 0.0841449452 0.12899988
v 0.219816981 0.0721639645 0.12899988
v 0.212606835 0.0721639645 0.12899988
v 0.219816981 0.0771830631 0.117749891
v 0.219987331 0.0784770799 0.117749891
v 0.220486818 0.0796830011 0.117749891
v 0.221281467 0.0807185722 0.117749891
v 0.222317038 0.0815131021 0.117749891
v 0.22352284 0.082012589 0.117749891
v 0.224816976 0.0821830583 0.117749891
v 0.22539667 0.0821830583 0.117749891
v 0.219816981 0.0721639645 0.117749891
f 2 6 1
f 1 3 2
f 6 7 16
f 10 5 11
f 13 5 14
f 12 5 13
f 12 11 5
f 4 5 3
f 15 14 4
f 4 14 5
f 1 15 4
f 4 3 1
f 9 8 5
f 9 5 10
f 6 2 5
f 5 7 6
f 5 2 3
f 1 6 16
f 16 15 1
f 7 5 8
f 8 16 7
f 16 8 9
f 13 14 9
f 9 12 13
f 15 16 9
f 10 11 9
f 9 14 15
f 11 12 9
