v 0.0450000151 -0.193447535 0.153857759
v 0.0450000151 -0.188357835 0.14895778
v 0.0450000151 -0.193447535 0.14895778
v 0.0450000151 -0.190357869 0.153857759
v 0.0450000151 -0.188357835 0.151857785
v 0.0450000151 -0.188426023 0.152375392
v 0.0450000151 -0.188625817 0.152857832
v 0.0450000151 -0.188943629 0.153271965
v 0.0450000151 -0.189357882 0.153589777
v 0.0450000151 -0.189840202 0.153789571
v 0.0395000562 -0.191978936 0.154478839
v 0.0395000562 -0.196622183 0.154478839
v 0.0396999701 -0.193447535 0.145718328
v 0.0396999701 -0.188357835 0.145718328
v 0.0362500086 -0.188357835 0.151857785
v 0.0362500086 -0.189840202 0.153789571
v 0.0362500086 -0.189357882 0.153589777
v 0.0362500086 -0.188943629 0.153271965
v 0.0362500086 -0.188625817 0.152857832
v 0.0362500086 -0.188426023 0.152375392
v 0.0362500086 -0.191978936 0.154478839
v 0.0362500086 -0.196622183 0.154478839
v 0.0362500086 -0.188357835 0.145718328
v 0.0362500086 -0.193447535 0.145718328
f 1 12 3
f 13 3 12
f 11 4 10
f 12 11 22
f 11 21 22
f 4 11 12
f 4 12 1
f 2 3 13
f 13 14 2
f 13 22 24
f 12 22 13
f 23 13 24
f 14 13 23
f 16 21 11
f 11 10 16
f 2 14 15
f 14 23 15
f 15 5 2
f 7 19 18
f 7 18 8
f 20 7 6
f 19 7 20
f 9 3 2
f 1 3 9
f 9 4 1
f 9 7 8
f 2 5 9
f 9 10 4
f 9 5 6
f 6 7 9
f 6 5 20
f 5 15 20
f 24 22 17
f 19 20 17
f 17 20 15
f 17 22 21
f 17 23 24
f 21 16 17
f 18 19 17
f 17 15 23
f 8 18 17
f 17 9 8
f 17 16 10
f 10 9 17
