v 0.200659691 0.108082826 0.12899988
v 0.200197636 0.10721832 0.12899988
v 0.199913083 0.106280382 0.12899988
v 0.199817 0.105304892 0.12899988
v 0.200679452 0.108106906 0.12899988
v 0.212606835 0.108106906 0.12899988
v 0.199817 0.0961259258 0.12899988
v 0.212606835 0.0961259258 0.12899988
v 0.199817 0.105304892 0.117749891
v 0.200197636 0.10721832 0.117749891
v 0.199913083 0.106280382 0.117749891
v 0.210289894 0.0994635177 0.117749891
v 0.212166248 0.102713521 0.117749891
v 0.210289894 0.105963523 0.117749891
v 0.200659691 0.108082826 0.117749891
v 0.200679452 0.108106906 0.117749891
v 0.199817 0.0961259258 0.117749891
f 5 6 16
f 16 6 14
f 12 8 17
f 17 8 7
f 13 6 8
f 13 8 12
f 13 14 6
f 17 7 4
f 4 9 17
f 11 9 3
f 3 9 4
f 3 10 11
f 2 10 3
f 4 7 1
f 7 8 1
f 8 6 1
f 6 5 1
f 1 3 4
f 2 3 1
f 15 17 9
f 15 9 11
f 15 13 12
f 12 17 15
f 16 14 15
f 14 13 15
f 11 10 15
f 15 1 5
f 15 5 16
f 15 10 2
f 2 1 15
