v 0.219816981 0.0771830631 0.0839999233
v 0.219816981 0.0771830631 0.0952499126
v 0.219987331 0.0784770799 0.0839999233
v 0.219987331 0.0784770799 0.0952499126
v 0.220486818 0.0796830011 0.0839999233
v 0.220486818 0.0796830011 0.0952499126
v 0.221281467 0.0807185722 0.0839999233
v 0.221281467 0.0807185722 0.0952499126
v 0.222317038 0.0815131021 0.0839999233
v 0.222317038 0.0815131021 0.0952499126
v 0.22352284 0.082012589 0.0839999233
v 0.22352284 0.082012589 0.0952499126
v 0.224816976 0.0821830583 0.0839999233
v 0.224816976 0.0821830583 0.0952499126
v 0.22539667 0.0821830583 0.0839999233
v 0.22539667 0.0821830583 0.0952499126
v 0.219816981 0.0711830211 0.0952499126
v 0.219816981 0.0711830211 0.0839999233
f 17 18 15
f 15 16 17
f 3 4 6
f 3 6 5
f 2 1 18
f 18 17 2
f 2 3 1
f 4 3 2
f 5 6 8
f 8 7 5
f 15 18 13
f 5 7 13
f 18 1 13
f 13 3 5
f 1 3 13
f 13 7 9
f 9 11 13
f 13 16 15
f 13 14 16
f 12 14 13
f 13 11 12
f 10 17 16
f 10 2 17
f 4 2 10
f 6 4 10
f 16 14 10
f 10 14 12
f 10 8 6
f 10 11 9
f 12 11 10
f 9 7 10
f 7 8 10
