v -0.0817499772 -0.251015009 0.0839999233
v -0.0947198287 -0.251015009 0.0839999233
v -0.0817499772 -0.25072521 0.0839999233
v -0.0817499772 -0.257554845 0.072749934
v -0.0817499772 -0.25072521 0.072749934
v -0.0947198287 -0.252827053 0.0808827867
v -0.0947198287 -0.253603132 0.079547761
v -0.0947198287 -0.254703835 0.0776543832
v -0.0863932576 -0.257554895 0.072749934
v -0.0947198287 -0.257554883 0.072749934
f 1 9 4
f 8 9 1
f 2 8 1
f 1 3 2
f 9 8 10
f 7 5 10
f 2 5 6
f 6 5 7
f 5 3 1
f 1 4 5
f 5 2 3
f 10 4 9
f 10 5 4
f 8 2 6
f 6 10 8
f 7 10 6
