v -0.219855608 0.064750011 0.12899988
v -0.218764843 0.0616325689 0.12899988
v -0.219730319 0.0636373711 0.12899988
v -0.217973055 0.0608408404 0.12899988
v -0.217025103 0.0602451515 0.12899988
v -0.215968312 0.0598753643 0.12899988
v -0.214855613 0.0597500158 0.12899988
v -0.212645479 0.0597500158 0.12899988
v -0.219855608 0.0717349303 0.12899988
v -0.212645479 0.0717349303 0.12899988
v -0.219855608 0.064750011 0.117749891
v -0.219730319 0.0636373711 0.117749891
v -0.219360532 0.0625805807 0.117749891
v -0.219360532 0.0625805807 0.12899988
v -0.218764843 0.0616325689 0.117749891
v -0.217973055 0.0608408404 0.117749891
v -0.217025103 0.0602451515 0.117749891
v -0.215968312 0.0598753643 0.117749891
v -0.214855613 0.0597500158 0.117749891
v -0.212645479 0.0597500158 0.117749891
v -0.212645479 0.0664179495 0.117749891
v -0.219855608 0.0717349303 0.117749891
f 9 10 22
f 22 10 21
f 21 10 8
f 8 20 21
f 1 9 11
f 9 22 11
f 14 12 13
f 14 3 12
f 3 11 12
f 1 11 3
f 2 14 15
f 15 14 13
f 18 19 7
f 7 6 18
f 20 8 7
f 7 19 20
f 4 9 1
f 4 8 10
f 4 10 9
f 4 5 6
f 4 14 2
f 1 3 4
f 3 14 4
f 6 7 4
f 4 7 8
f 4 15 16
f 2 15 4
f 17 11 22
f 21 20 17
f 17 19 18
f 17 15 13
f 17 22 21
f 13 12 17
f 12 11 17
f 20 19 17
f 16 15 17
f 6 5 17
f 18 6 17
f 5 4 17
f 17 4 16
