v -0.0450000182 -0.193447535 0.14895778
v -0.0450000182 -0.188357835 0.14895778
v -0.0450000182 -0.188357835 0.151857785
v -0.0450000182 -0.193447535 0.153857759
v -0.0450000182 -0.190357869 0.153857759
v -0.0450000182 -0.188426023 0.152375392
v -0.0450000182 -0.189357882 0.153589777
v -0.0450000182 -0.188625817 0.152857832
v -0.0450000182 -0.189840202 0.153789571
v -0.0395000592 -0.191978936 0.154478839
v -0.0395000592 -0.196622183 0.154478839
v -0.0396999732 -0.193447535 0.145718328
v -0.0362500117 -0.188357835 0.151857785
v -0.0362500117 -0.189840202 0.153789571
v -0.0362500117 -0.189357882 0.153589777
v -0.0362500117 -0.188943629 0.153271965
v -0.0450000182 -0.188943629 0.153271965
v -0.0362500117 -0.188625817 0.152857832
v -0.0362500117 -0.188426023 0.152375392
v -0.0362500117 -0.191978936 0.154478839
v -0.0362500117 -0.196622183 0.154478839
v -0.0362500117 -0.188357835 0.145718328
v -0.0396999732 -0.188357835 0.145718328
v -0.0362500117 -0.193447535 0.145718328
f 12 11 1
f 1 11 4
f 9 5 10
f 11 12 21
f 12 24 21
f 10 21 20
f 11 21 10
f 22 24 12
f 12 23 22
f 11 10 5
f 5 4 11
f 2 3 13
f 13 22 2
f 2 22 23
f 2 23 12
f 2 12 1
f 9 14 15
f 9 15 7
f 9 10 20
f 20 14 9
f 7 15 17
f 15 16 17
f 17 16 18
f 18 8 17
f 19 14 20
f 19 21 24
f 19 22 13
f 20 21 19
f 24 22 19
f 15 14 19
f 19 16 15
f 18 16 19
f 6 9 7
f 1 4 6
f 6 2 1
f 4 5 6
f 3 2 6
f 5 9 6
f 7 17 6
f 6 17 8
f 13 3 6
f 6 19 13
f 6 8 18
f 18 19 6
