v 0.199855624 -0.0984074521 0.0614999447
v 0.199855624 -0.104871933 0.0614999447
v 0.199855624 -0.104871933 0.072749934
v 0.200025974 -0.10616601 0.0614999447
v 0.200025974 -0.10616601 0.072749934
v 0.20052558 -0.107371931 0.0614999447
v 0.20052558 -0.107371931 0.072749934
v 0.200769363 -0.107689654 0.0614999447
v 0.200769363 -0.107689654 0.072749934
v 0.199855624 -0.0984074521 0.072749934
v 0.20923063 -0.105530505 0.0614999447
v 0.20923063 -0.105530505 0.072749934
v 0.20923063 -0.0984074521 0.0614999447
v 0.20923063 -0.0984074521 0.072749934
f 11 14 12
f 13 14 11
f 9 11 12
f 8 11 9
f 10 14 13
f 13 1 10
f 3 10 2
f 2 10 1
f 5 3 2
f 2 4 5
f 6 2 1
f 13 11 6
f 6 1 13
f 6 11 8
f 4 2 6
f 12 14 7
f 7 9 12
f 7 10 3
f 7 3 5
f 14 10 7
f 5 4 7
f 4 6 7
f 8 9 7
f 7 6 8
