v 0.251014968 -0.094719817 0.0839999233
v 0.25101495 -0.0986036336 0.0839999233
v 0.25257941 -0.094719817 0.0813086975
v 0.251014947 -0.0994421081 0.0839999233
v 0.252827008 -0.094719817 0.08088277
v 0.25101494 -0.102044603 0.0839999233
v 0.253465213 -0.094719817 0.0797849053
v 0.251015031 -0.105492987 0.0839999233
v 0.254703817 -0.094719817 0.0776544033
v 0.25101503 -0.107689654 0.0839999233
v 0.255077446 -0.094719817 0.0770116784
v 0.257554876 -0.107689654 0.072749934
v 0.257554884 -0.094719817 0.072749934
f 6 12 10
f 7 12 6
f 13 12 7
f 8 9 1
f 8 11 9
f 3 2 1
f 4 7 6
f 2 3 4
f 7 4 5
f 5 4 3
f 13 11 8
f 8 12 13
f 8 10 12
f 10 8 4
f 6 10 4
f 1 2 4
f 4 8 1
f 5 11 13
f 13 7 5
f 1 9 5
f 9 11 5
f 5 3 1
