v 0.0601829871 -0.204817002 0.0839999233
v 0.0601829871 -0.212606839 0.0839999233
v 0.0666829928 -0.199817007 0.0839999233
v 0.0721679016 -0.199817007 0.0839999233
v 0.0636829718 -0.200047319 0.0952499126
v 0.0636829718 -0.200047319 0.0839999233
v 0.0625359401 -0.200575178 0.0839999233
v 0.0625359401 -0.200575178 0.0952499126
v 0.0615577086 -0.201373582 0.0839999233
v 0.0615577086 -0.201373582 0.0952499126
v 0.060810624 -0.202391629 0.0839999233
v 0.060810624 -0.202391629 0.0952499126
v 0.0603424891 -0.203564351 0.0839999233
v 0.0603424891 -0.203564351 0.0952499126
v 0.0601829871 -0.204817002 0.0952499126
v 0.0684329852 -0.211693351 0.0952499126
v 0.0684329852 -0.211693351 0.0839999233
v 0.0666829928 -0.199817007 0.0952499126
v 0.0601829871 -0.212606839 0.0952499126
v 0.0668507978 -0.212606839 0.0839999233
v 0.0668507978 -0.212606839 0.0952499126
v 0.0721679016 -0.199817007 0.0952499126
f 4 22 16
f 16 17 4
f 1 2 15
f 2 19 15
f 21 17 16
f 21 20 17
f 21 19 2
f 2 20 21
f 7 8 5
f 5 6 7
f 1 15 13
f 15 14 13
f 12 21 16
f 8 10 12
f 16 22 12
f 5 8 12
f 12 18 5
f 12 15 19
f 12 14 15
f 19 21 12
f 22 18 12
f 11 13 12
f 12 13 14
f 22 4 3
f 3 18 22
f 3 6 5
f 5 18 3
f 9 4 17
f 9 20 2
f 9 2 1
f 9 7 6
f 17 20 9
f 1 13 9
f 9 3 4
f 9 13 11
f 6 3 9
f 9 10 8
f 8 7 9
f 11 12 9
f 9 12 10
