v 0.237674168 0.140452654 0.0389999662
v 0.248456084 0.140452654 0.0389999662
v 0.248456084 0.140452654 0.0502499555
v 0.237674168 0.143377738 0.0420520364
v 0.237674168 0.143377738 0.0389999662
v 0.243999058 0.14490968 0.0389999662
v 0.239958395 0.144429941 0.0389999662
v 0.247512961 0.141395777 0.0502499555
v 0.239680094 0.141815558 0.0425150475
v 0.245020906 0.143887832 0.0425842752
v 0.247192421 0.141716317 0.0494946953
f 1 2 3
f 1 4 5
f 9 4 1
f 7 4 6
f 7 5 4
f 6 4 10
f 4 11 10
f 3 11 8
f 8 11 4
f 4 9 8
f 7 6 2
f 7 2 1
f 1 5 7
f 2 6 10
f 10 3 2
f 10 11 3
f 8 9 1
f 1 3 8
