v 0.108936129 -0.274570768 0.0434122596
v 0.108936129 -0.274570768 0.0389999662
v 0.110476433 -0.2742644 0.0439392839
v 0.111987768 -0.273838108 0.0389999662
v 0.111987768 -0.273838108 0.0446725402
v 0.114887296 -0.272637134 0.0389999662
v 0.113461195 -0.273294573 0.0456074987
v 0.116257487 -0.271869783 0.0480584417
v 0.117563187 -0.27099735 0.0389999662
v 0.117563187 -0.27099735 0.0495592867
v 0.108122645 -0.27463479 0.0389999662
v 0.108122645 -0.274667059 0.0411359063
v 0.108122645 -0.274667059 0.0432466029
v 0.108122645 -0.274095813 0.0442292893
v 0.108122645 -0.272991035 0.0461297587
v 0.118697417 -0.270103123 0.0502499555
v 0.11807245 -0.270595847 0.0502499555
v 0.114887296 -0.272637134 0.0467385564
v 0.109999649 -0.270595889 0.0502499555
v 0.108122645 -0.270595848 0.0502499555
v 0.118899236 -0.269856246 0.0389999662
v 0.118899236 -0.269918743 0.0484368092
v 0.118888975 -0.269939515 0.0502499555
v 0.118899236 -0.269930031 0.0501411269
v 0.118899236 -0.269930031 0.0502499555
v 0.108122645 -0.265420216 0.0389999662
v 0.118899236 -0.265420216 0.0389999662
f 27 26 25
f 25 26 20
f 6 9 8
f 10 8 9
f 7 4 6
f 23 24 25
f 15 19 20
f 11 2 12
f 3 2 4
f 6 8 18
f 18 7 6
f 8 10 18
f 18 17 19
f 10 17 18
f 2 3 1
f 4 7 5
f 5 3 4
f 5 18 3
f 7 18 5
f 13 1 14
f 21 9 2
f 2 27 21
f 11 26 2
f 2 26 27
f 2 9 6
f 6 4 2
f 17 9 16
f 17 10 9
f 17 25 20
f 20 19 17
f 16 23 17
f 17 23 25
f 19 15 18
f 15 3 18
f 21 27 22
f 27 25 22
f 25 24 22
f 22 9 21
f 16 9 22
f 22 23 16
f 24 23 22
f 13 12 1
f 1 12 2
f 14 26 11
f 14 15 20
f 20 26 14
f 11 12 14
f 14 12 13
f 14 3 15
f 14 1 3
