v 0.203176914 0.123463805 0.0614999447
v 0.203176914 0.123463805 0.072749934
v 0.202478825 0.124339278 0.072749934
v 0.202478825 0.124339278 0.0614999447
v 0.201993047 0.125348027 0.072749934
v 0.201993047 0.125348027 0.0614999447
v 0.201743899 0.126439507 0.072749934
v 0.201743899 0.126439507 0.0614999447
v 0.201743899 0.12755924 0.072749934
v 0.201743899 0.12755924 0.0614999447
v 0.201993047 0.12865072 0.072749934
v 0.201993047 0.12865072 0.0614999447
v 0.202478825 0.129659588 0.072749934
v 0.202478825 0.129659588 0.0614999447
v 0.203176914 0.130534942 0.072749934
v 0.203176914 0.130534942 0.0614999447
v 0.20471084 0.132068868 0.072749934
v 0.20471084 0.132068868 0.0614999447
v 0.206425444 0.120087887 0.0614999447
v 0.206425444 0.120087887 0.072749934
f 17 20 18
f 18 20 19
f 3 2 11
f 7 5 11
f 11 20 17
f 11 9 7
f 11 5 3
f 11 2 20
f 17 15 11
f 11 15 13
f 13 15 16
f 14 13 16
f 17 18 16
f 16 15 17
f 8 5 7
f 8 6 5
f 7 9 10
f 10 8 7
f 3 5 4
f 5 6 4
f 1 2 3
f 3 4 1
f 19 20 1
f 20 2 1
f 12 18 19
f 6 8 12
f 14 16 12
f 12 16 18
f 12 4 6
f 12 1 4
f 8 10 12
f 19 1 12
f 12 11 13
f 12 13 14
f 9 11 12
f 12 10 9
