v 0.206425444 0.120087887 0.0839999233
v 0.203176914 0.123463805 0.0839999233
v 0.203176914 0.123463805 0.072749934
v 0.202478825 0.124339278 0.0839999233
v 0.202478825 0.124339278 0.072749934
v 0.201993047 0.125348027 0.0839999233
v 0.201993047 0.125348027 0.072749934
v 0.201743899 0.126439507 0.0839999233
v 0.201743899 0.126439507 0.072749934
v 0.201743899 0.12755924 0.0839999233
v 0.201743899 0.12755924 0.072749934
v 0.201993047 0.12865072 0.0839999233
v 0.201993047 0.12865072 0.072749934
v 0.202478825 0.129659588 0.0839999233
v 0.202478825 0.129659588 0.072749934
v 0.203176914 0.130534942 0.0839999233
v 0.203176914 0.130534942 0.072749934
v 0.20471084 0.132068868 0.0839999233
v 0.20471084 0.132068868 0.072749934
v 0.206425444 0.120087887 0.072749934
f 18 1 19
f 1 20 19
f 12 1 18
f 12 2 1
f 12 10 8
f 18 16 12
f 8 6 12
f 12 16 14
f 4 2 12
f 12 6 4
f 8 10 11
f 11 9 8
f 14 16 17
f 15 14 17
f 18 19 17
f 17 16 18
f 3 20 1
f 1 2 3
f 3 2 4
f 4 5 3
f 7 6 8
f 8 9 7
f 4 6 7
f 7 5 4
f 15 17 13
f 20 3 13
f 13 19 20
f 13 7 9
f 5 7 13
f 9 11 13
f 13 17 19
f 13 3 5
f 13 12 14
f 13 14 15
f 10 12 13
f 13 11 10
