v -0.0197500304 -0.20235001 0.0794998918
v -0.0197500304 -0.20235001 0.0759999071
v -0.0296250448 -0.187200015 0.0692849074
v -0.0197500304 -0.187200015 0.0794998918
v -0.0197500304 -0.187200015 0.0692849074
v -0.0296250448 -0.187200015 0.0794998918
v -0.0296250448 -0.20235001 0.0794998918
v -0.0296250448 -0.20235001 0.0759999071
v -0.0296250448 -0.194400017 0.0692849074
v -0.0197500304 -0.194400017 0.0692849074
f 10 9 5
f 5 9 3
f 4 5 3
f 3 6 4
f 1 4 7
f 7 4 6
f 3 9 7
f 7 6 3
f 9 8 7
f 2 4 1
f 5 4 2
f 10 5 2
f 1 7 2
f 2 7 8
f 2 9 10
f 2 8 9
