v 0.138293085 0.250221308 0.0839999233
v 0.137499385 0.251015008 0.0839999233
v 0.138431095 0.250083298 0.085602671
v 0.131659506 0.244729502 0.094812397
v 0.135731019 0.246020985 0.0900300959
v 0.131659506 0.251015012 0.0839999233
v 0.136322407 0.244729499 0.094812397
v 0.136931601 0.246130469 0.0924024177
v 0.137877663 0.249296208 0.0869566419
v 0.137098669 0.249026426 0.0839999233
f 9 6 4
f 3 1 2
f 4 6 10
f 10 5 4
f 4 5 7
f 7 9 4
f 7 10 1
f 5 10 7
f 3 9 8
f 9 7 8
f 8 1 3
f 8 7 1
f 6 9 2
f 2 9 3
f 6 2 10
f 10 2 1
