v 0.203215538 -0.123030846 0.12899988
v 0.20203167 -0.124914949 0.12899988
v 0.201782523 -0.127126162 0.12899988
v 0.201782523 -0.126006548 0.12899988
v 0.202517448 -0.1239062 0.12899988
v 0.203215538 -0.130101924 0.12899988
v 0.202517448 -0.12922651 0.12899988
v 0.20203167 -0.128217761 0.12899988
v 0.203347705 -0.13023409 0.12899988
v 0.203347704 -0.13023409 0.128976989
v 0.206923475 -0.118961872 0.12899988
v 0.21333078 -0.13023409 0.12899988
v 0.21333078 -0.118961872 0.12899988
v 0.203215538 -0.130101924 0.117749891
v 0.202517448 -0.12922651 0.117749891
v 0.20203167 -0.128217761 0.117749891
v 0.201782523 -0.127126162 0.117749891
v 0.201782523 -0.126006548 0.117749891
v 0.20203167 -0.124914949 0.117749891
v 0.202517448 -0.1239062 0.117749891
v 0.203215538 -0.123030846 0.117749891
v 0.203347704 -0.13023409 0.117749891
v 0.206923475 -0.118961872 0.117749891
f 11 13 23
f 13 12 23
f 23 12 22
f 9 6 10
f 10 12 9
f 22 12 10
f 17 16 8
f 3 17 8
f 7 8 15
f 15 8 16
f 9 12 2
f 2 12 13
f 2 6 9
f 2 13 11
f 2 4 3
f 3 8 2
f 11 1 2
f 2 1 5
f 7 6 2
f 2 8 7
f 3 4 18
f 18 17 3
f 4 2 18
f 18 2 19
f 22 10 14
f 14 10 6
f 14 6 7
f 7 15 14
f 20 2 5
f 19 2 20
f 21 23 22
f 17 18 21
f 21 16 17
f 19 20 21
f 21 15 16
f 21 18 19
f 22 14 21
f 21 14 15
f 5 1 21
f 21 20 5
f 21 1 11
f 11 23 21
