v 0.179347848 -0.203260849 0.0389999662
v 0.179347848 -0.203260849 0.033999971
v 0.171376832 -0.203260849 0.033999971
v 0.171376832 -0.203260849 0.0389999662
v 0.171376832 -0.211231863 0.033999971
v 0.171376832 -0.211231863 0.0389999662
v 0.171941376 -0.211231863 0.0389999662
v 0.179347848 -0.203825392 0.0389999662
v 0.171941376 -0.211231863 0.033999971
v 0.179347848 -0.203825392 0.033999971
f 1 2 4
f 4 2 3
f 3 2 10
f 10 9 5
f 10 5 3
f 10 2 1
f 1 8 10
f 9 10 7
f 7 10 8
f 1 4 6
f 6 8 1
f 6 7 8
f 6 4 3
f 3 5 6
f 5 9 6
f 9 7 6
