v -0.256105663 0.0817499709 0.0389999662
v -0.257803859 0.0817499709 0.0389999662
v -0.259087385 0.0819175792 0.0389999662
v -0.260284843 0.0824089599 0.0389999662
v -0.261316003 0.0831912113 0.0389999662
v -0.256105663 0.0947198224 0.0389999662
v -0.261316003 0.0831912113 0.0502499555
v -0.260284843 0.0824089599 0.0502499555
v -0.259087385 0.0819175792 0.0502499555
v -0.256105663 0.0817499709 0.0502499555
v -0.257803859 0.0817499709 0.0502499555
v -0.264551748 0.0863845162 0.0389999662
v -0.264551748 0.0947198224 0.0389999662
v -0.264551748 0.0863845162 0.0502499555
f 14 13 12
f 14 6 13
f 10 6 14
f 6 10 1
f 12 5 7
f 7 14 12
f 12 13 2
f 2 6 1
f 2 5 12
f 13 6 2
f 4 5 2
f 2 3 4
f 8 5 4
f 8 7 5
f 4 3 9
f 9 8 4
f 10 14 11
f 14 7 11
f 7 8 11
f 8 9 11
f 3 2 11
f 11 9 3
f 1 10 11
f 11 2 1
