v -0.193447532 -0.0275000083 0.145718328
v -0.188357891 -0.0275000083 0.151857785
v -0.189840259 -0.0362500149 0.153789571
v -0.189840259 -0.0275000083 0.153789571
v -0.189357819 -0.0362500149 0.153589777
v -0.189357819 -0.0275000083 0.153589777
v -0.188943686 -0.0362500149 0.153271965
v -0.188943686 -0.0275000083 0.153271965
v -0.188625754 -0.0362500149 0.152857832
v -0.188625754 -0.0275000083 0.152857832
v -0.18842596 -0.0362500149 0.152375392
v -0.18842596 -0.0275000083 0.152375392
v -0.188357891 -0.0362500149 0.151857785
v -0.191978987 -0.0275000083 0.154478839
v -0.191978987 -0.0362500149 0.154478839
v -0.19662212 -0.0362500149 0.154478839
v -0.19662212 -0.0275000083 0.154478839
v -0.188357891 -0.0362500149 0.145718328
v -0.188357891 -0.0275000083 0.145718328
v -0.193447532 -0.0362500149 0.145718328
f 14 17 15
f 15 17 16
f 1 18 20
f 19 18 1
f 1 20 16
f 16 17 1
f 13 18 19
f 19 2 13
f 13 2 12
f 12 11 13
f 14 15 4
f 15 3 4
f 4 3 5
f 5 6 4
f 10 11 12
f 10 9 11
f 7 15 16
f 16 20 7
f 5 3 7
f 18 13 7
f 20 18 7
f 7 3 15
f 7 13 11
f 11 9 7
f 8 17 14
f 8 1 17
f 19 1 8
f 8 2 19
f 12 2 8
f 14 4 8
f 8 4 6
f 8 10 12
f 8 6 5
f 5 7 8
f 9 10 8
f 8 7 9
