v -0.200679504 -0.108106916 0.12899988
v -0.213253711 -0.108106916 0.12899988
v -0.206892378 -0.119376675 0.12899988
v -0.213253711 -0.119376675 0.12899988
v -0.206005277 -0.113564377 0.117749891
v -0.207299413 -0.118393962 0.117749891
v -0.207469763 -0.117099886 0.117749891
v -0.207299413 -0.115805809 0.117749891
v -0.206799926 -0.114599888 0.117749891
v -0.200679504 -0.108106916 0.117749891
v -0.206892378 -0.119376675 0.117749891
f 10 2 1
f 4 11 3
f 7 4 2
f 2 10 5
f 11 4 6
f 4 7 6
f 8 7 2
f 2 5 9
f 1 3 10
f 3 11 10
f 4 3 1
f 1 2 4
f 9 10 11
f 9 5 10
f 11 6 9
f 9 6 7
f 7 8 9
f 9 8 2
