v -0.076749982 -0.219855671 0.106499902
v -0.0817499772 -0.224855666 0.106499902
v -0.0817499772 -0.224855666 0.0952499126
v -0.0815796271 -0.22356159 0.0952499126
v -0.0815796271 -0.22356159 0.106499902
v -0.0810801402 -0.222355669 0.0952499126
v -0.0810801402 -0.222355669 0.106499902
v -0.0802854911 -0.221320157 0.0952499126
v -0.0802854911 -0.221320157 0.106499902
v -0.0792500392 -0.220525508 0.0952499126
v -0.0792500392 -0.220525508 0.106499902
v -0.078044118 -0.220026021 0.0952499126
v -0.078044118 -0.220026021 0.106499902
v -0.076749982 -0.219855671 0.0952499126
v -0.0817499772 -0.225435364 0.106499902
v -0.0817499772 -0.225435364 0.0952499126
v -0.0707499996 -0.219855671 0.106499902
v -0.0707499996 -0.219855671 0.0952499126
f 17 15 18
f 18 15 16
f 3 15 2
f 16 15 3
f 4 3 5
f 5 3 2
f 6 4 5
f 5 7 6
f 14 1 17
f 17 18 14
f 14 13 1
f 12 13 14
f 10 8 9
f 9 11 10
f 6 7 9
f 9 8 6
f 14 18 16
f 14 8 10
f 16 3 14
f 14 4 6
f 14 3 4
f 6 8 14
f 10 12 14
f 9 5 2
f 9 15 17
f 17 1 9
f 2 15 9
f 7 5 9
f 1 13 9
f 9 13 11
f 13 12 10
f 10 11 13
