v -0.20073109 0.107689674 0.12899988
v -0.213302076 0.107689674 0.12899988
v -0.206925444 0.118957117 0.12899988
v -0.213302076 0.118957117 0.12899988
v -0.20604402 0.11313134 0.117749891
v -0.20683855 0.114166911 0.117749891
v -0.207338037 0.115372832 0.117749891
v -0.207508506 0.116666849 0.117749891
v -0.207338037 0.117960985 0.117749891
v -0.20073109 0.107689674 0.117749891
v -0.206925444 0.118957117 0.117749891
f 3 11 4
f 2 10 1
f 10 2 5
f 5 2 6
f 8 2 4
f 6 2 7
f 2 8 7
f 9 4 11
f 9 8 4
f 10 11 3
f 3 1 10
f 2 1 3
f 3 4 2
f 11 10 9
f 10 5 9
f 9 5 6
f 6 7 9
f 9 7 8
