v -0.0817499772 -0.224855666 0.12899988
v -0.0817499772 -0.225435364 0.12800267
v -0.0837198511 -0.224855666 0.12899988
v -0.0837198511 -0.225435364 0.12800267
v -0.0717349366 -0.219855671 0.12899988
v -0.0837198511 -0.212645527 0.12899988
v -0.0717349366 -0.212645527 0.12899988
v -0.0817499772 -0.224855666 0.117749891
v -0.0815796271 -0.22356159 0.117749891
v -0.0810801402 -0.222355669 0.117749891
v -0.0802854911 -0.221320157 0.117749891
v -0.0792500392 -0.220525508 0.117749891
v -0.078044118 -0.220026021 0.117749891
v -0.076749982 -0.219855671 0.117749891
v -0.0817499772 -0.225435364 0.117749891
v -0.0717349366 -0.219855671 0.117749891
f 5 1 2
f 2 4 15
f 6 13 12
f 7 5 16
f 6 10 9
f 14 13 6
f 11 10 6
f 6 12 11
f 6 9 8
f 8 4 6
f 8 15 4
f 3 5 7
f 3 7 6
f 1 5 3
f 6 4 3
f 2 1 3
f 3 4 2
f 16 5 2
f 2 15 16
f 6 7 14
f 7 16 14
f 13 14 8
f 8 14 16
f 8 16 15
f 8 9 10
f 8 12 13
f 10 11 8
f 8 11 12
