v 0.0636829718 -0.200047319 0.106499902
v 0.0625359401 -0.200575178 0.0952499126
v 0.0625359401 -0.200575178 0.106499902
v 0.0615577086 -0.201373582 0.0952499126
v 0.0615577086 -0.201373582 0.106499902
v 0.060810624 -0.202391629 0.0952499126
v 0.060810624 -0.202391629 0.106499902
v 0.0603424891 -0.203564351 0.0952499126
v 0.0603424891 -0.203564351 0.106499902
v 0.0601829871 -0.204817002 0.0952499126
v 0.0601829871 -0.204817002 0.106499902
v 0.0684329852 -0.211693351 0.106499902
v 0.0684329852 -0.211693351 0.0952499126
v 0.0636829718 -0.200047319 0.0952499126
v 0.0666829928 -0.199817007 0.106499902
v 0.0601829871 -0.212606839 0.0952499126
v 0.0601829871 -0.212606839 0.106499902
v 0.0668507978 -0.212606839 0.0952499126
v 0.0668507978 -0.212606839 0.106499902
v 0.0721679016 -0.199817007 0.106499902
v 0.0666829928 -0.199817007 0.0952499126
v 0.0721679016 -0.199817007 0.0952499126
f 20 12 22
f 22 12 13
f 13 12 19
f 19 18 13
f 16 18 19
f 19 17 16
f 11 8 10
f 9 8 11
f 10 16 11
f 16 17 11
f 21 15 20
f 20 22 21
f 1 21 14
f 15 21 1
f 1 14 2
f 2 3 1
f 4 16 10
f 4 22 13
f 2 14 4
f 13 18 4
f 4 21 22
f 4 18 16
f 10 8 4
f 4 8 6
f 14 21 4
f 4 5 3
f 4 3 2
f 7 12 20
f 20 15 7
f 9 11 7
f 17 19 7
f 15 1 7
f 3 5 7
f 7 19 12
f 7 11 17
f 7 1 3
f 6 8 7
f 7 8 9
f 7 4 6
f 5 4 7
