v 0.205499946 0.0274999988 0.171999863
v 0.205499946 0.0274999988 0.167999915
v 0.205499946 0.0412500006 0.168999961
v 0.205499946 0.0412500006 0.171999863
v 0.206239517 0.0412500006 0.168999961
v 0.206239517 0.0274999988 0.171999863
v 0.206239517 0.0412500006 0.171999863
v 0.200739422 0.0316441589 0.163239351
v 0.200739422 0.0274999988 0.163239351
v 0.200739422 0.0394999934 0.163239351
v 0.206239517 0.0394999934 0.163239351
f 2 9 11
f 11 6 2
f 8 4 10
f 3 10 4
f 1 4 9
f 9 4 8
f 1 9 2
f 2 6 1
f 7 4 1
f 1 6 7
f 11 9 10
f 5 7 6
f 5 6 11
f 11 10 3
f 3 5 11
f 4 7 3
f 7 5 3
