v 0.0189999923 -0.226269995 0.0804999385
v 0.0189999923 -0.213339989 0.0804999385
v 0.0197500273 -0.226269995 0.0864998613
v 0.0197500273 -0.213339989 0.0864998613
v 0.0197500273 -0.213339989 0.0824999128
v 0.0197500273 -0.226269995 0.0824999128
v 0.00987501288 -0.226269995 0.0864998613
v 0.00987501288 -0.213339989 0.0864998613
v 0.00987501288 -0.226269995 0.0804999385
v 0.00987501288 -0.213339989 0.0804999385
f 3 4 8
f 8 7 3
f 5 8 4
f 2 10 5
f 5 10 8
f 5 6 1
f 5 1 2
f 5 4 3
f 3 6 5
f 9 6 3
f 3 7 9
f 1 6 9
f 9 10 2
f 2 1 9
f 7 8 9
f 8 10 9
