v 0.243115972 -0.13824726 0.0389999662
v 0.235144956 -0.13824726 0.0389999662
v 0.235144956 -0.147463746 0.0389999662
v 0.23813944 -0.147463746 0.0389999662
v 0.243115972 -0.146402184 0.0389999662
v 0.243115972 -0.147463746 0.033999971
v 0.243115972 -0.147463746 0.0376962231
v 0.235144956 -0.147463746 0.033999971
v 0.243115972 -0.13824726 0.033999971
v 0.235144956 -0.13824726 0.033999971
f 4 7 5
f 6 9 7
f 1 5 7
f 7 9 1
f 1 9 10
f 2 1 10
f 10 3 2
f 10 8 3
f 10 9 6
f 6 8 10
f 2 3 4
f 4 1 2
f 4 5 1
f 6 7 4
f 3 8 4
f 4 8 6
