v 0.119390062 -0.206886833 0.106499902
v 0.123463808 -0.20317692 0.106499902
v 0.123463808 -0.20317692 0.0952499126
v 0.124339162 -0.202478831 0.106499902
v 0.124339162 -0.202478831 0.0952499126
v 0.12534803 -0.201992993 0.106499902
v 0.12534803 -0.201992993 0.0952499126
v 0.12643951 -0.201743846 0.106499902
v 0.12643951 -0.201743846 0.0952499126
v 0.127559243 -0.201743846 0.106499902
v 0.127559243 -0.201743846 0.0952499126
v 0.128650723 -0.201992993 0.106499902
v 0.128650723 -0.201992993 0.0952499126
v 0.129659592 -0.202478831 0.106499902
v 0.129659592 -0.202478831 0.0952499126
v 0.130534945 -0.20317692 0.106499902
v 0.130534945 -0.20317692 0.0952499126
v 0.13065748 -0.203299455 0.106499902
v 0.13065748 -0.203299455 0.0952499126
v 0.119390062 -0.206886833 0.0952499126
f 18 1 20
f 20 19 18
f 14 15 13
f 13 12 14
f 8 10 11
f 11 9 8
f 2 20 1
f 2 3 20
f 5 3 2
f 2 4 5
f 18 19 16
f 19 17 16
f 16 17 15
f 15 14 16
f 19 20 11
f 11 17 19
f 13 15 11
f 5 7 11
f 11 3 5
f 11 7 9
f 20 3 11
f 15 17 11
f 11 10 12
f 11 12 13
f 6 7 5
f 5 4 6
f 16 10 8
f 16 1 18
f 12 10 16
f 16 6 4
f 16 2 1
f 16 14 12
f 4 2 16
f 8 6 16
f 9 7 6
f 8 9 6
