v -0.0666829959 0.199816997 0.0789999281
v -0.0615577117 0.201373632 0.0789999281
v -0.0625359431 0.200575168 0.0789999281
v -0.0636829749 0.200047309 0.0789999281
v -0.0601829902 0.204816992 0.0789999281
v -0.0603424922 0.203564341 0.0789999281
v -0.0608106271 0.202391679 0.0789999281
v -0.0636829749 0.200047309 0.0839999233
v -0.0625359431 0.200575168 0.0839999233
v -0.0615577117 0.201373632 0.0839999233
v -0.0608106271 0.202391679 0.0839999233
v -0.0603424922 0.203564341 0.0839999233
v -0.0601829902 0.204816992 0.0839999233
v -0.0721639708 0.199816997 0.0789999281
v -0.0666829959 0.199816997 0.0839999233
v -0.0721639708 0.199816997 0.0839999233
v -0.0601829902 0.209192003 0.0789999281
v -0.0601829902 0.209192003 0.0839999233
v -0.0684329883 0.209192003 0.0839999233
v -0.0721639708 0.209192003 0.0789999281
f 16 20 14
f 19 20 16
f 15 1 4
f 15 4 8
f 14 1 15
f 15 16 14
f 17 20 18
f 18 20 19
f 5 17 18
f 18 13 5
f 5 13 6
f 13 12 6
f 6 12 11
f 11 7 6
f 10 15 8
f 11 12 10
f 19 16 10
f 10 18 19
f 16 15 10
f 13 18 10
f 10 12 13
f 8 9 10
f 8 4 3
f 3 9 8
f 2 17 5
f 2 1 14
f 2 20 17
f 14 20 2
f 4 1 2
f 5 6 2
f 2 6 7
f 2 3 4
f 2 7 11
f 11 10 2
f 2 10 9
f 9 3 2
