v 0.027500002 0.191978981 0.154478839
v 0.027500002 0.188357885 0.145718328
v 0.0362500086 0.188357885 0.151857785
v 0.027500002 0.188357885 0.151857785
v 0.027500002 0.189840252 0.153789571
v 0.0362500086 0.189840252 0.153789571
v 0.027500002 0.189357812 0.153589777
v 0.0362500086 0.189357812 0.153589777
v 0.027500002 0.188943679 0.153271965
v 0.0362500086 0.188943679 0.153271965
v 0.027500002 0.188625867 0.152857832
v 0.0362500086 0.188625867 0.152857832
v 0.027500002 0.188425953 0.152375392
v 0.0362500086 0.188425953 0.152375392
v 0.0362500086 0.191978981 0.154478839
v 0.027500002 0.196622114 0.154478839
v 0.0362500086 0.196622114 0.154478839
v 0.0362500086 0.188357885 0.145718328
v 0.0362500086 0.193447526 0.145718328
v 0.027500002 0.193447526 0.145718328
f 16 1 17
f 17 1 15
f 20 17 19
f 16 17 20
f 2 18 3
f 3 4 2
f 19 18 2
f 2 20 19
f 14 4 3
f 13 4 14
f 11 14 12
f 13 14 11
f 12 10 11
f 11 10 9
f 5 1 16
f 16 20 5
f 5 4 13
f 5 2 4
f 13 11 5
f 20 2 5
f 5 9 7
f 5 11 9
f 15 1 5
f 5 6 15
f 8 6 5
f 5 7 8
f 3 18 10
f 19 17 10
f 10 18 19
f 10 17 15
f 10 14 3
f 15 6 10
f 12 14 10
f 10 6 8
f 7 9 10
f 8 7 10
