v 0.0608529433 -0.21731699 0.12899988
v 0.0616474732 -0.218352501 0.12899988
v 0.0626830443 -0.219147091 0.12899988
v 0.0601829871 -0.214816992 0.12899988
v 0.0603533372 -0.216111069 0.12899988
v 0.0638889655 -0.219646637 0.12899988
v 0.0651829823 -0.219816987 0.12899988
v 0.0601829871 -0.212606839 0.12899988
v 0.0721679016 -0.219816987 0.12899988
v 0.0721679016 -0.212606839 0.12899988
v 0.0651829823 -0.219816987 0.117749891
v 0.0601829871 -0.214816992 0.117749891
v 0.0603533372 -0.216111069 0.117749891
v 0.0608529433 -0.21731699 0.117749891
v 0.0616474732 -0.218352501 0.117749891
v 0.0626830443 -0.219147091 0.117749891
v 0.0638889655 -0.219646637 0.117749891
v 0.0601829871 -0.212606839 0.117749891
v 0.0668507978 -0.212606839 0.117749891
v 0.0721679016 -0.219816987 0.117749891
f 20 10 9
f 10 20 19
f 9 7 11
f 11 20 9
f 6 11 7
f 17 11 6
f 19 8 10
f 18 8 19
f 2 1 14
f 15 2 14
f 14 1 5
f 5 13 14
f 20 11 12
f 12 19 20
f 12 16 15
f 12 11 17
f 18 19 12
f 15 14 12
f 17 16 12
f 12 14 13
f 4 8 12
f 12 8 18
f 12 5 4
f 12 13 5
f 3 7 9
f 3 6 7
f 9 10 3
f 4 5 3
f 3 8 4
f 3 1 2
f 10 8 3
f 5 1 3
f 15 16 3
f 3 2 15
f 17 6 3
f 3 16 17
