v 0.219147144 0.0626830411 0.0839999233
v 0.219147144 0.0626830411 0.0789999281
v 0.219646631 0.0638889027 0.0789999281
v 0.219646631 0.0638889027 0.0839999233
v 0.219816981 0.0651830387 0.0789999281
v 0.219799946 0.0650536251 0.0839999233
v 0.219816981 0.0651830387 0.0839999233
v 0.218566982 0.0619269857 0.0789999281
v 0.218566982 0.0619269857 0.0839999233
v 0.219816981 0.0730359654 0.0839999233
v 0.219816981 0.0730359654 0.0789999281
v 0.218566982 0.0730359654 0.0789999281
f 10 11 12
f 12 9 10
f 6 3 5
f 5 7 6
f 3 6 4
f 5 11 7
f 7 11 10
f 5 3 12
f 12 2 8
f 12 11 5
f 3 2 12
f 8 9 12
f 8 2 1
f 1 9 8
f 1 7 10
f 10 9 1
f 1 6 7
f 1 4 6
f 1 2 3
f 3 4 1
