v 0.13065748 -0.203299455 0.0839999233
v 0.130534945 -0.20317692 0.0839999233
v 0.123463808 -0.20317692 0.0952499126
v 0.123463808 -0.20317692 0.0839999233
v 0.124339162 -0.202478831 0.0952499126
v 0.124339162 -0.202478831 0.0839999233
v 0.12534803 -0.201992993 0.0952499126
v 0.12534803 -0.201992993 0.0839999233
v 0.12643951 -0.201743846 0.0952499126
v 0.12643951 -0.201743846 0.0839999233
v 0.127559243 -0.201743846 0.0952499126
v 0.127559243 -0.201743846 0.0839999233
v 0.128650723 -0.201992993 0.0839999233
v 0.128650723 -0.201992993 0.0952499126
v 0.129659592 -0.202478831 0.0952499126
v 0.129659592 -0.202478831 0.0839999233
v 0.130534945 -0.20317692 0.0952499126
v 0.13065748 -0.203299455 0.0952499126
v 0.119390062 -0.206886833 0.0839999233
v 0.119390062 -0.206886833 0.0952499126
f 19 1 20
f 1 18 20
f 15 16 13
f 13 14 15
f 3 4 19
f 19 20 3
f 6 3 5
f 4 3 6
f 7 6 5
f 8 6 7
f 17 18 1
f 1 2 17
f 17 2 16
f 16 15 17
f 11 12 10
f 11 10 9
f 7 10 8
f 9 10 7
f 11 20 18
f 18 17 11
f 11 3 20
f 11 15 14
f 5 3 11
f 11 7 5
f 11 17 15
f 9 7 11
f 6 1 19
f 19 4 6
f 8 10 6
f 6 2 1
f 13 16 6
f 10 12 6
f 16 2 6
f 6 12 13
f 11 14 13
f 13 12 11
