v 0.0859333968 0.264094651 0.0614999447
v 0.0947198256 0.268352534 0.0541754195
v 0.0898959907 0.26409472 0.0614999447
v 0.0947198256 0.264434022 0.060916281
v 0.0939074024 0.264094727 0.0614999447
v 0.0947198256 0.264094708 0.0614999447
v 0.0947198256 0.26547591 0.0591240129
v 0.091952028 0.264094733 0.0614999447
v 0.0831912144 0.261315997 0.0502499555
v 0.0831912144 0.261315997 0.0614999447
v 0.0824089631 0.260284836 0.0502499555
v 0.0824089631 0.260284836 0.0614999447
v 0.0819175824 0.259087379 0.0502499555
v 0.0819175824 0.259087379 0.0614999447
v 0.0817499741 0.257803853 0.0502499555
v 0.0817499741 0.257803853 0.0614999447
v 0.0817499741 0.256105657 0.0502499555
v 0.0817499741 0.256105657 0.0614999447
v 0.0923874402 0.270634536 0.0502499555
v 0.0947198256 0.270634517 0.0502499555
f 20 2 17
f 17 2 6
f 6 18 17
f 19 1 3
f 3 8 19
f 7 20 19
f 19 8 7
f 4 5 6
f 19 20 13
f 13 17 15
f 13 9 19
f 20 17 13
f 13 11 9
f 19 9 10
f 10 1 19
f 9 11 10
f 11 12 10
f 11 13 14
f 14 12 11
f 6 2 4
f 4 2 20
f 20 7 4
f 8 5 4
f 4 7 8
f 16 18 6
f 6 5 16
f 16 3 1
f 8 3 16
f 16 5 8
f 1 10 16
f 16 10 12
f 12 14 16
f 15 17 16
f 16 17 18
f 16 13 15
f 16 14 13
