v -0.0395000592 -0.187200015 0.0794998918
v -0.0395000592 -0.20235001 0.0794998918
v -0.0395000592 -0.20235001 0.0734999691
v -0.0301000491 -0.20235001 0.0734999691
v -0.0395000592 -0.194400017 0.0692849074
v -0.0395000592 -0.187200015 0.0692849074
v -0.0296250448 -0.187200015 0.0794998918
v -0.0296250448 -0.20235001 0.0794998918
v -0.0296250448 -0.20235001 0.0759999071
v -0.0296250448 -0.187200015 0.0692849074
v -0.0296250448 -0.194400017 0.0692849074
f 9 4 11
f 1 7 6
f 6 7 10
f 10 11 6
f 6 11 5
f 1 2 8
f 8 7 1
f 1 6 3
f 3 2 1
f 3 6 5
f 5 11 4
f 4 3 5
f 7 8 9
f 10 7 9
f 9 11 10
f 9 8 2
f 3 4 9
f 2 3 9
