v -0.24040488 0.131659503 0.102251768
v -0.24325123 0.119674588 0.0973552772
v -0.238652317 0.131659503 0.105266447
v -0.244582945 0.119674588 0.0950645215
v -0.238444073 0.127676964 0.105624773
v -0.241817346 0.119674588 0.0998219643
v -0.238444018 0.131659503 0.105624773
v -0.238444004 0.122876162 0.105624773
v -0.239951121 0.119674588 0.103032193
v -0.238444004 0.119674588 0.105624773
v -0.241108211 0.131659503 0.101041725
v -0.24472947 0.120834208 0.0948123483
v -0.244729519 0.119674588 0.0948123483
v -0.244729541 0.123849906 0.0948123483
v -0.244729537 0.131659503 0.0948123483
f 12 15 11
f 1 15 14
f 1 6 5
f 5 7 1
f 8 11 3
f 3 7 8
f 5 6 10
f 10 11 8
f 10 12 11
f 10 9 12
f 4 1 14
f 6 1 4
f 13 4 14
f 12 9 2
f 11 15 3
f 3 1 7
f 15 1 3
f 10 7 5
f 8 7 10
f 9 10 2
f 2 10 6
f 6 4 2
f 4 13 2
f 15 12 13
f 14 15 13
f 2 13 12
