v 0.143644421 0.232871817 0.115210223
v 0.131659506 0.232158533 0.116437348
v 0.131659506 0.237699525 0.10690547
v 0.131659506 0.234309389 0.112737378
v 0.137284243 0.238444032 0.105624873
v 0.143644421 0.232158507 0.116437348
v 0.142588069 0.232158531 0.116437348
v 0.143644421 0.236226809 0.109439015
v 0.136228592 0.232158533 0.116437348
v 0.143644421 0.237099033 0.1079384
v 0.143644421 0.234053398 0.113177617
v 0.132202498 0.238443951 0.105624873
v 0.131659506 0.236765291 0.108512655
v 0.139624015 0.238443932 0.105624873
v 0.142607935 0.238443971 0.105624873
v 0.143644421 0.237407485 0.107407814
v 0.143644421 0.237407485 0.107407933
v 0.131659506 0.238443953 0.105624873
v 0.142607914 0.238443992 0.105624873
f 3 1 2
f 3 18 1
f 5 18 13
f 2 1 6
f 8 5 2
f 7 6 8
f 2 5 4
f 5 13 4
f 9 8 2
f 7 8 9
f 12 14 10
f 10 11 12
f 12 11 1
f 1 18 12
f 18 3 4
f 4 3 2
f 4 13 18
f 9 6 7
f 2 6 9
f 5 19 12
f 12 18 5
f 15 14 12
f 12 19 15
f 17 19 5
f 5 8 17
f 16 11 10
f 1 11 16
f 16 6 1
f 16 8 6
f 16 17 8
f 19 17 16
f 15 19 16
f 16 14 15
f 10 14 16
