v 0.188630639 -0.0231952119 0.151857785
v 0.188696919 -0.0232110071 0.152375392
v 0.189840256 -0.0255147266 0.153789571
v 0.189357816 -0.0255147266 0.153589777
v 0.189419447 -0.0244637179 0.153589777
v 0.189008056 -0.0244153785 0.153271965
v 0.188943683 -0.0255147266 0.153271965
v 0.188625871 -0.0255147266 0.152857832
v 0.188692389 -0.0243782448 0.152857832
v 0.188425957 -0.0255147266 0.152375392
v 0.188493906 -0.0243549394 0.152375392
v 0.188357888 -0.0255147266 0.151857785
v 0.188426314 -0.0243469524 0.151857785
v 0.189840256 -0.0275000083 0.153789571
v 0.189357816 -0.0275000083 0.153589777
v 0.188943683 -0.0275000083 0.153271965
v 0.188625871 -0.0275000083 0.152857832
v 0.188425957 -0.0275000083 0.152375392
v 0.188357888 -0.0275000083 0.151857785
v 0.191978984 -0.0275000083 0.154478839
v 0.190405185 -0.0137500065 0.152147017
v 0.190431374 -0.0137500065 0.152450837
v 0.190435413 -0.0137500065 0.15249072
v 0.190513995 -0.0137500065 0.152790914
v 0.190523977 -0.0137500065 0.152822812
v 0.190654224 -0.0137500065 0.153110845
v 0.190666623 -0.0137500065 0.153133289
v 0.190846718 -0.0137500065 0.153400663
v 0.190857769 -0.0137500065 0.15341365
v 0.191084388 -0.0137500065 0.15365203
v 0.191978984 -0.0137500065 0.154478839
v 0.196622117 -0.0137500065 0.154478839
v 0.196622117 -0.0275000083 0.154478839
v 0.188630639 -0.0231952119 0.145718328
v 0.188357888 -0.0255147266 0.145718328
v 0.188426314 -0.0243469524 0.145718328
v 0.188357888 -0.0275000083 0.145718328
v 0.190388905 -0.0137500065 0.145718328
v 0.193447529 -0.0275000083 0.145718328
v 0.193447529 -0.0137500065 0.145718328
f 38 1 21
f 1 38 34
f 30 6 31
f 21 1 22
f 1 23 22
f 28 6 29
f 6 30 29
f 31 4 3
f 31 6 5
f 5 4 31
f 6 4 5
f 12 11 13
f 13 11 1
f 2 23 1
f 1 11 2
f 2 24 23
f 25 24 2
f 2 11 25
f 28 27 9
f 9 6 28
f 25 11 9
f 10 11 12
f 10 9 11
f 6 9 7
f 7 4 6
f 25 9 26
f 26 9 27
f 9 10 8
f 8 7 9
f 40 33 39
f 32 33 40
f 32 31 20
f 20 33 32
f 39 37 35
f 38 40 35
f 35 34 38
f 35 40 39
f 36 34 35
f 19 35 37
f 12 35 19
f 14 20 3
f 3 20 31
f 14 3 15
f 15 3 4
f 36 35 13
f 13 35 12
f 13 34 36
f 1 34 13
f 7 15 4
f 7 16 15
f 26 38 21
f 26 31 32
f 32 40 26
f 26 40 38
f 26 30 31
f 26 24 25
f 28 29 26
f 21 22 26
f 26 22 23
f 26 29 30
f 23 24 26
f 26 27 28
f 18 37 39
f 39 33 18
f 33 20 18
f 18 20 14
f 18 19 37
f 14 15 18
f 15 16 18
f 18 16 17
f 12 19 18
f 18 10 12
f 8 18 17
f 10 18 8
f 17 16 8
f 16 7 8
