v 0.12010756 -0.206410386 0.0614999447
v 0.113564311 -0.20600534 0.0614999447
v 0.113564311 -0.20600534 0.0502499555
v 0.119599877 -0.206799929 0.0502499555
v 0.119599877 -0.206799929 0.0614999447
v 0.118393956 -0.207299416 0.0502499555
v 0.118393956 -0.207299416 0.0614999447
v 0.117099939 -0.207469766 0.0502499555
v 0.117099939 -0.207469766 0.0614999447
v 0.115805803 -0.207299416 0.0502499555
v 0.115805803 -0.207299416 0.0614999447
v 0.114599882 -0.206799929 0.0502499555
v 0.114599882 -0.206799929 0.0614999447
v 0.108122645 -0.200692312 0.0502499555
v 0.108122645 -0.200692312 0.0614999447
v 0.12010756 -0.206410386 0.0502499555
f 1 16 14
f 14 15 1
f 8 6 7
f 7 9 8
f 14 16 3
f 16 4 3
f 3 6 8
f 8 10 3
f 3 10 12
f 3 4 6
f 3 15 14
f 3 2 15
f 13 2 3
f 3 12 13
f 12 10 11
f 13 12 11
f 11 10 8
f 8 9 11
f 16 1 5
f 5 4 16
f 5 1 15
f 13 11 5
f 5 2 13
f 15 2 5
f 9 7 5
f 5 11 9
f 6 4 5
f 5 7 6
