v -0.206892378 -0.119376675 0.106499902
v -0.203176917 -0.123463874 0.106499902
v -0.203176917 -0.123463874 0.0952499126
v -0.202382268 -0.124499385 0.106499902
v -0.202382268 -0.124499385 0.0952499126
v -0.201882781 -0.125705307 0.106499902
v -0.201882781 -0.125705307 0.0952499126
v -0.201712431 -0.126999383 0.106499902
v -0.201712431 -0.126999383 0.0952499126
v -0.201882781 -0.128293459 0.106499902
v -0.201882781 -0.128293459 0.0952499126
v -0.202382268 -0.129499381 0.106499902
v -0.202382268 -0.129499381 0.0952499126
v -0.203176917 -0.130534892 0.106499902
v -0.203176917 -0.130534892 0.0952499126
v -0.203288459 -0.130646435 0.106499902
v -0.203288459 -0.130646435 0.0952499126
v -0.206892378 -0.119376675 0.0952499126
f 16 1 18
f 18 17 16
f 14 1 16
f 4 2 14
f 14 10 8
f 12 10 14
f 2 1 14
f 8 6 14
f 14 6 4
f 17 15 14
f 16 17 14
f 3 1 2
f 3 18 1
f 4 6 5
f 5 6 7
f 11 10 12
f 11 12 13
f 14 15 13
f 13 12 14
f 3 2 4
f 4 5 3
f 9 6 8
f 7 6 9
f 18 3 9
f 9 11 13
f 17 18 9
f 9 15 17
f 9 3 5
f 9 5 7
f 13 15 9
f 8 10 9
f 10 11 9
