v -0.206425426 -0.120087897 0.0614999447
v -0.203176917 -0.123463874 0.0614999447
v -0.203176917 -0.123463874 0.0502499555
v -0.202382268 -0.124499385 0.0614999447
v -0.202382268 -0.124499385 0.0502499555
v -0.202257396 -0.124800866 0.0614999447
v -0.202257396 -0.124800866 0.0502499555
v -0.201882781 -0.125705307 0.0614999447
v -0.201882781 -0.125705307 0.0502499555
v -0.201712431 -0.126999383 0.0614999447
v -0.201712431 -0.126999383 0.0502499555
v -0.201882781 -0.128293459 0.0614999447
v -0.201882781 -0.128293459 0.0502499555
v -0.202382268 -0.129499381 0.0614999447
v -0.202382268 -0.129499381 0.0502499555
v -0.203176917 -0.130534892 0.0614999447
v -0.203176917 -0.130534892 0.0502499555
v -0.204710899 -0.132068877 0.0614999447
v -0.204710899 -0.132068877 0.0502499555
v -0.206425426 -0.120087897 0.0502499555
f 18 1 20
f 20 19 18
f 18 19 16
f 19 17 16
f 16 17 15
f 15 14 16
f 6 2 1
f 6 1 18
f 14 12 6
f 4 2 6
f 18 16 6
f 10 8 6
f 6 16 14
f 6 12 10
f 13 12 14
f 13 14 15
f 3 20 1
f 1 2 3
f 3 2 4
f 4 5 3
f 4 6 7
f 7 5 4
f 7 8 9
f 7 6 8
f 11 8 10
f 9 8 11
f 7 3 5
f 15 17 7
f 19 20 7
f 7 17 19
f 7 13 15
f 20 3 7
f 9 11 7
f 7 11 13
f 10 12 11
f 12 13 11
