v 0.0603424891 -0.203564351 0.12899988
v 0.0601829871 -0.204817002 0.12899988
v 0.0625359401 -0.200575178 0.12899988
v 0.0615577086 -0.201373582 0.12899988
v 0.060810624 -0.202391629 0.12899988
v 0.0601829871 -0.212606839 0.12899988
v 0.0721679016 -0.199817007 0.12899988
v 0.0666829928 -0.199817007 0.12899988
v 0.0721679016 -0.212606839 0.12899988
v 0.0601829871 -0.204817002 0.117749891
v 0.0636829718 -0.200047319 0.12899988
v 0.0636829718 -0.200047319 0.117749891
v 0.0625359401 -0.200575178 0.117749891
v 0.0615577086 -0.201373582 0.117749891
v 0.060810624 -0.202391629 0.117749891
v 0.0603424891 -0.203564351 0.117749891
v 0.0684329852 -0.211693351 0.117749891
v 0.0666829928 -0.199817007 0.117749891
v 0.0601829871 -0.212606839 0.117749891
v 0.0668507978 -0.212606839 0.117749891
v 0.0721679016 -0.199817007 0.117749891
f 7 9 21
f 17 9 20
f 17 21 9
f 19 9 6
f 20 9 19
f 8 21 18
f 7 21 8
f 8 18 12
f 12 11 8
f 10 6 2
f 10 19 6
f 1 10 2
f 16 10 1
f 15 16 1
f 1 5 15
f 3 11 12
f 12 13 3
f 19 10 14
f 12 18 14
f 14 10 16
f 20 19 14
f 14 13 12
f 14 16 15
f 18 21 14
f 14 17 20
f 21 17 14
f 4 9 7
f 2 6 4
f 6 9 4
f 7 8 4
f 4 1 2
f 4 8 11
f 5 1 4
f 11 3 4
f 15 5 4
f 4 14 15
f 4 3 13
f 13 14 4
