v 0.0670987292 -0.0609227242 0.0248290551
v 0.0660272761 -0.0633013072 0.0381547463
v 0.0734598561 -0.0612128201 0.0323560489
v 0.0664619132 -0.0631791773 0.0248290551
v 0.0735769196 -0.0591023984 0.0349073661
v 0.0734598561 -0.0612128201 0.035302068
v 0.0735769196 -0.0591023984 0.0327507508
v 0.0751134082 -0.058670682 0.0381547463
v 0.0743658467 -0.0588807287 0.0368099463
v 0.0743087455 -0.0609742823 0.0363332284
v 0.0654861852 -0.0613758388 0.0381547463
v 0.0756974741 -0.0585065805 0.0377945196
v 0.0756974741 -0.0585065984 0.0248290551
v 0.0756974741 -0.0585065851 0.029596207
v 0.0756974741 -0.0605840555 0.0359674678
v 0.0756974741 -0.0605840568 0.0355216337
v 0.0756974741 -0.0605840568 0.029913006
v 0.0756974741 -0.0605840483 0.0248290551
v 0.0673074392 -0.0608640758 0.0388290537
v 0.0655716899 -0.0613518229 0.0388290537
v 0.0659208222 -0.0612537088 0.0388290537
v 0.0699009674 -0.0622128085 0.0388290537
v 0.069827458 -0.0622334651 0.0388290537
v 0.0676398202 -0.0628481927 0.0388290537
v 0.0664619132 -0.0631791773 0.0388290537
v 0.0751988094 -0.0586467179 0.0388290537
v 0.0661126773 -0.0632772913 0.0388290537
v 0.0756974741 -0.0585066012 0.0388290537
v 0.0756974741 -0.0605840465 0.0384945954
v 0.0756974741 -0.0604212215 0.0388290537
v 0.0649723633 -0.0615202176 0.0248290551
v 0.0649723633 -0.0615202176 0.0281630191
v 0.0649723633 -0.0615202357 0.0369201598
v 0.0649723633 -0.0615202594 0.0371262138
v 0.0649723633 -0.0615202228 0.035642649
v 0.0649723633 -0.0635977279 0.0279328326
v 0.0649723633 -0.0635977161 0.0365650085
v 0.0649723633 -0.063597727 0.035642649
v 0.0649723633 -0.0635977279 0.0248290551
f 8 9 19
f 31 19 7
f 9 8 7
f 32 19 31
f 26 8 19
f 26 28 8
f 8 28 12
f 20 33 34
f 27 20 37
f 37 20 34
f 31 7 1
f 1 7 13
f 13 7 14
f 14 7 8
f 8 12 14
f 19 9 5
f 5 7 19
f 9 7 5
f 4 3 39
f 18 3 4
f 17 3 18
f 22 29 30
f 35 33 11
f 33 20 11
f 11 32 35
f 19 32 11
f 24 25 29
f 2 25 27
f 27 37 2
f 6 25 2
f 36 39 2
f 2 3 6
f 39 3 2
f 19 11 21
f 21 11 20
f 10 25 6
f 29 25 10
f 23 29 22
f 23 24 29
f 36 2 38
f 38 2 37
f 29 10 15
f 4 39 31
f 31 1 4
f 4 13 18
f 4 1 13
f 6 3 16
f 3 17 16
f 19 21 23
f 23 26 19
f 22 30 23
f 28 26 23
f 23 20 27
f 23 30 28
f 27 25 23
f 25 24 23
f 23 21 20
f 38 37 34
f 31 39 38
f 38 39 36
f 38 32 31
f 34 33 38
f 35 32 38
f 38 33 35
f 18 13 15
f 13 14 15
f 15 12 28
f 15 17 18
f 15 14 12
f 28 30 15
f 15 30 29
f 15 16 17
f 6 16 15
f 15 10 6
