v 0.067886345 0.0627831993 0.0483559621
v 0.0664619132 0.0631834445 0.0528290523
v 0.0684592648 0.0605446873 0.051149751
v 0.0680388137 0.0606628237 0.0455032838
v 0.0654861852 0.061380106 0.0397076858
v 0.0670987292 0.0609269915 0.0528290523
v 0.067886345 0.0627831993 0.0513021005
v 0.0660272761 0.0633055744 0.0397076858
v 0.0756974741 0.0605883181 0.0451076444
v 0.0756974741 0.0605883181 0.0468974827
v 0.0756974741 0.0605883181 0.0472944785
v 0.0756974741 0.0605883155 0.0528290523
v 0.0756974741 0.0585108074 0.0476107684
v 0.0756974741 0.0585108074 0.0451153375
v 0.0756974741 0.0585108075 0.0449684615
v 0.0756974741 0.0585108126 0.0528290523
v 0.0756974741 0.0605883137 0.0393678888
v 0.0676398202 0.0628524599 0.0388290537
v 0.0699009674 0.0622170757 0.0388290537
v 0.0664619132 0.0631834445 0.0388290537
v 0.0680388137 0.0606628237 0.0439503444
v 0.0670987292 0.0609269915 0.0388290537
v 0.0659208222 0.0612579761 0.0388290537
v 0.0660414484 0.0630280908 0.0388290537
v 0.0655716899 0.0613560901 0.0388290537
v 0.0661126773 0.0632815586 0.0388290537
v 0.0756974741 0.0585108204 0.0388290537
v 0.0752887594 0.0586256551 0.0388290537
v 0.0756974741 0.0604254507 0.0388290537
v 0.0649723633 0.0636020031 0.0437972078
v 0.0649723633 0.0636020037 0.0453407
v 0.0649723633 0.0636020037 0.0460762149
v 0.0649723633 0.0636019951 0.0528290523
v 0.0649723633 0.0615244848 0.0528290523
v 0.0649723633 0.0615244846 0.0476018399
v 0.0649723633 0.061524489 0.0416995904
f 19 17 29
f 18 20 17
f 17 19 18
f 13 16 4
f 16 3 4
f 4 3 34
f 34 3 6
f 6 3 16
f 32 33 7
f 7 12 11
f 2 7 33
f 12 7 2
f 10 7 11
f 17 20 1
f 20 30 1
f 1 9 17
f 25 30 24
f 30 26 24
f 20 26 8
f 8 30 20
f 8 26 30
f 27 15 28
f 31 1 30
f 35 4 34
f 22 28 21
f 21 23 22
f 21 28 15
f 4 35 21
f 15 14 21
f 5 36 25
f 25 23 5
f 5 35 36
f 23 21 5
f 5 21 35
f 2 33 34
f 16 12 2
f 34 6 2
f 2 6 16
f 1 10 9
f 7 10 1
f 36 30 25
f 11 12 14
f 14 12 16
f 29 17 14
f 14 16 13
f 14 27 29
f 17 9 14
f 14 10 11
f 14 15 27
f 9 10 14
f 7 1 31
f 32 7 31
f 29 27 23
f 23 18 19
f 27 28 23
f 23 19 29
f 20 18 23
f 23 26 20
f 25 24 23
f 23 24 26
f 23 28 22
f 34 33 35
f 35 33 32
f 30 36 35
f 32 31 35
f 35 31 30
f 21 14 13
f 13 4 21
