v 0.0543456002 -0.0645062747 0.0270525468
v 0.0542472525 -0.0645339313 0.0278290761
v 0.0556913539 -0.0641281428 0.0252309096
v 0.0550931617 -0.0642962279 0.0257077468
v 0.0546342059 -0.0644252124 0.0263290656
v 0.0601952 -0.0628625574 0.0374312652
v 0.0563878938 -0.0639324012 0.0249312175
v 0.0569288655 -0.0658578696 0.0249312175
v 0.0547882243 -0.0664593401 0.0278290761
v 0.0548866912 -0.0664316835 0.0270525468
v 0.0551751777 -0.0663506212 0.0263290656
v 0.0556341334 -0.0662216368 0.0257077468
v 0.0568213387 -0.0658880892 0.0285665048
v 0.0562323256 -0.0660535517 0.0252309096
v 0.057135336 -0.0637223544 0.0248290551
v 0.0567534578 -0.0638297025 0.0388290537
v 0.0542472525 -0.0645339313 0.0388290537
v 0.0602738636 -0.0649179653 0.0388290537
v 0.0568213387 -0.0658880892 0.0388290537
v 0.0547882243 -0.0664593401 0.0388290537
v 0.0602109086 -0.0646939405 0.0388290537
v 0.0597327726 -0.0629925495 0.0388290537
v 0.0649723633 -0.0615202176 0.0248290551
v 0.0649723633 -0.0615202357 0.0369201598
v 0.0649723633 -0.0615202228 0.035642649
v 0.0649723633 -0.0615202176 0.0281630191
v 0.057676427 -0.0656478229 0.0248290551
v 0.0649723633 -0.0635977279 0.0279328326
v 0.0649723633 -0.0635977161 0.0365650085
v 0.0649723633 -0.063597727 0.035642649
v 0.0649723633 -0.0635977279 0.0248290551
v 0.0649723633 -0.0615202594 0.0371262138
f 16 6 17
f 1 9 2
f 2 17 1
f 11 12 8
f 8 12 14
f 8 7 15
f 15 6 23
f 15 17 6
f 15 1 17
f 22 6 16
f 8 15 27
f 4 15 7
f 1 15 4
f 6 22 24
f 24 22 32
f 24 25 6
f 29 32 18
f 23 6 26
f 6 25 26
f 10 11 8
f 8 27 10
f 10 20 9
f 9 1 10
f 1 11 10
f 3 4 7
f 3 7 8
f 8 14 3
f 5 11 1
f 1 4 5
f 32 22 21
f 21 18 32
f 20 10 19
f 27 18 19
f 29 18 30
f 13 10 27
f 28 30 18
f 28 27 31
f 28 18 27
f 9 20 17
f 2 9 17
f 23 31 27
f 27 15 23
f 12 4 3
f 3 14 12
f 5 4 12
f 12 11 5
f 19 17 20
f 16 17 19
f 19 22 16
f 19 21 22
f 18 21 19
f 13 19 10
f 27 19 13
f 23 26 28
f 28 31 23
f 28 32 29
f 28 24 32
f 25 24 28
f 28 26 25
f 29 30 28
