v 0.0971476956 0.0545609174 0.0498290313
v 0.0942596122 0.0553724942 0.0528290523
v 0.0950070544 0.0551624475 0.0527267707
v 0.0957037135 0.0549667058 0.0524270785
v 0.0963017865 0.0547986207 0.0519503606
v 0.0967608615 0.0546696959 0.0513290418
v 0.097049348 0.0545885739 0.0506054414
v 0.0957608147 0.0528732119 0.0519503606
v 0.0962197705 0.0527442274 0.0513290418
v 0.0951626225 0.053041297 0.0524270785
v 0.0944660827 0.0532370386 0.0527267707
v 0.096508257 0.0526631651 0.0506054414
v 0.0966067239 0.0526355085 0.0498290313
v 0.0931168719 0.0536161242 0.0528290523
v 0.0877135917 0.0551343737 0.0485083116
v 0.0911242886 0.0541759906 0.0518020642
v 0.0937185212 0.0534470854 0.0528290523
v 0.0905772372 0.0564072309 0.0403290046
v 0.0933167859 0.0556374369 0.039566542
v 0.0911242886 0.0541759906 0.0388559354
v 0.0877135917 0.0551343737 0.051149751
v 0.0934312113 0.0556052722 0.0388290537
v 0.0971476956 0.0545609174 0.0388290537
v 0.0911072445 0.0541807813 0.0388290537
v 0.0966067239 0.0526355085 0.0388290537
v 0.0864225849 0.0575746487 0.0528290523
v 0.0864225849 0.0554971506 0.0483136424
v 0.0864225849 0.0554971506 0.0513396208
v 0.0864225849 0.0554971628 0.0528290523
v 0.0864225849 0.0575746487 0.0388290537
v 0.0864225849 0.0554971628 0.0388290537
f 6 30 26
f 23 19 6
f 8 9 6
f 10 9 8
f 2 6 26
f 11 3 2
f 30 19 22
f 22 19 23
f 18 19 30
f 30 6 18
f 18 6 19
f 1 23 7
f 23 6 7
f 7 13 1
f 7 6 9
f 8 6 5
f 9 10 14
f 4 2 3
f 6 2 4
f 4 5 6
f 4 3 11
f 11 10 4
f 4 10 8
f 8 5 4
f 20 15 31
f 13 7 12
f 12 7 9
f 12 25 13
f 12 20 25
f 17 10 11
f 17 14 10
f 11 2 17
f 31 15 27
f 16 12 9
f 9 14 16
f 16 14 29
f 24 20 31
f 25 20 24
f 29 28 21
f 21 16 29
f 1 13 25
f 25 23 1
f 26 29 17
f 17 2 26
f 29 14 17
f 20 12 16
f 30 22 24
f 23 25 24
f 24 22 23
f 31 30 24
f 28 30 31
f 26 30 28
f 28 29 26
f 31 27 28
f 15 20 21
f 20 16 21
f 21 28 27
f 21 27 15
