v 0.0715006514 0.0596900759 0.0327507508
v 0.0670987292 0.0609269915 0.0248290551
v 0.0664619132 0.0631834445 0.0248290551
v 0.0715006514 0.0596900759 0.0349073661
v 0.0743087455 0.0609785495 0.0363332284
v 0.0660272761 0.0633055744 0.0381547463
v 0.0756974741 0.0605883227 0.0359674678
v 0.0756974741 0.0605883155 0.0248290551
v 0.0756974741 0.0585108073 0.029596207
v 0.0756974741 0.0585108073 0.035461703
v 0.0756974741 0.0585108126 0.0248290551
v 0.0756974741 0.0605883137 0.0384945954
v 0.0699009674 0.0622170757 0.0388290537
v 0.0661126773 0.0632815586 0.0388290537
v 0.0676398202 0.0628524599 0.0388290537
v 0.0664619132 0.0631834445 0.0388290537
v 0.0670987292 0.0609269915 0.0388290537
v 0.0654861852 0.061380106 0.0381547463
v 0.0655716899 0.0613560901 0.0388290537
v 0.0659208222 0.0612579761 0.0388290537
v 0.0660414484 0.0630280908 0.0388290537
v 0.0756974741 0.0585108088 0.038286486
v 0.0752887594 0.0586256551 0.0388290537
v 0.0756974741 0.0585108204 0.0388290537
v 0.0756974741 0.0604254507 0.0388290537
v 0.0649723633 0.0636019951 0.0248290551
v 0.0649723633 0.0636019951 0.0279328326
v 0.0649723633 0.0636019834 0.0365650085
v 0.0649723633 0.0636019942 0.035642649
v 0.0649723633 0.0615244848 0.0281630191
v 0.0649723633 0.0615245266 0.0371262138
v 0.0649723633 0.061524503 0.0365792474
v 0.0649723633 0.0615244901 0.035642649
v 0.0649723633 0.0615244848 0.0248290551
f 5 7 8
f 3 5 8
f 7 5 12
f 21 14 28
f 6 29 28
f 28 14 6
f 5 3 6
f 6 3 26
f 25 12 13
f 16 6 14
f 5 6 16
f 16 12 5
f 27 6 26
f 29 6 27
f 23 22 24
f 4 23 17
f 22 23 4
f 19 28 31
f 19 21 28
f 12 16 15
f 15 13 12
f 22 4 10
f 1 11 9
f 1 2 11
f 34 2 1
f 32 33 18
f 32 19 31
f 18 19 32
f 18 33 30
f 30 4 18
f 20 19 18
f 20 4 17
f 18 4 20
f 8 11 3
f 3 34 26
f 11 2 3
f 3 2 34
f 9 11 10
f 10 12 25
f 10 11 8
f 8 7 10
f 7 12 10
f 10 25 24
f 24 22 10
f 9 10 1
f 1 10 4
f 31 28 30
f 26 34 30
f 30 27 26
f 28 29 30
f 29 27 30
f 30 32 31
f 33 32 30
f 30 1 4
f 34 1 30
f 24 25 20
f 13 15 20
f 14 21 20
f 20 15 16
f 20 23 24
f 25 13 20
f 20 16 14
f 17 23 20
f 21 19 20
