v 0.0543456002 -0.0645062747 0.0506054414
v 0.0546342059 -0.0644252124 0.0513290418
v 0.0550931617 -0.0642962279 0.0519503606
v 0.058313243 -0.0633913698 0.0447267545
v 0.0542472525 -0.0645339313 0.0498290313
v 0.0556913539 -0.0641281428 0.0524270785
v 0.0563878938 -0.0639324012 0.0527267707
v 0.0551751777 -0.0663506212 0.0513290418
v 0.0568213387 -0.0658880892 0.0516040576
v 0.0556341334 -0.0662216368 0.0519503606
v 0.057676427 -0.0656478229 0.0528290523
v 0.0569288655 -0.0658578696 0.0527267707
v 0.0592412873 -0.0652081194 0.046226765
v 0.0548866912 -0.0664316835 0.0506054414
v 0.0547882243 -0.0664593401 0.0498290313
v 0.0589528008 -0.0652891817 0.0455032838
v 0.0645322724 -0.0637214007 0.0455032838
v 0.0562323256 -0.0660535517 0.0524270785
v 0.057135336 -0.0637223544 0.0528290523
v 0.0567534578 -0.0638297025 0.0388290537
v 0.0597327726 -0.0629925495 0.0388290537
v 0.0542472525 -0.0645339313 0.0388290537
v 0.0568213387 -0.0658880892 0.0388290537
v 0.0547882243 -0.0664593401 0.0388290537
v 0.0589528008 -0.0652891817 0.0439503444
v 0.0602738636 -0.0649179653 0.0388290537
v 0.0602109086 -0.0646939405 0.0388290537
v 0.0649723633 -0.0615202174 0.0476018399
v 0.0649723633 -0.0615202218 0.0416995904
v 0.0649723633 -0.0615202176 0.0528290523
v 0.0649723633 -0.0635977279 0.0528290523
v 0.0649723633 -0.0635977365 0.0453407
v 0.0649723633 -0.0635977359 0.0437972078
f 20 22 4
f 29 21 20
f 20 4 29
f 12 10 8
f 1 4 22
f 1 22 5
f 5 15 1
f 30 4 19
f 19 7 12
f 4 1 19
f 19 3 7
f 19 1 3
f 9 23 11
f 11 19 12
f 28 4 30
f 28 29 4
f 27 29 26
f 21 29 27
f 12 7 6
f 7 3 6
f 2 1 8
f 3 1 2
f 14 1 15
f 8 1 14
f 15 24 14
f 24 23 14
f 14 23 9
f 9 11 14
f 12 8 14
f 14 11 12
f 31 11 17
f 18 10 12
f 12 6 18
f 32 17 33
f 31 17 32
f 25 23 26
f 25 11 23
f 13 17 11
f 16 25 17
f 17 13 16
f 11 25 16
f 16 13 11
f 22 24 15
f 22 15 5
f 33 26 29
f 11 31 30
f 30 19 11
f 24 22 27
f 20 21 27
f 27 22 20
f 27 23 24
f 26 23 27
f 10 3 2
f 2 8 10
f 18 3 10
f 18 6 3
f 33 29 32
f 32 28 30
f 30 31 32
f 29 28 32
f 25 26 33
f 33 17 25
