v 0.0927141829 0.0558067737 0.0323560489
v 0.097049348 0.0545885739 0.0270525468
v 0.0971476956 0.0545609174 0.0278290761
v 0.0967608615 0.0546696959 0.0263290656
v 0.0963017865 0.0547986207 0.0257077468
v 0.0957037135 0.0549667058 0.0252309096
v 0.0942596122 0.0553724942 0.0248290551
v 0.0950070544 0.0551624475 0.0249312175
v 0.0966067239 0.0526355085 0.0278290761
v 0.096508257 0.0526631651 0.0270525468
v 0.0951626225 0.053041297 0.0252309096
v 0.0957608147 0.0528732119 0.0257077468
v 0.0962197705 0.0527442274 0.0263290656
v 0.0932612344 0.0535755334 0.0338289989
v 0.0931168719 0.0536161242 0.0248290551
v 0.0944660827 0.0532370386 0.0249312175
v 0.0937185212 0.0534470854 0.0248290551
v 0.0927141829 0.0558067737 0.035302068
v 0.0905216857 0.0543453274 0.0330665362
v 0.0934312113 0.0556052722 0.0388290537
v 0.0971476956 0.0545609174 0.0388290537
v 0.0911072445 0.0541807813 0.0388290537
v 0.0966067239 0.0526355085 0.0388290537
v 0.0864225849 0.0575746487 0.0248290551
v 0.0864225849 0.0554971628 0.0248290551
v 0.0864225849 0.0575746487 0.0388290537
v 0.0864225849 0.0554971628 0.0388290537
f 27 25 22
f 2 3 9
f 2 21 3
f 23 22 14
f 4 7 24
f 4 20 21
f 21 2 4
f 8 16 7
f 13 4 2
f 25 15 13
f 13 14 25
f 7 16 17
f 19 22 25
f 25 14 19
f 19 14 22
f 1 4 24
f 7 4 6
f 6 8 7
f 6 4 5
f 16 8 6
f 11 13 15
f 15 17 11
f 11 17 16
f 16 6 11
f 23 14 10
f 14 13 10
f 9 23 10
f 10 2 9
f 10 13 2
f 26 20 18
f 20 4 18
f 4 1 18
f 13 11 12
f 5 4 12
f 4 13 12
f 12 6 5
f 12 11 6
f 26 25 27
f 24 25 26
f 21 23 9
f 9 3 21
f 20 26 27
f 27 22 20
f 23 21 20
f 20 22 23
f 17 25 24
f 24 7 17
f 17 15 25
f 24 26 18
f 18 1 24
