v 0.0931168719 -0.0536118569 0.0528290523
v 0.0937185212 -0.0534428182 0.0528290523
v 0.0944660827 -0.0532327714 0.0527267707
v 0.0951626225 -0.0530370297 0.0524270785
v 0.0877135917 -0.0551301064 0.0485083116
v 0.0963017865 -0.0547943535 0.0519503606
v 0.0967608615 -0.0546654286 0.0513290418
v 0.0957037135 -0.0549624386 0.0524270785
v 0.0950070544 -0.0551581802 0.0527267707
v 0.0942596122 -0.055368227 0.0528290523
v 0.097049348 -0.0545843067 0.0506054414
v 0.0971476956 -0.0545567098 0.0498290313
v 0.0936579629 -0.0555373254 0.0528290523
v 0.0887920781 -0.0569045963 0.0490665687
v 0.0966067239 -0.0526312413 0.0498290313
v 0.0900361462 -0.0544774952 0.0403290046
v 0.0925424023 -0.0537732663 0.0392506373
v 0.0904661342 -0.0543566766 0.0392506373
v 0.0877135917 -0.0551301064 0.051149751
v 0.0887920781 -0.0569045963 0.0505914939
v 0.0957608147 -0.0528689446 0.0519503606
v 0.0962197705 -0.0527399602 0.0513290418
v 0.096508257 -0.0526588979 0.0506054414
v 0.0926710179 -0.053737129 0.0388290537
v 0.0936579629 -0.0555373254 0.0388290537
v 0.0971476956 -0.0545567098 0.0388290537
v 0.0966067239 -0.0526312413 0.0388290537
v 0.0864225849 -0.0554928834 0.0483136424
v 0.0864225849 -0.0554928834 0.0513396208
v 0.0864225849 -0.0554928956 0.0528290523
v 0.0864225849 -0.0575703815 0.0528290523
v 0.0864225849 -0.0554928956 0.0388290537
v 0.0864225849 -0.0575703815 0.0388290537
f 25 14 33
f 3 9 8
f 7 25 26
f 7 26 12
f 6 8 7
f 5 16 32
f 10 9 3
f 3 2 10
f 11 7 12
f 28 5 32
f 16 5 23
f 18 24 32
f 32 16 18
f 13 8 9
f 9 10 13
f 13 7 8
f 31 20 13
f 16 23 17
f 17 23 27
f 27 24 17
f 17 18 16
f 24 18 17
f 19 23 5
f 30 1 19
f 19 29 30
f 4 1 2
f 4 2 3
f 3 8 4
f 15 11 12
f 15 23 11
f 22 19 1
f 23 19 22
f 1 4 22
f 7 11 22
f 11 23 22
f 21 22 4
f 21 8 6
f 21 4 8
f 6 7 21
f 7 22 21
f 33 32 24
f 24 27 26
f 24 25 33
f 26 25 24
f 33 14 20
f 20 31 33
f 25 7 13
f 30 31 13
f 13 1 30
f 2 1 13
f 13 10 2
f 14 25 13
f 13 20 14
f 33 31 29
f 29 31 30
f 29 32 33
f 29 28 32
f 28 29 19
f 5 28 19
f 12 26 15
f 26 27 15
f 27 23 15
