v 0.0684592648 -0.0605404201 0.051149751
v 0.0680388137 -0.0606585565 0.0455032838
v 0.0670987292 -0.0609227242 0.0528290523
v 0.067886345 -0.0627789321 0.0513021005
v 0.0660272761 -0.0633013072 0.0397076858
v 0.0664619132 -0.0631791773 0.0528290523
v 0.0680388137 -0.0606585565 0.0439503444
v 0.0728137418 -0.0613943758 0.0473249209
v 0.0751134082 -0.058670682 0.0397076858
v 0.0654861852 -0.0613758388 0.0397076858
v 0.0756974741 -0.0585065805 0.0420337476
v 0.0736182853 -0.0590907755 0.0455032838
v 0.0756974741 -0.058506585 0.0473879511
v 0.0756974741 -0.0585065984 0.0528290523
v 0.0756974741 -0.0605840465 0.0393678888
v 0.0756974741 -0.0605840567 0.047808549
v 0.0756974741 -0.0605840483 0.0528290523
v 0.0673074392 -0.0608640758 0.0388290537
v 0.0655716899 -0.0613518229 0.0388290537
v 0.0659208222 -0.0612537088 0.0388290537
v 0.069827458 -0.0622334651 0.0388290537
v 0.0676398202 -0.0628481927 0.0388290537
v 0.0661126773 -0.0632772913 0.0388290537
v 0.0664619132 -0.0631791773 0.0388290537
v 0.0699009674 -0.0622128085 0.0388290537
v 0.0751988094 -0.0586467179 0.0388290537
v 0.0756974741 -0.0585066012 0.0388290537
v 0.0756974741 -0.0604212215 0.0388290537
v 0.0649723633 -0.0615202174 0.0476018399
v 0.0649723633 -0.0615202218 0.0416995904
v 0.0649723633 -0.0615202176 0.0528290523
v 0.0649723633 -0.0635977279 0.0528290523
v 0.0649723633 -0.0635977365 0.0453407
v 0.0649723633 -0.0635977359 0.0437972078
f 2 29 31
f 18 20 7
f 7 29 2
f 27 9 11
f 11 9 13
f 17 8 16
f 16 8 15
f 4 32 33
f 33 8 4
f 4 8 17
f 2 31 1
f 10 20 19
f 19 30 10
f 10 30 29
f 29 7 10
f 10 7 20
f 18 9 26
f 9 27 26
f 6 4 17
f 32 4 6
f 5 23 24
f 15 8 24
f 34 23 5
f 19 23 34
f 34 30 19
f 5 24 34
f 34 8 33
f 34 24 8
f 14 1 3
f 3 1 31
f 14 13 12
f 12 1 14
f 12 13 9
f 2 1 12
f 12 7 2
f 12 9 18
f 18 7 12
f 25 28 15
f 15 21 25
f 22 21 15
f 15 24 22
f 11 13 28
f 28 27 11
f 28 14 17
f 17 16 28
f 28 13 14
f 28 16 15
f 33 32 34
f 34 31 29
f 32 31 34
f 29 30 34
f 17 14 3
f 3 31 32
f 3 6 17
f 32 6 3
f 22 23 19
f 22 20 18
f 19 20 22
f 18 26 22
f 27 28 22
f 22 26 27
f 22 25 21
f 22 24 23
f 28 25 22
