v 0.0794495269 -0.0574522438 0.0374312652
v 0.085175149 -0.0558433952 0.0248290551
v 0.0832393094 -0.0584648671 0.0360335362
v 0.08571624 -0.0577688637 0.0248290551
v 0.0769307538 -0.0602375093 0.0248290551
v 0.0756974741 -0.0585065805 0.0377945196
v 0.0756974741 -0.0585065984 0.0248290551
v 0.0756974741 -0.0585065851 0.029596207
v 0.0756974741 -0.0605840555 0.0359674678
v 0.0756974741 -0.0605840568 0.0355216337
v 0.0756974741 -0.0605840568 0.029913006
v 0.0756974741 -0.0605840483 0.0248290551
v 0.08571624 -0.0577688637 0.0388290537
v 0.0756974741 -0.0585066012 0.0388290537
v 0.0757398847 -0.0605721345 0.0388290537
v 0.0756974741 -0.0605840465 0.0384945954
v 0.0758298503 -0.0605468563 0.0388290537
v 0.0756974741 -0.0604212215 0.0388290537
v 0.0864225849 -0.0554928956 0.0248290551
v 0.0864225849 -0.0575703815 0.0248290551
v 0.085175149 -0.0558433952 0.0388290537
v 0.0864225849 -0.0554928956 0.0388290537
v 0.0864225849 -0.0575703815 0.0388290537
f 10 15 9
f 15 16 9
f 17 15 10
f 18 16 15
f 7 1 2
f 8 1 7
f 11 12 5
f 6 1 8
f 4 11 5
f 1 6 14
f 14 21 1
f 10 11 3
f 3 4 13
f 11 4 3
f 13 17 3
f 3 17 10
f 20 22 23
f 19 22 20
f 19 2 21
f 21 22 19
f 2 1 21
f 19 20 4
f 4 2 19
f 12 7 4
f 5 12 4
f 4 7 2
f 23 13 4
f 4 20 23
f 14 11 10
f 10 9 14
f 8 7 14
f 14 6 8
f 14 7 12
f 14 9 16
f 16 18 14
f 12 11 14
f 14 13 23
f 23 22 14
f 14 18 15
f 15 17 14
f 14 17 13
f 22 21 14
