v -0.00173774488 -0.00941485846 0.00810647714
v -0.0107659543 -0.00465261643 -0.00505482777
v 0.000145815142 -0.00678090818 0.00950139809
v -0.00151375098 -0.00869443087 0.00915644929
v -0.000245164005 -0.0104988563 0.00722668098
v 0.0012784928 -0.0119109766 0.00337588506
v -0.000938164232 -0.0126268901 -0.00153084122
v -0.0101137094 0.000540605337 0.00765434517
v -0.00772496121 -0.00268265203 0.00994674913
v 0.00343359599 0.00896399454 0.00708120754
v 0.00220861674 0.00828481331 -0.00952291505
v 0.00349024182 0.00641397893 -0.0105266249
v 0.0122752422 -0.000600377154 -0.00360844491
v 0.00753852527 -0.00460773184 0.00394099563
v 0.0087276317 0.00634069578 0.00686213069
v -0.00382439824 -0.00422894285 0.0108977326
v -0.00369117303 -0.0031836874 -0.00890073638
v -0.00258656521 0.00694588086 0.00619258906
v -0.0114807306 0.001990926 0.000967812887
v -0.000801124622 0.0117874499 -0.00369551133
v -0.00299134676 0.00879300894 -0.0060039737
v -0.0126131015 -0.000640634281 -0.00133645157
v -0.00845020436 0.00132127458 -0.005410173
v -0.00244437074 0.00465201399 -0.00860253404
v -0.00857475632 -0.00386344301 -0.00715093449
v 0.0055073267 0.00213182165 -0.0105770227
v 0.00750306076 -0.00391228854 -0.00555157766
v 0.00574014386 -0.00393260575 -0.00713368779
v 0.00260856046 -0.00967219124 -0.00399397653
v 0.0124496158 0.00168037469 0.00302251755
v 0.00219523975 0.00879170589 -0.00863069126
v 0.012553376 0.00147341194 0.00119922625
v 0.0124504848 0.000198839483 -0.00293303938
v 0.0111082566 0.000566846397 -0.0062741128
v 0.00981071501 0.00565432531 0.00521821125
v 0.0111165133 0.00408314579 0.00487955621
v -0.000501117881 0.0113788761 -0.0051711404
v -0.000356135376 0.0121847265 -0.00312702478
v 0.000755499479 0.0102521266 -0.00761286211
v 0.00765367679 0.00805662877 0.00614542981
v 0.0068472642 0.00354718584 -0.010231553
v 0.00639269616 0.00839995759 0.00674994749
v 0.00481073791 0.0105649753 0.00551136999
v 0.00335454284 0.0115895463 0.00392296088
v 0.00237968738 0.0121063924 0.00359254624
v 0.000643035389 0.0129559778 0.000705097684
v 0.000319875813 0.0122072087 -0.00369439977
v 0.00550512425 0.00384776808 -0.0106586533
v 0.00745560628 0.00211817249 -0.00990236029
v 0.00931409867 0.00100290606 -0.00868463169
v 0.0122367329 0.00221542958 0.00302457814
v 0.00956494521 0.00573068657 0.00613154093
v -0.0054638677 -0.00406055129 0.0107943442
v -0.00978205725 -0.000814755551 0.00804237154
v -0.00605868782 -0.00879265663 -0.00669161075
v -0.00243577028 -0.00812780202 0.00947591715
v -0.00489120298 -0.0103467665 -0.00607995566
v -0.00819290806 -0.00748448279 -0.00659349014
v -0.0123709523 -0.00214126058 -0.00297495422
v -0.000644697393 -0.0127800747 0.000963982824
v -0.0110489434 -0.00365047189 -0.00507895352
v -0.0127527894 -0.00067749827 -0.00014466916
v -0.011809961 -0.000208987179 0.00505899487
v -0.00257867337 -0.0120076068 -0.00301496805
v -0.000630025337 -0.0113632476 0.00548641475
v -0.00459518211 -0.00566351249 0.0105849605
f 6 29 13
f 65 2 60
f 60 6 65
f 65 6 5
f 31 39 47
f 16 15 10
f 10 15 42
f 60 2 64
f 64 2 58
f 57 64 58
f 29 64 57
f 9 10 8
f 38 47 37
f 37 47 39
f 30 13 32
f 3 15 16
f 43 10 42
f 8 10 18
f 60 64 7
f 7 64 29
f 7 6 60
f 29 6 7
f 58 25 17
f 13 29 27
f 57 17 26
f 26 12 48
f 26 17 12
f 29 57 28
f 28 27 29
f 50 27 28
f 57 26 28
f 28 26 50
f 48 12 41
f 41 26 48
f 16 10 53
f 10 9 53
f 54 9 8
f 9 54 63
f 63 54 8
f 63 19 62
f 8 19 63
f 12 17 24
f 24 17 25
f 20 19 38
f 38 37 20
f 5 6 14
f 14 3 5
f 30 3 14
f 14 6 13
f 13 30 14
f 31 47 35
f 46 47 38
f 38 19 46
f 46 19 8
f 8 18 46
f 55 57 58
f 58 17 55
f 55 17 57
f 13 27 34
f 34 27 50
f 50 41 34
f 34 35 32
f 34 41 31
f 31 35 34
f 50 26 49
f 49 41 50
f 26 41 49
f 12 24 11
f 11 24 39
f 11 39 31
f 31 41 11
f 11 41 12
f 23 24 25
f 36 3 30
f 36 35 52
f 15 3 36
f 36 52 15
f 32 35 36
f 5 3 4
f 16 53 66
f 66 3 16
f 66 53 9
f 66 4 3
f 56 4 66
f 9 63 66
f 1 65 5
f 5 4 1
f 1 4 56
f 56 66 1
f 2 65 1
f 1 63 2
f 1 66 63
f 44 35 47
f 47 46 44
f 32 13 33
f 33 34 32
f 13 34 33
f 62 19 22
f 61 23 25
f 58 2 61
f 61 25 58
f 39 24 21
f 24 23 21
f 21 37 39
f 23 22 21
f 21 22 19
f 19 20 21
f 21 20 37
f 51 30 32
f 32 36 51
f 51 36 30
f 40 44 43
f 35 44 40
f 52 35 40
f 15 52 40
f 42 15 40
f 40 43 42
f 45 46 18
f 45 44 46
f 45 18 10
f 10 43 45
f 43 44 45
f 59 22 23
f 23 61 59
f 59 61 2
f 62 22 59
f 59 63 62
f 2 63 59
