v -0.0119493306 -0.00416274752 -0.00211858359
v -0.0119247323 -0.00035088576 0.00386918793
v -0.0100529778 0.000325234849 0.00759122022
v -0.0115861753 0.00180128675 0.0036873824
v -0.00802283729 0.00315559686 0.00818311209
v -0.00315005455 -0.00168924981 0.0117992163
v 0.000447947238 -0.00755102441 0.0101964843
v -0.000390268853 -0.0119970964 -0.000589730999
v 0.0104465326 -0.00228889428 -0.005610641
v 0.00486980734 0.00114360151 -0.0116979736
v 0.0102753655 -0.000696793627 -0.00765802033
v 0.00626036944 -0.00716702477 0.00326920708
v 0.00208931959 0.0125539778 0.000668868146
v -0.000978855063 0.0106916218 -0.00700713901
v -0.00143561595 0.00677008965 -0.00979469201
v 0.00129059728 -0.0115441128 -0.000434238749
v 0.002570063 0.00246250203 -0.0117699343
v -0.00307920594 -0.00665724667 -0.00680927955
v 0.00487742526 -0.00337424861 -0.00888837147
v 0.000656178659 -0.00923208452 -0.00406735918
v 0.00138722929 -0.0103572862 0.00776538044
v 0.0122105315 0.00229108337 0.00176498105
v 0.00469329016 -0.00268714429 0.0081647651
v 0.00212579078 0.00212575936 0.00908524015
v -0.00904317697 0.000739568038 0.00926320767
v -0.000673364171 0.0123248677 -0.00281345676
v -0.00602130998 0.00347718139 -0.00658688931
v -0.00892100366 -0.00819148955 -0.00418521414
v -0.000452227711 -0.00225128364 -0.00964522163
v 0.000772397933 0.0124835654 -0.00271881072
v -0.00246928593 0.0092359679 -0.00722263312
v 0.00955272615 0.00772918389 0.00379902709
v 0.0123963098 0.00188667369 0.000716821787
v 0.00613182018 0.010538317 0.00416897155
v 0.00571198619 0.00152655732 -0.0112536245
v 0.0111367655 0.0051672076 0.00336208264
v -0.000345305691 0.00790656987 -0.0100004506
v 0.00784411514 -0.000331144298 -0.0100204334
v 0.0116723849 -0.000140853477 -0.00481684297
v 0.0126059931 -0.000160936018 -0.00250812654
v 0.0125952669 0.00264606122 0.000554694206
v 0.0104970294 0.00631508893 0.00340201433
v 0.00815995644 0.00873717995 0.0043287261
v 0.00468808648 0.0116108723 0.00220108267
v 0.00341378671 0.0116714372 0.00258119891
v 0.00127109204 0.0052590003 -0.0119216149
v 0.0008377367 0.00632858397 -0.0110653999
v -0.00521377443 -0.0013006453 0.0115843584
v -0.0104030131 0.000828117697 0.00755492536
v -0.0123025488 -0.000402450414 -0.000365166435
v -0.010890958 -0.00439110166 -0.00395807735
v -0.0014486316 -0.00379504135 0.0120480003
v -0.000559872316 -0.0062999596 0.0110019962
v -0.000480481917 -0.0125201151 0.00180345991
v -0.00513421433 -0.0112085654 -0.00340982675
v -0.00776119731 -0.00937509466 -0.00365804545
v -0.0101840812 -0.00656436211 -0.00372264766
v -0.0124986037 -0.00166497855 0.0010456744
v 0.000424896326 -0.0119987119 0.00482631414
v -0.00160419736 -0.0126377131 -6.60286468e-06
v -0.00428872934 -0.0118350521 -0.00185994286
v -0.0126707184 -0.000252933477 0.00208431226
v -0.00119498053 -0.00630900486 0.0111947849
v -0.00993722098 -0.00728181938 -0.00343426033
f 13 5 45
f 5 34 45
f 32 30 44
f 44 34 32
f 44 30 13
f 13 45 44
f 44 45 34
f 48 34 5
f 5 25 48
f 59 12 21
f 16 12 59
f 52 7 23
f 23 7 21
f 46 51 15
f 62 4 50
f 50 4 31
f 50 58 62
f 46 10 17
f 47 14 30
f 30 14 26
f 13 30 26
f 31 4 26
f 26 14 31
f 26 5 13
f 26 4 5
f 9 39 40
f 40 12 9
f 9 12 16
f 53 7 52
f 32 34 43
f 43 24 32
f 34 24 43
f 34 48 6
f 6 24 34
f 6 48 52
f 52 24 6
f 60 16 54
f 54 59 60
f 16 59 54
f 8 16 60
f 8 20 16
f 36 24 52
f 52 23 36
f 32 24 36
f 31 14 37
f 37 15 31
f 14 47 37
f 46 15 37
f 37 47 46
f 57 51 28
f 28 64 57
f 58 50 1
f 1 50 51
f 51 57 1
f 1 64 58
f 1 57 64
f 27 15 51
f 51 50 27
f 31 15 27
f 27 50 31
f 35 47 30
f 46 47 35
f 35 10 46
f 38 10 35
f 16 20 19
f 19 9 16
f 19 10 38
f 62 58 2
f 58 64 2
f 63 59 21
f 3 2 63
f 21 7 63
f 7 53 63
f 63 2 64
f 63 48 25
f 25 3 63
f 52 48 63
f 63 53 52
f 29 17 10
f 10 19 29
f 29 19 18
f 29 18 28
f 46 17 29
f 29 51 46
f 28 51 29
f 55 8 60
f 20 8 55
f 28 18 55
f 55 19 20
f 18 19 55
f 40 39 41
f 41 30 32
f 41 35 30
f 39 35 41
f 38 35 11
f 11 35 39
f 39 9 11
f 11 19 38
f 9 19 11
f 49 4 62
f 62 2 49
f 49 2 3
f 49 3 25
f 5 4 49
f 49 25 5
f 61 55 60
f 60 59 61
f 59 63 61
f 61 63 64
f 32 36 42
f 42 41 32
f 36 41 42
f 22 12 40
f 21 12 22
f 22 23 21
f 22 36 23
f 22 41 36
f 56 64 28
f 56 61 64
f 28 55 56
f 55 61 56
f 40 41 33
f 33 22 40
f 41 22 33
