v 0.00287405292 0.00818170187 0.0091427282
v 0.000449456842 0.0109873451 0.00619909272
v -0.00602033293 0.0106702361 0.00273179049
v -0.00477575013 -0.00424683589 0.010689747
v -0.0116119608 -7.21140997e-05 0.00432512007
v -0.0103614672 -0.000732783818 0.000204487339
v -0.00588259924 0.0112816306 0.00177024128
v -0.00135482863 0.0122426335 0.00400231123
v -0.00252808089 -0.010783983 -0.0057548878
v -0.00156573436 0.000468040143 -0.0126830488
v 0.0118091033 -0.00145604949 -0.00323194182
v 0.00879784632 0.00344944667 -0.00867765089
v -0.000933730667 -0.0114298303 -0.00569540236
v -0.00103892117 -0.0108045594 -0.00237229546
v 0.00493042324 -0.0113408613 -0.00190254101
v 0.000441655285 -0.00884512042 0.00468132679
v 0.0111716208 -0.00454142302 0.000212920488
v -0.00992969293 0.00729756516 0.000869181526
v -0.00390638142 0.00322148638 -0.00875023087
v 0.00889642194 0.00293033168 0.00194419462
v 0.00271137898 0.0103401796 0.00539433929
v 0.0108993663 0.00216733283 -0.00466893885
v 0.00734355704 0.00523616141 -0.0071428161
v -0.00117588777 0.0116170666 0.0022203049
v 0.00179441323 0.00369127236 -0.012024961
v -0.00579562669 0.00388723744 -0.00693771929
v -0.00581348318 -0.00174496542 -0.00986860292
v -0.00772044534 -0.00386953554 -0.00434426588
v -0.0100607974 -0.00346226453 0.00632686251
v 0.00726835076 -0.010858864 -0.00165527435
v 0.00188751647 -0.0115761643 -0.0045463707
v 0.00541822738 0.00343336404 -0.0110125265
v 0.0112447661 -0.00574685862 -0.0022559821
v 0.0114734074 -0.00412098958 -0.00332519748
v 0.0113185207 -0.000801938632 -0.00530857495
v 0.00172901287 -0.0118471461 -0.0044296494
v -0.0028567233 -0.0080495233 -0.00924688638
v -0.00181246384 -0.000820734858 -0.0125942573
v 0.0107326412 0.00118189233 -0.0067059866
v 0.0121465256 -0.00228658468 -0.00361991631
v 0.0105940684 0.00205462762 -0.00642561582
v 0.00589417191 0.0039338811 -0.0104890176
v 0.0052011557 0.00448941766 -0.0105388055
v 0.00136413988 0.00206826046 -0.0124287126
v -0.0030417256 -0.00277224427 -0.0121555295
v -0.00342617519 -0.00687062495 -0.0100861779
v -0.00372063657 -0.00477644957 -0.0111882924
v -0.00405121794 -0.00796223882 -0.00883568316
v -0.00271757058 -0.00903663417 -0.00848715487
v 0.00339385226 -0.0119508821 -0.00331190374
v 0.00794197116 -0.00970213968 -0.00212710899
v 0.00394094616 0.00230829697 0.0118003962
v -0.0118456035 0.000799723653 0.00443705537
v -0.00755858181 -0.00356614927 0.00987559409
v -0.0112225351 -0.000973072322 0.00600387253
v -0.0120320201 0.00403157781 0.00279742125
v 0.00249427914 0.009970321 0.00755996962
v -0.00917484947 0.0087488911 0.00180408648
v 0.00395624149 0.00848980475 0.00867817491
v 0.00408427921 0.00369308518 0.0121853009
v -0.00121124738 -0.00289963574 0.0125095523
v -0.00828135855 0.00925162886 0.00221180841
v -0.0116923836 0.0033523753 0.00364661043
v -0.00415430356 0.0114425826 0.00329006908
f 16 30 61
f 40 33 34
f 61 30 17
f 30 33 17
f 17 33 40
f 4 16 61
f 50 30 15
f 15 16 50
f 30 16 15
f 53 63 56
f 29 48 9
f 29 5 28
f 28 48 29
f 32 37 38
f 51 30 50
f 51 33 30
f 51 34 33
f 35 37 32
f 40 34 35
f 40 22 11
f 52 60 61
f 61 17 52
f 52 17 60
f 16 4 54
f 54 4 61
f 61 60 54
f 55 5 29
f 55 53 5
f 29 54 55
f 63 53 55
f 55 54 63
f 6 28 5
f 6 53 56
f 5 53 6
f 44 38 10
f 32 38 44
f 10 25 44
f 44 25 32
f 34 51 31
f 37 35 31
f 31 35 34
f 31 51 50
f 50 36 31
f 40 35 39
f 39 35 32
f 1 59 57
f 60 59 1
f 1 54 60
f 20 11 22
f 22 59 20
f 20 59 60
f 60 17 20
f 20 17 40
f 40 11 20
f 56 63 58
f 63 62 58
f 16 54 14
f 9 13 14
f 29 9 14
f 14 54 29
f 13 36 14
f 50 16 14
f 14 36 50
f 49 9 48
f 49 13 9
f 49 36 13
f 37 31 49
f 49 31 36
f 45 38 37
f 10 38 45
f 48 28 27
f 27 47 48
f 27 6 56
f 28 6 27
f 27 45 47
f 10 45 27
f 12 23 22
f 12 39 32
f 32 42 12
f 7 24 25
f 7 58 62
f 22 23 21
f 57 59 21
f 21 59 22
f 46 45 37
f 47 45 46
f 48 47 46
f 46 49 48
f 37 49 46
f 10 27 26
f 58 7 26
f 26 7 25
f 43 24 23
f 23 12 43
f 43 12 42
f 25 24 43
f 32 25 43
f 43 42 32
f 41 12 22
f 39 12 41
f 41 22 40
f 40 39 41
f 3 7 62
f 3 62 63
f 63 54 3
f 2 1 57
f 54 1 2
f 2 3 54
f 23 24 8
f 8 21 23
f 24 7 8
f 57 21 8
f 8 2 57
f 56 58 18
f 58 26 18
f 18 27 56
f 18 26 27
f 19 25 10
f 10 26 19
f 19 26 25
f 7 3 64
f 64 8 7
f 3 2 64
f 2 8 64
