v 0.00724069662 0.00487751909 0.00934665424
v -0.00513773954 -0.00597272312 0.00960956286
v -0.00172497255 -0.00924140984 0.00850605244
v -0.0058368645 0.00268138069 0.0110663771
v 0.00566716221 -0.0090056222 0.0072375509
v -0.00617239253 0.00304045239 0.0105261644
v -0.0023388659 0.00626527332 0.010910167
v 0.0101717889 0.000214964061 0.00794083435
v 0.0101050683 -0.00363336741 0.00695525248
v 0.00749818709 -0.000262676249 -0.0100872126
v 0.00509017908 0.007952114 -0.00585665036
v -0.0101231257 0.00397396695 -0.00741603936
v -0.0088107309 -0.00367753605 -0.00800810205
v 0.00915431788 0.00152614698 -0.00373725807
v 0.00614518666 0.00676328311 -0.00753433782
v 0.0086026685 0.00463436403 0.00833770279
v 0.00262718493 0.00981992751 -0.00286023882
v 0.00482888527 0.00724169225 0.00929784067
v 0.0028000411 0.00814498934 0.00721492405
v -0.000688045215 0.00888869668 0.00421549163
v -0.00451837314 0.0100448048 -0.00662632264
v -0.0035395647 0.00724258705 0.00729280376
v -0.00653719546 0.00640388907 0.00632881621
v -0.00939001927 0.00100701866 0.0012420468
v -0.0102270791 -0.00116904633 -0.00674260436
v -0.0071346097 -0.00551264046 0.00927894943
v -0.0044543453 -0.00886808367 0.00652979985
v 0.00474466955 -0.0107697891 0.0043145198
v 0.000472047066 -0.00946076227 -0.00153137629
v 0.00558400423 -0.00561239193 -0.00826229044
v -0.00520979934 0.00877641424 -0.00750558208
v 0.00602590245 0.00513044082 -0.00989955641
v -0.0101457846 0.00227671586 -0.00744151615
v 0.00329402624 0.0085835987 -0.00880640527
v 0.0053521257 0.00627379319 -0.00954448942
v 0.00643928709 -0.00128781112 -0.0109339339
v 0.00575807135 -0.00329148402 -0.0110528132
v 0.00692587528 -0.00122086691 -0.010522496
v 0.00686377489 0.00240280236 -0.0103458338
v 0.00708135381 0.00433802775 -0.00972338173
v 0.00477628224 0.00789831219 -0.00881275782
v -0.000292252947 0.0101972677 -0.00781290079
v -0.00550656532 0.00913041446 -0.00699375027
v -0.00958899695 0.00358770595 -0.00760812349
v -0.00969921194 -0.00166125154 -0.00821486761
v -0.00806290798 -0.00404303208 -0.00897428142
v -0.00604869296 -0.00676468118 -0.00891051496
v -0.00511804005 -0.00652253359 -0.00987562413
v -0.00240284002 -0.0070812503 -0.0102394991
v -0.00117250649 -0.00753222565 -0.010188698
v 0.00159742505 -0.0069218378 -0.0109095845
v 0.00945645811 0.00303321435 0.00740510501
v 0.00127327504 0.00768810646 0.0101577343
v -0.00734948034 0.000539255809 0.0105456109
v -0.00134590619 -0.00980073308 0.00796157643
v 0.000892020321 -0.010234374 0.00768900709
v 0.00383217944 -0.00979370655 0.0070070444
v 0.00321382486 0.0067535838 0.0101972647
v 0.00860221199 -0.00550053288 0.00745915223
v 0.00910745204 -0.00545957148 0.00713492866
v 0.00138670408 -0.00963721668 0.00793502997
v -0.00468023097 -0.00779393789 0.00903695218
v -0.00657794204 -0.00290832234 0.0103235142
v 0.000316164928 0.00674649059 0.0107653325
f 8 14 52
f 13 26 25
f 51 28 50
f 50 28 29
f 9 14 8
f 5 61 56
f 40 14 10
f 14 9 10
f 36 48 32
f 37 51 36
f 36 51 48
f 31 21 42
f 42 34 31
f 31 34 32
f 43 31 12
f 21 31 43
f 42 21 17
f 17 34 42
f 18 1 16
f 16 17 18
f 11 17 16
f 8 52 16
f 16 1 8
f 25 12 33
f 26 13 27
f 50 48 49
f 49 51 50
f 48 51 49
f 24 12 25
f 25 26 24
f 26 54 24
f 30 51 37
f 28 51 30
f 30 10 9
f 56 28 57
f 57 5 56
f 28 5 57
f 60 9 8
f 60 5 28
f 28 30 60
f 60 30 9
f 4 54 63
f 63 54 26
f 26 2 63
f 56 61 3
f 61 2 3
f 39 32 40
f 39 36 32
f 40 10 39
f 10 36 39
f 37 36 38
f 38 36 10
f 38 30 37
f 10 30 38
f 40 32 41
f 41 17 11
f 34 17 41
f 32 48 44
f 44 31 32
f 12 31 44
f 23 7 22
f 23 43 12
f 12 24 23
f 23 24 54
f 21 43 23
f 23 22 21
f 61 5 59
f 59 2 61
f 59 1 2
f 8 1 59
f 59 60 8
f 5 60 59
f 64 7 4
f 4 63 64
f 2 1 64
f 64 63 2
f 21 22 20
f 20 17 21
f 45 13 25
f 25 33 45
f 45 33 12
f 47 27 13
f 29 27 47
f 47 48 50
f 50 29 47
f 62 3 2
f 62 2 26
f 26 27 62
f 56 3 55
f 55 27 29
f 55 62 27
f 3 62 55
f 55 28 56
f 55 29 28
f 40 41 15
f 15 41 11
f 11 16 15
f 15 16 52
f 15 14 40
f 15 52 14
f 32 34 35
f 35 41 32
f 34 41 35
f 6 54 4
f 6 23 54
f 4 7 6
f 7 23 6
f 58 1 18
f 58 64 1
f 22 7 53
f 53 20 22
f 7 64 53
f 53 58 18
f 64 58 53
f 13 45 46
f 46 47 13
f 48 47 46
f 46 44 48
f 12 44 46
f 46 45 12
f 17 20 19
f 20 53 19
f 18 17 19
f 19 53 18
