v 0.0105756972 -0.00719767817 0.000589713437
v 0.00311075067 -0.0121563538 -0.00167510002
v 0.00271180959 -0.000422059404 -0.0124317858
v 0.0091040007 0.00276272244 -0.00849050778
v 0.00438159555 0.00195694975 -0.0116320904
v 0.00158796552 -0.0118966066 -0.000284945238
v 0.00263723434 -0.0122459894 -0.000895528235
v 0.00143327717 0.0115698761 0.00323137057
v 0.00579662009 0.00275986283 0.00826168996
v 0.00241006029 0.00692642191 0.0103711594
v 0.00276234695 0.00970223009 0.00717447976
v -0.00952693748 0.00842919975 -0.00106989702
v -0.0118499518 0.00481193359 3.63940284e-05
v -0.0115898099 -0.00126114279 0.00317708264
v -0.0113042614 -0.00151546246 0.00512700136
v -0.00170464515 -1.13241742e-05 0.0126169889
v -0.000908899792 0.00143640763 -0.0113001448
v -0.00172072917 0.01225973 0.00142096305
v -0.00365144282 -0.00720613373 0.00513004088
v -0.00396751933 -0.00356920627 0.0103878878
v 0.00401678376 -0.00881898142 0.00402896242
v 0.00542293299 -0.0116362502 0.000373004939
v -0.000816992321 0.0111048167 -0.00121724963
v 0.00931928911 -0.00809306549 0.00207327808
v -0.000301904644 -0.000999387289 -0.0120212359
v -0.00329595593 -0.0102780166 -0.00250450673
v -0.00654899337 -0.00559607326 -0.00519096082
v -0.0111145233 0.00450211347 -0.00191758038
v -0.00307041011 -0.00417216645 -0.0105024604
v -0.00265123089 -0.00782440244 -0.00958988443
v 0.00787779457 0.00551860566 -0.00186927625
v 0.00996554988 0.00246345249 0.00133284368
v 0.0123488766 -0.000849893231 -0.00244192303
v 0.00560447661 -0.00309638728 0.00714105931
v 0.0121492213 -0.00375488253 -0.000213589114
v -0.00884701246 -0.00206037597 0.00916338221
v -0.0109751354 0.00614519599 5.3038355e-05
v -0.00660471422 0.0108313883 -0.000236553309
v 0.0010520228 0.0117076051 0.00508071702
v 0.00204963544 0.00922439465 0.00875075337
v -0.000168221089 0.00232703702 0.0127151663
v -0.0107916255 0.00662862085 -0.00106442231
v -0.00413981068 -0.000683577283 0.0121646558
v -0.0058404585 0.0112976332 -0.00136144683
v -0.00446874844 -0.00141812662 0.0119270097
v -0.0105462654 -0.00230813078 0.00742385209
v -0.0125464934 0.00190564687 0.00208472636
v -0.00449032039 0.0119468272 0.000294317956
v -0.00241653779 0.0124912626 0.00184775016
v 0.000598714711 0.01131851 0.00563546884
v 0.00151400027 0.00543167955 0.0115104392
v 0.000630733584 -0.00166410227 -0.0125907302
v 0.0113877426 0.00130729691 -0.00527824665
v 0.00800242917 -0.00991463029 0.00110071519
v 0.0124253547 -0.00170410468 -0.00245661332
v 0.00739370612 0.00254609287 -0.00997077503
v 0.00998456667 0.00177913604 -0.00798654853
v 0.00617242026 0.00150680914 -0.0110172024
v -0.00185059928 -0.0106039569 -0.00694110219
v 0.011985321 0.000380814673 -0.00423339455
v -0.00226722288 -0.00707864601 -0.0103086182
v -0.000897288539 -0.0117629584 -0.00493412252
v 0.00246492733 -0.0124752796 -0.00162065809
v -0.00100954126 -0.00412783741 -0.0121235245
v -0.00153079071 -0.0103957915 -0.00737865191
f 41 16 34
f 34 16 24
f 24 54 1
f 1 35 24
f 55 35 1
f 46 36 47
f 27 29 30
f 52 3 64
f 3 65 64
f 6 62 63
f 26 62 6
f 21 54 24
f 24 16 21
f 21 22 54
f 21 6 22
f 57 65 3
f 55 1 57
f 63 62 2
f 2 62 65
f 2 22 63
f 65 57 2
f 2 57 1
f 54 22 2
f 2 1 54
f 26 46 14
f 14 27 26
f 47 27 14
f 59 62 26
f 65 62 59
f 26 27 59
f 30 65 59
f 59 27 30
f 61 65 30
f 61 64 65
f 30 29 61
f 29 64 61
f 17 3 52
f 17 64 29
f 23 8 4
f 63 22 7
f 7 6 63
f 22 6 7
f 20 21 16
f 6 21 20
f 55 57 60
f 15 46 47
f 47 14 15
f 15 14 46
f 39 40 11
f 11 8 39
f 39 8 49
f 52 64 25
f 25 17 52
f 64 17 25
f 48 38 49
f 44 38 48
f 49 23 48
f 48 23 44
f 49 8 18
f 18 23 49
f 8 23 18
f 56 23 4
f 4 57 56
f 36 20 45
f 45 20 16
f 6 20 19
f 19 46 26
f 26 6 19
f 36 46 19
f 19 20 36
f 4 8 31
f 31 8 11
f 11 32 31
f 35 32 9
f 24 35 9
f 9 34 24
f 41 34 9
f 9 51 41
f 55 60 33
f 60 32 33
f 33 35 55
f 33 32 35
f 50 39 49
f 40 39 50
f 49 38 50
f 44 17 12
f 17 42 12
f 12 38 44
f 28 17 29
f 28 42 17
f 13 42 28
f 29 27 28
f 28 27 47
f 47 13 28
f 58 57 3
f 58 56 57
f 44 23 5
f 23 56 5
f 5 17 44
f 56 58 5
f 3 17 5
f 5 58 3
f 43 16 41
f 43 45 16
f 36 45 43
f 41 51 43
f 43 51 40
f 40 50 43
f 43 50 38
f 4 31 53
f 53 57 4
f 53 60 57
f 53 32 60
f 53 31 32
f 40 51 10
f 51 9 10
f 11 40 10
f 10 32 11
f 10 9 32
f 37 42 13
f 37 12 42
f 38 12 37
f 37 13 47
f 47 36 37
f 36 43 37
f 37 43 38
