v 0.000446774252 0.00705809914 0.010741937
v 0.0110908761 0.00561813624 -0.00274508174
v 0.00794270272 -0.000101615697 0.0103623858
v 0.0080281345 0.00885773992 -0.00446574657
v 0.0125268501 0.00231359264 -0.000730056965
v 0.0101745783 -0.00144180554 0.00703269461
v 0.00590127415 0.000168843351 0.0111995207
v -0.00285025576 0.0074102744 0.00822252313
v 0.0020972275 0.0125022226 -0.000721961543
v -0.00244413681 -0.00733680593 0.00680015807
v -0.00539419155 -0.000559609453 -0.0114494702
v -0.0110433862 0.00205917427 -0.00559817177
v -0.012136652 0.000874924201 -0.00320314468
v -0.01237819 -0.0032537616 0.00166172773
v -0.000488788728 -0.0125433302 -0.00144947072
v -0.000547992421 -0.00523188237 -0.0113188583
v -0.00395839827 0.00927463276 0.000718774586
v 0.00334103473 0.0123659868 -0.00188216438
v -0.000922236148 0.0112981664 -0.000703535374
v -0.00102876706 0.0117367402 0.00456704328
v -0.00819858867 0.0051901478 -0.000294939317
v -0.00874221497 0.00295129838 0.0033686231
v -0.0107249402 -0.00436495824 0.00402908434
v -0.00267258731 0.00302141687 0.00988725167
v 0.00842122501 -0.0011024083 0.00937489706
v 0.00498237585 -0.00739614543 0.00422889751
v 0.00519544251 -0.00820427761 -0.000433379536
v 0.0113041266 -0.00211070937 0.00121264088
v 0.00161195458 -0.0111813986 -0.00577661324
v 0.00813603493 -0.00222798223 -0.00498138948
v 5.12995428e-05 -0.00759092083 -0.0106099094
v 0.00534103486 0.0050142659 -0.00762317905
v 0.000347079565 -0.00862455887 -0.0095292831
v -0.00889171895 -0.00838217898 0.00351593467
v -0.00047998967 -0.00790342846 -0.00958581291
v -0.00171579746 -0.0040578357 -0.0117683238
v -0.0123276597 -0.00230785422 -0.000390112728
v -0.00836046361 0.000206044177 -0.00966221582
v -0.00787358896 -0.00920018452 0.00375849226
v -0.00372040774 -0.00286484232 -0.0119667311
v -0.0089290956 0.00085546355 -0.0093544001
v -0.0115334456 0.000444310662 -0.00560173947
v -0.0126791517 -0.000632456844 -0.00154853168
v -0.0118104941 -0.00418575166 0.00168277076
v -0.00909270305 -0.00786098352 0.00410526923
v -0.00608569622 -0.0107804195 0.00372904103
v -0.00163896837 -0.0126404095 -8.04058376e-05
v -0.00164088549 -0.0117326533 0.002335534
v -0.000322939243 -0.0124923569 -0.00306595902
v 0.000563377326 -0.00988587727 -0.00794911301
v 0.0011018968 0.0125879409 0.00061292469
v 0.000158588517 0.012465418 0.00198778573
v 0.000846242948 0.00542645763 0.0113781928
v 0.00258935381 0.00284933007 0.0120220718
v 0.0118716346 -0.000863778851 0.00470873381
v 0.0117025773 0.00361144427 -0.00267078527
v 0.0127492257 0.00178909275 0.000471559133
v -0.00155090462 0.0101559756 0.00742828814
v 0.00983047016 0.00719196201 -0.00395468583
v 0.010063952 -0.000775783236 0.00767320612
v -0.000451371306 0.0107165035 0.00679612515
v -0.000277569966 0.0120150742 0.00406281576
v 0.000981338791 0.0125354457 0.00216440424
v 0.00202526276 0.00482814258 0.0116090239
v -0.000441724226 0.00948038799 0.00835770586
v 0.00659925437 0.0103956069 -0.00316783257
f 54 45 10
f 54 64 53
f 53 64 1
f 14 22 43
f 37 14 43
f 46 10 45
f 36 40 32
f 40 11 32
f 47 46 49
f 49 46 34
f 34 37 49
f 49 37 35
f 31 40 36
f 35 40 31
f 25 10 48
f 48 26 25
f 48 46 47
f 10 46 48
f 29 30 28
f 28 5 57
f 30 5 28
f 43 22 13
f 2 63 57
f 57 5 2
f 63 2 66
f 8 1 58
f 58 22 8
f 3 64 54
f 25 60 3
f 3 60 57
f 1 64 3
f 57 63 3
f 24 1 8
f 24 53 1
f 24 45 54
f 54 53 24
f 44 37 34
f 14 37 44
f 44 34 45
f 45 14 44
f 42 40 35
f 35 37 42
f 42 37 43
f 43 13 42
f 45 34 39
f 39 46 45
f 34 46 39
f 29 28 27
f 50 49 35
f 29 49 50
f 16 32 30
f 30 31 16
f 36 32 16
f 16 31 36
f 21 13 22
f 22 58 21
f 51 63 9
f 9 19 51
f 30 32 56
f 56 5 30
f 56 2 5
f 9 63 18
f 63 66 18
f 18 11 41
f 18 32 11
f 18 19 9
f 41 19 18
f 4 32 18
f 18 66 4
f 4 66 59
f 59 66 2
f 59 32 4
f 59 56 32
f 2 56 59
f 1 3 61
f 61 3 63
f 17 21 20
f 20 21 58
f 58 61 20
f 26 27 55
f 55 27 28
f 55 28 57
f 57 60 55
f 54 10 7
f 7 3 54
f 7 10 25
f 25 3 7
f 23 24 8
f 8 22 23
f 22 14 23
f 23 14 45
f 45 24 23
f 38 42 41
f 40 42 38
f 41 11 38
f 38 11 40
f 12 42 13
f 17 19 12
f 12 19 41
f 41 42 12
f 12 21 17
f 13 21 12
f 15 27 26
f 47 49 15
f 15 49 29
f 29 27 15
f 15 48 47
f 26 48 15
f 35 31 33
f 33 50 35
f 29 50 33
f 33 30 29
f 33 31 30
f 65 58 1
f 1 61 65
f 65 61 58
f 52 19 17
f 17 20 52
f 52 51 19
f 63 51 52
f 62 61 63
f 62 20 61
f 63 52 62
f 62 52 20
f 26 55 6
f 6 55 60
f 25 26 6
f 6 60 25
