v 0.00027529795 0.0129525315 0.00183490571
v 0.0119128234 0.00147494513 -0.0040997953
v 0.0118790475 0.000641340015 0.00426018571
v 0.00743778481 0.00499307235 0.00886463708
v 0.00468279034 0.00482755975 0.00939132526
v 0.00373642684 0.00783231795 0.00871951717
v 0.00077351169 0.011262903 0.00538918846
v -0.000239472247 0.0128120383 -0.0014387871
v 0.00199256256 0.0100207384 -0.00703933946
v -0.0118991683 -0.00135896594 -0.00474970803
v -0.01266679 4.28539335e-05 -0.000773417833
v -0.0104116523 -0.00161010138 0.00657977228
v -0.00664283116 -0.00552649465 0.00937586741
v 0.0101793733 3.56724241e-05 -0.00643457601
v -0.00187084106 -0.0112812873 -0.00592408087
v 0.000236999107 0.00588236366 -0.00872602079
v -0.00678699464 -0.00590092114 -0.00915482305
v -0.00833963025 -0.00201733249 -0.00814999733
v -0.0105058951 -0.00211533431 -0.00689434318
v -0.00771034701 0.00526603201 -0.00321070138
v -0.00832105585 0.00502907254 0.000883900309
v -0.00733420903 0.00289484447 0.00618597621
v 0.000520679916 -0.0038440589 0.00927161927
v 0.00914357042 0.000639774399 0.00714961698
v 0.0126514673 -0.00108889904 0.00121419096
v 0.00213157202 -0.00966928111 0.00517215987
v 0.000766379752 -0.0122101749 -0.00158015285
v 0.00426537949 -0.00854344449 -0.00283926455
v 0.00222285017 -0.000478705331 -0.0092956242
v -0.00394679521 -0.00831646512 -0.00868726709
v -0.00167704569 -0.0117390127 -0.00410498741
v -0.00807447552 -0.0053506145 -0.008190763
v -0.00233035425 -0.0101316388 -0.00706994569
v -0.0037798144 -0.0096138324 0.00714512497
v -0.0124145244 -0.000445650954 0.00353278164
v -0.00339736392 -0.00993788505 -0.00763421867
v -0.0124387322 -0.000974775474 0.00181198736
v -0.0100335146 -0.00282943145 0.00743720342
v -0.00914063468 -0.00420925577 0.00803343587
v -0.00673180408 -0.00663055729 0.00859448248
v -0.00356619062 -0.0094956611 0.0077696608
v -0.00137920761 -0.0119505326 0.00476403995
v -0.000622366029 -0.0123924419 0.00300495389
v -0.000806381264 -0.0124472824 -0.00286234815
v -0.000110859557 -0.0126975541 -0.000384468203
v 0.00479574556 0.00762828205 -0.00878960957
v 0.00145622506 0.0111323503 -0.0059645503
v 0.0021890863 0.00997251725 0.00751613223
v 0.0106939801 0.00256294828 -0.00652449137
v 0.00763157561 0.00426677295 -0.0090855398
v 0.0110689196 0.00230900672 0.00587766139
v 0.0128867485 0.000320325807 -0.00106614865
v 0.00257741094 0.0102697319 0.00710239782
v 0.00405192893 0.00925408582 -0.00787616697
v 0.00559971758 0.00737883732 -0.0086688728
v 0.00589711889 0.00717953785 -0.00862793297
v 0.00936035501 0.0038212566 -0.00766238625
v 0.0120438135 0.00128946162 0.00395433383
v 0.00969697483 0.0033643416 0.00778208272
v 0.00262518152 0.0106466208 0.00629933506
v 0.00127672478 0.012129418 0.00343146895
v 0.00843078523 0.00496318747 -0.00805221618
v 0.00591110277 0.00749330906 0.00853518116
v 0.00104566546 0.0122261902 -0.00370566668
v 0.00605644067 0.00731087931 -0.00834235003
f 5 13 23
f 59 23 24
f 17 19 18
f 13 40 41
f 41 23 13
f 5 23 4
f 23 59 4
f 4 63 5
f 4 59 63
f 28 15 14
f 28 14 52
f 52 25 28
f 52 14 2
f 14 49 2
f 11 20 10
f 10 20 19
f 64 1 61
f 54 64 61
f 39 40 13
f 24 23 26
f 23 41 26
f 26 3 24
f 25 3 26
f 51 59 24
f 24 3 51
f 63 59 51
f 51 2 63
f 15 28 27
f 27 28 25
f 27 26 45
f 25 26 27
f 14 15 33
f 33 30 14
f 50 49 14
f 14 30 50
f 42 26 41
f 61 1 7
f 11 35 21
f 35 1 21
f 21 20 11
f 32 19 17
f 32 10 19
f 1 64 8
f 8 21 1
f 20 21 8
f 19 20 47
f 64 54 47
f 20 8 47
f 47 8 64
f 58 51 3
f 58 25 52
f 58 3 25
f 52 2 58
f 2 51 58
f 36 33 15
f 30 33 36
f 17 30 36
f 36 32 17
f 15 31 36
f 31 32 36
f 62 2 49
f 62 61 63
f 63 2 62
f 29 30 17
f 29 50 30
f 31 42 34
f 34 41 40
f 34 42 41
f 44 42 31
f 44 31 15
f 44 27 45
f 15 27 44
f 45 26 43
f 26 42 43
f 43 44 45
f 42 44 43
f 10 32 37
f 37 39 35
f 37 35 11
f 11 10 37
f 40 39 37
f 37 34 40
f 37 32 31
f 31 34 37
f 9 47 54
f 6 13 5
f 5 63 6
f 63 48 6
f 38 39 13
f 13 6 38
f 38 6 48
f 35 39 38
f 63 61 60
f 61 7 60
f 49 50 57
f 57 62 49
f 50 62 57
f 56 62 50
f 22 48 7
f 22 38 48
f 22 1 35
f 22 7 1
f 7 48 53
f 53 60 7
f 53 48 63
f 63 60 53
f 62 56 65
f 65 54 61
f 61 62 65
f 16 29 17
f 17 18 16
f 16 9 54
f 16 18 19
f 19 47 16
f 47 9 16
f 35 38 12
f 12 22 35
f 38 22 12
f 50 29 46
f 29 16 46
f 46 16 54
f 55 56 50
f 50 46 55
f 55 46 54
f 54 65 55
f 55 65 56
