v -0.00484838123 -0.0107962967 -0.00509865965
v -0.0110918736 5.06174822e-05 -0.00669217441
v -0.00619216086 0.00474870924 -0.0100487817
v 0.00500385955 -0.00616168662 -0.0100705919
v -0.00215063366 0.00575174372 -0.0109463481
v -0.003282389 0.00598292475 -0.0105379391
v -0.0110750745 0.000470626926 -0.00501371207
v 0.0016470136 -0.0102724762 -0.00389998948
v 0.0044722017 -0.00836425121 -0.00851411389
v 0.00514268587 -0.0015766448 -0.0116436841
v -0.0040666644 -0.00133431359 0.0122423861
v 0.0100027947 -0.00238400817 0.00776799495
v 0.0110669677 0.00361104276 0.00464944128
v 0.0114134067 0.000274493326 0.00585115262
v 0.00737889276 -0.00291867836 -0.00786670142
v -0.00599672696 -0.000771227805 0.00984930085
v -0.00533412082 0.000358667828 0.0112560412
v -0.00587293302 0.00764892281 0.00241276696
v 0.00165121687 0.0113472141 0.00560658149
v 0.0100754582 0.00553568601 0.002041755
v 0.00225275479 -0.0102599612 -0.00616562948
v 0.00875501427 -0.00467149944 0.00602954715
v 0.00442626448 -0.00780750896 0.00492967503
v 0.000575220733 -0.00837406796 0.00489644945
v -0.00253010683 -0.00353841667 0.0119794953
v -0.00824297193 -0.00899937843 -0.00182819595
v -0.00872020881 0.000470632396 0.00397593897
v -0.00559542555 0.0072884942 0.00809071971
v -0.00627920766 0.0057782836 -0.00872850688
v -0.00724704086 0.00678324425 -0.00243145139
v -0.000781253554 0.00968023033 -0.00116667664
v 0.00499165949 0.010586747 0.00357429148
v 0.00357681277 0.00404064078 -0.0114718181
v 0.0034849481 -0.00557259167 0.0110484419
v 0.00791730302 -0.00453052237 0.00866967643
v -0.0046806535 0.00641401988 0.00991452037
v -0.000632170012 -0.00426150914 0.0120821262
v 0.00797940019 0.00887844834 0.00469167928
v 0.000991019302 -0.00583138728 0.0108265274
v 0.00967984433 0.00693210767 0.0045405666
v 0.0110977507 0.0029159114 0.00570682706
v 0.00650142302 -0.00489973481 0.00999890705
v 0.00649121126 -0.00525872892 0.00952456018
v -0.00401505672 -0.000304642358 0.0119895102
v -0.00580755145 0.00291686079 0.0109487019
v -0.00563531075 0.00489269207 0.0102600796
v -0.00355259827 0.00877840321 0.00869642907
v -0.00175808882 0.0104627176 0.00712108778
v 0.000993984261 0.0111576336 0.00632550696
v 0.00566199515 0.0103875988 0.00463449757
v 0.00596837197 0.0098312399 0.00513117709
v 0.00571837597 -0.00381036364 -0.0106789195
v -0.0113947527 -0.00113780745 -0.00584311734
v -0.0097025679 0.00283349653 -0.00765757762
v -0.00397681359 0.00573794506 -0.0109010114
v -0.000441884627 0.00522445719 -0.0114528945
v 0.00137569465 0.00398206235 -0.0120981912
v -0.00869622927 0.00378189336 -0.00858420036
v -0.00388095858 -0.0110027087 -0.00477228216
v -0.00683012439 -0.00979122472 -0.00450006323
v -0.00118305643 -0.0113737868 -0.00586996534
v 0.00365131823 0.00216898439 -0.0120224919
v -9.13146672e-05 -0.0109788521 -0.00671782227
v -0.0094934386 -0.00727499539 -0.00470468941
v 0.00321929668 -0.0086233613 -0.00863215949
v 0.00249849048 0.00261430438 -0.0122909448
f 53 26 27
f 28 27 46
f 9 15 14
f 4 15 9
f 64 26 53
f 29 30 31
f 32 31 19
f 14 41 12
f 12 41 42
f 28 46 36
f 45 46 27
f 45 36 46
f 2 64 53
f 3 64 2
f 18 30 28
f 58 30 29
f 54 30 58
f 29 3 58
f 3 2 58
f 58 2 54
f 20 15 10
f 10 4 66
f 63 21 61
f 9 21 63
f 63 3 66
f 63 64 3
f 1 63 61
f 64 63 1
f 11 26 25
f 26 39 25
f 29 31 55
f 55 3 29
f 66 3 55
f 20 10 33
f 5 31 56
f 31 32 56
f 32 33 56
f 56 55 5
f 20 33 38
f 38 33 32
f 42 36 44
f 44 45 11
f 36 45 44
f 16 45 27
f 16 26 11
f 16 27 26
f 7 30 54
f 54 2 7
f 28 30 7
f 7 2 53
f 53 27 7
f 7 27 28
f 52 15 4
f 4 10 52
f 52 10 15
f 4 9 65
f 9 63 65
f 66 4 65
f 65 63 66
f 26 64 60
f 60 1 26
f 64 1 60
f 24 39 26
f 61 23 24
f 39 24 34
f 34 24 23
f 61 21 8
f 8 23 61
f 21 23 8
f 22 9 14
f 14 12 22
f 22 21 9
f 22 23 21
f 6 31 5
f 5 55 6
f 6 55 31
f 62 10 66
f 66 33 62
f 62 33 10
f 57 33 66
f 57 56 33
f 66 55 57
f 55 56 57
f 20 38 40
f 40 38 41
f 50 32 19
f 50 38 32
f 19 49 50
f 48 18 28
f 30 18 48
f 48 31 30
f 19 31 48
f 48 49 19
f 11 45 17
f 17 16 11
f 45 16 17
f 26 1 59
f 59 24 26
f 59 1 61
f 61 24 59
f 42 34 43
f 43 34 23
f 23 22 43
f 37 25 39
f 39 34 37
f 11 25 37
f 37 44 11
f 42 44 37
f 37 34 42
f 20 40 13
f 13 40 41
f 13 41 14
f 14 15 13
f 13 15 20
f 38 50 51
f 51 50 49
f 41 38 51
f 42 41 51
f 51 36 42
f 28 36 47
f 47 48 28
f 49 48 47
f 36 51 47
f 47 51 49
f 35 22 12
f 35 43 22
f 35 12 42
f 42 43 35
