v -0.00387727054 0.00811640526 -0.00907898276
v 0.00221575681 0.0109319617 -0.00606667389
v -0.000313928841 0.0111346801 -0.00609708413
v -0.0040065715 -0.00171632542 -0.0119735416
v 0.00557930335 -0.00629061237 -0.00951523857
v 0.00829668984 -0.00449373904 -0.00812072202
v 0.0110252157 -0.00052442194 -0.00449976063
v 0.0111803999 0.00319885728 -0.00487225388
v 0.00580179087 -0.0043973065 0.0106203271
v 0.00860546295 -0.00488987512 -0.00112832286
v 0.00102278884 -0.0109202534 0.00653485953
v -0.000885468549 -0.010690126 0.00289539289
v -0.00378162068 -0.0111084875 0.00452440045
v -0.00874373977 -0.00841122737 0.00369979813
v -0.0114597969 -0.00144060517 0.00579878382
v -0.00991021068 0.00124696161 -0.00178705752
v -0.00746682461 0.00646807307 0.00268836394
v 0.00407029936 0.00176062253 0.0120379476
v 0.006671051 0.00648778219 0.00265781617
v 0.00992954071 0.00727295707 -0.00369329425
v 0.00730833792 -0.000829099266 0.00786922807
v 0.00518776813 -0.00814333502 0.00184411881
v 0.00373101225 -0.00879970953 -0.000486751968
v 0.000857523946 -0.00706722612 -0.0100485839
v -0.00559015465 -0.00200691102 -0.00983755801
v -0.00532541854 -0.00599435284 -0.00522359419
v -0.00539368457 0.00680524065 -0.00902434366
v -0.00813377003 0.00494019289 -0.00105854673
v -0.00431362476 0.00674297045 0.00881148516
v 0.00493068187 0.00946628264 0.000293596858
v 0.00462006437 -0.000472600831 0.01184707
v -0.000479351916 0.0045159404 0.011914248
v -0.00823888299 -0.0086020479 0.00469017249
v -0.00961019363 0.00286571392 0.0080835055
v 0.0048583627 -0.0021735887 0.01145629
v 0.00318393122 -0.00914573948 0.00842680171
v -0.00176392962 0.0060322419 0.0112974334
v -0.00855889176 0.00405576765 0.00830669635
v -0.00679110931 0.00450482544 0.00970557179
v -0.0104606813 2.68122182e-05 0.00697895781
v 0.00468351887 -0.00756311217 0.00922805737
v 0.00150837319 -0.0102715821 0.00727883767
v -0.00182696795 -0.0111225285 0.0060510261
v -0.00556994774 -0.0103181228 0.00507028023
v -0.0104068635 -0.00645823319 0.0043931289
v -0.0110411117 0.000568144432 0.00626782668
v -0.00628157227 0.00533006011 0.0096915102
v -0.00276659173 0.00552880182 0.0112010831
v 0.0101834108 -0.0023041668 -0.00740601212
v 0.00134250592 -0.00569086101 -0.011119065
v -0.00403963981 -0.000643578149 -0.0120896445
v -0.0054985987 0.00176553761 -0.0114108534
v 0.00405541167 0.0110180913 -0.00510063062
v -0.00328118843 0.00926943677 -0.00814608577
v -0.000907062556 -0.00413267929 -0.0120864801
v 0.0110775095 0.00112279406 -0.00623104787
v 0.0100490239 0.00650024914 -0.00449716388
v -0.00193314533 0.00987610655 -0.00770850216
v 0.00524864874 -0.00587336706 -0.0107912702
v 0.00765740178 0.00892285028 -0.00482590559
v -0.00546475973 0.00465353406 -0.0105874524
v 0.0101425828 -0.000877592109 -0.00735672522
v 0.0108154087 0.00411690597 -0.00544606327
f 24 13 14
f 19 30 18
f 18 30 37
f 14 33 45
f 15 16 45
f 1 59 51
f 1 2 59
f 30 19 20
f 20 21 8
f 18 21 20
f 20 19 18
f 53 2 3
f 44 33 14
f 14 13 44
f 44 13 43
f 43 35 44
f 26 24 14
f 51 59 55
f 24 26 55
f 36 35 43
f 41 35 36
f 9 35 41
f 15 45 40
f 40 45 33
f 33 44 40
f 40 44 35
f 59 2 63
f 63 20 8
f 5 24 59
f 13 24 12
f 43 13 12
f 12 11 43
f 24 5 12
f 27 16 28
f 28 17 27
f 18 37 32
f 32 40 35
f 61 1 51
f 27 1 61
f 61 16 27
f 3 2 58
f 2 1 58
f 29 37 30
f 30 53 29
f 29 53 3
f 47 37 29
f 3 17 29
f 29 17 47
f 30 20 60
f 60 53 30
f 2 53 60
f 60 63 2
f 14 45 25
f 25 26 14
f 25 45 16
f 59 24 50
f 50 55 59
f 24 55 50
f 43 11 42
f 42 36 43
f 11 36 42
f 8 21 7
f 21 9 7
f 47 17 38
f 62 49 59
f 59 63 62
f 59 49 6
f 6 5 59
f 11 12 23
f 23 12 5
f 17 28 46
f 46 16 15
f 46 28 16
f 18 32 31
f 31 32 35
f 35 9 31
f 31 21 18
f 31 9 21
f 48 37 47
f 48 32 37
f 54 58 1
f 27 17 54
f 54 1 27
f 54 17 3
f 3 58 54
f 20 63 57
f 57 60 20
f 63 60 57
f 4 55 26
f 26 25 4
f 51 55 4
f 16 61 52
f 52 25 16
f 52 61 51
f 51 4 52
f 52 4 25
f 56 63 8
f 56 62 63
f 49 62 56
f 8 7 56
f 56 7 49
f 10 6 49
f 49 7 10
f 10 9 41
f 10 7 9
f 5 6 22
f 22 23 5
f 6 10 22
f 11 23 22
f 22 36 11
f 41 36 22
f 22 10 41
f 39 48 47
f 40 32 39
f 32 48 39
f 40 39 34
f 47 38 34
f 34 39 47
f 15 40 34
f 34 46 15
f 34 38 17
f 17 46 34
