v 0.00542541301 0.00652926206 0.00947658747
v 0.00100852812 0.00845677987 0.00942882276
v -0.0021878674 -0.00851057454 0.0093304452
v -0.00743530144 -0.00385645107 0.00950036477
v -0.00358845725 0.0081306882 0.00934633725
v 0.00930373572 0.000566934424 0.00884098796
v 0.00899392494 -0.0039029448 0.00356840284
v -0.00612200569 -0.00677951004 0.00903913266
v -0.00767105029 -0.00452352592 0.00909535278
v -0.00920430899 0.00202872538 0.00548649631
v -0.0072224697 0.00580653375 0.00895907129
v -0.00921668803 0.00149888885 -0.00858305188
v -0.00709304076 -0.00637518939 -0.00552739525
v -0.00259423073 -0.00886510579 -0.0083716989
v 0.00171789472 -0.00907367537 -0.00839547831
v 0.00555826189 -0.00744595322 -0.00854317977
v 0.0044327123 0.0083099691 -0.00847079962
v 0.00389999946 0.00784393741 -0.00937993124
v 0.000649474271 0.00907625821 -0.00847976542
v 0.00434303728 -0.00824863936 0.00811989647
v -0.00891445238 -0.0027355829 -0.00649715326
v -0.00919032493 -0.000961884796 0.00918277827
v -0.00882561719 -0.00317342926 0.0060774673
v -0.00782909704 -0.00536307424 0.00123332936
v -0.00606253457 -0.00730088085 0.00123332936
v -0.00229397059 -0.00934903685 0.00798242096
v 0.00606259989 -0.00730088085 -0.00123334926
v 0.00739756483 0.00583898926 -0.0062436362
v 0.00635928802 0.00702894493 0.00862102873
v 0.00565518005 0.00762429864 -0.00196646006
v -0.0023388206 0.00927227514 -0.00397687924
v -0.00430248049 0.00827505396 0.00907195482
v -0.00788415396 0.00283144582 -0.00946952805
v -0.00291226885 0.00747059551 -0.00950004319
v -0.0083469962 -0.000513558884 -0.0094872041
v -0.00874231237 -0.00255092753 -0.00910736987
v -0.00044396938 -0.00882229494 -0.00942247584
v -0.00599867898 0.0070242199 -0.00810675319
v 0.00920597081 0.000461054133 -0.0085976915
v 0.00863070398 0.000584037057 -0.00949744058
v -0.00647121619 -0.00545041517 -0.00945390401
v -0.00745678343 0.00504456898 -0.00918964838
v -0.00465205934 0.00720161576 -0.00941703159
v 0.000864180912 0.00875958181 -0.00937089572
v -0.0054750079 -0.006942563 -0.00932623698
v 0.00419692424 -0.00786966234 -0.00914211217
v 0.00642709042 -0.00572776975 -0.00941246236
v 0.00887244518 -0.000442257011 -0.00923810121
v 0.00825920444 -0.00382263241 -0.00866880644
v 0.0083357004 0.00347701492 -0.00923340579
v -0.00262748056 0.00854651304 -0.00911345021
v 0.00877414028 -8.84283671e-05 0.00938379636
v 0.00851362452 -0.00186994993 0.00934558959
v 0.00535117045 -0.00682352581 0.00942220679
v -0.00437296424 0.00724389375 0.00945429083
v 0.00148852569 0.00903635546 0.00903486963
v 0.0067940544 0.00590718605 0.00902796239
v 0.00832047035 0.00215346218 0.00932461326
v 0.00728674597 -0.00494998855 0.00932193373
v 0.00292466063 -0.00840619844 0.00910205861
v 0.00708297222 0.00442465474 0.00947328002
v 7.09789892e-05 -0.00844533969 0.00944993203
v -0.00729687991 0.00443400614 0.00947028533
f 22 10 12
f 3 62 4
f 4 8 3
f 26 62 3
f 3 8 26
f 26 8 25
f 25 14 26
f 25 8 24
f 12 35 36
f 29 56 1
f 60 62 26
f 26 20 60
f 16 20 15
f 26 14 15
f 15 20 26
f 27 20 16
f 33 35 12
f 28 29 6
f 10 22 11
f 32 38 11
f 41 36 35
f 21 22 12
f 12 36 21
f 19 56 17
f 4 62 61
f 61 1 4
f 32 11 55
f 54 20 59
f 54 60 20
f 62 60 54
f 54 61 62
f 53 54 59
f 59 20 7
f 20 27 7
f 7 53 59
f 7 27 16
f 16 49 7
f 6 53 7
f 7 39 6
f 7 49 39
f 43 38 51
f 17 28 50
f 6 39 50
f 50 28 6
f 30 28 17
f 29 28 30
f 17 56 30
f 30 56 29
f 42 11 38
f 42 33 12
f 12 10 42
f 10 11 42
f 38 43 42
f 42 43 33
f 23 21 24
f 22 21 23
f 14 25 13
f 13 25 24
f 24 21 13
f 13 21 36
f 37 15 14
f 44 19 17
f 51 19 44
f 32 56 31
f 56 19 31
f 31 19 51
f 31 38 32
f 51 38 31
f 29 1 57
f 1 61 57
f 6 29 57
f 4 1 63
f 1 55 63
f 63 22 4
f 63 11 22
f 63 55 11
f 2 1 56
f 2 55 1
f 6 57 58
f 58 57 61
f 61 54 52
f 54 53 52
f 52 58 61
f 52 53 6
f 6 58 52
f 22 23 9
f 4 22 9
f 9 8 4
f 24 8 9
f 9 23 24
f 14 13 45
f 45 37 14
f 41 37 45
f 36 41 45
f 45 13 36
f 16 15 46
f 15 37 46
f 34 43 51
f 51 44 34
f 33 43 34
f 35 33 34
f 32 55 5
f 55 2 5
f 5 56 32
f 5 2 56
f 47 49 16
f 16 46 47
f 47 46 37
f 40 50 39
f 35 34 40
f 40 47 37
f 40 41 35
f 40 37 41
f 50 40 18
f 17 50 18
f 18 44 17
f 18 34 44
f 18 40 34
f 39 49 48
f 48 40 39
f 49 47 48
f 47 40 48
