v -0.00200800569 0.00118854264 0.0126149068
v 0.00803271603 0.000211237327 0.00882965515
v 0.00860594767 0.00942612487 0.00186343128
v -0.00168453524 -0.00146980217 0.0119081283
v -0.00256658216 0.000882516839 0.0123865949
v 0.0047727877 0.0112229538 0.00130229816
v 0.0117364931 0.00444277722 0.00294451683
v -0.000118010391 0.00212191354 -0.0124856997
v -0.00862844436 -0.00929630916 -0.00169338078
v -0.000135883006 -0.0109579091 -0.000651388846
v 0.00163160038 -0.0109568478 -0.00641316538
v 0.00415420961 -0.00927584776 -0.00256436767
v 0.00334721796 -0.00960024328 -0.00764599634
v 0.005228414 -0.00707650237 -0.00868830236
v -0.0101328638 0.00250162179 -0.00740827683
v -0.00983595673 0.00301479648 -0.00259643014
v -0.0117738408 -0.00313702599 -0.0026105706
v -0.00451287632 -0.0072579945 0.00451324387
v 0.00564035152 0.0075768217 -0.00344199963
v 0.00511338921 -0.00557215389 0.00873138347
v 0.00869402821 -0.00386520607 0.00829617569
v 0.00925716475 -0.00389911922 0.003590164
v 0.011621599 -0.00056943529 0.00489480189
v 0.00905600194 0.00227024496 -0.0031766993
v 0.00264118727 -0.000592749615 -0.012416371
v -0.00369574865 0.0087361395 -0.00126472195
v -0.0026156782 0.0101952841 0.0068787158
v -0.0039812099 0.000761860915 0.0111078186
v -0.0117523125 -0.00123957133 -0.00134352311
v -0.00923574274 -0.00750239354 0.000173604325
v 0.00316918597 -0.00467882162 -0.0112914799
v -0.012036647 -0.0021525467 -0.00395392918
v -0.0115021548 0.00028627893 -0.00551170381
v -0.00946099294 0.00251615326 -0.00821351925
v 0.000218591032 -0.011618379 -0.00575733065
v -0.0101162718 -0.00743037133 -0.00227506489
v -0.000134597394 0.00121297381 -0.0126715948
v -0.00558561744 -0.0113612411 -0.00202524393
v -0.00449316453 -0.0115438458 -0.00229790462
v -0.00138909843 -0.0120257533 -0.00374107821
v 0.00332114855 -0.00822024945 -0.00906422814
v 0.00380027968 -0.00432597667 -0.0115703564
v -0.00210243883 0.00297912253 -0.0121939929
v -0.00371536991 0.00303894075 -0.0117511343
v -0.00136064121 0.00381633194 -0.0116404391
v -0.00672662871 0.00341313532 -0.0101729451
v -0.00517886842 0.00454054665 -0.0103602363
v -0.00796870388 0.00388928863 -0.00944399531
v -0.0115783556 -0.00122669251 -0.00485150712
v -0.0115737427 -0.00494635113 -0.00228118987
v 0.00636046006 -0.00420945364 0.0100331155
v 0.00356335115 0.0117474908 0.00332035094
v 0.00504510329 0.0115017121 0.00253570572
v 0.00956130275 0.00814118855 0.000801739173
v 0.00548826451 -0.00366627763 0.0109465422
v 0.00146461447 -0.00364369412 0.0119935965
v -0.00407611663 0.00437056937 0.0111586664
v -0.00394380229 0.00950772154 0.0073840384
v -0.00091856863 0.011733382 0.00479534088
v 0.0120901322 0.00245646346 0.00251899092
v 4.92320539e-06 -0.00148369354 0.0126304716
v -0.00371992034 0.00825234448 0.00942887809
v 0.00146161468 0.0121340625 0.00373837932
v 0.0120011293 0.00274207586 0.00359457407
v 0.00237598885 -0.00297142751 0.0122372999
v 0.0107297244 -0.00138480514 0.00671441389
f 32 49 36
f 57 29 28
f 60 7 64
f 62 29 57
f 58 29 62
f 60 14 24
f 23 14 60
f 60 64 23
f 30 36 9
f 36 38 9
f 9 18 30
f 38 18 9
f 50 36 30
f 30 28 50
f 50 28 29
f 32 36 50
f 57 28 5
f 2 64 7
f 59 58 27
f 27 62 59
f 58 62 27
f 54 7 60
f 60 24 54
f 25 54 24
f 22 23 21
f 21 12 22
f 14 23 22
f 4 28 30
f 30 18 4
f 4 5 28
f 61 5 4
f 61 4 56
f 56 4 18
f 56 18 38
f 17 29 32
f 32 50 17
f 17 50 29
f 1 2 62
f 1 5 61
f 1 62 57
f 57 5 1
f 66 23 64
f 64 2 66
f 21 23 66
f 62 2 52
f 6 47 63
f 59 62 63
f 62 52 63
f 63 53 6
f 63 52 53
f 26 47 48
f 48 15 26
f 59 63 26
f 26 63 47
f 26 58 59
f 26 15 58
f 45 47 6
f 16 29 58
f 58 15 16
f 7 54 3
f 3 2 7
f 6 53 3
f 3 52 2
f 53 52 3
f 35 38 36
f 31 41 35
f 35 41 11
f 40 38 35
f 35 11 12
f 14 41 42
f 42 41 31
f 42 24 14
f 42 25 24
f 8 25 37
f 37 42 31
f 25 42 37
f 43 45 8
f 47 45 43
f 8 37 43
f 48 47 44
f 44 46 48
f 47 43 44
f 44 43 37
f 44 37 31
f 44 35 36
f 31 35 44
f 34 15 48
f 48 46 34
f 46 44 34
f 34 36 49
f 34 44 36
f 61 56 65
f 65 1 61
f 2 1 65
f 10 56 38
f 10 12 21
f 40 35 10
f 10 35 12
f 19 45 6
f 6 3 19
f 19 3 54
f 8 45 19
f 19 25 8
f 54 25 19
f 29 16 33
f 33 16 15
f 32 29 33
f 33 49 32
f 33 34 49
f 15 34 33
f 13 41 14
f 11 41 13
f 12 11 13
f 14 22 13
f 13 22 12
f 55 65 56
f 2 65 55
f 55 51 21
f 21 66 55
f 55 66 2
f 39 38 40
f 40 10 39
f 39 10 38
f 56 10 20
f 20 55 56
f 51 55 20
f 21 51 20
f 20 10 21
