v 0.0110639707 -0.00242491676 0.00589593848
v -0.00176865179 -0.0106732582 0.00726008642
v 0.00654080812 -0.0100542387 0.00473165282
v -0.00484752563 -0.00680137462 0.00985699502
v 0.000539685048 0.00573824944 0.0113685379
v 0.00296118661 0.00562469576 0.0111466904
v 0.00721726418 0.00529987647 0.00862045395
v 0.0110402574 0.00046924515 0.00665550567
v 0.00975058228 -0.0070303644 0.00428059729
v 0.00047783006 -0.0113092926 0.00529532555
v -0.00598554642 -0.00447823196 0.010319957
v -0.0058683137 -0.00253730692 0.010696035
v 0.00335795226 -0.0032076104 -0.0114197167
v -0.00994699362 0.00665978137 -0.00399729142
v -0.0113311142 0.00264939011 -0.00502791416
v -0.00194162054 -0.00593306459 -0.0106062788
v 0.00546288635 0.00267788903 -0.0112199311
v 0.00518575743 0.00699390037 -0.00934062715
v 0.00124630004 0.0107853225 -0.00668958123
v 0.00586711404 -0.00235943947 -0.00928271226
v -0.00804974211 0.00896484626 -0.00364370459
v -0.0075075065 0.000462292558 0.00729819682
v -0.00987541757 -0.00217362709 -0.00183203674
v -0.00822012976 -0.00454815021 0.00182958496
v -0.00772121086 -0.00522175353 -0.00866224344
v -0.00316712845 -0.00598114365 -0.0106056469
v 0.00343354371 -0.0111548146 0.00489622494
v 0.0023219468 -0.0101596685 -0.000305833356
v 0.0071674666 -0.00869015474 0.00187762559
v 0.00648326284 0.00202584411 -0.0105792121
v 0.00816406688 0.00487418443 -0.0019234899
v 0.00339211186 0.00945390197 -0.0069248407
v 0.00445756569 0.00859500214 0.00121648811
v 0.00195084847 0.00711383076 0.00911704452
v -0.00343488032 0.00608082853 0.00734344955
v -0.00595957834 0.0104181167 -0.0044393704
v -0.00172103601 0.0040435252 0.0118597174
v -0.0107221666 0.000892829539 -0.00657253016
v -0.0110343035 -0.000684749747 -0.00670712036
v -0.0049169632 -0.00503242682 -0.0105653928
v 0.00177281383 0.00978572693 -0.00777498385
v 0.00337158574 -0.0018253388 -0.0122796724
v -0.0014159015 -0.00495205115 -0.0116294885
v 0.0026140258 -0.00304513371 -0.0121851792
v -0.00899297797 0.00783737461 -0.00476683065
v -0.0109853648 0.00324780095 -0.00551678267
v -0.00781818508 -0.00432022241 -0.00915984908
v 0.00090174374 -0.00503479824 -0.0114515215
v 0.00581658195 0.00411388627 -0.0104059413
v 0.00418898063 0.00773857097 -0.00932400386
v -0.00225163089 0.0112736727 -0.00581563646
v -0.00570395354 0.0101864992 -0.00495270746
v -0.00482931858 0.00129939798 0.0116957565
v -0.0051841701 -0.00725774258 0.00911200322
v 0.0112636864 -0.00341709145 0.00502430239
v 0.00988501455 0.00301765482 0.00709895709
v 0.00660753607 0.0052500456 0.00942414621
v 0.00844522163 0.00378971332 0.0088875951
v 0.0103528288 0.0016442208 0.00709585142
v -0.00302158197 -0.00947949859 0.00811548416
v 0.00961601289 -0.00660684703 0.00496470762
v 0.00384364072 -0.0108479809 0.00536848258
v 0.00792320476 -0.00845332883 0.00495696796
v -0.00448352285 -0.000790513164 0.0117730182
v -0.000726184073 0.00411629846 0.0121933051
f 2 4 60
f 60 25 2
f 25 60 24
f 62 4 2
f 36 45 21
f 7 56 33
f 6 5 65
f 65 5 37
f 37 53 65
f 11 4 64
f 64 4 65
f 65 53 64
f 14 46 15
f 14 45 46
f 15 22 14
f 21 45 14
f 14 53 21
f 14 22 53
f 41 45 51
f 41 50 45
f 17 50 18
f 50 17 42
f 42 17 30
f 54 4 11
f 11 24 54
f 54 60 4
f 54 24 60
f 25 24 39
f 39 47 25
f 15 46 39
f 61 9 55
f 29 9 3
f 2 25 10
f 51 36 34
f 34 36 5
f 34 33 51
f 5 6 34
f 7 33 34
f 51 45 52
f 52 36 51
f 45 36 52
f 31 33 56
f 31 30 18
f 58 56 7
f 58 6 65
f 21 53 35
f 53 37 35
f 35 37 5
f 35 36 21
f 5 36 35
f 12 22 11
f 53 22 12
f 11 64 12
f 12 64 53
f 32 31 18
f 33 31 32
f 18 50 32
f 18 30 49
f 49 17 18
f 30 17 49
f 20 42 30
f 20 30 55
f 55 9 20
f 9 29 20
f 15 39 23
f 23 39 24
f 23 24 11
f 23 22 15
f 11 22 23
f 38 39 46
f 47 39 38
f 46 45 38
f 45 50 38
f 3 9 63
f 9 61 63
f 63 62 3
f 4 62 63
f 65 4 63
f 28 29 3
f 27 62 2
f 2 10 27
f 10 28 27
f 3 62 27
f 27 28 3
f 57 58 7
f 6 58 57
f 7 34 57
f 57 34 6
f 8 31 56
f 55 30 8
f 30 31 8
f 50 41 19
f 19 32 50
f 19 41 51
f 51 33 19
f 33 32 19
f 44 42 13
f 42 20 13
f 13 20 29
f 26 10 25
f 26 28 10
f 56 58 59
f 59 8 56
f 58 8 59
f 1 61 55
f 55 8 1
f 1 8 58
f 1 63 61
f 1 58 65
f 65 63 1
f 29 28 48
f 48 13 29
f 44 13 48
f 25 47 40
f 40 26 25
f 47 38 40
f 50 42 40
f 40 38 50
f 28 26 16
f 16 48 28
f 26 48 16
f 43 48 26
f 26 40 43
f 44 48 43
f 43 42 44
f 43 40 42
