v 0.00592329201 -0.00539241155 -0.00950003666
v -0.00624094377 0.00639818331 -0.00943046024
v -0.00923667255 -0.000426987013 -0.00616014999
v -0.00818079543 -0.00415011923 -0.00841599454
v -0.00558162888 -0.00701549898 -0.00934654664
v 0.0044136327 -0.00822795652 -0.00854388668
v 0.00616889484 0.00663714558 -0.00944825216
v 0.0008030311 0.00916301124 -0.00828211986
v 0.00898695899 -0.000716254065 0.00874975381
v 0.00854946999 -0.00267789807 0.00894542835
v 0.00273561218 -0.00919355641 0.00377821084
v -0.000795919622 -0.00896393652 0.00901660725
v -0.00295835532 -0.00937521617 0.00087699779
v -0.00865310534 0.0030041635 0.00885041082
v -0.00525374309 0.00748132801 0.00885461657
v -0.00239322518 0.00920199547 0.00360573041
v -0.00568457427 0.00752411096 -0.00728942706
v 0.000498661617 0.0090949525 0.00807678696
v 0.00355522521 0.0083639679 0.00937181247
v 0.00484746841 0.00789831671 0.00783523198
v 0.00341296234 0.00862961898 -0.00836020468
v 0.00749439614 0.00606849776 0.00798489643
v 0.00861679556 0.00356113788 -0.00807185426
v 0.00886025508 0.00309220402 0.00879451619
v 0.00958050185 -0.000800390681 -0.00166366565
v 0.00910828197 -0.00276008183 -0.00824438176
v 0.0079740551 -0.00511058014 0.00816251094
v 0.00668769871 -0.00673855256 0.00259930096
v 0.000869820842 -0.00938105357 -0.0037059344
v -0.00837282126 -0.00475096383 0.00670028252
v -0.00816207826 -0.00506940128 7.21107458e-05
v -0.00947974029 -0.000438311895 -0.00123334927
v -0.00946921585 0.00149144232 -0.000105996378
v -0.00782916847 0.00536300818 0.00123332935
v -0.00397927422 -0.00815602904 0.00922175972
v -0.0054174159 0.00652211862 0.00948204762
v -0.00680543837 -0.00544811781 0.00938931475
v 0.00822470939 0.00317346558 0.00922473358
v -0.00169274646 0.00872384419 0.00932503897
v 0.00129803727 0.00827916123 0.00947361881
v 0.00881206395 -0.000304001494 0.00941827048
v 0.00720708472 -0.00500047955 0.00938846729
v 0.00653352437 -0.00594780763 0.00906490284
v 0.00363624174 -0.00813852736 0.00926273465
v 0.000504523974 -0.0087083347 0.00934156394
v -0.00813626419 -0.00213994622 0.00946767927
v -0.00888773911 -0.00088753462 0.00921046767
v -0.00779518081 0.00361835848 0.009429314
v -0.00719958805 0.00595172986 0.00813349468
v 0.00364774498 0.00793763121 -0.00939810208
v 0.00829512569 0.00328968493 -0.00900030451
v -0.00368936909 -0.00819974926 -0.00874258351
v -0.00762826134 0.00506358435 -0.00868734548
v -0.00893380775 -0.00185701156 -0.00891791118
v -0.000297419146 -0.00885811676 -0.00930884291
v -0.000726860367 0.00882695996 -0.00904734618
v -0.00768686631 -0.00395987895 -0.00947435599
v 0.00394574649 -0.00776660717 -0.0092583111
v 0.00904425791 -0.000678242843 -0.00903100311
v -0.00327455578 0.00873132163 -0.00887606984
v -0.00883122408 0.00152115057 -0.00917228986
v 0.00607031583 -0.00613378797 -0.00942322527
v 0.00794311792 -0.00321762896 -0.00943820514
v 0.00108455385 0.00850384227 -0.00946727769
v -0.000957446139 -0.0082805146 -0.00947053498
f 15 49 36
f 17 15 16
f 49 15 17
f 22 7 21
f 60 17 16
f 36 49 48
f 48 46 36
f 23 7 22
f 50 7 64
f 64 21 50
f 50 21 7
f 12 11 45
f 13 11 12
f 29 11 13
f 31 13 30
f 39 15 36
f 16 15 39
f 22 19 38
f 38 19 41
f 22 21 20
f 20 19 22
f 21 19 20
f 64 60 56
f 49 17 34
f 14 48 49
f 49 34 14
f 14 34 33
f 64 7 1
f 5 13 31
f 12 45 35
f 35 13 12
f 35 30 13
f 42 41 46
f 46 45 42
f 40 39 36
f 19 39 40
f 41 19 40
f 36 46 40
f 46 41 40
f 16 39 18
f 18 39 19
f 18 19 21
f 24 38 41
f 25 23 24
f 24 23 22
f 22 38 24
f 8 21 64
f 64 56 8
f 16 18 8
f 8 18 21
f 8 60 16
f 8 56 60
f 46 48 47
f 48 14 47
f 32 30 47
f 47 33 32
f 47 14 33
f 59 23 25
f 6 11 29
f 28 11 6
f 13 5 52
f 37 45 46
f 37 35 45
f 30 35 37
f 46 47 37
f 37 47 30
f 7 23 51
f 51 59 7
f 23 59 51
f 63 1 7
f 7 59 63
f 17 60 2
f 2 60 64
f 32 33 3
f 33 61 3
f 25 24 9
f 9 24 41
f 41 42 10
f 42 27 10
f 10 9 41
f 10 27 25
f 25 9 10
f 44 42 45
f 44 45 11
f 44 11 28
f 28 27 44
f 1 63 62
f 6 58 62
f 65 1 62
f 62 58 65
f 65 58 55
f 55 58 6
f 55 6 29
f 29 13 55
f 13 52 55
f 55 5 65
f 55 52 5
f 53 34 17
f 17 2 53
f 53 2 61
f 33 34 53
f 53 61 33
f 61 2 57
f 65 5 57
f 57 2 64
f 64 1 57
f 57 1 65
f 32 3 54
f 54 30 32
f 31 30 54
f 54 3 61
f 61 57 54
f 43 27 42
f 42 44 43
f 43 44 27
f 26 62 63
f 26 27 28
f 28 6 26
f 6 62 26
f 25 27 26
f 26 59 25
f 26 63 59
f 31 54 4
f 4 54 57
f 4 5 31
f 4 57 5
