v 0.0101221067 -0.00303317327 0.00735755343
v 0.00686176373 0.00536534197 0.00949337311
v 0.00792043389 -0.00647669783 0.00743205233
v -0.00611070094 0.0018294702 0.0110723613
v 0.00097482886 0.00815931003 0.00747811521
v 0.00387442216 0.00835851403 0.00621172222
v 0.00619351478 0.00655771344 0.00904072115
v 0.0096772973 0.00168626334 0.00823158686
v 0.00802732225 -0.00735757732 0.00425267213
v 0.00418104862 -0.00672833258 -0.00935725253
v -0.00848109041 0.00596872012 -0.00398648058
v -0.0110216037 0.00083197059 -0.00637211266
v -0.00718057221 -0.00622789336 -0.00477905659
v -0.001479463 -0.00791764477 -0.00974824386
v 0.00748150379 -0.000399871275 -0.00979244992
v 0.00745182033 0.00528071744 -0.00916128834
v 0.00433273856 0.00821910309 -0.00884365172
v -0.00807759919 0.0055057671 -0.000336548024
v -0.0062667625 0.00827731183 -0.00251745967
v -0.00763707649 0.00366242962 0.00607836706
v -0.00909338118 0.000737449688 0.00303354453
v -0.00767223684 -0.00531163603 -0.00853668492
v -0.00337792925 -0.00966245988 0.00575912141
v 0.00067513195 -0.0104568109 0.0068144809
v 0.0073666452 0.0059034877 -0.00331946424
v 0.00829643415 0.00465579005 0.00777218042
v -0.0017288849 0.0106536118 -0.00544775544
v -0.00401266773 0.00614845702 0.00976162774
v -0.00949278819 0.0040351862 -0.00756525053
v 0.00109675013 -0.00650553258 -0.0109669429
v -0.00141023215 0.0103813159 -0.00734321603
v -0.00985377288 0.00338017636 -0.00740754903
v -0.00940844242 0.00524467352 -0.00713019021
v -0.0101697665 0.00129136592 -0.007551265
v -0.00947490645 -0.0013974572 -0.00840032652
v -0.00687399128 -0.00489404932 -0.00939043406
v -0.00795682166 -0.00444984142 -0.00882800314
v -0.00479141777 -0.00642936419 -0.00993123677
v 0.00243514284 -0.00606787328 -0.0109112656
v 0.00635088295 -0.00301821814 -0.0107313569
v 0.00644637395 -0.00151766773 -0.0109475361
v 0.0065784838 0.00393394374 -0.0101478807
v 0.00617864333 0.00613693446 -0.00928583575
v 0.00211340938 0.00956597882 -0.00828614269
v -0.000291554805 0.009788512 -0.00812157388
v -0.00426328795 0.00960892195 -0.00706028642
v -0.0068848347 0.00817528592 -0.00711257635
v -0.00744849455 -0.00335804386 0.00935999882
v -0.00644691376 -0.00639072981 0.00885955666
v 0.00455362156 -0.0097055285 0.00692872091
v 0.00205065213 0.00736718799 0.0100755581
v 0.00103148626 0.00698437137 0.0105866257
v 0.00812888505 0.00434898939 0.00886141811
v 0.0107750986 -0.00131776177 0.004763317
v 0.00841373204 -0.00681737534 0.00681077411
v -0.00616083134 0.00285662135 0.0107727251
v 0.00999098506 -0.000507026507 0.00779008592
v 0.00363366144 -0.00955799467 0.00753969915
v -0.00405221291 -0.00829828259 0.00887572842
v -0.0057284287 -0.0063047703 0.00939142431
v -0.00131841948 0.00706988622 0.0106013372
v 0.000128434272 -0.00986218867 0.00807126641
v -0.00556670738 -0.0059752326 0.00967405035
v -0.00734659306 -0.000650839329 0.0105680679
v -0.00337613985 0.005475656 0.0111590881
f 9 40 54
f 64 49 63
f 19 47 11
f 54 40 15
f 15 16 54
f 59 49 23
f 40 9 10
f 7 51 2
f 55 9 54
f 12 49 48
f 48 49 64
f 64 63 4
f 4 63 3
f 4 2 65
f 3 2 4
f 62 63 59
f 3 63 62
f 59 23 62
f 60 49 59
f 59 63 60
f 60 63 49
f 41 15 40
f 16 15 41
f 7 26 25
f 27 44 31
f 33 11 47
f 33 32 12
f 61 28 65
f 27 19 61
f 19 28 61
f 6 51 7
f 6 44 27
f 7 25 6
f 53 26 7
f 7 2 53
f 12 32 34
f 34 35 12
f 13 23 49
f 13 49 12
f 38 23 13
f 12 48 21
f 21 48 64
f 20 28 19
f 12 21 20
f 20 21 64
f 3 62 58
f 16 41 42
f 41 30 42
f 17 25 16
f 44 6 17
f 17 6 25
f 27 31 46
f 46 19 27
f 46 47 19
f 45 31 44
f 47 46 45
f 45 46 31
f 44 17 45
f 45 17 42
f 45 42 30
f 40 10 39
f 10 30 39
f 39 41 40
f 39 30 41
f 14 30 10
f 14 23 38
f 38 30 14
f 52 61 65
f 51 61 52
f 65 2 52
f 52 2 51
f 5 61 51
f 51 6 5
f 27 61 5
f 5 6 27
f 26 53 8
f 54 16 8
f 16 25 8
f 8 25 26
f 8 2 3
f 8 53 2
f 12 35 22
f 22 13 12
f 38 13 22
f 28 20 56
f 65 28 56
f 56 4 65
f 64 4 56
f 56 20 64
f 19 11 18
f 18 20 19
f 11 33 18
f 18 33 12
f 12 20 18
f 9 55 50
f 50 10 9
f 50 55 3
f 3 58 50
f 50 14 10
f 16 42 43
f 43 17 16
f 42 17 43
f 29 45 30
f 47 45 29
f 29 33 47
f 32 33 29
f 29 34 32
f 35 34 29
f 3 55 1
f 1 8 3
f 1 55 54
f 38 22 36
f 36 30 38
f 35 29 36
f 36 29 30
f 24 58 62
f 24 50 58
f 24 62 23
f 23 14 24
f 14 50 24
f 54 8 57
f 57 1 54
f 8 1 57
f 37 22 35
f 35 36 37
f 37 36 22
