v -0.00557352825 -0.0107098441 -0.00296878491
v -0.00169055602 0.00197123885 -0.0122930591
v 0.00285197767 -0.00904950863 -0.00863890761
v -0.00819938283 -0.00924739769 0.000117638492
v 0.0043994647 -0.00537248184 -0.0105481665
v -0.0031927696 0.00514541829 -0.0102945116
v -0.00846592905 0.00440918291 -0.00811375226
v -0.0120976425 -0.00163140596 -0.00448289841
v -0.0117630029 -0.0037348939 -0.00230832025
v -0.00361723775 0.00315518861 0.0120294251
v -0.00421237033 0.0066903575 0.00962147037
v 0.00307665083 0.0118810333 0.00291176704
v 0.0106464042 0.00748378782 0.00129912794
v 0.0118586442 0.00412683346 0.0027920917
v 0.0074216402 -0.00414952922 0.00905656893
v -0.00293843783 0.000768890095 0.012006944
v -0.00739815521 0.0016195595 0.00706603452
v -0.00989423221 0.000529983136 0.00129876917
v -0.0110167205 0.00303780331 -0.00432866531
v -0.00175657599 0.0109284727 0.00643530319
v -0.000232111096 0.0113469372 0.00266678664
v 0.00540377491 0.00722930784 -0.00441758354
v 0.0118048332 0.00190443058 0.0024971133
v 0.0116862067 -0.000286742156 0.00425280776
v 0.00994698572 -0.00329567626 0.00607268642
v 0.00218510888 -0.0108490396 -0.0025894371
v 0.0115364335 0.00404637849 0.00336669161
v 0.00113995073 -0.00400783318 0.0116503428
v 0.00356476851 -0.0043346506 0.0120363046
v 0.00111682754 0.011957828 0.00405801072
v -0.0013234084 0.0109749582 0.00669026922
v 0.00223814459 -0.00271665922 0.0122484845
v -0.0028815013 0.0091964143 0.00833963875
v -0.00358458241 0.00784513097 0.00947161242
v -0.000971026577 -0.000971066073 0.0125620192
v 0.00348364121 0.0115786556 0.00139505645
v -0.00341780697 0.00405597036 0.0116033086
v 0.00373498468 0.0117215218 0.00334901
v 0.00496117601 0.0114126932 0.00236304896
v 0.00765218399 0.0100992274 0.00187787604
v 0.0103589338 0.00742116802 0.00193338405
v 0.0118836256 0.00129113036 0.00416526119
v 0.011490961 -9.32076389e-05 0.00556565844
v 0.00976277585 -0.00241815865 0.00804803108
v 0.00846353635 -0.00344049621 0.00882845773
v -0.000574155771 -0.000493278602 0.0127405362
v -0.0107791147 -0.00642262711 -0.00192053793
v 0.00216236689 0.000957724687 -0.0120995318
v 0.00409132045 -0.00852089301 -0.00829799513
v -0.00732938515 -0.0103798608 -0.00180888003
v 0.00111105529 -0.0112789919 -0.00565904303
v -0.00444780288 0.00357732056 -0.0115175059
v -0.00670193713 0.00389060813 -0.0100092002
v -0.01021527 0.00243785502 -0.00717356741
v -0.00330866109 -0.0120140348 -0.003183803
v -0.00112912969 -0.0120983292 -0.00437986487
v 0.00336435719 -0.00439150292 -0.0115135467
v -0.00907797714 0.00301674926 -0.00858531811
v -0.00953485039 -0.00820513364 -0.00202972847
v -0.00432454627 -0.0114736812 -0.00309470376
v 0.00337463533 -0.00199687481 -0.0121395686
v -0.000329809003 0.00174745819 -0.0127208554
v -0.0116263123 0.000225353941 -0.00513674567
f 61 23 5
f 46 31 37
f 59 50 4
f 50 59 1
f 1 59 8
f 16 17 4
f 46 29 32
f 4 29 28
f 4 50 55
f 55 29 4
f 21 6 7
f 62 6 22
f 8 58 2
f 52 2 58
f 52 6 62
f 62 2 52
f 54 58 8
f 8 63 54
f 7 58 54
f 15 29 26
f 29 55 26
f 34 37 31
f 11 17 10
f 10 34 11
f 37 34 10
f 17 16 10
f 46 37 10
f 13 41 14
f 42 23 14
f 14 61 13
f 23 61 14
f 17 18 9
f 9 18 8
f 35 16 4
f 4 28 35
f 46 10 35
f 35 10 16
f 35 29 46
f 35 28 29
f 5 49 3
f 3 1 8
f 8 2 3
f 30 31 38
f 38 12 30
f 13 61 48
f 48 22 13
f 48 61 62
f 62 22 48
f 13 22 40
f 40 41 13
f 40 38 41
f 36 22 6
f 6 21 36
f 36 40 22
f 36 21 30
f 30 12 36
f 7 6 53
f 6 52 53
f 53 58 7
f 53 52 58
f 15 26 25
f 25 26 49
f 33 34 31
f 27 14 41
f 41 38 27
f 27 38 31
f 47 59 4
f 4 17 47
f 17 9 47
f 8 59 47
f 47 9 8
f 49 26 51
f 51 3 49
f 57 61 5
f 5 3 57
f 62 61 57
f 57 2 62
f 57 3 2
f 1 3 56
f 3 51 56
f 56 26 55
f 56 51 26
f 38 40 39
f 40 36 39
f 12 38 39
f 39 36 12
f 44 32 29
f 46 32 44
f 44 31 46
f 44 27 31
f 24 25 49
f 24 23 42
f 24 49 5
f 5 23 24
f 20 33 31
f 20 21 7
f 20 31 30
f 30 21 20
f 34 33 19
f 19 54 63
f 19 63 8
f 8 18 19
f 11 34 19
f 33 20 19
f 19 17 11
f 19 18 17
f 7 54 19
f 19 20 7
f 1 56 60
f 60 56 55
f 50 1 60
f 60 55 50
f 15 25 45
f 25 44 45
f 45 29 15
f 45 44 29
f 43 44 25
f 25 24 43
f 43 24 42
f 27 44 43
f 42 14 43
f 14 27 43
