v -0.0100720983 0.00732839579 -0.00230237911
v -0.000161046823 -0.000925842203 -0.0125575587
v -0.00474361715 0.0114504501 -0.00299879208
v -0.00657897388 -0.00314926874 -0.0102106702
v -0.00997056803 0.00736676106 -0.00124231061
v -0.0115452298 0.00500530063 -0.00248394493
v -0.0113789846 -0.00103271558 -0.00339836831
v -0.000319593526 -0.00192174472 -0.0126055358
v 0.00211654608 -0.00249289902 -0.0110674824
v 0.00181176225 -2.05238385e-05 -0.0126063263
v 0.00388253322 0.000199486142 -0.0111136288
v -6.98129993e-05 0.00309419073 0.012208887
v 0.00808338861 -0.0095138523 0.00107430366
v 0.00590036074 0.00427220711 0.0101006917
v 0.0109814984 0.00242338754 0.00605052085
v 0.00163997596 -0.012005994 0.00362339146
v -0.00428603231 -0.00639012411 0.0102702035
v -0.00173973201 0.00190910896 0.0118094241
v -0.00898111151 0.00430751671 0.00301740646
v -0.000195673178 0.0114243041 -0.00207157636
v 0.00750659821 0.00502749709 0.00794379366
v 0.00347190859 0.00962743165 -0.00613449356
v 0.00553413349 0.00581422674 -0.0086935891
v 0.0118990598 -0.00463975831 0.00203273908
v 0.00838160028 0.000100171621 -0.00463512715
v 0.00390280167 -0.0115382562 0.0018704095
v -0.00213958686 -0.0063344454 -0.00904929327
v -0.00739563036 -0.00612657031 -0.00436328002
v -0.00933342219 -0.00317024298 -0.00798126933
v -0.00240851837 -0.010359166 0.00627541368
v -0.00403689965 -0.00819772068 0.00930014321
v -0.00358849239 -0.00206449889 0.0119572983
v -0.00158050768 0.000723657418 0.0123949916
v 0.0115051392 -0.0050248241 0.00225312019
v -0.00345448104 -0.00464158955 0.0114336114
v 0.00227233512 -0.0118397518 0.00418292517
v 0.00674587414 -0.0104546358 0.00243444198
v 0.00140062748 0.00205964074 0.0124904179
v 0.0026462534 0.00294050839 0.0120562942
v 0.00458537269 0.00378640206 0.011314977
v 0.00777814639 0.00370897164 0.0095027719
v 0.0101313824 0.00260228511 0.00720187428
v 0.0109581058 0.000617044616 0.00627763479
v 0.0118310025 -0.000768836593 0.00511001449
v 0.0102351528 -0.00770884113 0.00175340387
v 0.00556651924 -0.0113079841 0.00213411432
v -0.000890993575 -0.0108164323 0.00650337746
v -0.00073439653 -0.0114882032 0.00541446116
v -0.000174341178 0.00109750788 0.0128228272
v -0.00232905392 0.0111237914 0.000369890708
v -0.000695992661 0.0119448928 -0.00483350473
v 0.00328984785 0.00890752418 -0.00851877044
v -0.011974418 0.00114160094 -0.00414644866
v 0.00247140873 0.0104552544 -0.00664320331
v -0.0103641101 0.00710237505 -0.00168238208
v -0.00843936337 0.00953852548 -0.00177621384
v -0.011588148 0.000154275729 -0.00548361693
v -0.0103864607 -0.00220489147 -0.00716873437
v -0.00548218846 -0.00418807885 -0.0108593102
v -0.0026711415 -0.00293739375 -0.0121435898
v -0.0042550352 0.0115887408 -0.00300492148
v 0.00320178552 0.00305842487 -0.0120448824
v 0.00352492521 0.00636811842 -0.0105388608
v 0.00158595107 0.0100971139 -0.00731339739
f 45 11 24
f 44 35 36
f 24 23 44
f 12 50 56
f 56 50 3
f 3 1 56
f 3 4 1
f 63 4 3
f 51 50 20
f 20 50 21
f 48 30 28
f 27 28 59
f 48 36 47
f 36 35 47
f 25 23 24
f 24 11 25
f 25 11 23
f 9 27 8
f 13 27 9
f 9 45 13
f 11 45 9
f 23 11 62
f 62 63 23
f 64 3 51
f 63 3 64
f 23 63 52
f 52 22 23
f 63 64 52
f 42 41 43
f 46 27 13
f 37 44 36
f 45 44 37
f 36 46 37
f 13 45 37
f 37 46 13
f 34 45 24
f 24 44 34
f 34 44 45
f 49 12 33
f 33 12 18
f 38 12 49
f 43 41 38
f 38 44 43
f 49 35 38
f 35 44 38
f 50 12 40
f 40 38 41
f 61 50 51
f 51 3 61
f 61 3 50
f 29 4 59
f 59 28 29
f 31 35 17
f 31 47 35
f 17 7 31
f 31 30 48
f 48 47 31
f 31 28 30
f 7 28 31
f 10 62 11
f 10 9 8
f 11 9 10
f 2 4 63
f 63 62 2
f 2 10 8
f 62 10 2
f 22 52 54
f 54 52 64
f 54 64 51
f 51 20 54
f 21 22 54
f 54 20 21
f 43 44 15
f 15 42 43
f 15 44 23
f 23 22 15
f 15 22 21
f 21 41 15
f 41 42 15
f 27 46 26
f 56 5 19
f 19 12 56
f 18 12 19
f 19 6 53
f 53 7 19
f 19 7 17
f 14 41 21
f 14 40 41
f 21 50 14
f 50 40 14
f 12 38 39
f 39 40 12
f 38 40 39
f 58 28 7
f 58 29 28
f 4 29 58
f 1 6 55
f 56 1 55
f 55 5 56
f 6 19 55
f 55 19 5
f 59 4 60
f 4 2 60
f 60 2 8
f 8 27 60
f 60 27 59
f 27 26 16
f 48 28 16
f 28 27 16
f 16 36 48
f 16 46 36
f 16 26 46
f 32 33 18
f 18 19 32
f 32 35 49
f 49 33 32
f 17 35 32
f 32 19 17
f 57 7 53
f 57 58 7
f 53 6 57
f 57 6 1
f 1 4 57
f 4 58 57
