v 0.0119724819 -0.000156752657 0.00403003974
v 0.0103079312 0.00033042908 0.0072652074
v 0.0124364553 -0.00294001639 -0.000774914609
v 0.00639161745 -0.0104285848 -0.00372741478
v -0.00161110618 -0.0106383432 -0.000750240259
v 0.00055298785 -0.012593148 0.000421872739
v -0.00123465313 -0.0104876397 0.00765153513
v 0.000487793312 -0.00644690287 0.0110741776
v 0.00482908313 -0.000896167911 0.0114486835
v 0.0111568061 -0.00453675601 -0.00325154293
v -0.0108197105 0.00382675173 0.00427302774
v -0.00975055718 0.00676549605 0.00410340191
v 0.000356200544 0.00795597504 -0.00997509364
v 0.00371096142 0.0045933496 -0.00900288039
v 0.00196299722 0.00960214169 -0.00741922551
v -0.000393246984 0.0125355781 -0.00172264591
v 0.000894331304 -0.0100522819 -0.00467945778
v 0.0087672076 -0.00727391169 -0.00471031859
v -0.00542531442 -0.00804351123 0.000860246661
v 0.0122035464 -0.00249019185 -0.00188852477
v 0.0066359136 0.00705542524 -0.00153653047
v 0.00960839622 0.00382328577 0.00414665819
v 0.0019619805 0.00956134781 0.0026336334
v -0.00293375843 0.0116682981 0.00288600661
v 0.00349887884 0.00407842613 0.00847817192
v 0.00640288767 0.00148449278 0.0100288676
v -0.00627752033 0.00906669595 0.00484869506
v -0.00190549374 -0.00261297526 0.0103883286
v -0.00102683886 -0.00775139166 0.00979185389
v -0.00391282385 -0.00973028842 0.000333173178
v -0.0109697843 -0.00214014376 -0.00422114102
v -0.00245963999 -0.00204471872 -0.010353985
v -0.00260959669 0.00399686467 -0.0119411468
v -0.0117838588 0.00433152268 0.00179612899
v -0.00835028062 -0.000367667166 -0.00977597652
v -0.011193868 -0.00146758787 -0.00620012393
v -0.0080966104 0.00882816005 0.00415056324
v -0.000242118597 0.0125442538 -0.00122609531
v -0.0096834964 0.00744363035 0.00359724126
v -0.00176396815 0.00393332984 -0.0121622194
v 0.000937934465 0.0105295123 -0.00706587963
v 0.000710209683 0.00983625812 -0.00833644343
v 0.000514697828 0.0120263194 -0.0043356798
v -0.00224977191 0.0125269899 -0.000230580889
v -0.00528359339 0.0114643175 0.00279948962
v -0.00562252576 0.0104699023 0.00385820003
v -0.0102595943 0.00621943458 0.00379902342
v -0.0108585018 0.00561194404 0.00329154947
v -0.0120482855 0.00380295865 0.00199967458
v -0.0127158711 0.000464308863 -0.00127483208
v -0.0121475229 -9.22486728e-05 -0.00412982929
v -0.00615743927 0.000922563406 -0.0111664264
v -0.00447846388 0.00189243662 -0.0117521145
v 0.0126387273 -0.000404407406 0.0014866729
v 0.0116670507 0.000718729324 0.00531595032
v 0.00435994484 -0.0114660487 -0.00283687902
v 0.00261684946 -0.0126219952 -0.00034915986
v -0.00111140805 -0.00914385269 0.00887964438
v 0.010651085 -0.00624769844 -0.00336621849
v 0.0124619347 -0.00230712906 -0.000374493809
v 0.00764127474 -0.00966251584 -0.00370264656
v -0.000513047303 -0.012017021 0.00413936653
v 0.00900677287 0.000867330907 0.00907831818
v -0.000401818975 -0.0117570283 0.00531744074
v 0.00330635352 -0.00283677387 0.0123100056
v 0.0054873848 -0.0014788644 0.0115059231
f 57 2 64
f 51 36 50
f 35 36 51
f 1 55 2
f 54 55 1
f 4 61 57
f 18 61 4
f 54 1 3
f 57 61 3
f 3 2 57
f 3 1 2
f 7 64 8
f 65 28 8
f 28 29 8
f 66 64 2
f 65 8 66
f 66 8 64
f 36 5 30
f 5 6 30
f 54 20 21
f 20 15 21
f 22 21 38
f 22 55 54
f 54 21 22
f 56 4 57
f 53 33 40
f 40 18 32
f 18 4 32
f 32 53 40
f 59 61 18
f 18 10 59
f 59 3 61
f 59 10 20
f 20 3 59
f 60 20 54
f 54 3 60
f 60 3 20
f 7 8 58
f 58 8 29
f 14 15 20
f 20 10 14
f 14 18 40
f 14 10 18
f 42 33 51
f 65 66 9
f 11 29 28
f 11 58 29
f 50 7 11
f 7 58 11
f 50 36 31
f 36 30 31
f 62 64 7
f 7 30 62
f 62 30 6
f 57 64 62
f 62 6 57
f 38 21 43
f 43 21 15
f 33 53 52
f 35 51 52
f 51 33 52
f 52 32 35
f 53 32 52
f 4 56 17
f 17 32 4
f 35 32 17
f 17 6 5
f 57 6 17
f 17 56 57
f 17 36 35
f 17 5 36
f 15 14 13
f 13 42 15
f 13 14 40
f 40 33 13
f 33 42 13
f 65 9 27
f 27 28 65
f 23 22 38
f 38 24 23
f 34 51 50
f 12 11 28
f 28 27 12
f 12 27 37
f 50 31 19
f 19 31 30
f 19 7 50
f 19 30 7
f 15 42 41
f 41 43 15
f 42 43 41
f 38 43 16
f 37 27 46
f 26 23 24
f 26 9 66
f 39 12 37
f 48 39 34
f 37 46 45
f 45 39 37
f 45 46 24
f 34 39 45
f 24 46 25
f 25 26 24
f 25 46 27
f 25 27 9
f 9 26 25
f 22 23 63
f 23 26 63
f 2 55 63
f 55 22 63
f 63 66 2
f 63 26 66
f 11 48 49
f 49 48 34
f 50 11 49
f 49 34 50
f 11 12 47
f 47 48 11
f 12 39 47
f 39 48 47
f 44 24 38
f 44 45 24
f 38 16 44
f 44 16 43
f 44 43 42
f 34 45 44
f 44 42 51
f 51 34 44
