v -0.00814653206 -0.00366060052 -0.00901852348
v -0.00631251423 0.00898942001 -0.00740189057
v 0.00595941554 0.00663005571 -0.0089204227
v 0.00546914865 0.00746487533 -0.0086404756
v -0.00998029823 0.00385651295 -0.00689969786
v -0.00829346566 -0.00430658057 -0.00851252786
v -0.0048620494 -0.00690165126 -0.00916555459
v 0.00572624733 -0.00933947992 0.00651360299
v 0.0024519639 -0.0101342865 0.00742397788
v -0.00334825528 -0.00909878743 0.00780235227
v -0.0070857097 0.00109428771 0.0103691811
v -0.00138483218 0.00699320158 0.0103244573
v 0.0030935783 0.00709733446 0.0101490632
v 0.00300690665 0.00760104445 0.00988105689
v 0.00913013971 0.0033321897 0.00829246637
v 0.0102511119 -0.00091070337 0.00760809582
v 0.00951379917 -0.00455085342 0.00742483762
v 0.00249250217 -0.00709402038 -0.0101259754
v -0.000898595648 -0.00785116483 -0.00992573952
v -0.00167791994 -0.00998206429 0.00349930509
v -0.00977209817 -0.00416496782 -0.0019401199
v -0.00868502939 0.00692148607 -0.00683852713
v -0.0028394239 0.00857628872 0.00332987132
v -0.00092943681 0.0101426164 -0.00153463488
v 0.0049105703 0.00829975785 0.000459841759
v 0.00645109864 0.00626018803 0.00886633919
v 0.00821013588 0.00493396181 -0.000327566489
v 0.0102086862 0.000517158137 0.00613206805
v 0.00832649698 0.000730214604 -0.00931829467
v 0.00861839691 -0.00220155441 -0.00807928763
v 0.00539999861 -0.00445535705 -0.0102011768
v -0.00294686132 -0.0084903153 0.00884045466
v -0.00717627535 -0.00222847747 0.0104910436
v 0.00260477108 -0.00952853881 0.0077740658
v 0.00589439214 0.0057634861 0.0097154597
v 0.00927543166 -0.00526122072 0.00652003848
v -0.00444788178 0.00638702903 0.00884806781
v -0.00259371507 0.00562081439 0.0110625489
v -0.00487454661 -0.00673931097 0.00941872937
v 0.00940727913 0.00146022529 0.00841329111
v 0.00673904054 -0.00809677555 0.00715689089
v -0.00113900121 -0.00983412631 0.00813246125
v -0.00598275758 -0.00681013748 0.00939114775
v -0.00478261004 0.00515658477 0.0111016719
v 0.00867976209 0.00347277172 0.00856963542
v 0.00983162691 -0.000660562165 0.00794822999
v 0.00914022201 -0.00538766788 0.00695604126
v 0.00823381791 -0.00664862679 0.00699703393
v -0.00471417978 -0.00653769973 -0.00986864454
v 8.33057151e-06 0.0102473019 -0.00700487272
v 0.00636833466 0.00539353903 -0.00970168733
v 0.00766900482 0.00241742569 -0.00966370509
v 0.00697416069 0.00174724846 -0.0105345862
v 0.00320059153 0.00898898479 -0.00866103963
v -0.00160558831 0.0102064917 -0.00751499898
v -0.0055356518 0.0095918549 -0.00628019416
v -0.00960941952 0.00418835279 -0.00722827017
v -0.010201488 2.82771947e-07 -0.00779178874
v -0.00660385893 -0.005803315 -0.00929137026
v 0.00498755201 -0.00399209823 -0.0110166019
v -0.00924278292 -0.00314526781 -0.00803767991
v 0.00391258273 -0.0050167121 -0.0111240641
v 0.00637174822 -0.00106427519 -0.0109019943
v 0.00125511161 0.00974803077 -0.00807712433
v -0.00157886146 -0.00668511808 -0.010557428
v 0.000486195473 -0.00653398412 -0.0108224803
f 58 5 57
f 57 5 22
f 32 43 42
f 42 43 10
f 34 32 42
f 44 22 11
f 22 5 11
f 22 56 2
f 2 57 22
f 58 57 2
f 37 22 44
f 37 56 22
f 55 2 56
f 16 30 28
f 28 15 16
f 27 15 28
f 26 15 27
f 59 49 7
f 9 34 42
f 31 30 8
f 8 18 31
f 18 62 31
f 60 30 31
f 31 62 60
f 24 55 56
f 50 55 24
f 29 28 30
f 27 28 29
f 8 30 48
f 30 36 48
f 40 46 16
f 16 15 40
f 15 26 35
f 14 13 35
f 35 26 14
f 13 38 35
f 32 34 35
f 35 38 32
f 3 27 51
f 51 4 3
f 3 4 27
f 54 4 51
f 2 55 54
f 51 53 54
f 54 53 2
f 25 26 27
f 27 4 25
f 4 54 25
f 25 54 50
f 14 26 25
f 50 24 25
f 25 24 14
f 33 38 44
f 44 11 33
f 21 10 43
f 21 6 59
f 61 6 21
f 58 61 21
f 43 33 21
f 21 5 58
f 21 11 5
f 21 33 11
f 19 18 8
f 8 9 19
f 7 49 19
f 49 65 19
f 1 65 49
f 2 65 1
f 58 2 1
f 49 59 1
f 59 6 1
f 1 61 58
f 1 6 61
f 62 65 63
f 60 62 63
f 2 53 63
f 63 65 2
f 53 29 63
f 63 30 60
f 63 29 30
f 14 24 12
f 12 37 44
f 44 38 12
f 12 13 14
f 12 38 13
f 56 37 23
f 23 24 56
f 37 12 23
f 23 12 24
f 52 53 51
f 52 29 53
f 51 27 52
f 27 29 52
f 8 48 41
f 41 9 8
f 34 9 41
f 47 48 36
f 45 40 15
f 15 35 45
f 45 35 40
f 64 55 50
f 50 54 64
f 64 54 55
f 32 38 39
f 38 33 39
f 43 32 39
f 39 33 43
f 20 9 42
f 20 19 9
f 7 19 20
f 42 10 20
f 20 59 7
f 10 21 20
f 20 21 59
f 66 65 62
f 66 19 65
f 66 62 18
f 18 19 66
f 17 41 48
f 48 47 17
f 34 41 17
f 16 46 17
f 46 40 17
f 17 47 36
f 17 35 34
f 40 35 17
f 17 30 16
f 17 36 30
