v 0.0119103785 0.00190187323 0.00298963809
v -0.000862860735 0.00347875012 0.0122154191
v -0.00144647602 0.00507613134 0.0117363602
v -0.00243979733 0.00607163536 0.0105968597
v -0.00108523224 0.0113530638 0.00597231341
v -0.00567555589 0.00583798679 -0.00818433651
v 0.00716097427 0.0106275155 -0.00105076058
v 0.00968871868 0.00730635635 -0.00195254462
v 0.00671978999 -0.00268390917 0.0102211993
v 0.00215389888 -0.00437855954 0.00940990692
v 0.00150522124 0.000212348847 0.0126277214
v -0.00569467674 -0.0111426927 0.000929057335
v 0.00263347512 -0.006653419 0.00764125618
v 0.0030194145 -0.00861735046 -0.00886864238
v 0.000482618406 -0.00225459707 -0.0122460244
v -0.00840729291 0.00225075306 -0.00946724485
v -0.00936066836 0.00271018033 -0.0075862801
v 0.00185965082 0.00277615392 -0.00973264658
v -0.0029996945 -0.00490977695 0.00758471203
v 0.00878762487 -0.00421166272 0.00458511721
v 0.000594793453 -0.0121742755 -0.00389885709
v 0.0117777972 -0.00100052746 0.00511034922
v 0.0106611898 -0.00271881621 0.00224976354
v 0.0118087773 0.00414075061 -0.000451970422
v 0.00529357077 0.00315803689 -0.00730112401
v -0.00123509525 0.0119573095 0.00193894786
v -0.0123757813 -0.00290018327 -0.000597894331
v -0.00716149481 0.00213592928 0.00620610749
v -0.00823486708 -0.00548504431 0.00448618184
v -0.00271095754 9.67943875e-06 -0.0126067771
v 0.00121596471 -0.00526318562 -0.0115894119
v -0.00934290407 -0.00837493977 0.000483775907
v -0.0113024863 -0.00597327037 0.000655778882
v -0.0100556798 0.00180838882 -0.00794209967
v -0.00332964942 -0.0123270642 -0.0012183578
v -0.0093187077 -0.00874880514 0.00106441927
v 0.00211603518 -0.00752709204 -0.0102347778
v -0.00726414435 -0.0104824783 0.00102702463
v -0.00394899804 -0.0119826476 -1.08688896e-05
v -0.000209227843 -0.0119881569 -0.00421402326
v 0.000836937926 -0.0109609008 -0.00622264682
v 0.00247385183 -0.004351101 -0.0114514713
v -0.000975760978 -0.00133128232 -0.0126875135
v -0.00544743498 0.00162616815 -0.0113938835
v -0.0122248763 0.000877754154 -0.00383245853
v -0.0125761995 -0.00191661748 -0.00227436653
v -0.0105455522 -0.00681995523 0.000207889316
v 0.0115035996 -0.000804908998 0.00550298274
v 0.0125152827 0.00200939619 0.00196401355
v 0.00925933439 0.00842935779 -0.00155515157
v 0.00501090248 0.0115341626 -0.00047565675
v 0.0013382496 0.0124377462 0.00227663958
v 0.00448408211 0.0118731305 -0.000134817504
v 0.00629223029 0.01108694 -0.000378483816
v 0.0118353332 0.00463645097 0.000429163043
v 0.00902637936 -0.00212730415 0.0091713889
v 0.00940264434 -0.00233210023 0.00835244315
v -0.00254705804 0.00905938409 0.00875145778
v 0.000748351988 0.0121481121 0.00355206137
v 0.00327400202 0.0122957217 0.00132101064
v 0.0122544007 0.00310603227 0.00125802697
v 0.000739587572 0.00221283347 0.0125278563
v -0.00171955943 0.00874831149 0.00894143818
v 0.0108404381 0.00679517377 -0.000466636382
v 0.00392229473 -0.000612675042 0.0122229226
f 6 16 34
f 38 32 35
f 36 32 38
f 35 21 13
f 3 63 58
f 36 38 29
f 44 16 6
f 58 63 5
f 45 34 46
f 45 28 58
f 58 5 45
f 45 5 26
f 53 26 52
f 6 26 53
f 54 7 53
f 60 63 56
f 60 5 63
f 60 53 52
f 54 53 60
f 14 37 42
f 31 42 37
f 41 37 14
f 14 21 41
f 41 31 37
f 35 32 41
f 32 34 41
f 34 31 41
f 23 14 49
f 23 21 14
f 35 13 39
f 39 13 12
f 39 38 35
f 12 38 39
f 56 65 9
f 9 13 56
f 65 13 9
f 11 29 19
f 19 29 38
f 19 38 12
f 12 13 19
f 58 28 4
f 4 3 58
f 28 3 4
f 63 3 62
f 56 63 62
f 62 65 56
f 11 65 62
f 2 29 11
f 11 62 2
f 2 62 3
f 2 3 28
f 28 29 2
f 47 32 36
f 46 34 47
f 47 34 32
f 27 45 46
f 28 45 27
f 17 26 6
f 17 45 26
f 6 34 17
f 34 45 17
f 30 44 6
f 43 31 30
f 30 31 34
f 30 34 16
f 16 44 30
f 51 7 6
f 6 53 51
f 51 53 7
f 1 60 56
f 59 60 52
f 5 60 59
f 52 26 59
f 26 5 59
f 40 21 35
f 35 41 40
f 40 41 21
f 22 23 49
f 21 23 20
f 20 13 21
f 23 22 20
f 11 19 10
f 10 19 13
f 10 65 11
f 10 13 65
f 33 29 28
f 28 27 33
f 36 29 33
f 33 47 36
f 46 47 33
f 33 27 46
f 15 25 42
f 15 31 43
f 42 31 15
f 8 25 50
f 48 1 56
f 56 22 48
f 49 1 48
f 48 22 49
f 56 13 57
f 13 20 57
f 57 22 56
f 57 20 22
f 18 15 43
f 25 15 18
f 43 30 18
f 6 7 18
f 18 30 6
f 18 7 50
f 50 25 18
f 55 1 49
f 42 25 24
f 25 8 24
f 49 14 24
f 14 42 24
f 61 55 49
f 49 24 61
f 61 24 55
f 55 24 64
f 50 7 64
f 64 8 50
f 64 24 8
f 64 7 54
f 1 55 64
f 54 60 64
f 60 1 64
