v 0.001164984 0.010310468 0.00709441552
v 0.0124869649 0.000440293665 0.00257138932
v 0.0114947855 0.00353143629 -0.00415277682
v 0.00952483313 0.00532962551 -0.00637336161
v 0.0127465775 0.000767372667 -0.000801107915
v 0.00635102658 0.00202726052 0.0101958108
v -0.000716230212 0.0115075808 0.00466087793
v 0.0048390841 0.00930443823 -0.00655306364
v -0.00593676825 0.00128222498 -0.00877715974
v -0.00393759653 -0.00575027299 -0.0106379162
v -0.000682068156 -0.00138633967 0.00956947456
v -0.0100393278 0.000451155939 -0.00732914234
v -0.00259136159 -0.0108350264 0.00525364897
v 0.000732330911 -0.0124172473 -7.85642624e-05
v -0.00148370515 -0.00853569076 -0.00946944296
v -0.002588919 -0.00521504372 -0.0106146373
v 0.00581040031 0.00625414961 -0.00798148923
v 9.03525481e-05 0.00712089226 -0.00743357525
v -0.000312544716 0.0126222493 -0.00135247915
v -0.00590021424 0.00775466278 -0.000785162122
v -0.00882231061 0.00406898808 0.00194231209
v -0.00428431527 0.00714043494 0.00575287182
v -0.0068723954 0.00240713692 0.00726678195
v -0.00408803759 -0.00741325631 0.00753887551
v 0.00455625406 -0.006915089 0.00488640161
v 0.00797178217 -0.00419551913 0.00465319411
v 0.00870509755 -0.00431724114 -0.00152083753
v 0.003395141 -0.00943611817 -0.0042343636
v 0.0054291289 -0.00114856089 -0.0078930645
v -0.0122820783 -0.000440573708 -0.00323822616
v -0.000609648021 -0.010766927 -0.00694391057
v -0.00958419667 -0.00605234816 0.00575960794
v -0.000882249793 -0.0125345797 -0.00103351778
v -0.00251278434 -0.0121428986 0.00334777709
v -0.00444509826 -0.0107970261 0.00474499663
v -0.00581246936 -0.00957672177 0.00631069907
v -0.00786513094 -0.00278929649 -0.00945874625
v -0.0109189334 -0.00392095082 0.00536797597
v -0.00751049538 -0.00233353187 -0.0101296857
v -0.0116614489 -6.80876668e-05 -0.00567667978
v -0.0128329909 -0.000277426178 -0.000304599635
v -0.0123683895 -0.00208578346 0.00238719389
v -0.00875176334 -0.00630891967 0.00670840758
v -0.000564222754 -0.0127972989 0.00026548818
v -9.2022069e-05 -0.0118471303 -0.00492538449
v -0.00195918513 -0.00875433528 -0.00896489284
v -0.00532972291 -0.00506229195 -0.0104444264
v 0.00809133356 8.94670591e-05 0.00909864672
v 0.0117303613 0.00275702955 -0.00461165248
v 0.0121807974 0.00203856926 -0.00287209351
v 0.0122364592 -0.000221575017 0.00444279628
v 0.00523573814 0.00442494314 0.0107034215
v 0.004177235 0.0110357564 -0.0047123223
v 0.00648089462 0.00899608007 -0.00634334158
v 0.0083838129 0.00707970785 -0.00635251783
v 0.00855004652 0.00719207309 -0.00600641745
v 0.0086339065 0.00185157301 0.00919263406
v 0.0058532381 0.00961826967 -0.00575766348
v 0.00680675422 0.00358154945 0.0102430606
v 0.00369309242 0.00692943865 0.00976340554
v 0.00154983888 0.00828970239 0.00988315231
v 0.000251332676 0.0116364946 0.00530232621
v 0.000582679146 0.0124918767 0.00217686998
v 0.00227489706 0.0122331467 -0.00351568427
v 0.00212435653 0.0122757207 -0.00223959892
f 5 28 49
f 39 40 12
f 34 33 44
f 48 24 13
f 52 60 61
f 41 23 21
f 38 32 43
f 43 23 38
f 31 28 45
f 44 33 45
f 45 33 31
f 5 51 27
f 27 28 5
f 15 28 31
f 15 49 28
f 20 40 41
f 41 21 20
f 32 38 42
f 42 23 41
f 42 38 23
f 2 51 5
f 3 2 5
f 47 39 10
f 10 15 47
f 31 33 47
f 47 33 32
f 9 39 12
f 43 24 11
f 52 61 11
f 11 23 43
f 11 61 23
f 36 24 43
f 13 24 36
f 36 34 13
f 43 32 36
f 57 48 51
f 51 2 57
f 25 48 13
f 13 34 25
f 7 20 21
f 1 60 63
f 1 61 60
f 44 45 14
f 14 45 28
f 28 27 14
f 14 27 51
f 14 34 44
f 14 25 34
f 4 3 49
f 12 40 19
f 40 20 19
f 19 7 63
f 20 7 19
f 5 49 50
f 50 3 5
f 49 3 50
f 53 58 54
f 40 39 37
f 39 47 37
f 46 15 31
f 31 47 46
f 46 47 15
f 32 42 30
f 30 47 32
f 30 37 47
f 40 37 30
f 41 40 30
f 30 42 41
f 18 17 39
f 39 9 18
f 18 9 12
f 12 19 18
f 24 48 6
f 6 11 24
f 52 11 6
f 48 57 6
f 35 36 32
f 34 36 35
f 32 33 35
f 33 34 35
f 59 2 60
f 59 57 2
f 59 60 52
f 52 6 59
f 59 6 57
f 51 48 26
f 48 25 26
f 26 14 51
f 25 14 26
f 23 61 22
f 61 7 22
f 22 21 23
f 22 7 21
f 63 7 62
f 62 1 63
f 62 7 61
f 61 1 62
f 55 17 54
f 55 4 17
f 17 4 29
f 49 15 29
f 29 4 49
f 65 19 63
f 63 53 65
f 54 17 8
f 17 18 8
f 8 53 54
f 64 18 19
f 19 65 64
f 64 65 53
f 53 8 64
f 64 8 18
f 3 4 56
f 4 55 56
f 58 53 56
f 54 58 56
f 56 55 54
f 56 53 63
f 2 3 56
f 63 60 56
f 60 2 56
f 17 29 16
f 10 39 16
f 39 17 16
f 16 15 10
f 16 29 15
