v -0.0113144674 -0.00520093339 0.00282758043
v 0.00323968518 -0.00599128179 0.0106235852
v -0.00058753486 -0.0118326541 0.00499608926
v -0.000343806778 -0.0114661337 0.00281841478
v -0.00592485077 -0.00982235546 -0.000661916388
v -0.0117425018 -0.00435537226 0.00229747781
v -0.00858030945 0.000964941852 -0.0042063916
v 0.000412846193 0.00237148044 0.012098712
v -0.0019019786 0.00410349572 0.011756146
v 0.00959033599 0.00823427335 -0.00166904133
v -0.00208286602 0.000225078353 -0.0126737144
v -0.00296198565 0.00909846555 -0.00858938506
v 0.0104857657 -0.00242917045 -0.00273953119
v 0.0120554712 0.00294048348 -0.00305794433
v 0.00757337616 0.00506631663 0.00402478755
v -0.0107450746 -0.00777831202 0.00093885971
v 0.0019252858 0.0118433329 -0.00226616033
v -0.00837353394 0.00446073798 0.00781217456
v -0.0113379261 0.000877050269 0.00299186557
v -0.00516356463 0.00535895299 -0.00903560279
v -0.00372037653 0.0026761923 -0.011910977
v 0.00197858891 -0.00349948184 -0.0119786386
v 0.00222384191 -0.00644467101 -0.00771946282
v 0.00690235639 -0.00401487395 -0.010153785
v -0.00350143906 -0.0119485031 0.00251274014
v 0.00346787658 -0.00967890963 0.000386650677
v 0.00185145865 -0.0107689058 0.00599035541
v 0.00527179399 -0.00704941602 0.00720203721
v 0.0118058569 0.00430582252 -0.00209226618
v 0.00479420351 -0.00338431555 0.0107017075
v 0.00616322405 0.010785188 -0.00258320881
v -0.0013791822 0.000893342548 -0.0124200683
v 0.00133700869 -0.00180550259 -0.012399618
v 0.00321234295 -0.00285750995 -0.0119296991
v 0.0108432428 0.0060211742 -0.00262965061
v 0.0117693701 0.000406124737 -0.00445361195
v 0.0109682603 -0.000323718539 -0.00613960823
v 0.00882365237 0.00882361779 -0.00205209931
v 0.0072778488 0.0104062965 -0.00116221984
v 0.00559046869 0.0112216028 -0.00217210865
v 0.0023040359 0.0121267135 -0.00374438511
v -0.0030081544 0.0104073088 -0.00411969225
v -0.000755892098 0.0110705032 -0.00628302547
v -0.00211931731 0.0103589292 -0.00718108487
v -0.00384887607 0.00696431395 -0.0103026655
v 0.0012571563 -0.00237295407 -0.0124500189
v 0.0102875762 -0.00238519275 -0.0073532972
v 0.00818149062 -0.00369558852 -0.00894902327
v 0.0116851269 0.00108276241 -0.00484836067
v -0.00422998362 -0.0117048317 0.00267955217
v 0.0020153902 -0.000539112499 0.0125905784
v -0.00665544933 -0.0106225084 0.00196995182
v -0.01187109 -0.00137991102 0.00423735122
v -0.0104058346 0.0022466917 0.00719303246
v 0.00372745141 -0.00642481219 0.0104183935
v 0.00304098657 -0.00908911785 0.00845060103
v 0.00227106339 -0.0103239473 0.00703696967
v -0.00287411273 0.00323829509 0.012196436
v 0.000270676054 0.00156178049 0.0128077463
v -0.00778654445 -0.00994813734 0.002138844
v -0.00835372789 0.0031776351 0.00916432338
v 0.00296692148 -0.00253263927 0.0122189184
v 0.0013686235 -0.0105563946 0.00691739339
v -0.0117294314 -0.000452832001 0.00510151909
f 5 16 11
f 16 6 7
f 20 7 19
f 19 6 53
f 19 7 6
f 22 5 11
f 20 19 45
f 25 4 3
f 16 5 52
f 52 60 16
f 52 5 25
f 16 60 1
f 53 6 1
f 1 6 16
f 54 61 18
f 18 42 54
f 54 42 19
f 51 30 15
f 18 61 58
f 58 9 18
f 17 9 39
f 18 9 17
f 41 42 17
f 17 42 18
f 11 32 33
f 32 37 33
f 25 5 23
f 5 22 23
f 23 22 24
f 23 4 25
f 20 45 21
f 21 7 20
f 21 32 11
f 21 45 32
f 11 16 21
f 16 7 21
f 31 37 32
f 35 37 31
f 31 38 35
f 39 38 31
f 62 30 51
f 62 55 30
f 30 55 28
f 14 30 28
f 28 13 14
f 28 55 56
f 14 13 36
f 49 35 14
f 49 37 35
f 14 36 49
f 25 3 50
f 50 3 60
f 50 52 25
f 60 52 50
f 26 3 4
f 24 48 26
f 26 23 24
f 4 23 26
f 64 1 61
f 61 54 64
f 53 1 64
f 64 19 53
f 64 54 19
f 29 30 14
f 29 15 30
f 14 35 29
f 39 9 8
f 8 15 39
f 46 22 11
f 11 33 46
f 34 37 24
f 34 33 37
f 34 46 33
f 24 22 34
f 22 46 34
f 32 45 43
f 43 31 32
f 41 31 43
f 43 42 41
f 43 44 42
f 40 31 41
f 39 31 40
f 41 17 40
f 40 17 39
f 2 58 61
f 2 62 58
f 2 1 60
f 61 1 2
f 55 62 2
f 56 55 2
f 13 26 47
f 47 26 48
f 47 36 13
f 24 37 47
f 47 48 24
f 37 49 47
f 47 49 36
f 3 26 27
f 35 38 10
f 10 29 35
f 10 38 39
f 39 15 10
f 15 29 10
f 51 15 59
f 15 8 59
f 59 62 51
f 58 62 59
f 9 58 59
f 59 8 9
f 12 43 45
f 44 43 12
f 42 44 12
f 19 42 12
f 12 45 19
f 56 2 63
f 60 3 63
f 63 2 60
f 3 27 57
f 57 63 3
f 56 63 57
f 57 28 56
f 57 27 26
f 13 28 57
f 57 26 13
