v 0.00944100979 -0.00783984155 0.00346283317
v 0.00169887984 -0.00545976427 -0.0113803517
v -0.00158910656 -0.00470144831 -0.010456405
v -0.000736030381 -0.00972844137 -0.00844784186
v -0.00121037329 -0.0120386586 -0.00386665645
v 0.00296890002 -0.0119071332 0.00289372255
v 0.0107670783 -0.00594853644 0.00376535308
v 0.0038381531 0.00295110755 -0.0099174692
v 0.00750767096 9.797951e-05 -0.0103797985
v 0.00343053645 -0.00205394524 -0.0118022539
v -0.00534081295 -0.00127562584 0.0102543746
v 0.00104170927 0.0119510008 0.00342919165
v 0.000209578815 0.00515537732 0.0111356611
v -0.0111457607 -0.00164667942 0.00555927541
v -0.0125583175 0.00272173368 -0.00118148496
v -0.0100226124 0.00617456197 -0.00421004218
v -0.00100069992 0.00461686225 -0.00849543084
v 0.00677828714 -0.00822295794 0.00507336977
v -0.00918879703 0.00820435128 -0.00390998377
v 0.00641578874 0.00764220679 0.0020985204
v 0.011670005 0.000581753336 -0.0053786325
v 0.00424751576 0.00615895574 0.00716922026
v 0.00712449722 0.00276000749 0.005755357
v -0.00290270002 0.00154837166 0.0119790831
v 0.00940411278 -0.0072424274 0.00422646123
v -0.00185813338 -0.00652492058 0.00674746156
v -0.00685313074 -0.00478811697 0.00609223427
v -0.00392754362 -0.00922252983 -0.00525631066
v -0.00940263374 0.00173290116 -0.00500885022
v -0.00380619072 0.00320174726 0.0115661469
v -0.0109006471 -0.000411119256 0.00641192051
v -0.0124943903 0.00119561848 0.00178815393
v 0.0011353905 0.0108050824 0.00656499111
v -0.0117747973 -1.34863427e-05 0.00450653315
v -0.00701214106 0.0102714864 -0.00303918479
v -0.00814297162 -0.00036556427 0.0100410227
v -0.00531471561 0.00133172465 0.0115707932
v -0.00766151061 0.0094329287 -0.00368884228
v -0.00208038945 0.00434749749 0.011814815
v -0.0116225923 0.00461411281 -0.00255599027
v -0.0053462943 0.0108574782 -0.00378723673
v -0.00439618568 0.0117869898 -0.00209511851
v -0.00164180728 0.012668862 9.76988139e-05
v 0.000144442057 0.0121991475 0.00380733919
v 0.000638068058 0.00823304802 0.00983639314
v 0.000513269428 0.0104622344 0.00749950987
v -0.0125869154 3.71157346e-05 0.00271940368
v 0.0052950527 -0.000777699601 -0.0113770693
v 0.00576178981 0.00626136352 -0.00646927858
v 0.00704883008 -0.00996800867 0.00377016358
v 0.0122452148 -0.000110591279 -0.00342149872
v 0.0126431055 1.95296743e-05 -0.0028224882
v 0.000237159582 -0.00692787375 -0.0107548966
v 0.000221391253 -0.0121838943 -0.00343817908
v 0.00111236619 -0.0127681735 -5.14574011e-06
v 0.0122967974 -0.00279958 0.00158098574
v 0.0051411059 -0.00173152839 -0.011649481
v 0.00174163909 -0.00416790152 -0.0118608998
v -0.000265634124 -0.0116611715 -0.00489798187
v 0.00444643159 -0.0117262915 0.00202328764
v 0.00930543841 -0.00786880306 0.00359820654
v 0.0124609745 -0.00283867132 0.000648969003
v 0.00106258385 -0.0123661772 -0.00211171328
v 0.00292407715 -0.0122465442 0.000399845176
v 0.00968207896 0.000524672507 -0.00821526836
f 47 28 14
f 28 4 5
f 55 14 5
f 5 14 28
f 47 14 31
f 31 14 36
f 36 14 27
f 27 14 55
f 55 6 27
f 44 46 33
f 44 43 42
f 55 5 54
f 3 4 28
f 28 29 3
f 3 16 58
f 3 29 16
f 15 28 47
f 15 29 28
f 47 32 15
f 61 1 25
f 21 65 49
f 21 20 52
f 49 20 21
f 38 19 35
f 35 44 42
f 46 44 35
f 32 31 35
f 41 35 42
f 38 35 41
f 49 8 41
f 41 19 38
f 42 43 41
f 41 43 49
f 48 8 9
f 49 65 9
f 9 8 49
f 10 8 48
f 34 32 47
f 47 31 34
f 34 31 32
f 25 24 18
f 39 46 30
f 30 31 36
f 46 35 30
f 30 35 31
f 25 1 7
f 45 46 39
f 33 46 45
f 43 44 12
f 49 43 12
f 12 20 49
f 33 20 12
f 12 44 33
f 59 5 4
f 59 54 5
f 60 6 55
f 4 2 63
f 63 59 4
f 54 59 63
f 55 54 63
f 53 2 4
f 4 3 53
f 58 2 53
f 53 3 58
f 16 29 40
f 29 15 40
f 40 19 16
f 40 15 32
f 32 35 40
f 40 35 19
f 51 21 52
f 19 41 17
f 17 41 8
f 8 10 17
f 17 10 58
f 58 16 17
f 16 19 17
f 48 9 57
f 57 2 58
f 65 2 57
f 57 9 65
f 58 10 57
f 57 10 48
f 36 11 37
f 37 11 24
f 37 30 36
f 37 24 39
f 39 30 37
f 24 11 26
f 6 18 26
f 26 18 24
f 26 11 36
f 36 27 26
f 26 27 6
f 23 7 56
f 52 20 56
f 56 20 23
f 13 45 39
f 39 24 13
f 13 7 23
f 23 45 13
f 13 24 25
f 25 7 13
f 22 20 33
f 33 45 22
f 23 20 22
f 22 45 23
f 1 61 50
f 50 60 1
f 50 61 25
f 25 18 50
f 50 18 6
f 6 60 50
f 64 60 55
f 55 63 64
f 1 60 64
f 64 2 1
f 64 63 2
f 52 56 62
f 62 51 52
f 62 7 1
f 62 56 7
f 21 51 62
f 1 2 62
f 62 2 65
f 65 21 62
