v 0.000251860855 0.00941267893 -0.00839072688
v -0.00686424195 0.0102609251 0.00343340483
v -0.0125487904 0.000241333415 -0.000607464171
v -0.00627894097 -8.27004303e-05 -0.0107571704
v 0.00253814203 0.0103079027 -0.00474478067
v 0.00332213978 0.00855331418 0.00371485534
v -0.00165767365 0.0104077171 0.00351826128
v -0.00433825501 0.010351212 0.00450531662
v 0.00517165462 -0.000579793411 0.0113299433
v 0.00202045856 -0.00331962051 0.0120959006
v 0.00682183988 0.000801117868 0.010625805
v 0.0103593517 0.000877623125 0.00750756698
v 0.0096976001 -0.00701253113 -0.00414259281
v 0.00385874442 -0.0119291747 -0.00233097072
v -0.000534911626 -0.0121761099 0.00170126529
v -0.00214348295 -0.0103531184 0.00664135999
v -0.000994344267 -0.0106562891 0.00726968369
v 0.00084116003 -0.00887581564 -0.00557296856
v 0.00605633076 -0.00925143065 -0.00496144265
v -0.00694135463 0.00860234664 0.0048793875
v -0.00141907349 0.00202919419 0.00941598924
v 0.00348882398 0.0100954811 0.000621341215
v 0.0124611137 0.000197921977 0.00155141047
v 0.0124891829 -0.00207965911 -0.00133386021
v 0.00519834469 0.00329311052 -0.00750930701
v 0.00311805002 0.00784292385 -0.00785245198
v 0.00895326442 -4.99178757e-05 -0.00469478193
v 0.00845963813 -0.0034079937 -0.00574610725
v -8.970795e-05 0.0037043285 -0.0113400814
v 0.000618559057 -0.0120409594 -0.0010832834
v -0.0112024918 -0.00187945247 -0.00552568609
v -0.000578885873 -0.00675654207 0.0104744298
v -0.00759165874 -0.000934942687 0.00598433248
v -0.0109270137 0.00428617781 0.00409710887
v 0.0117661866 -4.5906197e-05 0.00451014005
v 0.0123665776 -0.00252852501 -5.50235708e-05
v 0.0100279017 0.000179719834 0.00743539648
v 0.00835874688 -0.00917256489 -0.00373450718
v 0.00779652513 -0.00908702695 -0.00409691461
v 0.00496364932 -0.00190884908 0.0116666253
v 0.0125110402 0.000185105965 0.00328069558
v 0.0110253883 -0.00581547255 -0.00288110043
v 0.00321694357 -0.0121724094 -0.000850640752
v 0.000931297281 -0.0127119712 0.0015529647
v -0.000448003212 -0.010731618 0.0067724011
v -0.000129486366 -0.00728263519 0.0103995182
v 0.00142112661 -0.0058068973 0.0111948483
v -0.00281101702 0.0124718016 0.00119429129
v -0.0102595776 0.00621941787 0.00379899916
v -0.00945455708 0.00783786772 0.00371720411
v -0.00828459013 -0.000923655098 -0.00960517968
v -0.00373629048 0.00191499439 -0.0120159596
v -0.000712275181 0.00575765392 -0.0113291816
v -0.00447464976 0.0115739086 0.00262260193
v -0.0116570614 0.00454697001 0.00194796206
v -0.00663152952 0.000908778685 -0.0108645405
v -0.0034174496 0.00266588996 -0.0119611067
v 0.00113276515 0.00919024253 -0.00901297688
v 0.000603377259 0.0120383416 -0.0041700652
v -0.0107115959 0.00608731029 0.00324908817
v -0.0126773788 0.00237573105 0.000482991995
v -0.0118656713 -0.0007436506 -0.00517972561
v 0.000433408886 0.0105001127 -0.00697970371
v 7.18301188e-05 0.011681821 -0.00481317745
v -0.00201837711 0.00497667202 -0.0116101725
v -0.000662298466 0.0128871371 -0.00141302189
f 31 16 3
f 61 62 3
f 3 62 31
f 15 16 31
f 17 15 44
f 16 15 17
f 21 34 10
f 20 34 21
f 31 62 51
f 19 18 52
f 52 29 19
f 19 14 18
f 45 17 44
f 22 12 41
f 41 23 22
f 22 23 5
f 59 5 58
f 66 22 59
f 59 22 5
f 28 42 13
f 13 19 28
f 28 19 29
f 30 15 31
f 31 51 30
f 30 51 18
f 18 14 30
f 44 15 30
f 30 14 44
f 41 12 35
f 16 17 32
f 10 34 32
f 46 32 17
f 61 34 55
f 55 62 61
f 20 2 50
f 50 34 20
f 2 55 50
f 52 18 4
f 18 51 4
f 56 51 62
f 52 4 56
f 56 4 51
f 62 55 56
f 44 14 43
f 43 45 44
f 14 19 38
f 13 42 38
f 38 43 14
f 45 43 38
f 58 5 26
f 5 23 26
f 58 1 63
f 63 59 58
f 65 1 58
f 58 53 65
f 65 53 29
f 41 35 36
f 36 38 42
f 35 38 36
f 16 32 33
f 33 32 34
f 33 3 16
f 61 3 33
f 33 34 61
f 17 45 47
f 47 46 17
f 47 40 10
f 10 32 47
f 32 46 47
f 12 22 6
f 20 21 8
f 8 2 20
f 8 54 2
f 60 55 34
f 60 50 55
f 39 19 13
f 13 38 39
f 39 38 19
f 66 59 64
f 59 63 64
f 64 2 66
f 64 63 1
f 64 55 2
f 64 56 55
f 1 65 64
f 64 65 56
f 52 56 57
f 56 65 57
f 57 29 52
f 57 65 29
f 24 26 23
f 24 27 26
f 24 23 41
f 41 36 24
f 24 36 42
f 42 28 24
f 28 27 24
f 26 27 25
f 29 53 25
f 25 28 29
f 25 27 28
f 25 53 58
f 58 26 25
f 37 38 35
f 40 47 37
f 45 38 37
f 37 47 45
f 37 12 40
f 37 35 12
f 7 6 48
f 48 22 66
f 48 6 22
f 66 2 48
f 2 54 48
f 48 8 7
f 54 8 48
f 40 12 11
f 12 6 11
f 11 6 7
f 7 8 11
f 34 50 49
f 49 60 34
f 50 60 49
f 9 8 21
f 9 11 8
f 9 21 10
f 10 40 9
f 40 11 9
