v 0.000380131548 0.010721824 -0.0069483022
v 0.00957618901 0.00331817729 -0.000864351359
v -0.0106927031 0.0048375593 -0.00338377952
v -0.0109817541 -0.00121349403 -0.00629057379
v -0.00112341015 -0.0052785327 -0.0115944345
v -0.00242582425 -0.00993207547 0.00769464166
v -0.00537987835 -0.00592499256 0.0100538584
v 0.0111272975 -0.00457534846 0.00459583591
v 0.00996466796 -0.00205437955 -0.000389603276
v 0.00661534669 -0.00960098597 0.00321960775
v 0.00537809944 -0.0106007354 0.00402848311
v 0.00083245849 -0.00742693425 -0.00734844661
v 0.00147831584 -0.0114182921 0.00469375309
v -0.00215072798 -0.00778348374 -0.00616510382
v -0.00778718995 -0.00562901937 -0.00438165714
v -0.00369398561 -0.00948723029 0.006508765
v -0.00669501862 -0.00454125724 0.0083152869
v -0.00672808188 -0.00224258861 0.00942974036
v -0.00367100465 0.0117254649 -0.00498510788
v 0.00267698411 0.00709938901 0.00875244868
v 0.0082170666 0.00505164813 0.00302738154
v 0.00581894261 -0.00495152504 -0.00642582076
v 0.0061798791 -0.00143203791 -0.00931844423
v 0.00532120314 0.00480717181 0.0103431427
v 0.0111454659 -0.000513226232 0.00652444535
v 0.00757284844 -0.00937207981 0.00475540594
v -0.00445556747 -0.00794535789 0.00875282559
v 0.00881849256 0.00306040954 0.00856028103
v 0.000652800385 0.00445476419 0.0117827772
v 0.000640816416 -0.0107325516 0.00660991005
v -0.00217384701 0.00263799953 0.0121352759
v -0.00487867094 -0.000943677652 0.0118752288
v -0.00314992599 0.0025735159 0.0120266344
v 0.00474703739 -0.0106500635 0.00511478113
v 0.000869405538 -0.0112520126 0.00598480139
v -0.00251525493 -0.00941677023 0.00817950436
v -0.0051382465 0.000331059667 0.0114537139
v -0.00365524495 0.00285110057 0.0118624729
v -0.000134958696 0.00479302562 0.0118292132
v 0.00333522936 0.00545933745 0.0111171772
v 0.00621975654 0.0052607653 0.0098877787
v 0.00924891795 0.00358765423 0.0080961415
v 0.01068356 -5.48871824e-05 0.00685194284
v 0.00130542225 -0.00441732159 -0.0117571679
v -0.00554072379 -0.00599613851 -0.00969917086
v -0.0086605202 -0.00375123579 -0.00858698011
v -0.0111502579 0.00333798058 -0.00479834935
v -0.000742654797 0.011374164 -0.00570503745
v 0.00366659227 0.00975307608 -0.00610648714
v 0.00422753055 -0.00117256565 -0.0118982664
v 0.00442651141 0.00809563079 -0.00858552999
v -0.007715505 0.00894045663 -0.00312765112
v 0.00308708752 -0.00275230404 -0.0119756892
v 0.00521039667 0.00120728428 -0.0116165066
v 0.00542345186 0.00512519675 -0.0104720238
v -0.0100836478 0.00629427714 -0.00459353024
v -0.0112935871 0.00262423294 -0.00557074197
v 0.00378320026 0.00826508489 -0.00894844869
v 0.00332346747 0.00924845288 -0.00834950112
v -0.00850845008 0.00834556882 -0.0047328537
v -0.00639463656 -0.00502341153 -0.00982040745
v -0.00390346261 0.0109193838 -0.00540147433
v -0.0107921736 0.00036831363 -0.00670462481
v -0.00426629376 -0.0050339866 -0.0108620717
v 0.00301677709 -0.00224376121 -0.0123259978
f 4 18 57
f 17 18 4
f 38 52 3
f 13 45 14
f 14 12 13
f 45 12 14
f 13 12 11
f 45 64 5
f 5 12 45
f 5 64 65
f 38 3 37
f 37 3 18
f 7 18 17
f 63 4 57
f 46 63 64
f 4 63 46
f 56 3 52
f 57 18 47
f 18 3 47
f 47 56 57
f 3 56 47
f 48 19 20
f 41 42 49
f 48 20 49
f 49 20 41
f 44 22 12
f 44 5 65
f 12 5 44
f 26 22 8
f 25 26 8
f 8 23 9
f 22 23 8
f 10 11 12
f 12 22 10
f 26 11 10
f 10 22 26
f 9 23 54
f 23 50 54
f 65 55 54
f 54 50 65
f 26 36 30
f 34 11 26
f 26 30 34
f 34 30 35
f 13 11 34
f 34 35 13
f 6 30 36
f 35 30 6
f 25 42 28
f 28 42 41
f 61 64 45
f 45 46 61
f 61 46 64
f 52 19 60
f 60 56 52
f 60 63 57
f 57 56 60
f 64 63 60
f 41 20 40
f 38 33 39
f 39 20 19
f 29 40 39
f 39 40 20
f 39 52 38
f 39 19 52
f 58 51 55
f 58 55 65
f 65 64 58
f 2 42 25
f 55 51 2
f 51 49 2
f 25 8 2
f 2 8 9
f 2 54 55
f 9 54 2
f 53 44 65
f 22 44 53
f 65 50 53
f 53 23 22
f 53 50 23
f 36 7 27
f 27 6 36
f 27 7 17
f 17 4 27
f 43 26 25
f 25 28 43
f 43 28 26
f 32 7 36
f 32 36 26
f 26 28 32
f 32 37 18
f 18 7 32
f 38 37 32
f 32 33 38
f 48 49 1
f 1 19 48
f 64 60 1
f 1 58 64
f 59 49 51
f 51 58 59
f 59 1 49
f 58 1 59
f 21 49 42
f 42 2 21
f 21 2 49
f 4 46 15
f 15 27 4
f 15 46 45
f 24 32 28
f 24 40 29
f 24 28 41
f 41 40 24
f 33 32 31
f 29 39 31
f 31 39 33
f 31 24 29
f 32 24 31
f 62 60 19
f 19 1 62
f 62 1 60
f 6 27 16
f 27 15 16
f 16 15 45
f 16 45 13
f 13 35 16
f 35 6 16
