v 0.0104972486 -0.00637844827 -0.00288713787
v 0.00690866586 -0.000327370752 0.0110340742
v 0.00103322938 -0.0123929246 0.00213155573
v 0.00415929422 -0.00142204502 0.0116601365
v 0.0110194312 0.00141716263 9.83851841e-05
v 0.0102482899 0.000855005073 -0.00278474096
v 0.0113908402 -0.00427101927 -0.00296999246
v 0.00103079735 -0.00461969563 0.0115811764
v -0.0055312778 -0.00677821896 0.00595266064
v -0.0114562368 0.00510942024 0.00308404052
v -0.0105550491 -0.000974350455 -0.00732495656
v -0.00573760216 -0.00209044881 -0.00961082537
v 0.0017686047 0.00564126482 -0.00996222527
v -0.000483942947 0.00647802328 -0.0111285415
v 0.00197201388 0.00815448778 -0.00894266405
v -0.00438121905 0.0115616224 0.00294146295
v 0.00683813894 -0.00704655115 -0.00651225902
v 0.00162446807 0.00114699771 -0.0100864542
v 0.0125075606 6.10519539e-05 0.00286681798
v -0.00442038426 0.000240469199 0.00867796168
v -0.00831246792 -0.00397415678 0.00281593584
v -0.00187774543 -0.0118728727 0.00363584044
v -0.0121135493 -0.000957465232 -0.00416257935
v -0.00703968525 -0.00422977519 -0.00673190454
v 0.00232533169 -0.0113098216 -0.00298908416
v 0.00806733236 0.00469643137 -0.00210698667
v 0.011579165 0.000980552091 0.0050607015
v 0.00817710563 0.00565570491 0.00280465375
v 0.00684571094 0.00436030198 0.00668788992
v -6.02284578e-05 0.0100646452 0.00378189909
v 0.00237449274 0.00551396868 0.00745228705
v -0.00267292408 0.00528781061 0.00774955489
v 0.00298688315 -0.00110042528 0.0115494608
v -0.0118030113 -0.000337236638 -0.00507392127
v -0.00808045377 0.00927568391 0.00356909351
v -0.00174653882 0.0126763016 -0.000179503056
v 0.00059806702 0.0101982704 -0.00770189657
v -0.00780339883 0.00913593474 0.0045149525
v -0.0123393157 0.00306704251 0.000832725915
v -0.0126223256 0.00149037674 -2.40356949e-05
v -0.00778517313 -0.000216937873 -0.0101770079
v -0.00389811077 0.0021530035 -0.0124093946
v -0.00445305109 0.0023770484 -0.0117494052
v -0.00240558616 0.00369850913 -0.0119966181
v 0.000709409199 0.00915802616 -0.00886599677
v 0.00182402029 0.0107293129 -0.00606397683
v -4.75048889e-05 0.012351515 -0.00346369547
v -0.00508115227 0.011433649 0.00238198859
v -0.00146162074 0.012593762 0.000112912526
v -0.00107786579 -0.0111220462 0.00630084305
v 0.00715733589 0.000318319011 0.0104177822
v 0.00916999282 0.000614061687 0.00905289355
v 0.0126830411 -0.00219211713 -0.000202488325
v 0.010416203 -0.00679963526 -0.00349428394
v -0.000990096018 -0.00780815133 0.00985309801
v 0.000858420684 -0.00551903422 0.0113520116
v 0.00298376861 -0.00348034156 0.0120039564
v 0.0121851239 -0.000258819353 0.00345749733
v 0.00614945806 -0.0107694649 -0.00351289094
v 0.00204612983 -0.0126837956 -0.000465317371
v -6.79945135e-05 -0.011967299 0.00417554286
v -1.08541457e-05 -0.00806155526 0.00997218105
v 0.00456648295 -0.0117400189 -0.00208781528
v 0.00288649664 -0.00414794424 0.0114989656
f 28 5 26
f 15 26 6
f 6 5 53
f 26 5 6
f 14 45 15
f 42 43 14
f 7 6 53
f 42 18 17
f 37 14 43
f 45 14 37
f 52 2 58
f 38 20 32
f 42 17 12
f 38 35 10
f 10 20 38
f 34 37 43
f 35 37 34
f 44 18 42
f 42 14 44
f 44 14 18
f 18 14 13
f 13 17 18
f 7 17 13
f 13 14 15
f 15 6 13
f 6 7 13
f 15 45 46
f 45 37 46
f 46 26 15
f 37 47 46
f 46 28 26
f 46 47 28
f 5 28 19
f 53 5 19
f 19 58 53
f 64 2 57
f 64 58 2
f 54 7 53
f 54 17 7
f 54 59 17
f 2 32 33
f 33 32 20
f 31 32 2
f 49 30 28
f 49 47 36
f 28 47 49
f 28 30 29
f 30 31 29
f 38 32 16
f 30 49 16
f 32 31 16
f 16 31 30
f 16 49 36
f 42 12 41
f 41 43 42
f 41 34 43
f 11 34 41
f 11 41 24
f 24 41 12
f 39 10 35
f 35 34 39
f 40 10 39
f 39 34 40
f 60 3 22
f 22 24 60
f 57 33 8
f 8 33 20
f 20 10 9
f 9 55 20
f 9 10 40
f 40 21 9
f 50 55 9
f 9 22 50
f 27 19 28
f 27 29 52
f 28 29 27
f 52 58 27
f 58 19 27
f 50 22 61
f 61 22 3
f 62 64 57
f 62 55 50
f 50 61 62
f 3 64 62
f 62 61 3
f 25 12 17
f 17 59 25
f 60 24 25
f 25 24 12
f 1 64 3
f 58 64 1
f 53 58 1
f 1 54 53
f 57 2 4
f 4 33 57
f 2 33 4
f 51 31 2
f 51 29 31
f 51 2 52
f 52 29 51
f 48 16 36
f 36 47 48
f 48 35 38
f 38 16 48
f 48 37 35
f 48 47 37
f 23 34 11
f 40 34 23
f 23 21 40
f 22 9 23
f 23 9 21
f 11 24 23
f 24 22 23
f 57 8 56
f 56 62 57
f 55 62 56
f 20 55 56
f 56 8 20
f 63 1 3
f 54 1 63
f 59 54 63
f 63 3 60
f 60 25 63
f 63 25 59
