v -0.00342465781 -0.00638048545 0.0104445005
v 0.00501072452 -0.011504415 0.00185757929
v -0.00437969237 0.00108611229 0.00964925395
v 0.00439127589 0.00751752763 0.00469573167
v 0.00709779911 0.0040017137 0.00992316484
v 0.00944756241 0.00317272978 0.00748039361
v 0.00735539023 0.00678500547 -0.000331120241
v 0.00108808184 0.0111218134 -0.00620310089
v -0.00145012412 0.0117589638 -0.0029219378
v -0.0121631801 0.00243070417 -0.00346711175
v -0.00721033001 -0.00406046649 -0.00982253197
v 0.00282396069 -0.000285209282 -0.0118130695
v 0.0100216301 -0.00131212929 -0.00287689223
v 0.0036493392 0.00319400801 -0.0121195611
v -0.00276766703 0.010100793 0.00210801848
v 0.000268607548 0.00957160113 0.00208234974
v -0.00619715475 0.00886797297 0.00149655323
v -0.00240424128 0.00542137147 0.00785972891
v -0.00868177973 0.00311936798 0.00336261595
v -0.0113907072 -0.00121056022 -0.00497454611
v -0.00600388045 -0.00574557621 0.00720897917
v -0.0093560118 -0.00398288334 -0.00607801718
v -0.00319715952 -0.00985532902 0.00705134752
v -0.00439728527 -0.0077578084 -0.00347255592
v -0.000214023325 -0.0110003553 0.000864275777
v -0.00229225098 -0.00494392998 -0.0112963267
v 0.00686097167 -0.00926829395 -0.000328494131
v -0.00870615549 -0.00277876974 -0.00879837918
v -0.0114202921 0.000643951805 -0.0053409787
v -0.000689554438 0.0118761826 -0.00489221375
v -0.00366136091 0.0119089888 -0.00314016095
v 0.00189097308 0.00143430895 -0.0123931667
v -0.00951346496 0.00783958136 -0.00235451566
v -0.00919233596 0.00873935564 -0.00144654281
v -0.00440912495 -0.00345604441 -0.0114936149
v 0.00414914818 0.00693015766 -0.00983687704
v 0.00267758192 0.00968028973 -0.00799729699
v -0.00617789369 0.0108561352 -0.00171549425
v -0.00743473105 0.0100846318 -0.00218274605
v -0.00955975851 0.00772749835 -0.000297477944
v -0.0104566211 0.00699360273 -0.00219066809
v -0.0116405181 0.00441982449 -0.00214458189
v -0.011832449 0.000427835132 -0.00498417235
v -0.00864747789 -0.00345423567 -0.00882986948
v -0.000112651634 -0.00191257263 -0.012547473
v -0.000588993134 -0.00160322135 -0.0126284207
v 0.00926776509 -0.0086592759 0.00128266657
v 0.0117762977 0.000293944183 0.00475481715
v 0.0103644086 0.0022265425 0.00718612134
v -0.00246747764 -0.000940045186 0.0127479703
v 0.00359615257 -0.0119827072 0.00309326552
v -0.00434359219 -0.00505113313 0.0111830916
v 0.00322629822 0.00372412826 0.0116578573
v 0.0111323128 -0.00572999112 0.0019720719
v 0.00950902416 -0.00853144646 0.00198334868
v -1.15466145e-05 -0.0117080507 0.00518693
v -0.00303667316 -0.00891068662 0.00851847678
v 0.000662044917 0.00218097022 0.0126469202
v 0.00432163049 -0.0115147284 0.00305993517
v -0.00146627409 -0.0108173523 0.00690388999
v 0.00253808926 0.00262046979 0.0122058689
v -0.00203629817 -0.00143309264 0.012462154
v 0.00892904894 0.00264750559 0.00862194111
v 0.0120619544 -0.00233496509 0.00379094007
f 3 19 50
f 63 55 64
f 19 3 40
f 45 27 26
f 23 20 22
f 52 62 50
f 52 1 62
f 50 19 52
f 57 52 23
f 1 52 57
f 51 55 59
f 62 1 60
f 55 63 60
f 60 59 55
f 1 57 60
f 60 56 51
f 51 59 60
f 23 56 60
f 60 57 23
f 54 13 64
f 47 13 54
f 64 55 54
f 54 55 47
f 12 13 47
f 12 27 45
f 47 27 12
f 64 13 48
f 7 48 13
f 18 40 3
f 18 3 50
f 50 58 18
f 18 53 15
f 58 53 18
f 31 30 39
f 42 41 10
f 40 41 42
f 19 40 42
f 10 52 42
f 42 52 19
f 39 41 34
f 34 41 40
f 45 26 46
f 2 26 27
f 2 27 47
f 2 55 51
f 47 55 2
f 24 22 11
f 24 56 23
f 23 22 24
f 10 20 21
f 21 52 10
f 21 20 23
f 23 52 21
f 13 12 14
f 14 12 45
f 5 53 61
f 61 53 58
f 61 63 5
f 50 62 61
f 61 58 50
f 62 60 61
f 61 60 63
f 37 30 8
f 8 7 37
f 30 7 8
f 17 18 15
f 40 18 17
f 17 34 40
f 4 7 30
f 5 6 4
f 4 6 7
f 4 16 15
f 15 53 4
f 4 53 5
f 15 31 38
f 38 31 39
f 38 17 15
f 39 34 38
f 34 17 38
f 30 31 9
f 9 4 30
f 16 4 9
f 15 16 9
f 9 31 15
f 35 26 11
f 35 46 26
f 11 28 35
f 35 28 46
f 43 20 10
f 44 22 20
f 20 43 44
f 44 43 28
f 11 22 44
f 44 28 11
f 33 41 39
f 39 30 33
f 11 26 25
f 25 24 11
f 25 2 51
f 26 2 25
f 51 56 25
f 56 24 25
f 36 14 37
f 13 14 36
f 37 7 36
f 36 7 13
f 45 46 32
f 32 14 45
f 37 14 32
f 32 30 37
f 32 33 30
f 46 28 32
f 48 7 49
f 7 6 49
f 49 63 64
f 64 48 49
f 5 63 49
f 49 6 5
f 28 43 29
f 29 32 28
f 33 32 29
f 41 33 29
f 10 41 29
f 29 43 10
