v 0.00413434237 0.0110453599 -0.00470685
v 0.0125727508 0.0016022272 -0.00126720023
v 0.0123085106 0.000476599425 0.002868664
v 0.00501524213 0.00502678715 0.0108119344
v -0.000217816976 0.0114332242 0.00602632919
v -0.000508470199 0.0121661595 -0.00114510121
v 0.00556610022 0.00885111213 -0.00666458413
v 0.0119449102 0.00251434071 -0.00372830946
v 0.0128556983 0.000300114547 0.000415890851
v 0.00432271116 -0.00744927157 0.00536099274
v 0.00876332782 0.00129324886 0.00908528629
v -0.000867012128 0.00295404743 -0.00932359254
v -0.0011366352 -0.0120921783 0.00271726005
v 0.00438439451 -0.00844938177 -0.00424717067
v -0.00135965665 -0.00821860378 -0.00933367857
v -0.00960984289 0.0010336951 -0.00739315272
v -0.00960131898 -0.00100327482 -0.00842835179
v -0.0121809655 0.000304571577 -0.00387728189
v -0.0114044312 -0.00257597647 0.00443725051
v -0.00759383865 -0.00645326634 0.00728347457
v 0.00122318306 0.000621441342 0.0100268856
v 0.0062910517 0.000131856144 0.00998414291
v 0.0119137011 -0.000934312483 0.00429912947
v 0.0107147725 -0.00143269805 -0.00243980912
v 0.00498859039 -0.00384287102 -0.00722304053
v 0.0102923498 0.00269051223 -0.00582034391
v 0.00800886002 0.00753019491 -0.00685184158
v 0.00213486103 -0.00431952611 -0.00900985045
v -0.00334591219 0.0069595011 -0.00565223516
v -0.00517529795 0.00771051962 -0.00231127561
v -0.00870312577 0.00498938966 -4.26291616e-05
v -0.0115804383 -0.00113994403 0.00381383193
v -0.012398811 -0.000514082125 -0.00249823885
v -0.00506714929 -0.0103877407 0.00585003386
v -0.00736932841 -0.00310269161 -0.0102927493
v -0.0092402531 -0.00647362238 0.00591388337
v -0.0127865577 -0.000859470381 0.000420381061
v -0.0111628227 -0.000743661931 -0.00571850056
v -0.000594663081 -0.012459735 -0.00197136113
v -0.000999380849 -0.012796357 0.000816020678
v -0.00772774292 -0.00768354259 0.00658334823
v -0.00358633124 -0.0113670115 0.00451753811
v -0.00236386801 -0.0118424512 0.00372269521
v 0.000702325855 -0.0121606076 -0.0034123032
v -0.000103690989 -0.0126291643 -0.000563920606
v -0.000492239442 -0.0115463389 -0.00529478767
v -0.000974601875 -0.00923790184 -0.0085838647
v -0.00355290201 -0.00565801857 -0.010757185
v -0.000971495471 -0.0097369647 -0.0083116385
v -0.00353155701 -0.00666574273 -0.0102955449
v -0.00634072332 -0.00320006962 -0.0104571813
v -0.00836167198 -0.00194571024 -0.00944831374
v -0.010717457 8.70544933e-06 -0.00659601511
v -0.0119462863 -0.000448528211 -0.0040381515
v -0.0120473043 -0.00231890559 0.00342424223
v -0.00951147161 -0.0055705302 0.00709559367
v 0.00295402244 0.0116312964 -0.00462117763
v 0.00059008078 0.00923650485 0.00874352372
v 0.00268030995 0.00791569648 0.00963257037
v 0.0102350725 0.00523184972 -0.0057242306
v 0.0101623153 0.00106731006 0.00769024108
v 0.00357700824 0.0115149425 -0.00407314701
v 0.0116661899 0.000356393165 0.00489816951
v 0.0010030158 0.0106333623 0.00663885525
v 0.000658299013 0.0124170015 0.00220437872
v 0.00051792081 0.0127709894 0.000403276955
f 4 58 56
f 32 56 58
f 32 31 37
f 23 10 45
f 23 14 9
f 37 31 18
f 16 18 30
f 30 18 31
f 5 32 58
f 31 32 5
f 5 65 66
f 66 65 62
f 62 57 66
f 65 2 62
f 12 27 48
f 44 49 14
f 44 23 45
f 14 23 44
f 4 11 61
f 61 11 10
f 10 23 61
f 48 15 50
f 50 15 49
f 55 32 37
f 37 36 55
f 55 36 56
f 56 36 41
f 36 34 41
f 10 11 22
f 22 34 10
f 22 11 4
f 16 17 53
f 53 18 16
f 17 38 53
f 53 38 18
f 16 30 6
f 66 57 6
f 6 30 31
f 6 5 66
f 31 5 6
f 64 5 58
f 65 5 64
f 64 2 65
f 64 61 2
f 1 62 27
f 57 62 1
f 27 12 7
f 7 12 57
f 7 1 27
f 57 1 7
f 48 50 35
f 35 38 17
f 36 38 35
f 49 44 46
f 46 50 49
f 46 35 50
f 36 35 46
f 49 15 47
f 9 2 3
f 2 61 3
f 3 23 9
f 56 32 19
f 19 55 56
f 32 55 19
f 45 10 40
f 10 13 40
f 10 34 43
f 43 13 10
f 43 40 13
f 20 41 34
f 34 22 20
f 56 41 20
f 18 38 54
f 16 6 29
f 29 6 57
f 29 12 16
f 57 12 29
f 4 61 59
f 61 64 59
f 59 58 4
f 59 64 58
f 51 12 48
f 48 35 51
f 51 35 12
f 16 12 52
f 12 35 52
f 52 17 16
f 52 35 17
f 39 34 36
f 36 46 39
f 39 40 34
f 39 46 44
f 39 44 45
f 45 40 39
f 63 61 23
f 23 3 63
f 63 3 61
f 34 40 42
f 42 43 34
f 40 43 42
f 21 22 4
f 21 20 22
f 4 56 21
f 56 20 21
f 33 38 36
f 33 54 38
f 33 36 37
f 37 18 33
f 18 54 33
f 49 47 25
f 14 49 25
f 60 26 27
f 27 62 60
f 60 62 2
f 9 14 24
f 14 25 24
f 24 25 26
f 28 47 15
f 28 25 47
f 28 15 48
f 26 25 28
f 48 27 28
f 27 26 28
f 8 24 26
f 8 60 2
f 26 60 8
f 8 2 9
f 9 24 8
