v -0.00542563093 -0.00659937127 0.00946208678
v -0.00598669012 0.00628543674 0.00953915767
v 0.00796086085 -0.00427307866 0.00849680666
v 0.00225726504 -0.00907064919 0.00836452015
v -0.00927621038 0.00101913039 0.00796589753
v -0.00682836198 0.00597018917 0.00885042796
v -0.0021191471 0.00883783275 0.00853741475
v 0.00449941151 0.00807799975 -0.00616014999
v 0.00235888005 0.00887296181 -0.0086268278
v -0.00897021281 0.00156046744 -0.00886938859
v -0.00927729084 -0.00106934874 -0.00914602839
v -0.00395210132 -0.00892705009 -0.0026644491
v -0.00365449165 -0.00829220344 -0.0083425081
v 0.00792982885 -0.00397669105 -0.00933485695
v 0.00876722328 -0.00293848832 -0.00616014999
v 0.00911846007 0.00139649824 -0.00851698088
v 0.00771312879 0.004555146 -0.00888383373
v 0.00554688147 0.00783560417 0.0015582556
v -0.00117812783 0.00980644346 0.00462946163
v -0.00755497346 0.00623067184 -0.000564289053
v -0.00858641778 0.00428049126 0.000955554642
v -0.00941508839 0.00115296213 -0.00267910251
v -0.00933511842 -0.00250837361 0.00267561116
v -0.00788218922 -0.00505751235 -0.00641144049
v 0.000650074339 -0.00960189794 -0.000340381351
v 0.00572871731 -0.00846395573 9.58229323e-05
v 0.00935990172 -0.00228007083 0.00462955672
v 0.00946183811 0.000845113374 0.00133910377
v 0.00608500783 0.00727697595 0.0083463479
v 0.00755176537 -0.00267086347 -0.00950003666
v 0.00167720426 0.00831749408 -0.00946248313
v 0.00675532811 -0.00586614926 -0.00885010761
v 0.0037585523 -0.00792082224 -0.00942440656
v -0.00572776506 -0.00689132511 -0.00886907458
v 0.00611986256 -0.0064207802 -0.00932129318
v -0.00810671662 -0.00182226674 -0.00946832339
v 0.00730715813 0.00477734089 -0.00936970583
v 0.00736475769 0.00609998224 -0.00801278234
v 0.00479692039 0.00717386976 -0.00942257448
v -0.00231164182 0.00880738794 -0.0092232154
v -0.00465689201 0.00787707047 -0.00891482509
v -0.00596709464 0.00634396828 -0.00939507963
v -0.00756122517 0.00445075422 -0.0093568637
v -0.00693885646 -0.00528478127 -0.00943359208
v -0.00379151395 -0.00805997134 -0.00911988627
v -0.00274301726 -0.007854622 -0.00947113406
v -0.000161248852 -0.00899035807 -0.00921885246
v 0.00881563536 -0.00209601689 -0.00913607387
v 0.0082914692 0.00154061331 -0.00945273914
v -0.00768933375 -0.00507165755 0.00804152565
v -0.000908224476 -0.00930180442 0.00873005975
v 0.00856207606 -0.0019512559 0.00935082099
v 0.00902349548 0.00150238143 0.00880569783
v 0.00688074525 0.00559718069 0.0093705833
v 0.00663003285 -0.00609022343 0.00926570562
v 0.0043535762 -0.00782473523 0.00887434347
v -0.00887663399 -0.000924671111 0.00919572954
v 0.00352416031 0.00810208003 0.00906490284
v 0.00364753183 -0.00772793441 0.00954403526
v -0.00749761294 -0.00387260017 0.00949257767
v -0.00827283745 0.0029774632 0.00929438348
v 0.00811891646 0.00226316121 0.00946072111
v -0.0065829743 -0.00626976247 0.00904214293
v -0.00339802452 0.00810612641 0.00931551372
v -0.00149228396 -0.0086622911 0.00946679176
v 0.000444078577 0.00885759957 0.00928921553
f 47 26 25
f 22 21 10
f 25 26 4
f 12 47 25
f 9 38 39
f 38 37 39
f 16 38 28
f 20 10 21
f 8 38 9
f 9 18 8
f 8 18 38
f 19 18 9
f 9 40 19
f 19 40 41
f 41 20 19
f 30 46 36
f 36 46 44
f 33 46 30
f 47 46 33
f 26 47 33
f 14 15 26
f 26 32 14
f 25 4 51
f 51 12 25
f 22 23 5
f 23 57 5
f 5 57 61
f 5 21 22
f 61 21 5
f 66 19 7
f 54 66 2
f 63 24 12
f 63 51 65
f 12 51 63
f 44 46 45
f 45 46 47
f 49 39 37
f 37 16 49
f 49 14 30
f 17 37 38
f 38 16 17
f 17 16 37
f 10 20 43
f 35 14 32
f 35 32 26
f 26 33 35
f 35 33 30
f 30 14 35
f 26 3 55
f 52 55 3
f 26 15 27
f 27 3 26
f 27 52 3
f 27 16 28
f 58 66 54
f 18 19 58
f 19 66 58
f 64 66 7
f 64 2 66
f 7 19 64
f 64 19 20
f 61 2 6
f 6 21 61
f 6 20 21
f 6 64 20
f 2 64 6
f 50 57 23
f 23 24 50
f 24 63 50
f 57 50 60
f 60 50 63
f 61 57 60
f 60 2 61
f 34 24 44
f 44 45 34
f 12 24 34
f 47 12 13
f 13 45 47
f 12 34 13
f 13 34 45
f 48 49 16
f 14 49 48
f 15 14 48
f 48 27 15
f 16 27 48
f 10 43 11
f 11 43 36
f 11 24 23
f 11 36 44
f 44 24 11
f 11 23 22
f 22 10 11
f 30 36 31
f 31 49 30
f 39 49 31
f 31 40 9
f 9 39 31
f 56 4 26
f 26 55 56
f 28 38 53
f 53 27 28
f 52 27 53
f 18 58 29
f 29 58 54
f 38 18 29
f 29 53 38
f 54 53 29
f 1 63 65
f 65 60 1
f 1 60 63
f 36 43 42
f 42 31 36
f 40 31 42
f 41 40 42
f 42 20 41
f 42 43 20
f 59 56 55
f 55 52 59
f 4 56 59
f 65 51 59
f 59 51 4
f 59 60 65
f 2 60 59
f 62 53 54
f 52 53 62
f 62 59 52
f 54 2 62
f 2 59 62
