v 0.000421111291 -0.00980563397 -0.00722517226
v -0.00267765823 -0.00602774237 -0.0105236034
v -0.00532234186 -0.00494158161 -0.0105343434
v -0.0100636295 -0.00337955044 0.00596905443
v -0.000199228823 -0.00721417217 -0.00968426188
v -0.0109371214 0.0031743539 -0.00103349905
v 1.12955418e-05 0.00880541473 0.00847420457
v 0.000113894234 0.0118199602 0.00498080894
v -0.000212487208 0.0125474126 0.00159195611
v 0.00106718165 0.0125710145 -0.00163858096
v 0.00400025575 0.00871423376 -0.00717722184
v 0.00667526952 0.00826675601 -0.0067664774
v -0.00110690771 -0.0118546801 0.00416927508
v 0.0108217015 -0.000316733533 0.00617016635
v 0.00611741232 -0.00183334243 0.00867261959
v 0.00164528745 0.0068343269 0.00995629773
v 0.00929614237 0.00604485897 -0.00658191117
v 0.00178196697 0.00246072861 -0.00923456631
v -0.00169166328 0.00680488561 0.00868900826
v -0.000924333116 0.010437376 0.00641523572
v -0.00422200859 0.00851459457 0.00358076819
v -0.0116502448 -0.00150887791 0.00387270297
v -0.00577779169 0.00650527101 -0.0046944615
v 0.00908737525 0.000534247792 -0.00572888958
v 0.00921113636 -0.00377201603 -0.00134487168
v 0.00153982786 -0.00992812174 -0.00591381761
v 0.00110609147 -0.0119446886 -0.000753289784
v 0.00587995993 -0.00751390487 -0.00181706495
v 0.012205109 -0.000365779274 0.0037395897
v -0.000182160705 -0.00556918514 0.00801165733
v 0.00169895645 -0.00108546561 0.00959795683
v 0.00243872939 0.00374033468 0.0107967836
v 0.0126922663 0.00091395917 0.000464821767
v 0.0053269188 0.0101765796 -0.00569109839
v 0.00628188433 0.00384094767 0.0104920642
v 0.00163004551 0.0120185382 -0.00320077313
v 0.00793334714 0.00240780072 0.00995175265
v 0.000962767294 0.0126469868 0.000245163547
v 0.002636267 0.00782450329 0.00971753941
v 0.00458895819 0.00515688469 0.0107195336
v 0.00164595336 0.00933560582 0.00863872665
v 0.000611526325 0.0106305193 0.00692842191
v 0.00256777456 0.0121459674 -0.00300410552
v 0.00880002749 0.00696543814 -0.00617985369
v 0.0113496351 0.00352749167 -0.00478746094
v 0.0120143045 0.00108498092 -0.00349509932
v 0.0127263384 3.89156089e-05 0.000650445613
v 0.010302419 0.000854787043 0.00764270099
v -0.0104657274 -0.00491674956 0.00577206023
v -0.0126466971 8.5091359e-05 -0.000748017125
v -0.00989656808 -0.00104819852 -0.00820352169
v -0.00753657209 0.000431409631 -0.00965241381
v 8.70864789e-06 -0.0107174602 -0.00659601511
v -0.00412412042 -0.00551640225 -0.010631679
v -0.0124824699 -0.00124130013 0.00176640531
v -0.00843529798 -0.00618168284 0.00685060197
v -0.00635565035 -0.00897191886 0.00670729072
v -0.00117305785 -0.00965732458 -0.00853534579
v -0.00706926825 -0.00322249713 -0.0101117006
v -0.00218834384 -0.0122920883 0.00227093105
v -0.000367570567 -0.0127377541 -0.000103564014
v -0.0114506855 -6.17002266e-05 -0.00578719814
v -0.0122493299 -0.00218180925 8.04447638e-05
v -0.0113512087 -0.00408250142 0.00485614813
v -0.00548985322 -0.0100169321 0.0055452787
v 7.82715524e-05 -0.0122595523 -0.00382662657
f 32 57 31
f 31 35 32
f 56 57 32
f 54 52 18
f 61 13 60
f 63 58 60
f 30 31 57
f 15 31 30
f 57 13 30
f 30 13 15
f 37 31 15
f 35 31 37
f 15 48 37
f 1 46 26
f 26 46 28
f 61 60 66
f 66 60 58
f 66 26 28
f 2 58 54
f 54 18 2
f 32 19 4
f 4 56 32
f 29 28 47
f 15 13 14
f 14 48 15
f 13 29 14
f 14 29 48
f 47 46 33
f 33 29 47
f 48 29 33
f 47 28 25
f 25 46 47
f 28 46 25
f 11 18 52
f 59 51 52
f 62 63 50
f 62 51 63
f 62 23 52
f 52 51 62
f 65 13 57
f 65 60 13
f 63 60 65
f 65 64 63
f 53 58 1
f 53 66 58
f 1 26 53
f 26 66 53
f 61 66 27
f 27 66 28
f 28 29 27
f 27 13 61
f 27 29 13
f 58 2 5
f 1 58 5
f 5 46 1
f 5 18 17
f 5 2 18
f 57 56 49
f 49 65 57
f 64 65 49
f 56 4 49
f 4 64 49
f 50 63 55
f 63 64 55
f 45 33 46
f 44 45 17
f 33 45 44
f 38 9 8
f 8 9 21
f 32 35 40
f 35 39 40
f 41 37 48
f 48 33 41
f 35 37 41
f 41 39 35
f 33 44 41
f 38 8 41
f 41 8 42
f 42 7 41
f 41 7 39
f 16 19 32
f 32 40 16
f 16 40 39
f 16 7 19
f 39 7 16
f 52 23 36
f 36 11 52
f 17 18 12
f 18 11 12
f 12 44 17
f 3 52 54
f 3 59 52
f 54 58 3
f 3 58 63
f 63 51 3
f 51 59 3
f 6 62 50
f 23 62 6
f 6 9 23
f 21 9 6
f 50 55 6
f 22 64 4
f 22 55 64
f 22 4 19
f 21 6 22
f 22 6 55
f 46 5 24
f 24 45 46
f 24 5 17
f 17 45 24
f 20 8 21
f 19 7 20
f 20 7 42
f 42 8 20
f 20 22 19
f 21 22 20
f 38 41 43
f 43 41 44
f 23 9 10
f 10 36 23
f 10 9 38
f 38 43 10
f 10 43 36
f 44 12 34
f 34 43 44
f 34 12 11
f 11 36 34
f 36 43 34
