v 0.0124287709 -0.000873790208 -0.00275345303
v 0.00496356678 -0.00847156008 -0.00765285684
v 0.00124743962 -0.0121437227 -0.00368516993
v 0.0114342652 -0.00193220765 0.00522316124
v 0.00205842225 -0.0102594463 -0.00691392223
v 8.01865952e-05 -0.0120083341 -0.00362173935
v -0.00306163566 -0.00807793504 0.00521466419
v 0.00168461287 -0.0100001159 0.0071060713
v 0.00469833358 -0.00724980324 0.00918630178
v 0.0100696854 -0.00282329828 0.00749868896
v 0.0113756901 -0.000846601614 0.0052341004
v 0.0121323538 0.000637752486 -0.00201953223
v 0.00874749965 -0.00362298123 -0.00831463854
v 0.00911510844 -0.000935332191 -0.00786853942
v -0.00483204579 0.00686116029 0.00911400972
v -0.00867454193 0.0033759927 -0.00825516164
v -0.00760046645 0.00385949789 -0.0089287438
v 0.00631684169 -0.00511746941 -0.00926531925
v 0.00528774218 0.00531180597 -0.00590582215
v 0.00182093338 0.0111808484 -0.001963578
v 0.00208080478 0.00948161259 0.00520578901
v -0.00190118294 0.00985979781 0.00741260454
v 0.0087228505 -0.00340452535 0.00838542848
v 0.00309203436 -0.000397472966 0.00927171291
v -0.00686630896 0.00231531926 0.0090459872
v -0.0118189288 -0.00137752145 0.00137315285
v -0.00637904408 -0.00321785259 -0.00709044016
v 0.000585218806 -0.00384926955 -0.00930977762
v -0.00118219664 0.0122306061 -0.00295741369
v -0.00631422862 0.00678741318 -0.00904498633
v -0.0092944299 0.00414059372 -0.00714887893
v -0.00324095678 0.0101947309 -0.00653700491
v -0.00280823183 0.0104832807 0.00683969115
v -0.00493250552 0.0083839524 0.00820312846
v -0.0114906152 0.001531201 -0.0055259226
v -0.0128010645 0.000538612749 -0.00091505109
v -0.0123948937 0.000746852164 0.00312681481
v -0.0106536138 0.00248410544 0.00661749967
v -0.00285640235 0.0102531705 -0.00711346535
v -0.00711112415 0.0061989925 0.00870180797
v -0.00282957835 0.00845638394 -0.00829212279
v -0.00137022591 0.0112912303 -0.0059680414
v -0.0002401164 0.012362672 -0.00259985257
v -0.000163564084 0.0128429471 0.00172576568
v -0.000861239971 0.0123494399 0.00329541228
v -0.00575681264 0.00706295116 0.00878699452
v -0.00819279145 0.00466045112 0.00858550918
v -0.0107861866 0.0026325502 0.00604387988
v -0.00975520245 0.00312897481 0.00753985425
v -0.011423209 0.000711100592 0.00538831264
v -0.0121152681 -0.000296099726 -0.00267532099
v -0.009477068 0.00358954309 -0.0077624298
v 0.012788395 -0.000122810313 0.00147410045
v 0.00210376018 -0.0111278654 -0.00612549586
v -0.000824200145 -0.0124973026 0.000976757855
v 0.00568630839 -0.00767411373 0.00872505797
v 0.0118203587 -0.000999292302 -0.00441769928
v 0.000122854473 -0.0128727911 0.000677686897
v 0.00832585413 -0.00507463477 0.00807439916
v 0.000874161077 -0.0124885944 0.00153048454
v 0.00134103153 -0.0119111406 0.00449612112
v 0.00310339261 -0.0101596128 0.00701197086
v 0.00488781291 -0.00821230933 -0.00866106951
v 0.0105661861 -0.00284085025 -0.00702694645
f 6 51 27
f 5 27 28
f 28 63 5
f 36 51 26
f 50 8 25
f 25 8 9
f 28 27 17
f 17 30 28
f 20 44 53
f 42 14 41
f 54 6 27
f 27 5 54
f 63 2 54
f 54 5 63
f 36 26 37
f 37 26 50
f 15 25 24
f 24 25 9
f 4 1 53
f 15 24 22
f 59 4 10
f 7 8 50
f 50 26 7
f 8 7 61
f 62 56 9
f 9 8 62
f 8 61 62
f 27 51 35
f 35 51 36
f 43 20 42
f 44 20 43
f 53 1 12
f 12 20 53
f 18 63 28
f 18 13 63
f 28 30 18
f 30 41 18
f 14 13 18
f 18 41 14
f 64 13 14
f 1 4 64
f 64 2 63
f 63 13 64
f 64 59 2
f 4 59 64
f 42 41 39
f 39 41 30
f 30 32 39
f 23 24 9
f 23 59 10
f 10 22 23
f 23 22 24
f 9 56 23
f 56 59 23
f 34 46 15
f 15 22 34
f 21 22 10
f 53 44 21
f 55 7 26
f 55 6 58
f 58 61 55
f 55 61 7
f 51 6 55
f 55 26 51
f 60 59 56
f 56 62 60
f 60 62 61
f 60 61 58
f 40 25 15
f 40 47 25
f 15 46 40
f 46 34 40
f 50 25 49
f 25 47 49
f 47 40 49
f 16 17 27
f 27 35 16
f 31 35 36
f 31 32 30
f 44 43 29
f 29 43 42
f 42 39 29
f 29 39 32
f 19 14 42
f 42 20 19
f 20 12 19
f 1 64 57
f 57 64 14
f 57 12 1
f 14 19 57
f 57 19 12
f 33 34 22
f 33 29 34
f 10 4 11
f 11 21 10
f 11 4 53
f 53 21 11
f 3 54 2
f 2 59 3
f 59 60 3
f 3 60 58
f 58 6 3
f 6 54 3
f 38 37 50
f 50 49 38
f 38 49 40
f 52 16 35
f 35 31 52
f 52 31 30
f 30 17 52
f 17 16 52
f 44 29 45
f 29 33 45
f 45 33 22
f 45 21 44
f 22 21 45
f 36 37 48
f 37 38 48
f 48 38 40
f 48 31 36
f 48 40 34
f 34 29 48
f 32 31 48
f 48 29 32
