v 0.00254531311 0.0122510992 0.00318331984
v 0.00259727412 0.00827343163 -0.00901608887
v 0.000680108313 0.0109721298 -0.00652979671
v 0.00502121858 0.00534316664 -0.0103310558
v 0.000778513026 0.00986255542 -0.00805495961
v 0.0123603269 -0.000321462681 -0.000783467464
v -0.00857114949 -0.00122454265 0.00910337699
v -0.00965970876 0.000535305613 0.00766448861
v -0.0115557802 0.00123247512 0.00410708136
v 0.00214691762 -0.00750971795 -0.00713327087
v -0.003695892 -0.0112482427 -0.00526560663
v 0.00272133014 -0.00877588295 -0.00436146144
v -0.000985155018 -0.0122242578 -0.002208398
v 0.000903272824 -0.00755983197 0.00865612179
v -0.00134937309 -0.0094766659 0.00855867371
v -0.00254150958 -0.00729164174 0.0101711938
v 0.00245105275 -0.0102760204 0.00344128786
v 0.00106356351 -0.0120052128 0.000904271397
v -0.00528049203 -0.00374966946 0.0110509656
v 0.00891175857 0.00643506407 0.00703398291
v -0.00120762908 -0.000113697226 -0.00979245019
v 0.000245598588 0.00987094202 -0.00836727
v 0.000780002252 0.00451913103 -0.0102495602
v 0.00158199747 0.00695507456 0.00774752617
v 0.010072124 0.0048983138 0.00616415546
v 0.0113702071 0.00158603397 0.00420740369
v 0.00630685918 -0.00699081322 0.00197676062
v 0.0100081243 -0.00274047995 0.00146556298
v 0.00718413839 -0.00601905667 -0.00193314375
v 0.00822710499 -0.0040193659 -0.00454867118
v 0.00977499819 0.0010426154 -0.00837855116
v 0.00456159275 0.000308059449 -0.00994178249
v 0.00283850204 0.00707041734 -0.0103169541
v 0.00418542871 0.00486308254 -0.0106823903
v -0.0116801949 -0.000294453149 -0.00356643659
v -0.00438934292 0.00916211849 -0.00197736257
v 0.000257108761 0.0124997292 0.00140750247
v -0.00317403764 0.00664067806 0.00612792082
v -0.0125287776 -0.00030690569 0.00265848537
v -0.000593500791 -0.011505745 0.00520047598
v -0.00812761928 -0.00759662249 -0.00606910172
v -0.000731596859 -0.0123953231 0.00189335524
v -0.00556485189 -0.00481789065 0.0103822386
v -0.0050753493 -0.00463443732 0.0107245641
v -0.00967701527 -0.00125060318 0.00827764465
v -0.0111435804 -0.00408667703 -0.00494422066
v -0.00787386933 -0.00745311868 -0.00683795691
v -0.00810478804 -0.00579511491 -0.00724696322
v 0.0015750276 -0.00985788153 0.00662562792
v -0.00128274452 -0.012719453 -0.0010107436
v 8.88150311e-05 -0.0120727132 0.00438470982
v -0.012176545 -0.00232620682 -0.00254068148
v -0.0119465056 -0.00133450037 -0.00311934577
v -0.0124752398 -0.000929968301 -0.0017554741
v -0.0127631953 -0.000237744724 0.000635139754
v -0.0113256491 -0.00059770544 0.00566376251
v -0.00045700453 0.0118379108 -0.00413659925
v 3.13806472e-07 0.0124800299 -0.00264703332
v 0.0115681415 4.21474892e-05 -0.005366273
v 0.0032555715 0.0114582257 0.00494647541
v 0.0128406166 0.000813669633 0.000217852052
v 0.00810285495 0.00769077147 0.0062309319
v 0.0122073293 0.00231162115 0.00291827283
v 0.000662436573 0.0123262397 -0.00232152761
v 0.00680596825 0.00327733123 -0.010399539
v 0.0126019404 -6.06328863e-05 -0.00298774269
f 31 30 10
f 55 35 54
f 59 30 31
f 50 13 18
f 21 10 47
f 21 23 34
f 31 10 32
f 32 21 34
f 10 21 32
f 47 10 11
f 11 10 13
f 11 13 50
f 50 41 11
f 11 41 47
f 12 10 30
f 13 10 12
f 12 18 13
f 63 26 61
f 49 26 14
f 14 15 49
f 55 54 52
f 43 44 19
f 61 31 4
f 49 15 51
f 50 18 51
f 49 51 17
f 17 51 18
f 30 59 66
f 66 31 61
f 66 59 31
f 23 21 48
f 48 21 47
f 29 12 30
f 18 12 29
f 30 66 29
f 62 20 63
f 62 63 61
f 62 2 1
f 61 4 62
f 62 4 2
f 25 14 26
f 20 14 25
f 26 63 25
f 63 20 25
f 16 20 19
f 16 14 20
f 15 14 16
f 19 44 16
f 16 43 15
f 44 43 16
f 47 41 46
f 41 52 46
f 46 48 47
f 35 23 46
f 23 48 46
f 53 54 35
f 53 52 54
f 35 46 53
f 53 46 52
f 55 52 39
f 45 43 19
f 34 4 65
f 65 4 31
f 65 32 34
f 31 32 65
f 33 4 34
f 2 4 33
f 34 23 33
f 1 2 3
f 7 45 19
f 8 45 7
f 19 20 24
f 24 7 19
f 24 38 8
f 8 7 24
f 8 38 37
f 40 51 15
f 15 43 40
f 27 17 18
f 18 29 27
f 49 17 27
f 27 29 66
f 43 45 56
f 56 45 8
f 41 40 56
f 56 40 43
f 56 52 41
f 56 39 52
f 1 3 64
f 2 33 22
f 22 33 23
f 22 23 35
f 57 3 22
f 38 24 60
f 1 37 60
f 60 37 38
f 60 62 1
f 20 62 60
f 60 24 20
f 36 35 55
f 36 22 35
f 57 22 36
f 8 37 9
f 9 56 8
f 39 56 9
f 37 36 9
f 55 39 9
f 9 36 55
f 42 41 50
f 42 40 41
f 50 51 42
f 51 40 42
f 6 66 61
f 6 27 66
f 58 3 57
f 58 64 3
f 57 36 58
f 58 36 37
f 58 37 1
f 1 64 58
f 5 3 2
f 2 22 5
f 5 22 3
f 28 6 61
f 27 6 28
f 61 26 28
f 28 26 49
f 49 27 28
