v 0.0107436849 0.00133758818 0.00677610846
v 0.00482142486 0.000883793424 0.011709941
v -0.00164174338 -0.00783237794 0.00972736934
v -0.000636151887 -0.00355751418 0.0122687291
v 0.0120134428 0.000126785633 0.00310250177
v 0.012063316 -0.000967597771 0.000705413407
v -0.00245553953 -0.00892058999 0.00879755605
v -0.00239704617 -0.00464963198 0.0112017459
v -0.00201131053 -0.00614450192 0.0109952641
v 0.00283791332 0.00999082263 -0.00694910158
v -0.000509332784 0.012415276 -0.00336068813
v -0.0011805084 0.0122156836 -0.00172031893
v 0.00485197455 0.00327534585 -0.00889779447
v -0.00688853828 -0.00238873589 -0.0103173512
v -0.00823411011 -0.002544173 -0.00922662581
v -0.0115737955 0.00541465046 0.000874482954
v -0.0091303286 0.00888819703 0.00149969485
v -0.0109532015 -0.00152232587 -0.00163344921
v -0.0107701303 0.00613616544 0.00137039963
v 0.00834364251 -0.00593506477 -0.0038563321
v 0.00230324877 0.00647117663 -0.0108234945
v -0.00809430206 -0.00310936007 0.00511855442
v 0.00723327348 -0.00177461497 -0.00600899434
v 6.06577539e-05 -0.00187800175 0.012878188
v 0.00238682785 0.0011381999 0.0124543956
v -0.00132109023 -0.0114777861 0.00521328594
v -0.00123222657 -0.011294882 0.00108097019
v 0.0009620279 -0.0123954668 0.00192256037
v -0.00486630981 -0.00247548566 -0.0111329616
v 0.00581437428 -0.0106939706 -0.00217722425
v -0.000160540074 -0.00686869772 -0.00682531793
v 0.0110712986 -0.00625893048 -0.00105059355
v 0.00468629038 -0.0118866297 9.63502431e-05
v 0.00740433014 0.00632230374 0.000476805305
v 0.00572308277 0.00625625798 0.00590503613
v 0.0016656372 0.00652334 -0.0110109998
v -0.00100900655 0.00216662559 -0.0124100528
v -0.00893365702 -0.00192904448 -0.00901206924
v -0.00879528822 -0.00302226667 -0.0081794105
v -0.00109907613 0.0119909081 -0.00359827974
v -0.0111358622 -0.00187868414 -0.00616948376
v -0.0114570513 0.00544288468 -0.000243169176
v -0.00605209958 0.0113291146 0.000729649312
v -0.00203783603 0.000159476245 -0.0126469543
v 0.000771488268 0.00267811993 -0.0125162063
v -0.00515427023 0.0117196414 -0.000230817482
v -0.0120052398 0.000707575444 -0.00391254804
v -0.0125388506 0.00111401406 -0.00242127663
v -0.0117271268 -0.000592912401 -0.0049536034
v -0.00530202812 -0.0013751308 -0.0114975448
v 0.00121995345 0.0116057552 -0.00560916711
v -0.00398009214 0.0118477052 0.000941413417
v 0.0115956724 0.00103377708 0.00476662211
v 0.0104467673 0.00195005571 0.00710450043
v 0.00794513279 0.00310846397 0.00889030728
v 0.00652541735 0.00233413438 0.010561744
v 0.0123981173 -0.00305251213 0.000915433238
v -0.0011240715 -0.01105944 0.006232767
v 0.00780791085 0.00193719803 0.00995809787
v 0.0123331179 -0.000398354005 0.00374450269
v 0.00753993108 -0.0103695534 -0.000965869003
v 0.00202828477 -0.0120970435 0.00335001569
v 0.00230622045 -0.0123670719 0.00202311921
v -0.000752420829 -0.00483685443 0.0115966646
v 0.0115791803 -0.00559674799 -2.77348177e-05
f 25 17 24
f 48 22 16
f 48 16 42
f 42 16 17
f 42 36 38
f 28 30 33
f 35 34 11
f 11 12 35
f 21 36 10
f 34 6 10
f 57 6 60
f 2 25 24
f 24 64 2
f 62 59 2
f 2 64 62
f 56 59 55
f 55 35 56
f 56 2 59
f 25 2 56
f 52 12 11
f 52 35 12
f 25 56 52
f 52 56 35
f 24 17 19
f 19 16 24
f 17 16 19
f 28 62 26
f 26 7 22
f 45 36 21
f 32 23 57
f 48 42 47
f 42 38 47
f 63 62 28
f 28 33 63
f 63 33 62
f 44 30 31
f 31 29 44
f 31 30 28
f 44 29 50
f 39 38 15
f 11 34 51
f 34 10 51
f 51 10 36
f 51 40 11
f 51 36 40
f 1 59 62
f 5 6 34
f 5 60 6
f 62 64 3
f 4 64 24
f 17 25 43
f 25 52 43
f 28 26 27
f 27 31 28
f 39 31 27
f 18 22 48
f 18 26 22
f 13 45 21
f 23 45 13
f 21 10 13
f 13 10 6
f 57 23 13
f 13 6 57
f 37 45 44
f 36 45 37
f 44 50 37
f 37 38 36
f 37 50 38
f 20 45 23
f 23 32 20
f 20 30 44
f 44 45 20
f 61 33 30
f 30 20 61
f 61 20 32
f 62 33 61
f 14 50 29
f 29 31 14
f 38 50 14
f 14 15 38
f 14 31 39
f 39 15 14
f 55 59 54
f 59 1 54
f 54 35 55
f 34 35 54
f 62 3 58
f 58 3 7
f 58 26 62
f 7 26 58
f 8 4 24
f 24 16 8
f 8 16 22
f 46 42 17
f 17 43 46
f 40 36 46
f 46 36 42
f 11 40 46
f 46 52 11
f 46 43 52
f 48 47 49
f 49 47 38
f 62 61 65
f 65 1 62
f 60 1 65
f 57 60 65
f 65 32 57
f 65 61 32
f 60 5 53
f 53 1 60
f 53 54 1
f 53 5 34
f 34 54 53
f 22 7 9
f 9 8 22
f 7 3 9
f 9 3 64
f 64 4 9
f 4 8 9
f 26 18 41
f 41 27 26
f 41 18 48
f 48 49 41
f 39 27 41
f 41 38 39
f 41 49 38
