v -0.00229568032 -0.000706310682 -0.0125727428
v -0.00736782693 -0.010142519 0.0012992017
v -0.0010875048 -0.0123413905 -0.000836257083
v 0.000977905572 -0.0117875687 -0.00465481402
v -0.00185155487 0.00117963168 -0.0118530212
v -0.00934133893 0.00271971997 -0.0080264744
v -0.00217252109 0.00561966301 0.011335167
v -0.000893656323 0.00240978093 0.0124349789
v 0.00839612326 0.00273858944 -0.00651678576
v -0.00194743109 0.0105215907 0.0070358128
v 0.00156140788 0.0119654531 0.000603960163
v 0.00477027845 -0.00781702846 0.00349135382
v 0.00832401532 -0.00265222495 0.00909875973
v 0.00681601192 -0.00262176651 0.010143069
v 0.00465115902 -0.00464375146 0.00847880187
v 0.00413749652 -0.00222499494 0.0113596598
v -0.00188054361 -0.00335575369 0.00935783016
v -0.0119392456 -0.00224487687 0.000562902589
v -0.00399920283 0.00928640946 0.00615828487
v -0.0120101413 0.000296064908 -0.00449240641
v -0.00966211146 0.00400337792 -0.00284114324
v -0.00761292662 0.00398015071 -0.00762492891
v -0.00381314987 0.0083250715 -0.00379728122
v 0.00570445434 0.0110392849 -0.00137950598
v -0.00579576421 0.00199780438 -0.0115017146
v 0.00699583433 0.00879394906 -0.00309690179
v 0.0021774168 0.00113904295 -0.0102945609
v 0.00109478545 -0.00300872147 -0.0121819472
v 0.00847607405 -0.00107288951 -0.0043686012
v 0.00967537088 -0.00348325539 0.00223617019
v 0.00284009069 -0.00796927576 -0.00949269277
v 0.00680080918 -0.00677171183 -0.00294317502
v 0.00998360402 -0.0031578475 0.00461576131
v 0.0122992281 -0.000145581701 0.00441449625
v -0.0051119043 -0.0116483658 0.00102651495
v 0.00200438032 0.000855532839 0.0126338359
v 0.0118401002 0.00430105012 0.000929944579
v 0.00134144834 0.0121309259 0.0032802403
v -0.00100993356 0.0106034802 0.00669923025
v 0.00943612634 0.0084732597 -0.000762878851
v -0.0012880274 0.00546880382 0.0113930733
v -0.00210032565 0.00871303719 0.00921622163
v 0.000761451386 0.0124348207 0.0029997905
v 0.0024850441 0.0124472024 0.0016462184
v 0.00762516135 0.0101230375 -0.0013292892
v 0.00473152156 0.0118786977 0.000417225968
v 0.0125945436 0.00205600215 0.0015233118
v 0.0111411343 0.00607294158 -0.00043173943
v 0.0115528431 0.00495322508 -0.000642879457
v 0.0123654815 0.000510787274 0.00336660454
v 0.00957400067 -0.00204709827 0.00841016803
v 0.00457185782 -0.00141336135 0.0118927956
v -0.00976632796 -0.00816784117 0.00170659048
v -7.24677467e-05 -0.0120817576 -0.00448298348
v 0.00178397844 -0.0105465091 -0.0067694304
v -0.0122865298 -0.00211631478 -0.00242482292
v -0.012358352 -0.00232621096 -0.00152087201
v -0.0113628584 -0.00642552143 0.000837728852
v 0.00173055953 -0.00716035958 -0.0103526489
v -0.00189599302 -0.000455916445 -0.0126428021
v -0.00369537147 0.000829568571 -0.0121471248
v -0.00981260147 0.00205316994 -0.00804635016
v -0.00453737707 -0.0118487772 -0.000618159227
v 0.0009428673 -0.00421997674 -0.0120002201
v -0.00710757414 -0.010627484 0.000907451192
v -0.0105969467 -0.0071661026 0.000544204747
f 26 40 9
f 54 1 59
f 45 40 26
f 48 9 40
f 41 8 36
f 8 58 53
f 62 25 1
f 6 25 62
f 62 20 6
f 29 9 47
f 31 9 29
f 47 32 29
f 29 32 31
f 47 34 50
f 50 32 47
f 34 32 50
f 31 32 55
f 54 59 55
f 55 59 31
f 60 5 27
f 26 9 27
f 27 5 26
f 28 9 31
f 28 27 9
f 60 27 28
f 22 25 6
f 6 23 22
f 22 23 25
f 21 23 6
f 19 23 21
f 6 20 21
f 25 23 24
f 26 5 24
f 24 5 25
f 24 45 26
f 61 5 60
f 25 5 61
f 60 1 61
f 1 25 61
f 47 9 49
f 9 48 49
f 10 19 42
f 11 24 23
f 36 34 37
f 37 48 40
f 37 34 47
f 47 49 37
f 37 49 48
f 42 41 39
f 39 10 42
f 39 41 36
f 36 37 39
f 39 37 38
f 18 58 8
f 57 58 18
f 19 21 18
f 18 20 57
f 18 21 20
f 65 53 66
f 66 53 58
f 36 16 52
f 52 16 14
f 63 35 65
f 63 66 54
f 65 66 63
f 17 35 16
f 17 16 36
f 36 8 17
f 8 53 17
f 54 55 4
f 4 55 32
f 32 12 4
f 51 52 14
f 51 34 36
f 36 52 51
f 33 12 32
f 34 51 33
f 33 51 12
f 3 63 54
f 35 63 3
f 54 4 3
f 3 4 12
f 31 59 64
f 64 28 31
f 64 59 1
f 64 1 60
f 60 28 64
f 45 24 46
f 40 45 46
f 46 11 44
f 24 11 46
f 44 38 46
f 46 37 40
f 38 37 46
f 19 10 43
f 43 23 19
f 43 39 38
f 10 39 43
f 43 11 23
f 43 38 44
f 44 11 43
f 8 41 7
f 7 18 8
f 7 41 42
f 42 19 7
f 19 18 7
f 20 62 56
f 56 66 58
f 56 62 1
f 57 20 56
f 56 58 57
f 56 1 54
f 54 66 56
f 2 17 53
f 35 17 2
f 2 53 65
f 65 35 2
f 13 51 14
f 12 51 13
f 30 32 34
f 34 33 30
f 30 33 32
f 15 3 12
f 15 13 14
f 12 13 15
f 14 16 15
f 16 35 15
f 35 3 15
