v -0.00657682099 -0.00386471583 -0.0101523173
v 0.00109172723 -0.0102286043 -0.00780935862
v 0.00946424583 -0.00483043047 -0.00686379398
v 0.00991457669 0.00124304619 -0.00779341432
v 0.00138179421 0.00753719556 -0.00999680446
v -0.00732742901 0.00174853961 -0.00921279188
v -0.00231425684 -0.00955508813 -0.00784049466
v 0.00597072119 -0.00900627933 -0.00680996398
v 0.00182309264 -0.00706125493 0.0106647584
v -0.004092405 -0.00696735706 0.0099024198
v -0.00703523409 -0.00559846351 0.00895898415
v -0.0102094495 0.00350188961 0.00609557823
v -0.00705949592 0.00836053392 0.0067678894
v -0.00630540707 0.00270839207 -0.0107263527
v 0.00614121121 -0.00854165265 -0.00184863636
v -0.00270965529 -0.00837427124 0.00878903351
v 0.00164415918 -0.0104018348 -0.00734421432
v -0.00185457008 -0.00981716384 -0.00274774031
v -0.00742082517 -0.00606181679 0.00014150299
v -0.0056984139 -0.00701816122 -0.00906801606
v -0.00911821165 -0.00395937063 0.00421176717
v -0.0088696467 0.00152016318 -0.00454059395
v -0.00635858058 0.00665791265 -0.00292584622
v -0.0047933596 0.00588114856 -0.00941940276
v 0.00129557628 0.0081856212 -0.0086604849
v 0.00408837934 0.00824231719 -0.00394725101
v 0.000664102547 0.0110591535 0.00594439559
v 0.00668954527 0.00621578079 -0.00903045305
v 0.00718487294 0.00492263779 0.00902166789
v 0.0077698279 0.00159362296 0.00997058035
v 0.0100540553 -0.00337028456 -0.00484237842
v 0.00721126135 -0.00241058215 0.00986325563
v -0.00576366228 0.00855313148 0.00740069284
v 0.00655648093 2.44829217e-05 0.0107963558
v -0.0012989559 -0.00682631173 0.0106278048
v -0.00966523102 -0.000775004577 0.00829333567
v -0.00757643347 -0.00451787469 0.00916334439
v 0.00134683167 -0.00622952243 0.0109401455
v 0.00477525952 -0.00477523442 0.0106191608
v -0.00983582053 -0.00186971173 0.00780111484
v -0.00986515262 0.00292225792 0.00766869321
v -0.00966654943 0.0042099503 0.00703704735
v -0.0080063488 0.00700717222 0.00713919688
v -0.00339438081 0.00995904892 0.00730239886
v -0.00140830521 0.00976690777 0.00792119143
v 1.95599743e-05 0.0100824909 0.00769159302
v 0.00284054191 0.00922006954 0.00843174765
v 0.00495981447 0.00770841043 0.00877527075
v 0.00561274905 0.00681869479 0.00953238291
v 0.00608116506 -0.00263133702 0.0109605165
v -0.0081992831 -0.00246109268 -0.00871300534
v 0.00785572321 -0.00713988062 -0.00729701488
v -0.00244980664 0.00598292723 -0.0110644059
v -0.00525560183 0.00397793375 -0.0109399685
v -0.00689577659 -0.000479009114 -0.010704702
v 0.0104672685 -0.000662206719 -0.00716807094
v 0.00985262437 -0.000427286367 -0.00803337746
v 0.0089363967 0.00370981106 -0.00832437694
v 0.00240287545 0.00708120231 -0.0102394847
v 0.009665463 -0.0030053937 -0.00758099829
v -0.00378624173 -0.00878047159 -0.00845886289
v 0.00902380433 0.00217278644 -0.00862353428
v 0.00569374597 0.0058397559 -0.00974101445
v -0.000393204624 0.00695159381 -0.0108038105
v -0.00400872189 -0.00773240816 -0.00912518859
f 15 16 17
f 8 15 17
f 16 15 9
f 21 51 20
f 17 16 18
f 4 29 56
f 56 29 30
f 30 31 56
f 15 8 52
f 52 65 62
f 50 9 39
f 39 9 15
f 16 9 35
f 22 51 12
f 19 21 20
f 19 18 16
f 54 14 24
f 17 18 7
f 54 24 53
f 48 28 27
f 25 28 5
f 29 4 58
f 58 48 29
f 28 48 58
f 58 4 62
f 32 30 50
f 31 30 32
f 15 31 32
f 50 39 32
f 32 39 15
f 3 31 15
f 15 52 3
f 3 52 60
f 56 31 3
f 3 60 56
f 65 52 2
f 17 7 2
f 2 8 17
f 2 52 8
f 57 52 62
f 60 52 57
f 56 60 57
f 57 4 56
f 62 4 57
f 38 9 50
f 38 35 9
f 51 22 6
f 12 51 40
f 51 21 40
f 16 35 10
f 35 37 10
f 12 40 41
f 11 19 16
f 16 10 11
f 11 10 37
f 21 19 11
f 11 40 21
f 37 40 11
f 27 25 44
f 44 25 24
f 44 46 27
f 45 46 44
f 20 65 61
f 61 19 20
f 65 2 61
f 61 2 7
f 18 19 61
f 61 7 18
f 54 53 55
f 55 14 54
f 51 6 55
f 55 6 14
f 64 25 5
f 64 53 24
f 24 25 64
f 49 30 29
f 29 48 49
f 27 28 26
f 26 25 27
f 28 25 26
f 33 41 45
f 45 44 33
f 33 44 13
f 36 40 37
f 36 41 40
f 36 37 35
f 35 41 36
f 12 41 42
f 13 44 23
f 23 44 24
f 12 13 23
f 23 22 12
f 23 24 14
f 23 6 22
f 14 6 23
f 1 53 65
f 1 55 53
f 1 65 20
f 20 51 1
f 51 55 1
f 5 28 59
f 59 64 5
f 50 30 34
f 30 49 34
f 34 38 50
f 35 38 34
f 34 41 35
f 45 41 34
f 34 49 45
f 47 49 48
f 27 46 47
f 47 48 27
f 47 46 45
f 45 49 47
f 43 33 13
f 41 33 43
f 43 42 41
f 43 13 12
f 12 42 43
f 63 59 28
f 63 58 62
f 28 58 63
f 64 59 63
f 53 64 63
f 62 65 63
f 65 53 63
