v -0.0109355053 0.00641583893 -0.000167212929
v 0.00189690261 0.008578609 0.00937977139
v -0.00286722586 0.000429893767 0.0122777972
v -0.00749012034 -0.00199551187 0.0102820134
v -0.0124260805 0.00293404312 0.00119885599
v -0.0106777345 0.00664801387 -0.00129572085
v 0.00111354989 0.0115213108 0.0050980337
v 0.00232877836 0.00718127724 0.0102564038
v 0.000710763152 0.0023126887 0.0122302201
v 0.0116069054 0.00121768633 -0.00531406259
v 0.00280246059 0.00363255247 -0.0104493241
v -0.0056760232 -0.00439011694 -0.00825194579
v -0.00272156258 -0.00852817657 -0.00866855359
v -0.00287707585 -0.0104157375 -0.00175723963
v 0.000259572958 -0.0121851704 -0.00294619632
v 0.0065201562 -0.0110326819 0.0012163496
v 0.00121960766 -0.000381029601 -0.0125191363
v 0.0125531838 -0.00116479567 -0.00134133347
v 0.00722144584 0.00440126297 0.00447868132
v 0.0085858432 0.0053085279 -0.002046389
v 0.0042738815 0.00767379815 -0.0038815092
v 0.00822765153 0.00437247608 -0.006633057
v -0.00140017709 0.0117326515 0.000168579767
v -0.00788662242 0.00783204325 -0.0031813615
v -0.0045249516 0.00492479898 -0.00684655833
v -0.0118346057 0.00362210562 -0.00177828914
v 0.000560197265 -0.0109976382 0.00110461094
v -0.00462200819 -0.00918470732 0.00137226078
v -0.00185974899 -0.00541937835 0.00843774664
v 0.00471900443 -0.00748545292 0.00488911891
v -0.00190247525 -0.0104512907 -0.00744699585
v -0.000316141117 -0.0033588505 -0.0125828045
v 0.00157040244 -0.0124925389 -0.00235128566
v 0.0036510418 0.00113410138 -0.0120794727
v 0.00863995355 0.00253275944 -0.00894189613
v -0.00133975193 -0.00552535788 -0.0114629221
v 0.0106252881 0.00114966506 -0.00679260434
v 0.0112796725 0.000397467335 -0.00554337007
v 0.0107594521 -0.00703157138 0.00067334721
v 0.00789189654 -0.00992077402 0.000804099566
v 0.0103039415 -0.00755681571 0.00220476104
v 0.012496836 -0.00178316085 -0.00247649039
v 0.00915036115 0.00200344382 -0.00863799075
v 0.00694143949 0.00166485038 -0.0104679067
v 0.00538520322 0.0015888112 -0.0114694772
v -0.00213773578 -0.00649254602 -0.0108571473
v -0.00070763998 -0.0116905733 -0.00528894447
v 0.00491929837 -0.0117978928 -0.000394969488
v 0.00292370626 0.00466259679 0.0110128927
v 0.00302103428 0.00936106329 0.00766120295
v -0.0118229969 0.00411454211 -0.00021272193
v -0.0117002046 -0.0010856859 0.00509126525
v -0.00841413243 -0.00227291231 0.00938825848
v -0.00484456823 -0.00140518492 0.0117593189
v -0.0121623351 0.000240091435 0.00413316303
v -0.00417833514 0.012382328 0.000585212772
v 0.00178395251 0.0105465018 0.00676940703
v -0.00204257166 0.000265635958 0.0127296993
v -0.00957752725 0.00825100777 -0.000977766278
v -0.00649735475 0.0111622526 -0.00114573531
v -0.00189443669 0.0122450812 0.00264754146
v -0.000568360078 0.0124049671 0.00328747146
v 0.000577332929 0.00391457376 0.0120984233
v -0.00976257612 -0.00209349242 0.00806511061
v -0.000631123085 0.0120358676 0.00389876585
f 18 41 39
f 49 41 18
f 54 29 58
f 58 3 54
f 30 41 58
f 58 29 30
f 28 15 33
f 14 15 28
f 37 32 44
f 26 32 12
f 26 55 5
f 12 55 26
f 18 39 42
f 39 48 42
f 10 20 18
f 18 42 10
f 58 41 9
f 41 49 9
f 29 54 4
f 4 54 3
f 4 55 64
f 33 48 27
f 27 28 33
f 29 28 27
f 40 39 41
f 40 48 39
f 16 30 29
f 29 27 16
f 16 27 48
f 48 40 16
f 41 30 16
f 16 40 41
f 50 2 8
f 63 3 58
f 63 2 3
f 8 2 63
f 58 9 63
f 63 49 8
f 63 9 49
f 64 55 52
f 52 28 64
f 52 55 12
f 45 44 32
f 37 44 43
f 43 10 37
f 32 48 31
f 31 36 32
f 14 28 31
f 28 52 31
f 31 12 13
f 31 52 12
f 12 32 46
f 32 36 46
f 13 12 46
f 46 31 13
f 36 31 46
f 51 26 5
f 17 32 25
f 32 26 25
f 25 11 17
f 60 11 25
f 38 42 48
f 38 32 37
f 38 48 32
f 37 10 38
f 38 10 42
f 20 10 22
f 53 28 29
f 29 4 53
f 64 28 53
f 53 4 64
f 2 50 57
f 57 65 2
f 18 20 19
f 20 50 19
f 19 49 18
f 8 49 19
f 19 50 8
f 62 23 56
f 56 11 60
f 56 23 11
f 34 32 17
f 34 45 32
f 17 11 34
f 11 45 34
f 47 48 33
f 47 31 48
f 33 15 47
f 47 15 14
f 14 31 47
f 26 6 24
f 24 25 26
f 60 25 24
f 11 23 21
f 21 22 11
f 21 23 62
f 62 20 21
f 20 22 21
f 35 45 11
f 11 22 35
f 44 45 35
f 35 43 44
f 10 43 35
f 35 22 10
f 62 65 7
f 65 57 7
f 7 20 62
f 7 50 20
f 7 57 50
f 2 65 61
f 61 56 2
f 61 65 62
f 62 56 61
f 5 55 1
f 2 56 1
f 55 4 1
f 1 51 5
f 3 2 1
f 1 4 3
f 26 51 1
f 1 6 26
f 59 56 60
f 59 1 56
f 6 1 59
f 60 24 59
f 59 24 6
