v -0.00459168428 -0.00717643841 0.00964721887
v -0.00251206383 0.00280954472 0.0122911879
v -0.000561603467 -0.0109612143 0.00531134644
v -0.00586495979 -0.00446209947 0.0100395104
v -0.00524414063 3.33458839e-06 0.0115015699
v -0.000637700158 0.00531350851 0.0112878258
v 0.00999487886 0.00163196247 -0.00224857697
v 0.0109620275 -0.00379488508 0.00453669036
v 0.00976845894 -0.00681033512 0.00389024231
v -0.00804518692 0.00878625731 -0.00412772469
v -0.010830797 -0.00104122229 -0.0065843408
v 0.000169946695 -0.00497671937 -0.0116464956
v -0.00609154506 0.00224752219 0.00932566182
v -0.00702905335 -0.00627367251 0.00285800515
v 0.00611865125 -0.00460747119 -0.00706823105
v 0.00990149005 -0.0019106602 -3.6405583e-05
v 0.00571211173 0.0076128506 -0.00724603975
v 0.00992425522 0.00284129541 0.00658321489
v 0.00556199224 0.00773516325 0.00181410558
v 0.00254048625 0.00916757111 0.00110255677
v 0.00229753869 0.00859918555 0.00351482833
v -0.00313426805 0.0113152416 -0.00257458345
v -0.00623726189 0.010266714 -0.00473638558
v -0.00924943073 0.00114598235 0.00217098201
v -0.00912397103 -0.00251498602 0.00258662095
v -0.00500333648 -0.00815915389 -0.00299664424
v 7.74042295e-05 -0.00843108618 -0.00583932304
v 0.00847475396 -0.00861736063 0.00397599783
v 0.00225064717 -0.00303535167 -0.0122731077
v 0.0048449079 0.00212087128 -0.0114513998
v 0.00150561704 0.0105198592 -0.00699437928
v -0.0087175571 -0.00330870852 -0.00875094596
v -0.010990138 0.0024828904 -0.00588937057
v 0.00557753326 0.00138322136 -0.0114332605
v 0.00257752873 -0.00367420171 -0.0118800579
v 0.00540294085 0.00193422361 -0.0113760539
v 0.00521625481 0.00558130732 -0.0103256423
v 0.00421190186 0.00820884856 -0.00891394324
v -0.000290648995 0.0110685122 -0.00632711983
v -0.00109953293 0.0110881975 -0.00637682715
v -0.00331757648 0.011072063 -0.00516134298
v -0.00503507463 0.0106309389 -0.00489965766
v -0.00937180752 0.00762390611 -0.00452676971
v -0.0112091531 0.00397999942 -0.00493794166
v -0.00843284024 -0.0043103979 -0.00870388508
v -0.00424283256 -0.00560632734 -0.0106983538
v -0.0036275676 -0.00495047327 -0.0109768903
v -0.00358900414 -0.0053366406 -0.0109843073
v -0.000734547749 -0.00469458337 -0.0118729021
v 0.00858284848 0.00403215845 0.00827330554
v 0.00130118745 0.00548961123 0.011249127
v -0.00585203559 -0.00278106977 0.0108346658
v -0.00132709695 -0.0105848502 0.00694246642
v 0.00111231876 -0.0112057539 0.00624668591
v -0.00295656382 -0.00964488248 0.00785041776
v 0.0020982544 0.00535683467 0.0115388056
v 0.00542791088 0.00580497775 0.0100083284
v 0.00495178977 -0.0108007928 0.00493876301
v -0.00532652341 -0.00652107306 0.00993444562
v 0.0078656884 0.00419495199 0.00909817445
v 0.0107914229 -0.00459121748 0.00520012948
v -0.00432962781 -2.98536557e-05 0.0119528937
v 0.00730303847 -0.00913203107 0.00493515783
v 0.0100830265 0.00214306983 0.00763544402
v 0.0112829754 -0.00120585274 0.00623909972
f 63 1 54
f 65 2 63
f 2 1 63
f 62 1 2
f 59 1 62
f 14 11 45
f 45 11 32
f 56 2 65
f 26 14 45
f 45 32 46
f 46 26 45
f 27 26 46
f 54 27 58
f 58 27 28
f 58 63 54
f 28 63 58
f 28 27 15
f 65 63 61
f 61 63 28
f 44 13 43
f 24 13 44
f 59 62 52
f 13 24 52
f 55 1 59
f 59 14 55
f 54 1 55
f 14 26 55
f 25 14 59
f 11 14 25
f 25 52 24
f 44 11 25
f 25 24 44
f 31 17 38
f 38 17 37
f 19 17 31
f 19 18 17
f 30 34 29
f 33 11 44
f 33 32 11
f 44 43 33
f 33 43 23
f 31 38 40
f 40 38 37
f 37 30 40
f 40 30 32
f 40 33 23
f 32 33 40
f 2 56 6
f 6 13 2
f 27 46 12
f 47 46 32
f 28 15 9
f 9 61 28
f 15 16 9
f 13 52 5
f 5 52 62
f 2 13 5
f 5 62 2
f 3 27 54
f 3 26 27
f 59 52 4
f 4 25 59
f 52 25 4
f 65 18 64
f 7 18 65
f 17 18 7
f 37 17 7
f 7 34 37
f 7 15 34
f 7 16 15
f 31 40 39
f 39 40 22
f 57 19 20
f 20 39 22
f 20 19 31
f 31 39 20
f 50 19 57
f 18 19 50
f 50 64 18
f 37 34 36
f 36 30 37
f 34 30 36
f 22 40 41
f 56 22 51
f 51 6 56
f 22 6 51
f 10 22 23
f 10 6 22
f 13 6 10
f 23 43 10
f 10 43 13
f 35 15 27
f 27 12 35
f 35 12 29
f 29 34 35
f 34 15 35
f 49 12 46
f 29 12 49
f 49 30 29
f 32 30 49
f 49 47 32
f 61 9 8
f 8 9 16
f 16 7 8
f 65 61 8
f 8 7 65
f 53 55 26
f 26 3 53
f 54 55 53
f 53 3 54
f 57 20 21
f 21 20 22
f 21 56 57
f 21 22 56
f 60 50 57
f 64 50 60
f 57 56 60
f 60 56 65
f 65 64 60
f 23 22 42
f 22 41 42
f 42 40 23
f 42 41 40
f 46 47 48
f 48 49 46
f 47 49 48
