v -0.00209265461 0.0123062337 -0.00195353931
v -0.00907123789 0.00183739849 0.0088920505
v -0.0116194872 0.00335293383 -0.00366273772
v -0.010935918 -0.00323043261 0.0024899285
v -0.0123126831 -0.000642911551 0.00199274119
v -0.0120325132 7.58768867e-05 -0.00299363366
v -0.0076924657 0.00701468317 -0.00684838118
v 0.000431942061 0.00371066216 -0.00890256576
v 0.000174077439 0.0122768341 -0.000535685029
v -0.000613781798 0.0107850136 0.00695994371
v -0.00135459242 0.00807525443 0.00968276265
v 0.00576350689 -0.0096105281 0.00625266107
v 0.00188818145 -0.00560691847 -0.010316415
v 0.00918025507 -0.00515693691 0.00648554204
v 0.010504525 -0.00394563206 0.00569730066
v 0.0122687624 0.000944563737 -0.00173851052
v 0.00985091862 -0.000545654631 -0.00800137719
v 0.00603687922 -0.00249078873 -0.010471984
v 0.000149240579 -0.00991565855 -0.00753347696
v -0.00417252402 0.000460537772 0.0103150373
v -0.00233511825 -0.00287328823 -0.00904810738
v 0.00799670167 -0.00218474616 0.00742802476
v -0.00558957872 0.00475984602 -0.00815228364
v 0.00725210792 0.00538408858 0.003663576
v 0.000534917346 0.0120909734 0.00421093385
v 0.0056156552 0.0076622435 -0.00173085198
v 0.00912265017 0.00203617689 -0.0068663045
v 0.0016391474 0.00614338193 -0.00721253313
v -0.00507845314 -0.00608063607 -0.0061331859
v -0.00989814947 -0.000297157812 0.00746193346
v 0.00250264278 -0.0117966814 0.00438423642
v 0.00315891422 -0.010147616 0.00590233654
v -0.00287080375 0.00265064176 0.0106814474
v 0.00516175582 -0.00513652155 -0.0113274257
v 0.000283068218 -0.0122848795 0.00158686774
v 0.010709656 5.87201696e-05 -0.00657268947
v 0.00085569746 -0.010848765 -0.0063077282
v 0.0121788458 -0.00234061323 0.00236563816
v 0.00929895343 -0.00631825917 0.00621970728
v 0.012056329 -0.00251030299 0.00358759197
v 0.0128709409 -0.000728369341 -0.000182569972
v 0.0118275749 8.25596988e-05 -0.00479464706
v 0.00150736025 -0.00853012074 -0.00935890874
v 5.40737529e-06 -0.0111895111 -0.00616919905
v 0.000126360733 -0.0125803101 -0.00266299305
v 0.000966834353 -0.012685237 7.89579684e-05
v 0.00237421621 -0.0121433833 0.00263599219
v 0.00433478868 -0.0110252693 0.00494473567
v 0.00739543085 -0.00791375418 0.00660257467
v -0.00198107309 0.00864616985 0.00919459689
v -0.00490998749 0.0100742675 -0.00611415768
v -0.00934652471 0.00605086659 -0.00652949766
v -0.011316246 0.00296249511 -0.00465963367
v -0.0127909401 0.000713213704 -0.000377832612
v -0.0120570754 -0.000376650408 0.0035855311
v -0.0120292538 0.000135655231 0.00463488897
v -0.0117684254 0.00298354452 -0.00396092462
v -0.00620388213 0.00341094353 0.0106142613
v -0.00508214248 0.010362432 -0.00519960346
v -0.00147727056 0.0124894567 -0.00269103942
v -0.00328103861 0.0071935219 0.00995886781
v -0.00468985386 0.00552823595 0.0105062977
v -0.00881568961 0.00152451958 0.00919667357
v -0.000661321212 0.0124208932 0.0020840113
v -0.00305265706 0.0117392493 -0.00379975948
f 46 37 48
f 48 37 34
f 26 27 60
f 45 37 46
f 44 37 45
f 56 4 30
f 20 49 33
f 23 21 52
f 59 51 52
f 60 27 28
f 28 51 60
f 34 37 43
f 43 37 44
f 53 57 52
f 52 21 53
f 41 34 42
f 34 17 42
f 10 11 24
f 10 24 25
f 25 24 26
f 33 49 22
f 22 11 33
f 22 24 11
f 54 4 5
f 5 56 54
f 46 48 47
f 47 31 46
f 48 31 47
f 46 31 35
f 35 45 46
f 4 45 35
f 30 4 35
f 35 31 30
f 49 20 12
f 12 31 48
f 30 31 32
f 31 12 32
f 32 12 20
f 52 51 7
f 7 23 52
f 51 23 7
f 60 51 65
f 51 59 65
f 3 57 54
f 54 56 3
f 52 57 3
f 3 59 52
f 27 17 18
f 18 28 27
f 18 17 34
f 34 43 13
f 13 43 21
f 13 23 34
f 21 23 13
f 21 43 29
f 29 53 21
f 44 45 29
f 29 45 4
f 36 17 27
f 27 42 36
f 36 42 17
f 27 26 16
f 16 42 27
f 41 42 16
f 16 24 41
f 26 24 16
f 10 25 64
f 64 61 10
f 9 26 60
f 9 25 26
f 60 64 9
f 9 64 25
f 58 20 33
f 50 11 10
f 10 61 50
f 50 61 11
f 4 56 55
f 55 5 4
f 56 5 55
f 30 32 63
f 63 32 20
f 20 58 63
f 63 56 30
f 34 23 8
f 8 18 34
f 8 23 51
f 51 28 8
f 28 18 8
f 19 43 44
f 44 29 19
f 19 29 43
f 53 29 6
f 54 57 6
f 57 53 6
f 6 4 54
f 6 29 4
f 59 3 1
f 1 65 59
f 60 65 1
f 1 64 60
f 61 64 2
f 2 3 56
f 2 1 3
f 64 1 2
f 56 63 2
f 2 63 58
f 49 12 39
f 39 12 48
f 38 39 48
f 38 34 41
f 38 48 34
f 24 22 40
f 22 15 40
f 41 24 40
f 40 38 41
f 15 39 40
f 39 38 40
f 61 2 62
f 62 2 58
f 62 58 33
f 33 11 62
f 11 61 62
f 14 15 22
f 14 39 15
f 14 22 49
f 49 39 14
