v -0.00454159573 -0.00682954655 -0.00937512874
v -0.000643388628 -0.00921009749 -0.00836179166
v 0.001886717 -0.00972265357 -0.00784841806
v -0.00708442657 0.00379123074 -0.00788163163
v -0.00775459377 -0.00251358197 -0.0102181208
v -0.00540063084 -0.00724003392 -0.00915318473
v -0.00311388593 -0.0096255286 -0.00720736542
v 0.0102344983 -0.000921071754 -0.00703598787
v 0.00997630514 0.000301997379 -0.00805042251
v 0.00934305118 0.00288373114 -0.00527610112
v 0.0090381373 0.0034904668 -0.00820011091
v -0.00294931309 0.00911839521 -0.00302966068
v -0.00414150338 0.00982540086 0.00719050179
v 0.00486528939 0.00803390954 0.00836581511
v 0.00630058771 -0.00472570208 0.00796654739
v -0.00200989755 -0.00799092665 0.00940284353
v -0.0102188159 0.00308450038 0.00717256195
v -0.00158183638 0.0070505232 -0.0104953147
v -0.00837382988 0.00737632909 0.00344500027
v 0.00477982852 0.00802659175 -0.00293448242
v 0.00846057005 0.00529636953 -0.00457521519
v 0.0105419857 -0.000802758788 -0.00595192193
v 0.00952254323 -0.00101672594 0.000585731296
v 0.00947950926 -0.00554376813 -0.00687348698
v 0.0059912481 -0.00926277539 -0.00664739846
v 0.000637771776 -0.0106266695 -0.00587983556
v 0.00360639235 -0.00757512357 0.0062480491
v -0.00820877028 -0.004930865 0.00771667629
v -0.00740236946 -0.00447050079 -0.00866180261
v -0.0096699324 -0.00273234243 0.00652475672
v -0.00822936762 -0.00343751672 0.00895865063
v -0.00796433644 0.00639834023 0.00741001949
v -0.00328842918 -0.00731950349 0.00970711322
v -0.0010894755 -0.00742773708 0.0102806804
v 0.00414937235 -0.00544558938 0.0105501823
v 0.00658983748 -0.00205693048 0.0110091015
v -0.0105131544 0.001312161 0.0073856182
v 0.00124279327 0.0101566145 0.00752757796
v 0.00549123839 0.0076544638 0.0094669551
v 0.00778460153 0.000197242879 0.010442975
v 0.00158130898 -0.00650793256 0.010964484
v -0.00577319725 -0.00634653956 0.00953710823
v -0.00588179951 -0.00567430903 0.00968097765
v -0.00950807443 -0.00245077684 0.00818483899
v -0.00983056773 0.00282038995 0.00763934501
v -0.0092653099 0.00527713238 0.00686365643
v -0.00792676834 0.0070034493 0.00700954674
v -0.00668304565 0.00809298811 0.00718381604
v -0.00147281501 -0.00977459032 -0.00822514154
v -0.00672311298 0.00192886103 -0.0105368462
v -0.00536570622 0.0041254151 -0.0106095247
v -0.00690245961 -0.00376231676 -0.0100453659
v 0.00678282509 -0.00810339405 -0.00732699039
v 0.0100169895 -0.00302770783 -0.00740127534
v 0.00677018811 0.00538341404 -0.0093908961
v 0.00229326589 0.00840956843 -0.00811531572
v 0.00108803795 0.00717905359 -0.0104710848
v -0.00355762276 0.00533282013 -0.0110912442
v -0.00591554138 0.00257373757 -0.0110512622
v -0.00736975334 -0.000502539529 -0.0103068329
v 0.00482292567 0.00668599587 -0.00975162347
v 0.0083556983 0.00344835974 -0.00888944232
v 0.00334031481 0.00680095282 -0.0102929126
v -0.00204775961 0.00593933549 -0.0109599349
f 26 16 7
f 7 16 42
f 3 25 26
f 17 5 37
f 5 17 4
f 4 17 19
f 12 19 13
f 13 39 38
f 38 12 13
f 56 12 38
f 28 7 42
f 40 23 22
f 40 21 39
f 6 29 5
f 7 28 6
f 6 28 29
f 26 7 49
f 49 3 26
f 7 6 49
f 13 19 48
f 19 47 48
f 46 47 19
f 19 17 46
f 51 4 19
f 51 12 58
f 19 12 51
f 51 50 4
f 10 40 22
f 21 40 10
f 56 38 20
f 39 21 20
f 16 41 34
f 27 41 16
f 26 25 27
f 27 16 26
f 35 41 27
f 27 15 35
f 25 15 27
f 30 28 44
f 29 28 30
f 30 44 37
f 37 5 30
f 5 29 30
f 35 15 36
f 15 40 36
f 36 41 35
f 39 41 36
f 36 40 39
f 58 12 18
f 18 12 56
f 22 8 9
f 52 6 5
f 32 39 13
f 13 48 32
f 32 48 47
f 47 46 32
f 32 46 17
f 59 52 5
f 59 51 58
f 50 51 59
f 5 4 60
f 4 50 60
f 60 59 5
f 50 59 60
f 14 38 39
f 39 20 14
f 14 20 38
f 42 16 33
f 33 34 42
f 16 34 33
f 58 18 64
f 64 59 58
f 63 59 64
f 56 63 57
f 57 18 56
f 63 64 57
f 57 64 18
f 25 3 53
f 21 10 11
f 11 55 21
f 11 10 22
f 22 9 11
f 3 49 2
f 2 53 3
f 63 53 2
f 43 41 39
f 42 34 43
f 43 34 41
f 25 53 24
f 24 15 25
f 24 40 15
f 23 40 24
f 22 23 24
f 63 55 62
f 62 53 63
f 9 53 62
f 62 11 9
f 55 11 62
f 61 63 56
f 61 55 63
f 56 20 61
f 61 20 21
f 21 55 61
f 52 59 1
f 6 52 1
f 1 59 63
f 63 2 1
f 1 49 6
f 1 2 49
f 42 43 31
f 31 28 42
f 44 28 31
f 37 44 31
f 39 32 31
f 31 43 39
f 54 53 9
f 54 24 53
f 54 9 8
f 22 24 54
f 54 8 22
f 37 31 45
f 45 31 32
f 45 17 37
f 45 32 17
