v 0.000316758778 0.0115677457 -0.00529325438
v -0.0121414499 0.00365044176 0.00117421012
v -0.0101356256 -0.00047011427 -0.00765159648
v -0.000454689617 0.00527973912 -0.01125667
v -0.00364002914 0.0119246746 0.00224533283
v -0.00896486756 0.00755879159 0.00441048636
v -0.0115716471 0.00437012628 0.00296545139
v -0.00568867844 -0.00935704217 0.00212896268
v 0.00855888691 -0.00852046804 -0.00406756639
v -0.0122787129 0.000164183058 0.000403931222
v 0.00209309639 -0.00173700592 0.0119353153
v 0.00640374537 0.000160827179 0.0106886101
v 0.0070685983 0.00227276259 0.00897097823
v 0.00498104975 0.00815567546 0.00339480463
v 0.00834638861 0.000593160732 0.00974165693
v 0.0106194356 0.000987265616 0.00701081275
v 0.012041174 -0.00260668243 -0.00185531927
v 0.00648654026 -0.00531518249 -0.0065182625
v -0.00371100926 5.23314238e-05 -0.0113058888
v 0.00538339259 -0.010979591 -0.0035493314
v 0.00733640211 -0.00937374148 -0.00416289586
v 0.000478301701 -0.00177282897 -0.00971906197
v -0.00996964815 -0.00224207177 -0.00700067405
v -0.00129160266 -0.0119170633 0.0039886138
v -0.00822295114 -0.00184468454 0.00484840025
v -0.000917135423 -0.00843915513 0.00956419269
v -0.00586801188 -0.00311217762 0.00688904741
v 0.00199936565 0.00406684169 0.0087923067
v -0.00114321905 0.0116340486 0.00197601332
v 0.00260218286 0.01154522 -0.00459849123
v 0.00340072178 0.00831487486 -0.00674698758
v 0.0105641631 -0.00218727055 -0.00380409456
v 0.0024841035 0.0036334577 -0.0101057121
v 0.0124490265 -0.000712522264 0.00256541224
v 0.00376699436 -0.012444752 -0.00223433119
v 0.0122370182 -0.0025935576 -0.00137859365
v 0.0113650942 0.000189282013 0.00541484255
v 0.00755836735 -0.00957985275 -0.0033373143
v 0.00383345659 -0.0120592002 -0.00163924608
v 0.00126528533 -0.0127272524 0.00136201875
v -0.00111804713 -0.0110783282 0.00637016071
v 0.00134606642 -0.00557250221 0.0115605371
v -0.000317940093 -0.00902415571 0.00899767986
v 0.000454456234 -0.00575857795 0.0111556402
v 0.00326673359 -0.00316728626 0.0120670631
v 0.00719179234 -0.00042398163 0.0106371301
v 0.011905734 0.000744320199 0.00444536131
v 0.0127901198 -0.00112901022 0.000675966972
v 0.0110880813 -0.00576218807 -0.00320485262
v -0.00703715794 3.83883908e-05 -0.0106692288
v -0.0124683918 0.000276823277 -0.00168341181
v -0.0106517351 0.00459185846 0.00413817222
v 0.00107050391 0.00919022783 -0.00885007923
v -0.00106866626 0.0125531162 -0.000412848612
v -0.0116464875 -0.000498409006 -0.00506186666
v -0.00123910156 0.0057495611 -0.0113429775
v 0.000339906878 0.00967644269 -0.00819272835
v 0.000116997776 0.012198755 -0.00355048837
v -0.00560620808 0.0107189287 0.00376756277
v -0.0125540974 0.000477135733 -0.002546202
v -0.00796298701 -0.000919838013 -0.00981325427
v -0.00284292311 0.00361988102 -0.0120374661
v -0.00664889872 0.010312579 0.0031941449
v -0.00290540918 0.012413046 0.000662044751
v -0.00834902549 0.00898862617 0.00387514382
v -0.00563556998 0.00150087872 -0.0112607137
f 43 42 26
f 45 42 46
f 42 43 46
f 40 34 46
f 46 43 40
f 15 46 16
f 38 34 40
f 64 57 2
f 55 8 60
f 8 55 23
f 60 8 51
f 26 8 41
f 41 43 26
f 40 43 41
f 26 42 44
f 7 52 6
f 57 64 1
f 53 1 30
f 57 1 53
f 53 56 57
f 6 52 11
f 11 59 6
f 28 59 11
f 11 42 45
f 11 44 42
f 52 44 11
f 12 46 15
f 28 11 12
f 45 46 12
f 12 11 45
f 48 30 47
f 47 34 48
f 54 29 14
f 14 30 54
f 14 47 30
f 16 47 14
f 37 46 34
f 37 16 46
f 34 47 37
f 37 47 16
f 20 38 35
f 40 8 35
f 8 23 35
f 35 23 61
f 5 28 29
f 5 59 28
f 5 29 54
f 54 64 5
f 6 59 65
f 65 7 6
f 2 7 65
f 61 23 3
f 3 23 55
f 3 50 61
f 3 55 60
f 60 2 3
f 2 57 3
f 24 8 40
f 40 41 24
f 24 41 8
f 26 44 27
f 27 44 52
f 10 7 2
f 10 2 60
f 60 51 10
f 10 51 8
f 21 18 9
f 9 38 21
f 21 38 20
f 33 32 49
f 49 18 33
f 9 18 49
f 32 17 49
f 49 38 9
f 48 34 49
f 34 38 49
f 54 30 58
f 30 1 58
f 58 64 54
f 58 1 64
f 31 53 30
f 31 17 32
f 31 32 33
f 33 53 31
f 31 30 48
f 48 17 31
f 4 53 33
f 56 53 4
f 4 33 62
f 62 56 4
f 20 35 19
f 61 50 19
f 19 35 61
f 15 16 13
f 16 14 13
f 13 12 15
f 28 12 13
f 29 28 13
f 13 14 29
f 39 38 40
f 40 35 39
f 39 35 38
f 63 65 59
f 63 5 64
f 59 5 63
f 63 64 2
f 2 65 63
f 50 3 66
f 62 19 66
f 66 19 50
f 66 3 57
f 66 56 62
f 57 56 66
f 52 7 25
f 25 27 52
f 7 10 25
f 25 10 8
f 25 8 26
f 26 27 25
f 36 17 48
f 48 49 36
f 36 49 17
f 22 21 20
f 20 19 22
f 18 21 22
f 22 19 62
f 62 33 22
f 33 18 22
