v 0.00271591361 -0.00857952997 -0.00882628921
v -0.00307723616 -0.0119842273 -0.00365034299
v 0.00203192909 -0.000696874209 -0.0127764971
v -0.00408771063 0.00338802044 -0.0118056711
v -0.0084297018 0.00400346392 -0.0081959572
v -0.0106982115 0.00141497064 -0.00264428977
v -0.00526519345 -0.0113091852 -0.00204865269
v -0.00345416778 -0.0116658277 -0.00175702281
v 0.00388173335 -0.0070536682 -0.00999394335
v 0.00222073767 0.00208563039 -0.0111112305
v 0.00812856205 0.00695125129 -0.00188888084
v 0.00830801239 0.00953403478 0.00153544711
v 0.0103668741 0.000545923329 -0.0025086135
v 0.0101853442 0.00766091266 0.0019996881
v 0.0120488334 0.00260259808 0.00346001464
v 0.00968683604 -0.003334449 0.00760206766
v -0.00502244373 -0.00499328284 0.00774455792
v -3.7691196e-05 -0.00167276161 0.0125958343
v -0.0034955862 0.00219352651 0.011753093
v -0.0040938925 0.00456899062 0.010965925
v -0.00331634007 0.00943965655 0.00767536743
v -0.00196871075 -0.000663408 0.0121891502
v 0.00816919985 -0.00491550788 -0.00162126946
v 0.0019687019 -0.0111210698 -0.00565613117
v 0.0035853826 -0.00817676911 0.00440169274
v 0.000790739581 -0.00357965064 0.011748973
v -0.00699843197 0.0062047999 0.00202501889
v -0.00841336916 0.00475422171 0.000958861059
v -0.00321131005 0.00560457293 -0.00966352897
v 0.00641856759 0.0109424602 0.00184316734
v 0.0105136918 0.00676423067 0.00232490224
v 0.00262603381 0.0117124574 0.00405412039
v -0.000461909719 0.0118940254 0.0040754474
v 0.00586882937 -0.00422030445 0.0102842824
v 0.00435756417 0.0113158386 0.00327528592
v 0.00267167657 -0.00251513997 0.0120715841
v 0.0116507993 0.000516871949 0.00533402495
v -9.83841653e-05 -0.000874263812 0.0126459691
v 0.0115593556 -0.000374263753 0.00500420408
v 0.00873304234 -0.0031831001 0.00884281627
v 0.0112177237 -0.000480210828 0.00589976122
v 0.00681633795 -0.00377898579 0.0100230992
v 0.00459559701 -0.00404085553 0.0113868664
v -0.00250938351 0.0014415721 0.0125049845
v -0.00348878899 0.00397557804 0.0116769675
v -0.00383369525 0.00742822968 0.00967063491
v -0.00150953748 0.0105770398 0.00708661523
v 0.00260897554 0.011958484 0.00377218485
v 0.00283340123 -0.0015102923 -0.0123552332
v -0.00146110912 -0.0119528782 -0.00437553026
v -0.00932795362 -0.00844612749 -0.00134441667
v -0.00100253722 0.00280435242 -0.0125242503
v -0.00788293479 0.00354403838 -0.0094637379
v -0.011247921 -0.00563225573 -0.00143273957
v 0.000816171091 -0.0113687459 -0.00539303251
v 0.00324084922 -0.00915315811 -0.00817043679
v 0.00364620309 -0.00492874597 -0.0111370628
v -0.010882142 0.00199101801 -0.00640071637
v -0.0124566722 -0.00313858881 -0.00290440201
v -0.0103176954 -0.0070897181 -0.00201081161
v 0.00300336817 -0.00892659633 -0.00849772297
v 0.00175518284 -0.0107274016 -0.00672578429
v -0.0110446911 0.000819543247 -0.00624198198
v -0.0113510455 -0.00063175885 -0.00535649434
v -0.00826961086 -0.00958195791 -0.00193997377
v -0.00775052337 -0.00960646462 -0.00232588176
f 48 35 30
f 12 11 30
f 36 37 47
f 48 33 47
f 14 11 12
f 35 37 14
f 12 30 14
f 14 30 35
f 52 30 11
f 20 46 59
f 59 19 20
f 18 22 17
f 45 47 46
f 46 20 45
f 45 20 19
f 32 37 35
f 32 47 37
f 32 35 48
f 48 47 32
f 21 47 33
f 46 47 21
f 31 37 15
f 15 14 31
f 31 14 37
f 3 52 10
f 10 52 11
f 48 30 29
f 30 52 29
f 29 33 48
f 13 14 15
f 11 14 13
f 40 37 36
f 36 47 38
f 47 45 38
f 18 36 38
f 53 63 58
f 59 6 58
f 58 63 59
f 53 29 4
f 4 29 52
f 4 52 3
f 4 63 53
f 57 13 9
f 54 19 59
f 54 17 19
f 17 8 26
f 18 17 26
f 24 16 25
f 17 65 7
f 7 8 17
f 37 40 41
f 41 40 16
f 23 16 24
f 9 13 23
f 44 22 18
f 18 38 44
f 19 17 44
f 44 17 22
f 44 45 19
f 44 38 45
f 27 21 33
f 53 58 5
f 5 29 53
f 33 29 5
f 5 27 33
f 58 27 5
f 63 4 64
f 59 63 64
f 49 57 3
f 13 57 49
f 11 13 49
f 3 10 49
f 49 10 11
f 9 61 1
f 1 57 9
f 3 57 1
f 1 4 3
f 1 61 62
f 60 54 59
f 59 64 60
f 51 65 17
f 17 54 51
f 51 60 65
f 54 60 51
f 24 25 50
f 50 25 8
f 50 1 62
f 34 25 16
f 39 41 16
f 16 23 39
f 37 41 39
f 39 23 13
f 15 37 39
f 39 13 15
f 56 23 24
f 24 62 56
f 62 61 56
f 56 61 9
f 9 23 56
f 28 58 6
f 28 27 58
f 59 46 28
f 28 6 59
f 46 21 28
f 21 27 28
f 8 7 2
f 2 50 8
f 2 7 65
f 1 50 2
f 4 1 2
f 55 62 24
f 24 50 55
f 55 50 62
f 25 34 43
f 43 26 8
f 8 25 43
f 43 36 18
f 18 26 43
f 43 40 36
f 66 64 4
f 4 2 66
f 66 2 65
f 65 60 66
f 66 60 64
f 40 43 42
f 42 43 34
f 16 40 42
f 42 34 16
