v -0.000575384688 -0.0127839457 -0.000290329274
v -0.0127499242 -0.000540095386 -0.00127310181
v -0.00302779814 -0.0103895378 -0.0065356759
v -0.00964121322 -0.00376960991 0.00728214401
v -0.0104552445 -0.00191192496 -0.00706584943
v -0.0118257248 0.00105718602 -0.00292447751
v -0.00539677255 -0.00666084913 0.00929102448
v 0.000218341466 -0.0125125546 0.000430977248
v -0.000975922539 -0.0116614929 -0.00476132259
v -0.00234947891 -0.00983370096 -0.0072841264
v 0.00495002578 0.00709384261 -0.00892700313
v 0.0105713474 0.000211943202 -0.0056729866
v 0.0124909092 -0.000411722121 -0.00145332042
v 0.0108521137 -0.000772246362 0.00466207361
v 0.0108196436 0.00206246234 0.00641231374
v -0.000247875939 0.0124906799 0.000446106053
v 0.00325023136 0.00869647216 -0.00835762928
v 0.00377262984 0.00499652795 0.009582051
v 0.00143202882 -0.00183892539 -0.00965207519
v 0.00497126459 -0.00520238698 -0.00691612607
v 9.14790331e-05 -0.012586586 -0.000548565651
v 0.00443427032 -0.00617848731 0.00580878883
v 0.00409671597 -0.00199123209 0.00886769522
v -0.00266826934 0.0020425883 0.00898152465
v -0.00896021993 -0.00380108206 0.0083543666
v -6.9876278e-05 0.0114151683 0.00538960212
v -0.0104734959 0.00135071425 0.00474583349
v -0.0127202488 -5.34807929e-05 0.00108321595
v 2.36962516e-05 0.0120978009 -0.00396228525
v -0.00625331141 -0.000226066279 -0.00865768731
v -0.006858514 -0.00620636914 -0.00907054277
v 0.00144137439 0.0119606075 -0.00364647749
v 0.00865390234 0.00472200829 -0.00802105231
v 0.000902772285 0.012500661 -0.00128379317
v 0.00254058855 0.0108488084 0.00631153285
v 0.0112485467 0.00216366389 0.00558615945
v 0.011459989 0.00197552431 -0.00487479715
v 0.0083935674 0.00434695313 -0.00846739179
v 0.0066055043 0.00628026008 0.00882465935
v 0.0107263144 0.00213780551 -0.0066682862
v 0.0127895854 0.000257161082 0.00163867351
v 0.0124298586 0.000705408331 -0.00283567487
v 0.00871865495 0.00428767972 0.00845427889
v 0.00427668471 0.00900553479 0.00818482075
v 0.00169613868 0.0114324118 0.00552997842
v 0.000630116135 0.0125213821 0.00285043478
v 0.000661963036 0.0123904143 -0.00343677577
v 0.00322246176 0.010169097 -0.00692812248
v 0.00615337575 0.00690811736 -0.00886457567
v -0.00439134532 -0.00844074223 -0.0085202045
v -0.0103309632 -0.00259309797 0.00710947086
v -0.0119115503 -0.000585911053 0.00402130226
v -0.0114641958 -0.00135551788 -0.00519327492
v 0.000209251829 -0.0123099544 0.00307301772
v 0.000727503089 -0.0123512755 -0.00138585803
v -0.012336826 -0.000917747278 0.00358241928
v -0.00819873897 -0.00521245936 -0.00814987828
v -0.0113982047 -0.00199860556 -0.00521271318
v -0.00503861093 -0.00804387354 0.00849162592
v -0.0023120304 -0.0106467232 0.00669126824
v -0.000935392922 -0.012336422 0.0026194635
v -0.00152724386 -0.011439165 -0.00556611859
v -0.0064115762 -0.00695993532 0.00873563778
v -0.00185244085 -0.0115460802 0.0048555113
f 46 16 26
f 26 16 27
f 29 5 6
f 6 16 29
f 34 16 46
f 27 56 52
f 41 15 14
f 14 15 23
f 60 23 7
f 27 16 28
f 16 6 28
f 28 56 27
f 2 56 28
f 28 6 2
f 30 5 29
f 29 17 30
f 48 17 29
f 35 34 46
f 29 16 47
f 16 34 47
f 47 34 32
f 47 48 29
f 32 48 47
f 23 15 43
f 22 14 23
f 23 60 22
f 7 24 25
f 25 63 7
f 5 30 31
f 19 50 31
f 31 30 19
f 55 20 13
f 20 12 13
f 41 55 13
f 9 20 55
f 9 62 20
f 20 62 10
f 19 20 10
f 10 50 19
f 53 6 5
f 5 58 53
f 2 6 53
f 53 58 2
f 46 26 45
f 45 35 46
f 26 35 45
f 18 24 7
f 7 23 18
f 18 43 39
f 23 43 18
f 36 15 41
f 36 43 15
f 34 35 36
f 59 60 7
f 7 63 59
f 59 63 60
f 62 9 1
f 1 9 55
f 55 21 1
f 51 25 24
f 51 26 27
f 51 24 26
f 27 52 51
f 51 52 56
f 57 58 5
f 5 31 57
f 17 48 49
f 48 33 49
f 40 12 20
f 40 20 19
f 54 22 60
f 14 22 54
f 54 55 41
f 41 14 54
f 44 36 35
f 43 36 44
f 39 43 44
f 44 18 39
f 44 35 26
f 26 24 44
f 24 18 44
f 37 33 48
f 37 48 32
f 37 36 41
f 32 34 37
f 34 36 37
f 37 40 33
f 1 54 61
f 63 25 4
f 25 51 4
f 4 51 56
f 4 56 2
f 2 58 4
f 58 57 4
f 11 49 19
f 17 49 11
f 19 30 11
f 11 30 17
f 19 49 38
f 38 49 33
f 38 40 19
f 33 40 38
f 42 13 12
f 12 40 42
f 40 37 42
f 41 13 42
f 42 37 41
f 8 1 21
f 8 54 1
f 8 21 55
f 55 54 8
f 3 4 57
f 62 1 3
f 50 10 3
f 3 10 62
f 3 31 50
f 3 57 31
f 63 4 64
f 4 3 64
f 64 3 1
f 1 61 64
f 60 63 64
f 64 54 60
f 64 61 54
