v -0.00255413771 0.00913755266 -0.00858526325
v -0.00687964977 0.00263765616 -0.0104109295
v -0.00498904622 -0.00342087165 -0.0110840449
v -0.00606505736 0.00565012688 -0.00973540085
v 0.00973081379 0.00195640875 -0.00784540801
v 0.00406149403 0.00987071018 -0.00471295992
v -0.00200015104 0.00966498296 -0.00759935652
v -0.00472706971 0.00798609894 -0.00858539202
v -0.00702148182 0.00408807216 -0.00985526513
v -0.0083335962 0.000760555434 -0.00787602358
v -0.00602157153 -0.00415984488 -0.00930604662
v -0.004841465 -0.00497690442 -0.0108498789
v 0.0061835291 -0.00655285509 -0.00904849384
v 0.00990632908 -0.00242599277 0.00417011698
v 0.0100079723 0.00353448559 -0.00708393487
v -0.0030519424 -0.0102069303 0.00717931506
v -0.0100848526 -0.00260412009 0.0074856369
v -0.0104216123 -0.000299637422 0.00731554119
v -0.00282810864 0.00775217378 0.00901939609
v 0.00832737081 0.00709442051 -0.00434117286
v 0.0046508098 0.00528150753 0.0105077823
v 0.00695995983 -0.00605226507 0.00507231413
v 0.00959141865 -0.00258195466 -0.00816714834
v 0.00122976441 -0.00975926696 0.00228018651
v -0.00818584679 -0.00739935034 0.00289183653
v -0.00522957093 0.00850441438 -0.00752508318
v -0.00852855412 0.00501100556 0.00114041974
v -0.00735485139 0.00601035481 0.00777769016
v 0.00176847157 0.00751843496 0.00897389355
v 0.00646865822 -0.00482121046 0.0099753576
v 0.0064280563 0.000861846997 0.0108819527
v -0.00873025421 -0.00561615702 0.00741237741
v -0.00919029285 0.00254444776 0.00856532966
v -0.00618753141 0.00554956541 0.00960571605
v 0.004389385 0.00463871943 0.0111202816
v -0.000738823906 0.00665054642 0.0106854278
v -0.000159872977 0.00743301351 0.0104702769
v -0.00048523986 -0.00960531711 0.00811138793
v 0.00606176217 0.00221407538 0.010925248
v 0.00649045668 0.00278659665 0.0104483748
v 0.00735976142 0.0016747764 0.0102392447
v 0.00564120088 -0.00684385974 0.00901098204
v 0.00328730865 -0.00956394574 0.00801580106
v 0.00146441299 -0.00985297416 0.00806455662
v -0.00539475541 -0.00920106114 0.00693791295
v -0.00679100802 -0.00816504073 0.00711355766
v -0.00948406185 -0.00446535256 0.0071914328
v -0.00780630662 0.00474521055 0.00879070569
v -0.00561825431 0.00624231147 0.00949976399
v -0.00310923965 0.00724589422 0.0101176922
v 0.00275096947 0.00550355521 0.0110372644
v 0.0081729538 0.00698689012 -0.00700033457
v 0.000476394706 0.0103424763 -0.00732982131
v 0.00475787292 0.0095434919 -0.00705583582
v 0.00515003802 0.0093545822 -0.00661707639
v -0.00726011544 -0.000977449443 -0.0104927977
v 0.00068804916 -0.00769793529 -0.010474651
v 0.0101197382 0.000460952926 -0.00759041583
v 0.00691780024 -0.00542473023 -0.00939775025
v 0.00246501879 -0.00677261121 -0.0104038397
v 0.00958493969 0.00367286277 -0.0074405651
v 0.00238204882 0.00992992921 -0.00766165848
v -0.00641634338 -0.000900366215 -0.0108602078
v 0.00931638682 -0.000973730873 -0.0083677796
v 0.0065508552 0.00780882273 -0.00744674994
f 58 14 23
f 43 13 22
f 22 23 14
f 13 23 22
f 24 13 43
f 19 28 50
f 26 28 19
f 37 19 50
f 6 29 20
f 6 37 29
f 53 19 6
f 19 37 6
f 15 52 20
f 15 14 58
f 20 14 15
f 1 8 26
f 41 30 14
f 41 14 20
f 2 56 9
f 56 10 9
f 5 15 58
f 14 30 42
f 42 22 14
f 42 30 43
f 43 22 42
f 44 24 43
f 43 30 44
f 24 44 16
f 16 46 45
f 36 37 50
f 29 37 21
f 20 29 21
f 62 1 53
f 20 52 55
f 55 6 20
f 53 1 7
f 7 1 26
f 7 19 53
f 26 19 7
f 30 41 31
f 31 36 30
f 45 46 25
f 25 16 45
f 25 10 56
f 34 36 50
f 17 33 18
f 18 10 17
f 10 25 17
f 27 28 26
f 27 33 28
f 18 33 27
f 26 9 27
f 27 10 18
f 27 9 10
f 8 1 4
f 26 8 4
f 4 9 26
f 4 1 2
f 2 9 4
f 13 24 57
f 24 16 57
f 57 25 12
f 16 25 57
f 52 15 61
f 15 5 61
f 46 16 38
f 38 16 44
f 38 44 30
f 30 36 38
f 40 41 20
f 20 21 40
f 40 21 35
f 54 55 52
f 6 55 54
f 53 6 54
f 54 62 53
f 51 31 35
f 36 31 51
f 37 36 51
f 35 21 51
f 51 21 37
f 11 56 12
f 12 25 11
f 11 25 56
f 50 28 49
f 49 34 50
f 28 33 48
f 33 34 48
f 48 49 28
f 34 49 48
f 47 17 25
f 63 56 2
f 59 23 13
f 32 34 33
f 33 17 32
f 36 34 32
f 32 38 36
f 46 38 32
f 17 47 32
f 32 25 46
f 32 47 25
f 39 31 41
f 41 40 39
f 35 31 39
f 39 40 35
f 65 54 52
f 62 54 65
f 52 61 65
f 65 61 5
f 2 1 65
f 1 62 65
f 23 59 64
f 58 23 64
f 64 5 58
f 3 57 12
f 12 56 3
f 56 63 3
f 3 63 2
f 2 65 3
f 60 64 59
f 5 64 60
f 57 3 60
f 60 65 5
f 60 3 65
f 13 57 60
f 60 59 13
