v -0.012399996 0.00279443165 -0.000480977133
v -0.00144017226 0.0124037017 0.0015241365
v 0.000200681491 0.00930999219 0.00851203993
v -0.0110020483 -0.00184363615 0.00534598174
v -0.011555941 0.00338742492 -0.00266359931
v 0.00315913399 0.00758338407 -0.00522484198
v 0.00160327307 0.0110189699 0.000489448853
v -0.000176763745 0.0124224033 0.00141190958
v 0.00255874221 0.00619130119 0.00886384424
v 0.0121622005 -0.00203311578 0.00196053406
v 0.0097901855 -0.00723864427 0.00391936378
v 0.0104895857 0.00116012999 -0.00734315973
v -4.84444509e-05 0.000358097739 -0.0104892541
v -0.000799111762 -0.0119269427 -0.00381633259
v 0.00191937707 -0.0096600587 0.00464975541
v -0.00364193264 0.000402109015 -0.00893356788
v 0.00355600589 0.00054750708 0.00932022205
v 0.00226975504 -0.00563194026 0.00773275925
v 0.000530157726 -0.000530195392 0.0100818056
v 0.00331341228 0.00854179503 0.0069561243
v 0.00336344664 0.00953587988 -0.000510073183
v 0.0039143995 0.00974171699 0.00119770791
v 0.0082730799 0.00164935643 -0.00878007136
v -0.000418119185 0.00877311231 -0.0050581795
v -0.000524624965 0.00603880085 -0.00780969022
v -0.00575577674 0.000542051783 -0.0076204081
v -0.00497077143 -0.00887146498 -0.00217402196
v -0.00566760442 -0.00599487265 -0.00674917952
v -0.00839477482 -0.00357806356 0.0067557873
v -0.00473732713 -0.0041395936 0.00800563819
v -0.00651296208 -0.000388529102 0.0106189855
v 0.0011974678 -0.0123032448 -0.00206025012
v 0.000976339457 -0.012817349 -0.00110121149
v -0.000699811378 -0.00956003054 -0.00892627389
v 0.00330630434 -0.0118376264 0.00238540953
v 0.00749100673 0.000214990653 -0.0103247753
v 0.0114278372 -0.00497747847 0.00238619482
v 0.00894782405 -0.00829278984 0.0034466562
v 0.0117282957 -0.0044937784 0.002578762
v 0.0124619347 -0.00230712906 0.000374473897
v 0.0125246349 7.31283056e-05 -0.00296574263
v 0.0125722925 -0.00092882455 -0.00204874224
v 0.00862589326 6.32079591e-05 -0.00929066636
v 0.00522580754 -0.00141686849 -0.0115713713
v -0.000600199763 -0.00805488132 -0.00989860375
v 0.00180187863 -0.00431442694 -0.0119948918
v -0.00041392803 -0.0117151176 -0.0050247092
v 0.00666901371 -0.0103186731 0.00387172403
v 0.00575596353 -0.0110766456 0.00295799585
v -0.00457596203 0.0116340651 -0.00270557825
v -0.00694286248 0.00974451775 -0.00399912259
v -0.0127234641 0.000345471139 0.000981530881
v 0.000837744889 0.0118678276 0.00508860276
v -0.0105020524 -0.000904702371 0.00748737639
v -0.011687233 0.00453842812 -0.00223545838
v -0.0108816045 0.00556730384 -0.00351503264
v -0.00928968448 0.00810864598 -0.0040110577
v 8.62579973e-05 0.00736638809 0.010452674
v -0.00264526634 0.00444134838 0.0115903453
v -0.00288211132 0.00293333987 0.0121660293
v -0.00599739451 0.00115514498 0.0111909954
v -0.00640313348 0.0105166248 -0.00297615265
v -0.00156713542 0.012788576 0.000382612973
v 0.000363110688 0.00867808977 0.00933418001
v -0.00791680194 -0.00024629408 0.0100734228
v -0.0124561331 0.000133161701 0.00288782125
f 38 34 42
f 2 53 63
f 42 34 43
f 52 28 27
f 33 29 27
f 28 34 27
f 46 34 45
f 45 34 28
f 45 26 46
f 28 26 45
f 29 54 4
f 52 27 4
f 4 27 29
f 52 4 66
f 66 4 54
f 37 38 42
f 11 38 37
f 34 38 32
f 58 59 60
f 60 17 58
f 58 17 9
f 3 2 59
f 53 2 3
f 42 43 12
f 44 34 46
f 44 43 34
f 25 50 24
f 33 27 14
f 46 26 16
f 16 26 57
f 63 53 8
f 53 22 8
f 57 55 1
f 1 54 59
f 1 66 54
f 52 66 1
f 57 26 56
f 56 55 57
f 40 37 42
f 33 32 49
f 49 32 38
f 19 17 60
f 9 17 10
f 53 3 64
f 59 58 64
f 64 3 59
f 42 12 41
f 41 12 22
f 41 40 42
f 41 10 40
f 6 12 23
f 6 50 63
f 6 24 50
f 25 24 6
f 43 44 36
f 23 12 36
f 36 12 43
f 36 44 25
f 36 6 23
f 25 6 36
f 13 44 46
f 25 44 13
f 46 16 13
f 57 25 13
f 13 16 57
f 51 25 57
f 51 50 25
f 57 1 62
f 62 51 57
f 50 51 62
f 62 2 63
f 63 50 62
f 59 2 62
f 62 1 59
f 47 27 34
f 47 14 27
f 33 14 47
f 47 32 33
f 34 32 47
f 55 56 5
f 5 28 52
f 5 26 28
f 5 56 26
f 52 1 5
f 5 1 55
f 33 49 35
f 35 29 33
f 35 15 29
f 29 15 30
f 61 31 60
f 60 59 61
f 59 54 61
f 65 54 29
f 29 30 65
f 65 30 31
f 65 61 54
f 31 61 65
f 18 30 15
f 31 30 18
f 60 31 18
f 18 19 60
f 11 17 18
f 17 19 18
f 39 17 11
f 39 10 17
f 11 37 39
f 37 40 39
f 40 10 39
f 20 58 9
f 20 64 58
f 53 64 20
f 9 10 20
f 20 22 53
f 20 41 22
f 10 41 20
f 22 12 21
f 12 6 21
f 48 18 15
f 15 35 48
f 48 35 49
f 11 18 48
f 48 38 11
f 48 49 38
f 7 8 22
f 22 21 7
f 63 8 7
f 7 6 63
f 7 21 6
