v -0.00607446091 -0.0047046752 0.0101694362
v -0.0108742977 -0.000251554336 0.00684887679
v 0.000801418724 0.0100877926 0.00737192767
v 0.00352035575 -0.00142577337 0.0121395508
v -0.00344949162 0.0105206783 0.00221099917
v 0.00302253291 0.00964738041 -0.000292347672
v -0.000740422702 0.0112084579 0.00566545256
v 0.00140138236 0.0105999233 0.00701003771
v 0.00188241367 0.0103840022 0.00651611924
v 0.0102647256 -0.00266730638 0.000486605357
v 0.00570693328 0.0051437462 0.0100192106
v 0.00546509287 0.00073699553 0.0115085161
v 0.000180366849 -0.00990880416 0.00141527342
v -0.0105782959 -0.00040635779 0.00337344611
v -0.00952933716 0.00718630903 0.00382913014
v 0.00934411542 -0.00754427499 -0.00438012433
v 2.85497852e-05 -0.0111201983 -0.00616872432
v 0.00230760672 -0.0111943814 -0.00496403354
v 0.00714146188 -0.0094825748 -0.00385564902
v 0.0108243582 0.0011350353 -0.00610341257
v 0.00673530749 0.00521183736 -0.00929251165
v 0.00660469523 0.00601722862 -0.00753467128
v 0.00638431254 -0.00700484463 0.00222795247
v -0.00622313408 0.00105238577 -0.00993058984
v -0.0110856019 0.00156129186 0.00417366951
v -0.0102329566 -0.00250514611 0.0069535802
v -0.0069500091 -0.00738918765 -0.00238621706
v -0.00172580702 -0.00626855827 0.0101729084
v 0.00216370617 -0.00384054771 0.0120162857
v 0.00565342638 -0.000808821886 0.0106901579
v 0.00765832869 0.00558433249 0.000921843796
v 0.00568143494 0.00726701013 0.00770373609
v -0.00259671835 0.00415648468 -0.0115684236
v 0.00959357054 0.00311649648 -0.00808288565
v 0.00977016216 -0.00623916596 -0.00507473803
v 0.0109718773 -0.00213488645 -0.00602630275
v -0.00162503122 -0.0103470973 -0.00758711715
v 0.00606935054 0.0044411486 -0.0099898825
v 0.00703371978 -0.00940606952 -0.0049086468
v -0.000317136546 0.00489379875 -0.0115986243
v 0.00288246455 -0.011168956 -0.00533178468
v -0.00395186016 0.000615125031 -0.0120722425
v -0.00499999228 -0.000625024176 -0.0116419451
v -0.00517760487 -0.00522794007 -0.0104397187
v -0.00596259376 -0.00417415454 -0.0104491252
v -0.00354317979 -0.00916127645 -0.00827722912
v 0.00536722022 -0.010543096 -0.0048258062
v 0.0114350223 -0.0026054084 -0.00540116685
v 0.00684224116 0.00475781765 -0.00969093508
v 0.00203427296 0.005354337 -0.0116247022
v 0.00150258514 0.005854746 -0.0111917872
v -0.000874181057 0.00378360454 -0.0120497779
v -0.00390119305 -0.00564152176 0.0108446918
v -0.00662200362 0.010001354 0.00430929996
v -0.00778897843 -0.00477405883 0.00894749551
v 0.00107234906 0.0102222059 0.0073717494
v 0.00487310694 0.00715679136 0.00962386429
v -0.0112829101 0.00276597176 0.00521648906
v -0.00620093075 0.00984653518 0.00495153869
v -0.000625859629 -0.00586109956 0.0115620612
v -0.0102812824 0.00520411429 0.00524963453
v -0.00963718602 0.00737568844 0.00445093778
v -0.00318300758 0.0110005257 0.00567650043
v 0.00540569684 0.00326858639 0.0111779562
f 15 54 33
f 33 54 5
f 26 27 55
f 64 10 11
f 7 5 63
f 63 5 54
f 54 59 63
f 63 8 7
f 63 59 61
f 33 5 51
f 51 22 21
f 2 61 58
f 2 26 55
f 1 2 55
f 61 2 1
f 4 64 1
f 1 64 3
f 3 63 1
f 1 63 61
f 55 27 13
f 58 15 24
f 24 15 33
f 33 42 24
f 3 64 57
f 57 64 11
f 4 29 30
f 11 10 20
f 20 10 48
f 56 63 3
f 8 63 56
f 3 57 56
f 56 57 8
f 50 51 21
f 6 5 7
f 6 51 5
f 22 51 6
f 7 8 6
f 31 22 6
f 61 59 62
f 62 59 54
f 62 15 58
f 58 61 62
f 54 15 62
f 27 26 14
f 26 2 14
f 55 13 53
f 53 13 28
f 53 1 55
f 4 1 53
f 28 13 60
f 60 53 28
f 60 13 19
f 60 29 4
f 4 53 60
f 19 13 47
f 47 39 19
f 47 13 18
f 18 41 47
f 17 41 18
f 18 13 17
f 17 13 27
f 44 42 37
f 41 17 37
f 39 47 37
f 37 47 41
f 37 35 39
f 37 17 27
f 27 14 45
f 9 6 8
f 10 64 12
f 12 30 10
f 12 64 4
f 4 30 12
f 23 30 29
f 23 60 19
f 29 60 23
f 10 30 23
f 11 20 32
f 32 20 31
f 32 57 11
f 31 6 32
f 6 9 32
f 8 57 32
f 32 9 8
f 34 22 31
f 31 20 34
f 21 22 34
f 34 20 48
f 52 42 33
f 52 50 42
f 33 51 40
f 51 50 40
f 40 52 33
f 50 52 40
f 25 2 58
f 25 14 2
f 25 45 14
f 58 24 25
f 24 45 25
f 46 37 27
f 44 37 46
f 27 45 46
f 46 45 44
f 43 24 42
f 43 45 24
f 43 42 44
f 44 45 43
f 16 23 19
f 10 23 16
f 19 39 16
f 39 35 16
f 48 10 16
f 16 35 48
f 49 50 21
f 21 34 49
f 50 49 38
f 35 37 38
f 38 49 34
f 42 50 38
f 38 37 42
f 35 38 36
f 36 38 34
f 48 35 36
f 36 34 48
