v 0.0023360111 -0.0029004918 0.0122498598
v -0.00707178089 0.00961664671 0.00472373822
v -0.00854694918 -0.00325709369 0.00873377377
v -0.00675929089 -0.00503177725 0.00958061812
v -0.00591698105 -0.00577355054 0.00997655723
v -0.0113331785 0.000566362539 0.00621496961
v -0.00276145391 0.0112805387 0.0053768764
v 0.00956123274 0.00275927845 -0.00809676671
v 0.0111840972 -0.00297798639 -0.00548103584
v 0.0104527978 0.00257966895 -0.00664191765
v 0.00418541448 0.00584963628 -0.0107310021
v -0.00184550863 -0.0103757718 -0.00715406409
v 0.00470496177 -0.0105206305 -0.00344931487
v 0.00617005778 -0.0100441947 -0.00404034329
v 0.00774679197 -0.00539232099 0.00251756588
v -0.00914007325 -0.00414483958 0.00691321275
v 0.00647659658 0.00480833091 0.0091388327
v 0.0111843628 -0.00184365817 -0.00394616901
v 0.0043424898 0.00951471466 0.00553962402
v -0.00348220161 0.0106606607 0.00151438984
v -0.00090049057 0.0102481935 0.00018573667
v -0.00997180995 0.00734595008 0.00229989851
v -0.00656004818 -0.00287832033 -0.00970018956
v -0.0103008635 -0.00225883702 0.00228448391
v -0.00385287672 -0.009066892 -0.00805870868
v -0.00293017872 -0.00943720686 -0.000229045442
v -0.00175825413 -0.00739195861 0.00817317528
v 0.00395320466 -0.00870026744 0.00185960509
v 1.57473636e-05 -0.0057205397 0.0108148522
v 0.00176401773 -0.00436480045 0.0115738515
v 0.00801042125 -0.00909890983 -0.00394826061
v -0.00424410238 -0.000540333872 -0.0117997995
v -0.000474575325 -0.0110316339 -0.00693305786
v 0.00776517565 0.00401815835 -0.00921073236
v 0.00594572348 -0.00982219947 -0.00516249672
v -0.000699931509 0.00468890322 -0.0118908977
v 0.00722916717 0.00518281152 -0.00888131534
v -0.00405202572 0.00177919594 -0.0120366348
v 0.00808892082 -0.00820329032 -0.00498487136
v -0.00320040664 0.00155310621 -0.0121138335
v 0.0102106487 -0.00622574581 -0.00478799974
v 0.0110945753 -0.000809105064 -0.0062268883
v 0.00106949413 0.00467629728 -0.0117769343
v -0.00500335182 -0.000165859711 -0.0116452298
v -0.00583390238 -0.00377381317 -0.0106695117
v -0.00562990971 -0.00456616708 -0.0107241808
v -0.00386488294 -0.00823537541 -0.00884449402
v 0.00430826524 -0.0109703255 -0.0048215209
v 0.00623645203 -0.0099676613 -0.00474508811
v 0.00298466103 -0.00298461954 0.0118556399
v 0.00583769252 0.000696047571 0.0115657423
v 0.0033762965 0.00937449124 0.00796615225
v -0.00743910004 0.00903148913 0.00139704782
v -0.00935538243 -0.00305058021 0.00803573323
v -0.00888742599 0.00773769211 0.00468817212
v 0.0049880231 0.0064208644 0.0099573305
v -0.000490676482 -0.00478684601 0.0117618642
v -0.00557944 -0.00501231242 0.0102781913
v -0.000310220855 0.0110196168 0.00658105238
v 0.0010903434 0.0103853366 0.007194398
v -0.00111406865 -0.0046982017 0.0117714665
v -0.0109528097 0.00352460542 0.00562067652
v 0.00282231767 0.00892550662 0.00845029831
f 22 55 2
f 33 46 32
f 6 22 24
f 46 25 24
f 51 56 1
f 40 36 43
f 43 36 11
f 43 32 40
f 33 32 43
f 33 43 35
f 35 43 39
f 31 39 41
f 38 36 40
f 40 32 38
f 22 2 53
f 53 38 22
f 36 38 53
f 47 46 33
f 33 25 47
f 47 25 46
f 12 25 33
f 54 3 6
f 17 51 18
f 56 51 17
f 17 19 56
f 31 41 15
f 18 51 15
f 15 41 18
f 10 17 18
f 19 17 10
f 56 19 52
f 26 12 33
f 25 12 26
f 61 58 5
f 61 3 58
f 49 39 31
f 49 35 39
f 18 41 9
f 23 24 22
f 46 24 23
f 44 32 46
f 44 38 32
f 22 38 44
f 44 23 22
f 20 2 7
f 20 53 2
f 7 21 20
f 36 53 20
f 11 36 20
f 20 21 11
f 3 61 62
f 62 2 55
f 6 3 62
f 62 22 6
f 62 55 22
f 4 54 5
f 3 54 4
f 5 58 4
f 58 3 4
f 50 51 1
f 50 15 51
f 19 10 37
f 11 21 37
f 37 21 19
f 7 2 59
f 2 62 59
f 59 21 7
f 19 21 59
f 25 26 16
f 16 24 25
f 5 54 16
f 16 26 5
f 6 24 16
f 16 54 6
f 31 15 28
f 1 61 57
f 57 61 5
f 5 29 57
f 13 28 27
f 27 28 29
f 5 26 27
f 27 29 5
f 48 49 31
f 48 26 33
f 33 35 48
f 35 49 48
f 13 27 48
f 48 27 26
f 46 23 45
f 45 44 46
f 23 44 45
f 8 37 10
f 8 41 39
f 8 9 41
f 56 52 63
f 63 59 62
f 63 62 61
f 1 56 63
f 63 61 1
f 15 50 30
f 30 28 15
f 29 28 30
f 30 50 1
f 1 57 30
f 30 57 29
f 14 48 31
f 13 48 14
f 31 28 14
f 14 28 13
f 42 8 10
f 9 8 42
f 42 10 18
f 18 9 42
f 11 37 34
f 37 8 34
f 34 43 11
f 39 43 34
f 34 8 39
f 60 63 52
f 59 63 60
f 60 52 19
f 19 59 60
