v 0.00474123223 0.00317141617 -0.0112359289
v 0.0114542946 -0.00406523996 -0.00335988779
v 0.00381218938 -0.0123067879 -0.00328096555
v 0.0116180918 0.000288669713 -0.00514033335
v -0.00297873427 -0.00124935107 -0.0123430789
v -0.00386689065 -0.00390768413 -0.011598253
v -0.0102784106 -0.00408627253 -0.000501146787
v 0.00689566986 -0.0099707091 0.000866446894
v -0.00695536603 -0.00418298844 0.00945541183
v -0.0098948867 -0.00284025898 0.00750987659
v -0.0121261372 0.00265826968 0.0034239978
v -0.0105579271 0.00384686952 -0.000332565387
v -0.00366148452 0.0118652105 0.00274064429
v 0.00350939131 0.00891427539 0.00803635481
v 0.00545152067 0.00575655699 0.00794648575
v 0.00330795775 0.00178808566 0.0118758372
v 0.0018179317 -0.000234742011 0.0126320802
v -0.00160180773 -0.00391820897 0.0118125028
v -0.00509329028 0.0109181295 0.000417104357
v -0.00929914634 0.00853358527 0.00108841597
v -0.00427077161 0.00366307296 -0.00823108888
v -0.00642530343 -0.00524876373 0.00828743416
v -0.00330982675 -0.00884532336 0.00154396812
v -0.00732610692 0.00390822288 -0.00475743492
v 0.00242741973 0.00450428223 -0.0115069582
v 0.00740435133 0.00727111123 4.77055236e-05
v 0.0076813208 0.00446164509 -0.00858741892
v 0.00611734236 0.00240703031 0.00885156783
v 0.00958174304 -0.00449746649 0.0020642608
v -0.00870275837 0.00901992962 0.00203098906
v -0.00509186801 0.0112997126 0.0028744457
v 0.00370267244 0.00702689469 0.0101714443
v 0.002355222 0.0104961964 0.00682149384
v -0.0115099874 -0.000487168175 0.0057112528
v -0.0101796124 -0.00319056995 0.00458505267
v 0.00184802925 0.0100266841 0.00749231485
v -0.000957390003 0.0118484498 0.00483012762
v -0.0115726169 0.00484234622 0.00290528761
v 0.000332067224 -0.000778918017 0.0127053978
v -0.0116448627 0.00315294626 0.00187388961
v -0.00369022377 -0.00333632704 0.0117809741
v -0.00743173862 -0.00335633701 0.0098107697
v -0.00534346685 -0.00408758374 0.0107325091
v -0.00329232932 -0.0105573013 -0.00320912307
v -0.0104894698 0.0070323256 0.00156556901
v -0.00650262785 0.0107054438 0.00217162315
v 0.000371475323 0.0115310013 0.00502690593
v 0.00332841075 0.00334951697 0.0119215208
v 0.0107100082 0.00211310071 -0.00709745836
v 0.00468280566 0.00389382024 -0.0113816714
v 0.00146021674 0.00290609477 -0.012269965
v -0.00385372043 -0.00764229615 -0.00945289728
v 0.0111555378 -0.0060914348 -0.00219965214
v 0.0120577373 -0.00190727664 -0.00389349933
v -0.00345774986 -0.00659571789 -0.0102478551
v 0.00241900322 -0.0123396012 -0.00316302303
v 0.0107990224 0.0011978336 -0.00668976769
v 0.000186344112 0.00140911455 -0.0126609491
v -0.0015727838 -0.000734447624 -0.0126190026
v 0.0107395841 -0.00591825846 -0.00272014817
v 0.00305428072 0.00282876013 -0.0119589985
v -0.00260774184 -0.00312649942 -0.011849486
v -0.00306970931 -0.00900468083 -0.00863299658
f 3 8 56
f 56 8 18
f 39 32 36
f 11 7 34
f 54 29 53
f 53 29 8
f 8 3 53
f 39 42 41
f 41 18 39
f 22 23 56
f 56 23 44
f 23 22 44
f 63 3 56
f 56 44 63
f 7 52 63
f 63 44 7
f 6 52 7
f 6 12 5
f 7 12 6
f 26 15 54
f 45 30 20
f 5 12 24
f 24 45 20
f 12 45 24
f 40 7 11
f 40 12 7
f 40 45 12
f 59 6 5
f 62 6 59
f 59 3 62
f 59 1 3
f 20 30 46
f 20 46 19
f 48 32 39
f 43 42 9
f 43 41 42
f 9 22 43
f 18 41 43
f 56 18 43
f 43 22 56
f 10 44 22
f 10 22 9
f 9 42 10
f 42 34 10
f 55 63 52
f 52 6 55
f 55 6 62
f 62 3 55
f 3 63 55
f 37 36 33
f 33 36 32
f 30 45 38
f 11 34 38
f 38 40 11
f 45 40 38
f 38 34 42
f 38 42 39
f 39 36 38
f 21 24 20
f 20 19 21
f 5 24 21
f 4 26 54
f 3 1 57
f 58 59 5
f 5 21 58
f 58 21 51
f 37 27 13
f 13 19 46
f 17 48 39
f 16 48 17
f 39 18 17
f 17 18 8
f 8 29 17
f 29 16 17
f 28 16 29
f 28 48 16
f 28 29 54
f 54 15 28
f 28 15 32
f 32 48 28
f 7 44 35
f 44 10 35
f 35 34 7
f 35 10 34
f 37 33 47
f 47 33 26
f 47 27 37
f 47 26 27
f 14 33 32
f 26 33 14
f 32 15 14
f 15 26 14
f 51 21 25
f 25 21 19
f 25 50 51
f 19 13 25
f 27 50 25
f 25 13 27
f 3 57 2
f 54 53 2
f 2 57 54
f 1 50 49
f 49 57 1
f 49 50 27
f 27 26 49
f 26 4 49
f 49 4 54
f 54 57 49
f 1 59 61
f 59 58 61
f 61 50 1
f 51 50 61
f 61 58 51
f 37 13 31
f 31 13 46
f 31 46 30
f 30 38 31
f 31 36 37
f 31 38 36
f 60 53 3
f 3 2 60
f 60 2 53
