v -0.00524884084 0.00446768628 -0.0108204312
v 0.000132024158 0.00861294622 -0.00896357606
v 0.00220941531 0.0113855463 -0.00343073703
v -0.00997907968 0.00166934571 0.00648319219
v -0.00894157861 -0.00290747657 0.003599957
v -0.0128394526 0.000302344573 -0.000498986803
v 0.00673028965 -0.00292619681 0.0103594241
v 0.00535243987 -0.00922310035 -0.00644085192
v 0.000466373986 -0.00854359905 -0.00714471995
v -0.000221400616 -0.0122308789 0.00365502894
v -0.000804750978 -0.0115200529 0.00426582728
v 0.00124860889 -0.00969781969 0.00830813291
v -0.00049000741 -0.00652813595 0.00897720076
v 0.00472840694 0.00210193396 0.00901818268
v 0.00985974311 -0.00459825676 -0.00607642912
v 0.004951383 -0.0083787105 -0.00700204401
v -0.00371531657 0.00398443454 0.00880486419
v 0.00759780801 -0.00742732254 -0.00700339154
v 0.00157354947 -0.0122178556 -0.00318672173
v -0.00499645306 -0.00536813411 -0.00614267601
v -0.00558352433 -0.00854899385 0.000117325523
v -0.00854193633 -0.00428895447 0.00209458353
v -0.0008067962 -0.0101344443 0.0067545246
v -0.010456234 0.00450176058 0.00575374669
v 0.0100271317 0.00249981288 0.00463878315
v 0.0038882125 0.00752543883 0.00473032215
v 0.000323368975 0.0123812593 -0.002095519
v 0.0122359303 -0.0021520598 -0.00352147924
v -0.00232726947 0.00731077909 -0.010131298
v 0.00335592988 -0.000260612605 -0.00906557285
v 0.0121174556 -0.0025573596 -0.00283220926
v 0.000535680607 -0.0112797169 0.00576536596
v 0.000637658109 -0.0122853505 0.00262018225
v 0.00301957776 -0.0118771424 -0.00335705585
v 0.00530355471 -0.0100576138 -0.00583668051
v 0.00435958493 -0.0108124073 -0.00508445663
v 0.00260403604 -0.0117017489 -0.00402075698
v 0.000322850009 -0.0127761011 0.000515500325
v 0.00282109071 -0.00676756015 0.0104196361
v 0.00520822022 -0.00486120435 0.0107029043
v 0.00860551224 -0.00235418415 0.00908100332
v 0.0100367993 -0.000643948158 0.00803777236
v 0.0123489407 0.000485087824 0.00300867665
v 0.0127764658 -0.000391241871 0.00130768161
v 0.0123798949 -0.000772433733 -0.00190674388
v 0.009326848 -0.00631511968 -0.00617977932
v -0.00715503568 0.00236116916 -0.0100644605
v -0.0117510625 -0.000629020047 -0.00527790574
v -0.012406168 0.00102728922 0.00184514738
v -0.0090352981 0.00600997719 0.00648947103
v -0.0070696922 0.00860582729 0.00644189486
v -0.00327507679 0.0113557874 0.00476885211
v -0.000722204665 0.0127317246 0.00114277752
v -0.00409387092 0.0103642622 0.00584189544
v -0.0120536486 0.00240914077 0.0033933923
v -0.0117255145 0.000253445648 -0.00518446811
v -0.00110289958 0.0127545276 0.000489376199
v -0.00831255725 0.00177956453 -0.00943234395
v -0.0050912315 0.0103593567 0.00547945222
v -0.00384617227 0.00654026742 -0.0105007387
v -4.36935146e-05 0.0119780533 -0.00468112022
v -0.0122811637 0.0024675441 0.00291188864
v -0.00929178336 0.00165545123 -0.00872356673
f 57 60 62
f 44 42 41
f 12 41 40
f 6 48 21
f 21 48 19
f 61 60 57
f 1 60 30
f 34 41 33
f 19 48 20
f 63 20 48
f 58 20 63
f 63 62 60
f 63 60 1
f 1 58 63
f 57 62 59
f 7 41 42
f 40 41 7
f 24 4 50
f 49 62 6
f 39 12 40
f 13 4 23
f 23 12 13
f 13 39 4
f 12 39 13
f 27 61 57
f 3 61 27
f 2 61 3
f 53 25 3
f 53 27 57
f 3 27 53
f 44 3 43
f 3 25 43
f 43 42 44
f 43 25 42
f 9 20 58
f 19 20 9
f 56 48 6
f 56 63 48
f 6 62 56
f 62 63 56
f 40 7 17
f 17 39 40
f 50 4 17
f 4 39 17
f 55 24 62
f 4 24 55
f 62 49 55
f 55 49 4
f 23 4 5
f 4 49 5
f 5 49 6
f 32 10 33
f 33 41 32
f 41 12 32
f 32 12 23
f 23 10 32
f 11 10 23
f 21 10 11
f 38 21 19
f 38 10 21
f 33 10 38
f 19 34 38
f 38 34 33
f 60 61 29
f 61 2 29
f 29 30 60
f 29 2 30
f 28 2 3
f 42 25 26
f 25 53 26
f 16 9 1
f 1 30 16
f 16 30 18
f 47 58 1
f 1 9 47
f 47 9 58
f 50 17 51
f 51 17 54
f 54 59 51
f 51 24 50
f 51 59 62
f 62 24 51
f 21 11 22
f 6 21 22
f 22 5 6
f 23 5 22
f 22 11 23
f 30 2 15
f 2 28 15
f 18 30 15
f 45 3 44
f 44 28 45
f 45 28 3
f 31 28 44
f 44 41 31
f 41 34 31
f 42 26 14
f 14 7 42
f 54 17 14
f 14 17 7
f 52 26 53
f 52 59 54
f 54 14 52
f 52 14 26
f 57 59 52
f 52 53 57
f 46 15 28
f 28 31 46
f 18 15 46
f 46 35 18
f 46 31 34
f 34 35 46
f 8 16 18
f 18 35 8
f 9 16 8
f 8 35 9
f 36 35 34
f 9 35 36
f 19 9 37
f 9 36 37
f 37 34 19
f 37 36 34
