v 0.0097694579 -0.00240510893 0.00792063944
v 0.00160444366 -0.00199325864 0.0123602437
v 0.0115963846 0.00225168518 0.00433666263
v -0.00130028738 7.94470911e-05 0.0127162677
v 0.00830402659 -0.00352172833 0.00931864253
v -0.00438041895 0.00673488494 0.00967495927
v -0.00102894329 0.0114306808 0.0043127459
v 0.00287527771 -0.00989261305 -0.00741232427
v -0.00832589428 -0.00962481398 -0.00167702426
v -0.00420056972 0.00405829595 -0.0110945452
v -0.00541891595 0.00403622227 -0.0107035718
v -0.00957101174 0.00359835072 -0.00684621177
v -0.0117801308 -3.32251186e-05 -0.00470275332
v -0.00149628451 -0.011985446 -0.00367602661
v -0.000969867601 -0.0110111391 -0.00112306003
v 0.00256291229 -0.01050346 -0.00322557184
v 0.00791188796 -0.0046857154 -0.00469521264
v 0.00413084131 -0.00641906311 -0.0100567223
v 0.00122978438 0.00346152021 -0.0108685624
v -0.00461214531 -0.00650411196 0.00529477517
v 0.00832664031 0.00657937168 -0.00178556723
v 0.00594900026 0.0106901965 0.00081530466
v -0.00297130579 0.00388585115 -0.01178479
v -0.00323823016 0.00769452993 -0.00577647337
v -0.00649179433 0.00650831742 0.00386112305
v -0.0123901662 -0.00179783028 -0.0031303928
v -0.00391072934 0.000400274149 0.0111171591
v -0.00698806155 -0.00941939005 0.000649080275
v 0.00120725783 -0.00466929894 0.0105739459
v 0.00171914675 -0.00821293369 0.00489450947
v 0.0104577878 -0.00282338209 0.00667003967
v 0.0123665739 0.00184029583 0.00282054574
v 0.00423959983 -0.0017463283 -0.0114679032
v -0.00139651715 0.00189900285 -0.0124064116
v -0.00447983164 -0.0117505986 -0.00288588457
v 1.95338278e-05 -0.0116288578 -0.00558713657
v 0.00113648938 -0.0111401613 -0.00621424895
v -0.0118574291 -0.00296420686 -0.00384012845
v -0.00904057492 -0.00841964831 -0.00226770763
v -0.00980244849 -0.00777829221 -0.00119070013
v 0.00358694866 -0.00351120485 -0.0117298283
v -0.00042905465 0.00215814878 -0.0124863511
v -0.00630184973 0.00377641525 -0.0105019295
v -0.00911845703 0.00274488454 -0.00850868061
v -0.00856791009 0.00339518437 -0.00867759113
v -0.0107418783 0.00166831731 -0.00662938264
v -0.0114743518 6.70994274e-05 -0.00539432887
v -0.0114242431 -0.00482182866 -0.00154327061
v -0.00579917405 -0.0111039139 -0.0023876474
v 0.00357659549 -0.00731778167 -0.00989089038
v 0.00198534949 -0.000805902324 -0.0127448469
v 0.00595786468 0.0110481703 0.00211579509
v 0.00426569463 0.0116741647 0.0027121635
v 0.0010812151 0.0120169094 0.0045499213
v -0.00232652261 0.00075324106 0.0126252683
v 0.0110020584 0.00605405199 0.00176871402
v 0.0112697248 -0.000931966883 0.00571151113
v 0.00169078867 -0.00247771567 0.012374675
v -0.00377053725 0.00677981046 0.0100554511
v -0.00268252289 0.0099092737 0.00785800232
v 0.0086057621 0.00937617735 0.00191774397
v 0.0110610673 0.00576155826 0.00256598216
v 0.00199543579 -0.0036884764 0.0121853366
v 0.00429133583 -0.00314360928 0.0114386482
v -0.00347939132 0.00402602007 0.0117297271
f 62 3 32
f 62 61 3
f 48 27 26
f 26 6 25
f 6 60 25
f 3 61 2
f 32 3 57
f 28 9 49
f 26 25 13
f 7 25 60
f 7 60 54
f 54 24 7
f 56 62 32
f 32 33 56
f 56 33 21
f 56 21 61
f 61 62 56
f 27 55 65
f 65 55 4
f 65 6 26
f 26 27 65
f 4 2 65
f 65 2 61
f 65 61 54
f 54 60 65
f 28 27 40
f 27 48 40
f 40 9 28
f 3 2 1
f 1 57 3
f 4 55 63
f 26 13 47
f 46 47 13
f 45 24 43
f 22 23 24
f 61 21 22
f 12 24 45
f 12 7 24
f 25 7 12
f 12 13 25
f 12 46 13
f 59 60 6
f 6 65 59
f 59 65 60
f 5 1 64
f 64 1 2
f 64 63 5
f 58 2 4
f 4 63 58
f 58 64 2
f 63 64 58
f 28 63 20
f 20 63 55
f 20 27 28
f 20 55 27
f 28 49 35
f 35 49 9
f 15 35 14
f 16 15 14
f 11 43 24
f 23 43 11
f 47 46 44
f 45 43 44
f 44 12 45
f 46 12 44
f 61 22 52
f 53 24 54
f 53 22 24
f 53 52 22
f 54 61 53
f 61 52 53
f 42 23 19
f 23 22 19
f 19 22 21
f 19 51 42
f 21 33 19
f 33 51 19
f 42 51 34
f 34 23 42
f 34 43 23
f 34 44 43
f 18 50 41
f 50 51 41
f 41 33 18
f 41 51 33
f 28 35 30
f 35 15 30
f 5 63 30
f 30 16 5
f 15 16 30
f 44 34 38
f 47 44 38
f 26 47 38
f 38 48 26
f 38 40 48
f 17 50 18
f 17 33 32
f 18 33 17
f 24 23 10
f 10 11 24
f 23 11 10
f 29 63 28
f 28 30 29
f 29 30 63
f 39 35 9
f 9 40 39
f 40 38 39
f 57 1 31
f 32 57 31
f 31 17 32
f 31 1 5
f 5 16 31
f 36 16 14
f 36 37 16
f 14 35 36
f 50 37 36
f 36 51 50
f 35 39 36
f 36 39 38
f 36 34 51
f 36 38 34
f 16 37 8
f 8 31 16
f 17 31 8
f 50 17 8
f 8 37 50
