v 0.000516633526 -0.0120800322 -0.0038165852
v 0.00891361509 -0.00691107269 0.00603889633
v 0.00832610318 -0.00256241904 -0.00931537723
v 0.012336427 0.000311364334 -0.000209103997
v 0.0093426256 0.00026976494 -0.00799278402
v 0.0054268322 -0.00438904791 -0.0108418106
v 0.00204961565 -0.00817482746 -0.0096525782
v 0.000869767446 -0.0089179363 -0.00897678059
v -0.000146835829 -0.0113765057 -0.00562835429
v -0.00145149179 -0.0111622056 -0.00387773528
v 0.00327927202 -0.0108728347 0.00512905611
v 0.00418359617 -0.0106855813 0.00540678724
v 0.00560180568 -0.00975683858 0.00622765662
v -0.0119389778 0.000962841336 -0.00319200206
v -0.0108028136 0.00382395274 -0.0055414826
v 0.00215243429 0.0106058849 0.00453673596
v -0.000171122155 0.00927194628 0.00810189763
v -0.00216540659 0.00761676177 0.00998593409
v -0.00129363798 -0.00868242407 0.00609356197
v 0.00116702989 -0.00445756542 0.00853284635
v -0.00225650047 0.00504786351 -0.00847659732
v 0.0076053279 -0.00776871398 0.00684338751
v -0.0109264704 -0.00177949225 0.00495874024
v -0.000601266924 -0.0125136376 -0.00195048946
v -0.00386938564 -0.00839155951 -0.00510087067
v 0.00130242579 -0.00629576971 -0.0100030779
v -0.00555844475 0.00282014304 -0.00821666887
v 0.00731034513 -0.00147675009 -0.00988117347
v -0.000520993291 0.012459529 -0.00231149566
v -0.00384667566 0.0110340989 -0.00556127165
v 0.0119519118 0.000897339869 -0.00350271039
v 0.00508862971 0.00476056654 0.00655908762
v 0.000261995605 0.0057592791 0.00978208503
v 0.0111399628 -0.00209307799 0.00501170824
v -0.0121741267 0.00236146816 -0.00230986358
v -0.00480706398 0.0105481763 -0.00487451707
v -0.00968837806 0.00132902702 0.00830928168
v -0.0085503128 0.00722555591 -0.0067535333
v -3.36856351e-05 0.0126030847 0.00231387364
v -0.00492880438 0.00476810092 0.010908847
v -0.00683673997 0.00277789333 0.0102997944
v -0.00812983659 -0.00111606974 0.00820673833
v -0.0105624771 0.000337723086 0.0069682139
v -0.0114774492 0.000197690401 0.00546098915
v -0.0126573074 -0.000557879804 0.00215026303
v -0.012719449 0.000607436029 0.000951847221
v -0.0123482964 0.00205980993 -0.0025938814
v -0.000494054117 0.012947728 0.000904471264
v -0.000561208469 0.0103671148 0.00744765326
v -6.94676187e-06 0.0111567469 0.00606877262
v -0.0016853014 0.00917908432 0.00871365571
v -0.00497810386 0.00550001346 0.0102065256
v 0.0102501948 -0.000582571841 -0.00763518133
v 0.00914515958 -0.00588366825 0.00649348679
v 0.0116709641 -0.000268151468 -0.00515293268
v 0.000596885556 -0.012803792 -0.000272689145
v 0.0110123823 -0.00362932351 0.0051041063
v 0.0129054868 -0.000531957307 0.000439664756
v 0.00380482155 -0.00612189548 -0.0105845686
v 0.000536503817 -0.0111925655 -0.00595675581
v 0.0115370824 -0.00356050304 0.00449034042
v 0.0027901709 -0.00789788189 -0.00947622037
v 0.00165874003 -0.0124085514 0.00102014719
v 0.00242426707 -0.0120770251 0.00351065261
f 27 21 6
f 38 21 27
f 6 62 59
f 59 27 6
f 58 4 16
f 48 52 51
f 19 23 56
f 42 23 19
f 3 62 6
f 31 4 58
f 58 55 31
f 31 29 48
f 5 29 31
f 31 16 4
f 6 21 28
f 28 3 6
f 38 35 36
f 36 52 48
f 36 35 52
f 30 29 5
f 5 28 30
f 30 28 21
f 48 29 30
f 30 36 48
f 30 21 38
f 38 36 30
f 27 59 26
f 7 60 8
f 62 60 7
f 7 59 62
f 8 26 7
f 7 26 59
f 56 23 24
f 24 25 10
f 40 52 37
f 37 35 46
f 52 35 37
f 17 51 18
f 18 52 40
f 18 51 52
f 40 22 33
f 22 54 33
f 33 18 40
f 17 18 33
f 20 22 40
f 55 3 53
f 5 31 53
f 53 31 55
f 53 28 5
f 3 28 53
f 1 60 62
f 62 3 1
f 56 24 1
f 2 1 3
f 2 54 22
f 38 27 15
f 15 26 8
f 27 26 15
f 10 25 9
f 9 24 10
f 8 60 9
f 9 25 8
f 60 1 9
f 9 1 24
f 45 24 23
f 25 24 45
f 48 50 39
f 39 50 16
f 39 31 48
f 16 31 39
f 17 16 49
f 16 50 49
f 49 51 17
f 48 51 49
f 49 50 48
f 43 23 42
f 42 37 43
f 61 55 58
f 61 57 54
f 54 2 61
f 61 3 55
f 61 2 3
f 54 57 34
f 34 33 54
f 57 61 34
f 58 16 34
f 34 61 58
f 11 12 19
f 41 20 40
f 40 37 41
f 41 37 42
f 42 19 41
f 19 20 41
f 56 1 63
f 1 2 63
f 25 45 14
f 8 25 14
f 14 15 8
f 14 45 46
f 44 45 23
f 23 43 44
f 46 45 44
f 44 37 46
f 44 43 37
f 17 33 32
f 33 34 32
f 32 16 17
f 32 34 16
f 13 63 2
f 13 2 22
f 22 20 13
f 19 12 13
f 13 20 19
f 15 14 47
f 47 35 38
f 38 15 47
f 46 35 47
f 47 14 46
f 64 13 12
f 63 13 64
f 12 11 64
f 56 63 64
f 64 19 56
f 64 11 19
