v 0.00135966417 -0.0102377589 -0.00731247527
v -0.0009513266 -0.000199891499 -0.012474789
v -0.00379541047 0.00128189227 -0.0120223215
v -0.0082626042 0.00247350616 -0.00939781552
v -0.0123704489 -0.0017183392 -0.000676078507
v -0.00965350531 -0.00777150585 0.00158984007
v 0.0014031764 -0.0109842833 -0.00647363607
v 0.00265470408 -0.00662224143 -0.0103400455
v 0.00140575034 -0.00444821765 -0.012005677
v -0.00269152537 0.0107234037 0.00481019138
v 0.0110906384 0.00517342424 -0.00149913275
v 0.0118831969 0.00218304167 -4.16859472e-05
v 0.00268481945 -0.0107772405 3.65620472e-05
v 0.00327386717 -0.00152927861 0.0120469047
v -0.000634197444 0.00359714272 0.0123577699
v -0.00264947019 0.00784502247 0.0100423369
v -0.000912649719 0.000927713349 0.0119435726
v 0.00617495364 0.00456860707 -0.00604558446
v 0.00921993674 -0.00446435321 0.000222904313
v -0.00100010322 -0.0122035822 -0.00102002658
v 0.00433764416 -0.0051996708 0.00831888595
v -0.00576747555 -0.0111972347 0.00105901127
v -0.00258733292 -0.00673449627 0.00628732812
v -0.00891907762 -0.00443029052 0.00421092391
v -0.0113575029 0.00162013245 -0.00281877949
v -5.11193194e-05 0.0123324501 0.0032590779
v 0.00431492127 0.00776955776 -0.00510258138
v 0.00966293735 -0.00198417079 0.00828555367
v -0.000578128277 0.00430419238 0.0118808569
v 0.0121429102 0.00362913729 0.00125557945
v -0.00167397261 0.0107569063 0.0069859883
v 0.0021863783 0.012109292 -0.00108105106
v 0.00732967281 -0.00211012027 0.0102660102
v -0.00164510099 0.00710822048 0.0103380453
v 0.00930903892 -0.00153017632 0.00829242837
v 0.0110771308 -0.00072497643 0.00602387086
v 0.0101256185 0.00776269447 -0.00069595158
v 0.00922662588 0.00850756767 -0.0015671442
v 0.011016647 0.00625765021 -0.000320067334
v 0.0123212775 0.00304285162 0.000939605326
v 0.0120821246 -0.000255815707 0.00411568837
v 0.0119526872 0.00051663207 0.000960719921
v 0.0107617458 -0.00180154349 0.00636436335
v 0.00307686684 9.86743331e-05 0.0124096597
v 0.00026808044 0.0120827053 0.00392432679
v 0.00274607909 0.01234021 0.0018795419
v 0.00370167295 0.0121343878 0.000656914489
v 0.00606682692 0.0112915004 -0.000657904812
v 0.00208626057 -0.00923918591 -0.0086624282
v -0.0121297395 -0.000131653968 -0.00375447815
v -0.00873517645 0.00298906673 -0.0088030752
v -0.0110705471 -0.00617973046 0.000797086853
v -0.00312694087 -0.0123622605 -0.000674184389
v -0.000535081004 -0.0121923969 -0.00387117906
v -0.0106559043 0.00157209063 -0.00705826162
v -0.012052842 -0.00424139126 -0.000602841483
v -0.00101542092 -0.012325166 -0.00281729476
v 0.00203965644 -0.00731123081 -0.0101562821
v -5.78310076e-05 -0.00269526831 -0.0123893105
v -0.00495523831 0.00154672637 -0.0116337783
v -0.00331286145 0.0001644816 -0.0124543139
v -0.0121417927 -0.00125899218 -0.00329967932
v -0.0108782223 -0.00638783988 0.000145977584
v -0.00891992224 -0.00911006536 0.000768140729
v -0.0073993827 -0.0107133366 0.00127965273
f 44 28 35
f 2 3 27
f 27 3 32
f 40 12 11
f 65 24 6
f 65 23 17
f 17 24 65
f 53 20 21
f 60 51 32
f 32 3 60
f 2 59 61
f 61 3 2
f 61 60 3
f 5 25 50
f 50 62 5
f 2 27 18
f 18 27 38
f 38 11 18
f 48 27 32
f 38 27 48
f 8 11 12
f 49 8 19
f 40 11 39
f 15 17 44
f 15 24 17
f 52 24 5
f 6 24 52
f 62 61 64
f 64 65 6
f 6 52 64
f 33 28 44
f 33 21 28
f 23 21 14
f 44 17 14
f 17 23 14
f 14 33 44
f 21 33 14
f 28 21 13
f 13 21 20
f 23 65 22
f 22 21 23
f 22 65 53
f 53 21 22
f 51 60 4
f 60 61 4
f 9 61 59
f 49 61 9
f 9 59 2
f 2 18 9
f 9 18 11
f 11 8 9
f 31 10 16
f 5 24 16
f 24 15 16
f 16 25 5
f 16 10 25
f 53 65 54
f 65 64 54
f 5 62 56
f 56 52 5
f 28 13 43
f 43 13 19
f 19 41 43
f 49 19 7
f 19 13 7
f 13 54 7
f 55 61 62
f 55 4 61
f 62 50 55
f 51 4 55
f 55 50 25
f 55 10 51
f 25 10 55
f 47 48 32
f 32 46 47
f 47 46 48
f 26 46 32
f 32 51 26
f 51 10 26
f 26 10 31
f 44 46 34
f 34 46 31
f 31 16 34
f 34 16 15
f 30 46 44
f 40 39 30
f 30 41 40
f 58 8 49
f 49 9 58
f 58 9 8
f 42 41 19
f 42 8 12
f 42 19 8
f 42 12 40
f 40 41 42
f 1 64 61
f 1 54 64
f 1 61 49
f 49 7 1
f 1 7 54
f 57 13 20
f 57 54 13
f 57 20 53
f 53 54 57
f 63 64 52
f 52 56 63
f 62 64 63
f 63 56 62
f 31 46 45
f 45 26 31
f 46 26 45
f 29 15 44
f 44 34 29
f 29 34 15
f 37 30 39
f 46 30 37
f 48 46 37
f 38 48 37
f 37 11 38
f 37 39 11
f 41 30 36
f 28 43 36
f 36 43 41
f 36 35 28
f 44 35 36
f 36 30 44
