v -0.0122523315 -0.00168196956 -0.00143528863
v -0.00137688672 -0.00595965664 -0.0111282002
v -0.00260273746 -0.0122164458 -0.000136291662
v -0.0031527825 -0.000572800899 -0.0117011121
v -0.0106810124 0.00209993356 -0.00580132777
v -0.0120045292 0.000778470939 -0.00447844718
v -0.0117906266 -0.00423982397 0.00267922094
v -0.009175505 -0.00385671594 0.00493782976
v 0.000336105539 -0.0114803994 0.000830479622
v 0.00116180598 -0.00916586884 -0.00867390674
v 0.0100433623 0.00634301447 -0.0048817346
v 0.0122620136 -0.000651837384 0.00344924154
v 0.010883843 -0.00138508953 0.0059080736
v 0.00989999775 -0.000815374889 0.00820883152
v 0.00956998216 -0.00283932703 0.00587671365
v 0.00650440921 -0.00404940591 0.00744566833
v 0.00185227806 0.00394826812 0.0120983834
v -0.000531083698 0.00864618372 0.00954016455
v 0.00551992682 0.0106531503 -0.00381159999
v -0.00438269551 -0.00297987201 0.0079681299
v -0.0077148259 -0.00885954689 0.00465832707
v 0.0016631409 -0.0114868474 -0.00481839891
v 0.00596429089 -0.00734145567 0.00114550488
v 0.00225285117 -0.00772070625 0.0051860235
v -0.000403560804 -0.00559170707 0.00803669827
v -0.00355800824 0.00281532729 0.00949440929
v -0.00731208445 0.00547045656 0.00374025521
v -0.00331523576 0.00802170586 -0.00405867832
v 0.00367587284 0.0118043949 -0.00300090287
v 0.0123921648 0.00270061283 -0.000310664675
v 0.0119726338 0.00392454878 -0.00206421499
v 0.000599309675 0.0069888301 0.010645648
v 0.00620811819 0.0108159533 -0.00321541387
v 0.0066113863 0.000127920023 0.0107665202
v 0.00564865716 -0.000435475938 0.0108747624
v 0.0106471993 0.00624283532 -0.00361412774
v 0.0122915847 0.00276834032 -0.00122028372
v 0.012144335 0.00191493568 -0.00223312199
v 0.012494877 0.000409162259 0.00265775987
v 0.00517216195 0.0017202073 0.0116296114
v -0.00132086316 0.0110080302 0.00606602196
v -0.000443524119 0.0115805514 0.00566558145
v -0.000478342889 0.0125550294 0.00271483547
v 0.00184065976 0.0127259089 0.00030194103
v 0.00455135263 0.0116212622 -0.00246119791
v -0.00705938612 -0.000299205347 -0.010555193
v -0.00742238916 0.00121044742 -0.00982261068
v -0.0127799593 -0.00025071998 -0.00192076822
v -0.00976547177 -0.00707936027 0.0038411043
v -0.00654804809 -0.0103460078 0.00341182123
v -0.00069161828 -0.00593816974 -0.0111578085
v -0.000463496122 -0.00502555945 -0.0114271265
v -0.00326731271 -0.0033857982 -0.0119610099
v -0.00595143739 -0.0011854315 -0.0112771856
v 0.000508712385 -0.011259813 -0.00590331429
v 0.000403149225 -0.00844901292 -0.00961970508
v -0.0115625594 0.000343450983 -0.00531989061
v -0.0115464614 -0.00484441917 0.00239260904
v -0.0091812725 -0.00809008146 0.00345567405
v -0.0065294164 -0.0103570793 0.00316554525
v -0.00367504505 -0.0121336828 0.0020292968
v -0.00041620435 -0.0126850442 -0.0015813294
v -0.00922017593 0.000435633661 -0.00879562805
v -0.00118105237 -0.0127305859 -0.00145670061
f 53 2 54
f 64 2 55
f 30 14 39
f 38 30 39
f 4 47 29
f 4 54 47
f 53 54 4
f 46 63 47
f 47 54 46
f 46 54 63
f 2 59 1
f 59 58 1
f 1 58 48
f 16 14 35
f 64 61 3
f 3 2 64
f 3 59 2
f 21 59 50
f 50 61 21
f 29 47 28
f 28 44 29
f 42 44 43
f 43 41 42
f 44 28 43
f 27 41 43
f 22 55 10
f 10 38 22
f 22 23 62
f 64 55 62
f 62 55 22
f 62 61 64
f 15 14 16
f 19 4 29
f 11 4 19
f 7 27 48
f 48 58 7
f 57 54 2
f 2 1 57
f 63 54 57
f 57 1 48
f 17 35 40
f 40 32 17
f 14 30 40
f 40 30 42
f 42 32 40
f 16 35 25
f 21 61 25
f 25 35 17
f 59 3 60
f 60 50 59
f 60 3 61
f 61 50 60
f 31 36 30
f 31 38 11
f 11 36 31
f 47 63 5
f 5 28 47
f 5 43 28
f 56 55 2
f 56 10 55
f 38 10 56
f 9 62 23
f 23 15 9
f 9 15 16
f 61 62 9
f 12 15 23
f 12 23 22
f 39 14 12
f 12 38 39
f 22 38 12
f 33 36 11
f 11 19 33
f 30 36 33
f 33 19 29
f 33 44 42
f 42 30 33
f 27 7 26
f 17 32 26
f 49 58 59
f 49 7 58
f 49 59 21
f 34 35 14
f 14 40 34
f 34 40 35
f 16 25 24
f 24 25 61
f 24 9 16
f 61 9 24
f 30 38 37
f 37 31 30
f 38 31 37
f 63 57 6
f 6 5 63
f 6 57 48
f 48 27 6
f 27 43 6
f 43 5 6
f 11 38 52
f 38 56 52
f 53 4 52
f 52 4 11
f 14 15 13
f 13 12 14
f 15 12 13
f 29 44 45
f 45 33 29
f 44 33 45
f 18 26 32
f 42 41 18
f 18 32 42
f 18 41 27
f 27 26 18
f 17 26 20
f 20 25 17
f 21 25 20
f 8 26 7
f 7 49 8
f 8 20 26
f 8 49 21
f 21 20 8
f 51 56 2
f 51 52 56
f 51 2 53
f 53 52 51
