v -0.00239390697 -0.0083761977 -0.00944686781
v -0.00496155554 0.00738714921 -0.00939790189
v -0.00294103812 0.00875821427 -0.00779001055
v -0.00879487702 0.00187091288 -0.0091985572
v -0.0092043118 -0.00125112301 -0.00665296256
v 0.0012199157 -0.00891432408 -0.00921309382
v 0.000457937083 -0.00949704725 -0.00242104936
v 0.00954976277 -0.000344304961 -0.00496225038
v 0.00806020813 0.00495382871 -0.00408039158
v 0.00947260466 0.000206962756 0.00754714045
v 0.00764985624 -0.00692763207 -0.00508959804
v 0.00701205322 -0.00550604271 0.00904745103
v 0.0060351115 -0.00716458165 0.00722146426
v -0.00885288525 -0.00179479068 0.00869872764
v 0.00381933833 0.0080440519 0.0092470469
v 0.0061078687 0.00691398346 0.00862435233
v 0.00850919455 0.00390527068 -0.0086513448
v 0.00898689143 -0.00297391169 -0.00348549045
v 0.00439817189 -0.00805633994 -0.00866524679
v 0.00288251846 -0.00879498683 0.00819729737
v -0.00354066569 -0.00897337726 -0.00878564359
v -0.00770876277 -0.00554293971 -0.00328102405
v -0.0040517247 -0.00845889715 0.00814278593
v -0.00949364955 0.00113077487 0.0076922208
v -0.00580896661 0.00732298286 0.00863736999
v -0.00151489627 0.0091022255 0.00910037822
v -1.97821611e-05 0.00902460068 -0.00917002811
v 0.000373336557 0.00951434035 0.00109942206
v 0.00302981073 0.00889012179 0.00666062585
v 0.0022711598 0.00915205117 -0.00638167884
v 0.00629819051 0.00713813574 -0.00435030484
v 0.00818647852 -0.00294355566 0.00947336761
v 0.00163668245 -0.00892225418 0.00938835097
v 0.00591560422 0.00651367443 0.00913302604
v 0.0079824009 0.00422281383 0.00925751621
v 0.00861457204 -0.000371426869 0.00940268998
v 0.0084121001 0.00228265414 0.00930250693
v 0.00788845162 -0.00387719028 0.00935134688
v 0.0022842115 -0.00903515888 0.00882503689
v -0.00484923358 -0.00717769294 0.00938279827
v -0.0079756531 -0.00452180519 0.00925857132
v -0.00825283566 -0.0031277852 0.00938317501
v -0.0081762419 0.00382166106 0.00923013912
v -0.00487956815 0.00698364358 0.00943461836
v -0.00300294456 0.00834679579 0.00935050927
v 0.00278688344 0.00785045114 0.00947991214
v 0.00800763538 0.00353432938 -0.00939081914
v 0.00900409588 -7.5882602e-05 -0.00926555964
v -0.00818615617 -0.0042200175 -0.00868173715
v -0.00862431492 0.0040826626 -0.007974571
v 0.00278463366 0.00850251586 -0.00885010761
v -0.00534816597 0.00727973764 -0.00903173211
v -0.005990924 -0.00650663799 -0.00908356811
v 0.0069233798 -0.00515928305 -0.00944982524
v 0.00263206315 -0.00835613289 -0.00930415094
v 0.00615449843 -0.00629791388 -0.00920858976
v 0.00831347891 -0.00131816206 -0.00946337361
v 0.00652875902 0.00540623338 -0.00938452286
v 0.00396157404 0.0076767328 -0.00944410444
v 0.00490091068 0.0074485474 -0.00918397752
v -0.00810078968 0.00229162447 -0.00945862294
v -0.00832957059 -0.00185294775 -0.00945182701
v -0.00634902614 -0.00548180156 -0.00945450088
f 32 36 46
f 46 42 32
f 49 53 22
f 7 23 21
f 21 23 22
f 22 53 21
f 22 23 41
f 46 36 35
f 31 17 60
f 63 21 53
f 53 49 63
f 44 42 46
f 25 52 50
f 25 26 3
f 3 52 25
f 33 32 40
f 40 32 42
f 42 41 40
f 40 23 33
f 40 41 23
f 39 23 7
f 33 23 39
f 18 11 8
f 5 49 22
f 22 41 5
f 24 50 5
f 5 50 4
f 9 17 31
f 36 32 10
f 8 17 10
f 10 18 8
f 17 9 10
f 10 9 35
f 55 56 19
f 19 56 11
f 19 39 7
f 11 39 19
f 7 21 6
f 6 19 7
f 55 19 6
f 4 61 62
f 61 63 62
f 62 63 49
f 62 5 4
f 49 5 62
f 45 26 25
f 25 44 45
f 46 26 45
f 45 44 46
f 43 44 25
f 43 50 24
f 25 50 43
f 42 44 43
f 26 29 28
f 27 3 28
f 28 3 26
f 31 29 16
f 16 9 31
f 35 9 16
f 24 5 14
f 14 5 41
f 14 41 42
f 14 43 24
f 42 43 14
f 37 35 36
f 36 10 37
f 37 10 35
f 27 59 2
f 2 59 61
f 2 3 27
f 52 3 2
f 2 61 4
f 4 50 2
f 2 50 52
f 55 6 1
f 21 63 1
f 1 6 21
f 57 63 61
f 61 59 57
f 57 1 63
f 30 28 29
f 31 60 30
f 30 29 31
f 27 28 30
f 35 16 34
f 15 16 29
f 15 26 46
f 15 29 26
f 15 34 16
f 46 35 15
f 35 34 15
f 12 13 11
f 39 13 12
f 33 39 12
f 20 39 11
f 11 13 20
f 20 13 39
f 55 1 54
f 1 57 54
f 54 56 55
f 11 56 54
f 47 57 59
f 60 59 51
f 51 30 60
f 51 59 27
f 27 30 51
f 38 12 11
f 38 10 32
f 38 32 33
f 33 12 38
f 11 18 38
f 18 10 38
f 48 47 17
f 57 47 48
f 48 17 8
f 8 11 48
f 11 54 48
f 48 54 57
f 58 59 60
f 58 47 59
f 58 60 17
f 17 47 58
