v -0.00807386609 0.00400812613 0.00906236382
v 0.00505662475 -0.00356315661 0.0110417107
v 0.00633065712 -0.0049442483 0.00930402661
v -0.00474191771 -0.0105954753 0.00310630103
v -0.00726973176 -0.0095150455 0.00427662403
v -0.0095800453 -0.00721316084 0.00371437175
v -0.0101358875 -0.0049135481 0.00211406436
v -0.00921184561 0.00370353125 0.0014743796
v -0.00996389977 0.00243176515 0.00427237939
v 0.000520832608 0.00534504728 0.0109321516
v -0.00274416262 -0.00283736912 -0.0122568622
v 0.00625164477 0.0102660019 -0.00438608506
v 0.000551513378 0.0114213927 -0.00487797565
v -0.00302941722 0.00980636312 -0.00693228017
v -0.00611049733 0.00661716933 -0.00709670876
v -0.00489365618 -7.41448707e-05 -0.0117737401
v 0.00605153544 -0.00587693936 -0.00911226497
v -0.00103615582 -0.00622354639 -0.00993924484
v 0.00421004253 0.0058288097 0.0075141942
v 0.00917067036 0.00785979827 -0.00385758443
v -0.0065265497 0.00689115472 0.00235947592
v 0.00247553469 0.00832023424 0.00418728491
v -0.00657016294 0.00691794577 -0.00169727727
v -0.00848141305 0.00472117956 0.00282482099
v -0.00611694866 0.00359670493 -0.0107341379
v -0.011469963 -0.00198885349 0.00510642241
v -0.00553360758 -0.000720167014 -0.010756148
v 0.00350991825 -0.00799607785 -0.00464009871
v 0.00262637507 -0.0104174484 0.00442312345
v 0.0104953021 -0.00256474122 -0.00643834205
v 0.0112682642 0.00185856579 -0.00442480049
v 0.0107851486 0.00466318982 -0.00321518264
v -0.00491094132 0.00169688952 -0.0116148426
v -0.00421466093 0.00745689123 -0.00939174202
v 0.00151386089 -0.00500786875 -0.0116698684
v 0.00892170718 0.00760225222 -0.00493634533
v 0.00958368395 0.00706859234 -0.0041136167
v -0.00381998849 0.00893557548 -0.0084635646
v 0.0109350853 0.00397460661 -0.00524183129
v 0.0106777564 -0.00086299268 -0.00705585848
v 0.00878128063 -0.00319460971 -0.00859580551
v -0.00034815792 0.0108605861 -0.00682800588
v 0.00142951862 0.0111919643 -0.00604280885
v 0.00475532087 0.0107007052 -0.0050720876
v 0.00180815056 -0.00532424851 -0.0113718648
v 0.00417298205 -0.00568279206 -0.0106518174
v 0.00657263943 -0.00500043039 -0.0098509602
v 0.00870360017 -0.00404015369 -0.008246701
v 0.0112810517 0.00193120911 -0.00551982899
v -0.00449800575 0.00626696746 0.0100963709
v -0.00910826954 0.00358665374 0.00788410518
v -0.0106323093 -0.00476581782 0.00523585082
v 3.40923903e-05 -0.0107956178 0.00677159581
v -0.01108652 -0.00165465524 0.00612460889
v 0.00457422661 0.00161054325 0.0118692905
v 0.00559244404 -0.00270708784 0.0111837707
v 0.00209777461 -0.00993864502 0.00777491645
v -0.00679020395 -0.00997476488 0.00477977448
v 0.00435823618 -0.000380533509 0.011830454
v -0.000753369477 0.00453197021 0.0118063185
v 0.000615374051 0.00425292861 0.0121426584
v 0.00480364614 -0.00722281821 0.00944528983
v -0.00256242094 -0.0112239473 0.00557878593
v -0.0100211114 0.00235386889 0.00763275536
v -0.00417473179 0.00555312386 0.0107685143
f 13 50 22
f 2 58 57
f 21 50 13
f 1 50 21
f 61 50 65
f 65 50 1
f 13 22 12
f 10 50 61
f 10 22 50
f 30 40 49
f 49 31 30
f 62 2 57
f 56 2 62
f 19 55 20
f 20 12 19
f 19 12 22
f 22 10 19
f 61 55 19
f 19 10 61
f 59 2 56
f 56 55 59
f 61 2 59
f 59 55 61
f 20 55 32
f 32 31 49
f 32 55 56
f 6 27 11
f 58 52 6
f 1 21 51
f 4 63 58
f 28 63 4
f 28 4 18
f 18 6 11
f 61 65 60
f 60 65 1
f 60 2 61
f 58 2 60
f 60 52 58
f 43 42 13
f 42 43 44
f 13 12 44
f 44 43 13
f 29 28 17
f 29 62 57
f 30 62 29
f 29 63 28
f 40 30 41
f 3 30 31
f 3 62 30
f 56 62 3
f 3 32 56
f 31 32 3
f 27 6 7
f 26 25 7
f 7 25 27
f 7 52 26
f 7 6 52
f 11 27 16
f 27 25 16
f 13 42 14
f 14 21 13
f 14 23 21
f 1 51 64
f 64 9 26
f 21 23 24
f 24 51 21
f 24 64 51
f 57 58 53
f 58 63 53
f 53 29 57
f 63 29 53
f 46 47 17
f 17 28 46
f 28 18 46
f 5 4 58
f 5 18 4
f 58 6 5
f 6 18 5
f 54 60 1
f 52 60 54
f 1 64 54
f 26 52 54
f 54 64 26
f 36 12 20
f 36 44 12
f 40 41 36
f 42 44 36
f 36 34 42
f 47 41 48
f 48 41 30
f 17 47 48
f 48 29 17
f 30 29 48
f 25 34 33
f 33 16 25
f 11 16 33
f 33 36 41
f 34 36 33
f 15 23 38
f 23 14 38
f 38 25 15
f 38 34 25
f 42 34 38
f 38 14 42
f 8 23 15
f 8 24 23
f 26 9 8
f 9 64 8
f 64 24 8
f 8 25 26
f 15 25 8
f 35 18 11
f 47 46 35
f 35 41 47
f 11 33 35
f 35 33 41
f 39 32 49
f 49 40 39
f 40 36 39
f 45 46 18
f 18 35 45
f 45 35 46
f 37 36 20
f 37 39 36
f 20 32 37
f 32 39 37
