v -0.0116015233 0.00364982983 -0.00452892029
v -0.00597299719 0.00959677197 -0.00615288503
v -0.00582239225 0.00456509482 0.0104461313
v -0.00466270006 0.0100052197 -0.00629546568
v -0.00138575048 0.0106315363 -0.00481146625
v -0.00209055425 0.012348148 -0.00279426316
v -0.00835342977 0.00119213015 0.00935329859
v -0.00824204785 0.00181969484 -0.00675740399
v -0.00882234068 0.00646009953 -0.00654504727
v 0.00868214571 -0.0045241156 0.00706751591
v 0.000130665604 -0.0110637157 -0.00682241205
v 0.00109037687 -0.00207510421 -0.0107261419
v -0.00189038766 -0.00707207546 -0.00798270738
v 0.000252001789 -0.0126043027 0.000731797023
v 0.00605550422 -0.00853315677 0.00710712541
v 0.00741496249 -0.00770750494 0.0067688112
v 0.011983853 -0.000759772114 0.00291114187
v 0.0118625933 0.000291358799 -0.00533318647
v 0.00897061539 -0.00164324604 -0.00894353648
v 0.00719922931 -0.0030164398 -0.0104630436
v -0.00516680423 -0.00267231566 -0.00810830701
v -0.0121521753 0.000931913622 -0.00261901365
v -0.0127656568 0.00023641773 0.000619350848
v -0.00311381124 -0.0107199952 -0.00299154678
v -0.0114653878 -0.000751022846 0.00495765887
v -0.00672461412 -0.00510461302 0.00521513178
v -0.00619040925 -0.000774806926 0.00966482805
v 0.00279721442 0.00533633149 0.00811945122
v 0.0023950752 0.0101761974 0.00468072553
v 0.00980734774 0.00345200164 -0.000957790177
v 0.00752732323 0.00591041239 2.69903703e-05
v 0.00962827461 0.00213060864 -0.00555652859
v 0.00459706429 0.00369018299 -0.00779925003
v 0.00231134923 0.00265442038 -0.00904023574
v 0.00237582501 -0.00813625912 -0.00969034112
v 0.00769323043 -0.00803017451 0.00621680271
v 0.00869787376 -0.00674629294 0.00629272677
v 0.00293213583 -0.00630062674 -0.0104107175
v 0.000127022532 -0.0122047288 -0.00395639539
v 0.000510233124 -0.0127974768 -0.00128807725
v 0.00253073877 -0.0119455473 0.00391923822
v 0.0045724914 -0.0105643292 0.00539308017
v 0.00349045684 -0.0115302475 0.00387414633
v 0.00598492196 -0.00929792774 0.00620566859
v 0.0115305854 -0.00356188473 0.00418449177
v 0.00987971466 -0.00541180455 0.0058195851
v 0.0107465182 -0.00388046709 0.00558162197
v 0.0121493313 -0.00216651976 0.00319116209
v 0.0128433567 -0.000248323576 -0.00130737824
v 0.0102751993 -0.000116707717 -0.00747717498
v -0.0039180763 0.00597553227 0.0106373035
v -0.00271457468 0.00614712064 0.0105984518
v -0.000474967317 0.00995734615 0.00794520341
v -0.00680997785 0.00811506606 -0.00674138905
v -0.000174499632 0.0129207365 0.000369237901
v -0.000547750272 0.0110435786 0.00663480267
v -0.00228708722 0.0082372341 0.00935902498
v -0.0111713861 0.00379519176 -0.00505313792
v -0.00393077161 0.0112235078 -0.00450446382
v -0.00673210116 0.00338802257 0.0104119541
v -0.0105015021 0.000718443461 0.00725748272
v -0.0122508761 0.000279740999 0.00352462448
v -0.00780331452 0.00780326046 -0.00617584966
v -0.000369037103 0.012295285 0.0032531422
f 21 9 12
f 31 18 55
f 55 18 32
f 32 18 50
f 12 9 54
f 54 4 12
f 9 2 54
f 54 2 4
f 12 4 34
f 22 24 23
f 38 21 12
f 38 35 21
f 24 22 11
f 11 22 21
f 35 38 20
f 20 38 12
f 49 45 20
f 20 45 35
f 12 34 20
f 49 18 30
f 18 31 30
f 30 17 49
f 31 17 30
f 52 57 51
f 10 28 52
f 52 15 10
f 56 57 53
f 53 52 28
f 57 52 53
f 24 26 25
f 23 24 25
f 25 62 23
f 25 26 61
f 61 62 25
f 36 45 46
f 27 26 41
f 7 61 27
f 61 26 27
f 15 52 27
f 42 27 41
f 15 27 42
f 10 15 16
f 16 15 36
f 4 2 59
f 55 32 5
f 23 62 1
f 1 22 23
f 1 56 64
f 64 59 1
f 21 35 13
f 13 11 21
f 35 11 13
f 50 18 19
f 19 18 49
f 49 20 19
f 29 17 31
f 64 56 29
f 56 53 29
f 55 64 29
f 29 31 55
f 28 17 29
f 29 53 28
f 48 45 49
f 49 17 48
f 10 46 47
f 47 46 45
f 47 28 10
f 47 17 28
f 45 48 47
f 47 48 17
f 7 27 60
f 60 61 7
f 60 52 51
f 60 27 52
f 36 15 44
f 44 42 36
f 15 42 44
f 36 46 37
f 37 16 36
f 37 46 10
f 10 16 37
f 33 32 50
f 33 5 32
f 50 19 33
f 33 34 4
f 4 5 33
f 33 20 34
f 33 19 20
f 55 5 6
f 6 64 55
f 6 59 64
f 4 59 6
f 6 5 4
f 63 2 9
f 9 1 63
f 63 59 2
f 63 1 59
f 58 1 9
f 21 22 58
f 22 1 58
f 24 11 39
f 39 40 24
f 39 11 35
f 35 40 39
f 14 26 24
f 24 40 14
f 41 26 14
f 14 40 41
f 35 45 43
f 43 40 35
f 43 45 36
f 36 42 43
f 43 42 41
f 41 40 43
f 61 60 3
f 3 62 61
f 3 57 56
f 56 1 3
f 3 1 62
f 51 57 3
f 3 60 51
f 9 21 8
f 8 58 9
f 21 58 8
