v -0.00197416885 -0.0126976983 0.000123513793
v -0.000818085907 -0.00508527123 0.0114524716
v -0.000674968357 -0.00473552028 0.0113650046
v 0.00120641469 -0.00953007324 0.00843029303
v 0.000423438183 -0.0120272258 0.00437116006
v -0.00462011743 -0.010805525 -0.00363998833
v -0.0113484758 -0.00312815208 -0.00359408576
v -0.0125243779 0.000411916096 0.00258769614
v 0.00104924026 -0.00322102411 -0.00926403656
v 0.00426079558 -0.000783219739 -0.0108336959
v -0.00141235601 0.00684573121 -0.00987444415
v 0.000968506245 0.00482466978 -0.0119186381
v 0.0127207273 2.77343161e-05 -0.00165662572
v 0.0123878024 0.00239031299 0.00120452881
v 0.0026375055 0.0050950969 0.00806753282
v -1.02122252e-05 -0.0124339442 0.000675329511
v -0.00595905371 0.000414782701 0.0108397332
v -0.00114478447 0.00816270288 0.00533744163
v 0.00150606625 0.0126327711 0.000885647103
v -0.00103109903 0.0128093514 0.00164594723
v -0.0115730162 0.00115405041 0.00518872216
v -0.00578248195 0.00743073433 -0.0023916605
v -0.00810020582 0.00416019661 -0.00294252458
v 0.00297233697 0.00214444419 -0.0121318635
v -0.0054178388 -0.00980785206 -0.00487746749
v 0.000771767742 -0.0104704631 -0.00301309978
v 0.00686677 -0.00704122793 -0.000836622544
v 0.00923817296 -0.00382473303 0.00167784612
v 0.00320592479 -0.00544808839 0.00934229429
v 0.00960933799 0.0068337422 0.00426932057
v 0.0029091857 0.00389288237 -0.0117563148
v 0.0119698541 0.00400176103 0.00179562503
v 0.003335481 0.0122177594 0.00101025914
v 0.0115527437 0.00376501625 0.0032402503
v 0.0124354381 0.00156542164 -0.00131502387
v 0.0122001825 0.000686080281 -0.00290664259
v 0.0102996911 -0.000607307802 -0.00767857954
v 0.0105180828 -0.00103295235 -0.00730831234
v 0.00416177341 0.00233859772 -0.0119436757
v -0.00141283073 0.00918774541 -0.00886032294
v 0.00658364995 0.0103094438 0.00380345104
v 0.00444001142 0.0114492123 0.00293568437
v 0.000716070434 0.0126696783 -0.00177313681
v -0.000333363103 0.0120290762 -0.00418226134
v -0.000419951004 0.00968115511 -0.0083063119
v -0.000653935006 0.0109988372 -0.00645913196
v 0.00750172243 -0.000278433461 -0.0103845504
v 0.010744604 0.00595917674 0.00321126192
v 0.0094697218 0.00780218835 0.0034695228
v 0.00786477351 0.00933965027 0.00372463702
v -0.00466329655 -0.00217927708 0.0117479128
v -0.00217017489 -0.00235747374 0.0118148159
v -0.00240486281 -0.00375577706 0.0118468183
v -0.00591408685 -0.0104791639 -0.00378081543
v -0.0100767147 -0.00682256443 -0.00412884592
v -0.00733579708 7.03941346e-05 0.0104476129
v -0.00418068408 -0.0117717306 -0.00237586986
v -0.0122106349 -0.00356565925 -0.00160722301
v -0.0117449649 0.000406389544 0.00498352216
v -0.00974325437 0.000920800214 0.00812479395
v 0.000745553864 -0.00990382309 0.00827382785
v -0.00876154721 -0.00880371633 -0.00350434478
v -0.0101640972 0.000415877763 0.00753633001
v -0.00141036961 -0.0055133161 0.0115037269
v -0.0124986478 -0.0014226351 0.00141752247
v -0.00820797102 -0.000183909114 0.00950578627
f 25 55 24
f 27 38 13
f 55 25 62
f 1 61 62
f 1 62 57
f 11 7 40
f 28 27 13
f 64 61 4
f 5 61 1
f 4 61 5
f 5 28 4
f 27 28 5
f 59 21 8
f 13 38 36
f 33 49 45
f 48 49 30
f 30 34 48
f 8 21 20
f 15 20 18
f 54 62 25
f 25 57 54
f 54 57 62
f 24 47 10
f 12 40 45
f 11 40 12
f 24 55 12
f 55 7 12
f 12 7 11
f 25 10 26
f 26 10 47
f 1 57 26
f 26 47 38
f 38 27 26
f 23 7 8
f 23 40 7
f 29 34 30
f 4 28 29
f 55 62 58
f 8 7 58
f 58 7 55
f 65 58 62
f 65 59 8
f 8 58 65
f 45 49 37
f 38 47 37
f 37 36 38
f 19 33 43
f 43 20 19
f 49 48 32
f 32 48 34
f 56 20 60
f 60 20 21
f 60 66 56
f 17 15 18
f 17 20 56
f 18 20 17
f 41 15 30
f 9 25 24
f 24 10 9
f 9 10 25
f 6 57 25
f 25 26 6
f 6 26 57
f 27 5 16
f 16 26 27
f 16 5 1
f 1 26 16
f 40 23 22
f 8 20 22
f 22 23 8
f 30 15 52
f 15 17 52
f 45 37 31
f 31 12 45
f 46 33 45
f 46 43 33
f 45 40 46
f 40 22 46
f 49 32 35
f 35 37 49
f 36 37 35
f 13 36 35
f 14 32 34
f 14 28 13
f 13 35 14
f 14 35 32
f 34 29 14
f 14 29 28
f 21 59 63
f 63 60 21
f 66 60 63
f 59 65 63
f 63 62 66
f 63 65 62
f 20 15 42
f 15 41 42
f 42 41 33
f 42 33 19
f 19 20 42
f 49 33 50
f 33 41 50
f 30 49 50
f 50 41 30
f 3 29 30
f 30 52 3
f 53 52 51
f 51 52 17
f 51 17 56
f 51 64 53
f 56 66 51
f 66 62 51
f 51 62 61
f 61 64 51
f 39 37 47
f 39 31 37
f 39 47 24
f 24 12 39
f 12 31 39
f 20 43 44
f 43 46 44
f 44 22 20
f 44 46 22
f 29 3 2
f 2 64 4
f 4 29 2
f 53 64 2
f 2 52 53
f 2 3 52
