v 0.00918522663 -0.00058808463 0.00835681228
v 0.00468079783 -0.00629197616 0.00997324382
v -0.00167883005 -0.00582212305 0.0109520668
v -0.00576386303 0.00561205471 0.00975864516
v -0.00741700345 0.00118708093 0.0104771597
v -0.00682151478 -0.00146088408 0.0107233395
v -0.00449933433 0.00849258184 0.00784668891
v -0.00163917989 0.0101426322 0.0059573098
v 0.00872045959 0.00598484756 0.00712993804
v 0.0103526909 0.000478989234 0.00758803096
v -0.00477625529 -0.00982730814 -0.00583014441
v 0.00636274408 0.00279063227 -0.0106943173
v 0.00514390396 0.00452940826 -0.0103975562
v -0.00461252049 0.00718274632 -0.00905214836
v -0.00871146033 0.00436177512 -0.00777876895
v -0.0101926935 0.000107576433 -0.00698526732
v -0.00974479562 -0.00429536109 -0.00652946904
v -0.00433282453 -0.00726962128 0.00644274476
v -0.00444583786 -0.00516694427 0.0108922501
v 0.00255451117 -0.00857469606 0.00718895465
v 0.00562964553 -0.00778614586 -0.00413367402
v 0.00977463679 -0.00292755376 0.00374448384
v 0.00851442775 0.00273913608 -0.0055582342
v 0.00550962174 0.0054953143 -0.00812813977
v 0.0082009211 0.00733305414 0.00667568264
v 0.00514303221 0.00833236108 0.000340394065
v 0.00329914021 0.00895469551 -0.000712635866
v 0.00118164341 0.0103402372 0.00300859314
v -0.00917468143 0.000199786468 0.00271355833
v -0.00997730696 0.000695093376 -0.00294596504
v -0.00895642304 -0.00355967939 0.00183037101
v -0.00490384187 0.00573701312 -0.00987880613
v -0.00790219249 0.00400926156 -0.0090967803
v 0.0039804908 0.00483852389 -0.0111735286
v -0.00993959708 -0.00331984159 -0.00755817907
v -0.00633523191 0.00609647688 -0.00923165851
v 0.00231372642 0.00702999143 -0.0102864671
v -0.000724878602 0.00708696818 -0.0106169615
v 0.00526838066 -0.00724310765 -0.00922050109
v 0.00120343711 -0.00946975975 -0.00838778652
v -0.00218579841 -0.00958783265 -0.00781405245
v -0.00559678847 -0.00881135808 -0.00735645081
v -0.00973496364 0.00138171235 -0.00826091298
v -0.00120553251 -0.0104067877 -0.0073302675
v 0.00301714539 -0.00913117246 -0.00831080164
v 0.00705787151 -0.00483424187 -0.0095133535
v 0.0071629997 -0.00109341547 -0.0106844536
v -0.00361668716 0.00692317606 -0.0101428723
v -0.00844439128 -0.00667642118 -0.00691760421
v 0.00639156124 -0.00628387932 0.00942058649
v -0.00136924136 0.00983714942 0.00796644079
v -0.00740407224 0.0054908994 0.00837884956
v 0.0101413672 0.00321000575 0.00681320617
v -0.000623138872 -0.00700913162 0.0108427221
v -0.00606874395 -0.00238537944 0.0109485953
v -0.0064663562 0.00578832062 0.00931381664
v 0.00297863119 0.0103075701 0.0068181703
v 0.00319957495 0.00968011226 0.00765713117
v 0.00681804359 0.00788399122 0.00725145463
v 0.00926918086 0.00407371795 0.00756461019
v 0.00941111969 -0.00192386742 0.00827598298
v 0.00848824763 -0.00329940944 0.00888156634
v 0.00888962933 -0.00362268527 0.0083163878
v -0.00402047187 0.0081518067 0.00899782753
v -0.00630748517 -0.00114849072 0.0109292417
v 0.00647721404 -0.00553474255 0.0094396943
f 44 41 40
f 22 23 10
f 46 23 22
f 42 41 44
f 47 23 46
f 47 40 34
f 10 23 53
f 53 23 25
f 46 22 21
f 21 22 50
f 50 20 21
f 60 1 10
f 10 53 60
f 54 20 50
f 63 22 10
f 50 22 63
f 57 25 26
f 30 29 52
f 29 30 31
f 35 42 49
f 41 42 35
f 35 30 16
f 52 7 15
f 15 30 52
f 16 30 15
f 12 47 34
f 23 47 12
f 46 21 39
f 39 47 46
f 40 47 39
f 9 53 25
f 9 60 53
f 50 66 2
f 2 54 50
f 18 54 19
f 19 31 18
f 18 31 49
f 20 54 18
f 62 66 50
f 50 63 62
f 1 2 62
f 62 2 66
f 33 48 32
f 34 40 32
f 32 40 41
f 41 35 32
f 32 35 33
f 14 48 36
f 36 48 33
f 33 15 36
f 36 15 7
f 14 28 38
f 38 28 37
f 38 48 14
f 38 37 34
f 34 32 38
f 38 32 48
f 8 28 14
f 14 36 8
f 8 36 7
f 57 28 8
f 27 28 57
f 57 26 27
f 37 28 27
f 27 26 37
f 37 26 24
f 23 12 24
f 25 23 24
f 24 26 25
f 43 35 16
f 33 35 43
f 16 15 43
f 43 15 33
f 49 31 17
f 17 35 49
f 17 31 30
f 30 35 17
f 40 39 45
f 45 39 21
f 44 40 45
f 45 20 44
f 45 21 20
f 1 4 3
f 3 2 1
f 54 2 3
f 19 54 3
f 3 55 19
f 11 42 44
f 44 20 11
f 20 18 11
f 49 42 11
f 11 18 49
f 61 63 10
f 61 62 63
f 10 1 61
f 1 62 61
f 13 12 34
f 13 24 12
f 34 37 13
f 37 24 13
f 57 8 51
f 51 8 7
f 7 64 51
f 4 64 56
f 56 7 52
f 56 64 7
f 60 9 59
f 59 25 57
f 59 9 25
f 58 64 4
f 1 60 58
f 58 4 1
f 60 59 58
f 58 51 64
f 57 51 58
f 58 59 57
f 65 3 4
f 55 3 65
f 4 56 5
f 5 65 4
f 5 56 52
f 52 29 5
f 29 31 5
f 55 65 6
f 65 5 6
f 6 5 31
f 6 31 19
f 19 55 6
