v -0.00372467065 -0.0077986692 -0.00914498576
v -0.00218383891 -0.00973999369 -0.00787572848
v 0.0036553903 0.00504366342 -0.0110523862
v -0.00212664375 0.00255996088 -0.0121234035
v -0.00419983771 0.0010479474 -0.0120200699
v 0.00232334719 -0.0111673657 -0.00476677052
v 0.0109597271 -0.00460046285 -0.00480292579
v 0.0107695941 0.00101680158 -0.00648114925
v 0.00192344607 0.00906948722 -0.00270413536
v 0.000848437651 0.00637895527 -0.00987333761
v -0.00800865788 0.00558621553 -0.00265239116
v 0.00548261656 0.00602487081 0.00956950196
v -0.0079983369 -0.0058262192 0.00627899489
v -0.00663812897 0.00730368436 -0.00155393128
v -0.00414110599 0.00764491429 -0.00395589438
v 0.00254107182 -0.00437774899 0.0109877513
v 1.50338654e-05 0.0110763246 0.00556583455
v 0.00656840147 0.00594271407 -0.00840753061
v 0.00624066889 0.00726543892 -0.00161252764
v 0.0102321088 0.0026696812 -0.00199365203
v 0.00698815141 0.000864716086 0.00856852952
v 0.00912675754 -0.0058300288 -0.000456955114
v -0.001226337 -0.00875289938 0.00395379024
v 0.00198550347 -0.0103427151 -0.0012446831
v -0.00241002756 -0.00921259825 0.000947537067
v -0.0113469674 -6.93631707e-05 0.0042425574
v -0.00847819709 -0.00414767455 -0.00157525209
v -0.00882064721 -0.00245275146 -0.00271181758
v 0.00422883794 -0.00134488543 0.0122044661
v 0.00453988829 0.00805638716 0.00942505897
v -0.00395992643 -0.00550670755 0.0109166625
v -0.0102786175 -0.000572833077 0.00720710726
v -0.00979087073 -0.00156508391 0.00771063769
v 0.00214149164 -0.00335150267 0.0122834315
v -0.0107619073 0.00529184561 0.00504993594
v -0.00981720667 0.00697132599 0.00438737826
v -0.00442330648 0.0105102301 0.00545191958
v -0.00549300161 0.0107295945 0.00424921929
v -0.00209405268 0.0112937882 0.00559683986
v 0.00203232636 0.010409223 0.00687004823
v 0.00581461841 0.00430859819 0.0107554191
v 0.00535865457 0.000837546926 0.0113631
v -0.000582615982 -0.00566858308 0.0113776908
v -0.00529205569 -0.00542235721 0.0101713301
v -0.00758033937 -0.00430426484 0.00932730869
v -0.0107188876 -0.00213051559 0.00694402678
v -0.00801890053 0.00883575992 0.00439311386
v 0.0091998694 0.00346294459 -0.00804826594
v 0.0112223548 -0.00132841942 -0.00575199026
v -0.0036271232 -0.00982746133 -0.00760856796
v -0.00608581223 -0.00259550419 -0.0109484575
v -0.0057443929 -0.00398585678 -0.0105774362
v 0.0106889276 0.000885620664 -0.00672298467
v -0.00537416626 -0.00379545948 -0.0110600768
v 0.00175246338 -0.0112524702 -0.0058331851
v 0.00683453666 -0.010032504 -0.00413032858
v 0.0110271736 -0.00165141105 -0.00620159528
v 0.00971447372 0.00254487653 -0.00792405627
v 0.00594237018 0.00524499925 -0.0100701029
v 0.00347301913 0.0056984199 -0.0109648219
v -0.00315533049 0.00270598065 -0.012056953
v -0.00419482905 -0.00747250025 -0.00929993188
v -0.000266328384 0.00462480571 -0.011954682
v 0.0028746155 -0.01090353 -0.00584998085
v 0.0088124504 -0.0077416453 -0.00486934555
f 32 30 35
f 39 30 40
f 64 56 55
f 46 35 26
f 32 35 46
f 11 35 36
f 26 35 11
f 39 38 37
f 37 30 39
f 37 35 30
f 39 40 17
f 5 11 61
f 55 50 2
f 2 64 55
f 44 31 45
f 45 31 34
f 45 13 44
f 46 13 45
f 34 31 43
f 56 43 24
f 29 22 21
f 29 30 34
f 29 41 30
f 8 48 20
f 49 8 20
f 20 41 21
f 65 22 56
f 56 64 65
f 65 64 57
f 21 22 7
f 49 20 7
f 7 20 21
f 22 65 7
f 7 57 49
f 7 65 57
f 47 11 36
f 47 37 38
f 36 35 47
f 35 37 47
f 61 11 15
f 38 10 15
f 9 38 39
f 9 10 38
f 39 17 9
f 9 60 10
f 18 60 9
f 9 17 40
f 58 48 8
f 50 13 27
f 27 13 46
f 52 50 27
f 27 28 52
f 27 46 26
f 26 28 27
f 11 5 51
f 52 28 51
f 51 54 52
f 51 5 54
f 26 11 51
f 51 28 26
f 62 50 52
f 52 54 62
f 64 2 1
f 1 62 54
f 1 2 50
f 50 62 1
f 34 30 33
f 33 45 34
f 33 30 32
f 32 46 33
f 46 45 33
f 34 43 16
f 16 43 56
f 56 22 16
f 16 29 34
f 22 29 16
f 23 43 31
f 23 24 43
f 23 31 44
f 44 13 23
f 55 56 6
f 56 24 6
f 24 23 6
f 21 41 42
f 42 29 21
f 41 29 42
f 30 41 12
f 12 20 30
f 41 20 12
f 19 48 18
f 19 20 48
f 18 9 19
f 19 9 40
f 19 40 30
f 30 20 19
f 14 47 38
f 11 47 14
f 38 15 14
f 14 15 11
f 10 60 63
f 61 15 63
f 63 15 10
f 57 58 53
f 53 58 8
f 49 57 53
f 53 8 49
f 25 13 50
f 25 23 13
f 25 50 55
f 55 6 25
f 25 6 23
f 54 5 4
f 4 5 61
f 61 63 4
f 3 63 60
f 3 4 63
f 3 58 57
f 57 64 3
f 64 1 3
f 3 1 54
f 54 4 3
f 48 58 59
f 58 3 59
f 59 3 60
f 18 48 59
f 59 60 18
