v -0.000870918449 0.0125291576 0.000787831045
v -0.00856721811 0.00484598333 -0.00802934234
v -0.00364692227 0.00977757342 -0.00705287245
v -0.0106722187 0.00172137342 0.00671883689
v -0.0044830045 0.00768109478 -0.00899360409
v 0.00090293629 0.00867400854 -0.00682221523
v -0.00017024196 0.00979056265 0.00662239981
v -0.00517029341 0.00764887622 0.00893416685
v 0.0126613714 -0.000182475158 -0.00153936774
v 0.00531891454 -0.00700802256 -0.00923208548
v 0.000719395419 -0.0112114704 -0.00541934931
v 0.00203351022 -0.0110139826 0.00645868697
v 0.00786881769 -0.00101895503 0.00804385291
v 0.00204235899 0.00116576087 0.00929726622
v 0.0110443402 -0.00123136506 0.00605179058
v 0.0069257579 0.00546441524 0.00385946776
v 0.00572384495 0.00764923376 0.00092578409
v 0.00992069849 -0.00184077707 -0.00732804786
v -0.00460939637 0.00383036329 -0.00960622753
v -0.00642485646 -0.00249875061 -0.00712885329
v -0.0116555622 -0.00117310287 -0.00281593235
v -0.00505380094 -0.00832509296 0.00133665533
v -0.0124989622 0.000132346361 0.00306328723
v 1.14046813e-05 -0.0121134253 0.00344774837
v -0.00498583634 -0.0032360525 0.00750958792
v 0.00212012128 -0.00694646847 0.00880393044
v -0.0084069972 0.00372182337 0.00871288263
v 0.00643959167 -0.00568929501 0.0091719041
v 0.00880423833 -0.00430292065 -0.00842631547
v 0.00711686579 -0.00631892427 -0.00843492634
v 0.00184719808 -0.0115727869 0.00469588208
v 0.000864354062 -0.012574876 -0.00164760101
v 0.00281298421 -0.0105079076 -0.00683257617
v 0.012621949 -0.000785306563 -0.00239834656
v 0.0117696609 -0.00165680928 0.00401878146
v 0.00984887181 -0.00354202814 0.0072032226
v 0.0076009359 -0.0055685442 0.00849515359
v 0.0095956061 -0.00347497435 0.0077411877
v 0.0126198026 -0.000154828314 0.00250803309
v 0.0111940545 -0.00161205855 -0.00576868881
v 0.00717954104 -0.00589712517 -0.00862798923
v 0.00251314866 -0.0101273617 -0.00737253369
v 0.0005128978 -0.0128018565 0.000691787655
v -8.37503003e-05 -0.0125094154 -0.0023657398
v 0.00397319246 -0.00878230127 0.00827883485
v 0.00536758193 -0.00794686273 0.00850549935
v -0.000393636398 0.0118631535 0.00401501114
v -0.00328343583 0.00996496879 -0.00733521021
v -0.0116415307 0.00119734661 -0.00489230095
v -0.0089004525 0.00396986821 -0.00839969832
v 0.00211859076 0.0120716478 -0.00423663619
v -0.0120977766 0.0012568887 -0.00392927659
v -0.0106196126 0.00184008194 -0.00657190022
v -0.00858480146 0.00481240641 0.00813185608
v -0.0122968303 0.00108977482 0.00298410458
v -0.0100661978 0.00325736123 -0.00693862287
v -0.00572190405 0.0075553024 -0.00837816816
v -0.000616500659 0.0119789702 -0.00434522902
v -0.000665055139 0.0126681673 -0.00141194261
v -0.00538964803 0.00788203819 0.00829138523
v -0.0117222352 0.00168097281 0.00493572804
v -0.0124901548 0.000739049677 -0.00301600319
v -0.00182976445 0.0114652576 0.00549698144
v -0.00438781169 0.00896796814 0.00779010471
f 23 21 22
f 43 22 44
f 44 22 21
f 34 51 9
f 19 10 50
f 43 44 32
f 23 22 24
f 24 22 43
f 9 51 39
f 39 34 9
f 35 34 39
f 28 46 37
f 37 46 36
f 28 26 45
f 45 46 28
f 29 10 19
f 51 34 40
f 40 18 51
f 34 29 40
f 40 29 18
f 51 48 58
f 51 18 6
f 6 48 51
f 19 50 5
f 48 6 5
f 5 29 19
f 18 29 5
f 5 6 18
f 36 46 31
f 31 35 36
f 31 32 35
f 43 32 31
f 31 24 43
f 26 27 25
f 54 27 8
f 1 3 54
f 17 39 51
f 36 35 15
f 35 39 15
f 30 29 34
f 30 34 35
f 35 32 30
f 59 3 1
f 48 3 59
f 59 58 48
f 1 51 59
f 51 58 59
f 57 50 2
f 57 5 50
f 48 5 57
f 2 3 57
f 57 3 48
f 2 50 56
f 20 50 10
f 10 42 20
f 46 45 12
f 12 31 46
f 24 31 12
f 12 45 26
f 26 25 12
f 12 25 24
f 60 54 8
f 27 54 4
f 4 25 27
f 23 24 4
f 24 25 4
f 61 3 2
f 61 54 3
f 2 55 61
f 61 4 54
f 61 55 23
f 23 4 61
f 47 51 1
f 47 17 51
f 16 15 39
f 7 15 16
f 16 47 7
f 39 17 16
f 17 47 16
f 13 15 7
f 10 29 41
f 41 30 10
f 29 30 41
f 33 42 10
f 10 30 33
f 33 30 32
f 33 32 44
f 52 56 49
f 52 55 2
f 2 56 52
f 50 20 53
f 53 56 50
f 49 56 53
f 21 49 53
f 53 20 21
f 11 20 42
f 11 33 44
f 42 33 11
f 11 44 21
f 21 20 11
f 8 7 63
f 7 47 63
f 63 47 1
f 36 15 38
f 15 13 38
f 38 13 28
f 28 37 38
f 38 37 36
f 14 7 8
f 14 13 7
f 28 13 14
f 8 27 14
f 14 26 28
f 14 27 26
f 62 49 21
f 62 52 49
f 62 21 23
f 23 55 62
f 55 52 62
f 64 60 8
f 8 63 64
f 54 60 64
f 1 54 64
f 64 63 1
