v 0.000709902813 -0.0114674006 0.0053130761
v -0.0010095767 2.47483128e-05 0.0126722399
v 0.00557245581 0.00750998419 0.00270721189
v 0.00844199408 0.00375488796 0.00843843709
v 0.0113271316 0.000980756655 0.00438090118
v 0.0115247496 -0.00442817408 0.00210557755
v 0.00321935484 -0.0120657623 0.0031262519
v -0.00122520252 -0.011153688 0.00503406099
v 0.00242927786 4.4271836e-05 -0.0125985583
v 0.00389531639 0.00474528222 -0.0111780125
v 0.00532314015 0.00785394166 -0.00523142668
v 0.00247348267 0.010253505 -0.00349202832
v -0.00131749318 0.0120959602 -0.0035924669
v -0.00532829567 0.0113518627 -0.00216712558
v -0.00906108898 0.00373269725 0.00248357574
v -0.0070518164 0.00430657077 0.00482746879
v -0.00763379912 -0.00435893666 0.00616009324
v -0.00405119096 0.00586197572 0.00643902537
v -0.0050768175 -0.0016645079 0.0105243867
v -0.00950641741 -0.00301561955 -0.00826262181
v -0.00614289862 -0.00729050273 -0.00138632927
v -0.00599200258 -0.00609590152 -0.0071214722
v -0.000382533487 -0.00898437094 -0.00327304085
v 0.00244145525 -0.00801668915 -0.00469098335
v 0.00818895338 -0.00346294926 -0.00608623087
v 0.00819437774 0.00517659273 0.0021374483
v -0.00220476103 0.0113373001 -0.000976445388
v 0.000587135495 0.00280401339 0.0121796725
v -0.00495308625 0.00424079026 0.00711980301
v 0.00184351639 0.00183054957 -0.0121583299
v 0.00221418365 0.00931393432 -0.00814344566
v -0.00619149169 -0.00358924205 -0.0105844245
v -0.00881333127 0.0095071941 -0.00155334641
v -0.004568877 0.0115123253 -0.00223433737
v -0.0116561376 0.00469837503 -0.0022699319
v -0.0116463808 0.00351502109 -0.00345376213
v -0.0119454991 0.000814389954 -0.00477501716
v -0.010083319 -0.00249902992 -0.0075288038
v -0.0105426795 -0.00228406914 -0.00626729187
v -0.00390516686 -0.00411277867 -0.0113441984
v -0.0016333959 -0.00274094272 -0.0125361036
v 0.00286348959 0.00243819032 -0.0123249293
v 0.00421535098 0.00707133039 -0.00957951374
v 0.00235593892 0.010282289 -0.00738706866
v -0.000308235274 0.0117170629 -0.0049608017
v -0.00644597116 0.0106526742 -0.00248496503
v -0.00225911098 0.0117338506 -0.00423829574
v -0.000753669493 0.0013525264 0.0124901244
v 0.00499940089 -0.0113661824 0.00207850218
v 0.0101339308 -0.0077721378 0.00166250902
v 0.010713748 0.0019631788 0.00673491152
v 0.00712601455 0.00347685271 0.0100721007
v 0.0115305277 0.000223533396 0.00521847526
v 0.0121503069 -0.00200520124 0.00371820096
v 0.00483248292 -0.0114841977 0.00273101039
v -0.00362780182 -0.00944891864 0.00760785434
v -0.00323767745 -0.00266368933 0.0121978552
v 0.00222313696 0.00245847411 0.0122368444
v 0.0054902118 0.00400591628 0.0109176033
v -0.00014426666 -0.0117503829 0.00523018636
v -0.00303977134 -0.00839073568 0.00904219819
v 0.00340420406 0.00385243221 0.0120021525
v 0.0113611688 0.000275695777 0.00581078854
v -0.0039800818 -0.00558986409 0.0108252402
v 0.00972756094 -0.00858385304 0.00178228163
f 25 43 54
f 54 43 5
f 2 1 58
f 1 52 58
f 13 27 3
f 3 27 59
f 34 27 13
f 43 25 10
f 7 1 60
f 9 25 41
f 39 17 37
f 60 1 61
f 61 1 2
f 2 58 48
f 18 48 28
f 17 64 19
f 51 5 26
f 26 3 51
f 52 63 51
f 43 44 11
f 11 5 43
f 26 5 11
f 11 3 26
f 59 27 62
f 62 52 59
f 62 58 52
f 28 48 62
f 62 48 58
f 27 18 62
f 62 18 28
f 54 5 53
f 53 63 54
f 5 51 53
f 53 51 63
f 31 47 44
f 31 44 43
f 43 10 31
f 54 63 65
f 65 52 1
f 65 63 52
f 46 36 33
f 46 31 30
f 47 31 46
f 45 47 13
f 44 47 45
f 60 8 21
f 21 22 60
f 40 22 32
f 32 41 40
f 30 41 32
f 37 36 32
f 36 46 32
f 32 46 30
f 56 8 60
f 60 61 56
f 56 21 8
f 56 64 17
f 56 61 64
f 17 39 56
f 39 21 56
f 33 16 29
f 29 18 33
f 48 18 29
f 16 19 29
f 29 19 48
f 27 34 14
f 14 18 27
f 33 18 14
f 14 46 33
f 47 46 14
f 14 34 13
f 13 47 14
f 33 36 35
f 17 19 35
f 37 17 35
f 35 36 37
f 57 19 64
f 57 61 2
f 64 61 57
f 2 48 57
f 48 19 57
f 52 51 4
f 4 51 3
f 59 52 4
f 4 3 59
f 12 11 44
f 3 11 12
f 44 45 12
f 13 3 12
f 12 45 13
f 30 31 42
f 42 31 10
f 9 41 42
f 42 41 30
f 42 25 9
f 42 10 25
f 6 25 54
f 40 41 24
f 24 41 25
f 25 65 24
f 20 21 39
f 22 21 20
f 20 32 22
f 37 32 20
f 15 19 16
f 15 35 19
f 15 16 33
f 33 35 15
f 50 65 25
f 25 6 50
f 54 65 50
f 50 6 54
f 7 24 49
f 49 24 65
f 40 24 23
f 23 24 7
f 23 22 40
f 23 7 60
f 60 22 23
f 38 39 37
f 37 20 38
f 38 20 39
f 7 49 55
f 55 49 65
f 1 7 55
f 55 65 1
