v 0.000545557702 0.0119571397 -0.00500058315
v -0.0124776355 0.00238359521 -0.0019351017
v -0.000386736477 0.00211877332 -0.0127098336
v -0.00569087923 0.0114221061 7.27553051e-06
v 0.00243439698 0.0102977206 -0.00729649515
v 0.0103120919 0.00286665749 0.00127497829
v -0.0117711927 -0.00136458953 -0.000314434823
v 0.00345335097 -0.0101485429 -0.00279536711
v 0.00951895072 0.00287691573 0.00711280852
v 0.0026415349 0.000619366825 0.0122577218
v 0.0050635413 0.0015519236 0.0118095899
v -0.000166550206 0.00134857535 0.0110568129
v 0.00795598768 -0.0093423966 -0.00172804198
v -0.00476867164 -0.00778674371 0.0054050323
v -0.00254075284 -0.00771636785 0.0100159331
v -0.00168956409 -0.00458397099 0.011628536
v -0.000324549171 -0.00195844504 0.0125618579
v 0.00779987574 0.00314361978 0.00909131539
v 0.0101113099 -0.00785203862 -0.00113509663
v -0.00401896204 0.00654477034 0.00607430841
v -0.00444445193 -0.00167392297 -0.0117042373
v 0.00194087376 -0.0126500307 0.00191921321
v -0.00664178443 -0.00415900726 -0.00865348261
v -0.00267013142 -0.010579162 0.00185539558
v -0.0108058532 -0.00181683877 -0.00634430448
v -0.00832993428 -0.00480058774 0.00117510152
v -0.00832219509 0.00200309773 0.00486215071
v -0.0115555488 0.00531723123 0.00102274522
v -0.0032157383 0.011796032 0.00130445373
v 0.00639897213 0.00679281906 0.0026978407
v 0.00187274033 0.0111900018 -0.00423769613
v 0.00662111096 0.00195333012 -0.00690519969
v 0.0111626665 -0.00248328672 -0.00139364711
v 0.00379306647 0.00560105051 -0.00983965846
v 0.00354440573 -0.00199539563 -0.00933120586
v 0.00782439405 -0.00966231331 -0.000268283286
v 0.00424378082 -0.0119905438 0.000734428763
v 0.0111424396 0.000760528344 0.00600443259
v -0.00163185091 -0.0103885041 0.00734311272
v -0.00253335244 -0.00989776406 0.00712412849
v 0.00180557452 -0.00113732412 0.0124921951
v 0.00703544062 -0.0106673439 -0.000867429276
v 0.00535787617 -0.0114719281 -0.000650034805
v 0.000142486175 -0.0123110494 0.00349929924
v -0.000465953113 -0.00397562062 0.012091075
v 0.00676917087 0.0018662972 0.0107436091
v 0.0100617458 0.00205795182 0.00747210054
v 0.0118712166 0.000592717346 0.00501107627
v 0.0119152575 0.000536744056 0.00419730578
v 0.012458978 -0.00304104958 0.000831093729
v 0.0112281991 -0.00600632082 -7.24163575e-05
v -0.0021576682 -0.000994891326 -0.0121312222
v -0.00803713665 0.00985978787 0.00104811115
v -0.00288849418 0.012364629 -0.000942731755
v 0.00248259038 0.00716085064 -0.0100463711
v -0.00191308404 0.012462734 -0.00217057205
v -0.00950736705 -0.00211087594 -0.00841998924
v 0.00171105395 0.00573794363 -0.0113543909
v -0.0114291791 -0.000694762482 -0.00569102077
v 0.00180957743 0.00907036831 -0.00876399945
v -0.0103822378 0.0073982842 0.00122805144
v -0.00248597303 0.000758219295 -0.0123246422
v -0.00994142614 0.00809757813 0.000886884687
v -0.00724913435 -0.0020829636 -0.0103852725
v -0.00509453034 -0.00109023632 -0.011597333
f 16 45 17
f 45 39 36
f 36 38 45
f 53 63 61
f 61 20 53
f 17 20 61
f 4 54 56
f 4 63 53
f 3 34 35
f 35 52 3
f 5 60 1
f 1 4 56
f 60 4 1
f 58 34 3
f 5 34 55
f 55 60 5
f 34 58 55
f 55 58 60
f 59 7 2
f 59 4 60
f 2 63 59
f 63 4 59
f 9 30 18
f 30 9 6
f 6 34 5
f 17 45 41
f 12 20 17
f 47 9 18
f 20 11 29
f 54 4 29
f 29 11 18
f 53 20 29
f 29 4 53
f 18 30 29
f 56 54 29
f 29 30 56
f 15 39 45
f 45 16 15
f 40 39 15
f 44 39 40
f 40 24 44
f 22 39 44
f 44 24 22
f 40 7 26
f 26 24 40
f 7 24 26
f 57 24 25
f 25 24 7
f 25 59 57
f 7 59 25
f 13 35 19
f 38 36 51
f 36 19 51
f 3 52 62
f 62 59 60
f 62 58 3
f 60 58 62
f 27 16 17
f 17 61 27
f 27 15 16
f 7 15 27
f 33 6 50
f 34 6 33
f 33 19 35
f 50 51 33
f 33 51 19
f 5 1 31
f 31 6 5
f 30 6 31
f 56 30 31
f 31 1 56
f 11 41 46
f 38 47 46
f 45 38 46
f 46 41 45
f 18 11 46
f 46 47 18
f 10 11 20
f 20 12 10
f 10 12 17
f 17 41 10
f 10 41 11
f 48 6 9
f 9 47 48
f 48 47 38
f 48 51 50
f 38 51 48
f 14 7 40
f 40 15 14
f 14 15 7
f 22 43 37
f 37 39 22
f 37 36 39
f 8 35 13
f 52 35 8
f 8 43 22
f 59 62 65
f 57 59 65
f 65 64 57
f 7 27 28
f 28 27 61
f 2 7 28
f 28 63 2
f 28 61 63
f 32 35 34
f 34 33 32
f 32 33 35
f 50 6 49
f 49 48 50
f 6 48 49
f 36 37 42
f 42 37 43
f 42 19 36
f 13 19 42
f 42 8 13
f 43 8 42
f 52 8 21
f 64 65 21
f 21 62 52
f 21 65 62
f 64 21 23
f 23 21 8
f 23 8 22
f 22 24 23
f 23 24 57
f 57 64 23
